<?xml version="1.0" standalone="no"?>
<!DOCTYPE svg PUBLIC "-//W3C//DTD SVG 20010904//EN"
 "http://www.w3.org/TR/2001/REC-SVG-20010904/DTD/svg10.dtd">
<svg version="1.0" xmlns="http://www.w3.org/2000/svg"
 width="342.000000pt" height="154.000000pt" viewBox="0 0 342.000000 154.000000"
 preserveAspectRatio="xMidYMid meet">
<metadata>
Created by potrace 1.16, written by Peter Selinger 2001-2019
</metadata>
<g transform="translate(0.000000,154.000000) scale(0.100000,-0.100000)"
fill="#000000" stroke="none">
<path d="M2925 1448 c21 -70 22 -68 -36 -68 -33 0 -69 -8 -96 -21 -26 -12 -53
-19 -66 -15 -12 3 -35 1 -52 -3 -118 -36 -175 -42 -397 -42 -125 0 -231 2
-235 4 -5 3 -126 8 -270 12 -145 3 -286 10 -315 14 -51 8 -53 8 -82 -25 -16
-19 -35 -34 -43 -34 -7 0 -27 -17 -45 -37 -18 -20 -63 -69 -100 -108 -60 -63
-71 -71 -100 -69 -18 2 -80 3 -138 4 -58 1 -127 6 -155 11 -27 5 -65 11 -84
14 -18 3 -43 12 -55 20 -41 30 -83 5 -66 -39 3 -11 4 -31 2 -44 -4 -22 -8 -24
-48 -19 -48 5 -71 -10 -60 -40 4 -9 7 -64 7 -122 0 -130 -9 -140 -111 -141
-82 0 -124 12 -229 63 -63 30 -87 38 -100 30 -25 -16 -40 -94 -38 -210 2 -96
4 -108 20 -111 11 -2 31 8 45 21 27 26 106 49 267 81 39 7 75 15 80 16 27 6
44 -1 38 -16 -3 -9 0 -20 7 -24 9 -5 14 -34 15 -80 2 -39 8 -77 14 -83 13 -13
13 -6 13 125 l-1 87 47 7 c26 3 52 10 57 14 38 27 40 21 37 -90 -2 -68 0 -116
8 -129 18 -34 33 -14 26 34 -5 29 -3 45 6 53 8 6 15 38 16 79 2 37 5 69 6 71
2 1 51 8 109 14 59 7 107 16 107 20 0 10 61 10 76 0 7 -4 31 -45 55 -91 24
-47 62 -105 86 -130 29 -30 41 -51 38 -62 -4 -13 3 -23 24 -34 17 -8 31 -20
31 -25 0 -6 6 -10 14 -10 8 0 16 -10 18 -22 3 -20 8 -22 48 -20 40 3 339 -14
445 -24 149 -14 299 -23 420 -24 194 -3 347 -8 430 -14 39 -4 108 -8 155 -10
100 -5 138 -19 146 -55 10 -45 13 -51 28 -51 11 0 14 19 15 91 1 50 3 94 5 98
5 8 42 305 51 406 10 119 11 122 53 129 20 3 96 10 167 16 156 13 178 17 169
32 -7 10 -145 7 -302 -8 l-63 -6 6 113 c4 63 13 153 21 202 8 48 14 98 14 111
0 13 11 57 24 97 18 54 21 76 13 81 -7 4 -54 8 -106 8 -92 0 -93 0 -86 -22z
m145 -25 c0 -10 -4 -36 -9 -58 -5 -22 -12 -68 -15 -102 -4 -35 -9 -80 -11
-100 -3 -21 -12 -91 -20 -156 -8 -65 -15 -125 -15 -133 0 -7 -9 -14 -20 -14
-20 0 -20 4 -15 103 3 56 7 183 10 282 2 99 5 181 5 182 0 1 15 4 33 6 17 2
38 5 45 5 6 1 12 -6 12 -15z m-138 -98 c10 -4 12 -35 10 -143 -2 -104 -14
-282 -21 -309 -2 -8 -118 -1 -191 12 -47 8 -115 17 -152 20 -37 4 -70 11 -73
16 -4 5 -14 9 -24 9 -16 0 -20 -14 -28 -117 -6 -71 -6 -123 0 -130 6 -9 23 -5
65 17 55 29 308 90 370 90 l27 0 -2 -172 c-2 -198 -10 -378 -17 -385 -9 -10
-108 30 -157 63 -28 19 -55 34 -61 34 -5 0 -22 8 -36 18 -15 10 -43 24 -62 31
-58 22 -170 73 -260 120 -145 75 -302 152 -314 154 -6 1 -13 5 -16 8 -5 7
-162 82 -193 93 -25 8 -17 26 19 46 16 9 49 28 74 43 25 14 81 44 125 67 44
23 96 51 115 62 19 12 107 57 195 100 88 44 225 111 305 151 115 57 154 72
190 72 29 0 52 6 64 17 21 19 27 21 48 13z m-942 -51 c41 -3 77 -7 79 -10 2
-2 -63 -4 -145 -4 -131 0 -250 -7 -431 -25 -29 -2 -53 -1 -53 3 0 4 -3 17 -6
30 l-6 23 243 -6 c134 -3 278 -8 319 -11z m614 -3 c7 -11 -48 -45 -87 -55 -15
-3 -27 -11 -27 -16 0 -6 -5 -10 -11 -10 -11 0 -177 -71 -212 -90 -9 -6 -70
-33 -135 -61 -64 -27 -127 -57 -139 -65 -12 -7 -27 -14 -32 -14 -6 0 -57 -22
-114 -49 -57 -28 -127 -59 -156 -70 l-52 -21 -17 31 c-9 17 -27 46 -39 64 -32
50 -110 216 -118 251 -6 30 -4 31 32 38 35 5 270 19 523 30 120 5 527 35 550
40 26 6 29 6 34 -3z m-1189 -65 c10 -25 22 -43 27 -40 4 3 8 2 9 -3 0 -4 2
-24 3 -44 1 -19 12 -52 24 -72 37 -63 17 -41 -58 64 -69 97 -71 101 -54 120
24 27 29 25 49 -25z m1065 -31 c0 -8 -62 -37 -67 -31 -3 3 10 12 28 20 42 18
39 17 39 11z m-1129 -27 c10 -13 38 -50 61 -82 24 -32 60 -79 81 -103 21 -25
46 -61 57 -81 11 -21 34 -56 51 -79 39 -51 37 -55 -87 -153 -49 -39 -109 -87
-133 -107 -86 -74 -140 -107 -154 -94 -23 18 -137 332 -137 375 0 39 78 165
191 307 36 45 44 47 70 17z m1049 -12 c0 -5 -109 -56 -118 -56 -10 0 42 34 54
36 7 1 20 7 31 13 19 11 33 14 33 7z m-1180 -34 c0 -5 -8 -17 -17 -28 -34 -37
-100 -130 -124 -174 -13 -25 -31 -50 -39 -57 -15 -12 -57 -8 -73 7 -6 5 238
259 251 260 1 0 2 -4 2 -8z m1049 -26 c-4 -5 -129 -70 -334 -176 -71 -37 -157
-81 -189 -98 -41 -22 -64 -29 -75 -22 -13 7 -6 13 33 30 27 11 162 77 300 145
219 109 282 138 265 121z m-1501 -37 c24 -5 46 -7 50 -5 5 3 14 1 21 -3 13 -8
-112 -31 -169 -31 -26 0 -30 4 -30 29 0 28 1 29 43 24 23 -2 61 -9 85 -14z
m267 -49 c9 -15 -64 -78 -105 -91 -67 -22 -77 -44 -31 -70 18 -11 31 -28 36
-47 3 -18 14 -32 26 -35 10 -3 19 -10 19 -15 0 -11 -143 -25 -207 -20 l-41 3
23 68 c12 37 31 77 41 88 24 27 11 34 -68 34 l-63 0 -5 -92 c-3 -50 -7 -94
-11 -97 -3 -3 -31 -8 -62 -12 -69 -8 -68 -9 -27 105 42 114 57 140 83 145 120
22 205 33 272 35 44 1 82 4 84 7 8 8 30 4 36 -6z m-471 -39 c3 -4 -3 -32 -14
-62 l-19 -54 -1 56 c0 31 3 59 7 62 9 10 21 9 27 -2z m2061 -93 c44 -5 118
-11 164 -15 90 -6 90 -16 1 -28 -50 -6 -222 -45 -271 -60 -17 -6 -19 -1 -19
44 0 63 8 84 29 75 9 -3 52 -11 96 -16z m-1899 2 c7 -7 4 -30 -10 -73 l-21
-62 -3 39 c-2 24 2 42 10 47 10 7 10 9 1 9 -14 0 -18 32 -6 43 9 10 17 9 29
-3z m2267 -77 c2 -12 1 -23 -4 -23 -4 0 -8 -8 -8 -17 0 -17 -4 -61 -17 -203
-3 -30 -9 -58 -12 -62 -7 -7 -4 297 2 318 7 20 34 11 39 -13z m-1900 -90 c20
-49 39 -104 42 -123 l6 -35 -24 28 c-27 33 -108 203 -99 211 3 3 13 6 22 6 12
0 28 -26 53 -87z m-982 31 c10 -9 46 -26 81 -39 l62 -22 -44 -23 c-48 -25 -92
-54 -127 -84 l-23 -19 0 49 c0 77 12 154 23 154 6 0 18 -7 28 -16z m1756 -39
c51 -25 99 -45 108 -45 8 0 15 -3 15 -8 0 -4 15 -13 33 -21 17 -8 63 -29 101
-47 37 -19 72 -31 77 -28 5 3 9 1 9 -5 0 -6 47 -34 105 -62 58 -28 104 -54
102 -56 -3 -2 -83 34 -178 80 -96 46 -203 97 -239 112 -36 16 -106 48 -157 72
-90 42 -136 53 -148 33 -3 -6 2 -13 12 -16 25 -9 148 -61 202 -85 24 -11 64
-29 90 -39 25 -10 69 -29 96 -43 28 -13 88 -41 135 -62 163 -71 256 -113 340
-154 36 -17 77 -31 90 -31 14 -1 36 -7 49 -14 l23 -13 -23 -6 c-13 -3 -26 -3
-29 1 -3 4 -72 8 -155 9 -144 2 -201 10 -450 59 -44 9 -87 16 -95 17 -8 1 -17
5 -20 9 -3 4 -24 10 -45 13 -68 10 -79 12 -120 23 -22 6 -69 14 -105 18 -36 4
-67 8 -70 9 -3 1 -25 5 -50 9 -66 10 -131 29 -128 37 2 4 64 71 138 149 156
164 137 158 287 85z m-1229 -22 c-10 -2 -26 -2 -35 0 -10 3 -2 5 17 5 19 0 27
-2 18 -5z m-163 -23 c-3 -4 -29 -11 -58 -15 -28 -4 -89 -15 -135 -26 -46 -10
-87 -19 -90 -19 -4 1 20 15 53 32 47 25 77 33 140 38 83 6 99 4 90 -10z m105
16 c0 -2 -13 -6 -30 -8 -16 -3 -30 -1 -30 4 0 4 14 8 30 8 17 0 30 -2 30 -4z
m899 -113 c-41 -43 -78 -83 -84 -89 -5 -7 -31 -34 -56 -61 -45 -48 -46 -48
-56 -26 -10 21 -7 28 30 62 44 41 229 190 236 191 2 0 -29 -35 -70 -77z m1468
-150 c-3 -10 -5 -4 -5 12 0 17 2 24 5 18 2 -7 2 -21 0 -30z m-1434 14 c6 3 7
2 4 -4 -6 -10 322 -77 385 -77 21 -1 38 -4 38 -8 0 -8 90 -34 155 -44 46 -7
48 -8 20 -14 -16 -4 -34 -4 -40 -1 -5 3 -23 6 -40 7 -16 1 -88 7 -160 13 -167
16 -194 18 -345 25 -69 4 -144 9 -167 13 l-43 5 42 47 42 47 50 -7 c27 -5 54
-5 59 -2z"/>
</g>
</svg>
