<?xml version="1.0" standalone="no"?>
<!DOCTYPE svg PUBLIC "-//W3C//DTD SVG 20010904//EN"
 "http://www.w3.org/TR/2001/REC-SVG-20010904/DTD/svg10.dtd">
<svg version="1.0" xmlns="http://www.w3.org/2000/svg"
 width="282.000000pt" height="160.000000pt" viewBox="0 0 282.000000 160.000000"
 preserveAspectRatio="xMidYMid meet">
<metadata>
Created by potrace 1.16, written by Peter Selinger 2001-2019
</metadata>
<g transform="translate(0.000000,160.000000) scale(0.100000,-0.100000)"
fill="#000000" stroke="none">
<path d="M1045 1328 c-88 -60 -105 -72 -200 -145 -37 -29 -74 -53 -81 -53 -8
0 -14 -4 -14 -8 0 -5 -11 -14 -25 -20 -30 -14 -31 -22 -5 -50 l21 -22 -53 0
c-29 1 -122 7 -205 14 -140 13 -157 17 -209 46 -55 31 -57 31 -75 13 -24 -24
-39 -105 -39 -215 0 -71 3 -90 16 -95 12 -4 11 -8 -7 -17 -17 -8 -26 -26 -35
-71 -7 -33 -15 -67 -18 -75 -3 -8 -2 -21 3 -29 8 -12 19 -10 68 11 32 14 69
28 83 31 47 11 235 22 340 20 l105 -2 54 -58 c137 -148 214 -223 227 -223 30
0 17 22 -65 108 -13 14 -33 53 -44 86 -11 34 -26 70 -34 81 -7 11 -13 29 -13
41 0 56 -29 72 -49 28 l-12 -27 -87 7 c-48 4 -100 11 -117 16 -16 5 -50 11
-75 14 -109 13 -289 46 -300 53 -8 7 75 76 130 109 103 59 193 86 325 94 74 5
122 4 126 -2 4 -5 17 -8 30 -6 19 2 24 10 25 35 1 17 16 56 33 86 17 30 31 60
31 67 0 14 46 60 59 60 5 0 31 18 57 40 27 22 52 40 56 40 4 0 6 -17 5 -37 -2
-35 0 -38 23 -34 65 9 1082 -3 1241 -15 54 -5 79 -3 84 6 17 28 9 29 -400 50
-99 5 -252 19 -340 30 -263 35 -297 39 -366 40 -36 0 -88 7 -115 15 -27 8 -56
15 -65 15 -9 0 -52 -24 -94 -52z m160 2 c17 -4 82 -11 145 -14 106 -6 278 -30
288 -41 3 -2 -71 -1 -164 3 -93 4 -211 7 -261 7 -98 -1 -105 3 -82 46 7 14 16
18 27 14 9 -4 31 -11 47 -15z m-381 -242 c-25 -48 -27 -51 -40 -33 -8 10 -14
22 -14 26 0 5 68 56 78 58 1 1 -10 -22 -24 -51z m-422 -89 l53 0 -50 -18 c-27
-9 -77 -35 -110 -56 -33 -22 -66 -44 -74 -49 -11 -7 -12 6 -6 75 4 46 9 87 11
91 2 3 31 -4 64 -18 35 -14 81 -24 112 -25z m-147 -260 c22 -6 69 -15 104 -20
57 -8 103 -25 69 -26 -55 -1 -162 -15 -208 -28 -30 -8 -55 -13 -56 -12 -1 1 3
23 9 50 11 51 16 53 82 36z m607 -172 c16 -31 -14 -8 -61 47 -42 49 -42 49
-19 60 21 10 24 8 47 -39 13 -27 28 -58 33 -68z"/>
<path d="M2414 1119 c-4 -6 -34 -24 -68 -39 -34 -15 -70 -38 -80 -49 -20 -22
-20 -22 2 -28 17 -4 79 -91 70 -98 -2 -1 -82 -27 -178 -58 -199 -65 -311 -91
-350 -82 l-27 6 31 37 c17 20 57 63 89 96 64 65 64 86 0 86 -38 0 -67 12 -100
43 -30 27 -57 16 -48 -21 8 -37 -72 -199 -95 -193 -8 2 -46 7 -85 11 -38 4
-103 17 -142 29 -40 11 -104 30 -142 41 -122 35 -225 70 -261 90 -38 20 -74
14 -47 -8 19 -16 21 -147 3 -199 -8 -23 -11 -44 -8 -48 4 -4 7 -34 7 -68 l0
-62 60 -1 c33 -1 87 4 120 12 80 17 102 21 220 34 55 6 128 16 163 24 34 7 62
12 62 12 0 -1 -30 -59 -67 -130 l-68 -129 -80 2 c-117 3 -245 20 -282 38 -53
25 -64 8 -61 -95 2 -67 7 -87 20 -96 23 -14 47 6 30 26 -30 37 5 38 373 14 44
-3 148 -8 230 -11 83 -3 170 -8 195 -10 25 -2 88 -7 140 -10 52 -3 122 -8 155
-11 33 -3 100 -1 149 4 63 7 95 7 107 -1 20 -13 72 9 66 27 -2 6 -50 18 -107
28 -57 9 -110 20 -119 24 -9 4 -65 6 -126 5 -149 -2 -623 44 -642 63 -7 7 46
116 56 116 9 0 117 132 123 151 4 12 75 38 104 39 18 0 112 -31 204 -68 35
-13 89 -29 130 -37 19 -4 56 -18 83 -31 46 -24 47 -25 32 -47 -8 -13 -29 -33
-45 -46 -25 -18 -29 -25 -19 -37 6 -7 14 -12 18 -9 4 2 34 -2 66 -10 32 -7 64
-11 72 -8 18 7 17 43 -2 43 -21 0 -19 10 16 82 41 81 91 158 104 158 6 0 19
-16 29 -35 11 -19 25 -35 33 -35 19 0 16 14 -12 69 -21 43 -22 51 -10 61 8 7
15 18 15 26 0 7 20 42 45 77 25 36 45 70 45 77 0 26 -27 0 -73 -69 -54 -81
-76 -89 -89 -31 -11 52 -10 180 2 220 5 19 10 38 10 42 0 12 -38 9 -46 -3z
m-21 -127 c-3 -34 -10 -62 -14 -62 -9 0 -49 72 -49 88 0 7 61 42 67 38 1 -1
-1 -29 -4 -64z m-516 -43 c10 -3 -65 -107 -116 -162 -5 -4 -20 -3 -34 4 l-26
12 44 87 44 88 38 -13 c21 -7 44 -14 50 -16z m-708 -38 c64 -21 136 -44 161
-51 25 -6 85 -22 135 -36 49 -13 106 -24 125 -25 59 -1 69 -9 54 -45 -12 -29
-17 -31 -110 -48 -54 -10 -156 -24 -227 -32 -71 -8 -133 -17 -138 -20 -5 -3
-38 -8 -73 -11 -71 -6 -86 4 -66 42 10 19 10 30 1 53 -10 24 -10 35 2 58 10
20 13 49 9 92 -2 34 -1 62 3 62 5 0 60 -17 124 -39z m1225 -80 c40 -64 41 -81
4 -124 -18 -20 -44 -39 -57 -42 -27 -5 -41 -21 -41 -46 0 -14 -6 -15 -32 -9
-18 4 -49 15 -68 23 -19 8 -51 18 -70 22 -59 11 -240 79 -232 86 4 4 43 16 87
27 44 11 118 32 165 47 71 22 185 51 212 54 4 1 19 -17 32 -38z m-671 -68 c11
-10 -13 -33 -34 -33 -18 0 -26 20 -12 33 8 9 38 9 46 0z m-53 -66 c0 -2 -11
-18 -25 -37 -26 -36 -33 -34 -14 3 13 23 39 46 39 34z m690 -87 c0 -5 -5 -10
-11 -10 -5 0 -7 5 -4 10 3 6 8 10 11 10 2 0 4 -4 4 -10z m-46 -68 c9 -14 -23
-52 -39 -46 -11 5 -11 11 -3 30 11 24 32 32 42 16z m-1151 -121 c13 -5 84 -12
158 -16 74 -3 188 -12 254 -20 192 -22 279 -30 495 -46 182 -12 233 -19 245
-31 9 -10 -275 -5 -400 7 -38 3 -122 10 -260 20 -33 2 -159 9 -280 15 -121 6
-233 12 -250 13 -20 1 -31 8 -33 20 -8 44 18 58 71 38z"/>
</g>
</svg>
