<?xml version="1.0" standalone="no"?>
<!DOCTYPE svg PUBLIC "-//W3C//DTD SVG 20010904//EN"
 "http://www.w3.org/TR/2001/REC-SVG-20010904/DTD/svg10.dtd">
<svg version="1.0" xmlns="http://www.w3.org/2000/svg"
 width="332.000000pt" height="174.000000pt" viewBox="0 0 332.000000 174.000000"
 preserveAspectRatio="xMidYMid meet">
<metadata>
Created by potrace 1.16, written by Peter Selinger 2001-2019
</metadata>
<g transform="translate(0.000000,174.000000) scale(0.100000,-0.100000)"
fill="#000000" stroke="none">
<path d="M1926 1459 c-10 -7 -35 -8 -58 -5 -30 5 -39 3 -36 -6 5 -14 -103
-127 -140 -147 -13 -7 -32 -14 -44 -16 -11 -2 -41 -17 -66 -32 -26 -15 -55
-31 -65 -35 -10 -4 -16 -12 -13 -17 9 -14 -58 -60 -183 -124 -64 -32 -136 -73
-161 -89 -75 -51 -108 -58 -238 -52 -64 2 -180 13 -257 24 -77 11 -158 22
-180 25 -22 3 -83 8 -135 11 -52 4 -100 10 -106 15 -6 5 -18 3 -29 -5 -16 -11
-19 -29 -20 -107 -2 -105 -12 -159 -29 -159 -7 0 -20 -6 -30 -13 -15 -11 -11
-12 26 -12 24 1 48 4 54 8 13 8 160 33 304 52 58 8 119 17 135 19 51 8 244 36
363 52 103 14 115 14 131 0 10 -9 32 -16 50 -16 24 0 34 6 43 25 6 14 15 25
20 25 17 0 6 -18 -37 -61 -25 -24 -45 -49 -45 -54 0 -10 27 -32 145 -120 33
-25 89 -70 125 -101 147 -128 172 -149 183 -153 7 -2 47 -33 89 -67 75 -62 98
-75 98 -54 0 6 9 1 20 -10 24 -24 39 -25 47 -4 4 11 13 13 34 9 22 -5 31 -2
36 11 4 10 2 19 -5 22 -24 8 -11 31 31 60 49 33 270 141 380 186 20 8 37 19
37 24 0 5 18 12 41 16 22 4 57 15 77 25 21 10 82 28 137 41 94 20 176 53 400
159 44 21 92 41 108 45 15 3 27 11 27 16 0 6 7 10 15 10 24 0 18 16 -11 29
-15 6 -76 27 -138 47 -61 19 -120 39 -131 44 -11 4 -45 19 -75 33 -59 26 -125
50 -260 92 -47 15 -94 32 -105 39 -11 7 -78 38 -150 70 -71 31 -159 75 -195
96 -59 35 -146 78 -193 94 -17 5 -17 7 -3 22 26 26 17 33 -18 13z m74 -76 c30
-13 66 -34 80 -47 29 -26 75 -51 140 -73 42 -14 130 -61 130 -68 0 -2 -12 0
-27 5 -64 18 -199 63 -219 72 -11 5 -24 8 -30 6 -10 -3 -156 29 -191 43 -17 6
-22 15 -20 41 4 62 33 67 137 21z m-214 -58 c-9 -9 -16 -19 -17 -23 0 -4 -2
-23 -3 -42 -15 -190 -20 -229 -30 -223 -6 4 -5 -1 2 -10 8 -9 11 -20 9 -24 -3
-5 -7 -50 -9 -101 -2 -50 -5 -92 -8 -92 -3 0 -5 -66 -5 -148 1 -81 -4 -167 -9
-192 -10 -44 -11 -42 -18 55 -4 55 -9 111 -11 125 -1 14 1 40 4 58 4 17 3 32
-1 32 -9 0 -1 40 12 56 5 8 3 14 -7 18 -12 4 -15 15 -11 38 3 18 8 85 11 147
3 65 10 118 16 122 6 3 11 10 12 15 1 5 5 8 8 7 3 -1 6 5 6 13 0 8 -6 13 -12
10 -8 -3 -11 5 -9 24 2 16 -1 32 -7 36 -7 4 0 17 16 34 15 16 24 33 21 38 -3
6 6 20 20 31 30 24 45 21 20 -4z m70 -92 c-11 -113 -18 -251 -21 -443 -5 -225
-10 -328 -20 -352 -7 -17 21 -88 35 -88 4 0 10 -7 14 -15 10 -27 -20 -16 -64
22 -49 45 -47 16 -36 378 8 270 8 285 21 400 4 39 9 81 10 95 1 14 3 28 4 32
0 3 10 4 21 1 12 -3 22 1 26 11 12 30 15 16 10 -41z m150 31 c18 -5 22 -9 13
-14 -8 -5 -13 -37 -15 -87 -2 -43 -4 -80 -5 -83 -1 -3 -1 -7 -1 -10 15 -213
15 -298 2 -385 -5 -33 -12 -95 -16 -137 -7 -83 -18 -100 -27 -44 -5 29 -3 281
4 584 1 51 -3 98 -8 103 -6 6 -12 -53 -16 -168 -4 -98 -10 -243 -13 -323 -4
-80 -7 -167 -8 -194 -1 -47 -11 -61 -47 -65 -7 -1 -3 579 6 704 9 139 8 137
61 131 24 -3 56 -9 70 -12z m68 -385 c-1 -390 -1 -388 -45 -389 -13 0 -16 13
-17 73 0 39 5 99 12 132 8 40 11 128 9 265 -4 239 1 290 25 290 16 0 17 -29
16 -371z m78 349 l25 -12 -1 -161 c0 -88 0 -232 1 -320 1 -88 2 -168 2 -177 0
-15 -56 -44 -67 -34 -3 4 -4 97 -3 226 0 8 -1 122 -3 253 -3 252 -4 248 46
225z m-537 -19 c-4 -5 -13 -9 -21 -9 -8 0 -14 -3 -14 -8 0 -13 -148 -132 -165
-132 -8 0 -15 -4 -15 -8 0 -11 -92 -75 -107 -75 -7 0 -10 -3 -8 -7 5 -8 -5
-21 -29 -40 -12 -9 -17 -10 -12 -2 8 14 -5 16 -19 3 -6 -5 -30 -6 -54 -2 l-43
6 48 35 c54 39 65 45 174 100 102 52 189 105 223 135 26 23 55 26 42 4z m70
-36 c-6 -57 -24 -332 -23 -343 0 -3 -1 -9 -2 -15 -1 -5 -1 -76 0 -157 1 -99
-2 -148 -9 -148 -23 0 -35 50 -39 155 -6 175 -6 178 1 225 4 25 13 106 21 180
12 105 19 137 32 147 10 7 19 13 21 13 2 0 1 -26 -2 -57z m618 7 c106 -34 220
-68 282 -85 33 -9 82 -23 109 -30 27 -8 86 -32 131 -53 l82 -40 -4 -78 c-5
-91 6 -119 34 -92 15 16 16 23 5 63 -14 55 -15 82 -2 90 5 3 44 -11 87 -32 43
-21 81 -37 86 -35 4 1 7 -1 7 -6 0 -4 -25 -19 -55 -33 l-55 -25 0 43 c0 61
-25 58 -36 -4 -4 -27 -7 -51 -6 -55 1 -5 -19 -18 -46 -30 -26 -12 -51 -24 -57
-27 -5 -2 -4 2 3 11 7 9 10 27 7 40 -8 33 -14 87 -14 133 -1 36 -2 38 -17 23
-25 -24 -29 -195 -5 -201 12 -3 9 -7 -12 -17 -15 -7 -30 -10 -33 -7 -4 3 -6
50 -5 104 1 119 -6 173 -24 173 -9 0 -15 -32 -21 -117 -5 -65 -9 -125 -9 -133
0 -8 11 -20 25 -27 14 -7 22 -13 19 -13 -4 0 -22 -6 -41 -14 l-34 -15 4 29 c2
16 -1 58 -7 92 -6 35 -11 101 -12 147 -1 76 -2 82 -17 67 -13 -13 -17 -42 -19
-144 -3 -173 -3 -172 -13 -137 -17 57 -26 197 -18 263 9 75 4 89 -15 43 -7
-17 -17 -28 -22 -24 -4 5 -5 2 0 -6 11 -20 14 -350 3 -357 -10 -7 -60 -21
-195 -58 l-83 -23 -1 96 c-2 131 -1 300 1 394 1 43 0 80 -3 83 -16 16 -26 -14
-26 -74 1 -90 1 -94 -13 -87 -7 3 -6 1 2 -5 13 -10 14 -41 8 -217 -4 -113 -8
-206 -10 -208 -2 -2 -12 -5 -22 -7 -15 -2 -22 5 -30 31 -6 23 -7 36 0 38 9 3
5 109 -11 251 -3 33 -2 51 4 48 6 -4 6 6 0 26 -10 35 -11 97 -2 191 6 66 6 66
96 37z m-688 -22 c-2 -13 -7 -61 -9 -108 -3 -47 -10 -119 -16 -160 -6 -41 -10
-104 -9 -140 1 -36 1 -90 0 -120 -1 -52 -2 -54 -17 -32 -17 25 -23 108 -13
197 15 128 23 223 24 290 0 49 4 69 13 68 7 -2 11 0 11 5 -3 15 1 22 11 22 6
0 8 -10 5 -22z m-70 -130 c-2 -57 -6 -113 -9 -126 -3 -13 -8 -61 -12 -107 -7
-84 -10 -123 -13 -138 0 -4 -7 -2 -15 5 -12 10 -14 36 -12 113 2 55 6 111 10
125 4 14 8 60 8 102 0 62 4 83 20 103 11 14 21 25 23 25 1 0 1 -46 0 -102z
m-72 -2 c-3 -24 -1 -46 4 -49 6 -4 5 -35 -4 -84 -7 -43 -16 -100 -19 -127 l-6
-49 -49 52 c-27 29 -49 59 -49 67 0 9 9 28 21 42 12 15 20 20 19 12 -4 -26 0
-40 10 -40 6 0 10 14 10 30 0 17 3 30 8 30 4 0 7 27 8 59 0 51 4 63 25 80 13
11 25 20 25 21 1 0 -1 -20 -3 -44z m-73 -43 c0 -20 -3 -24 -11 -16 -7 7 -9 19
-6 27 10 24 17 19 17 -11z m-775 -42 c111 -16 240 -29 310 -30 124 -2 165 -7
165 -21 0 -5 -12 -11 -27 -14 -86 -17 -475 -76 -598 -92 -16 -2 -46 -6 -65 -9
-19 -3 -53 -7 -75 -10 -22 -3 -57 -8 -77 -11 l-38 -6 13 39 c8 23 12 68 10
117 l-4 79 98 -7 c54 -3 184 -19 288 -35z m724 -12 c-6 -19 -13 -40 -15 -47
-3 -10 -8 -10 -23 0 -16 9 -17 15 -7 32 12 23 47 58 53 53 2 -2 -2 -19 -8 -38z
m-7 -146 c21 -20 38 -43 38 -50 0 -8 8 -16 18 -20 30 -11 52 -35 52 -60 0 -15
5 -23 14 -21 18 4 103 -84 117 -119 6 -16 15 -23 24 -19 15 6 55 -37 55 -61 0
-20 -45 5 -105 59 -26 24 -58 50 -71 59 -13 8 -44 36 -69 62 -25 26 -71 64
-102 85 -32 20 -62 40 -67 43 -11 8 25 58 42 59 7 0 10 5 7 10 -14 22 11 8 47
-27z m1338 -88 c0 -2 -7 -5 -15 -9 -9 -3 -15 0 -15 9 0 9 6 12 15 9 8 -4 15
-7 15 -9z m-562 -214 c-3 -11 -175 -101 -191 -101 -12 0 -47 30 -47 40 0 4 26
11 58 14 31 4 82 18 112 31 62 26 73 29 68 16z"/>
<path d="M2377 1128 c-10 -8 -14 -18 -9 -26 6 -9 12 -6 20 13 13 29 12 30 -11
13z"/>
<path d="M2366 1057 c-3 -15 -3 -88 0 -164 3 -78 1 -164 -4 -198 -11 -63 -2
-89 20 -67 10 10 12 65 11 218 -2 196 -12 271 -27 211z"/>
<path d="M2439 1027 c-1 -31 -1 -66 -1 -77 0 -259 2 -291 20 -288 20 4 20 29
8 263 -8 143 -25 208 -27 102z"/>
<path d="M2526 1037 c-9 -35 -7 -310 3 -326 13 -20 45 -6 36 16 -3 10 -9 87
-12 171 -6 146 -14 188 -27 139z"/>
</g>
</svg>
