<?xml version="1.0" standalone="no"?>
<!DOCTYPE svg PUBLIC "-//W3C//DTD SVG 20010904//EN"
 "http://www.w3.org/TR/2001/REC-SVG-20010904/DTD/svg10.dtd">
<svg version="1.0" xmlns="http://www.w3.org/2000/svg"
 width="168.000000pt" height="112.000000pt" viewBox="0 0 168.000000 112.000000"
 preserveAspectRatio="xMidYMid meet">
<metadata>
Created by potrace 1.16, written by Peter Selinger 2001-2019
</metadata>
<g transform="translate(0.000000,112.000000) scale(0.100000,-0.100000)"
fill="#000000" stroke="none">
<path d="M755 909 c-16 -5 -60 -9 -98 -8 -37 1 -70 -1 -74 -4 -3 -4 -12 -2
-19 4 -9 7 -19 7 -33 -1 -24 -12 -25 -24 -11 -67 7 -19 8 -67 3 -134 -8 -101
-9 -104 -33 -107 -19 -2 -22 -1 -10 7 23 16 8 22 -66 26 -38 2 -100 14 -139
25 -110 34 -118 34 -140 10 -14 -16 -20 -36 -19 -68 0 -61 12 -174 19 -180 6
-7 151 66 165 83 16 20 168 67 190 60 25 -8 31 -31 34 -131 2 -46 6 -87 9 -91
11 -11 8 -23 -5 -21 -7 2 -13 -3 -13 -11 0 -28 118 -17 247 23 64 20 122 36
128 36 6 0 51 18 98 40 100 47 125 75 152 173 18 66 36 79 92 70 14 -3 66 0
115 7 48 7 116 13 150 15 65 3 83 9 83 27 0 11 -39 9 -240 -10 -114 -11 -190
-5 -197 16 -34 96 -69 138 -149 179 -66 34 -185 50 -239 32z m166 -45 c8 -6
33 -22 57 -35 84 -46 138 -174 113 -269 -24 -94 -58 -116 -292 -195 -169 -58
-209 -65 -209 -40 0 8 -4 15 -9 15 -10 0 -19 30 -14 47 2 7 11 9 19 6 8 -3 14
1 14 11 0 9 -4 16 -9 16 -20 0 -28 154 -15 290 6 68 5 140 -1 151 -7 11 37 14
196 14 83 0 141 -4 150 -11z m-618 -260 c48 -9 87 -20 87 -23 0 -4 -26 -19
-57 -34 -32 -15 -80 -41 -108 -57 l-50 -29 -7 77 c-6 79 -1 93 31 86 9 -1 55
-10 104 -20z m124 -20 c-3 -3 -12 -4 -19 -1 -8 3 -5 6 6 6 11 1 17 -2 13 -5z"/>
<path d="M650 825 c0 -8 9 -15 20 -15 11 0 20 7 20 15 0 8 -9 15 -20 15 -11 0
-20 -7 -20 -15z"/>
<path d="M702 783 c-10 -4 -9 -9 4 -24 22 -25 56 -26 47 -1 -10 28 -26 35 -51
25z"/>
<path d="M748 705 c-9 -9 16 -55 30 -55 19 0 11 54 -8 58 -9 1 -19 0 -22 -3z"/>
<path d="M791 631 c-15 -10 -8 -41 9 -41 15 0 25 29 14 40 -5 5 -15 5 -23 1z"/>
<path d="M778 545 c-3 -4 -3 -15 -1 -26 7 -24 28 -20 28 6 0 18 -16 30 -27 20z"/>
<path d="M734 445 c-12 -30 2 -35 25 -11 l24 26 -22 0 c-12 0 -24 -7 -27 -15z"/>
<path d="M639 362 c-28 -23 -11 -37 19 -16 22 15 29 34 13 34 -5 0 -19 -8 -32
-18z"/>
</g>
</svg>
