<?xml version="1.0" standalone="no"?>
<!DOCTYPE svg PUBLIC "-//W3C//DTD SVG 20010904//EN"
 "http://www.w3.org/TR/2001/REC-SVG-20010904/DTD/svg10.dtd">
<svg version="1.0" xmlns="http://www.w3.org/2000/svg"
 width="282.000000pt" height="147.000000pt" viewBox="0 0 282.000000 147.000000"
 preserveAspectRatio="xMidYMid meet">
<metadata>
Created by potrace 1.16, written by Peter Selinger 2001-2019
</metadata>
<g transform="translate(0.000000,147.000000) scale(0.100000,-0.100000)"
fill="#000000" stroke="none">
<path d="M1091 1379 c-13 -5 -63 -8 -110 -7 -47 1 -92 -2 -100 -6 -9 -6 -12
-21 -8 -50 5 -38 2 -46 -51 -115 -92 -121 -114 -153 -148 -221 -45 -92 -50
-96 -132 -81 -71 13 -128 18 -204 20 -28 1 -53 7 -63 17 -8 9 -22 14 -29 11
-14 -5 -32 -88 -41 -187 -3 -30 -8 -76 -11 -101 -7 -53 6 -69 33 -42 10 10 41
31 68 47 49 29 67 33 285 51 l65 5 -26 -23 c-15 -13 -35 -37 -45 -52 -19 -28
-19 -29 3 -23 38 10 89 -58 176 -237 69 -143 89 -129 107 80 11 131 20 214 29
255 l7 34 89 14 c72 12 237 18 324 13 21 -1 -27 -50 -127 -128 -67 -52 -81
-67 -71 -79 12 -15 29 -10 29 10 0 6 24 30 53 51 28 22 63 50 77 62 14 13 28
23 32 23 3 0 8 -38 10 -85 2 -47 0 -85 -4 -85 -4 0 -13 7 -22 15 -8 8 -17 15
-21 15 -3 0 -16 9 -28 20 -24 23 -48 23 -55 1 -3 -10 0 -12 12 -8 25 10 136
-100 174 -172 17 -32 29 -61 26 -64 -8 -8 18 -55 33 -61 19 -8 29 23 14 46 -7
11 -9 23 -5 26 4 4 9 1 11 -5 3 -7 13 -13 23 -13 16 0 19 8 19 55 0 30 2 59 6
64 6 10 11 51 20 166 3 39 8 85 11 104 l5 34 198 -6 c109 -4 204 -9 212 -11 8
-3 50 -7 94 -10 91 -6 178 -21 203 -36 9 -5 12 -10 7 -10 -6 0 -16 -13 -23
-30 -20 -44 -100 -129 -141 -148 -43 -21 -46 -43 -7 -53 16 -5 41 -19 55 -33
23 -22 51 -30 89 -27 8 1 12 21 12 65 0 36 4 67 9 71 5 3 17 31 26 62 9 32 26
71 38 87 14 19 17 31 10 33 -13 5 -6 33 7 33 5 0 12 -15 15 -32 4 -18 15 -42
25 -53 10 -11 22 -33 27 -50 13 -39 26 -38 34 2 4 21 1 39 -8 53 -22 31 -54
131 -46 144 9 14 115 162 143 198 11 14 20 32 20 39 0 19 -36 -18 -72 -75 -54
-86 -110 -156 -119 -150 -5 3 -21 26 -36 51 -24 42 -27 55 -24 127 1 45 8 90
15 101 7 11 15 38 18 60 3 22 7 46 9 54 7 27 -20 22 -58 -12 -21 -18 -59 -45
-85 -60 -92 -53 -131 -100 -76 -91 13 2 30 -1 38 -8 20 -16 64 -88 58 -93 -3
-3 -60 -14 -129 -24 -68 -11 -173 -29 -232 -40 -90 -16 -227 -34 -287 -36 -12
0 -15 16 -16 75 0 41 4 84 11 95 6 11 19 45 29 75 24 74 80 164 122 197 19 14
33 30 31 36 -1 5 -54 9 -120 9 -117 1 -118 1 -149 -28 -16 -16 -43 -51 -59
-79 -92 -156 -120 -193 -187 -250 -39 -33 -72 -64 -73 -70 -2 -5 15 -17 37
-25 21 -8 45 -19 52 -23 16 -11 16 -47 0 -48 -7 0 -22 -3 -33 -5 -37 -9 -96
-4 -192 16 -53 11 -98 20 -100 20 -2 0 -2 4 1 8 3 5 7 51 10 102 3 56 9 96 16
98 15 5 88 115 111 168 11 24 38 63 60 86 51 54 46 80 -10 57z m-40 -54 c-13
-33 -83 -170 -92 -181 -9 -11 -8 -14 2 -14 12 0 -18 -29 -31 -30 -3 0 -6 28
-5 63 0 34 -3 82 -7 107 -12 67 -8 70 69 67 39 -1 66 -7 64 -12z m440 -210 c1
-44 1 -119 0 -167 -1 -99 7 -91 -105 -103 -38 -4 -56 -3 -52 3 3 6 -5 19 -19
29 -24 18 -25 19 -11 71 8 28 12 52 10 52 -3 0 -13 -20 -24 -45 l-19 -44 -33
13 c-18 7 -40 15 -48 18 -10 3 2 16 36 38 28 19 61 48 73 64 l23 31 -4 -32
c-3 -18 -1 -33 2 -33 9 0 44 89 45 115 1 23 81 166 98 177 14 9 24 -61 28
-187z m147 188 c-64 -131 -99 -193 -102 -182 -8 23 -22 179 -17 184 8 8 123 6
119 -2z m-754 -203 c-6 -70 -13 -178 -13 -208 -1 -24 -1 -24 -98 -17 -54 4
-101 10 -104 14 -8 7 129 259 174 319 l32 44 7 -49 c3 -26 4 -73 2 -103z
m1359 24 c-2 -10 -6 -36 -9 -57 l-6 -38 -25 35 c-13 20 -28 36 -33 36 -21 0
-9 17 23 33 39 19 53 16 50 -9z m7 -241 c16 -29 36 -62 44 -75 13 -21 13 -25
-5 -47 -18 -22 -24 -23 -94 -18 -42 3 -79 8 -83 10 -4 3 -56 8 -117 11 -60 4
-112 9 -115 11 -5 3 -91 10 -252 21 -87 6 -98 9 -98 25 0 11 3 19 8 19 4 0 61
7 127 14 122 15 148 19 220 37 57 14 274 46 308 45 24 -1 33 -10 57 -53z
m-1776 -8 c87 -10 121 -19 130 -31 11 -14 16 -15 36 -4 25 13 181 5 213 -11
20 -11 23 -42 5 -57 -23 -17 -124 -25 -148 -10 -18 11 -23 11 -33 -3 -12 -16
-110 -29 -245 -33 l-33 -1 53 47 c29 26 50 48 45 48 -4 0 -36 -20 -72 -45 -65
-46 -130 -75 -167 -75 -17 0 -19 5 -13 68 3 37 11 81 16 99 12 37 -12 36 213
8z m1013 -57 c-2 -8 -18 -12 -38 -11 -19 1 -54 2 -79 4 l-45 2 40 7 c70 13
127 11 122 -2z m-504 -14 c49 -8 43 -13 -27 -20 -53 -6 -56 -5 -56 16 0 18 4
21 23 17 12 -3 39 -9 60 -13z m501 -54 c-5 -86 -15 -179 -30 -259 -14 -75 -19
-89 -30 -80 -8 6 -14 16 -14 22 0 5 -12 26 -27 46 -23 29 -29 48 -31 101 -4
91 -2 182 4 192 3 5 33 8 67 6 59 -3 62 -4 61 -28z m-631 -17 c-5 -23 -26
-232 -28 -273 -1 -25 -3 -61 -4 -80 l-1 -35 -15 25 c-8 14 -22 41 -31 60 -9
19 -24 44 -34 55 -13 15 -18 34 -16 75 1 30 -2 77 -7 103 -11 60 -4 69 66 78
60 7 73 5 70 -8z m-168 -91 c6 -44 5 -51 -8 -46 -9 3 -18 12 -21 20 -3 8 -18
19 -32 25 l-27 10 33 34 c39 40 44 36 55 -43z m1550 -19 c-3 -15 -14 -43 -23
-62 -9 -20 -19 -50 -22 -68 l-5 -32 -34 31 -35 31 22 15 c12 8 38 36 58 63 41
56 49 60 39 22z"/>
</g>
</svg>
