<?xml version="1.0" standalone="no"?>
<!DOCTYPE svg PUBLIC "-//W3C//DTD SVG 20010904//EN"
 "http://www.w3.org/TR/2001/REC-SVG-20010904/DTD/svg10.dtd">
<svg version="1.0" xmlns="http://www.w3.org/2000/svg"
 width="284.000000pt" height="140.000000pt" viewBox="0 0 284.000000 140.000000"
 preserveAspectRatio="xMidYMid meet">
<metadata>
Created by potrace 1.16, written by Peter Selinger 2001-2019
</metadata>
<g transform="translate(0.000000,140.000000) scale(0.100000,-0.100000)"
fill="#000000" stroke="none">
<path d="M605 1292 c-42 -59 -58 -67 -90 -46 -23 15 -25 15 -36 -10 -18 -38 3
-72 49 -81 23 -4 46 -19 66 -43 17 -20 62 -66 99 -102 l69 -66 -21 -36 c-17
-29 -26 -34 -46 -30 -28 5 -52 33 -144 170 -35 51 -77 102 -93 113 -28 20 -30
20 -48 4 -11 -10 -22 -26 -26 -37 -4 -15 -12 -17 -40 -12 -26 5 -35 2 -40 -10
-17 -44 47 -106 109 -106 13 0 30 -7 37 -15 7 -8 16 -15 21 -15 14 0 70 -60
57 -61 -31 -2 -127 4 -168 10 -25 4 -66 3 -91 -2 -58 -11 -78 -46 -74 -127 2
-30 4 -81 4 -112 1 -63 20 -93 55 -85 12 3 48 12 81 20 33 9 91 18 129 22 l69
8 -45 -59 c-57 -73 -115 -135 -148 -156 -22 -14 -23 -18 -10 -30 8 -8 48 -27
88 -43 72 -27 74 -27 91 -9 10 11 23 39 30 64 16 56 97 224 116 240 8 7 41 14
74 17 50 5 64 2 85 -15 l26 -20 -52 -68 c-29 -38 -71 -98 -93 -132 -22 -35
-55 -81 -72 -102 -18 -20 -33 -40 -33 -44 0 -3 20 -6 45 -6 24 0 56 -5 70 -12
22 -10 26 -17 21 -39 -7 -37 22 -49 46 -19 9 12 23 20 30 19 27 -3 38 1 38 16
0 9 -7 18 -15 21 -24 9 -18 40 24 127 22 45 43 95 46 110 4 15 10 27 14 25 8
-3 98 -102 148 -161 31 -38 50 -36 38 4 -4 11 -43 60 -86 107 -71 77 -79 90
-74 116 11 61 53 100 78 74 30 -31 165 -186 196 -225 34 -45 61 -56 61 -25 0
18 -46 80 -105 142 -131 139 -135 150 -53 156 24 1 76 10 117 18 73 16 117 13
176 -14 19 -8 156 -30 405 -65 63 -9 167 -30 230 -47 63 -17 144 -37 179 -44
36 -8 66 -16 68 -18 10 -10 -57 -116 -112 -177 -36 -40 -65 -76 -65 -80 0 -5
19 -13 42 -19 69 -18 121 -40 134 -58 10 -14 14 -14 28 -3 9 7 16 21 16 31 0
21 28 117 41 142 5 10 9 27 9 38 0 12 10 40 21 63 12 23 32 71 45 106 17 45
38 79 70 112 53 54 51 69 -12 89 -19 6 -34 17 -34 23 0 7 -25 44 -55 82 -94
121 -97 130 -84 237 6 50 15 102 20 116 21 54 -4 57 -64 8 -23 -18 -75 -55
-115 -81 -39 -26 -69 -51 -66 -56 3 -5 21 0 41 12 l36 22 18 -24 c11 -13 30
-44 44 -68 30 -52 21 -65 -37 -56 -28 4 -41 1 -55 -14 -28 -29 -159 -65 -478
-131 -55 -11 -116 -25 -135 -29 -164 -41 -216 -47 -301 -34 -46 7 -108 16
-137 19 l-52 7 65 124 c36 69 79 143 96 164 24 31 27 39 14 39 -25 0 -66 -49
-141 -168 -93 -148 -90 -145 -143 -139 -36 4 -51 12 -78 43 -37 44 -38 76 -3
121 11 14 20 32 20 40 0 9 14 33 31 55 17 21 29 42 26 45 -7 6 -43 -29 -111
-106 -36 -41 -40 -43 -52 -26 -28 38 -104 234 -104 268 0 19 -7 40 -14 47 -12
9 -21 3 -51 -38z m1690 -119 c-4 -32 -9 -60 -10 -62 -5 -4 -54 52 -55 62 0 10
52 56 64 57 4 0 5 -26 1 -57z m-1628 -5 c12 -24 35 -71 51 -106 l30 -63 -27
23 c-47 41 -101 102 -117 131 -14 27 -14 30 3 43 29 21 38 17 60 -28z m-167
-104 c22 -20 40 -42 40 -50 0 -7 6 -17 13 -21 7 -4 28 -30 45 -56 31 -46 31
-48 10 -42 -28 9 -46 23 -125 98 -56 54 -60 62 -51 83 15 32 21 30 68 -12z
m1840 -161 c25 -31 53 -63 62 -72 18 -17 17 -52 0 -75 -5 -6 -19 -40 -32 -76
-12 -36 -27 -71 -33 -78 -12 -15 -58 -11 -142 13 -125 36 -386 86 -630 121
-100 14 -178 41 -122 42 48 1 161 24 345 72 107 27 211 52 232 54 21 3 69 14
107 25 147 42 159 41 213 -26z m-2010 -28 c8 -2 56 -7 105 -10 50 -3 106 -8
125 -11 35 -6 90 -48 90 -68 -1 -21 -78 -96 -99 -96 -27 0 -176 -28 -224 -42
-63 -19 -68 -10 -68 117 -1 61 0 113 0 118 1 6 13 5 71 -8z m486 0 c14 -13 13
-15 -10 -15 -25 0 -33 10 -19 23 9 10 13 9 29 -8z m-136 -45 c0 -5 -4 -10 -9
-10 -6 0 -13 5 -16 10 -3 6 1 10 9 10 9 0 16 -4 16 -10z m218 -55 c39 -39 31
-50 -43 -59 -48 -7 -51 -5 -76 26 -55 71 -50 83 30 73 45 -6 63 -13 89 -40z
m206 -1 c25 -4 46 -10 46 -14 0 -8 -130 -23 -138 -16 -7 8 18 36 33 36 7 0 33
-3 59 -6z m-450 -51 c-11 -15 -26 -29 -34 -31 -7 -3 0 11 16 31 32 41 48 41
18 0z m1835 0 c-39 -46 -43 -49 -28 -23 9 14 19 31 23 38 4 6 12 12 18 12 6 0
1 -12 -13 -27z m-1774 -21 c-34 -4 -42 3 -25 23 12 14 15 14 33 -2 19 -18 19
-18 -8 -21z m165 -21 c0 -12 -29 -23 -42 -15 -6 4 -5 10 3 15 18 11 39 11 39
0z m44 -35 c-19 -39 -31 -45 -40 -21 -6 15 43 71 53 62 2 -3 -4 -21 -13 -41z
m-314 -1 c0 -2 -17 -33 -38 -67 -21 -35 -51 -89 -66 -120 -28 -57 -39 -68 -51
-48 -3 6 -15 10 -26 10 -27 0 -25 5 24 63 24 29 54 68 67 87 34 51 62 80 77
80 7 0 13 -2 13 -5z m251 -128 c-15 -44 -80 -180 -97 -205 -1 -2 -19 2 -38 9
-38 14 -47 38 -21 59 8 7 15 17 15 22 0 12 85 144 114 176 16 19 22 20 33 9
11 -11 10 -23 -6 -70z m1544 31 c-4 -13 -17 -43 -29 -68 -12 -25 -33 -82 -46
-127 -13 -46 -26 -83 -29 -83 -3 0 -17 9 -30 19 l-23 18 21 48 c20 46 129 215
138 215 2 0 1 -10 -2 -22z m-170 -188 c-16 -30 -40 -48 -51 -37 -3 3 9 22 27
41 38 42 47 41 24 -4z"/>
<path d="M2297 390 c-10 -16 -14 -30 -8 -30 10 0 41 39 41 52 0 17 -17 6 -33
-22z"/>
</g>
</svg>
