<?xml version="1.0" standalone="no"?>
<!DOCTYPE svg PUBLIC "-//W3C//DTD SVG 20010904//EN"
 "http://www.w3.org/TR/2001/REC-SVG-20010904/DTD/svg10.dtd">
<svg version="1.0" xmlns="http://www.w3.org/2000/svg"
 width="258.000000pt" height="192.000000pt" viewBox="0 0 258.000000 192.000000"
 preserveAspectRatio="xMidYMid meet">
<metadata>
Created by potrace 1.16, written by Peter Selinger 2001-2019
</metadata>
<g transform="translate(0.000000,192.000000) scale(0.100000,-0.100000)"
fill="#000000" stroke="none">
<path d="M830 1775 c0 -8 -9 -15 -19 -15 -29 0 -35 -17 -11 -37 28 -24 25 -59
-7 -89 -22 -20 -25 -28 -16 -42 6 -9 21 -16 33 -15 12 2 30 -1 40 -7 20 -11
25 -54 36 -356 l6 -172 -73 5 c-41 2 -119 10 -174 18 -55 7 -127 16 -160 20
-33 3 -86 13 -118 21 -32 8 -84 18 -115 22 -49 6 -57 10 -60 30 -4 28 -10 27
-46 -4 -26 -23 -28 -29 -17 -46 6 -10 11 -38 10 -62 -2 -23 0 -47 4 -53 3 -5
2 -34 -2 -64 -10 -63 0 -94 27 -80 9 4 139 11 287 14 149 3 309 8 356 12 l86
5 6 -137 c4 -76 4 -169 0 -208 -3 -38 -7 -80 -7 -92 -1 -23 -37 -43 -77 -43
-30 0 -31 -18 -3 -55 14 -19 32 -52 39 -72 15 -45 34 -51 72 -25 133 90 427
272 440 272 2 0 25 15 51 32 54 38 192 118 202 118 4 0 27 16 51 35 24 19 50
35 57 35 7 0 30 13 50 29 20 16 62 42 92 58 59 31 112 64 120 74 3 3 15 10 28
14 22 6 23 5 18 -27 -7 -41 -9 -83 -8 -125 2 -29 5 -33 30 -33 45 0 144 53
188 102 59 63 79 130 64 205 -24 116 -79 194 -156 223 -30 11 -59 20 -64 20
-19 0 -40 -61 -42 -120 -2 -62 -9 -70 -46 -51 -18 10 -161 71 -165 71 -1 0 -1
-36 1 -80 3 -48 0 -80 -6 -80 -11 0 -22 57 -22 116 0 50 0 50 -160 144 -69 41
-152 93 -185 116 -33 23 -90 58 -127 78 -65 35 -117 67 -168 103 -14 10 -50
31 -80 47 -75 40 -159 98 -194 135 -31 33 -66 41 -66 16z m135 -120 c33 -22
83 -53 111 -67 75 -39 126 -68 155 -89 14 -10 61 -36 105 -58 43 -22 88 -47
99 -56 14 -11 9 -10 -21 4 -77 37 -175 81 -181 81 -16 0 -170 65 -185 78 -10
8 -24 12 -32 9 -21 -8 -78 12 -98 34 -9 11 -27 19 -40 19 -32 0 -39 8 -27 29
5 9 13 29 19 44 7 19 14 26 22 21 7 -5 40 -26 73 -49z m-37 -128 c6 -7 11 -41
11 -77 0 -36 3 -76 6 -90 3 -14 7 -58 9 -98 2 -40 7 -76 11 -80 4 -4 5 70 2
164 -5 162 -4 171 12 167 16 -4 19 -22 25 -139 7 -126 0 -334 -12 -334 -2 0
-11 8 -18 18 -13 16 -13 16 -14 0 0 -11 -8 -18 -20 -18 -17 0 -20 7 -21 53 -1
78 -6 184 -14 322 -7 122 -3 143 23 112z m127 -37 c3 -5 8 -78 11 -162 3 -84
6 -183 8 -220 l3 -68 -30 0 -29 0 5 108 c4 59 6 162 7 230 0 111 7 141 25 112z
m75 -236 c0 -204 -1 -214 -19 -214 -18 0 -19 10 -20 211 -1 116 1 215 4 219 3
5 12 7 20 3 13 -4 15 -40 15 -219z m71 21 c-1 -93 0 -167 3 -164 3 3 11 68 17
144 13 164 17 181 42 163 15 -12 16 -27 7 -168 -11 -191 -16 -220 -41 -220
-14 0 -19 8 -20 28 l-1 27 -10 -27 c-10 -30 -15 -33 -37 -19 -11 7 -13 43 -8
202 4 107 7 198 7 202 0 5 10 7 23 5 22 -3 22 -3 18 -173z m130 0 c-1 -59 -4
-112 -8 -118 -3 -5 -5 -36 -4 -68 1 -54 0 -59 -19 -59 -21 0 -21 3 -15 113 6
112 10 149 21 220 11 73 26 22 25 -88z m61 90 c2 -3 1 -33 -3 -67 -4 -35 -9
-101 -10 -147 -2 -101 -7 -121 -26 -121 -13 0 -14 16 -8 108 4 59 9 118 10
132 2 14 4 42 4 63 1 33 16 49 33 32z m81 -52 c-1 -8 -14 -144 -18 -193 -2
-14 -3 -40 -4 -57 -1 -28 -5 -33 -27 -33 l-26 0 7 88 c4 48 11 114 16 147 5
33 10 66 11 73 1 9 6 9 22 -2 12 -8 20 -18 19 -23z m56 -16 c6 -8 8 -16 6 -19
-7 -7 -12 -64 -14 -165 -1 -81 -2 -83 -26 -83 -23 0 -24 3 -20 43 5 45 14 177
15 215 0 24 21 29 39 9z m59 -25 c12 -8 16 -101 7 -182 -2 -19 -4 -41 -4 -47
-2 -21 -39 -15 -46 7 -4 11 -3 51 1 88 10 82 11 97 13 122 1 21 9 24 29 12z
m63 -84 c0 -35 2 -85 3 -111 2 -51 -2 -60 -23 -48 -13 8 -18 192 -6 211 15 25
25 5 26 -52z m73 3 c3 -14 5 -56 4 -93 0 -65 -1 -68 -24 -68 -20 0 -24 5 -25
33 0 17 -2 43 -4 57 -2 14 -1 44 2 66 4 34 8 41 23 37 11 -3 21 -17 24 -32z
m459 -19 c72 -74 98 -225 49 -291 -28 -38 -100 -91 -124 -91 -20 0 -21 3 -13
93 4 50 7 108 6 127 -7 122 -6 148 2 173 12 37 36 34 80 -11z m-407 10 c5 -4
11 -42 13 -84 2 -72 1 -76 -18 -71 -22 6 -29 43 -22 121 3 42 7 48 27 34z
m114 -112 c0 -47 -3 -60 -15 -60 -12 0 -15 13 -15 60 0 47 3 60 15 60 12 0 15
-13 15 -60z m66 5 c8 -32 -1 -55 -21 -55 -10 0 -15 10 -15 33 0 51 25 66 36
22z m-1686 1 c19 -3 53 -8 75 -11 22 -3 94 -15 160 -25 66 -11 177 -21 246
-23 70 -3 132 -8 138 -11 6 -4 11 -27 11 -50 0 -41 -2 -44 -32 -50 -33 -6
-170 -7 -500 -6 l-178 0 2 63 c1 34 -1 77 -6 96 -8 32 -7 33 20 28 16 -3 45
-8 64 -11z m1749 -45 c-6 -2 -15 3 -20 10 -15 24 -10 29 11 11 12 -10 16 -18
9 -21z m-1018 -42 c8 -14 -2 -79 -12 -73 -5 3 -9 12 -9 20 0 8 -4 14 -10 14
-5 0 -9 -3 -9 -7 3 -21 -2 -33 -15 -33 -13 0 -30 76 -20 92 6 9 67 -2 75 -13z
m443 3 c10 -16 -6 -50 -25 -55 -15 -4 -19 0 -19 22 0 15 3 31 7 34 9 10 31 9
37 -1z m76 -16 c0 -17 -7 -25 -25 -28 -22 -5 -25 -2 -25 23 0 24 4 29 25 29
20 0 25 -5 25 -24z m70 -1 c0 -18 -5 -25 -20 -25 -15 0 -20 7 -20 25 0 18 5
25 20 25 15 0 20 -7 20 -25z m-465 -20 c0 -29 -2 -30 -47 -33 -34 -2 -48 1
-49 10 0 7 -2 23 -5 36 -4 22 -2 23 48 20 50 -3 52 -4 53 -33z m185 6 c0 -27
-20 -47 -34 -34 -8 8 -8 48 1 56 16 17 33 5 33 -22z m60 -1 c0 -23 -4 -30 -20
-30 -14 0 -20 7 -20 23 0 27 7 37 27 37 8 0 13 -12 13 -30z m285 20 c-3 -5
-13 -10 -21 -10 -8 0 -14 5 -14 10 0 6 9 10 21 10 11 0 17 -4 14 -10z m58 3
c-7 -2 -19 -2 -25 0 -7 3 -2 5 12 5 14 0 19 -2 13 -5z m-471 -32 c-4 -27 -7
-29 -48 -29 -42 0 -44 1 -44 29 0 28 2 29 48 29 48 0 48 0 44 -29z m598 -41
c0 -33 -2 -60 -4 -60 -2 0 -11 -3 -20 -6 -13 -5 -15 0 -11 22 2 16 7 46 10 67
9 58 25 44 25 -23z m47 31 c-3 -16 -1 -33 6 -40 9 -9 8 -14 -3 -21 -24 -15
-25 -13 -22 40 2 27 9 50 14 50 6 0 8 -12 5 -29z m83 12 c0 -19 -28 -53 -45
-53 -7 0 -9 13 -7 35 3 29 8 35 28 35 16 0 24 -6 24 -17z m-196 -50 c-7 -32
-14 -67 -17 -78 -2 -11 -4 15 -5 58 -1 68 1 77 17 77 17 0 17 -4 5 -57z m249
50 c-7 -2 -19 -2 -25 0 -7 3 -2 5 12 5 14 0 19 -2 13 -5z m-298 -80 c-4 -43
-10 -81 -14 -85 -7 -8 -148 -78 -156 -78 -3 0 -5 47 -5 105 0 58 2 105 4 105
2 0 12 3 21 6 15 6 17 -1 15 -72 -3 -100 -3 -104 14 -104 10 0 14 15 14 58 0
128 1 132 20 132 16 0 18 -7 14 -60 -4 -57 -3 -60 18 -60 17 0 21 4 15 18 -8
20 -9 24 -7 75 2 33 5 37 28 37 l25 0 -6 -77z m-202 21 c2 -14 3 -63 0 -107
-4 -83 -19 -117 -50 -117 -12 0 -14 20 -11 110 3 99 -1 125 -16 102 -2 -4 -6
-53 -7 -107 -2 -105 -10 -135 -34 -135 -12 0 -15 20 -15 113 0 150 4 161 46
154 19 -3 34 -2 34 4 0 5 11 9 24 9 18 0 25 -7 29 -26z m-160 -102 c-5 -157
-8 -177 -26 -180 -12 -2 -17 6 -19 35 l-3 38 -15 -49 c-8 -27 -21 -51 -28 -54
-13 -4 -17 159 -6 255 7 55 8 56 69 60 l32 3 -4 -108z m-239 58 c-1 -28 -12
-226 -17 -322 -1 -10 -5 -18 -9 -18 -4 0 -8 81 -8 180 0 113 -4 180 -10 180
-6 0 -10 -41 -11 -102 0 -57 -3 -130 -6 -163 -3 -33 -6 -71 -7 -84 -1 -14 -7
-26 -13 -28 -14 -5 -23 92 -23 253 0 145 -2 142 65 140 39 -1 40 -2 39 -36z
m62 -17 c-4 -32 -9 -109 -12 -172 -5 -117 -7 -131 -26 -131 -8 0 -9 37 -5 123
4 67 7 148 7 180 0 51 2 57 21 57 21 0 21 -3 15 -57z m51 -104 c-3 -88 -8
-164 -12 -167 -18 -18 -29 40 -27 138 4 144 11 190 29 190 14 0 15 -21 10
-161z m-267 136 c0 -21 18 -19 23 3 5 16 8 -88 8 -273 1 -124 0 -125 -13 -125
-8 0 -9 47 -4 181 5 144 4 180 -6 177 -9 -3 -14 -35 -15 -109 -5 -207 -9 -263
-21 -267 -17 -5 -17 159 0 176 9 9 9 12 0 12 -9 0 -12 33 -12 120 0 113 1 120
20 120 11 0 20 -7 20 -15z m682 -148 c-6 -7 -51 -33 -99 -57 -48 -24 -99 -51
-113 -61 -14 -9 -61 -36 -105 -60 -86 -46 -205 -118 -298 -182 -41 -27 -62
-36 -69 -29 -8 8 -21 3 -44 -14 l-33 -25 -15 30 c-9 16 -16 34 -16 40 0 12
136 80 210 105 30 11 60 22 65 26 27 18 95 39 100 30 10 -16 22 -12 27 8 3 10
20 26 39 34 51 24 175 80 259 118 41 19 79 37 85 42 14 12 19 9 7 -5z"/>
<path d="M961 1154 c0 -11 3 -14 6 -6 3 7 2 16 -1 19 -3 4 -6 -2 -5 -13z"/>
<path d="M960 1089 c0 -5 5 -7 10 -4 6 3 10 8 10 11 0 2 -4 4 -10 4 -5 0 -10
-5 -10 -11z"/>
<path d="M1070 955 c0 -14 5 -25 10 -25 6 0 10 11 10 25 0 14 -4 25 -10 25 -5
0 -10 -11 -10 -25z"/>
</g>
</svg>
