<?xml version="1.0" standalone="no"?>
<!DOCTYPE svg PUBLIC "-//W3C//DTD SVG 20010904//EN"
 "http://www.w3.org/TR/2001/REC-SVG-20010904/DTD/svg10.dtd">
<svg version="1.0" xmlns="http://www.w3.org/2000/svg"
 width="178.000000pt" height="260.000000pt" viewBox="0 0 178.000000 260.000000"
 preserveAspectRatio="xMidYMid meet">
<metadata>
Created by potrace 1.16, written by Peter Selinger 2001-2019
</metadata>
<g transform="translate(0.000000,260.000000) scale(0.100000,-0.100000)"
fill="#000000" stroke="none">
<path d="M669 2446 c-13 -13 -48 -38 -76 -56 -47 -28 -70 -60 -43 -60 6 0 10
-7 10 -15 0 -8 5 -15 12 -15 6 0 58 -48 115 -106 70 -71 102 -111 99 -122 -3
-10 -1 -48 3 -87 4 -38 4 -114 -1 -170 -5 -55 -9 -126 -9 -157 1 -49 -2 -58
-20 -63 -16 -5 -19 -12 -15 -30 13 -52 4 -56 -122 -50 -63 3 -122 10 -131 14
-9 5 -32 11 -51 15 -19 3 -55 20 -80 36 -58 39 -78 38 -94 -2 -18 -47 -4 -237
18 -250 13 -7 16 -25 15 -92 -1 -46 1 -88 5 -95 10 -16 36 -14 42 4 4 8 11 15
17 15 6 0 22 11 36 24 15 14 58 41 96 61 39 20 76 42 84 48 8 7 41 10 79 8 71
-3 96 -19 87 -56 -2 -11 -5 -71 -6 -132 -1 -76 -5 -116 -14 -123 -9 -7 -11
-35 -8 -98 3 -48 5 -133 5 -190 1 -87 -2 -106 -18 -123 -24 -28 -101 -87 -186
-144 -74 -50 -78 -64 -27 -115 16 -16 29 -37 29 -48 0 -24 16 -31 50 -22 23 5
25 11 25 58 0 29 4 52 9 52 5 0 7 3 3 6 -3 3 3 16 14 27 11 12 17 27 15 34 -3
7 1 16 8 20 8 5 27 29 43 55 21 33 33 44 41 36 7 -7 25 3 60 36 27 25 55 46
62 46 7 0 27 9 44 19 43 26 260 42 251 18 -10 -24 14 -32 110 -34 50 -2 95 -3
100 -3 28 -2 50 9 53 26 2 15 -6 22 -30 29 -26 8 -36 18 -46 50 -36 110 -53
317 -29 356 13 21 1 53 -17 46 -11 -4 -12 2 -4 36 5 23 16 49 24 58 11 12 12
22 3 47 -8 25 -8 38 5 63 8 17 18 72 22 122 4 51 10 97 14 102 5 6 10 36 13
67 2 31 8 63 13 70 12 15 49 99 49 109 0 4 3 11 8 15 4 4 7 16 7 26 0 10 5 18
10 18 6 0 29 39 52 88 23 48 48 93 55 101 30 29 8 36 -108 35 -63 -1 -150 -4
-194 -6 -119 -8 -255 7 -345 37 -44 15 -83 24 -88 21 -10 -6 -44 28 -61 62
-16 30 -35 137 -32 183 1 40 -13 89 -27 89 -5 0 -20 -11 -33 -24z m20 -166 c0
-24 0 -24 -14 -6 -8 11 -26 32 -40 48 -18 19 -22 30 -13 32 7 3 20 6 28 9 17
4 38 -41 39 -83z m216 -225 l50 -24 -45 -20 c-25 -11 -49 -21 -55 -21 -5 0
-10 20 -11 45 0 25 2 45 5 44 3 0 29 -11 56 -24z m421 -81 c-3 -62 -10 -73
-51 -75 -40 -2 -278 12 -334 20 -53 7 -63 26 -24 43 15 7 36 20 46 30 10 10
23 16 28 12 5 -3 21 1 34 10 23 15 181 26 267 18 l36 -4 -2 -54z m139 -14
c-18 -42 -38 -86 -44 -96 -5 -11 -24 -50 -41 -87 -18 -38 -33 -67 -35 -65 -2
2 1 44 6 93 5 50 12 122 15 161 l6 72 63 0 63 0 -33 -78z m-589 -75 c16 -8 40
-15 53 -15 30 0 22 -9 -41 -43 -32 -18 -48 -22 -51 -14 -4 12 3 87 8 87 1 0
16 -7 31 -15z m321 -26 l120 -1 -5 -51 c-2 -29 -5 -53 -6 -53 0 -1 -65 -4
-143 -7 -153 -4 -238 4 -260 26 -12 12 -7 17 36 35 27 12 54 22 59 22 6 0 12
6 15 14 5 13 44 26 58 19 4 -1 61 -3 126 -4z m-292 -145 c14 -3 24 -11 22 -17
-4 -12 -87 -75 -99 -76 -12 -1 -10 97 2 119 10 19 11 19 30 0 11 -11 31 -22
45 -26z m398 -13 c10 -2 9 -65 -2 -94 -8 -21 -20 -27 -78 -36 -90 -15 -112
-16 -213 -7 -101 8 -140 15 -139 24 0 4 16 20 34 35 48 40 127 67 172 60 25
-4 34 -3 29 5 -4 6 5 12 21 14 25 4 156 3 176 -1z m-444 -166 l35 -13 -35 -17
c-19 -10 -41 -24 -51 -32 -22 -19 -28 -6 -21 45 5 35 9 42 22 36 9 -4 31 -12
50 -19z m-482 -23 c13 -8 46 -20 75 -27 29 -7 46 -13 37 -14 -9 -1 -49 -17
-88 -36 -39 -19 -72 -35 -74 -35 -2 0 -4 31 -5 69 0 75 2 77 55 43z m890 22
c18 -5 20 -11 17 -47 -7 -62 -10 -67 -46 -66 -18 1 -98 1 -178 1 -155 -2 -224
6 -212 24 4 6 41 25 83 42 60 25 92 32 150 33 62 1 96 5 159 18 3 0 15 -2 27
-5z m-531 -97 c6 -20 7 -46 1 -66 l-8 -33 -117 6 c-64 4 -128 9 -142 10 -14 2
-37 4 -52 5 -16 0 -28 5 -28 9 0 4 33 25 74 46 70 36 134 52 221 55 37 1 41
-2 51 -32z m139 -57 c23 0 14 -9 -46 -43 -42 -24 -47 -25 -51 -9 -3 9 1 31 8
49 13 31 14 32 41 18 16 -8 37 -15 48 -15z m368 -4 c30 -7 34 -24 16 -76 l-12
-33 -176 6 c-97 4 -189 10 -206 15 l-30 8 46 27 c25 15 52 27 60 27 8 0 20 5
26 11 10 10 208 29 238 23 6 -1 22 -5 38 -8z m-783 -60 l75 -12 -55 -28 c-30
-16 -67 -37 -82 -47 -47 -34 -58 -26 -58 41 0 69 -6 67 120 46z m428 -81 c2
-2 -23 -16 -55 -33 l-59 -30 2 42 c0 22 2 42 3 42 2 2 106 -18 109 -21z m358
-18 c2 -2 1 -24 -2 -50 l-7 -46 -64 -7 c-40 -4 -80 -2 -103 5 -20 6 -61 11
-89 11 -56 0 -138 17 -146 31 -6 9 38 32 105 54 34 11 77 13 174 10 71 -2 130
-6 132 -8z m-409 -105 l39 -17 -53 -43 c-50 -40 -53 -42 -54 -20 -2 41 3 73
13 86 13 15 8 15 55 -6z m316 -33 c31 4 57 7 58 7 4 -6 6 -76 2 -90 -5 -17
-15 -18 -188 -12 -201 6 -223 10 -200 32 7 8 16 14 20 14 3 0 18 9 34 21 52
39 98 48 161 33 37 -8 75 -10 113 -5z m-326 -126 l56 -6 -31 -16 c-17 -9 -43
-28 -59 -42 l-29 -26 -10 54 c-8 44 -8 53 4 48 7 -3 39 -8 69 -12z m364 -56
l-6 -42 -145 -1 c-154 -1 -220 4 -220 16 0 4 17 12 38 18 20 6 53 20 72 31 29
16 55 19 151 19 l115 0 -5 -41z m-331 -86 c0 -4 -18 -20 -40 -37 -22 -16 -40
-32 -40 -36 0 -5 -5 -8 -11 -8 -7 0 -9 10 -4 28 7 27 13 52 14 62 1 8 81 -1
81 -9z m308 -17 c13 -24 2 -63 -22 -76 -26 -15 -286 -15 -312 0 -15 8 -12 13
27 38 64 42 103 52 206 53 75 1 94 -2 101 -15z m85 -38 c11 -43 6 -50 -22 -41
-18 6 -21 26 -12 83 1 2 7 2 13 0 7 -3 17 -21 21 -42z m-408 -86 c12 -5 14 -9
6 -9 -8 -1 -29 -12 -48 -27 -36 -28 -54 -25 -46 7 9 32 50 45 88 29z m-211
-207 c-10 -15 -21 -30 -24 -33 -9 -8 -30 -44 -40 -68 l-10 -23 -22 21 c-18 16
-20 24 -12 38 12 19 117 102 122 97 2 -2 -5 -16 -14 -32z"/>
</g>
</svg>
