<?xml version="1.0" standalone="no"?>
<!DOCTYPE svg PUBLIC "-//W3C//DTD SVG 20010904//EN"
 "http://www.w3.org/TR/2001/REC-SVG-20010904/DTD/svg10.dtd">
<svg version="1.0" xmlns="http://www.w3.org/2000/svg"
 width="186.000000pt" height="180.000000pt" viewBox="0 0 186.000000 180.000000"
 preserveAspectRatio="xMidYMid meet">
<metadata>
Created by potrace 1.16, written by Peter Selinger 2001-2019
</metadata>
<g transform="translate(0.000000,180.000000) scale(0.100000,-0.100000)"
fill="#000000" stroke="none">
<path d="M526 1628 c-4 -68 -9 -140 -13 -162 l-6 -39 -106 8 c-68 4 -112 12
-121 20 -22 20 -72 5 -87 -26 -7 -13 -13 -53 -13 -89 0 -36 -4 -92 -10 -124
-8 -47 -7 -63 4 -75 8 -9 16 -25 18 -36 2 -12 13 -21 26 -23 18 -3 26 3 34 25
10 26 19 30 102 49 50 11 98 23 106 25 41 11 -12 -330 -112 -728 -23 -93 -28
-126 -19 -136 13 -17 16 -51 6 -93 -6 -27 -4 -32 15 -37 18 -4 24 1 36 28 8
19 14 44 14 55 0 16 5 20 18 16 16 -5 71 -10 217 -21 39 -3 138 -8 220 -10
122 -4 152 -8 162 -21 17 -23 59 -10 77 24 8 15 26 50 41 79 14 28 43 73 65
100 21 27 42 61 45 76 4 15 24 53 44 85 59 90 151 250 151 260 0 5 6 15 14 21
8 7 17 23 20 36 4 14 31 66 61 115 30 50 55 93 55 96 0 7 57 81 96 124 17 19
34 49 37 66 6 29 3 32 -23 38 -17 3 -49 15 -72 26 -41 20 -58 21 -303 18 -311
-3 -677 11 -693 27 -5 4 57 166 69 181 6 8 12 37 13 66 l1 53 -35 3 c-19 2
-39 8 -44 13 -6 5 -31 9 -56 9 l-47 0 -7 -122z m117 3 c10 -1 5 -21 -35 -128
-17 -46 -35 -83 -41 -83 -6 0 -8 24 -4 68 4 37 7 79 7 94 0 32 23 58 47 53 10
-2 22 -4 26 -4z m-148 -309 c-9 -101 -5 -96 -103 -115 -129 -25 -130 -24 -128
21 2 20 3 63 4 94 2 55 3 58 32 65 16 4 68 7 115 5 l87 -4 -7 -66z m63 18 c-6
-23 -13 -39 -15 -36 -7 7 8 76 17 76 4 0 3 -18 -2 -40z m542 21 l215 -6 -185
-29 c-302 -46 -353 -54 -400 -59 -25 -3 -67 -11 -94 -17 -27 -6 -50 -9 -52 -8
-1 2 2 21 7 43 6 22 13 53 16 68 l6 29 136 -7 c75 -4 233 -10 351 -14z m380
-88 c-16 -43 -49 -124 -74 -181 -25 -56 -45 -105 -44 -108 0 -5 -29 -83 -64
-169 -11 -27 -31 -66 -44 -87 -13 -21 -24 -41 -24 -44 0 -17 -142 -294 -151
-294 -5 0 -12 8 -16 18 -3 9 -14 36 -24 59 -11 23 -19 48 -19 55 -1 38 -124
361 -150 393 -13 16 -67 166 -85 236 -18 70 -12 85 39 94 319 52 459 74 516
80 25 3 63 9 85 14 89 19 87 21 55 -66z m152 50 l47 -17 -48 -61 c-58 -74
-141 -209 -256 -420 -48 -87 -107 -185 -116 -191 -4 -2 12 33 36 78 24 46 60
128 80 183 71 193 159 406 177 425 23 24 22 24 80 3z m-1012 -143 c-37 -33
-42 -41 -30 -50 8 -5 23 -7 32 -4 12 3 22 -5 33 -26 16 -30 16 -32 -2 -26 -10
2 -39 8 -65 12 -27 3 -48 7 -48 8 0 1 7 26 15 54 13 43 20 53 43 58 15 3 32 7
37 9 30 10 26 0 -15 -35z m127 -86 c34 -108 32 -109 -25 -3 -31 57 -38 79 -29
88 6 6 14 11 17 11 3 0 20 -43 37 -96z m-115 -55 c9 -5 28 -9 41 -9 14 0 28
-7 31 -16 5 -13 -5 -15 -72 -13 -114 3 -129 10 -97 43 16 16 61 13 97 -5z m40
-79 c65 0 66 -1 77 -30 l10 -31 -87 6 c-147 10 -171 14 -166 31 2 7 6 20 8 28
4 10 14 12 48 5 24 -4 73 -8 110 -9z m62 -101 c27 -5 50 -9 51 -9 2 0 8 -14
14 -31 11 -31 11 -31 -20 -25 -59 12 -215 29 -251 28 -36 -1 -38 1 -38 29 l0
30 98 -6 c53 -4 119 -11 146 -16z m-211 -74 c18 -3 59 -7 92 -9 71 -4 182 -23
210 -37 12 -6 21 -19 21 -30 0 -18 -6 -19 -61 -15 -33 3 -116 8 -185 12 l-125
7 4 51 c2 28 6 46 8 39 3 -7 19 -15 36 -18z m240 -130 c65 -8 122 -17 126 -20
5 -2 11 -14 14 -25 5 -19 2 -20 -41 -15 -26 3 -125 10 -220 14 -96 5 -175 11
-177 13 -1 2 1 13 6 26 8 20 14 22 91 22 46 0 136 -7 201 -15z m-132 -81 c68
-3 160 -10 204 -15 44 -5 84 -9 91 -9 6 0 16 -12 23 -27 l12 -26 -163 7 c-181
7 -352 17 -356 21 -1 1 3 16 9 34 9 27 16 32 34 27 12 -3 78 -8 146 -12z m134
-109 c17 -2 71 -4 122 -4 l92 -1 9 -32 c5 -18 7 -37 4 -42 -2 -4 -32 -5 -66
-2 -71 7 -293 23 -416 30 -47 3 -86 6 -87 6 -2 0 -1 10 1 23 3 12 5 26 5 31 1
8 241 1 336 -9z m15 -104 c197 -15 216 -19 233 -44 l14 -22 -176 1 c-229 1
-454 22 -446 42 3 7 5 20 5 29 0 12 18 14 118 10 64 -3 178 -10 252 -16z"/>
</g>
</svg>
