<?xml version="1.0" standalone="no"?>
<!DOCTYPE svg PUBLIC "-//W3C//DTD SVG 20010904//EN"
 "http://www.w3.org/TR/2001/REC-SVG-20010904/DTD/svg10.dtd">
<svg version="1.0" xmlns="http://www.w3.org/2000/svg"
 width="320.000000pt" height="136.000000pt" viewBox="0 0 320.000000 136.000000"
 preserveAspectRatio="xMidYMid meet">
<metadata>
Created by potrace 1.16, written by Peter Selinger 2001-2019
</metadata>
<g transform="translate(0.000000,136.000000) scale(0.100000,-0.100000)"
fill="#000000" stroke="none">
<path d="M754 1348 c-4 -6 2 -19 14 -29 12 -9 22 -22 22 -28 0 -5 6 -14 13
-18 7 -4 49 -46 92 -93 43 -47 95 -97 114 -112 52 -38 107 -88 98 -88 -8 0
-48 21 -57 30 -10 11 -127 79 -180 105 -30 15 -74 38 -97 52 l-42 24 25 36
c27 41 30 65 10 82 -12 10 -18 6 -32 -21 -9 -18 -28 -46 -41 -62 -32 -39 -26
-55 27 -76 67 -26 62 -39 -13 -33 -66 6 -89 -5 -69 -30 10 -12 34 -111 30
-125 -5 -18 26 -152 35 -152 6 0 -1 -9 -14 -21 -21 -18 -33 -20 -89 -16 -109
8 -326 45 -366 62 -33 14 -39 14 -53 1 -12 -13 -13 -29 -2 -118 7 -57 14 -110
14 -118 1 -8 11 -15 22 -15 13 0 19 6 17 17 -3 20 3 22 148 42 120 17 236 35
281 43 26 5 27 3 34 -57 4 -34 3 -135 -1 -223 -12 -239 -11 -244 86 -264 36
-7 70 -11 76 -9 6 2 26 33 44 68 18 34 45 79 60 98 15 19 40 55 55 80 15 25
48 68 74 96 25 28 68 80 96 116 27 37 52 65 56 63 3 -2 34 23 70 56 35 32 68
59 74 59 5 0 34 -18 63 -40 29 -22 56 -40 60 -40 4 0 28 -20 52 -45 24 -25 50
-45 57 -45 7 0 13 -4 13 -9 0 -5 39 -41 88 -80 48 -39 93 -80 100 -91 14 -23
38 -26 58 -6 8 8 50 28 94 45 44 17 104 42 132 56 29 13 78 32 108 41 30 9 60
20 65 24 12 9 79 33 185 65 105 32 246 92 305 131 28 17 60 35 73 39 12 3 42
17 65 31 33 18 50 22 81 17 35 -5 39 -4 32 12 -4 12 0 22 14 32 35 25 22 30
-62 27 -53 -2 -103 3 -138 12 -90 25 -152 42 -200 54 -72 18 -272 81 -307 96
-17 8 -34 14 -37 14 -3 0 -68 29 -144 64 -75 35 -164 71 -196 81 -33 9 -87 30
-120 45 -67 32 -80 29 -91 -22 -4 -17 -22 -46 -41 -65 -19 -18 -34 -39 -34
-46 0 -7 -14 -28 -31 -47 -17 -19 -46 -53 -65 -76 -18 -22 -70 -78 -114 -123
l-80 -82 -34 23 c-148 101 -493 398 -463 398 17 0 -17 43 -55 70 -45 33 -53
35 -64 18z m1048 -96 c3 -10 23 -24 47 -32 22 -7 39 -15 37 -17 -8 -9 -116 31
-116 42 0 28 26 33 32 7z m-2 -67 c56 -11 151 -41 213 -69 32 -14 74 -30 95
-35 20 -6 71 -21 112 -36 79 -27 145 -44 275 -70 44 -9 109 -25 145 -35 36
-10 90 -21 120 -25 30 -3 72 -11 93 -17 l37 -11 -28 -18 c-16 -9 -71 -30 -123
-47 -52 -16 -112 -38 -134 -47 -22 -10 -44 -19 -50 -21 -20 -6 -261 -92 -290
-104 -16 -6 -64 -20 -105 -31 -88 -23 -90 -24 -110 -32 -8 -4 -59 -17 -113
-30 l-98 -24 5 21 c2 12 8 48 11 81 11 87 27 121 61 127 152 27 292 49 318 49
136 2 226 12 226 23 0 19 -162 37 -372 42 l-176 5 9 34 c12 43 51 129 69 149
7 9 9 23 6 32 -5 12 -13 14 -38 8 -18 -4 -47 -7 -64 -6 -18 1 -36 -4 -42 -11
-5 -6 -12 -77 -16 -156 -3 -79 -8 -147 -11 -151 -3 -5 -6 -45 -6 -90 l-1 -82
-21 33 c-29 48 -59 128 -51 141 3 5 8 53 11 105 3 76 8 102 24 124 11 16 27
29 35 29 11 0 14 9 12 33 -5 49 -28 40 -73 -30 -23 -36 -51 -66 -65 -72 -32
-11 -66 -44 -85 -81 -15 -28 -14 -29 35 -82 27 -29 55 -66 62 -83 6 -16 19
-41 29 -55 42 -61 67 -118 56 -129 -6 -6 -15 -11 -19 -11 -11 0 -114 82 -183
145 -27 25 -73 60 -100 79 -82 55 -82 55 -24 122 28 32 75 83 105 112 30 29
80 89 110 133 40 56 61 78 73 75 9 -2 32 -7 51 -11z m125 5 c3 -6 -1 -7 -9 -4
-18 7 -21 14 -7 14 6 0 13 -4 16 -10z m135 -37 c35 -15 92 -35 249 -88 47 -16
79 -31 72 -33 -18 -6 -392 126 -411 145 -8 8 52 -8 90 -24z m-1105 -130 l90
-53 -56 0 c-41 0 -60 -5 -72 -18 -15 -17 -15 -19 3 -35 16 -14 20 -29 20 -86
0 -83 -10 -95 -64 -80 -21 6 -47 8 -57 6 -11 -3 -21 -2 -24 3 -4 7 15 139 30
200 20 87 22 110 9 110 -16 0 -49 -104 -67 -214 -7 -44 -19 -82 -25 -84 -7 -2
-12 5 -13 15 0 30 -8 96 -14 128 -3 17 -9 59 -13 95 l-8 65 86 0 c84 0 86 0
175 -52z m964 10 c0 -10 -9 -36 -19 -58 l-19 -40 0 51 c-1 28 2 54 6 57 13 13
33 7 32 -10z m508 -9 c-3 -3 -12 -4 -19 -1 -8 3 -5 6 6 6 11 1 17 -2 13 -5z
m-1372 -111 c-24 -60 -48 -137 -61 -198 -8 -38 -20 -74 -25 -80 -8 -7 -9 0 -4
22 3 18 7 87 8 153 l2 120 43 0 c38 0 43 -2 37 -17z m163 -34 c53 -28 99 -53
101 -55 11 -10 -315 -348 -362 -375 -15 -9 -15 -5 4 30 11 22 23 55 26 73 2
18 11 53 20 78 13 38 36 120 46 167 2 7 6 16 10 19 4 4 7 15 7 25 0 23 31 89
42 89 5 0 52 -23 106 -51z m488 -14 c-6 -25 -8 -26 -25 -11 -10 9 -21 13 -24
9 -4 -3 -7 -2 -7 4 0 16 44 42 54 33 5 -5 6 -21 2 -35z m297 -35 c-8 -8 -102
-27 -108 -22 -3 3 0 11 6 19 8 9 29 12 59 11 27 -2 46 -5 43 -8z m-1450 -76
c126 -6 137 -8 137 -25 0 -10 -4 -19 -10 -19 -16 0 -23 -2 -50 -12 -14 -5 -61
-12 -105 -14 -44 -2 -122 -11 -172 -19 -130 -21 -121 -24 -121 46 l0 60 92 -5
c50 -3 153 -8 229 -12z m264 -20 c-3 -3 -12 -4 -19 -1 -8 3 -5 6 6 6 11 1 17
-2 13 -5z m1727 -13 c3 -5 -1 -11 -9 -14 -9 -4 -12 -1 -8 9 6 16 10 17 17 5z
m-1608 -28 c-4 -16 -8 -83 -11 -151 l-5 -123 -63 -47 c-34 -26 -77 -58 -96
-71 l-34 -25 7 140 c4 76 15 173 24 214 l18 75 69 6 c39 3 76 6 83 7 10 1 12
-6 8 -25z m1528 -18 c-10 -8 -30 -15 -42 -15 -13 0 -56 -13 -95 -29 -40 -15
-103 -38 -142 -50 -78 -25 -98 -38 -88 -55 4 -7 1 -7 -7 1 -8 7 -19 9 -29 4
-9 -5 -52 -21 -96 -36 -44 -15 -86 -32 -93 -38 -10 -8 -16 -7 -23 4 -16 25
-10 37 24 44 17 4 79 23 137 42 58 20 141 46 185 58 44 13 123 37 175 53 109
35 121 38 94 17z m-1491 -287 c-65 -85 -85 -115 -113 -165 -13 -24 -28 -43
-33 -43 -11 0 -29 18 -51 52 -17 26 -17 27 9 45 15 10 41 29 58 43 18 14 45
34 60 44 34 21 62 43 91 72 38 38 29 17 -21 -48z"/>
</g>
</svg>
