<?xml version="1.0" standalone="no"?>
<!DOCTYPE svg PUBLIC "-//W3C//DTD SVG 20010904//EN"
 "http://www.w3.org/TR/2001/REC-SVG-20010904/DTD/svg10.dtd">
<svg version="1.0" xmlns="http://www.w3.org/2000/svg"
 width="294.000000pt" height="136.000000pt" viewBox="0 0 294.000000 136.000000"
 preserveAspectRatio="xMidYMid meet">
<metadata>
Created by potrace 1.16, written by Peter Selinger 2001-2019
</metadata>
<g transform="translate(0.000000,136.000000) scale(0.100000,-0.100000)"
fill="#000000" stroke="none">
<path d="M655 1113 c-37 -50 -64 -98 -65 -113 0 -10 -13 -16 -42 -18 -54 -4
-65 -14 -49 -48 6 -14 14 -65 17 -113 l6 -87 -66 7 c-36 3 -92 4 -123 0 -54
-6 -145 5 -168 21 -23 15 -33 -11 -36 -95 -3 -75 -2 -87 11 -83 24 8 280 86
335 101 27 8 51 13 53 11 1 -2 5 -57 8 -122 5 -141 14 -196 33 -202 11 -4 13
4 8 39 l-5 44 34 -40 c22 -26 32 -46 28 -58 -5 -15 -1 -18 23 -15 16 2 27 8
25 16 -1 6 4 12 12 12 8 0 16 3 18 8 10 24 179 146 321 234 87 53 83 53 152 8
34 -22 72 -40 86 -40 5 0 9 -4 9 -8 0 -5 43 -33 96 -63 143 -80 145 -81 197
-117 30 -21 47 -40 45 -50 -2 -11 5 -18 20 -20 12 -2 22 -10 22 -18 0 -8 10
-14 25 -14 14 0 25 5 25 10 0 9 33 26 205 105 28 13 102 48 165 78 184 88 263
118 350 134 14 2 48 15 75 27 28 13 70 26 95 30 25 4 55 14 68 22 13 9 30 13
37 10 18 -6 39 20 31 39 -3 10 -14 13 -33 9 -20 -4 -45 4 -87 25 -32 17 -64
31 -70 31 -22 0 -137 40 -226 77 -47 20 -110 43 -140 50 -99 25 -114 30 -180
61 -36 16 -99 41 -140 55 -41 13 -99 34 -127 46 -29 11 -53 20 -54 18 0 -1 -2
-10 -4 -20 -5 -27 -73 -87 -125 -111 -53 -25 -153 -87 -158 -98 -2 -5 -9 -8
-14 -8 -6 0 -63 -25 -126 -56 -127 -62 -125 -62 -193 -1 -20 18 -55 48 -79 67
-24 19 -60 49 -79 66 -20 18 -59 52 -87 75 -28 24 -64 59 -79 77 -32 39 -53
40 -80 5z m136 -90 c60 -44 66 -49 130 -107 30 -28 69 -61 85 -73 16 -12 47
-37 68 -55 l39 -34 -30 -13 c-30 -12 -35 -10 -153 66 -67 43 -159 102 -206
131 -46 29 -84 58 -84 64 0 7 16 27 37 45 31 29 38 32 53 21 9 -7 37 -28 61
-45z m955 49 c5 -5 51 -23 103 -41 51 -18 121 -45 155 -61 33 -15 75 -32 91
-38 25 -9 26 -11 8 -11 -12 -1 -34 4 -50 10 -56 21 -259 70 -306 73 -27 2 -51
6 -54 10 -3 3 0 19 7 36 12 30 28 37 46 22z m-132 -311 c1 -121 6 -224 9 -228
4 -3 7 34 7 83 0 109 11 347 17 353 2 3 11 -3 21 -12 15 -16 17 -43 16 -257
-1 -132 2 -240 6 -240 10 0 22 309 18 465 -2 50 2 56 28 53 l25 -3 0 -204 c0
-113 4 -223 8 -245 9 -47 5 -66 -14 -66 -7 0 -26 -7 -41 -15 -16 -8 -41 -15
-56 -15 -26 0 -28 3 -29 48 l-1 47 -9 -55 c-11 -64 -21 -77 -40 -54 -11 14
-14 67 -14 271 0 164 -4 252 -10 250 -6 -2 -10 -91 -10 -240 0 -129 -3 -238
-6 -241 -3 -3 -16 2 -28 11 l-24 16 5 213 c2 118 1 214 -3 214 -15 0 -21 -91
-16 -238 3 -82 2 -153 -1 -159 -4 -7 -47 21 -110 69 -71 56 -99 84 -93 92 6 7
11 34 12 60 2 37 9 54 28 72 14 13 29 24 33 24 5 0 8 -48 9 -107 0 -134 17
-108 20 30 1 80 4 95 20 105 18 12 19 7 19 -130 0 -186 18 -171 22 19 l2 142
41 22 c22 12 42 25 45 28 8 10 85 49 88 46 2 -2 4 -102 6 -224z m216 137 c0
-40 2 -150 3 -245 3 -159 2 -172 -15 -176 -10 -3 -21 0 -25 6 -8 13 -14 467
-6 480 2 4 13 7 24 7 17 0 19 -7 19 -72z m-1210 -60 c-23 -97 -33 -113 -61
-97 -14 7 -18 26 -21 104 l-3 94 45 3 c25 2 49 0 54 -4 4 -3 -2 -48 -14 -100z
m1272 107 c10 -4 13 -50 13 -220 0 -118 3 -211 6 -207 4 4 10 95 13 202 3 107
5 200 6 207 0 6 9 9 19 6 17 -4 19 -15 20 -86 0 -45 6 -133 12 -195 6 -62 9
-115 6 -118 -3 -4 -35 -16 -70 -29 l-64 -24 -2 235 c-2 246 -2 245 41 229z
m-1155 -40 c2 -1 6 -78 9 -171 l7 -170 -26 -17 c-15 -9 -29 -17 -33 -17 -3 0
-4 80 -3 178 3 112 0 178 -6 180 -6 1 -11 -65 -13 -180 -2 -115 -7 -188 -14
-196 -7 -7 -24 -20 -40 -28 -35 -18 -35 -29 -4 186 15 97 19 120 33 175 25 94
28 98 61 78 15 -9 28 -18 29 -18z m1303 -8 c0 -75 11 -305 15 -318 6 -18 -30
-47 -43 -35 -7 8 -21 182 -22 284 0 81 0 82 25 82 14 0 25 -6 25 -13z m71 -7
c5 0 9 -63 9 -144 0 -86 4 -147 10 -151 9 -6 16 173 10 259 -2 26 0 28 27 23
63 -12 235 -61 345 -98 65 -21 125 -39 134 -39 19 0 11 -13 -9 -16 -7 -1 -44
-11 -83 -23 -39 -11 -74 -21 -77 -21 -3 0 -7 21 -9 47 -5 69 -26 67 -24 -3 1
-55 0 -58 -29 -69 -73 -30 -70 -33 -68 50 1 41 -3 77 -8 80 -5 4 -9 -25 -9
-67 -1 -71 -14 -108 -38 -108 -16 0 -24 54 -21 128 3 40 0 68 -6 69 -6 2 -10
-37 -9 -102 l1 -105 -26 -6 c-14 -3 -31 -7 -37 -9 -8 -2 -8 9 1 39 7 24 12 77
10 122 -4 109 -4 106 -16 98 -8 -5 -10 -37 -7 -101 3 -51 1 -96 -3 -99 -5 -3
-9 -18 -9 -34 0 -24 -5 -31 -27 -36 -16 -3 -36 -8 -45 -10 -21 -6 -25 10 -32
133 -6 124 2 206 21 199 8 -4 19 -6 24 -6z m-1311 -25 c8 -10 12 -51 12 -125
0 -62 3 -110 9 -110 5 0 10 10 10 23 1 12 3 55 5 96 2 40 5 76 8 78 2 3 15 -1
28 -8 14 -7 18 -14 10 -17 -15 -5 -17 -142 -2 -142 10 0 13 16 11 60 -1 14 2
37 6 52 l8 26 62 -41 62 -42 -57 -31 c-31 -18 -83 -48 -115 -69 -90 -56 -87
-56 -88 16 -1 35 -2 75 -2 89 -2 81 4 160 12 160 5 0 14 -7 21 -15z m462 -161
c-2 -19 -7 -34 -11 -34 -4 0 -20 13 -35 29 l-29 30 34 20 c30 18 35 19 39 5 3
-9 4 -31 2 -50z m-132 11 c-7 -8 -19 -15 -27 -15 -13 0 -13 3 -3 15 7 8 19 15
27 15 13 0 13 -3 3 -15z m-695 -7 c4 -3 -117 -42 -190 -61 -5 -1 -25 -9 -43
-16 -18 -8 -34 -12 -36 -10 -2 2 -2 25 1 50 l5 47 130 -3 c71 -1 131 -4 133
-7z m161 -15 c-2 -10 -7 -49 -11 -87 -9 -89 -23 -129 -25 -71 -1 22 -3 70 -5
108 -3 66 -3 67 22 67 18 0 23 -4 19 -17z m650 -45 c37 -29 79 -64 93 -77 l26
-23 -40 22 c-22 13 -73 41 -112 62 -71 39 -80 47 -66 61 14 15 35 5 99 -45z
m-166 32 c0 -5 -38 -35 -84 -65 -46 -30 -90 -60 -97 -67 -8 -7 -27 -22 -44
-32 -16 -11 -65 -46 -109 -78 -43 -33 -79 -58 -80 -56 -44 63 -46 66 -32 77 7
6 21 9 30 5 10 -4 16 -1 16 8 0 12 55 62 70 63 4 0 66 35 200 114 67 39 130
54 130 31z m950 -196 c-47 -25 -125 -64 -175 -86 -49 -22 -103 -46 -119 -54
-16 -8 -32 -14 -35 -14 -8 0 -44 60 -39 64 17 16 77 37 143 51 71 15 130 32
190 55 116 44 133 37 35 -16z"/>
<path d="M2390 798 c-9 -83 -10 -151 -2 -143 14 14 25 145 12 145 -5 0 -10 -1
-10 -2z"/>
<path d="M2510 724 c0 -14 4 -23 10 -19 6 3 10 15 10 26 0 10 -4 19 -10 19 -5
0 -10 -12 -10 -26z"/>
<path d="M928 719 c-4 -42 5 -61 16 -33 9 24 7 74 -3 74 -5 0 -11 -18 -13 -41z"/>
</g>
</svg>
