<?xml version="1.0" standalone="no"?>
<!DOCTYPE svg PUBLIC "-//W3C//DTD SVG 20010904//EN"
 "http://www.w3.org/TR/2001/REC-SVG-20010904/DTD/svg10.dtd">
<svg version="1.0" xmlns="http://www.w3.org/2000/svg"
 width="264.000000pt" height="174.000000pt" viewBox="0 0 264.000000 174.000000"
 preserveAspectRatio="xMidYMid meet">
<metadata>
Created by potrace 1.16, written by Peter Selinger 2001-2019
</metadata>
<g transform="translate(0.000000,174.000000) scale(0.100000,-0.100000)"
fill="#000000" stroke="none">
<path d="M1288 1682 c-9 -9 -30 -43 -48 -74 -21 -38 -39 -58 -51 -59 -57 -2
-88 -1 -122 6 -26 5 -42 4 -50 -4 -8 -8 -12 -72 -13 -205 -1 -105 -5 -203 -9
-215 -7 -22 -10 -23 -69 -16 -33 5 -79 8 -101 7 -38 -2 -163 20 -309 53 -43
10 -93 30 -133 55 -114 72 -124 61 -134 -151 -5 -87 -13 -176 -18 -196 -13
-45 -14 -73 -3 -73 4 0 26 16 48 36 133 123 325 184 653 207 l53 4 -6 -46 c-3
-25 -11 -80 -17 -121 -6 -41 -10 -100 -10 -130 -1 -30 -11 -108 -25 -174 -13
-65 -24 -120 -24 -122 0 -2 9 -4 19 -4 12 0 21 10 26 27 6 27 7 27 31 -22 13
-28 29 -65 35 -82 12 -37 34 -42 59 -13 17 19 317 174 511 263 57 26 118 55
134 63 17 9 100 52 185 96 85 45 175 95 200 112 65 45 97 59 114 53 17 -7 76
11 76 23 0 11 -91 80 -106 80 -7 0 -36 21 -66 46 -29 25 -75 60 -103 78 -113
74 -144 95 -228 156 -48 36 -125 88 -171 115 -115 69 -221 141 -251 171 -13
13 -29 24 -35 24 -5 0 -10 9 -10 19 0 28 -15 34 -32 13z m51 -76 c6 -7 50 -37
96 -65 47 -29 88 -58 92 -65 5 -7 26 -21 48 -32 22 -10 93 -59 158 -109 66
-49 147 -108 182 -130 140 -89 89 -66 -300 131 -159 80 -307 155 -327 165 -45
23 -46 32 -13 82 27 39 45 46 64 23z m-224 -110 c19 -1 37 -4 39 -7 2 -2 -6
-40 -20 -84 -13 -44 -38 -129 -56 -188 -18 -60 -37 -107 -43 -105 -5 2 -8 7
-7 13 2 6 5 96 7 200 2 105 4 191 4 193 1 1 10 -2 21 -8 11 -6 36 -12 55 -14z
m142 -13 c21 -10 49 -25 63 -34 14 -9 38 -19 55 -23 16 -4 32 -11 35 -16 3 -4
79 -46 170 -92 429 -219 546 -282 562 -298 24 -25 13 -50 -35 -85 -54 -38
-686 -355 -708 -355 -10 0 -19 -4 -21 -8 -1 -4 -32 -20 -68 -36 -36 -16 -109
-51 -164 -78 -54 -27 -99 -48 -100 -46 -1 2 -14 27 -29 55 l-28 53 58 25 c32
14 105 44 163 66 58 23 119 46 135 53 17 7 51 19 78 27 26 7 47 16 47 20 0 4
-53 -11 -117 -32 -65 -22 -125 -39 -134 -39 -8 0 -18 -3 -22 -6 -11 -11 -200
-74 -222 -74 l-22 0 18 88 c19 99 28 134 59 247 12 44 35 134 51 200 28 109
52 196 66 235 4 8 7 20 8 25 19 81 45 145 60 145 2 0 21 -8 42 -17z m-887
-295 c28 -17 72 -35 98 -39 91 -14 218 -40 258 -53 24 -8 64 -12 97 -9 87 7
68 -3 -30 -17 -138 -19 -324 -61 -395 -89 -15 -5 -46 -22 -69 -37 l-42 -26 7
29 c4 15 9 83 13 151 3 67 7 122 9 122 1 0 26 -14 54 -32z m656 -167 c-7 -43
-24 -96 -30 -90 -7 8 18 129 27 129 5 0 7 -17 3 -39z"/>
<path d="M1217 1425 c-24 -24 -35 -76 -42 -210 -4 -66 -11 -128 -17 -138 -6
-12 -6 -23 2 -32 9 -11 17 -11 48 1 70 28 140 66 157 84 23 26 45 114 38 158
-11 74 -66 132 -126 132 -12 0 -28 5 -34 11 -7 7 -15 6 -26 -6z m105 -76 c28
-34 38 -86 27 -140 -11 -49 -38 -74 -112 -107 -25 -11 -28 -10 -23 5 2 10 8
65 12 123 4 58 8 110 9 115 1 6 3 16 3 24 3 20 63 6 84 -20z"/>
<path d="M1452 1064 c1 -137 -3 -208 -10 -213 -22 -13 5 -34 34 -27 53 14 151
120 174 191 14 42 8 121 -12 160 -19 35 -66 85 -82 86 -6 0 -32 3 -57 5 l-47
4 0 -206z m109 144 c72 -85 63 -196 -24 -293 l-36 -40 -1 40 c-1 22 -2 102 -3
178 l-2 137 23 0 c13 0 32 -10 43 -22z"/>
<path d="M2035 1019 c-10 -32 10 -46 35 -24 27 25 25 45 -4 45 -16 0 -27 -7
-31 -21z"/>
<path d="M1150 990 c-20 -13 -27 -332 -8 -347 22 -17 74 5 120 50 83 80 89
188 17 268 -26 29 -102 46 -129 29z m93 -58 c62 -65 54 -158 -18 -217 -23 -19
-45 -35 -49 -35 -4 0 -2 265 3 278 5 12 43 -3 64 -26z"/>
<path d="M1920 890 c0 -5 7 -10 15 -10 8 0 15 5 15 10 0 6 -7 10 -15 10 -8 0
-15 -4 -15 -10z"/>
<path d="M1870 870 c0 -5 5 -10 10 -10 6 0 10 5 10 10 0 6 -4 10 -10 10 -5 0
-10 -4 -10 -10z"/>
<path d="M1795 840 c-3 -5 1 -10 9 -10 9 0 16 5 16 10 0 6 -4 10 -9 10 -6 0
-13 -4 -16 -10z"/>
<path d="M1495 730 c-3 -5 -1 -10 4 -10 6 0 11 5 11 10 0 6 -2 10 -4 10 -3 0
-8 -4 -11 -10z"/>
</g>
</svg>
