<?xml version="1.0" standalone="no"?>
<!DOCTYPE svg PUBLIC "-//W3C//DTD SVG 20010904//EN"
 "http://www.w3.org/TR/2001/REC-SVG-20010904/DTD/svg10.dtd">
<svg version="1.0" xmlns="http://www.w3.org/2000/svg"
 width="186.000000pt" height="89.000000pt" viewBox="0 0 186.000000 89.000000"
 preserveAspectRatio="xMidYMid meet">
<metadata>
Created by potrace 1.16, written by Peter Selinger 2001-2019
</metadata>
<g transform="translate(0.000000,89.000000) scale(0.100000,-0.100000)"
fill="#000000" stroke="none">
<path d="M332 781 c-8 -5 -15 -36 -17 -81 -3 -40 -6 -74 -7 -75 -2 -2 -46 0
-98 4 -52 4 -99 5 -103 0 -5 -4 -10 -22 -10 -40 l-2 -34 95 -1 c52 -1 101 -2
108 -3 9 -1 12 -27 12 -95 0 -76 3 -98 19 -117 l18 -23 369 0 c267 -1 398 3
475 13 l107 15 5 50 c2 27 1 63 -4 78 -4 15 -4 30 0 33 5 2 6 38 3 79 -3 49 0
86 8 106 7 17 10 33 7 37 -4 3 -98 7 -209 8 -112 1 -268 7 -348 13 -80 6 -198
14 -263 18 -65 4 -120 11 -123 15 -7 11 -25 11 -42 0z m263 -65 c11 -3 49 -5
84 -5 l63 -1 -7 -167 c-4 -93 -11 -172 -17 -178 -13 -14 -318 -8 -335 7 -11 9
-12 27 -7 82 5 39 8 105 9 146 2 107 3 110 28 120 20 9 134 6 182 -4z m355
-16 c30 -1 106 -1 168 0 62 0 117 -2 121 -5 5 -3 9 -53 10 -113 0 -59 3 -119
6 -134 3 -15 1 -29 -4 -33 -6 -3 -8 -12 -5 -20 6 -15 2 -16 -136 -34 -82 -10
-300 -8 -319 3 -8 5 -10 35 -7 99 3 51 5 127 5 171 l1 78 53 -6 c28 -3 77 -6
107 -6z"/>
<path d="M1450 761 c-45 -28 -80 -61 -65 -61 5 0 0 -9 -9 -19 -15 -17 -18 -57
-6 -97 2 -10 77 -34 104 -34 63 0 113 27 136 74 34 71 26 127 -21 151 -43 23
-89 18 -139 -14z m128 -24 c27 -22 10 -94 -32 -129 -51 -42 -157 -1 -140 55
21 71 121 114 172 74z"/>
<path d="M1680 660 c-49 -25 -71 -52 -77 -97 -4 -32 1 -44 27 -75 38 -45 83
-57 132 -34 37 18 78 85 78 127 0 37 -35 77 -78 89 -44 12 -38 12 -82 -10z
m108 -52 c16 -14 15 -30 -4 -72 -30 -62 -88 -65 -118 -7 -18 35 -20 55 -6 80
8 15 18 17 62 13 29 -2 59 -9 66 -14z"/>
<path d="M1422 503 c-47 -23 -82 -68 -82 -107 0 -68 61 -107 151 -99 61 5 119
64 119 120 0 46 -5 55 -50 82 -42 25 -93 27 -138 4z m127 -44 c30 -28 26 -62
-10 -98 -49 -49 -116 -37 -148 26 -15 30 -15 31 20 62 38 35 106 40 138 10z"/>
</g>
</svg>
