<?xml version="1.0" standalone="no"?>
<!DOCTYPE svg PUBLIC "-//W3C//DTD SVG 20010904//EN"
 "http://www.w3.org/TR/2001/REC-SVG-20010904/DTD/svg10.dtd">
<svg version="1.0" xmlns="http://www.w3.org/2000/svg"
 width="160.000000pt" height="207.000000pt" viewBox="0 0 160.000000 207.000000"
 preserveAspectRatio="xMidYMid meet">
<metadata>
Created by potrace 1.16, written by Peter Selinger 2001-2019
</metadata>
<g transform="translate(0.000000,207.000000) scale(0.100000,-0.100000)"
fill="#000000" stroke="none">
<path d="M949 2006 c-2 -3 -30 -6 -62 -7 -56 -2 -97 -19 -97 -40 0 -6 14 -27
30 -48 l30 -37 -4 -113 c-3 -62 -7 -115 -10 -119 -3 -3 -6 -1 -6 5 0 6 -30 46
-66 89 -61 72 -124 181 -124 212 0 28 -32 24 -64 -9 -18 -19 -45 -44 -59 -56
-38 -31 -34 -48 19 -73 25 -13 89 -65 142 -117 l97 -95 -60 5 c-33 2 -91 9
-130 16 -118 18 -236 27 -242 18 -3 -5 0 -14 6 -20 15 -15 2 -129 -16 -144 -8
-6 -12 -17 -8 -23 9 -14 53 -9 111 13 66 25 324 65 324 50 -1 -14 -219 -155
-258 -166 -20 -6 -40 -16 -44 -21 -8 -12 9 -36 25 -36 14 0 50 -40 64 -73 16
-34 28 -34 50 0 19 30 21 32 85 111 24 30 65 82 92 115 42 54 48 58 42 32 -4
-16 -9 -73 -13 -126 -5 -86 -4 -97 12 -103 29 -11 38 9 40 86 1 81 14 178 24
178 3 0 28 -21 55 -47 46 -45 83 -84 183 -192 41 -45 61 -51 49 -14 -3 10 -27
41 -54 68 -26 28 -78 84 -115 126 l-68 77 43 4 c24 2 115 6 203 7 276 5 290 6
293 16 1 6 -10 12 -25 13 -15 2 -30 8 -33 13 -4 5 -117 9 -253 9 l-248 1 50
57 c28 32 85 85 126 117 109 86 171 143 163 151 -7 6 -47 -23 -177 -129 -91
-74 -125 -102 -153 -129 l-28 -26 0 28 c0 16 6 35 13 42 24 27 54 74 86 137
18 35 43 78 57 96 27 36 24 60 -9 69 -26 7 -82 8 -88 2z m-5 -148 c-47 -108
-51 -109 -51 -19 l0 80 36 3 c20 2 38 2 39 1 2 -1 -9 -30 -24 -65z m-294 -1
c11 -23 52 -82 90 -130 39 -49 70 -93 70 -99 0 -23 -36 4 -142 108 l-113 110
30 31 c17 16 34 28 38 26 4 -3 17 -23 27 -46z m-54 -277 c21 -5 71 -10 109
-10 87 0 116 -14 49 -24 -26 -3 -72 -6 -103 -6 -31 0 -87 -7 -126 -16 -137
-30 -135 -30 -135 -1 0 14 5 38 10 53 10 26 11 26 84 19 40 -3 91 -10 112 -15z
m142 -144 c-100 -125 -144 -174 -153 -172 -5 1 -18 16 -27 32 l-18 30 48 34
c71 52 186 130 190 130 2 0 -16 -24 -40 -54z"/>
<path d="M557 1082 c-73 -73 -97 -102 -97 -118 0 -17 21 -23 41 -13 12 6 32
-5 75 -43 32 -28 67 -62 78 -77 11 -14 35 -43 55 -65 l36 -38 -115 7 c-63 3
-137 10 -165 15 -27 5 -66 10 -85 12 -19 1 -40 6 -47 11 -7 5 -20 6 -30 3 -16
-5 -18 -14 -13 -66 3 -33 2 -69 -2 -81 -13 -34 5 -83 31 -87 21 -3 22 -1 16
27 -6 28 -4 30 27 35 48 7 114 15 193 21 39 3 86 8 105 11 l35 5 -25 -21 c-60
-50 -215 -167 -246 -186 -45 -27 -62 -44 -45 -44 26 0 59 23 298 208 30 23 66
42 79 42 29 0 30 -7 7 -33 -17 -19 -17 -20 0 -14 14 5 17 0 17 -31 0 -141 6
-272 13 -278 16 -16 22 12 20 104 -1 53 2 99 6 102 5 3 12 30 16 60 4 30 8 56
10 58 8 8 41 -22 130 -119 88 -96 125 -127 125 -101 0 13 -29 51 -77 100 -25
25 -57 62 -71 81 -15 20 -35 45 -45 56 -10 11 -14 21 -10 22 14 4 305 24 372
26 78 2 93 22 24 30 -26 4 -124 10 -218 13 -93 4 -175 10 -181 15 -6 5 -14 5
-19 1 -4 -4 -6 0 -3 8 2 8 22 25 44 36 21 12 68 50 104 84 36 34 77 68 93 76
15 8 27 21 27 30 0 27 -47 -5 -209 -144 l-50 -43 6 38 c9 62 41 163 58 179 26
26 18 44 -19 44 -18 0 -61 3 -94 6 -53 6 -62 4 -68 -11 -4 -9 -2 -20 3 -24 15
-9 39 -201 26 -201 -5 0 -21 24 -37 53 -16 28 -35 59 -43 68 -20 24 -75 141
-78 167 -5 45 -20 42 -78 -16z m88 -84 c16 -29 40 -71 55 -93 51 -75 91 -147
88 -157 -4 -12 -56 38 -170 165 l-78 85 31 26 c17 14 34 26 38 26 4 0 21 -24
36 -52z m241 -32 c-8 -19 -19 -58 -25 -88 -6 -29 -13 -66 -17 -83 -3 -16 -6
-36 -6 -43 -1 -7 -5 -9 -8 -5 -4 4 -10 63 -14 131 l-6 122 45 0 45 0 -14 -34z
m-438 -247 c12 -5 88 -9 167 -10 80 -1 148 -5 150 -9 3 -4 -6 -15 -20 -24 -17
-11 -47 -16 -102 -16 -43 0 -126 -5 -186 -12 -59 -6 -110 -9 -113 -5 -4 3 -9
27 -12 52 l-5 47 49 -8 c27 -3 59 -11 72 -15z m584 -27 c9 -9 -148 -15 -162
-7 -6 3 -8 10 -6 14 6 9 158 2 168 -7z m55 -8 c-3 -3 -12 -4 -19 -1 -8 3 -5 6
6 6 11 1 17 -2 13 -5z"/>
<path d="M727 566 c-4 -10 -1 -13 9 -9 7 3 14 9 14 14 0 14 -17 10 -23 -5z"/>
<path d="M535 385 l-114 -116 -17 28 c-10 15 -29 38 -43 50 -15 12 -20 22 -13
23 6 0 12 4 12 10 0 5 -16 2 -35 -7 -39 -19 -45 -38 -15 -48 22 -7 85 -83 76
-92 -7 -7 12 -33 25 -33 5 0 15 12 23 28 17 30 46 64 144 167 85 89 98 105 83
105 -7 0 -64 -52 -126 -115z"/>
</g>
</svg>
