<?xml version="1.0" standalone="no"?>
<!DOCTYPE svg PUBLIC "-//W3C//DTD SVG 20010904//EN"
 "http://www.w3.org/TR/2001/REC-SVG-20010904/DTD/svg10.dtd">
<svg version="1.0" xmlns="http://www.w3.org/2000/svg"
 width="114.000000pt" height="101.000000pt" viewBox="0 0 114.000000 101.000000"
 preserveAspectRatio="xMidYMid meet">
<metadata>
Created by potrace 1.16, written by Peter Selinger 2001-2019
</metadata>
<g transform="translate(0.000000,101.000000) scale(0.100000,-0.100000)"
fill="#000000" stroke="none">
<path d="M109 771 c-23 -18 -23 -20 -6 -39 26 -28 98 -44 200 -43 84 0 88 -1
82 -20 -4 -11 2 -43 14 -72 11 -29 46 -124 77 -211 30 -88 60 -169 67 -180 11
-20 12 -25 15 -53 3 -18 33 -16 60 3 14 9 22 26 22 44 0 16 10 41 23 57 12 15
45 62 72 103 28 41 80 115 116 165 121 166 140 197 135 211 -6 15 -22 15 -291
3 -5 -1 -37 2 -70 5 -33 2 -123 8 -200 11 -77 4 -162 13 -189 21 -67 19 -99
18 -127 -5z m747 -131 c-74 -103 -126 -179 -126 -184 0 -12 -132 -196 -141
-196 -5 0 -11 12 -15 27 -10 47 -65 227 -75 245 -5 10 -9 28 -9 40 0 13 -11
43 -25 67 -14 23 -25 45 -25 47 0 2 102 3 226 3 l225 0 -35 -49z"/>
</g>
</svg>
