<?xml version="1.0" standalone="no"?>
<!DOCTYPE svg PUBLIC "-//W3C//DTD SVG 20010904//EN"
 "http://www.w3.org/TR/2001/REC-SVG-20010904/DTD/svg10.dtd">
<svg version="1.0" xmlns="http://www.w3.org/2000/svg"
 width="268.000000pt" height="194.000000pt" viewBox="0 0 268.000000 194.000000"
 preserveAspectRatio="xMidYMid meet">
<metadata>
Created by potrace 1.16, written by Peter Selinger 2001-2019
</metadata>
<g transform="translate(0.000000,194.000000) scale(0.100000,-0.100000)"
fill="#000000" stroke="none">
<path d="M894 1482 c-21 -21 -64 -54 -94 -74 -30 -20 -66 -47 -80 -60 -84 -81
-172 -155 -242 -204 -72 -51 -83 -56 -118 -50 -40 6 -143 53 -148 68 -6 14
-31 9 -40 -9 -11 -21 -29 -123 -37 -208 -3 -33 -8 -67 -11 -77 -5 -18 33 -51
49 -41 12 7 13 7 187 17 69 4 152 9 185 11 65 4 209 11 430 21 124 5 154 2
265 -20 69 -14 184 -35 255 -47 72 -11 133 -23 137 -25 4 -3 37 -9 75 -14 269
-37 423 -66 423 -79 0 -14 -83 -126 -129 -174 -29 -30 -60 -51 -84 -58 -45
-12 -44 -32 2 -35 17 -1 54 -17 81 -34 52 -34 80 -34 80 -1 0 10 22 63 49 117
26 55 59 123 71 152 12 28 26 52 31 52 4 0 17 -28 27 -62 11 -34 24 -64 31
-66 18 -6 12 47 -13 120 l-23 67 29 66 c15 37 53 105 83 151 30 47 55 90 55
97 -1 16 -67 -58 -91 -103 -33 -59 -60 -104 -79 -127 l-18 -23 -17 26 c-24 36
-34 117 -37 291 -2 84 -6 153 -9 153 -7 0 -60 -23 -156 -66 -57 -25 -67 -41
-30 -46 16 -2 23 -11 27 -33 3 -16 15 -49 28 -72 12 -23 22 -45 22 -48 0 -3
-10 -5 -22 -5 -13 0 -45 -7 -73 -15 -62 -19 -249 -52 -330 -59 -33 -3 -85 -9
-115 -15 -95 -17 -368 -34 -444 -26 l-72 6 -17 82 c-23 107 -38 287 -36 412 1
55 -3 101 -8 102 -5 2 -27 -14 -49 -35z m30 -220 c4 -76 3 -121 -3 -118 -5 3
-23 50 -39 103 -49 155 -48 147 -10 176 l33 27 6 -33 c4 -17 10 -87 13 -155z
m-114 92 c0 -30 63 -199 92 -243 15 -25 28 -52 28 -62 0 -9 7 -33 16 -54 24
-57 15 -67 -43 -49 -95 30 -190 55 -283 75 -133 28 -128 23 -84 73 22 24 53
63 69 87 60 87 166 189 198 189 4 0 7 -7 7 -16z m1329 -151 c1 -32 3 -101 5
-153 4 -83 3 -90 -7 -58 -7 20 -21 47 -33 60 -31 35 -62 93 -69 131 -6 31 -5
34 42 54 26 11 51 21 54 22 3 1 7 -25 8 -56z m-1587 -58 c-66 -84 -80 -95
-107 -85 -14 5 -25 11 -25 14 0 2 15 14 33 25 17 12 47 32 66 46 43 32 58 32
33 0z m-258 -68 l40 -15 -32 -16 c-18 -9 -32 -18 -32 -19 0 -2 24 -28 54 -59
l54 -56 49 50 c47 48 49 49 95 43 27 -4 76 -13 110 -21 35 -8 77 -16 93 -19
24 -5 161 -43 210 -60 6 -2 -19 -4 -55 -4 -125 -2 -376 -12 -480 -20 -58 -4
-132 -5 -166 -3 l-60 4 13 86 c20 134 21 135 46 129 12 -3 40 -12 61 -20z
m134 -48 l22 -9 -22 -25 c-27 -31 -45 -32 -73 -1 -20 22 -21 26 -7 40 16 16
26 15 80 -5z m1697 -105 c22 -40 45 -78 52 -85 23 -27 24 -63 3 -88 l-21 -24
-77 16 c-42 9 -113 21 -157 27 -267 37 -692 115 -650 119 294 30 729 92 744
107 3 3 19 4 35 2 26 -3 36 -13 71 -74z m75 -211 c-10 -21 -37 -76 -60 -123
-23 -47 -55 -106 -72 -132 l-30 -48 -29 21 -29 20 53 64 c74 90 156 201 163
220 3 8 10 15 15 15 4 0 -1 -17 -11 -37z"/>
</g>
</svg>
