<?xml version="1.0" standalone="no"?>
<!DOCTYPE svg PUBLIC "-//W3C//DTD SVG 20010904//EN"
 "http://www.w3.org/TR/2001/REC-SVG-20010904/DTD/svg10.dtd">
<svg version="1.0" xmlns="http://www.w3.org/2000/svg"
 width="296.000000pt" height="158.000000pt" viewBox="0 0 296.000000 158.000000"
 preserveAspectRatio="xMidYMid meet">
<metadata>
Created by potrace 1.16, written by Peter Selinger 2001-2019
</metadata>
<g transform="translate(0.000000,158.000000) scale(0.100000,-0.100000)"
fill="#000000" stroke="none">
<path d="M1532 1338 c-13 -13 -17 -42 -4 -34 4 3 27 -40 51 -94 23 -54 50
-106 60 -116 17 -18 34 -54 27 -54 -3 0 -21 23 -41 50 -33 45 -99 105 -164
150 -20 14 -20 16 -4 27 9 7 12 13 7 13 -18 0 -232 -148 -289 -200 -22 -21
-71 -57 -110 -81 -38 -23 -84 -53 -101 -66 -33 -25 -104 -58 -117 -55 -5 2 -6
-1 -3 -6 3 -5 -17 -16 -45 -26 -53 -19 -61 -31 -29 -41 22 -7 50 -32 50 -45 0
-11 -74 0 -195 28 -22 6 -72 17 -112 26 -142 31 -231 71 -240 107 -15 55 -73
-33 -73 -110 0 -21 -7 -79 -16 -130 -9 -51 -13 -95 -11 -98 3 -2 45 11 94 30
162 64 370 107 515 107 48 0 89 -4 92 -8 8 -13 -7 -29 -44 -44 -50 -21 -51
-59 -2 -96 55 -41 61 -46 143 -119 41 -38 108 -97 148 -133 40 -35 91 -75 114
-89 23 -13 57 -37 76 -53 18 -16 44 -34 57 -40 15 -7 24 -20 24 -35 0 -30 26
-30 41 0 6 12 37 51 68 87 32 36 71 85 88 110 17 25 46 61 63 80 18 19 55 69
83 110 69 103 117 161 128 155 5 -4 9 -21 9 -40 0 -64 23 -82 65 -50 58 44
103 67 134 69 20 1 45 7 56 13 42 23 227 37 454 34 156 -2 222 0 217 7 -4 6
-35 11 -69 10 -34 0 -107 2 -162 6 -55 3 -167 8 -250 11 -82 3 -179 10 -215
16 -36 5 -93 13 -127 16 -54 5 -63 9 -63 25 0 11 -8 22 -18 25 -10 2 -26 16
-34 31 -9 15 -25 36 -35 47 -22 23 -203 319 -203 332 0 4 -12 31 -25 58 -14
28 -25 60 -25 73 0 24 -19 29 -38 10z m-22 -260 l0 -76 -102 5 c-132 7 -124
-13 10 -23 l93 -7 -5 -96 c-2 -53 -10 -184 -16 -291 -7 -107 -12 -211 -12
-232 1 -36 0 -37 -82 -77 -46 -23 -88 -41 -94 -41 -20 0 -44 47 -37 71 7 20
11 21 94 14 67 -5 83 -4 74 5 -6 7 -44 13 -93 14 l-82 1 6 65 c3 36 9 89 12
118 l6 53 83 -6 c49 -4 85 -3 89 3 8 13 -35 20 -111 18 l-64 -1 3 55 c3 55 3
55 38 58 19 2 59 -1 89 -8 35 -8 56 -9 63 -2 12 12 -132 47 -162 39 -18 -5
-20 0 -20 49 0 62 -6 59 105 43 50 -8 80 -8 86 -2 7 7 -24 16 -89 28 l-99 18
4 119 c2 71 0 118 -6 118 -13 0 -19 -54 -25 -215 -3 -71 -11 -204 -18 -295 -7
-91 -12 -193 -11 -228 0 -34 -1 -62 -4 -62 -7 0 -53 52 -53 60 0 4 -23 32 -51
61 -51 53 -90 104 -156 204 -49 74 -46 108 21 208 30 45 69 97 85 115 17 18
31 36 31 40 0 4 14 16 30 25 17 10 42 31 58 47 15 15 71 59 124 97 l98 70 45
-41 45 -42 0 -76z m108 -31 c38 -45 76 -96 85 -114 9 -17 20 -33 24 -35 5 -1
26 -25 48 -53 96 -118 102 -139 56 -178 -16 -13 -49 -50 -74 -83 -71 -93 -212
-224 -240 -224 -5 0 -6 32 -2 71 7 67 8 136 3 184 -1 11 1 81 5 155 13 233 15
284 16 323 1 20 3 37 6 37 2 0 35 -37 73 -83z m-590 -131 c-24 -29 -61 -76
-83 -105 -22 -28 -43 -51 -46 -51 -13 0 -69 64 -66 75 2 5 32 26 68 45 35 20
82 48 104 63 61 42 69 32 23 -27z m-696 -88 c31 -15 109 -37 175 -49 154 -28
160 -31 83 -40 -74 -8 -229 -47 -307 -77 -29 -11 -54 -18 -56 -16 -2 3 2 28
10 56 7 29 13 66 13 83 0 37 10 77 19 72 3 -1 31 -15 63 -29z m1757 -148 c14
-8 13 -9 -4 -10 -11 0 -53 -16 -92 -37 -74 -37 -89 -39 -77 -9 5 13 14 15 35
11 36 -8 38 9 7 43 l-23 25 69 -7 c38 -4 77 -11 85 -16z m-1117 -96 c35 -47
90 -116 123 -153 33 -37 76 -90 95 -117 30 -42 31 -46 10 -29 -14 11 -48 41
-75 67 -175 165 -266 244 -294 253 -24 7 -28 25 -6 25 8 0 15 -4 15 -10 0 -20
21 -9 38 20 9 16 20 30 24 30 4 0 36 -39 70 -86z m689 -161 c-25 -46 -225
-273 -240 -273 -4 0 -27 18 -50 39 l-43 40 93 44 c52 24 108 55 124 70 32 27
118 95 123 96 1 1 -2 -7 -7 -16z"/>
<path d="M1332 1119 c3 -8 18 -17 34 -20 45 -10 124 -10 124 0 0 5 -21 11 -47
15 -27 3 -63 9 -82 12 -26 5 -33 4 -29 -7z"/>
<path d="M1300 470 c-8 -5 -10 -10 -5 -10 6 -1 39 -3 74 -6 79 -6 116 6 51 17
-63 11 -103 10 -120 -1z"/>
</g>
</svg>
