<?xml version="1.0" standalone="no"?>
<!DOCTYPE svg PUBLIC "-//W3C//DTD SVG 20010904//EN"
 "http://www.w3.org/TR/2001/REC-SVG-20010904/DTD/svg10.dtd">
<svg version="1.0" xmlns="http://www.w3.org/2000/svg"
 width="224.000000pt" height="168.000000pt" viewBox="0 0 224.000000 168.000000"
 preserveAspectRatio="xMidYMid meet">
<metadata>
Created by potrace 1.16, written by Peter Selinger 2001-2019
</metadata>
<g transform="translate(0.000000,168.000000) scale(0.100000,-0.100000)"
fill="#000000" stroke="none">
<path d="M613 1400 c-39 -3 -74 -7 -77 -10 -2 -3 -2 -50 2 -105 4 -55 7 -125
7 -155 l0 -55 -80 -1 c-44 -1 -111 2 -150 7 -92 11 -100 2 -109 -118 -4 -48
-9 -112 -12 -140 -5 -43 -3 -54 10 -59 23 -9 29 0 32 44 6 65 13 136 21 187
l8 50 138 1 137 1 -1 -31 c0 -17 -4 -53 -7 -80 -7 -47 -8 -49 -42 -51 -108 -8
-240 -42 -240 -63 0 -10 6 -12 23 -8 27 8 38 11 102 26 101 24 110 25 133 22
l24 -4 -6 -116 c-13 -242 -12 -276 5 -280 12 -2 21 18 39 90 13 51 25 111 26
133 6 68 35 186 47 190 17 6 65 14 117 21 25 3 58 7 74 9 l28 5 -7 -58 c-12
-93 -26 -262 -27 -327 -1 -45 2 -61 13 -63 19 -3 39 51 39 104 1 74 37 246 67
316 15 36 21 39 103 55 48 9 193 24 203 20 6 -2 -16 -23 -48 -48 -33 -24 -70
-55 -82 -69 -25 -28 -26 -56 -1 -52 18 3 45 -24 113 -113 81 -106 161 -228
189 -290 30 -64 73 -118 88 -109 4 3 5 10 2 16 -4 7 -2 8 5 4 12 -8 6 -87 -9
-116 -8 -15 -13 -53 -11 -77 1 -18 31 -16 31 2 0 8 6 15 13 15 11 0 97 192 97
219 0 7 11 27 25 45 14 18 25 42 25 54 0 23 25 83 51 122 9 14 22 44 29 67 7
23 22 53 34 65 12 12 26 30 31 40 6 9 28 43 49 75 108 159 128 192 121 203 -5
8 -22 10 -50 6 -54 -9 -227 12 -240 28 -8 10 -90 12 -356 11 -191 -2 -352 -5
-357 -9 -7 -4 -5 12 4 41 8 26 23 80 34 120 10 39 28 90 39 112 12 22 21 42
21 45 0 3 -19 5 -42 5 -44 0 -68 3 -124 16 -19 4 -34 3 -38 -3 -7 -11 -20
-118 -31 -244 l-7 -78 -90 0 -91 0 5 38 c9 65 71 221 101 253 15 18 25 35 20
39 -12 11 -109 16 -190 10z m119 -42 c16 -12 15 -17 -4 -58 -12 -25 -34 -87
-48 -138 -14 -51 -29 -93 -33 -93 -4 1 -20 1 -36 1 l-28 0 -8 88 c-4 48 -9
100 -10 115 -2 15 1 42 6 60 8 32 9 32 77 35 43 1 74 -3 84 -10z m306 -22 c16
-1 20 -5 15 -16 -9 -21 -53 -152 -57 -170 -2 -8 -6 -22 -9 -30 -4 -8 -11 -27
-16 -42 -7 -20 -17 -28 -33 -28 -46 0 -51 11 -43 101 4 46 8 100 10 119 4 70
10 77 63 72 26 -2 57 -5 70 -6z m-408 -360 c-10 -36 -16 -67 -14 -69 3 -3 -7
-8 -22 -11 -14 -4 -28 -5 -30 -3 -7 7 -7 102 0 125 6 18 15 22 46 22 l39 0
-19 -64z m236 30 c3 -13 4 -35 2 -47 -3 -22 -11 -25 -111 -40 -59 -9 -110 -13
-112 -9 -3 4 1 33 7 64 l12 56 98 0 c95 0 98 -1 104 -24z m83 8 c2 -2 0 -18
-5 -36 -7 -23 -17 -34 -32 -36 -20 -3 -23 0 -21 35 1 21 4 42 7 46 3 7 40 0
51 -9z m740 11 c-7 -6 -166 -23 -294 -30 -111 -6 -205 -16 -325 -35 -98 -15
-112 -14 -101 8 5 9 12 25 15 34 4 13 19 18 73 20 121 5 636 8 632 3z m74 -44
c4 -4 -3 -32 -16 -62 -13 -30 -31 -81 -41 -114 -9 -33 -35 -114 -58 -180 -22
-66 -53 -160 -68 -210 -19 -61 -33 -89 -42 -86 -7 2 -20 4 -28 5 -8 2 -21 16
-29 32 -8 16 -20 40 -28 54 -55 99 -123 292 -123 348 0 15 -5 45 -11 67 -15
50 -15 113 -2 126 6 6 70 12 144 15 74 3 150 9 169 14 37 9 119 4 133 -9z
m145 1 l53 -4 -27 -46 c-15 -26 -55 -87 -89 -137 -34 -49 -71 -108 -83 -130
-28 -53 -112 -234 -112 -242 0 -3 -15 -38 -34 -77 -19 -39 -36 -78 -38 -85 -4
-13 -5 -13 -10 0 -4 9 3 36 14 60 11 24 22 60 24 79 2 20 15 63 30 95 15 33
31 78 35 100 4 22 19 74 33 115 13 41 30 95 37 120 27 103 71 176 98 164 9 -4
40 -10 69 -12z m-988 -69 c0 -5 -9 -35 -20 -68 l-20 -60 5 59 c3 32 8 63 11
67 6 11 24 12 24 2z m357 -44 c1 -24 6 -60 11 -79 20 -70 41 -164 38 -167 -5
-5 -86 102 -86 113 0 5 -20 27 -45 50 l-44 42 50 47 c27 25 55 45 62 42 7 -2
13 -23 14 -48z m-686 -92 c-12 -47 -21 -94 -21 -104 0 -10 -4 -25 -9 -32 -6
-10 -8 26 -6 95 4 140 2 132 23 137 32 7 34 -10 13 -96z"/>
</g>
</svg>
