<?xml version="1.0" standalone="no"?>
<!DOCTYPE svg PUBLIC "-//W3C//DTD SVG 20010904//EN"
 "http://www.w3.org/TR/2001/REC-SVG-20010904/DTD/svg10.dtd">
<svg version="1.0" xmlns="http://www.w3.org/2000/svg"
 width="286.000000pt" height="175.000000pt" viewBox="0 0 286.000000 175.000000"
 preserveAspectRatio="xMidYMid meet">
<metadata>
Created by potrace 1.16, written by Peter Selinger 2001-2019
</metadata>
<g transform="translate(0.000000,175.000000) scale(0.100000,-0.100000)"
fill="#000000" stroke="none">
<path d="M375 1572 c-11 -21 -34 -43 -53 -52 -56 -26 -52 -49 25 -152 102
-137 214 -300 210 -305 -1 -1 -67 3 -147 8 -102 7 -149 14 -160 24 -24 21 -57
18 -70 -6 -14 -24 -2 -296 12 -305 6 -4 22 3 37 13 14 11 42 23 61 26 19 3 58
10 85 16 28 5 101 10 163 10 l113 1 -12 -22 c-7 -13 -69 -80 -138 -149 -181
-180 -281 -285 -281 -294 0 -14 48 -53 95 -76 50 -25 77 -20 84 17 2 10 26 44
55 75 68 74 96 112 240 337 26 40 51 70 57 66 19 -11 60 -85 53 -95 -3 -6 4
-20 16 -31 21 -20 88 -154 96 -193 2 -11 8 -21 14 -23 5 -2 10 -7 10 -12 0 -5
5 -21 12 -37 6 -15 10 -35 9 -44 -1 -9 13 -29 31 -44 18 -15 36 -36 40 -46 10
-27 46 -25 50 2 2 17 29 35 108 75 58 30 112 54 121 54 9 0 19 3 22 6 4 4 28
15 54 24 27 9 102 36 168 60 66 23 154 53 195 65 84 26 274 91 305 104 11 5
65 26 120 46 55 20 116 43 135 50 142 55 158 60 262 70 46 4 72 12 80 23 7 9
30 25 51 35 40 18 45 39 11 46 -10 2 -37 16 -59 31 -47 32 -97 50 -137 50 -47
0 -340 116 -543 215 -104 51 -226 107 -270 125 -85 35 -156 67 -325 147 -134
64 -156 73 -182 73 -16 0 -19 -5 -15 -21 3 -12 -3 -35 -14 -52 -10 -18 -19
-41 -19 -53 0 -11 -13 -30 -29 -42 -26 -19 -61 -61 -248 -299 l-56 -73 -56 0
c-31 0 -61 4 -67 8 -5 4 -30 48 -54 97 -24 50 -71 137 -105 195 -64 113 -104
198 -112 243 -7 37 -24 34 -48 -11z m69 -124 c21 -40 77 -144 124 -231 46 -87
82 -161 78 -164 -9 -9 -44 25 -79 77 -17 25 -62 87 -101 139 -39 51 -81 108
-92 125 -12 17 -29 38 -38 46 -16 13 -15 16 21 46 21 19 40 33 43 34 3 0 23
-33 44 -72z m903 23 c43 -21 102 -49 131 -61 91 -39 51 -31 -96 19 -78 27
-147 51 -153 53 -18 6 -1 28 21 28 11 0 54 -18 97 -39z m-60 -41 c42 -12 83
-25 92 -29 9 -5 19 -9 24 -10 4 0 24 -8 45 -17 20 -8 91 -36 157 -61 66 -25
143 -56 170 -68 28 -13 75 -33 105 -45 30 -12 75 -31 99 -42 24 -11 104 -42
178 -70 73 -27 156 -62 184 -77 l50 -28 -83 -8 c-87 -8 -371 -8 -548 0 -58 3
-195 7 -305 11 -110 3 -201 7 -203 9 -10 9 114 283 141 313 17 18 19 27 10 40
-10 17 -19 18 -118 11 -22 -1 -56 1 -76 6 -30 6 -37 4 -44 -11 -6 -16 -11
-138 -14 -322 l-1 -34 -47 6 c-27 3 -79 8 -118 11 -38 4 -74 10 -78 14 -4 4
18 41 49 81 31 41 70 97 87 125 46 79 100 146 130 161 15 8 27 23 27 34 0 24
-6 24 87 0z m48 -137 c-4 -10 -31 -80 -60 -156 -29 -76 -55 -140 -57 -143 -3
-2 -13 -1 -23 2 -16 6 -17 19 -13 138 3 72 9 139 13 148 5 13 19 17 57 16 27
0 52 3 55 6 4 3 13 6 21 6 10 0 12 -6 7 -17z m-420 -180 c-25 -42 -63 -88 -69
-82 -4 4 74 109 82 109 2 0 -4 -12 -13 -27z m-368 -88 c48 -6 55 -10 88 -56
30 -42 42 -67 33 -70 -2 0 -75 -4 -163 -9 -146 -7 -164 -6 -204 11 -31 13 -42
23 -37 34 3 9 0 15 -8 15 -13 0 -17 80 -4 90 7 6 206 -5 295 -15z m133 -25 c0
-5 -2 -10 -4 -10 -3 0 -8 5 -11 10 -3 6 -1 10 4 10 6 0 11 -4 11 -10z m80 0
c12 -7 11 -12 -5 -30 l-19 -21 -13 23 c-7 13 -12 26 -13 31 0 10 32 9 50 -3z
m33 -55 c-30 -38 -46 -45 -41 -18 4 20 62 75 66 63 2 -5 -9 -25 -25 -45z m245
28 c76 -4 105 -10 109 -20 3 -8 2 -18 -3 -22 -5 -5 -82 -11 -171 -14 l-161 -5
26 39 c25 36 30 39 62 34 19 -3 82 -8 138 -12z m172 -20 c0 -17 -19 -35 -29
-29 -18 12 -12 36 9 36 11 0 20 -3 20 -7z m482 -10 c215 -6 258 -9 204 -15
-37 -5 -118 -5 -180 -1 -61 5 -194 6 -296 3 -102 -3 -186 -5 -188 -4 -1 1 1 9
4 19 6 16 17 17 95 12 48 -4 211 -10 361 -14z m801 10 c-7 -2 -19 -2 -25 0 -7
3 -2 5 12 5 14 0 19 -2 13 -5z m112 -10 c19 -15 18 -15 -20 -9 -22 3 -49 6
-60 7 -17 1 -16 2 5 9 38 12 53 11 75 -7z m-197 -18 c45 -3 88 -7 95 -10 6 -2
26 -6 42 -10 29 -7 29 -7 -25 -27 -30 -11 -109 -42 -175 -68 -289 -116 -469
-177 -700 -240 -66 -18 -147 -40 -180 -50 -123 -36 -241 -72 -280 -85 l-40
-13 -7 51 c-6 40 -2 79 18 167 46 204 54 234 67 242 16 10 211 13 527 8 88 -2
172 2 195 8 42 11 101 18 245 28 47 3 87 8 89 10 2 2 13 2 25 -1 12 -2 58 -7
104 -10z m-1272 -137 c-8 -112 -30 -229 -59 -321 -18 -57 -25 -67 -41 -65 -13
2 -23 13 -27 33 -9 41 -22 69 -69 145 -22 36 -45 76 -51 90 -6 14 -15 32 -20
40 -5 8 -22 41 -39 72 -16 31 -34 59 -40 63 -22 14 -8 24 38 27 26 2 107 4
181 6 l133 3 -6 -93z m41 47 c-12 -52 -25 -61 -20 -12 6 44 11 57 21 57 5 0 5
-20 -1 -45z m-463 16 c3 -5 -9 -28 -26 -52 -18 -24 -71 -102 -119 -174 -49
-71 -117 -161 -152 -198 l-65 -69 -31 17 -32 16 18 31 c10 17 28 37 39 45 12
8 33 31 47 52 14 22 77 92 139 157 63 66 124 134 137 152 23 32 35 39 45 23z
m605 -405 c-16 -15 -250 -107 -258 -101 -22 13 -11 27 17 22 17 -3 34 1 45 11
10 9 53 28 95 43 71 24 111 34 101 25z"/>
</g>
</svg>
