<?xml version="1.0" standalone="no"?>
<!DOCTYPE svg PUBLIC "-//W3C//DTD SVG 20010904//EN"
 "http://www.w3.org/TR/2001/REC-SVG-20010904/DTD/svg10.dtd">
<svg version="1.0" xmlns="http://www.w3.org/2000/svg"
 width="186.000000pt" height="178.000000pt" viewBox="0 0 186.000000 178.000000"
 preserveAspectRatio="xMidYMid meet">
<metadata>
Created by potrace 1.16, written by Peter Selinger 2001-2019
</metadata>
<g transform="translate(0.000000,178.000000) scale(0.100000,-0.100000)"
fill="#000000" stroke="none">
<path d="M1082 1675 c-24 -30 -59 -67 -78 -81 -32 -25 -40 -26 -112 -22 -44 3
-92 13 -113 23 -35 17 -38 17 -63 -1 l-26 -19 6 -115 c8 -144 4 -363 -6 -374
-3 -2 -39 0 -82 4 -52 6 -95 18 -137 39 -33 17 -66 31 -73 31 -7 0 -34 11 -60
25 -54 29 -75 31 -104 10 -19 -12 -22 -28 -28 -132 -10 -158 -10 -163 2 -175
13 -13 63 5 87 32 36 40 111 68 226 86 63 10 128 18 144 18 l30 1 -1 -60 c-3
-179 -14 -489 -20 -547 l-6 -67 -83 -55 c-45 -30 -111 -69 -147 -86 -60 -27
-78 -44 -78 -71 0 -19 29 -7 110 46 46 30 86 55 88 55 2 0 23 13 46 28 41 28
264 132 282 132 5 0 55 20 111 45 56 24 139 56 185 71 45 14 102 35 125 45 24
11 45 19 48 19 3 0 38 15 78 34 167 80 231 98 254 75 7 -7 18 -9 27 -6 17 7 8
52 -19 93 -8 13 -15 29 -15 35 0 7 -11 26 -24 43 -13 18 -31 54 -41 81 -9 28
-24 61 -33 75 -9 14 -32 54 -51 90 -18 36 -60 107 -92 158 -33 51 -73 118 -90
150 -17 31 -41 67 -52 80 -11 12 -18 22 -14 22 3 0 -18 33 -48 73 -30 39 -60
89 -65 110 -15 52 -37 48 -88 -18z m67 -34 c6 -10 36 -50 67 -87 31 -38 81
-109 110 -159 30 -49 75 -124 101 -165 172 -283 154 -292 -89 -48 -38 37 -68
72 -68 78 0 5 -5 10 -11 10 -11 0 -215 177 -259 224 l-25 27 75 69 c41 38 78
69 82 70 4 0 12 -8 17 -19z m-378 -95 c19 -7 60 -17 92 -21 31 -3 57 -8 57 -9
0 -1 -11 -34 -24 -72 -12 -38 -26 -95 -30 -127 -4 -32 -16 -82 -26 -111 -9
-29 -21 -71 -25 -94 -7 -41 -8 -42 -46 -42 l-39 0 2 245 c1 135 3 245 4 245 1
0 17 -6 35 -14z m303 -161 l107 -90 -58 -3 c-54 -3 -83 -14 -83 -32 0 -4 9
-10 19 -13 21 -5 21 -31 7 -247 -3 -41 -8 -138 -11 -215 -7 -174 -10 -190 -39
-203 -13 -6 -85 -51 -160 -101 -76 -50 -139 -91 -140 -91 -2 0 1 19 5 43 5 23
18 94 29 157 10 63 26 156 35 205 9 50 18 103 21 118 2 15 8 37 14 48 6 10 9
23 7 27 -3 4 -1 18 4 31 9 22 14 23 62 18 52 -5 97 5 97 21 0 4 -30 9 -67 10
-38 2 -71 6 -75 10 -4 4 2 41 13 82 11 41 26 104 33 140 21 107 49 184 66 178
4 -2 56 -43 114 -93z m136 -187 c-11 -25 -27 -78 -35 -119 -9 -41 -24 -99 -35
-129 -11 -30 -26 -80 -35 -110 -14 -53 -15 -47 -8 130 4 102 8 199 8 215 4 70
3 68 38 62 17 -3 41 -2 52 3 32 13 37 -3 15 -52z m196 -127 c63 -63 114 -117
114 -120 0 -3 -30 -28 -68 -54 -37 -26 -86 -62 -109 -80 -92 -71 -226 -169
-238 -173 -9 -4 -9 11 1 68 8 40 19 85 25 99 5 14 16 50 23 80 33 131 79 295
88 312 12 23 3 29 164 -132z m-1076 59 c22 -11 45 -20 52 -20 8 0 44 -13 81
-29 l68 -28 -61 -6 c-61 -5 -145 -40 -186 -78 -29 -27 -34 -24 -23 13 5 18 9
63 9 100 0 41 4 68 10 68 6 0 28 -9 50 -20z m464 -98 c3 -4 0 -28 -5 -53 -6
-24 -12 -56 -14 -71 -2 -15 -11 -50 -19 -78 -17 -57 -16 -52 -16 -86 0 -15 -4
-23 -11 -19 -6 4 -8 27 -5 60 3 29 6 92 7 140 0 49 3 94 6 102 6 14 49 18 57
5z m784 -144 c11 -24 29 -56 38 -73 31 -55 36 -67 27 -74 -4 -4 -42 -22 -83
-41 -41 -18 -102 -45 -135 -60 -33 -15 -71 -31 -85 -35 -14 -4 -29 -11 -35
-15 -5 -4 -51 -21 -101 -39 -90 -30 -413 -161 -446 -181 -10 -5 -21 -10 -25
-10 -5 0 24 21 62 46 145 96 225 144 241 144 9 0 28 12 43 28 37 38 68 62 129
101 30 19 59 39 65 45 7 7 28 22 47 35 19 14 47 36 63 50 27 25 157 118 168
120 3 1 15 -18 27 -41z"/>
</g>
</svg>
