<?xml version="1.0" standalone="no"?>
<!DOCTYPE svg PUBLIC "-//W3C//DTD SVG 20010904//EN"
 "http://www.w3.org/TR/2001/REC-SVG-20010904/DTD/svg10.dtd">
<svg version="1.0" xmlns="http://www.w3.org/2000/svg"
 width="315.000000pt" height="162.000000pt" viewBox="0 0 315.000000 162.000000"
 preserveAspectRatio="xMidYMid meet">
<metadata>
Created by potrace 1.16, written by Peter Selinger 2001-2019
</metadata>
<g transform="translate(0.000000,162.000000) scale(0.100000,-0.100000)"
fill="#000000" stroke="none">
<path d="M2174 1504 c-5 -22 -7 -44 -6 -51 2 -6 -2 -14 -7 -17 -13 -8 -1 -119
13 -128 6 -4 21 -5 33 -2 l22 6 -4 -120 c-3 -65 -5 -134 -5 -151 0 -18 -4 -31
-9 -29 -13 5 -228 215 -290 283 -30 33 -60 74 -67 90 -22 51 -64 76 -64 38 0
-7 -14 -36 -31 -63 -21 -35 -36 -49 -46 -46 -8 4 -19 3 -24 0 -11 -6 47 -64
65 -64 6 0 21 -7 34 -15 12 -9 48 -31 80 -49 62 -35 88 -54 137 -101 17 -16
59 -54 93 -84 34 -30 62 -57 62 -60 0 -8 -157 -121 -271 -194 -52 -34 -115
-78 -140 -98 -58 -49 -176 -112 -193 -106 -25 10 -27 -25 -4 -58 64 -90 123
-155 140 -155 12 0 23 11 29 28 5 15 64 79 130 142 66 63 157 153 202 198 45
46 99 97 119 113 l36 29 -4 -82 c-3 -46 -7 -89 -10 -96 -2 -8 1 -10 8 -6 8 5
8 3 2 -7 -5 -8 -10 -48 -10 -89 -2 -113 -7 -160 -16 -160 -23 0 -88 52 -88 70
0 26 -12 25 -35 0 -14 -16 -16 -23 -7 -32 12 -12 17 -100 6 -111 -13 -13 -13
-95 1 -113 12 -17 14 -18 32 -2 29 26 142 68 228 85 44 8 170 19 280 23 110 5
215 13 232 18 20 7 35 7 38 1 4 -5 28 -9 56 -9 60 0 66 20 13 39 -20 7 -57 34
-82 60 -25 25 -73 68 -106 94 -34 26 -125 109 -203 184 l-143 135 5 77 c3 42
8 87 11 101 6 26 109 127 269 264 50 42 102 88 116 101 14 14 30 25 36 25 6 0
18 11 26 23 9 13 29 30 46 37 17 7 31 16 31 21 0 5 14 9 30 9 17 0 30 4 30 9
0 6 -36 7 -92 3 -51 -4 -124 -6 -163 -5 -38 1 -135 2 -215 3 -131 2 -204 8
-312 26 -36 6 -37 6 -44 -32z m200 -24 c15 -5 9 -9 -27 -20 -46 -12 -63 -30
-30 -30 19 0 -54 -59 -74 -60 -6 0 -13 -5 -15 -12 -8 -24 -29 5 -26 37 1 19 0
37 -4 40 -3 4 -2 20 4 36 l10 29 71 -6 c40 -4 81 -10 91 -14z m464 -5 c3 -2
-7 -9 -22 -15 -15 -5 -47 -24 -71 -40 -24 -17 -46 -30 -50 -30 -5 0 -43 -32
-110 -95 -17 -16 -52 -47 -77 -67 -24 -21 -48 -41 -52 -45 -26 -26 47 226 74
258 11 12 17 25 15 30 -3 4 2 9 11 11 24 4 277 -2 282 -7z m53 4 c-16 -6 -28
-6 -35 1 -7 7 1 10 25 9 32 0 33 -1 10 -10z m-387 -36 c-9 -15 -32 -73 -50
-128 l-33 -100 2 120 c2 118 2 119 27 126 14 4 36 7 49 8 23 1 23 1 5 -26z
m-110 -115 c-4 -62 -7 -136 -8 -164 -1 -50 -3 -53 -61 -103 -33 -28 -63 -51
-67 -51 -3 0 -6 30 -5 67 1 45 -2 68 -10 70 -10 4 -10 8 1 18 9 10 13 34 11
77 -2 52 1 69 21 99 20 33 96 96 117 98 4 1 4 -50 1 -111z m356 43 c0 -5 -4
-11 -9 -13 -10 -4 -113 -93 -191 -165 -107 -99 -130 -116 -130 -95 0 7 121
122 210 199 25 21 57 44 73 51 15 6 27 16 27 22 0 5 5 10 10 10 6 0 10 -4 10
-9z m-799 -139 c64 -64 151 -149 192 -189 66 -63 73 -73 56 -78 -15 -5 -34 6
-78 47 -101 94 -206 178 -298 237 -47 30 -51 36 -41 55 16 32 29 46 42 46 6 0
63 -53 127 -118z m397 -229 c-44 -46 -67 -58 -82 -43 -8 9 -4 17 17 33 15 12
42 34 60 49 46 38 50 7 5 -39z m27 -64 c-2 -33 -5 -63 -7 -65 -3 -2 -17 10
-33 26 l-29 30 34 35 c19 19 35 35 36 35 1 0 0 -27 -1 -61z m-167 -45 c1 -13
-43 -62 -145 -159 -81 -77 -172 -165 -203 -195 -93 -93 -172 -160 -181 -154
-5 3 -9 16 -9 29 0 18 -11 32 -42 51 -40 26 -41 28 -23 41 45 31 155 106 228
155 42 28 77 55 77 59 0 4 8 10 18 13 10 4 27 15 39 25 11 10 37 30 59 45 71
47 89 60 122 89 37 31 56 31 60 1z m126 -19 c52 -46 42 -66 -11 -23 -23 18
-44 39 -47 46 -10 23 19 11 58 -23z m-34 -34 c66 -49 73 -60 66 -121 -3 -30
-8 -93 -12 -140 -4 -68 -10 -92 -30 -121 -30 -44 -30 -59 0 -59 18 0 23 -5 21
-17 -2 -10 -4 -18 -4 -19 -1 -1 -27 4 -58 10 l-58 12 1 139 c1 199 14 356 28
348 6 -4 27 -18 46 -32z m155 -78 l30 -36 -42 29 c-23 16 -42 34 -43 41 0 19
22 5 55 -34z m24 -68 c24 -19 47 -35 51 -35 5 0 40 -28 78 -62 39 -35 90 -78
114 -95 86 -63 140 -124 124 -141 -9 -8 -375 -14 -427 -6 l-37 5 5 157 c3 135
8 219 12 230 2 6 40 -19 80 -53z m-330 -312 c17 -10 34 -26 37 -35 7 -22 23
-23 38 -3 8 11 20 14 44 9 17 -4 32 -9 32 -13 0 -12 -180 -81 -211 -81 -5 0
-4 10 3 23 7 12 11 43 9 70 -3 52 2 56 48 30z m206 -53 c3 -5 1 -10 -4 -10 -6
0 -11 5 -11 10 0 6 2 10 4 10 3 0 8 -4 11 -10z"/>
<path d="M684 1274 c-14 -6 -6 -96 10 -106 7 -5 6 -8 -3 -8 -11 0 -13 -15 -8
-80 l6 -80 -72 0 c-40 0 -133 5 -207 12 -129 11 -138 13 -202 50 -36 21 -75
38 -86 38 -35 0 -52 -55 -51 -171 0 -57 -1 -113 -3 -124 -5 -33 28 -29 70 9
21 20 41 33 44 31 3 -3 11 1 18 10 7 8 17 15 23 15 5 0 34 12 63 26 62 30 99
41 214 60 106 17 158 18 173 2 8 -9 13 -65 15 -158 2 -80 5 -156 7 -170 12
-85 18 -110 26 -110 5 0 9 11 9 24 0 13 7 29 15 36 8 7 15 10 15 7 0 -3 24 1
53 10 58 17 59 17 206 33 57 6 105 9 107 7 2 -2 0 -46 -6 -98 -13 -122 -13
-246 0 -254 6 -3 13 2 16 12 3 10 11 29 18 43 8 14 16 50 19 82 8 87 49 219
72 234 12 8 67 15 142 19 128 6 171 -3 235 -47 14 -10 30 -18 35 -18 5 0 21
35 37 78 64 173 78 187 138 137 29 -24 58 -33 58 -17 0 4 -16 24 -36 43 -20
18 -40 42 -46 52 -10 20 -8 22 111 144 44 44 50 54 30 49 -13 -4 -53 -38 -89
-75 l-66 -69 -21 77 c-12 42 -27 105 -34 141 -17 97 -16 95 -38 76 -16 -14
-35 -16 -142 -11 -68 3 -227 8 -354 11 -303 7 -356 10 -485 29 -14 2 -30 2
-36 -1z m129 -46 c31 -2 57 -7 57 -12 0 -5 -8 -23 -19 -40 -10 -17 -31 -64
-46 -103 -23 -60 -32 -73 -50 -73 -19 0 -24 7 -30 48 -10 60 -14 152 -8 175 3
11 11 16 21 13 9 -3 43 -6 75 -8z m584 -12 c3 -3 -3 -6 -15 -6 -11 0 -24 -5
-27 -11 -5 -7 13 -9 58 -7 103 5 68 -9 -40 -17 -142 -10 -367 -41 -450 -63
-81 -21 -84 -18 -52 43 37 72 29 70 287 69 128 -1 235 -4 239 -8z m243 -46 c0
-5 -15 -17 -33 -29 -72 -44 -95 -91 -45 -91 39 0 148 -82 181 -137 9 -15 -63
-96 -136 -155 l-49 -38 -154 0 c-85 0 -154 4 -154 9 0 15 62 146 81 170 11 13
17 26 15 28 -2 2 -49 6 -104 9 -123 6 -129 1 -111 -79 13 -62 5 -131 -15 -124
-7 3 -39 8 -72 12 -32 4 -72 11 -89 15 -16 5 -54 10 -83 11 -39 2 -60 9 -83
29 -31 25 -31 26 -19 70 7 25 15 52 18 60 3 8 7 20 7 25 2 10 10 33 25 72 5
12 22 28 37 36 48 25 289 70 438 82 77 7 287 34 291 38 7 7 54 -5 54 -13z m59
-22 c4 -13 11 -44 15 -69 4 -26 13 -55 21 -65 26 -35 15 -36 -24 -2 -22 18
-57 42 -78 53 -21 10 -40 21 -43 23 -6 4 81 81 93 82 4 0 11 -10 16 -22z
m-1542 -100 c20 -32 90 -56 183 -64 84 -6 91 -8 60 -16 -97 -25 -121 -35 -197
-75 -96 -51 -106 -53 -93 -17 6 14 10 58 10 98 0 40 3 76 7 79 10 11 21 8 30
-5z m613 -74 c0 -3 -10 -40 -22 -82 l-23 -77 -5 70 c-4 62 -3 71 15 82 22 14
35 16 35 7z m526 -76 c-3 -7 -20 -50 -38 -96 -32 -79 -34 -82 -62 -80 l-30 3
1 79 c1 84 5 92 43 99 54 10 92 7 86 -5z m386 -171 c-27 -74 -28 -76 -42 -54
-31 46 -30 51 18 94 26 23 48 40 50 39 1 -2 -10 -37 -26 -79z m-822 17 c68
-13 178 -31 238 -38 12 -2 26 -6 29 -10 16 -16 -23 -28 -143 -46 -71 -10 -156
-26 -189 -34 -32 -9 -62 -16 -66 -16 -3 0 -3 19 2 43 4 23 8 62 9 86 0 40 2
43 23 36 12 -3 56 -13 97 -21z m340 -54 c12 -8 9 -10 -13 -10 -16 0 -26 4 -22
10 8 12 16 12 35 0z m157 4 c-3 -3 -12 -4 -19 -1 -8 3 -5 6 6 6 11 1 17 -2 13
-5z m40 0 c-3 -3 -12 -4 -19 -1 -8 3 -5 6 6 6 11 1 17 -2 13 -5z m-205 -49 c5
-5 -38 -165 -48 -174 -6 -7 3 128 12 157 6 20 24 29 36 17z"/>
</g>
</svg>
