<?xml version="1.0" standalone="no"?>
<!DOCTYPE svg PUBLIC "-//W3C//DTD SVG 20010904//EN"
 "http://www.w3.org/TR/2001/REC-SVG-20010904/DTD/svg10.dtd">
<svg version="1.0" xmlns="http://www.w3.org/2000/svg"
 width="232.000000pt" height="150.000000pt" viewBox="0 0 232.000000 150.000000"
 preserveAspectRatio="xMidYMid meet">
<metadata>
Created by potrace 1.16, written by Peter Selinger 2001-2019
</metadata>
<g transform="translate(0.000000,150.000000) scale(0.100000,-0.100000)"
fill="#000000" stroke="none">
<path d="M741 1285 c-26 -25 -58 -45 -70 -45 -11 0 -21 -4 -21 -9 0 -4 -14
-24 -30 -42 -34 -38 -49 -81 -32 -87 7 -2 12 -9 12 -17 0 -7 12 -15 28 -18 37
-8 127 -69 127 -87 0 -8 -11 -17 -25 -20 -16 -4 -24 -12 -22 -23 4 -23 -20
-22 -102 4 -37 11 -75 17 -86 14 -28 -9 -186 47 -210 74 -3 3 -16 12 -29 19
-20 12 -26 12 -37 0 -22 -22 -34 -107 -23 -165 7 -36 7 -59 -1 -72 -16 -30
-12 -59 9 -66 13 -4 45 12 101 49 133 90 232 112 330 74 14 -6 53 -11 87 -13
59 -3 65 -2 105 31 24 20 79 74 124 120 90 96 90 96 191 55 29 -11 87 -29 130
-40 78 -20 138 -45 148 -61 3 -4 38 -20 78 -35 90 -34 204 -89 237 -115 23
-17 23 -21 10 -35 -9 -8 -43 -24 -75 -36 -33 -11 -112 -47 -175 -80 -173 -88
-279 -139 -340 -161 -30 -12 -77 -33 -105 -48 -62 -34 -117 -46 -108 -25 3 10
-2 15 -16 15 -15 0 -21 6 -21 24 0 13 -11 40 -25 60 -32 48 -32 71 3 89 15 8
59 34 97 58 60 37 79 44 135 47 62 3 67 2 100 -30 44 -42 81 -68 97 -68 24 0
13 38 -17 63 -16 14 -30 28 -30 31 0 3 37 5 83 3 45 -1 87 2 94 6 25 16 2 33
-45 33 -180 3 -183 3 -181 22 1 9 -1 29 -5 43 -4 15 -1 42 9 70 30 81 30 79 1
79 -15 0 -38 -7 -52 -16 -13 -9 -53 -27 -86 -39 -34 -12 -64 -27 -66 -33 -1
-5 22 -23 53 -38 30 -16 55 -31 55 -35 0 -4 8 -15 17 -25 16 -16 14 -16 -40
-10 -31 3 -82 9 -113 12 -37 4 -64 14 -76 26 -17 17 -24 18 -44 9 -22 -10 -23
-15 -18 -68 6 -72 -3 -133 -21 -133 -7 0 -27 -12 -44 -26 l-31 -26 -138 6
c-191 10 -242 15 -280 33 -24 12 -41 13 -65 7 -29 -9 -33 -15 -43 -67 -7 -31
-11 -93 -9 -138 3 -95 15 -116 59 -99 15 5 25 14 22 18 -3 5 4 18 14 30 11 12
20 25 20 29 0 14 88 84 130 104 25 12 63 19 114 20 84 2 101 -5 72 -27 -27
-19 -18 -24 29 -15 69 13 85 -5 38 -43 -38 -29 -149 -94 -200 -117 -24 -10
-43 -22 -43 -26 0 -11 70 -83 80 -83 21 0 40 14 40 29 0 19 36 63 124 154 56
57 60 59 73 41 8 -10 23 -19 35 -19 12 0 23 -5 25 -11 4 -13 -96 -103 -169
-153 -52 -35 -59 -50 -27 -58 11 -3 24 -16 29 -28 5 -14 21 -26 39 -30 41 -9
53 0 41 30 -7 19 -5 33 11 60 12 19 25 35 30 35 5 0 11 11 15 25 3 14 23 38
43 54 l36 29 45 -39 c25 -21 50 -39 56 -39 6 0 31 21 56 48 24 26 65 63 91 82
71 53 96 77 89 86 -4 4 -1 4 6 -1 8 -4 25 0 40 12 15 11 48 28 75 38 26 10 47
21 47 24 0 6 19 15 90 42 19 7 60 28 90 46 30 18 59 33 63 33 4 0 38 14 75 31
47 22 67 28 70 19 8 -23 123 -150 136 -150 7 0 23 -11 36 -25 27 -28 58 -33
67 -9 5 15 -29 52 -89 96 -15 12 -19 20 -12 25 17 13 34 49 34 76 0 13 9 53
20 88 15 46 31 73 57 95 34 30 38 54 9 54 -16 0 -109 -71 -175 -132 -50 -47
-95 -57 -121 -27 -22 26 -80 55 -210 108 -158 65 -301 151 -376 226 -45 46
-71 64 -98 69 -28 5 -36 4 -36 -8 0 -8 5 -18 10 -21 15 -9 12 -35 -3 -29 -7 2
-39 -13 -70 -35 l-57 -40 -44 42 c-41 40 -74 110 -67 145 3 15 -17 42 -31 42
-5 0 -31 -20 -57 -45z m44 -35 c3 -5 1 -10 -4 -10 -6 0 -11 5 -11 10 0 6 2 10
4 10 3 0 8 -4 11 -10z m-32 -41 c12 -7 49 -40 84 -74 68 -67 68 -64 1 -107
-33 -22 -54 -23 -62 -3 -3 8 -12 15 -19 15 -19 0 -57 89 -57 133 0 49 12 57
53 36z m438 -105 c30 -20 49 -35 44 -33 -63 24 -105 46 -105 57 0 17 2 16 61
-24z m-531 12 c0 -8 -9 -13 -24 -12 -18 1 -22 4 -14 14 14 16 38 15 38 -2z
m230 -111 c-13 -14 -28 -25 -33 -25 -6 0 0 11 13 25 13 14 28 25 33 25 6 0 0
-11 -13 -25z m-585 -46 c4 -5 29 -20 56 -32 l50 -22 -56 -29 c-31 -16 -57 -27
-59 -25 -2 2 -6 30 -10 62 -5 53 3 73 19 46z m511 -32 c1 -9 -2 -19 -7 -23 -5
-3 -9 2 -9 10 0 9 -5 16 -11 16 -5 0 -7 5 -4 11 9 14 28 6 31 -14z m368 -42
c3 -9 -1 -18 -10 -22 -19 -7 -26 0 -18 21 8 20 20 21 28 1z m771 -62 c-16 -38
-23 -108 -11 -115 7 -5 6 -8 -3 -8 -19 0 -61 40 -61 58 0 12 66 82 78 82 2 0
1 -8 -3 -17z m-967 -91 c9 -6 5 -12 -14 -21 -27 -12 -43 -4 -44 22 0 9 42 9
58 -1z m-611 -199 c53 -7 60 -16 30 -36 -12 -8 -39 -31 -59 -53 -21 -21 -39
-36 -42 -33 -5 5 -8 59 -7 108 1 27 4 32 18 27 9 -4 37 -10 60 -13z m453 -18
c0 -23 -2 -24 -21 -15 -20 11 -20 12 -2 25 24 19 23 19 23 -10z m257 -120
c-15 -14 -33 -25 -39 -25 -14 0 -6 8 29 31 39 25 43 22 10 -6z m-487 -110 c-7
-8 -18 -15 -24 -15 -6 0 -2 7 8 15 25 19 32 19 16 0z"/>
<path d="M1345 610 c-3 -5 3 -10 14 -10 12 0 21 5 21 10 0 6 -6 10 -14 10 -8
0 -18 -4 -21 -10z"/>
</g>
</svg>
