<?xml version="1.0" standalone="no"?>
<!DOCTYPE svg PUBLIC "-//W3C//DTD SVG 20010904//EN"
 "http://www.w3.org/TR/2001/REC-SVG-20010904/DTD/svg10.dtd">
<svg version="1.0" xmlns="http://www.w3.org/2000/svg"
 width="120.000000pt" height="94.000000pt" viewBox="0 0 120.000000 94.000000"
 preserveAspectRatio="xMidYMid meet">
<metadata>
Created by potrace 1.16, written by Peter Selinger 2001-2019
</metadata>
<g transform="translate(0.000000,94.000000) scale(0.100000,-0.100000)"
fill="#000000" stroke="none">
<path d="M517 862 c-20 -22 -22 -39 -4 -45 9 -3 9 -7 0 -19 -9 -10 -9 -18 -2
-25 7 -7 5 -50 -6 -136 -8 -69 -15 -129 -15 -134 0 -4 -57 -6 -127 -5 -125 4
-193 18 -193 41 0 13 -36 15 -44 3 -2 -4 -6 -70 -8 -147 -4 -173 2 -177 94
-81 39 40 74 67 93 71 17 4 48 15 70 25 22 10 54 20 72 24 30 5 33 3 37 -27 3
-18 7 -75 10 -129 5 -101 12 -126 54 -170 21 -23 34 -28 74 -28 47 0 50 2 66
38 9 20 29 53 44 73 15 19 32 59 38 90 6 30 15 74 20 99 5 25 12 58 14 74 9
51 24 58 147 63 63 2 118 8 123 14 6 5 36 9 68 9 45 0 58 3 58 15 0 12 -13 15
-58 15 -31 0 -72 -4 -91 -10 -18 -5 -78 -12 -132 -16 l-99 -7 4 59 c3 32 10
90 16 128 6 38 8 71 5 74 -2 3 0 11 6 18 6 8 8 25 5 39 l-6 25 -159 0 c-140 0
-160 -2 -174 -18z m227 -130 c-2 -124 -29 -294 -60 -382 -14 -41 -28 -92 -31
-112 -8 -63 -44 -76 -58 -21 -3 16 -13 35 -21 44 -21 23 -38 215 -25 281 5 29
13 85 16 123 9 98 15 136 19 144 3 3 40 7 83 8 l78 2 -1 -87z m-488 -266 c32
-2 84 -5 114 -6 l55 -1 -66 -23 c-83 -30 -104 -41 -156 -84 l-43 -34 -1 48 c0
27 -3 60 -5 74 -7 37 2 53 24 41 10 -5 45 -12 78 -15z"/>
</g>
</svg>
