<?xml version="1.0" standalone="no"?>
<!DOCTYPE svg PUBLIC "-//W3C//DTD SVG 20010904//EN"
 "http://www.w3.org/TR/2001/REC-SVG-20010904/DTD/svg10.dtd">
<svg version="1.0" xmlns="http://www.w3.org/2000/svg"
 width="338.000000pt" height="202.000000pt" viewBox="0 0 338.000000 202.000000"
 preserveAspectRatio="xMidYMid meet">
<metadata>
Created by potrace 1.16, written by Peter Selinger 2001-2019
</metadata>
<g transform="translate(0.000000,202.000000) scale(0.100000,-0.100000)"
fill="#000000" stroke="none">
<path d="M3140 1911 c-18 -12 -103 -24 -151 -23 -46 2 -69 -20 -41 -40 23 -16
38 -94 19 -101 -6 -2 -20 0 -31 5 -20 11 -53 8 -196 -15 -180 -29 -245 -36
-330 -35 -47 1 -150 -2 -230 -6 -80 -4 -208 -9 -285 -11 -77 -1 -190 -6 -251
-10 -80 -6 -113 -5 -118 4 -14 21 -34 11 -42 -21 -4 -18 -8 -60 -8 -93 l-1
-60 -65 1 c-495 4 -584 4 -593 -5 -5 -5 -10 -44 -10 -88 l-2 -78 -259 2 c-198
2 -275 7 -324 19 -57 14 -66 15 -79 1 -15 -14 -52 -144 -58 -199 -1 -16 -3
-32 -4 -37 0 -5 -10 -13 -21 -16 -26 -8 -26 -35 1 -35 11 0 27 -7 35 -15 18
-18 44 -9 44 16 0 14 18 24 84 44 90 27 176 48 293 70 39 8 84 20 100 28 15 8
64 20 108 27 44 6 97 15 117 20 l38 8 -33 -40 c-17 -21 -41 -50 -51 -63 l-19
-24 39 -42 c72 -78 206 -201 252 -231 39 -25 102 -101 102 -122 0 -16 5 -17
33 -12 52 11 138 24 197 30 30 3 80 8 110 11 30 2 114 10 185 16 72 6 148 12
170 14 22 2 96 7 165 10 102 4 202 12 265 20 14 1 142 15 195 20 25 3 99 7
165 11 66 3 133 10 149 15 16 5 57 9 92 9 34 0 74 4 87 9 22 9 24 7 19 -11 -4
-18 -2 -20 19 -15 13 4 34 7 46 7 12 0 28 7 36 15 13 13 16 11 25 -13 6 -15
14 -49 17 -77 4 -27 14 -63 23 -80 8 -16 17 -49 18 -73 2 -24 9 -62 15 -84 6
-23 15 -65 20 -92 15 -82 16 -87 37 -171 38 -150 46 -170 70 -173 27 -4 27 -6
3 71 -26 84 -35 127 -22 107 7 -10 13 -12 20 -5 7 7 6 25 -3 57 -13 40 -12 49
1 67 11 17 12 28 4 54 -6 17 -14 64 -19 102 -5 45 -12 69 -20 68 -6 -2 -14 9
-17 25 -4 15 -10 45 -16 67 -5 22 -13 86 -19 143 -5 56 -24 170 -40 252 -24
115 -31 176 -30 258 0 59 0 172 -1 252 0 80 4 169 10 199 6 29 11 58 11 62 0
12 -31 11 -50 0z m4 -83 c-5 -24 -9 -153 -9 -288 0 -246 5 -303 45 -505 11
-55 20 -122 21 -150 0 -27 4 -71 8 -97 9 -55 -2 -64 -18 -15 -9 31 -24 111
-22 122 1 3 -5 18 -12 33 -8 15 -17 55 -21 90 -4 34 -14 81 -22 105 -9 23 -19
71 -24 107 -4 36 -13 101 -18 145 -6 44 -16 127 -22 185 -6 58 -18 142 -27
188 -9 45 -14 85 -11 87 5 6 108 33 127 34 11 1 12 -8 5 -41z m-319 -150 c11
0 55 2 98 4 75 4 77 3 77 -19 0 -13 -3 -23 -7 -23 -3 0 -74 -13 -157 -29 -83
-16 -214 -34 -291 -39 -133 -10 -359 -41 -473 -64 -52 -11 -68 -35 -21 -31 77
6 207 25 296 42 56 11 137 22 180 26 169 12 212 17 325 36 85 15 122 18 136
10 23 -12 35 -48 20 -57 -14 -9 -145 -31 -228 -39 -164 -15 -518 -63 -608 -81
-41 -8 -86 -17 -100 -19 -41 -5 -62 -16 -62 -31 0 -17 5 -17 50 -4 19 6 49 12
67 15 18 2 58 9 90 14 132 23 485 70 573 76 52 3 115 11 140 16 57 13 90 -2
90 -42 0 -26 -3 -28 -67 -37 -38 -6 -156 -24 -263 -41 -182 -27 -386 -57 -455
-66 -54 -7 -169 -25 -212 -34 l-43 -8 0 81 c0 55 7 104 21 151 12 39 23 75 24
81 2 6 54 19 117 28 62 9 156 25 208 36 90 17 171 31 215 36 11 1 40 7 65 12
25 6 74 8 110 5 36 -3 74 -5 85 -5z m-560 -28 c-55 -10 -131 -24 -170 -31 -38
-7 -78 -16 -88 -21 -10 -5 -48 -11 -85 -14 -37 -3 -134 -20 -217 -39 -82 -19
-156 -34 -163 -32 -9 1 -15 20 -16 54 -3 52 -3 53 28 57 49 8 323 25 531 34
287 13 293 12 180 -8z m-284 -138 c-13 -25 -27 -137 -30 -236 -1 -22 -4 -37
-7 -33 -8 7 -31 119 -44 211 -5 39 -15 75 -20 80 -8 8 6 14 47 21 51 9 58 8
61 -7 2 -9 -1 -25 -7 -36z m-155 -6 c-3 -14 -8 -98 -11 -187 -3 -90 -7 -165
-10 -167 -2 -2 -6 11 -9 29 -2 19 -12 81 -22 139 -9 58 -19 122 -21 143 -7 49
-33 51 -33 3 0 -19 5 -47 10 -62 6 -15 20 -92 30 -171 11 -79 22 -154 24 -166
2 -12 7 -40 11 -62 3 -22 8 -50 11 -62 4 -20 0 -23 -30 -23 -33 0 -35 2 -41
38 -6 40 -11 66 -23 122 -9 45 -9 416 0 425 9 9 65 23 97 24 20 1 22 -3 17
-23z m-150 -53 c-3 -27 -7 -103 -8 -170 -3 -123 -10 -148 -21 -70 -3 24 -14
66 -23 93 -9 26 -17 77 -18 113 -1 70 -1 70 67 80 5 0 6 -20 3 -46z m205 -49
c5 -38 14 -86 20 -107 6 -21 10 -66 9 -100 -1 -34 0 -73 3 -87 2 -14 7 -45 12
-70 4 -25 11 -52 15 -60 4 -8 10 -27 14 -43 6 -27 6 -27 -38 -25 -25 0 -50 4
-56 8 -6 4 -20 51 -31 104 -18 89 -18 99 -4 110 13 9 17 43 22 184 6 181 17
207 34 86z m-511 54 c-25 -5 -72 -16 -105 -24 -33 -9 -78 -20 -99 -25 -21 -5
-66 -19 -100 -30 -34 -12 -68 -22 -76 -24 -8 -2 -37 -9 -63 -15 -57 -15 -65
-10 -72 50 -9 76 1 78 304 77 172 -1 241 -4 211 -9z m202 -19 c5 -33 -11 -51
-142 -163 -59 -50 -337 -236 -353 -236 -5 0 -16 -8 -23 -17 -11 -16 -13 -15
-20 11 -9 37 -1 45 206 178 52 34 97 65 98 70 2 4 10 8 18 8 8 0 14 3 14 8 0
4 16 16 36 27 19 10 50 36 69 56 18 21 43 43 55 49 12 7 19 18 16 26 -3 8 1
14 8 14 8 0 16 -14 18 -31z m-128 -47 c-27 -26 -79 -65 -114 -87 -35 -22 -82
-52 -104 -67 -23 -15 -48 -31 -56 -35 -8 -3 -34 -19 -57 -35 -23 -15 -46 -28
-51 -28 -5 0 -17 -9 -27 -20 -22 -24 -31 -25 -39 -4 -9 24 4 36 112 104 54 33
131 84 172 114 90 64 168 106 195 106 16 0 9 -10 -31 -48z m-119 8 c-3 -5 -11
-10 -17 -10 -6 0 -34 -18 -62 -39 -28 -22 -100 -71 -161 -109 -97 -62 -111
-68 -122 -53 -17 23 -16 24 137 109 25 14 61 38 80 52 49 37 161 76 145 50z
m1716 -63 c4 -16 10 -62 12 -103 3 -41 10 -80 16 -87 6 -8 8 -16 5 -20 -3 -3
-1 -14 4 -24 6 -10 13 -48 17 -84 l7 -66 -104 -7 c-56 -4 -231 -11 -388 -17
-157 -5 -357 -12 -446 -16 l-160 -5 -16 48 -16 49 77 17 c42 9 159 27 261 39
102 12 212 26 245 30 33 4 94 11 135 14 87 7 188 20 280 38 48 9 66 17 68 30
4 22 -11 22 -101 -2 -39 -11 -164 -29 -277 -40 -487 -51 -632 -70 -671 -91
-22 -12 -39 13 -39 59 0 28 3 31 33 31 17 0 75 7 127 16 78 12 303 41 460 59
19 2 76 9 125 15 50 7 106 14 125 16 164 21 205 30 205 44 0 11 -10 14 -40 12
-37 -3 -344 -48 -390 -57 -11 -2 -60 -7 -110 -9 -104 -6 -211 -21 -310 -42
-80 -17 -216 -33 -227 -27 -14 7 -9 33 10 52 12 13 50 23 127 35 61 9 137 21
170 26 33 6 94 14 135 19 41 5 127 18 190 29 63 11 162 25 220 32 58 7 110 14
115 15 6 2 34 3 64 2 51 -2 55 -4 62 -30z m-1451 6 c0 -11 -32 -41 -76 -73
-42 -30 -81 -59 -88 -65 -6 -5 -63 -49 -126 -97 -63 -48 -135 -105 -160 -127
-51 -47 -56 -49 -65 -21 -9 27 -2 36 70 83 34 23 95 65 135 92 39 28 89 61
110 75 21 14 70 53 109 88 75 65 91 73 91 45z m-500 -7 c0 -5 -142 -98 -143
-94 -1 2 -8 14 -15 26 -7 13 -11 26 -8 29 2 3 40 13 83 23 43 10 79 18 81 19
1 0 2 -1 2 -3z m-373 -50 c2 -2 -19 -9 -47 -15 -28 -6 -63 -17 -78 -25 -15 -7
-65 -21 -112 -30 -47 -9 -105 -23 -130 -31 -25 -8 -79 -21 -120 -29 -78 -14
-97 -9 -84 24 3 8 8 33 11 55 2 22 6 45 8 51 3 10 542 11 552 0z m867 -33
c-16 -13 -52 -37 -80 -53 -29 -16 -93 -67 -143 -114 -50 -47 -120 -106 -156
-131 -36 -26 -65 -53 -65 -61 0 -7 6 -11 13 -8 10 3 14 -5 15 -27 l1 -32 -31
30 c-22 23 -28 36 -23 52 6 19 172 161 282 241 26 19 57 43 67 53 11 9 23 17
28 17 4 0 28 16 54 35 51 39 86 37 38 -2z m-657 -83 c7 -29 87 -195 105 -219
7 -9 -11 4 -39 29 -87 76 -117 104 -144 137 l-26 32 36 40 c33 37 37 39 49 23
7 -9 16 -28 19 -42z m650 3 c-23 -18 -45 -33 -48 -33 -4 0 -37 -30 -74 -66
-92 -88 -179 -154 -204 -154 -32 0 -25 15 27 57 26 20 81 69 122 108 41 39 91
78 110 87 19 10 48 26 65 37 48 33 50 3 2 -36z m-8 -72 c-29 -25 -66 -58 -81
-73 -16 -16 -32 -28 -36 -28 -4 0 -13 -9 -20 -20 -27 -43 19 -19 104 56 48 41
90 72 93 67 12 -14 40 -137 37 -158 -3 -19 -12 -20 -164 -23 -101 -1 -162 1
-162 7 0 6 16 23 37 38 20 15 48 40 62 54 67 66 175 151 179 139 2 -6 -20 -33
-49 -59z m138 -173 c-3 -8 -6 -5 -6 6 -1 11 2 17 5 13 3 -3 4 -12 1 -19z m958
-28 c4 -6 -22 -11 -67 -12 -135 -4 -295 -16 -361 -29 -73 -13 -247 -23 -247
-13 1 26 22 31 145 32 72 1 157 5 190 8 52 5 141 12 297 21 20 1 40 -2 43 -7z
m-923 -20 c31 1 66 -5 77 -12 16 -10 23 -10 33 0 11 11 108 18 108 8 0 -2 2
-11 6 -19 4 -11 -12 -15 -78 -21 -46 -3 -103 -8 -128 -11 -195 -23 -351 -38
-441 -42 l-106 -5 -7 32 c-12 63 -9 69 37 73 23 2 132 3 242 1 110 -2 226 -4
257 -4z m1547 -448 l-1 -57 -12 55 c-12 57 -11 74 5 65 5 -4 9 -32 8 -63z"/>
<path d="M3009 1076 c-2 -2 -62 -6 -134 -10 -156 -7 -497 -43 -685 -71 -52 -8
-115 -16 -139 -17 -26 -2 -46 -8 -49 -16 -3 -11 14 -12 89 -7 52 3 126 11 164
16 111 16 122 18 265 33 134 15 298 26 437 30 40 1 76 5 79 9 14 14 -12 47
-27 33z"/>
<path d="M1548 997 c-47 -32 -61 -57 -33 -57 8 0 24 8 34 18 11 9 31 25 45 35
28 19 34 37 14 36 -7 0 -34 -15 -60 -32z"/>
<path d="M1608 982 c-30 -18 -36 -32 -15 -32 17 0 57 29 57 41 0 12 -10 10
-42 -9z"/>
</g>
</svg>
