<?xml version="1.0" standalone="no"?>
<!DOCTYPE svg PUBLIC "-//W3C//DTD SVG 20010904//EN"
 "http://www.w3.org/TR/2001/REC-SVG-20010904/DTD/svg10.dtd">
<svg version="1.0" xmlns="http://www.w3.org/2000/svg"
 width="158.000000pt" height="162.000000pt" viewBox="0 0 158.000000 162.000000"
 preserveAspectRatio="xMidYMid meet">
<metadata>
Created by potrace 1.16, written by Peter Selinger 2001-2019
</metadata>
<g transform="translate(0.000000,162.000000) scale(0.100000,-0.100000)"
fill="#000000" stroke="none">
<path d="M280 1453 c-17 -35 -24 -69 -28 -138 -5 -109 2 -119 56 -77 79 61
101 69 287 96 99 15 191 32 205 36 22 8 125 18 398 37 93 7 88 11 73 -78 -6
-30 -12 -73 -15 -95 -3 -23 -18 -93 -34 -155 -28 -110 -41 -176 -77 -394 -9
-55 -23 -122 -30 -150 -7 -27 -16 -73 -20 -102 -4 -28 -12 -71 -19 -95 l-13
-43 -94 -1 c-52 0 -152 -2 -224 -3 -71 -2 -136 -3 -142 -2 -18 1 -16 26 2 41
9 7 14 15 11 17 -2 2 5 29 15 58 10 30 19 60 19 67 1 7 9 31 20 53 11 22 19
46 20 52 0 7 18 54 40 105 22 51 40 97 40 102 0 9 18 51 91 213 15 34 37 70
48 80 39 33 15 67 -30 42 -27 -14 -129 -13 -143 1 -14 14 -43 13 -52 -2 -5 -7
-7 -26 -6 -43 3 -33 -14 -152 -28 -200 -5 -16 -12 -61 -15 -100 -8 -85 -30
-207 -55 -295 -10 -36 -21 -83 -24 -105 -10 -71 -13 -80 -22 -80 -35 1 -119
18 -135 28 -27 17 -36 1 -43 -68 -18 -211 -19 -222 -7 -230 7 -4 20 0 29 8 23
19 29 21 280 88 122 32 261 63 310 70 48 6 113 18 144 26 43 12 81 14 160 9
120 -7 138 -1 113 38 -17 26 -18 26 -144 26 -116 0 -127 2 -126 17 3 26 15 75
25 98 4 11 13 50 19 87 6 37 31 118 55 180 74 194 135 365 144 405 10 40 80
218 105 266 8 16 24 35 36 43 29 20 26 31 -10 53 -23 14 -45 18 -81 15 -27 -2
-57 1 -68 8 -14 9 -22 9 -32 0 -20 -16 -288 -15 -488 2 -91 8 -223 15 -295 15
-72 0 -146 5 -165 11 -52 15 -55 14 -80 -37z m510 -18 c19 -2 51 -5 70 -6 37
-2 29 -3 -175 -29 -49 -6 -97 -13 -105 -14 -80 -14 -101 -19 -105 -26 -3 -4
-14 -6 -24 -3 -11 3 -47 -9 -80 -26 -70 -35 -69 -35 -50 61 l11 55 212 -4
c116 -2 227 -5 246 -8z m623 -36 c35 -10 37 -12 24 -27 -20 -22 -80 -176 -146
-368 -74 -220 -107 -286 -80 -164 5 25 14 74 19 110 6 36 21 101 34 145 14 44
30 123 37 175 19 149 23 154 112 129z m-573 -352 c0 -7 -4 -17 -9 -22 -5 -6
-16 -30 -25 -55 -8 -25 -41 -106 -72 -180 -31 -74 -62 -151 -70 -170 -15 -40
-18 -23 -5 35 5 22 12 72 16 110 3 39 12 97 20 130 14 58 23 111 24 148 1 14
11 17 61 17 43 0 60 -4 60 -13z m-193 -489 c-3 -8 -6 -5 -6 6 -1 11 2 17 5 13
3 -3 4 -12 1 -19z m-82 -310 c17 -1 132 2 258 6 154 5 227 4 227 -3 0 -12 -20
-17 -96 -26 -28 -3 -122 -24 -210 -46 -232 -59 -274 -69 -322 -76 l-43 -6 6
37 c7 32 9 53 14 115 1 10 15 12 69 7 37 -4 81 -8 97 -8z"/>
</g>
</svg>
