<?xml version="1.0" standalone="no"?>
<!DOCTYPE svg PUBLIC "-//W3C//DTD SVG 20010904//EN"
 "http://www.w3.org/TR/2001/REC-SVG-20010904/DTD/svg10.dtd">
<svg version="1.0" xmlns="http://www.w3.org/2000/svg"
 width="184.000000pt" height="188.000000pt" viewBox="0 0 184.000000 188.000000"
 preserveAspectRatio="xMidYMid meet">
<metadata>
Created by potrace 1.16, written by Peter Selinger 2001-2019
</metadata>
<g transform="translate(0.000000,188.000000) scale(0.100000,-0.100000)"
fill="#000000" stroke="none">
<path d="M1490 1726 c-8 -8 -44 -24 -80 -36 -36 -12 -92 -35 -125 -51 -33 -15
-80 -35 -105 -44 -24 -9 -52 -23 -62 -32 -32 -29 -28 -40 76 -217 12 -21 21
-48 19 -60 -5 -26 49 -103 81 -116 35 -13 126 15 176 55 8 6 41 22 73 35 31
12 57 26 57 30 0 4 18 15 40 24 41 16 48 32 30 64 -6 9 -24 55 -40 101 -17 46
-39 94 -50 108 -10 13 -26 48 -36 76 -21 67 -35 82 -54 63z m-4 -83 c9 -27 48
-107 55 -113 10 -8 67 -133 74 -162 6 -24 1 -29 -55 -62 -33 -20 -67 -36 -75
-36 -8 0 -17 -5 -20 -10 -4 -6 -28 -21 -54 -34 l-47 -24 -40 21 c-34 20 -42
31 -64 97 -14 41 -37 96 -52 123 -43 76 -43 84 -6 103 57 30 252 113 266 114
7 0 15 -8 18 -17z"/>
<path d="M640 1577 c-41 -12 -185 -102 -203 -126 -6 -9 -39 -34 -72 -55 -75
-49 -165 -137 -165 -162 0 -11 9 -33 20 -51 25 -41 105 -67 286 -93 153 -22
472 -27 597 -9 43 6 80 9 83 6 3 -2 -7 -18 -21 -35 -14 -16 -25 -33 -25 -37 0
-4 -9 -18 -19 -31 -11 -14 -32 -57 -47 -97 -15 -40 -44 -106 -65 -148 -21 -43
-44 -99 -50 -125 -7 -27 -19 -59 -27 -71 -21 -34 -33 -228 -15 -272 7 -18 13
-40 13 -48 0 -31 61 -91 129 -127 80 -42 144 -49 160 -17 6 10 8 21 6 23 -3 3
2 22 12 44 9 21 17 41 17 44 1 5 88 160 107 190 5 8 21 40 35 70 70 151 87
188 101 225 39 106 93 222 144 310 97 168 105 179 129 185 28 7 39 35 17 43
-7 3 -51 -3 -98 -13 -114 -25 -313 -58 -434 -74 -112 -14 -637 -19 -672 -5
l-22 8 31 83 c17 46 41 121 54 168 13 47 30 105 38 129 29 80 23 89 -44 68z
m20 -33 c0 -3 -9 -24 -19 -47 -18 -39 -25 -63 -53 -172 -5 -22 -24 -74 -42
-115 -31 -72 -33 -75 -68 -78 -35 -3 -146 25 -188 48 -11 6 -27 22 -36 35 -15
23 -15 27 0 49 26 41 245 217 313 253 60 31 93 41 93 27z m1017 -426 c-51 -88
-156 -295 -172 -338 -9 -25 -21 -54 -25 -65 -5 -11 -21 -49 -36 -85 -14 -36
-34 -76 -43 -90 -10 -14 -27 -44 -39 -67 -11 -23 -25 -50 -30 -60 -5 -10 -19
-40 -32 -68 -12 -27 -42 -82 -66 -122 -24 -40 -44 -77 -44 -82 0 -5 -7 -14
-15 -21 -24 -20 -130 47 -177 113 -26 37 -47 169 -37 239 11 74 61 223 107
315 22 43 45 96 52 118 16 49 69 132 106 166 31 28 49 32 274 64 63 9 122 18
130 20 8 1 28 3 43 4 l29 1 -25 -42z"/>
</g>
</svg>
