<?xml version="1.0" standalone="no"?>
<!DOCTYPE svg PUBLIC "-//W3C//DTD SVG 20010904//EN"
 "http://www.w3.org/TR/2001/REC-SVG-20010904/DTD/svg10.dtd">
<svg version="1.0" xmlns="http://www.w3.org/2000/svg"
 width="350.000000pt" height="200.000000pt" viewBox="0 0 350.000000 200.000000"
 preserveAspectRatio="xMidYMid meet">
<metadata>
Created by potrace 1.16, written by Peter Selinger 2001-2019
</metadata>
<g transform="translate(0.000000,200.000000) scale(0.100000,-0.100000)"
fill="#000000" stroke="none">
<path d="M990 1938 c-25 -5 -73 -7 -108 -5 -51 4 -67 1 -87 -15 -29 -22 -31
-35 -11 -57 11 -12 14 -55 16 -176 3 -246 0 -269 -45 -315 -50 -51 -108 -65
-224 -56 -47 4 -111 9 -141 11 -57 3 -163 38 -191 61 -48 42 -68 -3 -68 -151
0 -112 1 -123 23 -150 l24 -30 34 19 c18 11 57 35 86 53 47 30 52 36 41 51
-11 14 -11 15 0 5 10 -8 24 -6 61 13 32 16 65 24 99 24 55 0 105 19 114 45 7
17 37 21 37 5 0 -5 -4 -10 -8 -10 -5 0 -30 -19 -56 -43 l-48 -43 154 -145 c84
-80 200 -185 258 -234 58 -49 123 -106 145 -126 22 -21 66 -57 97 -81 31 -24
81 -67 112 -95 l56 -52 -68 -60 c-146 -130 -309 -264 -345 -282 -26 -14 -37
-26 -35 -37 6 -29 38 -16 163 66 67 44 159 99 205 122 47 24 101 56 120 71 39
29 101 60 171 83 25 8 61 23 80 34 19 11 58 28 87 38 28 10 52 21 52 26 0 4
11 3 25 -2 28 -11 39 0 41 42 1 17 -7 37 -22 51 -13 13 -31 39 -39 58 -8 19
-19 41 -24 49 -5 8 -17 34 -27 58 -19 46 -37 53 -54 22 -17 -32 -30 -14 -30
40 0 27 -5 61 -10 75 -6 15 -12 54 -14 88 -2 34 -7 74 -11 88 -4 15 -2 30 3
33 13 7 4 42 -13 56 -10 8 -25 2 -62 -26 -26 -20 -66 -45 -87 -55 -33 -15 -40
-23 -43 -52 -3 -27 1 -37 14 -41 10 -3 28 -21 40 -38 12 -18 33 -44 45 -58 24
-27 100 -127 112 -148 11 -18 -44 -88 -136 -172 -122 -112 -111 -108 -166 -64
-82 67 -182 163 -182 175 0 9 -23 35 -112 130 -22 24 -34 46 -32 56 3 11 -14
46 -40 85 -25 37 -52 81 -61 98 -24 46 -67 219 -65 260 0 19 1 44 1 55 0 10 5
25 10 32 8 9 7 20 -3 40 -18 37 -7 84 43 191 21 45 39 88 39 94 0 6 12 1 26
-13 24 -23 25 -27 22 -134 -2 -86 0 -114 12 -127 18 -22 29 -23 45 -2 20 28
95 34 519 40 l409 6 -6 -123 c-4 -67 -7 -156 -7 -197 l0 -75 -57 6 c-106 11
-166 25 -158 36 9 16 -25 43 -39 32 -15 -13 -19 -127 -7 -183 7 -31 6 -48 -5
-69 -28 -56 -8 -65 55 -25 21 14 55 32 75 40 20 8 36 19 36 24 0 6 20 12 44
13 l44 4 2 -150 c1 -160 6 -198 24 -192 7 2 12 37 12 95 1 62 -2 90 -9 85 -6
-4 -7 -1 -2 7 5 8 8 45 7 82 l-2 69 87 -3 88 -3 0 -40 c0 -22 -4 -68 -8 -102
-7 -52 -5 -63 6 -63 27 0 39 29 44 110 4 46 11 84 19 91 18 15 100 8 96 -9 -8
-42 -27 -212 -24 -221 7 -21 32 -11 37 17 4 15 10 46 16 69 5 23 9 61 9 85 0
24 4 49 8 55 5 8 37 14 85 15 42 2 77 3 77 3 -1 0 -30 -224 -30 -233 0 -7 5
-10 10 -7 21 13 39 64 50 145 6 47 17 88 23 93 7 4 40 6 75 5 l64 -3 -6 -40
c-2 -22 -6 -51 -8 -64 -2 -13 3 -26 9 -28 15 -5 31 33 35 81 1 19 6 32 10 30
4 -3 8 1 8 9 0 11 22 13 118 11 64 -2 132 -6 151 -10 24 -5 32 -3 27 5 -5 7
-1 9 8 5 9 -3 16 -1 16 5 0 11 121 17 131 6 3 -2 2 -35 -3 -72 -14 -129 -19
-253 -10 -253 24 0 36 36 38 112 2 81 14 124 14 50 0 -38 13 -62 27 -48 4 3 8
37 10 74 4 95 11 129 28 136 20 7 19 26 -1 26 -14 0 -15 7 -9 43 4 23 9 62 11
87 2 25 10 81 18 125 22 123 29 192 17 180 -14 -14 -39 -116 -52 -215 -6 -47
-15 -96 -19 -110 -8 -23 -8 -22 -9 10 0 19 4 53 9 75 13 53 21 132 25 235 1
47 3 88 4 92 1 4 11 8 23 10 30 4 35 34 9 43 -18 5 -20 13 -16 48 2 23 4 56 4
73 1 27 5 32 34 37 17 3 41 9 51 13 16 6 18 4 12 -12 -17 -39 -76 -250 -76
-269 0 -32 19 -4 46 71 14 38 27 76 29 84 2 8 8 28 14 43 6 16 9 33 5 38 -3 5
-1 9 4 9 5 0 15 11 22 25 7 14 19 25 27 25 8 0 13 11 13 29 l0 28 -57 -19
c-32 -10 -64 -18 -73 -17 -8 1 -39 1 -67 0 -40 -1 -53 -5 -53 -16 0 -9 6 -18
14 -21 20 -8 29 -56 21 -113 l-7 -49 -126 -6 c-70 -3 -164 -9 -209 -12 -81 -5
-81 -5 -76 18 13 60 48 156 65 180 11 16 16 32 13 38 -3 5 -42 9 -85 9 -91 -1
-89 1 -78 -99 4 -36 7 -83 7 -106 l1 -41 -51 -11 c-68 -16 -69 -16 -60 16 5
15 14 56 21 91 6 36 20 82 31 102 10 21 16 40 11 42 -4 3 -38 8 -75 12 -96 10
-97 8 -95 -132 0 -70 5 -110 10 -105 8 8 17 97 18 173 0 21 30 33 44 19 5 -5
18 -10 28 -10 14 0 16 -4 9 -22 -4 -13 -11 -45 -15 -73 -17 -129 -15 -125 -46
-125 -16 0 -31 6 -34 13 -4 8 -8 8 -11 1 -5 -9 -92 -11 -101 -2 -2 2 13 59 33
126 20 67 34 125 31 127 -3 3 -37 7 -76 10 -86 5 -90 1 -90 -100 0 -38 0 -89
-1 -112 l-1 -43 -45 0 c-25 0 -45 4 -45 9 0 4 11 53 25 109 38 152 38 149 -42
154 -38 3 -73 1 -80 -4 -7 -6 -10 -45 -8 -122 1 -63 -1 -119 -5 -126 -5 -7
-20 -9 -44 -5 -34 7 -42 15 -36 40 1 6 4 26 6 45 2 19 12 64 24 99 16 51 18
66 8 73 -20 12 -176 7 -187 -6 -6 -7 -6 -50 0 -120 6 -59 8 -110 5 -113 -5 -6
-299 15 -341 23 -11 3 -53 9 -94 14 -40 5 -112 16 -160 24 -86 15 -142 23
-256 35 l-60 6 3 38 c3 32 1 37 -17 37 -11 0 -26 -11 -33 -25 -9 -15 -18 -21
-26 -16 -12 7 -6 17 89 142 20 26 24 40 17 52 -10 19 -13 19 -78 5z m-10 -78
c0 -6 -15 -33 -34 -60 -30 -44 -53 -88 -83 -160 l-11 -25 -9 24 c-5 13 -7 42
-3 65 3 22 5 66 5 96 -1 30 3 58 8 61 16 11 127 10 127 -1z m1092 -101 c-16
-170 -15 -164 -46 -167 -16 -2 -32 0 -36 5 -5 4 -10 48 -12 97 -3 89 -3 90 22
96 14 4 36 6 50 5 22 -2 25 -7 22 -36z m211 11 c-1 -14 -8 -61 -15 -105 -14
-79 -14 -80 -45 -83 -30 -3 -30 -3 -25 40 3 24 5 74 4 111 l0 68 41 -3 c38 -3
42 -5 40 -28z m182 0 l23 0 -19 -87 c-28 -124 -27 -123 -56 -123 -25 0 -25 0
-19 68 11 127 17 154 33 148 8 -3 25 -6 38 -6z m412 -22 c-35 -148 -44 -173
-59 -176 -14 -3 -15 8 -11 85 6 112 6 113 44 113 27 0 31 -3 26 -22z m-1602
-108 c158 -27 313 -44 590 -65 43 -3 80 -7 81 -8 1 -1 4 -11 6 -22 3 -20 -4
-20 -402 -26 -223 -4 -431 -10 -462 -14 l-58 -8 0 75 c0 78 9 98 45 98 11 0
101 -14 200 -30z m775 -94 c0 -21 -17 -29 -46 -22 -38 10 -30 36 11 36 24 0
35 -5 35 -14z m118 -3 c-2 -14 -14 -18 -46 -19 -35 -1 -42 2 -42 17 0 16 8 19
46 19 38 0 45 -3 42 -17z m71 -9 c-8 -10 -16 -11 -31 -3 -25 13 -7 29 23 22
15 -4 17 -8 8 -19z m117 4 c3 -4 -15 -8 -40 -8 -25 0 -46 5 -46 10 0 12 79 10
86 -2z m909 -65 c-4 -43 -8 -98 -10 -123 -2 -42 -12 -110 -22 -155 -2 -11 -6
-45 -9 -75 -10 -111 6 -101 -162 -99 -81 2 -171 -1 -200 -5 -29 -4 -66 -5 -81
-1 -27 6 -28 8 -21 38 9 31 29 168 35 237 4 38 30 144 40 160 3 6 0 10 -7 10
-9 0 -10 3 -2 8 6 4 14 17 18 28 6 20 14 22 94 23 48 0 113 4 144 7 52 6 60 4
78 -17 l20 -24 23 26 c20 24 39 36 60 38 5 1 6 -34 2 -76z m-842 60 c-7 -2
-21 -2 -30 0 -10 3 -4 5 12 5 17 0 24 -2 18 -5z m217 -22 c-1 -9 -7 -45 -16
-81 -15 -69 -17 -77 -33 -125 -9 -29 -9 -29 -12 -5 -3 29 -2 40 6 100 4 25 7
59 8 75 1 17 5 35 9 41 11 16 38 13 38 -5z m133 10 c9 -1 18 -9 18 -18 1 -17
2 -17 6 0 2 9 12 17 21 17 12 0 13 -3 4 -12 -7 -7 -12 -21 -12 -32 0 -17 -2
-18 -10 -6 -7 11 -9 8 -9 -15 0 -16 -4 -52 -10 -80 -6 -27 -20 -108 -31 -180
-29 -187 -23 -175 -84 -175 -64 0 -93 8 -100 27 -3 8 -1 11 4 8 6 -4 10 6 10
22 0 15 7 55 15 89 8 33 17 83 21 110 3 27 12 65 19 84 8 19 19 60 25 90 18
84 16 81 57 76 21 -3 46 -5 56 -5z m-533 -45 l9 -21 7 22 c5 19 13 22 48 21
23 0 61 3 85 7 l44 7 -7 -28 c-11 -53 -14 -136 -4 -126 5 5 11 26 13 46 2 20
9 52 15 71 11 34 13 35 67 35 l55 0 -6 -77 c-2 -43 -7 -123 -11 -178 -3 -55
-11 -129 -17 -163 -11 -64 -11 -64 -41 -58 -16 3 -54 6 -84 6 l-55 0 7 58 c7
59 8 89 6 132 -1 14 -1 36 -1 50 0 13 -5 29 -10 34 -7 7 -10 -13 -10 -59 0
-39 -8 -99 -18 -135 -17 -58 -22 -65 -46 -68 -16 -2 -41 2 -57 8 -26 11 -29
18 -31 59 -2 46 -2 64 1 111 1 14 0 78 -2 143 -2 64 1 117 5 117 5 0 6 4 3 10
-3 6 1 7 10 3 9 -3 21 -15 25 -27z m-79 -65 c2 -208 -5 -318 -21 -335 -5 -5
-38 -5 -75 -1 l-66 7 6 46 c3 26 8 55 11 65 7 21 -12 23 -20 1 -3 -9 -6 -32
-6 -51 0 -20 -3 -34 -6 -30 -6 6 -6 194 0 312 3 56 5 60 29 63 26 3 26 3 22
-60 -5 -63 7 -57 18 8 9 55 14 59 62 56 l45 -4 1 -77z m-1358 -252 c-16 -19
-11 -35 36 -114 45 -77 61 -96 74 -88 6 3 7 1 3 -6 -4 -6 1 -23 12 -39 11 -15
21 -39 24 -54 4 -23 3 -26 -12 -18 -10 5 -71 61 -136 123 -66 63 -145 138
-176 167 l-58 53 43 30 c23 17 71 57 107 89 l64 59 16 -93 c14 -78 14 -96 3
-109z m-543 146 c40 -20 81 -27 152 -26 37 0 70 -4 73 -9 4 -6 -7 -10 -23 -10
-42 0 -96 -25 -180 -83 -40 -27 -74 -48 -76 -46 -6 7 -22 189 -17 195 5 5 36
-4 71 -21z m1579 -235 c40 -6 76 -8 79 -6 10 11 33 -25 27 -43 -4 -14 -19 -19
-73 -24 -83 -7 -99 -13 -106 -40 -7 -29 -17 -16 -28 40 -19 91 -18 93 5 88 12
-2 55 -9 96 -15z m-243 -90 c4 -36 10 -75 15 -87 13 -36 -7 -36 -36 -1 -14 18
-34 42 -44 53 -17 19 -50 76 -37 64 4 -3 23 9 43 27 44 40 49 36 59 -56z m495
60 c52 0 59 -2 59 -20 0 -18 -7 -20 -69 -20 -39 0 -73 5 -76 10 -5 8 -11 7
-21 -1 -11 -9 -14 -8 -14 5 0 10 5 14 10 11 6 -3 13 1 16 10 4 9 13 14 21 11
8 -3 41 -6 74 -6z m179 -11 c64 -14 55 -29 -16 -29 -47 0 -54 2 -54 20 0 23 2
24 70 9z m229 -25 c2 -2 -30 -4 -73 -4 -42 0 -75 4 -72 9 5 8 135 3 145 -5z
m-812 -311 c9 9 53 -53 53 -74 0 -10 18 -33 40 -52 35 -30 55 -58 31 -43 -8 6
-121 -33 -158 -54 -10 -5 -54 -24 -98 -41 -44 -18 -95 -43 -113 -57 -33 -24
-240 -142 -249 -142 -3 0 -18 -9 -34 -21 -16 -11 -29 -16 -29 -10 0 6 4 11 10
11 5 0 17 8 27 18 10 10 43 38 73 62 64 53 350 335 350 346 0 5 14 23 32 41
24 25 35 30 45 21 7 -6 16 -8 20 -5z"/>
<path d="M2357 1453 c-2 -5 0 -21 4 -38 7 -29 7 -29 8 8 1 35 -3 46 -12 30z"/>
<path d="M2230 1420 c0 -11 2 -20 4 -20 2 0 6 9 9 20 3 11 1 20 -4 20 -5 0 -9
-9 -9 -20z"/>
<path d="M2400 1310 c0 -11 2 -20 4 -20 2 0 6 9 9 20 3 11 1 20 -4 20 -5 0 -9
-9 -9 -20z"/>
</g>
</svg>
