<?xml version="1.0" standalone="no"?>
<!DOCTYPE svg PUBLIC "-//W3C//DTD SVG 20010904//EN"
 "http://www.w3.org/TR/2001/REC-SVG-20010904/DTD/svg10.dtd">
<svg version="1.0" xmlns="http://www.w3.org/2000/svg"
 width="244.000000pt" height="156.000000pt" viewBox="0 0 244.000000 156.000000"
 preserveAspectRatio="xMidYMid meet">
<metadata>
Created by potrace 1.16, written by Peter Selinger 2001-2019
</metadata>
<g transform="translate(0.000000,156.000000) scale(0.100000,-0.100000)"
fill="#000000" stroke="none">
<path d="M1615 1440 c-40 -42 -102 -83 -114 -76 -6 4 -6 17 1 37 19 54 -4 56
-68 5 -68 -53 -100 -60 -90 -21 3 14 9 36 12 50 9 34 -8 32 -53 -7 -21 -18
-53 -41 -71 -52 l-34 -18 4 28 c4 37 -20 43 -73 18 -22 -9 -42 -14 -46 -11 -3
4 -14 0 -24 -9 -17 -15 -17 -19 5 -78 l22 -63 -26 -31 c-15 -18 -30 -32 -35
-32 -12 0 0 182 14 209 7 12 10 29 7 38 -6 13 -9 13 -29 1 -12 -8 -46 -21 -75
-28 -53 -14 -95 -45 -76 -58 5 -4 23 -38 39 -76 17 -39 31 -73 33 -76 2 -5
-418 -3 -424 3 -5 5 58 142 73 160 15 16 15 19 1 34 -15 14 -20 14 -57 -1 -23
-9 -58 -16 -79 -16 -21 0 -46 -6 -55 -13 -15 -10 -16 -17 -6 -45 15 -43 4
-102 -19 -102 -9 1 -42 9 -72 20 -30 11 -60 19 -65 20 -25 0 -65 -110 -84
-233 -12 -71 3 -77 89 -33 39 19 77 33 84 30 8 -3 17 -1 21 5 3 6 18 11 33 11
l27 0 -2 -171 c-3 -170 3 -209 31 -209 11 0 14 38 15 197 1 108 3 198 4 199 1
1 27 4 57 8 30 3 84 10 120 15 72 12 180 14 180 5 0 -3 -23 -27 -52 -52 -127
-113 -140 -132 -92 -132 35 0 151 -101 240 -209 107 -131 199 -237 262 -303
166 -177 210 -218 230 -218 13 0 31 16 51 46 17 25 31 49 31 54 0 11 102 222
111 230 3 3 13 27 24 54 10 28 31 68 47 90 16 23 36 52 45 66 23 33 82 107
112 139 13 14 40 49 61 76 56 76 253 260 303 284 71 35 69 63 -5 74 -21 3 -60
17 -89 31 -28 14 -61 26 -74 26 -19 0 -22 4 -18 21 5 17 2 20 -13 18 -12 -3
-32 -32 -57 -84 -21 -44 -44 -83 -50 -87 -7 -4 -34 -8 -60 -8 l-48 0 18 30
c10 17 32 45 50 63 18 18 33 35 33 40 0 14 -37 7 -54 -11 -9 -11 -33 -24 -54
-30 -20 -6 -55 -29 -77 -51 -22 -22 -42 -40 -45 -41 -3 0 -2 42 2 93 12 127
15 149 23 170 12 28 -18 21 -50 -13z m-161 -72 c-4 -12 -19 -35 -35 -50 -27
-28 -28 -28 -39 -9 -9 17 -6 23 18 35 16 8 34 22 41 30 19 22 24 20 15 -6z
m125 -50 l-33 -30 -8 22 c-5 13 -7 24 -6 24 2 1 19 15 38 31 l35 28 3 -23 c3
-15 -7 -32 -29 -52z m-426 19 c-3 -18 -12 -38 -19 -46 -11 -12 -15 -10 -24 14
-6 15 -13 32 -16 36 -5 9 47 39 58 33 4 -3 5 -19 1 -37z m140 -103 l-8 -48
-14 44 c-7 25 -19 58 -26 75 -11 28 -10 31 19 51 l31 22 3 -48 c2 -26 -1 -69
-5 -96z m-311 101 c-1 -11 -4 -39 -5 -62 -1 -24 -3 -43 -5 -43 -2 0 -14 25
-28 57 -20 44 -22 58 -12 65 23 15 53 5 50 -17z m-462 -13 c0 -2 -8 -22 -19
-45 -10 -23 -21 -50 -24 -59 -4 -10 -13 -18 -22 -18 -12 0 -15 13 -15 63 l0
62 40 0 c22 1 40 -1 40 -3z m703 -79 l25 -63 -34 0 c-32 0 -33 1 -29 38 2 20
4 50 4 66 1 37 3 34 34 -41z m281 32 c4 -14 1 -35 -6 -48 -12 -22 -12 -22 -18
8 -12 61 10 97 24 40z m570 -35 c25 -7 46 -16 46 -20 0 -4 -51 -59 -113 -121
-62 -63 -138 -143 -169 -179 -31 -36 -67 -78 -82 -95 l-26 -30 12 30 c7 17 19
41 29 55 14 21 91 176 94 190 6 23 30 60 40 60 21 0 36 22 23 37 -8 10 -4 27
18 72 l29 58 26 -22 c15 -12 47 -28 73 -35z m-721 30 c3 -11 1 -23 -4 -26 -5
-3 -9 6 -9 20 0 31 6 34 13 6z m93 3 c-3 -10 -7 -33 -8 -51 -2 -30 -4 -31 -15
-16 -16 22 -16 39 -1 64 16 25 31 26 24 3z m152 -71 l-4 -27 -16 35 c-15 31
-15 36 1 56 l16 22 3 -29 c2 -16 2 -42 0 -57z m131 9 c-12 -16 -28 -32 -36
-35 -7 -3 1 12 18 34 37 46 52 47 18 1z m-349 -16 c0 -18 -5 -25 -20 -25 -24
0 -25 8 -3 32 21 23 23 23 23 -7z m-270 0 c0 -8 -9 -15 -20 -15 -17 0 -19 2
-8 15 17 19 28 19 28 0z m430 -16 c0 -5 -10 -9 -21 -9 -18 0 -19 2 -9 15 12
15 30 12 30 -6z m-1185 -19 c-2 -4 6 -6 18 -6 18 1 23 -5 25 -36 2 -27 -1 -38
-10 -38 -8 0 -49 -12 -92 -26 -43 -14 -79 -24 -81 -22 -2 2 21 85 40 144 2 8
18 8 54 1 27 -6 48 -14 46 -17z m598 -19 c8 -8 -4 -11 -40 -11 -28 0 -133 -9
-233 -20 -101 -11 -184 -19 -186 -18 -1 2 0 15 3 30 l5 27 112 4 c173 5 328
-1 339 -12z m163 8 c3 -5 -14 -9 -38 -9 -28 0 -38 3 -29 9 17 11 60 11 67 0z
m112 4 c-10 -2 -26 -2 -35 0 -10 3 -2 5 17 5 19 0 27 -2 18 -5z m182 -19 c0
-3 -16 -22 -35 -42 l-35 -37 0 37 c0 30 4 37 23 41 36 7 47 7 47 1z m141 -3
c4 -1 9 -7 12 -15 5 -14 -61 -111 -70 -102 -2 2 -6 30 -9 62 l-5 59 33 -2 c18
-1 36 -2 39 -2z m109 -6 c-7 -9 -15 -13 -17 -11 -7 7 7 26 19 26 6 0 6 -6 -2
-15z m158 -52 c-16 -37 -62 -130 -101 -208 -40 -77 -81 -160 -92 -184 -11 -24
-35 -67 -53 -95 -41 -62 -72 -130 -72 -158 0 -11 -20 -59 -45 -106 -25 -47
-45 -94 -45 -104 0 -27 -14 -20 -47 24 -126 166 -175 234 -217 303 -27 44 -51
82 -55 85 -12 9 -51 69 -51 78 0 4 -9 18 -20 30 -12 12 -19 22 -16 22 2 0 -15
36 -39 81 -28 52 -39 79 -29 75 40 -15 65 -17 78 -7 11 10 18 7 33 -14 44 -63
50 -68 64 -59 8 4 19 9 24 9 6 1 23 7 38 15 24 11 27 18 23 44 -5 29 -4 29 11
-6 17 -41 42 -50 50 -18 7 25 29 26 42 1 8 -14 20 -19 48 -17 58 3 64 10 47
53 -12 28 -13 45 -5 77 5 22 7 44 5 48 -6 10 14 38 26 38 4 0 13 -28 20 -61
11 -53 11 -64 -1 -73 -21 -17 -21 -34 1 -46 11 -6 20 -8 20 -6 0 3 16 -3 35
-14 28 -16 40 -18 55 -10 22 12 27 40 8 40 -6 0 -4 8 6 19 22 25 41 18 57 -20
10 -26 17 -30 43 -27 26 2 32 8 34 31 2 16 -2 34 -8 42 -17 20 -6 128 16 158
17 23 26 26 81 27 l62 0 -31 -67z m-603 27 c-14 -16 -20 -17 -27 -8 -13 22 -9
28 19 28 26 0 26 0 8 -20z m-72 -32 c5 -36 2 -45 -23 -70 -31 -31 -40 -34 -40
-15 0 6 -11 35 -24 64 -13 28 -22 54 -18 57 3 3 26 6 52 6 l47 0 6 -42z m-233
-3 c-35 -36 -53 -35 -44 2 5 20 21 28 63 32 9 0 0 -14 -19 -34z m390 -55 c-4
-8 -20 -26 -34 -39 l-25 -24 -12 27 c-10 22 -10 34 0 64 23 63 31 67 57 25 14
-24 19 -43 14 -53z m-333 52 c-10 -10 -17 -33 -17 -50 0 -18 -4 -32 -8 -32
-10 0 -32 21 -32 31 0 13 51 69 62 69 6 0 4 -8 -5 -18z m616 -32 c-10 -9 -19
-13 -21 -9 -5 12 21 38 31 32 5 -3 0 -13 -10 -23z m-753 -30 c0 -5 14 -33 31
-62 18 -29 54 -96 81 -148 28 -52 74 -132 104 -178 30 -45 54 -86 54 -90 -1
-8 -11 3 -147 169 -56 68 -124 141 -151 162 -80 60 -80 60 -31 112 41 44 59
55 59 35z m323 -54 c-6 -10 -13 -12 -23 -6 -12 7 -11 12 5 30 17 18 21 19 23
6 2 -8 0 -22 -5 -30z m-113 2 c0 -6 -7 -7 -16 -4 -9 3 -20 6 -25 6 -5 0 -9 4
-9 9 0 4 11 6 25 3 14 -2 25 -9 25 -14z m290 7 c0 -9 -6 -12 -15 -9 -8 4 -12
10 -9 15 8 14 24 10 24 -6z"/>
</g>
</svg>
