<?xml version="1.0" standalone="no"?>
<!DOCTYPE svg PUBLIC "-//W3C//DTD SVG 20010904//EN"
 "http://www.w3.org/TR/2001/REC-SVG-20010904/DTD/svg10.dtd">
<svg version="1.0" xmlns="http://www.w3.org/2000/svg"
 width="202.000000pt" height="104.000000pt" viewBox="0 0 202.000000 104.000000"
 preserveAspectRatio="xMidYMid meet">
<metadata>
Created by potrace 1.16, written by Peter Selinger 2001-2019
</metadata>
<g transform="translate(0.000000,104.000000) scale(0.100000,-0.100000)"
fill="#000000" stroke="none">
<path d="M843 701 c-13 -11 -23 -25 -23 -33 0 -7 -17 -31 -37 -53 l-36 -39
-52 58 c-60 67 -48 64 -235 51 -69 -5 -156 -10 -195 -11 -38 -1 -78 -2 -87 -3
-26 -2 -22 -36 5 -48 22 -10 40 -10 130 1 157 19 272 26 275 16 2 -5 28 -26
58 -46 34 -23 54 -43 52 -52 -2 -9 -30 -38 -63 -64 -33 -27 -63 -55 -68 -64
-17 -31 3 -26 55 13 129 96 121 92 146 75 12 -8 22 -22 22 -31 0 -9 -34 -53
-75 -98 -41 -45 -75 -84 -75 -87 0 -26 106 53 129 96 20 39 61 59 89 44 l22
-12 -28 -29 c-69 -73 -112 -134 -101 -141 7 -4 40 24 84 72 l72 78 26 -17 c15
-9 33 -30 41 -46 9 -16 23 -32 33 -35 18 -7 294 -8 363 -1 19 2 114 6 210 10
96 3 179 10 185 16 6 6 4 38 -7 92 -10 45 -15 91 -13 102 2 11 4 39 4 63 1 35
4 42 21 42 14 0 20 7 20 21 0 21 -2 21 -97 13 -116 -9 -93 -9 -365 1 -221 8
-239 6 -200 -27 14 -12 62 -15 294 -14 l277 1 4 -100 c3 -55 6 -116 8 -135 l4
-35 -140 -7 c-77 -3 -229 -7 -338 -8 l-199 -1 -42 39 c-23 22 -49 42 -57 44
-10 4 10 30 65 86 46 47 74 82 67 86 -17 11 -42 -8 -100 -73 -57 -65 -66 -69
-96 -47 -17 12 -13 18 53 87 40 41 72 77 72 82 0 4 -8 7 -18 7 -9 0 -46 -31
-81 -69 -62 -67 -65 -69 -87 -55 -42 28 -39 45 19 99 56 52 81 88 70 99 -12
11 -38 6 -60 -13z"/>
</g>
</svg>
