<?xml version="1.0" standalone="no"?>
<!DOCTYPE svg PUBLIC "-//W3C//DTD SVG 20010904//EN"
 "http://www.w3.org/TR/2001/REC-SVG-20010904/DTD/svg10.dtd">
<svg version="1.0" xmlns="http://www.w3.org/2000/svg"
 width="225.000000pt" height="124.000000pt" viewBox="0 0 225.000000 124.000000"
 preserveAspectRatio="xMidYMid meet">
<metadata>
Created by potrace 1.16, written by Peter Selinger 2001-2019
</metadata>
<g transform="translate(0.000000,124.000000) scale(0.100000,-0.100000)"
fill="#000000" stroke="none">
<path d="M605 951 c-3 -5 -1 -60 5 -123 5 -62 10 -126 10 -141 l0 -28 -66 3
c-36 1 -67 5 -70 9 -2 4 -30 17 -61 29 -32 13 -69 31 -83 40 -31 21 -127 35
-144 21 -9 -8 -10 -30 -4 -86 4 -43 4 -104 -2 -142 -5 -37 -7 -70 -4 -75 13
-21 46 -5 144 73 89 70 118 82 203 85 l77 2 0 -164 c0 -90 3 -164 7 -164 4 0
20 5 37 10 39 13 423 105 496 119 30 6 141 27 245 47 105 20 246 49 315 66 79
19 165 33 234 37 74 4 111 10 114 19 2 8 -9 12 -37 13 -49 2 -53 2 -67 11 -6
4 -38 14 -70 22 -118 30 -149 39 -159 47 -5 5 -20 9 -34 9 -39 0 -140 19 -211
41 -36 11 -99 26 -140 33 -41 8 -95 22 -120 31 -25 9 -74 23 -110 32 -36 8
-112 30 -170 48 -114 37 -294 85 -315 85 -8 0 -16 -4 -20 -9z m175 -76 c173
-49 227 -64 290 -79 36 -8 108 -26 160 -40 52 -14 105 -26 116 -26 12 0 50 -9
85 -21 35 -11 107 -26 159 -33 53 -7 111 -20 130 -29 19 -8 42 -18 50 -21 8
-3 -46 -3 -120 0 -74 4 -266 6 -427 6 -272 0 -293 1 -314 19 -23 20 -39 17
-39 -7 0 -12 -7 -14 -31 -9 -36 8 -102 -2 -94 -14 2 -5 30 -12 61 -16 32 -4
66 -12 76 -18 14 -9 20 -9 26 0 5 9 48 15 123 19 121 7 519 5 531 -2 3 -2 46
-4 95 -5 48 0 104 -3 123 -6 l34 -6 -44 -13 c-53 -16 -343 -77 -520 -109 -69
-13 -147 -28 -175 -34 -65 -15 -78 -18 -150 -31 -33 -7 -102 -23 -153 -36
-110 -28 -103 -28 -95 -8 3 9 0 19 -6 24 -13 7 -17 141 -12 357 3 102 5 112
23 117 15 3 19 11 15 25 -3 12 -4 21 -3 21 0 0 39 -11 86 -25z m-351 -239
c-20 -18 -172 -116 -180 -116 -7 0 -9 12 -5 33 3 17 8 57 11 87 4 30 8 60 10
66 2 7 36 -4 85 -28 45 -21 81 -40 79 -42z"/>
<path d="M717 816 c-4 -9 2 -17 14 -21 25 -8 34 -1 26 20 -8 19 -33 20 -40 1z"/>
<path d="M770 740 c0 -5 6 -10 14 -10 8 0 18 5 21 10 3 6 -3 10 -14 10 -12 0
-21 -4 -21 -10z"/>
<path d="M812 698 c5 -15 37 -18 41 -3 1 6 -9 12 -22 13 -16 3 -22 -1 -19 -10z"/>
<path d="M840 560 c-8 -5 -11 -12 -8 -16 10 -9 38 3 38 16 0 12 -10 13 -30 0z"/>
<path d="M787 503 c-10 -10 -8 -33 3 -33 5 0 14 9 20 20 8 15 8 20 -3 20 -8 0
-17 -3 -20 -7z"/>
<path d="M720 450 c-8 -5 -11 -12 -7 -16 4 -4 13 -2 19 4 15 15 7 24 -12 12z"/>
</g>
</svg>
