<?xml version="1.0" standalone="no"?>
<!DOCTYPE svg PUBLIC "-//W3C//DTD SVG 20010904//EN"
 "http://www.w3.org/TR/2001/REC-SVG-20010904/DTD/svg10.dtd">
<svg version="1.0" xmlns="http://www.w3.org/2000/svg"
 width="152.000000pt" height="86.000000pt" viewBox="0 0 152.000000 86.000000"
 preserveAspectRatio="xMidYMid meet">
<metadata>
Created by potrace 1.16, written by Peter Selinger 2001-2019
</metadata>
<g transform="translate(0.000000,86.000000) scale(0.100000,-0.100000)"
fill="#000000" stroke="none">
<path d="M278 763 c-12 -13 -15 -31 -12 -68 2 -27 2 -65 -2 -84 l-5 -33 -100
7 c-87 6 -99 5 -99 -10 0 -25 26 -31 133 -34 l58 -1 -6 -92 c-4 -51 -10 -105
-15 -120 -12 -38 10 -56 48 -38 18 8 98 13 232 16 314 7 581 13 620 15 90 5
93 3 149 -70 69 -91 77 -100 133 -139 52 -36 70 -39 88 -17 11 13 11 20 0 39
-10 19 -11 68 -4 218 4 106 8 211 8 233 1 22 5 46 10 54 8 12 -5 76 -24 111
-4 8 -18 14 -31 13 -54 -5 -506 -13 -660 -13 -157 1 -392 14 -469 26 -27 4
-40 1 -52 -13z m236 -43 c71 -6 132 -12 134 -15 3 -3 0 -5 -6 -5 -17 0 -51
-72 -54 -113 -1 -27 4 -41 22 -57 12 -11 29 -20 37 -20 7 0 13 -4 13 -10 0 -5
-4 -10 -10 -10 -32 0 -55 -99 -30 -124 6 -6 10 -13 10 -16 0 -8 -328 -5 -336
2 -5 5 10 164 20 213 3 11 5 55 5 98 l1 78 33 -6 c17 -3 90 -10 161 -15z m753
-2 l161 -1 7 -34 c14 -74 4 -493 -12 -493 -4 0 -28 19 -44 35 -5 6 -31 38 -57
73 l-47 63 -90 -4 c-49 -3 -94 -6 -100 -7 -5 -1 -74 -2 -152 -1 l-142 1 25 37
c28 41 26 68 -7 114 -14 21 -16 29 -6 36 31 25 36 23 47 -17 31 -116 214 -75
227 51 4 35 0 46 -23 70 -47 49 -144 32 -184 -33 -20 -32 -21 -32 -14 -5 8 35
-2 73 -25 96 -19 19 -17 19 52 15 40 -3 92 0 117 5 25 5 59 8 75 5 17 -2 103
-5 192 -6z m-490 -27 c61 -38 51 -99 -21 -132 -35 -15 -43 -16 -67 -3 -45 23
-57 40 -50 71 9 42 23 59 56 71 42 15 46 14 82 -7z m251 -73 c36 -36 -14 -128
-69 -128 -28 0 -69 30 -69 51 0 59 100 115 138 77z m-249 -144 c28 -36 26 -58
-5 -83 -34 -27 -88 -27 -114 -1 -26 26 -25 42 3 67 54 49 87 54 116 17z"/>
</g>
</svg>
