<?xml version="1.0" standalone="no"?>
<!DOCTYPE svg PUBLIC "-//W3C//DTD SVG 20010904//EN"
 "http://www.w3.org/TR/2001/REC-SVG-20010904/DTD/svg10.dtd">
<svg version="1.0" xmlns="http://www.w3.org/2000/svg"
 width="302.000000pt" height="152.000000pt" viewBox="0 0 302.000000 152.000000"
 preserveAspectRatio="xMidYMid meet">
<metadata>
Created by potrace 1.16, written by Peter Selinger 2001-2019
</metadata>
<g transform="translate(0.000000,152.000000) scale(0.100000,-0.100000)"
fill="#000000" stroke="none">
<path d="M415 1456 c-13 -10 -13 -21 0 -91 7 -44 19 -145 25 -225 6 -80 13
-171 16 -202 l6 -58 -28 0 c-64 0 -197 20 -211 31 -11 10 -18 8 -34 -7 -16
-17 -20 -36 -22 -123 -2 -70 -7 -105 -16 -110 -9 -6 -10 -14 -3 -27 6 -11 13
-27 16 -36 7 -24 37 -23 43 2 3 11 6 20 7 21 0 0 61 6 134 12 145 14 138 16
140 -48 2 -37 19 -163 37 -275 24 -139 29 -197 17 -204 -15 -9 -4 -36 14 -36
8 0 20 16 29 36 12 29 13 49 4 107 -17 117 -18 135 -19 291 l-1 150 25 3 c13
2 27 0 30 -5 3 -5 6 -77 7 -161 1 -137 7 -176 23 -136 3 8 5 78 5 156 0 78 2
143 4 145 2 2 18 7 35 10 l32 7 1 -124 c1 -114 3 -165 7 -211 1 -10 8 -18 16
-18 12 0 13 29 10 174 l-5 173 32 7 c18 3 34 4 37 1 3 -3 0 -47 -6 -99 -17
-132 -16 -216 2 -216 16 0 26 69 26 181 0 42 3 90 6 107 6 30 31 50 44 35 4
-4 3 -63 -1 -129 -8 -127 -2 -179 22 -179 12 0 13 25 10 152 -3 144 -2 152 17
162 11 6 30 11 42 11 21 0 21 -1 15 -155 -3 -92 -2 -155 3 -155 27 0 34 35 36
167 0 79 5 141 11 145 6 4 20 8 32 8 21 0 21 -2 18 -130 -2 -72 -6 -139 -10
-149 -10 -33 13 -33 30 -1 10 20 18 72 22 154 7 145 -8 131 148 141 50 4 106
8 125 11 19 2 186 6 369 9 l335 6 -19 -21 c-10 -11 -30 -26 -44 -33 -41 -19
-38 -44 11 -88 23 -22 57 -47 73 -56 17 -9 55 -37 85 -63 30 -26 63 -51 73
-56 9 -6 78 -69 151 -142 74 -73 142 -132 150 -132 9 0 16 -4 16 -10 0 -5 9
-10 20 -10 14 0 21 9 25 38 4 20 10 48 15 62 5 14 11 54 14 90 6 80 41 311 66
445 30 157 59 326 65 375 12 96 37 161 72 187 48 37 30 49 -46 34 -42 -8 -72
-9 -98 -2 -62 16 -116 3 -145 -37 -26 -35 -142 -132 -158 -132 -9 0 -21 -5
-28 -12 -7 -7 -12 -8 -12 -4 0 5 -7 3 -15 -4 -8 -7 -15 -21 -15 -30 0 -22
-117 -114 -280 -220 -117 -76 -132 -88 -124 -101 8 -13 -133 -17 -474 -14
-209 2 -338 7 -344 13 -6 6 -10 69 -10 150 0 133 10 198 34 229 6 7 8 19 5 27
-5 12 -13 11 -52 -2 -43 -14 -48 -14 -56 0 -7 13 -17 14 -56 6 -27 -5 -63 -11
-82 -13 -39 -4 -45 -9 -38 -29 4 -9 13 -13 22 -10 14 6 16 -7 14 -102 -1 -60
-4 -139 -7 -176 l-4 -68 -36 0 -35 0 7 138 c4 75 11 155 16 177 17 72 15 78
-30 73 -26 -2 -41 1 -44 9 -4 9 -12 10 -31 3 -20 -8 -29 -6 -45 10 -17 17 -24
18 -42 9 -16 -8 -22 -8 -28 1 -10 16 -40 5 -40 -14 0 -8 9 -21 20 -29 20 -14
20 -19 10 -98 -5 -46 -10 -123 -10 -171 l0 -88 -29 0 c-16 0 -31 6 -33 13 -17
53 0 518 20 525 25 8 41 28 33 41 -11 17 -194 24 -216 7z m126 -98 c2 -24 2
-81 -1 -128 -3 -47 -3 -134 0 -195 7 -144 5 -155 -26 -155 -22 0 -29 12 -26
41 1 4 -3 31 -7 60 -5 30 -12 104 -15 164 -4 61 -9 142 -12 181 l-5 71 44 1
45 2 3 -42z m2145 -262 c-1 -151 -4 -277 -7 -280 -6 -6 -208 -10 -214 -4 -6 5
14 230 26 288 6 30 17 67 25 82 8 15 13 31 12 37 -2 7 147 151 156 151 1 0 2
-123 2 -274z m115 226 c30 5 30 4 24 -29 -3 -18 -8 -50 -11 -71 -6 -47 -19
-124 -50 -280 -13 -68 -24 -126 -24 -129 0 -2 -5 -3 -12 -1 -8 3 -12 80 -15
266 l-4 261 31 -10 c17 -6 44 -9 61 -7z m-1775 -232 c-7 -126 -17 -254 -19
-257 -1 0 -15 1 -30 4 l-28 5 5 72 c3 39 8 115 11 168 3 53 10 109 15 123 9
23 12 24 31 13 20 -12 21 -18 15 -128z m-280 120 c12 0 14 -19 13 -102 -1 -57
-6 -134 -13 -173 l-11 -70 -37 -3 -36 -3 4 73 c11 202 27 293 51 284 8 -3 21
-6 29 -6z m58 -17 c-7 -28 -7 -28 14 -10 30 28 35 9 26 -116 -4 -62 -8 -133
-8 -159 -1 -27 -4 -48 -8 -48 -71 0 -69 -1 -64 28 20 116 26 166 26 229 0 66
6 103 16 103 3 0 1 -12 -2 -27z m322 -20 c-2 -10 -8 -91 -11 -180 l-7 -163
-29 0 c-33 0 -32 -5 -30 140 1 47 6 112 11 145 5 33 10 63 10 68 0 4 14 7 31
7 24 0 29 -4 25 -17z m1334 -70 c-6 -32 -17 -112 -23 -178 -7 -72 -16 -118
-22 -115 -13 7 -18 165 -8 260 7 65 11 76 33 87 13 6 26 10 28 8 2 -1 -2 -29
-8 -62z m-83 -145 l-2 -152 -115 3 c-63 1 -119 7 -124 12 -6 5 8 27 37 56 97
100 167 178 167 187 0 8 29 46 36 46 1 0 2 -68 1 -152z m-163 -14 c-115 -124
-126 -132 -160 -109 l-24 16 27 24 c41 36 40 35 138 100 50 33 92 63 93 67 2
5 8 8 14 8 5 0 -34 -48 -88 -106z m-1823 -94 l66 0 6 -62 c4 -35 9 -72 13 -84
5 -19 0 -22 -57 -27 -34 -4 -94 -7 -134 -7 l-71 0 6 51 c4 28 5 72 2 97 l-4
45 53 -6 c30 -4 84 -7 120 -7z m152 -29 c6 -26 -2 -124 -13 -135 -14 -14 -40
57 -39 107 2 41 5 47 24 47 14 0 25 -8 28 -19z m75 10 c9 -5 12 -27 10 -72 -3
-62 -4 -64 -32 -67 l-28 -3 6 73 c2 40 5 74 5 76 2 5 27 1 39 -7z m114 -50 c5
-75 2 -81 -43 -81 l-39 0 0 43 c0 72 8 87 45 87 32 0 33 -1 37 -49z m80 40
c20 -7 23 -16 23 -57 0 -46 -1 -48 -33 -55 -38 -8 -37 -8 -46 53 -10 67 2 80
56 59z m106 -16 c2 -2 1 -22 -3 -43 -5 -29 -12 -42 -28 -46 -12 -3 -22 -4 -23
-3 -2 1 -4 26 -6 55 l-4 53 30 -7 c17 -3 33 -8 34 -9z m78 -5 c9 0 14 -11 14
-35 0 -28 -4 -35 -19 -35 -11 0 -26 -3 -35 -6 -13 -5 -16 1 -16 33 0 44 7 56
28 48 7 -3 20 -5 28 -5z m114 -24 c0 -31 -3 -34 -35 -38 -30 -3 -35 -1 -35 17
0 32 16 48 39 42 12 -3 21 -1 21 4 0 5 2 9 5 9 3 0 5 -15 5 -34z m429 8 c2 -2
-12 -5 -32 -5 -20 -1 -40 -2 -44 -3 -16 -4 -141 -16 -225 -22 -85 -6 -96 -3
-80 23 11 18 361 24 381 7z m1141 -125 c0 -122 -13 -248 -30 -284 -6 -11 -11
-53 -12 -93 l-3 -74 -41 39 c-23 21 -54 58 -69 83 -15 25 -45 63 -66 84 -37
39 -38 41 -33 100 3 34 7 68 10 76 3 8 7 42 10 75 9 110 3 104 91 98 43 -2 89
0 103 6 14 5 28 10 33 10 4 1 7 -53 7 -120z m47 99 c-3 -8 -6 -5 -6 6 -1 11 2
17 5 13 3 -3 4 -12 1 -19z m-513 -58 c20 -32 59 -84 87 -115 39 -41 52 -65 56
-96 l6 -40 -34 20 c-18 11 -58 42 -87 68 -30 26 -64 53 -77 58 -27 13 -85 61
-85 72 0 4 14 23 31 41 16 17 27 37 24 42 -3 6 5 10 18 10 19 0 32 -13 61 -60z
m150 12 c-1 -23 2 -57 6 -76 5 -23 3 -39 -7 -52 -14 -18 -16 -17 -49 21 -43
48 -79 103 -88 131 -6 20 -3 21 67 20 l73 -1 -2 -43z m56 19 c0 -49 -21 -185
-31 -201 -6 -10 -7 -1 -2 25 5 22 7 67 6 100 -3 69 3 105 17 105 6 0 10 -13
10 -29z m297 -23 c-3 -7 -5 -2 -5 12 0 14 2 19 5 13 2 -7 2 -19 0 -25z m-2178
-140 c-2 -83 -2 -88 -9 -43 -12 72 -12 135 0 135 6 0 9 -37 9 -92z m1962 -253
c19 -36 12 -31 -58 40 -55 57 -76 84 -69 93 11 16 96 -73 127 -133z"/>
</g>
</svg>
