<?xml version="1.0" standalone="no"?>
<!DOCTYPE svg PUBLIC "-//W3C//DTD SVG 20010904//EN"
 "http://www.w3.org/TR/2001/REC-SVG-20010904/DTD/svg10.dtd">
<svg version="1.0" xmlns="http://www.w3.org/2000/svg"
 width="290.000000pt" height="134.000000pt" viewBox="0 0 290.000000 134.000000"
 preserveAspectRatio="xMidYMid meet">
<metadata>
Created by potrace 1.16, written by Peter Selinger 2001-2019
</metadata>
<g transform="translate(0.000000,134.000000) scale(0.100000,-0.100000)"
fill="#000000" stroke="none">
<path d="M1509 1223 c-20 -24 -25 -243 -5 -243 8 0 42 21 76 48 34 26 82 60
107 75 45 28 46 28 167 21 66 -3 141 -5 165 -5 l43 2 -5 -48 c-3 -26 -14 -86
-25 -133 -11 -47 -23 -103 -26 -125 -8 -46 -59 -232 -88 -319 -10 -32 -18 -71
-18 -85 4 -59 11 -56 -139 -56 -77 0 -143 3 -147 8 -4 4 2 26 13 50 11 23 24
60 27 82 4 22 15 74 26 115 28 111 50 215 50 239 0 12 6 21 13 21 7 0 37 35
66 79 28 43 63 89 77 101 13 13 24 32 24 43 0 17 -5 19 -40 14 -22 -3 -56 0
-74 5 -28 9 -40 8 -61 -6 -22 -15 -24 -21 -19 -57 4 -25 0 -72 -9 -117 -31
-146 -66 -297 -81 -352 -9 -30 -16 -63 -16 -72 0 -10 -9 -42 -21 -73 -22 -60
-38 -67 -87 -41 -60 30 -82 39 -88 33 -4 -4 -8 -35 -9 -69 -1 -35 -5 -91 -10
-125 -9 -72 4 -82 46 -37 21 24 47 38 164 89 59 26 120 34 234 30 64 -1 121
-4 126 -5 6 -1 25 -2 43 -1 25 1 32 5 32 22 0 17 -6 20 -37 19 -68 -3 -78 -1
-65 12 7 7 12 28 12 48 0 20 9 63 19 96 32 98 78 275 91 352 7 39 17 72 22 72
4 0 8 6 8 13 0 16 107 206 131 233 39 41 26 52 -60 50 -74 -1 -81 -3 -91 -24
-5 -13 -7 -28 -4 -34 9 -14 -198 -4 -366 18 -25 3 -61 8 -80 10 -19 2 -47 13
-62 24 -33 24 -32 24 -49 3z m641 -85 c-54 -102 -50 -96 -50 -71 0 12 5 34 12
50 6 15 10 36 9 45 -1 10 6 18 21 20 13 2 25 3 27 1 2 -1 -7 -21 -19 -45z
m-500 10 c14 1 20 -1 15 -7 -23 -20 -107 -81 -113 -81 -4 0 -8 23 -10 51 l-2
51 42 -8 c24 -4 54 -7 68 -6z m170 -95 c2 -2 -5 -20 -15 -41 -25 -46 -71 -114
-60 -87 5 11 11 48 13 82 4 62 4 63 30 57 15 -4 29 -9 32 -11z m-317 -702 c23
-11 53 -23 66 -26 22 -7 18 -10 -35 -32 -32 -14 -65 -30 -72 -35 -7 -6 -14 -9
-16 -7 -5 5 5 119 10 119 2 0 23 -9 47 -19z"/>
<path d="M2433 1192 c-25 -4 -32 -35 -12 -48 8 -5 10 -33 5 -93 -11 -155 -14
-175 -29 -231 -9 -30 -18 -81 -22 -113 -4 -31 -26 -115 -51 -185 -24 -70 -45
-131 -47 -135 -4 -15 29 -31 48 -23 13 4 15 13 11 31 -4 14 0 37 8 53 19 37
68 181 72 212 16 133 29 179 56 199 11 7 17 19 14 27 -6 15 33 101 67 150 12
18 28 40 34 50 11 16 12 6 7 -56 -3 -41 -10 -91 -15 -110 -5 -19 -9 -57 -9
-84 0 -32 -5 -53 -15 -60 -9 -6 -18 -29 -21 -50 -2 -21 -15 -89 -28 -150 -34
-157 -36 -172 -21 -193 18 -25 27 -12 36 51 5 37 17 66 40 97 19 25 45 66 58
92 13 26 41 66 62 88 63 68 57 84 -26 72 l-44 -6 6 39 c3 22 10 44 14 50 5 6
6 13 3 16 -7 8 54 121 99 185 48 67 69 111 57 118 -5 3 -37 3 -70 -1 -43 -5
-60 -3 -60 5 0 11 -159 13 -227 3z m147 -48 c0 -3 -10 -18 -21 -32 -12 -15
-37 -52 -56 -82 -32 -52 -34 -53 -29 -21 3 18 6 58 6 87 l0 54 50 0 c28 0 50
-3 50 -6z m160 0 c0 -4 -18 -33 -39 -65 -22 -33 -43 -68 -46 -79 -13 -42 -21
-17 -14 48 5 37 8 72 8 79 1 6 16 14 34 16 17 2 38 5 45 5 6 1 12 -1 12 -4z
m-104 -421 c-8 -16 -31 -55 -51 -88 l-37 -60 7 45 c14 97 24 118 53 123 15 2
30 5 35 6 4 0 1 -11 -7 -26z"/>
<path d="M540 1008 c-24 -9 -24 -6 0 -59 11 -24 20 -61 20 -82 l0 -39 -47 6
c-27 3 -79 13 -118 22 -127 30 -122 30 -144 -7 -24 -39 -29 -150 -9 -194 16
-35 37 -32 115 22 87 59 173 105 188 99 12 -4 9 -31 -15 -156 -5 -25 -12 -71
-15 -102 -5 -49 -4 -58 10 -58 17 0 35 38 39 85 9 88 20 126 38 139 18 13 18
15 4 23 -12 7 -15 17 -10 40 6 30 7 31 83 36 89 6 217 10 351 11 92 1 95 0 98
-22 2 -12 -8 -57 -22 -100 -14 -42 -32 -117 -41 -165 -9 -48 -22 -104 -29
-125 l-13 -36 -11 33 c-7 19 -27 52 -46 75 -45 56 -49 75 -31 144 8 33 15 81
15 106 0 53 -13 59 -57 23 -15 -13 -58 -44 -94 -70 -58 -40 -79 -63 -79 -84 0
-3 12 -3 26 0 14 2 36 -1 48 -7 45 -25 66 -41 66 -53 0 -6 18 -33 40 -58 42
-48 62 -81 66 -104 2 -7 12 -23 23 -35 12 -12 21 -34 21 -49 0 -28 16 -45 30
-31 4 5 10 25 13 44 3 19 12 55 21 79 9 24 19 68 23 98 4 37 10 53 18 49 13
-4 57 52 85 108 8 16 48 67 88 112 39 46 72 90 72 99 0 16 -31 16 -553 -1
l-177 -5 36 67 c20 38 47 77 60 87 46 35 31 44 -71 43 -53 -1 -105 -4 -115 -8z
m118 -45 c-2 -5 -14 -29 -26 -55 -12 -27 -23 -48 -25 -48 -2 0 -4 16 -5 35 -1
19 -6 44 -12 55 -10 18 -8 20 30 20 23 0 40 -3 38 -7z m-269 -153 c29 -5 55
-10 57 -10 14 0 0 -20 -18 -26 -13 -4 -41 -19 -63 -34 -22 -14 -45 -30 -51
-33 -9 -5 -12 12 -10 58 1 53 4 64 16 60 8 -3 39 -9 69 -15z m890 -30 c0 -3
-22 -34 -49 -70 -27 -36 -64 -90 -81 -119 -37 -63 -46 -58 -25 14 8 28 23 78
33 112 10 36 24 64 33 67 20 5 90 2 89 -4z m-386 -124 c3 -7 0 -29 -7 -49 -11
-32 -13 -34 -31 -21 -10 8 -27 14 -37 14 -27 0 -22 12 20 42 43 32 48 33 55
14z"/>
</g>
</svg>
