<?xml version="1.0" standalone="no"?>
<!DOCTYPE svg PUBLIC "-//W3C//DTD SVG 20010904//EN"
 "http://www.w3.org/TR/2001/REC-SVG-20010904/DTD/svg10.dtd">
<svg version="1.0" xmlns="http://www.w3.org/2000/svg"
 width="290.000000pt" height="148.000000pt" viewBox="0 0 290.000000 148.000000"
 preserveAspectRatio="xMidYMid meet">
<metadata>
Created by potrace 1.16, written by Peter Selinger 2001-2019
</metadata>
<g transform="translate(0.000000,148.000000) scale(0.100000,-0.100000)"
fill="#000000" stroke="none">
<path d="M1210 1446 c-14 -8 -37 -34 -51 -57 -25 -43 -80 -93 -253 -229 -70
-55 -96 -70 -122 -70 -36 0 -41 -9 -24 -40 9 -17 6 -20 -25 -26 -19 -3 -54 -3
-78 0 -23 3 -82 8 -132 11 -144 8 -221 23 -256 52 -29 24 -47 15 -64 -32 -23
-58 -27 -244 -6 -268 19 -24 24 -22 83 26 108 88 197 122 411 157 37 6 79 15
94 21 18 7 30 6 37 -1 31 -31 89 13 169 130 17 25 55 73 85 107 l54 63 30 -41
c31 -42 65 -50 61 -14 -2 19 6 20 205 21 114 1 385 3 602 4 348 3 404 2 474
-14 59 -13 81 -14 90 -6 18 19 -27 47 -86 54 -29 3 -89 8 -133 11 -123 8 -388
41 -600 75 -71 11 -193 27 -270 35 -180 19 -194 21 -228 34 -35 14 -36 13 -67
-3z m124 -45 c21 -5 77 -12 125 -16 111 -8 313 -32 416 -50 44 -7 109 -16 145
-20 192 -19 147 -23 -270 -24 -245 0 -469 2 -497 5 -48 6 -53 9 -53 32 0 13 5
41 11 62 12 41 9 40 123 11z m-364 -256 c-17 -25 -49 -64 -70 -87 -38 -42 -39
-42 -59 -24 l-21 19 22 16 c13 8 52 39 87 68 36 29 66 53 68 53 2 0 -10 -20
-27 -45z m-669 -119 c42 -17 126 -28 227 -29 l77 -1 -90 -21 c-105 -26 -150
-43 -211 -85 -25 -16 -47 -30 -50 -30 -6 0 -5 113 2 149 4 17 8 31 9 31 1 0
18 -6 36 -14z"/>
<path d="M1933 1173 c-7 -3 -13 -17 -13 -32 0 -15 -9 -36 -20 -46 -11 -10 -20
-23 -20 -29 -1 -24 -211 -216 -237 -216 -5 0 -41 41 -78 92 -50 67 -68 99 -67
119 2 21 -3 28 -24 32 -14 2 -44 0 -66 -5 -23 -5 -47 -7 -55 -4 -7 3 -24 1
-38 -4 -24 -9 -25 -13 -25 -99 0 -49 -3 -96 -6 -105 -6 -16 -35 -15 -79 4 -11
5 -33 11 -48 15 -16 3 -45 21 -64 40 -20 19 -46 35 -57 35 -45 0 -49 -12 -51
-132 -2 -141 13 -165 72 -118 36 28 122 58 179 61 l49 3 1 -59 c0 -33 -4 -76
-10 -95 -13 -48 -14 -52 -3 -73 6 -14 12 -16 22 -7 17 14 75 -13 75 -34 0 -7
6 -19 14 -26 12 -9 18 -5 34 27 20 39 118 154 158 186 12 9 32 17 43 17 25 0
161 -130 161 -154 0 -22 30 -21 30 2 1 15 2 15 16 -3 33 -45 45 -55 65 -55 16
0 19 4 14 20 -3 11 -2 20 3 20 16 0 23 -30 11 -51 -8 -15 -7 -24 2 -36 12 -13
14 -13 26 3 11 16 17 17 34 6 27 -17 45 -5 25 17 -15 17 -12 20 41 54 32 21
64 37 71 37 17 0 129 57 137 70 8 12 80 45 120 54 17 4 53 18 80 31 28 14 69
30 92 35 38 10 83 42 83 60 0 8 -40 25 -150 65 -79 29 -342 157 -410 200 -22
14 -42 25 -46 25 -3 0 -23 13 -43 29 -20 15 -42 26 -48 24z m147 -128 c47 -28
25 -26 -45 5 -22 9 -48 20 -57 23 -10 4 -18 13 -18 22 0 17 25 7 120 -50z
m-151 -25 c6 0 11 -6 12 -12 3 -40 -8 -250 -16 -308 -2 -14 -4 -40 -4 -59 -1
-25 -5 -32 -16 -27 -8 3 -22 -2 -31 -11 -14 -15 -15 -3 -9 148 4 103 12 176
21 197 13 31 12 34 -5 39 -20 5 -19 24 3 51 8 11 12 11 22 -2 6 -9 16 -16 23
-16z m-521 3 c-2 -9 -14 -20 -28 -23 -24 -6 -29 -19 -16 -50 3 -8 -3 -26 -14
-40 l-21 -25 2 70 c1 39 4 73 6 78 2 4 20 7 39 7 28 0 35 -4 32 -17z m607 -1
c14 -9 2 -336 -14 -375 -17 -44 -46 -32 -45 18 2 68 12 207 19 265 12 101 15
110 40 92z m-477 -114 c35 -49 61 -92 58 -95 -2 -3 -39 28 -82 69 -64 62 -75
78 -70 96 4 12 13 22 19 22 7 -1 40 -42 75 -92z m569 86 c19 -5 22 -12 18 -38
-2 -17 -4 -93 -4 -168 -1 -123 -3 -138 -19 -147 -27 -15 -65 -2 -56 18 4 9 9
79 11 156 4 146 8 185 21 185 4 0 17 -3 29 -6z m116 -64 c2 -10 2 -23 -2 -29
-4 -6 -8 -54 -10 -108 -1 -53 -4 -100 -7 -104 -2 -4 -13 -9 -25 -12 -20 -5
-21 -3 -18 136 1 78 4 145 6 149 6 12 51 -13 56 -32z m-398 -259 c-4 -11 -12
-8 -36 15 -29 27 -30 32 -24 83 4 30 11 66 16 79 6 17 6 29 -1 36 -7 7 -1 19
18 39 l27 28 3 -132 c1 -73 0 -140 -3 -148z m-765 234 c0 -8 26 -23 60 -36 33
-12 63 -26 66 -30 3 -5 15 -9 27 -10 12 0 -18 -11 -67 -25 -54 -15 -92 -21
-95 -15 -12 19 -13 143 -2 136 6 -3 11 -12 11 -20z m1230 15 c16 -8 17 -20 13
-97 -5 -90 -16 -113 -52 -113 -14 0 -15 12 -10 83 6 80 17 137 26 137 2 0 13
-4 23 -10z m-851 -22 c13 -14 17 -25 11 -32 -5 -7 -12 -45 -17 -86 l-8 -74
-48 -28 -49 -29 5 71 c6 69 24 130 39 130 8 0 20 -40 17 -56 -4 -22 2 -57 9
-50 4 4 7 11 7 14 1 4 7 18 14 31 12 22 10 76 -5 115 -9 22 2 20 25 -6z m941
-18 c16 -16 19 -28 13 -66 -8 -59 14 -53 23 6 6 37 8 38 43 35 49 -4 100 -16
106 -25 3 -5 -8 -13 -24 -18 -27 -9 -30 -8 -33 10 -2 12 -9 23 -17 26 -10 3
-13 -2 -9 -22 6 -32 -4 -41 -77 -66 -79 -27 -85 -26 -80 13 3 17 7 53 10 80 7
52 15 57 45 27z m-656 -75 c-6 -32 -8 -35 -21 -22 -13 13 -13 18 2 41 22 34
28 28 19 -19z m-190 12 l28 -23 -41 -27 -41 -27 0 34 c0 37 8 66 19 66 3 0 19
-10 35 -23z m-40 -143 c-95 -91 -100 -95 -123 -82 -31 17 -29 32 4 36 15 2 29
11 32 20 9 23 23 32 51 32 14 0 26 7 28 18 5 16 79 72 98 72 5 0 -36 -43 -90
-96z m176 81 c11 -13 10 -14 -4 -9 -9 3 -16 10 -16 15 0 13 6 11 20 -6z m338
-197 c-5 -16 -48 -24 -48 -9 0 8 17 16 43 20 5 0 7 -5 5 -11z"/>
<path d="M860 725 c-24 -24 -47 -42 -53 -38 -5 3 -46 5 -90 4 -174 -2 -385 17
-452 41 -35 12 -67 20 -70 16 -3 -3 -8 -56 -11 -118 -3 -63 -7 -117 -9 -121
-8 -12 6 -39 20 -39 6 0 20 10 31 22 10 11 52 36 91 55 72 33 113 45 225 62
32 5 63 13 69 17 23 14 113 5 127 -13 11 -15 16 -16 33 -5 23 15 49 1 49 -26
0 -8 29 -47 65 -86 98 -106 125 -145 125 -180 0 -9 12 -19 26 -22 25 -6 26
-10 20 -51 -6 -46 10 -66 37 -45 6 5 59 12 117 16 58 3 146 10 195 16 50 5
144 12 210 16 66 3 123 8 126 10 3 1 50 4 105 4 54 1 131 6 169 10 39 5 188
10 333 11 232 3 262 5 260 18 -3 14 -28 16 -173 17 -94 0 -206 6 -250 12 -44
6 -152 14 -240 17 -88 4 -200 10 -250 15 -115 12 -234 19 -415 26 -80 2 -149
9 -154 14 -28 28 -56 4 -56 -46 0 -13 -3 -24 -7 -23 -5 0 -34 53 -66 117 -62
124 -87 225 -68 275 6 16 6 28 -2 36 -16 16 -19 15 -67 -34z m-605 -24 c8 -15
99 -29 219 -36 60 -3 111 -7 113 -9 2 -2 -34 -9 -81 -16 -71 -10 -179 -41
-259 -75 -17 -7 -18 -2 -16 69 3 71 10 89 24 67z m643 -147 c-2 -1 -12 4 -22
11 -21 16 -28 81 -12 104 8 10 14 -2 23 -49 7 -35 12 -64 11 -66z m421 -199
c107 -3 208 -8 225 -10 17 -3 110 -7 206 -10 96 -3 209 -10 250 -15 41 -4 97
-9 124 -9 60 -1 76 -11 18 -11 -22 0 -74 -4 -114 -9 -40 -5 -176 -12 -303 -16
-126 -3 -282 -10 -345 -15 -199 -16 -260 -18 -270 -5 -10 12 -2 117 9 110 4
-2 94 -6 200 -10z"/>
</g>
</svg>
