<?xml version="1.0" standalone="no"?>
<!DOCTYPE svg PUBLIC "-//W3C//DTD SVG 20010904//EN"
 "http://www.w3.org/TR/2001/REC-SVG-20010904/DTD/svg10.dtd">
<svg version="1.0" xmlns="http://www.w3.org/2000/svg"
 width="270.000000pt" height="153.000000pt" viewBox="0 0 270.000000 153.000000"
 preserveAspectRatio="xMidYMid meet">
<metadata>
Created by potrace 1.16, written by Peter Selinger 2001-2019
</metadata>
<g transform="translate(0.000000,153.000000) scale(0.100000,-0.100000)"
fill="#000000" stroke="none">
<path d="M955 1488 c-3 -7 -4 -26 -3 -43 3 -37 -10 -121 -24 -157 -12 -32 -1
-59 16 -37 19 25 70 53 99 55 l29 3 -5 -112 c-5 -122 -16 -250 -23 -256 -2 -2
-80 9 -174 24 -196 32 -184 17 -119 149 54 109 53 116 -30 123 -29 2 -54 11
-68 25 l-23 21 0 -21 c0 -19 -3 -20 -25 -10 -33 15 -56 -3 -39 -30 6 -9 10
-32 9 -49 -1 -18 -2 -58 -3 -89 l-2 -57 -32 6 c-18 3 -73 13 -123 22 -54 10
-98 24 -110 35 -16 14 -29 16 -65 11 -33 -5 -44 -11 -41 -21 9 -27 8 -123 0
-160 -5 -19 -9 -66 -10 -105 -1 -38 -6 -76 -12 -83 -17 -22 2 -26 61 -14 31 6
107 16 167 22 61 6 119 12 129 13 19 2 20 -5 17 -133 -1 -74 -7 -157 -12 -184
-14 -77 -12 -176 5 -176 11 0 15 32 21 153 4 83 8 172 11 195 2 24 4 67 5 96
l2 53 76 13 c42 7 87 14 101 16 14 2 68 11 120 20 52 8 109 18 127 21 l32 5
-5 -123 c-3 -68 -7 -143 -10 -166 l-5 -43 -80 0 c-74 0 -102 -11 -61 -24 19
-6 22 -19 26 -145 2 -55 15 -73 39 -53 34 29 146 57 422 107 98 17 250 48 305
62 23 6 36 15 38 28 3 19 -3 20 -153 17 l-155 -4 -1 43 c-1 24 -2 55 -2 69 -1
22 8 132 18 214 2 16 7 32 12 36 4 5 37 4 73 0 36 -5 106 -14 155 -20 203 -26
294 -40 360 -55 39 -8 88 -18 110 -20 22 -3 63 -7 90 -11 87 -10 81 3 80 -161
0 -82 -5 -178 -9 -215 -8 -59 -7 -68 7 -68 20 0 24 16 32 110 3 41 8 93 9 115
6 67 36 217 45 229 5 6 11 31 14 56 3 25 13 79 21 120 9 41 21 107 25 145 16
127 43 204 87 258 31 37 31 59 2 52 -59 -14 -148 -21 -168 -13 -34 13 -40 -4
-40 -122 0 -58 -4 -110 -8 -116 -6 -9 -135 -45 -352 -99 -30 -7 -109 -23 -175
-35 -66 -12 -142 -28 -170 -36 -27 -8 -66 -14 -85 -12 -19 1 -52 -1 -72 -5
l-38 -8 0 37 c0 21 6 45 14 53 8 9 24 61 36 116 12 55 27 116 34 135 l12 35
142 1 c132 1 164 5 150 20 -3 3 -64 8 -134 11 -71 3 -156 11 -189 18 -147 32
-340 82 -440 115 -70 23 -84 25 -90 8z m168 -58 c58 -16 112 -30 122 -30 26 0
85 -22 85 -32 0 -13 -125 -15 -203 -3 -44 7 -49 6 -54 -14 -4 -14 -13 -21 -30
-21 -13 0 -38 -7 -55 -16 l-31 -16 7 34 c4 18 9 49 12 68 11 73 5 71 147 30z
m1363 -112 c-29 -44 -67 -168 -82 -269 -8 -54 -18 -109 -23 -121 -5 -13 -12
-45 -15 -73 -4 -27 -14 -61 -21 -75 -12 -22 -13 -10 -10 100 2 69 3 144 4 166
1 36 5 43 27 48 30 8 30 41 -1 41 -19 0 -20 6 -16 90 1 50 4 91 6 93 1 2 25 4
53 6 27 2 58 8 68 14 26 14 29 8 10 -20z m-1093 -28 c4 -25 6 -68 2 -97 -3
-28 -2 -54 2 -56 5 -3 7 -50 5 -105 l-3 -99 -83 -13 c-83 -13 -192 -8 -226 10
-13 7 -14 21 -7 97 4 48 9 104 10 123 1 20 12 48 23 63 12 15 25 42 28 61 4
19 12 39 19 45 7 5 51 12 97 14 131 5 123 8 133 -43z m-263 24 c0 -4 -5 -24
-12 -45 -12 -43 -26 -52 -22 -16 1 12 3 32 3 45 1 12 7 22 16 22 8 0 15 -3 15
-6z m345 -46 c-7 -29 -18 -80 -25 -112 -16 -79 -28 -56 -30 59 -1 50 -2 93 -1
98 1 4 16 7 35 7 l34 0 -13 -52z m-810 -117 c3 -20 7 -47 9 -59 2 -13 -1 -38
-6 -56 -10 -30 -13 -32 -42 -26 -27 5 -31 10 -30 36 1 16 3 56 4 90 3 60 3 60
31 56 24 -4 29 -10 34 -41z m1639 -183 c-3 -62 -7 -131 -10 -154 l-5 -40 -62
7 c-34 4 -90 9 -125 10 -35 1 -84 8 -110 14 -26 7 -133 25 -237 39 -105 15
-221 32 -260 38 l-70 12 40 8 c22 4 65 12 95 17 50 8 263 58 351 81 20 6 97
22 170 36 74 14 150 30 169 34 19 4 41 8 47 9 10 1 11 -26 7 -111z m-1904 62
c36 -6 86 -16 113 -22 43 -11 47 -14 48 -42 2 -47 -2 -171 -6 -174 -4 -5 -171
-29 -242 -36 l-63 -6 0 53 c0 28 5 72 11 97 7 25 12 52 14 60 11 87 12 87 125
70z m237 -58 c10 -6 9 -13 -1 -33 -7 -14 -16 -37 -20 -52 -11 -45 -22 -30 -24
33 -1 51 1 60 16 60 9 0 22 -4 29 -8z m143 -23 c25 -6 61 -12 80 -15 19 -2 42
-6 50 -9 8 -2 33 -5 55 -6 62 -2 75 -8 75 -33 0 -26 20 -21 -240 -61 -91 -14
-175 -28 -187 -30 -19 -4 -23 -1 -23 17 0 14 9 27 22 33 12 6 26 24 32 40 28
79 43 86 136 64z m375 -58 l40 -7 -52 -8 c-52 -8 -73 -3 -73 15 0 11 29 11 85
0z m234 -30 c2 -1 1 -27 -3 -58 -22 -184 -25 -222 -20 -265 l6 -47 -73 -3
c-41 -2 -114 -2 -162 0 l-88 3 2 52 c2 75 20 291 25 296 17 18 236 33 313 22z
m-374 -408 c0 -23 17 -28 31 -8 13 18 25 19 152 17 169 -3 300 -3 372 2 74 5
42 -3 -190 -48 -102 -20 -232 -48 -290 -62 -58 -14 -114 -28 -126 -31 -19 -4
-22 1 -28 62 -4 36 -4 70 0 76 8 14 79 7 79 -8z"/>
</g>
</svg>
