<?xml version="1.0" standalone="no"?>
<!DOCTYPE svg PUBLIC "-//W3C//DTD SVG 20010904//EN"
 "http://www.w3.org/TR/2001/REC-SVG-20010904/DTD/svg10.dtd">
<svg version="1.0" xmlns="http://www.w3.org/2000/svg"
 width="175.000000pt" height="173.000000pt" viewBox="0 0 175.000000 173.000000"
 preserveAspectRatio="xMidYMid meet">
<metadata>
Created by potrace 1.16, written by Peter Selinger 2001-2019
</metadata>
<g transform="translate(0.000000,173.000000) scale(0.100000,-0.100000)"
fill="#000000" stroke="none">
<path d="M267 1518 c-8 -12 -18 -36 -21 -53 -9 -44 -16 -194 -9 -211 8 -21 37
-17 59 7 43 47 230 115 341 123 71 6 131 12 191 21 20 3 340 20 382 20 17 0
18 -16 6 -88 l-7 -48 -117 6 c-64 3 -135 8 -157 10 -22 3 -46 1 -54 -4 -31
-20 34 -35 176 -39 l143 -5 -4 -31 -3 -31 -184 0 c-155 -1 -184 -3 -184 -15 0
-13 29 -15 174 -17 95 -1 175 -4 178 -7 3 -3 2 -22 -2 -42 l-6 -37 -147 7
c-81 3 -158 8 -172 11 -14 3 -32 1 -40 -4 -34 -23 10 -32 176 -38 93 -3 170
-6 171 -7 1 -1 -3 -19 -9 -40 l-12 -37 -179 3 c-132 2 -181 0 -184 -9 -5 -14
40 -20 217 -28 74 -3 135 -7 136 -8 1 -1 -4 -17 -12 -35 -13 -33 -14 -33 -68
-28 -107 10 -300 9 -304 -2 -6 -20 20 -24 155 -23 178 2 203 -3 203 -38 0 -52
-5 -53 -166 -46 -82 3 -166 11 -187 16 -20 5 -42 7 -47 4 -17 -10 -11 -25 13
-34 17 -7 204 -18 350 -21 12 0 17 -8 17 -27 l0 -26 -172 8 c-214 9 -227 9
-235 1 -14 -13 17 -28 65 -31 28 -2 113 -5 189 -6 76 -1 141 -3 144 -5 4 -2 4
-18 0 -36 l-7 -33 -144 3 c-80 2 -180 5 -222 7 -43 2 -80 0 -82 -4 -16 -25 19
-30 221 -33 116 -2 215 -6 218 -10 4 -4 5 -14 1 -23 -5 -14 -30 -16 -203 -15
-109 1 -202 1 -207 1 -5 -1 -3 -8 5 -17 10 -13 37 -15 163 -13 243 3 236 3
236 -27 l0 -26 -152 6 c-84 4 -176 9 -204 12 -38 4 -53 2 -63 -9 -11 -13 -6
-16 31 -21 24 -3 117 -8 208 -11 161 -6 180 -9 180 -23 0 -13 -300 -13 -323 0
-13 6 -87 13 -177 15 -189 4 -196 5 -192 29 2 11 4 27 5 37 1 10 8 21 15 26 7
4 22 43 33 87 42 164 93 341 115 399 26 71 108 231 132 260 28 33 54 84 47 95
-3 5 -33 7 -68 4 -34 -3 -73 -2 -87 4 -16 6 -35 6 -52 0 -34 -12 -45 -38 -18
-45 11 -3 18 -8 15 -12 -2 -4 -6 -29 -9 -57 -3 -27 -14 -92 -25 -144 -12 -52
-28 -128 -36 -167 -9 -40 -25 -108 -36 -150 -34 -130 -77 -307 -81 -333 -3
-22 -7 -25 -37 -22 -19 1 -50 10 -69 19 -32 15 -35 15 -47 -1 -7 -9 -16 -46
-20 -82 -4 -36 -10 -78 -15 -93 -4 -16 -4 -35 1 -42 7 -12 14 -11 41 4 55 29
220 67 378 86 210 26 249 27 610 22 89 -1 152 9 158 27 3 9 -14 12 -61 12 -85
0 -158 10 -151 22 3 5 57 6 123 2 119 -7 271 2 271 15 0 4 -64 9 -142 9 -79 1
-167 5 -195 8 -51 6 -53 8 -53 36 l0 30 103 -3 c123 -2 162 -1 155 6 -3 3 -47
8 -99 11 -137 7 -162 12 -155 30 3 9 6 18 6 20 0 2 101 4 225 4 143 0 225 4
225 10 0 12 31 10 -215 17 -115 3 -211 6 -213 8 -1 1 1 16 4 34 l7 32 172 -7
c125 -5 174 -4 179 5 4 6 4 11 -1 12 -4 0 -19 2 -33 4 -14 1 -89 6 -167 10
-146 7 -152 9 -138 47 4 10 41 12 175 10 114 -2 170 0 170 8 0 5 -12 10 -27
11 -16 1 -53 3 -83 5 -30 2 -90 5 -134 8 -43 3 -80 7 -82 9 -2 2 1 18 7 36
l11 32 82 -1 c144 -3 191 -1 180 10 -5 5 -61 12 -124 16 -63 3 -117 8 -119 10
-2 2 0 18 6 36 6 21 15 32 24 29 35 -9 432 -2 442 8 6 6 9 12 6 14 -2 3 -102
7 -223 10 -120 4 -220 8 -221 9 -1 2 6 22 16 45 20 47 12 46 176 22 70 -10 93
-7 93 11 0 13 -25 19 -134 30 -55 6 -102 12 -104 15 -3 2 1 18 8 34 l12 30
151 3 c114 2 151 6 155 16 3 10 -11 13 -59 12 -35 -1 -101 -1 -147 -1 l-82 1
6 28 c4 15 11 31 15 37 5 5 62 10 126 12 64 2 118 5 121 8 13 13 -15 18 -115
22 -59 2 -109 5 -111 7 -5 5 44 81 81 128 36 45 31 72 -10 61 -16 -4 -113 -6
-218 -5 -104 1 -253 1 -330 0 -402 -6 -550 5 -592 44 l-21 20 -15 -24z m128
-73 c66 -7 86 -9 145 -14 15 -1 -11 -12 -60 -25 -47 -12 -99 -30 -117 -39 -50
-26 -61 -22 -61 21 -1 43 7 74 16 68 4 -2 39 -7 77 -11z m978 -18 c27 5 30 4
20 -8 -6 -8 -25 -39 -41 -69 -27 -49 -34 -55 -66 -58 -40 -4 -40 -4 -25 70 16
80 14 78 49 68 18 -5 46 -6 63 -3z m-762 -208 c-10 -22 -24 -46 -30 -52 -6 -6
-11 -15 -11 -19 0 -5 -14 -39 -32 -76 -17 -37 -39 -89 -50 -117 l-19 -50 7 45
c4 25 8 54 10 65 2 11 13 61 25 110 12 50 21 98 21 107 -1 13 10 18 41 21 23
2 45 4 49 5 4 1 -1 -16 -11 -39z m688 3 c-11 -31 -19 -37 -49 -32 -21 3 -22 4
-15 33 5 20 14 27 38 29 18 2 33 3 35 2 1 0 -3 -15 -9 -32z m-29 -67 c0 -3 -7
-21 -14 -40 -17 -40 -52 -50 -41 -12 4 12 9 30 11 40 5 15 44 26 44 12z m-46
-113 c2 -4 -4 -26 -14 -47 -14 -33 -19 -37 -25 -22 -13 31 23 95 39 69z m-46
-139 c-15 -34 -28 -51 -28 -35 0 18 22 62 31 62 5 0 3 -12 -3 -27z m-863 -559
c39 -2 126 -4 195 -5 95 -1 116 -3 85 -10 -55 -11 -397 -60 -401 -57 -4 5 -6
32 -5 61 1 25 4 27 29 21 15 -3 59 -8 97 -10z m358 -11 c-7 -2 -19 -2 -25 0
-7 3 -2 5 12 5 14 0 19 -2 13 -5z"/>
</g>
</svg>
