<?xml version="1.0" standalone="no"?>
<!DOCTYPE svg PUBLIC "-//W3C//DTD SVG 20010904//EN"
 "http://www.w3.org/TR/2001/REC-SVG-20010904/DTD/svg10.dtd">
<svg version="1.0" xmlns="http://www.w3.org/2000/svg"
 width="330.000000pt" height="262.000000pt" viewBox="0 0 330.000000 262.000000"
 preserveAspectRatio="xMidYMid meet">
<metadata>
Created by potrace 1.16, written by Peter Selinger 2001-2019
</metadata>
<g transform="translate(0.000000,262.000000) scale(0.100000,-0.100000)"
fill="#000000" stroke="none">
<path d="M1598 2528 c-31 -62 -241 -296 -335 -373 -50 -41 -99 -75 -108 -75
-31 0 -87 -29 -79 -41 5 -9 -10 -11 -62 -6 -38 4 -91 7 -117 7 -27 0 -46 3
-44 8 3 4 -45 7 -106 7 -62 0 -152 4 -202 8 -186 17 -371 37 -391 43 -12 3
-25 1 -29 -5 -3 -6 -8 -57 -11 -114 -2 -56 -9 -117 -15 -135 -18 -56 1 -63 74
-26 76 38 135 64 147 64 5 0 8 -19 7 -43 -1 -33 12 -71 60 -172 34 -72 80
-177 103 -235 23 -58 46 -111 52 -117 6 -7 8 -13 5 -13 -6 0 41 -120 103 -260
57 -129 91 -220 81 -220 -4 0 -52 6 -107 14 -54 8 -126 17 -159 21 -97 10
-186 31 -244 59 -60 28 -87 23 -93 -16 -4 -28 24 -193 34 -204 4 -4 15 -1 24
7 27 22 194 37 391 35 162 -1 184 -4 202 -20 19 -17 23 -17 39 -5 14 13 44 14
182 7 218 -9 269 -14 277 -22 11 -11 -48 -65 -78 -71 -27 -6 -49 -30 -49 -53
0 -5 19 -9 43 -9 68 0 206 -41 294 -87 44 -24 97 -49 116 -55 29 -10 36 -18
41 -46 5 -27 12 -35 28 -35 16 0 19 5 16 25 -7 35 -7 35 101 -37 28 -19 81
-24 81 -9 0 5 -10 13 -22 17 -13 4 -43 24 -67 45 -24 22 -54 39 -66 39 -27 0
-52 27 -57 60 -3 24 -1 25 57 28 77 3 97 10 72 23 -12 7 -34 7 -68 0 -70 -15
-69 -16 -69 29 l0 40 84 0 84 0 11 -63 c6 -35 11 -67 11 -71 0 -4 -20 -4 -44
-1 -24 4 -55 3 -68 -1 l-23 -8 25 -7 c14 -4 45 -7 70 -8 44 -1 46 -2 48 -33 2
-18 9 -39 17 -47 12 -12 13 -11 8 9 -5 19 -3 21 17 15 21 -7 22 -5 16 36 -13
83 -18 99 -28 93 -5 -4 -8 -22 -6 -40 2 -19 1 -31 -2 -26 -7 7 -52 345 -48
359 2 7 -5 68 -17 153 -2 14 -6 59 -10 101 -6 72 -5 77 15 82 24 6 53 -2 160
-45 41 -17 93 -38 115 -46 86 -34 101 -65 74 -154 -10 -34 -19 -74 -19 -87 0
-13 -19 -60 -42 -105 -23 -44 -52 -101 -65 -126 -12 -25 -23 -49 -23 -53 0 -5
-17 -33 -37 -64 -78 -114 -130 -207 -125 -225 4 -15 11 -17 37 -12 28 5 36 2
50 -20 20 -31 35 -32 65 -8 21 17 22 20 7 43 -18 28 -15 50 33 219 45 158 45
158 81 167 35 10 130 86 150 120 13 24 77 49 144 56 94 11 177 30 182 43 3 10
27 14 86 14 45 0 91 1 102 1 11 0 74 -2 140 -5 120 -6 168 3 135 23 -14 10
-81 14 -238 15 -69 1 -73 2 -79 26 -3 14 -10 30 -14 36 -5 6 -15 28 -23 50 -7
21 -28 71 -46 109 -18 39 -40 102 -51 140 -18 69 -73 228 -109 315 -10 25 -35
96 -55 159 -65 201 -85 233 -108 172 -11 -29 -11 -29 -106 -33 -53 -2 -97 -3
-99 -2 -2 1 1 11 7 22 12 23 32 29 148 42 48 5 122 15 163 21 41 6 138 12 215
14 276 8 356 18 329 45 -15 15 -220 28 -549 36 -165 3 -301 10 -303 15 -2 5
-10 9 -17 9 -8 0 -22 8 -32 18 -10 10 -47 29 -82 43 -35 13 -74 36 -86 52 -13
15 -33 27 -44 27 -19 0 -141 129 -141 149 0 5 -11 23 -26 40 -14 16 -36 56
-49 88 -13 32 -29 59 -37 61 -8 1 -21 -12 -30 -30z m55 -86 c15 -31 39 -76 52
-98 l25 -41 -45 15 c-25 8 -45 18 -45 23 0 5 -5 9 -11 9 -9 0 -88 34 -108 47
-8 5 75 102 89 102 8 0 27 -25 43 -57z m-113 -97 c7 -8 21 -15 31 -15 10 0 29
-10 43 -22 19 -18 23 -30 19 -55 -4 -27 -10 -33 -32 -34 -63 -2 -82 -6 -96
-20 -13 -13 -8 -15 50 -14 61 1 66 -1 71 -22 8 -30 9 -30 -51 -38 -27 -3 -55
-11 -62 -17 -15 -12 -25 -6 -30 20 -6 30 -11 217 -6 225 8 13 50 8 63 -8z
m196 -113 c14 -17 23 -22 28 -14 8 13 38 1 62 -23 21 -21 149 -94 170 -98 12
-1 33 -11 48 -20 20 -14 26 -25 26 -55 0 -30 -11 -51 -58 -109 -31 -39 -86
-111 -121 -160 -98 -134 -191 -243 -208 -243 -8 0 -26 9 -39 19 -13 11 -33 17
-43 14 -13 -3 -23 3 -32 19 -7 12 -18 28 -26 33 -22 16 -59 174 -52 223 3 23
3 65 -1 92 -4 27 -4 54 -1 59 3 5 39 12 79 16 l72 7 0 -25 c0 -14 2 -32 6 -40
4 -11 -7 -14 -56 -15 -59 -1 -96 -15 -85 -33 3 -4 37 -5 75 -2 l69 6 7 -39 c4
-21 8 -100 8 -174 1 -140 14 -183 29 -95 6 31 4 87 -3 150 -19 166 -26 266
-30 423 0 7 -6 10 -12 7 -7 -4 -5 0 4 8 11 9 16 23 13 38 -3 13 -8 39 -11 57
l-7 34 34 -17 c19 -10 43 -29 55 -43z m-290 -40 c5 -75 15 -345 14 -399 0 -18
6 -63 14 -100 8 -37 13 -69 12 -70 -7 -7 -126 64 -158 95 -29 28 -43 54 -64
120 -38 122 -32 152 54 266 38 50 79 108 92 128 14 20 26 35 28 34 1 -2 5 -35
8 -74z m-136 -68 c-57 -83 -61 -86 -99 -88 -56 -3 -73 10 -41 32 13 9 61 45
105 79 44 34 83 62 87 62 4 1 -20 -38 -52 -85z m320 -63 l0 -38 -60 -7 c-33
-4 -62 -11 -65 -16 -14 -23 -26 -8 -20 27 7 48 15 55 67 64 79 12 78 13 78
-30z m-1325 -2 c55 -5 143 -12 195 -15 52 -2 109 -9 126 -14 16 -6 64 -9 105
-6 40 2 112 0 159 -4 l85 -7 -69 -1 c-69 -2 -99 -6 -266 -38 -47 -9 -98 -18
-114 -20 -95 -13 -214 -37 -244 -50 -19 -8 -45 -14 -58 -14 -12 0 -25 -4 -28
-9 -3 -5 -14 -11 -25 -14 -17 -4 -18 1 -15 92 2 53 3 102 4 110 0 9 7 11 23 7
12 -3 67 -11 122 -17z m2365 -40 l105 -2 -120 -8 c-107 -7 -455 -52 -512 -66
-20 -4 -23 -1 -23 22 0 15 10 35 23 47 21 18 33 19 222 14 110 -3 247 -7 305
-7z m-1442 -15 c-10 -10 -21 -13 -29 -8 -12 7 0 14 41 23 2 1 -3 -6 -12 -15z
m-64 -35 l28 -16 -32 -36 c-18 -21 -28 -37 -23 -37 6 0 18 9 28 20 10 11 21
20 25 20 7 0 23 -66 24 -102 1 -9 10 -24 21 -32 34 -26 -4 -18 -72 15 -64 31
-73 44 -50 69 6 8 -5 1 -25 -16 -20 -16 -37 -32 -37 -36 -1 -3 14 -11 32 -17
48 -16 125 -57 165 -88 19 -14 87 -52 151 -84 64 -31 124 -66 133 -77 9 -12
33 -24 53 -28 19 -3 40 -14 45 -24 10 -20 70 -53 113 -64 15 -3 27 -13 27 -22
0 -10 7 -14 22 -12 18 2 24 12 30 43 12 58 11 58 38 95 37 52 180 325 180 344
0 7 7 21 15 32 14 18 15 15 13 -33 -1 -35 4 -58 14 -70 8 -10 18 -27 21 -38 3
-11 30 -90 60 -175 30 -85 60 -171 67 -190 6 -19 17 -46 24 -60 8 -14 28 -73
45 -133 18 -59 40 -127 51 -152 17 -39 39 -140 24 -107 -3 6 -10 12 -16 12 -5
0 -37 19 -71 43 -34 24 -80 49 -102 56 -44 15 -306 143 -450 220 -83 44 -90
50 -87 75 3 25 2 27 -18 16 -12 -6 -34 -32 -50 -58 -16 -26 -37 -58 -47 -72
-10 -14 -29 -48 -43 -77 -14 -28 -37 -64 -50 -80 -14 -15 -46 -55 -72 -88 -25
-33 -85 -97 -132 -142 -47 -45 -86 -87 -86 -93 0 -12 -21 -13 -53 -1 -26 10
-107 153 -107 189 0 11 -7 33 -15 48 -14 28 -14 29 11 32 33 4 26 24 -13 36
-24 6 -32 16 -37 39 -4 17 -28 76 -55 132 -26 55 -52 111 -56 125 -4 14 -27
63 -50 110 -42 83 -51 103 -95 205 -24 57 -72 211 -74 240 -1 22 0 22 169 48
117 18 352 15 389 -4z m-596 -69 c-2 -19 3 -35 12 -41 10 -7 -9 -9 -65 -7 -44
1 -100 -1 -125 -6 -36 -6 -43 -6 -33 5 8 8 9 18 2 30 -11 21 -4 24 96 38 112
16 117 15 113 -19z m1771 -59 c15 -4 30 -19 38 -39 l13 -32 -110 0 c-173 0
-130 -23 65 -35 55 -3 60 -6 67 -30 9 -34 1 -36 -106 -27 -70 6 -91 5 -102 -6
-12 -11 -15 -11 -18 0 -28 90 -40 126 -47 140 -5 10 -9 22 -9 28 0 11 170 12
209 1z m-1781 -27 c36 -6 43 -11 51 -38 4 -17 7 -33 5 -34 -1 -2 -43 1 -93 8
-63 8 -95 8 -109 1 -18 -9 -22 -7 -31 21 -13 37 -12 39 36 49 37 7 54 6 141
-7z m1368 -83 c-9 -16 -16 -35 -16 -40 0 -13 -52 -120 -85 -176 -21 -36 -27
-40 -57 -37 -18 2 -36 7 -40 10 -4 4 20 39 52 77 33 39 81 100 107 136 50 70
65 82 39 30z m-1359 -23 c60 -11 65 -14 79 -46 8 -19 13 -37 11 -38 -2 -2 -42
0 -90 4 -48 4 -93 4 -101 0 -10 -6 -19 4 -32 35 -10 23 -20 45 -22 50 -6 11
83 8 155 -5z m1818 -74 c56 -7 56 -7 59 -26 1 -7 5 -19 10 -26 4 -7 12 -26 17
-42 5 -17 13 -43 18 -58 l8 -28 -66 8 c-36 5 -90 6 -119 3 l-53 -6 -15 37 c-8
20 -13 38 -11 41 7 7 37 7 128 -2 63 -5 88 -4 94 5 4 6 3 16 -2 21 -12 12
-168 17 -205 6 -25 -7 -28 -4 -37 30 -6 21 -11 42 -11 47 0 8 84 4 185 -10z
m-1784 -45 c73 -12 78 -14 93 -46 9 -18 15 -33 13 -33 -1 0 -32 6 -69 14 -42
9 -80 11 -102 6 -39 -9 -49 -2 -60 43 -6 24 -4 27 21 27 16 0 62 -5 104 -11z
m34 -104 c22 -8 52 -15 67 -15 17 0 31 -8 38 -19 21 -41 15 -44 -78 -38 -48 3
-95 1 -104 -4 -13 -7 -19 -1 -32 31 -9 22 -16 45 -16 50 0 15 79 11 125 -5z
m1844 -53 c26 9 43 -5 34 -28 -2 -6 0 -15 6 -19 29 -17 1 -23 -104 -21 -64 2
-117 5 -119 7 -2 2 -6 16 -10 31 -7 33 1 35 98 27 39 -3 82 -2 95 3z m-1749
-52 c37 0 49 -4 53 -17 2 -10 8 -26 12 -35 6 -16 1 -17 -51 -12 -62 5 -115 -5
-121 -23 -3 -9 70 -19 180 -23 15 -1 47 -51 47 -74 0 -3 -42 -5 -92 -5 -51 0
-102 -2 -112 -3 -16 -3 -26 14 -57 94 -36 95 -36 97 -15 102 11 2 41 2 65 0
24 -2 65 -4 91 -4z m1776 -55 c38 0 41 -2 42 -27 1 -32 -2 -32 -81 -18 -38 7
-69 8 -92 1 -32 -9 -37 -7 -52 16 -24 36 -4 45 77 36 36 -5 83 -8 106 -8z
m-831 -25 c20 -11 42 -20 49 -20 19 0 46 -34 38 -47 -6 -9 -26 -9 -82 -1 -41
6 -79 14 -83 18 -10 9 19 70 33 70 5 0 25 -9 45 -20z m871 -60 c15 0 24 -12
39 -52 10 -29 29 -74 42 -100 30 -62 29 -68 -9 -63 -135 17 -168 18 -168 2 0
-12 15 -17 58 -22 132 -15 157 -23 175 -59 8 -19 14 -36 12 -38 -7 -6 -209 12
-231 21 -14 6 -28 31 -43 76 -13 37 -21 69 -18 71 7 7 68 7 133 0 62 -8 89 3
66 26 -15 15 -176 16 -194 0 -13 -10 -18 -7 -31 20 -9 18 -14 35 -11 39 2 4
49 5 105 2 83 -4 101 -3 97 8 -6 17 -113 29 -168 19 -41 -8 -50 0 -50 42 0 19
4 20 88 14 48 -3 96 -6 108 -6z m-726 -30 c14 -11 22 -20 18 -20 -14 0 -58 23
-58 32 0 13 13 9 40 -12z m-164 -1 c69 -12 92 -26 34 -21 -39 4 -110 -13 -110
-27 0 -3 18 -5 40 -3 61 6 127 -6 134 -25 4 -9 9 -42 13 -74 l6 -57 -46 9
c-44 8 -67 7 -109 -6 -17 -6 -19 -3 -16 22 3 27 5 28 67 33 40 3 66 10 69 18
3 10 -12 12 -69 10 -72 -3 -74 -2 -87 25 -14 28 -8 107 7 107 4 0 34 -5 67
-11z m-849 -55 c56 -6 64 -9 77 -35 l14 -28 -81 3 c-81 4 -117 -4 -117 -26 0
-6 11 -8 25 -6 42 9 177 -8 185 -23 12 -19 3 -28 -20 -22 -11 3 -40 2 -65 -1
-35 -6 -45 -11 -45 -26 0 -15 6 -17 38 -13 20 2 55 1 76 -4 34 -7 41 -14 52
-47 l14 -38 -38 7 c-62 12 -96 13 -119 4 -38 -14 -26 -26 30 -32 132 -15 144
-18 158 -46 7 -14 15 -29 17 -32 1 -4 -14 -3 -35 2 -21 5 -70 13 -110 19 l-72
12 -31 64 c-16 35 -30 69 -30 74 0 6 -18 46 -40 90 -22 44 -40 84 -40 90 0 14
38 27 69 24 14 -2 54 -6 88 -10z m752 -94 c6 -47 13 -132 15 -190 3 -58 7
-116 11 -130 3 -14 10 -59 15 -100 5 -41 12 -97 16 -124 7 -49 7 -49 -18 -43
-14 4 -51 22 -84 42 -32 19 -72 40 -90 47 -25 9 -34 20 -44 57 -7 25 -13 64
-14 86 -2 22 -6 49 -9 61 -9 24 104 274 124 274 7 0 9 9 5 25 -4 14 -3 25 2
25 5 0 16 16 26 36 10 22 21 33 26 28 5 -5 14 -47 19 -94z m221 -102 c0 -24
-5 -27 -57 -38 -32 -6 -68 -12 -81 -13 -12 -1 -21 -6 -20 -12 3 -11 13 -11
106 2 l62 9 1 -40 c1 -23 4 -59 7 -81 3 -22 5 -64 6 -94 l1 -54 -82 -1 c-79
-1 -82 0 -88 23 -9 36 8 45 86 43 53 -2 70 1 66 10 -3 9 -27 12 -84 10 l-80
-2 -12 57 c-15 78 -15 200 2 206 6 2 47 4 89 3 77 -1 78 -1 78 -28z m-426 -79
c-14 -35 -30 -68 -35 -73 -5 -6 -9 -18 -9 -27 0 -29 -17 -31 -60 -9 l-41 21
82 80 c45 44 83 78 85 76 2 -2 -8 -33 -22 -68z m-1064 -23 c36 -8 103 -17 150
-21 47 -3 117 -11 155 -17 81 -12 102 -15 133 -17 12 0 22 -5 22 -11 0 -6 -59
-10 -157 -9 -151 1 -239 -4 -348 -21 -27 -4 -51 -7 -51 -6 -1 0 -4 34 -8 74
l-6 73 23 -15 c12 -8 51 -22 87 -30z m1981 29 c3 0 13 -8 22 -17 16 -15 15
-18 -14 -40 -17 -13 -50 -40 -75 -62 -24 -21 -44 -33 -44 -26 0 23 84 158 95
152 5 -4 13 -7 16 -7z m-1362 -111 c2 -2 -19 -4 -47 -4 -29 0 -52 4 -52 10 0
9 88 3 99 -6z m41 -10 c0 -2 -7 -4 -15 -4 -8 0 -15 4 -15 10 0 5 7 7 15 4 8
-4 15 -8 15 -10z m362 -134 c20 -35 10 -38 -41 -17 l-32 14 23 16 c31 21 30
21 50 -13z m684 -221 c-13 -41 -27 -86 -30 -101 -7 -29 -33 -37 -53 -17 -8 8
4 34 43 97 30 47 54 90 54 96 0 5 2 7 5 4 3 -3 -6 -38 -19 -79z"/>
<path d="M1535 2291 c-11 -5 -26 -6 -32 -4 -7 3 -13 0 -13 -7 0 -16 86 -8 103
9 13 13 -26 14 -58 2z"/>
<path d="M1585 1773 c-53 -6 -75 -13 -75 -23 0 -13 86 -13 111 0 21 12 26 31
7 29 -7 -1 -26 -4 -43 -6z"/>
<path d="M1552 1668 c-22 -22 -12 -31 32 -26 39 5 44 3 54 -21 l12 -26 -5 27
c-3 15 -1 30 5 33 5 3 10 10 10 16 0 13 -94 11 -108 -3z"/>
<path d="M1698 820 c-79 -14 -85 -26 -11 -22 85 4 103 9 83 22 -8 6 -17 9 -20
9 -3 -1 -26 -5 -52 -9z"/>
</g>
</svg>
