<?xml version="1.0" standalone="no"?>
<!DOCTYPE svg PUBLIC "-//W3C//DTD SVG 20010904//EN"
 "http://www.w3.org/TR/2001/REC-SVG-20010904/DTD/svg10.dtd">
<svg version="1.0" xmlns="http://www.w3.org/2000/svg"
 width="242.000000pt" height="112.000000pt" viewBox="0 0 242.000000 112.000000"
 preserveAspectRatio="xMidYMid meet">
<metadata>
Created by potrace 1.16, written by Peter Selinger 2001-2019
</metadata>
<g transform="translate(0.000000,112.000000) scale(0.100000,-0.100000)"
fill="#000000" stroke="none">
<path d="M1697 858 c-70 -3 -169 -12 -220 -20 -137 -19 -683 -15 -801 7 -44 9
-56 -9 -56 -80 0 -34 -7 -129 -15 -211 -8 -82 -16 -173 -18 -203 l-4 -54 -156
2 c-161 2 -211 -6 -185 -33 10 -9 65 -12 203 -13 105 -1 302 -1 438 -2 137 -1
252 1 257 4 4 3 89 5 189 6 131 0 181 4 181 12 0 9 2 9 8 0 8 -13 62 -15 231
-7 83 4 122 2 139 -7 19 -11 27 -11 45 0 18 12 61 14 147 8 19 -2 25 3 25 18
0 18 -7 20 -85 20 -61 0 -84 3 -83 12 2 7 5 50 9 95 3 46 9 101 14 123 5 22
10 69 10 105 1 59 4 84 25 176 7 31 7 31 -42 39 -65 11 -106 11 -256 3z m-38
-85 c-3 -32 -16 -114 -27 -183 -12 -69 -25 -161 -29 -205 l-8 -80 -60 -5 c-33
-3 -79 -3 -103 -1 -53 4 -65 26 -47 85 7 23 16 77 19 121 10 112 36 289 44
297 4 4 45 10 92 14 47 3 87 8 89 10 2 2 12 4 21 4 13 0 15 -9 9 -57z m186 48
c6 -3 30 -6 55 -6 l45 0 -3 -60 c-2 -33 -10 -105 -18 -160 -8 -55 -20 -143
-26 -195 -5 -52 -11 -96 -12 -97 -2 -2 -144 -5 -205 -4 l-44 1 7 90 c4 49 18
163 31 252 14 90 25 168 25 175 0 13 125 16 145 4z m-1029 -24 c78 -2 93 -5
89 -17 -7 -23 -35 -214 -46 -315 -6 -49 -12 -109 -15 -132 l-5 -41 -95 0 c-57
1 -98 6 -104 13 -6 7 -4 59 5 140 8 72 14 139 14 150 -1 15 5 127 11 217 0 4
12 3 26 -3 15 -5 69 -11 120 -12z m584 -39 c0 -24 -5 -61 -10 -83 -6 -22 -17
-96 -25 -164 -9 -68 -20 -131 -25 -141 -6 -10 -10 -30 -10 -43 0 -31 -19 -37
-129 -37 l-83 0 5 53 c3 28 13 99 22 157 14 92 30 204 37 265 4 26 25 31 131
34 l87 2 0 -43z m-245 15 c-2 -10 -9 -47 -15 -83 -7 -36 -14 -74 -16 -85 -3
-11 -12 -67 -21 -125 -8 -58 -18 -123 -22 -145 l-6 -40 -95 0 -95 0 2 90 c1
50 7 117 12 150 20 122 36 230 35 243 -1 9 27 12 111 12 102 0 113 -2 110 -17z"/>
</g>
</svg>
