<?xml version="1.0" standalone="no"?>
<!DOCTYPE svg PUBLIC "-//W3C//DTD SVG 20010904//EN"
 "http://www.w3.org/TR/2001/REC-SVG-20010904/DTD/svg10.dtd">
<svg version="1.0" xmlns="http://www.w3.org/2000/svg"
 width="223.000000pt" height="130.000000pt" viewBox="0 0 223.000000 130.000000"
 preserveAspectRatio="xMidYMid meet">
<metadata>
Created by potrace 1.16, written by Peter Selinger 2001-2019
</metadata>
<g transform="translate(0.000000,130.000000) scale(0.100000,-0.100000)"
fill="#000000" stroke="none">
<path d="M770 1215 c-15 -27 -84 -87 -112 -98 -10 -3 -18 -13 -18 -22 0 -23
75 -94 173 -164 48 -35 87 -67 87 -71 0 -5 -18 -27 -40 -49 -51 -51 -80 -53
-123 -7 -133 141 -219 255 -238 315 -17 52 -25 57 -46 25 -10 -15 -42 -52 -70
-80 -29 -29 -53 -60 -53 -69 0 -9 13 -22 30 -29 31 -12 121 -82 194 -148 l41
-38 -160 6 c-89 4 -174 12 -191 19 -25 10 -33 10 -50 -4 -17 -14 -20 -25 -17
-66 3 -28 6 -102 7 -165 3 -99 5 -115 20 -118 11 -2 19 4 22 16 4 15 23 23 82
35 80 17 275 48 278 44 2 -1 -40 -46 -92 -99 -58 -60 -111 -105 -138 -117 -67
-31 -66 -47 5 -78 41 -18 65 -35 75 -55 15 -29 22 -33 40 -20 12 7 56 75 93
143 11 19 35 54 53 76 18 22 51 64 73 93 22 29 48 61 58 72 25 27 77 23 110
-8 28 -26 28 -26 9 -48 -50 -56 -209 -246 -227 -271 -11 -15 -30 -42 -42 -58
-26 -35 -19 -52 26 -62 15 -3 53 -22 86 -41 69 -42 70 -41 110 66 27 70 72
155 101 190 7 8 15 26 19 40 3 14 14 35 23 47 l17 23 55 -55 c30 -30 63 -55
74 -55 10 0 46 -30 81 -67 60 -64 84 -77 71 -36 -3 10 -40 54 -82 98 -42 44
-96 103 -119 130 -38 44 -41 53 -32 75 19 44 78 111 96 108 23 -4 204 -200
247 -266 27 -42 39 -53 57 -50 42 6 31 36 -40 111 -62 65 -135 147 -172 192
-7 9 -11 19 -8 22 3 3 43 9 89 14 46 5 108 14 138 19 95 17 427 16 487 -2 55
-16 73 -10 73 24 0 14 -8 18 -37 19 -21 0 -47 2 -58 4 -36 8 -266 15 -485 16
-119 0 -221 4 -228 8 -9 5 6 34 50 100 35 50 77 115 95 142 17 28 39 59 47 68
17 19 21 41 8 41 -14 0 -39 -23 -77 -70 -20 -25 -52 -63 -70 -85 -18 -22 -57
-68 -85 -103 l-52 -64 -49 54 c-26 29 -48 58 -48 63 -1 11 145 178 160 183 15
6 10 22 -6 22 -9 0 -54 -39 -101 -87 l-85 -88 -27 32 c-67 78 -92 123 -114
201 -25 88 -43 104 -68 57z m50 -92 c1 -25 47 -102 95 -159 45 -53 47 -62 23
-78 -13 -8 -20 -7 -30 6 -7 9 -51 49 -98 89 -47 41 -87 79 -89 84 -3 9 75 73
92 74 4 1 7 -7 7 -16z m-272 -150 c34 -43 76 -94 93 -113 18 -19 44 -48 58
-64 l26 -29 -38 6 c-28 4 -60 24 -120 76 -96 82 -157 144 -157 159 0 12 47 41
66 42 6 0 38 -35 72 -77z m522 -192 l23 -33 -24 7 c-30 10 -60 32 -82 62 -14
18 -15 26 -6 41 11 18 14 17 39 -12 14 -17 37 -46 50 -65z m-78 -8 c16 -17 15
-18 -28 -15 -48 4 -49 5 -34 33 12 21 32 16 62 -18z m-432 -34 c78 -2 113 -13
142 -46 17 -18 16 -21 -25 -61 -41 -40 -48 -43 -127 -53 -47 -6 -131 -17 -187
-25 -56 -8 -105 -14 -110 -14 -4 0 -9 48 -11 105 l-3 106 123 -6 c68 -3 157
-6 198 -6z m201 -32 c-11 -11 -41 -3 -41 11 0 5 12 7 26 4 17 -3 22 -8 15 -15z
m262 4 c26 -6 27 -7 12 -28 -17 -24 -71 -43 -121 -43 -40 0 -73 41 -52 65 14
15 106 19 161 6z m284 -15 c2 -2 -21 -7 -51 -10 -59 -8 -96 -2 -96 16 0 10
137 4 147 -6z m-459 -65 c3 -8 -1 -12 -9 -9 -7 2 -15 10 -17 17 -3 8 1 12 9 9
7 -2 15 -10 17 -17z m-78 5 c0 -13 -34 -36 -52 -36 -19 0 -19 1 3 20 22 17 49
26 49 16z m252 -61 c-25 -40 -30 -44 -42 -30 -11 13 -7 20 25 51 21 19 39 33
42 30 2 -2 -9 -25 -25 -51z m-57 25 c-3 -5 -13 -10 -21 -10 -8 0 -14 5 -14 10
0 6 9 10 21 10 11 0 17 -4 14 -10z m-45 -42 c0 -13 -43 15 -48 31 -3 9 5 7 22
-4 14 -10 26 -22 26 -27z m-225 -24 c-9 -14 -24 -33 -33 -43 -26 -27 -52 -61
-52 -66 0 -3 -13 -17 -28 -32 -16 -16 -33 -35 -38 -44 -5 -9 -22 -31 -37 -49
-26 -30 -29 -31 -57 -20 -17 7 -30 14 -30 16 0 3 19 24 43 47 23 24 60 65 82
91 78 94 114 126 141 126 26 0 26 0 9 -26z m266 -21 c13 -16 12 -17 -3 -4 -10
7 -18 15 -18 17 0 8 8 3 21 -13z m-41 -106 c-18 -34 -45 -78 -59 -97 -40 -54
-50 -70 -78 -133 -14 -31 -29 -57 -32 -57 -3 0 -21 13 -39 28 l-33 27 17 35
c29 59 91 142 183 242 38 42 45 46 58 32 14 -13 12 -22 -17 -77z"/>
</g>
</svg>
