<?xml version="1.0" standalone="no"?>
<!DOCTYPE svg PUBLIC "-//W3C//DTD SVG 20010904//EN"
 "http://www.w3.org/TR/2001/REC-SVG-20010904/DTD/svg10.dtd">
<svg version="1.0" xmlns="http://www.w3.org/2000/svg"
 width="260.000000pt" height="136.000000pt" viewBox="0 0 260.000000 136.000000"
 preserveAspectRatio="xMidYMid meet">
<metadata>
Created by potrace 1.16, written by Peter Selinger 2001-2019
</metadata>
<g transform="translate(0.000000,136.000000) scale(0.100000,-0.100000)"
fill="#000000" stroke="none">
<path d="M1279 1216 c-9 -19 -8 -29 6 -49 17 -26 16 -27 -15 -46 -18 -10 -55
-41 -83 -68 -70 -67 -191 -153 -235 -169 -43 -14 -48 -35 -12 -44 14 -4 -25
-10 -94 -15 -153 -10 -331 11 -427 49 -75 30 -97 32 -124 12 -17 -12 -20 -29
-22 -112 -1 -54 -4 -108 -7 -120 -4 -13 0 -27 10 -34 8 -7 13 -19 10 -26 -3
-7 -1 -51 4 -99 7 -68 6 -92 -6 -121 -16 -38 -13 -64 7 -64 6 0 34 23 62 51
43 44 153 109 184 109 5 0 18 8 29 18 16 15 35 18 99 18 44 -1 124 2 178 7
l98 7 -20 -29 c-31 -43 -9 -48 48 -12 26 17 60 31 74 31 23 0 27 -4 27 -29 0
-16 5 -42 11 -57 9 -26 9 -27 -8 -13 -44 38 -128 51 -128 20 0 -7 19 -21 43
-30 31 -12 50 -29 67 -58 14 -22 58 -66 100 -97 l76 -58 -3 -71 c-4 -84 9 -95
61 -51 37 31 93 49 216 70 209 36 321 45 509 42 144 -2 190 0 193 9 9 25 -52
35 -197 34 -80 0 -168 -3 -195 -7 -58 -7 -328 11 -484 32 -33 4 -42 3 -39 -8
8 -25 55 -37 169 -45 l114 -7 -80 -12 c-44 -6 -108 -19 -141 -28 -34 -9 -66
-16 -70 -16 -5 0 -8 34 -6 75 3 62 1 75 -12 75 -8 0 -18 -4 -21 -10 -10 -16
-17 -12 -73 38 -48 44 -52 49 -44 77 5 17 6 39 1 50 -4 11 -8 55 -8 97 -1 42
-5 79 -10 83 -6 3 -32 -8 -60 -25 -46 -28 -59 -31 -173 -38 -152 -9 -204 -8
-344 5 -109 10 -149 22 -170 51 -6 8 -15 12 -20 9 -6 -3 -15 -2 -22 2 -9 5 -3
18 20 44 34 39 143 87 195 87 17 0 27 7 30 20 5 19 10 20 52 13 25 -4 73 -8
106 -7 33 1 109 2 168 3 64 1 116 -3 129 -10 18 -10 24 -8 39 12 10 13 19 28
19 32 0 5 20 35 45 67 24 33 53 77 64 99 11 21 33 49 48 61 27 22 28 22 31 2
2 -11 12 -28 23 -38 17 -16 24 -16 52 -5 18 7 52 18 77 25 230 67 235 68 364
72 90 3 140 10 163 21 27 13 56 15 147 11 114 -5 146 1 146 27 0 12 -27 15
-157 16 -87 1 -174 3 -193 5 -140 11 -169 14 -199 23 -19 6 -67 10 -105 10
-96 -2 -245 11 -252 22 -11 18 -45 9 -55 -15z m391 -57 c19 -5 49 -9 65 -10
17 -1 -4 -7 -45 -14 -41 -7 -113 -22 -160 -35 -89 -22 -103 -26 -159 -36 l-34
-7 6 39 c4 21 7 49 7 61 0 22 1 22 143 16 78 -2 158 -9 177 -14z m-564 -241
c-9 -13 -26 -38 -39 -55 -24 -36 -42 -42 -51 -17 -4 11 2 23 16 33 12 9 36 26
53 38 38 28 41 28 21 1z m-744 -75 c5 -12 100 -46 126 -46 32 1 28 -2 -66 -36
l-82 -30 0 60 c0 32 4 59 9 59 5 0 11 -3 13 -7z m120 -326 l57 0 -53 -22 c-56
-23 -122 -60 -144 -82 -7 -7 -15 -13 -18 -13 -2 0 -4 38 -4 85 l0 84 52 -26
c39 -19 68 -26 110 -26z"/>
<path d="M1575 906 c-24 -17 -33 -78 -41 -268 -5 -104 -4 -162 3 -170 7 -8 8
-34 2 -72 -4 -33 -6 -63 -3 -68 9 -14 41 -9 55 8 7 9 33 25 57 36 51 24 104
75 138 133 27 46 47 166 37 217 -8 41 -47 93 -93 124 -19 13 -46 32 -60 43
-34 26 -73 33 -95 17z m110 -95 c61 -55 69 -76 68 -162 -2 -90 -30 -158 -83
-203 -30 -24 -76 -43 -85 -34 -2 2 1 60 7 128 5 69 11 170 13 225 2 55 4 101
4 103 2 5 39 -23 76 -57z"/>
</g>
</svg>
