<?xml version="1.0" standalone="no"?>
<!DOCTYPE svg PUBLIC "-//W3C//DTD SVG 20010904//EN"
 "http://www.w3.org/TR/2001/REC-SVG-20010904/DTD/svg10.dtd">
<svg version="1.0" xmlns="http://www.w3.org/2000/svg"
 width="214.000000pt" height="184.000000pt" viewBox="0 0 214.000000 184.000000"
 preserveAspectRatio="xMidYMid meet">
<metadata>
Created by potrace 1.16, written by Peter Selinger 2001-2019
</metadata>
<g transform="translate(0.000000,184.000000) scale(0.100000,-0.100000)"
fill="#000000" stroke="none">
<path d="M550 1740 c-14 -4 -53 -8 -87 -9 -79 -1 -94 -20 -56 -69 16 -21 36
-75 55 -150 16 -64 36 -127 44 -139 8 -12 14 -30 14 -39 0 -14 -10 -15 -82 -9
-46 4 -115 13 -155 21 -80 16 -120 7 -127 -30 -6 -31 -26 -211 -26 -235 0 -24
36 -47 53 -33 16 13 232 34 366 36 l44 1 13 -50 c18 -69 61 -195 78 -225 12
-22 33 -104 52 -200 4 -19 12 -39 19 -45 7 -5 21 -36 30 -67 14 -45 15 -61 6
-72 -18 -22 2 -46 70 -86 32 -19 59 -37 59 -42 0 -4 7 -5 15 -2 8 3 29 1 47
-5 18 -5 57 -12 87 -15 30 -3 59 -10 64 -15 11 -11 78 -6 145 11 33 8 49 8 68
-2 15 -8 28 -10 33 -4 9 8 102 282 132 384 7 25 16 50 20 55 4 6 12 30 19 55
7 25 28 97 47 160 19 63 42 140 51 170 8 30 19 60 22 65 4 6 10 22 14 38 7 31
8 31 153 27 79 -2 94 1 99 15 12 29 -12 37 -121 37 l-106 1 6 26 c4 14 15 43
25 66 10 22 30 85 44 140 15 55 32 113 38 128 10 25 8 31 -11 50 l-23 22 -26
-34 c-15 -19 -27 -39 -27 -45 -2 -26 -90 -307 -107 -339 -8 -16 -21 -18 -141
-13 -251 11 -362 17 -397 21 -19 2 -118 7 -220 10 -102 4 -188 9 -191 11 -4 2
-13 37 -19 77 -7 39 -20 102 -30 138 -12 44 -16 89 -14 142 4 74 3 77 -19 76
-12 -1 -33 -5 -47 -9z m20 -79 c0 -16 7 -63 16 -103 9 -40 24 -109 33 -153
l17 -80 -25 -6 c-40 -8 -46 -3 -70 67 -13 35 -27 67 -32 70 -5 3 -7 9 -4 13 5
9 -19 142 -30 173 -5 11 -2 19 6 22 8 2 28 8 44 14 44 15 45 15 45 -17z m-203
-366 c33 0 59 -3 57 -7 -3 -4 21 -8 52 -10 63 -3 58 4 83 -102 6 -27 10 -50 9
-51 -3 -3 -160 -13 -315 -20 -73 -3 -70 -11 -52 122 l12 82 46 -7 c25 -4 74
-7 108 -7z m276 -22 c3 -5 8 -39 12 -76 7 -68 7 -69 -15 -65 -18 2 -28 15 -41
53 -27 77 -25 95 10 95 17 0 32 -3 34 -7z m417 -13 c140 -6 275 -13 300 -15
25 -2 81 -4 125 -4 148 -3 40 -25 -245 -51 -151 -14 -182 -17 -330 -35 -223
-27 -207 -27 -214 -2 -3 12 -6 46 -6 76 l0 54 58 -7 c31 -3 172 -11 312 -16z
m520 -68 c0 -4 -18 -43 -41 -86 -72 -140 -159 -256 -279 -376 -111 -111 -120
-118 -249 -183 -74 -37 -141 -73 -148 -78 -14 -12 -22 3 -43 81 -7 25 -16 54
-20 65 -11 26 -65 207 -80 265 -6 25 -14 87 -18 137 -7 84 -6 92 9 88 9 -3 82
4 163 15 163 23 179 25 386 40 80 6 177 17 215 23 92 16 105 17 105 9z m25
-99 c-18 -54 -45 -134 -60 -178 -15 -44 -33 -100 -41 -125 -7 -25 -18 -58 -23
-75 -17 -47 -79 -233 -103 -308 -26 -82 -45 -95 -138 -93 -109 3 -340 82 -340
117 0 5 17 16 37 24 21 9 40 19 43 23 3 5 23 16 45 26 211 98 432 341 588 649
11 20 21 37 22 37 2 0 -11 -44 -30 -97z m-941 -35 c-5 -50 -7 -52 -14 -23 -13
51 -12 69 3 56 8 -6 13 -21 11 -33z"/>
</g>
</svg>
