<?xml version="1.0" standalone="no"?>
<!DOCTYPE svg PUBLIC "-//W3C//DTD SVG 20010904//EN"
 "http://www.w3.org/TR/2001/REC-SVG-20010904/DTD/svg10.dtd">
<svg version="1.0" xmlns="http://www.w3.org/2000/svg"
 width="100.000000pt" height="91.000000pt" viewBox="0 0 100.000000 91.000000"
 preserveAspectRatio="xMidYMid meet">
<metadata>
Created by potrace 1.16, written by Peter Selinger 2001-2019
</metadata>
<g transform="translate(0.000000,91.000000) scale(0.100000,-0.100000)"
fill="#000000" stroke="none">
<path d="M505 800 c-30 -10 -58 -14 -70 -10 -12 5 -48 10 -80 11 -55 4 -60 2
-57 -16 2 -11 6 -51 9 -88 l5 -68 -73 6 c-41 4 -78 11 -84 16 -16 16 -54 10
-65 -11 -7 -14 -7 -33 1 -66 7 -28 9 -77 6 -125 -4 -49 -3 -81 4 -85 6 -3 27
5 47 19 54 37 134 78 146 74 5 -2 11 -12 13 -23 3 -16 22 -246 23 -281 0 -7 7
-13 15 -13 8 0 15 6 16 13 3 36 -3 214 -7 228 -3 11 3 18 16 22 15 4 20 13 20
39 0 57 15 65 119 72 l54 4 -6 -147 c-3 -80 -10 -159 -14 -176 -14 -48 -10
-100 7 -100 11 0 17 16 22 55 3 30 11 90 16 133 5 43 16 85 25 95 8 9 20 43
27 74 6 32 15 60 20 63 6 3 69 6 142 6 128 0 174 8 153 27 -6 5 -68 14 -139
20 -70 6 -131 13 -134 17 -9 8 49 124 86 173 19 25 30 48 25 52 -12 10 -183
-6 -196 -19 -20 -20 5 -32 43 -21 19 6 46 8 60 5 l26 -6 -44 -90 c-37 -76 -47
-90 -65 -87 -20 3 -22 8 -20 73 3 81 -2 105 -24 105 -12 0 -13 3 -3 15 11 14
6 36 -8 34 -4 -1 -29 -9 -57 -19z m-83 -52 c31 -9 44 -9 59 0 30 19 24 -6 -20
-79 -37 -61 -41 -64 -72 -60 -19 1 -36 7 -39 11 -3 4 -3 38 -2 74 4 73 6 75
74 54z m141 -66 c3 -68 2 -73 -18 -78 -12 -3 -36 -4 -53 -2 l-30 3 46 77 c25
42 47 76 49 74 1 -1 4 -35 6 -74z m-260 -99 c13 -8 8 -83 -5 -83 -7 0 -44 -16
-82 -35 -39 -19 -72 -35 -74 -35 -3 0 -2 26 2 58 4 34 2 71 -4 86 l-10 26 83
-6 c45 -3 85 -8 90 -11z m81 -38 c-20 -30 -30 -32 -37 -6 -6 25 0 31 30 31 23
0 23 -1 7 -25z m129 14 l42 -2 -45 -8 c-25 -4 -56 -8 -69 -8 -20 -1 -22 1 -11
14 7 9 20 13 27 10 8 -3 33 -6 56 -6z m87 -106 c-10 -16 -11 -15 -6 7 3 14 6
32 7 40 1 8 4 5 6 -7 2 -12 -1 -30 -7 -40z m-249 4 c-10 -9 -11 -8 -5 6 3 10
9 15 12 12 3 -3 0 -11 -7 -18z"/>
</g>
</svg>
