<?xml version="1.0" standalone="no"?>
<!DOCTYPE svg PUBLIC "-//W3C//DTD SVG 20010904//EN"
 "http://www.w3.org/TR/2001/REC-SVG-20010904/DTD/svg10.dtd">
<svg version="1.0" xmlns="http://www.w3.org/2000/svg"
 width="312.000000pt" height="137.000000pt" viewBox="0 0 312.000000 137.000000"
 preserveAspectRatio="xMidYMid meet">
<metadata>
Created by potrace 1.16, written by Peter Selinger 2001-2019
</metadata>
<g transform="translate(0.000000,137.000000) scale(0.100000,-0.100000)"
fill="#000000" stroke="none">
<path d="M1800 1322 c0 -17 -114 -125 -241 -227 -90 -72 -231 -176 -247 -182
-9 -4 -35 -19 -56 -35 -21 -15 -47 -28 -57 -28 -56 0 -64 -29 -16 -61 17 -12
34 -24 36 -26 2 -1 -2 -9 -9 -18 -11 -13 -15 -13 -33 0 -15 10 -47 15 -102 15
-44 0 -152 9 -240 20 -88 12 -185 23 -216 25 -70 5 -221 39 -272 60 -64 27
-71 13 -64 -126 3 -67 1 -121 -4 -126 -12 -12 -2 -40 18 -47 9 -4 23 0 32 8
15 13 53 19 206 31 39 3 86 7 105 9 19 2 71 7 115 11 44 3 116 13 160 21 44 7
104 16 133 18 29 3 57 8 62 11 10 6 17 8 88 21 43 8 42 -11 -4 -71 -34 -46
-35 -47 -17 -67 16 -19 84 -62 151 -97 60 -31 172 -122 222 -180 78 -90 150
-139 150 -102 0 4 -16 26 -36 49 -19 23 -30 40 -22 37 7 -3 22 -18 33 -35 11
-16 30 -34 42 -41 13 -7 28 -25 35 -41 16 -35 35 -36 51 0 40 92 171 276 222
311 11 8 53 47 92 88 43 43 81 73 93 73 11 0 20 6 20 14 0 31 75 40 414 51 71
3 132 8 135 13 12 17 48 24 135 28 116 4 135 21 24 22 -106 2 -144 6 -243 26
-48 9 -134 16 -215 17 -74 1 -178 4 -230 8 -94 6 -95 6 -136 46 -23 22 -53 48
-68 58 -14 10 -26 26 -26 37 0 10 -16 40 -36 65 -58 76 -90 134 -129 233 -20
50 -41 92 -46 92 -5 0 -9 -3 -9 -8z m44 -140 c14 -35 44 -93 66 -128 22 -35
36 -64 30 -64 -10 0 -220 178 -220 187 0 12 84 83 91 76 4 -4 19 -37 33 -71z
m-149 -35 c11 -7 35 -25 53 -42 19 -16 62 -55 96 -86 35 -31 76 -65 92 -75 16
-10 47 -34 70 -54 22 -19 56 -47 75 -63 l34 -27 -160 6 c-258 11 -288 11 -293
-4 -2 -7 5 -16 17 -19 13 -3 21 -13 21 -27 0 -11 7 -42 14 -67 12 -40 12 -48
0 -61 -13 -13 -13 -18 4 -38 19 -24 42 -21 42 6 0 10 12 14 38 14 20 0 76 7
124 15 48 7 116 17 150 20 35 3 77 8 93 12 29 5 27 3 -29 -55 -33 -33 -75 -69
-95 -79 -20 -10 -54 -30 -76 -44 -63 -40 -269 -139 -291 -139 -29 0 -64 -28
-58 -45 10 -26 -2 -17 -73 53 -40 40 -80 92 -96 123 -14 30 -37 65 -50 79 -37
40 -53 70 -82 155 l-27 79 23 21 c13 11 51 54 84 94 53 66 259 262 274 261 3
-1 15 -6 26 -13z m-333 -254 c-49 -62 -89 -95 -108 -91 -34 6 -24 33 22 63
119 78 128 81 86 28z m-957 -88 c44 -9 118 -18 165 -21 47 -3 101 -9 120 -14
43 -12 254 -30 344 -30 35 0 68 -5 71 -10 13 -21 -17 -39 -73 -45 -31 -4 -82
-11 -112 -15 -52 -9 -96 -14 -215 -25 -27 -2 -113 -7 -190 -10 -77 -4 -148 -9
-158 -11 -9 -3 -19 1 -22 8 -3 10 -13 188 -11 188 1 0 37 -7 81 -15z m1784
-72 c20 -24 42 -43 49 -43 17 0 15 7 -14 46 l-26 34 123 0 c134 -1 435 -23
445 -32 3 -4 -16 -9 -43 -13 -26 -4 -55 -9 -63 -12 -21 -8 -47 -10 -199 -17
-74 -4 -166 -11 -205 -16 -39 -5 -102 -12 -141 -15 -38 -4 -126 -13 -195 -21
-69 -8 -132 -14 -141 -14 -13 0 -17 15 -22 66 -4 37 -5 70 -3 73 3 4 93 6 201
6 l197 0 37 -42z m-875 -110 c14 -27 47 -77 71 -112 51 -72 58 -97 18 -59 -16
14 -41 33 -58 42 -86 47 -121 68 -129 76 -8 8 49 100 63 100 4 0 20 -21 35
-47z m610 -230 c-21 -27 -44 -52 -51 -56 -7 -4 -32 -36 -55 -69 l-41 -62 -39
45 c-21 24 -38 47 -38 50 0 4 21 14 47 24 25 10 67 30 92 45 74 44 116 68 120
69 2 1 -14 -20 -35 -46z"/>
</g>
</svg>
