<?xml version="1.0" standalone="no"?>
<!DOCTYPE svg PUBLIC "-//W3C//DTD SVG 20010904//EN"
 "http://www.w3.org/TR/2001/REC-SVG-20010904/DTD/svg10.dtd">
<svg version="1.0" xmlns="http://www.w3.org/2000/svg"
 width="150.000000pt" height="96.000000pt" viewBox="0 0 150.000000 96.000000"
 preserveAspectRatio="xMidYMid meet">
<metadata>
Created by potrace 1.16, written by Peter Selinger 2001-2019
</metadata>
<g transform="translate(0.000000,96.000000) scale(0.100000,-0.100000)"
fill="#000000" stroke="none">
<path d="M156 779 c-18 -21 -26 -42 -26 -67 0 -43 -10 -459 -11 -470 -6 -35
19 -60 44 -45 7 4 18 8 27 9 8 1 60 15 115 31 55 17 123 34 150 38 28 5 52 9
55 10 82 26 202 36 405 36 117 0 279 -23 303 -43 9 -8 33 -21 52 -28 19 -8 40
-20 45 -28 13 -17 42 -6 50 19 4 11 1 35 -5 55 -20 58 -12 306 11 382 24 74
-26 138 -74 95 -57 -52 -174 -89 -327 -104 -98 -10 -133 -9 -240 6 -69 9 -154
21 -190 25 -85 12 -247 48 -272 61 -11 6 -28 19 -39 30 -27 27 -43 24 -73 -12z
m1167 -79 c-20 -41 -33 -143 -36 -272 -2 -88 -5 -108 -19 -117 -14 -9 -16 -8
-12 4 5 12 -2 15 -31 15 -30 0 -35 3 -26 13 13 16 5 27 -20 27 -13 0 -16 -5
-12 -17 5 -13 2 -15 -18 -10 -50 14 -226 28 -289 23 -193 -16 -292 -31 -470
-70 -123 -28 -120 -27 -120 -12 0 10 -6 13 -16 9 -8 -3 -13 -12 -10 -19 3 -8
0 -11 -8 -8 -7 3 -20 -4 -30 -15 -35 -38 -35 -31 -21 234 5 83 9 159 10 170 1
11 2 32 3 47 2 26 3 27 35 16 46 -16 71 -34 57 -43 -14 -8 6 -35 26 -35 22 0
28 22 9 37 -18 13 -18 13 1 13 10 0 35 -4 54 -10 112 -30 357 -58 471 -54 174
7 279 29 409 84 36 15 68 26 72 24 3 -3 0 -18 -9 -34z"/>
<path d="M1252 668 c-7 -7 -12 -16 -12 -20 0 -15 27 -8 45 12 18 19 17 20 -1
20 -11 0 -25 -5 -32 -12z"/>
<path d="M331 616 c-8 -10 -7 -17 4 -26 19 -15 47 -6 39 14 -8 21 -31 27 -43
12z"/>
<path d="M1181 591 c-6 -10 -8 -21 -4 -24 9 -10 43 12 43 28 0 21 -27 18 -39
-4z"/>
<path d="M344 549 c-10 -16 18 -40 35 -29 12 7 12 11 2 24 -16 19 -27 20 -37
5z"/>
<path d="M1135 530 c-7 -12 2 -30 16 -30 12 0 12 27 0 35 -5 3 -12 1 -16 -5z"/>
<path d="M380 496 c0 -10 9 -16 21 -16 24 0 21 23 -4 28 -10 2 -17 -3 -17 -12z"/>
<path d="M1114 469 c-10 -17 13 -36 27 -22 12 12 4 33 -11 33 -5 0 -12 -5 -16
-11z"/>
<path d="M370 444 c0 -17 22 -14 28 4 2 7 -3 12 -12 12 -9 0 -16 -7 -16 -16z"/>
<path d="M360 396 c-5 -13 -14 -27 -20 -31 -5 -3 -8 -10 -5 -15 3 -5 1 -11 -5
-15 -15 -9 -12 -25 5 -25 9 0 20 12 25 28 6 15 15 35 20 44 13 23 13 38 0 38
-6 0 -15 -11 -20 -24z"/>
<path d="M1124 404 c3 -9 6 -18 6 -20 0 -2 9 -4 20 -4 24 0 27 25 4 34 -26 10
-36 7 -30 -10z"/>
</g>
</svg>
