<?xml version="1.0" standalone="no"?>
<!DOCTYPE svg PUBLIC "-//W3C//DTD SVG 20010904//EN"
 "http://www.w3.org/TR/2001/REC-SVG-20010904/DTD/svg10.dtd">
<svg version="1.0" xmlns="http://www.w3.org/2000/svg"
 width="240.000000pt" height="98.000000pt" viewBox="0 0 240.000000 98.000000"
 preserveAspectRatio="xMidYMid meet">
<metadata>
Created by potrace 1.16, written by Peter Selinger 2001-2019
</metadata>
<g transform="translate(0.000000,98.000000) scale(0.100000,-0.100000)"
fill="#000000" stroke="none">
<path d="M170 751 c-5 -11 -12 -52 -15 -93 -3 -40 -8 -81 -11 -90 -3 -10 -6
-36 -6 -59 0 -43 15 -63 42 -53 50 20 309 59 525 79 99 9 183 19 187 21 4 3
56 7 114 10 59 2 110 7 114 9 5 3 59 7 122 11 62 3 158 12 213 20 55 8 177 19
270 24 94 6 186 13 205 17 56 10 100 11 106 2 8 -14 40 -10 53 5 10 12 8 17
-8 25 -25 14 -81 14 -81 0 0 -5 -4 -8 -8 -5 -5 3 -164 8 -353 12 -189 3 -360
8 -379 9 -19 2 -174 6 -345 10 -330 6 -459 16 -593 43 -73 14 -84 15 -92 2 -8
-13 -10 -12 -10 3 0 23 -37 22 -50 -2z m175 -54 c11 -6 120 -12 255 -14 129
-2 256 -5 282 -7 25 -2 65 0 87 4 22 4 39 4 37 1 -5 -7 76 -9 424 -12 113 0
246 -5 295 -9 l90 -7 -100 -2 c-55 -1 -170 -10 -255 -21 -85 -11 -191 -22
-235 -25 -184 -12 -264 -20 -505 -50 -19 -2 -100 -9 -180 -15 -80 -6 -172 -15
-205 -20 -33 -6 -76 -10 -96 -10 l-37 0 5 48 c2 26 5 69 7 95 1 29 9 52 17 58
16 10 84 1 114 -14z"/>
<path d="M265 353 c-32 -2 -65 -9 -71 -14 -11 -9 -22 -48 -29 -104 -9 -62 -17
-110 -20 -116 -5 -8 33 -49 45 -49 5 0 11 4 14 9 3 4 25 12 48 16 24 4 48 9
53 10 38 10 204 38 270 46 44 5 132 16 195 24 63 9 131 18 150 20 19 2 67 8
105 15 107 17 203 30 265 34 99 8 289 27 307 31 10 2 52 10 93 19 65 14 195
23 240 16 24 -3 65 9 68 20 2 6 8 8 13 4 5 -3 9 -1 9 5 0 16 -47 24 -98 17
-26 -4 -65 -9 -87 -12 -50 -7 -1219 -7 -1260 0 -52 8 -247 14 -310 9z m495
-49 c214 -9 413 -5 422 8 4 7 8 9 8 3 0 -6 70 -10 189 -10 105 0 187 -3 183
-6 -7 -7 -146 -24 -477 -59 -99 -11 -189 -22 -200 -24 -59 -14 -248 -37 -375
-46 -80 -6 -169 -15 -199 -20 -99 -18 -102 -17 -95 38 13 100 19 116 44 124
23 7 238 3 500 -8z"/>
</g>
</svg>
