<?xml version="1.0" standalone="no"?>
<!DOCTYPE svg PUBLIC "-//W3C//DTD SVG 20010904//EN"
 "http://www.w3.org/TR/2001/REC-SVG-20010904/DTD/svg10.dtd">
<svg version="1.0" xmlns="http://www.w3.org/2000/svg"
 width="303.000000pt" height="147.000000pt" viewBox="0 0 303.000000 147.000000"
 preserveAspectRatio="xMidYMid meet">
<metadata>
Created by potrace 1.16, written by Peter Selinger 2001-2019
</metadata>
<g transform="translate(0.000000,147.000000) scale(0.100000,-0.100000)"
fill="#000000" stroke="none">
<path d="M2545 1330 c-3 -5 -22 -10 -41 -10 -19 0 -47 -6 -62 -14 -15 -7 -49
-19 -77 -25 -27 -7 -55 -17 -62 -23 -24 -19 -13 -58 32 -119 25 -34 45 -67 45
-74 0 -13 -73 -45 -102 -45 -9 0 -19 4 -22 9 -4 5 -23 5 -46 -1 -28 -7 -44 -7
-53 1 -8 6 -44 15 -82 20 -95 14 -140 0 -215 -66 -33 -29 -77 -57 -98 -62 -72
-20 -227 -49 -234 -45 -4 2 -18 28 -32 57 -43 91 -103 138 -193 155 -45 8 -57
6 -102 -15 -29 -14 -59 -35 -67 -48 -9 -13 -39 -44 -69 -68 l-53 -43 -114 28
c-62 15 -142 34 -178 42 -36 8 -90 21 -120 30 -122 36 -292 66 -312 55 -14 -8
-17 -14 -9 -23 7 -8 12 -82 13 -195 1 -204 6 -219 59 -187 16 9 53 21 82 27
133 24 181 30 307 44 74 8 156 17 181 20 45 6 47 5 52 -25 4 -17 24 -48 44
-71 57 -60 174 -87 266 -61 32 9 37 9 27 -3 -23 -27 12 -27 63 0 65 35 115 81
133 121 l13 32 58 -14 c32 -8 103 -21 158 -29 55 -8 109 -17 120 -19 11 -3 93
-21 183 -41 90 -20 172 -41 182 -47 14 -9 22 -9 34 1 10 9 31 11 70 6 54 -7
55 -8 39 -29 -20 -26 -108 -96 -121 -96 -5 0 -15 -7 -22 -15 -7 -8 -28 -17
-49 -21 -39 -7 -74 -31 -65 -45 3 -5 19 -9 35 -9 19 0 42 -11 65 -32 42 -38
110 -78 133 -78 24 0 41 20 41 50 0 14 9 41 19 60 40 75 139 276 145 297 14
44 31 45 55 3 12 -22 27 -37 33 -34 13 8 2 50 -25 85 l-21 30 34 67 c34 68 94
156 137 203 16 17 21 29 14 34 -15 8 -60 -42 -126 -140 -64 -95 -84 -120 -88
-114 -21 24 -23 47 -12 98 25 105 28 157 11 174 -14 13 -14 27 -5 92 6 43 8
84 5 92 -3 8 -2 12 3 9 13 -8 34 22 27 39 -6 17 -32 20 -41 5z m-24 -67 c1
-10 1 -21 1 -24 -1 -4 -4 -52 -8 -107 -6 -101 3 -152 18 -102 4 16 6 6 3 -26
-3 -29 -9 -62 -13 -74 -8 -21 -10 -20 -36 24 -15 26 -30 63 -33 81 -3 19 -11
35 -18 35 -18 0 -108 150 -93 155 7 2 45 15 83 29 85 30 95 31 96 9z m-1196
-240 c59 -30 125 -107 125 -146 0 -9 -21 -17 -65 -23 -53 -8 -80 -7 -138 7
-39 9 -98 22 -129 29 -84 17 -80 33 22 86 70 36 67 34 50 44 -12 7 -10 11 10
19 29 12 82 5 125 -16z m750 -2 l37 -18 -48 -7 c-51 -7 -99 -20 -152 -42 -44
-19 -48 -18 -27 6 10 11 14 20 9 20 -5 0 10 12 32 28 51 33 99 38 149 13z
m-1667 -2 c26 -5 83 -19 127 -29 44 -11 141 -34 215 -51 74 -17 161 -39 192
-48 l57 -16 -18 -41 c-18 -40 -20 -41 -82 -48 -35 -4 -77 -9 -94 -11 -16 -2
-59 -6 -95 -10 -114 -11 -312 -46 -340 -60 l-27 -14 1 169 c1 94 5 170 9 170
5 0 29 -5 55 -11z m2062 -113 l64 -124 -27 -38 c-15 -22 -41 -55 -59 -74 -30
-31 -38 -35 -78 -32 -25 2 -99 7 -165 12 -66 5 -133 13 -150 18 l-30 10 33 12
c17 7 32 16 32 21 0 5 5 9 12 9 19 0 78 62 78 81 0 10 4 19 9 21 5 2 12 21 15
43 4 22 9 48 12 57 3 10 -4 26 -16 38 l-20 20 27 -1 c33 -1 95 14 143 35 19 8
40 15 45 16 6 0 39 -56 75 -124z m-314 37 c40 -15 -10 -156 -68 -190 -56 -33
-106 -37 -159 -14 -49 22 -73 44 -83 77 -5 16 3 31 31 62 36 37 72 55 137 66
16 3 31 8 35 11 6 7 82 -2 107 -12z m-328 -53 c-7 -10 -14 -17 -17 -15 -4 4
18 35 25 35 2 0 -1 -9 -8 -20z m-55 -24 c-5 -24 26 -96 56 -129 18 -21 26 -22
-164 13 -135 25 -137 26 -133 63 3 30 5 31 98 53 131 30 148 30 143 0z m-615
-21 c35 -8 66 -16 68 -18 3 -2 -32 -7 -76 -11 -43 -3 -86 -9 -95 -12 -12 -5
-15 2 -15 31 0 36 1 37 28 30 15 -4 56 -13 90 -20z m317 -24 c3 -5 2 -12 -2
-14 -12 -8 -63 4 -63 14 0 12 57 12 65 0z m-93 -31 c39 -11 75 -25 79 -32 8
-12 -13 -62 -30 -73 -23 -14 -170 -46 -211 -47 -119 -1 -230 118 -127 137 224
41 201 40 289 15z m1132 -112 c-39 -92 -99 -214 -145 -295 l-30 -53 -37 27
c-56 41 -82 65 -82 77 0 6 20 22 44 35 44 24 173 150 211 205 24 36 65 86 71
86 2 0 -13 -37 -32 -82z"/>
</g>
</svg>
