<?xml version="1.0" standalone="no"?>
<!DOCTYPE svg PUBLIC "-//W3C//DTD SVG 20010904//EN"
 "http://www.w3.org/TR/2001/REC-SVG-20010904/DTD/svg10.dtd">
<svg version="1.0" xmlns="http://www.w3.org/2000/svg"
 width="153.000000pt" height="112.000000pt" viewBox="0 0 153.000000 112.000000"
 preserveAspectRatio="xMidYMid meet">
<metadata>
Created by potrace 1.16, written by Peter Selinger 2001-2019
</metadata>
<g transform="translate(0.000000,112.000000) scale(0.100000,-0.100000)"
fill="#000000" stroke="none">
<path d="M627 971 c-28 -18 -28 -19 -9 -32 17 -13 20 -32 26 -213 l8 -199
-129 8 c-70 4 -171 11 -223 14 -64 4 -94 10 -93 18 4 17 -21 23 -47 10 -29
-15 -38 -37 -15 -37 14 0 16 -7 10 -42 -4 -24 -7 -45 -7 -48 -2 -79 4 -119 18
-124 9 -4 22 -2 28 3 19 16 247 90 326 106 41 8 86 17 98 20 23 6 24 4 18 -32
-3 -21 -10 -96 -16 -167 -10 -135 -3 -177 30 -184 13 -2 16 12 17 83 2 62 6
90 18 101 8 9 12 21 8 27 -17 28 4 185 26 188 7 1 36 5 116 19 33 5 109 12
170 15 60 3 139 10 175 15 36 6 90 10 120 9 84 -2 170 11 170 26 0 20 -24 25
-113 25 -80 0 -139 -6 -355 -36 -56 -8 -140 -14 -187 -14 l-84 0 8 28 c29 100
80 197 152 290 28 36 44 93 29 102 -7 4 -53 13 -104 19 -50 7 -107 14 -126 17
-24 3 -44 -2 -63 -15z m235 -70 c4 -3 -2 -22 -14 -41 -88 -141 -109 -183 -128
-259 -6 -23 -13 -41 -15 -40 -1 2 -5 84 -9 183 l-6 178 83 -7 c45 -4 85 -10
89 -14z m361 -358 c-7 -2 -21 -2 -30 0 -10 3 -4 5 12 5 17 0 24 -2 18 -5z
m-784 -34 c40 -6 105 -8 142 -4 46 5 69 3 69 -3 0 -17 -15 -22 -112 -37 -51
-8 -120 -21 -153 -30 -33 -9 -73 -20 -90 -25 -16 -4 -42 -12 -57 -18 -15 -6
-29 -8 -31 -4 -2 4 -5 38 -6 75 l-2 68 83 -6 c46 -3 116 -11 157 -16z"/>
</g>
</svg>
