<?xml version="1.0" standalone="no"?>
<!DOCTYPE svg PUBLIC "-//W3C//DTD SVG 20010904//EN"
 "http://www.w3.org/TR/2001/REC-SVG-20010904/DTD/svg10.dtd">
<svg version="1.0" xmlns="http://www.w3.org/2000/svg"
 width="255.000000pt" height="146.000000pt" viewBox="0 0 255.000000 146.000000"
 preserveAspectRatio="xMidYMid meet">
<metadata>
Created by potrace 1.16, written by Peter Selinger 2001-2019
</metadata>
<g transform="translate(0.000000,146.000000) scale(0.100000,-0.100000)"
fill="#000000" stroke="none">
<path d="M438 1260 c-20 -17 -53 -37 -73 -46 -20 -8 -35 -18 -33 -22 9 -19 48
-81 97 -155 48 -74 111 -188 111 -202 0 -9 -225 -5 -279 5 -29 5 -59 17 -68
25 -14 14 -17 14 -34 -1 -16 -14 -17 -28 -12 -122 6 -126 17 -146 61 -120 26
15 203 38 300 38 l33 0 -45 -58 c-59 -74 -151 -168 -209 -212 -25 -19 -46 -42
-47 -50 0 -19 73 -65 117 -75 18 -3 35 -11 38 -16 16 -25 75 8 75 42 0 9 16
42 36 75 20 32 48 82 64 109 67 120 82 145 88 145 4 0 13 -10 21 -22 8 -13 45
-64 82 -113 37 -50 79 -116 94 -148 15 -31 31 -60 36 -63 5 -3 9 -13 9 -23 0
-10 7 -24 15 -31 8 -7 15 -27 15 -45 0 -37 8 -49 26 -35 25 22 143 74 249 110
60 21 153 57 205 80 118 51 187 77 270 100 135 38 167 47 190 60 31 16 242
100 253 100 5 0 57 23 115 51 67 33 119 51 138 50 32 -1 60 20 49 39 -3 5 -15
10 -26 10 -11 0 -18 4 -14 9 8 14 -46 48 -90 57 -22 4 -96 27 -165 51 -69 25
-179 60 -245 78 -249 71 -381 119 -590 215 -66 31 -224 93 -245 97 -21 4 -37
-9 -101 -84 -82 -94 -190 -228 -241 -299 -17 -24 -35 -44 -39 -44 -15 0 -40
47 -58 111 -10 35 -28 82 -40 104 -11 23 -31 88 -44 145 -15 69 -29 106 -38
108 -8 1 -31 -11 -51 -28z m51 -57 c6 -21 12 -47 14 -58 4 -22 7 -30 32 -100
57 -160 76 -218 71 -222 -2 -3 -17 19 -31 49 -15 29 -35 62 -44 73 -10 11 -32
47 -50 80 -19 33 -41 69 -51 80 -10 11 -23 32 -29 47 -9 25 -7 29 31 57 23 17
43 31 45 31 1 0 7 -17 12 -37z m660 -28 c39 -19 74 -35 79 -35 4 0 27 -9 50
-20 22 -11 45 -20 51 -20 5 0 13 -5 17 -12 5 -8 2 -9 -12 -3 -28 11 -136 43
-230 67 -70 18 -81 23 -77 39 8 28 42 24 122 -16z m-4 -63 c22 -7 29 -14 27
-28 -2 -10 -6 -79 -9 -151 l-6 -133 -38 0 c-36 0 -39 2 -40 28 -3 61 5 177 17
255 5 32 3 37 -14 37 -13 0 -21 -6 -20 -17 0 -10 -2 -53 -5 -96 -4 -43 -7
-107 -8 -143 -2 -61 -4 -65 -23 -60 -12 3 -29 6 -40 6 -16 0 -18 5 -12 43 4
23 10 83 12 132 2 50 7 98 10 108 7 22 -21 23 -30 0 -4 -9 -9 -66 -12 -127 -7
-151 -8 -156 -43 -156 l-30 0 -3 93 -3 92 50 67 c37 50 54 66 67 62 10 -3 25
-1 34 4 16 9 46 5 119 -16z m215 -58 c36 -8 108 -28 162 -44 53 -17 102 -30
110 -30 7 -1 63 -21 123 -46 118 -48 234 -83 276 -84 14 0 54 -11 90 -25 35
-14 91 -33 124 -41 33 -9 71 -22 85 -29 23 -13 14 -14 -82 -15 l-108 0 0 25
c0 14 -4 25 -10 25 -5 0 -12 -11 -16 -25 -4 -16 -13 -25 -25 -25 -17 0 -18 5
-13 41 6 33 4 41 -7 37 -8 -2 -19 -20 -25 -39 -6 -19 -19 -35 -28 -37 -13 -3
-15 4 -10 42 6 38 4 46 -9 46 -10 0 -18 -13 -22 -40 -6 -38 -9 -40 -42 -40
-28 0 -34 3 -29 16 3 9 9 34 13 56 9 60 -18 45 -37 -20 -12 -43 -19 -52 -37
-52 -21 0 -23 4 -23 60 0 33 -4 60 -9 60 -17 0 -33 -29 -31 -57 4 -55 1 -60
-24 -56 -24 5 -25 7 -19 74 5 59 4 69 -10 69 -12 0 -17 -16 -23 -71 -6 -64 -9
-70 -28 -67 -19 3 -21 9 -21 83 0 64 -3 80 -15 80 -12 0 -16 -17 -18 -77 l-3
-78 -29 0 -30 0 0 81 c0 60 -3 80 -12 77 -8 -3 -15 -31 -18 -71 -6 -73 -15
-89 -46 -81 -23 6 -23 13 -9 162 4 42 2 52 -10 52 -8 0 -15 -3 -15 -7 -1 -38
-12 -181 -16 -191 -2 -8 -15 -12 -31 -10 l-28 3 4 119 c3 97 1 118 -10 114 -9
-3 -15 -24 -16 -64 -2 -32 -5 -83 -9 -111 -5 -53 -6 -53 -40 -53 l-35 0 6 120
c6 106 5 120 -9 120 -9 0 -15 -3 -14 -7 1 -5 -2 -59 -6 -120 -8 -115 -11 -122
-48 -108 -11 4 -13 27 -11 103 2 53 6 120 9 149 l5 52 47 -15 c26 -8 76 -22
112 -30z m-515 -178 l5 -56 -45 0 -44 0 37 59 c20 33 38 58 40 56 2 -1 5 -28
7 -59z m-262 -107 l30 -30 -27 -28 c-27 -28 -27 -28 -198 -35 -134 -5 -173 -4
-180 6 -4 7 -8 36 -8 65 l0 52 177 0 176 0 30 -30z m224 6 c2 0 -1 -21 -5 -46
-7 -43 -8 -44 -47 -44 -48 0 -56 22 -25 73 17 28 24 31 47 26 16 -4 29 -8 30
-9z m35 -25 c-6 -41 -12 -38 -12 6 0 19 4 33 8 30 5 -3 7 -19 4 -36z m94 -12
c-2 -24 -5 -46 -5 -50 -1 -5 -17 -8 -37 -8 l-37 0 7 38 c3 20 6 43 6 50 0 7
14 12 36 12 l35 0 -5 -42z m97 27 c10 -10 13 -24 8 -47 -6 -30 -10 -33 -41
-33 -33 0 -35 2 -36 35 -1 19 1 41 3 48 7 17 48 15 66 -3z m101 -1 c23 -9 22
-74 -1 -74 -10 0 -28 -3 -40 -6 -21 -6 -23 -3 -23 40 0 42 2 46 24 46 13 0 31
-3 40 -6z m98 -39 c-2 -19 -8 -35 -12 -35 -5 0 -15 -3 -24 -6 -13 -5 -16 1
-16 28 0 40 6 48 35 48 18 0 20 -5 17 -35z m101 26 c4 -1 7 -14 7 -31 0 -28
-2 -30 -40 -30 -33 0 -40 3 -40 19 0 37 11 50 38 46 15 -2 30 -4 35 -4z m97
-31 c0 -27 -3 -30 -30 -30 -27 0 -30 3 -30 30 0 27 3 30 30 30 27 0 30 -3 30
-30z m85 -2 c1 -24 -3 -28 -27 -28 -25 0 -28 4 -28 31 0 27 3 30 28 27 22 -2
27 -8 27 -30z m105 -3 c0 -22 -4 -25 -35 -25 -31 0 -35 3 -35 25 0 22 4 25 35
25 31 0 35 -3 35 -25z m70 -5 c0 -13 -7 -20 -20 -20 -13 0 -20 7 -20 20 0 13
7 20 20 20 13 0 20 -7 20 -20z m81 10 c28 -16 23 -30 -11 -30 -23 0 -30 4 -30
20 0 22 12 25 41 10z m89 -10 c9 -6 10 -10 3 -10 -6 0 -18 -3 -27 -6 -11 -4
-16 -1 -16 10 0 18 17 21 40 6z m88 -7 c-10 -2 -26 -2 -35 0 -10 3 -2 5 17 5
19 0 27 -2 18 -5z m217 -23 c-172 -64 -301 -107 -462 -150 -101 -28 -186 -50
-188 -50 -3 0 -1 9 5 20 6 11 14 52 18 92 l7 73 35 0 35 0 3 -58 c2 -48 6 -58
19 -55 14 2 16 14 14 61 -2 52 -1 57 18 57 19 0 21 -6 21 -65 0 -49 3 -65 14
-65 19 0 26 22 26 81 0 49 1 50 28 47 22 -2 28 -8 30 -35 4 -36 32 -47 32 -14
0 33 11 51 31 51 15 0 19 -7 19 -36 0 -28 3 -35 18 -32 11 2 17 13 17 33 1 25
5 31 29 33 18 2 32 -3 40 -14 12 -16 14 -15 30 7 14 20 19 22 35 12 16 -10 22
-9 32 3 7 8 22 13 33 11 12 -3 32 -1 46 3 51 16 63 9 15 -10z m-940 -30 c-2
-4 -5 -56 -7 -115 -2 -91 1 -109 15 -120 15 -10 12 -13 -22 -23 -21 -7 -42
-12 -46 -12 -4 0 -5 60 -1 133 5 101 11 135 23 144 15 12 47 7 38 -7z m109
-85 c-6 -91 -5 -105 9 -105 12 0 16 20 22 105 l7 105 30 0 30 0 -2 -67 c-4
-105 -2 -123 16 -123 12 0 15 11 14 53 -4 129 -2 137 26 137 l27 0 -7 -82 c-4
-46 -7 -91 -7 -100 0 -10 -3 -18 -7 -18 -4 0 -56 -13 -117 -29 -81 -22 -112
-26 -117 -18 -9 14 -11 209 -2 231 4 11 19 16 46 16 l39 0 -7 -105z m-704 90
c0 -7 -69 -131 -103 -186 -71 -117 -97 -161 -97 -169 0 -11 -88 18 -96 32 -3
5 1 17 10 27 9 10 16 24 16 32 0 9 15 29 33 45 37 34 161 172 183 203 13 18
54 30 54 16z m160 -52 c0 -31 -1 -54 -3 -52 -2 2 -16 28 -30 57 l-27 52 30 0
c30 0 30 0 30 -57z m132 -57 c-5 -131 4 -229 21 -223 9 3 11 40 9 128 -1 68 1
143 4 167 6 41 7 42 45 42 l40 0 -7 -47 c-3 -27 -6 -101 -7 -166 l-2 -119 -40
-14 c-53 -18 -75 -18 -75 3 0 9 -19 50 -41 92 -33 58 -43 89 -47 138 -3 40 -1
63 6 63 5 0 13 11 16 25 5 21 12 25 45 25 l38 0 -5 -114z m220 36 c-2 -40 -6
-83 -8 -95 -3 -12 -5 -45 -5 -74 0 -49 -1 -52 -31 -62 -17 -6 -34 -9 -37 -5
-7 7 -4 250 5 287 5 25 9 28 42 25 l37 -3 -3 -73z m973 39 c-6 -5 -21 -12 -35
-15 l-25 -7 25 15 c28 17 50 21 35 7z m-65 -25 c0 -2 -28 -14 -62 -26 -34 -12
-90 -35 -123 -50 -33 -16 -94 -38 -135 -49 -164 -47 -247 -76 -360 -129 -41
-19 -111 -47 -155 -62 -103 -36 -184 -68 -213 -82 -18 -10 -24 -8 -35 7 -21
27 -9 64 26 82 22 11 32 12 35 4 6 -18 23 -13 48 14 23 25 54 34 54 15 0 -5 7
-10 15 -10 8 0 15 8 15 18 0 20 8 23 250 98 121 38 284 81 375 100 12 2 70 19
130 38 107 33 135 40 135 32z"/>
</g>
</svg>
