<?xml version="1.0" standalone="no"?>
<!DOCTYPE svg PUBLIC "-//W3C//DTD SVG 20010904//EN"
 "http://www.w3.org/TR/2001/REC-SVG-20010904/DTD/svg10.dtd">
<svg version="1.0" xmlns="http://www.w3.org/2000/svg"
 width="256.000000pt" height="166.000000pt" viewBox="0 0 256.000000 166.000000"
 preserveAspectRatio="xMidYMid meet">
<metadata>
Created by potrace 1.16, written by Peter Selinger 2001-2019
</metadata>
<g transform="translate(0.000000,166.000000) scale(0.100000,-0.100000)"
fill="#000000" stroke="none">
<path d="M706 1605 c-7 -38 -59 -105 -81 -105 -7 0 -15 -7 -18 -14 -9 -23 120
-122 265 -204 31 -18 58 -36 60 -40 2 -4 41 -33 88 -64 79 -53 235 -177 228
-182 -3 -2 -48 0 -358 19 -63 4 -118 9 -121 11 -4 2 -94 7 -200 10 -109 3
-218 12 -248 19 -38 10 -59 11 -67 4 -22 -18 -33 -70 -38 -181 -5 -113 2 -129
35 -89 16 18 92 32 254 46 33 3 101 10 150 15 123 13 199 19 340 25 66 3 130
8 143 11 12 2 22 2 22 0 0 -6 -322 -262 -383 -305 -27 -18 -110 -65 -185 -103
-75 -38 -139 -71 -141 -74 -9 -9 23 -34 44 -34 26 0 75 -42 75 -64 0 -8 12
-27 27 -41 15 -14 28 -33 28 -42 0 -34 32 -23 90 29 72 66 305 297 365 363 25
28 57 59 70 71 14 12 64 62 112 113 101 105 120 111 179 58 20 -17 65 -57 100
-87 35 -30 105 -94 154 -142 50 -47 104 -97 120 -109 17 -13 33 -27 36 -32 4
-5 12 -6 18 -3 13 8 15 43 2 48 -9 3 -141 123 -267 241 -40 38 -85 79 -100 92
-24 21 -25 23 -8 28 11 3 98 9 194 12 96 4 186 8 200 10 14 2 79 7 145 10 144
6 197 12 294 31 40 8 81 12 91 9 20 -6 45 19 35 35 -7 12 -61 7 -156 -14 -35
-8 -85 -17 -110 -20 -42 -6 -47 -5 -52 15 -4 16 -10 20 -24 14 -51 -21 -105
-25 -288 -20 -110 3 -240 8 -288 11 l-88 6 47 55 c26 30 120 129 210 220 147
149 192 206 150 190 -23 -9 -173 -126 -242 -189 -35 -32 -70 -58 -78 -58 -8 0
-17 -9 -21 -19 -5 -17 -130 -135 -161 -154 -11 -7 -381 354 -529 516 -43 48
-87 87 -96 87 -11 0 -19 -11 -23 -35z m84 -85 c12 -16 19 -34 15 -40 -3 -5 -1
-19 5 -31 9 -15 18 -19 35 -15 17 4 35 -5 71 -36 104 -88 406 -389 399 -396
-2 -2 -33 20 -69 49 -100 84 -134 110 -231 179 -49 35 -92 67 -95 71 -3 4 -19
15 -37 25 -56 33 -169 113 -183 129 -10 12 -7 21 21 54 19 22 37 40 41 40 4 1
16 -12 28 -29z m759 -367 c-41 -43 -90 -97 -108 -120 -31 -39 -71 -58 -71 -34
0 6 52 55 114 111 63 55 118 105 121 110 3 6 9 10 12 10 3 0 -28 -35 -68 -77z
m-999 -148 c85 -2 200 -9 255 -14 93 -9 398 -27 438 -25 23 1 21 -8 -7 -28
-25 -18 -65 -24 -236 -33 -58 -3 -148 -10 -200 -15 -52 -5 -135 -12 -185 -15
-49 -3 -124 -10 -165 -15 -41 -5 -100 -10 -130 -12 -62 -3 -56 -17 -52 113 l2
61 63 -6 c34 -4 132 -8 217 -11z m790 -74 c0 -13 -25 -20 -49 -14 -21 5 -21 7
-5 24 13 14 21 16 35 8 11 -5 19 -14 19 -18z m280 19 c143 -2 108 -16 -62 -23
-86 -4 -120 -2 -127 7 -15 18 -6 23 37 21 20 -1 89 -3 152 -5z m-346 -92 c-37
-42 -283 -296 -349 -361 -93 -92 -245 -227 -255 -227 -11 0 -34 43 -44 82 -3
15 -17 38 -31 52 l-25 25 108 61 c115 67 138 82 261 178 45 35 81 60 81 56 0
-5 17 10 38 32 20 22 66 61 101 87 52 37 73 47 105 47 l40 0 -30 -32z"/>
</g>
</svg>
