<?xml version="1.0" standalone="no"?>
<!DOCTYPE svg PUBLIC "-//W3C//DTD SVG 20010904//EN"
 "http://www.w3.org/TR/2001/REC-SVG-20010904/DTD/svg10.dtd">
<svg version="1.0" xmlns="http://www.w3.org/2000/svg"
 width="264.000000pt" height="147.000000pt" viewBox="0 0 264.000000 147.000000"
 preserveAspectRatio="xMidYMid meet">
<metadata>
Created by potrace 1.16, written by Peter Selinger 2001-2019
</metadata>
<g transform="translate(0.000000,147.000000) scale(0.100000,-0.100000)"
fill="#000000" stroke="none">
<path d="M1955 1232 c-1 -2 -127 -4 -279 -4 -263 -1 -277 -2 -287 -20 -7 -12
-9 -82 -6 -186 3 -151 -5 -317 -16 -328 -6 -6 -98 10 -337 58 -232 48 -385 73
-502 82 -75 7 -165 25 -243 50 -39 13 -58 -15 -62 -90 -1 -38 -6 -109 -11
-157 -6 -69 -5 -93 6 -108 17 -25 37 -24 63 2 31 31 71 37 279 44 215 8 390
20 475 34 33 6 89 13 125 16 102 9 153 15 183 21 l27 6 -4 -84 c-5 -94 -30
-273 -47 -332 -6 -22 -7 -42 -2 -47 19 -19 280 -27 543 -16 58 2 110 0 117 -5
7 -6 20 -5 34 2 14 8 60 11 133 9 109 -4 111 -4 114 18 2 15 -2 23 -12 23 -22
0 -28 50 -17 142 18 133 21 148 35 148 8 0 20 7 27 16 11 13 10 18 -8 32 -21
16 -21 21 -13 130 5 62 13 145 19 185 6 39 15 110 22 157 6 47 19 104 30 127
24 52 24 60 0 72 -17 9 -377 12 -386 3z m287 -42 c6 0 4 -8 -4 -17 -17 -20
-30 -86 -49 -233 -14 -120 -14 -120 -39 -120 -23 0 -23 -11 5 170 22 148 42
213 61 206 9 -3 20 -6 26 -6z m-238 -9 c2 0 0 -18 -5 -38 -5 -21 -11 -78 -13
-128 -8 -197 -19 -254 -49 -255 -5 0 -5 44 -1 98 5 53 7 149 5 212 l-3 115 31
-1 c17 -1 33 -2 35 -3z m66 -55 c-10 -35 -16 -67 -13 -69 4 -4 -8 -104 -22
-192 -2 -11 -4 -35 -4 -52 -1 -23 -6 -33 -16 -33 -12 0 -15 8 -11 33 3 17 11
97 16 177 14 190 16 200 44 200 l23 0 -17 -64z m77 42 c-3 -13 -11 -61 -17
-108 -20 -151 -40 -254 -50 -264 -13 -13 -13 26 0 129 5 44 11 103 13 130 2
28 9 60 15 72 7 12 12 31 12 42 0 13 6 21 16 21 12 0 15 -6 11 -22z m-316 -2
c-6 -7 -13 -56 -16 -107 -9 -176 -16 -284 -21 -301 -4 -12 -15 -18 -35 -18
l-30 0 6 63 c3 34 10 98 15 142 5 44 12 115 15 158 l7 77 35 0 c29 0 33 -3 24
-14z m72 -33 c4 -48 0 -265 -7 -313 -2 -14 -4 -35 -5 -47 -1 -19 -7 -23 -34
-23 l-33 0 7 73 c8 71 20 247 23 319 1 32 5 38 22 38 19 0 23 -7 27 -47z m393
23 c-3 -14 -13 -85 -21 -160 -17 -152 -21 -166 -44 -166 -16 0 -16 8 0 129 19
150 38 221 57 221 10 0 12 -7 8 -24z m-851 2 c-3 -7 -9 -47 -14 -88 l-8 -75
-2 81 c0 44 2 84 6 87 11 12 23 8 18 -5z m70 2 c-4 -6 -13 -97 -21 -203 -7
-106 -16 -206 -19 -224 -5 -26 -21 -43 -41 -43 -2 0 -2 28 1 63 2 34 7 98 10
142 16 218 27 275 57 275 11 0 16 -5 13 -10z m95 4 c0 -3 -4 -13 -9 -23 -5 -9
-11 -48 -12 -86 -2 -61 -18 -210 -35 -311 -4 -31 -43 -56 -45 -31 -1 16 2 65
7 102 2 17 9 98 15 180 6 83 12 156 14 163 4 12 65 18 65 6z m124 -26 c-2 -18
-6 -64 -8 -103 -3 -38 -8 -83 -11 -100 -7 -37 -13 -106 -14 -162 -1 -34 -5
-43 -19 -43 -17 0 -17 7 -10 83 8 85 27 258 34 315 5 33 -11 45 -20 15 -6 -19
-13 -71 -22 -158 -26 -261 -26 -260 -51 -263 -19 -3 -21 0 -18 30 7 55 15 146
24 274 4 66 11 126 15 132 4 7 29 12 55 12 l49 0 -4 -32z m-1159 -359 c61 -6
119 -13 130 -15 50 -8 135 -24 185 -34 201 -40 274 -52 295 -52 14 0 25 -5 25
-11 0 -6 -2 -8 -6 -5 -3 3 -22 2 -42 -3 -20 -5 -64 -11 -97 -15 -33 -3 -63 -8
-67 -10 -3 -2 -147 -7 -320 -10 -172 -3 -332 -10 -356 -14 l-43 -8 7 102 c3
55 8 104 10 107 2 3 41 0 86 -7 46 -7 133 -18 193 -25z m1591 -76 c-3 -43 -5
-86 -6 -95 0 -12 -8 -18 -25 -18 l-25 0 6 77 c6 84 16 113 40 113 13 0 15 -12
10 -77z m66 -24 c-3 -75 -13 -111 -26 -98 -11 10 7 190 18 186 7 -3 10 -33 8
-88z m-147 53 c-4 -15 -11 -74 -15 -124 0 -5 -3 -8 -7 -8 -5 0 -7 34 -5 75 3
58 7 75 18 75 10 0 13 -6 9 -18z m-60 -59 c-6 -72 -8 -78 -24 -69 -6 4 -8 28
-5 59 6 63 10 77 24 77 7 0 9 -23 5 -67z m-63 -3 c-3 -55 -16 -78 -27 -47 -7
20 -12 96 -7 102 3 3 12 5 21 5 13 0 15 -10 13 -60z m-72 0 c0 -52 -4 -55 -47
-44 -19 5 -23 13 -23 43 0 45 5 51 42 51 27 0 28 -2 28 -50z m-100 7 c0 -40
-5 -46 -31 -40 -13 4 -19 14 -19 33 0 26 8 34 43 39 4 0 7 -14 7 -32z m-90 -8
c0 -12 -7 -19 -20 -19 -19 0 -28 28 -14 43 11 11 34 -5 34 -24z m-70 6 c0 -8
-9 -15 -20 -15 -25 0 -26 17 -2 23 9 3 18 5 20 6 1 0 2 -6 2 -14z m-171 -54
c6 -10 8 -21 5 -24 -3 -3 -16 -87 -29 -187 -13 -100 -26 -184 -29 -187 -7 -7
-19 163 -13 204 21 164 31 213 43 213 7 0 18 -8 23 -19z m79 -26 c2 -17 -3
-79 -12 -140 -9 -60 -19 -137 -23 -170 -7 -53 -11 -60 -32 -63 -20 -3 -23 0
-18 20 3 12 11 73 16 133 25 260 25 258 49 253 10 -2 18 -15 20 -33z m78 -22
c-3 -27 -12 -94 -20 -150 -9 -57 -16 -128 -16 -158 0 -47 -3 -55 -18 -55 -21
0 -21 -1 -3 150 6 47 14 124 17 173 6 77 9 87 26 87 17 0 19 -5 14 -47z m78 7
c0 -14 -9 -103 -19 -197 -17 -148 -22 -173 -36 -173 -15 0 -17 11 -14 97 2 54
6 107 8 118 3 11 8 57 12 103 7 77 9 83 29 80 15 -2 21 -10 20 -28z m90 -14
c-2 -11 -6 -50 -9 -86 -19 -230 -18 -224 -32 -233 -7 -4 -13 -15 -13 -22 0 -8
-7 -15 -16 -15 -13 0 -14 9 -9 53 3 28 7 86 9 127 4 75 15 175 21 196 2 6 15
9 28 7 20 -4 24 -10 21 -27z m102 -13 c-4 -16 -8 -59 -11 -98 -3 -38 -10 -107
-16 -152 l-12 -81 -33 -4 c-19 -2 -34 -4 -34 -3 0 0 4 15 9 32 5 18 12 68 15
110 4 43 9 111 12 151 l6 72 35 0 c33 0 34 -2 29 -27z m71 10 c-3 -5 -8 -44
-12 -88 -12 -147 -29 -248 -44 -253 -13 -4 -12 28 5 111 2 12 7 60 9 107 5 70
9 111 14 128 1 1 8 2 17 2 8 0 13 -3 11 -7z m50 -75 c-8 -114 -31 -258 -40
-258 -9 0 -3 125 8 186 3 16 8 49 9 74 2 25 4 51 5 58 1 6 6 12 12 12 8 0 10
-23 6 -72z m56 20 c-8 -59 -13 -61 -13 -5 0 26 4 47 9 47 5 0 7 -19 4 -42z
m79 7 c-2 -16 -14 -77 -28 -134 -14 -57 -24 -114 -21 -127 3 -16 0 -24 -10
-24 -15 0 -12 59 12 214 8 49 11 94 8 99 -3 5 5 7 18 5 20 -2 24 -8 21 -33z
m65 -27 c-15 -122 -30 -204 -38 -220 -6 -10 -7 -23 -4 -28 3 -6 -1 -10 -9 -10
-23 0 -23 38 0 135 13 50 25 107 29 128 9 53 29 48 22 -5z m-180 -220 c-3 -8
-6 -5 -6 6 -1 11 2 17 5 13 3 -3 4 -12 1 -19z"/>
</g>
</svg>
