<?xml version="1.0" standalone="no"?>
<!DOCTYPE svg PUBLIC "-//W3C//DTD SVG 20010904//EN"
 "http://www.w3.org/TR/2001/REC-SVG-20010904/DTD/svg10.dtd">
<svg version="1.0" xmlns="http://www.w3.org/2000/svg"
 width="174.000000pt" height="100.000000pt" viewBox="0 0 174.000000 100.000000"
 preserveAspectRatio="xMidYMid meet">
<metadata>
Created by potrace 1.16, written by Peter Selinger 2001-2019
</metadata>
<g transform="translate(0.000000,100.000000) scale(0.100000,-0.100000)"
fill="#000000" stroke="none">
<path d="M223 848 c-19 -21 -20 -33 -16 -158 6 -188 6 -184 25 -188 10 -2 35
10 55 27 21 17 42 31 48 31 6 0 49 22 96 49 47 27 100 52 119 56 19 4 44 13
55 20 11 7 73 16 137 20 64 4 128 13 142 20 14 8 26 13 26 12 0 -1 -7 -37 -15
-80 -8 -43 -15 -118 -15 -165 0 -48 -3 -98 -7 -111 -6 -22 -9 -23 -57 -17 -28
4 -85 9 -126 11 -108 6 -280 24 -291 30 -21 14 -168 52 -177 46 -5 -3 -12 -48
-16 -98 -3 -51 -9 -134 -12 -183 l-7 -90 36 0 c28 0 40 6 57 30 38 53 124 104
257 151 48 18 94 37 101 42 8 6 71 11 150 11 l137 1 65 66 c36 37 93 81 125
99 33 17 84 45 114 62 53 30 55 31 186 29 119 -2 134 0 156 18 20 18 22 22 9
31 -8 5 -40 10 -70 10 -78 1 -168 9 -220 20 -25 6 -61 12 -80 15 -76 9 -185
55 -207 86 -16 21 -61 33 -77 20 -14 -12 -279 -5 -356 9 -30 6 -91 16 -135 23
-47 8 -99 24 -128 40 -58 33 -58 33 -84 5z m100 -93 c20 -8 51 -15 69 -16 18
0 51 -6 73 -13 l39 -11 -49 -30 c-27 -15 -78 -38 -112 -50 l-63 -22 0 78 c0
44 2 79 4 79 2 0 20 -7 39 -15z m703 -106 c25 -17 68 -33 107 -40 36 -7 64
-17 60 -22 -3 -5 -22 -17 -42 -26 -32 -15 -159 -96 -171 -110 -3 -3 -13 -12
-23 -20 -16 -13 -17 -7 -12 106 2 66 7 128 11 137 7 17 8 17 70 -25z m-653
-303 c37 -14 87 -26 110 -27 35 -1 38 -2 17 -8 -41 -13 -131 -61 -194 -103
l-59 -40 7 32 c3 18 6 66 6 107 0 87 -7 84 113 39z"/>
</g>
</svg>
