<?xml version="1.0" standalone="no"?>
<!DOCTYPE svg PUBLIC "-//W3C//DTD SVG 20010904//EN"
 "http://www.w3.org/TR/2001/REC-SVG-20010904/DTD/svg10.dtd">
<svg version="1.0" xmlns="http://www.w3.org/2000/svg"
 width="292.000000pt" height="160.000000pt" viewBox="0 0 292.000000 160.000000"
 preserveAspectRatio="xMidYMid meet">
<metadata>
Created by potrace 1.16, written by Peter Selinger 2001-2019
</metadata>
<g transform="translate(0.000000,160.000000) scale(0.100000,-0.100000)"
fill="#000000" stroke="none">
<path d="M1455 1433 c-77 -3 -93 -6 -107 -24 -10 -12 -18 -31 -18 -43 0 -12
-12 -28 -28 -38 -25 -16 -147 -113 -279 -221 -32 -27 -68 -53 -80 -59 -31 -15
-29 -32 5 -46 21 -8 -29 -10 -218 -6 -260 6 -263 6 -325 22 -102 25 -105 25
-121 -15 -17 -40 -17 -43 -5 -133 4 -37 4 -90 -1 -123 -5 -32 -6 -62 -3 -67 8
-12 44 7 113 58 28 22 80 49 115 61 34 12 80 30 102 41 37 17 64 25 185 50 68
14 170 24 170 15 0 -4 -9 -18 -19 -32 -19 -23 -19 -59 0 -48 4 3 26 -6 48 -20
23 -14 43 -25 45 -25 18 0 175 -124 193 -152 4 -7 21 -18 37 -23 l29 -10 -3
-80 c-1 -44 -4 -91 -5 -105 -2 -34 4 -43 21 -29 8 6 14 26 14 44 0 24 5 34 20
38 18 5 19 11 13 84 -4 55 -1 103 10 154 9 41 18 97 22 124 3 28 8 64 11 81
l6 31 186 11 c424 26 511 29 639 23 84 -5 93 -18 43 -65 -32 -29 -38 -41 -31
-54 11 -19 81 -90 144 -144 23 -20 75 -69 115 -107 40 -39 77 -71 82 -71 22 0
8 39 -30 81 -22 24 -49 64 -61 88 -11 25 -31 59 -44 75 -40 54 -85 154 -87
193 -1 44 36 107 112 188 26 28 59 69 73 92 15 23 42 54 62 70 19 15 35 31 35
36 0 16 -25 5 -69 -30 -25 -21 -52 -37 -61 -35 -11 2 -12 1 -2 -6 25 -17 -174
-172 -249 -193 -61 -17 -67 -25 -39 -54 l23 -25 -35 0 c-21 0 -38 6 -41 13 -4
11 -47 15 -179 20 -95 4 -191 9 -213 12 -34 4 -267 14 -332 15 l-21 0 17 58
c26 85 70 181 108 235 33 47 38 79 11 75 -7 -1 -53 -4 -103 -5z m27 -83 c-2
-8 -18 -54 -37 -101 -19 -48 -35 -93 -35 -100 0 -30 -25 -79 -40 -79 -24 0
-30 9 -20 34 4 12 11 69 15 127 3 57 8 111 10 119 7 22 111 22 107 0z m-149
-97 c-2 -38 -6 -92 -9 -122 l-6 -53 -39 6 c-60 10 -76 -13 -78 -106 -1 -58 2
-78 14 -88 14 -11 17 -10 22 8 4 16 13 22 33 22 36 0 39 -18 32 -161 l-5 -108
-29 17 c-16 9 -36 24 -43 32 -7 8 -42 47 -77 85 -35 39 -71 81 -80 95 -24 39
-9 108 39 177 52 76 56 83 44 83 -5 0 -31 -29 -58 -65 -49 -66 -57 -72 -82
-56 -19 12 -7 39 21 51 13 5 57 40 98 79 41 38 76 68 79 66 2 -3 -4 -14 -14
-25 -10 -11 -13 -20 -8 -20 6 0 24 16 40 35 61 76 96 115 102 115 4 0 5 -30 4
-67z m1056 -156 c-24 -30 -49 -63 -56 -73 -11 -18 -12 -18 -38 7 l-27 26 45
22 c25 12 60 35 79 51 18 16 34 27 36 25 2 -2 -15 -28 -39 -58z m-1081 -99
c-3 -40 -5 -43 -35 -46 -33 -3 -33 -3 -33 42 0 46 0 46 36 46 l35 0 -3 -42z
m69 0 c-14 -34 -56 -56 -43 -23 3 9 6 25 6 36 0 14 7 19 25 19 24 0 25 -1 12
-32z m640 18 c114 -2 62 -14 -86 -20 -75 -4 -165 -8 -201 -11 -36 -2 -119 -7
-185 -11 -66 -4 -123 -8 -127 -11 -10 -5 -10 29 -1 53 6 16 24 17 267 9 144
-5 293 -9 333 -9z m-1427 -56 c163 -1 280 -7 288 -14 3 -4 -4 -6 -15 -6 -34 0
-233 -48 -308 -73 -89 -31 -166 -70 -190 -97 -14 -16 -20 -17 -27 -8 -8 14
-11 211 -3 220 3 3 31 -1 63 -8 31 -8 117 -14 192 -14z m776 -47 c-3 -10 -8
-45 -12 -78 -12 -103 -23 -106 -19 -5 3 52 5 96 5 98 0 1 7 2 16 2 10 0 14 -6
10 -17z m1020 -95 c19 -37 38 -68 43 -68 5 0 16 -13 25 -30 8 -16 13 -30 11
-30 -3 0 -28 20 -57 45 -148 125 -141 115 -106 152 28 30 39 20 84 -69z
m-1340 41 c30 -48 27 -56 -13 -35 -58 32 -59 33 -39 55 11 12 21 21 22 21 2 0
15 -18 30 -41z"/>
</g>
</svg>
