<?xml version="1.0" standalone="no"?>
<!DOCTYPE svg PUBLIC "-//W3C//DTD SVG 20010904//EN"
 "http://www.w3.org/TR/2001/REC-SVG-20010904/DTD/svg10.dtd">
<svg version="1.0" xmlns="http://www.w3.org/2000/svg"
 width="300.000000pt" height="208.000000pt" viewBox="0 0 300.000000 208.000000"
 preserveAspectRatio="xMidYMid meet">
<metadata>
Created by potrace 1.16, written by Peter Selinger 2001-2019
</metadata>
<g transform="translate(0.000000,208.000000) scale(0.100000,-0.100000)"
fill="#000000" stroke="none">
<path d="M297 1758 c-27 -36 -46 -116 -46 -188 1 -112 82 -197 198 -207 l60
-6 -2 -81 c-2 -80 -2 -81 23 -81 17 0 24 5 21 15 -6 25 -1 134 7 141 4 4 35 9
70 13 l63 6 -6 -33 c-11 -59 -18 -166 -11 -183 13 -34 33 5 39 79 4 39 11 88
17 107 l10 36 132 32 c122 31 318 77 428 101 25 6 67 13 94 17 46 6 49 5 41
-12 -4 -11 -10 -90 -13 -177 -4 -151 -5 -158 -28 -176 -13 -10 -24 -24 -24
-29 0 -6 -8 -17 -17 -24 -29 -21 -143 -148 -143 -158 0 -29 43 0 118 80 46 50
87 90 92 90 4 0 10 -28 12 -61 3 -60 2 -62 -33 -87 -30 -22 -159 -189 -159
-207 0 -3 9 -5 20 -5 24 0 47 24 116 123 30 42 59 77 64 77 5 0 13 -12 16 -27
7 -29 29 -68 106 -186 50 -76 87 -117 236 -261 91 -88 101 -103 83 -122 -5 -5
-23 -37 -41 -72 -17 -34 -47 -83 -67 -108 -23 -31 -31 -50 -25 -56 16 -16 28
-3 107 118 71 108 87 125 99 106 3 -5 18 -7 34 -4 25 3 33 -2 58 -39 32 -48
76 -71 96 -51 10 10 10 16 1 30 -59 84 -109 181 -108 207 1 29 18 205 20 215
1 3 5 50 9 105 5 55 10 111 11 125 2 14 4 45 4 70 1 25 5 50 9 57 4 6 45 14
92 18 47 3 126 13 175 21 136 21 135 21 231 -51 84 -63 113 -75 144 -55 11 7
3 20 -44 64 -32 31 -63 56 -68 56 -6 0 -6 6 1 14 9 10 9 16 1 21 -22 14 -157
5 -315 -20 -49 -7 -112 -17 -139 -20 -27 -4 -55 -9 -62 -12 -15 -6 -18 26 -8
87 l6 35 76 1 c101 0 394 12 397 16 12 12 77 153 81 177 5 26 3 31 -13 31 -14
0 -28 -20 -54 -79 l-36 -79 -74 3 c-41 1 -100 -1 -131 -6 -30 -5 -96 -10 -145
-11 l-89 -3 -2 92 c-2 96 -21 173 -52 208 -9 11 -20 27 -23 36 -12 34 -269 43
-397 15 -41 -9 -136 -30 -210 -46 -187 -39 -299 -66 -405 -94 -50 -14 -127
-32 -170 -41 -44 -8 -88 -17 -98 -19 -17 -4 -18 3 -16 80 1 53 -2 89 -10 97
-20 20 -29 -5 -36 -93 -4 -47 -10 -88 -13 -91 -9 -8 -122 -18 -118 -10 2 3 7
54 10 114 6 90 5 107 -8 107 -17 0 -36 -50 -36 -95 0 -18 -3 -53 -6 -78 l-7
-46 -49 3 c-60 5 -119 41 -141 89 -28 59 -18 160 28 270 13 31 -32 20 -58 -15z
m1636 -184 c4 -8 16 -14 25 -15 27 0 64 -56 79 -117 16 -67 18 -177 4 -277 -6
-38 -15 -146 -21 -240 -6 -93 -18 -226 -26 -295 -8 -69 -17 -142 -19 -163 -1
-21 -5 -41 -8 -44 -3 -3 -40 28 -83 68 -42 41 -85 82 -96 92 -14 13 -16 22 -9
31 10 12 8 39 -7 101 -5 17 -6 44 -5 60 2 17 5 206 7 420 1 215 4 392 4 395 4
13 147 -3 155 -16z m-211 -291 c-2 -170 -5 -354 -9 -411 -3 -67 -1 -124 7
-163 7 -33 11 -61 9 -64 -7 -6 -118 139 -167 218 -54 87 -68 133 -82 257 -11
99 -8 384 4 410 4 10 38 23 89 34 45 9 87 19 92 21 6 2 21 4 35 4 l25 1 -3
-307z"/>
<path d="M2729 1363 c-39 -45 -83 -105 -104 -145 l-19 -37 24 -27 c41 -44 128
-96 150 -89 28 9 25 27 -12 63 -102 96 -101 88 -31 190 24 35 43 65 43 68 0
14 -30 0 -51 -23z"/>
<path d="M1933 283 c-10 -15 -27 -48 -37 -73 -10 -25 -24 -60 -32 -78 -18 -42
-18 -62 1 -62 15 0 57 75 70 127 l7 28 16 -32 c10 -17 34 -50 55 -74 36 -39
39 -41 55 -25 16 16 15 21 -20 89 -21 40 -39 83 -40 97 -4 38 -50 40 -75 3z"/>
</g>
</svg>
