<?xml version="1.0" standalone="no"?>
<!DOCTYPE svg PUBLIC "-//W3C//DTD SVG 20010904//EN"
 "http://www.w3.org/TR/2001/REC-SVG-20010904/DTD/svg10.dtd">
<svg version="1.0" xmlns="http://www.w3.org/2000/svg"
 width="280.000000pt" height="244.000000pt" viewBox="0 0 280.000000 244.000000"
 preserveAspectRatio="xMidYMid meet">
<metadata>
Created by potrace 1.16, written by Peter Selinger 2001-2019
</metadata>
<g transform="translate(0.000000,244.000000) scale(0.100000,-0.100000)"
fill="#000000" stroke="none">
<path d="M950 2292 c-19 -19 -65 -55 -102 -79 -38 -25 -68 -47 -68 -49 0 -4
29 -37 125 -141 39 -43 54 -66 48 -75 -35 -58 -118 -155 -128 -151 -18 6 -98
211 -98 248 0 17 4 40 8 53 12 37 -19 27 -87 -29 -35 -28 -75 -58 -90 -67 -30
-18 -38 -52 -12 -52 8 0 54 -33 102 -72 129 -108 129 -107 68 -88 -17 5 -98
26 -179 46 -82 21 -157 45 -169 56 -25 21 -47 23 -71 6 -21 -16 -23 -44 -8
-128 14 -81 15 -220 1 -220 -19 0 -10 -31 11 -38 19 -8 211 8 292 23 20 4 37
4 37 0 0 -19 -108 -126 -138 -136 -48 -16 -41 -50 13 -64 22 -6 56 -21 75 -33
57 -36 62 -33 99 63 13 33 36 88 53 121 l30 61 70 7 c39 3 73 4 75 2 4 -4 -73
-125 -87 -136 -3 -3 -19 -27 -34 -53 -37 -65 -95 -119 -118 -111 -10 3 -18 0
-18 -6 0 -7 -18 -29 -39 -50 -43 -42 -61 -38 -61 11 0 32 -26 63 -47 55 -8 -3
-17 -6 -19 -6 -2 0 -4 -7 -4 -15 0 -18 -43 -47 -73 -49 -18 -1 -23 -8 -25 -37
-3 -33 0 -37 25 -42 15 -3 46 -22 68 -42 35 -32 37 -36 15 -31 -14 4 -40 9
-57 13 -18 3 -33 10 -33 14 0 5 -9 9 -20 9 -51 0 -80 -163 -53 -292 19 -91 40
-108 77 -64 18 21 36 28 116 40 52 8 95 14 97 12 1 -1 -27 -39 -62 -84 -41
-51 -79 -89 -105 -102 -22 -11 -40 -24 -40 -29 0 -18 31 -40 80 -56 29 -10 50
-23 50 -31 0 -17 29 -18 52 -1 9 7 26 42 38 78 12 35 44 103 72 152 56 96 53
96 109 25 30 -37 30 -38 12 -61 -10 -13 -44 -59 -77 -103 -32 -43 -75 -94 -95
-111 -34 -31 -35 -34 -18 -47 10 -8 38 -17 63 -21 36 -5 49 -12 62 -36 10 -16
23 -29 29 -29 12 0 63 71 63 87 0 16 46 149 57 168 12 19 14 19 44 -15 18 -19
46 -51 64 -70 17 -19 40 -48 49 -63 16 -23 46 -38 46 -21 0 7 -151 218 -162
225 -12 8 0 55 18 70 8 6 14 17 14 23 0 6 9 22 20 36 l19 25 56 -55 c36 -35
53 -60 50 -71 -4 -11 26 -46 97 -112 95 -90 128 -112 128 -86 0 5 -22 34 -50
63 -27 29 -50 60 -50 68 0 8 -10 23 -21 34 -12 10 -42 51 -67 89 -24 39 -54
80 -65 92 -25 28 -20 34 40 44 48 8 130 -4 268 -37 33 -7 151 -27 261 -43 186
-28 389 -73 407 -90 12 -12 -90 -109 -150 -143 -29 -16 -50 -34 -47 -40 3 -5
25 -19 48 -29 22 -11 56 -29 75 -39 18 -10 39 -16 46 -14 14 6 35 47 35 69 0
8 18 44 40 80 22 36 40 67 40 70 0 2 21 36 46 75 50 77 59 79 90 18 9 -17 22
-28 31 -26 26 5 25 22 -3 63 -50 75 -50 76 22 170 36 47 62 90 59 95 -11 18
-32 10 -50 -17 -38 -60 -98 -133 -105 -128 -5 3 -22 30 -40 61 -30 54 -31 57
-14 76 15 16 16 23 6 38 -17 28 -14 69 8 119 11 24 20 50 20 57 0 23 -25 27
-58 10 l-29 -15 18 67 c27 99 75 211 101 232 20 16 25 17 39 4 32 -28 59 -4
33 30 -12 17 -6 27 56 100 64 74 83 106 62 106 -4 0 -21 -17 -37 -39 -33 -43
-103 -121 -108 -121 -2 0 -14 24 -27 53 -14 28 -32 63 -42 76 -30 40 -20 106
29 184 40 64 20 71 -95 30 -99 -34 -110 -42 -86 -63 11 -8 25 -28 32 -43 11
-26 11 -28 -7 -22 -14 4 -24 0 -33 -14 -8 -14 -24 -21 -43 -21 -16 0 -48 -9
-70 -19 -55 -24 -167 -57 -245 -71 -36 -7 -117 -22 -180 -35 -111 -22 -118
-23 -200 -8 -62 11 -92 22 -111 39 -14 13 -29 21 -34 17 -4 -5 -5 -3 -1 4 3 7
-8 28 -26 48 l-32 37 19 35 c11 19 38 60 62 90 42 54 51 73 35 73 -11 0 -74
-67 -109 -117 l-29 -41 -35 71 c-19 40 -34 77 -34 84 0 6 -7 19 -16 30 -19 22
-39 97 -39 149 0 21 9 57 21 81 37 77 1 97 -61 35z m-27 -96 c-3 -14 -15 -34
-28 -46 -21 -20 -23 -20 -40 -4 -16 16 -14 19 27 45 24 15 44 28 44 28 1 1 -1
-10 -3 -23z m38 -118 c6 -24 15 -52 21 -63 6 -11 -8 -2 -31 20 -43 41 -48 54
-29 73 20 20 27 14 39 -30z m-299 -108 l-4 -49 -29 21 c-16 12 -29 24 -29 27
0 6 52 50 60 51 3 0 3 -22 2 -50z m379 -108 l46 -57 -23 -37 c-13 -20 -27 -39
-32 -42 -8 -5 -132 20 -140 28 -4 5 91 166 98 165 3 0 26 -26 51 -57z m-308 3
c10 -20 9 -20 -11 -2 -12 12 -18 25 -14 35 5 13 6 14 10 1 3 -7 9 -23 15 -34z
m1457 31 c0 -2 -3 -12 -6 -20 -5 -13 -9 -14 -20 -5 -16 13 -9 29 12 29 8 0 14
-2 14 -4z m-1590 -123 c90 -19 168 -37 172 -39 10 -7 -3 -32 -54 -99 -22 -30
-48 -57 -57 -59 -30 -9 -313 -17 -308 -9 3 5 7 54 8 109 1 56 6 110 10 121 9
24 -3 25 229 -24z m582 -90 c-4 -2 -33 5 -65 15 l-58 18 27 29 27 29 38 -44
c22 -25 36 -46 31 -47z m1046 -32 l40 -74 -26 -22 c-25 -20 -33 -21 -92 -14
-36 5 -114 13 -175 18 -123 11 -217 25 -309 46 -33 8 -77 15 -96 15 -59 1 -13
18 91 34 52 8 156 30 231 50 75 20 154 36 175 37 21 1 49 4 63 8 32 10 46 -4
98 -98z m-1429 12 c-38 -71 -48 -83 -65 -83 -8 0 8 29 37 70 28 39 53 70 55
70 2 0 -10 -26 -27 -57z m190 1 c-9 -11 -16 -9 -40 8 -16 12 -29 23 -29 24 0
1 18 -3 40 -8 32 -8 38 -13 29 -24z m-71 -6 c23 -18 41 -36 41 -41 2 -15 -54
-28 -110 -25 l-58 3 29 48 c17 26 36 47 44 47 8 0 32 -15 54 -32z m177 2 c33
-6 76 -13 95 -16 34 -5 58 -19 49 -28 -10 -9 -192 -14 -215 -6 -24 9 -24 11
-8 35 9 14 17 25 18 25 0 0 28 -5 61 -10z m430 -74 c44 -7 87 -14 95 -14 8 0
53 -7 100 -15 47 -8 126 -20 175 -26 193 -24 260 -34 270 -43 16 -14 -105
-123 -160 -143 -28 -10 -54 -22 -60 -27 -14 -12 11 -32 89 -71 l68 -33 -48
-19 c-27 -10 -62 -27 -77 -37 -23 -16 -26 -23 -16 -34 7 -8 18 -13 26 -10 7 3
21 -2 31 -12 24 -24 55 -73 49 -78 -7 -7 -132 -33 -237 -49 -52 -9 -102 -17
-110 -20 -8 -2 -44 -7 -79 -10 -36 -4 -67 -8 -71 -10 -3 -2 -48 -8 -100 -14
-52 -6 -126 -16 -165 -21 -51 -6 -89 -5 -143 5 -100 19 -108 25 -84 56 10 13
32 47 47 74 16 28 44 68 62 89 24 29 30 42 21 47 -19 12 -69 -42 -118 -125
-49 -82 -68 -106 -85 -106 -15 0 -88 74 -105 106 -11 20 -8 28 33 80 25 32 44
62 41 66 -13 21 -45 4 -80 -43 l-39 -51 -52 59 c-29 32 -53 61 -53 66 0 12 54
-5 63 -20 12 -20 31 -16 56 11 16 16 21 31 16 45 -3 11 -2 28 3 38 10 20 31
60 43 83 20 35 69 144 69 152 0 23 -19 1 -50 -59 -83 -160 -126 -214 -144
-184 -7 10 53 121 112 209 38 56 46 62 77 62 28 0 50 -14 122 -74 48 -40 111
-97 138 -126 74 -77 132 -123 150 -116 25 9 18 22 -37 64 -29 22 -73 59 -98
82 -25 23 -81 72 -124 109 l-79 65 34 7 c19 4 62 9 96 13 l63 6 49 -63 c27
-34 69 -80 93 -103 24 -23 51 -53 61 -67 19 -29 25 -31 46 -18 20 13 5 46 -41
88 -75 68 -156 158 -152 165 8 13 122 9 209 -6z m-834 -108 c-21 -40 -46 -88
-55 -106 -17 -32 -17 -32 -41 -15 -38 28 -41 21 85 171 10 12 26 22 34 22 12
0 7 -16 -23 -72z m1472 -60 c-4 -7 -8 -17 -9 -23 -1 -5 -9 -29 -18 -52 -8 -24
-13 -43 -9 -43 3 0 0 -7 -7 -15 -13 -16 -39 -7 -69 22 -12 12 -10 17 10 31 13
9 42 33 64 54 43 40 51 45 38 26z m-1333 -359 c0 -25 -25 -12 -86 45 -62 57
-67 65 -55 80 13 16 20 12 78 -50 35 -37 63 -70 63 -75z m-260 36 c42 -57 48
-71 35 -73 -11 -3 -42 21 -82 60 l-64 63 22 18 c25 20 20 24 89 -68z m1576 66
c-4 -5 -7 -28 -8 -50 -1 -23 -3 -41 -4 -41 -8 0 -78 70 -74 73 8 7 64 25 78
26 7 1 11 -3 8 -8z m-1432 -87 c47 -44 75 -79 70 -84 -5 -5 -31 -4 -62 3 -49
11 -56 16 -87 67 -31 51 -33 56 -18 72 9 10 17 18 17 18 1 0 37 -34 80 -76z
m-220 -79 c85 -16 90 -19 153 -79 35 -32 40 -42 32 -58 -15 -27 -48 -37 -158
-47 -53 -5 -102 -10 -110 -12 -19 -5 -29 31 -30 109 -1 59 10 102 27 102 4 0
43 -7 86 -15z m409 -10 c12 -17 14 -25 6 -25 -15 0 -49 29 -49 42 0 17 26 7
43 -17z m1278 -89 l39 -59 -36 -47 c-47 -62 -73 -66 -212 -36 -59 13 -138 29
-177 35 -111 18 -119 20 -145 27 -14 3 -45 9 -70 13 -227 38 -251 44 -180 48
22 2 120 18 217 38 98 19 198 37 223 39 25 2 61 7 80 10 19 3 56 8 82 11 26 3
58 9 70 14 29 11 54 -11 109 -93z m-1442 38 c-16 -19 -26 -18 -31 4 -4 15 -1
18 19 14 19 -3 21 -7 12 -18z m169 -42 c13 -13 22 -25 20 -27 -2 -1 -33 -5
-70 -8 -74 -7 -77 -4 -53 43 13 26 19 29 48 23 17 -3 42 -17 55 -31z m78 -10
c-4 -3 -14 2 -24 12 -16 18 -16 18 6 6 13 -6 21 -14 18 -18z m94 -2 c18 -12 2
-12 -25 0 -13 6 -15 9 -5 9 8 0 22 -4 30 -9z m-152 -67 c-8 -18 -53 -83 -58
-83 -3 1 -18 17 -33 38 l-29 37 34 6 c49 9 90 10 86 2z m140 -21 c20 -30 11
-28 -17 4 -13 15 -17 24 -10 22 7 -2 19 -14 27 -26z m-108 -36 c-16 -30 -30
-61 -33 -68 -3 -9 -8 -10 -15 -3 -10 9 18 62 59 111 19 23 17 16 -11 -40z
m-281 -13 c-17 -32 -48 -91 -67 -130 -37 -76 -51 -85 -93 -62 -19 10 -17 13
25 59 24 28 68 81 97 120 30 38 58 70 62 70 5 0 -6 -26 -24 -57z m1433 -112
c-9 -16 -32 -54 -50 -85 -19 -31 -36 -56 -39 -56 -4 0 -15 8 -25 17 -18 16
-15 19 54 84 40 38 74 68 75 69 2 0 -5 -13 -15 -29z m-1226 6 c7 -20 -79 -221
-96 -224 -8 -2 -30 6 -48 17 l-32 20 52 72 c84 118 112 145 124 115z"/>
</g>
</svg>
