<?xml version="1.0" standalone="no"?>
<!DOCTYPE svg PUBLIC "-//W3C//DTD SVG 20010904//EN"
 "http://www.w3.org/TR/2001/REC-SVG-20010904/DTD/svg10.dtd">
<svg version="1.0" xmlns="http://www.w3.org/2000/svg"
 width="324.000000pt" height="136.000000pt" viewBox="0 0 324.000000 136.000000"
 preserveAspectRatio="xMidYMid meet">
<metadata>
Created by potrace 1.16, written by Peter Selinger 2001-2019
</metadata>
<g transform="translate(0.000000,136.000000) scale(0.100000,-0.100000)"
fill="#000000" stroke="none">
<path d="M1670 1072 c-85 -87 -323 -282 -346 -282 -14 0 -94 -44 -94 -51 0 -5
12 -15 28 -23 l27 -15 -30 -1 c-52 0 -294 30 -475 60 -96 15 -236 38 -311 49
-75 12 -166 30 -202 40 -50 14 -71 15 -81 7 -8 -6 -24 -46 -35 -89 -11 -43
-22 -81 -25 -86 -3 -4 -6 -34 -7 -65 -2 -40 2 -61 12 -67 18 -12 55 -7 52 6
-3 18 37 25 191 35 83 5 187 12 231 14 44 3 94 8 110 11 17 3 91 8 165 10 74
3 176 10 225 16 97 10 223 10 230 -1 3 -4 -4 -15 -15 -25 -19 -17 -27 -45 -14
-45 14 0 48 24 77 56 l32 35 30 -58 c17 -32 45 -82 63 -111 38 -62 31 -63 -30
-7 -56 52 -114 95 -127 95 -24 0 -9 -31 27 -54 20 -13 44 -31 52 -41 8 -10 47
-45 85 -78 76 -65 97 -93 89 -118 -3 -12 5 -20 26 -27 30 -11 38 -26 20 -37
-5 -3 -10 -10 -10 -14 0 -13 37 -20 48 -9 15 15 1030 29 1344 18 80 -3 150 -1
154 3 15 15 -12 40 -62 58 -51 18 -192 61 -329 99 -116 33 -362 115 -420 140
-27 13 -100 39 -162 59 l-111 37 141 71 c78 39 180 87 227 106 47 19 119 49
160 67 41 18 95 39 120 48 25 8 52 20 60 27 8 6 42 22 74 35 33 13 55 25 49
27 -6 2 -40 -8 -74 -22 -275 -113 -815 -286 -833 -267 -4 3 -6 14 -6 24 0 28
-38 112 -87 193 l-42 70 37 7 c20 4 69 7 107 7 39 0 122 5 185 13 114 13 150
14 370 11 63 -1 147 -2 185 -2 39 1 104 0 145 0 72 -2 74 -2 50 -17 l-25 -15
25 6 c56 15 78 16 84 6 9 -13 53 -15 61 -2 10 17 -26 41 -63 42 -20 0 -53 2
-72 4 -19 1 -172 5 -340 9 -168 4 -332 8 -365 11 -33 2 -123 7 -200 10 -229 9
-325 16 -331 26 -11 18 -30 8 -74 -39z m500 -19 l85 -7 -55 -7 c-30 -4 -121
-7 -201 -8 -115 -1 -149 2 -158 13 -8 9 -8 15 -2 18 16 5 234 -1 331 -9z
m-410 -29 c0 -8 11 -19 24 -23 29 -12 75 -69 114 -146 44 -86 51 -107 58 -185
12 -135 -23 -218 -137 -324 -107 -100 -105 -100 -103 1 1 47 5 142 10 212 8
134 7 392 -2 453 -5 33 -4 36 15 31 12 -3 21 -12 21 -19z m-78 -111 c1 -65 3
-136 4 -158 3 -69 -24 -397 -35 -408 -6 -6 -15 -1 -24 14 -8 13 -40 63 -70
111 -66 103 -107 189 -114 238 -4 30 2 44 44 98 26 35 58 77 69 93 45 59 106
129 115 129 5 0 10 -53 11 -117z m-208 -80 c-26 -32 -62 -75 -80 -95 l-34 -38
-34 24 -35 23 37 15 c37 15 174 114 181 131 1 4 5 6 8 3 2 -2 -17 -31 -43 -63z
m-994 -59 c96 -13 186 -26 200 -29 14 -2 68 -10 120 -19 52 -8 138 -20 190
-26 52 -6 111 -14 130 -17 35 -7 35 -7 -15 -14 -27 -4 -97 -8 -155 -8 -58 -1
-157 -8 -221 -15 -64 -8 -174 -15 -244 -15 -71 -1 -131 -3 -134 -5 -3 -2 -46
-7 -94 -10 l-88 -7 6 53 c6 54 25 148 31 160 2 3 25 0 51 -8 27 -8 127 -26
223 -40z m1910 6 c-8 -5 -19 -10 -25 -10 -5 0 -3 5 5 10 8 5 20 10 25 10 6 0
3 -5 -5 -10z m-75 -32 c-22 -12 -95 -45 -162 -74 -104 -45 -123 -50 -123 -35
0 22 33 38 185 89 137 46 156 50 100 20z m-144 -183 c96 -29 221 -76 215 -82
-4 -5 -93 15 -121 27 -11 5 -36 12 -55 16 -30 5 -79 23 -155 54 -47 20 34 9
116 -15z m-62 -35 c50 -19 152 -46 281 -74 83 -17 204 -50 300 -81 41 -13 102
-29 135 -36 33 -7 65 -16 72 -22 7 -5 16 -6 21 -3 5 3 43 -5 83 -18 41 -14 86
-27 102 -30 15 -4 27 -11 27 -18 0 -8 -41 -9 -151 -4 -145 7 -488 8 -614 2
-66 -4 -256 8 -434 25 l-114 12 71 67 c68 65 112 125 112 155 0 11 39 41 57
45 1 0 25 -9 52 -20z m-214 -275 c50 -4 92 -9 95 -11 2 -3 -46 -4 -108 -2 -61
2 -112 6 -112 10 0 7 22 17 30 13 3 -2 46 -6 95 -10z"/>
<path d="M1745 980 c-8 -12 20 -24 35 -15 5 3 10 10 10 16 0 12 -37 12 -45 -1z"/>
<path d="M1787 880 c3 -11 11 -19 17 -17 17 6 13 31 -6 35 -12 2 -15 -2 -11
-18z"/>
<path d="M1797 794 c-9 -10 4 -34 19 -34 8 0 14 4 14 9 0 12 -26 32 -33 25z"/>
<path d="M1802 685 c12 -27 28 -33 28 -10 0 8 -9 19 -20 25 -18 10 -19 9 -8
-15z"/>
<path d="M1800 595 c0 -9 5 -15 11 -13 6 2 11 8 11 13 0 5 -5 11 -11 13 -6 2
-11 -4 -11 -13z"/>
<path d="M1780 506 c0 -9 7 -16 16 -16 17 0 14 22 -4 28 -7 2 -12 -3 -12 -12z"/>
<path d="M1744 426 c-8 -22 3 -33 18 -18 9 9 9 15 0 24 -9 9 -13 7 -18 -6z"/>
<path d="M1730 350 c0 -11 5 -20 10 -20 6 0 10 9 10 20 0 11 -4 20 -10 20 -5
0 -10 -9 -10 -20z"/>
</g>
</svg>
