<?xml version="1.0" standalone="no"?>
<!DOCTYPE svg PUBLIC "-//W3C//DTD SVG 20010904//EN"
 "http://www.w3.org/TR/2001/REC-SVG-20010904/DTD/svg10.dtd">
<svg version="1.0" xmlns="http://www.w3.org/2000/svg"
 width="192.000000pt" height="160.000000pt" viewBox="0 0 192.000000 160.000000"
 preserveAspectRatio="xMidYMid meet">
<metadata>
Created by potrace 1.16, written by Peter Selinger 2001-2019
</metadata>
<g transform="translate(0.000000,160.000000) scale(0.100000,-0.100000)"
fill="#000000" stroke="none">
<path d="M1032 1283 c-129 -128 -171 -184 -195 -253 l-15 -45 -95 -3 c-52 -1
-121 2 -153 8 -33 6 -90 15 -129 20 -38 4 -82 13 -96 18 -39 15 -63 -6 -64
-55 -1 -21 -5 -46 -9 -55 -5 -12 -1 -21 17 -32 20 -14 35 -15 93 -6 118 18
246 29 333 30 l83 0 -6 -58 c-3 -32 -2 -99 3 -148 8 -76 16 -103 56 -182 49
-96 58 -105 142 -132 57 -18 161 -1 214 35 21 14 43 25 48 25 10 0 81 92 81
106 0 4 6 15 14 23 15 18 67 166 87 251 21 88 15 317 -10 383 -15 40 -119 150
-159 169 -20 10 -56 18 -80 18 -41 0 -46 -4 -160 -117z m192 45 c23 -7 52 -26
66 -43 14 -16 35 -40 48 -53 29 -30 28 -42 -5 -43 -96 -5 -336 -3 -339 3 -8
13 52 72 111 110 68 43 64 42 119 26z m153 -190 c21 -15 27 -204 8 -302 -26
-140 -20 -133 -117 -141 -46 -3 -148 -8 -228 -9 -80 -2 -153 -6 -162 -10 -14
-6 -18 0 -23 37 -12 77 9 251 40 338 23 67 49 87 115 91 106 6 355 3 367 -4z
m-47 -494 c0 -33 -62 -125 -102 -152 -71 -47 -84 -52 -159 -57 -67 -5 -77 -4
-101 17 -28 24 -98 148 -98 174 0 20 28 24 190 27 80 1 173 4 208 5 51 2 62
-1 62 -14z"/>
<path d="M1015 929 c-90 -9 -153 -38 -112 -52 6 -2 26 0 43 5 17 4 114 9 215
11 101 1 189 6 196 10 7 4 10 14 7 21 -4 11 -35 14 -147 13 -78 -1 -169 -4
-202 -8z"/>
</g>
</svg>
