<?xml version="1.0" standalone="no"?>
<!DOCTYPE svg PUBLIC "-//W3C//DTD SVG 20010904//EN"
 "http://www.w3.org/TR/2001/REC-SVG-20010904/DTD/svg10.dtd">
<svg version="1.0" xmlns="http://www.w3.org/2000/svg"
 width="107.000000pt" height="89.000000pt" viewBox="0 0 107.000000 89.000000"
 preserveAspectRatio="xMidYMid meet">
<metadata>
Created by potrace 1.16, written by Peter Selinger 2001-2019
</metadata>
<g transform="translate(0.000000,89.000000) scale(0.100000,-0.100000)"
fill="#000000" stroke="none">
<path d="M767 750 c-15 -5 -69 -14 -120 -20 -120 -15 -135 -17 -147 -25 -16
-10 -11 -32 9 -38 14 -3 20 -18 25 -67 4 -34 6 -63 4 -64 -2 -2 -48 3 -103 9
-105 13 -213 47 -222 71 -8 21 -30 17 -47 -8 -12 -16 -16 -48 -17 -113 0 -49
-4 -113 -8 -141 -12 -83 1 -92 69 -49 22 14 43 25 48 25 4 0 13 5 20 12 6 6
28 18 49 25 51 19 216 64 220 60 2 -2 5 -33 8 -68 3 -35 7 -82 10 -104 3 -22
7 -59 9 -82 6 -52 22 -83 43 -83 11 0 14 6 8 23 -14 42 -23 192 -14 236 21 98
36 108 166 115 264 15 276 16 260 32 -3 3 -61 8 -129 10 -135 5 -219 11 -225
18 -3 2 12 37 33 76 36 70 70 114 95 122 7 2 10 11 6 21 -7 19 -10 19 -50 7z
m-45 -62 c-17 -22 -52 -88 -52 -101 -1 -27 -39 -58 -67 -55 -27 3 -28 5 -31
75 l-3 72 43 5 c24 3 54 7 68 10 50 7 53 7 42 -6z m-437 -158 c33 -10 106 -25
163 -31 56 -6 102 -15 102 -19 0 -11 -57 -23 -70 -15 -6 4 -16 3 -23 -2 -7 -5
-32 -16 -57 -23 -36 -11 -124 -49 -203 -88 -5 -2 -4 5 2 16 6 10 12 56 13 101
2 44 5 81 8 81 3 0 32 -9 65 -20z"/>
</g>
</svg>
