<?xml version="1.0" standalone="no"?>
<!DOCTYPE svg PUBLIC "-//W3C//DTD SVG 20010904//EN"
 "http://www.w3.org/TR/2001/REC-SVG-20010904/DTD/svg10.dtd">
<svg version="1.0" xmlns="http://www.w3.org/2000/svg"
 width="149.000000pt" height="90.000000pt" viewBox="0 0 149.000000 90.000000"
 preserveAspectRatio="xMidYMid meet">
<metadata>
Created by potrace 1.16, written by Peter Selinger 2001-2019
</metadata>
<g transform="translate(0.000000,90.000000) scale(0.100000,-0.100000)"
fill="#000000" stroke="none">
<path d="M217 726 c-10 -24 -17 -124 -22 -280 -2 -81 -5 -149 -7 -151 -2 -1
-11 -6 -21 -12 -16 -8 -14 -11 13 -32 l31 -22 28 23 c16 13 37 28 47 35 17 10
15 11 -11 7 l-30 -4 3 187 c1 104 4 193 6 200 4 8 15 9 38 3 18 -5 78 -16 133
-24 241 -37 270 -48 302 -110 20 -38 12 -139 -12 -166 -19 -21 -142 -55 -230
-64 -122 -13 -137 -17 -124 -32 6 -8 15 -11 21 -8 5 3 58 8 118 10 131 5 229
32 259 70 l21 26 50 -42 c43 -36 62 -44 142 -61 51 -10 136 -22 188 -25 52 -4
105 -10 117 -15 48 -18 57 -4 67 106 4 33 11 92 16 130 5 39 9 103 10 143 0
68 -2 73 -25 84 -27 12 -101 0 -178 -28 -20 -8 -44 -14 -52 -14 -28 0 -240
-106 -278 -139 -34 -31 -37 -32 -37 -11 0 22 -42 106 -63 126 -25 23 -108 44
-257 65 -85 12 -170 22 -188 21 -17 0 -35 4 -38 9 -8 14 -31 11 -37 -5z m1089
-58 c14 -23 -8 -298 -28 -351 -10 -27 -13 -28 -63 -23 -59 5 -96 11 -217 33
-77 14 -92 20 -128 54 -22 21 -40 44 -40 52 0 44 122 149 200 172 14 4 30 11
35 15 6 5 39 14 75 20 36 7 83 18 105 26 51 16 52 16 61 2z"/>
<path d="M315 290 c4 -6 11 -8 16 -5 14 9 11 15 -7 15 -8 0 -12 -5 -9 -10z"/>
</g>
</svg>
