<?xml version="1.0" standalone="no"?>
<!DOCTYPE svg PUBLIC "-//W3C//DTD SVG 20010904//EN"
 "http://www.w3.org/TR/2001/REC-SVG-20010904/DTD/svg10.dtd">
<svg version="1.0" xmlns="http://www.w3.org/2000/svg"
 width="162.000000pt" height="184.000000pt" viewBox="0 0 162.000000 184.000000"
 preserveAspectRatio="xMidYMid meet">
<metadata>
Created by potrace 1.16, written by Peter Selinger 2001-2019
</metadata>
<g transform="translate(0.000000,184.000000) scale(0.100000,-0.100000)"
fill="#000000" stroke="none">
<path d="M324 1528 c-4 -6 -10 -56 -13 -109 -4 -58 -11 -103 -18 -111 -16 -15
-17 -48 -3 -48 6 0 43 9 83 19 83 23 229 52 234 48 4 -4 -33 -111 -90 -263
-26 -67 -56 -156 -67 -199 -27 -100 -85 -256 -147 -393 -8 -19 -13 -42 -10
-53 4 -14 0 -19 -13 -19 -40 0 -51 11 -44 45 7 37 -10 55 -31 34 -13 -13 -62
-187 -72 -256 -6 -36 14 -46 37 -18 18 21 107 52 175 60 33 3 83 11 110 17 75
15 455 20 576 7 119 -13 154 -8 162 20 7 26 -9 31 -104 31 l-78 0 23 43 c12
23 32 57 43 76 12 18 40 81 63 139 23 58 60 138 82 176 60 110 176 349 194
403 22 65 101 210 121 221 9 6 14 16 10 26 -5 12 -15 14 -51 10 -24 -4 -66 -1
-93 5 -44 10 -267 24 -608 37 -71 3 -179 14 -239 25 -59 12 -123 19 -141 17
-18 -2 -37 2 -44 9 -15 16 -38 17 -47 1z m229 -68 c60 -12 156 -22 231 -24 70
-2 129 -6 132 -9 3 -3 -25 -8 -63 -12 -37 -4 -133 -20 -213 -35 -80 -16 -176
-31 -215 -35 l-70 -6 2 62 c1 34 4 67 7 74 6 16 52 12 189 -15z m746 -53 c20
5 23 3 17 -12 -3 -10 -11 -37 -17 -61 -6 -25 -15 -47 -20 -49 -11 -8 -274 -8
-344 -1 -107 12 -116 15 -103 36 19 30 3 34 -62 16 -38 -11 -73 -15 -92 -11
-48 11 -4 27 112 41 32 4 194 26 315 43 28 3 77 3 110 -1 33 -4 71 -4 84 -1z
m162 -10 c25 7 25 4 -15 -69 -19 -35 -47 -97 -62 -138 -30 -85 -131 -290 -194
-395 -39 -66 -45 -61 -15 12 7 17 23 71 35 120 30 124 60 215 77 235 8 9 12
21 9 27 -10 15 12 51 29 51 8 0 15 7 15 15 0 8 -5 15 -11 15 -13 0 -5 53 16
103 14 34 15 34 56 27 22 -4 49 -5 60 -3z m-746 -160 c-12 -24 -46 -81 -75
-127 -30 -47 -75 -123 -102 -170 -26 -47 -48 -80 -48 -75 0 26 62 209 99 293
23 51 41 99 41 107 0 10 15 14 54 14 l54 0 -23 -42z m330 18 c165 -3 225 -10
225 -24 0 -4 -6 -16 -14 -26 -11 -16 -28 -19 -117 -19 -114 -1 -380 12 -386
18 -3 2 3 19 12 36 16 31 18 32 63 25 26 -4 124 -8 217 -10z m117 -100 c80 0
89 -6 65 -39 -12 -16 -85 -32 -142 -31 -157 4 -395 20 -395 27 0 5 7 19 16 33
l15 24 182 -7 c100 -3 217 -6 259 -7z m37 -94 c19 -12 -4 -81 -27 -82 -33 -2
-307 3 -342 6 -19 1 -69 3 -110 4 -96 2 -107 8 -83 49 l18 32 265 -1 c146 0
272 -4 279 -8z m-79 -116 c58 -4 57 -4 52 -31 -7 -37 -41 -46 -161 -40 -59 3
-167 8 -241 11 -74 3 -152 8 -173 11 l-37 6 17 30 18 30 250 -8 c138 -4 261
-8 275 -9z m-235 -90 c110 -3 209 -7 220 -9 11 -3 26 -5 33 -5 19 -1 14 -20
-13 -47 -28 -28 -8 -28 -285 -4 -58 5 -154 12 -214 15 -61 3 -112 7 -114 9 -2
3 4 15 13 29 15 24 20 25 88 21 40 -2 162 -6 272 -9z m-215 -89 c167 -7 397
-24 422 -32 14 -4 15 -10 6 -35 -7 -20 -15 -28 -27 -25 -54 14 -152 22 -443
32 l-177 6 20 39 c16 32 23 38 37 30 9 -4 82 -11 162 -15z m110 -97 c125 -1
276 -13 287 -23 1 -1 0 -12 -4 -24 -3 -15 -11 -21 -22 -18 -9 3 -88 7 -176 11
-205 8 -343 15 -375 19 -14 2 -35 4 -47 5 -15 1 -21 6 -17 15 8 22 30 25 119
21 44 -3 150 -5 235 -6z m80 -84 c60 -3 190 -17 190 -20 0 -1 -11 -36 -24 -77
-21 -68 -49 -125 -67 -138 -12 -9 -262 8 -445 30 -94 11 -174 20 -177 20 -7 0
-2 13 28 86 l17 42 81 -4 c45 -2 165 -6 267 -8 102 -2 197 -9 211 -14 20 -8
31 -7 45 3 17 13 17 16 4 25 -8 5 -31 10 -50 11 -19 1 -46 2 -60 4 -14 1 -124
6 -244 9 -120 4 -223 9 -227 12 -5 3 -9 12 -9 20 0 14 26 15 208 9 114 -4 227
-9 252 -10z m-435 -237 l160 -12 -85 -12 c-47 -6 -120 -14 -163 -17 -43 -4
-83 -10 -90 -14 -7 -4 -22 -9 -33 -10 -21 -3 -21 -2 -7 42 13 37 19 44 37 40
11 -2 93 -10 181 -17z"/>
<path d="M384 455 c-4 -9 -5 -18 -2 -20 2 -2 62 -7 134 -10 199 -8 333 -15
395 -21 38 -4 59 -2 64 6 12 19 -2 24 -83 26 -69 2 -107 5 -277 19 -204 17
-225 17 -231 0z"/>
</g>
</svg>
