<?xml version="1.0" standalone="no"?>
<!DOCTYPE svg PUBLIC "-//W3C//DTD SVG 20010904//EN"
 "http://www.w3.org/TR/2001/REC-SVG-20010904/DTD/svg10.dtd">
<svg version="1.0" xmlns="http://www.w3.org/2000/svg"
 width="244.000000pt" height="112.000000pt" viewBox="0 0 244.000000 112.000000"
 preserveAspectRatio="xMidYMid meet">
<metadata>
Created by potrace 1.16, written by Peter Selinger 2001-2019
</metadata>
<g transform="translate(0.000000,112.000000) scale(0.100000,-0.100000)"
fill="#000000" stroke="none">
<path d="M311 921 c-27 -18 -1 -41 101 -91 109 -54 167 -101 238 -199 22 -29
40 -61 40 -71 0 -11 4 -21 9 -24 10 -7 29 -77 42 -156 5 -30 11 -64 13 -75 2
-11 4 -33 5 -49 l1 -28 118 6 c64 4 149 9 187 11 190 12 282 15 548 21 159 3
307 2 329 -1 45 -8 43 0 22 -112 -5 -28 -3 -33 13 -33 14 0 22 12 31 45 7 25
12 53 12 62 0 9 7 24 15 33 14 15 29 78 39 155 12 101 120 352 178 411 31 33
26 51 -13 39 -11 -4 -87 -7 -169 -7 -140 0 -188 -8 -140 -23 26 -8 50 -33 50
-50 0 -11 -25 -13 -132 -10 -73 2 -182 8 -243 13 -60 6 -173 15 -250 21 -77 6
-169 14 -205 18 -36 3 -94 7 -130 7 l-65 1 2 -35 c7 -137 31 -193 70 -158 19
17 139 53 208 63 22 4 47 8 55 10 52 14 213 25 348 24 86 0 200 0 253 1 85 1
97 -1 104 -17 17 -38 15 -233 -2 -329 l-18 -94 -310 4 c-170 3 -337 10 -370
15 -33 6 -100 13 -150 16 -49 3 -121 10 -160 15 -38 5 -93 11 -122 12 l-52 2
-10 61 c-27 155 -78 252 -192 363 -85 83 -258 160 -298 133z m1831 -203 c-30
-62 -63 -138 -73 -168 l-18 -55 1 80 c1 68 -23 223 -38 247 -3 5 37 8 89 8
l95 0 -56 -112z m-977 67 c28 -3 90 -7 138 -9 49 -3 91 -6 92 -8 2 -2 -44 -10
-103 -17 -141 -18 -129 -16 -195 -31 -31 -7 -59 -11 -61 -9 -2 2 -6 24 -10 48
l-7 44 48 -7 c26 -4 71 -9 98 -11z m-35 -481 c98 -7 165 -15 169 -20 2 -2 -47
-4 -110 -5 -140 0 -350 -9 -366 -14 -9 -3 -13 6 -13 27 l0 31 133 -7 c72 -4
157 -9 187 -12z"/>
</g>
</svg>
