<?xml version="1.0" standalone="no"?>
<!DOCTYPE svg PUBLIC "-//W3C//DTD SVG 20010904//EN"
 "http://www.w3.org/TR/2001/REC-SVG-20010904/DTD/svg10.dtd">
<svg version="1.0" xmlns="http://www.w3.org/2000/svg"
 width="291.000000pt" height="168.000000pt" viewBox="0 0 291.000000 168.000000"
 preserveAspectRatio="xMidYMid meet">
<metadata>
Created by potrace 1.16, written by Peter Selinger 2001-2019
</metadata>
<g transform="translate(0.000000,168.000000) scale(0.100000,-0.100000)"
fill="#000000" stroke="none">
<path d="M1365 1633 c-50 -4 -71 -18 -55 -38 8 -10 14 -94 11 -163 -1 -27 -4
-32 -18 -28 -10 2 -146 8 -302 11 -209 5 -292 11 -317 21 -26 11 -40 12 -55 4
-17 -10 -19 -18 -15 -58 2 -26 5 -49 6 -52 1 -3 1 -22 0 -43 -1 -22 5 -46 13
-55 9 -10 17 -49 21 -97 4 -44 9 -95 13 -112 7 -42 -9 -48 -79 -34 -29 6 -105
16 -168 21 -63 6 -142 15 -175 20 -111 19 -100 26 -101 -71 -1 -59 4 -92 13
-105 13 -17 15 -17 23 -3 7 12 37 20 107 29 54 7 116 19 138 26 l40 15 -50 -5
c-27 -3 -92 -8 -142 -12 l-93 -7 0 60 0 60 63 -14 c34 -7 107 -15 162 -17 55
-2 138 -10 185 -17 l85 -13 -75 -13 c-41 -7 -87 -14 -102 -15 -16 -1 -28 -6
-28 -11 0 -5 10 -7 23 -3 12 3 56 9 97 12 l75 7 -3 -99 c-3 -127 -3 -128 -52
-121 -54 7 -67 -10 -45 -57 9 -19 22 -57 29 -83 14 -55 39 -68 57 -31 7 17 27
30 62 41 107 35 247 77 256 77 6 0 8 -13 4 -32 -4 -22 -3 -29 5 -24 7 4 12 13
12 20 0 24 39 64 67 69 16 3 59 14 98 25 38 11 71 20 72 19 1 -2 -2 -20 -8
-42 -5 -22 -11 -56 -14 -75 -3 -19 -11 -60 -17 -90 -6 -30 -11 -75 -12 -100
-1 -53 -12 -60 -76 -53 -52 7 -70 18 -70 44 0 21 -25 26 -36 8 -11 -18 -17
-319 -7 -319 5 0 13 4 19 10 14 14 392 102 544 125 55 9 123 33 95 34 -11 1
-69 -8 -130 -19 -260 -48 -331 -62 -345 -67 -8 -4 -19 -5 -23 -4 -4 0 -35 -5
-67 -13 l-60 -13 0 47 c0 26 3 67 6 91 l6 44 222 4 c121 2 241 4 266 5 29 1
49 -4 57 -14 10 -13 13 -13 30 2 16 14 44 16 213 15 107 -1 200 -5 205 -8 17
-11 208 5 212 17 5 16 -35 25 -79 17 -24 -3 -38 -2 -38 5 0 7 -48 9 -151 5
l-152 -6 7 39 c3 21 20 82 36 134 16 52 44 162 61 244 18 81 38 153 44 160 7
6 46 18 89 25 71 13 79 12 111 -5 42 -22 121 -104 159 -164 16 -25 38 -55 49
-68 25 -27 30 -72 15 -135 -13 -51 -4 -73 25 -61 11 4 17 18 17 40 0 21 8 40
22 54 16 14 19 23 11 31 -6 6 -8 21 -3 37 5 15 17 65 28 112 11 47 32 111 46
142 14 31 26 61 26 66 0 25 116 232 160 285 22 26 29 42 22 49 -5 5 -45 14
-88 19 -72 8 -136 6 -500 -17 -60 -4 -103 -3 -107 3 -3 5 0 20 8 34 22 39 44
89 61 137 12 37 12 47 2 54 -15 9 -98 0 -115 -14 -7 -6 -13 -4 -16 4 -3 10 -9
10 -23 2 -21 -12 -20 -11 -23 -131 l-1 -83 -39 0 c-22 0 -42 4 -45 9 -12 18
17 137 41 169 31 41 25 64 -14 56 -15 -3 -55 -6 -88 -7 -56 -2 -60 -4 -62 -27
-1 -14 -6 -43 -12 -65 -5 -22 -13 -57 -16 -77 -4 -29 -11 -38 -25 -38 -12 0
-20 7 -20 16 0 29 31 137 50 175 11 20 17 39 14 42 -7 7 -163 -1 -176 -9 -6
-4 -9 -46 -8 -103 1 -53 2 -102 1 -108 -1 -14 -126 -19 -135 -5 -10 16 32 164
53 186 42 45 34 48 -94 39z m44 -59 c-5 -15 -12 -43 -15 -62 -3 -19 -10 -47
-16 -61 -5 -14 -9 -28 -8 -31 1 -2 -3 -6 -9 -8 -12 -4 -13 -1 -13 78 0 87 1
90 25 100 40 16 48 13 36 -16z m271 21 c0 -2 -4 -14 -10 -27 -5 -13 -19 -56
-30 -95 -18 -62 -24 -73 -43 -73 -21 0 -22 4 -22 93 l0 92 35 6 c47 9 70 10
70 4z m161 -87 c-23 -45 -30 -70 -26 -90 6 -24 4 -28 -17 -28 -13 0 -34 3 -47
7 -22 6 -23 9 -17 62 4 30 11 58 17 62 5 3 9 12 7 19 -2 10 13 16 45 21 27 4
52 10 55 13 18 18 10 -11 -17 -66z m249 52 c0 -21 -91 -185 -103 -185 -8 0
-13 27 -15 86 l-3 87 48 10 c65 13 73 14 73 2z m-849 -191 c38 0 69 -3 69 -8
0 -5 -84 -12 -187 -16 -156 -5 -300 -15 -418 -28 -16 -2 -20 4 -22 32 l-1 34
244 -8 c135 -4 276 -7 315 -6z m119 -9 c0 -5 -5 -10 -11 -10 -5 0 -7 5 -4 10
3 6 8 10 11 10 2 0 4 -4 4 -10z m166 3 c-10 -10 -136 -10 -136 0 0 4 32 7 72
7 39 0 68 -3 64 -7z m1044 -27 c0 -13 -11 -64 -25 -112 -41 -146 -44 -157 -50
-199 -8 -48 -65 -236 -76 -249 -12 -14 -36 11 -75 78 -35 59 -36 62 -32 155 2
64 -1 96 -8 98 -7 2 -31 -9 -55 -26 -31 -21 -52 -28 -71 -24 -15 3 -60 -5
-100 -17 -121 -36 -112 -35 -104 -9 3 13 13 76 22 139 23 172 16 157 76 164
29 3 136 9 238 12 102 3 187 8 189 10 2 2 19 4 38 4 28 0 33 -3 33 -24z m81
-58 c-48 -92 -102 -188 -106 -188 -2 0 7 35 20 78 13 42 29 101 36 130 13 51
13 52 50 52 l37 0 -37 -72z m-1125 -17 c-7 -72 -25 -191 -30 -200 -2 -3 -6
-28 -10 -56 -12 -99 -17 -108 -72 -127 -27 -9 -67 -19 -88 -23 l-39 -8 7 39
c4 21 15 91 26 154 11 63 28 150 40 194 11 43 20 80 20 82 0 5 34 9 93 10 l59
2 -6 -67z m59 33 c-7 -42 -24 -89 -29 -83 -2 2 -1 30 1 62 4 41 9 57 20 57 12
0 14 -8 8 -36z m101 -91 c-10 -180 -17 -257 -25 -264 -9 -9 -143 -41 -148 -35
-7 7 15 94 53 211 18 55 36 118 40 140 10 61 21 75 56 75 l31 0 -7 -127z m108
78 c-4 -20 -13 -49 -20 -66 -6 -16 -15 -56 -19 -88 -4 -32 -18 -89 -31 -125
l-24 -67 5 100 c4 55 6 108 6 118 0 9 5 17 10 17 6 0 7 25 3 66 -7 73 7 95 53
86 21 -4 23 -8 17 -41z m122 39 c14 0 6 -210 -11 -302 -7 -38 -26 -48 -122
-63 -54 -8 -54 -9 -9 156 18 68 37 141 40 162 8 41 34 60 71 52 11 -3 25 -5
31 -5z m59 -62 c-11 -125 -24 -155 -20 -45 4 90 9 117 21 117 3 0 2 -33 -1
-72z m-672 -33 c-2 -50 -6 -110 -9 -135 -4 -25 -8 -49 -8 -55 -1 -5 -10 -51
-20 -102 l-19 -91 -58 -16 c-32 -9 -87 -20 -123 -25 -76 -9 -68 -22 -67 113 0
43 3 96 6 117 7 38 7 39 51 39 24 0 44 -4 44 -8 0 -5 -11 -42 -25 -82 -14 -40
-25 -83 -24 -94 1 -15 5 -10 13 14 22 66 75 161 100 181 14 11 26 23 26 27 0
9 -196 9 -206 0 -4 -5 -8 -79 -8 -165 l-1 -158 -70 -13 c-38 -7 -95 -18 -125
-23 -100 -19 -95 -21 -96 43 0 32 2 77 5 100 5 37 10 43 31 46 75 9 130 25
130 37 0 11 -15 13 -74 9 -70 -6 -73 -5 -79 18 -10 37 -8 58 6 58 12 0 27 40
61 164 20 71 32 74 286 84 124 5 232 9 240 8 12 -1 15 -17 13 -91z m42 64 c-5
-42 -15 -50 -15 -12 0 26 6 43 16 43 2 0 1 -14 -1 -31z m-585 -31 c-11 -18
-20 -38 -20 -45 0 -6 -5 -24 -12 -40 -6 -15 -12 -31 -12 -35 -1 -3 -4 -10 -8
-14 -5 -4 -9 -17 -9 -28 -2 -38 -17 35 -18 90 -1 46 2 54 27 70 61 42 77 43
52 2z m789 -117 c-7 -23 -14 -39 -16 -37 -3 2 1 23 8 45 7 23 14 39 16 37 3
-2 -1 -23 -8 -45z m729 -172 l-3 -30 -39 36 c-21 19 -37 37 -35 38 2 2 20 13
39 25 l35 21 3 -29 c2 -17 2 -44 0 -61z m-388 -38 c0 -13 -38 -199 -49 -241
-5 -19 -13 -46 -16 -60 -4 -14 -15 -52 -25 -85 -10 -33 -21 -81 -25 -107 l-6
-46 -70 -4 c-39 -2 -73 0 -75 3 -2 3 3 28 11 55 8 27 21 92 29 144 8 52 17
104 20 116 14 66 50 210 52 213 3 3 94 16 137 20 9 0 17 -3 17 -8z m-250 -40
c-13 -11 -27 -18 -31 -16 -3 2 -27 -2 -54 -10 -27 -8 -51 -13 -53 -10 -12 12
20 28 80 40 86 17 86 17 58 -4z m56 -47 c-4 -14 -9 -24 -12 -21 -3 2 -2 17 2
31 3 15 9 25 11 22 3 -3 2 -17 -1 -32z m-36 13 c0 -7 -4 -38 -10 -68 -5 -30
-17 -101 -25 -159 -22 -159 -35 -223 -47 -237 -8 -10 -57 -13 -200 -13 -151 0
-188 3 -180 13 5 6 22 89 37 184 l28 171 36 16 c69 29 140 50 147 43 4 -3 1
-27 -6 -51 -7 -25 -10 -57 -8 -71 3 -14 2 -25 -2 -25 -12 0 -50 -112 -60 -176
-4 -32 -11 -67 -15 -76 -5 -14 -2 -18 14 -18 26 0 35 22 62 145 11 50 22 97
23 105 2 8 7 40 11 70 12 98 22 118 63 129 20 5 53 14 72 19 49 14 60 14 60
-1z m-202 -9 c-5 -20 -188 -79 -188 -60 0 23 32 45 81 57 70 17 110 18 107 3z
m-218 -47 c0 -20 -13 -41 -25 -41 -8 0 -26 -5 -42 -11 -15 -6 -29 -10 -30 -10
-2 0 -17 -5 -35 -10 -68 -21 -85 -21 -91 0 -8 32 10 41 117 57 21 3 48 10 60
14 28 12 46 12 46 1z m-260 -75 c0 -21 -8 -27 -52 -41 -29 -9 -62 -20 -73 -25
-50 -21 -133 -49 -160 -55 -16 -3 -37 -8 -46 -11 -11 -3 -19 7 -28 37 -13 44
-9 55 24 61 15 2 21 -3 23 -24 4 -38 22 -36 22 2 0 37 -3 35 135 59 151 26
155 26 155 -3z"/>
<path d="M1679 289 c-21 -13 -6 -19 26 -10 27 7 28 8 9 13 -12 3 -28 2 -35 -3z"/>
</g>
</svg>
