<?xml version="1.0" standalone="no"?>
<!DOCTYPE svg PUBLIC "-//W3C//DTD SVG 20010904//EN"
 "http://www.w3.org/TR/2001/REC-SVG-20010904/DTD/svg10.dtd">
<svg version="1.0" xmlns="http://www.w3.org/2000/svg"
 width="168.000000pt" height="214.000000pt" viewBox="0 0 168.000000 214.000000"
 preserveAspectRatio="xMidYMid meet">
<metadata>
Created by potrace 1.16, written by Peter Selinger 2001-2019
</metadata>
<g transform="translate(0.000000,214.000000) scale(0.100000,-0.100000)"
fill="#000000" stroke="none">
<path d="M452 2002 c-10 -6 -11 -20 -6 -47 3 -20 7 -62 8 -92 l1 -54 -65 -32
c-36 -18 -64 -38 -63 -44 2 -7 -4 -13 -12 -13 -41 0 -128 -120 -153 -212 -8
-29 -7 -40 4 -49 8 -6 14 -17 14 -23 0 -6 21 -24 48 -41 l47 -30 275 0 c168 1
298 5 335 12 33 7 81 14 107 17 l48 6 -40 -36 c-22 -20 -61 -67 -87 -106 -104
-154 -125 -193 -192 -363 -60 -152 -64 -165 -68 -265 -4 -78 -1 -121 11 -166
9 -34 16 -73 16 -87 0 -51 67 -162 135 -223 93 -82 176 -134 215 -134 26 0 50
33 65 89 7 28 22 66 33 84 10 18 22 51 26 72 4 22 14 52 22 67 8 15 14 37 14
50 0 13 7 36 15 52 8 15 15 37 15 48 0 10 9 38 19 61 11 23 27 68 36 99 9 32
21 60 26 63 5 4 9 21 9 40 0 19 5 37 11 41 6 3 9 17 6 30 -2 14 -1 27 3 29 5
3 17 38 29 77 35 123 84 271 103 315 10 24 18 47 18 51 0 24 43 138 56 148 11
9 12 18 5 38 -9 21 -15 25 -38 21 -15 -3 -107 -14 -203 -26 -96 -11 -197 -25
-225 -31 -27 -6 -68 -12 -90 -14 -22 -1 -69 -6 -105 -10 -36 -4 -69 -7 -74 -5
-5 1 -32 -3 -60 -9 -28 -5 -101 -12 -162 -15 -104 -4 -112 -3 -117 15 -3 10 0
21 6 23 7 2 12 34 13 78 2 77 12 178 19 189 2 4 7 21 10 38 3 18 7 45 10 61 3
15 14 58 25 95 16 52 27 69 46 76 13 5 24 16 24 25 0 11 -12 15 -49 15 -27 0
-61 2 -77 5 -16 3 -35 2 -42 -3z m98 -59 c-9 -18 -42 -93 -53 -123 -3 -8 -6
-1 -6 16 -1 17 -4 52 -7 78 l-7 46 42 0 c36 0 40 -2 31 -17z m-99 -284 c-2
-57 -3 -124 -2 -147 0 -27 -5 -50 -15 -59 -10 -10 -13 -25 -9 -43 5 -22 2 -28
-14 -33 -12 -3 -24 -1 -27 4 -3 5 -22 9 -43 8 -43 -3 -103 29 -128 67 -14 22
-14 29 1 79 10 29 24 59 32 66 8 6 14 17 14 23 0 33 151 150 184 142 6 -1 9
-47 7 -107z m1039 -212 c0 -17 -20 -79 -59 -187 -18 -47 -34 -93 -36 -102 -2
-10 -11 -30 -20 -45 -9 -16 -29 -73 -46 -128 -16 -55 -43 -145 -60 -200 -16
-55 -31 -107 -32 -115 -2 -8 -5 -19 -9 -25 -3 -5 -9 -24 -12 -42 -4 -17 -23
-68 -42 -113 -19 -45 -34 -90 -34 -100 0 -9 -12 -44 -26 -76 -15 -33 -28 -79
-29 -105 -4 -54 -41 -139 -62 -139 -25 0 -189 137 -229 191 -20 28 -41 67 -45
87 -5 21 -17 73 -27 118 -15 63 -17 93 -10 140 4 32 10 85 13 116 2 32 9 67
15 78 6 11 22 55 36 98 25 78 48 133 88 208 27 54 88 158 95 164 4 3 22 26 41
51 49 66 87 88 166 100 38 6 76 14 85 19 9 4 46 8 84 9 37 0 70 3 73 6 12 12
82 5 82 -8z"/>
</g>
</svg>
