<?xml version="1.0" standalone="no"?>
<!DOCTYPE svg PUBLIC "-//W3C//DTD SVG 20010904//EN"
 "http://www.w3.org/TR/2001/REC-SVG-20010904/DTD/svg10.dtd">
<svg version="1.0" xmlns="http://www.w3.org/2000/svg"
 width="210.000000pt" height="166.000000pt" viewBox="0 0 210.000000 166.000000"
 preserveAspectRatio="xMidYMid meet">
<metadata>
Created by potrace 1.16, written by Peter Selinger 2001-2019
</metadata>
<g transform="translate(0.000000,166.000000) scale(0.100000,-0.100000)"
fill="#000000" stroke="none">
<path d="M770 1501 c-34 -10 -36 -35 -5 -59 28 -22 25 -47 -5 -39 -9 2 -25 0
-34 -5 -16 -9 -16 -11 0 -29 9 -10 23 -19 30 -19 7 0 12 -12 12 -29 -1 -15 2
-33 6 -39 11 -18 7 -221 -8 -407 -1 -19 -8 -20 -101 -19 -126 2 -381 60 -398
90 -4 8 -14 14 -22 14 -24 0 -34 -32 -25 -80 15 -74 12 -121 -7 -135 -16 -12
-16 -16 -3 -40 21 -39 39 -42 63 -12 34 40 243 88 380 88 32 0 69 4 81 9 l23
8 -2 -262 c-1 -144 -5 -267 -9 -274 -17 -28 27 -45 48 -18 6 8 40 30 76 49 36
19 106 55 155 82 123 64 138 72 315 160 85 42 178 92 205 111 l50 33 3 -32 c5
-60 11 -75 37 -81 38 -10 91 18 149 77 78 80 93 148 56 256 -31 93 -56 127
-116 160 -53 29 -56 29 -73 12 -10 -10 -21 -40 -24 -71 -4 -29 -8 -55 -11 -57
-6 -7 -131 75 -221 144 -110 86 -119 92 -239 170 -61 40 -138 86 -171 102 -94
46 -143 86 -147 118 -3 30 -23 37 -68 24z m75 -171 c-3 -10 -6 -43 -7 -72 0
-71 -12 -85 -18 -23 -7 71 -1 115 17 115 10 0 12 -6 8 -20z m95 0 c18 -12 2
-12 -25 0 -13 6 -15 9 -5 9 8 0 22 -4 30 -9z m15 -50 c13 0 25 6 28 13 5 16
37 -9 37 -31 0 -12 -11 -14 -67 -9 -68 7 -90 17 -79 36 5 7 15 7 32 1 14 -6
36 -10 49 -10z m111 -88 c-12 -11 -17 7 -9 34 l8 29 3 -28 c2 -16 1 -31 -2
-35z m-112 23 c55 -6 66 -11 66 -31 0 -16 -40 -18 -108 -5 -50 10 -57 15 -48
36 4 10 13 14 24 11 10 -4 40 -8 66 -11z m276 -54 c96 -63 308 -221 351 -262
26 -24 29 -33 29 -91 l0 -65 -47 -32 c-27 -18 -66 -45 -89 -61 -23 -16 -125
-70 -228 -119 l-187 -90 6 182 c3 100 11 241 16 312 5 72 12 167 16 213 7 99
4 98 133 13z m-160 4 c0 -8 -4 -15 -10 -15 -5 0 -7 7 -4 15 4 8 8 15 10 15 2
0 4 -7 4 -15z m-250 -80 c-6 -49 -8 -53 -9 -20 -1 37 8 89 14 83 2 -2 0 -30
-5 -63z m157 51 c41 0 72 -24 35 -27 -60 -5 -162 7 -162 20 0 17 16 22 50 14
19 -4 54 -7 77 -7z m30 -69 c15 0 24 -22 17 -42 -5 -12 -21 -14 -93 -9 -47 4
-87 7 -88 8 -1 0 1 14 4 29 l6 28 71 -7 c39 -4 76 -7 83 -7z m721 -75 c21 -14
62 -143 62 -197 0 -65 -48 -147 -104 -177 -17 -9 -18 -7 -11 38 4 27 12 55 17
62 8 9 8 20 0 36 -7 16 -8 36 -2 58 6 21 6 46 0 67 -6 23 -6 47 2 77 13 46 15
49 36 36z m-774 -14 c48 -9 59 -9 67 3 6 10 9 5 9 -18 0 -35 15 -33 -132 -18
-37 4 -58 11 -58 19 0 29 24 32 114 14z m8 -78 c28 0 49 5 52 13 3 6 4 -1 3
-18 -2 -29 -3 -30 -52 -29 -108 2 -135 7 -135 24 0 25 8 28 48 19 20 -5 58 -9
84 -9z m-602 -40 c19 -4 80 -16 135 -26 l100 -17 -135 -23 c-191 -33 -180 -35
-180 32 0 53 1 55 23 49 12 -3 38 -10 57 -15z m603 -36 c52 -6 57 -9 57 -32 0
-25 0 -25 -67 -19 -38 4 -83 7 -100 7 -28 0 -33 4 -33 23 0 33 10 40 50 33 19
-3 61 -8 93 -12z m12 -92 c25 -5 41 -13 43 -24 3 -14 -6 -15 -65 -11 -93 7
-136 16 -141 31 -4 14 94 16 163 4z m-30 -67 c53 0 71 -4 76 -15 3 -8 4 -51 1
-95 l-4 -81 -77 9 c-42 4 -91 6 -108 3 -28 -4 -33 -2 -33 16 0 19 3 20 68 12
106 -12 137 -11 137 6 0 15 -56 27 -152 31 -35 2 -43 6 -43 22 0 18 6 18 100
12 85 -6 100 -5 100 8 0 20 -14 24 -119 32 -76 6 -91 10 -91 25 0 25 9 30 44
22 17 -4 63 -7 101 -7z m23 -222 c59 -7 62 -18 15 -46 -31 -18 -31 -18 -26 3
5 19 1 20 -65 20 -73 0 -102 6 -102 21 0 10 101 12 178 2z m-59 -86 c-19 -11
-53 -33 -76 -48 l-43 -28 0 34 c0 31 3 34 33 37 22 2 31 8 30 18 -2 12 7 14
43 11 l47 -3 -34 -21z"/>
</g>
</svg>
