<?xml version="1.0" standalone="no"?>
<!DOCTYPE svg PUBLIC "-//W3C//DTD SVG 20010904//EN"
 "http://www.w3.org/TR/2001/REC-SVG-20010904/DTD/svg10.dtd">
<svg version="1.0" xmlns="http://www.w3.org/2000/svg"
 width="242.000000pt" height="122.000000pt" viewBox="0 0 242.000000 122.000000"
 preserveAspectRatio="xMidYMid meet">
<metadata>
Created by potrace 1.16, written by Peter Selinger 2001-2019
</metadata>
<g transform="translate(0.000000,122.000000) scale(0.100000,-0.100000)"
fill="#000000" stroke="none">
<path d="M2067 984 c-2 -2 -150 -4 -328 -4 -403 -1 -486 -12 -638 -82 -66 -30
-224 -156 -261 -208 l-21 -29 -312 2 -312 2 -3 -22 c-3 -19 3 -23 41 -28 25
-4 100 -4 168 0 68 4 192 8 276 10 151 3 152 3 177 30 15 16 26 31 26 36 0 4
24 25 52 46 29 21 60 45 69 54 25 25 123 78 176 95 116 37 196 45 528 50 497
8 460 6 460 29 0 17 -7 20 -47 21 -26 1 -49 0 -51 -2z"/>
<path d="M773 385 c-104 -19 -215 -24 -323 -14 -174 16 -198 16 -229 3 -17 -7
-31 -17 -31 -22 0 -11 316 -23 420 -17 236 15 236 15 256 -3 126 -115 457
-245 604 -236 25 1 193 5 373 10 266 6 330 10 334 21 9 22 -3 26 -64 23 -32
-2 -223 -3 -425 -2 l-368 1 -89 31 c-117 40 -295 135 -343 183 -21 20 -39 37
-40 36 -2 -1 -35 -7 -75 -14z"/>
</g>
</svg>
