<?xml version="1.0" standalone="no"?>
<!DOCTYPE svg PUBLIC "-//W3C//DTD SVG 20010904//EN"
 "http://www.w3.org/TR/2001/REC-SVG-20010904/DTD/svg10.dtd">
<svg version="1.0" xmlns="http://www.w3.org/2000/svg"
 width="256.000000pt" height="208.000000pt" viewBox="0 0 256.000000 208.000000"
 preserveAspectRatio="xMidYMid meet">
<metadata>
Created by potrace 1.16, written by Peter Selinger 2001-2019
</metadata>
<g transform="translate(0.000000,208.000000) scale(0.100000,-0.100000)"
fill="#000000" stroke="none">
<path d="M1865 1986 c-16 -7 -59 -40 -94 -74 -35 -34 -67 -62 -70 -62 -3 0
-83 -74 -176 -165 -147 -143 -193 -181 -340 -279 -238 -159 -272 -180 -340
-212 -33 -16 -63 -33 -66 -37 -6 -8 -277 20 -459 48 -52 8 -98 11 -102 7 -4
-4 -13 -74 -20 -155 -10 -131 -14 -149 -32 -159 -18 -10 -17 -12 15 -22 29
-10 38 -9 58 6 13 10 32 18 42 18 10 0 65 15 121 34 140 46 212 66 240 66 12
0 55 12 93 25 67 24 154 32 189 19 20 -8 21 -34 1 -34 -19 0 -19 -24 0 -40 24
-20 18 -36 -30 -86 -25 -25 -45 -49 -45 -54 0 -4 12 -11 26 -14 14 -4 78 -59
142 -124 186 -187 399 -361 424 -346 7 5 8 3 3 -6 -5 -8 29 -48 106 -121 102
-98 139 -125 139 -101 0 4 10 12 22 17 19 8 23 19 24 65 1 30 7 73 13 95 6 22
11 61 11 87 0 26 4 67 10 90 5 24 17 84 25 133 9 50 18 101 20 115 3 14 10 57
15 95 15 97 16 104 34 160 8 28 24 100 35 160 11 61 29 146 40 190 11 44 25
110 31 147 10 68 37 175 89 358 20 70 26 110 20 121 -8 16 -45 27 -124 35 -22
3 -44 6 -50 8 -5 2 -23 -2 -40 -8z m169 -67 c5 -4 -4 -60 -30 -179 -3 -14 -11
-47 -19 -75 -8 -27 -26 -108 -40 -180 -14 -71 -32 -152 -40 -180 -19 -67 -101
-457 -110 -520 -4 -27 -13 -76 -21 -108 -8 -32 -12 -61 -10 -66 3 -4 -1 -17
-9 -27 -8 -10 -15 -14 -15 -7 0 6 4 14 9 18 5 3 6 18 3 33 -8 28 -7 125 1 202
3 25 8 77 12 115 4 41 13 75 22 81 12 10 11 14 -3 29 -15 15 -16 35 -10 183 6
146 28 417 41 492 2 14 9 54 15 90 20 124 8 112 110 108 48 -1 91 -6 94 -9z
m-229 -66 c-3 -27 -8 -59 -10 -73 -11 -59 -55 -572 -55 -642 0 -27 -2 -48 -5
-48 -2 0 -17 8 -32 18 l-28 17 -4 185 c-2 102 2 228 8 280 6 52 13 122 16 155
5 56 9 63 54 108 27 26 52 47 55 47 3 0 3 -21 1 -47z m-144 -227 c-6 -62 -11
-196 -11 -299 l0 -186 -36 21 c-41 24 -52 46 -48 97 2 20 8 104 14 186 18 241
21 254 64 303 29 32 31 17 17 -122z m-95 -53 c-3 -54 -11 -155 -17 -225 l-12
-127 -24 17 c-24 15 -25 18 -19 101 12 176 29 282 48 307 11 13 22 24 25 24 3
0 3 -44 -1 -97z m-69 20 c-5 -8 -11 -74 -23 -225 -3 -49 -9 -88 -12 -88 -3 0
-14 7 -24 17 -15 14 -18 32 -18 125 l0 109 36 35 c35 33 50 43 41 27z m-99
-168 c0 -47 -4 -85 -8 -85 -18 0 -80 56 -80 73 0 7 79 97 85 97 1 0 3 -38 3
-85z m-138 -22 c-78 -90 -122 -133 -136 -133 -8 0 -17 -8 -20 -17 -12 -38 -28
-63 -61 -95 -18 -18 -40 -45 -49 -60 -18 -34 -24 -35 -57 -4 -15 14 -40 33
-57 42 -36 22 -38 31 -7 44 12 5 72 41 132 80 61 38 145 91 188 117 43 25 80
50 83 55 3 4 8 8 11 8 3 0 -10 -17 -27 -37z m23 -79 c-6 -16 -12 -17 -32 -5
-12 8 -13 12 -2 25 16 19 43 3 34 -20z m71 -25 c34 -27 27 -34 -18 -19 -24 8
-33 16 -29 26 7 19 15 18 47 -7z m-102 -16 l29 -18 -6 -170 c-10 -300 -26
-425 -54 -425 -5 0 -19 12 -31 27 -20 25 -21 36 -16 128 21 361 30 475 39 475
5 0 22 -8 39 -17z m-77 -85 c-1 -35 -6 -106 -10 -158 -7 -99 -12 -172 -14
-227 0 -18 -5 -33 -9 -33 -4 0 -21 27 -37 61 l-28 60 21 132 c12 73 22 141 22
151 0 15 45 76 56 76 1 0 1 -28 -1 -62z m207 36 c4 -2 5 -14 3 -27 -2 -12 -6
-74 -10 -137 -17 -311 -18 -315 -63 -344 -21 -13 -39 -22 -40 -21 -2 2 1 52 7
112 9 88 18 274 21 412 0 21 3 23 37 16 21 -4 41 -9 45 -11z m62 -89 c-4 -303
-6 -339 -28 -357 -31 -25 -47 -23 -42 7 4 23 8 71 21 250 10 134 16 166 34
163 13 -3 16 -16 15 -63z m71 23 c24 -11 25 -14 24 -97 -1 -127 -12 -187 -39
-216 -13 -14 -27 -25 -32 -25 -8 0 -1 255 8 318 6 37 4 36 39 20z m-1160 -13
c11 -2 58 -6 105 -9 47 -4 101 -9 120 -11 19 -2 67 -6 105 -10 39 -3 85 -8
103 -12 35 -6 52 -21 30 -27 -7 -2 -42 -13 -78 -24 -36 -11 -90 -26 -120 -32
-30 -7 -109 -29 -175 -50 -66 -22 -139 -42 -162 -46 l-41 -6 5 83 c2 46 6 93
8 104 2 11 4 28 4 39 1 16 6 17 39 11 20 -4 46 -8 57 -10z m731 -52 c-4 -27
-8 -55 -10 -63 -2 -8 -7 -34 -11 -58 -6 -34 -10 -40 -21 -31 -8 6 -14 20 -14
30 0 10 -4 21 -10 24 -5 3 -10 12 -10 18 0 14 69 127 77 127 3 0 3 -21 -1 -47z
m527 15 c24 -11 27 -17 23 -42 -4 -16 -6 -49 -6 -75 0 -41 -4 -48 -35 -70 -20
-13 -37 -22 -39 -20 -2 2 0 26 4 52 4 27 5 78 2 114 -5 71 -7 69 51 41z m90
-49 c31 -17 35 -27 31 -68 -12 -120 -15 -150 -23 -205 -5 -34 -10 -93 -10
-132 -4 -194 -11 -432 -14 -459 -3 -16 -5 -39 -6 -49 -1 -18 -4 -17 -31 9 -19
18 -27 32 -21 38 7 7 6 17 0 29 -12 23 -6 289 10 408 5 41 13 118 17 170 4 60
12 104 22 120 9 14 15 29 14 35 -2 5 5 15 14 22 14 10 15 16 6 25 -9 9 -16 7
-32 -7 -20 -18 -20 -18 -20 28 0 49 7 55 43 36z m-723 -89 c0 -5 -5 -10 -11
-10 -5 0 -7 5 -4 10 3 6 8 10 11 10 2 0 4 -4 4 -10z m46 -76 c9 -14 17 -39 18
-57 1 -24 6 -32 24 -37 26 -6 74 -83 66 -105 -4 -8 6 -20 26 -30 17 -9 29 -22
27 -28 -6 -18 11 -47 28 -47 17 0 19 -18 5 -40 -7 -11 -22 -2 -77 49 -37 35
-105 102 -149 149 l-82 86 42 42 c22 23 44 42 48 43 4 1 15 -10 24 -25z m562
-23 c-18 -16 -35 -28 -37 -26 -4 5 51 54 62 55 4 0 -7 -13 -25 -29z m35 -86
c-2 -22 -9 -65 -15 -95 -12 -65 -15 -89 -28 -280 -6 -80 -11 -148 -13 -153 -1
-4 -17 5 -36 20 l-33 28 17 179 c9 98 21 204 25 234 5 30 7 59 4 64 -3 5 11
27 32 48 37 37 39 38 45 17 3 -12 4 -40 2 -62z m-109 21 c-7 -18 -54 -50 -54
-37 0 8 47 51 56 51 2 0 1 -6 -2 -14z m-12 -155 c-6 -47 -17 -134 -23 -193 -7
-60 -15 -108 -19 -108 -16 0 -32 103 -26 159 4 31 11 88 14 128 6 57 13 77 32
98 32 34 35 22 22 -84z m-72 88 c0 -15 -39 -69 -51 -69 -18 0 -8 48 14 63 27
19 37 21 37 6z m-80 -69 c0 -37 -62 -111 -79 -95 -20 20 -1 79 32 103 41 29
47 28 47 -8z m64 -57 c-3 -21 -10 -56 -15 -78 -4 -22 -9 -55 -9 -74 0 -29 -2
-32 -15 -21 -22 18 -12 165 12 192 25 28 33 22 27 -19z m-87 -100 c-3 -10 -5
-2 -5 17 0 19 2 27 5 18 2 -10 2 -26 0 -35z m-11 -50 c-8 -8 -45 21 -55 44
-18 40 -12 40 24 -1 20 -21 34 -41 31 -43z"/>
</g>
</svg>
