<?xml version="1.0" standalone="no"?>
<!DOCTYPE svg PUBLIC "-//W3C//DTD SVG 20010904//EN"
 "http://www.w3.org/TR/2001/REC-SVG-20010904/DTD/svg10.dtd">
<svg version="1.0" xmlns="http://www.w3.org/2000/svg"
 width="252.000000pt" height="136.000000pt" viewBox="0 0 252.000000 136.000000"
 preserveAspectRatio="xMidYMid meet">
<metadata>
Created by potrace 1.16, written by Peter Selinger 2001-2019
</metadata>
<g transform="translate(0.000000,136.000000) scale(0.100000,-0.100000)"
fill="#000000" stroke="none">
<path d="M2130 1324 c-14 -13 -61 -43 -105 -65 -117 -60 -116 -57 -51 -121 58
-59 79 -104 55 -119 -35 -21 -190 -70 -474 -148 -82 -23 -171 -48 -197 -56
-27 -8 -48 -10 -48 -5 0 6 6 10 13 10 8 0 24 12 38 26 13 14 48 41 77 60 80
52 182 134 182 147 -1 7 -26 30 -56 52 -30 22 -61 45 -67 51 -7 5 -54 38 -104
73 -80 54 -97 62 -123 56 -16 -4 -30 -10 -30 -13 0 -4 -21 -30 -47 -58 -27
-28 -99 -135 -162 -237 -63 -103 -117 -187 -120 -187 -3 0 -51 7 -106 16 -55
8 -145 19 -200 24 -55 6 -125 14 -155 20 -30 5 -104 12 -164 15 l-109 6 7
-103 c5 -57 8 -110 9 -118 0 -8 -3 -43 -7 -77 -7 -59 -7 -63 12 -63 11 0 22 4
24 9 4 14 286 87 520 135 l107 22 -24 -33 c-14 -18 -37 -50 -52 -70 -41 -56
-122 -154 -152 -184 -42 -41 -124 -178 -117 -195 4 -11 -11 -32 -45 -63 -47
-43 -58 -71 -29 -71 6 0 61 51 123 113 63 61 161 149 218 194 57 46 117 94
134 108 16 14 45 36 65 47 41 26 116 85 183 146 l48 44 57 -7 c92 -12 124 -15
187 -19 252 -17 310 -25 455 -61 30 -7 82 -16 115 -20 32 -4 63 -9 67 -11 12
-8 -46 -93 -127 -187 -74 -85 -88 -117 -49 -117 9 0 45 -10 80 -22 71 -24 94
-17 94 31 0 26 70 262 88 298 5 10 24 48 42 86 l32 67 29 -32 c21 -25 31 -30
39 -22 13 13 -7 60 -34 83 -9 8 -16 20 -16 28 0 18 76 152 103 181 16 17 17
22 6 22 -22 0 -62 -46 -99 -113 -35 -62 -37 -62 -67 -7 -10 19 -32 55 -48 80
-31 46 -37 70 -21 81 5 4 10 29 12 55 2 27 11 86 20 131 22 113 13 135 -36 87z
m-11 -98 c-4 -25 -9 -72 -11 -105 -2 -34 -6 -61 -10 -61 -3 0 -16 17 -29 38
-12 20 -38 52 -58 70 -20 19 -31 36 -26 38 6 3 35 18 65 33 76 40 79 39 69
-13z m-797 -25 c15 -9 67 -43 116 -76 49 -33 97 -65 108 -72 18 -11 17 -14
-21 -50 -22 -21 -92 -78 -157 -127 -101 -76 -126 -90 -190 -107 -41 -10 -83
-17 -94 -15 -10 2 -39 7 -64 11 -25 4 -49 9 -53 12 -8 5 45 105 73 138 10 11
39 58 66 105 54 95 111 179 134 197 17 14 42 9 82 -16z m799 -288 c87 -141 84
-123 38 -203 l-41 -70 -77 0 c-43 0 -133 11 -202 25 -123 24 -306 48 -469 61
-75 6 -103 8 -134 13 -25 3 23 31 72 41 31 6 100 24 152 40 190 57 307 92 425
127 66 19 127 39 135 44 33 19 48 7 101 -78z m-1566 -111 c221 -27 317 -42
329 -53 22 -20 -26 -47 -112 -63 -82 -16 -139 -29 -357 -78 -49 -11 -100 -24
-113 -29 -13 -5 -33 -9 -45 -9 -21 0 -22 3 -23 131 l-1 130 71 -4 c39 -2 152
-13 251 -25z m660 -52 c-3 -5 -16 -10 -28 -9 -20 1 -20 2 3 9 14 4 26 8 28 9
2 1 0 -3 -3 -9z m-235 -20 c-20 -13 -63 -13 -55 0 3 6 21 10 38 10 24 0 28 -3
17 -10z m180 -21 c0 -12 -54 -55 -285 -226 -49 -37 -94 -72 -100 -79 -5 -6
-48 -42 -95 -79 -51 -41 -73 -55 -54 -34 17 19 38 48 46 64 19 40 41 77 53 90
6 6 26 33 45 58 128 172 141 187 168 188 15 0 47 6 72 14 45 13 150 16 150 4z
m970 -142 c0 -8 -53 -133 -60 -142 -4 -5 -15 -30 -23 -55 -15 -43 -17 -45 -52
-43 -50 3 -55 11 -24 36 15 12 53 64 84 115 32 50 62 92 67 92 4 0 8 -1 8 -3z"/>
</g>
</svg>
