<?xml version="1.0" standalone="no"?>
<!DOCTYPE svg PUBLIC "-//W3C//DTD SVG 20010904//EN"
 "http://www.w3.org/TR/2001/REC-SVG-20010904/DTD/svg10.dtd">
<svg version="1.0" xmlns="http://www.w3.org/2000/svg"
 width="200.000000pt" height="140.000000pt" viewBox="0 0 200.000000 140.000000"
 preserveAspectRatio="xMidYMid meet">
<metadata>
Created by potrace 1.16, written by Peter Selinger 2001-2019
</metadata>
<g transform="translate(0.000000,140.000000) scale(0.100000,-0.100000)"
fill="#000000" stroke="none">
<path d="M1435 1127 c-37 -31 -118 -77 -137 -77 -19 0 -168 -107 -231 -166
-43 -41 -92 -76 -126 -91 -31 -13 -64 -28 -73 -34 -23 -12 -98 -12 -98 0 0 26
84 189 107 208 23 18 25 24 14 37 -10 12 -29 15 -70 14 -31 -1 -86 1 -122 5
-49 5 -71 3 -85 -8 -22 -16 -12 -22 41 -27 19 -2 29 -8 27 -17 -2 -7 3 -21 11
-30 21 -25 35 -102 28 -151 l-6 -45 -50 0 c-108 -1 -306 50 -354 91 -34 28
-64 26 -82 -7 -11 -22 -14 -244 -3 -272 10 -26 34 -21 100 22 32 21 70 42 84
46 14 4 45 18 70 31 75 38 250 76 250 54 0 -5 -5 -10 -11 -12 -8 -3 -34 -142
-51 -283 -2 -12 4 -21 15 -23 19 -4 50 16 42 27 -15 25 7 226 30 270 9 18 21
24 51 26 48 3 73 -6 109 -39 l27 -25 -46 -42 c-55 -50 -63 -88 -18 -87 34 1
111 -37 119 -60 14 -37 57 -83 106 -111 29 -16 67 -45 85 -65 47 -51 117 -106
133 -106 23 0 39 15 44 40 2 13 8 26 13 29 5 3 12 22 16 41 3 19 24 60 46 90
22 30 44 64 49 76 11 24 148 164 161 164 12 0 40 29 40 42 0 6 -40 52 -89 102
-94 97 -120 134 -102 145 7 5 6 20 -3 50 -11 39 -10 76 7 181 4 27 -29 21 -68
-13z m13 -123 l-2 -85 -47 53 c-27 29 -48 55 -49 58 0 4 78 51 97 59 1 1 2
-38 1 -85z m-123 -20 c26 -26 48 -64 42 -71 -10 -9 -96 7 -110 22 -8 7 -27 15
-43 17 -29 3 -28 4 16 25 55 26 74 28 95 7z m-505 -17 c0 -2 -13 -27 -28 -56
l-29 -51 -11 38 c-20 65 -17 72 28 72 22 0 40 -2 40 -3z m335 -240 c0 -105 -4
-209 -9 -230 -5 -24 -4 -42 2 -50 11 -13 5 -57 -7 -57 -4 0 -22 13 -41 28 -31
26 -35 36 -41 98 -10 97 -19 165 -24 191 -8 34 55 158 98 194 12 10 22 18 22
19 0 0 0 -87 0 -193z m93 157 l30 -6 -35 -31 c-28 -25 -36 -28 -44 -16 -16 25
-9 59 11 59 4 0 21 -3 38 -6z m194 -31 c10 -9 18 -19 18 -23 0 -4 -40 -8 -90
-9 -49 -1 -90 1 -90 4 0 3 21 18 47 34 50 31 76 30 115 -6z m-172 -72 c0 -16
-68 -62 -75 -51 -12 19 24 60 50 60 14 0 25 -4 25 -9z m239 -12 c22 -11 47
-32 56 -46 l17 -26 -28 6 c-16 3 -57 0 -91 -7 -34 -8 -65 -11 -68 -8 -3 4 -32
7 -63 7 -80 1 -89 10 -48 45 18 16 44 34 57 39 43 17 125 13 168 -10z m-500 4
c-1 -15 -35 -67 -46 -70 -5 -2 -18 8 -27 22 -15 23 -15 25 1 25 10 0 27 7 37
15 22 16 36 19 35 8z m-627 -23 c46 -11 95 -20 111 -20 45 0 31 -13 -46 -44
-39 -16 -95 -42 -124 -58 l-52 -29 3 53 c3 52 15 118 22 118 1 0 40 -9 86 -20z
m1244 -75 c18 -15 18 -16 -22 -50 l-40 -35 -146 -5 c-89 -3 -149 -2 -152 4 -4
5 8 21 26 34 25 19 56 27 130 37 53 7 113 9 132 6 29 -6 36 -4 36 9 0 19 11
19 36 0z m-346 -19 c0 -10 -59 -46 -75 -46 -6 0 -6 55 0 61 9 10 75 -4 75 -15z
m-280 -44 c0 -9 7 -30 15 -46 28 -53 20 -58 -42 -29 -32 15 -60 29 -63 31 -9
7 72 72 81 66 5 -3 9 -13 9 -22z m237 -53 c9 -9 6 -17 -12 -30 -40 -32 -57
-21 -35 22 12 21 30 25 47 8z m293 -7 c0 -2 -7 -10 -15 -18 -8 -8 -21 -24 -28
-34 -12 -17 -28 -20 -125 -21 -62 -2 -117 2 -122 7 -16 16 55 56 112 63 58 7
178 9 178 3z m-277 -111 c4 -4 -9 -15 -28 -24 -37 -18 -44 -11 -29 27 6 16 38
14 57 -3z m123 -37 c-40 -35 -133 -84 -159 -84 -16 0 -30 26 -22 40 2 4 31 20
62 35 32 15 65 31 73 36 8 4 31 8 50 8 l35 0 -39 -35z m35 -22 c-5 -10 -16
-24 -24 -31 -8 -6 -20 -25 -27 -41 -7 -17 -19 -30 -26 -30 -10 0 -12 -9 -7
-32 l6 -33 -36 40 c-37 41 -44 55 -28 55 19 0 57 21 101 54 53 41 53 41 41 18z"/>
</g>
</svg>
