<?xml version="1.0" standalone="no"?>
<!DOCTYPE svg PUBLIC "-//W3C//DTD SVG 20010904//EN"
 "http://www.w3.org/TR/2001/REC-SVG-20010904/DTD/svg10.dtd">
<svg version="1.0" xmlns="http://www.w3.org/2000/svg"
 width="128.000000pt" height="100.000000pt" viewBox="0 0 128.000000 100.000000"
 preserveAspectRatio="xMidYMid meet">
<metadata>
Created by potrace 1.16, written by Peter Selinger 2001-2019
</metadata>
<g transform="translate(0.000000,100.000000) scale(0.100000,-0.100000)"
fill="#000000" stroke="none">
<path d="M453 820 c-13 -5 -23 -17 -24 -27 0 -10 0 -70 1 -135 1 -111 0 -117
-20 -123 -53 -17 -272 53 -287 91 -7 18 -27 18 -42 0 -8 -10 -8 -49 1 -155 13
-147 19 -161 55 -122 22 23 85 60 182 107 60 29 78 34 96 26 24 -11 25 -29 10
-128 -5 -33 -3 -43 11 -48 22 -9 10 -20 -23 -21 -14 0 -28 -6 -31 -14 -8 -23
219 -8 280 19 63 28 122 87 149 149 15 33 30 53 44 56 38 8 120 17 194 20 74
4 99 14 87 34 -8 13 -79 14 -121 2 -17 -4 -64 -11 -106 -15 l-76 -7 -6 70 c-3
38 -13 84 -22 103 -26 51 -76 97 -115 108 -55 14 -212 21 -237 10z m164 -44
c78 -14 100 -30 128 -95 19 -41 34 -136 25 -151 -6 -10 -273 -20 -283 -10 -8
8 -9 29 -8 131 l1 96 26 -5 c20 -4 25 -1 22 9 -3 8 -14 15 -26 17 -34 5 -26
22 11 21 17 0 64 -6 104 -13z m-444 -240 c18 -8 59 -20 92 -27 l60 -12 -45
-18 c-25 -11 -52 -23 -60 -28 -8 -6 -31 -19 -51 -30 l-37 -19 -6 45 c-9 68 -7
103 5 103 6 0 25 -6 42 -14z m607 -65 c0 -33 -59 -111 -107 -140 -51 -32 -164
-53 -171 -32 -2 6 -11 11 -19 11 -13 0 -14 12 -10 73 4 39 6 77 7 84 0 16 16
18 168 19 117 1 132 -1 132 -15z"/>
<path d="M517 704 c-10 -11 3 -24 23 -24 13 0 17 5 14 15 -6 15 -26 20 -37 9z"/>
<path d="M525 650 c-8 -14 3 -30 21 -30 8 0 14 9 14 20 0 21 -24 28 -35 10z"/>
<path d="M536 571 c-9 -14 4 -41 20 -41 8 0 14 10 14 25 0 25 -23 35 -34 16z"/>
<path d="M532 418 c-15 -15 -16 -38 -2 -38 12 0 23 25 18 40 -2 7 -7 7 -16 -2z"/>
</g>
</svg>
