<?xml version="1.0" standalone="no"?>
<!DOCTYPE svg PUBLIC "-//W3C//DTD SVG 20010904//EN"
 "http://www.w3.org/TR/2001/REC-SVG-20010904/DTD/svg10.dtd">
<svg version="1.0" xmlns="http://www.w3.org/2000/svg"
 width="236.000000pt" height="222.000000pt" viewBox="0 0 236.000000 222.000000"
 preserveAspectRatio="xMidYMid meet">
<metadata>
Created by potrace 1.16, written by Peter Selinger 2001-2019
</metadata>
<g transform="translate(0.000000,222.000000) scale(0.100000,-0.100000)"
fill="#000000" stroke="none">
<path d="M839 2070 c-4 -3 -13 -73 -18 -155 -6 -81 -14 -152 -18 -156 -4 -3
-18 -10 -29 -13 l-21 -7 18 100 c10 55 20 121 22 148 3 26 8 56 12 66 7 16 4
18 -16 15 -19 -2 -25 -10 -27 -38 -1 -19 -10 -80 -19 -135 -9 -55 -18 -115
-21 -133 -4 -34 -30 -52 -72 -52 -16 0 -17 4 -10 33 11 39 17 71 31 162 5 39
15 83 21 98 8 21 8 31 -1 40 -14 14 -35 -5 -37 -36 -3 -37 -45 -269 -54 -292
-6 -15 -25 -28 -54 -38 l-46 -16 6 42 c3 23 8 53 11 67 3 14 7 30 8 35 2 6 10
37 18 70 26 105 28 137 9 133 -13 -2 -21 -26 -34 -93 -10 -50 -25 -127 -34
-173 -14 -71 -20 -85 -41 -95 -19 -9 -26 -8 -33 3 -17 28 -23 120 -10 168 6
26 16 66 22 90 6 23 15 45 19 48 14 8 11 34 -5 40 -7 3 -31 -7 -52 -21 -22
-15 -68 -40 -104 -56 -82 -38 -102 -56 -90 -80 6 -10 18 -20 27 -23 22 -8 63
-69 63 -95 0 -11 11 -37 25 -57 14 -20 22 -40 20 -45 -3 -4 -40 -14 -82 -21
-67 -11 -78 -16 -94 -42 -19 -31 -19 -59 0 -94 6 -11 9 -41 6 -67 -5 -51 12
-69 43 -43 27 24 122 72 128 65 3 -3 -3 -38 -14 -79 -11 -40 -26 -102 -32
-138 -16 -85 -15 -81 -24 -107 -6 -19 -15 -23 -48 -23 -25 0 -49 7 -60 17 -27
24 -42 4 -39 -54 1 -27 -5 -79 -14 -117 -19 -80 -10 -103 27 -69 13 11 39 24
58 28 19 4 39 10 44 13 6 3 19 7 30 8 12 1 113 14 226 28 242 31 317 38 425
40 64 1 80 4 83 17 3 18 -72 39 -141 39 -23 0 -59 3 -80 7 -33 5 -38 9 -33 27
3 12 10 50 16 86 5 36 38 166 73 289 l64 224 119 54 c66 30 196 86 289 125 94
38 194 81 223 94 63 29 68 29 77 7 6 -18 -31 -226 -67 -368 -11 -44 -26 -109
-34 -145 -8 -36 -29 -117 -49 -180 -19 -63 -48 -185 -65 -270 -31 -152 -36
-185 -45 -285 -8 -94 -24 -215 -30 -235 -9 -29 12 -52 35 -40 13 7 19 27 23
78 7 89 106 463 182 692 14 41 25 83 25 92 0 10 6 32 14 50 8 18 26 69 40 113
13 44 31 96 40 117 9 20 20 58 26 85 9 42 19 72 51 148 4 11 20 52 35 90 15
39 35 82 45 97 35 49 26 55 -51 37 -32 -7 -57 -7 -86 1 -37 11 -46 9 -115 -23
-41 -19 -144 -54 -229 -77 -85 -23 -200 -57 -255 -75 -125 -41 -155 -48 -155
-36 0 14 62 164 82 196 21 35 24 75 6 76 -52 4 -172 3 -179 -1z m131 -63 c0
-5 -6 -18 -12 -30 -7 -12 -26 -62 -43 -112 -25 -75 -34 -91 -53 -93 -19 -3
-22 0 -18 20 6 25 14 115 15 165 1 17 7 38 14 45 15 15 97 19 97 5z m747 -47
l52 -5 -19 -50 c-63 -172 -131 -374 -134 -405 -1 -8 -10 -29 -19 -47 -9 -18
-23 -56 -31 -85 -8 -29 -33 -111 -55 -183 -23 -71 -55 -175 -72 -230 -17 -55
-32 -104 -34 -110 -10 -31 -2 34 15 125 11 58 23 121 26 140 3 19 19 76 35
125 16 50 40 145 54 212 14 67 29 133 34 145 8 19 16 58 26 133 3 27 19 97 36
163 11 40 16 78 13 84 -5 7 -2 8 7 2 8 -5 37 -11 66 -14z m-1351 -82 c-19
-121 -30 -168 -38 -156 -4 7 -8 23 -8 35 0 13 -16 41 -36 63 l-36 40 28 10
c16 5 40 16 54 24 37 21 42 19 36 -16z m869 -38 c-169 -80 -324 -144 -331
-138 -10 10 8 57 24 64 10 3 42 12 72 19 30 7 98 27 150 43 109 35 143 39 85
12z m-360 -122 c-9 -41 -13 -48 -29 -48 -15 0 -16 62 -1 72 24 18 37 8 30 -24z
m-77 -30 c-3 -37 -7 -43 -37 -55 l-33 -14 6 38 c7 35 36 73 58 73 5 0 8 -19 6
-42z m-101 -37 c-8 -44 -13 -51 -46 -64 -42 -17 -46 -12 -34 47 7 33 14 42 43
52 19 7 38 13 41 13 3 1 2 -21 -4 -48z m-120 -44 c-9 -51 -12 -54 -53 -70
l-44 -16 0 42 c0 23 4 48 8 54 7 10 71 40 93 42 3 1 1 -23 -4 -52z m264 2 c-9
-22 -10 -22 -10 -3 -1 11 2 24 6 27 12 12 14 0 4 -24z m-392 -40 c-5 -28 -11
-54 -14 -58 -4 -3 -55 -24 -113 -47 l-107 -41 -7 39 c-4 22 -13 47 -19 54 -7
9 -8 18 -3 23 15 14 148 40 158 31 11 -11 36 -1 36 15 0 10 39 29 71 34 3 1 2
-22 -2 -50z m338 -21 c-4 -35 -15 -101 -26 -148 -11 -47 -27 -123 -36 -170 -9
-47 -24 -112 -34 -145 -16 -54 -20 -60 -42 -57 -13 2 -25 5 -26 6 -3 3 32 196
68 366 5 25 14 77 21 117 10 64 14 73 37 82 43 16 44 14 38 -51z m-136 -146
c-17 -75 -33 -157 -36 -182 -10 -73 -37 -169 -51 -181 -18 -14 -54 -2 -54 19
0 10 5 33 10 52 23 77 79 358 80 396 0 27 5 33 38 46 30 12 38 12 40 1 2 -7
-10 -75 -27 -151z m-103 11 c-10 -60 -25 -130 -33 -158 -7 -27 -21 -81 -31
-120 -9 -38 -21 -74 -25 -80 -5 -5 -28 -10 -50 -12 -33 -2 -39 0 -30 11 6 7
15 33 20 57 5 24 15 78 24 119 8 41 20 109 27 150 7 41 16 81 20 88 6 12 72
49 91 51 4 1 -2 -47 -13 -106z m-125 20 c-42 -243 -83 -386 -109 -376 -17 6
-17 0 1 100 22 130 67 287 84 300 22 16 29 8 24 -24z m-148 -420 c155 -22 316
-30 336 -17 4 2 10 0 14 -6 4 -6 -5 -10 -22 -10 -78 0 -352 -41 -442 -66 -23
-7 -24 -6 -18 32 4 21 7 50 7 63 0 23 2 23 48 16 26 -4 61 -10 77 -12z"/>
<path d="M1078 1439 c-6 -4 -8 -17 -5 -29 3 -12 1 -50 -4 -83 -5 -34 -14 -91
-19 -127 -5 -36 -12 -78 -15 -95 -2 -16 -7 -48 -10 -70 -3 -22 -10 -53 -15
-70 -13 -43 -68 -396 -75 -476 -6 -74 -10 -79 -73 -78 -31 0 -116 8 -189 18
-72 9 -140 14 -151 10 -19 -7 -20 -18 -21 -191 -1 -101 -2 -196 -4 -213 -2
-36 23 -42 38 -8 7 16 15 21 28 17 10 -3 82 15 160 39 172 55 199 62 307 77
89 12 235 38 405 72 55 11 123 22 150 24 28 2 66 7 85 9 19 3 67 10 105 16 44
7 128 7 230 2 208 -10 199 -11 203 9 2 13 -7 18 -44 24 -26 4 -62 15 -79 25
-27 16 -63 19 -280 24 -138 3 -277 7 -310 10 -33 2 -105 7 -160 11 -55 4 -111
8 -125 9 -14 1 -68 3 -120 4 -52 1 -101 5 -109 10 -12 8 -13 20 -2 83 7 40 20
100 28 133 8 33 16 65 17 70 12 68 56 237 89 340 45 144 91 249 143 332 20 30
34 59 31 66 -4 13 -190 18 -209 6z m132 -53 c0 -2 -15 -37 -34 -79 -19 -41
-42 -97 -50 -124 -28 -86 -85 -238 -85 -226 -1 6 6 38 13 70 8 32 17 74 20 93
22 158 40 256 50 262 11 8 86 11 86 4z m-178 -488 c-6 -6 -7 0 -4 19 5 21 7
23 10 9 2 -10 0 -22 -6 -28z m-341 -517 c19 -5 75 -9 124 -10 49 -1 92 -4 95
-6 4 -2 104 -7 223 -9 118 -3 265 -10 325 -16 61 -6 174 -11 253 -11 78 -1
136 -5 129 -9 -7 -4 -33 -8 -59 -8 -25 -1 -77 -6 -116 -11 -38 -6 -108 -16
-155 -22 -119 -16 -114 -15 -225 -38 -55 -10 -125 -22 -155 -26 -132 -16 -244
-40 -382 -81 -81 -24 -154 -44 -162 -44 -8 0 -19 -8 -25 -17 -7 -13 -10 35
-10 154 l1 173 51 -6 c29 -3 68 -9 88 -13z"/>
</g>
</svg>
