<?xml version="1.0" standalone="no"?>
<!DOCTYPE svg PUBLIC "-//W3C//DTD SVG 20010904//EN"
 "http://www.w3.org/TR/2001/REC-SVG-20010904/DTD/svg10.dtd">
<svg version="1.0" xmlns="http://www.w3.org/2000/svg"
 width="238.000000pt" height="165.000000pt" viewBox="0 0 238.000000 165.000000"
 preserveAspectRatio="xMidYMid meet">
<metadata>
Created by potrace 1.16, written by Peter Selinger 2001-2019
</metadata>
<g transform="translate(0.000000,165.000000) scale(0.100000,-0.100000)"
fill="#000000" stroke="none">
<path d="M1323 1581 c-109 -42 -123 -53 -99 -76 9 -9 16 -22 17 -28 1 -25 7
-64 17 -117 5 -30 7 -59 4 -64 -3 -5 2 -7 11 -3 13 5 18 -1 22 -21 4 -15 12
-51 20 -79 l14 -53 -39 0 c-39 0 -39 1 -29 26 12 32 17 114 8 114 -7 0 -20
-61 -28 -132 -1 -12 -61 -10 -61 1 0 6 6 38 14 73 20 87 30 218 18 218 -13 0
-20 -31 -28 -111 -6 -73 -10 -100 -22 -149 -7 -30 -12 -35 -37 -35 -36 0 -36
-18 6 243 33 211 32 192 20 192 -16 0 -29 -57 -56 -245 -15 -99 -28 -182 -30
-183 -6 -7 -66 -8 -70 -2 -2 3 5 51 16 105 11 55 22 132 24 170 2 39 12 88 20
109 10 23 13 42 7 48 -17 17 -33 -20 -43 -94 -5 -40 -14 -107 -20 -148 -7 -41
-13 -82 -14 -90 -1 -8 -5 -34 -9 -57 -8 -42 -9 -43 -48 -43 l-40 0 6 63 c7 63
30 222 41 267 15 71 18 105 5 93 -20 -18 -80 -303 -80 -381 0 -36 -16 -48 -54
-38 l-23 6 13 77 c7 43 19 116 28 163 28 165 29 177 11 159 -9 -9 -22 -55 -31
-115 -8 -54 -23 -139 -32 -189 l-17 -90 -48 -3 c-26 -2 -47 1 -47 5 0 5 7 36
16 68 9 33 17 65 18 72 1 7 5 16 9 19 4 4 7 18 7 30 0 12 16 53 35 90 46 88
46 97 -2 87 -21 -4 -73 -8 -116 -8 -72 0 -78 -2 -83 -22 -3 -12 -7 -95 -7
-185 l-2 -163 -164 -3 c-118 -3 -171 0 -188 9 -20 11 -26 9 -48 -11 -32 -30
-42 -76 -21 -99 12 -14 15 -34 12 -91 -2 -41 0 -82 5 -92 14 -26 49 -23 49 3
0 29 28 48 70 49 19 0 49 4 65 9 17 4 69 11 116 15 l85 7 -2 -108 c-3 -160
-13 -281 -35 -439 -14 -102 -17 -148 -10 -167 12 -32 37 -35 44 -6 3 12 9 19
14 16 4 -3 49 -8 98 -11 50 -4 135 -11 189 -17 135 -14 295 -14 308 -1 8 8 7
13 -5 18 -18 7 -23 34 -8 49 5 6 24 55 42 110 17 55 42 122 54 150 50 109 135
333 147 385 7 30 17 58 22 62 6 4 7 10 3 14 -10 11 -33 -24 -51 -76 -18 -54
-112 -285 -126 -308 -7 -14 -9 -10 -10 16 0 20 -4 31 -10 27 -11 -7 -10 14 8
111 9 54 1 108 -11 69 -4 -11 -9 -36 -12 -55 -28 -162 -38 -207 -55 -252 -20
-54 -18 -77 6 -57 9 7 1 -25 -20 -87 -20 -54 -37 -110 -39 -124 -2 -14 -7 -24
-10 -22 -4 1 -13 2 -19 2 -13 0 -14 25 -3 159 4 54 38 200 75 321 6 19 13 51
15 70 3 19 7 49 9 65 2 17 7 50 11 75 4 25 8 50 8 57 0 14 51 28 67 18 5 -3
19 -1 30 5 15 8 20 8 20 -1 0 -8 4 -8 13 -1 6 5 77 13 157 16 180 9 251 13
365 26 50 6 155 13 234 17 l144 6 -6 -85 c-4 -47 -9 -92 -11 -99 -3 -8 -7 -56
-10 -107 -3 -51 -10 -111 -15 -135 -5 -23 -11 -88 -13 -144 -2 -57 -7 -103
-11 -103 -4 0 -7 -15 -6 -32 1 -18 -4 -54 -10 -80 -12 -50 3 -125 24 -120 16
3 19 102 3 102 -10 0 -11 2 0 8 12 8 14 18 27 122 7 65 35 191 45 205 9 14 26
75 50 181 11 50 27 110 35 133 8 23 14 45 13 49 -1 8 18 59 31 82 4 8 5 25 0
36 -6 19 -15 21 -96 21 -48 0 -106 5 -127 11 -22 7 -71 9 -115 5 -42 -3 -192
-2 -333 2 l-257 7 -11 68 c-6 38 -10 115 -8 172 3 89 8 111 33 161 17 34 25
61 19 65 -5 5 -51 -8 -101 -27z m37 -40 c0 -4 -5 -22 -10 -38 -6 -16 -12 -59
-14 -94 -4 -89 -5 -91 -16 -84 -10 6 -46 122 -52 165 -2 21 4 28 37 41 48 20
55 22 55 10z m-644 -73 c-5 -13 -29 -93 -46 -158 -43 -159 -39 -150 -70 -150
-25 0 -29 4 -28 28 0 15 -1 80 -2 146 -1 65 2 122 7 127 4 4 33 10 63 12 30 2
61 4 68 5 8 1 11 -4 8 -10z m26 -343 c2 -3 0 -29 -5 -59 -9 -49 -13 -55 -40
-60 -64 -13 -70 -10 -63 33 12 78 22 91 64 91 21 0 41 -2 44 -5z m217 -24 c-3
-49 -15 -66 -52 -72 -41 -6 -42 -4 -31 61 6 34 7 35 45 32 29 -3 39 -8 38 -21z
m-427 -46 c-2 -41 -8 -65 -15 -65 -51 -1 -282 -41 -320 -56 -15 -5 -17 3 -17
74 0 54 4 84 13 89 12 8 104 16 257 21 l85 3 -3 -66z m84 43 c-3 -13 -9 -40
-12 -61 -4 -20 -10 -39 -13 -42 -18 -10 -26 15 -23 68 4 53 5 57 29 57 21 0
24 -3 19 -22z m234 3 c0 -10 -3 -32 -6 -49 -5 -26 -11 -31 -45 -34 -38 -3 -39
-2 -39 27 0 62 9 75 51 75 31 0 39 -4 39 -19z m197 11 c8 -5 10 -17 5 -37 -6
-22 -16 -31 -40 -36 -17 -3 -33 -5 -35 -3 -2 2 -1 19 1 38 3 26 10 36 26 39
11 2 23 5 26 5 3 1 10 -2 17 -6z m95 -25 c-8 -33 -21 -45 -42 -40 -14 4 -20
14 -20 32 0 35 4 38 39 33 23 -3 28 -8 23 -25z m88 11 c0 -9 3 -9 12 0 17 17
98 15 119 -3 15 -14 18 -14 33 0 15 15 38 16 219 9 224 -9 206 -17 -63 -29
-80 -3 -158 -8 -175 -10 -16 -2 -73 -7 -126 -10 l-96 -6 5 30 c4 28 8 31 38
31 20 0 34 -5 34 -12z m653 -5 c-7 -2 -19 -2 -25 0 -7 3 -2 5 12 5 14 0 19 -2
13 -5z m404 -21 c8 -5 4 -23 -13 -66 -13 -33 -24 -67 -24 -76 0 -9 -4 -20 -9
-26 -7 -8 -25 -69 -36 -127 -10 -49 -36 -142 -42 -146 -3 -4 -3 7 1 23 4 15 9
87 12 160 3 111 14 198 30 254 4 13 62 16 81 4z m-1172 -89 c-3 -15 -8 -41
-10 -58 -17 -133 -29 -188 -66 -309 -17 -56 -32 -110 -35 -121 -19 -93 -23
-128 -20 -177 4 -58 1 -64 -20 -50 -12 7 -2 129 16 187 5 17 11 53 14 80 3 28
14 94 25 145 11 52 25 140 31 195 7 55 13 105 14 110 1 11 24 23 45 24 9 1 11
-6 6 -26z m-178 -10 c-3 -16 -10 -55 -16 -88 -6 -33 -13 -76 -16 -95 -3 -19
-15 -75 -25 -125 -11 -49 -22 -106 -25 -125 -3 -19 -8 -42 -10 -50 -2 -8 -6
-26 -9 -40 -4 -25 -29 -122 -32 -128 -1 -1 -13 3 -27 9 -22 10 -25 17 -22 48
5 42 31 186 46 251 14 60 23 114 45 247 19 119 18 117 77 122 14 1 17 -5 14
-26z m99 10 c-2 -10 -7 -40 -11 -68 -3 -27 -7 -63 -9 -80 -6 -42 -35 -193 -46
-235 -5 -19 -11 -46 -14 -60 -2 -14 -10 -47 -16 -75 -7 -27 -13 -57 -15 -65
-12 -79 -18 -110 -24 -110 -13 0 -29 16 -35 36 -6 19 32 296 54 394 6 25 12
61 15 80 2 19 11 70 20 113 8 43 15 81 15 83 0 2 16 4 36 4 29 0 34 -3 30 -17z
m-211 -45 c-3 -29 -20 -118 -36 -198 -17 -80 -32 -156 -35 -170 -25 -147 -39
-210 -49 -210 -6 0 -21 7 -34 16 -24 17 -25 41 -6 134 3 14 12 68 20 120 9 52
22 125 30 162 8 37 14 71 13 75 0 5 2 16 7 26 4 10 5 20 2 24 -4 3 0 18 8 34
11 20 24 29 47 32 18 2 34 5 36 5 2 1 1 -22 -3 -50z m-111 -5 c-3 -21 -13 -67
-20 -103 -8 -36 -19 -92 -25 -125 -22 -130 -40 -221 -49 -245 -4 -14 -11 -33
-14 -43 -4 -13 -10 -15 -23 -8 -10 5 -26 12 -36 15 -13 4 -17 12 -12 26 3 11
6 48 6 84 0 61 16 166 38 251 6 22 15 69 21 104 6 36 13 68 16 73 3 4 28 8 55
8 l50 0 -7 -37z m-137 -15 c-17 -77 -24 -85 -22 -28 3 70 3 70 19 70 11 0 11
-8 3 -42z m30 -568 c7 0 35 -13 63 -30 28 -16 59 -30 69 -30 10 0 34 -7 52
-15 33 -15 32 -15 -36 -9 -38 4 -106 7 -150 7 -44 0 -83 4 -86 9 -3 5 -2 31 4
58 l9 48 32 -19 c17 -10 36 -19 43 -19z"/>
<path d="M1206 985 c-3 -8 -8 -38 -11 -67 -7 -64 9 -36 19 35 7 46 4 61 -8 32z"/>
<path d="M1246 943 c-4 -32 -10 -70 -15 -85 -13 -40 -3 -34 15 8 19 45 29 134
15 134 -5 0 -12 -26 -15 -57z"/>
<path d="M1217 800 c-10 -24 -28 -112 -23 -117 8 -9 38 85 34 108 -3 18 -6 20
-11 9z"/>
</g>
</svg>
