<?xml version="1.0" standalone="no"?>
<!DOCTYPE svg PUBLIC "-//W3C//DTD SVG 20010904//EN"
 "http://www.w3.org/TR/2001/REC-SVG-20010904/DTD/svg10.dtd">
<svg version="1.0" xmlns="http://www.w3.org/2000/svg"
 width="314.000000pt" height="148.000000pt" viewBox="0 0 314.000000 148.000000"
 preserveAspectRatio="xMidYMid meet">
<metadata>
Created by potrace 1.16, written by Peter Selinger 2001-2019
</metadata>
<g transform="translate(0.000000,148.000000) scale(0.100000,-0.100000)"
fill="#000000" stroke="none">
<path d="M231 1228 c-17 -58 -24 -102 -23 -160 1 -40 -3 -58 -14 -62 -24 -9
-16 -25 19 -34 25 -7 38 -4 59 11 25 18 171 48 308 62 25 2 56 6 70 9 23 4
113 16 170 22 14 1 72 8 130 14 58 7 132 17 166 24 57 12 61 11 57 -5 -3 -10
9 -39 26 -64 17 -25 33 -56 37 -69 3 -13 13 -32 23 -43 18 -19 153 -290 166
-332 12 -38 94 -163 128 -193 18 -17 42 -28 58 -28 16 0 32 -7 38 -17 5 -10
15 -18 23 -19 31 -2 78 -17 78 -25 0 -5 9 -9 19 -9 12 0 23 11 30 32 6 17 25
54 43 81 17 27 44 74 60 105 15 32 57 106 92 166 36 61 63 113 60 118 -3 4 0
8 6 8 6 0 8 5 4 12 -4 7 -3 8 4 4 7 -4 19 9 32 34 11 22 18 40 15 40 -3 0 8
20 24 44 17 24 28 46 25 48 -9 9 17 53 43 72 l25 19 -7 -42 c-9 -54 8 -61 77
-31 29 12 61 24 72 25 18 3 395 90 436 101 76 19 108 26 198 39 103 15 122 20
122 33 0 10 -872 9 -887 -1 -7 -5 -13 -24 -13 -43 0 -26 -9 -45 -39 -77 -21
-23 -55 -67 -76 -97 -55 -79 -110 -148 -164 -205 -25 -27 -66 -74 -90 -103
-51 -61 -240 -227 -271 -237 -26 -8 -39 2 -65 52 -11 21 -23 40 -26 43 -3 3
-9 34 -12 70 -4 36 -14 85 -23 110 -10 25 -20 70 -24 100 -4 30 -17 91 -29
134 -23 88 -29 216 -9 216 9 0 9 3 1 11 -8 8 -20 8 -40 2 -17 -6 -49 -7 -83
-1 -161 26 -234 30 -570 35 -381 4 -423 7 -428 22 -8 24 -41 11 -51 -21z m492
-32 c236 -2 299 -5 327 -18 25 -11 43 -12 60 -6 22 8 97 4 107 -6 3 -2 -15 -7
-39 -11 -24 -3 -83 -13 -133 -21 -49 -7 -164 -23 -255 -34 -91 -11 -178 -23
-195 -25 -16 -3 -62 -9 -101 -15 -112 -15 -207 -31 -215 -36 -16 -10 -20 19
-13 96 7 90 7 89 112 82 30 -2 185 -4 345 -6z m1991 0 c76 -3 141 -8 144 -11
3 -3 -5 -5 -17 -5 -12 0 -92 -16 -179 -36 -86 -20 -197 -45 -247 -56 -49 -11
-99 -22 -111 -25 -17 -4 -22 1 -27 25 -9 44 3 100 22 104 9 3 45 6 81 7 36 1
66 3 67 4 2 2 74 1 267 -7z m-1364 -106 c0 -36 33 -181 46 -202 3 -5 8 -32 10
-61 3 -29 10 -65 16 -80 6 -15 8 -30 5 -34 -3 -3 -9 6 -13 21 -3 14 -11 26
-17 26 -6 0 -8 3 -5 6 7 6 -67 161 -88 184 -29 34 -84 149 -73 155 18 12 63
23 92 24 25 1 27 -2 27 -39z m679 -272 c-7 -13 -29 -50 -49 -83 -20 -33 -58
-100 -85 -150 -119 -217 -135 -236 -166 -199 -7 8 -32 25 -56 38 l-44 22 82
69 c94 80 155 140 252 248 72 81 86 92 66 55z"/>
</g>
</svg>
