<?xml version="1.0" standalone="no"?>
<!DOCTYPE svg PUBLIC "-//W3C//DTD SVG 20010904//EN"
 "http://www.w3.org/TR/2001/REC-SVG-20010904/DTD/svg10.dtd">
<svg version="1.0" xmlns="http://www.w3.org/2000/svg"
 width="288.000000pt" height="146.000000pt" viewBox="0 0 288.000000 146.000000"
 preserveAspectRatio="xMidYMid meet">
<metadata>
Created by potrace 1.16, written by Peter Selinger 2001-2019
</metadata>
<g transform="translate(0.000000,146.000000) scale(0.100000,-0.100000)"
fill="#000000" stroke="none">
<path d="M1578 1228 c-7 -13 -11 -27 -10 -32 2 -5 -4 -6 -13 -3 -10 4 -15 0
-15 -11 0 -10 -14 -31 -31 -48 -17 -16 -48 -54 -69 -84 -55 -80 -224 -244
-244 -237 -8 3 -23 21 -32 39 -9 18 -20 35 -23 38 -10 7 -107 209 -116 240
-10 33 -54 80 -76 80 -10 0 -20 -8 -23 -18 -3 -10 -26 -38 -51 -63 -51 -52
-94 -64 -191 -53 -45 6 -54 4 -54 -9 0 -8 6 -17 14 -20 9 -3 12 -15 9 -31 -4
-18 -1 -26 8 -26 9 0 10 -3 3 -8 -7 -5 -7 -45 -1 -131 5 -68 5 -127 0 -132
-12 -12 -403 7 -435 21 -14 7 -29 23 -32 36 -9 34 -42 31 -54 -5 -10 -28 -8
-78 5 -111 3 -8 7 -42 9 -74 5 -81 17 -90 57 -44 32 38 111 79 177 92 54 11
274 35 279 30 2 -2 6 -59 7 -126 2 -68 6 -156 10 -196 5 -70 7 -74 27 -67 12
4 35 9 51 12 l28 6 -18 -28 -17 -27 47 6 c27 2 49 6 50 8 1 2 8 15 15 30 7 14
26 40 42 58 16 17 29 36 29 42 0 17 66 95 151 180 l78 77 48 -61 c26 -33 59
-75 73 -92 14 -17 38 -49 52 -71 14 -22 42 -58 62 -79 20 -22 36 -45 36 -52 0
-7 11 -25 24 -39 30 -33 72 -35 117 -7 36 21 286 134 329 147 42 13 208 93
447 215 54 28 123 54 170 64 161 35 190 55 134 95 -45 32 -231 104 -276 106
-44 2 -106 31 -234 108 -46 27 -141 74 -212 103 -71 28 -175 80 -231 113 -56
34 -105 61 -109 61 -5 0 -14 -10 -21 -22z m81 -53 c23 -14 49 -25 56 -25 7 0
18 -7 26 -16 7 -8 21 -13 30 -11 10 3 17 0 16 -5 -1 -6 34 -26 78 -45 98 -43
225 -105 225 -110 0 -2 -17 4 -37 13 -88 39 -372 126 -389 120 -8 -3 -16 -1
-19 3 -2 5 -25 12 -50 15 l-45 7 20 29 c11 15 20 33 20 39 0 17 21 13 69 -14z
m-633 -142 c27 -54 70 -133 97 -175 36 -56 47 -82 42 -98 -15 -48 -36 -26
-186 194 l-81 118 34 29 c18 15 36 28 39 29 4 0 28 -44 55 -97z m594 46 c62
-14 183 -51 195 -60 6 -4 44 -17 85 -29 41 -12 114 -40 161 -61 48 -22 93 -39
100 -39 8 0 46 -11 84 -24 39 -13 122 -41 185 -61 127 -40 180 -62 180 -74 0
-9 -62 -33 -133 -50 -56 -13 -228 -79 -241 -92 -6 -5 -20 -9 -32 -9 -19 0
-213 -67 -319 -111 -16 -6 -37 -13 -45 -14 -54 -10 -227 -59 -266 -75 -26 -11
-67 -21 -93 -23 l-46 -2 -37 75 c-29 59 -42 75 -59 75 -15 0 -41 24 -85 80
-55 71 -61 82 -49 98 12 17 17 12 52 -48 21 -36 42 -75 48 -85 11 -22 35 -35
35 -18 0 6 -22 52 -50 102 -48 89 -49 93 -33 117 30 44 98 134 113 149 9 8 31
35 49 60 58 76 114 130 136 130 11 0 40 -5 65 -11z m-795 -77 c-4 -20 -10 -41
-14 -47 -19 -25 -64 -169 -64 -205 0 -31 -4 -40 -17 -40 -14 0 -18 14 -24 93
-3 50 -9 122 -12 159 -7 75 -11 71 84 75 l54 2 -7 -37z m112 -49 c18 -29 33
-55 33 -58 0 -9 -50 -6 -70 5 -14 7 -23 6 -35 -7 -16 -15 -16 -18 -1 -28 9 -7
12 -15 9 -19 -4 -4 -8 -49 -9 -99 -1 -51 -5 -114 -8 -142 -4 -27 -8 -78 -9
-113 -2 -61 -3 -65 -47 -105 l-44 -42 -8 35 c-3 19 -3 53 2 75 5 22 16 99 25
170 20 164 30 209 69 317 35 98 37 98 93 11z m11 -110 c-23 -48 -32 -63 -38
-63 -5 0 -6 36 -1 63 0 4 10 7 22 7 11 0 19 -3 17 -7z m98 -41 c17 -20 39 -51
49 -68 l18 -32 -62 -63 c-65 -68 -72 -75 -133 -128 l-40 -35 6 35 c4 19 8 58
10 87 2 29 11 61 19 70 8 9 18 33 22 52 9 44 52 120 68 120 7 0 26 -17 43 -38z
m197 -16 c-10 -13 -20 -22 -22 -20 -4 4 29 44 36 44 2 0 -4 -11 -14 -24z m-53
-71 c-7 -8 -17 -15 -23 -15 -5 0 -2 9 8 20 21 23 35 19 15 -5z m-865 -34 l39
-1 -73 -35 c-41 -20 -75 -34 -76 -33 -1 2 -5 20 -8 40 l-6 38 42 -4 c23 -2 60
-4 82 -5z m411 -43 c-8 -73 -9 -75 -15 -23 -5 42 1 64 17 65 2 0 1 -19 -2 -42z
m317 -71 c-54 -56 -127 -135 -162 -174 -56 -64 -91 -89 -91 -65 0 16 24 42
176 194 173 172 235 208 77 45z m1027 -67 c-20 -13 -33 -13 -25 0 3 6 14 10
23 10 15 0 15 -2 2 -10z m-206 -89 c-78 -38 -162 -78 -185 -89 -24 -11 -65
-29 -90 -41 -56 -26 -85 -27 -93 -3 -3 9 -8 22 -11 28 -4 7 21 21 61 35 36 13
68 29 71 36 3 6 11 9 18 7 23 -9 289 60 334 86 9 5 21 9 26 9 6 0 -54 -31
-131 -68z"/>
</g>
</svg>
