<?xml version="1.0" standalone="no"?>
<!DOCTYPE svg PUBLIC "-//W3C//DTD SVG 20010904//EN"
 "http://www.w3.org/TR/2001/REC-SVG-20010904/DTD/svg10.dtd">
<svg version="1.0" xmlns="http://www.w3.org/2000/svg"
 width="294.000000pt" height="144.000000pt" viewBox="0 0 294.000000 144.000000"
 preserveAspectRatio="xMidYMid meet">
<metadata>
Created by potrace 1.16, written by Peter Selinger 2001-2019
</metadata>
<g transform="translate(0.000000,144.000000) scale(0.100000,-0.100000)"
fill="#000000" stroke="none">
<path d="M1810 1322 c0 -17 -22 -30 -325 -194 -171 -93 -197 -108 -220 -129
-11 -10 -36 -29 -55 -42 -24 -15 -36 -32 -38 -51 l-4 -29 -144 6 c-80 3 -148
7 -151 10 -6 7 38 154 69 235 12 30 36 72 55 94 19 23 33 47 31 55 -4 22 -69
41 -164 48 -79 7 -83 6 -97 -16 -21 -33 -27 -92 -28 -259 l-1 -145 -142 2
c-173 4 -241 16 -273 51 -20 21 -27 24 -47 14 -30 -13 -35 -44 -35 -195 0 -64
-3 -121 -6 -126 -3 -5 2 -16 11 -25 19 -20 44 -8 76 35 32 43 97 73 203 93 50
10 106 22 126 27 74 19 79 16 79 -48 0 -32 -5 -76 -10 -98 -6 -22 -12 -85 -15
-140 -3 -55 -8 -107 -11 -116 -5 -18 23 -79 37 -79 23 0 41 51 35 98 -3 27 0
73 8 107 8 33 26 115 41 182 19 84 33 124 44 129 27 11 363 16 357 5 -8 -13 4
-41 17 -41 6 0 19 7 29 17 17 15 18 14 18 -15 0 -21 5 -32 14 -32 8 0 32 -19
53 -42 133 -144 195 -213 248 -278 33 -39 67 -76 76 -81 9 -5 30 -29 45 -54
32 -50 50 -61 70 -44 8 6 14 10 15 8 0 -2 2 -13 4 -24 4 -23 40 -55 61 -55 8
0 30 24 48 53 19 28 78 93 132 142 55 50 126 115 159 146 33 31 89 73 125 94
36 21 116 77 179 124 108 82 116 86 165 86 39 0 51 4 51 15 0 26 -115 93 -263
154 -78 32 -144 62 -147 66 -3 5 -18 15 -33 23 -15 8 -56 31 -92 52 -36 21
-116 66 -179 100 -73 39 -117 70 -122 84 -11 28 -79 31 -79 3z m-875 -74 c2
-2 -8 -28 -23 -58 -15 -30 -43 -108 -62 -173 -19 -65 -39 -117 -45 -115 -10 3
-11 318 -1 343 3 8 25 11 66 10 34 -2 63 -5 65 -7z m1099 -67 c93 -44 315
-171 299 -171 -23 0 -243 87 -236 93 3 4 -3 7 -15 7 -12 0 -31 4 -44 9 -13 5
-56 22 -95 36 -66 24 -73 29 -73 54 0 48 0 48 164 -28z m-231 14 c-3 -47 10
-65 51 -65 34 0 145 -33 246 -73 36 -14 128 -48 205 -77 198 -73 255 -100 255
-119 0 -31 -219 -191 -435 -319 -85 -50 -341 -162 -371 -162 -12 0 -156 178
-184 228 -53 92 -124 209 -136 223 -8 9 -19 30 -23 47 -8 28 -5 33 43 76 28
25 80 73 115 106 35 34 83 75 107 91 24 16 44 34 44 40 0 12 62 50 75 45 6 -2
9 -20 8 -41z m-304 -138 c-30 -29 -95 -85 -143 -126 l-88 -75 -18 24 c-20 27
-18 40 8 40 30 0 67 25 67 44 0 10 7 23 15 27 8 5 58 34 110 64 52 30 97 55
100 55 3 -1 -20 -24 -51 -53z m-926 -193 c86 -3 157 -10 157 -14 0 -8 -123
-37 -274 -65 -49 -8 -101 -22 -117 -31 l-29 -15 0 71 0 70 53 -5 c28 -3 123
-8 210 -11z m824 -66 c29 -31 123 -186 123 -203 0 -9 -54 48 -133 139 -36 41
-47 61 -42 76 9 27 16 25 52 -12z m-615 -20 c-7 -7 -12 -8 -12 -2 0 14 12 26
19 19 2 -3 -1 -11 -7 -17z m1227 -375 c-29 -27 -71 -65 -93 -85 -23 -21 -46
-38 -52 -38 -15 0 -54 39 -54 54 0 12 200 105 249 115 2 1 -21 -20 -50 -46z"/>
</g>
</svg>
