<?xml version="1.0" standalone="no"?>
<!DOCTYPE svg PUBLIC "-//W3C//DTD SVG 20010904//EN"
 "http://www.w3.org/TR/2001/REC-SVG-20010904/DTD/svg10.dtd">
<svg version="1.0" xmlns="http://www.w3.org/2000/svg"
 width="224.000000pt" height="156.000000pt" viewBox="0 0 224.000000 156.000000"
 preserveAspectRatio="xMidYMid meet">
<metadata>
Created by potrace 1.16, written by Peter Selinger 2001-2019
</metadata>
<g transform="translate(0.000000,156.000000) scale(0.100000,-0.100000)"
fill="#000000" stroke="none">
<path d="M854 1285 c-4 -8 -4 -21 -1 -29 5 -11 -8 -14 -66 -11 -40 1 -101 6
-137 10 -52 5 -69 4 -85 -9 -18 -14 -18 -17 -4 -26 17 -10 17 -32 10 -364 l-1
-69 -102 7 c-65 4 -132 15 -183 31 -44 14 -95 25 -112 25 -27 0 -34 -4 -39
-27 -3 -16 -8 -35 -10 -44 -2 -9 -6 -52 -9 -97 -4 -73 -3 -82 14 -92 15 -7 22
-7 28 3 4 8 26 17 48 21 66 11 298 47 328 51 l29 4 -6 -127 c-3 -70 -10 -144
-15 -166 -5 -21 -7 -53 -4 -72 6 -39 -2 -42 -37 -14 -33 26 -54 25 -85 -4 -15
-14 -32 -27 -38 -29 -7 -2 2 -17 20 -34 30 -28 32 -34 29 -87 -4 -71 2 -75 98
-53 123 27 219 46 271 52 28 4 88 13 135 20 124 20 206 27 505 40 211 9 340
17 344 21 2 2 1 10 -2 18 -5 12 -31 15 -139 15 -73 0 -141 0 -151 1 -15 0 -17
6 -11 38 4 20 10 38 15 40 4 2 5 18 3 35 -5 32 28 204 46 237 27 50 351 133
508 130 59 -1 81 11 46 24 -9 3 -73 6 -143 6 -70 0 -152 4 -182 10 -30 5 -80
12 -113 15 -73 7 -78 10 -65 43 6 15 12 42 15 61 2 18 27 97 54 174 52 147 52
157 3 157 -12 0 -24 4 -27 8 -3 5 -108 9 -233 10 -208 2 -241 5 -376 32 -172
35 -166 34 -173 15z m181 -56 c92 -17 96 -17 155 -20 l55 -2 -55 -7 c-30 -4
-107 -11 -171 -15 l-116 -8 -5 37 -4 37 40 -6 c23 -2 68 -10 101 -16z m-176
-64 c-2 -39 -6 -45 -25 -45 -12 0 -27 -6 -33 -14 -10 -12 -3 -15 41 -21 81
-10 211 -2 216 13 3 9 -17 12 -77 12 -49 0 -81 4 -81 10 0 14 7 16 130 30 58
7 116 14 130 17 14 2 86 8 160 13 74 5 152 12 173 16 36 6 38 4 35 -17 -4 -30
-31 -36 -162 -38 -112 -2 -167 -14 -149 -32 8 -8 189 0 293 14 11 1 14 -6 12
-28 -2 -16 -5 -32 -7 -34 -2 -2 -70 -3 -150 -2 -115 1 -146 -1 -143 -11 4 -10
42 -13 152 -13 l146 0 -6 -30 c-8 -37 -14 -41 -61 -39 -147 5 -245 5 -250 0
-20 -19 26 -27 161 -27 136 -1 146 -2 146 -20 0 -25 -20 -29 -190 -32 -122 -2
-145 -4 -148 -18 -3 -17 5 -17 214 -4 l121 7 -3 -23 c-9 -67 -24 -142 -30
-148 -3 -3 -67 -6 -141 -6 -95 0 -137 -4 -140 -12 -6 -18 43 -24 170 -20 114
4 117 4 117 -17 0 -31 -11 -41 -47 -42 -18 0 -84 -1 -146 -2 -86 -2 -118 -6
-133 -18 -17 -14 -5 -15 142 -10 l162 5 5 -24 c3 -20 0 -25 -17 -25 -11 0 -70
-3 -131 -6 -60 -3 -132 -6 -158 -6 -38 -1 -47 -5 -45 -17 4 -18 20 -19 221 -6
74 5 127 4 126 -1 -3 -41 -11 -44 -151 -49 -128 -5 -188 -15 -188 -31 0 -4 75
-3 166 1 l167 7 -6 -24 c-4 -12 -7 -29 -7 -35 0 -10 -41 -13 -171 -12 -94 0
-173 -2 -176 -5 -17 -17 23 -21 173 -18 l165 3 -3 -43 -3 -42 -95 0 c-287 1
-570 8 -540 14 43 9 35 11 -60 15 -51 2 -82 -2 -97 -11 -38 -24 -43 -18 -43
60 l0 74 171 1 c169 0 189 3 189 22 0 7 -33 10 -87 9 -49 -1 -128 -2 -176 -1
-86 1 -88 2 -85 23 3 23 5 23 168 26 143 2 196 10 179 26 -2 3 -76 6 -164 7
-88 1 -163 3 -167 6 -4 2 -5 10 -1 18 4 12 29 15 132 14 139 -1 231 8 231 23
0 5 -44 9 -102 8 -57 -1 -136 -2 -176 -1 -71 1 -73 2 -66 24 4 12 11 25 16 28
6 4 60 5 121 4 127 -4 180 2 174 19 -3 8 -50 10 -157 9 -183 -3 -191 11 -19
33 63 8 137 19 164 24 28 6 61 11 74 13 13 1 26 7 28 14 7 20 -30 30 -92 24
-65 -7 -266 6 -276 17 -4 4 -3 17 1 28 8 21 15 22 176 23 92 1 171 4 176 7 29
18 -9 24 -162 24 -93 0 -170 4 -170 8 0 5 7 29 16 54 18 54 26 57 139 58 97 1
157 11 162 27 3 8 -31 10 -131 6 -75 -3 -136 -4 -136 -1 0 21 58 129 84 155
17 18 32 32 34 32 2 1 2 -19 1 -44z m-127 16 l27 -6 -33 -75 c-32 -72 -77
-209 -91 -277 -4 -18 -11 -33 -17 -33 -6 0 -8 36 -4 103 3 56 5 146 6 200 l0
97 43 -1 c23 -1 54 -4 69 -8z m891 -103 c-30 -110 -29 -108 -54 -108 -15 0
-19 7 -19 34 0 22 6 36 16 40 13 5 14 9 4 21 -18 21 -4 65 20 65 11 0 20 5 20
10 0 6 -9 10 -20 10 -11 0 -20 5 -20 10 0 6 18 10 39 10 l40 0 -26 -92z m-43
-145 c0 -10 -5 -25 -10 -33 -9 -13 -11 -13 -20 0 -13 21 -12 37 3 43 22 9 27
7 27 -10z m-15 -70 c-3 -10 -11 -39 -17 -65 -15 -65 -28 -61 -16 5 12 68 15
77 29 77 7 0 8 -7 4 -17z m-1298 -77 c51 -17 106 -26 190 -31 118 -7 120 -8
115 -30 -4 -21 -12 -24 -105 -35 -56 -6 -126 -16 -156 -21 -30 -5 -72 -9 -93
-9 -29 0 -37 -3 -32 -12 5 -9 2 -8 -10 1 -14 12 -16 24 -11 70 8 68 14 91 24
91 4 0 39 -11 78 -24z m1418 -42 l70 -7 -60 -17 c-33 -10 -77 -27 -98 -40 -21
-12 -41 -19 -45 -16 -3 4 -1 11 6 15 7 4 12 16 11 27 -4 44 0 54 24 50 12 -3
54 -8 92 -12z m-925 -5 l55 -2 -75 -12 c-81 -14 -92 -12 -83 11 4 10 13 14 27
10 11 -3 46 -6 76 -7z m-17 -486 c-7 -2 -21 -2 -30 0 -10 3 -4 5 12 5 17 0 24
-2 18 -5z m415 -39 c-4 -3 -28 -8 -55 -10 -122 -11 -469 -59 -533 -74 -19 -4
-50 -11 -67 -14 l-33 -5 0 53 0 53 347 2 c191 1 344 -1 341 -5z"/>
<path d="M850 946 c-80 -11 -87 -25 -10 -21 19 1 61 3 93 4 42 1 57 5 55 14
-6 16 -36 17 -138 3z"/>
<path d="M1213 787 c-13 -21 22 -29 117 -29 57 0 107 5 113 11 7 7 6 12 -4 15
-26 9 -221 11 -226 3z"/>
<path d="M624 349 c-11 -19 5 -22 118 -23 114 -1 168 7 168 24 0 13 -278 12
-286 -1z"/>
<path d="M1126 291 c-7 -10 182 -7 191 3 4 3 -37 6 -90 6 -53 0 -98 -4 -101
-9z"/>
</g>
</svg>
