<?xml version="1.0" standalone="no"?>
<!DOCTYPE svg PUBLIC "-//W3C//DTD SVG 20010904//EN"
 "http://www.w3.org/TR/2001/REC-SVG-20010904/DTD/svg10.dtd">
<svg version="1.0" xmlns="http://www.w3.org/2000/svg"
 width="220.000000pt" height="158.000000pt" viewBox="0 0 220.000000 158.000000"
 preserveAspectRatio="xMidYMid meet">
<metadata>
Created by potrace 1.16, written by Peter Selinger 2001-2019
</metadata>
<g transform="translate(0.000000,158.000000) scale(0.100000,-0.100000)"
fill="#000000" stroke="none">
<path d="M1135 1272 c-92 -14 -214 -19 -275 -10 -24 3 -25 1 -26 -52 -1 -71
-14 -262 -19 -276 -2 -8 -27 -7 -87 3 -45 7 -112 16 -148 19 -36 3 -99 12
-140 20 -41 8 -88 14 -104 14 -20 0 -39 11 -62 36 -23 24 -41 34 -56 32 -39
-5 -48 -42 -48 -201 0 -170 3 -176 72 -130 24 16 70 37 103 47 33 10 71 22 85
27 46 17 167 35 286 43 72 5 83 3 89 -12 7 -16 14 -165 17 -367 1 -49 -2 -123
-6 -162 -7 -64 -6 -73 8 -73 25 0 37 44 43 150 3 52 10 104 16 115 6 11 12 40
13 65 1 25 11 86 23 135 11 50 19 95 16 102 -2 6 0 13 6 15 5 2 18 37 30 78
11 41 31 100 43 130 13 30 36 85 51 123 17 42 33 67 43 67 13 0 14 -10 7 -72
-5 -40 -10 -172 -11 -293 -3 -344 -11 -498 -29 -560 -19 -63 -15 -85 14 -85
25 0 36 16 38 55 2 40 9 109 22 230 6 55 12 119 13 142 2 24 6 43 9 43 4 0 10
16 13 35 4 19 11 37 15 40 16 9 160 33 331 55 91 11 185 25 210 30 48 10 130
20 213 26 29 2 66 5 84 7 43 3 61 21 43 42 -10 12 -23 15 -50 10 -98 -17 -770
-9 -787 9 -22 22 75 257 130 314 22 23 28 35 20 43 -7 7 -17 8 -29 1 -11 -5
-28 -6 -39 -1 -28 11 -75 9 -190 -9z m163 -33 c16 -10 14 -18 -26 -97 -33 -66
-40 -87 -30 -94 9 -6 6 -7 -8 -3 -19 5 -22 1 -22 -32 -1 -37 -37 -184 -52
-212 -18 -34 -22 166 -6 284 4 28 9 72 10 99 4 48 4 49 41 52 21 2 40 6 43 9
9 8 31 6 50 -6z m-275 -91 c-14 -35 -39 -102 -56 -151 -22 -61 -36 -86 -45
-82 -8 3 -24 5 -38 5 -23 0 -24 3 -23 66 1 36 7 98 13 137 l12 72 60 6 c32 3
69 6 81 7 l22 2 -26 -62z m-673 -207 c36 -6 76 -14 90 -17 30 -6 155 -23 190
-24 27 -2 -26 -16 -170 -46 -47 -10 -113 -28 -148 -41 -34 -13 -67 -23 -72
-23 -10 0 -13 157 -4 172 3 4 15 3 27 -2 12 -5 51 -14 87 -19z m1409 -76 c2
-3 -7 -5 -20 -5 -31 -1 -83 -8 -189 -25 -47 -7 -116 -16 -155 -20 -117 -10
-139 -13 -169 -21 -26 -6 -28 -5 -21 17 22 70 -6 64 286 61 145 -1 265 -5 268
-7z m38 9 c-3 -3 -12 -4 -19 -1 -8 3 -5 6 6 6 11 1 17 -2 13 -5z m-877 -13 c0
-6 -5 -13 -10 -16 -6 -4 -8 -10 -6 -14 3 -4 -3 -37 -13 -72 -20 -69 -25 -65
-35 33 -5 44 -3 49 22 63 32 17 42 18 42 6z"/>
</g>
</svg>
