<?xml version="1.0" standalone="no"?>
<!DOCTYPE svg PUBLIC "-//W3C//DTD SVG 20010904//EN"
 "http://www.w3.org/TR/2001/REC-SVG-20010904/DTD/svg10.dtd">
<svg version="1.0" xmlns="http://www.w3.org/2000/svg"
 width="202.000000pt" height="85.000000pt" viewBox="0 0 202.000000 85.000000"
 preserveAspectRatio="xMidYMid meet">
<metadata>
Created by potrace 1.16, written by Peter Selinger 2001-2019
</metadata>
<g transform="translate(0.000000,85.000000) scale(0.100000,-0.100000)"
fill="#000000" stroke="none">
<path d="M338 763 c-10 -3 -18 -11 -18 -19 0 -18 67 -153 87 -175 7 -9 22 -33
33 -53 l18 -37 -61 7 c-34 3 -93 17 -132 31 -94 34 -135 40 -135 20 0 -20 27
-47 48 -48 11 0 12 -2 5 -6 -60 -24 70 -49 347 -68 63 -4 162 -23 172 -33 5
-5 -6 -20 -24 -34 -18 -14 -79 -71 -136 -127 -91 -90 -112 -121 -82 -121 11 0
77 58 214 188 90 84 90 84 135 79 25 -3 78 -12 116 -21 39 -8 108 -18 155 -22
69 -6 81 -9 65 -18 -26 -15 -185 -167 -185 -178 0 -4 7 -8 16 -8 16 0 52 29
166 137 55 52 60 54 97 48 24 -4 41 -2 46 4 3 6 11 9 16 6 25 -16 129 -34 264
-45 83 -7 169 -19 193 -26 38 -11 44 -11 50 4 3 9 15 25 27 35 13 12 16 20 9
23 -9 4 -9 12 1 32 7 15 18 65 25 112 6 47 16 90 20 95 10 12 8 54 -4 73 -10
17 -23 15 -44 -5 -9 -10 -44 -24 -77 -31 -133 -29 -353 -62 -409 -62 -34 0
-99 -4 -146 -9 -201 -23 -194 -23 -206 2 -65 134 -122 216 -142 203 -19 -12
-13 -39 18 -80 17 -22 30 -45 30 -51 0 -7 13 -30 29 -53 l30 -40 -32 -6 c-29
-5 -193 -8 -364 -7 l-62 1 -11 39 c-5 21 -20 54 -33 72 -13 19 -36 60 -51 91
-31 64 -53 86 -78 81z m1470 -255 c-1 -18 0 -64 2 -102 2 -62 0 -71 -21 -88
-25 -19 -25 -19 -169 -3 -19 3 -64 7 -100 9 -36 3 -94 12 -130 20 -36 8 -92
17 -125 20 -153 14 -444 52 -451 59 -2 2 20 4 49 4 28 0 131 7 227 16 96 8
213 15 260 16 47 1 103 7 125 12 22 6 67 15 100 20 33 5 67 12 75 15 8 4 33 8
55 10 22 1 51 7 65 13 37 15 39 14 38 -21z m-1011 -84 c-3 -3 -12 -4 -19 -1
-8 3 -5 6 6 6 11 1 17 -2 13 -5z"/>
</g>
</svg>
