<?xml version="1.0" standalone="no"?>
<!DOCTYPE svg PUBLIC "-//W3C//DTD SVG 20010904//EN"
 "http://www.w3.org/TR/2001/REC-SVG-20010904/DTD/svg10.dtd">
<svg version="1.0" xmlns="http://www.w3.org/2000/svg"
 width="217.000000pt" height="103.000000pt" viewBox="0 0 217.000000 103.000000"
 preserveAspectRatio="xMidYMid meet">
<metadata>
Created by potrace 1.16, written by Peter Selinger 2001-2019
</metadata>
<g transform="translate(0.000000,103.000000) scale(0.100000,-0.100000)"
fill="#000000" stroke="none">
<path d="M485 950 c-7 -12 -3 -20 42 -81 19 -25 45 -72 58 -103 l23 -58 -46 6
c-43 5 -260 9 -404 7 -60 -1 -78 -12 -57 -37 10 -12 34 -15 108 -14 53 0 112
-2 131 -4 19 -3 91 -10 160 -16 184 -16 220 -21 220 -31 0 -16 -165 -88 -309
-135 -9 -3 -11 -8 -5 -14 18 -17 189 37 254 80 14 10 35 20 47 24 11 4 27 13
33 21 19 23 52 17 90 -16 77 -65 151 -119 165 -119 28 0 14 -25 -37 -67 -54
-45 -129 -73 -192 -73 -44 0 -47 -15 -6 -24 35 -6 101 7 174 36 70 28 137 48
164 48 22 0 41 -9 115 -59 21 -13 60 -33 85 -42 174 -66 220 -80 242 -76 15 3
48 -6 85 -24 57 -27 125 -47 190 -54 17 -2 50 -7 75 -10 82 -13 95 -12 95 10
1 11 4 25 7 30 4 6 5 28 2 50 -4 43 -1 52 39 134 39 80 34 82 -132 75 -191 -8
-319 16 -549 105 -30 11 -77 25 -105 31 l-52 10 -3 69 c-2 58 -9 80 -40 136
-38 69 -51 81 -77 72 -12 -5 -10 -16 11 -67 14 -34 29 -69 34 -78 14 -27 40
-115 36 -120 -3 -2 -26 3 -53 12 -86 27 -319 87 -396 100 -23 4 -40 14 -43 24
-3 9 -19 45 -35 79 -16 35 -29 65 -29 68 0 4 -19 29 -42 56 -40 48 -61 59 -73
39z m488 -392 c58 -31 231 -86 302 -95 22 -3 49 -12 60 -19 28 -18 170 -64
200 -64 13 0 36 -5 52 -11 17 -7 95 -11 202 -11 l173 1 -7 -37 c-4 -20 -11
-42 -15 -47 -5 -6 -10 -28 -12 -49 -1 -21 -7 -40 -14 -43 -6 -2 -47 0 -90 6
-60 7 -121 27 -242 75 -89 37 -167 66 -174 66 -14 0 -448 217 -462 231 -14 13
1 11 27 -3z m72 -148 c-3 -5 -12 -10 -18 -10 -7 0 -6 4 3 10 19 12 23 12 15 0z
m220 -70 c3 -5 2 -10 -4 -10 -5 0 -13 5 -16 10 -3 6 -2 10 4 10 5 0 13 -4 16
-10z"/>
</g>
</svg>
