<?xml version="1.0" standalone="no"?>
<!DOCTYPE svg PUBLIC "-//W3C//DTD SVG 20010904//EN"
 "http://www.w3.org/TR/2001/REC-SVG-20010904/DTD/svg10.dtd">
<svg version="1.0" xmlns="http://www.w3.org/2000/svg"
 width="270.000000pt" height="163.000000pt" viewBox="0 0 270.000000 163.000000"
 preserveAspectRatio="xMidYMid meet">
<metadata>
Created by potrace 1.16, written by Peter Selinger 2001-2019
</metadata>
<g transform="translate(0.000000,163.000000) scale(0.100000,-0.100000)"
fill="#000000" stroke="none">
<path d="M887 1391 c-15 -22 -40 -50 -57 -62 -16 -13 -30 -30 -30 -38 0 -9
-21 -35 -48 -57 -26 -23 -94 -99 -152 -170 -58 -71 -130 -153 -161 -182 l-56
-53 -98 26 c-148 40 -161 28 -157 -145 1 -57 -2 -118 -7 -135 -15 -57 8 -71
57 -36 51 37 223 81 377 96 33 3 87 10 120 15 33 5 101 11 150 15 50 3 102 9
118 11 20 4 27 2 27 -10 0 -21 27 -20 38 1 9 15 38 17 257 20 144 2 255 8 267
14 10 6 27 9 36 7 23 -5 -120 -154 -166 -174 -44 -18 -41 -48 6 -51 18 -1 54
-11 79 -23 58 -27 76 -21 68 22 -4 25 3 50 30 106 19 41 33 77 30 82 -2 4 4
15 14 24 18 16 20 14 55 -48 20 -35 36 -68 36 -73 0 -4 17 -21 38 -38 103 -82
214 -191 251 -246 23 -34 41 -65 41 -69 0 -4 7 -13 15 -20 14 -12 13 -16 -6
-36 -12 -13 -19 -30 -16 -38 8 -20 21 -20 37 -1 7 8 20 15 29 15 22 0 41 19
34 35 -5 16 21 69 53 108 13 16 24 34 24 40 0 7 27 50 60 97 33 47 79 112 102
145 23 33 75 93 116 133 40 41 71 79 69 85 -2 7 -33 16 -68 20 -48 6 -68 13
-81 30 -10 12 -18 27 -18 33 0 5 -8 28 -19 50 -10 21 -24 64 -31 94 -8 30 -31
93 -53 140 -31 68 -40 101 -44 163 -6 85 -22 107 -49 68 -22 -31 -77 -81 -90
-81 -13 0 -56 -60 -112 -155 -62 -104 -54 -98 -88 -80 -29 15 -63 21 -51 8 4
-3 2 -12 -4 -20 -16 -18 6 -43 38 -43 l25 0 -32 -40 c-17 -22 -42 -59 -54 -82
-12 -24 -47 -62 -77 -86 -30 -23 -60 -47 -66 -53 -31 -25 -6 13 63 95 41 49
73 94 71 100 -8 24 -28 13 -66 -36 -22 -29 -54 -69 -70 -88 -28 -33 -31 -34
-47 -18 -13 12 -14 21 -7 30 11 13 63 177 63 197 0 23 -38 9 -130 -47 -69 -41
-95 -62 -95 -77 0 -16 7 -20 30 -20 23 0 33 -7 44 -30 8 -16 25 -43 38 -59 13
-16 22 -30 20 -33 -2 -2 -71 1 -153 6 -82 5 -186 7 -231 6 -55 -3 -84 0 -91 8
-12 16 -52 130 -52 149 0 8 -17 46 -37 84 -30 57 -38 83 -44 154 -5 63 -14 98
-33 135 -18 33 -26 62 -24 85 4 50 -22 51 -55 1z m43 -114 c32 -69 41 -129 16
-108 -8 7 -31 36 -52 66 -36 53 -36 55 -20 80 9 14 19 25 21 25 3 0 19 -29 35
-63z m1327 -156 c6 -3 16 -17 22 -31 9 -18 3 -14 -21 13 -18 21 -55 60 -81 88
l-49 51 33 34 33 34 27 -91 c15 -50 31 -94 36 -98z m-1394 84 c16 -25 39 -53
51 -63 36 -27 115 -201 116 -252 0 -8 11 -36 25 -62 14 -26 25 -50 25 -53 0
-3 -29 -5 -64 -5 l-63 0 -21 106 c-13 67 -19 127 -16 165 4 51 3 59 -12 59
-10 0 -84 -67 -165 -150 l-146 -150 -47 6 c-25 4 -46 8 -46 9 0 1 37 58 83
127 45 68 87 131 92 140 38 58 55 78 99 120 28 26 53 48 56 48 3 0 18 -20 33
-45z m1256 -93 c-39 -2 -74 -1 -76 2 -5 4 20 54 41 83 6 9 22 0 58 -35 l49
-47 -72 -3z m119 -66 c17 -24 32 -46 32 -51 0 -4 11 -20 25 -37 14 -16 25 -38
25 -48 0 -11 10 -29 23 -40 20 -19 20 -23 6 -33 -9 -7 -33 -65 -54 -129 -38
-116 -39 -118 -69 -119 -17 0 -40 -2 -51 -5 -11 -2 -49 -4 -84 -6 -43 -1 -65
-6 -68 -15 -11 -28 12 -35 68 -24 73 15 149 19 149 9 0 -5 -6 -24 -14 -42
l-14 -34 -73 -1 c-48 0 -76 4 -81 12 -11 18 -43 -17 -34 -39 6 -14 17 -16 92
-11 93 6 87 12 68 -53 -3 -11 -11 -19 -17 -17 -7 1 -11 -6 -10 -16 0 -10 -2
-16 -5 -13 -3 3 -11 1 -18 -5 -10 -8 -11 -16 -4 -29 7 -12 5 -27 -6 -50 l-16
-32 -32 54 -32 53 43 5 c60 7 57 23 -7 33 -30 4 -57 12 -61 19 -7 11 -30 118
-34 153 -1 11 -5 38 -9 61 l-7 41 101 13 c108 13 155 18 183 19 9 1 17 8 17
17 0 15 -12 16 -107 10 -60 -4 -126 -11 -148 -16 -22 -5 -43 -10 -47 -10 -13
0 -9 48 3 56 24 14 146 32 226 32 84 1 108 6 98 23 -7 11 -168 11 -272 1 -64
-7 -76 -12 -104 -40 -18 -18 -33 -31 -35 -29 -3 3 76 199 95 235 9 17 26 22
93 28 46 4 89 7 95 6 7 -2 22 2 34 9 35 19 4 28 -78 22 -62 -4 -74 -2 -79 12
-6 14 -9 14 -16 3 -7 -9 -8 -8 -4 5 3 10 6 23 6 28 0 5 24 10 53 10 28 1 66 5
82 9 17 4 32 8 35 9 3 0 20 -19 38 -43z m-1355 -146 l7 -35 -22 30 c-13 16
-33 39 -45 52 -16 17 -18 24 -9 32 7 6 15 9 18 6 3 -3 11 2 19 11 13 15 15 13
20 -22 3 -21 9 -55 12 -74z m1041 14 c-15 -32 -40 -87 -55 -122 -16 -35 -29
-67 -29 -72 0 -9 -46 6 -64 21 -5 4 5 19 22 33 16 15 45 50 63 79 55 88 82
128 86 124 2 -2 -9 -31 -23 -63z m-294 34 c0 -7 -6 -32 -13 -55 l-12 -42 -23
39 -22 39 27 15 c35 19 43 19 43 4z m-823 -44 c10 -14 35 -46 56 -71 21 -25
36 -47 34 -49 -2 -3 -43 -1 -90 2 l-85 7 14 40 c8 22 14 49 14 62 0 43 30 48
57 9z m-321 -49 c-15 -19 -34 -35 -44 -35 -11 0 -5 12 23 40 46 47 59 45 21
-5z m200 -40 c-10 -15 -22 -22 -31 -19 -11 5 -9 12 13 34 31 31 42 22 18 -15z
m-368 -19 c3 -3 -5 -14 -18 -24 l-23 -18 27 -22 c34 -26 134 -64 147 -56 6 3
7 18 4 34 -8 35 14 59 49 53 14 -3 26 -12 26 -20 0 -8 18 -22 40 -31 22 -9 40
-20 40 -23 0 -3 -55 -14 -122 -23 -67 -10 -159 -28 -205 -41 -45 -12 -85 -20
-88 -17 -2 2 -2 23 1 46 3 22 7 64 9 91 1 28 3 53 4 57 3 16 91 11 109 -6z
m112 -20 c0 -17 -15 -36 -29 -36 -24 0 -45 16 -37 29 7 10 66 16 66 7z m2011
-11 l54 -7 -40 -41 c-22 -23 -56 -65 -75 -93 -91 -133 -143 -204 -147 -200 -2
2 8 32 22 67 14 35 39 102 55 149 43 130 49 143 64 137 7 -3 37 -8 67 -12z
m-1799 -27 c-6 -6 -15 -8 -19 -4 -4 4 -1 11 7 16 19 12 27 3 12 -12z m292 -4
c36 -14 10 -21 -91 -27 -60 -4 -126 -10 -147 -13 l-39 -7 19 33 19 32 112 -6
c61 -3 118 -9 127 -12z m146 -4 c8 -2 -5 -6 -30 -9 -49 -7 -75 -2 -44 9 18 7
38 6 74 0z m393 3 c3 -5 -73 -8 -168 -8 -95 0 -171 3 -169 7 6 9 331 10 337 1z
m255 -32 c9 -6 29 -12 45 -16 15 -3 27 -9 27 -14 0 -8 -62 -35 -64 -29 -1 2
-9 18 -18 36 -18 34 -17 37 10 23z m196 -78 c3 -27 12 -81 19 -120 7 -40 10
-73 7 -73 -8 0 -132 110 -143 127 -4 7 -14 19 -22 27 -13 13 -12 16 7 22 13 4
28 8 34 8 7 1 24 13 39 29 39 38 51 34 59 -20z m-395 -64 c-6 -19 -12 -40 -15
-46 -2 -10 -9 -10 -29 -1 l-26 12 38 38 c20 21 38 36 40 34 2 -1 -2 -18 -8
-37z"/>
<path d="M1963 883 c-12 -30 9 -34 135 -27 118 6 166 16 131 28 -8 3 -70 6
-138 8 -89 2 -125 0 -128 -9z"/>
</g>
</svg>
