<?xml version="1.0" standalone="no"?>
<!DOCTYPE svg PUBLIC "-//W3C//DTD SVG 20010904//EN"
 "http://www.w3.org/TR/2001/REC-SVG-20010904/DTD/svg10.dtd">
<svg version="1.0" xmlns="http://www.w3.org/2000/svg"
 width="306.000000pt" height="127.000000pt" viewBox="0 0 306.000000 127.000000"
 preserveAspectRatio="xMidYMid meet">
<metadata>
Created by potrace 1.16, written by Peter Selinger 2001-2019
</metadata>
<g transform="translate(0.000000,127.000000) scale(0.100000,-0.100000)"
fill="#000000" stroke="none">
<path d="M1985 1138 c-100 -101 -197 -178 -294 -232 -54 -31 -65 -34 -75 -22
-9 13 -59 16 -297 18 -190 2 -291 7 -300 14 -8 6 -32 12 -54 13 -22 1 -66 5
-97 9 -50 8 -61 6 -79 -11 -16 -15 -19 -27 -15 -56 11 -67 15 -176 8 -187 -12
-20 -67 -27 -81 -10 -9 11 -35 15 -99 15 -116 0 -210 21 -271 60 -27 18 -55
39 -61 47 -20 23 -40 16 -56 -21 -8 -19 -13 -38 -12 -42 1 -5 -5 -30 -14 -58
-21 -61 -31 -205 -16 -222 17 -21 31 -16 94 33 32 26 79 55 104 66 25 11 54
23 65 28 66 28 180 53 258 56 l88 3 -2 -127 c0 -70 2 -140 6 -155 9 -33 29
-31 33 5 3 22 10 26 70 36 37 6 89 16 116 22 27 5 51 8 53 6 2 -2 5 -51 7
-109 4 -107 9 -131 29 -124 7 2 10 23 8 54 -1 30 6 79 19 121 l21 70 47 6 c26
3 103 6 172 6 l126 0 -7 -87 c-7 -87 -4 -113 12 -113 11 0 10 -5 13 90 2 78
11 120 26 120 5 0 15 6 23 14 12 12 21 12 69 -4 30 -10 72 -27 94 -38 21 -10
51 -22 66 -26 14 -3 48 -16 75 -28 61 -27 168 -66 211 -78 19 -4 44 -18 56
-29 12 -12 27 -21 34 -21 9 0 78 68 169 164 6 7 35 28 65 47 29 18 55 36 58
40 9 10 181 133 271 191 47 31 112 65 144 76 33 10 61 24 63 30 6 18 -71 67
-142 91 -37 12 -90 35 -119 51 -60 33 -293 150 -417 209 -47 22 -98 49 -115
61 -16 11 -37 20 -45 19 -8 0 -55 -41 -105 -91z m285 -34 c80 -39 163 -80 184
-90 22 -10 34 -20 28 -22 -6 -2 -23 3 -39 11 -15 8 -59 24 -98 37 -38 12 -74
26 -79 31 -6 5 -17 9 -26 9 -19 0 -140 46 -152 58 -4 4 -5 17 -2 29 7 25 -9
31 184 -63z m-114 -23 c126 -42 383 -140 493 -189 51 -23 107 -42 123 -42 16
0 43 -7 60 -16 l30 -16 -83 -50 c-46 -28 -87 -55 -90 -60 -3 -5 -8 -9 -10 -8
-8 4 -59 -24 -59 -32 0 -4 -4 -7 -8 -6 -5 2 -33 -13 -63 -32 -30 -19 -56 -34
-59 -33 -3 0 -17 -8 -32 -18 -14 -10 -33 -19 -41 -19 -8 0 -20 -7 -27 -15 -13
-16 -133 -87 -225 -132 -92 -46 -107 -48 -157 -14 -24 16 -53 32 -66 36 -40
12 -252 142 -294 179 -48 43 -58 44 -80 9 -22 -35 -23 -17 -3 30 8 20 15 59
15 87 0 27 2 50 5 50 2 0 31 -27 64 -60 33 -33 64 -60 69 -60 5 0 15 14 22 30
20 49 164 259 255 373 18 22 39 37 51 37 12 0 61 -13 110 -29z m-261 -91 c-3
-6 -34 -47 -69 -93 -35 -46 -73 -102 -86 -125 -13 -23 -27 -42 -32 -42 -8 0
-54 68 -64 94 -3 8 26 33 76 65 44 28 84 51 88 51 4 0 25 14 46 30 42 32 51
36 41 20z m-981 -121 c11 -10 -22 -78 -41 -86 -6 -2 -14 -19 -17 -38 -4 -18
-12 -38 -19 -44 -11 -8 -14 2 -15 52 -1 34 -4 79 -8 101 l-6 39 48 -8 c27 -3
53 -11 58 -16z m496 -18 c0 -4 -8 -7 -17 -8 -25 -2 -170 -21 -218 -28 -143
-21 -174 -25 -208 -25 l-38 0 25 33 25 32 215 1 c119 1 216 -2 216 -5z m63 2
c-7 -2 -21 -2 -30 0 -10 3 -4 5 12 5 17 0 24 -2 18 -5z m79 -50 c-6 -10 -16
-57 -23 -103 -13 -81 -14 -83 -19 -40 -3 25 -3 71 -2 103 3 49 7 60 25 66 25
10 32 0 19 -26z m-71 -147 c0 -88 -3 -161 -5 -163 -2 -3 -74 -7 -160 -10 -114
-4 -156 -3 -156 6 0 19 57 139 80 168 30 39 25 48 -30 50 -28 1 -66 6 -84 11
-18 6 -38 7 -43 3 -15 -9 -25 -48 -15 -54 4 -3 5 -39 1 -79 -4 -40 -8 -80 -8
-90 -1 -14 -13 -16 -91 -13 -49 2 -104 9 -120 17 -30 13 -30 13 -24 73 5 45
16 73 41 110 19 28 40 53 46 56 7 3 48 12 92 19 44 7 89 14 100 16 95 18 317
43 359 40 17 -1 18 -12 17 -160z m-1181 41 c19 -7 41 -16 48 -20 6 -5 16 -5
22 -2 5 3 18 1 28 -4 10 -5 47 -11 82 -12 56 -2 61 -4 44 -16 -12 -9 -33 -13
-58 -9 -40 5 -91 -16 -191 -78 -22 -13 -43 -22 -47 -20 -13 8 -9 78 8 127 18
52 16 51 64 34z m910 -32 c0 -6 -4 -15 -9 -21 -5 -5 -24 -44 -41 -86 -24 -56
-38 -78 -51 -78 -23 0 -26 26 -15 123 l10 78 53 -3 c29 -2 53 -8 53 -13z m483
-124 c45 -32 125 -82 177 -111 93 -51 137 -81 95 -65 -11 4 -32 11 -46 15 -14
4 -34 12 -45 18 -10 6 -48 22 -84 35 -36 14 -90 36 -120 49 -93 42 -118 50
-130 43 -5 -3 -7 -11 -4 -17 4 -7 2 -8 -4 -4 -8 5 -9 13 -2 26 9 17 67 70 77
70 2 0 41 -27 86 -59z m787 15 c0 -2 -24 -21 -52 -42 -29 -21 -67 -49 -84 -63
-17 -15 -40 -33 -50 -41 -11 -8 -42 -34 -71 -57 -58 -49 -64 -50 -80 -24 -10
15 -9 22 5 33 37 31 313 196 330 198 1 0 2 -2 2 -4z m-1540 -105 c-23 -13
-120 -23 -120 -13 0 16 11 19 73 20 37 0 56 -2 47 -7z m170 -23 c0 -7 -5 -20
-10 -28 -8 -12 -10 -9 -10 13 0 15 5 27 10 27 6 0 10 -6 10 -12z"/>
</g>
</svg>
