<?xml version="1.0" standalone="no"?>
<!DOCTYPE svg PUBLIC "-//W3C//DTD SVG 20010904//EN"
 "http://www.w3.org/TR/2001/REC-SVG-20010904/DTD/svg10.dtd">
<svg version="1.0" xmlns="http://www.w3.org/2000/svg"
 width="257.000000pt" height="142.000000pt" viewBox="0 0 257.000000 142.000000"
 preserveAspectRatio="xMidYMid meet">
<metadata>
Created by potrace 1.16, written by Peter Selinger 2001-2019
</metadata>
<g transform="translate(0.000000,142.000000) scale(0.100000,-0.100000)"
fill="#000000" stroke="none">
<path d="M1720 1272 c0 -5 -15 -30 -34 -56 l-33 -47 -25 23 c-14 13 -30 33
-37 46 -13 25 -38 28 -66 8 -16 -12 -17 -17 -6 -45 8 -17 18 -31 23 -31 5 0 4
-9 -2 -20 -6 -11 -17 -20 -25 -20 -8 0 -15 -4 -15 -10 0 -5 -9 -10 -20 -10
-22 0 -28 -28 -10 -46 7 -7 8 -25 1 -55 -5 -24 -12 -70 -16 -101 l-6 -58 -50
0 c-48 0 -109 -22 -109 -39 0 -18 38 -39 85 -45 27 -3 52 -10 56 -14 4 -4 3
-41 -2 -82 -22 -180 -22 -233 0 -267 24 -38 75 -53 99 -29 14 14 14 18 -8 41
-13 14 -22 27 -19 29 5 5 69 -51 69 -61 0 -4 -30 -38 -67 -75 -56 -57 -64 -69
-54 -82 17 -20 34 -11 118 65 53 48 72 59 90 55 75 -19 73 -19 73 3 0 11 -12
28 -26 37 l-26 17 34 11 c26 9 33 17 33 36 0 14 -4 31 -9 37 -4 7 -6 27 -3 45
4 18 9 60 12 93 12 133 15 143 38 149 12 3 66 6 119 6 l98 0 6 -27 c5 -25 26
-85 69 -203 7 -19 21 -64 30 -100 10 -36 23 -85 30 -110 27 -98 34 -138 29
-173 -5 -43 11 -55 70 -51 53 3 65 17 44 54 -16 29 -16 31 19 102 19 40 36 80
38 89 2 9 8 25 14 35 5 11 31 66 56 123 131 292 140 320 113 337 -13 8 -230 7
-283 -1 -16 -2 -130 -7 -253 -11 l-224 -7 6 59 c3 32 8 107 12 167 6 95 5 107
-10 107 -9 0 -16 -4 -16 -9 0 -5 -9 -11 -21 -14 -16 -4 -19 -11 -14 -26 5 -16
3 -20 -9 -15 -9 3 -16 8 -16 10 0 2 20 30 45 63 54 71 59 101 15 101 -16 0
-30 -4 -30 -8z m-115 -152 c4 -6 -5 -24 -20 -42 l-26 -31 6 29 c11 47 14 54
24 54 5 0 13 -5 16 -10z m99 -89 c-1 -14 -4 -33 -7 -41 -3 -8 -10 -46 -16 -84
-5 -37 -12 -71 -15 -73 -3 -3 -31 -1 -63 3 -55 8 -58 11 -61 39 -2 16 -1 53 3
81 5 44 9 51 25 47 12 -3 31 8 57 34 31 31 42 36 58 29 13 -6 20 -18 19 -35z
m746 -240 c0 -11 -7 -32 -15 -48 -19 -35 -75 -161 -75 -167 0 -2 -22 -51 -48
-108 -27 -56 -55 -119 -64 -138 l-16 -35 -7 50 c-4 28 -14 62 -21 77 -8 15
-22 63 -30 105 -9 43 -33 117 -54 166 -21 48 -34 90 -28 93 5 3 64 8 131 11
67 3 124 7 126 9 2 2 26 4 53 4 41 0 48 -3 48 -19z m-781 -95 c-1 -91 -22
-239 -35 -243 -6 -2 -28 10 -48 27 -30 23 -42 27 -56 20 -10 -6 -23 -10 -27
-10 -9 0 10 206 22 248 7 21 13 22 76 21 l69 -2 -1 -61z"/>
<path d="M169 881 c-23 -18 -23 -20 -6 -39 26 -28 98 -44 200 -43 84 0 88 -1
82 -20 -4 -11 2 -43 14 -72 11 -29 46 -124 77 -211 30 -88 60 -169 67 -180 11
-20 12 -25 15 -53 3 -18 33 -16 60 3 14 9 22 26 22 44 0 16 10 41 23 57 12 15
45 62 72 103 28 41 80 115 116 165 121 166 140 197 135 211 -6 15 -22 15 -291
3 -5 -1 -37 2 -70 5 -33 2 -123 8 -200 11 -77 4 -162 13 -189 21 -67 19 -99
18 -127 -5z m747 -131 c-74 -103 -126 -179 -126 -184 0 -12 -132 -196 -141
-196 -5 0 -11 12 -15 27 -10 47 -65 227 -75 245 -5 10 -9 28 -9 40 0 13 -11
43 -25 67 -14 23 -25 45 -25 47 0 2 102 3 226 3 l225 0 -35 -49z"/>
</g>
</svg>
