<?xml version="1.0" standalone="no"?>
<!DOCTYPE svg PUBLIC "-//W3C//DTD SVG 20010904//EN"
 "http://www.w3.org/TR/2001/REC-SVG-20010904/DTD/svg10.dtd">
<svg version="1.0" xmlns="http://www.w3.org/2000/svg"
 width="257.000000pt" height="120.000000pt" viewBox="0 0 257.000000 120.000000"
 preserveAspectRatio="xMidYMid meet">
<metadata>
Created by potrace 1.16, written by Peter Selinger 2001-2019
</metadata>
<g transform="translate(0.000000,120.000000) scale(0.100000,-0.100000)"
fill="#000000" stroke="none">
<path d="M530 980 c-8 -5 -28 -10 -45 -10 -38 0 -50 -9 -58 -41 -6 -22 -3 -28
15 -32 20 -6 21 -10 14 -90 -7 -89 -15 -139 -21 -146 -8 -7 -149 -6 -198 2
-38 7 -51 14 -60 34 -9 21 -16 24 -41 19 -39 -8 -39 -8 -37 -63 5 -176 15
-203 54 -161 13 14 43 32 68 41 66 23 192 57 211 57 25 0 30 -29 19 -106 -5
-38 -12 -112 -15 -165 -5 -78 -3 -99 8 -109 23 -18 38 -2 31 32 -6 23 -4 29 6
26 8 -3 15 -18 17 -35 2 -17 9 -33 15 -36 7 -3 62 15 122 40 61 24 117 45 125
47 9 2 32 13 53 25 20 11 116 43 214 71 98 28 241 72 318 96 146 48 151 49
280 95 174 61 199 69 215 69 11 0 37 -41 79 -122 35 -68 80 -143 100 -168 21
-25 46 -58 57 -74 19 -30 20 -73 3 -90 -13 -14 -11 -36 4 -36 6 0 27 30 45 68
17 37 53 99 78 137 60 93 96 164 89 175 -4 6 -2 10 3 10 5 0 23 28 40 63 17
34 53 104 81 155 47 88 49 93 30 102 -11 6 -24 8 -30 5 -5 -4 -16 -2 -23 4 -8
7 -23 7 -44 1 -18 -5 -32 -5 -32 -1 0 4 -12 12 -27 17 -25 10 -21 11 41 19 69
8 69 8 46 25 -21 16 -44 18 -214 15 -105 -2 -274 -9 -376 -15 -246 -16 -675
-13 -931 6 -42 3 -116 7 -164 9 -71 4 -93 9 -110 25 -24 22 -33 24 -55 10z
m-6 -101 c0 -68 -13 -210 -20 -220 -3 -5 -10 -9 -16 -9 -11 0 -4 253 8 271 13
22 29 0 28 -42z m656 15 c145 -6 200 -11 207 -18 6 -5 -20 -10 -39 -7 -8 1
-228 -16 -318 -25 -30 -2 -95 -9 -145 -14 -181 -19 -305 -23 -305 -11 0 6 6
30 13 52 l12 41 235 -7 c129 -3 282 -8 340 -11z m830 -26 c239 -1 287 -10 274
-51 -67 -224 -153 -489 -164 -507 -8 -12 -16 -8 -44 25 -51 59 -88 197 -88
325 1 62 -2 80 -13 80 -8 0 -17 -5 -21 -11 -3 -6 -27 -20 -53 -31 -25 -10 -59
-26 -76 -33 -112 -52 -220 -86 -395 -125 -47 -10 -141 -32 -210 -50 -69 -17
-163 -39 -210 -50 -47 -10 -114 -25 -149 -34 l-63 -15 5 22 c11 47 81 204 109
246 16 24 26 47 21 51 -12 12 -159 18 -177 8 -9 -5 -13 -14 -9 -21 4 -7 7 -80
8 -163 l0 -150 -110 -22 c-155 -32 -155 -32 -155 22 0 44 37 235 65 332 l15
51 82 11 c46 6 126 16 178 22 52 6 124 15 159 20 35 5 67 7 71 5 4 -2 56 0
116 5 60 5 143 12 184 15 41 4 137 12 213 18 76 7 157 11 180 9 23 -2 139 -3
257 -4z m407 -42 c2 -2 -34 -80 -81 -174 -48 -93 -86 -172 -86 -175 0 -3 -16
-29 -35 -58 -42 -64 -44 -49 -9 46 15 39 33 95 40 125 34 143 64 223 91 240
16 9 70 6 80 -4z m-1537 -144 c0 -4 -4 -12 -9 -18 -6 -5 -26 -49 -45 -99 l-35
-90 -1 46 c0 25 3 74 6 108 l7 61 38 0 c22 0 39 -4 39 -8z m1085 -163 c5 -8 5
-11 0 -7 -17 16 -51 83 -61 122 -4 17 0 25 18 33 23 10 23 9 29 -62 4 -40 10
-79 14 -86z m-1731 112 c33 -6 80 -12 105 -12 25 -1 37 -3 26 -6 -11 -3 -62
-18 -113 -35 -51 -17 -95 -28 -97 -26 -3 2 -7 31 -11 64 -7 57 -6 59 12 42 10
-9 46 -21 78 -27z m941 -181 c-11 -5 -27 -9 -35 -9 -9 0 -8 4 5 9 11 5 27 9
35 9 9 0 8 -4 -5 -9z m-90 -27 c-97 -38 -286 -90 -291 -81 -13 21 25 38 136
62 63 14 124 27 135 29 46 10 57 5 20 -10z m-325 -86 c0 -16 -9 -26 -32 -36
-65 -26 -163 -61 -173 -61 -10 0 -41 59 -34 64 4 2 215 53 232 55 4 1 7 -9 7
-22z"/>
</g>
</svg>
