<?xml version="1.0" standalone="no"?>
<!DOCTYPE svg PUBLIC "-//W3C//DTD SVG 20010904//EN"
 "http://www.w3.org/TR/2001/REC-SVG-20010904/DTD/svg10.dtd">
<svg version="1.0" xmlns="http://www.w3.org/2000/svg"
 width="236.000000pt" height="120.000000pt" viewBox="0 0 236.000000 120.000000"
 preserveAspectRatio="xMidYMid meet">
<metadata>
Created by potrace 1.16, written by Peter Selinger 2001-2019
</metadata>
<g transform="translate(0.000000,120.000000) scale(0.100000,-0.100000)"
fill="#000000" stroke="none">
<path d="M1273 1137 c-23 -18 -42 -37 -43 -43 0 -6 -9 -19 -21 -30 -12 -10
-40 -48 -64 -84 -23 -36 -68 -94 -99 -130 l-57 -64 -87 3 c-161 5 -267 10
-317 15 -27 3 -102 8 -165 11 -63 3 -129 8 -146 11 -43 8 -61 -24 -68 -117 -2
-41 -7 -105 -11 -144 -5 -54 -3 -74 8 -90 13 -16 17 -17 31 -6 9 7 16 19 16
26 0 7 7 15 15 19 44 17 497 72 530 64 9 -2 -6 -24 -42 -63 -30 -33 -80 -91
-111 -130 -80 -99 -171 -187 -223 -216 -52 -29 -62 -54 -24 -63 22 -6 33 1 77
49 28 31 72 70 97 88 25 17 57 42 71 55 14 13 50 37 80 53 30 16 82 45 115 64
33 18 76 41 95 51 19 10 46 25 60 35 137 91 187 116 235 118 28 0 88 6 135 12
126 15 136 16 242 29 54 6 110 15 125 19 16 4 55 9 88 10 33 1 116 7 185 13
69 6 144 11 168 10 33 -2 42 1 42 14 0 14 -12 16 -97 11 -54 -3 -109 -9 -123
-13 -21 -5 -23 -4 -12 7 26 28 15 42 -29 35 -43 -7 -315 -8 -409 -1 -30 2 -76
4 -101 4 -66 1 -59 24 20 71 36 22 79 51 95 65 l30 25 -40 41 c-21 22 -64 59
-94 82 -30 23 -59 48 -64 56 -12 19 -57 61 -65 60 -3 0 -25 -15 -48 -32z m80
-72 c26 -25 54 -45 61 -45 8 0 16 -7 20 -15 3 -8 12 -15 21 -15 8 0 15 -4 15
-8 0 -5 16 -20 35 -34 41 -29 48 -21 -90 -112 -111 -74 -98 -71 -304 -57 l-94
6 65 70 c36 39 76 88 90 110 28 45 116 145 127 145 4 0 29 -20 54 -45z m-793
-291 c25 -3 124 -11 221 -18 l177 -11 -59 -64 c-33 -36 -69 -65 -82 -66 -12
-2 -68 -8 -125 -15 -57 -6 -109 -13 -115 -15 -7 -2 -66 -9 -132 -15 -66 -6
-137 -13 -158 -16 l-39 -6 7 88 c10 143 10 142 58 146 56 4 191 0 247 -8z
m708 -38 c1 -2 -24 -24 -57 -50 -58 -43 -66 -46 -148 -55 -116 -12 -175 -13
-171 -3 2 5 26 35 53 66 l50 57 134 -6 c74 -3 137 -7 139 -9z m566 -8 c55 0
31 -16 -29 -19 -27 -1 -59 -6 -70 -10 -11 -4 -52 -10 -90 -13 -227 -20 -292
-26 -310 -30 -12 -2 -48 -7 -80 -11 -56 -6 -59 -5 -40 10 11 8 32 27 48 41 15
14 39 29 55 34 15 4 128 5 252 3 124 -2 242 -5 264 -5z m-744 -139 c-28 -22
-94 -61 -285 -169 -71 -40 -146 -85 -164 -99 -42 -32 100 147 177 222 l49 48
89 8 c49 5 105 9 124 9 l35 2 -25 -21z"/>
</g>
</svg>
