<?xml version="1.0" standalone="no"?>
<!DOCTYPE svg PUBLIC "-//W3C//DTD SVG 20010904//EN"
 "http://www.w3.org/TR/2001/REC-SVG-20010904/DTD/svg10.dtd">
<svg version="1.0" xmlns="http://www.w3.org/2000/svg"
 width="250.000000pt" height="210.000000pt" viewBox="0 0 250.000000 210.000000"
 preserveAspectRatio="xMidYMid meet">
<metadata>
Created by potrace 1.16, written by Peter Selinger 2001-2019
</metadata>
<g transform="translate(0.000000,210.000000) scale(0.100000,-0.100000)"
fill="#000000" stroke="none">
<path d="M1145 1793 c-62 -45 -127 -111 -120 -123 3 -5 1 -10 -5 -10 -8 0 -10
-9 -6 -24 4 -18 -14 -50 -85 -152 -50 -71 -108 -147 -128 -169 -53 -56 -83
-102 -80 -122 4 -25 -41 -90 -73 -106 -19 -9 -49 -11 -110 -6 -130 12 -387 14
-398 3 -6 -6 -6 -24 1 -49 7 -26 9 -86 4 -172 l-6 -132 26 -17 c21 -14 30 -15
48 -5 42 22 93 31 208 37 112 6 116 6 122 -15 3 -11 13 -21 22 -21 22 0 155
-117 155 -136 0 -8 4 -13 8 -11 9 2 75 -67 140 -148 22 -27 63 -77 91 -110 28
-33 53 -75 57 -92 4 -23 12 -33 25 -33 11 0 19 -4 19 -10 0 -5 5 -10 11 -10 6
0 9 7 5 15 -14 37 55 -10 79 -53 8 -15 34 -49 57 -75 l43 -48 33 17 c28 14 33
21 29 42 -3 18 2 35 16 53 12 15 40 53 62 84 22 32 65 90 95 129 30 39 62 80
70 92 46 64 136 181 152 197 10 10 43 53 72 95 69 98 100 132 123 132 13 0 14
3 5 8 -18 12 32 56 66 57 19 0 28 6 30 20 2 11 11 26 20 33 26 20 23 43 -8 53
-16 6 -62 47 -103 92 -59 64 -85 86 -123 99 -41 14 -76 44 -209 180 -196 200
-310 326 -350 386 -16 25 -35 47 -41 49 -5 2 -28 -9 -49 -24z m115 -109 c30
-36 137 -148 238 -250 178 -180 220 -228 145 -165 -50 42 -54 44 -88 67 -17
10 -73 51 -125 90 -52 39 -148 106 -213 148 -81 53 -117 82 -115 93 3 14 82
80 98 82 3 1 30 -29 60 -65z m-147 -95 c12 -7 44 -26 71 -43 l49 -31 -49 -7
c-27 -3 -79 -7 -116 -7 l-68 -1 10 25 c27 70 56 88 103 64z m196 -125 c63 -42
71 -48 71 -54 0 -7 -417 -6 -425 1 -3 4 4 22 15 42 l21 35 141 0 c132 0 143
-2 177 -24z m-445 -153 c-42 -82 -46 -95 -35 -118 10 -21 9 -25 -3 -20 -10 4
-13 1 -9 -8 3 -8 -9 -37 -26 -63 -28 -45 -33 -48 -66 -44 -44 5 -49 14 -25 40
11 12 20 24 20 28 0 3 9 17 19 30 11 13 17 33 14 43 -3 12 9 34 34 62 21 24
41 45 45 47 4 2 21 26 39 53 49 77 46 51 -7 -50z m600 44 l40 -30 -55 -6 c-30
-3 -110 -4 -179 -3 -73 1 -115 -1 -100 -6 14 -4 93 -8 177 -9 97 -1 154 -5
159 -12 3 -6 16 -8 28 -5 14 3 37 -5 66 -24 l45 -30 -50 0 c-65 0 -155 -11
-155 -19 0 -3 51 -5 112 -4 143 2 197 -13 263 -70 l49 -43 -124 2 c-122 3
-146 5 -305 24 -44 5 -165 12 -270 15 -269 8 -319 13 -304 31 9 11 8 18 -2 30
-12 14 2 15 153 12 91 -1 164 0 162 3 -2 4 -57 10 -121 13 -65 4 -135 9 -155
12 l-37 6 37 73 37 73 245 -2 245 -1 39 -30z m-319 -240 c110 -3 243 -10 295
-16 52 -5 120 -12 150 -14 30 -3 98 -10 150 -17 52 -6 112 -11 133 -12 28 -1
44 -8 58 -25 11 -13 18 -25 16 -27 -2 -2 -26 1 -53 7 -28 7 -103 11 -174 9
-272 -7 -577 1 -603 17 -4 2 -76 6 -159 9 -84 2 -154 6 -156 9 -2 2 4 17 14
34 18 31 45 40 99 35 17 -2 120 -6 230 -9z m-567 -71 c23 -7 22 -8 -23 -54
l-47 -48 37 -12 c21 -7 53 -23 72 -36 18 -12 39 -24 45 -26 16 -6 -27 -63 -57
-76 -13 -6 -67 -12 -121 -13 -55 -1 -139 -8 -188 -15 -49 -7 -93 -11 -98 -8
-4 3 -8 73 -8 156 l0 151 183 -6 c100 -4 192 -10 205 -13z m169 -28 c1 -1 -14
-26 -33 -55 l-36 -53 -24 23 c-14 13 -36 28 -50 34 l-24 10 29 31 c29 31 31
31 83 22 29 -5 54 -11 55 -12z m368 -18 c44 -7 203 -12 355 -12 262 -1 308 -5
294 -27 -3 -5 0 -16 6 -24 9 -11 9 -15 1 -15 -7 0 -67 -9 -134 -20 -299 -50
-323 -54 -442 -65 -33 -3 -91 -10 -130 -15 -224 -29 -343 -21 -329 22 3 9 0
25 -7 35 -9 16 -6 30 20 80 l32 62 127 -5 c70 -3 163 -10 207 -16z m726 -46
c-7 -2 -18 1 -23 6 -8 8 -4 9 13 5 13 -4 18 -8 10 -11z m28 -59 c-27 -35 -34
-38 -79 -37 -75 2 -140 -8 -140 -21 0 -8 23 -11 82 -8 l82 4 -19 -20 c-11 -13
-22 -18 -29 -12 -17 14 -365 14 -382 0 -7 -6 -37 -10 -66 -9 -29 1 -75 2 -103
1 -72 -3 -50 8 41 19 83 10 89 11 249 36 183 28 277 45 298 54 12 5 35 9 51 9
26 1 27 -1 15 -16z m-1159 -93 c0 -5 -8 -10 -17 -10 -15 0 -16 2 -3 10 19 12
20 12 20 0z m948 -15 c73 -6 91 -10 82 -20 -7 -9 -54 -13 -163 -14 -85 -1
-163 -3 -174 -5 -12 -3 -153 -6 -314 -8 -263 -3 -294 -1 -297 13 -2 13 11 17
74 22 107 10 262 9 268 -1 7 -11 309 -7 313 4 4 13 101 17 211 9z m-898 -55
c7 -16 17 -30 22 -30 5 0 7 -4 4 -9 -3 -5 6 -26 20 -47 14 -21 46 -75 71 -121
34 -64 41 -83 29 -83 -9 0 -16 4 -16 8 0 13 -88 113 -183 210 -91 92 -91 102
-6 102 42 0 48 -3 59 -30z m878 -51 c-59 -45 -36 -43 -418 -39 -395 3 -369 1
-388 32 -9 15 -13 31 -8 35 4 4 188 9 409 11 221 2 403 5 405 6 1 2 14 1 27
-2 24 -4 23 -6 -27 -43z m75 -21 c-22 -24 -48 -52 -56 -63 -76 -97 -235 -302
-309 -397 l-90 -118 -37 47 c-20 26 -50 61 -66 79 l-31 32 46 28 c25 16 52 32
61 36 10 3 20 11 23 17 6 9 123 108 288 243 26 21 50 38 54 38 4 0 16 9 28 20
52 51 93 79 111 80 16 0 12 -8 -22 -42z m-191 -75 c-38 -33 -65 -38 -173 -33
-21 1 -40 -3 -44 -9 -4 -7 8 -12 32 -13 21 -1 45 -2 53 -4 8 -1 23 -2 33 -3
13 -1 1 -15 -40 -50 -39 -33 -59 -45 -61 -35 -2 8 -9 14 -15 14 -7 0 -69 2
-138 5 -70 2 -149 1 -177 -4 l-50 -8 -16 35 c-9 19 -16 36 -14 37 2 1 77 5
167 9 90 3 167 8 169 11 6 6 12 6 -191 9 -150 3 -159 4 -173 25 -9 12 -13 29
-10 37 5 14 46 16 346 13 l340 -4 -38 -32z m-234 -160 c23 -9 23 -10 -18 -47
-38 -34 -45 -37 -83 -31 -35 5 -93 10 -187 14 -13 1 -40 43 -40 62 0 16 286
17 328 2z m-115 -102 c14 -5 8 -12 -30 -30 -69 -34 -103 -43 -103 -27 0 7 -9
21 -20 31 -11 10 -20 22 -20 27 0 10 144 9 173 -1z"/>
<path d="M927 1313 c-14 -13 -7 -25 11 -17 9 4 42 10 72 14 l55 7 -66 2 c-36
0 -69 -2 -72 -6z"/>
<path d="M1267 1213 c18 -2 50 -2 70 0 21 2 7 4 -32 4 -38 0 -55 -2 -38 -4z"/>
</g>
</svg>
