<?xml version="1.0" standalone="no"?>
<!DOCTYPE svg PUBLIC "-//W3C//DTD SVG 20010904//EN"
 "http://www.w3.org/TR/2001/REC-SVG-20010904/DTD/svg10.dtd">
<svg version="1.0" xmlns="http://www.w3.org/2000/svg"
 width="148.000000pt" height="86.000000pt" viewBox="0 0 148.000000 86.000000"
 preserveAspectRatio="xMidYMid meet">
<metadata>
Created by potrace 1.16, written by Peter Selinger 2001-2019
</metadata>
<g transform="translate(0.000000,86.000000) scale(0.100000,-0.100000)"
fill="#000000" stroke="none">
<path d="M590 755 c-6 -8 -14 -32 -17 -54 -8 -61 -6 -61 -228 -15 -38 8 -88
23 -110 34 -57 26 -82 32 -105 25 -23 -7 -27 -47 -9 -92 6 -15 11 -67 10 -116
-2 -106 5 -111 80 -67 30 17 61 35 69 40 19 11 215 72 258 81 28 5 32 3 32
-15 0 -12 -5 -37 -11 -56 -6 -19 -12 -73 -14 -118 -2 -46 -7 -88 -12 -93 -13
-13 -191 18 -235 41 -20 11 -48 21 -62 23 -14 1 -34 11 -45 21 -35 32 -53 17
-68 -54 -14 -70 -16 -201 -2 -238 11 -28 42 -28 62 1 16 25 126 87 154 87 10
0 47 14 81 30 98 46 102 44 102 -45 0 -58 4 -77 15 -81 15 -6 23 -1 115 74 28
23 64 45 78 49 15 3 39 14 54 24 14 11 33 19 41 19 9 0 17 5 19 12 3 8 46 8
174 -2 184 -14 254 -11 278 13 22 21 10 27 -53 27 -31 0 -87 5 -125 10 -38 6
-108 11 -155 11 -157 0 -310 33 -334 71 -19 29 95 129 163 143 19 4 52 16 72
26 43 22 116 29 298 30 133 0 210 11 210 29 0 6 -26 10 -57 11 -32 1 -71 2
-88 3 -16 1 -86 6 -155 10 -69 4 -159 16 -200 27 -41 10 -89 19 -106 19 -43 0
-124 29 -124 45 0 7 -7 16 -16 19 -21 8 -20 8 -34 -9z m99 -100 c23 -8 42 -14
44 -13 1 0 28 -2 60 -6 49 -6 56 -10 46 -22 -6 -8 -18 -14 -25 -14 -26 0 -127
-50 -160 -80 -45 -39 -56 -38 -38 5 7 19 14 59 14 90 0 30 4 55 9 55 5 0 27
-7 50 -15z m-434 -25 c26 -11 60 -20 76 -20 39 0 37 -17 -3 -29 -18 -5 -56
-19 -84 -30 l-52 -20 2 59 c0 33 4 60 8 60 3 0 27 -9 53 -20z m0 -324 c20 -14
57 -28 81 -32 52 -8 49 -14 -21 -40 -27 -10 -70 -28 -94 -41 -24 -13 -46 -22
-47 -20 -7 7 -6 73 1 115 9 50 26 54 80 18z m421 8 c27 -9 53 -20 57 -24 5 -5
-13 -20 -40 -35 -26 -15 -61 -36 -76 -47 -16 -11 -30 -18 -33 -16 -7 7 -6 50
2 96 8 48 15 50 90 26z"/>
</g>
</svg>
