<?xml version="1.0" standalone="no"?>
<!DOCTYPE svg PUBLIC "-//W3C//DTD SVG 20010904//EN"
 "http://www.w3.org/TR/2001/REC-SVG-20010904/DTD/svg10.dtd">
<svg version="1.0" xmlns="http://www.w3.org/2000/svg"
 width="302.000000pt" height="136.000000pt" viewBox="0 0 302.000000 136.000000"
 preserveAspectRatio="xMidYMid meet">
<metadata>
Created by potrace 1.16, written by Peter Selinger 2001-2019
</metadata>
<g transform="translate(0.000000,136.000000) scale(0.100000,-0.100000)"
fill="#000000" stroke="none">
<path d="M2711 1120 c0 -125 -4 -166 -13 -168 -7 -2 -58 -52 -114 -110 -56
-58 -106 -102 -111 -99 -14 9 40 218 67 261 25 41 14 59 -38 58 l-40 -1 76 66
c115 99 142 126 142 143 0 9 -3 11 -8 4 -4 -5 -25 -21 -46 -34 -21 -13 -72
-51 -112 -84 -111 -92 -201 -157 -268 -195 -34 -18 -88 -53 -121 -76 -33 -23
-109 -68 -168 -99 l-108 -56 -64 10 c-35 6 -68 9 -72 8 -12 -3 -205 13 -228
19 -11 3 -99 7 -195 8 -180 3 -400 14 -411 21 -8 4 33 140 56 191 8 17 15 38
15 46 0 8 18 42 40 75 22 33 40 65 40 71 0 38 -165 66 -225 39 -24 -11 -33
-32 -17 -41 4 -3 3 -89 -2 -192 l-9 -186 -36 5 c-20 3 -56 8 -81 11 -25 4 -61
10 -80 15 -19 5 -87 14 -150 20 -151 14 -178 19 -184 36 -8 21 -29 17 -45 -8
-25 -40 -39 -116 -34 -179 7 -68 17 -78 63 -59 16 7 30 12 32 12 2 -1 21 3 43
9 53 12 465 24 465 13 -1 -48 -33 -257 -50 -324 -20 -80 -20 -85 -3 -97 37
-28 46 -3 63 167 5 52 16 119 24 148 35 127 10 114 209 112 94 -1 307 2 473 5
l301 6 64 -66 64 -66 28 33 c22 27 27 29 27 13 0 -12 -13 -27 -30 -37 -31 -17
-40 -46 -17 -52 96 -24 433 -177 505 -229 60 -43 257 -157 271 -157 7 0 11 24
11 61 0 33 4 68 9 77 5 10 5 42 -1 78 -6 44 -5 69 3 90 7 16 13 52 14 79 3
177 -2 164 68 179 15 4 27 11 27 17 0 6 -12 10 -27 9 -50 -4 -52 -2 -46 38 8
54 50 217 81 317 13 43 62 147 78 165 33 40 24 44 -93 45 l-111 0 -1 -165z
m149 100 c0 -6 -13 -36 -29 -68 -15 -31 -36 -88 -46 -127 -17 -70 -62 -189
-49 -130 4 17 8 86 9 155 2 69 3 137 4 153 1 26 3 27 56 27 31 0 55 -4 55 -10z
m-1882 -54 c2 -2 -7 -24 -19 -47 -21 -43 -99 -273 -99 -295 0 -21 -30 -38 -42
-26 -11 11 -13 164 -4 247 1 17 4 51 4 77 2 40 5 47 25 51 23 5 128 -1 135 -7z
m1525 -153 c4 -3 3 -11 -2 -17 -4 -6 -18 -56 -31 -111 -12 -55 -24 -106 -26
-114 -8 -25 -18 -1 -15 35 1 19 -2 34 -8 34 -6 0 -11 -7 -11 -15 0 -25 -13
-16 -52 34 -55 71 -55 74 -5 115 50 41 59 44 56 19 -1 -10 -1 -46 0 -80 2 -93
21 -78 21 16 0 75 1 80 23 84 37 7 43 7 50 0z m-188 -43 c-3 -6 -32 -28 -63
-49 -31 -21 -79 -61 -107 -87 -74 -72 -143 -126 -153 -120 -5 3 -24 8 -43 11
-18 3 -35 8 -37 9 -2 2 31 22 73 45 43 23 100 56 128 75 49 32 198 123 205
125 2 1 0 -4 -3 -9z m18 -101 c61 -79 56 -86 -21 -33 -72 49 -72 49 -51 67 12
9 24 17 28 16 3 0 23 -23 44 -50z m363 -1 c-4 -24 -10 -64 -13 -90 l-6 -48
-61 0 c-33 0 -66 4 -73 8 -12 8 130 172 150 172 6 0 7 -16 3 -42z m-443 -18
c14 -11 30 -20 36 -20 6 0 11 -4 11 -9 0 -5 8 -12 18 -16 9 -3 31 -17 47 -30
l30 -25 -100 4 c-64 2 -110 9 -128 19 l-29 15 37 41 c21 23 41 41 45 41 4 0
19 -9 33 -20z m-1923 -35 c14 -2 63 -6 110 -10 47 -4 112 -13 145 -20 33 -8
90 -17 128 -20 46 -5 67 -12 67 -21 0 -26 -38 -32 -260 -38 -124 -3 -240 -8
-259 -12 -24 -5 -32 -3 -27 5 4 6 2 27 -4 45 -6 19 -8 46 -4 61 6 25 9 26 43
19 20 -4 47 -8 61 -9z m500 -75 c0 -11 -6 -20 -14 -20 -9 0 -12 7 -9 20 3 11
9 20 14 20 5 0 9 -9 9 -20z m373 4 c94 -3 217 -8 272 -13 l100 -8 -150 -3
c-156 -4 -568 -1 -573 4 -1 2 1 11 4 21 6 15 16 16 91 10 46 -4 161 -9 256
-11z m898 -59 c-1 -29 3 -63 9 -74 8 -16 8 -21 -3 -21 -16 0 -97 60 -97 72 0
13 81 90 88 84 3 -4 5 -31 3 -61z m154 39 c44 -2 95 -4 113 -4 49 0 38 -17
-15 -25 -61 -8 -132 -29 -171 -49 -36 -18 -42 -10 -42 56 0 34 2 39 18 32 9
-4 53 -9 97 -10z m423 -39 c5 -5 6 -205 1 -210 -9 -8 -169 188 -169 207 0 13
153 15 168 3z m-698 -1 c0 -10 -44 -43 -57 -44 -11 0 -33 30 -33 44 0 3 20 6
45 6 25 0 45 -3 45 -6z m-1173 -26 c-3 -8 -6 -5 -6 6 -1 11 2 17 5 13 3 -3 4
-12 1 -19z m1728 -56 c27 -37 69 -89 93 -117 l45 -50 -7 -119 c-4 -66 -8 -121
-9 -122 -2 -2 -22 12 -46 31 -24 19 -47 32 -52 29 -5 -3 -9 1 -9 10 0 8 -29
35 -64 60 l-64 46 -4 56 c-3 57 20 218 35 241 13 20 31 5 82 -65z m-141 53
c-4 -8 -9 -15 -13 -15 -4 0 -31 -18 -60 -39 -63 -47 -133 -68 -161 -48 -19 13
-19 14 8 38 59 55 242 106 226 64z m2 -51 c-3 -8 -6 -60 -7 -114 l-1 -99 -41
24 c-35 19 -42 28 -40 51 1 15 10 36 20 48 25 29 45 66 36 66 -4 0 -24 -19
-43 -42 -35 -40 -37 -41 -59 -26 l-23 16 31 16 c17 9 50 30 74 46 48 33 62 37
53 14z m-314 -56 c29 -18 87 -57 128 -86 41 -30 101 -67 134 -83 55 -27 186
-115 186 -124 0 -5 -98 51 -164 93 -28 18 -55 32 -62 32 -7 0 -14 4 -16 8 -1
4 -57 34 -123 67 -165 81 -167 82 -152 106 6 10 13 19 14 19 2 0 26 -15 55
-32z"/>
</g>
</svg>
