<?xml version="1.0" standalone="no"?>
<!DOCTYPE svg PUBLIC "-//W3C//DTD SVG 20010904//EN"
 "http://www.w3.org/TR/2001/REC-SVG-20010904/DTD/svg10.dtd">
<svg version="1.0" xmlns="http://www.w3.org/2000/svg"
 width="286.000000pt" height="122.000000pt" viewBox="0 0 286.000000 122.000000"
 preserveAspectRatio="xMidYMid meet">
<metadata>
Created by potrace 1.16, written by Peter Selinger 2001-2019
</metadata>
<g transform="translate(0.000000,122.000000) scale(0.100000,-0.100000)"
fill="#000000" stroke="none">
<path d="M2441 1179 c-18 -11 -90 -77 -160 -147 -133 -135 -278 -253 -346
-282 -41 -18 -140 -20 -370 -6 -49 3 -130 8 -180 11 -191 12 -243 16 -325 30
-121 20 -318 43 -434 50 -55 3 -126 13 -158 21 -79 21 -184 22 -203 3 -10 -9
-18 -55 -25 -134 -5 -66 -13 -144 -16 -172 -5 -45 -4 -53 10 -53 9 0 21 11 26
24 5 13 13 27 18 30 13 8 256 26 422 32 74 2 218 12 320 21 102 9 226 16 275
14 50 -1 171 3 270 9 521 32 512 32 494 -1 -5 -10 -16 -19 -24 -19 -10 0 -13
-10 -10 -37 3 -33 6 -38 26 -35 13 1 34 -8 48 -21 14 -13 35 -30 47 -38 11 -8
41 -31 65 -51 24 -20 64 -53 89 -73 54 -42 115 -94 180 -153 31 -27 51 -39 55
-32 13 20 -5 59 -32 72 -53 25 -340 407 -335 445 2 13 0 23 -5 23 -4 0 -14 4
-21 9 -10 6 -3 26 29 87 54 101 104 165 218 284 50 52 90 98 88 102 -1 5 -17
-1 -36 -13z m-297 -361 c-16 -24 -32 -51 -36 -60 -4 -9 -16 -22 -28 -28 -16
-9 -22 -8 -26 5 -4 9 -3 25 2 36 9 20 106 100 113 93 2 -2 -9 -23 -25 -46z
m-1719 1 c22 -5 108 -16 190 -24 83 -7 168 -16 190 -19 87 -13 193 -26 260
-31 196 -15 219 -17 340 -34 44 -6 163 -13 265 -15 102 -3 201 -5 220 -6 l35
-2 -35 -9 c-19 -5 -105 -11 -190 -14 -345 -10 -800 -32 -850 -41 -24 -3 -95
-7 -428 -19 l-143 -5 6 92 c9 149 9 148 58 142 23 -2 60 -9 82 -15z m1752
-226 c27 -32 67 -83 88 -113 21 -30 49 -70 63 -87 13 -18 20 -33 14 -33 -6 0
-14 4 -17 10 -3 5 -38 34 -78 64 -40 30 -95 77 -124 104 l-52 48 19 32 c11 18
24 32 28 32 5 0 31 -26 59 -57z"/>
</g>
</svg>
