<?xml version="1.0" standalone="no"?>
<!DOCTYPE svg PUBLIC "-//W3C//DTD SVG 20010904//EN"
 "http://www.w3.org/TR/2001/REC-SVG-20010904/DTD/svg10.dtd">
<svg version="1.0" xmlns="http://www.w3.org/2000/svg"
 width="106.000000pt" height="90.000000pt" viewBox="0 0 106.000000 90.000000"
 preserveAspectRatio="xMidYMid meet">
<metadata>
Created by potrace 1.16, written by Peter Selinger 2001-2019
</metadata>
<g transform="translate(0.000000,90.000000) scale(0.100000,-0.100000)"
fill="#000000" stroke="none">
<path d="M390 721 c-30 -4 -61 -10 -68 -14 -29 -19 -41 -67 -48 -189 -6 -114
-5 -125 11 -132 17 -6 17 -7 0 -26 -21 -23 -26 -22 140 -20 178 2 316 52 368
132 55 85 47 143 -27 199 -42 32 -57 37 -129 44 -116 11 -184 12 -247 6z m185
-46 c88 -7 144 -31 177 -76 18 -23 18 -30 7 -69 -31 -104 -131 -152 -343 -165
-93 -6 -98 -6 -91 12 4 10 11 76 16 148 6 72 12 135 14 142 4 11 90 22 125 17
8 -2 51 -6 95 -9z"/>
<path d="M372 638 c3 -7 15 -15 27 -16 16 -3 22 1 19 10 -3 7 -15 15 -27 16
-16 3 -22 -1 -19 -10z"/>
<path d="M413 604 c-7 -20 11 -38 32 -30 13 4 14 10 5 26 -13 24 -28 26 -37 4z"/>
<path d="M427 544 c-3 -4 -2 -15 4 -26 6 -11 8 -26 5 -35 -4 -10 -1 -13 11
-11 12 2 18 15 20 41 3 30 0 37 -15 37 -10 0 -22 -3 -25 -6z"/>
<path d="M427 454 c-13 -13 -7 -24 14 -24 11 0 19 5 17 12 -5 14 -22 21 -31
12z"/>
<path d="M373 398 c2 -7 10 -13 17 -13 7 0 15 6 18 13 2 7 -5 12 -18 12 -13 0
-20 -5 -17 -12z"/>
</g>
</svg>
