<?xml version="1.0" standalone="no"?>
<!DOCTYPE svg PUBLIC "-//W3C//DTD SVG 20010904//EN"
 "http://www.w3.org/TR/2001/REC-SVG-20010904/DTD/svg10.dtd">
<svg version="1.0" xmlns="http://www.w3.org/2000/svg"
 width="326.000000pt" height="148.000000pt" viewBox="0 0 326.000000 148.000000"
 preserveAspectRatio="xMidYMid meet">
<metadata>
Created by potrace 1.16, written by Peter Selinger 2001-2019
</metadata>
<g transform="translate(0.000000,148.000000) scale(0.100000,-0.100000)"
fill="#000000" stroke="none">
<path d="M1625 1274 c-11 -9 -32 -20 -47 -26 -39 -14 -35 -39 10 -80 21 -19
49 -51 61 -72 21 -34 22 -39 9 -53 -14 -13 -20 -9 -61 41 -25 30 -51 69 -58
86 -8 16 -21 30 -29 30 -19 0 -70 -57 -70 -78 0 -14 -1 -14 -12 0 -7 9 -22 18
-32 20 -17 2 -20 -3 -21 -36 -1 -29 -8 -44 -23 -54 -12 -8 -22 -20 -22 -27 0
-12 66 -44 163 -80 49 -17 58 -37 19 -43 -12 -2 -68 17 -124 42 -116 53 -141
57 -136 24 2 -19 -2 -24 -24 -26 -34 -4 -37 -29 -7 -61 19 -21 22 -21 39 -6
16 15 20 14 52 -3 19 -11 49 -23 66 -27 42 -9 40 -19 -5 -49 -45 -30 -103 -32
-175 -8 -26 9 -50 13 -54 10 -3 -3 -1 -23 5 -43 5 -20 7 -56 5 -79 -7 -52 14
-68 45 -35 10 11 41 28 68 39 46 17 53 17 95 3 59 -19 54 -36 -15 -59 -74 -24
-180 -73 -188 -86 -9 -14 15 -64 33 -71 19 -6 56 10 90 38 16 14 35 25 41 25
15 0 -76 -66 -120 -88 -18 -9 -33 -20 -33 -26 0 -16 43 -33 81 -32 29 1 34 4
32 23 -2 15 9 32 34 52 41 33 50 36 73 21 13 -9 12 -12 -4 -21 -10 -7 -35 -26
-55 -44 -20 -18 -51 -40 -69 -49 -41 -21 -40 -50 2 -54 20 -3 25 -6 16 -12
-17 -10 -4 -30 20 -30 12 0 32 20 54 52 46 70 102 122 122 114 13 -5 10 -13
-16 -44 -123 -147 -132 -167 -76 -167 17 -1 31 -6 34 -13 2 -7 14 -12 27 -12
24 0 38 21 29 44 -5 13 58 130 76 141 32 20 21 -18 -31 -108 -71 -122 -73
-152 -9 -136 11 3 14 -3 11 -25 -1 -16 3 -32 10 -37 17 -10 29 -2 29 21 0 11
12 22 33 29 l32 12 -23 17 -23 18 22 60 c26 70 36 84 58 84 23 0 57 -38 65
-71 7 -30 32 -44 51 -29 8 6 57 9 126 7 63 -2 164 2 224 9 61 6 114 10 119 7
5 -3 147 -7 315 -9 178 -1 337 -7 381 -14 41 -7 105 -13 143 -14 55 -1 67 2
67 15 0 9 -18 24 -42 35 -23 10 -67 34 -96 51 -30 18 -73 38 -96 44 -42 11
-479 223 -550 267 -21 13 -72 41 -114 63 -43 22 -69 41 -61 44 59 22 168 61
239 84 97 32 172 62 245 96 173 81 228 105 239 105 7 0 27 11 46 25 19 14 43
25 54 25 29 0 106 40 106 55 0 20 -35 25 -190 25 -80 0 -194 5 -255 10 -232
20 -343 30 -420 35 -44 3 -116 10 -160 15 -44 5 -107 10 -140 11 -33 1 -66 6
-72 11 -7 6 -28 7 -48 4 -27 -5 -44 -20 -81 -67 -52 -67 -54 -67 -79 14 -11
37 -12 53 -3 66 13 21 5 51 -14 51 -7 0 -22 -8 -33 -16z m37 -120 c28 -72 27
-72 -21 -1 -28 44 -33 67 -12 67 4 0 19 -30 33 -66z m427 10 c2 -2 -25 -4 -60
-5 -65 -1 -73 -1 -121 -14 -24 -6 -26 -4 -21 15 6 21 9 21 102 15 53 -4 98 -9
100 -11z m-253 -26 c-4 -30 -16 -130 -21 -182 -4 -36 -5 -37 -14 -32 -8 6 -7
90 4 191 2 22 4 43 4 48 1 4 8 7 16 7 11 0 14 -8 11 -32z m699 -8 c75 -10 216
-19 355 -25 47 -2 89 -3 94 -4 5 -1 -7 -12 -26 -25 -68 -45 -197 -97 -333
-131 -74 -19 -143 -39 -153 -44 -21 -11 -179 -59 -252 -76 -30 -7 -67 -16 -81
-19 l-26 -7 22 123 c13 68 26 144 29 170 5 32 12 48 24 51 25 7 266 -2 347
-13z m-402 3 c3 -5 1 -33 -4 -63 -5 -30 -11 -75 -13 -100 -6 -63 -17 -119 -25
-124 -12 -8 -1 197 11 212 10 12 10 16 1 19 -14 5 -18 45 -6 56 9 9 31 9 36 0z
m-75 -25 c-2 -19 -10 -24 -40 -26 -21 -2 -38 -6 -38 -10 0 -4 -12 -7 -27 -7
-16 0 -42 -3 -59 -7 -29 -6 -31 -5 -26 18 6 32 16 38 87 45 109 11 107 11 103
-13z m-524 -30 c55 -42 86 -75 79 -82 -11 -11 -20 -6 -87 48 -57 47 -64 59
-37 65 2 1 22 -13 45 -31z m224 -45 l-4 -28 -13 26 c-11 22 -11 31 0 50 l14
24 3 -22 c2 -13 2 -35 0 -50z m-218 -35 c24 -21 41 -41 37 -44 -7 -7 -149 43
-171 60 -12 9 -12 16 0 44 l14 32 38 -27 c21 -16 58 -45 82 -65z m486 22 c13
0 24 -6 24 -12 0 -10 -26 -13 -99 -13 -69 0 -97 3 -94 11 2 7 12 10 23 7 10
-3 21 1 25 7 5 8 22 10 53 6 25 -3 55 -6 68 -6z m-285 -52 c27 -37 14 -57 -14
-21 -12 15 -28 33 -36 39 -8 6 -11 16 -7 23 9 15 27 2 57 -41z m257 -13 c91
-13 63 -30 -52 -30 -82 0 -102 3 -98 13 11 29 46 33 150 17z m-325 -8 c7 -6
19 -21 27 -32 13 -17 11 -16 -17 4 -18 12 -33 27 -33 32 0 13 9 11 23 -4z
m-272 -44 c92 -36 95 -56 4 -33 -69 18 -117 42 -103 52 19 11 24 11 99 -19z
m250 0 c13 -16 12 -17 -3 -4 -17 13 -22 21 -14 21 2 0 10 -8 17 -17z m928 -7
c-10 -10 -426 -146 -446 -146 -59 0 -4 28 87 43 36 6 249 73 290 91 32 14 79
22 69 12z m-1009 -16 c0 -5 -5 -10 -11 -10 -5 0 -7 5 -4 10 3 6 8 10 11 10 2
0 4 -4 4 -10z m456 1 c28 -1 31 -4 26 -27 -3 -19 -9 -23 -21 -18 -9 4 -65 10
-126 14 -60 4 -101 8 -90 9 11 1 29 8 40 17 15 11 36 14 80 10 33 -3 74 -5 91
-5z m-318 -41 c6 18 42 -21 42 -46 0 -28 -20 -23 -103 25 -47 27 -55 36 -46
47 10 12 19 10 58 -11 29 -17 47 -22 49 -15z m-205 -26 c3 -4 2 -15 -4 -25 -7
-14 -21 -19 -56 -19 l-46 0 34 24 c34 24 60 31 72 20z m480 -15 c31 -6 58 -18
61 -25 4 -11 -12 -13 -77 -11 -45 1 -94 -1 -109 -6 -26 -7 -28 -5 -28 23 0 29
1 30 48 30 27 0 74 -5 105 -11z m-347 -14 c17 -13 14 -14 -44 -15 -44 0 -61 3
-56 11 3 6 19 9 35 5 16 -3 29 -1 29 4 0 14 13 12 36 -5z m151 -22 c-3 -10 -5
-4 -5 12 0 17 2 24 5 18 2 -7 2 -21 0 -30z m-480 -30 c3 -7 -12 -16 -34 -22
-50 -14 -48 -15 -60 12 -10 22 -9 23 40 22 30 0 52 -5 54 -12z m437 -145 c-3
-89 -9 -182 -13 -207 l-6 -46 -24 33 c-22 31 -23 37 -11 72 7 21 10 44 7 51
-2 8 4 29 15 47 11 18 18 35 16 38 -12 11 -39 -11 -63 -51 -31 -54 -41 -61
-54 -36 -9 16 -4 29 31 73 23 29 48 57 55 61 18 11 16 27 -4 27 -17 0 -103
-83 -103 -100 0 -16 -17 -12 -24 6 -4 10 11 33 44 67 27 28 50 55 50 59 0 21
-34 3 -79 -42 -28 -27 -53 -50 -56 -50 -15 0 -2 32 20 46 14 9 25 20 25 25 0
15 -22 10 -44 -8 -20 -17 -20 -17 -6 0 7 10 32 28 54 39 23 11 48 26 56 34 8
7 38 14 65 17 28 2 51 4 52 5 2 1 0 -71 -3 -160z m-311 145 c-7 -2 -19 -2 -25
0 -7 3 -2 5 12 5 14 0 19 -2 13 -5z m147 2 c0 -3 -27 -18 -60 -35 -41 -21 -58
-25 -54 -15 3 8 24 20 45 26 21 7 39 16 39 21 0 4 7 8 15 8 8 0 15 -2 15 -5z
m414 -11 c72 -10 54 -21 -31 -20 -157 2 -182 -32 -29 -39 54 -2 101 -6 103 -9
3 -3 3 -13 -1 -22 -6 -15 -15 -16 -74 -9 -37 5 -83 9 -102 9 -29 1 -36 5 -38
25 -2 12 -1 34 2 47 6 22 11 24 65 24 32 0 79 -3 105 -6z m208 -48 c40 -18 82
-41 93 -50 11 -8 -17 2 -62 24 -45 22 -87 40 -92 40 -5 0 -13 5 -16 10 -9 15
-2 13 77 -24z m11 -46 c53 -27 116 -62 140 -78 23 -16 83 -48 132 -72 50 -23
111 -53 137 -66 26 -14 102 -43 170 -65 68 -23 137 -49 153 -59 17 -10 42 -18
57 -18 14 0 37 -7 50 -16 l23 -16 -32 5 c-18 3 -48 7 -65 10 -18 3 -130 8
-248 10 -596 12 -642 15 -661 38 -11 15 -14 27 -8 38 4 9 8 54 9 100 0 46 4
113 10 149 5 36 10 71 10 78 0 20 21 14 123 -38z m-848 -30 c-3 -5 -11 -10
-17 -10 -6 0 -37 -17 -69 -39 -32 -21 -60 -36 -63 -33 -14 13 -3 28 32 43 20
9 53 23 72 32 42 19 53 21 45 7z m637 -20 c28 0 29 -1 26 -51 l-3 -51 -50 7
c-27 3 -77 9 -110 12 -70 6 -66 5 -56 21 6 11 24 11 91 2 88 -12 110 -9 110
14 0 16 -44 26 -135 32 -33 2 -61 4 -63 4 -2 0 0 5 4 11 5 8 30 10 82 5 41 -3
88 -6 104 -6z m-508 -8 c3 -5 -8 -21 -23 -36 -21 -20 -35 -26 -50 -21 -28 9
-26 16 12 42 35 24 53 28 61 15z m1115 -109 c80 -40 142 -73 138 -73 -20 0
-357 165 -357 175 0 6 35 -11 219 -102z m-1059 42 c0 -17 -36 -39 -50 -30 -5
3 0 17 12 30 22 25 38 25 38 0z m453 -56 l28 1 -7 -57 c-4 -32 -8 -66 -8 -76
0 -16 -10 -17 -103 -13 -99 4 -140 16 -127 37 6 10 41 6 126 -12 51 -12 88 -5
88 15 0 12 -69 30 -170 45 -32 4 -40 8 -27 13 10 4 51 3 91 -2 72 -11 126 -2
126 19 0 10 -138 26 -187 22 -21 -2 -33 2 -33 10 0 9 21 10 88 5 48 -4 100 -7
115 -7z m-621 -46 c-22 -27 -49 -56 -60 -66 -19 -17 -19 -17 -15 5 4 19 96
108 111 108 2 0 -14 -21 -36 -47z m222 31 c5 -12 2 -15 -10 -10 -8 3 -18 6
-20 6 -3 0 -2 5 1 10 9 15 22 12 29 -6z m-129 -108 c-20 -31 -41 -56 -46 -56
-13 0 -11 16 4 32 7 7 26 30 41 51 43 56 43 37 1 -27z m145 29 c0 -3 -13 -35
-30 -70 -16 -35 -30 -71 -30 -80 0 -15 -21 -21 -33 -8 -8 7 74 163 86 163 4 0
7 -2 7 -5z m373 -92 c5 -8 -168 -6 -188 2 -5 2 34 4 87 4 53 1 99 -2 101 -6z"/>
<path d="M535 1260 c-16 -4 -48 -8 -71 -9 -22 0 -48 -7 -59 -15 -17 -12 -16
-14 13 -32 24 -14 32 -26 33 -49 0 -16 3 -54 5 -83 l5 -53 -38 6 c-70 13 -137
35 -157 54 -72 65 -117 8 -131 -164 -3 -44 -8 -97 -11 -117 -8 -55 13 -57 77
-8 30 23 95 61 146 86 93 45 108 50 99 36 -3 -5 -10 -54 -15 -110 -6 -56 -14
-119 -17 -140 -4 -28 -2 -43 10 -55 25 -25 44 -11 43 31 -2 138 29 286 66 309
14 9 247 12 247 4 -1 -9 -98 -77 -170 -119 -36 -21 -66 -45 -68 -54 -2 -11 18
-31 57 -59 52 -36 99 -91 146 -168 5 -9 26 -41 47 -73 21 -31 38 -60 38 -65 0
-13 79 -83 94 -83 10 0 12 -10 6 -40 -5 -27 -3 -43 5 -50 22 -19 43 0 48 43 3
23 9 57 12 74 5 23 4 33 -5 33 -7 0 -6 6 4 16 9 8 16 22 16 30 0 7 23 81 51
164 27 82 47 154 44 160 -3 5 -2 10 3 10 4 0 19 30 32 68 23 66 85 190 122
244 23 34 15 51 -20 44 -15 -4 -57 -2 -94 2 -37 5 -73 5 -80 1 -8 -5 -13 -30
-13 -61 l-1 -53 -114 -6 c-153 -8 -377 -5 -386 4 -4 4 0 22 9 40 36 70 86 153
105 172 31 32 17 45 -46 44 -31 -1 -70 -5 -87 -9z m65 -44 c0 -14 -43 -96 -50
-96 -6 0 -10 -6 -10 -14 0 -8 -9 -24 -19 -37 l-20 -24 1 35 c1 19 -2 56 -6 82
l-7 47 33 4 c52 6 78 7 78 3z m576 -144 c19 -7 17 -14 -43 -137 -51 -103 -63
-122 -58 -90 3 22 10 84 17 138 11 95 12 97 37 96 14 -1 35 -4 47 -7z m-871
-80 c22 -6 62 -13 89 -17 l48 -7 -95 -42 c-52 -24 -109 -53 -127 -66 l-32 -23
7 49 c3 27 11 70 16 96 10 45 12 47 32 33 12 -7 40 -18 62 -23z m741 -65 c-4
-23 -11 -77 -16 -119 -5 -42 -18 -111 -29 -152 -12 -42 -20 -86 -20 -98 0 -13
-4 -48 -11 -78 -6 -30 -11 -63 -11 -72 0 -32 -19 -30 -54 3 -25 25 -31 37 -23
46 8 10 6 24 -7 53 -10 22 -21 40 -25 40 -4 0 -13 51 -19 113 -25 227 -25 234
-7 262 23 35 43 41 143 43 l86 1 -7 -42z m-271 -276 l5 -44 -41 51 c-23 28
-66 67 -96 87 l-55 36 46 30 c26 16 50 29 54 29 4 0 18 9 32 20 l25 19 13 -92
c7 -51 15 -112 17 -136z"/>
</g>
</svg>
