<?xml version="1.0" standalone="no"?>
<!DOCTYPE svg PUBLIC "-//W3C//DTD SVG 20010904//EN"
 "http://www.w3.org/TR/2001/REC-SVG-20010904/DTD/svg10.dtd">
<svg version="1.0" xmlns="http://www.w3.org/2000/svg"
 width="268.000000pt" height="106.000000pt" viewBox="0 0 268.000000 106.000000"
 preserveAspectRatio="xMidYMid meet">
<metadata>
Created by potrace 1.16, written by Peter Selinger 2001-2019
</metadata>
<g transform="translate(0.000000,106.000000) scale(0.100000,-0.100000)"
fill="#000000" stroke="none">
<path d="M330 730 c-11 -7 -15 -33 -16 -112 0 -57 -4 -128 -8 -158 -6 -41 -4
-60 7 -74 14 -19 16 -19 72 -2 53 17 100 23 235 30 155 8 364 18 435 21 44 2
150 6 235 9 85 4 207 9 270 11 131 6 289 19 470 42 150 18 244 17 287 -4 17
-8 40 -13 50 -11 26 5 29 50 3 73 -18 16 -26 17 -73 7 -28 -7 -74 -10 -102 -8
-27 3 -86 7 -130 11 -44 3 -100 7 -125 10 -67 7 -162 14 -280 20 -58 3 -204
17 -325 30 -121 13 -254 27 -295 30 -41 3 -93 8 -115 10 -22 2 -67 7 -100 10
-357 31 -423 39 -447 51 -32 16 -29 16 -48 4z m295 -86 c61 -3 121 -6 135 -7
14 0 75 -5 135 -12 61 -7 142 -13 180 -14 39 -1 112 -8 163 -17 52 -8 97 -13
100 -10 4 2 36 -1 72 -5 36 -5 117 -11 180 -14 63 -3 129 -7 145 -10 17 -2 96
-10 177 -16 81 -7 146 -14 144 -16 -8 -9 -430 -42 -596 -47 -102 -4 -228 -8
-280 -11 -52 -3 -171 -8 -265 -11 -206 -8 -233 -9 -407 -19 -150 -9 -144 -10
-140 45 9 112 14 146 22 154 10 10 96 24 115 19 6 -1 60 -5 120 -9z"/>
</g>
</svg>
