<?xml version="1.0" standalone="no"?>
<!DOCTYPE svg PUBLIC "-//W3C//DTD SVG 20010904//EN"
 "http://www.w3.org/TR/2001/REC-SVG-20010904/DTD/svg10.dtd">
<svg version="1.0" xmlns="http://www.w3.org/2000/svg"
 width="326.000000pt" height="222.000000pt" viewBox="0 0 326.000000 222.000000"
 preserveAspectRatio="xMidYMid meet">
<metadata>
Created by potrace 1.16, written by Peter Selinger 2001-2019
</metadata>
<g transform="translate(0.000000,222.000000) scale(0.100000,-0.100000)"
fill="#000000" stroke="none">
<path d="M839 1902 c-9 -9 -26 -37 -39 -61 -26 -52 -19 -64 42 -67 24 -1 48
-2 53 -3 6 -1 11 -125 13 -346 l2 -345 -34 0 c-45 0 -226 33 -361 66 -136 34
-274 39 -302 12 -23 -24 -32 -194 -10 -222 13 -17 15 -18 38 -3 16 11 47 16
96 16 40 0 76 2 81 5 4 2 57 7 117 10 61 3 170 8 243 12 l132 7 -3 -209 c-4
-196 -9 -263 -21 -283 -3 -5 -23 -11 -45 -15 -51 -8 -60 -24 -30 -47 13 -10
20 -19 15 -19 -5 0 -2 -8 6 -17 8 -10 18 -42 21 -72 10 -89 19 -90 146 -6 37
25 111 65 164 90 53 25 142 72 199 103 57 32 207 109 333 171 127 63 237 120
245 127 8 7 49 29 90 49 41 20 91 45 111 56 56 29 59 27 59 -50 0 -54 3 -70
16 -75 20 -8 34 1 34 19 0 28 42 38 205 50 44 4 87 8 95 10 8 3 38 7 65 10 28
3 63 8 79 11 l28 6 -23 -33 c-30 -41 -59 -76 -125 -148 -113 -125 -194 -220
-194 -230 0 -14 16 -14 39 -2 21 12 65 -8 99 -44 19 -21 26 -23 48 -13 18 9
24 17 20 32 -6 21 31 92 134 256 33 52 63 103 66 113 3 9 9 17 14 17 11 0 70
-118 70 -139 0 -9 6 -25 13 -36 7 -11 19 -40 26 -65 31 -106 42 -130 63 -130
17 0 19 4 13 23 -4 12 -7 36 -6 52 0 17 -3 41 -8 55 -5 14 -17 52 -27 85 -19
69 -59 192 -68 216 -8 20 33 27 229 43 82 7 155 24 155 36 0 3 -64 7 -142 8
-145 1 -199 5 -218 17 -6 4 2 23 20 50 16 24 30 46 30 49 0 9 70 117 102 159
27 33 28 37 10 37 -22 0 -89 -61 -124 -113 -55 -82 -111 -148 -118 -140 -5 4
-18 42 -30 83 -12 41 -35 117 -51 168 -24 76 -27 96 -17 112 19 31 -2 46 -41
30 -17 -7 -31 -17 -31 -23 0 -6 -3 -8 -6 -4 -10 10 -81 -30 -88 -50 -5 -11 -1
-22 10 -30 15 -11 148 -283 141 -289 -4 -5 -179 27 -195 35 -10 5 -37 12 -62
16 -25 4 -76 16 -115 26 -75 20 -140 25 -150 10 -3 -5 -2 -12 3 -15 8 -5 4
-76 -5 -76 -2 0 -21 11 -41 25 -20 14 -40 25 -45 25 -4 0 -38 23 -74 50 -36
28 -72 50 -79 50 -8 0 -14 4 -14 8 0 5 -24 22 -52 37 -29 16 -57 33 -63 37 -5
5 -50 35 -100 68 -49 32 -100 69 -113 80 -22 21 -180 130 -187 130 -9 0 -396
267 -481 331 -56 43 -71 46 -95 21z m96 -69 c22 -15 52 -34 67 -43 44 -25 187
-124 184 -128 -2 -1 -19 6 -37 17 -19 11 -90 48 -159 83 -78 40 -126 70 -128
81 -5 26 27 21 73 -10z m37 -98 c10 -4 13 -56 11 -258 -2 -423 -1 -407 -17
-407 -22 0 -27 30 -26 132 1 51 -2 172 -6 269 -7 173 -1 269 16 269 5 0 14 -2
22 -5z m121 -55 l40 -18 4 -89 c1 -48 5 -164 8 -258 3 -93 6 -181 6 -195 4
-61 -1 -80 -20 -80 -42 0 -45 18 -48 323 -2 161 -3 298 -3 306 0 10 -3 11 -14
2 -11 -9 -13 -56 -10 -239 2 -125 6 -262 9 -304 6 -71 5 -78 -12 -78 -39 0
-42 10 -42 180 0 91 -1 183 -3 205 -1 22 -1 93 0 158 2 133 -4 127 85 87z
m121 -66 c31 -15 33 -19 19 -32 -12 -12 -14 -27 -8 -66 12 -94 7 -459 -7 -468
-31 -19 -39 -9 -37 45 0 28 -2 88 -5 132 -8 104 -14 376 -9 393 6 15 5 15 47
-4z m104 -69 c42 -29 38 -1 41 -295 1 -164 -3 -188 -26 -178 -5 2 -9 37 -9 78
-2 132 -14 384 -19 388 -13 13 -25 -59 -20 -122 10 -131 14 -310 9 -333 -4
-13 -12 -23 -20 -23 -16 0 -16 -7 -20 288 -3 248 -5 243 64 197z m155 -86 c34
-18 87 -51 117 -74 30 -23 103 -74 163 -114 59 -39 107 -76 107 -81 0 -14 -14
-12 -29 3 -10 10 -16 7 -31 -13 -20 -26 -20 -26 -23 35 -1 19 -7 30 -17 30
-11 0 -16 -13 -18 -48 -2 -32 -7 -47 -15 -44 -7 2 -12 15 -13 28 -3 102 -3
100 -25 89 -16 -9 -19 -18 -15 -41 3 -16 9 -42 12 -59 5 -25 2 -30 -14 -30
-17 0 -19 7 -18 90 1 50 0 90 -1 90 -1 0 -8 -3 -17 -6 -13 -5 -14 -20 -9 -94
4 -62 2 -89 -6 -95 -7 -4 -15 -4 -18 -1 -3 3 -8 56 -10 118 -4 105 -13 142
-30 125 -3 -4 -5 -33 -4 -65 9 -181 8 -197 -16 -200 -27 -4 -25 -14 -27 150 0
69 -4 129 -8 133 -16 16 -30 -43 -18 -75 1 -3 1 -9 0 -15 -2 -5 -3 -55 -4
-109 -1 -63 -5 -101 -12 -103 -8 -3 -11 27 -11 99 1 111 -8 256 -16 265 -3 3
-11 2 -17 -2 -8 -5 -9 -23 -3 -58 4 -29 8 -108 8 -176 0 -106 -2 -125 -17
-135 -9 -5 -19 -8 -22 -6 -5 6 -9 176 -7 323 1 59 5 97 11 97 6 0 39 -14 73
-31z m1217 -99 c0 -11 13 -62 29 -113 66 -215 70 -227 57 -227 -14 0 -80 122
-121 225 -16 39 -32 74 -37 80 -15 17 -8 33 20 43 41 16 52 14 52 -8z m-826
-232 c3 -13 5 -30 5 -38 1 -8 4 -37 8 -65 11 -67 2 -130 -17 -130 -12 0 -14
15 -12 86 2 47 -1 102 -6 122 -6 20 -7 38 -4 41 11 12 22 5 26 -16z m79 10
c-12 -15 -11 -237 0 -256 5 -7 13 -9 19 -6 7 4 8 2 4 -4 -12 -19 -34 -14 -43
11 -4 12 -8 58 -9 102 0 44 -4 96 -8 117 -7 31 -6 37 10 41 33 8 37 7 27 -5z
m-1526 -9 c43 -7 80 -15 83 -19 3 -3 46 -12 95 -19 50 -7 106 -17 125 -21 19
-5 58 -12 85 -15 28 -3 59 -7 70 -9 11 -3 23 -5 27 -5 3 -1 5 -9 4 -18 -3 -22
-77 -28 -435 -36 l-233 -6 5 28 c3 16 9 51 13 80 l7 51 38 0 c21 0 73 -5 116
-11z m1593 -23 c10 -13 10 -19 1 -30 -8 -9 -12 -46 -10 -102 1 -60 -2 -89 -10
-92 -6 -2 -11 0 -10 5 1 4 0 15 -4 23 -3 8 -7 63 -10 122 -3 97 -2 106 13 98
9 -5 22 -16 30 -24z m-259 -18 c5 -178 5 -174 -21 -158 -13 8 -17 47 -12 148
1 30 6 42 17 42 10 0 15 -11 16 -32z m-67 4 c4 -10 6 -49 5 -85 -1 -49 -5 -67
-15 -67 -14 0 -17 17 -16 115 1 60 0 55 11 55 5 0 12 -8 15 -18z m132 -99 c2
-66 0 -83 -12 -83 -8 0 -14 8 -15 18 -2 32 -2 107 0 147 3 74 25 8 27 -82z
m-187 27 c1 -40 -2 -70 -8 -70 -18 0 -25 23 -22 72 2 38 -1 48 -13 48 -9 0
-15 -8 -14 -17 3 -43 -3 -93 -11 -93 -22 0 -38 31 -37 72 2 41 3 43 36 46 19
2 39 7 44 12 17 17 23 0 25 -70z m730 60 c41 -11 84 -20 96 -20 11 0 25 -4 31
-9 13 -12 89 -29 161 -37 46 -4 69 -12 88 -29 47 -45 30 -61 -80 -75 -50 -7
-112 -14 -140 -15 -74 -6 -227 -25 -249 -31 -18 -6 -18 -3 -11 42 9 58 9 65
-3 125 -14 78 -10 80 107 49z m-859 -55 c0 -32 -4 -45 -14 -45 -17 0 -28 60
-14 78 19 23 28 12 28 -33z m563 33 c-6 -7 -15 -26 -21 -43 l-10 -30 -1 36
c-1 39 5 49 27 49 10 0 12 -4 5 -12z m-623 -33 c0 -29 -4 -35 -21 -35 -13 0
-23 8 -27 23 -8 29 -7 31 20 39 13 3 24 6 26 7 1 1 2 -15 2 -34z m654 10 c-3
-13 -1 -38 4 -55 6 -16 7 -32 2 -35 -17 -10 -29 83 -13 108 9 15 13 6 7 -18z
m-1123 -18 c-13 -13 -26 -3 -16 12 3 6 11 8 17 5 6 -4 6 -10 -1 -17z m384 13
c3 -5 4 -14 0 -20 -8 -13 -35 -1 -35 16 0 16 26 19 35 4z m-68 -6 c-3 -3 -12
-4 -19 -1 -8 3 -5 6 6 6 11 1 17 -2 13 -5z m903 -40 c0 -8 -4 -14 -9 -14 -5 0
-16 -3 -25 -6 -11 -4 -19 2 -26 21 -6 15 -8 30 -5 35 8 12 65 -19 65 -36z
m-1039 4 c8 -160 6 -286 -5 -348 -10 -64 -15 -75 -34 -78 -21 -3 -21 -2 -17
165 2 92 4 194 4 226 1 54 2 57 26 57 19 0 25 -5 26 -22z m-85 -185 c-7 -243
-9 -254 -29 -267 -30 -19 -29 -29 -27 253 0 107 3 198 6 203 3 4 17 8 31 8
l25 0 -6 -197z m159 -2 c-4 -170 -7 -198 -22 -209 -27 -20 -36 1 -28 65 5 32
8 122 7 199 l-1 142 24 0 24 0 -4 -197z m-246 89 c5 -141 5 -167 -1 -265 -4
-49 -7 -96 -7 -102 -1 -7 -7 -13 -15 -13 -12 0 -14 41 -13 240 1 212 3 240 16
238 13 -3 17 -22 20 -98z m311 85 c9 -11 11 -46 6 -138 -3 -67 -6 -129 -7
-137 -5 -36 2 -60 16 -60 8 0 15 3 15 8 0 4 3 63 6 132 3 69 5 140 5 158 -1
23 3 32 14 32 13 0 15 -20 13 -143 -1 -78 2 -148 6 -155 19 -31 26 12 27 151
1 146 1 148 23 141 28 -9 29 -10 21 -25 -4 -6 -7 -39 -7 -73 0 -33 -5 -85 -11
-115 -7 -39 -7 -58 1 -71 9 -15 7 -20 -16 -28 -63 -24 -134 -44 -139 -39 -9
10 -16 260 -9 320 8 59 15 67 36 42z m1670 -15 c-37 -12 -112 -12 -105 0 3 6
34 10 68 9 46 -1 56 -3 37 -9z m67 4 c-3 -3 -12 -4 -19 -1 -8 3 -5 6 6 6 11 1
17 -2 13 -5z m-959 -24 c15 0 15 -2 -1 -17 -21 -21 -44 -4 -32 24 5 12 9 14
12 6 3 -7 12 -13 21 -13z m-541 -6 c31 12 49 -10 48 -61 -2 -70 -27 -173 -42
-173 -10 0 -12 23 -9 98 4 91 -3 138 -17 115 -3 -5 -8 -55 -11 -111 -5 -78 -3
-102 7 -102 6 -1 -4 -9 -23 -20 -37 -19 -47 -19 -34 1 4 7 9 64 11 128 4 139
5 146 34 131 11 -6 27 -9 36 -6z m106 -29 c9 -21 -12 -158 -25 -166 -7 -5 -13
-7 -15 -6 -1 1 1 46 4 99 4 72 9 95 19 91 7 -2 15 -10 17 -18z m61 -64 c-1
-52 1 -61 15 -59 12 2 17 17 19 56 3 54 17 69 28 28 13 -54 2 -77 -48 -96 -44
-16 -52 -16 -50 1 1 3 2 32 3 65 2 66 6 77 22 71 8 -2 12 -27 11 -66z m1086
49 c0 -13 -53 -109 -102 -183 -21 -32 -38 -60 -38 -62 0 -5 -101 -155 -104
-155 -8 0 -66 32 -70 39 -3 4 42 64 100 132 58 68 126 150 151 182 44 55 63
69 63 47z m84 -56 c15 -37 25 -68 23 -70 -6 -7 -66 119 -61 128 9 14 11 10 38
-58z m-1060 20 c3 -8 2 -12 -4 -9 -6 3 -10 10 -10 16 0 14 7 11 14 -7z m76 -9
c-1 -6 -10 -13 -21 -17 -17 -7 -18 -5 -9 13 11 20 33 23 30 4z m-61 -36 c-16
-10 -23 -4 -14 10 3 6 11 8 17 5 6 -4 5 -9 -3 -15z m11 -33 c0 -2 -7 -7 -16
-10 -8 -3 -12 -2 -9 4 6 10 25 14 25 6z m-41 -20 c-2 -3 -171 -89 -374 -191
-204 -103 -395 -202 -425 -221 -80 -50 -82 -49 -95 51 l-6 50 38 12 c25 8 43
8 56 1 15 -8 20 -5 24 12 3 13 16 23 34 27 15 3 36 13 47 24 11 10 22 16 25
13 2 -3 24 2 48 11 24 9 85 29 134 46 50 16 99 34 109 40 27 15 145 59 154 57
4 0 24 6 44 15 21 10 43 17 51 17 7 0 40 11 72 23 53 21 77 26 64 13z m1120
-51 l0 -20 -9 20 c-5 11 -9 27 -9 35 -1 13 0 13 9 0 5 -8 9 -24 9 -35z"/>
</g>
</svg>
