<?xml version="1.0" standalone="no"?>
<!DOCTYPE svg PUBLIC "-//W3C//DTD SVG 20010904//EN"
 "http://www.w3.org/TR/2001/REC-SVG-20010904/DTD/svg10.dtd">
<svg version="1.0" xmlns="http://www.w3.org/2000/svg"
 width="112.000000pt" height="89.000000pt" viewBox="0 0 112.000000 89.000000"
 preserveAspectRatio="xMidYMid meet">
<metadata>
Created by potrace 1.16, written by Peter Selinger 2001-2019
</metadata>
<g transform="translate(0.000000,89.000000) scale(0.100000,-0.100000)"
fill="#000000" stroke="none">
<path d="M307 768 c-7 -4 -6 -12 4 -24 14 -17 38 -94 39 -126 0 -14 -6 -16
-27 -13 -16 2 -49 6 -75 9 -26 3 -60 12 -76 20 -44 23 -57 3 -48 -72 10 -80
10 -102 2 -144 -7 -39 7 -51 31 -27 13 13 170 69 195 69 23 0 22 16 14 -280
-1 -34 3 -45 14 -45 9 0 16 10 17 25 11 169 17 226 24 228 20 8 40 36 46 64 7
33 8 34 78 42 l50 6 -2 -82 c-4 -151 -10 -235 -16 -244 -3 -6 -2 -16 3 -24 8
-13 12 -13 27 2 13 13 18 40 21 110 5 96 13 128 35 128 7 0 21 23 31 51 21 57
20 56 98 62 l58 4 -5 -116 c-3 -64 -7 -127 -10 -141 -3 -14 -1 -38 3 -55 6
-20 4 -38 -5 -55 -16 -31 -17 -74 -2 -64 27 16 47 90 47 177 1 68 5 94 20 115
10 15 24 53 31 85 l12 57 42 0 c23 0 48 4 56 9 24 15 1 31 -44 31 l-44 0 31
68 c17 37 44 81 59 97 54 57 37 71 -66 54 -53 -9 -80 -10 -97 -2 -17 8 -41 7
-88 -3 -63 -13 -130 -12 -154 4 -14 9 -314 9 -329 0z m201 -81 c-17 -28 -34
-62 -39 -74 -12 -33 -77 -33 -83 0 -13 63 -17 81 -22 102 -6 22 -4 23 85 23
l90 1 -31 -52z m119 9 c-13 -69 -18 -92 -22 -103 -4 -13 -86 -19 -98 -7 -9 9
23 84 51 120 19 24 30 30 49 26 22 -4 24 -9 20 -36z m372 28 c-13 -16 -47 -86
-70 -146 -6 -16 -17 -28 -24 -28 -18 0 -27 140 -10 159 13 13 61 28 99 30 16
1 17 -1 5 -15z m-250 -65 c-21 -40 -39 -76 -39 -80 0 -5 -16 -9 -36 -9 -29 0
-34 3 -31 18 5 16 16 77 18 97 3 32 20 42 73 44 l55 1 -40 -71z m101 -20 l0
-79 -55 0 c-30 0 -55 2 -55 5 0 2 14 30 30 61 69 127 80 129 80 13z m-557 -65
c60 -7 65 -11 69 -52 3 -22 -5 -26 -92 -51 l-95 -28 -6 66 c-3 36 -4 69 -2 73
2 4 18 5 36 3 17 -2 58 -7 90 -11z m150 -45 c-7 -25 -43 -25 -43 -1 0 25 7 31
29 25 13 -3 17 -11 14 -24z m157 11 c0 -5 -13 -10 -29 -10 -16 0 -43 -3 -60
-6 -26 -6 -30 -4 -25 10 5 12 19 16 60 16 30 0 54 -4 54 -10z m297 -52 c-3 -8
-6 -5 -6 6 -1 11 2 17 5 13 3 -3 4 -12 1 -19z m-227 -1 c-8 -7 -20 -19 -26
-26 -9 -10 -10 -7 -7 13 4 18 12 26 27 26 18 -1 19 -2 6 -13z m-240 -24 c0
-10 -5 -25 -10 -33 -7 -11 -10 -7 -10 18 0 17 5 32 10 32 6 0 10 -8 10 -17z"/>
</g>
</svg>
