<?xml version="1.0" standalone="no"?>
<!DOCTYPE svg PUBLIC "-//W3C//DTD SVG 20010904//EN"
 "http://www.w3.org/TR/2001/REC-SVG-20010904/DTD/svg10.dtd">
<svg version="1.0" xmlns="http://www.w3.org/2000/svg"
 width="258.000000pt" height="122.000000pt" viewBox="0 0 258.000000 122.000000"
 preserveAspectRatio="xMidYMid meet">
<metadata>
Created by potrace 1.16, written by Peter Selinger 2001-2019
</metadata>
<g transform="translate(0.000000,122.000000) scale(0.100000,-0.100000)"
fill="#000000" stroke="none">
<path d="M1085 1167 c-10 -8 -15 -19 -12 -24 4 -6 0 -34 -9 -62 l-15 -51 -99
0 c-87 0 -103 3 -120 20 -26 26 -32 25 -59 -4 -26 -28 -41 -106 -21 -106 10 0
11 -16 6 -65 -6 -56 -4 -66 10 -72 11 -4 23 2 33 16 13 18 30 24 72 26 30 2
70 7 90 10 l37 6 -14 -53 c-7 -29 -18 -80 -24 -113 -16 -82 -54 -205 -86 -271
-24 -52 -27 -54 -62 -53 -20 0 -89 -2 -152 -5 -63 -3 -157 -6 -207 -6 -51 0
-93 -4 -93 -9 0 -5 17 -8 38 -6 20 1 82 -1 136 -6 78 -8 101 -7 108 3 4 7 8 9
8 3 0 -6 35 -9 91 -8 69 2 90 0 87 -10 -4 -11 -42 -17 -233 -41 -22 -3 -83
-12 -135 -20 -52 -8 -123 -17 -158 -21 -42 -5 -65 -12 -72 -23 -7 -12 -9 -13
-10 -3 0 13 -25 12 -63 -4 -16 -7 -18 -2 -15 51 l3 59 36 3 c31 3 36 6 32 23
-3 12 -14 19 -29 19 -17 0 -24 6 -24 19 0 30 -15 33 -38 7 -13 -16 -20 -37
-19 -62 0 -22 -3 -63 -8 -91 -5 -38 -4 -57 5 -68 16 -19 46 -20 53 -1 9 22
226 66 427 86 187 19 205 21 218 25 19 6 15 -11 -13 -55 -28 -44 -31 -60 -12
-60 7 0 24 25 37 56 25 55 50 88 50 65 0 -6 -13 -44 -30 -86 -34 -85 -34 -85
-20 -85 12 0 44 69 60 132 12 44 15 47 59 59 25 6 91 15 146 20 55 5 145 14
200 20 110 13 130 15 227 23 72 7 128 23 128 37 0 5 7 9 16 9 8 0 12 -5 9 -10
-7 -11 0 -11 150 6 33 4 97 7 143 7 45 0 82 4 82 9 0 4 10 6 23 4 33 -5 32
-40 -5 -147 -27 -74 -31 -99 -23 -117 13 -28 41 -24 38 6 -4 31 41 158 85 245
20 40 53 105 73 145 20 39 34 73 31 76 -3 3 -1 6 4 6 6 0 21 19 34 43 13 23
56 86 95 140 38 54 77 109 85 123 8 13 21 24 28 24 6 0 12 4 12 10 0 5 6 7 14
4 7 -3 16 2 19 10 7 17 -8 30 -23 21 -6 -4 -54 -8 -108 -9 -53 -2 -137 -9
-187 -15 -80 -11 -260 -8 -305 5 -8 2 -158 6 -333 8 -294 5 -387 10 -387 23 0
16 43 71 69 91 17 12 31 26 31 31 0 4 -38 7 -85 5 -47 -2 -87 1 -90 6 -8 13
-18 12 -40 -3z m135 -42 c0 -2 -12 -25 -27 -50 -27 -43 -30 -45 -75 -45 -47 0
-47 0 -37 26 5 15 13 32 17 38 4 6 7 14 8 19 1 4 2 9 3 12 1 6 111 7 111 0z
m-186 -152 c-4 -16 -10 -35 -15 -44 -5 -9 -6 -19 -2 -22 11 -12 -42 -25 -131
-32 -76 -6 -88 -5 -83 8 3 8 8 35 12 60 8 53 6 52 133 55 l92 2 -6 -27z m106
23 c0 -13 -32 -77 -45 -90 -21 -21 -69 -22 -62 -2 3 8 11 33 17 55 10 39 13
41 50 41 22 0 40 -2 40 -4z m387 -7 c164 -1 307 -4 318 -8 24 -10 -143 -29
-345 -41 -80 -5 -179 -13 -220 -19 -152 -22 -150 -22 -150 -6 0 8 9 20 20 27
11 7 20 20 20 30 0 15 34 29 52 21 4 -2 141 -4 305 -4z m904 -27 c-17 -32 -96
-148 -129 -190 -17 -21 -55 -83 -83 -138 -63 -120 -73 -134 -50 -63 35 101 40
124 60 249 12 69 21 129 21 133 0 14 37 22 115 25 73 3 76 3 66 -16z m-217
-22 c-1 -31 -14 -112 -19 -121 -3 -3 -14 -49 -25 -103 -12 -53 -32 -127 -46
-164 -13 -37 -24 -68 -24 -69 0 -36 2 -36 -77 -31 -43 3 -109 2 -146 -3 -38
-5 -112 -11 -165 -14 -169 -9 -439 -30 -452 -35 -3 -1 -18 -1 -35 -1 -16 1
-86 -5 -155 -14 -181 -22 -170 -24 -155 33 23 86 42 136 104 262 34 69 61 130
61 135 0 6 10 21 21 34 17 21 35 27 117 38 132 17 297 33 417 39 55 2 132 9
170 15 39 6 130 9 203 6 105 -3 134 -1 144 10 6 8 23 13 37 11 21 -2 26 -8 25
-28z m-1134 -75 c0 -3 -17 -38 -37 -78 -21 -39 -43 -85 -50 -102 -12 -30 -12
-30 -7 10 14 110 28 164 43 168 24 7 51 8 51 2z m513 -460 c-13 -9 -29 -12
-40 -8 -15 6 -13 9 12 14 48 11 51 10 28 -6z m-63 -5 c0 -5 -10 -10 -22 -9
-22 0 -22 1 -3 9 11 5 21 9 23 9 1 1 2 -3 2 -9z m-420 -41 c-47 -5 -107 -13
-133 -19 -56 -12 -83 -13 -73 -3 10 10 170 31 236 30 44 0 38 -1 -30 -8z"/>
<path d="M234 354 c3 -9 6 -18 6 -20 0 -2 8 -4 18 -3 10 0 12 3 5 6 -7 2 -13
11 -13 19 0 8 -5 14 -11 14 -6 0 -8 -7 -5 -16z"/>
<path d="M280 356 c0 -2 9 -6 20 -9 11 -3 20 -1 20 4 0 5 -9 9 -20 9 -11 0
-20 -2 -20 -4z"/>
</g>
</svg>
