<?xml version="1.0" standalone="no"?>
<!DOCTYPE svg PUBLIC "-//W3C//DTD SVG 20010904//EN"
 "http://www.w3.org/TR/2001/REC-SVG-20010904/DTD/svg10.dtd">
<svg version="1.0" xmlns="http://www.w3.org/2000/svg"
 width="286.000000pt" height="200.000000pt" viewBox="0 0 286.000000 200.000000"
 preserveAspectRatio="xMidYMid meet">
<metadata>
Created by potrace 1.16, written by Peter Selinger 2001-2019
</metadata>
<g transform="translate(0.000000,200.000000) scale(0.100000,-0.100000)"
fill="#000000" stroke="none">
<path d="M515 1850 c-33 -4 -89 -10 -124 -14 -66 -6 -104 -27 -94 -52 3 -8 11
-14 18 -14 8 0 17 -5 21 -12 11 -17 18 -153 17 -323 -1 -142 -2 -150 -23 -165
-68 -47 -101 -84 -98 -109 2 -19 9 -26 25 -26 26 0 104 -79 190 -192 30 -40
60 -70 66 -66 6 4 7 1 2 -7 -4 -7 -3 -15 2 -19 6 -3 40 -42 77 -86 108 -131
127 -152 219 -242 48 -47 87 -89 87 -92 0 -4 -13 -15 -29 -24 -17 -10 -54 -38
-83 -63 -29 -25 -75 -59 -103 -75 -157 -95 -228 -146 -219 -161 3 -5 51 16
107 45 56 30 134 67 172 82 39 15 102 44 140 65 62 33 246 119 300 140 46 18
112 33 132 31 28 -3 83 26 83 43 0 24 -28 26 -91 6 -34 -11 -68 -20 -75 -20
-8 0 -22 -4 -32 -9 -9 -5 -48 -22 -87 -37 -38 -15 -86 -37 -105 -49 -31 -19
-120 -64 -172 -87 -38 -16 -15 10 36 41 30 18 72 47 92 64 117 98 163 143 194
189 19 28 40 53 46 55 6 2 25 -26 43 -61 32 -65 49 -80 76 -70 22 9 20 19 -24
119 -22 50 -42 98 -45 109 -4 10 -12 16 -20 13 -23 -9 -63 97 -80 216 -22 148
-39 174 -82 126 -10 -11 -40 -37 -67 -56 -51 -38 -61 -74 -23 -81 10 -2 35
-21 55 -43 20 -21 53 -57 75 -80 28 -30 39 -52 43 -83 7 -65 10 -71 30 -55 19
16 18 14 -32 -62 -18 -28 -73 -84 -121 -125 l-88 -74 -28 26 c-15 15 -28 36
-30 48 -2 13 -10 20 -22 19 -12 -1 -15 2 -8 9 14 14 -7 51 -68 123 -27 32 -50
64 -50 70 0 6 -11 22 -25 35 -14 13 -25 28 -25 33 0 6 -7 18 -15 27 -8 9 -62
111 -120 228 -95 189 -109 212 -131 212 -23 0 -24 2 -18 58 3 31 6 66 5 77 -2
58 79 221 160 322 41 52 56 78 52 93 -6 22 -11 22 -108 10z m5 -66 c0 -4 -13
-28 -29 -55 -21 -32 -26 -49 -18 -53 7 -3 6 -5 -4 -5 -8 -1 -25 -23 -37 -53
-25 -60 -41 -53 -42 17 0 22 -1 64 -3 92 l-3 53 38 -2 c21 -1 41 2 45 5 8 9
53 9 53 1z m-25 -688 c32 -61 69 -128 82 -148 12 -21 23 -41 23 -44 0 -14 137
-227 169 -263 21 -24 25 -31 17 -31 -4 0 -85 95 -146 171 -19 23 -44 53 -55
64 -11 12 -47 55 -79 96 -33 41 -67 80 -75 87 -8 6 -11 12 -6 12 5 0 -1 7 -13
16 -13 9 -41 38 -62 65 -34 43 -38 53 -28 69 7 10 15 17 20 14 4 -3 20 2 35 9
19 11 32 12 44 4 9 -5 42 -60 74 -121z m615 -98 c24 -108 24 -106 -14 -56 -19
25 -43 48 -52 52 -15 6 -15 9 6 31 35 37 47 31 60 -27z"/>
<path d="M1527 1703 c-4 -3 -24 -6 -46 -5 -30 1 -40 -2 -44 -17 -2 -11 0 -24
5 -29 9 -9 13 -140 5 -149 -5 -5 -336 -2 -382 4 -22 2 -112 7 -200 9 -137 4
-275 19 -376 40 l-27 6 5 -69 c2 -37 6 -73 8 -80 3 -9 81 -13 312 -14 169 -1
326 -3 348 -5 46 -4 186 -7 200 -4 6 1 34 2 63 1 l53 -1 -2 -112 c-1 -62 -4
-134 -7 -159 -4 -43 -6 -46 -30 -43 -131 14 -143 17 -153 35 -24 45 -44 9 -52
-92 -3 -36 -9 -78 -12 -92 -6 -22 -4 -27 12 -27 10 0 24 5 30 11 10 10 173 30
182 22 4 -3 -10 -93 -26 -166 -5 -25 -3 -28 13 -25 11 2 20 13 22 26 2 12 12
28 23 36 14 9 20 23 18 42 -2 16 1 46 5 67 7 31 12 37 35 37 14 0 37 3 49 7
23 6 24 5 17 -53 -4 -32 -9 -70 -10 -84 -2 -14 -8 -38 -14 -53 -12 -32 -6 -51
15 -43 7 3 16 1 20 -5 13 -22 34 14 33 60 0 25 6 78 13 116 l14 70 63 3 63 3
-7 -53 c-3 -29 -11 -68 -16 -85 -14 -43 -6 -53 39 -50 l37 2 7 89 c5 50 11 93
16 98 9 9 140 13 149 4 4 -3 1 -34 -6 -69 -26 -130 -23 -177 11 -165 9 4 18
42 27 119 7 63 16 119 19 124 4 6 5 17 4 27 -2 13 8 17 53 20 53 3 104 -6 93
-18 -3 -2 -25 -9 -49 -14 l-44 -9 45 2 45 2 3 -50 c2 -28 -2 -74 -8 -103 -7
-30 -9 -56 -6 -59 3 -4 17 -1 31 5 18 8 25 19 25 40 0 15 11 59 23 98 23 65
26 69 59 75 19 3 43 2 54 -2 10 -4 49 -8 86 -8 75 -1 80 -7 65 -76 -13 -62
-24 -178 -19 -197 5 -21 27 -24 38 -6 4 7 9 41 11 77 1 37 8 71 17 80 7 9 16
34 19 56 17 145 141 492 209 586 6 9 9 23 5 32 -8 22 -208 25 -227 3 -10 -13
-9 -18 4 -31 21 -22 21 -79 -1 -96 -10 -8 -14 -9 -10 -2 12 20 -14 29 -103 34
-19 1 -50 -1 -69 -6 -32 -7 -33 -6 -27 16 35 128 41 157 38 177 -4 27 -27 39
-45 23 -7 -6 -39 -13 -70 -17 -68 -8 -81 -21 -70 -66 5 -18 7 -57 5 -85 l-4
-53 -35 0 c-34 0 -34 1 -28 33 4 17 16 57 27 87 11 30 21 66 22 80 1 25 1 25
-79 22 -104 -5 -110 -11 -106 -107 l3 -75 -30 0 c-30 0 -30 0 -21 41 6 23 19
68 30 101 18 55 18 85 -1 73 -12 -7 -91 -18 -124 -17 -16 1 -35 -3 -41 -8 -6
-5 -12 -46 -14 -91 -1 -46 -4 -86 -7 -91 -3 -4 -17 -8 -31 -8 -25 0 -25 1 -17
48 4 26 8 58 8 72 1 14 8 30 16 37 12 9 12 16 4 30 -9 15 -24 18 -79 17 -77
-1 -84 -7 -86 -74 -1 -25 -2 -49 -4 -55 -1 -5 -3 -23 -3 -39 -2 -26 -5 -28
-29 -21 -16 4 -29 8 -31 10 -9 9 -4 42 22 152 8 36 -43 71 -67 46z m19 -62
c-3 -4 -8 -33 -11 -62 -8 -72 -12 -81 -32 -77 -14 2 -16 14 -14 68 1 36 8 68
14 72 17 11 49 10 43 -1z m180 -11 c23 0 24 -3 19 -32 -4 -27 -9 -59 -14 -109
-1 -5 -39 -5 -64 -1 -4 1 -5 30 -1 65 4 34 7 68 7 75 0 7 7 10 14 7 8 -3 26
-5 39 -5z m418 -10 c21 5 22 -13 4 -85 -11 -44 -21 -81 -23 -83 -9 -10 -60 36
-59 53 1 11 2 41 3 66 1 40 4 46 29 55 15 6 30 6 33 1 3 -5 9 -8 13 -7z m-193
-62 l-17 -73 -38 -3 -38 -3 7 68 c4 37 11 70 15 73 5 3 26 6 48 8 l39 2 -16
-72z m426 45 c-3 -10 -13 -51 -22 -90 l-17 -73 -34 0 -35 0 3 82 3 82 35 4
c19 2 37 6 39 8 12 12 32 2 28 -13z m-1561 -118 c128 -2 237 -5 242 -9 6 -4
91 -9 189 -12 191 -6 213 -8 196 -25 -11 -11 -518 -13 -798 -4 l-129 4 -12 33
c-7 18 -13 36 -13 40 -1 3 20 -1 47 -10 36 -12 99 -16 278 -17z m1906 -11 c-2
-10 -14 -42 -27 -69 -25 -55 -62 -171 -90 -280 -31 -121 -33 -92 -4 42 16 70
31 169 35 218 7 118 7 117 51 112 31 -3 37 -7 35 -23z m-1202 -29 c0 -8 -9
-15 -20 -15 -20 0 -26 11 -13 23 12 13 33 7 33 -8z m110 -4 c0 -17 -36 -22
-78 -12 -2 1 0 6 3 11 8 13 75 13 75 1z m90 -8 c0 -15 -56 -18 -64 -4 -7 11 5
16 39 16 14 0 25 -6 25 -12z m100 2 c0 -10 -11 -15 -35 -15 -44 0 -46 17 -2
23 17 2 33 5 35 5 1 1 2 -5 2 -13z m106 3 c3 -4 -13 -8 -36 -8 -23 0 -39 4
-35 9 7 12 64 11 71 -1z m74 2 c0 -5 -8 -10 -17 -10 -15 0 -16 2 -3 10 19 12
20 12 20 0z m12 -40 c7 0 8 -28 4 -82 -6 -71 -15 -206 -16 -245 0 -9 -21 -13
-69 -13 l-69 0 9 41 c5 22 6 46 3 52 -4 7 -3 9 1 4 8 -7 38 92 48 159 9 58 39
99 65 89 8 -3 18 -5 24 -5z m214 -162 c-3 -88 -8 -163 -11 -167 -2 -4 -30 -7
-62 -6 -99 4 -94 2 -83 28 5 12 18 63 30 112 11 50 27 113 35 140 14 49 15 50
56 52 l42 1 -7 -160z m100 140 c-4 -13 -18 -89 -33 -171 -16 -87 -31 -146 -38
-144 -5 2 -9 17 -8 33 1 16 4 58 7 94 3 36 6 94 7 130 1 36 4 68 6 73 2 4 18
7 35 7 27 0 30 -3 24 -22z m194 -1 c19 -6 42 -11 50 -11 22 -1 20 -36 -6 -188
-13 -73 -23 -134 -24 -135 -1 -11 -59 0 -63 11 -4 10 -25 14 -74 14 -37 1 -76
1 -85 1 -21 1 -27 38 -11 71 6 14 14 45 17 70 3 25 13 76 21 115 8 38 15 72
15 73 0 7 125 -9 160 -21z m-1005 -39 c-2 -29 -12 -100 -23 -158 l-19 -105 1
157 c1 155 1 158 23 158 20 0 22 -4 18 -52z m83 46 c22 -6 23 -10 17 -73 -10
-100 -13 -142 -14 -187 -1 -22 -8 -49 -17 -60 -8 -10 -13 -13 -9 -6 4 8 -5 12
-34 12 -28 0 -41 4 -41 14 0 15 49 272 55 294 5 14 10 14 43 6z m107 -26 c-3
-18 -9 -42 -12 -53 -3 -11 -8 -29 -10 -40 -28 -159 -38 -195 -51 -195 -12 0
-13 12 -7 73 5 39 9 87 11 106 3 47 15 125 21 134 2 4 15 7 29 7 22 0 24 -3
19 -32z m108 -8 c-8 -119 -23 -274 -28 -278 -6 -7 -105 -3 -116 4 -5 3 -4 15
3 27 6 12 10 23 9 25 -4 4 41 213 54 250 3 8 18 11 42 9 37 -3 38 -4 36 -37z
m97 30 c0 -5 -13 -62 -30 -126 -16 -63 -29 -119 -28 -122 1 -4 -3 -22 -10 -40
-20 -56 -34 -29 -27 52 3 39 8 93 10 120 4 50 14 106 22 119 6 11 63 9 63 -3z
m200 2 c0 -16 -51 -248 -61 -280 -22 -68 -30 -11 -14 108 3 19 8 68 11 108 7
71 7 72 35 72 16 0 29 -4 29 -8z m-692 -347 c6 -3 12 -16 12 -30 0 -14 -6 -25
-12 -26 -84 -7 -107 -9 -130 -13 -27 -5 -28 -4 -28 38 l0 43 73 -4 c39 -3 78
-6 85 -8z m331 9 c20 -4 31 -12 31 -24 0 -19 -36 -30 -96 -30 -31 0 -34 3 -34
30 0 27 3 30 34 30 18 0 48 -3 65 -6z m-165 -41 c-6 -9 -28 -17 -56 -19 -40
-4 -46 -2 -43 13 2 10 4 21 4 25 1 10 84 14 96 5 6 -5 6 -13 -1 -24z m53 15
c-2 -12 -9 -24 -15 -26 -13 -4 -15 8 -6 32 9 24 24 19 21 -6z m186 2 c-3 -11
-9 -20 -14 -20 -10 0 -12 24 -2 33 13 13 21 7 16 -13z m169 11 c11 -1 15 -6
12 -16 -5 -11 -23 -15 -79 -15 -68 0 -73 1 -68 20 5 20 5 20 135 11z m-531
-32 c-5 -13 -10 -19 -10 -12 -1 15 10 45 15 40 3 -2 0 -15 -5 -28z m780 -30
c-9 -22 -10 -22 -10 -3 -1 11 2 24 6 27 12 12 14 0 4 -24z m-435 -49 c-8 -27
-14 -36 -15 -24 -2 37 11 86 20 77 5 -5 3 -29 -5 -53z m-188 10 c-5 -17 -8
-42 -5 -56 2 -13 0 -27 -4 -30 -5 -3 -9 -16 -9 -29 0 -13 -4 -26 -9 -30 -6 -3
-8 2 -7 12 2 10 7 43 11 73 8 70 14 90 25 90 5 0 4 -14 -2 -30z"/>
<path d="M2078 993 c7 -3 16 -2 19 1 4 3 -2 6 -13 5 -11 0 -14 -3 -6 -6z"/>
</g>
</svg>
