<?xml version="1.0" standalone="no"?>
<!DOCTYPE svg PUBLIC "-//W3C//DTD SVG 20010904//EN"
 "http://www.w3.org/TR/2001/REC-SVG-20010904/DTD/svg10.dtd">
<svg version="1.0" xmlns="http://www.w3.org/2000/svg"
 width="227.000000pt" height="143.000000pt" viewBox="0 0 227.000000 143.000000"
 preserveAspectRatio="xMidYMid meet">
<metadata>
Created by potrace 1.16, written by Peter Selinger 2001-2019
</metadata>
<g transform="translate(0.000000,143.000000) scale(0.100000,-0.100000)"
fill="#000000" stroke="none">
<path d="M179 1338 c-1 -7 -1 -50 1 -95 1 -53 -4 -102 -15 -139 -10 -33 -13
-60 -7 -66 11 -11 42 0 42 16 0 14 42 56 55 56 5 0 27 9 49 20 23 10 84 30
136 44 177 45 275 57 508 63 l224 4 -7 -43 c-4 -24 -11 -59 -15 -78 -29 -115
-44 -186 -60 -270 -57 -311 -108 -550 -119 -550 -68 -2 -357 -3 -388 -1 -40 1
-41 2 -33 28 5 16 17 57 26 93 10 36 34 112 55 170 20 58 51 157 69 220 35
124 51 162 83 198 29 32 14 41 -75 44 -54 2 -79 7 -83 17 -4 10 -8 11 -19 2
-10 -9 -12 -20 -6 -41 4 -16 6 -31 4 -33 -3 -2 -7 -44 -9 -93 -3 -49 -10 -114
-16 -144 -51 -252 -88 -420 -98 -437 -12 -21 -88 -25 -96 -5 -7 18 -33 15 -39
-5 -3 -10 -8 -73 -12 -141 -6 -107 -5 -122 9 -122 9 0 19 5 23 11 7 13 305
159 323 159 6 0 38 9 70 20 32 11 91 24 131 31 65 10 73 9 85 -7 12 -18 14
-18 32 -2 16 15 46 18 213 20 148 2 194 6 198 16 3 10 -21 13 -114 12 -66 -1
-155 -1 -200 -1 l-80 1 2 28 c1 15 9 54 18 87 8 33 25 114 36 180 23 133 29
155 60 235 11 30 28 73 35 96 21 59 121 254 147 286 26 33 20 41 -30 44 -20 1
-86 7 -147 13 -60 6 -130 8 -155 6 -241 -22 -601 -11 -662 20 -17 8 -38 15
-47 15 -9 0 -29 7 -45 15 -35 18 -56 19 -57 3z m117 -68 c9 -9 177 -33 202
-29 4 1 14 0 22 -1 8 -1 -33 -12 -93 -26 -59 -13 -120 -30 -137 -39 -39 -20
-64 -20 -56 1 3 9 6 36 6 60 0 39 2 44 23 44 13 0 28 -5 33 -10z m964 -53 c0
-4 -43 -112 -65 -162 -10 -22 -28 -69 -41 -105 -27 -77 -32 -48 -9 53 8 36 17
78 19 93 2 16 9 50 16 77 12 44 14 47 46 47 19 0 34 -1 34 -3z m-542 -223 c2
-1 -8 -33 -21 -71 -14 -38 -32 -100 -42 -138 -16 -67 -73 -245 -82 -255 -6 -6
3 65 17 145 17 94 23 137 24 182 0 24 5 43 10 43 5 0 4 6 -1 13 -6 6 -8 21 -6
32 3 11 5 34 5 51 l-1 31 47 -15 c26 -8 48 -16 50 -18z m-151 -496 c-3 -8 -6
-5 -6 6 -1 11 2 17 5 13 3 -3 4 -12 1 -19z m58 -230 c86 0 139 -4 125 -8 -14
-5 -48 -8 -77 -9 -37 -1 -55 -6 -61 -17 -9 -16 -203 -104 -229 -104 -9 0 -12
8 -9 23 3 12 8 47 11 78 l6 56 42 -10 c23 -5 110 -9 192 -9z"/>
<path d="M1907 1243 c-4 -3 -51 -7 -104 -7 l-97 -1 -2 -60 c-1 -33 -3 -60 -4
-60 -1 0 -4 -13 -6 -30 -3 -16 -14 -59 -24 -95 -11 -36 -26 -119 -35 -185 -9
-66 -18 -131 -20 -145 -2 -14 -6 -45 -10 -70 -4 -25 -16 -80 -27 -122 -21 -83
-19 -123 7 -97 14 15 65 227 65 272 0 15 8 31 18 36 9 5 24 29 33 53 112 293
171 415 221 459 25 21 39 40 34 47 -8 13 -38 16 -49 5z m-57 -57 c0 -2 -14
-35 -31 -73 -18 -37 -58 -133 -90 -213 l-59 -145 5 65 c3 36 7 85 9 110 1 25
12 65 23 90 11 25 20 60 21 78 0 18 4 47 7 63 6 28 9 29 61 29 30 0 54 -2 54
-4z"/>
<path d="M2120 1229 c-14 -4 -50 -7 -81 -8 l-56 -1 -7 -57 c-11 -90 -36 -202
-62 -278 -14 -38 -25 -77 -26 -85 -2 -41 3 -60 17 -60 20 0 13 -39 -19 -111
-13 -30 -29 -81 -36 -114 -6 -33 -16 -68 -21 -77 -13 -26 -11 -48 5 -48 22 0
37 26 43 72 3 24 13 52 23 63 20 23 43 66 100 187 27 58 53 97 75 115 36 29
48 60 19 49 -44 -17 -123 -26 -129 -15 -9 14 134 281 171 319 19 20 34 39 34
42 0 11 -25 15 -50 7z m-92 -146 c-28 -54 -55 -102 -60 -108 -6 -6 -6 -1 0 11
6 12 19 57 28 100 8 43 18 82 20 86 3 5 18 8 34 8 l29 0 -51 -97z m-18 -266
c0 -2 -18 -41 -40 -86 -22 -45 -40 -86 -40 -91 0 -5 -4 -11 -9 -15 -6 -3 1 27
15 66 13 40 24 83 24 95 0 12 6 25 13 27 15 6 37 8 37 4z"/>
</g>
</svg>
