<?xml version="1.0" standalone="no"?>
<!DOCTYPE svg PUBLIC "-//W3C//DTD SVG 20010904//EN"
 "http://www.w3.org/TR/2001/REC-SVG-20010904/DTD/svg10.dtd">
<svg version="1.0" xmlns="http://www.w3.org/2000/svg"
 width="261.000000pt" height="209.000000pt" viewBox="0 0 261.000000 209.000000"
 preserveAspectRatio="xMidYMid meet">
<metadata>
Created by potrace 1.16, written by Peter Selinger 2001-2019
</metadata>
<g transform="translate(0.000000,209.000000) scale(0.100000,-0.100000)"
fill="#000000" stroke="none">
<path d="M675 1922 c-12 -9 -32 -39 -45 -71 -6 -14 -26 -41 -45 -62 -19 -21
-41 -52 -50 -68 -8 -17 -20 -31 -25 -31 -44 0 88 -112 435 -369 47 -35 84 -65
81 -68 -2 -2 -39 0 -82 6 -44 6 -140 15 -214 21 -186 14 -294 28 -367 47 -67
17 -123 12 -144 -13 -14 -17 -14 -73 1 -123 5 -19 5 -68 -2 -127 -7 -71 -7
-98 2 -109 19 -23 51 3 49 40 -1 16 3 62 10 100 6 39 10 98 8 133 -3 70 -6 68
84 52 30 -5 115 -14 189 -20 74 -6 185 -15 245 -21 61 -6 119 -11 130 -11 56
-1 178 -28 196 -44 19 -17 19 -18 -12 -50 -35 -36 -53 -40 -254 -49 -384 -18
-559 -41 -581 -76 -11 -19 1 -19 101 0 102 19 297 37 505 47 63 3 123 7 132
10 45 13 5 -25 -205 -198 -78 -64 -348 -233 -373 -233 -14 0 -54 -34 -54 -46
0 -4 13 -10 30 -14 37 -8 210 -175 210 -204 0 -50 50 -31 81 31 31 60 126 192
185 257 29 31 73 81 100 111 26 30 53 60 58 67 6 6 29 33 51 59 22 26 55 62
72 81 18 18 33 36 34 40 0 4 13 18 28 30 l28 22 7 -61 c3 -33 6 -102 6 -152 0
-50 5 -145 11 -211 10 -116 12 -262 4 -317 -4 -30 12 -168 20 -176 18 -18 28
29 30 140 4 171 22 520 28 538 3 8 8 44 11 79 3 35 7 65 9 67 10 10 374 -279
426 -338 9 -10 19 -18 24 -18 11 0 57 -49 81 -84 21 -33 36 -33 36 -2 0 18
-27 50 -106 123 -160 148 -295 288 -312 323 -8 16 -30 44 -48 60 -19 16 -34
32 -34 35 0 3 73 5 163 6 89 0 250 8 357 17 121 11 222 14 265 10 52 -5 73 -4
80 6 6 7 34 17 64 22 30 5 56 15 59 22 5 16 -27 15 -146 -4 -91 -14 -115 -14
-277 1 -22 2 -80 6 -130 10 -49 3 -108 8 -130 10 -22 3 -107 10 -189 15 -81 5
-150 10 -151 12 -2 2 1 25 6 52 10 56 20 68 242 293 82 84 171 167 198 184 59
37 64 59 14 56 -29 -2 -50 -18 -127 -93 -51 -49 -131 -121 -178 -159 -47 -37
-93 -75 -104 -84 -18 -15 -18 -14 -14 24 14 110 50 279 69 319 21 45 18 72 -6
63 -22 -9 -154 21 -216 49 -51 23 -62 25 -70 13 -15 -23 0 -424 22 -577 6 -41
8 -77 4 -80 -3 -4 -38 27 -77 68 -212 224 -442 499 -471 563 -17 38 -24 43
-42 29z m788 -102 c31 0 32 -4 13 -79 -8 -31 -25 -119 -37 -196 l-23 -140 -56
-51 c-30 -29 -56 -51 -57 -51 -9 9 -32 304 -32 413 l0 141 82 -18 c45 -10 94
-19 110 -19z m-610 -175 c58 -72 262 -292 329 -355 27 -25 48 -49 48 -54 0 -5
-28 -6 -61 -3 -49 4 -68 11 -98 36 -20 17 -95 75 -167 130 -73 55 -135 104
-139 110 -3 6 -32 29 -63 51 -31 22 -77 57 -101 78 l-43 39 68 70 69 71 55
-57 c30 -31 77 -84 103 -116z m711 -177 c-17 -18 -49 -53 -72 -78 -31 -33 -42
-40 -42 -27 0 11 14 31 32 45 17 15 47 42 67 59 46 42 53 42 15 1z m-162 -167
c-15 -44 -66 -95 -86 -88 -9 4 -16 10 -16 15 0 12 103 113 108 107 2 -2 0 -18
-6 -34z m-12 -81 c0 -5 -7 -10 -16 -10 -8 0 -12 5 -9 10 3 6 10 10 16 10 5 0
9 -4 9 -10z m-124 -44 c3 -8 4 -24 2 -35 -3 -20 -3 -20 -28 -1 -20 15 -22 20
-11 34 17 20 30 20 37 2z m114 -6 c8 -5 12 -12 9 -15 -8 -8 -39 5 -39 16 0 11
11 11 30 -1z m310 -20 c118 -11 238 -21 265 -21 39 -1 32 -4 -35 -10 -109 -11
-496 -16 -505 -7 -4 4 -5 19 -1 33 8 31 -1 31 276 5z m-489 -20 c30 -16 23
-30 -16 -30 -33 0 -34 1 -23 20 15 23 14 23 39 10z m142 -4 c3 -8 0 -17 -7
-19 -18 -7 -40 8 -32 22 10 16 33 14 39 -3z m-113 -54 c0 -5 -8 -17 -18 -28
-9 -10 -80 -89 -157 -173 -77 -85 -162 -178 -190 -206 -27 -28 -82 -93 -122
-143 l-71 -93 -12 35 c-12 36 -96 125 -130 138 -31 11 -25 21 38 57 31 19 69
42 84 52 15 11 32 19 39 19 6 0 25 11 43 25 17 14 41 34 54 43 12 9 89 74 170
144 146 126 147 127 202 131 30 2 58 4 63 5 4 1 7 -2 7 -6z m140 -8 c0 -9 -5
-14 -12 -12 -18 6 -21 28 -4 28 9 0 16 -7 16 -16z m95 -76 c63 -65 59 -68 -15
-9 -51 40 -61 52 -54 63 7 11 2 15 69 -54z m-120 32 c14 -15 16 -30 11 -72 -3
-29 -9 -82 -12 -118 -4 -36 -8 -74 -9 -85 -1 -11 -3 -47 -5 -80 -3 -109 -11
-41 -18 169 -7 214 -5 228 33 186z"/>
</g>
</svg>
