<?xml version="1.0" standalone="no"?>
<!DOCTYPE svg PUBLIC "-//W3C//DTD SVG 20010904//EN"
 "http://www.w3.org/TR/2001/REC-SVG-20010904/DTD/svg10.dtd">
<svg version="1.0" xmlns="http://www.w3.org/2000/svg"
 width="336.000000pt" height="189.000000pt" viewBox="0 0 336.000000 189.000000"
 preserveAspectRatio="xMidYMid meet">
<metadata>
Created by potrace 1.16, written by Peter Selinger 2001-2019
</metadata>
<g transform="translate(0.000000,189.000000) scale(0.100000,-0.100000)"
fill="#000000" stroke="none">
<path d="M935 1635 c-16 -8 -37 -19 -45 -24 -8 -5 -22 -12 -31 -14 -22 -7 -25
-83 -3 -91 9 -3 19 -4 23 -1 5 2 19 -7 31 -20 l23 -25 -44 0 c-46 0 -97 -26
-71 -37 7 -2 19 -11 26 -19 8 -8 21 -14 28 -14 9 0 10 -3 2 -8 -7 -4 -11 -47
-11 -119 0 -62 -2 -115 -5 -118 -3 -3 -59 -5 -124 -5 -65 1 -132 1 -149 1 -54
-1 -239 40 -278 62 -39 22 -39 22 -54 2 -11 -16 -13 -37 -8 -100 3 -44 8 -88
11 -97 7 -24 28 -23 45 3 10 14 28 21 64 24 28 3 84 9 125 15 240 32 347 39
372 24 4 -3 5 -17 2 -32 -3 -15 -6 -74 -7 -132 -2 -96 -4 -105 -22 -108 -34
-6 -35 -15 -12 -82 18 -53 26 -66 46 -68 21 -3 23 -1 17 25 -23 91 -20 95 72
125 111 37 293 110 306 123 7 8 16 12 19 9 3 -3 35 11 72 31 37 20 72 34 79
31 7 -3 6 -5 -2 -5 -8 -1 -26 -9 -40 -20 -15 -10 -75 -43 -133 -74 -59 -30
-115 -60 -125 -66 -234 -127 -267 -150 -203 -136 19 4 93 39 164 78 72 38 148
79 169 89 21 11 44 24 50 29 26 22 138 89 148 89 6 0 30 -17 53 -37 23 -21 82
-69 132 -108 50 -38 100 -83 111 -100 12 -16 45 -55 73 -85 30 -31 53 -64 54
-77 1 -30 29 -57 50 -49 9 3 15 12 13 18 -5 14 20 44 29 35 3 -4 13 -2 23 3
10 5 55 18 101 29 135 31 210 50 280 72 37 11 73 22 80 23 8 2 21 6 29 9 35
14 140 47 152 47 7 0 36 12 63 25 28 14 56 25 63 25 6 0 12 5 12 10 0 6 -5 10
-12 10 -10 0 -113 -38 -163 -60 -11 -5 -36 -12 -55 -16 -19 -3 -46 -11 -60
-17 -14 -6 -29 -11 -35 -12 -5 0 -41 -11 -80 -23 -38 -11 -119 -33 -180 -47
-105 -25 -210 -51 -247 -61 -13 -4 -18 0 -18 15 0 14 9 21 33 26 126 24 172
36 482 131 114 34 173 49 240 60 91 15 215 53 215 66 0 10 -15 10 -65 -2 -46
-10 -56 -4 -45 27 9 21 29 23 150 13 l25 -2 -27 -10 c-39 -14 -35 -26 7 -25
19 1 35 4 35 8 0 4 6 6 13 6 24 -1 77 16 77 25 0 5 4 6 10 3 5 -3 19 -1 31 5
11 7 37 14 56 16 41 5 53 11 53 26 0 6 -13 8 -35 4 -27 -5 -42 -2 -63 12 -62
44 -246 111 -317 117 -16 1 -45 10 -64 19 -19 10 -73 32 -120 48 -158 55 -339
139 -345 161 -4 16 -8 18 -19 9 -11 -9 -36 -1 -115 38 -56 28 -104 50 -106 50
-3 0 -14 -14 -26 -30 -15 -22 -19 -34 -12 -43 7 -8 6 -25 -4 -52 -7 -22 -14
-41 -14 -42 0 0 -9 1 -20 4 -10 3 -39 -4 -63 -16 -24 -12 -50 -21 -58 -21 -15
0 -87 -36 -229 -114 -47 -26 -94 -49 -105 -52 -16 -4 -36 15 -95 87 -41 51
-96 115 -121 143 -26 28 -59 67 -75 86 -16 19 -67 74 -114 123 -47 49 -91 100
-98 113 -15 28 -25 29 -67 9z m235 -254 c30 -35 71 -81 90 -101 19 -21 53 -59
75 -85 22 -26 57 -66 78 -89 20 -22 37 -44 37 -48 0 -27 -48 7 -154 110 -67
64 -156 149 -199 189 -42 39 -73 75 -67 78 5 3 10 15 10 26 0 17 -5 19 -32 14
-29 -5 -38 -1 -71 33 l-38 39 32 28 33 27 76 -78 c41 -44 100 -108 130 -143z
m-226 -18 c-13 -32 -26 -77 -30 -100 -4 -31 -11 -43 -23 -43 -12 0 -13 2 -3 8
9 6 11 34 8 100 l-4 92 38 0 38 0 -24 -57z m141 -32 c74 -72 73 -76 -17 -86
-62 -7 -68 -13 -40 -38 15 -13 19 -14 36 -1 23 16 56 19 56 4 0 -18 -53 -205
-60 -213 -4 -5 -5 10 -3 33 6 47 -4 130 -16 130 -4 0 -7 -64 -8 -142 l0 -143
-68 -27 c-37 -15 -70 -26 -74 -24 -11 7 4 249 17 254 23 7 62 44 57 53 -4 5
-17 9 -31 9 -13 0 -24 2 -24 5 0 7 35 107 53 155 8 19 20 50 27 68 7 18 16 32
21 30 4 -2 38 -32 74 -67z m1080 10 c44 -16 140 -54 212 -85 73 -31 136 -56
141 -56 17 0 72 -31 72 -41 0 -19 -31 -20 -102 -4 -64 15 -92 21 -120 24 -5 1
-8 10 -8 21 0 28 -28 37 -44 15 -12 -17 -18 -16 -117 9 -116 31 -149 47 -149
76 0 25 17 70 27 70 5 0 44 -13 88 -29z m-189 -89 c-2 -4 1 -33 7 -63 11 -46
16 -54 36 -55 12 -1 30 -8 38 -17 15 -15 14 -19 -11 -52 l-27 -36 -38 31 c-23
17 -47 50 -60 80 -12 27 -27 50 -33 50 -12 0 -84 -74 -98 -101 -13 -23 4 -46
23 -31 12 10 22 9 51 -5 19 -10 36 -22 36 -27 0 -13 -182 5 -207 21 -42 28
-66 -20 -48 -97 7 -33 7 -34 -11 -20 -11 8 -31 25 -45 37 -23 21 -27 22 -39 8
-11 -13 -10 -15 1 -10 16 6 64 -37 106 -93 15 -20 35 -42 43 -49 8 -7 10 -13
4 -13 -6 0 -19 9 -30 21 -10 12 -45 40 -76 64 -73 54 -114 103 -101 116 6 6
14 5 23 -6 19 -22 33 -18 26 8 -4 19 1 27 27 40 43 22 123 68 175 101 23 14
47 26 54 27 7 0 47 17 88 39 77 39 95 46 86 32z m-682 -120 l105 -102 -86 -41
c-144 -69 -242 -107 -245 -97 -4 10 13 79 48 198 9 30 19 70 24 88 9 35 28 64
41 60 4 -2 55 -49 113 -106z m743 81 c-9 -9 -19 -14 -23 -11 -10 10 6 28 24
28 15 0 15 -1 -1 -17z m158 -18 c28 -6 50 -16 51 -21 2 -26 26 -65 37 -61 6 2
22 -5 34 -16 l23 -20 -22 -39 c-12 -21 -27 -38 -33 -38 -6 0 -21 14 -34 31
-17 22 -21 38 -16 59 9 42 -2 56 -27 33 -20 -18 -21 -17 -64 32 -49 56 -54 70
-21 59 12 -4 45 -13 72 -19z m-92 -23 c13 -14 14 -21 5 -30 -16 -16 -33 -15
-48 3 -10 12 -10 18 0 30 16 19 23 19 43 -3z m-1742 -26 c15 -20 124 -31 294
-30 185 1 168 -7 -42 -20 -57 -4 -129 -11 -160 -16 -32 -6 -79 -10 -105 -10
l-48 0 0 45 c0 44 1 46 28 43 15 -2 30 -7 33 -12z m2009 -1 c10 -12 10 -18 0
-30 -12 -14 -16 -13 -36 6 -13 12 -21 26 -18 30 8 14 40 10 54 -6z m108 -16
c25 -10 30 -50 9 -68 -14 -11 -24 -2 -81 67 l-19 22 34 -6 c19 -4 44 -11 57
-15z m212 1 c34 -19 35 -19 8 -20 -34 0 -78 16 -78 30 0 16 31 11 70 -10z
m-728 -92 c18 -13 19 -18 7 -18 -21 0 -109 67 -109 83 0 7 5 18 12 25 9 9 18
2 40 -30 15 -24 38 -50 50 -60z m198 73 c23 -45 4 -67 -31 -35 -15 13 -16 20
-6 35 15 24 24 24 37 0z m300 -88 c0 -18 -6 -16 -33 11 -28 27 -39 51 -29 61
8 8 62 -54 62 -72z m160 64 c0 -19 -10 -27 -26 -20 -21 8 -17 33 6 33 11 0 20
-6 20 -13z m-30 -60 c0 -7 -7 -23 -16 -35 -12 -17 -19 -20 -34 -12 -18 10 -20
24 -11 93 2 13 61 -33 61 -46z m139 42 c36 -13 37 -18 12 -59 l-18 -31 -32 42
c-17 24 -31 47 -31 51 0 11 31 10 69 -3z m-601 -27 c14 -21 13 -22 -17 -22
-23 0 -31 4 -31 18 0 38 24 40 48 4z m802 -34 c25 -9 74 -22 109 -29 l64 -12
-41 -12 c-84 -25 -92 -26 -86 -11 7 18 -45 30 -111 24 -50 -4 -56 4 -41 44 11
30 35 41 51 23 6 -6 30 -19 55 -27z m30 32 c8 -5 11 -10 5 -10 -5 0 -17 5 -25
10 -8 5 -10 10 -5 10 6 0 17 -5 25 -10z m-732 -18 c2 -7 -3 -12 -12 -12 -9 0
-16 7 -16 16 0 17 22 14 28 -4z m188 -40 c-30 -4 -35 -22 -7 -22 11 0 23 -5
27 -12 4 -7 3 -8 -4 -4 -7 4 -12 2 -12 -4 0 -7 -8 -23 -19 -36 -15 -20 -21
-21 -30 -10 -9 11 -7 15 11 21 21 7 20 8 -11 14 -41 7 -50 25 -23 42 11 7 18
19 15 26 -3 7 0 20 7 29 12 13 17 11 42 -13 l30 -28 -26 -3z m254 38 c0 -5 -2
-10 -4 -10 -3 0 -8 5 -11 10 -3 6 -1 10 4 10 6 0 11 -4 11 -10z m130 2 c0 -5
-7 -17 -15 -28 -14 -18 -14 -17 -4 9 12 27 19 34 19 19z m207 2 c-3 -3 -12 -4
-19 -1 -8 3 -5 6 6 6 11 1 17 -2 13 -5z m-1130 -29 c41 -1 67 -7 78 -18 31
-32 27 -33 -189 -54 -62 -6 -76 1 -76 43 0 35 20 46 75 38 28 -4 78 -8 112 -9z
m243 -25 c-6 -11 -14 -20 -19 -20 -4 0 -16 9 -26 20 -18 20 -17 20 19 20 34 0
36 -2 26 -20z m90 -10 c9 -18 8 -20 -15 -20 -24 0 -34 18 -18 33 11 12 22 8
33 -13z m65 11 c10 -17 -11 -21 -31 -6 -18 14 -18 14 3 15 12 0 24 -4 28 -9z
m-220 -21 c3 -6 -1 -7 -9 -4 -18 7 -21 14 -7 14 6 0 13 -4 16 -10z m490 -10
c3 -5 1 -10 -4 -10 -6 0 -11 5 -11 10 0 6 2 10 4 10 3 0 8 -4 11 -10z m154
-15 c2 -3 -1 -11 -7 -17 -20 -20 -13 -38 16 -39 24 -1 23 -2 -8 -8 -30 -6 -39
-3 -64 20 -26 24 -28 30 -16 44 10 12 23 15 44 11 16 -4 32 -8 35 -11z m-681
-17 c17 2 33 -2 41 -11 10 -13 5 -26 -25 -74 -20 -32 -50 -72 -66 -90 -17 -17
-27 -36 -24 -41 3 -6 25 -8 49 -6 l42 3 -40 -8 c-21 -5 -56 -6 -77 -3 -32 4
-38 2 -38 -14 -1 -17 -2 -17 -20 4 -10 13 -17 29 -13 37 3 8 -2 18 -10 21 -13
4 -14 10 -5 23 12 20 50 17 69 -5 15 -19 39 0 39 30 0 19 -4 22 -31 18 l-31
-5 53 68 c29 37 55 63 56 58 2 -5 16 -8 31 -5z m-99 -29 c-12 -17 -40 -44 -63
-61 -22 -16 -44 -36 -49 -43 -6 -11 -22 0 -68 42 -33 31 -58 61 -56 67 3 10
37 13 225 24 l33 2 -22 -31z m321 22 c0 -5 -9 -19 -19 -32 l-19 -24 -26 24
c-36 34 -33 41 19 41 25 0 45 -4 45 -9z m114 -14 c14 -13 23 -27 19 -30 -11
-12 -19 -8 -41 23 -27 36 -13 40 22 7z m161 -7 c-20 -39 -19 -50 5 -50 38 0
20 -16 -37 -33 -79 -24 -119 -26 -114 -7 2 8 4 20 4 25 0 12 37 18 37 6 0 -4
-5 -12 -12 -19 -9 -9 -9 -12 -1 -12 7 0 14 4 18 10 3 5 12 7 20 3 10 -3 14 1
13 13 -1 11 2 36 6 57 8 34 11 37 42 37 l35 0 -16 -30z m-251 -29 c-10 -23
-21 -41 -26 -41 -12 0 -10 8 14 50 29 49 36 44 12 -9z m169 21 c-3 -12 -9 -22
-14 -22 -12 0 -11 7 3 30 15 24 19 21 11 -8z m-104 -87 c-21 -31 -44 -44 -75
-45 -13 0 4 58 32 111 l15 30 26 -31 25 -31 -23 -34z m248 80 c5 -14 7 -14 23
0 16 15 18 14 24 -1 7 -19 -9 -34 -35 -34 -19 0 -52 34 -42 43 11 11 23 8 30
-8z m-467 -12 c0 -5 14 -16 30 -25 33 -19 38 -39 15 -58 -25 -21 -17 -38 18
-42 30 -3 28 -5 -26 -22 -56 -17 -59 -17 -71 0 -7 9 -11 26 -8 36 2 10 -1 18
-7 18 -6 0 -11 -6 -11 -14 0 -7 -9 -16 -20 -19 -11 -3 -20 -3 -20 0 0 3 19 34
42 69 38 58 58 77 58 57z"/>
<path d="M1790 1160 c-13 -8 -13 -10 2 -10 9 0 20 5 23 10 8 13 -5 13 -25 0z"/>
<path d="M2803 843 c-21 -8 -15 -22 7 -16 11 3 20 9 20 14 0 10 -8 10 -27 2z"/>
</g>
</svg>
