<?xml version="1.0" standalone="no"?>
<!DOCTYPE svg PUBLIC "-//W3C//DTD SVG 20010904//EN"
 "http://www.w3.org/TR/2001/REC-SVG-20010904/DTD/svg10.dtd">
<svg version="1.0" xmlns="http://www.w3.org/2000/svg"
 width="316.000000pt" height="206.000000pt" viewBox="0 0 316.000000 206.000000"
 preserveAspectRatio="xMidYMid meet">
<metadata>
Created by potrace 1.16, written by Peter Selinger 2001-2019
</metadata>
<g transform="translate(0.000000,206.000000) scale(0.100000,-0.100000)"
fill="#000000" stroke="none">
<path d="M2701 1820 c-41 -28 -80 -50 -87 -50 -28 0 -20 -30 18 -66 22 -22 58
-60 79 -86 l40 -47 -28 0 c-15 0 -50 -2 -78 -6 -78 -9 -554 -15 -935 -12 -259
2 -513 -8 -518 -20 -2 -7 -10 -13 -18 -13 -7 0 -20 -13 -28 -28 -20 -39 -215
-219 -279 -259 l-52 -31 -195 20 c-107 12 -196 24 -198 29 -2 5 -12 3 -22 -3
-38 -24 -31 3 16 63 27 34 57 63 67 65 11 1 20 4 21 6 19 24 86 132 86 139 0
5 9 18 21 30 11 11 18 23 16 26 -10 9 -43 -20 -97 -86 -159 -195 -202 -241
-223 -241 -63 0 -127 14 -127 27 0 11 -5 11 -29 -1 -16 -9 -31 -12 -35 -9 -3
4 -6 2 -6 -3 0 -6 4 -14 9 -19 11 -11 -9 -85 -22 -85 -4 0 -5 27 -1 59 5 56 4
59 -14 54 -25 -6 -30 -38 -27 -173 2 -97 4 -105 25 -114 17 -8 25 -6 34 7 23
31 126 53 126 27 0 -12 74 -115 90 -125 5 -3 10 -13 10 -22 0 -15 27 -54 67
-99 13 -14 23 -28 23 -32 0 -4 29 -36 65 -70 37 -35 70 -75 76 -88 5 -14 15
-24 22 -22 24 9 17 45 -18 91 -32 42 -125 227 -125 249 0 5 -14 37 -30 70 -32
64 -30 77 15 78 37 0 268 59 279 71 8 8 6 10 -9 6 -31 -9 -224 -44 -282 -52
-51 -7 -53 -6 -64 22 -9 23 -7 36 11 72 l21 44 102 -7 c114 -7 263 -24 290
-32 9 -3 17 -13 17 -22 0 -17 35 -82 50 -92 4 -3 13 -17 21 -32 8 -15 40 -70
72 -122 32 -52 66 -109 76 -128 9 -18 22 -32 29 -30 7 1 12 -2 12 -8 0 -5 7
-10 15 -10 13 0 15 -7 9 -37 -4 -21 -11 -44 -16 -50 -17 -22 19 -27 90 -14 51
10 240 12 767 9 752 -5 757 -5 770 -56 7 -29 -53 -132 -104 -179 l-35 -32 29
-11 c17 -7 40 -16 53 -21 13 -5 22 -17 22 -29 0 -11 6 -20 14 -20 17 0 41 28
41 49 0 22 28 111 35 111 5 0 38 -68 79 -160 24 -54 44 -80 61 -80 9 0 10 8 5
28 -4 15 -8 41 -9 57 -1 17 -10 45 -19 63 -10 18 -31 87 -48 153 l-29 120 28
42 c15 23 34 54 41 68 7 15 33 50 58 78 31 35 40 51 28 51 -21 0 -56 -39 -116
-130 -54 -83 -51 -87 -50 58 1 67 5 90 21 112 11 15 20 31 20 34 0 15 -27 3
-56 -25 -22 -21 -45 -32 -75 -36 -29 -4 -50 -15 -66 -32 -25 -29 -30 -51 -10
-51 11 0 51 -110 43 -118 -2 -2 -57 15 -122 37 -66 21 -171 56 -234 76 -63 21
-176 66 -250 102 -74 36 -180 83 -235 105 -55 22 -104 43 -110 48 -5 4 -34 15
-63 25 -30 9 -50 21 -45 25 9 8 77 35 193 75 130 46 183 66 250 95 36 15 81
33 100 40 19 7 68 29 109 48 41 19 88 39 105 43 162 44 206 58 237 71 20 9 50
19 67 23 17 3 48 15 69 25 47 23 53 18 25 -18 -12 -15 -47 -58 -76 -97 -58
-76 -98 -116 -133 -134 -38 -19 -29 -40 16 -38 43 1 71 -16 71 -43 0 -14 8
-18 35 -18 43 0 53 13 29 39 -17 19 -17 23 14 117 18 54 32 105 32 113 0 9 12
26 26 40 l26 24 21 -30 c12 -16 22 -32 22 -35 0 -10 112 -110 123 -110 26 0
22 25 -11 58 -19 21 -51 60 -72 87 -21 28 -41 52 -46 55 -4 3 -3 15 4 26 7 12
22 39 34 61 12 22 38 61 57 87 20 25 36 54 36 64 0 24 -59 -45 -107 -125 -34
-58 -51 -75 -54 -55 -1 4 -4 23 -7 42 -8 52 -8 118 2 183 10 72 5 72 -93 7z
m40 -81 l-6 -67 -45 39 c-24 21 -42 40 -40 42 10 8 94 56 96 54 1 -1 -1 -32
-5 -68z m-706 -220 c115 1 207 0 205 -2 -11 -10 -490 -44 -703 -50 l-148 -5
-25 27 -24 26 127 6 c71 3 180 4 243 1 63 -3 209 -4 325 -3z m534 -18 c-36
-16 -99 -40 -140 -54 -41 -14 -126 -47 -189 -73 -196 -80 -207 -83 -388 -129
-98 -24 -199 -51 -227 -59 -76 -24 -80 -23 -100 40 -22 70 -59 141 -93 176
-14 15 -24 30 -21 32 2 2 60 7 129 10 143 7 550 34 625 41 28 2 88 7 135 10
47 3 126 12 175 19 50 8 106 14 125 15 32 0 30 -2 -31 -28z m-1282 -25 c16
-14 42 -44 58 -68 16 -24 39 -54 51 -68 56 -65 92 -178 89 -280 -2 -85 -49
-167 -154 -270 -70 -69 -98 -89 -147 -107 -64 -24 -91 -29 -62 -13 14 9 16 22
12 86 -3 41 -1 98 5 127 15 78 21 114 31 207 11 99 26 215 44 345 2 17 5 38 5
48 1 25 34 21 68 -7z m-127 -212 c-31 -226 -69 -467 -74 -472 -6 -5 -83 163
-96 208 -7 25 -19 65 -27 90 -13 39 -12 46 1 56 9 6 16 19 16 28 0 19 41 82
85 131 14 17 35 46 45 67 11 20 24 38 30 40 6 2 12 14 15 27 4 24 25 54 32 48
2 -3 -10 -103 -27 -223z m-667 131 c-3 -9 -8 -14 -10 -11 -3 3 -2 9 2 15 9 16
15 13 8 -4z m2195 -47 c-11 -35 -21 -68 -22 -75 -4 -21 -13 -24 -38 -12 l-25
11 51 69 c28 38 52 69 52 69 1 0 -7 -28 -18 -62z m-1618 13 c0 -5 -20 -34 -45
-64 -25 -31 -45 -59 -45 -63 0 -17 -35 -44 -56 -44 -54 0 -56 11 -7 49 27 20
71 57 98 83 54 52 55 52 55 39z m740 -157 c-170 -63 -251 -87 -262 -76 -6 6
29 22 104 45 223 71 312 88 158 31z m-1521 16 c10 -1 -33 -40 -44 -40 -7 0
-20 -9 -30 -20 -19 -21 -15 -24 31 -21 31 3 49 -24 36 -53 -9 -20 -22 -25 -79
-34 -37 -5 -69 -9 -71 -7 -1 1 7 44 19 95 l21 92 57 -6 c31 -3 58 -5 60 -6z
m81 -6 c0 -3 -11 -19 -24 -35 -20 -23 -26 -26 -36 -15 -8 11 -6 19 11 35 22
20 49 28 49 15z m515 -72 c36 -9 43 -22 86 -150 23 -70 46 -133 52 -139 6 -9
6 -13 -2 -13 -6 0 -11 4 -11 8 0 5 -19 38 -42 73 -23 35 -53 82 -66 104 -14
22 -33 51 -42 65 -9 14 -19 35 -23 48 -4 19 -2 22 11 17 9 -4 26 -10 37 -13z
m-560 -62 c3 -5 -1 -10 -10 -10 -9 0 -13 5 -10 10 3 6 8 10 10 10 2 0 7 -4 10
-10z m1271 -21 c3 -5 11 -9 19 -9 7 0 46 -15 87 -34 40 -18 94 -42 121 -51 26
-10 46 -20 44 -21 -2 -2 -42 10 -88 27 -46 18 -111 42 -144 54 -87 32 -95 36
-90 45 6 10 43 1 51 -11z m-1219 -71 c28 -55 113 -246 113 -255 0 -3 -7 0 -15
7 -8 7 -15 18 -15 26 0 7 -9 18 -20 24 -12 6 -25 21 -31 33 -12 27 -51 85 -76
112 -44 47 -72 88 -67 96 3 5 23 9 44 9 38 0 41 -3 67 -52z m1283 2 c41 -18
122 -49 180 -70 58 -21 140 -54 183 -74 43 -20 83 -36 90 -36 7 0 39 -14 72
-31 80 -41 110 -51 170 -54 28 -1 71 -12 95 -22 25 -11 52 -23 60 -26 27 -9
-471 3 -590 15 -63 6 -128 12 -145 13 -16 2 -118 6 -225 10 -107 3 -198 9
-203 12 -4 2 18 31 50 64 48 49 143 197 141 218 -3 35 -8 36 122 -19z m1092
-244 c3 -106 2 -113 -14 -105 -23 13 -36 39 -63 125 l-22 72 41 10 c23 5 44
10 48 11 4 0 8 -50 10 -113z m-897 -70 c118 -13 112 -13 -245 -14 l-365 -1 25
20 c24 19 35 20 245 14 121 -3 274 -12 340 -19z m910 -126 c-6 -9 -9 -9 -16 1
-10 17 0 34 13 21 6 -6 7 -16 3 -22z m-45 -100 c-24 -65 -32 -74 -59 -65 -20
6 -20 7 -4 38 9 18 27 50 41 71 35 56 48 28 22 -44z m76 25 c9 -39 0 -30 -15
15 -6 19 -7 30 -2 25 5 -6 13 -23 17 -40z"/>
<path d="M1249 1434 c-10 -13 -10 -17 1 -24 18 -11 41 7 33 26 -7 18 -17 18
-34 -2z"/>
<path d="M1275 1330 c-3 -6 1 -13 10 -16 19 -8 30 0 20 15 -8 14 -22 14 -30 1z"/>
<path d="M1302 1238 c-16 -16 -15 -28 3 -28 8 0 15 9 15 20 0 23 -2 24 -18 8z"/>
<path d="M1307 1154 c-11 -11 -8 -44 3 -44 15 0 24 30 13 41 -5 5 -12 6 -16 3z"/>
<path d="M1295 1040 c-8 -13 4 -32 16 -25 12 8 12 35 0 35 -6 0 -13 -4 -16
-10z"/>
<path d="M1270 960 c0 -5 4 -10 9 -10 6 0 13 5 16 10 3 6 -1 10 -9 10 -9 0
-16 -4 -16 -10z"/>
<path d="M1235 869 c-4 -6 -5 -13 -2 -16 7 -7 27 6 27 18 0 12 -17 12 -25 -2z"/>
<path d="M1182 768 c-6 -6 -12 -19 -12 -27 0 -13 2 -13 16 1 9 9 15 21 13 27
-3 9 -8 8 -17 -1z"/>
<path d="M738 1123 c7 -3 16 -2 19 1 4 3 -2 6 -13 5 -11 0 -14 -3 -6 -6z"/>
</g>
</svg>
