<?xml version="1.0" standalone="no"?>
<!DOCTYPE svg PUBLIC "-//W3C//DTD SVG 20010904//EN"
 "http://www.w3.org/TR/2001/REC-SVG-20010904/DTD/svg10.dtd">
<svg version="1.0" xmlns="http://www.w3.org/2000/svg"
 width="232.000000pt" height="158.000000pt" viewBox="0 0 232.000000 158.000000"
 preserveAspectRatio="xMidYMid meet">
<metadata>
Created by potrace 1.16, written by Peter Selinger 2001-2019
</metadata>
<g transform="translate(0.000000,158.000000) scale(0.100000,-0.100000)"
fill="#000000" stroke="none">
<path d="M883 1402 c-12 -7 -12 -41 0 -72 11 -30 26 -238 23 -325 l-3 -90
-305 2 -305 2 -7 -52 c-17 -124 0 -233 30 -193 15 21 97 42 216 56 289 34 344
41 358 45 12 4 18 -12 29 -78 7 -45 13 -89 12 -97 0 -8 -1 -31 0 -50 1 -45 1
-36 -1 -172 -1 -106 -3 -119 -22 -132 -23 -16 -16 -36 12 -36 12 0 31 -16 46
-40 15 -22 31 -40 36 -40 14 0 80 46 128 90 25 23 88 71 140 108 52 36 100 71
105 77 6 6 33 29 60 50 28 22 52 42 55 45 3 3 60 47 126 97 178 133 364 240
364 209 0 -16 27 -29 41 -20 5 3 9 14 9 25 0 17 3 18 21 8 16 -8 24 -8 32 0
21 21 -8 45 -129 106 -65 33 -146 76 -179 96 -33 19 -104 57 -157 84 -117 60
-114 58 -208 116 -224 138 -273 163 -313 162 -22 -1 -47 2 -56 6 -23 12 -144
22 -158 13z m153 -67 l51 -7 -9 -41 c-5 -23 -13 -46 -18 -52 -5 -6 -9 -20 -8
-30 1 -11 -4 -51 -10 -90 -6 -38 -14 -97 -17 -130 -4 -33 -7 -60 -8 -61 -13
-8 -68 -11 -73 -3 -3 5 -8 78 -10 161 -2 83 -7 155 -10 160 -3 5 -8 31 -11 58
l-5 50 38 -4 c22 -2 62 -7 90 -11z m162 -26 c64 -42 283 -169 291 -169 3 0 42
-18 85 -40 44 -22 83 -40 87 -40 6 0 165 -104 178 -116 4 -4 -172 59 -214 76
-16 7 -43 19 -60 26 -16 7 -61 24 -100 39 -38 15 -79 31 -90 35 -11 5 -51 21
-90 35 -143 54 -175 68 -181 77 -10 16 17 108 32 108 8 0 36 -14 62 -31z m123
-202 c13 -4 15 -19 11 -94 -2 -48 -5 -89 -6 -90 -4 -4 -276 -6 -280 -2 -5 6
25 230 34 255 l9 22 108 -42 c59 -24 115 -46 124 -49z m105 -35 l41 -17 -25
-67 c-22 -60 -28 -68 -51 -68 -26 0 -26 0 -29 85 -3 95 -3 95 64 67z m234 -91
c140 -55 147 -60 78 -61 -32 0 -58 -4 -58 -8 0 -4 17 -6 38 -4 20 3 34 2 31
-2 -8 -9 -166 -36 -208 -36 -19 0 -49 -5 -68 -12 -37 -14 -44 -10 -37 17 4 18
15 20 92 23 47 1 91 7 97 13 7 7 -17 10 -78 8 -48 -1 -90 1 -93 4 -3 3 4 33
16 66 l22 60 37 -16 c20 -8 79 -32 131 -52z m-772 -91 c19 0 22 -5 22 -44 0
-51 -1 -51 -120 -61 -160 -13 -374 -38 -443 -51 l-29 -6 4 78 4 79 200 5 c109
3 231 4 269 3 39 -1 80 -2 93 -3z m115 -30 c-1 -36 -9 -47 -38 -52 -16 -2 -20
4 -22 36 -4 42 5 54 40 51 18 -2 22 -8 20 -35z m327 9 c0 -18 -5 -29 -14 -29
-8 0 -60 -5 -117 -10 -187 -18 -174 -19 -171 15 2 17 9 35 16 40 8 6 75 11
150 11 l136 2 0 -29z m80 6 c0 -18 -5 -25 -19 -25 -11 0 -23 5 -26 10 -11 18
3 40 25 40 15 0 20 -7 20 -25z m511 4 c19 -7 38 -15 43 -20 11 -10 -33 -49
-49 -43 -5 2 -55 -25 -110 -60 -55 -35 -119 -76 -143 -91 -23 -15 -40 -31 -37
-35 3 -5 -5 -14 -17 -21 -20 -11 -21 -10 -11 3 11 13 -87 -29 -189 -81 l-38
-19 0 43 c0 23 9 71 20 105 11 34 20 75 20 91 0 56 15 76 62 82 24 4 66 11 93
17 28 6 81 14 118 19 38 5 71 12 74 15 11 10 128 7 164 -5z m-537 -111 c-4
-35 -10 -72 -15 -83 -7 -18 -8 -18 -10 5 -3 37 3 113 10 138 1 1 6 2 11 2 7 0
9 -21 4 -62z m-56 -112 l2 -163 -77 -48 c-186 -116 -286 -175 -295 -175 -6 0
-7 8 -3 18 36 87 61 273 54 402 -5 95 2 102 102 107 46 3 102 9 124 13 22 4
52 8 66 9 l26 1 1 -164z m-345 32 c-3 -57 -6 -119 -7 -138 -1 -19 -3 -54 -4
-77 -1 -24 -6 -43 -12 -43 -5 0 -9 49 -8 118 0 64 -3 142 -6 174 -7 58 -6 60
36 67 3 0 4 -45 1 -101z m592 -98 c-3 -5 -27 -24 -53 -42 -26 -17 -49 -34 -52
-37 -14 -17 -111 -91 -150 -117 -25 -16 -47 -31 -50 -34 -3 -3 -25 -19 -49
-35 -25 -17 -77 -56 -115 -88 -76 -62 -103 -68 -123 -28 -11 23 -9 26 45 60
31 19 84 54 117 78 32 24 65 43 72 43 6 0 16 6 20 14 4 7 27 23 51 35 36 18
42 19 42 5 0 -24 24 -11 30 17 4 18 28 36 102 74 53 28 100 53 104 58 11 10
16 9 9 -3z"/>
</g>
</svg>
