<?xml version="1.0" standalone="no"?>
<!DOCTYPE svg PUBLIC "-//W3C//DTD SVG 20010904//EN"
 "http://www.w3.org/TR/2001/REC-SVG-20010904/DTD/svg10.dtd">
<svg version="1.0" xmlns="http://www.w3.org/2000/svg"
 width="134.000000pt" height="76.000000pt" viewBox="0 0 134.000000 76.000000"
 preserveAspectRatio="xMidYMid meet">
<metadata>
Created by potrace 1.16, written by Peter Selinger 2001-2019
</metadata>
<g transform="translate(0.000000,76.000000) scale(0.100000,-0.100000)"
fill="#000000" stroke="none">
<path d="M575 688 c-32 -19 -164 -121 -234 -182 -36 -31 -74 -56 -86 -56 -12
0 -29 -6 -38 -13 -16 -11 -7 -24 91 -122 60 -61 124 -123 143 -139 19 -16 42
-36 52 -44 11 -10 21 -12 27 -6 6 6 -20 42 -71 99 -44 49 -94 107 -111 128
l-31 39 129 -8 c127 -7 218 -7 484 0 114 3 136 6 138 20 3 14 -10 16 -90 17
-539 8 -634 12 -644 22 -4 4 1 16 12 28 39 43 210 181 242 194 17 8 32 19 32
24 0 14 -20 13 -45 -1z"/>
</g>
</svg>
