<?xml version="1.0" standalone="no"?>
<!DOCTYPE svg PUBLIC "-//W3C//DTD SVG 20010904//EN"
 "http://www.w3.org/TR/2001/REC-SVG-20010904/DTD/svg10.dtd">
<svg version="1.0" xmlns="http://www.w3.org/2000/svg"
 width="290.000000pt" height="150.000000pt" viewBox="0 0 290.000000 150.000000"
 preserveAspectRatio="xMidYMid meet">
<metadata>
Created by potrace 1.16, written by Peter Selinger 2001-2019
</metadata>
<g transform="translate(0.000000,150.000000) scale(0.100000,-0.100000)"
fill="#000000" stroke="none">
<path d="M967 1315 c-3 -6 -1 -18 4 -26 13 -20 10 -180 -7 -284 -8 -49 -14
-106 -14 -127 0 -20 -6 -39 -12 -42 -10 -4 -10 -8 -2 -11 10 -5 9 -80 0 -92
-2 -3 -196 22 -251 32 -45 7 -353 65 -408 76 -58 11 -107 12 -107 2 0 -13 17
-35 26 -35 5 0 7 -5 5 -11 -2 -7 -4 -57 -4 -112 -1 -77 2 -107 16 -132 9 -17
20 -34 24 -36 5 -3 37 1 73 9 36 7 112 18 170 24 58 5 125 12 150 15 25 2 104
7 175 10 221 9 499 26 514 31 7 2 30 0 50 -5 48 -13 74 -18 226 -42 242 -37
420 -70 485 -89 120 -34 238 -60 277 -60 21 -1 49 -7 62 -14 l24 -14 -56 -43
c-55 -43 -72 -69 -43 -69 7 0 33 -9 57 -19 24 -11 53 -21 64 -23 11 -1 26 -10
33 -18 10 -13 14 -13 27 4 18 24 19 36 2 36 -18 0 -19 34 -1 128 15 82 49 154
78 165 7 3 16 18 19 34 3 15 22 55 42 87 19 32 33 61 30 64 -8 8 -35 -20 -62
-65 -23 -39 -43 -56 -43 -34 0 4 -12 26 -26 47 -14 21 -27 47 -29 59 -1 11 -5
27 -9 35 -5 13 4 57 29 138 7 20 4 22 -26 21 -19 0 -56 -8 -84 -17 -44 -15
-50 -20 -47 -41 2 -14 18 -42 35 -63 17 -21 28 -40 25 -43 -6 -6 -152 -30
-243 -40 -151 -16 -197 -24 -212 -37 -13 -10 -15 -10 -9 0 6 9 -2 11 -31 7
-21 -3 -83 -10 -138 -16 -55 -6 -124 -13 -152 -16 -62 -7 -59 -19 -42 153 11
101 14 113 32 116 27 4 34 28 10 34 -19 5 -19 8 -5 72 17 79 39 135 66 170 11
13 21 37 23 52 3 28 2 28 -60 32 -34 3 -145 5 -247 7 -102 1 -201 6 -221 11
-59 16 -257 20 -262 5z m282 -36 c23 0 24 -1 6 -8 -11 -5 -39 -11 -62 -15 -33
-5 -43 -3 -43 7 0 22 13 29 44 23 16 -3 40 -6 55 -7z m-159 -20 c0 -12 -34
-83 -41 -87 -4 -2 -5 -12 -2 -23 3 -11 1 -30 -5 -42 -5 -12 -13 -30 -16 -39
-3 -10 -9 -18 -13 -18 -12 0 -4 213 7 220 14 9 70 0 70 -11z m440 6 c0 -7 -67
-67 -88 -79 -19 -11 -220 -8 -242 4 -10 5 -20 17 -24 25 -3 9 -2 14 2 12 4 -3
31 -1 60 4 30 4 91 11 137 14 45 3 95 10 111 15 36 10 44 11 44 5z m39 -72 c1
-9 -14 -13 -41 -13 l-43 1 35 30 c31 26 35 27 42 12 3 -10 7 -24 7 -30z m111
42 c0 -12 -30 -117 -36 -127 -5 -7 -7 -24 -6 -39 1 -14 -4 -42 -13 -60 l-14
-34 -1 40 c-1 22 -4 79 -6 127 -5 78 -4 87 13 91 25 6 63 8 63 2z m-525 -35
c18 -20 17 -20 -25 -20 -42 0 -43 0 -25 20 10 11 21 20 25 20 4 0 15 -9 25
-20z m60 -70 c18 -20 17 -20 -58 -20 -70 0 -76 2 -74 20 1 17 8 20 58 20 43 0
60 -5 74 -20z m185 10 c0 -20 -33 -31 -86 -28 -57 3 -86 23 -42 30 45 6 128 5
128 -2z m170 -16 c0 -11 -18 -14 -76 -14 -65 0 -75 2 -64 14 21 26 140 26 140
0z m-328 -57 c5 2 16 -1 25 -6 13 -8 -11 -10 -89 -11 -61 0 -108 4 -108 9 0
13 45 17 110 10 30 -3 58 -4 62 -2z m325 -2 c3 -11 -11 -13 -139 -20 -66 -3
-84 5 -53 22 22 13 188 10 192 -2z m-240 -1 c-3 -3 -12 -4 -19 -1 -8 3 -5 6 6
6 11 1 17 -2 13 -5z m-67 -55 c0 -17 -29 -27 -75 -25 -27 1 -71 3 -97 4 -37 2
-46 5 -42 16 4 12 28 14 110 14 57 -1 104 -5 104 -9z m312 -5 c5 -3 8 -12 8
-21 0 -14 -14 -15 -106 -10 -74 3 -109 9 -115 18 -7 11 6 15 64 20 69 6 133 2
149 -7z m-247 -14 c4 -6 -5 -10 -20 -10 -15 0 -24 4 -20 10 3 6 12 10 20 10 8
0 17 -4 20 -10z m-125 -45 c-9 -11 -33 -15 -91 -15 -108 0 -101 18 9 23 48 1
89 4 91 5 2 1 -2 -5 -9 -13z m176 -16 l19 -21 -80 6 c-44 3 -84 6 -89 6 -5 0
-3 7 4 15 8 10 31 15 70 15 45 0 61 -4 76 -21z m198 -4 c-5 -11 -23 -15 -79
-15 -52 0 -76 4 -85 15 -11 13 -1 15 78 15 77 0 90 -2 86 -15z m-455 -61 c-17
-18 -33 -24 -67 -24 -36 0 -43 3 -38 16 3 9 6 19 6 24 0 12 26 16 77 11 l44
-3 -22 -24z m211 15 c81 -2 120 -15 120 -41 0 -4 -69 -7 -154 -5 -164 2 -156
-1 -121 44 6 8 23 11 40 8 17 -2 68 -5 115 -6z m223 -7 c18 -2 22 -45 8 -106
l-6 -30 -12 27 c-7 15 -17 27 -23 27 -19 0 -10 18 11 23 29 8 14 27 -20 27
-25 0 -51 15 -51 31 0 6 31 6 93 1z m947 1 c0 -5 -3 -18 -6 -31 l-7 -23 -23
22 c-13 12 -21 26 -18 30 6 11 54 12 54 2z m-1444 -68 c-22 -17 -56 -20 -56
-6 0 12 19 19 50 20 24 0 24 0 6 -14z m415 -1 c10 -12 -18 -14 -185 -14 -171
0 -195 2 -184 15 19 20 352 20 369 -1z m-991 -35 c52 -11 158 -29 235 -40 77
-11 157 -24 178 -30 34 -9 38 -13 33 -34 -9 -35 11 -40 41 -10 15 14 32 23 40
21 12 -5 141 -29 238 -46 l40 -6 -40 -7 c-73 -11 -195 -18 -580 -32 -82 -3
-188 -9 -235 -12 -47 -4 -105 -7 -130 -8 l-44 0 -3 105 c-2 57 -1 111 2 118 6
17 84 10 225 -19z m1009 -17 c17 -4 -13 -9 -84 -12 -151 -7 -367 -1 -360 10 7
11 407 13 444 2z m76 -62 c27 -27 11 -39 -61 -45 -32 -3 -69 -8 -81 -11 -22
-4 -105 11 -306 55 -49 11 -90 21 -92 23 -2 2 114 2 258 0 244 -3 263 -4 282
-22z m899 15 c3 -8 11 -15 18 -15 16 0 38 -24 72 -78 l24 -38 -31 -52 c-23
-37 -38 -52 -57 -54 -16 -2 -25 -9 -24 -20 1 -14 -7 -16 -55 -11 -31 3 -82 11
-113 19 -71 18 -388 80 -449 89 -60 8 -306 53 -349 64 -33 8 -31 9 22 10 32 1
129 10 215 20 87 11 185 22 218 25 66 7 276 32 370 45 99 14 132 13 139 -4z
m15 -367 c0 -18 -3 -41 -7 -50 -6 -15 -10 -15 -41 -2 l-34 14 33 35 c19 19 38
35 42 35 4 0 8 -15 7 -32z"/>
</g>
</svg>
