<?xml version="1.0" standalone="no"?>
<!DOCTYPE svg PUBLIC "-//W3C//DTD SVG 20010904//EN"
 "http://www.w3.org/TR/2001/REC-SVG-20010904/DTD/svg10.dtd">
<svg version="1.0" xmlns="http://www.w3.org/2000/svg"
 width="128.000000pt" height="104.000000pt" viewBox="0 0 128.000000 104.000000"
 preserveAspectRatio="xMidYMid meet">
<metadata>
Created by potrace 1.16, written by Peter Selinger 2001-2019
</metadata>
<g transform="translate(0.000000,104.000000) scale(0.100000,-0.100000)"
fill="#000000" stroke="none">
<path d="M550 802 c-24 -4 -47 -100 -52 -217 -1 -27 -7 -53 -12 -57 -16 -11
-74 -10 -81 2 -3 6 -22 10 -41 10 -44 0 -109 33 -130 65 -19 30 -44 33 -44 6
0 -11 -4 -22 -9 -25 -15 -10 -28 -137 -22 -228 1 -25 28 -22 65 6 58 43 170
94 216 98 l45 3 -2 -58 c-1 -33 -7 -74 -13 -93 -8 -22 -8 -39 -2 -51 7 -11 6
-25 -1 -41 -13 -28 2 -42 37 -35 120 27 198 65 245 122 42 50 81 118 81 139 0
11 12 13 53 9 42 -5 217 -27 301 -39 19 -3 45 26 33 38 -3 4 -35 9 -69 11 -35
2 -94 9 -133 15 -38 6 -94 13 -122 15 -53 5 -53 5 -53 39 0 31 3 34 43 43 23
6 69 20 102 32 33 11 88 26 122 33 71 13 93 27 74 49 -11 15 -51 4 -196 -53
-16 -6 -57 -17 -91 -24 l-62 -13 -5 26 c-11 52 -62 115 -113 141 -46 23 -129
39 -164 32z m108 -56 c76 -39 118 -87 124 -142 3 -28 1 -29 -77 -46 -44 -9
-100 -20 -123 -24 l-44 -7 7 69 c14 145 16 158 28 166 19 12 35 9 85 -16z
m130 -223 c-3 -28 -4 -28 -79 -29 -107 -1 -130 10 -54 25 33 7 74 16 90 21 45
12 47 12 43 -17z m-494 -9 c28 -8 53 -17 57 -21 5 -5 -28 -27 -73 -50 l-80
-41 6 30 c3 17 6 48 6 70 0 34 3 39 18 33 9 -4 39 -14 66 -21z m494 -59 c6 -5
-52 -105 -82 -142 -50 -60 -221 -126 -202 -78 3 9 12 61 21 116 8 55 17 104
19 108 4 7 236 3 244 -4z"/>
</g>
</svg>
