<?xml version="1.0" standalone="no"?>
<!DOCTYPE svg PUBLIC "-//W3C//DTD SVG 20010904//EN"
 "http://www.w3.org/TR/2001/REC-SVG-20010904/DTD/svg10.dtd">
<svg version="1.0" xmlns="http://www.w3.org/2000/svg"
 width="136.000000pt" height="104.000000pt" viewBox="0 0 136.000000 104.000000"
 preserveAspectRatio="xMidYMid meet">
<metadata>
Created by potrace 1.16, written by Peter Selinger 2001-2019
</metadata>
<g transform="translate(0.000000,104.000000) scale(0.100000,-0.100000)"
fill="#000000" stroke="none">
<path d="M655 898 c-11 -6 -21 -12 -23 -13 -2 -1 4 -33 12 -71 9 -38 17 -105
18 -148 l3 -79 -55 1 c-126 1 -213 27 -318 93 -41 27 -54 21 -81 -33 -18 -39
-21 -62 -21 -186 0 -114 3 -144 14 -148 15 -6 52 10 74 32 64 65 135 105 235
134 57 16 117 30 132 30 l28 0 -6 -92 c-4 -51 -14 -118 -22 -148 -22 -83 -20
-110 9 -110 31 0 40 15 38 60 -5 79 38 235 79 286 10 12 96 -4 173 -32 44 -16
226 -45 239 -37 13 8 7 32 -10 36 -10 3 -49 11 -88 17 -38 7 -90 19 -115 27
-25 8 -74 21 -110 27 l-65 13 60 17 c33 10 106 33 162 52 65 22 111 32 127 28
34 -8 85 43 58 60 -7 4 -182 -40 -326 -83 -38 -11 -72 -19 -74 -16 -8 7 18 70
46 111 33 51 119 144 132 144 6 0 10 9 10 20 0 16 -5 19 -27 14 -106 -19 -206
-20 -270 0 -10 3 -27 0 -38 -6z m255 -43 c0 -2 -13 -19 -28 -37 -34 -39 -102
-135 -102 -144 0 -18 -34 -74 -46 -74 -17 0 -21 8 -29 60 -8 59 -23 139 -31
168 l-7 24 89 -7 c74 -5 104 -2 152 14 1 1 2 -1 2 -4z m-604 -245 c53 -33 109
-46 244 -56 74 -5 89 -9 70 -16 -14 -5 -37 -7 -52 -4 -15 3 -42 -3 -65 -14
-22 -10 -53 -22 -69 -26 -33 -8 -89 -42 -151 -92 l-43 -33 0 38 c0 55 12 233
16 233 2 0 24 -13 50 -30z"/>
</g>
</svg>
