<?xml version="1.0" standalone="no"?>
<!DOCTYPE svg PUBLIC "-//W3C//DTD SVG 20010904//EN"
 "http://www.w3.org/TR/2001/REC-SVG-20010904/DTD/svg10.dtd">
<svg version="1.0" xmlns="http://www.w3.org/2000/svg"
 width="246.000000pt" height="220.000000pt" viewBox="0 0 246.000000 220.000000"
 preserveAspectRatio="xMidYMid meet">
<metadata>
Created by potrace 1.16, written by Peter Selinger 2001-2019
</metadata>
<g transform="translate(0.000000,220.000000) scale(0.100000,-0.100000)"
fill="#000000" stroke="none">
<path d="M865 2046 c-2 -6 -8 -27 -15 -46 -20 -63 -41 -180 -34 -191 3 -6 16
-9 28 -6 91 22 160 36 211 41 33 4 114 13 180 21 66 8 168 19 226 25 58 6 117
13 130 16 29 6 199 7 205 1 4 -4 -7 -66 -31 -162 -54 -224 -71 -287 -119 -430
-50 -148 -117 -384 -132 -465 -4 -19 -10 -41 -15 -50 -4 -8 -15 -49 -24 -90
-9 -41 -18 -82 -20 -90 -3 -8 -12 -45 -21 -82 l-17 -68 -81 -1 c-98 -1 -240 2
-242 4 -6 7 27 130 40 148 9 13 16 33 16 45 0 12 7 39 16 60 9 22 23 59 30 84
56 196 77 269 84 295 4 17 19 59 33 95 73 185 107 250 132 250 10 0 15 7 13
18 -2 9 -12 17 -23 17 -11 0 -26 4 -32 8 -7 5 -18 5 -23 2 -25 -15 -248 -12
-430 5 -107 11 -216 21 -242 23 -26 2 -50 6 -53 8 -9 10 48 183 73 221 13 20
22 42 20 49 -3 8 -38 13 -113 14 -114 2 -171 -5 -168 -21 6 -38 11 -221 5
-230 -8 -13 -85 -4 -135 15 -77 30 -105 2 -112 -110 -3 -41 -7 -95 -11 -121
-7 -54 1 -88 21 -88 8 0 54 18 103 39 49 22 100 41 113 43 27 3 26 25 14 -209
-8 -150 -6 -155 35 -133 14 7 17 19 15 55 -2 25 4 70 11 101 8 30 12 59 9 64
-3 6 -1 10 4 10 6 0 11 8 11 18 0 12 13 2 43 -30 23 -26 62 -63 87 -83 115
-93 137 -114 203 -195 39 -47 93 -106 121 -131 l51 -47 -3 -100 c-2 -56 -5
-111 -7 -124 -3 -13 -8 -38 -11 -56 -5 -26 -9 -30 -20 -21 -8 6 -44 10 -86 9
-120 -3 -170 -1 -163 9 10 18 -16 23 -34 7 -10 -9 -25 -16 -34 -16 -24 0 -21
-27 3 -35 18 -6 19 -13 14 -73 -3 -37 -9 -81 -14 -99 -6 -26 -4 -35 12 -49 15
-14 23 -16 36 -7 9 6 16 17 14 25 -4 23 99 48 293 74 28 3 52 7 55 9 11 7 236
36 389 50 90 8 167 17 171 20 24 15 334 57 435 59 33 1 40 4 40 21 0 19 -7 20
-115 22 -63 1 -117 3 -120 4 -11 3 -202 -1 -292 -7 -54 -3 -101 -6 -105 -5
-12 2 -7 99 5 124 6 12 23 65 38 117 15 52 36 115 46 140 24 53 41 101 112
315 30 88 76 212 103 275 28 63 55 129 61 145 59 164 113 275 151 309 38 34
23 59 -21 35 -13 -7 -44 -9 -84 -4 -54 6 -63 9 -66 28 -3 20 -10 22 -98 27
-52 3 -99 8 -105 12 -5 3 -82 9 -170 12 -88 4 -189 9 -225 12 -133 10 -186 15
-235 20 -95 10 -157 10 -160 0z m218 -50 c51 -3 155 -8 232 -11 254 -10 383
-20 373 -30 -10 -10 -222 -40 -393 -55 -71 -6 -143 -13 -160 -15 -16 -3 -57
-7 -90 -11 -33 -3 -85 -9 -115 -14 -30 -4 -56 -7 -57 -6 -8 7 28 140 39 147 7
5 28 6 46 4 18 -2 74 -7 125 -9z m880 -123 c-4 -10 -14 -31 -23 -48 -9 -16
-33 -75 -54 -130 -43 -114 -73 -191 -86 -220 -33 -73 -119 -308 -146 -400 -8
-27 -21 -61 -28 -75 -7 -14 -21 -49 -30 -77 -10 -29 -22 -55 -27 -59 -11 -6
-9 2 26 141 13 50 26 110 30 135 7 44 38 147 55 185 19 43 59 175 81 265 12
52 26 103 31 113 5 10 14 45 19 77 17 108 19 110 93 110 58 0 65 -2 59 -17z
m-1295 -113 c19 0 21 -3 13 -18 -6 -11 -12 -30 -14 -43 -12 -64 -49 -169 -60
-169 -7 0 -29 5 -49 11 l-38 10 0 87 c0 48 -3 98 -7 111 -6 23 -6 23 63 18 38
-4 79 -7 92 -7z m-250 -236 l52 -7 2 -51 c1 -28 2 -62 2 -75 1 -25 -8 -28
-194 -72 -16 -4 -16 -4 0 106 19 122 17 118 53 111 18 -3 56 -9 85 -12z m182
-38 c0 -34 -33 -106 -52 -111 -11 -4 -21 -5 -23 -3 -6 6 -13 137 -8 142 8 8
83 -17 83 -28z m240 -11 c80 -8 167 -16 193 -17 82 -3 61 -14 -51 -26 -150
-17 -161 -16 -155 7 9 35 -17 33 -51 -4 -31 -33 -39 -36 -105 -42 -39 -3 -71
-4 -71 -1 0 16 32 93 41 99 6 3 20 5 32 3 12 -2 87 -10 167 -19z m511 -143
c-47 -95 -110 -250 -125 -307 -1 -5 -16 -50 -32 -100 -15 -49 -29 -94 -30
-100 0 -5 -6 -23 -12 -38 -7 -16 -12 -34 -12 -40 -1 -14 -24 -47 -34 -47 -4 0
-4 5 0 11 4 7 8 26 10 43 1 17 7 72 13 121 6 50 14 117 17 150 3 33 8 67 11
75 6 18 8 29 21 193 6 71 13 132 16 135 6 6 112 18 178 21 l37 1 -58 -118z
m-207 -52 c-7 -77 -16 -145 -19 -150 -4 -6 -16 -80 -28 -166 l-22 -155 -43 37
c-43 36 -137 154 -179 222 -12 21 -21 52 -21 73 0 20 -7 60 -17 89 -12 37 -15
66 -10 105 l6 54 52 5 c29 3 88 10 132 15 44 4 98 9 121 10 l40 1 -12 -140z
m-437 85 c-8 -8 -33 -24 -56 -36 -22 -11 -41 -25 -41 -29 0 -23 23 -15 88 29
l70 49 -4 -62 c-3 -42 0 -74 11 -103 9 -23 15 -57 13 -74 l-3 -32 -50 41 c-72
61 -96 84 -133 128 -28 32 -32 43 -25 64 7 21 17 26 58 31 90 11 88 11 72 -6z
m-151 -39 c-2 -18 -7 -39 -12 -47 -5 -8 -17 -39 -26 -69 l-18 -55 7 75 c3 41
7 82 8 90 2 23 15 40 30 40 10 0 13 -10 11 -34z m1224 -882 c-96 -26 -183 -43
-260 -49 -41 -3 -109 -10 -150 -15 -41 -5 -100 -12 -130 -14 -54 -5 -260 -31
-332 -43 -21 -3 -38 -8 -38 -12 0 -3 -12 -6 -27 -7 -16 0 -40 -4 -55 -8 l-28
-8 0 65 c0 43 4 66 13 69 6 3 100 5 207 6 107 0 248 3 313 6 112 6 117 5 117
-14 0 -26 27 -26 55 0 23 22 121 34 290 38 l80 1 -55 -15z"/>
</g>
</svg>
