<?xml version="1.0" standalone="no"?>
<!DOCTYPE svg PUBLIC "-//W3C//DTD SVG 20010904//EN"
 "http://www.w3.org/TR/2001/REC-SVG-20010904/DTD/svg10.dtd">
<svg version="1.0" xmlns="http://www.w3.org/2000/svg"
 width="208.000000pt" height="126.000000pt" viewBox="0 0 208.000000 126.000000"
 preserveAspectRatio="xMidYMid meet">
<metadata>
Created by potrace 1.16, written by Peter Selinger 2001-2019
</metadata>
<g transform="translate(0.000000,126.000000) scale(0.100000,-0.100000)"
fill="#000000" stroke="none">
<path d="M783 1222 c-14 -9 0 -191 17 -237 6 -15 10 -71 10 -126 l0 -99 -87 0
c-114 0 -272 21 -393 51 -65 17 -88 29 -93 50 -7 25 -26 24 -61 -4 -25 -20
-27 -26 -16 -43 10 -16 9 -48 -4 -162 -9 -78 -16 -149 -16 -157 0 -19 26 -20
37 -2 12 21 152 121 208 149 90 46 175 66 307 73 l125 7 6 -23 c10 -37 8 -218
-3 -284 -6 -33 -13 -78 -16 -100 -4 -22 -12 -51 -19 -65 -7 -14 -11 -47 -10
-75 2 -27 4 -58 4 -67 1 -10 7 -18 15 -18 9 0 16 17 21 49 6 45 10 50 36 56
34 8 37 18 8 37 -20 13 -21 17 -10 83 6 39 12 88 15 110 3 32 71 273 79 281 1
1 72 5 157 8 161 7 214 11 315 25 50 7 66 5 94 -10 35 -19 130 -125 131 -146
0 -6 3 -13 8 -15 4 -1 25 -24 46 -51 43 -53 125 -117 150 -117 23 0 20 27 -4
40 -37 20 -110 129 -109 164 0 35 32 162 42 172 4 4 7 14 7 23 0 23 48 122 70
146 10 11 20 25 21 30 3 14 60 55 76 55 7 0 13 5 13 10 0 27 -77 0 -160 -54
-38 -26 -72 -46 -75 -46 -10 0 -153 -99 -160 -110 -15 -24 -96 -54 -180 -66
-49 -8 -168 -14 -264 -14 -154 0 -172 2 -167 16 3 9 9 28 12 42 42 177 89 288
154 356 28 29 47 56 43 59 -9 10 -365 8 -380 -1z m274 -90 c-46 -66 -74 -132
-111 -258 -32 -107 -33 -109 -64 -112 -31 -3 -32 -2 -33 40 -2 117 -8 190 -21
258 -24 123 -27 119 116 122 66 2 126 1 133 0 8 -2 0 -21 -20 -50z m699 -258
c-19 -38 -43 -102 -55 -143 -11 -40 -22 -75 -23 -77 -2 -1 -25 28 -51 67 -27
38 -53 69 -59 69 -6 0 2 10 18 22 16 12 31 25 34 29 9 10 120 79 129 79 5 0
14 7 21 15 25 30 20 8 -14 -61z m-1328 -122 c45 -5 85 -11 88 -14 2 -3 -19
-13 -48 -23 -66 -21 -137 -57 -210 -106 -67 -44 -66 -45 -43 74 8 43 15 81 15
84 0 5 29 3 198 -15z m468 -54 c-3 -13 -9 -40 -12 -61 -10 -59 -19 -51 -19 19
0 56 2 64 19 64 14 0 17 -5 12 -22z"/>
</g>
</svg>
