<?xml version="1.0" standalone="no"?>
<!DOCTYPE svg PUBLIC "-//W3C//DTD SVG 20010904//EN"
 "http://www.w3.org/TR/2001/REC-SVG-20010904/DTD/svg10.dtd">
<svg version="1.0" xmlns="http://www.w3.org/2000/svg"
 width="246.000000pt" height="124.000000pt" viewBox="0 0 246.000000 124.000000"
 preserveAspectRatio="xMidYMid meet">
<metadata>
Created by potrace 1.16, written by Peter Selinger 2001-2019
</metadata>
<g transform="translate(0.000000,124.000000) scale(0.100000,-0.100000)"
fill="#000000" stroke="none">
<path d="M1100 1082 c-40 -43 -80 -77 -130 -112 -19 -14 -37 -27 -40 -30 -46
-49 -165 -113 -234 -125 -20 -4 -36 -11 -36 -16 0 -5 -19 -9 -42 -9 -103 0
-310 53 -373 95 -45 31 -49 31 -74 -3 -23 -33 -41 -129 -41 -225 0 -81 11 -90
73 -59 23 11 53 23 67 27 14 5 47 21 75 37 123 70 157 82 247 86 76 3 91 1
117 -17 16 -12 33 -21 37 -21 4 0 18 -10 31 -22 33 -30 52 -17 82 58 13 32 39
81 58 107 19 27 32 51 29 54 -5 6 86 83 119 101 20 10 21 8 19 -39 -2 -27 2
-51 7 -55 6 -3 26 2 45 11 19 9 38 14 43 11 5 -3 28 1 52 9 97 31 307 49 589
50 249 1 275 3 272 18 -2 13 4 15 35 11 21 -2 45 -7 54 -9 9 -3 22 2 29 11 20
23 -2 34 -70 34 -30 0 -136 3 -235 6 -99 3 -265 5 -370 5 -194 -2 -376 17
-383 38 -6 18 -15 13 -52 -27z m265 -53 c44 -1 69 -3 55 -5 -14 -2 -82 -14
-153 -26 -70 -11 -130 -19 -133 -16 -3 3 -2 21 1 40 l6 34 72 -13 c40 -7 108
-13 152 -14z m-519 -233 c-17 -36 -37 -65 -43 -65 -15 -1 -17 15 -3 24 20 13
10 27 -15 21 -14 -4 -35 -1 -47 5 -19 10 -14 14 53 44 41 18 77 34 80 34 3 1
-8 -28 -25 -63z m-588 21 c15 -8 64 -22 109 -33 l81 -19 -116 -57 c-125 -61
-152 -69 -147 -40 2 9 9 50 16 90 7 39 16 72 21 72 5 0 21 -6 36 -13z"/>
<path d="M1730 820 c-19 -3 -57 -16 -85 -27 -27 -12 -70 -29 -95 -38 -25 -9
-60 -30 -77 -48 -45 -43 -57 -83 -44 -153 22 -116 108 -169 264 -162 89 3 146
25 200 76 39 37 77 114 84 170 4 41 1 53 -28 97 -48 71 -131 103 -219 85z
m115 -47 c49 -23 89 -104 79 -159 -29 -164 -188 -239 -347 -164 -57 27 -64 34
-80 77 -40 112 -14 182 80 209 31 9 74 25 97 35 51 23 124 24 171 2z"/>
<path d="M840 545 c-14 -14 -48 -44 -78 -67 l-53 -41 -67 13 c-37 8 -80 14
-97 15 -16 1 -45 5 -64 10 -18 4 -45 8 -60 10 -14 1 -60 9 -101 18 -41 8 -96
18 -121 21 l-46 7 1 -68 c0 -37 -5 -95 -10 -129 -16 -98 -2 -108 61 -44 21 22
45 40 52 40 8 0 39 9 71 20 126 45 352 64 409 35 16 -8 33 -15 40 -15 16 0
111 -49 118 -61 4 -5 30 -21 58 -36 29 -14 71 -42 95 -61 36 -30 42 -40 37
-60 -3 -14 -3 -54 1 -89 6 -57 9 -63 29 -63 12 0 29 7 36 16 21 26 89 51 159
59 36 4 79 9 95 11 17 1 75 8 130 14 55 6 143 17 195 24 52 7 178 13 279 14
140 0 186 4 192 14 5 8 2 15 -10 19 -9 4 -188 10 -397 13 -471 8 -583 14 -611
32 -12 7 -38 15 -58 17 -20 3 -46 13 -58 25 -12 11 -45 31 -74 46 -45 22 -65
39 -69 56 0 3 -6 19 -13 35 -9 20 -11 53 -6 103 7 71 6 72 -17 72 -14 0 -35
-11 -48 -25z m24 -112 c6 -48 -3 -69 -18 -44 -3 5 -22 12 -41 15 -19 4 -35 12
-35 19 0 15 73 78 81 69 4 -4 9 -31 13 -59z m-509 21 c58 -9 102 -20 99 -25
-3 -5 -14 -9 -26 -9 -34 0 -191 -52 -217 -72 -13 -10 -26 -16 -29 -14 -2 3 1
34 9 71 15 76 6 73 164 49z m1138 -298 c48 -2 90 -5 93 -8 2 -3 -60 -11 -138
-18 -140 -12 -279 -40 -303 -60 -10 -8 -14 -3 -17 21 -3 17 -3 42 0 55 l4 24
137 -6 c75 -3 176 -6 224 -8z m204 -2 c-3 -3 -12 -4 -19 -1 -8 3 -5 6 6 6 11
1 17 -2 13 -5z"/>
</g>
</svg>
