<?xml version="1.0" standalone="no"?>
<!DOCTYPE svg PUBLIC "-//W3C//DTD SVG 20010904//EN"
 "http://www.w3.org/TR/2001/REC-SVG-20010904/DTD/svg10.dtd">
<svg version="1.0" xmlns="http://www.w3.org/2000/svg"
 width="195.000000pt" height="110.000000pt" viewBox="0 0 195.000000 110.000000"
 preserveAspectRatio="xMidYMid meet">
<metadata>
Created by potrace 1.16, written by Peter Selinger 2001-2019
</metadata>
<g transform="translate(0.000000,110.000000) scale(0.100000,-0.100000)"
fill="#000000" stroke="none">
<path d="M1006 1008 c-10 -14 -16 -44 -16 -78 l0 -55 -182 8 c-101 4 -235 17
-298 28 -97 16 -120 24 -152 50 -33 26 -43 29 -66 21 -26 -8 -27 -11 -29 -88
-2 -43 -8 -108 -14 -144 -6 -36 -12 -76 -14 -90 -10 -82 -16 -113 -25 -130 -5
-10 -10 -40 -10 -67 0 -52 -5 -62 -34 -79 -27 -15 -32 -34 -10 -40 18 -5 18
-11 8 -102 -6 -58 -7 -104 -2 -115 8 -16 14 -14 49 23 28 29 81 61 182 109
152 73 219 91 344 91 76 0 133 15 133 34 0 14 -132 15 -396 1 -89 -4 -174 -5
-189 -1 -34 9 -36 7 109 90 151 87 178 95 351 101 83 2 156 1 163 -4 11 -7 10
-19 -4 -67 -9 -32 -18 -77 -19 -99 -2 -22 -8 -74 -15 -117 -7 -42 -10 -84 -6
-94 6 -15 10 -14 39 14 33 31 105 63 206 89 79 21 469 30 577 13 88 -14 131
-9 74 8 l-35 10 45 1 c59 2 83 16 40 25 -18 3 -42 3 -55 0 -13 -3 -32 -1 -43
5 -11 6 -62 17 -114 25 -94 15 -116 17 -423 36 -93 6 -185 13 -203 16 l-32 6
22 20 c41 35 87 50 223 72 101 17 237 27 350 26 179 -2 195 -1 195 9 0 17 -80
41 -162 46 -68 5 -111 12 -188 30 -42 10 -116 17 -200 18 -85 2 -114 6 -150
24 -43 20 -68 27 -98 24 -9 -1 -11 -14 -6 -51 l7 -50 -79 0 c-44 0 -97 5 -120
10 -28 7 -60 5 -105 -4 -44 -9 -75 -10 -99 -3 -19 5 -84 14 -143 20 -89 9
-107 13 -105 26 4 19 164 111 194 111 11 0 24 3 28 7 20 21 103 34 382 62 44
4 86 11 93 16 10 5 12 2 8 -11 -3 -11 -7 -39 -9 -64 -4 -53 7 -57 52 -16 39
34 117 69 190 84 181 37 410 53 463 33 20 -8 34 -8 48 -1 26 14 24 30 -4 30
-13 0 -43 6 -68 14 -41 14 -172 32 -302 41 -32 3 -88 12 -123 20 -36 8 -82 15
-103 15 -20 0 -46 7 -57 15 -27 21 -51 18 -68 -7z m239 -53 c44 -8 106 -17
137 -20 32 -4 60 -10 62 -14 3 -4 -32 -13 -77 -20 -109 -17 -232 -48 -286 -72
-24 -11 -46 -17 -49 -15 -2 3 -1 41 3 86 l7 81 62 -6 c33 -3 97 -12 141 -20z
m-782 -76 c40 -5 110 -12 157 -16 73 -6 79 -8 45 -14 -126 -20 -219 -46 -289
-80 -43 -22 -80 -38 -81 -37 -2 3 21 190 24 195 0 1 17 -7 36 -19 20 -11 67
-24 108 -29z m706 -239 c88 0 137 -6 203 -23 l86 -23 -136 -18 c-247 -34 -317
-50 -372 -85 -23 -15 -24 -15 -16 4 4 11 15 54 24 96 l16 77 39 -14 c25 -9 83
-14 156 -14z m-689 -58 c14 -5 -11 -24 -108 -79 -144 -82 -147 -81 -119 27 11
43 19 56 38 61 28 7 162 1 189 -9z m965 -206 c183 -15 256 -28 242 -42 -3 -3
-15 -1 -26 5 -14 8 -83 10 -208 8 -206 -4 -323 -21 -465 -66 l-88 -28 0 22 c0
12 7 45 16 74 l15 52 157 -4 c86 -2 247 -11 357 -21z m-1075 -92 c-74 -35
-142 -72 -152 -81 -10 -9 -20 -14 -22 -12 -1 2 2 39 7 82 l10 77 146 0 146 0
-135 -66z"/>
</g>
</svg>
