<?xml version="1.0" standalone="no"?>
<!DOCTYPE svg PUBLIC "-//W3C//DTD SVG 20010904//EN"
 "http://www.w3.org/TR/2001/REC-SVG-20010904/DTD/svg10.dtd">
<svg version="1.0" xmlns="http://www.w3.org/2000/svg"
 width="260.000000pt" height="124.000000pt" viewBox="0 0 260.000000 124.000000"
 preserveAspectRatio="xMidYMid meet">
<metadata>
Created by potrace 1.16, written by Peter Selinger 2001-2019
</metadata>
<g transform="translate(0.000000,124.000000) scale(0.100000,-0.100000)"
fill="#000000" stroke="none">
<path d="M520 1210 c-17 -11 -17 -161 0 -250 11 -53 17 -212 12 -295 -1 -22
-1 -53 2 -70 15 -115 27 -255 24 -275 -4 -22 -6 -20 -16 15 -6 22 -13 56 -14
75 -2 19 -6 37 -10 40 -8 6 -35 102 -49 175 -37 197 -57 287 -66 296 -7 7 -23
4 -49 -10 -21 -12 -49 -21 -61 -21 -55 0 -99 -50 -58 -66 8 -4 15 -10 15 -15
0 -9 86 -185 116 -239 12 -19 33 -69 49 -110 16 -41 52 -122 81 -180 29 -58
57 -124 63 -146 14 -53 35 -72 62 -56 32 20 218 48 441 66 64 5 66 4 72 -19 8
-32 44 -52 52 -30 3 8 3 26 0 39 l-6 24 157 1 c86 1 159 3 162 6 16 9 333 15
351 5 12 -7 41 -7 87 0 37 5 68 8 70 7 1 -2 -4 -28 -11 -60 -14 -60 -13 -67
15 -67 21 0 39 28 39 61 0 12 6 30 14 38 7 9 21 40 31 68 9 29 21 53 25 53 5
0 9 15 8 33 -1 39 22 146 34 153 4 3 8 17 8 30 0 14 13 58 28 97 16 40 34 95
41 122 36 141 143 375 171 375 5 0 10 9 10 19 0 30 -54 42 -212 46 -186 5
-633 14 -1023 21 -171 3 -335 9 -365 14 -30 5 -93 12 -138 15 -46 3 -92 10
-102 15 -23 12 -41 12 -60 0z m475 -90 c105 -5 298 -10 430 -11 132 -1 278 -4
325 -8 l85 -6 -165 -13 c-162 -13 -281 -30 -410 -58 -69 -15 -264 -39 -440
-54 -58 -5 -124 -12 -147 -15 -35 -5 -42 -3 -47 13 -10 30 -9 143 0 152 16 14
48 18 114 14 36 -2 151 -8 255 -14z m1335 -45 c0 -3 -14 -36 -30 -73 -49 -107
-95 -228 -135 -352 -20 -63 -48 -146 -61 -185 l-25 -70 6 105 c3 58 13 141 22
186 15 74 19 82 46 92 25 10 28 14 17 27 -7 8 -19 15 -26 15 -17 0 -17 3 -3
71 5 30 12 78 13 107 2 29 6 55 8 58 14 13 168 31 168 19z m-234 -97 c-10
-135 -16 -167 -35 -172 -9 -3 -70 -10 -136 -16 -66 -6 -147 -15 -180 -19 -33
-5 -61 -8 -62 -7 -5 4 91 131 128 171 21 22 50 57 66 77 30 39 40 42 172 46
l54 2 -7 -82z m-276 55 c0 -8 -76 -110 -110 -148 -16 -16 -41 -49 -56 -71 -75
-107 -140 -187 -161 -195 -17 -6 -23 -17 -23 -38 0 -15 -7 -34 -15 -41 -9 -7
-50 -56 -92 -107 -41 -52 -77 -92 -79 -90 -9 9 90 232 238 534 l69 142 52 5
c29 4 75 8 102 9 28 2 56 4 63 5 6 1 12 -1 12 -5z m-310 -40 c-1 -37 -26 -76
-48 -78 -23 -2 -28 17 -16 62 5 19 14 24 57 32 4 0 7 -7 7 -16z m-122 -84
c-18 -12 -24 57 -6 78 11 14 13 10 16 -27 2 -28 -1 -46 -10 -51z m-58 41 c0
-33 -3 -40 -20 -40 -11 0 -18 5 -15 13 28 81 35 86 35 27z m-153 -32 c-3 -7
-5 -2 -5 12 0 14 2 19 5 13 2 -7 2 -19 0 -25z m-242 -4 c-16 -7 -40 -13 -51
-14 -12 0 -32 -9 -45 -19 l-24 -19 23 -40 c32 -58 30 -75 -10 -67 -55 12 -176
66 -195 87 -17 19 -17 21 7 40 19 16 33 18 68 13 28 -4 48 -2 58 6 19 15 63
24 138 25 59 2 60 1 31 -12z m114 -101 c36 -231 37 -220 -18 -215 -34 3 -40 9
-60 48 -13 29 -19 54 -15 69 5 18 2 25 -9 25 -18 0 -53 93 -37 98 5 2 29 14
53 27 69 38 73 35 86 -52z m411 54 c0 -11 -33 -67 -37 -63 -10 10 9 66 23 66
8 0 14 -2 14 -3z m-350 -23 c0 -8 -5 -12 -10 -9 -6 4 -8 11 -5 16 9 14 15 11
15 -7z m206 -6 c-3 -13 -6 -26 -6 -30 0 -5 -7 -8 -16 -8 -11 0 -14 5 -10 16 3
9 6 22 6 30 0 8 7 14 16 14 12 0 15 -6 10 -22z m70 6 c-3 -9 -6 -22 -6 -30 0
-8 -7 -14 -16 -14 -11 0 -14 5 -10 16 3 9 6 22 6 30 0 8 7 14 16 14 11 0 14
-5 10 -16z m-1016 -8 c0 -2 9 -41 21 -87 11 -46 22 -92 23 -104 1 -11 5 -27 9
-35 14 -36 37 -112 36 -123 -1 -20 -38 66 -39 91 0 12 -4 22 -8 22 -9 0 -61
104 -66 130 -1 8 -11 32 -21 53 -17 33 -17 39 -5 47 15 9 50 14 50 6z m837
-18 c-3 -8 -6 -5 -6 6 -1 11 2 17 5 13 3 -3 4 -12 1 -19z m-50 -10 c-3 -8 -6
-5 -6 6 -1 11 2 17 5 13 3 -3 4 -12 1 -19z m-457 -70 c0 -8 -65 -28 -92 -28
-12 0 -18 8 -18 24 0 52 7 56 61 33 27 -12 49 -24 49 -29z m1354 6 c3 -9 1
-24 -4 -34 -6 -10 -10 -27 -10 -38 0 -13 -11 -22 -37 -30 -43 -13 -420 -38
-429 -29 -4 3 8 25 27 49 18 24 34 45 36 47 1 2 24 5 50 7 26 2 91 11 143 18
52 8 115 18 140 21 25 4 47 8 48 10 7 7 31 -7 36 -21z m-759 -41 c-8 -65 -12
-76 -26 -67 -6 3 -7 26 -4 52 8 62 12 72 26 72 8 0 9 -17 4 -57z m83 37 c10
-16 8 -27 -10 -65 -12 -25 -27 -44 -33 -41 -5 2 -8 10 -6 17 2 8 6 30 8 49 8
65 18 76 41 40z m-231 -22 c-3 -7 -5 -2 -5 12 0 14 2 19 5 13 2 -7 2 -19 0
-25z m-227 -69 c12 -23 20 -43 18 -45 -10 -9 -358 -16 -358 -7 0 27 81 66 162
78 145 23 154 21 178 -26z m1110 -106 c0 -32 -5 -89 -10 -128 -5 -38 -10 -97
-11 -130 -3 -85 -1 -83 -67 -72 -39 7 -104 6 -207 -1 -82 -7 -225 -12 -317
-12 l-168 0 46 63 c25 34 58 76 73 94 l27 32 230 6 c253 7 379 22 379 45 0 17
-5 17 -160 2 -134 -14 -375 -15 -394 -3 -12 8 -9 16 15 43 16 18 36 43 44 56
14 20 28 23 165 33 83 6 182 14 220 18 39 5 85 9 103 10 l32 1 0 -57z m-755
-10 c0 -50 -3 -58 -21 -61 -19 -3 -20 1 -14 45 11 90 37 101 35 16z m48 42
c-3 -9 -8 -14 -10 -11 -3 3 -2 9 2 15 9 16 15 13 8 -4z m-122 -85 c-9 -23 -10
-21 -10 17 -1 56 13 91 17 43 2 -20 -1 -47 -7 -60z m-117 48 c3 -18 7 -62 10
-98 3 -36 9 -76 12 -89 5 -17 4 -22 -4 -17 -7 4 -12 20 -12 36 0 16 -6 33 -13
37 -12 7 -63 133 -55 136 1 1 12 7 23 14 30 18 34 16 39 -19z m73 -30 c-2 -13
-4 -3 -4 22 0 25 2 35 4 23 2 -13 2 -33 0 -45z m-387 28 c-8 -7 -45 -21 -81
-29 -36 -9 -73 -19 -82 -23 -14 -5 -17 0 -17 24 0 35 2 36 115 40 68 2 77 0
65 -12z m225 -58 c8 -28 15 -55 15 -59 0 -16 -138 -22 -240 -9 -143 17 -158
24 -90 39 30 7 96 25 145 41 90 29 119 37 142 39 7 0 19 -22 28 -51z m255 -55
c-1 -5 -8 -19 -16 -33 -8 -14 -13 -17 -10 -7 3 10 6 25 6 33 0 8 5 14 10 14 6
0 10 -3 10 -7z m-518 -50 c48 -3 87 -8 85 -10 -5 -5 -167 -33 -189 -33 -13 0
-18 8 -18 31 0 25 3 30 16 25 9 -4 57 -9 106 -13z m457 -20 c18 -17 17 -19 -4
-62 l-23 -45 -4 62 c-3 66 2 73 31 45z m-130 -55 c9 -26 19 -50 24 -54 19 -19
0 -24 -80 -20 -49 3 -152 8 -231 12 -78 3 -144 10 -147 13 -8 13 10 28 40 33
17 3 65 13 108 22 91 20 248 45 261 42 5 -1 17 -23 25 -48z m-174 -112 c14 -4
-87 -24 -177 -33 l-78 -9 0 26 0 25 122 -3 c68 -1 128 -4 133 -6z"/>
</g>
</svg>
