<?xml version="1.0" standalone="no"?>
<!DOCTYPE svg PUBLIC "-//W3C//DTD SVG 20010904//EN"
 "http://www.w3.org/TR/2001/REC-SVG-20010904/DTD/svg10.dtd">
<svg version="1.0" xmlns="http://www.w3.org/2000/svg"
 width="123.000000pt" height="126.000000pt" viewBox="0 0 123.000000 126.000000"
 preserveAspectRatio="xMidYMid meet">
<metadata>
Created by potrace 1.16, written by Peter Selinger 2001-2019
</metadata>
<g transform="translate(0.000000,126.000000) scale(0.100000,-0.100000)"
fill="#000000" stroke="none">
<path d="M926 1121 c-15 -16 -15 -19 -1 -31 10 -9 15 -31 15 -76 0 -56 -2 -64
-19 -64 -10 0 -40 -3 -66 -7 l-47 -6 7 34 c4 18 16 52 26 75 14 34 15 45 5 53
-16 13 -179 11 -188 -3 -4 -6 -8 -43 -8 -82 0 -81 -3 -84 -89 -84 -30 0 -42 4
-38 13 2 6 12 39 22 72 9 33 21 66 27 72 12 15 -27 33 -69 31 -15 0 -52 1 -81
2 -62 4 -95 -16 -69 -41 7 -8 12 -20 10 -27 -3 -6 3 -19 11 -28 9 -9 16 -32
16 -55 l0 -39 -116 5 c-63 2 -122 1 -130 -2 -12 -4 -14 -21 -10 -91 3 -47 10
-90 15 -95 5 -5 28 1 57 16 27 13 78 32 113 41 76 21 81 17 81 -61 0 -52 0
-52 -36 -59 -20 -4 -74 -4 -120 -1 -46 2 -86 2 -88 -2 -2 -3 -1 -42 2 -86 7
-78 8 -80 32 -77 14 1 27 7 28 12 2 6 8 10 13 10 5 0 32 11 59 24 28 14 64 27
79 31 l29 6 -8 -43 c-5 -24 -9 -44 -9 -45 -1 -2 -1 -22 -1 -44 l0 -41 -63 6
c-34 3 -79 8 -99 12 -34 6 -39 4 -48 -21 -14 -37 -13 -138 3 -158 11 -16 16
-15 72 7 33 13 75 27 93 31 l34 7 -7 -75 c-8 -85 -1 -117 24 -117 15 0 18 11
20 73 1 39 5 88 9 107 8 34 9 35 91 53 45 10 85 17 87 14 3 -3 -8 -140 -19
-217 -1 -8 5 -16 14 -18 22 -4 39 46 39 116 0 66 18 130 39 141 14 7 99 22
204 35 32 4 37 2 33 -12 -2 -9 -7 -35 -11 -57 -4 -21 -13 -52 -21 -67 -8 -14
-11 -33 -8 -41 5 -15 53 -41 61 -33 3 2 6 48 9 102 2 54 7 101 12 106 5 5 38
10 74 12 68 3 128 23 128 42 0 21 -24 22 -113 6 -48 -8 -89 -13 -91 -11 -3 3
13 80 41 197 8 33 35 43 96 36 38 -4 57 -3 62 6 12 19 -6 28 -68 34 -33 2 -61
7 -63 9 -6 6 31 138 45 166 7 12 18 21 25 21 21 0 27 28 9 39 -15 8 -15 14 1
71 17 61 17 78 -2 66 -11 -6 -42 -96 -42 -120 0 -18 -30 -36 -59 -36 -18 0
-21 6 -21 48 0 61 7 70 55 74 28 2 41 8 43 21 3 14 -4 17 -42 17 -25 0 -48 5
-51 10 -10 15 -30 12 -49 -9z m-116 -68 c-5 -16 -14 -47 -20 -70 l-11 -43 -51
0 -51 0 7 46 c3 26 6 55 6 65 0 15 10 19 63 22 34 2 63 4 64 5 1 1 -2 -10 -7
-25z m-294 1 c-3 -8 -8 -36 -12 -64 -5 -39 -11 -50 -24 -50 -10 0 -24 -2 -32
-5 -10 -4 -17 12 -25 57 -7 34 -10 64 -8 67 2 3 26 6 55 7 39 1 50 -2 46 -12z
m508 -150 c-3 -14 -11 -45 -19 -67 -8 -23 -15 -50 -15 -59 0 -10 -9 -22 -21
-28 -20 -11 -20 -10 -14 72 7 85 19 108 56 108 14 0 17 -6 13 -26z m-637 -18
c13 -12 -9 -36 -32 -36 -14 0 -40 -6 -58 -13 -18 -8 -49 -17 -69 -21 -39 -7
-44 -1 -46 55 l-2 26 101 -3 c56 -1 103 -5 106 -8z m93 -1 c0 -10 -10 -15 -30
-15 -29 0 -38 9 -23 23 13 13 53 7 53 -8z m108 10 c-10 -11 -79 -15 -73 -5 3
5 22 10 42 10 20 0 34 -2 31 -5z m348 -42 c-4 -27 -9 -65 -12 -85 l-6 -38 -84
0 -84 0 6 28 c4 15 15 50 24 77 18 55 31 61 119 64 l43 1 -6 -47z m-171 25
c-2 -7 -13 -46 -25 -85 -19 -65 -24 -73 -45 -73 -24 0 -25 3 -24 53 2 83 10
101 49 108 19 4 38 7 42 8 4 0 6 -5 3 -11z m-132 -159 c-14 -14 -123 -23 -123
-10 0 6 -5 11 -11 11 -5 0 -7 -4 -4 -10 3 -5 1 -10 -4 -10 -14 0 -14 8 0 85
l12 62 66 9 66 9 3 -69 c2 -38 -1 -73 -5 -77z m-169 53 c-6 -57 -18 -92 -28
-82 -2 3 -7 35 -10 72 -5 63 -4 67 17 70 12 2 23 3 25 2 2 -1 0 -29 -4 -62z
m451 -189 c-4 -65 -9 -120 -11 -122 -2 -3 -54 -7 -114 -9 -87 -4 -110 -2 -110
9 0 7 9 45 19 83 11 39 22 83 25 97 5 25 11 27 73 34 36 4 76 11 87 15 12 5
25 9 29 9 5 1 6 -52 2 -116z m36 57 c-9 -23 -10 -23 -10 11 -1 20 2 39 7 43
11 12 14 -27 3 -54z m-321 42 c0 -4 -34 -12 -75 -18 -41 -5 -75 -6 -75 -2 0 3
26 9 58 13 31 4 62 8 67 10 18 6 25 5 25 -3z m-230 -34 c0 -7 -40 -26 -88 -41
-48 -16 -93 -31 -99 -34 -9 -3 -13 7 -13 36 l0 40 63 4 c34 2 79 4 100 5 24 1
37 -2 37 -10z m50 2 c0 -5 -4 -10 -10 -10 -5 0 -10 5 -10 10 0 6 5 10 10 10 6
0 10 -4 10 -10z m243 -22 c-3 -18 -12 -50 -19 -73 l-13 -40 0 61 c-1 55 10 84
31 84 4 0 5 -14 1 -32z m-68 -80 c-4 -57 -8 -104 -9 -105 -1 -1 -39 -5 -84 -9
-95 -8 -90 -16 -71 112 12 76 12 76 40 72 16 -3 29 -1 29 3 0 6 57 23 94 28 4
1 5 -45 1 -101z m-191 -10 c-4 -40 -7 -79 -7 -85 0 -7 -4 -13 -8 -13 -10 0
-17 70 -7 76 4 3 8 22 8 43 0 34 6 51 17 51 2 0 1 -33 -3 -72z m-94 -138 c34
0 37 -2 32 -25 -3 -19 -14 -27 -46 -36 -22 -5 -57 -14 -76 -20 -50 -13 -50
-13 -50 25 0 61 7 69 58 62 25 -3 62 -6 82 -6z m205 -10 c-87 -23 -105 -24
-105 -6 0 17 30 23 115 23 l60 1 -70 -18z"/>
</g>
</svg>
