<?xml version="1.0" standalone="no"?>
<!DOCTYPE svg PUBLIC "-//W3C//DTD SVG 20010904//EN"
 "http://www.w3.org/TR/2001/REC-SVG-20010904/DTD/svg10.dtd">
<svg version="1.0" xmlns="http://www.w3.org/2000/svg"
 width="260.000000pt" height="154.000000pt" viewBox="0 0 260.000000 154.000000"
 preserveAspectRatio="xMidYMid meet">
<metadata>
Created by potrace 1.16, written by Peter Selinger 2001-2019
</metadata>
<g transform="translate(0.000000,154.000000) scale(0.100000,-0.100000)"
fill="#000000" stroke="none">
<path d="M704 1493 c-18 -52 -50 -107 -78 -136 -48 -48 -116 -110 -166 -152
-25 -21 -45 -46 -46 -55 -1 -22 -41 -80 -69 -100 -11 -8 -31 -15 -45 -15 -19
0 -24 -5 -22 -20 1 -13 -9 -27 -32 -42 -19 -12 -49 -44 -67 -70 -18 -26 -41
-54 -51 -61 -9 -7 -15 -19 -11 -27 4 -13 21 -14 97 -9 83 6 97 4 161 -21 39
-14 91 -33 116 -41 29 -9 60 -29 83 -54 l36 -39 -9 -118 c-10 -151 -8 -153 85
-115 75 31 135 48 204 57 24 3 76 17 115 30 38 12 87 26 107 29 21 4 44 13 52
21 13 14 66 22 66 10 0 -2 -11 -21 -25 -41 -29 -43 -30 -47 -10 -64 13 -10 23
-11 53 -1 33 11 62 9 208 -13 93 -15 183 -31 199 -35 40 -12 161 -61 248 -99
56 -26 67 -27 67 -7 0 24 -67 66 -243 149 -91 43 -164 82 -162 86 2 4 -1 7 -8
7 -7 0 -39 13 -71 29 -40 19 -54 30 -41 33 25 4 127 -17 213 -45 48 -15 80
-21 90 -15 10 5 26 8 37 7 38 -4 130 -39 175 -66 96 -59 158 -63 134 -9 -13
29 -284 175 -471 254 -24 10 -43 21 -43 25 0 11 55 17 76 9 11 -4 35 -8 56 -8
59 -1 266 -76 373 -134 19 -10 84 -25 130 -30 41 -4 18 29 -55 80 -41 29 -79
52 -84 53 -4 0 -25 13 -45 29 -20 16 -98 61 -174 101 -92 49 -134 77 -128 83
12 12 97 -4 181 -35 30 -11 80 -28 110 -39 30 -11 89 -37 130 -58 41 -21 92
-41 113 -45 20 -4 37 -11 37 -15 0 -8 53 -31 71 -31 20 0 7 38 -16 48 -49 22
-281 181 -338 231 -32 28 -75 60 -95 70 -21 11 -52 35 -71 55 -39 41 -56 37
-89 -17 l-20 -34 -62 8 c-34 5 -114 8 -178 8 -184 -3 -294 9 -313 33 -13 16
-20 18 -35 10 -21 -12 -41 1 -137 90 -135 124 -216 211 -222 239 -7 33 -9 34
-53 44 -26 5 -33 3 -38 -12z m146 -172 l77 -78 -76 32 c-42 18 -96 36 -119 40
-23 4 -42 9 -42 12 0 20 45 73 62 73 12 0 52 -32 98 -79z m-159 -139 c53 -54
97 -90 146 -118 23 -14 43 -30 43 -35 0 -14 -16 -11 -30 6 -7 8 -22 15 -34 15
-25 1 -101 51 -101 67 0 20 -23 37 -73 51 -42 12 -61 16 -119 21 -13 1 -5 14
32 47 l49 46 26 -32 c14 -17 41 -48 61 -68z m154 46 c44 -21 87 -45 95 -52 8
-8 34 -23 58 -35 24 -12 61 -39 83 -61 37 -36 39 -41 33 -79 -9 -55 4 -58 102
-27 50 15 118 27 184 32 109 7 114 8 218 5 65 -1 81 -14 36 -31 -18 -7 -24
-16 -22 -32 2 -18 -1 -22 -17 -20 -11 1 -69 2 -130 1 -203 -2 -249 -1 -350 6
l-100 8 -42 47 c-24 27 -73 68 -110 93 -38 24 -86 61 -108 80 -22 20 -43 37
-47 37 -4 0 -17 18 -29 41 l-20 41 43 -7 c24 -4 79 -25 123 -47z m-226 -107
c16 -12 32 -21 35 -21 4 0 19 -8 34 -19 28 -19 97 -61 159 -96 64 -36 77 -68
74 -183 -1 -33 -2 -33 -33 -27 -18 4 -49 21 -68 38 -186 161 -340 310 -340
330 0 17 108 0 139 -22z m-105 -83 c35 -35 82 -78 105 -97 23 -18 40 -35 38
-37 -5 -5 -184 51 -241 76 l-47 21 36 41 c19 23 35 45 35 50 0 16 12 7 74 -54z
m1353 16 c17 -13 36 -24 41 -24 6 0 31 -19 57 -42 26 -24 60 -53 74 -66 l26
-23 -55 22 c-30 12 -75 28 -100 36 -25 8 -69 22 -97 31 -55 17 -64 26 -38 36
8 3 15 14 15 24 0 23 20 43 34 35 6 -3 25 -17 43 -29z m-561 -1 c-4 -4 -27
-12 -51 -19 -39 -9 -47 -9 -60 6 -14 16 -11 17 51 18 37 1 64 -2 60 -5z m-963
-114 c13 -6 32 -24 41 -40 10 -17 37 -44 59 -60 39 -28 66 -59 52 -59 -4 0
-27 9 -53 19 -107 43 -135 51 -187 51 -30 0 -55 3 -55 6 0 10 43 68 60 81 19
15 52 16 83 2z m159 -28 c47 -15 109 -34 139 -41 30 -7 70 -26 89 -41 l36 -29
-10 -90 c-8 -80 -11 -90 -29 -90 -18 0 -97 73 -97 90 0 4 -20 21 -44 38 -25
18 -48 41 -51 52 -4 11 -25 33 -48 49 -35 24 -89 91 -73 91 2 0 42 -13 88 -29z
m1294 -62 c93 -49 247 -141 269 -162 6 -5 -14 3 -44 18 -71 36 -239 91 -323
106 -38 7 -68 17 -68 22 0 14 44 66 56 66 6 1 56 -22 110 -50z m-627 35 c52
-6 59 -9 44 -19 -10 -7 -43 -18 -73 -24 -30 -6 -76 -23 -102 -36 -26 -14 -52
-25 -58 -25 -5 0 -10 22 -10 49 0 43 3 50 23 54 37 7 110 7 176 1z m415 -13
c3 -5 -3 -20 -14 -34 -11 -14 -20 -34 -20 -46 0 -18 -3 -19 -25 -9 -14 6 -25
17 -25 25 0 28 -40 13 -54 -21 -16 -38 -31 -50 -48 -40 -7 5 -58 9 -113 10
-217 3 -229 4 -220 13 6 5 50 19 100 31 49 12 97 26 106 30 9 5 47 14 85 20
38 6 73 15 77 19 12 12 144 13 151 2z m-707 -136 c29 -4 57 -13 64 -21 10 -13
15 -13 34 0 17 11 41 13 99 9 80 -6 84 -17 11 -29 -33 -5 -214 -51 -277 -70
-15 -4 -18 1 -18 34 0 62 11 104 24 93 6 -5 34 -12 63 -16z m697 -21 c44 -20
100 -44 123 -55 24 -10 49 -19 57 -19 16 0 66 -39 51 -40 -6 0 -62 11 -125 24
-63 13 -137 25 -165 25 -42 1 -62 3 -93 10 -6 2 41 75 52 83 15 10 9 12 100
-28z m-194 -24 c0 -5 -12 -10 -27 -10 -21 -1 -36 -12 -61 -44 l-33 -44 -31 15
c-25 13 -54 15 -161 9 -75 -3 -127 -2 -122 3 6 4 46 16 90 26 44 9 94 22 110
27 66 23 235 36 235 18z m2 -100 c6 0 19 -6 27 -14 9 -7 61 -37 116 -65 58
-31 88 -50 70 -47 -16 3 -88 15 -160 27 -71 12 -137 23 -145 24 -8 2 -18 4
-22 4 -15 2 -7 17 32 59 36 40 41 43 55 28 9 -9 21 -16 27 -16z m-650 -5 c20
-4 26 -10 22 -23 -4 -10 -3 -13 3 -6 14 19 63 23 197 16 l129 -7 -119 -29
c-149 -36 -249 -65 -282 -82 -14 -7 -30 -11 -34 -8 -9 6 -10 141 -2 156 2 3
16 2 32 -3 15 -4 39 -11 54 -14z"/>
</g>
</svg>
