<?xml version="1.0" standalone="no"?>
<!DOCTYPE svg PUBLIC "-//W3C//DTD SVG 20010904//EN"
 "http://www.w3.org/TR/2001/REC-SVG-20010904/DTD/svg10.dtd">
<svg version="1.0" xmlns="http://www.w3.org/2000/svg"
 width="208.000000pt" height="214.000000pt" viewBox="0 0 208.000000 214.000000"
 preserveAspectRatio="xMidYMid meet">
<metadata>
Created by potrace 1.16, written by Peter Selinger 2001-2019
</metadata>
<g transform="translate(0.000000,214.000000) scale(0.100000,-0.100000)"
fill="#000000" stroke="none">
<path d="M807 1813 c-20 -16 -43 -41 -51 -58 -8 -16 -31 -46 -51 -65 -70 -67
-64 -93 24 -105 36 -5 54 -13 65 -30 8 -13 29 -26 46 -30 36 -8 36 -9 10 -45
-28 -40 -90 -150 -90 -161 0 -27 33 -1 66 51 40 65 49 74 34 34 -6 -14 -10
-65 -10 -114 0 -49 -4 -91 -9 -94 -9 -6 -97 79 -95 92 1 4 5 58 8 121 3 63 11
120 17 127 11 14 4 34 -12 34 -22 0 -39 -71 -39 -160 0 -90 -9 -110 -30 -69
-6 11 -20 23 -30 27 -10 4 -59 54 -109 112 -73 83 -95 116 -107 158 -11 37
-22 56 -37 62 -26 9 -57 -13 -57 -42 0 -10 -39 -60 -86 -111 -48 -50 -91 -102
-97 -115 -16 -35 13 -53 83 -51 68 1 190 -10 210 -21 8 -4 38 -13 67 -19 28
-7 75 -28 104 -47 29 -19 58 -34 64 -34 7 0 12 -28 12 -78 0 -87 9 -125 26
-119 8 3 11 28 8 82 l-3 78 49 -43 50 -43 5 -119 c5 -113 16 -156 33 -128 4 7
7 54 6 106 -1 52 2 94 7 94 4 0 28 -21 51 -46 l44 -45 -7 -100 c-6 -95 -5 -99
14 -99 16 0 20 7 21 38 0 20 3 54 7 75 l7 38 34 -35 c31 -32 34 -41 40 -116 3
-44 10 -81 15 -83 14 -3 27 53 22 90 -6 41 5 49 31 20 15 -16 22 -42 27 -97 3
-41 8 -84 10 -95 3 -11 5 -32 5 -47 1 -34 30 -39 32 -5 2 35 -2 129 -7 160
l-4 28 31 -23 c41 -30 47 -48 61 -189 8 -78 16 -119 24 -119 18 0 21 27 15
123 -5 77 -4 87 11 87 9 0 19 6 22 13 3 6 2 -31 -1 -83 -10 -130 -7 -183 14
-264 28 -105 59 -101 41 6 -10 60 1 99 43 143 20 21 91 109 124 155 26 36 162
180 169 180 3 0 6 -7 6 -15 0 -8 6 -15 14 -15 20 0 36 23 35 51 0 13 1 33 3
44 2 15 -3 21 -22 23 -13 2 -45 21 -70 41 -25 20 -70 55 -100 77 -73 52 -126
98 -245 213 -55 53 -130 121 -165 150 -36 30 -93 87 -128 128 -34 40 -69 73
-78 73 -15 0 -94 114 -94 137 0 7 -4 13 -10 13 -5 0 -18 27 -27 60 -21 70 -38
76 -96 33z m73 -115 c18 -35 41 -77 52 -95 l19 -32 -43 13 c-52 16 -151 50
-157 54 -3 1 10 17 27 35 18 18 32 37 32 42 0 8 30 45 36 45 1 0 17 -28 34
-62z m-461 -120 c6 -18 26 -49 44 -68 18 -19 52 -56 75 -82 l43 -46 -48 13
c-26 7 -64 18 -83 24 -19 6 -72 14 -118 18 l-83 8 73 82 c40 45 76 82 80 82 3
1 11 -14 17 -31z m601 -103 c0 -3 -30 -5 -67 -5 l-68 1 28 24 28 25 39 -20
c22 -11 40 -23 40 -25z m115 -65 l39 -40 -59 -1 c-33 0 -74 -1 -92 -2 -28 -2
-30 0 -21 18 13 27 59 65 78 65 9 0 34 -18 55 -40z m-190 -69 c-23 -47 -45
-93 -48 -101 -3 -8 -5 31 -4 88 l2 103 47 -2 46 -3 -43 -85z m305 -35 l38 -34
-47 -8 c-73 -12 -111 -13 -111 -2 0 11 64 78 75 78 4 0 25 -15 45 -34z m-130
19 c0 -3 -17 -42 -39 -88 -21 -45 -42 -92 -45 -104 -16 -50 -26 -18 -26 78 0
75 -3 100 -12 97 -19 -7 -30 -75 -26 -166 l4 -83 -43 43 c-33 33 -43 50 -43
75 0 25 4 31 15 27 10 -4 18 3 26 22 34 92 35 93 107 97 37 2 70 4 75 5 4 1 7
0 7 -3z m282 -156 c18 -19 59 -57 90 -85 53 -48 55 -52 35 -58 -12 -3 -57 -6
-100 -6 -77 0 -78 1 -72 23 6 20 20 42 50 83 16 22 -2 27 -49 15 -61 -15 -116
-14 -116 2 0 16 29 59 47 70 7 4 13 17 13 29 0 18 3 18 34 -10 19 -16 49 -45
68 -63z m-162 56 c0 -3 -8 -22 -19 -43 -10 -20 -28 -69 -40 -108 -12 -39 -28
-80 -37 -90 -8 -11 -13 -14 -12 -9 3 13 -12 145 -19 168 -2 10 -11 16 -18 13
-9 -3 -12 0 -9 9 3 8 14 17 25 20 10 4 19 12 19 20 0 7 7 11 18 9 9 -2 31 0
47 5 37 11 45 12 45 6z m-149 -264 c-4 -23 -4 -23 -37 12 -19 20 -34 41 -34
48 0 6 12 30 28 54 l27 42 10 -66 c6 -36 9 -77 6 -90z m233 101 c-9 -20 -25
-47 -36 -59 -11 -12 -17 -26 -14 -31 3 -6 -1 -27 -10 -48 -15 -35 -15 -39 1
-50 11 -8 19 -32 22 -61 l5 -48 -30 30 -31 30 -1 130 c-1 72 -1 133 -1 136 1
4 26 7 55 8 l55 1 -15 -38z m300 -84 c46 -36 121 -108 113 -108 -3 0 -37 -7
-74 -14 -95 -20 -209 -30 -217 -18 -13 21 97 171 128 172 4 0 27 -14 50 -32z
m-209 -103 c-36 -58 -65 -111 -65 -117 0 -6 -3 -9 -6 -5 -3 3 -9 53 -13 111
l-6 105 50 4 c117 8 112 21 40 -98z m-232 48 c-1 -27 -2 -52 -2 -57 -1 -5 -11
0 -24 12 -25 24 -33 62 -13 62 8 0 19 7 26 15 7 8 13 15 14 15 1 0 1 -21 -1
-47z m536 -122 c-13 -16 -71 -82 -129 -146 -58 -64 -115 -130 -128 -148 l-23
-32 6 120 c10 179 18 194 100 195 17 0 62 9 100 19 97 27 102 26 74 -8z m-316
-101 c-4 -16 -8 -18 -19 -9 -20 16 -17 29 5 29 14 0 18 -5 14 -20z"/>
</g>
</svg>
