<?xml version="1.0" standalone="no"?>
<!DOCTYPE svg PUBLIC "-//W3C//DTD SVG 20010904//EN"
 "http://www.w3.org/TR/2001/REC-SVG-20010904/DTD/svg10.dtd">
<svg version="1.0" xmlns="http://www.w3.org/2000/svg"
 width="340.000000pt" height="169.000000pt" viewBox="0 0 340.000000 169.000000"
 preserveAspectRatio="xMidYMid meet">
<metadata>
Created by potrace 1.16, written by Peter Selinger 2001-2019
</metadata>
<g transform="translate(0.000000,169.000000) scale(0.100000,-0.100000)"
fill="#000000" stroke="none">
<path d="M1829 1570 c-28 -16 -122 -23 -164 -11 -35 10 -42 9 -55 -7 -9 -10
-20 -17 -26 -15 -11 4 -29 -72 -20 -85 16 -27 36 -366 22 -380 -4 -3 -16 4
-29 14 -12 11 -34 28 -49 37 -16 10 -28 24 -28 32 0 8 -6 12 -13 9 -14 -5
-155 95 -235 168 -55 49 -72 58 -72 36 0 -13 95 -95 175 -153 94 -68 127 -95
116 -95 -20 0 -70 28 -191 109 -129 85 -122 81 -222 138 -115 65 -113 64 -88
96 12 15 25 27 29 27 4 0 28 -13 52 -30 24 -16 47 -30 51 -30 18 0 -6 28 -48
55 -36 24 -44 34 -39 53 4 15 1 22 -9 22 -9 0 -21 -10 -27 -22 -7 -13 -24 -37
-38 -54 -14 -17 -34 -41 -45 -54 -20 -25 -5 -25 -541 -1 -151 7 -202 7 -207
-2 -5 -8 -8 -6 -8 6 0 26 -29 20 -36 -7 -3 -14 -1 -46 4 -72 6 -27 7 -55 2
-64 -13 -25 -31 -163 -22 -172 5 -5 37 1 71 12 35 11 78 20 95 20 17 0 47 4
66 10 46 12 224 31 332 35 l86 3 7 -35 c3 -19 4 -38 1 -41 -5 -5 -145 -9 -501
-15 -71 -1 -103 -6 -111 -16 -6 -7 -11 -38 -12 -68 -1 -31 -6 -61 -12 -68 -6
-8 -13 -30 -16 -51 -2 -20 -9 -55 -14 -78 -7 -32 -6 -46 6 -64 13 -19 15 -51
13 -163 -2 -102 0 -142 10 -151 10 -11 15 -9 26 7 39 55 64 70 160 91 33 7 89
20 125 29 66 15 90 18 237 30 70 5 82 4 77 -8 -3 -8 13 -32 39 -59 24 -24 47
-54 51 -66 7 -22 40 -30 51 -13 3 5 -8 33 -25 61 -16 28 -30 52 -30 54 0 2 24
13 54 25 38 16 69 21 107 19 l54 -3 -50 -25 c-69 -34 -115 -69 -115 -85 0 -12
6 -12 27 -4 15 6 30 14 33 18 11 17 167 91 191 91 28 0 50 17 43 34 -4 11 167
102 246 131 19 7 73 32 119 55 49 24 87 38 93 32 21 -21 30 -169 16 -277 -5
-38 -11 -127 -13 -197 -2 -71 -6 -137 -10 -147 -3 -11 -2 -22 3 -25 5 -3 101
8 213 24 112 16 263 34 334 39 124 10 171 15 224 27 22 5 22 2 -13 -44 -41
-56 -46 -82 -16 -82 28 0 72 46 95 98 l19 44 48 -4 c26 -1 48 -1 48 2 0 12
275 43 410 46 80 2 189 6 243 8 53 3 95 1 92 -3 -2 -5 10 -5 27 -2 17 4 33 12
36 19 3 11 -78 13 -421 10 l-425 -3 27 30 c36 41 136 140 194 193 57 52 56 56
-43 128 -23 16 -28 24 -16 22 33 -5 28 18 -11 53 l-38 33 1 122 c1 120 1 123
28 146 26 23 27 24 12 64 -8 23 -17 73 -20 110 -3 38 -8 111 -12 162 -3 50
-11 92 -15 92 -19 0 -95 -202 -106 -280 -6 -42 -25 -84 -47 -102 -18 -15 -19
-19 -6 -28 8 -5 25 -8 38 -5 13 2 33 0 45 -4 20 -7 18 -10 -23 -36 -25 -15
-56 -35 -70 -44 -45 -29 -60 -23 -86 33 -33 72 -32 102 8 126 17 10 36 16 41
13 8 -5 3 -124 -6 -151 -1 -4 2 -9 8 -12 12 -6 25 56 28 134 2 54 4 61 25 66
30 7 33 24 5 28 -19 3 -20 6 -11 40 5 20 24 52 41 71 l32 34 -30 -7 c-16 -4
-49 -11 -73 -15 -58 -11 -64 -21 -12 -21 32 0 40 -3 33 -12 -6 -7 -15 -26 -22
-43 -11 -30 -11 -30 -6 8 7 41 -3 47 -29 18 -10 -11 -31 -24 -47 -30 -27 -9
-28 -9 -22 20 4 22 2 29 -10 29 -9 0 -22 -6 -29 -14 -8 -7 -25 -17 -38 -21
-14 -4 -45 -19 -70 -33 -25 -15 -52 -25 -59 -23 -8 1 -20 -4 -26 -12 -14 -19
-55 -32 -55 -17 0 8 -17 9 -57 5 -79 -9 -93 -14 -93 -31 0 -12 9 -14 45 -8 41
6 45 5 39 -12 -26 -80 -39 -93 -50 -49 -3 14 -11 25 -16 25 -7 0 -8 -23 -4
-62 l7 -63 -90 -42 c-100 -47 -125 -53 -117 -25 3 9 10 44 16 77 5 33 13 71
16 85 3 14 12 61 19 105 23 125 52 216 83 254 37 46 31 75 -9 51z m-54 -85
c-3 -11 -7 -27 -10 -35 -2 -8 -12 -49 -23 -90 -11 -41 -24 -104 -30 -140 -6
-36 -13 -74 -16 -85 -3 -11 -11 -44 -18 -72 -13 -54 -21 -63 -35 -40 -10 15
-11 22 -17 192 -3 77 -8 151 -11 165 -3 14 -7 48 -10 76 l-6 51 91 -1 c87 -1
91 -2 85 -21z m820 -147 c-1 -59 4 -91 16 -115 9 -18 14 -35 10 -37 -3 -2 -27
-2 -52 1 l-46 5 15 42 c9 22 20 44 25 47 4 3 7 17 5 30 -2 21 18 109 25 109 2
0 3 -37 2 -82z m-2112 57 c93 -2 171 -5 173 -7 2 -3 -61 -10 -140 -17 -87 -7
-188 -23 -257 -40 -127 -32 -129 -32 -129 37 l0 44 93 -7 c50 -3 168 -8 260
-10z m670 -129 c184 -113 307 -193 317 -206 3 -4 30 -23 62 -43 54 -34 76 -65
63 -87 -3 -5 -12 -10 -18 -10 -7 0 -38 -14 -70 -30 -31 -17 -61 -28 -66 -26
-5 3 -11 0 -14 -8 -6 -15 -57 -36 -302 -127 -150 -56 -180 -63 -256 -67 l-87
-4 -4 41 c-3 32 0 41 12 42 8 0 26 2 40 3 14 1 67 3 118 4 76 2 92 5 92 18 0
13 11 15 80 10 67 -5 80 -3 80 9 0 8 -3 15 -7 15 -23 1 -222 11 -310 16 -110
6 -114 9 -91 59 9 21 18 25 52 25 23 0 73 5 111 11 39 6 78 11 87 11 20 -1 33
14 20 22 -5 3 -64 6 -130 7 l-122 1 6 26 c13 60 15 62 52 64 20 1 48 3 62 3
36 2 70 15 70 26 0 6 -25 10 -57 9 -84 -2 -95 -1 -88 10 4 6 67 10 155 10 134
0 149 2 143 16 -5 15 -19 16 -112 9 -119 -9 -172 -8 -182 3 -4 4 0 23 9 42 15
32 22 35 62 38 59 3 94 11 85 20 -7 8 -12 8 -74 10 l-44 2 6 34 c5 32 45 106
58 106 3 0 89 -51 192 -114z m-296 93 l31 -10 -17 -46 c-13 -37 -23 -48 -46
-55 -19 -5 -32 -3 -36 4 -6 9 -11 9 -21 1 -10 -9 -13 -2 -11 40 1 29 2 55 2
59 1 4 13 9 29 11 15 2 30 5 33 6 3 0 20 -4 36 -10z m-146 -39 c5 0 9 -19 9
-41 l0 -42 -122 6 c-68 3 -136 9 -153 13 -16 4 -81 8 -143 7 -76 0 -111 4
-109 11 7 21 286 68 462 79 31 1 41 -2 43 -15 2 -10 8 -18 13 -18z m1569 -5
c0 -2 -4 -14 -9 -27 -5 -13 -12 -36 -16 -52 -5 -22 -9 -26 -18 -17 -17 17 -27
13 -27 -12 0 -16 -9 -28 -26 -36 -15 -6 -28 -10 -30 -8 -4 3 17 60 35 98 14
28 91 74 91 54z m79 -37 c-5 -18 -9 -34 -9 -36 0 -2 -4 0 -10 3 -22 14 -3 60
27 65 1 0 -3 -15 -8 -32z m47 -14 c-3 -8 -10 -14 -15 -14 -10 0 -9 9 6 48 6
16 6 16 10 -1 3 -10 2 -25 -1 -33z m-107 -45 c-19 -11 -20 -8 -6 37 l12 39 3
-34 c2 -20 -2 -37 -9 -42z m-2106 12 c12 0 62 1 112 0 67 -1 86 -4 77 -13 -6
-6 -24 -12 -39 -13 -15 -1 -67 -10 -114 -20 -48 -10 -94 -15 -103 -12 -21 8
-21 55 1 79 16 17 17 17 31 -3 7 -11 24 -19 35 -18z m1957 14 c0 -8 -6 -14
-12 -12 -7 1 -12 -5 -10 -13 9 -38 -8 -76 -39 -87 -30 -12 -31 -11 -24 14 18
71 40 102 83 112 1 1 2 -6 2 -14z m-96 -56 c-21 -61 -41 -85 -77 -96 l-34 -10
24 46 c12 25 23 51 23 57 0 6 7 17 15 24 13 11 15 7 15 -25 0 -44 9 -43 12 1
2 37 6 44 22 44 11 0 11 -7 0 -41z m-1218 -5 c-3 -9 -9 -27 -12 -40 -5 -19
-12 -24 -35 -22 -32 2 -32 2 -23 47 6 28 10 31 41 31 28 0 34 -3 29 -16z
m1479 -31 c11 -63 38 -126 56 -130 14 -4 16 -10 8 -30 -9 -24 -8 -25 17 -19
22 6 32 1 58 -26 17 -18 47 -45 66 -60 20 -14 52 -42 71 -61 27 -27 32 -37 21
-43 -11 -8 -11 -14 -2 -36 11 -23 10 -31 -8 -55 -11 -15 -38 -65 -61 -110 -23
-46 -46 -83 -52 -83 -16 0 -109 62 -109 72 0 16 83 108 97 108 7 0 13 2 13 4
0 2 3 11 6 20 5 13 -1 16 -33 16 -34 0 -98 29 -65 30 25 0 11 29 -19 35 -17 4
-33 13 -36 21 -3 8 -13 14 -23 14 -9 0 -32 5 -51 12 -33 12 -33 12 -9 18 14 3
26 14 28 23 3 13 -4 17 -32 17 -20 0 -44 4 -54 9 -9 5 -29 13 -43 19 -29 11
-28 5 -13 132 4 40 13 61 31 77 13 13 28 23 34 23 8 0 15 -92 11 -167 -1 -24
2 -33 14 -33 14 0 16 14 13 112 l-4 112 25 7 c14 4 28 7 32 8 4 1 10 -16 13
-36z m-725 -130 c0 -4 -39 18 -97 55 -13 8 -23 21 -23 28 0 8 25 -5 60 -33 33
-25 60 -48 60 -50z m520 92 c0 -5 -69 -35 -79 -34 -5 0 68 38 77 39 1 0 2 -2
2 -5z m463 -102 c-2 -48 -5 -88 -7 -90 -2 -2 -29 18 -60 44 l-56 48 22 17 c13
10 37 25 55 33 18 9 35 20 38 25 11 19 12 10 8 -77z m-1943 67 c11 -7 5 -10
-25 -10 -90 -2 -262 -29 -386 -61 -59 -15 -83 -7 -74 23 4 13 11 27 15 31 4 4
85 11 181 14 96 3 176 7 178 9 9 8 97 3 111 -6z m173 3 c-7 -2 -21 -2 -30 0
-10 3 -4 5 12 5 17 0 24 -2 18 -5z m1311 -70 c-3 -43 -7 -79 -8 -80 -1 -1 -19
9 -39 24 -25 17 -37 34 -37 50 0 12 -4 23 -9 23 -12 0 -23 -48 -16 -71 4 -11
2 -19 -5 -19 -6 0 -25 -23 -42 -50 -28 -46 -33 -49 -48 -35 -9 8 -19 15 -23
15 -3 0 -32 18 -63 40 -32 22 -50 40 -40 40 9 0 29 6 44 14 15 7 38 17 51 21
24 7 24 6 18 -39 -5 -36 -4 -46 8 -46 10 0 16 16 21 51 6 43 12 54 38 70 17
10 39 19 49 19 9 0 17 4 17 8 0 9 58 40 78 41 9 1 11 -17 6 -76z m-118 52
c-20 -15 -36 -19 -36 -10 0 5 38 23 50 24 3 0 -4 -6 -14 -14z m-1278 -67 l-3
-43 -235 -1 c-129 -1 -252 -4 -272 -7 -21 -3 -40 -2 -43 2 -5 9 22 18 75 27
49 9 176 33 205 39 57 13 140 22 208 24 l68 1 -3 -42z m72 33 c0 -5 -7 -24
-15 -42 l-14 -34 -1 36 c0 20 3 39 7 42 9 10 23 9 23 -2z m870 -51 c0 -5 -7
-7 -15 -4 -8 4 -15 8 -15 10 0 2 7 4 15 4 8 0 15 -4 15 -10z m399 -53 c8 -11
5 -19 -14 -37 -13 -12 -34 -28 -46 -34 -12 -6 -24 -17 -27 -23 -5 -18 23 -16
38 3 8 8 32 26 55 40 39 22 45 23 81 11 35 -13 61 -47 35 -47 -11 0 -27 -14
-74 -69 -42 -48 -44 -30 -3 31 40 58 43 68 22 68 -7 0 -19 -12 -25 -28 -6 -15
-22 -40 -35 -56 l-23 -29 -39 28 c-21 16 -43 32 -48 36 -11 10 45 99 62 99 6
0 12 5 12 10 0 14 16 12 29 -3z m-1501 -2 c-2 -3 -31 -7 -64 -10 -82 -6 -148
-20 -268 -55 -57 -16 -109 -30 -114 -30 -11 0 3 56 18 73 4 5 65 12 136 16
171 9 298 12 292 6z m1245 -31 c72 -49 72 -52 2 -15 -66 36 -86 51 -67 51 7 0
36 -16 65 -36z m-9 -40 c53 -31 96 -60 96 -63 0 -4 -18 -35 -41 -70 -29 -45
-38 -66 -30 -74 13 -13 10 -17 55 66 21 37 42 67 47 67 7 0 51 -23 91 -46 4
-3 -11 -34 -32 -70 -44 -71 -48 -87 -22 -82 9 2 27 23 39 48 43 87 38 83 82
58 34 -20 37 -24 27 -43 -6 -11 -14 -22 -17 -25 -15 -12 -49 -87 -49 -108 0
-40 19 -20 58 58 32 65 41 75 66 78 44 5 50 -9 24 -64 -13 -27 -26 -51 -30
-54 -3 -3 -10 -18 -13 -33 -12 -45 20 -33 50 21 43 74 53 83 79 69 11 -7 22
-13 24 -14 2 0 -5 -18 -16 -40 -11 -21 -25 -57 -32 -81 l-13 -42 -76 5 c-81 6
-130 12 -171 19 -30 6 -93 13 -210 22 -134 10 -131 7 -124 111 4 59 10 94 21
105 23 26 31 78 17 119 -6 20 -10 51 -9 70 2 19 4 37 4 42 1 12 5 10 105 -49z
m-1064 20 c0 -12 3 -29 6 -38 5 -14 -19 -16 -227 -16 -129 -1 -256 -3 -284 -5
-34 -3 -44 -1 -30 5 11 5 31 9 45 9 14 1 44 8 68 16 67 24 256 49 380 51 37 0
42 -2 42 -22z m1516 -70 c13 -3 24 -9 24 -13 -1 -12 -89 -106 -94 -100 -4 3 5
23 19 43 14 20 25 42 25 48 0 15 -38 -20 -57 -53 -16 -26 -17 -27 -41 -11
l-24 16 48 42 c27 24 55 41 62 39 8 -3 25 -8 38 -11z m-1510 -26 c4 -5 -26 -8
-67 -9 -178 -2 -274 -10 -356 -29 -48 -12 -97 -25 -108 -30 -11 -4 -35 -13
-53 -19 l-33 -10 2 47 3 47 51 5 c79 8 552 6 561 -2z m89 2 c-3 -5 -15 -10
-26 -10 -10 0 -19 5 -19 10 0 6 12 10 26 10 14 0 23 -4 19 -10z m135 0 c18 -6
4 -8 -47 -9 -43 -1 -73 3 -73 9 0 12 84 12 120 0z m251 -61 c-79 -38 -150 -68
-158 -65 -21 8 -8 23 26 29 16 4 49 15 73 25 147 65 184 81 193 81 6 0 -55
-31 -134 -70z m459 45 c7 -17 7 -31 0 -42 -8 -14 -9 -12 -10 10 0 14 -3 33 -6
42 -3 9 -3 16 0 16 4 0 11 -12 16 -26z m663 -2 c15 -7 14 -11 -13 -42 -29 -33
-30 -34 -20 -7 15 42 -11 34 -40 -13 -23 -37 -50 -53 -50 -30 0 6 5 10 10 10
6 0 10 5 10 12 0 15 61 78 74 77 6 0 19 -4 29 -7z m-1603 -59 l0 -36 -172 5
c-95 3 -200 3 -233 -1 -33 -3 -71 -4 -85 -2 -21 3 -18 6 20 17 108 34 216 48
383 51 l87 2 0 -36z m1676 -3 l27 -11 -23 -24 c-24 -26 -42 -27 -21 -1 7 8 8
17 3 20 -11 7 -23 -7 -46 -52 -14 -28 -20 -31 -36 -22 -26 14 -25 19 11 63 33
40 43 43 85 27z m306 -24 c15 -11 8 -21 -60 -87 -42 -41 -89 -90 -104 -108
-16 -18 -28 -31 -28 -28 0 10 94 194 112 220 21 29 41 30 80 3z m-2222 -47
c-77 -6 -236 -41 -267 -58 -24 -13 -85 -32 -89 -28 -6 5 -14 79 -10 86 2 3
102 6 223 7 139 0 191 -2 143 -7z m1918 -116 c78 -50 76 -47 57 -86 l-17 -36
-86 6 c-48 3 -89 7 -91 9 -14 12 50 144 70 144 6 0 36 -17 67 -37z m-662 -82
c16 -5 74 -12 129 -15 95 -5 231 -20 285 -30 14 -3 80 -7 148 -10 68 -2 125
-6 128 -8 2 -3 -4 -12 -13 -21 -18 -16 -73 -23 -398 -52 -88 -8 -191 -19 -230
-24 -38 -6 -88 -11 -110 -11 l-40 0 -3 90 -4 90 40 0 c21 0 52 -4 68 -9z m847
-62 l62 -1 -85 -12 c-47 -6 -87 -7 -89 -2 -5 12 21 27 37 21 8 -3 41 -6 75 -6z"/>
</g>
</svg>
