<?xml version="1.0" standalone="no"?>
<!DOCTYPE svg PUBLIC "-//W3C//DTD SVG 20010904//EN"
 "http://www.w3.org/TR/2001/REC-SVG-20010904/DTD/svg10.dtd">
<svg version="1.0" xmlns="http://www.w3.org/2000/svg"
 width="242.000000pt" height="112.000000pt" viewBox="0 0 242.000000 112.000000"
 preserveAspectRatio="xMidYMid meet">
<metadata>
Created by potrace 1.16, written by Peter Selinger 2001-2019
</metadata>
<g transform="translate(0.000000,112.000000) scale(0.100000,-0.100000)"
fill="#000000" stroke="none">
<path d="M1765 979 c-66 -4 -237 -7 -380 -6 -143 1 -266 -2 -273 -6 -7 -5 -19
-24 -27 -43 -15 -36 -102 -149 -120 -157 -5 -2 -50 0 -100 4 -49 4 -182 9
-295 10 -171 1 -216 -1 -268 -16 -34 -10 -65 -22 -68 -26 -3 -5 -16 -9 -29 -9
-26 0 -34 -15 -45 -78 -9 -58 5 -207 24 -254 14 -33 47 -64 57 -53 2 2 108 6
234 10 127 3 273 10 325 15 85 8 99 7 136 -11 34 -16 43 -26 48 -53 4 -19 14
-40 22 -47 25 -21 76 -99 64 -99 -5 0 -10 -9 -10 -20 0 -23 -20 -21 345 -24
199 -2 409 4 645 19 47 3 97 5 111 5 30 0 45 25 29 46 -8 9 -7 19 5 38 17 26
14 62 -5 51 -13 -8 -13 -4 5 80 8 38 18 99 21 135 3 36 12 101 21 145 31 165
27 262 -11 300 -44 44 -226 62 -461 44z m290 -39 c107 -15 136 -33 153 -95 14
-49 12 -76 -18 -195 -5 -19 -12 -75 -15 -125 -6 -98 -21 -208 -36 -268 -6 -20
-8 -41 -5 -46 12 -19 -26 -29 -159 -42 -143 -13 -338 -16 -638 -9 -212 4 -211
4 -226 47 -7 19 -27 51 -44 70 -18 20 -36 50 -42 67 -7 22 -23 37 -55 53 -44
22 -74 23 -145 6 -11 -3 -147 -7 -302 -10 l-281 -5 -16 25 c-12 18 -18 56 -21
131 -5 98 -4 106 15 116 11 6 20 17 20 25 0 9 25 22 68 35 61 18 90 20 319 17
182 -2 256 -6 265 -15 16 -16 53 -15 86 2 43 23 152 148 152 174 0 23 74 31
345 37 160 4 319 10 355 15 70 8 103 7 225 -10z"/>
<path d="M1234 755 c-63 -45 -121 -116 -109 -134 11 -19 24 -12 49 28 14 21
51 58 82 82 54 41 67 60 47 66 -4 1 -35 -17 -69 -42z"/>
<path d="M1550 743 c-95 -84 -135 -133 -107 -133 12 0 187 163 187 175 0 16
-33 -1 -80 -42z"/>
<path d="M1857 714 c-40 -37 -87 -82 -106 -102 l-35 -36 -509 0 c-379 -1 -511
-4 -514 -13 -2 -6 6 -15 19 -19 13 -5 242 -7 511 -6 l487 2 53 -37 c28 -21 54
-40 57 -43 28 -29 124 -110 131 -110 22 0 4 26 -73 106 l-82 85 69 -1 c97 -2
95 -2 95 21 0 20 -3 21 -101 14 l-101 -6 21 30 c12 17 28 34 35 38 23 14 146
127 146 135 0 23 -39 1 -103 -58z"/>
<path d="M1420 501 c0 -26 32 -63 89 -105 46 -34 91 -47 91 -27 0 5 -21 25
-47 44 -27 20 -64 52 -82 71 -39 40 -51 44 -51 17z"/>
<path d="M1057 504 c-4 -4 3 -23 14 -43 22 -40 97 -96 142 -107 40 -9 34 11
-11 40 -45 28 -112 92 -112 106 0 11 -23 14 -33 4z"/>
</g>
</svg>
