<?xml version="1.0" standalone="no"?>
<!DOCTYPE svg PUBLIC "-//W3C//DTD SVG 20010904//EN"
 "http://www.w3.org/TR/2001/REC-SVG-20010904/DTD/svg10.dtd">
<svg version="1.0" xmlns="http://www.w3.org/2000/svg"
 width="216.000000pt" height="118.000000pt" viewBox="0 0 216.000000 118.000000"
 preserveAspectRatio="xMidYMid meet">
<metadata>
Created by potrace 1.16, written by Peter Selinger 2001-2019
</metadata>
<g transform="translate(0.000000,118.000000) scale(0.100000,-0.100000)"
fill="#000000" stroke="none">
<path d="M938 981 c-24 -22 -66 -52 -94 -68 -34 -21 -50 -37 -52 -54 -3 -24
-22 -40 -109 -94 l-42 -26 -123 15 c-152 20 -195 32 -211 56 -32 52 -63 7 -66
-95 -1 -44 -4 -88 -7 -98 -3 -10 1 -20 10 -23 14 -5 15 -22 10 -119 -5 -75 -3
-114 4 -119 6 -4 8 -27 5 -61 -6 -56 5 -85 33 -85 8 0 41 25 74 55 33 30 68
56 77 56 10 1 56 1 103 0 69 -2 92 -7 120 -25 19 -12 69 -35 110 -50 41 -15
85 -36 97 -48 25 -23 52 -14 69 24 23 49 56 134 57 147 1 7 30 41 65 74 58 56
73 77 55 77 -5 0 -24 -16 -43 -35 -75 -75 -227 -202 -247 -207 -20 -5 -21 -1
-25 71 -3 63 0 82 17 112 27 48 79 118 110 149 35 35 32 58 -8 51 -4 -1 -28 4
-53 10 -34 9 -51 9 -70 0 -13 -6 -35 -16 -49 -23 -28 -13 -33 -28 -10 -28 17
0 18 -8 16 -105 -1 -38 -7 -73 -13 -76 -7 -5 -7 -8 0 -10 6 -2 13 -15 16 -29
2 -14 7 -38 11 -55 6 -32 -10 -67 -22 -50 -5 6 -17 15 -27 20 -24 14 -45 84
-47 158 -2 59 -2 59 -29 53 -21 -4 -30 -1 -36 12 -9 21 -6 54 7 66 5 6 9 16 9
22 0 7 4 23 9 36 5 13 8 26 7 30 -1 8 61 68 72 68 4 0 21 12 38 28 16 15 47
40 68 55 l37 29 29 -31 c17 -17 63 -54 102 -83 98 -70 108 -83 108 -133 0 -84
39 -78 128 17 25 27 57 51 71 55 14 3 31 9 36 13 6 4 34 10 64 12 57 6 61 3
142 -75 41 -41 161 -100 174 -86 7 7 2 17 -15 30 -59 48 -70 60 -71 79 -1 11
-2 28 -3 38 -1 15 10 17 83 19 55 1 89 -3 97 -11 8 -9 12 -74 12 -238 0 -124
3 -231 7 -238 10 -17 37 10 32 32 -3 10 -2 18 2 18 3 0 5 35 3 78 -5 96 9 147
48 190 17 17 29 32 27 32 -6 0 40 54 91 105 23 24 42 48 42 54 0 7 -58 11
-182 10 -101 0 -200 0 -220 1 -37 0 -38 1 -38 35 0 30 5 37 38 53 20 11 49 22
65 26 31 7 37 36 7 36 -11 0 -20 -4 -20 -8 0 -4 -17 -14 -37 -21 -21 -8 -56
-29 -78 -46 -77 -63 -111 -75 -208 -75 -87 0 -227 31 -227 50 0 4 -7 10 -15
14 -21 8 -55 -29 -55 -60 0 -25 -1 -24 -55 21 -30 26 -52 51 -49 56 3 5 1 9
-5 9 -7 0 -7 8 -1 24 5 13 12 52 16 85 8 75 -3 79 -68 22z m15 -72 c-8 -33 -9
-34 -32 -23 l-24 12 28 26 c16 15 30 25 32 23 2 -2 0 -19 -4 -38z m647 -134
c0 -16 -18 -23 -42 -17 -16 4 -15 6 5 22 23 19 37 17 37 -5z m-381 -36 c17 -6
31 -15 31 -19 0 -4 -16 -22 -36 -40 -30 -26 -39 -29 -50 -18 -14 14 -26 73
-16 82 8 9 36 7 71 -5z m-883 -10 c4 -7 -3 -20 -17 -30 -25 -18 -44 -16 -35 6
2 7 0 17 -5 22 -5 5 3 10 20 11 17 1 33 -3 37 -9z m1612 -8 c17 -1 32 -6 32
-12 0 -20 -91 -140 -103 -136 -10 3 -19 129 -11 148 2 3 13 5 26 3 13 -1 38
-3 56 -3z m-1405 -7 c20 -4 37 -10 37 -14 0 -5 -21 -18 -46 -30 -25 -13 -48
-29 -51 -37 -4 -10 -15 -12 -42 -8 -59 11 -94 13 -108 8 -24 -9 -13 -22 25
-30 l38 -8 -49 -39 -50 -39 6 64 c5 56 9 66 39 91 19 15 54 31 83 36 66 13 73
13 118 6z m1057 2 c0 -3 -4 -8 -10 -11 -5 -3 -10 -1 -10 4 0 6 5 11 10 11 6 0
10 -2 10 -4z m-995 -59 c-15 -37 -36 -46 -63 -28 -12 7 -12 10 0 20 17 16 72
49 76 46 1 -1 -5 -18 -13 -38z m273 -24 c12 -3 22 -8 22 -11 0 -4 -68 -98 -92
-126 -4 -6 -8 7 -8 27 0 27 4 37 16 37 14 0 15 7 9 46 -6 43 -5 46 12 39 10
-4 28 -10 41 -12z m-316 -93 l61 -51 -89 2 c-48 1 -101 5 -116 10 -17 5 -26 4
-23 -2 4 -5 -12 -9 -35 -9 l-41 0 37 32 c40 35 98 66 128 67 10 1 45 -22 78
-49z m-216 -74 c25 -4 24 -12 -4 -38 -24 -22 -30 -23 -50 -13 -15 8 -20 15
-13 19 6 4 11 16 11 27 0 16 4 19 21 14 12 -4 28 -8 35 -9z m167 -56 c-45 -43
-57 -50 -95 -51 -24 -1 -49 -1 -55 0 -7 1 -23 -4 -35 -10 -15 -8 -8 5 22 38
54 61 76 71 155 72 l60 1 -52 -50z m117 40 c0 -15 0 -17 10 -51 8 -27 7 -30
-8 -24 -9 4 -32 13 -50 20 l-34 12 32 26 c33 28 50 34 50 17z m-70 -96 c0 -2
-11 -4 -25 -4 -14 0 -25 4 -25 9 0 4 11 6 25 3 14 -2 25 -6 25 -8z m376 -73
c-20 -56 -25 -62 -34 -45 -6 10 -12 15 -12 10 0 -5 -7 -3 -16 5 -14 11 -10 18
33 55 26 23 49 41 50 40 1 -1 -8 -30 -21 -65z m-583 6 c-34 -31 -46 -38 -53
-28 -4 8 -6 21 -5 30 2 9 4 19 4 23 1 11 54 25 77 20 20 -3 18 -8 -23 -45z"/>
<path d="M1570 519 c-23 -17 -77 -46 -119 -64 -58 -25 -75 -37 -73 -50 3 -15
-2 -17 -35 -10 -21 4 -74 10 -118 15 -64 6 -83 12 -97 30 -10 12 -24 20 -31
17 -17 -7 -35 -66 -43 -149 -8 -80 3 -87 58 -40 35 30 106 62 138 62 10 0 31
5 47 11 51 20 137 15 172 -10 17 -12 31 -27 31 -32 0 -5 7 -9 16 -9 22 0 104
-41 104 -52 0 -4 7 -8 15 -8 8 0 15 4 15 8 0 11 -47 53 -82 75 -16 10 -28 21
-28 25 0 5 55 13 122 20 110 10 152 22 136 38 -3 3 -30 1 -60 -4 -29 -5 -88
-10 -130 -11 l-78 -2 0 45 c0 36 4 46 20 51 11 3 20 11 20 16 0 5 16 17 35 26
19 9 35 20 35 25 0 16 -28 7 -70 -23z m-66 -97 c-6 -29 -10 -32 -39 -29 -18 1
-31 4 -29 6 2 2 -1 10 -7 17 -7 9 1 16 33 27 24 8 44 13 46 12 1 -1 -1 -16 -4
-33z m-380 -31 c3 -4 29 -12 58 -16 45 -6 49 -9 28 -15 -14 -4 -41 -17 -60
-28 -19 -12 -38 -22 -42 -22 -5 0 -8 20 -8 45 0 41 11 58 24 36z"/>
</g>
</svg>
