<?xml version="1.0" standalone="no"?>
<!DOCTYPE svg PUBLIC "-//W3C//DTD SVG 20010904//EN"
 "http://www.w3.org/TR/2001/REC-SVG-20010904/DTD/svg10.dtd">
<svg version="1.0" xmlns="http://www.w3.org/2000/svg"
 width="143.000000pt" height="139.000000pt" viewBox="0 0 143.000000 139.000000"
 preserveAspectRatio="xMidYMid meet">
<metadata>
Created by potrace 1.16, written by Peter Selinger 2001-2019
</metadata>
<g transform="translate(0.000000,139.000000) scale(0.100000,-0.100000)"
fill="#000000" stroke="none">
<path d="M853 1275 c-28 -25 -53 -45 -55 -45 -1 0 -48 -44 -103 -97 -89 -86
-105 -108 -35 -47 14 12 38 30 54 40 l29 18 -27 -42 c-14 -23 -22 -42 -16 -42
5 0 10 4 10 9 0 4 16 28 35 52 19 24 35 49 35 54 0 6 32 40 72 77 81 75 82 94
1 23z"/>
<path d="M1060 1203 c-36 -38 -83 -88 -105 -112 -37 -41 -38 -43 -9 -23 17 12
37 28 44 37 21 26 29 17 13 -16 -8 -16 -13 -32 -11 -34 2 -3 21 28 42 68 21
40 41 74 45 77 23 19 63 70 55 70 -5 0 -39 -30 -74 -67z"/>
<path d="M662 1030 c-18 -30 -14 -36 8 -12 21 22 25 32 12 32 -4 0 -13 -9 -20
-20z"/>
<path d="M851 999 c-54 -43 -63 -59 -33 -59 24 0 64 -29 56 -41 -5 -9 -110 -5
-213 7 -41 5 -43 7 -39 35 5 33 3 35 -18 14 -12 -12 -19 -12 -34 -2 -25 15
-25 25 2 54 37 40 5 25 -35 -16 l-39 -39 29 -16 c27 -15 26 -15 -47 -15 -85
-1 -202 21 -236 44 -13 9 -24 24 -24 35 0 27 -16 25 -34 -2 -19 -30 -59 -233
-51 -258 7 -23 12 -24 86 -10 73 13 244 40 294 46 22 2 54 6 70 9 17 3 59 7
95 11 36 3 81 9 100 13 19 4 64 9 100 10 36 1 81 6 100 11 63 15 149 20 155
10 12 -19 45 -11 45 10 0 11 -3 20 -7 21 -5 0 -63 1 -130 2 -67 1 -125 5 -129
9 -4 4 -1 14 6 23 7 8 9 15 5 15 -4 0 7 26 24 58 17 31 23 46 14 32 -10 -13
-27 -35 -39 -49 -21 -24 -21 -24 -47 -5 l-25 19 31 33 c42 44 30 40 -32 -9z
m-585 -69 c28 -12 79 -23 128 -26 45 -3 124 -10 176 -15 52 -6 129 -13 170
-15 41 -3 100 -10 130 -16 l55 -12 -145 -17 c-227 -28 -470 -52 -530 -53 l-55
-1 3 70 c3 67 9 105 17 105 2 0 25 -9 51 -20z"/>
<path d="M152 597 c-6 -10 -8 -82 -3 -194 1 -19 18 -16 49 7 18 13 68 28 132
40 58 10 129 26 159 35 62 19 73 21 156 35 33 6 83 14 110 19 28 6 69 10 91
10 35 1 43 -3 49 -21 5 -18 8 -19 12 -7 4 18 97 44 146 41 59 -4 140 -2 148 4
39 23 -110 26 -397 7 -51 -3 -141 -1 -200 5 -60 6 -163 14 -229 17 -66 4 -141
8 -167 10 -28 2 -50 -1 -56 -8z m323 -31 c83 -3 164 -10 180 -15 21 -6 24 -10
10 -10 -11 -1 -94 -15 -185 -31 -233 -43 -253 -47 -276 -55 -19 -6 -20 -3 -19
55 1 36 6 65 13 69 7 4 38 4 70 0 31 -4 125 -10 207 -13z"/>
<path d="M791 498 c15 -30 40 -58 51 -58 4 0 -4 18 -18 40 -28 42 -53 55 -33
18z"/>
<path d="M619 503 c-2 -8 -7 -46 -12 -93 -2 -14 0 -35 5 -47 4 -14 4 -23 -3
-23 -5 0 -24 29 -40 65 -28 59 -49 82 -49 54 0 -20 54 -120 84 -157 17 -20 57
-76 89 -124 63 -96 73 -106 90 -89 8 8 4 17 -12 33 -35 36 -91 117 -118 170
-23 46 -44 136 -26 112 5 -7 9 13 10 47 1 32 -3 59 -8 59 -5 0 -10 -3 -10 -7z"/>
<path d="M890 493 c0 -5 4 -13 10 -19 5 -5 12 -36 16 -68 6 -54 6 -59 -10 -53
-12 5 -16 3 -14 -5 3 -7 12 -14 21 -16 26 -5 32 43 13 104 -15 47 -36 80 -36
57z"/>
<path d="M840 419 c0 -20 16 -43 23 -32 3 4 -1 17 -9 28 -10 13 -14 15 -14 4z"/>
<path d="M940 288 c-1 -20 63 -128 76 -128 20 0 17 15 -8 44 -30 32 -42 47
-56 71 -6 11 -12 17 -12 13z"/>
</g>
</svg>
