<?xml version="1.0" standalone="no"?>
<!DOCTYPE svg PUBLIC "-//W3C//DTD SVG 20010904//EN"
 "http://www.w3.org/TR/2001/REC-SVG-20010904/DTD/svg10.dtd">
<svg version="1.0" xmlns="http://www.w3.org/2000/svg"
 width="308.000000pt" height="206.000000pt" viewBox="0 0 308.000000 206.000000"
 preserveAspectRatio="xMidYMid meet">
<metadata>
Created by potrace 1.16, written by Peter Selinger 2001-2019
</metadata>
<g transform="translate(0.000000,206.000000) scale(0.100000,-0.100000)"
fill="#000000" stroke="none">
<path d="M541 1977 c-6 -8 -37 -28 -68 -44 -155 -82 -171 -95 -169 -140 1 -39
20 -45 24 -8 2 14 8 25 14 25 15 0 37 -32 38 -54 0 -16 62 -122 80 -136 11 -9
41 -80 44 -103 1 -12 8 -32 14 -44 7 -12 12 -42 12 -67 0 -57 15 -62 60 -20
19 18 46 38 60 45 14 6 33 15 43 20 9 5 84 21 165 34 171 30 342 32 342 5 0
-30 -16 -37 -96 -44 -44 -3 -102 -12 -128 -20 -25 -8 -49 -15 -51 -15 -3 -1
-41 -1 -85 -1 -44 0 -80 -4 -80 -9 0 -5 30 -7 68 -5 37 2 131 6 208 9 l141 5
-10 -39 c-10 -37 -12 -39 -61 -44 -28 -4 -130 -9 -226 -12 -234 -8 -275 -13
-302 -36 -23 -19 -22 -19 142 -14 91 3 185 8 210 11 25 2 68 7 95 9 28 3 65 7
84 10 30 4 33 2 28 -18 -3 -12 -10 -38 -14 -57 l-9 -35 -89 -2 c-161 -4 -386
-23 -406 -33 -10 -6 -19 -16 -19 -22 0 -10 59 -8 235 7 28 3 99 7 158 10 99 4
108 3 103 -13 -2 -9 -10 -36 -17 -59 l-12 -41 -246 -4 c-135 -2 -254 -8 -263
-12 -30 -14 -22 -38 10 -32 37 7 492 20 492 14 0 -3 -11 -31 -25 -62 l-25 -56
-185 0 c-260 1 -375 -10 -375 -37 0 -14 14 -15 113 -9 61 3 187 9 278 12 l166
6 -10 -63 c-5 -35 -10 -84 -11 -108 l-1 -43 -110 7 c-273 19 -421 11 -433 -22
-3 -10 41 -13 195 -14 346 -2 338 -1 341 -24 1 -11 -1 -25 -5 -31 -6 -8 -93
-13 -280 -16 -255 -4 -272 -3 -276 14 -3 10 -10 18 -16 18 -18 0 -34 -43 -37
-100 -1 -30 -9 -81 -18 -114 -9 -32 -13 -63 -10 -67 8 -13 30 -11 43 4 14 18
72 35 141 42 56 6 97 12 270 39 85 13 158 24 215 32 11 1 72 5 135 8 63 4 140
9 170 11 30 3 105 8 165 11 61 3 187 12 280 21 186 17 245 21 410 23 155 3
435 -12 435 -22 0 -4 7 -8 15 -8 8 0 15 6 15 14 0 9 12 16 27 18 34 4 46 38
14 38 -27 0 -27 35 -1 110 11 30 19 63 20 73 0 10 7 32 16 48 8 17 17 38 19
47 8 33 52 147 70 182 32 63 117 180 131 180 17 0 28 20 17 31 -12 12 -240
-10 -279 -27 -17 -8 -87 -51 -155 -98 -69 -46 -154 -98 -189 -116 -73 -37
-179 -72 -192 -64 -5 3 -19 -1 -32 -9 -19 -13 -81 -17 -337 -22 -173 -3 -318
-6 -324 -7 -24 -1 -204 11 -243 18 -39 6 -43 9 -37 28 4 12 7 27 7 34 1 6 4
12 8 12 4 0 12 19 19 43 7 23 28 75 47 115 19 41 34 78 34 83 0 5 12 10 28 10
22 1 23 2 5 6 l-22 4 21 37 c11 20 28 48 38 62 9 14 21 36 25 50 4 14 18 46
31 72 19 37 31 49 57 56 17 4 33 16 35 25 3 14 -4 17 -38 17 -23 0 -49 4 -58
9 -32 17 -97 24 -267 27 -277 5 -508 14 -532 19 -15 3 -23 14 -25 32 l-3 28
-22 -24 -22 -24 -11 27 c-5 15 -10 33 -10 41 0 8 -5 17 -10 20 -6 4 -4 12 5
21 8 9 15 29 15 45 0 51 23 135 51 191 21 40 5 75 -20 45z m-57 -124 c-7 -21
-13 -54 -14 -73 -1 -76 -40 -75 -60 1 -6 21 -17 45 -25 52 -12 13 -6 18 42 40
32 14 60 24 64 21 4 -2 1 -21 -7 -41z m281 -320 l48 -6 -92 -28 c-51 -15 -101
-35 -111 -44 -17 -16 -19 -15 -29 4 -6 11 -11 33 -11 50 l0 31 74 0 c40 0 95
-3 121 -7z m580 -38 c22 -7 39 -17 38 -22 -4 -17 -74 -161 -109 -223 -52 -92
-104 -197 -104 -209 0 -5 -12 -8 -27 -6 -16 2 -31 4 -34 4 -12 2 24 111 36
111 7 0 18 7 25 15 10 13 9 15 -9 15 -25 0 -25 -6 -2 60 15 43 25 56 46 62 15
4 33 4 40 2 18 -7 57 15 49 28 -4 6 -22 8 -43 4 -50 -8 -66 4 -54 40 7 21 16
29 34 30 52 1 66 29 19 39 -29 6 -30 7 -15 36 18 33 46 37 110 14z m1525 -346
c0 -3 -13 -24 -29 -47 -41 -56 -96 -168 -109 -223 -12 -50 -69 -176 -83 -184
-4 -3 -6 -11 -4 -18 3 -7 -6 -41 -19 -77 l-24 -65 -193 -1 c-107 -1 -250 -5
-319 -10 -183 -13 -1022 -4 -1069 12 -12 4 -12 6 1 17 8 6 20 32 27 57 27 95
35 106 88 118 71 16 189 48 263 70 76 23 249 34 533 34 l187 -1 35 -32 c32
-30 33 -34 19 -50 -9 -10 -11 -20 -6 -23 17 -10 71 24 87 56 19 39 19 41 -4
28 -24 -13 -48 -4 -56 21 -8 25 11 59 34 59 10 0 66 24 125 54 l108 54 -57
-55 c-88 -86 -56 -75 42 14 151 136 164 147 195 167 l31 20 -5 -102 c-3 -56
-1 -102 3 -102 7 0 12 32 24 155 l6 60 85 0 c46 0 84 -3 84 -6z m-1719 -151
c-5 -13 -34 -81 -65 -153 -59 -137 -60 -134 -25 43 22 115 24 118 91 131 4 0
3 -9 -1 -21z m109 -164 c36 -4 83 -6 105 -5 63 4 36 -8 -99 -45 -104 -28 -130
-32 -153 -23 -16 7 -23 13 -15 16 6 3 12 10 12 17 0 6 7 22 16 34 11 16 23 21
42 18 15 -3 56 -8 92 -12z m-410 -319 c93 -5 127 -11 135 -22 10 -13 13 -13
25 2 11 14 31 15 144 10 251 -10 357 -17 352 -22 -8 -8 -48 -12 -211 -17 -132
-5 -273 -18 -480 -46 -33 -5 -121 -16 -195 -25 -124 -15 -185 -26 -227 -42
-13 -5 -15 -2 -9 13 10 24 11 29 21 87 4 26 11 50 16 53 5 3 55 8 111 11 57 3
104 6 105 8 2 1 22 0 45 -1 24 -1 99 -5 168 -9z"/>
<path d="M2665 921 c-3 -5 -1 -12 5 -16 5 -3 10 1 10 9 0 18 -6 21 -15 7z"/>
<path d="M536 738 c-50 -5 -85 -13 -95 -23 -14 -13 -6 -15 79 -16 52 -1 97 -1
100 -1 3 0 55 3 115 6 61 4 123 8 139 10 32 5 59 25 36 27 -60 5 -310 3 -374
-3z"/>
</g>
</svg>
