<?xml version="1.0" standalone="no"?>
<!DOCTYPE svg PUBLIC "-//W3C//DTD SVG 20010904//EN"
 "http://www.w3.org/TR/2001/REC-SVG-20010904/DTD/svg10.dtd">
<svg version="1.0" xmlns="http://www.w3.org/2000/svg"
 width="133.000000pt" height="143.000000pt" viewBox="0 0 133.000000 143.000000"
 preserveAspectRatio="xMidYMid meet">
<metadata>
Created by potrace 1.16, written by Peter Selinger 2001-2019
</metadata>
<g transform="translate(0.000000,143.000000) scale(0.100000,-0.100000)"
fill="#000000" stroke="none">
<path d="M319 1383 c-17 -44 -18 -344 -1 -350 7 -3 43 8 80 25 96 44 150 57
169 40 12 -10 84 -13 305 -15 160 -1 292 -4 295 -6 3 -3 2 -14 -1 -25 -6 -18
-17 -20 -128 -21 -67 -1 -125 -4 -129 -7 -4 -2 -121 -5 -259 -5 -194 0 -251
-2 -247 -12 3 -9 90 -12 370 -11 333 1 367 0 367 -15 -1 -9 -6 -25 -13 -36
-11 -18 -24 -20 -132 -22 -124 -2 -211 -11 -202 -20 3 -3 72 -7 154 -10 81 -3
149 -7 151 -8 2 -2 -7 -23 -20 -47 l-23 -43 -412 0 c-226 0 -415 -3 -419 -7
-4 -5 -4 -11 -1 -14 4 -4 185 -9 404 -12 219 -2 400 -6 402 -8 2 -2 -7 -25
-21 -51 l-24 -48 -305 0 c-167 0 -308 -3 -314 -6 -5 -4 -44 -4 -85 0 -81 8
-113 4 -107 -12 2 -6 137 -9 395 -8 418 2 413 3 378 -45 -13 -17 -24 -19 -123
-14 -180 8 -582 -3 -606 -17 -25 -15 37 -18 347 -17 362 1 363 1 332 -41 -13
-18 -31 -19 -327 -20 -173 0 -329 -4 -346 -9 -85 -22 -17 -27 307 -24 187 2
340 2 340 2 0 -1 -9 -22 -20 -48 -23 -51 -21 -50 -103 -36 -67 11 -564 17
-574 6 -20 -20 40 -25 319 -28 168 -2 310 -6 314 -11 8 -8 -33 -102 -51 -117
-10 -8 -217 12 -252 24 -6 3 -51 6 -100 7 -137 3 -221 20 -242 48 -31 41 -47
22 -54 -65 -15 -174 -4 -221 41 -181 20 17 81 33 202 52 47 7 99 16 115 19 46
9 154 26 213 33 43 5 52 3 52 -10 0 -30 23 -31 46 -2 l22 28 89 -7 c48 -4 117
-9 152 -11 35 -2 77 -9 93 -16 39 -16 52 -2 41 42 -5 19 -5 52 -1 74 5 22 12
76 17 120 5 44 14 118 20 165 5 47 13 126 16 175 3 50 16 144 30 210 13 66 25
138 25 161 0 22 6 62 14 87 8 26 12 48 10 48 -4 2 -54 7 -81 10 -125 10 -364
42 -383 51 -14 6 -35 12 -47 14 -12 1 -57 10 -100 18 -43 9 -89 17 -103 19
-14 1 -64 22 -111 45 -104 51 -145 54 -160 15z m104 -42 c21 -11 43 -24 50
-29 24 -18 114 -41 212 -52 55 -7 115 -18 134 -26 18 -8 42 -14 52 -14 33 0
21 -15 -14 -17 -141 -9 -323 -45 -427 -83 -30 -11 -58 -20 -63 -20 -6 0 -5
152 2 248 1 16 10 15 54 -7z m785 -175 c2 -2 -3 -17 -11 -33 l-15 -28 -280 0
c-309 0 -361 9 -225 38 43 9 112 20 153 23 41 4 77 9 80 12 6 5 291 -6 298
-12z m21 -192 c-10 -65 -21 -126 -24 -134 -2 -8 -11 -78 -20 -155 -8 -77 -20
-166 -26 -197 -5 -32 -14 -93 -19 -135 -5 -43 -14 -95 -20 -116 l-11 -37 -70
0 c-62 0 -208 17 -217 25 -2 2 8 26 22 54 24 46 29 51 61 51 18 0 37 5 41 11
4 7 -3 10 -17 9 -46 -4 -49 -2 -39 28 26 70 29 72 97 72 51 0 63 3 63 16 0 14
-8 15 -55 9 -30 -3 -55 -4 -55 -1 0 3 15 36 34 73 19 37 46 100 61 138 15 39
44 104 63 145 19 41 51 112 72 156 21 45 43 85 49 88 6 4 9 12 6 17 -4 5 -3
14 1 20 5 8 9 7 15 -3 5 -9 0 -65 -12 -134z m-941 -759 c62 -8 73 -9 210 -20
56 -4 105 -11 107 -16 3 -4 -21 -10 -52 -14 -61 -6 -213 -28 -326 -47 -37 -6
-69 -9 -72 -6 -3 3 -3 30 1 60 l6 54 37 -2 c20 -1 60 -5 89 -9z"/>
<path d="M347 916 c-20 -8 -19 -9 13 -17 70 -17 425 -3 360 14 -39 10 -349 13
-373 3z"/>
</g>
</svg>
