<?xml version="1.0" standalone="no"?>
<!DOCTYPE svg PUBLIC "-//W3C//DTD SVG 20010904//EN"
 "http://www.w3.org/TR/2001/REC-SVG-20010904/DTD/svg10.dtd">
<svg version="1.0" xmlns="http://www.w3.org/2000/svg"
 width="171.000000pt" height="78.000000pt" viewBox="0 0 171.000000 78.000000"
 preserveAspectRatio="xMidYMid meet">
<metadata>
Created by potrace 1.16, written by Peter Selinger 2001-2019
</metadata>
<g transform="translate(0.000000,78.000000) scale(0.100000,-0.100000)"
fill="#000000" stroke="none">
<path d="M451 681 c-8 -5 -21 -7 -29 -3 -9 3 -24 -6 -39 -24 l-23 -29 -119 2
c-103 2 -123 0 -142 -16 -42 -34 -17 -41 131 -37 l138 4 6 -46 c4 -26 3 -60
-2 -76 l-8 -28 -109 -4 c-61 -3 -120 -5 -133 -4 -36 0 -67 -19 -53 -33 8 -8
60 -12 154 -12 l142 0 0 -82 c0 -45 -3 -84 -6 -87 -5 -5 -57 -7 -219 -7 -44 0
-70 -5 -80 -15 -29 -28 11 -36 175 -36 11 0 38 1 60 3 47 3 65 -5 65 -31 0
-28 8 -29 87 -16 40 7 71 10 69 7 -7 -11 460 -1 644 14 102 8 225 16 273 16
108 1 120 12 107 99 -6 41 10 340 19 368 1 1 12 7 26 12 27 10 30 17 16 38
-11 18 -119 18 -385 3 -115 -7 -226 -10 -245 -7 -20 3 -76 8 -125 11 -49 3
-111 10 -139 15 -63 12 -237 13 -256 1z m176 -48 c36 -8 37 -44 5 -252 -5 -32
-5 -73 1 -100 5 -25 10 -65 12 -88 2 -41 2 -41 -35 -45 -21 -2 -73 -2 -116 0
l-79 4 1 46 c1 26 5 103 9 172 4 69 8 158 8 198 l1 73 85 -2 c47 0 96 -3 108
-6z m861 -9 c17 -5 21 -11 17 -25 -18 -55 -30 -339 -17 -377 l10 -30 -81 -6
c-45 -4 -122 -11 -172 -17 -202 -22 -252 -26 -329 -23 -45 1 -113 2 -153 3
-64 1 -71 3 -66 19 2 11 0 52 -5 93 -6 45 -6 98 -1 134 5 33 10 71 12 85 2 14
5 51 5 84 l2 59 86 -7 c123 -10 569 -4 581 8 8 8 81 8 111 0z"/>
<path d="M831 513 c-35 -26 3 -34 160 -33 85 0 178 1 206 1 29 0 61 -5 72 -10
13 -7 23 -6 36 3 16 12 16 13 0 29 -20 21 -17 21 -259 21 -138 1 -204 -3 -215
-11z"/>
<path d="M860 352 c-21 -7 -9 -31 18 -36 15 -3 108 -4 207 -2 166 4 180 6 180
23 0 17 -13 18 -197 18 -109 0 -202 -1 -208 -3z"/>
</g>
</svg>
