<?xml version="1.0" standalone="no"?>
<!DOCTYPE svg PUBLIC "-//W3C//DTD SVG 20010904//EN"
 "http://www.w3.org/TR/2001/REC-SVG-20010904/DTD/svg10.dtd">
<svg version="1.0" xmlns="http://www.w3.org/2000/svg"
 width="274.000000pt" height="162.000000pt" viewBox="0 0 274.000000 162.000000"
 preserveAspectRatio="xMidYMid meet">
<metadata>
Created by potrace 1.16, written by Peter Selinger 2001-2019
</metadata>
<g transform="translate(0.000000,162.000000) scale(0.100000,-0.100000)"
fill="#000000" stroke="none">
<path d="M1036 1418 c-3 -17 -6 -43 -6 -57 0 -21 -26 -54 -117 -147 -223 -227
-259 -245 -425 -208 -40 9 -91 20 -113 24 -22 4 -54 11 -72 15 -47 11 -56 -15
-57 -164 -1 -106 1 -126 14 -129 9 -1 53 22 99 53 45 30 88 55 95 55 8 0 39
11 70 25 31 14 75 25 98 25 44 0 108 -19 120 -35 11 -14 46 23 68 73 11 24 32
60 48 80 16 20 55 81 86 134 69 118 81 128 71 60 -8 -60 3 -71 42 -43 26 19
141 45 243 55 75 8 201 25 218 30 10 3 51 8 92 11 41 4 77 8 80 10 3 2 45 6
95 10 49 3 92 8 95 10 11 7 433 55 475 54 99 -1 259 16 263 29 3 10 -9 12 -54
8 -142 -13 -242 -17 -432 -17 -112 1 -207 3 -212 6 -21 13 -390 45 -580 50
-96 3 -203 7 -236 10 l-62 4 -6 -31z m629 -34 c132 -13 260 -24 284 -24 91 0
24 -19 -102 -29 -150 -13 -337 -37 -387 -50 -19 -5 -87 -15 -150 -21 -63 -6
-137 -15 -165 -21 -27 -6 -59 -12 -71 -14 -20 -4 -21 -2 -12 46 5 28 7 57 4
65 -3 8 -3 27 0 44 6 28 8 29 73 32 116 6 279 -3 526 -28z m-762 -246 c-15
-29 -48 -81 -75 -116 -26 -35 -52 -71 -58 -82 -6 -12 -17 -16 -30 -13 -27 7
-34 21 -20 38 9 10 7 16 -6 23 -14 8 -7 16 45 51 34 23 85 67 113 97 29 30 53
54 55 54 1 0 -10 -24 -24 -52z m-493 -163 c30 -7 72 -16 94 -20 45 -7 40 -14
-32 -44 -29 -12 -75 -35 -103 -51 -27 -17 -54 -30 -59 -30 -6 0 -10 38 -10 85
l0 85 28 -6 c15 -3 52 -12 82 -19z"/>
<path d="M1588 1153 c-8 -10 -9 -20 -2 -31 5 -9 8 -38 6 -63 l-3 -46 -62 -6
c-34 -3 -87 -1 -117 4 -30 4 -77 11 -105 14 -60 8 -95 23 -95 42 0 9 -8 13
-22 11 -25 -3 -25 -1 -20 -176 2 -82 17 -99 55 -65 38 34 262 103 333 103 l37
0 -6 -75 c-4 -41 -17 -108 -29 -150 l-22 -75 -72 0 c-60 0 -83 6 -150 35 -43
20 -87 40 -97 46 -12 6 -24 6 -37 -1 -22 -12 -27 -30 -9 -30 8 0 9 -17 3 -57
-9 -65 -12 -142 -6 -160 6 -19 37 -16 56 6 19 20 96 45 208 65 40 7 80 16 89
20 14 6 16 -10 15 -153 l-1 -161 -25 0 c-14 0 -72 4 -130 10 -58 5 -137 12
-176 14 -76 6 -104 13 -104 27 0 12 -37 11 -45 -1 -8 -13 -25 -13 -25 1 0 19
-59 87 -97 110 -38 24 -63 70 -63 119 0 41 -75 200 -94 200 -8 0 -31 -22 -50
-49 -33 -44 -40 -49 -69 -46 -18 2 -83 7 -145 9 -118 6 -196 28 -208 60 -9 23
-39 19 -52 -6 -6 -13 -16 -70 -22 -128 -6 -58 -14 -122 -17 -142 -5 -34 -3
-38 16 -38 12 0 45 17 74 38 72 53 163 102 187 102 11 0 31 6 43 14 12 8 40
18 62 22 l40 7 -59 -63 c-68 -71 -65 -79 24 -80 30 0 80 -9 110 -20 30 -11 62
-20 70 -20 8 0 38 -18 65 -40 28 -22 55 -40 61 -40 6 0 18 -7 25 -17 8 -9 38
-27 67 -39 28 -13 52 -27 52 -31 0 -5 -7 -48 -16 -97 -14 -81 -14 -90 1 -105
14 -14 17 -13 38 11 12 14 32 31 43 37 32 16 190 49 269 56 64 5 244 29 305
41 91 16 467 25 640 15 69 -4 200 9 200 20 0 12 -74 11 -125 -1 -22 -5 -55 -5
-75 0 -34 8 -33 8 17 9 28 1 54 5 58 10 9 16 -56 22 -125 12 -91 -13 -415 -14
-494 -1 -36 6 -89 11 -118 11 -29 0 -65 3 -81 5 l-27 6 17 29 c33 56 89 78
220 89 65 6 146 13 181 16 53 6 65 4 76 -11 14 -19 36 -13 36 11 0 8 10 14 23
14 13 0 32 7 43 15 18 13 17 14 -18 15 -30 0 -38 4 -38 18 0 10 3 22 7 26 4 3
8 30 8 59 2 44 26 142 73 294 23 74 99 210 140 251 24 24 41 46 39 49 -3 2
-22 0 -43 -6 -27 -7 -41 -7 -51 1 -8 6 -32 8 -64 4 -75 -10 -379 13 -407 30
-15 10 -28 12 -40 5 -9 -5 -28 -8 -42 -6 -83 12 -120 12 -132 -2z m137 -45 c9
-9 -36 -155 -68 -221 l-35 -72 4 70 c2 39 3 103 3 142 0 40 3 78 7 84 6 10 79
8 89 -3z m103 -8 c25 -7 24 -8 -16 -15 -40 -7 -63 -27 -48 -42 7 -7 186 35
201 48 6 4 47 5 93 2 l82 -6 -5 -31 c-3 -17 -10 -71 -16 -120 -5 -49 -12 -93
-14 -96 -3 -4 -11 -63 -19 -131 -8 -68 -18 -135 -23 -149 -5 -14 -8 -46 -8
-72 2 -46 0 -48 -25 -48 -15 0 -52 5 -81 11 -30 5 -95 10 -144 10 -73 0 -96 4
-120 19 -17 11 -45 20 -63 20 l-34 0 5 48 c2 26 11 72 20 102 47 170 59 208
76 240 10 19 30 69 44 111 29 86 47 120 60 112 5 -3 21 -9 35 -13z m435 -14
c15 1 27 -1 27 -3 0 -2 -11 -20 -23 -41 -38 -59 -98 -199 -129 -297 -21 -66
-27 -78 -23 -45 3 25 10 77 15 115 5 39 14 94 20 124 5 29 10 69 10 88 0 53
15 75 48 66 15 -4 39 -7 55 -7z m-973 -85 c19 -5 71 -15 114 -22 l80 -12 -80
-22 c-43 -11 -105 -31 -136 -43 l-58 -22 0 58 c0 32 3 62 7 65 9 9 31 9 73 -2z
m18 -366 c28 -13 79 -28 114 -33 l63 -8 -60 -13 c-33 -7 -93 -24 -134 -37 -54
-18 -77 -21 -82 -13 -8 14 0 87 13 112 12 23 25 22 86 -8z m-948 -10 c19 -7
67 -16 105 -20 61 -7 67 -9 45 -18 -55 -23 -166 -81 -218 -115 l-25 -17 8 35
c5 19 9 53 10 75 4 87 4 88 23 80 9 -4 33 -13 52 -20z m450 -75 c0 -61 22
-105 78 -159 l57 -53 -68 46 c-43 29 -79 46 -98 46 -16 0 -29 4 -29 9 0 10
-109 26 -155 23 l-30 -2 34 27 c19 16 64 59 100 96 l65 68 23 -38 c13 -21 23
-49 23 -63z m855 -106 c19 -12 47 -16 116 -15 168 2 180 -12 22 -25 -109 -9
-151 -16 -182 -33 l-41 -21 0 55 c0 55 0 55 30 55 17 0 42 -7 55 -16z m-363
-203 c90 -12 170 -19 311 -27 60 -4 103 -10 95 -14 -12 -6 -63 -13 -368 -51
-47 -6 -116 -17 -153 -25 -38 -8 -80 -14 -94 -14 -22 0 -24 3 -19 23 4 12 9
38 12 57 3 19 7 41 10 48 4 15 100 16 206 3z"/>
</g>
</svg>
