<?xml version="1.0" standalone="no"?>
<!DOCTYPE svg PUBLIC "-//W3C//DTD SVG 20010904//EN"
 "http://www.w3.org/TR/2001/REC-SVG-20010904/DTD/svg10.dtd">
<svg version="1.0" xmlns="http://www.w3.org/2000/svg"
 width="216.000000pt" height="118.000000pt" viewBox="0 0 216.000000 118.000000"
 preserveAspectRatio="xMidYMid meet">
<metadata>
Created by potrace 1.16, written by Peter Selinger 2001-2019
</metadata>
<g transform="translate(0.000000,118.000000) scale(0.100000,-0.100000)"
fill="#000000" stroke="none">
<path d="M996 1052 c-92 -85 -205 -166 -260 -185 -46 -16 -231 -4 -401 25 -75
13 -132 14 -142 4 -11 -11 -7 -240 4 -243 9 -3 9 -108 -1 -228 -4 -38 -2 -76
2 -83 13 -19 42 -11 56 13 36 65 55 82 118 100 34 10 68 22 74 27 12 9 324 17
324 8 0 -3 -9 -11 -20 -18 -26 -16 -28 -47 -2 -33 27 15 97 -13 149 -59 24
-21 62 -47 85 -58 l42 -19 -3 -89 c-1 -64 2 -94 12 -108 18 -24 35 -15 107 60
32 33 78 68 110 83 52 24 67 26 285 34 127 4 263 8 303 7 80 0 94 4 86 24 -4
10 -21 13 -62 10 -152 -9 -461 -6 -574 6 -135 13 -198 9 -198 -15 0 -12 15
-15 64 -15 65 0 94 -13 56 -25 -11 -4 -48 -32 -81 -63 l-61 -56 3 99 c2 61 0
99 -6 98 -6 -1 -17 -4 -25 -8 -10 -3 -34 8 -61 29 l-44 35 -3 92 c-2 51 -5 97
-8 101 -7 12 -44 -9 -86 -50 l-37 -35 -148 6 c-81 3 -179 12 -218 20 -108 23
-169 25 -173 6 -3 -18 34 -29 94 -29 49 0 42 -16 -15 -35 -27 -9 -61 -27 -77
-41 l-27 -26 6 39 c4 21 7 76 7 123 l0 85 88 42 c101 49 166 68 317 94 121 21
156 16 187 -24 l17 -22 21 23 c12 12 19 26 16 31 -3 5 7 32 24 62 27 51 30 69
9 69 -5 0 -23 -25 -40 -55 -30 -53 -45 -71 -33 -40 5 11 -2 15 -27 16 -30 0
-32 2 -16 12 10 7 31 22 45 34 15 13 30 23 35 23 4 0 40 29 80 64 l73 64 0
-65 c-1 -53 2 -68 17 -77 16 -9 25 -4 65 40 34 38 59 55 92 64 25 7 145 16
270 21 124 4 237 10 252 12 15 2 41 -3 57 -11 25 -12 34 -12 46 -2 31 25 17
40 -37 41 -29 1 -57 1 -62 0 -5 -1 -98 -4 -205 -7 -139 -3 -230 0 -311 11 -63
8 -119 15 -124 15 -4 0 -6 7 -2 15 13 35 -29 10 -108 -63z m170 -6 c-11 -6
-30 -23 -44 -38 -14 -16 -28 -28 -32 -28 -7 0 -3 39 5 67 3 8 20 12 47 11 35
-1 39 -3 24 -12z m-683 -213 c37 -3 65 -8 63 -11 -3 -2 -29 -10 -58 -18 -66
-16 -128 -39 -179 -64 -59 -30 -69 -27 -69 23 0 23 3 53 7 66 7 26 5 26 236 4z
m402 -314 c-3 -5 -2 -24 3 -42 l10 -34 -42 14 c-22 8 -42 16 -44 18 -7 7 61
64 69 59 5 -3 7 -10 4 -15z"/>
<path d="M1265 856 c-115 -38 -205 -116 -205 -179 0 -37 37 -77 96 -103 28
-12 54 -28 56 -34 2 -8 19 -8 58 1 41 9 63 20 89 47 45 48 71 112 71 175 0 47
-3 54 -33 74 -43 29 -82 35 -132 19z m95 -53 c40 -35 21 -134 -36 -197 -23
-24 -33 -27 -64 -23 -46 6 -110 47 -133 86 -16 28 -16 32 -1 64 17 36 52 58
124 81 51 16 81 13 110 -11z"/>
<path d="M1693 801 c-78 -36 -153 -134 -138 -180 3 -10 24 -28 47 -41 22 -12
50 -32 61 -43 15 -15 32 -20 61 -19 103 6 166 74 168 182 2 88 -12 104 -102
114 -43 5 -64 2 -97 -13z m141 -43 c3 -13 6 -48 6 -78 0 -48 -4 -60 -29 -88
-42 -45 -76 -43 -141 9 -59 47 -64 56 -51 92 23 60 68 86 147 87 56 0 62 -2
68 -22z"/>
</g>
</svg>
