<?xml version="1.0" standalone="no"?>
<!DOCTYPE svg PUBLIC "-//W3C//DTD SVG 20010904//EN"
 "http://www.w3.org/TR/2001/REC-SVG-20010904/DTD/svg10.dtd">
<svg version="1.0" xmlns="http://www.w3.org/2000/svg"
 width="218.000000pt" height="132.000000pt" viewBox="0 0 218.000000 132.000000"
 preserveAspectRatio="xMidYMid meet">
<metadata>
Created by potrace 1.16, written by Peter Selinger 2001-2019
</metadata>
<g transform="translate(0.000000,132.000000) scale(0.100000,-0.100000)"
fill="#000000" stroke="none">
<path d="M939 1128 c-87 -126 -215 -290 -237 -304 -22 -15 -63 -19 -236 -25
-114 -5 -211 -11 -214 -14 -3 -3 -1 -10 6 -17 8 -8 33 -8 99 1 48 6 116 9 151
7 34 -3 86 -1 115 4 28 4 54 6 56 4 2 -1 -11 -21 -28 -43 -17 -21 -39 -57 -48
-78 -9 -21 -18 -32 -20 -25 -8 22 -153 9 -153 -14 0 -16 1 -16 87 -16 61 -1
61 -1 51 -24 -6 -13 -15 -24 -20 -24 -5 0 3 -16 18 -35 l26 -35 -183 -1 c-179
-1 -228 -6 -232 -22 -2 -9 365 -12 403 -3 27 6 36 0 87 -55 26 -27 29 -35 15
-35 -87 -2 -368 -18 -407 -23 -35 -4 -50 -11 -50 -21 0 -9 8 -14 20 -12 66 9
471 19 496 12 30 -9 114 -72 159 -121 14 -15 39 -34 57 -43 43 -21 108 -85
108 -105 0 -22 43 -27 51 -6 4 9 22 22 41 30 20 9 33 20 30 27 -6 17 12 51 84
158 32 49 70 109 83 132 62 114 99 174 124 199 l28 28 108 -99 c101 -93 146
-119 146 -87 0 8 -11 24 -25 37 -37 35 -17 41 124 41 93 0 122 3 131 14 10 13
8 15 -11 16 -83 2 -192 -3 -244 -12 -53 -9 -61 -9 -72 7 -12 16 -11 19 4 25
31 11 125 21 232 24 94 3 136 14 118 31 -4 4 -35 6 -69 5 -55 -2 -105 -8 -283
-36 -33 -5 -45 -2 -70 19 -16 13 -27 28 -23 32 4 4 38 8 75 10 157 8 292 24
299 36 12 19 29 20 -353 -18 -92 -9 -83 24 12 47 28 6 68 18 90 25 l40 13 -45
-5 c-25 -3 -60 -8 -79 -10 l-33 -6 27 44 c14 24 31 53 37 65 15 30 58 45 157
52 54 4 86 11 89 19 4 14 -73 16 -150 3 l-47 -8 24 25 c32 32 31 42 -3 42 -31
0 -55 -21 -67 -59 -4 -12 -24 -41 -46 -63 -21 -22 -50 -64 -64 -94 -14 -30
-30 -54 -34 -54 -5 0 -20 13 -34 29 -34 41 -119 115 -265 231 -38 30 -81 72
-96 92 -29 41 -105 98 -130 98 -8 0 -25 -15 -37 -32z m140 -92 c10 -12 0 -14
-69 -14 -44 0 -82 4 -85 8 -3 5 11 25 30 45 l36 36 38 -30 c21 -17 43 -37 50
-45z m-15 -56 c28 -10 36 -47 13 -56 -8 -3 -48 1 -89 8 -72 12 -75 14 -67 36
7 19 15 22 63 22 30 0 66 -4 80 -10z m253 -174 c33 -23 84 -63 113 -90 l52
-48 -25 -27 c-13 -14 -33 -39 -43 -56 -10 -16 -66 -102 -124 -190 -58 -88
-109 -169 -114 -180 -8 -16 -11 -8 -17 40 -14 105 -29 334 -36 534 l-6 194 69
-68 c38 -37 97 -86 131 -109z m-447 -18 c0 -178 15 -469 26 -515 4 -13 4 -23
1 -23 -13 0 -138 109 -214 187 -58 58 -83 91 -83 107 0 14 16 45 35 70 19 26
35 56 35 69 0 26 55 97 76 97 8 0 14 9 14 20 0 12 23 50 50 86 28 36 50 69 50
75 0 5 2 9 5 9 2 0 5 -82 5 -182z m163 105 l57 -6 0 -90 0 -90 -37 7 c-21 4
-64 10 -95 13 -52 5 -57 8 -53 27 2 11 4 26 4 33 1 8 26 11 82 10 58 -2 83 2
86 11 3 8 -10 12 -49 12 -29 0 -70 3 -90 6 -32 6 -36 9 -33 33 1 14 3 32 4 40
1 10 10 12 34 7 17 -4 58 -9 90 -13z m10 -210 c43 -5 47 -8 47 -32 l0 -26 -90
0 -90 0 0 38 0 38 43 -6 c23 -3 63 -8 90 -12z m23 -93 c20 0 24 -5 24 -31 l0
-31 -74 4 c-41 2 -77 5 -79 8 -2 3 -7 18 -11 34 l-7 29 62 -7 c34 -3 73 -6 85
-6z m31 -107 c23 -29 4 -43 -58 -43 -72 0 -70 0 -91 -11 -16 -9 -18 -5 -18 30
0 22 5 42 13 44 24 10 142 -5 154 -20z m-25 -79 c32 -6 36 -10 34 -32 -3 -25
-5 -25 -85 -26 -69 -1 -81 1 -81 16 0 9 -3 23 -6 32 -5 13 3 16 47 16 30 0 71
-3 91 -6z m26 -92 c6 -2 12 -12 12 -22 0 -16 -11 -19 -80 -22 -71 -3 -80 -1
-84 16 -3 11 -3 23 0 28 6 9 128 9 152 0z m15 -79 c4 -2 7 -16 7 -30 0 -24 -2
-25 -45 -19 -25 4 -50 4 -57 0 -17 -11 18 -22 70 -23 23 -1 42 -4 42 -7 0 -4
-12 -17 -26 -30 l-25 -24 -65 57 c-68 60 -77 79 -41 86 24 5 127 -2 140 -10z"/>
<path d="M1849 866 c-3 -3 -45 -10 -94 -16 -77 -10 -124 -25 -112 -36 2 -2 43
3 91 12 49 8 101 12 117 9 36 -8 69 2 69 21 0 9 -11 14 -33 14 -19 0 -36 -2
-38 -4z"/>
<path d="M1802 773 c-18 -2 -30 -9 -27 -14 7 -10 55 -12 79 -3 18 7 12 25 -7
22 -7 0 -27 -3 -45 -5z"/>
<path d="M248 652 c-51 -3 -67 -22 -19 -22 16 0 31 -6 34 -12 3 -9 21 -12 56
-10 45 4 50 6 41 22 -11 20 -43 26 -112 22z"/>
</g>
</svg>
