<?xml version="1.0" standalone="no"?>
<!DOCTYPE svg PUBLIC "-//W3C//DTD SVG 20010904//EN"
 "http://www.w3.org/TR/2001/REC-SVG-20010904/DTD/svg10.dtd">
<svg version="1.0" xmlns="http://www.w3.org/2000/svg"
 width="144.000000pt" height="158.000000pt" viewBox="0 0 144.000000 158.000000"
 preserveAspectRatio="xMidYMid meet">
<metadata>
Created by potrace 1.16, written by Peter Selinger 2001-2019
</metadata>
<g transform="translate(0.000000,158.000000) scale(0.100000,-0.100000)"
fill="#000000" stroke="none">
<path d="M376 1301 c-10 -16 3 -33 20 -27 8 3 34 -1 57 -10 121 -45 168 -47
540 -29 54 3 116 2 138 -1 38 -6 40 -9 35 -33 -4 -14 -11 -55 -16 -91 -6 -36
-13 -76 -15 -90 -3 -14 -12 -95 -20 -180 -8 -85 -19 -184 -24 -220 -5 -36 -15
-110 -21 -165 -7 -55 -18 -112 -26 -126 -7 -14 -11 -29 -8 -32 3 -3 3 -14 0
-25 -8 -24 -61 -29 -236 -22 -69 2 -202 5 -297 5 -147 0 -175 -2 -189 -17 -15
-15 -15 -17 2 -26 21 -11 285 -21 528 -21 123 0 155 -3 182 -17 30 -17 33 -16
65 2 31 18 35 26 41 80 5 32 8 91 8 129 0 39 7 126 15 195 20 155 44 404 51
530 5 77 10 99 26 117 42 46 24 51 -169 51 -340 1 -433 3 -433 11 0 4 -6 8
-12 8 -7 1 -63 4 -124 8 -78 5 -113 4 -118 -4z"/>
<path d="M350 1060 c-24 -17 11 -36 83 -45 51 -7 57 -9 32 -14 -42 -8 -44 -41
-7 -89 16 -20 32 -45 35 -55 4 -9 25 -44 47 -78 l41 -60 -67 -72 c-36 -40 -83
-93 -103 -119 -23 -30 -43 -47 -56 -46 -40 2 -55 -2 -55 -17 0 -9 9 -15 24
-15 13 0 26 -6 29 -14 3 -7 25 -16 49 -20 102 -15 201 -25 313 -32 66 -3 128
-11 138 -16 37 -19 45 -4 45 84 1 46 3 115 7 153 3 39 8 126 10 195 1 69 6
141 9 160 6 32 4 36 -26 51 -18 9 -64 17 -103 18 -38 1 -72 4 -75 6 -3 2 -66
8 -140 14 -74 6 -153 14 -175 16 -22 3 -47 1 -55 -5z m238 -74 c5 -3 62 -7
127 -10 64 -3 120 -8 123 -11 3 -3 -4 -5 -15 -5 -12 0 -50 -35 -104 -95 -46
-52 -86 -95 -89 -95 -9 0 -78 124 -86 154 -3 14 -10 29 -15 32 -5 3 -14 14
-20 25 -10 19 -8 20 30 15 22 -2 44 -7 49 -10z m272 -64 c-5 -15 -11 -118 -13
-230 -2 -111 -7 -206 -11 -210 -4 -4 -13 1 -20 11 -7 9 -17 17 -22 17 -6 0
-25 26 -44 58 -19 31 -47 73 -62 93 -15 20 -28 42 -28 49 0 18 37 68 94 129
90 95 96 102 96 112 0 6 4 8 9 4 6 -3 6 -16 1 -33z m-220 -304 c17 -18 40 -49
50 -68 10 -19 31 -48 46 -64 l28 -29 -95 7 c-52 4 -118 10 -148 12 -30 2 -56
6 -59 9 -14 14 112 165 138 165 5 0 23 -15 40 -32z"/>
</g>
</svg>
