<?xml version="1.0" standalone="no"?>
<!DOCTYPE svg PUBLIC "-//W3C//DTD SVG 20010904//EN"
 "http://www.w3.org/TR/2001/REC-SVG-20010904/DTD/svg10.dtd">
<svg version="1.0" xmlns="http://www.w3.org/2000/svg"
 width="241.000000pt" height="144.000000pt" viewBox="0 0 241.000000 144.000000"
 preserveAspectRatio="xMidYMid meet">
<metadata>
Created by potrace 1.16, written by Peter Selinger 2001-2019
</metadata>
<g transform="translate(0.000000,144.000000) scale(0.100000,-0.100000)"
fill="#000000" stroke="none">
<path d="M1101 1358 c-12 -31 -248 -261 -289 -282 -19 -10 -43 -19 -55 -22
-11 -2 -23 -8 -27 -14 -8 -14 -141 -6 -250 15 -47 9 -116 23 -155 30 -38 7
-77 16 -86 20 -34 13 -68 -56 -67 -137 0 -20 -8 -62 -17 -93 -18 -65 -12 -81
25 -60 22 12 139 70 195 96 82 38 268 79 357 79 38 0 77 -8 109 -21 29 -13 54
-18 58 -13 5 5 21 34 37 64 31 63 133 230 140 230 3 0 3 -4 0 -9 -8 -12 3 -41
15 -41 6 0 22 9 37 19 33 23 194 40 432 46 91 2 263 9 384 15 120 6 236 8 256
5 32 -5 40 -3 54 16 11 16 12 26 5 35 -18 21 -127 26 -249 11 -149 -19 -783
-13 -815 8 -11 7 -35 16 -53 19 -27 7 -33 4 -41 -16z m997 -35 c-10 -2 -28 -2
-40 0 -13 2 -5 4 17 4 22 1 32 -1 23 -4z m-830 -14 c60 3 52 -15 -10 -23 -97
-11 -118 -8 -118 15 0 19 4 20 43 13 23 -4 61 -7 85 -5z m125 -6 c-13 -2 -35
-2 -50 0 -16 2 -5 4 22 4 28 0 40 -2 28 -4z m220 0 c-7 -2 -21 -2 -30 0 -10 3
-4 5 12 5 17 0 24 -2 18 -5z m84 1 c-3 -3 -12 -4 -19 -1 -8 3 -5 6 6 6 11 1
17 -2 13 -5z m-748 -199 c-34 -58 -66 -105 -73 -105 -6 0 -24 10 -38 21 l-27
22 57 42 c31 23 75 61 97 84 21 22 40 41 41 41 2 0 -24 -47 -57 -105z m-529
-86 c30 -6 62 -14 70 -16 8 -3 -28 -19 -80 -37 -52 -18 -117 -42 -144 -54 -27
-12 -51 -22 -53 -22 -8 0 8 133 18 151 8 15 15 15 71 3 35 -7 88 -18 118 -25z"/>
<path d="M1878 1148 c-13 -13 -32 -37 -43 -53 -23 -31 -50 -36 -142 -22 -67
10 -83 -5 -83 -75 l0 -50 -32 6 c-18 4 -60 9 -93 12 -76 7 -173 31 -203 50
-26 17 -79 22 -91 8 -5 -5 -11 -49 -14 -99 -3 -49 -7 -99 -9 -110 -4 -26 33
-33 55 -11 9 9 21 16 28 16 7 0 38 9 68 19 31 11 103 27 160 35 56 8 110 21
119 28 14 12 15 8 8 -37 -4 -27 -9 -75 -12 -105 -3 -30 -7 -70 -10 -89 l-5
-34 -82 7 c-82 6 -270 24 -274 25 -2 1 -3 8 -3 16 0 21 -37 19 -48 -2 -5 -10
-10 -52 -11 -93 -1 -41 -5 -85 -8 -97 -7 -30 17 -39 54 -20 15 8 57 24 93 37
36 12 79 28 97 36 42 19 162 49 169 42 2 -3 2 -24 -2 -46 -4 -28 -13 -43 -25
-47 -33 -11 -21 -41 39 -99 43 -42 63 -56 82 -54 20 2 25 9 25 30 0 32 12 46
148 172 109 102 139 125 169 126 21 0 118 76 118 93 0 11 -62 67 -75 67 -3 0
-23 13 -43 30 -36 28 -38 34 -40 92 -3 79 -29 193 -47 208 -11 9 -19 7 -37
-12z m20 -85 c13 -25 24 -123 15 -123 -15 1 -97 46 -100 56 -4 11 54 84 67 84
5 0 13 -8 18 -17z m-168 -52 c0 -5 -18 -53 -40 -107 -22 -54 -43 -113 -46
-131 -3 -18 -10 -36 -15 -39 -5 -3 -7 1 -4 8 10 31 18 99 20 173 2 44 4 86 4
93 1 14 81 17 81 3z m-429 -62 c9 -5 42 -12 73 -15 31 -4 56 -10 56 -14 0 -5
-23 -11 -52 -15 -28 -4 -66 -13 -84 -21 -48 -20 -64 -10 -64 42 0 43 1 44 28
38 15 -4 34 -11 43 -15z m499 -4 c19 -14 42 -25 52 -25 9 0 37 -19 60 -43 24
-23 69 -60 101 -81 42 -28 55 -42 47 -51 -5 -6 -45 -29 -87 -50 -43 -21 -125
-66 -183 -101 -58 -35 -117 -66 -132 -70 -27 -6 -28 -5 -28 34 0 23 4 43 10
47 5 3 7 12 3 20 -3 9 2 37 10 63 8 26 18 63 22 82 11 53 76 200 89 200 1 0
17 -11 36 -25z m-405 -343 c15 -8 4 -14 -61 -35 -43 -14 -86 -28 -95 -32 -12
-4 -18 1 -22 24 -12 56 -3 62 83 57 42 -2 85 -8 95 -14z m340 -107 c-38 -35
-77 -64 -86 -65 -19 0 -49 32 -34 37 6 2 48 23 95 46 47 24 87 44 90 45 3 1
-26 -27 -65 -63z"/>
<path d="M193 708 c-34 -43 -73 -180 -73 -258 0 -62 13 -67 92 -31 35 15 79
31 98 34 37 7 214 58 290 82 59 20 64 19 46 -7 -29 -41 -21 -58 27 -58 23 0
75 -11 115 -25 41 -14 81 -25 90 -25 17 0 15 1 117 -94 39 -36 79 -72 89 -79
19 -14 20 -36 1 -124 -10 -42 13 -53 53 -25 50 36 157 55 382 68 58 3 121 8
140 10 19 3 169 6 332 9 295 4 338 9 338 39 0 19 -79 28 -225 27 -66 -1 -210
4 -320 11 -110 7 -297 12 -415 13 -118 0 -222 2 -230 5 -54 18 -180 143 -180
178 0 12 -4 22 -10 22 -25 0 -97 119 -115 193 -4 15 -13 27 -20 27 -19 0 -63
-38 -70 -60 -6 -17 -15 -20 -73 -20 -129 1 -361 31 -426 56 -9 3 -16 15 -16
25 0 21 -23 25 -37 7z m197 -114 c41 -3 93 -7 115 -9 22 -2 55 -4 74 -4 19 -1
32 -3 29 -6 -2 -3 -59 -18 -126 -35 -67 -16 -161 -41 -208 -55 -47 -14 -88
-25 -90 -25 -12 0 0 94 21 157 3 9 17 8 57 -3 29 -8 87 -17 128 -20z m441 -60
c11 -25 27 -48 35 -51 8 -3 14 -9 14 -14 0 -5 -22 0 -48 10 -27 11 -69 22 -95
26 -40 6 -46 10 -35 22 14 17 78 52 96 53 7 0 22 -21 33 -46z m903 -302 c60
-1 107 -4 104 -7 -2 -3 -99 -9 -214 -15 -115 -6 -269 -17 -342 -26 -73 -9
-136 -14 -139 -10 -14 14 17 55 44 58 32 3 384 4 547 0z"/>
</g>
</svg>
