<?xml version="1.0" standalone="no"?>
<!DOCTYPE svg PUBLIC "-//W3C//DTD SVG 20010904//EN"
 "http://www.w3.org/TR/2001/REC-SVG-20010904/DTD/svg10.dtd">
<svg version="1.0" xmlns="http://www.w3.org/2000/svg"
 width="317.000000pt" height="184.000000pt" viewBox="0 0 317.000000 184.000000"
 preserveAspectRatio="xMidYMid meet">
<metadata>
Created by potrace 1.16, written by Peter Selinger 2001-2019
</metadata>
<g transform="translate(0.000000,184.000000) scale(0.100000,-0.100000)"
fill="#000000" stroke="none">
<path d="M590 1700 c-36 -38 -70 -70 -76 -70 -14 0 -54 -44 -99 -110 -21 -30
-93 -111 -161 -180 -242 -247 -254 -261 -254 -296 0 -28 3 -31 21 -27 11 3 24
15 29 27 10 26 30 43 50 43 9 0 50 23 92 51 l76 52 43 -19 c24 -10 60 -32 80
-47 20 -16 45 -34 55 -40 18 -10 17 -13 -9 -47 -14 -19 -33 -41 -40 -49 -27
-27 -77 -101 -77 -115 0 -38 48 3 141 122 17 22 33 42 35 44 2 2 22 -8 45 -24
l42 -27 -48 -41 c-115 -99 -145 -136 -122 -155 10 -8 29 5 77 55 35 36 79 77
98 91 33 25 33 25 70 8 20 -10 68 -41 105 -68 l68 -51 -3 -66 c-3 -62 -2 -66
20 -69 17 -3 22 2 22 20 1 19 2 20 10 7 7 -12 20 -14 67 -8 102 13 273 11 273
-3 0 -7 -5 -47 -11 -89 -14 -91 -6 -149 20 -149 16 0 18 9 18 68 0 37 5 92 12
124 l12 56 47 4 c26 2 57 2 69 0 24 -4 24 -3 1 -149 -12 -80 -5 -143 17 -143
15 0 30 35 20 50 -3 5 1 46 10 91 8 45 15 96 15 115 0 38 4 40 110 50 180 16
184 16 194 2 13 -16 61 -40 149 -73 107 -40 127 -49 127 -58 0 -4 -19 -29 -43
-55 -47 -51 -97 -131 -97 -156 0 -9 8 -16 19 -16 13 0 27 15 42 48 13 26 40
66 62 88 21 23 44 50 52 60 14 19 15 19 47 0 18 -10 50 -27 71 -38 20 -11 37
-23 37 -27 0 -4 -27 -33 -61 -66 -65 -64 -115 -138 -104 -155 11 -18 31 -10
46 19 8 16 49 66 92 111 l78 83 77 -38 c140 -70 220 -124 215 -144 -3 -14 7
-25 44 -45 26 -15 60 -30 75 -33 15 -3 33 -12 39 -19 6 -8 18 -14 25 -14 14 0
19 15 28 81 2 20 23 76 45 123 23 48 41 89 41 91 0 24 104 213 142 256 26 31
48 59 48 63 0 3 -9 6 -20 6 -12 0 -41 -27 -77 -71 -79 -97 -112 -142 -113
-153 0 -16 -203 -216 -218 -216 -8 0 -29 13 -47 29 -18 15 -66 47 -106 70 -41
22 -89 53 -107 68 l-32 28 47 62 c27 34 71 91 98 127 28 36 61 69 74 72 18 5
45 -3 97 -30 39 -20 77 -43 84 -51 7 -8 17 -15 23 -15 5 0 32 -13 59 -30 56
-35 54 -34 61 -16 4 9 -17 32 -56 63 -87 67 -378 326 -464 411 -39 39 -79 85
-89 101 -22 37 -56 41 -78 10 -12 -17 -20 -20 -43 -14 -15 4 -102 9 -193 10
-111 2 -190 8 -240 20 -41 9 -120 21 -175 26 -116 11 -121 12 -238 34 -101 19
-122 16 -111 -17 6 -20 2 -19 -35 12 -23 19 -72 62 -109 96 -66 59 -224 188
-306 250 -22 17 -47 38 -55 47 -7 10 -16 17 -20 16 -3 0 -35 -32 -71 -69z
m134 -22 c22 -18 78 -64 122 -103 45 -38 105 -90 133 -114 29 -24 50 -45 47
-48 -6 -6 -45 15 -81 45 -16 13 -98 58 -183 99 -137 66 -152 76 -141 91 22 29
52 62 57 62 2 0 23 -14 46 -32z m106 -219 c-8 -9 -46 -51 -85 -94 -38 -43 -97
-107 -131 -143 l-61 -65 -19 27 c-10 15 -31 43 -46 63 -16 20 -28 40 -28 44 0
5 -9 9 -20 9 -11 0 -20 -2 -20 -4 0 -12 65 -124 83 -144 19 -21 20 -24 5 -38
-15 -15 -23 -12 -93 35 -42 28 -83 51 -91 51 -26 0 -14 17 59 86 84 81 250
194 282 194 41 0 36 27 -12 70 -25 22 -50 40 -54 40 -5 0 -9 4 -9 10 0 5 58
-21 128 -57 117 -62 127 -69 112 -84z m-281 86 c22 -13 42 -28 45 -34 3 -5
-17 -24 -45 -41 -27 -18 -96 -75 -152 -127 -98 -90 -212 -171 -224 -160 -3 4
48 59 114 124 71 70 139 147 166 191 26 39 49 72 52 72 3 0 23 -11 44 -25z
m395 -133 c16 -9 41 -27 56 -39 15 -13 32 -23 37 -23 9 0 49 -28 111 -77 29
-23 33 -32 31 -65 -2 -21 2 -43 8 -49 16 -16 43 -4 43 20 0 25 35 29 275 36
99 3 216 10 260 15 83 9 133 8 223 -5 46 -7 52 -6 52 10 0 12 5 15 18 10 9 -3
38 -9 64 -12 52 -6 54 -19 11 -61 -31 -31 -26 -62 12 -81 17 -8 72 -39 122
-69 l93 -54 -30 -41 c-35 -52 -64 -85 -137 -160 -56 -58 -63 -60 -93 -27 -22
25 -132 100 -154 106 -43 10 -30 -10 39 -61 36 -26 79 -60 96 -75 l32 -27 -21
-23 -21 -22 -93 39 c-51 22 -110 46 -131 53 l-38 12 46 42 c27 25 45 51 45 64
0 30 -26 28 -53 -4 -19 -21 -26 -24 -48 -16 -31 12 -193 16 -273 6 l-58 -7 7
89 c8 99 29 240 40 267 5 13 2 17 -13 17 -11 0 -25 -6 -31 -14 -14 -17 -41
-189 -41 -262 0 -80 -3 -84 -71 -84 -52 0 -59 2 -59 20 0 11 9 28 20 37 21 18
28 63 10 63 -14 0 -2 113 16 159 18 43 18 71 0 71 -21 0 -43 -56 -55 -140 -7
-41 -17 -104 -23 -139 l-10 -63 -62 6 c-33 3 -90 8 -126 11 -36 4 -92 10 -124
15 -33 5 -69 7 -81 4 -16 -4 -39 12 -100 70 l-78 75 89 98 c49 54 109 123 134
153 24 30 52 61 62 68 25 18 22 32 -6 32 -17 0 -39 -17 -73 -57 -91 -107 -226
-253 -232 -253 -4 0 -22 15 -40 34 l-33 34 127 138 c70 77 135 149 144 161 14
20 18 20 36 7 11 -8 33 -22 49 -32z m412 -101 c27 -5 95 -12 150 -16 56 -3
121 -11 145 -18 41 -13 34 -14 -125 -20 -93 -4 -193 -7 -223 -7 l-53 0 0 35
c0 32 3 35 29 35 15 0 50 -4 77 -9z m934 -121 c0 -6 101 -98 186 -169 39 -33
185 -160 203 -177 8 -7 -17 3 -55 21 -38 19 -76 37 -84 40 -8 3 -50 27 -92 53
-43 26 -122 74 -178 107 -55 33 -100 63 -100 67 0 4 9 12 19 18 11 5 23 24 26
42 4 18 9 36 12 40 4 8 63 -31 63 -42z m-1696 -121 c40 -44 20 -60 -28 -24
-29 22 -34 30 -25 41 16 20 22 18 53 -17z m1861 -162 c22 -12 40 -28 40 -34 0
-12 -32 -55 -98 -132 -22 -24 -50 -62 -63 -83 -14 -22 -31 -41 -39 -45 -18 -6
-115 54 -115 71 0 7 16 28 36 47 19 18 67 71 107 117 39 45 75 82 81 82 6 0
29 -11 51 -23z m-1455 -66 c30 -8 165 -20 223 -21 12 0 17 -8 17 -30 l0 -30
-82 0 c-88 -1 -152 -5 -232 -16 l-49 -6 7 38 c13 70 15 74 49 74 18 0 48 -4
67 -9z m410 -56 c0 -24 -2 -25 -65 -25 -63 0 -65 1 -65 25 0 24 2 25 65 25 63
0 65 -1 65 -25z m348 11 c3 -3 -24 -6 -59 -6 -35 0 -80 -4 -99 -9 -19 -5 -59
-11 -87 -14 -49 -4 -53 -2 -53 18 0 21 2 21 146 19 80 -1 148 -5 152 -8z m422
-166 c14 -11 30 -20 35 -20 6 0 21 -10 34 -20 19 -17 21 -23 11 -35 -11 -13
-18 -12 -59 11 -76 42 -86 51 -71 69 16 19 20 19 50 -5z m282 -176 c54 -30
100 -60 104 -66 4 -6 -13 1 -37 16 -24 15 -78 44 -119 65 -113 56 -121 61
-114 72 3 6 18 2 37 -11 18 -11 76 -45 129 -76z m339 4 c-21 -46 -46 -96 -55
-113 -9 -16 -16 -36 -16 -42 0 -34 -54 -2 -63 37 -6 21 6 38 81 113 47 48 88
87 89 87 1 0 -15 -37 -36 -82z"/>
</g>
</svg>
