<?xml version="1.0" standalone="no"?>
<!DOCTYPE svg PUBLIC "-//W3C//DTD SVG 20010904//EN"
 "http://www.w3.org/TR/2001/REC-SVG-20010904/DTD/svg10.dtd">
<svg version="1.0" xmlns="http://www.w3.org/2000/svg"
 width="280.000000pt" height="178.000000pt" viewBox="0 0 280.000000 178.000000"
 preserveAspectRatio="xMidYMid meet">
<metadata>
Created by potrace 1.16, written by Peter Selinger 2001-2019
</metadata>
<g transform="translate(0.000000,178.000000) scale(0.100000,-0.100000)"
fill="#000000" stroke="none">
<path d="M2413 1466 c-18 -6 -35 -15 -39 -19 -4 -4 -19 -7 -33 -7 -14 0 -53
-12 -86 -26 -165 -70 -357 -119 -523 -135 -64 -6 -184 -19 -267 -30 -82 -11
-168 -22 -190 -25 -22 -3 -78 -11 -125 -19 -59 -10 -179 -14 -395 -15 -170 0
-325 -2 -344 -3 -23 -2 -39 3 -52 17 -32 33 -44 7 -45 -94 -1 -63 3 -93 12
-101 16 -13 34 -4 34 17 0 13 12 15 68 10 37 -2 87 0 112 5 25 6 59 10 75 10
17 0 109 11 205 24 96 13 229 31 295 40 195 26 371 59 635 121 186 43 274 63
315 69 58 9 195 52 278 87 40 17 86 33 102 37 21 5 31 14 33 29 4 25 -13 27
-65 8z m-973 -266 c-141 -27 -394 -68 -688 -110 -159 -23 -391 -32 -393 -15
-1 5 -3 24 -5 41 -3 29 -1 32 29 37 53 8 220 12 452 9 121 -1 252 2 290 7 39
6 139 19 224 30 85 12 156 23 159 26 3 3 21 4 41 4 20 -1 -29 -14 -109 -29z"/>
<path d="M1643 1076 c-84 -59 -180 -72 -281 -40 -52 17 -106 12 -100 -8 5 -13
34 -23 117 -42 75 -16 79 -36 7 -36 -30 0 -67 5 -82 11 -33 12 -77 4 -71 -14
7 -21 90 -38 177 -35 73 3 85 5 85 21 0 11 23 29 70 51 38 19 72 33 76 31 3
-3 14 4 24 15 10 11 21 20 25 20 4 0 18 -26 30 -57 49 -127 77 -155 112 -113
18 22 55 27 239 32 65 2 92 -1 98 -11 7 -11 4 -100 -4 -128 -3 -8 -64 -10
-234 -8 l-230 4 -40 -46 -39 -46 -6 44 c-3 24 -5 82 -3 129 2 70 -1 85 -14 88
-21 4 -39 -37 -28 -65 5 -13 4 -35 -3 -53 -15 -44 -5 -128 17 -144 16 -12 16
-13 2 -19 -17 -6 -37 18 -37 46 0 8 -8 22 -19 31 -10 9 -24 37 -31 62 -12 42
-14 44 -51 44 -21 0 -70 7 -111 15 -84 18 -128 13 -128 -15 0 -14 7 -19 28
-19 15 0 68 -3 117 -7 81 -6 91 -9 91 -26 0 -18 -5 -19 -46 -13 -109 19 -180
10 -180 -22 0 -10 21 -14 83 -15 45 -1 99 -3 119 -3 40 -2 78 -28 78 -54 0
-21 37 -80 54 -87 18 -7 94 46 133 95 l32 39 208 -3 c114 -2 228 -6 252 -10
55 -10 63 2 55 76 -5 41 -2 64 10 87 20 39 20 68 0 76 -8 3 -97 3 -197 0 -232
-7 -239 -5 -276 92 -33 85 -44 88 -128 30z"/>
<path d="M329 683 c-7 -16 -16 -38 -21 -49 -7 -16 -6 -28 5 -45 10 -17 15 -51
15 -113 1 -65 5 -93 16 -104 18 -18 46 -9 53 18 8 30 48 47 143 60 116 16 433
14 557 -3 64 -9 122 -11 157 -6 46 6 136 11 206 11 257 0 522 -21 625 -48 50
-14 131 -33 181 -43 88 -18 204 -64 204 -81 0 -4 11 -11 24 -14 13 -3 26 -15
29 -26 3 -12 13 -20 26 -20 32 0 28 44 -7 69 -15 12 -32 25 -39 31 -22 19
-106 60 -121 60 -8 0 -57 13 -109 30 -51 16 -108 30 -126 30 -18 0 -60 7 -92
16 -33 9 -94 19 -135 24 -41 4 -123 19 -181 33 -58 14 -161 30 -230 36 -68 5
-153 17 -189 25 -36 8 -135 22 -220 31 -127 13 -287 36 -405 59 -11 2 -60 9
-110 16 -49 6 -109 16 -132 21 -23 5 -58 9 -78 9 -29 0 -37 -5 -46 -27z m196
-28 c89 -12 179 -26 255 -40 110 -21 116 -22 240 -35 136 -14 289 -38 366 -56
33 -8 88 -14 123 -14 78 0 203 -19 216 -32 7 -7 -1 -8 -25 -3 -19 5 -177 10
-350 12 -666 8 -846 5 -919 -17 -19 -5 -35 -9 -36 -7 -1 1 -5 49 -9 106 l-6
104 57 -7 c32 -4 72 -9 88 -11z"/>
<path d="M1225 690 c-14 -23 12 -29 135 -32 96 -2 125 0 125 10 0 9 -26 14
-90 17 -49 2 -106 7 -126 10 -23 4 -40 2 -44 -5z"/>
</g>
</svg>
