<?xml version="1.0" standalone="no"?>
<!DOCTYPE svg PUBLIC "-//W3C//DTD SVG 20010904//EN"
 "http://www.w3.org/TR/2001/REC-SVG-20010904/DTD/svg10.dtd">
<svg version="1.0" xmlns="http://www.w3.org/2000/svg"
 width="236.000000pt" height="156.000000pt" viewBox="0 0 236.000000 156.000000"
 preserveAspectRatio="xMidYMid meet">
<metadata>
Created by potrace 1.16, written by Peter Selinger 2001-2019
</metadata>
<g transform="translate(0.000000,156.000000) scale(0.100000,-0.100000)"
fill="#000000" stroke="none">
<path d="M927 1338 c-14 -10 -20 -32 -24 -88 -2 -41 -10 -79 -16 -83 -7 -4
-55 -6 -107 -3 -52 3 -178 8 -280 11 -102 3 -202 11 -223 17 -56 17 -63 5 -59
-110 5 -116 15 -135 68 -120 54 14 445 45 481 37 19 -4 30 -3 27 2 -3 5 18 9
45 9 28 0 54 0 59 0 4 0 7 -24 7 -52 l0 -53 -100 -8 c-110 -9 -333 -1 -369 13
-44 17 -144 19 -157 4 -7 -8 -12 -55 -13 -116 -1 -88 2 -103 16 -106 9 -2 19
5 23 16 5 16 21 22 88 31 45 6 107 13 137 15 257 21 243 19 325 31 l50 7 -2
-57 c0 -31 -4 -59 -7 -62 -10 -10 -570 -21 -582 -12 -6 5 -18 3 -29 -5 -14
-10 -18 -28 -19 -96 l-1 -83 29 -10 c24 -8 32 -6 45 10 20 26 140 48 368 68
93 8 171 15 176 15 4 0 7 -22 7 -49 l0 -49 -107 -14 c-68 -9 -171 -14 -277
-12 -94 2 -177 -1 -187 -6 -25 -14 -33 -59 -14 -79 8 -10 15 -34 15 -53 0 -39
21 -64 46 -54 14 5 16 16 10 70 l-6 63 142 7 c79 3 157 8 173 11 66 10 -65
-27 -169 -48 -111 -23 -136 -37 -123 -71 5 -13 11 -14 32 -6 43 16 286 78 355
90 36 6 72 13 80 15 12 4 14 -5 12 -45 -6 -74 3 -100 33 -100 37 0 51 34 24
61 -17 17 -19 28 -14 59 4 21 13 41 22 44 16 6 16 5 -4 -57 -3 -11 0 -17 10
-17 20 0 33 18 41 56 7 30 8 31 119 52 129 25 257 39 407 47 58 2 129 11 158
19 28 8 105 20 169 26 111 10 143 20 143 43 0 11 -115 6 -295 -13 -55 -5 -127
-12 -160 -15 -33 -3 -136 -15 -230 -25 -93 -11 -192 -21 -218 -22 l-49 -3 7
45 c4 25 9 48 11 52 5 8 109 26 219 38 44 4 161 20 260 34 99 14 198 25 220
25 22 0 90 4 150 9 73 6 114 6 123 -1 9 -7 18 -4 32 11 21 23 26 47 11 56 -5
4 -87 -1 -183 -9 -95 -8 -272 -19 -393 -25 -121 -5 -259 -13 -306 -16 l-86 -5
2 33 c6 60 22 88 52 89 16 0 37 4 48 9 15 6 7 9 -30 10 -38 0 -46 3 -33 10 9
6 106 12 215 15 109 2 234 8 278 14 119 13 520 -2 531 -21 10 -16 44 -8 44 10
0 28 -33 52 -71 53 -125 1 -564 -3 -577 -6 -10 -1 -78 -6 -152 -9 -74 -4 -160
-9 -191 -12 -31 -3 -59 -2 -62 3 -3 4 8 40 23 78 33 83 50 95 140 95 36 0 125
7 198 15 73 8 211 17 305 19 95 3 204 10 242 16 53 9 75 8 92 -1 18 -10 26
-10 35 -1 21 21 -4 47 -43 45 -19 -1 -77 -3 -129 -5 -52 -2 -101 -8 -109 -12
-20 -13 -362 -26 -423 -17 -28 5 -92 9 -142 10 -50 1 -92 4 -95 6 -7 8 21 64
45 90 27 29 41 72 28 85 -5 4 -80 11 -167 14 -87 3 -168 8 -180 11 -12 3 -30
0 -40 -7z m311 -76 c-1 -4 -12 -32 -23 -61 l-20 -53 -40 6 c-22 4 -77 9 -122
13 l-82 6 3 36 c2 20 4 41 5 46 1 6 58 11 142 13 77 1 139 -1 137 -6z m-501
-127 l161 -7 5 -37 c2 -20 3 -37 2 -39 -4 -5 -174 -21 -290 -27 -60 -3 -149
-8 -197 -11 -47 -3 -100 -3 -116 1 -28 6 -29 9 -31 62 0 30 1 58 4 63 5 8 193
5 462 -5z m403 -10 c0 -8 9 -15 20 -15 27 0 25 -28 -2 -35 -13 -3 -62 -9 -110
-13 l-86 -8 -6 35 c-3 19 -3 37 -1 41 3 4 45 8 95 9 75 2 90 -1 90 -14z m169
-25 c-9 -5 -35 -12 -58 -16 -36 -6 -41 -4 -35 10 5 12 19 16 58 16 36 -1 46
-3 35 -10z m84 3 c-7 -2 -21 -2 -30 0 -10 3 -4 5 12 5 17 0 24 -2 18 -5z
m-233 -60 c0 -4 -10 -37 -22 -75 l-22 -68 -77 0 c-75 0 -77 0 -82 27 -3 15 -3
42 0 60 6 37 8 38 113 52 89 12 90 12 90 4z m-685 -181 c44 -5 160 -7 258 -5
172 3 177 3 177 -17 0 -16 -7 -20 -37 -21 -21 -1 -41 -1 -44 -1 -4 1 -21 -3
-39 -8 -43 -12 -137 -21 -268 -25 -59 -1 -138 -6 -175 -10 l-68 -8 3 34 c2 24
10 37 26 44 12 5 22 16 22 24 0 10 8 12 33 7 17 -4 68 -10 112 -14z m625 -11
c0 -4 -21 -11 -46 -15 -73 -10 -94 -8 -94 9 0 12 14 15 70 15 39 0 70 -4 70
-9z m-34 -101 c-19 -55 -23 -59 -50 -57 -40 3 -45 -21 -8 -34 23 -8 29 -15 25
-30 -3 -10 -9 -19 -13 -19 -4 0 -21 -3 -38 -6 l-30 -6 1 98 2 99 35 6 c19 4
49 7 66 8 l31 1 -21 -60z m284 -81 c0 -4 -21 -11 -47 -14 -66 -8 -182 -25
-215 -30 -29 -5 -34 1 -19 24 13 20 281 39 281 20z m37 5 c-3 -3 -12 -4 -19
-1 -8 3 -5 6 6 6 11 1 17 -2 13 -5z m-487 -48 c0 -14 -4 -27 -9 -30 -11 -7
-173 -24 -296 -32 -90 -5 -235 -27 -267 -39 -15 -6 -18 -1 -18 26 0 19 4 40 8
47 13 20 107 31 295 33 97 1 195 6 219 9 23 4 49 8 56 9 6 0 12 -10 12 -23z
m102 -88 c-19 -53 -30 -68 -48 -68 -10 0 -14 13 -14 44 0 39 3 45 28 54 48 18
52 15 34 -30z"/>
</g>
</svg>
