<?xml version="1.0" standalone="no"?>
<!DOCTYPE svg PUBLIC "-//W3C//DTD SVG 20010904//EN"
 "http://www.w3.org/TR/2001/REC-SVG-20010904/DTD/svg10.dtd">
<svg version="1.0" xmlns="http://www.w3.org/2000/svg"
 width="105.000000pt" height="99.000000pt" viewBox="0 0 105.000000 99.000000"
 preserveAspectRatio="xMidYMid meet">
<metadata>
Created by potrace 1.16, written by Peter Selinger 2001-2019
</metadata>
<g transform="translate(0.000000,99.000000) scale(0.100000,-0.100000)"
fill="#000000" stroke="none">
<path d="M503 863 c-11 -15 -26 -43 -33 -62 -8 -19 -63 -83 -122 -142 -59 -59
-108 -113 -108 -119 0 -6 -11 -15 -25 -22 -23 -10 -44 -62 -31 -75 3 -3 38 -9
79 -13 40 -4 84 -14 98 -23 13 -9 42 -23 64 -30 22 -8 69 -33 104 -55 35 -23
73 -44 84 -48 12 -3 29 -12 37 -19 8 -7 39 -20 67 -29 29 -10 57 -24 61 -33
12 -21 46 -12 50 13 4 27 -80 142 -131 179 -33 23 -37 31 -32 55 4 20 2 29
-10 34 -20 7 -61 98 -69 152 -4 21 -11 53 -16 69 -5 17 -11 66 -12 110 -2 65
-6 80 -19 83 -10 2 -25 -9 -36 -25z m35 -270 c11 -40 29 -88 39 -105 10 -18
26 -53 36 -78 12 -33 32 -57 73 -88 63 -49 66 -69 4 -28 -22 15 -52 31 -66 36
-13 5 -48 25 -78 44 -29 18 -63 37 -77 41 -13 4 -49 20 -79 36 -33 17 -71 29
-94 29 l-38 0 26 34 c14 19 26 38 26 41 0 4 20 25 44 48 24 23 68 71 97 107
l54 65 6 -55 c4 -30 16 -88 27 -127z"/>
</g>
</svg>
