<?xml version="1.0" standalone="no"?>
<!DOCTYPE svg PUBLIC "-//W3C//DTD SVG 20010904//EN"
 "http://www.w3.org/TR/2001/REC-SVG-20010904/DTD/svg10.dtd">
<svg version="1.0" xmlns="http://www.w3.org/2000/svg"
 width="300.000000pt" height="192.000000pt" viewBox="0 0 300.000000 192.000000"
 preserveAspectRatio="xMidYMid meet">
<metadata>
Created by potrace 1.16, written by Peter Selinger 2001-2019
</metadata>
<g transform="translate(0.000000,192.000000) scale(0.100000,-0.100000)"
fill="#000000" stroke="none">
<path d="M1000 1871 c-5 -11 -9 -78 -7 -160 2 -156 3 -158 66 -141 94 25 257
48 390 55 52 3 97 7 100 10 8 4 196 26 266 30 28 2 120 6 205 10 238 11 247
12 256 18 17 10 299 1 321 -11 27 -15 53 -6 53 19 0 13 -7 19 -22 20 -13 1
-27 2 -33 3 -14 2 -307 15 -483 21 -78 3 -206 9 -285 15 -78 5 -185 12 -237
15 -96 6 -374 40 -420 51 -69 16 -119 36 -124 50 -8 20 -33 17 -46 -5z m130
-72 c9 -4 47 -10 85 -14 39 -3 99 -10 135 -15 64 -10 114 -14 275 -25 44 -3
127 -10 185 -16 58 -6 127 -11 154 -10 27 0 46 -2 43 -6 -4 -3 -69 -10 -144
-14 -76 -4 -186 -15 -244 -24 -59 -8 -178 -22 -265 -30 -88 -8 -186 -17 -219
-21 -49 -5 -63 -3 -74 9 -16 20 -24 90 -16 144 6 41 7 42 38 36 18 -3 39 -9
47 -14z"/>
<path d="M818 1558 c-62 -62 -131 -122 -153 -133 -22 -11 -42 -23 -45 -27 -3
-3 -17 -9 -32 -13 -37 -9 -45 -36 -16 -59 l23 -18 -50 4 c-95 9 -273 73 -335
120 -23 18 -25 18 -37 2 -7 -9 -12 -35 -12 -58 0 -22 -2 -52 -6 -66 -10 -45 6
-201 22 -207 8 -3 63 20 123 51 171 89 324 133 359 103 24 -21 108 -50 121
-42 6 4 10 15 8 24 -2 10 5 33 14 52 9 19 36 84 59 144 23 61 52 128 65 151
25 43 30 69 14 79 -5 3 -60 -45 -122 -107z m7 -100 c-27 -82 -75 -178 -89
-178 -14 0 -90 52 -100 68 -3 6 24 30 61 55 38 25 83 61 102 81 19 20 37 34
39 31 2 -2 -4 -28 -13 -57z m-538 -117 c47 -25 88 -41 108 -41 11 0 29 -6 39
-13 15 -11 13 -14 -21 -26 -21 -7 -71 -29 -111 -48 -41 -19 -76 -32 -79 -29
-8 8 -14 166 -7 177 5 8 35 0 71 -20z"/>
<path d="M1567 1565 c-14 -7 -21 -19 -19 -31 9 -49 3 -205 -8 -239 l-13 -38
-131 7 c-151 7 -222 19 -247 42 -12 11 -27 13 -53 9 l-36 -7 1 -202 c1 -126
-3 -220 -11 -251 -15 -63 -13 -156 4 -173 11 -11 31 -6 112 27 97 39 280 79
310 67 7 -3 14 -16 15 -28 2 -62 9 -176 11 -203 2 -24 -1 -31 -18 -33 -11 -2
-27 4 -34 13 -7 8 -23 15 -36 15 -30 0 -39 -30 -26 -87 8 -35 7 -42 -6 -45
-31 -6 -212 11 -266 26 -30 7 -57 12 -59 9 -3 -2 -20 5 -38 16 -29 18 -34 27
-34 58 0 47 -29 59 -45 18 -8 -21 -13 -24 -28 -16 -56 30 -84 127 -86 301 -2
116 -10 121 -90 56 -31 -25 -65 -50 -77 -56 -11 -7 -74 -12 -142 -13 -122 -1
-122 -1 -194 36 -65 34 -73 42 -83 76 -12 46 -35 58 -63 34 -18 -17 -19 -26
-12 -113 4 -52 8 -131 9 -175 2 -119 12 -127 78 -65 39 37 107 75 230 129 40
17 48 18 58 5 7 -7 29 -14 49 -14 31 -1 45 -10 95 -60 33 -33 64 -60 68 -60 5
0 49 -39 99 -87 l90 -88 -2 -105 c-1 -107 18 -231 41 -253 12 -12 29 4 72 65
9 13 44 39 79 58 59 31 71 34 198 41 75 5 172 13 216 19 44 5 157 17 250 26
94 8 215 21 270 28 55 7 161 14 235 15 74 1 144 4 155 6 11 2 63 7 115 10 52
3 106 9 120 12 13 4 49 7 80 7 48 1 55 4 55 21 0 19 -5 20 -170 15 -213 -6
-1105 -2 -1125 6 -10 3 -1 13 28 29 37 21 58 24 216 31 179 7 218 15 224 48 4
17 -1 18 -35 13 l-40 -7 8 48 c5 26 14 85 20 132 6 47 12 86 14 88 7 7 335 6
335 0 0 -5 9 -8 20 -8 11 0 20 4 20 9 0 4 33 9 73 9 62 0 74 -2 88 -20 10 -13
23 -19 33 -15 13 5 16 23 16 101 0 83 4 106 30 173 17 43 44 103 60 134 45 86
42 96 -27 97 -32 0 -83 -6 -113 -15 -45 -12 -88 -14 -230 -9 -225 9 -232 10
-224 44 7 27 20 62 56 139 10 23 30 49 43 57 50 33 17 61 -57 49 -25 -3 -43
-1 -54 7 -11 10 -46 13 -120 11 -60 -1 -111 2 -118 8 -19 16 -204 29 -229 16z
m71 -75 c1 -14 -7 -43 -18 -65 l-20 -39 -1 32 c0 18 -1 46 -1 62 0 42 0 42 20
38 10 -2 18 -14 20 -28z m156 -18 c2 -4 -11 -6 -30 -4 -19 2 -34 6 -34 8 0 8
59 4 64 -4z m259 2 c17 -6 11 -32 -24 -111 -10 -24 -19 -50 -19 -58 0 -9 -4
-14 -9 -11 -8 6 -8 15 4 116 9 73 13 78 48 64z m-87 -81 c-3 -42 -6 -91 -6
-110 l0 -34 -185 4 c-102 2 -188 7 -191 10 -8 7 10 38 35 61 17 15 35 18 117
17 54 -1 117 -6 141 -12 24 -5 49 -7 54 -4 37 24 -39 46 -174 50 -55 2 -101 6
-104 9 -12 11 28 57 45 52 9 -3 55 -7 101 -11 46 -3 92 -10 102 -16 22 -11 39
-4 39 15 0 12 -50 32 -100 39 -14 2 11 4 54 5 l79 0 -7 -75z m-736 -148 c36
-2 117 -7 180 -10 63 -4 119 -10 123 -15 5 -4 4 -17 -2 -29 -11 -19 -21 -21
-124 -22 -118 -1 -205 -5 -222 -9 -5 -1 -25 -2 -42 -1 -33 1 -33 1 -33 52 0
51 0 51 28 45 15 -3 56 -8 92 -11z m515 -25 c44 -1 109 -4 145 -8 l65 -8 -100
-7 c-55 -4 -139 -10 -187 -13 l-88 -7 0 25 c0 24 3 25 43 22 23 -2 78 -4 122
-4z m835 -43 c0 -25 -32 -107 -41 -107 -5 0 -7 21 -5 48 3 26 5 53 5 60 1 16
41 16 41 -1z m-244 -11 c9 -3 9 -17 3 -53 -5 -26 -12 -63 -15 -82 -3 -19 -10
-45 -15 -58 -5 -14 -9 -53 -9 -89 0 -62 -1 -64 -26 -64 -24 0 -25 2 -20 38 18
117 27 285 17 295 -20 20 -30 -6 -35 -93 -2 -47 -10 -120 -16 -162 -12 -75
-13 -78 -40 -78 l-27 0 9 53 c35 217 39 262 22 274 -27 20 -34 6 -34 -70 0
-40 -7 -103 -16 -142 -8 -38 -18 -80 -20 -92 -3 -18 -11 -23 -35 -23 -25 0
-28 3 -20 18 5 10 15 74 21 142 7 69 16 132 21 141 9 17 -6 39 -27 39 -16 0
-37 -162 -38 -302 -1 -36 -3 -38 -34 -38 l-34 0 5 108 c3 59 14 136 25 172
l19 65 49 5 c57 6 252 3 270 -4z m134 4 c15 0 18 -16 25 -122 12 -191 13 -210
1 -213 -59 -18 -66 -16 -66 14 0 17 4 52 10 78 5 26 11 75 14 108 2 33 7 69
10 80 8 25 -3 42 -29 47 -15 2 -19 -2 -17 -17 6 -34 5 -47 -2 -134 -4 -46 -12
-94 -18 -105 -6 -12 -11 -22 -10 -23 1 -2 2 -16 2 -33 0 -25 -4 -30 -25 -30
-24 0 -25 2 -25 68 0 37 5 85 11 107 6 22 17 72 24 110 7 39 13 72 14 74 1 2
15 1 32 -3 17 -3 39 -6 49 -6z m-534 -72 c-4 -35 -12 -89 -19 -122 l-12 -59
-74 7 c-41 3 -121 6 -178 6 -103 0 -104 0 -101 23 3 22 5 22 160 22 86 0 160
4 164 8 15 15 -20 27 -77 27 -31 0 -96 3 -146 6 l-90 7 6 31 c7 30 8 31 61 29
30 0 98 -4 150 -7 52 -4 101 -2 109 3 27 17 -1 31 -63 31 -137 0 -246 12 -246
28 0 10 7 13 23 9 12 -3 56 -1 97 3 41 4 113 8 158 9 l84 1 -6 -62z m-413 35
c2 -5 1 -30 -2 -58 -5 -45 -8 -50 -28 -47 -28 4 -29 -5 -4 -32 16 -18 18 -30
12 -86 l-6 -65 -50 0 -50 0 -2 60 c-1 33 2 74 7 90 15 49 20 114 10 120 -6 4
-8 11 -5 16 7 11 112 12 118 2z m-263 -90 c-1 -43 -2 -85 -1 -93 0 -8 -2 -34
-5 -57 -4 -33 -9 -43 -23 -43 -31 0 -44 25 -35 67 4 21 8 63 9 93 2 72 13 108
33 113 10 2 19 2 21 1 2 -2 2 -38 1 -81z m106 25 c-4 -35 -9 -90 -12 -123 -7
-84 -12 -97 -37 -93 -18 2 -22 9 -21 38 5 126 5 207 -1 223 -6 15 -1 17 35 17
l42 0 -6 -62z m-212 -55 c-3 -101 -5 -123 -13 -123 -53 2 -43 208 10 210 3 0
5 -39 3 -87z m603 -128 c128 -6 139 -9 146 -36 5 -18 -2 -19 -179 -19 -169 0
-184 1 -184 18 0 36 33 53 85 46 11 -2 71 -6 132 -9z m-1438 -86 c31 -16 61
-29 68 -29 20 0 15 -14 -9 -29 -38 -24 -139 -73 -142 -70 -2 2 -6 41 -9 87 -6
95 -10 94 92 41z m874 24 c60 -6 82 -19 50 -29 -10 -3 -43 -17 -74 -30 -31
-13 -61 -24 -67 -24 -14 0 -20 30 -14 69 4 28 8 32 26 26 11 -3 47 -9 79 -12z
m222 -13 c3 -5 -1 -10 -9 -10 -9 0 -16 5 -16 10 0 6 4 10 9 10 6 0 13 -4 16
-10z m-651 -16 c10 -26 36 -157 32 -161 -2 -2 -32 23 -66 57 -34 34 -60 63
-58 65 10 10 74 53 79 54 4 1 10 -6 13 -15z m1109 -13 c33 -1 38 -4 35 -22 -3
-20 -8 -21 -156 -23 -83 0 -152 -4 -152 -8 0 -5 0 -12 0 -18 0 -6 56 -10 148
-10 l149 0 -5 -28 -4 -29 -151 -1 -152 -1 -17 35 c-21 41 -22 72 -5 96 16 20
79 26 192 16 44 -3 97 -7 118 -7z m-36 -181 l42 0 -2 -50 c-2 -49 -3 -50 -32
-49 -16 0 -85 -3 -152 -6 -139 -8 -142 -6 -126 62 l9 38 64 6 c36 3 85 4 110
2 25 -1 64 -2 87 -3z m-332 -134 c18 -13 17 -15 -19 -30 -47 -20 -43 -20 -49
6 -10 36 32 51 68 24z m-330 -85 c39 -6 101 -10 138 -11 81 0 77 -11 -19 -55
-114 -52 -133 -58 -189 -53 -57 5 -71 -6 -40 -32 13 -11 12 -15 -8 -29 -41
-32 -56 -33 -64 -3 -9 32 -10 138 -1 147 3 4 18 -1 32 -11 43 -28 47 -8 9 45
l-18 24 45 -6 c25 -3 77 -11 115 -16z m485 -27 c227 -6 321 -11 327 -18 4 -3
-11 -6 -33 -7 -21 0 -50 -2 -64 -4 -14 -2 -65 -6 -115 -10 -49 -4 -124 -13
-165 -20 -127 -24 -284 -35 -297 -21 -3 3 5 10 18 15 13 5 37 19 53 30 16 10
34 17 41 15 6 -3 20 5 30 16 11 12 25 18 34 14 9 -3 86 -8 171 -10z"/>
<path d="M1690 1294 c0 -17 18 -21 97 -20 74 1 98 10 73 27 -21 13 -170 7
-170 -7z"/>
<path d="M1630 553 c-44 -13 -45 -14 -30 -23 20 -13 121 -12 140 0 13 9 13 11
0 20 -15 9 -80 11 -110 3z"/>
</g>
</svg>
