<?xml version="1.0" standalone="no"?>
<!DOCTYPE svg PUBLIC "-//W3C//DTD SVG 20010904//EN"
 "http://www.w3.org/TR/2001/REC-SVG-20010904/DTD/svg10.dtd">
<svg version="1.0" xmlns="http://www.w3.org/2000/svg"
 width="278.000000pt" height="152.000000pt" viewBox="0 0 278.000000 152.000000"
 preserveAspectRatio="xMidYMid meet">
<metadata>
Created by potrace 1.16, written by Peter Selinger 2001-2019
</metadata>
<g transform="translate(0.000000,152.000000) scale(0.100000,-0.100000)"
fill="#000000" stroke="none">
<path d="M649 1276 c-25 -21 -27 -30 -27 -97 0 -41 -5 -86 -10 -100 -12 -30
-5 -30 -225 -3 -128 15 -137 18 -137 40 0 18 -24 18 -40 -1 -14 -17 -36 -254
-27 -279 10 -25 35 -19 51 13 19 36 154 95 264 117 122 23 113 32 106 -103 -3
-65 -7 -123 -9 -129 -8 -26 -313 12 -344 43 -7 8 -17 11 -22 6 -7 -8 -12 -76
-10 -156 1 -46 26 -61 50 -29 9 13 35 26 61 31 25 5 91 21 148 35 57 14 108
26 114 26 7 0 8 -35 3 -108 -5 -76 -3 -121 5 -150 11 -35 10 -52 -4 -112 -10
-40 -15 -74 -12 -78 4 -3 19 1 34 10 15 9 41 18 57 22 39 8 257 24 415 31 194
8 285 15 415 31 66 9 140 17 165 20 25 2 86 8 135 14 50 5 135 12 190 16 55 3
147 9 205 14 58 4 108 6 113 3 4 -2 23 1 41 7 41 13 55 39 25 47 -17 5 -19 11
-15 42 4 20 9 54 11 76 17 135 37 218 89 376 41 125 68 180 107 217 31 28 38
51 17 53 -7 1 -60 0 -118 -1 -81 -1 -109 -6 -123 -18 -17 -15 -17 -17 -1 -29
13 -9 16 -25 14 -65 -1 -29 -3 -101 -4 -160 0 -58 -3 -108 -6 -111 -3 -3 -116
-7 -252 -9 -201 -3 -248 -2 -248 9 0 14 61 218 79 267 7 16 23 42 36 58 33 39
32 52 -2 44 -87 -19 -92 -19 -112 5 -16 20 -20 21 -32 9 -11 -12 -14 -56 -13
-206 l2 -192 -88 -1 c-49 -1 -91 3 -95 9 -3 5 13 67 35 137 60 184 63 193 72
193 4 0 17 9 29 21 16 16 18 23 9 34 -9 11 -17 12 -33 4 -12 -7 -41 -9 -73 -5
-29 3 -58 4 -66 1 -10 -4 -13 -43 -11 -184 1 -125 -2 -183 -10 -193 -10 -12
-31 -13 -127 -6 -63 5 -177 10 -253 11 -119 1 -137 3 -131 17 3 8 14 38 24 66
31 87 48 114 75 114 13 0 27 5 30 10 4 6 -5 10 -20 10 l-25 0 19 38 c10 20 33
54 50 76 38 47 42 82 9 72 -57 -17 -107 -18 -139 -2 -58 29 -66 18 -65 -89 l1
-95 -128 0 c-127 0 -128 0 -116 21 27 51 111 168 124 173 8 3 15 15 15 26 0
19 -6 20 -122 20 -114 -1 -125 -2 -149 -24z m181 -40 c0 -6 -36 -70 -73 -128
-33 -51 -51 -62 -91 -52 -21 5 -24 9 -16 30 5 13 9 39 8 57 0 17 0 47 1 65 l1
32 85 0 c47 0 85 -2 85 -4z m350 -49 c0 -5 -9 -22 -20 -38 -12 -15 -25 -42
-31 -58 -10 -29 -40 -48 -58 -37 -10 6 -13 78 -6 116 5 23 10 25 60 25 30 0
55 -4 55 -8z m492 -19 c13 -12 11 -24 -18 -113 l-34 -100 4 102 c5 124 12 140
48 111z m838 -3 c0 -3 -14 -34 -32 -68 -17 -34 -41 -93 -54 -132 -22 -67 -23
-68 -23 -30 -2 140 0 219 5 226 5 9 104 13 104 4z m-600 -12 c0 -5 -13 -46
-30 -93 -16 -47 -30 -94 -30 -105 0 -14 -3 -16 -8 -7 -13 20 -4 195 10 204 16
10 58 10 58 1z m-1540 -103 c46 -5 120 -10 163 -10 102 0 100 -20 -4 -39 -41
-7 -120 -28 -176 -47 -57 -19 -107 -34 -112 -34 -9 0 -8 41 4 112 5 30 11 38
23 34 10 -3 55 -10 102 -16z m450 -10 c0 -5 -5 -10 -11 -10 -5 0 -7 5 -4 10 3
6 8 10 11 10 2 0 4 -4 4 -10z m63 3 c-7 -2 -19 -2 -25 0 -7 3 -2 5 12 5 14 0
19 -2 13 -5z m-158 -13 c-3 -5 -22 -10 -41 -10 -19 0 -34 5 -34 10 0 6 18 10
41 10 24 0 38 -4 34 -10z m62 4 c-3 -3 -12 -4 -19 -1 -8 3 -5 6 6 6 11 1 17
-2 13 -5z m295 -34 c-16 -36 -17 -37 -20 -14 -2 14 2 32 9 40 22 27 28 14 11
-26z m-70 -107 c-2 -71 -5 -129 -6 -129 0 -1 -48 -5 -106 -8 -58 -4 -123 -11
-145 -16 -76 -18 -77 -16 -72 43 7 67 52 198 73 214 10 7 53 12 106 12 50 0
93 3 96 6 3 3 17 5 32 5 l26 0 -4 -127z m-314 80 c-6 -16 -22 -62 -34 -103
l-24 -75 2 88 c2 92 4 101 28 110 34 13 40 8 28 -20z m622 -157 c74 -3 163 -5
198 -6 48 0 62 -3 62 -15 0 -11 -13 -15 -52 -15 -53 -1 -95 -6 -283 -33 -146
-22 -198 -26 -187 -15 5 5 20 9 33 10 40 0 79 9 79 17 0 4 -27 5 -59 3 -52 -4
-60 -2 -63 14 -2 11 -2 26 -1 34 4 16 16 17 273 6z m490 -16 c0 -6 -38 -10
-95 -10 -57 0 -95 4 -95 10 0 6 38 10 95 10 57 0 95 -4 95 -10z m170 4 c-60
-8 -130 -8 -130 -1 0 4 35 6 78 6 42 -1 66 -3 52 -5z m353 -11 c13 -15 14 -30
6 -103 -6 -47 -12 -110 -15 -140 -8 -99 -8 -100 -51 -105 -15 -2 -297 -7 -625
-11 l-598 -7 -2 79 c-1 43 -1 88 0 99 6 86 6 85 37 90 47 7 176 26 220 31 22
3 64 9 94 15 30 5 81 9 113 9 68 0 68 -1 39 -115 -10 -38 -16 -73 -14 -77 7
-12 40 -9 51 5 8 9 19 107 22 185 0 9 26 12 95 12 109 0 103 8 80 -105 -15
-72 -15 -76 4 -96 27 -29 34 -13 46 106 l10 100 85 5 c73 4 85 7 84 23 -2 15
12 17 151 17 132 0 154 -2 168 -17z m-1988 -69 c28 -8 84 -15 125 -16 66 -1
70 -2 35 -9 -45 -9 -202 -44 -225 -50 -12 -3 -16 8 -18 50 -3 48 -1 53 15 46
10 -4 41 -14 68 -21z m651 8 c8 -5 11 -53 10 -154 l-1 -148 -70 -1 c-93 -1
-177 1 -201 6 -10 2 -31 4 -46 4 -24 1 -28 5 -28 29 0 15 -7 38 -16 50 -9 14
-13 30 -8 40 4 9 6 23 5 30 -1 6 5 12 14 12 12 0 15 12 15 54 l0 54 68 7 c37
4 94 10 127 15 81 10 118 11 131 2z m1104 -315 c-3 -3 -48 -8 -100 -11 -52 -4
-106 -9 -120 -10 -14 -2 -56 -6 -95 -10 -38 -4 -151 -16 -250 -26 -99 -11
-278 -22 -398 -25 -120 -3 -271 -10 -335 -15 -176 -15 -165 -17 -158 28 3 20
5 43 6 51 0 10 11 12 48 6 83 -13 1045 -4 1060 10 1 1 80 3 175 4 94 1 169 0
167 -2z"/>
</g>
</svg>
