<?xml version="1.0" standalone="no"?>
<!DOCTYPE svg PUBLIC "-//W3C//DTD SVG 20010904//EN"
 "http://www.w3.org/TR/2001/REC-SVG-20010904/DTD/svg10.dtd">
<svg version="1.0" xmlns="http://www.w3.org/2000/svg"
 width="268.000000pt" height="142.000000pt" viewBox="0 0 268.000000 142.000000"
 preserveAspectRatio="xMidYMid meet">
<metadata>
Created by potrace 1.16, written by Peter Selinger 2001-2019
</metadata>
<g transform="translate(0.000000,142.000000) scale(0.100000,-0.100000)"
fill="#000000" stroke="none">
<path d="M1846 1258 c-79 -69 -112 -104 -162 -173 -26 -36 -56 -67 -66 -71
-10 -3 -18 -12 -18 -19 0 -8 -11 -26 -25 -40 -22 -21 -35 -25 -88 -25 -43 0
-75 6 -102 20 -22 11 -47 20 -56 20 -9 0 -19 7 -23 15 -3 8 -18 15 -34 15 -34
0 -67 -40 -77 -94 -4 -20 -10 -36 -14 -36 -3 1 -25 18 -49 40 -47 42 -47 43
-60 204 -4 56 -12 91 -19 93 -7 3 -34 -19 -60 -47 -26 -29 -66 -61 -88 -72
-22 -11 -43 -26 -47 -33 -4 -7 -49 -41 -100 -75 l-93 -63 -110 2 c-190 4 -215
8 -264 47 -68 52 -86 44 -90 -43 -1 -29 -4 -69 -6 -90 -2 -21 -7 -83 -10 -138
-4 -55 -11 -131 -15 -170 -5 -53 -3 -77 8 -102 11 -23 13 -41 6 -70 -5 -21 -8
-53 -6 -70 4 -44 28 -43 73 3 18 19 67 55 108 80 58 36 76 42 87 33 11 -9 21
-9 40 0 14 6 32 11 41 11 29 0 147 -64 213 -116 36 -28 79 -54 95 -58 17 -4
37 -13 45 -21 8 -7 41 -20 73 -29 33 -10 57 -22 57 -30 0 -19 25 -27 39 -13 6
6 11 19 11 29 0 18 35 89 99 201 18 31 34 57 35 57 1 0 0 -21 -3 -47 -11 -88
9 -123 38 -69 18 32 71 53 211 85 106 23 94 27 156 -46 31 -38 72 -78 91 -91
18 -12 33 -27 33 -31 0 -5 18 -16 39 -25 24 -9 45 -26 53 -42 7 -15 19 -30 27
-32 21 -7 6 56 -20 84 l-21 22 27 18 c15 11 45 34 66 53 36 31 39 32 30 10 -5
-13 -21 -52 -35 -86 -18 -47 -21 -63 -11 -63 7 0 29 42 51 97 21 54 44 105 51
114 7 8 13 20 13 25 0 5 8 19 18 32 14 19 30 24 87 28 39 4 103 12 144 20 93
17 115 7 119 -52 3 -42 14 -60 31 -50 7 5 9 23 5 48 -6 35 -4 43 17 59 23 17
23 18 5 32 -17 12 -18 19 -7 79 6 35 11 82 11 103 0 41 54 163 93 212 12 15
29 42 37 58 8 17 21 34 27 38 29 18 9 27 -60 26 -39 -1 -92 4 -116 11 -37 10
-46 9 -59 -4 -13 -12 -13 -20 -4 -41 28 -61 28 -61 -150 -62 l-162 -1 -46 39
c-85 71 -89 81 -74 179 24 158 19 167 -60 98z m26 -95 c-2 -29 -8 -53 -12 -53
-5 0 -18 13 -30 30 l-21 30 28 35 c33 41 41 31 35 -42z m-61 -56 c14 -17 28
-40 32 -49 3 -10 10 -18 15 -18 5 0 26 -20 46 -45 l37 -45 -45 0 c-41 0 -46 2
-43 23 2 24 -2 25 -66 12 -32 -6 -36 -5 -31 9 5 13 -1 14 -45 9 -28 -3 -51 -3
-51 1 0 11 109 136 119 136 3 0 18 -15 32 -33z m-781 -23 c0 -25 5 -54 10 -65
16 -29 4 -23 -41 21 l-41 39 29 25 c15 14 31 26 36 26 4 0 7 -21 7 -46z m-22
-115 c135 -124 182 -174 182 -189 0 -49 46 -41 165 29 38 23 77 41 86 41 17 0
49 30 33 30 -11 0 18 20 29 20 4 0 7 -4 7 -10 0 -13 -179 -194 -207 -209 -13
-6 -23 -18 -23 -26 0 -9 10 -15 23 -15 12 -1 35 -11 51 -24 l28 -23 -36 -29
c-44 -35 -45 -43 -7 -42 15 1 39 -7 52 -16 23 -17 23 -17 -31 -11 -117 13
-120 14 -120 41 0 14 -4 24 -9 22 -4 -1 -56 -55 -113 -118 -112 -123 -195
-197 -206 -185 -8 8 -7 153 2 215 9 64 78 193 135 249 12 12 19 27 15 31 -8 7
-213 -8 -222 -16 -2 -1 4 -28 13 -60 13 -47 16 -91 13 -231 -2 -123 -6 -173
-15 -173 -6 0 -38 22 -70 50 l-58 49 -7 73 c-15 158 -21 182 -57 215 l-34 30
51 104 c29 57 52 110 52 118 0 25 -26 -6 -60 -74 l-33 -66 -45 3 c-51 3 -64
19 -30 35 13 6 48 31 78 55 58 48 224 161 250 171 31 12 43 5 118 -64z m1498
8 c-8 -12 -34 -49 -56 -82 l-40 -60 0 37 c0 20 5 40 12 44 8 5 7 10 -4 18 -19
15 -28 42 -18 52 5 5 35 10 66 11 l56 3 -16 -23z m-818 -24 c-4 -22 -38 -30
-49 -11 -15 22 -10 28 22 28 24 0 30 -4 27 -17z m120 -5 c-3 -8 -24 -14 -49
-15 l-44 -2 40 13 c52 18 57 18 53 4z m-453 -28 c22 -11 55 -20 75 -21 33 0
31 -1 -26 -23 -34 -12 -82 -35 -107 -49 -25 -15 -48 -27 -51 -27 -11 0 -6 116
6 128 18 18 59 15 103 -8z m-1070 -6 c25 -16 45 -22 83 -23 30 -1 20 -17 -15
-26 -16 -3 -45 -17 -65 -31 -21 -13 -39 -24 -40 -24 -2 0 -1 27 0 60 2 33 6
60 8 60 3 0 16 -7 29 -16z m2071 -18 c18 -25 26 -110 13 -142 -6 -17 -8 -52
-5 -85 4 -31 4 -74 0 -96 l-6 -39 -121 -18 c-172 -25 -187 -26 -187 -16 0 5 4
11 9 15 13 7 161 183 161 190 0 3 -7 5 -14 5 -8 0 -45 -39 -83 -87 -37 -49
-76 -97 -85 -107 -17 -19 -18 -18 -19 25 -3 98 2 126 38 197 20 39 40 72 45
72 8 0 25 -18 66 -70 11 -14 24 -22 28 -18 13 14 -27 85 -77 133 -27 26 -49
51 -49 55 0 4 62 6 137 4 112 -2 139 -6 149 -18z m-699 -26 l-14 -32 -5 26
c-4 18 0 29 11 36 22 12 23 8 8 -30z m99 -22 c-14 -29 -24 -42 -21 -28 3 14 8
36 11 50 5 23 24 44 32 35 2 -2 -8 -28 -22 -57z m-152 -145 c-3 -109 -8 -201
-10 -205 -3 -4 -16 -6 -31 -5 -21 2 -29 10 -40 42 -14 38 -13 69 3 153 8 42
-14 43 -45 1 -30 -41 -36 -32 -11 17 11 21 28 63 37 91 9 30 24 55 33 58 10 3
25 14 35 25 10 11 22 20 27 20 5 0 6 -88 2 -197z m105 98 c-4 -36 -10 -123
-14 -193 l-7 -128 -27 6 c-14 4 -29 9 -34 11 -12 7 3 245 18 278 8 17 24 53
36 80 27 63 38 42 28 -54z m181 85 c0 -16 -28 -86 -35 -86 -3 0 -3 16 0 35 4
32 -7 47 -19 27 -3 -5 -7 -51 -11 -103 -3 -52 -8 -125 -12 -164 -3 -38 -7 -78
-8 -88 -2 -28 -20 -39 -56 -35 -39 3 -38 -3 -26 152 4 55 12 105 17 111 5 7
16 29 24 51 40 109 43 114 86 114 27 0 40 -4 40 -14z m-1270 -5 c9 -2 -84 -61
-97 -61 -6 0 -19 -10 -27 -22 -13 -18 -25 -21 -93 -22 -43 -1 -87 4 -98 11
-18 10 -10 16 74 56 86 41 98 44 164 42 40 -1 74 -3 77 -4z m1350 -18 c0 -16
-9 -46 -19 -68 l-19 -40 -1 38 c-1 35 -17 51 -26 25 -3 -7 -6 -84 -8 -171 -2
-86 -6 -159 -8 -161 -2 -2 -16 -6 -31 -10 -20 -4 -28 -2 -28 6 0 7 5 74 10
148 8 99 14 137 25 143 8 4 24 30 36 57 18 43 30 54 62 59 4 0 7 -11 7 -26z
m64 21 c20 -8 11 -24 -14 -24 -13 0 -17 5 -14 15 7 17 7 17 28 9z m25 -56 c0
-7 -9 -33 -19 -58 -17 -41 -20 -43 -26 -22 -4 13 -11 21 -16 20 -6 -2 -9 -61
-9 -146 l2 -142 -36 0 -36 0 3 116 c2 78 7 118 14 121 7 2 23 29 36 58 18 41
29 55 48 58 14 2 28 5 33 6 4 0 7 -5 6 -11z m-604 -89 c-35 -85 -49 -102 -73
-95 -11 4 -22 12 -25 19 -5 13 111 152 120 144 2 -3 -8 -33 -22 -68z m-1127 4
l43 -6 -43 -24 c-24 -13 -55 -36 -70 -50 -15 -15 -31 -24 -35 -20 -3 4 -6 28
-5 54 2 35 8 53 23 66 20 16 23 16 33 1 6 -8 31 -18 54 -21z m282 -13 c0 -5
-5 -10 -11 -10 -5 0 -7 5 -4 10 3 6 8 10 11 10 2 0 4 -4 4 -10z m-68 -33 c59
-53 44 -61 -124 -67 -126 -4 -143 -7 -146 -22 -3 -15 4 -18 48 -18 l52 0 -63
-50 c-81 -63 -99 -64 -99 -9 0 32 6 46 33 70 85 80 169 127 227 128 26 0 45
-9 72 -32z m444 15 c8 -5 -3 -27 -31 -69 l-43 -62 -5 47 c-2 26 -8 55 -12 64
-5 14 0 17 32 21 21 2 40 4 43 5 3 1 10 -2 16 -6z m487 -100 c-2 -10 3 -38 11
-62 17 -51 14 -60 -12 -37 -10 10 -26 17 -35 17 -10 0 -26 5 -37 12 -18 11
-16 14 23 50 47 42 57 46 50 20z m-840 -17 c-15 -27 -47 -54 -57 -48 -6 3 -8
2 -3 -2 4 -5 -12 -28 -35 -52 l-42 -43 -87 0 c-93 0 -119 5 -119 24 0 13 106
86 125 86 7 0 18 7 25 15 7 8 27 19 44 24 42 13 156 10 149 -4z m36 -82 c15
-43 26 -123 17 -123 -4 0 -18 7 -32 16 -19 13 -22 20 -13 30 9 12 3 14 -40 14
-28 0 -51 3 -51 7 0 8 91 93 99 93 3 0 12 -17 20 -37z m801 -55 c8 -4 22 -8
30 -11 8 -2 -5 -7 -30 -11 -25 -4 -85 -19 -135 -32 -49 -13 -93 -24 -97 -24
-5 0 -8 20 -8 44 l0 45 113 -3 c61 -1 119 -5 127 -8z m120 2 c0 -5 -7 -10 -15
-10 -8 0 -15 5 -15 10 0 6 7 10 15 10 8 0 15 -4 15 -10z m391 -17 c-5 -10 -21
-29 -35 -42 l-26 -24 0 36 c0 33 3 36 33 40 17 2 33 5 35 5 1 1 -2 -6 -7 -15z
m-1663 -23 c18 0 32 -3 32 -7 -1 -5 -33 -30 -71 -56 -51 -35 -69 -43 -65 -30
3 10 8 36 12 58 9 55 22 70 44 50 9 -8 31 -15 48 -15z m1576 -19 c-1 -48 -28
-101 -51 -101 -9 0 -17 126 -8 139 2 4 16 8 32 9 27 2 28 1 27 -47z m-93 22
c8 -153 8 -151 -24 -163 -27 -9 -34 -7 -66 23 -55 48 -91 97 -91 124 0 20 5
23 35 23 26 0 35 -4 36 -17 1 -10 2 -34 3 -53 2 -62 21 -49 24 18 l3 62 39 0
c31 0 40 -4 41 -17z m-718 -84 c-20 -30 -24 -43 -14 -48 9 -6 7 -17 -9 -44
-25 -42 -22 -41 -74 -23 l-38 13 32 23 c17 12 52 44 77 71 25 27 47 49 50 49
2 0 -9 -18 -24 -41z"/>
</g>
</svg>
