<?xml version="1.0" standalone="no"?>
<!DOCTYPE svg PUBLIC "-//W3C//DTD SVG 20010904//EN"
 "http://www.w3.org/TR/2001/REC-SVG-20010904/DTD/svg10.dtd">
<svg version="1.0" xmlns="http://www.w3.org/2000/svg"
 width="162.000000pt" height="124.000000pt" viewBox="0 0 162.000000 124.000000"
 preserveAspectRatio="xMidYMid meet">
<metadata>
Created by potrace 1.16, written by Peter Selinger 2001-2019
</metadata>
<g transform="translate(0.000000,124.000000) scale(0.100000,-0.100000)"
fill="#000000" stroke="none">
<path d="M1281 1081 c-31 -19 -63 -34 -71 -34 -8 0 -24 -6 -35 -13 -11 -8 -15
-14 -10 -14 6 0 -16 -16 -48 -35 -32 -19 -60 -35 -63 -35 -3 0 -26 -17 -52
-39 -63 -52 -133 -94 -130 -79 2 10 -34 14 -147 19 -82 3 -188 13 -235 22 -47
9 -110 19 -140 22 -69 7 -91 13 -112 32 -13 12 -20 12 -37 2 -27 -18 -59 -78
-46 -87 12 -8 13 -333 2 -367 -3 -11 -9 -33 -11 -50 -3 -16 -8 -42 -11 -56 -4
-18 0 -32 12 -45 15 -14 18 -34 18 -112 0 -65 4 -97 12 -99 7 -3 38 22 70 55
55 56 64 61 163 91 58 18 111 34 118 37 7 2 50 6 95 10 l82 5 -24 -20 c-36
-33 -2 -38 44 -7 21 14 45 26 54 26 9 0 49 -16 88 -35 40 -19 75 -35 78 -35 3
0 41 -16 83 -36 202 -96 246 -114 273 -114 19 0 29 5 29 15 0 8 -4 15 -10 15
-12 0 -13 52 0 105 5 22 11 63 14 90 15 157 20 191 28 202 5 6 6 26 3 45 -6
30 -4 33 20 34 58 4 77 54 20 54 -32 0 -35 3 -35 28 0 45 20 102 55 156 18 28
54 89 81 135 26 46 59 90 72 99 12 8 22 22 20 31 -3 13 -22 16 -132 16 l-129
0 -56 -34z m61 -91 c3 -47 1 -96 -4 -110 -5 -13 -11 -69 -13 -124 -4 -92 -14
-124 -36 -111 -6 5 -5 18 11 115 22 135 31 263 17 276 -3 3 -20 -2 -37 -12
-20 -13 -28 -24 -24 -34 8 -21 11 -53 5 -64 -11 -23 -20 -226 -9 -220 5 3 8 1
8 -4 0 -5 -10 -14 -22 -21 -16 -8 -17 -10 -4 -6 16 5 17 3 6 -10 -7 -8 -23
-15 -35 -15 -19 0 -22 4 -18 28 2 15 6 54 10 87 3 33 9 67 13 75 14 26 22 130
10 130 -29 0 -3 34 52 69 35 22 63 39 64 38 1 -1 4 -40 6 -87z m168 76 c0 -1
-28 -51 -62 -112 l-63 -109 1 110 0 110 50 5 c42 5 74 3 74 -4z m-335 -143
c-18 -225 -24 -273 -37 -273 -6 0 -7 14 -3 38 4 20 9 47 11 60 3 12 5 69 7
127 1 74 6 105 14 105 9 0 11 -17 8 -57z m-55 -8 c0 -14 -5 -25 -10 -25 -20 0
-38 -87 -40 -192 0 -26 -5 -38 -14 -38 -10 0 -13 9 -10 28 2 15 6 72 10 127 5
74 11 103 23 112 25 20 41 15 41 -12z m-90 -44 c0 -6 -4 -12 -9 -16 -6 -3 -8
-15 -5 -28 3 -12 2 -52 -2 -89 -4 -52 -10 -68 -21 -68 -12 0 -14 8 -9 38 3 20
9 62 12 92 3 30 7 61 10 68 4 14 24 17 24 3z m-645 -15 c91 -12 97 -14 72 -24
-16 -7 -37 -12 -47 -12 -10 0 -57 -11 -105 -25 -48 -14 -90 -24 -92 -22 -2 3
1 25 8 51 13 53 7 52 164 32z m731 -73 c-8 -79 -23 -148 -26 -118 -6 61 13
185 28 185 2 0 1 -30 -2 -67z m-546 36 c-41 -12 -70 -10 -64 4 3 8 18 11 47 8
37 -4 39 -5 17 -12z m290 -3 c0 -11 -82 -55 -94 -50 -28 11 -30 -25 -5 -53
l24 -26 -110 7 c-60 4 -183 9 -272 12 -138 3 -163 2 -163 -11 0 -17 45 -27
120 -24 107 3 110 1 29 -34 -42 -19 -97 -46 -124 -60 -26 -15 -51 -27 -56 -27
-5 0 -9 27 -9 60 0 54 4 64 31 95 30 33 83 59 111 54 7 -1 26 1 41 6 82 22
294 53 380 54 53 0 97 -1 97 -3z m62 -15 c-5 -3 -19 -27 -30 -53 -11 -27 -25
-48 -29 -48 -4 0 -19 9 -33 20 -21 17 -23 22 -10 29 8 5 33 23 55 39 22 16 44
27 49 24 4 -2 4 -7 -2 -11z m37 -63 c-3 -65 -10 -76 -38 -59 -11 7 -9 16 10
50 12 22 24 41 26 41 2 0 3 -15 2 -32z m302 9 c-10 -9 -11 -8 -5 6 3 10 9 15
12 12 3 -3 0 -11 -7 -18z m-446 -113 c21 -24 59 -32 70 -14 3 6 20 10 37 10
33 0 32 8 12 -89 -6 -29 -6 -29 -102 -35 -54 -3 -133 -4 -177 -1 -126 6 -264
15 -339 21 l-70 6 30 17 c16 8 80 38 143 66 l115 50 130 -4 c123 -3 132 -4
151 -27z m182 -26 c-3 -13 -9 -40 -12 -60 -4 -23 -13 -38 -21 -38 -17 0 -17 3
-3 55 16 61 17 65 30 65 7 0 9 -9 6 -22z m74 -15 c10 -18 11 -27 3 -30 -6 -2
-9 -15 -6 -28 3 -20 0 -25 -17 -25 -18 0 -21 6 -21 48 0 68 16 82 41 35z m67
-9 c2 -39 -12 -74 -30 -74 -11 0 -7 36 11 83 14 36 17 34 19 -9z m104 4 c-2
-10 -8 -18 -11 -18 -4 0 -6 -15 -5 -32 3 -29 3 -30 -4 -8 l-8 25 -8 -22 c-10
-32 -34 -29 -38 5 -6 47 11 72 47 69 25 -1 31 -6 27 -19z m67 -35 c0 -36 -3
-43 -9 -28 -12 28 -12 75 0 75 6 0 10 -21 9 -47z m-824 -69 c24 -5 6 -13 -101
-39 -72 -18 -144 -40 -162 -49 -17 -9 -33 -16 -37 -16 -11 0 -4 62 10 90 l15
29 122 -4 c68 -3 136 -8 153 -11z m559 -75 c-22 -85 -28 -88 -19 -9 6 55 20
88 32 76 2 -2 -4 -32 -13 -67z m80 56 c3 -8 1 -27 -4 -42 -11 -36 -19 -193 -9
-193 12 0 46 62 55 100 4 19 6 61 5 92 -1 56 -1 58 24 56 17 -2 25 -8 25 -20
0 -10 -3 -18 -7 -18 -5 0 -8 -22 -9 -50 -1 -27 -6 -56 -12 -63 -7 -8 -9 -17
-5 -20 3 -4 1 -7 -5 -7 -16 0 -16 -72 0 -88 23 -23 44 -12 67 34 13 25 25 43
27 41 3 -2 -1 -35 -7 -73 l-12 -69 -107 54 c-94 46 -108 56 -106 77 0 13 8 27
17 29 14 5 15 10 6 35 -9 23 -7 40 8 84 19 55 37 71 49 41z m-284 -14 c-5 -11
-33 -40 -62 -66 l-53 -47 -185 6 c-102 3 -219 6 -259 6 -94 0 -85 11 35 46
129 38 335 72 442 73 88 1 92 0 82 -18z m129 12 c0 -5 -4 -17 -9 -28 -8 -18
-9 -17 -9 8 -1 15 4 27 9 27 6 0 10 -3 9 -7z m37 -45 c-21 -155 -17 -141 -40
-132 -20 8 -21 37 -2 53 7 6 19 38 25 71 15 74 26 79 17 8z m282 -15 c-5 -36
-20 -87 -33 -112 -28 -53 -33 -31 -10 37 8 23 16 62 17 85 1 37 11 56 29 57 3
0 2 -30 -3 -67z m-395 0 c4 -21 9 -50 13 -65 l6 -28 -42 15 c-72 25 -75 32
-33 76 21 21 40 39 44 39 3 0 9 -17 12 -37z m-454 -93 c-8 -5 -44 -18 -79 -31
-36 -12 -84 -37 -107 -55 -23 -19 -43 -34 -45 -34 -2 0 -4 29 -5 65 l-3 66
127 -2 c72 0 120 -5 112 -9z"/>
</g>
</svg>
