<?xml version="1.0" standalone="no"?>
<!DOCTYPE svg PUBLIC "-//W3C//DTD SVG 20010904//EN"
 "http://www.w3.org/TR/2001/REC-SVG-20010904/DTD/svg10.dtd">
<svg version="1.0" xmlns="http://www.w3.org/2000/svg"
 width="166.000000pt" height="150.000000pt" viewBox="0 0 166.000000 150.000000"
 preserveAspectRatio="xMidYMid meet">
<metadata>
Created by potrace 1.16, written by Peter Selinger 2001-2019
</metadata>
<g transform="translate(0.000000,150.000000) scale(0.100000,-0.100000)"
fill="#000000" stroke="none">
<path d="M935 1420 c-11 -4 -31 -20 -45 -35 -22 -24 -115 -75 -137 -75 -5 0
-24 -13 -42 -28 -30 -25 -32 -30 -21 -49 11 -17 191 -113 213 -113 3 0 28 -23
54 -52 26 -28 71 -76 99 -106 28 -30 67 -79 85 -110 19 -30 50 -71 70 -91 19
-20 53 -63 75 -95 21 -32 51 -68 66 -79 15 -11 37 -41 49 -66 22 -47 34 -61
57 -61 27 0 10 47 -56 150 -19 30 -56 88 -81 128 -25 40 -67 102 -92 136 -88
120 -107 152 -119 196 -6 24 -18 53 -25 64 -17 27 -50 108 -85 210 -15 44 -31
81 -36 82 -5 2 -18 -1 -29 -6z m45 -165 c17 -44 44 -107 60 -140 16 -33 32
-71 35 -85 6 -21 2 -19 -27 15 -69 83 -85 96 -177 143 -51 26 -94 52 -95 57 0
5 29 21 66 35 37 14 75 33 85 42 9 10 18 17 19 15 1 -1 16 -38 34 -82z"/>
<path d="M640 1159 c-19 -17 -48 -37 -65 -46 -52 -27 -105 -74 -105 -93 0 -12
14 -22 48 -33 100 -33 223 -130 451 -357 71 -71 149 -166 208 -255 49 -75 78
-105 100 -105 7 0 13 2 13 5 0 12 -24 55 -32 55 -4 0 -8 9 -8 20 0 28 -24 73
-80 150 -25 36 -59 86 -73 112 -15 26 -73 104 -129 175 -133 165 -218 291
-255 376 -15 34 -29 34 -73 -4z m64 -70 c14 -17 26 -36 26 -43 0 -14 45 -75
177 -243 149 -189 149 -199 -3 -53 -129 125 -295 257 -336 268 -10 2 -18 7
-18 11 1 7 111 89 122 90 3 1 18 -13 32 -30z"/>
<path d="M400 958 c-19 -13 -53 -32 -75 -43 -22 -11 -48 -34 -58 -52 l-18 -32
35 -15 c20 -8 53 -33 73 -54 21 -22 100 -92 175 -156 76 -64 160 -144 188
-179 29 -34 63 -75 77 -92 15 -16 53 -66 85 -110 58 -78 84 -105 100 -105 16
0 7 22 -31 78 -21 31 -48 77 -61 102 -12 25 -35 59 -52 76 -29 31 -58 71 -149
210 -96 145 -207 338 -211 367 -4 30 -35 32 -78 5z m60 -70 c13 -17 35 -54 50
-82 14 -28 57 -100 94 -161 40 -64 58 -101 45 -89 -13 11 -62 54 -109 94 -165
144 -219 200 -207 211 13 12 89 57 98 58 3 1 16 -13 29 -31z"/>
</g>
</svg>
