<?xml version="1.0" standalone="no"?>
<!DOCTYPE svg PUBLIC "-//W3C//DTD SVG 20010904//EN"
 "http://www.w3.org/TR/2001/REC-SVG-20010904/DTD/svg10.dtd">
<svg version="1.0" xmlns="http://www.w3.org/2000/svg"
 width="249.000000pt" height="231.000000pt" viewBox="0 0 249.000000 231.000000"
 preserveAspectRatio="xMidYMid meet">
<metadata>
Created by potrace 1.16, written by Peter Selinger 2001-2019
</metadata>
<g transform="translate(0.000000,231.000000) scale(0.100000,-0.100000)"
fill="#000000" stroke="none">
<path d="M375 2056 c-81 -85 -109 -165 -57 -166 20 -1 78 -43 284 -208 84 -67
189 -151 233 -186 44 -36 116 -90 160 -121 44 -32 82 -61 83 -66 2 -5 17 -16
33 -24 16 -9 29 -19 29 -24 0 -5 -21 -14 -47 -20 -27 -7 -58 -19 -71 -27 -22
-14 -26 -12 -95 48 -40 34 -95 83 -122 108 -48 43 -76 68 -250 216 -44 38 -93
81 -110 96 -16 16 -35 28 -41 28 -6 0 -23 9 -37 20 -26 21 -62 17 -53 -6 3 -7
-1 -17 -8 -23 -7 -6 -18 -28 -24 -50 -7 -21 -19 -44 -27 -51 -24 -20 -18 -37
15 -43 34 -7 224 -133 323 -216 38 -31 81 -65 95 -76 15 -11 57 -44 94 -73 37
-28 71 -52 77 -52 5 0 11 -4 13 -9 2 -5 49 -42 105 -83 55 -40 173 -127 260
-194 164 -124 388 -284 398 -284 4 0 13 -7 22 -15 8 -9 58 -44 111 -79 54 -34
117 -79 140 -99 48 -40 57 -43 69 -24 5 7 10 -5 13 -33 4 -32 10 -46 23 -48
15 -3 17 7 19 85 1 48 2 95 4 103 1 8 2 29 3 46 1 23 7 33 21 37 19 5 20 14
20 129 0 67 7 191 15 273 9 83 20 198 25 258 5 59 11 111 13 115 3 4 10 99 16
212 11 189 31 321 52 345 13 13 11 53 -3 61 -6 4 -78 9 -160 10 -82 2 -153 6
-159 10 -15 9 -50 -27 -44 -46 5 -17 -2 -21 -190 -80 -120 -39 -258 -73 -421
-105 -67 -13 -131 -28 -142 -34 -11 -6 -29 -11 -39 -11 -10 0 -31 -7 -47 -15
-49 -26 -28 -42 -286 225 -58 60 -130 136 -160 169 -75 83 -93 82 -175 -3z
m380 -311 c72 -72 190 -182 263 -244 72 -62 137 -121 143 -132 11 -21 2 -89
-10 -72 -3 5 -51 42 -106 83 -55 40 -136 102 -180 137 -166 133 -261 209 -305
248 -75 65 -119 98 -164 125 -27 16 -41 30 -38 40 2 8 27 38 55 67 l51 52 80
-86 c45 -48 140 -146 211 -218z m1378 139 c12 -4 11 -15 -4 -70 -13 -46 -21
-132 -29 -292 -5 -125 -12 -249 -15 -277 -14 -147 -46 -461 -49 -470 -4 -14
-27 239 -32 360 -3 55 -7 107 -10 115 -8 24 -31 166 -49 300 -8 69 -20 149
-25 179 -6 30 -10 69 -10 87 0 30 4 34 53 53 50 19 139 27 170 15z m-265 -116
c7 -35 7 -57 0 -65 -5 -6 -13 -33 -16 -59 -5 -33 -14 -51 -30 -62 l-23 -15 5
89 c7 107 15 147 30 156 20 13 23 9 34 -44z m-98 -101 l0 -113 -35 -17 c-20
-9 -38 -17 -42 -17 -7 0 4 200 12 222 6 14 39 36 58 37 4 1 7 -50 7 -112z
m-204 68 c-11 -8 -23 -15 -28 -15 -4 0 -45 -22 -90 -49 -46 -27 -102 -54 -125
-61 -46 -12 -145 -67 -182 -101 l-22 -20 -47 39 c-95 80 -95 76 10 101 51 12
154 35 228 51 74 16 162 38 195 49 74 23 86 25 61 6z m91 -126 l-2 -112 -37
-24 -38 -23 -1 57 c-1 56 1 102 5 153 2 22 46 60 68 60 5 0 7 -50 5 -111z
m-1165 -21 c119 -96 217 -181 358 -308 47 -42 102 -92 123 -111 32 -29 38 -40
35 -67 l-3 -33 -145 107 c-80 59 -174 132 -209 161 -35 30 -123 97 -197 149
-74 52 -134 101 -134 109 0 18 40 85 50 85 5 0 59 -41 122 -92z m1053 -44 c0
-113 -1 -116 -25 -129 -43 -24 -48 -19 -49 53 0 37 -3 86 -7 109 -6 41 -5 42
32 61 22 11 41 20 44 21 3 1 5 -51 5 -115z m342 74 c-3 -7 -5 -2 -5 12 0 14 2
19 5 13 2 -7 2 -19 0 -25z m-450 -71 c1 -28 5 -78 8 -109 5 -55 4 -58 -22 -71
-75 -38 -73 -41 -73 80 l0 109 43 21 c23 12 42 22 42 22 0 1 1 -23 2 -52z
m474 -39 c6 -40 13 -82 15 -93 12 -78 26 -149 34 -171 6 -14 10 -58 10 -98 0
-40 7 -143 16 -229 8 -86 14 -175 12 -198 l-3 -42 -52 42 -53 41 1 323 c1 177
-2 357 -6 399 -6 67 -3 98 10 98 2 0 9 -33 16 -72z m-591 -73 c0 -84 -3 -115
-12 -115 -18 0 -117 100 -113 114 2 6 6 24 10 39 4 22 18 34 58 53 29 13 53
24 55 24 1 0 2 -52 2 -115z m540 -230 c0 -255 -5 -394 -14 -403 -4 -3 -23 10
-43 30 l-36 37 13 73 c7 41 15 179 17 313 4 230 5 241 26 263 l22 24 8 -59 c4
-32 7 -157 7 -278z m-690 259 c0 -8 -5 -12 -10 -9 -6 4 -8 11 -5 16 9 14 15
11 15 -7z m596 -226 c-2 -135 -9 -257 -16 -290 l-13 -57 -31 26 c-32 25 -32
27 -30 97 2 39 8 131 15 204 6 73 9 151 5 172 -6 38 -4 40 31 59 21 11 39 20
40 21 2 0 1 -105 -1 -232z m-100 60 c-17 -281 -21 -318 -35 -318 -24 0 -30 38
-33 211 l-3 186 35 21 c19 12 37 21 39 22 2 0 1 -55 -3 -122z m-162 58 c-10
-8 -21 -12 -24 -10 -5 6 21 24 34 24 6 0 1 -6 -10 -14z m65 -156 c0 -36 -4
-84 -7 -108 l-7 -43 -32 33 c-29 31 -32 39 -36 120 l-5 88 36 32 37 32 7 -45
c3 -24 7 -73 7 -109z m-346 83 c-25 -10 -28 -9 -31 9 -2 11 -1 27 2 35 6 14
10 12 32 -8 l26 -24 -29 -12z m237 48 c0 -13 -102 -71 -113 -64 -14 8 23 41
54 48 16 4 31 11 34 16 8 12 25 12 25 0z m0 -118 l0 -67 -40 39 c-22 21 -40
42 -40 45 0 5 69 49 78 50 1 0 2 -30 2 -67z m-152 13 c-2 -1 -10 -7 -19 -14
-12 -9 -20 -8 -38 5 l-24 16 24 13 c20 10 27 10 42 -3 9 -9 16 -17 15 -17z
m-92 -25 l25 -19 -23 -16 c-32 -23 -38 -20 -38 19 0 40 3 42 36 16z m-60 -7
c-3 -9 -6 -26 -6 -39 0 -14 -9 -29 -20 -35 -17 -9 -27 -6 -55 17 -18 15 -32
32 -31 37 1 5 22 15 47 21 63 18 72 17 65 -1z m248 -68 c60 -58 75 -82 26 -44
-16 12 -43 33 -60 46 -24 19 -41 52 -26 52 2 0 29 -24 60 -54z m-114 19 c9
-10 9 -37 3 -102 l-8 -88 -48 44 c-81 74 -82 94 -11 136 48 28 49 28 64 10z
m-217 -77 c-5 -17 -3 -19 15 -14 23 8 62 -12 62 -31 0 -7 5 -13 11 -13 6 0 35
-21 65 -47 36 -32 54 -56 54 -71 l0 -24 -37 23 c-21 13 -72 51 -113 84 -67 55
-75 66 -78 100 -3 33 -1 37 11 26 9 -7 13 -21 10 -33z m337 -12 c30 -22 44
-40 42 -52 -2 -11 -6 -50 -9 -88 -5 -56 -3 -68 8 -64 8 2 15 18 17 34 1 16 5
48 8 71 l5 42 37 -26 37 -27 0 -97 c0 -54 -3 -100 -6 -103 -3 -3 -56 37 -117
90 -124 106 -120 98 -106 221 7 59 4 59 84 -1z m216 -168 c10 -7 8 -42 -11
-156 -10 -54 -24 -26 -25 46 0 37 -1 74 -1 82 -6 49 2 55 37 28z m-196 -98
c30 -28 84 -72 120 -96 36 -25 90 -63 120 -85 30 -22 66 -47 80 -57 14 -9 36
-27 50 -40 35 -34 6 -18 -110 61 -168 113 -229 155 -314 219 -73 54 -82 64
-68 74 19 14 37 3 122 -76z m290 32 c8 -5 10 -202 2 -202 -4 0 -20 11 -37 24
-29 23 -30 27 -28 96 1 40 5 80 8 91 6 18 16 16 55 -9z m93 -83 l37 -30 0 -90
c0 -49 -3 -89 -7 -89 -5 0 -22 13 -39 28 -30 26 -32 32 -38 120 -3 50 -2 92 2
92 4 0 24 -14 45 -31z m224 -31 c-3 -8 -6 -5 -6 6 -1 11 2 17 5 13 3 -3 4 -12
1 -19z m-105 -53 c5 -6 18 -6 37 2 l30 11 -1 -102 c0 -93 -14 -232 -17 -177 0
14 -19 40 -45 65 l-44 41 -1 99 c-2 94 -1 98 16 85 10 -8 21 -18 25 -24z"/>
</g>
</svg>
