<?xml version="1.0" standalone="no"?>
<!DOCTYPE svg PUBLIC "-//W3C//DTD SVG 20010904//EN"
 "http://www.w3.org/TR/2001/REC-SVG-20010904/DTD/svg10.dtd">
<svg version="1.0" xmlns="http://www.w3.org/2000/svg"
 width="154.000000pt" height="154.000000pt" viewBox="0 0 154.000000 154.000000"
 preserveAspectRatio="xMidYMid meet">
<metadata>
Created by potrace 1.16, written by Peter Selinger 2001-2019
</metadata>
<g transform="translate(0.000000,154.000000) scale(0.100000,-0.100000)"
fill="#000000" stroke="none">
<path d="M698 1407 c-52 -31 -250 -211 -238 -215 16 -6 57 25 135 97 38 37 90
83 115 103 50 42 44 50 -12 15z"/>
<path d="M860 1327 c-19 -12 -41 -27 -48 -34 -7 -7 -17 -13 -22 -13 -4 0 -47
-39 -94 -86 l-86 -86 -53 20 c-28 11 -86 33 -127 48 -93 35 -120 51 -120 74 0
20 -24 43 -34 33 -11 -12 -46 -94 -46 -110 0 -22 -32 -87 -48 -96 -22 -14 17
-43 59 -45 41 -1 195 -28 248 -42 20 -5 52 -12 71 -14 19 -3 49 -7 65 -10 17
-2 50 -7 75 -11 25 -4 77 -15 115 -25 94 -25 165 -35 165 -22 0 5 -21 12 -47
15 -27 3 -79 13 -116 21 -37 9 -80 18 -95 21 -119 21 -475 95 -480 100 -3 3 2
21 11 40 9 20 17 43 17 51 0 8 5 24 10 35 11 19 11 19 48 0 21 -11 65 -26 98
-35 87 -23 164 -57 164 -73 0 -9 7 -12 25 -7 14 3 31 1 39 -5 8 -7 22 -14 32
-16 23 -5 102 -32 129 -44 38 -17 131 -50 240 -85 83 -27 99 -34 65 -31 -25 3
-64 9 -87 13 -24 5 -43 6 -43 1 0 -5 3 -9 8 -10 4 0 16 -2 27 -5 11 -2 36 -6
55 -8 19 -3 55 -10 80 -16 25 -5 56 -13 70 -16 23 -6 21 -8 -25 -30 -27 -14
-77 -37 -110 -51 -33 -15 -92 -46 -131 -69 -85 -51 -176 -94 -264 -124 -36
-12 -92 -33 -125 -45 -73 -28 -165 -52 -224 -59 -43 -4 -65 -21 -54 -39 3 -4
11 -6 17 -4 19 8 126 -104 126 -130 0 -5 11 -15 24 -23 27 -14 16 -20 143 85
87 72 230 175 242 175 6 0 11 -9 11 -19 0 -20 157 -194 192 -212 41 -22 29 3
-24 54 -88 84 -158 166 -158 185 0 9 17 28 38 42 20 13 48 35 61 47 46 44 216
153 239 153 12 0 30 9 39 19 9 11 22 17 29 14 26 -10 14 26 -15 46 -16 12 -33
21 -37 21 -16 0 -94 35 -91 41 1 4 52 48 112 99 120 101 150 128 125 115 -25
-14 -113 -78 -145 -107 -16 -14 -52 -44 -80 -66 l-49 -39 -58 19 -58 20 62 66
c103 107 180 182 189 182 5 0 9 5 9 10 0 20 -85 -48 -170 -136 -120 -126 -109
-119 -178 -96 -32 11 -70 26 -84 33 l-27 12 53 41 c29 23 82 67 117 98 35 31
75 65 89 77 15 12 19 20 11 21 -7 0 -52 -33 -98 -72 -46 -40 -109 -92 -139
-115 l-54 -42 -60 21 c-33 12 -60 27 -60 32 0 17 171 176 212 197 35 18 54 36
46 44 -2 2 -19 -6 -38 -18z m207 -600 c-11 -7 -42 -29 -70 -49 -28 -21 -54
-38 -58 -38 -4 0 -51 -34 -103 -75 -117 -91 -269 -195 -316 -217 -33 -15 -37
-14 -58 2 -12 10 -22 22 -22 26 0 4 -14 23 -31 40 l-31 32 43 20 c24 11 60 23
81 26 41 6 128 34 143 46 6 4 36 15 69 24 65 19 227 92 236 106 3 5 33 23 65
40 61 30 85 38 52 17z"/>
<path d="M1235 719 c17 -19 33 -35 38 -37 4 -2 7 -9 8 -15 1 -20 75 -77 108
-83 47 -10 37 10 -19 35 -27 12 -68 43 -92 70 -24 26 -50 51 -58 56 -8 4 -1
-7 15 -26z"/>
<path d="M1110 686 c0 -8 8 -21 18 -28 10 -7 33 -34 51 -60 32 -45 129 -123
140 -113 2 3 -27 36 -66 73 -39 37 -79 80 -88 95 -22 35 -55 55 -55 33z"/>
<path d="M992 611 c11 -33 137 -163 191 -199 48 -32 63 -18 17 16 -19 14 -71
63 -114 109 -71 75 -104 100 -94 74z"/>
<path d="M740 434 c0 -31 114 -148 167 -170 46 -20 50 0 6 27 -21 13 -67 51
-102 86 -63 62 -71 69 -71 57z"/>
<path d="M610 332 c0 -23 177 -222 197 -222 21 0 16 8 -41 68 -100 107 -136
147 -136 154 0 5 -4 8 -10 8 -5 0 -10 -4 -10 -8z"/>
</g>
</svg>
