<?xml version="1.0" standalone="no"?>
<!DOCTYPE svg PUBLIC "-//W3C//DTD SVG 20010904//EN"
 "http://www.w3.org/TR/2001/REC-SVG-20010904/DTD/svg10.dtd">
<svg version="1.0" xmlns="http://www.w3.org/2000/svg"
 width="202.000000pt" height="142.000000pt" viewBox="0 0 202.000000 142.000000"
 preserveAspectRatio="xMidYMid meet">
<metadata>
Created by potrace 1.16, written by Peter Selinger 2001-2019
</metadata>
<g transform="translate(0.000000,142.000000) scale(0.100000,-0.100000)"
fill="#000000" stroke="none">
<path d="M591 1208 c-12 -13 -45 -52 -72 -88 -27 -36 -58 -77 -69 -92 -11 -14
-20 -33 -20 -41 0 -9 -15 -25 -33 -36 -18 -11 -43 -39 -56 -63 -28 -51 -58
-77 -87 -78 -21 0 -81 -58 -103 -98 -6 -11 -25 -35 -43 -52 -29 -30 -31 -33
-15 -45 13 -9 29 -10 60 -3 24 6 76 7 122 3 44 -4 101 -8 128 -9 44 -1 54 -6
148 -86 104 -88 281 -195 306 -186 22 9 11 19 -89 79 -51 30 -139 95 -195 144
-57 48 -135 115 -174 147 -61 51 -69 61 -53 67 34 13 69 9 144 -16 40 -14 83
-25 96 -25 12 0 28 -7 35 -16 7 -9 40 -37 74 -62 33 -25 67 -53 75 -62 22 -25
178 -130 193 -130 9 0 17 -28 25 -87 15 -112 39 -240 47 -253 13 -22 34 -6 94
70 35 44 68 80 73 80 5 0 21 12 36 27 30 31 29 31 407 52 215 13 231 15 239
36 6 17 -42 20 -254 16 -269 -4 -381 -3 -388 3 -11 12 -16 425 -4 439 5 6 13
28 17 47 22 109 83 231 130 260 35 22 50 46 35 55 -16 10 -292 4 -326 -6 -39
-12 -63 -51 -44 -74 7 -8 16 -12 21 -10 4 3 16 -7 25 -22 9 -15 25 -39 34 -53
35 -51 52 -165 45 -287 -4 -62 -9 -113 -11 -113 -6 0 -83 50 -134 88 -25 19
-110 96 -190 171 -137 130 -146 142 -162 197 -10 33 -19 75 -20 94 -4 44 -33
52 -67 18z m689 -126 c-15 -32 -34 -77 -41 -100 -14 -47 -29 -46 -29 1 0 18
-7 43 -15 57 -8 14 -21 39 -29 55 l-14 30 61 6 c34 3 69 6 79 7 14 2 12 -7
-12 -56z m-646 -25 c4 -16 25 -48 48 -73 l41 -45 -70 26 c-39 14 -75 25 -81
25 -6 0 -23 5 -37 10 l-26 10 53 59 c58 65 55 65 72 -12z m26 -142 c52 -18
106 -36 120 -41 14 -4 62 -40 107 -80 45 -40 121 -99 170 -132 49 -33 93 -66
99 -73 6 -8 14 -49 18 -91 7 -90 7 -89 -82 -63 -45 14 -52 19 -52 41 0 30 -26
43 -43 21 -11 -15 -21 -10 -88 36 -42 29 -92 66 -111 82 -68 58 -85 72 -94 76
-22 9 -234 241 -234 255 0 23 70 11 190 -31z m-210 -27 c12 -18 41 -50 64 -71
l41 -38 -45 20 c-26 12 -67 21 -97 21 -31 0 -53 4 -53 11 0 24 45 89 61 89 4
0 17 -15 29 -32z m-155 -146 c10 -16 30 -37 46 -48 47 -31 46 -46 -4 -38 -23
3 -68 9 -99 11 -32 3 -58 6 -58 8 0 2 12 21 26 42 42 62 64 68 89 25z m868
-388 c15 -8 27 -18 27 -22 0 -4 -27 -34 -59 -66 l-59 -58 -6 38 c-3 22 -8 61
-12 88 l-7 48 44 -7 c24 -4 56 -14 72 -21z"/>
</g>
</svg>
