<?xml version="1.0" standalone="no"?>
<!DOCTYPE svg PUBLIC "-//W3C//DTD SVG 20010904//EN"
 "http://www.w3.org/TR/2001/REC-SVG-20010904/DTD/svg10.dtd">
<svg version="1.0" xmlns="http://www.w3.org/2000/svg"
 width="242.000000pt" height="139.000000pt" viewBox="0 0 242.000000 139.000000"
 preserveAspectRatio="xMidYMid meet">
<metadata>
Created by potrace 1.16, written by Peter Selinger 2001-2019
</metadata>
<g transform="translate(0.000000,139.000000) scale(0.100000,-0.100000)"
fill="#000000" stroke="none">
<path d="M312 1253 c-20 -38 -21 -73 -6 -143 8 -40 20 -82 26 -93 14 -28 59
-66 85 -73 23 -6 37 -51 27 -94 -9 -44 -21 -123 -23 -157 -1 -21 -6 -23 -61
-23 -53 0 -66 4 -119 41 -42 29 -63 51 -71 74 -15 47 -34 60 -54 40 -17 -18
-19 -26 -16 -64 3 -39 25 -64 100 -116 l71 -48 197 1 c219 0 269 8 436 68 55
20 110 37 122 39 13 1 34 9 48 18 24 16 24 16 16 -13 -5 -16 -12 -35 -16 -42
-23 -37 -191 -257 -218 -286 -26 -28 -28 -34 -16 -43 18 -11 227 -5 327 11 40
6 77 9 82 5 6 -3 13 -22 16 -43 4 -20 16 -68 27 -107 12 -38 21 -75 21 -82 0
-7 7 -15 15 -18 15 -6 260 13 273 21 4 2 39 5 78 5 48 1 74 6 82 16 15 17 3
30 -30 35 -28 3 -33 18 -50 123 -22 149 -23 144 7 151 42 10 110 53 192 119
140 115 395 275 437 275 10 0 23 22 23 41 0 45 -213 -81 -489 -288 -100 -75
-133 -95 -152 -90 -11 3 -22 1 -25 -4 -13 -22 -21 -3 -32 86 -8 53 -22 120
-32 149 -10 30 -20 71 -22 92 -3 38 -2 39 32 42 19 1 103 13 185 27 237 38
384 57 395 50 15 -9 40 13 40 36 0 29 -14 31 -112 15 -51 -8 -120 -17 -153
-21 -33 -3 -71 -7 -85 -9 -14 -2 -77 -12 -140 -21 -63 -9 -131 -22 -150 -29
-40 -14 -46 -10 -197 109 -42 33 -103 77 -137 98 -34 21 -82 61 -107 87 -31
33 -53 48 -65 46 -11 -2 -64 -38 -119 -79 -100 -75 -190 -126 -255 -145 -19
-6 -61 -20 -92 -31 -92 -33 -178 -23 -219 25 -17 22 -43 139 -33 155 3 6 3 26
0 45 -6 28 -11 34 -31 34 -13 0 -28 -8 -33 -17z m768 -135 c7 -29 18 -68 26
-85 7 -18 18 -66 23 -105 6 -40 14 -83 17 -95 5 -17 1 -24 -12 -29 -11 -3 -42
-17 -71 -30 -91 -42 -89 -45 -92 119 -1 78 -4 156 -7 173 -4 27 1 35 42 67 26
21 51 37 55 37 4 0 13 -24 19 -52z m145 -8 c32 -17 75 -45 95 -63 36 -32 54
-46 140 -109 l45 -32 -35 -7 c-19 -4 -68 -14 -108 -23 -40 -9 -84 -13 -97 -10
-19 5 -26 0 -38 -22 l-15 -28 -12 59 c-6 33 -22 110 -36 170 -27 125 -29 137
-10 113 7 -10 39 -31 71 -48z m-303 -201 c4 -79 6 -153 4 -164 -4 -29 -152
-84 -157 -57 -1 4 -3 57 -4 117 -1 61 -5 124 -9 142 -7 30 -6 32 56 63 35 17
67 36 73 41 23 23 30 -4 37 -142z m-209 -134 l-2 -110 -38 -6 c-44 -6 -185 1
-195 10 -5 5 0 53 16 141 2 14 5 44 5 68 1 39 3 42 29 43 15 0 61 10 102 23
l75 22 5 -41 c3 -22 4 -89 3 -150z m850 0 c33 -145 34 -135 -3 -135 -30 0
-167 -27 -250 -50 -19 -5 -37 -6 -41 -2 -9 10 -38 162 -37 193 0 23 6 28 52
38 28 6 80 17 116 25 36 8 83 14 105 13 l40 -2 18 -80z m-359 -177 c20 -84 36
-163 36 -174 0 -19 -9 -23 -74 -33 -79 -13 -256 -24 -256 -16 0 6 41 65 130
190 65 91 99 154 93 173 -3 7 3 12 15 12 16 0 24 -21 56 -152z m397 -29 c4
-15 8 -64 10 -110 l4 -83 -142 -3 c-163 -3 -152 -9 -179 95 -19 71 -16 73 115
103 53 11 101 22 106 24 6 2 25 3 44 2 28 -2 36 -7 42 -28z m35 -317 c6 -40 7
-75 3 -78 -8 -5 -229 -34 -259 -34 -18 0 -59 156 -44 170 14 13 59 17 179 16
l110 -1 11 -73z"/>
</g>
</svg>
