<?xml version="1.0" standalone="no"?>
<!DOCTYPE svg PUBLIC "-//W3C//DTD SVG 20010904//EN"
 "http://www.w3.org/TR/2001/REC-SVG-20010904/DTD/svg10.dtd">
<svg version="1.0" xmlns="http://www.w3.org/2000/svg"
 width="244.000000pt" height="122.000000pt" viewBox="0 0 244.000000 122.000000"
 preserveAspectRatio="xMidYMid meet">
<metadata>
Created by potrace 1.16, written by Peter Selinger 2001-2019
</metadata>
<g transform="translate(0.000000,122.000000) scale(0.100000,-0.100000)"
fill="#000000" stroke="none">
<path d="M1034 1152 c-6 -4 -17 -20 -25 -37 -9 -19 -51 -54 -124 -102 -60 -40
-130 -87 -154 -105 -25 -17 -57 -32 -72 -33 -16 -1 -36 -12 -47 -25 -15 -18
-22 -21 -38 -12 -10 5 -48 15 -84 22 -83 15 -163 44 -200 72 -39 28 -87 33
-98 10 -5 -9 -12 -57 -16 -107 -3 -49 -9 -109 -12 -132 -8 -52 11 -65 53 -36
50 34 206 91 268 99 28 3 63 12 79 20 43 21 90 17 141 -12 48 -26 75 -26 75 1
0 19 66 117 110 163 18 18 30 39 27 46 -5 13 42 56 60 56 5 0 7 -18 5 -41 -6
-60 8 -67 60 -31 24 17 71 44 106 61 34 18 62 38 62 45 0 19 38 27 97 21 141
-14 647 -6 674 11 5 3 9 10 9 16 0 8 -34 8 -117 2 -114 -9 -290 -8 -363 1 -19
3 -107 7 -195 11 -88 3 -176 10 -195 15 -42 11 -71 11 -86 1z m116 -52 l35 -7
-60 -27 c-33 -15 -70 -37 -82 -49 -27 -24 -28 -21 -7 49 17 59 8 57 114 34z
m-271 -130 c-15 -11 -48 -52 -74 -90 -26 -39 -51 -73 -55 -75 -14 -9 -54 31
-47 47 3 9 48 44 99 77 91 60 129 80 77 41z m-570 -101 c42 -21 89 -35 142
-42 44 -5 78 -11 76 -13 -2 -2 -25 -6 -53 -9 -47 -6 -192 -52 -236 -76 -20
-11 -21 -10 -14 27 4 22 9 63 13 92 3 28 7 52 8 52 1 0 30 -14 64 -31z"/>
<path d="M1688 1014 c-2 -5 -4 -47 -4 -94 1 -73 4 -89 25 -117 23 -30 101 -76
146 -86 11 -3 -20 -2 -70 2 -49 3 -109 6 -131 6 -47 0 -80 -21 -64 -40 5 -6 7
-15 4 -18 -4 -3 1 -24 10 -47 9 -22 16 -53 16 -68 1 -40 76 -132 134 -163 51
-28 71 -29 171 -11 44 9 57 18 118 83 38 41 87 100 109 131 22 32 49 60 59 63
11 4 19 15 19 25 0 18 -10 20 -132 22 -132 3 -133 3 -88 18 25 8 67 30 93 50
49 35 127 141 127 171 0 22 -20 36 -47 33 -12 0 -24 5 -27 12 -3 8 -15 11 -28
8 -44 -8 -203 -6 -248 4 -69 16 -187 25 -192 16z m274 -60 c114 -3 198 -17
198 -32 0 -12 -44 -69 -76 -99 -52 -48 -109 -66 -183 -59 -78 8 -120 27 -148
70 -24 35 -39 97 -29 122 5 14 15 16 64 9 31 -4 110 -9 174 -11z m-15 -290
c97 -2 178 -6 180 -8 11 -10 -45 -83 -144 -188 -32 -34 -106 -68 -148 -68 -20
0 -102 69 -129 108 -27 40 -68 157 -57 167 3 4 32 4 64 0 32 -3 138 -8 234
-11z"/>
<path d="M181 616 c-6 -7 -13 -40 -16 -72 -2 -32 -8 -80 -13 -106 -10 -50 -6
-95 9 -104 5 -2 24 11 42 30 21 22 57 42 93 55 32 11 75 26 94 35 20 8 79 18
132 22 89 6 96 5 95 -11 -2 -13 13 -24 48 -39 63 -27 101 -52 140 -95 18 -19
51 -41 76 -50 l44 -17 -3 -66 c-5 -132 29 -151 105 -61 62 74 67 78 137 99 38
12 61 24 64 36 4 17 28 18 421 15 405 -2 416 -1 416 17 0 18 -7 19 -120 16
-137 -3 -139 -3 -495 5 -159 4 -303 12 -360 21 -139 23 -133 23 -149 -13 -8
-18 -19 -33 -23 -33 -5 0 -29 19 -54 43 l-45 42 0 75 c0 41 1 86 3 100 5 38
-23 35 -79 -10 l-51 -40 -84 4 c-192 10 -254 23 -345 74 -24 13 -43 28 -43 33
0 14 -26 11 -39 -5z m94 -86 c17 -11 37 -20 46 -20 8 0 23 -6 33 -13 17 -12
10 -17 -67 -40 -47 -15 -87 -27 -89 -27 -2 0 0 27 6 60 11 67 21 73 71 40z
m499 -108 c-1 -2 -11 1 -21 7 -48 27 -48 28 -17 60 l29 31 6 -47 c3 -27 5 -49
3 -51z m366 -129 c33 -5 34 -6 10 -13 -51 -14 -90 -41 -131 -91 -37 -42 -44
-48 -50 -32 -4 10 -5 29 -2 43 4 25 10 71 12 101 1 15 16 15 161 -8z"/>
</g>
</svg>
