<?xml version="1.0" standalone="no"?>
<!DOCTYPE svg PUBLIC "-//W3C//DTD SVG 20010904//EN"
 "http://www.w3.org/TR/2001/REC-SVG-20010904/DTD/svg10.dtd">
<svg version="1.0" xmlns="http://www.w3.org/2000/svg"
 width="122.000000pt" height="111.000000pt" viewBox="0 0 122.000000 111.000000"
 preserveAspectRatio="xMidYMid meet">
<metadata>
Created by potrace 1.16, written by Peter Selinger 2001-2019
</metadata>
<g transform="translate(0.000000,111.000000) scale(0.100000,-0.100000)"
fill="#000000" stroke="none">
<path d="M216 1007 c-24 -36 -33 -206 -13 -246 11 -22 13 -40 7 -63 -29 -121
-42 -192 -37 -215 4 -16 -1 -59 -10 -96 -11 -49 -13 -74 -6 -90 6 -13 7 -31 2
-45 -11 -30 -22 -130 -15 -141 11 -18 64 19 104 73 47 61 40 59 267 80 83 8
157 17 167 21 13 5 18 -3 25 -47 10 -65 27 -65 31 -1 2 26 10 56 19 65 15 17
15 18 0 18 -12 0 -17 9 -17 33 0 58 11 73 88 125 81 53 70 51 257 68 126 12
105 23 -43 24 -140 0 -262 20 -262 42 0 5 8 33 17 61 25 79 85 184 145 255 49
57 41 63 -69 56 -54 -4 -107 -12 -118 -19 -36 -23 -237 -39 -329 -25 -97 14
-127 27 -144 63 -16 33 -46 35 -66 4z m675 -99 c-40 -54 -111 -186 -111 -207
0 -6 -13 -11 -29 -11 -16 0 -57 -7 -91 -16 -65 -16 -255 -25 -329 -15 l-45 6
35 29 c18 16 50 36 69 44 19 7 42 20 50 27 9 7 55 15 115 18 55 3 105 6 110 7
6 1 22 2 38 1 25 -1 27 -4 27 -39 0 -28 4 -39 15 -39 8 0 15 9 15 20 0 10 8
32 17 48 9 15 14 31 10 35 -9 10 -82 9 -217 0 -64 -5 -146 -6 -184 -2 -61 7
-66 9 -49 22 38 29 107 54 153 54 26 0 87 7 136 15 85 15 90 15 104 -3 14 -17
16 -17 37 9 21 24 68 39 151 48 7 0 -5 -23 -27 -51z m-619 20 c3 -7 29 -15 59
-18 l54 -6 -40 -21 c-22 -12 -53 -34 -70 -48 l-30 -27 -3 33 c-7 62 17 128 30
87z m102 -163 c-10 -8 -24 -15 -30 -15 -6 0 -32 -18 -58 -41 -39 -35 -46 -38
-46 -21 0 28 19 75 33 84 7 4 36 8 66 8 50 0 53 -1 35 -15z m345 -136 c3 -23
4 -23 12 -4 10 23 4 -41 -11 -115 -5 -25 -12 -80 -15 -123 -4 -45 -12 -80 -18
-82 -7 -2 -92 -6 -190 -9 -179 -6 -209 -9 -260 -28 -29 -11 -37 -28 -12 -28
22 0 18 -13 -14 -44 -29 -28 -29 -28 -27 -5 11 88 19 102 98 182 l79 80 49 -6
c26 -3 76 -1 111 4 35 5 90 13 122 16 52 5 57 8 44 21 -13 12 -24 13 -79 2
-47 -9 -99 -10 -202 -4 l-139 9 44 46 c53 57 103 79 178 79 31 1 90 9 131 19
41 10 80 18 85 17 6 -2 12 -13 14 -27z m-389 -17 c0 -17 -108 -114 -115 -103
-11 19 6 73 29 93 21 17 86 25 86 10z m509 -76 c23 -13 23 -13 -28 -44 -28
-18 -53 -32 -55 -32 -6 0 4 42 17 68 12 25 31 27 66 8z m-561 -90 c12 -1 22
-3 22 -6 0 -8 -98 -100 -105 -100 -8 0 2 60 16 97 7 19 14 23 27 17 9 -4 27
-8 40 -8z"/>
</g>
</svg>
