<?xml version="1.0" standalone="no"?>
<!DOCTYPE svg PUBLIC "-//W3C//DTD SVG 20010904//EN"
 "http://www.w3.org/TR/2001/REC-SVG-20010904/DTD/svg10.dtd">
<svg version="1.0" xmlns="http://www.w3.org/2000/svg"
 width="202.000000pt" height="154.000000pt" viewBox="0 0 202.000000 154.000000"
 preserveAspectRatio="xMidYMid meet">
<metadata>
Created by potrace 1.16, written by Peter Selinger 2001-2019
</metadata>
<g transform="translate(0.000000,154.000000) scale(0.100000,-0.100000)"
fill="#000000" stroke="none">
<path d="M375 1298 c-21 -40 -54 -99 -73 -131 -30 -50 -34 -61 -24 -82 7 -16
20 -25 34 -25 13 0 50 -19 83 -41 32 -23 71 -47 85 -53 26 -11 139 -93 363
-260 73 -55 195 -142 272 -194 77 -52 163 -114 190 -137 28 -23 79 -61 115
-85 36 -23 82 -58 102 -78 24 -23 42 -33 53 -28 11 4 30 -7 58 -33 40 -38 67
-44 67 -14 0 16 -206 223 -250 251 -14 9 -63 48 -109 87 -46 38 -111 92 -144
119 -79 65 -129 118 -119 127 9 10 103 25 242 39 58 6 121 13 140 16 84 12
164 17 288 17 99 0 132 4 132 13 0 7 -15 17 -32 22 -35 11 -292 24 -448 23
-52 -1 -129 4 -170 10 -41 6 -86 12 -100 14 -14 2 -68 7 -120 10 -52 4 -104
11 -115 15 -11 4 -47 36 -80 71 -33 35 -109 113 -169 175 -95 98 -157 174
-168 204 -2 5 -17 12 -34 16 -30 6 -32 4 -69 -68z m273 -214 c106 -108 192
-199 192 -202 0 -3 8 -14 17 -24 11 -13 16 -32 14 -55 -1 -20 2 -39 9 -43 7
-4 8 -10 3 -13 -12 -7 -78 36 -141 92 -26 23 -126 95 -223 159 l-177 118 18
24 c9 14 30 48 45 75 36 67 35 65 44 65 4 0 93 -88 199 -196z m634 -260 c69
-9 68 -21 -5 -28 -34 -3 -93 -9 -132 -13 -117 -12 -133 -10 -168 26 l-32 33
144 -6 c80 -3 166 -9 193 -12z m-316 -63 c-4 -6 -15 -11 -25 -11 -14 0 -17 6
-13 31 5 31 5 31 24 11 11 -11 17 -25 14 -31z m121 -111 c37 -36 88 -81 113
-100 25 -18 77 -63 115 -99 39 -36 91 -83 115 -104 25 -21 32 -29 15 -18 -58
41 -252 179 -382 273 l-133 96 38 10 c20 5 40 9 44 8 4 0 37 -30 75 -66z"/>
</g>
</svg>
