<?xml version="1.0" standalone="no"?>
<!DOCTYPE svg PUBLIC "-//W3C//DTD SVG 20010904//EN"
 "http://www.w3.org/TR/2001/REC-SVG-20010904/DTD/svg10.dtd">
<svg version="1.0" xmlns="http://www.w3.org/2000/svg"
 width="318.000000pt" height="153.000000pt" viewBox="0 0 318.000000 153.000000"
 preserveAspectRatio="xMidYMid meet">
<metadata>
Created by potrace 1.16, written by Peter Selinger 2001-2019
</metadata>
<g transform="translate(0.000000,153.000000) scale(0.100000,-0.100000)"
fill="#000000" stroke="none">
<path d="M2789 1430 c-55 -62 -150 -142 -204 -171 -40 -21 -64 -68 -43 -83 8
-6 28 -31 46 -56 17 -25 52 -65 77 -90 25 -25 45 -48 45 -52 0 -3 -30 -9 -67
-12 -38 -3 -98 -8 -134 -12 l-65 -6 -12 54 c-7 29 -18 70 -25 91 -10 28 -11
50 -3 87 5 27 6 53 2 57 -4 5 -22 -8 -39 -28 -18 -19 -48 -47 -68 -62 l-36
-26 -6 41 c-3 22 -10 45 -15 50 -9 9 -50 -13 -114 -62 l-28 -22 0 41 c0 23 -4
41 -9 41 -14 0 -53 -22 -92 -52 -20 -16 -38 -28 -41 -28 -13 0 -15 41 -3 64
11 21 11 27 -1 37 -12 10 -19 8 -37 -8 -38 -35 -91 -63 -120 -63 -27 0 -28 -1
-21 -37 8 -41 32 -84 84 -148 l32 -40 -49 -5 c-50 -6 -73 3 -73 26 0 7 -14 62
-30 122 -24 86 -29 114 -21 135 9 24 8 27 -9 27 -11 0 -41 -14 -67 -30 -37
-24 -54 -29 -80 -24 -22 4 -33 2 -33 -5 0 -23 60 -130 109 -194 l50 -65 -56
-7 c-30 -4 -58 -3 -62 2 -17 20 -52 156 -55 214 -2 35 -4 65 -5 66 -1 2 -26
-13 -56 -33 -30 -19 -63 -34 -72 -32 -10 2 -19 -7 -24 -25 -6 -21 -2 -34 15
-55 12 -15 41 -53 64 -84 l41 -56 -52 3 c-29 1 -55 3 -58 4 -12 2 -41 124 -41
177 -1 50 -16 84 -26 56 -2 -7 -33 -28 -69 -48 -35 -20 -67 -42 -69 -49 -3 -7
20 -36 50 -65 75 -71 74 -80 -13 -73 -83 7 -118 0 -126 -27 -8 -26 -14 -26
-98 14 -40 18 -91 41 -114 51 -24 10 -43 21 -43 25 0 4 -11 23 -24 43 -39 57
-108 238 -101 265 6 23 -9 52 -25 52 -5 0 -24 -31 -43 -70 -20 -38 -53 -93
-75 -122 -52 -71 -74 -115 -70 -141 3 -19 10 -22 51 -24 61 -3 87 -20 76 -50
-5 -13 -13 -23 -19 -23 -5 0 -10 -6 -10 -14 0 -22 -57 -27 -217 -21 -147 6
-217 17 -228 35 -3 6 -14 10 -25 10 -18 0 -36 -42 -25 -61 9 -13 8 -114 0
-140 -5 -15 -2 -22 14 -26 19 -5 21 -13 21 -82 1 -42 1 -83 2 -91 0 -13 -9
-133 -15 -185 -4 -37 35 -29 79 17 26 27 62 50 94 62 28 10 54 25 57 33 5 12
28 14 129 11 76 -2 125 -7 128 -14 2 -6 43 -28 90 -49 47 -21 86 -41 86 -45 0
-4 -19 -10 -42 -13 -35 -5 -50 -1 -79 19 -19 13 -38 24 -41 24 -3 0 -8 -23
-11 -51 -7 -59 4 -87 67 -165 36 -43 50 -74 72 -152 2 -7 19 -12 41 -12 21 0
33 4 26 8 -14 9 -1 87 22 133 27 51 204 219 232 219 6 0 13 -12 15 -27 4 -35
29 -41 65 -15 24 16 114 52 132 52 15 0 -82 -86 -126 -111 -54 -31 -69 -59
-33 -59 32 0 92 -28 85 -40 -4 -6 9 -9 35 -8 47 2 60 14 34 32 -16 13 -16 15
6 52 80 135 99 159 147 181 41 19 171 47 181 38 2 -1 -20 -29 -48 -61 -28 -32
-65 -77 -83 -100 -17 -24 -51 -55 -74 -70 -47 -29 -56 -54 -20 -54 30 0 87
-36 87 -55 0 -38 32 -9 65 58 20 39 56 106 80 147 24 41 51 89 59 106 15 31
17 32 91 33 74 1 76 1 65 -20 -12 -22 -27 -40 -100 -124 -25 -29 -62 -71 -82
-95 -21 -24 -38 -46 -38 -50 0 -4 21 -13 48 -20 26 -8 50 -19 54 -26 5 -7 19
-9 40 -5 28 6 33 11 30 33 -3 27 74 205 115 266 12 18 23 37 25 42 2 6 41 13
88 17 l85 6 -18 -24 c-9 -13 -30 -46 -45 -73 -52 -93 -116 -186 -128 -186 -15
0 -26 -28 -14 -35 5 -3 26 -3 45 1 25 4 42 1 61 -10 14 -10 37 -16 52 -14 23
3 27 7 25 33 -3 44 82 259 110 276 5 4 7 11 3 17 -10 17 17 29 77 35 l58 6
-36 -47 c-19 -26 -44 -63 -54 -82 -11 -19 -44 -59 -75 -88 -58 -56 -64 -81
-18 -80 15 0 40 -5 55 -11 41 -16 77 -14 77 4 0 8 -5 15 -10 15 -12 0 18 62
94 189 31 52 56 101 56 108 0 8 13 13 33 14 17 0 42 2 55 5 22 4 22 2 -10 -42
-18 -26 -37 -53 -43 -62 -15 -24 -78 -86 -100 -98 -31 -17 -11 -41 47 -54 75
-18 92 -28 78 -45 -15 -18 -4 -35 23 -35 29 0 154 -49 192 -74 57 -40 97 -57
116 -51 25 8 24 22 -3 36 -19 10 -19 12 -5 21 15 8 16 12 2 38 -30 57 -17 251
22 346 13 32 25 45 45 49 34 8 46 35 18 42 -11 3 -20 8 -20 10 0 17 89 124
107 129 12 3 23 15 25 27 2 12 17 31 35 42 36 22 51 51 35 67 -13 13 -57 -13
-85 -49 -10 -13 -23 -23 -28 -23 -8 0 -48 56 -75 106 -12 22 -27 232 -25 350
1 39 7 93 14 120 15 60 16 96 1 101 -7 2 -36 -23 -65 -57z m15 -233 c0 -105
-2 -196 -2 -202 -2 -10 -92 75 -92 87 0 4 -22 28 -50 54 -27 26 -50 52 -50 58
0 6 15 21 33 33 39 27 70 56 122 116 22 26 40 46 40 47 0 0 0 -87 -1 -193z
m-2119 -64 c15 -43 36 -93 46 -111 18 -32 18 -32 -1 -22 -10 5 -27 10 -37 10
-10 0 -37 9 -58 20 -22 11 -45 18 -52 16 -11 -5 -23 14 -23 37 0 7 12 26 26
42 14 17 33 42 42 58 9 15 19 27 23 27 3 0 19 -35 34 -77z m1019 -68 c9 -38
21 -84 27 -103 6 -18 9 -35 7 -37 -5 -5 -130 160 -148 194 -13 25 -2 40 30 41
8 0 24 7 35 16 23 17 19 26 49 -111z m210 63 c3 -18 7 -66 10 -107 l4 -74 -24
29 c-46 56 -95 134 -89 143 3 5 19 12 35 16 16 4 32 11 35 16 12 18 24 8 29
-23z m310 7 c4 -14 4 -31 0 -37 -4 -5 -3 -13 2 -17 9 -6 35 -91 28 -91 -16 0
-103 136 -92 145 9 7 44 24 49 25 4 0 10 -11 13 -25z m-158 -9 c3 -13 4 -38 2
-57 l-3 -33 -28 43 c-27 41 -28 43 -10 57 25 19 32 17 39 -10z m300 -7 c2 -13
6 -36 9 -51 2 -16 2 -28 0 -28 -11 0 -46 83 -41 97 9 22 29 11 32 -18z m-876
-34 c0 -25 0 -47 0 -50 1 -3 7 -23 15 -46 17 -48 17 -49 7 -49 -4 0 -16 15
-26 33 -11 17 -34 51 -52 74 l-34 41 33 21 c48 31 57 27 57 -24z m830 -17 c0
-11 8 -32 19 -46 10 -15 23 -37 30 -49 11 -22 10 -23 -26 -23 l-38 0 -15 64
c-11 43 -12 69 -6 79 13 20 36 4 36 -25z m-314 -10 c14 -24 37 -59 50 -78 l24
-35 -51 -8 c-60 -10 -68 -4 -70 58 -1 22 -3 55 -5 73 -3 46 20 41 52 -10z
m152 -1 c11 -24 33 -58 47 -75 l27 -32 -51 0 c-56 0 -54 -3 -70 98 -7 46 -6
52 9 52 11 0 26 -17 38 -43z m-853 -76 c3 -12 3 -21 -2 -20 -9 0 -73 77 -73
88 0 3 12 14 28 23 l27 17 7 -44 c3 -24 9 -53 13 -64z m-550 -66 c17 -8 55
-21 85 -30 30 -9 71 -24 90 -35 19 -10 54 -27 77 -38 38 -19 42 -24 45 -64 3
-47 26 -62 56 -35 27 23 141 55 215 60 64 4 69 3 77 -17 4 -13 32 -43 62 -69
l53 -46 -47 -46 -47 -45 -118 0 c-65 0 -132 4 -149 9 -17 5 -36 6 -41 2 -16
-10 -33 -48 -33 -73 0 -17 -10 -27 -40 -40 -36 -15 -45 -15 -97 -1 -32 8 -71
22 -87 30 -32 17 -111 93 -139 133 -9 14 -24 35 -33 47 -16 22 -15 22 13 14
51 -16 99 -40 113 -56 8 -10 22 -14 35 -11 26 7 91 -23 156 -70 45 -33 69 -42
69 -26 -1 25 -135 114 -210 138 -41 13 -71 33 -116 76 -58 55 -85 98 -63 98
16 0 277 -131 304 -152 25 -19 25 -19 25 1 0 26 -100 90 -143 91 -7 0 -55 41
-107 91 -82 78 -91 90 -65 84 17 -4 44 -13 60 -20z m2045 -32 c25 -31 60 -72
78 -90 l33 -33 -40 -42 c-22 -24 -51 -59 -64 -78 -22 -34 -25 -35 -90 -38 -37
-2 -67 -1 -67 2 0 3 20 46 45 95 25 49 45 94 45 99 0 5 11 19 25 32 30 29 32
40 4 40 -11 0 -32 -14 -47 -31 -27 -32 -44 -55 -137 -187 -48 -69 -50 -70
-103 -77 -29 -4 -55 -5 -57 -3 -9 9 75 164 95 176 19 11 25 11 41 -4 10 -9 19
-23 19 -31 0 -7 6 -13 14 -13 40 0 22 40 -53 120 -28 30 -51 57 -51 61 0 4 26
10 58 12 90 9 130 18 143 33 25 31 62 16 109 -43z m-545 28 c-14 -13 -84 -23
-98 -14 -7 5 10 11 38 14 28 3 54 7 60 7 6 1 6 -1 0 -7z m128 2 c-13 -2 -33
-2 -45 0 -13 2 -3 4 22 4 25 0 35 -2 23 -4z m-1663 -71 c0 -3 -5 -1 -12 6 -7
7 -21 12 -32 12 -31 0 -48 14 -40 33 5 15 11 13 45 -14 21 -17 39 -33 39 -37z
m1380 57 c0 -7 -37 -14 -110 -22 -8 -1 -16 6 -18 15 -3 15 5 17 62 16 36 0 66
-5 66 -9z m-175 -18 c12 -7 -37 -18 -87 -20 -27 -1 -38 3 -38 13 0 23 91 28
125 7z m-211 -12 c5 -5 8 -10 5 -13 -8 -7 -129 -12 -129 -5 0 4 -3 15 -7 24
-5 16 0 17 58 10 35 -4 68 -11 73 -16z m-390 -14 c13 -18 13 -21 -2 -27 -9 -4
-32 -7 -51 -7 -19 -1 -61 -10 -94 -22 -62 -22 -80 -20 -53 6 18 19 21 41 6 50
-5 3 -10 11 -10 17 0 7 32 9 95 6 80 -3 97 -7 109 -23z m193 14 c7 -6 13 -16
13 -21 0 -13 -143 -5 -147 9 -7 20 111 30 134 12z m951 -35 l33 -42 -81 -120
-81 -120 -62 -4 c-34 -2 -63 -3 -65 -2 -5 2 49 114 59 119 5 4 9 14 9 23 0 10
11 29 25 44 14 15 25 32 25 37 0 19 -17 20 -37 2 -20 -19 -20 -18 -45 8 -13
14 -32 38 -42 52 l-17 27 46 6 c25 4 49 5 55 1 5 -3 26 -33 46 -65 35 -58 64
-77 64 -44 0 8 -13 34 -28 57 -16 23 -32 47 -35 53 -5 8 10 11 46 11 50 -1 55
-3 85 -43z m-2249 7 c24 -6 24 -7 -15 -37 -65 -51 -65 -51 -63 0 3 42 5 46 28
45 14 -1 37 -4 50 -8z m421 -28 c0 -9 16 -35 36 -59 l35 -44 -33 7 c-18 3 -39
10 -45 16 -10 7 -13 4 -13 -11 0 -12 10 -28 22 -36 12 -9 17 -16 10 -16 -6 0
-12 -11 -12 -25 0 -24 -14 -34 -24 -16 -3 4 -38 3 -78 -4 -48 -8 -118 -10
-203 -6 l-130 6 50 26 c38 20 71 28 140 33 218 16 215 15 215 43 0 12 -7 14
-30 9 -72 -14 -190 -19 -190 -7 0 14 -46 15 -55 1 -8 -13 -77 -13 -112 1 l-28
11 35 29 c19 16 42 29 52 29 9 0 22 8 27 19 9 16 24 18 146 18 74 0 138 3 142
6 10 10 43 -13 43 -30z m1527 4 c13 -18 37 -48 54 -65 l32 -33 -60 -87 -61
-87 -53 -8 c-30 -4 -71 -6 -91 -5 l-37 3 31 45 c17 25 34 59 38 75 5 23 11 30
30 30 21 0 24 5 25 37 1 26 -3 38 -14 41 -9 3 -26 23 -39 46 l-23 41 73 0 c71
0 74 -1 95 -33z m-167 -32 l31 -45 -68 -100 -68 -100 -87 0 c-49 0 -88 2 -88
5 0 5 47 79 63 100 4 6 14 19 22 30 13 20 14 20 35 -3 20 -21 40 -22 40 -1 0
6 -18 37 -41 71 -27 39 -38 63 -31 70 9 9 141 27 154 21 4 -2 22 -24 38 -48z
m-230 -18 l32 -46 -34 -41 c-18 -22 -36 -40 -39 -40 -8 0 -92 107 -108 138 -7
12 -10 26 -7 30 2 4 32 7 65 7 l60 -1 31 -47z m-174 -14 c21 -32 55 -81 75
-109 l37 -51 -21 -27 c-22 -26 -23 -26 -114 -20 l-92 7 65 75 c35 42 64 79 64
84 0 17 -32 7 -54 -17 l-23 -25 -58 56 c-34 32 -54 59 -49 64 8 8 36 12 110
18 15 2 31 -14 60 -55z m-1387 -59 l32 -7 -31 -18 c-40 -25 -50 -24 -50 6 0
27 2 28 49 19z m36 -106 l50 -3 -58 -44 c-62 -47 -76 -46 -77 7 0 30 20 68 29
54 3 -6 29 -12 56 -14z m449 -2 c15 -24 15 -25 -11 -23 -30 2 -43 -20 -16 -29
21 -7 101 -44 187 -85 32 -16 64 -29 72 -29 8 0 14 -4 14 -10 0 -5 -6 -10 -13
-10 -7 0 -29 -9 -50 -20 -20 -11 -47 -20 -58 -20 -23 0 -119 94 -145 142 -8
15 -23 32 -34 38 -18 10 -22 7 -31 -20 l-11 -31 -185 3 c-129 2 -179 6 -167
13 9 6 38 24 64 42 44 30 55 32 174 40 116 8 127 7 132 -9 8 -26 33 -22 46 7
6 14 12 25 13 25 2 0 10 -11 19 -24z m2050 -28 c-4 -7 -28 -38 -54 -68 -25
-30 -59 -73 -75 -95 -16 -22 -47 -59 -69 -82 -30 -33 -42 -40 -53 -32 -22 19
-15 42 41 129 82 128 80 126 143 143 74 19 76 19 67 5z m-200 -65 c-14 -27
-34 -59 -44 -73 -9 -14 -27 -44 -39 -67 -18 -36 -26 -43 -51 -43 -17 0 -30 4
-30 9 0 4 24 33 53 63 28 30 68 78 87 106 44 65 59 68 24 5z m-904 18 c0 -21
-30 -30 -96 -30 -38 0 -82 -3 -97 -6 -27 -7 -33 0 -19 22 12 19 212 32 212 14z
m-291 -7 c30 -6 31 -8 15 -25 -10 -11 -31 -19 -49 -19 -31 0 -61 -20 -49 -33
8 -8 -56 -34 -101 -41 -39 -7 -40 -5 -29 78 l7 46 87 0 c48 0 102 -3 119 -6z
m456 -4 c-29 -12 -144 -12 -125 0 8 5 44 9 80 8 44 0 59 -3 45 -8z m188 3
c-13 -2 -33 -2 -45 0 -13 2 -3 4 22 4 25 0 35 -2 23 -4z m341 -50 c-13 -32
-31 -64 -38 -73 -7 -8 -30 -43 -50 -77 -39 -66 -42 -68 -65 -54 -15 9 -12 14
41 76 21 25 81 109 109 153 31 47 32 39 3 -25z m-1660 2 l27 -35 -35 17 c-34
16 -44 32 -29 46 9 10 8 11 37 -28z m1430 -56 c-53 -126 -87 -199 -93 -199 -3
0 -16 3 -28 6 -22 6 -23 7 -4 33 10 14 28 48 40 76 19 43 112 177 118 171 2
-1 -13 -40 -33 -87z m-1871 29 c-26 -17 -58 -39 -70 -51 -13 -11 -23 -16 -23
-11 0 19 23 89 30 94 5 3 31 3 59 2 l52 -4 -48 -30z m2504 20 c-3 -13 -9 -44
-12 -70 -4 -26 -10 -60 -14 -75 -7 -27 -1 -79 14 -118 8 -18 6 -18 -17 3 -13
12 -51 29 -83 37 -31 9 -62 18 -67 21 -5 4 6 23 25 43 18 20 47 54 63 76 28
40 86 105 93 105 2 0 1 -10 -2 -22z m-1110 -39 c-18 -28 -47 -70 -64 -92 -18
-23 -42 -61 -54 -85 -26 -51 -31 -55 -54 -38 -16 12 -14 17 31 77 26 35 51 66
54 69 3 3 27 31 53 63 27 31 52 57 57 57 5 0 -6 -23 -23 -51z m-647 -50 c-122
-114 -172 -165 -187 -193 l-15 -29 -24 29 c-13 16 -23 33 -24 38 0 4 -14 25
-32 45 -27 31 -29 36 -14 39 10 2 31 -2 47 -8 34 -15 52 -4 27 14 -15 11 -12
14 25 23 28 6 51 6 65 0 25 -11 44 -1 23 12 -9 6 11 18 60 37 41 15 78 31 84
36 5 4 11 8 15 8 3 0 -20 -23 -50 -51z m830 -6 c-17 -32 -34 -65 -39 -73 -4
-8 -18 -36 -30 -61 -20 -41 -26 -46 -47 -40 -13 3 -24 11 -24 16 0 9 161 215
168 215 1 0 -11 -26 -28 -57z m-506 -11 c-17 -20 -43 -59 -58 -85 -19 -33 -32
-47 -43 -43 -8 3 -22 6 -31 6 -12 0 -6 9 17 27 44 35 74 65 107 108 15 20 29
33 32 30 3 -3 -8 -22 -24 -43z m-654 -18 c0 -2 -7 -4 -15 -4 -8 0 -15 4 -15
10 0 5 7 7 15 4 8 -4 15 -8 15 -10z"/>
</g>
</svg>
