<?xml version="1.0" standalone="no"?>
<!DOCTYPE svg PUBLIC "-//W3C//DTD SVG 20010904//EN"
 "http://www.w3.org/TR/2001/REC-SVG-20010904/DTD/svg10.dtd">
<svg version="1.0" xmlns="http://www.w3.org/2000/svg"
 width="246.000000pt" height="154.000000pt" viewBox="0 0 246.000000 154.000000"
 preserveAspectRatio="xMidYMid meet">
<metadata>
Created by potrace 1.16, written by Peter Selinger 2001-2019
</metadata>
<g transform="translate(0.000000,154.000000) scale(0.100000,-0.100000)"
fill="#000000" stroke="none">
<path d="M1225 1396 c-14 -31 -30 -57 -37 -57 -7 -1 -54 -1 -104 0 -99 2 -126
-9 -105 -46 14 -24 29 -197 19 -223 -7 -20 -14 -22 -71 -19 -34 2 -68 9 -75
16 -7 6 -34 14 -60 18 -26 3 -76 10 -112 15 -93 14 -344 40 -385 40 -21 0 -41
7 -53 20 -32 34 -52 17 -52 -45 0 -41 -4 -54 -17 -60 -17 -6 -17 -7 0 -20 16
-12 18 -23 13 -84 -7 -84 -7 -85 74 -55 137 49 349 91 510 101 47 3 89 9 95
14 5 5 36 9 70 9 l60 0 -4 -52 c-1 -29 -1 -51 2 -48 13 13 21 75 26 220 l6
155 63 3 c34 2 62 -1 62 -5 0 -5 -20 -67 -44 -138 -25 -72 -54 -175 -66 -230
-20 -94 -48 -185 -49 -157 -1 24 -20 12 -23 -15 l-3 -28 -145 -11 c-80 -6
-158 -14 -175 -17 -16 -4 -43 -9 -60 -12 -16 -2 -52 -9 -80 -15 -27 -6 -66
-13 -85 -15 -51 -8 -180 -47 -186 -57 -13 -21 -19 -4 -17 50 1 31 2 72 3 91
l0 34 43 -8 c23 -3 156 -8 294 -10 143 -3 278 -9 311 -16 59 -12 98 -7 87 11
-3 5 -16 10 -28 10 -12 1 -80 3 -152 5 -71 3 -213 8 -315 11 -102 3 -193 10
-202 15 -18 10 -68 2 -68 -10 0 -3 -5 -57 -10 -119 -7 -78 -7 -119 0 -132 15
-27 28 -25 43 7 13 30 93 69 160 79 23 3 96 16 162 29 66 13 147 26 180 29 33
2 102 8 154 12 l94 7 -9 -79 c-10 -93 -10 -110 1 -230 7 -86 7 -92 -11 -96
-16 -3 -14 -7 13 -22 37 -23 53 -53 53 -101 0 -28 4 -35 19 -35 11 0 21 7 23
16 3 13 40 38 138 89 14 7 46 23 73 34 95 42 143 64 202 91 33 15 76 35 95 43
19 9 84 38 144 66 59 28 111 51 113 51 3 0 17 8 31 18 15 10 52 29 82 41 30
13 72 34 92 47 21 13 43 24 49 24 7 0 27 12 46 26 18 14 58 36 88 49 30 14 55
28 55 31 0 13 -75 74 -91 74 -9 0 -24 9 -33 19 -10 11 -34 27 -54 37 -32 14
-127 68 -197 111 -11 7 -31 18 -45 25 -39 19 -243 154 -365 240 -60 43 -121
86 -135 96 -14 9 -42 34 -63 55 l-37 38 -25 -55z m97 -50 c29 -19 96 -64 148
-101 52 -36 140 -93 195 -127 153 -93 177 -109 172 -114 -6 -7 -159 75 -302
161 -66 40 -156 91 -200 114 -44 23 -84 46 -88 51 -8 7 8 50 17 50 3 0 28 -15
58 -34z m-22 -79 c56 -29 169 -91 365 -202 83 -47 139 -75 151 -75 6 0 19 -9
29 -20 10 -11 24 -20 32 -20 7 0 13 -4 13 -10 0 -5 6 -10 13 -10 6 0 50 -25
97 -55 47 -30 101 -58 120 -61 19 -4 42 -12 50 -19 8 -6 24 -15 34 -19 16 -5
10 -13 -40 -50 -32 -24 -76 -49 -96 -55 -20 -7 -47 -20 -60 -30 -28 -21 -140
-71 -159 -71 -16 0 -256 -74 -309 -95 -19 -8 -73 -26 -120 -41 -47 -15 -89
-31 -95 -36 -13 -12 30 -2 120 29 92 31 230 75 230 73 0 0 27 9 59 20 33 11
61 19 63 17 4 -5 -169 -87 -492 -232 -16 -7 -79 -36 -139 -64 -60 -28 -110
-50 -111 -49 -1 2 -9 22 -17 46 l-17 43 27 10 c15 6 41 13 57 16 17 2 39 9 50
14 11 5 52 22 90 38 39 17 61 30 51 31 -18 0 -19 1 -3 18 70 71 98 191 62 263
-26 52 -65 89 -94 89 l-26 0 30 19 c96 60 163 193 151 303 -7 69 -42 130 -84
147 -17 7 -51 10 -76 8 -38 -4 -46 -2 -51 14 -4 10 -11 19 -16 19 -16 0 -10
18 9 23 32 9 38 7 102 -26z m-127 -282 c-6 -195 -5 -212 12 -229 13 -13 15
-20 7 -25 -7 -4 -14 -46 -17 -102 -5 -96 -11 -147 -20 -185 -2 -11 0 -35 5
-52 10 -37 2 -43 -78 -68 -74 -22 -77 -21 -78 38 -4 240 -3 299 10 353 8 33
19 80 25 105 6 25 16 70 22 100 33 156 93 316 109 290 5 -8 6 -109 3 -225z
m148 208 c49 -61 69 -146 50 -205 -6 -19 -13 -45 -16 -57 -5 -29 -37 -72 -80
-110 -60 -53 -65 -47 -67 87 -1 64 -1 128 -1 142 0 14 1 55 2 93 l1 67 48 0
c35 0 53 -5 63 -17z m-893 -94 c40 -5 94 -9 120 -9 80 0 262 -33 262 -47 0 -7
-8 -13 -17 -13 -96 -1 -364 -47 -497 -86 -49 -14 -72 -11 -60 8 4 6 6 46 5 90
l-1 78 57 -6 c32 -3 91 -10 131 -15z m1645 -230 c19 -19 20 -20 2 -11 -39 22
-51 32 -37 32 7 0 23 -10 35 -21z m-781 -184 c22 -31 29 -54 33 -106 4 -61 2
-69 -30 -116 -40 -60 -83 -92 -96 -72 -5 8 -6 55 -3 104 4 50 8 115 9 145 3
93 2 92 32 88 18 -2 36 -16 55 -43z"/>
<path d="M1499 1056 c-2 -3 -3 -121 -2 -263 3 -248 3 -258 22 -261 14 -2 28 9
47 40 14 24 43 68 63 98 57 84 65 110 57 191 -9 90 -38 159 -66 159 -20 0 -29
4 -77 28 -24 13 -37 15 -44 8z m67 -51 c4 -8 15 -15 26 -15 26 0 49 -58 55
-141 4 -53 1 -76 -16 -115 -12 -26 -25 -51 -30 -54 -4 -3 -21 -27 -37 -55 -20
-35 -30 -45 -32 -32 -2 10 2 24 8 32 7 9 9 26 6 41 -4 14 -9 89 -11 167 -3 78
-8 152 -11 165 -5 18 -2 22 15 22 12 0 24 -7 27 -15z"/>
<path d="M977 866 c-4 -15 -6 -31 -2 -34 10 -10 16 6 13 35 l-3 28 -8 -29z"/>
</g>
</svg>
