<?xml version="1.0" standalone="no"?>
<!DOCTYPE svg PUBLIC "-//W3C//DTD SVG 20010904//EN"
 "http://www.w3.org/TR/2001/REC-SVG-20010904/DTD/svg10.dtd">
<svg version="1.0" xmlns="http://www.w3.org/2000/svg"
 width="308.000000pt" height="164.000000pt" viewBox="0 0 308.000000 164.000000"
 preserveAspectRatio="xMidYMid meet">
<metadata>
Created by potrace 1.16, written by Peter Selinger 2001-2019
</metadata>
<g transform="translate(0.000000,164.000000) scale(0.100000,-0.100000)"
fill="#000000" stroke="none">
<path d="M1219 1565 c-1 -14 -3 -29 -4 -35 -1 -5 -3 -19 -4 -29 -1 -12 -13
-23 -32 -30 -33 -11 -75 -42 -182 -133 -37 -32 -97 -76 -132 -99 -101 -63
-153 -139 -86 -124 18 4 42 0 65 -12 31 -14 36 -21 31 -40 -4 -19 -1 -23 19
-23 28 0 39 13 40 49 3 58 219 341 261 341 11 0 15 -13 15 -55 0 -61 7 -66 52
-34 39 28 147 36 662 49 234 5 403 14 410 19 12 10 65 8 250 -9 153 -15 286
-13 286 4 0 14 -25 18 -215 31 -146 9 -312 25 -370 35 -33 5 -132 12 -220 15
-88 3 -167 8 -175 10 -8 2 -123 16 -255 30 -132 14 -271 34 -310 45 -93 26
-105 26 -106 -5z m114 -40 c68 -13 246 -35 337 -40 58 -4 146 -13 195 -21 50
-8 137 -14 195 -15 58 0 125 -4 150 -8 l45 -7 -65 -7 c-36 -4 -220 -10 -410
-12 -190 -3 -387 -8 -439 -10 l-94 -5 7 52 c3 29 6 61 6 71 0 13 6 16 25 12
14 -3 35 -7 48 -10z m-339 -257 c-43 -72 -95 -148 -101 -148 -5 1 -20 11 -35
23 l-28 22 66 45 c35 24 70 50 76 57 13 17 32 17 22 1z"/>
<path d="M1645 1352 c-4 -4 -50 -7 -103 -7 -93 0 -97 -1 -100 -22 -2 -13 0
-23 5 -24 51 -3 128 -11 130 -13 2 -2 -19 -54 -48 -116 -28 -63 -55 -132 -60
-154 -6 -28 -7 6 -4 105 4 123 3 149 -10 159 -9 7 -18 10 -22 6 -4 -3 -6 -95
-4 -203 l3 -196 -67 5 c-39 4 -73 12 -83 21 -11 11 -22 13 -32 7 -20 -12 2
-58 32 -64 118 -24 150 -31 160 -37 7 -4 -8 -34 -41 -81 -28 -41 -51 -84 -51
-95 0 -23 -79 -146 -133 -208 -34 -39 -35 -40 -69 -27 -19 6 -41 12 -50 12
-21 0 -36 -39 -31 -77 l5 -32 -38 19 c-33 18 -61 52 -103 130 -4 8 -23 25 -42
38 -19 13 -57 45 -86 72 l-52 48 46 36 c25 20 52 36 58 36 15 0 25 -45 25
-105 0 -28 7 -51 21 -69 22 -28 27 -30 48 -17 11 7 11 12 -2 32 -8 13 -17 49
-21 79 -21 185 -23 191 -64 145 -41 -45 -124 -95 -160 -95 -36 0 -148 25 -200
45 -20 7 -64 19 -97 26 -33 6 -76 20 -97 30 -56 28 -111 34 -128 14 -11 -13
-11 -21 -2 -35 16 -27 17 -133 2 -217 -13 -70 -10 -103 9 -103 5 0 34 22 64
50 80 73 250 146 343 149 45 1 52 -2 57 -20 4 -14 11 -20 21 -16 22 9 65 -17
116 -69 25 -25 55 -50 67 -54 12 -5 33 -33 48 -62 33 -65 78 -105 128 -114
l37 -7 0 -82 c0 -67 3 -84 16 -89 21 -8 34 1 34 24 0 14 8 18 38 18 95 0 494
14 647 23 94 5 299 14 457 19 158 5 295 13 305 17 10 5 83 6 163 2 118 -5 148
-4 160 8 28 26 -11 37 -116 33 -26 -1 -57 7 -85 22 -41 21 -58 23 -256 26
-117 3 -213 7 -213 11 0 18 49 73 190 214 85 85 170 171 188 192 31 33 37 36
71 30 35 -6 39 -4 51 25 14 34 8 136 -9 153 -7 7 -27 5 -62 -6 -28 -10 -61
-17 -74 -17 l-22 0 12 90 c10 70 18 96 39 120 14 17 34 50 44 73 10 23 33 57
50 76 49 51 41 80 -16 59 -22 -8 -40 -9 -64 -2 -23 7 -41 7 -56 1 -16 -7 -29
-6 -46 3 -27 14 -88 7 -117 -14 -27 -18 -86 -8 -92 16 -5 18 -12 19 -89 15
-46 -3 -107 -11 -136 -18 -49 -12 -55 -12 -64 4 -8 14 -21 18 -66 16 -31 -1
-67 1 -80 5 -13 4 -51 0 -88 -9 -61 -15 -104 -13 -104 5 0 11 -26 20 -35 12z
m289 -94 c-15 -29 -42 -81 -60 -115 l-33 -62 4 101 c2 55 7 104 12 108 8 9 42
16 81 19 l22 1 -26 -52z m-171 -13 c-66 -134 -89 -175 -96 -175 -5 0 -6 4 -3
8 3 5 8 45 11 90 5 73 4 82 -13 91 -11 6 -22 7 -26 4 -3 -3 -6 0 -6 9 0 22 3
23 83 23 l75 0 -25 -50z m477 48 c0 -10 -101 -213 -106 -213 -2 0 -3 41 -1 91
3 82 6 94 26 110 22 18 81 27 81 12z m-136 -25 c-9 -30 -59 -133 -78 -160 -14
-20 -15 -19 -18 18 -2 22 -1 65 0 96 l4 57 41 4 c23 2 46 4 50 5 5 1 5 -8 1
-20z m414 4 c10 -7 7 -21 -14 -66 -14 -31 -27 -56 -28 -54 -1 2 0 31 2 66 4
61 11 72 40 54z m116 -10 c5 -9 -30 -92 -38 -92 -3 0 -4 15 -2 33 2 17 4 40 5
50 1 17 26 24 35 9z m-234 -12 c0 -11 -77 -160 -89 -173 -4 -4 0 36 8 88 l16
95 32 0 c18 0 33 -5 33 -10z m-110 -34 c0 -19 -4 -68 -10 -108 -5 -40 -12
-107 -14 -148 l-5 -75 -65 -3 c-72 -3 -69 -6 -66 63 1 36 35 113 101 231 47
85 59 93 59 40z m-489 -202 c-6 -33 -11 -77 -11 -97 l0 -37 -60 0 -60 0 0 51
c0 49 7 69 62 169 10 19 31 59 46 88 l27 54 3 -84 c2 -45 -2 -110 -7 -144z
m173 11 c-4 -55 -6 -110 -5 -122 1 -21 -4 -23 -48 -23 -27 0 -55 -2 -63 -5
-19 -8 -37 45 -26 76 6 13 11 33 14 43 6 32 43 107 80 163 19 28 35 57 35 65
1 7 5 -12 10 -42 5 -30 6 -100 3 -155z m470 158 c-3 -27 -10 -60 -16 -74 -5
-15 -11 -62 -13 -105 -6 -110 -7 -114 -30 -115 -11 -1 -33 -2 -50 -3 l-30 -1
-3 64 c-2 50 1 68 15 85 10 11 24 32 31 45 42 73 51 90 66 119 24 46 37 40 30
-15z m-805 -78 c-2 -61 -3 -136 -2 -169 l2 -58 -37 6 c-20 3 -61 6 -89 6 -40
0 -53 4 -53 15 0 8 6 15 14 15 14 0 26 29 26 69 0 34 90 219 109 224 31 9 34
0 30 -108z m906 -42 c-23 -185 -19 -173 -65 -173 -22 0 -40 3 -40 8 0 4 5 45
10 91 8 67 14 90 34 110 13 14 34 46 46 71 13 25 25 39 27 33 3 -7 -3 -70 -12
-140z m-444 -23 c-2 -140 -9 -160 -56 -160 -22 0 -34 4 -30 10 3 6 1 10 -6 10
-8 0 -10 19 -7 64 3 57 9 73 48 129 25 36 47 63 49 61 2 -2 3 -53 2 -114z
m571 -177 c2 -32 -2 -57 -12 -63 -6 -4 -30 -2 -55 4 -36 8 -45 15 -45 32 0 17
9 23 43 31 61 15 67 15 69 -4z m-262 -38 c0 -24 0 -24 -107 -19 -140 6 -243
13 -268 18 -11 2 -48 4 -82 5 -35 0 -63 5 -63 10 0 5 111 9 260 9 l260 0 0
-23z m108 3 c-2 -19 -9 -23 -38 -22 -28 0 -36 5 -38 22 -3 20 1 22 38 22 37 0
41 -2 38 -22z m-1009 -115 c-66 -64 -136 -139 -156 -165 -46 -64 -56 -53 -13
14 18 29 62 101 98 161 l65 107 63 0 64 0 -121 -117z m268 98 c8 -4 -10 -25
-49 -56 -33 -28 -103 -95 -156 -150 -52 -55 -89 -89 -80 -75 8 14 45 77 83
140 88 149 99 160 150 153 22 -3 45 -8 52 -12z m32 -68 c-45 -81 -112 -193
-165 -274 -24 -38 -44 -71 -44 -74 0 -3 9 -5 21 -5 14 0 82 62 206 188 156
157 181 179 157 137 -15 -27 -33 -59 -39 -70 -28 -53 -89 -139 -139 -199 -55
-64 -71 -106 -41 -106 9 0 18 6 21 14 3 8 16 17 30 20 13 4 24 13 24 22 0 25
236 247 369 347 65 49 76 31 24 -38 -24 -32 -58 -86 -75 -120 -17 -33 -61
-106 -99 -163 -38 -57 -69 -108 -69 -113 0 -6 -3 -8 -8 -5 -4 2 -50 7 -102 11
-52 4 -102 8 -110 11 -41 11 -252 34 -312 34 -37 0 -68 3 -68 7 0 4 37 46 83
93 45 48 109 116 142 151 88 92 199 189 218 189 5 0 -6 -26 -24 -57z m181 47
c0 -6 -66 -77 -146 -158 -93 -94 -139 -134 -127 -112 11 19 50 90 88 158 l69
122 58 0 c33 0 58 -4 58 -10z m158 -10 c24 0 42 -4 40 -9 -3 -11 -170 -158
-238 -211 -25 -19 -40 -28 -34 -20 7 8 35 60 64 115 64 121 78 138 105 131 11
-3 40 -6 63 -6z m262 -16 c0 -8 -192 -193 -213 -205 -17 -9 -17 -8 -4 24 21
49 65 117 100 155 26 26 38 32 74 32 24 0 43 -3 43 -6z m167 -2 c9 -6 -24 -47
-108 -135 -129 -136 -177 -176 -136 -113 12 19 51 80 87 136 36 56 74 106 85
111 26 10 57 11 72 1z m-2277 -57 c27 -14 66 -25 87 -25 21 0 56 -9 78 -19 40
-17 40 -18 13 -24 -15 -4 -56 -21 -91 -37 -36 -17 -68 -30 -72 -30 -3 0 -27
-14 -52 -31 l-46 -32 9 39 c5 21 8 72 7 112 0 39 3 72 8 72 5 0 32 -11 59 -25z
m2101 -22 c-15 -27 -55 -91 -87 -143 -33 -52 -75 -121 -94 -152 -19 -32 -40
-58 -46 -58 -7 0 -14 -7 -18 -15 -4 -11 -21 -15 -61 -15 -30 0 -55 3 -55 8 2
33 103 157 205 250 22 20 71 67 110 104 38 37 71 68 72 68 1 0 -10 -21 -26
-47z m-857 -10 c-59 -102 -98 -160 -133 -198 -21 -22 -48 -55 -60 -72 -23 -34
-48 -40 -98 -27 -29 8 -29 18 3 60 19 24 32 33 44 29 13 -4 29 8 56 42 47 60
196 213 207 213 4 0 -4 -21 -19 -47z m-313 -327 c19 -7 90 -17 159 -21 69 -3
175 -13 235 -21 61 -7 202 -19 315 -25 113 -6 213 -15 223 -20 10 -5 23 -6 30
-2 15 9 343 4 370 -6 28 -11 -35 -18 -223 -26 -74 -3 -202 -10 -285 -15 -197
-13 -840 -24 -897 -16 l-44 7 -3 79 -2 80 44 0 c25 0 60 -6 78 -14z"/>
<path d="M210 1194 c-23 -37 -23 -35 -1 -168 5 -27 4 -65 0 -85 -12 -49 -11
-121 1 -121 5 0 57 36 116 80 112 85 117 87 276 110 81 12 118 27 111 47 -4
11 3 12 35 7 51 -8 92 2 92 21 0 12 -14 15 -62 16 -120 1 -187 9 -260 29 -40
11 -85 20 -100 20 -40 0 -158 49 -158 66 0 26 -28 14 -50 -22z m107 -75 c15
-6 69 -18 118 -26 50 -7 126 -20 170 -27 l80 -13 -95 -2 c-106 -1 -213 -28
-218 -54 -3 -15 -110 -93 -117 -85 -2 1 0 22 4 45 5 23 6 71 3 107 -4 72 0 77
55 55z"/>
</g>
</svg>
