<?xml version="1.0" standalone="no"?>
<!DOCTYPE svg PUBLIC "-//W3C//DTD SVG 20010904//EN"
 "http://www.w3.org/TR/2001/REC-SVG-20010904/DTD/svg10.dtd">
<svg version="1.0" xmlns="http://www.w3.org/2000/svg"
 width="137.000000pt" height="148.000000pt" viewBox="0 0 137.000000 148.000000"
 preserveAspectRatio="xMidYMid meet">
<metadata>
Created by potrace 1.16, written by Peter Selinger 2001-2019
</metadata>
<g transform="translate(0.000000,148.000000) scale(0.100000,-0.100000)"
fill="#000000" stroke="none">
<path d="M371 1346 c-6 -25 -11 -55 -11 -67 0 -12 -8 -46 -17 -76 -20 -63 -10
-85 29 -65 38 18 241 62 290 62 25 0 97 9 160 19 62 10 154 22 203 26 50 4
114 11 144 16 58 9 91 -2 72 -25 -10 -12 -89 -223 -98 -263 -5 -22 -8 -23
-147 -22 -138 1 -464 -16 -518 -27 -16 -3 -28 -10 -28 -15 0 -6 58 -8 153 -4
83 3 234 7 334 10 l183 4 -13 -32 -14 -32 -99 -2 c-137 -2 -500 -30 -515 -38
-15 -10 10 -26 31 -21 19 5 183 14 403 22 l168 6 -17 -34 c-20 -40 -33 -49
-53 -38 -25 12 -427 5 -498 -10 -35 -7 -63 -16 -63 -20 0 -7 529 -3 563 4 22
5 22 -6 0 -32 -15 -17 -33 -21 -108 -25 -173 -9 -370 -29 -380 -39 -11 -11
333 -4 414 8 l44 7 -7 -29 c-4 -16 -10 -32 -14 -36 -4 -3 -74 -9 -157 -13
-172 -7 -225 -13 -225 -26 0 -10 33 -12 218 -9 72 1 132 -1 132 -5 0 -3 -7
-19 -15 -35 -14 -26 -20 -29 -92 -34 -43 -4 -103 -8 -135 -11 l-56 -4 -44 52
c-24 28 -56 71 -71 94 -15 24 -34 43 -42 43 -23 0 -127 -55 -164 -86 -23 -19
-31 -33 -27 -47 6 -23 -6 -34 -121 -113 -65 -44 -91 -57 -123 -58 -38 -1 -40
-2 -39 -31 0 -21 2 -25 7 -13 6 14 14 12 62 -20 51 -34 55 -40 55 -76 0 -22 5
-41 11 -43 11 -4 74 79 74 97 0 7 48 88 110 183 23 34 28 38 60 34 54 -7 168
-65 250 -127 41 -32 90 -65 108 -75 21 -10 32 -22 28 -30 -3 -8 -1 -17 5 -21
5 -3 72 -8 147 -11 75 -3 150 -6 166 -6 38 -2 43 16 10 33 -34 19 -34 14 51
390 13 58 26 130 28 160 3 30 9 67 15 81 9 22 28 113 47 225 2 17 16 57 30 89
14 32 23 65 20 73 -3 8 0 21 6 29 9 11 8 17 -7 28 -15 11 -34 13 -84 7 -79 -9
-269 -7 -405 3 -55 4 -131 8 -170 9 -133 5 -205 28 -205 66 0 6 -8 10 -19 10
-14 0 -22 -12 -30 -44z m322 -71 c81 -4 147 -11 147 -15 0 -4 -35 -10 -77 -14
-43 -4 -90 -9 -104 -11 -45 -5 -213 -26 -234 -28 -17 -2 -19 3 -16 48 1 27 5
53 7 56 2 4 32 -1 67 -11 38 -11 123 -21 210 -25z m484 -361 c-11 -49 -17 -60
-36 -62 -21 -3 -22 -2 -10 20 7 13 14 25 14 28 1 13 40 87 43 81 1 -4 -4 -34
-11 -67z m-22 -104 c-1 -14 -25 -114 -46 -190 -48 -169 -76 -281 -86 -337 -6
-38 -21 -41 -115 -22 l-56 11 28 42 c15 22 34 58 41 80 9 24 23 42 38 47 18 8
21 12 11 23 -18 23 13 74 47 78 32 4 44 28 14 28 -12 0 -21 2 -21 4 0 8 71
179 90 216 14 28 27 40 38 38 9 -2 17 -10 17 -18z m-649 -291 c21 -29 55 -69
75 -90 20 -22 33 -39 28 -39 -4 0 -10 4 -13 9 -3 5 -53 28 -110 51 -57 23
-112 47 -122 54 -16 12 -14 16 22 39 58 38 75 35 120 -24z m-218 -76 c-9 -10
-17 -22 -19 -28 -2 -5 -26 -43 -52 -83 l-49 -72 -27 22 c-15 13 -29 26 -31 30
-3 4 22 25 55 47 33 22 76 54 95 70 39 34 51 40 28 14z m587 -35 c-10 -30 -42
-83 -60 -98 -13 -11 -25 -4 -73 41 -31 30 -58 57 -60 61 -3 6 28 9 161 16 35
2 38 0 32 -20z"/>
<path d="M865 1173 c-27 -2 -107 -8 -178 -14 -115 -10 -150 -20 -134 -36 8 -7
545 16 576 25 76 22 -58 34 -264 25z"/>
<path d="M1029 1056 c-2 -2 -65 -6 -139 -10 -74 -3 -155 -8 -180 -11 -191 -22
-242 -30 -247 -38 -4 -7 27 -8 88 -3 52 4 126 9 164 11 429 27 415 26 415 46
0 8 -92 14 -101 5z"/>
</g>
</svg>
