<?xml version="1.0" standalone="no"?>
<!DOCTYPE svg PUBLIC "-//W3C//DTD SVG 20010904//EN"
 "http://www.w3.org/TR/2001/REC-SVG-20010904/DTD/svg10.dtd">
<svg version="1.0" xmlns="http://www.w3.org/2000/svg"
 width="225.000000pt" height="126.000000pt" viewBox="0 0 225.000000 126.000000"
 preserveAspectRatio="xMidYMid meet">
<metadata>
Created by potrace 1.16, written by Peter Selinger 2001-2019
</metadata>
<g transform="translate(0.000000,126.000000) scale(0.100000,-0.100000)"
fill="#000000" stroke="none">
<path d="M1770 1030 c-14 -4 -65 -9 -115 -9 -49 -1 -153 -8 -230 -17 -77 -8
-199 -15 -272 -14 -126 1 -173 -7 -173 -30 0 -15 41 -33 52 -22 6 6 27 6 56 0
50 -9 264 -3 372 11 36 5 110 9 165 10 55 1 118 6 139 11 22 5 44 7 48 4 4 -3
8 -36 8 -74 0 -55 -3 -69 -17 -74 -16 -6 -102 -19 -208 -31 -22 -2 -74 -9
-115 -15 -41 -6 -145 -15 -230 -20 -179 -11 -200 -15 -200 -36 0 -14 17 -15
148 -9 81 3 192 13 247 21 199 30 221 33 299 36 l78 3 4 -83 c2 -46 0 -81 -5
-78 -4 3 -55 -3 -112 -13 -57 -11 -149 -24 -204 -31 -55 -6 -136 -15 -180 -20
-44 -5 -106 -6 -138 -1 -62 8 -67 7 -67 -21 0 -20 6 -21 115 -19 126 3 215 12
345 36 41 7 114 16 162 20 l87 6 0 -100 0 -99 -52 -5 c-29 -3 -74 -10 -102
-16 -27 -5 -88 -10 -135 -10 -47 -1 -121 -5 -165 -11 -69 -9 -287 -20 -464
-24 -55 -1 -55 -1 -99 54 -24 30 -51 64 -60 75 -9 11 -29 38 -44 60 -15 22
-40 58 -57 80 -75 100 -142 206 -136 215 3 5 -1 10 -10 10 -8 0 -19 10 -24 23
-15 39 -70 121 -98 145 -58 50 -63 -8 -10 -119 29 -62 109 -172 210 -289 12
-14 61 -74 110 -135 49 -60 95 -114 103 -120 7 -5 18 -22 23 -36 8 -22 17 -27
48 -29 76 -5 120 -3 248 9 72 7 164 15 205 17 41 3 116 12 165 19 87 14 344
13 367 -1 5 -3 15 -1 23 6 11 9 13 64 10 317 -2 168 -6 307 -8 310 -2 2 0 24
4 50 6 31 5 50 -2 60 -12 14 -69 16 -109 3z"/>
</g>
</svg>
