<?xml version="1.0" standalone="no"?>
<!DOCTYPE svg PUBLIC "-//W3C//DTD SVG 20010904//EN"
 "http://www.w3.org/TR/2001/REC-SVG-20010904/DTD/svg10.dtd">
<svg version="1.0" xmlns="http://www.w3.org/2000/svg"
 width="224.000000pt" height="126.000000pt" viewBox="0 0 224.000000 126.000000"
 preserveAspectRatio="xMidYMid meet">
<metadata>
Created by potrace 1.16, written by Peter Selinger 2001-2019
</metadata>
<g transform="translate(0.000000,126.000000) scale(0.100000,-0.100000)"
fill="#000000" stroke="none">
<path d="M1057 1152 c-18 -19 -23 -37 -9 -28 7 4 7 -122 0 -129 -2 -2 -20 12
-41 32 l-38 34 22 20 c37 32 15 31 -27 -1 -21 -16 -47 -30 -56 -30 -9 0 -42
-22 -72 -48 -77 -68 -164 -119 -222 -132 -61 -14 -130 -11 -166 7 -15 7 -37
13 -49 13 -13 0 -51 18 -86 41 -34 23 -69 39 -77 36 -15 -6 -29 -98 -25 -163
1 -22 -3 -64 -9 -94 -28 -136 -26 -186 7 -177 16 4 17 -1 8 -52 -6 -31 -11
-74 -11 -96 -1 -35 2 -40 19 -37 11 2 27 11 35 21 33 40 181 132 213 133 79 2
99 -2 93 -18 -3 -8 -2 -12 4 -9 21 13 203 -65 298 -127 24 -15 49 -28 56 -28
7 0 24 -8 37 -17 64 -47 68 -47 88 0 11 24 32 71 47 103 15 32 27 67 27 77 -1
9 2 15 7 12 5 -3 11 3 15 12 6 19 53 58 61 50 2 -2 0 -27 -6 -55 -26 -118 7
-154 65 -72 26 38 38 46 68 48 21 2 35 6 33 10 -5 9 13 11 104 12 36 0 66 -4
68 -10 2 -6 11 -6 24 1 28 15 32 6 14 -30 -9 -17 -17 -34 -18 -38 -4 -22 -55
-93 -66 -93 -7 0 -27 6 -45 13 -18 8 -39 12 -47 10 -35 -10 -60 -28 -60 -43 0
-13 12 -17 67 -18 37 -1 82 -7 100 -14 26 -9 36 -9 45 0 10 10 10 14 0 21 -11
6 -7 26 19 92 37 95 47 107 89 104 16 -1 52 -2 80 -3 46 -2 52 -5 76 -42 32
-49 54 -54 25 -6 -21 34 -21 34 -1 29 11 -3 20 0 20 6 0 15 77 14 86 -1 5 -7
9 -26 9 -43 1 -16 3 -45 3 -62 1 -22 7 -33 17 -33 8 0 15 6 15 13 1 60 12 256
15 272 2 11 47 64 100 117 53 53 91 99 86 102 -5 4 -36 2 -67 -3 -32 -4 -69
-5 -83 -2 -14 4 -64 7 -111 6 -123 -3 -126 -1 -89 59 39 63 15 55 -35 -12 -36
-48 -42 -52 -80 -52 -50 0 -60 6 -73 45 -15 44 -9 90 16 121 12 15 18 31 13
36 -18 18 -212 -80 -212 -107 0 -7 7 -18 15 -25 8 -7 15 -18 15 -25 0 -8 6
-15 13 -18 6 -2 9 -7 6 -11 -6 -6 -118 16 -162 33 -12 5 -40 14 -62 21 -22 7
-47 21 -56 33 -21 26 -46 17 -55 -20 -12 -58 -14 -60 -36 -30 -11 15 -25 27
-32 27 -19 0 -59 47 -47 54 10 6 15 34 26 144 6 57 -7 68 -38 34z m-73 -163
c9 -16 54 -61 99 -101 94 -82 97 -85 97 -114 0 -32 27 -37 54 -11 12 12 41 35
65 50 39 26 49 28 100 23 31 -4 73 -8 94 -9 29 -2 46 -11 70 -37 54 -60 97
-118 97 -133 0 -8 -17 -37 -37 -66 l-38 -51 -115 4 c-90 2 -125 8 -162 24 -52
23 -57 35 -31 64 13 14 13 18 2 18 -18 -1 -37 -16 -130 -102 -106 -100 -175
-158 -188 -158 -13 0 -14 114 -2 177 8 44 71 135 125 184 45 41 31 58 -45 54
-40 -3 -71 1 -89 10 -25 13 -29 12 -45 -5 -10 -11 -14 -26 -10 -39 3 -11 8
-55 11 -98 6 -93 6 -93 4 -118 -1 -11 0 -55 1 -97 1 -43 0 -79 -2 -80 -2 -1
-24 10 -49 24 -25 15 -57 30 -72 33 -29 7 -36 19 -18 30 7 4 6 13 -1 27 -7 14
-10 52 -6 105 5 94 -6 107 -45 51 -12 -18 -43 -52 -68 -75 l-46 -42 -69 9
c-39 5 -114 9 -167 10 -54 0 -98 4 -98 8 0 10 94 80 123 91 50 19 94 29 132
30 55 1 116 11 140 24 11 6 27 11 35 12 11 0 14 9 13 31 -3 32 59 184 74 184
5 0 26 16 48 36 44 41 90 64 115 57 9 -2 24 -18 34 -34z m629 -42 c-3 -13 2
-40 11 -60 l15 -37 -44 0 c-39 0 -46 4 -60 30 -21 40 -20 45 18 68 45 28 65
28 60 -1z m-1303 -62 c7 -8 20 -15 29 -15 10 0 25 -6 36 -13 17 -13 16 -15
-11 -29 -16 -8 -46 -25 -66 -37 l-38 -23 0 44 c0 81 20 109 50 73z m398 -43
c-12 -29 -25 -52 -28 -52 -4 0 -17 11 -29 24 l-23 25 40 20 c22 11 44 26 47
32 17 27 13 -2 -7 -49z m595 28 c8 -7 -51 -50 -71 -50 -11 0 -21 39 -14 59 5
14 69 7 85 -9z m-683 -85 c24 -24 42 -46 39 -48 -32 -29 -204 -40 -264 -17
-14 5 -39 10 -55 10 -49 0 -43 17 22 58 59 38 68 41 138 41 l76 1 44 -45z
m1042 -6 c9 -20 20 -48 24 -63 8 -35 -13 -27 -43 17 -12 17 -32 45 -44 60
l-22 28 34 -3 c28 -2 37 -10 51 -39z m313 29 c2 -2 0 -23 -4 -48 -4 -25 -4
-56 -1 -70 4 -14 3 -33 -2 -43 -5 -10 -10 -39 -12 -65 l-2 -47 -69 -5 c-68 -5
-68 -5 -96 30 -16 19 -29 39 -29 45 0 6 -9 21 -20 33 -12 12 -16 22 -10 22 6
0 8 4 5 10 -3 5 12 41 35 80 l41 70 81 -5 c44 -2 82 -6 83 -7z m-229 -25 c-32
-58 -33 -59 -50 -18 -9 20 -16 39 -16 41 0 2 18 4 40 4 l41 0 -15 -27z m353 0
c-8 -10 -16 -20 -19 -23 -3 -3 -18 -23 -35 -44 l-29 -40 -11 27 c-6 15 -9 43
-7 62 l4 35 55 0 c51 0 54 -1 42 -17z m-1069 -28 c0 -6 -16 -35 -37 -65 -31
-47 -37 -52 -44 -35 -4 11 -8 40 -8 65 l-1 46 45 -1 c25 0 45 -5 45 -10z
m-687 -61 c33 -7 34 -15 3 -34 -13 -8 -42 -28 -64 -43 -23 -16 -45 -26 -51
-23 -10 7 -6 90 5 108 6 9 30 7 107 -8z m1417 -161 c0 -11 -12 -13 -57 -7 -32
3 -59 7 -60 8 -1 0 10 21 25 45 l26 44 33 -38 c18 -21 33 -45 33 -52z m-1040
37 l0 -40 -42 0 -42 0 39 40 c21 22 40 40 42 40 2 0 3 -18 3 -40z m910 -10
c-12 -16 -24 -30 -26 -30 -7 0 5 20 24 43 24 27 25 20 2 -13z m-353 -74 c-18
-17 -38 -40 -45 -51 -11 -17 -12 -13 -7 33 9 81 11 84 50 65 l33 -16 -31 -31z
m-913 25 c29 -6 28 -7 -46 -58 -75 -52 -96 -57 -77 -21 5 10 8 22 6 26 -9 15
11 47 34 53 29 8 45 9 83 0z m375 -46 c-2 -1 -33 4 -69 13 l-65 16 54 8 c30 5
57 11 60 14 3 3 10 -7 14 -21 5 -14 7 -28 6 -30z m339 -36 c-6 -16 -20 -50
-32 -75 l-22 -45 -28 25 -27 26 53 50 c29 27 56 49 60 50 4 0 2 -14 -4 -31z"/>
<path d="M1862 388 c2 -6 10 -14 16 -16 7 -2 10 2 6 12 -7 18 -28 22 -22 4z"/>
</g>
</svg>
