<?xml version="1.0" standalone="no"?>
<!DOCTYPE svg PUBLIC "-//W3C//DTD SVG 20010904//EN"
 "http://www.w3.org/TR/2001/REC-SVG-20010904/DTD/svg10.dtd">
<svg version="1.0" xmlns="http://www.w3.org/2000/svg"
 width="264.000000pt" height="102.000000pt" viewBox="0 0 264.000000 102.000000"
 preserveAspectRatio="xMidYMid meet">
<metadata>
Created by potrace 1.16, written by Peter Selinger 2001-2019
</metadata>
<g transform="translate(0.000000,102.000000) scale(0.100000,-0.100000)"
fill="#000000" stroke="none">
<path d="M893 846 c-72 -76 -88 -102 -74 -120 9 -10 9 -16 1 -21 -6 -4 -13 -5
-15 -4 -8 9 -55 154 -55 171 0 35 -31 18 -100 -54 -66 -69 -84 -98 -60 -98 18
0 64 33 97 70 17 19 34 32 38 29 3 -4 17 -39 30 -78 20 -59 22 -75 13 -91 -19
-29 -35 -31 -51 -7 -36 52 -67 79 -83 73 -13 -5 -11 -12 15 -44 17 -22 37 -45
46 -52 25 -21 17 -30 -26 -30 -58 0 -75 13 -89 67 -6 26 -18 68 -26 93 -8 25
-15 65 -16 90 -3 37 -7 46 -23 48 -12 2 -32 -7 -45 -19 -14 -12 -35 -28 -48
-36 -12 -9 -22 -23 -22 -33 0 -10 -7 -20 -15 -24 -18 -7 -19 -20 -2 -38 40
-42 97 -123 88 -126 -5 -2 -36 2 -67 7 -142 27 -245 2 -258 -60 -3 -18 -2 -35
2 -38 26 -18 39 -140 22 -211 -17 -71 -2 -86 42 -43 69 65 178 118 266 129
l45 5 -38 -33 c-21 -18 -57 -49 -79 -69 -23 -20 -61 -48 -85 -63 -24 -15 -39
-31 -35 -35 5 -4 35 -13 67 -20 31 -7 57 -16 57 -21 0 -4 10 -10 23 -13 12 -2
30 -8 39 -12 25 -10 37 24 14 41 -15 10 -16 16 -5 36 14 27 135 185 148 192 5
3 16 -6 26 -20 16 -25 16 -26 -39 -99 -31 -41 -65 -79 -76 -85 -29 -16 -26
-42 4 -34 14 3 40 -3 67 -15 56 -27 89 -28 89 -1 0 11 -7 20 -15 20 -12 0 -10
10 10 50 14 28 30 50 35 50 5 0 17 -14 26 -32 15 -29 15 -32 0 -43 -13 -10
-23 -35 -13 -35 1 0 26 -9 55 -19 29 -11 54 -15 58 -10 3 5 16 9 29 9 31 0 38
12 21 36 -12 16 -11 24 5 57 11 21 24 35 29 32 18 -11 32 5 19 21 -6 8 -7 14
-2 14 5 0 19 -13 31 -29 l22 -30 -31 -25 c-36 -31 -33 -56 5 -49 14 3 33 -1
42 -8 9 -7 30 -13 47 -13 23 -1 35 -7 41 -23 8 -17 16 -20 42 -16 17 3 47 0
66 -6 39 -13 84 -2 104 25 10 12 20 12 63 3 62 -13 81 -8 74 20 -6 23 14 81
28 81 14 0 11 -11 -8 -32 -21 -24 -18 -26 48 -34 29 -3 56 -10 57 -15 9 -24
35 -4 56 45 29 66 50 83 41 33 -6 -33 -5 -34 18 -30 19 4 31 -4 56 -36 35 -45
51 -51 51 -23 0 11 9 27 20 37 11 10 20 27 20 38 0 16 5 18 27 12 39 -9 52
-23 46 -46 -5 -19 -3 -21 24 -15 21 5 34 2 43 -9 7 -8 19 -15 26 -15 17 0 19
26 3 36 -6 3 -8 16 -5 27 3 12 -1 25 -10 32 -9 6 -12 17 -8 28 8 23 54 22 96
-1 88 -49 132 -44 107 12 -20 44 1 53 54 22 25 -15 51 -33 57 -41 16 -20 30
-19 30 1 0 20 -14 34 -72 67 -27 15 -48 34 -48 41 0 18 41 116 49 116 10 -1
166 -153 188 -185 12 -16 25 -27 28 -23 19 19 -14 68 -101 153 -51 51 -94 99
-94 108 0 9 14 17 40 21 45 7 55 26 14 26 -26 0 -27 1 -21 45 7 46 45 131 78
174 23 29 24 41 4 41 -14 0 -136 -155 -165 -209 l-13 -25 -18 23 c-11 13 -19
31 -18 40 0 9 5 4 11 -11 17 -48 31 -33 25 25 -5 42 -3 59 14 86 11 18 18 40
15 48 -4 8 3 27 15 41 35 45 1 38 -47 -9 -41 -40 -44 -42 -42 -19 4 38 -33 33
-52 -6 -11 -24 -18 -29 -26 -20 -9 8 -7 17 9 33 11 13 18 26 15 29 -13 13 -49
-19 -80 -71 -18 -30 -36 -55 -39 -55 -12 0 -29 61 -29 100 0 35 -12 50 -39 50
-5 0 -21 -18 -36 -41 -16 -22 -42 -50 -58 -61 l-29 -21 12 24 c9 16 10 24 2
27 -6 2 -14 2 -16 0 -3 -2 -12 6 -19 17 -13 16 -19 17 -40 8 -14 -7 -28 -20
-31 -31 -4 -10 -18 -24 -32 -31 -20 -9 -24 -16 -18 -34 9 -31 10 -32 39 -13
33 22 32 8 -4 -31 -15 -17 -31 -39 -35 -48 -8 -22 -16 -14 -33 33 -17 48 -16
62 3 83 20 22 9 46 -12 28 -8 -6 -18 -9 -22 -5 -7 7 -8 12 -10 54 -3 30 -31
29 -57 -3 -11 -14 -31 -27 -44 -30 -14 -2 -39 -19 -57 -36 l-33 -32 -15 38
c-9 21 -16 52 -16 71 0 18 -4 35 -9 38 -16 10 -41 -5 -41 -25 0 -10 -13 -25
-28 -33 -37 -19 -53 -39 -54 -68 -2 -29 -46 -85 -53 -66 -25 70 -35 104 -35
124 0 46 -31 47 -93 3 -52 -37 -66 -57 -52 -71 3 -3 30 7 60 23 l54 28 21 -66
c24 -77 24 -87 6 -102 -11 -10 -21 -3 -52 34 -32 40 -36 49 -26 66 23 37 6 40
-38 7 -16 -12 -32 -19 -35 -17 -9 10 -25 113 -20 130 5 15 -19 39 -37 39 -2 0
-26 -24 -55 -54z m72 -91 c14 -53 15 -68 5 -80 -12 -14 -17 -13 -42 11 -33 33
-35 47 -8 76 11 12 20 30 20 40 0 32 7 19 25 -47z m408 -6 c14 -45 14 -47 -7
-74 l-23 -28 -22 36 c-25 41 -22 92 8 114 20 15 25 10 44 -48z m-863 -6 c12
-32 23 -65 25 -73 2 -8 8 -27 14 -42 19 -49 -10 -32 -71 43 -32 38 -58 75 -58
82 0 7 15 19 33 28 17 9 33 17 34 18 1 0 11 -25 23 -56z m1073 30 c5 -26 -13
-76 -32 -87 -5 -3 -14 8 -21 24 -7 17 -16 30 -21 30 -12 0 -11 -10 2 -50 10
-28 9 -38 -6 -66 -10 -19 -22 -34 -27 -34 -5 0 -20 24 -33 53 -21 47 -21 54
-7 70 8 9 21 17 27 17 7 0 32 16 56 34 24 19 47 35 50 35 4 1 9 -11 12 -26z
m392 -91 c-6 -23 -7 -23 -24 -7 -23 20 -35 5 -17 -21 10 -13 11 -23 4 -31 -16
-20 -46 -15 -59 8 -13 25 8 90 44 135 l21 27 18 -44 c11 -25 17 -54 13 -67z
m185 89 c0 -10 -7 -24 -15 -31 -8 -7 -15 -18 -15 -24 0 -6 -13 -30 -28 -53
-26 -39 -29 -41 -40 -23 -15 25 11 96 39 105 10 4 24 15 29 26 14 24 30 25 30
0z m-346 -59 c13 -24 12 -30 -6 -51 l-19 -25 -24 30 -23 29 20 28 c22 30 32
28 52 -11z m46 18 c0 -5 -4 -10 -10 -10 -5 0 -10 5 -10 10 0 6 5 10 10 10 6 0
10 -4 10 -10z m180 -20 c0 -5 -5 -10 -11 -10 -5 0 -7 5 -4 10 3 6 8 10 11 10
2 0 4 -4 4 -10z m-738 -44 l26 -43 -22 -19 c-13 -11 -33 -17 -51 -15 -32 3
-45 15 -45 44 0 21 39 77 54 77 6 0 23 -20 38 -44z m336 -63 c-13 -16 -33 -7
-53 23 -15 23 -14 27 1 54 l17 29 22 -47 c15 -31 19 -51 13 -59z m-732 62 c22
-29 24 -38 14 -51 -36 -43 -82 -37 -94 11 -5 20 -1 33 16 51 13 13 26 24 30
24 4 0 19 -16 34 -35z m184 -18 c28 -39 29 -43 13 -54 -31 -24 -49 -11 -67 49
-21 72 3 74 54 5z m1051 -10 c-6 -15 -17 -27 -26 -27 -12 0 -11 7 7 35 25 37
34 33 19 -8z m-715 -43 c-7 -19 -20 -17 -41 6 -17 19 -17 21 0 47 l19 28 13
-34 c8 -18 12 -40 9 -47z m344 14 c0 -5 -20 -8 -45 -8 -38 0 -43 3 -38 18 3 9
13 25 22 35 15 18 17 17 38 -10 13 -15 23 -31 23 -35z m240 38 c0 -8 -4 -17
-9 -21 -12 -7 -24 12 -16 25 9 15 25 12 25 -4z m282 -11 c-2 -14 -11 -25 -18
-25 -12 0 -11 5 2 25 9 14 17 25 19 25 1 0 0 -11 -3 -25z m-1284 -9 c3 -15 1
-16 -17 -5 -11 7 -17 17 -14 22 8 13 28 2 31 -17z m192 -28 c0 -12 -28 -9 -36
3 -3 6 0 15 7 20 13 7 28 -5 29 -23z m-397 7 c7 -18 -9 -29 -30 -21 -12 5 -13
9 -3 21 16 19 26 19 33 0z m761 0 c4 -11 -2 -15 -21 -15 -21 0 -24 2 -13 15 7
8 16 15 20 15 4 0 10 -7 14 -15z m-589 -5 c4 -6 -5 -10 -20 -10 -15 0 -24 4
-20 10 3 6 12 10 20 10 8 0 17 -4 20 -10z m-555 -50 c122 -16 126 -17 143 -43
l16 -24 -95 -17 c-96 -17 -153 -38 -213 -77 l-34 -23 5 48 c3 27 0 70 -8 99
-7 28 -11 53 -9 57 2 4 28 4 57 -1 29 -4 91 -12 138 -19z m770 -25 c11 -13 8
-15 -14 -16 -14 -1 -32 -2 -38 -3 -20 -3 -49 14 -43 25 10 15 81 11 95 -6z
m169 11 c-2 -1 -19 -8 -36 -14 -27 -9 -33 -8 -33 4 0 10 11 14 37 14 20 0 34
-2 32 -4z m726 -6 c11 -17 -5 -32 -21 -19 -7 6 -11 15 -8 20 7 12 21 11 29 -1z
m85 5 c0 -3 -12 -24 -26 -46 -19 -30 -29 -38 -37 -30 -17 17 17 81 43 81 11 0
20 -2 20 -5z m54 -80 c-23 -69 -34 -79 -63 -59 -26 19 -22 39 22 102 27 40 31
43 45 28 14 -14 14 -21 -4 -71z m-1442 51 c5 -7 -8 -13 -40 -16 -56 -6 -54 -7
-46 13 10 27 69 30 86 3z m45 18 c-3 -3 -12 -4 -19 -1 -8 3 -5 6 6 6 11 1 17
-2 13 -5z m203 -8 c-13 -12 -150 -32 -150 -22 0 2 -3 11 -6 20 -5 14 6 16 82
16 76 0 86 -2 74 -14z m912 -18 c-11 -11 -32 -3 -32 12 0 12 34 18 39 7 2 -5
-1 -13 -7 -19z m68 26 c0 -13 -42 -74 -51 -74 -5 0 0 18 11 40 18 35 40 53 40
34z m-182 -73 c-35 -53 -45 -60 -54 -36 -9 22 28 78 56 86 14 3 26 5 28 3 2
-1 -12 -25 -30 -53z m217 -14 c-15 -37 -27 -43 -44 -23 -9 11 -7 22 10 51 20
34 24 36 35 20 10 -13 10 -23 -1 -48z m-285 32 c-13 -23 -33 -21 -38 4 -3 12
4 17 23 17 23 0 25 -2 15 -21z m-215 1 c-3 -5 -10 -10 -16 -10 -5 0 -9 5 -9
10 0 6 7 10 16 10 8 0 12 -4 9 -10z m125 5 c0 -10 -53 -85 -60 -85 -4 0 -13 6
-19 14 -10 11 -9 21 4 45 12 24 22 31 45 31 17 0 30 -2 30 -5z m240 -40 c0 -5
-41 -97 -47 -104 -6 -8 -43 32 -43 47 0 8 11 35 25 58 25 43 26 43 45 24 11
-11 20 -22 20 -25z m-530 6 c0 -3 -4 -11 -8 -18 -8 -13 -20 -8 -39 18 -11 13
-9 15 17 11 17 -2 30 -7 30 -11z m-53 -38 c18 -16 16 -23 -17 -63 l-29 -35
-32 31 c-27 27 -30 36 -24 63 4 20 15 36 28 41 21 7 32 2 74 -37z m170 36 c9
-9 -14 -57 -53 -108 -7 -8 -34 22 -34 38 0 9 9 31 20 49 20 32 47 41 67 21z
m213 -73 c-24 -51 -31 -55 -59 -27 -19 19 -19 20 10 67 l30 47 21 -21 21 -20
-23 -46z m-565 64 c3 -5 -15 -38 -42 -72 -26 -34 -53 -69 -60 -78 -10 -13 -15
-11 -42 14 -36 34 -38 46 -14 84 35 57 44 62 99 62 29 0 56 -4 59 -10z m937
-47 c-12 -26 -18 -30 -24 -18 -12 20 20 84 32 65 5 -8 1 -27 -8 -47z m-1229
36 c14 -6 30 -22 36 -36 10 -21 6 -31 -29 -83 -22 -32 -44 -61 -48 -64 -12 -7
-25 5 -45 41 -18 33 -18 49 2 98 23 57 39 65 84 44z m97 2 c0 -13 -26 -32 -33
-24 -14 13 -6 33 13 33 11 0 20 -4 20 -9z m-240 -16 c-7 -8 -14 -15 -15 -15
-2 0 -5 7 -9 15 -4 10 1 15 16 15 17 0 18 -2 8 -15z m1224 -10 c-9 -14 -18
-25 -21 -25 -5 0 5 18 20 38 17 22 18 13 1 -13z m-1351 -9 c-10 -12 -44 -57
-77 -100 -32 -42 -64 -76 -70 -76 -6 1 -24 6 -39 13 l-28 12 38 39 c21 21 54
49 73 62 19 12 49 34 65 48 39 33 64 35 38 2z m1402 -80 c-14 -31 -30 -56 -33
-56 -4 0 -18 9 -31 19 l-24 18 23 39 c13 22 30 47 39 57 14 17 16 17 34 -1 19
-19 18 -20 -8 -76z m-1252 64 c-5 -19 -23 -29 -23 -12 0 7 20 32 26 32 1 0 0
-9 -3 -20z m219 -2 c-7 -7 -12 -8 -12 -2 0 14 12 26 19 19 2 -3 -1 -11 -7 -17z
m223 0 c-10 -33 -44 -89 -73 -120 -19 -21 -29 -25 -39 -17 -14 12 0 37 67 116
39 47 55 54 45 21z m586 -27 c-14 -32 -48 -68 -57 -59 -3 3 7 30 21 58 19 37
30 49 37 42 8 -8 7 -20 -1 -41z m407 -14 c-8 -16 -11 -16 -41 -1 -18 9 -33 17
-34 18 -2 1 4 12 13 24 l15 22 28 -22 c22 -18 26 -27 19 -41z m-581 41 c14
-18 -37 -102 -65 -106 -20 -3 -20 -1 8 57 30 62 40 70 57 49z m-239 -51 c-24
-48 -38 -59 -38 -30 0 17 49 87 56 80 3 -2 -6 -25 -18 -50z m-113 -75 c-58
-78 -95 -109 -95 -80 0 6 -7 19 -15 28 -14 16 -11 24 31 88 l46 71 30 -35 30
-34 -27 -38z m264 74 c-12 -26 -20 -31 -32 -19 -4 3 3 17 15 30 26 28 33 24
17 -11z m-131 -88 c-28 -40 -53 -75 -55 -77 -2 -2 -6 -2 -9 1 -3 3 16 47 41
98 44 88 47 91 61 72 14 -20 11 -27 -38 -94z m460 39 c-10 -33 -14 -36 -37
-30 -41 9 -45 19 -22 57 26 41 42 49 58 26 9 -13 9 -26 1 -53z m-1152 -12
c-22 -43 -34 -55 -52 -55 -15 0 -24 6 -24 15 0 8 5 15 10 15 6 0 10 5 10 11 0
6 14 29 31 51 23 29 35 36 43 28 8 -8 3 -26 -18 -65z m968 50 c16 -25 16 -28
-4 -60 -12 -19 -25 -35 -30 -35 -21 0 -40 14 -40 29 0 15 45 91 54 91 2 0 11
-11 20 -25z m-758 -54 c-29 -56 -40 -66 -60 -54 -12 7 -6 20 32 64 26 31 48
52 50 48 2 -4 -8 -30 -22 -58z m579 19 c3 -5 -4 -27 -15 -50 -16 -30 -26 -40
-45 -40 -14 0 -25 2 -25 4 0 11 62 96 70 96 5 0 12 -4 15 -10z m-185 -78 c-17
-35 -25 -42 -50 -42 -17 0 -30 3 -30 6 0 4 16 29 36 56 31 42 39 47 50 36 12
-12 11 -20 -6 -56z"/>
</g>
</svg>
