<?xml version="1.0" standalone="no"?>
<!DOCTYPE svg PUBLIC "-//W3C//DTD SVG 20010904//EN"
 "http://www.w3.org/TR/2001/REC-SVG-20010904/DTD/svg10.dtd">
<svg version="1.0" xmlns="http://www.w3.org/2000/svg"
 width="296.000000pt" height="174.000000pt" viewBox="0 0 296.000000 174.000000"
 preserveAspectRatio="xMidYMid meet">
<metadata>
Created by potrace 1.16, written by Peter Selinger 2001-2019
</metadata>
<g transform="translate(0.000000,174.000000) scale(0.100000,-0.100000)"
fill="#000000" stroke="none">
<path d="M994 1512 c-14 -47 -28 -67 -78 -115 -150 -143 -241 -223 -272 -240
-19 -9 -34 -22 -34 -27 0 -14 -176 -13 -242 1 -31 6 -69 24 -92 42 -37 28 -41
29 -65 16 -37 -21 -51 -55 -51 -127 0 -35 -4 -71 -9 -81 -5 -9 -13 -45 -17
-79 -5 -52 -4 -63 10 -68 12 -4 28 6 54 33 54 58 105 87 228 127 130 42 235
51 277 23 49 -32 64 -24 87 49 11 37 32 85 46 108 14 22 47 75 72 118 26 42
53 84 60 95 12 16 12 16 8 0 -3 -9 -3 -38 1 -63 5 -39 9 -45 27 -42 17 2 21
10 22 38 0 31 3 35 35 42 18 3 70 10 114 13 44 4 101 11 126 15 26 5 116 10
200 11 85 1 188 6 229 10 41 5 125 11 185 14 61 4 160 13 220 21 61 8 128 16
150 17 22 1 45 6 51 10 7 4 100 5 208 3 183 -3 233 3 170 18 -14 4 -78 7 -143
6 -206 -1 -774 8 -831 13 -30 3 -89 7 -130 7 -41 1 -104 6 -140 10 -36 5 -126
12 -200 15 -74 4 -148 10 -165 15 -16 4 -45 8 -62 8 -31 1 -34 -2 -49 -56z
m79 17 c11 -7 73 -13 136 -15 64 -2 179 -8 256 -15 77 -6 237 -16 355 -24 194
-11 205 -13 113 -15 -57 -2 -115 -4 -130 -6 -16 -1 -104 -7 -198 -13 -220 -14
-433 -30 -514 -37 l-64 -6 6 54 c4 29 7 61 7 71 0 20 4 21 33 6z m-228 -281
c-20 -35 -50 -91 -66 -125 -30 -65 -59 -84 -59 -38 0 14 -6 25 -13 25 -7 0
-18 5 -24 11 -8 8 2 24 40 58 28 25 72 65 97 88 25 24 49 43 53 43 5 0 -8 -28
-28 -62z m-585 -120 c30 -22 152 -58 200 -59 34 0 33 -1 -18 -19 -30 -10 -59
-23 -65 -29 -6 -6 -18 -11 -25 -11 -8 0 -46 -18 -84 -40 -39 -22 -71 -40 -72
-40 -1 0 1 24 5 53 4 28 8 80 8 115 1 67 0 67 51 30z"/>
<path d="M1722 1300 c-26 -34 -28 -50 -7 -50 12 0 14 -8 9 -42 -4 -24 -8 -83
-9 -133 -1 -49 -3 -96 -4 -104 -1 -11 -15 -12 -68 -7 -38 4 -116 11 -175 15
-74 6 -116 14 -134 26 -25 16 -27 16 -47 -3 -17 -18 -21 -37 -25 -132 -4 -100
-3 -110 13 -110 15 0 17 -6 11 -37 -19 -100 -19 -122 -2 -129 10 -4 26 1 39
13 15 14 42 22 82 26 l61 6 -3 -47 c-1 -26 -5 -68 -8 -93 -5 -42 -3 -47 17
-52 31 -9 36 -1 58 87 24 93 35 116 59 116 10 0 39 3 64 6 l45 7 -4 -44 c-3
-24 -14 -95 -26 -157 -14 -77 -18 -116 -11 -123 7 -7 34 -4 84 9 72 20 175 35
309 47 36 3 100 10 144 16 43 6 84 8 91 5 8 -3 15 -17 17 -33 2 -20 9 -28 23
-28 17 0 19 6 17 32 -3 31 -1 33 26 33 36 0 62 9 62 21 0 5 -9 9 -19 9 -11 0
-23 5 -26 11 -8 12 18 177 47 303 12 50 22 99 24 111 9 89 63 306 85 343 23
39 23 42 6 42 -16 0 -60 -87 -75 -150 -6 -25 -22 -101 -36 -170 -51 -245 -78
-280 -51 -64 8 65 15 179 17 292 1 53 5 72 15 72 7 0 16 6 18 13 4 8 29 13 71
14 61 1 84 7 73 18 -3 2 -92 0 -199 -4 -268 -12 -401 -7 -417 15 -9 13 -21 15
-55 10 -144 -20 -148 -20 -148 3 0 29 -12 26 -38 -9z m148 -45 c0 -15 -34 -55
-46 -55 -8 0 -13 -10 -13 -22 1 -24 -52 -187 -61 -188 -8 0 -1 207 9 251 0 3
17 6 37 7 20 1 39 4 42 7 7 7 32 7 32 0z m159 -11 c11 -10 -16 -22 -61 -28
-29 -4 -64 -10 -77 -13 l-25 -6 23 32 c23 31 24 32 80 25 31 -3 58 -8 60 -10z
m82 -6 c-24 -5 -47 -6 -52 -1 -5 5 14 9 44 10 l52 1 -44 -10z m259 -49 c7 -29
9 -66 5 -87 -6 -34 -11 -82 -31 -288 l-7 -71 -126 -5 c-69 -3 -133 -3 -143 1
-15 5 -14 14 10 87 l26 81 66 7 c36 3 88 6 117 6 47 0 74 12 59 27 -3 4 -53 5
-111 4 -120 -2 -116 -7 -84 90 23 71 30 86 68 146 21 34 33 42 61 46 81 9 77
11 90 -44z m-204 -56 c-24 -49 -49 -109 -56 -135 -11 -42 -15 -46 -47 -50
l-34 -4 7 65 c3 36 12 95 18 131 13 72 19 76 113 79 l42 1 -43 -87z m-136 32
c0 -44 -20 -173 -31 -202 -9 -23 -11 -23 -151 -8 -40 4 -68 12 -68 19 0 19 21
89 36 123 8 17 14 36 14 42 0 26 69 48 188 60 7 1 12 -12 12 -34z m-605 -210
c61 -8 118 -15 128 -15 9 0 17 -4 17 -10 0 -13 -75 -32 -113 -28 -18 2 -32 -2
-34 -9 -3 -7 4 -13 14 -14 10 0 -6 -9 -36 -20 -29 -10 -60 -24 -67 -30 -19
-15 -24 -9 -31 34 -4 30 3 107 10 107 1 0 52 -7 112 -15z m571 -49 c4 -3 -22
-143 -28 -152 -4 -6 -18 -10 -30 -9 -13 1 -64 3 -115 4 l-91 1 5 48 c7 74 27
110 66 115 26 3 189 -3 193 -7z m67 8 c12 -4 11 -15 -7 -67 -23 -66 -45 -111
-52 -105 -2 3 1 43 7 91 12 87 17 95 52 81z m-354 -56 c-2 -84 -10 -103 -47
-106 -42 -4 -42 17 -1 52 47 40 30 50 -71 43 -112 -8 -123 -13 -117 -46 10
-49 -2 -55 -82 -41 -43 7 -69 16 -65 22 9 15 105 58 130 58 11 0 42 11 70 25
41 20 110 38 172 44 8 1 12 -15 11 -51z m-99 -53 c0 -3 -7 -17 -16 -30 -12
-19 -25 -25 -50 -25 -29 0 -34 3 -34 23 0 13 3 27 7 30 8 8 93 9 93 2z m-182
-76 c44 -11 48 -14 44 -35 -5 -27 -19 -32 -100 -36 -49 -3 -52 -1 -52 20 0 34
18 62 40 62 10 0 41 -5 68 -11z m132 -14 c0 -20 -27 -48 -38 -41 -13 8 -16 39
-6 49 10 10 44 4 44 -8z m137 -1 c8 -22 -14 -34 -64 -34 -46 0 -48 2 -33 31
14 25 87 27 97 3z m228 -3 c-31 -13 -195 -24 -195 -14 0 20 16 23 114 22 62 0
93 -3 81 -8z m376 -13 c37 3 40 -26 16 -148 l-20 -100 -143 1 -142 2 3 91 c2
50 9 103 16 119 11 25 16 27 78 28 36 1 80 5 96 9 17 4 39 5 50 2 11 -3 32 -5
46 -4z m-336 -95 c-3 -43 -8 -93 -11 -110 l-5 -33 -107 0 c-123 0 -138 6 -128
46 4 16 9 55 12 88 2 33 7 62 9 64 4 5 135 18 203 21 l34 1 -7 -77z m-449 10
l-15 -28 -1 27 c0 14 6 28 13 31 19 7 20 1 3 -30z m337 -182 c102 -1 122 -14
40 -25 -27 -3 -80 -14 -120 -24 l-72 -18 -5 22 c-9 36 2 53 32 49 15 -2 71 -4
125 -4z m195 -8 c-10 -2 -28 -2 -40 0 -13 2 -5 4 17 4 22 1 32 -1 23 -4z"/>
<path d="M1145 1241 c-3 -6 -3 -16 0 -21 4 -6 -7 -26 -23 -45 -17 -18 -33 -44
-37 -56 -15 -47 -67 -119 -86 -119 -11 0 -31 -20 -52 -52 -19 -29 -68 -82
-111 -117 -57 -48 -75 -69 -71 -82 4 -12 -6 -31 -28 -55 l-34 -38 -124 1 c-68
1 -137 6 -152 12 -16 6 -59 11 -96 11 -44 0 -74 5 -87 15 -10 8 -27 15 -36 15
-10 0 -18 5 -18 11 0 6 -10 9 -22 7 -21 -3 -24 -10 -29 -78 -4 -41 -12 -102
-18 -134 -15 -82 0 -98 48 -52 57 53 302 127 420 125 l46 0 -40 -32 c-78 -63
-100 -88 -84 -97 8 -5 18 -5 22 -1 4 4 38 3 75 -4 37 -7 99 -18 137 -25 68
-11 166 -44 193 -64 8 -6 24 -10 35 -11 26 0 81 -31 115 -63 23 -22 24 -29 19
-90 -4 -37 -9 -88 -13 -114 -4 -26 -4 -55 0 -64 6 -15 12 -12 44 19 51 50 76
57 236 68 77 5 148 11 157 14 21 7 80 12 289 25 96 6 202 15 235 20 33 4 87
11 120 15 73 8 164 21 225 34 56 12 160 24 180 22 30 -4 154 0 159 5 3 2 0 9
-6 15 -13 13 -410 13 -491 0 -75 -12 -380 -6 -756 15 -157 9 -327 29 -334 41
-4 5 -19 13 -33 16 -15 4 -49 23 -77 42 -29 19 -56 35 -61 35 -5 0 -16 10 -24
22 -8 13 -36 46 -61 73 -48 53 -86 121 -86 155 0 24 2 24 61 6 47 -15 159 -72
269 -139 100 -61 247 -137 265 -137 31 0 13 17 -74 68 -49 28 -103 64 -120 78
-31 26 -65 90 -81 154 -4 19 -18 60 -29 90 -12 30 -21 63 -21 72 0 10 -7 32
-16 50 -15 32 -14 36 8 77 13 24 32 49 43 55 11 6 48 37 82 68 34 31 72 58 85
60 13 2 24 10 26 18 2 10 -18 22 -65 39 -38 13 -73 26 -79 28 -7 2 -15 0 -19
-6z m73 -47 c23 -7 22 -8 -19 -50 -52 -53 -68 -57 -40 -8 12 19 21 42 21 50 0
16 5 17 38 8z m-247 -322 c0 -15 11 -67 23 -117 13 -49 22 -91 21 -93 -6 -7
-102 54 -138 89 l-40 38 59 58 c32 32 62 57 67 55 4 -2 7 -15 8 -30z m87 -47
c-3 -3 -9 2 -12 12 -6 14 -5 15 5 6 7 -7 10 -15 7 -18z m-768 -177 c22 0 40
-5 40 -10 0 -5 12 -7 28 -4 15 4 45 0 67 -8 24 -9 32 -15 20 -15 -21 -1 -184
-57 -247 -84 l-36 -16 14 52 c8 28 14 66 14 84 l0 31 30 -14 c16 -9 48 -15 70
-16z m563 -165 c51 -53 55 -63 15 -42 -25 13 -119 34 -203 44 -33 4 -63 9 -67
11 -4 3 24 32 63 66 39 33 73 67 76 76 4 10 16 -4 36 -44 16 -32 52 -83 80
-111z m432 -218 c44 -3 94 -8 110 -10 17 -2 118 -6 225 -10 107 -4 260 -10
339 -14 79 -4 166 -4 195 1 28 4 101 10 161 13 87 3 102 2 70 -6 -69 -17 -373
-50 -545 -59 -91 -5 -194 -13 -230 -19 -36 -6 -139 -15 -230 -20 -101 -6 -182
-16 -209 -25 -40 -15 -43 -15 -36 2 4 9 10 50 12 89 6 72 6 73 32 68 14 -2 62
-7 106 -10z"/>
</g>
</svg>
