<?xml version="1.0" standalone="no"?>
<!DOCTYPE svg PUBLIC "-//W3C//DTD SVG 20010904//EN"
 "http://www.w3.org/TR/2001/REC-SVG-20010904/DTD/svg10.dtd">
<svg version="1.0" xmlns="http://www.w3.org/2000/svg"
 width="300.000000pt" height="136.000000pt" viewBox="0 0 300.000000 136.000000"
 preserveAspectRatio="xMidYMid meet">
<metadata>
Created by potrace 1.16, written by Peter Selinger 2001-2019
</metadata>
<g transform="translate(0.000000,136.000000) scale(0.100000,-0.100000)"
fill="#000000" stroke="none">
<path d="M1095 1269 c-2 -8 -6 -39 -8 -69 -4 -47 -8 -56 -29 -65 -14 -5 -57
-40 -95 -76 -64 -60 -118 -96 -225 -151 -42 -20 -47 -32 -20 -47 16 -9 16 -10
-2 -17 -24 -9 -339 12 -391 26 -22 6 -64 18 -94 27 -45 12 -55 13 -62 1 -8
-13 -2 -115 8 -131 3 -4 0 -13 -5 -20 -6 -7 -12 -36 -13 -66 -3 -42 0 -56 13
-64 13 -9 27 -2 70 34 122 103 232 153 318 144 32 -3 85 0 128 9 40 8 75 10
78 5 11 -19 63 -9 75 14 7 12 40 56 73 97 34 41 61 82 61 91 0 16 68 79 85 79
14 0 19 -43 9 -63 -14 -24 3 -46 23 -30 7 6 36 11 63 11 49 2 183 22 276 43
25 5 100 16 165 24 65 8 148 19 184 26 36 6 180 13 320 15 422 7 591 18 683
44 38 11 38 12 22 31 -16 17 -32 19 -170 17 -84 0 -158 2 -164 7 -7 4 -140 2
-294 -5 -304 -12 -506 -5 -652 24 -44 9 -136 19 -205 21 -122 5 -177 11 -206
22 -7 3 -16 -1 -19 -8z m192 -95 c-3 -3 -12 -4 -19 -1 -8 3 -5 6 6 6 11 1 17
-2 13 -5z m-49 -25 c28 1 58 -1 65 -6 6 -4 79 -6 161 -5 136 3 147 2 133 -13
-12 -11 -42 -17 -119 -20 -161 -6 -291 -21 -362 -42 -16 -4 -17 -1 -11 29 13
58 23 71 53 62 15 -4 51 -6 80 -5z m-355 -218 c-3 -11 -21 -38 -40 -61 l-36
-41 -23 22 c-29 27 -24 34 50 73 59 31 55 31 49 7z m-618 -100 c22 -6 60 -14
85 -19 l45 -8 -85 -49 c-47 -28 -88 -51 -92 -53 -3 -2 -4 6 -1 18 3 12 -1 28
-11 39 -10 11 -14 25 -10 36 5 13 4 16 -4 11 -8 -4 -12 0 -12 12 0 24 10 33
29 28 9 -3 34 -9 56 -15z"/>
<path d="M1351 976 c-6 -7 -9 -20 -6 -28 4 -9 -1 -18 -11 -22 -13 -5 -15 -14
-10 -46 3 -22 -1 -93 -9 -158 -21 -156 -19 -339 3 -351 47 -26 142 60 260 235
10 16 11 3 6 -71 -4 -49 -8 -104 -9 -121 -1 -17 -5 -36 -9 -42 -9 -16 1 -32
21 -32 16 0 112 75 175 137 36 35 78 108 78 135 0 6 3 8 7 4 8 -8 6 -181 -3
-208 -7 -25 13 -58 37 -58 10 0 36 11 57 25 92 61 171 220 172 345 0 61 -58
178 -112 224 -36 31 -43 33 -70 24 -36 -13 -43 -29 -58 -143 -15 -111 -26
-134 -32 -69 -7 72 -77 177 -144 217 -7 4 -29 1 -48 -7 -43 -18 -50 -42 -44
-140 2 -39 1 -87 -2 -106 -6 -26 -8 -28 -9 -11 -2 41 -60 152 -99 189 -42 39
-111 92 -122 92 -4 0 -13 -6 -19 -14z m353 -93 c54 -55 80 -115 81 -193 1 -96
-33 -169 -108 -231 l-32 -26 0 116 c0 64 -2 157 -4 206 -3 90 5 165 18 165 4
0 25 -17 45 -37z m293 -38 c43 -69 47 -82 46 -145 -2 -83 -32 -168 -83 -237
-23 -29 -42 -53 -43 -53 -1 0 -2 107 -2 238 0 185 3 243 13 255 13 15 16 14
35 -11 12 -15 28 -36 34 -47z m-559 16 c19 -13 44 -48 63 -87 44 -92 37 -135
-41 -238 -53 -70 -86 -105 -100 -106 -7 0 -3 162 5 212 4 24 9 81 11 128 1 47
3 99 4 115 0 25 3 28 13 15 7 -9 27 -26 45 -39z"/>
<path d="M824 538 l-45 -42 -122 13 c-67 7 -133 14 -147 16 -14 2 -76 10 -137
19 -112 16 -151 18 -186 9 -16 -4 -18 -13 -14 -71 3 -36 2 -75 -3 -87 -9 -23
7 -66 26 -72 7 -2 19 3 28 12 20 21 143 71 209 86 29 6 112 14 184 16 109 4
132 2 128 -9 -3 -8 8 -21 27 -33 18 -10 67 -53 108 -95 41 -42 89 -86 107 -98
32 -22 63 -21 63 3 0 14 -39 86 -51 95 -27 21 -108 212 -109 258 0 32 -14 28
-66 -20z m-386 -44 c39 -4 72 -10 72 -15 0 -4 -24 -10 -52 -14 -29 -4 -93 -22
-142 -41 -48 -19 -90 -34 -92 -34 -6 0 -5 116 0 121 3 3 36 1 73 -3 37 -4 101
-10 141 -14z m432 -46 c0 -5 11 -32 25 -59 28 -56 22 -55 -55 14 -42 39 -43
51 -5 59 24 5 35 1 35 -14z"/>
<path d="M1071 293 c-14 -49 -14 -80 0 -88 5 -4 7 -19 4 -34 -10 -48 10 -54
120 -35 54 9 117 14 141 11 24 -2 65 0 91 5 27 6 84 11 128 13 165 5 371 16
403 21 18 3 86 0 151 -6 101 -10 125 -9 171 4 29 9 55 14 59 12 8 -5 294 -19
340 -17 18 1 39 -3 46 -9 15 -13 45 -3 45 15 0 28 -33 37 -170 45 -77 5 -144
11 -150 15 -6 3 -114 8 -241 11 -127 2 -249 9 -271 14 -22 6 -77 9 -121 7 -45
-2 -131 0 -192 4 -60 5 -195 11 -300 14 -154 4 -191 8 -198 20 -16 29 -45 17
-56 -22z m315 -43 c61 -5 196 -11 300 -12 104 0 205 -6 224 -12 31 -9 24 -11
-70 -17 -58 -4 -213 -10 -345 -14 -292 -8 -351 -11 -365 -20 -8 -5 -10 5 -8
31 l3 39 70 6 c39 3 72 6 75 7 3 1 55 -3 116 -8z"/>
</g>
</svg>
