<?xml version="1.0" standalone="no"?>
<!DOCTYPE svg PUBLIC "-//W3C//DTD SVG 20010904//EN"
 "http://www.w3.org/TR/2001/REC-SVG-20010904/DTD/svg10.dtd">
<svg version="1.0" xmlns="http://www.w3.org/2000/svg"
 width="196.000000pt" height="200.000000pt" viewBox="0 0 196.000000 200.000000"
 preserveAspectRatio="xMidYMid meet">
<metadata>
Created by potrace 1.16, written by Peter Selinger 2001-2019
</metadata>
<g transform="translate(0.000000,200.000000) scale(0.100000,-0.100000)"
fill="#000000" stroke="none">
<path d="M1689 1916 c-6 -6 -249 -25 -399 -31 -153 -6 -266 -13 -327 -21 -22
-3 -207 -5 -410 -4 -202 0 -378 1 -391 0 -31 0 -64 -19 -59 -33 3 -9 62 -12
213 -13 115 -1 218 -2 229 -2 19 -2 21 -7 17 -69 -3 -38 -10 -99 -16 -138
l-12 -70 -162 2 c-89 0 -162 -3 -162 -7 0 -20 67 -29 189 -24 123 5 129 4 134
-15 3 -12 1 -24 -4 -27 -5 -3 -5 -13 1 -23 5 -10 7 -20 5 -22 -7 -8 -27 -560
-20 -586 3 -13 38 -57 78 -97 40 -39 102 -105 139 -145 37 -40 72 -70 78 -66
5 3 10 1 10 -4 0 -6 -8 -11 -18 -11 -11 0 -27 -9 -37 -20 -15 -16 -16 -24 -6
-47 6 -16 17 -91 25 -167 10 -105 18 -143 30 -151 9 -7 16 -17 16 -24 0 -22
47 -28 204 -25 171 3 181 6 172 55 -3 14 0 31 6 37 8 8 8 15 -2 27 -7 9 -8 15
-2 15 16 0 33 61 35 127 1 35 6 59 12 57 6 -2 17 26 27 63 14 59 14 69 2 79
-13 10 -10 15 15 34 17 11 54 41 82 65 29 24 56 42 60 39 4 -2 10 0 14 6 4 6
10 8 15 5 7 -5 53 7 95 25 11 5 37 11 58 15 46 7 54 24 33 66 -18 36 -21 70
-6 85 6 6 6 21 -2 42 -11 28 -10 33 7 46 21 15 21 19 25 519 0 41 3 49 25 57
30 12 33 40 4 40 -20 0 -20 3 -15 146 3 80 9 156 12 170 5 21 -4 32 -17 20z
m-65 -71 c4 -14 5 -29 2 -33 -2 -4 1 -32 8 -62 9 -38 9 -69 3 -105 -6 -27 -11
-51 -12 -53 -3 -4 -196 -20 -325 -28 -63 -3 -117 -7 -120 -9 -3 -2 -140 -6
-304 -10 l-299 -6 7 58 c14 122 24 192 30 202 9 13 65 20 221 25 72 3 157 7
190 9 33 3 148 10 255 17 107 6 195 12 197 13 1 2 33 4 71 5 67 3 70 2 76 -23z
m38 -27 c3 -26 2 -45 -3 -42 -5 3 -9 26 -9 51 0 58 6 53 12 -9z m-37 -278 c14
-22 7 -276 -9 -340 -8 -36 -16 -99 -16 -140 0 -41 -6 -110 -12 -153 l-13 -78
-93 -72 c-52 -40 -119 -91 -150 -113 -32 -23 -67 -51 -79 -62 -14 -13 -23 -16
-26 -9 -3 9 -9 8 -21 -2 -16 -13 -17 3 -14 280 2 271 4 299 24 356 12 35 26
69 33 77 15 17 4 46 -18 46 -9 0 -33 -5 -54 -11 -34 -9 -37 -12 -30 -37 15
-51 6 -712 -9 -727 -2 -3 -63 -7 -135 -10 l-131 -6 3 198 c3 156 8 214 24 274
10 41 22 97 26 125 4 27 14 62 22 77 17 33 10 47 -23 47 -25 0 -31 -9 -14 -26
10 -10 -17 -124 -30 -124 -12 0 -20 113 -9 126 6 8 4 14 -7 18 -28 11 -36 -8
-24 -60 7 -29 9 -82 5 -129 -3 -44 -5 -132 -5 -195 2 -162 2 -168 -5 -237 -4
-35 -10 -65 -14 -68 -5 -2 -36 25 -69 61 -66 70 -76 94 -87 207 -4 37 -11 67
-15 67 -4 0 -19 -12 -34 -26 -21 -22 -29 -24 -41 -14 -12 10 -14 53 -10 288 5
270 10 348 24 356 3 2 141 8 306 11 165 4 302 9 305 10 3 2 64 7 135 11 72 3
132 8 134 10 10 9 150 3 156 -6z m-418 -285 c-12 -50 -21 -48 -31 5 -5 32 -4
36 18 38 22 1 23 0 13 -43z m-560 -501 c-2 -3 -18 8 -34 23 -30 28 -30 28 -9
44 20 16 21 15 34 -23 7 -22 11 -42 9 -44z m973 18 c0 -20 -78 -55 -109 -50
-16 2 -9 11 36 40 56 38 73 40 73 10z m-486 -273 c17 -15 -181 -44 -200 -29
-6 6 -14 6 -19 2 -4 -4 -6 2 -3 13 3 17 13 21 73 26 76 6 135 1 149 -12z m108
-29 c-2 -16 -8 -30 -13 -30 -10 0 -12 21 -3 44 10 27 21 18 16 -14z m-422 -54
c0 -29 2 -82 5 -117 4 -50 3 -57 -5 -35 -5 17 -12 58 -14 92 -3 35 -8 74 -12
88 -5 20 -2 26 10 26 13 0 16 -11 16 -54z m318 17 c2 -7 -8 -17 -23 -23 -30
-12 -208 -14 -219 -2 -11 10 139 40 193 38 26 0 46 -6 49 -13z m78 -58 c-4
-25 -11 -45 -16 -45 -6 0 -5 11 0 26 6 14 10 37 10 51 0 15 3 24 6 20 4 -3 3
-27 0 -52z m-68 -22 c5 -33 -30 -39 -226 -33 -8 0 -12 8 -10 18 3 14 21 19 93
28 123 15 139 13 143 -13z m58 -79 c3 -28 1 -35 -6 -24 -10 16 -14 78 -4 68 3
-3 7 -23 10 -44z m-56 4 c0 -3 -7 -13 -15 -21 -18 -19 -230 -24 -240 -6 -10
15 0 21 42 28 53 8 213 8 213 -1z m-1 -94 c-15 -19 -259 -19 -259 0 0 8 15 16
38 20 57 9 104 7 97 -4 -3 -6 1 -7 9 -4 9 3 16 10 16 14 0 5 19 10 43 12 47 3
75 -16 56 -38z m-322 14 c2 -17 0 -19 -7 -8 -5 8 -6 18 -4 22 8 12 10 10 11
-14z m323 -59 c0 -7 -11 -10 -30 -7 -16 3 -30 2 -30 -2 0 -3 -43 -6 -96 -7
-53 0 -92 3 -87 7 19 19 243 27 243 9z"/>
</g>
</svg>
