<?xml version="1.0" standalone="no"?>
<!DOCTYPE svg PUBLIC "-//W3C//DTD SVG 20010904//EN"
 "http://www.w3.org/TR/2001/REC-SVG-20010904/DTD/svg10.dtd">
<svg version="1.0" xmlns="http://www.w3.org/2000/svg"
 width="264.000000pt" height="154.000000pt" viewBox="0 0 264.000000 154.000000"
 preserveAspectRatio="xMidYMid meet">
<metadata>
Created by potrace 1.16, written by Peter Selinger 2001-2019
</metadata>
<g transform="translate(0.000000,154.000000) scale(0.100000,-0.100000)"
fill="#000000" stroke="none">
<path d="M1335 1399 c-83 -7 -161 -22 -230 -44 -53 -16 -180 -79 -205 -100
-18 -16 -378 -45 -478 -39 -95 7 -104 6 -115 -5 -34 -34 70 -45 268 -28 180
15 245 17 245 10 0 -4 -11 -21 -25 -37 -28 -32 -30 -42 -14 -52 6 -3 40 22 78
58 36 36 80 74 96 85 38 25 134 63 168 67 14 1 33 9 43 16 15 13 16 4 11 -130
-3 -80 -10 -167 -15 -195 -6 -31 -6 -51 0 -53 5 -2 3 -11 -4 -19 -10 -12 -14
-72 -15 -227 -2 -201 -12 -368 -22 -382 -5 -6 -109 19 -144 35 -26 12 -59 22
-74 23 -15 1 -42 13 -59 27 -17 14 -41 34 -53 43 -25 21 -27 38 -5 38 9 0 14
7 12 17 -2 13 -13 18 -35 18 -17 0 -40 8 -52 19 -22 20 -51 16 -51 -8 0 -19
-19 -23 -135 -30 -241 -15 -333 -31 -310 -55 8 -8 125 -2 200 9 33 6 107 13
165 16 l105 7 50 -52 c27 -28 55 -51 62 -51 7 0 13 -4 13 -9 0 -11 18 -18 89
-37 30 -8 60 -19 65 -23 21 -18 116 -28 237 -25 157 3 157 3 200 30 20 13 56
32 80 43 57 27 126 94 134 131 8 36 17 39 135 41 52 1 120 5 150 10 30 5 114
11 185 13 140 6 278 16 283 21 2 2 16 0 31 -5 47 -13 64 4 56 59 -4 25 -7 89
-5 141 2 120 3 96 -5 235 -4 66 -11 121 -15 123 -5 2 -6 11 -3 19 5 12 2 15
-10 10 -14 -5 -37 -10 -111 -22 -16 -2 -37 0 -47 5 -11 6 -20 6 -23 1 -8 -12
-329 -17 -524 -8 -31 2 -34 6 -67 82 -34 79 -88 145 -118 145 -8 0 -20 7 -27
15 -7 8 -27 15 -44 15 -18 0 -36 3 -41 8 -6 4 -41 5 -80 1z m99 -46 c16 -3 36
-12 45 -19 9 -8 35 -30 58 -50 42 -35 80 -116 74 -156 -1 -9 6 -21 16 -26 20
-10 226 -9 540 3 169 7 203 5 207 -6 17 -46 31 -475 17 -484 -7 -4 -117 -15
-291 -30 -30 -2 -144 -7 -252 -11 -153 -5 -201 -4 -213 6 -22 18 -42 -2 -50
-51 -9 -52 -43 -91 -117 -135 -84 -49 -132 -65 -210 -71 -57 -4 -68 -2 -76 14
-7 14 -8 532 -1 613 0 8 7 69 15 135 8 66 14 147 14 181 0 43 5 65 15 74 18
15 129 30 160 23 11 -3 33 -7 49 -10z"/>
<path d="M730 1089 c-25 -3 -76 -9 -115 -12 -38 -4 -92 -9 -120 -12 -27 -3
-99 -12 -159 -18 -70 -8 -111 -17 -114 -24 -5 -16 94 -18 148 -4 52 14 223 30
340 32 55 1 90 12 90 28 0 14 -22 18 -70 10z"/>
<path d="M585 915 c-55 -7 -142 -15 -192 -19 -140 -10 -183 -21 -183 -47 0
-13 50 -11 176 5 119 16 320 31 372 28 28 -2 32 1 32 23 0 24 -3 25 -52 24
-29 -1 -98 -7 -153 -14z"/>
<path d="M760 719 c-74 -15 -141 -21 -330 -25 -187 -4 -227 -11 -203 -35 10
-10 210 -13 298 -4 22 3 93 10 158 16 85 9 120 16 124 26 9 22 -9 31 -47 22z"/>
</g>
</svg>
