<?xml version="1.0" standalone="no"?>
<!DOCTYPE svg PUBLIC "-//W3C//DTD SVG 20010904//EN"
 "http://www.w3.org/TR/2001/REC-SVG-20010904/DTD/svg10.dtd">
<svg version="1.0" xmlns="http://www.w3.org/2000/svg"
 width="148.000000pt" height="136.000000pt" viewBox="0 0 148.000000 136.000000"
 preserveAspectRatio="xMidYMid meet">
<metadata>
Created by potrace 1.16, written by Peter Selinger 2001-2019
</metadata>
<g transform="translate(0.000000,136.000000) scale(0.100000,-0.100000)"
fill="#000000" stroke="none">
<path d="M1095 1314 c-22 -15 -58 -43 -80 -64 l-40 -37 -112 8 c-61 4 -122 13
-134 19 -13 7 -71 13 -136 14 -166 3 -156 21 -160 -297 -2 -142 -8 -266 -14
-285 -6 -18 -8 -58 -4 -90 3 -33 -1 -98 -10 -157 -8 -55 -15 -106 -15 -114 0
-10 -12 -12 -47 -8 -62 7 -100 24 -107 50 -7 30 -32 6 -30 -30 0 -15 2 -70 2
-120 2 -75 5 -93 17 -93 8 0 15 4 15 8 0 8 38 27 115 56 52 20 165 46 239 55
l59 8 46 -44 c84 -81 100 -76 265 82 112 107 106 102 178 145 34 21 58 42 58
52 0 10 -16 28 -36 42 -20 13 -54 48 -76 77 -22 29 -54 63 -72 75 -32 22 -106
103 -106 117 0 4 19 7 43 7 23 0 69 4 102 10 33 5 105 11 161 13 116 5 129 9
113 39 -6 12 -9 39 -6 61 6 44 -4 72 -37 100 -136 114 -140 121 -139 240 1 48
-2 87 -5 87 -4 0 -25 -12 -47 -26z m15 -78 c0 -40 -8 -66 -21 -66 -6 0 -21 7
-34 16 l-25 16 26 34 c34 44 54 44 54 0z m-465 -27 c3 -3 -6 -30 -19 -60 -14
-30 -28 -70 -31 -89 -7 -41 -39 -161 -59 -222 -8 -23 -17 -59 -20 -78 -3 -19
-9 -46 -12 -60 -3 -14 -12 -59 -21 -100 -19 -97 -32 -120 -34 -60 -2 79 1 134
10 165 5 16 9 130 9 253 1 123 3 231 6 240 5 14 19 17 85 17 44 -1 83 -3 86
-6z m85 -9 c10 -6 37 -11 60 -12 24 -1 37 -5 32 -10 -11 -11 -150 -33 -158
-25 -7 7 26 57 38 57 5 0 18 -5 28 -10z m199 -9 c12 -8 9 -19 -15 -65 -38 -73
-54 -73 -54 -1 0 48 3 57 23 65 28 11 29 11 46 1z m141 -57 c41 -26 91 -61
110 -78 20 -17 48 -40 62 -50 15 -11 25 -23 22 -28 -3 -4 -31 -15 -62 -24 -31
-8 -88 -27 -127 -42 -38 -14 -72 -27 -75 -27 -3 0 -36 -11 -73 -24 -49 -16
-67 -27 -63 -37 6 -16 -19 -19 -29 -4 -11 18 6 50 26 50 10 0 19 7 19 15 0 8
-9 15 -20 15 -11 0 -20 7 -20 15 0 8 6 15 13 15 7 0 21 24 31 53 36 106 85
196 106 197 3 0 39 -21 80 -46z m-264 -29 c30 -23 6 -30 -89 -27 -68 3 -85 6
-81 17 10 25 140 33 170 10z m14 -83 c0 -34 -19 -41 -104 -36 -105 7 -110 8
-96 34 10 18 21 20 105 20 85 0 95 -2 95 -18z m50 9 c0 -6 -4 -13 -10 -16 -5
-3 -10 1 -10 9 0 9 5 16 10 16 6 0 10 -4 10 -9z m-62 -100 c2 -12 -2 -21 -10
-21 -127 -3 -204 -1 -206 6 -2 5 -1 17 2 27 4 16 15 17 108 14 96 -4 103 -6
106 -26z m472 0 c0 -10 3 -32 6 -48 7 -38 -6 -44 -101 -49 -38 -1 -116 -5
-172 -8 -57 -3 -103 -4 -103 -1 0 2 15 8 33 14 17 5 97 32 177 60 80 28 148
51 153 51 4 0 7 -8 7 -19z m-486 -62 c2 -2 6 -13 8 -24 3 -19 -3 -20 -119 -22
-125 -2 -132 1 -113 37 8 16 22 18 115 15 58 -1 107 -4 109 -6z m-83 -79 c65
0 79 -3 79 -15 0 -14 -17 -16 -120 -13 -87 1 -120 5 -120 14 0 13 44 24 68 17
8 -1 49 -3 93 -3z m165 -13 c-17 -13 -14 -18 40 -70 33 -31 68 -63 79 -72 19
-14 18 -14 -10 -4 -16 6 -37 16 -45 23 -8 7 -37 21 -63 31 -54 21 -64 30 -47
50 6 8 9 19 5 25 -10 16 4 30 33 30 24 0 24 -1 8 -13z m-96 -67 c0 -11 -1 -20
-2 -21 -2 0 -58 -3 -125 -6 -124 -5 -130 -4 -117 31 5 13 26 16 125 16 112 0
119 -1 119 -20z m83 -53 c18 -8 38 -21 46 -30 7 -9 32 -22 55 -28 26 -7 56
-26 83 -55 23 -24 56 -49 72 -56 18 -8 28 -17 23 -24 -11 -15 -110 -74 -126
-74 -7 0 -21 -9 -30 -19 -22 -24 -170 -99 -213 -107 -32 -6 -42 3 -24 21 9 10
29 131 38 230 7 79 24 155 34 155 5 0 24 -6 42 -13z m-96 -14 c2 -6 0 -14 -5
-17 -7 -4 -147 -8 -224 -5 -20 0 -25 25 -6 31 27 9 232 1 235 -9z m-21 -60 c6
-2 9 -15 6 -28 -5 -26 -30 -35 -98 -34 -23 1 -68 -2 -102 -6 -59 -7 -61 -6
-57 15 12 63 7 61 128 58 62 -1 117 -3 123 -5z m3 -99 c2 -2 -2 -10 -9 -19
-10 -12 -36 -15 -126 -15 -63 0 -114 -4 -114 -9 0 -11 76 -21 162 -21 60 0 69
-2 64 -16 -3 -9 -6 -20 -6 -25 0 -6 -8 -8 -19 -4 -34 10 -202 8 -214 -4 -6 -6
-7 -11 -2 -11 78 -1 186 -9 206 -14 20 -6 28 -16 32 -39 2 -18 3 -34 1 -36 -1
-1 -27 0 -56 5 -29 4 -45 9 -35 12 20 4 23 18 5 25 -7 2 -51 5 -97 6 -71 2
-83 0 -78 -13 4 -10 1 -13 -9 -9 -24 9 -9 119 20 135 8 5 13 14 10 22 -7 19
16 34 61 38 45 3 198 -2 204 -8z m165 -206 c-16 -17 -36 -38 -44 -47 -8 -9
-30 -27 -48 -40 l-33 -23 -17 23 c-9 13 -17 28 -17 33 0 5 25 19 55 30 30 12
69 29 85 38 46 25 52 21 19 -14z m-572 -12 c43 -9 88 -11 132 -7 86 9 106 -4
30 -19 -113 -23 -169 -37 -208 -54 -21 -9 -42 -16 -47 -16 -5 0 -9 27 -9 61 0
54 2 60 19 54 10 -3 47 -12 83 -19z"/>
</g>
</svg>
