<?xml version="1.0" standalone="no"?>
<!DOCTYPE svg PUBLIC "-//W3C//DTD SVG 20010904//EN"
 "http://www.w3.org/TR/2001/REC-SVG-20010904/DTD/svg10.dtd">
<svg version="1.0" xmlns="http://www.w3.org/2000/svg"
 width="326.000000pt" height="110.000000pt" viewBox="0 0 326.000000 110.000000"
 preserveAspectRatio="xMidYMid meet">
<metadata>
Created by potrace 1.16, written by Peter Selinger 2001-2019
</metadata>
<g transform="translate(0.000000,110.000000) scale(0.100000,-0.100000)"
fill="#000000" stroke="none">
<path d="M980 1023 c0 -60 17 -109 35 -102 13 5 7 130 -7 146 -20 25 -28 12
-28 -44z"/>
<path d="M2250 963 c-47 -36 -97 -70 -112 -75 -32 -11 -47 -47 -26 -59 8 -5
26 -17 39 -28 19 -16 20 -20 8 -21 -19 0 -227 73 -337 118 -40 16 -80 28 -90
26 -9 -3 -35 4 -57 16 -21 11 -44 20 -50 20 -7 0 -33 14 -58 31 -63 41 -76 31
-75 -57 1 -39 -3 -69 -11 -77 -10 -9 -11 -8 -6 5 10 26 -11 30 -111 21 l-89
-8 4 -101 c3 -97 -2 -144 -17 -144 -9 0 -14 41 -13 123 1 88 -13 87 -99 -5
-55 -59 -63 -71 -53 -87 10 -16 3 -28 -43 -85 -43 -51 -52 -67 -40 -72 8 -3
20 -3 26 1 6 4 30 -4 53 -18 23 -13 53 -28 66 -32 61 -19 50 -30 -43 -42 -145
-19 -136 -22 -136 41 0 43 5 60 25 84 14 17 25 33 25 36 0 27 77 174 108 208
43 47 27 57 -85 51 -116 -6 -131 -9 -115 -25 7 -7 8 -16 2 -23 -6 -7 -6 -24 0
-46 10 -33 11 -193 2 -292 l-4 -47 -77 1 c-87 2 -128 18 -137 55 -8 31 11 100
48 179 15 33 28 66 28 72 0 21 88 212 110 241 20 24 20 27 4 39 -9 6 -28 10
-43 8 -14 -3 -53 -6 -86 -9 -43 -3 -63 -9 -75 -23 -8 -11 -21 -18 -27 -16 -7
3 -16 -10 -21 -29 l-8 -33 -130 3 c-132 3 -192 16 -268 55 -63 33 -71 21 -69
-109 7 -274 8 -285 23 -297 12 -9 14 -21 8 -52 -12 -70 -19 -249 -10 -264 16
-23 47 -3 97 60 69 87 118 109 251 109 97 0 102 -1 118 -25 9 -14 18 -58 22
-110 4 -47 11 -88 17 -92 5 -3 21 10 36 28 36 47 65 73 125 113 83 55 91 57
496 86 74 5 155 14 180 19 25 5 47 8 49 6 1 -2 5 -21 8 -42 6 -50 10 -63 22
-63 6 0 11 24 13 53 l3 52 52 3 52 3 3 -58 c4 -75 22 -71 26 6 l3 60 51 10
c28 6 53 9 56 6 3 -3 7 -41 10 -85 6 -110 26 -101 30 13 1 48 5 87 7 87 14 0
164 22 180 27 29 8 -37 -59 -81 -83 -24 -13 -34 -25 -32 -38 3 -21 2 -20 111
-70 67 -30 79 -33 84 -19 4 9 -1 19 -12 25 -45 26 -57 49 -53 99 4 39 11 53
38 76 29 25 106 50 118 39 2 -3 -24 -34 -58 -71 -34 -36 -60 -71 -57 -78 4
-15 127 -97 145 -97 17 0 15 25 -5 41 -39 33 -56 126 -27 150 8 7 21 24 29 39
12 24 24 28 112 44 54 10 137 26 184 37 105 23 130 23 220 3 l69 -16 0 -47 c0
-26 -5 -73 -11 -105 -12 -67 -4 -136 17 -136 16 0 23 28 21 82 -1 26 6 45 21
61 12 13 35 51 52 85 17 35 48 83 71 107 22 24 38 49 34 55 -3 5 -33 10 -66
10 -32 0 -59 4 -59 10 0 12 60 97 113 162 58 70 51 75 -93 71 -72 -1 -128 -7
-136 -14 -16 -13 -19 -46 -5 -51 12 -4 32 -154 23 -177 -9 -24 -19 -29 -106
-41 -74 -11 -88 -10 -161 10 -73 19 -118 31 -183 45 -45 11 -62 40 -62 108 0
59 2 66 39 107 37 42 46 69 17 53 -36 -21 -146 -135 -146 -151 0 -10 7 -27 15
-38 20 -27 19 -48 -2 -39 -10 4 -23 8 -29 8 -15 0 -18 117 -4 167 7 26 23 45
55 68 44 31 57 52 33 52 -7 0 -51 -30 -98 -67z m-638 -30 c24 -9 58 -26 76
-38 l32 -22 -61 -7 c-34 -3 -76 -6 -94 -6 l-32 0 10 45 c6 25 14 45 18 45 5 0
28 -8 51 -17z m-772 -13 c0 -8 -89 -241 -105 -276 -8 -17 -19 -42 -24 -55 -9
-21 -10 -18 -12 21 -2 60 1 83 13 98 7 8 7 16 -1 26 -7 8 -11 34 -9 58 3 37 6
43 28 46 27 4 50 19 50 33 0 5 -20 9 -45 9 -37 0 -45 3 -45 18 0 10 2 21 4 23
7 6 146 6 146 -1z m-495 -61 c35 -11 77 -17 92 -14 22 4 24 4 8 -3 -17 -8
-143 -57 -197 -78 -16 -5 -18 2 -18 71 l0 77 25 -16 c14 -9 55 -26 90 -37z
m1878 4 c-7 -48 -9 -50 -32 -29 -19 17 -19 20 -4 42 24 38 43 31 36 -13z m811
-15 c-5 -7 -29 -46 -56 -86 -52 -81 -51 -81 -62 26 -5 48 -3 54 17 62 35 14
110 12 101 -2z m-1171 -12 c36 -15 190 -67 343 -115 55 -18 152 -43 215 -55
164 -34 206 -46 189 -56 -19 -10 -143 -34 -285 -56 -60 -9 -153 -27 -205 -40
-99 -24 -190 -36 -190 -25 0 3 9 12 20 19 11 7 20 17 20 22 0 6 16 33 35 60
50 72 50 73 -33 70 -24 -1 -48 3 -55 8 -24 21 -279 12 -302 -10 -5 -5 -10 -19
-11 -31 0 -12 -1 -56 -2 -98 l-2 -77 -46 -7 c-25 -3 -54 -8 -65 -10 -10 -2
-56 -5 -101 -6 l-83 -2 2 87 c1 74 4 90 20 101 11 8 25 33 32 57 22 76 86 172
100 149 4 -6 52 -3 141 8 169 23 224 25 263 7z m-1208 -47 l0 -44 -95 -2 c-52
0 -135 -4 -185 -8 -82 -6 -88 -5 -69 9 31 22 125 56 157 56 16 0 38 5 49 11
21 12 114 28 133 24 6 -1 10 -21 10 -46z m704 14 c0 -16 -8 -46 -18 -68 l-18
-40 -7 50 c-4 28 -9 58 -12 68 -4 13 1 17 25 17 27 0 31 -3 30 -27z m-285 -24
c3 -3 -4 -26 -17 -50 -13 -24 -29 -63 -37 -86 -7 -24 -17 -43 -22 -43 -5 0 -8
37 -7 83 2 46 0 88 -4 94 -7 11 76 13 87 2z m-773 -94 l31 -7 -30 -18 c-16
-10 -33 -23 -36 -29 -21 -33 -37 29 -20 74 6 15 8 15 16 2 4 -9 22 -18 39 -22z
m889 12 c0 -13 5 -28 12 -35 23 -23 2 -20 -25 4 -24 20 -27 27 -17 39 18 22
30 18 30 -8z m-540 -46 l0 -48 -107 -7 c-154 -10 -252 -6 -246 10 10 27 130
73 215 82 148 17 138 19 138 -37z m1184 -20 c3 -5 -6 -35 -22 -67 l-27 -59 -3
53 c-3 54 8 82 34 82 7 0 15 -4 18 -9z m1179 3 c12 -4 6 -20 -27 -77 l-41 -72
-5 65 c-3 36 -3 71 -1 78 3 12 48 16 74 6z m-1033 -11 c0 -5 -11 -26 -25 -47
l-24 -39 -7 27 c-4 17 -12 26 -22 24 -11 -2 -15 -17 -16 -58 l-1 -54 -45 -4
-45 -4 28 29 c15 16 27 34 27 40 0 27 37 74 65 82 39 12 65 13 65 4z m-796
-18 c11 -8 35 -15 54 -15 l35 0 -7 -77 c-3 -42 -8 -78 -10 -80 -7 -8 -85 79
-80 91 3 7 -4 21 -16 31 -22 20 -27 65 -7 65 6 0 21 -7 31 -15z m507 -2 c15
-4 14 -8 -2 -39 -9 -19 -23 -42 -30 -51 -12 -13 -14 -13 -20 8 -3 13 -4 41 -1
62 3 31 8 37 21 31 9 -3 23 -8 32 -11z m1192 10 c-7 -2 -21 -2 -30 0 -10 3 -4
5 12 5 17 0 24 -2 18 -5z m-2540 -64 c45 0 101 -17 63 -18 -27 -1 -106 -39
-135 -65 l-24 -21 7 40 c16 95 16 96 32 80 9 -8 34 -15 57 -16z m1400 -80
c-13 -13 -103 -21 -103 -9 0 5 8 10 18 10 22 0 42 21 68 70 l19 35 3 -49 c2
-27 -1 -53 -5 -57z m-633 71 c0 -5 -7 -7 -15 -4 -8 4 -12 10 -9 15 6 11 24 2
24 -11z m-445 -22 c12 -74 16 -72 -166 -80 -90 -4 -176 -9 -191 -11 -16 -2
-28 0 -28 4 0 15 87 57 131 63 25 4 61 18 80 31 27 21 44 25 100 25 l68 0 6
-32z m1435 -128 c0 -28 -2 -30 -21 -20 -20 11 -20 12 -3 31 23 25 24 24 24
-11z m137 -17 c-3 -3 -11 -2 -17 2 -8 5 -7 11 2 22 12 15 13 14 16 -1 2 -10 1
-20 -1 -23z m-1933 -45 l-59 -59 -3 47 c-4 63 12 80 73 76 l47 -4 -58 -60z
m541 24 c3 -1 12 -2 21 -2 9 0 -13 -19 -48 -43 -34 -24 -66 -41 -69 -38 -4 3
-9 26 -12 51 l-6 46 55 -6 c30 -3 57 -7 59 -8z"/>
</g>
</svg>
