<?xml version="1.0" standalone="no"?>
<!DOCTYPE svg PUBLIC "-//W3C//DTD SVG 20010904//EN"
 "http://www.w3.org/TR/2001/REC-SVG-20010904/DTD/svg10.dtd">
<svg version="1.0" xmlns="http://www.w3.org/2000/svg"
 width="217.000000pt" height="146.000000pt" viewBox="0 0 217.000000 146.000000"
 preserveAspectRatio="xMidYMid meet">
<metadata>
Created by potrace 1.16, written by Peter Selinger 2001-2019
</metadata>
<g transform="translate(0.000000,146.000000) scale(0.100000,-0.100000)"
fill="#000000" stroke="none">
<path d="M1707 1244 c-4 -4 -102 -10 -219 -14 -117 -4 -266 -10 -330 -13 -78
-5 -118 -3 -118 3 0 6 -15 10 -32 10 -18 -1 -82 -1 -141 0 -115 0 -154 -10
-141 -38 4 -9 9 -29 12 -44 4 -24 1 -28 -19 -29 -13 -1 -127 -4 -254 -8 -195
-5 -230 -8 -230 -21 0 -18 62 -19 331 -8 172 8 172 8 178 -15 3 -12 2 -25 -2
-29 -4 -4 -59 -8 -122 -9 -216 -2 -399 -24 -377 -45 3 -3 65 -1 139 5 73 6
186 13 251 16 l118 5 -6 -33 c-4 -17 -8 -33 -9 -34 -1 -1 -101 -5 -222 -8
-232 -7 -249 -9 -239 -25 5 -8 79 -9 241 -4 l234 7 0 -30 c0 -40 -11 -42 -268
-40 -111 1 -202 -1 -202 -5 0 -19 46 -25 173 -22 75 1 173 5 217 8 l80 6 0
-34 c0 -19 -4 -37 -9 -40 -5 -3 -104 -6 -219 -7 -160 0 -214 -4 -222 -14 -8
-9 -7 -14 2 -17 17 -6 249 -2 359 7 l87 6 4 -31 c3 -17 2 -33 -1 -35 -4 -2
-123 -9 -266 -15 -143 -6 -266 -13 -273 -15 -6 -3 -12 -10 -12 -16 0 -8 37
-10 138 -5 75 4 153 9 172 11 19 2 83 7 143 10 l107 7 0 -41 c0 -23 -3 -41 -7
-41 -5 -1 -30 -3 -58 -5 -27 -2 -143 -7 -258 -10 -175 -6 -207 -10 -207 -22 0
-13 15 -14 108 -8 155 11 400 21 412 17 15 -5 12 -69 -3 -75 -7 -3 -109 -5
-227 -6 -216 -2 -260 -6 -260 -22 0 -14 3 -14 291 -4 l207 8 4 -43 c2 -24 -1
-44 -7 -46 -5 -2 -103 -4 -217 -6 -192 -3 -232 -8 -215 -25 7 -7 11 -7 202 -4
184 3 174 4 170 -21 -3 -12 0 -38 5 -58 5 -19 11 -59 14 -88 2 -30 7 -57 10
-60 4 -3 17 4 29 17 65 60 286 124 542 157 66 8 127 17 135 19 8 3 21 1 29 -4
9 -6 23 -3 40 7 24 16 86 20 374 24 46 0 51 25 7 41 -30 12 -30 12 -24 72 7
70 19 155 38 275 9 53 12 75 21 150 9 74 31 179 45 215 6 17 11 31 11 32 -2
14 33 89 45 98 23 16 15 61 -11 57 -47 -7 -177 -6 -182 1 -5 9 -107 10 -116 1z
m-100 -40 c-3 -3 -12 -4 -19 -1 -8 3 -5 6 6 6 11 1 17 -2 13 -5z m-72 -14
c-16 -4 -45 -8 -63 -9 -19 0 -64 -10 -100 -21 -62 -18 -264 -40 -368 -40 l-46
0 23 28 c22 26 28 27 119 29 52 1 133 5 180 10 106 12 298 14 255 3z m379 0
l52 0 -32 -117 c-17 -65 -39 -163 -48 -218 -39 -236 -40 -240 -57 -229 -9 5
-9 107 1 498 0 16 6 18 44 14 41 -5 66 4 66 23 0 5 -23 9 -52 11 -33 2 -53 8
-56 17 -3 10 0 12 12 8 10 -4 41 -7 70 -7z m-205 -14 c-2 -3 -29 -7 -59 -10
l-55 -5 55 13 c51 12 70 12 59 2z m85 0 c-3 -8 -13 -12 -25 -9 -16 5 -18 8 -7
14 20 13 38 11 32 -5z m-854 -20 c0 -28 -29 -45 -68 -41 -20 2 -50 4 -65 4
-22 1 -28 5 -25 19 2 12 16 19 48 23 84 11 110 10 110 -5z m710 -28 c0 -21
-51 -78 -71 -78 -16 0 -19 7 -19 39 0 37 2 40 33 44 17 2 38 5 45 5 6 1 12 -3
12 -10z m140 -25 l0 -38 -55 -1 c-61 -1 -67 8 -39 51 13 20 25 25 55 25 38 0
39 -1 39 -37z m-410 -17 c0 -41 -2 -44 -31 -50 -17 -3 -43 -6 -56 -6 -24 0
-25 2 -18 38 4 20 8 37 8 38 4 1 83 22 90 23 4 0 7 -19 7 -43z m148 2 l-3 -43
-57 -3 -58 -3 0 30 c0 54 7 61 67 61 l54 0 -3 -42z m-381 16 c-3 -3 -12 -4
-19 -1 -8 3 -5 6 6 6 11 1 17 -2 13 -5z m-107 -24 c-91 -23 -93 -23 -88 -7 5
13 58 24 123 25 33 0 27 -3 -35 -18z m205 3 c-2 -10 -4 -26 -4 -35 -1 -15 -11
-18 -57 -18 -46 0 -55 3 -52 17 2 9 24 24 53 34 64 22 64 22 60 2z m-335 -13
c0 -23 -34 -40 -81 -40 -45 0 -49 2 -49 25 0 22 4 24 58 27 62 3 72 2 72 -12z
m200 -25 c0 -11 -12 -15 -52 -15 -58 0 -59 5 -2 19 55 13 54 13 54 -4z m650
-11 l35 -6 -3 -59 -4 -59 -64 0 c-65 0 -75 7 -55 39 5 8 16 11 29 7 12 -4 22
-1 25 8 7 19 -1 26 -30 26 -16 0 -23 6 -23 19 0 29 25 36 90 25z m-230 -29 c0
-27 -17 -35 -76 -35 -40 0 -44 2 -44 24 0 22 5 25 43 28 23 2 50 4 60 5 12 1
17 -5 17 -22z m116 9 c-3 -9 -6 -20 -6 -25 0 -5 -16 -9 -35 -9 -41 0 -43 5
-12 31 28 23 62 26 53 3z m-406 -24 c0 -17 -7 -33 -17 -39 -10 -6 -12 -11 -5
-11 15 0 17 -70 1 -70 -16 0 -50 20 -77 45 -20 18 -22 28 -17 58 7 34 9 36 54
40 25 2 49 4 54 5 4 1 7 -11 7 -28z m133 23 c3 -5 1 -18 -4 -30 -7 -20 -16
-23 -59 -23 -43 0 -50 3 -50 20 0 10 8 24 18 29 20 12 89 14 95 4z m-493 -27
c0 -34 -23 -54 -62 -52 -31 1 -33 4 -36 39 l-3 37 50 0 c47 0 51 -2 51 -24z
m88 -1 c3 -30 -12 -47 -41 -43 -25 3 -25 4 -11 36 15 37 47 41 52 7z m132 0
c0 -30 1 -29 -39 -9 -37 18 -35 28 8 31 27 2 31 -1 31 -22z m-53 -40 c35 -21
43 -31 43 -55 0 -24 -5 -30 -22 -31 -104 -7 -98 -8 -92 20 3 14 8 33 11 41 4
8 5 23 4 33 -3 23 4 22 56 -8z m593 -10 c0 -19 -5 -25 -22 -26 -13 0 -33 -2
-45 -5 -19 -3 -23 1 -23 24 0 26 3 28 45 30 42 1 45 0 45 -23z m-165 -15 c-16
-16 -37 -30 -47 -30 -13 0 -18 8 -18 30 0 29 1 30 47 30 l47 0 -29 -30z m-95
-9 c0 -27 -2 -28 -62 -35 -34 -3 -63 -4 -66 -2 -2 3 -1 18 3 35 6 30 8 31 66
31 58 0 59 0 59 -29z m-529 -29 c-6 -21 -15 -28 -37 -30 -27 -3 -30 0 -29 25
0 35 8 41 44 35 26 -3 28 -7 22 -30z m101 3 c-4 -32 -7 -35 -38 -35 -32 0 -34
2 -28 28 10 39 12 42 43 42 25 0 27 -3 23 -35z m568 25 c0 -5 -7 -10 -16 -10
-8 0 -12 5 -9 10 3 6 10 10 16 10 5 0 9 -4 9 -10z m-380 -35 c10 -13 9 -15 -9
-15 -12 0 -21 6 -21 15 0 8 4 15 9 15 5 0 14 -7 21 -15z m370 -39 c0 -26 -5
-35 -22 -40 -39 -10 -78 -7 -78 7 0 15 47 62 70 69 23 8 30 0 30 -36z m116 12
c-8 -38 -2 -34 -53 -42 -46 -7 -46 -6 -37 43 6 29 9 31 52 31 l45 0 -7 -32z
m160 -23 c3 -27 2 -84 -2 -126 l-6 -77 -56 -11 c-85 -17 -92 -15 -92 19 0 28
1 29 58 32 43 2 57 7 57 18 0 15 -12 16 -80 9 -30 -4 -30 -3 -28 40 1 24 5 46
8 49 3 3 34 7 68 8 75 2 72 1 57 19 -10 12 -25 14 -66 9 l-54 -6 0 29 c0 16 3
33 7 37 4 4 34 6 66 4 l59 -3 4 -50z m-406 18 c0 -23 -29 -53 -52 -53 -20 0
-78 38 -78 51 0 7 24 11 108 17 15 1 22 -4 22 -15z m-445 -46 c-10 -25 -19
-32 -42 -32 -25 0 -28 3 -24 30 4 41 5 42 44 37 l35 -4 -13 -31z m151 27 c-3
-9 -6 -24 -6 -35 0 -17 -8 -19 -60 -19 -63 0 -66 3 -50 44 9 24 15 26 66 26
47 0 55 -3 50 -16z m122 4 c26 -26 14 -45 -33 -51 -60 -9 -72 -3 -67 33 4 28
7 30 46 30 23 0 47 -5 54 -12z m-372 -14 c-3 -9 -6 -24 -6 -35 0 -13 -7 -19
-23 -19 -19 0 -23 5 -21 23 1 12 3 28 3 35 1 6 13 12 27 12 20 0 25 -4 20 -16z
m781 -74 c-2 -23 -6 -42 -8 -44 -2 -2 -24 -7 -47 -11 l-44 -7 3 43 c1 24 4 47
6 52 2 4 25 7 50 7 l45 0 -5 -40z m-119 -12 c-3 -36 -7 -44 -26 -46 -33 -5
-72 24 -72 53 0 24 14 31 73 34 27 1 28 -1 25 -41z m-224 1 c-22 -24 -34 -24
-34 0 0 21 17 31 38 23 10 -3 9 -9 -4 -23z m106 21 c0 -5 -4 -10 -9 -10 -6 0
-13 5 -16 10 -3 6 1 10 9 10 9 0 16 -4 16 -10z m-304 -16 c-3 -9 -6 -24 -6
-35 0 -17 -8 -19 -64 -19 -48 0 -65 4 -70 16 -3 8 -2 13 3 10 5 -3 11 3 14 13
3 14 16 21 43 24 83 8 86 8 80 -9z m140 0 c-3 -9 -6 -24 -6 -35 0 -17 -8 -19
-61 -19 -59 0 -61 1 -55 23 3 12 6 28 6 35 0 8 19 12 61 12 52 0 60 -2 55 -16z
m-296 -19 c0 -24 -25 -45 -54 -45 -21 0 -21 34 0 54 25 25 54 20 54 -9z m-103
-15 c-3 -39 -27 -39 -27 0 0 20 5 30 15 30 10 0 14 -9 12 -30z m540 5 l28 -24
-65 -1 -65 0 30 25 c37 30 38 30 72 0z m251 -76 c3 -21 -2 -27 -22 -31 -35 -7
-70 13 -74 40 -3 22 -1 23 45 20 43 -3 48 -5 51 -29z m-801 -1 c-3 -8 -6 -5
-6 6 -1 11 2 17 5 13 3 -3 4 -12 1 -19z m97 -15 c-9 -50 -11 -53 -40 -53 -18
0 -24 5 -24 23 0 49 11 67 42 67 28 0 29 -1 22 -37z m156 20 c-1 -56 -9 -63
-76 -63 -61 0 -64 1 -64 24 0 50 8 56 76 56 54 0 64 -3 64 -17z m79 -23 c-51
-47 -59 -49 -59 -16 0 47 9 56 57 56 l46 0 -44 -40z m229 8 l-3 -33 -67 -3
-68 -3 0 35 0 36 71 0 70 0 -3 -32z m92 2 l34 -30 -52 0 c-51 0 -52 1 -52 30
0 39 23 39 70 0z m-250 1 c0 -25 -15 -41 -38 -41 l-25 0 23 25 c24 26 40 32
40 16z m580 -56 c0 -33 -35 -47 -104 -43 -44 3 -51 6 -54 25 -3 19 3 22 45 28
26 4 53 8 58 10 6 2 20 4 33 4 17 1 22 -4 22 -24z m41 -16 l-10 -24 0 26 c-1
14 2 29 6 33 12 12 14 -9 4 -35z m-267 -9 c22 -17 33 -30 25 -30 -8 0 -31 -3
-51 -6 -37 -6 -38 -6 -38 23 0 52 10 54 64 13z m41 20 c3 -5 2 -10 -4 -10 -5
0 -13 5 -16 10 -3 6 -2 10 4 10 5 0 13 -4 16 -10z m-245 -34 c0 -38 -14 -46
-86 -46 -35 0 -42 3 -46 23 -9 50 -1 57 68 57 l64 0 0 -34z m120 9 c0 -28 -25
-45 -67 -45 -27 0 -29 2 -25 35 4 34 5 35 48 35 40 0 44 -2 44 -25z m-430 1
c0 -25 -70 -77 -98 -74 -23 3 -27 8 -30 40 -3 41 1 43 81 46 34 1 47 -2 47
-12z m150 -20 c0 -30 -4 -34 -31 -40 -57 -11 -99 -7 -99 9 0 30 50 65 91 65
38 0 39 -1 39 -34z m-306 -8 c-1 -18 -3 -36 -3 -40 -1 -5 -14 -8 -31 -8 -27 0
-30 3 -30 33 0 41 5 47 41 47 24 0 26 -3 23 -32z m896 -37 c0 -16 3 -36 6 -45
4 -10 1 -16 -9 -16 -16 0 -97 77 -89 85 3 3 25 5 49 5 41 0 43 -1 43 -29z
m-180 -37 l0 -44 -61 0 -60 0 3 43 3 42 50 5 c28 3 53 4 58 2 4 -2 7 -23 7
-48z m89 4 c17 -15 31 -29 31 -32 0 -3 -20 -6 -45 -6 l-45 0 0 40 c0 45 3 45
59 -2z m-229 3 c0 -50 -9 -61 -51 -61 -39 0 -39 0 -39 39 0 42 7 48 63 50 23
1 27 -3 27 -28z m-280 -25 c0 -49 -10 -56 -87 -56 -42 0 -43 1 -43 33 0 45 10
55 55 59 22 2 48 4 58 5 14 1 17 -6 17 -41z m160 5 c0 -38 0 -38 -46 -45 -82
-11 -84 -10 -84 32 0 21 3 42 7 45 3 4 33 7 65 7 l58 0 0 -39z m-314 -13 c-4
-24 -11 -47 -15 -51 -5 -5 -29 -7 -55 -5 l-48 3 48 48 c61 61 79 62 70 5z
m-139 -5 c-5 -36 -31 -67 -52 -60 -5 2 -11 25 -13 50 l-3 47 36 0 c36 0 37 0
32 -37z m53 22 c-7 -8 -16 -15 -20 -15 -3 0 -7 7 -7 15 0 8 9 15 20 15 16 0
17 -3 7 -15z m834 -60 c11 -8 18 -17 15 -19 -9 -8 -161 -17 -157 -9 3 4 8 16
11 26 8 22 102 24 131 2z m-170 -3 c11 -18 -13 -33 -62 -39 -51 -6 -52 -5 -52
21 0 25 2 26 54 26 30 0 57 -4 60 -8z m-154 -6 c0 -2 3 -11 6 -20 5 -13 -2
-16 -40 -16 -43 0 -59 13 -39 33 7 8 73 10 73 3z m-120 -21 c0 -8 -3 -15 -7
-16 -56 -7 -103 -7 -108 1 -12 20 8 30 61 30 41 0 54 -4 54 -15z m-157 -9 c6
-15 -31 -26 -88 -26 -28 0 -32 3 -28 20 4 17 14 20 58 20 36 0 55 -4 58 -14z
m-155 -18 c3 -15 -4 -18 -50 -18 -95 0 -137 25 -55 33 75 7 102 3 105 -15z
m219 -24 c-3 -3 -12 -4 -19 -1 -8 3 -5 6 6 6 11 1 17 -2 13 -5z m-58 -8 c-2
-3 -51 -14 -108 -26 -83 -17 -241 -62 -307 -87 -6 -2 -11 2 -11 9 -1 7 -4 32
-8 56 -7 36 -5 42 10 42 15 0 15 -3 5 -15 -10 -12 -10 -19 -2 -27 9 -9 19 -5
39 14 26 25 32 26 108 22 44 -3 107 -1 140 4 66 10 141 14 134 8z"/>
</g>
</svg>
