<?xml version="1.0" standalone="no"?>
<!DOCTYPE svg PUBLIC "-//W3C//DTD SVG 20010904//EN"
 "http://www.w3.org/TR/2001/REC-SVG-20010904/DTD/svg10.dtd">
<svg version="1.0" xmlns="http://www.w3.org/2000/svg"
 width="261.000000pt" height="144.000000pt" viewBox="0 0 261.000000 144.000000"
 preserveAspectRatio="xMidYMid meet">
<metadata>
Created by potrace 1.16, written by Peter Selinger 2001-2019
</metadata>
<g transform="translate(0.000000,144.000000) scale(0.100000,-0.100000)"
fill="#000000" stroke="none">
<path d="M2015 1160 c-27 -5 -106 -11 -175 -15 -69 -3 -157 -10 -196 -15 -106
-14 -397 -16 -749 -5 -300 9 -297 9 -333 24 -35 15 -62 3 -62 -26 0 -9 -6 -13
-14 -10 -7 3 -34 8 -59 12 -26 4 -52 13 -58 21 -7 9 -21 12 -38 8 -33 -8 -64
-35 -53 -46 4 -4 7 -55 5 -113 -2 -65 1 -106 8 -110 5 -4 22 -2 37 4 43 18
174 19 180 2 4 -12 -8 -13 -70 -7 -66 6 -76 4 -96 -14 -30 -29 -28 -43 6 -35
16 3 38 2 50 -2 20 -8 16 -11 -33 -34 l-55 -26 0 44 c0 48 -10 55 -32 21 -10
-17 -13 -48 -11 -113 6 -171 1 -229 -21 -253 -20 -23 -21 -64 -5 -169 11 -68
17 -83 31 -83 22 0 101 26 152 51 22 11 41 19 43 19 2 0 0 -16 -3 -35 -6 -41
15 -57 41 -31 31 30 171 62 315 71 47 3 101 8 120 11 19 2 126 7 238 9 112 3
207 7 212 10 5 3 12 -4 15 -15 7 -23 40 -24 40 -2 0 10 36 15 153 18 85 3 211
8 280 12 152 8 390 -2 405 -17 6 -6 20 -11 32 -11 12 0 26 -5 32 -11 14 -14
46 -4 41 12 -2 6 -23 13 -47 15 -24 2 -58 13 -76 24 -19 11 -50 20 -73 20 -22
0 -44 5 -48 11 -3 6 -17 9 -30 6 -13 -2 -25 0 -26 5 -2 5 -39 18 -82 28 -43
11 -89 26 -102 34 -13 9 -30 16 -38 16 -9 0 -22 12 -30 28 -11 19 -15 22 -16
10 0 -23 -17 -23 -57 2 -31 18 -32 21 -28 75 3 31 7 61 10 66 4 5 28 9 54 9
28 0 55 6 67 16 18 14 16 15 -22 10 -23 -3 -56 -3 -74 0 l-32 7 6 96 c3 53 5
105 5 117 1 13 13 26 36 37 68 32 69 32 63 -105 -7 -140 5 -120 23 40 l11 104
77 35 c108 50 262 105 290 104 25 -1 64 26 56 38 -6 10 -231 10 -290 1z m84
-44 c-6 -5 -198 -86 -204 -86 -3 0 -5 14 -5 30 0 38 -29 42 -31 5 -1 -14 -3
-29 -4 -35 -1 -5 -3 -16 -4 -24 0 -8 -21 -21 -46 -29 l-45 -16 0 27 c0 54 13
101 29 107 9 4 72 9 141 11 68 3 126 7 129 10 2 2 13 4 24 4 11 0 18 -2 16 -4z
m-1659 -39 c44 -11 56 -18 58 -35 3 -21 0 -22 -80 -22 -67 1 -79 3 -63 12 40
23 47 53 11 46 -16 -3 -27 0 -31 10 -6 16 4 15 105 -11z m169 -3 c2 -2 -2 -17
-9 -34 -15 -35 -53 -41 -70 -11 -14 26 -13 31 5 31 9 0 18 7 21 15 6 14 37 13
53 -1z m310 5 l66 -1 -60 -13 c-33 -7 -73 -18 -90 -23 l-30 -9 26 -11 26 -11
-18 -53 c-10 -29 -18 -68 -19 -85 0 -18 -5 -33 -11 -33 -8 0 -10 13 -6 38 7
45 -7 125 -22 130 -6 2 -8 9 -5 14 5 8 -13 9 -59 4 -37 -3 -67 -5 -67 -3 0 2
5 19 11 37 l12 33 90 -7 c50 -3 120 -7 156 -7z m174 0 l62 -2 -50 -7 c-56 -8
-105 -3 -105 12 0 6 7 7 16 4 9 -3 43 -7 77 -7z m638 -1 c2 -24 -2 -83 -7
-109 -4 -22 -13 -29 -49 -38 -24 -6 -48 -11 -52 -11 -5 0 -4 36 1 80 l9 79 41
4 c23 2 44 4 49 5 4 1 7 -4 8 -10z m-252 -92 c-4 -28 -10 -71 -13 -95 -6 -45
-18 -61 -46 -61 -9 0 -20 -4 -25 -9 -6 -4 -35 -16 -65 -27 -30 -10 -59 -22
-64 -26 -16 -13 -46 -9 -52 6 -3 8 0 40 6 73 7 32 17 87 23 123 l12 65 45 6
c25 4 46 6 47 5 1 -1 -2 -40 -7 -86 -8 -81 -7 -100 5 -88 3 3 13 45 23 94 l17
89 45 5 c54 6 60 -2 49 -74z m117 38 c-3 -26 -6 -64 -6 -85 0 -36 -3 -40 -49
-64 -53 -26 -64 -23 -55 16 18 78 23 108 24 142 l0 37 46 0 47 0 -7 -46z
m-382 -6 c3 -13 3 -39 0 -58 -7 -49 -12 -90 -13 -127 -1 -35 -11 -41 -33 -20
-7 6 -36 31 -65 55 -28 23 -51 50 -51 60 0 9 -3 36 -7 59 l-7 42 58 4 c33 2
71 4 85 5 20 2 28 -4 33 -20z m-218 -18 c1 -14 5 -33 9 -42 9 -22 2 -22 -34
-4 -23 12 -61 55 -61 69 0 1 19 3 43 2 38 0 42 -3 43 -25z m-242 -7 c14 -63
14 -171 1 -286 -7 -67 -16 -153 -20 -192 -3 -38 -8 -85 -12 -104 l-6 -34 -66
7 c-36 3 -76 6 -87 6 -25 0 -41 30 -22 42 7 4 28 8 46 8 26 0 33 4 30 18 -2 9
-18 22 -35 27 -41 14 -46 19 -38 44 5 18 14 21 61 21 56 0 94 12 94 30 0 6
-17 10 -37 10 -52 0 -113 18 -113 33 0 20 38 47 64 47 35 0 56 10 56 26 0 13
-13 18 -65 26 -17 3 -19 10 -17 43 2 22 5 41 7 43 2 2 28 7 58 11 54 7 87 24
87 43 0 5 -28 8 -62 6 l-63 -3 3 49 c2 52 12 66 50 66 12 0 22 6 22 14 0 13
16 22 47 25 6 0 14 -11 17 -26z m-359 -13 c18 -7 17 -8 -10 -15 -16 -4 -38 -9
-47 -12 -18 -4 -25 16 -11 30 8 9 43 8 68 -3z m110 0 c-3 -5 -25 -9 -48 -9
l-42 2 40 7 c22 4 44 8 48 9 5 0 5 -3 2 -9z m445 -66 c54 -20 129 -72 199
-141 l75 -72 -92 3 c-69 2 -96 7 -110 19 -10 9 -24 17 -30 17 -17 0 -32 -34
-22 -50 4 -7 7 -37 6 -67 -1 -30 1 -56 5 -59 4 -2 23 2 41 10 18 8 57 25 86
37 28 12 52 29 52 36 0 7 7 13 16 13 9 0 14 -4 12 -9 -7 -20 -122 -104 -151
-112 -18 -4 -83 -26 -146 -48 -63 -23 -116 -41 -118 -41 -8 0 6 142 15 153 9
12 25 71 38 135 3 18 12 45 20 60 8 15 14 42 14 60 0 18 6 50 12 72 l13 40 20
-24 c11 -12 31 -27 45 -32z m-370 32 c0 -20 -29 -48 -41 -40 -6 3 0 16 13 29
28 28 28 28 28 11z m1135 -213 l-6 -43 -59 0 -58 0 5 88 c3 48 8 90 12 94 3 4
29 15 56 25 l50 19 3 -71 c2 -38 0 -89 -3 -112z m-1160 147 c3 -5 2 -10 -4
-10 -5 0 -13 5 -16 10 -3 6 -2 10 4 10 5 0 13 -4 16 -10z m1021 -97 c-3 -38
-6 -74 -6 -80 0 -9 -18 -13 -55 -13 l-55 0 6 58 c8 67 16 79 58 91 59 17 59
17 52 -56z m-1064 -24 c-4 -30 -6 -31 -41 -25 -20 3 -49 6 -66 7 -24 0 -19 4
27 17 31 9 60 20 64 25 15 15 20 6 16 -24z m888 16 c0 -2 -19 -14 -42 -26 -24
-12 -46 -26 -49 -32 -4 -5 -13 -6 -20 -1 -9 5 5 16 46 35 70 32 65 30 65 24z
m42 -46 c-4 -36 -7 -40 -26 -35 -11 3 -32 6 -46 6 -22 0 -18 4 25 34 28 19 50
34 50 35 0 1 -1 -17 -3 -40z m-1067 -34 l30 -7 -35 -18 c-32 -17 -36 -17 -42
-2 -11 27 -9 42 5 38 6 -3 26 -7 42 -11z m129 -21 c10 -4 16 -18 16 -35 l0
-29 -69 0 c-38 0 -78 -2 -88 -5 -10 -3 0 4 22 15 22 11 48 20 57 20 10 0 22 9
28 20 12 22 12 22 34 14z m591 -29 c-72 -30 -75 -30 -75 -7 0 28 9 32 74 32
l61 0 -60 -25z m335 -5 c0 -11 -4 -20 -9 -20 -13 0 -81 29 -81 35 0 3 20 5 45
5 38 0 45 -3 45 -20z m99 14 c27 -6 31 -10 31 -40 0 -38 -9 -41 -72 -23 -30 8
-38 15 -38 33 0 37 14 43 79 30z m157 -4 c23 0 24 -3 24 -60 0 -67 0 -67 -74
-41 -51 18 -61 34 -51 78 5 21 36 34 63 27 8 -2 25 -4 38 -4z m-381 -32 c7 -7
2 -8 -15 -3 -14 4 -29 12 -35 17 -7 7 -2 8 15 3 14 -4 30 -12 35 -17z m-34
-43 l40 -7 -6 -76 c-3 -43 -7 -85 -8 -94 -1 -15 -12 -18 -57 -19 -65 -2 -51
-2 -213 6 l-128 7 53 35 c29 19 55 38 58 42 3 4 30 23 60 44 30 20 68 46 84
59 l28 21 -5 -69 c-3 -38 -9 -81 -12 -96 -5 -18 -3 -28 3 -28 15 0 30 59 38
144 4 49 9 65 15 54 5 -9 27 -19 50 -23z m-907 -47 c-51 -32 -59 -31 -50 6 6
26 25 34 69 28 27 -4 27 -5 -19 -34z m1045 25 c4 -4 5 -44 2 -88 l-6 -80 -37
-3 c-33 -3 -37 0 -42 25 -4 16 -5 59 -4 97 l3 68 39 -5 c21 -3 41 -9 45 -14z
m-915 1 c9 -3 16 -17 16 -30 0 -21 -5 -24 -34 -24 -37 0 -56 14 -31 24 8 3 15
12 15 21 0 16 9 19 34 9z m1013 -31 l53 -17 0 -63 c0 -62 -1 -63 -27 -64 -16
-1 -43 -2 -61 -4 -18 -1 -35 2 -38 7 -8 12 -6 115 2 140 7 22 5 22 71 1z m156
-43 c31 -7 57 -16 57 -19 0 -3 -7 -15 -15 -25 -19 -25 -19 -36 0 -36 9 0 24
14 33 30 13 23 22 29 37 25 11 -2 25 -5 32 -5 6 0 14 -18 18 -40 4 -22 10 -40
15 -40 13 0 19 26 9 41 -5 8 -9 18 -9 22 0 11 60 -2 86 -19 11 -8 52 -20 90
-28 l69 -14 -100 -3 c-94 -3 -387 1 -392 6 -2 1 -6 30 -10 65 -5 52 -4 62 8
58 8 -3 40 -11 72 -18z m-703 -4 c-20 -18 -165 -96 -180 -96 -29 0 0 34 43 51
26 10 68 28 95 39 57 23 60 24 42 6z m-565 -16 c12 0 -4 -12 -39 -30 -69 -35
-86 -37 -86 -10 0 25 79 65 94 50 6 -6 19 -10 31 -10z m105 -50 c0 -5 -11 -21
-25 -35 -21 -21 -35 -25 -80 -25 -61 0 -80 -15 -39 -30 l28 -11 -40 -24 c-21
-13 -42 -25 -46 -25 -5 0 -8 22 -8 49 0 49 0 49 43 65 129 46 167 54 167 36z
m427 -76 c-93 -7 -194 -17 -226 -22 -57 -8 -58 -8 -58 15 0 22 3 24 41 22 22
-1 46 -7 53 -12 7 -5 27 -5 45 -1 49 11 206 20 263 15 34 -3 -5 -9 -118 -17z
m-357 -38 c-57 -12 -74 -11 -65 5 4 5 32 9 63 8 l57 -1 -55 -12z"/>
<path d="M880 913 c0 -5 9 -14 20 -21 11 -7 20 -8 20 -2 0 5 -9 14 -20 20 -11
6 -20 7 -20 3z"/>
</g>
</svg>
