<?xml version="1.0" standalone="no"?>
<!DOCTYPE svg PUBLIC "-//W3C//DTD SVG 20010904//EN"
 "http://www.w3.org/TR/2001/REC-SVG-20010904/DTD/svg10.dtd">
<svg version="1.0" xmlns="http://www.w3.org/2000/svg"
 width="192.000000pt" height="198.000000pt" viewBox="0 0 192.000000 198.000000"
 preserveAspectRatio="xMidYMid meet">
<metadata>
Created by potrace 1.16, written by Peter Selinger 2001-2019
</metadata>
<g transform="translate(0.000000,198.000000) scale(0.100000,-0.100000)"
fill="#000000" stroke="none">
<path d="M960 1800 c-8 -4 -39 -11 -67 -15 -29 -4 -55 -11 -58 -15 -3 -5 7
-30 23 -57 31 -53 62 -126 62 -147 0 -8 -10 -12 -27 -11 -16 1 -37 3 -49 3
-12 1 -38 14 -59 28 l-38 25 -21 -21 c-19 -19 -21 -32 -21 -162 0 -89 4 -142
10 -145 6 -2 30 3 54 12 66 23 71 18 18 -15 -44 -28 -54 -50 -24 -50 7 0 34
-11 60 -25 50 -27 67 -26 67 4 0 24 59 131 77 138 19 7 23 2 30 -40 5 -31 0
-40 -37 -81 l-42 -46 27 -10 c14 -5 39 -10 55 -10 19 0 33 -7 40 -19 22 -41
15 -44 -86 -37 -98 7 -125 -5 -42 -19 70 -11 468 -15 468 -5 0 6 -4 10 -10 10
-16 0 -12 30 5 36 8 3 21 -1 29 -9 20 -20 95 -31 112 -16 12 10 12 13 -2 24
-15 10 -14 16 10 60 l25 49 22 -49 22 -50 -37 -70 c-59 -116 -46 -108 -182
-107 -65 1 -135 4 -154 7 -81 10 -408 16 -450 7 -36 -8 -9 -10 130 -12 96 -1
184 -3 195 -5 11 -2 101 -6 199 -9 99 -4 181 -8 184 -10 2 -2 -1 -14 -8 -25
-11 -21 -14 -21 -218 -15 -114 3 -261 9 -327 13 -141 7 -215 4 -215 -10 0 -5
19 -9 43 -8 87 3 679 -19 686 -27 2 -2 -4 -14 -12 -28 -13 -20 -23 -24 -49
-21 -216 27 -707 40 -727 20 -7 -7 47 -10 162 -9 95 0 217 -3 272 -7 55 -4
148 -11 208 -15 59 -4 107 -8 107 -10 0 -1 -10 -24 -23 -51 l-22 -49 -115 3
c-63 1 -149 4 -190 7 -195 15 -380 19 -380 9 0 -7 37 -11 96 -12 54 -1 100 -3
104 -6 3 -2 105 -7 226 -10 120 -4 224 -8 231 -10 14 -5 -27 -107 -54 -137 -9
-10 -13 -18 -9 -18 4 0 -3 -18 -15 -40 -25 -45 -45 -50 -79 -20 l-23 20 29 2
c16 0 34 2 39 3 6 2 16 3 24 4 8 0 12 4 8 7 -3 4 -45 8 -92 10 -87 3 -155 21
-211 53 -17 10 -57 28 -90 40 -32 13 -72 33 -89 45 -43 32 -183 96 -210 96
-14 0 -34 -13 -51 -32 -32 -39 -85 -153 -79 -171 5 -12 -145 -118 -215 -153
-19 -9 -38 -21 -41 -26 -3 -5 -10 -10 -15 -10 -17 0 -124 -63 -124 -73 0 -5
17 -24 37 -41 35 -30 37 -33 25 -59 -18 -38 -2 -54 32 -31 14 9 35 16 46 16
19 0 21 4 15 36 -4 30 -2 35 10 30 8 -3 14 -1 12 3 -2 11 112 141 203 229 62
62 65 64 105 58 45 -8 152 -31 235 -53 30 -7 63 -16 74 -18 10 -2 23 -8 30
-13 17 -13 158 -63 163 -58 3 2 40 -11 83 -29 94 -40 146 -49 142 -23 -3 17 8
18 133 13 75 -3 139 -6 143 -7 4 -1 22 2 41 6 31 8 33 10 26 40 -13 55 -21
137 -14 141 6 4 19 90 24 165 7 91 18 165 42 275 14 66 29 143 33 170 22 136
120 412 142 399 4 -3 5 2 2 11 -4 8 -1 22 6 30 7 9 10 18 7 22 -10 10 -37 -18
-52 -53 -9 -22 -23 -36 -40 -40 -37 -9 -44 4 -15 29 15 13 25 32 24 47 0 16
11 35 30 52 20 18 25 28 16 28 -8 0 -37 -20 -65 -45 -27 -24 -54 -43 -60 -41
-14 4 -13 54 2 84 7 14 11 27 8 30 -8 8 -97 -70 -103 -90 -2 -10 -8 -18 -12
-18 -7 0 6 116 15 130 11 17 -16 21 -37 6 -12 -9 -30 -16 -39 -16 -9 0 -28
-11 -43 -25 -18 -17 -26 -20 -26 -10 0 8 -4 15 -9 15 -11 0 -21 -25 -21 -51 0
-10 -6 -19 -14 -19 -13 0 -12 7 1 47 9 26 25 56 35 67 19 21 24 46 9 46 -17 0
-78 -29 -90 -44 -7 -8 -32 -24 -56 -35 -52 -24 -65 -41 -33 -41 13 0 43 14 67
30 51 35 81 40 36 7 -16 -12 -38 -32 -49 -44 -11 -13 -28 -23 -38 -23 -12 0
-18 -7 -18 -24 0 -31 -36 -77 -56 -69 -11 4 -13 14 -9 34 8 34 -3 58 -16 38
-5 -8 -9 -25 -9 -39 -1 -24 -1 -24 -14 5 -11 25 -11 35 1 58 7 15 19 27 26 27
9 0 8 -3 -1 -9 -11 -7 -10 -10 3 -15 9 -3 24 -6 33 -5 11 0 12 2 5 6 -14 5
-18 55 -6 67 4 3 8 16 10 28 2 12 10 32 18 45 19 29 2 40 -30 19 -24 -16 -85
-38 -137 -50 -16 -4 -28 -13 -28 -22 0 -13 8 -15 43 -9 23 4 54 14 69 21 15 8
29 14 32 14 12 0 -17 -59 -38 -79 -22 -21 -25 -21 -40 -5 -22 21 -29 13 -17
-18 8 -21 4 -31 -23 -61 -57 -64 -65 -52 -72 113 -3 63 -9 118 -12 122 -4 4
-14 3 -22 -2z m5 -117 c4 -43 9 -93 10 -110 5 -47 -21 -43 -30 5 -4 20 -11 42
-15 47 -5 6 -8 12 -9 15 0 3 -6 21 -15 40 -8 19 -12 38 -10 42 3 5 0 8 -6 8
-6 0 -8 5 -5 11 4 6 13 8 21 5 7 -3 16 -1 19 4 4 6 12 10 19 10 10 0 16 -24
21 -77z m503 -65 c-18 -27 -23 -29 -26 -15 -4 21 15 47 35 47 11 0 9 -8 -9
-32z m55 -72 c-7 -30 -14 -40 -31 -43 -17 -2 -25 4 -33 24 -10 28 0 43 31 43
10 0 11 3 2 12 -8 8 -6 19 11 42 l22 31 3 -35 c2 -19 -1 -53 -5 -74z m-170 22
c-7 -62 -11 -69 -40 -62 -14 4 -20 12 -18 24 5 27 28 60 42 60 7 0 12 3 12 8
-2 11 1 22 6 22 2 0 1 -24 -2 -52z m61 6 c7 -17 -5 -44 -28 -64 -14 -11 -16
-7 -16 28 0 36 8 48 31 51 4 1 10 -6 13 -15z m208 -66 c-4 -4 -14 -3 -22 2
-12 8 -12 12 0 35 l14 27 8 -28 c4 -16 4 -32 0 -36z m-845 41 c6 -6 26 -12 45
-14 19 -2 52 -8 74 -14 34 -9 42 -17 51 -46 10 -32 9 -39 -13 -64 -18 -22 -40
-33 -95 -45 -39 -9 -75 -16 -79 -16 -5 0 -8 47 -7 105 1 58 4 105 7 105 3 0
11 -5 17 -11z m353 -9 c0 -13 -7 -20 -20 -20 -23 0 -26 10 -8 28 18 18 28 15
28 -8z m540 6 c0 -3 -4 -8 -10 -11 -5 -3 -10 -1 -10 4 0 6 5 11 10 11 6 0 10
-2 10 -4z m-680 -56 c0 -5 -4 -10 -9 -10 -6 0 -13 5 -16 10 -3 6 1 10 9 10 9
0 16 -4 16 -10z m40 -15 c-7 -9 -15 -13 -18 -10 -3 2 1 11 8 20 7 9 15 13 18
10 3 -2 -1 -11 -8 -20z m118 -12 c3 -22 2 -23 -93 -39 l-39 -7 15 24 c9 13 19
30 23 37 5 8 23 12 49 10 34 -2 43 -7 45 -25z m90 15 c-2 -6 -14 -15 -26 -19
-20 -8 -21 -6 -12 11 11 21 44 28 38 8z m37 -8 c-3 -5 -11 -10 -16 -10 -6 0
-7 5 -4 10 3 6 11 10 16 10 6 0 7 -4 4 -10z m434 -80 c-34 -85 -36 -87 -50
-73 -7 7 -7 29 2 71 11 54 16 61 43 69 17 5 32 9 33 8 1 0 -11 -34 -28 -75z
m-189 46 c0 -8 -4 -17 -9 -21 -12 -7 -24 12 -16 25 9 15 25 12 25 -4z m80 11
c0 -2 -10 -12 -21 -23 -22 -19 -22 -19 -10 4 10 18 31 31 31 19z m37 -19 c-3
-8 -6 -5 -6 6 -1 11 2 17 5 13 3 -3 4 -12 1 -19z m-187 4 c0 -13 -89 -108 -90
-94 0 6 3 12 8 12 4 0 7 17 7 37 0 34 3 38 30 44 44 10 45 10 45 1z m-170 -28
c0 -2 -14 -17 -31 -35 -33 -34 -53 -29 -47 12 2 15 12 25 28 29 23 6 50 3 50
-6z m330 -9 c0 -19 -36 -91 -49 -99 -15 -9 -25 14 -12 27 6 6 11 17 11 25 0
15 31 61 43 62 4 0 7 -7 7 -15z m-135 -14 c4 -14 -7 -39 -35 -80 -23 -34 -43
-61 -45 -61 -2 0 -8 14 -14 30 -9 28 -7 34 32 79 47 56 53 59 62 32z m-315 1
c0 -5 -13 -28 -30 -50 -16 -23 -30 -44 -30 -47 0 -3 -5 -11 -10 -18 -6 -7 -17
-21 -25 -32 -15 -23 -21 -20 -30 16 -5 21 3 35 46 82 47 52 79 71 79 49z m372
-7 c0 -5 -5 -11 -11 -13 -6 -2 -11 4 -11 13 0 9 5 15 11 13 6 -2 11 -8 11 -13z
m-453 -12 c-39 -50 -46 -53 -46 -18 0 23 11 31 46 34 11 1 11 -2 0 -16z m223
-8 c-58 -90 -76 -104 -79 -64 -2 26 41 75 66 75 11 0 17 -5 13 -11z m-120 -60
c-4 -8 -29 -37 -55 -64 -27 -28 -46 -55 -43 -59 3 -5 20 -12 38 -16 17 -3 39
-13 48 -21 8 -7 36 -15 60 -16 53 -3 70 -8 70 -20 0 -5 -43 -9 -95 -9 -92 0
-96 1 -105 24 -5 13 -14 27 -19 31 -25 15 1 84 51 139 9 10 15 23 12 28 -3 4
2 8 10 8 9 0 15 3 15 8 -4 21 3 24 12 4 5 -13 6 -30 1 -37z m-262 41 c0 -3
-14 -27 -31 -55 -27 -43 -34 -49 -50 -40 -11 5 -19 15 -19 22 1 19 100 91 100
73z m410 -30 c0 -13 -17 -44 -37 -69 -31 -38 -39 -43 -46 -31 -10 18 6 55 41
94 12 14 22 28 22 33 0 4 5 5 10 2 6 -3 10 -17 10 -29z m134 -31 c-42 -52 -58
-54 -23 -3 39 55 53 70 57 59 2 -6 -13 -31 -34 -56z m174 32 c15 -41 -1 -99
-24 -90 -8 3 -14 1 -14 -5 0 -6 5 -12 12 -14 8 -3 9 -6 1 -11 -6 -4 -17 12
-28 39 -17 44 -17 45 7 79 12 19 25 35 28 35 4 0 11 -15 18 -33z m-111 -33 c3
-9 -8 -44 -25 -80 -33 -66 -51 -74 -73 -33 -10 20 6 53 54 107 24 26 35 28 44
6z m-321 -49 c-3 -9 -10 -13 -16 -10 -6 3 -7 -1 -4 -9 4 -11 0 -16 -15 -16
-27 0 -27 16 2 57 20 30 23 31 31 13 5 -10 6 -26 2 -35z m164 -10 c0 -14 -28
-73 -38 -79 -4 -2 -19 6 -35 19 l-27 24 26 28 c15 15 30 27 35 26 5 -2 8 0 8
5 -1 4 -1 12 0 17 2 13 31 -25 31 -40z m-350 -1 c0 -8 -7 -14 -15 -14 -15 0
-21 21 -9 33 10 9 24 -2 24 -19z m616 -107 c-9 -41 -18 -81 -20 -88 -3 -8 -7
-36 -10 -62 -3 -26 -11 -69 -19 -95 -8 -26 -21 -87 -27 -137 -7 -49 -23 -139
-35 -200 l-21 -110 -103 2 c-57 1 -108 6 -114 12 -7 7 0 31 21 73 17 35 33 74
37 87 12 40 85 192 132 274 34 58 50 77 66 77 20 1 21 2 5 14 -10 7 -14 16 -8
22 5 5 20 33 35 62 14 28 30 52 36 52 5 0 9 11 9 25 0 25 20 78 27 71 2 -2 -3
-38 -11 -79z m-981 -442 c19 -8 38 -16 42 -17 5 -1 16 -9 26 -18 9 -9 41 -27
70 -39 28 -12 73 -33 99 -46 26 -14 84 -37 130 -51 77 -26 157 -69 158 -86 0
-5 -9 -17 -21 -29 l-20 -20 -102 35 c-56 19 -147 50 -202 69 -55 19 -145 45
-200 57 -55 13 -107 29 -115 35 -8 7 -21 10 -27 8 -7 -3 -13 -3 -13 0 0 9 43
102 57 124 14 21 17 22 49 8 19 -8 50 -22 69 -30z m-305 -231 c0 -7 -138 -153
-173 -183 l-28 -24 -24 23 c-43 40 -37 46 98 115 55 28 101 56 104 63 5 12 23
17 23 6z"/>
<path d="M800 1051 c0 -6 10 -11 23 -11 58 -1 239 -10 407 -21 224 -14 287
-13 269 6 -3 2 -77 6 -164 9 -88 3 -189 7 -225 10 -171 14 -310 17 -310 7z"/>
<path d="M575 781 c-3 -6 0 -12 7 -12 7 -1 24 -3 38 -5 14 -2 82 -5 152 -8 71
-3 132 -7 138 -11 15 -9 429 -15 434 -6 3 4 -84 10 -193 13 -109 3 -203 8
-209 12 -6 4 -62 9 -124 11 -62 3 -141 7 -174 11 -40 3 -64 1 -69 -5z"/>
<path d="M785 660 c-3 -5 -3 -10 2 -10 20 -1 346 -11 411 -14 131 -4 85 10
-66 21 -202 15 -339 16 -347 3z"/>
<path d="M948 622 c-21 -2 -38 -7 -38 -11 0 -9 330 -24 338 -16 12 12 -11 15
-124 21 -65 3 -123 6 -129 7 -5 1 -27 1 -47 -1z"/>
<path d="M1040 562 c0 -16 30 -24 118 -29 103 -7 112 11 10 21 -40 3 -85 9
-100 12 -16 4 -28 2 -28 -4z"/>
</g>
</svg>
