<?xml version="1.0" standalone="no"?>
<!DOCTYPE svg PUBLIC "-//W3C//DTD SVG 20010904//EN"
 "http://www.w3.org/TR/2001/REC-SVG-20010904/DTD/svg10.dtd">
<svg version="1.0" xmlns="http://www.w3.org/2000/svg"
 width="330.000000pt" height="172.000000pt" viewBox="0 0 330.000000 172.000000"
 preserveAspectRatio="xMidYMid meet">
<metadata>
Created by potrace 1.16, written by Peter Selinger 2001-2019
</metadata>
<g transform="translate(0.000000,172.000000) scale(0.100000,-0.100000)"
fill="#000000" stroke="none">
<path d="M432 1545 c-17 -14 -34 -25 -40 -25 -6 0 -12 -3 -14 -7 -1 -5 -25
-19 -53 -33 -49 -25 -53 -26 -79 -29 -20 -1 -46 -29 -46 -48 0 -12 7 -14 29
-10 20 4 33 1 43 -11 20 -23 66 -121 72 -152 3 -14 26 -47 51 -74 25 -27 45
-52 45 -56 0 -4 9 -15 20 -25 11 -10 20 -22 20 -26 0 -10 42 -72 63 -93 26
-26 43 -19 104 42 32 31 74 68 92 82 19 14 39 30 45 36 19 18 46 24 46 11 0
-9 30 -10 133 -4 177 11 191 28 19 25 -73 -2 -132 0 -132 3 0 14 234 119 264
119 22 0 23 -4 24 -67 1 -95 -9 -135 -33 -139 -24 -4 -279 -15 -318 -14 -18 0
-26 -4 -22 -11 7 -10 171 -7 303 7 28 3 52 4 52 2 -1 -2 -7 -28 -14 -58 l-13
-55 -181 4 c-129 2 -182 0 -182 -8 0 -6 8 -12 18 -13 9 0 -5 -4 -33 -8 l-50
-7 62 -1 c34 -1 63 2 65 7 3 10 92 15 214 13 l81 -2 -9 -52 c-5 -29 -11 -66
-14 -83 -3 -16 -7 -35 -9 -42 -3 -8 -43 -12 -132 -12 -119 0 -189 -6 -221 -16
-9 -4 -10 0 -2 15 13 24 -5 27 -33 6 -22 -17 -12 -46 17 -47 44 -1 243 3 296
5 66 4 73 1 59 -25 -7 -15 -20 -20 -47 -19 -20 1 -116 1 -213 1 -144 -1 -179
-3 -189 -16 -19 -22 25 -35 107 -30 37 2 124 5 193 7 l125 3 0 -24 0 -23 -195
1 c-183 2 -250 -5 -250 -27 0 -4 73 -7 163 -6 89 1 187 0 218 -3 55 -5 55 -5
51 -34 l-4 -29 -219 0 -218 0 -28 26 c-15 14 -29 21 -31 15 -2 -6 -12 -11 -22
-11 -28 0 -34 -17 -11 -30 21 -11 19 -37 -3 -52 -7 -5 -7 -8 2 -8 9 0 11 -14
8 -52 -9 -91 -18 -142 -33 -195 -8 -29 -12 -57 -8 -63 11 -18 35 -11 44 14 18
46 142 140 201 151 10 2 27 8 37 13 10 5 36 12 58 15 22 3 69 13 105 21 131
30 433 73 638 91 28 3 77 7 107 10 76 7 452 13 835 14 321 1 325 1 341 -20 20
-27 43 -21 44 12 3 72 5 78 27 81 32 5 35 28 4 28 -14 0 -27 6 -27 13 -7 63
-5 107 8 135 8 18 18 58 23 89 22 132 77 248 160 334 16 18 30 38 30 45 0 16
-12 18 -26 5 -5 -5 -36 -14 -69 -19 -68 -11 -112 -20 -136 -28 -10 -3 -19 3
-24 13 -6 17 -8 16 -25 -5 -11 -13 -36 -26 -64 -31 -25 -4 -57 -17 -72 -27
-65 -47 -115 -73 -128 -68 -8 3 -15 -3 -18 -14 -3 -10 -50 -49 -104 -85 -79
-54 -107 -67 -137 -67 -41 0 -77 -14 -77 -30 0 -6 12 -10 26 -10 30 0 97 -34
136 -68 30 -28 58 -24 58 9 0 28 31 79 48 79 7 0 10 5 7 10 -4 6 -1 17 5 25 7
8 9 15 5 15 -19 0 93 108 137 131 27 15 57 34 66 42 25 21 102 38 107 24 22
-70 26 -369 7 -419 -7 -17 -8 -29 -2 -33 6 -4 10 -19 10 -36 l0 -29 -117 -1
c-65 -1 -129 -3 -143 -4 -14 -2 -146 -5 -295 -9 -451 -9 -596 -17 -895 -45
-85 -8 -298 -7 -306 2 -3 3 -2 16 2 31 4 18 13 26 28 26 11 0 28 5 36 10 12 8
11 11 -8 16 -18 5 -22 12 -18 28 3 11 6 27 6 34 0 6 9 12 20 12 11 0 20 5 20
10 0 6 -8 10 -17 10 -33 0 2 18 94 49 51 17 104 33 118 35 31 6 45 14 45 27 0
15 -82 2 -168 -27 -40 -13 -74 -24 -77 -24 -6 0 23 92 32 101 4 4 67 -1 138
-12 103 -15 178 -19 365 -18 129 1 244 5 254 8 10 4 -102 13 -250 19 -266 12
-315 15 -331 25 -8 5 -79 17 -133 23 -14 1 -26 3 -27 3 -6 3 29 85 51 118 13
21 26 45 28 53 2 8 6 17 9 20 3 3 22 37 42 77 39 77 55 101 100 144 43 43 36
49 -50 45 -56 -3 -83 0 -100 11 -12 8 -27 12 -33 8 -5 -3 -17 1 -26 9 -20 21
-30 20 -137 -9 -133 -36 -199 -58 -227 -77 -14 -9 -61 -31 -105 -48 -44 -16
-97 -39 -117 -50 l-37 -20 -19 20 c-22 24 -41 60 -74 145 -20 51 -23 71 -18
131 4 48 12 77 23 89 14 13 15 20 6 31 -16 19 -23 18 -57 -11z m-16 -160 c-1
-64 -4 -85 -15 -85 -8 0 -11 6 -7 15 4 11 -1 15 -18 15 -24 0 -48 26 -59 65
-5 15 3 27 31 47 63 45 69 40 68 -57z m634 -95 c-8 -5 -22 -9 -30 -9 -10 0 -8
3 5 9 27 12 43 12 25 0z m279 -54 c-11 -17 -32 -56 -46 -86 -35 -76 -140 -282
-161 -315 -7 -11 -9 -17 -11 -40 0 -8 -5 -15 -9 -15 -9 0 1 58 32 200 29 127
27 116 35 278 1 9 25 12 91 11 l90 -2 -21 -31z m-887 -21 c17 -23 6 -27 -17
-5 -28 27 -34 50 -7 29 9 -8 20 -18 24 -24z m368 -46 c-45 -26 -113 -74 -151
-105 -38 -31 -72 -54 -75 -52 -2 3 -9 19 -13 36 -8 28 -6 33 28 56 20 14 57
33 81 41 25 8 71 28 102 43 32 15 69 28 83 28 20 2 5 -11 -55 -47z m2178 -90
c-7 -12 -22 -32 -34 -45 -31 -35 -82 -142 -95 -202 -7 -29 -15 -49 -18 -46 -3
3 -6 54 -6 112 0 59 -5 114 -10 122 -24 37 -13 44 100 69 70 15 77 14 63 -10z
m-540 -216 c-14 -16 -33 -45 -43 -65 -20 -43 -27 -45 -60 -19 l-24 18 62 46
c71 52 105 62 65 20z m352 -388 c0 -10 -51 -12 -272 -9 -150 3 -347 0 -438 -6
-91 -5 -213 -12 -272 -15 -59 -2 -118 -7 -130 -9 -13 -3 -79 -8 -148 -10 -159
-7 -247 -14 -335 -27 -38 -6 -88 -12 -111 -15 -22 -2 -79 -11 -125 -19 -46 -9
-121 -22 -166 -31 -100 -18 -239 -74 -235 -95 2 -8 0 -11 -3 -7 -4 4 -17 1
-29 -7 -30 -22 -38 -18 -32 13 3 15 11 66 18 114 l12 88 224 0 c132 -1 232 -5
244 -11 10 -5 22 -8 27 -5 4 3 73 8 152 10 79 3 169 10 199 16 30 6 177 13
325 16 338 5 917 22 922 27 1 1 40 1 87 -1 63 -3 86 -7 86 -17z"/>
<path d="M976 853 c-2 -2 -43 -5 -92 -7 -199 -8 -258 -35 -82 -38 62 -1 136
-2 163 -3 56 -2 77 5 81 28 1 10 -9 16 -32 19 -19 2 -36 3 -38 1z"/>
</g>
</svg>
