<?xml version="1.0" standalone="no"?>
<!DOCTYPE svg PUBLIC "-//W3C//DTD SVG 20010904//EN"
 "http://www.w3.org/TR/2001/REC-SVG-20010904/DTD/svg10.dtd">
<svg version="1.0" xmlns="http://www.w3.org/2000/svg"
 width="198.000000pt" height="132.000000pt" viewBox="0 0 198.000000 132.000000"
 preserveAspectRatio="xMidYMid meet">
<metadata>
Created by potrace 1.16, written by Peter Selinger 2001-2019
</metadata>
<g transform="translate(0.000000,132.000000) scale(0.100000,-0.100000)"
fill="#000000" stroke="none">
<path d="M1534 1279 c-27 -17 -52 -37 -56 -43 -11 -17 -9 -61 3 -73 6 -6 9
-16 5 -21 -7 -11 -247 -143 -291 -159 -78 -29 -137 -35 -307 -28 -99 3 -178
11 -185 17 -9 7 -42 8 -96 4 -45 -4 -147 -2 -226 4 -122 9 -147 8 -159 -4 -16
-15 -31 -112 -35 -216 -4 -81 2 -110 19 -110 10 0 13 -17 12 -67 0 -38 -3 -72
-6 -77 -9 -15 -10 -66 -5 -139 6 -75 24 -96 52 -61 9 11 30 29 46 40 29 20
255 114 275 114 5 0 9 -31 9 -71 -1 -52 3 -76 15 -87 14 -14 20 -12 68 20 61
42 111 68 130 68 7 0 36 12 63 25 63 31 125 34 125 6 0 -25 10 -31 79 -47 102
-23 316 -89 338 -104 l22 -14 -39 -73 c-46 -82 -48 -93 -20 -93 11 0 20 4 20
10 0 19 71 120 95 136 14 9 22 20 19 25 -5 9 43 113 71 153 22 30 197 207 222
223 13 8 23 21 23 28 0 17 -65 55 -94 55 -40 0 -47 17 -90 210 -34 151 -41
237 -26 300 10 40 9 54 0 65 -17 20 -19 20 -76 -16z m22 -90 c7 -12 -15 -31
-31 -26 -5 2 -11 11 -13 20 -4 19 32 24 44 6z m13 -89 c0 -10 -3 -8 -9 5 -12
27 -12 43 0 25 5 -8 9 -22 9 -30z m-18 -50 c15 -30 38 -97 50 -150 12 -52 30
-118 41 -147 l19 -51 -26 -38 c-14 -21 -40 -68 -57 -104 -62 -131 -118 -245
-127 -260 -9 -12 -13 -11 -33 7 -13 11 -53 30 -89 42 -37 12 -74 30 -82 39 -9
10 -48 28 -86 42 -39 13 -71 28 -71 32 0 4 -7 8 -15 8 -12 0 -12 5 1 42 8 23
21 83 30 133 22 135 39 190 56 187 9 -1 33 16 54 38 21 23 81 75 132 117 50
43 92 80 92 85 0 11 52 38 69 35 8 -1 26 -27 42 -57z m-222 -43 c-65 -58 -122
-107 -126 -107 -2 0 -7 10 -12 23 -8 20 -1 26 78 69 47 25 88 46 91 47 3 0
-11 -14 -31 -32z m-924 -68 c44 -1 84 -4 89 -7 9 -5 -196 -72 -220 -72 -12 0
-24 76 -14 86 2 3 18 3 35 0 16 -3 66 -6 110 -7z m223 -61 c-5 -24 -12 -46
-16 -50 -13 -13 -332 -40 -332 -28 0 17 258 104 351 119 4 1 3 -18 -3 -41z
m132 13 c-30 -16 -65 -31 -77 -35 -20 -6 -21 -5 -11 27 l10 34 67 1 66 1 -55
-28z m360 8 c0 -4 -9 -32 -21 -61 -15 -38 -18 -58 -11 -69 6 -10 7 -30 1 -55
-5 -21 -16 -75 -24 -118 -8 -44 -20 -84 -26 -90 -9 -8 -10 -6 -4 9 5 11 14
106 20 210 7 105 13 191 14 191 6 5 51 -10 51 -17z m-87 -37 c3 -27 1 -82 -4
-123 -5 -41 -9 -96 -8 -124 1 -27 -4 -66 -11 -86 -12 -33 -18 -38 -64 -47 -28
-5 -104 -10 -170 -11 l-118 0 6 67 c8 72 57 184 103 234 31 32 22 52 -18 44
-16 -3 -29 -4 -29 -1 0 8 95 60 139 76 26 9 73 17 107 18 l61 1 6 -48z m-413
-106 c0 -7 3 -27 6 -43 l6 -29 -162 -12 c-180 -14 -231 -6 -139 22 30 9 95 28
146 44 109 33 143 37 143 18z m80 7 c-1 -13 -29 -59 -30 -48 0 6 -3 20 -6 33
-5 18 -2 22 15 22 11 0 21 -3 21 -7z m-368 -21 c-30 -9 -52 -19 -49 -22 3 -3
-8 -6 -24 -7 -25 -2 -29 1 -29 22 0 24 2 25 78 24 l77 0 -53 -17z m1421 -72
c5 -4 -24 -45 -65 -90 -40 -45 -89 -102 -107 -126 -19 -24 -36 -42 -38 -40 -6
6 87 199 114 239 24 34 30 37 57 31 17 -3 35 -10 39 -14z m-1124 -67 c-1 -16
-4 -41 -8 -58 -6 -29 -7 -30 -78 -31 -39 -2 -117 -5 -172 -8 -56 -3 -101 -3
-101 1 0 5 18 21 40 36 32 22 53 29 102 31 72 4 143 23 159 43 6 7 22 13 35
13 20 0 24 -5 23 -27z m-325 -19 c-37 -30 -55 -31 -50 -1 3 12 5 24 5 27 1 4
17 4 37 2 l36 -4 -28 -24z m160 -113 c3 -5 -32 -23 -78 -40 -47 -18 -95 -41
-109 -51 -13 -11 -27 -16 -31 -13 -8 9 -7 65 2 80 4 7 51 16 107 21 55 5 101
10 102 11 1 0 4 -3 7 -8z m262 -56 c-26 -13 -53 -28 -59 -34 -18 -18 -27 -13
-27 14 0 25 7 29 45 26 12 -1 32 3 45 8 47 19 45 9 -4 -14z m421 -9 c34 -11
64 -25 67 -32 4 -10 -3 -9 -29 2 -19 8 -57 19 -85 25 -28 6 -47 15 -44 20 3 6
11 9 17 7 7 -2 40 -12 74 -22z m386 -21 c-3 -9 -8 -14 -10 -11 -3 3 -2 9 2 15
9 16 15 13 8 -4z"/>
</g>
</svg>
