<?xml version="1.0" standalone="no"?>
<!DOCTYPE svg PUBLIC "-//W3C//DTD SVG 20010904//EN"
 "http://www.w3.org/TR/2001/REC-SVG-20010904/DTD/svg10.dtd">
<svg version="1.0" xmlns="http://www.w3.org/2000/svg"
 width="254.000000pt" height="234.000000pt" viewBox="0 0 254.000000 234.000000"
 preserveAspectRatio="xMidYMid meet">
<metadata>
Created by potrace 1.16, written by Peter Selinger 2001-2019
</metadata>
<g transform="translate(0.000000,234.000000) scale(0.100000,-0.100000)"
fill="#000000" stroke="none">
<path d="M800 2253 c-35 -2 -70 -9 -76 -14 -9 -7 -13 -47 -13 -126 1 -63 -2
-118 -6 -121 -9 -9 -188 -4 -251 7 -27 5 -68 7 -91 4 -36 -5 -41 -3 -46 18 -5
18 -9 20 -21 10 -21 -18 -34 -64 -41 -157 -8 -95 2 -107 57 -68 41 29 112 42
272 50 l119 6 -6 -98 c-4 -55 -7 -134 -7 -176 l0 -78 -102 0 c-95 0 -187 9
-248 24 -14 3 -31 2 -39 -3 -17 -11 -28 -89 -21 -151 4 -38 9 -46 28 -48 17
-3 25 2 29 16 6 23 26 28 168 37 50 3 110 9 134 12 l43 6 -6 -44 c-4 -24 -9
-75 -12 -114 -2 -38 -9 -104 -15 -145 -5 -41 -12 -109 -14 -150 -2 -41 -7
-100 -9 -130 -3 -30 -8 -91 -11 -134 -3 -44 -7 -81 -9 -84 -10 -9 -130 18
-148 35 -16 15 -20 15 -33 2 -8 -8 -15 -26 -15 -39 4 -295 5 -315 19 -315 11
0 27 18 37 43 3 6 112 43 232 77 70 20 167 50 216 66 49 16 136 38 194 49 58
11 155 32 215 46 61 14 160 29 221 34 99 9 146 15 280 38 22 4 41 12 43 17 7
22 -303 3 -417 -25 -19 -5 -96 -11 -170 -15 -74 -3 -148 -8 -165 -10 -29 -4
-283 -8 -409 -6 -56 1 -58 2 -51 24 4 12 8 33 10 47 13 137 18 160 34 161 92
8 308 20 398 23 113 3 133 -4 133 -43 l0 -29 -147 -1 c-82 -1 -176 -5 -210 -9
-34 -5 -86 -7 -116 -5 -38 2 -58 -1 -66 -11 -25 -30 17 -33 239 -17 91 7 192
11 225 9 l60 -3 -3 -30 c-2 -16 -6 -33 -10 -36 -4 -4 -104 -10 -222 -13 -230
-7 -281 -12 -292 -30 -14 -21 -8 -22 55 -15 34 4 148 11 252 14 105 4 193 9
198 12 4 2 7 -1 7 -6 0 -19 36 -12 56 10 14 16 15 23 7 26 -18 7 -16 53 4 75
10 11 12 18 4 18 -17 0 -3 69 20 99 11 13 19 32 19 42 0 10 5 21 11 25 6 3 9
14 6 24 -2 9 -1 41 4 71 5 30 11 83 13 119 3 36 10 81 15 100 21 81 55 186 63
196 5 7 61 14 136 18 70 4 199 15 287 26 88 10 190 21 228 24 l67 5 -6 -42
c-3 -23 -8 -48 -10 -56 -3 -8 -10 -73 -16 -145 -6 -72 -12 -147 -14 -166 -16
-141 -16 -200 -2 -200 24 0 38 46 48 149 9 95 26 169 74 318 13 43 32 105 41
138 16 59 42 143 84 278 11 37 21 75 21 83 0 27 50 118 77 140 45 36 23 46
-84 40 -52 -3 -98 -8 -102 -10 -4 -3 -25 -1 -46 4 -29 7 -52 4 -94 -10 -74
-25 -173 -37 -481 -55 -270 -17 -525 -20 -702 -9 l-107 7 5 31 c8 41 34 125
49 156 7 14 16 40 20 58 6 27 4 32 -12 30 -10 -1 -47 -3 -83 -5z m19 -120
c-11 -38 -24 -87 -29 -110 -7 -28 -16 -43 -26 -43 -14 0 -16 14 -12 101 4 108
9 119 59 119 l26 0 -18 -67z m1346 -133 c3 -5 1 -54 -5 -107 -5 -54 -12 -149
-14 -212 -3 -93 -6 -115 -20 -123 -9 -5 -20 -7 -25 -4 -4 3 -70 1 -147 -4 -76
-5 -191 -12 -254 -15 -63 -3 -196 -10 -295 -15 -99 -6 -285 -10 -414 -10
l-234 0 7 43 c3 23 13 100 21 170 8 71 17 132 20 137 3 4 64 11 137 15 73 3
232 17 353 30 121 13 272 27 335 30 250 13 452 34 469 48 15 14 37 24 53 26 4
1 10 -3 13 -9z m195 -4 c0 -7 -7 -27 -15 -42 -8 -16 -18 -45 -21 -64 -6 -40
-28 -118 -85 -305 -22 -71 -43 -143 -48 -160 -5 -16 -12 -45 -16 -62 -4 -18
-10 -35 -15 -38 -9 -6 -4 53 11 130 6 28 12 84 14 125 13 263 17 320 25 359 8
45 25 64 50 56 8 -2 22 0 30 5 23 15 70 12 70 -4z m-1662 -52 c19 -6 15 -44
-5 -44 -65 -1 -256 -18 -368 -32 -17 -3 -19 2 -16 37 2 22 5 43 8 47 4 8 355
0 381 -8z m75 -24 c-3 -11 -12 -20 -19 -20 -8 0 -14 9 -14 20 0 13 7 20 19 20
14 0 18 -5 14 -20z m425 6 c3 -4 -15 -6 -39 -7 -24 0 -66 -2 -94 -4 -251 -18
-255 -17 -255 4 0 20 4 20 191 16 105 -2 194 -6 197 -9z m-435 -82 c0 -5 -4
-49 -8 -99 -7 -104 -23 -217 -32 -225 -7 -6 6 285 14 318 5 21 30 26 26 6z
m854 -340 c-3 -3 -12 -4 -19 -1 -8 3 -5 6 6 6 11 1 17 -2 13 -5z m-129 -11
c-10 -2 -26 -2 -35 0 -10 3 -2 5 17 5 19 0 27 -2 18 -5z m-293 -14 c54 -3
-158 -26 -332 -36 -106 -6 -112 -5 -109 13 2 15 14 20 57 24 46 4 290 4 384
-1z m-505 -24 c0 -22 -4 -25 -37 -26 -21 0 -58 -2 -83 -4 -25 -2 -89 -6 -143
-9 -87 -5 -98 -3 -93 10 3 9 6 24 6 35 0 18 9 19 175 19 l175 0 0 -25z m690
-13 c0 -3 -10 -34 -21 -69 -20 -58 -24 -63 -50 -63 -24 0 -29 4 -29 24 0 15 7
26 20 29 23 6 27 27 6 27 -36 0 -29 57 7 62 26 4 67 -2 67 -10z m-136 -25 c2
-34 10 -33 -344 -52 -58 -3 -117 -8 -132 -11 -21 -4 -26 -2 -23 13 2 10 4 21
4 25 1 8 56 16 171 23 47 3 120 10 164 16 43 6 80 8 83 6 2 -3 16 -1 31 3 38
11 45 8 46 -23z m-4 -86 l0 -28 -107 -7 c-179 -10 -374 -9 -386 3 -16 16 -9
18 72 25 41 4 78 9 83 12 4 3 74 7 155 10 81 4 150 8 152 10 15 14 31 0 31
-25z m1 -96 c1 -25 1 -63 1 -85 0 -22 0 -47 -1 -55 -1 -13 -26 -15 -173 -15
-95 1 -215 -2 -267 -6 l-93 -7 7 34 c4 19 8 35 9 35 0 1 75 5 166 8 188 7 260
15 260 27 0 5 -94 9 -210 9 l-210 0 0 29 c0 17 3 32 8 34 4 3 63 8 132 12 143
8 339 21 358 23 8 1 12 -13 13 -43z m75 13 c-4 -18 -12 -63 -18 -100 -7 -38
-15 -68 -18 -68 -4 0 -5 179 -1 198 1 1 11 2 22 2 19 0 21 -4 15 -32z m-26
-222 c0 -62 -17 -67 -19 -6 0 28 4 50 9 50 6 0 10 -20 10 -44z m-52 -18 l-3
-43 -65 1 c-36 0 -156 1 -267 2 l-203 2 0 24 c0 35 17 43 95 45 38 2 71 4 73
5 1 2 86 4 188 5 l185 2 -3 -43z m-30 -78 c25 0 29 -3 25 -20 -3 -11 -10 -20
-17 -21 -6 0 -60 -2 -120 -4 -59 -2 -175 -6 -257 -10 l-149 -6 0 25 c0 14 1
27 3 27 10 6 274 14 368 12 64 -2 130 -3 147 -3z m11 -354 c-3 -3 -46 -13 -95
-21 -49 -9 -102 -20 -119 -25 -16 -5 -73 -22 -125 -39 -52 -16 -126 -37 -165
-46 -38 -10 -108 -28 -154 -41 -46 -13 -85 -23 -87 -22 -1 2 -4 43 -6 92 l-3
90 239 2 c131 2 240 5 242 6 5 6 279 10 273 4z"/>
</g>
</svg>
