<?xml version="1.0" standalone="no"?>
<!DOCTYPE svg PUBLIC "-//W3C//DTD SVG 20010904//EN"
 "http://www.w3.org/TR/2001/REC-SVG-20010904/DTD/svg10.dtd">
<svg version="1.0" xmlns="http://www.w3.org/2000/svg"
 width="205.000000pt" height="159.000000pt" viewBox="0 0 205.000000 159.000000"
 preserveAspectRatio="xMidYMid meet">
<metadata>
Created by potrace 1.16, written by Peter Selinger 2001-2019
</metadata>
<g transform="translate(0.000000,159.000000) scale(0.100000,-0.100000)"
fill="#000000" stroke="none">
<path d="M1835 1484 c-89 -26 -201 -36 -197 -16 1 8 -10 12 -32 12 -44 0 -66
-9 -66 -25 0 -19 -76 -72 -230 -160 -74 -42 -184 -110 -245 -150 l-110 -72
-150 -11 c-158 -11 -243 -9 -338 10 -65 12 -79 25 -52 45 22 16 16 17 -20 3
-19 -7 -24 -7 -19 2 5 8 2 9 -9 5 -18 -7 -82 16 -92 33 -9 15 -41 12 -56 -6
-7 -9 -14 -33 -15 -53 -2 -31 -1 -33 8 -15 9 20 12 21 36 8 14 -7 30 -10 35
-7 6 3 7 1 4 -4 -4 -6 6 -16 23 -22 17 -5 30 -12 30 -15 0 -10 -100 -57 -109
-51 -5 2 -15 -3 -22 -12 -10 -11 -14 -48 -14 -125 0 -96 2 -109 18 -114 11 -4
16 -12 13 -21 -3 -8 -9 -39 -12 -68 -6 -47 -4 -54 14 -64 17 -9 19 -16 12 -46
-4 -19 -6 -35 -3 -35 3 0 -2 -12 -12 -26 -15 -24 -15 -28 -1 -59 9 -18 16 -54
16 -79 0 -80 28 -76 150 21 112 89 132 95 350 100 172 4 187 3 220 -16 19 -11
58 -31 85 -45 28 -14 61 -32 75 -39 32 -19 114 -52 165 -68 22 -7 54 -23 71
-35 17 -12 50 -27 75 -34 76 -19 99 -32 115 -61 11 -22 22 -29 44 -29 34 0 39
17 16 53 -23 35 -20 208 5 292 4 17 11 44 13 60 3 17 24 95 46 175 22 80 56
204 75 275 77 292 124 423 162 451 19 13 13 48 -7 51 -8 1 -37 -5 -65 -13z
m15 -38 c0 -2 -11 -28 -24 -57 -28 -65 -115 -335 -117 -364 0 -2 -9 -35 -21
-72 -11 -38 -26 -90 -33 -118 -38 -145 -53 -203 -59 -228 -4 -16 -11 -25 -17
-21 -12 7 -7 296 7 469 8 97 7 183 -2 283 -7 85 -1 101 39 97 26 -2 191 8 220
14 4 0 7 -1 7 -3z m-303 -344 c-4 -37 -11 -193 -14 -347 -9 -381 -9 -404 -2
-452 4 -24 3 -43 -1 -43 -3 0 -29 22 -57 50 -32 31 -46 53 -40 59 6 6 5 27 -2
58 -11 46 -10 127 4 338 10 156 15 218 24 277 12 91 14 288 2 288 -20 0 -39
-106 -46 -249 -4 -79 -12 -177 -19 -218 -8 -46 -13 -146 -12 -263 1 -105 -1
-190 -5 -190 -16 0 -38 32 -43 63 -13 79 -16 180 -6 192 8 9 8 15 0 20 -17 11
-12 35 6 28 15 -5 16 0 9 43 -4 27 -7 58 -6 69 2 11 3 28 4 38 1 9 5 17 10 17
4 0 7 6 6 13 -2 6 1 39 4 72 8 63 17 186 21 269 2 49 3 50 77 107 l74 56 10
-114 c6 -65 7 -143 2 -181z m-293 96 c-27 -29 -79 -91 -114 -137 -81 -105
-130 -161 -140 -161 -5 0 -18 17 -31 38 -12 20 -31 47 -41 59 -20 21 -20 21 3
28 12 4 76 44 143 89 135 91 207 135 220 136 5 0 -13 -24 -40 -52z m71 -255
c-14 -104 -29 -250 -32 -325 -3 -76 -10 -138 -14 -138 -20 0 -28 38 -15 66 10
20 16 89 20 224 4 107 8 215 10 240 3 25 7 76 10 113 3 47 10 75 23 89 18 20
18 19 21 -31 2 -28 -9 -135 -23 -238z m-56 167 c-4 -25 -11 -130 -14 -235 -7
-229 -13 -313 -26 -321 -5 -3 -14 8 -20 25 -6 17 -16 31 -22 31 -7 0 -8 50 -2
163 4 89 8 192 9 228 2 60 5 70 40 113 22 25 40 45 42 44 1 -2 -2 -23 -7 -48z
m-433 -112 c4 -13 14 -28 23 -35 14 -11 11 -12 -19 -13 -19 -1 -60 -3 -90 -5
-358 -25 -507 -22 -480 9 6 8 34 24 63 36 48 21 62 22 192 17 77 -3 160 -2
185 2 87 16 118 13 126 -11z m329 10 c-4 -15 -14 -194 -15 -278 l-1 -55 -24
28 c-14 16 -23 33 -20 38 4 5 3 14 0 19 -12 19 -41 -8 -53 -47 -13 -42 -109
-165 -144 -184 -22 -12 -129 -21 -398 -34 l-135 -6 41 38 c117 107 99 100 269
108 268 12 335 21 335 46 0 8 -16 9 -52 5 -72 -8 -155 -14 -333 -21 -198 -8
-295 -21 -315 -41 -14 -15 -8 -16 70 -9 51 4 81 3 75 -3 -52 -47 -157 -132
-164 -132 -14 0 -22 31 -16 64 4 17 7 38 8 46 4 24 69 100 99 116 15 8 39 14
53 14 29 0 45 27 24 41 -8 5 40 6 121 2 74 -4 159 -6 189 -5 57 3 141 33 141
51 0 14 -10 14 -63 1 -27 -7 -124 -8 -276 -3 l-233 8 83 43 c81 42 83 43 218
50 235 12 253 11 268 -17 6 -14 23 -31 37 -38 29 -15 30 -17 16 -43 -7 -13 -5
-21 6 -31 14 -11 19 -10 35 9 15 19 22 21 39 12 39 -21 58 19 20 42 -11 7 -20
18 -20 25 0 7 24 44 53 82 49 66 71 87 62 59z m-822 -117 l72 -6 -80 -43 c-44
-23 -82 -42 -85 -42 -3 0 -3 25 -2 55 2 33 8 53 14 49 5 -3 42 -9 81 -13z
m1064 -153 c-2 -13 -4 -5 -4 17 -1 22 1 32 4 23 2 -10 2 -28 0 -40z m-1033 22
l41 0 -30 -16 c-16 -8 -52 -36 -79 -62 l-48 -47 7 55 c4 30 8 61 8 68 0 10 9
12 30 8 16 -3 48 -6 71 -6z m764 -152 c17 -28 32 -57 32 -64 0 -16 107 -122
204 -203 64 -53 82 -80 32 -47 -14 9 -51 25 -83 37 -32 11 -77 29 -100 40 -24
10 -45 19 -49 19 -3 0 -20 11 -37 24 -18 13 -43 27 -57 31 -41 12 -80 45 -80
66 0 17 -4 19 -22 13 -21 -6 -22 -5 -8 12 30 40 115 124 125 123 5 0 25 -23
43 -51z m-730 -158 l47 0 -35 -21 c-19 -12 -53 -37 -76 -55 -48 -40 -54 -41
-54 -14 0 11 -7 37 -15 56 -13 32 -13 35 0 30 8 -3 25 -1 37 4 13 5 29 7 36 4
8 -2 35 -4 60 -4z"/>
</g>
</svg>
