<?xml version="1.0" standalone="no"?>
<!DOCTYPE svg PUBLIC "-//W3C//DTD SVG 20010904//EN"
 "http://www.w3.org/TR/2001/REC-SVG-20010904/DTD/svg10.dtd">
<svg version="1.0" xmlns="http://www.w3.org/2000/svg"
 width="246.000000pt" height="218.000000pt" viewBox="0 0 246.000000 218.000000"
 preserveAspectRatio="xMidYMid meet">
<metadata>
Created by potrace 1.16, written by Peter Selinger 2001-2019
</metadata>
<g transform="translate(0.000000,218.000000) scale(0.100000,-0.100000)"
fill="#000000" stroke="none">
<path d="M955 1970 c-4 -6 -4 -14 -1 -17 3 -3 1 -14 -5 -24 -5 -10 -10 -60
-11 -111 -1 -56 -9 -121 -20 -162 -10 -38 -16 -71 -13 -75 4 -3 23 4 44 16
l38 22 -12 -37 c-13 -38 -18 -66 -16 -92 1 -15 31 -17 201 -8 l65 3 -3 -45
c-4 -69 -5 -70 -72 -70 l-60 0 -1 38 c-1 20 -1 42 1 47 1 7 -2 7 -9 0 -8 -8
-16 -39 -20 -78 -1 -4 -22 -7 -48 -5 l-48 3 2 45 1 45 -13 -30 c-8 -16 -14
-36 -15 -43 0 -7 -7 -15 -15 -18 -12 -5 -13 -10 -4 -20 15 -19 -7 -124 -27
-124 -8 0 -14 -7 -14 -16 0 -8 5 -12 10 -9 17 10 11 -31 -19 -153 -16 -65 -31
-130 -33 -147 -1 -16 -10 -35 -18 -41 -12 -10 -12 -14 -1 -28 12 -14 10 -16
-10 -16 -13 0 -34 -8 -45 -18 -22 -18 -77 -111 -98 -166 -31 -83 -70 -135
-126 -164 -30 -16 -90 -47 -132 -70 -73 -38 -200 -86 -259 -97 -41 -8 -42 -30
-1 -73 56 -60 122 -143 122 -153 0 -16 36 -10 53 9 10 10 17 22 17 26 0 17
262 335 297 360 25 18 33 19 136 7 60 -6 128 -16 151 -21 22 -5 87 -14 143
-20 115 -12 236 -36 265 -51 16 -9 79 -23 142 -31 38 -6 26 21 -19 37 -31 12
-45 23 -45 36 0 11 5 19 11 19 17 0 98 -53 99 -64 0 -6 -12 -23 -27 -38 -33
-35 -22 -55 23 -38 16 6 74 11 129 11 55 -1 107 -1 115 0 28 2 135 -11 167
-20 21 -6 35 -5 42 2 14 14 14 54 0 63 -15 9 -5 91 26 214 13 53 27 118 29
144 7 71 56 328 67 351 5 11 12 45 15 75 8 75 9 84 16 95 8 13 36 120 43 166
10 60 43 211 68 309 25 97 51 156 76 176 8 6 11 16 7 23 -6 9 -39 10 -134 4
-230 -14 -512 -6 -546 14 -5 4 -123 10 -260 15 -138 4 -262 9 -276 12 -108 16
-138 17 -145 6z m433 -45 c90 -3 205 -12 255 -20 51 -8 156 -16 234 -17 79 -2
143 -6 143 -10 0 -5 -20 -8 -45 -8 -24 0 -77 -4 -117 -9 -40 -6 -129 -17 -198
-26 -151 -20 -359 -69 -545 -130 -76 -25 -140 -44 -142 -42 -7 8 17 240 26
251 6 7 7 16 3 20 -4 4 45 5 108 2 63 -3 189 -8 278 -11z m737 -36 c-22 -4
-53 -8 -70 -7 -29 0 -29 0 -5 8 14 4 45 8 70 8 l45 0 -40 -9z m107 -18 c10 -1
-24 -86 -66 -171 -18 -36 -41 -84 -51 -107 -12 -28 -24 -43 -36 -43 -9 0 -24
-3 -32 -6 -11 -4 -14 0 -12 13 15 75 14 73 47 71 24 -2 33 2 36 14 2 12 -6 19
-32 24 -32 6 -35 9 -30 33 12 53 12 54 54 48 27 -3 43 -1 51 9 20 25 -3 39
-42 25 -47 -16 -48 -15 -46 32 l2 42 60 11 c33 5 67 9 75 8 8 -1 18 -3 22 -3z
m-182 -36 c-6 -8 -9 -19 -5 -24 19 -31 -53 -73 -83 -49 -9 8 -16 8 -24 0 -7
-7 -34 -12 -60 -12 -45 0 -48 2 -48 25 0 14 -4 25 -10 25 -5 0 -10 -6 -10 -12
0 -26 -19 -40 -55 -42 -23 -1 -39 4 -42 12 -4 8 -9 9 -17 3 -10 -8 -76 -16
-101 -11 -5 1 -40 1 -77 0 -40 -1 -68 3 -68 9 0 11 18 17 83 26 27 4 59 9 70
12 12 2 74 11 137 19 63 8 142 18 175 22 33 5 80 9 103 10 37 1 42 -1 32 -13z
m-630 -85 c0 -5 -7 -10 -16 -10 -8 0 -12 5 -9 10 3 6 10 10 16 10 5 0 9 -4 9
-10z m610 -29 c0 -36 -23 -61 -56 -61 -43 0 -23 76 23 83 15 2 29 5 31 6 1 0
2 -12 2 -28z m-105 -12 c-10 -51 -14 -54 -65 -57 -54 -3 -58 2 -44 56 6 19 13
22 60 22 48 0 52 -2 49 -21z m-505 -16 c0 -46 -9 -53 -72 -53 l-60 0 7 33 c7
30 6 31 -9 12 -8 -11 -16 -25 -16 -32 0 -8 -34 -13 -107 -16 -125 -6 -133 -7
-133 -20 0 -5 17 -7 38 -5 l38 3 -9 -50 c-5 -27 -13 -54 -18 -59 -4 -5 -29 -5
-54 -1 l-47 7 7 36 c11 60 31 90 67 98 18 3 51 15 73 24 86 38 131 48 213 46
77 -1 82 -2 82 -23z m140 10 c-1 -54 -10 -63 -66 -63 -53 0 -53 0 -49 30 5 45
12 50 66 50 40 0 49 -3 49 -17z m106 -3 c-3 -11 -9 -29 -12 -40 -4 -16 -14
-20 -44 -20 -27 0 -38 4 -36 13 3 6 7 24 10 40 6 24 11 27 47 27 36 0 40 -2
35 -20z m126 -15 c-2 -16 -5 -31 -5 -31 -1 -1 -26 -4 -54 -8 -51 -6 -53 -6
-53 18 0 38 26 57 74 54 39 -3 41 -4 38 -33z m221 -87 c-7 -53 -11 -58 -56
-64 l-37 -4 7 47 c7 54 15 63 60 63 31 0 31 0 26 -42z m-111 -13 c-4 -50 -5
-50 -70 -59 l-43 -6 7 47 c3 27 8 51 10 54 2 3 25 6 51 8 l48 2 -3 -46z m-503
19 c2 -2 0 -23 -3 -48 -8 -49 -21 -55 -95 -47 l-33 3 6 45 c3 25 8 49 11 53 5
8 104 2 114 -6z m242 7 c6 -1 -5 -78 -12 -85 -2 -2 -17 -6 -34 -8 -29 -3 -30
-2 -28 37 2 22 5 45 7 50 3 9 39 12 67 6z m134 -28 c-11 -63 -11 -63 -68 -63
l-53 0 4 38 c5 47 24 62 79 62 l44 0 -6 -37z m387 10 c-5 -10 -17 -56 -26
-103 -9 -47 -30 -139 -46 -205 -25 -104 -45 -199 -81 -385 -5 -25 -16 -94 -24
-155 -15 -113 -18 -125 -54 -257 -12 -43 -21 -81 -20 -85 5 -29 -2 -44 -18
-39 -10 3 -76 6 -148 8 -71 1 -135 6 -142 10 -8 7 -4 20 15 49 17 26 29 36 36
29 13 -13 46 17 46 43 0 20 -1 19 -26 -4 l-26 -24 12 27 c9 19 21 28 44 30 28
3 36 21 11 24 -5 1 -14 2 -18 3 -5 0 11 36 34 79 87 160 129 244 129 257 0 7
18 49 40 92 50 99 58 118 170 401 51 128 95 230 97 228 3 -2 0 -13 -5 -23z
m-907 0 c-4 -10 -9 -33 -12 -50 -5 -32 -8 -33 -52 -34 -25 0 -56 -2 -69 -3
-22 -3 -23 0 -17 33 7 37 13 64 14 69 1 1 33 2 72 2 64 0 70 -2 64 -17z m289
-25 c-4 -24 -8 -45 -10 -46 -1 -2 -28 -6 -58 -8 -62 -4 -63 -2 -50 65 6 31 7
31 65 31 l59 0 -6 -42z m452 -134 c-6 -68 -5 -76 9 -70 20 7 20 9 -38 -139
-57 -144 -73 -146 -69 -10 3 132 9 158 32 152 20 -5 55 25 43 36 -4 4 -22 4
-41 1 -31 -6 -34 -5 -29 10 4 10 7 35 7 57 l0 39 46 0 47 0 -7 -76z m84 73 c0
-2 -8 -21 -18 -43 -10 -21 -23 -50 -30 -64 l-11 -25 4 25 c2 14 4 44 4 68 1
38 3 42 26 42 14 0 25 -1 25 -3z m-324 -44 c-3 -21 -6 -48 -6 -59 0 -18 -7
-23 -37 -26 -21 -3 -47 -2 -58 1 -19 5 -20 11 -12 58 l8 52 42 4 c23 2 48 4
56 5 10 2 12 -7 7 -35z m126 -13 c-2 -25 -7 -48 -10 -52 -4 -4 -26 -9 -49 -11
-41 -4 -43 -3 -43 23 0 15 3 42 6 59 6 31 8 32 53 29 l46 -3 -3 -45z m-505
-12 c-4 -26 -9 -53 -12 -58 -3 -6 -31 -10 -61 -10 -53 0 -54 1 -54 29 0 16 3
43 6 60 6 31 7 31 66 30 l60 -2 -5 -49z m148 2 c-1 -26 -6 -53 -9 -59 -9 -13
-126 -15 -126 -2 0 5 5 32 12 60 l11 50 58 0 57 -1 -3 -48z m98 3 c-7 -61 -17
-73 -60 -73 -28 0 -33 3 -29 18 2 9 8 36 11 60 7 41 8 42 46 42 l39 0 -7 -47z
m247 -122 c0 -46 -2 -50 -31 -60 -62 -21 -69 -17 -69 43 0 52 1 55 28 59 73
11 72 11 72 -42z m-126 -13 c-2 -29 -7 -55 -11 -59 -5 -3 -29 -9 -55 -12 l-48
-5 0 47 c0 60 7 69 55 74 22 2 45 4 52 5 8 2 11 -13 7 -50z m-695 -18 c-2 -63
-2 -62 -54 -62 -65 0 -63 -2 -53 50 14 73 14 72 63 72 l46 0 -2 -60z m159 46
c2 -3 1 -28 -3 -55 l-7 -51 -54 0 c-30 0 -57 1 -61 3 -13 4 -4 100 9 108 12 8
107 3 116 -5z m144 -26 c-8 -71 -16 -80 -77 -80 -49 0 -56 2 -52 18 3 9 8 34
11 54 7 39 16 44 86 42 34 -1 35 -2 32 -34z m256 -12 c-1 -29 -7 -56 -13 -60
-5 -4 -27 -8 -49 -8 l-38 0 7 48 c7 53 25 72 68 72 29 0 29 0 25 -52z m-103 5
c-11 -74 -10 -73 -81 -73 -71 0 -73 2 -52 70 l13 40 63 0 63 0 -6 -37z m339
-79 c12 -5 16 -20 16 -60 l0 -54 -34 0 c-19 0 -41 -3 -50 -6 -13 -5 -16 1 -16
29 0 19 3 49 6 66 5 26 11 31 34 31 16 0 35 -3 44 -6z m-105 -53 c-1 -28 -5
-54 -8 -59 -3 -5 -30 -13 -60 -17 l-53 -7 5 63 c3 35 6 65 6 67 1 1 26 2 56 2
l55 0 -1 -49z m-695 14 c3 -8 0 -28 -6 -47 -6 -18 -12 -39 -14 -45 -2 -9 -24
-13 -64 -13 -41 0 -60 4 -60 13 0 10 14 71 24 102 5 15 114 6 120 -10z m142
-11 c0 -16 -5 -44 -13 -61 -13 -32 -15 -33 -74 -33 -61 0 -61 0 -55 26 4 15
10 40 13 58 8 40 14 43 76 41 50 -2 52 -3 53 -31z m304 20 c0 -14 1 -14 16 0
9 10 33 16 61 16 37 0 44 -3 39 -16 -3 -9 -6 -36 -6 -60 l0 -44 -55 0 c-50 0
-55 2 -56 23 l0 22 -11 -21 c-11 -23 -60 -35 -114 -27 l-30 5 12 56 c7 32 13
58 13 60 1 1 30 2 66 2 52 0 65 -3 65 -16z m-165 -41 c-3 -27 -10 -52 -15 -57
-14 -14 -120 -21 -120 -8 0 6 5 33 12 61 l11 51 60 0 59 0 -7 -47z m200 -95
l65 4 0 -43 c0 -73 -3 -74 -145 -74 -70 0 -129 3 -131 6 -2 4 1 30 7 58 l10
50 62 3 c34 2 63 1 65 -2 1 -3 31 -4 67 -2z m199 -40 c-4 -29 -10 -57 -15 -62
-4 -5 -28 -10 -51 -10 l-43 -1 -3 42 c-5 66 9 83 69 83 l50 0 -7 -52z m136 32
c0 -11 7 -20 15 -20 12 0 12 -5 -3 -31 -14 -25 -25 -32 -52 -34 -19 -1 -46 -6
-59 -10 -23 -8 -24 -7 -18 25 4 18 7 45 7 61 0 28 1 29 55 29 48 0 55 -2 55
-20z m-704 -10 c-3 -8 -7 -30 -11 -47 -7 -33 -7 -33 -66 -33 -64 0 -71 8 -50
64 10 25 27 31 93 31 29 0 37 -4 34 -15z m144 -6 c0 -12 -3 -36 -6 -53 -6 -31
-7 -31 -70 -31 -71 0 -73 2 -54 72 l11 37 59 -2 c54 -1 60 -3 60 -23z m-296
-21 c-3 -21 -9 -41 -13 -45 -10 -12 -120 3 -116 16 2 6 6 23 9 39 6 26 9 27
67 27 l60 0 -7 -37z m-17 -110 c-7 -43 -20 -53 -69 -53 -20 0 -40 -4 -43 -10
-4 -6 13 -10 45 -10 l51 0 -7 -37 c-4 -21 -8 -40 -10 -42 -4 -4 -28 7 -69 32
-46 27 -46 28 -35 42 6 7 8 20 4 29 -3 9 -3 32 0 51 l7 35 66 0 66 0 -6 -37z
m98 27 c39 0 49 -17 30 -53 -7 -14 -11 -28 -7 -31 7 -8 -38 -8 -76 0 -28 6
-31 9 -26 38 9 51 13 58 30 52 9 -3 31 -6 49 -6z m745 -6 c0 -2 -11 -32 -24
-66 -27 -74 -60 -131 -69 -121 -12 11 -8 68 5 81 9 9 9 15 0 24 -17 17 -15 75
3 85 14 8 85 6 85 -3z m-548 -24 c-7 -68 -9 -70 -60 -70 -73 0 -93 8 -86 34 3
12 7 31 9 42 2 10 4 20 4 22 1 2 31 2 69 0 65 -3 67 -4 64 -28z m158 10 c1
-12 3 -11 11 2 8 14 20 17 66 13 31 -3 58 -6 60 -8 1 -2 -2 -19 -9 -38 -6 -19
-12 -40 -14 -46 -2 -8 -21 -12 -54 -12 -39 1 -50 5 -50 18 -1 14 -2 14 -11 -1
-8 -14 -24 -18 -73 -18 -70 0 -75 4 -66 60 5 33 8 35 50 40 70 9 90 6 90 -10z
m265 -22 c-9 -52 -16 -58 -78 -58 -45 0 -48 2 -42 21 8 24 13 48 14 65 1 6 26
12 57 13 l56 2 -7 -43z m-610 -102 c-4 -17 -7 -36 -8 -43 -1 -20 -25 -23 -65
-10 -23 8 -36 18 -33 28 6 25 9 44 10 54 1 6 23 9 52 6 l51 -3 -7 -32z m133
14 c1 0 11 0 23 0 15 0 19 -5 16 -17 -3 -10 -8 -31 -12 -47 -6 -28 -6 -28 -70
-24 -35 2 -67 7 -71 10 -3 4 -3 25 1 47 7 44 20 51 75 39 19 -4 36 -7 38 -8z
m460 -39 c2 -31 8 -44 21 -48 16 -4 13 -13 -21 -79 -41 -77 -45 -80 -108 -68
-30 7 -31 8 -26 48 3 23 5 47 5 54 1 9 10 12 29 8 15 -3 34 -2 42 4 12 7 10
11 -10 18 -14 5 -31 7 -37 5 -16 -6 -18 60 -2 88 8 16 19 19 57 17 l47 -3 3
-44z m-143 6 c-15 -75 -5 -70 -136 -65 -66 3 -121 7 -124 9 -2 3 -1 23 2 46
l6 42 129 0 129 -1 -6 -31z m-730 -17 c-8 -24 20 -28 29 -4 5 14 8 14 23 -1 9
-10 29 -22 44 -27 27 -9 28 -10 14 -53 -11 -38 -11 -44 3 -50 18 -7 64 43 57
63 -6 15 -2 15 39 -2 34 -14 34 -15 29 -69 -6 -68 9 -83 44 -43 19 23 21 31
12 43 -7 8 15 0 49 -19 l62 -33 -6 -42 c-6 -38 -4 -43 14 -43 12 0 24 11 32
30 l12 30 28 -20 c16 -11 37 -20 48 -20 27 0 34 -13 26 -44 -5 -22 -9 -24 -25
-15 -27 14 -243 49 -309 49 -30 0 -78 6 -106 14 -28 7 -98 19 -155 26 -57 7
-106 14 -107 16 -2 1 12 37 32 79 20 42 36 80 36 84 0 12 58 71 70 71 7 0 9
-8 5 -20z m401 -60 c22 0 32 -4 30 -12 -3 -7 -7 -25 -10 -40 -4 -16 -12 -28
-18 -28 -6 0 -36 17 -65 37 -56 39 -56 59 1 48 16 -3 44 -5 62 -5z m312 -15
c2 -2 -1 -27 -8 -55 l-12 -50 -67 6 c-36 3 -91 9 -121 13 l-55 7 3 34 c4 60 0
59 134 54 67 -3 124 -7 126 -9z m-143 -125 c7 -12 -12 -12 -40 0 -18 8 -17 9
7 9 15 1 30 -3 33 -9z m119 -32 c7 -36 43 -36 39 0 -2 18 2 22 26 22 16 0 36
-3 45 -6 14 -5 14 -9 -1 -37 -9 -18 -24 -42 -33 -54 l-18 -23 -33 25 c-19 14
-45 30 -59 37 -35 17 -63 47 -57 61 3 8 19 11 45 9 35 -3 41 -7 46 -34z m-945
-75 c-41 -53 -197 -243 -222 -270 -16 -17 -36 -29 -43 -26 -16 6 -84 117 -84
136 0 12 32 29 80 42 35 10 249 115 256 126 3 5 10 9 16 9 6 0 5 -7 -3 -17z"/>
<path d="M1487 1163 c-4 -3 -7 -11 -7 -17 0 -6 5 -5 12 2 6 6 9 14 7 17 -3 3
-9 2 -12 -2z"/>
<path d="M1461 1024 c0 -11 3 -14 6 -6 3 7 2 16 -1 19 -3 4 -6 -2 -5 -13z"/>
</g>
</svg>
