<?xml version="1.0" standalone="no"?>
<!DOCTYPE svg PUBLIC "-//W3C//DTD SVG 20010904//EN"
 "http://www.w3.org/TR/2001/REC-SVG-20010904/DTD/svg10.dtd">
<svg version="1.0" xmlns="http://www.w3.org/2000/svg"
 width="273.000000pt" height="168.000000pt" viewBox="0 0 273.000000 168.000000"
 preserveAspectRatio="xMidYMid meet">
<metadata>
Created by potrace 1.16, written by Peter Selinger 2001-2019
</metadata>
<g transform="translate(0.000000,168.000000) scale(0.100000,-0.100000)"
fill="#000000" stroke="none">
<path d="M2285 1462 c-2 -2 -79 -6 -172 -8 -218 -5 -604 -25 -728 -38 -240
-25 -510 -34 -643 -22 -119 11 -570 17 -576 8 -5 -9 60 -30 94 -31 8 -1 206
-3 440 -5 375 -4 442 -2 570 14 80 11 226 24 325 30 99 6 198 13 220 15 22 2
128 4 235 5 191 1 282 -4 301 -15 5 -4 14 -3 20 0 20 13 129 16 129 4 0 -7 11
-9 31 -5 37 7 73 -9 65 -30 -3 -8 -10 -76 -16 -152 -17 -221 -18 -227 -24
-283 -6 -51 -8 -85 -21 -274 -12 -181 -17 -224 -32 -305 -9 -47 -17 -100 -17
-118 1 -26 -3 -31 -15 -26 -9 4 -23 6 -31 6 -8 -1 -106 -6 -217 -13 -249 -14
-241 -17 -224 99 9 61 16 249 12 320 -1 9 -8 11 -21 7 -11 -4 -208 -8 -438
-11 -229 -2 -447 -5 -484 -6 -42 -1 -72 3 -82 11 -19 16 -44 8 -53 -16 -12
-35 -64 -92 -110 -122 -25 -17 -50 -31 -53 -31 -7 0 -87 116 -109 158 -16 31
-40 28 -98 -12 -27 -18 -64 -37 -83 -41 -19 -4 -44 -13 -55 -20 -11 -7 -42
-21 -70 -30 -53 -19 -115 -60 -115 -76 0 -14 15 -11 38 9 12 10 40 24 64 32
24 7 57 19 75 26 17 8 36 14 41 14 5 0 43 13 83 30 73 29 89 30 89 5 0 -7 3
-15 8 -17 4 -2 18 -24 31 -51 35 -70 55 -90 82 -82 31 10 115 70 169 121 53
49 60 51 275 61 181 8 326 9 565 1 161 -5 197 -10 213 -32 12 -18 -4 -222 -29
-359 l-7 -39 124 6 c68 4 147 8 174 11 197 16 199 16 230 -11 34 -29 47 -27
51 7 2 13 5 47 8 74 8 75 15 127 22 155 3 14 10 93 14 175 11 196 36 511 46
572 2 17 7 71 10 120 6 106 8 120 17 129 17 17 4 34 -35 45 -38 11 -304 20
-313 11z"/>
<path d="M235 1231 c-36 -15 88 -25 299 -26 151 0 200 3 204 13 3 9 -43 12
-215 11 -120 -1 -229 1 -243 5 -14 3 -34 1 -45 -3z"/>
<path d="M195 1050 c-4 -6 -5 -13 -2 -16 2 -3 110 -6 238 -8 129 -2 241 -7
249 -10 20 -8 93 17 98 33 3 10 -13 12 -76 6 -107 -9 -407 -10 -458 -1 -28 5
-44 4 -49 -4z"/>
<path d="M194 838 c-16 -26 23 -31 268 -33 139 -2 261 -6 270 -10 18 -7 58 10
58 25 0 6 -72 10 -182 10 -180 1 -356 7 -390 14 -10 2 -21 0 -24 -6z"/>
</g>
</svg>
