<?xml version="1.0" standalone="no"?>
<!DOCTYPE svg PUBLIC "-//W3C//DTD SVG 20010904//EN"
 "http://www.w3.org/TR/2001/REC-SVG-20010904/DTD/svg10.dtd">
<svg version="1.0" xmlns="http://www.w3.org/2000/svg"
 width="256.000000pt" height="181.000000pt" viewBox="0 0 256.000000 181.000000"
 preserveAspectRatio="xMidYMid meet">
<metadata>
Created by potrace 1.16, written by Peter Selinger 2001-2019
</metadata>
<g transform="translate(0.000000,181.000000) scale(0.100000,-0.100000)"
fill="#000000" stroke="none">
<path d="M2139 1782 c-15 -9 -46 -30 -70 -46 -101 -65 -119 -80 -136 -107 -10
-15 -33 -38 -50 -51 -17 -13 -68 -51 -113 -85 -97 -74 -207 -137 -270 -153
-25 -7 -50 -16 -56 -21 -15 -13 -307 -12 -414 1 -47 5 -93 10 -102 10 -10 0
-26 10 -38 22 -28 30 -41 14 -49 -64 -1 -5 -23 -8 -51 -8 -36 0 -50 4 -50 14
0 20 -32 26 -155 26 -113 1 -146 6 -250 35 -99 29 -100 29 -129 1 -16 -14 -25
-30 -21 -36 8 -12 7 -105 -1 -255 -2 -49 -4 -103 -3 -120 0 -16 1 -70 2 -120
1 -49 6 -95 10 -102 7 -12 3 -87 -9 -145 -4 -18 -1 -28 6 -28 8 0 10 -18 8
-52 -3 -44 0 -53 15 -56 11 -2 31 7 45 20 46 41 77 56 143 68 35 6 87 19 114
29 28 10 69 19 93 20 l43 1 -3 -48 c-3 -54 11 -69 29 -30 30 61 128 92 341
108 81 6 163 15 182 20 60 17 61 16 58 -55 -3 -76 13 -91 25 -23 5 27 16 49
24 53 13 5 14 3 3 -10 -11 -13 -11 -19 3 -32 14 -14 17 -13 30 18 8 19 22 42
31 52 16 15 20 15 64 -2 26 -11 74 -34 107 -53 33 -18 92 -46 130 -62 123 -51
100 -59 -40 -14 -67 21 -238 58 -272 58 -53 0 -16 -18 80 -39 56 -13 136 -34
178 -47 42 -13 95 -26 118 -30 23 -4 57 -16 74 -28 32 -22 144 -78 191 -96 31
-11 31 -15 7 -66 -29 -59 -31 -94 -6 -94 8 0 15 8 15 19 0 10 9 30 20 44 11
14 20 29 20 35 0 5 9 21 20 34 10 14 17 28 14 31 -3 3 8 35 25 70 17 36 31 70
31 76 0 6 21 55 46 109 135 287 214 423 284 489 64 61 49 91 -57 113 -35 7
-67 18 -72 24 -5 6 -30 51 -56 100 -25 49 -57 103 -70 120 -12 17 -25 45 -28
61 -3 17 -11 51 -17 78 -10 39 -9 58 5 110 10 34 20 77 22 95 5 28 3 32 -18
32 -13 0 -36 -8 -50 -18z m-16 -135 c-9 -28 -17 -58 -19 -66 -3 -9 -16 -3 -43
20 -22 19 -38 38 -37 42 2 11 99 65 108 61 3 -2 -1 -28 -9 -57z m-66 -109 c37
-36 77 -79 88 -94 11 -16 32 -42 46 -59 14 -16 34 -46 44 -65 10 -19 26 -46
36 -59 11 -13 19 -29 19 -36 0 -18 -96 -32 -262 -41 -120 -6 -138 -5 -138 8 0
9 8 18 18 21 12 2 22 17 26 38 8 40 76 156 111 189 46 43 27 78 -30 54 -17 -7
-56 -13 -87 -13 -71 0 -102 -15 -93 -44 3 -12 9 -77 12 -144 l6 -122 -137 0
c-111 0 -136 3 -136 15 0 15 -16 19 -24 6 -11 -19 -10 -202 2 -214 10 -10 14
-9 18 7 17 66 320 160 544 169 99 5 147 12 167 28 8 6 15 3 21 -9 6 -13 1 -40
-17 -93 l-26 -75 -75 -12 c-78 -12 -122 -19 -410 -60 -154 -22 -175 -23 -185
-9 -10 12 -13 12 -24 -6 -11 -17 -10 -22 1 -29 18 -12 33 -11 103 5 33 8 93
17 134 21 40 3 80 9 90 12 14 4 14 3 1 -6 -8 -6 -26 -11 -40 -11 -14 -1 -77
-18 -140 -39 -103 -35 -116 -37 -128 -23 -15 19 -30 7 -32 -28 -4 -45 0 -60
14 -60 7 0 16 8 18 18 5 15 134 70 208 87 31 7 29 16 30 -190 1 -83 5 -157 9
-164 18 -29 29 2 27 74 -1 45 2 79 8 83 6 4 24 33 40 65 16 32 53 84 82 115
29 31 56 62 58 69 3 7 17 18 30 23 27 10 159 30 165 24 2 -1 -24 -83 -57 -181
-33 -98 -68 -207 -77 -243 -24 -98 -66 -200 -82 -200 -23 0 -73 30 -73 43 0 7
-16 19 -35 26 -19 6 -54 28 -77 48 -36 30 -266 149 -405 209 -24 10 -43 24
-43 31 0 15 -16 17 -25 3 -3 -6 -12 -10 -20 -10 -12 0 -12 7 1 48 8 26 24 88
35 137 30 128 77 286 90 302 6 7 20 13 30 13 19 0 279 257 279 277 0 6 16 21
35 33 19 12 41 29 48 39 13 18 97 70 109 67 4 0 37 -31 75 -68z m-77 -113 c0
-2 -13 -26 -28 -52 -16 -26 -37 -69 -47 -95 -10 -27 -18 -48 -19 -48 0 0 -2
45 -4 100 l-3 100 51 0 c27 0 50 -2 50 -5z m-339 -88 c-52 -51 -86 -77 -89
-69 -2 7 -16 18 -31 24 -29 11 -30 10 39 38 14 5 54 28 90 49 36 22 67 40 70
40 3 0 -33 -36 -79 -82z m-1271 -43 c36 -12 57 -23 48 -23 -9 -1 -51 -19 -93
-40 l-75 -39 1 69 2 69 26 -7 c14 -3 55 -16 91 -29z m760 -9 c91 -3 174 -5
184 -5 48 0 -2 -12 -130 -30 -139 -19 -283 -29 -285 -20 -9 72 -9 72 30 66 20
-4 110 -8 201 -11z m-459 -20 c4 -5 2 -40 -3 -77 l-10 -67 -137 5 c-123 5
-221 20 -221 34 0 15 102 63 174 81 147 37 186 42 197 24z m771 -11 c45 -6 46
-7 33 -33 -42 -84 -58 -132 -96 -276 -22 -88 -42 -161 -44 -163 -7 -8 7 271
15 293 5 14 10 62 10 106 0 88 -4 85 82 73z m-658 -15 c23 1 27 -2 23 -16 -39
-118 -107 -306 -111 -311 -3 -3 -6 5 -5 19 0 13 -2 40 -4 59 -8 60 2 88 31 92
37 4 43 38 8 38 -23 0 -26 4 -26 34 0 18 3 48 6 65 6 27 10 30 28 25 11 -4 34
-7 50 -5z m545 -60 c0 -39 -4 -92 -10 -118 -6 -25 -12 -111 -14 -190 -3 -79
-7 -151 -10 -160 -5 -16 -25 -17 -223 -15 -233 3 -254 5 -319 23 -44 12 -55
27 -28 37 17 7 20 30 5 36 -11 4 6 138 20 152 6 6 10 20 10 32 0 22 42 150 62
187 7 13 13 15 27 8 13 -7 24 -6 40 5 11 8 52 17 89 20 79 5 301 40 310 48 3
3 13 6 23 6 15 0 17 -10 18 -71z m397 -34 c77 4 114 3 114 -4 0 -6 -8 -11 -17
-11 -16 0 -182 -55 -226 -74 -13 -6 -16 -5 -12 6 3 8 2 33 -3 56 -9 40 -9 41
10 31 13 -7 60 -9 134 -4z m715 -20 c18 -6 17 -10 -14 -53 -34 -46 -157 -249
-157 -258 0 -3 -22 -51 -49 -107 -26 -56 -51 -109 -54 -117 -4 -12 -6 -11 -6
3 -1 9 11 50 25 90 14 39 41 120 60 179 33 102 36 107 67 113 61 14 80 48 22
42 -33 -4 -34 -3 -28 22 3 14 14 43 25 63 17 35 21 37 54 33 20 -2 45 -7 55
-10z m-2116 -24 c22 -6 54 -11 72 -13 28 -2 38 -18 11 -18 -6 0 -46 -18 -90
-40 -44 -22 -85 -40 -90 -40 -12 0 -4 62 12 105 7 18 15 25 28 21 9 -3 35 -9
57 -15z m316 -21 c5 0 9 -29 9 -64 l0 -64 -92 -4 c-118 -6 -288 2 -288 13 0
12 84 53 150 73 30 10 64 22 75 27 27 13 107 28 123 23 8 -2 18 -4 23 -4z
m1352 -193 c-16 -17 -50 -58 -74 -91 -49 -66 -57 -62 -58 29 l-1 51 78 25 c42
14 79 24 81 22 3 -2 -9 -18 -26 -36z m-1637 20 c5 -5 -72 -57 -86 -57 -13 0
-43 47 -37 57 5 8 115 8 123 0z m304 -62 c0 -64 0 -65 -27 -66 -16 -1 -39 -3
-53 -4 -25 -3 -168 10 -227 21 l-32 6 20 27 c43 58 102 77 242 80 l77 1 0 -65z
m-269 -93 c18 -7 12 -14 -48 -52 -37 -24 -78 -50 -90 -57 -22 -15 -22 -14 -20
49 1 35 6 66 10 69 11 8 120 1 148 -9z m255 -80 c1 -35 -2 -59 -6 -53 -3 7
-13 9 -21 7 -17 -6 -339 -16 -339 -11 0 2 21 17 48 32 26 15 66 41 90 58 41
30 48 31 135 31 l92 -1 1 -63z m179 -9 c48 -12 93 -14 220 -9 87 4 157 5 155
2 -3 -2 -79 -9 -170 -15 -164 -11 -230 -23 -303 -55 l-38 -17 3 61 3 60 35 -6
c19 -3 62 -13 95 -21z m-436 -97 c-31 -7 -77 -25 -102 -39 -25 -15 -47 -27
-49 -27 -2 0 -2 18 0 40 l4 40 102 -1 101 -1 -56 -12z"/>
</g>
</svg>
