<?xml version="1.0" standalone="no"?>
<!DOCTYPE svg PUBLIC "-//W3C//DTD SVG 20010904//EN"
 "http://www.w3.org/TR/2001/REC-SVG-20010904/DTD/svg10.dtd">
<svg version="1.0" xmlns="http://www.w3.org/2000/svg"
 width="172.000000pt" height="145.000000pt" viewBox="0 0 172.000000 145.000000"
 preserveAspectRatio="xMidYMid meet">
<metadata>
Created by potrace 1.16, written by Peter Selinger 2001-2019
</metadata>
<g transform="translate(0.000000,145.000000) scale(0.100000,-0.100000)"
fill="#000000" stroke="none">
<path d="M1588 1353 c-10 -3 -18 -8 -18 -13 0 -9 -69 -39 -147 -65 -62 -19
-170 -16 -187 6 -14 18 -74 39 -109 39 -27 0 -36 -13 -18 -25 6 -3 0 -24 -12
-48 -20 -37 -27 -42 -61 -45 -21 -2 -73 4 -116 12 -117 24 -200 31 -200 17 0
-17 11 -20 182 -44 l155 -22 -15 -33 c-15 -31 -17 -32 -66 -28 -28 3 -85 11
-126 19 -94 19 -220 26 -220 12 0 -12 39 -23 95 -28 81 -7 285 -42 285 -49 0
-4 -10 -23 -22 -43 l-21 -37 -71 6 c-39 3 -102 7 -141 7 -38 1 -80 6 -92 10
-25 9 -83 1 -83 -11 0 -12 113 -27 258 -34 52 -2 97 -7 100 -11 4 -3 -2 -23
-13 -43 l-20 -37 -105 0 c-58 0 -155 4 -216 8 -82 7 -114 6 -119 -3 -12 -20 5
-25 98 -27 136 -3 317 -15 317 -22 0 -3 -9 -21 -20 -39 l-20 -33 -138 7 c-75
3 -145 10 -154 15 -36 19 -150 5 -127 -15 2 -2 51 -7 109 -11 58 -4 119 -9
135 -11 17 -2 58 -6 93 -10 34 -4 62 -9 62 -12 0 -2 -9 -20 -21 -38 -24 -39
-30 -40 -199 -24 -95 9 -216 14 -262 11 -10 -1 -18 -5 -18 -9 0 -5 51 -12 113
-16 118 -7 320 -26 325 -31 2 -2 -9 -22 -25 -44 -27 -40 -30 -42 -71 -37 -24
3 -115 9 -204 12 -130 6 -160 5 -156 -6 2 -8 23 -14 54 -15 99 -4 270 -16 302
-21 38 -6 40 -15 11 -56 l-21 -29 -157 3 c-98 2 -157 -1 -159 -7 -1 -6 55 -11
150 -13 84 -2 154 -4 156 -6 7 -7 -40 -96 -52 -97 -15 -2 -2 -2 -156 6 -74 4
-144 7 -155 8 -11 0 -37 0 -58 -1 -52 -3 -44 -26 9 -29 21 0 109 -4 195 -8
l156 -8 -21 -38 c-21 -38 -22 -39 -81 -39 -33 0 -89 5 -125 12 -100 17 -175
16 -175 -2 0 -8 6 -14 13 -12 7 1 83 -5 167 -14 135 -15 153 -19 145 -33 -27
-50 -37 -54 -132 -60 -20 -1 -78 -48 -78 -63 0 -11 29 -7 105 16 238 71 347
98 410 100 113 5 113 5 111 23 -1 19 -4 18 199 48 229 34 262 37 335 32 73 -5
76 -4 87 20 9 18 9 40 2 80 -8 40 -7 69 1 101 6 27 8 72 4 113 -6 60 -4 69 10
69 21 0 32 26 17 44 -17 20 -15 258 3 341 16 75 23 123 31 225 3 36 8 79 11
97 5 34 -1 42 -28 36z m-24 -85 c-2 -13 -10 -79 -19 -148 -8 -69 -18 -150 -22
-180 -5 -30 -8 -110 -7 -178 1 -118 0 -122 -14 -85 -8 21 -22 67 -32 103 -10
36 -28 90 -40 120 -13 30 -26 82 -30 115 -4 33 -15 86 -24 118 -9 32 -16 64
-16 71 0 7 36 25 83 40 45 16 89 32 97 37 23 13 27 11 24 -13z m-366 -32 c67
-29 49 -54 -35 -46 l-51 5 14 33 c7 19 17 32 21 30 5 -2 27 -12 51 -22z m-8
-83 c0 -4 -12 -20 -27 -35 -26 -28 -47 -34 -77 -22 -14 5 -14 9 0 35 13 25 20
29 59 29 25 0 45 -3 45 -7z m122 -15 c9 -7 19 -23 23 -35 6 -21 3 -23 -38 -23
-25 0 -59 3 -76 6 l-32 7 33 28 c36 31 65 36 90 17z m-225 -76 c9 -5 1 -21
-26 -52 -47 -55 -63 -47 -30 15 24 45 34 51 56 37z m233 -21 c33 -6 35 -10 40
-54 4 -26 5 -49 3 -51 -5 -4 -275 33 -281 39 -8 7 49 65 72 74 20 8 107 3 166
-8z m-328 -113 c-7 -7 -12 -8 -12 -2 0 14 12 26 19 19 2 -3 -1 -11 -7 -17z
m209 -4 c126 -19 151 -22 165 -23 14 -1 53 -84 64 -135 5 -23 16 -60 24 -83 9
-24 25 -77 36 -119 23 -85 20 -94 -33 -114 -18 -7 -54 -23 -82 -36 -27 -13
-81 -35 -120 -50 -129 -48 -225 -84 -233 -85 -4 -1 -18 -6 -32 -11 -15 -6 -56
-5 -110 1 -47 6 -118 11 -157 11 -40 0 -73 2 -73 5 0 16 43 87 56 92 8 3 101
1 207 -5 171 -9 237 -5 211 11 -5 2 -98 10 -206 17 -138 9 -195 16 -191 24 3
6 15 24 26 39 l20 29 126 -6 c185 -9 275 -15 375 -27 63 -8 91 -8 99 0 7 7 7
14 2 20 -10 9 -57 13 -394 31 -102 6 -186 12 -188 14 -2 2 4 20 14 41 l18 38
95 -7 c52 -3 130 -9 174 -13 65 -5 78 -4 74 8 -3 10 -43 17 -157 26 -84 6
-155 14 -159 17 -3 3 8 23 25 44 29 36 32 37 94 36 95 -1 300 -13 334 -19 28
-5 66 8 55 19 -8 7 -96 14 -272 22 -93 4 -168 9 -168 12 0 2 10 22 22 44 l22
39 76 -6 c145 -13 235 -24 298 -38 55 -12 65 -12 69 0 3 8 3 17 -1 20 -9 9
-172 29 -305 38 -61 4 -111 10 -111 14 0 3 14 23 31 44 35 43 37 43 180 21z
m284 -578 l0 -64 -65 -6 c-36 -4 -128 -16 -204 -27 -113 -17 -140 -18 -147 -7
-6 9 9 19 54 36 34 13 71 28 82 32 11 5 45 18 75 29 30 11 82 31 115 45 88 38
90 37 90 -38z m-710 -101 c28 -2 61 -4 75 -5 l25 -1 -25 -13 c-53 -29 -156
-56 -212 -56 -32 0 -58 3 -58 6 0 9 42 68 55 76 5 5 28 5 50 2 22 -3 63 -7 90
-9z m255 -25 c-32 -10 -165 -40 -176 -40 -10 1 49 28 86 40 14 5 45 8 70 8 37
0 40 -1 20 -8z m-432 -79 c10 -6 8 -10 -10 -14 -36 -10 -42 -8 -28 8 14 17 20
18 38 6z"/>
</g>
</svg>
