<?xml version="1.0" standalone="no"?>
<!DOCTYPE svg PUBLIC "-//W3C//DTD SVG 20010904//EN"
 "http://www.w3.org/TR/2001/REC-SVG-20010904/DTD/svg10.dtd">
<svg version="1.0" xmlns="http://www.w3.org/2000/svg"
 width="95.000000pt" height="112.000000pt" viewBox="0 0 95.000000 112.000000"
 preserveAspectRatio="xMidYMid meet">
<metadata>
Created by potrace 1.16, written by Peter Selinger 2001-2019
</metadata>
<g transform="translate(0.000000,112.000000) scale(0.100000,-0.100000)"
fill="#000000" stroke="none">
<path d="M456 1045 c-13 -13 -38 -16 -138 -15 -121 2 -158 -3 -158 -21 0 -15
101 -28 212 -29 l57 0 -1 -32 c-2 -73 -4 -77 -45 -68 -56 12 -236 7 -240 -6
-4 -11 44 -18 209 -31 l77 -6 -5 -46 c-9 -81 -14 -94 -27 -82 -22 18 -187 25
-230 9 -58 -20 -41 -32 42 -31 40 1 92 -2 115 -6 23 -4 53 -4 65 1 21 7 23 6
18 -14 -3 -13 -9 -40 -12 -60 -4 -21 -12 -38 -19 -39 -6 0 -68 -1 -138 -2
-118 -2 -151 -8 -135 -23 4 -4 21 -7 39 -7 18 0 80 -4 136 -10 l104 -10 -6
-30 c-3 -16 -6 -37 -6 -47 0 -16 -11 -18 -120 -17 -73 1 -124 -3 -131 -10 -10
-10 7 -13 179 -29 l72 -7 0 -47 0 -47 -62 9 c-60 9 -149 5 -182 -8 -30 -11 -7
-21 51 -22 31 0 87 -3 123 -7 l65 -7 1 -43 2 -43 -131 1 c-91 1 -131 -1 -134
-10 -3 -7 12 -11 45 -11 27 -1 79 -6 115 -12 37 -7 74 -10 82 -6 8 3 17 1 20
-4 9 -15 55 -12 61 4 3 8 1 29 -3 48 -10 37 1 289 17 388 26 158 32 202 40
315 5 66 11 133 12 149 3 34 -13 44 -36 21z"/>
<path d="M640 641 c-158 -6 -180 -11 -180 -37 0 -14 27 -15 203 -13 111 1 208
1 215 -2 20 -6 40 27 25 42 -15 15 -72 17 -263 10z"/>
</g>
</svg>
