<?xml version="1.0" standalone="no"?>
<!DOCTYPE svg PUBLIC "-//W3C//DTD SVG 20010904//EN"
 "http://www.w3.org/TR/2001/REC-SVG-20010904/DTD/svg10.dtd">
<svg version="1.0" xmlns="http://www.w3.org/2000/svg"
 width="226.000000pt" height="126.000000pt" viewBox="0 0 226.000000 126.000000"
 preserveAspectRatio="xMidYMid meet">
<metadata>
Created by potrace 1.16, written by Peter Selinger 2001-2019
</metadata>
<g transform="translate(0.000000,126.000000) scale(0.100000,-0.100000)"
fill="#000000" stroke="none">
<path d="M511 1106 c-13 -14 -20 -29 -16 -35 3 -6 -1 -37 -10 -67 -10 -36 -13
-60 -7 -66 6 -6 39 -1 88 15 44 14 118 27 165 30 47 4 92 8 100 11 8 3 47 7
87 10 66 4 88 -3 62 -19 -5 -3 -10 -15 -10 -25 0 -11 -8 -23 -17 -28 -22 -12
-224 -32 -314 -32 -75 0 -142 -16 -136 -33 3 -8 28 -11 83 -9 111 5 136 8 246
23 54 7 100 10 103 7 7 -7 -31 -94 -44 -103 -6 -3 -88 -7 -183 -9 -178 -4
-253 -18 -253 -47 0 -8 5 -13 10 -12 62 9 103 13 247 19 l168 7 -17 -40 -17
-39 -111 -1 c-128 -1 -275 -28 -275 -52 0 -11 10 -12 48 -8 242 31 322 37 322
23 0 -6 -8 -26 -17 -44 -18 -32 -18 -33 -108 -37 -49 -2 -112 -11 -139 -19
-53 -17 -66 -14 -66 14 0 34 -19 31 -62 -8 -41 -38 -108 -74 -130 -69 -5 1
-15 -6 -21 -16 -9 -13 -9 -19 1 -25 8 -6 0 -14 -25 -26 -21 -10 -53 -30 -73
-46 -19 -15 -54 -38 -77 -50 -49 -25 -52 -33 -21 -58 12 -9 34 -29 48 -43 30
-31 60 -42 79 -30 10 6 10 13 2 29 -9 17 -2 31 44 95 30 41 55 79 55 85 0 5 7
15 15 22 8 7 12 16 9 21 -11 18 19 8 110 -36 52 -25 103 -45 115 -45 25 0 62
-17 73 -33 4 -7 20 -7 48 2 23 7 82 11 135 10 52 -1 97 0 101 3 10 11 12 43 1
56 -5 7 -7 33 -3 63 4 27 9 80 12 117 10 139 63 361 117 499 22 56 16 81 -11
48 -15 -17 -28 -20 -97 -18 -179 5 -350 16 -355 23 -3 4 -17 10 -31 13 -20 5
-31 1 -48 -17z m282 -50 c103 -2 190 -5 192 -8 3 -3 -43 -8 -102 -12 -164 -10
-223 -17 -284 -32 -74 -18 -71 -20 -63 24 9 51 11 53 42 41 15 -6 111 -12 215
-13z m131 -358 c-4 -29 -8 -56 -10 -60 -2 -3 -7 -32 -10 -64 -4 -32 -14 -90
-23 -129 l-16 -70 -67 -1 -67 -1 14 27 c8 15 25 41 38 56 21 25 46 79 124 262
19 46 24 40 17 -20z m-194 -262 c-29 -42 -56 -76 -61 -76 -6 0 -27 9 -49 20
-22 11 -50 20 -64 20 -27 0 -50 29 -44 58 4 21 107 47 201 51 l68 2 -51 -75z
m-266 28 c9 -24 2 -27 -28 -13 -19 9 -23 15 -14 21 20 12 35 9 42 -8z m-197
-118 c-14 -15 -35 -42 -48 -61 -13 -19 -28 -35 -34 -35 -19 0 -36 17 -30 31 5
14 127 100 133 94 2 -1 -8 -15 -21 -29z"/>
<path d="M1645 1061 c-3 -7 -44 -10 -103 -8 -142 3 -142 3 -142 -136 0 -62 -7
-150 -16 -197 -17 -95 -35 -243 -38 -307 0 -24 -2 -43 -3 -43 -1 0 -13 5 -26
11 -18 8 -23 17 -19 35 3 17 0 24 -11 24 -26 0 -31 -19 -33 -120 -2 -159 8
-169 93 -96 41 34 64 46 115 55 34 7 77 19 93 26 31 15 330 40 346 29 12 -7
79 15 79 26 0 5 -12 17 -26 27 l-25 19 20 119 c11 66 23 155 27 198 4 47 12
81 19 83 7 3 29 38 48 77 20 40 52 91 71 114 20 22 36 44 36 47 0 8 -431 0
-458 -9 -19 -6 -23 -4 -20 10 3 20 -17 32 -27 16z m-88 -43 c38 -14 40 -20 14
-56 -18 -26 -134 -264 -161 -330 -19 -47 -21 -34 -5 28 20 81 26 123 31 245 3
93 7 111 22 117 27 10 62 9 99 -4z m388 -18 c19 -16 20 -102 1 -206 -8 -44
-17 -108 -21 -144 -15 -164 -28 -246 -40 -259 -17 -18 -138 -29 -332 -32
l-157 -2 -3 24 c-14 90 20 205 124 413 103 207 103 206 166 207 29 0 75 4 102
9 65 10 141 6 160 -10z m94 -47 c-18 -32 -34 -60 -36 -62 -1 -2 -3 18 -3 46 0
53 -4 49 68 72 2 1 -11 -25 -29 -56z m-612 -628 c76 0 77 -8 3 -19 -25 -4 -63
-20 -87 -36 l-41 -30 -4 49 -3 50 30 -7 c17 -3 62 -7 102 -7z"/>
</g>
</svg>
