<?xml version="1.0" standalone="no"?>
<!DOCTYPE svg PUBLIC "-//W3C//DTD SVG 20010904//EN"
 "http://www.w3.org/TR/2001/REC-SVG-20010904/DTD/svg10.dtd">
<svg version="1.0" xmlns="http://www.w3.org/2000/svg"
 width="148.000000pt" height="140.000000pt" viewBox="0 0 148.000000 140.000000"
 preserveAspectRatio="xMidYMid meet">
<metadata>
Created by potrace 1.16, written by Peter Selinger 2001-2019
</metadata>
<g transform="translate(0.000000,140.000000) scale(0.100000,-0.100000)"
fill="#000000" stroke="none">
<path d="M741 1280 c-70 -79 -67 -67 -71 -282 -2 -105 -4 -118 -21 -123 -10
-4 -29 -3 -41 1 -12 4 -56 8 -98 9 -41 1 -94 3 -118 4 -39 1 -42 3 -36 25 3
13 1 27 -6 31 -31 19 -79 -74 -72 -143 6 -72 19 -80 85 -48 31 14 58 26 61 26
3 0 30 11 60 25 38 18 72 25 113 25 l58 0 -2 -47 c-5 -160 -7 -174 -20 -182
-8 -4 -42 -3 -76 1 -34 5 -87 11 -117 14 -30 3 -65 12 -76 19 -41 26 -53 2
-60 -117 -6 -96 -5 -108 10 -114 12 -5 26 3 45 24 16 16 42 37 59 46 18 9 32
21 32 25 0 21 155 57 179 42 17 -11 19 -421 2 -421 -14 0 -51 -42 -46 -51 7
-10 49 10 112 53 75 51 343 187 408 207 17 5 55 19 85 30 30 12 63 21 72 21
29 0 21 36 -12 60 -16 12 -30 28 -30 36 0 19 -22 18 -46 -4 -10 -10 -26 -21
-36 -24 -19 -8 -48 20 -48 45 0 9 -27 38 -59 63 -43 33 -65 59 -80 95 -24 55
-36 61 -45 23 -5 -20 -11 -24 -28 -18 -63 20 -56 60 10 56 21 -2 73 9 116 23
42 14 109 30 148 35 100 15 141 41 83 56 -24 6 -31 19 -37 74 -2 15 -16 33
-38 48 -19 13 -77 62 -129 110 -199 184 -191 175 -191 218 -1 34 -18 74 -32
74 -2 0 -32 -32 -67 -70z m59 -30 c0 -23 -5 -30 -19 -30 -10 0 -21 -7 -25 -15
-3 -8 -12 -12 -21 -9 -12 5 -9 13 17 44 40 47 48 48 48 10z m10 -117 c0 -8
-122 -383 -124 -383 -3 0 1 66 8 130 3 30 8 100 12 155 3 55 7 102 9 105 4 7
95 0 95 -7z m122 -47 c3 -5 0 -19 -8 -30 -8 -11 -14 -27 -15 -36 0 -8 -9 -33
-20 -55 l-19 -40 4 60 c2 33 7 68 11 78 4 10 3 17 -4 17 -22 0 -41 -49 -52
-131 -5 -46 -12 -95 -14 -108 -2 -13 -7 -44 -11 -68 -5 -37 -13 -48 -45 -69
-47 -29 -50 -46 -7 -37 l31 6 -7 -64 c-3 -35 -13 -143 -21 -239 -13 -168 -15
-176 -40 -198 -32 -27 -48 -21 -34 14 5 15 8 102 7 195 -2 118 0 171 9 180 6
6 9 25 6 44 -8 52 42 241 124 460 28 77 30 79 66 53 18 -12 35 -26 39 -32z
m75 -74 c10 -10 41 -36 68 -58 28 -21 53 -43 57 -48 9 -13 -127 -92 -249 -142
-37 -16 -49 -6 -28 22 8 10 15 28 15 39 0 31 89 205 105 205 8 0 22 -8 32 -18z
m-547 -171 c0 -10 -108 -40 -115 -33 -9 9 -5 40 5 44 18 6 110 -4 110 -11z
m692 4 c0 -8 1 -20 2 -27 1 -6 -10 -13 -24 -15 -14 -2 -49 -11 -78 -20 -61
-18 -80 -12 -31 11 19 9 52 27 74 41 47 29 55 30 57 10z m-250 -251 c15 -8 31
-20 35 -27 4 -7 25 -23 46 -36 20 -12 37 -27 37 -32 0 -5 7 -9 15 -9 9 0 12
-6 8 -16 -3 -9 5 -26 21 -43 25 -26 25 -28 9 -42 -48 -40 -249 -159 -269 -159
-9 0 -11 25 -8 98 5 113 11 189 18 217 2 11 5 32 5 48 1 25 4 27 29 21 15 -4
39 -13 54 -20z m-444 -20 c12 -4 22 -9 22 -13 0 -7 -108 -71 -121 -71 -5 0 -9
20 -9 45 l0 45 43 0 c23 0 52 -3 65 -6z m737 -164 c-3 -5 -11 -10 -16 -10 -6
0 -7 5 -4 10 3 6 11 10 16 10 6 0 7 -4 4 -10z"/>
</g>
</svg>
