<?xml version="1.0" standalone="no"?>
<!DOCTYPE svg PUBLIC "-//W3C//DTD SVG 20010904//EN"
 "http://www.w3.org/TR/2001/REC-SVG-20010904/DTD/svg10.dtd">
<svg version="1.0" xmlns="http://www.w3.org/2000/svg"
 width="296.000000pt" height="186.000000pt" viewBox="0 0 296.000000 186.000000"
 preserveAspectRatio="xMidYMid meet">
<metadata>
Created by potrace 1.16, written by Peter Selinger 2001-2019
</metadata>
<g transform="translate(0.000000,186.000000) scale(0.100000,-0.100000)"
fill="#000000" stroke="none">
<path d="M1144 1577 c-11 -7 -36 -27 -54 -45 -62 -62 -75 -67 -190 -68 -529
-6 -704 -4 -719 10 -32 29 -47 4 -50 -82 -1 -64 2 -83 17 -103 16 -20 19 -43
20 -138 2 -79 7 -123 18 -146 11 -24 14 -46 9 -79 -5 -31 -3 -51 5 -61 13 -16
11 -58 -10 -175 -16 -90 -18 -322 -3 -327 6 -2 24 10 41 28 32 34 149 79 207
79 37 0 93 17 115 35 10 8 69 15 168 19 84 3 156 7 160 7 4 1 12 1 18 0 12 -1
62 -71 81 -113 17 -39 73 -50 73 -15 0 7 23 28 51 47 28 19 57 41 65 49 16 14
109 86 182 140 26 19 88 68 138 108 51 40 95 73 98 73 4 0 5 -8 2 -17 -3 -10
-8 -99 -10 -198 -3 -99 -9 -194 -15 -211 -5 -17 -7 -61 -4 -97 l6 -66 66 5
c36 3 95 9 130 14 36 5 68 7 73 4 4 -3 16 0 26 5 10 5 104 17 208 26 104 9
230 21 279 26 50 6 140 11 200 13 142 5 214 13 231 27 25 21 4 28 -74 23 -42
-3 -182 -7 -311 -9 l-233 -5 -25 24 c-14 14 -33 28 -42 31 -16 5 -59 65 -46
65 3 0 -31 45 -77 100 -138 166 -182 221 -207 259 -13 20 -28 37 -33 39 -4 2
-8 16 -8 32 0 37 47 86 130 135 76 45 162 107 205 147 17 15 64 48 105 74 41
25 83 53 93 61 19 18 23 43 6 43 -17 0 -148 -78 -209 -124 -79 -60 -279 -180
-287 -173 -2 2 4 26 12 53 9 27 20 86 25 130 9 87 46 173 97 226 37 39 25 58
-34 58 -26 0 -54 -4 -61 -8 -7 -5 -39 -4 -71 1 -45 7 -65 6 -87 -4 -27 -13
-29 -18 -29 -74 0 -33 -4 -63 -8 -66 -5 -4 -3 -42 3 -85 12 -77 7 -213 -9
-256 -7 -19 -9 -18 -32 10 -13 17 -40 52 -59 79 -19 26 -59 72 -88 102 -102
105 -169 209 -197 305 -13 45 -40 56 -81 33z m71 -112 c30 -58 99 -151 164
-220 65 -71 126 -145 160 -195 13 -19 32 -44 44 -54 l20 -20 -29 -23 -29 -23
-38 42 c-21 24 -55 66 -76 93 -49 64 -146 158 -198 193 -22 15 -73 57 -113 95
-61 56 -70 69 -60 82 7 8 20 15 29 15 10 0 30 14 46 30 16 17 36 29 44 28 8
-2 24 -21 36 -43z m534 9 c76 -7 81 -12 56 -60 -8 -16 -19 -63 -26 -104 -15
-102 -38 -205 -54 -244 -8 -19 -30 -41 -55 -55 l-41 -23 7 98 c10 117 10 130
0 212 -10 75 9 196 29 188 7 -2 45 -8 84 -12z m-979 -44 c0 -8 -66 -16 -195
-26 -44 -3 -105 -9 -135 -14 -30 -5 -73 -12 -95 -14 -73 -9 -118 -18 -142 -27
-29 -11 -36 3 -25 46 l8 30 250 3 c137 1 263 3 279 5 52 4 55 4 55 -3z m184
-116 c-1 -53 -6 -99 -10 -104 -5 -4 -23 -10 -41 -13 -31 -6 -33 -5 -45 36 -7
23 -11 50 -10 60 1 9 -3 17 -9 17 -12 0 -39 61 -33 72 3 5 22 8 42 9 20 1 48
5 62 9 14 4 30 8 35 9 6 1 9 -36 9 -95z m93 64 c24 -27 94 -86 180 -151 57
-43 119 -109 238 -250 22 -27 41 -51 43 -55 2 -8 -50 -41 -197 -123 l-103 -58
-142 5 c-77 3 -142 7 -144 9 -2 2 0 23 5 47 l9 43 74 6 c155 14 180 20 180 41
0 8 -37 9 -124 5 l-123 -6 8 42 c4 23 8 45 9 50 0 4 16 7 35 7 57 0 165 24
165 36 0 15 -35 20 -123 19 l-69 0 7 50 c8 61 19 75 57 75 33 0 68 16 68 30 0
6 -24 10 -54 10 l-54 0 2 83 c2 110 14 128 53 85z m-288 -4 c5 -5 12 -19 15
-30 6 -19 2 -22 -36 -27 -79 -10 -413 -8 -438 2 -14 5 -20 10 -15 10 6 1 75
12 155 25 80 13 167 24 195 25 27 1 51 3 52 5 7 6 64 -2 72 -10z m-409 -93
c95 -6 101 -7 60 -15 -25 -4 -79 -17 -120 -27 -41 -10 -76 -16 -79 -13 -7 7
-10 57 -4 67 3 5 12 5 22 1 9 -4 63 -10 121 -13z m462 -24 c4 -6 8 -24 8 -39
0 -25 -4 -28 -32 -28 -39 -1 -231 -15 -417 -30 -246 -21 -176 32 114 85 138
25 315 32 327 12z m128 -126 c0 -10 -3 -33 -6 -50 -5 -24 -12 -31 -30 -31 -24
0 -28 9 -26 59 2 40 62 61 62 22z m-550 -30 c-91 -21 -168 -36 -172 -34 -5 2
-8 15 -8 29 0 23 3 24 68 25 37 1 94 5 127 9 151 18 145 7 -15 -29z m446 -3
c-1 -20 -6 -42 -11 -47 -6 -5 -64 -12 -130 -16 -66 -4 -136 -8 -155 -10 -138
-10 -266 -18 -270 -16 -3 0 -5 6 -5 12 0 27 396 112 534 115 38 1 38 0 37 -38z
m-36 -88 c-14 -4 -47 -8 -75 -7 l-50 0 55 7 c80 10 101 10 70 0z m-180 -21
c-25 -4 -76 -11 -115 -14 -77 -6 -191 -21 -243 -31 -27 -6 -31 -4 -26 10 3 9
9 16 13 16 24 1 138 12 196 18 39 4 104 8 145 9 68 1 71 0 30 -8z m296 -42
c-3 -16 -6 -36 -6 -43 0 -8 -4 -14 -10 -14 -5 0 -10 22 -10 50 0 41 3 48 16
43 12 -4 14 -14 10 -36z m-70 9 c3 -13 4 -35 2 -47 -3 -23 -5 -24 -93 -21 -49
2 -162 -3 -250 -11 -207 -18 -226 -19 -242 -6 -23 20 -14 27 54 42 57 13 137
24 438 60 76 9 84 8 91 -17z m839 4 c-3 -5 -11 -10 -16 -10 -6 0 -7 5 -4 10 3
6 11 10 16 10 6 0 7 -4 4 -10z m-35 -34 c0 -3 -4 -8 -10 -11 -5 -3 -10 -1 -10
4 0 6 5 11 10 11 6 0 10 -2 10 -4z m-53 -43 c-3 -3 -11 -2 -17 2 -9 6 -9 10 1
16 14 8 27 -7 16 -18z m83 -5 c0 -26 -13 -58 -22 -58 -5 0 -16 7 -25 15 -14
14 -14 18 2 35 20 22 45 26 45 8z m-120 -20 c0 -13 -51 -58 -174 -152 -50 -38
-120 -92 -156 -121 -64 -49 -191 -135 -202 -135 -7 0 -58 73 -58 83 0 4 9 7
20 7 12 0 20 7 20 18 0 16 60 52 343 206 50 26 108 61 130 77 41 30 77 38 77
17z m-856 -8 c-11 -4 -56 -11 -100 -15 -75 -6 -275 -37 -329 -51 -21 -5 -25
-3 -25 14 0 12 3 23 8 25 4 3 57 8 117 12 61 3 139 10 175 14 91 11 181 12
154 1z m144 -61 l3 -46 -183 -7 c-101 -4 -221 -10 -268 -14 -47 -4 -101 -5
-120 -2 -34 5 -34 6 -12 18 34 19 189 50 310 62 59 5 125 14 147 20 115 27
119 26 123 -31z m872 43 c0 -4 20 -30 45 -57 25 -28 61 -73 80 -102 20 -29 40
-55 45 -58 6 -3 15 -16 21 -28 11 -21 10 -20 -16 3 -15 14 -44 41 -64 60 -20
20 -60 56 -90 82 -49 42 -53 48 -46 77 6 27 25 45 25 23z m-76 -69 c3 -12 -4
-47 -14 -80 l-18 -58 -1 65 c-1 74 7 116 21 102 4 -4 10 -18 12 -29z m87 -70
c21 -21 75 -72 120 -113 46 -41 114 -106 153 -143 l71 -69 -105 6 c-87 4 -182
13 -315 29 -12 1 -20 -4 -20 -13 0 -22 107 -37 320 -47 66 -3 124 -9 128 -13
5 -4 -27 -11 -70 -14 -43 -4 -103 -9 -133 -12 -30 -2 -103 -7 -162 -11 l-106
-6 -1 89 c-1 95 9 158 41 269 23 77 26 85 35 85 3 0 23 -17 44 -37z m-1011 7
c-8 -5 -57 -16 -110 -25 -209 -35 -323 -57 -362 -71 l-40 -14 7 37 c4 21 9 41
11 44 2 3 54 9 116 13 62 4 151 11 198 15 131 12 197 12 180 1z m390 -3 c20
-3 -155 -87 -181 -87 -5 0 -9 18 -9 39 l0 39 53 9 c45 7 83 7 137 0z m-246
-33 c3 -8 3 -26 0 -39 -4 -16 0 -26 13 -33 47 -27 0 -31 -390 -36 -138 -1
-234 1 -229 6 10 10 101 37 147 44 176 25 357 56 380 65 34 13 72 10 79 -7z
m-375 -148 c-2 -2 -31 -7 -64 -10 -33 -3 -94 -17 -135 -30 -41 -14 -76 -23
-78 -22 -2 2 0 15 3 29 6 22 14 27 48 30 61 5 231 8 226 3z"/>
</g>
</svg>
