<?xml version="1.0" standalone="no"?>
<!DOCTYPE svg PUBLIC "-//W3C//DTD SVG 20010904//EN"
 "http://www.w3.org/TR/2001/REC-SVG-20010904/DTD/svg10.dtd">
<svg version="1.0" xmlns="http://www.w3.org/2000/svg"
 width="224.000000pt" height="110.000000pt" viewBox="0 0 224.000000 110.000000"
 preserveAspectRatio="xMidYMid meet">
<metadata>
Created by potrace 1.16, written by Peter Selinger 2001-2019
</metadata>
<g transform="translate(0.000000,110.000000) scale(0.100000,-0.100000)"
fill="#000000" stroke="none">
<path d="M185 1023 c-12 -12 -16 -27 -12 -53 2 -20 -1 -54 -9 -75 -18 -53 -8
-205 14 -205 9 0 23 6 31 14 41 37 285 106 375 106 25 0 56 4 71 10 27 10 360
18 370 8 3 -3 1 -32 -4 -64 -5 -33 -9 -98 -8 -145 l2 -86 -100 -8 c-55 -4
-104 -7 -110 -6 -5 0 -82 5 -170 11 -88 5 -217 13 -287 17 -114 5 -128 8 -128
24 0 24 -15 32 -29 15 -18 -21 -23 -84 -10 -125 9 -29 8 -48 -5 -89 -18 -63
-8 -74 45 -45 78 43 313 109 424 118 33 3 91 10 129 16 38 5 107 9 152 8 94
-2 101 -8 88 -74 -7 -38 6 -46 35 -21 19 16 185 57 291 71 19 2 46 7 60 10 94
22 158 29 393 45 75 5 142 12 148 16 6 3 34 9 63 13 36 4 51 10 51 21 0 22
-82 32 -199 25 -125 -8 -636 -7 -676 1 -16 4 -30 10 -30 14 0 9 126 63 215 92
120 40 185 48 388 48 190 0 246 7 232 31 -4 5 -64 9 -135 9 -84 0 -144 5 -172
14 -24 8 -59 17 -78 21 -19 4 -61 16 -92 27 -32 10 -82 20 -111 23 -28 2 -83
10 -122 19 -38 9 -86 16 -106 16 -49 0 -97 18 -110 41 -13 25 -25 24 -32 -1
-5 -21 -37 -28 -37 -9 0 8 -24 9 -82 5 -99 -8 -370 9 -448 28 -30 8 -84 19
-120 26 -39 7 -78 22 -97 36 -38 29 -37 29 -58 7z m85 -93 c0 -5 -4 -10 -9
-10 -6 0 -13 5 -16 10 -3 6 1 10 9 10 9 0 16 -4 16 -10z m185 -45 c39 -2 125
-4 193 -4 67 -1 122 -5 122 -9 0 -5 -15 -9 -32 -10 -65 -3 -284 -32 -338 -46
-30 -7 -79 -23 -108 -35 -29 -11 -57 -21 -62 -21 -13 0 -13 67 0 75 6 3 10 17
10 30 0 20 6 24 38 28 20 2 53 2 72 0 19 -2 67 -5 105 -8z m472 -11 c-3 -3
-12 -4 -19 -1 -8 3 -5 6 6 6 11 1 17 -2 13 -5z m343 -58 c36 -8 95 -17 133
-20 94 -7 115 -21 57 -36 -72 -19 -152 -46 -200 -68 -25 -11 -75 -34 -112 -50
l-66 -30 -5 26 c-8 41 4 171 17 181 12 10 71 19 96 15 8 -2 44 -9 80 -18z
m-163 -277 c16 -6 112 -10 228 -11 l200 0 -85 -19 c-47 -10 -123 -25 -170 -33
-47 -9 -105 -20 -130 -25 -70 -16 -87 -14 -93 11 -7 27 7 37 53 39 35 1 35 1
-10 12 -53 12 -54 13 -45 26 8 14 17 14 52 0z m-382 -35 c17 -3 37 -8 45 -11
22 -8 -24 -21 -80 -22 -95 -2 -311 -51 -414 -93 l-68 -28 8 33 c4 17 7 56 6
85 l-2 53 238 -5 c130 -3 251 -8 267 -12z m272 -10 c-3 -3 -12 -4 -19 -1 -8 3
-5 6 6 6 11 1 17 -2 13 -5z"/>
<path d="M229 238 c-6 -12 -16 -57 -20 -101 -5 -43 -14 -88 -20 -98 -14 -26 3
-25 54 5 68 39 179 74 305 96 113 21 465 45 483 34 5 -3 25 -2 44 2 27 5 33 9
25 19 -16 19 -87 26 -235 23 -157 -3 -315 -1 -410 5 -38 2 -96 4 -127 5 -44 2
-58 6 -58 17 0 23 -28 18 -41 -7z m576 -45 c-22 -1 -76 -7 -120 -13 -197 -28
-281 -44 -352 -71 -42 -16 -79 -26 -82 -23 -9 8 0 88 11 102 8 9 58 12 215 9
112 -2 220 -1 240 2 19 3 56 4 82 1 l46 -5 -40 -2z"/>
</g>
</svg>
