<?xml version="1.0" standalone="no"?>
<!DOCTYPE svg PUBLIC "-//W3C//DTD SVG 20010904//EN"
 "http://www.w3.org/TR/2001/REC-SVG-20010904/DTD/svg10.dtd">
<svg version="1.0" xmlns="http://www.w3.org/2000/svg"
 width="234.000000pt" height="148.000000pt" viewBox="0 0 234.000000 148.000000"
 preserveAspectRatio="xMidYMid meet">
<metadata>
Created by potrace 1.16, written by Peter Selinger 2001-2019
</metadata>
<g transform="translate(0.000000,148.000000) scale(0.100000,-0.100000)"
fill="#000000" stroke="none">
<path d="M1150 1403 c-32 -6 -50 -29 -50 -66 0 -19 -8 -36 -24 -48 -13 -11
-57 -50 -96 -87 -85 -79 -189 -148 -245 -163 -72 -20 -69 -19 -57 -31 26 -26
10 -30 -85 -24 -70 5 -107 13 -129 27 -17 10 -40 19 -51 19 -10 0 -37 10 -58
21 -55 29 -118 33 -140 9 -14 -16 -15 -28 -6 -95 6 -42 11 -114 11 -161 0
-102 10 -107 79 -37 56 57 166 143 182 143 7 0 20 7 30 16 15 13 39 16 125 15
106 -2 136 -11 126 -39 -2 -6 4 -12 12 -12 16 0 26 17 68 124 17 43 35 68 68
95 25 20 73 63 108 96 75 71 82 75 82 42 0 -43 12 -87 24 -87 7 0 30 18 51 40
21 22 43 40 48 40 5 0 38 13 73 30 58 26 69 38 65 63 -1 4 9 5 21 3 55 -11
171 -16 372 -16 141 -1 225 -5 242 -12 20 -9 28 -9 41 5 29 29 3 39 -92 38
-48 -1 -91 -4 -96 -7 -16 -9 -410 27 -509 47 -91 18 -137 21 -190 12z m117
-53 c37 -7 60 -17 56 -23 -4 -7 -82 -47 -165 -85 -5 -2 -8 23 -8 56 0 61 8 74
40 67 8 -2 43 -8 77 -15z m-462 -332 c-11 -50 -22 -56 -52 -25 l-27 27 32 6
c18 4 35 11 38 15 11 19 15 8 9 -23z m-491 -3 c27 -14 60 -25 72 -25 13 0 26
-4 29 -10 3 -5 20 -14 38 -19 28 -7 30 -9 12 -17 -25 -9 -161 -109 -170 -123
-17 -28 -23 -3 -24 95 -1 59 -4 111 -7 115 -7 13 -4 12 50 -16z"/>
<path d="M1215 1158 c-11 -6 -38 -27 -61 -47 -48 -43 -158 -121 -196 -140 -26
-13 -39 -41 -20 -41 12 0 69 -81 74 -105 2 -15 10 -19 28 -17 l25 3 -25 -20
c-14 -11 -29 -21 -33 -21 -5 0 -25 -13 -45 -29 -20 -15 -59 -40 -85 -56 l-49
-27 7 23 c4 13 10 30 12 37 9 22 -21 13 -57 -18 -19 -16 -39 -33 -45 -37 -5
-5 -29 -23 -51 -41 -35 -27 -50 -32 -96 -32 -29 0 -69 5 -88 11 -19 5 -44 12
-55 14 -11 3 -57 23 -102 45 -92 46 -108 44 -137 -16 -19 -41 -31 -124 -22
-158 8 -32 36 -34 61 -6 10 11 22 20 26 20 4 0 35 16 69 36 l61 35 112 -6 c62
-4 129 -6 149 -6 34 1 111 -30 123 -49 5 -8 115 -63 163 -81 23 -9 23 -10 16
-132 -6 -112 -5 -124 11 -130 22 -9 32 -2 51 36 21 41 84 107 103 107 8 0 39
14 70 32 l56 31 263 2 c144 1 265 5 268 8 4 3 -2 6 -12 6 -238 2 -679 31 -705
47 -5 3 -21 -2 -34 -10 -20 -13 -25 -14 -25 -3 0 8 -35 31 -77 51 -107 52
-113 59 -113 123 0 29 3 53 8 53 23 -1 95 -58 105 -82 3 -10 14 -18 24 -18 27
-1 54 -25 47 -43 -8 -22 17 -33 31 -14 7 10 22 17 33 17 39 0 31 16 -19 40
-28 13 -55 32 -60 42 -5 10 -9 46 -7 81 3 56 5 62 26 65 12 2 22 7 22 11 0 4
22 20 49 34 50 28 78 53 68 63 -3 3 -18 -1 -34 -9 -26 -14 -31 -14 -52 2 -22
17 -23 23 -17 77 11 92 15 100 56 123 44 25 150 112 150 123 0 11 -22 9 -45
-4z m-195 -213 c0 -28 -15 -33 -24 -8 -4 9 -1 20 6 25 18 11 18 11 18 -17z
m-72 -288 c-3 -14 -5 -14 -23 -1 -17 13 -18 16 -5 24 18 11 33 -2 28 -23z
m-161 -37 c-6 -50 -15 -60 -31 -37 -7 9 -19 17 -27 17 -13 1 44 60 57 60 3 0
4 -18 1 -40z m-465 -4 c34 -17 44 -27 35 -33 -19 -15 -105 -63 -112 -63 -5 0
-1 40 11 98 6 27 8 27 66 -2z m805 -233 c61 -6 62 -6 40 -22 -12 -9 -35 -23
-51 -31 -16 -8 -47 -37 -69 -65 l-40 -50 7 65 c12 108 16 122 34 115 10 -4 45
-9 79 -12z"/>
<path d="M1336 1130 c-26 -17 -50 -30 -54 -30 -4 0 -41 -31 -82 -69 l-75 -70
56 -53 c31 -29 60 -63 63 -75 4 -13 11 -23 16 -23 19 0 17 31 -6 79 -22 48
-23 56 -11 98 10 37 22 54 66 87 29 23 62 45 72 51 11 5 19 13 19 17 0 19 -21
15 -64 -12z m-136 -156 c0 -8 -5 -12 -10 -9 -6 4 -8 11 -5 16 9 14 15 11 15
-7z"/>
<path d="M1464 1118 c-16 -13 -34 -27 -40 -33 -6 -6 -41 -28 -78 -50 -36 -21
-66 -43 -66 -49 1 -6 21 -26 45 -43 24 -18 50 -45 57 -60 7 -14 19 -29 27 -31
13 -4 13 13 1 73 -1 6 -2 30 -1 54 1 40 7 50 51 93 47 45 61 68 41 68 -4 0
-21 -10 -37 -22z m-98 -146 c-4 -3 -12 0 -19 7 -9 9 -9 14 3 21 11 7 16 5 18
-6 2 -9 1 -18 -2 -22z"/>
<path d="M1595 1060 c-30 -27 -77 -61 -105 -75 -51 -26 -67 -55 -30 -55 11 0
20 -4 20 -8 0 -5 18 -26 40 -48 22 -21 40 -47 40 -56 0 -9 4 -19 9 -22 18 -12
28 22 35 113 3 52 10 99 16 106 5 6 7 15 3 19 -4 3 9 22 27 41 54 56 10 44
-55 -15z m-23 -112 c-2 -32 -7 -58 -11 -58 -4 0 -18 14 -31 32 l-23 31 34 28
c19 15 34 27 34 26 1 -1 -1 -28 -3 -59z"/>
<path d="M1755 1050 c-18 -20 -17 -20 37 -20 41 0 64 -6 88 -22 61 -42 73 -69
78 -167 4 -86 3 -91 -28 -146 -42 -73 -105 -116 -167 -113 -30 1 -43 6 -45 17
-5 21 36 346 48 390 6 19 4 22 -12 19 -22 -4 -42 -63 -43 -126 -1 -24 -8 -73
-16 -110 -9 -37 -20 -85 -24 -107 -5 -22 -6 -42 -3 -45 4 -3 8 -14 10 -25 6
-41 10 -43 74 -43 79 1 132 23 180 76 63 69 81 116 85 214 1 50 -2 90 -7 93
-6 3 -10 13 -10 22 0 26 -50 84 -86 99 -52 22 -137 18 -159 -6z"/>
<path d="M1200 744 c-52 -36 -107 -73 -122 -82 -36 -22 -35 -30 5 -47 17 -8
54 -39 80 -70 45 -52 77 -70 77 -43 0 6 -6 19 -14 27 -11 13 -12 33 -6 96 4
43 6 84 4 90 -2 5 17 22 41 37 25 15 45 34 45 43 0 8 -3 15 -7 14 -5 0 -51
-29 -103 -65z m-18 -93 l-4 -49 -24 21 c-31 27 -30 38 4 59 15 9 27 17 27 17
0 1 -2 -21 -3 -48z"/>
<path d="M1435 762 c-89 -67 -129 -92 -151 -92 -23 0 -54 -29 -54 -50 0 -9 9
-11 29 -7 26 6 35 1 71 -43 23 -28 48 -50 54 -50 9 0 15 24 19 74 6 83 22 122
67 159 28 24 39 47 23 47 -5 0 -30 -17 -58 -38z m-59 -94 c-3 -7 -7 -26 -11
-43 l-7 -30 -18 25 c-17 23 -17 24 4 41 25 22 37 24 32 7z"/>
<path d="M1574 752 c-18 -15 -50 -42 -73 -60 -23 -18 -41 -37 -41 -41 0 -4 16
-16 35 -27 19 -10 35 -24 35 -30 0 -7 8 -21 18 -33 15 -19 20 -20 44 -9 33 16
34 20 8 43 -24 21 -26 67 -5 85 19 16 19 30 0 30 -8 0 -24 -13 -37 -30 -12
-16 -25 -30 -30 -30 -15 0 -8 20 13 38 11 9 35 29 52 44 18 15 35 28 40 28 4
0 7 5 7 10 0 19 -35 9 -66 -18z"/>
</g>
</svg>
