<?xml version="1.0" standalone="no"?>
<!DOCTYPE svg PUBLIC "-//W3C//DTD SVG 20010904//EN"
 "http://www.w3.org/TR/2001/REC-SVG-20010904/DTD/svg10.dtd">
<svg version="1.0" xmlns="http://www.w3.org/2000/svg"
 width="226.000000pt" height="186.000000pt" viewBox="0 0 226.000000 186.000000"
 preserveAspectRatio="xMidYMid meet">
<metadata>
Created by potrace 1.16, written by Peter Selinger 2001-2019
</metadata>
<g transform="translate(0.000000,186.000000) scale(0.100000,-0.100000)"
fill="#000000" stroke="none">
<path d="M1090 1675 c-7 -8 -20 -15 -28 -15 -9 0 -34 -19 -57 -42 -22 -24 -68
-66 -103 -95 -34 -28 -58 -54 -53 -57 5 -4 12 -2 16 4 7 11 45 33 45 26 0 -3
-8 -13 -18 -23 -10 -10 -42 -47 -72 -83 -53 -63 -90 -99 -100 -100 -3 0 -12 5
-20 10 -12 8 0 24 65 84 44 42 76 75 72 76 -8 0 -158 -116 -206 -160 -22 -21
-31 -22 -120 -17 -53 3 -108 9 -123 12 -22 6 -28 4 -28 -8 0 -28 30 -35 178
-42 110 -6 142 -11 142 -21 0 -18 30 -17 53 0 17 13 54 13 179 2 26 -3 64 -14
86 -25 39 -20 40 -20 57 -1 16 17 31 20 120 20 92 0 103 -2 101 -17 0 -11 5
-17 14 -14 60 15 211 15 275 1 25 -6 44 -5 52 1 7 6 18 7 24 3 8 -5 -1 -11
-26 -18 -21 -6 -40 -16 -42 -22 -3 -8 13 -7 49 3 85 22 200 43 239 43 25 0 39
5 43 16 4 9 4 19 2 22 -7 6 -61 5 -174 -5 -51 -5 -96 -5 -98 -1 -6 10 147 239
209 311 27 32 47 61 44 64 -3 3 -13 -2 -22 -11 -10 -9 -30 -23 -46 -31 -16 -9
-29 -22 -29 -30 0 -22 -211 -236 -249 -252 -25 -11 -32 -19 -28 -33 4 -17 -2
-19 -84 -19 -49 0 -89 2 -89 5 0 3 5 14 10 25 8 13 7 19 0 19 -6 0 -13 -7 -16
-15 -4 -8 -12 -15 -19 -15 -18 0 -49 31 -38 39 4 3 15 15 23 26 13 18 12 18
-10 -1 -14 -12 -40 -29 -57 -38 -18 -9 -33 -21 -33 -27 0 -5 -24 -9 -55 -8
-39 2 -55 6 -55 16 0 15 -16 17 -25 3 -8 -13 -85 -13 -85 0 0 5 33 43 73 83
39 40 96 98 126 130 29 32 56 56 58 53 2 -2 -3 -20 -11 -40 -24 -57 -2 -33 39
42 20 37 51 82 68 100 21 22 26 32 16 32 -16 0 -175 -160 -259 -260 -25 -29
-71 -73 -104 -97 l-59 -43 -86 6 c-47 3 -88 7 -89 9 -5 4 55 92 65 97 5 1 52
53 106 115 53 61 120 127 147 147 28 20 50 40 50 46 0 15 -16 12 -30 -5z m595
-332 c-38 -67 -77 -105 -98 -97 -24 9 -21 18 11 51 36 35 104 93 110 93 2 0
-8 -21 -23 -47z"/>
<path d="M1589 1647 c-29 -22 -179 -198 -179 -209 0 -6 12 -1 26 13 25 23 26
23 15 2 -24 -47 -9 -42 25 8 20 30 49 68 65 84 16 17 29 38 29 47 0 9 4 20 10
23 9 6 34 45 28 45 -2 0 -10 -6 -19 -13z"/>
<path d="M1405 1367 c-11 -17 -26 -43 -33 -57 -12 -24 -12 -24 10 2 32 37 61
88 51 88 -4 0 -17 -15 -28 -33z"/>
<path d="M1146 1358 l-17 -33 20 24 c18 20 27 41 18 41 -1 0 -11 -15 -21 -32z"/>
<path d="M305 1326 c-11 -17 -18 -52 -20 -107 -5 -121 -16 -201 -31 -231 -8
-15 -11 -34 -8 -42 7 -17 34 -21 49 -7 11 9 172 37 270 46 33 3 87 10 120 16
166 27 312 49 425 64 141 17 183 25 177 31 -5 6 -267 -21 -497 -51 -102 -13
-228 -29 -280 -34 -52 -6 -117 -14 -143 -17 l-48 -7 5 39 c3 21 10 97 16 169
8 107 7 132 -4 143 -12 12 -17 10 -31 -12z"/>
<path d="M1338 1103 c7 -3 16 -2 19 1 4 3 -2 6 -13 5 -11 0 -14 -3 -6 -6z"/>
<path d="M320 779 c-8 -14 -8 -35 0 -76 7 -32 9 -79 5 -109 -5 -41 -3 -55 7
-59 8 -3 50 1 93 10 106 20 189 20 182 0 -6 -15 39 -59 73 -70 11 -3 20 -10
20 -15 0 -17 134 -150 151 -150 10 0 35 -21 56 -47 65 -82 125 -137 133 -123
5 8 -14 35 -54 74 -34 34 -77 83 -96 110 -26 35 -36 43 -40 31 -4 -13 -12 -9
-40 18 -53 51 -90 94 -90 105 0 6 -19 26 -42 46 -24 19 -40 37 -38 39 3 3 20
8 37 12 29 6 34 3 42 -17 5 -13 16 -30 25 -37 9 -7 16 -20 16 -27 0 -8 5 -14
10 -14 6 0 10 -5 10 -10 0 -18 45 -80 58 -80 6 0 12 2 12 5 0 17 -40 88 -73
128 -22 27 -37 50 -34 53 3 3 20 7 38 9 19 3 62 8 96 13 l63 9 22 -34 c13 -18
26 -33 30 -33 4 0 28 -28 54 -62 79 -105 223 -253 234 -242 3 3 -6 16 -20 28
-14 12 -40 39 -58 61 -19 22 -51 60 -73 85 -72 83 -159 189 -159 194 0 2 30 7
68 10 37 4 87 8 112 10 42 4 47 2 62 -25 10 -16 24 -29 33 -29 9 0 13 -4 10
-10 -3 -5 0 -10 7 -10 7 0 33 -18 57 -40 24 -22 48 -39 53 -38 9 3 -21 33
-125 126 -15 13 -26 26 -24 29 2 2 38 5 78 7 41 2 113 7 162 11 72 7 87 6 87
-6 0 -8 15 -30 33 -49 17 -19 50 -60 72 -90 44 -61 70 -92 133 -161 23 -25 42
-51 42 -57 0 -6 10 -18 22 -26 17 -12 24 -13 30 -3 14 22 9 57 -9 57 -21 0
-93 74 -93 96 0 10 -17 47 -39 83 -32 56 -68 157 -59 166 7 7 258 24 273 19 9
-4 25 2 35 11 16 14 17 21 8 32 -6 8 -21 13 -32 12 -12 -1 -29 2 -39 6 -11 4
-83 3 -161 -4 -79 -6 -223 -11 -322 -10 -168 1 -578 23 -634 33 -14 3 -92 8
-174 11 -83 4 -161 11 -175 17 -14 5 -50 11 -78 13 -45 4 -54 2 -63 -16z m355
-55 c127 -8 313 -16 415 -19 102 -3 219 -8 260 -12 41 -4 91 -6 110 -4 19 2
32 0 29 -3 -8 -9 -153 -24 -299 -31 -63 -3 -180 -12 -260 -21 -80 -8 -190 -17
-245 -19 -55 -2 -107 -6 -115 -9 -8 -2 -51 -7 -96 -11 l-81 -6 -7 76 c-4 41
-4 80 -1 85 3 6 16 5 33 -1 15 -6 131 -17 257 -25z m987 -112 c3 -21 15 -58
27 -82 11 -24 19 -45 17 -47 -5 -5 -136 149 -136 160 0 4 20 7 44 7 43 0 43
-1 48 -38z"/>
<path d="M1360 565 c0 -3 14 -33 30 -66 28 -55 29 -59 10 -49 -12 6 -24 9 -28
6 -3 -3 -1 -6 5 -6 6 0 27 -28 48 -61 21 -34 60 -84 86 -112 27 -28 49 -55 49
-58 0 -12 51 -69 61 -69 24 0 -11 54 -107 160 -17 19 -43 65 -57 101 -14 37
-37 83 -51 104 -15 21 -26 42 -26 46 0 5 -4 9 -10 9 -5 0 -10 -2 -10 -5z"/>
<path d="M1301 175 c22 -38 37 -50 46 -41 7 7 -45 76 -57 76 -5 0 0 -16 11
-35z"/>
</g>
</svg>
