<?xml version="1.0" standalone="no"?>
<!DOCTYPE svg PUBLIC "-//W3C//DTD SVG 20010904//EN"
 "http://www.w3.org/TR/2001/REC-SVG-20010904/DTD/svg10.dtd">
<svg version="1.0" xmlns="http://www.w3.org/2000/svg"
 width="202.000000pt" height="107.000000pt" viewBox="0 0 202.000000 107.000000"
 preserveAspectRatio="xMidYMid meet">
<metadata>
Created by potrace 1.16, written by Peter Selinger 2001-2019
</metadata>
<g transform="translate(0.000000,107.000000) scale(0.100000,-0.100000)"
fill="#000000" stroke="none">
<path d="M888 1022 c-32 -28 -96 -74 -188 -136 -25 -17 -51 -36 -58 -43 -25
-25 -52 -34 -95 -33 -23 1 -103 1 -177 0 -139 -1 -177 -11 -143 -35 10 -7 21
-11 26 -8 5 3 49 5 98 5 49 0 91 4 94 8 2 4 24 3 47 -2 82 -18 103 -19 131 -9
15 6 30 19 34 28 8 22 89 103 103 103 6 0 29 14 52 30 22 17 50 30 61 30 27 0
87 -67 124 -138 41 -78 48 -109 26 -115 -14 -3 -11 -7 12 -16 30 -12 67 -16
115 -12 14 1 79 2 145 1 89 -1 126 -5 143 -16 21 -14 26 -14 40 -1 21 18 218
32 227 17 4 -6 22 -9 41 -8 19 1 38 -2 43 -7 11 -11 -5 -245 -17 -257 -4 -4
-48 -4 -97 0 -50 4 -144 5 -210 1 -186 -11 -433 -10 -440 1 -7 11 -54 13 -79
4 -19 -7 -21 -30 -3 -37 13 -6 -91 -109 -154 -153 -51 -35 -80 -26 -118 39
-16 29 -41 65 -55 81 -21 23 -23 32 -15 48 13 25 -6 41 -31 28 -16 -9 -275
-25 -357 -23 -29 0 -43 -3 -43 -12 0 -23 31 -26 185 -14 l153 11 48 -52 c27
-29 66 -79 86 -111 32 -51 42 -59 68 -59 38 0 122 54 197 126 90 86 75 82 302
88 l204 6 -44 -38 c-24 -20 -53 -47 -64 -60 -11 -13 -32 -38 -47 -55 -32 -36
-33 -40 -13 -57 18 -15 45 -6 45 16 0 19 63 99 127 162 50 49 50 49 238 31 90
-9 102 -12 122 -37 34 -40 37 -33 48 113 3 39 7 99 9 135 1 36 6 73 10 82 13
29 -61 42 -234 43 l-155 0 -30 56 c-16 30 -41 70 -54 89 -15 20 -24 45 -23 62
2 24 -1 28 -22 28 -58 0 -43 -69 39 -184 19 -26 33 -51 31 -55 -2 -3 -76 -5
-163 -3 l-159 3 -2 32 c-1 18 -22 73 -46 122 -24 50 -53 111 -65 138 -12 26
-25 47 -31 47 -5 0 -24 -13 -42 -28z"/>
<path d="M775 710 c-9 -17 -18 -56 -21 -88 -5 -53 -14 -115 -30 -204 -6 -34
-4 -38 14 -38 27 0 35 14 38 64 2 23 8 70 13 106 27 178 22 230 -14 160z"/>
<path d="M227 603 c-4 -3 -7 -9 -7 -13 0 -12 133 -30 210 -29 41 1 89 -1 105
-4 31 -7 65 6 51 20 -4 4 -67 9 -140 10 -72 1 -144 7 -160 12 -32 13 -50 14
-59 4z"/>
</g>
</svg>
