<?xml version="1.0" standalone="no"?>
<!DOCTYPE svg PUBLIC "-//W3C//DTD SVG 20010904//EN"
 "http://www.w3.org/TR/2001/REC-SVG-20010904/DTD/svg10.dtd">
<svg version="1.0" xmlns="http://www.w3.org/2000/svg"
 width="126.000000pt" height="103.000000pt" viewBox="0 0 126.000000 103.000000"
 preserveAspectRatio="xMidYMid meet">
<metadata>
Created by potrace 1.16, written by Peter Selinger 2001-2019
</metadata>
<g transform="translate(0.000000,103.000000) scale(0.100000,-0.100000)"
fill="#000000" stroke="none">
<path d="M85 888 c-2 -7 -6 -47 -8 -88 -3 -41 -8 -87 -12 -101 -11 -41 17 -43
74 -5 37 25 70 37 123 46 40 6 96 16 123 22 28 5 77 11 110 14 32 2 84 6 115
10 30 3 96 5 145 4 50 0 124 4 165 11 41 6 108 10 148 10 76 -2 112 4 112 19
0 5 -15 12 -32 15 -18 4 -39 12 -46 18 -15 12 -253 3 -362 -14 -55 -8 -96 -8
-167 1 -52 6 -111 9 -132 5 -22 -4 -66 0 -106 10 -37 8 -101 16 -142 18 -40 1
-73 5 -73 10 0 12 -30 8 -35 -5z m175 -43 c14 -2 52 -8 86 -13 33 -6 90 -9
125 -7 60 4 61 4 19 -5 -25 -5 -92 -16 -150 -25 -58 -9 -125 -23 -149 -31 -62
-21 -73 -14 -67 43 3 27 5 50 5 52 1 3 20 1 131 -14z"/>
<path d="M107 613 c-4 -3 -7 -25 -7 -47 0 -23 -7 -63 -15 -91 -9 -27 -13 -55
-11 -62 7 -18 31 -16 47 3 24 29 144 66 289 89 52 9 106 18 120 20 22 5 399
25 550 30 85 3 86 3 71 18 -14 14 -178 13 -359 -3 -179 -15 -463 -8 -567 14
-11 3 -35 5 -52 5 -22 1 -33 6 -33 16 0 15 -21 21 -33 8z m138 -58 c33 -8 83
-15 110 -16 l50 -1 -65 -13 c-36 -7 -94 -23 -130 -34 -36 -11 -69 -21 -73 -21
-5 0 -6 15 -2 33 16 77 13 76 110 52z"/>
<path d="M125 328 c-9 -32 -15 -143 -9 -183 5 -35 10 -45 25 -45 11 0 19 4 19
9 0 25 184 75 330 91 58 6 157 19 220 30 63 10 122 19 130 19 224 -1 290 6
290 31 0 4 -129 6 -287 5 -159 -2 -349 -4 -423 -4 -134 -1 -265 7 -256 17 8 7
-13 42 -25 42 -5 0 -11 -6 -14 -12z m290 -74 c72 3 173 8 225 11 141 8 80 -12
-94 -30 -177 -19 -247 -31 -314 -56 -29 -10 -57 -19 -63 -19 -18 0 -29 47 -18
78 l10 29 62 -9 c34 -5 120 -7 192 -4z"/>
</g>
</svg>
