<?xml version="1.0" standalone="no"?>
<!DOCTYPE svg PUBLIC "-//W3C//DTD SVG 20010904//EN"
 "http://www.w3.org/TR/2001/REC-SVG-20010904/DTD/svg10.dtd">
<svg version="1.0" xmlns="http://www.w3.org/2000/svg"
 width="202.000000pt" height="140.000000pt" viewBox="0 0 202.000000 140.000000"
 preserveAspectRatio="xMidYMid meet">
<metadata>
Created by potrace 1.16, written by Peter Selinger 2001-2019
</metadata>
<g transform="translate(0.000000,140.000000) scale(0.100000,-0.100000)"
fill="#000000" stroke="none">
<path d="M1058 1265 c-3 -3 -45 -10 -94 -16 -126 -15 -133 -21 -126 -108 l5
-70 -194 5 c-107 3 -210 9 -229 14 -40 11 -107 19 -162 19 -31 1 -38 5 -38 21
0 11 -6 20 -13 20 -21 0 -42 -30 -54 -75 -11 -42 -11 -240 0 -251 4 -4 24 4
44 18 95 64 484 178 607 178 l29 0 -7 -62 c-3 -35 -8 -73 -10 -86 -3 -12 -6
-47 -8 -77 l-3 -54 -38 -6 c-72 -13 -460 -12 -515 1 -47 10 -55 10 -75 -6 -20
-17 -23 -30 -28 -147 -4 -70 -3 -132 1 -136 4 -5 27 5 49 21 23 17 72 42 109
55 148 55 269 96 297 102 56 11 176 27 180 24 1 -2 -3 -107 -10 -234 -8 -136
-10 -234 -5 -239 6 -6 15 -4 24 3 12 10 16 35 15 105 0 120 25 235 105 476
137 415 181 514 208 466 11 -19 45 -21 99 -4 22 6 41 9 44 6 3 -3 -8 -34 -25
-69 -16 -35 -30 -72 -30 -81 0 -9 -5 -30 -11 -45 -18 -43 -26 -65 -42 -103 -8
-19 -19 -48 -26 -63 -6 -15 -11 -36 -11 -45 -1 -9 -6 -30 -13 -46 -11 -25 -12
-13 -11 85 1 63 9 164 17 224 14 107 14 125 -2 125 -16 0 -28 -47 -30 -115 -1
-38 -6 -88 -11 -110 -4 -22 -9 -88 -10 -146 0 -59 -5 -122 -11 -140 -6 -19
-12 -70 -14 -114 -6 -119 -16 -234 -25 -284 -4 -25 -6 -50 -3 -57 2 -6 0 -15
-6 -19 -6 -3 -11 -15 -11 -26 0 -28 38 -25 44 4 2 12 9 47 15 77 13 67 19 123
26 216 2 39 14 92 25 118 11 26 20 54 20 62 0 8 8 14 18 14 9 0 33 10 52 22
19 11 60 35 90 51 30 17 67 40 82 53 15 12 54 28 85 34 32 7 67 18 79 25 19
12 131 19 241 16 22 -1 35 4 43 18 14 27 4 30 -55 21 -75 -12 -541 -17 -552
-6 -6 6 33 137 53 183 8 17 14 36 14 42 0 7 18 31 40 54 45 47 46 63 4 60
-125 -9 -195 -9 -200 -2 -6 10 -47 12 -56 4z m-25 -51 c3 -3 -4 -31 -15 -62
-10 -32 -21 -64 -23 -72 -2 -8 -15 -49 -30 -90 -15 -41 -38 -109 -52 -150 -33
-98 -40 -111 -59 -103 -17 6 -15 60 6 208 6 39 13 106 16 150 3 44 7 86 9 93
3 6 21 12 42 13 21 1 49 5 63 9 33 11 36 11 43 4z m-643 -164 c30 -8 79 -10
155 -5 128 8 132 -3 13 -34 -103 -27 -233 -69 -286 -92 -66 -29 -68 -28 -70
51 -2 57 1 70 13 70 8 0 15 7 15 14 0 18 89 16 160 -4z m940 -193 c-81 -24
-98 -36 -75 -53 14 -11 8 -17 -47 -48 -35 -19 -64 -31 -66 -26 -5 15 18 124
28 135 11 10 197 24 215 16 5 -3 -20 -14 -55 -24z m-540 -160 c0 -8 -12 -14
-27 -15 -84 -2 -427 -102 -526 -153 -22 -10 -41 -19 -43 -19 -2 0 -4 42 -4 93
l0 93 82 -3 c159 -6 453 3 511 15 4 1 7 -4 7 -11z m70 -7 c0 -5 -4 -10 -10
-10 -5 0 -10 5 -10 10 0 6 5 10 10 10 6 0 10 -4 10 -10z"/>
</g>
</svg>
