<?xml version="1.0" standalone="no"?>
<!DOCTYPE svg PUBLIC "-//W3C//DTD SVG 20010904//EN"
 "http://www.w3.org/TR/2001/REC-SVG-20010904/DTD/svg10.dtd">
<svg version="1.0" xmlns="http://www.w3.org/2000/svg"
 width="207.000000pt" height="199.000000pt" viewBox="0 0 207.000000 199.000000"
 preserveAspectRatio="xMidYMid meet">
<metadata>
Created by potrace 1.16, written by Peter Selinger 2001-2019
</metadata>
<g transform="translate(0.000000,199.000000) scale(0.100000,-0.100000)"
fill="#000000" stroke="none">
<path d="M460 1866 c-18 -17 -69 -43 -185 -96 -97 -44 -135 -73 -135 -102 0
-11 25 -45 56 -76 77 -77 223 -273 224 -299 0 -6 16 -44 35 -85 l35 -73 -44
-5 c-25 -3 -53 -14 -64 -23 -18 -17 -18 -19 0 -100 11 -45 26 -125 34 -177 8
-52 22 -126 30 -165 8 -38 17 -92 19 -120 3 -27 10 -81 15 -120 6 -38 12 -89
15 -112 7 -76 16 -92 41 -75 13 8 17 38 39 312 17 218 41 405 60 465 11 37 15
40 46 38 47 -2 131 -21 215 -48 39 -13 102 -31 140 -40 38 -8 137 -39 219 -67
131 -44 161 -51 240 -53 59 -1 104 -8 130 -19 73 -32 127 -45 145 -36 11 6 33
3 63 -8 37 -13 49 -14 59 -4 16 16 5 26 -57 50 -27 11 -90 39 -140 62 -49 24
-135 62 -190 85 -55 24 -181 79 -280 123 -99 44 -220 98 -270 120 -49 22 -118
54 -151 71 -34 17 -69 31 -77 31 -9 0 -21 8 -27 18 -10 15 -13 14 -36 -13 -14
-16 -39 -63 -57 -104 -18 -40 -36 -74 -42 -75 -19 -2 -45 67 -39 104 3 23 -3
60 -19 105 -27 81 -33 137 -30 295 1 78 7 128 18 157 24 62 4 96 -35 59z m-38
-138 c-4 -18 -7 -92 -7 -163 l0 -131 -54 71 c-30 38 -78 93 -108 120 -29 28
-53 53 -53 57 0 11 67 38 97 39 15 0 46 9 68 19 59 27 66 26 57 -12z m448
-521 c192 -91 270 -127 280 -127 11 0 61 -21 155 -65 109 -52 135 -62 214 -89
41 -14 77 -28 79 -31 10 -9 -130 -5 -169 5 -22 6 -58 15 -81 20 -24 6 -106 30
-183 55 -169 53 -242 74 -315 91 -105 24 -192 52 -205 66 -10 10 -8 26 14 81
32 83 24 83 211 -6z m-285 -149 c2 -2 -6 -62 -19 -134 -13 -71 -26 -182 -29
-248 -6 -109 -10 -136 -21 -125 -5 5 -13 52 -36 221 -10 76 -22 143 -26 150
-9 15 -33 136 -28 141 5 5 154 1 159 -5z"/>
</g>
</svg>
