<?xml version="1.0" standalone="no"?>
<!DOCTYPE svg PUBLIC "-//W3C//DTD SVG 20010904//EN"
 "http://www.w3.org/TR/2001/REC-SVG-20010904/DTD/svg10.dtd">
<svg version="1.0" xmlns="http://www.w3.org/2000/svg"
 width="135.000000pt" height="88.000000pt" viewBox="0 0 135.000000 88.000000"
 preserveAspectRatio="xMidYMid meet">
<metadata>
Created by potrace 1.16, written by Peter Selinger 2001-2019
</metadata>
<g transform="translate(0.000000,88.000000) scale(0.100000,-0.100000)"
fill="#000000" stroke="none">
<path d="M523 788 c-12 -6 -30 -31 -39 -55 -13 -33 -21 -42 -33 -38 -36 14
-185 24 -198 13 -21 -17 3 -37 50 -40 l42 -3 -53 -34 c-29 -18 -55 -31 -59
-28 -3 4 -5 27 -5 52 1 32 -3 45 -13 45 -26 0 -37 -42 -51 -200 -3 -36 -12
-88 -20 -117 -8 -28 -14 -67 -14 -86 0 -19 -7 -54 -15 -77 -9 -27 -12 -47 -6
-54 5 -6 18 -38 30 -71 19 -56 22 -60 50 -59 16 1 43 11 60 23 58 41 176 70
198 48 3 -4 16 -7 28 -7 12 0 35 -13 51 -30 45 -46 64 -40 172 57 90 80 249
193 272 193 5 0 10 7 10 15 0 16 36 39 48 31 5 -3 7 -57 6 -120 -1 -64 1 -116
6 -116 20 0 32 35 41 121 5 52 14 107 19 123 6 16 10 39 10 51 0 11 29 63 65
115 36 52 65 100 65 107 0 24 -40 34 -133 31 l-92 -3 3 -35 c2 -19 8 -39 13
-45 12 -12 12 -115 -1 -115 -27 0 -136 64 -269 158 -25 18 -73 50 -107 72 -33
22 -67 51 -74 65 -15 27 -23 29 -57 13z m98 -110 c24 -17 62 -46 83 -65 22
-18 45 -33 51 -33 7 0 20 -9 30 -20 17 -19 17 -20 -1 -20 -10 0 -33 9 -50 19
-17 11 -67 24 -110 31 -44 6 -89 13 -101 16 l-22 4 26 50 c14 28 31 50 38 50
7 0 32 -14 56 -32z m-177 -55 c-10 -40 -18 -46 -55 -35 -19 5 -43 8 -54 6 -20
-3 -20 -3 -1 12 11 8 30 14 42 14 12 0 27 7 34 15 21 26 41 19 34 -12z m740 9
c5 -9 -75 -142 -86 -142 -3 0 -9 24 -13 53 -3 28 -9 60 -11 69 -5 17 -3 17 88
26 9 1 19 -2 22 -6z m-932 -112 c-36 -35 -42 -37 -42 -10 0 21 24 39 53 40 15
0 13 -5 -11 -30z m309 16 c-6 -7 -9 -21 -5 -30 4 -10 1 -16 -7 -16 -8 0 -24
-3 -36 -6 -20 -5 -23 -2 -23 19 0 29 22 46 59 47 19 0 21 -3 12 -14z m116 -11
c37 -14 112 -37 166 -50 54 -14 114 -33 134 -44 l36 -18 -44 -26 c-136 -78
-413 -197 -461 -197 -23 0 -23 24 0 47 20 20 29 40 78 163 37 94 40 104 22 97
-9 -3 -13 6 -14 24 -1 16 3 29 7 29 4 0 39 -11 76 -25z m-221 2 c2 -2 1 -13
-3 -25 -5 -20 -11 -22 -84 -22 -44 0 -79 2 -79 5 0 14 108 54 134 49 16 -2 31
-5 32 -7z m64 -96 c-15 -29 -30 -35 -30 -13 0 22 8 32 27 32 10 0 11 -5 3 -19z
m-285 -21 c-16 -16 -31 -28 -33 -25 -7 7 39 55 52 55 5 0 -3 -13 -19 -30z
m215 -11 l0 -42 -72 7 c-40 4 -76 10 -81 15 -5 5 1 20 14 35 20 22 31 26 81
26 l58 0 0 -41z m100 -4 c-6 -15 -13 -25 -17 -21 -3 3 0 17 7 31 17 32 24 26
10 -10z m-30 -84 c-22 -45 -40 -47 -37 -3 2 17 11 31 27 39 13 7 26 11 27 9 2
-1 -6 -21 -17 -45z m-290 13 c-21 -24 -50 -37 -50 -22 0 7 10 18 23 24 32 17
41 16 27 -2z m217 -36 c4 -44 9 -42 -120 -32 -88 8 -99 22 -39 54 27 14 53 19
96 17 l59 -2 4 -37z m385 -16 c-95 -71 -172 -131 -197 -154 -35 -32 -53 -35
-71 -10 -18 24 -17 30 7 37 11 4 18 13 16 20 -4 8 10 17 36 25 45 13 157 61
197 85 34 20 40 18 12 -3z m-618 -47 c5 -14 -20 -35 -43 -35 -17 0 -13 28 7
39 23 14 29 13 36 -4z m232 -41 c-3 -15 -7 -29 -10 -31 -3 -3 -37 1 -77 8 -61
11 -68 14 -48 22 37 15 81 25 112 26 24 1 27 -2 23 -25z m-209 -75 c-41 -22
-53 -20 -44 6 4 10 19 15 44 15 l38 -1 -38 -20z"/>
</g>
</svg>
