<?xml version="1.0" standalone="no"?>
<!DOCTYPE svg PUBLIC "-//W3C//DTD SVG 20010904//EN"
 "http://www.w3.org/TR/2001/REC-SVG-20010904/DTD/svg10.dtd">
<svg version="1.0" xmlns="http://www.w3.org/2000/svg"
 width="202.000000pt" height="146.000000pt" viewBox="0 0 202.000000 146.000000"
 preserveAspectRatio="xMidYMid meet">
<metadata>
Created by potrace 1.16, written by Peter Selinger 2001-2019
</metadata>
<g transform="translate(0.000000,146.000000) scale(0.100000,-0.100000)"
fill="#000000" stroke="none">
<path d="M949 1393 c-21 -18 -29 -32 -25 -46 4 -18 1 -19 -52 -13 -31 3 -115
8 -187 11 -71 4 -137 8 -145 10 -8 3 -98 10 -200 16 -245 16 -235 15 -246 22
-21 13 -37 -12 -36 -55 1 -24 -2 -57 -7 -74 -6 -21 -5 -38 5 -55 19 -34 17
-76 -3 -87 -16 -9 -16 -12 1 -37 15 -22 16 -37 10 -88 -5 -34 -8 -69 -6 -77 1
-8 -3 -49 -9 -90 -6 -41 -12 -122 -14 -180 -3 -84 0 -108 12 -122 12 -14 14
-30 9 -72 -3 -30 -3 -57 1 -59 15 -9 55 13 60 33 6 23 61 59 100 66 48 8 63
15 63 29 0 10 -9 11 -42 3 -57 -12 -128 -44 -128 -57 0 -6 -5 -11 -10 -11 -10
0 -4 67 6 79 6 7 184 9 223 4 33 -6 33 -6 27 -47 -4 -22 -11 -73 -16 -111 -5
-39 -15 -83 -23 -98 -13 -25 -12 -34 9 -95 13 -37 24 -87 24 -112 1 -73 14
-82 55 -35 19 22 34 43 35 47 1 16 111 80 335 193 132 67 249 127 260 133 11
6 63 32 115 57 52 25 102 50 110 55 25 16 123 60 132 60 5 0 37 13 71 29 34
15 85 36 112 47 28 10 52 21 55 25 3 3 19 9 35 13 17 4 71 22 120 41 68 25 90
38 90 52 0 18 3 19 50 22 20 1 25 6 25 26 0 14 -4 26 -10 26 -5 1 -13 2 -17 3
-5 1 -35 8 -68 16 -33 7 -64 17 -70 22 -5 4 -41 8 -80 8 -58 0 -98 9 -206 44
-74 24 -154 49 -179 56 -25 7 -80 25 -122 42 -74 29 -114 31 -106 6 2 -6 26
-17 54 -23 62 -15 257 -76 349 -109 l70 -26 -50 6 c-62 6 -144 20 -303 50 -68
13 -137 24 -153 24 -25 0 -29 3 -24 19 3 11 8 29 10 41 7 35 39 133 75 228 7
18 26 50 41 72 17 23 24 42 18 45 -5 4 -35 9 -67 11 -31 3 -74 6 -95 8 -29 3
-44 -1 -68 -21z m-678 -44 c68 -6 160 -13 204 -15 44 -3 98 -6 120 -8 22 -2
80 -4 129 -5 49 -1 87 -3 85 -5 -7 -6 -126 -17 -254 -22 -66 -2 -174 -9 -240
-15 -66 -6 -144 -11 -173 -13 l-54 -2 6 29 c3 16 6 38 6 48 0 15 25 30 41 23
3 -2 61 -8 130 -15z m852 15 c4 -4 -2 -23 -12 -43 -10 -20 -31 -74 -46 -121
-16 -47 -33 -96 -38 -110 -6 -14 -11 -31 -13 -38 -15 -75 -81 -312 -86 -312
-10 0 1 167 16 245 2 11 7 39 11 63 5 32 11 42 26 42 10 0 19 5 19 10 0 6 -9
10 -20 10 -18 0 -19 7 -19 90 0 85 2 90 23 96 12 3 28 4 35 2 18 -4 26 21 9
26 -7 2 -25 7 -40 10 -16 4 -28 13 -28 21 0 12 16 15 78 15 43 0 82 -3 85 -6z
m-193 -93 c0 -27 -2 -29 -57 -34 -32 -3 -139 -3 -238 -1 -99 3 -196 5 -215 5
-24 0 -30 2 -20 8 17 10 103 18 275 27 97 5 197 14 248 23 4 0 7 -12 7 -28z
m-612 -28 c-16 -2 -40 -2 -55 0 -16 2 -3 4 27 4 30 0 43 -2 28 -4z m46 -28
c141 -1 221 -5 223 -11 2 -7 -12 -10 -34 -9 -21 0 -56 -2 -78 -6 -22 -4 -74
-10 -115 -13 -108 -9 -158 -16 -186 -26 -14 -6 -35 -10 -48 -10 -20 0 -22 4
-19 33 7 49 12 59 25 51 7 -4 111 -8 232 -9z m470 -24 c4 -6 20 -6 41 0 46 13
55 6 55 -42 0 -34 -3 -39 -22 -39 -13 -1 -135 -2 -273 -4 -137 -2 -288 -7
-335 -10 -154 -12 -181 -13 -177 -2 9 27 201 57 537 82 25 2 68 8 95 13 71 12
73 12 79 2z m83 -186 c-2 -40 -7 -77 -10 -81 -3 -5 -8 -54 -12 -109 -3 -55
-10 -131 -14 -170 -5 -38 -7 -95 -5 -127 4 -65 -2 -73 -69 -88 -26 -5 -73 -19
-105 -29 -108 -36 -187 -59 -224 -66 l-38 -7 0 43 c0 24 6 56 14 70 7 15 14
37 14 50 1 23 9 64 12 64 1 0 3 7 5 15 4 21 45 162 52 180 3 8 8 24 10 34 6
32 33 108 53 153 11 24 20 46 20 50 1 5 13 22 28 40 26 30 33 32 142 45 63 8
119 12 123 10 5 -2 7 -37 4 -77z m-560 49 c3 -8 -16 -15 -49 -19 -29 -4 -65
-13 -79 -21 -29 -14 -109 -44 -121 -44 -5 0 -6 19 -4 43 l4 42 83 6 c116 8
162 6 166 -7z m247 -41 c-9 -21 -22 -51 -29 -68 -7 -16 -28 -77 -45 -135 -18
-58 -36 -110 -41 -115 -4 -6 -26 -9 -48 -7 -44 4 -56 23 -49 73 2 20 9 24 35
24 17 0 35 4 39 8 12 11 -16 27 -47 27 -23 0 -25 3 -23 40 1 22 7 46 13 54 10
11 9 16 -3 23 -8 5 -17 23 -18 41 -3 30 0 35 33 46 19 7 68 13 109 14 40 1 76
4 78 7 11 11 10 3 -4 -32z m-250 -25 c13 -50 11 -51 -66 -44 -40 4 -86 7 -103
7 -28 -1 -27 0 15 20 25 11 65 24 90 29 25 4 48 8 51 9 4 0 9 -9 13 -21z m836
-48 c78 -12 255 -40 290 -46 14 -3 36 -7 50 -10 14 -3 75 -7 135 -10 61 -3
132 -12 159 -21 l48 -15 -111 -58 c-62 -32 -151 -71 -199 -86 -48 -15 -143
-50 -212 -77 -118 -47 -256 -96 -381 -136 l-56 -18 3 56 c1 31 12 92 24 136
12 44 30 118 40 165 31 144 42 157 115 138 17 -5 59 -13 95 -18z m-944 -20
c13 0 24 -4 24 -10 0 -5 -7 -10 -15 -10 -8 0 -15 -4 -15 -8 0 -5 -19 -8 -42
-7 -33 1 -48 -5 -65 -22 -32 -33 -47 -30 -39 8 3 17 6 38 6 47 0 12 10 14 61
8 34 -3 73 -6 85 -6z m1423 -26 c9 -8 -65 -2 -84 7 -13 6 -4 7 30 3 28 -4 52
-8 54 -10z m-1307 -51 c-6 -15 -22 -18 -92 -21 -101 -3 -125 3 -89 22 21 11
50 20 86 28 5 1 26 7 48 13 36 11 41 11 47 -6 4 -11 4 -27 0 -36z m1545 1 c-3
-3 -12 -4 -19 -1 -8 3 -5 6 6 6 11 1 17 -2 13 -5z m-1564 -53 c13 -1 17 -10
17 -46 l0 -45 -42 -2 c-24 0 -52 0 -64 1 -11 0 -42 -3 -70 -8 -49 -9 -49 -9
-26 9 12 10 47 26 77 35 51 14 66 27 48 38 -10 6 -144 -39 -152 -51 -3 -5 -16
-14 -28 -21 -22 -11 -23 -10 -23 22 0 36 21 62 55 69 16 3 134 2 208 -1z
m1514 3 c-3 -3 -12 -4 -19 -1 -8 3 -5 6 6 6 11 1 17 -2 13 -5z m-1511 -132 c6
-4 12 -26 12 -49 l2 -43 -113 0 c-101 1 -110 2 -92 16 11 8 36 17 57 20 42 7
77 28 65 40 -10 10 -143 -33 -179 -59 l-28 -18 0 29 c0 38 25 58 75 61 21 1
41 4 44 6 7 8 145 5 157 -3z m129 -19 c-4 -10 -10 -30 -13 -45 -4 -24 -9 -28
-38 -28 -36 0 -39 5 -28 59 6 28 10 31 46 31 34 0 39 -3 33 -17z m-47 -185
c-11 -51 -22 -103 -24 -114 -2 -12 -11 -25 -20 -28 -15 -6 -16 3 -10 101 7
112 16 133 56 133 16 0 15 -7 -2 -92z m812 86 c0 -3 -26 -17 -57 -31 -32 -15
-110 -55 -173 -89 -63 -34 -129 -66 -145 -70 -17 -4 -35 -11 -42 -16 -6 -5
-76 -41 -155 -80 -153 -75 -235 -122 -256 -147 -20 -25 -30 -2 -38 87 -5 62
-4 82 6 82 8 0 10 -8 7 -21 -3 -11 -3 -27 0 -35 8 -23 31 2 39 42 4 20 12 34
20 34 8 0 63 15 122 34 178 56 286 89 302 90 8 1 26 8 40 14 24 12 306 109
323 111 4 1 7 -1 7 -5z"/>
</g>
</svg>
