<?xml version="1.0" standalone="no"?>
<!DOCTYPE svg PUBLIC "-//W3C//DTD SVG 20010904//EN"
 "http://www.w3.org/TR/2001/REC-SVG-20010904/DTD/svg10.dtd">
<svg version="1.0" xmlns="http://www.w3.org/2000/svg"
 width="197.000000pt" height="123.000000pt" viewBox="0 0 197.000000 123.000000"
 preserveAspectRatio="xMidYMid meet">
<metadata>
Created by potrace 1.16, written by Peter Selinger 2001-2019
</metadata>
<g transform="translate(0.000000,123.000000) scale(0.100000,-0.100000)"
fill="#000000" stroke="none">
<path d="M987 1160 c-13 -19 -29 -23 -119 -30 -56 -5 -237 -6 -400 -3 -260 5
-298 4 -298 -9 0 -19 120 -28 383 -28 103 0 187 -4 187 -8 0 -5 -8 -16 -18
-25 -15 -14 -56 -17 -261 -22 -133 -3 -247 -7 -252 -11 -5 -3 -9 -10 -9 -16 0
-7 78 -9 245 -6 135 2 245 1 245 -2 0 -3 -8 -15 -18 -27 -16 -20 -28 -22 -177
-27 -212 -8 -295 -16 -295 -30 0 -8 62 -10 217 -8 169 2 214 0 198 -9 -11 -7
-30 -21 -43 -33 -21 -19 -36 -20 -190 -22 -198 -2 -182 -1 -182 -17 0 -11 33
-13 160 -11 176 3 173 4 87 -50 -26 -16 -105 -21 -207 -13 -36 3 -32 -26 5
-34 17 -4 52 -7 80 -8 38 -1 46 -4 37 -13 -18 -18 -15 -25 19 -32 61 -12 17
-23 -97 -25 -118 -1 -134 -4 -134 -23 0 -7 48 -9 145 -6 153 5 194 -3 214 -40
10 -19 6 -20 -112 -26 -181 -10 -217 -15 -217 -33 0 -13 11 -15 68 -9 37 3
123 7 192 7 118 2 128 0 166 -23 76 -49 73 -53 -39 -55 -197 -4 -422 -14 -450
-19 -31 -6 -32 -30 -1 -27 30 4 244 13 426 17 l168 5 72 -42 72 -42 -58 -5
c-32 -3 -175 -4 -317 -3 -243 2 -287 -2 -264 -25 3 -4 157 -5 342 -4 395 3
375 9 359 -93 -10 -68 1 -115 26 -115 16 0 37 85 31 125 -6 38 34 190 80 310
19 50 43 127 53 171 l18 82 70 11 c113 18 256 21 256 6 0 -16 -14 -22 -76 -30
-66 -9 -112 -24 -121 -39 -5 -7 -41 -35 -80 -61 -40 -26 -73 -52 -73 -56 0
-29 94 15 175 82 11 9 31 19 45 21 74 15 200 51 235 68 29 14 75 21 173 26
130 7 156 14 133 37 -9 9 -69 11 -219 7 -315 -7 -373 -6 -426 10 -56 17 -63
28 -46 73 7 17 22 57 33 87 12 30 37 72 56 92 25 27 32 41 24 49 -6 6 -53 12
-104 14 -52 1 -113 6 -135 10 -36 6 -43 4 -57 -15z m161 -52 c29 -2 50 -7 48
-13 -17 -46 -118 -374 -131 -425 -20 -81 -75 -229 -88 -237 -6 -4 -7 29 -3 93
4 55 8 119 9 144 2 39 5 45 25 46 12 1 25 4 29 7 11 12 -7 37 -27 37 -19 0
-20 4 -14 37 4 21 8 76 8 123 1 63 4 84 14 82 20 -4 27 29 9 40 -25 13 -22 48
3 48 11 0 23 7 26 15 4 9 14 13 23 11 9 -3 40 -7 69 -8z m-184 -11 c26 -19 17
-51 -15 -55 -22 -3 -29 2 -37 27 -11 30 -9 32 29 40 3 0 13 -5 23 -12z m-134
-47 c0 -5 -14 -10 -31 -10 -17 0 -28 4 -24 10 3 6 17 10 31 10 13 0 24 -4 24
-10z m-80 -48 c0 -4 -9 -13 -20 -20 -19 -12 -20 -11 -8 8 13 20 28 27 28 12z
m218 -19 c-3 -27 -5 -28 -73 -33 -38 -3 -81 -3 -94 -2 -22 3 -20 6 20 33 35
23 55 29 97 29 52 0 53 -1 50 -27z m-25 -75 c19 -9 27 -19 25 -33 -3 -19 -13
-20 -161 -25 -110 -3 -157 -2 -157 6 0 6 17 23 37 37 35 25 46 27 133 27 56 0
107 -5 123 -12z m216 -99 c-16 -10 -23 -4 -14 10 3 6 11 8 17 5 6 -4 5 -9 -3
-15z m-201 -21 c-3 -31 -6 -33 -51 -41 -26 -4 -103 -6 -170 -5 l-122 3 3 25
c5 51 2 50 177 50 l166 0 -3 -32z m-397 -31 c-7 -7 -25 -12 -42 -13 -34 -2
-33 -1 13 31 27 19 34 20 36 8 2 -8 -1 -20 -7 -26z m387 -62 c4 -30 -64 -45
-202 -45 l-114 0 -10 29 -11 30 47 4 c26 2 101 3 167 3 113 -1 120 -2 123 -21z
m-380 -17 c3 -24 0 -28 -23 -28 -22 0 -105 45 -105 57 0 2 28 3 63 1 59 -3 62
-4 65 -30z m365 -134 c-3 -97 -10 -104 -108 -104 -64 0 -77 3 -113 30 -23 17
-42 35 -42 41 0 7 41 9 120 8 66 -2 122 0 126 4 4 3 4 12 1 20 -4 11 -30 13
-135 9 -126 -4 -130 -4 -142 17 -23 43 -9 50 107 53 59 2 126 2 148 2 l40 -2
-2 -78z m-351 46 c9 -23 8 -23 -12 -5 -22 20 -27 39 -8 33 6 -2 15 -15 20 -28z
m331 -179 c13 -1 17 -10 17 -42 0 -41 0 -41 -22 -26 -13 9 -43 26 -66 38 -49
24 -42 39 17 34 20 -2 44 -3 54 -4z"/>
</g>
</svg>
