<?xml version="1.0" standalone="no"?>
<!DOCTYPE svg PUBLIC "-//W3C//DTD SVG 20010904//EN"
 "http://www.w3.org/TR/2001/REC-SVG-20010904/DTD/svg10.dtd">
<svg version="1.0" xmlns="http://www.w3.org/2000/svg"
 width="147.000000pt" height="145.000000pt" viewBox="0 0 147.000000 145.000000"
 preserveAspectRatio="xMidYMid meet">
<metadata>
Created by potrace 1.16, written by Peter Selinger 2001-2019
</metadata>
<g transform="translate(0.000000,145.000000) scale(0.100000,-0.100000)"
fill="#000000" stroke="none">
<path d="M212 1358 c-10 -12 -2 -25 41 -69 28 -30 78 -76 110 -102 31 -27 57
-55 57 -62 0 -8 -11 -22 -25 -31 -23 -15 -26 -14 -58 10 -19 14 -51 47 -73 73
-62 74 -107 114 -119 102 -6 -6 24 -43 88 -107 53 -53 97 -101 97 -105 0 -4
-15 -13 -32 -20 -33 -14 -88 -5 -88 13 0 5 -12 22 -26 39 -27 32 -64 42 -64
17 0 -18 94 -104 154 -142 25 -16 46 -32 46 -36 0 -3 -14 -9 -31 -13 -25 -6
-36 -2 -58 19 -15 14 -30 26 -34 26 -14 0 -6 -33 10 -46 10 -7 18 -21 18 -31
0 -12 9 -19 26 -21 15 -2 46 -19 69 -39 46 -39 44 -45 -22 -64 -27 -7 -36 -4
-71 26 -37 32 -67 45 -67 29 0 -8 99 -104 107 -104 11 0 63 -42 63 -51 0 -6
-16 -17 -37 -25 -34 -15 -38 -14 -64 5 -49 36 -71 20 -24 -17 24 -19 24 -20 5
-25 -35 -9 -23 -29 13 -22 26 5 38 1 67 -24 34 -30 35 -31 15 -47 -11 -8 -32
-14 -47 -11 -16 2 -28 0 -28 -5 0 -4 0 -11 0 -15 -1 -5 -15 -15 -32 -24 -44
-23 -44 -47 0 -87 34 -31 36 -34 19 -45 -42 -27 -52 -36 -45 -42 3 -4 20 1 37
9 43 23 63 20 95 -13 l28 -29 -40 -26 c-22 -13 -56 -32 -77 -40 -20 -9 -34
-20 -30 -26 4 -6 38 6 86 30 84 43 95 43 132 2 10 -11 17 -25 15 -33 -2 -7 6
-15 17 -17 11 -2 31 -14 45 -26 71 -62 83 -55 20 12 -43 45 -52 90 -26 125 13
17 19 14 82 -43 78 -69 100 -84 108 -71 3 5 -32 43 -79 86 -47 42 -85 80 -85
84 0 4 12 13 26 20 24 11 31 8 81 -34 53 -43 73 -54 73 -37 0 4 -23 27 -52 53
l-51 45 51 22 c29 13 52 27 52 32 0 16 -17 12 -69 -14 l-48 -25 -37 37 c-20
21 -36 40 -36 44 0 3 14 11 30 18 27 11 33 10 53 -6 12 -11 26 -25 30 -31 9
-15 37 -17 37 -3 0 5 -14 22 -31 37 l-31 28 29 12 c43 18 71 16 78 -7 3 -11
15 -20 26 -20 23 0 24 8 2 32 -13 14 -14 21 -5 30 17 17 15 30 -5 27 -32 -3
-40 1 -74 31 -32 27 -33 30 -17 46 16 17 28 15 60 -8 22 -16 32 -5 19 20 -11
21 1 32 39 32 19 0 47 27 37 36 -3 3 -29 -2 -57 -11 l-50 -17 -34 29 c-19 15
-35 31 -35 35 -1 9 61 31 82 29 9 -1 17 2 17 7 0 5 9 12 20 15 37 10 22 28
-17 21 -34 -5 -42 -2 -71 29 l-34 35 46 27 46 27 46 -27 c49 -29 74 -25 36 5
-12 10 -28 20 -35 23 -9 3 -9 8 2 21 18 22 7 32 -23 18 -25 -11 -53 -1 -101
36 -16 13 -21 23 -14 33 5 8 9 11 9 7 0 -4 15 1 33 12 17 11 39 20 48 20 9 0
29 11 45 25 44 38 8 32 -71 -11 -36 -20 -68 -34 -71 -31 -3 3 0 22 7 42 10 27
26 44 65 66 28 16 59 29 68 29 9 0 16 7 16 15 0 8 -7 15 -16 15 -9 0 -12 -5
-8 -12 4 -7 3 -8 -4 -4 -6 4 -30 -3 -53 -14 -22 -12 -43 -20 -45 -17 -2 2 9
21 25 41 26 33 32 64 12 67 -3 0 -48 2 -99 5 -82 3 -98 1 -122 -16 -25 -18
-28 -26 -25 -65 l3 -45 -32 23 c-40 29 -118 105 -137 136 -12 20 -16 21 -27 9z
m301 -135 c-2 -10 3 -10 22 -1 31 14 34 11 28 -28 -4 -25 -13 -36 -45 -50 -37
-16 -41 -17 -52 -2 -6 9 -10 35 -8 58 4 38 6 41 31 38 14 -2 25 -9 24 -15z
m37 -105 c0 -7 -4 -19 -9 -26 -6 -10 -11 -10 -21 3 -12 14 -11 18 1 26 20 12
29 11 29 -3z m-44 -47 l24 -19 -32 -20 c-38 -24 -48 -21 -48 17 0 46 17 53 56
22z m-96 -17 c0 -8 -5 -12 -10 -9 -6 4 -8 11 -5 16 9 14 15 11 15 -7z m-21
-35 c21 -20 21 -22 6 -39 -25 -28 -51 -30 -84 -6 -17 11 -31 24 -31 27 0 6 66
37 81 38 3 1 15 -8 28 -20z m134 -27 c-5 -22 -27 -30 -38 -13 -5 9 35 45 42
38 1 -2 0 -13 -4 -25z m97 -49 c-54 -33 -74 -25 -65 25 4 20 9 40 11 44 2 3
25 -5 50 -19 l45 -26 -41 -24z m-127 -1 c23 -21 22 -59 -4 -72 -11 -7 -22 -10
-24 -8 -2 2 -7 28 -11 57 -7 57 -4 59 39 23z m-75 -28 c-3 -13 -6 -12 -26 2
-22 15 -22 17 -5 29 15 11 19 11 26 -1 5 -8 7 -21 5 -30z m-8 -48 c14 -18 7
-46 -13 -46 -7 0 -32 15 -56 33 l-42 32 22 17 c20 17 22 17 48 -2 15 -10 34
-26 41 -34z m187 -18 c18 -18 33 -35 33 -39 0 -15 -62 -29 -76 -18 -15 12 -18
46 -8 73 8 22 13 21 51 -16z m-109 -72 c2 -28 0 -37 -10 -34 -7 3 -14 22 -16
42 -2 28 0 37 10 34 7 -3 14 -22 16 -42z m-81 -18 c31 -29 29 -44 -7 -63 -33
-17 -52 -12 -83 23 -17 19 -17 20 20 40 48 26 43 26 70 0z m192 -42 l33 -34
-29 -16 c-29 -14 -31 -14 -56 12 -25 26 -26 29 -11 50 20 29 24 28 63 -12z
m-120 -38 c-2 -35 -14 -74 -20 -63 -3 6 -4 16 -3 23 1 6 2 23 3 37 0 14 6 25
11 25 6 0 10 -10 9 -22z m-63 -36 c-4 -3 -12 0 -19 7 -9 9 -9 14 3 21 11 7 16
5 18 -6 2 -9 1 -18 -2 -22z m124 -2 c0 -4 -7 -10 -15 -14 -11 -4 -15 2 -15 21
0 21 2 24 15 13 8 -7 15 -16 15 -20z m-133 -34 l23 -26 -31 -15 c-16 -9 -38
-13 -48 -10 -18 5 -68 53 -60 57 67 41 76 40 116 -6z m195 -17 l37 -32 -37
-18 c-47 -24 -54 -24 -82 5 -26 28 -22 52 12 66 32 12 30 13 70 -21z m-172
-64 c0 -29 -12 -32 -31 -9 -10 13 -10 17 2 25 23 14 29 11 29 -16z m84 -11
c18 -7 12 -24 -10 -24 -8 0 -14 7 -14 15 0 17 2 18 24 9z m-121 -32 c38 -30
37 -41 -4 -59 -27 -12 -41 -6 -92 37 -16 13 -15 16 15 32 43 22 39 23 81 -10z
m-96 -59 l35 -27 -22 -18 c-32 -26 -58 -22 -91 13 -28 30 -28 32 -12 45 27 20
51 17 90 -13z m127 -29 c8 -20 8 -24 -1 -24 -17 0 -35 19 -29 29 10 16 23 14
30 -5z m93 -20 c14 -13 14 -17 2 -25 -23 -14 -29 -11 -29 16 0 29 5 31 27 9z
m-118 -33 l34 -28 -28 -21 c-36 -28 -43 -28 -84 10 l-35 31 23 18 c31 26 50
23 90 -10z m31 -83 c0 -7 -4 -19 -9 -27 -8 -13 -12 -13 -26 -1 -16 13 -16 15
1 27 22 16 34 17 34 1z"/>
<path d="M775 1328 c-10 -25 2 -40 85 -109 41 -34 78 -67 82 -73 12 -17 9 -84
-3 -91 -13 -9 -103 72 -119 108 -13 28 -35 36 -43 15 -3 -7 25 -41 61 -75 74
-68 75 -85 6 -87 -21 -1 -39 -7 -41 -13 -7 -19 45 -24 84 -8 44 19 63 14 63
-17 0 -17 -12 -29 -42 -46 l-42 -22 -41 40 c-22 22 -44 40 -48 40 -16 0 -5
-21 28 -53 29 -28 33 -36 20 -41 -24 -9 -8 -26 23 -26 27 0 72 -24 72 -39 0
-9 -65 -41 -84 -41 -8 0 -16 -6 -19 -14 -5 -13 17 -35 77 -79 20 -14 -34 -49
-64 -42 -22 5 -32 1 -49 -21 -25 -32 -15 -49 20 -35 19 7 30 4 49 -11 26 -21
19 -32 -27 -44 -35 -9 -30 -50 6 -69 17 -8 32 -19 36 -25 6 -10 -65 -50 -90
-50 -25 0 -14 -33 16 -47 14 -7 34 -22 44 -33 16 -18 17 -23 5 -30 -8 -6 -25
-10 -37 -10 -25 0 -56 -27 -48 -41 10 -14 27 -11 79 17 l49 26 25 -25 c13 -14
21 -30 17 -36 -6 -10 -138 -81 -150 -81 -21 0 -25 -1 -25 -10 0 -26 35 -18
111 24 44 25 83 46 85 46 2 0 10 -21 17 -47 16 -56 43 -66 41 -15 -1 18 4 32
10 32 6 0 42 -25 81 -54 38 -30 72 -52 75 -50 5 6 -36 45 -126 120 l-49 41 39
17 c54 23 61 21 133 -29 88 -62 104 -52 20 12 -67 51 -73 63 -31 63 13 0 25 4
28 9 3 5 15 7 26 4 36 -9 21 13 -35 53 -30 21 -55 42 -55 46 0 4 17 16 38 27
33 17 40 17 57 5 10 -8 25 -14 33 -14 12 0 11 4 -3 20 -15 17 -16 20 -3 20 23
0 44 28 30 42 -7 7 -20 6 -43 -6 l-33 -16 -38 37 -38 37 38 18 c20 9 42 17 49
18 7 0 33 14 58 31 32 21 43 35 36 42 -6 6 -21 3 -46 -12 -33 -19 -38 -20 -65
-6 -43 22 -43 30 1 53 50 27 64 27 96 2 34 -27 43 -17 14 14 l-23 25 33 20
c19 12 46 21 60 21 15 0 37 9 50 19 22 18 23 20 5 27 -12 5 -44 -6 -96 -31
l-78 -38 -31 26 -31 26 59 34 c32 19 69 38 82 42 13 4 30 12 37 18 9 7 18 5
32 -8 10 -9 24 -15 30 -13 6 2 -17 30 -50 62 l-61 59 31 13 c30 13 41 34 18
34 -7 0 -24 -6 -38 -13 -22 -12 -27 -11 -47 10 -13 13 -23 27 -23 31 0 4 17
16 38 27 51 26 63 36 56 47 -3 5 -31 -5 -61 -23 l-56 -31 -28 30 -28 30 34 21
c19 11 53 25 75 31 38 10 60 33 47 47 -3 3 -44 -15 -91 -40 -76 -40 -87 -44
-95 -29 -7 12 -3 25 11 44 29 42 20 53 -48 54 -32 1 -79 4 -103 7 -53 8 -70
-3 -69 -44 2 -54 -16 -56 -73 -8 -28 24 -60 57 -70 73 -15 24 -19 27 -24 14z
m302 -110 c11 -9 7 -75 -6 -90 -3 -4 -18 -9 -32 -12 -20 -3 -29 1 -37 17 -14
28 -24 92 -16 99 8 8 76 -2 91 -14z m63 -52 c0 -3 -4 -8 -10 -11 -5 -3 -10 -1
-10 4 0 6 5 11 10 11 6 0 10 -2 10 -4z m50 -51 c13 -14 22 -26 19 -28 -67 -52
-118 -51 -98 1 22 58 43 65 79 27z m-181 -9 c9 -10 8 -15 -4 -20 -10 -4 -15 1
-15 14 0 24 4 25 19 6z m48 -68 c-2 -23 -11 -37 -28 -45 -23 -12 -24 -11 -27
24 -4 37 8 53 41 53 15 0 17 -6 14 -32z m184 -42 c-37 -18 -41 -18 -65 -2 -14
9 -26 20 -26 24 0 4 17 16 38 28 l37 21 28 -26 28 -26 -40 -19z m-79 -14 c16
-14 14 -16 -25 -37 -23 -13 -45 -21 -49 -18 -15 8 -8 43 12 63 21 21 30 20 62
-8z m161 -17 c15 -14 27 -28 27 -30 0 -5 -170 -105 -179 -105 -4 0 -22 15 -40
34 l-32 33 47 28 c45 27 48 27 81 11 45 -21 53 -20 24 5 -13 11 -22 21 -20 23
11 9 45 25 54 26 6 0 23 -11 38 -25z m-293 -62 c0 -37 -24 -22 -28 17 -3 30
-2 32 12 21 9 -8 16 -25 16 -38z m-70 -18 c0 -40 -17 -46 -45 -15 -18 20 -18
21 1 35 31 24 44 18 44 -20z m158 -45 l22 -28 -34 -21 c-45 -28 -57 -27 -52 7
11 85 23 93 64 42z m-98 -10 c0 -11 -2 -20 -4 -20 -2 0 -6 9 -9 20 -3 11 -1
20 4 20 5 0 9 -9 9 -20z m-54 -84 c-9 -46 -22 -53 -56 -27 -16 11 -30 17 -33
13 -2 -4 -3 -2 -1 4 1 6 -2 16 -8 22 -7 7 3 17 33 31 56 25 75 12 65 -43z
m254 -2 c0 -5 -78 -44 -88 -44 -5 0 -22 10 -36 21 l-28 22 47 27 48 28 28 -26
c16 -14 29 -27 29 -28z m-132 -43 l24 -15 -37 -19 c-20 -10 -39 -17 -41 -15
-2 2 -1 21 3 41 3 23 10 34 17 30 6 -4 22 -13 34 -22z m91 -83 c-2 -2 -23 -13
-45 -26 l-41 -22 -27 21 c-31 25 -28 33 27 58 l42 20 24 -24 c14 -14 23 -26
20 -27z m-225 26 c19 -19 14 -29 -23 -49 -25 -12 -31 -12 -50 1 -29 21 -26 33
12 49 41 18 42 18 61 -1z m97 -71 c14 -16 12 -19 -17 -26 -4 -1 -8 8 -9 21 -2
26 7 28 26 5z m-87 -18 c-3 -7 -12 -11 -20 -8 -17 6 -18 20 -1 26 18 6 27 -1
21 -18z m-37 -27 c30 -28 29 -34 -7 -53 -28 -15 -31 -14 -62 14 l-33 29 35 15
c45 20 40 20 67 -5z m203 -23 c18 -19 32 -36 29 -37 -20 -13 -68 -38 -71 -38
-8 0 -68 57 -68 64 0 6 60 46 71 46 3 0 20 -16 39 -35z m-170 -70 c0 -23 -2
-24 -20 -15 -21 11 -25 22 -13 33 15 16 33 6 33 -18z m85 -15 c0 -7 -6 -15
-12 -17 -8 -3 -13 4 -13 17 0 13 5 20 13 18 6 -3 12 -11 12 -18z m-121 -21
c34 -26 33 -35 -5 -58 l-32 -19 -38 25 c-22 14 -39 27 -39 28 0 6 66 45 76 45
6 0 23 -9 38 -21z m197 -36 c21 -16 39 -30 39 -33 0 -4 -16 -12 -35 -19 -33
-12 -38 -11 -71 14 -19 14 -32 31 -28 36 5 8 37 25 52 28 2 1 21 -11 43 -26z
m-161 -74 c0 -29 0 -29 -25 -13 -24 16 -25 18 -9 35 21 24 34 16 34 -22z m85
15 c17 -13 18 -16 5 -24 -26 -16 -40 -11 -40 15 0 29 7 30 35 9z"/>
</g>
</svg>
