<?xml version="1.0" standalone="no"?>
<!DOCTYPE svg PUBLIC "-//W3C//DTD SVG 20010904//EN"
 "http://www.w3.org/TR/2001/REC-SVG-20010904/DTD/svg10.dtd">
<svg version="1.0" xmlns="http://www.w3.org/2000/svg"
 width="294.000000pt" height="171.000000pt" viewBox="0 0 294.000000 171.000000"
 preserveAspectRatio="xMidYMid meet">
<metadata>
Created by potrace 1.16, written by Peter Selinger 2001-2019
</metadata>
<g transform="translate(0.000000,171.000000) scale(0.100000,-0.100000)"
fill="#000000" stroke="none">
<path d="M1964 1652 c-23 -20 -54 -44 -70 -52 -55 -27 -86 -65 -48 -58 11 2
30 -22 60 -80 24 -46 46 -92 47 -103 2 -10 6 -22 10 -25 4 -4 7 -22 7 -41 l0
-33 -57 0 c-31 0 -53 -3 -49 -7 9 -9 13 -10 71 -12 31 -1 45 -5 45 -15 0 -20
-169 -34 -181 -15 -17 26 -9 39 24 40 l32 2 -37 10 c-24 7 -38 17 -42 32 -11
42 -8 222 3 244 10 17 9 22 -4 27 -8 4 -21 1 -29 -5 -15 -12 -123 -71 -131
-71 -27 0 -32 -2 -32 -15 0 -8 5 -12 10 -8 5 3 6 -3 3 -14 -4 -13 6 -36 34
-73 22 -29 40 -57 40 -61 0 -4 3 -14 6 -23 9 -25 -58 -21 -146 8 -41 14 -77
23 -81 20 -4 -2 -12 3 -19 11 -6 7 -18 11 -27 8 -13 -5 -14 -18 -9 -72 8 -90
-2 -101 -41 -43 -40 59 -87 230 -78 284 7 37 -7 78 -26 78 -6 0 -27 -13 -47
-29 -20 -17 -66 -44 -102 -62 -36 -18 -83 -46 -105 -64 -22 -18 -71 -49 -110
-70 -38 -21 -113 -64 -166 -95 -52 -31 -103 -56 -112 -54 -26 4 -38 -19 -28
-54 l10 -32 -167 6 c-92 3 -183 10 -202 16 l-34 11 34 29 c19 16 53 33 75 39
22 6 63 17 90 25 69 19 98 22 193 23 45 1 82 5 82 10 0 14 -37 20 -125 21 -44
1 -96 5 -115 10 -19 4 -73 11 -120 14 -47 4 -94 13 -107 21 -12 8 -29 15 -37
15 -19 0 -31 -57 -21 -100 4 -20 2 -36 -6 -46 -11 -14 -10 -18 4 -29 9 -7 17
-19 17 -27 0 -8 4 -18 10 -24 12 -12 13 -49 5 -136 -4 -48 -3 -68 5 -68 14 0
4 -105 -15 -161 -11 -30 -11 -40 -1 -48 7 -6 17 -7 22 -3 4 4 2 -1 -6 -11 -11
-15 -11 -20 -1 -26 9 -6 11 -21 6 -47 -18 -114 -16 -184 6 -184 5 0 23 16 40
35 17 19 37 35 44 35 7 0 15 6 18 13 3 8 26 24 52 36 26 12 64 33 85 46 24 15
72 30 132 40 204 34 188 40 -102 39 l-239 -2 6 32 c13 70 84 106 252 126 47 5
89 14 95 20 5 5 26 10 45 10 l35 0 -34 -35 c-18 -19 -48 -41 -67 -50 -18 -9
-33 -22 -33 -30 0 -11 19 -13 89 -12 87 1 91 0 130 -31 22 -18 44 -32 48 -32
5 0 26 -22 47 -50 21 -28 42 -50 47 -50 4 0 24 -17 44 -37 32 -33 34 -39 21
-49 -21 -15 -20 -34 1 -34 24 0 93 -50 93 -67 0 -23 62 -12 75 12 5 12 42 54
81 95 39 41 91 98 117 125 43 46 47 48 47 25 0 -14 -7 -61 -15 -104 -8 -44
-13 -82 -10 -85 3 -3 14 0 23 7 27 20 118 55 137 53 75 -6 124 -15 119 -22 -9
-15 13 -10 25 5 10 12 91 19 91 8 0 -2 -15 -25 -34 -51 -18 -25 -48 -76 -66
-113 -18 -38 -36 -68 -39 -68 -7 0 -65 29 -89 44 -10 6 -10 11 -1 22 17 21 -4
18 -45 -7 -20 -12 -36 -26 -36 -32 0 -7 21 -20 48 -30 74 -29 77 -32 74 -66
-2 -17 1 -31 7 -31 18 0 52 40 67 78 34 84 89 184 123 221 36 40 54 46 138 42
36 -2 24 -40 -37 -111 -30 -36 -71 -86 -89 -113 -23 -32 -42 -47 -57 -47 -21
0 -34 -17 -34 -46 0 -10 12 -14 38 -14 28 0 44 -7 65 -29 15 -16 27 -34 27
-41 0 -6 10 -10 23 -8 17 2 22 10 23 33 1 43 13 76 40 107 12 15 34 54 49 85
15 32 41 86 57 120 l30 62 97 0 c99 -1 151 7 151 22 0 5 10 9 23 8 12 0 82 3
155 6 l132 7 1 -29 c2 -88 -1 -185 -6 -193 -8 -14 15 -24 28 -11 15 15 16 26
27 186 8 119 32 323 45 375 8 36 68 230 87 285 20 57 52 113 71 126 5 4 7 15
5 25 -3 17 -14 19 -123 19 -133 0 -127 4 -110 -72 l8 -33 -227 -1 c-124 0
-255 -1 -291 -1 -36 -1 -69 2 -73 6 -4 4 -7 87 -6 185 0 147 3 181 17 202 15
23 14 40 -2 39 -3 -1 -24 -18 -47 -38z m6 -144 l-1 -113 -25 45 c-13 25 -33
59 -43 76 -11 17 -16 36 -12 43 6 10 70 59 79 61 1 0 2 -51 2 -112z m-752 -45
c5 -27 19 -78 30 -115 10 -38 16 -68 13 -68 -9 0 -91 84 -91 93 0 4 -11 25
-25 46 -29 43 -26 63 13 78 44 18 49 15 60 -34z m531 -150 c7 -37 6 -43 -9
-43 -23 0 -36 17 -45 57 -3 18 -17 41 -29 51 -13 9 -29 28 -35 41 -15 27 -12
30 54 61 l40 19 8 -72 c4 -40 11 -91 16 -114z m-662 105 c11 -13 28 -37 36
-53 17 -33 244 -252 283 -273 13 -7 24 -19 24 -26 0 -7 10 -25 21 -40 34 -43
43 -17 18 49 l-22 59 23 18 c30 24 82 36 160 37 99 1 113 -8 148 -94 29 -70
85 -155 104 -155 11 0 10 26 -1 48 -10 18 -48 133 -56 168 -4 18 2 21 65 30
39 5 75 7 81 3 6 -3 9 -24 7 -45 -2 -29 1 -39 12 -39 8 0 14 8 14 18 -3 34 12
16 33 -40 13 -32 25 -71 29 -88 11 -58 15 -65 35 -65 25 0 24 15 -1 40 -11 11
-20 29 -20 41 0 11 -14 55 -30 96 -17 42 -27 80 -23 84 5 5 100 11 213 13 125
4 206 10 208 16 4 11 90 14 116 4 13 -5 16 -29 17 -147 2 -179 1 -238 -3 -259
-2 -9 2 -18 7 -20 6 -2 11 12 12 31 1 18 5 45 8 60 9 32 10 84 2 97 -9 15 -2
218 8 234 5 8 8 33 6 56 -2 33 1 43 16 48 19 6 102 1 109 -7 3 -3 -2 -24 -11
-48 -41 -112 -111 -384 -121 -470 -6 -55 -24 -84 -24 -38 0 11 -4 18 -9 14 -5
-3 -7 -20 -5 -38 3 -17 2 -55 -1 -83 l-6 -52 -147 3 c-161 4 -365 15 -371 21
-2 2 2 10 9 19 10 12 9 16 -5 21 -14 6 -11 12 17 43 19 20 54 61 78 91 24 30
52 63 62 73 21 20 24 41 6 35 -11 -4 -60 -61 -153 -180 -76 -97 -78 -98 -160
-98 -41 0 -75 2 -75 4 0 17 58 104 97 146 37 40 40 47 17 52 -13 2 -5 17 34
63 41 48 48 61 35 64 -10 2 -19 -2 -21 -8 -7 -22 -107 -137 -196 -227 l-91
-92 -55 5 c-107 8 -215 32 -225 49 -5 9 -20 29 -33 44 l-22 28 50 37 c47 35
65 65 38 65 -7 0 -48 -33 -90 -74 -42 -41 -88 -80 -101 -88 -13 -7 -42 -25
-63 -39 -39 -25 -152 -89 -159 -89 -2 0 -1 19 1 42 3 24 6 66 8 93 3 28 16 82
31 120 31 84 31 82 40 123 4 19 23 48 41 66 59 57 44 81 -50 77 -52 -2 -62 0
-77 20 l-17 22 -15 -30 c-15 -27 -15 -32 1 -54 13 -19 16 -49 16 -160 0 -126
-2 -140 -26 -188 -25 -52 -23 -74 5 -46 14 13 15 9 10 -43 -3 -31 -9 -61 -13
-66 -5 -4 -29 11 -53 35 -25 24 -50 49 -56 54 -18 16 -61 69 -61 76 0 3 -12
11 -26 18 -21 9 -24 14 -14 26 8 9 10 31 6 62 -4 26 -8 62 -10 78 -2 17 1 46
8 66 26 75 -3 78 -69 8 l-48 -52 -126 7 c-69 3 -157 8 -196 9 -87 5 -155 17
-155 28 0 28 201 119 260 117 14 0 52 5 84 11 32 6 63 8 68 4 6 -3 7 -18 4
-34 -5 -27 -3 -29 23 -29 23 0 31 6 40 30 5 17 17 38 26 47 24 23 118 145 133
171 6 12 12 28 12 36 0 8 12 21 28 29 15 8 61 33 102 56 41 22 78 41 81 41 3
0 15 -10 26 -22z m-771 -113 c33 -1 69 -7 79 -12 15 -9 8 -12 -35 -18 -30 -4
-78 -16 -109 -26 -30 -11 -56 -17 -58 -15 -3 2 -7 23 -10 47 l-6 42 39 -8 c21
-4 66 -8 100 -10z m1226 -36 c33 -10 70 -19 82 -20 11 0 -17 -12 -64 -25 -47
-14 -92 -27 -100 -30 -12 -4 -15 6 -16 55 -1 56 0 60 18 50 10 -5 46 -19 80
-30z m-768 -29 c-30 -55 -90 -130 -105 -130 -12 0 -41 71 -35 87 3 7 20 19 38
27 18 7 48 26 67 40 55 41 66 34 35 -24z m916 -18 c-29 -5 -36 4 -19 24 12 14
14 14 27 -3 11 -16 11 -18 -8 -21z m74 12 c4 -9 4 -19 1 -22 -6 -6 -35 18 -35
29 0 16 28 10 34 -7z m496 -4 c-180 -18 -250 -20 -250 -6 0 11 34 14 163 13
132 0 148 -1 87 -7z m-431 -170 c0 -8 -7 1 -14 20 -18 46 -17 64 0 25 8 -16
14 -37 14 -45z m-1459 50 l55 0 -115 -57 c-63 -32 -119 -60 -124 -62 -5 -2 -6
5 -1 15 7 18 10 37 13 91 2 21 6 22 60 18 31 -2 82 -4 112 -5z m748 -66 c10
-3 8 -13 -7 -42 -11 -21 -23 -55 -27 -76 -5 -31 -9 -35 -16 -22 -13 23 -18
130 -7 137 12 7 39 9 57 3z m-363 -247 l8 -38 -41 16 c-26 11 -61 16 -97 13
-30 -1 -55 -2 -55 -1 0 8 116 109 131 115 11 4 23 16 27 25 5 12 9 0 13 -37 4
-30 10 -72 14 -93z m-430 104 c65 -6 68 -8 42 -19 -84 -36 -118 -54 -147 -78
l-32 -27 5 54 c6 75 15 92 41 83 11 -3 53 -10 91 -13z m130 -11 c3 -5 1 -10
-4 -10 -6 0 -11 5 -11 10 0 6 2 10 4 10 3 0 8 -4 11 -10z m1371 -192 c-26 -40
-50 -64 -64 -66 -12 -2 -22 0 -22 4 0 8 117 124 125 124 2 0 -15 -28 -39 -62z
m-1400 -27 c-3 -5 -36 -26 -74 -46 -37 -21 -83 -50 -103 -66 -20 -16 -39 -29
-42 -29 -8 0 -3 123 6 136 4 8 46 12 113 13 64 1 103 -2 100 -8z m1080 -41
c38 -5 83 -11 99 -14 17 -2 41 -5 54 -5 l24 -1 -23 -25 c-25 -26 -73 -37 -51
-12 6 8 8 16 6 19 -12 11 -102 -6 -145 -27 -25 -12 -60 -25 -79 -29 l-34 -6 8
42 c7 44 11 73 14 96 1 9 10 6 29 -8 18 -13 55 -25 98 -30z m-269 -17 c-46
-60 -140 -153 -154 -153 -5 0 -19 7 -31 16 -26 18 -27 61 -2 76 61 36 217 118
223 118 5 0 -12 -26 -36 -57z m787 32 c-4 -8 -11 -15 -16 -15 -6 0 -5 6 2 15
7 8 14 15 16 15 2 0 1 -7 -2 -15z m-84 -45 c0 -19 -37 -34 -91 -37 -46 -3 -59
0 -59 10 0 8 6 19 13 25 22 19 137 20 137 2z m-170 3 c0 -19 -37 -43 -67 -43
-37 0 -40 5 -16 32 15 17 83 26 83 11z m220 -7 c0 -7 -9 -16 -20 -19 -25 -6
-26 8 -2 22 22 13 22 13 22 -3z m199 -15 c10 -17 6 -19 -47 -19 -88 -1 -122 6
-115 23 4 11 23 15 79 15 62 0 75 -3 83 -19z m-269 -45 c0 -2 -7 -9 -15 -16
-13 -11 -14 -10 -9 4 5 14 24 23 24 12z m17 -78 c-14 -29 -35 -75 -47 -102
-18 -38 -79 -138 -95 -154 -2 -2 -15 9 -29 23 l-26 26 20 38 c10 22 25 45 33
52 7 8 23 28 35 46 36 51 127 144 130 133 2 -5 -8 -33 -21 -62z"/>
</g>
</svg>
