<?xml version="1.0" standalone="no"?>
<!DOCTYPE svg PUBLIC "-//W3C//DTD SVG 20010904//EN"
 "http://www.w3.org/TR/2001/REC-SVG-20010904/DTD/svg10.dtd">
<svg version="1.0" xmlns="http://www.w3.org/2000/svg"
 width="276.000000pt" height="130.000000pt" viewBox="0 0 276.000000 130.000000"
 preserveAspectRatio="xMidYMid meet">
<metadata>
Created by potrace 1.16, written by Peter Selinger 2001-2019
</metadata>
<g transform="translate(0.000000,130.000000) scale(0.100000,-0.100000)"
fill="#000000" stroke="none">
<path d="M1265 1155 c-16 -8 -41 -14 -55 -15 -14 0 -45 -14 -70 -30 -25 -16
-52 -27 -61 -25 -9 3 -34 -4 -54 -16 -30 -18 -41 -20 -55 -11 -22 14 -80 -12
-152 -66 -49 -37 -67 -79 -29 -67 14 4 21 -2 31 -24 6 -16 20 -37 31 -47 36
-32 22 -36 -98 -30 -65 4 -216 9 -335 11 -225 6 -241 7 -271 34 -18 15 -20 14
-38 -8 -11 -13 -19 -39 -20 -60 0 -20 -2 -56 -4 -81 -6 -58 3 -100 20 -100 7
0 27 12 44 26 30 25 205 99 261 111 17 3 33 10 36 14 3 5 43 9 89 9 50 0 87 4
91 11 5 8 9 8 14 -1 5 -8 48 -11 138 -11 148 1 148 1 194 -85 24 -46 35 -53
44 -30 5 14 2 24 -39 96 -12 20 -15 36 -9 42 9 9 47 -32 94 -102 25 -36 48
-50 48 -28 0 7 -15 38 -34 69 -25 41 -31 60 -24 73 5 9 7 29 5 44 -3 15 -2 45
2 67 l6 40 23 -39 c13 -21 21 -45 18 -53 -4 -8 4 -17 19 -23 14 -5 34 -29 49
-59 29 -55 43 -69 52 -48 3 8 -9 43 -26 77 -30 59 -31 66 -24 138 l7 76 21
-60 c33 -90 124 -234 148 -234 15 0 8 33 -15 64 -38 52 -52 85 -40 97 6 6 9
43 5 97 -3 66 -1 96 12 126 9 21 16 40 16 42 0 8 -36 2 -65 -11z m-5 -130 c0
-41 -2 -75 -4 -75 -2 0 -13 27 -25 61 -19 50 -25 58 -37 48 -11 -9 -14 -8 -14
3 0 22 22 38 52 38 l28 0 0 -75z m-120 -35 c0 -45 -3 -58 -13 -54 -18 6 -47
58 -47 81 0 26 8 33 37 33 22 0 23 -4 23 -60z m-110 -59 c0 -55 -4 -102 -9
-105 -7 -5 -76 136 -76 156 0 8 63 46 78 47 4 1 7 -44 7 -98z m-126 28 c15
-77 1 -99 -35 -56 -40 46 -41 55 -12 71 38 21 40 20 47 -15z m51 -127 c-22 -5
-27 1 -19 23 7 17 8 17 21 -1 12 -17 12 -19 -2 -22z m-640 -38 c14 -3 25 -9
25 -13 0 -6 -178 -81 -192 -81 -2 0 -4 25 -4 55 l0 55 72 -5 c40 -2 84 -7 99
-11z"/>
<path d="M1802 1127 c-12 -13 -22 -30 -22 -39 0 -8 -10 -30 -23 -49 -30 -45
-48 -89 -42 -99 2 -4 35 -11 72 -16 100 -12 118 -11 118 6 0 10 -19 19 -64 28
-36 7 -67 14 -69 16 -5 6 17 46 39 69 17 19 18 18 48 -14 17 -19 31 -38 31
-44 2 -36 96 -92 228 -139 79 -27 212 -88 212 -97 0 -3 -14 -16 -32 -29 -31
-23 -34 -23 -107 -12 -42 7 -107 17 -145 23 -45 7 -93 23 -135 46 -81 43 -101
60 -101 87 0 17 -4 15 -20 -12 l-21 -34 -60 7 c-56 7 -61 6 -57 -11 2 -13 17
-22 47 -30 l44 -10 -32 -36 c-28 -33 -40 -58 -25 -58 3 0 25 11 48 25 36 21
52 24 112 21 38 -2 81 -8 96 -14 15 -6 56 -14 90 -18 35 -3 65 -8 67 -10 1 -1
-26 -17 -60 -35 -35 -18 -58 -34 -51 -37 8 -2 24 0 35 6 58 27 116 45 155 48
l44 3 -39 -28 c-150 -108 -316 -201 -383 -216 -19 -4 -41 -12 -48 -18 -9 -7
-16 -7 -23 0 -18 18 107 139 165 160 27 10 51 24 53 30 3 9 -14 6 -52 -7 -32
-11 -61 -18 -65 -15 -4 3 -13 -2 -20 -10 -7 -8 -21 -15 -31 -15 -11 0 -19 -4
-19 -10 0 -5 -7 -7 -15 -4 -8 4 -15 1 -15 -5 0 -6 10 -11 22 -11 21 0 21 0 2
-21 l-19 -21 -20 26 c-13 16 -31 26 -47 26 -40 0 -41 -13 -2 -43 19 -16 34
-35 34 -43 0 -24 -77 41 -100 85 -11 20 -40 58 -64 86 l-44 49 15 41 c9 22 23
46 32 53 14 11 14 14 1 22 -23 15 -29 12 -36 -17 -13 -53 -39 -88 -67 -91 -35
-4 -34 2 8 52 51 60 65 76 125 132 100 93 169 170 175 197 10 37 -19 37 -39 0
-18 -34 -320 -342 -358 -366 -15 -9 -67 -76 -115 -148 -114 -170 -112 -168
-151 -217 -52 -66 -58 -45 -20 76 5 19 11 44 12 56 2 13 19 47 38 77 66 100
98 159 85 159 -6 0 -33 -33 -60 -73 -26 -39 -55 -84 -65 -98 -9 -14 -41 -62
-71 -107 -29 -45 -57 -82 -62 -82 -19 0 -21 33 -5 68 17 34 17 37 0 49 -26 19
-34 16 -34 -11 0 -38 -10 -56 -31 -56 -28 0 -35 27 -14 50 10 11 15 23 11 27
-9 9 -86 -68 -86 -87 0 -8 20 -24 46 -35 25 -11 55 -30 66 -42 15 -16 28 -21
45 -17 17 5 30 -1 53 -26 23 -25 36 -31 62 -28 27 2 35 -2 46 -25 l14 -29 23
22 c14 13 21 29 18 40 -3 10 7 60 22 112 21 71 44 118 95 198 44 69 74 106 88
108 11 2 37 -5 58 -15 32 -15 40 -24 42 -51 3 -32 19 -41 39 -21 11 11 18 4
66 -71 12 -19 57 -58 100 -87 65 -44 81 -51 98 -43 13 7 19 7 19 0 0 -5 7 -10
15 -10 9 0 25 -16 36 -35 17 -29 27 -35 55 -35 30 0 34 3 35 28 0 19 27 59 97
142 75 88 116 126 177 167 44 29 100 66 124 83 47 34 66 33 81 -4 11 -30 135
-120 155 -112 20 7 10 26 -34 61 -45 36 -113 124 -105 137 8 13 85 68 95 68 4
0 2 -12 -6 -27 -7 -16 -16 -50 -20 -77 -5 -38 -4 -47 7 -44 7 3 17 22 22 44
21 97 33 129 59 155 45 46 32 67 -17 28 -29 -23 -166 -122 -184 -133 -12 -7
-35 0 -215 73 -141 57 -177 76 -177 97 0 8 -17 27 -39 42 -41 28 -82 81 -91
115 -8 29 -23 31 -48 4z m28 -352 c25 -14 24 -14 -19 -15 -37 0 -42 2 -31 15
15 18 18 18 50 0z m173 -300 c-5 -8 -32 -39 -61 -69 l-53 -54 -25 25 c-24 24
-24 26 -7 38 10 7 43 23 73 36 30 12 59 26 65 30 14 13 17 11 8 -6z m-989
-119 c-3 -9 -10 -16 -15 -16 -6 0 -5 9 1 21 13 24 24 20 14 -5z m114 -52 c-16
-38 -15 -37 -28 -29 -7 4 -3 17 11 36 26 36 34 32 17 -7z"/>
<path d="M2518 1123 c7 -3 16 -2 19 1 4 3 -2 6 -13 5 -11 0 -14 -3 -6 -6z"/>
<path d="M1638 755 c-3 -3 -2 -23 3 -43 5 -20 9 -65 9 -99 0 -34 4 -64 9 -67
9 -6 34 18 26 26 -3 2 -7 33 -11 68 -6 63 -26 125 -36 115z"/>
<path d="M997 591 c-48 -44 -23 -40 -375 -62 -221 -13 -421 -4 -445 20 -6 6
-17 11 -24 11 -10 0 -13 -32 -13 -140 0 -165 3 -169 84 -87 29 28 86 73 128
99 l75 48 169 4 c93 3 187 10 209 15 22 6 53 11 69 11 24 0 26 -2 16 -15 -6
-8 -10 -19 -8 -26 2 -6 44 28 93 75 50 47 84 85 77 86 -7 0 -31 -18 -55 -39z
m-704 -98 c37 -3 67 -9 67 -13 0 -5 -21 -21 -47 -36 -27 -15 -64 -40 -83 -56
l-35 -28 -7 37 c-4 21 -4 55 -1 76 5 30 9 37 22 31 9 -3 46 -9 84 -11z"/>
<path d="M1386 552 c-8 -26 -60 -102 -149 -220 -42 -57 -75 -108 -71 -113 3
-5 18 -9 34 -9 22 0 32 -7 42 -27 7 -16 23 -29 36 -31 19 -3 22 1 22 27 0 16
-4 32 -9 35 -9 6 0 64 20 139 6 22 29 67 51 100 46 68 64 117 43 117 -8 0 -16
-8 -19 -18z m-127 -272 c-6 -16 -15 -27 -20 -24 -9 5 -5 17 14 42 15 19 17 14
6 -18z"/>
</g>
</svg>
