<?xml version="1.0" standalone="no"?>
<!DOCTYPE svg PUBLIC "-//W3C//DTD SVG 20010904//EN"
 "http://www.w3.org/TR/2001/REC-SVG-20010904/DTD/svg10.dtd">
<svg version="1.0" xmlns="http://www.w3.org/2000/svg"
 width="224.000000pt" height="161.000000pt" viewBox="0 0 224.000000 161.000000"
 preserveAspectRatio="xMidYMid meet">
<metadata>
Created by potrace 1.16, written by Peter Selinger 2001-2019
</metadata>
<g transform="translate(0.000000,161.000000) scale(0.100000,-0.100000)"
fill="#000000" stroke="none">
<path d="M1785 1533 c-63 -9 -136 -35 -147 -53 -11 -18 -15 -17 -78 16 -37 19
-72 34 -78 34 -20 0 -13 -27 8 -33 12 -3 50 -23 84 -44 60 -36 64 -40 70 -83
5 -36 3 -48 -11 -57 -24 -19 -33 -16 -84 22 -52 37 -83 88 -73 118 9 28 -13
38 -76 31 -30 -3 -157 -6 -281 -7 -230 -2 -259 -7 -259 -42 0 -12 -135 -83
-185 -98 -29 -9 -53 14 -57 52 l-3 33 -29 -25 c-15 -13 -24 -27 -19 -30 6 -4
7 -23 4 -44 -6 -34 -10 -38 -36 -36 -15 1 -31 6 -34 11 -3 5 -16 13 -29 17
-38 11 -25 47 19 57 39 8 109 45 109 57 0 18 -15 19 -62 5 -33 -10 -67 -13
-104 -8 -46 5 -55 4 -60 -11 -5 -12 1 -24 17 -36 36 -28 16 -23 -61 16 -38 19
-76 35 -85 35 -30 0 -14 -19 38 -44 122 -60 127 -66 127 -148 0 -29 -1 -30
-23 -15 -12 8 -58 34 -101 57 -61 33 -80 40 -89 30 -9 -10 -9 -14 1 -17 19 -7
145 -74 166 -89 19 -13 18 -14 -17 -29 -38 -16 -64 -11 -84 14 -9 12 -14 13
-23 4 -14 -13 -4 -37 11 -28 5 4 9 -5 9 -19 0 -21 5 -26 25 -26 14 0 44 -12
67 -26 l41 -26 -39 -19 c-21 -10 -43 -18 -49 -19 -5 0 -36 18 -69 39 -53 35
-86 43 -86 21 0 -5 27 -23 60 -41 33 -17 60 -36 60 -41 0 -5 -22 -19 -50 -31
-60 -26 -72 -56 -12 -32 20 9 47 23 60 31 26 17 46 13 90 -20 30 -22 31 -24
14 -38 -30 -27 -57 -36 -86 -31 -24 5 -28 3 -23 -10 3 -8 -1 -21 -9 -27 -31
-27 -2 -42 35 -18 16 9 28 7 71 -14 l52 -26 -44 -26 c-54 -31 -63 -32 -107 -5
-19 11 -41 17 -50 14 -12 -5 -8 -11 21 -26 20 -10 39 -23 42 -28 4 -5 -19 -21
-49 -36 -54 -25 -71 -45 -39 -45 19 0 144 -61 144 -71 0 -6 -72 -44 -102 -53
-22 -6 -13 -36 11 -36 9 0 38 -17 65 -37 l49 -36 -24 -18 c-13 -11 -35 -22
-49 -25 -14 -4 -32 -12 -40 -19 -8 -7 -25 -16 -37 -19 -23 -7 -32 -26 -13 -26
6 0 27 7 46 15 33 13 39 13 72 -5 44 -23 89 -57 82 -62 -3 -3 -40 -21 -83 -41
-42 -21 -77 -42 -77 -48 0 -14 16 -9 115 35 67 29 81 33 88 21 4 -8 16 -15 26
-15 9 0 26 -7 37 -15 32 -24 39 -17 10 10 -32 29 -30 41 7 69 l27 20 42 -24
c24 -13 81 -56 128 -97 47 -40 88 -73 93 -73 20 0 -34 58 -106 113 -116 90
-122 95 -117 99 14 11 63 28 80 28 11 0 55 -24 99 -53 85 -58 111 -72 111 -57
0 5 -36 35 -80 66 -44 32 -80 60 -80 63 0 4 19 12 42 19 45 14 68 29 68 43 0
5 -8 9 -19 9 -10 0 -38 17 -62 38 -24 22 -54 44 -67 51 -28 15 -21 27 25 46
56 24 76 18 145 -38 55 -44 66 -59 75 -97 23 -98 52 -154 108 -207 78 -75 102
-85 96 -41 0 3 19 16 42 27 51 25 101 72 147 140 19 28 39 51 44 51 5 0 17 6
25 14 9 8 37 26 63 40 46 25 49 26 73 10 14 -9 25 -20 25 -24 0 -5 -20 -20
-45 -34 -25 -15 -45 -33 -45 -41 0 -20 14 -19 34 4 9 10 34 26 56 36 36 16 40
16 55 1 9 -9 21 -16 26 -16 20 0 8 -20 -21 -35 -16 -9 -30 -13 -30 -10 0 10
-55 -22 -74 -44 -17 -19 -17 -21 -2 -21 9 0 33 10 54 23 47 30 104 50 113 40
4 -5 9 -17 11 -28 2 -11 12 -21 23 -24 11 -2 41 -23 67 -47 42 -40 79 -57 78
-36 0 4 -25 34 -55 67 -60 64 -67 93 -34 124 21 20 21 20 68 -15 25 -19 63
-46 83 -59 20 -13 53 -39 73 -56 19 -17 38 -29 41 -27 3 3 -14 21 -38 39 -24
18 -45 36 -48 39 -3 3 -33 28 -68 55 -34 26 -59 52 -55 56 4 3 29 16 54 27
l46 20 36 -32 c19 -17 52 -46 72 -63 54 -48 67 -28 14 21 -25 23 -58 50 -74
62 l-30 21 40 20 c31 16 45 18 63 10 41 -19 37 3 -10 48 l-46 44 36 14 c35 14
38 13 65 -9 16 -13 33 -24 38 -24 16 0 9 17 -13 33 l-23 15 20 22 20 23 -40
-6 c-29 -5 -44 -2 -57 10 -22 20 -23 33 -3 33 8 0 15 5 15 10 0 6 -16 10 -35
10 -32 0 -95 33 -95 50 0 3 23 14 50 24 55 20 54 20 113 -33 19 -17 30 -22 38
-14 7 7 -1 20 -25 41 -20 17 -36 34 -36 36 0 3 23 15 50 27 49 21 65 39 35 39
-8 0 -37 -9 -65 -20 -51 -20 -52 -20 -79 -1 -55 40 -57 48 -12 71 28 14 50 18
68 14 24 -6 26 -5 15 8 -10 13 -8 18 15 33 34 23 15 32 -24 12 -27 -14 -30
-13 -66 18 l-37 32 56 22 c67 25 82 26 112 5 32 -22 40 -9 14 19 -12 13 -22
29 -22 35 0 7 -9 12 -20 12 -11 0 -37 15 -58 34 l-37 35 60 26 c120 54 145 67
145 76 0 13 -14 11 -52 -5 -178 -76 -171 -74 -206 -58 -18 9 -31 20 -29 25 3
11 94 50 187 82 35 12 66 27 68 34 9 28 -84 0 -218 -65 -77 -37 -100 -35 -100
11 0 29 12 38 88 65 60 22 80 35 69 47 -3 3 -34 -4 -68 -16 -79 -27 -83 -26
-64 3 13 19 14 29 5 45 -9 18 -43 44 -52 40 -2 -1 -16 -4 -33 -6z m20 -95
c-12 -53 -37 -61 -91 -27 -43 26 -43 39 -1 40 17 0 41 4 52 9 39 17 47 12 40
-22z m-389 -91 c-4 -40 -9 -97 -13 -127 -3 -30 -6 -61 -6 -67 0 -7 -6 -13 -14
-13 -15 0 -17 -16 -3 -25 15 -10 12 -52 -5 -59 -17 -6 -20 -36 -4 -36 9 0 10
-30 6 -107 -5 -102 -6 -108 -32 -129 -28 -22 -27 -48 0 -37 18 6 20 -25 5 -77
-6 -19 -19 -83 -29 -141 -23 -127 -29 -140 -105 -218 -49 -51 -64 -61 -92 -61
-86 0 -146 130 -204 445 -16 85 -20 154 -9 161 7 4 6 12 -3 22 -10 12 -13 47
-12 127 1 61 3 157 3 215 1 58 5 121 9 140 7 31 12 35 42 37 19 1 87 5 150 8
63 4 115 7 117 8 1 1 47 3 104 4 l102 2 -7 -72z m-550 31 c-3 -13 -6 -39 -6
-59 0 -35 -1 -36 -55 -51 -58 -16 -63 -15 -119 33 -7 6 88 63 96 58 2 -1 19 8
38 20 44 27 54 26 46 -1z m848 -25 c-21 -15 -34 -8 -34 17 0 17 3 18 26 8 24
-11 24 -13 8 -25z m-145 -75 c1 -11 -88 -50 -99 -43 -11 7 -13 57 -4 92 6 22
7 21 54 -10 27 -18 49 -35 49 -39z m206 48 c16 -12 17 -18 8 -39 -14 -30 -71
-61 -88 -47 -6 5 -9 25 -7 44 3 27 10 37 31 45 35 13 35 13 56 -3z m-1160 -5
c3 -5 1 -12 -5 -16 -5 -3 -10 1 -10 9 0 18 6 21 15 7z m1034 -52 c-9 -5 -15
-4 -18 2 -2 6 3 15 10 20 9 5 15 4 18 -2 2 -6 -3 -15 -10 -20z m-1165 2 c17
-19 17 -20 -4 -31 -26 -14 -29 -11 -36 24 -5 32 15 35 40 7z m201 -5 l30 -24
-35 -15 c-30 -12 -39 -12 -62 0 -34 16 -36 40 -5 53 33 13 39 12 72 -14z
m1211 -15 l25 -20 -48 -22 c-26 -13 -52 -25 -56 -27 -5 -2 -5 13 -1 34 10 58
37 69 80 35z m-268 -7 c32 -22 27 -41 -18 -64 -36 -18 -42 -19 -55 -6 -8 8
-24 18 -35 21 -26 8 -18 20 28 45 45 24 52 24 80 4z m-770 -37 c1 -51 -3 -59
-46 -74 -32 -11 -38 -10 -89 25 l-55 36 39 13 c35 13 41 12 76 -8 46 -25 59
-20 21 10 -28 22 -25 26 26 34 14 2 26 5 26 6 1 0 2 -18 2 -42z m-314 27 c20
-8 21 -57 2 -73 -11 -10 -23 -8 -56 9 -45 23 -45 24 -3 51 32 20 36 21 57 13z
m1238 -24 c-4 -28 -5 -29 -29 -13 l-25 16 24 13 c33 19 35 18 30 -16z m226
-45 l24 -23 -56 -21 c-31 -11 -62 -21 -68 -21 -15 0 -78 40 -78 50 0 4 26 19
58 33 62 27 74 25 120 -18z m-1403 25 c-3 -5 -11 -10 -16 -10 -6 0 -7 5 -4 10
3 6 11 10 16 10 6 0 7 -4 4 -10z m1155 -32 c0 -7 -53 -38 -65 -38 -7 0 -7 65
1 72 7 7 64 -24 64 -34z m-253 8 l27 -24 -34 -21 c-19 -11 -39 -19 -45 -18
-24 8 -15 87 10 87 7 0 26 -11 42 -24z m-1089 -40 l-3 -36 -39 23 -38 24 33
21 c40 25 51 17 47 -32z m280 10 l42 -29 -41 -19 -42 -18 -39 25 c-46 30 -50
59 -10 73 15 5 32 7 37 3 6 -3 30 -19 53 -35z m960 6 c4 -25 -3 -27 -37 -8
-23 13 -23 14 -5 24 25 15 38 10 42 -16z m-1168 -11 c0 -8 -23 -21 -36 -21 -2
0 -4 11 -4 25 0 23 2 24 20 15 11 -6 20 -15 20 -19z m1124 -52 c-3 -5 -18 -16
-34 -24 -28 -14 -32 -14 -64 7 l-35 23 42 21 c42 22 42 22 70 2 15 -11 25 -24
21 -29z m234 22 c27 -14 29 -31 3 -31 -11 0 -23 -4 -26 -10 -13 -22 -32 -10
-28 18 7 44 13 58 21 46 4 -6 17 -16 30 -23z m-1310 11 c8 -6 10 -22 6 -55 -7
-51 -11 -51 -69 -4 l-29 25 34 21 c39 24 40 24 58 13z m312 -17 c0 -23 -2 -25
-22 -14 -21 11 -21 12 -3 25 25 18 25 18 25 -11z m920 -15 c0 -22 -3 -40 -7
-40 -14 1 -53 38 -53 49 0 10 32 29 53 30 4 1 7 -17 7 -39z m-1168 -11 c17 -9
18 -13 7 -20 -23 -15 -39 -10 -39 11 0 23 4 24 32 9z m215 -15 c18 -14 33 -29
33 -35 0 -5 -15 -17 -34 -26 l-34 -16 -46 38 c-25 20 -46 39 -46 41 0 4 60 22
79 23 8 1 29 -10 48 -25z m674 -11 c16 -10 29 -20 29 -23 0 -4 -18 -16 -39
-28 -46 -26 -56 -18 -47 34 8 39 16 41 57 17z m169 -28 c0 -46 -13 -51 -51
-17 l-32 28 34 16 c41 20 49 16 49 -27z m-1240 -10 c0 -25 -2 -45 -5 -45 -10
0 -75 45 -75 52 0 9 50 37 68 38 8 0 12 -15 12 -45z m1527 15 c24 -14 43 -28
43 -31 0 -9 -49 -25 -96 -31 -15 -2 -84 41 -84 53 0 5 1 9 3 9 1 0 20 7 42 15
22 8 42 13 45 12 3 -1 24 -13 47 -27z m-220 -3 c-6 -20 -27 -19 -27 2 0 14 5
19 15 14 9 -3 14 -10 12 -16z m-1020 -21 l37 -34 -41 -20 -41 -21 -46 30 c-25
17 -46 34 -46 38 0 12 54 40 78 41 12 0 39 -15 59 -34z m-218 11 c8 -10 7 -17
-1 -25 -19 -19 -28 -14 -28 13 0 27 12 32 29 12z m1095 -32 l30 -24 -38 -17
c-34 -17 -39 -17 -64 -2 -37 23 -37 32 0 50 42 21 38 21 72 -7z m169 -27 c-7
-54 -8 -55 -33 -33 -26 24 -25 48 3 61 34 18 35 17 30 -28z m81 -3 c22 -17 22
-17 -21 -39 l-33 -17 0 46 c0 49 4 50 54 10z m-1304 -15 c0 -22 -3 -40 -7 -40
-5 0 -21 11 -37 24 l-30 23 30 16 c41 23 44 22 44 -23z m316 3 c-3 -3 -13 0
-22 8 -15 12 -14 14 3 20 17 6 32 -15 19 -28z m-238 -12 l24 -15 -37 -19 c-20
-10 -39 -17 -41 -15 -2 2 -1 21 3 41 3 23 10 34 17 30 6 -4 22 -13 34 -22z
m240 -66 c2 -43 -18 -42 -96 8 -62 40 -62 40 -37 53 42 22 59 21 96 -5 27 -19
36 -32 37 -56z m635 61 l28 -23 -40 -26 c-23 -15 -41 -26 -42 -25 -7 22 -5 75
3 85 14 17 18 16 51 -11z m178 -33 l5 -41 -48 26 -48 26 28 18 c40 27 56 19
63 -29z m-1231 -18 c0 -25 -3 -45 -7 -45 -13 0 -73 39 -73 47 0 10 50 41 68
42 8 1 12 -14 12 -44z m1470 38 c0 -5 16 -19 35 -32 l35 -24 -27 -17 c-52 -31
-77 -30 -119 6 l-39 32 45 20 c48 22 70 26 70 15z m-1401 -30 c23 -15 23 -17
6 -30 -29 -21 -42 -16 -43 17 -1 34 4 36 37 13z m238 -37 c18 -12 33 -24 33
-27 0 -4 -14 -12 -31 -20 -29 -11 -36 -10 -87 19 -31 17 -58 35 -59 39 -2 5
11 16 29 25 36 17 28 20 115 -36z m987 23 c-10 -16 -24 -9 -24 12 0 18 2 19
15 9 8 -7 12 -16 9 -21z m-155 -3 c7 -8 23 -17 37 -20 34 -9 27 -23 -27 -54
l-46 -25 -41 29 c-23 16 -42 31 -42 34 0 3 15 15 33 27 37 25 70 29 86 9z
m-945 -65 l49 -35 -34 -15 c-43 -18 -59 -18 -86 -1 -17 11 -21 21 -16 44 11
66 5 66 87 7z m1112 11 c-4 -3 -12 0 -19 7 -9 9 -9 14 3 21 11 7 16 5 18 -6 2
-9 1 -18 -2 -22z m69 20 c-2 -3 6 -13 18 -23 16 -13 18 -18 7 -19 -8 0 -25 -3
-37 -6 -20 -6 -23 -3 -23 23 0 22 5 29 20 29 10 0 17 -2 15 -4z m-1295 -26 c0
-22 -16 -28 -29 -12 -9 11 -9 15 1 19 22 9 28 8 28 -7z m956 -22 c34 -26 44
-44 24 -44 -6 0 -28 -11 -50 -25 l-40 -25 0 22 c0 28 19 98 26 98 3 0 21 -12
40 -26z m205 -11 c2 -44 -1 -57 -18 -70 -12 -9 -22 -7 -51 11 -20 12 -37 27
-39 32 -4 11 66 53 90 54 12 0 17 -8 18 -27z m-839 4 c9 -7 17 -26 19 -42 2
-17 8 -36 14 -44 13 -18 -9 -7 -83 42 -50 33 -51 34 -29 45 30 14 59 14 79 -1z
m-400 -19 c2 -13 1 -37 0 -54 l-4 -32 -44 25 c-24 14 -44 28 -44 32 0 7 69 50
82 51 4 0 8 -10 10 -22z m1298 -4 c0 -8 -4 -14 -10 -14 -5 0 -10 9 -10 21 0
11 5 17 10 14 6 -3 10 -13 10 -21z m174 -9 l29 -23 -37 -8 c-31 -5 -42 -3 -59
15 -19 19 -20 23 -7 31 23 15 43 11 74 -15z m-1409 -24 c1 -17 -4 -40 -11 -49
-12 -15 -13 -9 -14 36 0 59 22 71 25 13z m298 -30 c41 -33 78 -64 81 -69 3 -5
8 -29 12 -53 l7 -44 -25 23 c-13 12 -28 22 -32 22 -17 0 -52 36 -48 48 3 9 -3
12 -16 10 -19 -3 -152 69 -152 83 0 8 62 38 81 38 9 1 50 -26 92 -58z m-243
18 c0 -5 -7 -9 -15 -9 -9 0 -12 6 -9 15 6 15 24 11 24 -6z m1016 -3 l35 -23
-36 -22 c-47 -27 -59 -27 -85 6 l-20 26 27 19 c36 23 37 23 79 -6z m243 -5
l23 -15 -37 -13 c-21 -7 -39 -12 -40 -11 -2 2 0 18 2 35 3 21 9 30 17 26 6 -4
22 -13 35 -22z m-1434 -22 c30 -17 55 -34 55 -38 0 -4 -15 -16 -32 -25 -33
-18 -33 -18 -99 17 l-67 34 37 21 c20 12 39 22 44 22 4 0 32 -14 62 -31z
m1355 24 c0 -5 -5 -15 -10 -23 -8 -12 -10 -11 -10 8 0 12 5 22 10 22 6 0 10
-3 10 -7z m-1020 -93 c0 -4 -21 -17 -47 -28 l-46 -20 -49 30 c-57 35 -62 60
-17 87 l31 19 64 -40 c35 -22 64 -44 64 -48z m1292 49 c-20 -18 -60 -18 -81 0
l-22 19 28 10 c21 7 35 5 55 -6 15 -9 24 -19 20 -23z m-538 -13 l29 -24 -39
-20 c-28 -14 -45 -17 -57 -11 -24 14 -21 45 5 63 28 20 27 20 62 -8z m191 -6
c10 -11 14 -20 9 -20 -5 0 -22 -11 -37 -25 -15 -14 -27 -21 -27 -15 0 5 -6 10
-12 10 -7 0 -21 7 -31 15 -18 13 -16 15 20 34 48 25 56 26 78 1z m220 2 l23
-18 -50 -23 c-47 -21 -50 -22 -75 -6 l-25 17 48 24 c59 28 51 28 79 6z m-1435
-57 c0 -28 -3 -30 -32 -14 -21 11 -21 12 -3 25 27 20 35 17 35 -11z m50 -15
c0 -22 -4 -40 -9 -40 -5 0 -9 18 -8 40 1 22 5 40 9 40 5 0 8 -18 8 -40z m1054
15 c20 -15 20 -15 0 -30 -31 -24 -55 -28 -80 -14 -25 13 -32 29 -13 29 6 0 17
7 25 15 19 19 43 19 68 0z m136 -12 c0 -10 -4 -24 -9 -32 -7 -11 -12 -11 -31
2 l-22 15 29 15 c15 8 29 15 31 16 1 1 2 -7 2 -16z m279 -4 c13 -11 22 -21 20
-23 -11 -9 -74 -36 -83 -36 -17 1 -60 40 -52 48 8 8 66 30 81 31 6 0 21 -9 34
-20z m-1395 -4 c20 -15 20 -15 0 -30 -26 -19 -38 -14 -42 18 -4 31 12 35 42
12z m1198 0 c0 -5 -5 -11 -10 -13 -5 -1 -9 4 -9 13 0 9 4 14 9 13 5 -2 10 -8
10 -13z m-1332 -70 c0 -34 -4 -44 -23 -52 -26 -12 -41 -7 -100 40 -42 33 -40
40 19 66 34 15 41 15 71 2 30 -14 33 -19 33 -56z m1008 27 l23 -18 -57 -38
-57 -38 7 43 c6 39 28 68 51 68 6 1 20 -7 33 -17z m192 0 l23 -19 -31 -21
c-31 -23 -53 -21 -84 6 -16 14 -15 16 15 33 41 23 50 23 77 1z m214 -6 l28
-24 -47 -23 c-35 -18 -50 -21 -63 -13 -29 18 -26 51 5 68 37 20 43 19 77 -8z
m-1159 -38 c41 -29 74 -55 74 -58 2 -12 -89 -32 -102 -23 -6 5 -33 26 -59 47
l-48 37 28 24 c15 14 29 25 30 25 2 0 37 -24 77 -52z m995 -43 c0 -45 -10 -49
-49 -21 l-32 24 33 19 c41 25 48 21 48 -22z m-1110 -10 c23 -19 46 -35 51 -35
24 0 4 -22 -36 -40 -56 -25 -85 -15 -85 30 0 17 5 30 10 30 6 0 10 11 10 25 0
14 2 25 4 25 2 0 23 -16 46 -35z m-140 -15 c0 -5 -4 -10 -10 -10 -5 0 -10 5
-10 10 0 6 5 10 10 10 6 0 10 -4 10 -10z m-3 -84 c1 -25 -3 -46 -8 -46 -14 0
-109 63 -109 72 0 4 17 16 38 27 52 27 76 11 79 -53z"/>
<path d="M1339 1370 c-49 -49 -43 -71 9 -33 59 43 78 73 47 73 -9 0 -34 -18
-56 -40z"/>
<path d="M946 1352 c-8 -13 11 -35 23 -28 16 10 14 36 -3 36 -8 0 -17 -4 -20
-8z"/>
<path d="M995 1300 c-10 -16 4 -30 31 -30 27 0 33 24 8 34 -22 8 -32 8 -39 -4z"/>
<path d="M1264 1295 c-10 -8 -36 -19 -56 -25 -44 -12 -52 -40 -13 -40 28 0 86
26 97 44 10 15 10 36 0 36 -5 0 -17 -7 -28 -15z"/>
<path d="M1081 1267 c-14 -18 -4 -27 30 -27 32 0 48 18 28 31 -20 13 -45 11
-58 -4z"/>
<path d="M1915 1130 c-3 -5 -1 -10 4 -10 6 0 11 5 11 10 0 6 -2 10 -4 10 -3 0
-8 -4 -11 -10z"/>
</g>
</svg>
