<?xml version="1.0" standalone="no"?>
<!DOCTYPE svg PUBLIC "-//W3C//DTD SVG 20010904//EN"
 "http://www.w3.org/TR/2001/REC-SVG-20010904/DTD/svg10.dtd">
<svg version="1.0" xmlns="http://www.w3.org/2000/svg"
 width="228.000000pt" height="150.000000pt" viewBox="0 0 228.000000 150.000000"
 preserveAspectRatio="xMidYMid meet">
<metadata>
Created by potrace 1.16, written by Peter Selinger 2001-2019
</metadata>
<g transform="translate(0.000000,150.000000) scale(0.100000,-0.100000)"
fill="#000000" stroke="none">
<path d="M1730 1439 c-109 -63 -140 -86 -140 -101 0 -5 13 -7 28 -3 22 4 33 0
50 -19 l22 -26 -58 -15 c-31 -9 -68 -21 -82 -26 -17 -8 -26 -7 -28 0 -6 18
-17 14 -94 -33 -58 -36 -102 -52 -216 -81 -95 -23 -161 -35 -195 -33 -50 3
-52 2 -52 -22 1 -14 4 -37 8 -52 l7 -26 -108 -9 c-165 -13 -482 -9 -510 6 -13
7 -30 28 -38 47 -39 94 -70 -9 -78 -260 -1 -56 -5 -108 -9 -116 -8 -22 -16
-67 -23 -127 -5 -43 -3 -54 10 -59 11 -4 16 -19 16 -48 0 -23 7 -51 15 -62 14
-18 16 -17 65 33 48 49 132 93 177 93 8 0 30 9 48 20 19 11 47 19 66 18 19 -1
118 2 221 6 l186 8 55 -26 c31 -14 59 -31 62 -36 4 -6 24 -18 45 -26 27 -11
42 -25 49 -45 11 -32 20 -36 40 -17 10 11 14 10 22 -4 5 -10 31 -30 56 -45 25
-15 61 -43 79 -62 l32 -35 -35 -69 c-19 -38 -32 -75 -29 -83 9 -23 36 -4 58
42 11 24 26 44 32 44 14 0 64 70 116 164 48 86 138 216 150 216 6 0 10 10 10
21 0 28 53 77 174 164 167 119 168 121 82 178 -35 23 -59 48 -70 74 -9 21 -21
45 -26 53 -5 8 -21 38 -36 65 -14 28 -34 59 -44 70 -15 18 -16 32 -8 135 5 63
13 127 18 143 13 39 1 35 -120 -34z m53 -82 l-6 -66 -49 41 -50 42 53 27 c30
15 55 26 56 25 2 -1 0 -32 -4 -69z m-49 -123 c6 -10 14 -21 17 -24 20 -19 110
-156 136 -210 29 -58 30 -67 18 -85 -8 -11 -40 -62 -71 -112 -57 -94 -71 -111
-59 -72 4 12 8 28 9 35 1 8 13 26 27 41 50 57 91 115 84 121 -3 4 -24 -3 -45
-16 -46 -26 -50 -27 -50 -8 0 25 -17 27 -65 6 -26 -11 -56 -20 -68 -20 -12 0
-36 -9 -53 -19 -21 -13 -35 -16 -42 -9 -6 6 -16 6 -28 0 -21 -10 -130 -24
-183 -22 -18 0 -55 -6 -82 -15 l-49 -17 -1 -66 c-1 -37 -1 -82 0 -99 2 -24 -2
-33 -12 -33 -11 0 -18 16 -23 58 -8 69 -20 102 -35 102 -7 0 -42 -25 -78 -55
-36 -31 -75 -63 -87 -73 -11 -9 -25 -25 -30 -34 -8 -14 -39 -17 -239 -22 -126
-3 -264 -8 -305 -12 -73 -6 -74 -6 -51 11 46 35 114 45 346 55 126 6 242 13
257 16 28 6 54 29 41 37 -11 6 -536 -12 -610 -22 -58 -7 -78 -2 -53 14 12 8
262 55 293 55 12 0 114 1 227 3 196 2 230 6 230 28 0 13 -523 10 -613 -3 -37
-6 -84 -7 -104 -3 l-37 7 24 19 c15 11 41 19 67 19 23 0 54 5 70 11 15 6 84
12 153 14 264 7 451 18 457 28 3 6 -1 15 -10 22 -15 11 -10 19 42 69 33 31 63
56 68 56 4 0 19 10 33 23 71 65 202 135 335 179 50 16 97 34 105 39 20 11 31
7 44 -17z m-514 -159 c-13 -14 -28 -25 -34 -25 -6 0 -31 -18 -56 -40 -24 -22
-47 -40 -51 -40 -3 0 -13 17 -21 38 l-15 39 61 12 c34 7 75 19 91 26 45 20 51
18 25 -10z m-859 -115 c20 0 7 -16 -21 -27 -31 -11 -35 -7 -24 22 4 9 13 14
21 11 8 -3 19 -6 24 -6z m638 -6 c5 -5 12 -23 16 -41 l6 -32 -303 -3 c-296 -3
-384 1 -362 14 16 10 196 55 219 55 45 0 340 16 344 19 7 6 72 -3 80 -12z
m946 -131 c-30 -29 -65 -57 -76 -63 -20 -11 -20 -10 2 32 12 24 32 60 45 80
l24 37 30 -17 31 -17 -56 -52z m-1609 21 l25 -17 -35 -23 c-44 -30 -48 -30
-40 4 13 60 13 60 50 36z m1364 1 c0 -10 -30 -65 -35 -65 -3 0 -5 16 -5 35 0
28 4 35 20 35 11 0 20 -2 20 -5z m102 -7 c-7 -7 -20 -13 -29 -13 -14 0 -18
-14 -21 -80 -3 -67 -8 -88 -33 -128 -16 -26 -29 -50 -29 -53 0 -3 -9 -18 -21
-32 l-21 -27 7 60 c12 104 15 118 47 185 40 83 55 100 87 100 20 0 22 -3 13
-12z m-217 -77 c-14 -28 -27 -51 -30 -51 -7 0 -3 86 4 97 3 5 15 15 26 21 30
17 31 -8 0 -67z m-97 -16 c-25 -49 -34 -61 -41 -50 -19 34 22 115 58 115 11 0
7 -16 -17 -65z m-78 40 c0 -3 -8 -21 -19 -40 l-18 -35 -7 31 c-3 17 -3 35 0
40 5 9 44 13 44 4z m-127 -47 c-22 -58 -25 -60 -22 -13 3 37 13 54 31 55 4 0
0 -19 -9 -42z m343 -75 c-3 -49 -9 -108 -12 -132 -4 -26 -2 -46 4 -50 6 -3 -7
-34 -33 -76 -24 -38 -44 -76 -44 -82 -1 -7 -13 -16 -28 -19 -20 -6 -31 -2 -45
16 -14 18 -18 42 -20 124 0 55 0 115 1 131 2 37 20 85 32 85 5 0 9 6 9 13 0 7
7 22 16 33 14 17 15 10 9 -87 -3 -58 -8 -133 -11 -167 -6 -60 -2 -70 22 -54 9
5 21 156 24 285 0 4 8 7 17 5 10 -2 25 10 37 29 12 18 23 32 25 33 2 0 0 -39
-3 -87z m-1270 68 c-3 -5 -19 -14 -36 -19 -23 -9 -30 -8 -30 2 0 7 3 16 7 19
10 10 65 8 59 -2z m965 -156 c-5 -59 -12 -110 -16 -113 -3 -3 -14 3 -25 14
-25 25 -31 141 -8 158 8 6 23 27 33 46 25 47 29 27 16 -105z m-183 72 l3 -47
-45 0 c-75 0 -79 6 -27 55 25 25 51 43 56 41 6 -1 11 -24 13 -49z m277 -87
c-2 -41 -3 -99 -4 -128 l-1 -53 -30 21 c-34 24 -37 45 -19 147 7 37 17 67 25
70 8 3 11 9 8 15 -3 5 -3 17 1 26 13 31 22 -17 20 -98z m-1075 63 c6 -5 -71
-73 -82 -73 -16 0 -7 33 15 60 20 26 47 31 67 13z m890 -78 c0 -24 -5 -35 -15
-35 -10 0 -15 10 -15 29 0 25 6 33 28 40 1 1 2 -15 2 -34z m-852 -15 l47 -1
-33 -14 c-18 -8 -46 -24 -62 -35 -15 -11 -30 -20 -33 -20 -3 0 -3 16 -2 37 4
34 26 64 33 43 2 -6 25 -10 50 -10z"/>
</g>
</svg>
