<?xml version="1.0" standalone="no"?>
<!DOCTYPE svg PUBLIC "-//W3C//DTD SVG 20010904//EN"
 "http://www.w3.org/TR/2001/REC-SVG-20010904/DTD/svg10.dtd">
<svg version="1.0" xmlns="http://www.w3.org/2000/svg"
 width="94.000000pt" height="96.000000pt" viewBox="0 0 94.000000 96.000000"
 preserveAspectRatio="xMidYMid meet">
<metadata>
Created by potrace 1.16, written by Peter Selinger 2001-2019
</metadata>
<g transform="translate(0.000000,96.000000) scale(0.100000,-0.100000)"
fill="#000000" stroke="none">
<path d="M359 748 c-38 -74 -109 -167 -170 -221 -33 -28 -59 -59 -59 -69 0
-21 11 -23 28 -6 9 9 16 7 31 -6 21 -19 58 -15 45 5 -4 7 0 9 12 6 11 -3 35
-9 54 -12 44 -8 228 -98 295 -143 28 -19 61 -46 75 -62 33 -37 84 -65 104 -57
25 10 19 31 -13 50 -17 10 -47 34 -69 55 -59 57 -75 68 -164 116 l-83 44 -7
54 c-3 29 -9 73 -12 97 -4 25 -9 76 -11 115 -5 87 -23 98 -56 34z m9 -143 c2
-20 9 -56 17 -78 20 -56 19 -58 -11 -47 -14 6 -42 10 -62 10 -20 1 -48 7 -61
14 -24 13 -24 14 -4 24 11 6 39 36 63 66 23 31 45 54 49 52 4 -3 8 -21 9 -41z"/>
</g>
</svg>
