<?xml version="1.0" standalone="no"?>
<!DOCTYPE svg PUBLIC "-//W3C//DTD SVG 20010904//EN"
 "http://www.w3.org/TR/2001/REC-SVG-20010904/DTD/svg10.dtd">
<svg version="1.0" xmlns="http://www.w3.org/2000/svg"
 width="340.000000pt" height="144.000000pt" viewBox="0 0 340.000000 144.000000"
 preserveAspectRatio="xMidYMid meet">
<metadata>
Created by potrace 1.16, written by Peter Selinger 2001-2019
</metadata>
<g transform="translate(0.000000,144.000000) scale(0.100000,-0.100000)"
fill="#000000" stroke="none">
<path d="M1555 1348 c-99 -13 -142 -26 -149 -44 -4 -9 0 -22 8 -28 17 -12 31
-186 15 -186 -4 0 -56 47 -114 105 -59 58 -111 103 -116 99 -5 -3 -22 4 -38
15 -16 12 -33 21 -39 21 -9 0 -90 -76 -91 -86 -2 -12 -32 -71 -45 -87 -12 -16
-29 -19 -114 -18 -88 1 -103 -2 -127 -21 -27 -21 -38 -22 -214 -23 -102 0
-222 2 -266 5 -44 4 -85 5 -92 2 -16 -5 -40 -59 -48 -109 -6 -38 -3 -48 29
-96 35 -52 46 -85 26 -72 -5 3 -19 1 -31 -6 -20 -10 -21 -16 -15 -73 9 -85 14
-110 25 -114 6 -2 7 -30 4 -65 -10 -110 -2 -131 38 -103 27 18 52 21 28 3 -10
-7 -20 -42 -27 -92 -12 -91 -3 -109 38 -72 14 13 72 38 130 56 58 18 123 40
145 48 56 20 198 43 208 33 5 -4 10 -43 11 -86 3 -88 15 -107 33 -54 7 19 12
27 12 16 1 -10 11 -31 24 -46 12 -15 27 -35 33 -45 14 -25 48 -13 39 14 -10
34 55 120 150 196 28 22 55 45 62 51 6 6 35 12 65 13 29 1 61 4 71 7 32 10 6
24 -46 25 -44 0 -49 2 -34 12 54 36 120 91 183 155 39 40 76 72 82 72 16 0 20
-247 5 -315 -2 -11 -8 -47 -13 -79 -10 -68 -17 -78 -48 -70 -16 5 -22 14 -22
36 0 23 -4 29 -17 26 -10 -2 -19 -13 -21 -26 -4 -23 -16 -29 -27 -12 -4 6 -11
7 -17 4 -7 -5 -2 -15 14 -28 21 -17 27 -33 32 -86 3 -36 8 -72 10 -80 2 -8 7
-30 11 -47 8 -34 31 -44 41 -19 5 13 49 38 124 69 126 53 171 68 239 76 42 6
97 14 122 20 44 10 76 13 249 26 47 4 103 11 125 17 22 6 87 12 145 14 167 7
185 8 187 19 2 6 -73 10 -208 11 -195 0 -212 2 -231 20 -11 10 -46 46 -78 79
-32 33 -87 88 -123 123 -36 35 -69 72 -72 83 -4 10 -11 19 -17 19 -14 0 -146
142 -171 183 -11 18 -30 42 -43 54 -32 29 -30 43 9 85 36 40 107 94 107 83 0
-4 10 5 22 21 12 16 30 36 40 45 18 16 127 73 161 83 21 7 22 25 1 33 -25 10
-120 -44 -187 -106 -108 -99 -172 -145 -175 -127 -3 14 16 85 35 136 4 8 5 19
4 23 0 4 6 21 14 37 8 16 15 37 15 47 0 10 9 29 20 43 24 31 25 46 3 53 -10 2
-25 7 -33 9 -8 3 -46 1 -85 -4z m76 -51 c-6 -8 -17 -47 -26 -88 -12 -61 -37
-152 -62 -229 -3 -11 -15 -3 -41 27 -40 45 -40 50 -34 225 l2 47 48 6 c26 4
58 10 72 15 40 13 54 12 41 -3z m-503 -55 c-13 -9 -25 -18 -28 -21 -3 -3 -13
-12 -23 -20 -17 -13 -17 -13 -7 10 12 27 59 61 73 52 5 -3 -2 -12 -15 -21z
m122 -84 c19 -15 40 -28 46 -28 6 0 17 -7 24 -15 7 -9 28 -23 47 -32 56 -26
66 -51 58 -138 -4 -41 -11 -75 -16 -75 -8 0 -104 65 -204 137 -16 12 -58 38
-92 58 -61 35 -95 66 -60 52 12 -4 17 -1 18 11 0 21 51 63 79 65 11 1 20 5 20
9 0 12 38 -9 80 -44z m-652 -101 c-13 -5 -48 -10 -78 -12 -30 -1 -57 -4 -60
-5 -3 -1 -9 -3 -15 -4 -5 -1 -17 -5 -25 -8 -20 -8 -217 -48 -236 -48 -13 0
-15 7 -9 37 4 21 8 40 10 43 2 3 101 5 220 5 137 1 208 -2 193 -8z m509 -29
c85 -51 79 -58 -52 -56 -105 1 -132 6 -105 23 6 3 10 15 10 25 0 48 74 52 147
8z m-201 13 c-4 -5 -2 -11 2 -13 5 -1 3 -18 -5 -35 -12 -32 -15 -33 -68 -33
-52 0 -55 2 -55 24 0 13 -3 31 -6 40 -5 12 6 16 63 19 37 1 69 4 71 5 2 1 1
-2 -2 -7z m-176 -40 l0 -38 -71 -7 c-94 -10 -319 4 -269 16 19 4 51 13 70 20
34 11 218 46 253 47 13 1 17 -7 17 -38z m770 -51 c7 -13 4 -20 -15 -28 -24
-11 -25 -10 -25 29 0 36 2 40 16 29 8 -8 19 -21 24 -30z m-370 -15 c108 -5
171 -27 217 -77 l23 -24 -53 -37 c-28 -21 -81 -55 -117 -76 -60 -36 -71 -39
-145 -40 -44 0 -111 -4 -148 -7 l-69 -7 7 49 c4 27 9 51 11 54 1 3 49 4 106 3
112 -4 198 11 198 33 0 11 -25 13 -141 9 l-140 -5 7 23 c14 46 34 76 54 79 12
2 19 7 18 13 -3 10 50 25 64 18 4 -2 52 -6 108 -8z m-685 -8 c181 0 196 -1
156 -13 -24 -8 -62 -11 -84 -8 -26 3 -58 -2 -94 -16 -30 -11 -58 -18 -63 -15
-4 2 -34 -4 -66 -15 -62 -21 -82 -24 -71 -13 4 3 -3 21 -14 39 -23 38 -17 58
14 48 12 -4 112 -8 222 -7z m285 -78 l0 -46 -82 -6 c-117 -10 -381 -8 -396 1
-9 6 4 14 39 25 28 9 55 15 60 12 4 -3 25 1 46 10 20 9 76 20 123 26 47 5 100
11 118 14 19 2 36 6 38 8 3 3 16 4 30 3 22 -1 24 -5 24 -47z m126 19 c-8 -43
-23 -58 -57 -58 -26 0 -28 2 -26 45 l2 45 44 0 44 0 -7 -32z m633 6 c-13 -14
-25 -20 -27 -14 -2 6 4 18 14 25 31 24 39 17 13 -11z m107 -46 c22 -24 56 -63
75 -88 18 -25 36 -47 39 -50 3 -3 16 -20 29 -37 25 -36 15 -45 -14 -13 -10 12
-35 30 -54 42 -20 13 -47 33 -61 46 -14 13 -39 29 -57 37 -30 13 -31 15 -22
52 5 21 9 41 9 46 0 16 18 5 56 -35z m-94 -14 c-14 -24 -21 -3 -9 26 8 20 11
22 14 8 2 -10 0 -25 -5 -34z m-168 -74 c-41 -39 -110 -96 -152 -129 -43 -32
-83 -66 -91 -75 -9 -10 -29 -16 -59 -16 l-45 0 88 65 c48 36 90 65 94 65 3 0
13 9 21 20 8 11 18 20 23 20 5 0 47 29 95 64 47 36 89 63 93 60 5 -2 -26 -36
-67 -74z m-972 24 c54 1 98 -2 98 -5 0 -3 -44 -17 -97 -29 -54 -13 -115 -29
-135 -36 -41 -14 -43 -13 -52 31 -6 28 -4 32 26 41 18 5 40 7 48 4 8 -3 59 -6
112 -6z m1112 10 c21 -8 20 -38 -4 -99 l-19 -50 -1 78 c0 42 2 77 4 77 2 0 11
-3 20 -6z m-935 -8 c-10 -11 -69 -16 -69 -6 0 5 17 10 37 10 20 0 34 -2 32 -4z
m277 -13 c-2 -10 -7 -33 -11 -50 -4 -22 -12 -33 -23 -33 -13 0 -17 9 -16 43 1
58 1 57 30 57 19 0 24 -4 20 -17z m-93 -14 c3 -12 3 -34 0 -49 -6 -32 -12 -33
-268 -50 -82 -6 -158 -13 -168 -16 -11 -3 -40 -3 -65 1 -37 5 -43 9 -29 16 27
16 171 57 224 65 26 4 59 11 72 16 28 10 113 25 217 37 7 0 14 -9 17 -20z
m877 -52 c51 -35 138 -102 190 -145 19 -16 61 -46 92 -66 31 -19 60 -40 63
-46 4 -6 21 -17 38 -24 18 -8 48 -29 67 -48 l34 -33 -69 -7 c-150 -14 -315
-23 -435 -23 l-125 0 0 100 c0 87 27 258 52 322 7 18 37 9 93 -30z m-545 -72
c-16 -14 -35 -25 -42 -25 -7 0 -16 -6 -20 -14 -18 -33 -84 -66 -130 -66 l-46
0 7 47 c3 26 11 50 17 53 5 4 56 8 112 9 56 1 106 6 111 11 6 6 12 10 16 10 3
-1 -8 -12 -25 -25z m-440 7 c-6 -5 -48 -14 -95 -20 -68 -8 -215 -48 -297 -79
-14 -6 -18 34 -5 54 4 7 76 18 177 28 94 9 172 19 174 21 2 2 16 4 30 4 14 0
21 -4 16 -8z m107 -37 c10 -13 10 -73 1 -78 -5 -3 -87 -8 -183 -12 -96 -4
-191 -11 -210 -16 -44 -11 -53 -11 -45 0 3 5 -3 11 -12 13 -34 7 202 76 297
88 52 6 96 13 98 15 8 7 47 1 54 -10z m58 -5 c0 -11 -2 -20 -4 -20 -2 0 -6 9
-9 20 -3 11 -1 20 4 20 5 0 9 -9 9 -20z m-210 -130 c-8 -5 -35 -12 -59 -16
-24 -4 -95 -23 -157 -44 l-114 -37 0 38 c0 43 -1 43 145 58 118 12 203 13 185
1z m430 1 c0 -10 -147 -151 -158 -151 -10 0 -42 65 -42 86 0 8 21 28 47 44 37
24 58 30 100 30 29 0 53 -4 53 -9z m1095 -162 c-22 -4 -51 -8 -65 -7 -23 0
-22 1 5 8 17 4 46 8 65 8 l35 0 -40 -9z m-725 -14 c0 -14 12 -20 34 -16 5 1
17 -6 28 -16 19 -17 20 -17 33 1 11 15 30 19 92 22 43 2 137 7 208 10 72 3
128 4 125 1 -3 -2 -68 -17 -145 -32 -77 -15 -179 -41 -227 -56 -48 -16 -92
-29 -99 -29 -6 0 -24 -9 -39 -20 l-29 -21 -5 33 c-16 105 -16 122 -4 130 19
12 28 10 28 -7z"/>
<path d="M2525 1303 c-16 -2 -34 -10 -40 -17 -5 -6 -32 -20 -60 -30 -27 -10
-69 -26 -92 -37 -24 -10 -47 -19 -52 -19 -5 0 -38 -17 -73 -37 -97 -56 -150
-83 -164 -83 -8 0 -48 -17 -91 -38 -106 -52 -189 -85 -232 -92 -31 -5 -36 -9
-34 -32 1 -15 10 -39 20 -54 10 -15 16 -36 15 -46 -2 -10 2 -18 9 -18 9 0 9
-3 0 -14 -9 -11 -4 -18 25 -35 43 -26 238 -108 340 -144 38 -14 119 -48 179
-77 61 -28 121 -57 135 -63 14 -6 37 -19 52 -30 27 -17 28 -17 47 2 30 30 190
67 371 86 85 9 196 23 245 32 73 14 160 19 218 14 4 -1 7 -11 7 -23 0 -33 13
-49 30 -38 17 11 17 174 0 255 -6 28 -14 71 -17 98 -5 43 -4 47 16 47 13 0 21
6 21 18 0 16 -13 18 -181 16 -268 -4 -453 -14 -557 -31 -53 -8 -110 -12 -133
-8 -36 6 -39 9 -26 23 8 10 15 35 15 58 1 22 9 57 17 77 8 20 15 46 15 57 0
36 -17 21 -30 -25 -7 -25 -17 -48 -21 -51 -5 -3 -9 -4 -9 -2 0 2 -3 42 -6 89
l-6 86 32 0 c30 0 32 -2 28 -34 -5 -42 7 -42 28 0 9 17 26 42 37 55 31 33 11
44 -47 27 -56 -17 -66 -18 -66 -7 0 5 18 12 41 18 22 5 40 13 40 19 1 12 -7
13 -46 8z m-71 -276 c0 -138 -4 -201 -12 -209 -18 -18 -14 -28 11 -28 14 0 18
-3 10 -8 -17 -11 -29 -228 -14 -264 15 -38 -3 -37 -59 5 -24 17 -84 52 -134
77 l-91 45 -3 117 c-2 105 -1 116 15 114 12 -1 19 10 24 40 4 23 22 70 39 104
17 34 29 68 27 74 -3 7 9 21 26 31 18 11 57 38 87 62 30 23 60 41 65 39 6 -2
10 -76 9 -199z m-120 156 c-26 -24 -46 -35 -194 -111 -69 -36 -141 -75 -160
-86 -31 -19 -75 -40 -191 -89 -21 -9 -40 -13 -43 -10 -14 15 -4 31 27 43 74
28 116 47 177 81 36 20 88 45 115 55 28 10 66 29 86 41 31 21 185 93 198 93 3
0 -4 -8 -15 -17z m-130 -141 c5 -8 -35 -116 -47 -128 -8 -8 -20 113 -12 125 7
13 52 15 59 3z m-89 -94 c15 -146 20 -236 15 -257 -5 -20 -6 -20 -58 9 -28 17
-58 39 -64 50 -7 11 -19 20 -26 20 -13 0 -28 9 -121 69 l-55 35 30 9 c36 12
166 81 214 113 19 13 40 24 46 24 7 0 15 -28 19 -72z m802 -44 c-3 -3 -12 -4
-19 -1 -8 3 -5 6 6 6 11 1 17 -2 13 -5z m403 -45 c0 -28 5 -60 12 -72 16 -30
27 -148 16 -170 -8 -15 -21 -18 -76 -16 -37 1 -112 -1 -167 -5 -100 -6 -475
-19 -550 -18 -83 1 -76 -9 -73 115 l3 112 55 16 c61 18 318 60 365 59 17 0 36
5 43 12 8 8 12 8 12 1 0 -7 17 -9 48 -6 26 2 99 7 162 12 63 4 123 8 133 9 14
2 17 -6 17 -49z m-440 38 c-3 -3 -41 -8 -85 -11 -196 -15 -225 -19 -225 -26 0
-4 -11 -11 -24 -14 -13 -3 -31 -9 -40 -12 -12 -5 -16 0 -16 22 l0 29 67 -3
c38 -2 86 1 108 6 43 9 223 17 215 9z m-1056 -72 c17 -14 36 -30 43 -35 7 -6
16 -10 20 -11 19 -1 248 -146 244 -155 -7 -15 -40 -5 -131 40 -47 24 -115 55
-152 71 -38 15 -68 32 -68 37 0 4 -7 8 -15 8 -8 0 -15 5 -15 10 0 6 5 10 10
10 6 0 10 8 10 18 0 18 8 32 18 32 2 0 18 -11 36 -25z m402 -241 c19 -15 19
-15 -1 -6 -11 5 -27 12 -35 15 -13 5 -13 6 1 6 8 1 24 -6 35 -15z m519 -34
c30 -8 30 -8 4 -9 -15 0 -70 -12 -123 -26 -53 -14 -100 -25 -105 -25 -4 0 -8
13 -9 30 l-1 29 82 4 c45 1 91 3 102 4 11 0 34 -3 50 -7z m170 5 c-22 -8 -134
-11 -123 -3 7 4 40 7 73 7 33 0 56 -2 50 -4z"/>
</g>
</svg>
