<?xml version="1.0" standalone="no"?>
<!DOCTYPE svg PUBLIC "-//W3C//DTD SVG 20010904//EN"
 "http://www.w3.org/TR/2001/REC-SVG-20010904/DTD/svg10.dtd">
<svg version="1.0" xmlns="http://www.w3.org/2000/svg"
 width="233.000000pt" height="118.000000pt" viewBox="0 0 233.000000 118.000000"
 preserveAspectRatio="xMidYMid meet">
<metadata>
Created by potrace 1.16, written by Peter Selinger 2001-2019
</metadata>
<g transform="translate(0.000000,118.000000) scale(0.100000,-0.100000)"
fill="#000000" stroke="none">
<path d="M238 1124 c-12 -11 -10 -50 4 -79 10 -22 16 -25 37 -20 15 4 45 9 69
12 40 5 42 4 42 -21 0 -26 -1 -26 -75 -26 -43 0 -75 -4 -75 -10 0 -5 17 -10
38 -11 69 -1 117 -13 120 -32 4 -19 -9 -21 -122 -17 -63 2 -69 0 -57 -14 8 -9
29 -16 51 -16 79 0 130 -12 130 -30 0 -19 -52 -30 -136 -30 -24 0 -44 -4 -44
-10 0 -11 5 -12 80 -11 77 1 100 -6 100 -28 0 -15 -10 -21 -50 -26 -27 -4 -74
-6 -102 -5 -77 3 -84 2 -70 -12 7 -7 56 -14 114 -17 57 -3 102 -9 101 -13 -2
-5 -3 -17 -3 -29 0 -19 -5 -20 -90 -18 -49 2 -92 0 -96 -3 -15 -16 11 -28 59
-28 92 0 125 -9 130 -36 4 -23 2 -24 -57 -25 -33 -1 -75 -1 -92 0 -31 2 -53
-12 -36 -23 5 -3 48 -7 96 -10 93 -4 102 -7 93 -29 -4 -11 -28 -15 -93 -16
-48 -1 -91 -4 -96 -7 -24 -15 1 -22 73 -19 97 3 119 -2 119 -25 0 -23 -28 -30
-122 -30 -64 0 -78 -3 -78 -16 0 -12 11 -15 53 -14 111 5 137 1 137 -18 0 -16
-11 -18 -87 -21 -49 -1 -92 -7 -98 -12 -12 -12 -14 -12 90 -14 81 -2 90 -4 90
-21 0 -17 -8 -19 -91 -19 -112 0 -127 -9 -122 -74 2 -33 8 -46 18 -46 8 0 98
3 200 8 102 4 389 8 637 10 395 2 454 0 459 -13 4 -13 8 -12 20 4 9 13 25 19
46 18 105 -3 141 -2 157 3 11 3 26 -1 35 -11 13 -12 20 -13 30 -5 8 7 59 12
128 13 89 1 121 -3 147 -16 18 -10 40 -15 49 -11 15 6 15 8 -2 20 -10 8 -16
21 -13 29 4 9 2 18 -2 21 -12 7 -20 156 -25 440 -2 127 -5 235 -6 240 -1 6 -2
38 -1 72 l1 61 45 26 c25 15 45 31 45 36 0 18 -32 26 -83 19 -68 -9 -1674 -4
-1752 6 -33 4 -63 4 -67 -1z m137 -44 c4 -6 -13 -10 -44 -10 -28 0 -51 5 -51
10 0 6 20 10 44 10 25 0 48 -4 51 -10z m1255 -62 c0 -35 3 -80 6 -100 6 -36 5
-37 -44 -62 -28 -14 -54 -26 -56 -26 -9 0 -5 133 5 179 6 28 6 48 0 54 -17 17
-31 -30 -32 -110 0 -116 -6 -140 -37 -151 -15 -6 -35 -13 -44 -17 -17 -7 -18
2 -18 101 0 60 4 126 9 147 8 32 7 37 -9 37 -27 0 -30 -19 -30 -165 l0 -133
-35 1 -35 1 -1 60 c0 34 -3 74 -5 89 -6 38 13 139 29 149 6 4 76 8 155 8 l142
0 0 -62z m134 -15 c-1 -56 -5 -79 -15 -84 -8 -4 -31 -14 -51 -23 l-38 -16 0
78 c0 116 3 122 59 122 l46 0 -1 -77z m138 37 c-5 -43 -15 -57 -61 -78 -20 -9
-39 -18 -43 -20 -10 -4 -11 100 -2 123 5 12 18 15 58 13 l51 -3 -3 -35z m128
32 c0 -4 -22 -18 -50 -29 -38 -16 -50 -18 -50 -8 0 35 13 45 56 45 24 0 44 -4
44 -8z m-970 -11 c5 -1 6 -157 2 -266 l-2 -59 -77 80 c-43 44 -96 93 -118 110
-22 16 -46 35 -54 42 -8 7 -24 20 -37 29 -14 9 -24 25 -24 39 0 23 1 23 128
26 108 3 157 2 182 -1z m117 0 c9 -1 11 -22 7 -78 -4 -43 -7 -111 -8 -151 -1
-82 -16 -97 -61 -65 -26 18 -26 18 -23 158 l3 140 35 -2 c19 -1 40 -2 47 -2z
m107 -13 c-4 -13 -6 -80 -5 -150 l1 -128 -25 -6 c-48 -12 -55 -1 -55 81 0 103
20 213 39 218 41 11 53 7 45 -15z m-652 -13 c7 -32 3 -34 -54 -28 -42 5 -46 8
-38 24 9 16 29 24 71 28 10 0 19 -9 21 -24z m56 18 c-1 -5 3 -18 10 -31 7 -12
11 -26 8 -31 -3 -5 -7 -36 -10 -69 -4 -68 -10 -82 -33 -82 -14 0 -15 13 -9
101 3 56 9 105 12 110 6 11 25 12 22 2z m-187 -30 c-6 -23 -14 -29 -43 -31
-31 -3 -36 0 -40 22 -5 27 4 33 59 35 29 1 31 -1 24 -26z m1528 -428 c1 -198
-2 -243 -14 -259 -22 -29 -19 -49 5 -43 17 4 20 0 20 -23 0 -39 -15 -45 -61
-25 l-39 18 -2 74 c-1 40 -3 85 -4 101 -2 25 -5 373 -4 489 0 50 1 53 43 77
l42 26 6 -98 c4 -53 7 -205 8 -337z m-1259 365 l25 -20 -32 12 c-18 7 -33 16
-33 20 0 13 13 9 40 -12z m-140 -21 l0 -30 -56 5 c-64 6 -67 7 -58 29 5 14 19
18 97 25 13 2 17 -5 17 -29z m-152 -5 c3 -18 -1 -20 -28 -16 -28 4 -39 20 -23
36 14 14 48 1 51 -20z m1430 -310 l3 -336 -23 7 c-13 4 -34 13 -48 20 -14 7
-37 15 -52 19 -25 6 -28 11 -28 49 1 37 16 207 25 277 2 14 3 78 4 142 l1 117
53 20 c28 11 54 20 57 20 4 1 7 -150 8 -335z m-1066 230 c43 -30 82 -54 88
-54 6 0 34 -22 62 -50 l51 -50 -30 0 c-16 0 -55 5 -87 11 -34 6 -62 7 -67 2
-11 -11 -15 -90 -6 -99 4 -4 33 3 64 14 41 15 68 19 92 14 l35 -8 -68 -59
c-78 -69 -113 -92 -81 -54 11 13 24 27 30 31 5 4 6 10 2 14 -3 4 -15 1 -25 -7
-11 -8 -44 -32 -73 -54 -59 -43 -130 -85 -147 -85 -12 0 -8 104 8 225 5 39 12
95 16 125 4 30 8 64 10 75 1 11 3 35 3 53 1 31 2 32 24 21 12 -6 57 -36 99
-65z m925 3 c-4 -28 -2 -48 5 -55 7 -7 8 -12 3 -12 -6 0 -11 -50 -13 -113 -2
-61 -7 -139 -12 -172 -6 -33 -10 -77 -10 -97 0 -21 -2 -38 -4 -38 -2 0 -25 9
-51 21 l-48 21 7 102 c3 55 9 154 12 219 l7 118 51 24 c28 14 53 24 55 25 2 0
1 -20 -2 -43z m-1303 9 c-9 -24 -34 -28 -34 -6 0 13 7 20 20 20 13 0 17 -5 14
-14z m156 -1 c0 -12 -13 -15 -60 -15 -47 0 -60 3 -60 15 0 12 13 15 60 15 47
0 60 -3 60 -15z m1013 -57 c3 -13 4 -39 2 -58 -2 -20 -6 -81 -9 -135 -7 -117
-15 -185 -22 -185 -2 0 -24 9 -49 21 l-44 21 5 62 c2 34 6 106 8 160 2 53 5
98 7 100 13 9 76 36 85 36 7 0 14 -10 17 -22z m-1015 -19 c4 -32 -10 -36 -89
-31 -52 3 -56 5 -51 25 8 32 21 37 82 35 51 -3 55 -5 58 -29z m51 -34 c-4 -33
-8 -84 -8 -112 -1 -29 -4 -53 -8 -53 -13 0 -3 214 10 222 15 9 15 11 6 -57z
m-229 30 c0 -14 -4 -25 -10 -25 -11 0 -14 33 -3 43 11 11 13 8 13 -18z m1057
-152 c-4 -76 -7 -139 -7 -140 -1 -9 -20 0 -40 17 -13 11 -29 20 -37 20 -12 0
-13 16 -7 93 4 50 7 99 6 108 -1 19 32 37 67 38 l24 1 -6 -137z m-877 58 l0
-36 -81 3 c-80 4 -80 4 -77 30 3 30 21 37 104 38 l54 1 0 -36z m639 35 c-15
-13 -49 -25 -49 -17 0 5 8 12 18 14 24 6 36 8 31 3z m117 -58 c-2 -35 -5 -75
-5 -90 l-1 -28 -35 17 c-35 16 -36 19 -34 68 3 75 9 83 72 94 4 0 6 -27 3 -61z
m-196 38 c0 -3 -4 -8 -10 -11 -5 -3 -10 -1 -10 4 0 6 5 11 10 11 6 0 10 -2 10
-4z m90 -60 l0 -44 -30 11 c-38 14 -39 42 -2 61 15 8 28 15 30 16 1 0 2 -20 2
-44z m-653 -69 c-7 -19 -167 -10 -174 9 -10 27 16 38 88 40 38 1 73 5 77 9 8
8 16 -41 9 -58z m558 33 c3 -5 1 -10 -4 -10 -6 0 -11 5 -11 10 0 6 2 10 4 10
3 0 8 -4 11 -10z m-121 -45 c22 -22 24 -30 19 -87 -2 -35 -6 -94 -8 -133 -1
-38 -3 -78 -4 -89 -1 -17 -8 -18 -93 -12 -51 3 -136 9 -188 12 -52 4 -97 8
-100 11 -3 3 11 19 30 36 20 18 93 84 164 147 71 63 133 120 140 127 14 16 11
17 40 -12z m96 -21 l32 -7 -7 -76 c-10 -99 -14 -159 -15 -194 0 -25 -3 -28
-27 -25 l-28 3 -3 153 c-1 85 1 152 6 152 5 0 24 -3 42 -6z m-520 -24 c0 -19
-7 -20 -95 -20 -88 0 -95 1 -95 20 0 19 7 20 95 20 88 0 95 -1 95 -20z m624
-139 c-1 -73 -5 -135 -8 -139 -4 -3 -15 -1 -24 4 -14 9 -17 31 -20 125 -4 142
0 161 31 150 21 -8 22 -12 21 -140z m89 109 c22 0 22 -3 21 -107 -1 -60 -3
-118 -3 -130 -1 -19 -7 -23 -36 -23 -26 0 -35 4 -36 18 0 16 0 175 1 231 0 17
4 22 16 17 9 -3 25 -6 37 -6z m-503 -31 c-19 -16 -61 -53 -93 -82 -31 -28 -61
-53 -65 -55 -4 -1 -9 11 -10 27 -2 27 3 32 59 61 34 17 78 42 98 55 48 34 54
31 11 -6z m620 11 c26 -19 27 -23 24 -87 -1 -38 -3 -89 -3 -115 l-1 -48 -43 0
-42 0 -1 135 c0 127 1 135 19 135 10 0 31 -9 47 -20z m-842 -27 l-3 -28 -89 2
c-49 1 -91 4 -93 7 -3 2 -2 14 2 25 6 19 14 21 96 21 l90 0 -3 -27z m992 -77
c0 -13 3 -51 6 -85 l7 -61 -57 0 -56 0 0 94 c0 128 1 130 56 99 32 -18 44 -31
44 -47z m-992 2 c-3 -21 -9 -23 -75 -26 -71 -3 -124 11 -107 28 5 5 43 11 84
13 41 1 81 4 88 5 9 1 12 -6 10 -20z m1091 -26 c28 -25 38 -59 32 -117 -1 -6
-20 -9 -46 -7 l-45 4 -1 47 c-1 25 -3 60 -5 78 -3 26 -1 30 15 26 10 -3 33
-17 50 -31z m-1099 -56 c0 -23 -2 -23 -72 -19 -89 5 -98 8 -98 28 0 12 15 15
85 15 83 0 85 -1 85 -24z m1232 -7 c14 -11 30 -19 36 -19 11 0 37 -29 31 -35
-3 -2 -35 -7 -72 -11 l-67 -7 0 52 c0 50 1 52 23 45 12 -3 34 -15 49 -25z
m-1452 -58 c0 -11 6 -22 13 -24 6 -3 1 -6 -13 -7 -138 -7 -180 -8 -180 -5 0 2
5 16 12 30 11 24 15 25 90 25 70 0 78 -2 78 -19z m228 -3 c-3 -22 -6 -23 -98
-19 -52 2 -96 4 -98 6 -1 1 0 10 4 19 5 13 22 16 101 16 92 0 94 -1 91 -22z
m232 1 c47 -6 114 -10 150 -9 36 1 90 1 120 0 l55 -3 -50 -7 c-47 -6 -465 -3
-472 4 -2 2 -1 11 3 20 7 18 4 18 194 -5z"/>
</g>
</svg>
