<?xml version="1.0" standalone="no"?>
<!DOCTYPE svg PUBLIC "-//W3C//DTD SVG 20010904//EN"
 "http://www.w3.org/TR/2001/REC-SVG-20010904/DTD/svg10.dtd">
<svg version="1.0" xmlns="http://www.w3.org/2000/svg"
 width="177.000000pt" height="127.000000pt" viewBox="0 0 177.000000 127.000000"
 preserveAspectRatio="xMidYMid meet">
<metadata>
Created by potrace 1.16, written by Peter Selinger 2001-2019
</metadata>
<g transform="translate(0.000000,127.000000) scale(0.100000,-0.100000)"
fill="#000000" stroke="none">
<path d="M1580 1131 c0 -10 14 -34 31 -52 50 -56 60 -75 65 -126 3 -26 7 -54
9 -61 9 -25 -29 -138 -62 -185 -19 -27 -32 -51 -29 -54 19 -20 79 50 103 122
32 95 34 108 28 170 -4 36 -11 68 -16 71 -5 3 -9 13 -9 22 0 22 -83 112 -104
112 -9 0 -16 -8 -16 -19z"/>
<path d="M188 903 c-10 -2 -18 -13 -18 -23 0 -10 8 -22 18 -26 20 -10 1095
-13 1132 -4 14 4 25 12 25 18 0 8 -90 13 -335 16 -184 3 -391 8 -460 10 -272
12 -346 14 -362 9z"/>
<path d="M1565 559 c-4 -6 -3 -14 2 -18 25 -17 53 -73 53 -104 0 -20 5 -39 11
-43 19 -12 4 -136 -25 -195 -41 -86 -64 -119 -92 -129 -16 -7 -24 -16 -22 -27
11 -59 97 16 155 134 35 72 38 84 37 158 -2 105 -10 142 -43 190 -27 40 -63
56 -76 34z"/>
<path d="M1145 327 c-60 -5 -281 -10 -490 -11 -356 -2 -425 -6 -425 -25 0 -16
646 -31 670 -16 23 14 387 23 575 14 88 -3 100 -2 103 13 2 11 -5 19 -20 22
-43 10 -303 11 -413 3z"/>
</g>
</svg>
