<?xml version="1.0" standalone="no"?>
<!DOCTYPE svg PUBLIC "-//W3C//DTD SVG 20010904//EN"
 "http://www.w3.org/TR/2001/REC-SVG-20010904/DTD/svg10.dtd">
<svg version="1.0" xmlns="http://www.w3.org/2000/svg"
 width="133.000000pt" height="131.000000pt" viewBox="0 0 133.000000 131.000000"
 preserveAspectRatio="xMidYMid meet">
<metadata>
Created by potrace 1.16, written by Peter Selinger 2001-2019
</metadata>
<g transform="translate(0.000000,131.000000) scale(0.100000,-0.100000)"
fill="#000000" stroke="none">
<path d="M855 1149 c-22 -4 -77 -8 -123 -7 -96 1 -111 -7 -93 -51 17 -40 18
-206 2 -253 l-13 -38 -126 0 c-131 0 -283 19 -323 40 -19 11 -24 10 -36 -6 -7
-10 -13 -37 -13 -59 0 -23 -3 -76 -6 -118 -8 -86 0 -95 49 -56 33 25 149 59
242 69 39 5 108 16 155 24 47 9 128 19 180 22 52 3 99 9 105 12 5 3 79 7 165
8 181 2 260 10 260 29 0 10 -33 13 -142 14 -340 3 -447 6 -453 13 -4 3 2 19
13 35 10 15 28 41 38 57 10 16 26 39 34 50 8 12 33 49 54 83 22 33 55 71 73
83 35 24 45 61 16 59 -10 -1 -36 -5 -58 -10z m-28 -67 c-10 -10 -17 -25 -17
-32 0 -7 -6 -21 -14 -29 -7 -9 -35 -47 -60 -86 l-47 -70 3 115 3 115 70 5 c39
3 72 4 74 3 2 -2 -3 -11 -12 -21z m-349 -319 c173 -6 224 -17 135 -28 -109
-13 -393 -67 -427 -81 -17 -7 -19 -4 -13 32 4 21 7 55 7 75 l0 37 63 -14 c34
-8 140 -17 235 -21z"/>
<path d="M141 516 c-6 -13 -6 -40 -1 -61 5 -21 8 -74 8 -117 -1 -82 6 -104 26
-77 27 38 312 100 473 104 66 1 108 7 118 15 30 25 27 1 -4 -38 -17 -22 -31
-44 -31 -50 0 -5 -7 -12 -15 -16 -8 -3 -15 -12 -15 -19 0 -8 -9 -22 -20 -32
-20 -18 -20 -17 -20 26 0 63 -10 91 -29 87 -10 -2 -15 -12 -13 -23 7 -42 6
-84 -1 -198 -8 -109 -7 -117 10 -117 16 0 18 9 19 69 1 60 5 74 28 101 14 17
26 36 26 42 0 14 103 157 114 157 5 1 17 7 25 15 11 10 69 17 199 25 101 6
187 9 192 6 4 -2 16 2 26 10 19 15 19 15 0 30 -11 8 -27 15 -35 15 -427 3
-910 15 -981 25 -20 3 -41 14 -49 25 -18 27 -39 25 -50 -4z m189 -60 c25 -3
132 -8 239 -10 190 -5 256 -17 169 -29 -24 -4 -103 -16 -176 -27 -162 -24
-149 -24 -157 0 -3 11 -13 20 -21 20 -12 0 -12 -4 -4 -21 7 -11 10 -22 8 -23
-2 -2 -31 -9 -66 -16 -34 -7 -65 -17 -68 -21 -3 -5 -18 -9 -34 -9 -28 0 -28 1
-32 65 -1 36 -1 70 1 76 3 10 24 9 141 -5z"/>
</g>
</svg>
