<?xml version="1.0" standalone="no"?>
<!DOCTYPE svg PUBLIC "-//W3C//DTD SVG 20010904//EN"
 "http://www.w3.org/TR/2001/REC-SVG-20010904/DTD/svg10.dtd">
<svg version="1.0" xmlns="http://www.w3.org/2000/svg"
 width="236.000000pt" height="124.000000pt" viewBox="0 0 236.000000 124.000000"
 preserveAspectRatio="xMidYMid meet">
<metadata>
Created by potrace 1.16, written by Peter Selinger 2001-2019
</metadata>
<g transform="translate(0.000000,124.000000) scale(0.100000,-0.100000)"
fill="#000000" stroke="none">
<path d="M153 1094 c-3 -9 -5 -28 -4 -43 1 -14 3 -61 4 -104 1 -43 7 -81 12
-85 6 -4 11 -40 13 -81 1 -41 4 -76 6 -78 3 -3 64 12 161 40 71 21 293 27 550
16 121 -5 238 -9 261 -9 l41 1 7 -66 c4 -36 4 -70 0 -76 -5 -9 -299 -6 -454 6
-30 2 -90 6 -132 9 -43 3 -97 10 -120 15 -24 5 -94 15 -156 22 -140 15 -140
14 -142 -91 -2 -106 -2 -103 18 -95 46 19 121 34 195 39 302 21 404 26 584 28
111 2 204 0 207 -3 4 -3 7 -43 9 -89 2 -82 2 -83 -23 -86 -68 -8 -360 -5 -475
5 -71 7 -191 13 -265 15 -148 4 -220 20 -220 48 0 20 -8 22 -29 9 -11 -7 -15
-39 -18 -121 -4 -104 -3 -111 14 -106 76 24 207 35 463 41 157 3 402 11 545
17 143 7 303 12 355 13 121 1 252 15 267 27 6 5 33 8 60 6 l48 -3 3 -52 c3
-57 4 -58 31 -43 21 11 34 116 32 266 -1 85 1 92 20 97 12 3 19 12 17 19 -3 7
4 35 15 63 11 27 40 110 65 183 36 106 52 140 78 164 18 18 31 35 28 39 -5 8
-150 3 -164 -6 -3 -2 -20 -1 -36 4 -37 10 -84 -19 -84 -53 0 -22 -4 -23 -84
-25 -72 -2 -86 1 -95 16 -7 14 -13 15 -21 7 -8 -8 -23 -9 -43 -4 -18 4 -67 14
-109 20 -53 9 -78 17 -78 26 0 20 -15 17 -31 -6 -16 -22 -60 -25 -309 -16
-313 12 -410 17 -530 31 -69 8 -176 17 -237 20 -62 3 -127 12 -145 19 -59 24
-98 27 -105 10z m88 -38 c19 -8 94 -17 173 -21 76 -3 144 -8 150 -11 21 -7
433 -34 539 -35 59 -1 107 -4 107 -8 0 -30 -64 -32 -475 -17 -158 6 -374 -8
-454 -28 -35 -10 -64 -16 -66 -14 -1 2 -5 28 -8 59 -4 30 -9 63 -13 72 -8 21
3 21 47 3z m1899 -49 c0 -7 -6 -21 -14 -32 -7 -11 -26 -58 -41 -105 -33 -105
-76 -220 -80 -220 -2 0 -3 55 -2 123 1 67 0 147 -3 176 l-5 55 44 3 c24 2 47
5 49 8 11 11 52 4 52 -8z m-823 -27 c21 0 24 -2 13 -15 -12 -15 -71 -21 -83
-8 -11 10 15 34 30 28 8 -3 26 -5 40 -5z m143 5 c0 -22 -17 -35 -46 -35 -39 0
-48 26 -11 32 39 6 57 7 57 3z m121 -20 c0 -5 -12 -11 -26 -13 -18 -2 -25 1
-25 13 0 12 7 15 25 13 14 -2 26 -7 26 -13z m-553 -41 l162 -6 0 -38 c0 -23
-5 -40 -14 -43 -7 -3 -159 -3 -337 1 -178 3 -372 5 -431 3 -94 -2 -107 0 -116
16 -9 15 -15 16 -41 6 -24 -9 -33 -8 -42 3 -13 16 -15 15 81 38 36 8 130 18
210 21 80 4 146 8 147 9 2 2 199 -3 381 -10z m844 10 c3 -3 -4 -23 -16 -45
-17 -32 -26 -39 -46 -37 -21 3 -25 9 -28 40 -3 33 -1 37 25 41 47 7 59 7 65 1z
m72 -16 c3 -13 6 -33 6 -45 0 -20 -5 -23 -35 -23 -41 0 -43 10 -14 56 24 40
34 42 43 12z m-624 -9 c0 -39 -19 -69 -44 -69 -21 0 -26 6 -32 34 -8 45 -3 51
40 52 28 0 36 -4 36 -17z m107 7 c3 -3 -15 -77 -21 -83 -3 -3 -12 -3 -21 0
-15 6 -22 77 -8 90 5 6 40 1 50 -7z m251 1 c7 -8 8 -25 3 -43 -5 -22 -14 -30
-34 -32 -26 -3 -27 -1 -27 42 0 42 2 46 24 46 13 0 28 -6 34 -13z m65 -37 c-3
-14 -9 -29 -14 -34 -16 -18 -20 2 -9 45 9 31 14 39 20 28 5 -7 7 -25 3 -39z
m-265 5 c-1 -39 -28 -74 -28 -37 0 23 17 72 24 72 3 0 5 -16 4 -35z m87 -2
c-14 -42 -55 -61 -55 -26 0 45 12 63 40 63 28 0 28 0 15 -37z m-960 -70 c469
-5 589 -9 593 -21 2 -6 -74 -8 -220 -4 -443 12 -563 9 -661 -17 -48 -13 -89
-22 -91 -20 -2 2 -7 22 -10 43 l-7 39 33 -8 c18 -4 182 -9 363 -12z m1140 -3
c4 -6 -6 -10 -22 -9 -25 0 -26 1 -8 9 11 5 21 9 22 9 1 1 5 -3 8 -9z m75 0 c0
-5 -7 -10 -15 -10 -8 0 -15 5 -15 10 0 6 7 10 15 10 8 0 15 -4 15 -10z m105 0
c15 -7 10 -9 -22 -9 -24 -1 -43 4 -43 9 0 12 37 12 65 0z m-641 -15 c-4 -8
-12 -15 -20 -15 -8 0 -14 7 -14 15 0 8 9 15 20 15 13 0 18 -5 14 -15z m116 0
c0 -8 -7 -15 -15 -15 -8 0 -15 7 -15 15 0 8 7 15 15 15 8 0 15 -7 15 -15z m75
0 c0 -5 -10 -11 -22 -13 -16 -2 -23 2 -23 13 0 11 7 15 23 13 12 -2 22 -7 22
-13z m65 5 c0 -5 -7 -10 -16 -10 -8 0 -12 5 -9 10 3 6 10 10 16 10 5 0 9 -4 9
-10z m120 0 c0 -5 -12 -10 -26 -10 -14 0 -23 4 -19 10 3 6 15 10 26 10 10 0
19 -4 19 -10z m79 -94 c-1 -36 -5 -69 -8 -74 -6 -10 -44 -15 -85 -13 -21 1
-18 27 14 98 17 39 23 43 73 52 4 0 7 -28 6 -63z m53 25 c-20 -47 -27 -45 -18
4 4 20 13 35 21 35 11 0 10 -7 -3 -39z m156 -6 c2 -21 1 -54 -3 -72 l-6 -33
-85 0 c-47 0 -84 4 -82 8 2 5 17 39 33 76 l30 66 55 -2 55 -3 3 -40z m-470
-38 c2 -53 0 -67 -11 -67 -8 0 -28 -3 -44 -6 -27 -5 -31 -3 -36 25 -6 30 15
100 34 112 6 3 20 5 32 4 20 -1 22 -8 25 -68z m45 58 c-3 -9 -8 -14 -10 -11
-3 3 -2 9 2 15 9 16 15 13 8 -4z m63 -50 c6 -36 8 -69 5 -74 -3 -5 -21 -6 -38
-4 -26 4 -33 10 -33 28 0 27 37 115 49 115 4 0 12 -29 17 -65z m53 53 c0 -7
-4 -22 -9 -33 -7 -18 -8 -19 -15 -2 -4 9 -5 24 -1 32 7 18 26 20 25 3z m-306
-68 c4 -34 6 -64 5 -65 -2 -2 -19 -5 -38 -7 -34 -3 -35 -2 -38 36 -1 23 3 46
11 55 8 9 17 24 20 34 13 36 32 10 40 -53z m-878 -65 c44 -7 143 -17 220 -21
77 -3 185 -10 240 -14 l100 -7 -90 -2 c-239 -5 -431 -16 -565 -31 -126 -15
-117 -18 -118 46 l0 57 67 -7 c36 -4 102 -13 146 -21z m993 -32 c-10 -2 -26
-2 -35 0 -10 3 -2 5 17 5 19 0 27 -2 18 -5z m486 -14 c3 -3 8 -48 12 -101 5
-71 4 -97 -6 -103 -6 -4 -49 -10 -94 -12 l-82 -6 4 109 c3 60 9 112 15 115 11
8 144 6 151 -2z m-197 -49 c1 -25 -3 -75 -9 -113 l-11 -67 -46 3 c-34 3 -45 7
-42 18 3 8 5 57 7 109 1 52 2 96 3 98 0 2 22 2 49 0 l47 -3 2 -45z m-260 -59
c-2 -48 -7 -92 -11 -99 -4 -7 -24 -12 -44 -12 l-37 0 2 47 c5 126 10 148 35
154 54 13 59 4 55 -90z m127 52 c6 -29 5 -62 -4 -103 l-13 -60 -38 0 -39 0 0
74 c0 40 3 88 6 105 6 30 9 32 43 29 34 -3 37 -6 45 -45z m-259 -58 l0 -95
-32 0 c-37 0 -39 4 -48 113 l-7 77 44 0 44 0 -1 -95z m-847 -101 c101 -3 218
-9 260 -14 43 -4 164 -8 270 -8 107 0 196 -3 199 -6 20 -20 -87 -28 -452 -36
-220 -4 -409 -10 -420 -13 -11 -3 -43 -8 -71 -12 l-52 -7 -3 52 c-2 28 -2 54
0 56 3 3 23 2 45 0 23 -3 124 -8 224 -12z m931 -35 c32 -2 31 -3 -14 -9 -91
-15 -145 -12 -145 6 0 15 9 16 61 10 34 -3 78 -7 98 -7z"/>
</g>
</svg>
