<?xml version="1.0" standalone="no"?>
<!DOCTYPE svg PUBLIC "-//W3C//DTD SVG 20010904//EN"
 "http://www.w3.org/TR/2001/REC-SVG-20010904/DTD/svg10.dtd">
<svg version="1.0" xmlns="http://www.w3.org/2000/svg"
 width="240.000000pt" height="156.000000pt" viewBox="0 0 240.000000 156.000000"
 preserveAspectRatio="xMidYMid meet">
<metadata>
Created by potrace 1.16, written by Peter Selinger 2001-2019
</metadata>
<g transform="translate(0.000000,156.000000) scale(0.100000,-0.100000)"
fill="#000000" stroke="none">
<path d="M1390 1388 l25 -21 -60 6 c-33 3 -82 1 -110 -4 -99 -19 -188 -25
-257 -17 -49 5 -76 3 -89 -5 -25 -16 -24 -26 8 -60 25 -26 29 -40 41 -155 8
-70 16 -165 18 -212 3 -47 9 -123 15 -170 5 -47 12 -110 14 -140 6 -73 14
-139 20 -171 7 -29 16 -145 18 -229 2 -47 5 -55 21 -55 36 0 55 59 56 175 0
36 5 92 11 125 5 33 11 67 12 75 2 8 5 20 9 25 3 6 16 51 28 100 12 50 35 135
52 190 17 55 32 106 34 112 2 9 13 7 39 -8 36 -22 38 -39 4 -39 -19 0 -37 -25
-26 -37 4 -3 24 2 45 10 37 15 82 13 82 -2 0 -4 -14 -15 -31 -25 -21 -13 -40
-16 -65 -12 -33 7 -47 -5 -23 -20 8 -4 4 -13 -12 -25 -33 -24 -16 -36 24 -17
31 15 36 15 60 0 15 -9 27 -19 27 -23 0 -13 -52 -29 -76 -23 -24 6 -35 -11
-12 -18 6 -2 -5 -15 -26 -27 -23 -15 -34 -27 -28 -33 6 -6 22 -2 43 11 19 12
42 21 51 21 17 0 78 -31 78 -40 0 -9 -95 -44 -112 -42 -12 2 -18 -3 -18 -18 0
-11 8 -24 18 -27 9 -4 30 -15 46 -24 l29 -17 -49 -25 c-48 -24 -97 -67 -77
-67 6 0 40 16 77 35 69 36 75 36 120 2 17 -13 17 -14 -13 -27 -25 -10 -38 -10
-57 -1 -35 15 -43 14 -41 -8 0 -11 4 -18 7 -16 3 2 12 0 20 -6 13 -7 13 -9 -1
-9 -20 0 -55 -37 -45 -47 4 -4 25 3 47 15 l40 23 29 -23 c35 -28 33 -38 -13
-62 -20 -11 -37 -24 -37 -29 0 -12 51 1 71 19 35 31 74 12 279 -144 39 -28 70
-48 70 -43 0 8 -81 75 -235 195 l-38 29 27 14 c30 16 68 9 60 -11 -3 -7 4 -23
14 -37 16 -19 22 -21 35 -11 12 10 24 5 71 -34 82 -66 84 -44 4 30 -75 69 -86
100 -42 116 14 6 30 10 36 10 6 0 47 -35 92 -79 80 -77 122 -108 133 -97 7 7
-67 88 -129 141 -50 43 -57 59 -32 69 15 6 69 -17 76 -32 4 -11 99 -82 109
-82 18 0 -4 28 -61 74 -33 28 -60 53 -60 57 0 4 11 10 24 13 13 3 31 8 39 12
8 3 21 -1 28 -8 8 -7 34 -29 59 -48 25 -19 54 -43 64 -52 22 -20 32 -22 40
-10 3 5 -16 26 -41 48 -106 89 -100 82 -79 99 19 14 18 15 -17 15 -35 0 -97
33 -97 51 0 3 19 12 43 18 41 10 43 10 76 -25 41 -44 65 -32 30 15 -25 34 -26
33 16 47 36 12 36 39 -1 69 -13 12 -24 26 -24 31 0 15 77 44 98 38 17 -6 -9
19 -68 65 l-31 23 72 25 c67 22 73 23 96 8 14 -9 27 -14 30 -12 2 3 -29 27
-71 54 -42 26 -76 51 -76 54 0 3 18 13 40 22 22 8 40 20 40 26 0 15 -7 14 -62
-6 -47 -16 -49 -16 -85 4 -21 12 -39 26 -41 31 -1 5 41 23 95 41 53 18 103 37
110 43 20 16 5 28 -25 18 -15 -4 -66 -20 -113 -35 -47 -15 -98 -25 -114 -23
-64 7 -33 27 122 78 163 54 230 89 145 76 -36 -5 -262 -76 -325 -101 -16 -7
-18 -3 -15 26 3 30 9 37 53 58 28 13 92 39 144 57 98 35 108 40 98 50 -7 7
-99 -22 -219 -69 l-67 -26 11 27 c7 15 15 31 20 37 25 29 -3 60 -31 33 -8 -9
-40 -12 -105 -10 -100 4 -124 -6 -113 -48 7 -29 18 -33 -135 55 -99 57 -157
75 -108 33z m140 -83 c103 -52 132 -89 98 -123 -20 -20 -35 -15 -139 44 l-99
55 21 29 c13 16 19 36 15 45 -5 14 -1 13 22 -3 15 -11 52 -32 82 -47z m-160 4
c0 -5 -7 -9 -15 -9 -10 0 -15 -10 -15 -30 0 -16 -13 -52 -30 -80 -16 -28 -30
-55 -30 -60 0 -6 -10 -6 -25 0 -29 11 -34 -3 -11 -29 12 -14 12 -23 0 -61 -8
-25 -37 -128 -65 -230 -28 -102 -59 -210 -69 -240 -11 -30 -22 -79 -26 -109
-5 -37 -9 -49 -16 -38 -15 27 -35 155 -37 235 -1 42 -4 91 -7 107 -2 17 -8 86
-14 155 -5 69 -14 161 -19 205 -5 44 -10 96 -10 117 -1 35 0 36 27 29 15 -4
43 -4 62 1 19 5 78 16 130 24 52 8 98 15 103 17 20 6 67 3 67 -4z m443 -17
c10 -16 -14 -53 -40 -63 -35 -13 -100 16 -106 48 -4 20 0 22 69 22 40 0 75 -3
77 -7z m-340 -86 c12 -8 40 -23 61 -35 l39 -20 -47 -21 c-26 -11 -51 -20 -55
-20 -4 0 -35 18 -69 40 -65 42 -65 41 -29 97 8 12 32 2 100 -41z m219 -1 c0
-5 -5 -11 -11 -13 -6 -2 -11 4 -11 13 0 9 5 15 11 13 6 -2 11 -8 11 -13z m112
-9 c-3 -8 -12 -12 -21 -9 -12 5 -12 7 -1 14 20 13 28 11 22 -5z m-39 -36 c18
-20 18 -21 -1 -35 -24 -18 -65 -19 -89 -1 -31 22 -3 47 61 55 6 0 19 -8 29
-19z m-374 -35 l50 -34 -37 -16 c-46 -19 -57 -19 -83 3 -19 15 -20 20 -9 50 7
17 16 32 20 32 5 0 31 -16 59 -35z m227 -32 c4 -42 -23 -50 -80 -24 l-43 20
45 20 c59 26 74 23 78 -16z m241 10 l24 -17 -38 -13 c-21 -7 -40 -11 -42 -9
-6 6 16 56 25 56 4 0 18 -8 31 -17z m-189 -13 c0 -5 -5 -10 -11 -10 -5 0 -7 5
-4 10 3 6 8 10 11 10 2 0 4 -4 4 -10z m103 -11 c-4 -15 -9 -17 -17 -9 -8 8 -7
13 4 20 8 5 16 10 17 10 0 0 -1 -9 -4 -21z m-460 -20 l21 -12 -22 -8 c-34 -13
-27 -32 8 -24 20 4 43 1 65 -9 44 -21 50 -32 26 -45 -29 -16 -60 -13 -89 7
-15 10 -34 21 -43 25 -14 5 -15 11 -5 41 12 41 10 40 39 25z m199 -7 c15 -9
28 -19 28 -23 0 -3 -19 -13 -42 -22 -39 -16 -43 -16 -80 5 l-39 22 31 16 c42
21 68 22 102 2z m223 -2 c3 -5 -11 -16 -31 -25 -29 -12 -39 -13 -45 -3 -4 7
-3 18 3 25 12 15 64 17 73 3z m220 -21 c40 -24 38 -29 -18 -48 -36 -12 -41
-11 -78 14 -21 15 -36 31 -33 36 3 5 8 8 12 5 4 -2 16 0 27 5 33 13 52 10 90
-12z m-355 -29 c8 -5 12 -10 10 -12 -28 -18 -75 -38 -90 -38 -34 0 -31 18 8
38 43 24 51 25 72 12z m152 -25 c-5 -29 -8 -29 -41 -11 l-24 14 29 15 c35 19
43 15 36 -18z m85 5 c6 0 13 -6 16 -14 8 -20 -52 -34 -64 -15 -5 8 -7 20 -4
27 3 8 5 18 5 24 0 6 8 4 18 -5 10 -10 23 -17 29 -17z m273 -51 c0 -3 -27 -14
-60 -23 -59 -17 -60 -17 -89 5 -17 12 -28 26 -25 30 3 5 26 15 52 23 44 13 50
12 85 -7 20 -11 37 -24 37 -28z m-392 -3 c10 -7 3 -13 -25 -22 -21 -8 -39 -14
-40 -14 -2 0 -3 18 -3 40 l0 40 28 -17 c15 -9 33 -21 40 -27z m-231 8 c6 -19
-40 -33 -66 -20 l-22 12 23 12 c27 13 60 11 65 -4z m131 -18 l-1 -33 -29 16
c-34 19 -35 25 -5 39 34 16 36 15 35 -22z m311 -15 l23 -18 -32 -13 c-28 -12
-36 -11 -66 5 -19 10 -34 22 -34 26 0 23 78 24 109 0z m-363 -13 l36 -21 -28
-15 c-25 -13 -31 -13 -61 3 -37 21 -41 30 -15 44 24 14 26 14 68 -11z m268
-37 c3 -5 -17 -18 -45 -29 l-50 -21 7 22 c21 69 21 69 53 52 16 -8 32 -19 35
-24z m-104 21 c0 -20 -27 -43 -43 -36 -23 8 -21 19 6 32 27 13 37 14 37 4z
m-258 -34 l31 -21 -34 -18 c-43 -23 -59 -23 -88 -2 l-24 16 29 24 c36 28 48
29 86 1z m592 -37 c-3 -3 -24 -11 -47 -18 -39 -12 -43 -11 -69 14 -16 15 -28
29 -28 33 0 3 15 10 33 16 27 8 39 5 74 -16 23 -13 40 -27 37 -29z m-454 9 c0
-18 -3 -19 -20 -8 -14 9 -16 14 -7 20 20 13 27 9 27 -12z m85 -21 c0 -8 -10
-15 -22 -17 -20 -3 -23 1 -23 29 0 30 1 31 23 17 12 -9 22 -22 22 -29z m209 0
c14 -11 26 -24 26 -28 0 -4 -19 -12 -42 -18 -37 -10 -45 -9 -75 12 l-34 22 38
16 c50 21 56 21 87 -4z m-324 -20 l34 -21 -34 -19 c-45 -23 -62 -23 -101 0
l-32 20 34 20 c43 26 56 26 99 0z m206 -23 c27 -18 32 -26 22 -34 -21 -17 -65
-25 -73 -13 -7 12 3 71 11 71 3 0 21 -11 40 -24z m-76 -4 c0 -13 -12 -22 -22
-16 -10 6 -1 24 13 24 5 0 9 -4 9 -8z m-260 -22 c11 -11 25 -20 30 -20 20 0 9
-18 -15 -24 -16 -4 -40 1 -67 15 l-42 21 30 13 c39 18 41 18 64 -5z m556 -15
c18 -14 38 -25 45 -25 12 0 4 -14 -9 -16 -4 0 -22 -4 -40 -8 -27 -6 -40 -3
-74 19 l-42 28 35 12 c48 18 49 18 85 -10z m-322 -39 c-10 -27 -29 -13 -32 25
l-3 34 21 -21 c13 -13 18 -27 14 -38z m-74 24 c0 -11 0 -23 1 -27 1 -14 -16
-12 -35 2 -20 15 -20 15 0 30 26 20 34 19 34 -5z m290 -25 c23 -17 29 -26 19
-29 -8 -3 -27 -10 -43 -16 -24 -9 -34 -7 -62 12 -41 28 -42 33 -6 46 42 16 55
14 92 -13z m-341 -16 c33 -20 33 -34 0 -41 -8 -1 -34 6 -56 17 l-41 20 26 12
c36 15 32 16 71 -8z m207 -25 c43 -21 43 -30 -1 -44 -49 -16 -63 -9 -57 29 5
36 11 37 58 15z m-273 -40 c0 -5 -21 -18 -47 -29 -43 -17 -50 -18 -73 -5 -41
23 -38 35 14 58 47 20 49 20 76 3 16 -10 29 -22 30 -27z m120 -14 c-4 -16 -8
-18 -19 -9 -16 13 -10 29 11 29 8 0 11 -7 8 -20z m253 -27 c39 -29 36 -38 -16
-47 -28 -5 -41 -1 -65 18 l-30 25 35 15 c19 8 36 15 38 16 2 0 19 -12 38 -27z
m-301 -4 l27 -22 -46 -23 c-38 -19 -49 -21 -68 -11 -55 29 -55 30 -3 53 62 28
57 28 90 3z m185 -38 c33 -28 33 -29 10 -36 -27 -9 -66 25 -57 49 8 21 9 21
47 -13z m-140 -61 c0 -22 -2 -40 -6 -40 -3 0 -21 11 -41 24 l-35 24 28 16 c45
24 54 20 54 -24z m-69 -32 l31 -23 -38 -17 c-37 -16 -38 -16 -71 10 l-33 27
27 12 c39 17 50 16 84 -9z"/>
<path d="M190 1343 c0 -5 39 -30 86 -57 89 -51 98 -60 92 -95 -3 -19 -9 -17
-78 25 -41 25 -81 52 -88 61 -7 11 -16 13 -21 7 -18 -18 45 -69 152 -123 34
-17 34 -25 2 -39 -38 -17 -79 -15 -106 7 -38 30 -107 62 -113 52 -3 -5 22 -25
56 -46 l61 -38 -28 -14 c-21 -12 -33 -12 -52 -4 -13 6 -28 11 -33 11 -17 0
-11 -20 8 -27 9 -4 39 -23 66 -42 l48 -34 -27 -14 c-24 -13 -29 -13 -46 3 -14
12 -23 14 -30 7 -13 -13 20 -46 74 -74 46 -24 47 -34 4 -48 -26 -9 -41 -8 -69
3 -43 18 -58 9 -26 -16 21 -17 22 -19 5 -29 -25 -15 -21 -32 7 -25 13 3 30 8
38 11 7 3 31 -6 52 -19 l40 -24 -50 -24 c-48 -25 -50 -25 -78 -7 -16 10 -33
16 -37 13 -14 -8 2 -33 24 -40 l22 -7 -23 -8 c-12 -5 -22 -15 -22 -24 0 -13 4
-13 34 1 31 15 35 15 61 -2 l27 -18 -46 -23 c-26 -13 -51 -21 -56 -18 -6 4
-15 -6 -20 -20 -14 -36 -14 -35 18 -29 19 4 35 0 52 -14 l23 -19 -61 -33 c-34
-18 -62 -39 -62 -46 0 -18 10 -18 39 2 18 13 28 14 47 5 34 -15 30 -25 -16
-46 -46 -21 -66 -40 -51 -49 6 -4 27 4 48 17 55 35 80 41 103 24 18 -13 19
-16 5 -27 -9 -7 -29 -13 -45 -12 -17 0 -30 -5 -30 -11 0 -7 -13 -24 -30 -39
-16 -14 -30 -34 -30 -43 0 -18 12 -14 45 16 33 29 68 33 89 10 18 -20 18 -21
-13 -38 -83 -46 -97 -57 -78 -61 9 -2 39 9 65 25 75 46 76 46 134 -1 58 -47
97 -70 104 -63 5 5 -92 87 -124 107 -15 8 -15 11 -2 20 21 14 30 12 30 -4 0
-7 7 -20 16 -27 14 -11 18 -10 30 6 14 18 15 18 41 -6 51 -47 175 -139 187
-139 12 0 -28 38 -137 130 -36 30 -68 61 -71 67 -3 7 6 20 19 29 24 16 27 15
67 -12 23 -16 71 -57 106 -91 63 -62 82 -74 82 -51 0 12 -113 128 -125 128 -3
0 -22 12 -41 27 l-35 27 23 12 c34 19 38 18 103 -31 80 -59 94 -57 25 4 l-55
49 37 16 c49 21 55 20 95 -10 42 -32 59 -22 19 12 -15 14 -27 26 -25 28 2 2
20 12 39 22 25 13 30 19 18 22 -9 2 -26 -2 -37 -7 -32 -18 -56 -13 -84 17
l-27 28 39 22 38 22 24 -24 c13 -13 42 -35 64 -49 22 -15 55 -39 73 -53 23
-19 32 -22 32 -12 0 8 -19 29 -42 46 -24 18 -61 47 -83 66 l-39 35 26 6 c14 4
36 1 49 -5 20 -11 21 -10 17 8 -4 14 0 22 13 25 32 9 23 29 -10 22 -37 -8 -93
23 -67 37 9 5 24 5 35 -2 30 -16 46 -13 31 5 -11 13 -8 17 19 26 47 17 39 32
-14 25 -33 -5 -51 -3 -66 8 -21 15 -21 16 33 39 71 32 77 43 33 61 -19 8 -35
19 -35 24 0 5 19 16 42 25 40 16 43 16 63 -3 12 -11 30 -20 40 -20 17 0 16 3
-7 28 -14 15 -23 33 -20 41 3 9 0 12 -10 8 -9 -3 -31 4 -49 15 l-34 21 33 15
c33 16 46 40 15 27 -46 -18 -80 -16 -122 6 l-43 22 35 19 c20 10 60 21 88 26
57 8 75 28 35 38 -26 6 -74 -6 -135 -33 -46 -21 -75 -19 -105 5 l-26 20 65 26
c36 14 71 26 79 26 17 0 41 28 32 37 -6 6 -74 -10 -111 -27 -95 -43 -129 -45
-123 -7 2 16 19 27 67 44 89 32 137 56 133 68 -4 14 -39 8 -87 -14 -22 -11
-51 -22 -64 -26 -21 -6 -23 -5 -16 11 4 11 8 28 9 39 1 19 -5 20 -84 19 -110
0 -140 -8 -140 -35 0 -20 -1 -21 -22 -5 -43 30 -125 76 -137 76 -6 0 -11 -3
-11 -7z m255 -93 c-3 -5 -1 -10 4 -10 6 0 11 5 11 10 0 6 14 10 31 10 35 0 38
-24 4 -46 -17 -10 -26 -10 -54 4 -44 22 -52 42 -16 42 15 0 24 -4 20 -10z
m-11 -56 c15 -6 15 -8 -1 -20 -25 -19 -33 -17 -33 6 0 21 8 24 34 14z m59 -41
c3 -5 1 -18 -4 -31 -8 -22 -9 -22 -35 -6 -25 17 -25 18 -8 31 20 14 41 17 47
6z m-55 -74 c-24 -16 -38 -9 -38 16 0 25 0 25 26 9 19 -13 22 -19 12 -25z
m-70 -3 c-2 -21 -5 -22 -25 -13 -26 11 -29 23 -10 30 26 11 37 6 35 -17z m247
-1 c27 -22 28 -24 10 -25 -12 0 -26 -5 -32 -11 -8 -8 -20 -5 -43 12 -28 22
-30 25 -14 36 26 19 45 16 79 -12z m-314 -25 c25 -14 24 -24 -5 -38 -19 -8
-30 -6 -57 11 l-34 21 25 7 c37 10 49 10 71 -1z m179 -2 c0 -7 -3 -23 -6 -35
-6 -22 -7 -22 -35 -6 -35 21 -36 27 -6 41 30 15 47 14 47 0z m60 -28 c0 -4 -7
-10 -15 -14 -10 -4 -15 1 -15 14 0 13 5 18 15 14 8 -4 15 -10 15 -14z m210
-30 c0 -9 -47 -30 -66 -30 -9 0 -29 10 -46 21 l-29 21 28 18 c27 16 30 16 71
-4 23 -11 42 -23 42 -26z m-380 -21 c0 -35 -3 -35 -42 -7 l-30 21 28 12 c37
15 44 11 44 -26z m239 -3 c31 -23 32 -25 13 -35 -31 -16 -64 -13 -91 10 -13
11 -22 21 -20 22 7 5 54 26 60 26 3 1 20 -10 38 -23z m-194 4 c3 -5 1 -10 -4
-10 -6 0 -11 5 -11 10 0 6 2 10 4 10 3 0 8 -4 11 -10z m-109 -24 l35 -23 -30
-13 c-25 -10 -34 -9 -60 6 -17 10 -31 21 -31 24 0 4 26 20 48 29 2 0 19 -10
38 -23z m518 -6 l30 -19 -27 -10 c-63 -24 -77 -24 -103 0 l-26 24 44 11 c24 7
45 12 48 13 3 0 18 -8 34 -19z m-368 -22 c-3 -13 -5 -24 -5 -26 -1 -1 -11 3
-23 9 -21 11 -21 12 -3 25 27 20 35 17 31 -8z m51 -33 c-27 -14 -31 -12 -22
14 5 17 9 19 25 9 18 -11 18 -12 -3 -23z m186 16 c36 -19 34 -27 -7 -41 -29
-9 -39 -8 -60 6 -15 9 -26 20 -26 24 0 8 50 30 60 26 3 -1 17 -8 33 -15z
m-320 -23 c8 -29 3 -32 -22 -18 -12 6 -27 8 -34 4 -6 -4 -3 2 7 14 24 28 42
28 49 0z m64 -15 c2 -6 -3 -13 -12 -16 -10 -5 -15 0 -15 14 0 21 21 22 27 2z
m136 -5 c31 -15 34 -23 10 -36 -15 -9 -39 0 -73 26 -4 3 20 22 31 22 3 0 17
-6 32 -12z m-253 -13 c35 -18 38 -30 11 -45 -28 -14 -48 -13 -77 7 l-26 17 24
18 c28 22 32 22 68 3z m474 -14 c16 -17 14 -19 -29 -35 -43 -17 -46 -17 -70 2
l-25 20 33 16 c42 21 70 20 91 -3z m-290 -7 c30 -12 12 -44 -25 -44 -5 0 -9
11 -9 25 0 26 7 29 34 19z m150 -43 c12 -13 14 -21 6 -26 -11 -7 -50 21 -50
37 0 15 27 8 44 -11z m-269 -1 c3 -5 1 -10 -4 -10 -6 0 -11 -7 -11 -15 0 -18
-5 -19 -29 -3 -18 11 -18 13 -3 25 21 15 39 16 47 3z m37 -22 c-9 -9 -12 -7
-12 12 0 19 3 21 12 12 9 -9 9 -15 0 -24z m172 -25 c-19 -14 -33 -12 -62 9
l-23 16 28 9 c21 8 33 6 50 -6 19 -14 20 -18 7 -28z m-276 -5 c18 -18 15 -24
-28 -43 -32 -15 -45 -16 -65 -7 -34 16 -31 24 13 44 46 20 65 21 80 6z m186
-7 l29 -20 -36 -17 c-45 -22 -63 -11 -48 29 12 32 17 33 55 8z m231 -19 c-8
-2 -24 2 -36 8 -16 9 -19 14 -9 20 8 5 22 2 36 -8 15 -12 18 -18 9 -20z m-65
-7 c15 -17 13 -20 -15 -28 -11 -4 -29 1 -40 9 -17 13 -18 16 -5 24 22 14 46
12 60 -5z m-297 -35 c5 -21 -16 -50 -36 -50 -20 0 -59 32 -50 41 15 14 66 38
74 34 3 -3 9 -14 12 -25z m209 4 c17 -16 17 -17 -8 -30 -34 -18 -59 -18 -73 0
-10 12 -7 18 16 30 36 20 43 19 65 0z m158 -56 c-14 -5 -30 -2 -46 8 -30 20
-30 22 -1 33 17 7 28 4 45 -12 l23 -21 -21 -8z m-440 -16 c0 -4 -18 -17 -39
-28 -38 -21 -40 -21 -66 -4 -15 10 -27 21 -26 25 0 4 17 16 38 25 33 15 41 15
66 3 15 -7 27 -17 27 -21z m172 21 c18 -16 17 -17 -9 -35 -38 -24 -45 -23 -37
10 12 48 17 51 46 25z m186 -11 l23 -18 -36 -17 c-33 -16 -38 -16 -60 -1 -31
20 -31 28 -2 42 32 15 49 14 75 -6z m-304 -51 c16 -18 15 -19 -16 -39 -29 -19
-34 -19 -60 -6 -15 8 -28 16 -28 18 0 7 65 46 76 46 6 0 19 -8 28 -19z m191 1
l23 -18 -30 -17 c-39 -22 -75 -22 -87 2 -9 16 -5 21 22 35 41 20 44 20 72 -2z
m-287 -65 c9 -8 8 -13 -5 -23 -23 -17 -45 -17 -68 0 -18 13 -17 14 11 29 28
15 36 14 62 -6z m177 7 c13 -14 14 -19 3 -25 -22 -14 -28 -10 -28 16 0 29 3
30 25 9z m197 -12 l31 -29 -47 -16 c-47 -16 -49 -16 -77 6 -15 12 -28 25 -28
28 -1 6 58 36 76 38 7 0 27 -12 45 -27z m-265 -18 c-2 -2 -12 -2 -21 2 -15 6
-15 7 1 20 15 11 19 10 21 -2 2 -9 2 -18 -1 -20z m-33 -23 c16 -17 15 -19 -13
-30 -23 -10 -34 -10 -52 0 l-23 12 23 18 c29 24 44 24 65 0z m171 -7 c31 -20
31 -26 -1 -41 -22 -10 -32 -10 -55 4 -34 20 -36 28 -11 42 24 15 39 13 67 -5z
m-135 -53 c0 -27 -11 -32 -33 -16 -18 13 -18 14 0 24 26 15 33 13 33 -8z m80
-12 c0 -5 -7 -9 -15 -9 -8 0 -15 7 -15 15 0 9 6 12 15 9 8 -4 15 -10 15 -15z
m-130 -24 c36 -19 38 -28 7 -42 -17 -8 -32 -7 -55 3 -37 15 -39 22 -14 40 22
17 27 17 62 -1z"/>
</g>
</svg>
