<?xml version="1.0" standalone="no"?>
<!DOCTYPE svg PUBLIC "-//W3C//DTD SVG 20010904//EN"
 "http://www.w3.org/TR/2001/REC-SVG-20010904/DTD/svg10.dtd">
<svg version="1.0" xmlns="http://www.w3.org/2000/svg"
 width="224.000000pt" height="150.000000pt" viewBox="0 0 224.000000 150.000000"
 preserveAspectRatio="xMidYMid meet">
<metadata>
Created by potrace 1.16, written by Peter Selinger 2001-2019
</metadata>
<g transform="translate(0.000000,150.000000) scale(0.100000,-0.100000)"
fill="#000000" stroke="none">
<path d="M1209 1338 c0 -2 -10 -34 -22 -73 l-23 -70 -44 -3 c-25 -1 -66 -2
-92 -2 -38 0 -49 -4 -58 -20 -9 -16 -8 -25 1 -36 14 -17 49 -19 49 -1 0 7 8
13 18 14 9 0 38 3 65 6 44 5 47 4 43 -16 -2 -12 -7 -40 -11 -62 -4 -22 -18
-80 -30 -130 -13 -49 -26 -106 -30 -125 -18 -96 -22 -126 -19 -132 2 -4 0 -9
-5 -13 -6 -3 -8 -12 -5 -20 3 -7 0 -40 -6 -72 -7 -32 -14 -73 -16 -91 -2 -18
-5 -41 -8 -50 -3 -9 -8 -33 -11 -52 -10 -56 -17 -49 -15 15 1 33 -1 132 -5
220 -3 88 -6 214 -7 280 -2 134 -19 246 -32 207 -4 -12 -3 -37 3 -55 12 -39
14 -59 12 -166 l-1 -84 -127 5 c-85 3 -140 10 -163 21 -102 45 -203 81 -265
94 -45 10 -76 22 -86 35 -14 18 -16 18 -29 3 -8 -9 -17 -57 -21 -113 -4 -53
-13 -121 -19 -150 -7 -30 -8 -58 -4 -62 5 -5 26 6 48 25 28 24 61 39 120 54
44 12 106 28 136 36 49 13 136 19 225 14 17 -1 65 1 108 5 l77 7 0 -33 c1 -18
0 -105 -1 -193 -1 -88 -2 -173 -2 -190 0 -16 3 -70 8 -120 8 -89 24 -128 51
-123 7 2 23 -13 36 -32 23 -33 78 -56 78 -31 0 5 16 24 36 43 19 18 64 60 98
93 35 33 76 67 92 75 16 8 47 33 69 56 22 23 54 50 70 60 17 10 35 22 40 27 6
4 23 17 39 30 38 29 187 110 348 189 90 45 128 68 128 81 0 24 -16 21 -69 -12
-26 -15 -67 -37 -92 -48 -24 -11 -65 -33 -89 -49 -25 -16 -97 -55 -160 -86
l-115 -58 -3 25 c-2 15 1 32 6 38 5 7 15 30 22 52 7 22 24 57 37 78 13 21 28
49 33 62 8 21 23 45 102 158 l20 28 31 -18 c18 -10 51 -25 75 -32 23 -8 42
-18 42 -23 0 -4 6 -8 13 -8 6 0 47 -23 90 -50 48 -31 89 -50 108 -50 37 0 39
25 2 35 -16 3 -39 17 -53 30 -14 13 -54 38 -90 56 -36 19 -105 63 -155 100
-49 37 -139 95 -200 129 -60 35 -138 83 -172 107 -35 23 -67 43 -72 43 -5 0
-11 3 -13 8 -1 4 -19 19 -38 34 -19 15 -50 39 -67 53 -18 15 -33 25 -34 23z
m109 -120 c24 -15 45 -28 47 -28 6 0 147 -90 160 -102 6 -5 -18 -7 -60 -4 -61
3 -82 11 -160 54 -77 42 -90 53 -87 72 6 55 27 57 100 8z m-20 -105 c43 -20
73 -37 67 -39 -5 -2 -36 -7 -67 -12 -53 -8 -58 -7 -58 10 0 20 -19 25 -21 6
-8 -72 -10 -304 -3 -323 4 -9 13 -13 23 -10 15 4 17 0 13 -24 -3 -26 -9 -30
-48 -36 l-44 -6 0 -55 c0 -33 4 -54 11 -54 7 0 9 10 5 25 -13 50 7 65 83 65
37 0 82 5 99 11 17 6 36 9 42 7 5 -1 -14 -38 -43 -82 -59 -88 -116 -175 -148
-224 -16 -25 -24 -30 -30 -20 -5 7 -9 10 -10 6 -1 -5 -3 -12 -4 -18 -1 -5 -3
-21 -4 -35 -1 -19 -13 -30 -63 -55 -85 -41 -91 -40 -82 15 3 25 7 58 9 73 1
15 4 34 8 42 5 14 15 75 23 140 10 85 77 442 95 507 21 75 45 122 62 123 5 0
43 -16 85 -37z m372 -105 c39 -24 160 -117 160 -124 0 -3 -55 22 -102 47 -10
5 -28 8 -40 8 -17 -1 -19 -2 -5 -6 9 -2 17 -9 17 -14 0 -10 -1 -10 -115 -12
l-80 -2 -2 -55 c-1 -30 -2 -69 -2 -86 -1 -32 -12 -38 -81 -50 -8 -1 -34 -5
-57 -9 -24 -4 -43 -5 -43 -2 0 14 43 83 56 90 8 4 14 14 14 22 0 7 4 15 10 17
5 2 32 34 58 72 63 90 68 93 122 67 50 -24 50 -24 50 -13 0 4 -15 14 -34 20
-50 19 -60 34 -35 60 22 24 18 25 109 -30z m-150 32 c0 -5 -7 -10 -15 -10 -8
0 -15 5 -15 10 0 6 7 10 15 10 8 0 15 -4 15 -10z m-36 -19 c11 -10 7 -22 -30
-79 -24 -37 -48 -72 -54 -79 -5 -7 -10 -17 -10 -22 0 -6 -6 -14 -13 -18 -7 -4
-26 -26 -43 -48 -52 -71 -69 -83 -58 -41 3 15 -1 29 -12 41 -20 20 -29 110
-19 192 6 53 6 53 43 54 20 1 48 5 62 10 33 11 116 5 134 -10z m-1044 -132
c46 -24 134 -60 160 -66 47 -9 44 -20 -8 -28 -26 -4 -62 -13 -81 -21 -18 -8
-41 -14 -51 -14 -10 0 -46 -9 -80 -20 -67 -21 -94 -25 -86 -12 9 15 23 110 25
170 1 11 13 12 53 7 29 -4 59 -11 68 -16z m1236 -20 c2 -4 -6 -23 -18 -43 -13
-19 -48 -77 -78 -130 -30 -52 -57 -91 -60 -85 -5 7 -6 229 -1 262 1 10 151 6
157 -4z m-181 -196 c-3 -16 -5 -70 -6 -121 0 -79 -3 -96 -20 -113 -21 -21
-240 -131 -247 -124 -13 12 154 283 217 353 38 41 63 43 56 5z m-81 -329 c-38
-36 -123 -110 -189 -164 l-120 -99 -20 26 c-11 15 -30 36 -42 48 l-22 21 65
32 c35 18 71 32 80 32 8 0 17 7 20 15 4 8 11 15 16 15 11 0 179 84 238 118 19
11 37 21 39 21 3 1 -26 -29 -65 -65z"/>
<path d="M1164 489 c-3 -6 -1 -16 5 -22 8 -8 11 -5 11 11 0 24 -5 28 -16 11z"/>
<path d="M1169 448 c-6 -20 -5 -38 2 -49 6 -10 9 -4 9 19 0 17 -2 32 -5 32 -3
0 -5 -1 -6 -2z"/>
<path d="M270 535 c-7 -8 -8 -20 -3 -27 4 -7 8 -69 8 -137 0 -135 6 -150 47
-108 12 14 50 34 83 45 99 32 212 62 237 62 14 0 44 6 69 14 24 8 83 22 130
31 87 17 118 29 107 40 -8 9 -37 8 -83 -3 -22 -6 -60 -15 -85 -20 -25 -6 -63
-15 -85 -20 -22 -6 -78 -18 -125 -27 -75 -14 -191 -48 -242 -70 -16 -6 -18 -1
-18 36 0 24 3 67 6 95 l6 50 57 -8 c54 -9 373 -21 475 -19 82 1 80 21 -2 23
-40 0 -91 3 -114 4 -24 2 -77 3 -118 4 -97 0 -304 27 -308 40 -5 15 -28 12
-42 -5z"/>
</g>
</svg>
