<?xml version="1.0" standalone="no"?>
<!DOCTYPE svg PUBLIC "-//W3C//DTD SVG 20010904//EN"
 "http://www.w3.org/TR/2001/REC-SVG-20010904/DTD/svg10.dtd">
<svg version="1.0" xmlns="http://www.w3.org/2000/svg"
 width="226.000000pt" height="174.000000pt" viewBox="0 0 226.000000 174.000000"
 preserveAspectRatio="xMidYMid meet">
<metadata>
Created by potrace 1.16, written by Peter Selinger 2001-2019
</metadata>
<g transform="translate(0.000000,174.000000) scale(0.100000,-0.100000)"
fill="#000000" stroke="none">
<path d="M1596 1578 c-32 -33 -116 -135 -188 -225 -72 -89 -135 -163 -139
-163 -18 0 -215 183 -295 274 -37 43 -58 47 -51 10 3 -17 0 -28 -10 -31 -9 -3
-21 -19 -27 -34 -7 -16 -41 -61 -76 -100 -36 -39 -77 -85 -92 -102 -27 -29
-36 -56 -20 -58 54 -5 104 -16 237 -54 87 -25 163 -45 169 -45 6 0 17 -4 25
-9 10 -7 4 -18 -30 -47 -148 -133 -649 -652 -649 -673 0 -5 -17 -20 -37 -34
-31 -21 -58 -28 -138 -36 -55 -6 -113 -15 -130 -19 -37 -10 -41 -38 -5 -34 35
4 50 3 94 -4 33 -6 38 -4 33 9 -5 14 27 16 296 17 166 1 320 3 342 5 149 14
933 24 952 12 6 -4 9 -16 6 -27 -7 -27 23 -38 45 -17 12 12 16 39 18 104 1 48
7 101 13 116 13 34 14 74 2 81 -4 3 -22 1 -40 -4 -28 -8 -31 -7 -31 15 0 15 5
22 17 21 14 -1 17 11 18 76 2 43 8 90 14 105 6 16 20 87 30 158 40 273 113
593 147 647 28 44 30 61 8 79 -13 10 -23 10 -62 -4 -26 -10 -55 -17 -64 -17
-9 0 -23 -7 -31 -15 -8 -8 -33 -24 -56 -36 -40 -20 -42 -20 -68 -4 -14 10 -51
42 -81 71 -31 30 -63 54 -72 54 -9 0 -42 -28 -74 -62z m99 -28 c16 -16 34 -30
41 -30 6 0 23 -10 38 -21 l27 -21 -52 -35 c-68 -44 -140 -105 -322 -270 -38
-35 -72 -63 -76 -63 -4 0 -18 11 -31 25 l-24 25 25 28 c14 15 41 48 60 75 102
142 255 317 278 317 4 0 20 -13 36 -30z m360 -27 c-3 -10 -13 -40 -20 -68 -7
-27 -18 -63 -24 -80 -5 -16 -22 -93 -36 -170 -15 -77 -33 -171 -41 -210 -22
-103 -53 -273 -61 -329 -5 -40 -8 -45 -17 -30 -13 24 -9 379 5 405 5 11 8 23
5 27 -2 4 -7 82 -10 173 -4 91 -8 175 -11 188 -4 23 1 26 145 86 68 29 74 29
65 8z m-235 -247 l0 -163 -40 39 c-23 21 -47 38 -54 38 -18 0 -39 -27 -31 -39
8 -14 -89 -156 -120 -177 -14 -9 -25 -23 -25 -30 0 -24 -13 -16 -92 57 -69 62
-95 99 -70 99 4 0 32 24 62 53 49 46 93 84 230 203 60 51 123 94 132 88 4 -3
8 -78 8 -168z m-700 -18 c30 -26 71 -60 90 -77 l35 -30 -38 -39 -38 -38 -62
14 c-34 8 -75 20 -92 27 -48 21 -214 75 -231 75 -19 0 41 75 124 158 l54 53
52 -48 c28 -26 76 -69 106 -95z m184 -157 c16 -18 16 -20 -13 -40 -24 -17 -37
-20 -62 -14 l-31 9 33 32 c38 37 49 39 73 13z m470 -23 c9 -17 15 -32 14 -32
-14 -7 -111 -89 -140 -118 -40 -40 -45 -43 -67 -29 -11 7 -10 14 5 40 10 17
21 31 24 31 4 0 22 21 40 48 72 102 97 114 124 60z m-375 -64 c23 -26 36 -44
29 -41 -7 3 -39 17 -70 30 -53 22 -56 25 -40 40 24 25 35 21 81 -29z m-197 -2
c14 -6 4 -19 -53 -67 -39 -33 -92 -78 -118 -100 -25 -23 -58 -48 -72 -57 -27
-17 -27 -17 -15 7 6 14 14 25 17 25 4 0 53 45 109 100 57 55 106 100 109 99 3
0 14 -4 23 -7z m614 -9 c-8 -28 -9 -286 -1 -415 7 -132 15 -119 -70 -123 -22
-1 -89 -9 -150 -18 -60 -9 -173 -26 -250 -37 -77 -11 -159 -24 -182 -29 -49
-10 -56 -1 -15 20 15 7 65 54 112 104 109 115 167 172 264 263 l78 72 43 -35
c24 -20 49 -45 57 -56 13 -21 48 -18 48 3 0 17 -72 92 -99 103 -24 11 -24 11
35 63 50 44 121 98 132 101 2 1 1 -7 -2 -16z m-466 -33 c59 -14 160 -65 160
-82 0 -5 -5 -18 -10 -29 -14 -25 -2 -24 25 1 19 18 24 19 34 6 10 -12 -1 -29
-71 -101 -84 -89 -184 -175 -143 -125 11 14 22 27 25 30 3 3 28 35 55 73 27
37 52 67 57 67 4 0 8 5 8 10 0 24 -31 7 -59 -32 -16 -24 -43 -59 -61 -78 -18
-19 -44 -51 -59 -70 -76 -101 -119 -151 -183 -212 -70 -67 -77 -71 -168 -81
-19 -3 -98 -14 -175 -26 -77 -12 -166 -23 -197 -26 -32 -2 -73 -7 -93 -11 -49
-9 -45 5 21 73 54 55 57 48 5 -10 -19 -21 -22 -30 -13 -39 7 -7 15 -8 20 -2 5
5 57 65 117 134 113 131 141 159 246 251 76 67 134 114 209 168 30 22 80 63
110 90 38 34 59 47 70 41 8 -4 40 -13 70 -20z m-721 -509 c-7 -10 -21 -24 -33
-31 l-21 -13 20 24 c19 22 36 38 43 39 1 0 -3 -8 -9 -19z m1245 -58 c-5 -16
-8 -49 -8 -75 l1 -47 -136 -1 c-340 -1 -1044 -17 -1080 -24 -14 -3 -32 -2 -40
3 -9 6 12 11 60 16 41 4 137 17 214 30 82 14 141 20 143 15 5 -15 33 -12 51 4
9 8 39 17 66 20 28 3 70 10 95 15 65 13 170 29 290 42 58 7 128 15 155 19 28
4 83 8 124 9 l73 1 -8 -27z"/>
</g>
</svg>
