<?xml version="1.0" standalone="no"?>
<!DOCTYPE svg PUBLIC "-//W3C//DTD SVG 20010904//EN"
 "http://www.w3.org/TR/2001/REC-SVG-20010904/DTD/svg10.dtd">
<svg version="1.0" xmlns="http://www.w3.org/2000/svg"
 width="158.000000pt" height="146.000000pt" viewBox="0 0 158.000000 146.000000"
 preserveAspectRatio="xMidYMid meet">
<metadata>
Created by potrace 1.16, written by Peter Selinger 2001-2019
</metadata>
<g transform="translate(0.000000,146.000000) scale(0.100000,-0.100000)"
fill="#000000" stroke="none">
<path d="M1210 1402 c-8 -3 -35 -25 -60 -50 -25 -24 -68 -57 -97 -73 -63 -37
-81 -55 -65 -71 9 -9 17 -7 32 7 16 14 20 15 20 4 0 -21 -199 -185 -283 -234
-69 -40 -145 -33 -263 24 -107 51 -124 52 -124 8 0 -18 -9 -49 -20 -70 -14
-26 -20 -56 -20 -102 0 -36 -7 -82 -15 -101 -11 -27 -15 -77 -14 -200 l0 -165
22 7 c23 7 63 38 84 65 7 9 34 26 61 37 48 21 71 45 52 57 -13 8 -102 -39
-145 -76 l-35 -31 0 45 c0 49 5 56 48 64 39 8 242 10 242 3 0 -3 -16 -21 -35
-40 -19 -19 -35 -37 -35 -41 0 -10 89 -3 125 9 17 6 55 17 85 26 l55 16 60
-43 c33 -23 86 -56 117 -73 l58 -30 -49 -75 c-54 -81 -66 -121 -40 -127 12 -2
28 17 52 60 20 35 53 82 74 105 21 23 58 68 83 100 86 111 182 214 221 239 21
13 39 29 39 35 0 5 -22 32 -49 59 -32 32 -46 53 -40 61 5 8 -5 30 -25 59 -19
25 -50 77 -70 117 -19 39 -40 74 -46 78 -14 9 -3 170 17 249 14 60 10 78 -17
68z m-48 -167 l-7 -80 -24 24 c-16 16 -20 26 -13 29 24 8 11 31 -18 34 l-30 3
47 36 c27 20 49 35 50 35 0 -1 -2 -37 -5 -81z m-44 -120 c27 -33 60 -82 73
-110 27 -59 53 -98 92 -142 27 -28 27 -31 10 -37 -10 -3 -24 -18 -30 -33 -6
-16 -27 -66 -46 -113 -33 -79 -111 -235 -127 -253 -9 -10 -97 34 -153 77 -25
19 -54 37 -65 40 -17 6 -22 18 -27 69 -4 34 -5 75 -3 92 5 50 -24 42 -83 -21
-88 -94 -75 -88 -219 -94 -72 -3 -130 -4 -130 -2 0 2 34 19 75 38 41 19 75 39
75 45 0 6 29 9 74 7 51 -2 78 1 90 11 9 8 13 18 8 23 -5 5 -74 9 -155 10 -146
2 -147 2 -133 22 7 12 28 32 47 44 30 21 42 23 98 18 65 -6 91 -18 91 -42 0
-7 13 -20 29 -28 25 -13 31 -13 47 -1 18 14 18 16 2 26 -10 5 -18 16 -18 24 0
7 23 61 52 119 39 82 59 111 85 127 18 12 50 36 71 54 87 78 107 95 113 92 4
-1 29 -29 57 -62z m-673 -139 c11 -7 38 -19 60 -26 39 -13 39 -13 15 -23 -14
-6 -51 -23 -82 -38 l-58 -28 0 29 c0 16 4 31 9 34 4 3 11 19 14 36 7 34 14 36
42 16z m323 -41 c-6 -14 -16 -25 -21 -25 -6 0 -8 -3 -4 -6 8 -8 -20 -64 -32
-64 -4 0 -14 12 -22 28 -7 15 -15 30 -17 34 -2 3 12 9 30 13 18 4 39 16 46 26
19 28 33 23 20 -6z m-165 -31 c-4 -10 1 -22 12 -30 29 -21 15 -25 -70 -17 -78
6 -79 7 -47 20 18 7 47 19 65 27 42 19 48 19 40 0z m-174 -133 c-58 -64 -78
-74 -74 -38 1 12 3 27 4 34 2 26 56 63 90 63 l34 0 -54 -59z m910 -6 c41 -21
47 -46 18 -71 -25 -22 -100 -103 -155 -169 l-34 -40 26 52 c14 28 40 87 56
129 35 86 48 114 56 114 3 0 18 -7 33 -15z m-851 -86 c9 0 -3 -9 -28 -20 -24
-11 -59 -31 -77 -45 -19 -14 -30 -19 -27 -10 3 8 1 17 -5 21 -18 11 -12 32 12
40 40 14 82 22 95 19 8 -2 21 -4 30 -5z m315 -81 l16 -48 -50 -15 c-28 -8 -67
-17 -87 -21 -37 -7 -37 -7 -19 13 10 12 32 23 48 27 23 4 30 11 27 25 -2 15
40 78 47 68 1 -1 9 -23 18 -49z"/>
</g>
</svg>
