<?xml version="1.0" standalone="no"?>
<!DOCTYPE svg PUBLIC "-//W3C//DTD SVG 20010904//EN"
 "http://www.w3.org/TR/2001/REC-SVG-20010904/DTD/svg10.dtd">
<svg version="1.0" xmlns="http://www.w3.org/2000/svg"
 width="292.000000pt" height="200.000000pt" viewBox="0 0 292.000000 200.000000"
 preserveAspectRatio="xMidYMid meet">
<metadata>
Created by potrace 1.16, written by Peter Selinger 2001-2019
</metadata>
<g transform="translate(0.000000,200.000000) scale(0.100000,-0.100000)"
fill="#000000" stroke="none">
<path d="M2390 1993 c-26 -9 -50 -35 -50 -53 0 -9 11 -22 24 -29 13 -7 34 -31
47 -52 13 -22 36 -56 52 -76 15 -20 27 -44 27 -53 0 -30 -49 -31 -470 -5 -58
4 -134 8 -170 11 -36 2 -78 6 -95 8 -16 3 -73 8 -125 12 -52 3 -124 9 -160 14
-36 4 -103 8 -150 9 -47 1 -113 6 -148 10 -45 5 -68 4 -80 -5 -11 -8 -21 -9
-29 -3 -20 17 -26 -9 -24 -112 1 -64 -2 -99 -8 -99 -6 0 -28 15 -48 33 -21 18
-88 66 -150 107 -61 41 -114 82 -116 91 -3 12 -22 17 -83 22 -73 7 -80 5 -101
-15 -20 -21 -21 -29 -15 -106 l8 -83 -56 2 c-67 2 -148 23 -214 56 -70 35 -92
27 -101 -38 -4 -28 -3 -81 1 -117 4 -37 9 -85 9 -107 4 -100 5 -105 22 -105 9
0 28 11 42 24 15 13 51 40 81 61 54 37 56 37 128 31 41 -3 78 -9 83 -12 6 -3
7 -41 4 -90 -5 -87 4 -124 30 -124 7 0 15 -5 17 -11 10 -30 72 6 185 108 71
65 136 114 167 128 29 13 66 37 84 54 l34 30 -6 -57 c-11 -113 -17 -220 -21
-381 -3 -90 -7 -166 -9 -169 -7 -6 -63 35 -121 87 -28 25 -76 64 -107 86 -33
23 -58 48 -58 58 0 10 -11 22 -24 27 -13 5 -26 15 -29 22 -4 11 -7 11 -18 0
-11 -10 -11 -16 -1 -33 19 -30 7 -78 -19 -72 -10 3 -19 1 -19 -5 0 -6 -15 -6
-45 0 -61 13 -76 1 -69 -58 l5 -44 -73 5 c-129 10 -228 24 -249 36 -33 17 -42
-2 -44 -88 -1 -43 -5 -112 -10 -154 -10 -106 3 -111 95 -34 74 62 109 74 214
79 l96 3 0 -63 c0 -34 -4 -66 -10 -69 -5 -3 -10 -14 -10 -23 0 -19 49 -92 62
-92 10 0 38 24 143 122 57 53 192 138 220 138 7 0 18 7 25 15 24 29 37 17 38
-35 0 -27 -4 -52 -9 -56 -6 -4 -6 -10 1 -19 7 -8 8 -26 2 -52 -5 -21 -6 -58
-3 -82 l6 -43 345 -4 c190 -1 401 -8 470 -13 69 -6 250 -13 402 -15 153 -2
282 -7 287 -11 10 -5 -38 -71 -135 -182 -45 -53 -41 -73 14 -66 31 4 46 0 70
-17 40 -30 76 -20 69 18 -7 37 40 117 58 102 8 -6 17 -25 20 -42 4 -17 22 -52
41 -78 18 -25 38 -58 43 -73 6 -15 15 -27 21 -27 12 0 14 62 1 76 -4 5 -16 38
-25 74 -10 36 -29 95 -43 132 -24 63 -25 69 -10 86 9 10 22 34 28 53 7 19 25
53 41 76 21 31 27 49 22 68 -3 14 -9 25 -13 25 -13 0 -68 -65 -91 -107 -13
-24 -27 -43 -30 -43 -14 0 -45 127 -44 177 2 59 -8 68 -53 46 -39 -18 -93 -72
-93 -90 0 -4 14 -35 30 -67 17 -33 28 -61 26 -63 -6 -6 -131 50 -199 89 -31
18 -162 95 -290 172 -286 171 -316 188 -395 227 -73 37 -72 42 25 85 92 39
203 96 358 184 72 40 150 80 175 89 25 9 71 36 103 61 77 60 226 150 249 150
15 0 10 -12 -28 -67 -25 -38 -60 -81 -78 -98 -19 -16 -39 -40 -45 -52 -6 -12
-23 -28 -39 -35 -16 -8 -27 -21 -27 -33 0 -17 7 -20 50 -20 28 -1 61 -4 75 -8
27 -8 69 17 74 43 6 36 31 98 52 130 13 19 24 41 24 50 1 8 7 26 14 39 l13 24
11 -29 c20 -51 88 -168 100 -172 21 -7 13 27 -25 106 -52 110 -55 169 -13 247
18 33 38 66 44 74 6 7 16 30 23 50 l12 36 -37 -41 c-20 -23 -51 -59 -68 -80
l-31 -38 -26 82 c-15 46 -27 96 -27 113 0 29 0 29 -57 28 -32 0 -65 -3 -73 -6z
m90 -47 c0 -8 13 -47 29 -88 16 -40 32 -86 35 -102 6 -26 5 -28 -8 -17 -9 8
-16 18 -16 23 0 6 -25 46 -56 90 -31 43 -55 80 -53 82 31 26 69 32 69 12z
m-1850 -183 c3 -3 -6 -13 -19 -24 -17 -14 -24 -31 -26 -65 -3 -44 -10 -63 -20
-52 -3 3 -6 32 -6 64 -1 33 -6 67 -11 78 -9 17 -7 18 34 11 23 -4 45 -9 48
-12z m85 -30 c40 -19 48 -37 9 -23 -14 6 -37 10 -51 10 -21 0 -24 2 -13 15 15
18 12 19 55 -2z m386 -16 c-6 -6 -6 -16 2 -28 8 -13 6 -55 -8 -171 -10 -84
-20 -187 -23 -228 -4 -63 -6 -70 -13 -41 -12 55 1 222 19 254 13 21 14 30 5
35 -12 8 -18 68 -15 154 2 41 4 46 23 41 13 -4 17 -9 10 -16z m122 16 c-7 -2
-19 -2 -25 0 -7 3 -2 5 12 5 14 0 19 -2 13 -5z m195 0 c-32 -2 -86 -2 -120 0
-35 2 -9 3 57 3 66 0 94 -1 63 -3z m477 -35 c138 -1 583 -32 523 -37 -17 -1
-125 -72 -235 -153 -63 -47 -199 -117 -263 -137 -19 -5 -80 -26 -135 -46 -216
-79 -351 -122 -362 -118 -17 7 -7 181 18 307 21 107 24 156 10 156 -10 0 -25
-54 -45 -160 l-14 -75 -2 55 c-1 30 -3 66 -6 79 -3 14 3 32 13 43 17 19 17 20
0 29 -9 6 -17 21 -17 34 0 29 13 31 205 27 77 -2 217 -4 310 -4z m-1162 -29
c34 -11 76 -27 94 -35 17 -7 39 -14 50 -14 19 0 121 -69 122 -82 1 -4 -14 -15
-31 -24 -18 -9 -59 -34 -91 -56 -32 -22 -92 -55 -133 -75 -41 -20 -74 -41 -74
-48 0 -13 111 37 144 64 9 7 16 11 16 8 0 -3 -28 -28 -62 -56 -35 -27 -80 -65
-102 -82 -37 -32 -39 -32 -52 -14 -20 27 -18 33 16 50 17 9 30 20 30 25 0 6
-18 1 -40 -10 -59 -30 -63 -28 -55 33 4 28 11 56 16 62 12 12 11 45 -1 45 -12
0 -13 53 -1 66 5 5 19 40 30 77 11 38 23 73 27 78 8 14 28 11 97 -12z m622 11
c4 -6 -30 -10 -94 -10 -61 0 -101 4 -101 10 0 6 38 10 94 10 53 0 98 -4 101
-10z m1131 -127 c-29 -54 -59 -114 -66 -135 -12 -33 -15 -35 -37 -25 -33 15
-29 35 15 76 21 20 60 69 85 109 26 39 49 72 51 72 3 0 -19 -44 -48 -97z
m-2237 74 c9 -8 36 -19 60 -26 l43 -12 -63 -32 c-35 -17 -67 -33 -71 -35 -5
-2 -8 24 -8 57 0 63 9 74 39 48z m1092 -7 c10 -6 19 -17 19 -24 0 -16 -23 -15
-80 3 -19 6 -56 11 -82 11 -27 0 -48 5 -48 10 0 13 166 13 191 0z m-838 -50
c26 0 27 -2 27 -50 l0 -50 -38 0 c-21 0 -47 7 -60 15 -16 12 -27 13 -41 6 -19
-11 -121 -3 -121 8 0 21 153 84 185 76 11 -3 32 -5 48 -5z m777 -14 c36 -8 68
-12 73 -9 4 2 7 -8 7 -23 0 -25 -2 -26 -37 -20 -21 4 -60 9 -88 12 -84 9 -95
13 -95 34 0 16 7 20 38 20 20 0 66 -7 102 -14z m-260 -34 c0 -9 -101 -72 -115
-72 -6 0 17 18 50 40 66 44 65 43 65 32z m271 -52 l66 -12 7 -61 c3 -34 3 -96
0 -140 -8 -87 1 -80 -84 -61 -14 3 -50 8 -80 10 -88 8 -100 12 -100 36 0 19 4
20 58 14 31 -3 79 -10 107 -15 50 -9 75 -6 75 9 0 18 -113 49 -188 52 -47 2
-52 5 -52 26 0 18 4 22 18 18 9 -3 56 -15 103 -26 84 -19 124 -19 116 3 -3 11
-117 44 -184 53 -26 4 -43 12 -43 20 0 21 13 23 76 13 126 -21 164 -22 164 -5
0 9 -6 16 -12 17 -14 1 -23 2 -88 18 -25 6 -64 11 -87 11 -46 0 -46 0 -36 25
7 19 31 18 164 -5z m-1008 -22 c9 0 17 -3 17 -7 0 -10 -80 -64 -86 -58 -3 2
-8 21 -11 42 l-6 37 34 -8 c19 -4 42 -7 52 -6z m1487 -162 c0 -2 -13 -9 -30
-15 -35 -12 -41 -5 -7 9 25 10 37 12 37 6z m-70 -30 c0 -2 -7 -7 -16 -10 -8
-3 -12 -2 -9 4 6 10 25 14 25 6z m-70 -31 c0 -10 -205 -103 -217 -98 -26 10 8
41 64 59 32 9 63 21 68 25 18 13 85 24 85 14z m-352 -67 c60 -9 72 -14 72 -29
0 -24 -15 -24 -152 -2 -101 16 -122 26 -100 47 7 8 53 4 180 -16z m274 -84
c40 -21 75 -41 76 -45 2 -5 8 -9 13 -9 10 0 149 -89 149 -96 0 -5 -50 17 -90
41 -19 11 -48 26 -65 33 -52 23 -175 95 -175 104 0 14 17 9 92 -28z m-284 9
l75 -6 -6 -160 c-3 -88 -10 -164 -16 -170 -6 -6 -57 -5 -145 3 -134 13 -136
13 -136 38 0 20 4 23 23 18 68 -17 222 -24 235 -11 14 14 -22 24 -128 37 -85
10 -115 17 -115 28 0 11 22 13 118 11 101 -2 117 0 117 13 0 9 -1 16 -2 16
-110 5 -206 15 -215 22 -27 22 4 29 115 26 72 -2 118 1 120 7 3 11 -118 33
-190 34 -37 1 -48 5 -48 17 0 15 14 16 131 9 105 -6 130 -4 127 6 -7 20 -101
37 -215 39 -27 0 -33 4 -33 21 0 20 3 21 56 15 31 -3 90 -9 132 -13z m-488
-52 c19 -11 49 -32 65 -46 24 -21 12 -17 -62 20 -51 25 -93 49 -93 53 0 19 15
21 34 7 12 -8 37 -24 56 -34z m704 11 c21 -13 73 -42 115 -64 175 -93 199
-106 256 -139 33 -19 83 -43 110 -53 28 -11 66 -30 85 -43 19 -12 38 -23 42
-23 4 0 79 -35 166 -77 l158 -78 -225 -3 c-213 -3 -402 9 -446 28 -11 4 -74
13 -140 19 -66 6 -145 15 -175 19 l-55 7 -3 66 c-2 36 2 92 8 125 5 32 15 102
22 156 12 107 10 105 82 60z m-107 -9 c-3 -10 -5 -4 -5 12 0 17 2 24 5 18 2
-7 2 -21 0 -30z m-791 -38 c3 -6 -1 -25 -7 -41 l-12 -29 -7 30 c-4 17 -11 38
-15 47 -5 13 -2 15 15 11 12 -3 24 -11 26 -18z m220 -46 c62 -33 116 -64 119
-68 6 -11 -55 -40 -94 -45 -20 -2 -45 -18 -70 -44 -30 -31 -56 -46 -107 -61
-38 -11 -70 -19 -72 -16 -15 15 43 250 70 283 17 20 36 15 154 -49z m-516 -3
c17 -2 -61 -46 -83 -46 -14 0 -30 37 -22 50 3 5 65 3 105 -4z m203 -15 c24 -1
27 -5 27 -35 0 -31 -2 -34 -41 -40 -23 -4 -67 -2 -98 4 -31 5 -72 11 -91 12
l-35 3 60 30 c44 22 72 30 105 29 25 -1 57 -3 73 -3z m-219 -116 c-9 -5 -39
-24 -65 -42 -52 -34 -64 -31 -53 14 9 38 20 43 82 40 41 -1 49 -4 36 -12z
m1716 -11 c0 -2 -9 0 -20 6 -11 6 -20 13 -20 16 0 2 9 0 20 -6 11 -6 20 -13
20 -16z m524 -138 c14 -46 26 -89 26 -95 0 -38 -72 38 -90 96 -7 21 -17 45
-23 53 -6 8 -8 12 -3 8 5 -4 18 -1 30 7 11 8 24 15 28 15 4 0 18 -38 32 -84z
m-1241 39 c33 0 47 -4 47 -14 0 -14 -79 -12 -222 5 -97 11 -67 26 35 17 50 -4
113 -8 140 -8z m-638 -30 c-46 -40 -55 -42 -55 -17 0 11 14 25 33 35 54 27 64
18 22 -18z m458 -12 c-7 -2 -21 -2 -30 0 -10 3 -4 5 12 5 17 0 24 -2 18 -5z
m210 -20 c-13 -2 -33 -2 -45 0 -13 2 -3 4 22 4 25 0 35 -2 23 -4z m-118 -32
l80 -8 -117 -2 c-99 -1 -118 1 -118 14 0 12 8 14 38 10 20 -4 73 -10 117 -14z
m328 -28 c-7 -2 -21 -2 -30 0 -10 3 -4 5 12 5 17 0 24 -2 18 -5z m1053 -100
c-10 -10 -19 5 -10 18 6 11 8 11 12 0 2 -7 1 -15 -2 -18z m-31 -32 c3 -12 -6
-40 -23 -73 -29 -53 -55 -69 -86 -51 -12 7 -6 21 34 76 53 71 65 79 75 48z
m70 -31 c21 -41 19 -51 -5 -15 -11 17 -20 33 -20 38 0 15 10 6 25 -23z m38
-100 c3 -11 1 -18 -4 -14 -5 3 -9 12 -9 20 0 20 7 17 13 -6z"/>
</g>
</svg>
