<?xml version="1.0" standalone="no"?>
<!DOCTYPE svg PUBLIC "-//W3C//DTD SVG 20010904//EN"
 "http://www.w3.org/TR/2001/REC-SVG-20010904/DTD/svg10.dtd">
<svg version="1.0" xmlns="http://www.w3.org/2000/svg"
 width="279.000000pt" height="127.000000pt" viewBox="0 0 279.000000 127.000000"
 preserveAspectRatio="xMidYMid meet">
<metadata>
Created by potrace 1.16, written by Peter Selinger 2001-2019
</metadata>
<g transform="translate(0.000000,127.000000) scale(0.100000,-0.100000)"
fill="#000000" stroke="none">
<path d="M819 1185 c-35 -24 -84 -62 -108 -84 -24 -23 -48 -41 -53 -41 -4 0
-17 -9 -29 -21 l-21 -21 -26 25 c-39 36 -104 77 -122 77 -20 0 123 -135 178
-167 77 -46 44 -45 -40 0 -46 25 -102 50 -126 56 -38 11 -41 14 -32 32 6 11 8
24 5 29 -12 20 -41 9 -78 -30 -20 -22 -41 -40 -46 -40 -18 0 -95 -105 -97
-132 -1 -16 -8 -37 -16 -46 -20 -26 -38 -60 -38 -74 0 -7 -18 -33 -39 -56 -48
-53 -77 -110 -63 -124 5 -5 36 -11 68 -13 33 -2 73 -6 89 -10 17 -3 53 -10 80
-15 119 -23 146 -30 165 -40 11 -6 25 -8 31 -5 5 4 42 9 81 11 66 4 116 19
105 31 -3 3 -29 0 -57 -6 -75 -16 -90 -14 -90 10 0 12 4 18 11 13 10 -6 132
-10 378 -15 39 0 49 7 32 24 -8 8 -54 12 -151 12 l-139 0 42 21 c32 17 69 23
162 28 l120 7 30 -58 c17 -32 38 -59 48 -61 23 -5 22 18 -4 67 -24 47 -35 117
-19 135 7 10 5 20 -10 39 -17 21 -22 46 -26 137 -3 61 -11 125 -18 143 -8 18
-17 61 -20 95 -11 96 -18 110 -59 110 -24 0 -54 -13 -98 -43z m106 -83 c3 -41
11 -86 19 -100 14 -29 29 -172 18 -172 -4 1 -38 29 -76 64 -37 35 -94 78 -125
96 l-57 34 45 42 c69 64 154 125 163 116 4 -4 9 -40 13 -80z m-207 -139 c37
-21 93 -61 124 -90 48 -44 54 -53 35 -53 -37 0 -67 12 -67 25 0 7 -10 20 -22
28 -13 9 -45 36 -72 62 -27 25 -55 44 -61 41 -6 -2 -12 2 -12 10 0 19 0 19 75
-23z m-300 -74 c22 -19 75 -52 116 -73 73 -37 124 -76 80 -59 -10 3 -21 9 -24
12 -10 11 -50 31 -63 31 -7 0 -50 18 -95 39 -45 22 -97 43 -116 46 l-34 7 31
44 31 44 16 -28 c10 -16 36 -44 58 -63z m157 21 c132 -64 135 -67 119 -126 -5
-20 -9 -19 -87 25 -45 26 -108 59 -140 75 -56 27 -84 57 -72 76 13 21 60 8
180 -50z m-262 -86 c-5 -14 16 -38 82 -92 l40 -32 -60 25 c-33 14 -79 29 -102
32 -24 3 -43 8 -43 10 0 10 34 69 43 74 16 11 46 -2 40 -17z m70 -11 c18 -9
66 -28 107 -43 69 -24 75 -29 78 -56 1 -16 -2 -35 -7 -43 -9 -15 -18 -9 -144
95 -10 8 -29 20 -42 26 -13 6 -26 17 -29 24 -7 18 -2 18 37 -3z m397 -2 l42
-19 -46 -15 -46 -16 0 35 c0 19 2 34 4 34 2 0 23 -8 46 -19z m172 -38 c33 -30
22 -38 -49 -35 -38 2 -94 -1 -125 -6 -32 -5 -58 -6 -58 -3 0 6 85 41 130 52
46 12 83 9 102 -8z m-587 -86 c131 -53 211 -107 159 -107 -9 0 -14 -6 -11 -13
3 -7 -1 -20 -7 -30 -12 -15 -20 -12 -87 28 -96 58 -191 127 -197 143 -7 22 60
13 143 -21z m278 19 c16 -12 16 -14 1 -20 -26 -10 -34 -7 -34 14 0 23 8 25 33
6z m347 -31 c0 -22 -5 -24 -72 -29 -69 -5 -239 -15 -265 -16 -26 0 -12 -20 15
-21 23 -1 20 -4 -26 -26 -57 -27 -74 -24 -54 8 7 11 10 24 7 29 -9 15 68 50
113 50 13 0 33 6 45 13 20 11 210 27 230 19 4 -2 7 -14 7 -27z m-662 -105 c3
-7 -176 34 -183 42 -3 2 7 20 21 40 l26 37 67 -56 c36 -31 67 -59 69 -63z"/>
<path d="M1805 918 c-3 -13 1 -43 10 -67 8 -24 15 -57 15 -73 0 -43 24 -92 54
-111 15 -10 25 -21 22 -25 -2 -4 -37 -5 -77 -2 l-73 5 -16 65 c-9 36 -25 85
-34 110 -10 25 -18 53 -18 62 1 28 -16 31 -32 6 -14 -22 -13 -29 11 -88 14
-36 28 -85 31 -110 l4 -46 -40 4 -40 4 -22 81 c-12 45 -25 86 -28 92 -4 5 -5
23 -3 38 2 23 -1 28 -16 25 -31 -6 -27 -72 13 -210 4 -13 0 -18 -15 -18 -14 0
-21 6 -21 19 0 11 -4 22 -9 25 -5 3 -12 23 -16 43 -7 45 -69 143 -89 143 -25
0 -25 -26 1 -71 25 -44 53 -115 53 -134 0 -7 -27 -8 -82 -3 -46 5 -108 10
-138 12 -50 3 -55 5 -55 27 0 30 -31 28 -58 -3 -29 -34 -21 -248 10 -248 10 0
13 -5 8 -17 -10 -27 -26 -154 -19 -164 7 -12 41 -11 66 2 28 15 34 4 14 -25
-20 -31 -21 -60 -1 -76 18 -15 35 -5 35 23 0 41 41 77 103 92 31 7 59 10 62 6
2 -4 -18 -34 -46 -67 -27 -32 -48 -66 -47 -74 6 -30 33 -14 69 40 55 83 97
118 148 126 l45 7 -46 -59 c-57 -72 -72 -108 -58 -135 6 -10 17 -19 24 -19 19
0 37 25 31 41 -6 16 60 122 93 152 22 20 86 46 115 47 15 0 8 -12 -27 -51 -52
-58 -110 -159 -98 -171 14 -14 38 1 51 29 45 99 157 213 208 213 24 0 22 -3
-25 -60 -56 -67 -107 -150 -118 -193 -6 -26 -4 -28 16 -25 13 1 26 10 30 18
40 89 146 242 179 259 25 13 116 22 281 27 l154 4 -34 -36 c-19 -19 -65 -52
-102 -72 -73 -40 -87 -62 -38 -62 39 0 106 -34 120 -60 11 -20 35 -25 64 -14
13 5 15 14 10 40 -5 27 -1 39 19 64 14 16 28 43 32 60 4 16 10 30 13 30 9 -1
52 -86 52 -103 0 -22 37 -50 56 -43 15 6 15 8 -1 33 -10 14 -23 47 -31 72 -7
25 -18 60 -25 77 -11 28 -10 33 17 63 16 18 31 39 34 46 9 22 109 123 129 130
21 6 35 31 21 40 -19 12 -67 -20 -148 -96 -46 -44 -86 -78 -89 -75 -3 2 -6 76
-9 163 -2 87 -4 161 -4 166 0 15 -23 5 -87 -38 -36 -25 -71 -45 -77 -45 -18 0
-57 -40 -50 -51 3 -5 14 -7 25 -4 14 5 22 0 29 -21 6 -15 8 -30 4 -33 -10 -10
-364 -14 -364 -3 0 5 -18 27 -40 50 -26 28 -41 55 -45 79 -3 21 -11 58 -18 83
-12 48 -14 55 -16 70 -2 19 -31 10 -36 -12z m635 -198 c0 -75 -7 -83 -46 -55
-12 8 -23 12 -26 10 -3 -3 -5 1 -5 8 0 6 -3 23 -7 37 -5 21 -1 29 26 47 53 35
58 31 58 -47z m-1061 -85 c112 -17 121 -20 121 -39 0 -9 -19 -16 -52 -19 -29
-4 -66 -9 -83 -12 -16 -2 -57 -8 -90 -11 -33 -4 -65 -11 -72 -16 -8 -6 -11 7
-10 51 2 65 9 72 57 65 14 -2 72 -11 129 -19z m1071 -22 c0 -20 -3 -24 -11
-16 -7 7 -9 19 -6 27 10 24 17 19 17 -11z m-55 -25 c13 -26 44 -113 45 -125 0
-8 -109 -2 -112 6 -5 14 -73 16 -178 6 -136 -12 -144 -13 -485 -14 -170 -1
-337 -6 -370 -11 -50 -7 -62 -5 -72 8 -17 21 1 42 36 42 14 1 53 8 86 16 92
24 218 41 344 48 63 4 117 8 120 10 3 2 56 7 116 10 311 19 409 26 413 31 15
15 42 1 57 -27z m-800 12 c-3 -5 -17 -10 -31 -10 -14 0 -22 4 -19 10 3 6 17
10 31 10 14 0 22 -4 19 -10z m82 4 c-3 -3 -12 -4 -19 -1 -8 3 -5 6 6 6 11 1
17 -2 13 -5z m601 -160 c-4 -3 -60 -7 -125 -10 -121 -4 -284 -13 -338 -18 -74
-8 -295 -37 -346 -46 -56 -10 -134 -12 -111 -3 6 2 12 9 12 14 0 16 -36 10
-61 -10 -13 -10 -43 -21 -67 -23 l-42 -5 0 38 c0 36 2 39 28 40 15 1 153 3
307 5 154 3 323 8 375 13 112 10 376 14 368 5z m137 -101 c-31 -66 -57 -88
-84 -73 -21 11 -29 30 -12 30 5 0 33 20 62 45 29 25 54 45 55 45 1 0 -8 -21
-21 -47z"/>
<path d="M340 485 c-9 -11 -11 -35 -7 -81 4 -36 1 -88 -5 -117 -23 -111 -7
-132 60 -80 99 76 155 100 312 136 86 20 263 39 332 36 81 -4 97 12 54 54 -23
23 -33 25 -122 26 -54 1 -100 4 -103 6 -2 3 32 5 77 5 45 0 82 4 82 9 0 13
-113 23 -195 17 -38 -2 -117 -8 -175 -12 -58 -3 -115 -11 -128 -15 -13 -5 -50
-9 -83 -9 -52 0 -59 2 -59 20 0 24 -22 26 -40 5z m440 -19 c0 -9 -30 -14 -35
-6 -4 6 3 10 14 10 12 0 21 -2 21 -4z m70 -5 c0 -6 -10 -8 -21 -6 -33 6 -36
15 -6 15 15 0 27 -4 27 -9z m-106 -42 c119 0 149 -8 57 -15 -111 -9 -310 -71
-384 -120 -37 -24 -39 -25 -32 -4 4 11 6 47 6 80 0 69 -7 66 133 62 56 -2 154
-3 220 -3z"/>
</g>
</svg>
