<?xml version="1.0" standalone="no"?>
<!DOCTYPE svg PUBLIC "-//W3C//DTD SVG 20010904//EN"
 "http://www.w3.org/TR/2001/REC-SVG-20010904/DTD/svg10.dtd">
<svg version="1.0" xmlns="http://www.w3.org/2000/svg"
 width="147.000000pt" height="93.000000pt" viewBox="0 0 147.000000 93.000000"
 preserveAspectRatio="xMidYMid meet">
<metadata>
Created by potrace 1.16, written by Peter Selinger 2001-2019
</metadata>
<g transform="translate(0.000000,93.000000) scale(0.100000,-0.100000)"
fill="#000000" stroke="none">
<path d="M563 742 c-39 -31 -82 -64 -94 -73 -17 -11 -21 -21 -16 -40 7 -24 38
-42 122 -70 103 -35 339 -192 379 -253 9 -15 28 -32 42 -38 14 -6 45 -40 69
-74 25 -34 52 -70 61 -78 19 -19 44 -21 44 -3 0 20 -69 114 -133 181 -48 51
-121 147 -162 215 -5 9 -38 49 -72 89 -35 40 -66 84 -69 97 -3 14 -10 22 -15
19 -5 -3 -9 10 -9 28 0 77 -50 77 -147 0z m122 -64 c29 -36 126 -159 165 -209
21 -28 13 -24 -51 23 -41 31 -111 74 -156 97 -80 40 -108 61 -81 61 8 0 29 13
48 30 19 16 38 29 42 30 3 0 18 -15 33 -32z"/>
<path d="M327 731 c-22 -8 -177 -142 -177 -153 0 -4 15 -16 34 -25 222 -115
356 -213 499 -365 51 -54 97 -98 103 -98 6 0 17 -7 24 -15 15 -18 50 -20 50
-2 0 6 -45 59 -101 117 -55 58 -112 124 -126 148 -14 23 -30 42 -36 42 -6 0
-7 3 -4 6 8 9 -11 44 -24 44 -19 0 -104 112 -93 123 3 2 -9 19 -26 36 -24 23
-30 36 -25 52 6 18 4 21 -9 16 -10 -4 -14 -3 -11 2 3 5 -9 25 -27 44 -23 25
-38 33 -51 28z m43 -94 c0 -19 83 -149 132 -208 28 -35 40 -53 24 -39 -15 14
-86 61 -158 105 -72 44 -131 85 -131 90 -1 5 23 29 52 53 50 40 54 42 67 25 7
-10 14 -22 14 -26z"/>
</g>
</svg>
