<?xml version="1.0" standalone="no"?>
<!DOCTYPE svg PUBLIC "-//W3C//DTD SVG 20010904//EN"
 "http://www.w3.org/TR/2001/REC-SVG-20010904/DTD/svg10.dtd">
<svg version="1.0" xmlns="http://www.w3.org/2000/svg"
 width="250.000000pt" height="168.000000pt" viewBox="0 0 250.000000 168.000000"
 preserveAspectRatio="xMidYMid meet">
<metadata>
Created by potrace 1.16, written by Peter Selinger 2001-2019
</metadata>
<g transform="translate(0.000000,168.000000) scale(0.100000,-0.100000)"
fill="#000000" stroke="none">
<path d="M998 1459 c0 -24 -1 -51 0 -59 0 -8 -14 -26 -32 -40 -19 -14 -94 -74
-169 -133 -74 -60 -150 -116 -168 -125 -42 -21 -49 -49 -17 -61 16 -7 -9 -10
-88 -10 -124 -1 -196 15 -242 54 -17 14 -35 25 -40 25 -17 0 -25 -64 -19 -148
3 -42 1 -99 -5 -125 -7 -35 -7 -52 2 -62 15 -18 37 -4 118 74 30 28 72 61 95
73 23 11 54 29 68 39 17 12 52 21 95 24 64 5 71 4 95 -19 15 -14 29 -31 31
-38 4 -10 8 -10 22 1 12 10 15 22 11 41 -6 28 9 108 26 146 6 11 9 24 8 30 -4
23 5 33 69 82 37 28 82 64 101 79 l34 28 -6 -48 c-13 -96 19 -105 91 -25 23
26 66 54 121 80 47 22 93 46 101 53 12 10 34 11 105 4 128 -14 767 -3 776 13
5 7 6 14 4 16 -2 3 -71 3 -152 2 -463 -8 -712 6 -919 51 -118 26 -114 27 -116
-22z m232 -37 c23 -9 20 -12 -52 -45 -43 -20 -94 -48 -115 -64 l-36 -28 6 49
c4 27 7 62 7 79 l0 30 83 -6 c45 -3 93 -10 107 -15z m-493 -316 c-3 -8 -9 -31
-13 -50 -7 -41 -10 -42 -36 -19 -24 22 -23 30 10 58 31 28 47 32 39 11z m-397
-102 c19 -7 47 -13 63 -14 15 0 27 -4 27 -10 0 -5 -4 -10 -9 -10 -5 0 -38 -23
-73 -51 l-63 -51 -11 69 c-12 78 -9 97 15 87 9 -4 32 -13 51 -20z"/>
<path d="M1402 1153 c-19 -14 -32 -14 -92 -4 -38 6 -75 11 -83 11 -24 0 -40
-55 -33 -108 21 -154 26 -200 22 -222 -6 -33 -19 -221 -17 -240 1 -8 3 -48 4
-87 2 -40 8 -78 14 -84 14 -14 44 1 66 35 25 38 106 89 157 99 25 5 146 11
269 13 133 3 231 9 243 15 20 11 20 12 -6 33 -26 21 -26 22 -15 81 6 33 12 87
13 120 1 33 6 73 11 90 12 42 109 170 145 192 32 18 37 28 20 38 -15 9 -261 9
-283 0 -9 -4 -50 -4 -90 -1 -39 4 -121 9 -182 12 -60 3 -114 10 -119 15 -13
12 -17 11 -44 -8z m-54 -48 c2 -2 -9 -23 -26 -47 -16 -24 -37 -58 -47 -77
l-17 -35 -13 40 c-7 21 -15 61 -18 87 l-5 49 62 -7 c33 -4 63 -9 64 -10z m375
-17 c79 -12 140 -14 174 -3 19 6 23 2 28 -29 4 -20 4 -51 1 -69 -4 -17 -11
-72 -15 -122 -5 -49 -14 -116 -21 -149 -6 -32 -9 -69 -6 -82 l6 -24 -102 -2
c-124 -1 -128 -1 -298 7 -74 3 -160 9 -190 13 l-55 7 3 85 c2 47 5 101 8 120
9 54 72 169 123 224 l46 48 113 -6 c62 -3 145 -11 185 -18z m279 -41 l-27 -41
-5 40 c-6 44 1 53 35 46 l24 -4 -27 -41z m-634 -462 c4 -4 -105 -85 -113 -85
-3 0 -5 22 -5 49 l0 50 58 -6 c31 -3 58 -7 60 -8z"/>
<path d="M219 743 c-15 -3 -16 -22 -15 -148 1 -79 5 -147 8 -151 14 -13 54 6
103 51 58 53 118 83 180 92 25 3 50 12 56 19 6 8 25 14 42 14 30 0 30 0 11
-18 -10 -9 -41 -34 -67 -55 -43 -35 -63 -77 -37 -77 6 0 10 3 10 8 0 4 14 15
31 25 28 15 34 16 48 3 9 -7 32 -17 51 -21 19 -4 49 -13 65 -20 17 -8 62 -27
101 -43 39 -16 87 -42 107 -57 31 -25 35 -34 35 -72 0 -39 18 -195 28 -251 6
-31 21 -28 43 9 10 17 43 61 72 99 48 61 64 74 134 106 l80 37 200 -1 c110 0
284 -5 387 -12 213 -12 248 -8 236 27 -2 4 -68 8 -148 10 -80 1 -164 5 -187 8
-22 3 -119 6 -215 6 -271 0 -465 24 -564 71 -43 20 -48 20 -58 6 -9 -15 -15
-13 -56 17 -26 19 -58 39 -72 44 -23 9 -26 16 -33 93 -5 45 -8 107 -8 136 1
45 -1 52 -18 52 -10 0 -31 -14 -46 -32 -62 -70 -49 -66 -164 -52 -57 7 -140
13 -185 14 -84 0 -110 10 -116 44 -3 21 -14 26 -39 19z m171 -109 c36 -4 58
-9 50 -12 -34 -9 -78 -33 -125 -66 -27 -20 -52 -32 -55 -28 -4 4 -4 33 -2 65
l4 59 31 -6 c18 -3 61 -8 97 -12z m359 -34 c6 -28 11 -64 11 -79 l0 -29 -52
19 c-29 10 -66 21 -83 24 l-30 7 34 26 c19 15 48 39 65 55 17 15 34 27 37 27
4 0 12 -23 18 -50z m336 -269 c28 -6 72 -13 98 -17 l49 -7 -53 -29 c-61 -33
-99 -66 -139 -120 -26 -36 -28 -37 -34 -15 -3 12 -9 69 -13 126 l-6 104 24
-16 c13 -8 47 -20 74 -26z"/>
</g>
</svg>
