<?xml version="1.0" standalone="no"?>
<!DOCTYPE svg PUBLIC "-//W3C//DTD SVG 20010904//EN"
 "http://www.w3.org/TR/2001/REC-SVG-20010904/DTD/svg10.dtd">
<svg version="1.0" xmlns="http://www.w3.org/2000/svg"
 width="163.000000pt" height="165.000000pt" viewBox="0 0 163.000000 165.000000"
 preserveAspectRatio="xMidYMid meet">
<metadata>
Created by potrace 1.16, written by Peter Selinger 2001-2019
</metadata>
<g transform="translate(0.000000,165.000000) scale(0.100000,-0.100000)"
fill="#000000" stroke="none">
<path d="M358 1547 c-25 -23 -67 -58 -92 -77 -24 -19 -45 -38 -45 -41 -1 -6
31 -40 234 -249 72 -75 72 -76 69 -122 -3 -26 -1 -49 4 -52 5 -3 26 1 48 9 21
8 54 14 72 15 18 0 31 4 28 9 -5 8 43 19 184 40 30 5 73 13 95 20 38 10 216
33 221 28 1 -1 -9 -36 -22 -78 l-25 -76 -122 -8 c-67 -5 -150 -9 -185 -11 -87
-3 -234 -25 -250 -37 -19 -15 12 -31 35 -19 21 11 122 22 238 26 44 2 119 7
167 11 107 10 110 6 75 -97 -14 -40 -28 -90 -31 -110 -4 -23 -13 -39 -24 -42
-26 -7 -159 -15 -362 -21 -182 -6 -260 -17 -260 -35 0 -9 69 -8 195 4 27 3
126 8 220 12 93 3 173 8 177 10 11 7 36 -7 34 -19 -8 -36 -19 -67 -25 -67 -3
0 -44 -2 -91 -5 -47 -2 -159 -6 -250 -9 -174 -5 -280 -22 -288 -45 -4 -10 2
-12 22 -7 60 15 190 27 346 32 91 3 170 7 177 9 13 4 73 -14 73 -22 0 -14 -56
-164 -81 -217 -29 -61 -27 -81 7 -74 12 2 23 21 34 58 22 71 163 356 223 448
26 40 47 74 47 76 0 8 104 184 148 250 25 37 54 73 64 80 10 6 18 14 18 19 0
10 -239 7 -345 -4 -98 -11 -426 -14 -486 -4 -79 12 -106 30 -122 83 -8 26 -24
71 -35 99 -11 29 -18 62 -15 73 3 11 1 20 -5 20 -18 0 -30 88 -17 133 11 41
-21 35 -77 -16z m62 -188 c0 -10 11 -37 25 -60 14 -24 25 -53 25 -64 0 -15
-12 -7 -51 35 -27 30 -68 74 -90 98 -22 24 -39 50 -37 59 2 10 21 29 43 44
l40 27 22 -61 c13 -34 23 -69 23 -78z m295 -238 l120 -6 -60 -13 c-33 -7 -90
-22 -127 -33 -36 -10 -71 -19 -77 -19 -6 0 -11 19 -11 46 0 40 2 45 18 38 9
-4 71 -10 137 -13z m625 -64 c-56 -86 -130 -207 -130 -214 0 -2 -15 -28 -33
-56 -19 -29 -49 -76 -67 -104 -18 -29 -35 -51 -37 -49 -4 4 33 174 52 236 64
208 80 256 86 260 4 3 45 4 92 2 l84 -3 -47 -72z"/>
<path d="M477 798 c-23 -14 5 -20 115 -25 134 -6 121 -6 183 2 67 7 232 8 244
1 14 -9 41 4 41 21 0 12 -42 14 -286 11 -157 -2 -291 -6 -297 -10z"/>
<path d="M845 423 c-383 -22 -492 -30 -506 -39 -16 -10 2 -25 23 -19 31 10 88
14 323 20 228 7 250 9 241 24 -8 12 -34 16 -81 14z"/>
</g>
</svg>
