<?xml version="1.0" standalone="no"?>
<!DOCTYPE svg PUBLIC "-//W3C//DTD SVG 20010904//EN"
 "http://www.w3.org/TR/2001/REC-SVG-20010904/DTD/svg10.dtd">
<svg version="1.0" xmlns="http://www.w3.org/2000/svg"
 width="279.000000pt" height="183.000000pt" viewBox="0 0 279.000000 183.000000"
 preserveAspectRatio="xMidYMid meet">
<metadata>
Created by potrace 1.16, written by Peter Selinger 2001-2019
</metadata>
<g transform="translate(0.000000,183.000000) scale(0.100000,-0.100000)"
fill="#000000" stroke="none">
<path d="M1171 1633 c-23 -31 -41 -62 -41 -69 0 -6 -8 -15 -17 -19 -10 -4
-135 -8 -278 -10 -302 -4 -554 10 -571 31 -16 20 -27 18 -52 -9 -24 -25 -56
-173 -48 -218 3 -13 5 -30 5 -38 1 -9 9 -11 24 -8 12 3 80 19 150 36 71 17
146 31 167 31 22 0 45 7 54 16 9 8 16 11 16 6 0 -10 51 -7 100 5 14 3 34 7 45
9 91 12 268 37 303 41 23 3 42 2 42 -3 0 -5 -31 -70 -69 -144 l-68 -135 -350
0 c-327 0 -351 1 -368 19 -18 18 -19 18 -32 0 -7 -10 -10 -27 -6 -38 3 -12 6
-61 5 -109 -2 -71 1 -89 13 -94 9 -3 23 1 33 9 24 20 82 35 187 48 201 24 261
33 290 40 17 5 59 12 94 15 l64 7 -24 -42 c-13 -23 -32 -46 -41 -51 -18 -10
-24 -35 -10 -41 11 -4 72 -106 72 -120 0 -8 -41 -9 -152 -3 -84 5 -216 9 -293
10 -77 1 -151 4 -165 6 -30 5 -37 -19 -39 -125 l-1 -68 28 7 c75 18 195 34
372 49 107 9 223 19 258 22 l62 6 19 -43 c10 -24 26 -65 35 -91 10 -27 24 -48
31 -48 8 0 19 -8 24 -19 9 -16 6 -19 -27 -24 -20 -3 -82 -4 -137 -1 -55 2
-216 7 -357 11 -206 5 -258 9 -258 20 0 21 -38 15 -45 -8 -8 -23 -9 -189 -2
-196 3 -2 31 0 63 6 33 6 93 13 134 16 41 4 186 17 322 31 292 28 398 31 398
10 0 -25 21 -29 43 -8 23 21 45 24 287 37 58 4 123 8 145 10 223 21 410 22
559 3 80 -10 90 -9 101 5 27 37 35 18 35 -82 0 -74 4 -102 15 -111 22 -18 35
-3 35 40 0 21 4 41 8 44 5 3 12 50 15 104 7 100 33 345 43 392 2 14 9 48 14
75 5 28 22 106 38 175 17 69 33 143 37 165 4 22 24 95 46 163 33 99 46 126 70
144 32 24 38 45 13 50 -9 2 -53 0 -98 -3 -45 -3 -92 -1 -106 4 -25 9 -167 4
-415 -13 -216 -16 -436 -15 -446 1 -9 15 -3 52 13 86 6 13 8 26 5 29 -4 4 -43
-9 -88 -29 -93 -43 -98 -43 -130 -19 -27 20 -124 62 -145 62 -7 0 -31 -25 -53
-57z m112 -16 l48 -22 -21 -22 c-17 -19 -31 -23 -80 -23 -33 0 -60 3 -60 6 0
18 47 85 59 83 3 0 28 -10 54 -22z m243 -13 c-3 -9 -6 -24 -6 -34 0 -13 -10
-19 -37 -22 -86 -10 -97 17 -20 49 65 26 71 27 63 7z m-1135 -91 c68 -4 256
-7 417 -6 160 1 292 -2 292 -6 0 -17 -26 -29 -75 -36 -27 -3 -111 -15 -185
-25 -74 -10 -180 -24 -234 -30 -55 -7 -156 -23 -225 -36 -180 -35 -167 -39
-161 54 7 83 15 106 35 98 7 -2 69 -8 136 -13z m1937 0 c8 -12 10 -339 2 -346
-3 -3 -177 -7 -387 -9 l-381 -4 -16 33 c-20 42 -20 63 -2 63 12 0 15 18 16 88
0 48 1 103 3 122 l2 35 130 8 c72 4 164 11 205 16 110 13 419 9 428 -6z m228
0 c-41 -129 -87 -295 -101 -358 -9 -44 -25 -109 -35 -145 -25 -91 -38 -153
-51 -240 -6 -41 -13 -82 -14 -90 -2 -8 -4 -27 -4 -42 -1 -16 -6 -28 -12 -28
-8 0 -10 17 -5 58 4 31 9 93 12 137 7 132 25 279 36 292 5 7 7 20 4 31 -9 26
-10 377 -2 391 4 7 40 11 92 11 77 0 85 -2 80 -17z m-1316 -5 c0 -11 -13 -16
-54 -19 -24 -2 -41 1 -43 8 -3 7 9 13 29 15 53 5 68 4 68 -4z m130 2 c0 -6
-19 -10 -42 -10 -24 0 -38 4 -31 8 18 11 73 12 73 2z m157 -135 c-1 -63 -3
-115 -4 -115 -1 0 -9 21 -19 48 -10 26 -23 54 -29 62 -16 20 -45 107 -37 114
3 3 24 6 48 6 l42 0 -1 -115z m-125 78 c6 -16 24 -56 39 -90 16 -34 29 -66 29
-71 0 -5 6 -22 14 -38 8 -16 17 -47 21 -69 l6 -40 -253 3 c-139 1 -259 5 -266
7 -18 7 53 98 180 233 73 78 73 77 206 91 7 0 17 -11 24 -26z m-228 -15 c-16
-27 -117 -138 -125 -138 -5 0 2 21 16 47 14 27 25 52 25 57 0 5 7 18 17 28 19
21 79 26 67 6z m-276 -323 c19 -19 -50 -35 -265 -64 -131 -18 -274 -38 -317
-46 -44 -8 -82 -13 -84 -10 -3 3 -6 33 -6 67 l-1 63 333 -2 c184 -1 337 -5
340 -8z m161 6 c8 -6 -6 -11 -44 -16 -59 -7 -72 -4 -60 14 7 13 84 14 104 2z
m1258 -4 c7 -7 -8 -283 -16 -296 -8 -13 -539 -25 -648 -15 l-73 6 32 40 c17
22 53 56 80 76 70 53 66 71 -27 115 -57 27 -75 41 -75 56 0 18 8 21 88 24 112
5 632 0 639 -6z m-783 -45 c-4 -20 -20 -58 -36 -86 -16 -27 -45 -80 -64 -118
l-34 -68 -158 -1 c-86 0 -184 -3 -216 -6 l-59 -5 7 103 c3 56 10 107 16 114 5
6 5 17 0 25 -8 12 -16 11 -59 -7 -57 -24 -62 -20 -27 18 26 29 15 26 276 49
206 18 334 26 348 22 9 -3 10 -15 6 -40z m68 -177 l-67 -84 -48 -1 -48 0 36
69 c20 39 50 88 66 110 l29 41 50 -25 49 -25 -67 -85z m-665 71 c-3 -7 -9 -50
-13 -95 l-7 -81 -38 66 c-22 36 -39 70 -39 76 0 8 75 47 94 48 4 0 6 -6 3 -14z
m-169 -200 c71 -2 118 -9 128 -17 20 -16 0 -30 -41 -28 -50 3 -499 -33 -577
-46 -27 -4 -28 -3 -28 44 0 26 2 50 5 53 6 5 282 2 513 -6z m606 5 c8 -13 -47
-20 -194 -26 -69 -3 -139 -8 -156 -11 -23 -4 -33 -1 -37 10 -3 8 -3 17 1 20 4
2 81 4 171 5 90 0 167 3 169 6 9 8 40 6 46 -4z m125 5 c-12 -10 -79 -16 -79
-6 0 5 19 10 42 10 23 0 39 -2 37 -4z m745 -25 l50 -6 0 -135 1 -135 -70 -7
c-72 -7 -470 -9 -585 -3 -36 2 -131 4 -212 4 -101 1 -148 5 -148 12 0 6 57 68
128 137 l127 127 105 6 c140 7 542 8 604 0z m-795 -48 c-18 -21 -50 -51 -72
-67 l-39 -29 32 61 c34 65 39 70 84 71 l28 1 -33 -37z m-99 9 c0 -16 -115
-205 -134 -221 -6 -5 -33 -11 -61 -13 -49 -3 -49 -3 -75 43 -14 25 -38 66 -53
92 -32 52 -33 89 -2 93 11 2 61 4 110 5 50 1 113 5 140 8 72 9 75 9 75 -7z
m-720 -257 c102 -3 244 -8 315 -10 72 -3 154 -5 184 -5 48 1 53 -1 41 -14 -9
-12 -33 -16 -94 -16 -44 0 -124 -5 -176 -10 -52 -6 -165 -14 -250 -20 -85 -6
-208 -17 -274 -26 -65 -8 -120 -14 -121 -12 -4 4 -8 59 -7 90 2 26 5 27 60 31
31 2 75 3 97 0 22 -2 123 -5 225 -8z m820 -19 c152 -1 115 -12 -68 -19 -118
-5 -152 -3 -149 6 5 15 54 26 85 19 13 -2 72 -5 132 -6z"/>
</g>
</svg>
