<?xml version="1.0" standalone="no"?>
<!DOCTYPE svg PUBLIC "-//W3C//DTD SVG 20010904//EN"
 "http://www.w3.org/TR/2001/REC-SVG-20010904/DTD/svg10.dtd">
<svg version="1.0" xmlns="http://www.w3.org/2000/svg"
 width="224.000000pt" height="133.000000pt" viewBox="0 0 224.000000 133.000000"
 preserveAspectRatio="xMidYMid meet">
<metadata>
Created by potrace 1.16, written by Peter Selinger 2001-2019
</metadata>
<g transform="translate(0.000000,133.000000) scale(0.100000,-0.100000)"
fill="#000000" stroke="none">
<path d="M943 1273 c-7 -2 -13 -22 -13 -43 0 -37 -6 -44 -106 -134 -64 -57
-134 -109 -177 -132 -40 -20 -76 -43 -80 -51 -9 -15 -167 -9 -281 12 -38 7
-75 11 -82 8 -26 -10 -28 -57 -8 -250 4 -44 2 -54 -17 -72 -21 -20 -22 -23
-10 -77 8 -34 10 -78 6 -115 -5 -41 -3 -64 5 -74 9 -11 9 -31 0 -86 -8 -57 -8
-74 2 -80 20 -13 28 0 28 49 0 88 11 120 51 161 30 29 44 37 64 33 18 -3 25 0
25 11 0 9 9 21 19 27 37 19 44 13 37 -34 -8 -51 4 -65 40 -46 18 10 21 17 14
31 -7 12 -6 22 3 31 7 7 16 21 20 31 4 10 13 17 20 14 8 -3 11 -25 8 -77 -2
-58 0 -71 10 -68 8 3 16 24 19 49 5 43 6 44 40 44 32 0 35 -3 38 -32 4 -39 19
-43 28 -8 3 14 12 25 18 25 24 0 102 -43 147 -80 25 -21 56 -40 70 -42 25 -3
24 1 48 -155 4 -29 11 -56 15 -60 7 -8 29 14 88 89 22 28 43 39 100 57 40 11
86 21 103 21 38 0 246 28 303 40 68 16 187 13 202 -5 16 -19 40 -19 40 -1 0
16 87 26 252 29 53 1 100 5 103 9 4 4 -4 31 -18 60 -14 29 -37 82 -52 118 -15
36 -38 79 -51 97 -13 17 -24 39 -24 48 0 18 -40 149 -72 235 -11 30 -25 82
-30 115 -6 33 -16 80 -23 105 -7 25 -16 64 -20 88 l-7 42 46 0 c24 0 47 4 51
9 11 19 -70 23 -278 14 -117 -6 -314 -10 -438 -9 -200 1 -228 3 -243 19 -10 9
-18 17 -19 16 -1 0 -8 -3 -14 -6z m857 -58 c0 -9 9 -44 21 -78 19 -56 51 -218
44 -225 -7 -8 -124 272 -123 293 2 20 8 25 30 25 18 0 28 -5 28 -15z m-340 -7
c0 -5 -54 -8 -120 -8 -65 0 -141 -4 -167 -9 -26 -6 -69 -12 -95 -15 -26 -3
-56 -10 -67 -15 -29 -16 -31 -14 -31 19 l0 29 148 3 c244 5 332 4 332 -4z
m169 -45 c0 -25 -1 -26 -9 -8 -12 27 -12 35 0 35 6 0 10 -12 9 -27z m91 -28
c0 -5 -9 1 -20 15 -11 14 -20 30 -20 35 0 6 9 -1 20 -15 11 -14 20 -29 20 -35z
m-150 8 c8 -17 25 -43 37 -56 12 -14 19 -28 16 -31 -4 -3 -1 -16 5 -29 14 -29
40 -108 52 -160 l9 -42 -19 25 c-23 30 -160 304 -160 320 0 24 45 4 60 -27z
m-98 10 c8 -10 25 -40 37 -68 41 -93 102 -214 128 -252 40 -59 91 -165 102
-212 5 -23 21 -57 36 -76 14 -19 33 -59 40 -88 8 -28 17 -62 21 -73 4 -16 0
-23 -18 -28 -22 -7 -22 -7 -3 -16 16 -8 14 -9 -13 -7 -41 3 -44 7 -122 205
-33 84 -75 177 -94 206 -19 30 -45 78 -57 108 -22 52 -54 114 -99 193 -24 43
-42 104 -34 117 9 15 61 8 76 -9z m-137 -3 c-4 -6 -29 -22 -56 -35 -27 -14
-49 -31 -49 -38 0 -6 11 -25 25 -42 59 -73 129 -174 152 -220 14 -27 46 -77
71 -110 24 -33 53 -80 63 -104 11 -24 28 -55 38 -70 10 -14 33 -55 51 -90 19
-35 41 -66 51 -68 22 -6 33 -32 16 -38 -6 -2 -57 -6 -112 -10 -55 -4 -116 -9
-135 -10 -44 -5 -222 16 -447 52 -25 4 -33 2 -33 -10 0 -18 78 -47 127 -47 60
0 40 -17 -75 -61 -12 -5 -28 -21 -34 -36 l-11 -28 -9 40 c-10 50 -28 183 -28
210 0 11 1 54 2 95 l3 75 50 26 c28 15 80 43 118 63 63 33 73 36 155 36 83 0
125 10 109 26 -4 4 -31 7 -59 6 -29 -1 -99 4 -155 10 -84 10 -102 15 -106 30
-7 25 -42 23 -67 -4 l-20 -22 0 33 c0 39 53 156 103 230 35 51 39 71 15 71 -6
0 -19 -7 -29 -16 -21 -19 -60 -11 -42 7 35 35 338 81 318 49z m-405 -76 c-3
-71 -3 -111 0 -180 1 -34 -3 -88 -9 -120 -16 -95 -34 -281 -27 -292 7 -12 -4
-72 -13 -72 -3 0 -7 62 -9 137 -3 128 -6 153 -16 142 -2 -2 -6 -68 -9 -147 -2
-79 -8 -146 -11 -149 -4 -4 -14 1 -24 10 -19 19 -18 14 -11 392 3 164 7 195
22 219 10 15 20 26 23 24 2 -3 4 -66 5 -141 0 -78 4 -137 10 -137 5 0 9 10 10
23 0 12 3 54 5 92 3 39 6 104 7 145 3 77 21 130 38 113 6 -6 9 -32 9 -59z
m445 4 c8 -18 31 -60 51 -93 20 -33 49 -91 65 -130 17 -38 40 -86 53 -105 35
-53 76 -137 76 -155 0 -9 6 -26 14 -38 7 -12 16 -35 20 -52 6 -26 5 -28 -5
-10 -7 11 -22 32 -35 47 -12 15 -28 44 -35 65 -7 21 -34 66 -61 101 -26 35
-56 78 -65 95 -20 41 -76 126 -131 201 -44 61 -44 67 0 91 34 19 36 18 53 -17z
m380 -83 c66 -98 119 -201 185 -360 18 -44 41 -98 51 -120 9 -22 22 -56 28
-75 6 -20 21 -45 34 -55 l22 -20 -45 -5 c-25 -3 -63 -3 -86 -2 -39 4 -41 6
-58 55 -28 85 -36 117 -62 232 -13 61 -34 139 -46 175 -23 71 -80 233 -93 265
-12 30 -4 20 70 -90z m-726 38 c2 -1 -9 -24 -25 -50 -16 -26 -33 -57 -38 -68
-8 -17 -10 -13 -17 25 -16 96 10 147 56 111 11 -9 22 -17 24 -18z m-256 -46
c-11 -12 -28 -37 -37 -54 -17 -34 -45 -43 -76 -23 -18 11 -15 14 64 69 62 43
84 47 49 8z m944 -81 c-6 -13 -27 38 -33 79 -4 22 1 17 16 -19 11 -27 19 -54
17 -60z m-941 -116 c-2 -143 -3 -150 -26 -177 -78 -86 -95 -85 -85 5 4 37 10
94 14 127 6 55 9 61 39 77 45 22 47 25 32 42 -9 12 -9 22 1 46 8 16 17 30 20
30 4 0 6 -67 5 -150z m-389 73 l93 -5 -83 -44 c-128 -69 -146 -78 -151 -73 -2
2 -6 35 -10 73 l-6 68 32 -6 c18 -4 75 -9 125 -13z m287 -47 c-4 -17 -15 -83
-24 -146 -10 -74 -21 -115 -28 -114 -7 1 -23 2 -37 3 -24 1 -25 4 -24 51 1 28
-1 53 -5 57 -11 11 -26 -19 -26 -54 0 -17 -3 -38 -6 -47 -7 -19 -45 -21 -62
-4 -23 23 -6 218 21 246 16 16 115 39 165 39 32 0 33 -2 26 -31z m-238 -73
c-20 -202 -21 -205 -61 -179 -20 13 -26 24 -22 42 2 13 0 24 -5 24 -5 0 -6 6
-1 13 4 6 8 21 8 32 2 41 54 125 78 125 5 0 6 -25 3 -57z m629 -12 l20 -2 -20
-11 c-11 -6 -24 -17 -30 -24 -5 -7 -27 -19 -47 -28 -42 -17 -45 -12 -27 39 12
34 14 34 104 26z m-741 -73 c-4 -40 -10 -77 -14 -81 -12 -14 -61 5 -69 26 -14
37 7 93 42 110 18 9 35 16 40 16 4 1 4 -32 1 -71z m-26 -128 c6 0 12 -11 12
-25 0 -18 -10 -31 -32 -45 l-33 -20 -7 41 c-9 50 -3 63 26 55 11 -3 27 -6 34
-6z m453 -48 c8 -38 -1 -40 -55 -12 l-38 19 33 15 c44 19 52 16 60 -22z m-151
23 c0 -2 -13 -11 -30 -20 -18 -9 -30 -11 -30 -5 0 6 10 15 23 20 26 10 37 12
37 5z m299 -151 c3 -16 1 -17 -13 -5 -19 16 -21 34 -3 29 6 -3 14 -13 16 -24z
m369 -71 c-10 -2 -26 -2 -35 0 -10 3 -2 5 17 5 19 0 27 -2 18 -5z"/>
<path d="M850 725 c0 -14 4 -25 9 -25 12 0 19 21 13 38 -8 21 -22 13 -22 -13z"/>
<path d="M546 773 c-6 -45 -2 -63 10 -50 4 3 9 26 11 52 7 60 -12 59 -21 -2z"/>
</g>
</svg>
