<?xml version="1.0" standalone="no"?>
<!DOCTYPE svg PUBLIC "-//W3C//DTD SVG 20010904//EN"
 "http://www.w3.org/TR/2001/REC-SVG-20010904/DTD/svg10.dtd">
<svg version="1.0" xmlns="http://www.w3.org/2000/svg"
 width="127.000000pt" height="146.000000pt" viewBox="0 0 127.000000 146.000000"
 preserveAspectRatio="xMidYMid meet">
<metadata>
Created by potrace 1.16, written by Peter Selinger 2001-2019
</metadata>
<g transform="translate(0.000000,146.000000) scale(0.100000,-0.100000)"
fill="#000000" stroke="none">
<path d="M516 1348 l-28 -10 4 -119 4 -119 -30 0 c-17 0 -49 9 -71 19 -22 10
-53 21 -68 25 -16 4 -48 25 -72 47 -25 23 -52 39 -62 37 -23 -4 -65 -67 -58
-87 6 -22 8 -190 1 -219 -3 -16 2 -27 18 -37 20 -13 24 -27 30 -95 5 -52 3
-92 -5 -120 -10 -32 -10 -43 0 -53 10 -9 15 -8 25 8 18 31 152 157 199 187 38
24 48 26 97 19 57 -7 147 4 166 20 8 6 14 4 18 -8 10 -26 -5 -306 -17 -321
-13 -17 -231 -7 -334 14 -89 19 -108 16 -109 -16 -1 -14 -6 -70 -12 -125 -6
-55 -11 -149 -11 -208 0 -129 8 -138 71 -77 47 46 144 115 180 129 13 4 47 11
76 15 l52 7 -5 -83 c-2 -46 -7 -104 -11 -130 -5 -45 -4 -48 17 -48 13 0 38 17
63 43 61 65 133 109 175 108 63 -1 248 44 272 65 26 23 14 44 -19 34 -15 -5
-57 -11 -94 -14 l-68 -7 0 33 c0 18 7 80 15 138 8 58 19 196 25 306 l9 202 47
73 c26 41 61 91 77 111 34 43 29 62 -16 52 -43 -9 -113 -7 -135 5 -38 20 -43
2 -32 -120 18 -185 13 -347 -20 -629 -17 -138 -22 -170 -29 -174 -3 -2 -26 0
-51 5 -25 6 -54 11 -65 13 -13 2 -22 14 -27 37 -9 36 -2 198 11 264 5 22 7 81
5 130 -5 170 8 237 71 357 30 59 55 112 55 117 0 7 -26 9 -75 4 -51 -4 -75 -2
-75 5 0 22 70 34 158 28 128 -10 352 35 352 70 0 17 -23 18 -105 4 -33 -6
-114 -11 -180 -11 -108 0 -130 3 -214 30 -52 17 -109 42 -127 56 -18 14 -34
25 -36 24 -2 0 -16 -5 -32 -11z m152 -138 c10 0 4 -7 -15 -16 -17 -9 -50 -31
-72 -51 l-41 -35 0 81 0 81 55 -30 c31 -17 63 -30 73 -30z m-438 -85 c7 -8 30
-20 51 -27 22 -6 39 -14 39 -17 0 -3 -13 -15 -28 -25 -15 -11 -42 -31 -59 -44
l-33 -24 0 76 c0 76 7 89 30 61z m417 -17 c-7 -4 -18 -8 -26 -8 -11 0 -10 5 4
20 14 15 20 17 26 8 4 -7 3 -16 -4 -20z m114 -59 c-17 -28 -31 -55 -31 -62 0
-24 -19 10 -34 62 -9 30 -16 56 -16 57 0 7 105 8 109 1 2 -5 -11 -31 -28 -58z
m211 41 c2 7 18 10 35 8 l32 -3 -42 -64 c-38 -58 -42 -62 -48 -40 -4 13 -7 44
-8 68 -1 36 1 42 13 32 10 -9 15 -9 18 -1z m-467 -57 c21 -11 58 -2 70 16 3 6
21 11 40 11 29 0 35 -4 44 -32 5 -18 13 -59 17 -90 l6 -57 -172 5 c-170 5
-208 12 -254 46 -17 13 -15 17 30 55 79 66 152 81 219 46z m-184 -192 l35 -6
-58 -54 c-32 -29 -60 -52 -62 -50 -2 2 -7 37 -11 77 l-7 74 33 -18 c19 -10 50
-20 70 -23z m52 -375 c30 0 32 -19 2 -25 -11 -2 -42 -18 -69 -37 -27 -18 -50
-32 -51 -31 -1 1 1 26 3 54 l4 53 41 -7 c23 -4 54 -7 70 -7z m292 -63 c-4 -38
-9 -71 -11 -74 -3 -6 -216 -20 -284 -19 -19 0 -47 6 -61 12 l-27 12 22 17 c27
21 102 59 116 59 6 0 23 9 39 21 18 13 53 23 97 28 128 15 117 21 109 -56z
m-393 -128 c14 -18 29 -25 54 -25 19 0 34 -4 34 -9 0 -4 -25 -27 -55 -49 l-55
-41 0 58 c0 33 -3 66 -6 75 -9 24 6 19 28 -9z m378 -5 c-8 -5 -22 -9 -30 -9
-10 0 -8 3 5 9 27 12 43 12 25 0z m40 -85 l45 -8 -25 -16 c-14 -9 -41 -30 -60
-47 l-35 -32 3 65 c3 47 7 62 15 55 7 -6 32 -13 57 -17z"/>
</g>
</svg>
