<?xml version="1.0" standalone="no"?>
<!DOCTYPE svg PUBLIC "-//W3C//DTD SVG 20010904//EN"
 "http://www.w3.org/TR/2001/REC-SVG-20010904/DTD/svg10.dtd">
<svg version="1.0" xmlns="http://www.w3.org/2000/svg"
 width="249.000000pt" height="192.000000pt" viewBox="0 0 249.000000 192.000000"
 preserveAspectRatio="xMidYMid meet">
<metadata>
Created by potrace 1.16, written by Peter Selinger 2001-2019
</metadata>
<g transform="translate(0.000000,192.000000) scale(0.100000,-0.100000)"
fill="#000000" stroke="none">
<path d="M1219 1838 c0 -7 -2 -40 -4 -73 -2 -33 -6 -81 -9 -107 -4 -26 -2 -49
3 -52 5 -4 24 3 43 13 18 11 69 29 113 41 44 11 87 23 96 25 10 4 21 -7 32
-30 l16 -34 -37 -7 c-20 -4 -49 -19 -63 -34 -15 -14 -71 -46 -125 -69 -108
-47 -204 -103 -272 -157 -77 -60 -94 -57 -264 53 -36 24 -71 43 -75 43 -5 0
-33 29 -61 65 -41 51 -60 66 -93 75 -49 13 -62 4 -101 -70 -13 -25 -30 -55
-38 -66 -24 -39 -8 -51 77 -57 102 -7 424 -101 406 -118 -5 -4 -53 -36 -108
-72 -55 -36 -110 -73 -123 -82 -42 -30 -16 -27 48 5 l63 32 -38 -46 c-21 -25
-44 -46 -52 -46 -17 0 -109 46 -148 75 -16 12 -46 28 -65 35 -19 8 -56 31 -83
53 -27 22 -53 37 -62 33 -30 -11 -2 -38 96 -92 65 -36 140 -86 136 -91 -3 -2
-38 4 -78 13 -41 9 -110 18 -154 20 -43 3 -81 7 -84 10 -3 3 11 38 32 78 20
40 37 77 37 83 0 18 -41 27 -54 12 -25 -28 -77 -159 -74 -186 l3 -28 125 -6
c126 -7 259 -36 290 -64 8 -7 35 -19 60 -25 78 -21 270 -99 430 -175 86 -41
180 -83 210 -95 30 -12 74 -34 98 -51 23 -16 47 -29 52 -29 5 0 20 -5 34 -11
l25 -12 -38 -31 c-65 -52 -194 -150 -223 -168 -33 -21 -67 -16 -146 19 -29 13
-61 23 -71 23 -23 0 -35 -28 -20 -46 7 -8 10 -53 7 -124 -4 -137 1 -142 82
-80 45 35 192 70 291 70 71 0 208 -12 294 -26 74 -11 80 -10 83 13 2 14 -3 23
-18 28 -20 6 -19 10 23 58 46 56 214 285 233 318 7 12 25 35 41 52 16 18 47
57 68 87 55 79 118 150 133 150 6 0 12 6 12 13 0 15 -37 57 -50 57 -11 0 -140
255 -140 277 0 8 -15 49 -34 91 -18 43 -37 93 -41 112 -4 19 -12 41 -16 50
-25 41 -58 155 -49 164 33 33 -2 42 -185 51 -55 2 -127 9 -160 14 -33 6 -100
15 -149 20 -48 6 -94 15 -102 22 -7 6 -18 8 -23 5 -5 -4 -12 -2 -16 4 -9 14
-45 12 -46 -2z m203 -77 c47 -3 89 -8 92 -11 3 -3 -43 -18 -102 -33 -59 -15
-117 -30 -129 -33 -19 -5 -22 -3 -19 22 2 16 4 41 5 56 1 26 2 26 34 16 17 -6
71 -14 119 -17z m372 -91 c21 -56 106 -230 122 -250 6 -8 26 -44 43 -80 18
-36 39 -78 48 -95 8 -16 42 -83 75 -147 l60 -117 -165 -163 c-90 -90 -215
-210 -278 -268 -63 -58 -139 -131 -170 -163 -51 -52 -60 -57 -85 -51 -16 4
-32 9 -36 11 -18 10 39 89 144 205 62 67 129 141 148 163 19 22 78 81 130 132
l95 92 -17 31 c-10 17 -18 40 -18 50 0 10 -7 31 -14 47 -25 48 -85 187 -92
213 -3 14 -33 79 -67 145 -78 157 -122 276 -105 287 7 4 47 7 89 6 l76 -3 17
-45z m70 15 c4 -19 16 -54 26 -77 11 -24 20 -50 20 -58 0 -19 -46 61 -71 123
-18 46 -18 47 0 47 14 0 21 -10 25 -35z m-274 -62 c12 -43 31 -95 42 -116 10
-21 23 -50 28 -65 10 -25 9 -26 -5 -7 -8 10 -38 64 -66 120 -28 55 -55 104
-60 110 -15 15 -10 33 9 38 9 2 20 2 23 1 3 -2 16 -38 29 -81z m-26 -109 c36
-71 43 -89 28 -80 -5 3 -22 7 -38 10 -16 3 -34 12 -40 21 -26 35 -59 1 -68
-70 -23 -187 -42 -289 -55 -293 -10 -3 -12 2 -8 19 17 66 38 214 40 280 1 41
6 80 10 87 5 7 7 24 5 39 -2 22 4 30 37 48 22 12 43 19 46 16 4 -3 23 -38 43
-77z m-989 -46 c8 -15 23 -32 32 -38 17 -11 17 -11 0 -6 -9 3 -47 8 -82 12
-36 4 -68 11 -71 15 -3 5 0 9 5 9 6 0 11 5 11 11 0 7 10 27 21 46 l22 35 24
-29 c13 -15 30 -40 38 -55z m814 -60 c-4 -62 -16 -166 -28 -231 -11 -66 -21
-121 -21 -123 0 -2 -12 2 -26 8 -26 12 -26 14 -19 83 3 38 15 128 26 199 10
70 19 134 19 141 0 10 32 32 50 34 3 1 2 -50 -1 -111z m-94 20 c-9 -61 -12
-81 -25 -193 -14 -117 -19 -131 -42 -113 -14 12 -14 23 -1 118 26 188 37 229
66 230 5 0 5 -19 2 -42z m-74 -1 c-6 -8 -17 -71 -25 -141 -7 -70 -15 -129 -18
-131 -2 -2 -9 0 -17 4 -10 7 -10 26 0 105 13 98 11 113 -15 103 -10 -4 -16
-29 -21 -80 -8 -88 -15 -102 -37 -84 -14 10 -15 20 -7 66 6 29 7 56 4 60 -12
11 -45 -40 -45 -70 0 -32 -2 -34 -28 -18 -35 22 -15 57 66 112 114 78 171 107
143 74z m363 -57 c32 -31 19 -169 -22 -227 -25 -35 -70 -49 -91 -28 -12 12
-12 32 3 141 9 70 19 130 21 135 6 8 75 -8 89 -21z m111 -106 c15 -25 24 -49
20 -52 -4 -4 -10 -1 -12 6 -7 20 -39 14 -52 -10 -9 -18 -10 -18 -5 -3 3 11 9
39 11 63 3 23 7 42 8 42 2 0 15 -21 30 -46z m-756 -28 c16 -19 3 -138 -26
-229 -8 -26 -12 -55 -9 -63 4 -10 -18 -2 -64 22 -78 41 -87 55 -75 130 5 33
15 53 38 75 18 15 35 29 38 29 4 0 3 -19 -1 -42 -5 -24 -10 -72 -12 -108 -2
-52 0 -65 12 -65 16 0 26 49 34 168 3 51 9 72 22 82 24 18 29 18 43 1z m87
-135 c-4 -42 -13 -102 -20 -133 -14 -59 -8 -80 18 -59 12 10 28 83 44 198 5
40 10 50 20 44 11 -7 12 -22 2 -87 -10 -65 -37 -180 -45 -192 -2 -2 -28 9 -58
24 -49 24 -54 29 -39 40 12 9 14 16 6 24 -8 8 -6 32 7 88 10 42 21 94 24 115
5 34 8 36 27 26 19 -10 20 -17 14 -88z m610 34 c-4 -19 -12 -48 -19 -64 -11
-26 -14 -28 -30 -16 -17 12 -16 16 15 64 18 27 35 50 37 50 2 1 0 -15 -3 -34z
m78 -4 c29 -32 31 -90 4 -140 -23 -44 -51 -71 -63 -59 -3 3 -1 39 5 79 22 154
23 155 54 120z m-547 -95 c-4 -60 -22 -141 -42 -193 -2 -7 -11 -10 -20 -7 -19
8 -19 49 -1 100 7 22 16 66 21 98 9 75 13 86 32 79 12 -5 14 -19 10 -77z
m-447 24 c0 -11 -7 -20 -15 -20 -18 0 -19 12 -3 28 16 16 18 15 18 -8z m523
-54 c-5 -48 -37 -194 -45 -202 -2 -2 -14 -1 -25 2 -19 5 -20 9 -11 33 19 50
48 174 48 208 0 30 2 32 19 21 15 -9 18 -20 14 -62z m616 -50 c7 -9 9 -16 3
-16 -5 0 -12 -9 -15 -20 -3 -11 -16 -24 -29 -29 -22 -8 -177 -131 -250 -197
-14 -13 -31 -24 -37 -24 -17 0 -81 33 -81 41 0 5 17 13 38 19 44 11 68 34 98
93 17 35 27 43 56 48 68 11 131 87 146 178 l6 36 25 -56 c14 -31 32 -64 40
-73z m-446 103 c18 -8 23 -17 19 -35 -4 -22 -5 -23 -33 -8 -17 8 -29 23 -29
34 0 23 9 25 43 9z m-93 -59 c0 -6 -7 -51 -16 -102 -9 -50 -14 -102 -11 -114
3 -19 1 -21 -17 -14 -18 6 -21 15 -20 56 0 27 7 84 14 126 13 68 16 75 32 67
10 -5 18 -14 18 -19z m224 5 c24 -22 36 -65 19 -65 -4 0 -27 8 -50 18 -31 12
-43 23 -43 38 0 42 34 46 74 9z m-122 -78 c2 -18 1 -44 -3 -58 -4 -13 -7 -47
-8 -75 -1 -36 -6 -54 -16 -58 -21 -8 -76 14 -68 27 4 6 6 25 5 42 -3 29 16
163 25 177 2 5 17 1 32 -7 21 -10 30 -23 33 -48z m86 -13 c13 -9 29 -13 37
-10 19 7 19 -2 -1 -50 -28 -68 -84 -111 -84 -65 0 43 13 141 19 141 4 0 17 -7
29 -16z m562 -68 c0 -2 -8 -10 -17 -17 -16 -13 -17 -12 -4 4 13 16 21 21 21
13z m-56 -69 c-11 -13 -59 -78 -109 -143 -49 -65 -92 -121 -96 -124 -3 -3 -25
-31 -48 -64 -24 -32 -51 -66 -60 -75 -10 -10 -25 -28 -33 -40 -16 -22 -21 -23
-84 -16 l-68 7 50 47 c27 25 101 93 164 151 63 58 155 146 205 196 86 87 119
113 79 61z m-430 -139 c-27 -29 -74 -78 -105 -109 -30 -31 -71 -80 -90 -108
-33 -51 -35 -52 -74 -45 -22 3 -46 6 -52 7 -29 1 -8 22 80 85 29 20 73 53 98
74 26 21 51 38 55 38 5 0 25 16 44 35 19 20 46 46 60 60 47 47 33 14 -16 -37z
m-396 -284 c62 -12 118 -24 124 -26 6 -2 -40 -15 -103 -27 -63 -13 -124 -30
-136 -37 -12 -8 -24 -14 -27 -14 -3 0 -5 32 -5 71 0 62 2 70 17 64 9 -4 68
-18 130 -31z"/>
</g>
</svg>
