<?xml version="1.0" standalone="no"?>
<!DOCTYPE svg PUBLIC "-//W3C//DTD SVG 20010904//EN"
 "http://www.w3.org/TR/2001/REC-SVG-20010904/DTD/svg10.dtd">
<svg version="1.0" xmlns="http://www.w3.org/2000/svg"
 width="224.000000pt" height="130.000000pt" viewBox="0 0 224.000000 130.000000"
 preserveAspectRatio="xMidYMid meet">
<metadata>
Created by potrace 1.16, written by Peter Selinger 2001-2019
</metadata>
<g transform="translate(0.000000,130.000000) scale(0.100000,-0.100000)"
fill="#000000" stroke="none">
<path d="M1122 1147 c-5 -7 -13 -22 -16 -34 -4 -13 -14 -23 -22 -23 -9 0 -68
-44 -132 -98 -131 -109 -191 -152 -214 -152 -8 0 -30 -7 -48 -17 -32 -15 -39
-15 -116 1 -45 9 -86 16 -90 15 -28 -5 -56 4 -83 27 -17 14 -37 24 -43 21 -7
-2 -20 -1 -29 4 -8 4 -20 5 -25 1 -17 -11 -34 -72 -34 -122 0 -26 -9 -82 -20
-124 -19 -76 -43 -303 -34 -318 13 -20 43 -4 75 38 39 52 67 69 138 85 27 5
57 19 66 29 15 17 27 19 88 14 39 -2 74 -10 78 -15 4 -6 16 -8 27 -5 14 5 29
0 47 -16 15 -13 39 -30 55 -38 16 -8 70 -37 120 -63 50 -26 95 -45 100 -42 21
13 8 33 -37 56 -89 45 -104 58 -92 80 7 15 7 29 0 51 -8 21 -8 43 0 74 7 25 9
47 6 50 -3 3 -30 -10 -62 -28 -110 -64 -117 -67 -190 -67 -95 0 -274 23 -308
39 -34 17 -53 3 -33 -25 9 -13 35 -21 92 -29 l78 -11 -74 -29 c-41 -15 -87
-37 -102 -47 l-28 -19 4 82 c3 78 5 84 35 109 17 14 75 47 129 73 53 27 104
52 112 57 33 20 59 28 133 39 75 11 78 11 127 -16 28 -15 52 -25 53 -23 2 2
16 28 31 57 15 30 51 86 81 127 30 40 52 75 49 78 -6 6 56 66 68 67 4 0 5 -27
1 -60 -5 -50 -3 -61 11 -66 23 -9 51 5 118 61 57 47 58 47 110 39 29 -4 59 -7
67 -5 7 1 26 -10 42 -25 l29 -28 -62 -60 c-80 -77 -137 -126 -148 -126 -10 0
-25 66 -21 92 4 30 -19 30 -53 0 -19 -16 -55 -44 -80 -61 -60 -42 -97 -76 -89
-84 3 -4 10 -4 15 -1 6 4 30 7 54 8 81 3 98 -53 23 -76 -57 -16 -67 -33 -42
-66 26 -35 117 -69 138 -52 8 7 13 16 10 20 -6 11 16 73 29 82 17 11 26 9 26
-5 0 -8 25 -39 55 -69 l54 -56 -44 -34 c-24 -18 -45 -36 -45 -40 0 -3 18 -9
39 -13 22 -4 45 -13 52 -21 6 -8 29 -14 51 -14 36 0 40 2 35 21 -5 17 -2 20
14 16 41 -11 31 55 -11 68 -26 8 -26 31 0 47 19 12 28 38 13 38 -4 0 -17 -10
-29 -21 -30 -28 -46 -20 -72 34 -12 25 -35 55 -52 67 -16 12 -30 29 -30 38 0
39 179 236 209 230 9 -2 22 -16 29 -32 8 -15 26 -35 41 -44 22 -12 61 -64 79
-104 2 -5 -11 -20 -30 -35 -68 -57 -128 -116 -128 -127 0 -6 12 2 25 17 14 15
25 25 25 21 0 -4 12 3 26 17 l27 24 -16 -30 c-8 -16 -29 -47 -46 -69 -34 -43
-36 -46 -21 -46 5 0 37 35 71 78 34 42 68 81 75 85 8 4 14 15 14 23 0 9 3 14
8 12 55 -27 64 -35 69 -60 8 -41 33 -36 33 7 0 28 -5 37 -29 50 -17 8 -33 20
-36 25 -4 6 16 31 44 56 28 25 51 50 51 55 0 19 -27 7 -70 -31 l-44 -39 -23
21 c-13 12 -23 27 -23 35 0 7 -18 25 -41 40 -38 25 -39 27 -20 35 26 9 26 19
1 68 -19 37 -19 39 -1 45 10 3 30 1 44 -4 26 -10 44 0 33 18 -3 5 33 12 80 16
56 4 84 11 81 18 -2 8 -43 10 -129 8 -125 -3 -126 -2 -133 21 -12 36 -26 38
-62 11 -34 -26 -34 -26 -121 -14 -135 19 -205 32 -229 41 -14 6 -25 5 -31 -3z
m111 -43 c26 -3 50 -10 53 -15 3 -5 1 -9 -5 -9 -5 0 -43 -25 -83 -55 -89 -67
-94 -58 -52 83 2 7 12 11 21 8 10 -3 39 -8 66 -12z m182 -34 c4 -6 -14 -10
-47 -10 -38 0 -49 3 -38 10 20 13 77 13 85 0z m130 -86 c15 -25 24 -48 22 -51
-3 -2 -10 4 -16 15 -6 11 -27 30 -46 42 -41 25 -45 40 -11 40 18 0 31 -12 51
-46z m-627 -86 c-7 -12 -21 -31 -30 -42 -9 -12 -25 -31 -35 -44 -16 -20 -21
-22 -50 -11 -40 13 -42 24 -5 37 15 6 45 27 67 46 47 41 72 48 53 14z m-518
-86 c14 -6 45 -13 69 -14 43 -3 73 -28 33 -28 -11 0 -25 -7 -32 -15 -14 -16
-105 -69 -138 -79 -22 -7 -23 -6 -16 30 4 21 8 54 9 73 1 20 3 47 4 60 l1 24
23 -19 c12 -11 33 -25 47 -32z m791 21 c0 -5 2 -27 5 -50 5 -34 3 -43 -9 -43
-9 0 -19 5 -22 11 -4 6 -12 8 -19 6 -6 -3 -24 0 -40 7 l-28 11 49 32 c49 33
63 39 64 26z m121 -43 c-15 -27 -40 -46 -48 -37 -4 3 55 67 62 67 2 0 -5 -13
-14 -30z m-72 -80 c0 -5 -2 -10 -4 -10 -3 0 -8 5 -11 10 -3 6 -1 10 4 10 6 0
11 -4 11 -10z m-41 -42 c11 -30 -38 -73 -74 -64 -34 9 -32 26 7 58 40 33 56
35 67 6z m-363 -163 c6 -25 8 -48 5 -50 -11 -6 -76 26 -66 33 6 4 16 19 22 35
18 38 27 34 39 -18z m594 -51 c0 -15 -29 -18 -67 -8 -29 8 -29 32 -1 43 26 9
68 -12 68 -35z"/>
<path d="M1040 358 c0 -40 -5 -91 -9 -113 -5 -22 -11 -62 -13 -90 -4 -72 15
-70 103 12 52 49 93 76 139 95 98 40 264 62 473 62 140 0 177 2 177 13 0 16 7
16 -280 14 -186 -2 -251 1 -310 14 -41 9 -91 19 -110 22 -19 2 -61 13 -93 24
-31 10 -62 19 -67 19 -6 0 -10 -31 -10 -72z m180 -2 c47 -8 104 -19 128 -22
48 -8 39 -24 -13 -24 -71 0 -171 -20 -154 -30 7 -5 18 -6 24 -2 5 3 4 -2 -4
-11 -7 -9 -19 -17 -25 -17 -6 0 -35 -23 -65 -50 -56 -52 -78 -63 -66 -32 13
30 35 155 35 195 l0 38 28 -14 c15 -8 65 -22 112 -31z"/>
<path d="M1145 280 c-3 -5 -1 -10 4 -10 6 0 11 5 11 10 0 6 -2 10 -4 10 -3 0
-8 -4 -11 -10z"/>
</g>
</svg>
