<?xml version="1.0" standalone="no"?>
<!DOCTYPE svg PUBLIC "-//W3C//DTD SVG 20010904//EN"
 "http://www.w3.org/TR/2001/REC-SVG-20010904/DTD/svg10.dtd">
<svg version="1.0" xmlns="http://www.w3.org/2000/svg"
 width="170.000000pt" height="135.000000pt" viewBox="0 0 170.000000 135.000000"
 preserveAspectRatio="xMidYMid meet">
<metadata>
Created by potrace 1.16, written by Peter Selinger 2001-2019
</metadata>
<g transform="translate(0.000000,135.000000) scale(0.100000,-0.100000)"
fill="#000000" stroke="none">
<path d="M1091 1171 c-8 -5 -58 -9 -113 -9 -63 0 -104 -4 -113 -12 -20 -16
-19 -27 3 -32 16 -5 17 -15 9 -129 -5 -75 -13 -127 -20 -132 -10 -7 -349 -1
-447 9 -19 1 -62 4 -95 5 -73 2 -95 12 -95 44 0 50 -40 21 -45 -31 -14 -165
-16 -244 -6 -244 5 0 26 11 45 23 37 26 60 33 236 71 162 35 233 45 325 48
l80 3 -3 -50 c-5 -58 -38 -224 -47 -234 -20 -19 -553 21 -567 43 -4 6 -8 21
-8 33 0 16 -4 21 -15 17 -8 -4 -15 -15 -15 -27 0 -11 -10 -71 -21 -134 -12
-63 -19 -117 -15 -120 3 -3 27 5 53 19 78 42 220 69 493 94 30 3 60 7 66 9 24
7 35 -11 24 -39 -5 -15 -10 -36 -10 -48 0 -11 -9 -32 -21 -46 -19 -25 -19 -27
-3 -39 15 -11 15 -18 5 -59 -10 -40 -10 -50 3 -62 13 -14 16 -13 24 9 14 36
33 136 39 209 5 68 12 82 40 87 57 12 311 34 448 38 172 7 189 9 183 26 -6 18
-306 14 -458 -7 -67 -9 -180 -13 -184 -6 -5 9 27 134 52 197 44 114 31 102
124 110 46 4 88 11 93 15 13 10 114 19 233 19 72 1 92 4 92 15 0 12 -34 13
-207 10 -115 -2 -223 -6 -240 -9 -42 -5 -42 6 -2 109 38 97 53 122 98 163 30
27 34 34 21 43 -18 12 -21 12 -39 1z m-64 -73 c-5 -24 -51 -162 -69 -210 -11
-30 -46 -44 -55 -22 -3 9 -2 50 2 92 4 42 8 91 9 107 2 46 12 55 68 55 47 0
50 -1 45 -22z m-256 -268 c51 0 89 -3 85 -7 -4 -5 -11 -8 -14 -9 -16 -1 -171
-16 -212 -20 -95 -10 -287 -46 -366 -69 -63 -19 -63 -19 -59 3 2 9 7 39 10 65
l6 48 229 -5 c126 -3 270 -6 321 -6z m162 -7 c-7 -2 -21 -2 -30 0 -10 3 -4 5
12 5 17 0 24 -2 18 -5z m-18 -90 c-10 -26 -25 -55 -33 -63 -13 -13 -14 -13 -8
3 3 10 6 40 6 67 0 38 4 49 18 53 30 7 35 -10 17 -60z m-520 -242 c61 -5 117
-10 125 -10 74 -2 280 -15 277 -17 -2 -2 -39 -6 -83 -9 -153 -11 -262 -25
-379 -50 -66 -14 -120 -25 -122 -25 -7 0 -2 81 6 104 8 19 16 24 38 21 15 -2
78 -8 138 -14z"/>
</g>
</svg>
