<?xml version="1.0" standalone="no"?>
<!DOCTYPE svg PUBLIC "-//W3C//DTD SVG 20010904//EN"
 "http://www.w3.org/TR/2001/REC-SVG-20010904/DTD/svg10.dtd">
<svg version="1.0" xmlns="http://www.w3.org/2000/svg"
 width="240.000000pt" height="132.000000pt" viewBox="0 0 240.000000 132.000000"
 preserveAspectRatio="xMidYMid meet">
<metadata>
Created by potrace 1.16, written by Peter Selinger 2001-2019
</metadata>
<g transform="translate(0.000000,132.000000) scale(0.100000,-0.100000)"
fill="#000000" stroke="none">
<path d="M2097 1163 c-4 -4 -90 -10 -190 -14 -246 -10 -499 -26 -692 -45 -176
-18 -347 -13 -416 11 -26 10 -47 12 -57 6 -10 -5 -43 -12 -75 -16 -54 -7 -77
-19 -63 -32 3 -4 28 -5 56 -4 47 1 50 0 50 -24 0 -30 -15 -33 -23 -5 -7 26
-32 26 -50 -1 -14 -19 -21 -20 -136 -13 l-121 7 0 29 c0 41 -25 34 -53 -15
-18 -31 -19 -40 -8 -46 14 -9 12 -75 -4 -113 -6 -14 -2 -18 16 -18 24 0 24 -1
23 -103 -1 -145 -1 -145 -26 -149 -26 -4 -37 -28 -13 -28 15 0 16 -7 9 -62 -4
-35 -8 -99 -9 -143 -1 -44 -4 -87 -8 -95 -10 -25 -37 -123 -37 -137 0 -20 27
-16 73 11 23 13 76 34 118 45 102 28 135 17 118 -42 -11 -39 3 -57 30 -40 10
6 36 15 57 19 22 3 46 10 54 14 17 9 295 56 385 65 33 3 103 8 155 10 52 2
172 9 265 14 138 9 281 9 427 1 9 -1 19 -8 22 -16 10 -25 35 -15 51 22 11 28
12 39 2 55 -9 15 -9 23 1 40 7 11 15 50 18 87 7 82 28 183 100 467 30 121 56
229 57 240 2 17 -5 20 -48 23 -28 2 -54 -1 -58 -5z m-64 -46 c8 -21 -2 -297
-11 -313 -6 -10 -29 -16 -73 -19 -134 -7 -501 -7 -665 0 l-172 8 19 69 c11 39
30 91 44 117 22 45 26 48 82 59 122 25 260 50 303 56 25 3 64 9 88 12 23 3
115 10 205 14 89 4 165 8 168 8 4 1 9 -4 12 -11z m117 -25 c0 -15 -21 -99 -81
-327 -11 -40 -16 -53 -14 -30 3 22 8 105 11 185 7 191 6 186 49 187 26 1 35
-3 35 -15z m-835 -13 c-41 -12 -308 -50 -313 -45 -13 14 16 26 61 27 29 0 86
6 127 14 41 7 93 13 115 13 39 0 40 0 10 -9z m-465 -24 c30 2 66 0 79 -3 l24
-5 -29 -15 c-16 -9 -40 -16 -54 -16 -17 -1 -29 -10 -38 -28 -15 -31 -48 -53
-56 -39 -8 13 10 58 26 64 7 3 3 6 -9 6 -18 1 -23 7 -23 27 0 20 3 24 13 17 6
-6 37 -9 67 -8z m297 -47 c-3 -7 -20 -59 -39 -115 -30 -95 -47 -128 -43 -85 1
9 5 58 10 109 7 83 10 92 29 96 40 8 48 7 43 -5z m-557 -19 c36 0 61 -2 55 -4
-43 -13 -266 -57 -270 -53 -3 2 -2 20 1 38 l7 32 71 -6 c39 -3 100 -6 136 -7z
m460 -6 c0 -10 -7 -81 -15 -158 -8 -77 -20 -189 -27 -250 -6 -60 -12 -145 -12
-187 -1 -51 -5 -79 -13 -82 -7 -3 -52 -3 -100 0 -48 3 -99 6 -113 6 -14 1 -50
-2 -80 -7 -30 -4 -53 -5 -49 -2 3 4 51 13 108 22 57 8 112 20 122 26 42 22 5
25 -107 7 -64 -11 -117 -18 -118 -16 -2 2 -1 24 2 51 l4 47 127 0 c129 0 171
5 171 21 0 5 -65 9 -145 9 l-145 0 6 28 c9 36 14 38 94 46 79 7 102 14 97 30
-4 11 -21 13 -113 15 l-51 1 11 50 c6 27 16 54 22 60 6 6 40 12 75 14 119 6
114 5 100 19 -6 6 -39 13 -74 13 -115 3 -107 -1 -95 42 13 46 25 62 49 62 21
0 26 16 7 22 -6 2 14 24 45 49 51 39 126 67 210 78 4 1 7 -7 7 -16z m-399 -45
c3 -26 -3 -53 -13 -59 -5 -3 -55 -4 -110 -2 -108 4 -144 -1 -118 -17 8 -6 35
-10 60 -11 l45 0 -50 -16 c-27 -8 -56 -20 -64 -26 -11 -9 -12 -4 -8 33 3 25 6
46 6 47 2 5 95 35 146 47 77 18 105 19 106 4z m-8 -140 c-3 -24 -7 -44 -8 -46
-2 -2 -40 -5 -86 -8 -105 -6 -132 -12 -123 -25 4 -7 36 -9 95 -4 63 5 89 4 89
-4 0 -6 -3 -11 -7 -11 -8 -1 -35 -7 -150 -33 -57 -13 -62 -13 -59 2 2 9 7 35
11 59 9 52 21 59 145 88 52 13 96 23 97 23 0 1 -1 -18 -4 -41z m50 -28 c-3
-11 -9 -20 -14 -20 -11 0 -11 3 -3 24 9 23 23 20 17 -4z m749 -23 c37 -7 27
-15 -29 -22 -32 -3 -89 -12 -128 -20 -38 -7 -95 -16 -126 -19 l-56 -6 4 28 c3
15 6 32 8 38 2 8 50 10 157 8 84 -2 161 -5 170 -7z m565 -100 c-4 -55 -9 -102
-12 -105 -3 -4 -169 -8 -368 -10 -199 -1 -389 -4 -422 -5 -33 -2 -75 1 -93 6
-30 7 -33 11 -27 34 3 14 9 38 12 54 5 27 9 29 52 29 25 0 73 7 106 15 86 22
226 45 333 55 51 5 123 12 160 16 288 28 266 36 259 -89z m-941 32 c-3 -39
-11 -79 -16 -88 -9 -16 -5 85 6 137 10 49 16 18 10 -49z m-386 -9 c0 -11 -4
-20 -9 -20 -5 0 -7 9 -4 20 3 11 7 20 9 20 2 0 4 -9 4 -20z m-50 -34 c0 -43
-1 -44 -37 -50 -21 -3 -47 -4 -58 -2 -11 3 -46 5 -78 5 -41 1 -57 5 -55 13 3
9 190 75 221 77 4 1 7 -19 7 -43z m-130 -105 c-58 -16 -113 -32 -122 -36 -14
-5 -18 -2 -18 13 0 50 5 52 129 52 l116 -1 -105 -28z m120 -35 c0 -14 -5 -28
-11 -32 -6 -4 -57 -12 -112 -18 -70 -8 -102 -15 -105 -25 -4 -12 9 -13 74 -8
44 3 94 9 112 13 19 4 32 2 32 -4 0 -13 -40 -28 -115 -43 -33 -7 -77 -20 -97
-30 -26 -12 -38 -13 -39 -6 0 7 -3 25 -5 41 -10 56 58 98 211 130 46 9 55 6
55 -18z m800 -1 c-155 -13 -223 -20 -314 -31 -42 -6 -48 -5 -45 10 4 15 23 18
143 22 77 2 142 7 145 9 2 3 54 4 115 4 l111 -2 -155 -12z m570 -7 c0 -7 -5
-50 -12 -95 -10 -74 -13 -83 -32 -83 -12 0 -113 -5 -226 -10 -113 -6 -311 -8
-442 -4 l-236 7 5 56 c3 31 6 57 7 58 1 1 163 30 216 38 14 2 68 6 120 10 52
4 111 8 130 10 19 2 69 7 110 10 41 4 77 9 79 11 2 2 67 4 143 4 104 0 138 -3
138 -12z m-1406 -143 c-7 -17 -20 -21 -90 -30 -33 -4 -54 -3 -59 4 -4 7 3 11
17 12 13 0 43 6 68 13 62 18 70 18 64 1z m-170 -40 c-4 -10 0 -15 12 -16 34
-2 88 2 118 7 21 5 27 3 24 -7 -4 -11 -247 -102 -255 -95 -8 7 20 76 31 76 7
0 23 11 36 25 26 28 42 33 34 10z m583 -49 c-2 -6 -24 -14 -48 -18 -24 -4
-101 -16 -171 -27 -70 -12 -131 -21 -137 -21 -5 0 -8 17 -8 37 l2 38 150 3
c83 2 154 4 160 6 19 5 56 -7 52 -18z m218 9 c-23 -8 -175 -11 -175 -3 0 4 42
8 93 7 50 0 88 -2 82 -4z"/>
</g>
</svg>
