<?xml version="1.0" standalone="no"?>
<!DOCTYPE svg PUBLIC "-//W3C//DTD SVG 20010904//EN"
 "http://www.w3.org/TR/2001/REC-SVG-20010904/DTD/svg10.dtd">
<svg version="1.0" xmlns="http://www.w3.org/2000/svg"
 width="225.000000pt" height="168.000000pt" viewBox="0 0 225.000000 168.000000"
 preserveAspectRatio="xMidYMid meet">
<metadata>
Created by potrace 1.16, written by Peter Selinger 2001-2019
</metadata>
<g transform="translate(0.000000,168.000000) scale(0.100000,-0.100000)"
fill="#000000" stroke="none">
<path d="M2110 1543 c-20 -11 -48 -13 -131 -9 -85 5 -109 3 -125 -9 -18 -14
-18 -16 -1 -29 20 -16 23 -79 5 -93 -26 -20 -187 -62 -318 -84 -126 -20 -196
-37 -160 -38 17 -1 240 38 371 65 104 21 119 17 114 -28 -2 -18 -7 -63 -11
-101 -8 -80 -22 -104 -50 -89 -10 5 -46 15 -79 21 -64 11 -464 71 -477 71 -15
0 -8 31 8 37 11 4 12 8 4 13 -12 7 10 171 29 222 10 27 -1 54 -17 44 -6 -4 -9
-13 -6 -21 3 -8 1 -30 -6 -49 -6 -18 -13 -54 -16 -77 -11 -89 -19 -114 -44
-126 -25 -13 -25 -13 -2 -13 12 0 22 -4 22 -10 0 -5 -14 -10 -31 -10 -24 0
-30 4 -25 15 3 8 1 15 -5 15 -6 0 -8 4 -4 10 8 14 33 223 27 238 -11 30 -18 4
-30 -100 -17 -155 -18 -158 -56 -158 l-33 0 13 60 c22 106 27 160 15 160 -6 0
-12 -8 -12 -17 -1 -10 -2 -22 -3 -28 -1 -5 -5 -35 -9 -65 -16 -110 -16 -110
-49 -110 l-31 0 7 53 c4 28 11 79 15 112 5 33 5 64 0 69 -9 10 -15 -14 -24
-84 -13 -97 -20 -135 -28 -133 -4 1 -20 4 -36 8 -25 5 -28 10 -27 43 1 20 4
39 8 42 11 8 26 110 17 116 -8 5 -17 -24 -38 -128 -11 -51 -15 -58 -36 -58
-13 0 -26 4 -29 9 -7 10 9 170 19 194 4 10 3 17 -3 17 -14 0 -31 -53 -37 -115
-9 -87 -12 -94 -40 -90 -14 1 -28 5 -31 8 -7 6 11 162 22 192 6 18 5 19 -10 4
-11 -10 -21 -46 -28 -107 -12 -91 -12 -92 -39 -92 -52 0 -56 5 -48 73 4 34 11
72 15 85 4 13 2 22 -5 22 -12 0 -42 -96 -43 -141 -1 -29 -3 -30 -31 -25 -16 3
-35 6 -43 6 -8 0 -11 8 -8 23 3 12 9 47 15 77 6 30 20 65 32 77 25 28 15 43
-13 18 -20 -18 -41 -69 -60 -141 l-10 -41 -77 13 c-43 7 -94 15 -114 19 -50 9
-69 -12 -69 -78 0 -29 -5 -70 -10 -92 -18 -81 -19 -96 -5 -101 7 -3 24 1 37
10 21 14 159 46 197 46 11 0 13 -20 9 -105 -4 -98 -3 -105 14 -105 13 0 18 6
17 18 -1 9 1 58 6 109 l7 91 40 4 40 4 -7 -71 c-11 -125 -10 -135 10 -135 11
0 15 9 13 33 -1 17 1 64 5 103 9 77 15 84 76 84 23 0 23 -2 16 -52 -4 -29 -9
-63 -10 -75 -2 -11 -5 -29 -9 -40 -13 -44 -17 -103 -6 -103 14 0 18 12 25 80
4 30 8 64 10 75 2 11 6 38 10 60 9 61 12 65 45 65 l31 0 -6 -47 c-3 -27 -10
-75 -15 -108 -5 -33 -10 -82 -10 -109 0 -77 23 -41 26 41 2 37 5 79 8 93 3 14
9 45 12 70 7 54 15 65 49 68 l27 2 -7 -73 c-3 -39 -8 -79 -10 -87 -2 -8 -7
-37 -10 -65 -3 -27 -8 -63 -11 -79 -5 -21 -3 -27 7 -24 8 3 15 20 16 39 2 19
8 66 13 104 6 39 13 94 16 124 3 34 12 60 22 69 9 7 11 11 5 7 -8 -4 -13 1
-13 13 0 18 3 19 34 10 39 -12 39 -8 7 -196 -33 -187 -33 -192 -22 -192 12 0
12 -1 41 180 28 175 29 177 50 183 24 6 37 -4 35 -28 -3 -24 -41 -246 -51
-294 -6 -26 -4 -33 7 -29 7 2 15 20 17 39 2 19 13 95 25 169 l22 135 30 0 c30
0 30 -1 28 -50 -1 -27 -12 -105 -24 -172 -13 -68 -20 -126 -16 -130 11 -10 16
0 21 38 3 19 12 76 20 128 9 52 13 98 10 102 -3 5 -1 9 3 9 8 0 12 15 15 58 1
13 23 15 52 3 17 -6 18 -18 17 -132 -2 -102 0 -122 11 -111 9 9 12 42 10 115
-1 56 1 107 5 113 6 9 23 9 63 2 72 -12 91 -15 180 -23 41 -3 89 -10 105 -15
17 -5 68 -16 115 -26 47 -9 92 -23 101 -31 8 -7 21 -13 27 -13 7 0 12 -3 13
-7 5 -47 7 -79 9 -140 2 -42 7 -73 13 -73 28 0 -10 -15 -50 -20 -51 -6 -68
-26 -31 -35 13 -3 24 -14 25 -23 1 -9 4 -58 7 -109 5 -81 4 -92 -12 -97 -26
-8 -235 -53 -355 -77 -89 -17 -125 -20 -204 -14 l-95 7 5 37 c15 97 19 191 8
191 -6 0 -11 -6 -11 -12 -2 -45 -14 -139 -22 -173 -6 -22 -10 -52 -10 -66 1
-28 -17 -39 -69 -39 -23 0 -26 3 -21 25 4 21 10 25 40 25 19 0 32 3 28 8 -8 7
-14 9 -47 11 -18 1 -20 5 -14 28 4 16 9 48 11 73 3 25 9 67 15 93 5 26 9 55 9
63 0 28 -18 5 -26 -33 -4 -21 -8 -40 -9 -43 -1 -3 -5 -34 -9 -70 -13 -101 -18
-110 -59 -100 -52 11 -56 16 -47 53 14 52 22 205 10 185 -11 -17 -14 -39 -25
-148 -4 -36 -9 -68 -12 -73 -5 -8 -53 1 -67 13 -4 5 -8 40 -7 80 1 91 -15 84
-25 -10 -7 -70 -7 -70 -37 -70 l-30 0 6 91 c4 56 3 88 -3 84 -9 -6 -15 -31
-24 -113 -7 -56 -10 -60 -41 -54 -23 4 -25 8 -20 41 3 20 8 50 11 68 2 17 0
34 -5 37 -6 4 -13 -10 -16 -31 -17 -104 -19 -108 -50 -105 -17 2 -32 8 -36 13
-8 13 1 110 12 131 12 23 11 28 -5 28 -14 0 -25 -34 -33 -110 -3 -25 -7 -47
-8 -48 -2 -2 -18 -1 -36 3 l-32 7 7 74 c4 41 9 81 13 89 3 8 0 15 -6 15 -19 0
-34 -43 -35 -104 -1 -58 -2 -61 -26 -60 -53 3 -93 17 -97 36 -7 23 -18 23 -41
0 -14 -14 -17 -36 -17 -142 0 -123 0 -125 -23 -126 -24 -1 -39 -11 -30 -19 10
-10 92 -8 147 4 29 7 54 11 56 9 2 -2 -3 -39 -10 -83 -18 -113 -15 -189 7
-193 11 -2 18 3 18 12 0 9 -4 16 -10 16 -13 0 -12 56 3 155 15 96 19 105 58
105 30 0 31 -1 25 -38 -19 -130 -29 -293 -18 -304 16 -16 18 -5 32 162 6 80
14 153 16 162 6 19 61 35 75 21 7 -7 6 -41 -1 -94 -20 -149 -23 -226 -11 -233
7 -5 11 9 12 46 1 29 1 56 0 60 0 3 6 41 14 83 8 42 15 92 15 110 0 29 3 33
31 37 l31 5 -7 -86 c-4 -47 -9 -108 -11 -134 -2 -26 -8 -63 -13 -82 -5 -20 -6
-35 -1 -35 14 0 28 65 40 185 16 159 14 155 57 155 l36 0 -6 -95 c-3 -52 -8
-99 -11 -103 -2 -4 -7 -30 -10 -58 -3 -28 -9 -59 -12 -69 -5 -13 -3 -16 7 -13
14 5 21 35 33 133 4 28 11 84 16 125 5 41 10 78 10 83 0 4 16 7 36 7 20 0 33
-4 29 -10 -3 -5 -8 -72 -12 -150 -4 -104 -3 -140 6 -140 8 0 11 27 11 88 -1
80 13 198 24 210 3 2 25 7 49 9 l43 5 -6 -57 c-9 -80 -4 -266 6 -263 5 2 10
50 11 108 1 58 4 128 8 156 7 55 17 64 77 64 27 0 28 -2 23 -42 -7 -70 -7
-212 0 -230 15 -38 20 -13 21 105 1 170 2 174 66 182 29 3 65 11 79 16 19 7
45 7 85 -1 106 -21 153 -29 222 -35 38 -3 100 -16 138 -28 l69 -22 7 -88 c8
-107 11 -117 36 -110 14 3 23 23 36 76 33 145 73 295 107 401 27 88 41 117 72
149 33 35 36 42 24 54 -17 17 -75 21 -129 9 -33 -7 -38 -6 -38 9 0 10 7 23 15
29 9 6 20 40 26 76 16 101 18 113 29 150 6 19 13 45 16 58 21 101 111 329 140
353 15 12 19 30 7 28 -5 -1 -19 -8 -33 -16z m-53 -90 c-8 -15 -28 -75 -46
-133 -18 -58 -43 -139 -56 -180 -12 -41 -26 -100 -30 -130 -5 -30 -10 -48 -13
-40 -3 8 -9 18 -14 21 -14 9 -19 197 -7 269 6 36 10 100 10 143 l-1 77 67 0
c38 0 75 5 83 10 21 13 24 -3 7 -37z m-1687 -118 c25 -3 54 -8 65 -10 11 -2
24 -4 29 -4 7 -1 5 -24 -9 -91 -2 -8 -4 -22 -4 -30 -1 -12 -22 -19 -79 -28
-42 -7 -90 -12 -106 -12 -27 0 -28 1 -23 38 4 20 9 63 13 95 l7 59 31 -6 c17
-3 51 -8 76 -11z m193 -35 c13 0 17 -8 17 -32 0 -67 -8 -78 -57 -78 l-44 0 6
38 c13 82 15 84 38 78 12 -3 30 -6 40 -6z m120 -9 c4 -1 7 -19 7 -40 0 -42
-11 -51 -61 -51 -25 0 -29 4 -29 28 0 64 8 70 83 63z m94 -43 c-2 -29 -6 -33
-35 -36 -29 -3 -32 -1 -32 26 0 36 6 42 42 42 25 0 28 -3 25 -32z m88 -3 c0
-15 -8 -21 -32 -23 -33 -3 -38 3 -27 33 10 24 59 16 59 -10z m1155 -429 c0 -8
-4 -17 -9 -21 -14 -8 -74 -202 -66 -214 3 -6 2 -11 -4 -11 -5 0 -12 -15 -16
-32 -4 -18 -11 -46 -16 -63 -5 -16 -23 -76 -39 -132 -17 -57 -34 -103 -37
-103 -11 0 5 278 17 300 9 16 9 25 1 33 -7 7 -11 54 -11 118 l0 107 33 5 c17
3 50 10 72 15 59 14 75 14 75 -2z m-1651 -241 c9 -2 24 -4 34 -4 17 -1 18 -7
12 -68 -8 -79 -13 -114 -17 -118 -2 -2 -27 -5 -57 -6 l-53 -4 -2 85 c-4 122 0
133 36 124 17 -3 38 -8 47 -9z m135 -24 c11 -1 0 -141 -12 -153 -5 -5 -22 -8
-38 -6 l-29 3 9 83 c8 82 8 82 35 78 14 -2 30 -5 35 -5z m1310 -73 c-4 -40 -8
-75 -10 -77 -1 -1 -24 4 -51 12 -26 9 -85 18 -130 21 -45 3 -87 8 -95 11 -12
4 -69 12 -108 15 -26 1 8 15 70 28 30 7 98 21 150 32 97 20 132 26 163 29 15
1 16 -6 11 -71z m-1210 -5 c-4 -38 -8 -70 -10 -72 -2 -2 -20 -6 -40 -8 l-36
-4 6 48 c14 103 14 103 52 103 l35 0 -7 -67z m89 5 c-7 -62 -18 -80 -47 -76
-19 3 -21 9 -18 53 3 68 7 75 41 75 l30 0 -6 -52z m99 20 c2 -13 1 -38 -1 -55
-3 -31 -5 -33 -43 -33 l-41 0 7 38 c3 20 6 45 6 55 0 13 8 17 34 17 28 0 35
-4 38 -22z m96 -30 c-3 -42 -5 -43 -41 -46 l-38 -3 2 45 3 46 39 0 38 0 -3
-42z m102 22 c13 -7 16 -17 12 -32 -7 -30 -20 -38 -64 -38 -41 0 -41 1 -32 49
6 26 11 31 36 31 16 0 38 -4 48 -10z m240 -29 c-8 -5 -32 -11 -52 -14 -29 -4
-36 -3 -31 9 3 9 20 14 52 14 30 -1 41 -4 31 -9z"/>
<path d="M1330 1280 l-25 -8 28 -1 c15 -1 27 4 27 9 0 6 -1 10 -2 9 -2 -1 -14
-5 -28 -9z"/>
</g>
</svg>
