<?xml version="1.0" standalone="no"?>
<!DOCTYPE svg PUBLIC "-//W3C//DTD SVG 20010904//EN"
 "http://www.w3.org/TR/2001/REC-SVG-20010904/DTD/svg10.dtd">
<svg version="1.0" xmlns="http://www.w3.org/2000/svg"
 width="273.000000pt" height="165.000000pt" viewBox="0 0 273.000000 165.000000"
 preserveAspectRatio="xMidYMid meet">
<metadata>
Created by potrace 1.16, written by Peter Selinger 2001-2019
</metadata>
<g transform="translate(0.000000,165.000000) scale(0.100000,-0.100000)"
fill="#000000" stroke="none">
<path d="M1195 1534 c-6 -2 -10 -41 -10 -87 1 -45 -3 -97 -8 -115 -12 -46 0
-58 30 -30 19 18 37 23 81 24 76 1 264 15 330 24 28 3 54 4 57 2 3 -3 -25 -37
-62 -76 -38 -39 -95 -103 -128 -141 -114 -132 -137 -154 -213 -206 -54 -37
-90 -55 -121 -58 -25 -4 -46 -11 -48 -17 -3 -9 84 -54 106 -54 5 0 24 -19 44
-42 19 -24 54 -64 78 -90 24 -26 55 -61 68 -79 14 -17 39 -37 56 -45 17 -7 37
-20 45 -28 7 -9 18 -16 25 -16 7 0 26 -21 43 -47 62 -102 107 -93 174 35 57
108 160 254 226 318 54 53 61 64 39 64 -22 0 -147 127 -141 143 3 8 -11 38
-31 68 -37 56 -69 149 -80 232 -3 26 -3 47 2 48 4 0 15 2 23 3 8 2 42 6 75 10
131 14 150 18 160 27 12 12 -6 12 -138 -2 -77 -8 -112 -8 -119 -1 -8 8 -17 7
-32 -3 -25 -15 -209 -35 -383 -42 l-123 -5 0 28 c0 16 3 53 7 82 l6 54 31 -6
c37 -8 280 -24 467 -31 75 -2 169 -12 210 -20 91 -20 112 -23 169 -26 l45 -2
-58 -7 c-56 -7 -76 -15 -66 -25 3 -2 54 2 115 11 60 8 160 17 223 20 62 2 117
7 122 10 25 15 1 23 -69 22 -201 -2 -358 5 -472 22 -123 19 -276 29 -500 35
-63 2 -139 8 -169 14 -56 11 -69 12 -86 5z m530 -213 c8 -15 53 -195 49 -200
-5 -6 -34 20 -34 31 0 5 -20 29 -45 55 -25 25 -45 49 -45 53 0 12 50 70 60 70
5 0 11 -4 15 -9z m-89 -80 c-3 -5 18 -34 47 -66 28 -31 66 -72 83 -91 17 -18
37 -46 43 -62 6 -15 39 -56 71 -90 33 -34 60 -70 60 -80 0 -25 -267 -295 -314
-317 -25 -12 -43 -15 -52 -9 -20 14 -147 273 -141 289 7 17 -18 39 -37 32 -10
-4 -12 0 -9 14 9 33 -32 23 -71 -17 l-36 -37 -45 17 c-42 17 -60 36 -32 36 21
0 147 89 193 138 53 55 57 43 9 -28 -20 -29 -33 -55 -31 -57 5 -6 51 45 51 56
0 4 8 15 18 25 9 10 17 23 17 31 0 7 4 15 9 17 4 2 20 21 35 43 48 73 106 149
119 157 16 10 19 10 13 -1z m-204 -508 c44 -86 50 -110 31 -117 -8 -3 -11 -10
-8 -16 3 -5 2 -10 -3 -10 -14 0 -24 32 -13 40 10 6 -41 94 -74 126 -12 13 -13
19 -4 30 21 26 37 14 71 -53z m-66 -21 c-4 -3 -14 2 -24 12 -16 18 -16 18 6 6
13 -6 21 -14 18 -18z m413 -108 c-7 -9 -18 -24 -24 -33 -5 -10 -25 -41 -43
-69 -33 -51 -34 -51 -58 -35 -14 9 -23 21 -21 26 2 6 29 29 61 50 31 22 65 50
74 62 9 13 19 21 21 19 2 -2 -2 -11 -10 -20z"/>
<path d="M1090 1429 c-25 -23 -76 -67 -115 -97 -38 -31 -94 -78 -122 -105 -29
-26 -69 -55 -89 -63 -27 -11 -35 -20 -31 -34 4 -17 -3 -19 -132 -19 -172 -1
-275 26 -287 76 -7 26 -22 29 -48 10 -27 -20 0 -75 39 -77 3 0 22 -9 42 -20
20 -10 56 -22 80 -26 24 -3 45 -10 48 -14 3 -5 -23 -17 -57 -28 -130 -42 -208
-89 -208 -124 0 -15 37 -8 51 9 16 19 152 83 177 83 9 0 46 14 82 31 61 30 72
32 181 32 67 0 124 -5 136 -12 40 -21 60 -14 67 22 6 33 28 71 120 209 27 40
61 90 75 112 14 21 34 44 43 50 10 6 18 14 18 18 0 19 -28 5 -70 -33z m-81
-136 c-13 -21 -37 -56 -55 -78 -17 -22 -43 -59 -58 -83 -26 -42 -27 -42 -56
-27 -49 25 -47 35 21 97 51 48 151 124 167 127 2 1 -7 -16 -19 -36z"/>
<path d="M273 823 c-16 -6 -16 -55 1 -156 17 -102 22 -107 88 -74 63 32 186
63 283 73 l70 7 -22 -25 c-13 -13 -23 -30 -23 -37 0 -7 26 -24 58 -38 67 -30
131 -74 132 -88 0 -6 12 -22 28 -37 15 -15 45 -45 67 -66 22 -22 46 -46 52
-55 7 -9 20 -20 30 -25 15 -9 18 -42 10 -117 -3 -27 24 -30 52 -4 45 42 188
60 526 66 143 2 334 6 425 8 91 2 182 4 204 4 47 0 76 9 76 22 0 7 -34 9 -92
5 -69 -3 -80 -3 -43 4 28 4 93 9 145 10 101 2 120 6 120 23 0 12 -152 5 -380
-18 -85 -8 -175 -16 -200 -16 -63 -2 -235 11 -300 21 -92 15 -153 16 -157 3
-3 -7 16 -14 54 -18 88 -10 93 -12 28 -15 -33 -2 -71 -4 -85 -6 -14 -1 -74 -7
-135 -13 -60 -6 -129 -15 -152 -19 -45 -10 -54 -7 -48 11 2 7 6 24 9 40 6 27
7 27 90 27 45 0 108 -5 139 -11 31 -6 64 -8 74 -5 35 14 -9 24 -127 31 -144 7
-156 10 -163 36 -4 15 -12 20 -30 17 -17 -2 -32 7 -55 33 -18 20 -32 40 -32
43 0 4 -9 19 -20 34 -17 24 -26 60 -58 247 -9 53 -30 55 -78 7 l-39 -39 -110
9 c-201 15 -350 48 -380 83 -11 13 -26 21 -32 18z m186 -103 c36 -1 91 -26 71
-33 -57 -19 -195 -56 -198 -52 -2 2 -6 31 -9 64 l-6 61 58 -20 c32 -11 70 -20
84 -20z m411 -21 c0 -28 29 -169 40 -199 l10 -25 -22 25 c-36 40 -92 78 -137
92 -58 18 -58 34 -3 62 26 13 58 36 71 50 26 28 41 26 41 -5z"/>
</g>
</svg>
