<?xml version="1.0" standalone="no"?>
<!DOCTYPE svg PUBLIC "-//W3C//DTD SVG 20010904//EN"
 "http://www.w3.org/TR/2001/REC-SVG-20010904/DTD/svg10.dtd">
<svg version="1.0" xmlns="http://www.w3.org/2000/svg"
 width="238.000000pt" height="152.000000pt" viewBox="0 0 238.000000 152.000000"
 preserveAspectRatio="xMidYMid meet">
<metadata>
Created by potrace 1.16, written by Peter Selinger 2001-2019
</metadata>
<g transform="translate(0.000000,152.000000) scale(0.100000,-0.100000)"
fill="#000000" stroke="none">
<path d="M1162 1335 c-7 -14 -12 -35 -12 -45 0 -11 -6 -20 -12 -20 -7 0 -55
-44 -108 -98 -94 -96 -162 -160 -229 -215 -30 -25 -40 -28 -80 -23 -68 9 -191
36 -212 46 -9 6 -40 15 -67 20 -32 7 -59 21 -78 41 -15 16 -34 29 -41 29 -25
0 -51 -83 -63 -210 -8 -82 -19 -138 -31 -163 -32 -64 -5 -77 53 -24 19 17 48
39 64 47 16 8 31 17 34 20 7 7 77 41 120 58 19 7 85 19 145 26 102 12 113 12
147 -5 20 -10 39 -23 43 -28 11 -20 36 2 60 53 13 29 45 78 70 110 25 32 45
62 45 67 0 8 43 69 96 134 l24 30 0 -45 c0 -48 13 -70 40 -70 14 0 16 13 14
98 -4 117 7 148 51 145 17 -1 104 -8 195 -15 91 -7 284 -13 430 -12 248 1 268
-4 95 -21 -33 -3 -105 -12 -160 -20 -55 -7 -143 -19 -195 -25 -52 -6 -126 -16
-165 -21 -38 -5 -106 -11 -149 -14 -79 -4 -116 -18 -83 -31 29 -11 635 53 822
86 61 11 143 23 184 28 53 5 77 12 85 24 5 9 8 20 5 23 -3 3 -185 7 -405 9
-350 4 -491 11 -675 31 -42 5 -47 3 -57 -20z m-158 -267 c-34 -56 -157 -218
-166 -218 -19 0 -46 34 -40 50 9 21 159 158 187 170 27 12 27 12 19 -2z m-640
-87 c3 -5 30 -14 58 -21 29 -7 63 -18 75 -26 12 -8 56 -21 98 -31 41 -9 74
-18 72 -20 -2 -2 -30 -8 -63 -14 -88 -15 -149 -37 -225 -80 -75 -43 -80 -45
-74 -26 3 6 7 39 9 72 5 60 13 119 21 143 5 14 21 16 29 3z"/>
<path d="M1916 1165 c-63 -84 -128 -187 -121 -194 7 -6 85 78 85 92 0 5 18 35
41 67 51 73 47 103 -5 35z"/>
<path d="M1819 1133 c-24 -32 -44 -60 -45 -62 -2 -1 -9 1 -16 5 -20 13 -214
21 -225 10 -4 -3 -6 -23 -6 -44 0 -74 -20 -221 -31 -225 -11 -5 -222 27 -260
39 -11 4 -35 17 -52 30 -17 13 -41 24 -52 24 -22 0 -30 -14 -13 -24 5 -3 14
-43 21 -89 12 -80 12 -84 -15 -151 -34 -86 -26 -99 42 -68 41 19 184 39 307
42 11 0 1 -105 -17 -193 -13 -60 -13 -69 0 -74 8 -3 23 3 34 13 14 15 19 37
22 100 2 62 8 89 26 117 l22 36 112 0 c62 1 139 4 172 7 33 3 110 7 170 7 61
1 116 6 123 10 8 5 12 3 12 -7 0 -19 19 -21 25 -3 4 8 21 11 51 8 31 -2 49 1
55 10 12 21 1 29 -41 29 l-40 0 20 33 c24 40 50 96 50 109 0 25 -26 -4 -59
-65 -20 -37 -42 -67 -48 -67 -20 0 -17 8 42 110 30 52 55 98 55 103 0 22 -22
0 -52 -50 -18 -32 -44 -76 -56 -98 -35 -59 -43 -66 -75 -57 l-27 7 41 63 c23
35 38 66 35 69 -8 8 -36 -29 -30 -39 3 -5 1 -8 -5 -8 -5 0 -20 -18 -32 -40
-16 -29 -29 -40 -46 -40 -13 0 -23 5 -23 10 0 13 31 62 44 72 6 4 7 10 3 14
-4 4 -25 -11 -47 -34 -21 -23 -44 -42 -51 -42 -11 0 -9 28 6 63 12 30 -9 18
-34 -18 -28 -42 -73 -51 -63 -12 5 21 4 21 -15 5 -19 -17 -63 -24 -76 -12 -9
10 67 129 176 276 31 43 57 82 57 88 0 16 -20 12 -26 -5 -4 -8 -13 -15 -22
-15 -8 0 -13 -3 -9 -6 3 -3 -19 -40 -49 -81 -30 -42 -54 -79 -54 -84 0 -4 -6
-14 -13 -21 -7 -7 -21 -30 -30 -50 -10 -21 -22 -38 -26 -38 -4 0 -13 -11 -19
-25 -8 -17 -20 -25 -37 -25 -25 0 -33 14 -15 25 6 4 8 11 5 16 -4 5 -1 9 6 9
7 0 9 3 5 7 -4 4 -18 -5 -32 -20 -14 -15 -31 -27 -38 -27 -34 0 41 139 120
225 54 59 124 155 124 171 0 26 -18 14 -61 -43z m-159 -98 c14 -16 -2 -69 -56
-192 -25 -55 -27 -57 -41 -38 -11 16 -13 34 -7 85 4 36 8 86 8 113 l1 47 41 0
c25 0 47 -6 54 -15z m80 -4 c-11 -21 -30 -37 -30 -25 0 8 30 44 37 44 2 0 -1
-9 -7 -19z m-325 -240 l90 -17 -2 -48 c-1 -27 -6 -53 -11 -58 -9 -9 -312 -42
-319 -34 -3 2 0 12 6 23 14 25 25 92 22 130 l-3 33 64 -6 c35 -4 104 -14 153
-23z m149 -58 c-8 -35 -24 -54 -24 -29 0 18 17 56 26 56 2 0 1 -12 -2 -27z
m76 -15 c32 20 52 16 45 -9 -6 -19 -4 -21 16 -15 59 18 72 19 81 3 7 -13 14
-14 35 -6 18 7 49 6 102 -3 l76 -13 -50 -6 c-27 -3 -123 -7 -213 -8 l-162 -2
17 35 c11 25 19 32 25 24 6 -10 11 -11 28 0z"/>
<path d="M2134 1123 c-20 -20 -144 -210 -144 -221 0 -4 -9 -18 -20 -32 -20
-26 -26 -50 -12 -50 5 0 14 12 21 27 20 43 149 238 171 258 11 10 20 22 20 27
0 13 -17 9 -36 -9z"/>
<path d="M2009 1055 c-30 -42 -63 -93 -75 -114 -11 -21 -30 -52 -42 -68 -25
-35 -27 -43 -12 -43 6 0 15 11 20 25 5 14 14 25 20 25 5 0 10 6 10 13 0 8 9
22 20 32 11 10 20 22 20 27 0 5 25 44 55 87 30 43 55 81 55 85 0 19 -23 -3
-71 -69z"/>
<path d="M2188 1083 c-9 -10 -23 -34 -33 -53 -10 -19 -24 -43 -33 -52 -8 -10
-11 -18 -6 -18 5 0 4 -4 -2 -8 -15 -9 -65 -104 -59 -111 6 -6 27 22 51 68 10
20 31 55 46 79 54 83 76 140 36 95z"/>
<path d="M2204 997 c-6 -12 -25 -49 -43 -81 -34 -64 -36 -85 -3 -39 25 35 72
123 72 134 0 17 -15 9 -26 -14z"/>
<path d="M1720 869 c0 -5 5 -7 10 -4 6 3 10 8 10 11 0 2 -4 4 -10 4 -5 0 -10
-5 -10 -11z"/>
<path d="M240 633 c-34 -8 -44 -45 -46 -173 -1 -69 -7 -141 -13 -160 -23 -72
-7 -79 48 -21 38 41 121 91 152 91 9 0 71 18 136 40 129 44 244 64 208 36 -55
-42 -56 -52 -11 -75 15 -7 53 -40 84 -73 32 -33 82 -77 113 -97 56 -38 159
-91 177 -91 5 0 9 -17 8 -37 -1 -29 3 -37 14 -34 180 47 202 51 405 67 125 11
194 14 429 19 121 2 224 9 229 14 5 5 7 16 4 24 -4 10 -19 13 -61 9 -46 -4
-56 -2 -56 11 0 9 -12 18 -27 21 -73 15 -274 36 -337 36 -96 -1 -352 8 -405
15 -24 3 -52 10 -63 16 -24 13 -48 5 -48 -15 0 -16 34 -23 145 -31 39 -3 90
-7 115 -10 25 -2 118 -7 208 -10 89 -4 193 -12 230 -19 63 -12 65 -13 32 -19
-19 -4 -75 -7 -125 -8 -49 -1 -121 -5 -160 -9 -38 -5 -108 -11 -155 -15 -47
-4 -98 -9 -115 -12 -72 -11 -191 -20 -203 -15 -15 5 -10 75 10 124 12 32 5 58
-16 58 -16 0 -21 -13 -31 -77 l-7 -42 -29 33 c-16 19 -36 53 -44 77 -9 24 -23
55 -32 69 -31 46 -103 191 -103 206 0 8 -10 14 -24 14 -13 0 -27 6 -29 13 -3
8 -14 1 -31 -19 -25 -30 -27 -31 -78 -23 -29 5 -88 7 -130 4 -43 -3 -97 -1
-120 5 -104 25 -180 49 -196 62 -24 21 -35 25 -52 21z m30 -52 c0 -10 92 -51
115 -51 9 0 29 -7 46 -15 21 -12 62 -16 142 -17 88 0 104 -2 74 -9 -72 -17
-341 -110 -375 -129 -18 -11 -34 -20 -35 -20 -2 0 10 243 12 248 3 6 21 1 21
-7z m606 -113 c8 -13 23 -41 34 -63 11 -22 27 -49 35 -59 8 -11 15 -27 15 -37
0 -9 7 -30 15 -45 21 -40 20 -57 -2 -45 -34 18 -193 177 -193 193 0 16 70 91
78 83 3 -3 11 -15 18 -27z"/>
</g>
</svg>
