<?xml version="1.0" standalone="no"?>
<!DOCTYPE svg PUBLIC "-//W3C//DTD SVG 20010904//EN"
 "http://www.w3.org/TR/2001/REC-SVG-20010904/DTD/svg10.dtd">
<svg version="1.0" xmlns="http://www.w3.org/2000/svg"
 width="342.000000pt" height="140.000000pt" viewBox="0 0 342.000000 140.000000"
 preserveAspectRatio="xMidYMid meet">
<metadata>
Created by potrace 1.16, written by Peter Selinger 2001-2019
</metadata>
<g transform="translate(0.000000,140.000000) scale(0.100000,-0.100000)"
fill="#000000" stroke="none">
<path d="M1780 1182 c-14 -1 -65 -12 -113 -24 -85 -20 -95 -25 -228 -124 -214
-160 -293 -212 -340 -224 -24 -7 -50 -17 -58 -23 -12 -11 -238 -13 -248 -3 -2
2 -1 22 3 44 6 36 10 41 42 49 49 12 54 33 7 33 -36 0 -36 0 -29 32 8 40 30
74 69 110 27 24 28 28 15 41 -12 12 -27 13 -78 6 -49 -7 -71 -6 -99 6 -32 13
-39 14 -51 1 -12 -12 -12 -17 3 -40 10 -15 15 -29 13 -32 -7 -6 -89 -13 -188
-14 -81 -2 -166 20 -186 48 -10 13 -15 14 -27 4 -12 -10 -16 -9 -21 5 -6 15
-8 15 -22 2 -12 -13 -13 -31 -5 -114 5 -55 13 -101 19 -103 6 -2 8 -37 5 -90
-3 -58 0 -112 11 -162 9 -41 16 -101 16 -132 0 -45 3 -58 15 -58 11 0 15 -12
15 -45 0 -61 18 -66 70 -22 73 62 147 94 232 99 74 6 77 5 82 -18 8 -29 36
-32 36 -3 0 13 10 23 30 30 36 13 39 26 8 31 -33 4 -37 52 -7 84 18 19 20 27
11 36 -16 16 -15 38 2 38 18 0 146 59 167 77 26 22 108 19 154 -5 22 -12 35
-21 29 -22 -12 0 -18 -150 -6 -150 175 -5 311 -36 457 -105 105 -50 115 -58
115 -91 0 -32 25 -61 41 -47 8 6 25 14 39 18 14 4 53 21 87 37 34 16 127 44
205 63 79 19 157 39 175 45 32 11 43 13 113 26 19 4 37 11 40 15 9 13 204 78
279 94 127 26 227 44 306 54 44 6 116 18 160 26 135 27 197 30 233 11 39 -20
42 -20 42 3 0 19 -29 35 -88 46 -18 4 -90 26 -160 50 -274 94 -562 191 -623
209 -35 11 -111 38 -169 62 -58 23 -133 50 -166 59 -61 17 -62 17 -83 -4 -12
-12 -26 -21 -32 -21 -6 0 -39 -21 -72 -46 -70 -52 -134 -87 -189 -102 -33 -9
-38 -8 -38 6 0 27 42 135 67 174 37 56 25 63 -87 50z m46 -59 c-7 -16 -26 -64
-41 -108 -14 -44 -31 -84 -36 -90 -13 -13 -12 181 1 206 8 14 21 19 51 19 l40
0 -15 -27z m-121 -148 c-1 -342 -6 -535 -14 -535 -16 0 -167 73 -214 104 l-48
31 4 87 c3 63 10 95 24 120 12 18 28 56 37 84 9 28 30 63 46 79 16 15 27 31
25 35 -2 4 -35 6 -72 5 -52 -1 -68 -5 -68 -16 0 -9 13 -15 38 -17 20 -2 37 -5
37 -8 0 -14 -66 -134 -74 -134 -5 0 -6 31 -2 70 4 45 2 70 -4 70 -5 0 -13 1
-16 3 -4 1 -8 -77 -9 -173 -1 -96 -3 -176 -4 -178 0 -2 -27 11 -58 29 -32 18
-77 42 -100 53 -24 11 -43 23 -43 27 0 3 16 26 35 50 115 147 134 172 137 178
4 10 187 145 217 161 37 19 73 29 101 27 l25 -2 0 -150z m572 99 c43 -15 83
-30 88 -34 6 -4 71 -26 145 -49 120 -38 192 -63 325 -115 30 -11 34 -15 17
-15 -28 -1 -189 37 -215 51 -9 5 -59 18 -110 30 -50 11 -119 27 -152 34 -33 8
-95 22 -137 31 -69 14 -76 18 -68 34 6 10 10 27 10 38 0 27 4 26 97 -5z m-144
-52 c-6 -42 6 -66 157 -318 38 -64 67 -121 64 -125 -7 -11 -54 -12 -54 -1 0 5
-23 35 -50 66 -51 58 -84 115 -119 204 -11 27 -33 70 -50 96 -16 26 -28 53
-25 59 4 12 63 55 76 56 3 1 4 -16 1 -37z m-1743 -28 l45 -10 -45 -13 c-25 -6
-60 -18 -77 -26 l-33 -15 0 55 0 56 33 -18 c17 -10 52 -23 77 -29z m424 31 c3
-8 0 -15 -6 -15 -7 0 -6 -5 2 -15 10 -12 10 -15 -3 -15 -10 0 -20 -13 -25 -32
-4 -18 -16 -34 -25 -36 -14 -3 -17 4 -17 38 0 34 4 42 25 50 27 10 33 25 13
33 -7 3 -3 6 8 6 12 1 24 -6 28 -14z m-114 -74 c0 -40 0 -40 -47 -47 -49 -8
-263 -10 -297 -3 -36 8 -28 -21 11 -38 25 -10 33 -18 23 -21 -8 -3 -31 -19
-50 -35 l-35 -31 -3 44 c-6 85 1 93 118 125 30 9 73 18 95 22 22 3 58 9 80 13
22 4 55 8 73 9 31 1 32 0 32 -38z m1560 19 c14 -4 24 -13 22 -19 -1 -7 9 -26
22 -44 22 -29 106 -205 106 -222 0 -4 13 -27 30 -51 24 -37 27 -44 12 -44 -9
0 -27 -3 -39 -6 -18 -5 -26 2 -49 48 -14 29 -36 66 -48 83 -23 33 -86 135 -86
141 0 2 -16 29 -35 61 -19 32 -35 62 -35 66 0 8 49 1 100 -13z m-224 2 c-3 -5
6 -25 20 -46 14 -20 36 -66 50 -102 37 -98 67 -154 114 -206 43 -49 45 -68 6
-68 -34 0 -80 55 -135 163 -27 54 -66 120 -85 148 -20 27 -36 54 -36 60 0 11
50 58 63 59 5 0 6 -4 3 -8z m-133 -54 c-22 -24 -49 -58 -59 -75 -10 -18 -22
-33 -25 -33 -8 0 -49 54 -49 64 0 5 154 82 170 85 2 1 -14 -18 -37 -41z m495
19 c7 0 25 -23 39 -51 14 -28 39 -70 55 -94 31 -46 93 -171 87 -177 -2 -2 -21
-6 -41 -10 -29 -6 -38 -4 -38 6 0 8 -9 20 -20 26 -15 10 -160 290 -160 310 0
3 15 1 33 -3 17 -4 38 -7 45 -7z m222 -54 c41 -13 95 -27 119 -30 25 -3 65
-13 90 -22 41 -15 48 -22 61 -61 9 -25 21 -55 28 -66 11 -20 9 -22 -23 -26
-28 -3 -35 0 -39 18 -8 31 -109 145 -119 135 -12 -12 15 -61 58 -108 19 -21
35 -43 35 -48 0 -9 -48 -22 -187 -50 -18 -4 -28 7 -64 73 -23 42 -62 106 -86
141 -23 35 -43 68 -43 73 0 13 80 0 170 -29z m-582 -134 c22 -42 42 -87 45
-100 4 -14 22 -43 42 -66 19 -23 32 -44 28 -46 -5 -3 -26 -7 -48 -8 -34 -3
-42 0 -53 21 -7 14 -24 43 -38 65 -28 46 -114 220 -114 232 0 5 12 21 26 36
l25 28 25 -43 c13 -24 41 -77 62 -119z m-1330 66 l-3 -50 -180 -1 c-121 -1
-180 -5 -183 -12 -3 -10 18 -19 61 -26 24 -3 18 -15 -24 -53 -42 -38 -54 -40
-69 -14 -20 39 -11 67 34 109 67 61 109 79 211 86 49 4 91 9 93 11 3 2 18 3
34 2 28 -2 29 -3 26 -52z m49 23 c-3 -8 -6 -5 -6 6 -1 11 2 17 5 13 3 -3 4
-12 1 -19z m494 4 c-5 -10 -27 -37 -48 -61 l-39 -44 -27 18 c-31 20 -35 35 -9
35 9 0 40 16 67 34 57 40 70 44 56 18z m516 -48 c10 -14 33 -43 52 -65 20 -23
42 -68 56 -111 13 -40 27 -81 31 -91 6 -16 2 -18 -32 -15 -33 3 -41 8 -55 38
-51 109 -72 150 -80 150 -5 0 -9 27 -9 60 0 65 9 74 37 34z m158 -64 c16 -41
42 -96 57 -123 15 -26 31 -59 34 -72 5 -22 3 -25 -19 -25 -44 0 -74 35 -102
119 -14 43 -32 87 -39 97 -12 16 -11 23 7 56 12 20 24 34 28 30 3 -4 18 -41
34 -82z m1075 54 c14 -7 19 -13 13 -14 -21 0 -15 -28 9 -44 26 -19 24 -22 -23
-31 -33 -6 -38 -4 -57 27 -11 18 -24 46 -28 62 -7 28 -6 28 27 21 19 -4 45
-13 59 -21z m122 -35 c7 -43 -13 -47 -57 -12 l-35 28 37 6 c21 3 41 7 44 8 4
0 9 -13 11 -30z m83 2 l50 -19 -37 -7 c-46 -9 -64 -3 -71 24 -6 26 -4 26 58 2z
m-2311 -9 c4 -7 -101 -62 -119 -62 -13 0 -3 50 13 59 21 13 99 14 106 3z
m-184 -67 l0 -54 -160 0 c-88 1 -160 5 -160 9 0 4 24 24 53 44 49 34 61 37
153 45 54 5 102 9 107 10 4 0 7 -24 7 -54z m581 -70 c71 -43 72 -58 3 -36 -16
5 -50 12 -76 16 -47 6 -48 7 -48 42 0 32 2 35 24 29 13 -3 57 -26 97 -51z
m480 -21 c17 -36 29 -67 27 -69 -2 -1 -15 -5 -29 -9 -19 -4 -29 -1 -33 10 -8
20 -8 134 0 134 3 0 19 -30 35 -66z m-1356 -6 l30 -4 -26 -11 c-14 -6 -39 -23
-57 -38 l-32 -27 0 41 c0 41 24 69 45 51 5 -4 24 -10 40 -12z m292 -44 c-3
-20 -8 -38 -10 -40 -2 -2 -73 -7 -158 -11 -143 -6 -153 -5 -140 10 7 10 37 24
65 32 28 9 62 22 76 30 15 9 54 14 99 15 l74 0 -6 -36z m1563 -26 c-14 -5 -75
-20 -136 -33 -61 -12 -172 -46 -247 -74 -74 -28 -140 -51 -145 -51 -14 0 -22
52 -11 72 5 9 15 15 23 12 7 -3 42 0 77 6 35 6 105 17 154 25 50 7 128 22 175
33 47 11 96 20 110 20 l25 1 -25 -11z m-1810 -62 c0 -2 -17 -15 -37 -27 -21
-13 -44 -27 -50 -32 -10 -6 -13 1 -13 28 l0 35 50 0 c28 0 50 -2 50 -4z"/>
<path d="M2576 871 c-3 -4 4 -19 15 -32 12 -13 37 -51 56 -84 40 -69 71 -105
90 -105 22 0 15 24 -16 56 -15 16 -36 45 -46 64 -22 43 -74 110 -85 110 -5 0
-11 -4 -14 -9z"/>
</g>
</svg>
