<?xml version="1.0" standalone="no"?>
<!DOCTYPE svg PUBLIC "-//W3C//DTD SVG 20010904//EN"
 "http://www.w3.org/TR/2001/REC-SVG-20010904/DTD/svg10.dtd">
<svg version="1.0" xmlns="http://www.w3.org/2000/svg"
 width="328.000000pt" height="178.000000pt" viewBox="0 0 328.000000 178.000000"
 preserveAspectRatio="xMidYMid meet">
<metadata>
Created by potrace 1.16, written by Peter Selinger 2001-2019
</metadata>
<g transform="translate(0.000000,178.000000) scale(0.100000,-0.100000)"
fill="#000000" stroke="none">
<path d="M1940 1590 c-39 -55 -78 -104 -88 -109 -29 -15 -312 -5 -699 25 -126
10 -145 11 -293 19 -80 3 -170 11 -200 16 -48 8 -57 7 -74 -11 -17 -17 -20
-38 -26 -162 -6 -132 -5 -144 13 -160 16 -15 21 -16 40 -4 12 8 51 17 87 20
36 4 90 11 120 16 87 15 369 51 435 56 33 2 72 6 88 10 34 7 37 -13 3 -26 -14
-5 -32 -20 -41 -34 -13 -19 -28 -26 -71 -32 -29 -3 -52 -9 -50 -13 2 -3 -12
-5 -32 -3 -21 2 -100 -3 -177 -11 -77 -8 -147 -15 -155 -16 -67 -5 -124 -18
-128 -28 -5 -18 21 -20 103 -8 110 15 139 18 290 30 44 4 91 9 105 12 96 18
100 16 76 -42 -10 -23 -23 -36 -40 -40 -14 -3 -36 -7 -48 -9 -13 -3 -79 -8
-148 -11 -69 -4 -128 -9 -132 -12 -5 -2 -8 2 -8 9 0 10 -2 10 -8 1 -9 -15
-176 -32 -196 -21 -8 5 -19 2 -27 -8 -18 -22 5 -35 51 -29 60 7 132 14 220 20
47 4 123 10 170 16 108 11 130 11 130 -1 0 -5 -38 -88 -84 -185 l-85 -175 -83
-1 c-172 -1 -279 -7 -328 -19 -59 -14 -57 -33 3 -25 65 9 387 18 387 11 0 -4
-6 -22 -14 -40 l-14 -33 -173 -7 c-191 -8 -213 -11 -205 -31 3 -9 -25 -31 -84
-65 -50 -28 -90 -55 -90 -59 0 -10 -161 -139 -230 -184 -30 -20 -67 -39 -82
-43 -42 -9 -34 -33 27 -87 70 -61 108 -76 135 -52 11 10 20 27 20 38 0 21 30
77 42 77 4 0 8 5 8 11 0 6 9 24 20 39 11 16 34 56 50 89 34 69 43 70 86 9 16
-23 47 -57 68 -77 21 -20 57 -55 79 -79 25 -26 49 -42 64 -42 31 0 29 8 -12
52 -28 30 -34 43 -29 63 4 17 2 27 -9 31 -9 3 -13 12 -11 19 3 7 1 22 -4 32
-5 10 -13 37 -17 59 l-6 42 133 4 c73 2 134 3 136 2 2 -1 -6 -20 -17 -42 l-20
-39 -97 -7 c-54 -4 -100 -9 -103 -11 -11 -12 12 -16 93 -16 47 -1 86 -3 86 -6
0 -6 -46 -75 -82 -123 -27 -37 -16 -49 43 -48 20 0 42 -2 47 -6 18 -11 143 -9
155 3 11 11 15 24 23 76 3 17 12 73 21 125 8 52 17 107 19 121 2 15 8 46 14
70 6 24 15 63 20 87 13 59 18 65 51 58 18 -3 33 0 42 9 8 7 41 21 73 31 32 9
68 23 79 30 28 18 98 27 89 11 -12 -20 -78 -102 -89 -109 -6 -4 -2 -15 11 -27
15 -14 43 -22 93 -27 39 -3 71 -11 71 -16 0 -5 -7 -25 -15 -45 -20 -47 -19
-63 4 -63 24 0 36 17 33 45 -3 28 13 49 32 42 8 -3 27 -24 41 -47 23 -36 27
-39 46 -28 18 11 23 10 43 -15 12 -15 25 -27 29 -27 4 0 17 -9 29 -20 12 -11
25 -20 30 -20 8 0 9 3 12 32 0 7 -9 23 -21 37 -29 30 -29 57 -2 118 12 27 25
57 30 68 4 11 22 53 40 93 l32 72 48 0 c53 0 57 -5 35 -53 -8 -18 -30 -75 -50
-127 -19 -52 -46 -120 -60 -150 -29 -62 -32 -85 -12 -93 23 -9 43 14 66 73 25
63 85 182 113 222 10 16 15 28 11 28 -4 0 0 8 8 18 8 9 22 34 31 54 20 43 29
47 121 50 64 2 69 1 88 -26 12 -15 38 -38 59 -52 21 -13 46 -39 54 -57 17 -37
50 -82 83 -115 28 -28 28 -31 -5 -89 -111 -202 -131 -253 -95 -253 12 0 36 38
81 130 34 71 69 131 76 134 8 3 19 -2 25 -10 15 -18 40 -18 40 -1 0 7 -9 23
-20 35 -19 20 -20 24 -5 49 9 16 27 48 40 72 14 25 56 86 94 136 38 51 81 114
95 141 14 27 25 45 26 41 0 -4 21 32 46 80 25 48 52 93 60 99 8 6 14 16 14 22
0 7 18 41 40 77 22 36 40 68 40 71 0 3 19 31 43 62 58 77 60 81 47 97 -8 10
-26 12 -65 8 -31 -3 -60 -1 -67 4 -14 11 -89 10 -108 -2 -6 -4 -31 -4 -54 -1
-28 4 -51 2 -69 -7 -38 -20 -251 -22 -297 -4 -19 8 -55 13 -80 12 -25 -1 -116
-5 -202 -9 l-157 -8 -15 54 c-14 53 -16 124 -3 145 4 6 0 13 -8 17 -10 4 -36
-25 -85 -94z m44 -73 l14 -47 -42 0 c-24 0 -46 3 -49 6 -3 4 8 26 25 50 17 24
33 42 35 41 1 -2 9 -25 17 -50z m-954 -42 c263 -17 404 -24 627 -34 162 -6
193 -16 161 -48 -12 -11 -39 -17 -90 -20 -40 -2 -156 -12 -258 -23 -102 -11
-216 -22 -255 -25 -38 -3 -99 -10 -135 -16 -116 -17 -394 -49 -430 -49 l-35 0
4 102 c1 57 7 110 11 118 10 18 37 18 400 -5z m2039 -85 c-21 -32 -39 -61 -39
-63 0 -3 -28 -53 -63 -113 -35 -60 -80 -140 -101 -179 -51 -93 -145 -235 -156
-235 -5 0 -1 19 9 43 159 361 205 469 217 507 21 67 37 82 101 95 32 7 61 11
65 8 4 -2 -11 -30 -33 -63z m-706 53 c-7 -2 -21 -2 -30 0 -10 3 -4 5 12 5 17
0 24 -2 18 -5z m562 -3 c-4 -6 -8 -21 -11 -35 -2 -13 -25 -77 -50 -142 -50
-129 -55 -140 -124 -288 -25 -55 -57 -129 -70 -165 -26 -69 -75 -168 -93 -185
-7 -7 -8 -5 -4 7 3 9 3 19 -1 22 -3 4 -7 12 -8 19 -1 7 -9 40 -18 73 -20 77
-20 100 -1 108 21 8 19 20 -7 31 -21 9 -23 16 -23 100 0 50 -3 91 -7 93 -16 5
-28 2 -28 -8 0 -18 -72 -81 -153 -134 -111 -72 -123 -78 -156 -74 l-29 3 18
40 c51 109 72 153 88 180 60 103 74 124 87 129 20 7 19 52 -1 60 -9 3 -29 6
-46 6 -16 0 -43 8 -59 17 -31 19 -48 11 -53 -23 -3 -23 -20 -29 -33 -12 -11
13 -63 106 -63 112 0 3 202 31 212 28 4 -1 51 3 105 8 55 5 182 12 284 16 101
3 188 10 194 15 13 13 58 11 50 -1z m-929 -17 c16 -16 15 -18 -12 -25 -29 -8
-74 12 -74 32 0 17 68 11 86 -7z m264 6 c-208 -30 -210 -30 -210 -3 0 11 23
14 133 13 108 -1 122 -3 77 -10z m-180 -156 c0 -2 -22 15 -49 39 -41 37 -46
45 -32 54 13 10 21 4 48 -38 18 -27 33 -52 33 -55z m-198 -5 c-46 -97 -59
-126 -105 -234 -19 -43 -49 -109 -67 -146 -32 -66 -33 -68 -71 -68 l-38 0 23
53 c77 173 169 361 178 365 5 2 8 12 8 23 0 37 38 84 72 89 18 3 34 5 36 4 2
-1 -14 -40 -36 -86z m-95 73 c17 -1 3 -38 -112 -276 -29 -60 -63 -134 -75
-162 -12 -29 -27 -53 -33 -53 -6 0 -19 -8 -29 -17 -16 -14 -46 -18 -175 -21
l-156 -4 6 23 c3 13 16 61 30 107 13 45 23 82 20 82 -7 0 59 121 93 170 17 25
38 63 46 85 15 39 17 40 74 47 33 4 104 10 159 13 55 4 101 9 103 10 2 2 11 2
20 0 9 -2 23 -4 29 -4z m287 -134 l59 -58 -36 -97 c-19 -53 -44 -122 -55 -152
l-20 -55 -47 -3 c-42 -3 -47 -1 -42 15 13 41 80 199 89 211 6 6 7 12 3 12 -5
0 -1 8 7 18 16 17 48 76 48 87 0 3 -11 5 -25 5 -14 0 -25 -6 -25 -12 0 -7 -9
-31 -19 -53 -34 -69 -60 -132 -67 -161 -4 -16 -13 -38 -20 -49 -8 -11 -14 -27
-14 -36 0 -23 -28 -44 -61 -45 l-27 0 23 50 c24 55 115 245 149 313 15 32 18
45 9 54 -13 13 -33 4 -33 -15 0 -12 -37 -97 -150 -343 -28 -60 -31 -63 -64
-63 -20 0 -36 2 -36 5 0 5 39 94 75 170 13 28 49 104 80 170 31 66 62 126 67
133 12 14 20 8 132 -101z m198 33 c15 0 18 -3 10 -12 -12 -16 -142 -272 -142
-282 0 -3 -9 -26 -21 -51 -14 -30 -27 -45 -40 -45 -18 0 -19 2 -4 30 9 17 14
30 11 30 -3 0 33 106 63 183 6 15 16 27 23 27 7 0 19 4 27 9 12 8 12 12 2 25
-23 28 7 103 36 91 8 -3 24 -5 35 -5z m-108 -15 c-6 -16 -24 -21 -24 -7 0 11
11 22 21 22 5 0 6 -7 3 -15z m301 -293 c4 -48 3 -52 -18 -53 -12 -1 -31 -3
-42 -4 -11 -1 -29 -4 -40 -5 -11 -1 -31 -2 -45 -1 l-25 1 26 23 c29 26 56 44
84 56 12 5 27 16 34 25 18 22 20 19 26 -42z m9 -94 c2 -7 11 -42 21 -78 9 -36
19 -78 21 -95 4 -28 4 -29 -7 -7 -7 12 -16 22 -20 22 -4 0 -16 16 -25 36 -9
20 -34 46 -55 60 -21 13 -43 32 -49 43 -9 17 -6 20 18 24 58 9 93 7 96 -5z
m-394 -24 c0 -10 -72 -144 -81 -149 -4 -3 0 14 11 37 10 24 25 60 34 81 8 20
20 37 25 37 6 0 11 -2 11 -6z m-216 -41 c-9 -21 -26 -63 -39 -93 -21 -52 -56
-130 -62 -139 -5 -8 -53 42 -53 56 0 7 21 55 47 107 47 94 53 101 106 105 16
1 16 -1 1 -36z m-94 20 c0 -3 -19 -44 -42 -90 -40 -78 -43 -82 -60 -66 -24 21
-23 40 7 107 23 53 27 56 60 56 19 0 35 -3 35 -7z m-122 -38 c-11 -25 -13 -25
-25 -9 -18 25 -16 32 10 36 29 5 30 5 15 -27z m-373 16 c22 -5 33 -10 25 -11
-38 -4 -49 -9 -69 -29 -12 -12 -32 -21 -46 -21 -23 0 -24 2 -12 28 19 44 29
48 102 33z m249 -47 c-9 -22 -19 -52 -23 -69 -6 -26 -11 -30 -40 -30 -18 -1
-35 3 -38 8 -2 4 13 29 34 55 76 93 97 104 67 36z m-402 -26 c-24 -53 -84
-293 -99 -393 -3 -22 -8 -60 -12 -85 l-7 -45 -69 3 c-39 2 -74 7 -78 12 -10 9
6 44 34 73 10 11 16 24 13 28 -2 4 0 10 5 13 5 4 35 59 66 124 32 64 80 163
107 220 28 57 52 101 55 98 3 -3 -4 -24 -15 -48z m467 -9 c13 -37 0 -69 -29
-69 -23 0 -26 21 -9 69 14 39 24 39 38 0z m41 -100 c0 -6 -4 -7 -10 -4 -5 3
-10 11 -10 16 0 6 5 7 10 4 6 -3 10 -11 10 -16z m-640 -41 c0 -3 -9 -22 -20
-45 -23 -48 -41 -53 -190 -53 -61 0 -100 -4 -108 -12 -9 -9 -12 -9 -13 3 0 7
-2 33 -5 56 l-5 42 93 3 c51 2 128 4 171 6 42 2 77 2 77 0z m-385 -157 c4 -24
14 -59 21 -77 19 -46 18 -57 -5 -42 -11 7 -17 16 -15 20 3 5 -16 32 -41 60
l-47 52 32 29 c38 33 43 29 55 -42z m-215 -105 c-19 -50 -104 -176 -119 -176
-8 0 -71 57 -71 65 0 2 38 30 85 61 47 31 88 61 91 65 12 20 23 8 14 -15z"/>
<path d="M905 939 c-88 -4 -178 -13 -200 -20 l-40 -12 30 -9 c17 -5 44 -6 60
-4 17 3 102 8 190 12 88 3 164 9 168 11 15 9 1 26 -24 28 -13 1 -96 -2 -184
-6z"/>
<path d="M837 799 c-7 -4 -46 -9 -87 -12 -125 -9 -162 -17 -149 -33 6 -8 21
-12 33 -9 11 2 71 7 131 10 230 13 325 26 325 45 0 11 -234 9 -253 -1z"/>
</g>
</svg>
