<?xml version="1.0" standalone="no"?>
<!DOCTYPE svg PUBLIC "-//W3C//DTD SVG 20010904//EN"
 "http://www.w3.org/TR/2001/REC-SVG-20010904/DTD/svg10.dtd">
<svg version="1.0" xmlns="http://www.w3.org/2000/svg"
 width="132.000000pt" height="145.000000pt" viewBox="0 0 132.000000 145.000000"
 preserveAspectRatio="xMidYMid meet">
<metadata>
Created by potrace 1.16, written by Peter Selinger 2001-2019
</metadata>
<g transform="translate(0.000000,145.000000) scale(0.100000,-0.100000)"
fill="#000000" stroke="none">
<path d="M615 1318 c-11 -6 -23 -16 -27 -21 -3 -6 -4 -67 -1 -137 7 -143 0
-193 -28 -221 -17 -17 -34 -19 -192 -19 -143 0 -177 3 -196 16 -12 9 -26 12
-30 8 -4 -5 -13 -51 -20 -103 -10 -80 -10 -97 3 -109 12 -13 18 -11 48 11 51
39 139 75 210 86 200 32 406 53 526 55 53 1 75 5 82 16 7 12 34 15 132 15 103
0 123 2 123 15 0 11 -10 15 -35 14 -62 -2 -373 -5 -445 -4 -68 1 -69 2 -46 17
32 23 66 80 90 149 17 52 18 61 5 98 -19 52 -48 83 -93 97 -20 6 -40 15 -45
20 -13 12 -37 11 -61 -3z m68 -53 c89 -39 108 -100 63 -198 -24 -52 -75 -109
-109 -120 -16 -6 -18 -2 -12 36 9 70 10 168 1 240 -4 37 -6 67 -3 67 2 0 30
-11 60 -25z m30 -362 c-7 -2 -21 -2 -30 0 -10 3 -4 5 12 5 17 0 24 -2 18 -5z
m-348 -16 c151 1 161 0 90 -8 -89 -10 -199 -40 -259 -71 l-39 -20 6 39 c4 21
7 46 7 56 0 12 4 16 12 10 7 -4 89 -7 183 -6z"/>
<path d="M126 483 c-3 -10 -1 -47 3 -83 5 -36 7 -86 5 -112 -4 -61 6 -61 82
-5 50 36 73 46 149 60 123 24 165 36 165 49 0 11 -90 5 -123 -8 -12 -4 -14 0
-10 15 3 13 1 21 -7 21 -17 0 -131 -65 -176 -100 -20 -17 -38 -29 -40 -28 -1
2 -5 39 -9 82 -7 75 -6 79 11 71 18 -8 196 -21 344 -25 50 -1 60 -3 43 -10
-26 -10 -31 -30 -8 -30 25 0 28 -65 9 -180 -19 -113 -15 -140 19 -127 13 5 27
117 36 305 1 7 15 12 36 12 24 0 42 -8 60 -27 35 -37 45 -64 45 -124 0 -47 -3
-53 -48 -97 -27 -26 -70 -59 -95 -72 -47 -25 -62 -50 -29 -50 25 0 131 66 170
106 40 41 52 72 52 130 0 47 -18 92 -51 128 -11 11 -16 23 -12 27 15 14 199
32 331 33 115 1 132 3 132 17 0 18 -26 33 -41 23 -5 -3 -78 -8 -161 -10 -83
-3 -155 -7 -159 -9 -9 -6 -364 -6 -499 0 -128 5 -188 13 -195 26 -10 14 -23
11 -29 -8z"/>
</g>
</svg>
