<?xml version="1.0" standalone="no"?>
<!DOCTYPE svg PUBLIC "-//W3C//DTD SVG 20010904//EN"
 "http://www.w3.org/TR/2001/REC-SVG-20010904/DTD/svg10.dtd">
<svg version="1.0" xmlns="http://www.w3.org/2000/svg"
 width="296.000000pt" height="142.000000pt" viewBox="0 0 296.000000 142.000000"
 preserveAspectRatio="xMidYMid meet">
<metadata>
Created by potrace 1.16, written by Peter Selinger 2001-2019
</metadata>
<g transform="translate(0.000000,142.000000) scale(0.100000,-0.100000)"
fill="#000000" stroke="none">
<path d="M475 1317 c-20 -17 -28 -35 -32 -77 -4 -30 -6 -64 -6 -75 1 -11 2
-53 3 -93 1 -50 6 -75 15 -78 7 -3 48 13 91 34 95 48 168 78 209 86 l30 6 -29
-16 c-25 -14 -27 -18 -13 -25 9 -5 25 -5 39 0 13 5 84 14 158 21 74 6 198 17
275 25 77 7 180 14 229 15 49 0 93 3 98 6 44 27 -110 32 -317 10 -71 -8 -179
-17 -240 -21 -111 -7 -144 -11 -180 -22 -14 -3 -17 -2 -10 5 6 6 46 18 90 26
44 9 109 22 145 30 68 15 307 30 400 25 100 -5 403 -2 485 5 80 7 191 20 295
34 30 4 89 5 130 2 85 -7 90 -6 90 21 0 16 -7 19 -55 19 -31 0 -97 -4 -148
-10 -51 -5 -164 -12 -252 -15 -88 -2 -176 -7 -195 -10 -84 -12 -223 -12 -325
0 -60 7 -213 16 -340 20 -126 3 -266 10 -310 15 -44 5 -118 12 -165 15 -60 5
-93 12 -112 26 -27 19 -27 19 -53 -4z m164 -62 c47 -3 89 -9 94 -12 5 -3 67
-7 136 -8 209 -4 225 -5 219 -11 -6 -5 -52 -15 -303 -64 -60 -12 -144 -36
-185 -54 -42 -18 -80 -31 -85 -29 -10 3 -9 154 0 181 3 7 13 11 22 8 10 -2 56
-7 102 -11z"/>
<path d="M2588 1263 c-16 -4 -23 -22 -19 -47 3 -16 -51 -171 -122 -350 l-72
-179 -18 42 c-18 41 -18 43 0 56 17 13 17 14 -8 23 -35 14 -60 56 -63 106 -2
41 -5 44 -38 31 -13 -5 -21 1 -31 27 -12 28 -12 37 1 63 8 17 21 38 30 48 8 9
12 20 8 25 -7 7 -26 -13 -53 -54 -10 -16 -13 -17 -22 -4 -7 10 -6 19 3 30 8 8
17 26 20 40 l7 25 -24 -26 -24 -27 -15 27 c-9 14 -13 32 -10 40 9 25 -22 6
-43 -27 -34 -53 -51 -41 -46 33 l2 30 -23 -30 c-13 -16 -33 -41 -45 -55 l-22
-25 -7 43 c-7 47 -29 56 -43 19 -5 -13 -16 -29 -25 -36 -13 -11 -17 -10 -26
13 -13 35 -45 34 -78 -4 -31 -35 -38 -37 -45 -10 -3 11 -11 20 -17 20 -9 0
-11 -12 -6 -40 12 -75 -50 -125 -73 -59 -6 18 -11 43 -11 55 0 13 -5 24 -11
24 -8 0 -10 -17 -6 -56 l6 -55 -32 5 c-18 2 -53 8 -80 11 -26 4 -50 11 -53 16
-8 14 -24 0 -24 -22 0 -10 -7 -19 -15 -19 -8 0 -15 -4 -15 -10 0 -5 3 -10 8
-10 4 0 7 -27 6 -61 0 -33 3 -62 7 -64 4 -3 46 14 94 36 47 22 89 39 91 36 3
-3 -13 -33 -35 -67 -23 -35 -41 -67 -41 -72 0 -23 19 -1 59 67 25 41 47 75 50
75 3 0 15 -26 27 -57 12 -32 24 -65 28 -74 7 -15 -8 -18 -131 -23 -76 -4 -168
-9 -205 -12 -38 -3 -68 -2 -68 2 0 3 9 22 21 40 11 19 18 34 14 34 -3 0 8 15
24 33 17 17 31 35 31 40 0 12 -17 8 -30 -8 -7 -9 -20 -13 -29 -10 -9 2 -29 1
-46 -4 l-30 -9 38 -1 c35 -1 37 -3 27 -21 -7 -13 -21 -20 -40 -20 -36 0 -49
-18 -15 -22 24 -3 22 -6 -38 -70 l-62 -67 -123 -5 c-122 -5 -142 -9 -142 -26
0 -6 33 -7 77 -4 43 3 99 7 124 8 l46 3 -18 -36 c-39 -77 -48 -83 -131 -83
-41 -1 -80 2 -87 6 -21 13 -159 184 -166 205 -3 12 -11 21 -17 21 -6 0 -8 3
-5 7 13 12 172 31 285 32 62 1 123 6 135 11 24 10 -283 5 -385 -6 -49 -6 -61
-11 -82 -38 -37 -49 -101 -89 -132 -83 -16 3 -27 0 -31 -9 -3 -8 -11 -14 -18
-14 -6 0 -41 -22 -76 -48 -60 -45 -221 -153 -264 -178 -39 -22 -42 -42 -10
-70 17 -15 40 -33 52 -41 13 -9 23 -20 23 -27 0 -6 9 -17 19 -23 24 -15 44 5
47 47 1 16 12 38 23 49 12 12 21 25 21 29 0 5 8 17 18 28 9 10 34 40 55 66 57
72 123 138 136 138 7 0 9 5 6 10 -9 15 -1 13 67 -20 34 -17 65 -30 70 -30 5 0
38 -20 73 -44 36 -24 95 -59 131 -77 38 -18 69 -40 71 -50 3 -11 31 -33 62
-51 31 -17 67 -40 80 -50 36 -27 42 -22 35 30 -5 40 0 62 30 140 19 51 52 125
74 165 l38 72 99 2 c57 1 85 -1 66 -5 -19 -4 -36 -13 -39 -21 -3 -10 4 -12 37
-6 22 4 41 5 41 2 0 -3 -48 -22 -107 -42 -101 -36 -157 -65 -124 -65 26 0 189
59 242 88 30 16 72 34 94 41 22 7 47 15 55 18 8 3 53 7 99 9 76 3 85 1 102
-19 l19 -22 6 22 c6 23 19 27 154 39 138 13 143 12 180 -15 19 -13 37 -28 40
-31 9 -11 103 -70 112 -70 15 0 8 -40 -11 -59 -11 -11 -17 -21 -15 -24 5 -4
-52 -142 -85 -207 -23 -46 -46 -144 -37 -165 10 -26 31 -12 32 22 0 17 8 42
17 57 9 14 17 33 17 42 0 28 22 87 45 119 12 17 38 60 59 98 20 37 44 67 51
67 8 0 15 8 15 18 0 10 14 39 30 65 17 26 30 50 30 52 0 3 25 45 56 93 31 48
77 125 101 172 25 47 51 92 59 101 8 8 14 20 14 26 0 6 18 26 40 44 22 18 40
39 40 46 0 20 -32 30 -83 26 -34 -2 -53 1 -63 12 -15 15 -33 17 -66 8z m152
-58 c0 -2 -18 -33 -41 -67 -22 -35 -55 -94 -73 -133 -25 -54 -192 -331 -212
-354 -2 -2 -7 -2 -10 2 -8 8 37 142 96 287 26 63 57 147 70 187 l23 72 66 4
c36 2 69 4 74 5 4 1 7 0 7 -3z m-899 -111 c5 -16 1 -32 -17 -58 -29 -43 -37
-44 -52 -11 -16 35 -15 39 11 69 26 30 46 30 58 0z m198 -29 c0 -5 -10 -23
-24 -39 l-24 -29 -9 34 c-7 28 -5 38 12 60 21 26 21 26 33 5 7 -12 12 -25 12
-31z m-105 13 c7 -19 4 -32 -10 -51 -24 -33 -27 -33 -40 2 -9 22 -8 34 5 55
19 31 33 29 45 -6z m196 7 c7 -20 6 -32 -6 -50 -18 -28 -29 -31 -40 -13 -14
22 -12 52 4 71 21 23 31 22 42 -8z m-278 -87 c-6 -6 -15 -7 -22 -3 -8 5 -6 13
7 27 16 18 18 19 21 3 2 -9 -1 -22 -6 -27z m205 5 c-11 -10 -26 8 -20 23 5 15
7 14 15 -1 6 -9 7 -19 5 -22z m-102 -2 c-9 -16 -25 -3 -18 15 4 10 9 12 15 6
6 -6 7 -15 3 -21z m-217 4 c-2 -5 -11 -11 -22 -12 -16 -3 -17 -1 -6 12 14 16
34 16 28 0z m-158 -39 c25 -8 37 -15 27 -15 -10 -1 -48 -15 -84 -32 -69 -32
-83 -30 -83 17 0 45 54 57 140 30z m560 -7 c-10 -17 -14 -18 -27 -8 -13 12
-13 14 4 20 30 12 34 10 23 -12z m-70 -1 c0 -7 -7 -22 -15 -32 -16 -22 -29
-15 -40 22 -6 19 -3 22 24 22 18 0 31 -5 31 -12z m140 -37 c0 -4 -13 -15 -30
-24 -28 -17 -29 -17 -39 2 -8 15 -6 25 11 46 l22 28 18 -23 c10 -12 18 -25 18
-29z m-450 34 c0 -3 -11 -28 -25 -55 -14 -28 -21 -50 -15 -50 6 0 14 10 19 23
5 13 16 28 24 35 12 11 16 7 21 -23 5 -23 3 -42 -5 -51 -9 -11 -8 -14 5 -14
10 0 16 -9 16 -25 0 -21 -5 -25 -29 -25 -38 0 -55 18 -80 85 -22 58 -26 87
-14 98 8 8 83 9 83 2z m101 -12 c-19 -32 -41 -57 -46 -52 -3 3 -8 20 -11 37
-6 31 -6 32 30 32 32 0 35 -2 27 -17z m93 -14 c-17 -33 -31 -30 -39 9 -3 19 1
22 26 22 l30 0 -17 -31z m-55 -28 c6 -21 8 -46 5 -55 -4 -12 -2 -15 9 -11 8 4
17 -1 20 -9 13 -34 29 -16 23 26 -4 30 -1 49 10 67 l17 24 17 -34 c12 -23 15
-39 9 -51 -12 -23 -12 -23 17 -26 22 -2 25 1 21 20 -6 22 6 52 29 75 21 21 28
-21 10 -56 -20 -38 -21 -36 11 -39 34 -3 37 -6 19 -25 -9 -9 -46 -17 -98 -22
-46 -3 -100 -8 -121 -10 -55 -5 -65 1 -72 46 -6 32 -2 45 22 79 15 22 31 40
34 40 3 0 11 -18 18 -39z m350 -57 c12 -19 21 -37 21 -40 0 -6 -76 -5 -94 2
-23 9 -20 39 7 57 33 24 43 21 66 -19z m55 -79 c3 -13 9 -31 12 -40 5 -11 -6
-8 -37 13 -24 17 -48 28 -54 24 -5 -3 -5 1 2 9 6 8 25 15 41 16 24 2 31 -3 36
-22z m-1602 -59 c30 -31 59 -68 82 -105 14 -21 39 -49 56 -61 60 -43 20 -32
-47 13 -38 25 -97 58 -131 73 -34 14 -62 29 -62 33 1 7 72 60 82 61 4 0 13 -6
20 -14z m473 -115 c-19 -39 -45 -95 -56 -124 -29 -74 -36 -80 -65 -61 -19 13
-22 22 -17 42 3 15 12 32 19 39 7 7 43 51 80 98 37 47 69 83 71 81 2 -2 -12
-36 -32 -75z m-777 -59 c-34 -44 -83 -105 -107 -137 l-44 -57 -36 37 -36 36
26 22 c48 40 83 65 161 117 43 28 80 56 84 61 3 6 8 8 11 5 3 -2 -24 -40 -59
-84z m1973 55 c-10 -9 -11 -8 -5 6 3 10 9 15 12 12 3 -3 0 -11 -7 -18z m-1360
-106 c-37 -32 -46 -32 -53 -3 -4 16 1 19 30 20 19 1 37 4 40 7 3 3 8 5 11 5 3
0 -9 -13 -28 -29z"/>
<path d="M1125 1069 c-49 -4 -157 -10 -240 -13 -155 -7 -219 -19 -212 -39 3
-7 11 -10 18 -8 8 2 57 8 109 12 52 5 147 13 210 19 63 6 179 15 258 20 79 4
147 11 150 15 8 7 -147 4 -293 -6z"/>
<path d="M1015 982 c-2 -2 -34 -6 -72 -8 -156 -11 -298 -30 -295 -39 3 -12
122 -9 174 6 21 5 105 12 186 15 81 3 158 7 172 9 14 1 67 3 119 4 52 0 91 4
87 9 -7 7 -364 11 -371 4z"/>
<path d="M939 876 c-2 -2 -60 -6 -129 -10 -151 -7 -163 -9 -168 -25 -3 -10 9
-11 49 -7 30 3 72 8 94 10 141 14 175 19 175 27 0 9 -13 12 -21 5z"/>
<path d="M990 870 c-10 -8 24 -10 112 -8 71 2 128 6 128 11 0 11 -223 8 -240
-3z"/>
<path d="M1188 813 c6 -2 18 -2 25 0 6 3 1 5 -13 5 -14 0 -19 -2 -12 -5z"/>
<path d="M880 743 c-64 -5 -90 -12 -90 -24 0 -7 18 -9 53 -5 28 3 116 8 195
12 78 4 145 11 148 15 5 8 -205 10 -306 2z"/>
<path d="M987 590 c-21 -4 -43 -13 -50 -20 -10 -10 2 -11 57 -5 77 8 96 13 96
26 0 10 -48 10 -103 -1z"/>
</g>
</svg>
