<?xml version="1.0" standalone="no"?>
<!DOCTYPE svg PUBLIC "-//W3C//DTD SVG 20010904//EN"
 "http://www.w3.org/TR/2001/REC-SVG-20010904/DTD/svg10.dtd">
<svg version="1.0" xmlns="http://www.w3.org/2000/svg"
 width="236.000000pt" height="104.000000pt" viewBox="0 0 236.000000 104.000000"
 preserveAspectRatio="xMidYMid meet">
<metadata>
Created by potrace 1.16, written by Peter Selinger 2001-2019
</metadata>
<g transform="translate(0.000000,104.000000) scale(0.100000,-0.100000)"
fill="#000000" stroke="none">
<path d="M825 808 c-20 -24 -45 -58 -54 -77 l-18 -34 -116 -1 c-65 -1 -117 2
-117 5 0 3 -24 0 -52 -8 -29 -8 -104 -15 -166 -15 -62 -1 -115 -5 -118 -9 -2
-5 5 -13 18 -20 21 -11 86 -10 351 7 58 4 97 2 116 -6 20 -8 35 -9 48 -2 18
10 19 8 13 -46 -4 -31 -4 -82 0 -112 4 -30 7 -56 5 -58 -7 -9 -259 -23 -420
-23 -173 0 -240 -34 -84 -44 41 -2 137 1 214 6 236 17 293 12 381 -31 34 -17
66 -30 72 -30 6 0 20 -10 32 -22 11 -12 20 -16 20 -9 0 7 4 10 8 7 14 -8 429
-37 537 -37 55 0 105 -5 112 -10 7 -7 18 -7 30 -1 39 20 471 39 503 22 31 -17
47 1 32 35 l-12 25 -117 -5 c-65 -2 -164 -9 -220 -15 -113 -10 -349 -6 -513
10 -58 5 -152 14 -210 19 -135 11 -206 38 -273 102 l-50 48 5 108 c5 114 18
155 75 231 35 47 11 39 -32 -10z"/>
</g>
</svg>
