<?xml version="1.0" standalone="no"?>
<!DOCTYPE svg PUBLIC "-//W3C//DTD SVG 20010904//EN"
 "http://www.w3.org/TR/2001/REC-SVG-20010904/DTD/svg10.dtd">
<svg version="1.0" xmlns="http://www.w3.org/2000/svg"
 width="211.000000pt" height="173.000000pt" viewBox="0 0 211.000000 173.000000"
 preserveAspectRatio="xMidYMid meet">
<metadata>
Created by potrace 1.16, written by Peter Selinger 2001-2019
</metadata>
<g transform="translate(0.000000,173.000000) scale(0.100000,-0.100000)"
fill="#000000" stroke="none">
<path d="M1685 1692 c-3 -3 -5 -13 -5 -22 0 -9 -10 -22 -22 -28 -13 -7 -48
-30 -78 -52 -220 -161 -366 -243 -428 -241 -21 1 -93 3 -161 6 -69 2 -145 8
-170 14 -25 6 -63 13 -83 16 -21 3 -53 7 -70 10 -18 2 -82 7 -143 10 -107 5
-283 34 -340 55 -34 13 -70 -7 -77 -43 -8 -44 -1 -198 10 -209 7 -7 20 -7 44
2 128 46 211 58 451 65 221 7 267 11 281 25 6 6 32 10 58 10 27 0 57 6 68 12
15 10 22 10 32 0 6 -6 21 -12 32 -12 27 -1 -22 -22 -128 -57 -76 -25 -146 -59
-146 -71 0 -3 12 -19 27 -34 l27 -29 -64 5 c-370 27 -390 29 -520 58 -25 5
-64 12 -87 15 -52 6 -57 -3 -66 -124 -7 -90 0 -104 38 -79 60 39 433 101 647
107 l68 2 57 -54 c36 -34 56 -61 55 -72 -2 -10 2 -25 8 -32 13 -16 -6 -86 -41
-157 -28 -55 -24 -82 13 -112 l33 -26 -60 -2 c-33 -1 -73 -2 -90 -1 -387 12
-481 17 -554 29 -47 8 -99 16 -114 17 l-28 2 -5 -90 c-2 -49 -5 -99 -7 -110
-3 -29 42 -34 50 -6 5 21 16 27 73 35 19 3 62 12 94 21 79 21 267 42 451 51
83 3 172 12 198 19 53 14 41 17 212 -64 185 -89 223 -109 257 -141 20 -20 49
-40 65 -46 l28 -10 0 -116 c0 -125 9 -153 39 -123 9 9 16 29 16 45 0 16 5 32
10 35 6 4 8 10 5 15 -11 17 49 338 90 490 14 52 32 122 40 155 7 33 21 87 30
120 9 33 23 92 30 130 19 100 102 379 127 429 11 22 28 52 38 66 23 34 33 77
19 86 -13 8 -326 14 -334 6z m253 -129 c-21 -41 -38 -82 -38 -92 0 -10 -9 -47
-20 -82 -11 -34 -22 -75 -25 -89 -2 -14 -16 -62 -30 -105 -14 -44 -28 -91 -30
-105 -2 -14 -25 -106 -50 -204 -25 -99 -45 -181 -45 -183 0 -1 -9 -3 -21 -3
-19 0 -20 4 -14 73 4 39 9 79 11 87 3 8 7 71 10 140 7 191 20 268 47 291 20
18 20 21 6 31 -15 10 -15 17 -2 72 10 40 13 84 9 129 -10 117 -13 114 118 114
l113 0 -39 -74z m-242 -51 c-5 -124 -20 -182 -46 -182 -10 0 -21 3 -23 8 -7
14 12 204 23 233 7 15 19 30 28 32 10 3 18 5 20 6 2 0 1 -43 -2 -97z m-90 1
c-3 -10 -8 -50 -10 -90 -2 -40 -7 -76 -10 -81 -3 -5 -19 -7 -36 -4 l-31 4 3
61 c3 63 10 76 58 109 32 22 32 22 26 1z m-116 -128 c0 -41 -2 -45 -25 -45
-29 0 -32 17 -10 60 22 43 35 37 35 -15z m-1211 9 c42 -8 144 -16 226 -19 132
-5 259 -16 320 -29 11 -3 24 -5 29 -5 6 -1 5 -6 -2 -13 -8 -8 -76 -13 -219
-15 -115 -2 -257 -11 -318 -19 -60 -7 -115 -14 -121 -14 -8 0 -15 22 -19 55
-8 60 -2 90 16 79 6 -4 46 -13 88 -20z m1125 4 c-13 -32 -96 -68 -109 -48 -3
5 0 10 7 10 8 0 29 11 48 25 38 26 62 32 54 13z m-127 -127 c-43 -46 -81 -80
-89 -81 -3 0 -4 19 -2 43 3 31 2 37 -5 22 -5 -11 -10 -35 -10 -54 -1 -28 -12
-44 -68 -98 l-67 -65 -18 22 c-18 22 -18 24 2 45 25 27 18 35 -31 35 -28 0
-45 7 -65 27 -24 24 -25 28 -10 38 8 7 55 25 103 40 49 15 93 32 100 37 11 9
118 23 170 23 21 0 20 -2 -10 -34z m119 2 c-3 -16 -8 -56 -11 -90 -7 -61 -8
-63 -35 -63 -16 0 -31 4 -35 9 -5 10 13 149 22 164 2 4 18 7 34 7 28 0 30 -2
25 -27z m87 2 c-1 -11 -4 -46 -7 -77 -6 -72 -10 -78 -48 -78 -26 0 -29 3 -25
23 4 12 9 53 13 90 l7 68 31 -3 c24 -2 31 -7 29 -23z m92 5 c3 -6 1 -44 -6
-85 -13 -74 -13 -75 -42 -75 l-30 0 7 61 c3 34 6 73 6 85 0 20 5 24 29 24 17
0 33 -5 36 -10z m90 -10 c-3 -6 -8 -52 -9 -103 -2 -50 -7 -129 -11 -174 l-8
-83 -40 0 -40 0 8 43 c4 23 10 60 14 81 4 28 11 40 25 42 41 6 46 44 5 44 -22
0 -23 10 -7 96 11 61 13 64 40 64 17 0 27 -4 23 -10z m-376 -77 c-4 -27 -8
-54 -8 -60 -1 -7 -14 -13 -30 -13 -25 0 -28 3 -23 28 5 25 50 92 63 92 3 0 2
-21 -2 -47z m-1039 -49 c19 -2 85 -10 145 -18 61 -7 113 -11 118 -9 4 2 7 -1
7 -6 0 -6 -17 -11 -37 -11 -21 0 -67 -5 -103 -11 -36 -6 -95 -14 -132 -18
l-66 -7 -4 37 c-4 49 0 62 21 54 9 -4 32 -9 51 -11z m1023 -109 c-1 -33 -4
-75 -8 -92 -5 -31 -9 -33 -45 -33 -22 0 -40 3 -40 8 0 17 31 165 36 174 3 5
18 8 32 6 26 -3 27 -5 25 -63z m93 17 c-10 -101 -20 -144 -33 -149 -28 -11
-35 13 -28 100 7 77 9 86 29 89 32 6 36 0 32 -40z m89 -34 c-9 -102 -12 -108
-45 -108 l-29 0 5 68 c8 108 10 112 45 112 l31 0 -7 -72z m91 5 c-9 -101 -14
-113 -45 -113 l-27 0 8 78 c11 99 12 102 44 102 l27 0 -7 -67z m-387 -10 c-5
-38 -8 -76 -8 -85 -1 -10 -5 -18 -11 -18 -16 0 -32 39 -37 90 -4 41 -1 50 18
64 41 28 46 21 38 -51z m-64 -143 c9 -8 27 -36 40 -62 29 -60 110 -160 170
-211 25 -21 45 -43 45 -49 0 -5 -35 9 -77 31 -104 53 -179 86 -230 102 -24 6
-50 20 -59 30 -15 16 -14 20 10 52 14 19 26 37 26 40 0 3 10 32 22 64 17 47
22 53 28 37 4 -11 15 -26 25 -34z m153 2 c9 -2 11 -16 8 -49 -3 -27 -5 -58 -5
-71 -1 -13 -5 -20 -11 -17 -22 13 -60 86 -60 113 0 28 8 31 68 24z m88 -8 c-3
-9 -9 -47 -12 -85 -5 -45 -11 -69 -19 -69 -12 0 -13 20 -6 148 1 15 7 22 22
22 15 0 19 -4 15 -16z m92 7 c10 -6 11 -26 6 -84 -6 -70 -8 -75 -32 -80 -47
-9 -52 -1 -46 76 3 40 7 78 9 85 5 14 43 16 63 3z m91 -48 c-5 -24 -12 -49
-15 -55 -4 -6 -7 -24 -6 -39 0 -21 -4 -29 -16 -29 -15 0 -17 10 -14 77 4 98 5
102 35 96 23 -5 24 -7 16 -50z m66 37 c3 -5 15 -10 25 -10 16 0 18 -6 15 -37
-2 -21 -4 -55 -4 -75 -1 -37 -2 -38 -36 -38 l-35 0 0 85 c0 67 3 85 14 85 8 0
18 -4 21 -10z m-179 -203 c3 -8 0 -26 -6 -42 -6 -15 -8 -31 -4 -34 4 -3 9 -1
11 6 3 10 9 10 23 1 25 -16 35 -5 32 37 -2 29 1 35 17 35 19 0 20 -6 19 -90
-1 -92 -11 -120 -27 -78 -5 13 -33 44 -62 69 -42 36 -54 53 -56 77 -2 28 1 32
23 32 13 0 27 -6 30 -13z m-1146 -7 c19 -6 108 -10 197 -11 90 -1 163 -4 163
-9 0 -4 -37 -10 -83 -14 -46 -4 -125 -15 -177 -26 -52 -11 -107 -20 -122 -20
-26 0 -28 3 -28 45 0 49 0 49 50 35z m1346 -12 c-6 -20 -16 -119 -20 -195 -1
-25 -2 -25 -30 -14 -17 6 -18 18 -17 111 1 57 4 108 7 112 3 4 19 8 36 8 27 0
30 -3 24 -22z m73 -5 c0 -10 -9 -40 -20 -68 l-19 -50 5 60 c2 33 4 63 5 68 0
4 7 7 15 7 8 0 15 -8 14 -17z"/>
<path d="M173 962 c-7 -4 -15 -52 -20 -115 -8 -100 -7 -107 10 -113 13 -4 27
2 43 19 16 17 42 29 81 37 32 7 92 21 133 32 41 10 144 25 230 33 85 8 162 16
170 19 32 11 96 14 110 6 8 -5 22 -5 32 1 15 8 16 14 7 31 -9 17 -17 19 -52
13 -23 -3 -130 -6 -238 -5 -184 1 -327 15 -409 39 -41 13 -80 14 -97 3z m114
-52 c23 -5 95 -11 161 -13 66 -1 118 -4 116 -6 -3 -3 -332 -60 -354 -61 -5 0
-5 21 -1 81 1 14 6 19 19 15 9 -3 36 -10 59 -16z m351 -17 c-10 -2 -28 -2 -40
0 -13 2 -5 4 17 4 22 1 32 -1 23 -4z"/>
</g>
</svg>
