<?xml version="1.0" standalone="no"?>
<!DOCTYPE svg PUBLIC "-//W3C//DTD SVG 20010904//EN"
 "http://www.w3.org/TR/2001/REC-SVG-20010904/DTD/svg10.dtd">
<svg version="1.0" xmlns="http://www.w3.org/2000/svg"
 width="252.000000pt" height="180.000000pt" viewBox="0 0 252.000000 180.000000"
 preserveAspectRatio="xMidYMid meet">
<metadata>
Created by potrace 1.16, written by Peter Selinger 2001-2019
</metadata>
<g transform="translate(0.000000,180.000000) scale(0.100000,-0.100000)"
fill="#000000" stroke="none">
<path d="M1159 1694 c-10 -12 -10 -20 -1 -34 6 -11 8 -21 4 -23 -17 -11 -76
-19 -137 -19 -38 0 -71 -5 -78 -12 -7 -7 -17 -11 -24 -9 -23 8 -28 -26 -33
-207 l-5 -185 -65 1 c-146 3 -500 23 -509 28 -21 13 -49 -32 -59 -95 -15 -88
-18 -202 -5 -206 5 -2 34 8 62 23 113 56 555 166 564 140 2 -6 5 -51 6 -99 l3
-89 -257 6 c-142 4 -261 9 -266 12 -14 8 -50 -16 -47 -33 3 -13 39 -15 281
-14 152 0 278 -3 278 -7 10 -56 33 -47 -201 -73 -135 -15 -264 -38 -332 -59
-67 -21 -66 -23 -48 70 11 56 7 72 -14 64 -23 -9 -48 -206 -27 -218 4 -3 16 3
26 14 33 36 201 77 395 95 36 4 92 11 125 16 79 12 75 12 75 -13 0 -27 -34
-213 -60 -328 -30 -134 -31 -138 -22 -144 10 -6 8 -93 -3 -126 -10 -31 13 -43
43 -24 22 14 138 50 192 59 14 3 66 12 115 21 130 23 190 31 275 38 93 8 156
15 196 21 23 4 33 1 38 -10 8 -21 49 -19 63 3 8 14 25 19 67 21 30 1 65 4 77
6 13 3 63 7 113 10 108 7 136 12 136 24 0 6 -10 12 -22 14 -13 2 13 5 57 6 82
1 119 11 95 26 -25 15 -204 18 -337 5 -73 -7 -135 -11 -137 -9 -3 2 1 33 9 69
7 36 16 94 20 130 4 36 13 76 20 90 7 14 27 81 44 149 18 68 37 135 43 150 5
14 20 64 33 111 13 47 35 126 50 175 15 50 29 99 32 110 3 11 23 63 44 116 39
93 52 114 98 152 12 10 19 22 16 27 -3 6 -45 10 -93 10 -65 0 -94 4 -111 16
-21 15 -40 15 -199 4 -155 -11 -238 -11 -529 2 -18 1 -33 5 -33 10 0 14 -27 9
-41 -8z m666 -33 c-6 -5 -38 -11 -72 -13 -34 -1 -59 0 -55 4 4 4 32 9 62 11
30 2 59 4 65 5 6 1 6 -1 0 -7z m45 5 c0 -3 -4 -8 -10 -11 -5 -3 -10 -1 -10 4
0 6 5 11 10 11 6 0 10 -2 10 -4z m-210 -16 c16 -2 -55 -14 -293 -50 -82 -12
-151 -20 -153 -17 -3 3 -2 20 1 39 l6 33 212 -1 c117 -1 219 -3 227 -4z m383
-22 c32 4 39 2 34 -9 -85 -198 -149 -396 -253 -774 -10 -33 -27 -91 -39 -130
-13 -38 -29 -97 -36 -130 l-14 -60 -3 48 c-2 27 6 110 17 185 12 76 23 162 26
192 7 71 19 149 55 340 17 85 32 182 34 215 7 109 30 137 98 125 22 -4 59 -5
81 -2z m-248 -20 c3 -3 -3 -28 -14 -57 -12 -28 -19 -51 -17 -51 2 0 -38 -84
-90 -187 -52 -104 -94 -194 -94 -202 0 -8 -2 -12 -5 -9 -6 5 -1 61 24 283 11
93 29 165 41 165 4 0 13 13 20 29 7 17 21 32 33 34 30 5 95 3 102 -5z m-205
-47 c0 -20 -9 -55 -20 -79 -10 -23 -16 -50 -13 -59 4 -10 2 -14 -4 -10 -5 3
-29 -35 -53 -89 -23 -52 -47 -97 -52 -100 -12 -7 -4 60 27 250 9 55 18 103 21
108 7 11 66 26 82 20 6 -2 12 -20 12 -41z m45 39 c-3 -5 -11 -10 -16 -10 -6 0
-7 5 -4 10 3 6 11 10 16 10 6 0 7 -4 4 -10z m190 -110 c-8 -63 -21 -151 -29
-195 -9 -44 -31 -190 -51 -325 -20 -135 -38 -252 -40 -260 -2 -8 -11 -80 -20
-159 -9 -79 -20 -154 -25 -166 -8 -20 -17 -23 -97 -29 -48 -4 -121 -9 -162
-13 l-74 -6 7 79 c10 109 15 159 26 234 5 36 12 89 16 117 3 29 9 55 12 57 4
2 33 7 65 11 l58 7 -6 -83 c-3 -46 -10 -106 -16 -134 -5 -27 -13 -84 -19 -125
-5 -41 -12 -90 -16 -107 -5 -26 -3 -33 9 -33 9 0 18 4 21 9 12 19 49 260 62
400 2 30 9 60 14 67 10 11 41 11 78 0 22 -7 50 18 32 29 -7 5 -5 11 7 20 27
20 2 39 -55 41 -26 1 -52 3 -58 3 -7 1 -10 14 -8 34 1 17 3 44 3 58 1 17 8 28
19 31 13 4 23 21 31 54 9 39 94 224 186 404 7 14 18 42 25 63 6 21 14 37 15
35 2 -2 -3 -55 -10 -118z m-735 75 c0 -5 -13 -50 -29 -100 -15 -49 -39 -129
-51 -177 -23 -88 -23 -88 -55 -88 l-32 0 -2 163 c-1 227 -7 212 89 212 47 0
80 -4 80 -10z m69 -13 c-2 -15 0 -32 3 -38 4 -6 -5 -80 -20 -165 l-28 -154
-28 -3 c-16 -2 -39 -1 -52 2 -21 6 -22 9 -13 32 5 15 12 42 15 61 6 36 75 237
94 272 15 30 32 26 29 -7z m281 -4 c-22 -38 -120 -293 -120 -313 0 -18 -29
-47 -41 -40 -9 6 -8 20 15 145 9 47 16 106 16 131 0 77 28 100 127 107 l22 2
-19 -32z m-171 -40 c-12 -23 -41 -103 -64 -177 -23 -74 -48 -137 -55 -139 -8
-3 -10 4 -6 24 5 26 28 177 40 261 2 17 7 37 11 43 9 15 44 29 73 29 l22 1
-21 -42z m176 -40 c-3 -12 -11 -67 -21 -153 -6 -60 -12 -97 -16 -100 -2 -1
-18 -5 -36 -8 -31 -6 -32 -6 -26 21 7 27 82 230 90 244 8 12 14 9 9 -4z m-169
-55 c-3 -16 -8 -59 -12 -96 -9 -99 -17 -121 -42 -125 -12 -2 -22 0 -22 5 0 12
36 134 48 163 6 14 13 37 16 53 4 15 9 27 12 27 3 0 3 -12 0 -27z m290 -65
c-17 -143 -15 -138 -53 -138 -29 0 -34 3 -28 18 12 33 80 172 84 172 1 0 0
-24 -3 -52z m-818 -173 c128 -7 133 -8 130 -28 -3 -18 -16 -24 -93 -39 -172
-34 -380 -80 -423 -94 -69 -23 -72 -21 -68 35 3 27 7 69 11 94 l7 45 151 -3
c83 -2 211 -6 285 -10z m788 -18 c5 -4 -14 -206 -21 -224 -3 -9 -25 -13 -61
-13 -65 0 -63 -9 -26 130 34 128 36 130 73 120 17 -5 33 -11 35 -13z m-558 1
c-6 -17 -68 -29 -68 -13 0 18 11 25 43 25 18 0 27 -4 25 -12z m52 2 c0 -5 -4
-10 -10 -10 -5 0 -10 5 -10 10 0 6 5 10 10 10 6 0 10 -4 10 -10z m365 -37 c-9
-76 -27 -203 -29 -204 0 0 -26 -2 -57 -5 l-57 -6 19 56 c10 31 23 84 30 119
15 77 22 87 66 87 l34 0 -6 -47z m-250 7 c-4 -12 -9 -19 -12 -17 -3 3 -2 15 2
27 4 12 9 19 12 17 3 -3 2 -15 -2 -27z m89 -22 c-3 -29 -7 -78 -8 -108 -2 -30
-4 -63 -5 -72 -1 -15 -11 -18 -52 -18 l-50 0 2 61 c2 44 7 66 20 78 10 9 23
37 29 64 11 42 15 47 41 47 28 0 28 0 23 -52z m45 15 c-5 -21 -9 -41 -9 -45 0
-5 -3 -8 -8 -8 -9 0 -7 64 3 79 14 24 22 9 14 -26z m-174 -15 c-3 -24 -7 -78
-11 -121 l-6 -78 -69 2 c-80 2 -78 0 -50 98 10 36 22 78 25 92 4 21 15 29 43
37 70 18 73 17 68 -30z m-138 -2 c-3 -8 -9 -30 -12 -48 -4 -19 -15 -58 -25
-88 l-19 -55 0 97 c-1 99 1 105 43 107 12 1 16 -4 13 -13z m543 -226 c0 -9
-50 -20 -91 -20 -25 0 -39 17 -25 31 8 7 116 -3 116 -11z m135 -1 c5 -5 -12
-9 -43 -9 -52 0 -72 15 -29 23 26 5 58 -2 72 -14z m-288 -4 c0 -8 -7 -15 -16
-16 -9 0 -25 -2 -36 -5 -26 -5 -65 4 -65 16 0 8 25 13 96 18 12 1 21 -4 21
-13z m-277 -15 c0 -12 -7 -20 -17 -21 -10 0 -44 -2 -75 -5 -58 -6 -64 -2 -52
30 5 12 21 16 75 16 62 0 69 -2 69 -20z m128 8 c-5 -15 -86 -29 -94 -16 -11
17 9 28 52 28 32 0 44 -4 42 -12z m142 -47 c0 -3 -5 -24 -10 -46 -5 -22 -12
-69 -15 -105 -3 -36 -10 -90 -15 -120 -6 -30 -12 -88 -15 -129 -2 -40 -5 -75
-7 -76 -4 -4 -56 -7 -85 -6 -17 1 -21 6 -18 29 2 15 9 83 15 152 6 69 15 143
20 165 5 22 10 61 10 87 0 28 5 48 13 51 19 7 107 5 107 -2z m-150 -10 c0 -4
-6 -46 -14 -92 -8 -46 -20 -138 -25 -204 -18 -198 -13 -185 -73 -185 l-51 0 6
33 c26 144 36 209 41 252 19 207 18 205 71 205 25 0 45 -4 45 -9z m-136 -48
c-14 -112 -44 -320 -49 -343 -3 -14 -8 -40 -11 -58 l-6 -33 -66 3 c-61 3 -67
5 -72 28 -9 37 45 406 62 427 10 13 41 19 106 22 l43 1 -7 -47z m668 -270 c-3
-16 -7 -22 -10 -15 -4 13 4 42 11 42 2 0 2 -12 -1 -27z m315 -137 c2 -2 -42
-6 -97 -10 -55 -4 -130 -9 -168 -12 -37 -3 -64 -3 -61 1 4 3 29 8 55 11 27 2
72 8 99 13 45 7 164 5 172 -3z m-397 -26 c0 -5 -6 -10 -12 -10 -7 0 -42 -4
-78 -9 -36 -5 -105 -12 -155 -16 -105 -7 -177 -15 -185 -20 -3 -2 -44 -9 -90
-15 -47 -6 -121 -20 -165 -31 -44 -10 -91 -19 -104 -19 -21 0 -23 3 -16 38 3
20 10 40 13 43 4 4 97 9 207 13 110 3 218 8 240 10 22 3 99 8 170 11 72 4 132
9 134 11 9 8 41 4 41 -6z"/>
</g>
</svg>
