<?xml version="1.0" standalone="no"?>
<!DOCTYPE svg PUBLIC "-//W3C//DTD SVG 20010904//EN"
 "http://www.w3.org/TR/2001/REC-SVG-20010904/DTD/svg10.dtd">
<svg version="1.0" xmlns="http://www.w3.org/2000/svg"
 width="126.000000pt" height="118.000000pt" viewBox="0 0 126.000000 118.000000"
 preserveAspectRatio="xMidYMid meet">
<metadata>
Created by potrace 1.16, written by Peter Selinger 2001-2019
</metadata>
<g transform="translate(0.000000,118.000000) scale(0.100000,-0.100000)"
fill="#000000" stroke="none">
<path d="M510 984 c-25 -8 -81 -17 -125 -20 -110 -7 -118 -10 -132 -41 -12
-24 -10 -31 11 -62 20 -31 78 -185 81 -216 2 -30 19 -108 35 -165 10 -36 21
-92 25 -125 9 -80 19 -97 51 -89 19 5 35 -3 78 -40 73 -62 116 -61 116 3 0 14
53 127 88 186 6 11 35 70 65 130 29 61 73 139 98 174 24 35 56 80 70 102 14
21 42 56 62 79 21 22 37 45 37 50 0 30 -56 -10 -114 -80 -38 -46 -302 -325
-345 -364 -18 -17 -59 -57 -89 -89 -31 -31 -59 -54 -63 -50 -12 12 -18 261 -8
321 9 61 93 240 121 260 23 17 24 52 1 51 -10 -1 -38 -7 -63 -15z m-65 -149
c-40 -74 -45 -92 -46 -152 -1 -37 -4 -54 -6 -38 -6 55 -35 156 -58 203 l-23
47 71 7 c38 4 72 10 75 13 3 3 11 5 19 5 8 0 -3 -30 -32 -85z m354 -212 c-6
-15 -14 -33 -20 -39 -5 -6 -46 -83 -90 -170 -45 -88 -85 -161 -90 -162 -5 -2
-30 16 -55 40 l-45 44 153 157 c84 86 153 157 155 157 1 0 -2 -12 -8 -27z"/>
</g>
</svg>
