<?xml version="1.0" standalone="no"?>
<!DOCTYPE svg PUBLIC "-//W3C//DTD SVG 20010904//EN"
 "http://www.w3.org/TR/2001/REC-SVG-20010904/DTD/svg10.dtd">
<svg version="1.0" xmlns="http://www.w3.org/2000/svg"
 width="307.000000pt" height="136.000000pt" viewBox="0 0 307.000000 136.000000"
 preserveAspectRatio="xMidYMid meet">
<metadata>
Created by potrace 1.16, written by Peter Selinger 2001-2019
</metadata>
<g transform="translate(0.000000,136.000000) scale(0.100000,-0.100000)"
fill="#000000" stroke="none">
<path d="M1470 1208 c-14 -5 -56 -14 -95 -20 -83 -12 -96 -20 -92 -61 2 -28
-4 -36 -53 -69 -80 -55 -247 -138 -279 -138 -31 0 -51 -16 -51 -40 0 -9 -9
-25 -20 -35 -26 -23 -26 -6 0 46 34 66 5 79 -70 29 -61 -41 -83 -41 -58 0 10
15 10 22 0 32 -9 9 -18 7 -39 -10 -54 -43 -111 -72 -126 -66 -15 5 -15 9 -2
41 31 73 10 82 -61 28 -56 -43 -78 -46 -64 -9 23 60 -2 80 -46 39 -16 -15 -46
-36 -67 -46 -20 -11 -38 -25 -39 -32 0 -6 -4 10 -7 38 -8 70 -29 70 -91 3 -27
-29 -50 -61 -50 -70 0 -10 13 -27 30 -40 16 -12 39 -39 50 -61 l21 -40 -33
-27 c-32 -27 -116 -74 -150 -84 -10 -3 -18 -15 -18 -26 0 -15 7 -20 25 -20 13
0 39 -9 57 -20 18 -11 40 -20 48 -20 8 0 30 30 50 67 19 37 40 69 47 71 6 2
20 -9 29 -23 17 -26 17 -27 -12 -50 -16 -12 -40 -31 -53 -42 l-24 -20 35 -21
c42 -26 124 -31 115 -7 -4 8 -2 17 2 20 5 3 12 -2 15 -11 4 -10 12 -14 22 -10
9 4 36 -3 60 -14 38 -19 45 -20 76 -7 32 13 38 13 79 -9 24 -13 55 -23 68 -24
20 0 22 4 17 25 -8 31 -6 31 40 0 48 -33 85 -32 126 3 67 56 64 55 95 35 15
-9 32 -23 36 -31 5 -7 17 -10 28 -7 12 4 21 1 25 -10 4 -9 21 -22 38 -30 104
-49 129 -73 136 -132 4 -40 9 -48 25 -48 13 0 21 7 21 20 1 11 2 26 3 33 1 9
9 9 37 -3 20 -8 44 -15 53 -15 21 0 63 44 133 140 60 82 83 105 96 96 4 -2 25
-1 45 4 20 4 37 5 37 1 0 -13 -160 -161 -174 -161 -19 0 -50 -37 -37 -44 6 -4
33 -4 61 0 33 4 55 3 64 -5 19 -16 72 -10 68 7 -3 19 117 199 136 204 9 3 44
6 77 7 l60 3 -24 -26 c-14 -14 -31 -26 -39 -26 -23 0 -212 -174 -212 -196 0
-7 25 -14 63 -17 34 -4 73 -9 87 -12 22 -5 31 4 80 81 51 80 77 118 129 185
16 21 32 28 77 33 31 4 59 4 62 2 8 -9 -94 -130 -174 -206 -72 -68 -76 -74
-59 -86 10 -8 31 -14 45 -14 32 0 68 -24 52 -34 -18 -11 -14 -36 6 -36 19 1
75 83 117 174 15 32 44 86 64 120 21 33 41 70 44 80 7 18 16 19 135 13 70 -4
155 -7 190 -7 l62 0 -32 -57 c-18 -32 -52 -86 -75 -120 -47 -70 -61 -107 -43
-118 14 -9 50 27 97 95 59 86 230 235 318 276 66 32 76 54 30 65 -122 30 -124
31 -134 61 -6 16 -13 53 -17 81 -7 62 -10 80 -23 132 -15 59 -13 137 4 179 27
64 4 73 -52 22 -50 -44 -98 -68 -125 -61 -18 4 -28 -3 -45 -31 -29 -45 -29
-46 6 -72 32 -23 91 -103 91 -122 0 -8 -9 -10 -24 -6 -14 3 -105 9 -203 12
-98 3 -182 9 -186 13 -17 16 -38 119 -41 195 -2 49 -7 81 -14 84 -7 2 -12 -1
-12 -7 0 -28 -104 -55 -112 -29 -2 6 -10 8 -16 4 -14 -9 -16 -66 -2 -66 22 0
131 -172 117 -186 -5 -6 -62 -8 -118 -6 l-45 2 -10 78 c-6 46 -7 96 -1 126 11
66 -2 77 -46 40 -19 -16 -57 -53 -83 -83 l-49 -54 -6 38 c-4 22 -2 52 3 68 18
51 -5 55 -57 11 -26 -21 -59 -47 -73 -56 -15 -9 -33 -22 -39 -28 -16 -14 -16
-10 2 32 18 44 4 64 -29 43 -11 -7 -37 -16 -56 -20 -19 -4 -47 -14 -62 -21
-16 -8 -28 -12 -28 -10 0 13 26 64 43 83 19 22 20 54 2 59 -5 1 -21 -2 -35 -8z
m-22 -66 c-1 -4 -25 -63 -52 -130 -27 -67 -52 -122 -56 -122 -3 0 -7 46 -7
103 0 56 -4 110 -8 120 -6 14 -1 17 31 18 22 0 48 4 59 9 26 11 37 12 33 2z
m718 -79 c6 -38 10 -69 8 -71 -1 -2 -17 18 -35 45 -18 26 -36 50 -41 51 -23
10 11 39 47 41 6 1 16 -29 21 -66z m543 -14 c0 -33 7 -83 16 -111 24 -81 17
-88 -19 -20 -19 35 -46 78 -60 97 -14 18 -26 37 -26 42 0 8 68 52 81 53 4 0 7
-27 8 -61z m-775 -44 l7 -80 -20 25 c-41 50 -45 76 -21 110 12 17 23 30 25 28
1 -2 6 -39 9 -83z m-174 16 c0 -32 3 -74 6 -92 6 -30 5 -32 -9 -19 -8 8 -28
40 -45 71 l-31 56 27 21 c44 34 52 29 52 -37z m-180 23 c-6 -14 -10 -36 -10
-49 l0 -23 -30 26 c-49 43 -38 65 32 71 15 1 16 -3 8 -25z m-76 -61 c51 -66
49 -72 -31 -66 -38 3 -69 7 -71 8 -1 1 4 17 11 36 8 19 17 42 20 52 10 29 32
19 71 -30z m148 20 c9 -10 23 -34 31 -55 14 -33 14 -36 -2 -41 -9 -2 -32 -2
-50 1 l-33 5 7 46 c10 67 19 76 47 44z m-359 -12 c2 -11 3 -39 0 -63 -4 -35
-15 -55 -59 -103 l-54 -60 -19 24 c-28 36 -35 101 -12 124 21 21 123 95 132
96 4 1 9 -8 12 -18z m567 -41 c26 -50 26 -50 -9 -50 -35 0 -37 3 -46 53 -6 33
-5 37 14 37 14 0 27 -13 41 -40z m-782 -31 c-10 -5 -18 -18 -18 -29 0 -16 -72
-80 -91 -80 -12 0 -16 35 -8 58 5 12 16 22 26 22 10 1 34 9 53 20 36 20 69 28
38 9z m-678 -44 c0 -41 -17 -47 -26 -9 -4 17 -2 29 7 35 19 12 19 13 19 -26z
m124 -13 c-7 -32 -24 -35 -24 -3 0 16 20 44 27 37 2 -1 0 -17 -3 -34z m-274 7
c0 -11 -4 -17 -10 -14 -5 3 -10 13 -10 21 0 8 5 14 10 14 6 0 10 -9 10 -21z
m1320 -14 c1 -12 -192 -36 -203 -25 -5 4 -4 16 1 26 9 17 20 18 106 14 54 -3
96 -9 96 -15z m-756 -12 c-9 -38 -12 -39 -32 -19 -16 16 -16 18 2 32 29 21 37
17 30 -13z m1387 11 c4 -2 10 -16 14 -31 3 -16 17 -39 29 -53 38 -41 38 -56 3
-102 -31 -40 -37 -43 -92 -49 -33 -3 -61 -5 -62 -4 -2 1 25 44 49 77 19 26 -5
47 -32 30 -17 -10 -20 -10 -20 4 0 9 -21 39 -46 66 -25 27 -43 52 -40 56 18
17 170 23 197 6z m-1868 -27 c6 -19 5 -32 -3 -42 -19 -22 -30 -8 -30 36 0 46
18 49 33 6z m340 -4 c-6 -38 -19 -43 -29 -11 -4 15 -1 25 12 35 22 16 23 15
17 -24z m1935 31 c45 -5 63 -11 67 -24 3 -9 19 -30 35 -47 l30 -31 -30 -12
c-34 -14 -38 -25 -13 -38 15 -9 15 -13 2 -48 l-15 -39 -114 1 c-219 2 -270 7
-270 27 0 9 -5 17 -11 17 -6 0 7 20 30 45 22 24 41 51 41 60 0 18 -12 19 -29
3 -10 -11 -18 -7 -42 20 -16 18 -29 41 -29 52 0 19 7 20 144 20 78 0 171 -3
204 -6z m-636 -65 l63 -60 -23 -39 c-32 -56 -27 -69 12 -31 22 22 36 29 41 21
4 -6 -9 -25 -32 -45 -32 -28 -48 -34 -106 -40 -38 -4 -70 -5 -73 -2 -7 6 22
63 47 96 11 13 19 31 19 39 0 9 8 24 17 34 13 14 14 21 5 30 -9 9 -22 0 -55
-35 l-43 -47 -14 37 c-8 21 -15 49 -15 63 0 25 13 31 83 39 6 0 40 -26 74 -60z
m-1482 -9 c5 -10 2 -23 -10 -38 -18 -22 -19 -22 -29 -3 -13 22 -15 74 -4 85 7
7 25 -11 43 -44z m1246 36 c6 -17 -25 -65 -42 -66 -7 0 -14 8 -17 18 -2 9 -8
25 -12 34 -5 12 0 18 17 21 42 8 49 7 54 -7z m-622 -46 l6 -35 -26 27 c-23 23
-25 29 -14 43 16 20 25 10 34 -35z m176 12 c0 -22 -3 -73 -6 -115 l-7 -75 -35
36 c-61 64 -59 99 8 165 35 34 40 33 40 -11z m339 -22 l30 -48 -51 -56 -50
-56 -61 6 c-34 2 -84 7 -110 9 -37 3 -49 1 -54 -11 -9 -24 15 -34 92 -35 l70
-1 -70 -13 c-117 -22 -108 -30 -101 83 8 134 11 142 52 142 19 0 53 4 76 10
92 21 123 26 135 22 7 -2 26 -26 42 -52z m-1020 14 c18 -31 19 -37 7 -50 -21
-20 -31 -18 -44 10 -8 18 -8 31 1 50 7 14 13 26 14 26 0 0 10 -16 22 -36z
m155 -19 c14 -26 14 -31 -1 -47 -22 -25 -29 -23 -43 11 -9 22 -9 34 0 50 6 12
8 27 4 34 -4 6 0 5 9 -3 9 -8 23 -28 31 -45z m152 25 c7 -32 37 -48 59 -30 9
7 15 8 19 1 4 -6 19 -8 35 -5 23 5 32 1 50 -24 l21 -30 -26 -21 c-21 -17 -29
-18 -46 -8 -17 10 -22 9 -32 -7 -6 -10 -22 -32 -35 -48 -23 -28 -24 -28 -41
-11 -19 19 -19 17 23 101 21 42 4 42 -39 1 l-32 -31 -14 28 c-17 35 -13 61 15
92 27 29 36 28 43 -8z m872 -37 c23 -60 23 -69 -5 -106 -25 -33 -33 -36 -75
-37 -27 0 -48 3 -48 6 0 4 21 31 46 61 25 29 44 60 41 67 -5 13 10 36 24 36 4
0 11 -12 17 -27z m-1379 -34 c12 -35 9 -44 -19 -59 -17 -9 -22 -5 -40 31 -20
39 -20 42 -4 60 22 24 48 11 63 -32z m141 -34 c0 -16 -58 -70 -67 -62 -13 14
-6 67 12 87 17 19 19 19 37 4 10 -10 18 -22 18 -29z m141 -18 c9 -15 6 -24
-12 -43 l-23 -24 -12 37 c-16 45 -2 82 22 62 8 -7 20 -21 25 -32z m2167 14
c-3 -7 -31 -33 -171 -151 l-41 -35 23 40 c13 22 32 45 42 53 10 7 19 22 19 32
0 11 5 31 12 45 10 22 17 25 65 25 30 0 53 -4 51 -9z m-2033 -22 c8 -24 -16
-56 -33 -45 -8 4 -8 16 0 36 12 35 24 38 33 9z m398 -62 c50 -47 52 -56 41
-141 -7 -52 -20 -57 -53 -22 -12 13 -39 32 -59 42 -20 11 -45 26 -54 35 -9 10
-22 19 -29 21 -11 4 21 65 59 110 18 21 32 15 95 -45z m-1022 31 c-9 -26 -31
-36 -31 -14 0 12 23 34 37 36 1 0 -1 -10 -6 -22z m351 -34 c-16 -28 -37 -50
-48 -51 -10 -2 -13 0 -6 3 6 3 12 15 12 27 0 19 59 81 68 72 2 -1 -10 -24 -26
-51z m521 39 c-7 -3 -13 -11 -13 -19 0 -8 -4 -14 -10 -14 -15 0 -12 11 7 32 9
10 19 15 22 12 3 -4 0 -9 -6 -11z m-354 -62 c-25 -46 -42 -55 -70 -41 -17 10
-15 15 33 57 57 51 71 45 37 -16z m141 43 c0 -11 -55 -104 -61 -104 -4 0 -12
6 -18 13 -8 11 -2 23 25 55 32 38 54 52 54 36z m-414 -15 c8 -13 -32 -56 -42
-46 -8 8 15 57 27 57 4 0 11 -5 15 -11z m181 -6 c2 -5 -15 -22 -38 -37 -41
-28 -42 -25 -6 27 18 27 37 32 44 10z m-267 -22 c0 -10 -7 -24 -16 -31 -12
-11 -18 -10 -32 3 -15 16 -15 18 3 32 27 20 45 19 45 -4z m534 -32 c-10 -11
-27 -25 -37 -31 -17 -8 -18 -7 -12 14 4 12 14 34 22 47 14 21 16 22 31 7 14
-14 14 -17 -4 -37z m1336 31 c0 -6 -17 -36 -39 -68 -21 -31 -53 -86 -71 -122
-45 -90 -45 -91 -81 -73 l-29 15 19 27 c11 15 40 50 64 77 24 27 49 58 55 70
15 28 64 84 74 84 5 0 8 -5 8 -10z m-312 -118 c-40 -54 -78 -107 -84 -117 -9
-17 -14 -18 -42 -6 -41 17 -41 36 0 50 18 6 68 48 113 95 44 46 82 82 83 81 2
-2 -29 -48 -70 -103z m-181 74 c-11 -28 -101 -146 -111 -146 -37 1 -30 20 32
87 64 69 90 89 79 59z m-290 -9 c-11 -7 -42 -29 -70 -49 -28 -21 -54 -38 -59
-38 -4 0 -8 16 -8 35 0 28 4 36 23 39 12 3 40 9 62 14 58 14 74 14 52 -1z m54
-24 c-17 -21 -49 -61 -71 -90 -38 -50 -41 -52 -70 -42 -16 6 -30 14 -30 19 0
14 175 150 193 150 4 0 -6 -17 -22 -37z"/>
</g>
</svg>
