<?xml version="1.0" standalone="no"?>
<!DOCTYPE svg PUBLIC "-//W3C//DTD SVG 20010904//EN"
 "http://www.w3.org/TR/2001/REC-SVG-20010904/DTD/svg10.dtd">
<svg version="1.0" xmlns="http://www.w3.org/2000/svg"
 width="296.000000pt" height="214.000000pt" viewBox="0 0 296.000000 214.000000"
 preserveAspectRatio="xMidYMid meet">
<metadata>
Created by potrace 1.16, written by Peter Selinger 2001-2019
</metadata>
<g transform="translate(0.000000,214.000000) scale(0.100000,-0.100000)"
fill="#000000" stroke="none">
<path d="M1617 1983 c-15 -14 -5 -42 29 -86 30 -39 34 -49 24 -62 -18 -22 -43
-18 -70 10 -27 29 -42 31 -60 9 -11 -13 -8 -20 23 -45 21 -17 37 -37 37 -45 0
-8 8 -14 18 -14 9 0 26 -7 36 -15 19 -14 18 -15 -5 -50 -27 -40 -43 -43 -79
-15 l-25 19 24 25 c29 30 22 47 -7 18 -11 -11 -26 -24 -33 -28 -8 -5 -23 -20
-34 -33 l-20 -24 23 6 c22 5 72 -28 72 -49 0 -11 -140 -144 -154 -145 -6 -1
-20 -2 -30 -3 -21 -1 -112 -109 -117 -140 -3 -15 6 -21 46 -32 28 -7 85 -31
128 -53 43 -23 85 -41 93 -41 17 0 18 -12 2 -28 -16 -16 -28 -15 -28 3 0 10
-11 15 -35 15 -36 0 -50 -22 -20 -34 8 -3 15 -13 15 -22 0 -15 -14 -16 -153
-10 -84 4 -170 12 -192 17 -188 48 -169 50 -202 -23 -2 -3 3 -13 10 -20 12
-12 7 -22 -34 -67 -39 -41 -50 -49 -55 -36 -4 10 3 26 16 40 29 31 19 44 -15
21 -14 -9 -25 -13 -25 -9 0 5 -4 14 -9 22 -8 12 -12 12 -25 2 -11 -9 -13 -19
-5 -38 7 -19 5 -30 -10 -49 l-19 -25 -21 30 c-12 16 -21 33 -21 38 0 5 20 24
45 43 24 18 42 37 39 42 -6 10 -41 -7 -72 -36 -13 -11 -33 -21 -45 -21 -15 0
-23 -7 -25 -21 -2 -12 -14 -32 -27 -44 l-24 -23 -11 27 c-9 24 -6 34 21 72 17
25 42 49 55 54 15 6 22 15 18 24 -5 14 -9 14 -33 1 -15 -7 -41 -30 -58 -49
-17 -21 -39 -36 -52 -36 -16 0 -21 -6 -21 -27 -1 -31 -49 -96 -57 -76 -8 20
-86 113 -95 113 -27 0 -16 -36 27 -91 l47 -60 -24 -34 c-22 -34 -38 -44 -38
-26 0 12 -49 71 -58 71 -4 0 -13 -4 -21 -9 -12 -8 -9 -15 12 -41 43 -50 44
-75 8 -121 -31 -38 -33 -59 -6 -59 7 0 16 8 20 19 3 10 14 26 24 35 18 17 20
16 26 -3 3 -11 1 -29 -4 -40 -16 -28 -14 -33 12 -29 13 2 29 -5 39 -17 27 -33
42 -7 22 40 -15 36 -14 40 3 63 29 39 39 37 57 -9 l17 -42 -35 -36 c-60 -61
-39 -88 22 -28 l33 32 27 -33 c24 -29 62 -44 62 -24 0 4 -13 27 -29 51 -28 42
-29 45 -13 67 21 29 34 30 50 3 11 -18 11 -24 -2 -38 -18 -20 -21 -51 -5 -51
6 0 19 10 29 23 l18 22 24 -22 c13 -13 30 -23 36 -23 19 0 14 35 -7 54 -24 22
-23 44 6 74 l21 24 12 -22 c9 -17 9 -29 -1 -51 -13 -32 -6 -50 13 -31 10 10
20 3 48 -30 26 -30 41 -40 54 -35 16 6 16 9 2 29 -20 28 -20 49 -1 74 12 15
16 16 24 5 5 -7 6 -22 4 -32 -4 -14 0 -19 15 -19 31 0 45 -25 56 -103 9 -54
15 -71 26 -70 18 3 138 44 242 84 43 16 108 33 145 39 37 5 83 12 101 16 24 5
32 3 32 -7 0 -8 16 -24 36 -37 19 -12 32 -27 29 -32 -10 -16 -30 -12 -50 10
-19 21 -65 28 -65 10 0 -6 14 -23 32 -39 l32 -28 -25 -25 c-13 -14 -48 -50
-78 -81 -32 -34 -51 -60 -46 -67 5 -8 21 2 50 30 24 23 45 37 49 32 9 -15 -4
-41 -25 -53 -11 -5 -19 -14 -19 -20 0 -6 -9 -22 -20 -36 l-20 -26 20 -34 c22
-37 26 -63 10 -63 -5 0 -10 -5 -10 -11 0 -6 14 -9 31 -7 21 2 35 -3 42 -14 9
-14 6 -24 -21 -51 -36 -37 -39 -47 -16 -47 9 0 31 16 48 35 l33 35 18 -20 c16
-17 17 -25 7 -40 -16 -27 -15 -30 8 -30 11 0 20 5 20 10 0 6 13 10 28 10 38 0
46 9 26 32 -16 17 -15 20 11 58 15 22 30 40 34 40 3 0 20 -9 36 -20 34 -22 87
-27 80 -7 -3 6 -23 22 -45 35 -46 26 -49 40 -15 65 20 14 28 15 50 5 18 -8 29
-8 36 -1 7 7 -5 21 -38 45 -26 20 -55 37 -63 40 -10 3 -5 10 18 22 38 20 41
39 7 68 -31 27 -31 33 0 60 l25 22 -27 28 c-23 24 -25 30 -13 38 11 7 23 2 42
-17 15 -14 26 -29 24 -32 -9 -15 -16 -125 -10 -157 5 -25 11 -34 23 -32 13 3
18 25 28 108 6 58 12 135 12 171 1 61 3 67 24 73 43 11 389 8 400 -3 28 -28
57 -6 57 44 0 26 25 52 35 35 9 -15 35 -12 35 5 0 8 -4 15 -10 15 -14 0 -12
30 4 59 l14 25 21 -48 22 -47 -26 -31 c-24 -28 -25 -32 -10 -41 23 -12 45 -1
45 23 0 26 12 26 28 0 9 -15 10 -26 2 -40 -9 -16 -7 -22 6 -27 19 -7 38 13 59
63 22 49 40 59 57 32 8 -13 17 -31 21 -41 9 -25 22 -21 51 15 l25 33 36 -43
c20 -23 41 -42 46 -42 17 0 9 35 -15 71 -40 59 -39 69 19 148 43 59 46 84 6
59 -17 -11 -23 -10 -37 4 -16 15 -15 18 5 44 11 14 21 31 21 35 0 12 -37 11
-45 -1 -11 -18 -25 -10 -25 14 0 35 -16 40 -53 18 -20 -13 -42 -18 -59 -15
-23 4 -28 2 -28 -14 0 -10 5 -24 11 -30 9 -9 8 -18 -5 -37 -21 -33 -28 -33
-44 4 -12 25 -11 33 2 52 9 12 16 28 16 35 0 18 -27 16 -34 -2 -4 -13 -9 -13
-25 -3 -27 17 -55 -6 -41 -32 14 -26 13 -31 -14 -63 l-23 -29 -23 38 c-22 35
-23 39 -7 65 20 36 7 44 -35 21 -23 -13 -34 -28 -39 -51 -11 -53 -24 -57 -49
-15 -22 35 -23 37 -5 50 15 11 16 16 6 28 -10 12 -43 15 -174 15 -89 0 -170 0
-180 1 -16 0 -17 5 -12 31 4 17 8 37 9 43 1 6 14 47 28 91 14 44 30 98 36 121
7 22 21 49 32 59 11 10 20 26 20 35 0 14 -11 16 -67 15 -91 -2 -101 -8 -109
-61 -3 -24 -10 -44 -15 -44 -4 0 -24 -13 -42 -30 -36 -31 -52 -36 -76 -21 -24
15 13 62 45 59 23 -3 26 1 29 39 3 40 2 42 -17 32 -16 -9 -24 -6 -44 12 -31
29 -30 43 4 67 18 13 33 17 47 11 49 -19 64 6 20 35 -14 9 -32 28 -41 41 -15
24 -15 27 0 44 14 16 22 17 46 8 46 -17 47 -1 2 52 -23 27 -42 54 -42 59 0 6
12 19 27 30 37 27 24 37 -23 17 -33 -14 -40 -14 -52 -1 -13 13 -10 21 22 65
21 28 42 51 47 51 5 0 9 7 9 15 0 33 -35 9 -88 -59 l-22 -29 -40 43 c-22 24
-40 47 -40 52 0 10 -14 11 -23 1z m103 -178 c13 -16 7 -45 -9 -45 -5 0 -17 7
-26 16 -12 12 -13 19 -4 30 15 18 24 18 39 -1z m64 -68 c8 -13 7 -20 -4 -27
-20 -12 -45 12 -36 35 7 20 25 16 40 -8z m-66 -60 c8 -10 6 -22 -8 -45 -25
-40 -47 -50 -68 -28 -15 15 -14 18 18 51 38 39 43 41 58 22z m46 -90 c-9 -23
-50 -46 -65 -37 -11 7 -8 15 15 39 22 23 33 28 42 20 7 -6 11 -16 8 -22z
m-151 -21 c22 -17 22 -25 -4 -52 -16 -17 -29 -22 -49 -17 -32 6 -47 -11 -30
-32 15 -18 1 -39 -42 -61 -25 -13 -31 -13 -52 2 l-25 16 87 79 c48 43 89 79
92 79 3 -1 13 -7 23 -14z m45 -85 c-7 -11 -21 -21 -30 -21 -24 0 -23 9 4 37
26 28 46 16 26 -16z m72 -28 c25 -21 25 -32 0 -62 -23 -27 -45 -22 -62 14 -9
21 -8 28 7 45 22 24 29 25 55 3z m248 -3 c10 0 12 -9 7 -31 -4 -17 -8 -37 -9
-43 -1 -6 -4 -15 -7 -21 -7 -10 -49 -137 -53 -158 -2 -7 -8 -23 -15 -37 -10
-22 -11 -20 -6 20 2 25 7 79 11 120 4 41 8 82 10 90 1 8 3 28 3 44 1 24 4 28
24 22 12 -3 28 -6 35 -6z m-559 -97 c-9 -10 -5 -13 19 -13 40 0 58 -21 40 -49
-13 -21 -42 -28 -52 -12 -3 4 -26 14 -51 21 -25 7 -48 16 -50 21 -3 4 7 28 22
52 l28 45 27 -26 c21 -19 25 -29 17 -39z m161 54 c0 -22 -55 -68 -73 -61 -24
9 -21 25 11 51 30 25 62 30 62 10z m65 -59 c11 -18 18 -37 17 -42 -2 -4 9 -5
23 -2 14 4 34 2 45 -4 20 -11 20 -11 -2 -43 -13 -18 -24 -33 -24 -35 -6 -12
-44 27 -44 45 0 19 -4 21 -32 17 -22 -3 -42 1 -61 14 l-28 19 33 31 c17 18 37
32 43 32 6 0 19 -15 30 -32z m231 -25 c-6 -45 -15 -113 -23 -168 -3 -22 -7
-42 -8 -43 -2 -2 -15 4 -29 15 -32 22 -29 48 4 48 19 0 24 5 22 20 -5 36 -8
50 -15 68 -16 41 -16 49 8 73 34 34 46 31 41 -13z m-309 -61 c68 -41 141 -91
149 -103 3 -5 -24 6 -61 26 -37 19 -73 35 -81 35 -8 0 -30 7 -50 15 -31 13
-34 17 -24 35 6 11 13 20 15 20 2 0 26 -13 52 -28z m213 -31 c0 -27 -23 -53
-42 -46 -15 6 -15 10 4 41 20 35 38 37 38 5z m-113 -97 c55 -32 63 -45 21 -38
-18 4 -43 18 -55 32 -23 27 -57 25 -47 -3 5 -11 -1 -15 -20 -15 -30 0 -33 16
-8 41 21 22 50 18 109 -17z m-577 -39 c36 -10 104 -15 201 -15 80 0 149 -3
153 -7 4 -4 46 -7 94 -6 48 0 65 -1 37 -3 -172 -12 -517 -59 -546 -74 -28 -15
-29 -13 -29 49 0 54 6 67 30 70 3 0 30 -6 60 -14z m1121 -53 c-11 -20 -40 -47
-44 -41 -30 53 -29 57 26 58 24 1 26 -2 18 -17z m-185 -2 c49 0 52 -5 24 -38
l-19 -23 -35 23 c-38 24 -59 55 -30 44 8 -3 36 -6 60 -6z m-186 -10 c0 -5 -4
-10 -8 -10 -5 0 -18 -17 -30 -39 -35 -62 -47 -68 -76 -34 -14 15 -25 30 -25
33 0 3 16 17 36 33 36 27 103 38 103 17z m874 -22 c7 -34 3 -44 -13 -33 -13 7
-15 65 -2 65 5 0 11 -14 15 -32z m-1784 -79 c-18 -24 -25 -27 -36 -18 -21 18
-17 37 19 82 l32 41 3 -37 c2 -26 -3 -46 -18 -68z m720 72 c0 -10 -19 -40 -42
-66 -39 -44 -43 -46 -55 -29 -7 10 -18 34 -23 54 -13 44 -1 54 69 57 43 2 51
0 51 -16z m615 -57 c22 -32 24 -67 5 -79 -9 -6 -20 7 -50 61 -22 41 -22 42 -4
70 19 28 19 28 22 5 2 -12 14 -38 27 -57z m-795 50 c0 -18 -70 -104 -85 -104
-11 0 -45 71 -45 94 0 16 23 23 88 25 32 1 42 -3 42 -15z m670 -45 c0 -28 -15
-30 -48 -5 l-31 22 22 23 22 22 18 -22 c9 -12 17 -29 17 -40z m-1430 -31 c0
-7 -12 -24 -26 -39 l-27 -28 -18 24 c-26 32 -24 54 8 87 l26 28 19 -30 c10
-17 18 -36 18 -42z m540 59 c0 -7 -15 -28 -34 -46 l-35 -34 -20 34 c-11 18
-19 35 -17 36 3 3 70 18 99 22 4 1 7 -5 7 -12z m591 -82 c-1 -42 -6 -86 -10
-98 -7 -20 -11 -16 -36 32 -24 48 -25 57 -14 80 16 32 51 73 57 66 3 -2 4 -39
3 -80z m564 41 c14 -29 14 -37 3 -55 -17 -28 -23 -27 -47 8 -19 27 -20 31 -5
60 18 36 27 33 49 -13z m141 -1 c6 -34 -17 -105 -34 -105 -5 0 -14 17 -22 38
-8 20 -16 40 -18 43 -5 11 49 69 59 64 4 -3 11 -21 15 -40z m-1985 -14 c-5 -9
-19 -25 -31 -36 -18 -16 -23 -17 -30 -5 -14 22 -13 25 17 60 25 30 28 31 39
15 9 -11 10 -24 5 -34z m1394 -23 c6 -21 0 -33 -32 -66 l-38 -40 7 77 c3 42 7
83 7 91 1 22 48 -29 56 -62z m55 41 c0 -19 -16 -15 -33 7 l-18 24 26 -12 c14
-6 25 -15 25 -19z m-1195 1 c6 -20 -22 -73 -35 -65 -16 10 -17 44 -3 64 18 26
30 27 38 1z m510 -42 l24 -50 -43 -46 -44 -46 -26 52 c-14 28 -26 56 -26 62 0
16 71 90 81 84 6 -3 21 -28 34 -56z m1333 38 c9 -21 7 -29 -10 -51 l-21 -27
-13 23 c-10 19 -10 29 2 51 18 34 28 35 42 4z m-1536 -28 c24 -38 25 -44 13
-67 -7 -15 -22 -34 -33 -44 -23 -21 -29 -16 -72 67 l-28 56 21 15 c39 27 69
19 99 -27z m397 -73 c-6 -11 -24 -30 -39 -43 l-29 -22 -19 21 c-38 40 -35 70
11 117 l42 42 23 -47 c18 -39 20 -52 11 -68z m1256 99 c14 -14 14 -19 2 -37
-20 -31 -35 -32 -43 -3 -12 49 10 71 41 40z m-1082 -14 c9 -11 17 -25 17 -31
0 -11 -71 -99 -80 -99 -3 0 -14 16 -24 34 l-19 35 33 40 c36 46 48 50 73 21z
m392 -19 c16 -19 16 -21 -6 -52 l-23 -33 -13 32 c-7 18 -18 32 -23 32 -7 0 -7
6 0 20 14 25 42 26 65 1z m103 -1 c7 -11 8 -20 2 -20 -5 0 -14 9 -20 20 -6 11
-7 20 -3 20 5 0 14 -9 21 -20z m-1223 0 c6 -10 -24 -59 -37 -60 -12 0 -9 28 4
50 14 22 24 25 33 10z m-99 -24 c3 -8 -5 -31 -19 -50 l-24 -36 -11 25 c-15 33
-16 31 10 55 26 24 37 25 44 6z m-265 -32 l22 -36 -31 -30 -30 -31 -21 44 -22
44 26 23 c14 12 28 22 30 22 2 0 13 -16 26 -36z m142 7 c3 -11 -6 -35 -21 -57
-23 -35 -26 -36 -38 -19 -20 27 -17 46 13 77 28 29 38 29 46 -1z m1962 -11
c12 -23 13 -35 5 -50 -6 -11 -14 -20 -19 -20 -14 0 -33 57 -26 79 9 29 22 26
40 -9z m-2235 -2 c0 -14 -40 -58 -52 -58 -16 0 -8 36 13 58 20 22 39 22 39 0z
m1759 -36 c14 -9 -23 -23 -77 -28 -70 -8 -76 0 -47 56 l15 30 53 -27 c28 -15
54 -29 56 -31z m104 44 c22 -17 21 -45 -1 -74 -20 -26 -62 -28 -70 -4 -3 11
-1 11 16 1 28 -17 39 -5 23 25 -12 22 -7 66 7 66 4 0 15 -7 25 -14z m254 -9
c9 -20 7 -29 -11 -52 l-22 -27 -12 27 c-11 23 -10 31 3 51 19 30 29 30 42 1z
m-833 -22 c9 -19 21 -37 26 -40 25 -16 4 -25 -55 -25 -64 0 -64 0 -55 24 10
27 49 76 61 76 4 0 14 -16 23 -35z m259 0 c20 -43 13 -48 -59 -43 l-48 3 33
38 c18 20 39 37 45 37 7 0 20 -16 29 -35z m-980 -46 c25 -25 26 -29 11 -44
-15 -15 -17 -14 -28 1 -7 9 -19 15 -27 12 -31 -11 -53 64 -26 91 10 10 15 8
27 -10 8 -12 27 -34 43 -50z m165 13 c26 -57 27 -72 7 -73 -64 -4 -69 -3 -78
24 -7 23 -4 35 15 62 12 19 26 35 29 35 3 0 15 -22 27 -48z m177 18 c3 -11 13
-27 22 -35 8 -9 13 -21 10 -29 -6 -16 -107 -30 -121 -16 -8 8 60 99 76 100 4
0 10 -9 13 -20z m-500 -29 c-8 -36 -23 -49 -31 -27 -5 14 25 71 33 62 3 -3 2
-18 -2 -35z m704 8 c13 -17 21 -32 19 -33 -11 -10 -108 -13 -114 -5 -7 12 44
69 61 69 6 0 21 -14 34 -31z m-201 -91 c17 -17 15 -28 -6 -28 -10 0 -56 -12
-103 -26 -180 -55 -210 -62 -214 -50 -2 6 -6 19 -9 29 -3 9 -1 27 5 40 10 21
15 22 129 22 66 -1 120 2 120 6 0 4 12 10 28 12 15 2 29 5 33 6 3 0 10 -4 17
-11z m102 2 c-36 -12 -62 -12 -55 0 3 6 23 10 43 9 33 -1 34 -2 12 -9z m336 2
c5 -4 11 -25 12 -46 3 -34 1 -38 -13 -26 -8 7 -30 20 -48 29 -50 25 -44 34 33
50 3 0 10 -3 16 -7z m-161 -33 c13 -19 -5 -23 -38 -6 l-32 16 32 0 c17 1 35
-4 38 -10z m63 -48 c3 -8 -1 -12 -9 -9 -7 2 -15 10 -17 17 -3 8 1 12 9 9 7 -2
15 -10 17 -17z m-60 -53 c-3 -7 -13 -15 -24 -17 -16 -3 -17 -1 -5 13 16 19 34
21 29 4z m80 -30 c9 -9 8 -16 -4 -29 -14 -15 -18 -15 -45 -2 -28 14 -29 16
-12 29 22 17 45 18 61 2z m-154 -43 c-15 -23 -44 -35 -44 -18 0 12 33 43 47
43 11 0 10 -5 -3 -25z m71 -27 c29 -13 31 -21 10 -38 -11 -9 -22 -9 -50 0 -35
12 -36 13 -19 31 20 22 25 23 59 7z m85 -38 c12 -7 12 -12 -4 -29 -11 -12 -25
-21 -32 -21 -22 0 -27 21 -8 41 19 22 23 22 44 9z m-156 -41 c21 -10 23 -14
13 -30 -14 -23 -21 -23 -53 -3 -19 13 -22 20 -13 30 14 17 21 17 53 3z m73
-70 c-13 -20 -38 -22 -44 -3 -2 7 4 19 13 28 23 24 49 3 31 -25z m-143 1 c31
-11 33 -30 8 -53 -17 -16 -20 -15 -42 8 -19 20 -21 27 -10 40 15 18 12 17 44
5z m221 -27 c-18 -33 -36 -45 -52 -31 -29 23 -6 58 38 58 27 0 27 -1 14 -27z
m-135 -37 c0 -6 -9 -22 -20 -36 -18 -24 -20 -24 -36 -8 -17 17 -17 19 5 42 23
24 51 25 51 2z m61 -29 c15 -12 14 -16 -11 -47 -24 -30 -30 -32 -44 -21 -20
17 -20 27 2 56 19 28 30 30 53 12z"/>
<path d="M1437 1612 c-15 -16 -27 -33 -27 -40 0 -19 30 -14 37 6 3 9 12 24 20
34 25 28 -3 28 -30 0z"/>
</g>
</svg>
