<?xml version="1.0" standalone="no"?>
<!DOCTYPE svg PUBLIC "-//W3C//DTD SVG 20010904//EN"
 "http://www.w3.org/TR/2001/REC-SVG-20010904/DTD/svg10.dtd">
<svg version="1.0" xmlns="http://www.w3.org/2000/svg"
 width="298.000000pt" height="202.000000pt" viewBox="0 0 298.000000 202.000000"
 preserveAspectRatio="xMidYMid meet">
<metadata>
Created by potrace 1.16, written by Peter Selinger 2001-2019
</metadata>
<g transform="translate(0.000000,202.000000) scale(0.100000,-0.100000)"
fill="#000000" stroke="none">
<path d="M735 1921 c-10 -10 -47 -14 -237 -27 -87 -6 -98 -5 -98 10 0 23 -141
24 -165 0 -10 -11 -12 -20 -6 -28 8 -9 7 -496 -2 -601 -3 -42 14 -40 161 21
42 18 54 37 30 48 -7 3 -2 3 12 -1 72 -18 183 -2 158 23 -4 4 -56 8 -115 10
-60 1 -110 3 -112 3 -2 1 4 10 14 21 15 17 30 20 89 19 98 -1 116 -8 155 -59
37 -50 124 -116 162 -124 13 -3 38 -9 54 -15 l30 -9 -30 -3 c-16 -1 -42 -3
-57 -3 -30 -2 -61 -35 -49 -51 5 -5 7 -32 7 -60 -1 -27 -3 -75 -4 -105 l-2
-55 -72 -36 c-40 -20 -117 -58 -170 -85 -53 -27 -100 -45 -104 -41 -8 8 33
179 52 216 8 14 14 34 14 43 0 9 12 26 26 37 29 23 27 53 -3 48 -10 -2 -35 -7
-55 -11 -21 -5 -61 -9 -90 -10 -53 -1 -53 -1 -50 -31 4 -49 2 -147 -4 -156 -3
-5 0 -9 5 -9 11 0 16 -72 6 -82 -10 -10 -115 35 -115 48 0 8 -7 14 -15 14 -8
0 -15 7 -15 15 0 18 -11 19 -33 3 -15 -12 -16 -20 -6 -73 6 -35 9 -93 5 -138
-5 -59 -3 -79 7 -82 7 -3 47 12 89 34 75 39 95 40 82 7 -3 -9 -3 -24 1 -33 8
-22 12 -123 4 -123 -3 0 -6 -6 -6 -13 0 -7 -3 -25 -7 -40 -5 -22 -3 -27 13
-27 13 0 21 9 26 29 4 17 14 31 26 34 18 5 19 9 9 27 -8 15 -9 35 -2 68 5 26
10 69 11 96 1 28 4 53 6 57 5 8 169 -47 200 -67 11 -7 50 -24 86 -39 63 -25
67 -28 72 -63 6 -40 0 -186 -9 -214 -3 -10 3 -27 15 -39 14 -16 19 -31 16 -51
-5 -24 -2 -28 18 -28 13 0 27 4 32 9 9 8 61 24 165 51 61 16 240 24 240 11 0
-6 9 -11 20 -11 11 0 20 6 20 14 0 7 9 16 21 19 12 3 18 10 14 16 -3 6 -11 9
-16 5 -6 -3 -9 0 -8 7 1 8 -1 21 -5 30 -12 27 -2 91 14 100 8 4 24 11 35 15
17 7 15 9 -11 12 -31 3 -31 4 -28 55 4 60 36 207 45 207 3 0 4 11 2 24 -3 13
3 58 12 101 l17 76 115 55 c63 30 118 54 122 54 10 0 250 94 307 120 23 11 55
22 70 26 16 4 55 20 86 35 32 16 62 29 68 29 6 0 75 28 153 62 l142 62 174 6
c111 3 176 9 178 16 4 11 -80 34 -126 34 -15 0 -31 4 -37 10 -6 6 -21 6 -39 1
-35 -10 -195 -4 -245 10 -19 5 -53 9 -75 9 -22 0 -56 5 -75 10 -38 11 -224 37
-330 46 -36 3 -148 21 -250 40 -102 19 -225 42 -275 51 -49 8 -102 21 -117 29
-40 20 -64 17 -87 -12 -17 -22 -23 -24 -42 -13 -47 25 -269 -19 -328 -65 -11
-8 -15 -8 -18 2 -3 6 -11 12 -19 12 -11 0 -14 16 -14 66 0 57 2 65 14 55 18
-15 30 5 39 63 3 21 18 60 32 88 14 27 23 53 20 58 -8 13 -28 13 -40 1z m-405
-59 c0 -5 -9 -35 -20 -67 -11 -32 -21 -68 -21 -79 -1 -12 -5 13 -10 54 -5 41
-6 81 -4 88 5 13 55 17 55 4z m372 -44 l-17 -51 -7 42 c-4 23 -10 46 -13 51
-4 6 7 10 23 10 l30 0 -16 -52z m-82 28 c-19 -19 -56 -26 -150 -31 -76 -4
-108 4 -96 23 4 7 46 11 107 11 55 -1 103 2 107 5 3 3 15 6 26 6 18 0 18 -2 6
-14z m12 -98 c-5 -5 -19 -8 -31 -6 -20 3 -20 4 7 38 l27 35 3 -29 c2 -16 -1
-33 -6 -38z m-60 46 c4 -3 -1 -19 -10 -35 -16 -27 -21 -29 -75 -29 -49 0 -62
4 -78 23 -10 12 -18 25 -19 29 0 4 35 9 78 11 42 1 82 4 88 5 6 1 13 -1 16 -4z
m-204 -34 c11 -18 10 -20 -12 -20 -19 0 -23 4 -19 20 3 11 8 20 12 20 3 0 12
-9 19 -20z m42 -72 c18 -23 18 -23 -18 -30 -83 -15 -90 -11 -72 38 9 23 14 26
41 20 17 -3 39 -16 49 -28z m220 2 c0 -29 -2 -30 -45 -30 -44 0 -45 1 -34 23
15 28 28 37 57 37 18 0 22 -6 22 -30z m-100 6 c0 -41 -70 -50 -88 -12 -11 25
-10 25 38 24 32 0 50 -4 50 -12z m-84 -84 c1 -19 -4 -22 -35 -23 -20 0 -49 -2
-66 -4 -44 -4 -65 4 -65 25 0 17 9 20 73 22 93 5 92 5 93 -20z m168 12 c9 -3
16 -12 16 -20 0 -10 -15 -14 -60 -14 -60 0 -70 6 -48 28 13 13 66 16 92 6z
m676 -19 c63 -9 180 -29 260 -45 152 -30 249 -45 365 -55 101 -8 348 -53 300
-54 -259 -5 -994 -6 -1040 -2 -60 6 -60 6 -57 36 2 17 10 34 18 38 17 10 18
25 1 57 -18 34 -11 53 17 46 11 -3 73 -13 136 -21z m-236 -31 c17 -11 20 -26
20 -86 l1 -73 370 -1 c204 0 476 -1 605 -3 l235 -2 -80 -25 c-44 -13 -120 -35
-170 -48 -49 -13 -107 -30 -127 -39 -21 -9 -38 -14 -38 -12 0 3 -17 -1 -37 -9
-30 -11 -352 -116 -373 -121 -3 -1 -18 -7 -34 -14 -46 -19 -59 -12 -41 23 26
50 23 52 -87 49 -114 -2 -139 -13 -118 -53 6 -12 10 -23 8 -24 -2 -1 -43 1
-93 5 -49 4 -100 5 -112 2 -30 -7 -29 8 2 35 16 14 23 27 18 35 -4 7 -6 20 -5
30 4 19 0 20 -70 17 -80 -3 -168 33 -225 92 -29 30 -34 41 -25 50 16 16 15 38
-1 38 -9 0 -12 10 -9 30 3 19 10 30 20 30 9 0 25 8 36 19 26 23 110 51 201 66
74 13 98 11 129 -11z m-606 -33 c-13 -21 -49 -31 -114 -31 -40 0 -44 2 -44 25
0 25 1 25 85 25 81 0 85 -1 73 -19z m182 -1 c0 -17 -7 -20 -45 -20 -25 0 -48
-1 -51 -2 -4 -2 -13 7 -21 20 l-15 22 66 0 c59 0 66 -2 66 -20z m-154 -27
c-10 -10 -19 5 -10 18 6 11 8 11 12 0 2 -7 1 -15 -2 -18z m-82 -48 c-15 -22
-65 -38 -91 -28 -7 3 -13 16 -13 29 0 20 5 23 48 26 67 4 74 1 56 -27z m136 5
l25 -20 -67 0 c-68 0 -79 5 -56 28 18 18 70 14 98 -8z m100 6 c0 -37 -38 -47
-58 -16 -11 19 -10 20 23 20 19 0 35 -2 35 -4z m-286 -71 c-7 -17 -35 -35 -54
-35 -25 0 -3 35 25 41 17 4 31 7 32 8 1 0 0 -6 -3 -14z m6 -63 c0 -7 -17 -18
-62 -40 -5 -2 -8 8 -8 22 0 23 4 26 35 26 19 0 35 -4 35 -8z m1667 -62 c-20
-11 -42 -20 -48 -20 -10 0 -151 -59 -269 -113 -25 -11 -49 -21 -55 -22 -13 -2
-35 -11 -125 -53 -101 -47 -160 -72 -170 -72 -16 0 10 75 32 92 13 10 46 24
73 32 28 8 68 20 90 26 22 6 63 18 90 26 28 9 64 19 80 24 17 5 89 29 160 54
143 49 208 61 142 26z m-681 -136 c3 -13 3 -32 -2 -41 -9 -20 -11 -30 -13 -56
-1 -15 -8 -18 -43 -15 -38 3 -43 6 -45 30 -1 19 5 31 18 38 23 13 16 30 -12
30 -12 0 -19 7 -19 19 0 16 8 20 43 23 56 4 66 0 73 -28z m-416 19 c0 -4 -24
-77 -54 -162 -47 -136 -59 -176 -72 -251 -2 -8 -6 -43 -10 -77 -4 -34 -10 -60
-14 -58 -16 10 -20 155 -9 338 6 105 12 194 15 196 12 13 144 25 144 14z m93
-53 c108 0 185 -12 190 -29 9 -37 -1 -40 -116 -35 -72 4 -122 2 -140 -5 -31
-12 -32 -39 -1 -32 10 2 30 4 44 4 36 1 204 -14 211 -19 4 -2 4 -15 1 -29 -4
-24 -7 -25 -86 -25 -44 0 -114 -5 -155 -10 -41 -6 -76 -8 -79 -6 -2 3 13 50
34 106 22 55 40 96 42 90 2 -5 27 -10 55 -10z m-669 -65 c-4 -8 -1 -15 5 -15
6 0 11 7 11 15 0 10 10 15 31 15 29 0 30 -1 24 -32 -4 -18 -16 -60 -26 -93
-11 -33 -22 -77 -26 -98 -6 -41 -14 -50 -36 -41 -11 4 -13 13 -7 40 4 18 4 51
-1 72 -4 21 -7 56 -5 77 2 22 4 48 5 58 1 9 8 17 16 17 9 0 12 -6 9 -15z m960
-70 c-3 -13 -11 -48 -18 -77 -9 -43 -16 -54 -34 -56 -19 -3 -22 1 -22 27 0 26
4 31 25 31 15 0 25 6 25 15 0 8 -11 17 -25 21 -18 4 -25 13 -25 29 0 24 14 32
58 34 19 1 21 -3 16 -24z m-98 -87 c1 -9 -1 -20 -5 -25 -3 -6 -72 -13 -156
-16 -82 -3 -154 -6 -160 -7 -21 -5 -35 0 -35 13 1 34 17 39 161 46 177 9 192
8 195 -11z m-484 -81 c-5 -33 -5 -81 0 -113 5 -31 7 -59 4 -61 -4 -5 -17 1
-128 51 -31 14 -62 26 -68 26 -5 0 -18 4 -28 9 -9 6 -29 12 -44 16 -16 3 -28
9 -28 14 0 8 125 73 167 85 12 4 45 20 75 36 62 34 65 31 50 -63z m-546 15 c5
-5 30 -17 57 -26 44 -16 47 -20 47 -52 0 -32 -4 -37 -52 -59 -77 -36 -79 -35
-77 38 1 34 -1 72 -5 85 -8 23 10 31 30 14z m1022 -57 l3 -45 -88 -2 c-93 -1
-108 -2 -215 -13 l-68 -6 0 33 c0 69 13 73 240 76 l125 2 3 -45z m72 27 c0
-10 -8 -41 -17 -68 l-18 -49 -6 55 c-3 30 -4 61 -1 68 7 19 42 15 42 -6z
m-935 -41 c3 -5 1 -12 -4 -15 -5 -3 -11 1 -15 9 -6 16 9 21 19 6z m-8 -103
c-2 -13 -4 -5 -4 17 -1 22 1 32 4 23 2 -10 2 -28 0 -40z m877 27 c2 -5 1 -25
-1 -42 l-5 -33 -72 -1 c-39 -1 -75 -1 -79 0 -4 1 -58 -3 -119 -9 -61 -6 -113
-8 -117 -4 -3 3 3 12 14 20 16 12 17 16 6 23 -28 17 -4 38 46 40 26 1 64 5 83
10 50 11 239 8 244 -4z m-20 -111 c10 -4 16 -18 16 -38 l0 -31 -97 -3 c-54 -1
-144 -5 -200 -8 l-103 -6 0 23 c0 46 9 49 161 55 79 4 146 8 148 10 7 6 58 5
75 -2z m19 -141 c-1 -27 -2 -52 -2 -57 -1 -4 -9 -5 -18 -1 -10 4 -97 9 -193
11 -96 2 -181 6 -187 9 -7 2 -13 18 -13 35 0 26 4 30 28 31 15 1 101 5 192 9
91 3 172 7 180 8 13 2 15 -8 13 -45z m-105 -88 c2 -2 -27 -6 -65 -10 -37 -4
-107 -17 -155 -30 l-88 -22 0 23 c0 56 0 56 159 48 80 -4 147 -8 149 -9z"/>
</g>
</svg>
