<?xml version="1.0" standalone="no"?>
<!DOCTYPE svg PUBLIC "-//W3C//DTD SVG 20010904//EN"
 "http://www.w3.org/TR/2001/REC-SVG-20010904/DTD/svg10.dtd">
<svg version="1.0" xmlns="http://www.w3.org/2000/svg"
 width="132.000000pt" height="124.000000pt" viewBox="0 0 132.000000 124.000000"
 preserveAspectRatio="xMidYMid meet">
<metadata>
Created by potrace 1.16, written by Peter Selinger 2001-2019
</metadata>
<g transform="translate(0.000000,124.000000) scale(0.100000,-0.100000)"
fill="#000000" stroke="none">
<path d="M1013 1097 c-21 -5 -63 -6 -95 -2 -64 7 -85 -7 -49 -34 12 -9 24 -32
27 -52 5 -30 3 -37 -12 -42 -11 -3 -57 -19 -104 -36 -181 -67 -502 -161 -545
-161 -12 0 -26 5 -33 12 -8 8 -15 8 -27 -2 -19 -16 -12 -43 25 -90 15 -19 35
-50 44 -67 9 -18 22 -33 29 -33 7 0 46 34 87 76 83 85 134 113 295 165 53 16
129 48 168 70 40 21 75 39 79 39 9 0 10 -210 1 -258 l-5 -33 -72 7 c-87 8
-113 17 -149 52 -25 24 -30 25 -40 11 -7 -8 -21 -18 -31 -22 -17 -7 -18 -15
-12 -90 4 -45 10 -85 15 -90 4 -4 31 4 58 18 28 14 56 25 63 25 7 0 41 10 75
22 101 34 99 38 92 -172 -4 -98 -3 -181 1 -184 19 -12 29 14 36 89 4 44 7 103
6 131 -1 61 17 146 33 156 7 4 29 8 49 8 20 0 39 4 43 9 8 13 -29 23 -58 16
-38 -10 -40 8 -9 87 16 40 35 96 42 123 7 28 16 55 20 60 4 6 15 33 25 60 10
28 34 67 53 87 26 27 32 39 21 42 -28 9 -109 11 -146 3z m74 -34 c-23 -40 -46
-102 -109 -288 -22 -66 -41 -121 -41 -122 -1 -1 -2 66 -1 148 0 82 2 150 5
152 2 2 25 11 52 21 26 10 47 24 47 32 0 18 1 18 -56 -6 -26 -11 -48 -19 -50
-18 -1 2 -5 20 -9 40 l-7 37 53 4 c106 7 120 7 116 0z m-647 -279 c0 -3 -16
-12 -35 -20 -19 -8 -35 -21 -35 -30 0 -18 -67 -84 -85 -84 -10 0 -60 80 -53
85 2 1 30 9 63 19 130 38 145 41 145 30z m228 -124 c15 -11 51 -24 80 -29 29
-4 55 -10 57 -13 5 -5 -65 -26 -136 -42 -30 -6 -39 10 -39 72 0 38 2 38 38 12z"/>
<path d="M364 591 c-11 -24 -86 -113 -138 -164 -21 -21 -35 -41 -31 -45 4 -4
34 -8 68 -8 118 -3 199 -20 272 -59 53 -27 77 -35 101 -30 24 4 53 -5 125 -39
111 -53 129 -66 129 -95 0 -24 17 -27 45 -5 19 14 19 15 -13 45 -17 16 -58 42
-89 57 -56 27 -151 82 -243 142 -25 16 -66 42 -91 57 -25 15 -63 43 -84 62
-38 33 -38 33 -22 61 21 36 21 40 -1 40 -11 0 -23 -9 -28 -19z m63 -121 c37
-27 82 -60 98 -73 17 -13 45 -32 63 -41 19 -10 32 -19 29 -22 -5 -5 -139 44
-151 56 -5 5 -21 7 -36 4 -25 -5 -138 11 -148 21 -7 7 62 105 74 105 2 0 34
-22 71 -50z"/>
</g>
</svg>
