<?xml version="1.0" standalone="no"?>
<!DOCTYPE svg PUBLIC "-//W3C//DTD SVG 20010904//EN"
 "http://www.w3.org/TR/2001/REC-SVG-20010904/DTD/svg10.dtd">
<svg version="1.0" xmlns="http://www.w3.org/2000/svg"
 width="223.000000pt" height="190.000000pt" viewBox="0 0 223.000000 190.000000"
 preserveAspectRatio="xMidYMid meet">
<metadata>
Created by potrace 1.16, written by Peter Selinger 2001-2019
</metadata>
<g transform="translate(0.000000,190.000000) scale(0.100000,-0.100000)"
fill="#000000" stroke="none">
<path d="M1399 1772 c-14 -9 -41 -35 -61 -56 -34 -38 -35 -39 -59 -23 -51 36
-90 9 -44 -30 30 -26 30 -24 -22 -80 -18 -20 -32 -16 -45 12 -11 24 -28 32
-41 19 -3 -4 0 -19 8 -34 12 -23 12 -33 2 -52 -26 -49 -28 -51 -47 -33 -21 19
-33 7 -28 -29 2 -17 -10 -38 -40 -72 l-44 -47 27 -21 27 -22 -68 -42 c-238
-147 -280 -172 -289 -169 -17 6 -12 77 11 157 12 41 27 99 34 129 7 30 26 81
43 113 16 32 27 61 25 64 -3 2 -45 0 -94 -5 -49 -6 -114 -13 -144 -15 -30 -3
-55 -5 -55 -6 0 -4 7 -175 10 -267 6 -140 12 -134 -86 -103 -107 32 -149 39
-178 29 l-27 -10 2 -97 c6 -225 6 -260 0 -271 -27 -44 161 34 268 111 22 15
41 26 43 24 3 -3 9 -91 15 -198 8 -163 13 -235 17 -257 1 -2 10 4 21 14 18 16
20 29 18 98 -1 56 2 81 12 87 9 5 11 22 8 54 -3 26 -2 48 1 51 4 2 8 26 10 53
1 28 8 81 14 119 13 66 14 68 44 71 18 2 56 -4 85 -13 29 -10 69 -21 88 -25
19 -4 60 -18 90 -30 30 -12 66 -25 80 -29 14 -4 25 -13 25 -21 0 -7 21 -19 48
-27 51 -15 54 -18 32 -47 -14 -18 -16 -18 -33 -3 -27 24 -72 23 -72 -2 0 -11
9 -22 19 -26 33 -10 45 -33 33 -60 -10 -22 -14 -23 -47 -12 -27 8 -38 8 -48
-2 -9 -9 -5 -17 17 -34 28 -23 29 -24 11 -50 -9 -15 -21 -27 -26 -27 -4 0 -16
-16 -25 -35 -9 -19 -30 -47 -47 -61 -22 -19 -27 -28 -18 -37 8 -8 23 1 61 38
45 45 51 48 75 37 14 -6 25 -16 25 -21 0 -14 -29 -41 -44 -41 -21 0 -36 -22
-26 -40 6 -12 1 -33 -20 -72 -16 -30 -26 -58 -23 -62 15 -15 32 -3 57 44 25
45 30 49 54 44 15 -4 30 -9 34 -13 4 -4 -11 -37 -34 -74 -36 -59 -39 -70 -27
-83 13 -12 18 -12 37 2 12 8 22 26 22 39 0 36 35 88 62 92 49 6 51 -10 13 -76
-34 -57 -40 -91 -16 -91 5 0 26 29 46 65 20 36 43 65 51 65 8 0 42 -12 75 -26
60 -25 104 -29 104 -9 0 5 -16 14 -35 20 -20 5 -49 19 -65 31 -17 11 -38 24
-48 27 -17 6 -19 27 -4 38 5 3 25 1 46 -4 40 -11 81 -3 65 12 -5 5 -26 14 -46
21 -49 15 -53 23 -25 56 20 23 26 25 45 15 30 -16 40 6 12 31 l-21 20 22 24
c29 31 3 34 -30 3 -23 -21 -23 -21 -42 -2 -20 19 -20 20 1 46 18 22 25 25 41
17 31 -17 45 0 18 21 -20 15 -22 21 -13 36 9 14 22 17 55 15 l43 -3 -22 24
c-12 13 -22 31 -22 41 0 13 -6 17 -19 13 -11 -3 -29 2 -41 10 l-21 15 21 34
c18 29 19 34 6 34 -9 0 -25 -9 -36 -20 -19 -19 -22 -19 -50 -5 -17 9 -30 19
-30 23 0 4 16 32 35 62 21 32 31 56 25 58 -13 5 -60 -36 -60 -52 -1 -6 -9 -21
-20 -34 -14 -17 -25 -21 -44 -16 -14 3 -26 10 -26 15 0 14 84 127 99 133 7 4
32 -12 57 -36 43 -42 43 -44 29 -72 -18 -34 -11 -50 16 -36 11 6 17 15 14 20
-3 5 2 18 12 28 10 10 19 25 21 33 5 21 52 79 64 79 5 0 7 -8 4 -17 -4 -10 -4
-14 0 -10 4 4 13 -1 20 -12 11 -15 9 -27 -18 -78 -20 -38 -29 -66 -25 -77 6
-15 10 -16 22 -6 8 7 15 19 15 27 0 19 39 75 49 69 4 -3 17 -25 30 -50 25 -52
33 -55 55 -24 15 21 15 21 54 -22 l38 -43 34 41 c18 23 39 42 47 42 7 0 13 9
13 21 0 11 8 32 19 45 l18 23 19 -20 c14 -16 16 -24 7 -39 -7 -10 -19 -34 -27
-54 -21 -50 2 -48 34 3 13 22 28 38 32 35 17 -11 28 7 16 26 -10 16 -9 23 9
42 34 36 85 140 74 151 -6 6 -27 -19 -58 -67 -26 -42 -52 -76 -56 -76 -4 0
-12 10 -16 23 -10 24 8 61 61 130 26 33 27 37 10 37 -12 0 -34 -19 -53 -45
-19 -24 -38 -43 -44 -41 -17 5 -29 77 -16 99 30 47 -28 24 -76 -31 l-31 -36
-11 42 c-7 23 -17 42 -23 42 -5 0 -27 -19 -48 -42 l-37 -42 -13 39 c-8 22 -13
50 -11 63 1 12 -1 22 -6 22 -10 0 -73 -71 -73 -82 0 -4 -5 -8 -11 -8 -5 0 -8
4 -5 8 2 4 1 14 -4 22 -16 26 -45 -2 -47 -44 -1 -41 -40 -125 -64 -139 -12 -8
-24 -1 -52 29 -20 21 -37 44 -37 50 0 5 13 23 29 38 23 22 29 25 34 12 12 -30
26 -16 22 19 -3 19 -1 35 3 35 14 0 97 79 83 80 -7 0 -34 -15 -60 -34 l-46
-33 -31 46 c-27 41 -30 50 -18 65 14 19 34 14 34 -10 0 -8 5 -14 11 -14 8 0 9
14 5 43 -6 40 -4 47 30 86 34 38 38 40 54 26 22 -20 30 -19 30 5 0 11 -4 20
-10 20 -14 0 -8 21 13 44 25 29 21 41 -8 22 -32 -21 -38 -20 -53 5 -12 18 -11
24 9 45 29 31 16 44 -15 15 -22 -20 -25 -21 -40 -6 -25 26 -20 40 38 100 54
55 62 79 15 47z m-85 -189 c6 -15 0 -28 -38 -70 l-19 -23 -17 28 c-17 26 -17
28 12 59 31 32 52 34 62 6z m56 -58 c9 -11 6 -22 -21 -55 -37 -46 -40 -47 -62
-22 -15 17 -14 21 14 55 33 40 50 45 69 22z m-660 -62 c-12 -26 -33 -91 -47
-143 -47 -175 -53 -194 -63 -204 -13 -13 -38 9 -44 42 -8 39 -19 185 -20 267
l-1 70 80 7 c44 4 87 9 95 11 23 5 23 2 0 -50z m503 22 c17 -23 16 -25 -7 -49
-28 -31 -30 -31 -55 -10 -22 19 -18 41 13 66 27 22 28 22 49 -7z m65 -68 c7
-8 4 -20 -12 -40 -19 -24 -24 -26 -41 -14 -13 10 -16 19 -10 33 4 10 8 21 7
24 -2 12 46 9 56 -3z m-148 -32 c11 -13 9 -19 -10 -40 -29 -30 -33 -31 -65 -3
l-25 22 26 27 c28 29 46 28 74 -6z m62 -52 c24 -22 23 -26 -13 -68 l-31 -35
-20 25 c-20 26 -18 35 15 73 24 26 25 27 49 5z m-142 -60 c0 -3 -19 -30 -41
-59 -44 -57 -48 -95 -9 -74 11 6 20 16 20 23 1 7 11 25 24 40 21 26 25 28 45
16 11 -8 21 -22 21 -32 0 -21 -39 -85 -69 -111 -25 -23 -29 -51 -5 -42 9 3 20
6 24 6 5 0 28 27 51 60 l42 59 28 -20 c16 -11 31 -24 34 -28 2 -5 -17 -36 -43
-70 l-47 -60 -45 5 c-25 4 -49 11 -55 18 -5 6 -20 10 -33 8 -13 -2 -31 0 -40
4 -9 4 -22 8 -27 9 -6 2 -48 15 -94 31 l-83 28 28 23 c16 13 58 43 94 67 36
23 78 51 94 62 62 42 86 52 86 37z m234 -24 c14 -17 26 -34 26 -38 0 -4 -15
-22 -33 -39 l-33 -32 -27 23 c-32 27 -33 39 -6 83 26 42 40 43 73 3z m263 -94
c6 -19 8 -35 3 -35 -4 0 -10 -10 -14 -22 -5 -22 -6 -22 -20 -3 -19 24 -20 67
-4 83 18 18 24 15 35 -23z m120 -15 c6 -16 8 -30 4 -30 -4 0 -14 -12 -21 -27
-12 -25 -14 -26 -18 -8 -2 11 -8 25 -14 32 -6 8 -4 20 7 37 22 33 28 33 42 -4z
m119 -45 c14 -39 15 -49 4 -70 -7 -14 -16 -25 -19 -25 -14 0 -39 105 -30 122
15 28 26 21 45 -27z m-1374 11 c59 -16 98 -42 98 -64 0 -10 5 -23 11 -29 15
-15 -53 -66 -151 -114 -44 -22 -82 -39 -86 -39 -3 0 -3 35 1 78 4 42 8 99 9
125 3 52 18 71 51 62 11 -3 41 -12 67 -19z m180 -68 c-6 -6 -16 -7 -23 -3 -9
6 -7 12 7 22 21 15 34 -1 16 -19z m985 17 c-4 -8 -2 -17 2 -20 13 -8 19 -38
11 -60 -6 -17 -10 -15 -28 20 -14 29 -17 46 -11 58 12 21 33 23 26 2z m141
-45 l23 -50 -25 -36 -24 -36 -15 23 c-27 41 -30 75 -12 113 10 20 20 36 24 36
3 0 16 -22 29 -50z m-1131 -87 c-2 -16 -4 -5 -4 22 0 28 2 40 4 28 2 -13 2
-35 0 -50z m659 -96 c-10 -47 -28 -57 -61 -33 -16 12 -17 18 -7 40 10 23 14
24 41 15 16 -6 28 -16 27 -22z m77 -35 c14 -16 14 -19 -2 -41 -16 -21 -21 -22
-42 -11 -35 18 -35 18 -9 45 28 30 32 30 53 7z m-148 -46 c19 -14 19 -15 1
-35 -24 -26 -31 -26 -57 0 -20 20 -20 21 -2 34 23 18 35 18 58 1z m76 -39 c-1
-4 -1 -20 -1 -37 0 -28 -1 -29 -25 -18 -29 13 -32 35 -7 54 17 14 34 14 33 1z
m-138 -54 c4 -2 3 -12 -2 -20 -13 -24 -49 -24 -57 0 -10 31 20 41 59 20z m106
-48 c2 -3 -3 -13 -12 -23 -20 -19 -50 -7 -56 23 -3 15 2 17 30 11 18 -3 35 -9
38 -11z m69 -34 c10 -6 11 -13 1 -34 -14 -30 -31 -34 -48 -13 -9 11 -10 20 -1
35 11 22 27 26 48 12z m-145 -45 c15 -12 16 -18 7 -35 -11 -22 -26 -26 -54
-15 -21 8 -20 40 2 53 22 13 23 13 45 -3z m75 -55 c15 -9 13 -42 -3 -48 -6 -2
-19 3 -30 11 -16 12 -17 16 -6 30 15 18 21 19 39 7z"/>
</g>
</svg>
