<?xml version="1.0" standalone="no"?>
<!DOCTYPE svg PUBLIC "-//W3C//DTD SVG 20010904//EN"
 "http://www.w3.org/TR/2001/REC-SVG-20010904/DTD/svg10.dtd">
<svg version="1.0" xmlns="http://www.w3.org/2000/svg"
 width="222.000000pt" height="210.000000pt" viewBox="0 0 222.000000 210.000000"
 preserveAspectRatio="xMidYMid meet">
<metadata>
Created by potrace 1.16, written by Peter Selinger 2001-2019
</metadata>
<g transform="translate(0.000000,210.000000) scale(0.100000,-0.100000)"
fill="#000000" stroke="none">
<path d="M964 2010 c-48 -38 -115 -96 -148 -128 -34 -31 -81 -70 -104 -85 -31
-20 -43 -34 -39 -46 2 -10 -2 -26 -10 -37 -13 -18 -15 -18 -27 -1 -7 9 -23 17
-35 17 -12 0 -24 -8 -28 -17 -6 -19 -83 -149 -113 -193 -10 -14 -37 -54 -60
-90 -60 -90 -121 -159 -136 -153 -17 6 -42 -34 -46 -77 -3 -23 -11 -39 -26
-46 l-22 -11 23 -12 c12 -6 31 -11 42 -11 11 1 60 4 109 6 49 3 99 3 111 0 25
-6 105 -82 105 -100 0 -6 -15 -11 -33 -12 -17 -1 -61 -4 -97 -8 -83 -9 -124
-8 -156 4 -14 6 -32 10 -40 10 -16 0 -19 -33 -4 -59 5 -10 11 -39 14 -65 6
-71 38 -99 56 -52 5 14 17 29 27 34 22 11 190 41 251 45 43 2 45 1 86 -57 42
-60 70 -85 81 -74 4 4 -5 27 -19 51 -23 39 -25 48 -15 71 7 14 19 27 28 28 9
0 21 2 26 3 6 1 37 5 70 9 33 4 85 16 115 27 30 10 71 21 90 23 19 2 42 6 50
9 8 3 26 8 40 11 14 3 64 16 113 29 101 28 101 25 -8 -62 -96 -77 -319 -212
-507 -308 -26 -13 -65 -41 -88 -63 l-41 -40 -51 28 c-66 35 -89 49 -112 64
-41 29 -192 140 -209 153 -17 15 -37 20 -37 9 0 -3 33 -42 73 -87 89 -100 129
-158 169 -242 16 -36 37 -69 45 -73 15 -9 38 -43 49 -75 5 -13 13 -17 29 -13
18 5 25 0 34 -23 7 -15 30 -47 52 -69 21 -23 49 -60 61 -84 11 -24 29 -52 39
-63 10 -11 25 -37 34 -58 22 -53 38 -48 31 11 -3 26 -7 81 -10 122 -2 41 -16
121 -30 178 -37 143 -32 158 81 249 49 38 142 110 208 160 66 50 132 103 146
119 14 16 69 71 123 122 84 79 103 92 134 94 109 5 127 1 273 -71 79 -39 164
-82 189 -96 25 -14 50 -25 57 -25 7 0 13 -3 13 -7 0 -8 48 -33 62 -33 24 0
-30 51 -94 89 -75 45 -166 121 -275 229 l-64 64 45 40 c101 88 253 188 287
188 15 0 19 5 14 19 -4 13 1 21 17 26 l23 8 -23 4 c-14 3 -44 -9 -80 -30 -98
-60 -387 -196 -412 -195 -14 1 -36 11 -50 24 -14 12 -41 30 -60 39 -19 10 -84
51 -143 92 -59 40 -111 73 -116 73 -5 0 -14 7 -21 16 -8 8 -59 37 -115 63
-106 50 -145 77 -145 99 0 18 58 131 86 168 13 17 24 34 24 37 0 11 67 96 96
120 17 15 23 26 16 31 -6 3 -50 -25 -98 -64z m-33 -79 c-6 -10 -25 -39 -43
-62 -18 -24 -45 -63 -61 -86 -15 -24 -31 -43 -35 -43 -15 1 -44 29 -40 40 3
10 177 168 186 170 1 0 -2 -9 -7 -19z m-171 -245 c7 -9 18 -16 25 -16 7 0 18
-6 24 -14 7 -8 20 -14 29 -14 19 1 193 -82 232 -111 14 -10 63 -42 110 -72 47
-29 87 -56 90 -60 3 -3 32 -21 65 -39 33 -18 65 -37 70 -42 15 -13 -191 79
-315 142 -41 21 -111 52 -155 71 -44 18 -82 35 -85 38 -3 3 -14 8 -25 9 -39 7
-102 44 -123 71 -19 26 -19 30 -6 50 16 23 37 18 64 -13z m-127 -57 c46 -38
47 -37 -59 -95 -22 -12 -60 -41 -86 -64 -27 -23 -48 -38 -48 -34 0 11 143 224
150 224 3 0 23 -14 43 -31z m273 -115 c49 -21 123 -56 164 -79 42 -22 107 -54
145 -72 39 -17 111 -50 162 -74 50 -23 105 -56 122 -73 l30 -31 -232 2 c-146
1 -279 8 -359 19 l-126 16 11 27 c6 14 17 33 24 42 18 21 17 34 -2 19 -8 -6
-18 -9 -23 -6 -5 3 -22 -12 -37 -34 -32 -46 -34 -47 -136 -35 l-56 6 1 37 c1
46 -15 45 -88 -4 -44 -30 -59 -34 -113 -34 -34 0 -64 4 -67 8 -22 35 216 244
335 295 93 40 80 42 245 -29z m874 -105 c-63 -50 -138 -107 -191 -146 -55 -40
-59 -41 -69 -23 -20 37 -10 48 88 94 53 25 117 57 142 70 55 30 63 31 30 5z
m-975 -159 c-9 -16 -20 -30 -25 -30 -5 0 -1 13 8 30 22 39 37 39 17 0z m-248
-2 c-2 -8 -18 -14 -33 -16 l-29 -2 30 20 c31 20 41 20 32 -2z m-151 -49 c2 -3
37 -4 79 -1 59 4 75 2 75 -9 0 -11 -29 -14 -145 -16 -114 -2 -145 0 -145 11 0
7 3 16 7 20 9 8 123 4 129 -5z m314 -9 c0 -18 -25 -25 -67 -20 -72 8 -67 30 6
27 34 -1 61 -4 61 -7z m910 0 c12 -8 9 -10 -12 -10 -16 0 -28 5 -28 10 0 13
20 13 40 0z m-855 -10 c-3 -5 -13 -10 -21 -10 -8 0 -12 5 -9 10 3 6 13 10 21
10 8 0 12 -4 9 -10z m140 0 c23 -6 12 -8 -42 -9 -43 -1 -73 3 -73 9 0 11 70
11 115 0z m65 -14 c0 -2 -7 -6 -15 -10 -8 -3 -15 -1 -15 4 0 6 7 10 15 10 8 0
15 -2 15 -4z m735 -61 l60 -55 -96 48 c-97 47 -100 53 -34 61 6 0 37 -24 70
-54z m-487 30 c-2 -2 -65 -15 -141 -29 -76 -14 -142 -28 -146 -30 -16 -10
-189 -35 -196 -28 -2 2 5 22 15 43 13 24 28 39 42 41 31 4 430 7 426 3z m-647
-39 c5 -17 7 -31 6 -33 -2 -1 -15 14 -31 33 -28 35 -28 36 -5 32 15 -2 25 -12
30 -32z m90 17 c-5 -10 -16 -27 -24 -37 -13 -18 -14 -18 -25 12 -12 36 -8 42
30 42 24 0 27 -3 19 -17z m67 -25 c-23 -49 -34 -58 -66 -58 -20 0 -21 2 -11
23 18 36 61 77 80 77 16 0 15 -4 -3 -42z m622 31 c-19 -5 -87 -25 -150 -44
-63 -19 -126 -36 -140 -39 -86 -15 -106 -19 -115 -26 -13 -10 -53 -17 -130
-25 -33 -3 -68 -8 -77 -11 -13 -4 -18 0 -18 15 0 31 12 35 149 47 36 3 69 8
74 11 11 7 174 41 229 47 24 3 72 12 108 20 73 16 125 19 70 5z m-657 -129
c-6 -23 -8 -24 -35 -9 -17 9 -18 13 -7 20 26 16 48 11 42 -11z m-111 -9 c15
-18 14 -19 -40 -27 -32 -4 -59 -8 -62 -9 -3 -1 -23 -5 -45 -9 -22 -4 -62 -14
-89 -22 -27 -8 -51 -14 -52 -14 -4 0 -24 63 -21 66 1 1 39 6 83 9 44 4 96 10
115 15 59 14 94 11 111 -9z m573 -102 c-22 -22 -98 -82 -169 -132 -71 -51
-152 -109 -180 -129 -105 -78 -92 -73 -120 -41 -22 25 -23 30 -10 44 8 9 45
32 82 50 37 19 94 50 127 70 33 20 94 56 135 80 41 24 93 56 114 71 56 40 66
34 21 -13z m-597 -321 c41 -22 42 -52 3 -72 -16 -9 -32 -23 -35 -32 -6 -15
-10 -14 -36 11 -17 16 -30 33 -30 37 0 21 -62 139 -75 145 -8 3 -15 11 -15 19
0 8 31 -7 78 -39 43 -28 93 -60 110 -69z m87 -16 c-3 -3 -11 0 -18 7 -9 10 -8
11 6 5 10 -3 15 -9 12 -12z m27 -47 c4 -18 0 -26 -13 -30 -10 -4 -41 -22 -69
-41 -27 -19 -50 -30 -50 -25 0 5 7 14 15 21 8 7 15 19 15 26 0 8 4 14 8 14 5
0 24 14 42 30 41 36 46 37 52 5z m32 -62 c3 -10 8 -40 12 -68 4 -27 11 -60 15
-72 5 -13 11 -53 14 -90 l5 -68 -22 51 c-13 28 -42 72 -66 98 -35 38 -62 82
-62 102 0 6 82 64 91 64 4 0 10 -8 13 -17z"/>
</g>
</svg>
