<?xml version="1.0" standalone="no"?>
<!DOCTYPE svg PUBLIC "-//W3C//DTD SVG 20010904//EN"
 "http://www.w3.org/TR/2001/REC-SVG-20010904/DTD/svg10.dtd">
<svg version="1.0" xmlns="http://www.w3.org/2000/svg"
 width="219.000000pt" height="176.000000pt" viewBox="0 0 219.000000 176.000000"
 preserveAspectRatio="xMidYMid meet">
<metadata>
Created by potrace 1.16, written by Peter Selinger 2001-2019
</metadata>
<g transform="translate(0.000000,176.000000) scale(0.100000,-0.100000)"
fill="#000000" stroke="none">
<path d="M679 1709 c-14 -14 -18 -26 -13 -37 4 -9 8 -67 9 -129 0 -62 4 -115
7 -118 4 -4 19 2 35 13 15 11 39 23 51 27 20 6 23 4 19 -12 -3 -10 -8 -33 -12
-50 -4 -18 -9 -33 -12 -33 -15 0 -180 64 -256 99 -112 53 -156 54 -190 9 -13
-18 -37 -67 -52 -108 -16 -41 -35 -82 -42 -91 -20 -24 -15 -48 12 -61 22 -10
30 -8 57 12 31 23 33 23 127 11 170 -22 306 -42 309 -46 4 -3 -32 -256 -44
-317 -6 -32 -12 -34 -144 -60 -58 -11 -125 -24 -150 -29 -99 -19 -140 -22
-154 -10 -11 10 -17 8 -29 -9 -13 -19 -13 -29 9 -98 13 -42 28 -100 34 -128 6
-29 19 -59 30 -69 26 -23 55 -16 57 15 0 14 1 30 2 36 1 5 20 19 44 29 23 10
74 33 112 50 107 49 133 58 150 51 10 -4 14 -13 10 -28 -6 -28 -13 -84 -14
-118 -1 -14 -5 -32 -11 -40 -7 -12 -12 -11 -30 5 -19 17 -22 18 -37 2 -14 -13
-18 -47 -24 -174 -4 -87 -3 -162 2 -167 5 -6 18 -2 31 11 35 32 74 49 240 105
l153 51 125 -1 c69 -1 132 3 140 8 29 18 -6 31 -98 37 l-90 6 -6 29 c-5 26 6
146 33 367 9 73 19 84 105 113 28 9 89 31 136 48 119 44 169 58 295 81 166 30
150 36 153 -51 2 -41 -2 -113 -8 -160 -29 -210 -23 -315 16 -315 18 0 19 8 20
140 0 157 8 226 36 335 11 41 26 100 33 130 7 30 22 82 34 115 12 33 28 81 37
108 9 28 25 54 39 63 46 30 32 44 -46 44 -48 0 -80 5 -99 16 -35 21 -60 12
-60 -21 0 -14 3 -25 8 -25 7 0 4 -281 -4 -289 -8 -8 -150 22 -184 39 -19 10
-60 24 -90 30 -30 6 -98 24 -150 40 -52 16 -117 34 -143 41 -26 6 -52 19 -56
28 -8 14 3 121 25 258 l6 42 54 7 c30 3 61 3 70 0 19 -7 54 1 54 13 0 10 -29
21 -113 46 -43 13 -98 17 -219 18 -144 1 -235 12 -269 32 -5 4 -14 18 -19 31
-12 29 -24 30 -51 3z m111 -79 c11 -6 73 -12 137 -14 166 -5 165 -5 160 -14
-3 -4 -38 -18 -79 -31 -40 -13 -105 -34 -145 -47 -39 -13 -83 -24 -97 -24 -25
0 -26 2 -26 63 0 79 8 90 50 67z m320 -97 l0 -28 -104 0 c-104 0 -128 8 -51
18 22 3 58 12 80 20 60 24 75 22 75 -10z m-237 -40 c-37 -14 -2 -23 91 -23
113 0 136 -4 136 -26 0 -11 -20 -14 -87 -15 -49 0 -110 -4 -136 -7 -87 -12
-49 -25 72 -25 65 1 124 -3 131 -7 9 -6 11 -23 7 -60 -4 -29 -9 -55 -11 -58
-9 -8 -252 62 -269 77 -4 4 -3 32 3 62 10 52 37 90 64 88 7 0 7 -2 -1 -6z
m-443 -35 c75 -36 198 -88 208 -88 6 0 36 -10 66 -22 57 -21 57 -21 51 -57 -3
-20 -9 -39 -13 -43 -4 -4 -53 1 -107 11 -55 10 -151 25 -212 32 -62 7 -113 16
-113 20 0 15 73 169 79 167 3 -2 22 -11 41 -20z m1490 -108 c0 -6 -4 -18 -10
-28 -5 -9 -19 -46 -31 -82 -12 -36 -30 -87 -39 -113 l-17 -48 -6 53 c-9 70 -9
213 0 221 10 11 103 8 103 -3z m-985 -77 c61 -19 116 -37 123 -39 10 -3 18
-64 8 -64 -2 0 -48 9 -103 21 -54 11 -115 23 -136 26 -46 7 -49 11 -41 63 5
32 10 40 23 35 9 -4 66 -22 126 -42z m341 -98 c76 -19 159 -41 184 -49 41 -13
42 -15 15 -15 -40 -1 -338 40 -347 48 -6 5 0 51 7 51 1 0 65 -16 141 -35z
m-391 -4 c25 -7 19 -9 -43 -12 -64 -4 -72 -2 -72 14 0 15 6 17 43 13 23 -3 56
-10 72 -15z m173 -56 c1 -1 0 -9 -3 -17 -5 -12 -33 -17 -130 -22 -137 -8 -165
-4 -165 24 0 21 26 28 120 33 44 2 166 -11 178 -18z m182 -10 c30 -3 102 -10
160 -15 58 -5 125 -16 149 -24 24 -9 52 -16 63 -16 10 0 16 -4 13 -10 -3 -5
-16 -10 -28 -10 -12 0 -49 -9 -83 -19 -33 -11 -98 -22 -145 -26 -46 -4 -126
-15 -178 -26 -52 -10 -95 -18 -96 -17 -4 5 14 139 21 160 4 15 12 18 37 14 18
-3 57 -8 87 -11z m577 -67 c-3 -7 -5 -2 -5 12 0 14 2 19 5 13 2 -7 2 -19 0
-25z m-777 -22 c0 -19 -6 -36 -12 -39 -21 -7 -242 5 -260 15 -17 8 -24 38 -13
49 2 3 68 6 145 8 l140 2 0 -35z m-37 -70 c20 0 37 -3 37 -8 0 -8 -11 -11
-177 -52 -122 -31 -146 -33 -141 -8 3 13 12 16 46 14 51 -4 55 12 7 28 -19 6
-35 15 -35 20 0 11 117 18 180 11 25 -3 62 -5 83 -5z m277 -15 c-30 -10 -86
-30 -123 -45 l-68 -26 3 22 c3 20 14 25 103 44 124 27 157 29 85 5z m-247 -65
c-4 -19 -18 -30 -57 -45 -141 -55 -239 -91 -252 -91 -10 0 -14 13 -14 45 0 25
2 45 4 45 2 0 48 12 102 26 102 28 163 41 200 43 17 1 20 -4 17 -23z m-362
-107 c-1 -24 -4 -45 -6 -47 -1 -2 -33 -14 -70 -27 -37 -14 -115 -50 -173 -80
-58 -30 -106 -54 -107 -52 -1 1 -12 37 -24 81 -27 92 -29 88 74 110 39 9 120
26 180 39 61 14 115 24 120 22 6 -1 8 -22 6 -46z m346 -12 c-3 -29 -8 -65 -11
-80 -3 -15 -8 -37 -11 -50 -4 -21 -10 -23 -96 -25 -116 -4 -199 6 -206 25 -12
30 17 38 159 43 86 3 143 9 145 16 2 7 -38 9 -123 7 -70 -1 -131 0 -137 4 -5
3 17 19 49 34 63 30 79 35 69 20 -8 -14 124 -26 137 -13 15 15 -2 21 -72 24
l-55 3 60 21 c95 34 98 33 92 -29z m-53 -183 c19 -7 22 -62 3 -70 -7 -2 -42 0
-77 6 -36 6 -81 13 -100 16 -19 2 -50 7 -67 10 -24 4 -33 10 -33 24 0 19 8 20
129 20 71 0 136 -3 145 -6z m-131 -83 c16 -6 53 -11 84 -11 l56 0 -7 -31 c-3
-17 -6 -40 -6 -51 0 -15 -4 -18 -17 -13 -18 7 -53 17 -191 54 -40 10 -76 21
-79 24 -2 3 0 14 5 24 8 15 21 18 69 16 32 -1 71 -7 86 -12z m-54 -93 c63 -16
126 -35 140 -42 l25 -14 -30 -15 c-17 -9 -64 -25 -105 -36 -41 -10 -107 -31
-147 -45 -41 -14 -76 -26 -78 -26 -6 0 6 202 12 212 6 9 39 3 183 -34z"/>
<path d="M900 1362 c0 -27 169 -40 177 -14 3 8 -10 12 -49 12 -29 0 -70 3 -90
6 -25 4 -38 3 -38 -4z"/>
</g>
</svg>
