<?xml version="1.0" standalone="no"?>
<!DOCTYPE svg PUBLIC "-//W3C//DTD SVG 20010904//EN"
 "http://www.w3.org/TR/2001/REC-SVG-20010904/DTD/svg10.dtd">
<svg version="1.0" xmlns="http://www.w3.org/2000/svg"
 width="174.000000pt" height="168.000000pt" viewBox="0 0 174.000000 168.000000"
 preserveAspectRatio="xMidYMid meet">
<metadata>
Created by potrace 1.16, written by Peter Selinger 2001-2019
</metadata>
<g transform="translate(0.000000,168.000000) scale(0.100000,-0.100000)"
fill="#000000" stroke="none">
<path d="M1013 1593 c-3 -8 -3 -47 0 -87 l5 -73 -51 14 c-29 8 -60 18 -70 24
-10 6 -31 7 -47 4 -16 -3 -31 -2 -35 4 -12 21 -36 11 -47 -20 -6 -17 -20 -34
-32 -38 -17 -7 -24 -3 -38 21 -24 38 -63 53 -101 37 -23 -10 -30 -10 -37 0
-13 22 -45 8 -48 -20 -2 -17 -12 -31 -28 -38 -32 -14 -31 -15 -37 10 -9 32
-40 20 -53 -21 -7 -22 -19 -36 -31 -38 -17 -2 -23 6 -32 42 -12 47 -29 58 -51
31 -12 -14 -10 -64 4 -96 5 -12 -6 -26 -43 -53 -28 -20 -51 -43 -51 -51 0 -21
11 -19 61 10 55 31 77 31 91 1 9 -22 7 -28 -17 -49 -38 -32 -27 -49 22 -34 28
9 37 9 41 -1 7 -22 32 -13 32 12 0 14 10 32 22 41 21 14 24 14 36 -2 7 -10 11
-29 10 -43 -4 -35 28 -37 75 -5 49 33 64 32 72 -5 4 -16 11 -32 16 -36 5 -3
36 11 68 30 32 20 64 36 71 36 6 0 25 8 41 17 22 13 31 15 41 5 9 -9 8 -15 -8
-26 -14 -11 -16 -18 -8 -26 8 -8 24 -5 58 10 26 11 54 20 61 20 8 0 28 -20 44
-44 29 -41 30 -48 21 -94 -5 -27 -7 -58 -4 -69 5 -19 0 -21 -68 -27 -158 -14
-193 -16 -210 -10 -37 11 -5 24 56 22 50 -1 71 3 99 21 21 12 37 26 37 31 0
20 -23 20 -56 1 -37 -22 -89 -27 -114 -11 -12 8 -9 16 23 46 46 44 43 60 -9
57 -53 -3 -190 -3 -238 0 -35 2 -40 -1 -46 -24 -5 -16 -2 -32 6 -44 8 -10 14
-22 14 -27 0 -14 -157 -9 -206 8 -46 15 -74 13 -74 -5 0 -24 63 -41 174 -47
87 -5 116 -10 116 -21 0 -10 -31 -13 -154 -13 -124 0 -156 -3 -166 -15 -19
-23 7 -28 169 -29 157 -1 198 -16 64 -23 -102 -6 -178 -24 -178 -44 0 -16 23
-16 178 -4 94 8 97 7 97 -12 0 -21 -25 -38 -41 -27 -13 7 -165 -15 -221 -33
-30 -9 -48 -20 -48 -30 0 -12 7 -14 28 -10 16 3 69 11 118 17 49 6 106 13 127
15 31 4 37 2 37 -13 0 -15 -15 -19 -107 -30 -152 -18 -193 -30 -193 -54 0 -14
5 -18 18 -14 9 3 75 13 145 22 110 15 130 15 138 3 20 -32 13 -35 -174 -59
-93 -11 -124 -25 -107 -46 7 -7 16 -11 21 -8 5 2 45 9 89 14 44 5 96 12 115
16 47 8 44 -5 -8 -37 -64 -40 -87 -50 -96 -44 -14 8 -39 -5 -43 -23 -3 -9 -17
-23 -31 -31 -25 -13 -29 -12 -66 22 -28 25 -46 34 -60 30 -27 -7 -27 -39 -1
-53 11 -6 25 -20 31 -31 10 -19 5 -26 -35 -64 -25 -23 -46 -47 -46 -53 0 -25
23 -21 63 11 63 52 81 59 103 42 18 -13 18 -15 -8 -42 -48 -50 -30 -80 22 -36
26 22 35 24 49 15 36 -26 58 -31 95 -18 19 7 39 15 42 19 11 11 44 8 44 -3 0
-5 10 -10 21 -10 17 0 20 4 16 22 -7 26 17 58 44 58 10 0 26 -11 35 -25 19
-29 40 -32 71 -10 20 14 24 13 51 -10 17 -14 35 -25 41 -25 16 0 13 31 -5 52
-14 14 -14 20 -4 33 18 21 26 19 49 -14 18 -25 21 -49 26 -192 4 -90 8 -165
10 -167 7 -8 32 24 55 69 54 104 188 218 284 239 57 13 86 26 86 42 0 7 -19 8
-61 4 l-60 -7 15 30 c9 16 16 52 16 78 1 44 21 167 50 298 14 64 36 215 49
327 6 48 14 95 20 105 5 10 16 39 25 64 9 25 36 76 61 114 25 37 45 72 45 76
0 4 19 7 41 6 56 -3 62 18 12 39 -31 14 -60 15 -165 10 -89 -5 -128 -4 -128 4
0 5 -12 9 -27 8 -16 -1 -41 6 -58 14 -35 19 -82 67 -75 76 3 4 -12 7 -33 8
-25 1 -41 -4 -44 -13z m89 -83 c38 -25 51 -47 22 -36 -9 3 -26 6 -39 6 -18 0
-24 7 -27 30 -3 17 -2 29 1 28 3 -2 23 -14 43 -28z m338 -73 c0 -13 -71 -139
-76 -134 -4 3 -8 95 -6 125 2 19 8 22 42 22 26 0 40 -5 40 -13z m-787 -38 c4
-15 -1 -23 -20 -30 -47 -18 -72 26 -31 55 24 17 42 9 51 -25z m227 21 c-24
-15 -37 -11 -16 5 11 8 22 12 25 9 3 -3 -1 -9 -9 -14z m434 -100 c-1 -132 -8
-211 -35 -365 -10 -60 -23 -141 -30 -180 -13 -85 -24 -145 -38 -205 -6 -25
-10 -71 -11 -102 0 -31 -4 -67 -9 -80 -5 -13 -9 -27 -10 -33 -5 -25 -44 -24
-109 4 l-67 28 4 69 c4 82 45 292 60 307 6 6 7 16 1 27 -5 9 -4 45 2 85 6 39
10 87 9 109 0 24 6 47 19 63 11 14 20 33 20 42 0 19 34 118 43 128 4 3 7 16 7
28 0 40 40 139 68 168 18 19 35 27 52 25 l25 -3 -1 -115z m-134 93 c0 -2 -5
-14 -12 -26 -6 -12 -22 -58 -34 -102 l-23 -80 3 87 c1 48 -2 92 -7 97 -13 13
30 40 54 34 10 -3 19 -7 19 -10z m-405 -50 c-11 -7 -22 -13 -27 -13 -14 0 -8
19 9 29 25 13 40 1 18 -16z m235 12 c0 -9 -9 -15 -22 -15 -22 1 -23 1 -4 15
25 19 26 19 26 0z m-472 -20 c10 -21 9 -26 -8 -35 -27 -15 -38 -12 -50 11 -9
15 -8 24 1 35 18 22 45 17 57 -11z m375 -19 c7 -17 -22 -31 -36 -17 -5 5 -6
14 -3 20 10 16 33 14 39 -3z m-216 -13 c2 -6 -8 -20 -22 -29 -22 -15 -28 -15
-35 -3 -6 9 -3 20 7 32 18 19 44 19 50 0z m-271 -19 c15 -22 15 -27 3 -35 -22
-14 -29 -11 -41 17 -10 21 -9 27 3 35 19 12 16 13 35 -17z m641 1 c7 -19 5
-20 -29 -29 -33 -7 -40 16 -10 33 24 14 32 13 39 -4z m-244 -9 c7 -17 -1 -26
-24 -26 -21 0 -33 15 -24 30 9 15 42 12 48 -4z m-233 -21 c16 -20 8 -37 -24
-55 -24 -12 -28 -12 -36 0 -16 25 -11 46 13 58 30 14 33 14 47 -3z m149 -18
c12 -15 -4 -34 -46 -56 -17 -9 -22 -8 -28 7 -4 12 2 24 22 39 33 27 37 27 52
10z m211 -8 c0 -5 -7 -9 -15 -9 -15 0 -20 12 -9 23 8 8 24 -1 24 -14z m120
-33 c0 -8 -4 -17 -9 -20 -10 -7 -23 19 -14 28 11 11 23 6 23 -8z m-340 -164
c-1 -21 -22 -30 -80 -33 -60 -4 -65 -2 -68 17 -3 20 2 21 73 22 41 0 75 -2 75
-6z m-42 -80 c-4 -22 -98 -31 -98 -9 0 20 4 22 55 24 38 1 46 -1 43 -15z m337
-61 c-4 -7 -60 -10 -158 -9 l-152 1 155 11 c85 6 157 10 159 9 1 -1 0 -6 -4
-12z m-365 -11 c0 -5 -13 -10 -30 -10 -16 0 -30 5 -30 10 0 6 14 10 30 10 17
0 30 -4 30 -10z m358 -72 l3 -28 -175 0 c-97 0 -176 3 -176 8 1 38 59 49 245
48 l100 -1 3 -27z m-395 -8 c-3 -11 -9 -20 -14 -20 -5 0 -9 9 -9 20 0 11 6 20
14 20 9 0 12 -7 9 -20z m387 -75 c0 -13 -27 -15 -182 -15 -146 1 -180 3 -167
13 11 8 71 13 183 15 142 2 166 0 166 -13z m-8 -60 c3 -3 3 -16 1 -29 -5 -22
-9 -24 -96 -26 -118 -3 -181 -4 -234 -2 -38 2 -43 5 -43 25 0 13 3 27 7 30 7
8 357 10 365 2z m-314 -105 c44 0 45 -1 29 -17 -14 -14 -21 -15 -36 -6 -21 13
-41 0 -41 -28 0 -10 -13 -22 -32 -28 -26 -9 -35 -8 -47 4 -14 13 -13 15 7 15
18 0 22 6 22 29 0 30 14 43 38 35 8 -2 34 -4 60 -4z m288 -30 c-7 -29 -18 -41
-54 -58 -41 -20 -47 -21 -61 -7 -16 16 -14 18 42 56 6 4 7 14 4 23 -6 15 -9
15 -39 0 -23 -12 -36 -14 -49 -6 -18 11 -39 -2 -39 -24 0 -14 -49 -48 -57 -40
-3 3 9 22 27 43 30 33 40 39 89 43 31 3 76 6 102 6 l45 -1 -10 -35z m-471 -80
c0 -16 -50 -38 -61 -27 -11 11 28 48 45 45 9 -2 16 -10 16 -18z m169 -9 c9
-15 -23 -36 -36 -23 -5 5 -7 15 -4 21 9 13 33 14 40 2z m134 -27 c-4 -24 -34
-30 -42 -8 -4 10 0 22 11 30 21 15 36 4 31 -22z m-218 -19 c11 -13 10 -18 -6
-30 -33 -25 -55 -28 -73 -10 -15 15 -14 18 8 36 28 23 54 24 71 4z m353 -7
c-13 -12 -26 -19 -29 -15 -4 4 1 14 12 22 29 22 41 18 17 -7z m-548 2 c4 -6 1
-18 -6 -26 -11 -13 -14 -13 -27 0 -8 8 -11 19 -8 25 9 14 33 14 41 1z m325
-15 c10 -12 10 -19 2 -27 -15 -15 -48 14 -38 31 10 15 21 14 36 -4z m-247 -53
c13 -14 14 -21 5 -30 -29 -29 -83 3 -58 33 17 20 33 19 53 -3z m575 -30 c29
-10 55 -21 58 -24 3 -3 -11 -16 -30 -28 -20 -12 -58 -47 -86 -78 l-50 -56 0
77 c0 70 2 77 20 77 15 0 20 7 20 25 0 30 1 30 68 7z"/>
<path d="M962 1039 c2 -6 8 -10 13 -10 5 0 11 4 13 10 2 6 -4 11 -13 11 -9 0
-15 -5 -13 -11z"/>
</g>
</svg>
