<?xml version="1.0" standalone="no"?>
<!DOCTYPE svg PUBLIC "-//W3C//DTD SVG 20010904//EN"
 "http://www.w3.org/TR/2001/REC-SVG-20010904/DTD/svg10.dtd">
<svg version="1.0" xmlns="http://www.w3.org/2000/svg"
 width="225.000000pt" height="149.000000pt" viewBox="0 0 225.000000 149.000000"
 preserveAspectRatio="xMidYMid meet">
<metadata>
Created by potrace 1.16, written by Peter Selinger 2001-2019
</metadata>
<g transform="translate(0.000000,149.000000) scale(0.100000,-0.100000)"
fill="#000000" stroke="none">
<path d="M938 1343 c-9 -10 -26 -41 -38 -69 l-21 -52 -113 -7 c-62 -4 -118
-10 -125 -14 -6 -4 -39 -4 -73 1 -59 8 -114 37 -144 76 -9 12 -13 12 -27 -3
-9 -9 -17 -27 -17 -41 0 -13 -1 -24 -2 -25 -2 0 -32 -3 -68 -6 -75 -5 -127
-28 -111 -47 12 -14 16 -268 5 -367 -6 -61 -8 -65 -28 -62 -34 7 -45 -16 -46
-93 -2 -94 9 -128 42 -132 20 -2 32 5 50 28 13 18 45 48 71 67 47 35 52 36
195 49 81 8 162 16 180 20 50 10 39 -11 -33 -63 -99 -71 -89 -87 58 -89 93 -1
99 -3 127 -29 30 -29 58 -47 103 -67 30 -14 31 -17 17 -102 -24 -151 -28 -183
-23 -209 9 -45 42 -30 34 16 -1 4 6 48 15 98 18 96 36 129 86 155 17 9 40 25
52 35 11 11 32 23 45 26 14 3 34 15 46 26 11 11 34 26 52 33 18 8 53 27 79 44
32 20 52 27 63 21 37 -19 58 19 21 39 -14 7 -32 8 -55 1 -34 -9 -96 0 -120 19
-5 4 -29 10 -53 13 -24 3 -46 8 -49 11 -4 4 -7 155 -4 214 1 8 19 12 56 12
l55 0 -41 -77 c-23 -43 -45 -82 -50 -87 -11 -13 -12 -46 -1 -46 14 0 37 31 72
97 20 39 37 60 45 57 7 -3 31 11 53 30 22 20 56 43 77 52 21 8 49 24 64 35 14
10 55 26 91 33 36 8 141 38 234 65 93 28 183 52 200 54 51 6 73 23 74 56 l1
30 -72 -1 c-193 -1 -609 12 -667 22 -182 29 -235 46 -296 96 -24 20 -44 45
-44 55 0 24 -22 24 -42 2z m154 -150 c35 -13 54 -22 43 -21 -11 2 -36 -3 -55
-11 -130 -49 -188 -66 -196 -59 -3 3 6 29 20 57 14 28 26 55 26 60 0 5 4 22
10 36 l10 26 39 -33 c22 -18 68 -43 103 -55z m-604 -33 c45 -1 41 -18 -8 -43
-29 -15 -54 -27 -56 -27 -8 0 -4 62 6 81 10 17 13 18 26 4 9 -8 23 -15 32 -15z
m332 1 c0 -6 -10 -27 -22 -47 l-22 -38 -9 34 c-7 28 -5 37 9 47 21 15 44 17
44 4z m480 -7 c54 -9 176 -17 335 -20 138 -3 266 -9 285 -13 l35 -8 -35 -15
c-32 -14 -287 -79 -422 -109 -65 -14 -188 -8 -232 12 -25 12 -30 11 -43 -6
-14 -19 -13 -31 2 -68 7 -16 2 -18 -46 -16 -63 2 -143 34 -136 53 11 29 19
106 11 106 -5 -1 -19 -6 -31 -13 -12 -7 -43 -11 -69 -9 l-46 4 108 44 c60 24
114 43 119 43 29 -3 45 3 45 16 0 19 13 19 120 -1z m-956 -13 c7 -10 -65 -153
-73 -146 -10 10 -8 71 3 78 8 6 8 10 -1 14 -14 5 -18 45 -6 56 10 10 71 8 77
-2z m370 -22 c3 -17 6 -59 6 -92 l0 -60 -52 7 c-28 4 -62 16 -75 26 -19 15
-30 17 -49 9 -38 -14 -137 -12 -132 3 6 16 118 84 171 104 34 13 83 26 118 33
4 0 9 -13 13 -30z m120 -131 c-13 -148 -35 -250 -57 -269 -32 -27 -39 -23 -31
18 4 21 8 49 9 63 3 37 3 38 25 45 26 8 26 25 -1 32 -12 4 -18 11 -15 20 3 8
6 23 6 34 0 10 6 19 14 19 7 0 19 7 26 15 13 15 5 20 -27 16 -20 -3 -15 12 12
42 38 41 45 34 39 -35z m183 -4 c-2 -2 -12 -1 -22 2 -17 7 -17 8 1 21 17 12
19 12 22 -2 2 -9 2 -19 -1 -21z m-107 -14 c-11 -22 -23 -40 -25 -40 -3 0 -5
18 -5 40 0 36 2 40 25 40 l25 0 -20 -40z m-559 -105 c5 -11 11 -47 13 -80 2
-33 7 -68 11 -77 6 -16 2 -17 -46 -13 -101 10 -99 5 -71 145 12 59 24 92 40
108 12 12 23 28 23 35 1 6 6 -13 11 -43 5 -30 14 -64 19 -75z m641 75 c12 -16
29 -30 37 -30 12 0 12 -3 3 -12 -23 -23 -14 -41 17 -36 37 5 41 -6 41 -119 0
-83 -9 -100 -37 -72 -6 6 -21 9 -33 7 -29 -4 -58 -88 -59 -170 -1 -64 -12 -79
-38 -48 -10 12 -28 26 -40 31 -37 14 -76 85 -70 128 8 67 40 176 59 200 10 13
18 28 18 34 0 15 63 117 72 117 4 0 17 -13 30 -30z m-569 10 c7 0 3 -7 -7 -15
-16 -12 -22 -12 -28 -2 -12 20 -9 30 8 23 9 -3 21 -6 27 -6z m882 -1 c4 -5 17
-9 28 -8 45 3 52 -2 25 -16 -36 -20 -72 -14 -76 13 -4 23 12 30 23 11z m-597
-18 c14 -1 16 -37 2 -46 -6 -3 -58 -5 -118 -4 -59 1 -122 1 -139 0 -41 -1 -41
4 -1 29 26 15 43 18 89 13 34 -3 59 -2 63 5 5 9 41 10 104 3z m-241 -91 l35 0
-46 -35 c-26 -19 -48 -35 -49 -35 -2 0 -4 19 -6 41 -2 35 1 40 14 35 9 -3 32
-6 52 -6z m242 -37 c-3 -76 -9 -99 -27 -100 -221 -11 -292 -12 -292 -6 1 5 14
17 30 28 16 11 50 38 75 59 40 34 57 41 123 51 42 7 81 13 85 14 4 0 7 -20 6
-46z m-442 -153 l28 -1 -29 -21 c-16 -12 -41 -33 -55 -46 l-26 -24 -5 33 c-3
19 -4 46 -2 61 4 27 5 27 33 13 15 -8 41 -15 56 -15z m499 3 c1 -10 3 -36 5
-58 l4 -40 -49 -3 c-73 -5 -87 4 -51 33 17 13 36 24 43 25 6 0 12 5 12 12 0 9
28 48 34 48 1 0 2 -8 2 -17z m339 -58 c112 -17 165 -28 165 -35 0 -5 -33 -26
-72 -48 -40 -22 -100 -58 -133 -80 l-60 -40 -3 59 c-2 38 2 68 13 88 8 17 15
40 15 51 0 16 5 20 18 16 9 -3 35 -8 57 -11z"/>
</g>
</svg>
