<?xml version="1.0" standalone="no"?>
<!DOCTYPE svg PUBLIC "-//W3C//DTD SVG 20010904//EN"
 "http://www.w3.org/TR/2001/REC-SVG-20010904/DTD/svg10.dtd">
<svg version="1.0" xmlns="http://www.w3.org/2000/svg"
 width="236.000000pt" height="132.000000pt" viewBox="0 0 236.000000 132.000000"
 preserveAspectRatio="xMidYMid meet">
<metadata>
Created by potrace 1.16, written by Peter Selinger 2001-2019
</metadata>
<g transform="translate(0.000000,132.000000) scale(0.100000,-0.100000)"
fill="#000000" stroke="none">
<path d="M555 1240 c-19 -20 -32 -27 -40 -20 -8 7 -24 -3 -53 -30 -23 -22 -46
-40 -53 -40 -6 0 -28 -19 -49 -41 -24 -27 -44 -40 -53 -36 -9 3 -26 -3 -39
-15 -13 -11 -32 -28 -43 -37 -21 -17 -59 -71 -53 -76 2 -1 21 -12 43 -23 40
-20 135 -112 135 -130 0 -5 -25 -28 -55 -51 -55 -42 -68 -69 -43 -91 7 -6 27
-23 45 -38 l32 -28 -57 -58 c-31 -32 -69 -63 -85 -68 -34 -13 -35 -34 0 -42
14 -4 35 -18 45 -32 11 -13 28 -24 38 -24 30 0 49 -11 44 -25 -4 -8 8 -20 30
-30 20 -10 36 -24 36 -32 0 -10 10 -14 34 -12 36 3 51 -4 51 -24 0 -6 14 -14
30 -17 46 -10 85 -39 85 -65 0 -37 21 -85 42 -96 16 -9 25 -4 56 26 20 20 49
43 64 51 15 8 31 21 36 30 7 12 21 16 51 15 22 -1 53 -2 69 -2 15 -1 61 -5
102 -10 74 -9 135 -1 135 17 0 10 -65 21 -175 28 -41 3 -96 8 -121 12 -53 7
-52 3 -25 154 9 47 21 117 26 155 6 39 14 81 19 95 5 14 15 50 22 80 7 30 18
69 25 85 l13 30 1 -49 c0 -33 -6 -56 -17 -69 -18 -20 -19 -25 -12 -193 3 -57
0 -86 -10 -97 -13 -16 -13 -27 -8 -132 2 -47 4 -50 30 -53 35 -4 104 22 135
51 21 20 22 22 5 28 -27 11 -93 10 -93 -1 0 -5 8 -14 18 -19 14 -8 10 -10 -20
-11 -30 0 -35 3 -32 18 10 36 128 93 157 75 5 -3 7 -30 5 -61 -2 -36 1 -57 9
-59 19 -7 32 30 39 116 6 74 9 81 26 75 12 -3 36 6 66 24 45 29 145 77 207 99
25 9 79 22 203 49 13 2 60 7 105 9 73 4 161 13 176 18 3 1 7 -3 8 -8 1 -6 -26
-22 -60 -36 -129 -53 -142 -66 -87 -89 16 -7 55 -32 86 -56 60 -47 129 -73
147 -55 6 6 -1 16 -24 30 -19 12 -38 22 -42 24 -5 1 -1 31 8 65 8 35 13 67 10
71 -6 11 40 20 56 10 16 -9 39 0 39 15 0 7 -16 25 -35 40 -38 31 -39 35 -25
87 9 33 17 39 90 70 74 31 100 52 82 63 -4 2 -44 -13 -88 -34 -125 -59 -235
-86 -273 -65 -40 21 -252 118 -261 120 -5 1 -286 145 -339 174 -70 38 -199
128 -226 158 l-31 34 -37 -21 c-27 -16 -47 -41 -73 -93 -36 -71 -38 -97 -8
-97 13 0 14 -3 5 -14 -9 -11 -9 -19 0 -34 12 -18 2 -31 -107 -135 -151 -145
-174 -164 -207 -172 -40 -11 -33 -31 19 -51 30 -11 58 -33 82 -63 20 -25 48
-55 61 -66 14 -10 36 -30 50 -43 14 -13 32 -27 39 -31 10 -6 10 -21 0 -82 -6
-41 -13 -76 -15 -78 -6 -9 -33 23 -33 40 0 10 -13 25 -29 34 -16 8 -44 28 -62
44 -31 29 -32 30 -15 55 19 30 15 32 -20 10 -24 -16 -26 -16 -49 6 -22 21 -23
25 -10 40 24 26 17 33 -15 14 -28 -17 -30 -17 -50 1 -12 11 -17 22 -11 29 5 6
11 64 13 128 5 113 6 117 34 142 23 20 25 25 12 26 -10 0 -18 4 -18 10 0 12
164 176 213 213 57 43 36 46 -27 4 l-54 -36 -17 70 c-9 39 -15 89 -13 111 4
51 -10 57 -47 18z m397 -39 c4 -11 173 -133 224 -160 21 -12 50 -28 64 -36 38
-22 377 -185 385 -185 14 0 194 -92 225 -115 l34 -25 -55 0 c-30 0 -112 -12
-184 -26 -289 -55 -390 -65 -456 -43 -19 7 -36 13 -37 15 -6 4 38 97 69 146
44 68 38 82 -38 84 -68 1 -89 -6 -80 -30 4 -11 20 -16 49 -17 40 -1 41 -1 15
-9 -16 -5 -35 -6 -42 -4 -7 3 -16 1 -19 -4 -4 -7 -25 -5 -58 3 -28 8 -54 12
-58 10 -9 -5 -23 7 -42 35 -15 24 -14 29 6 76 11 28 31 64 43 79 l23 28 62
-17 c108 -30 108 -30 108 -13 0 8 -6 19 -12 24 -21 16 -148 46 -255 60 -24 3
-43 10 -43 17 0 7 12 35 26 64 25 50 38 63 46 43z m-382 -26 c0 -25 -14 -34
-24 -16 -8 12 3 41 15 41 5 0 9 -11 9 -25z m-94 -37 c-3 -13 -6 -31 -6 -41 0
-15 -3 -16 -20 -7 -24 13 -25 28 -3 52 22 25 37 23 29 -4z m80 -33 c50 -51 57
-75 27 -102 -13 -13 -26 -23 -28 -23 -3 0 -15 17 -29 38 -18 29 -22 46 -19 80
3 23 7 42 9 42 3 0 20 -16 40 -35z m-176 -64 c10 -34 6 -38 -16 -16 -10 9 -13
23 -9 36 8 25 13 21 25 -20z m109 -34 c43 -50 44 -55 15 -92 l-27 -36 -19 33
c-18 29 -48 123 -48 150 0 15 49 -19 79 -55z m-119 -42 c13 -16 40 -46 58 -65
l34 -34 -38 -32 -38 -32 -33 46 c-24 34 -33 58 -33 87 0 22 -3 51 -7 65 -6 23
-5 24 13 10 10 -8 30 -28 44 -45z m-89 -8 c8 -32 6 -32 -27 -11 -19 13 -22 19
-13 31 17 19 32 12 40 -20z m639 2 c-13 -43 -18 -46 -28 -18 -12 31 -5 49 18
49 16 0 17 -4 10 -31z m-64 -120 c-3 -49 -16 -124 -27 -167 -12 -42 -24 -102
-26 -132 -3 -30 -6 -56 -8 -58 -1 -1 -30 25 -65 58 l-63 60 20 23 c12 12 24
44 28 72 4 27 16 74 27 104 21 56 93 145 110 135 5 -3 7 -44 4 -95z m-427 -85
c-7 -23 -9 -68 -5 -111 6 -59 4 -73 -7 -73 -8 0 -19 11 -25 25 -6 14 -16 25
-22 25 -5 0 -30 16 -55 35 -43 32 -44 35 -25 45 11 6 18 15 15 21 -4 5 1 9 10
9 18 0 50 17 89 48 16 13 30 21 32 19 2 -2 -1 -21 -7 -43z m266 19 c-4 -10
-11 -42 -16 -72 -12 -73 -20 -79 -63 -45 l-36 29 57 52 c65 58 68 60 58 36z
m325 -2 c12 -1 11 -5 -5 -17 -46 -36 -55 -37 -55 -6 0 24 4 29 23 27 12 -1 29
-3 37 -4z m143 -21 c-3 -11 -7 -20 -9 -20 -2 0 -4 9 -4 20 0 11 4 20 9 20 5 0
7 -9 4 -20z m797 4 c0 -3 -5 -14 -10 -25 -10 -18 -12 -18 -43 -2 l-32 17 25 7
c32 9 60 11 60 3z m-850 -35 c0 -28 -3 -31 -22 -25 -13 3 -36 6 -53 7 l-30 1
32 14 c17 7 34 18 38 24 14 22 35 10 35 -21z m-113 -53 c26 5 34 4 29 -5 -4
-6 -16 -11 -26 -11 -10 0 -22 -4 -25 -10 -3 -5 -17 -10 -31 -10 -19 0 -24 5
-24 25 0 23 2 24 20 15 12 -6 36 -8 57 -4z m111 -34 c3 -20 -1 -22 -45 -22
-41 1 -45 2 -28 12 11 6 24 18 28 25 13 21 42 11 45 -15z m809 -94 c-7 -27
-15 -48 -19 -48 -13 0 -61 50 -55 57 7 6 81 41 83 39 1 -1 -3 -22 -9 -48z
m-927 31 c0 -5 -45 -29 -55 -29 -2 0 -1 9 2 20 4 13 13 19 29 18 13 -1 24 -5
24 -9z m117 -29 c-2 -40 -2 -40 -42 -40 -22 0 -50 3 -63 6 -21 6 -22 7 -5 19
25 17 96 55 104 55 4 0 6 -18 6 -40z m228 30 c-3 -5 -13 -10 -22 -10 -9 0 -40
-14 -70 -31 -30 -17 -56 -30 -57 -28 -2 2 -6 18 -9 36 l-6 32 77 4 c42 1 81 4
85 5 5 1 5 -2 2 -8z m-958 -36 c4 -11 -10 -31 -40 -62 -26 -25 -48 -44 -51
-41 -2 2 8 30 22 61 27 58 56 76 69 42z m5 -66 c-7 -7 -12 -18 -12 -25 0 -24
25 -13 44 18 16 27 38 36 37 16 0 -9 -79 -97 -87 -97 -2 0 0 9 6 19 14 27 -4
35 -25 11 -19 -21 -35 -26 -35 -10 0 11 73 87 79 83 3 -2 -1 -9 -7 -15z m713
-22 c-7 -35 -8 -36 -54 -37 -25 0 -54 -2 -65 -4 -10 -2 -15 0 -10 5 16 15 127
80 131 76 3 -2 1 -20 -2 -40z m-121 19 c-25 -19 -45 -19 -38 0 4 8 18 15 32
15 25 0 25 -1 6 -15z m-724 -15 c0 -5 -5 -10 -11 -10 -5 0 -7 5 -4 10 3 6 8
10 11 10 2 0 4 -4 4 -10z m280 -29 c9 -17 2 -28 -40 -70 -77 -78 -88 -70 -38
27 34 65 58 79 78 43z m-120 -61 c-12 -23 -25 -38 -30 -35 -15 9 -12 20 15 49
34 37 39 32 15 -14z m530 20 c0 -12 -28 -25 -36 -17 -9 9 6 27 22 27 8 0 14
-5 14 -10z m-365 -40 c-10 -11 -20 -18 -22 -16 -2 2 1 16 7 31 8 21 14 25 22
17 9 -9 7 -17 -7 -32z m-57 -23 c-11 -36 -32 -49 -40 -26 -3 10 41 67 49 64 1
-1 -3 -18 -9 -38z m162 -43 c25 -18 54 -34 65 -37 11 -4 -8 -4 -43 -2 -77 6
-111 30 -92 65 7 13 15 19 19 14 3 -5 26 -23 51 -40z m-118 -13 c-3 -20 -8
-28 -18 -24 -18 7 -18 18 2 37 21 21 21 21 16 -13z m156 -74 l34 2 -45 -29
c-24 -15 -48 -33 -51 -39 -15 -24 -26 -9 -26 35 0 46 0 46 28 38 15 -4 42 -7
60 -7z"/>
</g>
</svg>
