<?xml version="1.0" standalone="no"?>
<!DOCTYPE svg PUBLIC "-//W3C//DTD SVG 20010904//EN"
 "http://www.w3.org/TR/2001/REC-SVG-20010904/DTD/svg10.dtd">
<svg version="1.0" xmlns="http://www.w3.org/2000/svg"
 width="316.000000pt" height="158.000000pt" viewBox="0 0 316.000000 158.000000"
 preserveAspectRatio="xMidYMid meet">
<metadata>
Created by potrace 1.16, written by Peter Selinger 2001-2019
</metadata>
<g transform="translate(0.000000,158.000000) scale(0.100000,-0.100000)"
fill="#000000" stroke="none">
<path d="M548 1382 c-25 -20 -90 -73 -142 -117 -53 -44 -122 -94 -154 -111
-69 -37 -76 -56 -27 -80 20 -9 57 -35 83 -58 50 -44 162 -116 181 -116 12 0
14 20 3 35 -4 6 -33 32 -64 58 l-58 49 0 61 c0 34 3 71 6 82 6 21 201 184 236
197 22 9 20 32 -3 35 -8 1 -35 -15 -61 -35z m-218 -257 c0 -33 -1 -34 -25 -23
-14 6 -25 14 -25 18 0 6 38 37 48 39 1 1 2 -15 2 -34z"/>
<path d="M710 1284 c-113 -79 -214 -134 -243 -134 -35 0 -67 -16 -67 -34 0 -7
20 -21 44 -30 27 -10 60 -34 81 -59 20 -23 39 -45 43 -50 4 -4 27 -21 51 -38
l44 -31 -24 -19 c-13 -11 -52 -33 -86 -50 -35 -16 -63 -34 -63 -38 0 -10 -104
-57 -147 -66 -65 -13 -60 -30 24 -72 48 -23 82 -47 90 -62 14 -30 34 -43 48
-31 8 6 33 -6 74 -36 48 -35 66 -43 75 -34 8 9 -9 31 -72 90 l-84 79 7 43 c9
55 21 77 48 89 12 5 47 25 77 44 30 19 63 35 74 35 10 0 31 11 48 25 16 14 41
25 55 25 15 0 41 -11 59 -25 67 -51 74 -21 9 42 -50 47 -50 51 -33 154 11 63
16 74 49 100 20 16 40 29 44 29 18 0 66 43 57 52 -6 6 -49 -17 -116 -61 -59
-39 -136 -84 -172 -101 -35 -17 -64 -37 -64 -43 0 -7 12 -20 28 -30 15 -9 45
-32 66 -51 l39 -34 -32 -17 c-33 -16 -34 -16 -63 12 -64 60 -70 77 -63 156 l7
72 94 65 c52 35 94 67 94 72 0 19 -39 4 -100 -38z m-137 -178 c-7 -13 -12 -12
-32 3 l-24 19 29 15 c27 14 29 14 32 -4 2 -10 0 -25 -5 -33z m225 -25 c-6 -28
-14 -51 -18 -51 -3 0 -16 13 -28 29 l-21 29 37 25 c20 13 38 24 40 22 1 -1 -3
-25 -10 -54z m-333 -364 c-6 -23 -9 -25 -31 -15 -31 15 -30 24 4 36 33 11 35
11 27 -21z"/>
<path d="M1565 1290 c-27 -22 -87 -68 -132 -102 -46 -34 -83 -65 -83 -69 0 -4
29 -25 64 -47 44 -28 65 -48 68 -63 2 -13 12 -26 23 -29 26 -7 95 -70 95 -86
0 -7 -15 -24 -32 -38 -120 -92 -189 -141 -230 -162 -27 -13 -48 -31 -48 -40 0
-17 83 -116 177 -212 83 -84 105 -83 61 4 -12 24 -25 44 -28 44 -4 0 -20 18
-35 40 -30 44 -30 67 3 165 9 28 15 55 14 61 -3 14 120 94 143 94 10 0 15 -10
15 -34 0 -71 20 -81 92 -45 26 13 43 17 47 10 4 -5 23 -11 42 -12 l36 -3 -16
-40 -16 -41 -3 33 c-2 20 -9 32 -18 32 -10 0 -14 -13 -14 -46 l0 -46 -52 7
c-29 4 -78 13 -108 21 -73 18 -80 10 -87 -94 -5 -72 -4 -82 12 -88 10 -4 25
-2 34 4 38 27 117 62 141 62 14 0 31 5 38 12 13 13 17 -28 15 -160 -1 -39 1
-72 6 -72 23 0 31 31 31 128 l0 103 27 -3 c24 -3 29 -9 35 -43 4 -22 8 -68 9
-103 1 -52 4 -62 17 -60 20 4 33 63 21 95 -5 14 -9 42 -9 64 0 37 1 39 33 39
52 0 57 -9 64 -103 5 -77 8 -87 25 -87 19 0 20 5 14 89 -7 97 -4 103 50 93 19
-3 22 -13 29 -84 5 -57 11 -81 22 -85 23 -9 34 17 27 64 -3 24 -3 54 0 69 5
20 12 25 34 22 27 -3 27 -3 27 -82 0 -58 4 -81 14 -84 21 -7 31 18 31 86 l0
63 38 -3 37 -3 -1 -72 c0 -50 4 -74 13 -77 19 -8 28 13 33 83 l5 64 65 1 c51
1 65 4 65 16 0 10 -17 18 -55 24 -30 5 -57 10 -59 12 -2 2 13 35 34 74 20 40
34 75 31 78 -4 3 -29 5 -57 3 -27 -1 -56 2 -63 8 -6 5 -28 11 -49 13 -20 1
-39 8 -41 14 -6 16 -70 8 -108 -14 -34 -20 -26 -35 14 -27 28 7 29 5 23 -16
-5 -13 -16 -42 -26 -64 -16 -37 -18 -38 -18 -12 -1 15 4 36 11 47 7 10 9 23 4
27 -12 12 -36 -27 -43 -69 -5 -34 -9 -38 -36 -38 -22 0 -27 3 -20 13 5 6 20
41 33 77 13 36 27 69 32 75 4 5 8 13 8 17 0 11 -34 10 -45 -1 -6 -5 -30 -12
-53 -16 -43 -7 -44 -7 -32 15 11 21 11 22 -43 15 -43 -6 -55 -4 -60 8 -3 9 1
18 9 21 29 11 209 6 274 -8 43 -9 123 -13 236 -12 204 2 227 -5 298 -89 26
-30 52 -55 58 -55 5 0 29 -16 52 -35 24 -19 46 -32 49 -28 18 17 3 48 -43 93
-64 60 -71 92 -41 190 16 51 33 84 62 114 36 40 49 66 32 66 -16 0 -62 -37
-142 -112 -114 -106 -114 -106 -303 -97 -87 4 -190 12 -230 19 -68 10 -124 17
-347 40 -70 7 -91 14 -127 40 -24 17 -48 28 -54 25 -5 -3 -10 1 -10 9 0 29
-29 17 -48 -19 l-18 -36 -52 70 c-29 38 -52 75 -52 80 0 31 64 189 85 211 22
23 24 40 6 40 -3 0 -28 -18 -56 -40z m-52 -133 l-17 -56 -28 15 c-15 8 -28 18
-28 23 0 11 80 84 86 78 3 -2 -3 -29 -13 -60z m269 -274 l51 -16 -63 -29 c-35
-15 -65 -26 -68 -23 -6 5 18 85 25 85 2 0 27 -7 55 -17z m988 -13 c0 -14 -7
-20 -22 -20 -20 0 -21 1 -3 20 10 11 20 20 22 20 1 0 3 -9 3 -20z m-793 -127
c-2 -5 -12 -34 -22 -65 -11 -37 -23 -58 -33 -58 -12 0 -13 9 -8 50 4 30 3 50
-3 50 -14 0 -21 -14 -29 -60 -5 -29 -10 -37 -20 -31 -10 6 -9 18 6 57 16 39
25 50 48 55 42 10 66 10 61 2z m108 -56 c-8 -26 -21 -57 -30 -70 -16 -21 -16
-20 -10 31 5 34 3 52 -4 52 -9 0 -31 -60 -31 -87 0 -15 -9 -16 -29 -4 -21 14
13 109 42 116 24 5 71 11 74 10 1 -1 -4 -22 -12 -48z m-660 0 c-8 -20 -15 -47
-15 -59 0 -22 -1 -22 -25 7 -13 17 -24 32 -24 35 0 7 72 61 76 57 2 -2 -4 -20
-12 -40z m882 17 l31 -9 -18 -35 -19 -35 -1 33 c0 17 -4 32 -10 32 -9 0 -30
-61 -30 -87 0 -15 -36 -17 -45 -3 -8 12 46 134 54 122 3 -4 20 -12 38 -18z
m133 -28 c0 -7 -7 -19 -15 -26 -13 -10 -15 -9 -15 9 0 30 -19 26 -26 -6 -10
-46 -26 -73 -46 -73 -25 0 -23 9 13 63 25 38 36 47 60 47 18 0 29 -5 29 -14z
m-755 -55 c2 -4 -16 -17 -40 -29 l-45 -22 0 33 c0 32 1 32 40 29 22 -2 42 -7
45 -11z"/>
<path d="M1793 1315 c-33 -14 -40 -32 -35 -88 2 -16 -3 -18 -30 -12 -18 4 -43
13 -55 21 -32 20 -52 17 -62 -8 -12 -33 -14 -168 -3 -168 6 0 36 14 67 30 84
44 89 43 83 -35 -3 -36 -2 -68 2 -70 18 -11 40 41 40 92 0 50 1 53 25 53 25 0
25 -1 25 -80 0 -64 3 -80 15 -80 8 0 16 6 16 13 4 31 6 55 7 95 2 37 5 42 26
42 24 0 25 -3 25 -61 -1 -66 3 -74 26 -66 11 5 15 21 15 61 0 47 3 56 21 61
11 4 23 4 26 1 4 -3 8 -42 11 -86 6 -105 26 -103 30 3 l3 77 29 0 c36 0 45
-24 38 -105 -4 -42 -1 -55 9 -55 20 0 33 43 33 106 0 54 0 54 31 54 l31 0 -4
-90 c-3 -66 -1 -90 8 -90 16 0 22 19 30 94 8 73 16 91 37 83 11 -4 16 -20 17
-54 1 -81 4 -98 20 -98 11 0 16 15 18 62 3 66 18 89 50 79 16 -5 21 -20 27
-72 5 -53 10 -65 23 -62 14 3 16 14 14 57 -2 46 0 53 18 58 23 6 25 14 8 31
-13 13 13 92 38 112 7 7 14 21 14 31 0 22 2 22 -39 8 -20 -7 -36 -8 -44 -1
-12 9 -76 15 -150 13 -21 0 -45 6 -53 14 -10 9 -39 14 -97 14 -45 0 -113 5
-152 10 -134 19 -198 21 -232 6z m137 -40 c0 -4 -8 -20 -17 -38 -16 -30 -18
-31 -21 -9 -2 13 2 30 8 38 12 14 30 19 30 9z m-101 -40 c-30 -50 -39 -52 -39
-6 0 39 2 41 30 41 l29 0 -20 -35z m173 -17 c-14 -29 -27 -55 -28 -57 -2 -2
-3 22 -2 53 1 54 3 56 29 56 l27 0 -26 -52z m108 38 c0 -2 -9 -23 -20 -47
l-20 -44 0 38 c0 20 -5 37 -11 37 -5 0 -7 5 -4 10 6 9 55 15 55 6z m100 -8 c0
-7 -9 -31 -19 -53 l-19 -40 -1 46 c-1 25 2 49 6 52 11 12 33 8 33 -5z m33 -66
c-3 -26 -11 -42 -19 -42 -18 0 -18 9 2 55 19 46 24 42 17 -13z m67 43 c0 -2
-9 -19 -20 -37 -19 -32 -20 -32 -20 -7 0 14 5 30 12 37 12 12 28 16 28 7z
m-268 -45 c-2 -16 -10 -30 -17 -30 -10 0 -11 7 -3 35 13 41 26 38 20 -5z m94
-5 c-4 -21 -13 -35 -21 -35 -18 0 -18 -1 1 45 18 45 29 40 20 -10z m257 10
c-25 -52 -42 -44 -27 13 4 13 14 22 25 22 18 0 18 -2 2 -35z m-451 0 c-2 -14
-11 -25 -18 -25 -17 0 -17 5 -2 30 17 27 26 25 20 -5z m-90 -7 c-7 -7 -12 -8
-12 -2 0 14 12 26 19 19 2 -3 -1 -11 -7 -17z m591 -15 c-3 -19 -11 -33 -19
-33 -19 0 -18 20 2 48 20 29 23 26 17 -15z m-721 4 l27 -12 -54 -21 -55 -21 0
27 c0 14 3 30 7 33 10 10 45 8 75 -6z m608 -2 c0 -8 -4 -15 -10 -15 -5 0 -7 7
-4 15 4 8 8 15 10 15 2 0 4 -7 4 -15z"/>
<path d="M1340 1253 c-30 -25 -77 -64 -103 -87 -27 -22 -72 -53 -100 -68 -29
-15 -58 -33 -65 -39 -11 -9 -13 -3 -10 32 3 41 6 46 58 76 30 18 61 36 69 40
7 5 12 16 10 25 -3 14 -27 3 -124 -57 -66 -41 -137 -79 -157 -85 -44 -12 -49
-32 -14 -48 14 -6 48 -40 77 -76 29 -37 56 -66 61 -66 15 0 8 -35 -9 -50 -81
-69 -289 -174 -369 -187 -91 -16 -62 -39 111 -93 45 -14 78 -31 92 -47 14 -17
27 -24 38 -19 10 3 27 -2 42 -14 49 -38 47 -7 -2 38 l-49 44 18 61 c10 34 20
76 23 92 3 21 16 38 41 54 64 41 132 95 132 104 0 5 -13 24 -28 41 -23 27 -27
39 -24 74 3 28 8 40 15 35 7 -4 19 -8 29 -8 9 -1 33 -16 53 -33 19 -18 40 -32
44 -32 5 0 11 -9 14 -20 3 -13 14 -20 30 -20 33 0 39 10 25 47 -9 24 -8 43 6
94 9 35 20 76 23 91 3 17 28 47 64 79 33 28 59 55 59 60 0 19 -27 6 -80 -38z
m-96 -140 c-7 -16 -14 -42 -14 -60 0 -17 -4 -34 -9 -37 -11 -7 -63 33 -59 44
2 7 87 77 95 79 1 1 -5 -11 -13 -26z m-224 -59 l0 -46 -27 32 c-26 31 -26 33
-8 46 30 22 35 17 35 -32z m-134 -394 c-11 -38 -25 -69 -31 -69 -5 0 -36 13
-68 27 l-57 27 77 42 c43 23 83 42 89 42 8 1 4 -24 -10 -69z"/>
</g>
</svg>
