<?xml version="1.0" standalone="no"?>
<!DOCTYPE svg PUBLIC "-//W3C//DTD SVG 20010904//EN"
 "http://www.w3.org/TR/2001/REC-SVG-20010904/DTD/svg10.dtd">
<svg version="1.0" xmlns="http://www.w3.org/2000/svg"
 width="222.000000pt" height="159.000000pt" viewBox="0 0 222.000000 159.000000"
 preserveAspectRatio="xMidYMid meet">
<metadata>
Created by potrace 1.16, written by Peter Selinger 2001-2019
</metadata>
<g transform="translate(0.000000,159.000000) scale(0.100000,-0.100000)"
fill="#000000" stroke="none">
<path d="M910 1475 l-31 -45 -67 0 c-37 1 -114 -3 -171 -9 -108 -10 -200 -2
-230 21 -9 6 -27 23 -39 36 -13 13 -31 22 -39 20 -28 -5 -54 -53 -60 -111 l-6
-56 -76 -3 c-80 -3 -97 -17 -39 -32 40 -10 64 -52 83 -141 13 -63 3 -198 -17
-222 -9 -11 -3 -128 8 -165 9 -30 36 -21 135 44 90 60 97 63 167 66 86 5 93
-8 32 -51 -32 -23 -49 -28 -83 -25 -36 3 -42 0 -42 -17 0 -15 8 -20 33 -22 33
-3 108 -52 168 -110 18 -18 43 -33 55 -33 18 0 20 -2 9 -15 -11 -13 -32 -15
-139 -9 -89 4 -129 10 -137 20 -14 18 -34 17 -58 -1 -14 -11 -16 -18 -8 -27 6
-7 14 -46 18 -87 6 -60 10 -75 26 -79 16 -4 18 -11 12 -47 -3 -24 -2 -45 4
-49 5 -3 7 -17 5 -31 -8 -38 21 -42 65 -9 92 71 174 115 199 107 6 -2 14 1 18
6 3 6 13 11 22 11 8 0 29 6 46 14 27 13 92 22 181 26 10 1 31 -10 45 -23 14
-14 40 -33 57 -44 l31 -18 -13 -51 c-7 -29 -17 -89 -22 -134 -7 -73 -6 -85 11
-106 31 -40 47 -31 47 29 0 28 5 83 11 122 9 63 14 75 53 115 23 25 62 70 85
100 24 30 49 59 57 63 23 13 16 37 -10 37 -14 0 -62 -9 -108 -19 -46 -11 -115
-22 -153 -25 -69 -5 -71 -4 -110 30 -22 20 -31 32 -20 28 29 -11 99 -11 103 0
4 12 -65 34 -123 41 -79 9 -106 18 -137 48 -7 7 -25 20 -40 30 -26 16 -28 22
-27 85 1 42 7 73 16 84 10 11 11 18 3 23 -7 5 -9 21 -5 46 6 32 4 39 -9 39
-20 0 -21 30 -1 77 8 19 15 45 15 58 0 12 9 30 20 40 10 9 25 34 31 54 7 20
22 50 34 66 13 17 31 46 41 65 17 35 18 35 24 10 6 -24 9 -25 69 -22 91 6 308
-36 496 -94 61 -19 118 -34 127 -34 35 0 206 -63 260 -96 31 -19 61 -34 68
-34 10 0 43 -13 140 -57 24 -11 23 -12 -17 -14 -24 -1 -46 -2 -50 -3 -22 -6
-116 -17 -179 -21 -39 -3 -104 -14 -145 -24 -41 -10 -76 -17 -78 -15 -5 4 55
168 71 194 11 17 11 22 -1 30 -9 5 -22 5 -33 -1 -10 -5 -70 -15 -133 -21 -63
-6 -119 -14 -125 -18 -8 -5 -6 -32 7 -93 9 -47 14 -89 11 -93 -4 -4 -39 -7
-78 -8 -67 -1 -73 1 -96 27 -33 38 -63 33 -80 -13 -16 -45 -17 -103 -2 -151
14 -50 38 -51 90 -3 40 36 155 97 168 89 4 -2 10 -39 14 -81 7 -85 8 -89 30
-81 12 5 13 20 9 82 -7 85 -1 95 52 95 29 0 32 -4 47 -54 9 -29 14 -63 11 -75
-6 -24 9 -28 27 -6 9 10 10 34 6 78 l-7 62 93 22 c84 20 200 31 402 39 37 1
73 7 78 12 17 17 -27 69 -65 77 -17 4 -52 18 -77 30 -25 13 -62 29 -83 35 -21
7 -41 18 -44 26 -3 8 -10 14 -16 14 -17 0 -347 136 -409 169 -31 16 -82 36
-114 43 -31 7 -105 38 -163 69 -82 43 -109 63 -121 87 -12 26 -21 32 -47 32
-27 0 -37 -7 -63 -45z m190 -98 c58 -31 137 -66 175 -77 39 -12 84 -27 100
-36 17 -8 22 -12 12 -10 -75 22 -357 78 -420 84 -47 4 -48 5 -42 33 4 15 15
47 27 70 20 41 20 42 32 18 7 -15 52 -47 116 -82z m-716 7 c23 -9 20 -24 -4
-24 -11 0 -20 7 -20 15 0 17 2 18 24 9z m420 -43 c-54 -93 -54 -93 -54 -19 l0
67 40 -1 41 0 -27 -47z m-114 -57 c-11 -82 -24 -140 -37 -174 l-10 -24 -159
-2 c-87 0 -169 -4 -181 -8 -18 -6 -22 -4 -17 7 3 8 18 17 34 21 16 3 48 17 71
32 36 22 57 27 140 31 68 4 103 10 111 20 10 12 -9 14 -135 11 -121 -2 -149 0
-162 12 -14 14 -12 20 14 56 44 59 107 87 226 99 74 7 102 7 107 -1 4 -7 3
-43 -2 -80z m-410 -19 c10 -19 11 -28 2 -37 -8 -8 -14 -4 -22 16 -19 51 -4 66
20 21z m64 -106 c-7 -11 -54 -12 -54 -1 0 15 10 19 35 14 14 -2 22 -8 19 -13z
m1211 -111 c-9 -41 -38 -106 -31 -69 7 33 -10 71 -31 71 -24 1 25 29 50 30 16
0 18 -5 12 -32z m-946 0 c32 1 33 0 26 -31 -3 -18 -9 -47 -12 -65 l-6 -33
-161 5 c-88 2 -167 5 -174 5 -8 1 -12 10 -10 23 2 15 13 24 38 31 19 5 42 14
50 22 44 37 104 54 170 47 25 -2 60 -4 79 -4z m831 8 c0 -2 -11 -28 -25 -57
l-24 -53 -11 28 c-17 46 -13 74 13 79 34 7 47 7 47 3z m-1107 -26 c-15 -14
-53 -22 -53 -10 0 12 41 30 53 23 5 -3 5 -9 0 -13z m1157 -71 l0 -57 -36 -7
c-20 -3 -37 -5 -39 -3 -2 2 11 36 28 75 35 82 47 79 47 -8z m-318 -79 c18 -11
46 -20 62 -20 27 0 25 -3 -29 -35 -36 -22 -61 -32 -65 -25 -8 13 -13 100 -6
100 3 0 20 -9 38 -20z m-817 -22 c-22 -11 -48 -27 -58 -36 -21 -18 -25 -15
-33 26 l-6 32 68 0 69 -1 -40 -21z m280 -83 c0 -30 -3 -55 -7 -55 -4 0 -23 14
-43 31 l-36 32 33 23 c18 13 38 23 43 24 6 0 10 -25 10 -55z m115 -185 c0 -5
-7 -7 -15 -4 -8 4 -15 8 -15 10 0 2 7 4 15 4 8 0 15 -4 15 -10z m-150 -30 c4
0 -160 -70 -165 -70 0 0 0 18 0 41 l0 41 80 -5 c44 -3 82 -6 85 -7z m278 -48
l52 -27 -117 -10 c-136 -12 -317 -6 -293 10 8 5 56 22 105 37 108 33 173 31
253 -10z m336 -73 c-51 -67 -72 -80 -86 -56 -5 10 -16 17 -24 17 -18 0 -64 29
-64 41 0 9 50 24 110 34 28 5 94 19 108 24 2 1 -18 -26 -44 -60z m-640 -4 c34
-1 68 -3 76 -4 8 0 -19 -20 -60 -44 -41 -23 -87 -51 -102 -61 -27 -18 -27 -18
-34 8 -3 15 -3 46 1 71 6 42 8 45 32 39 14 -4 54 -8 87 -9z"/>
<path d="M985 1120 c-24 -25 -26 -30 -12 -36 24 -9 21 -88 -7 -194 -21 -81
-24 -86 -64 -108 -23 -13 -42 -29 -42 -35 0 -7 27 -23 59 -36 32 -13 73 -36
90 -51 17 -16 39 -31 48 -34 10 -3 26 -19 35 -36 21 -36 73 -69 99 -63 10 3
19 6 19 7 0 8 -109 114 -130 127 -17 10 -26 25 -27 45 -2 51 -3 128 0 154 2
21 -2 25 -20 23 -18 -2 -23 2 -23 20 0 13 9 26 23 32 12 6 32 30 45 55 12 24
41 63 64 87 23 23 38 46 34 50 -4 5 -24 9 -44 10 -21 1 -55 5 -78 8 -35 4 -44
1 -69 -25z m93 -25 c21 -6 22 -9 9 -23 -8 -10 -24 -36 -36 -59 -12 -24 -22
-43 -24 -43 -1 0 -2 31 -2 70 0 57 3 69 15 66 8 -3 25 -7 38 -11z m-72 -372
c-7 -8 -76 17 -76 28 0 5 12 6 26 3 21 -5 26 -2 31 17 6 22 7 22 15 -10 5 -18
7 -35 4 -38z"/>
</g>
</svg>
