<?xml version="1.0" standalone="no"?>
<!DOCTYPE svg PUBLIC "-//W3C//DTD SVG 20010904//EN"
 "http://www.w3.org/TR/2001/REC-SVG-20010904/DTD/svg10.dtd">
<svg version="1.0" xmlns="http://www.w3.org/2000/svg"
 width="252.000000pt" height="194.000000pt" viewBox="0 0 252.000000 194.000000"
 preserveAspectRatio="xMidYMid meet">
<metadata>
Created by potrace 1.16, written by Peter Selinger 2001-2019
</metadata>
<g transform="translate(0.000000,194.000000) scale(0.100000,-0.100000)"
fill="#000000" stroke="none">
<path d="M1456 1830 c-51 -26 -66 -39 -78 -69 -7 -20 -5 -28 11 -41 11 -8 27
-34 35 -57 8 -23 31 -73 50 -110 20 -37 32 -69 28 -70 -4 -2 -38 5 -76 15
l-69 17 -24 70 c-13 39 -27 97 -31 130 -6 50 -10 60 -27 63 -13 2 -31 -9 -48
-27 -15 -18 -41 -33 -62 -37 -35 -6 -69 -39 -59 -56 3 -4 16 -8 28 -8 24 0 57
-41 84 -104 l13 -29 -63 8 c-35 3 -124 13 -198 21 -74 8 -153 17 -176 20 -46
6 -63 -7 -73 -57 l-6 -30 -80 50 c-44 27 -126 75 -182 106 -56 30 -126 76
-154 100 -29 25 -56 45 -60 45 -3 0 -23 14 -44 30 -69 55 -104 36 -132 -73
-21 -80 -20 -80 70 -98 l58 -12 -61 -62 c-33 -35 -60 -67 -60 -72 0 -17 24
-33 48 -33 26 0 284 -126 290 -141 2 -5 10 -9 18 -9 23 0 10 -14 -52 -57 -113
-77 -190 -122 -219 -129 -38 -8 -75 -31 -75 -47 0 -7 14 -21 32 -32 40 -23 99
-81 91 -89 -3 -3 -23 -3 -43 0 -56 9 -59 -16 -7 -65 58 -55 93 -81 107 -81 6
0 34 23 61 50 72 73 334 264 323 236 -3 -9 -2 -22 4 -29 7 -8 7 -28 2 -57 -5
-25 -9 -72 -10 -105 -1 -87 -7 -103 -54 -127 -22 -11 -59 -33 -81 -48 -89 -61
-262 -147 -305 -153 -79 -10 -94 -51 -52 -136 21 -43 41 -56 74 -48 26 7 188
132 188 145 0 4 17 18 38 32 56 37 156 113 164 125 4 5 8 -20 8 -57 l0 -67
-60 -41 c-33 -22 -85 -54 -117 -72 -32 -17 -65 -36 -73 -43 -43 -34 -128 -69
-170 -69 -45 -1 -45 -1 -48 -38 -3 -38 29 -128 53 -148 10 -8 30 4 86 52 39
35 89 75 110 90 l39 27 -6 -89 c-5 -86 -5 -90 19 -114 l25 -25 79 29 c43 15
91 33 106 39 29 11 168 45 222 55 17 3 55 10 85 15 30 6 87 13 125 16 39 3
111 10 160 15 50 6 143 9 207 7 127 -2 158 7 125 40 -14 15 -63 17 -429 24
-227 4 -437 11 -465 15 -59 8 -58 5 -40 99 13 68 35 101 91 139 21 14 54 42
75 63 21 21 58 53 84 71 71 51 137 117 137 135 0 33 -36 16 -112 -50 -127
-113 -215 -179 -225 -170 -3 4 5 37 17 74 28 83 63 118 189 189 66 37 101 78
83 96 -8 8 -15 8 -24 1 -13 -11 -188 -113 -193 -113 -2 0 1 17 6 39 15 65 47
131 79 157 45 38 40 58 -12 51 -24 -3 -52 -8 -63 -12 -21 -6 -61 27 -119 99
-16 20 -49 48 -73 62 -51 29 -49 37 22 103 35 32 52 41 68 37 12 -3 25 -6 29
-6 4 0 10 -9 13 -20 8 -25 41 -26 54 -1 8 15 31 20 128 29 171 17 369 15 386
-3 15 -14 109 -203 121 -241 9 -29 -33 -42 -52 -17 -20 28 -47 4 -46 -40 l1
-35 -68 -4 c-79 -4 -116 -27 -98 -60 6 -11 8 -62 4 -131 -3 -62 -8 -186 -10
-277 -2 -91 -7 -183 -10 -206 -7 -47 13 -76 34 -50 17 20 41 120 41 169 0 68
19 164 39 199 10 18 22 44 25 58 4 14 19 62 33 106 27 81 27 82 60 81 19 -1
45 8 63 21 17 13 34 20 39 17 11 -6 52 -112 77 -198 10 -33 25 -68 34 -80 23
-27 50 -16 50 20 0 29 -22 100 -40 131 -6 9 -24 50 -40 91 -28 70 -29 75 -13
88 25 20 104 54 116 50 12 -4 54 -113 73 -191 17 -67 59 -156 74 -156 6 0 15
11 21 24 9 18 7 31 -9 62 -10 21 -22 59 -26 84 -4 25 -16 72 -27 105 -43 129
-48 112 38 151 41 18 79 34 84 34 5 0 38 14 74 30 36 17 69 30 74 30 5 0 35
12 67 27 43 19 78 27 129 28 63 2 119 8 183 21 12 2 22 11 22 20 0 17 -57 44
-78 37 -8 -3 -15 3 -19 16 -6 25 0 24 -81 10 -53 -9 -74 -9 -121 4 -100 27
-173 34 -313 29 -184 -6 -199 -3 -220 51 -23 56 -49 175 -47 212 2 56 -1 74
-17 89 -20 20 -30 20 -78 -4z m-1164 -154 c8 -15 7 -18 -5 -13 -8 3 -47 15
-87 27 -55 16 -70 25 -66 36 3 9 6 22 6 31 0 19 137 -54 152 -81z m1212 62 c4
-18 6 -44 6 -57 0 -13 5 -42 11 -63 18 -67 1 -55 -36 26 -37 82 -43 111 -22
119 26 11 35 6 41 -25z m-234 -114 c31 -90 33 -97 22 -90 -18 11 -73 120 -67
134 9 25 28 7 45 -44z m-904 -43 c95 -30 227 -92 239 -112 8 -12 -72 -99 -90
-99 -6 0 -53 37 -105 81 -52 45 -112 93 -132 107 -40 26 -46 37 -25 45 19 8
17 9 113 -22z m-129 -53 c111 -81 198 -158 180 -158 -4 0 -63 32 -133 71 -121
69 -125 72 -108 90 21 24 23 24 61 -3z m821 -37 c18 -5 -13 -10 -89 -14 -148
-8 -208 1 -183 26 8 8 235 -2 272 -12z m462 -77 c16 -4 90 -151 90 -177 0 -18
-128 -63 -140 -50 -14 14 -88 228 -83 237 5 7 96 1 133 -10z m447 10 c-3 -3
-12 -4 -19 -1 -8 3 -5 6 6 6 11 1 17 -2 13 -5z m56 -11 c-7 -2 -19 -2 -25 0
-7 3 -2 5 12 5 14 0 19 -2 13 -5z m-123 -38 c30 -3 70 -8 89 -11 31 -5 32 -6
15 -18 -17 -12 -110 -44 -262 -92 -42 -13 -43 -13 -54 14 -5 15 -16 49 -23 75
l-13 48 96 -5 c53 -3 122 -8 152 -11z m-1319 -176 l35 -38 -45 -24 c-25 -13
-62 -33 -81 -44 -88 -50 -207 -111 -230 -117 -21 -6 -22 -5 -7 4 9 6 17 17 17
25 0 16 126 171 186 229 36 35 38 36 63 20 14 -10 42 -34 62 -55z m-237 -31
c-27 -28 -65 -69 -85 -91 l-36 -39 -28 18 c-26 17 -26 18 -7 25 21 8 104 65
162 111 50 41 49 35 -6 -24z m1271 -9 c-4 -5 -11 -9 -16 -9 -5 0 -28 -12 -50
-26 -37 -23 -43 -24 -57 -10 -14 14 -13 16 14 26 94 37 123 42 109 19z m-172
-68 c6 -23 0 -31 -24 -31 -21 0 -34 31 -17 42 21 13 35 9 41 -11z m-702 -119
c-17 -49 -31 -96 -31 -104 0 -9 -6 -20 -12 -26 -10 -8 -13 12 -13 96 l0 107
40 10 c22 6 41 10 43 9 2 -1 -10 -43 -27 -92z m-301 40 c0 -4 -15 -16 -32 -27
-18 -10 -59 -39 -92 -63 -42 -33 -63 -43 -73 -36 -8 5 -14 14 -14 19 1 9 183
110 204 114 4 0 7 -3 7 -7z m840 -6 c0 -7 -13 -56 -30 -107 -16 -52 -30 -103
-31 -114 -1 -13 -4 -9 -8 10 -4 17 -3 48 1 70 4 22 7 66 8 98 0 57 0 57 30 57
19 0 30 -5 30 -14z m-835 -379 c-22 -18 -62 -53 -91 -79 -28 -27 -56 -48 -61
-48 -6 0 -16 -7 -23 -15 -16 -19 -56 -20 -63 -1 -7 17 14 37 63 61 19 10 37
21 40 25 5 8 161 89 170 89 3 0 -13 -14 -35 -32z m134 -214 c-5 -21 -9 -41 -9
-45 0 -5 -13 -8 -29 -8 -40 0 -48 26 -12 44 15 8 33 22 40 30 19 23 20 21 10
-21z m-155 -34 c-21 -24 -158 -127 -179 -135 -15 -6 -31 34 -18 46 4 5 49 30
98 55 50 26 94 51 99 56 19 18 19 -1 0 -22z m148 -94 c14 -30 22 -31 49 -4 20
20 28 20 182 14 88 -3 162 -7 164 -9 2 -2 -20 -6 -49 -10 -92 -11 -200 -37
-301 -72 -55 -19 -105 -34 -113 -34 -12 0 -14 11 -8 63 8 75 9 77 40 77 16 0
28 -8 36 -25z"/>
</g>
</svg>
