<?xml version="1.0" standalone="no"?>
<!DOCTYPE svg PUBLIC "-//W3C//DTD SVG 20010904//EN"
 "http://www.w3.org/TR/2001/REC-SVG-20010904/DTD/svg10.dtd">
<svg version="1.0" xmlns="http://www.w3.org/2000/svg"
 width="190.000000pt" height="140.000000pt" viewBox="0 0 190.000000 140.000000"
 preserveAspectRatio="xMidYMid meet">
<metadata>
Created by potrace 1.16, written by Peter Selinger 2001-2019
</metadata>
<g transform="translate(0.000000,140.000000) scale(0.100000,-0.100000)"
fill="#000000" stroke="none">
<path d="M891 1332 c-55 -6 -67 -30 -80 -171 -6 -68 -13 -127 -16 -130 -10 -9
-312 113 -443 179 -80 40 -97 36 -88 -26 3 -27 1 -52 -6 -63 -15 -25 -3 -55
19 -46 10 3 45 9 78 12 58 5 136 -14 295 -72 19 -7 55 -19 80 -27 40 -13 45
-19 45 -44 0 -16 3 -33 6 -39 3 -5 5 -14 4 -20 -1 -5 -4 -35 -8 -65 -4 -30
-10 -77 -13 -105 -3 -27 -10 -70 -15 -95 -5 -25 -11 -55 -13 -68 -2 -12 -6
-25 -10 -29 -3 -3 -45 -14 -93 -23 -49 -10 -122 -27 -164 -38 -41 -12 -106
-24 -145 -28 -109 -11 -131 -33 -74 -74 19 -13 30 -30 30 -45 0 -36 10 -55 31
-55 10 0 19 4 19 9 0 5 29 25 63 45 35 19 87 51 116 70 28 19 69 38 89 42 20
4 42 10 47 14 6 4 25 10 43 12 32 4 32 4 32 -36 0 -23 -5 -59 -10 -81 -11 -52
0 -109 23 -113 28 -6 46 17 46 56 -1 21 3 73 7 117 l9 79 50 14 c28 7 118 36
200 64 83 27 182 59 220 70 146 41 257 69 261 65 2 -2 -1 -42 -7 -90 -12 -93
-6 -117 31 -117 27 0 37 21 35 70 -2 50 7 82 41 155 13 28 33 86 44 130 12 44
32 102 45 128 30 60 31 71 4 83 -22 10 -109 -12 -129 -32 -5 -5 -14 -49 -20
-99 -18 -146 -20 -155 -37 -155 -9 0 -26 11 -38 24 -13 14 -39 27 -66 31 -24
4 -83 20 -130 36 -48 16 -93 29 -100 29 -8 0 -75 25 -149 55 -74 30 -140 55
-147 55 -25 0 -43 32 -43 75 0 51 56 214 79 232 14 10 14 13 1 25 -8 8 -30 12
-49 10z m770 -389 c-9 -16 -10 -15 -11 8 0 14 3 29 8 33 12 12 14 -22 3 -41z
m-688 -34 c26 -14 186 -66 227 -74 54 -10 190 -56 233 -78 l39 -20 -69 -24
c-37 -13 -138 -44 -223 -68 -85 -24 -199 -58 -254 -75 -130 -40 -129 -40 -121
13 4 23 10 51 12 62 3 11 11 67 18 125 14 109 23 174 24 177 2 3 95 -28 114
-38z m-573 -545 c0 -5 -63 -29 -67 -26 -10 7 -1 18 19 24 31 8 48 9 48 2z"/>
</g>
</svg>
