<?xml version="1.0" standalone="no"?>
<!DOCTYPE svg PUBLIC "-//W3C//DTD SVG 20010904//EN"
 "http://www.w3.org/TR/2001/REC-SVG-20010904/DTD/svg10.dtd">
<svg version="1.0" xmlns="http://www.w3.org/2000/svg"
 width="155.000000pt" height="110.000000pt" viewBox="0 0 155.000000 110.000000"
 preserveAspectRatio="xMidYMid meet">
<metadata>
Created by potrace 1.16, written by Peter Selinger 2001-2019
</metadata>
<g transform="translate(0.000000,110.000000) scale(0.100000,-0.100000)"
fill="#000000" stroke="none">
<path d="M354 932 c-19 -12 -30 -45 -33 -92 -2 -24 -11 -61 -22 -82 -10 -20
-19 -46 -19 -58 0 -22 19 -27 37 -9 13 13 171 13 223 -1 37 -10 38 -12 42 -59
1 -27 1 -74 0 -105 l-4 -55 -41 -5 c-23 -3 -85 -7 -138 -10 -91 -5 -97 -4
-102 15 -5 17 -9 19 -26 9 -23 -12 -28 -57 -11 -89 5 -10 11 -44 14 -75 2 -32
7 -60 10 -63 2 -3 44 13 91 36 47 22 93 41 101 41 8 0 29 7 45 16 17 8 37 13
45 10 16 -6 18 -71 4 -131 -11 -47 4 -98 28 -93 11 2 15 21 18 73 4 70 26 172
41 185 12 11 164 64 288 100 61 17 141 43 179 56 38 13 80 24 92 24 33 0 54
10 54 26 0 8 -10 14 -22 14 -30 0 -141 37 -198 66 -25 12 -83 29 -130 37 -47
9 -102 23 -122 33 l-36 17 24 67 c13 37 24 69 24 72 0 2 -45 3 -101 1 -56 -2
-109 2 -120 7 -16 9 -21 6 -30 -13 -8 -18 -8 -30 0 -45 22 -41 10 -40 -100 10
-52 23 -65 34 -65 51 1 22 -21 33 -40 19z m393 -99 c-9 -51 -17 -56 -73 -42
-51 13 -64 23 -64 51 0 17 16 20 114 26 28 2 28 1 23 -35z m-324 -5 c12 -7 51
-22 87 -33 52 -17 66 -26 68 -44 3 -20 0 -22 -25 -17 -15 3 -65 10 -109 17
l-81 11 10 39 c10 42 17 45 50 27z m289 -100 c-4 -17 -10 -19 -41 -13 -42 8
-56 18 -48 38 4 12 14 13 50 4 37 -8 44 -13 39 -29z m74 -8 c5 -5 34 -15 64
-21 30 -6 72 -15 93 -19 21 -4 43 -12 48 -17 9 -9 -176 18 -221 32 -11 4 -20
13 -20 21 0 16 21 19 36 4z m-89 -54 c1 -1 -7 -28 -18 -60 -10 -33 -19 -67
-19 -76 0 -9 -7 -25 -15 -36 -13 -17 -14 -12 -16 59 -2 93 -2 115 0 123 1 4
61 -4 68 -10z m198 -26 c49 -12 109 -25 133 -30 23 -6 55 -10 72 -10 53 0 41
-18 -23 -33 -34 -9 -89 -22 -122 -30 -156 -39 -255 -60 -260 -55 -3 3 5 44 17
91 l22 87 35 0 c19 0 76 -9 126 -20z m-86 -164 c-10 -10 -139 -43 -139 -36 0
4 26 15 58 23 58 15 89 20 81 13z m-231 -53 c-2 -12 -23 -25 -57 -36 -30 -10
-86 -31 -124 -48 -38 -16 -71 -28 -72 -27 -1 2 -5 27 -8 56 -5 44 -4 52 11 53
122 5 207 11 211 14 2 3 13 5 23 5 13 0 18 -6 16 -17z"/>
</g>
</svg>
