<?xml version="1.0" standalone="no"?>
<!DOCTYPE svg PUBLIC "-//W3C//DTD SVG 20010904//EN"
 "http://www.w3.org/TR/2001/REC-SVG-20010904/DTD/svg10.dtd">
<svg version="1.0" xmlns="http://www.w3.org/2000/svg"
 width="118.000000pt" height="137.000000pt" viewBox="0 0 118.000000 137.000000"
 preserveAspectRatio="xMidYMid meet">
<metadata>
Created by potrace 1.16, written by Peter Selinger 2001-2019
</metadata>
<g transform="translate(0.000000,137.000000) scale(0.100000,-0.100000)"
fill="#000000" stroke="none">
<path d="M1005 1230 c-22 -11 -47 -24 -55 -29 -21 -14 -230 -101 -241 -101 -5
0 -46 -17 -92 -39 -109 -52 -190 -85 -257 -105 -85 -27 -131 -48 -127 -60 12
-35 145 1 345 95 83 39 96 38 86 -3 -7 -34 -9 -56 -12 -129 l-2 -41 -52 5
c-29 3 -93 10 -142 17 -85 11 -156 7 -156 -9 0 -4 46 -13 103 -19 164 -19 237
-33 237 -46 0 -12 -44 -174 -65 -240 l-13 -40 -73 75 c-82 83 -129 138 -129
149 0 4 -16 19 -37 33 -28 20 -41 24 -55 16 -28 -15 -22 -28 40 -89 31 -31 75
-77 97 -101 22 -24 52 -54 68 -65 15 -12 44 -42 64 -68 19 -25 44 -46 54 -46
34 0 149 -100 202 -174 11 -16 28 -26 42 -26 28 0 33 21 10 40 -8 7 -15 18
-15 24 0 6 5 3 11 -6 12 -21 48 -24 54 -5 2 6 6 68 9 137 3 69 10 148 15 175
23 117 93 370 104 377 7 5 22 11 35 14 30 8 28 24 -3 24 -22 0 -25 4 -25 40 0
35 23 110 51 166 16 31 8 69 -16 71 -11 1 -38 -7 -60 -17z m-4 -106 c-17 -33
-35 -84 -40 -114 l-9 -55 -1 60 c-1 100 8 135 43 156 16 10 32 17 34 15 1 -2
-11 -30 -27 -62z m-87 -116 c-4 -68 -10 -141 -13 -163 l-7 -40 -94 3 c-52 2
-98 7 -102 11 -10 9 12 213 24 229 6 6 18 12 27 12 10 0 48 16 87 35 38 19 72
35 76 35 4 0 5 -55 2 -122z m-62 -238 l37 0 -1 -62 c0 -35 -7 -88 -15 -118 -8
-30 -18 -102 -23 -159 -5 -57 -12 -117 -16 -134 l-6 -29 -57 54 c-31 30 -82
74 -114 97 -65 48 -64 43 -32 151 9 30 18 60 19 65 1 6 8 28 14 50 6 22 14 53
17 69 l6 29 67 -7 c37 -3 84 -6 104 -6z"/>
</g>
</svg>
