<?xml version="1.0" standalone="no"?>
<!DOCTYPE svg PUBLIC "-//W3C//DTD SVG 20010904//EN"
 "http://www.w3.org/TR/2001/REC-SVG-20010904/DTD/svg10.dtd">
<svg version="1.0" xmlns="http://www.w3.org/2000/svg"
 width="227.000000pt" height="137.000000pt" viewBox="0 0 227.000000 137.000000"
 preserveAspectRatio="xMidYMid meet">
<metadata>
Created by potrace 1.16, written by Peter Selinger 2001-2019
</metadata>
<g transform="translate(0.000000,137.000000) scale(0.100000,-0.100000)"
fill="#000000" stroke="none">
<path d="M1073 1275 c-45 -23 -62 -54 -69 -127 -6 -66 -8 -70 -30 -65 -15 2
-30 -3 -40 -14 -10 -11 -13 -19 -8 -19 5 0 3 -4 -5 -9 -12 -8 -12 -21 2 -94
26 -133 22 -146 -27 -74 -16 23 -49 58 -74 77 -92 71 -100 88 -94 184 2 17 0
36 -2 43 -6 14 -36 7 -36 -9 0 -19 -84 -88 -127 -104 -29 -11 -43 -23 -43 -35
0 -19 -30 -46 -157 -139 -45 -33 -90 -60 -100 -60 -10 0 -31 -9 -48 -20 -26
-17 -27 -20 -11 -26 10 -4 26 -3 35 3 12 8 29 1 73 -28 31 -22 62 -39 67 -39
13 0 14 20 2 39 -5 8 1 37 18 79 21 53 36 74 84 114 98 81 98 81 143 59 21
-11 73 -36 114 -56 71 -35 140 -88 140 -108 0 -11 -109 -2 -177 15 -44 10 -53
17 -55 37 -3 23 -4 24 -19 8 -18 -17 -34 -131 -23 -160 12 -34 66 -20 135 34
38 30 90 37 147 21 21 -7 18 -11 -44 -67 -79 -71 -104 -89 -162 -116 -24 -11
-45 -26 -48 -33 -3 -8 -21 3 -52 31 l-47 43 0 85 c0 47 -3 85 -7 85 -4 0 -45
-38 -91 -84 -47 -47 -100 -92 -119 -102 -18 -10 -27 -19 -20 -22 7 -2 29 6 49
18 61 36 103 23 214 -65 52 -41 102 -75 112 -75 22 0 22 9 -4 36 l-21 23 21
-6 c12 -3 30 -16 40 -29 18 -23 40 -32 42 -16 12 107 16 116 96 196 43 42 81
76 85 76 4 0 7 -57 8 -127 3 -334 1 -422 -8 -440 -14 -25 0 -87 19 -91 8 -1
35 14 60 35 116 101 151 117 288 137 105 15 155 37 118 52 -10 3 -30 4 -46 2
-22 -3 -31 0 -34 14 -7 24 -28 23 -34 -2 -7 -25 -39 -34 -119 -33 -64 0 -167
27 -184 48 -18 21 -14 393 5 457 27 94 33 86 34 -48 0 -71 2 -181 5 -244 3
-63 5 -130 6 -147 0 -22 5 -33 15 -33 19 0 85 59 66 60 -8 0 -23 -7 -33 -17
-22 -19 -29 -15 -22 14 5 19 15 21 107 25 56 3 109 7 117 9 11 3 16 -6 18 -29
4 -41 26 -38 30 4 2 16 8 34 13 41 7 7 6 14 -1 18 -18 11 -12 96 8 111 16 13
16 13 0 14 -10 0 -18 7 -18 15 0 19 5 19 40 -2 28 -16 30 -16 62 9 18 14 51
50 73 80 22 31 53 64 68 74 16 11 40 35 53 54 13 19 24 31 24 27 0 -14 220
107 228 126 2 4 9 7 16 7 7 0 52 27 102 60 79 54 93 60 126 55 32 -4 59 7 46
20 -7 7 -174 17 -353 20 -99 2 -205 8 -235 13 -30 5 -122 19 -205 31 -82 12
-155 27 -161 32 -6 5 -40 19 -75 32 -52 19 -68 21 -86 12z m82 -55 c37 -19 36
-23 -19 -50 -16 -8 -42 -27 -57 -42 -15 -16 -31 -28 -35 -28 -9 0 4 107 16
130 11 20 42 17 95 -10z m226 -55 c171 -30 250 -37 424 -39 231 -3 245 -4 239
-21 -4 -8 -11 -15 -17 -15 -6 0 -18 -6 -26 -14 -87 -78 -614 -348 -634 -326
-2 3 -7 20 -10 38 -6 27 -4 32 13 32 21 0 28 16 9 22 -13 4 62 101 96 124 29
19 36 50 7 35 -9 -5 -62 -7 -117 -5 -55 2 -108 1 -117 -2 -27 -8 -21 -22 10
-26 19 -2 28 -9 30 -25 3 -21 -1 -23 -41 -23 -50 0 -104 16 -129 37 -9 8 -22
12 -27 8 -28 -17 2 38 47 88 l26 27 -48 0 c-46 0 -47 1 -32 21 24 35 102 82
147 88 3 1 71 -10 150 -24z m-691 -101 c0 -39 -8 -42 -41 -15 l-24 19 25 20
c31 25 40 20 40 -24z m403 -27 c-4 -7 -28 -41 -52 -76 l-44 -62 -14 32 c-7 17
-13 36 -13 43 0 6 -6 23 -14 38 l-14 27 66 4 c37 2 73 4 80 5 8 1 10 -3 5 -11z
m326 -82 c2 -3 -14 -26 -35 -52 -31 -38 -40 -44 -42 -29 -2 10 2 23 10 27 10
8 10 11 -4 20 -10 5 -18 19 -18 31 0 19 4 20 42 14 23 -4 44 -9 47 -11z m-314
-35 c3 -5 17 -10 31 -10 35 0 30 -12 -18 -43 -47 -30 -54 -25 -44 29 7 34 19
43 31 24z m191 -45 c4 -14 5 -27 3 -29 -4 -4 -189 -15 -189 -11 0 8 70 50 94
56 63 15 85 11 92 -16z m-938 -45 c-13 -38 -22 -44 -38 -25 -10 12 -8 18 11
35 33 27 40 25 27 -10z m372 -21 c0 -10 -77 -49 -84 -42 -10 10 -7 48 4 59 11
11 80 -4 80 -17z m575 -10 c4 -11 8 -35 9 -52 l3 -32 -98 -1 c-69 -1 -97 2
-92 10 15 27 37 46 54 46 18 0 35 17 26 27 -7 6 -77 -27 -77 -37 0 -6 -44 -30
-55 -30 -3 0 -5 17 -5 38 l0 37 83 3 c45 2 84 6 86 8 2 2 17 4 32 4 19 0 30
-6 34 -21z m254 -6 c-8 -10 -16 -20 -19 -23 -3 -3 -27 -33 -54 -67 -26 -35
-49 -63 -51 -63 -3 0 -14 19 -25 42 -19 40 -19 44 -4 55 10 7 40 19 68 27 28
8 60 22 71 30 26 20 30 20 14 -1z m-1063 -73 c2 -39 2 -39 -30 -33 -17 3 -33
8 -35 10 -5 4 50 63 58 63 3 0 7 -18 7 -40z m812 -57 l-3 -38 -74 -2 c-41 -1
-86 -4 -100 -8 -23 -5 -22 -2 14 30 22 19 35 35 28 35 -11 0 -68 -43 -86 -65
-5 -5 -6 5 -3 24 4 19 8 36 9 38 2 1 34 5 71 7 37 2 70 7 73 10 4 3 22 6 40 6
33 0 34 -1 31 -37z m-582 -80 c-3 -3 -13 -2 -23 2 -17 7 -17 8 2 15 19 7 34
-5 21 -17z m484 6 c0 -10 -109 -103 -114 -98 -8 8 -9 55 -2 76 5 16 17 23 44
25 55 5 72 5 72 -3z m91 -6 c0 -10 1 -33 2 -51 2 -43 -7 -48 -108 -56 l-80 -7
65 65 c49 50 71 66 92 66 20 0 28 -5 29 -17z m-247 -289 c20 -3 36 -9 36 -13
0 -6 -95 -71 -104 -71 -4 0 -2 55 3 94 1 4 7 6 15 3 8 -3 31 -9 50 -13z"/>
<path d="M410 506 c-22 -10 -26 -21 -10 -31 6 -3 10 -26 10 -50 l0 -44 -52 1
c-42 1 -59 6 -80 26 -33 30 -74 24 -88 -14 -14 -35 -10 -113 7 -150 8 -18 13
-55 11 -92 -3 -82 9 -94 59 -56 21 16 57 48 81 71 23 24 45 43 48 43 4 0 5
-43 3 -95 -3 -58 0 -95 6 -95 12 -1 22 43 29 129 3 35 8 66 11 69 3 3 48 9
101 13 64 4 99 11 105 20 14 22 11 31 -8 25 -10 -3 -60 -8 -110 -12 l-93 -7 0
40 0 40 68 7 c169 19 177 21 180 39 3 14 -4 17 -40 17 -25 0 -70 -5 -102 -11
-32 -6 -60 -8 -63 -6 -2 3 10 27 26 55 46 73 43 84 -24 80 -30 -2 -63 -7 -75
-12z m70 -31 c0 -3 -9 -22 -20 -42 l-20 -38 0 37 c0 32 8 45 33 47 4 1 7 -1 7
-4z m-187 -131 c12 -1 24 -3 27 -3 3 -1 -13 -12 -35 -24 -45 -26 -55 -21 -55
32 0 34 0 34 20 16 11 -10 30 -19 43 -21z m109 -81 c-2 -7 -28 -13 -65 -15
-37 -2 -62 -8 -65 -15 -2 -8 6 -13 20 -13 48 0 49 -15 3 -53 l-45 -38 0 54 c0
45 4 57 28 80 15 14 44 33 64 41 20 9 40 21 45 28 9 14 22 -47 15 -69z"/>
</g>
</svg>
