<?xml version="1.0" standalone="no"?>
<!DOCTYPE svg PUBLIC "-//W3C//DTD SVG 20010904//EN"
 "http://www.w3.org/TR/2001/REC-SVG-20010904/DTD/svg10.dtd">
<svg version="1.0" xmlns="http://www.w3.org/2000/svg"
 width="198.000000pt" height="142.000000pt" viewBox="0 0 198.000000 142.000000"
 preserveAspectRatio="xMidYMid meet">
<metadata>
Created by potrace 1.16, written by Peter Selinger 2001-2019
</metadata>
<g transform="translate(0.000000,142.000000) scale(0.100000,-0.100000)"
fill="#000000" stroke="none">
<path d="M1530 1268 c-25 -11 -66 -36 -91 -54 -26 -19 -58 -34 -73 -34 -25 0
-30 -7 -27 -43 1 -9 -6 -20 -16 -24 -10 -3 -40 -21 -68 -38 -126 -81 -167
-106 -201 -120 -35 -14 -38 -14 -59 7 -12 13 -46 43 -74 68 -37 32 -51 51 -51
71 0 26 -20 51 -44 55 -6 1 -18 3 -26 5 -10 3 -16 -5 -18 -22 l-3 -27 -47 44
c-36 34 -54 44 -80 44 -21 0 -32 -4 -30 -12 2 -7 -9 -34 -25 -60 -15 -26 -27
-50 -27 -55 0 -15 -108 -177 -159 -239 -51 -61 -64 -94 -37 -94 7 0 25 15 39
33 28 37 25 37 155 16 60 -9 102 -26 102 -40 0 -3 -33 -21 -73 -39 -39 -18
-115 -52 -167 -76 -52 -24 -113 -49 -135 -56 -48 -16 -54 -43 -10 -44 42 -1
167 -119 159 -151 -4 -15 0 -25 14 -32 11 -6 26 -28 33 -48 13 -43 46 -93 60
-93 19 0 49 41 49 67 0 14 14 48 32 76 26 40 42 54 92 75 34 15 98 46 143 69
45 24 87 43 92 43 5 0 35 -18 67 -39 33 -21 78 -49 101 -61 23 -12 49 -32 58
-46 9 -14 33 -32 53 -42 20 -9 38 -17 40 -18 1 0 -5 -17 -13 -37 -19 -46 -19
-67 1 -67 9 0 27 25 44 63 32 69 57 90 203 166 50 27 61 48 25 49 -24 0 -80
23 -110 44 -25 18 -39 1 -97 -112 -33 -63 -50 -87 -54 -76 -4 9 -12 16 -20 16
-7 0 -24 12 -38 26 -13 14 -37 33 -54 41 -30 16 -94 60 -143 100 l-27 21 29
11 c15 6 75 38 132 71 57 33 109 60 114 60 9 0 73 -54 171 -146 31 -29 49 -31
49 -4 0 12 -16 31 -41 48 -22 15 -63 46 -90 70 -27 23 -54 42 -60 42 -6 0 -8
4 -5 8 8 13 157 99 205 118 41 16 45 16 73 -1 44 -26 57 -7 27 41 -25 41 -32
89 -32 229 0 64 5 99 16 121 24 47 5 58 -53 32z m-4 -127 l-9 -78 -34 49 c-18
28 -33 52 -33 54 0 4 73 54 80 54 3 0 1 -35 -4 -79z m-845 -1 c10 -6 19 -16
19 -22 0 -14 -117 -128 -132 -128 -6 0 -5 7 4 18 9 9 23 35 33 57 18 44 42 85
51 85 3 0 14 -5 25 -10z m761 -64 c28 -35 88 -146 88 -162 0 -5 -28 -22 -63
-39 -34 -16 -93 -49 -132 -72 -38 -24 -73 -43 -78 -43 -10 0 -94 57 -122 83
-11 10 -35 28 -53 39 l-34 21 34 20 c18 11 51 32 73 47 22 15 64 40 93 56 84
46 157 83 162 84 3 0 17 -15 32 -34z m-687 14 c-3 -5 -12 -10 -18 -10 -7 0 -6
4 3 10 19 12 23 12 15 0z m98 -40 c17 -16 29 -31 27 -34 -5 -4 -101 13 -108
19 -7 7 24 45 36 45 7 0 27 -13 45 -30z m-169 -29 c3 -4 34 -11 68 -15 35 -4
92 -20 128 -36 36 -15 73 -31 83 -34 26 -8 21 -19 -21 -42 -20 -11 -79 -44
-131 -73 l-93 -52 -27 23 c-77 67 -119 112 -114 124 2 7 -4 14 -16 16 -16 2
-7 12 42 50 66 50 73 53 81 39z m-113 -167 c29 -31 24 -36 -28 -28 -27 4 -55
7 -64 6 -13 0 -10 10 15 46 l31 47 13 -25 c7 -14 22 -34 33 -46z m476 15 c6
-6 20 -16 31 -23 50 -30 131 -87 138 -98 4 -6 -3 -19 -16 -30 -37 -30 -140
-88 -193 -109 l-48 -19 -32 23 c-18 13 -60 40 -93 61 -34 20 -64 43 -67 50 -7
17 35 50 113 89 30 15 69 36 85 47 34 21 66 25 82 9z m-302 -181 c12 -13 59
-43 103 -67 45 -24 79 -47 77 -52 -3 -4 -63 -35 -133 -69 -118 -58 -271 -105
-287 -88 -3 3 -8 32 -11 64 -6 77 21 152 62 174 56 29 129 58 148 59 10 1 29
-9 41 -21z m-295 -93 c0 -2 -18 -14 -40 -25 -22 -11 -40 -18 -40 -15 0 2 17
13 38 24 42 23 42 23 42 16z m1017 -128 c-19 -15 -106 -67 -112 -67 -1 0 11
27 26 59 l29 60 39 -17 40 -17 -22 -18z m-1010 -4 c-3 -10 -5 -4 -5 12 0 17 2
24 5 18 2 -7 2 -21 0 -30z m128 -109 l-27 -36 -19 31 c-11 18 -19 33 -19 36 0
4 82 12 89 8 2 -1 -9 -19 -24 -39z"/>
</g>
</svg>
