<?xml version="1.0" standalone="no"?>
<!DOCTYPE svg PUBLIC "-//W3C//DTD SVG 20010904//EN"
 "http://www.w3.org/TR/2001/REC-SVG-20010904/DTD/svg10.dtd">
<svg version="1.0" xmlns="http://www.w3.org/2000/svg"
 width="84.000000pt" height="110.000000pt" viewBox="0 0 84.000000 110.000000"
 preserveAspectRatio="xMidYMid meet">
<metadata>
Created by potrace 1.16, written by Peter Selinger 2001-2019
</metadata>
<g transform="translate(0.000000,110.000000) scale(0.100000,-0.100000)"
fill="#000000" stroke="none">
<path d="M404 981 c-142 -54 -163 -68 -134 -86 5 -3 7 -12 4 -19 -4 -9 7 -15
36 -19 39 -5 95 -43 116 -77 34 -58 51 -80 74 -94 69 -43 68 -36 4 -136 -33
-50 -64 -99 -69 -108 -32 -53 -56 -85 -118 -157 -38 -44 -79 -91 -91 -105 -15
-18 -20 -33 -16 -50 9 -36 42 -33 52 5 9 36 64 105 83 105 8 0 12 6 9 13 -2 7
6 24 18 37 13 13 41 51 63 85 42 62 87 98 202 158 35 18 63 39 63 47 0 8 -16
26 -34 40 -19 14 -33 29 -33 35 1 5 -9 11 -23 13 -48 7 -139 116 -125 150 4 9
9 41 12 70 2 30 11 71 18 93 18 49 18 49 -111 0z m46 -75 c0 -72 -6 -80 -43
-52 -18 14 -45 28 -60 31 -27 7 -28 8 -8 22 19 13 86 41 104 42 4 1 7 -19 7
-43z m168 -306 c23 -19 22 -40 -2 -40 -7 0 -30 -13 -52 -30 -43 -33 -65 -39
-42 -12 8 9 26 36 38 60 13 23 26 42 29 42 3 -1 16 -9 29 -20z"/>
</g>
</svg>
