<?xml version="1.0" standalone="no"?>
<!DOCTYPE svg PUBLIC "-//W3C//DTD SVG 20010904//EN"
 "http://www.w3.org/TR/2001/REC-SVG-20010904/DTD/svg10.dtd">
<svg version="1.0" xmlns="http://www.w3.org/2000/svg"
 width="202.000000pt" height="178.000000pt" viewBox="0 0 202.000000 178.000000"
 preserveAspectRatio="xMidYMid meet">
<metadata>
Created by potrace 1.16, written by Peter Selinger 2001-2019
</metadata>
<g transform="translate(0.000000,178.000000) scale(0.100000,-0.100000)"
fill="#000000" stroke="none">
<path d="M1073 1668 c-32 -41 -46 -224 -18 -234 17 -7 10 -24 -10 -24 -7 0
-16 14 -20 30 -8 37 -27 38 -54 4 -20 -26 -35 -31 -37 -14 -1 6 -2 15 -3 20 0
6 -10 10 -21 10 -11 0 -20 7 -20 15 0 28 -26 15 -44 -22 -15 -32 -19 -35 -27
-20 -23 41 -51 9 -29 -33 10 -19 4 -50 -9 -50 -5 0 -20 23 -35 51 -25 45 -27
53 -16 80 7 16 26 46 41 66 46 57 41 62 -48 56 -55 -4 -82 -10 -93 -22 -57
-64 -285 -151 -384 -147 -50 2 -53 -23 -10 -97 27 -48 44 -67 59 -67 16 0 12
-7 -22 -36 -51 -43 -54 -60 -10 -67 62 -11 142 -32 161 -43 13 -8 17 -18 13
-33 -7 -28 21 -42 35 -17 9 16 11 16 25 -3 8 -12 23 -21 34 -21 12 0 40 -16
63 -35 24 -19 48 -35 55 -35 7 0 11 25 11 73 0 49 5 80 16 95 20 29 30 28 46
-5 9 -17 20 -27 31 -25 9 2 17 -2 17 -8 0 -5 9 -10 21 -10 18 0 20 4 15 33 -6
32 -6 32 10 10 19 -27 49 -30 62 -6 9 15 11 15 26 0 23 -22 49 -12 35 14 -13
25 -8 71 8 77 18 5 35 -47 28 -85 -6 -32 -5 -33 30 -33 32 0 35 2 35 29 0 33
16 49 32 33 6 -6 4 -21 -7 -42 -23 -45 -7 -59 34 -29 17 12 31 28 31 35 0 6 8
22 19 35 l18 23 12 -22 c6 -12 18 -22 26 -22 28 0 19 -162 -28 -520 -13 -90
-14 -94 -27 -68 -12 25 -11 30 5 48 16 18 16 20 2 26 -9 3 -22 4 -29 2 -6 -2
-20 4 -30 14 -20 20 -53 24 -63 8 -3 -5 -17 -10 -31 -10 -16 0 -28 -8 -34 -22
-8 -22 -9 -21 -15 10 -9 39 -30 41 -57 7 -11 -14 -26 -25 -33 -25 -18 0 -28
34 -20 70 9 41 -6 38 -51 -12 -21 -24 -39 -37 -42 -30 -2 7 -13 12 -24 12 -16
0 -19 -6 -17 -34 4 -46 -4 -53 -26 -20 -17 26 -16 29 9 93 14 37 26 72 26 78
0 20 -29 23 -72 7 -37 -13 -43 -13 -50 1 -14 23 -56 18 -84 -11 -25 -24 -25
-26 -9 -44 16 -17 12 -19 -77 -48 -119 -38 -184 -52 -231 -50 -57 3 -65 -12
-42 -77 15 -46 16 -61 7 -94 -22 -70 -25 -68 118 -76 l130 -7 47 -38 c27 -20
59 -41 73 -45 14 -4 40 -16 59 -27 42 -24 54 -14 39 34 -11 36 -6 91 11 117 8
12 12 13 26 1 9 -7 14 -19 11 -27 -9 -22 20 -26 49 -7 25 16 27 16 45 -4 11
-11 34 -23 52 -27 18 -4 42 -15 54 -24 19 -14 20 -18 7 -37 -23 -35 3 -39 33
-5 30 34 48 31 41 -5 -7 -37 13 -41 39 -9 24 31 60 40 68 18 3 -7 5 -66 5
-131 0 -173 13 -189 81 -98 40 53 169 143 230 161 14 4 35 13 47 21 36 23 138
55 169 53 44 -3 112 11 124 26 22 27 -10 31 -183 21 l-119 -7 5 73 c11 160 56
399 153 808 66 278 83 301 202 275 14 -4 24 0 28 10 4 10 20 15 54 15 50 0 83
21 58 36 -18 12 -208 12 -292 0 -96 -13 -188 3 -416 74 -14 4 -41 17 -60 29
-40 24 -63 27 -77 9z m72 -67 c4 -8 104 -42 160 -54 15 -4 13 -5 -7 -6 -15 0
-39 -6 -55 -12 -15 -5 -46 -13 -68 -16 -22 -3 -48 -9 -57 -14 -9 -5 -19 -9
-23 -9 -5 0 -1 40 11 98 4 22 28 30 39 13z m-425 -58 c-1 -5 -9 -24 -20 -43
l-19 -35 -1 43 c0 35 3 42 20 42 11 0 20 -3 20 -7z m-85 -135 c-9 -26 -14 -55
-11 -63 3 -9 -1 -15 -11 -15 -13 0 -15 11 -9 86 7 102 26 139 40 79 7 -29 5
-50 -9 -87z m859 51 c3 -17 4 -35 1 -39 -3 -5 -8 -55 -11 -112 -8 -163 -13
-237 -23 -333 -15 -139 -21 -176 -35 -230 -14 -50 -28 -137 -50 -320 l-12
-100 -87 -3 c-80 -3 -87 -1 -87 16 0 11 9 31 20 44 17 22 20 45 24 184 5 194
32 467 53 549 36 137 96 332 109 353 11 17 24 22 53 22 35 0 39 -3 45 -31z
m-148 -6 c-4 -16 -21 -73 -39 -127 l-32 -99 -7 54 c-6 45 -4 58 13 82 20 27
19 65 0 53 -5 -3 -11 10 -13 29 l-4 35 44 0 c43 0 44 -1 38 -27z m-811 -35
c-11 -78 -27 -106 -20 -36 3 31 8 63 11 72 12 31 16 15 9 -36z m699 28 c9 -35
-3 -79 -29 -112 -26 -32 -30 -31 -40 7 -5 21 0 34 26 63 24 27 29 40 21 48 -8
8 -21 2 -47 -26 l-35 -37 0 31 c0 33 22 48 71 49 20 1 28 -5 33 -23z m366 11
c0 -7 -7 -37 -16 -67 -9 -29 -18 -61 -20 -69 -2 -9 -12 -47 -23 -86 l-20 -70
1 95 c0 52 3 121 6 153 l5 57 33 0 c22 0 34 -5 34 -13z m-1109 -28 c-2 -8 -6
-33 -9 -57 -3 -28 -11 -46 -23 -53 -17 -9 -19 -6 -19 24 0 18 7 42 15 53 8 10
15 27 15 37 0 11 5 17 13 14 6 -2 10 -11 8 -18z m406 -80 c-13 -22 -26 -20
-41 4 -7 12 -5 26 8 54 l18 38 13 -39 c11 -30 11 -43 2 -57z m-534 37 c-36
-33 -51 -41 -61 -33 -23 19 -8 39 43 57 72 25 72 25 18 -24z m209 -53 c-7 -23
-24 -14 -18 10 3 12 6 36 7 52 2 26 3 25 8 -10 4 -22 5 -46 3 -52z m146 28
c26 -45 28 -69 7 -77 -27 -11 -45 16 -45 67 0 27 4 49 8 49 5 0 18 -17 30 -39z
m249 -13 c-3 -8 -6 -5 -6 6 -1 11 2 17 5 13 3 -3 4 -12 1 -19z m122 4 c6 -12
5 -23 -4 -35 -13 -18 -14 -18 -25 3 -9 16 -9 25 1 36 15 18 16 18 28 -4z
m-688 -25 c-16 -16 -26 0 -10 19 9 11 15 12 17 4 2 -6 -1 -17 -7 -23z m439
-43 c0 -6 -6 -17 -14 -23 -11 -9 -15 -5 -20 20 -8 40 3 58 21 34 7 -11 13 -24
13 -31z m80 -18 c-20 -20 -32 16 -12 37 17 19 17 19 20 -3 2 -12 -1 -27 -8
-34z m114 17 c10 -20 11 -33 3 -50 -14 -32 -24 -29 -37 12 -20 60 6 90 34 38z
m96 -58 c-17 -32 -28 -32 -36 0 -4 18 -1 32 12 46 l19 21 9 -21 c6 -15 5 -29
-4 -46z m100 9 c0 -60 -15 -66 -26 -9 -5 30 6 65 22 65 2 0 4 -25 4 -56z
m-771 -1 c-12 -60 -29 -80 -29 -32 0 48 10 79 25 79 9 0 10 -11 4 -47z m42
-86 c-20 -20 -22 0 -9 69 l13 69 3 -64 c2 -35 -2 -69 -7 -74z m62 86 c-7 -71
-11 -75 -12 -10 -1 31 3 57 8 57 5 0 6 -21 4 -47z m59 -9 c-2 -27 -8 -71 -14
-97 -17 -70 -29 -29 -18 59 5 38 9 75 10 82 0 8 6 12 13 9 8 -2 11 -20 9 -53z
m-269 -25 c-5 -5 -19 -6 -31 -2 l-23 6 28 29 28 30 3 -27 c2 -15 0 -31 -5 -36z
m419 36 c6 -30 -7 -42 -27 -25 -11 9 -12 16 -2 31 16 26 24 24 29 -6z m98 -18
c0 -24 -19 -42 -31 -30 -8 8 -8 16 1 32 11 22 30 20 30 -2z m-196 -2 c-4 -8
-8 -15 -10 -15 -2 0 -4 7 -4 15 0 8 4 15 10 15 5 0 7 -7 4 -15z m-127 -77 c-3
-8 -6 -5 -6 6 -1 11 2 17 5 13 3 -3 4 -12 1 -19z m78 -78 c3 -5 1 -10 -4 -10
-6 0 -11 5 -11 10 0 6 2 10 4 10 3 0 8 -4 11 -10z m21 -380 l-21 -59 -17 32
c-9 18 -17 39 -18 47 0 13 29 29 71 39 3 0 -3 -26 -15 -59z m-106 -10 c-24
-15 -37 -11 -16 5 11 8 22 12 25 9 3 -3 -1 -9 -9 -14z m-74 -57 c-3 -21 -5
-53 -6 -70 0 -24 -5 -33 -16 -33 -14 0 -16 9 -11 59 5 63 12 81 28 81 7 0 8
-15 5 -37z m606 -7 c7 -33 -8 -57 -22 -36 -17 26 -11 60 11 60 3 0 9 -11 11
-24z m-679 -44 c-5 -42 -9 -52 -22 -50 -26 5 -26 63 -1 88 12 12 23 20 25 18
1 -1 0 -27 -2 -56z m185 0 c2 -42 0 -52 -13 -52 -9 0 -14 4 -11 9 3 4 0 22 -6
38 -13 34 -5 67 15 61 7 -3 13 -26 15 -56z m245 8 c4 0 5 -5 1 -11 -4 -7 -13
0 -25 17 -10 15 -15 33 -11 38 3 6 11 -1 16 -16 5 -16 14 -28 19 -28z m-518
30 c-3 -5 -11 -10 -17 -10 -6 0 -26 -12 -45 -26 l-33 -25 -9 23 c-8 21 -5 24
32 30 22 4 42 10 45 13 10 9 33 5 27 -5z m202 -22 c-3 -8 -6 -5 -6 6 -1 11 2
17 5 13 3 -3 4 -12 1 -19z m419 -2 c3 -14 4 -33 2 -43 -4 -14 -8 -10 -20 17
-8 19 -13 38 -11 43 8 15 23 6 29 -17z m-606 -35 c0 -26 -17 -36 -36 -20 -14
12 -14 14 2 26 25 18 34 16 34 -6z m348 -4 c2 -10 -3 -17 -12 -17 -10 0 -16 9
-16 21 0 24 23 21 28 -4z m92 -3 c12 -31 13 -44 2 -44 -9 0 -32 44 -32 60 0
20 21 9 30 -16z m-257 -4 c-3 -11 -7 -20 -9 -20 -2 0 -4 9 -4 20 0 11 4 20 9
20 5 0 7 -9 4 -20z m504 -10 c-2 -29 -17 -24 -17 6 0 14 4 23 9 19 6 -3 9 -14
8 -25z m107 -1 c4 -19 1 -38 -6 -46 -10 -12 -13 -10 -23 14 -8 18 -9 34 -3 46
13 26 25 21 32 -14z m-240 -20 c3 -17 2 -38 -3 -47 -8 -14 -12 -11 -26 21 -8
21 -13 42 -10 47 12 20 33 9 39 -21z m-591 -35 c21 -20 36 -38 34 -40 -9 -9
-117 9 -117 20 0 14 29 56 38 56 4 0 24 -16 45 -36z m441 -16 c-9 -15 -25 -8
-33 15 -13 33 -1 43 20 16 9 -13 15 -27 13 -31z m-334 11 c0 -21 -1 -22 -24
-13 -19 7 -21 30 -3 37 18 6 27 -2 27 -24z m61 8 c-1 -4 -1 -20 -1 -37 0 -16
-4 -30 -9 -30 -12 0 -25 56 -16 70 7 12 27 9 26 -3z m59 -35 c0 -60 -17 -72
-22 -16 -5 53 -2 68 13 59 5 -4 9 -23 9 -43z m70 -33 c0 -67 -1 -70 -22 -67
-22 3 -23 7 -20 68 4 61 15 85 34 74 4 -3 8 -37 8 -75z m379 31 l0 -25 -15 28
c-8 15 -12 32 -8 38 9 16 24 -10 23 -41z m-140 -15 c6 -3 11 -13 11 -22 0 -14
-3 -14 -20 2 -11 10 -20 30 -19 44 0 25 1 25 9 5 5 -12 13 -25 19 -29z m231
26 c10 -20 4 -51 -10 -51 -10 0 -20 26 -20 51 0 25 16 24 30 0z m110 -18 c0
-37 -10 -73 -20 -73 -14 0 -22 71 -9 86 18 22 29 17 29 -13z m-242 -33 c8 -14
9 -26 3 -37 -7 -14 -11 -12 -24 14 -22 42 -4 62 21 23z m80 -53 l-3 -22 -13
23 c-8 13 -11 31 -7 40 6 16 7 16 16 -1 6 -10 9 -28 7 -40z m78 -2 c-15 -15
-16 -15 -16 3 0 24 11 35 23 23 6 -6 4 -16 -7 -26z m114 -70 c14 -2 65 0 115
5 49 5 91 8 93 6 2 -2 -14 -10 -35 -16 -49 -17 -185 -94 -208 -120 -10 -11
-22 -20 -27 -20 -4 0 -8 37 -8 81 0 80 0 81 23 74 12 -3 33 -8 47 -10z"/>
</g>
</svg>
