<?xml version="1.0" standalone="no"?>
<!DOCTYPE svg PUBLIC "-//W3C//DTD SVG 20010904//EN"
 "http://www.w3.org/TR/2001/REC-SVG-20010904/DTD/svg10.dtd">
<svg version="1.0" xmlns="http://www.w3.org/2000/svg"
 width="297.000000pt" height="165.000000pt" viewBox="0 0 297.000000 165.000000"
 preserveAspectRatio="xMidYMid meet">
<metadata>
Created by potrace 1.16, written by Peter Selinger 2001-2019
</metadata>
<g transform="translate(0.000000,165.000000) scale(0.100000,-0.100000)"
fill="#000000" stroke="none">
<path d="M1092 1473 c-20 -29 -30 -53 -39 -100 -3 -16 -6 -35 -8 -43 -2 -8 -4
-36 -4 -62 -1 -33 -7 -54 -20 -67 -17 -17 -19 -29 -14 -75 4 -39 2 -56 -6 -56
-26 0 -120 63 -150 100 -17 22 -39 40 -48 40 -9 0 -13 6 -10 14 3 7 1 18 -4
23 -6 6 -14 45 -18 87 -9 92 -17 104 -53 71 -15 -14 -37 -25 -48 -25 -13 0
-56 -36 -118 -101 -100 -104 -181 -159 -301 -205 -30 -12 -57 -26 -59 -32 -1
-5 22 -29 52 -53 49 -39 54 -45 41 -59 -10 -11 -11 -20 -5 -26 7 -7 -1 -17
-25 -30 -19 -10 -34 -23 -32 -29 2 -5 36 -13 76 -17 73 -8 161 -39 161 -57 0
-5 28 -24 63 -40 34 -17 76 -40 92 -51 l30 -20 -37 0 c-21 0 -38 5 -38 10 0
22 -24 7 -88 -56 -50 -48 -73 -64 -89 -61 -17 3 -23 -1 -25 -21 -2 -18 -23
-41 -68 -75 -36 -28 -65 -55 -65 -61 0 -5 15 -13 33 -17 19 -4 39 -12 45 -18
6 -6 19 -11 29 -11 10 0 21 -7 24 -15 4 -8 18 -15 34 -15 16 0 49 -9 74 -20
40 -17 46 -23 46 -50 0 -36 21 -40 39 -6 10 17 10 29 2 44 -6 11 -11 33 -11
49 0 25 8 32 68 60 57 27 80 32 159 35 85 3 115 10 101 24 -4 3 -59 7 -125 9
-124 5 -148 7 -159 17 -9 10 43 107 69 129 28 23 34 23 85 -1 49 -24 57 -21
70 23 5 17 18 59 28 92 9 33 27 79 40 102 23 44 104 136 112 128 3 -3 6 -47 8
-99 1 -52 6 -101 11 -110 4 -8 7 -69 5 -136 -3 -98 -6 -121 -17 -116 -26 10
-33 -20 -33 -159 0 -77 -1 -145 -2 -150 -12 -61 25 -58 92 6 29 28 87 73 128
100 l75 49 102 0 c56 0 108 3 117 6 22 8 20 34 -1 32 -63 -5 -67 4 -52 117 4
33 10 88 13 121 5 54 14 108 32 193 8 36 23 13 30 -44 7 -51 27 -85 50 -85 7
0 31 26 53 58 21 31 59 76 83 99 39 39 54 45 173 76 72 19 144 41 160 49 17 8
46 18 65 21 19 4 76 18 125 33 50 14 101 26 115 27 24 2 25 -1 25 -53 0 -30
-3 -105 -7 -167 -9 -146 -7 -148 93 -61 74 65 116 84 201 92 40 4 90 9 111 11
57 5 95 45 43 45 -20 0 -25 6 -30 38 -15 88 30 259 85 331 11 13 19 32 19 42
0 16 -6 17 -47 13 -27 -2 -52 -10 -58 -17 -11 -13 -92 -13 -300 -2 -73 3 -115
2 -125 -6 -12 -8 -12 -12 -2 -16 10 -4 10 -8 1 -19 -7 -9 -8 -22 -2 -41 5 -16
11 -54 12 -85 l2 -57 -38 5 c-21 3 -54 12 -73 19 -19 8 -73 19 -120 25 -200
26 -281 39 -358 56 -37 8 -101 21 -142 30 -41 9 -88 22 -105 29 -16 7 -68 25
-115 40 -157 51 -185 70 -237 165 -25 45 -46 48 -71 13z m81 -111 c31 -34 102
-68 236 -114 208 -71 415 -113 709 -143 34 -4 83 -15 110 -25 l47 -18 -29 -11
c-16 -7 -49 -16 -75 -22 -25 -5 -89 -23 -141 -39 -52 -15 -120 -31 -150 -35
-30 -4 -62 -11 -70 -15 -38 -20 -213 -35 -239 -21 l-22 12 25 34 c35 46 33 55
-16 56 -24 0 -63 2 -88 4 -53 5 -80 -1 -80 -19 0 -15 -70 -12 -126 5 -31 10
-64 4 -64 -11 0 -13 58 -29 127 -36 49 -4 63 -3 70 10 17 31 37 -4 34 -58 -1
-15 -6 -17 -27 -12 -83 21 -215 14 -191 -10 9 -10 97 -22 160 -23 l47 -1 0
-36 0 -36 -67 8 c-99 13 -245 11 -250 -2 -4 -11 118 -24 255 -28 47 -1 52 -3
52 -24 0 -22 -3 -23 -32 -15 -18 4 -95 7 -170 5 l-138 -3 0 63 c0 45 8 80 26
123 14 33 34 83 45 112 10 28 33 72 50 98 42 62 35 73 -38 67 -49 -4 -56 -2
-45 9 9 10 43 14 112 15 104 2 130 7 130 23 0 12 -225 8 -253 -4 -17 -7 -18
-4 -12 41 4 27 14 73 22 102 l15 54 15 -29 c8 -15 24 -39 36 -51z m-435 -32
c1 -22 7 -51 12 -65 9 -24 8 -25 -13 -15 -67 34 -87 45 -87 51 0 9 68 69 78
69 4 0 8 -18 10 -40z m2061 -64 c-9 -19 -15 -23 -21 -14 -13 21 -9 36 10 40
24 6 24 4 11 -26z m-362 0 c-31 -77 -40 -96 -47 -96 -4 0 -10 17 -13 38 -3 20
-8 45 -12 54 -6 14 0 17 35 16 26 0 40 -4 37 -12z m153 2 c73 0 88 -11 54 -39
-8 -7 -22 -25 -30 -41 -18 -35 -34 -28 -34 15 0 39 -14 62 -29 52 -9 -5 -10
-30 -5 -85 l6 -78 -45 -7 c-48 -7 -107 1 -107 15 0 23 61 140 73 140 8 0 17 9
20 21 3 12 10 18 17 14 6 -4 42 -7 80 -7z m156 -44 c6 -45 1 -120 -10 -131 -3
-3 -37 -8 -76 -11 -85 -6 -89 3 -34 75 20 27 44 63 52 81 11 22 23 32 38 32
19 0 24 -7 30 -46z m-2078 8 c91 -45 123 -65 151 -95 14 -15 60 -45 101 -66
44 -22 76 -45 78 -55 4 -20 19 -20 -183 0 -80 8 -129 31 -133 62 -4 25 -13 27
-45 10 -32 -19 -34 -23 -41 -109 -8 -87 6 -149 34 -149 8 0 28 12 43 26 15 14
49 35 75 46 26 11 56 28 67 38 22 20 117 41 134 31 13 -9 -218 -241 -259 -260
-29 -14 -32 -13 -63 16 -17 17 -42 34 -53 37 -12 4 -40 20 -62 35 -34 25 -41
38 -56 95 -9 36 -16 80 -16 99 0 18 -4 37 -9 42 -6 6 7 33 37 72 26 34 62 83
80 108 18 25 39 45 47 45 9 0 41 -13 73 -28z m469 -83 c9 -9 4 -27 -18 -70
-17 -32 -27 -63 -24 -69 3 -5 2 -10 -3 -10 -6 0 -14 -17 -20 -37 l-10 -38 -2
50 c-7 165 -7 169 20 176 37 10 45 10 57 -2z m-737 -81 c-22 -29 -46 -60 -53
-70 -11 -15 -15 -14 -46 11 l-34 28 84 41 c46 23 85 42 87 42 1 0 -16 -24 -38
-52z m2036 -34 c-25 -18 -37 -18 -30 0 6 15 34 26 44 18 3 -2 -4 -10 -14 -18z
m114 -64 l0 -80 -52 -1 c-29 0 -66 -2 -82 -3 l-28 -2 7 50 c3 28 7 52 9 53 12
12 115 62 129 62 15 1 17 -9 17 -79z m179 41 c-5 -21 -5 -51 0 -69 10 -33 14
-32 -99 -47 -46 -7 -46 -6 -44 22 1 15 2 51 3 80 l1 51 74 1 74 1 -9 -39z
m-1996 -35 l52 -11 -72 -37 -73 -36 0 43 c0 60 8 79 27 63 8 -6 38 -17 66 -22z
m801 -11 c-4 -8 -9 -15 -13 -15 -4 0 -18 -18 -30 -41 -13 -22 -24 -39 -25 -37
-1 2 0 27 2 56 4 52 4 52 38 52 26 0 32 -3 28 -15z m-1109 -113 c-2 -2 -29 2
-60 9 l-57 13 44 40 43 41 17 -50 c9 -27 15 -51 13 -53z m1214 15 c24 6 24 5
-7 -33 -17 -21 -40 -50 -51 -64 l-19 -25 -10 25 c-5 14 -11 43 -14 66 l-6 41
42 -8 c22 -4 52 -5 65 -2z m807 -50 c-59 -60 -61 -60 -58 -12 4 39 7 44 30 47
56 7 62 -1 28 -35z m-1642 -106 c-17 -67 -27 -79 -49 -57 -9 9 -21 16 -26 16
-5 0 -9 7 -9 15 0 8 5 15 11 15 7 0 28 16 47 36 19 19 36 34 37 32 2 -2 -3
-28 -11 -57z m529 -8 c59 -5 67 -8 67 -27 0 -21 -3 -21 -146 -18 -80 2 -153 1
-162 -3 -29 -11 8 -25 69 -25 31 0 96 -3 146 -6 89 -7 90 -7 85 -31 -4 -23 -8
-24 -46 -19 -115 15 -175 17 -214 7 -23 -7 -42 -15 -42 -20 0 -4 48 -9 108
-10 59 -1 125 -5 147 -9 34 -6 39 -11 39 -32 0 -27 2 -27 -90 -11 -47 9 -128
14 -182 12 -47 -2 -9 -20 56 -26 99 -10 205 -34 214 -48 4 -7 8 -22 8 -35 0
-18 -4 -21 -22 -17 -13 2 -64 11 -114 19 -107 16 -162 39 -175 73 -14 36 -11
207 3 221 13 13 139 16 251 5z m-715 -81 c-16 -41 -54 -112 -60 -112 -10 0
-11 104 -1 113 9 10 65 8 61 -1z m-105 -161 c1 -72 0 -131 -3 -131 -3 0 -27
13 -55 28 l-50 27 -3 60 -3 59 53 47 c29 26 54 46 56 44 1 -1 3 -61 5 -134z
m-146 -48 c-3 -2 -15 1 -27 7 l-22 12 24 25 23 25 3 -32 c2 -18 1 -34 -1 -37z
m243 19 c0 -9 -52 -33 -58 -27 -2 2 -2 10 1 17 5 14 57 23 57 10z m437 -25
c-1 -7 8 -11 21 -10 13 2 39 -4 59 -12 19 -8 51 -15 69 -15 19 0 34 -3 34 -7
0 -5 -31 -27 -68 -50 -37 -23 -86 -60 -109 -83 -42 -41 -54 -42 -46 -5 2 11 6
61 10 112 4 70 9 90 19 86 7 -3 12 -10 11 -16z"/>
</g>
</svg>
