<?xml version="1.0" standalone="no"?>
<!DOCTYPE svg PUBLIC "-//W3C//DTD SVG 20010904//EN"
 "http://www.w3.org/TR/2001/REC-SVG-20010904/DTD/svg10.dtd">
<svg version="1.0" xmlns="http://www.w3.org/2000/svg"
 width="219.000000pt" height="163.000000pt" viewBox="0 0 219.000000 163.000000"
 preserveAspectRatio="xMidYMid meet">
<metadata>
Created by potrace 1.16, written by Peter Selinger 2001-2019
</metadata>
<g transform="translate(0.000000,163.000000) scale(0.100000,-0.100000)"
fill="#000000" stroke="none">
<path d="M787 1520 c-19 -16 -55 -39 -81 -50 l-47 -20 7 23 c17 57 4 57 -86
-2 -41 -27 -77 -48 -79 -46 -2 3 4 20 13 40 20 42 18 65 -4 44 -17 -16 -146
-93 -172 -102 -25 -9 -23 11 7 66 24 47 19 71 -11 46 -8 -6 -60 -35 -116 -63
-106 -53 -132 -76 -111 -97 10 -10 17 -8 34 7 21 19 21 19 70 -35 49 -55 62
-91 34 -91 -8 0 -15 5 -15 10 0 6 -7 10 -15 10 -8 0 -15 -8 -15 -18 0 -12 -15
-26 -40 -38 -37 -18 -59 -44 -25 -30 8 3 22 9 30 12 9 4 15 1 15 -9 0 -26 -26
-38 -68 -31 -49 8 -64 -10 -21 -25 17 -6 28 -15 24 -21 -4 -6 5 -10 23 -10 18
0 43 -13 69 -35 23 -19 52 -35 65 -35 39 0 68 -12 68 -26 0 -20 27 -29 45 -14
8 7 15 27 15 44 0 21 3 27 9 17 5 -7 14 -10 20 -6 9 5 8 14 -5 32 -12 19 -14
37 -10 65 5 33 4 39 -8 35 -11 -4 -13 -1 -9 11 6 14 4 15 -9 4 -13 -11 -19 -7
-37 29 -12 23 -21 43 -19 44 2 2 26 12 54 23 49 20 51 20 62 1 17 -27 15 -37
-15 -65 l-28 -26 32 21 c38 26 43 26 43 3 0 -10 7 -28 16 -40 18 -25 8 -46
-27 -57 -29 -10 -23 -21 26 -49 25 -15 45 -31 45 -36 0 -16 40 -51 50 -45 5 3
7 25 4 48 -5 42 24 162 40 162 4 0 15 -12 24 -27 15 -26 15 -28 -5 -50 -23
-26 -20 -48 6 -48 25 0 61 -29 61 -49 0 -20 39 -36 53 -22 4 4 3 19 -2 33 -5
14 -8 28 -6 30 3 2 5 31 6 64 2 72 14 92 40 68 23 -21 58 -131 73 -229 5 -34
30 -27 60 19 26 39 39 47 110 72 45 16 97 29 116 30 19 0 47 3 63 7 21 6 27 4
27 -8 0 -8 5 -15 11 -15 6 0 9 8 7 18 -4 13 2 18 27 19 31 3 33 1 30 -27 -1
-17 -5 -33 -9 -37 -3 -3 -6 -15 -6 -26 0 -17 -5 -19 -41 -14 -23 3 -45 11 -50
18 -5 9 -11 8 -23 -4 -12 -11 -32 -16 -65 -14 -27 1 -53 -2 -57 -6 -13 -13 17
-27 58 -27 34 0 37 -2 34 -22 -3 -13 -5 -31 -5 -40 -1 -14 -10 -18 -35 -18
-19 0 -41 -3 -50 -6 -26 -10 -18 -24 13 -24 16 0 41 -4 55 -10 21 -8 26 -16
26 -45 0 -34 -1 -35 -38 -35 -21 0 -47 -6 -58 -14 -18 -14 -18 -15 -1 -22 10
-3 34 -4 53 -1 40 7 50 -6 35 -45 -7 -19 -19 -27 -50 -32 -53 -8 -53 -26 0
-26 39 0 40 -1 37 -32 -3 -31 -6 -33 -45 -36 -28 -2 -43 1 -43 9 0 8 -13 10
-39 6 -43 -5 -81 13 -81 40 0 13 -2 14 -17 2 -15 -13 -16 -11 -10 19 8 38 -6
42 -29 8 -25 -39 -6 -231 23 -231 6 0 31 26 57 57 l47 57 62 -2 c34 -1 74 2
89 6 26 7 27 6 18 -15 -5 -13 -14 -63 -20 -113 -6 -49 -13 -91 -15 -94 -11
-10 -85 -12 -85 -2 0 14 -33 14 -47 0 -8 -8 -24 -7 -58 5 -26 8 -51 13 -56 10
-5 -3 -9 4 -9 16 0 29 -23 20 -30 -11 -6 -23 -7 -23 -17 -4 -6 11 -15 37 -21
57 -9 34 -7 41 19 78 34 46 23 54 -14 10 -18 -21 -27 -26 -30 -15 -3 7 1 19 8
25 9 7 13 21 9 34 -2 11 1 39 8 61 15 45 16 74 4 93 -5 9 -18 3 -49 -22 -38
-30 -79 -56 -90 -56 -3 0 -7 14 -10 30 -4 17 -11 30 -17 30 -5 0 -44 -18 -86
-41 l-76 -40 6 45 c4 25 4 46 0 46 -4 0 -26 -15 -48 -34 -54 -44 -150 -91
-142 -70 3 9 9 40 12 70 8 67 -5 70 -72 19 -25 -19 -50 -35 -55 -35 -13 0 -99
-72 -99 -83 0 -4 8 -7 18 -6 61 6 84 -2 127 -44 66 -64 65 -74 -7 -127 -34
-25 -65 -46 -70 -46 -4 -1 -12 -2 -18 -3 -20 -2 -9 -27 20 -45 17 -9 38 -29
47 -44 22 -33 33 -42 57 -42 16 0 18 5 11 43 -14 72 -5 151 16 155 12 2 59
-54 59 -71 0 -4 -15 -14 -32 -23 -33 -17 -33 -17 -9 -26 13 -4 39 -22 58 -38
23 -20 44 -30 66 -30 30 1 31 2 13 15 -15 12 -18 22 -12 57 10 65 26 108 40
108 7 0 23 -11 36 -24 24 -27 22 -52 -7 -63 -28 -10 -33 -26 -14 -37 10 -6 33
-21 52 -33 52 -35 58 -31 52 35 -8 89 24 132 60 79 21 -31 34 -13 19 26 -11
30 -10 34 25 69 38 38 58 39 65 5 4 -21 -89 -144 -114 -150 -10 -3 -18 -14
-18 -26 0 -16 11 -24 48 -34 59 -18 88 -7 71 25 -7 12 -12 36 -11 53 1 28 0
29 -14 11 -8 -11 -14 -30 -14 -43 0 -13 -6 -23 -14 -23 -30 0 -24 19 25 85
l51 67 19 -41 c10 -23 25 -44 32 -47 10 -3 17 -30 22 -85 l7 -81 26 7 c15 3
28 10 30 13 1 4 17 30 35 57 35 54 53 63 140 64 l57 1 0 -34 c0 -40 8 -66 21
-66 5 0 9 25 9 55 0 48 2 55 20 55 18 0 20 -7 20 -56 0 -40 3 -54 13 -51 7 2
12 22 12 53 0 46 2 49 28 52 27 3 29 2 27 -35 -4 -72 0 -113 10 -113 5 0 10
35 12 78 3 76 3 77 31 80 l27 3 -5 -58 c-4 -32 -8 -68 -11 -80 -5 -24 14 -33
21 -10 2 6 7 42 10 80 4 37 11 67 16 67 5 0 9 -34 9 -75 0 -43 4 -75 10 -75 6
0 10 8 11 18 1 39 10 118 14 130 4 10 36 12 132 11 l128 -1 3 -77 c2 -42 7
-80 11 -84 16 -16 24 16 22 85 -1 38 2 75 7 81 5 7 13 30 16 52 9 48 82 160
139 211 31 29 38 40 30 52 -11 18 -63 35 -63 21 0 -5 -13 -9 -28 -9 -16 0 -48
-6 -73 -14 -24 -8 -105 -17 -179 -20 -74 -3 -149 -8 -166 -11 -30 -6 -31 -5
-28 32 1 21 2 42 3 46 1 10 136 3 164 -8 9 -4 24 -4 33 -1 47 18 -71 53 -168
49 -25 -1 -28 3 -28 29 l0 31 70 -7 c72 -6 83 -1 54 28 -10 11 -34 16 -69 16
-53 0 -54 0 -49 27 3 15 6 28 7 29 6 6 76 6 99 0 27 -8 68 7 68 24 0 6 -37 10
-85 10 -89 0 -91 1 -79 47 6 23 27 30 109 37 27 3 41 9 43 20 3 15 -4 16 -63
10 -52 -5 -69 -4 -76 7 -6 11 -11 11 -21 1 -6 -6 -27 -12 -45 -12 -32 0 -33 2
-33 38 0 54 22 78 67 73 6 0 15 -10 18 -21 8 -26 23 -26 27 2 4 30 46 35 50 5
4 -29 22 -29 26 1 3 20 9 22 55 22 29 0 95 3 149 7 l96 6 0 -72 c0 -92 11
-153 25 -148 8 2 12 50 13 155 1 83 5 157 11 164 5 7 16 33 23 58 21 69 60
152 86 183 27 32 23 49 -9 43 -12 -3 -70 -8 -128 -11 -133 -7 -182 -13 -240
-26 -30 -7 -132 -9 -278 -5 -195 4 -241 8 -289 25 -31 10 -72 18 -91 18 -29
-2 -36 -7 -42 -29 -9 -34 13 -170 29 -176 6 -2 30 14 54 35 70 63 98 82 140
93 54 15 76 6 72 -28 -2 -15 -6 -63 -9 -107 -3 -44 -11 -104 -17 -133 l-10
-54 -91 7 c-94 7 -158 29 -183 63 -12 16 -13 16 -19 0 -11 -27 -25 -21 -41 17
-14 34 -13 37 13 70 16 19 31 35 34 35 4 0 9 7 13 15 10 28 -22 16 -58 -21
l-36 -37 -10 27 c-13 35 -14 34 13 38 14 2 20 9 18 18 -7 23 -5 100 4 153 9
56 0 60 -48 17z m11 -62 c-5 -24 -8 -55 -5 -70 4 -32 -18 -39 -28 -9 -3 10
-14 26 -25 36 -11 10 -20 22 -20 26 0 6 77 58 86 59 1 0 -2 -19 -8 -42z m222
13 c30 -11 59 -17 64 -14 5 4 1 -6 -10 -20 -10 -15 -23 -27 -28 -27 -6 0 -22
-12 -38 -27 -15 -14 -30 -24 -33 -21 -6 6 -19 128 -14 128 3 0 29 -9 59 -19z
m-385 -8 c-4 -10 -13 -40 -21 -67 -16 -60 -29 -76 -39 -47 -3 12 -10 21 -15
21 -5 0 -10 8 -12 18 -2 10 12 32 37 55 43 40 61 47 50 20z m1307 -11 c-8 -12
-25 -50 -37 -84 l-22 -61 -7 74 c-3 41 -11 76 -17 78 -21 7 9 16 54 16 44 0
44 0 29 -23z m-1466 -19 c-8 -21 -17 -47 -22 -58 -4 -11 -6 -24 -5 -30 1 -5
-12 5 -29 23 -16 18 -30 36 -30 40 0 5 57 41 97 61 2 0 -3 -16 -11 -36z m1363
-15 c10 -49 9 -244 -2 -254 -2 -3 -73 -7 -157 -10 l-152 -6 6 49 c3 26 6 68 7
93 0 25 3 68 6 96 l5 52 57 11 c31 6 65 12 76 15 11 2 48 4 82 5 l62 1 10 -52z
m-1553 6 c-3 -9 -6 -39 -6 -67 l-1 -52 -34 40 c-19 22 -35 46 -35 52 0 7 15
19 33 27 43 19 50 19 43 0z m1005 -18 c0 -11 3 -32 5 -46 6 -28 -14 -182 -27
-217 -8 -21 -46 -32 -61 -18 -4 4 4 93 17 175 3 19 8 53 11 75 8 60 11 64 33
58 13 -3 21 -14 22 -27z m95 26 c-2 -4 -8 -50 -11 -102 -13 -171 -16 -183 -50
-191 -16 -5 -31 -7 -33 -5 -2 2 2 24 9 47 6 24 13 91 14 149 2 58 4 106 4 108
1 1 17 2 37 2 19 0 33 -3 30 -8z m140 -8 c-3 -9 -9 -73 -12 -142 -3 -70 -8
-130 -10 -134 -3 -4 -15 -8 -26 -8 -20 0 -21 3 -14 98 3 53 9 116 12 140 4 24
3 42 -3 42 -15 0 -33 -93 -33 -168 0 -94 -7 -112 -39 -112 l-27 0 12 78 c7 42
13 103 13 134 1 85 4 88 73 88 51 0 59 -2 54 -16z m-823 -35 c15 -21 27 -46
27 -53 0 -8 -21 -32 -46 -52 -37 -31 -47 -35 -55 -23 -5 8 -9 16 -10 19 0 3
-2 13 -4 23 -2 12 9 26 31 40 36 23 48 45 15 27 -30 -16 -43 -13 -32 8 5 9 12
25 15 35 9 27 29 19 59 -24z m-180 -6 c-3 -7 4 -25 16 -41 l20 -29 -28 -21
c-21 -15 -31 -18 -40 -9 -14 14 -15 84 -1 92 6 4 8 10 6 14 -3 3 4 7 14 7 10
0 16 -6 13 -13z m-135 -32 l31 -39 -51 -21 c-58 -24 -71 -21 -58 15 6 14 10
36 10 49 0 20 10 31 31 34 3 1 20 -16 37 -38z m372 -66 c0 -8 4 -15 9 -15 19
0 4 -30 -35 -69 l-39 -40 -22 34 -22 34 47 35 c53 40 62 43 62 21z m-166 -26
c19 -32 19 -32 -5 -51 -53 -41 -58 -42 -74 -4 -20 47 -19 48 13 68 39 23 45
22 66 -13z m-275 -59 c13 -23 20 -47 18 -55 -3 -7 1 -16 9 -19 24 -9 15 -76
-11 -76 -8 0 -23 12 -35 27 -19 24 -22 25 -37 10 -15 -14 -19 -14 -48 9 l-32
24 24 50 c16 34 30 50 43 50 10 0 22 5 25 10 11 18 21 11 44 -30z m255 -45
c-6 -16 -24 -21 -24 -7 0 11 11 22 21 22 5 0 6 -7 3 -15z m158 -40 c-5 -26
-16 -32 -27 -15 -7 11 11 40 25 40 4 0 5 -11 2 -25z m265 -13 l48 -7 -35 -22
c-20 -12 -47 -31 -60 -43 -31 -27 -40 -16 -47 55 l-6 57 26 -17 c14 -9 47 -20
74 -23z m-447 -11 c-1 -13 -3 -13 -15 3 -19 26 -19 42 0 26 8 -7 15 -20 15
-29z m766 -137 c-3 -9 -6 -27 -6 -40 0 -22 -3 -24 -55 -24 l-55 0 0 40 0 40
61 0 c52 0 60 -2 55 -16z m92 -26 c3 -38 3 -38 -35 -38 l-39 0 4 41 c4 38 6
40 36 37 28 -3 31 -7 34 -40z m-98 -77 c0 -5 -3 -23 -6 -40 -6 -31 -8 -32 -53
-29 -45 3 -46 4 -49 41 l-3 37 55 0 c31 0 56 -4 56 -9z m90 -25 c0 -35 -12
-46 -54 -46 -20 0 -23 4 -19 28 8 47 12 52 43 52 27 0 30 -3 30 -34z m0 -80
c0 -3 -4 -16 -9 -29 -12 -31 -81 -45 -81 -16 0 38 12 49 51 49 21 0 39 -2 39
-4z m-110 -23 c0 -30 -13 -40 -59 -48 -39 -6 -43 -5 -38 10 4 9 7 25 7 36 0
16 7 19 45 19 36 0 45 -3 45 -17z m100 -98 c0 -44 -1 -45 -32 -45 -18 0 -63
-3 -99 -6 -62 -6 -66 -5 -72 16 -3 12 -3 28 -1 35 7 17 84 29 98 15 14 -14 26
-12 26 4 0 9 13 16 33 19 17 2 35 5 40 5 4 1 7 -18 7 -43z m-1097 -42 c-3 -21
-9 -42 -13 -46 -7 -8 -60 11 -60 22 0 5 69 59 77 61 1 0 -1 -17 -4 -37z m513
9 c-3 -10 -10 -37 -16 -62 l-12 -44 -24 39 c-13 22 -24 43 -24 47 0 10 64 46
73 41 4 -3 6 -12 3 -21z m-154 -16 c2 -19 0 -32 -4 -30 -4 3 -8 -4 -8 -14 0
-34 -29 -35 -48 -2 -9 16 -21 30 -27 30 -13 0 57 49 71 50 7 0 14 -15 16 -34z
m-178 -18 c-4 -24 -8 -45 -10 -47 -2 -3 -16 6 -30 20 l-25 24 28 22 c39 32 44
29 37 -19z m1389 -9 c-20 -28 -51 -78 -68 -111 l-33 -61 -6 64 c-10 92 -16
119 -28 119 -6 0 -9 -43 -6 -117 l3 -118 -90 1 c-49 1 -108 2 -130 3 l-40 1 1
113 1 112 29 6 c16 4 76 7 134 8 58 1 132 8 165 16 33 7 70 14 82 14 22 1 21
-2 -14 -50z m-1153 -1 c0 -13 7 -36 15 -52 15 -28 15 -31 -16 -62 -32 -33 -33
-33 -46 -14 -15 22 -11 59 13 118 15 37 34 42 34 10z m252 -41 l-27 -28 -6 28
c-14 61 -13 62 26 45 l35 -16 -28 -29z m373 -2 c-3 -22 -7 -57 -10 -77 -8 -76
-17 -107 -32 -112 -8 -3 -18 -4 -22 -2 -7 4 14 197 23 223 3 6 14 11 26 10 18
-1 20 -6 15 -42z m58 8 c-2 -21 -5 -72 -6 -113 -2 -69 -4 -75 -24 -78 -27 -4
-29 14 -12 135 12 86 14 93 34 93 9 0 12 -10 8 -37z m45 -75 c-2 -69 -7 -112
-13 -111 -5 2 -10 20 -9 40 3 155 5 183 14 183 7 0 10 -40 8 -112z m-1035 72
l27 -29 -34 -26 c-41 -31 -50 -31 -64 0 -18 38 -15 59 11 71 32 17 31 17 60
-16z m159 -4 c16 -33 16 -34 -17 -66 l-34 -33 -10 24 c-12 32 -3 80 17 97 23
18 27 16 44 -22z m701 2 c-4 -54 -24 -191 -29 -199 -2 -4 -13 -5 -24 -2 -17 5
-19 11 -14 67 3 33 10 85 15 114 9 44 14 52 32 52 19 0 22 -5 20 -32z m-799
-88 l19 -39 -24 -21 c-50 -42 -54 -42 -79 2 l-23 42 33 28 c19 15 39 28 45 28
5 0 19 -18 29 -40z m157 -7 l23 -36 -30 -23 c-16 -13 -32 -24 -35 -24 -3 0
-16 14 -28 31 l-23 31 28 29 c15 16 31 29 35 29 4 0 18 -16 30 -37z m-356 -84
c-4 -6 -7 -26 -7 -45 0 -19 -2 -34 -4 -34 -3 0 -17 11 -31 24 l-26 24 34 21
c39 24 43 25 34 10z m175 -19 c0 -5 -5 -10 -11 -10 -5 0 -7 5 -4 10 3 6 8 10
11 10 2 0 4 -4 4 -10z m494 -19 c19 -11 37 -17 41 -13 4 4 -10 -19 -31 -51
-39 -58 -39 -58 -45 -30 -8 34 -11 113 -4 113 2 0 20 -9 39 -19z m-524 -21
c11 -6 17 -17 14 -25 -5 -12 -9 -12 -29 3 -33 25 -21 42 15 22z m174 -39 c-2
-2 -10 2 -19 9 -12 10 -13 16 -3 28 11 13 13 11 19 -9 3 -13 4 -26 3 -28z"/>
</g>
</svg>
