<?xml version="1.0" standalone="no"?>
<!DOCTYPE svg PUBLIC "-//W3C//DTD SVG 20010904//EN"
 "http://www.w3.org/TR/2001/REC-SVG-20010904/DTD/svg10.dtd">
<svg version="1.0" xmlns="http://www.w3.org/2000/svg"
 width="234.000000pt" height="202.000000pt" viewBox="0 0 234.000000 202.000000"
 preserveAspectRatio="xMidYMid meet">
<metadata>
Created by potrace 1.16, written by Peter Selinger 2001-2019
</metadata>
<g transform="translate(0.000000,202.000000) scale(0.100000,-0.100000)"
fill="#000000" stroke="none">
<path d="M736 1961 c-10 -11 -15 -24 -12 -30 14 -22 -22 -61 -137 -147 -129
-96 -255 -172 -334 -202 -29 -11 -49 -25 -51 -36 -4 -18 43 -76 61 -76 5 0 20
-9 34 -19 24 -20 24 -20 4 -33 -12 -7 -21 -19 -21 -26 0 -18 37 -50 80 -68 19
-8 55 -35 80 -59 25 -25 65 -63 90 -86 l44 -41 -35 -32 c-81 -71 -304 -222
-353 -238 -36 -13 -56 -27 -56 -40 0 -5 23 -33 50 -62 27 -29 50 -59 50 -66 0
-13 210 -222 301 -300 28 -24 57 -56 63 -72 7 -15 27 -38 45 -50 37 -25 40
-29 72 -101 12 -26 31 -53 42 -59 18 -9 25 -6 51 28 45 58 133 145 201 199 33
26 92 78 130 115 39 36 93 82 120 100 28 19 55 39 60 46 6 7 51 38 100 69 150
96 165 107 171 129 3 12 41 44 86 74 l81 52 51 -30 c28 -17 67 -39 86 -48 42
-20 50 -26 100 -74 40 -40 67 -48 76 -24 5 13 -40 62 -110 119 l-29 24 18 44
c9 24 19 72 21 106 1 34 10 75 18 91 15 30 85 92 103 92 10 0 43 32 43 42 0 3
-7 9 -16 12 -10 4 -38 -12 -77 -44 -79 -63 -78 -62 -171 -143 l-78 -68 -37 27
c-57 43 -156 131 -237 210 -41 41 -83 78 -94 84 -11 6 -20 17 -20 25 0 8 -6
15 -14 15 -13 0 -124 86 -151 116 -5 6 -31 25 -57 43 -26 17 -51 37 -55 44 -4
8 -42 39 -84 70 -42 32 -80 66 -85 76 -5 11 -43 56 -84 101 -41 44 -77 93 -80
108 -6 33 -30 39 -54 13z m112 -162 c37 -39 73 -81 79 -94 7 -12 34 -35 60
-51 27 -15 71 -49 98 -74 28 -26 90 -77 138 -114 48 -38 86 -71 83 -74 -6 -5
-69 35 -119 75 -16 13 -34 20 -39 17 -6 -4 -8 -3 -5 3 3 5 -8 18 -26 28 -18
10 -49 31 -69 47 -44 34 -232 149 -300 184 l-48 24 33 50 c17 27 35 50 40 50
4 0 37 -32 75 -71z m-198 -14 c-16 -20 -6 -43 21 -47 25 -3 26 -12 33 -153 5
-112 -16 -374 -34 -420 -7 -19 -9 -18 -19 8 -6 16 -26 50 -43 75 -63 90 -75
122 -77 198 -1 18 -9 42 -19 54 l-18 22 -37 -21 c-20 -11 -37 -18 -37 -15 0
29 150 239 170 239 8 0 21 14 30 30 14 27 29 44 39 45 2 0 -2 -7 -9 -15z m177
-130 c26 -17 29 -23 21 -45 -8 -21 -40 -149 -54 -215 -3 -11 -11 -62 -18 -114
-7 -51 -18 -96 -23 -100 -6 -3 -13 -15 -16 -26 -3 -11 -3 68 1 175 4 107 6
236 5 287 l-2 92 28 -17 c15 -9 41 -26 58 -37z m-371 -47 c-91 -121 -106 -137
-126 -135 -10 1 -17 4 -15 8 3 3 -7 16 -20 27 -14 12 -25 26 -25 32 0 5 21 20
48 33 26 13 79 42 117 65 39 23 71 42 73 42 2 0 -22 -33 -52 -72z m449 -15
c-9 -24 -13 -54 -20 -143 -3 -41 -12 -118 -19 -170 -7 -52 -11 -98 -9 -102 5
-9 -41 -11 -49 -3 -6 6 3 60 46 285 8 41 18 92 21 113 4 24 11 37 22 37 10 0
13 -5 8 -17z m54 -12 c13 -8 13 -17 -2 -63 -9 -29 -21 -73 -26 -98 -10 -43
-10 -42 -6 19 3 35 5 84 5 107 0 45 4 50 29 35z m64 -66 c-1 -11 -5 -38 -7
-60 -3 -22 -9 -85 -12 -140 -7 -113 -16 -166 -27 -166 -4 1 -19 1 -34 1 -50 0
-58 13 -44 62 6 24 18 59 26 78 8 19 26 84 41 143 21 85 31 107 43 105 9 -2
15 -12 14 -23z m53 -46 c1 -13 -1 -46 -6 -74 -5 -27 -12 -66 -15 -85 -9 -53
-24 -59 -21 -9 9 129 20 199 29 196 6 -2 12 -14 13 -28z m-600 -30 c4 -7 8
-30 10 -51 2 -26 18 -61 44 -100 22 -34 39 -62 37 -64 -8 -9 -72 34 -97 67
-17 20 -51 47 -75 59 -25 12 -45 28 -45 36 0 9 24 26 53 39 61 28 64 28 73 14z
m675 -10 c-13 -46 -31 -155 -37 -221 l-7 -78 -34 0 c-28 0 -33 3 -29 18 22 74
50 178 64 235 12 52 19 67 31 64 9 -2 14 -10 12 -18z m67 -27 c10 -7 8 -25 -7
-88 -11 -43 -25 -107 -32 -141 -7 -35 -17 -63 -21 -63 -13 0 0 184 17 244 17
57 21 62 43 48z m62 -62 c-5 -10 -14 -62 -20 -117 -6 -54 -13 -104 -15 -110
-5 -15 -55 -18 -55 -4 0 14 59 242 65 252 3 4 12 6 20 3 11 -5 12 -11 5 -24z
m50 -22 c-1 -7 -7 -26 -15 -43 l-13 -30 -1 27 c-1 14 2 33 5 42 7 19 24 21 24
4z m80 -3 c7 -8 8 -15 2 -15 -5 0 -15 7 -22 15 -7 8 -8 15 -2 15 5 0 15 -7 22
-15z m-17 -49 c20 -16 21 -30 6 -132 l-12 -76 -31 6 c-17 4 -34 10 -39 15 -12
12 37 201 51 201 4 0 15 -7 25 -14z m82 -46 c5 -8 -44 -165 -50 -158 -4 5 14
148 20 158 8 13 22 13 30 0z m51 -38 c7 -5 6 -27 -5 -74 -13 -60 -18 -68 -38
-68 -29 0 -30 21 -2 94 22 57 26 61 45 48z m54 -77 c0 -53 -8 -75 -27 -75 -11
0 -13 10 -8 47 3 26 8 56 11 65 10 31 24 9 24 -37z m-757 36 c21 -8 23 -14 18
-48 -6 -34 -9 -38 -40 -41 l-33 -3 6 41 c5 39 13 60 21 60 2 0 15 -4 28 -9z
m152 -33 c2 -2 2 -14 -2 -26 -4 -19 -12 -22 -50 -22 -41 0 -44 2 -38 21 5 15
4 19 -5 14 -9 -6 -9 -3 -1 13 9 17 16 18 51 12 22 -4 43 -9 45 -12z m957 -60
c-3 -40 -12 -88 -21 -105 l-16 -33 -38 26 c-31 21 -36 28 -26 40 6 7 8 21 5
30 -5 12 9 31 46 65 29 27 53 49 53 49 1 0 -1 -33 -3 -72z m-1257 -140 c-4
-165 -17 -324 -37 -455 -9 -62 -13 -70 -27 -61 -19 12 -61 74 -61 90 0 16 -48
98 -74 126 -11 13 -39 58 -61 99 -42 79 -58 93 -63 56 -3 -22 40 -106 94 -183
17 -25 39 -60 48 -78 17 -33 17 -33 -3 -23 -11 6 -33 28 -48 48 -15 21 -56 64
-90 98 -34 33 -64 70 -68 81 -4 17 16 47 102 145 59 67 136 151 170 186 l61
64 30 -15 30 -16 -3 -162z m409 186 c9 -3 16 -12 16 -20 0 -10 -13 -14 -44
-14 -39 0 -44 2 -39 20 5 20 35 26 67 14z m557 -11 c8 -10 26 -26 39 -35 l25
-17 -47 1 c-48 1 -48 1 -48 34 0 38 8 42 31 17z m-418 -20 c-7 -2 -21 -2 -30
0 -10 3 -4 5 12 5 17 0 24 -2 18 -5z m-137 -118 c-4 -38 -11 -86 -16 -105 -4
-19 -11 -55 -14 -80 -3 -25 -15 -88 -27 -140 -11 -52 -22 -105 -25 -117 -4
-24 -33 -46 -71 -58 -20 -5 -23 -3 -23 22 0 15 7 42 16 58 10 18 16 51 15 85
-1 50 5 91 38 260 6 30 13 75 16 100 l6 45 46 0 45 1 -6 -71z m-256 33 c0 -10
-4 -49 -10 -86 -5 -37 -17 -121 -26 -187 -9 -66 -25 -163 -35 -215 -10 -52
-19 -104 -19 -116 0 -21 -17 -34 -46 -34 -15 0 -13 31 6 130 10 49 21 185 26
322 1 49 5 91 7 96 3 4 8 25 12 47 12 62 20 72 54 67 23 -3 31 -10 31 -24z
m126 -30 c-7 -70 -51 -287 -67 -333 -6 -16 -13 -66 -15 -110 -4 -72 -7 -82
-32 -102 -15 -13 -35 -23 -44 -23 -19 0 -18 25 7 140 25 113 48 256 59 370 13
121 12 120 58 120 l41 0 -7 -62z m281 -10 c-8 -98 -22 -166 -56 -273 -26 -84
-31 -91 -72 -117 -24 -14 -47 -27 -50 -27 -4 -1 4 40 17 90 13 50 29 130 35
178 6 47 17 97 25 111 7 14 18 44 24 68 10 40 13 42 47 42 l35 0 -5 -72z m142
56 c3 -3 -10 -142 -24 -244 -2 -14 -4 -28 -4 -31 -2 -11 -105 -79 -120 -79
-15 0 -8 54 14 105 7 17 18 57 24 90 6 33 15 86 21 117 l11 57 37 -6 c20 -3
39 -7 41 -9z m126 -98 c-6 -86 -8 -93 -37 -118 -38 -34 -68 -42 -69 -20 -2 37
3 88 11 97 4 6 11 30 15 55 13 78 19 87 55 82 l31 -4 -6 -92z m-1081 42 c-22
-23 -67 -72 -101 -108 l-62 -65 -25 24 c-35 33 -33 43 11 66 21 11 76 45 123
76 47 31 87 55 89 53 1 -1 -14 -22 -35 -46z m1136 -25 c-8 -32 -13 -64 -11
-70 1 -7 -3 -13 -10 -13 -8 0 -10 20 -4 72 7 81 12 95 28 79 7 -7 6 -28 -3
-68z m165 54 c-8 -13 -37 -38 -63 -56 -26 -17 -56 -38 -67 -46 -21 -15 -21
-15 -5 50 l15 64 41 -6 c23 -3 50 0 60 6 30 17 36 13 19 -12z m-555 -421 c0
-2 -53 -48 -117 -102 -65 -55 -154 -134 -199 -176 -44 -43 -83 -78 -86 -78 -5
0 -20 42 -22 65 -1 6 4 15 10 20 7 6 14 19 16 30 2 14 39 38 133 85 72 36 132
68 135 71 5 6 123 88 128 89 1 0 2 -2 2 -4z"/>
</g>
</svg>
