<?xml version="1.0" standalone="no"?>
<!DOCTYPE svg PUBLIC "-//W3C//DTD SVG 20010904//EN"
 "http://www.w3.org/TR/2001/REC-SVG-20010904/DTD/svg10.dtd">
<svg version="1.0" xmlns="http://www.w3.org/2000/svg"
 width="335.000000pt" height="126.000000pt" viewBox="0 0 335.000000 126.000000"
 preserveAspectRatio="xMidYMid meet">
<metadata>
Created by potrace 1.16, written by Peter Selinger 2001-2019
</metadata>
<g transform="translate(0.000000,126.000000) scale(0.100000,-0.100000)"
fill="#000000" stroke="none">
<path d="M916 1225 c-31 -31 -39 -67 -37 -170 2 -93 0 -102 -21 -121 -44 -40
-79 -58 -87 -45 -4 6 -15 9 -24 5 -20 -7 -20 -11 -2 50 19 64 7 76 -36 38 -19
-15 -56 -43 -83 -62 -31 -21 -44 -35 -36 -40 8 -5 9 -13 2 -26 -5 -11 -17 -35
-26 -54 -17 -35 -17 -35 -12 52 3 58 11 96 22 113 19 29 11 45 -14 27 -44 -31
-115 -62 -130 -58 -11 4 -22 -2 -30 -14 -10 -17 -9 -23 8 -40 11 -11 20 -29
20 -40 0 -25 -37 -100 -49 -100 -19 0 -29 192 -12 220 19 29 -1 27 -71 -8 -84
-41 -93 -50 -72 -73 13 -15 13 -17 -1 -23 -13 -5 -13 -8 4 -25 21 -21 65 -101
56 -101 -3 0 -23 17 -46 37 l-40 37 -26 -30 c-22 -26 -24 -36 -20 -93 2 -37
-2 -93 -11 -133 -12 -54 -13 -71 -3 -81 10 -9 15 -9 24 4 13 17 67 54 67 46 0
-13 -53 -96 -75 -117 -14 -13 -25 -28 -25 -34 0 -6 29 -17 65 -24 83 -16 100
-15 115 3 10 13 9 15 -10 15 -21 0 -22 3 -17 48 6 48 53 162 67 162 7 0 40
-77 40 -94 0 -4 -13 -28 -30 -53 -36 -53 -36 -54 -7 -52 71 6 104 -1 117 -26
15 -29 34 -28 36 1 3 58 2 57 42 49 20 -4 45 -14 55 -22 14 -13 22 -14 43 -4
21 9 33 9 55 -1 16 -7 29 -16 29 -19 0 -3 9 -16 20 -29 14 -16 20 -37 20 -72
0 -45 16 -175 26 -207 3 -9 16 -2 43 22 54 49 120 78 296 132 83 25 170 52
195 60 90 29 449 113 551 130 97 15 189 33 284 55 22 5 73 11 113 15 73 5 73
5 120 -32 26 -21 58 -51 71 -67 14 -15 30 -33 35 -40 6 -6 26 -30 45 -54 18
-23 37 -40 42 -36 5 3 9 -1 9 -8 0 -7 13 -20 29 -30 39 -22 62 -5 67 47 2 21
8 43 14 49 5 5 10 18 10 28 0 70 144 331 209 379 28 21 42 49 24 49 -5 0 -48
3 -98 5 -97 5 -275 10 -665 19 -307 6 -468 14 -545 27 -33 5 -67 10 -76 10
-16 0 -16 9 5 98 7 31 49 91 109 158 39 42 46 54 33 59 -9 3 -27 3 -41 0 -13
-3 -111 -6 -217 -6 -156 -1 -213 3 -298 20 -116 23 -208 62 -219 92 -7 19 -8
20 -25 3z m177 -117 c62 -13 71 -22 31 -32 -14 -4 -45 -15 -68 -26 -47 -22
-117 -50 -122 -50 -2 0 -4 38 -4 85 l0 84 53 -24 c28 -14 78 -30 110 -37z
m526 -83 c-44 -55 -44 -55 -50 -28 -13 67 -8 78 41 83 25 3 47 4 49 3 2 -1
-16 -27 -40 -58z m-81 0 c0 -27 -6 -115 -14 -195 -9 -80 -15 -165 -14 -190 2
-25 2 -59 2 -77 -1 -36 36 -83 65 -83 17 1 17 1 -1 15 -11 8 -20 30 -22 52 -2
21 -6 54 -9 74 -6 34 -5 36 32 47 21 6 83 14 138 18 55 3 103 8 106 10 4 2
103 3 220 3 425 -1 519 1 619 15 25 4 51 3 58 -2 18 -12 17 -109 -1 -190 -20
-88 -45 -217 -52 -266 -2 -21 -6 -40 -8 -42 -9 -9 -45 29 -65 69 -19 38 -22
62 -23 152 0 98 2 109 22 131 16 17 20 27 12 35 -8 8 -22 3 -51 -15 -69 -43
-163 -77 -212 -75 -25 1 -88 -1 -140 -5 -52 -3 -171 -8 -264 -11 -92 -3 -171
-7 -175 -9 -3 -2 -40 -7 -81 -10 -41 -4 -129 -13 -195 -21 -134 -15 -213 -22
-330 -30 -44 -3 -92 -8 -107 -10 -23 -4 -29 0 -34 21 -4 14 -4 49 0 77 20 151
37 312 42 392 3 50 10 97 15 106 4 9 30 24 56 34 26 10 52 21 57 26 5 5 86 7
181 6 l171 -2 2 -50z m-502 -55 c-3 -22 -9 -68 -12 -103 -3 -34 -8 -87 -12
-117 -7 -53 -8 -55 -38 -56 -28 0 -33 4 -42 35 -22 77 -24 117 -7 135 16 16
12 41 -6 31 -14 -9 -11 33 4 45 12 11 108 68 116 69 2 1 1 -17 -3 -39z m-321
-29 c-3 -10 -7 -45 -9 -77 -7 -107 -25 -121 -54 -42 -23 63 -21 75 25 111 43
32 46 33 38 8z m-179 -17 c-3 -9 -6 -61 -6 -116 0 -112 -11 -123 -42 -43 -13
33 -17 61 -13 83 6 31 4 33 -14 27 -39 -12 -22 20 22 42 51 26 61 28 53 7z
m-205 -41 c0 -27 2 -56 4 -65 16 -86 16 -98 2 -98 -18 0 -60 81 -62 119 -1 14
-5 33 -8 41 -5 10 2 21 20 32 40 25 43 23 44 -29z m554 7 c-2 -22 -14 -58 -26
-80 -22 -39 -22 -39 -34 -16 -28 53 -25 69 17 104 22 17 42 32 44 32 2 0 2
-18 -1 -40z m-86 -89 c21 -43 22 -52 10 -77 -10 -20 -21 -28 -39 -28 -22 0
-26 5 -33 47 -5 35 -4 55 8 77 9 17 19 30 24 30 4 0 18 -22 30 -49z m-158 -22
c18 -36 19 -45 8 -65 -9 -18 -21 -24 -44 -24 -17 0 -34 3 -37 6 -8 7 34 124
44 124 4 0 17 -19 29 -41z m262 -51 c4 -28 2 -38 -7 -38 -29 0 -38 26 -25 72
13 47 20 39 32 -34z m-413 -24 c0 -2 -18 -4 -41 -4 -37 0 -40 2 -34 23 4 12
14 33 22 46 l15 23 19 -42 c10 -23 19 -44 19 -46z m1205 57 c44 -5 134 -10
200 -11 219 -3 648 -20 654 -26 5 -4 10 -4 -534 -9 -203 -2 -391 -7 -417 -13
l-48 -9 0 44 0 44 33 -6 c17 -3 68 -9 112 -14z m-1450 -51 c17 -11 37 -20 46
-20 27 0 34 -49 11 -79 -19 -26 -99 -77 -108 -69 -2 3 0 35 5 71 5 36 8 77 7
91 -4 31 0 32 39 6z m2358 13 c-7 -2 -19 -2 -25 0 -7 3 -2 5 12 5 14 0 19 -2
13 -5z m-1888 -13 c3 -5 1 -10 -4 -10 -6 0 -11 5 -11 10 0 6 2 10 4 10 3 0 8
-4 11 -10z m2140 -62 c-25 -35 -62 -94 -82 -133 -42 -80 -53 -70 -29 25 9 34
16 86 16 116 l0 54 71 0 70 0 -46 -62z m-2367 7 c6 -6 -45 -25 -72 -28 -15 -1
-22 5 -24 20 -3 20 0 21 44 17 27 -2 50 -7 52 -9z m514 -2 c3 -15 -20 -120
-29 -132 -1 -2 -9 2 -18 9 -11 9 -12 16 -5 25 6 7 8 19 6 26 -15 49 -15 78 2
82 33 9 41 7 44 -10z m-246 -21 c-17 -16 -18 -16 -5 5 7 12 15 20 18 17 3 -2
-3 -12 -13 -22z m133 -30 c10 -29 32 -70 49 -92 27 -32 31 -44 25 -72 -8 -41
-17 -48 -70 -48 -41 0 -42 1 -67 54 l-26 54 17 82 c15 68 20 80 36 78 12 -2
24 -20 36 -56z m25 46 c3 -7 7 -29 10 -48 5 -34 5 -34 -8 -10 -22 40 -29 70
-16 70 6 0 12 -6 14 -12z m-200 -32 c14 -33 13 -37 -23 -107 -46 -88 -67 -102
-57 -38 4 24 15 67 26 94 10 28 21 58 24 68 8 25 14 21 30 -17z m96 32 c-1 -2
-7 -25 -14 -53 -12 -46 -14 -48 -25 -27 -10 18 -9 28 6 52 9 17 21 30 25 30 4
0 8 -1 8 -2z m-470 -38 c0 -5 -5 -10 -11 -10 -5 0 -7 5 -4 10 3 6 8 10 11 10
2 0 4 -4 4 -10z m170 7 c0 -10 -40 -118 -53 -143 -14 -27 -15 -27 -25 -7 -6
11 -8 31 -4 44 11 39 56 109 70 109 6 0 12 -2 12 -3z m-71 -47 c-12 -22 -23
-39 -24 -37 -1 1 -5 14 -9 30 -5 23 -2 29 16 37 38 15 40 12 17 -30z m135 25
c3 -8 1 -15 -4 -15 -6 0 -10 7 -10 15 0 8 2 15 4 15 2 0 6 -7 10 -15z m-44
-105 c-25 -54 -60 -94 -60 -69 0 8 12 52 27 98 l27 85 15 -32 c13 -30 13 -35
-9 -82z m90 61 c0 -36 -10 -45 -25 -24 -9 12 -10 23 -2 40 13 28 27 20 27 -16z
m-333 -55 c-15 -31 -29 -67 -33 -80 -8 -33 -24 -44 -52 -37 -23 6 -23 8 29 86
49 77 69 99 78 90 2 -2 -8 -29 -22 -59z m467 25 c14 -26 14 -35 0 -80 -8 -28
-17 -51 -20 -51 -3 0 -18 7 -34 15 l-29 15 32 65 c18 35 33 65 34 65 1 0 9
-13 17 -29z m1780 -3 c-4 -18 -7 -62 -5 -97 2 -71 -1 -71 -59 -11 -14 15 -35
32 -45 38 -20 11 -20 11 1 12 24 0 44 18 44 40 0 11 46 44 68 49 2 1 0 -14 -4
-31z m-1946 -33 c14 -30 15 -52 4 -59 -14 -9 -52 6 -52 20 0 18 22 64 30 64 4
0 12 -11 18 -25z m1517 -31 c-88 -22 -102 -25 -195 -39 -25 -4 -65 -11 -90
-16 -25 -5 -54 -11 -65 -13 -130 -25 -313 -70 -450 -111 -44 -13 -93 -26 -110
-29 -60 -13 -222 -69 -293 -102 l-74 -33 7 38 c4 24 2 42 -4 46 -6 3 -11 40
-11 84 l0 79 31 6 c57 11 109 7 109 -8 0 -8 4 -17 9 -20 17 -11 41 6 41 28 0
17 2 18 10 6 8 -13 11 -13 22 2 13 16 72 26 263 43 209 19 256 24 267 31 7 5
26 7 43 6 16 -2 64 2 105 8 41 6 155 11 253 10 102 0 177 4 177 9 0 5 10 6 23
3 16 -4 -3 -12 -68 -28z m-1699 -41 c-11 -11 -19 6 -11 24 8 17 8 17 12 0 3
-10 2 -21 -1 -24z m390 22 c-2 -16 -26 -44 -26 -31 0 9 19 46 24 46 3 0 3 -7
2 -15z"/>
<path d="M3260 1105 c-24 -9 -39 -10 -48 -3 -8 8 -29 6 -66 -6 -30 -10 -85
-18 -122 -19 -65 -2 -97 -19 -56 -29 15 -4 21 -22 30 -89 21 -147 21 -189 0
-416 -11 -122 -18 -229 -14 -238 10 -27 27 -16 25 18 -3 59 33 392 44 405 6 8
19 45 28 83 10 37 27 88 37 111 l20 43 -5 -125 c-5 -166 -11 -249 -23 -378
-14 -149 -13 -225 3 -220 6 3 13 20 14 39 2 19 7 70 13 114 5 44 12 126 15
181 4 87 11 120 49 230 50 146 84 231 118 297 11 21 -9 21 -62 2z m4 -63 c-9
-20 -20 -48 -24 -62 -24 -73 -79 -214 -80 -205 -6 71 1 259 11 271 11 14 55
29 91 31 17 2 17 0 2 -35z m-137 -14 c-3 -18 -22 -82 -43 -143 l-39 -109 -7
79 c-10 112 -15 148 -22 166 -6 12 2 18 36 26 76 18 81 17 75 -19z"/>
</g>
</svg>
