<?xml version="1.0" standalone="no"?>
<!DOCTYPE svg PUBLIC "-//W3C//DTD SVG 20010904//EN"
 "http://www.w3.org/TR/2001/REC-SVG-20010904/DTD/svg10.dtd">
<svg version="1.0" xmlns="http://www.w3.org/2000/svg"
 width="212.000000pt" height="177.000000pt" viewBox="0 0 212.000000 177.000000"
 preserveAspectRatio="xMidYMid meet">
<metadata>
Created by potrace 1.16, written by Peter Selinger 2001-2019
</metadata>
<g transform="translate(0.000000,177.000000) scale(0.100000,-0.100000)"
fill="#000000" stroke="none">
<path d="M116 1679 c-3 -17 -6 -61 -6 -97 l0 -65 38 8 c52 12 241 13 347 3 50
-5 101 -10 115 -11 14 -1 24 -6 23 -10 -3 -12 -179 -127 -194 -127 -40 1 -145
50 -161 76 -4 7 -19 15 -33 18 -14 4 -25 13 -25 21 0 16 -18 19 -38 6 -7 -4
-20 -30 -28 -56 -8 -27 -21 -58 -28 -70 -8 -12 -11 -26 -8 -31 4 -5 58 -10
120 -10 62 -1 116 -5 120 -9 9 -9 -78 -69 -180 -122 -42 -22 -42 -30 6 -53 24
-11 50 -28 56 -36 7 -7 23 -14 36 -14 25 0 45 21 26 28 -29 9 -10 36 90 129
l56 52 54 -15 c29 -9 63 -22 76 -28 22 -12 22 -13 -30 -47 -62 -41 -199 -117
-285 -159 -68 -33 -83 -47 -58 -56 20 -8 75 -62 75 -74 0 -29 31 -13 98 52 42
41 95 87 116 104 22 16 53 41 69 56 16 14 36 24 43 21 8 -3 35 -47 60 -99 26
-51 55 -101 65 -110 11 -9 19 -23 19 -29 0 -7 9 -23 19 -37 11 -14 34 -51 52
-84 18 -32 38 -63 46 -67 17 -10 44 -74 45 -108 1 -14 -6 -46 -15 -70 -22 -61
-28 -107 -16 -114 5 -4 38 0 72 9 121 29 397 22 514 -13 l71 -22 -21 -37 c-11
-20 -39 -61 -62 -91 -22 -29 -43 -59 -46 -65 -43 -82 -45 -94 -15 -83 8 3 24
23 35 44 11 21 88 108 173 195 128 131 163 161 215 185 35 15 61 32 60 38 -2
5 -21 13 -43 17 -21 3 -68 18 -104 31 -114 43 -213 75 -290 92 -41 10 -89 24
-105 32 -17 7 -39 11 -48 7 -20 -7 -45 44 -70 146 -19 78 -13 239 7 198 17
-34 45 -33 139 6 47 19 145 51 218 70 134 35 287 86 323 107 11 6 40 14 65 18
38 5 47 10 49 29 2 12 8 22 13 22 5 0 9 6 9 13 0 9 -32 12 -123 14 -67 0 -135
6 -150 12 -16 6 -61 11 -100 11 -40 0 -117 7 -172 15 -55 9 -134 20 -176 26
-42 5 -114 21 -160 34 -45 14 -117 27 -158 30 -95 7 -142 16 -209 44 -59 24
-86 27 -80 9 4 -12 15 -19 58 -36 14 -5 36 -14 50 -20 41 -17 81 -24 160 -28
41 -3 91 -8 110 -13 32 -8 30 -9 -25 -9 -33 -1 -105 3 -160 7 -76 7 -105 6
-120 -4 -12 -7 -40 -15 -64 -18 l-43 -5 6 37 c3 20 9 53 12 74 5 28 3 37 -8
37 -19 0 -38 -20 -38 -41 0 -10 -4 -20 -9 -24 -15 -8 -100 13 -156 40 -27 13
-108 35 -179 50 -139 28 -151 32 -151 55 0 8 -7 16 -16 18 -11 2 -18 -7 -23
-29z m162 -70 c53 -12 117 -27 142 -35 l45 -13 -50 6 c-27 3 -58 7 -68 9 -37
6 -113 6 -154 -1 -44 -8 -47 -6 -37 33 8 27 3 27 122 1z m366 -195 c7 -3 43 2
80 10 37 9 82 16 101 16 19 0 37 5 41 12 10 15 346 4 469 -16 50 -9 133 -18
185 -21 52 -4 113 -11 135 -16 50 -13 102 -18 235 -27 l105 -7 -125 -23 c-69
-13 -172 -34 -230 -47 -58 -14 -134 -30 -170 -36 -36 -6 -100 -22 -143 -36
-63 -21 -82 -24 -102 -15 -29 13 -40 1 -25 -28 10 -18 8 -20 -19 -20 -16 0
-32 -4 -36 -9 -3 -5 -19 -13 -36 -16 -24 -5 -30 -11 -26 -26 3 -10 1 -19 -4
-19 -5 0 -9 -7 -9 -15 0 -8 6 -15 14 -15 14 0 86 -111 105 -163 6 -15 21 -48
33 -75 15 -32 21 -63 20 -99 -1 -44 1 -53 18 -58 11 -4 30 -3 41 0 22 7 193
-9 307 -29 l62 -11 -50 -80 c-27 -43 -53 -82 -57 -86 -9 -8 -289 42 -373 66
-30 9 -75 21 -100 26 -42 10 -98 26 -127 36 -7 3 -13 -1 -13 -10 0 -15 70 -46
110 -48 21 -1 22 -2 5 -6 -11 -3 -22 -9 -25 -13 -5 -8 -122 -30 -129 -25 -1 2
1 10 5 17 5 7 7 21 6 31 -2 9 6 30 17 46 l20 28 -33 79 c-46 109 -68 154 -77
154 -5 0 -24 32 -44 72 -41 83 -67 204 -64 301 1 37 -1 70 -4 74 -4 3 -18 1
-32 -5 -37 -17 -63 -15 -93 7 -15 10 -38 22 -52 26 -14 4 -32 14 -41 22 -15
12 -10 20 45 74 59 60 61 61 64 35 2 -15 9 -29 16 -32z m-388 -32 c-56 -4 -61
-1 -46 27 l11 21 42 -22 42 -23 -49 -3z m70 -156 c-63 -60 -70 -64 -93 -53
l-25 11 28 20 c25 19 141 82 154 85 3 0 -26 -28 -64 -63z m1399 44 c-11 -5
-33 -9 -50 -9 -26 0 -27 2 -10 9 11 5 34 9 50 9 26 0 27 -2 10 -9z m-85 -13
c0 -2 -44 -16 -97 -32 -54 -15 -118 -36 -143 -47 -25 -12 -63 -27 -85 -35 -36
-12 -41 -12 -52 4 -7 9 -10 20 -6 24 17 15 144 48 243 64 57 9 106 18 109 21
5 5 31 6 31 1z m-935 -84 c4 -32 10 -71 15 -88 5 -16 11 -48 14 -70 5 -37 4
-35 -29 30 -19 39 -35 75 -35 82 0 6 -12 25 -26 42 l-26 31 34 15 c18 8 36 14
40 15 4 0 9 -26 13 -57z m-205 -44 c-25 -22 -61 -52 -80 -66 -19 -15 -52 -42
-72 -62 l-37 -34 -20 24 c-28 33 -26 37 17 57 20 10 48 25 62 34 27 18 162 87
170 87 3 0 -15 -18 -40 -40z m670 -70 c0 -68 -11 -70 -33 -5 -15 42 -14 44 6
54 12 6 23 11 25 11 1 1 2 -26 2 -60z m229 -335 c107 -32 116 -36 66 -28 -22
4 -71 8 -110 10 -38 2 -71 3 -73 4 -6 0 19 40 25 40 4 0 45 -12 92 -26z m376
-125 c6 -6 0 -15 -15 -26 -14 -9 -68 -58 -120 -109 -52 -51 -96 -92 -97 -90
-4 4 44 84 107 179 44 67 46 68 80 62 19 -4 39 -11 45 -16z"/>
</g>
</svg>
