<?xml version="1.0" standalone="no"?>
<!DOCTYPE svg PUBLIC "-//W3C//DTD SVG 20010904//EN"
 "http://www.w3.org/TR/2001/REC-SVG-20010904/DTD/svg10.dtd">
<svg version="1.0" xmlns="http://www.w3.org/2000/svg"
 width="163.000000pt" height="101.000000pt" viewBox="0 0 163.000000 101.000000"
 preserveAspectRatio="xMidYMid meet">
<metadata>
Created by potrace 1.16, written by Peter Selinger 2001-2019
</metadata>
<g transform="translate(0.000000,101.000000) scale(0.100000,-0.100000)"
fill="#000000" stroke="none">
<path d="M710 880 c-69 -54 -470 -230 -525 -230 -20 0 -19 -29 1 -37 14 -5
104 26 212 74 19 8 36 12 39 9 3 -3 -2 -31 -12 -62 l-18 -56 -76 6 c-82 7
-111 2 -111 -20 0 -21 40 -38 105 -44 42 -3 59 -9 57 -18 -1 -7 -3 -24 -4 -39
-2 -14 -8 -27 -14 -30 -18 -7 -69 23 -111 63 -41 40 -76 43 -81 7 -4 -30 44
-74 117 -109 31 -14 79 -48 107 -74 28 -26 76 -60 107 -74 31 -15 65 -38 76
-52 34 -44 112 -19 83 27 -16 25 -15 40 4 106 l16 55 169 -4 c101 -2 173 -8
179 -14 8 -8 7 -30 -3 -78 -15 -74 -7 -101 29 -94 15 3 19 12 20 43 1 54 13
113 24 120 5 3 20 -1 32 -9 13 -8 59 -29 103 -46 44 -17 87 -38 95 -45 8 -7
27 -17 43 -20 15 -4 27 -13 27 -20 0 -19 20 -29 32 -17 6 6 12 30 15 54 2 24
8 61 13 83 16 63 31 175 26 184 -3 4 -1 23 4 42 10 38 14 104 12 197 l-2 63
-32 -6 c-18 -3 -44 -7 -58 -8 -14 -2 -53 -20 -87 -40 -33 -20 -63 -37 -66 -37
-3 0 -36 -19 -73 -42 -75 -45 -68 -44 -264 -32 -58 3 -114 11 -125 17 -11 6
-28 10 -37 8 -23 -3 -24 33 -2 125 21 94 8 116 -46 74z m-28 -107 c-6 -26 -14
-77 -17 -111 -9 -91 -19 -112 -53 -112 -15 0 -36 6 -46 13 -17 13 -17 16 -1
83 10 38 22 74 27 81 5 7 7 17 3 23 -13 21 -31 -8 -55 -87 -28 -94 -39 -108
-75 -99 -25 6 -27 10 -20 44 18 102 20 105 120 155 51 26 98 47 104 47 6 0 11
5 11 12 0 6 3 9 6 5 3 -3 2 -28 -4 -54z m778 -77 c0 -41 -4 -86 -10 -101 -5
-14 -12 -45 -15 -68 -11 -107 -40 -247 -51 -247 -6 0 -19 9 -28 19 -10 11 -31
23 -47 26 -31 7 -113 49 -139 71 -8 7 -27 16 -42 19 -16 4 -28 10 -28 14 0 17
45 178 53 188 16 22 181 113 204 113 13 0 37 9 55 20 18 11 36 20 41 20 4 0 7
-33 7 -74z m-519 -91 c85 -4 156 -9 158 -11 2 -2 -9 -42 -25 -90 l-28 -87 -74
7 c-41 3 -120 6 -175 6 l-100 0 8 38 c4 20 8 56 10 80 6 72 12 81 44 72 15 -4
97 -11 182 -15z m-462 -111 c21 -15 22 -22 17 -69 -6 -58 -14 -85 -26 -85 -5
0 -22 19 -38 43 -27 41 -28 44 -14 85 15 46 26 50 61 26z m147 2 c19 -6 20
-11 14 -44 -4 -20 -12 -53 -18 -72 -6 -19 -15 -48 -20 -65 -23 -80 -68 8 -58
114 3 36 11 68 18 73 13 7 18 7 64 -6z"/>
</g>
</svg>
