<?xml version="1.0" standalone="no"?>
<!DOCTYPE svg PUBLIC "-//W3C//DTD SVG 20010904//EN"
 "http://www.w3.org/TR/2001/REC-SVG-20010904/DTD/svg10.dtd">
<svg version="1.0" xmlns="http://www.w3.org/2000/svg"
 width="164.000000pt" height="122.000000pt" viewBox="0 0 164.000000 122.000000"
 preserveAspectRatio="xMidYMid meet">
<metadata>
Created by potrace 1.16, written by Peter Selinger 2001-2019
</metadata>
<g transform="translate(0.000000,122.000000) scale(0.100000,-0.100000)"
fill="#000000" stroke="none">
<path d="M912 1143 c-5 -16 -8 -41 -5 -54 4 -22 -3 -29 -61 -58 -36 -18 -68
-37 -72 -42 -7 -13 97 -150 109 -142 6 4 7 1 2 -6 -7 -13 22 -91 34 -91 4 0
15 -17 25 -37 10 -21 22 -46 27 -55 7 -13 1 -24 -27 -45 -19 -15 -66 -58 -105
-95 -38 -37 -87 -80 -108 -97 l-38 -30 -12 22 c-10 18 -9 30 4 59 19 46 19 58
1 58 -8 0 -20 -16 -26 -35 -12 -37 -17 -40 -39 -26 -12 8 -12 12 -2 25 8 9 20
16 27 16 8 0 14 6 14 14 0 20 49 76 67 76 8 0 29 -11 46 -24 46 -33 57 -39 57
-26 0 6 -18 28 -41 48 l-41 38 40 36 c36 33 43 48 21 48 -5 0 -24 -14 -44 -31
-44 -39 -52 -34 -105 72 l-39 78 38 18 38 19 -4 -65 c-4 -60 7 -104 22 -90 3
3 7 39 10 79 2 40 9 78 15 84 12 12 13 43 2 50 -5 3 -31 -10 -58 -28 -27 -18
-60 -36 -72 -41 -22 -6 -24 -5 -19 27 3 18 8 41 12 51 14 33 -33 18 -85 -28
-60 -53 -72 -56 -60 -14 20 70 -14 77 -72 15 -22 -25 -53 -49 -68 -55 -26 -8
-29 -7 -35 16 -3 14 -1 31 4 36 16 16 13 37 -6 37 -29 0 -173 -116 -173 -139
0 -6 9 -11 19 -11 18 0 81 -61 81 -79 0 -5 12 -20 27 -35 14 -14 24 -28 22
-29 -71 -53 -152 -107 -183 -122 -41 -20 -57 -53 -23 -47 10 2 41 -14 70 -35
39 -29 61 -38 92 -38 37 0 40 -2 37 -27 -3 -30 15 -48 24 -24 5 12 11 13 24 6
26 -14 36 6 15 30 -16 17 -15 21 10 64 15 25 31 43 36 40 14 -8 11 -31 -6 -38
-24 -9 -17 -21 17 -31 23 -7 38 -21 53 -51 12 -27 28 -44 43 -47 26 -5 38 8
24 26 -14 18 -21 56 -12 62 4 3 17 25 29 50 12 25 26 45 32 45 6 0 8 11 4 28
-4 20 0 34 15 50 26 28 36 28 44 0 12 -48 6 -77 -19 -94 -34 -22 -31 -36 11
-59 34 -18 36 -21 30 -57 -6 -34 -2 -42 34 -79 37 -39 40 -45 40 -100 0 -55 1
-59 24 -59 13 0 34 8 47 19 52 40 86 50 172 52 46 1 90 -1 95 -5 10 -6 71 -11
216 -19 41 -3 53 21 40 80 -14 72 -6 144 17 150 23 6 24 12 2 28 -20 15 -26
45 -11 62 9 11 15 78 21 225 1 20 5 39 9 43 4 4 4 13 2 20 -6 15 58 136 97
185 16 19 44 55 64 78 19 24 33 47 30 52 -3 4 -62 8 -132 8 -110 0 -237 11
-424 38 -45 6 -47 5 -57 -23z m168 -32 c44 -7 44 -8 15 -15 -16 -4 -48 -14
-69 -22 -37 -13 -41 -12 -58 6 -10 10 -18 24 -18 30 0 11 64 12 130 1z m380
-22 c0 -34 -109 -177 -124 -162 -3 4 -6 39 -6 78 l0 72 53 10 c72 14 77 14 77
2z m-180 -38 l0 -39 -107 5 c-134 7 -164 24 -82 47 79 22 89 24 142 25 l47 1
0 -39z m-371 -58 c-1 -16 -4 -41 -8 -57 l-6 -29 -29 37 c-15 20 -26 39 -25 40
23 17 55 36 61 36 5 0 7 -12 7 -27z m79 -35 c-5 -24 -14 -52 -20 -62 -6 -11
-10 -37 -10 -58 1 -40 -17 -65 -19 -26 -2 27 -2 21 5 83 7 58 15 85 28 102 18
23 26 4 16 -39z m64 9 c-12 -6 -25 -7 -29 -3 -11 10 18 25 35 18 13 -4 11 -8
-6 -15z m226 -14 c-3 -32 -10 -32 -131 -18 l-68 7 28 19 c20 12 49 18 101 18
l73 1 -3 -27z m-861 -113 c-6 -38 -13 -70 -16 -70 -3 1 -17 17 -29 38 l-24 36
36 33 c20 18 37 33 39 33 2 0 -1 -31 -6 -70z m135 10 c-2 -27 -7 -50 -10 -50
-3 0 -16 9 -28 21 -23 21 -44 19 -44 -5 0 -8 -7 -19 -15 -26 -12 -10 -15 -10
-15 3 0 13 96 106 110 107 3 0 3 -22 2 -50z m480 20 c-38 -34 -43 -36 -37 -15
3 8 7 22 10 30 2 9 16 15 32 15 l27 0 -32 -30z m234 -57 c-5 -12 -17 -14 -61
-8 -30 3 -80 6 -110 6 -30 0 -55 4 -55 8 0 4 13 19 28 34 24 23 40 28 112 34
l85 8 3 -34 c2 -18 1 -40 -2 -48z m-1029 -1 l-13 -42 -27 27 c-28 30 -26 39
13 66 33 23 43 4 27 -51z m112 -37 l23 -34 -28 -25 c-66 -58 -107 -7 -58 72
20 31 35 28 63 -13z m271 -29 c15 -56 5 -76 -22 -41 -16 21 -18 28 -7 41 10
13 10 17 0 24 -8 4 -10 13 -7 19 12 18 22 5 36 -43z m-108 9 c10 -22 9 -29 -9
-47 -29 -29 -53 -17 -53 26 0 50 42 64 62 21z m538 18 c-8 -3 -27 -15 -42 -25
l-28 -19 0 25 c0 24 3 26 43 25 23 0 35 -3 27 -6z m212 -32 c3 -32 0 -41 -15
-45 -11 -2 -29 -1 -41 3 -20 8 -96 14 -158 14 -80 0 63 64 148 66 l62 2 4 -40z
m-847 -51 c17 -19 17 -21 -20 -66 l-38 -46 -23 43 -22 44 26 22 c34 28 54 29
77 3z m147 -7 c10 -9 18 -21 17 -27 0 -11 -58 -62 -62 -55 -1 2 -11 14 -21 27
-19 22 -19 22 4 47 28 29 37 31 62 8z m561 -7 c32 10 17 -4 -44 -41 -61 -38
-83 -39 -61 -5 7 11 12 28 12 39 0 17 4 18 38 10 20 -4 45 -6 55 -3z m-432
-65 c-5 -9 -19 -25 -30 -35 -21 -19 -21 -19 -22 0 0 10 -3 32 -5 48 -7 39 14
51 43 24 16 -15 20 -25 14 -37z m573 25 c3 -17 8 -40 11 -51 6 -20 2 -21 -114
-23 -66 -1 -123 3 -126 8 -3 5 18 21 47 36 29 15 62 34 74 43 11 9 39 17 61
17 38 1 41 -1 47 -30z m-962 -32 c11 -25 16 -50 11 -54 -26 -24 -106 -80 -114
-80 -15 0 -10 38 7 65 9 14 14 35 11 47 -4 18 2 28 26 45 18 11 33 22 35 22 2
1 12 -20 24 -45z m178 -1 l23 -27 -43 -38 c-50 -45 -66 -47 -74 -12 -7 26 -2
36 38 82 25 28 27 28 56 -5z m490 -12 c0 -5 -7 -12 -16 -15 -14 -5 -15 -4 -4
9 14 17 20 19 20 6z m-797 -56 c-13 -39 -18 -43 -34 -34 -26 13 -24 26 9 54
38 34 41 31 25 -20z m311 -47 c-15 -29 -27 -54 -29 -56 -1 -1 -12 6 -25 16
l-23 18 49 37 c27 20 50 37 52 37 1 0 -10 -24 -24 -52z m521 43 l30 -7 -36
-16 c-64 -28 -76 -30 -83 -12 -14 37 21 50 89 35z m247 1 c17 -7 17 -9 -1 -38
l-19 -31 -128 0 -128 0 60 31 c40 20 80 32 124 37 36 3 67 6 70 7 3 0 13 -3
22 -6z m-946 -53 c-23 -33 -30 -38 -42 -28 -8 7 -13 16 -12 20 4 10 72 57 77
53 2 -2 -8 -22 -23 -45z m512 -31 c-8 -13 -27 -44 -42 -70 -25 -44 -29 -46
-52 -36 -13 6 -23 15 -22 20 3 7 119 106 127 107 2 1 -3 -9 -11 -21z m219 -24
c-2 -2 -28 -11 -58 -20 -103 -29 -99 -29 -99 0 0 25 2 26 51 21 28 -2 60 0 72
4 20 8 44 4 34 -5z m170 -8 c11 -10 -28 -75 -48 -81 -24 -8 -187 13 -194 25
-8 14 157 67 199 64 21 -2 41 -5 43 -8z m-360 -28 c1 -57 1 -58 46 -59 23 0
51 -4 62 -9 17 -7 15 -9 -11 -9 -40 -1 -94 -20 -94 -33 0 -7 -5 -6 -14 1 -17
14 -26 89 -14 114 12 24 25 21 25 -5z m400 -72 c1 -69 -5 -77 -54 -68 -21 4
-21 4 8 53 16 28 29 56 29 64 0 8 3 15 8 15 4 0 8 -29 9 -64z m-104 -47 c-19
-28 -31 -38 -42 -33 -15 6 -129 21 -191 25 -19 1 -13 5 23 16 27 8 50 20 53
26 3 8 32 11 94 9 l89 -3 -26 -40z m-363 -30 c0 -24 -23 -21 -28 4 -2 10 3 17
12 17 10 0 16 -9 16 -21z"/>
</g>
</svg>
