<?xml version="1.0" standalone="no"?>
<!DOCTYPE svg PUBLIC "-//W3C//DTD SVG 20010904//EN"
 "http://www.w3.org/TR/2001/REC-SVG-20010904/DTD/svg10.dtd">
<svg version="1.0" xmlns="http://www.w3.org/2000/svg"
 width="178.000000pt" height="166.000000pt" viewBox="0 0 178.000000 166.000000"
 preserveAspectRatio="xMidYMid meet">
<metadata>
Created by potrace 1.16, written by Peter Selinger 2001-2019
</metadata>
<g transform="translate(0.000000,166.000000) scale(0.100000,-0.100000)"
fill="#000000" stroke="none">
<path d="M309 1416 c-149 -159 -151 -168 -64 -261 36 -38 65 -73 65 -77 0 -5
5 -8 11 -8 6 0 43 -30 82 -67 117 -112 122 -117 160 -143 20 -14 37 -31 37
-38 0 -24 -170 -261 -233 -325 -15 -14 -16 -21 -6 -33 6 -8 19 -14 29 -14 9 0
25 -9 36 -21 10 -12 39 -33 64 -47 25 -14 66 -42 92 -64 50 -41 108 -53 108
-23 0 17 61 104 123 175 21 25 45 57 53 73 l15 27 37 -19 c20 -11 71 -52 112
-93 102 -99 228 -202 251 -206 13 -2 25 7 37 29 30 56 165 230 186 241 31 16
31 16 13 36 -8 9 -39 43 -67 74 -29 32 -77 71 -106 88 -30 17 -54 37 -54 45 0
8 -5 15 -11 15 -15 0 -129 89 -136 106 -10 27 200 329 248 354 28 16 24 26
-32 85 -61 64 -169 129 -204 122 -13 -2 -24 -1 -23 2 4 39 -31 12 -116 -89
-41 -49 -91 -113 -109 -142 -19 -29 -45 -64 -57 -76 l-22 -24 -47 45 c-25 24
-81 70 -123 101 -43 31 -78 62 -78 69 0 6 -31 44 -67 82 -37 39 -66 73 -65 78
1 4 -13 6 -30 6 -28 -1 -46 -15 -109 -83z m142 8 c11 -14 10 -18 -6 -26 -11
-6 -58 -49 -105 -95 -81 -81 -115 -98 -103 -53 5 20 116 149 152 177 22 17 46
16 62 -3z m733 -26 c28 -17 79 -54 114 -82 l63 -50 -26 -25 c-18 -19 -28 -23
-33 -14 -4 7 -37 31 -72 54 -36 23 -74 52 -86 64 -11 12 -29 27 -39 33 -19 10
-19 11 -1 31 11 12 21 21 24 21 3 0 28 -14 56 -32z m-674 -39 l25 -21 -30 -21
c-48 -35 -80 -69 -110 -117 -52 -82 -55 -84 -82 -58 -13 12 -23 27 -23 33 0
21 165 205 184 205 6 -1 22 -10 36 -21z m595 -38 c18 -15 60 -46 93 -67 66
-42 79 -66 56 -101 -13 -20 -18 -22 -37 -12 -12 7 -28 18 -35 26 -8 7 -29 25
-48 39 -19 15 -51 43 -72 64 -35 35 -37 39 -22 59 20 27 26 26 65 -8z m-526
-40 l24 -18 -54 -59 c-30 -33 -72 -81 -94 -107 l-41 -47 -22 20 -23 21 31 42
c16 22 30 46 30 52 0 17 94 115 111 115 8 0 25 -9 38 -19z m447 -32 c10 -12
51 -46 91 -76 81 -61 93 -82 66 -117 l-18 -24 -53 49 c-29 26 -77 63 -107 81
-30 18 -55 37 -55 41 0 13 40 67 49 67 4 0 16 -10 27 -21z m-361 -34 c23 -19
26 -25 13 -25 -24 0 -82 -54 -148 -138 -41 -53 -58 -68 -67 -60 -19 15 -16 35
10 72 25 37 149 176 157 176 3 -1 19 -12 35 -25z m104 -90 c40 -43 44 -33 -62
-169 -39 -50 -72 -92 -73 -94 -6 -9 -44 25 -44 38 0 8 36 62 80 120 45 59 76
108 71 113 -13 13 -41 -9 -94 -77 -100 -126 -105 -132 -122 -116 -13 13 -10
21 20 60 20 25 43 56 53 69 9 13 37 43 60 67 49 49 55 49 111 -11z m228 -7
c63 -40 133 -111 133 -132 -1 -6 -11 -23 -23 -38 l-22 -26 -75 53 c-41 29 -92
67 -112 85 l-38 32 26 34 c15 19 31 34 37 34 6 0 39 -19 74 -42z m-101 -103
c27 -19 72 -50 101 -70 29 -19 55 -39 58 -44 3 -5 -10 -29 -29 -53 -19 -23
-50 -65 -69 -93 -20 -27 -49 -63 -65 -79 l-31 -28 -28 22 c-42 32 -163 151
-163 159 0 8 118 170 148 204 20 23 22 22 78 -18z m238 -178 c17 -13 16 -15
-12 -39 -35 -29 -158 -188 -163 -210 -3 -12 -9 -10 -28 8 l-24 23 42 38 c24
21 50 51 58 67 24 47 86 126 98 126 6 0 19 -6 29 -13z m72 -56 l24 -19 -24
-20 c-25 -19 -133 -159 -155 -200 -14 -27 -26 -27 -58 -2 -14 11 -21 20 -14
20 6 0 21 15 33 34 59 87 154 206 166 206 2 0 15 -9 28 -19z m-456 -92 c52
-49 86 -86 75 -80 -22 10 -195 158 -195 166 0 20 39 -8 120 -86z m-42 -34 c88
-68 103 -87 95 -112 -7 -21 -21 -15 -71 25 -26 21 -72 54 -102 72 -30 19 -57
35 -59 37 -7 5 30 54 39 51 5 -2 49 -34 98 -73z m577 59 l24 -16 -27 -23 c-24
-20 -63 -74 -151 -208 -24 -37 -25 -37 -42 -20 -16 16 -17 22 -6 53 13 39 154
230 168 230 6 0 21 -7 34 -16z m73 -50 c29 -20 28 -26 -7 -45 -33 -19 -87 -86
-77 -96 4 -4 11 -1 16 7 7 12 10 12 16 -3 5 -15 13 -9 40 32 18 27 38 52 44
56 6 4 27 -10 48 -31 l37 -37 -25 -16 c-23 -15 -163 -195 -173 -223 -3 -9 -16
-2 -40 21 -36 34 -36 35 -15 45 11 6 20 15 19 20 -2 5 1 12 6 15 15 11 65 82
61 86 -8 8 -47 10 -47 2 0 -4 -19 -30 -41 -58 -22 -28 -37 -56 -33 -61 4 -7 1
-8 -8 -3 -38 22 -39 26 -12 68 57 92 157 237 162 237 4 0 17 -7 29 -16z m-727
-59 c94 -61 132 -100 120 -124 -18 -33 -39 -45 -56 -31 -8 7 -15 18 -15 26 0
7 -36 41 -80 74 -44 33 -80 64 -80 68 0 10 22 32 32 32 4 0 40 -20 79 -45z
m-24 -98 c18 -12 38 -33 45 -47 7 -14 18 -32 26 -42 9 -11 10 -18 2 -23 -12
-7 -83 37 -103 65 -10 12 -53 48 -106 87 -2 2 4 12 14 23 18 20 18 19 54 -11
20 -16 50 -40 68 -52z m-64 -62 c48 -41 92 -75 97 -75 15 0 12 -28 -2 -33 -7
-2 -24 3 -38 12 -14 9 -42 26 -63 36 -21 11 -58 39 -82 61 -40 38 -42 43 -27
58 9 9 19 16 22 16 3 0 45 -34 93 -75z"/>
<path d="M775 950 c-11 -17 20 -55 86 -105 68 -52 89 -63 89 -46 0 14 -146
161 -159 161 -6 0 -13 -5 -16 -10z"/>
<path d="M1385 548 c-40 -50 -120 -160 -133 -185 -7 -13 -8 -24 -3 -27 15 -10
40 4 47 26 3 10 18 34 34 51 34 40 100 142 100 157 0 19 -18 10 -45 -22z"/>
</g>
</svg>
