<?xml version="1.0" standalone="no"?>
<!DOCTYPE svg PUBLIC "-//W3C//DTD SVG 20010904//EN"
 "http://www.w3.org/TR/2001/REC-SVG-20010904/DTD/svg10.dtd">
<svg version="1.0" xmlns="http://www.w3.org/2000/svg"
 width="292.000000pt" height="128.000000pt" viewBox="0 0 292.000000 128.000000"
 preserveAspectRatio="xMidYMid meet">
<metadata>
Created by potrace 1.16, written by Peter Selinger 2001-2019
</metadata>
<g transform="translate(0.000000,128.000000) scale(0.100000,-0.100000)"
fill="#000000" stroke="none">
<path d="M444 1089 c-10 -12 -37 -30 -59 -41 -22 -12 -51 -31 -64 -44 l-24
-24 36 -52 c19 -29 38 -65 41 -81 6 -26 5 -27 -21 -21 -16 4 -48 13 -72 21
-65 22 -80 23 -107 11 -23 -11 -28 -23 -26 -58 2 -35 13 -104 18 -112 3 -4 7
-45 10 -90 2 -45 8 -86 13 -91 5 -5 22 4 39 20 45 41 96 79 91 68 -6 -16 -70
-104 -116 -162 -24 -29 -43 -54 -43 -56 0 -3 24 -7 53 -10 28 -3 66 -12 82
-21 36 -19 49 -20 73 -5 13 8 31 6 76 -10 65 -23 80 -20 72 13 -7 29 3 66 19
66 7 0 16 6 18 13 4 9 6 9 6 -1 1 -7 -4 -22 -10 -33 -13 -25 4 -49 33 -49 11
0 35 -7 53 -16 19 -9 42 -14 52 -12 23 4 30 38 8 38 -21 0 -14 36 25 135 30
75 28 75 52 5 3 -8 -7 -39 -23 -67 -32 -59 -36 -78 -14 -69 29 11 75 -5 75
-26 0 -17 5 -19 33 -13 48 11 51 15 27 39 -20 22 -20 25 -6 77 17 63 46 149
51 149 2 0 11 -22 20 -49 l16 -48 -35 -53 c-19 -29 -33 -57 -30 -62 3 -5 21
-6 40 -2 19 3 40 2 47 -4 23 -19 82 -25 96 -9 10 13 9 17 -5 25 -16 9 -16 14
-6 37 7 14 12 39 12 55 0 39 17 47 25 12 9 -41 52 -89 67 -74 9 9 6 19 -11 43
-13 17 -29 53 -36 79 -11 40 -10 55 4 96 14 44 19 49 45 49 24 0 31 -6 38 -30
17 -56 61 -144 76 -150 30 -11 30 8 -2 63 -19 31 -38 74 -44 94 -9 33 -8 38 9
43 28 9 24 19 -21 44 -34 19 -40 27 -40 54 0 18 7 45 15 60 8 15 12 34 9 42
-7 16 41 105 56 105 6 0 10 7 10 16 0 27 -24 10 -57 -42 -33 -48 -33 -48 -33
-18 0 16 5 35 11 41 7 7 9 19 5 29 -5 14 -10 13 -33 -10 -28 -29 -69 -36 -59
-11 10 26 -12 16 -38 -17 l-26 -33 6 47 c6 40 4 47 -12 50 -26 6 -83 -20 -121
-56 l-33 -30 0 62 c0 48 -3 62 -15 62 -8 0 -15 -4 -15 -8 0 -5 -24 -18 -54
-31 -53 -21 -84 -46 -74 -56 3 -3 29 6 59 20 30 14 59 25 65 25 7 0 10 -22 8
-62 -2 -35 -3 -70 -4 -79 0 -8 -6 -24 -14 -34 -13 -18 -16 -16 -39 35 -14 30
-28 63 -31 73 -9 29 -26 19 -46 -25 l-20 -43 5 52 c2 28 10 63 16 77 7 14 10
29 7 32 -5 5 -62 -24 -103 -52 -11 -8 -29 -14 -42 -14 -29 0 -37 -15 -18 -33
8 -9 11 -17 7 -19 -5 -2 -25 -26 -44 -55 l-36 -52 -7 37 c-10 53 -7 170 5 193
22 39 -14 53 -46 18z m245 -96 c-5 -21 -9 -54 -9 -73 -1 -19 -7 -48 -13 -64
l-13 -30 -23 65 c-13 35 -26 69 -28 76 -3 8 62 53 93 63 1 0 -2 -17 -7 -37z
m-246 -10 c4 -21 9 -71 13 -110 6 -69 6 -73 -13 -73 -24 0 -51 37 -60 83 -3
17 -17 45 -30 60 -28 34 -29 47 -5 47 9 1 28 7 42 15 38 22 47 18 53 -22z
m561 -54 c-2 -87 -14 -103 -43 -56 -11 19 -21 41 -21 49 0 8 -5 19 -10 24 -17
17 17 41 70 53 3 0 5 -31 4 -70z m146 -6 c0 -49 -17 -90 -26 -66 -3 7 -16 28
-29 47 -25 37 -23 42 23 56 15 5 28 9 30 9 1 1 2 -20 2 -46z m-560 7 c0 -5 -5
-10 -11 -10 -5 0 -7 5 -4 10 3 6 8 10 11 10 2 0 4 -4 4 -10z m189 -67 c22 -46
26 -63 18 -80 -12 -27 -23 -32 -65 -25 -43 6 -48 21 -23 72 11 24 18 47 15 52
-5 8 12 38 22 38 2 0 17 -26 33 -57z m173 -88 c-15 -33 -75 -36 -92 -4 -7 11
-9 23 -6 27 3 3 6 0 6 -6 0 -7 7 -12 16 -12 12 0 14 8 9 44 -5 28 -3 46 4 51
6 3 9 11 6 16 -4 5 -3 14 0 19 4 6 20 -17 37 -50 27 -51 30 -63 20 -85z m142
76 c21 -40 23 -51 13 -72 -7 -13 -21 -25 -32 -27 -18 -2 -20 4 -21 77 0 44 3
78 8 75 5 -3 19 -27 32 -53z m-473 0 c8 -27 13 -54 11 -60 -4 -11 -122 -16
-122 -5 0 14 54 95 68 104 26 14 27 13 43 -39z m-303 -48 c51 -17 88 -35 94
-46 11 -22 -4 -67 -32 -92 -17 -15 -139 -77 -150 -76 -2 1 -5 29 -6 63 -1 35
-5 89 -9 121 -4 43 -3 57 7 57 7 0 51 -12 96 -27z m702 -9 c0 -8 -5 -12 -10
-9 -6 4 -8 11 -5 16 9 14 15 11 15 -7z m-433 -52 c22 -7 -7 -52 -34 -52 -13 0
-22 -4 -19 -9 4 -5 -3 -7 -14 -4 -11 3 -20 13 -20 23 0 10 -3 26 -6 35 -6 14
0 16 37 14 24 -1 49 -4 56 -7z m53 -8 c0 -3 -5 -14 -10 -25 -16 -28 -32 -23
-18 6 10 22 28 35 28 19z m40 -25 c0 -5 -7 -9 -15 -9 -9 0 -12 6 -9 15 6 15
24 11 24 -6z m62 -2 c-12 -6 -25 -7 -29 -3 -11 10 18 25 35 18 13 -4 11 -8 -6
-15z m-312 -27 c-6 -11 -16 -20 -22 -20 -6 0 -3 9 7 20 10 11 20 20 22 20 2 0
-1 -9 -7 -20z m597 -17 c8 -22 4 -38 -21 -85 -28 -53 -32 -56 -40 -36 -4 13
-13 34 -19 48 -21 50 0 100 43 100 22 0 30 -6 37 -27z m83 18 c0 -5 -5 -22
-11 -38 -9 -25 -12 -26 -20 -11 -7 12 -6 25 1 38 11 21 30 27 30 11z m-241
-27 c3 -19 -58 -144 -71 -144 -3 0 -13 20 -22 46 -14 41 -14 48 1 79 11 23 25
35 42 38 38 6 46 3 50 -19z m53 4 c-7 -7 -12 -8 -12 -2 0 14 12 26 19 19 2 -3
-1 -11 -7 -17z m-158 -12 c-3 -9 -10 -13 -16 -10 -5 3 -4 12 3 20 15 18 22 13
13 -10z m-185 -48 c-28 -67 -35 -75 -44 -50 -10 33 43 123 63 107 2 -2 -7 -27
-19 -57z m127 48 c7 -19 -19 -68 -73 -139 -36 -47 -48 -56 -59 -46 -8 6 -14
17 -14 25 0 22 30 102 51 139 18 29 27 35 55 35 21 0 37 -6 40 -14z m-169 -21
c-15 -32 -27 -32 -27 0 0 18 5 25 19 25 17 0 18 -3 8 -25z m-53 -30 c8 -50 1
-69 -54 -135 -20 -25 -42 -55 -49 -67 -6 -13 -20 -23 -30 -23 -14 0 -18 6 -15
28 4 38 81 224 97 234 30 19 45 8 51 -37z m-113 -32 c-16 -32 -39 -81 -51
-109 -21 -50 -23 -52 -61 -50 -21 0 -39 5 -39 9 0 9 45 72 108 152 59 75 80
73 43 -2z m523 35 c-4 -13 -19 -56 -33 -96 -26 -70 -28 -72 -39 -48 -10 22 -6
34 26 96 35 67 61 94 46 48z m166 -13 c7 -17 5 -40 -6 -77 -29 -97 -28 -96
-50 -57 l-20 34 30 62 c17 35 32 63 34 63 1 0 7 -11 12 -25z m-320 13 c0 -6
-39 -104 -52 -133 -8 -16 -21 -45 -29 -63 -13 -31 -15 -32 -36 -17 -13 9 -23
23 -23 32 0 17 120 183 133 183 4 0 7 -1 7 -2z m-226 -122 c8 -34 -30 -124
-46 -108 -7 7 -25 12 -41 12 l-28 0 19 28 c11 15 29 36 39 47 11 11 22 28 26
38 9 23 23 15 31 -17z m296 -56 c15 -36 10 -45 -24 -36 -22 5 -23 8 -13 36 14
38 21 38 37 0z m169 4 c10 -24 10 -25 -11 -18 -30 9 -30 8 -22 28 9 23 19 20
33 -10z"/>
<path d="M1893 1030 c-18 -7 -23 -17 -23 -47 0 -21 4 -54 9 -73 5 -19 11 -56
14 -82 l5 -48 -33 0 c-18 0 -51 6 -73 14 -34 12 -98 20 -139 17 -7 -1 -22 -10
-33 -21 -24 -24 -26 -80 -7 -155 7 -27 12 -69 10 -92 -3 -37 -1 -43 16 -43 11
0 25 8 30 19 11 20 177 135 210 146 17 5 20 -1 27 -62 4 -37 7 -72 6 -76 -4
-13 -3 -48 3 -122 8 -112 13 -127 39 -106 11 10 13 19 5 39 -17 43 2 224 35
332 12 41 17 46 52 52 21 4 78 6 127 6 l87 -1 -28 -21 c-41 -30 -132 -113
-132 -120 0 -3 9 -6 19 -6 10 0 32 -16 48 -36 15 -19 44 -52 63 -73 74 -81
136 -154 163 -194 16 -23 42 -57 60 -75 26 -27 31 -39 28 -71 -2 -27 2 -40 13
-44 19 -7 36 21 36 58 0 14 22 72 49 128 26 56 58 134 70 172 12 39 26 77 31
87 5 9 25 58 45 109 37 97 65 149 99 187 20 23 33 71 19 73 -53 5 -93 11 -117
19 -44 15 -86 12 -93 -6 -3 -9 -1 -19 5 -23 8 -5 9 -22 4 -51 l-8 -45 -59 -7
c-33 -3 -154 -9 -270 -13 -115 -3 -225 -8 -243 -10 -21 -3 -35 1 -38 9 -5 14
60 191 78 213 6 7 8 20 4 28 -4 13 -20 16 -68 15 -35 -1 -76 1 -93 4 -16 3
-40 1 -52 -4z m149 -69 c-1 -13 -14 -62 -28 -108 -25 -78 -28 -83 -55 -83 -33
0 -35 6 -53 124 -14 97 -19 91 79 91 57 0 60 -1 57 -24z m672 -80 c3 -5 26
-12 50 -15 l44 -7 -37 -62 c-20 -34 -47 -89 -58 -122 -12 -33 -31 -85 -43
-115 -11 -30 -28 -75 -37 -100 -24 -71 -99 -230 -105 -224 -3 3 1 26 9 52 8
26 35 133 60 237 25 105 51 196 58 204 9 9 11 32 8 72 -4 39 -2 64 7 74 14 17
36 20 44 6z m-934 -127 c30 -8 69 -14 87 -14 50 0 48 -17 -4 -44 -26 -14 -79
-45 -118 -70 -69 -44 -70 -44 -78 -23 -5 12 -11 57 -14 100 l-6 78 39 -6 c21
-4 64 -14 94 -21z m837 -6 c10 -17 6 -51 -17 -123 -10 -33 -26 -96 -35 -140
-10 -44 -28 -117 -41 -161 -13 -45 -24 -89 -24 -99 0 -12 -7 -9 -25 13 -14 17
-25 34 -25 39 0 5 -16 35 -35 67 -19 32 -39 76 -45 97 -5 21 -15 58 -22 82 -6
23 -13 81 -15 129 l-3 86 49 7 c28 4 58 4 68 1 10 -3 38 -2 63 3 66 13 98 13
107 -1z m-672 -18 c3 -5 1 -10 -4 -10 -6 0 -11 5 -11 10 0 6 2 10 4 10 3 0 8
-4 11 -10z m350 -42 c3 -13 7 -48 10 -78 2 -30 10 -86 19 -125 8 -38 14 -70
12 -72 -3 -4 -32 24 -84 84 -23 26 -57 63 -75 81 l-32 32 25 21 c54 44 103 79
111 79 5 0 11 -10 14 -22z m-324 -10 c-4 -13 -12 -45 -16 -73 l-8 -50 -12 50
c-16 71 -10 86 37 94 4 0 4 -9 -1 -21z"/>
</g>
</svg>
