<?xml version="1.0" standalone="no"?>
<!DOCTYPE svg PUBLIC "-//W3C//DTD SVG 20010904//EN"
 "http://www.w3.org/TR/2001/REC-SVG-20010904/DTD/svg10.dtd">
<svg version="1.0" xmlns="http://www.w3.org/2000/svg"
 width="138.000000pt" height="173.000000pt" viewBox="0 0 138.000000 173.000000"
 preserveAspectRatio="xMidYMid meet">
<metadata>
Created by potrace 1.16, written by Peter Selinger 2001-2019
</metadata>
<g transform="translate(0.000000,173.000000) scale(0.100000,-0.100000)"
fill="#000000" stroke="none">
<path d="M679 1504 c-15 -18 -35 -17 288 -18 149 -1 274 -4 277 -7 4 -3 -2
-27 -11 -52 l-17 -47 -66 -1 c-403 -9 -534 -15 -538 -26 -3 -10 37 -13 176
-13 98 0 181 3 185 6 5 5 42 6 191 5 l43 -1 -42 -111 c-23 -61 -48 -115 -55
-119 -12 -7 -91 -2 -100 7 -3 2 2 8 10 13 34 19 55 39 48 45 -7 8 -68 -22 -68
-33 0 -4 -13 -16 -30 -25 -16 -10 -30 -25 -30 -33 0 -8 -4 -14 -8 -14 -10 0
-3 119 9 141 6 12 29 17 88 22 44 3 86 9 93 14 17 10 -161 21 -184 10 -27 -12
-322 -10 -326 2 -6 18 -19 13 -103 -35 -44 -26 -82 -44 -85 -41 -3 3 1 28 10
56 8 28 11 53 7 55 -11 7 -194 -87 -199 -102 -6 -19 14 -14 88 23 38 19 71 35
74 35 2 0 -4 -27 -15 -60 -10 -33 -16 -67 -13 -75 4 -8 2 -15 -4 -15 -6 0 -16
17 -22 38 -15 46 -27 60 -35 40 -5 -13 6 -54 30 -111 7 -16 3 -17 -36 -11 -24
4 -57 13 -73 21 -46 24 -60 1 -65 -102 -4 -98 3 -106 64 -80 21 8 41 13 44 10
3 -3 -28 -37 -69 -75 l-73 -68 37 -7 c21 -4 40 -14 43 -21 6 -17 66 -19 94 -4
13 7 25 8 37 1 14 -9 12 -10 -13 -11 -25 0 -27 -2 -15 -14 11 -11 70 -17 240
-25 124 -6 243 -8 265 -5 138 19 109 29 -78 28 -89 0 -172 2 -184 4 -30 6 -43
47 -29 97 9 32 17 41 37 43 25 3 26 6 22 45 -3 36 0 45 21 60 25 17 26 17 46
-3 11 -11 20 -23 20 -27 0 -5 -27 -37 -60 -73 -65 -69 -73 -86 -38 -77 15 4
30 -1 45 -15 20 -19 23 -19 29 -4 4 10 -1 24 -10 35 -20 22 -20 35 -1 51 13
11 15 7 15 -24 0 -25 4 -36 15 -36 11 0 15 11 15 40 0 22 4 40 8 40 14 0 33
-48 22 -55 -17 -10 -11 -25 9 -25 11 0 22 -6 25 -12 5 -10 7 -10 12 0 5 10 13
7 34 -13 32 -30 53 -26 44 9 -8 33 21 59 55 51 14 -4 29 -12 33 -18 16 -27 20
27 4 60 -11 22 -13 38 -7 42 12 8 101 1 101 -8 0 -3 -28 -62 -63 -130 l-62
-124 -276 2 c-152 1 -283 -1 -292 -5 -49 -18 9 -23 257 -21 151 1 278 -1 282
-6 4 -4 0 -15 -9 -25 -19 -19 -90 -21 -399 -13 -148 4 -188 0 -161 -17 9 -6 9
-27 -2 -87 -8 -44 -14 -92 -15 -106 0 -31 -111 -136 -210 -200 -36 -23 -69
-46 -75 -50 -11 -11 103 -118 127 -119 11 0 19 11 23 32 19 85 149 272 212
305 23 12 126 48 332 114 19 6 116 12 217 14 145 2 186 -1 195 -11 13 -16 45
-19 54 -5 3 5 1 13 -5 16 -6 4 -9 14 -6 23 3 10 7 41 11 71 3 30 9 71 14 90 5
20 13 72 16 116 4 44 9 94 11 110 2 17 6 73 9 126 4 85 19 191 55 381 6 32 17
70 25 85 8 15 11 31 7 35 -4 3 -143 9 -309 11 -247 3 -305 2 -314 -9z m-14
-273 l30 -7 -32 -19 c-18 -11 -33 -23 -33 -27 0 -4 -3 -7 -7 -6 -5 1 -18 -2
-31 -6 -32 -11 -36 -3 -22 38 12 38 26 42 95 27z m210 -11 c-55 -38 -90 -53
-121 -54 -30 -2 -31 -1 -23 29 5 16 9 31 9 32 0 3 51 8 110 10 l55 3 -30 -20z
m-332 -17 c-3 -10 -21 -33 -39 -52 -28 -28 -36 -32 -48 -22 -24 20 -40 2 -20
-20 16 -18 16 -21 2 -35 -23 -24 -39 -8 -35 34 4 33 10 39 57 64 29 15 58 32
64 38 16 16 26 12 19 -7z m655 -8 c-3 -14 -1 -25 6 -25 8 0 8 -2 0 -8 -17 -11
-34 -94 -34 -165 0 -35 -7 -108 -15 -163 -9 -54 -18 -119 -20 -144 -8 -76 -16
-134 -21 -155 -5 -18 -13 -20 -105 -19 -143 1 -146 7 -75 117 31 47 56 87 56
90 0 3 14 36 32 74 32 69 111 259 151 365 23 62 32 74 25 33z m-295 -5 c-6
-22 -72 -76 -74 -61 -1 6 -2 16 -3 21 -1 7 66 57 81 60 0 0 -1 -9 -4 -20z
m-208 -42 c-4 -29 -12 -61 -17 -71 -13 -24 -31 -10 -24 19 5 19 2 24 -14 24
-29 0 -35 -3 -35 -19 0 -7 -10 -20 -23 -29 -21 -14 -22 -13 -22 19 0 32 4 36
55 58 30 13 60 29 66 37 19 23 21 17 14 -38z m-161 -45 c-10 -66 -13 -71 -35
-44 -19 23 -19 23 4 51 30 39 37 37 31 -7z m266 16 c9 -16 8 -25 -4 -42 -38
-55 -45 -59 -70 -53 -22 5 -24 9 -15 38 8 30 52 78 70 78 5 0 13 -9 19 -21z
m98 -41 c-4 -62 -22 -71 -44 -20 -12 30 -12 34 6 52 32 32 41 25 38 -32z m202
4 c0 -3 -8 -23 -17 -44 -14 -31 -22 -38 -44 -38 -15 0 -31 5 -34 10 -3 6 -22
10 -41 10 -40 0 -41 2 -13 41 20 28 25 30 85 28 35 -1 64 -4 64 -7z m-467 -32
c5 -21 -8 -29 -36 -22 -17 4 -17 6 -1 23 22 24 30 24 37 -1z m193 -15 c1 -9
-6 -15 -17 -15 -17 0 -17 3 -7 20 13 20 21 19 24 -5z m-516 -1 c33 -4 62 -10
65 -14 11 -17 -34 -40 -147 -77 -14 -4 -18 0 -18 20 0 48 12 88 26 83 7 -3 40
-8 74 -12z m175 -24 c4 -6 -5 -10 -19 -10 -14 0 -29 0 -33 -1 -4 0 -9 4 -11
10 -5 14 55 15 63 1z m118 -7 c-7 -2 -21 -2 -30 0 -10 3 -4 5 12 5 17 0 24 -2
18 -5z m247 -24 c0 -6 -23 -38 -50 -71 l-50 -60 -16 38 c-18 43 -8 80 26 92
33 12 90 13 90 1z m47 -11 c-3 -8 -6 -5 -6 6 -1 11 2 17 5 13 3 -3 4 -12 1
-19z m102 9 c58 5 59 5 54 -18 -4 -22 -9 -24 -74 -25 -38 0 -69 1 -69 2 0 15
23 56 27 47 3 -7 23 -9 62 -6z m-575 -43 c7 -19 1 -30 -45 -81 -34 -38 -119
-89 -119 -72 0 32 46 122 73 144 36 28 82 33 91 9z m94 -8 c9 -20 7 -27 -7
-40 -16 -15 -19 -14 -30 10 -9 20 -9 30 0 40 16 20 24 18 37 -10z m334 -18
c-9 -18 -21 -48 -27 -67 -10 -32 -10 -33 -27 -14 -17 18 -17 20 0 39 10 11 27
32 36 47 25 38 38 34 18 -5z m44 -25 c20 -26 17 -33 -12 -33 -20 0 -25 4 -20
16 3 9 6 20 6 25 0 14 12 11 26 -8z m-450 -74 c-38 -45 -31 -63 14 -39 23 12
30 2 19 -27 -6 -16 -16 -21 -38 -21 -41 1 -48 36 -21 108 11 30 20 57 20 60 1
3 8 -8 16 -23 14 -26 14 -30 -10 -58z m-203 1 c-3 -12 -14 -20 -26 -20 -19 0
-20 1 -2 20 10 11 21 20 26 20 4 0 5 -9 2 -20z m140 -7 c-10 -30 -14 -34 -24
-27 -6 4 -3 14 7 25 21 24 25 24 17 2z m355 -256 c93 0 122 -11 57 -22 -19 -3
-50 -7 -69 -10 -35 -6 -314 13 -328 21 -5 3 -6 10 -2 16 4 6 48 7 128 2 66 -4
163 -7 214 -7z m-271 -53 c115 -7 191 -17 169 -22 -10 -2 -80 -24 -154 -48
-75 -24 -137 -42 -140 -40 -2 3 -1 34 3 70 7 60 9 65 26 55 10 -5 54 -12 96
-15z m-232 -255 c-19 -28 -35 -57 -35 -65 0 -8 -4 -14 -8 -14 -5 0 -21 -25
-37 -55 -15 -30 -30 -55 -33 -55 -11 0 -62 54 -62 64 0 6 26 28 58 48 31 20
77 58 102 83 24 25 46 45 47 45 2 0 -12 -23 -32 -51z"/>
<path d="M634 1439 c-2 -4 1 -11 8 -15 13 -8 510 -13 536 -5 6 2 12 8 12 15 0
13 -548 18 -556 5z"/>
</g>
</svg>
