<?xml version="1.0" standalone="no"?>
<!DOCTYPE svg PUBLIC "-//W3C//DTD SVG 20010904//EN"
 "http://www.w3.org/TR/2001/REC-SVG-20010904/DTD/svg10.dtd">
<svg version="1.0" xmlns="http://www.w3.org/2000/svg"
 width="109.000000pt" height="117.000000pt" viewBox="0 0 109.000000 117.000000"
 preserveAspectRatio="xMidYMid meet">
<metadata>
Created by potrace 1.16, written by Peter Selinger 2001-2019
</metadata>
<g transform="translate(0.000000,117.000000) scale(0.100000,-0.100000)"
fill="#000000" stroke="none">
<path d="M513 1051 c-26 -33 -68 -74 -93 -92 -64 -45 -70 -53 -37 -45 32 8
113 -33 181 -91 38 -32 76 -44 76 -23 0 5 -9 14 -19 20 -15 8 -19 20 -19 57 2
99 -14 233 -28 233 -7 0 -35 -27 -61 -59z m27 -25 c0 -3 11 -59 26 -133 4 -21
3 -22 -23 -11 -16 7 -47 24 -70 39 -42 26 -42 26 -18 37 13 6 34 25 46 41 19
26 39 40 39 27z"/>
<path d="M832 991 c-13 -34 -259 -279 -319 -317 -32 -21 -60 -40 -63 -44 -7
-10 -47 -30 -58 -30 -6 0 -13 18 -17 41 -4 22 -13 43 -21 46 -8 3 -42 -21 -81
-57 -38 -35 -81 -71 -98 -81 -16 -11 -25 -19 -18 -19 6 0 14 -9 18 -19 3 -12
12 -17 23 -14 10 2 35 -8 57 -23 22 -15 60 -33 84 -41 51 -15 84 -42 101 -84
14 -33 10 -38 -137 -146 -51 -38 -94 -74 -97 -80 -7 -16 70 -18 80 -2 3 6 25
19 48 29 22 11 52 25 66 33 14 8 36 19 50 25 14 5 51 22 84 37 32 15 70 29 85
30 40 4 103 34 98 48 -2 7 -19 11 -39 9 -28 -2 -39 2 -52 22 -9 14 -16 32 -16
40 0 28 -20 27 -62 -2 -24 -16 -50 -27 -58 -24 -8 3 -31 22 -50 43 -20 20 -49
40 -65 44 -50 10 -169 73 -167 88 1 4 28 29 60 56 l59 49 11 -32 c7 -18 12
-40 12 -49 0 -9 6 -20 13 -24 7 -4 19 -21 26 -38 18 -46 60 -90 73 -77 7 7 4
20 -10 44 -11 18 -25 46 -31 61 l-11 28 118 55 c148 70 145 68 222 100 36 14
74 33 85 40 11 8 30 14 43 14 52 0 88 51 43 63 -28 7 -52 65 -52 125 0 39 -4
52 -15 52 -8 0 -18 -9 -22 -19z m14 -138 c13 -17 24 -37 24 -43 0 -6 -53 -35
-117 -65 -65 -30 -148 -70 -185 -88 -70 -35 -97 -33 -30 2 37 20 77 57 207
190 55 57 71 68 74 54 1 -10 14 -32 27 -50z m-263 -529 l18 -25 -48 -20 c-26
-11 -82 -37 -123 -56 -159 -75 -167 -76 -70 -8 30 21 65 49 78 62 13 13 32 23
42 23 11 0 27 11 36 25 21 32 44 31 67 -1z"/>
</g>
</svg>
