<?xml version="1.0" standalone="no"?>
<!DOCTYPE svg PUBLIC "-//W3C//DTD SVG 20010904//EN"
 "http://www.w3.org/TR/2001/REC-SVG-20010904/DTD/svg10.dtd">
<svg version="1.0" xmlns="http://www.w3.org/2000/svg"
 width="256.000000pt" height="108.000000pt" viewBox="0 0 256.000000 108.000000"
 preserveAspectRatio="xMidYMid meet">
<metadata>
Created by potrace 1.16, written by Peter Selinger 2001-2019
</metadata>
<g transform="translate(0.000000,108.000000) scale(0.100000,-0.100000)"
fill="#000000" stroke="none">
<path d="M853 930 c-19 -4 -108 -75 -336 -267 -34 -29 -64 -53 -67 -53 -3 0
-27 43 -54 95 -39 77 -46 98 -36 110 17 21 4 38 -20 25 -30 -16 -75 -64 -72
-76 1 -7 -21 -33 -49 -58 -54 -49 -60 -76 -16 -76 14 0 50 -20 82 -44 l57 -45
-24 -14 c-26 -17 -117 -60 -165 -77 -47 -17 -42 -42 15 -79 26 -17 66 -47 90
-66 24 -19 52 -35 62 -35 18 0 80 76 110 134 8 17 22 32 30 34 18 3 88 -62
181 -168 37 -41 81 -91 98 -110 l31 -35 23 27 c20 24 167 108 189 108 5 0 77
34 160 75 83 41 161 75 174 75 12 0 26 5 29 10 10 16 108 70 126 70 15 0 15
-4 1 -45 -27 -84 10 -100 87 -35 26 22 62 43 81 46 19 4 42 10 50 15 38 19
264 39 483 43 86 2 142 7 149 14 18 18 6 22 -83 27 -47 2 -85 8 -87 14 -2 7
-39 11 -97 11 -51 0 -128 6 -171 14 -44 8 -106 18 -139 21 -94 10 -195 46
-195 69 0 22 -38 -28 -49 -64 l-12 -39 -37 16 c-20 10 -46 25 -57 34 -11 9
-54 32 -95 52 -62 30 -179 100 -395 234 -17 11 -39 17 -52 13z m162 -123 c96
-61 89 -56 83 -62 -2 -3 -22 4 -43 15 -21 11 -70 32 -109 47 -84 32 -89 35
-81 56 9 22 50 7 150 -56z m-213 1 c2 -14 12 -24 28 -28 20 -5 22 -8 10 -16
-9 -5 -25 -39 -38 -75 -12 -36 -29 -84 -38 -105 -27 -65 -34 -19 -14 91 11 57
15 104 10 109 -5 5 -12 -2 -16 -18 -3 -14 -10 -26 -14 -26 -10 0 -49 -65 -66
-110 -11 -31 -13 -32 -13 -10 -2 52 20 95 76 152 32 32 61 58 64 58 4 0 9 -10
11 -22z m113 -28 c6 -10 -46 -144 -68 -174 -21 -29 -4 124 17 157 19 27 40 35
51 17z m89 -31 c10 -9 -53 -158 -68 -159 -10 0 -2 134 9 163 7 18 38 16 59 -4z
m-657 -22 c12 -17 32 -54 44 -82 13 -27 25 -53 27 -57 2 -4 -8 -13 -21 -19
-23 -10 -31 -7 -86 36 -44 35 -58 51 -53 63 13 30 54 92 60 92 4 0 17 -15 29
-33z m731 -29 c2 -9 -8 -42 -23 -75 l-25 -58 4 75 c3 41 5 76 5 78 3 11 36 -6
39 -20z m-466 -15 c-11 -16 -43 -53 -71 -83 -41 -45 -52 -52 -60 -40 -8 12 0
24 37 55 26 22 60 52 77 67 38 35 41 35 17 1z m102 -64 c-8 -41 -23 -125 -32
-187 l-17 -113 -21 20 c-21 19 -21 22 -8 92 15 77 82 274 91 265 2 -1 -4 -36
-13 -77z m448 8 c-16 -29 -33 -63 -39 -77 -8 -21 -9 -16 -5 28 3 36 1 52 -7
52 -8 0 -10 8 -5 23 12 39 23 46 54 35 l29 -10 -27 -51z m83 23 c19 -7 24 -14
18 -23 -5 -6 -16 -28 -23 -47 -7 -19 -21 -42 -31 -50 -11 -8 -23 -37 -28 -63
-10 -53 -15 -61 -48 -72 -20 -5 -23 -3 -23 22 0 16 4 33 8 39 5 5 26 53 46
107 21 53 42 97 47 97 4 0 20 -5 34 -10z m-629 -42 c-3 -18 -10 -70 -17 -115
-6 -46 -15 -80 -20 -77 -5 3 -20 25 -34 49 -23 39 -25 47 -13 68 13 24 79 107
86 107 1 0 1 -15 -2 -32z m287 -20 c-2 -24 -9 -65 -14 -91 -5 -26 -9 -71 -9
-100 0 -61 -6 -73 -42 -82 -19 -5 -29 -2 -35 10 -12 21 15 157 33 168 8 4 14
17 14 27 0 23 41 110 51 110 4 0 5 -19 2 -42z m87 -96 c-4 -73 -10 -135 -12
-137 -2 -3 -18 -7 -34 -11 l-29 -6 5 74 c3 52 10 80 22 92 9 9 25 41 34 71 10
30 18 54 20 52 1 -1 -2 -62 -6 -135z m338 127 c34 -12 35 -15 8 -93 -13 -36
-26 -39 -26 -4 0 10 -7 18 -16 18 -13 0 -15 -9 -12 -46 3 -46 2 -47 -34 -60
-32 -11 -38 -11 -38 1 0 8 4 16 9 19 8 5 47 101 65 159 6 20 5 20 44 6z m-543
-154 c-14 -82 -25 -152 -25 -158 0 -5 -7 -4 -15 3 -8 6 -19 9 -26 5 -21 -13 1
135 25 175 29 46 56 105 56 121 0 7 2 10 5 7 3 -3 -6 -72 -20 -153z m305 110
c-5 -22 -10 -60 -10 -85 -1 -88 -10 -118 -39 -123 -14 -3 -27 -5 -28 -4 -5 6
21 110 41 161 13 34 26 70 30 80 11 33 15 12 6 -29z m511 21 c31 -17 68 -26
126 -31 74 -6 152 -21 128 -25 -5 -1 -19 -3 -30 -5 -40 -8 -60 -8 -78 0 -9 4
-23 3 -30 -3 -6 -5 -35 -17 -63 -25 -28 -8 -65 -22 -82 -31 -27 -14 -31 -14
-36 -1 -3 9 3 24 14 35 19 19 18 50 -1 50 -5 0 -9 14 -9 30 0 36 5 37 61 6z
m-161 -40 c45 -25 43 -30 -15 -52 -16 -6 -37 -14 -46 -18 -15 -6 -16 -2 -8 36
4 24 8 46 9 51 0 12 16 8 60 -17z m-980 -21 c11 -14 6 -35 -8 -35 -16 1 -43
30 -37 39 9 15 30 14 45 -4z m1437 9 c-3 -3 -12 -4 -19 -1 -8 3 -5 6 6 6 11 1
17 -2 13 -5z m-1492 -52 l23 -18 -42 -56 c-22 -31 -46 -64 -53 -75 -10 -16
-15 -14 -57 32 -25 28 -45 53 -46 57 0 8 128 77 143 78 5 0 19 -8 32 -18z
m635 -168 c-19 -8 -38 -20 -42 -27 -4 -7 -8 -9 -8 -5 0 4 -42 -13 -92 -37 -92
-43 -125 -45 -111 -9 7 19 32 29 158 65 111 31 148 36 95 13z"/>
</g>
</svg>
