<?xml version="1.0" standalone="no"?>
<!DOCTYPE svg PUBLIC "-//W3C//DTD SVG 20010904//EN"
 "http://www.w3.org/TR/2001/REC-SVG-20010904/DTD/svg10.dtd">
<svg version="1.0" xmlns="http://www.w3.org/2000/svg"
 width="258.000000pt" height="214.000000pt" viewBox="0 0 258.000000 214.000000"
 preserveAspectRatio="xMidYMid meet">
<metadata>
Created by potrace 1.16, written by Peter Selinger 2001-2019
</metadata>
<g transform="translate(0.000000,214.000000) scale(0.100000,-0.100000)"
fill="#000000" stroke="none">
<path d="M746 2017 c-11 -6 -67 -50 -125 -96 -58 -46 -117 -91 -131 -99 -14
-8 -56 -36 -95 -62 -38 -26 -78 -50 -89 -54 -18 -6 -18 -7 -1 -26 10 -11 23
-20 29 -20 6 0 26 -9 44 -20 30 -18 32 -22 18 -36 -23 -23 -20 -34 14 -45 17
-6 30 -15 30 -19 0 -4 15 -15 33 -24 57 -29 122 -67 130 -75 12 -12 -74 -87
-193 -169 -121 -83 -126 -88 -111 -106 7 -9 17 -14 21 -11 4 3 10 -9 12 -26 4
-23 -2 -39 -19 -59 -12 -15 -23 -32 -23 -38 0 -12 64 -62 79 -62 6 0 18 -11
27 -25 9 -14 22 -25 29 -25 6 0 30 -12 51 -28 21 -15 57 -35 78 -45 l39 -18
-39 -26 c-21 -15 -90 -65 -152 -112 -63 -47 -128 -96 -145 -109 -54 -39 -54
-39 -9 -85 l43 -43 -31 -39 c-26 -33 -29 -41 -17 -53 12 -11 19 -12 37 -2 17
9 29 8 64 -8 23 -11 60 -25 81 -31 22 -6 71 -29 109 -51 86 -50 134 -58 173
-27 33 26 35 27 178 110 61 35 160 87 220 116 61 28 117 55 125 61 61 39 141
81 148 76 5 -3 25 10 46 28 21 20 76 50 129 71 50 20 106 48 124 61 17 13 37
24 44 24 13 0 103 52 221 128 71 45 89 47 146 18 17 -9 40 -16 50 -16 25 0 89
-27 124 -52 30 -21 68 -17 68 7 0 16 -38 48 -80 65 -26 11 -29 16 -25 44 12
71 71 206 90 206 7 0 20 9 31 21 15 16 16 22 5 29 -9 5 -67 -19 -169 -71
l-155 -80 -36 25 c-20 14 -47 33 -61 43 -14 9 -36 27 -50 39 -14 12 -36 25
-50 29 -14 3 -50 24 -80 46 -30 22 -80 56 -110 77 -84 57 -270 203 -270 211 0
5 -22 22 -50 39 -27 17 -50 35 -50 41 0 5 -24 26 -52 47 -55 39 -120 93 -219
182 -32 28 -63 52 -69 52 -6 0 -32 23 -59 50 -52 53 -92 68 -125 47z m146
-128 c24 -15 61 -44 83 -64 54 -50 172 -145 218 -175 20 -14 39 -31 42 -38 8
-22 -144 89 -256 186 -27 23 -56 42 -63 42 -7 0 -30 13 -50 29 -21 17 -53 35
-72 41 -19 6 -34 13 -34 16 0 2 10 15 22 29 l21 25 23 -32 c13 -17 43 -44 66
-59z m-185 6 c10 -8 11 -22 3 -65 -5 -30 -8 -71 -7 -90 3 -59 -15 -210 -25
-210 -6 0 -36 26 -68 58 -48 49 -57 63 -53 85 4 23 2 27 -16 27 -12 0 -32 -5
-44 -11 -21 -11 -21 -11 -6 7 81 98 99 122 99 136 0 21 94 100 99 85 2 -7 10
-16 18 -22z m87 -80 c-1 -61 -16 -259 -20 -266 -1 -3 -4 -26 -5 -52 -2 -26 -6
-47 -10 -47 -19 0 -27 124 -14 236 4 38 7 93 7 122 -1 50 0 53 21 50 19 -3 22
-9 21 -43z m94 -15 c21 -11 50 -32 63 -46 13 -14 41 -35 61 -47 34 -18 41 -28
40 -47 0 -3 -6 -41 -12 -85 -6 -44 -13 -104 -14 -133 -2 -29 -5 -54 -7 -56 -2
-2 -14 0 -26 5 -20 7 -23 15 -23 66 0 32 7 90 16 128 15 65 19 113 10 122 -2
2 -11 1 -20 -3 -10 -4 -16 -18 -16 -38 0 -17 -4 -46 -10 -65 -5 -19 -12 -68
-15 -110 -4 -42 -8 -77 -10 -80 -2 -2 -12 -1 -21 3 -13 5 -15 14 -9 44 4 20
10 83 14 140 5 83 10 105 24 113 21 12 23 39 2 39 -8 0 -14 5 -12 11 1 6 -4
14 -10 16 -21 8 -34 -45 -39 -161 -7 -157 -13 -180 -47 -184 -24 -3 -27 0 -27
25 0 15 4 54 10 85 5 32 10 91 10 130 2 92 10 148 21 148 5 0 26 -9 47 -20z
m-375 -23 c-4 -8 -25 -33 -45 -57 -32 -37 -41 -42 -59 -34 -20 9 -17 13 42 57
71 51 73 52 62 34z m617 -178 c-6 -10 -13 -53 -16 -96 -10 -133 -8 -128 -35
-128 -23 0 -24 3 -21 55 3 63 22 201 29 212 2 4 15 1 28 -8 20 -13 23 -20 15
-35z m-599 -6 c14 -16 32 -37 40 -48 14 -19 14 -19 -11 -2 -27 18 -53 31 -85
42 -20 6 -20 7 -1 21 26 19 28 18 57 -13z m696 -40 c24 -20 62 -46 83 -57 21
-12 65 -39 98 -61 230 -153 384 -245 408 -245 6 0 18 -8 25 -17 8 -9 41 -34
73 -55 l59 -38 -35 0 c-19 0 -46 8 -59 19 -42 32 -107 61 -139 61 -27 0 -30 3
-30 30 0 37 -27 41 -36 5 -7 -27 -9 -28 -39 -16 -16 6 -19 16 -16 51 2 39 1
43 -13 31 -9 -8 -16 -24 -16 -37 0 -27 -15 -30 -55 -12 -22 10 -26 17 -23 47
2 27 -1 36 -12 36 -10 0 -16 -12 -18 -32 -3 -32 -15 -40 -38 -25 -7 4 -11 27
-10 51 1 57 -19 65 -27 11 -3 -23 -8 -44 -10 -47 -3 -3 -19 3 -36 13 -29 17
-31 22 -26 62 6 48 -9 50 -20 2 -4 -20 -13 -30 -24 -30 -16 0 -18 10 -17 99 1
93 -5 123 -21 107 -4 -3 -8 -44 -9 -89 0 -45 -2 -85 -3 -90 0 -4 -14 -1 -31 8
-16 8 -38 15 -49 15 -11 0 -22 4 -25 9 -14 22 22 231 40 231 3 0 26 -17 51
-37z m-592 -53 c3 -5 1 -10 -4 -10 -6 0 -11 5 -11 10 0 6 2 10 4 10 3 0 8 -4
11 -10z m43 -117 c2 -7 -3 -13 -12 -13 -18 0 -122 -104 -177 -177 -22 -29 -44
-53 -49 -53 -6 0 -18 9 -28 21 -9 11 -25 24 -35 28 -15 5 -11 11 23 31 62 39
225 160 229 171 4 14 43 7 49 -8z m82 3 c0 -8 -4 -18 -10 -21 -5 -3 -10 3 -10
14 0 12 5 21 10 21 6 0 10 -6 10 -14z m90 -13 c0 -17 -13 -23 -38 -16 -34 9
-28 34 8 31 17 -1 30 -8 30 -15z m68 -21 c3 -9 -2 -13 -14 -10 -9 1 -19 9 -22
16 -3 9 2 13 14 10 9 -1 19 -9 22 -16z m-234 -17 c-4 -8 -2 -21 3 -28 5 -6 10
-80 12 -164 3 -144 2 -152 -19 -173 -12 -12 -20 -30 -17 -40 9 -37 -9 -42 -34
-9 -13 18 -35 42 -48 53 -47 42 -111 111 -111 121 0 6 16 33 35 60 83 117 200
235 179 180z m333 0 c6 -19 -13 -34 -35 -28 -13 3 -22 13 -22 25 0 15 6 19 27
16 14 -2 28 -7 30 -13z m83 -37 c0 -23 -4 -29 -16 -24 -9 3 -21 6 -28 6 -18 0
-15 38 3 49 23 15 41 1 41 -31z m89 2 c40 -20 60 -44 48 -57 -8 -8 -100 18
-108 30 -8 11 0 47 10 47 4 0 26 -9 50 -20z m-354 -54 c-2 -28 -7 -105 -10
-171 -8 -148 -9 -152 -41 -152 -26 0 -26 1 -20 51 4 28 9 110 12 181 3 72 7
135 9 141 2 7 15 9 29 7 24 -5 25 -8 21 -57z m-80 44 c3 -5 1 -10 -4 -10 -6 0
-11 5 -11 10 0 6 2 10 4 10 3 0 8 -4 11 -10z m144 1 c12 -7 12 -32 2 -152 -6
-79 -13 -160 -14 -179 -2 -28 -6 -36 -26 -38 -13 -2 -21 0 -18 5 3 5 9 72 12
149 4 76 8 150 9 164 2 14 4 33 5 43 1 19 9 21 30 8z m103 -60 c2 -9 1 -34 -3
-56 -4 -22 -10 -86 -14 -143 -8 -103 -8 -103 -33 -100 -24 3 -25 7 -25 52 1
74 13 248 19 268 4 14 9 15 29 6 13 -6 26 -18 27 -27z m298 9 c0 -22 -7 -25
-29 -11 -16 10 -6 31 15 31 8 0 14 -9 14 -20z m-223 -10 c13 0 14 -16 7 -122
-4 -68 -7 -132 -8 -143 0 -24 -13 -35 -43 -35 -21 0 -23 5 -23 47 0 26 5 96
12 155 9 85 15 107 26 103 7 -3 20 -5 29 -5z m309 -22 c4 -6 -2 -7 -17 -3 -35
10 -45 23 -15 18 15 -3 29 -10 32 -15z m-186 -8 c19 -5 36 -14 38 -20 3 -8 8
-8 18 1 32 27 39 6 35 -112 -1 -63 -5 -117 -8 -121 -2 -5 -13 -8 -24 -8 -16 0
-19 7 -19 46 0 54 -15 51 -24 -6 -6 -40 -6 -40 -51 -40 -25 0 -48 1 -52 3 -9
2 -7 92 2 205 7 70 8 73 28 67 12 -3 38 -10 57 -15z m257 -6 c-3 -3 -12 -4
-19 -1 -8 3 -5 6 6 6 11 1 17 -2 13 -5z m-77 -135 l0 -109 -36 0 -36 0 7 93
c9 131 10 135 40 129 25 -4 25 -5 25 -113z m186 101 c8 0 14 -4 14 -10 0 -15
-22 -12 -45 7 -18 14 -18 15 -2 9 10 -3 25 -6 33 -6z m661 -37 c-8 -15 -22
-56 -32 -90 -11 -35 -22 -63 -27 -63 -19 0 -87 33 -91 45 -3 7 -17 13 -32 13
-24 0 -44 8 -34 15 20 13 225 114 227 112 2 -2 -3 -16 -11 -32z m-765 19 c13
-6 16 -22 15 -97 -2 -89 -2 -90 -28 -93 -33 -4 -39 14 -39 121 0 81 5 88 52
69z m163 -2 c3 -5 -1 -10 -10 -10 -9 0 -13 5 -10 10 3 6 8 10 10 10 2 0 7 -4
10 -10z m-59 -44 c1 -1 4 -31 7 -68 l4 -68 -33 0 -34 0 0 75 0 75 28 -6 c15
-4 28 -7 28 -8z m81 -12 c19 -5 21 -13 21 -59 -1 -51 -2 -53 -29 -57 -27 -4
-29 -2 -33 36 -10 89 -8 93 41 80z m-1129 -115 c45 -45 81 -84 78 -86 -9 -9
-121 53 -151 85 -18 17 -37 32 -43 32 -6 0 -19 11 -28 25 -16 24 -16 27 2 39
24 18 32 12 142 -95z m1218 68 c-3 -16 -6 -40 -6 -53 0 -17 -4 -22 -16 -17
-11 4 -15 17 -13 47 4 55 8 66 26 59 11 -4 13 -14 9 -36z m75 15 c24 -10 6
-72 -21 -72 -16 0 -20 7 -20 33 0 46 8 53 41 39z m77 -29 c2 -12 -4 -23 -14
-27 -23 -9 -28 -2 -20 29 8 30 29 29 34 -2z m59 -10 c-3 -3 -11 -2 -17 2 -9 6
-9 10 1 16 14 8 27 -7 16 -18z m3 -48 c0 -2 -10 -10 -22 -16 -21 -11 -22 -11
-9 4 13 16 31 23 31 12z m-70 -29 c0 -13 -7 -27 -16 -30 -10 -4 -13 -2 -7 7 4
6 6 20 5 30 -2 9 2 17 7 17 6 0 11 -11 11 -24z m-50 -26 c9 -16 6 -22 -17 -34
-16 -8 -41 -21 -57 -29 -37 -20 -66 -4 -66 36 0 35 26 46 46 21 14 -18 15 -18
32 3 21 28 48 29 62 3z m-490 0 c0 -5 -4 -10 -10 -10 -5 0 -10 5 -10 10 0 6 5
10 10 10 6 0 10 -4 10 -10z m240 -45 c0 -47 -21 -79 -59 -90 -21 -7 -23 -5
-18 16 4 13 7 45 7 71 0 41 3 47 23 50 38 7 47 -2 47 -47z m83 43 c-2 -5 -3
-23 -3 -41 0 -26 -6 -36 -24 -45 -25 -11 -25 -11 -21 41 2 29 4 53 4 55 1 2
11 2 24 0 12 -2 21 -6 20 -10z m-458 -8 c7 -12 -4 -16 -62 -24 -34 -5 -43 -3
-43 8 0 10 14 16 43 19 23 2 45 4 49 5 4 1 10 -3 13 -8z m75 0 c-20 -13 -40
-13 -40 0 0 6 12 10 28 10 21 0 24 -2 12 -10z m-206 -8 c8 -14 -8 -29 -36 -34
-24 -5 -28 -2 -28 18 0 20 5 24 29 24 17 0 32 -4 35 -8z m405 -19 c-2 -85 -11
-122 -33 -136 -21 -14 -21 -14 -21 67 0 82 5 96 37 96 13 0 18 -8 17 -27z
m-675 -5 c-7 -25 -22 -38 -41 -38 -15 0 -15 5 -7 38 4 15 14 22 31 22 21 0 23
-3 17 -22z m78 -3 c-3 -18 -11 -25 -27 -25 -17 0 -22 5 -20 18 2 9 4 20 4 25
1 4 12 7 25 7 19 0 22 -4 18 -25z m88 5 c0 -15 -7 -20 -25 -20 -18 0 -25 5
-25 20 0 15 7 20 25 20 18 0 25 -5 25 -20z m424 -16 c8 -20 8 -68 0 -116 -5
-28 -15 -42 -38 -56 -64 -38 -65 -37 -49 25 8 30 13 67 13 82 -3 44 -1 53 13
45 10 -6 10 -4 0 7 -21 21 -15 29 21 29 22 0 36 -6 40 -16z m-108 -61 c-9 -90
-33 -161 -58 -174 -20 -11 -21 -9 -14 42 3 30 9 81 12 114 8 81 9 85 40 85
l26 0 -6 -67z m-82 20 c-3 -21 -10 -62 -15 -92 -5 -30 -9 -71 -9 -91 0 -30 -5
-39 -25 -48 -52 -24 -53 -22 -51 120 2 132 2 132 26 139 14 4 37 7 52 8 25 1
26 -1 22 -36z m-138 -114 c-4 -79 -3 -125 4 -134 10 -12 -37 -38 -134 -75
l-29 -11 6 38 c3 21 9 95 13 166 6 117 8 127 27 127 18 0 19 -6 14 -107 -3
-60 -7 -120 -10 -135 -2 -16 1 -32 8 -38 26 -22 36 17 40 152 3 73 5 134 5
136 0 1 14 2 32 2 l31 0 -7 -121z m-389 -19 c-7 -130 -35 -263 -53 -256 -23 9
-46 -24 -42 -61 2 -18 0 -33 -4 -33 -5 0 -27 12 -51 27 -23 15 -69 41 -102 58
-33 17 -60 37 -60 44 0 7 10 27 23 45 13 17 49 67 81 111 58 80 93 119 151
169 27 22 35 24 47 14 13 -11 15 -31 10 -118z m209 26 c-20 -232 -26 -255 -64
-256 -11 0 -13 20 -6 108 7 100 11 167 13 219 1 26 41 36 55 14 5 -8 6 -46 2
-85z m764 89 c0 -5 -69 -35 -79 -34 -5 0 68 38 77 39 1 0 2 -2 2 -5z m-856
-57 c-2 -29 -5 -93 -8 -143 -9 -144 -14 -162 -47 -174 -40 -14 -51 8 -34 68
15 55 45 214 47 256 2 30 13 45 34 45 8 0 10 -18 8 -52z m-293 -26 c-5 -9 -19
-26 -31 -37 -12 -11 -40 -45 -62 -76 -21 -31 -49 -62 -62 -69 -24 -12 -46 -7
-46 10 0 7 199 189 208 190 1 0 -2 -8 -7 -18z m529 -231 c-74 -38 -136 -68
-138 -66 -7 6 11 34 26 39 9 3 28 10 42 15 14 5 61 25 105 45 129 57 111 41
-35 -33z m-180 -78 c-1 -12 -30 -34 -83 -64 l-82 -46 -16 26 c-14 24 -14 27 0
37 17 12 61 24 104 29 15 1 32 3 37 4 6 0 10 8 10 16 0 8 7 15 15 15 8 0 15
-8 15 -17z m-475 -11 c-3 -3 -11 0 -18 7 -9 10 -8 11 6 5 10 -3 15 -9 12 -12z"/>
</g>
</svg>
