<?xml version="1.0" standalone="no"?>
<!DOCTYPE svg PUBLIC "-//W3C//DTD SVG 20010904//EN"
 "http://www.w3.org/TR/2001/REC-SVG-20010904/DTD/svg10.dtd">
<svg version="1.0" xmlns="http://www.w3.org/2000/svg"
 width="326.000000pt" height="260.000000pt" viewBox="0 0 326.000000 260.000000"
 preserveAspectRatio="xMidYMid meet">
<metadata>
Created by potrace 1.16, written by Peter Selinger 2001-2019
</metadata>
<g transform="translate(0.000000,260.000000) scale(0.100000,-0.100000)"
fill="#000000" stroke="none">
<path d="M1026 2491 c-5 -7 -1 -27 8 -46 21 -45 34 -162 34 -308 0 -116 0
-118 -25 -128 -13 -5 -26 -9 -28 -9 -1 0 -6 17 -10 38 -3 20 -13 47 -21 60 -8
12 -12 22 -10 22 3 0 -2 16 -10 35 -7 19 -14 47 -14 62 0 14 -7 55 -16 90 -15
60 -15 65 2 84 12 14 14 23 7 30 -11 11 -92 -29 -147 -74 -35 -29 -31 -46 27
-107 65 -70 113 -140 135 -197 l20 -52 -39 22 c-56 31 -211 184 -208 205 5 58
-16 56 -84 -11 -60 -58 -78 -93 -53 -103 9 -4 23 -1 30 5 11 9 33 1 103 -40
71 -41 156 -95 182 -116 8 -5 -32 -43 -45 -43 -7 0 -28 7 -46 15 -18 8 -95 36
-170 62 -85 29 -138 53 -138 61 0 20 -33 10 -45 -13 -5 -11 -22 -41 -38 -67
-15 -26 -27 -48 -27 -50 0 -2 37 -4 83 -5 46 0 108 -9 138 -18 29 -9 87 -20
127 -25 40 -4 75 -10 78 -13 3 -3 -2 -20 -12 -37 l-19 -30 -160 4 c-178 5
-229 11 -246 32 -36 43 -64 -11 -64 -121 0 -91 -1 -90 85 -62 25 9 86 21 135
27 50 6 114 20 143 31 57 20 97 25 88 10 -3 -4 -52 -27 -108 -51 -57 -23 -126
-52 -154 -65 -28 -14 -64 -23 -80 -22 -27 2 -29 0 -26 -33 7 -94 37 -137 62
-90 6 11 32 31 58 44 147 72 240 121 265 138 28 20 68 21 74 2 4 -11 -86 -73
-284 -199 -69 -44 -93 -64 -93 -80 0 -12 4 -25 9 -30 5 -6 13 -26 18 -45 14
-53 42 -51 89 7 79 97 306 313 311 296 6 -16 -33 -97 -75 -161 -21 -31 -53
-84 -71 -117 -18 -33 -55 -86 -82 -117 -27 -31 -49 -63 -49 -71 0 -10 16 -17
50 -21 27 -4 52 -11 55 -16 8 -14 52 -13 61 1 3 6 1 21 -6 33 -10 20 -6 37 29
122 22 54 47 122 57 149 27 82 91 184 120 191 14 4 29 3 33 -2 5 -5 2 -54 -6
-109 -8 -55 -18 -127 -23 -160 -4 -33 -18 -95 -30 -139 -29 -109 -26 -129 25
-138 22 -3 57 -2 78 4 l38 11 -8 46 c-9 51 -11 446 -3 455 3 3 28 2 55 -2 l50
-7 8 -60 c9 -68 9 -803 0 -853 -5 -28 -9 -33 -27 -28 -83 19 -95 19 -101 -5
-9 -37 -8 -58 9 -144 25 -135 23 -134 136 -75 247 129 342 168 467 191 73 13
126 32 131 47 5 16 -27 15 -126 -3 -102 -20 -416 -25 -434 -7 -9 9 2 12 52 13
59 1 91 3 128 7 6 1 12 6 12 11 0 6 -24 12 -52 14 -38 2 -29 4 32 5 79 2 124
13 104 25 -5 2 -69 8 -141 12 -99 5 -133 11 -133 20 0 14 123 27 215 22 28 -1
62 1 77 4 25 7 28 5 33 -24 2 -18 6 -48 7 -67 2 -27 8 -35 22 -35 16 0 18 10
21 82 2 45 5 85 8 90 3 5 9 47 12 93 4 47 15 105 25 130 10 25 32 90 50 145
38 118 83 210 88 178 2 -11 13 -30 26 -42 l23 -22 27 36 c15 19 35 35 45 35
22 0 161 72 222 115 25 18 57 36 70 40 13 4 40 18 59 31 19 13 40 24 46 24 6
0 40 19 75 42 35 24 82 52 104 63 22 11 60 34 85 50 25 16 62 37 83 47 20 9
37 21 37 26 0 22 167 66 218 57 27 -5 32 -3 32 13 0 32 -42 51 -119 54 -49 2
-71 7 -71 16 0 18 -20 15 -27 -4 -5 -15 -33 -16 -282 -9 -152 4 -314 11 -361
16 -263 28 -384 40 -460 44 -110 7 -140 13 -140 31 0 22 -27 17 -46 -9 l-18
-23 -27 30 c-15 17 -54 42 -88 55 -60 24 -105 25 -193 5 l-26 -6 23 108 c14
60 29 125 35 144 5 19 10 52 10 73 0 21 7 52 16 68 19 38 12 59 -18 58 -13 0
-55 3 -94 7 -51 5 -73 3 -78 -5z m122 -51 c21 0 22 -3 17 -52 -4 -29 -12 -82
-20 -118 -7 -36 -16 -87 -20 -113 -3 -27 -8 -47 -11 -45 -2 3 -6 56 -9 119 -2
63 -9 130 -14 149 -18 57 -15 73 12 66 12 -3 32 -6 45 -6z m-248 -154 c7 -36
10 -70 8 -77 -2 -6 -26 14 -52 45 -27 31 -47 58 -45 60 24 18 56 36 65 36 6 0
17 -29 24 -64z m-145 -167 l60 -62 -70 38 c-38 21 -74 42 -79 46 -9 8 9 39 23
39 4 0 33 -28 66 -61z m-176 -144 c31 -13 89 -34 129 -46 115 -34 94 -34 -118
1 -41 6 -88 15 -103 18 -26 7 -27 8 -12 30 20 28 34 28 104 -3z m796 -33 c10
-15 34 -41 52 -59 38 -37 42 -64 11 -78 -58 -25 -10 -30 285 -26 166 2 327 4
357 6 30 2 148 6 261 9 114 4 233 11 265 16 61 10 171 12 144 3 -8 -2 -42 -18
-75 -33 -147 -70 -225 -104 -285 -125 -36 -13 -101 -41 -145 -64 -97 -49 -323
-114 -378 -108 -48 6 -71 -15 -63 -54 5 -24 2 -27 -27 -32 -105 -18 -132 -26
-143 -42 -11 -15 -22 -16 -81 -10 -37 4 -90 8 -116 8 l-49 1 7 35 c3 20 10 47
14 61 28 83 34 111 24 121 -5 5 -67 13 -137 16 -70 3 -139 8 -154 12 -26 7
-27 11 -27 69 l0 62 -33 6 c-25 5 -38 2 -55 -14 -33 -30 -90 -47 -113 -34 -17
10 -16 11 11 18 17 4 46 17 65 30 53 35 90 41 107 18 14 -19 15 -19 29 0 8 11
12 28 8 38 -3 12 0 18 11 18 12 0 14 6 9 28 -4 15 -13 32 -20 38 -15 12 -18
44 -8 81 5 18 17 23 67 30 80 12 153 -7 182 -45z m-300 7 c4 -11 4 -23 1 -26
-8 -9 -47 28 -40 38 10 16 33 9 39 -12z m670 -34 c284 -32 467 -47 610 -51 83
-2 161 -7 175 -11 31 -10 -116 -18 -555 -31 -181 -6 -358 -12 -393 -13 -34 -1
-64 0 -67 2 -2 3 -1 30 2 62 l6 57 46 0 c25 0 105 -6 176 -15z m-735 -25 c19
-16 40 -29 47 -30 6 0 15 -5 19 -11 9 -15 -33 -5 -99 23 -38 17 -45 23 -36 34
17 21 31 17 69 -16z m70 -16 c0 -9 -37 15 -51 33 -10 12 -5 11 19 -6 17 -12
32 -24 32 -27z m1567 -20 c-3 -3 -12 -4 -19 -1 -8 3 -5 6 6 6 11 1 17 -2 13
-5z m-1637 -28 l35 -13 -30 -6 c-16 -3 -64 -9 -105 -13 l-75 -6 24 26 c20 21
33 26 70 25 25 0 62 -6 81 -13z m-390 -65 l95 -6 -49 -18 c-27 -9 -65 -17 -83
-17 -19 0 -42 -4 -52 -9 -9 -5 -47 -14 -84 -19 l-67 -9 0 42 c0 23 3 45 8 49
4 4 36 4 72 0 36 -4 108 -10 160 -13z m450 -91 c0 -40 -11 -49 -39 -31 -11 7
-9 15 10 40 12 17 24 31 26 31 2 0 3 -18 3 -40z m-260 15 c0 -2 -13 -11 -30
-20 -38 -19 -40 -11 -2 9 31 17 32 18 32 11z m1730 -5 c-8 -5 -19 -10 -25 -10
-5 0 -3 5 5 10 8 5 20 10 25 10 6 0 3 -5 -5 -10z m-60 -23 c0 -6 -104 -73
-145 -94 -74 -37 -150 -80 -186 -104 -19 -13 -69 -39 -110 -57 -41 -19 -90
-42 -110 -51 l-36 -18 -16 44 c-12 33 -13 45 -4 48 7 3 47 16 91 30 132 43
268 96 306 120 19 12 60 30 90 39 30 10 69 24 85 32 33 15 35 16 35 11z
m-1765 -26 c-6 -4 -64 -36 -129 -70 -90 -46 -122 -58 -128 -49 -12 20 -10 28
10 28 10 0 22 4 28 8 5 5 32 17 59 27 60 21 115 44 135 55 20 12 37 13 25 1z
m675 -96 c0 -3 -9 -45 -20 -94 -11 -49 -29 -158 -39 -243 -27 -206 -42 -300
-49 -294 -5 6 -8 79 -16 403 l-5 222 57 4 c31 2 60 4 65 5 4 1 7 0 7 -3z
m-626 -37 c-45 -52 -190 -198 -197 -198 -3 0 -13 13 -21 29 l-15 29 68 45 c37
24 85 54 107 65 22 11 46 28 53 36 8 9 16 16 19 16 3 0 -3 -10 -14 -22z m297
-342 c-4 -42 -3 -76 1 -76 4 0 8 -5 8 -11 0 -6 -12 -9 -27 -7 -27 3 -28 5 -25
48 2 25 10 70 18 100 8 30 15 75 15 100 1 43 2 42 10 -17 4 -33 4 -95 0 -137z
m729 190 c0 -2 -18 -42 -40 -89 -22 -48 -45 -108 -52 -134 l-13 -48 -6 50 c-4
39 -2 53 10 63 14 11 14 13 1 25 -9 6 -16 23 -16 37 0 14 -2 39 -5 55 -4 28
-2 30 36 36 51 8 85 10 85 5z m-300 -32 c92 -6 156 -22 143 -35 -5 -5 -64 -10
-131 -12 l-122 -2 0 34 c0 27 3 32 17 27 9 -4 51 -9 93 -12z m-695 -69 c-8
-19 -22 -51 -30 -70 -8 -19 -22 -35 -30 -35 -20 0 -19 8 9 44 12 17 31 46 40
64 22 43 30 41 11 -3z m837 -17 c7 -4 -31 -8 -84 -8 -105 0 -148 -10 -148 -36
0 -10 5 -14 14 -11 30 12 137 19 180 13 34 -5 44 -11 39 -22 -4 -12 -29 -14
-134 -13 l-129 2 0 38 c0 27 5 39 18 42 28 8 231 4 244 -5z m-41 -108 c42 0
49 -3 49 -20 0 -18 -7 -20 -79 -20 -43 0 -106 -3 -140 -6 -58 -6 -61 -6 -61
14 0 14 8 23 23 27 38 8 101 12 131 9 16 -2 50 -4 77 -4z m4 -77 l47 -6 -5
-46 c-12 -94 -33 -166 -48 -162 -22 5 -220 2 -241 -5 -11 -3 -17 -11 -15 -17
4 -14 45 -17 107 -8 25 3 63 4 85 1 22 -3 48 -2 58 2 14 7 17 4 17 -17 l0 -25
-122 0 c-68 1 -138 -1 -156 -4 l-33 -5 7 37 c17 91 26 96 180 88 54 -3 106 -1
114 4 27 17 -37 30 -146 30 -96 0 -104 1 -104 19 0 11 6 23 13 28 6 4 67 8
134 8 75 0 123 4 124 10 1 17 -81 26 -178 21 -51 -3 -93 -2 -93 3 0 25 29 40
85 44 33 2 74 4 91 5 17 1 53 -1 79 -5z m-243 -395 c-5 -5 -19 -5 -33 1 -22 8
-22 9 9 9 19 -1 29 -5 24 -10z m-117 -108 c3 -5 11 -7 18 -5 21 8 259 12 245
4 -7 -4 -56 -25 -108 -48 -52 -22 -117 -52 -144 -66 -27 -14 -55 -25 -61 -25
-7 0 -17 25 -22 58 -6 31 -14 65 -18 75 -6 15 -1 17 38 17 25 0 48 -4 52 -10z"/>
<path d="M540 930 c-20 -16 -22 -22 -11 -29 23 -15 75 -191 56 -191 -3 0 -24
9 -46 19 -22 11 -53 23 -69 26 -51 11 -52 -8 -22 -245 6 -46 10 -55 29 -58 14
-2 23 3 27 16 7 22 94 87 104 78 3 -4 6 -55 7 -114 0 -100 1 -107 20 -107 17
0 20 7 21 40 0 22 6 54 12 70 6 17 19 56 28 87 24 84 30 89 84 77 25 -6 52
-17 62 -26 21 -19 51 -10 46 14 -4 19 -45 43 -92 53 l-30 6 51 36 c27 19 58
38 69 42 10 3 37 22 59 41 56 48 20 47 -58 -1 -32 -20 -61 -34 -63 -31 -3 3
-17 -7 -31 -21 -44 -44 -38 -9 17 108 28 60 49 114 45 120 -4 6 -61 10 -148
10 -126 0 -145 -3 -167 -20z m214 -107 c-56 -150 -68 -167 -100 -145 -6 4 -14
23 -16 42 -3 19 -13 61 -22 93 -9 32 -16 62 -16 67 0 6 40 10 90 10 l89 0 -25
-67z m-209 -140 c50 -25 55 -30 55 -59 0 -28 -7 -36 -51 -64 -28 -17 -52 -30
-54 -28 -1 2 -5 31 -8 66 -4 35 -9 67 -13 73 -6 10 1 39 10 39 3 0 30 -12 61
-27z"/>
</g>
</svg>
