<?xml version="1.0" standalone="no"?>
<!DOCTYPE svg PUBLIC "-//W3C//DTD SVG 20010904//EN"
 "http://www.w3.org/TR/2001/REC-SVG-20010904/DTD/svg10.dtd">
<svg version="1.0" xmlns="http://www.w3.org/2000/svg"
 width="296.000000pt" height="146.000000pt" viewBox="0 0 296.000000 146.000000"
 preserveAspectRatio="xMidYMid meet">
<metadata>
Created by potrace 1.16, written by Peter Selinger 2001-2019
</metadata>
<g transform="translate(0.000000,146.000000) scale(0.100000,-0.100000)"
fill="#000000" stroke="none">
<path d="M1446 1361 c-14 -27 -33 -56 -42 -65 -19 -19 -11 -51 11 -42 17 6 21
-9 5 -19 -7 -4 -6 -13 1 -26 7 -14 8 -60 4 -137 -7 -116 -11 -236 -14 -384
l-1 -78 -28 0 c-16 0 -37 9 -47 20 -10 11 -31 20 -47 20 -20 0 -41 12 -68 38
-35 32 -41 44 -45 91 -4 43 -1 59 17 85 36 53 59 66 101 59 29 -4 37 -2 37 10
0 9 -8 18 -17 21 -11 3 -9 4 6 3 35 -3 38 21 4 35 -15 7 -41 23 -56 35 -16 13
-34 23 -41 23 -20 0 -54 42 -38 47 6 3 12 13 12 23 0 26 108 153 158 185 48
32 60 72 17 61 -13 -3 -35 -16 -49 -29 -22 -20 -214 -121 -278 -146 -35 -13
-36 -34 -3 -49 35 -16 40 -35 19 -68 -18 -26 -18 -27 11 -50 17 -13 42 -28 57
-34 16 -5 41 -15 58 -21 l29 -11 -27 -22 c-41 -33 -153 -106 -164 -106 -19 0
-68 -31 -68 -43 0 -6 18 -23 40 -36 21 -14 40 -34 42 -45 2 -15 13 -22 38 -26
33 -6 124 -53 135 -70 7 -11 -118 -74 -210 -106 -44 -14 -84 -30 -89 -34 -4
-5 1 -21 12 -37 10 -15 27 -40 36 -56 20 -34 45 -34 76 -2 41 43 35 18 -10
-41 -23 -31 -38 -60 -34 -64 11 -10 209 -80 246 -87 15 -3 35 -14 44 -24 9
-10 27 -19 39 -19 12 0 46 -19 75 -42 79 -63 81 -63 227 53 32 25 76 56 98 67
22 11 63 36 90 55 28 19 97 63 155 97 119 71 130 78 185 119 22 17 54 38 70
47 17 9 48 32 70 51 22 18 51 42 65 53 14 11 39 31 55 44 l30 24 68 -69 c37
-38 67 -73 67 -77 0 -10 70 -82 79 -82 22 0 16 20 -26 78 -42 59 -45 67 -33
86 25 39 58 112 69 152 13 48 34 69 79 79 38 8 33 28 -6 21 -15 -2 -63 -17
-107 -34 -44 -16 -105 -35 -136 -42 -52 -12 -58 -11 -108 15 -30 15 -79 44
-110 65 -31 21 -68 41 -84 45 -15 4 -37 20 -50 35 -12 15 -56 44 -97 64 -41
21 -95 47 -119 59 -24 12 -53 34 -64 49 -11 15 -39 36 -62 47 -24 11 -63 37
-88 58 -25 21 -67 52 -93 68 -26 17 -66 42 -88 57 -23 14 -47 27 -53 27 -7 1
-24 -21 -37 -48z m95 -19 c14 -9 36 -28 50 -41 13 -13 38 -29 54 -36 17 -8 43
-27 58 -43 l29 -30 -49 15 c-26 8 -56 19 -65 24 -10 5 -24 9 -32 9 -7 0 -19 6
-25 14 -7 8 -26 17 -44 20 -56 11 -62 19 -41 55 21 36 29 37 65 13z m-289
-109 c-44 -61 -60 -72 -99 -69 -58 5 -53 11 67 72 25 13 46 24 48 24 2 0 -6
-12 -16 -27z m276 -4 c35 -17 43 -26 39 -43 -3 -11 -13 -67 -23 -123 -17 -98
-19 -102 -41 -97 -14 4 -23 2 -23 -6 0 -6 9 -14 20 -17 12 -3 20 -14 20 -26 0
-24 -25 -192 -41 -277 -6 -30 -13 -71 -15 -90 -2 -19 -6 -51 -9 -70 -2 -19 -8
-50 -14 -68 -5 -18 -7 -41 -5 -50 5 -14 4 -15 -5 -2 -9 14 -8 68 4 185 21 194
34 606 21 668 -7 32 -6 37 10 37 10 0 37 -10 62 -21z m106 -56 c-4 -10 -8 -38
-9 -63 -2 -57 -14 -133 -25 -150 -4 -7 -15 -10 -24 -7 -16 6 -15 48 4 117 6
19 10 51 10 71 0 41 5 49 33 49 15 0 17 -4 11 -17z m151 1 c20 -8 35 -17 33
-20 -6 -5 -78 24 -78 31 0 7 4 6 45 -11z m-81 -10 c23 -15 24 -18 19 -117 -3
-56 -9 -106 -13 -111 -5 -4 -22 -5 -40 -1 -31 7 -32 8 -26 49 3 22 9 70 12
106 9 99 9 100 48 74z m98 -45 c22 -9 24 -17 26 -105 l3 -95 -43 3 -43 3 3 94
c3 118 6 123 54 100z m84 -47 c20 -16 21 -24 17 -98 l-5 -81 -29 10 c-21 8
-27 16 -24 32 2 11 4 50 4 88 1 37 4 67 9 67 4 0 17 -8 28 -18z m-734 -9 c31
-37 30 -43 -4 -29 -18 8 -34 21 -36 30 -5 21 21 20 40 -1z m827 -37 c6 -7 10
-43 9 -85 -3 -72 -12 -85 -44 -63 -11 7 -25 126 -17 150 6 16 38 15 52 -2z
m-754 -16 c3 -6 -1 -7 -9 -4 -18 7 -21 14 -7 14 6 0 13 -4 16 -10z m845 -38
c18 -15 20 -21 11 -45 -6 -16 -11 -39 -11 -53 0 -17 -6 -24 -19 -24 -11 0 -23
4 -26 10 -5 8 -9 95 -6 123 2 13 28 7 51 -11z m139 -81 c46 -28 90 -51 96 -51
7 0 20 -10 31 -22 l19 -21 -40 7 c-22 5 -53 9 -70 9 -25 2 -31 7 -33 30 -2 15
-8 27 -13 27 -6 0 -9 -10 -7 -22 2 -15 -2 -23 -12 -23 -11 0 -15 11 -13 43 2
50 -13 47 -23 -4 -5 -25 -11 -34 -23 -32 -12 2 -17 17 -19 62 -4 68 -10 69
107 -3z m-617 -14 c3 -40 -3 -105 -19 -227 -7 -50 -10 -55 -35 -58 -18 -2 -28
1 -28 10 0 36 22 197 30 223 5 17 11 46 14 65 2 19 5 36 5 37 1 1 8 0 15 -3 9
-3 16 -23 18 -47z m109 -32 c-8 -188 -10 -218 -18 -225 -4 -4 -23 -11 -42 -15
l-33 -7 6 43 c3 24 9 95 12 157 l7 113 35 -3 36 -3 -3 -60z m119 25 c5 -9 7
-19 5 -22 -3 -2 -7 -47 -11 -99 -3 -52 -7 -100 -9 -106 -3 -8 -21 -13 -46 -13
l-41 0 7 48 c4 26 7 78 6 115 -3 95 1 104 44 99 20 -2 40 -12 45 -22z m53 -1
c22 -10 23 -16 20 -72 -5 -93 -13 -147 -23 -147 -5 0 -15 -3 -23 -6 -12 -4
-14 5 -12 53 2 32 4 86 4 121 1 34 3 62 6 62 2 0 15 -5 28 -11z m109 -43 c4
-5 10 -43 14 -84 8 -85 3 -92 -60 -92 -32 0 -37 3 -31 18 4 9 10 54 13 99 l4
83 27 -7 c14 -3 29 -11 33 -17z m-882 -6 c-16 -31 -70 -54 -70 -30 0 6 6 10
13 10 6 0 23 9 37 20 31 25 33 25 20 0z m960 0 c9 0 5 -124 -5 -140 -3 -6 -12
-10 -18 -10 -8 0 -12 25 -12 80 0 63 3 79 13 75 8 -3 17 -5 22 -5z m586 -6
c-3 -9 -9 -28 -13 -42 -7 -29 -50 -103 -66 -113 -11 -7 -26 6 -80 72 l-37 46
47 13 c27 6 66 18 88 25 55 18 68 18 61 -1z m-508 -64 c3 -52 -5 -69 -34 -70
-10 0 -9 84 2 118 10 31 29 2 32 -48z m48 1 c-3 -20 -6 -40 -6 -46 0 -5 -5 -3
-9 5 -5 8 -8 31 -6 50 4 44 3 42 16 35 6 -4 8 -23 5 -44z m64 5 c0 -39 -26
-69 -40 -46 -5 7 -7 25 -5 39 2 14 4 29 4 34 1 4 10 7 21 7 16 0 20 -7 20 -34z
m-1097 -13 c4 -20 5 -38 3 -40 -6 -6 -66 10 -66 17 0 11 40 60 49 60 5 0 11
-17 14 -37z m1142 6 c0 -14 -7 -25 -16 -27 -12 -2 -15 4 -11 28 5 36 27 35 27
-1z m108 4 c20 -12 2 -23 -38 -23 -25 0 -45 2 -45 4 0 2 -3 12 -7 21 -5 15 -1
16 38 10 24 -4 47 -9 52 -12z m-79 -88 c-38 -20 -92 -54 -119 -76 -26 -22 -77
-56 -113 -76 -52 -29 -66 -33 -73 -22 -5 8 -7 23 -4 34 2 11 5 41 5 68 0 41 3
47 20 47 19 0 21 -5 18 -62 -2 -51 0 -63 12 -63 11 0 17 17 22 64 6 58 18 80
41 81 4 0 7 -18 7 -40 0 -22 4 -40 10 -40 10 0 23 38 19 56 -4 23 4 37 9 16 9
-30 26 -33 30 -4 4 23 42 32 42 10 1 -8 6 -6 14 5 8 10 31 20 52 23 21 3 40 7
43 9 2 3 11 5 20 5 9 0 -16 -16 -55 -35z m-336 -120 c-2 -55 -7 -85 -14 -85
-7 0 -47 -18 -90 -39 -44 -22 -103 -52 -133 -66 l-54 -27 7 89 c13 183 13 183
69 183 l29 0 -8 -90 c-6 -79 -5 -90 10 -96 23 -9 41 10 31 33 -11 28 -5 157 8
165 31 20 36 -4 23 -102 -7 -43 5 -82 20 -67 4 4 9 22 10 40 2 17 6 55 10 84
6 49 8 52 38 56 17 2 34 5 39 5 4 1 6 -36 5 -83z m-620 29 l33 -6 -6 -62 c-3
-33 -7 -108 -10 -165 -2 -57 -9 -109 -14 -114 -22 -22 -245 131 -234 159 4 10
-2 17 -16 21 -26 7 -27 20 -1 28 11 3 50 40 87 81 73 82 63 78 161 58z m311
-41 c-9 -52 -17 -132 -18 -176 -1 -30 -46 -81 -63 -71 -8 5 -1 187 11 276 1 6
28 14 62 17 14 1 15 -6 8 -46z m-469 34 c0 -14 -96 -97 -144 -125 -61 -36 -60
-36 -86 9 -8 14 0 19 43 33 29 9 81 32 117 51 72 37 70 36 70 32z m345 -99
c-5 -51 -8 -118 -9 -148 -1 -53 -2 -55 -35 -64 -44 -12 -66 11 -49 53 5 14 12
42 14 61 2 19 6 44 8 55 2 12 7 46 11 78 7 55 8 57 37 57 l31 0 -8 -92z m405
-59 c-8 -5 -39 -24 -67 -42 -83 -51 -216 -143 -243 -170 -33 -31 -111 -87
-121 -87 -4 0 -19 19 -33 42 l-25 42 31 13 c16 7 44 13 62 13 20 0 39 9 55 25
13 14 34 25 46 25 13 0 30 6 38 14 16 17 247 135 262 135 6 0 3 -5 -5 -10z
m-668 -188 c51 -28 79 -51 64 -51 -3 0 -26 11 -52 25 -26 14 -55 25 -65 25 -9
0 -39 11 -66 24 -26 13 -63 27 -80 31 -37 7 -41 23 -17 65 l17 28 71 -57 c39
-32 97 -72 128 -90z"/>
<path d="M640 1111 c-41 -43 -64 -64 -50 -47 14 17 28 32 33 34 4 2 7 10 7 19
0 30 -35 6 -97 -67 -175 -206 -251 -276 -311 -286 -27 -5 -42 -19 -42 -40 0
-6 22 -14 49 -18 60 -8 84 -31 75 -74 -6 -28 -3 -33 22 -42 16 -6 43 -24 59
-40 171 -164 161 -151 140 -203 -6 -13 1 -20 29 -32 19 -8 46 -15 60 -15 13 0
26 -7 30 -15 6 -17 52 -20 62 -4 3 6 9 27 11 47 8 56 81 192 134 247 26 28 66
69 88 93 23 23 41 47 41 52 0 24 -29 5 -90 -58 -69 -72 -166 -157 -208 -182
-14 -8 -35 -25 -48 -38 -24 -23 -44 -29 -44 -12 0 5 -23 34 -52 62 l-52 53 -1
98 c-1 53 -6 102 -12 108 -7 7 -20 2 -42 -17 -18 -14 -34 -24 -37 -21 -4 3
119 261 131 275 6 6 161 -75 206 -107 24 -17 69 -49 99 -71 57 -41 97 -53 86
-25 -4 10 1 15 14 15 11 0 20 7 20 15 0 8 -4 15 -8 15 -5 0 -45 35 -88 78 -86
85 -115 141 -118 229 0 25 -5 48 -11 49 -5 1 -44 -32 -85 -75z m55 -58 c4 -38
15 -69 31 -90 28 -38 24 -42 -13 -13 -14 11 -32 20 -41 20 -8 0 -30 9 -49 21
l-34 21 43 48 c24 26 46 48 49 49 4 1 10 -25 14 -56z m-315 -267 c-18 -31 -35
-58 -39 -60 -3 -2 -15 2 -26 11 -19 14 -19 15 15 41 19 15 44 37 55 49 31 34
29 20 -5 -41z m58 -172 l-3 -26 -22 20 c-28 23 -29 38 -6 51 22 12 36 -8 31
-45z m305 -151 c-12 -34 -66 -113 -78 -113 -6 0 -19 6 -29 13 -17 12 -14 17
40 65 63 55 77 62 67 35z"/>
<path d="M1380 629 c0 -5 5 -7 10 -4 6 3 10 8 10 11 0 2 -4 4 -10 4 -5 0 -10
-5 -10 -11z"/>
</g>
</svg>
