<?xml version="1.0" standalone="no"?>
<!DOCTYPE svg PUBLIC "-//W3C//DTD SVG 20010904//EN"
 "http://www.w3.org/TR/2001/REC-SVG-20010904/DTD/svg10.dtd">
<svg version="1.0" xmlns="http://www.w3.org/2000/svg"
 width="252.000000pt" height="190.000000pt" viewBox="0 0 252.000000 190.000000"
 preserveAspectRatio="xMidYMid meet">
<metadata>
Created by potrace 1.16, written by Peter Selinger 2001-2019
</metadata>
<g transform="translate(0.000000,190.000000) scale(0.100000,-0.100000)"
fill="#000000" stroke="none">
<path d="M1510 1825 c-18 -14 -49 -28 -67 -31 -53 -10 -56 -30 -17 -102 20
-35 34 -65 32 -67 -7 -7 -316 35 -353 48 -22 8 -60 18 -85 22 -24 4 -55 14
-67 22 -29 19 -50 11 -55 -19 -2 -16 -9 -23 -23 -22 -38 3 -100 16 -117 25 -9
5 -55 12 -102 15 -48 4 -89 11 -92 16 -3 4 -13 8 -22 8 -35 -1 -222 65 -222
78 0 9 -10 12 -28 11 -15 -2 -33 0 -40 5 -26 16 -40 -12 -37 -72 2 -31 -2 -78
-7 -104 -12 -52 0 -82 29 -71 14 5 15 1 9 -28 -4 -19 -10 -54 -12 -77 -2 -24
-9 -52 -14 -62 -14 -26 -12 -57 3 -63 6 -2 24 4 39 15 31 21 108 38 171 36 25
0 50 3 56 6 28 18 7 -15 -26 -42 -50 -38 -181 -122 -192 -122 -5 0 -11 -7 -15
-15 -6 -17 76 -105 98 -105 8 0 21 11 29 24 9 13 34 45 57 72 22 27 44 54 48
59 93 128 92 127 131 120 20 -3 47 -14 60 -23 13 -9 29 -20 35 -25 6 -4 38
-19 71 -33 l59 -26 -54 -34 c-30 -19 -58 -34 -62 -34 -4 0 -31 -11 -60 -24
-29 -13 -75 -30 -103 -39 -163 -49 -192 -56 -211 -51 -12 3 -26 -1 -33 -10
-10 -12 -5 -22 33 -59 35 -33 45 -49 40 -62 -7 -16 -3 -17 29 -12 21 3 58 20
83 36 25 17 52 31 60 31 8 0 13 4 10 9 -7 11 199 151 223 151 20 0 41 -44 41
-86 0 -13 4 -25 9 -28 4 -3 11 -25 15 -48 4 -23 14 -63 23 -90 8 -26 13 -54
10 -61 -8 -22 -182 -69 -329 -90 -85 -12 -102 -27 -68 -59 14 -13 20 -31 20
-62 0 -58 22 -77 53 -48 12 12 67 42 122 68 55 25 122 57 149 70 66 32 82 31
95 -7 21 -60 19 -61 -112 -104 -67 -22 -142 -48 -167 -58 -25 -10 -64 -19 -88
-19 -56 -1 -69 -18 -48 -62 9 -19 16 -48 16 -65 0 -44 23 -49 59 -12 17 17 35
31 41 31 10 0 43 17 64 33 6 4 68 36 137 70 125 61 126 62 142 41 25 -33 39
-93 46 -194 5 -78 9 -95 23 -98 9 -2 26 6 37 17 23 23 153 91 174 91 7 0 18 5
24 11 14 14 545 10 560 -4 3 -4 -8 -42 -25 -84 -37 -97 -42 -126 -21 -131 11
-2 21 12 34 45 55 145 195 374 296 481 59 63 50 71 -72 69 -94 -2 -103 -4
-117 -26 -12 -18 -13 -27 -4 -41 6 -10 8 -21 5 -24 -8 -8 -138 1 -273 19 -58
8 -126 17 -152 20 -42 5 -48 9 -48 30 0 12 -7 26 -16 29 -14 5 -15 19 -9 109
5 56 8 112 8 124 -1 13 2 21 6 18 4 -2 5 10 3 27 -3 21 -1 29 7 24 6 -4 11
-18 11 -32 0 -36 28 -42 53 -11 12 14 37 32 54 41 l33 16 13 -32 c8 -18 19
-50 26 -71 14 -43 48 -68 57 -42 4 8 2 21 -4 28 -12 16 -24 63 -28 109 -2 34
1 38 34 53 21 8 50 22 65 30 41 22 45 20 57 -27 31 -121 65 -218 76 -218 20 0
22 22 7 70 -35 111 -54 184 -51 198 3 14 83 47 218 92 30 9 79 27 109 39 30
12 77 27 105 33 64 13 126 44 126 62 0 19 -32 26 -126 26 -58 0 -85 4 -93 14
-7 8 -28 16 -49 19 -20 3 -80 12 -132 21 -52 9 -126 21 -164 26 -39 6 -71 12
-72 13 -5 5 -8 232 -3 246 8 29 -32 22 -73 -12 -24 -19 -52 -37 -63 -39 -14
-3 -19 -11 -17 -28 1 -13 7 -27 13 -31 6 -3 10 -8 8 -10 -1 -2 6 -28 15 -57
10 -29 16 -56 13 -59 -11 -10 -107 21 -112 36 -3 9 -7 58 -10 110 -2 52 -8 98
-13 103 -4 4 -23 -3 -42 -17z m-1195 -65 c24 0 188 -51 182 -57 -2 -2 -42 -10
-88 -17 -46 -8 -96 -17 -111 -21 l-28 -7 0 63 c0 49 3 60 12 51 7 -7 21 -12
33 -12z m1434 -77 c1 -54 -1 -95 -5 -90 -4 4 -20 37 -35 74 l-27 68 27 22 c14
12 29 22 32 23 3 0 6 -44 8 -97z m-225 35 c9 -77 7 -98 -6 -98 -13 1 -76 116
-67 123 7 5 53 26 60 26 3 1 9 -23 13 -51z m-474 -74 c41 -9 120 -22 175 -29
100 -13 99 -13 -95 -8 -107 3 -196 6 -197 7 -1 0 1 13 4 27 3 18 10 25 21 23
10 -2 51 -11 92 -20z m-390 9 c36 -3 59 -8 53 -10 -7 -3 -13 -12 -13 -22 0
-22 -19 -41 -42 -41 -11 0 -33 -24 -56 -60 l-38 -61 -60 31 c-32 17 -61 35
-64 39 -3 5 -26 18 -53 29 -43 19 -77 43 -77 55 0 5 52 16 154 31 103 15 119
15 196 9z m202 -18 c9 -4 13 -17 10 -41 l-4 -36 173 7 c113 5 206 4 264 -4 90
-11 153 -19 167 -20 10 -1 42 -74 58 -131 7 -25 16 -49 20 -55 5 -5 11 -26 15
-46 7 -37 7 -37 -35 -44 -32 -5 -45 -3 -60 10 -21 19 -40 13 -40 -14 0 -14
-13 -23 -45 -32 -25 -8 -55 -23 -65 -34 -20 -21 -20 -22 1 -76 27 -71 36 -103
63 -234 13 -60 29 -122 36 -138 10 -21 11 -35 2 -64 -9 -30 -9 -40 2 -51 12
-12 18 -11 40 3 15 10 50 19 79 21 28 2 91 7 138 10 58 5 92 3 108 -5 12 -7
31 -9 42 -6 17 6 18 9 8 22 -11 13 -8 14 27 8 21 -4 44 -8 50 -10 11 -3 -8
-91 -36 -164 l-13 -34 -161 8 c-89 4 -234 8 -323 10 -225 5 -250 10 -275 51
-11 18 -28 36 -39 39 -10 4 -19 13 -19 20 0 8 -10 21 -22 30 l-23 16 24 18
c14 10 50 29 80 41 128 50 180 76 181 88 0 18 -35 15 -78 -7 -43 -22 -211 -76
-217 -70 -2 3 -8 24 -14 48 l-9 43 64 29 c35 16 67 29 72 29 4 0 25 9 46 19
42 22 85 39 135 55 46 15 40 31 -12 31 -35 -1 -232 -48 -289 -70 -17 -7 -18 2
-12 131 3 77 12 173 19 214 12 75 6 105 -19 97 -6 -2 -16 3 -22 11 -10 14 -17
11 -53 -17 -31 -25 -41 -29 -41 -17 0 9 -11 22 -25 28 -14 6 -25 18 -25 27 0
24 -147 81 -178 69 -36 -13 -26 2 68 101 71 74 90 89 117 90 17 1 38 -1 45 -4z
m515 -41 c-3 -3 -12 -4 -19 -1 -8 3 -5 6 6 6 11 1 17 -2 13 -5z m-955 -100
l63 -34 -40 -1 c-48 -2 -71 -4 -124 -13 -38 -6 -55 4 -31 19 6 3 10 19 10 34
0 15 3 31 6 34 11 10 49 -2 116 -39z m1293 12 c14 -22 58 -125 69 -163 6 -18
1 -23 -41 -37 -89 -28 -93 -27 -112 29 -39 112 -51 154 -51 174 0 20 4 22 61
20 49 -2 63 -6 74 -23z m215 -7 c52 -7 112 -12 133 -12 26 1 45 -5 58 -18 14
-14 34 -19 77 -20 56 0 55 -1 -93 -44 -82 -24 -177 -52 -210 -63 l-60 -20 -11
37 c-6 20 -14 65 -18 99 -7 59 -6 63 11 58 10 -2 61 -10 113 -17z m-1500 -216
c0 -5 -16 -25 -34 -47 -32 -37 -35 -38 -56 -23 l-22 15 29 18 c15 9 37 23 48
30 23 15 35 17 35 7z m526 -20 c-11 -36 -26 -160 -26 -223 -1 -69 -12 -67 -25
5 -4 22 -12 46 -18 53 -5 7 -12 25 -13 40 -2 15 -6 41 -9 57 -5 27 -1 33 37
57 52 32 61 34 54 11z m839 7 c6 -10 -61 -44 -111 -56 -18 -5 -24 -2 -24 11 0
9 9 19 20 22 11 3 20 10 20 16 0 6 3 8 6 5 3 -3 17 -2 32 2 38 12 50 12 57 0z
m-197 -70 c2 -21 -3 -28 -35 -40 -21 -8 -41 -16 -44 -18 -10 -5 -30 61 -22 69
10 9 51 17 78 15 14 -1 21 -9 23 -26z m-180 -67 c-6 -32 -12 -69 -15 -83 -6
-22 -7 -23 -11 -5 -2 11 -13 39 -23 62 -25 56 -24 68 8 70 15 0 29 6 31 12 2
6 7 9 11 6 4 -2 4 -30 -1 -62z m-849 -27 c-35 -23 -79 -51 -97 -60 -32 -17
-34 -17 -48 1 -19 26 -18 28 24 42 20 7 46 17 57 22 21 10 104 36 119 38 4 1
-20 -19 -55 -43z m117 -366 c-65 -33 -120 -60 -121 -60 -2 0 -5 14 -7 31 -5
35 5 43 68 53 22 4 57 13 76 19 20 7 51 13 69 14 27 2 11 -10 -85 -57z m1392
20 c-5 -15 -130 -191 -134 -187 -4 4 18 90 26 102 4 6 11 29 15 53 l7 42 45 0
c25 0 43 -4 41 -10z m-453 -50 c12 -5 -14 -9 -68 -11 -66 -3 -87 -1 -87 9 0
14 118 15 155 2z m-873 -139 c-30 -15 -53 -31 -51 -37 1 -5 -15 -12 -35 -15
-20 -3 -42 -11 -49 -18 -19 -19 -37 -12 -37 14 0 17 5 25 18 25 10 0 23 5 28
10 10 10 134 46 164 48 8 1 -9 -11 -38 -27z m428 -116 c1 -5 -21 -20 -49 -32
l-51 -23 0 44 0 43 49 -11 c27 -6 50 -15 51 -21z"/>
</g>
</svg>
