<?xml version="1.0" standalone="no"?>
<!DOCTYPE svg PUBLIC "-//W3C//DTD SVG 20010904//EN"
 "http://www.w3.org/TR/2001/REC-SVG-20010904/DTD/svg10.dtd">
<svg version="1.0" xmlns="http://www.w3.org/2000/svg"
 width="143.000000pt" height="134.000000pt" viewBox="0 0 143.000000 134.000000"
 preserveAspectRatio="xMidYMid meet">
<metadata>
Created by potrace 1.16, written by Peter Selinger 2001-2019
</metadata>
<g transform="translate(0.000000,134.000000) scale(0.100000,-0.100000)"
fill="#000000" stroke="none">
<path d="M1066 1152 c-3 -3 -6 -16 -6 -29 0 -13 -7 -37 -15 -52 -14 -28 -64
-48 -230 -94 -11 -4 -51 -15 -90 -27 -109 -32 -297 -72 -330 -71 -16 1 -36 8
-45 16 -18 16 -58 20 -76 7 -6 -4 -10 -18 -9 -32 1 -14 -4 -40 -11 -59 -18
-43 -18 -44 5 -38 16 4 22 -4 33 -40 18 -61 31 -70 61 -41 40 40 130 88 113
60 -2 -4 -12 -61 -21 -127 -10 -66 -19 -121 -20 -123 -9 -11 -86 58 -95 86 -7
17 -18 32 -26 32 -25 0 -65 -32 -60 -47 3 -8 -5 -36 -19 -63 -14 -27 -25 -60
-25 -74 0 -14 -4 -28 -10 -31 -5 -3 -10 -12 -10 -20 0 -9 15 -13 53 -12 63 1
128 -11 142 -27 6 -6 27 -12 47 -13 53 -2 166 -40 246 -80 105 -54 265 -123
285 -123 17 0 18 -5 12 -37 -18 -92 -18 -93 21 -93 31 0 34 2 24 19 -15 29
-12 55 10 83 11 15 15 29 10 34 -11 11 7 102 49 254 24 85 65 242 86 330 8 32
148 375 155 380 5 3 10 14 12 24 2 16 -5 21 -32 27 -19 4 -38 5 -42 3 -9 -6
-122 -5 -160 0 -15 2 -29 2 -32 -2z m209 -43 c6 -9 -36 -137 -71 -216 -33 -74
-87 -237 -119 -362 -20 -74 -37 -137 -40 -139 -9 -10 3 263 18 388 30 247 40
311 50 317 5 3 32 7 59 8 27 2 52 6 55 9 10 10 41 7 48 -5z m-219 -128 c-3 -5
-11 -53 -16 -107 -15 -145 -19 -175 -27 -187 -5 -8 -24 -347 -22 -397 3 -69 0
-113 -7 -120 -6 -6 -22 -5 -42 2 -28 11 -32 17 -32 50 0 20 6 57 14 80 20 59
25 104 31 247 2 68 7 139 11 157 4 22 2 34 -5 34 -14 0 -11 11 -24 -95 -12
-92 -30 -116 -35 -48 -2 28 11 71 54 168 31 72 62 151 70 178 8 26 19 47 25
47 6 0 8 -4 5 -9z m-53 -13 c5 -14 -27 -104 -66 -188 l-26 -55 -1 48 c0 27 5
79 11 116 10 59 15 69 38 78 36 15 39 15 44 1z m-208 -37 c-38 -16 -112 -47
-163 -70 -96 -42 -118 -49 -107 -31 4 6 2 17 -4 24 -8 9 11 17 87 35 54 12
127 33 162 46 90 33 110 30 25 -4z m61 -107 c-31 -64 -58 -115 -61 -113 -6 7
23 162 36 185 10 19 69 56 78 48 2 -1 -22 -55 -53 -120z m-56 73 c0 -1 -22
-52 -49 -112 -57 -127 -78 -141 -73 -50 4 75 28 129 67 149 27 13 55 20 55 13z
m-302 -39 c-2 -7 -34 -29 -71 -48 -37 -18 -67 -40 -67 -47 0 -7 -4 -13 -9 -13
-11 0 -20 24 -26 69 l-4 31 62 1 c34 0 71 4 82 9 29 12 37 12 33 -2z m156 -52
c-14 -24 -32 -47 -40 -50 -8 -3 -12 -10 -9 -16 3 -5 1 -10 -4 -10 -12 0 -14
32 -5 67 5 18 53 52 76 53 4 0 -4 -20 -18 -44z m221 -224 c-3 -4 -22 2 -41 13
-33 18 -35 22 -30 54 3 20 15 48 26 63 11 15 20 34 20 43 0 8 6 24 13 35 10
17 12 3 15 -91 1 -61 0 -114 -3 -117z m-335 198 c0 -5 -2 -10 -4 -10 -3 0 -8
5 -11 10 -3 6 -1 10 4 10 6 0 11 -4 11 -10z m226 -126 c-5 -12 -46 -8 -46 5 0
3 10 29 22 58 l23 51 3 -50 c2 -28 1 -56 -2 -64z m-258 59 c-15 -18 -21 -9
-13 18 6 16 9 18 16 8 4 -8 3 -19 -3 -26z m142 6 c0 -11 -4 -18 -10 -14 -5 3
-7 12 -3 20 7 21 13 19 13 -6z m-90 -28 c0 -9 -5 -32 -10 -51 -6 -19 -13 -64
-16 -100 -7 -66 -10 -99 -13 -112 -2 -14 -18 -8 -45 17 -30 28 -33 45 -8 46
15 1 15 2 1 6 -15 4 -15 10 0 82 11 49 26 90 42 108 25 31 49 33 49 4z m85
-123 c-8 -114 -11 -123 -40 -136 -46 -21 -55 -16 -55 31 1 74 16 127 46 158
47 50 56 40 49 -53z m109 37 c14 -14 14 -47 1 -92 -4 -11 -75 -53 -90 -53 -3
0 -5 24 -5 54 0 83 51 133 94 91z m76 -44 l31 -19 -32 -11 c-18 -6 -34 -11
-35 -11 -2 0 -4 14 -4 30 0 35 0 35 40 11z m-423 -101 c19 -28 13 -74 -11 -78
-21 -4 -146 30 -146 40 0 3 10 28 22 55 20 44 23 53 27 68 2 9 93 -63 108 -85z
m517 54 c12 -32 5 -132 -14 -202 -11 -39 -20 -81 -20 -92 0 -11 -2 -20 -5 -20
-19 0 -116 52 -121 65 -10 26 13 204 28 219 8 7 29 17 46 21 31 6 32 6 32 -27
0 -18 -5 -62 -10 -98 -24 -158 -24 -153 -9 -148 9 3 16 27 21 69 7 77 17 147
22 174 3 11 5 28 5 38 1 21 17 22 25 1z m-178 -121 c-12 -127 -15 -131 -66
-83 -27 25 -31 35 -28 72 3 40 6 44 48 65 25 12 47 22 49 22 2 1 0 -34 -3 -76z
m-267 14 c14 -17 4 -27 -26 -27 -21 0 -22 3 -13 20 13 23 23 25 39 7z m153
-22 c-6 -32 -16 -36 -47 -15 l-29 19 24 10 c36 14 56 9 52 -14z m-72 -37 c27
-12 50 -26 50 -31 0 -5 -8 -6 -17 -2 -51 22 -90 34 -108 35 -17 0 -17 2 -5 10
21 13 23 13 80 -12z"/>
</g>
</svg>
