<?xml version="1.0" standalone="no"?>
<!DOCTYPE svg PUBLIC "-//W3C//DTD SVG 20010904//EN"
 "http://www.w3.org/TR/2001/REC-SVG-20010904/DTD/svg10.dtd">
<svg version="1.0" xmlns="http://www.w3.org/2000/svg"
 width="198.000000pt" height="166.000000pt" viewBox="0 0 198.000000 166.000000"
 preserveAspectRatio="xMidYMid meet">
<metadata>
Created by potrace 1.16, written by Peter Selinger 2001-2019
</metadata>
<g transform="translate(0.000000,166.000000) scale(0.100000,-0.100000)"
fill="#000000" stroke="none">
<path d="M704 1516 l-50 -52 -62 6 c-99 9 -128 -13 -112 -86 4 -21 7 -108 6
-192 l-1 -154 -40 -14 c-22 -8 -80 -24 -129 -34 -48 -10 -90 -21 -93 -23 -2
-3 10 -26 26 -53 17 -26 31 -58 31 -71 0 -14 6 -23 15 -23 21 0 19 -12 -6 -44
-12 -15 -18 -31 -13 -35 5 -4 43 -13 85 -19 125 -19 125 -19 132 -104 4 -40 5
-80 3 -88 -12 -58 -17 -111 -12 -128 4 -10 23 -28 44 -38 20 -10 50 -29 65
-41 54 -44 83 -21 42 32 -14 19 -37 38 -50 41 -14 3 -25 9 -25 13 1 7 75 62
109 80 13 7 50 35 84 61 60 49 75 53 135 34 14 -4 -36 -70 -112 -148 -51 -53
-136 -166 -136 -181 0 -21 31 -27 55 -11 12 8 25 27 28 43 4 15 36 62 72 103
111 127 130 150 133 160 5 14 36 13 112 -5 206 -46 444 -130 484 -170 29 -29
46 -26 46 9 0 14 -10 28 -26 36 -14 8 -32 26 -39 40 -14 26 -55 68 -55 56 0
-4 12 -23 26 -42 34 -44 27 -44 -117 2 -215 68 -358 120 -374 136 -5 5 110
169 154 220 l24 27 41 -57 c23 -31 69 -86 102 -122 32 -35 62 -69 66 -75 4 -5
21 -26 38 -45 29 -33 30 -33 13 -5 -26 43 -64 96 -95 130 -15 17 -28 34 -30
39 -2 4 -19 25 -38 47 -19 21 -45 56 -57 77 l-22 40 27 37 c32 44 127 160 159
195 13 14 26 34 29 45 4 11 31 52 60 92 30 40 54 82 54 94 0 11 11 34 25 51
26 31 30 46 17 63 -9 14 -50 17 -57 5 -5 -9 -142 -77 -245 -122 -25 -11 -97
-44 -160 -74 -63 -30 -119 -54 -125 -54 -18 1 -187 309 -182 333 5 29 -33 11
-79 -37z m91 -91 c20 -38 51 -92 67 -118 17 -26 29 -50 26 -52 -2 -3 -15 13
-29 36 -13 22 -34 51 -46 65 -13 14 -23 28 -23 32 0 4 -13 21 -29 37 -23 25
-26 34 -18 53 6 12 11 21 13 20 1 -2 19 -34 39 -73z m-162 0 c20 -4 37 -8 37
-10 0 -2 -12 -62 -24 -125 -22 -108 -38 -170 -44 -166 -4 2 -8 -7 -8 -21 -2
-30 -3 -31 -43 -39 l-32 -7 7 44 c4 24 11 47 17 50 5 4 5 9 -2 14 -9 5 -9 10
0 21 9 11 8 23 -5 54 -14 36 -30 176 -21 190 4 7 71 4 118 -5z m877 -3 c0 -5
-12 -19 -26 -33 -15 -13 -46 -53 -70 -89 -48 -73 -56 -83 -103 -125 -26 -24
-31 -26 -26 -10 8 22 -8 6 -108 -108 -32 -37 -62 -67 -66 -67 -4 0 -13 11 -19
25 -7 14 -17 31 -22 38 -37 42 -98 132 -94 139 3 4 33 16 68 27 55 17 196 78
236 102 8 5 29 16 47 24 17 8 34 19 38 25 3 5 13 10 22 10 9 0 24 6 32 14 27
23 91 42 91 28z m-682 -150 l63 -77 -38 -17 c-21 -10 -45 -18 -55 -18 -9 0
-18 -3 -20 -8 -4 -10 -138 -62 -138 -54 0 4 5 23 11 42 11 38 17 68 24 115 2
17 11 56 19 88 9 32 16 61 17 65 0 4 12 -8 27 -26 15 -19 55 -68 90 -110z
m535 -114 c-6 -7 -26 -33 -44 -58 -71 -94 -143 -180 -150 -180 -25 0 -12 26
44 82 34 35 80 87 102 116 21 28 43 52 48 52 5 0 5 -5 0 -12z m-416 -35 c15
-21 52 -67 82 -102 55 -63 55 -63 35 -80 -29 -23 -96 -120 -90 -130 5 -7 -55
-69 -124 -128 l-26 -22 -89 28 c-50 16 -111 38 -137 49 -46 20 -47 21 -38 53
5 18 15 36 22 41 10 6 10 10 -1 17 -12 8 -13 18 -2 65 12 54 13 56 69 81 31
14 66 34 77 44 11 9 37 26 58 36 20 11 35 25 33 31 -4 11 68 54 91 54 7 0 24
-17 40 -37z m321 0 c-8 -10 -34 -42 -58 -71 -24 -28 -45 -50 -48 -47 -5 4 107
135 116 135 3 0 -2 -8 -10 -17z m-588 -56 c0 -11 -60 -45 -65 -37 -3 5 9 16
27 24 40 17 38 17 38 13z m-112 -54 c-4 -22 -38 -30 -38 -10 0 14 13 24 33 26
5 1 7 -7 5 -16z m-78 -33 c0 -15 -14 -27 -47 -43 -27 -12 -59 -30 -73 -40 -13
-9 -30 -17 -37 -17 -21 0 -15 21 7 27 26 7 16 23 -15 23 -12 0 -25 6 -28 14
-4 11 7 16 46 21 28 4 67 13 86 21 50 18 61 17 61 -6z m63 -45 c-3 -9 -8 -14
-10 -11 -3 3 -2 9 2 15 9 16 15 13 8 -4z m-61 -86 c-1 -34 -3 -63 -6 -66 -2
-3 -34 10 -71 27 l-67 32 49 23 c26 12 57 30 68 38 11 8 22 14 24 11 2 -2 3
-31 3 -65z m648 45 c0 -10 -151 -194 -159 -194 -4 0 -16 -16 -27 -35 -16 -30
-23 -35 -44 -30 -14 4 -26 8 -28 10 -5 5 29 55 38 55 4 0 52 45 106 99 91 92
114 111 114 95z m-708 -125 c31 -11 55 -27 55 -35 0 -17 -1 -17 -83 2 -84 19
-90 22 -67 40 24 18 32 17 95 -7z m213 -76 c28 -9 57 -16 65 -17 26 -3 90 -30
90 -38 0 -14 -30 -9 -136 25 -65 20 -104 37 -104 46 0 9 6 11 18 6 9 -4 40
-14 67 -22z m-47 -29 c32 -8 64 -18 72 -21 8 -4 17 -7 20 -8 3 -1 16 -6 30
-12 14 -6 30 -12 37 -14 6 -2 -14 -23 -45 -47 -133 -102 -175 -132 -183 -132
-8 0 -7 15 9 95 4 22 5 66 2 97 -3 32 -4 58 -2 58 2 0 29 -7 60 -16z m290 -45
c45 -16 31 -28 -17 -16 -22 6 -38 14 -35 19 7 11 15 10 52 -3z m102 -39 c13
-9 13 -10 0 -10 -8 0 -22 5 -30 10 -13 9 -13 10 0 10 8 0 22 -5 30 -10z"/>
<path d="M1335 1239 c-4 -6 -5 -12 -2 -15 2 -3 7 2 10 11 7 17 1 20 -8 4z"/>
</g>
</svg>
