<?xml version="1.0" standalone="no"?>
<!DOCTYPE svg PUBLIC "-//W3C//DTD SVG 20010904//EN"
 "http://www.w3.org/TR/2001/REC-SVG-20010904/DTD/svg10.dtd">
<svg version="1.0" xmlns="http://www.w3.org/2000/svg"
 width="163.000000pt" height="152.000000pt" viewBox="0 0 163.000000 152.000000"
 preserveAspectRatio="xMidYMid meet">
<metadata>
Created by potrace 1.16, written by Peter Selinger 2001-2019
</metadata>
<g transform="translate(0.000000,152.000000) scale(0.100000,-0.100000)"
fill="#000000" stroke="none">
<path d="M1415 1448 c-16 -5 -64 -12 -105 -13 -51 -3 -87 -10 -115 -24 -21
-12 -44 -21 -50 -21 -12 0 -75 -69 -145 -158 -57 -73 -427 -442 -443 -442 -23
0 -77 125 -77 180 0 57 -15 72 -38 39 -18 -27 -50 -59 -105 -106 -45 -38 -42
-47 34 -106 27 -21 49 -43 49 -48 0 -25 -112 10 -152 48 -16 15 -33 23 -42 20
-9 -4 -16 -2 -16 3 0 15 -14 12 -37 -9 -18 -17 -20 -30 -18 -143 1 -104 4
-123 18 -126 16 -3 90 39 102 57 8 13 83 47 126 56 l32 7 -34 -29 c-19 -16
-54 -44 -79 -63 -25 -19 -47 -37 -50 -40 -3 -3 -18 -16 -34 -28 -25 -19 -26
-23 -10 -29 12 -4 22 0 32 15 20 31 35 27 27 -7 -6 -27 -3 -29 39 -41 25 -7
51 -19 57 -26 13 -16 65 -19 74 -4 4 6 1 17 -5 25 -9 11 -6 28 16 77 28 64 66
108 95 108 19 0 74 -58 83 -88 4 -11 17 -23 29 -26 30 -8 69 -45 160 -154 43
-50 83 -92 88 -92 5 0 29 -30 54 -67 60 -93 154 -195 154 -168 0 11 -22 47
-49 80 -28 33 -67 85 -88 115 -20 30 -42 58 -49 63 -6 4 -49 51 -95 104 -45
53 -105 117 -131 142 -45 42 -47 46 -31 58 16 12 20 10 31 -12 13 -25 43 -35
43 -15 0 6 -7 24 -15 39 -13 26 -13 30 5 46 20 18 21 17 45 -5 14 -13 25 -32
25 -42 0 -11 6 -26 14 -34 8 -8 12 -23 9 -35 -4 -16 -2 -20 8 -17 8 3 15 21
17 44 3 36 25 74 43 74 4 0 16 -14 26 -30 21 -36 52 -39 95 -8 l31 22 23 -27
c13 -15 28 -27 34 -27 17 0 11 29 -10 47 -18 16 -18 18 -3 35 38 42 43 26 43
-134 -1 -84 -5 -182 -10 -218 -14 -95 -19 -220 -10 -225 17 -11 40 28 41 68 8
256 50 382 172 515 37 39 67 77 67 82 0 6 -22 10 -49 10 -27 0 -62 3 -78 6
l-29 6 8 61 c5 34 6 88 3 119 -5 50 -4 58 15 68 11 6 20 19 20 29 0 18 21 69
85 206 18 39 38 88 46 110 7 22 23 51 36 66 42 46 20 61 -52 37z m-29 -109
c-24 -64 -72 -179 -97 -232 -10 -23 -14 -25 -21 -12 -5 8 -7 19 -4 23 3 5 1
24 -4 43 -40 161 -50 202 -48 204 20 16 57 25 100 26 29 0 62 4 73 8 11 5 21
8 22 7 2 -1 -8 -31 -21 -67z m-198 -49 c8 -30 21 -77 29 -105 11 -37 16 -95
16 -215 -1 -207 -4 -226 -45 -234 -23 -4 -34 -2 -44 11 -11 15 -9 22 14 47
l27 29 -25 -7 c-14 -4 -37 -7 -52 -7 -20 1 -26 -3 -22 -13 3 -8 -7 -23 -25
-35 l-30 -22 -21 41 -21 41 22 18 c14 11 19 23 15 30 -6 9 -13 8 -30 -7 -21
-19 -114 -82 -121 -82 -1 0 -12 16 -24 35 -23 40 -36 42 -70 16 -13 -10 -32
-16 -42 -14 -13 4 -20 -2 -25 -21 -9 -37 -40 -52 -54 -27 -22 43 -11 61 128
199 75 75 146 148 158 162 12 14 39 41 60 61 21 20 61 64 88 98 59 76 76 76
94 1z m-722 -405 c10 -27 23 -59 30 -70 6 -11 14 -32 18 -47 11 -48 -31 -36
-101 30 -35 31 -63 61 -63 66 0 13 84 85 91 78 4 -4 15 -29 25 -57z m367 -97
c9 -58 -39 -82 -62 -31 -11 24 -10 29 9 45 32 26 47 22 53 -14z m-521 -66 c24
-6 61 -15 83 -19 l40 -9 -68 -22 c-37 -12 -85 -33 -107 -47 -22 -14 -41 -25
-42 -25 -2 0 -4 45 -5 99 l-1 100 29 -33 c18 -21 44 -37 71 -44z m661 42 c9
-19 17 -39 17 -44 0 -19 -60 -10 -82 12 l-21 21 27 24 c15 12 30 23 34 23 4 0
15 -16 25 -36z m-349 10 c18 -48 -8 -71 -48 -41 -16 12 -16 14 4 35 25 26 36
28 44 6z m93 -45 c-30 -8 -36 0 -13 17 16 11 21 11 28 1 5 -8 0 -14 -15 -18z
m401 4 c2 -9 -7 -13 -27 -13 -31 0 -42 14 -18 23 19 8 40 3 45 -10z m183 -85
c-28 -35 -65 -90 -81 -123 l-30 -60 0 68 c0 54 3 67 16 67 9 0 14 3 12 8 -2 4
-10 20 -18 35 -12 25 -12 30 1 37 8 5 30 7 49 4 23 -4 42 0 55 10 46 35 44 12
-4 -46z m-557 27 c-24 -18 -31 -18 -38 0 -4 11 2 15 26 15 30 0 31 -1 12 -15z
m152 0 c4 -9 -3 -24 -17 -36 -22 -19 -24 -19 -37 -2 -36 48 -35 53 8 53 27 0
43 -5 46 -15z m207 5 c8 0 8 -3 0 -11 -13 -13 -43 -5 -43 12 0 6 7 8 16 5 9
-3 21 -6 27 -6z m-434 -28 c21 -30 14 -52 -16 -52 -12 0 -43 49 -43 70 0 21
39 9 59 -18z m357 3 c9 -14 15 -27 13 -28 -57 -40 -68 -39 -83 10 -5 15 -2 25
11 32 28 16 41 13 59 -14z m-538 -26 c-6 -16 -12 -28 -14 -26 -5 5 13 57 20
57 3 0 0 -14 -6 -31z m52 17 c0 -2 -7 -9 -15 -16 -13 -11 -14 -10 -9 4 5 14
24 23 24 12z m-91 -103 c-14 -38 -18 -43 -34 -37 -11 5 -10 12 7 40 23 39 42
37 27 -3z m-69 13 c0 -2 -8 -10 -17 -17 -16 -13 -17 -12 -4 4 13 16 21 21 21
13z m28 -87 c2 -13 -3 -15 -23 -12 -25 5 -31 14 -18 27 12 11 38 2 41 -15z"/>
</g>
</svg>
