<?xml version="1.0" standalone="no"?>
<!DOCTYPE svg PUBLIC "-//W3C//DTD SVG 20010904//EN"
 "http://www.w3.org/TR/2001/REC-SVG-20010904/DTD/svg10.dtd">
<svg version="1.0" xmlns="http://www.w3.org/2000/svg"
 width="147.000000pt" height="123.000000pt" viewBox="0 0 147.000000 123.000000"
 preserveAspectRatio="xMidYMid meet">
<metadata>
Created by potrace 1.16, written by Peter Selinger 2001-2019
</metadata>
<g transform="translate(0.000000,123.000000) scale(0.100000,-0.100000)"
fill="#000000" stroke="none">
<path d="M1085 1081 c-77 -12 -101 -20 -103 -33 -2 -9 2 -19 7 -23 6 -3 11
-33 11 -65 0 -52 -3 -62 -24 -76 -33 -21 -145 -46 -175 -39 -26 7 -320 -29
-413 -50 l-57 -12 -10 28 c-12 34 -22 36 -46 9 -17 -19 -17 -23 -1 -82 9 -35
17 -83 18 -108 1 -76 5 -83 44 -75 19 3 34 2 34 -3 0 -4 -21 -29 -46 -55 -33
-35 -53 -47 -74 -47 -72 0 -27 -42 50 -46 25 -2 86 -17 135 -34 50 -18 114
-38 144 -46 30 -8 68 -21 85 -28 17 -8 58 -24 91 -36 33 -13 101 -45 150 -73
l90 -50 0 -58 c1 -32 4 -61 7 -65 16 -16 28 12 28 67 0 51 2 59 18 57 15 -3
18 10 25 97 20 267 48 457 107 725 27 117 29 141 12 139 -4 -1 -52 -9 -107
-18z m59 -73 c-3 -24 -16 -90 -29 -148 -13 -58 -28 -150 -34 -205 -6 -55 -16
-143 -22 -195 -5 -52 -12 -97 -15 -100 -3 -3 -2 33 3 80 4 47 7 158 5 248 -2
135 0 166 13 178 21 21 19 29 -10 42 -22 10 -25 17 -22 64 2 53 2 53 40 59 20
3 40 9 44 12 3 4 12 7 20 7 10 0 12 -11 7 -42z m-130 -459 c-1 -144 -5 -285
-9 -315 -6 -53 -7 -54 -28 -39 -12 8 -49 39 -82 70 -62 57 -275 203 -377 257
-54 29 -96 64 -87 72 11 10 169 85 204 96 22 7 57 24 77 37 21 12 40 23 44 23
3 0 20 6 37 14 48 21 149 54 177 58 14 2 30 0 35 -5 6 -5 9 -105 9 -268z
m-251 263 c14 -6 -1 -16 -60 -44 -43 -20 -137 -64 -208 -97 -72 -34 -133 -61
-136 -61 -3 0 -5 10 -4 23 1 12 -4 46 -10 74 l-12 53 31 4 c17 3 74 10 126 16
52 6 129 17 170 25 89 16 81 15 103 7z m-291 -312 c29 -17 60 -35 68 -40 8 -6
29 -19 45 -29 17 -11 44 -29 60 -41 17 -11 50 -33 75 -49 25 -15 58 -35 73
-45 51 -31 21 -28 -59 8 -44 19 -101 40 -129 46 -41 10 -130 37 -284 86 -10 3
-2 18 29 49 24 25 50 45 57 45 7 0 36 -14 65 -30z"/>
</g>
</svg>
