<?xml version="1.0" standalone="no"?>
<!DOCTYPE svg PUBLIC "-//W3C//DTD SVG 20010904//EN"
 "http://www.w3.org/TR/2001/REC-SVG-20010904/DTD/svg10.dtd">
<svg version="1.0" xmlns="http://www.w3.org/2000/svg"
 width="162.000000pt" height="92.000000pt" viewBox="0 0 162.000000 92.000000"
 preserveAspectRatio="xMidYMid meet">
<metadata>
Created by potrace 1.16, written by Peter Selinger 2001-2019
</metadata>
<g transform="translate(0.000000,92.000000) scale(0.100000,-0.100000)"
fill="#000000" stroke="none">
<path d="M755 769 c-33 -4 -68 -6 -77 -3 -13 4 -18 0 -18 -14 0 -18 -36 -42
-63 -42 -7 0 -37 -12 -67 -26 -74 -36 -248 -74 -280 -62 -18 7 -27 5 -35 -6
-9 -12 -13 -9 -23 16 -10 26 -14 29 -27 18 -8 -7 -15 -24 -15 -39 1 -26 28
-114 43 -138 15 -24 51 -13 92 27 l40 40 3 -63 c3 -50 1 -60 -9 -49 -14 13
-47 16 -73 6 -20 -8 -21 -24 -1 -24 14 0 14 -3 0 -27 -9 -16 -27 -43 -40 -62
-29 -39 -31 -51 -10 -51 8 0 15 4 15 9 0 5 22 18 49 30 51 22 131 29 131 11 0
-5 11 -10 24 -10 20 0 49 -17 93 -55 6 -5 29 -20 50 -33 21 -13 46 -37 56 -53
23 -42 37 -28 37 37 0 37 4 54 13 54 7 0 29 11 50 25 33 23 45 26 120 23 l82
-3 3 -77 c2 -60 6 -78 17 -78 12 0 15 14 15 59 0 51 3 61 25 75 35 23 57 20
96 -15 29 -26 62 -47 170 -104 11 -5 19 -13 19 -17 0 -5 9 -8 19 -8 11 0 23
-4 26 -10 7 -11 75 -14 75 -3 0 3 -7 14 -16 24 -28 31 -17 198 15 234 10 11
27 36 36 55 10 19 37 63 61 98 24 35 44 65 44 67 0 3 -32 5 -71 5 -63 0 -71 2
-76 21 -7 25 -14 22 -104 -37 -71 -46 -156 -76 -214 -77 -63 0 -168 23 -180
40 -11 15 -15 16 -30 3 -28 -23 -105 -9 -105 18 0 19 70 123 108 160 43 43 29
48 -93 31z m45 -23 c0 -2 -21 -39 -47 -82 l-48 -79 -5 45 c-8 68 5 97 48 108
45 12 52 13 52 8z m-130 -70 c0 -25 -20 -179 -24 -183 -1 -1 -12 0 -24 4 -19
4 -22 12 -22 50 0 54 19 135 34 145 21 15 36 8 36 -16z m-94 -48 c-24 -76 -38
-108 -46 -108 -4 0 -6 10 -6 23 1 12 -1 32 -6 45 -10 29 5 60 35 72 35 14 37
12 23 -32z m-122 -43 c-19 -30 -26 -28 -17 3 3 12 12 22 19 22 12 0 11 -5 -2
-25z m-44 -9 c0 -14 -7 -32 -16 -41 -14 -14 -15 -20 -4 -40 11 -20 11 -27 0
-40 -21 -26 -28 -17 -32 43 -3 51 0 59 22 79 31 28 30 28 30 -1z m-137 -25
c-37 -38 -36 -38 -50 5 l-11 31 47 -1 47 -1 -33 -34z m219 -1 c-3 -31 -8 -40
-23 -40 -23 0 -24 12 -4 50 21 41 31 37 27 -10z m823 -145 c-3 -49 -6 -123 -7
-162 -1 -40 -6 -73 -10 -73 -4 0 -8 5 -8 10 0 6 -7 10 -15 10 -27 0 -126 71
-136 98 -6 15 -7 42 -4 61 10 52 -9 54 -79 10 -33 -21 -66 -39 -73 -39 -29 0
-19 20 26 50 27 19 57 47 66 63 16 27 19 28 30 14 20 -28 42 -19 74 30 17 25
31 50 31 55 0 4 21 19 48 32 l47 24 8 -46 c4 -26 5 -87 2 -137z m144 169 c2
-2 -14 -32 -36 -66 -21 -35 -43 -72 -48 -83 -7 -15 -10 -3 -16 50 -4 39 -10
79 -14 91 -6 20 -4 21 52 16 32 -2 60 -6 62 -8z m-695 -54 l31 -6 -25 -17
c-30 -19 -70 -12 -70 12 0 22 10 32 23 24 6 -3 24 -9 41 -13z m406 -6 c0 -3
-5 -15 -12 -27 -11 -21 -11 -21 -18 -2 -4 11 -6 23 -3 28 5 8 33 10 33 1z
m-162 -31 l43 -18 -23 -34 c-29 -44 -48 -51 -48 -18 0 31 -9 57 -20 57 -4 0
-11 -32 -15 -70 l-7 -70 -43 3 c-25 1 -52 10 -64 21 -12 11 -25 15 -33 10 -7
-5 -38 -11 -68 -14 l-55 -5 4 45 c4 54 15 70 50 70 15 0 42 11 61 25 31 23 42
25 105 21 39 -2 89 -13 113 -23z m-520 -87 l-2 -63 -31 12 c-23 10 -31 20 -33
45 -4 36 20 70 50 70 17 0 19 -7 16 -64z m68 32 c-3 -18 -11 -50 -17 -72 -10
-34 -13 -38 -19 -21 -7 21 -3 101 6 116 3 5 12 9 21 9 12 0 14 -7 9 -32z m86
17 c7 -7 -9 -111 -25 -165 l-13 -45 -26 27 c-24 24 -26 30 -17 65 31 124 31
123 54 123 12 0 24 -2 27 -5z m-252 -45 c0 -5 -4 -10 -10 -10 -5 0 -10 5 -10
10 0 6 5 10 10 10 6 0 10 -4 10 -10z m-68 -24 c16 -12 14 -14 -21 -24 -52 -16
-54 -16 -35 13 18 28 31 30 56 11z m364 -74 c-18 -18 -29 -12 -20 11 3 9 12
13 21 10 13 -5 13 -8 -1 -21z m399 18 c3 -5 2 -10 -4 -10 -5 0 -13 5 -16 10
-3 6 -2 10 4 10 5 0 13 -4 16 -10z"/>
<path d="M1040 549 c0 -5 5 -7 10 -4 6 3 10 8 10 11 0 2 -4 4 -10 4 -5 0 -10
-5 -10 -11z"/>
</g>
</svg>
