<?xml version="1.0" standalone="no"?>
<!DOCTYPE svg PUBLIC "-//W3C//DTD SVG 20010904//EN"
 "http://www.w3.org/TR/2001/REC-SVG-20010904/DTD/svg10.dtd">
<svg version="1.0" xmlns="http://www.w3.org/2000/svg"
 width="298.000000pt" height="170.000000pt" viewBox="0 0 298.000000 170.000000"
 preserveAspectRatio="xMidYMid meet">
<metadata>
Created by potrace 1.16, written by Peter Selinger 2001-2019
</metadata>
<g transform="translate(0.000000,170.000000) scale(0.100000,-0.100000)"
fill="#000000" stroke="none">
<path d="M1391 1464 c-97 -92 -114 -118 -71 -107 11 3 20 3 20 -1 0 -12 -44
-96 -51 -96 -13 0 -31 71 -25 96 4 15 2 32 -5 40 -9 11 -9 18 -1 26 16 16 15
38 -1 38 -10 0 -12 10 -9 33 l5 32 -64 -56 c-86 -74 -87 -75 -85 -36 2 47 -15
46 -51 -2 l-32 -42 -7 26 c-4 15 -2 31 5 38 14 14 15 47 1 47 -6 0 -32 -20
-58 -45 l-47 -46 -3 31 c-2 16 -7 30 -12 30 -5 0 -26 -22 -47 -50 -21 -27 -41
-49 -45 -50 -12 0 -9 96 4 125 18 40 1 42 -40 3 -20 -20 -42 -34 -48 -31 -10
3 -57 -48 -97 -107 -29 -44 -47 -64 -52 -58 -11 11 -23 152 -15 174 15 40 -7
38 -61 -5 -29 -23 -55 -41 -60 -41 -17 0 -20 -48 -5 -85 9 -20 14 -41 11 -45
-6 -9 -99 7 -144 26 -46 19 -56 18 -68 -8 -12 -28 -5 -288 9 -305 7 -8 27 -4
79 17 84 35 81 24 -15 -65 -82 -74 -85 -91 -16 -91 27 0 61 -6 74 -14 21 -11
31 -11 53 -1 24 11 25 13 10 28 -15 15 -13 22 22 88 55 102 63 113 83 118 19
5 32 -7 42 -38 4 -15 -10 -39 -54 -93 -33 -41 -60 -79 -60 -86 0 -20 -64 -76
-88 -76 -27 0 -29 -25 -5 -52 16 -18 15 -19 -28 -13 -24 4 -49 8 -56 10 -6 2
-19 -2 -28 -8 -14 -11 -15 -26 -9 -114 9 -127 11 -132 61 -110 84 36 87 35 51
-24 -18 -29 -54 -73 -80 -98 -54 -51 -58 -61 -26 -61 13 0 57 -7 99 -16 42
-10 84 -14 93 -11 21 8 9 37 -15 37 -24 0 -24 1 5 58 13 26 27 58 31 72 24 80
53 108 83 78 19 -19 15 -34 -38 -119 -28 -44 -50 -83 -50 -85 0 -3 26 -2 58 1
31 3 77 2 101 -2 39 -7 47 -14 68 -53 13 -25 28 -46 33 -48 16 -6 23 27 10 43
-16 20 -9 27 37 34 39 7 59 31 24 31 -31 0 -29 26 15 149 3 11 10 9 29 -9 l25
-24 -32 -33 c-39 -40 -32 -50 54 -78 47 -16 61 -17 84 -7 28 13 59 8 84 -13
15 -12 65 -8 142 10 23 6 29 3 39 -19 14 -29 24 -33 36 -12 4 8 19 16 32 18
34 4 38 26 6 38 -15 6 -25 13 -23 18 24 51 53 102 58 102 3 0 11 -13 18 -30
12 -25 11 -33 -2 -52 -9 -12 -16 -28 -16 -35 0 -15 36 -18 45 -3 11 17 26 11
58 -25 36 -40 50 -44 45 -12 -1 12 1 23 5 25 3 2 19 9 33 17 29 15 61 6 77
-22 6 -9 13 -10 27 -3 10 5 30 10 44 10 31 0 32 6 7 43 -17 26 -17 31 -3 75 8
26 17 54 19 62 5 17 12 9 73 -79 19 -27 40 -50 45 -51 6 0 36 29 67 64 50 56
150 126 180 126 5 0 7 -51 6 -113 -3 -94 -1 -112 12 -112 9 0 16 12 18 30 2
17 8 35 12 41 5 5 14 44 20 85 6 40 13 84 15 96 5 23 46 47 279 167 59 31 114
56 121 56 7 0 35 18 63 40 53 42 155 77 192 65 15 -5 22 0 30 20 14 36 14 35
-26 35 -27 0 -37 5 -41 20 -4 14 -14 20 -33 20 -20 0 -45 15 -82 48 -73 65
-113 94 -183 131 -33 17 -87 51 -120 76 -33 24 -84 56 -112 71 -29 15 -78 49
-110 76 -31 26 -60 48 -63 48 -3 0 -14 14 -24 31 -29 49 -53 36 -97 -51 -21
-42 -34 -79 -29 -85 11 -13 -23 -55 -44 -55 -21 0 -21 -43 0 -208 16 -129 14
-209 -8 -327 -6 -33 -17 -64 -25 -68 -7 -4 -13 -15 -13 -22 0 -19 -20 -19 -48
1 l-22 15 20 39 c11 21 24 41 30 45 15 9 12 45 -3 45 -20 0 -43 -29 -66 -82
-11 -27 -24 -48 -28 -48 -13 0 -43 55 -43 78 0 12 5 24 10 27 19 11 11 37 -9
30 -14 -4 -20 1 -24 22 -4 16 -9 38 -13 51 -5 19 -3 22 19 22 36 0 44 19 18
39 -21 16 -21 18 -6 55 l16 38 34 -49 c60 -86 77 -105 88 -94 6 6 2 22 -12 45
-13 20 -19 40 -16 46 4 6 0 22 -9 35 -9 13 -16 31 -16 40 0 8 -4 15 -10 15
-17 0 -23 49 -10 80 11 25 18 29 59 32 55 4 63 27 14 40 -36 9 -36 10 10 93
15 28 31 57 35 65 49 89 50 110 1 64 -30 -28 -109 -136 -109 -150 0 -3 -11
-19 -24 -35 l-24 -28 -18 26 c-18 28 -20 70 -11 171 6 53 -1 64 -23 37 -9 -11
-16 -12 -25 -5 -9 8 -26 -7 -63 -56 -49 -63 -51 -67 -38 -92 10 -19 11 -34 4
-52 -8 -22 -10 -23 -19 -8 -6 10 -13 55 -16 100 -5 76 -4 85 16 102 21 19 28
46 12 46 -5 0 -54 -43 -110 -96z m694 -25 c44 -39 94 -78 110 -86 45 -23 155
-96 151 -100 -2 -2 -32 10 -67 26 -35 17 -93 41 -129 54 -36 13 -87 32 -115
42 -27 10 -61 18 -75 18 l-26 0 30 59 c16 32 32 58 35 58 3 0 42 -32 86 -71z
m-522 -18 c-10 -17 -22 -31 -26 -31 -8 0 -6 5 23 47 21 32 24 21 3 -16z m-804
-123 c-11 -21 -13 -20 -35 23 -26 51 -23 75 14 106 l27 23 3 -65 c2 -36 -2
-74 -9 -87z m429 89 c-25 -40 -27 -41 -48 -27 -12 8 -9 15 20 45 42 43 60 32
28 -18z m-653 -65 c6 -42 6 -44 -17 -37 -13 4 -24 8 -25 9 -1 0 -11 25 -22 54
l-21 53 32 14 c33 13 33 13 40 -18 3 -17 9 -51 13 -75z m448 52 c6 -36 -5 -74
-22 -74 -4 0 -16 16 -27 35 -18 34 -18 34 5 59 29 31 37 27 44 -20z m457 -108
c-17 -17 -33 45 -19 74 12 25 12 24 20 -20 5 -26 5 -48 -1 -54z m-523 26 l25
-42 -61 0 c-34 0 -61 2 -61 5 0 14 54 85 63 82 5 -1 20 -22 34 -45z m206 27
c15 -24 -16 -69 -47 -69 -27 0 -43 39 -27 68 12 23 60 23 74 1z m507 -31 c0
-5 -6 -8 -14 -8 -17 0 -27 25 -19 46 5 14 8 12 19 -7 7 -13 13 -27 14 -31z
m-934 4 l13 -32 -39 0 c-46 0 -46 1 -23 41 21 35 31 33 49 -9z m1302 18 l33 0
-25 -42 c-14 -24 -37 -86 -52 -138 -28 -100 -44 -131 -44 -90 -1 39 -7 118
-15 204 l-8 79 39 -6 c22 -4 54 -7 72 -7z m-759 -47 c1 -15 -25 -17 -34 -3 -3
5 -1 20 6 32 12 22 12 22 20 3 4 -11 8 -26 8 -32z m996 -2 c135 -63 200 -97
275 -147 38 -24 88 -51 112 -59 23 -9 56 -26 72 -39 l30 -23 -60 -27 c-69 -32
-155 -66 -274 -107 -47 -17 -94 -34 -105 -39 -28 -13 -98 -30 -103 -26 -8 8
51 163 70 183 31 33 19 44 -55 49 -100 7 -112 -5 -108 -100 1 -40 0 -94 -4
-119 -7 -44 -9 -47 -54 -61 -25 -9 -66 -20 -89 -25 l-44 -9 7 61 c7 66 17 108
59 252 42 144 64 203 93 246 24 36 31 40 58 36 17 -3 71 -24 120 -46z m-1822
-3 c57 -9 71 -15 79 -34 9 -19 6 -31 -16 -64 -16 -25 -36 -42 -54 -45 -15 -4
-50 -15 -79 -25 l-52 -19 -3 92 c-4 114 -2 121 31 112 14 -3 57 -11 94 -17z
m1186 -49 c11 -19 10 -28 -10 -70 -12 -27 -26 -49 -30 -49 -4 0 -15 22 -24 49
-12 38 -14 55 -5 70 14 27 52 27 69 0z m-906 3 c9 -13 -28 -49 -56 -54 -30 -6
-31 -5 -41 35 -6 27 -6 27 43 27 27 0 52 -3 54 -8z m733 -11 c14 -18 11 -27
-40 -115 l-39 -69 -17 34 c-23 45 -13 125 19 150 26 21 61 21 77 0z m-526 -1
c-20 -13 -103 -13 -95 0 3 6 30 10 58 10 37 0 48 -3 37 -10z m-164 -27 c-10
-10 -19 5 -10 18 6 11 8 11 12 0 2 -7 1 -15 -2 -18z m478 8 c16 -18 16 -21 -6
-67 -24 -49 -87 -127 -89 -109 -15 104 15 193 67 195 6 0 19 -8 28 -19z m-114
-31 c-6 -12 -14 -19 -17 -17 -2 3 1 15 7 27 6 12 14 19 17 17 2 -3 -1 -15 -7
-27z m-591 -11 c-19 -12 -24 -2 -8 17 9 11 14 13 17 4 3 -7 -2 -16 -9 -21z
m501 -18 c0 -23 -102 -178 -107 -164 -3 7 9 41 25 75 16 35 35 80 43 101 12
34 15 36 26 21 7 -10 13 -25 13 -33z m-70 32 c0 -16 -53 -133 -61 -133 -4 0
-11 9 -14 20 -4 13 4 37 26 70 29 45 49 62 49 43z m-76 -29 c-17 -25 -18 -25
-31 -8 -19 26 -17 29 17 32 l31 2 -17 -26z m-58 -46 c13 -26 12 -29 -47 -100
-34 -40 -65 -74 -69 -76 -8 -3 -32 56 -27 67 2 3 26 44 52 89 53 91 53 91 91
20z m625 -23 c-19 -41 -36 -65 -46 -65 -17 0 -15 6 51 117 31 53 28 18 -5 -52z
m217 73 c-3 -7 -13 -37 -22 -65 -19 -56 -31 -66 -41 -33 -7 21 39 110 57 110
6 0 8 -6 6 -12z m-965 -60 c-28 -42 -46 -51 -51 -26 -4 18 70 97 75 81 3 -7
-8 -32 -24 -55z m577 27 c0 -3 -16 -37 -37 -75 -25 -48 -42 -70 -55 -70 -10 0
-18 2 -18 5 0 9 44 70 53 73 4 2 14 19 22 38 8 19 19 34 24 34 6 0 11 -2 11
-5z m-798 -37 c-7 -7 -12 -18 -12 -26 0 -7 -15 -34 -32 -60 -18 -25 -36 -50
-39 -55 -6 -9 -59 1 -59 12 1 13 140 154 147 148 4 -4 1 -13 -5 -19z m569 -45
c-36 -75 -49 -93 -67 -86 -19 7 -14 21 34 95 45 69 68 63 33 -9z m472 53 c19
-15 23 -41 7 -51 -20 -13 -10 -35 16 -35 29 0 63 -35 64 -64 0 -20 -38 -106
-50 -116 -10 -7 -30 -47 -30 -60 0 -6 6 -10 13 -8 6 2 13 0 15 -5 5 -17 1 -27
-12 -27 -11 0 -56 83 -56 104 0 3 12 18 26 33 22 24 24 28 9 31 -9 2 -22 -1
-28 -7 -20 -20 -27 -12 -27 28 0 22 -4 41 -9 43 -17 6 -14 43 9 96 25 56 26
58 53 38z m-199 -84 c1 -26 7 -38 20 -40 9 -2 21 -15 26 -28 6 -15 18 -24 30
-24 20 0 19 -3 -11 -46 -31 -46 -32 -47 -14 -76 23 -40 13 -78 -20 -78 -18 0
-29 10 -44 39 l-20 38 36 42 c44 52 32 78 -14 31 l-31 -32 -12 36 c-6 20 -8
45 -5 57 4 13 2 25 -5 29 -16 10 -8 43 21 89 18 30 22 33 31 18 5 -10 10 -34
12 -55z m-454 -21 c0 -9 -9 -27 -19 -40 -16 -21 -20 -22 -42 -10 -13 8 -26 15
-28 16 -2 1 12 20 30 42 31 36 35 39 47 24 6 -9 12 -24 12 -32z m240 8 c0 -10
-4 -21 -10 -24 -26 -16 -7 -33 43 -39 77 -10 85 -18 56 -54 -23 -30 -48 -47
-56 -38 -2 2 8 17 22 34 29 34 31 42 11 42 -16 0 -86 -77 -86 -96 0 -6 -6 -17
-14 -23 -12 -10 -16 -3 -27 44 -11 50 -11 57 6 68 15 12 16 16 4 35 -12 19
-11 27 5 57 15 27 22 32 33 24 7 -6 13 -20 13 -30z m-484 -23 c-7 -27 -21 -32
-46 -16 -12 7 -11 13 10 35 28 29 46 20 36 -19z m1590 21 c5 -13 -50 -175 -64
-189 -6 -6 -7 61 -2 190 0 16 59 16 66 -1z m-776 -46 c0 -6 -4 -13 -10 -16 -5
-3 -10 1 -10 9 0 9 5 16 10 16 6 0 10 -4 10 -9z m-484 -42 l48 3 -46 -50 c-25
-27 -55 -67 -66 -89 -11 -22 -27 -45 -35 -52 -13 -10 -17 -7 -25 21 -30 96
-25 131 23 140 13 2 21 13 23 31 3 26 5 27 17 11 10 -14 24 -17 61 -15z m-374
-27 c6 -24 5 -38 -6 -53 -14 -21 -15 -20 -25 17 -16 56 -14 76 6 72 9 -2 21
-18 25 -36z m147 -14 c-40 -57 -118 -138 -130 -138 -16 0 -2 49 21 82 11 15
20 33 20 41 0 7 6 22 14 32 12 17 16 17 31 5 14 -12 18 -12 25 0 5 8 7 17 5
21 -3 3 6 4 20 2 l24 -5 -30 -40z m705 -47 l-17 -25 -10 22 c-7 16 -5 28 8 49
l18 27 9 -23 c6 -17 4 -31 -8 -50z m196 19 c-10 -18 -40 -46 -40 -37 0 4 8 22
17 42 11 23 19 31 24 23 4 -7 4 -19 -1 -28z m-600 -90 l0 -25 -31 33 c-16 17
-34 32 -39 32 -6 0 3 17 18 39 l27 38 12 -46 c7 -25 13 -57 13 -71z m215 74
c9 -49 -7 -63 -33 -29 -20 25 -20 28 -6 51 20 30 30 24 39 -22z m1201 38 c-7
-12 -256 -135 -262 -129 -2 2 0 15 5 29 7 19 21 28 55 37 26 6 79 25 119 41
77 31 91 35 83 22z m-1928 -41 c20 -65 16 -81 -17 -81 -20 0 -36 9 -51 27
l-21 26 33 34 c17 18 35 33 38 33 4 0 12 -17 18 -39z m231 -5 c-11 -20 -25
-36 -31 -36 -10 0 -6 9 25 53 27 40 32 27 6 -17z m387 -21 c-7 -37 6 -48 22
-19 8 14 12 12 30 -11 36 -46 30 -55 -38 -55 -67 0 -71 6 -40 58 11 18 20 39
20 47 0 8 3 15 6 15 3 0 3 -16 0 -35z m-348 -38 c2 -27 -1 -37 -11 -37 -19 0
-26 19 -20 54 8 38 27 27 31 -17z m882 -4 c0 -7 -9 -13 -20 -13 -22 0 -23 3
-13 39 6 23 7 23 20 6 7 -11 13 -25 13 -32z m-191 7 c8 -24 7 -30 -4 -30 -15
0 -30 35 -20 50 9 15 12 13 24 -20z m-510 -25 c23 -13 9 -25 -29 -25 -46 0
-48 7 -18 45 21 27 22 27 29 7 4 -11 12 -23 18 -27z m1178 3 c-3 -7 -5 -2 -5
12 0 14 2 19 5 13 2 -7 2 -19 0 -25z m-1457 2 c0 -5 -7 -10 -15 -10 -8 0 -15
5 -15 10 0 6 7 10 15 10 8 0 15 -4 15 -10z m1404 -6 c11 -28 6 -52 -11 -57
-30 -10 -126 -67 -167 -99 -30 -25 -40 -28 -47 -17 -13 21 -11 39 6 39 8 0 15
8 15 19 0 10 5 32 11 49 9 26 18 32 57 41 26 5 63 17 82 25 44 19 47 19 54 0z
m-814 -9 c0 -8 -2 -15 -4 -15 -2 0 -6 7 -10 15 -3 8 -1 15 4 15 6 0 10 -7 10
-15z m-828 -29 c34 -41 19 -62 -56 -82 -32 -8 -60 -13 -62 -11 -3 2 -7 32 -10
65 l-6 61 59 -6 c43 -4 63 -11 75 -27z m1325 -28 c-3 -7 -5 -2 -5 12 0 14 2
19 5 13 2 -7 2 -19 0 -25z m-1127 2 c-6 -11 -17 -20 -25 -20 -8 0 -15 9 -15
20 0 15 7 20 25 20 23 0 24 -2 15 -20z m870 4 c0 -8 -4 -12 -10 -9 -5 3 -10
10 -10 16 0 5 5 9 10 9 6 0 10 -7 10 -16z m125 -15 l28 -32 -23 -46 -23 -46
-24 52 c-20 43 -22 55 -12 77 15 33 20 33 54 -5z m55 21 c0 -5 -4 -10 -10 -10
-5 0 -10 5 -10 10 0 6 5 10 10 10 6 0 10 -4 10 -10z m-1130 -21 c0 -11 -4 -18
-10 -14 -5 3 -7 12 -3 20 7 21 13 19 13 -6z m188 4 c2 -8 -6 -13 -22 -13 -25
0 -33 10 -19 24 10 10 36 3 41 -11z m192 13 c0 -2 -13 -6 -30 -8 -16 -3 -30
-1 -30 4 0 4 14 8 30 8 17 0 30 -2 30 -4z m520 -28 l19 -31 -25 -50 c-25 -48
-26 -49 -46 -31 -36 34 -39 49 -18 98 23 54 43 58 70 14z m389 25 c-1 -16 -18
-48 -18 -36 -1 6 -4 18 -7 27 -4 11 -1 16 10 16 9 0 16 -3 15 -7z m-701 -42
c-14 -23 -31 -23 -36 2 -2 10 5 17 20 19 31 5 32 4 16 -21z m117 -5 l25 -33
-32 -58 c-18 -32 -38 -60 -45 -62 -6 -2 -19 10 -28 28 -16 30 -16 34 12 95 15
35 31 64 35 64 4 0 19 -15 33 -34z m-315 -1 c0 -8 -49 -85 -54 -85 -5 0 -46
65 -46 73 0 3 8 8 18 10 25 7 82 8 82 2z m145 -73 c-11 -30 -90 -120 -110
-126 -35 -9 -34 16 1 87 20 38 40 81 45 95 l10 27 30 -33 c19 -21 28 -40 24
-50z m-315 61 c0 -7 -68 -132 -82 -150 -15 -19 -37 -4 -43 31 -4 20 0 48 10
73 14 35 22 43 48 46 57 7 67 7 67 0z m188 -67 c-24 -49 -34 -62 -39 -49 -6
17 7 44 46 95 31 40 29 26 -7 -46z m-524 -33 c-30 -81 -56 -128 -72 -127 -7 1
-24 2 -39 3 l-27 1 25 28 c14 15 45 57 69 95 58 87 76 88 44 0z m844 -33 c-30
-55 -48 -74 -48 -50 0 14 75 128 78 119 2 -5 -11 -36 -30 -69z m-524 -5 c-29
-80 -31 -82 -45 -68 -8 8 0 30 27 77 21 36 39 64 40 63 2 -2 -8 -34 -22 -72z
m720 46 c-5 -3 -15 -19 -22 -35 -7 -16 -15 -26 -18 -23 -3 3 4 24 17 47 13 23
25 36 27 30 3 -7 0 -15 -4 -19z m71 2 c13 -16 25 -31 25 -34 0 -14 -72 -60
-86 -55 -12 5 -12 12 6 45 11 22 20 47 20 56 0 21 8 19 35 -12z m106 -4 c-5
-13 -10 -19 -10 -12 -1 15 10 45 15 40 3 -2 0 -15 -5 -28z m-566 -49 c-14 -27
-32 -50 -40 -50 -8 0 -15 3 -15 6 0 5 72 93 78 94 1 0 -9 -22 -23 -50z m-502
-13 c-5 -31 -10 -37 -31 -37 -18 0 -22 3 -15 13 5 6 17 25 27 40 22 36 27 31
19 -16z m312 -7 c3 -5 -1 -10 -9 -10 -9 0 -16 5 -16 10 0 6 4 10 9 10 6 0 13
-4 16 -10z m256 0 c16 -9 17 -14 6 -30 -22 -37 -65 -20 -52 20 7 22 18 25 46
10z m464 0 c3 -6 -1 -7 -9 -4 -18 7 -21 14 -7 14 6 0 13 -4 16 -10z m-985 -30
c0 -5 -7 -7 -15 -4 -8 4 -12 10 -9 15 6 11 24 2 24 -11z"/>
</g>
</svg>
