<?xml version="1.0" standalone="no"?>
<!DOCTYPE svg PUBLIC "-//W3C//DTD SVG 20010904//EN"
 "http://www.w3.org/TR/2001/REC-SVG-20010904/DTD/svg10.dtd">
<svg version="1.0" xmlns="http://www.w3.org/2000/svg"
 width="262.000000pt" height="210.000000pt" viewBox="0 0 262.000000 210.000000"
 preserveAspectRatio="xMidYMid meet">
<metadata>
Created by potrace 1.16, written by Peter Selinger 2001-2019
</metadata>
<g transform="translate(0.000000,210.000000) scale(0.100000,-0.100000)"
fill="#000000" stroke="none">
<path d="M1180 2020 c-14 -4 -65 -14 -115 -21 -112 -15 -139 -24 -131 -44 3
-9 -3 -53 -14 -98 -11 -45 -23 -111 -26 -147 -3 -36 -12 -84 -20 -108 -8 -24
-12 -47 -9 -52 3 -5 2 -11 -3 -14 -5 -3 -17 -38 -27 -79 l-18 -74 -82 -5 c-45
-3 -94 -12 -111 -21 -31 -16 -117 -39 -229 -63 -76 -15 -145 -42 -145 -56 0
-5 10 -13 23 -19 23 -10 36 -9 240 31 27 5 54 13 60 18 19 14 227 48 227 38 0
-4 -7 -22 -14 -41 -13 -31 -19 -35 -54 -35 -21 0 -42 -3 -46 -7 -13 -13 -141
-43 -228 -53 -99 -11 -193 -43 -202 -67 -7 -17 12 -35 30 -29 5 2 46 9 90 15
43 7 110 16 149 22 38 5 83 16 98 24 16 8 45 17 66 20 20 4 45 8 57 10 19 4
20 1 16 -58 -3 -34 -9 -65 -14 -68 -5 -4 -39 -9 -74 -12 -36 -4 -79 -13 -97
-20 -17 -8 -57 -20 -87 -27 -30 -6 -84 -21 -120 -34 -50 -17 -65 -26 -65 -41
0 -17 6 -20 35 -17 19 1 55 9 80 16 182 55 393 101 580 127 54 8 78 16 88 30
23 33 115 90 123 76 4 -6 21 -86 38 -177 17 -91 40 -195 51 -231 11 -36 20
-74 20 -85 0 -10 14 -73 30 -138 17 -65 29 -124 28 -130 -2 -11 26 -108 43
-154 5 -13 18 -26 29 -29 11 -3 20 -9 20 -13 0 -4 7 -11 16 -14 16 -6 33 0
259 96 72 30 162 67 200 82 39 15 78 32 87 37 10 5 32 9 49 9 21 0 40 10 61
30 37 38 32 63 -13 58 -30 -3 -33 0 -51 52 -11 30 -33 89 -48 130 -24 67 -44
128 -98 305 -8 28 -28 83 -44 124 -19 47 -27 82 -23 98 9 36 74 103 178 182
51 38 137 104 191 146 55 41 121 89 148 106 35 23 48 37 48 55 0 20 -5 24 -28
24 -15 0 -43 -4 -61 -10 -39 -11 -193 -28 -326 -36 -49 -3 -144 -12 -210 -19
-66 -8 -149 -17 -185 -19 -36 -3 -94 -8 -130 -12 l-66 -6 -12 63 c-7 35 -17
82 -22 104 -13 56 -70 218 -80 229 -11 11 -80 36 -95 35 -5 0 -21 -4 -35 -9z
m58 -87 c2 -14 -5 -27 -21 -37 -13 -9 -37 -38 -54 -64 -75 -115 -114 -185
-116 -205 -3 -27 30 -36 40 -11 13 36 87 150 126 197 34 42 42 46 54 34 8 -8
15 -20 17 -28 1 -8 6 -24 10 -37 6 -17 0 -35 -23 -70 -27 -43 -108 -210 -140
-290 -13 -32 -16 -33 -65 -31 -28 2 -79 -1 -113 -5 -51 -7 -63 -6 -63 5 0 8
11 59 25 114 14 55 29 127 35 160 5 33 12 71 15 85 3 14 12 54 19 90 20 94 22
98 69 104 23 3 53 8 67 10 14 2 45 3 70 2 38 -1 45 -4 48 -23z m101 -398 c1
-22 5 -57 10 -78 5 -21 5 -39 0 -42 -5 -3 -47 -9 -94 -13 -63 -6 -85 -5 -85 4
0 16 108 225 128 248 16 17 18 16 29 -30 6 -27 12 -67 12 -89z m921 75 c0 -8
-60 -59 -190 -158 -19 -15 -41 -34 -50 -42 -8 -8 -56 -46 -105 -83 -76 -58
-94 -67 -119 -63 -16 4 -45 2 -65 -4 -20 -5 -57 -11 -82 -14 -25 -2 -56 -9
-68 -15 -11 -7 -50 -14 -85 -18 -59 -5 -65 -4 -76 16 -9 19 -14 20 -27 10 -11
-9 -13 -23 -9 -49 11 -71 33 -131 53 -151 l21 -21 28 31 c15 17 32 31 37 31 5
0 26 13 46 28 37 30 121 71 179 90 28 9 34 8 39 -6 2 -9 14 -40 25 -69 21 -55
18 -73 -12 -73 -18 0 -118 -32 -150 -49 -26 -13 -117 -13 -139 1 -35 22 -45 0
-33 -71 20 -113 51 -145 94 -97 13 14 74 50 135 81 62 31 115 60 118 66 4 5
14 9 23 9 13 0 22 -16 35 -58 22 -74 22 -80 -5 -92 -24 -10 -135 -39 -175 -45
-13 -2 -40 -6 -60 -9 -21 -4 -44 -2 -52 3 -20 13 -54 1 -48 -18 3 -9 15 -50
27 -91 12 -41 26 -79 30 -84 5 -5 32 13 62 43 35 34 86 68 152 101 108 54 111
54 122 -10 3 -19 9 -44 14 -55 21 -48 17 -57 -35 -76 -64 -23 -203 -25 -231
-4 -25 19 -31 19 -44 -4 -7 -13 -7 -28 -1 -43 6 -13 18 -51 28 -85 9 -34 24
-65 32 -68 9 -3 31 10 55 34 73 70 90 82 163 116 l72 34 10 -32 c5 -18 16 -49
25 -69 19 -44 20 -44 -95 -82 -82 -27 -143 -51 -301 -120 -59 -25 -114 -43
-122 -40 -14 5 -24 45 -30 115 -1 20 -7 56 -13 80 -6 24 -23 94 -38 154 -14
61 -32 130 -40 155 -8 25 -17 64 -21 88 -4 23 -11 45 -15 48 -5 3 -7 9 -4 14
3 5 -1 23 -10 39 -8 17 -15 40 -15 53 0 13 -7 41 -14 63 -8 22 -16 56 -19 75
-7 51 -26 98 -42 104 -11 4 -84 -43 -134 -86 -23 -19 -8 14 34 75 76 114 67
109 206 122 52 5 72 12 88 29 21 22 21 25 7 67 -30 85 -35 82 139 100 135 14
136 14 265 34 58 10 173 25 255 35 83 10 151 18 153 19 1 0 2 -3 2 -9z m-1114
-302 c5 -5 -31 -82 -56 -118 -9 -14 -28 -42 -41 -62 -22 -34 -28 -38 -66 -38
-30 0 -43 4 -43 14 0 7 23 49 51 92 63 97 66 104 41 104 -35 0 -148 -194 -122
-210 7 -5 3 -10 -12 -13 -32 -9 -78 -9 -78 1 1 28 15 52 31 52 11 0 19 4 19 9
0 14 67 122 92 149 19 19 31 23 66 20 23 -2 42 -1 42 2 0 6 69 4 76 -2z m-246
-12 c0 -2 -13 -30 -30 -63 l-29 -58 -1 36 c0 45 20 89 43 89 9 0 17 -2 17 -4z
m633 -147 c-62 -41 -83 -43 -83 -10 0 15 11 20 55 26 30 3 57 11 60 16 4 5 12
9 18 9 7 0 -16 -19 -50 -41z m162 -179 c-3 -5 -12 -10 -18 -10 -7 0 -6 4 3 10
19 12 23 12 15 0z m-35 -15 c0 -4 -74 -45 -112 -63 -3 -2 -8 7 -10 20 -3 20 3
25 42 34 51 13 80 16 80 9z m69 -199 c-2 -2 -27 -19 -55 -39 -50 -35 -52 -35
-58 -14 -7 27 -6 27 51 43 50 13 69 16 62 10z m36 -251 c-46 -40 -55 -42 -55
-16 0 11 -3 26 -6 35 -5 13 3 16 47 16 l54 0 -40 -35z"/>
<path d="M1068 1913 c-11 -3 -18 -14 -18 -27 0 -35 -24 -95 -59 -151 -36 -56
-40 -85 -12 -85 12 0 32 22 57 62 50 81 64 114 66 155 1 38 -9 51 -34 46z"/>
</g>
</svg>
