<?xml version="1.0" standalone="no"?>
<!DOCTYPE svg PUBLIC "-//W3C//DTD SVG 20010904//EN"
 "http://www.w3.org/TR/2001/REC-SVG-20010904/DTD/svg10.dtd">
<svg version="1.0" xmlns="http://www.w3.org/2000/svg"
 width="166.000000pt" height="140.000000pt" viewBox="0 0 166.000000 140.000000"
 preserveAspectRatio="xMidYMid meet">
<metadata>
Created by potrace 1.16, written by Peter Selinger 2001-2019
</metadata>
<g transform="translate(0.000000,140.000000) scale(0.100000,-0.100000)"
fill="#000000" stroke="none">
<path d="M1131 1352 c-5 -10 -13 -42 -17 -71 -4 -35 -13 -56 -27 -66 -18 -13
-23 -12 -43 10 -25 27 -53 32 -72 13 -9 -9 -15 -9 -24 0 -21 21 -48 -5 -48
-48 0 -29 -5 -42 -20 -50 -27 -15 -38 -6 -46 36 -10 55 -31 54 -81 -2 -23 -27
-43 -44 -44 -39 -3 31 -11 70 -15 74 -3 3 -13 0 -22 -7 -9 -7 -27 -16 -39 -21
-11 -6 -24 -15 -28 -21 -11 -19 -25 10 -18 37 7 31 -14 30 -57 -2 -30 -22 -36
-23 -50 -10 -21 19 -44 4 -46 -32 -1 -15 -3 -31 -3 -35 -1 -5 -5 -8 -11 -8 -5
0 -10 13 -10 29 0 38 -29 74 -53 66 -20 -8 -21 -22 -6 -99 l12 -57 -38 -39
c-20 -21 -34 -43 -31 -49 10 -16 46 -14 46 2 0 8 9 22 19 31 19 17 20 16 43
-21 13 -21 29 -50 36 -65 6 -16 16 -28 21 -28 12 0 22 27 15 44 -3 8 4 19 16
26 18 10 26 8 46 -11 32 -30 42 -17 21 26 -21 43 -22 69 -3 84 22 19 48 -29
36 -69 -10 -35 6 -49 36 -32 14 8 21 6 30 -6 12 -16 13 -16 20 1 3 10 2 29 -4
41 -9 20 0 60 10 46 2 -3 16 -22 31 -42 15 -20 27 -48 27 -62 0 -22 5 -26 28
-26 36 0 44 8 31 32 -8 14 -5 25 11 48 25 35 27 36 60 10 25 -19 25 -20 7 -51
-16 -28 -16 -34 -3 -47 12 -12 16 -10 31 22 19 40 19 40 45 26 25 -13 35 3 18
29 -10 16 -10 23 0 33 9 9 22 1 60 -40 68 -73 97 -70 47 6 -39 59 -54 104 -44
130 12 33 38 16 73 -48 19 -35 28 -65 27 -98 0 -26 5 -63 11 -83 7 -26 7 -46
0 -70 -6 -19 -12 -55 -13 -81 -3 -43 -5 -47 -33 -51 -17 -3 -33 -3 -34 -2 -2
2 12 33 32 69 20 36 36 68 36 71 0 4 -10 5 -22 3 -14 -2 -33 -22 -52 -55 -37
-62 -42 -67 -55 -58 -7 4 -4 19 9 45 24 48 24 50 2 50 -9 0 -23 -10 -31 -21
-10 -18 -15 -19 -22 -8 -5 8 -9 26 -9 40 0 49 -27 42 -72 -16 -23 -29 -46 -51
-51 -48 -5 3 -6 28 -3 55 5 37 4 48 -5 42 -6 -4 -21 -8 -33 -9 -11 -1 -24 -3
-28 -4 -5 0 -8 -12 -8 -25 0 -22 -11 -49 -33 -84 -7 -10 -12 -10 -23 -1 -20
16 -17 42 6 72 11 14 20 30 20 36 0 16 -26 13 -40 -4 -18 -21 -29 -19 -42 10
-17 38 -42 30 -89 -26 l-43 -50 -18 23 c-10 13 -17 34 -16 48 4 33 -25 38 -49
9 -10 -12 -28 -33 -41 -48 l-22 -26 -26 30 c-14 17 -30 40 -35 53 -10 27 -42
26 -47 -1 -2 -9 4 -31 12 -49 9 -17 15 -32 14 -34 -2 -1 -25 2 -53 8 -100 18
-175 21 -176 7 -1 -8 -3 -21 -4 -29 0 -8 -4 -26 -7 -40 -4 -14 -9 -78 -12
-142 -6 -136 -3 -140 64 -78 24 22 47 40 53 40 5 0 20 9 34 20 23 18 73 28 73
15 0 -3 -14 -32 -32 -65 -24 -47 -29 -63 -19 -73 19 -19 43 4 78 76 33 69 68
100 84 76 16 -26 9 -72 -16 -105 -25 -33 -31 -55 -18 -68 4 -4 6 -22 5 -39 -2
-22 4 -42 18 -60 l22 -28 -27 -40 c-25 -39 -28 -69 -5 -69 5 0 20 16 32 35 27
41 37 43 68 10 24 -26 60 -34 60 -14 0 6 -14 27 -30 46 -34 38 -36 46 -15 63
22 18 48 -6 42 -39 -4 -20 27 -101 38 -101 1 0 18 7 37 15 31 12 35 18 30 42
l-5 28 28 -25 c15 -14 34 -40 41 -58 19 -43 46 -42 67 4 l17 35 28 -23 c18
-14 27 -30 24 -40 -8 -32 27 -20 50 17 21 31 27 34 56 29 36 -7 43 8 16 37
-10 11 -14 25 -10 36 6 15 12 12 41 -22 27 -33 32 -47 30 -77 -5 -50 17 -69
48 -41 12 11 39 35 60 54 61 54 122 70 257 67 63 -1 121 1 128 6 20 12 -4 34
-47 42 -82 13 -76 -5 -56 174 1 14 6 52 9 85 4 33 13 92 21 130 7 39 18 124
25 190 15 158 16 160 44 173 15 7 34 33 51 71 15 33 36 68 46 77 11 9 19 23
19 29 0 7 12 16 26 19 14 4 24 12 21 19 -6 18 -44 25 -147 26 -66 1 -101 6
-114 16 -11 8 -39 15 -63 15 -46 0 -102 23 -116 46 -12 20 -55 17 -66 -4z
m105 -100 c-28 -2 -55 -7 -60 -13 -17 -16 -22 -10 -18 24 l4 33 62 -21 62 -20
-50 -3z m181 -109 c-7 -108 -23 -261 -36 -328 -30 -153 -41 -230 -46 -315 -3
-52 -8 -118 -11 -147 l-6 -51 -47 0 c-70 0 -145 23 -160 50 -10 19 -8 38 9
108 12 47 28 117 36 155 9 39 21 79 28 90 8 12 13 55 14 110 0 50 6 110 12
135 6 25 15 64 19 86 11 63 60 151 95 173 17 11 46 20 64 20 l34 1 -5 -87z
m128 65 c-15 -12 -40 -49 -55 -82 l-29 -61 0 83 -1 82 56 0 57 0 -28 -22z
m-380 2 c3 -5 1 -10 -4 -10 -6 0 -11 5 -11 10 0 6 2 10 4 10 3 0 8 -4 11 -10z
m-160 -78 c-5 -13 -9 -10 -21 13 -8 16 -12 36 -9 44 5 13 10 10 22 -12 8 -16
12 -36 8 -45z m-354 -79 c-5 -10 -12 -5 -26 20 -17 33 -17 34 1 62 l19 29 7
-49 c4 -27 3 -55 -1 -62z m-116 47 c0 -18 -5 -35 -11 -37 -12 -4 -27 53 -18
69 12 19 29 0 29 -32z m245 12 c0 -10 7 -28 17 -41 15 -22 15 -26 -2 -57 -10
-18 -22 -31 -26 -28 -5 2 -16 29 -25 59 -17 52 -17 55 1 75 20 22 35 18 35 -8z
m154 -24 c20 -28 20 -52 2 -67 -11 -9 -18 -6 -35 18 -19 26 -20 33 -9 51 16
26 23 25 42 -2z m-466 -55 c8 -25 7 -34 -3 -43 -10 -9 -16 -3 -25 25 -12 37
-6 76 9 59 5 -5 13 -23 19 -41z m142 -299 c0 -25 -18 -35 -49 -27 l-20 5 21
41 c19 38 21 40 34 22 8 -10 14 -29 14 -41z m-175 -12 c-22 -5 -29 3 -21 25 7
17 8 17 22 -2 13 -18 13 -20 -1 -23z m478 4 c3 -8 -1 -17 -10 -20 -20 -8 -25
-3 -17 18 8 20 20 21 27 2z m-742 -35 c35 -11 73 -19 84 -18 15 2 21 -5 23
-25 2 -18 -1 -28 -10 -28 -7 0 -52 -27 -101 -60 -48 -33 -89 -60 -92 -60 -8 0
-6 55 6 135 6 41 15 75 19 75 4 0 36 -9 71 -19z m287 -33 c-7 -21 -36 -34 -49
-21 -6 6 -8 16 -5 22 10 15 59 14 54 -1z m189 -4 c-3 -3 -12 -4 -19 -1 -8 3
-5 6 6 6 11 1 17 -2 13 -5z m458 -56 c-11 -66 -45 -171 -62 -190 -8 -9 -21
-46 -30 -82 -8 -36 -18 -66 -22 -66 -9 0 -31 45 -31 64 0 8 7 19 15 26 8 7 15
21 15 31 0 11 -7 19 -15 19 -8 0 -15 -4 -15 -10 0 -5 -4 -10 -10 -10 -5 0 -10
9 -10 21 0 41 -25 12 -28 -32 -2 -43 -19 -89 -32 -89 -3 0 -12 15 -18 34 -10
27 -10 40 0 61 10 23 10 29 -3 39 -13 10 -12 16 6 51 12 22 28 40 36 40 8 0
15 12 17 30 4 44 23 85 38 85 20 0 18 -17 -12 -87 -27 -63 -27 -106 0 -84 7 6
21 31 31 56 11 31 22 45 35 45 14 0 20 9 22 37 2 30 8 39 28 44 50 14 52 12
45 -33z m-218 10 c-3 -8 -6 -5 -6 6 -1 11 2 17 5 13 3 -3 4 -12 1 -19z m-227
6 c0 -12 -44 -84 -51 -84 -4 0 -10 7 -13 16 -11 28 -6 53 12 63 19 11 52 14
52 5z m100 -10 c0 -8 -4 -12 -10 -9 -5 3 -10 10 -10 16 0 5 5 9 10 9 6 0 10
-7 10 -16z m-230 -20 c0 -8 -15 -37 -34 -65 l-33 -50 -13 32 c-12 27 -11 36 5
65 22 42 75 55 75 18z m302 -96 c-26 -59 -26 -60 -7 -74 19 -14 19 -15 -3 -20
-13 -4 -22 -14 -22 -25 0 -11 -10 -35 -22 -53 l-23 -34 -22 46 -22 46 21 46
c12 26 31 51 42 56 16 7 20 16 18 42 -2 19 4 44 13 59 l17 25 18 -27 c17 -26
17 -28 -8 -87z m-113 68 c9 -10 6 -24 -9 -57 -11 -24 -20 -53 -20 -64 0 -11
-16 -36 -36 -54 -36 -34 -44 -33 -57 3 -2 5 -11 7 -20 3 -19 -7 -22 -39 -6
-69 7 -12 7 -24 2 -29 -6 -6 -20 6 -38 30 -25 37 -26 43 -15 71 7 17 10 33 7
36 -10 10 -60 -35 -85 -77 -13 -21 -27 -39 -31 -39 -5 0 -17 21 -28 48 -19 47
-19 47 0 80 l20 33 29 -30 c17 -17 36 -31 43 -31 18 0 41 30 56 73 7 20 17 37
21 37 13 0 29 -50 23 -70 -8 -25 23 -34 51 -16 12 9 25 30 29 48 9 41 33 88
44 88 5 0 14 -6 20 -14z m-33 -238 c3 -13 16 -36 27 -51 l20 -29 -21 -20 -20
-20 -27 47 c-25 41 -26 49 -15 71 17 30 27 30 36 2z m413 -41 l41 -24 -47 -30
c-27 -18 -49 -30 -51 -28 -5 4 8 105 13 105 2 0 21 -10 44 -23z m-261 -72
c-15 -33 -21 -32 -40 9 -15 30 -15 36 -1 56 l15 22 19 -31 c15 -25 17 -35 7
-56z"/>
</g>
</svg>
