<?xml version="1.0" standalone="no"?>
<!DOCTYPE svg PUBLIC "-//W3C//DTD SVG 20010904//EN"
 "http://www.w3.org/TR/2001/REC-SVG-20010904/DTD/svg10.dtd">
<svg version="1.0" xmlns="http://www.w3.org/2000/svg"
 width="260.000000pt" height="202.000000pt" viewBox="0 0 260.000000 202.000000"
 preserveAspectRatio="xMidYMid meet">
<metadata>
Created by potrace 1.16, written by Peter Selinger 2001-2019
</metadata>
<g transform="translate(0.000000,202.000000) scale(0.100000,-0.100000)"
fill="#000000" stroke="none">
<path d="M724 1951 c-27 -26 -70 -83 -66 -89 8 -11 -23 -19 -38 -10 -23 15
-50 3 -50 -21 0 -11 -13 -30 -30 -43 -16 -12 -30 -26 -30 -31 0 -24 -61 -98
-133 -162 -43 -38 -84 -72 -90 -75 -7 -3 -34 -20 -60 -38 -40 -28 -46 -36 -36
-49 8 -8 23 -13 37 -10 24 5 82 -18 82 -32 0 -10 -75 -61 -89 -61 -10 0 -22
-51 -15 -62 3 -5 17 -2 32 6 24 12 34 11 82 -6 30 -10 70 -23 89 -28 18 -5 57
-25 86 -44 28 -20 55 -36 58 -36 4 0 25 -11 47 -25 22 -14 59 -32 82 -41 24
-10 53 -28 66 -41 23 -24 42 -23 42 1 0 8 7 19 15 26 13 11 15 5 17 -46 0 -33
3 -72 4 -89 6 -55 7 -332 2 -341 -3 -5 -9 -45 -13 -89 -9 -113 -12 -135 -17
-141 -3 -2 -24 -2 -46 2 -34 5 -43 12 -51 36 -7 20 -16 28 -28 26 -20 -4 -20
-11 -8 -188 4 -58 9 -108 12 -113 8 -14 36 -7 65 18 63 53 131 77 313 110 119
21 159 25 285 30 92 3 116 7 118 19 3 16 -12 20 -119 31 -54 6 -57 7 -62 38
-2 18 0 57 4 87 5 30 9 91 9 135 -1 44 4 94 11 110 6 17 13 41 15 55 5 37 42
181 48 187 5 5 36 -62 36 -78 0 -13 27 -11 35 2 5 6 11 4 19 -6 14 -20 28 -8
43 40 7 23 16 31 39 33 26 3 32 -2 48 -35 43 -91 112 -195 142 -214 64 -39 73
-15 16 41 -20 20 -52 65 -70 99 -29 56 -31 64 -17 78 9 8 14 23 11 32 -2 9 -7
34 -10 56 -6 36 -2 31 43 -50 28 -49 55 -111 62 -137 11 -46 21 -58 34 -39 7
12 -35 124 -70 186 -20 37 -23 50 -14 61 6 8 9 21 5 29 -4 11 9 22 46 40 29
14 53 25 54 25 0 0 9 -21 19 -47 10 -27 21 -52 25 -58 16 -20 13 -51 -8 -99
-12 -27 -20 -51 -18 -53 10 -10 44 9 49 27 5 20 27 28 27 10 0 -5 9 -10 20
-10 24 0 24 3 5 40 -14 27 -13 32 5 68 17 33 25 38 45 34 18 -3 25 0 25 12 0
9 -4 16 -10 16 -12 0 -13 37 -1 44 5 3 14 26 20 51 11 42 15 47 74 75 35 16
104 43 155 60 99 32 172 67 172 81 0 10 -26 16 -104 23 -33 3 -62 9 -65 15 -3
5 -21 11 -38 13 l-32 3 18 41 c10 22 51 73 91 112 60 59 71 74 61 86 -7 8 -20
12 -28 9 -9 -4 -21 1 -29 12 -17 24 -40 13 -65 -30 -12 -19 -24 -33 -29 -30
-4 2 -10 40 -13 82 -3 43 -9 92 -13 108 -4 17 -7 42 -6 58 2 42 -13 33 -55
-35 -35 -57 -38 -60 -41 -35 -4 33 -19 35 -32 5 -20 -48 -34 -57 -77 -51 -41
5 -68 -11 -43 -27 15 -9 0 -39 -81 -161 -34 -51 -66 -88 -73 -86 -6 3 -70 10
-141 17 -72 7 -152 16 -180 22 -138 26 -161 32 -180 44 -11 8 -29 14 -42 14
-12 0 -26 8 -32 18 -7 13 -13 14 -21 6 -20 -19 6 -52 50 -65 50 -15 42 -24
-27 -33 l-53 -7 0 33 c0 18 5 51 10 72 17 75 -19 71 -46 -4 -18 -51 -38 -57
-54 -15 -10 26 -173 138 -225 155 -31 10 -35 16 -35 46 0 19 -7 51 -15 71 -8
19 -15 50 -15 69 0 41 -11 49 -36 25z m16 -95 c19 -44 26 -76 14 -76 -3 0 -23
10 -44 22 l-39 23 22 37 c11 21 22 38 24 38 1 0 12 -20 23 -44z m-67 -86 c14
-12 75 -43 134 -70 59 -27 110 -55 112 -62 12 -36 116 -108 156 -108 15 0 17
-6 11 -40 -7 -46 9 -60 47 -42 23 11 78 26 161 44 36 8 64 8 105 0 54 -11 159
-24 302 -37 l66 -6 -41 -77 c-61 -112 -108 -180 -130 -186 -11 -3 -15 -9 -11
-17 9 -14 -34 -99 -51 -99 -6 0 -24 -6 -40 -14 -41 -20 -87 -27 -103 -17 -11
7 -10 14 3 44 10 19 28 45 42 58 48 45 35 52 -88 44 -122 -8 -139 -12 -116
-29 8 -6 18 -36 22 -66 l7 -55 -125 0 c-109 0 -149 -6 -135 -19 6 -6 124 -15
201 -15 57 -1 66 -3 63 -18 -2 -10 -7 -101 -10 -203 -3 -102 -8 -196 -10 -210
-16 -99 -24 -182 -19 -195 5 -12 -5 -15 -57 -15 -35 0 -82 5 -104 10 -40 9
-177 15 -205 9 -11 -3 -14 3 -13 21 1 14 3 52 3 85 1 34 4 66 8 71 15 23 116
30 257 19 70 -5 109 5 90 24 -14 13 -265 26 -265 13 0 -5 -11 -7 -23 -5 -18 4
-23 10 -21 26 4 29 33 224 45 307 6 36 18 83 28 105 25 58 45 145 35 154 -5 5
-37 5 -70 2 -69 -7 -70 -5 -25 60 14 20 33 47 41 59 8 13 30 41 47 64 54 68
85 118 78 124 -4 4 -26 -14 -48 -39 -40 -44 -43 -46 -58 -29 -12 12 -46 21
-120 30 -57 7 -144 23 -194 36 -117 31 -137 34 -153 21 -10 -8 -10 -12 -1 -18
7 -4 13 -32 14 -66 1 -33 5 -64 9 -71 11 -19 40 -14 87 13 24 13 63 27 87 31
23 3 45 10 48 15 11 19 224 -2 224 -22 0 -16 -118 -114 -218 -180 l-104 -70
-45 23 c-39 20 -50 34 -92 118 -26 52 -53 110 -59 128 -7 19 -20 36 -32 39
-11 3 -20 7 -20 10 0 3 24 42 53 86 30 45 66 103 81 130 16 26 33 47 40 47 7
0 23 11 36 25 28 30 30 30 63 5z m1482 -11 c10 -43 1 -46 -12 -4 -6 19 -7 35
-3 35 5 0 11 -14 15 -31z m-26 -49 c7 -25 24 -65 36 -90 l23 -46 -23 -37 c-21
-36 -23 -37 -28 -15 -12 51 -26 96 -46 148 -26 67 -26 87 -3 93 23 5 26 0 41
-53z m-159 3 c0 -5 -10 -19 -21 -33 l-20 -25 16 33 c15 30 25 41 25 25z m85
-75 c10 -35 30 -91 43 -126 30 -77 24 -88 -41 -72 l-45 12 -8 81 c-9 94 -6
137 8 155 18 21 24 14 43 -50z m-86 -70 c0 -40 -3 -67 -6 -59 -10 24 -45 53
-53 45 -5 -5 -19 -24 -32 -43 -22 -32 -58 -51 -58 -30 0 20 52 87 75 97 13 6
31 23 41 37 9 14 20 25 25 25 5 0 9 -33 8 -72z m321 64 c0 -5 -13 -21 -30 -37
-24 -23 -30 -25 -30 -11 0 29 19 56 40 56 11 0 20 -4 20 -8z m-1936 -142 c-29
-44 -36 -47 -54 -25 -10 13 -9 15 9 15 12 0 31 11 43 25 31 36 32 31 2 -15z
m1576 -5 c0 -8 -4 -15 -8 -15 -5 0 -9 7 -9 15 0 8 4 15 9 15 4 0 8 -7 8 -15z
m-1267 -22 c43 -7 50 -23 9 -23 -15 0 -45 -9 -66 -21 -31 -17 -41 -18 -47 -7
-5 7 -7 19 -4 26 3 8 5 21 5 29 0 12 7 14 33 8 17 -3 49 -9 70 -12z m1157 -21
c0 -5 -9 -17 -21 -28 -21 -19 -21 -19 -8 9 12 26 29 37 29 19z m70 -12 c0 -5
-2 -10 -4 -10 -3 0 -8 5 -11 10 -3 6 -1 10 4 10 6 0 11 -4 11 -10z m70 -15 c0
-8 14 -44 30 -81 18 -39 28 -74 25 -85 -7 -21 -41 -43 -54 -35 -12 8 -29 81
-36 154 -5 58 -4 62 15 62 11 0 20 -7 20 -15z m-96 -29 c9 -19 16 -41 16 -49
0 -9 6 -22 13 -29 6 -7 13 -26 14 -42 1 -16 6 -32 11 -35 20 -12 -7 -47 -44
-59 -21 -6 -39 -10 -41 -9 -9 10 -12 148 -3 171 16 42 5 43 -40 2 -50 -45 -64
-46 -43 -1 9 19 22 35 28 35 6 0 22 11 35 25 13 14 27 25 31 25 4 0 14 -15 23
-34z m213 -15 c-6 -14 -16 -34 -23 -44 -10 -16 -12 -15 -22 10 -6 15 -14 40
-18 55 -6 26 -6 26 34 16 39 -10 40 -11 29 -37z m-1642 -26 c15 -30 30 -57 36
-60 5 -4 9 -12 9 -20 0 -15 -10 -13 -111 25 l-67 24 47 43 c25 23 49 42 53 43
4 0 19 -25 33 -55z m1758 30 c12 -8 50 -15 84 -17 34 -1 60 -4 58 -7 -3 -2
-31 -13 -62 -23 -64 -22 -133 -50 -177 -73 -16 -9 -31 -13 -34 -10 -6 6 28 82
54 123 17 25 45 28 77 7z m-403 -112 c0 -25 -1 -26 -16 -11 -9 9 -13 21 -10
27 13 20 26 11 26 -16z m-936 -35 c-19 -29 -40 -61 -47 -72 -39 -60 -40 -60
-70 -30 l-27 27 22 24 c12 12 27 23 33 23 7 0 20 9 30 20 10 11 22 20 27 20 6
0 21 9 35 20 14 11 27 20 29 20 1 0 -13 -24 -32 -52z m905 -15 c42 -50 40 -67
-9 -80 -35 -9 -40 -8 -40 6 0 9 -5 23 -10 31 -9 13 -12 13 -23 0 -7 -8 -23
-24 -37 -35 -23 -20 -23 -19 4 30 26 46 61 84 78 85 3 0 20 -17 37 -37z m231
-30 c0 -5 -5 -15 -10 -23 -8 -12 -10 -11 -10 8 0 12 5 22 10 22 6 0 10 -3 10
-7z m-1030 -34 c0 -6 -11 -38 -24 -72 -28 -70 -32 -90 -50 -237 -7 -58 -14
-91 -15 -75 -3 45 -13 265 -15 305 -1 24 -6 37 -19 40 -16 5 -16 7 -2 28 13
18 25 22 71 22 32 0 54 -4 54 -11z m984 -24 c5 -27 2 -45 -15 -75 -26 -46 -39
-41 -58 21 -7 23 -15 47 -17 54 -3 8 6 17 23 23 50 18 60 15 67 -23z m-589
-37 c-18 -35 -36 -83 -39 -106 -7 -64 -16 -64 -14 -1 1 30 -1 77 -6 106 -9 57
-6 59 61 62 l33 1 -35 -62z m325 38 c0 -8 -7 -16 -15 -20 -12 -4 -13 -2 -2 14
14 24 17 25 17 6z m7 -88 c-3 -8 -6 -5 -6 6 -1 11 2 17 5 13 3 -3 4 -12 1 -19z
m-197 -45 c-11 -15 -30 -33 -41 -41 -18 -12 -23 -13 -30 -1 -16 25 -10 37 29
52 56 24 67 21 42 -10z m137 -17 c15 -48 1 -62 -21 -21 -11 19 -26 35 -35 36
-12 0 -11 3 4 9 34 15 41 11 52 -24z m-760 -308 c-3 -8 -6 -5 -6 6 -1 11 2 17
5 13 3 -3 4 -12 1 -19z m-65 -350 c10 -14 20 -19 32 -15 9 4 15 11 11 16 -9
16 63 24 144 16 42 -4 86 -7 98 -6 38 1 35 -18 -4 -24 -90 -14 -230 -54 -296
-82 -31 -14 -60 -23 -63 -20 -4 3 -9 35 -11 71 l-6 66 40 0 c31 0 44 -5 55
-22z"/>
<path d="M1015 1119 c-9 -13 34 -21 117 -21 82 0 103 6 78 22 -18 11 -188 11
-195 -1z"/>
<path d="M994 939 c-3 -6 -3 -13 0 -16 7 -8 216 -21 239 -15 17 4 24 22 10 22
-5 0 -30 2 -58 5 -148 13 -185 13 -191 4z"/>
<path d="M958 819 c-24 -15 32 -27 146 -30 86 -3 120 -1 123 8 3 7 -9 14 -29
17 -55 9 -228 12 -240 5z"/>
<path d="M990 712 c-106 -12 -89 -29 33 -35 56 -2 114 -7 129 -11 29 -7 47 9
29 27 -11 11 -145 24 -191 19z"/>
<path d="M912 504 c-10 -5 -10 -9 -1 -20 9 -11 42 -14 143 -14 115 0 171 9
156 24 -8 7 -283 16 -298 10z"/>
</g>
</svg>
