<?xml version="1.0" standalone="no"?>
<!DOCTYPE svg PUBLIC "-//W3C//DTD SVG 20010904//EN"
 "http://www.w3.org/TR/2001/REC-SVG-20010904/DTD/svg10.dtd">
<svg version="1.0" xmlns="http://www.w3.org/2000/svg"
 width="250.000000pt" height="202.000000pt" viewBox="0 0 250.000000 202.000000"
 preserveAspectRatio="xMidYMid meet">
<metadata>
Created by potrace 1.16, written by Peter Selinger 2001-2019
</metadata>
<g transform="translate(0.000000,202.000000) scale(0.100000,-0.100000)"
fill="#000000" stroke="none">
<path d="M1355 1995 c-11 -9 -49 -30 -85 -48 -71 -36 -84 -60 -33 -65 24 -2
34 -10 41 -30 6 -15 22 -39 36 -54 14 -15 26 -35 26 -44 0 -10 7 -26 17 -36
26 -29 8 -33 -54 -10 -224 80 -291 102 -315 102 -18 0 -26 4 -23 13 10 26 -9
35 -53 27 -24 -4 -66 -6 -95 -4 -67 4 -117 -11 -117 -36 0 -23 -86 -100 -111
-100 -10 0 -23 -9 -29 -19 -13 -26 -182 -151 -294 -219 -50 -30 -100 -63 -111
-73 -11 -10 -33 -22 -48 -28 -37 -14 -31 -30 24 -59 41 -22 76 -36 284 -114
133 -49 142 -53 156 -64 8 -6 39 -19 69 -30 30 -10 59 -22 64 -26 6 -4 20 -8
32 -8 38 0 37 -18 -1 -53 -27 -25 -36 -40 -33 -58 3 -21 8 -24 36 -21 37 4
110 -18 197 -59 33 -15 82 -34 108 -41 26 -7 46 -17 44 -23 -3 -9 -278 -156
-359 -192 -20 -8 -39 -21 -41 -28 -6 -13 34 -74 74 -117 40 -42 72 -37 128 20
73 73 208 192 220 192 5 0 12 8 15 18 4 11 17 25 30 32 22 11 33 8 102 -26
l77 -38 -24 -18 c-120 -87 -255 -176 -309 -204 -86 -45 -98 -64 -62 -98 15
-14 44 -41 64 -61 40 -38 59 -43 80 -21 23 25 221 236 280 298 l56 59 49 -33
c70 -49 122 -78 139 -78 28 0 -24 -73 -118 -166 -98 -96 -154 -179 -137 -201
9 -10 17 -9 43 3 17 9 39 23 48 31 9 8 22 12 29 7 8 -5 10 -2 6 8 -4 11 32 53
116 136 67 66 142 137 166 158 25 22 58 52 75 67 17 16 77 60 134 99 56 39
102 76 102 83 0 9 -82 81 -158 138 -16 13 -82 -32 -82 -55 0 -10 -5 -18 -10
-18 -24 0 -77 30 -105 59 l-29 31 52 53 c51 52 64 77 40 77 -7 0 -38 -26 -70
-57 -55 -54 -58 -56 -76 -40 -10 9 -21 17 -25 17 -9 0 -117 82 -117 89 1 3 23
24 50 45 47 37 55 56 25 56 -8 0 -35 -18 -60 -40 -25 -22 -48 -40 -51 -40 -6
0 -74 68 -74 74 0 7 103 40 123 38 9 0 17 3 17 7 0 9 78 37 84 30 2 -2 20 -39
40 -81 27 -55 45 -81 66 -92 16 -8 29 -11 28 -8 -1 4 2 15 7 25 5 12 -4 39
-29 86 -20 38 -36 74 -36 80 0 6 13 11 30 11 23 0 33 -7 47 -32 28 -52 73
-160 84 -201 7 -28 15 -37 27 -35 40 8 26 114 -30 225 -25 50 -18 63 37 63 45
0 225 37 266 54 39 16 154 43 204 48 45 4 42 30 -7 63 -30 20 -67 32 -123 41
-44 7 -96 20 -115 28 -54 22 -135 44 -250 67 -144 29 -148 31 -155 76 -4 21
-11 52 -15 68 -9 32 -15 76 -26 192 -4 40 -12 78 -19 83 -9 7 -27 4 -60 -10
-25 -11 -55 -20 -64 -20 -24 0 -55 -36 -48 -55 4 -8 15 -15 26 -15 11 0 23 -5
27 -11 12 -20 82 -234 78 -238 -6 -6 -86 19 -111 35 -13 8 -23 23 -23 33 0 10
-11 53 -25 96 -15 45 -27 106 -28 148 -3 78 -15 91 -52 62z m9 -122 c3 -25 3
-49 0 -52 -3 -3 -17 8 -30 24 -34 43 -32 75 6 75 13 0 19 -12 24 -47z m235
-10 c13 -51 25 -153 17 -153 -5 0 -36 95 -40 125 -1 7 -8 21 -16 30 -12 14
-12 18 1 26 23 14 28 11 38 -28z m-724 -84 c-10 -32 -56 -129 -61 -129 -2 0
-4 31 -4 69 0 68 1 70 28 74 15 2 31 5 35 6 5 0 5 -8 2 -20z m-113 -68 c5 -94
-6 -398 -15 -407 -14 -15 -16 4 -18 157 -1 166 9 319 21 319 4 0 9 -31 12 -69z
m245 45 c21 -8 64 -22 96 -32 85 -25 84 -38 -4 -30 -93 8 -159 17 -159 22 0 6
23 54 26 54 2 0 21 -6 41 -14z m-363 -108 c-2 -18 -4 -99 -5 -180 -1 -84 -6
-148 -11 -148 -9 0 -2 318 7 348 7 22 11 13 9 -20z m446 2 c63 -7 153 -21 200
-32 47 -11 96 -22 110 -25 29 -5 51 -42 100 -165 46 -117 52 -110 -102 -107
-147 4 -151 2 -129 -61 8 -25 7 -30 -6 -30 -19 0 -155 -140 -150 -155 2 -5 17
-13 33 -16 16 -4 67 -23 113 -42 l83 -35 -55 -35 c-30 -20 -58 -40 -61 -46
-15 -23 -48 -9 -106 44 -33 30 -64 55 -68 55 -5 0 -42 32 -82 70 -40 39 -80
70 -89 70 -9 0 -32 -14 -51 -31 l-35 -31 -3 53 c-2 39 1 56 12 65 9 6 12 14 8
18 -8 9 -13 316 -6 365 4 24 8 30 14 21 11 -18 40 -5 40 20 0 15 7 20 29 20
17 0 31 6 35 15 3 10 14 14 28 11 13 -3 75 -10 138 -16z m-400 -135 c1 -55 1
-163 0 -240 -3 -129 -4 -134 -10 -61 -3 44 -5 127 -4 185 2 58 3 133 3 165 1
94 9 61 11 -49z m-160 -50 c-5 -77 -7 -168 -3 -203 5 -54 4 -62 -10 -56 -24 9
-30 55 -22 162 4 54 7 123 7 155 0 38 6 63 16 73 8 8 16 13 18 11 2 -1 -1 -66
-6 -142z m56 97 c-11 -10 -15 4 -8 28 l7 25 3 -23 c2 -13 1 -26 -2 -30z m997
-8 c35 -6 41 -12 64 -63 14 -31 29 -72 33 -91 5 -19 11 -45 15 -56 5 -18 2
-22 -21 -27 -15 -3 -34 -3 -41 0 -10 4 -106 184 -132 247 -2 5 7 6 20 3 13 -4
41 -10 62 -13z m-1118 -71 c-1 -10 -6 -71 -10 -135 -4 -65 -11 -115 -16 -112
-14 9 -11 288 3 302 10 10 14 7 19 -13 4 -14 6 -33 4 -42z m118 -85 c-3 -84
-7 -155 -9 -157 -2 -2 -4 63 -4 146 0 131 3 163 16 163 2 0 1 -69 -3 -152z
m1401 39 c121 -35 215 -67 209 -70 -6 -4 -35 -5 -64 -3 -30 2 -79 0 -109 -5
-128 -19 -231 -31 -236 -26 -7 7 -45 107 -54 146 -8 31 -7 33 13 28 12 -3 121
-35 241 -70z m-1595 -62 c0 -63 -4 -115 -9 -115 -12 0 -21 177 -10 205 5 14
12 25 15 25 3 0 5 -52 4 -115z m-63 -5 c2 -81 -2 -88 -35 -71 -28 16 -28 104
1 130 12 12 24 21 27 21 3 0 7 -36 7 -80z m-102 -6 c15 -38 8 -45 -26 -28 -30
16 -31 17 -13 30 24 18 31 18 39 -2z m1779 -51 c-7 -2 -19 -2 -25 0 -7 3 -2 5
12 5 14 0 19 -2 13 -5z m-1376 -60 c-3 -10 -5 -2 -5 17 0 19 2 27 5 18 2 -10
2 -26 0 -35z m1236 40 c-7 -2 -19 -2 -25 0 -7 3 -2 5 12 5 14 0 19 -2 13 -5z
m-299 -19 c10 -25 7 -34 -10 -34 -9 0 -57 -14 -106 -30 -50 -17 -93 -28 -96
-26 -2 3 -8 23 -12 46 -6 33 -4 40 9 41 9 1 38 3 65 5 27 2 51 6 54 9 3 3 24
5 48 5 29 0 44 -5 48 -16z m156 7 c0 -11 -59 -20 -65 -11 -3 4 -2 10 2 14 10
9 63 7 63 -3z m-971 -63 l-1 -63 -9 50 c-8 47 -6 75 6 75 3 0 4 -28 4 -62z
m-109 -49 c0 -11 -4 -17 -10 -14 -5 3 -10 13 -10 21 0 8 5 14 10 14 6 0 10 -9
10 -21z m655 -20 c4 -17 14 -33 23 -37 24 -9 92 -73 91 -86 0 -6 -3 -6 -6 1
-3 8 -14 11 -28 7 -22 -5 -185 51 -185 64 0 10 85 89 92 85 3 -2 9 -17 13 -34z
m-275 -192 c30 -20 73 -53 95 -72 l40 -36 -30 7 c-37 8 -111 37 -190 74 -33
15 -79 37 -103 47 l-43 18 41 44 41 43 47 -44 c26 -24 72 -61 102 -81z m470
23 c22 -11 40 -23 40 -25 0 -5 -79 32 -89 41 -11 10 14 2 49 -16z m45 -78 c33
-13 62 -26 64 -28 8 -7 -182 -144 -200 -144 -15 0 -129 83 -129 94 0 5 29 38
65 73 l66 63 37 -16 c20 -9 64 -28 97 -42z m-275 -26 c0 -2 -7 -9 -15 -16 -13
-11 -14 -10 -9 4 5 14 24 23 24 12z m514 -118 c8 -14 -1 -35 -54 -110 -35 -51
-68 -96 -73 -100 -6 -3 -32 10 -58 30 -26 21 -66 50 -89 67 l-41 30 53 51 c29
28 70 70 90 93 l38 42 61 -43 c34 -24 67 -51 73 -60z m131 52 c4 -6 24 -22 46
-36 21 -13 39 -28 39 -32 0 -5 -21 -24 -47 -42 -73 -52 -220 -178 -282 -243
-59 -62 -121 -107 -70 -51 15 16 31 38 37 49 6 11 47 70 92 130 45 61 85 116
87 123 3 7 21 19 40 27 30 13 32 16 21 34 -9 15 -9 23 1 35 16 19 27 20 36 6z
m-785 -35 c0 -2 -11 -15 -25 -29 -14 -14 -25 -21 -25 -16 0 6 -5 10 -11 10 -6
0 -9 -6 -6 -14 6 -15 -63 -85 -156 -159 -65 -52 -77 -55 -99 -29 -38 43 -28
60 58 105 89 45 178 93 214 115 34 21 50 27 50 17z m204 -188 c-27 -29 -64
-70 -82 -92 -52 -63 -173 -185 -183 -185 -5 0 -9 6 -9 14 0 8 -16 27 -36 43
l-37 29 64 31 c35 17 87 48 114 70 28 21 77 56 110 78 33 21 69 44 80 51 33
21 30 16 -21 -39z m236 -221 c0 -2 -8 -10 -17 -17 -16 -13 -17 -12 -4 4 13 16
21 21 21 13z"/>
</g>
</svg>
