<?xml version="1.0" standalone="no"?>
<!DOCTYPE svg PUBLIC "-//W3C//DTD SVG 20010904//EN"
 "http://www.w3.org/TR/2001/REC-SVG-20010904/DTD/svg10.dtd">
<svg version="1.0" xmlns="http://www.w3.org/2000/svg"
 width="259.000000pt" height="161.000000pt" viewBox="0 0 259.000000 161.000000"
 preserveAspectRatio="xMidYMid meet">
<metadata>
Created by potrace 1.16, written by Peter Selinger 2001-2019
</metadata>
<g transform="translate(0.000000,161.000000) scale(0.100000,-0.100000)"
fill="#000000" stroke="none">
<path d="M1213 1543 c-19 -7 -16 -19 17 -65 37 -50 38 -80 5 -102 -21 -14 -28
-14 -45 -4 -11 7 -23 21 -26 30 -7 22 -34 24 -34 3 0 -9 11 -27 25 -41 14 -14
25 -27 25 -30 0 -7 -12 -18 -90 -84 -35 -30 -73 -63 -85 -73 -11 -10 -32 -26
-47 -35 -36 -21 -36 -36 -1 -27 14 3 58 35 96 71 38 35 73 64 77 64 4 0 15
-11 23 -24 17 -25 7 -46 -21 -46 -7 0 -22 -5 -33 -11 -18 -9 -19 -12 -5 -22
14 -10 8 -20 -45 -74 -34 -35 -55 -63 -47 -63 8 0 23 7 34 15 26 20 30 19 54
-15 18 -25 19 -32 8 -51 -13 -21 -16 -21 -213 -15 -212 6 -357 29 -475 75 -30
12 -68 22 -83 23 -52 2 -83 -61 -91 -187 -7 -106 -16 -188 -21 -194 -6 -6 15
-41 24 -41 5 0 33 16 62 36 30 20 74 46 98 56 42 20 169 53 234 63 18 2 73 11
122 20 109 19 305 17 305 -2 0 -7 9 -18 20 -25 11 -7 20 -17 20 -23 0 -17
-164 -165 -182 -165 -19 0 -24 -15 -8 -25 14 -9 31 2 102 70 103 97 116 107
128 100 8 -5 7 -11 -2 -23 -11 -13 -10 -15 5 -9 9 4 -35 -45 -100 -108 -64
-63 -115 -116 -112 -116 22 -7 56 -5 67 3 6 6 12 7 12 2 -1 -10 -77 -70 -103
-80 -9 -3 -17 -13 -17 -20 0 -19 48 5 107 52 58 48 65 42 13 -11 -24 -24 -41
-48 -37 -52 4 -4 35 23 70 60 34 36 93 93 131 126 l70 61 23 -22 c13 -12 23
-26 23 -32 0 -12 -95 -76 -189 -128 -35 -19 -50 -33 -42 -38 15 -8 -69 -64
-112 -74 -16 -4 -34 -11 -40 -16 -7 -5 -27 -22 -45 -36 -38 -30 -30 -55 9 -33
13 7 34 14 47 15 12 2 39 16 59 33 21 17 41 31 46 31 5 0 88 39 185 86 186 91
174 89 245 59 26 -11 22 19 -5 38 -13 8 -38 29 -56 46 -29 27 -32 34 -21 47 8
10 21 13 36 9 13 -3 23 -3 23 0 0 8 -21 49 -29 55 -3 3 -12 13 -20 23 -18 22
1 47 31 40 17 -5 19 -3 14 15 -5 15 -1 24 14 32 28 15 36 8 55 -50 9 -28 19
-50 22 -50 4 0 32 24 64 53 107 97 136 113 255 136 64 13 217 57 249 72 11 5
52 18 90 28 226 61 245 71 123 65 -75 -3 -88 -1 -143 26 -71 34 -157 53 -358
75 -156 17 -243 44 -233 70 3 8 1 17 -4 20 -17 10 -69 -86 -76 -140 -1 -11 -3
-22 -3 -25 -1 -3 -12 13 -25 35 l-23 40 25 27 c34 37 20 49 -17 14 -25 -24
-29 -25 -42 -10 -12 14 -8 21 31 55 27 23 41 42 35 46 -6 5 -23 25 -39 46
l-28 38 39 34 c43 39 26 48 -19 10 -32 -27 -48 -32 -48 -14 0 6 -9 23 -21 37
l-21 27 29 25 c16 14 44 38 62 53 18 15 31 30 28 34 -6 6 -57 -28 -97 -64 -14
-13 -28 -23 -32 -23 -4 0 -24 23 -45 50 -20 28 -40 50 -43 49 -3 0 -11 -3 -17
-6z m100 -197 c15 -22 15 -25 -2 -40 -22 -20 -44 -13 -62 20 -11 22 -11 27 1
34 25 16 47 11 63 -14z m-83 -71 c0 -6 -5 -16 -12 -23 -9 -9 -16 -8 -30 5 -23
20 -23 32 0 49 14 11 19 10 30 -3 6 -9 12 -22 12 -28z m183 -19 c15 -22 14
-25 -12 -50 l-27 -26 -17 35 c-24 51 -22 65 12 65 19 0 34 -8 44 -24z m-93
-73 c20 -26 22 -44 4 -49 -13 -4 -56 54 -49 66 10 16 22 12 45 -17z m-56 -60
c15 -20 16 -29 7 -49 -6 -13 -16 -24 -23 -24 -12 1 -84 89 -76 94 35 29 59 23
92 -21z m335 3 c24 -13 24 -14 -18 -21 -47 -8 -56 -4 -48 20 8 18 34 19 66 1z
m-229 -16 c11 -7 12 -12 3 -21 -8 -8 -14 -6 -22 10 -12 22 -5 27 19 11z m-195
-47 c19 -27 35 -53 35 -60 0 -30 -26 -21 -71 23 -46 45 -48 49 -32 66 9 10 20
18 24 18 5 0 24 -21 44 -47z m618 3 c68 -22 95 -27 227 -42 30 -3 73 -10 95
-16 22 -5 56 -13 75 -17 l35 -8 -40 -11 c-184 -53 -232 -66 -320 -88 -55 -13
-120 -30 -145 -39 -25 -8 -72 -19 -105 -25 -33 -5 -74 -14 -92 -19 -25 -7 -35
-6 -47 8 -20 22 -20 30 1 53 15 17 15 18 0 18 -17 0 -22 11 -10 23 3 4 14 0
24 -9 13 -12 19 -12 25 -3 4 8 -9 26 -36 49 -27 23 -40 41 -36 49 5 7 15 10
23 7 9 -4 17 1 19 11 8 28 73 65 128 73 85 12 105 11 179 -14z m-401 -8 c-7
-7 -12 -8 -12 -2 0 14 12 26 19 19 2 -3 -1 -11 -7 -17z m537 6 c9 -8 -55 -2
-74 6 -13 6 -5 7 25 3 25 -3 47 -7 49 -9z m-609 -15 c0 -12 -29 -38 -42 -39
-12 0 -9 25 4 38 15 15 38 16 38 1z m688 4 c-10 -2 -26 -2 -35 0 -10 3 -2 5
17 5 19 0 27 -2 18 -5z m-573 -26 c0 -26 -20 -25 -23 2 -3 16 1 22 10 19 7 -3
13 -12 13 -21z m-85 -9 c0 -14 -30 -48 -42 -48 -13 0 -9 22 9 42 18 21 33 23
33 6z m34 -52 c-1 -9 5 -16 14 -16 13 0 12 -3 -3 -20 -19 -20 -41 -28 -30 -10
3 6 -1 10 -9 10 -24 0 -29 20 -10 41 20 22 40 20 38 -5z m-957 -15 c115 -37
426 -65 573 -52 105 10 126 3 93 -30 -20 -20 -33 -22 -190 -24 -108 -1 -198
-8 -253 -18 -124 -25 -273 -74 -325 -109 -25 -17 -48 -28 -50 -26 -5 5 23 251
30 276 6 18 23 15 122 -17z m834 -34 c-18 -18 -38 8 -21 28 12 15 14 15 23 0
6 -11 5 -21 -2 -28z m189 6 c0 -12 -33 -43 -47 -43 -20 0 -16 16 10 33 24 17
37 21 37 10z m-129 -32 c16 -14 17 -21 8 -27 -7 -4 -14 -3 -17 4 -2 7 -10 12
-18 12 -15 0 -19 12 -7 23 9 10 12 9 34 -12z m-153 -80 c-2 -10 -13 -16 -28
-16 -20 0 -25 5 -23 23 2 12 -3 22 -10 22 -6 0 -3 7 8 16 18 14 22 13 38 -7
10 -12 16 -29 15 -38z m208 38 c8 -14 -21 -43 -35 -35 -8 5 -8 13 -1 27 12 21
25 25 36 8z m-126 -10 c0 -5 4 -8 9 -4 16 9 24 -15 10 -31 -11 -13 -14 -13
-25 8 -16 28 -17 38 -4 38 6 0 10 -5 10 -11z m187 -46 c6 -16 -35 -36 -55 -28
-15 5 -13 9 8 25 26 21 41 21 47 3z m-121 -22 c-8 -13 -36 -15 -36 -3 0 4 5
13 12 20 14 14 34 0 24 -17z m263 -18 c-27 -25 -51 -44 -53 -42 -3 2 -6 17 -8
33 -3 28 0 30 47 42 28 6 53 12 57 13 4 0 -15 -20 -43 -46z m-369 18 c0 -12
-20 -25 -27 -18 -7 7 6 27 18 27 5 0 9 -4 9 -9z m160 -35 c0 -3 -4 -8 -10 -11
-5 -3 -10 -1 -10 4 0 6 5 11 10 11 6 0 10 -2 10 -4z m-66 -45 c3 -5 -1 -14 -8
-20 -16 -13 -32 2 -21 19 8 12 22 13 29 1z m-104 -30 c0 -22 -79 -103 -147
-149 -61 -42 -56 -18 9 49 90 92 138 127 138 100z m148 -7 c23 -16 29 -48 11
-60 -16 -10 -63 41 -56 60 8 20 17 20 45 0z m-16 -159 c-6 -17 -212 -118 -222
-108 -3 2 3 9 13 14 9 6 17 17 17 25 0 8 5 12 10 9 6 -3 10 -1 10 4 0 6 7 11
15 11 8 0 34 14 57 30 30 22 51 30 73 28 16 -2 28 -7 27 -13z"/>
</g>
</svg>
