<?xml version="1.0" standalone="no"?>
<!DOCTYPE svg PUBLIC "-//W3C//DTD SVG 20010904//EN"
 "http://www.w3.org/TR/2001/REC-SVG-20010904/DTD/svg10.dtd">
<svg version="1.0" xmlns="http://www.w3.org/2000/svg"
 width="180.000000pt" height="130.000000pt" viewBox="0 0 180.000000 130.000000"
 preserveAspectRatio="xMidYMid meet">
<metadata>
Created by potrace 1.16, written by Peter Selinger 2001-2019
</metadata>
<g transform="translate(0.000000,130.000000) scale(0.100000,-0.100000)"
fill="#000000" stroke="none">
<path d="M392 1078 c-39 -11 -53 -36 -27 -51 11 -6 60 -10 111 -9 78 1 97 -2
117 -18 33 -26 46 -101 34 -195 -11 -93 -10 -365 2 -397 14 -38 75 -80 129
-90 97 -18 226 -26 245 -16 16 8 73 7 192 -5 17 -1 40 -6 53 -10 16 -6 30 -2
52 15 34 27 38 44 12 50 -15 4 -18 13 -15 39 3 19 7 41 10 49 4 8 5 18 5 23
-1 4 5 49 14 100 8 50 18 108 20 127 2 19 8 44 13 55 5 11 17 61 26 110 9 50
21 116 28 147 12 61 7 78 -17 59 -16 -13 -32 -66 -61 -196 -10 -44 -20 -84
-24 -90 -3 -5 -6 -14 -8 -20 -41 -192 -71 -358 -73 -403 0 -9 -5 -9 -17 -2
-10 5 -30 14 -44 19 -25 9 -26 10 -17 71 4 34 11 66 14 72 7 10 31 121 40 178
3 19 7 41 9 48 3 7 11 58 20 113 8 55 18 106 22 112 4 6 8 24 10 39 1 15 4 33
5 40 2 7 -3 13 -11 13 -20 0 -56 -96 -71 -187 -17 -106 -48 -252 -71 -338 -11
-41 -22 -91 -25 -110 -5 -41 -18 -51 -64 -48 -33 3 -35 5 -32 38 2 19 8 60 14
90 6 30 11 60 12 65 1 6 5 15 8 21 7 10 34 165 44 249 2 22 8 51 13 65 5 14
12 34 16 45 4 11 9 39 11 63 4 32 1 42 -10 42 -18 0 -36 -30 -42 -68 -3 -15
-15 -72 -29 -127 -13 -55 -33 -145 -44 -200 -11 -55 -24 -118 -29 -140 -6 -22
-13 -65 -17 -96 -6 -54 -8 -57 -38 -62 -22 -3 -38 0 -51 13 -17 17 -18 24 -6
106 7 49 20 113 30 141 9 29 15 64 12 78 -2 15 0 25 7 25 6 0 11 7 11 15 0 8
-5 15 -10 15 -6 0 -8 12 -5 28 4 15 8 51 11 81 2 29 7 57 10 62 3 5 1 9 -4 9
-13 0 7 82 22 92 7 5 7 8 -2 8 -7 0 -10 5 -6 11 4 7 -2 9 -17 7 -29 -4 -48
-53 -55 -143 -15 -181 -60 -512 -71 -525 -2 -2 -19 4 -39 15 -32 17 -43 36
-43 75 0 8 -2 49 -4 90 -3 41 -2 79 1 84 5 8 12 135 14 221 1 91 -46 188 -99
206 -42 14 -179 18 -221 7z"/>
</g>
</svg>
