<?xml version="1.0" standalone="no"?>
<!DOCTYPE svg PUBLIC "-//W3C//DTD SVG 20010904//EN"
 "http://www.w3.org/TR/2001/REC-SVG-20010904/DTD/svg10.dtd">
<svg version="1.0" xmlns="http://www.w3.org/2000/svg"
 width="222.000000pt" height="148.000000pt" viewBox="0 0 222.000000 148.000000"
 preserveAspectRatio="xMidYMid meet">
<metadata>
Created by potrace 1.16, written by Peter Selinger 2001-2019
</metadata>
<g transform="translate(0.000000,148.000000) scale(0.100000,-0.100000)"
fill="#000000" stroke="none">
<path d="M903 1198 c-6 -7 -13 -25 -17 -40 -3 -16 -13 -28 -20 -28 -8 0 -29
-23 -47 -52 -18 -28 -50 -68 -71 -87 -20 -20 -56 -61 -78 -91 -23 -30 -60 -70
-83 -88 -40 -32 -45 -33 -112 -30 -38 2 -69 7 -67 11 1 4 2 14 2 23 0 13 13
15 87 12 62 -2 87 0 90 10 3 8 -9 12 -40 12 -86 0 -137 11 -137 30 0 34 25 43
99 35 46 -5 76 -3 91 5 33 17 16 25 -61 27 -38 1 -74 5 -79 8 -12 8 28 67 68
100 14 12 23 29 21 39 -4 17 -16 19 -114 20 -140 3 -163 -11 -109 -69 18 -20
24 -36 22 -59 -3 -30 -5 -31 -43 -28 -22 2 -44 8 -49 13 -16 15 -56 10 -63 -7
-12 -31 3 -35 159 -44 4 0 6 -12 5 -27 -2 -25 -7 -28 -40 -31 -21 -2 -60 1
-85 7 -37 8 -50 7 -61 -4 -13 -12 -11 -16 13 -25 15 -5 61 -10 102 -10 66 0
74 -2 74 -19 0 -24 -22 -32 -103 -35 -51 -2 -63 -5 -65 -20 -4 -17 2 -18 82
-11 74 6 86 5 86 -8 0 -19 -53 -26 -92 -13 -19 7 -31 6 -42 -3 -26 -22 -8 -31
59 -31 35 0 67 -5 71 -11 4 -7 -19 -10 -77 -9 -114 3 -119 2 -119 -14 0 -20
57 -28 135 -20 62 6 67 6 63 -12 -3 -16 -15 -20 -73 -24 -72 -5 -100 -15 -90
-31 4 -5 36 -6 76 -3 l69 7 0 -37 0 -36 -79 0 c-58 0 -82 -4 -91 -15 -15 -18
-23 -16 85 -21 115 -5 104 -5 147 2 20 3 60 1 88 -5 39 -8 56 -8 66 0 24 19 7
26 -81 34 l-86 7 3 36 3 37 104 -3 c64 -2 106 0 110 7 4 5 44 -25 91 -68 47
-43 111 -93 142 -110 43 -24 60 -41 70 -67 22 -63 57 -57 114 19 62 82 124
138 184 165 30 14 71 35 90 47 19 12 78 45 131 73 53 28 119 65 147 81 l51 30
77 -40 c42 -22 86 -47 98 -55 31 -22 56 -18 56 9 0 13 -6 29 -12 35 -8 8 -13
48 -14 110 -1 135 -2 142 -18 142 -7 0 -49 -36 -93 -81 l-79 -81 -50 17 c-27
10 -71 26 -99 36 -159 56 -265 114 -370 202 -18 15 -37 27 -41 27 -5 0 -43 32
-84 70 -41 39 -78 70 -81 70 -4 0 -11 -6 -16 -12z m112 -116 c22 -18 53 -45
69 -59 l29 -26 -44 6 c-24 3 -67 9 -94 12 -76 9 -78 13 -53 73 24 57 17 57 93
-6z m-574 -49 c-5 -10 -16 -27 -25 -38 -15 -20 -15 -20 -16 2 0 12 -3 28 -6
37 -5 13 1 16 25 16 27 0 30 -3 22 -17z m408 -43 c14 0 20 -11 25 -41 4 -23 5
-43 4 -44 -7 -8 -57 8 -52 16 3 5 -2 12 -12 16 -26 10 -44 -24 -44 -83 0 -61
12 -69 73 -45 20 8 41 11 45 7 8 -9 12 -139 5 -180 -5 -27 -7 -28 -44 -23 -21
3 -39 1 -39 -4 0 -5 -4 -9 -10 -9 -5 0 -10 7 -10 15 0 8 -7 15 -16 15 -14 0
-16 -8 -12 -44 l5 -45 -38 26 c-62 41 -74 130 -34 246 9 26 11 45 5 52 -6 8
13 36 58 85 48 53 68 69 70 57 2 -9 12 -17 21 -17z m211 -28 c-55 -4 -66 -13
-49 -41 18 -27 0 -46 -35 -37 -33 8 -33 15 4 57 29 32 34 34 78 29 l47 -5 -45
-3z m-121 -23 c-9 -17 -13 -19 -20 -8 -14 22 -11 29 11 29 18 0 19 -3 9 -21z
m259 -5 c2 -1 -3 -4 -11 -7 -19 -7 -41 8 -32 22 5 9 11 9 23 -1 10 -7 18 -13
20 -14z m-118 -38 c-12 -20 -24 -36 -26 -36 -2 0 -4 15 -4 34 0 28 4 35 23 38
31 5 32 3 7 -36z m107 -3 c5 -15 -38 -54 -57 -51 -19 4 -25 35 -9 54 14 17 60
15 66 -3z m113 -13 c30 -11 50 -19 44 -20 -5 0 -19 -7 -30 -16 -18 -15 -18
-15 9 -9 l28 6 -17 -27 -18 -26 -8 23 c-8 19 -11 21 -19 9 -7 -11 -8 -7 -3 13
8 35 -13 36 -26 1 -13 -34 -33 -26 -41 17 -12 56 -4 59 81 29z m-451 -14 c9
-11 7 -15 -9 -19 -15 -4 -20 0 -20 14 0 22 13 25 29 5z m936 -54 l0 -68 -25
11 c-14 7 -36 16 -49 22 l-24 9 44 47 c24 25 46 46 49 46 3 1 5 -30 5 -67z
m-789 18 c11 0 14 -20 14 -95 l0 -95 -33 0 c-18 0 -39 -6 -46 -12 -10 -11 -12
7 -10 90 2 82 6 105 18 112 9 5 22 7 29 5 8 -3 20 -5 28 -5z m194 0 c0 -5 -5
-10 -11 -10 -5 0 -7 5 -4 10 3 6 8 10 11 10 2 0 4 -4 4 -10z m274 -11 c34 -12
69 -30 78 -39 11 -12 25 -16 40 -13 46 11 1 -16 -184 -111 l-188 -96 0 65 c0
49 3 65 14 65 7 0 19 7 26 15 16 19 34 20 27 1 -3 -8 1 -22 8 -33 13 -17 14
-15 15 15 0 36 26 53 77 49 22 -2 29 3 31 21 3 19 -1 22 -27 22 -35 0 -39 14
-14 42 20 23 24 23 97 -3z m-829 -89 l-7 -71 -40 33 c-44 37 -49 52 -16 53 15
0 24 7 26 20 4 20 32 49 40 40 2 -2 1 -36 -3 -75z m455 10 c0 -59 -3 -71 -20
-80 -31 -16 -38 -6 -33 52 6 81 10 94 33 95 18 2 20 -4 20 -67z m81 30 c5 0 9
-15 9 -34 0 -23 -5 -35 -17 -39 -10 -2 -25 -8 -34 -11 -12 -5 -14 0 -11 31 5
55 10 66 28 59 9 -3 20 -6 25 -6z m94 -29 c-6 -5 -20 -12 -32 -16 -17 -5 -23
-2 -23 10 0 19 41 37 55 24 6 -6 6 -12 0 -18z m-824 5 c-10 -11 -8 -17 9 -29
19 -13 19 -15 3 -19 -33 -8 -54 2 -51 25 3 24 16 37 37 37 10 0 11 -3 2 -14z
m59 -66 c0 -5 -2 -10 -4 -10 -3 0 -8 5 -11 10 -3 6 -1 10 4 10 6 0 11 -4 11
-10z m690 -70 c0 -59 0 -60 -39 -79 -21 -11 -41 -17 -45 -14 -3 4 -15 -3 -26
-14 -17 -19 -95 -43 -138 -43 -25 0 -42 20 -42 49 0 34 6 41 63 79 l49 33 -4
-48 c-2 -38 0 -48 12 -48 11 0 15 12 15 47 1 53 1 53 33 62 20 7 22 4 22 -31
0 -65 17 -71 22 -8 5 59 16 75 56 75 20 0 22 -4 22 -60z m-624 15 c38 -25 17
-33 -74 -28 -98 6 -102 7 -95 34 6 20 10 21 74 17 41 -3 79 -12 95 -23z m269
-55 c-21 -8 -35 -4 -35 9 0 5 12 6 27 3 24 -5 25 -6 8 -12z m38 -67 c-5 -34
-17 -40 -43 -23 -13 8 -10 14 14 35 16 14 30 24 31 23 2 -2 0 -18 -2 -35z
m129 -103 c-15 -21 -30 -39 -33 -40 -11 0 -30 53 -22 61 4 4 22 9 38 12 17 2
33 5 37 6 4 0 -5 -17 -20 -39z"/>
</g>
</svg>
