<?xml version="1.0" standalone="no"?>
<!DOCTYPE svg PUBLIC "-//W3C//DTD SVG 20010904//EN"
 "http://www.w3.org/TR/2001/REC-SVG-20010904/DTD/svg10.dtd">
<svg version="1.0" xmlns="http://www.w3.org/2000/svg"
 width="308.000000pt" height="152.000000pt" viewBox="0 0 308.000000 152.000000"
 preserveAspectRatio="xMidYMid meet">
<metadata>
Created by potrace 1.16, written by Peter Selinger 2001-2019
</metadata>
<g transform="translate(0.000000,152.000000) scale(0.100000,-0.100000)"
fill="#000000" stroke="none">
<path d="M1017 1442 c-9 -10 -23 -35 -32 -56 l-16 -39 -60 6 c-59 5 -61 5
-242 -86 l-182 -92 -85 -2 c-47 0 -89 -2 -95 -4 -5 -1 -17 -3 -25 -3 -17 -1
-23 -69 -9 -97 5 -9 3 -21 -4 -29 -10 -10 -9 -12 5 -7 38 13 37 -63 -2 -138
-30 -57 -33 -78 -8 -58 21 17 127 23 136 9 4 -7 18 -19 30 -25 20 -11 23 -18
17 -47 -7 -42 11 -46 28 -5 11 25 15 27 37 18 14 -5 30 -11 35 -12 21 -3 50
-19 58 -32 5 -7 12 -11 17 -8 12 7 150 -63 182 -93 18 -17 26 -33 23 -46 -4
-21 -17 -151 -19 -193 -1 -26 -7 -28 -24 -11 -16 16 -34 -2 -34 -33 0 -42 26
-164 37 -171 17 -12 23 -10 62 29 21 20 71 51 111 70 65 29 86 34 179 38 58 2
108 6 110 9 3 3 6 40 8 83 1 43 5 96 8 118 3 22 9 67 13 100 3 33 8 71 10 85
1 14 6 53 10 88 4 34 9 60 12 57 6 -6 7 -14 10 -102 3 -68 15 -68 88 -3 66 61
72 63 199 85 107 18 294 65 360 91 22 9 41 15 43 14 6 -4 88 13 97 20 6 4 29
10 52 13 l43 5 -6 -38 c-6 -35 -8 -228 -4 -347 0 -29 5 -53 9 -53 4 0 23 16
42 36 18 19 55 51 80 70 l47 34 153 0 c110 0 161 -4 180 -14 21 -10 29 -11 43
-1 14 11 16 21 8 71 -5 33 -7 94 -5 137 7 97 42 168 122 244 39 38 52 56 44
64 -6 6 -66 12 -139 14 -71 1 -157 8 -192 14 -34 7 -67 9 -72 6 -5 -3 -27 -1
-50 4 -44 10 -79 38 -72 59 2 6 -2 12 -10 12 -31 -1 -41 -19 -46 -88 l-5 -71
-76 2 c-65 2 -76 0 -76 -15 0 -9 -3 -20 -7 -23 -4 -4 -1 -14 7 -22 8 -8 15
-25 15 -39 0 -18 -5 -24 -23 -24 -12 0 -28 9 -35 20 -7 11 -17 20 -23 20 -6 0
-26 13 -44 29 -51 44 -202 88 -470 137 -153 28 -397 122 -475 184 -21 16 -45
30 -54 30 -9 0 -16 5 -16 10 0 15 -15 12 -33 -8z m70 -72 c24 -14 43 -28 43
-31 0 -4 -17 -9 -37 -13 -21 -3 -49 -9 -63 -13 -22 -6 -23 -5 -12 10 7 8 12
21 11 29 -3 26 1 50 9 46 4 -1 26 -14 49 -28z m-140 -72 c-2 -7 -17 -50 -33
-96 -27 -79 -29 -82 -35 -50 -4 18 -10 60 -13 94 l-7 61 47 1 c34 2 45 -1 41
-10z m400 -42 c73 -25 149 -48 170 -51 52 -7 60 -8 229 -50 178 -43 232 -62
245 -87 5 -10 18 -18 27 -18 10 0 22 -4 28 -10 5 -5 24 -10 42 -12 17 -1 32
-5 32 -9 0 -7 -79 -29 -105 -29 -10 0 -31 -6 -48 -14 -69 -31 -278 -82 -382
-92 -33 -3 -68 -10 -78 -15 -24 -13 -141 -13 -145 0 -2 5 -9 8 -16 5 -35 -13
-24 71 15 128 11 14 19 29 19 33 0 4 9 18 20 33 11 14 17 29 13 33 -13 12
-157 21 -172 11 -10 -7 -10 -14 -2 -30 6 -11 11 -25 11 -31 0 -15 -148 -14
-206 1 -39 11 -50 19 -61 46 -12 28 -16 32 -29 21 -11 -9 -14 -29 -10 -88 2
-42 5 -82 5 -88 1 -7 8 -13 16 -13 12 0 14 -8 9 -37 -21 -137 -23 -167 -12
-174 10 -6 10 -16 0 -43 -15 -41 -22 -99 -26 -213 -1 -45 -4 -85 -7 -87 -3 -3
-18 -2 -35 3 -33 9 -34 14 -18 201 4 58 8 188 7 289 -2 169 -1 186 16 198 10
7 21 25 24 40 8 40 42 129 55 146 11 13 96 42 152 51 44 7 83 -1 217 -48z
m-521 17 c4 -14 7 -83 8 -152 l1 -126 -32 -3 c-34 -3 -39 3 -24 28 13 20 3 32
-17 21 -9 -4 -30 -11 -45 -15 -26 -6 -27 -5 -17 13 13 26 0 33 -41 21 -19 -6
-36 -10 -38 -10 -2 0 4 11 13 25 21 31 13 49 -15 35 -20 -11 -23 -8 -20 23 2
13 -6 17 -35 17 -30 0 -36 3 -26 13 15 15 252 135 269 136 7 1 16 -11 19 -26z
m1593 -76 l31 -13 -35 -17 -35 -17 0 30 c0 35 -2 34 39 17z m201 -27 c33 -6
64 -8 69 -5 5 3 17 -2 26 -12 14 -14 16 -27 10 -72 -13 -107 -16 -304 -4 -312
6 -3 8 -15 5 -25 -5 -18 -21 -19 -245 -22 -168 -2 -242 1 -246 9 -7 10 -7 85
-2 171 2 21 10 43 19 50 9 7 32 39 51 72 19 32 50 67 69 79 63 40 163 87 175
82 6 -2 39 -9 73 -15z m226 -14 c1 -1 -18 -23 -42 -51 l-44 -49 0 51 c0 41 4
52 18 56 13 3 61 -1 68 -7z m-2427 -32 c3 -3 -13 -22 -34 -44 -44 -45 -53 -42
-71 18 l-11 38 56 -4 c31 -2 58 -6 60 -8z m128 -9 c2 -1 -8 -24 -22 -51 l-24
-49 0 53 c-1 38 -5 52 -13 50 -8 -3 -16 -35 -20 -84 -8 -86 -17 -144 -23 -144
-15 0 -35 15 -35 26 0 8 -5 13 -11 11 -7 -1 -21 13 -32 31 l-20 33 29 30 c34
35 54 38 47 7 -5 -21 -4 -21 10 -8 8 8 18 25 22 38 5 17 2 22 -11 22 -15 0
-14 4 6 25 20 21 29 24 59 19 20 -4 37 -8 38 -9z m1776 -7 c-4 -7 -23 -37 -41
-65 -34 -53 -45 -64 -41 -40 2 6 -3 30 -9 52 -16 55 -17 53 31 58 23 2 48 4
55 5 8 1 10 -3 5 -10z m-1733 -65 c-4 -16 -12 -39 -17 -52 -10 -24 -10 -24
-16 8 -8 36 6 71 28 71 10 0 12 -7 5 -27z m760 22 c0 -8 -50 -105 -54 -105 -2
0 -3 25 -2 55 0 53 1 55 28 55 15 0 28 -2 28 -5z m-690 -40 c0 -2 -5 -16 -12
-30 -12 -28 -28 -33 -28 -10 0 8 -6 15 -12 15 -17 1 22 30 39 30 7 0 13 -2 13
-5z m370 -12 c6 -5 -30 -33 -42 -33 -4 0 -8 12 -8 26 0 22 3 24 23 18 12 -3
24 -9 27 -11z m228 -35 l-3 -33 -100 3 c-104 3 -135 14 -100 35 31 18 64 25
138 26 l68 1 -3 -32z m-529 -8 c-6 -16 -13 -30 -15 -30 -2 0 -4 14 -4 30 0 20
5 30 14 30 12 0 13 -6 5 -30z m-199 -60 l0 -80 -26 12 c-23 11 -25 16 -20 48
3 19 6 47 6 62 0 17 6 28 18 31 9 3 18 5 20 6 1 0 2 -35 2 -79z m70 -3 c-5
-82 -9 -91 -33 -81 -24 9 -19 101 6 108 11 2 17 14 17 31 0 14 3 24 8 22 4 -3
5 -39 2 -80z m87 38 c-1 -25 -5 -45 -9 -45 -3 0 -4 -22 -1 -49 l5 -50 -28 8
c-26 6 -29 13 -32 50 -2 32 2 49 16 65 11 11 25 31 31 44 17 32 20 28 18 -23z
m123 10 c0 -2 -8 -18 -18 -35 -21 -34 -32 -30 -32 12 0 23 4 28 25 28 14 0 25
-2 25 -5z m-460 -55 c25 0 7 -16 -20 -18 -34 -3 -34 -3 -19 35 11 28 11 28 20
6 4 -13 13 -23 19 -23z m485 -178 c-3 -3 -16 0 -29 7 -35 19 -43 89 -15 144
41 81 44 79 47 -38 1 -59 0 -110 -3 -113z m255 196 c0 -5 -4 -8 -9 -8 -4 0
-25 -12 -46 -26 -28 -19 -36 -21 -31 -9 3 9 6 25 6 35 0 15 7 18 40 17 22 -1
40 -5 40 -9z m166 -64 c-4 -11 -29 -14 -105 -14 -55 0 -102 4 -106 10 -3 5 12
18 35 30 22 11 40 25 40 30 0 6 25 10 60 8 32 -1 63 1 67 6 9 9 17 -49 9 -70z
m-509 -9 c3 -50 1 -65 -10 -65 -19 0 -37 21 -37 44 0 20 32 96 39 90 2 -1 5
-33 8 -69z m652 -21 c31 -6 31 -7 14 -26 -10 -11 -30 -29 -45 -40 l-28 -19 0
45 c0 49 2 51 59 40z m-369 -33 c-25 -16 -47 -27 -49 -25 -2 2 -1 15 3 29 6
22 12 25 49 25 l42 0 -45 -29z m228 2 l-3 -28 -84 2 c-108 3 -120 7 -90 32 18
14 41 19 102 20 l78 2 -3 -28z m-173 -52 c19 -8 19 -8 -3 -15 -12 -4 -36 -19
-52 -33 l-30 -25 0 34 c0 19 3 38 7 41 8 9 53 8 78 -2z m163 -15 c2 -2 0 -21
-4 -41 l-7 -37 -81 7 c-105 9 -120 17 -75 40 19 10 38 24 43 33 7 11 20 13 64
8 31 -4 58 -8 60 -10z m1089 -39 c2 -3 -17 -18 -42 -33 -25 -16 -45 -32 -45
-35 0 -4 -7 -9 -15 -13 -12 -4 -15 4 -15 44 l0 50 56 -4 c31 -3 58 -7 61 -9z
m-1247 -51 c0 -6 -99 -66 -109 -66 -20 0 3 48 27 57 27 11 82 17 82 9z m140
-53 c0 -28 -4 -43 -12 -42 -7 0 -51 6 -98 13 l-84 11 46 31 c37 24 56 30 97
30 l51 -1 0 -42z m-187 -53 c6 0 -4 -16 -23 -35 -36 -37 -50 -37 -50 0 0 26
27 47 48 40 8 -3 19 -5 25 -5z m159 -19 c14 -1 17 -9 15 -36 l-2 -35 -55 6
c-30 3 -64 8 -75 9 -11 2 -28 4 -38 4 -25 1 -12 18 31 40 22 11 52 17 72 16
19 -2 43 -4 52 -4z m-152 -88 c0 -5 -18 -18 -40 -31 -42 -24 -54 -14 -23 20
16 17 63 26 63 11z m155 -13 c3 -5 8 -19 10 -30 3 -16 0 -20 -14 -15 -10 3
-51 1 -91 -5 -90 -13 -108 -2 -54 34 29 18 53 25 91 25 28 1 55 -3 58 -9z
m-290 -79 c47 -7 48 -8 25 -18 -14 -6 -48 -27 -77 -46 l-52 -35 -6 36 c-3 21
-8 45 -10 55 -4 19 28 21 120 8z"/>
<path d="M391 983 l1 -48 14 32 c14 32 10 63 -7 63 -5 0 -9 -21 -8 -47z"/>
<path d="M324 658 c-3 -4 7 -15 21 -24 31 -20 55 -63 55 -98 l0 -26 -107 6
c-60 3 -109 10 -111 15 -7 19 -24 7 -38 -27 -18 -42 -11 -132 11 -140 8 -3 11
-20 9 -50 -3 -24 0 -44 5 -44 5 0 8 -8 7 -17 -2 -29 29 -21 71 17 48 44 83 60
133 60 38 0 39 -1 47 -42 6 -28 15 -44 26 -46 14 -3 17 4 17 41 0 55 4 57 118
57 102 0 132 7 132 27 0 14 -18 15 -130 11 -72 -3 -131 -1 -132 4 -2 5 -2 27
0 49 l4 39 62 2 c33 1 92 2 131 2 58 1 70 4 73 19 4 18 -19 20 -171 18 -56 -1
-58 0 -52 22 9 29 42 82 60 97 35 29 16 35 -111 35 -69 0 -128 -3 -130 -7z
m159 -91 l-27 -52 -7 33 c-4 18 -14 41 -24 52 -16 18 -15 19 27 22 23 2 46 2
50 0 4 -1 -5 -26 -19 -55z m-230 -84 c5 -3 -9 -21 -30 -41 l-38 -37 -3 33 c-5
51 3 64 35 56 16 -4 32 -9 36 -11z m153 -44 c-3 -17 -6 -41 -6 -53 0 -20 -5
-22 -100 -23 -55 -1 -100 0 -100 2 0 12 71 76 88 80 12 2 30 8 39 14 10 6 33
11 52 11 32 0 33 -1 27 -31z m-140 -112 c2 -1 -12 -15 -31 -30 l-35 -28 0 40
0 40 31 -9 c18 -5 33 -11 35 -13z"/>
</g>
</svg>
