<?xml version="1.0" standalone="no"?>
<!DOCTYPE svg PUBLIC "-//W3C//DTD SVG 20010904//EN"
 "http://www.w3.org/TR/2001/REC-SVG-20010904/DTD/svg10.dtd">
<svg version="1.0" xmlns="http://www.w3.org/2000/svg"
 width="220.000000pt" height="150.000000pt" viewBox="0 0 220.000000 150.000000"
 preserveAspectRatio="xMidYMid meet">
<metadata>
Created by potrace 1.16, written by Peter Selinger 2001-2019
</metadata>
<g transform="translate(0.000000,150.000000) scale(0.100000,-0.100000)"
fill="#000000" stroke="none">
<path d="M1015 1318 c-3 -13 -7 -36 -10 -52 -6 -40 -21 -48 -84 -41 -64 7 -83
-5 -74 -46 4 -20 1 -30 -8 -33 -61 -18 -217 -69 -275 -89 -73 -26 -264 -46
-264 -28 0 5 -10 11 -22 14 -31 9 -61 -20 -54 -53 32 -155 37 -170 63 -170 8
0 30 16 48 36 l33 36 -9 -42 c-10 -45 -5 -80 13 -80 6 0 7 -16 3 -42 -8 -51
-22 -69 -31 -42 -22 59 -51 22 -69 -88 -13 -85 -11 -118 10 -118 7 0 40 18 73
41 49 32 65 38 80 30 10 -5 28 -7 40 -4 14 3 28 -3 44 -20 13 -13 37 -28 55
-31 17 -4 38 -14 45 -23 7 -9 36 -27 65 -39 29 -13 57 -32 63 -44 11 -21 50
-28 50 -10 0 22 -31 69 -49 75 -16 5 -19 19 -23 118 -3 61 -3 118 0 125 6 18
68 15 87 -5 13 -13 15 -28 11 -72 -9 -90 -9 -92 -1 -191 4 -52 11 -100 16
-105 4 -6 9 -52 12 -103 2 -51 9 -98 14 -103 8 -8 20 2 41 33 38 54 94 107
152 144 42 27 54 29 180 36 74 3 214 11 310 16 96 6 181 11 188 11 19 1 14 29
-7 36 -21 6 -20 30 6 225 15 114 19 162 27 271 3 44 12 69 39 110 74 112 93
134 124 149 18 8 33 23 33 33 0 15 -11 17 -87 17 -251 1 -534 10 -578 19 -27
5 -70 17 -94 25 -24 9 -52 16 -62 16 -10 0 -37 18 -60 40 -49 46 -57 48 -64
18z m73 -98 c18 -11 45 -21 60 -21 22 -1 23 -2 5 -6 -12 -2 -27 -11 -33 -19
-7 -8 -18 -14 -25 -14 -6 0 -20 -9 -30 -20 -23 -25 -38 -26 -30 -1 3 11 7 38
8 60 1 23 4 41 7 41 3 0 20 -9 38 -20z m-132 -77 c-13 -26 -65 -82 -67 -72 0
2 -1 25 -2 52 l-2 47 43 0 43 0 -15 -27z m733 12 c14 -8 77 -8 139 0 18 2 32
0 30 -4 -8 -21 -94 -150 -100 -151 -4 0 -10 27 -14 60 -6 59 -18 81 -33 64 -4
-5 -4 -61 -1 -124 4 -63 5 -119 2 -124 -3 -6 -4 -33 -3 -62 1 -28 -2 -69 -8
-90 -13 -50 -33 -218 -32 -269 1 -22 -3 -46 -7 -53 -6 -8 -57 -14 -173 -17
-90 -3 -174 -8 -186 -10 -19 -5 -19 -2 8 24 16 16 29 40 29 53 0 24 23 59 123
192 32 42 55 81 52 86 -3 6 -18 9 -33 8 -15 -1 -48 -1 -75 0 -46 2 -47 3 -41
30 11 45 52 121 100 184 25 33 43 66 40 73 -4 12 -42 19 -171 30 -189 16 -180
16 -204 -6 -14 -13 -20 -27 -16 -38 4 -9 6 -52 5 -96 -1 -44 -4 -141 -5 -215
-2 -74 -8 -151 -14 -170 -15 -47 -14 -85 3 -99 10 -9 16 -8 26 3 6 9 9 19 6
24 -3 5 1 33 9 63 8 30 16 87 19 127 4 63 8 76 29 92 14 11 28 31 31 46 6 21
74 134 81 134 8 0 4 -134 -6 -179 -10 -47 -9 -56 5 -66 12 -9 15 -27 11 -86
-5 -101 -14 -151 -31 -170 -8 -8 -14 -20 -14 -26 0 -8 -37 -10 -117 -7 -193 8
-240 14 -263 34 -27 23 -38 92 -20 124 8 15 10 47 7 85 -4 53 -2 63 14 72 23
12 25 39 4 39 -19 0 -20 53 -4 184 11 86 15 95 50 136 38 43 39 44 39 17 0
-40 35 -35 96 15 90 72 108 76 369 74 127 -1 237 -6 244 -11z m-843 -100 c3
-19 2 -72 -2 -117 l-9 -83 -50 4 c-27 1 -51 4 -52 5 -1 1 13 45 31 99 45 132
69 159 82 92z m-96 -37 c-39 -95 -39 -96 -34 -58 3 19 11 45 16 57 6 13 8 26
4 30 -14 14 -42 -15 -82 -85 -22 -40 -44 -75 -49 -80 -4 -4 -5 19 -2 51 3 32
2 57 -4 57 -18 0 -9 27 14 38 47 22 146 52 155 46 2 -1 -6 -26 -18 -56z m570
-14 c0 -3 -18 -28 -39 -57 -22 -29 -55 -78 -74 -110 l-35 -58 -2 88 c-2 128
-2 127 13 138 13 9 137 8 137 -1z m-790 -46 c-37 -66 -49 -71 -45 -17 3 38 6
44 36 54 19 7 35 13 37 14 1 0 -11 -23 -28 -51z m909 30 c-7 -13 -28 -47 -48
-76 -32 -50 -36 -52 -43 -31 -11 30 1 88 23 110 11 11 33 19 49 19 29 0 30 -1
19 -22z m-1092 -52 c-44 -45 -57 -44 -57 6 0 30 10 36 62 37 l37 1 -42 -44z
m221 -6 c-13 -54 -16 -59 -27 -41 -8 12 27 96 35 88 2 -1 -2 -23 -8 -47z
m-112 14 c-3 -9 -6 -19 -6 -24 0 -4 -8 -10 -19 -13 -16 -4 -17 -1 -7 24 6 16
17 29 24 29 9 0 12 -6 8 -16z m215 -77 c-21 -21 -29 7 -12 43 l15 35 4 -34 c2
-18 -1 -38 -7 -44z m-236 3 c6 -9 -17 -40 -29 -40 -8 0 -7 35 1 43 9 10 21 9
28 -3z m120 -31 c4 -5 4 -21 1 -35 -5 -20 -13 -24 -41 -24 -36 0 -39 8 -20 53
8 19 50 23 60 6z m125 -34 c0 -31 -40 -51 -71 -34 -11 5 -18 13 -16 17 2 4 7
15 10 25 4 12 17 17 42 17 31 0 35 -3 35 -25z m138 3 c7 -7 12 -23 12 -36 0
-23 -2 -24 -50 -20 -60 6 -64 9 -56 43 5 21 12 25 44 25 21 0 43 -5 50 -12z
m-374 -100 c-3 -9 -12 -19 -20 -22 -13 -5 -15 1 -9 36 12 77 18 87 26 43 4
-22 6 -47 3 -57z m224 6 c2 -1 5 -29 7 -61 2 -32 7 -82 10 -110 l6 -53 -53 36
c-29 20 -57 43 -62 51 -8 15 -2 106 10 137 5 13 14 15 43 10 20 -4 38 -8 39
-10z m-134 -61 c-6 -52 -9 -60 -24 -56 -37 10 -32 90 7 111 10 6 19 9 20 8 2
-2 0 -30 -3 -63z m916 39 c0 -10 -79 -122 -86 -122 -2 0 -4 29 -4 65 l0 65 45
0 c25 0 45 -4 45 -8z m-1085 -84 c14 -6 25 -14 25 -17 0 -3 -19 -16 -41 -28
-32 -18 -40 -19 -35 -7 3 9 6 27 6 40 0 27 8 29 45 12z m658 -281 c-2 -12
-112 -107 -124 -107 -9 0 -13 112 -5 121 8 8 131 -6 129 -14z"/>
</g>
</svg>
