<?xml version="1.0" standalone="no"?>
<!DOCTYPE svg PUBLIC "-//W3C//DTD SVG 20010904//EN"
 "http://www.w3.org/TR/2001/REC-SVG-20010904/DTD/svg10.dtd">
<svg version="1.0" xmlns="http://www.w3.org/2000/svg"
 width="328.000000pt" height="196.000000pt" viewBox="0 0 328.000000 196.000000"
 preserveAspectRatio="xMidYMid meet">
<metadata>
Created by potrace 1.16, written by Peter Selinger 2001-2019
</metadata>
<g transform="translate(0.000000,196.000000) scale(0.100000,-0.100000)"
fill="#000000" stroke="none">
<path d="M1982 1808 c-38 -24 -42 -48 -8 -48 19 0 27 -7 34 -32 16 -51 22 -85
17 -90 -14 -14 -483 71 -511 93 -28 23 -64 -64 -65 -158 -1 -43 -3 -81 -6 -85
-2 -5 -17 -1 -33 7 -16 8 -42 15 -57 15 -16 0 -54 9 -86 20 -31 11 -67 20 -81
20 -13 0 -52 11 -87 24 -35 13 -95 31 -134 41 -38 10 -77 24 -85 30 -13 11
-140 56 -275 98 -27 9 -72 24 -99 33 -63 22 -75 14 -96 -62 l-15 -59 -101 2
c-98 3 -101 2 -114 -22 -12 -23 -14 -23 -26 -7 -9 13 -16 14 -24 6 -9 -9 -8
-25 4 -65 13 -48 43 -208 66 -358 5 -29 12 -122 15 -205 7 -138 9 -154 32
-187 13 -20 27 -49 32 -65 5 -18 16 -30 33 -35 28 -7 44 1 159 79 35 23 66 42
69 42 3 0 5 -45 5 -100 0 -59 4 -101 10 -102 19 -4 36 52 39 130 3 89 14 116
59 138 18 9 39 23 47 30 57 54 317 221 327 211 8 -9 8 -162 -1 -302 -5 -71 -9
-157 -10 -190 l-1 -60 -40 -5 c-35 -4 -160 7 -288 26 -22 4 -42 14 -48 25 -11
22 -25 24 -42 7 -13 -14 -13 -20 -3 -120 8 -74 17 -82 68 -67 18 5 67 12 108
15 41 3 91 9 110 14 19 6 55 10 80 10 l46 0 -4 -35 c-5 -46 -20 -50 -176 -47
-109 1 -130 4 -141 19 -11 15 -15 15 -30 3 -15 -12 -16 -25 -11 -79 3 -36 10
-69 15 -74 6 -6 26 -3 53 6 23 9 75 18 113 21 39 4 87 8 108 10 20 2 39 1 41
-2 2 -4 -3 -36 -11 -72 -19 -88 -13 -139 21 -174 l28 -27 43 21 c23 11 76 25
116 30 41 5 90 13 109 20 90 28 184 39 350 39 161 1 206 8 186 28 -4 4 -42 9
-84 11 -42 1 -87 5 -98 7 -27 6 -34 40 -22 103 5 26 16 94 24 152 9 58 27 137
40 177 13 39 24 81 24 93 0 12 7 43 15 69 8 25 26 95 39 155 14 60 28 111 31
115 4 3 11 -2 16 -12 13 -22 29 -22 87 2 83 33 186 61 229 61 23 0 64 8 90 18
26 10 71 20 98 21 28 2 139 8 248 15 109 6 203 8 209 5 7 -5 9 -33 5 -83 -4
-42 -4 -110 0 -151 5 -61 9 -75 22 -73 9 2 19 20 23 43 10 48 30 95 40 95 5 0
8 19 9 43 0 23 4 62 9 87 5 25 16 86 25 135 10 59 29 118 55 170 21 44 42 92
45 107 4 15 24 45 45 66 46 46 41 69 -11 57 -55 -12 -139 -15 -182 -5 -34 7
-44 5 -68 -13 -25 -18 -28 -25 -23 -58 l6 -37 -113 4 c-63 2 -129 8 -148 14
-19 5 -45 7 -58 4 -15 -4 -25 -1 -29 9 -6 15 59 126 83 140 18 11 16 34 -4 42
-10 3 -52 6 -93 6 -49 0 -86 5 -105 15 -20 10 -67 16 -147 19 -64 2 -121 6
-125 8 -5 3 -23 -4 -41 -15z m211 -48 l27 0 -39 -72 c-22 -40 -42 -72 -45 -70
-3 1 -18 2 -33 2 -43 0 -50 10 -58 77 l-7 62 44 4 c23 2 52 2 63 1 11 -2 32
-4 48 -4z m-1638 -48 c33 -10 94 -29 135 -41 41 -12 107 -36 145 -52 39 -17
81 -33 95 -35 14 -3 52 -9 85 -15 65 -12 127 -38 90 -39 -29 0 -192 27 -261
44 -61 15 -287 40 -337 37 -24 -1 -27 1 -19 16 13 25 4 43 -20 43 -15 0 -18 5
-13 23 4 12 9 30 12 40 3 12 8 15 16 8 7 -5 39 -18 72 -29z m1860 -41 c-19
-38 -38 -72 -43 -75 -5 -3 -32 -3 -61 1 l-51 6 1 46 c3 88 7 91 104 91 l85 0
-35 -69z m-185 -21 c0 -43 -3 -50 -20 -50 -11 0 -20 3 -20 7 0 11 32 93 36 93
2 0 4 -22 4 -50z m-530 -1 c63 -11 142 -26 175 -34 33 -7 77 -14 98 -13 21 0
40 -2 42 -3 5 -6 7 -31 6 -66 -1 -33 -1 -33 -53 -33 -29 0 -91 -6 -138 -14
-47 -8 -138 -17 -202 -21 -106 -5 -118 -4 -127 12 -9 18 -6 177 4 193 6 9 23
8 195 -21z m1257 -35 c21 -6 21 -7 6 -52 -9 -26 -24 -59 -35 -74 -50 -72 -90
-215 -104 -376 -4 -40 -11 -75 -17 -79 -5 -3 -6 4 -1 18 4 13 7 120 7 237 l-2
213 25 9 c28 11 32 30 6 30 -24 0 -42 19 -42 46 0 20 6 23 43 27 77 7 92 7
114 1z m-2635 -32 c80 5 88 4 82 -11 -4 -9 -13 -36 -20 -61 -49 -175 -67 -242
-80 -295 -7 -33 -22 -87 -32 -120 l-19 -60 -5 110 c-4 89 -49 350 -74 437 -5
15 -2 16 26 6 19 -6 68 -9 122 -6z m1795 -36 c-5 -17 -10 -32 -11 -33 -1 -1
-13 -4 -27 -8 -23 -6 -27 -3 -32 23 -3 16 -4 38 -1 49 5 18 9 19 44 10 37 -10
37 -11 27 -41z m-1412 10 c66 -9 147 -23 180 -31 33 -8 89 -15 125 -15 36 0
94 -7 130 -15 102 -23 162 -35 205 -39 64 -6 95 -17 95 -32 0 -12 13 -13 68
-8 37 3 74 8 82 11 8 3 58 9 110 14 52 4 142 12 200 18 61 6 108 7 113 2 5 -5
6 -44 1 -93 l-9 -83 -54 -3 c-29 -2 -65 1 -80 6 -14 5 -33 6 -41 1 -8 -4 -23
-10 -32 -13 -14 -4 -18 -17 -18 -61 l0 -55 -32 0 c-18 0 -60 4 -92 10 -95 15
-91 26 -92 -237 -1 -219 -9 -455 -21 -613 -3 -41 -5 -84 -5 -96 0 -20 -5 -21
-82 -18 -217 9 -264 12 -301 22 -22 6 -61 12 -87 13 -27 2 -48 5 -48 8 0 3 5
23 10 43 13 46 37 54 178 64 98 6 125 15 105 35 -5 5 -53 11 -108 14 -55 3
-108 8 -117 11 -20 6 -23 30 -8 70 l11 27 119 -6 c102 -6 123 -4 149 11 51 28
38 38 -53 39 -91 1 -175 10 -193 21 -14 9 0 90 33 189 13 39 24 81 24 93 0 11
6 31 14 43 8 12 20 49 26 82 20 99 70 238 96 266 43 46 33 57 -48 54 -40 -1
-101 -3 -134 -4 -49 -1 -63 -4 -67 -18 -3 -11 -44 -36 -103 -62 -55 -24 -143
-66 -196 -92 -54 -27 -98 -43 -98 -37 0 7 12 50 27 96 19 61 36 94 60 117 48
47 44 59 -19 51 -126 -14 -218 -32 -229 -43 -20 -20 35 -27 113 -14 39 6 72
10 74 8 2 -1 -11 -48 -27 -102 -17 -55 -33 -110 -36 -123 -3 -12 -13 -27 -23
-32 -22 -12 -29 10 -30 85 -2 84 -13 129 -34 133 -17 4 -18 -1 -13 -34 4 -22
9 -76 13 -121 l7 -81 -34 -18 c-43 -23 -178 -74 -197 -74 -25 0 -7 97 68 370
27 96 53 194 59 217 7 24 19 44 29 47 22 6 89 1 237 -18z m1525 -11 c0 -22 -4
-25 -33 -25 -41 0 -49 7 -36 31 6 12 21 19 39 19 25 0 30 -4 30 -25z m108 19
c18 -5 20 -9 11 -20 -15 -18 -75 -18 -82 0 -10 25 19 33 71 20z m115 -21 c-13
-2 -33 -2 -45 0 -13 2 -3 4 22 4 25 0 35 -2 23 -4z m-1276 -19 c-3 -3 -12 -4
-19 -1 -8 3 -5 6 6 6 11 1 17 -2 13 -5z m1538 -14 l51 1 -1 -123 0 -123 -155
2 c-85 2 -195 3 -244 3 l-88 -1 6 28 c3 15 9 39 12 53 3 14 20 54 38 90 32 65
33 65 82 71 27 4 94 5 149 3 55 -2 123 -4 150 -4z m-405 -34 c-11 -19 -29 -58
-39 -88 l-18 -53 -2 55 c-2 98 7 115 62 119 17 1 17 -1 -3 -33z m-84 -28 c-4
-29 -8 -75 -10 -103 -6 -72 -14 -85 -46 -85 -16 0 -32 5 -35 10 -3 6 -17 10
-31 10 -14 0 -24 6 -24 15 0 13 21 76 52 158 12 30 37 45 76 46 22 1 23 -1 18
-51z m-142 10 c-3 -12 -13 -35 -20 -52 -11 -25 -13 -27 -14 -10 0 43 13 84 27
84 10 0 12 -6 7 -22z m-854 -198 c21 -11 21 -13 -59 -265 -47 -147 -86 -273
-100 -325 -6 -24 -8 53 -6 235 2 149 4 273 4 277 1 4 15 14 31 23 30 15 42 45
18 45 -15 -1 -266 -166 -398 -263 -52 -37 -95 -65 -97 -63 -2 2 4 30 14 63
l17 60 116 56 c112 54 173 82 275 128 28 12 73 25 100 29 28 4 54 8 58 9 5 0
17 -3 27 -9z m761 -26 c7 -4 3 -79 -5 -92 -3 -6 -31 -18 -61 -27 -30 -8 -61
-18 -69 -21 -11 -4 -14 9 -15 76 l-1 81 73 -7 c39 -3 75 -8 78 -10z m162 -11
c42 -5 48 -9 45 -27 -2 -17 -12 -22 -58 -27 -30 -4 -63 -10 -72 -14 -17 -7
-18 3 -9 79 1 4 11 5 24 2 12 -4 44 -9 70 -13z m253 7 c24 0 44 -4 44 -8 0
-11 -197 -35 -211 -26 -18 11 63 44 95 39 16 -3 48 -5 72 -5z m157 -7 c-7 -2
-21 -2 -30 0 -10 3 -4 5 12 5 17 0 24 -2 18 -5z m-807 -105 c2 -3 -11 -54 -30
-114 -19 -60 -39 -129 -45 -154 -16 -66 -68 -269 -80 -315 -8 -32 -9 -21 -4
55 4 52 7 192 8 310 l0 215 24 5 c28 6 120 4 127 -2z m-1148 -120 c-6 -18 -14
-36 -17 -40 -12 -13 -11 45 0 58 20 24 28 15 17 -18z m-64 -39 c11 -56 7 -78
-16 -90 -13 -7 -53 -31 -89 -55 -58 -38 -70 -42 -90 -32 -22 10 -59 70 -59 96
0 6 17 16 38 23 20 6 42 16 48 20 6 5 33 16 60 24 27 8 58 21 69 29 28 21 32
20 39 -15z m288 -404 c45 -3 86 -9 91 -14 8 -8 -73 -22 -212 -37 -72 -7 -81
-1 -81 57 l0 37 59 -19 c33 -10 97 -21 143 -24z m156 -12 c-10 -2 -26 -2 -35
0 -10 3 -2 5 17 5 19 0 27 -2 18 -5z m-123 -174 c39 -1 39 -2 10 -9 -16 -4
-53 -8 -82 -9 -28 0 -63 -5 -76 -10 -22 -9 -24 -7 -24 16 0 26 0 26 66 19 36
-3 84 -6 106 -7z m272 -174 c31 -8 89 -15 128 -16 l70 -1 -34 -14 c-19 -9 -72
-20 -120 -25 -47 -5 -99 -16 -115 -24 -16 -8 -31 -15 -33 -15 -9 0 -1 88 9 98
15 15 25 15 95 -3z"/>
</g>
</svg>
