<?xml version="1.0" standalone="no"?>
<!DOCTYPE svg PUBLIC "-//W3C//DTD SVG 20010904//EN"
 "http://www.w3.org/TR/2001/REC-SVG-20010904/DTD/svg10.dtd">
<svg version="1.0" xmlns="http://www.w3.org/2000/svg"
 width="234.000000pt" height="142.000000pt" viewBox="0 0 234.000000 142.000000"
 preserveAspectRatio="xMidYMid meet">
<metadata>
Created by potrace 1.16, written by Peter Selinger 2001-2019
</metadata>
<g transform="translate(0.000000,142.000000) scale(0.100000,-0.100000)"
fill="#000000" stroke="none">
<path d="M531 1344 c-12 -9 -20 -24 -19 -38 6 -75 -85 -149 -228 -186 -50 -12
-75 -37 -53 -51 8 -5 22 -9 31 -9 11 0 20 -11 24 -27 4 -15 18 -36 31 -46 13
-10 23 -25 23 -32 0 -8 11 -22 24 -30 13 -9 43 -45 66 -81 23 -36 53 -70 65
-76 l24 -11 -27 -21 c-15 -12 -94 -60 -177 -106 -169 -94 -235 -137 -235 -150
0 -6 36 -28 81 -50 51 -26 79 -46 76 -54 -10 -25 -19 -146 -13 -170 7 -30 39
-39 80 -21 37 16 276 33 596 41 129 3 238 8 241 10 7 4 22 5 314 25 151 10
173 9 200 -5 17 -9 39 -16 50 -16 11 0 29 -6 40 -14 25 -17 119 -38 139 -30
18 7 30 34 15 34 -6 0 -9 8 -7 17 2 13 16 19 48 23 55 6 59 24 8 28 -21 2 -38
7 -38 12 0 5 9 33 20 62 11 29 24 77 30 106 5 28 23 79 39 111 16 33 27 62 24
65 -3 3 5 14 18 25 17 14 21 23 13 31 -16 16 -55 -19 -118 -108 -30 -42 -104
-126 -164 -185 l-109 -109 -114 13 c-124 14 -125 14 -504 23 -452 11 -503 14
-605 36 -25 5 -66 12 -92 15 -27 4 -48 11 -48 16 0 17 29 67 43 76 8 4 31 31
51 58 50 68 94 120 139 167 35 36 42 66 13 55 -9 -4 -11 2 -9 18 3 12 -3 37
-12 54 -15 30 -21 102 -16 225 1 33 4 38 21 33 13 -3 25 2 34 14 12 17 32 21
162 29 82 6 208 15 279 21 261 22 592 16 619 -11 5 -5 24 -10 41 -10 23 0 43
-11 78 -44 25 -24 53 -58 61 -75 21 -40 75 -119 86 -126 5 -3 18 -25 28 -48
20 -44 92 -117 116 -117 29 0 27 21 -3 49 -17 16 -31 34 -31 40 0 5 -9 19 -21
30 -11 10 -25 36 -29 58 -11 46 -16 326 -6 342 16 26 -7 31 -37 8 -33 -25 -75
-43 -91 -39 -4 2 -14 -2 -22 -8 -15 -13 -210 -5 -281 11 -24 5 -57 9 -75 8
-157 -3 -265 3 -324 17 -38 9 -109 20 -159 25 -239 22 -375 46 -375 65 0 19
-26 24 -49 8z m122 -70 c23 -3 76 -12 117 -19 41 -8 129 -19 194 -25 166 -16
183 -26 61 -34 -55 -4 -129 -11 -165 -16 -36 -6 -118 -11 -183 -13 l-118 -2 6
25 c4 14 16 35 27 47 21 23 16 48 -9 39 -8 -4 -11 -1 -8 5 4 6 14 8 22 5 8 -3
33 -9 56 -12z m1243 -207 l2 -110 -40 64 c-22 35 -54 78 -70 96 l-30 31 33 15
c72 31 83 34 94 24 5 -5 11 -59 11 -120z m-1421 16 c-4 -43 -7 -108 -8 -145
-1 -38 -5 -68 -9 -68 -5 0 -8 6 -8 13 0 7 -18 30 -40 52 -21 22 -39 46 -40 53
0 7 -11 23 -24 35 -48 45 -43 60 32 91 37 16 71 33 77 38 21 19 26 4 20 -69z
m-62 -445 c-81 -108 -149 -188 -159 -188 -7 0 -34 11 -59 24 -45 25 -45 25
-23 40 12 9 26 16 30 16 4 0 35 17 70 37 57 34 137 78 147 82 2 0 -1 -5 -6
-11z m1487 -244 c-18 -52 -38 -98 -46 -101 -21 -8 -144 7 -144 17 0 5 37 44
81 87 45 43 93 90 108 105 24 25 26 26 29 7 2 -11 -11 -63 -28 -115z m-1480
-53 c111 -16 233 -22 550 -26 309 -4 467 -12 475 -25 2 -4 -23 -8 -58 -9 -34
-1 -73 -4 -87 -6 -23 -5 -222 -15 -640 -30 -85 -3 -204 -10 -265 -15 -60 -5
-113 -6 -116 -2 -4 4 -4 33 -2 64 5 48 9 57 27 60 11 2 26 3 31 2 6 -1 44 -7
85 -13z m1424 -80 c3 -4 3 -11 0 -14 -8 -7 -44 4 -44 14 0 12 37 12 44 0z"/>
</g>
</svg>
