<?xml version="1.0" standalone="no"?>
<!DOCTYPE svg PUBLIC "-//W3C//DTD SVG 20010904//EN"
 "http://www.w3.org/TR/2001/REC-SVG-20010904/DTD/svg10.dtd">
<svg version="1.0" xmlns="http://www.w3.org/2000/svg"
 width="256.000000pt" height="106.000000pt" viewBox="0 0 256.000000 106.000000"
 preserveAspectRatio="xMidYMid meet">
<metadata>
Created by potrace 1.16, written by Peter Selinger 2001-2019
</metadata>
<g transform="translate(0.000000,106.000000) scale(0.100000,-0.100000)"
fill="#000000" stroke="none">
<path d="M1552 978 c-16 -21 -84 -230 -86 -268 -2 -19 -3 -54 -4 -77 -2 -38
-5 -43 -26 -43 -20 0 -24 6 -30 45 -5 40 -1 56 29 115 30 59 32 70 19 80 -12
10 -18 9 -36 -6 l-21 -19 7 43 c5 36 4 42 -12 42 -10 0 -29 -11 -42 -25 -22
-24 -58 -36 -45 -16 8 14 -9 21 -25 11 -9 -5 -19 -5 -26 1 -8 7 -18 2 -32 -16
-29 -36 -92 -85 -110 -85 -10 0 -7 9 12 34 30 40 31 46 12 46 -8 0 -28 -17
-45 -37 l-31 -38 6 33 c6 27 3 32 -12 32 -11 0 -39 -16 -63 -35 -24 -19 -47
-35 -50 -35 -3 1 6 11 22 23 28 24 36 47 14 47 -7 0 -27 -13 -44 -29 -26 -24
-33 -26 -36 -12 -2 9 5 37 14 63 16 40 16 48 4 58 -12 10 -20 7 -42 -11 -60
-51 -153 -143 -153 -151 0 -5 4 -6 10 -3 5 3 2 -8 -8 -24 -32 -57 -34 -43 -17
96 2 18 0 35 -5 38 -6 3 -5 16 0 31 17 43 13 57 -14 50 -25 -6 -82 -32 -149
-67 -39 -20 -51 -45 -17 -36 11 3 18 1 15 -3 -3 -5 2 -27 11 -49 15 -38 15
-42 -3 -68 -11 -15 -23 -36 -26 -46 -4 -10 -11 -16 -16 -13 -15 9 -34 143 -34
239 0 88 -9 106 -37 73 -6 -8 -34 -22 -61 -31 -28 -10 -53 -23 -55 -30 -3 -7
15 -63 39 -124 38 -94 42 -111 28 -111 -20 0 -118 47 -143 67 -10 9 -25 12
-37 8 -35 -11 -43 -38 -30 -112 6 -40 8 -104 4 -155 -8 -101 -8 -101 71 -62
29 14 58 24 65 22 6 -2 -17 -32 -51 -67 -34 -35 -58 -67 -53 -71 11 -9 156
-42 174 -39 8 1 36 -7 62 -19 56 -25 77 -28 77 -9 0 14 29 77 35 77 2 0 4 -8
4 -17 1 -43 14 -93 27 -104 22 -18 33 -1 28 41 -4 34 -2 40 13 40 10 0 28 -7
41 -15 12 -9 34 -15 49 -13 21 2 30 -3 41 -25 7 -15 20 -27 28 -27 17 0 18 14
3 42 -10 18 -8 19 13 12 38 -12 63 -10 63 6 0 8 3 20 6 25 4 6 9 23 13 38 8
34 25 27 18 -8 -3 -20 0 -25 16 -25 23 0 53 -41 62 -85 8 -41 36 -41 32 0 -2
17 -10 40 -18 53 -17 26 -12 27 54 11 57 -14 88 -40 103 -88 6 -20 15 -40 20
-45 14 -16 22 23 11 49 -10 21 -8 28 14 50 14 14 34 25 44 25 23 0 27 18 5 26
-19 8 -19 25 -1 50 14 18 15 17 30 -17 19 -46 65 -101 77 -93 15 9 10 33 -11
54 -10 10 -31 42 -45 69 l-25 50 35 71 34 72 51 -101 c28 -56 57 -104 65 -108
22 -8 18 -23 -5 -23 -11 0 -20 -4 -20 -9 0 -20 63 -103 86 -113 27 -13 29 -19
13 -35 -21 -21 -2 -41 38 -41 52 0 69 15 47 40 -17 17 -16 20 6 51 13 17 35
42 50 54 23 19 202 113 255 133 11 4 49 21 85 37 104 48 172 73 180 68 4 -3
13 2 20 10 7 8 17 15 22 15 6 0 24 6 41 14 18 8 49 19 69 26 21 6 40 15 42 19
8 13 -24 51 -43 51 -10 0 -21 3 -25 8 -4 4 -17 7 -29 8 -79 4 -352 107 -439
165 -19 13 -59 40 -89 60 -30 20 -62 46 -73 57 -10 12 -33 26 -51 32 -18 6
-36 17 -39 25 -7 18 -30 19 -44 3z m97 -83 c51 -48 163 -127 219 -155 67 -34
58 -38 -22 -10 -49 17 -185 33 -289 35 -23 0 -27 3 -22 20 3 11 13 48 22 83
15 60 17 63 41 57 13 -3 36 -17 51 -30z m-1215 -72 c4 -49 11 -105 15 -125 9
-38 2 -49 -16 -25 -5 6 -19 37 -32 67 -13 30 -27 62 -31 70 -4 9 -10 29 -14
46 -6 27 -4 31 26 40 18 6 36 12 39 13 3 0 9 -38 13 -86z m231 47 c8 -24 -36
-85 -66 -93 -15 -4 -23 1 -31 21 -17 39 -17 39 22 66 43 31 67 32 75 6z m217
-12 c-7 -7 -12 -40 -12 -77 0 -51 -5 -72 -22 -98 -13 -18 -25 -33 -28 -33 -3
0 -12 17 -21 38 -16 38 -16 39 14 72 37 41 19 55 -22 16 -15 -14 -31 -26 -36
-26 -12 0 117 119 130 120 5 0 4 -5 -3 -12z m488 -51 c-3 -23 -17 -62 -30 -85
l-24 -43 -14 27 c-20 37 -40 16 -23 -24 11 -25 10 -35 -3 -61 -9 -17 -21 -31
-26 -31 -19 0 -11 94 11 135 20 38 96 125 109 125 4 0 4 -19 0 -43z m-336 -34
c-4 -15 -7 -34 -7 -43 0 -8 -13 -35 -30 -58 -33 -49 -46 -46 -53 14 -5 37 -2
41 42 77 26 20 48 37 51 37 2 0 0 -12 -3 -27z m140 -59 c-32 -50 -38 -55 -45
-39 -15 39 -9 54 34 83 23 17 43 26 45 22 2 -4 -14 -34 -34 -66z m-504 -8 c0
-43 -5 -67 -14 -75 -17 -14 -29 3 -41 57 -6 27 -3 38 16 58 12 13 26 24 31 24
4 0 8 -29 8 -64z m905 14 c3 -5 1 -19 -5 -29 -6 -11 -18 -60 -26 -108 -9 -48
-22 -117 -29 -153 l-13 -65 5 90 c3 50 10 95 15 102 6 8 2 19 -12 33 -12 12
-19 28 -16 37 3 8 6 27 6 43 0 16 7 36 16 44 17 18 50 21 59 6z m235 -15 c22
-13 115 -23 127 -13 9 7 38 -1 95 -25 46 -20 97 -39 113 -42 17 -4 59 -16 93
-28 l64 -20 -39 -19 c-62 -31 -159 -67 -308 -113 -77 -24 -158 -51 -180 -61
-33 -14 -191 -64 -202 -64 -8 0 -2 221 8 279 12 79 32 119 61 123 29 4 155 -9
168 -17z m-707 -58 c2 -37 -1 -42 -20 -45 -21 -3 -23 1 -23 38 0 23 5 51 11
62 10 19 12 20 21 4 5 -9 10 -35 11 -59z m255 17 c-13 -25 -24 -40 -26 -35 -3
10 35 81 44 81 2 0 -6 -21 -18 -46z m-565 -55 c-14 -14 -83 -1 -83 16 0 8 12
28 27 46 l27 32 20 -42 c14 -29 17 -44 9 -52z m131 40 c19 -57 19 -56 -9 -61
-14 -2 -20 2 -19 15 0 9 1 35 2 57 1 22 4 40 6 40 2 0 11 -23 20 -51z m-314
-11 c0 -11 -32 -10 -50 2 -12 7 -11 12 5 30 l19 21 13 -23 c7 -13 12 -26 13
-30z m570 2 c-12 -23 -24 -40 -26 -37 -3 3 5 23 18 45 30 53 36 46 8 -8z
m-877 8 c12 -7 44 -15 71 -18 43 -4 51 -8 59 -34 8 -24 6 -32 -20 -57 -18 -18
-53 -36 -93 -48 -36 -10 -72 -22 -82 -26 -14 -6 -15 -2 -6 37 5 24 7 73 5 110
l-5 67 25 -10 c13 -5 34 -14 46 -21z m167 -38 c0 -5 -2 -10 -4 -10 -3 0 -8 5
-11 10 -3 6 -1 10 4 10 6 0 11 -4 11 -10z m400 -5 c0 -8 -4 -15 -10 -15 -5 0
-7 7 -4 15 4 8 8 15 10 15 2 0 4 -7 4 -15z m507 -17 c-3 -7 -5 -2 -5 12 0 14
2 19 5 13 2 -7 2 -19 0 -25z m-803 1 c34 -9 37 -12 24 -25 -8 -8 -28 -16 -44
-17 -25 -2 -29 2 -32 26 -4 30 -2 31 52 16z m816 -67 c0 -15 -2 -15 -10 -2
-13 20 -13 33 0 25 6 -3 10 -14 10 -23z m88 -23 c2 -25 -1 -68 -6 -95 l-9 -49
-20 42 c-11 23 -21 68 -22 98 -2 56 -2 56 26 53 26 -3 28 -7 31 -49z m-553
-18 c-14 -29 -30 -49 -35 -46 -5 3 5 28 23 55 17 26 33 47 35 45 2 -2 -8 -26
-23 -54z m115 47 c0 -7 -4 -19 -8 -26 -6 -9 -12 -6 -20 13 -10 22 -9 25 8 25
11 0 20 -6 20 -12z m90 5 c-1 -5 -16 -37 -34 -72 -32 -63 -34 -64 -46 -41 -10
19 -10 24 4 32 9 5 16 17 16 27 0 9 9 27 20 39 21 22 40 29 40 15z m84 -8 c-4
-8 -7 -15 -9 -15 -2 0 -5 7 -9 15 -3 9 0 15 9 15 9 0 12 -6 9 -15z m68 -32
l-16 -48 -9 32 c-12 40 -4 63 22 63 19 0 19 -1 3 -47z m-524 -22 c-24 -43 -35
-56 -41 -46 -5 9 -1 26 10 42 53 82 76 84 31 4z m87 25 c6 -28 0 -43 -37 -99
-70 -106 -97 -80 -40 38 52 107 67 119 77 61z m-121 9 c-4 -8 -10 -15 -15 -15
-5 0 -9 7 -9 15 0 8 7 15 15 15 9 0 12 -6 9 -15z m-137 -36 c-17 -34 -22 -38
-30 -24 -6 12 -3 23 14 41 33 35 39 29 16 -17z m83 -27 c0 -16 -60 -102 -71
-102 -21 0 -16 40 13 103 l32 70 13 -29 c7 -16 12 -35 13 -42z m306 -25 c-44
-73 -45 -74 -55 -58 -9 14 2 44 43 121 l19 35 9 -28 c8 -22 5 -35 -16 -70z
m193 32 c-10 -15 -19 -30 -19 -35 0 -4 -16 -22 -35 -41 -19 -19 -35 -32 -35
-30 0 8 68 152 76 159 4 4 13 0 20 -9 10 -15 9 -22 -7 -44z m-684 21 c5 -15
-4 -36 -33 -73 -21 -29 -42 -60 -45 -69 -4 -10 -11 -18 -18 -18 -6 0 -9 3 -7
8 2 4 21 44 42 90 22 45 42 82 47 82 4 0 11 -9 14 -20z m-75 -4 c0 -11 -55
-123 -67 -138 -8 -9 -21 -15 -29 -12 -48 14 -47 12 -22 45 52 68 91 109 104
109 8 0 14 -2 14 -4z m807 -58 c8 -17 6 -33 -8 -65 -15 -35 -23 -43 -44 -43
-16 0 -25 6 -25 16 0 18 51 114 61 114 3 0 10 -10 16 -22z m-341 -18 c-1 -3
-10 -21 -19 -41 -19 -42 -42 -63 -57 -54 -11 7 7 47 43 98 14 21 22 25 28 16
4 -7 6 -16 5 -19z m-357 -11 c9 -27 7 -38 -11 -70 -23 -42 -29 -45 -58 -29
-13 7 -17 16 -12 28 14 34 56 102 63 102 4 0 12 -14 18 -31z m515 6 c14 -55
-14 -91 -52 -66 -11 7 -10 16 7 50 25 47 36 51 45 16z m-334 -8 c0 -35 -23
-78 -38 -72 -8 3 -20 5 -28 5 -11 0 -6 13 17 45 36 50 49 56 49 22z m829 -61
c-9 -8 -10 -7 -5 7 3 10 7 31 8 45 1 22 2 21 5 -7 3 -19 -1 -38 -8 -45z m186
4 c-16 -11 -34 -20 -38 -20 -13 0 -78 -52 -72 -58 3 -3 -2 -14 -12 -24 -15
-16 -18 -17 -33 -3 -28 25 -5 62 50 81 25 9 61 22 80 30 50 19 59 17 25 -6z
m-985 -19 c0 -6 -4 -13 -10 -16 -5 -3 -10 1 -10 9 0 9 5 16 10 16 6 0 10 -4
10 -9z m425 -51 c3 -5 1 -10 -4 -10 -6 0 -11 5 -11 10 0 6 2 10 4 10 3 0 8 -4
11 -10z"/>
</g>
</svg>
