<?xml version="1.0" standalone="no"?>
<!DOCTYPE svg PUBLIC "-//W3C//DTD SVG 20010904//EN"
 "http://www.w3.org/TR/2001/REC-SVG-20010904/DTD/svg10.dtd">
<svg version="1.0" xmlns="http://www.w3.org/2000/svg"
 width="176.000000pt" height="192.000000pt" viewBox="0 0 176.000000 192.000000"
 preserveAspectRatio="xMidYMid meet">
<metadata>
Created by potrace 1.16, written by Peter Selinger 2001-2019
</metadata>
<g transform="translate(0.000000,192.000000) scale(0.100000,-0.100000)"
fill="#000000" stroke="none">
<path d="M689 1793 c-9 -2 -21 -14 -27 -27 -13 -28 -157 -201 -230 -274 -32
-33 -76 -64 -115 -81 -51 -24 -59 -30 -43 -37 13 -5 21 -3 24 4 2 7 13 12 24
12 12 0 54 16 95 35 85 40 101 42 134 16 13 -10 76 -50 140 -90 64 -39 136
-88 160 -109 24 -22 62 -49 84 -61 114 -63 173 -111 209 -172 l18 -31 -80 -81
c-45 -45 -116 -120 -159 -166 -89 -96 -271 -256 -302 -266 -29 -9 -56 9 -78
52 -16 30 -26 39 -51 41 -18 2 -32 -1 -32 -7 0 -6 -20 -33 -46 -62 -60 -68
-56 -83 21 -86 79 -3 197 -37 338 -100 59 -25 86 -42 191 -113 24 -17 49 -30
55 -30 25 0 8 27 -34 55 -45 30 -58 55 -30 55 8 0 15 9 15 20 0 11 -4 20 -10
20 -18 0 -10 15 51 90 33 41 76 100 96 130 20 30 45 64 55 75 10 11 47 56 83
100 80 97 196 226 248 275 20 19 37 41 37 47 0 6 -27 37 -60 70 -90 87 -86 83
-209 205 -63 62 -143 141 -178 175 -34 34 -63 65 -63 70 0 4 -13 17 -29 28
-73 51 -130 101 -130 116 -1 8 -29 34 -63 57 -69 45 -85 52 -109 45z m74 -85
c15 -11 27 -22 27 -26 0 -13 -39 -32 -45 -22 -10 17 -28 11 -21 -6 4 -10 -3
-25 -19 -40 -32 -30 -232 -149 -265 -158 -23 -6 -23 -6 -5 5 11 7 22 16 25 20
5 7 44 55 93 113 10 11 46 49 79 84 66 67 75 69 131 30z m160 -107 c27 -25 72
-72 100 -105 l51 -59 -39 21 c-22 11 -49 29 -60 39 -11 11 -27 22 -35 26 -8 4
-33 21 -55 38 -22 16 -55 39 -72 51 -35 21 -35 34 1 48 27 10 47 -1 109 -59z
m-122 -3 c25 -21 82 -59 269 -185 30 -20 69 -49 85 -65 17 -15 34 -28 38 -28
5 0 75 -66 157 -147 l149 -147 -57 -59 c-31 -33 -83 -86 -116 -118 -32 -33
-72 -76 -88 -97 -30 -38 -257 -278 -360 -381 -62 -62 -59 -61 -124 -18 -28 19
-31 24 -21 46 27 69 38 89 57 106 11 10 20 23 20 30 0 6 12 22 26 36 15 13 34
36 43 51 17 27 51 69 130 162 24 28 60 70 80 94 20 23 52 60 72 80 l35 38 -17
39 c-11 25 -26 42 -41 46 -14 3 -22 12 -22 22 1 11 -6 17 -17 17 -11 0 -22 7
-25 15 -4 8 -12 15 -18 15 -7 0 -22 11 -34 25 -12 14 -28 25 -35 25 -7 0 -20
8 -28 18 -34 37 -233 203 -324 268 -35 25 -31 33 43 81 31 21 59 41 60 45 7
15 34 8 63 -14z m-172 -138 c24 -22 46 -40 50 -40 15 -1 75 -59 68 -66 -4 -5
-11 -4 -15 1 -8 11 -35 29 -72 48 -14 6 -46 26 -72 43 -41 26 -44 31 -30 41
24 17 23 17 71 -27z m181 -140 c13 -11 21 -22 18 -25 -2 -3 -15 6 -28 20 -28
30 -22 33 10 5z m-38 -787 c-21 -27 -47 -61 -57 -76 -16 -26 -20 -27 -34 -12
-14 14 -13 17 9 38 127 113 144 123 82 50z m-228 -67 c22 -17 50 -41 63 -54
24 -24 32 -41 11 -24 -20 15 -137 46 -192 51 -6 1 5 17 24 36 36 37 35 37 94
-9z m441 -56 c-10 -11 -20 -18 -23 -15 -3 3 3 14 13 25 10 11 20 18 23 15 3
-3 -3 -14 -13 -25z m-300 -18 c-3 -3 -11 0 -18 7 -9 10 -8 11 6 5 10 -3 15 -9
12 -12z m261 -28 c-3 -9 -6 -18 -6 -20 0 -2 -7 -4 -15 -4 -13 0 -14 4 -5 20
13 24 35 27 26 4z m-46 -66 c0 -6 -7 -7 -16 -4 -9 3 -20 6 -25 6 -5 0 -9 4 -9
9 0 4 11 6 25 3 14 -2 25 -9 25 -14z"/>
<path d="M1135 920 c-3 -5 -1 -10 4 -10 6 0 11 5 11 10 0 6 -2 10 -4 10 -3 0
-8 -4 -11 -10z"/>
</g>
</svg>
