<?xml version="1.0" standalone="no"?>
<!DOCTYPE svg PUBLIC "-//W3C//DTD SVG 20010904//EN"
 "http://www.w3.org/TR/2001/REC-SVG-20010904/DTD/svg10.dtd">
<svg version="1.0" xmlns="http://www.w3.org/2000/svg"
 width="267.000000pt" height="223.000000pt" viewBox="0 0 267.000000 223.000000"
 preserveAspectRatio="xMidYMid meet">
<metadata>
Created by potrace 1.16, written by Peter Selinger 2001-2019
</metadata>
<g transform="translate(0.000000,223.000000) scale(0.100000,-0.100000)"
fill="#000000" stroke="none">
<path d="M1089 2184 c-25 -26 -133 -104 -146 -104 -3 0 -40 -21 -82 -47 -98
-61 -131 -79 -301 -162 -41 -20 -69 -41 -77 -57 -19 -41 9 -40 79 3 67 41 98
54 248 110 167 61 334 114 354 111 19 -3 45 -43 100 -153 25 -51 54 -101 107
-188 16 -26 29 -49 29 -52 0 -2 19 -34 41 -70 24 -37 38 -70 33 -74 -5 -4 -88
-5 -184 -2 l-175 6 -52 100 c-80 155 -97 187 -124 230 -13 23 -29 50 -35 60
-14 26 -40 31 -48 10 -4 -11 21 -63 68 -143 41 -70 78 -136 82 -147 4 -11 20
-39 36 -62 15 -23 28 -44 28 -46 0 -3 -32 4 -72 14 -45 12 -106 19 -162 19
-50 0 -133 7 -185 15 -52 9 -102 15 -110 14 -51 -5 -69 1 -64 21 3 13 0 20 -8
21 -8 0 -23 3 -34 5 -11 3 -47 9 -80 14 -33 5 -72 12 -88 15 -24 7 -29 4 -41
-26 -9 -21 -14 -70 -14 -129 0 -141 -7 -209 -26 -268 -10 -29 -16 -67 -14 -83
3 -17 -1 -62 -7 -101 -13 -72 -8 -119 13 -126 6 -2 14 9 18 25 6 31 25 92 27
94 1 1 132 3 291 5 159 2 291 6 294 9 13 12 -15 15 -199 19 -107 2 -233 7
-280 11 -76 7 -86 10 -82 25 6 24 42 32 111 25 121 -11 185 -15 417 -25 132
-5 271 -7 308 -3 l68 6 -12 -27 c-7 -15 -20 -26 -31 -26 -14 0 -18 -5 -14 -18
8 -23 -32 -84 -113 -174 -33 -37 -73 -87 -89 -110 -33 -47 -80 -93 -157 -153
-112 -87 -149 -146 -98 -153 11 -2 45 -16 75 -31 29 -16 100 -52 158 -80 58
-29 116 -59 130 -67 14 -8 43 -24 65 -34 22 -10 53 -33 69 -49 34 -35 51 -39
60 -13 3 9 8 22 11 28 3 6 -5 15 -18 21 -23 11 -43 59 -27 65 11 5 104 138
135 194 15 27 36 61 46 75 10 14 16 29 12 33 -3 3 -1 6 5 6 7 0 12 7 12 15 0
8 4 15 9 15 5 0 22 26 37 57 14 32 36 71 47 87 19 28 21 28 35 10 7 -11 24
-42 37 -70 13 -29 41 -79 63 -112 41 -62 92 -165 92 -187 0 -17 31 -28 43 -16
13 13 -20 88 -76 174 -20 32 -53 88 -71 125 -19 37 -48 80 -65 96 -17 17 -31
35 -31 40 1 6 33 54 73 106 l73 95 50 0 49 0 32 -60 c18 -33 42 -77 54 -99 11
-21 34 -57 50 -79 16 -22 29 -45 29 -52 0 -6 14 -24 31 -41 47 -43 82 -103 75
-127 -3 -12 -1 -27 5 -33 12 -15 17 -11 -126 -85 -133 -69 -369 -165 -461
-188 -38 -10 -54 -19 -54 -32 0 -22 114 -1 240 46 38 14 76 24 150 39 8 2 22
6 30 9 49 18 197 58 208 55 4 -1 35 2 70 7 53 6 62 11 62 28 0 19 -4 19 -76
13 -41 -4 -87 -12 -102 -18 -34 -13 -92 -27 -92 -22 0 2 35 22 78 44 42 23 96
52 119 66 46 28 63 25 63 -9 0 -12 12 -40 26 -61 24 -34 28 -37 42 -23 12 13
13 21 3 44 -6 15 -12 47 -14 71 -2 24 -9 47 -17 52 -18 11 -59 2 -83 -18 -9
-8 -20 -12 -24 -9 -3 4 -3 7 1 7 11 0 -39 84 -88 150 -71 95 -202 318 -192
328 6 6 448 2 474 -5 27 -6 27 8 6 -186 -6 -48 -4 -57 10 -57 9 0 16 3 17 8 4
45 11 79 23 106 8 17 19 67 25 111 13 104 39 222 57 260 7 17 20 56 28 88 16
62 54 137 69 137 5 0 7 9 4 20 -3 13 0 20 10 20 8 0 11 -5 7 -11 -4 -7 -1 -10
6 -7 17 5 22 20 12 35 -5 8 -19 9 -45 3 -22 -4 -52 -4 -69 0 -16 5 -42 7 -58
4 -15 -4 -31 -1 -34 5 -10 16 -46 13 -52 -4 -4 -8 0 -22 7 -31 7 -9 14 -24 16
-34 3 -23 -26 -28 -117 -18 -36 4 -96 7 -134 7 l-69 1 27 33 c15 17 47 64 73
102 25 39 55 84 66 101 l21 32 75 -59 c42 -32 84 -66 93 -75 18 -17 48 -13 48
6 0 15 -54 64 -123 112 -32 22 -61 47 -64 56 -4 9 -32 42 -63 72 -32 30 -66
73 -78 96 -11 22 -28 46 -37 54 -22 18 -55 84 -55 109 0 44 -46 38 -74 -9 -10
-17 -40 -54 -67 -82 -53 -53 -57 -74 -16 -80 l25 -3 -21 -45 c-11 -25 -24 -47
-29 -50 -4 -3 -33 -40 -65 -81 -32 -42 -87 -110 -122 -153 -73 -87 -73 -87
-124 8 -19 33 -49 88 -67 121 -129 232 -152 280 -144 311 6 25 -89 154 -114
154 -10 0 -29 -12 -43 -26z m62 -51 c40 -39 38 -59 -8 -67 -21 -3 -78 -19
-128 -35 -151 -48 -159 -47 -70 10 44 29 100 67 124 85 24 19 46 34 48 34 3 0
18 -12 34 -27z m781 -90 c6 -16 24 -41 38 -58 31 -35 83 -115 75 -115 -3 0
-29 16 -57 36 -29 19 -73 44 -100 56 -26 11 -48 23 -48 27 0 3 14 19 30 35 17
16 30 33 30 38 0 19 21 6 32 -19z m-19 -139 c18 -9 41 -25 52 -35 11 -10 36
-25 55 -33 19 -8 50 -28 68 -46 l33 -31 -25 -20 c-14 -11 -39 -46 -56 -78 -17
-31 -53 -84 -80 -118 l-49 -60 -68 3 c-37 2 -121 6 -185 10 l-118 6 30 41 c16
23 67 85 112 138 107 125 107 125 147 187 19 28 38 52 43 52 5 0 23 -7 41 -16z
m-1524 -330 c3 -3 -7 -30 -22 -62 -28 -61 -117 -277 -135 -327 -10 -30 -10
-30 -11 -4 -1 15 6 43 14 63 10 24 16 81 19 173 2 76 4 145 5 155 1 14 10 15
64 11 34 -3 64 -7 66 -9z m236 -57 c33 -8 114 -15 180 -16 67 -2 160 -11 210
-21 l90 -18 -135 6 c-74 4 -235 7 -358 7 -122 0 -222 0 -222 1 0 0 7 14 14 30
15 28 17 29 88 27 40 -1 100 -8 133 -16z m1805 -25 c0 -4 -4 -12 -9 -17 -5 -6
-21 -46 -36 -90 -39 -114 -44 -120 -46 -50 -1 33 -3 84 -5 113 l-3 52 50 0
c27 0 49 -4 49 -8z m-1232 -29 c-10 -2 -26 -2 -35 0 -10 3 -2 5 17 5 19 0 27
-2 18 -5z m95 0 c-13 -2 -33 -2 -45 0 -13 2 -3 4 22 4 25 0 35 -2 23 -4z m107
-9 c0 -2 -9 -4 -20 -4 -11 0 -20 4 -20 9 0 5 9 7 20 4 11 -3 20 -7 20 -9z m32
-16 c-6 -25 -106 -161 -140 -191 -20 -18 -21 -18 -35 5 -7 12 -28 46 -45 73
-17 28 -35 62 -41 78 -10 27 -10 27 32 28 23 1 82 0 131 -1 77 -1 88 1 83 14
-4 10 -1 16 7 16 10 0 12 -7 8 -22z m196 15 c-16 -2 -40 -2 -55 0 -16 2 -3 4
27 4 30 0 43 -2 28 -4z m-685 -18 l171 -3 22 -50 c12 -27 27 -53 33 -56 6 -4
25 -37 42 -72 l32 -66 -36 -36 -36 -36 -273 12 c-424 19 -479 23 -543 34 -33
5 -63 12 -67 14 -8 5 9 68 33 118 10 22 19 44 19 48 0 5 9 29 20 53 l20 45
188 2 c103 2 191 1 196 -1 4 -2 85 -5 179 -6z m1352 -38 c3 -18 2 -90 -2 -162
l-8 -130 -30 2 c-16 1 -50 4 -75 6 -25 2 -138 4 -252 5 -169 2 -208 5 -208 16
0 7 32 52 70 99 39 47 70 89 70 94 0 4 16 26 34 48 l34 40 113 0 c66 0 114 4
116 10 2 6 30 9 68 7 64 -4 64 -4 70 -35z m-755 -7 c14 -22 25 -44 25 -48 0
-4 23 -51 50 -104 35 -70 47 -100 39 -108 -8 -8 -62 -8 -179 -3 -160 8 -168 9
-176 30 -6 18 0 31 34 70 23 26 68 83 100 126 32 42 63 77 70 77 7 0 23 -18
37 -40z m280 24 l39 -6 -16 -27 c-17 -26 -117 -154 -141 -180 -7 -7 -15 -12
-16 -10 -10 10 -116 222 -116 231 0 10 171 4 250 -8z m-518 -341 c9 -8 14 -21
11 -29 -3 -8 -1 -14 5 -14 6 0 35 -41 65 -92 l55 -91 -59 -69 c-33 -38 -89
-115 -126 -171 -64 -97 -181 -246 -217 -276 -15 -12 -19 -12 -32 7 -8 12 -53
47 -99 78 -47 31 -85 61 -85 65 0 5 13 18 29 30 16 12 32 33 36 46 3 14 53 96
111 183 57 87 109 172 115 189 7 19 18 31 29 31 12 0 21 10 25 29 3 16 13 35
21 42 8 6 14 22 14 34 0 13 6 26 13 28 19 8 70 -3 89 -20z m262 17 c58 0 59 0
41 -20 -10 -11 -24 -20 -32 -20 -7 0 -13 -4 -13 -10 0 -5 5 -10 11 -10 12 0
-25 -53 -80 -115 l-34 -39 -19 25 c-34 41 -72 123 -59 127 6 2 11 8 11 13 0 6
-4 8 -9 4 -10 -6 -41 21 -41 35 0 14 32 19 100 15 36 -3 92 -5 124 -5z m146
-31 c0 -5 -11 -9 -25 -9 -27 0 -32 9 -13 28 12 12 38 -1 38 -19z m475 15 c21
-3 40 -6 41 -7 1 -1 -105 -3 -235 -5 -211 -2 -240 0 -252 14 -13 15 2 16 196
10 116 -4 228 -10 250 -12z m-807 -416 c-32 -62 -67 -118 -79 -128 -4 -3 -15
-23 -27 -45 -11 -22 -29 -49 -41 -59 -12 -11 -31 -36 -43 -55 -31 -53 -79
-100 -94 -94 -22 8 -16 35 15 67 87 91 146 164 197 243 52 81 92 133 101 133
2 0 -11 -28 -29 -62z m-496 -25 c-16 -21 -35 -53 -41 -72 -15 -47 -40 -74 -56
-61 -23 19 -4 54 59 112 33 31 62 57 64 58 2 0 -10 -17 -26 -37z m-127 -163
c21 -22 47 -40 56 -40 10 0 30 -10 46 -23 15 -12 48 -35 71 -51 24 -15 41 -30
38 -33 -3 -3 -20 4 -38 16 -18 11 -57 32 -86 45 -29 14 -55 32 -58 40 -3 8
-20 17 -37 20 -18 4 -41 13 -51 21 -16 12 -17 17 -6 30 18 21 21 20 65 -25z"/>
<path d="M1410 1040 c0 -6 31 -10 70 -10 39 0 70 4 70 8 0 5 -31 10 -70 10
-40 1 -70 -3 -70 -8z"/>
<path d="M1028 1043 c6 -2 18 -2 25 0 6 3 1 5 -13 5 -14 0 -19 -2 -12 -5z"/>
</g>
</svg>
