<?xml version="1.0" standalone="no"?>
<!DOCTYPE svg PUBLIC "-//W3C//DTD SVG 20010904//EN"
 "http://www.w3.org/TR/2001/REC-SVG-20010904/DTD/svg10.dtd">
<svg version="1.0" xmlns="http://www.w3.org/2000/svg"
 width="199.000000pt" height="120.000000pt" viewBox="0 0 199.000000 120.000000"
 preserveAspectRatio="xMidYMid meet">
<metadata>
Created by potrace 1.16, written by Peter Selinger 2001-2019
</metadata>
<g transform="translate(0.000000,120.000000) scale(0.100000,-0.100000)"
fill="#000000" stroke="none">
<path d="M839 1130 c-9 -5 -20 -27 -24 -47 -3 -21 -15 -53 -26 -71 -22 -38
-25 -78 -7 -84 19 -7 102 13 110 25 12 20 200 -3 256 -32 9 -5 35 -16 57 -24
185 -70 254 -96 275 -102 14 -4 45 -19 70 -35 25 -15 78 -40 117 -56 49 -19
73 -34 73 -45 0 -10 12 -19 33 -24 l32 -7 -55 -18 c-30 -11 -75 -22 -100 -25
-25 -4 -83 -17 -130 -30 -192 -54 -342 -75 -391 -55 -32 14 -48 8 -32 -12 6
-7 9 -41 7 -75 -2 -34 1 -65 6 -68 9 -6 81 26 110 49 17 13 77 35 117 42 33 6
37 9 29 23 -10 15 -61 3 -145 -35 -41 -19 -77 -34 -80 -34 -3 0 -7 18 -8 40
l-1 40 46 -4 c27 -2 77 4 117 15 38 11 82 19 98 19 15 0 69 13 119 30 50 16
103 30 118 30 15 0 56 9 91 19 35 11 87 21 114 22 53 2 75 13 75 35 0 9 -10
11 -33 7 -24 -4 -37 0 -51 16 -11 12 -24 21 -29 21 -6 0 -18 6 -26 13 -9 8
-45 24 -81 36 -36 13 -90 38 -120 56 -30 18 -93 47 -140 63 -174 61 -297 113
-331 137 -18 15 -62 40 -96 57 -34 17 -80 46 -102 64 -44 38 -40 37 -62 24z
m141 -126 c0 -2 -33 -4 -74 -4 l-74 0 10 38 c6 20 12 40 14 44 4 6 124 -70
124 -78z"/>
<path d="M500 1054 c-30 -24 -62 -52 -70 -63 -17 -22 -145 -111 -160 -111 -6
0 -10 -9 -10 -20 0 -11 -4 -20 -8 -20 -5 0 -27 -16 -50 -36 -40 -34 -55 -67
-29 -63 26 3 38 -2 59 -26 12 -14 27 -25 34 -25 7 0 26 -11 42 -25 31 -26 66
-33 77 -15 3 6 -2 13 -12 17 -31 11 -78 55 -85 79 -3 13 -3 24 2 24 19 0 92
-31 106 -45 17 -17 62 -31 71 -21 9 9 -63 76 -83 76 -11 0 -14 5 -10 16 3 9 9
27 12 40 6 24 28 32 39 14 5 -8 100 -60 111 -60 13 0 0 31 -20 47 -21 17 -23
25 -19 66 3 26 9 50 14 53 5 3 23 -16 41 -41 29 -42 36 -46 68 -43 39 3 44 20
8 28 -35 9 -52 55 -50 133 1 48 -2 67 -11 66 -6 0 -37 -20 -67 -45z m40 -39
c0 -8 -7 -15 -15 -15 -16 0 -20 12 -8 23 11 12 23 8 23 -8z m-70 -89 c0 -42
-10 -50 -44 -35 -33 15 -33 22 2 48 37 28 42 26 42 -13z m-124 -102 c-9 -34
-42 -28 -38 6 3 32 35 59 40 35 2 -9 1 -28 -2 -41z m-96 -42 c0 -13 -12 -22
-22 -16 -10 6 -1 24 13 24 5 0 9 -4 9 -8z"/>
<path d="M836 918 c-72 -18 -81 -19 -91 -4 -19 25 -52 -2 -143 -117 -45 -57
-183 -170 -229 -188 -28 -11 -29 -17 -2 -46 18 -18 20 -25 9 -38 -7 -8 -16
-15 -21 -15 -4 0 -22 -13 -39 -29 -17 -15 -54 -39 -81 -51 -27 -13 -49 -26
-49 -30 0 -13 102 -101 135 -117 19 -9 35 -23 35 -30 0 -8 12 -13 33 -13 40 0
57 -15 57 -51 0 -31 16 -47 32 -31 7 7 17 3 32 -13 11 -13 33 -26 48 -29 l26
-6 -5 73 c-5 68 -4 73 21 97 26 23 28 24 54 8 17 -10 28 -27 30 -44 2 -16 13
-42 25 -59 12 -16 21 -31 19 -32 -8 -9 0 -102 11 -117 16 -22 35 -14 72 34 47
59 77 73 166 74 60 1 82 5 96 19 16 16 16 17 0 17 -14 0 -17 10 -17 60 0 55 2
62 25 72 31 14 32 28 4 28 -19 0 -20 4 -14 38 4 20 9 58 10 85 1 26 7 53 13
59 14 14 16 32 3 23 -17 -10 -21 12 -10 44 6 17 20 36 30 42 11 5 17 14 14 19
-7 11 38 102 59 119 34 29 18 39 -66 43 -81 4 -118 -3 -118 -22 0 -6 17 -10
38 -11 20 0 46 -4 57 -9 21 -10 -72 -6 -167 6 -57 8 -60 20 -23 91 24 43 27
74 8 72 -4 0 -44 -10 -87 -21z m44 -34 c0 -10 -31 -75 -58 -123 l-26 -44 -17
74 c-9 41 -17 74 -16 75 2 1 93 20 110 23 4 0 7 -2 7 -5z m-146 -104 c17 -93
15 -137 -15 -330 -5 -36 -12 -80 -15 -97 -3 -18 -9 -33 -13 -33 -5 0 -26 16
-47 35 -22 19 -46 37 -55 40 -23 8 -27 31 -25 120 1 41 -2 75 -7 75 -4 0 -31
-15 -60 -33 -64 -41 -88 -54 -66 -35 9 8 27 36 39 63 13 28 46 73 75 101 29
28 76 81 105 117 28 37 55 67 60 67 4 0 15 -41 24 -90z m258 -49 c4 -3 -18
-16 -48 -27 l-54 -21 0 32 0 33 48 -5 c26 -3 50 -8 54 -12z m114 -45 c-17 -41
-31 -46 -40 -13 -11 43 -7 56 22 59 34 4 37 -2 18 -46z m-256 17 c0 -19 -3
-24 -10 -17 -6 6 -8 18 -4 27 9 24 14 21 14 -10z m180 -28 c0 -22 -4 -25 -37
-24 -21 0 -46 4 -57 8 -15 6 -9 11 30 23 64 22 64 22 64 -7z m-210 -60 c7 -29
5 -40 -9 -54 -20 -20 -37 -180 -22 -209 5 -9 8 -39 8 -65 0 -69 11 -75 75 -39
29 16 67 33 83 36 17 4 37 9 45 11 12 4 15 -7 15 -58 0 -36 -4 -61 -10 -60 -5
0 -26 4 -45 7 -19 3 -70 6 -112 7 -75 2 -77 2 -83 30 -3 15 -12 30 -19 32 -11
4 -11 16 -5 49 5 24 14 81 19 128 6 47 15 108 21 135 5 28 12 61 15 74 6 30
14 22 24 -24z m129 6 c7 -1 -70 -51 -78 -51 -11 0 -19 31 -13 48 4 13 12 13
91 3z m89 -39 l3 -32 -73 0 c-72 0 -72 0 -48 17 43 31 84 51 100 49 9 -1 16
-14 18 -34z m-608 3 c-7 -9 -15 -13 -17 -11 -7 7 7 26 19 26 6 0 6 -6 -2 -15z
m478 -69 c42 6 45 5 32 -8 -27 -28 -111 -71 -104 -55 3 8 1 18 -5 22 -12 7
-15 58 -4 68 3 4 12 -2 20 -13 12 -16 21 -19 61 -14z m-382 -35 c-3 -12 -6
-10 -11 7 -4 12 -14 22 -23 22 -13 0 -12 3 4 14 17 13 20 12 27 -7 4 -11 6
-28 3 -36z m512 1 l3 -32 -68 0 -68 1 40 24 c22 13 45 28 50 34 19 20 40 7 43
-27z m-638 8 c0 -5 11 -10 25 -10 14 0 25 -3 25 -7 0 -10 -112 -123 -122 -123
-13 0 -9 53 5 80 27 51 67 87 67 60z m106 -118 c-25 -48 -106 -103 -106 -72 0
25 34 107 53 128 l21 23 24 -24 c23 -23 23 -26 8 -55z m-218 33 c-12 -27 -23
-31 -33 -14 -4 6 1 17 11 24 28 21 35 18 22 -10z m612 7 c0 -7 -63 -42 -75
-42 -14 0 -2 39 13 43 30 8 62 7 62 -1z m126 -36 c-10 -26 -18 -31 -47 -31
-41 -1 -109 -23 -109 -36 0 -5 6 -9 13 -9 12 0 -32 -39 -45 -40 -5 0 -8 16 -8
35 0 29 5 37 33 51 17 9 42 25 53 36 25 23 70 36 101 30 21 -4 21 -6 9 -36z
m-426 -49 c0 -14 -95 -98 -98 -87 -7 21 20 110 36 119 16 9 61 -15 62 -32z
m-220 14 c0 -5 -3 -17 -6 -25 -5 -13 -9 -14 -20 -5 -11 9 -11 15 -3 25 13 16
29 18 29 5z m90 -71 c0 -5 -4 -10 -10 -10 -5 0 -10 5 -10 10 0 6 5 10 10 10 6
0 10 -4 10 -10z m73 -76 c4 -23 3 -24 -10 -11 -9 8 -12 20 -9 26 10 16 13 14
19 -15z m277 -69 c-19 -19 -38 -35 -42 -35 -4 0 -8 16 -8 35 0 34 1 35 42 35
l42 0 -34 -35z"/>
</g>
</svg>
