<?xml version="1.0" standalone="no"?>
<!DOCTYPE svg PUBLIC "-//W3C//DTD SVG 20010904//EN"
 "http://www.w3.org/TR/2001/REC-SVG-20010904/DTD/svg10.dtd">
<svg version="1.0" xmlns="http://www.w3.org/2000/svg"
 width="208.000000pt" height="118.000000pt" viewBox="0 0 208.000000 118.000000"
 preserveAspectRatio="xMidYMid meet">
<metadata>
Created by potrace 1.16, written by Peter Selinger 2001-2019
</metadata>
<g transform="translate(0.000000,118.000000) scale(0.100000,-0.100000)"
fill="#000000" stroke="none">
<path d="M1092 1005 c-23 -36 -49 -68 -59 -71 -10 -3 -26 -9 -35 -14 -11 -6
-18 -5 -20 2 -8 22 -54 -3 -138 -74 -90 -77 -219 -168 -237 -168 -17 0 -71 67
-94 115 -11 24 -41 62 -65 85 -24 22 -39 40 -34 40 6 0 3 12 -6 26 -15 21 -15
31 -6 58 16 43 15 46 -9 46 -11 0 -40 -19 -63 -42 -24 -24 -71 -67 -105 -97
l-62 -53 21 -23 c12 -13 34 -26 48 -30 14 -3 46 -20 70 -36 23 -16 52 -29 63
-29 11 0 44 -22 72 -49 29 -26 61 -53 71 -58 18 -10 14 -14 -35 -46 -87 -55
-129 -73 -204 -87 -101 -19 -121 -40 -62 -65 31 -13 63 -41 157 -138 25 -26
50 -47 55 -47 17 0 35 22 35 45 0 11 26 48 58 83 31 35 71 81 87 102 17 21 37
39 47 40 9 0 34 -18 55 -41 21 -22 56 -54 78 -69 22 -16 56 -42 75 -59 19 -17
40 -31 46 -31 7 0 19 -10 27 -23 9 -12 32 -39 52 -60 26 -29 33 -42 25 -51
-12 -15 -3 -26 21 -26 10 0 33 -13 51 -29 18 -15 43 -31 54 -35 12 -4 24 -16
27 -27 11 -41 21 -30 172 186 32 46 135 156 246 263 45 43 45 43 64 22 12 -13
22 -17 30 -10 8 7 28 -5 66 -39 120 -107 137 -85 19 26 -44 41 -80 80 -80 85
0 11 139 148 150 148 4 0 21 18 39 40 84 105 -77 16 -231 -126 -20 -19 -18
-20 -138 76 -102 81 -245 220 -298 288 -19 23 -39 42 -46 42 -7 0 -31 -29 -54
-65z m140 -76 c33 -40 100 -101 176 -160 160 -122 176 -141 66 -78 -104 61
-288 153 -324 163 -14 4 -40 14 -58 22 l-33 15 25 30 c14 16 35 47 48 70 21
37 23 39 35 22 7 -10 37 -48 65 -84z m-842 -79 c0 -12 8 -20 23 -22 15 -2 29
-18 44 -47 13 -25 37 -60 55 -78 45 -47 29 -41 -32 11 -29 24 -64 47 -78 51
-29 7 -142 74 -142 84 1 3 22 23 47 43 l47 37 18 -30 c10 -16 18 -38 18 -49z
m479 -62 c-104 -113 -178 -178 -202 -178 -14 0 -37 19 -37 31 0 4 30 29 68 55
37 26 100 77 140 113 76 68 123 103 130 96 2 -2 -42 -55 -99 -117z m184 60
c10 -5 52 -20 95 -34 98 -32 327 -146 370 -185 l33 -29 -28 -26 c-15 -14 -48
-45 -73 -68 -25 -23 -67 -57 -94 -76 -28 -18 -89 -63 -136 -99 -47 -36 -107
-77 -133 -91 -41 -22 -49 -23 -57 -10 -5 8 -35 48 -66 88 -43 54 -62 71 -75
67 -13 -4 -31 10 -66 52 -27 33 -69 78 -93 102 l-45 43 45 38 c25 21 92 86
149 144 110 111 116 114 174 84z m-456 -284 c13 -20 8 -28 -92 -130 l-106
-109 -17 25 c-9 14 -39 46 -66 72 -49 46 -49 48 -23 48 15 0 44 9 64 20 21 11
42 20 48 20 5 1 39 19 75 40 71 43 95 46 117 14z m972 -1 c-7 -10 -72 -76
-144 -148 -72 -72 -150 -156 -175 -188 -25 -32 -54 -69 -65 -82 l-20 -24 -39
27 c-22 15 -41 32 -42 37 -2 6 36 36 84 68 112 75 266 195 345 268 65 61 78
71 56 42z"/>
</g>
</svg>
