<?xml version="1.0" standalone="no"?>
<!DOCTYPE svg PUBLIC "-//W3C//DTD SVG 20010904//EN"
 "http://www.w3.org/TR/2001/REC-SVG-20010904/DTD/svg10.dtd">
<svg version="1.0" xmlns="http://www.w3.org/2000/svg"
 width="314.000000pt" height="128.000000pt" viewBox="0 0 314.000000 128.000000"
 preserveAspectRatio="xMidYMid meet">
<metadata>
Created by potrace 1.16, written by Peter Selinger 2001-2019
</metadata>
<g transform="translate(0.000000,128.000000) scale(0.100000,-0.100000)"
fill="#000000" stroke="none">
<path d="M1008 1091 c-37 -20 -76 -45 -88 -56 -18 -16 -19 -20 -5 -35 8 -9 15
-21 15 -27 0 -5 10 -18 21 -29 12 -10 32 -41 44 -69 13 -27 39 -65 58 -84 34
-33 35 -34 22 -70 -20 -55 -115 -252 -136 -282 -17 -24 -22 -26 -60 -19 -24 5
-49 17 -58 29 -18 23 -32 18 -50 -17 -10 -18 -10 -26 0 -38 9 -11 10 -54 6
-164 -5 -144 -5 -150 14 -150 12 0 32 19 53 53 86 132 149 165 336 178 69 4
150 13 180 19 86 16 276 31 383 31 78 0 97 2 97 14 0 16 -23 23 -85 27 l-40 3
-5 95 c-3 60 -1 104 6 120 21 45 33 74 64 155 17 44 36 89 43 100 11 20 30 60
61 125 9 19 30 50 47 68 35 37 29 63 -9 43 -11 -6 -40 -11 -64 -11 -24 0 -80
-6 -125 -14 -64 -12 -103 -13 -184 -5 -68 7 -104 7 -108 1 -3 -6 -19 -14 -35
-18 -25 -6 -28 -5 -22 14 6 19 3 20 -100 16 -58 -2 -110 -7 -115 -10 -5 -3 -2
-15 6 -28 9 -13 19 -66 25 -122 13 -134 14 -125 -15 -118 -14 3 -39 1 -55 -6
-27 -11 -32 -10 -49 11 -32 39 -35 87 -10 180 25 98 28 121 14 125 -5 1 -40
-14 -77 -35z m17 -68 c-13 -74 -21 -80 -48 -34 -22 38 -22 46 6 59 41 20 48
15 42 -25z m283 30 c-14 -31 -64 -113 -70 -113 -7 0 -15 94 -10 110 2 6 22 10
44 10 22 0 38 -3 36 -7z m231 -2 c11 -7 6 -26 -30 -98 l-45 -89 -1 88 c-2 73
1 89 15 98 21 12 43 12 61 1z m328 2 c-15 -29 -101 -215 -119 -257 -12 -28
-24 -54 -28 -59 -3 -4 -5 63 -3 150 2 114 6 159 15 165 16 10 141 11 135 1z
m-447 -20 c-1 -5 -12 -28 -25 -53 -24 -44 -24 -44 -25 -15 0 17 -3 40 -6 53
-6 19 -3 22 25 22 17 0 31 -3 31 -7z m230 4 c0 -8 -67 -158 -74 -164 -4 -4 -4
29 0 72 4 44 12 83 18 87 11 8 56 11 56 5z m-321 -187 c-5 -80 -13 -179 -19
-220 -26 -207 -25 -255 3 -244 14 5 16 19 32 229 17 214 27 271 51 313 14 24
27 42 29 40 8 -7 5 -117 -4 -213 -5 -55 -15 -161 -22 -235 -6 -74 -14 -138
-18 -141 -10 -11 -145 -20 -158 -11 -10 6 -11 31 -2 113 6 57 13 137 15 178 2
40 8 80 13 89 5 9 5 28 0 46 -15 50 -11 67 32 150 29 55 44 75 49 65 5 -8 4
-79 -1 -159z m347 11 c-4 -58 -12 -131 -17 -161 -6 -30 -11 -111 -12 -180 l-2
-125 -29 -3 c-16 -2 -32 0 -37 5 -4 4 -12 53 -17 108 -12 135 4 288 36 332 12
17 22 37 22 43 0 23 43 99 53 93 5 -3 7 -48 3 -112z m-150 -146 c-15 -116 -15
-220 -1 -297 l8 -38 -40 0 c-67 0 -65 -10 -44 250 5 58 8 120 8 138 0 20 9 42
22 55 11 13 21 28 21 34 0 6 8 28 18 49 l17 39 3 -55 c2 -30 -4 -109 -12 -175z
m-352 59 c27 -11 18 -29 -44 -87 -33 -31 -60 -55 -60 -53 0 10 59 130 60 121
0 -5 5 -2 11 8 11 19 11 19 33 11z m22 -156 c-3 -46 -12 -119 -19 -163 l-12
-80 -39 -3 c-45 -4 -156 27 -156 43 0 6 6 19 13 30 8 11 24 46 36 78 13 31 26
57 30 57 3 0 34 27 69 60 34 33 67 60 73 60 9 0 10 -24 5 -82z m-316 -263 c8
-10 31 -15 64 -15 75 0 84 -12 30 -38 -25 -12 -67 -43 -93 -67 -27 -25 -51
-45 -55 -45 -8 0 -8 127 0 158 7 25 36 29 54 7z"/>
<path d="M535 1100 c-11 -5 -50 -9 -87 -9 -62 -1 -94 -14 -71 -30 15 -10 35
-94 31 -132 l-3 -34 -112 0 c-93 -1 -115 -4 -131 -19 -31 -27 -32 -50 -6 -106
13 -29 24 -61 24 -71 0 -44 67 -9 182 97 44 39 49 41 58 24 9 -16 17 -249 10
-307 -3 -31 -22 -29 -62 5 -18 15 -50 40 -70 55 -20 15 -38 37 -40 49 -3 25
-18 29 -29 7 -4 -8 -20 -40 -36 -72 -15 -32 -38 -70 -51 -83 -23 -26 -22 -44
2 -44 8 0 19 6 25 14 26 31 162 37 224 11 33 -14 33 -14 29 -72 -2 -40 1 -64
11 -77 23 -31 37 -11 32 47 -7 84 -2 86 114 38 104 -42 131 -49 131 -31 0 12
-73 48 -157 79 -76 28 -90 42 -75 75 6 13 9 26 6 28 -2 3 -6 61 -9 130 -2 69
-9 137 -14 151 -17 44 11 60 216 123 53 16 93 34 93 42 0 20 -33 14 -166 -33
-71 -24 -130 -43 -132 -41 -4 4 32 62 81 129 20 28 37 55 37 59 0 10 -29 9
-55 -2z m-25 -50 c0 -5 -13 -30 -29 -56 l-30 -46 -7 36 c-3 20 -10 39 -15 42
-5 3 -9 11 -9 19 0 9 14 13 45 13 25 0 45 -4 45 -8z m-156 -199 c5 -8 -101
-101 -116 -101 -8 0 -28 57 -28 81 0 10 8 20 18 22 31 8 121 7 126 -2z m-72
-318 l42 -28 -59 -7 c-32 -4 -60 -6 -63 -4 -4 5 26 66 33 66 3 0 24 -12 47
-27z"/>
<path d="M2164 1092 c-33 -21 -62 -147 -64 -274 0 -29 35 -21 72 15 32 31 61
52 117 89 24 15 111 25 111 13 0 -3 -4 -13 -9 -23 -9 -16 -42 -378 -41 -450
l0 -33 -57 3 c-51 3 -58 6 -61 26 -4 25 -27 30 -36 6 -3 -9 -6 -55 -6 -103 0
-93 14 -131 49 -131 10 0 48 33 84 74 74 82 68 80 240 92 85 6 97 5 97 -9 0
-27 22 -31 41 -9 9 12 26 22 38 22 33 0 35 20 2 26 l-30 6 6 91 c6 88 9 96 75
229 58 116 76 143 109 165 45 30 49 43 14 43 -14 0 -25 4 -25 9 0 5 -73 8
-162 8 -265 0 -298 3 -298 25 0 21 -18 23 -54 7 -34 -16 -108 12 -155 58 -36
35 -40 37 -57 25z m106 -131 c0 -8 -92 -71 -104 -71 -7 0 -8 78 0 106 5 20 5
20 55 -3 27 -13 49 -27 49 -32z m239 -37 c5 -4 -82 -133 -91 -134 -3 0 -5 33
-5 73 l2 73 45 -4 c25 -2 47 -5 49 -8z m211 11 c0 -2 -6 -28 -14 -58 -8 -29
-17 -98 -20 -153 -11 -180 -17 -259 -22 -276 -5 -15 -18 -18 -91 -18 -65 0
-89 4 -97 15 -10 13 -14 13 -40 0 -16 -9 -32 -13 -35 -10 -5 6 -4 143 3 195 1
14 4 49 4 78 1 29 6 51 11 48 5 -3 41 37 80 89 l71 95 75 0 c41 0 75 -2 75 -5z
m118 -23 c-2 -4 -26 -52 -53 -107 l-50 -100 -3 50 c-6 81 7 153 26 157 35 6
83 6 80 0z m-502 -535 c6 -6 -74 -97 -86 -97 -10 0 -18 66 -12 95 3 19 8 21
48 15 24 -4 47 -9 50 -13z"/>
</g>
</svg>
