<?xml version="1.0" standalone="no"?>
<!DOCTYPE svg PUBLIC "-//W3C//DTD SVG 20010904//EN"
 "http://www.w3.org/TR/2001/REC-SVG-20010904/DTD/svg10.dtd">
<svg version="1.0" xmlns="http://www.w3.org/2000/svg"
 width="276.000000pt" height="172.000000pt" viewBox="0 0 276.000000 172.000000"
 preserveAspectRatio="xMidYMid meet">
<metadata>
Created by potrace 1.16, written by Peter Selinger 2001-2019
</metadata>
<g transform="translate(0.000000,172.000000) scale(0.100000,-0.100000)"
fill="#000000" stroke="none">
<path d="M727 1593 c-9 -16 -32 -36 -55 -46 -22 -9 -79 -57 -128 -108 -91 -92
-181 -160 -289 -215 -33 -17 -61 -38 -63 -46 -3 -18 85 -108 105 -108 7 0 13
-4 13 -9 0 -16 -102 -100 -148 -123 -67 -32 -73 -73 -7 -49 33 11 38 11 66
-13 45 -38 90 -46 251 -43 88 1 155 -3 169 -9 85 -39 117 -56 142 -76 25 -21
28 -21 44 -6 13 14 14 20 3 33 -11 13 -4 27 41 93 29 42 72 106 96 142 40 59
93 126 93 117 0 -3 5 -28 10 -57 8 -44 7 -58 -6 -78 -11 -17 -13 -27 -5 -35
17 -17 13 -132 -9 -289 -35 -242 -40 -268 -59 -268 -22 0 -36 11 -44 33 -4 11
-14 17 -24 15 -15 -3 -19 -16 -21 -73 -4 -83 14 -199 33 -215 20 -17 47 1 87
57 31 43 43 51 109 72 41 14 79 28 85 33 6 4 75 12 154 17 127 8 145 8 155 -6
9 -12 18 -14 31 -8 20 9 30 12 52 14 21 2 13 31 -13 43 -23 10 -25 17 -26 72
-2 179 6 236 36 236 22 0 18 21 -5 27 -16 4 -20 14 -20 43 0 37 20 67 38 56 5
-3 12 -19 15 -36 8 -40 29 -38 62 6 35 46 107 91 215 134 47 18 90 37 96 42 7
5 54 19 105 33 101 25 343 105 397 131 54 25 34 38 -64 42 -49 2 -129 14 -179
26 -49 13 -160 36 -245 50 -192 33 -321 60 -425 87 -141 37 -358 111 -415 142
-58 31 -125 43 -136 26 -3 -6 -10 -62 -15 -125 -9 -109 -8 -117 11 -145 33
-46 4 -34 -51 21 -37 37 -56 49 -70 45 -10 -4 -19 -3 -19 2 -1 4 -29 28 -63
52 l-62 45 -1 110 c0 94 -3 111 -17 114 -9 2 -22 -8 -30 -25z m-5 -120 c3 -21
5 -39 4 -40 -1 -1 -12 6 -25 16 -20 15 -22 21 -12 39 17 32 28 27 33 -15z
m526 -73 c8 0 46 -12 85 -27 64 -25 68 -28 41 -33 -16 -3 -63 -2 -104 1 -41 3
-86 3 -100 -2 -14 -4 -40 -10 -57 -13 l-33 -5 0 57 c0 31 3 67 6 78 6 21 8 20
76 -17 39 -22 77 -39 86 -39z m-550 -17 c20 -16 48 -36 61 -43 14 -7 34 -21
45 -32 35 -32 84 -59 103 -56 11 2 22 -6 27 -19 6 -12 24 -28 40 -37 31 -15
31 -15 -39 -15 -105 1 -195 19 -237 47 -21 13 -38 31 -38 38 0 20 -31 17 -59
-5 -34 -26 -41 -121 -15 -189 10 -26 17 -51 16 -56 -7 -24 11 -46 38 -46 21 0
28 4 24 14 -13 33 191 140 289 150 33 4 57 2 57 -3 0 -17 -296 -271 -316 -271
-17 0 -67 19 -74 29 -3 4 -41 27 -85 51 -106 57 -168 108 -159 129 4 9 7 24 8
34 1 9 16 32 33 50 31 33 93 121 93 132 0 3 14 24 31 45 17 21 28 43 25 48 -3
6 -3 17 0 25 10 26 89 14 132 -20z m-241 -112 c-17 -31 -25 -37 -35 -28 -11 9
-8 16 20 39 18 15 34 28 35 28 1 0 -8 -18 -20 -39z m1152 16 c79 -13 41 -30
-57 -25 l-77 3 -3 -38 c-3 -35 -1 -38 17 -32 12 4 21 2 21 -4 0 -11 -48 -14
-180 -11 -106 2 -121 11 -70 45 44 29 39 51 -13 58 -23 3 -60 2 -82 -3 -51
-12 -55 -12 -55 -1 0 6 15 12 33 14 58 8 411 3 466 -6z m359 -68 c94 -16 191
-36 213 -44 23 -8 52 -15 65 -15 12 0 26 -5 29 -10 4 -6 16 -10 28 -9 12 1 42
1 67 0 l45 -2 -74 -29 c-41 -16 -88 -32 -105 -36 -17 -3 -78 -22 -135 -41 -57
-19 -144 -43 -195 -54 -50 -11 -120 -26 -156 -34 -93 -21 -115 -19 -134 10
-16 24 -14 65 4 90 4 6 10 30 14 54 7 49 29 101 59 142 17 24 22 25 60 17 23
-4 120 -22 215 -39z m-768 26 c0 -2 -8 -19 -19 -38 -10 -18 -29 -61 -41 -95
-13 -34 -25 -62 -28 -62 -2 0 -2 29 0 65 3 36 2 68 -3 71 -5 3 -9 16 -9 29 0
17 7 25 23 28 33 6 77 8 77 2z m-824 -29 c7 -19 -35 -86 -54 -86 -24 1 -66 35
-58 48 3 6 19 13 35 17 16 3 35 13 42 21 15 18 28 18 35 0z m1244 -1 c0 0 -9
-31 -19 -69 -17 -67 -18 -68 -24 -35 -10 50 -14 73 -17 84 -5 20 1 24 30 22
16 -1 30 -2 30 -2z m-939 -31 c19 -19 41 -27 83 -31 l56 -6 -55 -28 c-30 -15
-68 -37 -84 -48 l-29 -21 -10 32 c-21 65 -24 99 -12 113 16 20 20 19 51 -11z
m613 -46 c-3 -4 -18 -17 -34 -28 l-30 -21 0 28 c0 26 3 29 34 29 19 0 33 -3
30 -8z m242 -22 c3 -14 3 -30 -1 -35 -8 -13 -245 -15 -245 -2 0 15 54 45 95
52 22 3 64 7 92 8 48 1 53 -1 59 -23z m-341 -39 c-4 -53 -16 -119 -23 -131 -3
-5 -6 -27 -8 -50 -4 -61 -6 -70 -17 -83 -5 -7 -5 -13 0 -13 5 0 9 -90 8 -207
l0 -208 -35 -3 c-58 -4 -60 2 -50 113 5 55 16 129 25 165 8 36 19 122 24 192
8 112 12 134 42 197 18 39 34 71 35 71 2 0 1 -20 -1 -43z m84 -40 l31 -13 -43
-20 -44 -20 10 33 c6 18 11 33 13 33 1 0 16 -6 33 -13z m-893 -56 c28 -26 63
-51 77 -55 14 -3 32 -12 39 -19 7 -7 24 -18 38 -25 21 -10 6 -12 -95 -8 -88 3
-129 9 -155 21 -65 33 -65 34 -13 87 26 26 50 48 53 48 3 0 28 -22 56 -49z
m1152 11 l-3 -37 -95 -1 c-52 -1 -117 -5 -145 -8 l-50 -8 25 21 c14 11 30 21
35 21 6 0 37 10 69 23 32 12 83 23 113 24 l54 3 -3 -38z m-636 -19 c-31 -49
-102 -157 -106 -160 -6 -7 -57 20 -54 29 3 7 169 157 175 158 2 0 -5 -12 -15
-27z m884 -73 c-44 -22 -87 -46 -95 -54 -13 -14 -17 -12 -33 15 -10 16 -18 31
-18 33 0 2 21 7 48 11 26 3 70 13 97 20 84 23 84 16 1 -25z m-534 12 c15 -6
13 -10 -12 -24 -30 -17 -30 -17 -30 7 0 25 11 29 42 17z m268 -12 c0 -5 7 -10
15 -10 20 0 19 -16 -3 -38 -25 -25 -236 -31 -267 -8 l-20 15 20 6 c11 3 38 15
60 25 44 21 195 28 195 10z m90 -40 c0 -5 -4 -10 -10 -10 -5 0 -10 5 -10 10 0
6 5 10 10 10 6 0 10 -4 10 -10z m-378 -83 l-27 -29 -3 33 c-4 37 13 52 39 36
17 -11 17 -13 -9 -40z m308 -16 c0 -22 -5 -43 -12 -47 -19 -12 -245 -15 -274
-4 l-27 11 22 23 c28 30 77 43 171 45 41 2 77 4 79 7 2 2 13 4 23 4 14 0 18
-8 18 -39z m-301 -80 c11 -7 10 -11 -7 -20 -28 -15 -32 -14 -32 9 0 21 16 26
39 11z m298 -55 c-7 -18 -85 -36 -154 -35 -112 1 -146 4 -150 14 -1 6 15 20
37 33 32 18 59 23 146 27 59 2 109 7 113 11 8 8 14 -33 8 -50z m-310 -96 c-25
-31 -45 -29 -42 3 1 12 3 27 4 34 1 8 8 8 30 0 l29 -11 -21 -26z m294 -33 c-5
-5 -50 -8 -103 -7 -51 2 -113 2 -138 1 l-45 -2 27 27 c24 25 36 28 139 36 62
5 115 11 118 14 4 3 7 -9 9 -26 2 -18 -1 -37 -7 -43z m-291 -56 c-12 -23 -30
-36 -30 -22 0 21 13 41 26 41 11 0 12 -4 4 -19z m285 1 c10 -7 14 -37 5 -45
-3 -3 -70 -8 -150 -11 l-145 -7 37 36 38 35 102 0 c57 0 108 -4 113 -8z m-457
-92 c19 0 43 -2 54 -6 16 -5 10 -10 -34 -31 -29 -13 -65 -36 -79 -49 -32 -30
-38 -23 -43 47 l-4 51 37 -7 c20 -4 51 -6 69 -5z"/>
</g>
</svg>
