<?xml version="1.0" standalone="no"?>
<!DOCTYPE svg PUBLIC "-//W3C//DTD SVG 20010904//EN"
 "http://www.w3.org/TR/2001/REC-SVG-20010904/DTD/svg10.dtd">
<svg version="1.0" xmlns="http://www.w3.org/2000/svg"
 width="223.000000pt" height="179.000000pt" viewBox="0 0 223.000000 179.000000"
 preserveAspectRatio="xMidYMid meet">
<metadata>
Created by potrace 1.16, written by Peter Selinger 2001-2019
</metadata>
<g transform="translate(0.000000,179.000000) scale(0.100000,-0.100000)"
fill="#000000" stroke="none">
<path d="M214 1685 c-15 -23 -39 -163 -29 -173 3 -3 16 0 30 6 14 7 39 12 54
12 36 0 192 -39 207 -51 7 -5 45 -19 85 -30 41 -11 78 -24 84 -28 16 -12 131
-48 225 -71 47 -11 101 -24 120 -30 19 -5 54 -14 77 -20 35 -9 47 -18 63 -51
12 -22 18 -44 15 -49 -3 -5 6 -20 20 -34 14 -14 25 -34 25 -45 0 -11 6 -24 14
-28 14 -9 46 -65 46 -82 0 -6 -20 -16 -45 -22 -29 -7 -45 -17 -45 -27 0 -12 9
-14 46 -8 l47 6 -38 -26 c-21 -14 -45 -32 -54 -41 -14 -15 -16 -13 -23 22 -5
24 -5 42 2 49 15 15 12 22 -16 41 -21 14 -28 15 -35 4 -6 -11 -17 -10 -57 3
-55 17 -74 11 -77 -24 l-2 -23 -143 3 c-79 1 -146 4 -148 7 -3 2 5 32 17 66
13 33 20 63 17 67 -3 3 -23 0 -43 -6 -20 -6 -39 -9 -42 -7 -2 3 1 5 7 5 7 0
12 13 12 30 0 23 -7 33 -30 45 -16 9 -30 20 -30 25 0 6 -11 20 -25 32 -14 12
-25 26 -25 32 0 14 50 47 113 76 33 16 47 28 45 39 -5 23 -49 16 -138 -24
l-75 -34 -58 61 c-33 34 -56 67 -53 75 3 7 -1 13 -10 13 -8 0 -19 11 -24 25
-9 25 -34 32 -57 17 -16 -10 -73 -94 -73 -109 0 -6 24 -19 53 -29 50 -16 167
-71 167 -78 0 -6 -144 -54 -183 -61 -21 -3 -40 -12 -43 -20 -3 -7 15 -35 40
-61 25 -26 46 -53 46 -60 0 -7 6 -15 13 -18 6 -3 2 -3 -10 -1 -30 8 -73 -4
-73 -20 0 -7 5 -15 11 -17 16 -5 37 -73 32 -101 -4 -20 0 -26 22 -31 34 -9 56
9 53 43 -2 19 3 29 20 36 12 5 22 13 22 17 0 4 17 18 38 31 50 32 134 69 126
55 -4 -5 -6 -35 -5 -66 0 -31 -6 -96 -14 -145 -9 -49 -15 -96 -14 -105 5 -58
-1 -72 -30 -72 -16 0 -31 -4 -33 -9 -3 -9 -45 -20 -228 -61 -156 -34 -172 -40
-166 -64 2 -12 8 -42 11 -67 12 -80 9 -80 167 7 78 44 168 90 198 103 30 12
61 25 68 28 10 4 12 -12 10 -73 l-3 -78 -60 -18 c-124 -38 -271 -69 -299 -64
-16 4 -35 1 -42 -5 -18 -15 -18 -49 -1 -49 10 0 12 -14 9 -54 -5 -67 10 -79
46 -38 15 16 52 44 82 62 60 36 247 120 267 120 9 0 12 -24 9 -95 -2 -53 -6
-99 -10 -102 -9 -9 -56 -10 -56 -1 0 4 -11 8 -25 8 -26 0 -27 -2 -28 -100 -1
-89 4 -121 17 -126 8 -3 38 11 66 30 29 20 62 36 75 36 12 0 28 6 34 14 6 7
46 21 88 30 43 10 92 22 108 27 17 5 85 7 150 3 66 -3 138 -6 159 -7 47 -2 60
18 17 28 -16 3 -32 13 -35 21 -3 8 -16 14 -29 14 -23 0 -24 1 -16 52 5 29 11
81 14 116 6 73 12 116 25 157 4 17 11 53 14 80 4 28 11 70 16 95 12 55 18 97
19 130 2 24 2 24 13 5 23 -40 48 -40 66 0 6 13 29 36 52 51 31 21 39 31 34 47
-3 11 -2 17 3 14 13 -8 83 -152 83 -171 0 -9 4 -16 10 -16 14 0 37 -52 32 -73
-2 -11 7 -28 23 -43 14 -13 24 -28 21 -32 -8 -13 8 -32 20 -24 17 11 64 121
54 127 -11 7 -50 -30 -50 -46 0 -5 -4 -7 -10 -4 -5 3 -10 14 -10 23 0 25 60
116 69 106 4 -5 15 -30 25 -55 23 -63 41 -87 56 -73 8 8 9 17 1 30 -36 67
-117 281 -109 289 4 4 138 38 238 59 41 9 107 25 145 36 39 11 104 26 146 35
48 10 83 23 94 35 10 11 26 20 36 20 10 0 21 5 24 10 8 13 -58 13 -145 0 -52
-7 -66 -6 -73 5 -5 10 -27 14 -75 14 -58 0 -249 21 -307 34 -11 3 -52 10 -92
17 l-72 12 -25 81 c-57 186 -66 240 -50 315 6 31 -7 45 -21 21 -4 -6 -25 -23
-47 -40 -29 -20 -48 -27 -64 -23 -15 4 -24 2 -24 -5 0 -6 -13 -32 -29 -57 -31
-51 -47 -46 -37 12 8 40 -9 46 -37 14 -9 -11 -28 -20 -42 -20 -17 0 -29 -8
-37 -25 -13 -28 -7 -44 57 -145 42 -67 43 -74 8 -67 -163 34 -347 90 -375 114
-25 22 -245 132 -307 153 -38 13 -68 32 -92 60 -20 22 -39 40 -43 40 -3 0 -13
-11 -22 -25z m131 -112 c41 -14 45 -18 26 -21 -13 -2 -45 2 -70 9 -25 8 -52
12 -60 10 -9 -2 -12 3 -7 14 3 9 6 26 6 38 0 20 1 19 28 -6 15 -15 50 -35 77
-44z m949 -3 c4 -33 20 -108 37 -166 16 -59 27 -109 25 -112 -7 -6 -41 80 -38
96 2 6 -2 12 -7 12 -12 0 -55 81 -77 144 -14 39 -14 40 13 63 16 12 31 22 34
23 4 0 9 -27 13 -60z m-103 -95 c-29 -54 -50 -80 -57 -72 -4 3 -9 21 -13 39
-7 34 11 80 47 121 16 18 17 17 31 -15 12 -30 11 -37 -8 -73z m-124 25 c0 -27
-2 -50 -4 -50 -4 0 -53 74 -53 82 0 3 10 9 23 11 12 2 25 5 28 6 4 0 6 -21 6
-49z m-602 26 c18 -13 18 -14 -8 -9 -15 3 -30 9 -33 14 -8 14 20 10 41 -5z
m798 -123 c54 -107 54 -109 7 -105 -22 2 -40 6 -40 8 0 3 7 21 15 41 8 20 13
38 11 41 -12 11 -38 -11 -52 -43 -17 -41 -30 -44 -45 -11 -10 21 -6 32 26 80
20 31 38 56 40 56 2 0 19 -30 38 -67z m-934 10 c12 -14 20 -28 18 -29 -2 -2
-22 4 -45 13 -33 13 -40 19 -31 30 17 20 35 16 58 -14z m770 -15 c6 -18 7 -28
2 -23 -10 12 -25 55 -18 55 3 0 10 -15 16 -32z m-674 -150 c-11 -6 -44 -33
-73 -60 l-53 -50 -21 28 c-12 15 -18 29 -13 31 6 2 42 17 80 33 70 29 119 40
80 18z m835 5 c0 -13 -34 -83 -41 -83 -12 0 -18 44 -7 57 7 9 7 13 -1 13 -6 0
-11 5 -11 10 0 6 14 10 30 10 17 0 30 -3 30 -7z m86 -45 c10 -23 19 -45 19
-48 1 -3 6 -15 13 -28 11 -19 9 -29 -14 -72 -22 -41 -32 -50 -54 -50 l-27 0
19 57 c10 32 23 62 28 67 15 15 12 46 -4 46 -14 0 -56 -86 -56 -117 -1 -11 -8
-4 -21 20 l-20 37 37 65 c19 36 41 65 48 65 7 0 22 -19 32 -42z m204 7 c52 -7
104 -16 115 -18 11 -3 58 -8 105 -12 47 -4 96 -13 110 -20 24 -13 23 -14 -35
-30 -33 -9 -80 -22 -105 -30 -68 -20 -249 -65 -265 -65 -12 0 -33 73 -23 83 1
2 -2 10 -9 18 -7 8 -16 34 -21 57 -9 40 -9 42 12 37 11 -3 64 -12 116 -20z
m-1070 5 c0 -5 5 -10 12 -10 7 0 24 -12 40 -27 l28 -26 -43 -20 c-43 -19 -178
-57 -205 -57 -16 0 52 78 107 123 34 27 61 35 61 17z m114 -105 c4 -11 -2 -15
-22 -15 -26 1 -26 1 -8 15 24 18 23 18 30 0z m-240 -85 c-43 -29 -61 -36 -71
-28 -20 16 -16 27 13 38 18 7 31 7 39 0 10 -8 16 -7 22 3 4 8 15 17 23 20 36
13 29 4 -26 -33z m291 13 c-3 -10 -20 -81 -36 -158 -35 -170 -34 -165 -58
-165 -19 0 -20 6 -16 93 2 50 8 107 14 125 7 24 7 39 -1 51 -6 10 -8 30 -4 44
6 25 11 27 57 27 45 0 50 -2 44 -17z m772 0 c2 -6 -4 -13 -13 -17 -21 -8 -26
-3 -18 18 7 18 25 17 31 -1z m51 -120 l24 -71 -21 -23 c-11 -13 -27 -33 -36
-44 -15 -20 -15 -20 -30 -1 -8 11 -15 26 -15 34 0 18 42 116 53 123 5 4 6 12
2 19 -9 15 -49 -21 -65 -61 l-13 -29 -23 26 c-23 24 -24 26 -8 53 15 26 71 52
99 47 6 -1 21 -34 33 -73z m-378 21 c0 -8 -4 -22 -9 -32 -13 -24 -30 -114 -38
-202 -9 -107 -21 -61 -22 86 -1 115 0 122 20 127 25 7 16 27 -12 27 -10 0 -19
3 -19 8 0 4 18 6 40 4 26 -3 40 -9 40 -18z m-162 -14 c48 0 52 -2 52 -24 0
-18 -7 -25 -27 -29 -30 -6 -129 1 -153 10 -8 4 -19 5 -25 3 -5 -2 -38 -6 -73
-9 -50 -5 -61 -4 -57 7 3 8 5 21 5 30 0 15 13 17 112 15 62 -2 137 -3 166 -3z
m52 -118 l0 -35 -72 8 c-40 4 -119 7 -176 6 -101 -2 -103 -1 -92 18 10 19 20
24 75 34 11 2 75 4 143 4 l122 0 0 -35z m-295 -62 c-26 -11 -68 -12 -61 -2 2
4 22 8 43 9 29 0 33 -1 18 -7z m300 -53 c8 -72 7 -282 -1 -348 l-6 -45 -172
-1 c-170 -2 -232 -12 -223 -36 2 -6 11 -10 18 -8 8 2 88 7 180 11 91 3 170 9
176 13 13 8 15 -43 2 -59 -13 -17 -133 -16 -234 1 -49 8 -110 15 -135 15 -44
0 -45 1 -46 32 -2 56 -4 56 211 63 154 5 185 10 185 25 0 6 -82 8 -195 6 -107
-2 -195 0 -195 5 0 5 2 9 4 9 2 0 28 5 57 11 30 5 112 12 183 15 71 2 134 8
140 12 32 20 -222 28 -312 9 l-63 -14 3 26 c4 36 45 47 197 55 90 5 127 4 138
-5 9 -8 17 -9 21 -3 4 6 15 13 25 17 42 16 13 27 -70 27 -81 1 -86 2 -63 15
22 12 94 27 140 29 8 1 16 9 18 18 3 14 -8 17 -75 20 -43 2 -127 0 -188 -3
-60 -3 -111 -5 -113 -4 -1 1 1 16 4 34 6 27 10 32 28 27 30 -8 336 6 336 15 0
14 -65 22 -168 21 -104 -2 -118 5 -62 28 16 7 30 16 30 21 0 5 49 9 109 8
l109 -1 7 -61z m-545 -42 c0 -2 -28 -17 -62 -32 -35 -15 -109 -52 -165 -80
-56 -29 -108 -53 -116 -53 -8 0 -17 14 -21 32 -7 36 11 58 48 58 15 1 262 63
314 79 1 1 2 -1 2 -4z m120 -2 c-1 -5 -7 -35 -14 -68 l-14 -60 -1 52 c-1 55 6
83 20 83 5 0 9 -3 9 -7z m158 -82 c9 -5 -12 -16 -60 -30 -40 -13 -78 -25 -85
-27 -8 -4 -9 3 -4 23 7 26 12 28 67 34 32 3 61 6 64 7 3 1 11 -2 18 -7z m49 3
c-3 -3 -12 -4 -19 -1 -8 3 -5 6 6 6 11 1 17 -2 13 -5z m-397 -154 c-8 -5 -19
-10 -25 -10 -5 0 -3 5 5 10 8 5 20 10 25 10 6 0 3 -5 -5 -10z m-136 -60 c-54
-27 -100 -50 -102 -50 -2 0 -2 12 0 27 3 24 9 28 63 39 33 7 71 17 85 22 69
29 42 6 -46 -38z m426 -169 c8 -1 -30 -17 -84 -36 -54 -19 -105 -40 -112 -46
-7 -6 -18 -8 -23 -5 -12 8 -10 66 3 66 5 0 3 6 -3 14 -9 11 7 13 96 11 60 -1
115 -3 123 -4z"/>
</g>
</svg>
