<?xml version="1.0" standalone="no"?>
<!DOCTYPE svg PUBLIC "-//W3C//DTD SVG 20010904//EN"
 "http://www.w3.org/TR/2001/REC-SVG-20010904/DTD/svg10.dtd">
<svg version="1.0" xmlns="http://www.w3.org/2000/svg"
 width="296.000000pt" height="174.000000pt" viewBox="0 0 296.000000 174.000000"
 preserveAspectRatio="xMidYMid meet">
<metadata>
Created by potrace 1.16, written by Peter Selinger 2001-2019
</metadata>
<g transform="translate(0.000000,174.000000) scale(0.100000,-0.100000)"
fill="#000000" stroke="none">
<path d="M1320 1611 c0 -5 -33 -26 -72 -46 -96 -49 -103 -56 -88 -86 7 -13 26
-39 42 -58 17 -19 38 -54 49 -77 10 -25 25 -44 34 -44 8 0 15 -6 15 -14 0 -16
-196 -206 -213 -206 -7 0 -40 -25 -74 -55 -33 -30 -65 -55 -70 -55 -5 0 -27
-13 -49 -30 -21 -16 -44 -30 -50 -30 -5 0 -36 -16 -68 -35 l-58 -35 -147 0
c-156 1 -277 17 -331 45 l-33 17 5 76 c5 71 7 77 39 104 19 15 58 40 87 54 49
25 58 26 140 20 48 -4 105 -12 127 -17 53 -14 224 -99 285 -142 27 -19 56 -22
65 -7 8 13 -134 150 -167 162 -23 8 -28 17 -33 56 -4 26 -8 52 -9 57 -2 6 1
18 6 28 14 27 -17 33 -59 11 -19 -11 -56 -38 -81 -61 -26 -24 -50 -43 -53 -43
-14 0 -18 48 -10 101 7 42 6 58 -5 70 -19 21 -18 26 7 32 22 6 21 34 -1 29
-11 -3 -11 0 0 12 10 13 10 16 -3 16 -19 0 -47 -26 -47 -44 0 -6 -18 -30 -40
-51 -22 -21 -40 -47 -40 -56 0 -10 20 -37 44 -62 l45 -44 -47 8 c-26 5 -72 10
-102 13 -30 3 -78 8 -106 12 -58 7 -68 -3 -55 -52 5 -18 -1 -61 -16 -124 -13
-52 -21 -104 -19 -114 3 -10 -3 -35 -13 -55 -10 -20 -22 -60 -26 -90 -9 -67 3
-77 57 -50 42 21 44 39 3 31 -34 -6 -32 13 5 48 27 25 33 27 63 18 17 -6 38
-13 46 -15 10 -3 11 -6 1 -18 -10 -12 -9 -16 5 -21 9 -4 21 -2 28 5 6 6 18 11
26 11 22 0 -55 -62 -93 -76 -39 -13 -46 -41 -14 -53 28 -11 78 -56 78 -71 0
-5 11 -10 25 -10 24 0 25 1 19 59 -12 111 14 151 98 151 l53 0 -40 -33 c-81
-66 -101 -88 -85 -94 8 -3 36 -26 62 -51 32 -30 53 -42 64 -38 15 6 15 8 0 31
-25 37 -21 118 7 149 24 28 77 46 77 26 0 -17 79 -125 92 -125 6 0 14 7 18 15
58 126 89 168 158 213 43 28 53 32 50 20 -4 -13 51 -93 63 -93 10 0 156 -142
187 -182 12 -15 9 -21 -21 -51 -18 -19 -47 -43 -63 -53 -50 -32 -114 -88 -114
-100 0 -6 17 -18 38 -27 20 -10 64 -33 97 -53 33 -20 67 -33 78 -30 19 5 64
-20 128 -71 34 -27 92 -53 122 -53 14 0 7 24 -15 48 -20 21 -23 33 -22 110 2
136 24 166 164 222 14 5 32 14 40 19 35 20 151 71 163 71 6 0 62 21 122 46
100 41 135 53 245 85 19 6 83 21 142 34 59 13 112 26 117 29 17 11 59 -12 66
-36 12 -39 76 -98 106 -98 38 0 46 17 15 31 -35 16 -38 30 -21 102 8 34 16 74
19 89 9 51 36 84 88 104 52 20 86 48 70 58 -12 7 -127 -44 -164 -73 -35 -28
-102 -51 -118 -41 -7 5 -18 6 -24 4 -12 -4 -154 33 -340 90 -66 20 -126 38
-135 39 -9 2 -43 11 -76 21 -59 18 -79 25 -217 72 -37 12 -77 29 -90 38 -12 9
-30 16 -40 16 -22 0 -51 41 -38 54 16 16 12 26 -15 36 -21 8 -25 16 -25 54 0
53 20 103 54 135 27 25 33 41 16 41 -5 0 -47 -29 -94 -65 -79 -61 -128 -89
-138 -79 -9 9 22 109 38 121 9 6 13 16 9 22 -8 13 -25 14 -25 2z m-60 -116
c-13 -40 -24 -44 -41 -14 -10 19 -7 25 17 44 34 27 40 19 24 -30z m160 -30
c-4 -20 -6 -44 -3 -55 3 -11 1 -20 -3 -20 -14 1 -54 37 -54 48 0 8 57 61 66
62 1 0 -2 -16 -6 -35z m-20 -138 c0 -5 -11 -20 -24 -32 -18 -16 -25 -37 -31
-83 -4 -34 -11 -59 -16 -56 -5 3 -12 -2 -16 -11 -3 -10 0 -20 7 -25 16 -10 9
-45 -10 -45 -11 0 -14 10 -11 43 2 30 -3 49 -14 62 -16 17 -15 20 14 41 58 43
95 138 43 110 -15 -8 -22 -4 -35 19 -9 15 -17 40 -17 55 0 26 1 26 55 -21 30
-26 55 -52 55 -57z m-878 -33 c-6 -31 -16 -30 -37 2 -16 24 -16 27 1 45 18 20
18 20 29 -2 7 -11 10 -32 7 -45z m986 -34 c42 -10 53 -20 23 -20 -39 0 -111
22 -105 32 4 5 16 7 28 3 11 -3 36 -10 54 -15z m-799 -45 c0 -11 -3 -27 -9
-35 -8 -12 -14 -12 -47 4 l-38 18 40 35 c35 30 40 32 47 16 3 -10 7 -27 7 -38z
m731 -24 c0 -10 -3 -32 -6 -49 -6 -31 -7 -31 -35 -16 -25 12 -28 19 -23 42 10
39 12 42 40 42 17 0 24 -6 24 -19z m181 -46 c-13 -53 -20 -65 -36 -65 -36 0
-44 14 -42 64 4 53 13 62 61 64 l33 1 -16 -64z m89 -9 c0 -62 -7 -74 -42 -74
-32 1 -33 8 -17 91 11 54 12 55 35 45 21 -10 24 -18 24 -62z m-199 39 c4 -67
2 -72 -21 -78 -29 -7 -38 12 -28 61 7 32 14 42 29 42 13 0 19 -7 20 -25z
m-1213 5 c13 -1 12 -5 -8 -21 -23 -20 -25 -20 -31 -2 -12 29 -10 36 7 29 9 -3
23 -6 32 -6z m1534 -31 c17 -9 100 -33 173 -50 22 -5 59 -17 83 -27 42 -16 43
-18 37 -52 -8 -43 -9 -43 -34 -35 -16 5 -19 12 -14 42 5 28 3 35 -8 31 -8 -2
-15 -14 -17 -26 -3 -17 -10 -22 -31 -22 -26 0 -28 3 -27 36 1 22 -4 39 -11 41
-9 3 -13 -8 -13 -36 0 -39 -2 -41 -30 -41 -31 0 -31 0 -15 83 2 11 -3 17 -15
17 -15 0 -19 -9 -22 -42 -3 -40 -5 -43 -32 -41 -37 3 -37 3 -24 45 6 20 8 44
4 53 -10 27 -36 -1 -36 -39 0 -46 -12 -59 -42 -47 -24 9 -26 14 -22 58 7 71 9
73 46 66 18 -3 41 -10 50 -14z m-583 -56 l-4 -68 37 3 36 3 -5 -63 c-3 -35
-10 -71 -14 -80 -5 -9 -9 -25 -9 -36 0 -13 -7 -18 -21 -18 -29 1 -36 -21 -10
-29 28 -9 28 -51 0 -60 -11 -4 -21 -5 -22 -3 -1 1 -8 13 -14 25 -7 13 -13 39
-13 58 0 42 -13 45 -29 7 -9 -21 -8 -38 3 -75 8 -26 11 -47 7 -47 -10 0 -67
61 -80 86 -11 24 -8 216 5 249 7 19 54 70 54 59 0 -3 17 8 37 25 21 17 39 31
41 31 2 0 2 -30 1 -67z m240 -42 c11 -7 12 -28 5 -111 -8 -91 -11 -104 -30
-110 -43 -16 -49 0 -36 103 16 129 23 142 61 118z m721 -41 c0 -24 -15 -33
-44 -26 -19 5 -21 11 -18 40 l4 35 29 -15 c17 -8 29 -23 29 -34z m-794 13 c-3
-16 -8 -46 -11 -68 -13 -111 -15 -115 -47 -115 -30 0 -30 1 -25 38 3 20 9 62
13 92 6 57 23 80 57 80 15 0 18 -5 13 -27z m170 21 c19 -5 20 -10 13 -52 -4
-26 -8 -68 -8 -94 -1 -51 -4 -55 -48 -63 -26 -4 -30 -2 -27 13 2 9 5 58 8 107
3 50 5 91 5 93 1 4 35 2 57 -4z m106 -99 c-2 -44 -6 -83 -10 -87 -4 -4 -20
-10 -36 -14 l-29 -7 5 84 c2 47 8 90 12 97 4 7 20 12 34 10 l27 -3 -3 -80z
m590 61 c17 -25 3 -38 -30 -29 -15 4 -22 13 -22 30 0 21 3 23 23 17 12 -4 25
-12 29 -18z m-1239 -63 c-1 -38 -2 -70 -2 -72 -2 -7 -42 33 -52 51 -7 12 -1
25 23 52 17 20 32 36 32 36 1 0 0 -30 -1 -67z m740 -3 c-6 -85 -8 -90 -38 -90
-24 0 -26 3 -24 48 3 96 8 111 39 109 27 -2 27 -2 23 -67z m103 50 c4 0 -19
-116 -24 -122 -4 -4 -19 -9 -33 -13 l-26 -6 1 68 c1 81 9 94 51 82 16 -5 30
-9 31 -9z m498 -9 c2 -3 -13 -7 -35 -7 -24 -1 -39 3 -39 10 0 12 67 10 74 -3z
m166 12 c0 -2 -7 -36 -16 -74 l-16 -71 -19 30 c-10 17 -30 38 -44 48 -34 22
-32 29 15 43 21 6 41 15 44 20 5 8 36 11 36 4z m-604 -11 c12 -7 17 -42 15
-89 -1 -19 -7 -23 -32 -23 l-31 0 5 58 c4 31 6 58 7 60 0 5 26 1 36 -6z m94
-41 c0 -38 -14 -61 -37 -61 -9 0 -13 15 -13 48 0 55 4 62 31 55 14 -4 19 -14
19 -42z m65 8 c13 -19 -4 -59 -25 -59 -16 0 -20 7 -20 35 0 28 4 35 19 35 11
0 23 -5 26 -11z m89 -27 c-13 -21 -64 -29 -64 -10 0 20 13 35 35 40 28 6 42
-8 29 -30z m76 6 c0 -13 -8 -18 -25 -18 -18 0 -25 5 -25 20 0 15 6 19 25 18
17 -2 25 -8 25 -20z m74 -3 c4 -11 -1 -15 -19 -15 -16 0 -25 6 -25 15 0 8 9
15 19 15 10 0 21 -7 25 -15z m-164 -61 c-19 -8 -69 -24 -110 -35 -41 -11 -99
-29 -128 -40 -29 -10 -54 -19 -56 -19 -2 0 -1 15 3 33 5 25 12 33 34 35 19 2
27 -1 27 -12 0 -9 7 -16 15 -16 9 0 15 9 15 21 0 20 4 21 40 15 25 -4 40 -2
40 4 0 5 15 10 33 11 17 0 41 4 52 9 11 5 31 9 45 9 22 0 21 -2 -10 -15z
m-1442 -73 c-31 -46 -34 -48 -50 -34 -27 24 -21 36 25 60 59 30 61 29 25 -26z
m1122 0 c0 -39 -13 -50 -58 -51 -23 0 -11 74 13 82 40 12 45 9 45 -31z m-95
-13 c-7 -43 -26 -68 -53 -68 -11 0 -13 8 -8 31 3 17 6 42 6 55 0 20 5 24 31
24 31 0 31 0 24 -42z m-90 -20 c-4 -29 -8 -54 -9 -55 -2 -2 -17 -6 -34 -9
l-32 -7 5 39 c11 81 13 84 46 84 l31 0 -7 -52z m-295 33 c0 -10 -24 -21 -46
-21 -8 0 -14 7 -14 15 0 10 10 15 30 15 17 0 30 -4 30 -9z m200 -41 c0 -45 -3
-52 -26 -60 -37 -15 -42 -13 -49 20 -8 35 3 57 36 75 37 20 39 18 39 -35z
m-108 -30 c-4 -41 -8 -46 -44 -55 -26 -7 -27 -6 -22 32 9 60 12 65 41 61 25
-3 28 -6 25 -38z m-1139 10 c-5 -19 -23 -29 -23 -12 0 7 20 32 26 32 1 0 0 -9
-3 -20z m1044 -26 c-7 -43 -23 -64 -48 -64 -22 0 -24 18 -7 57 14 31 26 43 47
43 10 0 12 -9 8 -36z m-903 11 c-6 -16 -24 -21 -24 -7 0 11 11 22 21 22 5 0 6
-7 3 -15z m798 -46 c-5 -34 -9 -35 -38 -8 l-26 24 24 6 c34 10 43 5 40 -22z
m288 -31 c0 -7 -30 -27 -68 -45 -37 -18 -91 -46 -119 -64 l-53 -31 0 56 c0 52
2 56 23 56 13 0 28 -5 34 -11 13 -13 33 -4 33 17 0 8 5 15 10 15 24 3 36 2 54
-6 13 -6 21 -3 28 8 10 20 58 23 58 5z m-310 -71 c0 -21 16 -80 30 -107 5 -11
-5 -29 -33 -60 l-41 -43 -28 34 c-15 18 -28 41 -28 50 0 27 32 123 47 140 19
22 53 13 53 -14z m-132 -83 c-3 -44 -8 -47 -42 -25 l-27 18 33 21 c18 12 34
22 36 22 1 0 2 -16 0 -36z m257 -21 c-4 -10 -10 -53 -13 -96 -2 -44 -7 -75
-11 -70 -3 5 -23 22 -43 37 -43 32 -47 50 -18 68 11 7 20 18 20 25 0 12 48 52
64 53 4 0 5 -8 1 -17z"/>
<path d="M384 1441 c-22 -16 -54 -45 -73 -64 l-34 -36 38 -48 c21 -26 40 -49
41 -51 1 -2 13 -5 27 -8 32 -5 44 12 24 34 -9 10 -18 46 -22 83 l-6 66 30 13
c17 7 31 16 31 21 0 20 -21 16 -56 -10z m-34 -91 c0 -5 -2 -10 -4 -10 -3 0 -8
5 -11 10 -3 6 -1 10 4 10 6 0 11 -4 11 -10z"/>
<path d="M420 1114 c-30 -20 -63 -43 -73 -52 -9 -8 -27 -20 -39 -26 -31 -16
-33 -34 -5 -41 14 -4 35 -18 48 -31 12 -13 32 -24 44 -24 19 0 20 4 15 61 l-6
61 43 35 c40 33 53 53 35 53 -4 0 -32 -16 -62 -36z m-42 -103 c3 -8 -1 -12 -9
-9 -7 2 -15 10 -17 17 -3 8 1 12 9 9 7 -2 15 -10 17 -17z"/>
<path d="M570 1109 c-14 -11 -47 -39 -73 -62 -27 -23 -55 -46 -63 -50 -18 -10
-18 -27 1 -27 7 0 18 -6 22 -14 4 -7 31 -25 60 -40 78 -39 104 -33 63 14 -11
13 -20 28 -19 34 2 36 26 127 37 138 13 13 16 28 5 28 -5 -1 -19 -10 -33 -21z
m-32 -106 c-10 -42 -10 -42 -35 -26 l-24 16 33 27 c18 16 34 27 35 26 1 -1 -3
-20 -9 -43z"/>
</g>
</svg>
