<?xml version="1.0" standalone="no"?>
<!DOCTYPE svg PUBLIC "-//W3C//DTD SVG 20010904//EN"
 "http://www.w3.org/TR/2001/REC-SVG-20010904/DTD/svg10.dtd">
<svg version="1.0" xmlns="http://www.w3.org/2000/svg"
 width="88.000000pt" height="114.000000pt" viewBox="0 0 88.000000 114.000000"
 preserveAspectRatio="xMidYMid meet">
<metadata>
Created by potrace 1.16, written by Peter Selinger 2001-2019
</metadata>
<g transform="translate(0.000000,114.000000) scale(0.100000,-0.100000)"
fill="#000000" stroke="none">
<path d="M506 1018 c-16 -12 -65 -40 -109 -63 -44 -22 -82 -45 -84 -51 -2 -7
9 -16 24 -22 15 -5 42 -26 58 -46 17 -21 40 -47 53 -58 12 -12 22 -26 22 -30
0 -17 74 -98 112 -123 21 -14 38 -31 38 -38 0 -12 -343 -367 -370 -383 -8 -5
-23 -24 -33 -41 l-18 -33 23 0 c14 0 32 13 47 33 27 36 94 87 115 87 8 0 16 3
18 8 2 4 37 30 78 57 41 28 83 58 94 67 11 10 24 18 29 18 5 0 21 12 36 26 28
26 64 49 94 60 28 10 20 28 -36 86 -53 55 -107 149 -105 184 0 10 -9 55 -21
99 -12 45 -20 101 -19 129 2 27 -1 50 -7 52 -5 2 -23 -6 -39 -18z m-2 -75 c2
-10 8 -34 12 -53 4 -19 8 -37 9 -40 1 -3 5 -25 9 -50 5 -25 17 -62 28 -83 11
-22 18 -41 16 -43 -6 -5 -74 78 -99 120 -12 20 -24 36 -28 36 -4 0 -22 18 -40
40 l-31 39 47 25 c58 30 70 31 77 9z m177 -410 c16 -10 29 -20 28 -23 -1 -12
-318 -230 -334 -230 -7 0 136 152 210 222 28 26 54 48 58 48 5 0 22 -8 38 -17z"/>
</g>
</svg>
