<?xml version="1.0" standalone="no"?>
<!DOCTYPE svg PUBLIC "-//W3C//DTD SVG 20010904//EN"
 "http://www.w3.org/TR/2001/REC-SVG-20010904/DTD/svg10.dtd">
<svg version="1.0" xmlns="http://www.w3.org/2000/svg"
 width="97.000000pt" height="126.000000pt" viewBox="0 0 97.000000 126.000000"
 preserveAspectRatio="xMidYMid meet">
<metadata>
Created by potrace 1.16, written by Peter Selinger 2001-2019
</metadata>
<g transform="translate(0.000000,126.000000) scale(0.100000,-0.100000)"
fill="#000000" stroke="none">
<path d="M476 1186 c-27 -19 -69 -40 -95 -47 -25 -6 -54 -19 -64 -28 -18 -15
-18 -16 0 -22 17 -7 17 -8 1 -8 -22 -1 -25 -41 -3 -41 9 0 20 -10 25 -22 5
-13 9 -19 9 -13 1 5 8 -1 17 -13 8 -12 20 -22 26 -22 12 0 87 -79 88 -92 0
-12 -96 -98 -153 -137 -64 -44 -119 -93 -112 -99 3 -3 0 -11 -5 -17 -8 -9 -3
-14 17 -18 16 -3 40 -16 54 -29 80 -70 108 -99 135 -134 16 -21 33 -42 38 -45
9 -7 -155 -142 -211 -175 -32 -18 -46 -54 -21 -54 6 0 39 13 72 29 52 24 84
38 106 46 3 1 21 9 40 17 150 68 223 98 235 98 24 0 27 19 6 46 -27 34 -44 90
-37 120 10 39 -11 29 -90 -42 l-74 -66 -21 36 c-11 19 -20 37 -20 40 0 3 -5
20 -11 38 -21 69 -31 157 -20 174 8 12 301 144 320 144 8 0 29 7 48 16 41 19
47 48 9 38 -30 -7 -55 10 -56 40 -1 30 -33 80 -54 84 -11 3 -38 -16 -71 -49
-71 -70 -80 -62 -77 74 1 56 3 117 6 135 2 17 1 32 -3 32 -3 0 -28 -15 -54
-34z m2 -87 c-5 -46 2 -97 19 -154 5 -16 0 -14 -31 10 -106 86 -126 108 -115
121 6 8 17 14 24 14 8 0 15 3 17 8 3 6 78 51 87 52 2 0 1 -23 -1 -51z m202
-190 c0 -10 8 -22 17 -28 14 -7 1 -17 -67 -49 -81 -37 -106 -48 -225 -93 l-50
-19 30 22 c17 13 49 40 73 62 24 22 53 41 65 42 12 1 25 3 29 3 4 1 5 7 2 14
-2 7 18 32 48 56 48 39 53 41 65 25 7 -10 13 -26 13 -35z m-293 -369 c-2 -11
-9 -9 -27 10 -14 14 -44 41 -68 59 -26 20 -40 37 -34 43 5 5 31 17 58 27 l49
19 13 -71 c6 -40 11 -79 9 -87z m213 -79 c0 -4 11 -24 24 -43 l24 -35 -67 -31
c-36 -18 -118 -54 -181 -82 -98 -42 -110 -46 -80 -23 19 16 42 35 50 43 9 8
38 33 65 55 28 22 69 59 92 82 39 39 73 56 73 34z"/>
</g>
</svg>
