<?xml version="1.0" standalone="no"?>
<!DOCTYPE svg PUBLIC "-//W3C//DTD SVG 20010904//EN"
 "http://www.w3.org/TR/2001/REC-SVG-20010904/DTD/svg10.dtd">
<svg version="1.0" xmlns="http://www.w3.org/2000/svg"
 width="242.000000pt" height="166.000000pt" viewBox="0 0 242.000000 166.000000"
 preserveAspectRatio="xMidYMid meet">
<metadata>
Created by potrace 1.16, written by Peter Selinger 2001-2019
</metadata>
<g transform="translate(0.000000,166.000000) scale(0.100000,-0.100000)"
fill="#000000" stroke="none">
<path d="M873 1533 c-21 -8 -15 -40 14 -86 15 -23 33 -53 39 -67 6 -14 28 -46
48 -73 20 -26 36 -49 36 -52 0 -6 -293 2 -400 11 -41 4 -81 11 -88 17 -16 12
-35 53 -65 137 -21 60 -25 65 -53 65 -22 0 -30 -5 -32 -22 -3 -23 37 -120 69
-164 13 -19 17 -36 13 -58 -7 -31 -1 -35 44 -34 24 1 11 -14 -74 -92 -80 -73
-97 -102 -66 -113 6 -2 16 6 20 17 4 12 51 58 103 104 l96 83 214 2 214 3
-103 -100 c-56 -55 -102 -104 -102 -110 0 -35 66 13 178 131 39 40 76 69 93
73 16 4 114 7 217 8 l189 2 -60 -67 c-33 -37 -75 -79 -94 -94 -23 -18 -31 -30
-25 -36 17 -17 74 25 137 100 82 95 106 109 203 117 45 4 82 12 82 18 0 6 3 8
6 5 3 -4 -11 -31 -31 -62 -30 -45 -38 -67 -42 -119 -6 -70 2 -102 49 -212 17
-38 37 -84 44 -100 21 -49 28 -129 14 -170 -13 -39 -22 -37 -44 7 -11 20 -18
23 -65 20 -46 -4 -55 -1 -69 20 -23 33 -50 85 -63 126 -6 20 -30 55 -51 78
-33 36 -43 42 -59 33 -24 -13 -24 -27 1 -54 17 -18 123 -214 117 -216 -1 0
-95 -3 -209 -6 -197 -5 -208 -4 -208 14 0 10 -20 50 -45 88 -24 39 -52 86 -62
105 -28 55 -54 65 -73 29 -9 -16 -8 -24 4 -38 9 -10 16 -21 16 -25 0 -5 11
-22 25 -40 63 -77 94 -126 84 -132 -14 -8 -191 -23 -202 -17 -5 3 -68 8 -140
11 l-132 7 -37 70 c-20 39 -47 90 -60 114 -27 51 -61 72 -83 50 -13 -12 -12
-18 3 -40 9 -15 41 -62 70 -105 l52 -79 -42 -5 c-82 -10 -93 -42 -22 -63 l46
-13 -70 -68 c-39 -37 -80 -74 -91 -83 -12 -8 -21 -21 -21 -29 0 -32 37 -9 130
81 54 52 102 95 107 96 4 1 121 2 258 4 l250 3 -89 -83 c-76 -72 -97 -105 -67
-105 4 0 51 42 105 94 114 110 86 102 373 110 l171 6 -81 -78 c-121 -114 -152
-151 -139 -164 8 -8 43 23 126 108 64 65 116 121 116 125 0 11 38 21 50 14 5
-3 10 -12 10 -19 0 -9 13 -13 40 -11 22 1 40 0 40 -2 0 -2 -21 -45 -47 -96
-35 -67 -66 -111 -115 -160 -38 -37 -68 -72 -68 -77 0 -6 11 -10 25 -10 16 0
43 19 83 58 62 60 142 164 142 182 0 6 11 31 25 55 14 24 34 73 45 110 25 88
14 160 -46 305 -30 75 -54 158 -54 192 0 56 90 208 177 300 34 35 50 59 43 63
-15 9 -52 -17 -119 -84 -50 -51 -60 -58 -88 -54 -25 4 -36 0 -53 -20 -23 -26
-100 -45 -137 -33 -10 3 -33 32 -52 63 -89 152 -135 214 -155 211 -41 -6 -29
-42 58 -164 l84 -119 -202 -3 -201 -3 -20 26 c-11 14 -48 78 -81 143 -58 111
-72 127 -101 115z"/>
<path d="M2073 1336 c-27 -30 -67 -91 -91 -136 -51 -100 -54 -139 -15 -283 23
-85 28 -122 28 -227 l0 -125 -47 -93 c-54 -105 -84 -147 -147 -207 -44 -42
-48 -65 -11 -65 20 0 86 61 131 120 127 170 181 407 131 568 -32 102 -52 185
-52 219 0 41 49 135 110 211 27 34 50 64 50 67 0 3 -9 5 -19 5 -11 0 -41 -24
-68 -54z"/>
</g>
</svg>
