<?xml version="1.0" standalone="no"?>
<!DOCTYPE svg PUBLIC "-//W3C//DTD SVG 20010904//EN"
 "http://www.w3.org/TR/2001/REC-SVG-20010904/DTD/svg10.dtd">
<svg version="1.0" xmlns="http://www.w3.org/2000/svg"
 width="270.000000pt" height="230.000000pt" viewBox="0 0 270.000000 230.000000"
 preserveAspectRatio="xMidYMid meet">
<metadata>
Created by potrace 1.16, written by Peter Selinger 2001-2019
</metadata>
<g transform="translate(0.000000,230.000000) scale(0.100000,-0.100000)"
fill="#000000" stroke="none">
<path d="M197 2213 c-9 -9 18 -49 66 -98 75 -77 87 -90 87 -97 0 -3 -35 -14
-77 -23 -99 -22 -123 -31 -123 -49 0 -24 22 -24 125 0 l100 23 33 -36 c18 -20
37 -53 42 -72 5 -20 31 -58 56 -84 37 -38 49 -45 60 -36 20 16 18 20 -21 66
-19 23 -35 50 -35 60 0 11 -14 38 -31 61 -33 45 -32 57 3 65 13 3 65 17 117
30 l93 25 52 -53 c63 -66 118 -131 150 -177 l24 -35 -128 -5 c-98 -4 -137 -10
-173 -26 -35 -16 -45 -25 -41 -37 5 -11 14 -15 28 -11 52 15 207 27 305 23 93
-3 115 -8 182 -37 121 -53 119 -50 73 -115 -53 -74 -77 -123 -70 -140 7 -18
46 -20 47 -2 1 6 2 19 3 27 0 8 21 43 45 78 45 63 64 72 85 40 12 -19 -4 -53
-56 -119 -15 -20 -28 -44 -28 -53 0 -22 39 -21 47 2 13 33 66 117 85 134 18
16 22 16 49 3 16 -9 29 -19 29 -22 0 -4 -19 -38 -42 -77 -24 -39 -44 -84 -45
-101 -1 -18 12 -55 33 -93 37 -69 37 -70 -19 -107 -16 -10 -31 -14 -36 -9 -4
5 -25 31 -46 57 -26 33 -41 45 -48 38 -12 -12 8 -58 45 -104 l22 -27 -22 -23
-23 -22 -50 53 c-28 28 -57 52 -65 52 -28 0 -14 -45 28 -87 41 -42 42 -43 22
-60 -26 -24 -119 -61 -174 -68 -24 -4 -59 -13 -77 -20 -18 -8 -53 -17 -78 -21
-60 -9 -183 -48 -198 -63 -6 -6 -12 -28 -13 -49 0 -20 -22 -116 -47 -212 l-45
-174 -54 -11 c-90 -18 -178 -75 -115 -75 13 0 46 7 73 15 78 23 80 22 79 -38
0 -39 4 -52 15 -52 10 0 18 18 25 54 11 60 38 85 105 97 19 3 81 21 138 40 65
22 111 32 127 28 20 -5 26 -1 34 19 5 14 14 28 19 31 6 3 24 39 40 79 26 60
85 191 135 297 14 29 48 65 62 65 6 0 25 -15 43 -34 17 -18 38 -31 45 -28 22
7 19 36 -7 58 -13 12 -30 35 -37 51 -11 26 -10 32 10 51 l22 22 25 -30 c76
-90 72 -87 94 -75 22 12 28 40 8 40 -7 0 -29 18 -49 40 l-37 40 41 35 40 35
41 -63 c32 -48 47 -63 69 -65 37 -5 34 13 -10 57 -21 20 -45 49 -53 65 -14 27
-13 29 15 52 32 26 45 21 64 -24 17 -38 59 -68 79 -55 26 16 25 32 -1 42 -13
5 -34 22 -46 37 -19 24 -20 29 -6 36 8 5 15 19 15 32 0 14 10 28 25 36 22 12
27 11 40 -6 18 -24 18 -33 0 -64 -8 -14 -14 -31 -15 -37 0 -24 30 -13 45 16
11 22 20 28 35 24 22 -6 28 15 9 34 -8 8 -6 20 6 44 10 19 19 35 20 37 1 2 14
0 29 -4 26 -6 35 -31 17 -49 -15 -17 -43 -115 -37 -130 8 -21 35 -19 42 3 6
19 46 125 49 130 2 2 65 -28 65 -32 0 -1 -18 -27 -40 -56 -43 -57 -50 -84 -24
-94 20 -8 34 1 34 21 0 16 59 113 69 113 3 0 11 -4 18 -8 9 -6 6 -20 -12 -57
-14 -26 -25 -59 -25 -71 0 -13 -4 -26 -10 -29 -18 -11 -10 -26 12 -23 17 2 26
16 39 62 24 81 37 93 77 68 l31 -18 -33 -55 c-19 -30 -36 -63 -38 -73 -5 -32
21 -29 39 4 10 18 30 50 46 71 l27 39 48 -24 c44 -23 122 -111 122 -137 0 -6
14 -31 32 -55 49 -68 85 -44 40 26 -9 14 -17 34 -18 45 -1 11 -14 41 -28 68
-14 26 -22 47 -17 47 4 0 28 13 52 30 24 16 50 30 58 30 21 0 116 47 130 64
10 12 9 16 -5 24 -20 11 -131 -35 -250 -102 l-40 -23 -53 19 c-40 15 -52 24
-47 37 2 9 14 42 25 75 12 32 18 62 15 67 -11 18 -25 8 -40 -28 -45 -114 -44
-112 -75 -101 -16 5 -29 14 -29 19 0 19 30 80 54 112 28 37 33 57 14 57 -16 0
-69 -63 -92 -107 -9 -18 -21 -33 -26 -33 -22 0 -18 25 16 105 21 47 35 88 32
91 -10 9 -48 -16 -48 -31 0 -22 -13 -18 -34 11 -13 19 -15 29 -7 37 21 21 13
39 -16 35 -37 -4 -41 21 -9 55 l26 28 36 -41 c61 -67 88 -49 32 21 l-33 40 25
19 25 19 46 -45 c25 -24 48 -41 52 -38 15 15 5 40 -30 76 l-38 39 30 24 30 24
27 -32 c15 -18 30 -40 34 -50 7 -23 28 -17 32 10 2 12 -10 35 -27 56 -56 63
-28 82 32 22 19 -19 42 -35 51 -35 27 0 18 35 -15 59 l-32 24 23 17 c23 17 25
17 63 -11 49 -35 75 -24 38 15 l-23 25 33 0 c155 0 240 5 244 12 3 4 -5 15
-19 24 -25 17 -76 21 -179 15 -71 -3 -84 6 -68 51 6 17 11 53 11 78 0 25 5 65
10 89 11 47 7 64 -14 56 -13 -5 -31 -67 -42 -147 -4 -32 -13 -52 -28 -62 -19
-14 -22 -13 -39 10 -10 14 -23 25 -28 25 -12 0 -12 -37 1 -45 16 -10 12 -41
-9 -59 -18 -16 -20 -15 -40 20 -17 28 -25 34 -33 26 -9 -9 -8 -20 4 -45 15
-31 15 -35 -2 -56 l-17 -24 -32 57 c-18 31 -37 54 -42 51 -14 -9 -11 -23 16
-77 30 -60 31 -70 4 -94 -23 -21 -19 -24 -62 50 -12 21 -27 39 -32 40 -21 2
-15 -47 10 -90 l27 -46 -20 -20 -20 -21 -25 39 c-13 22 -32 45 -41 53 -31 26
-31 -16 2 -68 l30 -49 -29 -25 c-26 -22 -29 -23 -42 -8 -8 9 -24 35 -36 59
-22 43 -41 48 -41 11 0 -22 25 -75 46 -100 13 -14 9 -21 -32 -54 -37 -30 -48
-35 -55 -24 -16 25 -10 47 22 78 17 17 28 35 24 41 -10 15 -21 12 -54 -16 -17
-14 -31 -21 -31 -15 0 6 -7 11 -15 11 -18 0 -18 -1 -5 -34 7 -20 5 -33 -11
-61 -12 -19 -25 -35 -30 -35 -16 0 -69 30 -69 39 0 4 29 47 65 94 38 50 60 89
54 92 -16 11 -51 -19 -94 -79 -72 -103 -67 -99 -98 -87 l-28 11 27 47 c15 27
40 67 56 91 33 50 35 62 10 62 -25 0 -57 -36 -73 -82 -7 -21 -22 -49 -34 -64
-21 -26 -22 -26 -53 -10 -18 9 -32 20 -32 25 0 11 61 112 94 156 32 41 32 45
2 45 -29 0 -40 -12 -91 -103 -22 -39 -45 -72 -50 -74 -6 -2 -19 3 -29 10 -17
13 -17 16 9 68 15 29 39 71 52 92 24 38 23 57 -1 57 -18 0 -38 -25 -76 -95
-17 -33 -34 -64 -37 -68 -3 -4 -30 7 -61 24 -94 54 -184 99 -197 99 -18 0
-136 143 -203 247 -22 34 -33 42 -58 43 -16 0 -34 -4 -40 -9 -10 -11 -224 -71
-250 -71 -14 0 -96 79 -166 159 -25 30 -47 38 -61 24z m1673 -713 c9 -17 6
-30 -18 -71 l-29 -51 -22 27 c-27 35 -27 38 10 80 36 41 44 43 59 15z m-380
-22 c0 -22 -42 -88 -56 -88 -8 0 -13 -4 -10 -9 4 -5 2 -20 -3 -33 -11 -29 -3
-44 24 -49 29 -6 31 -39 4 -60 -13 -10 -29 -19 -34 -19 -6 0 -25 25 -43 55
l-33 54 20 20 c11 11 18 27 15 35 -3 8 11 39 31 69 34 52 39 55 61 45 13 -6
24 -15 24 -20z m217 -22 c-4 -9 -13 -13 -21 -10 -12 5 -13 10 -5 26 13 24 35
9 26 -16z m-151 -35 c28 -44 26 -57 -21 -101 -26 -24 -27 -25 -41 -6 -8 11
-14 28 -14 38 0 15 40 107 47 108 2 0 14 -18 29 -39z m54 9 c0 -5 -4 -10 -10
-10 -5 0 -10 5 -10 10 0 6 5 10 10 10 6 0 10 -4 10 -10z m333 -75 c-19 -39
-31 -43 -61 -17 l-21 17 26 43 25 42 24 -25 c23 -25 23 -26 7 -60z m-252 -10
c-18 -34 -20 -35 -30 -17 -9 17 -7 24 16 41 34 28 39 21 14 -24z m-581 -431
c0 -3 -42 -92 -94 -198 l-94 -192 -84 -27 c-46 -14 -102 -31 -125 -37 -24 -5
-60 -14 -82 -20 -21 -5 -43 -10 -49 -10 -5 0 4 46 21 103 16 56 37 140 46 186
l17 85 100 28 c54 15 106 32 115 37 9 5 51 14 94 21 43 7 88 16 99 20 26 11
36 12 36 4z"/>
</g>
</svg>
