<?xml version="1.0" standalone="no"?>
<!DOCTYPE svg PUBLIC "-//W3C//DTD SVG 20010904//EN"
 "http://www.w3.org/TR/2001/REC-SVG-20010904/DTD/svg10.dtd">
<svg version="1.0" xmlns="http://www.w3.org/2000/svg"
 width="324.000000pt" height="202.000000pt" viewBox="0 0 324.000000 202.000000"
 preserveAspectRatio="xMidYMid meet">
<metadata>
Created by potrace 1.16, written by Peter Selinger 2001-2019
</metadata>
<g transform="translate(0.000000,202.000000) scale(0.100000,-0.100000)"
fill="#000000" stroke="none">
<path d="M496 1867 c-12 -12 -43 -33 -70 -47 -26 -14 -55 -32 -64 -40 -10 -8
-40 -31 -67 -49 -127 -89 -170 -188 -138 -318 11 -44 21 -64 34 -68 11 -4 19
-11 19 -16 0 -5 7 -9 15 -9 8 0 15 -4 15 -10 0 -14 124 -48 229 -61 l93 -12
-7 -36 c-13 -71 -24 -193 -18 -207 3 -8 11 -13 17 -11 7 2 14 47 17 115 8 120
11 132 38 132 26 0 29 -7 20 -48 -32 -141 -47 -246 -36 -264 7 -10 17 -18 24
-18 7 0 13 -7 13 -15 0 -8 9 -15 19 -15 11 0 22 -4 25 -9 9 -14 48 0 42 15 -7
17 5 18 38 3 40 -19 52 0 59 88 7 87 35 234 47 246 4 5 17 6 29 2 22 -7 22
-24 1 -85 -5 -14 -11 -39 -13 -56 -3 -17 -10 -41 -16 -53 -7 -12 -15 -46 -17
-76 l-6 -55 30 0 c29 0 29 1 29 53 1 28 8 89 18 134 21 105 23 115 24 131 1 6
6 12 11 12 15 0 12 -39 -14 -167 -39 -189 -39 -192 -21 -199 26 -10 32 5 49
111 40 247 42 255 73 255 16 0 12 -59 -8 -134 -6 -22 -12 -48 -13 -56 -2 -8
-7 -26 -13 -40 -19 -46 -26 -110 -13 -125 22 -27 40 -18 40 20 0 18 4 56 10
82 10 53 17 100 26 183 7 55 18 80 36 80 10 0 5 -109 -7 -170 -8 -39 -13 -71
-20 -132 -5 -47 -4 -58 8 -58 8 0 19 6 24 13 10 11 44 244 47 312 1 25 6 31
30 33 27 3 28 2 22 -30 -3 -18 -8 -67 -11 -108 -3 -41 -10 -106 -16 -144 -8
-54 -7 -71 3 -78 23 -14 36 21 42 110 4 48 12 122 18 165 11 84 23 97 85 97
l25 0 -6 -227 c-8 -251 -11 -305 -26 -383 -6 -30 -7 -76 -4 -103 l7 -50 -104
7 c-72 5 -107 12 -115 22 -6 8 -18 14 -26 14 -31 0 -38 -24 -31 -116 3 -49 6
-131 7 -183 l1 -95 32 -8 c26 -7 45 -2 98 22 36 16 69 30 74 30 5 0 30 9 57
19 27 11 83 29 124 41 41 12 100 31 130 42 30 11 75 27 100 35 25 8 54 19 65
25 10 6 42 16 70 23 27 7 76 20 108 29 31 9 61 15 65 15 32 -5 53 3 50 18 -3
14 -17 18 -82 20 -44 2 -81 4 -82 6 -5 6 27 209 42 262 9 33 20 75 24 93 4 18
13 38 18 45 10 11 15 36 28 117 5 32 11 37 48 47 37 10 125 35 316 91 36 11
115 40 175 64 202 83 270 110 340 135 39 13 88 33 111 44 22 10 44 19 49 19 5
0 29 7 52 16 38 15 43 20 43 48 0 38 -23 55 -85 61 -25 2 -49 6 -54 9 -14 9
-151 38 -201 42 -59 6 -242 34 -250 39 -3 2 -53 9 -110 15 -58 6 -118 13 -135
15 -109 13 -344 27 -380 22 -25 -2 -46 -2 -49 0 -3 3 -46 7 -96 10 -91 4 -140
15 -140 31 0 16 40 101 50 107 12 7 13 45 3 45 -5 1 -35 3 -68 5 -150 11 -222
13 -231 7 -6 -4 -11 -83 -11 -197 -1 -104 -1 -220 -2 -257 l-1 -68 -44 0 c-39
0 -45 3 -48 23 -5 32 11 140 22 151 6 6 5 16 -1 28 -6 12 -8 56 -4 116 4 53 7
111 8 127 1 21 -3 30 -13 30 -18 0 -25 -51 -34 -230 -3 -65 -9 -148 -12 -183
-7 -61 -8 -63 -33 -60 -25 3 -26 5 -23 62 2 32 8 70 13 85 6 14 15 80 20 146
6 66 14 124 19 129 15 15 12 36 -5 36 -30 0 -44 -45 -56 -175 -7 -72 -12 -142
-13 -157 -1 -16 -4 -28 -8 -28 -5 0 -8 -17 -8 -39 0 -24 -6 -44 -16 -52 -15
-13 -16 -9 -11 46 3 33 10 83 15 110 6 28 13 84 17 125 3 41 12 96 20 123 13
43 13 47 -3 47 -19 0 -44 -67 -48 -130 -1 -19 -4 -57 -8 -85 -3 -27 -8 -77
-11 -110 -3 -33 -7 -69 -9 -80 -3 -11 -5 -28 -5 -38 -1 -14 -6 -17 -23 -11
-13 3 -25 8 -27 10 -2 1 5 38 14 81 10 43 25 134 35 203 9 69 19 131 21 139 7
24 -18 22 -34 -3 -15 -23 -39 -184 -41 -278 -1 -21 -4 -38 -7 -38 -4 0 -10
-24 -13 -53 -5 -39 -11 -54 -23 -54 -12 0 -14 8 -8 41 4 23 9 52 10 66 2 14 5
43 8 65 3 22 9 76 12 120 4 44 13 92 21 107 18 34 18 38 -2 38 -20 0 -47 -66
-42 -102 3 -15 1 -28 -2 -28 -4 0 -11 -37 -14 -82 -4 -46 -10 -99 -13 -118 -5
-34 -9 -62 -12 -87 -1 -15 -57 -18 -66 -3 -3 5 3 49 14 97 17 77 27 145 48
306 6 40 -5 47 -30 19 -10 -11 -13 -23 -8 -31 5 -8 4 -27 -4 -45 -7 -17 -16
-60 -20 -96 -6 -58 -15 -118 -31 -207 -7 -36 -16 -45 -37 -37 -11 4 -15 13
-12 28 3 11 17 91 31 176 14 85 29 168 31 184 4 21 2 27 -8 24 -18 -6 -43 -90
-58 -193 -30 -202 -32 -206 -55 -203 -28 4 -32 42 -11 113 8 30 18 76 20 102
3 26 12 79 21 116 9 37 13 71 10 74 -10 10 -28 -13 -31 -40 -2 -13 -8 -48 -14
-78 -6 -30 -13 -67 -15 -84 -18 -107 -41 -185 -56 -185 -33 0 -39 13 -29 65
12 61 16 91 25 175 4 36 13 77 20 91 12 24 11 28 -17 48 -16 12 -46 44 -65 71
-43 59 -59 66 -88 37z m40 -102 c20 -19 43 -35 50 -35 21 0 17 -9 -30 -64 -52
-61 -77 -107 -77 -144 -2 -56 20 -107 60 -145 28 -25 41 -46 41 -64 0 -25 -2
-25 -42 -19 -24 4 -65 9 -92 12 -108 13 -230 73 -242 120 -10 41 1 118 25 168
15 31 43 62 83 92 61 48 166 114 179 114 4 0 24 -16 45 -35z m1039 -35 c-8
-16 -15 -35 -15 -43 0 -8 -7 -37 -15 -63 -55 -181 -103 -381 -141 -579 -28
-151 -33 -156 -27 -27 3 68 6 146 7 175 1 45 4 52 21 52 33 0 32 42 -1 57
l-27 12 7 116 c3 63 9 163 12 222 l7 107 81 3 c106 4 109 3 91 -32z m-966
-199 c-13 -132 -25 -151 -53 -81 -26 65 -21 101 21 158 21 28 39 49 41 47 2
-2 -2 -57 -9 -124z m1396 44 c143 -2 285 -9 315 -15 59 -12 107 -19 155 -24
17 -2 41 -6 55 -10 14 -4 43 -9 65 -11 158 -18 210 -25 238 -33 18 -6 76 -20
130 -32 53 -13 97 -26 97 -31 0 -4 -14 -11 -32 -14 -18 -4 -39 -11 -48 -16
-44 -24 -129 -56 -380 -145 -68 -25 -136 -52 -150 -61 -14 -10 -29 -16 -34
-15 -5 2 -56 -13 -115 -31 -58 -19 -124 -39 -146 -45 -99 -26 -128 -34 -142
-39 -22 -8 -7 60 25 119 15 26 24 49 21 52 -3 3 -47 8 -99 11 -52 3 -110 7
-127 9 -18 3 -33 1 -33 -2 -2 -27 -32 -43 -96 -48 -38 -4 -72 -11 -76 -18 -6
-8 -8 -7 -8 2 0 8 -20 12 -65 12 -58 0 -65 -2 -65 -20 0 -19 7 -20 113 -21 61
-1 129 0 150 1 31 1 37 -2 37 -19 0 -19 -5 -20 -77 -15 -43 3 -116 1 -163 -4
-47 -6 -86 -10 -87 -9 -3 4 105 422 122 475 4 10 23 12 82 7 43 -3 195 -7 338
-10z m-1357 -273 c3 -18 -1 -22 -22 -22 -19 0 -26 5 -26 18 0 39 43 43 48 4z
m88 -3 c10 -17 -8 -28 -38 -22 -17 3 -25 10 -21 19 6 17 49 19 59 3z m74 -19
c0 -5 -9 -10 -21 -10 -11 0 -17 5 -14 10 3 6 13 10 21 10 8 0 14 -4 14 -10z
m96 0 c8 0 14 -4 14 -10 0 -12 -57 -13 -64 -1 -8 12 6 22 22 16 7 -3 20 -5 28
-5z m69 -10 c3 -5 -1 -10 -10 -10 -9 0 -13 5 -10 10 3 6 8 10 10 10 2 0 7 -4
10 -10z m78 -7 c-7 -2 -19 -2 -25 0 -7 3 -2 5 12 5 14 0 19 -2 13 -5z m-333
-53 c0 -58 -49 -247 -68 -262 -13 -11 -14 -1 -8 82 3 52 11 119 18 148 10 45
14 52 35 52 16 0 23 -6 23 -20z m80 -8 c0 -10 -9 -61 -20 -113 -11 -52 -22
-107 -24 -122 -2 -16 -9 -33 -17 -38 -12 -7 -12 -9 1 -9 13 0 13 -1 0 -10 -8
-5 -17 -10 -21 -10 -7 0 5 106 26 223 15 81 21 97 37 97 11 0 18 -7 18 -18z
m1158 -21 c18 0 31 -5 28 -10 -5 -8 -32 -132 -52 -239 -3 -13 -12 -43 -20 -65
-9 -23 -28 -86 -43 -139 -14 -53 -30 -100 -34 -104 -4 -4 -7 17 -7 46 0 38 5
56 18 66 15 13 15 15 2 27 -16 12 -19 97 -5 143 4 12 2 25 -4 28 -20 13 -13
63 9 69 28 7 25 26 -5 37 -22 8 -24 12 -15 36 8 19 7 31 -1 40 -13 16 -14 16
24 32 15 6 27 18 27 25 0 9 9 13 23 12 12 -1 37 -3 55 -4z m-172 -124 c15 -14
-7 -18 -137 -23 -74 -3 -146 -9 -161 -14 -25 -8 -28 -7 -28 15 0 19 6 25 33
28 49 7 286 2 293 -6z m4 -91 l0 -34 -175 1 c-126 2 -175 5 -175 14 0 31 11
38 58 36 38 -1 222 9 280 16 7 0 12 -12 12 -33z m0 -95 c0 -16 -15 -18 -162
-24 -90 -3 -171 -9 -180 -12 -15 -6 -18 -2 -18 23 0 30 2 31 48 34 26 2 107 2
180 0 119 -3 132 -5 132 -21z m3 -81 c-3 -11 -6 -20 -7 -20 0 0 -68 -5 -151
-10 -82 -5 -165 -12 -182 -16 -29 -6 -33 -4 -33 15 0 12 6 24 14 27 12 4 152
14 333 23 27 1 30 -2 26 -19z m-3 -102 l0 -37 -195 2 c-107 1 -195 4 -194 7 5
39 18 45 105 55 49 6 133 10 187 10 l97 0 0 -37z m-174 -78 c36 -6 86 -7 120
-2 l59 8 -3 -38 c-4 -33 -7 -37 -26 -33 -37 10 -178 10 -283 2 l-103 -9 0 24
c0 45 8 48 145 56 17 1 58 -3 91 -8z m152 -106 c17 -3 22 -11 22 -35 l0 -30
-62 5 c-35 3 -85 8 -113 10 -27 3 -94 8 -147 12 -75 4 -98 9 -98 20 0 8 3 14
8 14 47 2 248 13 249 15 4 3 115 -5 141 -11z m-478 -64 c41 -5 125 -12 185
-16 61 -3 130 -8 155 -11 25 -2 62 -5 82 -6 47 -3 57 -13 27 -26 -80 -34 -233
-91 -244 -91 -8 0 -60 -16 -117 -36 -57 -19 -112 -38 -123 -40 -11 -3 -44 -17
-73 -31 -32 -16 -57 -22 -62 -17 -15 15 -22 277 -8 285 13 8 36 6 178 -11z"/>
</g>
</svg>
