<?xml version="1.0" standalone="no"?>
<!DOCTYPE svg PUBLIC "-//W3C//DTD SVG 20010904//EN"
 "http://www.w3.org/TR/2001/REC-SVG-20010904/DTD/svg10.dtd">
<svg version="1.0" xmlns="http://www.w3.org/2000/svg"
 width="209.000000pt" height="151.000000pt" viewBox="0 0 209.000000 151.000000"
 preserveAspectRatio="xMidYMid meet">
<metadata>
Created by potrace 1.16, written by Peter Selinger 2001-2019
</metadata>
<g transform="translate(0.000000,151.000000) scale(0.100000,-0.100000)"
fill="#000000" stroke="none">
<path d="M865 1428 c-2 -7 -9 -30 -15 -50 -6 -21 -11 -69 -11 -108 l0 -70 -38
0 c-22 0 -44 -6 -51 -15 -11 -13 0 -15 89 -15 55 0 101 -3 101 -6 0 -4 -24
-38 -52 -77 l-53 -71 -16 69 c-10 46 -20 70 -30 70 -11 0 -13 -14 -12 -64 l3
-63 -38 33 c-21 19 -64 70 -95 114 -56 77 -58 82 -52 128 7 60 -3 117 -21 117
-7 0 -94 -79 -191 -176 -98 -97 -192 -182 -210 -190 -41 -18 -48 -30 -24 -46
10 -7 40 -33 66 -57 l47 -43 -41 -42 c-23 -23 -41 -47 -41 -54 0 -17 7 -15 31
9 23 23 35 21 114 -18 129 -64 127 -63 111 -88 -8 -12 -39 -46 -68 -74 -48
-47 -56 -51 -90 -47 -21 2 -40 1 -42 -3 -7 -10 12 -37 20 -29 4 4 15 -3 25
-16 18 -23 45 -172 51 -291 2 -41 6 -50 21 -49 9 1 26 -11 38 -27 11 -16 26
-29 33 -29 8 0 19 -7 26 -15 14 -17 20 -18 39 -6 11 7 12 13 3 23 -21 26 38
128 112 193 36 31 68 65 71 76 4 11 16 19 28 19 37 0 68 12 64 24 -2 7 -25 10
-60 8 -34 -2 -57 0 -57 6 0 6 -21 18 -47 28 -93 35 -109 49 -122 109 -9 40 -9
59 -1 75 6 11 13 20 16 20 18 0 64 -33 69 -50 10 -33 39 -20 46 20 3 19 15 53
27 75 26 47 27 55 8 55 -15 0 -26 -21 -26 -49 0 -10 -9 -26 -20 -36 -18 -16
-20 -16 -44 2 l-24 20 37 34 c20 19 61 54 90 79 30 25 67 60 84 78 18 19 34
29 40 23 5 -5 8 -80 6 -167 -1 -88 -2 -170 -1 -184 3 -151 1 -230 -7 -255 -4
-17 -8 -61 -7 -98 3 -109 40 -126 86 -38 28 55 111 137 150 151 19 6 75 14
125 16 97 6 105 8 105 30 0 8 -10 14 -25 14 -16 0 -25 6 -25 15 0 23 0 22 -16
61 -14 33 -14 38 1 54 11 12 13 20 6 25 -7 4 -11 43 -10 103 2 90 3 94 13 57
23 -83 45 -86 82 -12 14 28 38 65 53 81 19 22 23 30 12 34 -12 4 18 18 79 38
12 4 22 -11 39 -53 28 -69 37 -81 51 -67 8 8 5 27 -10 63 -28 73 -26 84 21
104 23 10 43 17 44 15 1 -2 17 -33 34 -70 29 -63 51 -86 51 -54 0 7 -11 43
-25 80 l-25 66 67 30 c37 17 70 34 73 38 14 21 166 70 198 64 6 -2 12 4 12 12
0 10 8 15 23 13 14 -1 22 3 22 13 0 9 -11 16 -30 18 -16 2 -41 7 -55 12 -14 5
-53 12 -88 14 -35 3 -69 9 -75 14 -7 5 -57 12 -112 16 -55 4 -113 9 -130 11
-16 3 -95 14 -175 25 -171 24 -230 42 -230 72 0 16 -5 19 -25 14 -37 -9 -175
57 -175 84 0 22 -18 28 -25 8z m-315 -120 c0 -49 -1 -50 -18 -35 -22 20 -48
22 -58 5 -8 -12 87 -103 118 -113 9 -3 19 -14 23 -23 5 -19 49 -66 109 -119
24 -22 31 -33 20 -33 -26 0 -145 31 -198 51 -37 14 -53 16 -63 8 -10 -9 -13
-8 -13 5 0 20 -23 21 -40 1 -18 -22 -25 -129 -10 -165 14 -34 22 -37 41 -14
15 18 132 78 169 87 14 3 38 0 54 -6 l29 -13 -44 -40 c-24 -22 -69 -64 -100
-92 l-55 -51 -35 19 c-19 10 -48 26 -66 36 -28 15 -33 24 -38 68 -4 29 -2 63
4 79 6 16 11 35 11 43 0 21 -28 17 -40 -5 -15 -29 -41 -52 -51 -46 -13 9 -11
77 5 121 7 22 11 44 9 49 -2 6 29 43 69 82 75 73 161 152 166 153 1 0 2 -23 2
-52z m393 28 c26 -10 47 -24 47 -30 0 -10 -92 -76 -105 -76 -3 0 -5 30 -5 66
0 36 3 64 8 62 4 -1 28 -11 55 -22z m147 -73 c14 -7 36 -13 48 -13 13 0 67 -9
120 -19 54 -11 167 -27 252 -36 107 -10 158 -20 166 -30 8 -10 32 -13 95 -13
96 2 149 -15 83 -25 -37 -6 -79 -25 -183 -83 -24 -13 -48 -24 -52 -24 -9 0 -1
77 13 113 14 37 5 43 -37 23 -20 -10 -52 -20 -71 -23 -30 -5 -34 -3 -34 16 0
11 -3 21 -6 21 -12 0 -174 -79 -174 -84 0 -3 16 -21 35 -39 35 -33 72 -115 58
-127 -9 -8 -189 -70 -202 -70 -5 0 -12 12 -15 26 -8 31 17 75 73 127 57 53 48
62 -58 62 -97 0 -115 -7 -85 -30 18 -13 16 -14 -26 -15 -25 0 -67 8 -93 17
-68 24 -71 15 -69 -182 1 -27 1 -81 1 -120 -1 -141 0 -161 6 -210 4 -27 13
-57 21 -65 8 -10 10 -21 5 -29 -10 -16 -54 -10 -104 14 l-32 15 2 112 c2 62 6
150 11 195 4 45 5 80 2 78 -3 -2 -4 29 -3 67 2 58 6 75 25 97 13 14 26 27 31
29 4 2 7 10 7 17 0 7 27 41 60 75 33 34 60 65 60 67 0 3 -22 3 -50 1 -27 -3
-50 -2 -50 2 0 4 25 25 56 48 56 42 61 42 114 15z m328 -181 l-13 -31 -23 19
-23 19 33 14 c18 8 34 13 36 12 2 -2 -3 -16 -10 -33z m160 -44 l-3 -33 -23 42
c-27 52 -27 52 1 62 19 7 22 5 25 -15 2 -13 2 -38 0 -56z m-57 -20 c11 -14 19
-29 19 -33 0 -7 -63 -35 -79 -35 -28 0 -17 133 12 143 6 2 16 -8 21 -22 5 -14
17 -38 27 -53z m-1270 2 l-6 -44 -17 27 c-17 25 -17 27 4 47 12 11 22 19 24
17 1 -1 -1 -22 -5 -47z m297 -30 c9 0 -4 -13 -30 -30 -27 -17 -50 -30 -53 -30
-3 0 -5 22 -5 50 l0 50 35 -20 c20 -11 43 -20 53 -20z m682 36 c0 -12 -70 -85
-74 -78 -3 5 -5 26 -4 46 1 35 2 36 40 36 21 0 38 -2 38 -4z m-197 -34 c9 -4
-41 -42 -55 -42 -5 0 -8 14 -8 30 0 28 2 30 28 24 15 -4 31 -9 35 -12z m78
-12 c6 -54 5 -55 -46 -61 -28 -3 -59 -9 -70 -14 -11 -4 1 9 28 29 26 20 47 41
47 46 0 13 40 13 41 0z m-781 -84 c0 -33 -2 -34 -34 -33 l-35 2 32 33 c17 17
32 32 34 32 2 0 3 -15 3 -34z m700 -6 c0 -16 -51 -61 -61 -54 -5 3 -9 16 -9
30 0 20 4 24 18 20 9 -3 24 -1 32 4 19 12 20 12 20 0z m91 8 c0 -2 2 -22 5
-45 l6 -43 -42 0 c-36 0 -41 2 -31 14 7 8 14 27 16 43 2 15 4 29 4 31 1 1 10
2 21 2 11 0 20 -1 21 -2z m171 -70 c-11 -13 -32 -43 -46 -68 -23 -41 -26 -43
-26 -18 0 15 -4 38 -9 51 -9 23 -6 26 37 40 64 21 69 21 44 -5z m-248 -49 c3
-3 -12 -23 -34 -44 l-40 -39 0 35 c0 19 5 40 12 47 12 12 51 12 62 1z m91 -19
c-4 -12 -2 -20 4 -20 24 0 -14 -38 -43 -45 -85 -20 -97 -10 -49 42 27 29 46
42 66 42 24 1 27 -2 22 -19z m1 -114 c1 -10 5 -20 8 -23 11 -11 -20 -29 -49
-28 -16 1 -38 -3 -49 -8 -22 -11 -20 -4 19 49 23 32 34 40 49 34 11 -4 21 -15
22 -24z m-698 -32 c-2 -2 -17 0 -33 4 l-28 8 29 23 29 23 3 -27 c2 -15 2 -29
0 -31z m600 34 c-2 -6 -16 -21 -31 -31 -21 -16 -29 -18 -41 -8 -7 6 -12 21 -9
31 4 16 14 20 45 20 26 0 38 -4 36 -12z m87 -88 c6 0 10 -15 11 -33 l0 -32
-50 2 c-28 1 -53 2 -56 3 -3 0 7 8 23 16 15 8 27 20 27 25 0 13 -17 9 -72 -15
-38 -16 -38 -16 -38 7 0 21 5 24 47 26 26 1 50 4 52 7 3 3 15 3 26 0 11 -3 25
-6 30 -6z m-755 -12 c0 -7 -7 -21 -14 -31 -13 -16 -15 -16 -24 13 -10 28 -9
30 14 30 13 0 24 -6 24 -12z m70 -3 c12 -14 41 -29 140 -72 22 -9 16 -12 -47
-18 -72 -8 -91 -19 -53 -33 19 -7 19 -8 -2 -41 -19 -30 -23 -32 -29 -15 -4 10
-8 36 -8 57 -1 26 -5 37 -16 37 -11 0 -14 -8 -11 -32 3 -18 5 -46 5 -63 2 -67
40 -68 79 -1 27 45 58 64 116 72 l48 7 -16 -24 c-37 -58 -257 -212 -275 -194
-2 3 -6 29 -7 58 -2 47 -13 153 -17 167 -3 9 62 110 72 110 5 0 14 -7 21 -15z
m589 -91 c-32 -18 -39 -17 -39 4 0 15 6 18 31 14 l32 -5 -24 -13z m131 -3 c0
-16 -9 -20 -52 -23 -29 -2 -55 -3 -56 -2 -7 5 73 43 91 44 10 0 17 -7 17 -19z
m-263 -68 c17 -3 34 -12 37 -20 3 -8 2 -12 -3 -8 -5 3 -32 -21 -60 -52 -47
-53 -51 -55 -51 -31 0 15 4 30 10 33 5 3 7 26 3 52 -6 43 -5 46 13 39 10 -4
33 -10 51 -13z m-419 -160 c-12 -21 -22 -39 -23 -41 -1 -1 -10 7 -19 17 -19
21 -23 17 61 60 1 1 -7 -16 -19 -36z"/>
</g>
</svg>
