<?xml version="1.0" standalone="no"?>
<!DOCTYPE svg PUBLIC "-//W3C//DTD SVG 20010904//EN"
 "http://www.w3.org/TR/2001/REC-SVG-20010904/DTD/svg10.dtd">
<svg version="1.0" xmlns="http://www.w3.org/2000/svg"
 width="128.000000pt" height="120.000000pt" viewBox="0 0 128.000000 120.000000"
 preserveAspectRatio="xMidYMid meet">
<metadata>
Created by potrace 1.16, written by Peter Selinger 2001-2019
</metadata>
<g transform="translate(0.000000,120.000000) scale(0.100000,-0.100000)"
fill="#000000" stroke="none">
<path d="M851 1087 c-8 -10 -8 -22 0 -46 6 -18 10 -33 8 -34 -34 -22 -263 -93
-359 -111 -41 -8 -102 -22 -135 -31 -126 -35 -128 -35 -142 -17 -7 9 -13 13
-13 8 0 -5 -7 -3 -15 4 -12 10 -18 10 -30 0 -20 -16 -20 -89 0 -177 9 -37 18
-78 20 -90 10 -45 53 -25 85 40 7 15 19 27 26 27 6 0 21 16 33 35 20 34 35 43
44 28 6 -10 -10 -264 -18 -271 -8 -9 -56 21 -73 45 -11 18 -12 26 -2 38 6 8 9
19 5 25 -9 15 -43 -8 -101 -70 -34 -37 -52 -49 -66 -45 -10 4 -18 1 -18 -5 0
-6 5 -8 13 -4 8 6 8 3 -2 -9 -23 -29 -7 -48 37 -41 32 5 47 1 82 -21 24 -15
71 -40 104 -56 34 -15 72 -35 86 -43 14 -8 95 -49 180 -91 85 -42 162 -86 171
-97 23 -30 51 -20 55 20 2 19 -1 32 -7 32 -18 0 -2 142 28 255 8 33 19 80 23
105 18 99 59 240 75 256 9 9 14 25 12 35 -3 10 0 20 5 21 12 4 48 104 40 112
-3 3 0 6 7 6 8 0 11 7 7 15 -3 8 -1 15 5 15 6 0 9 7 5 15 -3 8 -1 15 4 15 5 0
11 8 15 19 3 10 21 34 41 54 20 19 31 38 25 41 -5 4 -31 2 -58 -4 -65 -15
-159 -15 -176 -1 -11 9 -17 8 -26 -2z m179 -42 c0 -18 -46 -94 -60 -98 -12 -3
-21 -24 -29 -67 -9 -45 -15 -59 -22 -49 -5 8 -6 26 -3 41 3 16 1 43 -5 60 -18
54 -20 98 -5 106 15 8 124 15 124 7z m-155 -180 c0 -57 -2 -105 -5 -108 -3 -2
-15 -8 -27 -11 -22 -7 -23 -5 -23 71 -1 43 -3 92 -4 108 -3 21 3 35 18 47 33
27 41 7 41 -107z m-76 -66 c1 -32 -5 -54 -18 -70 l-20 -24 6 60 c2 33 8 85 11
115 l6 55 7 -45 c4 -25 8 -66 8 -91z m-44 98 c-2 -7 -6 -42 -9 -78 -8 -95 -17
-132 -35 -146 -26 -20 -32 -15 -27 20 3 17 10 69 17 115 11 79 30 119 49 107
5 -3 7 -11 5 -18z m-250 -61 c-83 -40 -91 -42 -97 -25 -13 32 -18 28 -111 -90
-23 -30 -47 -56 -53 -58 -13 -4 -39 109 -31 132 4 9 19 15 39 15 18 0 49 5 68
11 48 16 230 57 255 57 11 1 -20 -18 -70 -42z m175 16 c0 -16 -4 -53 -9 -83
-5 -30 -12 -75 -16 -101 -5 -40 -10 -48 -35 -57 -30 -10 -30 -10 -30 29 0 21
4 61 9 87 5 26 12 65 16 85 10 63 65 97 65 40z m-94 -44 c-2 -13 -10 -56 -17
-95 -7 -40 -15 -73 -19 -73 -3 0 -14 6 -25 14 -15 11 -17 22 -12 69 3 31 1 59
-4 62 -11 7 -29 -37 -29 -70 0 -34 -11 -36 -44 -10 -23 19 -26 26 -17 42 5 11
25 26 43 34 18 7 35 15 38 19 6 7 61 28 78 29 8 1 11 -7 8 -21z m269 -110
c-13 -62 -25 -146 -25 -178 0 -41 -6 -51 -26 -43 -16 6 -18 43 -4 93 5 19 12
55 15 80 7 45 20 70 36 70 5 0 7 -10 4 -22z m-385 -81 c0 -18 -3 -55 -6 -82
-6 -46 -10 -53 -46 -73 l-40 -22 6 30 c3 17 8 67 12 113 8 112 8 113 44 87 23
-16 30 -29 30 -53z m325 56 c-2 -10 -9 -48 -16 -85 -10 -63 -27 -85 -43 -59
-9 15 21 143 36 152 20 13 26 11 23 -8z m-79 -75 c-8 -50 -8 -50 -30 -42 -20
8 -21 33 0 62 25 36 37 27 30 -20z m-178 16 c27 -18 21 -58 -12 -86 -31 -26
-37 -22 -32 20 3 20 5 47 5 60 1 26 9 27 39 6z m102 -67 c0 -7 -4 -38 -9 -68
-6 -30 -12 -85 -15 -124 -3 -38 -6 -71 -6 -73 0 -1 -13 4 -28 12 -27 14 -29
18 -26 73 3 91 15 156 32 176 18 20 52 23 52 4z m54 -67 c0 -59 -25 -230 -33
-230 -3 0 -12 4 -20 9 -11 7 -12 25 -2 107 19 155 21 165 40 162 12 -3 16 -15
15 -48z m-160 -70 c-5 -66 -10 -80 -23 -78 -38 8 -51 109 -18 142 13 13 40 25
45 21 2 -2 0 -40 -4 -85z m220 37 c-1 -12 -9 -65 -18 -117 -9 -52 -16 -98 -16
-102 0 -14 -18 -8 -24 8 -5 13 15 176 29 244 2 8 4 17 5 20 3 16 27 -34 24
-53z m-467 8 c25 -19 50 -35 54 -35 5 0 9 -7 9 -15 0 -8 6 -15 14 -15 8 0 31
-15 51 -33 20 -18 69 -50 110 -71 70 -36 89 -56 65 -71 -5 -3 -10 -2 -10 4 0
5 -10 13 -22 17 -44 13 -133 57 -153 75 -12 10 -30 20 -40 22 -38 8 -85 29
-85 39 0 5 -25 21 -56 35 l-56 25 34 29 c18 15 34 28 36 29 2 0 24 -16 49 -35z
m518 -15 c4 -6 0 -39 -8 -73 -9 -34 -18 -91 -21 -127 -3 -36 -5 -66 -6 -68 0
-2 -4 0 -10 3 -24 15 1 275 26 275 7 0 16 -5 19 -10z m-362 -29 c-3 -12 -11
-17 -19 -14 -17 6 -18 20 -1 26 22 9 25 7 20 -12z m217 -212 c0 -17 -3 -18
-20 -9 -20 11 -25 22 -14 33 11 11 34 -5 34 -24z m76 -40 l29 -31 -35 19 c-19
10 -37 19 -39 20 -3 2 8 23 13 23 1 0 15 -14 32 -31z"/>
<path d="M600 940 c0 -5 5 -10 10 -10 6 0 10 5 10 10 0 6 -4 10 -10 10 -5 0
-10 -4 -10 -10z"/>
</g>
</svg>
