<?xml version="1.0" standalone="no"?>
<!DOCTYPE svg PUBLIC "-//W3C//DTD SVG 20010904//EN"
 "http://www.w3.org/TR/2001/REC-SVG-20010904/DTD/svg10.dtd">
<svg version="1.0" xmlns="http://www.w3.org/2000/svg"
 width="246.000000pt" height="157.000000pt" viewBox="0 0 246.000000 157.000000"
 preserveAspectRatio="xMidYMid meet">
<metadata>
Created by potrace 1.16, written by Peter Selinger 2001-2019
</metadata>
<g transform="translate(0.000000,157.000000) scale(0.100000,-0.100000)"
fill="#000000" stroke="none">
<path d="M1918 1510 c-7 -11 -16 -20 -20 -20 -4 0 -47 -38 -95 -85 -47 -47
-105 -96 -128 -109 -47 -28 -139 -87 -172 -111 -31 -22 -29 -35 7 -35 23 0 30
-5 30 -19 0 -10 12 -35 26 -56 14 -21 23 -44 20 -51 -3 -7 -24 -25 -48 -40
-50 -32 -34 -46 17 -15 l35 20 -6 -27 c-14 -68 -54 -131 -54 -86 0 8 -4 12
-10 9 -5 -3 -10 -17 -10 -30 0 -39 -11 -55 -37 -55 -20 0 -24 4 -18 18 4 9 13
32 20 51 7 19 20 40 29 46 20 15 20 25 0 25 -13 0 -15 8 -9 50 4 28 4 50 -1
50 -4 0 -21 -10 -38 -23 -32 -24 -104 -67 -112 -67 -10 0 -2 45 13 71 24 41
10 46 -34 12 -40 -31 -86 -58 -115 -67 -30 -9 -21 -29 9 -22 l26 7 -18 -28
c-10 -15 -32 -45 -48 -67 -28 -36 -31 -37 -44 -20 -17 23 -17 48 0 62 10 9 12
4 9 -23 -3 -22 0 -35 7 -35 14 0 19 13 25 70 6 63 17 113 29 128 7 9 7 16 0
23 -7 7 -26 1 -59 -18 -27 -15 -66 -37 -87 -47 -23 -12 -34 -23 -28 -29 5 -5
35 6 76 28 48 26 66 31 61 20 -3 -9 -6 -24 -6 -34 0 -10 -14 -33 -30 -51 -30
-33 -31 -34 -37 -12 -3 12 -9 22 -14 22 -16 0 -19 -19 -7 -45 10 -22 9 -28 -3
-36 -8 -5 -10 -9 -5 -9 5 0 -1 -11 -14 -25 -13 -14 -31 -25 -41 -25 -20 0 -30
21 -19 40 5 7 11 50 15 94 4 45 11 89 16 98 17 31 -8 28 -52 -7 -26 -21 -55
-35 -71 -35 -18 0 -28 -5 -28 -15 0 -20 28 -19 73 4 l37 19 0 -42 c0 -29 -6
-47 -20 -59 -19 -16 -20 -15 -26 8 -11 43 -27 29 -20 -17 4 -34 1 -48 -13 -65
-30 -36 -51 -30 -51 15 0 21 6 44 12 50 10 10 10 14 0 21 -21 13 -25 73 -8
115 9 21 16 40 16 42 0 13 -33 -1 -84 -36 -81 -55 -84 -54 -65 13 6 22 8 41 5
44 -2 3 -31 -15 -63 -39 -76 -58 -84 -63 -77 -44 9 23 -13 20 -26 -3 -26 -49
7 -55 66 -13 68 49 67 49 60 6 -3 -22 -5 -48 -6 -59 0 -18 -3 -16 -23 9 -14
17 -28 26 -36 22 -8 -5 -6 -15 9 -33 51 -65 -9 -126 -92 -94 -21 8 -62 81 -82
144 -6 20 -26 14 -26 -8 0 -8 11 -39 24 -70 22 -49 23 -55 8 -55 -41 0 -91 23
-131 59 l-44 40 -27 -19 c-21 -15 -29 -31 -33 -62 -8 -75 -3 -321 8 -324 6 -2
28 12 50 32 37 32 168 84 181 71 3 -2 -24 -35 -61 -71 -36 -37 -65 -71 -65
-76 0 -6 18 -10 39 -10 30 0 44 -6 58 -25 25 -35 42 -20 48 46 4 29 8 62 11
72 3 11 0 17 -9 17 -18 0 -27 -21 -27 -61 0 -27 -2 -29 -28 -23 -39 10 -39 11
-4 47 18 18 32 36 32 39 0 14 48 58 74 68 39 15 45 13 56 -16 9 -22 6 -32 -15
-60 -28 -36 -32 -54 -12 -54 16 0 51 -37 60 -63 4 -9 10 -17 15 -17 17 0 34
29 26 42 -5 7 -7 39 -6 71 3 49 1 57 -15 57 -25 0 43 67 77 75 22 5 27 1 38
-27 12 -32 11 -34 -28 -71 -22 -21 -40 -41 -40 -46 0 -4 11 -18 25 -31 14 -13
25 -34 25 -46 0 -29 18 -41 27 -17 4 10 11 21 17 25 8 5 7 11 -2 20 -13 13
-17 58 -4 58 6 0 30 -26 89 -97 13 -16 22 -20 32 -14 12 8 12 12 2 25 -14 16
-8 51 7 42 4 -2 14 -1 22 4 19 12 40 -7 40 -35 0 -17 7 -24 32 -29 40 -8 46
-1 23 24 -17 19 -17 25 -6 71 7 27 10 60 7 74 -3 13 -2 27 4 30 5 3 10 1 10
-5 0 -6 7 -18 15 -26 22 -22 18 -47 -10 -74 -33 -31 -32 -41 4 -34 25 5 36 0
67 -30 20 -20 43 -36 51 -36 17 0 16 5 -2 34 -14 21 -14 24 0 29 22 9 39 0 59
-33 19 -33 51 -54 67 -44 7 4 4 13 -6 24 -24 26 -12 168 17 205 23 29 34 31
41 8 2 -10 8 -25 11 -34 5 -11 -7 -29 -35 -57 l-42 -40 36 -7 c28 -5 39 -15
52 -41 8 -18 19 -35 23 -38 14 -8 35 12 29 27 -3 9 1 18 10 22 12 4 13 9 5 17
-8 8 -7 15 6 24 33 25 58 17 77 -26 21 -46 38 -48 42 -4 1 16 4 40 7 54 2 14
5 39 5 55 l1 30 21 -25 c50 -63 52 -66 35 -98 -33 -63 -153 -140 -189 -121
-23 13 -37 3 -37 -26 0 -19 5 -24 23 -24 45 3 99 -32 66 -43 -15 -5 -40 -66
-29 -73 5 -3 15 1 22 8 15 17 76 4 94 -19 6 -8 30 -21 54 -29 44 -15 140 -81
140 -95 0 -10 65 -41 94 -44 12 -1 27 -5 33 -9 13 -8 43 1 43 14 0 5 -5 18
-12 28 -27 44 78 280 137 311 17 8 32 16 33 17 14 7 -21 58 -75 109 -58 55
-67 69 -79 120 -7 33 -14 80 -14 106 0 54 -13 67 -41 42 -16 -14 -19 -15 -19
-2 0 21 35 56 100 100 30 21 68 48 83 60 l29 23 24 -28 c30 -35 58 -32 62 6 2
19 -1 27 -12 27 -36 0 -124 134 -151 230 -4 14 -16 42 -27 63 -14 28 -20 65
-23 130 -2 51 -4 95 -4 100 -2 14 -21 7 -33 -13z m2 -110 l0 -24 -16 22 c-9
13 -13 30 -9 40 5 14 7 14 15 2 6 -8 10 -26 10 -40z m-65 -8 c25 -18 84 -113
100 -162 10 -30 23 -62 30 -70 7 -8 15 -27 18 -41 4 -14 17 -41 31 -61 l24
-36 -32 -29 c-44 -41 -210 -163 -222 -163 -2 0 -3 50 -2 110 2 83 6 110 16
110 7 0 23 24 35 53 12 28 34 76 48 104 30 57 24 74 -17 53 -18 -10 -30 -11
-49 -2 -37 17 -41 16 -64 -22 -17 -27 -19 -39 -11 -61 5 -14 10 -100 10 -191
0 -179 -5 -193 -49 -133 -13 18 -19 29 -12 25 18 -12 34 4 20 20 -9 11 -9 21
0 40 11 25 10 26 -13 20 -22 -5 -26 -2 -31 21 -4 16 -10 36 -16 45 -5 10 -9
50 -9 89 0 72 0 72 20 54 25 -23 48 -8 32 21 -6 11 -7 27 -1 41 5 13 6 30 2
40 -5 12 11 32 58 75 68 61 68 62 84 50z m0 -181 c3 -5 -8 -38 -23 -73 l-29
-63 -5 65 c-3 36 -3 68 -1 73 6 10 51 9 58 -2z m-229 -32 c-3 -17 -6 -48 -6
-68 l-1 -36 -26 49 -25 50 22 18 c33 26 43 23 36 -13z m-811 -288 l-6 -25 -21
32 c-34 54 -51 40 -22 -18 12 -24 14 -38 7 -49 -25 -40 -61 -10 -64 54 -3 67
0 72 54 103 l52 30 3 -51 c2 -28 0 -62 -3 -76z m835 -21 c-10 -19 -27 -43 -38
-53 -20 -18 -20 -18 -15 25 4 25 14 48 25 56 22 16 24 42 3 42 -16 0 -18 12
-8 49 5 21 9 17 28 -30 21 -52 21 -55 5 -89z m-338 73 c-4 -82 -10 -94 -28
-60 -8 15 -14 38 -12 50 2 15 -2 21 -12 19 -18 -4 -9 5 27 29 16 10 28 18 28
18 0 1 -1 -25 -3 -56z m148 -3 c-4 -28 -13 -58 -22 -66 -14 -14 -17 -11 -31
30 l-15 45 31 20 c18 11 35 20 38 20 3 1 3 -22 -1 -49z m-70 -76 c9 -26 9 -38
1 -48 -12 -15 -81 -20 -81 -6 0 20 52 100 61 94 4 -2 13 -20 19 -40z m-125 0
c20 -47 8 -62 -46 -58 -23 1 -43 5 -45 7 -4 4 65 87 72 87 2 0 11 -16 19 -36z
m-954 0 c21 -26 69 -45 133 -55 43 -6 66 -14 79 -30 21 -26 22 -49 3 -49 -8 0
-16 -5 -18 -11 -2 -5 -36 -19 -76 -29 -40 -11 -91 -29 -112 -41 -22 -13 -41
-21 -43 -18 -7 8 6 249 13 249 4 0 13 -7 21 -16z m669 2 c0 -3 -4 -8 -10 -11
-5 -3 -10 -1 -10 4 0 6 5 11 10 11 6 0 10 -2 10 -4z m-290 -25 c14 -27 13 -29
-15 -23 -28 5 -27 4 -19 26 8 21 21 20 34 -3z m140 -1 c0 -5 -2 -10 -4 -10 -3
0 -8 5 -11 10 -3 6 -1 10 4 10 6 0 11 -4 11 -10z m736 -38 c-4 -3 -11 -1 -18
6 -8 8 -8 15 3 28 13 16 14 16 17 -5 2 -13 1 -25 -2 -29z m124 29 c8 -17 6
-20 -21 -26 -38 -9 -42 -4 -23 23 19 27 30 28 44 3z m-580 -17 c0 -9 -10 -14
-27 -14 -25 0 -26 1 -8 20 19 21 35 18 35 -6z m-160 1 c10 -13 9 -15 -8 -15
-15 0 -20 5 -16 15 4 8 7 15 9 15 1 0 8 -7 15 -15z m890 -25 c0 -11 -4 -20
-10 -20 -5 0 -10 9 -10 20 0 11 5 20 10 20 6 0 10 -9 10 -20z m-1260 -10 c0
-5 -4 -10 -10 -10 -5 0 -10 5 -10 10 0 6 5 10 10 10 6 0 10 -4 10 -10z m1190
-21 c0 -4 -8 -17 -18 -30 -10 -13 -31 -48 -47 -76 -15 -29 -33 -53 -39 -53
-15 1 -76 85 -76 105 0 8 -5 15 -12 15 -8 0 -7 5 3 16 9 8 42 19 75 23 32 5
60 13 61 18 4 11 53 -6 53 -18z m-1061 6 c2 -3 0 -9 -5 -14 -11 -10 -124 -22
-124 -14 0 4 8 15 17 26 15 15 26 18 62 13 25 -3 47 -8 50 -11z m81 1 c0 -9
-30 -14 -35 -6 -4 6 3 10 14 10 12 0 21 -2 21 -4z m380 -61 c0 -13 -59 -85
-69 -85 -4 0 -16 18 -26 40 -18 39 -18 41 1 61 31 35 57 40 76 16 10 -12 18
-27 18 -32z m40 39 c-15 -17 -30 -18 -30 -1 0 7 9 13 21 14 17 2 18 -1 9 -13z
m104 -5 c9 -8 -61 -109 -75 -109 -7 0 -14 14 -19 35 -1 6 -6 15 -10 20 -5 7 1
24 16 43 21 26 30 31 52 26 15 -4 31 -10 36 -15z m126 -4 c0 -15 -48 -75 -60
-75 -13 0 -33 71 -24 80 10 9 64 18 77 12 4 -2 7 -9 7 -17z m93 3 c4 -13 -1
-33 -10 -48 l-17 -25 -13 34 c-8 18 -12 40 -9 47 9 22 43 16 49 -8z m363 -33
c9 -51 9 -53 -8 -39 -10 10 -17 30 -16 55 1 56 12 48 24 -16z m-936 26 c0 -4
-10 -21 -22 -36 -20 -26 -22 -27 -35 -9 -25 34 -15 46 45 53 6 0 12 -3 12 -8z
m100 -6 c-7 -8 -14 -15 -15 -15 -2 0 -5 7 -9 15 -4 10 1 15 16 15 17 0 18 -2
8 -15z m740 5 c0 -5 -5 -10 -11 -10 -5 0 -7 5 -4 10 3 6 8 10 11 10 2 0 4 -4
4 -10z m-781 -19 c8 -14 2 -29 -27 -69 -40 -55 -53 -60 -63 -21 -4 17 1 34 19
59 40 55 55 61 71 31z m-210 -12 c-19 -28 -33 -29 -37 -1 -3 18 1 22 24 22 24
0 25 -1 13 -21z m66 -19 c21 -40 20 -41 -25 -73 l-39 -28 -9 33 c-7 28 -5 38
16 66 30 40 37 40 57 2z m-230 0 c-21 -23 -35 -26 -35 -6 0 13 15 21 44 25 5
0 1 -8 -9 -19z m821 3 c4 -10 8 -24 8 -30 1 -16 -46 -93 -57 -93 -11 0 -1 44
19 84 18 37 18 40 -2 32 -14 -5 -15 -4 -4 9 16 20 26 19 36 -2z m354 6 c0 -26
127 -165 174 -189 36 -19 56 -47 40 -58 -7 -4 -39 -47 -72 -97 -33 -49 -71
-101 -85 -113 -25 -24 -25 -24 -36 -4 -27 51 10 225 59 277 11 12 20 29 20 38
0 19 -19 21 -70 7 -19 -5 -52 -11 -73 -13 -48 -5 -69 -23 -46 -40 9 -7 14 -18
11 -26 -2 -7 1 -17 8 -21 7 -4 16 -43 21 -86 10 -94 16 -118 42 -162 10 -17
16 -32 12 -32 -3 0 -32 18 -62 40 -31 22 -63 40 -72 41 -9 0 -31 10 -49 22
-33 22 -34 23 -34 98 -1 67 2 83 28 125 22 39 29 45 32 29 7 -40 12 -49 24
-37 7 7 7 19 -1 42 -9 28 -7 38 26 95 26 46 40 61 53 58 10 -3 21 0 24 6 9 14
26 14 26 0z m-275 -31 c-14 -70 -17 -76 -26 -44 -6 21 -3 35 9 52 23 31 25 30
17 -8z m-341 -20 c15 -35 15 -35 -21 -69 l-35 -34 6 45 c8 63 10 73 20 88 10
16 12 15 30 -30z m199 -3 c-3 -9 -8 -14 -10 -11 -3 3 -2 9 2 15 9 16 15 13 8
-4z m-405 -54 c-9 -37 -13 -41 -25 -28 -13 13 -12 19 8 46 12 17 24 30 25 28
2 -1 -2 -22 -8 -46z m125 -25 c-5 -10 -13 -12 -22 -6 -12 7 -11 13 5 37 18 27
19 27 22 6 2 -12 0 -29 -5 -37z m257 28 c0 -9 -10 -14 -27 -14 -25 0 -26 1 -8
20 19 21 35 18 35 -6z m-760 -4 c0 -19 -11 -26 -23 -14 -8 8 3 34 14 34 5 0 9
-9 9 -20z m130 -6 c0 -8 -4 -12 -10 -9 -5 3 -10 10 -10 16 0 5 5 9 10 9 6 0
10 -7 10 -16z m126 0 c-3 -9 -6 -23 -6 -32 0 -13 -3 -12 -14 4 -10 13 -11 23
-4 31 15 18 31 16 24 -3z m37 -4 c3 -11 1 -20 -4 -20 -5 0 -9 9 -9 20 0 11 2
20 4 20 2 0 6 -9 9 -20z m314 -16 c-9 -9 -28 6 -21 18 4 6 10 6 17 -1 6 -6 8
-13 4 -17z m621 -56 c-3 -7 -13 -38 -24 -68 l-18 -55 -12 51 c-6 28 -14 56
-18 62 -6 9 11 15 63 21 7 0 11 -5 9 -11z m-299 -82 c-15 -25 -25 -33 -39 -29
-23 6 -27 23 -6 23 8 0 24 9 37 20 13 10 25 19 26 20 1 0 -7 -15 -18 -34z m30
-71 c-2 -25 -4 -45 -5 -45 -22 0 -33 16 -28 39 7 25 22 51 31 51 2 0 3 -20 2
-45z m322 -170 c-9 -30 -20 -55 -24 -55 -5 0 -5 5 -1 11 3 6 1 15 -6 19 -9 6
-5 17 16 44 16 20 30 36 30 36 1 0 -6 -25 -15 -55z"/>
<path d="M493 1078 c-35 -16 -63 -36 -63 -44 0 -18 11 -18 36 1 35 26 39 18
36 -65 -3 -54 -1 -80 7 -80 6 0 11 3 12 8 0 4 3 34 5 66 3 36 13 72 25 93 12
20 18 38 13 43 -5 4 -37 -5 -71 -22z"/>
</g>
</svg>
