<?xml version="1.0" standalone="no"?>
<!DOCTYPE svg PUBLIC "-//W3C//DTD SVG 20010904//EN"
 "http://www.w3.org/TR/2001/REC-SVG-20010904/DTD/svg10.dtd">
<svg version="1.0" xmlns="http://www.w3.org/2000/svg"
 width="328.000000pt" height="194.000000pt" viewBox="0 0 328.000000 194.000000"
 preserveAspectRatio="xMidYMid meet">
<metadata>
Created by potrace 1.16, written by Peter Selinger 2001-2019
</metadata>
<g transform="translate(0.000000,194.000000) scale(0.100000,-0.100000)"
fill="#000000" stroke="none">
<path d="M864 1893 c-11 -11 -35 -30 -54 -43 -43 -29 -100 -81 -100 -92 0 -19
-122 -125 -215 -186 -55 -36 -111 -76 -125 -89 -26 -24 -29 -25 -70 -27 -14
-1 -25 -7 -24 -13 1 -7 2 -27 3 -44 1 -22 5 -30 15 -26 7 3 23 -5 34 -18 14
-16 27 -22 41 -18 12 3 21 1 21 -5 0 -6 14 -24 31 -41 l30 -31 -23 -32 c-12
-18 -39 -49 -60 -69 -21 -20 -38 -41 -38 -46 0 -6 26 -9 58 -9 39 0 65 -5 82
-17 13 -9 31 -17 40 -17 8 0 59 -29 112 -65 74 -49 106 -65 133 -65 40 0 41 2
18 37 -15 22 -15 27 -2 37 9 7 13 24 11 45 -2 19 2 53 8 75 6 23 13 48 14 56
13 61 20 81 32 91 9 7 62 13 133 15 l119 3 17 -40 18 -39 -33 -28 c-19 -15
-48 -41 -65 -57 -84 -83 -202 -183 -244 -205 -57 -31 -64 -59 -24 -89 57 -43
59 -45 38 -50 -37 -7 -155 20 -155 35 0 8 -9 14 -20 14 -13 0 -18 5 -14 15 5
11 -1 15 -19 15 -19 0 -27 -8 -36 -32 -32 -88 -55 -119 -125 -171 -101 -74
-221 -150 -288 -181 -54 -26 -77 -56 -43 -56 8 0 15 -6 15 -14 0 -17 35 -40
97 -65 66 -26 200 -107 246 -147 20 -19 41 -34 46 -34 5 0 11 -7 13 -16 4 -19
155 -86 164 -72 4 5 0 16 -8 24 -11 11 -12 32 -6 102 10 118 12 123 61 154
105 66 113 68 193 72 44 2 87 7 97 11 16 7 17 1 11 -81 -3 -49 -8 -92 -11 -97
-10 -16 -106 22 -129 53 -10 12 -14 12 -29 0 -16 -13 -17 -27 -12 -120 4 -58
9 -114 11 -125 2 -11 5 -32 5 -47 1 -25 4 -26 51 -26 27 -1 52 4 56 9 3 5 24
21 47 36 22 14 56 40 75 59 18 18 54 41 78 51 24 10 44 23 44 29 0 7 54 10
163 10 89 -1 217 3 285 8 106 8 122 11 122 26 0 10 -10 20 -22 24 -35 9 -109
7 -147 -4 -48 -13 -65 2 -57 53 4 21 13 48 20 60 8 12 20 51 26 87 25 146 40
200 62 225 61 69 89 93 149 124 35 18 84 45 109 60 25 15 72 37 105 50 33 12
84 32 114 43 30 12 80 35 110 53 31 18 67 36 81 40 14 4 59 26 100 47 41 22
91 48 110 57 139 68 167 81 173 81 18 0 184 79 257 122 25 14 65 31 89 38 50
13 130 62 111 68 -7 3 -29 0 -49 -6 -83 -25 -260 -40 -431 -37 -384 6 -671 25
-881 61 -49 8 -152 14 -236 14 -143 0 -257 13 -277 31 -15 13 -94 11 -102 -3
-4 -7 1 -17 13 -25 19 -13 21 -21 16 -86 -6 -97 7 -181 30 -185 13 -3 17 4 17
31 0 62 22 68 280 73 216 4 323 11 389 25 107 24 230 27 686 22 105 -2 222 -1
260 1 l70 4 -50 -24 c-151 -71 -308 -140 -365 -160 -36 -12 -96 -35 -135 -50
-141 -54 -322 -112 -415 -132 -112 -25 -327 -92 -387 -122 -39 -19 -43 -24
-43 -59 0 -26 9 -51 30 -79 l30 -42 -64 0 c-37 0 -68 5 -72 11 -5 8 -51 10
-158 6 -155 -5 -216 -18 -216 -44 0 -12 13 -14 78 -8 42 4 106 11 142 16 102
14 120 12 120 -11 0 -11 4 -20 10 -20 5 0 7 -7 4 -15 -5 -12 -27 -15 -118 -14
-115 1 -198 -7 -228 -23 -16 -8 -18 -4 -17 34 0 24 4 65 7 93 7 46 9 50 42 57
19 4 85 10 145 13 125 7 155 12 155 24 0 25 -255 25 -300 1 -17 -9 -20 -7 -20
12 1 25 29 82 30 59 0 -11 10 -12 48 -6 26 4 81 8 122 9 46 2 87 9 105 19 17
9 26 17 20 17 -132 9 -235 9 -259 0 -16 -6 -30 -9 -31 -8 -2 2 3 39 11 82 9
54 21 87 35 103 26 27 21 35 -33 48 l-41 11 31 35 c33 37 33 56 1 38 -15 -8
-21 -4 -34 20 -8 17 -15 38 -15 48 0 10 -16 41 -36 68 -77 110 -115 170 -121
195 -3 14 -10 30 -14 36 -15 18 -42 147 -45 213 -4 75 -14 91 -40 64z m-9
-110 c3 -21 12 -64 20 -95 8 -32 15 -60 15 -63 0 -3 -16 6 -35 21 -19 14 -35
32 -35 38 0 7 -11 23 -25 36 -20 19 -22 26 -13 43 11 22 48 56 60 57 4 0 10
-17 13 -37z m-67 -141 l22 -34 -29 7 c-60 13 -66 0 -64 -130 l2 -117 -42 7
c-23 4 -51 15 -62 26 -19 19 -19 19 18 91 104 202 114 212 155 150z m-150 -49
c-14 -21 -28 -48 -32 -61 -4 -12 -12 -22 -17 -22 -5 0 -9 -5 -9 -11 0 -23
-115 -199 -124 -188 -1 2 -13 21 -25 41 l-23 38 71 77 c87 96 171 176 179 169
3 -3 -6 -23 -20 -43z m213 -70 c-10 -21 -27 -64 -37 -95 -13 -44 -22 -58 -37
-58 -17 0 -18 7 -14 93 3 50 6 93 6 95 1 1 24 2 51 2 l50 0 -19 -37z m69 -14
c0 -5 23 -34 51 -65 28 -31 49 -57 47 -59 -2 -1 -43 -5 -91 -9 l-89 -6 7 32
c12 54 49 126 63 121 6 -3 12 -9 12 -14z m-471 -16 c-26 -32 -52 -58 -44 -43
10 18 47 60 53 60 2 0 -2 -8 -9 -17z m1106 -49 c83 -4 121 -8 240 -24 39 -6
95 -13 125 -17 55 -7 55 -7 20 -15 -19 -4 -118 -10 -220 -13 -102 -3 -199 -7
-216 -10 -18 -3 -69 -8 -115 -10 -46 -3 -91 -8 -101 -11 -15 -4 -18 1 -18 33
0 85 1 86 109 78 53 -4 132 -8 176 -11z m-995 -140 c0 -40 -2 -44 -15 -30 -18
17 -19 30 -5 57 16 29 20 23 20 -27z m125 27 c41 -8 39 -10 -24 -30 -58 -19
-71 -15 -71 20 0 29 2 31 28 25 15 -4 45 -11 67 -15z m344 5 c-2 -2 -44 -6
-94 -9 -55 -4 -82 -2 -70 3 19 8 173 14 164 6z m-303 -81 c3 -14 3 -37 -1 -52
-4 -16 -6 -62 -6 -103 l1 -75 -36 65 c-20 36 -52 81 -71 101 l-35 37 23 16
c13 9 35 16 49 16 14 0 32 5 40 10 23 15 29 12 36 -15z m51 -7 c-3 -8 -6 -5
-6 6 -1 11 2 17 5 13 3 -3 4 -12 1 -19z m-220 -70 c60 -62 103 -128 83 -128
-5 0 -10 4 -10 9 0 11 -84 53 -157 79 l-53 19 31 41 c17 23 34 42 38 42 3 0
34 -28 68 -62z m594 -79 c-2 -8 -14 -59 -26 -114 -32 -138 -40 -169 -53 -191
-10 -16 -11 -15 -7 11 3 17 2 88 -2 159 -6 95 -5 132 3 141 18 17 90 12 85 -6z
m-227 -126 c-26 -38 -56 -78 -67 -90 -18 -21 -21 -21 -44 -5 l-25 16 23 18
c13 10 29 21 34 25 6 5 34 29 64 56 29 26 55 47 58 47 3 0 -17 -30 -43 -67z
m1300 57 c-11 -11 -146 -71 -224 -99 -53 -20 -210 -98 -266 -133 -83 -52 -80
-52 -108 -12 -36 53 -24 67 91 103 54 17 107 35 118 40 11 5 85 26 165 45 80
20 163 42 185 50 49 18 52 19 39 6z m-1197 -365 l-2 -179 -39 -10 c-27 -6 -45
-5 -58 3 -10 6 -33 11 -51 11 -45 0 -124 28 -131 46 -3 8 5 32 18 52 14 20 32
56 41 80 10 23 21 42 25 42 4 0 10 8 14 18 3 9 11 25 18 36 10 13 10 20 2 23
-21 7 -1 46 75 147 l76 100 7 -94 c4 -52 6 -176 5 -275z m-442 105 c-10 -11
-22 -20 -27 -20 -5 0 -4 9 2 20 6 11 18 20 27 20 14 0 14 -2 -2 -20z m221 -22
c3 -3 -22 -55 -56 -116 -33 -60 -60 -118 -60 -128 0 -12 -3 -15 -10 -8 -10 10
-33 241 -26 253 5 7 144 6 152 -1z m-191 -49 c4 -17 4 -50 1 -73 -4 -24 -2
-56 4 -72 7 -17 11 -84 10 -164 -1 -74 -2 -161 -2 -192 0 -56 -1 -57 -22 -46
-11 6 -47 38 -78 71 -49 52 -58 67 -64 111 -3 28 -13 69 -21 91 -15 43 -9 195
9 195 4 0 14 11 20 25 9 20 45 43 56 36 2 -1 17 9 33 23 39 33 46 33 54 -5z
m980 -41 c4 -4 2 -22 -4 -40 -6 -18 -17 -69 -25 -113 -7 -44 -20 -96 -28 -115
l-15 -35 -11 78 c-17 108 -16 164 3 171 8 3 15 10 15 16 0 5 -7 10 -15 10 -8
0 -15 8 -15 18 0 14 8 17 44 17 24 0 47 -3 51 -7z m-1205 -150 c-1 -66 5 -112
19 -157 11 -36 19 -66 18 -68 -2 -1 -27 13 -57 32 -30 19 -92 53 -137 75 -46
21 -83 45 -83 52 0 7 24 26 54 41 30 16 80 48 112 72 33 24 62 44 67 44 4 1 7
-41 7 -91z m1070 64 l0 -29 -112 -6 c-62 -4 -147 -15 -188 -26 -41 -10 -76
-18 -76 -17 -1 0 1 15 3 32 6 39 11 40 207 55 77 5 143 12 145 15 12 12 21 1
21 -24z m4 -78 c3 -9 6 -26 6 -39 0 -21 -2 -22 -37 -14 -59 13 -201 10 -278
-6 -38 -8 -71 -15 -72 -15 -2 0 -3 12 -3 26 0 14 4 23 9 20 4 -3 35 -1 67 5
235 41 299 46 308 23z m-692 -24 c29 0 21 -15 -22 -44 -45 -29 -45 -29 -28 26
8 26 15 35 22 28 5 -5 18 -10 28 -10z m706 -81 c2 -14 -14 -17 -115 -23 -170
-11 -257 -27 -261 -48 -4 -23 16 -23 188 2 200 29 190 31 190 -36 l0 -57 -87
7 c-49 4 -117 9 -153 11 -36 3 -89 8 -118 11 l-53 6 3 56 c3 54 4 56 36 64 69
18 151 26 257 24 92 -1 110 -4 113 -17z m-490 -174 c28 -4 42 -12 42 -22 0
-11 4 -13 13 -5 6 5 40 12 75 14 l63 4 -38 -22 c-21 -12 -60 -40 -88 -63 -27
-23 -70 -58 -95 -78 l-45 -35 -7 33 c-4 19 -10 66 -13 104 -4 39 -8 81 -11 94
l-5 23 33 -20 c18 -11 52 -23 76 -27z"/>
<path d="M1194 1046 c-10 -27 6 -35 78 -37 46 -1 73 2 84 12 15 13 13 15 -27
20 -24 3 -63 10 -86 14 -35 6 -44 5 -49 -9z"/>
</g>
</svg>
