<?xml version="1.0" standalone="no"?>
<!DOCTYPE svg PUBLIC "-//W3C//DTD SVG 20010904//EN"
 "http://www.w3.org/TR/2001/REC-SVG-20010904/DTD/svg10.dtd">
<svg version="1.0" xmlns="http://www.w3.org/2000/svg"
 width="326.000000pt" height="162.000000pt" viewBox="0 0 326.000000 162.000000"
 preserveAspectRatio="xMidYMid meet">
<metadata>
Created by potrace 1.16, written by Peter Selinger 2001-2019
</metadata>
<g transform="translate(0.000000,162.000000) scale(0.100000,-0.100000)"
fill="#000000" stroke="none">
<path d="M1434 1465 c-4 -8 -1 -22 6 -30 10 -12 9 -15 -8 -15 -11 0 -25 7 -32
15 -7 8 -19 15 -26 15 -8 0 -14 5 -14 10 0 6 -7 10 -15 10 -18 0 -53 -53 -61
-92 -8 -36 -63 -101 -64 -75 0 11 9 30 20 44 11 14 17 29 14 34 -9 15 -32 10
-47 -11 -15 -22 -27 -17 -27 12 0 36 -43 18 -60 -26 -9 -24 -13 -26 -26 -15
-10 8 -14 22 -11 39 4 20 0 28 -20 37 -31 15 -46 8 -38 -16 6 -20 -32 -74 -46
-66 -5 4 -9 17 -9 30 0 29 -31 86 -45 81 -5 -2 -9 -15 -7 -29 3 -28 -35 -100
-49 -91 -12 7 -11 41 1 49 6 3 10 13 10 22 0 11 -6 14 -26 9 -19 -5 -30 -2
-39 11 -11 14 -16 15 -26 6 -10 -10 -10 -17 0 -37 12 -21 11 -28 -5 -50 -11
-14 -22 -26 -25 -26 -14 0 -20 52 -8 66 16 19 3 32 -36 36 -26 3 -30 0 -30
-22 0 -14 -9 -38 -21 -54 l-20 -28 -18 27 c-17 26 -17 28 3 49 26 28 27 46 1
46 -10 0 -31 5 -45 12 -38 17 -50 0 -34 -50 10 -33 9 -44 -1 -57 -23 -27 -53
-18 -78 25 -22 39 -44 50 -58 29 -3 -6 -1 -16 5 -22 23 -23 11 -32 -38 -29
-42 3 -51 0 -68 -21 -17 -22 -19 -37 -15 -109 2 -46 8 -87 11 -91 4 -4 31 4
58 19 28 14 58 24 67 22 14 -2 13 -8 -9 -40 -14 -20 -25 -44 -25 -52 0 -31 28
-16 50 26 12 23 30 53 40 65 l18 24 16 -22 c13 -19 13 -26 -1 -60 -8 -22 -12
-47 -8 -56 20 -50 8 -143 -19 -143 -35 1 -55 14 -61 41 -4 17 -13 29 -22 29
-10 0 -14 -6 -10 -20 4 -16 0 -20 -19 -20 -16 0 -24 -6 -25 -17 0 -11 -3 -13
-6 -5 -7 18 -31 15 -41 -5 -9 -18 2 -141 16 -193 6 -21 14 -25 49 -27 34 -1
46 4 68 29 34 38 47 34 70 -22 3 -8 12 -26 20 -40 11 -19 11 -27 2 -39 -10
-12 -13 -10 -21 13 -15 40 -31 25 -31 -30 0 -46 -2 -49 -25 -49 -17 0 -29 8
-38 28 -14 29 -42 37 -42 12 0 -18 -14 -19 -40 -3 -10 7 -23 9 -27 4 -4 -4 -8
-66 -8 -137 0 -113 2 -129 16 -129 9 0 22 7 30 16 7 8 25 22 41 30 l29 15 -16
-31 c-27 -52 6 -86 38 -40 13 19 16 17 48 -47 19 -38 35 -70 36 -72 1 -2 9 -1
17 2 12 5 13 12 3 43 -9 29 -9 38 1 42 7 2 12 17 12 32 0 46 14 42 34 -8 23
-58 44 -82 62 -75 19 7 18 38 -3 54 -20 18 -52 87 -53 116 0 16 8 23 31 28 17
4 33 4 37 1 3 -4 -2 -29 -12 -57 -16 -43 -17 -53 -5 -60 21 -13 26 -11 43 13
15 21 16 21 22 2 23 -63 35 -84 49 -84 23 0 30 28 12 48 -16 19 -57 97 -57
109 0 4 9 19 19 32 l19 25 22 -44 c18 -36 20 -47 11 -63 -16 -25 1 -46 33 -40
18 4 28 -3 45 -31 13 -20 29 -36 37 -36 25 0 15 37 -21 80 -19 23 -35 45 -35
50 0 17 31 80 39 80 5 0 19 -16 31 -35 21 -34 22 -47 4 -89 -6 -17 -4 -18 23
-13 22 4 33 2 37 -8 7 -20 36 -19 36 0 0 9 -7 26 -15 39 -17 26 -12 68 10 86
10 9 16 6 25 -10 11 -20 9 -45 -6 -84 -8 -22 25 -21 41 1 11 15 14 14 29 -15
9 -18 21 -32 27 -32 22 0 19 30 -6 70 -24 38 -25 44 -12 57 13 13 17 13 32 -3
9 -11 26 -35 38 -54 13 -19 32 -39 44 -44 15 -7 20 -18 19 -40 -1 -25 3 -32
21 -34 12 -2 26 -15 33 -32 19 -47 37 -57 60 -33 10 11 39 30 64 43 25 12 46
25 46 29 0 30 549 405 732 501 84 44 94 45 123 14 13 -14 31 -24 39 -21 16 6
259 -84 284 -105 9 -8 35 -23 57 -33 60 -27 153 -93 172 -121 9 -14 22 -23 30
-20 8 3 27 -1 43 -9 32 -17 60 -20 60 -6 0 4 -38 33 -85 62 -47 30 -131 84
-187 121 -57 37 -107 68 -111 68 -4 0 -45 25 -91 55 -80 53 -118 85 -99 85 13
0 220 120 272 158 24 17 81 43 127 57 84 26 123 50 106 67 -6 6 -26 1 -53 -11
-24 -11 -78 -30 -119 -42 -41 -12 -126 -46 -190 -76 -95 -45 -207 -93 -217
-93 -2 0 -3 6 -3 14 0 15 -78 46 -116 46 -25 0 -73 26 -149 80 -27 19 -93 62
-145 94 -95 59 -217 137 -320 205 -29 20 -78 60 -108 89 -55 54 -78 63 -88 37z
m-10 -114 c12 -10 11 -24 -6 -88 -11 -42 -28 -115 -38 -162 -11 -47 -28 -117
-40 -156 l-20 -70 5 125 c3 69 8 186 11 261 l6 136 35 -18 c19 -9 40 -22 47
-28z m178 -39 c88 -57 96 -64 58 -46 -73 35 -170 97 -164 106 3 5 15 2 27 -7
12 -8 48 -32 79 -53z m-652 -3 c0 -5 -7 -9 -15 -9 -15 0 -20 12 -9 23 8 8 24
-1 24 -14z m110 -5 c0 -8 -7 -14 -15 -14 -15 0 -21 21 -9 33 10 9 24 -2 24
-19z m-345 6 c3 -5 1 -10 -4 -10 -6 0 -11 5 -11 10 0 6 2 10 4 10 3 0 8 -4 11
-10z m115 0 c0 -5 -4 -10 -10 -10 -5 0 -10 5 -10 10 0 6 5 10 10 10 6 0 10 -4
10 -10z m328 -2 c-2 -6 -10 -14 -16 -16 -7 -2 -10 2 -6 12 7 18 28 22 22 4z
m142 -3 c0 -8 -4 -15 -10 -15 -5 0 -7 7 -4 15 4 8 8 15 10 15 2 0 4 -7 4 -15z
m254 -21 c22 -13 24 -19 15 -42 -6 -15 -10 -28 -10 -29 1 -2 1 -34 1 -71 l0
-68 -35 4 c-41 5 -42 11 -20 121 11 51 13 77 6 84 -6 6 -13 9 -15 6 -7 -7 -36
-150 -36 -176 0 -16 -6 -23 -20 -23 -24 0 -24 6 -5 90 29 125 34 133 66 126
16 -3 40 -13 53 -22z m-1087 -16 c36 -33 28 -46 -39 -66 l-63 -18 -6 40 c-9
57 -3 66 44 66 28 0 48 -7 64 -22z m138 -18 c-3 -5 -20 -10 -36 -10 -18 0 -28
4 -24 10 3 6 20 10 36 10 18 0 28 -4 24 -10z m590 -27 c-3 -16 -11 -32 -17
-38 -8 -7 -9 -3 -4 15 4 14 8 31 8 38 1 6 6 12 11 12 5 0 6 -12 2 -27z m105
-30 l-1 -58 -24 45 c-31 58 -31 70 0 70 24 0 25 -3 25 -57z m335 45 c29 -13
28 -1 9 -142 -5 -34 -10 -43 -22 -41 -10 2 -21 4 -25 4 -12 1 -3 191 9 191 2
0 15 -5 29 -12z m-712 -23 c-3 -9 -8 -14 -10 -11 -3 3 -2 9 2 15 9 16 15 13 8
-4z m87 -31 c0 -7 -10 -34 -22 -59 -22 -44 -22 -45 -35 -23 -17 32 -16 48 7
86 17 28 23 32 35 22 8 -7 15 -19 15 -26z m-127 -14 c8 -32 -6 -55 -27 -47
-26 10 -30 35 -11 63 18 28 29 24 38 -16z m214 4 c-11 -35 -11 -35 -23 -12
-13 25 -3 48 21 48 10 0 11 -8 2 -36z m-424 6 c-1 -8 -7 -29 -14 -46 -14 -36
-7 -66 15 -58 8 3 19 18 24 32 10 28 11 27 27 -23 2 -8 9 -15 14 -15 16 0 23
38 12 59 -14 25 -14 71 -1 71 17 0 28 -33 22 -73 -5 -39 -4 -40 21 -33 14 3
28 2 31 -3 3 -4 20 -11 37 -15 24 -4 35 -2 44 11 11 15 13 14 20 -8 10 -33 35
-59 57 -59 10 0 19 3 19 8 1 4 3 17 4 29 1 12 8 36 15 53 10 24 15 28 26 19 8
-6 14 -18 14 -27 0 -15 28 -41 45 -42 6 0 11 18 11 41 2 48 15 67 33 45 10
-12 9 -21 -4 -46 -20 -38 -13 -50 15 -25 19 17 20 17 31 -9 26 -56 47 -21 24
39 -12 34 -14 49 -5 64 6 12 13 21 16 21 3 0 14 -20 25 -45 11 -25 24 -43 30
-40 11 7 12 -46 3 -133 -5 -49 -11 -63 -26 -68 -26 -8 -32 0 -18 26 15 29 -2
49 -25 30 -12 -10 -15 -10 -15 1 0 8 -4 20 -9 28 -8 12 -13 12 -35 -2 -32 -21
-33 -21 -39 3 -9 37 -30 23 -23 -15 8 -42 -7 -75 -34 -75 -24 0 -26 27 -5 57
15 22 5 41 -15 28 -5 -3 -20 1 -34 10 -28 19 -43 6 -25 -23 19 -30 4 -72 -26
-72 -31 0 -38 12 -20 36 8 10 15 27 15 38 0 17 -2 17 -24 3 -23 -16 -24 -15
-36 13 -15 36 -22 37 -61 8 -29 -21 -31 -22 -40 -5 -17 29 -29 9 -22 -38 4
-36 2 -46 -11 -51 -30 -11 -49 16 -42 59 6 36 5 39 -14 34 -15 -4 -24 2 -35
23 -8 16 -21 33 -27 37 -19 12 -49 83 -42 96 18 31 40 48 58 45 12 -2 20 -10
19 -18z m1067 3 c23 -13 26 -19 15 -29 -7 -7 -15 -35 -19 -63 -6 -45 -9 -51
-31 -51 -13 0 -26 4 -29 8 -8 14 16 152 26 152 6 0 23 -7 38 -17z m75 -41 c6
-4 9 -30 7 -59 -4 -50 -5 -53 -32 -53 -24 0 -27 3 -23 23 23 100 26 105 48 89z
m80 -45 c12 -10 14 -16 7 -21 -7 -4 -12 -18 -12 -32 0 -21 -4 -25 -22 -22 -20
3 -22 8 -20 38 6 54 14 60 47 37z m-1305 -38 c7 -11 17 -19 23 -16 7 3 18 -15
27 -43 16 -48 16 -49 -11 -81 l-27 -33 -17 33 c-15 30 -15 34 -1 50 18 20 21
41 7 41 -6 0 -13 -5 -16 -11 -5 -6 -12 -4 -20 8 -9 11 -10 22 -4 28 5 5 9 17
9 27 0 24 17 23 30 -3z m1427 -30 c95 -51 98 -53 49 -46 -22 4 -44 13 -48 22
-6 10 -17 13 -33 9 -39 -10 -63 3 -57 31 2 14 6 25 8 25 2 0 38 -19 81 -41z
m-573 25 c22 -9 10 -24 -20 -24 -23 0 -31 10 -17 23 8 9 17 9 37 1z m106 -25
c0 -5 -13 -9 -30 -9 -18 0 -30 5 -30 13 0 9 10 12 30 9 17 -2 30 -8 30 -13z
m75 -9 c21 -9 18 -12 -17 -13 -12 -1 -23 4 -26 11 -4 14 14 15 43 2z m-173
-46 c-2 -10 -8 -63 -14 -117 -10 -89 -13 -100 -35 -110 -24 -11 -26 -32 -3
-32 31 0 19 -24 -15 -31 -42 -8 -42 -29 1 -30 33 0 33 -2 13 -132 -9 -52 -9
-76 -1 -84 17 -17 31 0 30 35 -1 27 8 80 27 173 3 13 14 23 28 26 23 4 23 4
15 -66 -4 -39 -5 -79 -2 -88 3 -10 2 -39 -2 -64 -6 -45 -8 -47 -71 -76 -35
-17 -78 -31 -96 -32 -29 -1 -32 2 -35 31 -4 39 44 380 58 418 5 14 10 40 10
56 0 16 7 58 16 93 l16 63 31 -7 c24 -5 31 -11 29 -26z m251 29 c-7 -2 -21 -2
-30 0 -10 3 -4 5 12 5 17 0 24 -2 18 -5z m-163 -35 c0 -13 -7 -63 -15 -113 -8
-49 -15 -93 -15 -97 0 -5 -12 -8 -26 -8 l-26 0 6 73 c15 168 15 167 47 167 23
0 29 -4 29 -22z m86 -30 c-3 -24 -8 -73 -11 -110 -5 -56 -10 -67 -27 -72 -12
-3 -26 -2 -31 1 -10 6 -4 117 8 163 4 14 7 33 7 43 -1 12 7 17 29 17 30 0 30
-1 25 -42z m-752 7 c4 -14 4 -30 1 -35 -6 -10 -45 -14 -45 -6 0 2 -3 11 -6 19
-5 14 20 47 36 47 4 0 11 -11 14 -25z m846 -12 c-1 -21 -6 -65 -13 -98 -11
-50 -17 -61 -35 -63 -20 -3 -22 1 -22 51 0 30 3 74 6 99 6 40 9 44 35 46 27 2
29 0 29 -35z m76 -50 c-4 -56 -11 -82 -23 -90 -32 -24 -36 -15 -29 62 8 93 13
105 39 105 19 0 20 -4 13 -77z m81 1 c2 -67 1 -72 -20 -78 -12 -3 -26 -6 -30
-6 -8 0 1 137 10 153 3 4 12 7 21 5 12 -2 17 -18 19 -74z m-703 50 c9 -25 7
-34 -8 -34 -19 0 -29 17 -22 35 7 20 22 19 30 -1z m1058 -28 c26 -17 44 -34
39 -39 -5 -5 -34 -12 -64 -16 -46 -6 -55 -5 -46 6 9 9 7 14 -5 19 -9 3 -16 12
-16 20 0 8 -7 14 -15 14 -8 0 -15 -9 -15 -20 0 -20 -25 -38 -36 -27 -3 3 0 23
5 45 l11 40 48 -6 c29 -3 65 -17 94 -36z m-262 -14 c0 -42 -3 -50 -24 -60 -32
-14 -36 -8 -36 55 0 52 0 53 30 53 29 0 30 -1 30 -48z m80 34 c0 -44 -14 -76
-32 -76 -18 0 -20 5 -14 31 3 17 6 38 6 45 0 8 9 14 20 14 11 0 20 -6 20 -14z
m-1370 -21 c0 -8 -4 -15 -10 -15 -5 0 -7 7 -4 15 4 8 8 15 10 15 2 0 4 -7 4
-15z m-270 -25 c10 0 23 -12 30 -30 11 -27 10 -33 -18 -70 -36 -50 -47 -41
-56 49 -7 57 -5 63 9 57 9 -3 25 -6 35 -6z m2010 -10 c-8 -5 -22 -9 -30 -9
-10 0 -8 3 5 9 27 12 43 12 25 0z m-1144 -25 c11 -27 -2 -37 -14 -11 -7 16 -8
26 -1 26 5 0 12 -7 15 -15z m-706 -1 c0 -11 -41 -64 -50 -64 -18 0 -32 40 -19
56 11 13 69 20 69 8z m138 -6 c-6 -17 -78 -29 -78 -13 0 19 11 25 48 25 22 0
32 -4 30 -12z m527 -57 c-4 -3 -15 5 -26 18 -16 19 -17 26 -7 39 11 12 14 10
26 -18 7 -18 10 -35 7 -39z m-111 40 c4 -5 3 -16 0 -25 -5 -13 -9 -14 -20 -5
-8 6 -14 18 -14 25 0 16 26 19 34 5z m-104 -15 c0 -7 -6 -19 -14 -25 -11 -9
-15 -8 -20 5 -10 26 -7 34 14 34 11 0 20 -6 20 -14z m1172 -4 c5 -18 -19 -42
-42 -42 -11 0 -14 43 -3 53 13 14 41 7 45 -11z m48 14 c0 -3 -4 -8 -10 -11 -5
-3 -10 -1 -10 4 0 6 5 11 10 11 6 0 10 -2 10 -4z m-1326 -21 c-4 -8 -10 -15
-15 -15 -5 0 -9 7 -9 15 0 8 7 15 15 15 9 0 12 -6 9 -15z m-109 -5 c-3 -5 -11
-10 -16 -10 -6 0 -7 5 -4 10 3 6 11 10 16 10 6 0 7 -4 4 -10z m1301 -17 c-2
-16 -10 -29 -19 -31 -12 -2 -15 4 -13 25 5 35 3 33 20 33 10 0 14 -9 12 -27z
m339 -3 c4 -6 -2 -7 -16 -1 -13 4 -25 14 -27 20 -3 10 0 10 16 2 12 -6 24 -16
27 -21z m-1349 -48 c8 -29 47 -27 49 3 1 11 6 28 11 38 9 16 12 16 34 -8 28
-30 38 -31 56 -8 7 10 15 15 19 11 8 -8 -12 -398 -21 -407 -8 -8 -44 37 -44
55 0 8 -8 27 -17 41 -17 26 -17 26 6 20 31 -8 51 1 51 23 0 12 -10 21 -30 25
-35 8 -34 5 -15 52 19 44 19 53 0 53 -8 0 -23 -19 -33 -42 -19 -40 -20 -41
-32 -19 -6 13 -9 34 -6 47 6 22 3 24 -28 24 -26 0 -34 -4 -30 -14 3 -7 -5 -33
-17 -57 l-23 -43 -22 50 c-33 72 -37 75 -78 56 -20 -9 -36 -23 -37 -32 0 -10
-4 -8 -11 7 -10 20 -54 43 -83 43 -7 0 -16 -15 -20 -32 -6 -32 -7 -32 -16 -10
-14 36 -32 16 -26 -29 5 -39 5 -39 -29 -39 -38 0 -43 11 -15 37 25 24 36 79
20 99 -9 11 -9 20 0 40 6 14 9 29 6 34 -6 10 5 40 15 40 4 0 15 -11 24 -24 14
-23 14 -27 -7 -65 -17 -32 -19 -43 -10 -52 10 -10 18 -8 37 10 15 15 26 19 31
12 14 -23 26 2 20 39 -6 38 7 80 25 80 9 0 24 -35 25 -60 1 -25 28 -71 39 -67
6 2 12 19 14 38 4 50 11 79 20 79 5 0 19 -25 31 -55 17 -41 28 -55 43 -55 17
0 19 5 14 25 -4 14 -2 44 5 67 l11 42 19 -24 c10 -14 22 -35 25 -48z m944 29
c0 -45 -15 -62 -24 -28 -10 39 -7 67 9 67 11 0 15 -11 15 -39z m-1560 25 c0
-3 -4 -8 -10 -11 -5 -3 -10 -1 -10 4 0 6 5 11 10 11 6 0 10 -2 10 -4z m1492
-8 c2 -7 6 -32 7 -56 2 -34 -2 -46 -21 -62 -40 -34 -48 -26 -48 48 0 38 3 72
7 75 11 12 51 8 55 -5z m-104 -85 c-4 -74 -8 -89 -27 -105 -13 -10 -26 -18
-30 -18 -9 0 -11 56 -5 128 5 53 9 65 27 72 38 15 40 12 35 -77z m-1237 50 c6
-16 17 -40 25 -55 18 -33 18 -72 0 -87 -11 -9 -16 -5 -26 19 -12 30 -40 42
-40 18 -1 -7 -7 4 -14 25 -13 34 -13 55 0 95 7 23 44 13 55 -15z m1137 -50
c-5 -32 -8 -79 -5 -105 3 -38 1 -47 -14 -51 -23 -6 -29 18 -29 121 0 77 2 83
23 91 12 5 25 7 28 5 3 -2 2 -29 -3 -61z m-185 40 c-7 -2 -19 -2 -25 0 -7 3
-2 5 12 5 14 0 19 -2 13 -5z m102 -109 l0 -116 -28 -15 -29 -14 7 118 c6 90
11 121 23 131 9 6 18 12 21 12 3 0 6 -52 6 -116z m-185 96 c-20 -13 -40 -13
-40 0 0 6 12 10 28 10 21 0 24 -2 12 -10z m82 -210 c-11 -43 -22 -65 -32 -65
-18 0 -24 91 -15 191 6 54 9 62 33 70 l27 10 3 -71 c1 -44 -4 -94 -16 -135z
m-1002 38 c0 -4 -9 -8 -20 -8 -20 0 -28 29 -13 44 7 7 33 -21 33 -36z m274 26
c11 -28 7 -34 -24 -34 -33 0 -35 3 -20 31 13 23 36 25 44 3z m119 -24 c4 -16
0 -20 -19 -20 -26 0 -32 18 -12 38 14 14 24 8 31 -18z m-353 5 c0 -8 -7 -15
-16 -15 -14 0 -14 3 -4 15 7 8 14 15 16 15 2 0 4 -7 4 -15z m480 -17 c0 -5 -7
-8 -15 -8 -17 0 -18 2 -9 25 5 13 8 14 15 3 5 -7 9 -16 9 -20z m-673 -63 c11
-33 10 -37 -12 -45 -53 -20 -60 -17 -63 24 -2 22 -1 50 3 63 5 22 7 23 33 9
18 -9 32 -28 39 -51z m161 14 c-2 -6 -8 -10 -13 -10 -5 0 -11 4 -13 10 -2 6 4
11 13 11 9 0 15 -5 13 -11z m-58 -18 c0 -5 -7 -12 -16 -15 -14 -5 -15 -4 -4 9
14 17 20 19 20 6z m453 2 c3 -5 1 -19 -4 -32 -9 -23 -10 -24 -24 -5 -8 10 -15
25 -15 32 0 13 36 17 43 5z m107 -7 c0 -24 -15 -26 -28 -5 -11 16 -9 19 8 19
11 0 20 -6 20 -14z m-256 -21 c-4 -8 -10 -12 -15 -9 -14 8 -10 24 6 24 9 0 12
-6 9 -15z m811 -9 c-16 -14 -41 -31 -55 -38 -14 -7 -59 -38 -100 -69 -72 -54
-138 -94 -145 -87 -2 2 -6 15 -10 29 -6 24 -1 28 91 73 53 26 113 54 133 61
20 7 52 22 71 34 46 28 52 27 15 -3z m-1095 -23 c-1 -5 -11 -28 -24 -53 l-24
-45 -11 40 c-14 53 -14 53 12 58 38 7 47 7 47 0z"/>
</g>
</svg>
