<?xml version="1.0" standalone="no"?>
<!DOCTYPE svg PUBLIC "-//W3C//DTD SVG 20010904//EN"
 "http://www.w3.org/TR/2001/REC-SVG-20010904/DTD/svg10.dtd">
<svg version="1.0" xmlns="http://www.w3.org/2000/svg"
 width="214.000000pt" height="180.000000pt" viewBox="0 0 214.000000 180.000000"
 preserveAspectRatio="xMidYMid meet">
<metadata>
Created by potrace 1.16, written by Peter Selinger 2001-2019
</metadata>
<g transform="translate(0.000000,180.000000) scale(0.100000,-0.100000)"
fill="#000000" stroke="none">
<path d="M1192 1711 c-90 -36 -149 -111 -89 -111 28 0 56 -30 84 -88 18 -37
19 -42 5 -36 -10 4 -38 9 -65 12 -41 3 -48 7 -53 30 -4 15 -11 32 -16 39 -5 6
-8 29 -6 50 3 32 0 38 -17 41 -26 4 -112 -43 -125 -68 -15 -29 -12 -40 15 -50
51 -19 24 -28 -69 -23 -93 6 -95 6 -120 -22 -14 -15 -26 -36 -26 -46 0 -26 11
-29 -140 39 -19 9 -54 28 -77 44 -23 15 -44 28 -46 28 -13 0 -147 83 -147 91
0 5 -5 9 -11 9 -7 0 -18 8 -24 17 -13 17 -14 17 -33 -1 -27 -24 -74 -121 -70
-143 2 -11 12 -18 26 -17 30 1 28 -4 -14 -47 -36 -37 -38 -59 -5 -59 10 0 20
-3 24 -6 3 -4 34 -17 69 -29 35 -13 94 -36 132 -52 l69 -28 -83 -77 c-46 -42
-103 -86 -127 -98 -24 -12 -43 -28 -43 -35 0 -8 16 -23 36 -33 l36 -18 -26
-17 c-31 -21 -35 -73 -11 -131 21 -50 54 -57 102 -20 21 16 58 42 83 58 25 16
73 50 107 77 81 64 141 95 155 81 14 -14 27 -349 14 -371 -4 -6 -18 -6 -39 0
-17 6 -106 14 -197 19 -91 5 -177 12 -192 16 -22 5 -29 1 -41 -23 -15 -29 -29
-147 -20 -170 3 -7 16 -13 29 -13 21 0 23 -3 14 -26 -15 -38 -13 -149 3 -162
9 -8 26 -5 62 12 59 28 190 52 297 55 69 2 76 1 73 -16 -1 -10 -9 -16 -16 -14
-51 14 -56 13 -73 -23 -14 -31 -15 -47 -6 -118 5 -45 10 -86 10 -90 0 -12 22
-9 39 5 24 20 170 74 221 82 25 3 68 13 95 20 28 8 73 17 100 20 146 18 161
23 133 51 -10 10 -36 16 -79 17 -69 2 -64 -3 -71 72 l-3 30 120 8 c66 4 131
12 145 18 23 10 24 12 7 24 -22 16 -129 28 -187 20 -63 -8 -74 2 -66 59 l7 46
94 -1 c88 -1 151 12 115 25 -35 11 -124 26 -160 26 l-39 0 5 38 c6 41 13 73
44 180 l21 72 23 -26 23 -27 22 22 c13 13 23 21 24 19 26 -51 37 -62 72 -74
22 -8 46 -14 53 -14 19 0 14 34 -8 48 -18 11 -50 71 -50 93 0 4 19 21 43 38
l43 29 26 -46 c14 -26 31 -64 38 -84 6 -21 18 -38 25 -38 8 0 18 -7 23 -16 10
-18 32 -11 32 9 0 7 -22 56 -49 110 l-50 97 27 18 c38 26 126 70 197 97 33 13
87 37 120 54 33 17 65 31 71 31 7 0 14 6 17 14 4 9 23 16 48 18 57 4 61 24 7
33 -24 3 -54 10 -68 15 -14 5 -83 11 -155 14 -132 7 -231 19 -297 38 -20 6
-50 11 -67 12 -40 2 -46 10 -65 84 -20 79 -20 125 -1 161 8 16 11 31 8 35 -11
10 -46 6 -91 -13z m33 -179 c-3 -3 -5 2 -5 10 0 8 -12 32 -26 54 -25 36 -25
38 -8 51 18 13 20 9 32 -48 6 -34 10 -65 7 -67z m-885 12 c14 -12 45 -33 70
-47 25 -15 41 -27 36 -27 -22 0 -155 44 -188 63 -36 20 -37 21 -22 49 l15 28
32 -22 c18 -13 43 -32 57 -44z m675 0 c18 -44 19 -54 2 -54 -7 0 -21 14 -31
30 -14 25 -15 34 -6 45 17 20 18 20 35 -21z m-620 -171 c85 -57 79 -52 73 -58
-3 -3 -47 15 -99 39 -52 24 -111 49 -131 56 l-36 13 24 32 24 32 38 -34 c20
-19 69 -55 107 -80z m470 92 c33 -8 74 -14 92 -15 25 0 36 -7 53 -36 12 -19
21 -36 19 -38 -5 -3 -219 -26 -247 -26 -20 0 -22 5 -22 65 0 75 1 75 105 50z
m-390 -36 c55 -17 102 -33 104 -35 6 -5 -30 -44 -51 -55 -13 -7 -29 -1 -65 26
-26 20 -66 49 -87 66 -52 38 -31 38 99 -2z m595 -38 c-1 -10 -6 -7 -15 9 -19
33 -18 50 0 26 8 -11 15 -27 15 -35z m120 36 c93 -25 95 -47 3 -40 -63 5 -88
16 -77 34 2 4 -2 10 -8 12 -26 11 39 6 82 -6z m200 -27 c11 -7 5 -10 -22 -10
-21 0 -41 0 -45 -1 -4 0 -9 4 -11 10 -5 14 57 14 78 1z m88 -36 c23 -9 63 -15
107 -14 39 1 115 -1 170 -6 92 -7 97 -8 70 -20 -17 -7 -55 -20 -85 -29 -79
-23 -192 -71 -251 -105 -56 -33 -79 -38 -79 -15 0 9 -18 51 -40 95 -22 44 -40
84 -40 89 0 6 21 12 48 14 26 2 51 4 55 5 4 1 24 -5 45 -14z m-783 -18 c11 -1
23 -10 26 -21 6 -24 12 -24 184 3 132 20 165 18 165 -13 0 -8 25 -62 56 -120
51 -97 63 -138 32 -107 -17 17 -45 15 -56 -3 -5 -10 -31 -18 -76 -22 -55 -5
-70 -10 -74 -25 -3 -14 -14 -18 -47 -18 -24 0 -50 -3 -59 -6 -22 -8 -20 13 4
59 11 21 18 42 16 46 -11 16 -268 3 -350 -18 -44 -12 -81 -21 -82 -21 -2 0 14
26 35 58 21 31 44 68 50 81 12 21 17 23 67 16 62 -7 70 4 19 28 -32 15 -34 19
-25 38 23 42 44 58 70 52 14 -3 34 -6 45 -7z m606 -58 c12 -40 27 -80 34 -88
7 -8 18 -25 24 -37 10 -21 8 -24 -26 -38 -79 -33 -75 -36 -120 67 -46 103 -64
154 -57 161 3 2 31 5 64 6 l59 1 22 -72z m-181 9 c0 -18 -2 -19 -10 -7 -13 20
-13 43 0 35 6 -3 10 -16 10 -28z m-626 -59 c-43 -72 -97 -147 -117 -166 -21
-20 -27 -21 -51 -11 -34 16 -33 23 7 50 17 13 60 49 95 81 62 57 81 70 66 46z
m845 -173 c-27 -24 -45 -33 -52 -26 -17 17 0 38 40 49 58 15 58 15 12 -23z
m-730 11 c-26 -26 -258 -171 -288 -181 -16 -5 -22 -1 -26 18 -12 46 -2 72 25
72 14 0 59 17 102 38 42 22 100 42 130 47 29 4 55 8 57 9 2 0 2 -1 0 -3z m171
-6 c0 -5 -6 -34 -14 -64 -8 -31 -13 -66 -11 -78 3 -13 1 -37 -4 -53 -5 -21 -8
6 -9 88 -2 111 -1 117 18 117 11 0 20 -4 20 -10z m441 -83 c-15 -15 -31 2 -31
31 l1 27 20 -24 c12 -15 16 -28 10 -34z m-94 26 c-15 -52 -67 -252 -72 -277
-10 -47 -15 -24 -21 90 -3 60 -8 125 -11 145 -4 33 -2 38 24 47 15 6 41 11 57
11 22 1 27 -3 23 -16z m-217 -35 c41 -2 65 -8 68 -16 3 -10 -10 -13 -54 -11
-33 1 -69 -1 -81 -5 -21 -7 -23 -4 -23 25 0 24 3 29 13 21 7 -6 41 -12 77 -14z
m45 -74 c11 -1 23 -3 28 -3 12 -2 8 -31 -5 -31 -7 0 -46 -2 -85 -4 -79 -5 -95
4 -67 35 15 16 25 19 63 13 25 -4 55 -8 66 -10z m-205 -204 c-9 -22 -10 -20
-5 15 2 22 6 58 7 80 1 31 3 28 5 -15 2 -31 -1 -67 -7 -80z m223 123 c10 -3
17 -12 15 -21 -2 -13 -16 -15 -76 -13 -45 1 -79 -2 -88 -10 -12 -9 -14 -6 -14
20 l0 31 73 -1 c39 -1 80 -4 90 -6z m27 -100 c0 -57 -2 -58 -98 -55 -48 2 -91
7 -95 12 -5 4 -5 24 -2 44 l7 36 94 -3 94 -2 0 -32z m-480 -52 l115 -6 -110
-18 c-60 -10 -143 -27 -182 -37 l-73 -18 0 42 c0 24 3 46 7 49 3 4 34 4 67 1
34 -3 113 -9 176 -13z m423 -51 c32 0 47 -4 47 -13 0 -10 -25 -13 -100 -14
-76 -1 -100 2 -100 12 0 17 26 25 70 19 19 -2 56 -4 83 -4z m-243 -18 c0 -10
5 -23 12 -30 9 -9 9 -12 0 -12 -7 0 -11 -3 -11 -7 5 -28 -4 -33 -58 -33 -32
-1 -119 -7 -193 -14 -136 -13 -155 -13 -144 5 3 5 0 16 -6 24 -15 18 -15 18
100 40 47 9 108 22 135 30 28 7 76 14 108 14 48 1 57 -2 57 -17z m300 -46 c0
-31 -15 -36 -116 -36 -57 0 -104 2 -104 4 0 31 15 36 116 36 57 0 104 -2 104
-4z m-297 -86 c-5 -18 -14 -20 -108 -20 -84 0 -120 -5 -199 -29 l-96 -28 0 33
0 32 73 6 c39 3 119 9 177 14 168 14 159 15 153 -8z m274 6 c2 -2 -41 -7 -97
-11 -103 -7 -118 -5 -105 15 5 9 35 10 103 6 53 -3 97 -8 99 -10z m3 -63 c0
-16 -13 -18 -110 -19 -86 -2 -110 1 -110 11 0 16 33 21 143 23 67 2 77 0 77
-15z m-6 -63 c-25 -10 -154 -11 -169 -2 -17 11 43 17 119 13 50 -2 65 -6 50
-11z m-280 -57 c6 -24 15 -43 22 -43 14 0 26 30 22 51 -2 10 5 13 22 10 14 -1
75 -6 135 -10 l110 -6 -120 -24 c-66 -12 -133 -30 -149 -38 -17 -9 -42 -19
-58 -24 -31 -8 -31 -8 -43 84 l-6 48 28 -3 c24 -3 29 -9 37 -45z"/>
</g>
</svg>
