<?xml version="1.0" standalone="no"?>
<!DOCTYPE svg PUBLIC "-//W3C//DTD SVG 20010904//EN"
 "http://www.w3.org/TR/2001/REC-SVG-20010904/DTD/svg10.dtd">
<svg version="1.0" xmlns="http://www.w3.org/2000/svg"
 width="132.000000pt" height="127.000000pt" viewBox="0 0 132.000000 127.000000"
 preserveAspectRatio="xMidYMid meet">
<metadata>
Created by potrace 1.16, written by Peter Selinger 2001-2019
</metadata>
<g transform="translate(0.000000,127.000000) scale(0.100000,-0.100000)"
fill="#000000" stroke="none">
<path d="M1080 1204 c-30 -8 -80 -13 -111 -10 -42 3 -61 0 -79 -14 -23 -18
-21 -40 5 -40 17 0 32 -48 19 -59 -5 -5 -34 -16 -64 -26 -30 -10 -89 -32 -130
-51 -139 -60 -218 -92 -222 -89 -2 2 -45 -7 -96 -20 -51 -13 -105 -21 -121
-19 -47 8 -58 -17 -34 -74 12 -26 26 -59 31 -74 6 -15 20 -32 32 -38 19 -10
29 -3 99 65 43 42 104 95 137 117 58 41 169 98 190 98 6 0 36 13 68 29 31 16
70 33 86 36 l29 6 -3 -58 c-21 -313 -15 -290 -66 -287 -23 1 -44 4 -47 8 -4 3
-17 6 -29 6 -13 0 -58 11 -100 24 -43 14 -81 23 -85 21 -32 -21 -51 -152 -29
-209 12 -33 43 -34 68 -1 29 36 97 62 217 81 l35 5 0 -43 c0 -83 -27 -337 -36
-347 -18 -20 -544 304 -544 335 0 8 -8 14 -17 14 -12 0 -25 -16 -37 -46 -10
-25 -38 -69 -62 -99 -24 -30 -41 -56 -37 -58 5 -3 48 -8 98 -12 93 -7 256 -45
304 -70 15 -7 41 -27 58 -42 50 -47 220 -118 198 -83 -8 13 10 13 49 0 17 -5
53 -16 80 -25 75 -23 82 -2 11 30 l-58 25 7 68 c3 37 8 78 10 92 2 14 7 56 11
94 16 164 16 163 77 169 29 2 85 2 123 0 140 -8 158 -8 162 3 4 13 -132 47
-170 43 -27 -3 -157 12 -157 17 0 3 7 21 15 41 8 19 15 44 15 55 0 11 16 53
35 95 19 42 35 80 35 85 0 5 13 37 29 72 17 34 33 75 37 89 3 15 15 34 26 42
13 8 18 20 15 29 -7 18 -4 18 -77 0z m-5 -61 c-4 -10 -22 -59 -41 -108 -18
-50 -45 -113 -59 -140 l-25 -50 5 50 c3 28 7 96 8 152 l2 102 45 4 c25 2 51 4
59 5 9 1 11 -4 6 -15z m-647 -310 c-29 -25 -61 -55 -70 -66 -21 -23 -34 -16
-40 20 -3 16 -7 34 -9 42 -4 15 93 49 144 50 26 1 25 -1 -25 -46z m309 -154
c42 -10 78 -21 80 -23 3 -2 -22 -9 -54 -16 -82 -16 -125 -30 -145 -47 -21 -19
-26 -8 -22 47 2 25 3 55 3 68 1 22 2 22 32 7 16 -9 64 -25 106 -36z m-343
-212 c100 -82 126 -101 175 -122 25 -11 65 -32 89 -45 24 -14 62 -35 85 -47
85 -45 -10 -16 -113 35 -19 9 -44 24 -55 34 -19 16 -192 67 -245 72 -14 2 -46
6 -71 10 l-47 8 37 59 c44 72 54 72 145 -4z"/>
</g>
</svg>
