<?xml version="1.0" standalone="no"?>
<!DOCTYPE svg PUBLIC "-//W3C//DTD SVG 20010904//EN"
 "http://www.w3.org/TR/2001/REC-SVG-20010904/DTD/svg10.dtd">
<svg version="1.0" xmlns="http://www.w3.org/2000/svg"
 width="233.000000pt" height="98.000000pt" viewBox="0 0 233.000000 98.000000"
 preserveAspectRatio="xMidYMid meet">
<metadata>
Created by potrace 1.16, written by Peter Selinger 2001-2019
</metadata>
<g transform="translate(0.000000,98.000000) scale(0.100000,-0.100000)"
fill="#000000" stroke="none">
<path d="M405 832 c-27 -21 -89 -62 -137 -92 -49 -30 -88 -58 -88 -62 0 -13
35 -9 56 7 31 23 51 18 68 -19 9 -19 32 -59 51 -88 19 -29 35 -60 35 -69 0
-21 -29 -34 -44 -19 -15 15 -26 12 -26 -9 0 -29 -29 -56 -98 -92 -58 -31 -85
-63 -43 -52 19 5 95 -28 106 -47 3 -5 1 -18 -5 -29 -14 -27 6 -38 29 -17 27
25 43 20 91 -29 41 -42 76 -56 94 -38 4 4 -3 14 -14 23 -20 15 -21 18 -7 95
l13 80 17 -32 c9 -17 23 -38 32 -46 13 -14 11 -17 -20 -36 -41 -24 -47 -46
-11 -37 18 4 34 -2 63 -27 22 -18 38 -38 35 -45 -2 -8 8 -12 32 -12 38 0 47
13 19 28 -13 8 -16 23 -14 73 2 83 5 89 48 121 l36 28 24 -36 c24 -34 24 -36
6 -49 -10 -8 -25 -15 -34 -15 -22 0 -44 -26 -29 -35 5 -3 14 -3 20 0 5 3 35
-17 65 -46 30 -29 58 -50 61 -47 3 3 5 21 4 39 -1 19 -2 56 -2 82 1 42 -2 48
-16 42 -11 -4 -7 4 10 21 15 15 37 28 50 29 16 1 23 8 24 22 1 17 70 92 93
101 4 1 21 -13 39 -31 l33 -34 -67 -74 c-36 -41 -77 -77 -91 -81 -59 -16 -72
-53 -15 -43 35 6 40 3 72 -34 18 -23 38 -41 44 -41 7 0 11 23 11 57 1 107 8
145 33 172 l24 26 17 -22 c19 -23 19 -77 1 -182 -10 -52 -2 -81 20 -81 4 0 32
24 62 53 48 48 64 56 134 75 113 31 109 33 109 -40 -1 -69 3 -88 16 -88 4 0 8
34 8 76 0 42 1 77 3 79 2 1 15 5 31 9 26 6 27 5 27 -31 0 -21 -5 -55 -11 -76
-6 -22 -8 -42 -5 -45 15 -14 27 20 33 86 6 71 6 72 35 72 l29 0 -7 -80 c-5
-64 -3 -80 7 -80 11 0 14 19 14 79 0 44 3 82 6 85 3 3 15 3 27 -1 20 -5 22
-11 22 -89 0 -46 4 -84 9 -84 14 0 22 29 15 56 -3 13 -3 44 0 69 6 39 10 45
31 45 21 0 24 -4 20 -28 -2 -16 -5 -67 -6 -113 -5 -125 15 -104 22 24 4 60 11
113 17 119 6 6 45 10 89 9 43 0 91 4 106 11 19 7 31 8 38 1 11 -11 13 -117 4
-167 -3 -16 -6 -31 -7 -35 -1 -3 4 -19 11 -35 17 -43 29 -22 36 69 10 117 32
206 80 319 53 122 91 193 112 205 10 5 14 15 10 25 -4 10 -12 14 -18 11 -6 -4
-88 -6 -182 -4 -175 3 -282 3 -512 1 -157 -2 -222 14 -248 60 -10 18 -24 28
-34 26 -27 -5 -63 -90 -70 -165 -3 -38 -12 -77 -19 -87 -13 -19 -14 -19 -20
-1 -4 10 -1 39 6 64 34 122 40 147 35 160 -5 11 -8 11 -23 -1 -29 -26 -80 -48
-96 -42 -10 4 -16 1 -16 -9 0 -8 -7 -20 -15 -27 -20 -16 -19 -11 5 46 11 26
18 49 15 52 -7 7 -72 -15 -138 -47 l-53 -26 14 37 c8 20 12 44 8 53 -5 14 -14
10 -53 -23 -51 -42 -113 -78 -113 -65 0 5 14 17 30 28 16 11 30 26 30 33 0 17
-5 16 -52 -18 -50 -36 -60 -38 -48 -6 5 13 6 27 3 30 -3 3 0 12 6 20 28 33
-12 24 -71 -16 -35 -24 -82 -52 -105 -62 -48 -21 -53 -33 -20 -45 12 -5 31
-18 41 -30 19 -21 19 -21 -9 -43 -16 -12 -40 -33 -53 -45 -40 -37 -53 -30 -46
25 3 26 10 63 15 82 19 71 38 183 33 191 -8 14 -16 11 -69 -29z m21 -73 c-3
-22 -8 -44 -11 -50 -4 -5 -9 -37 -13 -72 l-7 -62 -24 40 c-14 22 -33 56 -43
75 -21 39 -26 32 52 85 48 32 53 31 46 -16z m210 -33 c-23 -67 -52 -83 -79
-43 -14 21 -13 23 32 49 25 15 49 28 52 28 4 0 1 -15 -5 -34z m188 -21 c-19
-47 -19 -135 1 -135 11 0 15 11 15 43 0 70 8 86 37 78 15 -4 30 -19 38 -39 14
-31 13 -32 -33 -72 -26 -22 -50 -40 -54 -40 -3 0 -17 17 -29 37 -16 25 -19 38
-11 41 17 5 15 22 -2 22 -7 0 -21 11 -30 24 -15 24 -15 25 27 49 56 33 58 33
41 -8z m485 -15 c21 -10 41 -16 45 -13 3 4 6 2 6 -3 0 -14 -82 -58 -109 -59
-22 -1 -23 1 -17 53 8 65 15 81 28 58 5 -9 26 -25 47 -36z m-319 23 c0 -33
-12 -64 -23 -60 -19 6 -31 58 -16 68 22 14 39 10 39 -8z m149 -15 c0 -7 -6
-29 -13 -48 -12 -34 -13 -34 -24 -13 -17 31 -15 50 6 62 23 14 32 13 31 -1z
m-417 -53 c10 -23 8 -28 -28 -59 -33 -29 -41 -32 -50 -20 -16 20 -5 66 20 86
29 24 44 22 58 -7z m961 -14 c-4 -20 -13 -41 -22 -48 -14 -11 -14 -12 1 -13
14 0 16 -7 13 -37 -2 -21 -4 -75 -4 -120 -1 -83 -1 -83 -27 -83 l-27 0 8 133
c4 72 9 143 10 157 2 14 4 30 4 35 1 6 12 11 25 11 23 2 24 -1 19 -35z m73 2
c-3 -21 -8 -96 -11 -167 -3 -72 -7 -131 -8 -132 -1 -1 -11 -4 -22 -6 -18 -3
-20 3 -21 57 -2 70 14 263 22 276 3 5 14 9 25 9 17 0 19 -5 15 -37z m271 22
c6 -4 5 -103 0 -160 -4 -33 -6 -79 -7 -101 l0 -42 -55 -7 c-30 -3 -88 -7 -128
-8 l-73 -2 2 50 c1 28 5 103 10 168 l7 119 121 -7 c67 -4 122 -8 123 -10z
m153 11 c0 -2 -15 -35 -33 -72 -19 -38 -45 -94 -60 -124 l-26 -55 0 40 c-1 22
2 77 6 122 5 73 8 82 27 85 41 6 86 8 86 4z m-1118 -41 c4 -18 -1 -29 -18 -40
-21 -14 -24 -13 -34 4 -16 31 -12 51 13 60 28 11 33 7 39 -24z m543 -112 c-8
-179 -9 -183 -44 -183 l-27 0 4 155 c2 106 0 155 -7 155 -6 0 -12 -7 -13 -15
-2 -22 -6 -145 -7 -225 l-1 -70 -30 0 -30 0 5 58 c2 31 7 91 9 132 3 41 10 90
17 108 11 31 12 32 71 32 l59 0 -6 -147z m-991 122 c-4 -8 -10 -12 -15 -9 -11
6 -2 24 11 24 5 0 7 -7 4 -15z m831 -49 c-8 -71 -13 -149 -14 -215 l-1 -44
-86 7 c-118 9 -127 12 -146 54 -36 81 -42 110 -29 126 7 9 18 13 23 10 9 -6
77 34 114 68 17 15 75 39 142 57 2 1 1 -28 -3 -63z m-870 -3 c4 -10 11 -32 15
-50 7 -30 4 -35 -37 -69 -24 -20 -45 -35 -47 -33 -44 59 -57 80 -54 88 4 14
91 80 104 80 7 1 15 -7 19 -16z m182 -6 c0 -7 10 -28 23 -45 l24 -32 -29 -30
c-16 -16 -31 -30 -34 -30 -3 0 -20 22 -38 49 l-31 48 31 26 c35 29 54 34 54
14z m195 -21 c-3 -23 -1 -28 12 -23 25 10 18 -5 -24 -52 -44 -48 -57 -46 -80
10 -12 28 -11 31 26 64 47 42 70 42 66 1z m153 -27 c23 -65 0 -78 -42 -23 -26
35 -27 37 -8 50 26 19 37 14 50 -27z m-427 -71 c18 -23 32 -45 32 -49 0 -12
-132 -109 -141 -103 -5 3 -20 27 -34 54 l-25 49 61 45 c34 25 64 46 68 46 4 0
21 -19 39 -42z m-209 -62 c-15 -15 -116 -76 -124 -76 -6 0 -9 17 -7 43 5 71
11 84 44 105 l31 20 30 -44 c16 -25 28 -46 26 -48z m368 67 c34 -44 33 -49 -7
-88 l-38 -37 -20 39 -20 39 26 32 c30 37 39 39 59 15z m325 -58 c17 -36 21
-52 12 -48 -8 3 -14 11 -14 19 0 7 -8 18 -19 23 -27 15 -36 63 -12 60 3 0 18
-24 33 -54z m-852 -35 l0 -40 -35 17 c-42 20 -43 28 -7 47 39 22 42 20 42 -24z
m135 -69 c-4 -28 -10 -51 -13 -51 -3 0 -18 12 -33 26 l-28 27 37 27 c20 15 39
26 41 24 1 -1 0 -26 -4 -53z m823 9 c52 0 48 -11 -9 -30 -24 -8 -61 -31 -83
-52 -21 -21 -41 -38 -43 -38 -2 0 -1 10 1 23 3 12 8 43 11 68 l6 47 37 -9 c20
-5 56 -9 80 -9z m-275 -34 c-5 -33 -7 -36 -21 -22 -13 13 -13 18 2 41 10 15
19 25 21 23 3 -2 2 -21 -2 -42z m-187 -4 c2 -27 -8 -28 -30 -3 -13 15 -14 20
-4 24 22 9 33 2 34 -21z m-196 -17 l0 -36 -25 18 c-13 10 -25 22 -25 26 0 6
27 21 48 26 1 1 2 -15 2 -34z"/>
</g>
</svg>
