<?xml version="1.0" standalone="no"?>
<!DOCTYPE svg PUBLIC "-//W3C//DTD SVG 20010904//EN"
 "http://www.w3.org/TR/2001/REC-SVG-20010904/DTD/svg10.dtd">
<svg version="1.0" xmlns="http://www.w3.org/2000/svg"
 width="359.000000pt" height="146.000000pt" viewBox="0 0 359.000000 146.000000"
 preserveAspectRatio="xMidYMid meet">
<metadata>
Created by potrace 1.16, written by Peter Selinger 2001-2019
</metadata>
<g transform="translate(0.000000,146.000000) scale(0.100000,-0.100000)"
fill="#000000" stroke="none">
<path d="M2097 1300 c-14 -11 -28 -20 -31 -20 -11 0 -200 -93 -229 -113 -24
-16 -34 -17 -80 -8 -28 6 -104 20 -167 31 -63 11 -142 25 -175 32 -64 12 -93
13 -399 24 -169 5 -427 -5 -506 -21 -132 -27 -443 -144 -448 -169 -4 -17 32
-35 78 -41 41 -5 269 -54 358 -76 45 -12 93 -19 105 -16 19 5 18 3 -6 -15 -16
-11 -58 -57 -94 -102 l-66 -81 82 -8 c46 -4 91 -12 101 -17 10 -6 34 -10 52
-10 52 0 151 -52 177 -93 27 -44 146 -101 162 -76 4 8 6 21 3 31 -2 9 3 47 12
85 17 71 34 94 104 142 31 22 96 91 137 146 13 18 14 6 8 -110 -4 -71 -6 -143
-5 -159 0 -15 -4 -34 -10 -41 -14 -17 -6 -343 9 -358 8 -8 19 -4 38 14 16 14
54 38 86 53 32 15 71 39 87 53 34 28 98 47 210 62 41 6 111 17 155 26 88 16
135 19 135 8 0 -5 -7 -21 -15 -37 -9 -16 -12 -33 -8 -37 4 -4 33 -12 63 -18
151 -30 240 -50 256 -59 11 -6 62 -17 114 -26 52 -9 102 -23 110 -31 9 -8 24
-15 34 -15 9 0 26 -5 37 -11 32 -16 109 -23 109 -9 0 6 -9 14 -20 17 -11 3
-20 8 -21 12 0 3 -3 20 -5 36 -3 17 -8 63 -10 103 l-6 72 37 0 c66 0 72 -9 70
-98 -2 -52 3 -102 14 -143 17 -61 41 -91 41 -51 0 10 3 22 8 26 4 4 6 60 4
124 -2 66 2 123 7 132 9 12 17 12 63 -4 29 -11 64 -26 78 -35 14 -9 43 -25 65
-35 38 -17 104 -65 184 -134 21 -17 43 -32 49 -32 6 0 16 -34 23 -75 8 -48 18
-75 26 -75 18 0 45 70 38 99 -8 30 9 161 37 291 12 52 21 97 21 100 0 3 6 25
13 50 8 25 21 86 29 135 9 50 24 117 35 150 11 33 22 80 26 105 3 25 19 68 35
97 34 62 27 72 -51 67 -30 -2 -81 1 -113 7 -49 10 -60 10 -67 -2 -5 -7 -5 -18
-1 -24 5 -5 11 -29 15 -53 5 -42 5 -43 -47 -76 -29 -19 -71 -42 -93 -51 -52
-22 -173 -44 -259 -47 l-70 -3 -3 32 c-4 40 46 242 64 264 8 9 11 19 7 22 -10
11 -202 8 -222 -2 -15 -9 -17 -24 -15 -128 1 -65 7 -134 13 -153 15 -48 15
-50 -18 -50 -37 0 -40 13 -25 110 7 43 8 79 3 84 -14 15 -18 5 -31 -92 -10
-72 -16 -92 -27 -90 -17 3 -17 72 -1 188 6 40 6 68 0 74 -5 5 -12 8 -14 5 -2
-2 -9 -58 -16 -124 -13 -144 -13 -145 -40 -138 -20 5 -21 11 -18 137 4 170
-14 187 -24 22 -9 -145 -9 -147 -45 -137 -27 8 -28 9 -27 77 1 38 5 97 9 132
5 37 4 62 -2 62 -13 0 -43 -135 -43 -193 0 -44 -2 -48 -22 -45 -21 3 -23 8
-21 63 1 33 5 86 8 118 3 32 2 57 -3 57 -11 0 -21 -40 -32 -133 -4 -38 -10
-70 -12 -72 -2 -2 -14 -1 -27 2 -23 6 -23 8 -18 97 3 50 9 102 13 115 5 18 4
23 -6 19 -18 -6 -30 -48 -35 -132 -3 -38 -7 -71 -9 -73 -3 -3 -17 -1 -33 4
l-28 10 -1 131 c0 73 -3 134 -6 137 -3 3 -16 -4 -31 -15z m-14 -142 c-3 -51
-7 -94 -7 -95 -1 -1 -31 7 -65 19 -48 16 -68 29 -82 52 -11 17 -19 34 -19 37
0 9 142 74 172 78 4 1 4 -41 1 -91z m-1278 42 c-3 -5 -12 -10 -18 -10 -7 0 -6
4 3 10 19 12 23 12 15 0z m-48 -6 c-3 -3 -12 -4 -19 -1 -8 3 -5 6 6 6 11 1 17
-2 13 -5z m438 -10 c22 -1 46 -3 53 -3 7 -1 10 -6 7 -11 -4 -6 -2 -17 4 -24 6
-7 13 -44 17 -82 5 -59 3 -72 -13 -89 -10 -11 -24 -32 -32 -47 -23 -44 -162
-178 -186 -178 -4 0 -20 -13 -36 -30 -29 -28 -108 -70 -134 -70 -6 0 -65 52
-129 115 -64 63 -121 115 -126 115 -21 0 -8 -22 50 -86 82 -91 80 -96 -23 -69
-32 8 -72 15 -90 15 -18 0 -38 4 -46 9 -12 8 -12 13 1 33 22 33 108 128 117
128 4 0 12 -14 18 -30 14 -37 38 -31 47 11 3 16 11 28 18 27 7 -2 25 23 41 54
19 39 56 83 119 143 l91 87 96 -7 c53 -4 114 -9 136 -11z m1645 -2 c0 -11 -9
-53 -20 -96 -11 -42 -20 -94 -21 -114 -2 -60 -8 -72 -35 -72 -26 0 -30 7 -38
52 -3 15 -7 32 -11 38 -7 12 -13 198 -6 205 2 3 33 5 68 5 54 0 63 -2 63 -18z
m-2198 -69 c6 -90 -3 -197 -14 -170 -4 9 -15 17 -24 17 -10 0 -31 4 -48 9 -97
30 -215 55 -369 78 -21 3 -36 11 -34 17 2 6 68 32 147 58 135 45 219 64 301
67 l36 1 5 -77z m174 -9 c-121 -116 -124 -117 -124 -51 0 29 -2 62 -5 73 -12
37 5 45 94 46 46 1 91 5 99 9 32 18 22 5 -64 -77z m1064 41 c0 -9 -6 -12 -16
-8 -13 5 -13 7 -2 14 17 11 18 11 18 -6z m-482 -25 c2 -24 -56 -216 -59 -195
-1 6 -3 45 -5 88 -2 42 -8 86 -14 97 -16 29 -3 42 38 38 31 -3 37 -7 40 -28z
m211 15 c47 -8 113 -20 146 -26 33 -6 92 -22 130 -35 67 -24 72 -28 97 -77 15
-29 35 -72 43 -97 9 -25 32 -74 51 -109 19 -35 31 -67 26 -70 -5 -3 -12 -22
-16 -41 -4 -19 -24 -62 -45 -95 l-37 -59 -120 -23 c-65 -12 -150 -27 -189 -33
-38 -6 -99 -17 -135 -25 -36 -8 -102 -17 -146 -20 l-81 -6 -6 30 c-4 17 2 62
12 103 17 66 24 115 36 248 10 102 66 299 97 338 13 16 33 15 137 -3z m1864
-58 c-7 -17 -15 -50 -18 -72 -4 -22 -18 -74 -31 -115 -13 -41 -30 -111 -38
-155 -11 -66 -46 -209 -60 -250 -2 -5 -2 24 -1 65 2 41 6 140 9 220 6 127 14
322 16 342 0 10 113 15 125 5 5 -4 5 -19 -2 -40z m-1414 -68 c26 -9 31 -16 32
-42 0 -18 2 -49 4 -69 2 -21 2 -38 -1 -38 -4 0 -54 106 -67 143 -7 20 -8 20
32 6z m117 -34 c23 -15 23 -17 3 -123 -12 -58 -29 -61 -29 -4 0 20 -4 53 -8
72 -8 37 -5 70 7 70 3 0 16 -7 27 -15z m1117 -97 c-3 -221 -19 -460 -37 -556
-11 -60 -12 -63 -25 -40 -19 35 -137 120 -216 157 -38 18 -79 38 -90 43 -10 6
-42 14 -70 17 -45 6 -50 9 -49 31 1 14 5 92 8 174 4 82 9 152 11 156 3 4 36
11 75 14 141 14 294 53 340 87 50 37 55 29 53 -83z m-1033 66 c11 -12 11 -38
0 -142 -7 -70 -13 -137 -15 -150 -3 -33 -11 -37 -41 -17 -26 17 -26 19 -20 89
4 39 13 96 21 126 8 30 15 67 15 83 0 30 20 36 40 11z m86 -76 c-3 -29 -9
-102 -13 -163 -7 -129 -16 -163 -38 -145 -21 17 -20 147 2 267 14 80 19 93 36
93 18 0 19 -5 13 -52z m101 -15 c-3 -21 -14 -102 -23 -180 l-18 -143 -28 0
c-28 0 -29 1 -23 48 3 26 7 81 10 122 2 41 7 101 11 133 l7 57 35 0 c34 0 35
0 29 -37z m82 -95 c-1 -62 -4 -140 -8 -173 -6 -59 -7 -60 -39 -63 -20 -2 -34
2 -37 11 -3 7 3 82 15 166 11 85 20 157 20 162 0 5 11 9 25 9 l25 0 -1 -112z
m65 86 c8 -20 8 -282 0 -311 -4 -14 -14 -23 -26 -23 -18 0 -19 5 -14 48 5 42
15 220 16 280 0 25 15 30 24 6z m188 -15 c-8 -49 -21 -56 -22 -11 0 31 4 42
13 39 6 -2 10 -15 9 -28z m-68 -6 c15 -80 26 -307 15 -317 -2 -2 -24 -2 -50 1
l-45 5 -1 169 -2 169 39 0 c34 0 39 -3 44 -27z m-1729 -200 c-10 -53 -13 -55
-46 -36 -38 22 -37 41 4 58 47 21 50 19 42 -22z m1159 9 c3 -9 21 -26 40 -36
37 -20 86 -66 70 -66 -5 0 -55 -2 -112 -4 l-103 -4 22 36 c12 21 29 49 38 64
18 32 37 36 45 10z m176 -159 c55 -37 159 -125 174 -148 15 -23 15 -23 -14
-15 -17 5 -31 8 -33 8 -6 -3 -119 26 -162 42 -46 17 -146 40 -237 55 -27 4
-38 11 -38 23 1 42 20 47 195 50 70 2 96 -2 115 -15z m138 -2 c28 18 52 4 52
-29 0 -16 -3 -32 -7 -35 -8 -8 -40 12 -80 49 -22 21 -24 24 -6 15 17 -9 27 -9
41 0z m130 -89 c1 -51 -1 -92 -5 -92 -4 0 -20 18 -35 39 -24 34 -26 40 -13 51
8 7 15 29 15 50 0 39 7 53 24 47 7 -2 12 -42 14 -95z m729 66 c-3 -8 -6 -5 -6
6 -1 11 2 17 5 13 3 -3 4 -12 1 -19z m-1884 -55 c9 -9 -102 -65 -114 -58 -12
8 -12 32 1 40 8 5 40 12 101 24 3 1 9 -2 12 -6z"/>
</g>
</svg>
