<?xml version="1.0" standalone="no"?>
<!DOCTYPE svg PUBLIC "-//W3C//DTD SVG 20010904//EN"
 "http://www.w3.org/TR/2001/REC-SVG-20010904/DTD/svg10.dtd">
<svg version="1.0" xmlns="http://www.w3.org/2000/svg"
 width="172.000000pt" height="121.000000pt" viewBox="0 0 172.000000 121.000000"
 preserveAspectRatio="xMidYMid meet">
<metadata>
Created by potrace 1.16, written by Peter Selinger 2001-2019
</metadata>
<g transform="translate(0.000000,121.000000) scale(0.100000,-0.100000)"
fill="#000000" stroke="none">
<path d="M497 1028 c-109 -115 -132 -165 -72 -161 17 1 82 -3 145 -9 63 -6
131 -12 151 -13 33 -3 119 -39 119 -51 0 -3 -39 -44 -86 -91 l-86 -86 -56 23
c-134 55 -199 89 -232 121 -47 44 -93 49 -118 11 -9 -15 -31 -46 -49 -70 -18
-24 -33 -54 -33 -68 0 -28 -3 -27 46 -11 37 12 53 13 136 9 31 -2 36 -5 32
-19 -5 -16 -4 -16 8 -3 7 8 26 21 41 28 25 11 35 10 70 -7 23 -10 57 -25 75
-31 17 -7 32 -15 32 -17 0 -18 -218 -185 -258 -198 -40 -12 -24 -34 36 -51 31
-9 66 -25 78 -35 38 -35 75 -16 79 41 4 43 108 210 132 210 10 0 155 -59 162
-66 3 -2 -53 -63 -123 -133 -137 -138 -149 -161 -82 -161 19 0 38 -5 41 -11
10 -16 55 -30 76 -24 21 7 26 44 8 62 -7 7 0 31 28 83 21 39 48 91 61 116 23
46 40 53 84 35 13 -6 91 -35 173 -67 83 -31 157 -60 166 -65 10 -5 23 -3 34 5
18 13 18 14 -1 23 -10 5 -46 20 -79 33 -33 12 -73 28 -90 35 -16 7 -68 27
-115 46 -47 18 -87 34 -89 36 -2 1 29 37 70 78 63 65 77 75 99 70 14 -4 85
-36 158 -72 92 -45 137 -62 144 -55 13 13 -3 23 -163 104 l-127 63 94 103 c88
96 111 132 82 132 -11 0 -55 -48 -179 -193 l-26 -31 -65 42 c-35 23 -69 42
-74 42 -5 0 -18 7 -28 15 -18 14 -17 17 30 68 27 29 56 62 64 73 30 37 60 82
60 88 0 24 -51 -20 -115 -100 -22 -27 -52 -61 -66 -76 l-27 -28 -48 27 c-27
14 -74 38 -105 54 -52 26 -119 87 -119 109 0 15 -28 12 -33 -2 -5 -16 9 -46
36 -75 l20 -23 -49 1 c-27 0 -57 4 -67 7 -16 7 -15 11 9 47 15 22 33 45 41 52
17 13 14 44 -5 51 -7 2 -32 -16 -55 -40z m472 -303 c40 -25 77 -45 82 -45 21
0 5 -22 -71 -94 l-80 -76 -63 24 c-85 32 -127 54 -127 67 0 18 152 169 170
169 9 0 49 -20 89 -45z m-590 -31 l35 -24 -87 0 -88 0 33 44 c33 43 33 43 53
24 11 -11 35 -31 54 -44z m173 -264 c-37 -59 -53 -69 -82 -50 -13 9 -13 11 1
20 9 5 38 27 65 50 27 22 50 40 51 40 1 0 -14 -27 -35 -60z m196 -142 c-23
-42 -48 -61 -48 -37 0 12 58 79 68 79 2 0 -7 -19 -20 -42z"/>
</g>
</svg>
