<?xml version="1.0" standalone="no"?>
<!DOCTYPE svg PUBLIC "-//W3C//DTD SVG 20010904//EN"
 "http://www.w3.org/TR/2001/REC-SVG-20010904/DTD/svg10.dtd">
<svg version="1.0" xmlns="http://www.w3.org/2000/svg"
 width="240.000000pt" height="208.000000pt" viewBox="0 0 240.000000 208.000000"
 preserveAspectRatio="xMidYMid meet">
<metadata>
Created by potrace 1.16, written by Peter Selinger 2001-2019
</metadata>
<g transform="translate(0.000000,208.000000) scale(0.100000,-0.100000)"
fill="#000000" stroke="none">
<path d="M601 1898 c-4 -13 -11 -48 -15 -78 -8 -64 -20 -128 -31 -152 -8 -21
16 -34 43 -22 9 4 30 9 47 11 16 3 36 9 43 15 9 8 17 -1 33 -36 11 -26 33 -66
49 -90 33 -49 64 -132 55 -147 -12 -18 4 -61 20 -55 9 3 16 -3 20 -17 14 -48
71 -174 97 -214 20 -31 24 -45 15 -50 -7 -5 -29 -34 -50 -65 -20 -32 -41 -58
-45 -58 -5 0 -21 -28 -37 -62 -24 -50 -118 -193 -145 -218 -3 -3 -27 -35 -55
-72 l-50 -67 -145 2 -144 2 -7 -25 c-4 -14 -7 -91 -8 -172 -1 -165 -1 -165 63
-127 38 22 160 50 331 74 195 27 339 51 495 81 197 38 221 42 290 49 36 4 83
11 105 15 22 5 74 11 115 15 41 3 91 8 112 11 20 3 90 7 155 8 124 2 143 7
143 33 0 10 -5 13 -17 8 -10 -4 -42 -9 -72 -12 -42 -5 -55 -3 -62 10 -7 12
-23 14 -87 10 l-79 -6 -32 56 c-17 30 -38 60 -46 67 -8 7 -15 18 -15 24 0 6
-9 22 -20 36 -11 14 -20 35 -20 48 0 13 -11 38 -25 56 -14 18 -25 39 -25 47 0
8 -7 25 -16 37 -8 12 -12 22 -7 22 4 0 -3 7 -15 16 -12 8 -22 20 -22 25 0 5
-11 22 -25 37 -43 46 -49 85 -26 182 32 139 59 221 86 262 14 21 36 62 50 90
37 77 54 104 118 192 44 59 56 81 47 90 -6 6 -47 12 -93 13 -45 1 -116 4 -157
8 -41 3 -151 8 -243 10 -93 3 -173 7 -177 10 -5 3 -58 8 -117 10 -59 3 -128 9
-153 15 -25 5 -62 12 -82 15 -21 3 -38 11 -38 17 0 6 -3 8 -7 5 -3 -4 -16 -1
-27 7 -12 7 -36 17 -54 20 -28 7 -33 4 -41 -16z m87 -44 c12 -8 46 -20 75 -25
69 -12 343 -31 486 -32 151 -2 87 -20 -109 -32 -185 -11 -326 -27 -404 -46
-98 -24 -120 -24 -112 -3 3 9 9 41 12 72 9 90 12 94 52 66z m1029 -93 c7 7 17
8 26 3 13 -8 4 -27 -51 -111 -99 -150 -94 -143 -86 -108 3 17 8 41 11 55 2 14
8 29 13 34 5 5 6 14 4 21 -3 7 -1 16 5 20 6 3 11 15 11 26 0 11 7 34 16 51 15
28 18 30 29 15 8 -11 15 -13 22 -6z m-277 -20 c-4 -16 -11 -87 -15 -158 -3
-70 -10 -155 -15 -188 -5 -33 -11 -87 -15 -120 -4 -32 -9 -63 -11 -67 -3 -4
-21 -8 -41 -8 l-35 0 5 128 c6 131 14 216 23 242 6 16 17 129 16 167 0 22 14
29 70 32 25 1 26 -1 18 -28z m100 21 c0 -5 -3 -11 -6 -14 -3 -4 -7 -60 -9
-126 -2 -66 -6 -129 -9 -139 -3 -11 0 -28 8 -38 15 -21 14 -23 -34 -130 -15
-33 -30 -73 -34 -88 -7 -31 -32 -32 -29 -1 1 10 5 51 8 89 3 39 8 79 10 90 2
11 7 74 10 140 4 66 8 136 10 155 2 19 4 43 4 53 1 13 10 17 36 17 19 0 35 -4
35 -8z m95 -19 c-3 -16 -16 -36 -28 -45 -12 -10 -16 -18 -9 -18 13 0 11 -21
-10 -88 -15 -51 -24 -30 -26 69 -1 50 -5 95 -8 100 -3 5 16 9 41 9 46 0 47 0
40 -27z m-319 -35 c-4 -29 -9 -73 -12 -98 -4 -39 -8 -66 -20 -130 -3 -19 -14
-150 -18 -220 -3 -53 -4 -55 -32 -55 -28 0 -29 1 -29 60 0 66 12 260 20 315
22 163 24 168 48 173 50 10 50 10 43 -45z m-230 -10 c-7 -51 -13 -120 -26
-288 -13 -173 -17 -190 -45 -190 -13 0 -30 -3 -39 -6 -23 -9 -35 45 -12 58 11
6 14 14 7 26 -5 9 -9 28 -9 42 0 14 -1 30 -3 35 -1 6 0 17 3 25 8 20 33 222
29 235 -1 5 0 29 4 52 6 40 8 42 43 46 20 2 41 4 46 5 4 1 6 -17 2 -40z m130
34 c-3 -5 -8 -33 -11 -63 -3 -30 -9 -77 -13 -106 -5 -29 -10 -85 -11 -126 -1
-40 -8 -106 -15 -147 -12 -70 -14 -75 -37 -72 -43 4 -48 9 -44 49 2 21 6 94
10 163 3 69 9 150 12 180 3 30 5 64 5 74 -2 40 16 56 64 56 25 0 43 -4 40 -8z
m-251 -25 c-3 -12 -7 -42 -9 -67 -7 -73 -27 -263 -31 -285 -2 -11 -4 -27 -5
-35 0 -8 -13 10 -28 40 -26 53 -27 61 -24 189 1 95 6 137 15 143 9 6 9 8 -1 8
-7 0 -10 5 -7 10 4 6 10 8 14 6 4 -3 12 -1 18 2 7 4 24 9 38 10 22 1 25 -2 20
-21z m-139 -23 c-3 -8 -2 -12 4 -9 11 7 12 -85 1 -124 -7 -24 -7 -24 -31 15
-43 70 -61 114 -47 119 7 2 19 6 27 8 32 11 52 7 46 -9z m739 -183 c-4 -17
-10 -31 -15 -31 -7 0 -5 23 6 59 8 26 16 2 9 -28z m-267 -340 c83 -1 152 -4
152 -8 -1 -23 -14 -53 -23 -53 -6 0 -18 -7 -28 -16 -13 -12 -52 -16 -202 -19
l-185 -3 3 24 c1 13 -1 24 -5 24 -3 0 -13 15 -22 33 l-15 32 86 -7 c47 -3 155
-7 239 -7z m-53 -130 c55 -1 117 1 138 2 37 3 40 1 59 -40 11 -24 30 -50 41
-58 17 -12 18 -15 5 -15 -9 0 -18 5 -20 11 -3 8 -32 11 -88 10 -47 -1 -170 -3
-273 -5 -179 -4 -188 -3 -173 13 9 10 16 22 16 28 0 6 7 16 15 23 8 7 12 16
10 20 -6 10 41 16 115 13 30 -1 100 -2 155 -2z m-38 -166 c2 -36 -31 -288 -44
-342 -6 -25 -46 -32 -59 -11 -7 11 -7 109 1 148 2 11 6 57 10 102 3 46 9 84
14 86 5 2 7 12 4 23 -10 35 -28 14 -40 -47 -7 -32 -15 -108 -19 -169 -9 -146
-13 -155 -64 -155 -45 0 -47 5 -30 75 5 22 12 78 16 125 3 47 10 107 14 133 7
48 0 67 -17 44 -6 -6 -15 -73 -22 -148 -15 -176 -28 -223 -63 -227 -23 -3 -26
0 -23 17 2 13 -1 21 -9 21 -14 0 -19 47 -6 55 4 3 8 35 9 72 0 38 6 91 11 120
6 28 10 58 9 65 -6 44 -1 47 79 50 42 2 111 3 152 3 l75 0 2 -40z m246 26 c4
-1 15 -18 23 -38 12 -27 16 -78 17 -194 1 -86 -1 -160 -4 -163 -4 -4 -21 -8
-39 -11 l-33 -4 8 77 c4 42 9 98 10 125 1 26 3 48 5 50 6 8 7 37 1 37 -4 0 -5
20 -1 45 4 24 3 50 -2 57 -14 22 -27 -11 -30 -72 -1 -30 -2 -75 -3 -100 -3
-66 -16 -190 -22 -206 -3 -8 -15 -14 -28 -14 -41 0 -46 18 -35 128 6 55 10
104 9 109 -1 4 0 13 1 18 4 19 -1 138 -6 147 -14 23 -23 -11 -23 -95 0 -123
-10 -246 -22 -278 -8 -21 -15 -25 -39 -21 -24 3 -29 10 -34 41 -3 20 -3 54 0
76 3 22 5 47 6 55 0 8 4 32 9 53 6 21 10 70 11 110 0 40 2 74 3 77 2 4 175 -3
218 -9z m102 -63 c4 -13 18 -37 31 -55 27 -36 31 -68 10 -89 -20 -20 -22 -19
-24 23 -2 21 -10 51 -19 68 -18 35 -25 75 -13 75 5 0 12 -10 15 -22z m-698
-85 c-2 -32 -11 -100 -18 -150 l-13 -93 -33 0 c-26 0 -31 3 -26 16 3 9 0 19
-6 24 -9 5 -8 11 4 24 9 9 11 16 5 16 -19 0 -4 61 37 142 21 42 42 77 47 77 4
1 6 -25 3 -56z m797 -106 c9 -18 32 -54 52 -82 l34 -50 -27 -6 c-26 -5 -30 -1
-65 70 -21 41 -38 83 -38 93 0 26 24 12 44 -25z m-77 -86 c6 -60 5 -61 -20
-61 -29 0 -37 20 -25 65 4 16 5 46 2 65 l-6 35 22 -21 c16 -16 23 -37 27 -83z
m-878 32 c-18 -55 -21 -62 -35 -67 -20 -8 -17 21 4 42 10 10 21 26 25 35 11
28 16 19 6 -10z m31 -74 c0 -5 -4 -9 -10 -9 -5 0 -10 7 -10 16 0 8 5 12 10 9
6 -3 10 -10 10 -16z m-175 -20 c4 -6 2 -16 -4 -22 -29 -29 9 -43 44 -15 23 18
40 20 179 20 84 1 158 -2 165 -6 6 -4 16 -4 21 -1 6 4 18 1 26 -6 13 -11 17
-10 25 2 8 16 59 17 169 4 48 -6 226 -6 328 -1 47 2 62 0 62 -10 0 -8 -5 -14
-11 -14 -26 0 -348 -52 -431 -70 -51 -10 -111 -22 -133 -25 -22 -3 -67 -10
-100 -15 -33 -6 -96 -15 -140 -20 -44 -5 -127 -19 -185 -29 -144 -27 -156 -30
-185 -41 -54 -21 -55 -20 -51 114 2 68 6 128 9 132 8 14 204 17 212 3z m1185
-19 c0 -5 -9 -10 -21 -10 -11 0 -17 5 -14 10 3 6 13 10 21 10 8 0 14 -4 14
-10z m-100 -10 c0 -5 -9 -10 -21 -10 -11 0 -17 5 -14 10 3 6 13 10 21 10 8 0
14 -4 14 -10z"/>
</g>
</svg>
