<?xml version="1.0" standalone="no"?>
<!DOCTYPE svg PUBLIC "-//W3C//DTD SVG 20010904//EN"
 "http://www.w3.org/TR/2001/REC-SVG-20010904/DTD/svg10.dtd">
<svg version="1.0" xmlns="http://www.w3.org/2000/svg"
 width="300.000000pt" height="208.000000pt" viewBox="0 0 300.000000 208.000000"
 preserveAspectRatio="xMidYMid meet">
<metadata>
Created by potrace 1.16, written by Peter Selinger 2001-2019
</metadata>
<g transform="translate(0.000000,208.000000) scale(0.100000,-0.100000)"
fill="#000000" stroke="none">
<path d="M713 2007 c-11 -19 -82 -57 -108 -57 -12 0 -90 -71 -210 -193 -164
-166 -199 -197 -257 -225 -39 -18 -68 -39 -68 -47 0 -8 3 -15 8 -16 59 -6 87
-25 60 -40 -18 -10 -26 -61 -9 -56 5 1 19 -7 31 -18 63 -59 84 -84 101 -121
10 -23 26 -45 35 -48 8 -3 13 -10 10 -15 -3 -5 19 -26 49 -46 30 -21 61 -52
70 -71 9 -19 21 -34 27 -34 6 0 21 -11 34 -25 28 -30 55 -32 79 -5 16 18 16
20 2 20 -31 0 -17 30 43 92 33 34 77 87 97 117 43 66 92 121 109 121 20 0 19
-481 -1 -615 -9 -59 -15 -121 -13 -139 l3 -31 65 -2 c107 -3 240 -13 325 -24
44 -6 105 -10 135 -8 151 7 420 -5 420 -19 0 -3 -20 -30 -45 -61 -25 -31 -62
-78 -83 -104 -20 -27 -52 -65 -69 -86 -34 -40 -40 -56 -23 -66 14 -9 255 236
325 330 33 44 92 121 131 170 39 50 79 105 88 123 9 18 46 62 82 98 36 36 63
68 60 71 -3 3 -26 9 -52 14 -42 8 -51 6 -79 -15 -18 -14 -39 -40 -48 -58 -9
-18 -25 -46 -36 -62 l-19 -28 -193 1 c-309 3 -481 29 -463 71 4 8 8 24 9 36 2
11 8 29 13 40 6 10 26 51 44 91 27 58 37 71 51 67 10 -3 26 1 36 10 21 19 128
42 241 51 113 9 154 14 220 25 30 5 116 14 190 20 74 5 146 12 160 15 14 3 62
9 108 15 45 5 87 12 92 15 15 9 246 29 313 27 53 -2 58 0 55 18 -3 18 -13 20
-123 25 -66 2 -136 9 -155 15 -19 5 -58 10 -87 10 -28 0 -54 4 -57 9 -6 10
-65 17 -214 27 -52 3 -117 10 -145 14 -157 25 -268 40 -407 55 -85 9 -172 21
-192 26 -71 18 -313 57 -393 64 -44 3 -94 8 -111 11 -22 4 -36 0 -49 -13 -13
-12 -20 -14 -22 -6 -3 7 -15 27 -28 45 -14 18 -30 44 -36 58 -6 14 -17 37 -25
52 -8 14 -14 37 -14 50 0 12 -12 55 -27 93 -14 39 -26 88 -27 109 -1 41 -18
58 -33 33z m12 -103 c9 -31 14 -59 11 -61 -3 -3 -26 9 -51 28 l-45 34 32 28
c18 15 33 27 34 27 2 0 10 -25 19 -56z m-58 -71 c33 -32 70 -77 82 -100 21
-42 21 -42 1 -56 -11 -8 -54 -45 -96 -83 -41 -38 -80 -69 -85 -68 -5 1 -16 2
-25 3 -10 0 -14 7 -10 17 3 9 -1 37 -9 62 -9 25 -14 51 -11 58 3 7 1 16 -4 19
-6 4 -10 28 -10 54 0 39 6 56 31 87 30 39 57 64 69 64 4 0 34 -26 67 -57z
m-197 -143 c0 -16 7 -50 16 -76 8 -25 13 -49 9 -52 -3 -3 -8 4 -12 16 -3 12
-20 29 -37 37 -17 8 -37 25 -45 37 -12 20 -11 24 20 49 39 32 49 29 49 -11z
m356 -87 c21 -32 46 -73 55 -91 17 -32 17 -33 -4 -42 -12 -4 -53 -40 -91 -79
-54 -54 -73 -68 -83 -59 -7 6 -13 17 -13 25 0 8 -4 12 -8 9 -9 -5 -67 60 -67
74 0 5 -8 15 -19 23 -17 13 -16 16 29 58 130 122 149 139 155 139 4 0 24 -26
46 -57z m-370 -55 c26 -27 53 -48 60 -48 8 0 14 -3 14 -7 0 -5 -45 -55 -100
-113 -116 -121 -115 -121 -155 -1 -40 118 -35 136 70 242 19 19 24 16 111 -73z
m649 -5 c11 -3 49 -9 85 -13 36 -4 83 -12 105 -18 22 -6 81 -15 130 -22 129
-16 162 -23 143 -27 -9 -2 -65 3 -125 12 -72 11 -167 16 -288 15 -135 -2 -179
1 -177 10 1 7 -3 18 -9 26 -9 11 -9 14 0 14 7 0 9 5 5 11 -7 11 75 6 131 -8z
m-165 -97 c0 -24 20 -29 41 -10 19 17 39 18 207 17 103 -1 243 -9 312 -17 69
-9 177 -21 240 -26 63 -6 158 -15 210 -20 101 -10 353 -29 510 -39 110 -7 85
-17 -65 -25 -49 -3 -121 -10 -160 -16 -38 -6 -182 -13 -320 -15 -137 -2 -281
-9 -320 -14 -38 -6 -89 -11 -112 -11 -24 0 -44 -4 -44 -10 -1 -5 -3 -14 -4
-20 -1 -5 -3 -14 -4 -20 0 -5 -23 -10 -50 -10 -28 0 -52 -4 -55 -8 -3 -5 -7
-38 -10 -74 -5 -67 -21 -170 -36 -223 -4 -16 -7 -57 -6 -90 1 -57 2 -60 26
-58 14 0 43 6 65 11 45 12 528 25 562 16 21 -6 20 -9 -24 -72 -25 -37 -59 -83
-75 -102 -16 -19 -34 -41 -40 -49 -12 -14 -38 -14 -438 9 -126 7 -228 25 -246
43 -4 4 -16 7 -27 7 -34 0 -167 34 -167 42 0 4 -6 8 -14 8 -8 0 -17 4 -20 9
-8 12 10 257 30 406 8 66 19 150 23 188 5 37 14 74 21 82 19 23 5 48 -19 35
-11 -5 -37 -10 -58 -10 l-38 1 44 39 c47 43 61 49 61 26z m-303 -113 l33 -43
-38 -34 c-20 -18 -55 -48 -77 -67 -21 -19 -51 -47 -65 -62 l-25 -29 -28 22
c-15 12 -27 26 -27 32 0 6 -7 19 -15 27 -12 15 -10 21 20 60 19 24 35 49 35
56 0 14 38 62 85 108 l30 29 20 -27 c11 -16 35 -48 52 -72z m-401 47 c8 -18
14 -39 14 -46 0 -21 -18 -17 -25 6 -3 11 -12 20 -19 20 -18 0 -49 37 -42 49 4
5 18 8 32 7 19 -2 30 -12 40 -36z m664 -52 c-1 -7 -7 -40 -14 -73 l-12 -60 -6
58 c-4 32 -4 65 -1 73 6 17 33 19 33 2z m-514 -66 l-29 -27 23 32 c13 18 26
30 29 28 3 -3 -8 -18 -23 -33z m1499 -13 c4 -5 -11 -10 -32 -10 -80 -3 -112
-7 -237 -28 -71 -12 -130 -21 -131 -19 -2 2 -6 15 -10 29 -6 25 -5 25 47 28
29 1 54 3 55 5 8 7 304 3 308 -5z m93 4 c-10 -2 -26 -2 -35 0 -10 3 -2 5 17 5
19 0 27 -2 18 -5z m-1403 -133 c-33 -33 -64 -60 -70 -60 -12 0 106 119 120
120 5 0 -17 -27 -50 -60z m792 -14 c-18 -36 -33 -63 -35 -61 -2 2 1 12 7 23 6
12 11 36 11 55 0 38 6 47 31 47 14 0 13 -9 -14 -64z m766 -171 c-216 -281
-248 -318 -149 -170 23 33 48 73 56 89 8 16 23 31 32 34 13 3 15 9 9 20 -6 11
-1 21 17 37 35 30 59 22 35 -10z m-748 -105 c48 -1 31 -14 -31 -25 -41 -6 -41
-6 -36 20 3 19 8 23 15 16 6 -6 29 -11 52 -11z m102 -16 c-3 -3 -12 -4 -19 -1
-8 3 -5 6 6 6 11 1 17 -2 13 -5z m-467 -210 c80 -11 69 -24 -15 -18 -101 7
-125 12 -125 25 0 11 28 9 140 -7z"/>
</g>
</svg>
