<?xml version="1.0" standalone="no"?>
<!DOCTYPE svg PUBLIC "-//W3C//DTD SVG 20010904//EN"
 "http://www.w3.org/TR/2001/REC-SVG-20010904/DTD/svg10.dtd">
<svg version="1.0" xmlns="http://www.w3.org/2000/svg"
 width="215.000000pt" height="145.000000pt" viewBox="0 0 215.000000 145.000000"
 preserveAspectRatio="xMidYMid meet">
<metadata>
Created by potrace 1.16, written by Peter Selinger 2001-2019
</metadata>
<g transform="translate(0.000000,145.000000) scale(0.100000,-0.100000)"
fill="#000000" stroke="none">
<path d="M802 1368 c-7 -7 -12 -19 -12 -27 0 -18 -21 -80 -33 -99 -5 -7 -13
-10 -18 -6 -5 3 -28 -1 -52 -10 -23 -8 -71 -24 -107 -35 -36 -11 -85 -27 -110
-36 -25 -9 -67 -19 -95 -21 -27 -2 -71 -6 -97 -9 -28 -4 -49 -2 -53 4 -9 15
-21 14 -39 -4 -11 -12 -13 -21 -6 -38 6 -12 19 -56 30 -97 l19 -75 -34 -61
c-18 -34 -39 -71 -46 -82 -19 -30 -4 -38 36 -19 52 25 102 21 160 -11 80 -45
87 -49 142 -73 29 -12 60 -31 70 -41 12 -13 19 -15 29 -7 8 6 22 7 36 3 13 -4
29 -7 37 -5 7 1 11 -4 9 -11 -7 -20 -35 -22 -113 -8 -113 19 -115 20 -115 35
0 18 -12 19 -28 3 -14 -14 -16 -146 -3 -167 12 -19 48 -8 111 34 29 19 70 38
91 41 l39 7 0 -46 c0 -25 -5 -49 -10 -52 -6 -4 -56 -11 -112 -17 -102 -10
-218 2 -218 23 0 16 -69 10 -78 -6 -9 -16 9 -172 22 -193 13 -21 42 -13 87 26
77 67 105 82 201 106 51 14 95 23 97 21 11 -11 -11 -34 -38 -40 -49 -10 -55
-33 -41 -146 9 -74 16 -99 27 -99 7 0 40 22 72 48 31 27 75 59 97 72 21 13 43
30 47 37 6 9 32 13 90 12 45 0 104 4 131 10 36 9 52 9 63 0 22 -19 42 5 25 31
-6 10 -8 21 -3 24 4 3 6 18 3 35 -2 16 5 76 17 133 11 57 23 120 26 141 7 44
22 40 31 -8 3 -20 10 -38 15 -41 5 -3 9 -14 9 -25 0 -29 16 -23 68 25 43 40
118 86 140 86 5 0 19 -22 30 -50 12 -28 26 -50 31 -50 14 0 14 15 0 64 -10 35
-9 42 7 53 10 7 28 13 40 13 19 0 26 -11 44 -66 13 -37 27 -63 33 -61 13 4 11
56 -4 94 -12 33 -11 53 4 58 256 80 405 130 416 141 23 21 4 29 -40 17 -34 -9
-44 -8 -60 5 -11 9 -19 24 -19 34 0 18 -11 22 -162 57 -47 11 -128 34 -180 50
-51 16 -145 44 -208 61 -189 53 -448 167 -458 202 -2 10 -18 24 -35 33 -36 18
-40 18 -55 3z m51 -58 c3 -11 28 -30 61 -46 31 -14 56 -27 56 -29 0 -1 -38 -2
-85 -1 -53 1 -83 5 -81 11 3 6 10 27 17 48 14 41 24 47 32 17z m262 -131 c44
-17 90 -33 103 -36 12 -3 25 -10 29 -16 4 -7 -20 -8 -75 -5 -58 4 -84 3 -91
-6 -14 -17 -4 -26 28 -27 26 0 26 0 3 -11 -35 -18 -168 5 -198 33 -13 12 -24
18 -24 13 0 -5 -5 -2 -10 6 -18 29 -40 -11 -47 -85 -6 -61 -4 -68 10 -62 24 9
22 -33 -3 -83 -11 -22 -22 -56 -25 -77 -3 -21 -15 -87 -26 -146 l-21 -108 27
-25 c29 -26 29 -23 6 -126 -11 -52 -6 -78 14 -78 7 0 37 16 66 36 42 28 66 36
116 41 35 3 63 2 64 -3 0 -5 2 -23 5 -41 2 -19 -1 -35 -8 -39 -15 -9 -299 -7
-342 2 l-28 6 6 67 c4 36 9 80 11 96 3 17 7 77 10 135 3 58 7 142 10 187 5
110 65 288 118 355 9 12 32 18 73 21 32 2 73 4 89 5 17 1 66 -12 110 -29z
m-434 -45 c-46 -89 -51 -95 -51 -58 0 20 12 47 36 78 21 25 39 44 41 42 2 -2
-9 -30 -26 -62z m92 1 c-13 -25 -27 -45 -30 -45 -2 0 -3 17 -1 38 3 34 14 46
50 51 4 1 -5 -19 -19 -44z m-190 -47 c-10 -11 -23 -32 -30 -46 -12 -25 -12
-24 -6 13 3 22 15 52 27 66 19 23 21 24 24 7 2 -11 -5 -29 -15 -40z m-43 37
c-8 -8 -25 -16 -37 -18 -11 -1 -28 -9 -37 -16 -9 -8 -19 -12 -21 -9 -8 8 19
27 61 42 50 19 51 19 34 1z m159 -190 c-6 -44 -17 -126 -23 -182 l-11 -101
-31 13 c-18 7 -34 17 -37 22 -3 5 1 44 9 88 7 44 14 104 14 133 0 44 8 70 43
135 l42 82 3 -55 c2 -30 -2 -91 -9 -135z m664 164 c40 -11 80 -25 90 -30 11
-6 21 -8 24 -5 3 3 27 -4 54 -14 26 -11 85 -28 131 -40 142 -35 198 -53 198
-64 0 -6 9 -17 20 -24 41 -25 41 -25 -286 -127 -10 -3 6 110 19 132 3 5 2 15
-3 23 -7 11 -15 8 -44 -13 -40 -31 -46 -33 -46 -12 0 19 6 20 -75 -15 -39 -16
-79 -30 -90 -30 -19 -1 -19 -2 -3 -14 10 -7 15 -15 12 -18 -3 -3 6 -23 21 -43
35 -52 33 -65 -12 -66 -82 -2 -138 3 -144 13 -4 6 -18 8 -33 4 -27 -7 -27 -6
-21 41 3 26 7 83 9 125 2 42 8 83 13 90 22 37 79 107 86 108 5 0 41 -9 80 -21z
m-987 -22 c-10 -7 -39 -29 -64 -50 -49 -42 -62 -38 -62 20 0 34 10 38 105 41
35 1 37 -1 21 -11z m844 8 c0 -3 -10 -19 -22 -35 -15 -21 -24 -26 -29 -18 -4
7 0 17 9 24 15 11 15 14 -8 23 -23 9 -23 10 13 10 20 1 37 -1 37 -4z m-723
-30 c-7 -14 -15 -25 -19 -25 -11 0 -10 8 2 31 16 28 30 23 17 -6z m421 5 l27
-7 -29 -12 c-37 -15 -56 -8 -49 18 3 12 10 18 15 15 5 -3 22 -10 36 -14z
m-510 -38 c-13 -21 -31 -50 -40 -63 l-17 -24 0 36 c-1 31 5 40 37 62 20 14 38
26 40 26 2 1 -7 -16 -20 -37z m737 -4 c4 -16 4 -32 0 -36 -7 -7 -148 -4 -213
5 -49 6 -46 16 15 43 25 12 64 18 115 18 l77 0 6 -30z m-559 -15 c-11 -11 -19
6 -11 24 8 17 8 17 12 0 3 -10 2 -21 -1 -24z m-160 -60 c-8 -32 -18 -82 -22
-110 -7 -55 -12 -60 -45 -43 -32 17 -23 62 29 148 26 43 48 75 50 71 2 -4 -4
-33 -12 -66z m149 24 c15 -16 12 -77 -12 -190 -13 -60 -21 -77 -32 -75 -11 3
-15 13 -14 33 13 230 23 267 58 232z m-261 -57 c-7 -8 -10 -27 -7 -42 6 -34
-3 -36 -28 -5 -26 31 -24 56 8 85 l28 25 6 -24 c3 -14 0 -30 -7 -39z m181 -22
c-9 -108 -18 -151 -32 -155 -26 -9 -28 171 -2 220 6 9 17 17 25 17 13 0 14
-12 9 -82z m451 64 c7 -4 -5 -17 -32 -34 -46 -28 -50 -26 -34 16 10 26 41 35
66 18z m205 -12 c1 -8 3 -25 4 -38 2 -22 2 -22 -126 -20 -70 2 -125 6 -121 10
4 4 32 21 62 38 47 26 64 30 117 28 47 -2 63 -7 64 -18z m332 -52 c-5 -7 -15
-33 -22 -57 l-12 -43 -17 23 c-9 13 -23 29 -31 35 -12 10 -7 15 30 32 52 24
65 26 52 10z m83 -34 c-6 -21 -9 -24 -21 -14 -20 17 -19 37 3 49 21 12 27 1
18 -35z m-616 1 c-11 -14 -10 -14 14 -5 29 11 154 14 179 4 10 -4 12 -14 8
-37 l-7 -32 -84 -1 c-47 0 -104 1 -128 4 l-43 5 22 23 c30 32 8 31 -30 -2
l-31 -26 0 31 c0 25 5 32 28 37 15 3 32 7 37 9 6 2 18 4 29 4 15 1 16 -1 6
-14z m-700 -30 c11 -13 8 -15 -13 -15 -19 0 -25 4 -21 15 4 8 10 15 14 15 4 0
13 -7 20 -15z m1270 -41 c0 -11 -21 -24 -41 -24 -9 0 -3 44 9 64 6 10 32 -22
32 -40z m-595 -36 c-11 -7 -33 -24 -50 -40 -37 -34 -45 -35 -45 -4 0 48 9 56
64 56 43 -1 48 -2 31 -12z m205 -38 c-4 -28 -9 -53 -13 -56 -4 -4 -40 -9 -82
-12 -103 -6 -98 14 6 23 93 8 96 18 6 20 -135 4 -157 5 -157 13 0 9 58 45 85
52 11 3 52 6 90 7 l71 2 -6 -49z m182 -7 c4 -2 -11 -20 -33 -40 -22 -20 -41
-34 -42 -32 -2 2 -8 21 -14 42 l-11 38 46 -2 c26 -1 50 -4 54 -6z m-449 -80
c-9 -7 -23 -13 -30 -13 -19 0 -16 31 5 46 14 11 19 10 30 -4 11 -14 10 -19 -5
-29z m152 -7 c11 0 37 3 58 7 33 7 37 6 37 -11 0 -30 -75 -41 -182 -27 -60 8
-66 13 -45 34 8 9 26 10 62 5 28 -4 59 -7 70 -8z m-505 -76 c-40 -31 -60 -32
-60 -4 0 22 4 24 43 24 l42 0 -25 -20z m579 -27 c-14 -76 -10 -73 -109 -73
-49 0 -90 4 -90 9 0 12 119 97 145 104 11 2 30 5 41 6 20 1 21 -2 13 -46z
m-149 17 c-14 -10 -37 -29 -52 -40 l-28 -22 0 41 0 41 53 0 52 -1 -25 -19z
m-80 -137 c-24 -17 -35 -12 -27 11 4 9 14 12 27 9 l21 -6 -21 -14z m-491 -2
c22 -6 21 -9 -25 -45 l-49 -38 -5 39 c-10 66 -9 67 79 44z m356 -91 l60 0 -50
-29 c-27 -16 -63 -43 -79 -60 -43 -45 -56 -40 -57 19 -1 28 -2 62 -3 78 l-1
27 35 -17 c21 -11 57 -18 95 -18z"/>
</g>
</svg>
