<?xml version="1.0" standalone="no"?>
<!DOCTYPE svg PUBLIC "-//W3C//DTD SVG 20010904//EN"
 "http://www.w3.org/TR/2001/REC-SVG-20010904/DTD/svg10.dtd">
<svg version="1.0" xmlns="http://www.w3.org/2000/svg"
 width="207.000000pt" height="130.000000pt" viewBox="0 0 207.000000 130.000000"
 preserveAspectRatio="xMidYMid meet">
<metadata>
Created by potrace 1.16, written by Peter Selinger 2001-2019
</metadata>
<g transform="translate(0.000000,130.000000) scale(0.100000,-0.100000)"
fill="#000000" stroke="none">
<path d="M1795 1238 c-38 -10 -86 -18 -105 -17 -56 2 -60 0 -60 -23 0 -32 -9
-42 -55 -65 -59 -30 -98 -41 -225 -63 -142 -26 -150 -28 -150 -46 0 -19 67
-18 140 1 71 19 80 19 50 -2 -14 -9 -48 -33 -75 -54 -68 -51 -94 -44 -119 34
-3 9 -14 17 -25 17 -30 0 -39 -59 -14 -100 18 -31 18 -32 -6 -51 -17 -14 -33
-18 -52 -14 -33 7 -43 -6 -24 -31 17 -22 19 -44 5 -44 -11 0 -29 59 -23 76 2
6 15 17 29 24 29 16 32 40 5 40 -19 0 -19 2 5 60 13 33 24 64 24 70 0 17 -32
11 -64 -13 -46 -34 -108 -68 -114 -63 -2 3 5 21 17 41 11 20 21 40 21 46 0 14
-32 10 -66 -9 -17 -9 -50 -27 -72 -39 -23 -13 -43 -23 -46 -23 -3 0 -6 16 -8
36 -5 61 -25 63 -103 9 -61 -43 -67 -46 -61 -24 18 65 19 79 1 85 -11 5 -30
-6 -58 -33 -23 -21 -59 -50 -79 -64 -43 -28 -47 -40 -16 -54 11 -6 27 -20 35
-31 13 -20 11 -23 -23 -44 -30 -19 -38 -20 -45 -9 -19 28 -20 58 -6 100 29 85
40 161 26 170 -17 10 -57 -11 -94 -51 -16 -17 -44 -37 -60 -44 -34 -15 -115
-89 -115 -106 0 -24 31 -20 66 9 l37 30 24 -27 c13 -15 37 -47 53 -71 35 -52
31 -60 -38 -86 -26 -10 -49 -21 -52 -25 -3 -4 -20 -15 -37 -24 -18 -9 -33 -21
-33 -26 0 -14 12 -12 34 5 29 22 32 19 28 -25 -2 -22 -8 -40 -12 -40 -5 0 -22
13 -38 29 -27 28 -31 29 -51 15 -27 -19 -21 -29 37 -58 38 -20 46 -28 47 -52
0 -19 6 -30 17 -32 11 -2 18 3 18 12 0 12 7 14 30 9 36 -7 39 7 7 39 -19 20
-22 32 -19 79 l4 57 50 19 50 19 30 -29 c34 -34 33 -35 -50 -73 -48 -22 -62
-44 -28 -44 7 0 23 -11 35 -24 17 -18 22 -32 17 -50 -5 -19 -2 -26 8 -26 8 0
18 5 21 10 4 7 13 6 27 -1 34 -18 47 6 19 35 l-23 25 22 31 c21 29 24 30 38
16 12 -12 13 -19 4 -28 -9 -9 -3 -19 24 -46 34 -33 34 -35 18 -53 -13 -15 -15
-22 -6 -31 9 -9 16 -7 31 6 15 14 24 15 40 7 44 -24 73 0 31 27 -27 16 -25 34
5 62 28 26 46 20 28 -9 -14 -23 -8 -31 26 -31 39 0 53 -13 46 -42 -8 -29 9
-45 29 -29 10 8 25 7 56 -4 40 -14 60 -13 60 3 0 4 -18 16 -40 26 -26 13 -40
26 -40 38 0 18 1 18 17 3 9 -9 26 -21 39 -25 13 -5 32 -27 44 -50 23 -45 35
-50 45 -19 6 19 8 19 25 4 17 -15 19 -15 28 1 9 16 13 15 42 -15 18 -18 87
-59 154 -91 116 -55 286 -169 286 -190 0 -6 11 -16 25 -22 21 -9 29 -9 40 3
14 14 35 177 41 322 6 157 46 360 95 487 28 74 96 198 131 238 49 58 38 66
-57 40z m-36 -100 c-28 -48 -57 -108 -86 -178 -9 -19 -10 -6 -6 55 5 76 7 81
40 109 19 16 32 34 29 42 -4 11 3 15 47 23 4 0 -7 -23 -24 -51z m-143 -130
c-5 -61 -11 -86 -23 -93 -9 -5 -44 -30 -77 -55 -76 -56 -240 -160 -254 -160
-5 0 -15 7 -23 16 -10 13 -10 20 4 44 21 34 22 64 4 57 -9 -3 -14 4 -14 22 0
22 10 34 44 55 24 16 46 33 51 40 15 26 154 112 222 137 75 29 74 30 66 -63z
m-1212 5 c-10 -62 -19 -71 -43 -42 l-20 24 32 32 c17 18 32 31 34 29 2 -2 1
-21 -3 -43z m339 -45 c-3 -29 -6 -54 -7 -55 -1 -1 -11 13 -23 31 -20 30 -20
36 -7 55 28 39 42 26 37 -31z m-170 20 c-11 -51 -12 -52 -34 -32 l-21 19 22
17 c30 24 39 23 33 -4z m326 -19 c-6 -19 -13 -41 -16 -49 -4 -12 -7 -12 -19 4
-21 30 -17 54 14 70 15 8 28 13 30 12 1 -2 -3 -18 -9 -37z m135 -39 l-17 -42
-14 26 c-8 15 -11 31 -7 37 6 10 46 29 52 24 2 -1 -5 -22 -14 -45z m-224 8 c0
-6 11 -26 25 -43 23 -31 23 -34 7 -47 -30 -26 -43 -30 -57 -18 -19 16 -19 44
0 60 10 9 12 17 6 23 -11 11 -4 37 10 37 5 0 9 -5 9 -12z m-127 -30 c18 -31
18 -33 0 -46 -10 -7 -28 -15 -41 -19 -45 -11 -64 53 -24 85 26 20 46 14 65
-20z m291 -47 c14 -26 14 -30 -4 -46 -17 -16 -19 -16 -29 4 -18 33 -13 71 10
71 5 0 15 -13 23 -29z m633 -78 c-3 -49 -11 -117 -17 -153 -7 -36 -15 -95 -18
-132 l-7 -67 -42 28 c-49 33 -203 171 -203 182 0 4 42 41 93 82 51 41 99 83
107 92 16 20 70 55 84 55 5 0 6 -39 3 -87z m-1046 34 c27 -7 24 -20 -12 -41
l-31 -18 -30 30 -31 30 39 20 c37 19 39 19 42 2 2 -10 12 -20 23 -23z m178 -4
c11 -24 10 -29 -11 -45 -13 -10 -29 -18 -35 -18 -12 0 -49 48 -42 54 24 18 56
36 65 36 6 0 16 -12 23 -27z m169 -22 c4 -23 -22 -61 -41 -61 -5 0 -16 8 -23
18 -11 14 -9 21 14 45 30 31 46 31 50 -2z m315 4 c0 -6 -7 -11 -16 -13 -12 -3
-15 1 -11 13 7 17 25 17 27 0z m-195 -20 c16 -34 15 -45 -5 -67 -24 -27 -38
-22 -51 19 -10 31 -9 40 5 55 22 25 38 23 51 -7z m-398 -37 l21 -22 -38 -32
-38 -32 -13 24 c-11 22 -10 28 10 54 28 35 32 36 58 8z m141 4 c-5 -9 -18 -26
-30 -36 -19 -17 -21 -17 -27 -2 -4 10 2 23 17 36 31 25 53 27 40 2z m369 -12
c6 -11 21 -20 33 -20 13 0 32 -6 43 -14 17 -13 17 -15 2 -21 -16 -6 -117 52
-118 68 0 15 30 6 40 -13z m-316 -15 c3 -9 -10 -30 -37 -54 -33 -31 -44 -37
-50 -25 -5 9 3 27 25 54 35 42 52 49 62 25z m123 -24 l20 -40 -31 -29 c-17
-16 -41 -32 -53 -35 l-22 -5 24 37 c31 47 36 76 13 75 -21 -2 -23 7 -6 24 21
21 35 13 55 -27z m413 25 c0 -2 -16 -16 -35 -30 -19 -15 -35 -23 -35 -19 0 4
15 18 33 30 35 24 37 25 37 19z m-890 -56 c-18 -25 -25 -28 -36 -19 -19 16
-19 17 18 39 41 25 46 19 18 -20z m635 -35 c0 -5 -10 -11 -22 -13 -12 -2 -25
-12 -28 -23 -4 -10 -10 -19 -15 -19 -9 0 -8 19 3 37 4 7 5 24 1 38 -3 14 -3
33 0 42 6 15 11 12 34 -17 15 -19 27 -39 27 -45z m-421 48 c4 -11 -4 -28 -26
-50 -38 -39 -44 -40 -54 -11 -5 17 0 28 27 50 39 33 45 34 53 11z m176 -19 c0
-25 -33 -74 -50 -74 -39 1 -42 17 -10 54 34 38 60 47 60 20z m305 -12 c-3 -3
-11 0 -18 7 -9 10 -8 11 6 5 10 -3 15 -9 12 -12z m-165 -56 c0 -61 -22 -78
-57 -44 l-26 26 34 31 c19 17 37 31 42 31 4 0 7 -20 7 -44z m221 19 c-1 -15
-24 -12 -29 3 -3 9 2 13 12 10 10 -1 17 -7 17 -13z m79 -37 c15 -13 40 -31 56
-40 53 -32 69 -43 116 -80 26 -21 51 -38 57 -38 19 0 30 -36 30 -101 0 -35 -2
-72 -5 -82 -5 -16 -8 -15 -36 8 -16 14 -33 25 -38 25 -5 0 -42 30 -82 68 -40
37 -90 78 -111 91 -21 13 -49 41 -63 63 l-25 39 28 34 c34 40 38 41 73 13z
m-130 -4 c0 -8 -4 -12 -10 -9 -5 3 -10 10 -10 16 0 5 5 9 10 9 6 0 10 -7 10
-16z m-71 -36 c12 -31 6 -34 -25 -13 -21 13 -24 19 -13 26 22 13 29 11 38 -13z
m101 -91 l25 -29 -32 19 c-20 10 -33 26 -33 38 0 10 3 15 8 10 4 -6 18 -23 32
-38z"/>
</g>
</svg>
