<?xml version="1.0" standalone="no"?>
<!DOCTYPE svg PUBLIC "-//W3C//DTD SVG 20010904//EN"
 "http://www.w3.org/TR/2001/REC-SVG-20010904/DTD/svg10.dtd">
<svg version="1.0" xmlns="http://www.w3.org/2000/svg"
 width="187.000000pt" height="115.000000pt" viewBox="0 0 187.000000 115.000000"
 preserveAspectRatio="xMidYMid meet">
<metadata>
Created by potrace 1.16, written by Peter Selinger 2001-2019
</metadata>
<g transform="translate(0.000000,115.000000) scale(0.100000,-0.100000)"
fill="#000000" stroke="none">
<path d="M510 1115 c-13 -16 -57 -38 -97 -50 -11 -3 -24 -12 -27 -20 -7 -20
34 -20 60 0 40 30 46 21 42 -65 -3 -81 5 -98 32 -65 19 23 26 19 48 -26 27
-54 20 -71 -29 -67 -38 3 -39 4 -81 93 -51 108 -46 101 -59 88 -7 -7 1 -34 26
-88 19 -42 35 -81 35 -85 0 -4 -55 -6 -122 -6 -142 1 -176 13 -169 58 0 6 -38
3 -44 -4 -10 -10 -15 -129 -9 -216 7 -111 21 -135 53 -95 9 11 21 22 26 24 6
2 41 22 79 43 117 67 225 116 232 105 6 -10 -36 -66 -108 -147 -41 -45 -43
-72 -4 -47 18 12 30 13 50 6 14 -6 26 -15 26 -21 0 -7 8 -9 19 -5 11 3 22 1
26 -5 7 -12 -22 -14 -115 -10 -120 6 -153 5 -157 -6 -5 -15 47 -23 185 -31 61
-3 112 -10 112 -14 0 -5 -7 -9 -15 -9 -19 0 -115 -39 -213 -88 -40 -19 -75
-32 -78 -29 -3 3 -8 47 -10 98 -4 96 -10 114 -33 99 -11 -6 -15 -39 -15 -150
-1 -163 4 -173 60 -116 50 52 314 175 314 147 0 -11 -73 -77 -92 -84 -10 -4
-18 -15 -18 -26 0 -11 -16 -32 -35 -47 -39 -29 -38 -44 4 -44 16 0 48 -9 72
-20 74 -33 89 -26 41 18 -50 46 -53 74 -14 124 48 63 57 64 86 6 14 -28 23
-55 20 -60 -4 -5 4 -19 16 -30 12 -11 18 -23 15 -26 -4 -4 -14 4 -24 16 l-17
23 -22 -24 c-23 -25 -20 -37 8 -37 9 0 30 -12 45 -26 15 -14 34 -23 41 -20 10
4 16 -6 20 -34 4 -22 10 -40 15 -40 16 0 20 20 11 54 -14 47 7 76 54 76 27 0
34 -4 34 -19 0 -27 17 -35 29 -14 9 16 12 16 21 3 5 -8 10 -23 10 -32 0 -26
11 -48 21 -42 15 9 10 53 -12 96 -17 33 -19 49 -13 87 5 25 8 53 7 61 -1 8 14
31 32 51 37 42 44 39 64 -23 14 -44 9 -57 -48 -112 -43 -42 -44 -56 -6 -56 26
0 86 -31 121 -62 15 -14 24 -16 29 -8 6 9 -12 39 -36 60 -12 10 -16 36 -9 55
6 17 11 13 38 -30 18 -28 33 -54 35 -59 2 -5 9 -6 15 -2 9 5 9 13 2 27 -9 15
-7 19 5 19 8 0 15 5 15 10 0 6 13 10 28 10 20 0 38 -11 59 -35 35 -39 49 -44
56 -17 4 15 5 15 6 -1 0 -10 7 -17 14 -14 6 2 11 16 9 31 -2 20 2 26 17 26 11
0 29 -9 40 -21 12 -13 33 -21 54 -22 27 -1 38 -7 46 -24 11 -25 31 -31 31 -10
0 7 -16 37 -35 67 -19 30 -40 66 -47 80 -7 14 -17 28 -22 32 -10 7 49 102 83
132 17 16 19 15 31 -14 12 -29 10 -32 -29 -75 -22 -24 -41 -49 -41 -54 0 -21
22 -21 54 -2 44 28 62 26 70 -4 4 -14 12 -25 18 -25 7 0 22 -12 35 -27 21 -27
22 -27 23 -6 0 12 -4 24 -9 27 -5 3 -12 18 -16 33 -3 16 -13 35 -21 44 -10 11
-11 23 -4 49 5 18 8 36 5 39 -4 8 32 58 38 51 2 -3 14 -36 27 -75 27 -82 64
-145 85 -145 20 0 20 1 -17 60 -34 55 -76 189 -53 170 9 -7 16 -6 25 5 7 8 25
15 41 15 19 0 29 5 29 15 0 10 -10 15 -30 15 -24 0 -31 5 -36 26 -5 21 1 33
32 65 45 46 41 59 -9 24 -42 -28 -47 -19 -25 42 17 48 4 51 -42 9 -23 -20 -52
-42 -66 -48 -15 -7 -24 -19 -24 -35 0 -12 -4 -23 -9 -23 -4 0 -5 19 0 43 12
61 11 67 -10 67 -11 0 -28 13 -38 30 -9 17 -21 30 -26 30 -4 0 -3 9 3 20 16
30 56 25 105 -15 52 -43 75 -29 27 16 -27 26 -30 32 -21 62 5 18 10 67 12 108
2 41 9 85 16 97 27 51 -5 39 -71 -27 l-71 -70 17 -34 c22 -48 20 -66 -8 -77
-50 -19 -91 17 -66 57 10 15 11 14 7 -10 -2 -15 0 -30 4 -33 14 -8 26 35 34
122 7 84 -1 108 -26 77 -8 -9 -38 -34 -66 -55 -69 -51 -68 -68 2 -29 30 17 57
31 59 31 7 0 -6 -44 -17 -57 -13 -18 -28 -16 -21 2 4 9 0 15 -10 15 -12 0 -16
-10 -16 -44 0 -37 -5 -48 -31 -71 -17 -14 -33 -25 -34 -23 -6 7 15 206 24 231
11 27 8 47 -7 47 -4 0 -19 -19 -34 -43 -29 -46 -80 -97 -117 -116 -18 -10 -22
-9 -28 5 -3 9 -1 30 4 45 17 44 0 43 -41 -2 -30 -34 -41 -40 -62 -35 -18 5
-32 2 -45 -10 -25 -22 -25 -4 1 46 29 57 7 61 -48 8 -26 -24 -60 -50 -75 -56
-15 -7 -31 -22 -36 -34 -8 -21 -9 -20 -16 14 -7 36 14 92 53 140 8 9 12 23 10
30 -3 8 -29 -11 -70 -50 -39 -37 -73 -62 -86 -62 -15 0 -32 -14 -50 -40 -15
-21 -30 -39 -35 -40 -10 0 3 78 19 109 20 37 6 45 -29 17 -18 -15 -51 -40 -74
-57 l-43 -30 0 53 c0 29 6 65 14 80 19 37 2 54 -24 23z m300 -111 c-6 -14 -10
-51 -11 -82 l-1 -57 -19 40 c-25 55 -24 80 7 104 34 27 36 26 24 -5z m473 -21
c-6 -45 -25 -61 -35 -32 -5 13 -2 29 10 44 24 34 31 31 25 -12z m271 -51 l-17
-26 -12 34 c-12 33 -11 36 14 57 l26 21 3 -30 c2 -16 -4 -41 -14 -56z m-939
-9 c-7 -56 -8 -57 -18 -28 -5 17 -14 36 -20 43 -8 11 -5 18 13 32 14 10 26 17
29 15 2 -2 0 -30 -4 -62z m330 5 c-10 -62 -23 -73 -46 -44 -11 13 -19 29 -19
34 0 8 53 47 68 51 2 1 1 -18 -3 -41z m167 3 c-3 -9 -11 -24 -17 -34 -11 -15
-14 -16 -25 -2 -20 25 -33 18 -27 -15 10 -46 0 -60 -43 -60 -50 0 -59 28 -20
64 16 13 32 31 37 38 4 8 26 21 48 29 42 16 58 9 47 -20z m-342 -96 c0 -18
-23 -25 -81 -25 -47 0 -49 1 -49 27 0 19 14 41 42 70 l43 43 22 -51 c13 -28
23 -57 23 -64z m460 67 c0 -31 -34 -72 -60 -72 -24 0 -26 3 -26 40 1 34 6 43
31 59 27 17 31 17 43 3 6 -9 12 -22 12 -30z m-356 -79 c-10 -7 -21 -10 -25 -6
-11 12 -13 46 -4 66 7 16 10 14 27 -14 19 -31 19 -33 2 -46z m692 50 c-10 -10
-19 5 -10 18 6 11 8 11 12 0 2 -7 1 -15 -2 -18z m-451 -31 c-5 -14 -7 -14 -15
-2 -5 9 -4 20 3 28 14 17 22 0 12 -26z m135 8 c0 -5 -5 -10 -11 -10 -5 0 -7 5
-4 10 3 6 8 10 11 10 2 0 4 -4 4 -10z m151 -40 c10 -6 19 -17 19 -24 0 -15
-51 -85 -62 -86 -13 0 -51 91 -42 100 8 7 33 15 57 19 5 0 17 -4 28 -9z m-241
-30 c-13 -24 -26 -26 -33 -6 -4 10 2 16 16 19 12 2 23 5 25 6 1 0 -2 -8 -8
-19z m110 13 c0 -6 -80 -113 -85 -113 -2 0 -10 12 -20 26 -16 24 -15 27 10 60
21 27 33 34 61 34 18 0 34 -3 34 -7z m-821 -12 c0 -6 -250 -131 -262 -131 -8
0 -20 117 -13 129 7 10 276 13 275 2z m495 -24 c13 -20 -2 -50 -27 -55 -22 -4
-60 57 -46 74 13 16 59 4 73 -19z m46 23 c0 -5 -5 -10 -11 -10 -5 0 -7 5 -4
10 3 6 8 10 11 10 2 0 4 -4 4 -10z m106 -21 c18 -35 10 -60 -31 -99 l-21 -20
-28 52 -27 53 26 23 c36 31 61 28 81 -9z m-466 -19 l21 -41 -21 -29 c-12 -17
-25 -30 -29 -30 -13 0 -53 99 -45 111 5 8 32 23 51 28 2 1 12 -17 23 -39z
m185 30 c7 -12 -62 -106 -85 -115 -14 -6 -40 19 -40 37 0 4 16 26 36 48 35 39
75 52 89 30z m-117 -29 c-23 -28 -23 -28 -35 -7 -19 32 -16 36 23 36 l36 0
-24 -29z m610 -23 c12 -24 22 -55 22 -69 0 -33 -27 -46 -46 -22 -17 23 -17 45
-2 79 10 22 10 28 0 32 -13 4 -17 22 -4 22 4 0 17 -19 30 -42z m118 -23 c-4
-14 -13 -25 -21 -25 -20 0 -19 16 3 45 19 26 27 17 18 -20z m-177 1 c-11 -24
-29 -36 -29 -18 0 12 31 54 36 49 3 -2 -1 -16 -7 -31z m240 -14 c-26 -18 -33
-10 -25 24 7 25 8 26 26 9 20 -18 20 -18 -1 -33z m-679 -3 c-12 -39 -13 -41
-33 -33 -14 5 -14 9 5 35 28 38 39 37 28 -2z m55 -41 c-14 -16 -25 -34 -25
-39 0 -12 37 -12 45 1 8 13 42 13 50 -1 10 -15 -34 -59 -52 -52 -8 3 -25 -5
-39 -18 l-24 -23 4 57 c2 32 6 61 10 64 3 4 6 24 6 46 l0 40 25 -23 24 -23
-24 -29z m95 32 c-7 -16 -16 -30 -20 -30 -10 0 -1 40 13 58 16 21 21 5 7 -28z
m163 2 c-3 -12 -9 -22 -14 -22 -12 0 -11 7 2 32 13 25 20 19 12 -10z m-557
-58 c-3 -7 -15 -18 -26 -24 -21 -11 -22 -11 -15 32 4 23 10 47 12 51 7 12 35
-44 29 -59z m-76 -4 c-10 -36 -14 -40 -33 -34 -32 10 -32 9 4 54 38 46 45 41
29 -20z m506 12 c-15 -15 -16 -15 -16 0 0 9 3 24 6 33 7 16 8 16 17 0 6 -12 5
-22 -7 -33z m654 16 c0 -44 -15 -67 -32 -50 -19 19 -31 14 -24 -12 6 -23 -7
-36 -35 -36 -14 0 -11 26 6 40 8 7 15 21 15 31 0 15 51 59 68 59 1 0 2 -15 2
-32z m-960 -39 c0 -41 -16 -36 -17 6 -1 19 3 32 8 29 5 -3 9 -18 9 -35z m495
29 c36 17 41 16 64 -17 l20 -28 -25 -24 -25 -23 3 43 c4 52 -11 62 -42 29 -18
-19 -22 -20 -30 -8 -5 8 -10 22 -10 30 0 13 2 13 9 1 8 -12 14 -13 36 -3z
m327 -24 c4 -37 -18 -81 -28 -56 -7 16 -34 16 -34 -1 0 -9 -13 -14 -34 -15
-26 -1 -35 3 -39 19 -4 14 -2 19 8 15 7 -2 21 4 31 15 10 11 24 17 32 14 20
-8 52 13 46 30 -4 8 -2 15 4 15 5 0 12 -16 14 -36z m-762 -4 c-24 -15 -37 -11
-16 5 11 8 22 12 25 9 3 -3 -1 -9 -9 -14z m362 -7 c12 -26 11 -29 -23 -60 -23
-21 -47 -33 -64 -33 -27 0 -28 0 -10 20 10 11 24 20 32 20 13 0 17 16 13 58
-2 33 35 29 52 -5z m-72 -18 c0 -7 -6 -15 -13 -18 -10 -4 -13 2 -9 19 4 24 22
24 22 -1z m276 -29 c-13 -21 -71 -45 -81 -34 -3 2 17 20 43 41 49 37 66 34 38
-7z m-151 -1 c-17 -13 -34 -24 -40 -25 -5 0 6 13 25 29 19 16 37 27 40 25 2
-3 -9 -16 -25 -29z m-567 -2 c-5 -45 -33 -58 -47 -21 -6 18 -4 25 13 34 32 18
37 16 34 -13z m192 -25 c0 -13 -8 -18 -25 -18 -14 0 -25 5 -25 10 0 6 -7 10
-15 10 -8 0 -15 -4 -15 -10 0 -5 -8 -10 -17 -10 -13 0 -12 5 8 26 45 49 88 45
89 -8z m-140 5 c0 -7 -6 -13 -14 -13 -9 0 -12 8 -8 26 3 19 7 22 13 12 5 -7 9
-19 9 -25z m50 33 c0 -11 -19 -15 -25 -6 -3 5 1 10 9 10 9 0 16 -2 16 -4z
m266 -44 c-15 -15 -18 -15 -27 -2 -8 13 -11 13 -22 0 -14 -18 -53 -25 -61 -12
-3 6 1 15 8 21 10 9 16 9 21 1 4 -7 17 -1 36 15 28 23 32 24 46 9 14 -14 14
-17 -1 -32z m224 9 c0 -5 -7 -12 -16 -15 -14 -5 -15 -4 -4 9 14 17 20 19 20 6z
m391 -29 c-5 -10 -18 -25 -27 -33 -16 -12 -17 -12 -11 4 4 10 7 25 7 33 0 8 9
14 20 14 17 0 19 -3 11 -18z m-118 -5 c-16 -26 -98 -127 -103 -127 -11 0 -61
110 -55 120 3 5 14 10 25 10 15 0 17 -5 10 -34 -4 -19 -5 -37 -2 -40 8 -9 32
15 32 31 0 35 20 53 61 53 31 0 38 -3 32 -13z m-277 -29 c-3 -13 -6 -27 -6
-33 0 -5 -5 -3 -10 5 -15 23 -12 50 6 50 12 0 15 -6 10 -22z m84 16 c0 -3 -10
-19 -22 -34 -13 -15 -28 -36 -34 -46 -20 -33 -25 -9 -8 39 13 39 20 47 40 47
13 0 24 -3 24 -6z m-363 -34 c-26 -38 -99 -111 -105 -106 -3 4 0 12 6 18 7 7
12 33 12 58 0 26 2 49 4 51 3 2 25 3 50 1 42 -4 45 -6 33 -22z m147 -18 c-21
-26 -39 -49 -41 -52 -10 -12 -21 27 -16 55 7 37 14 41 59 43 l36 1 -38 -47z
m-328 13 c5 -21 -1 -34 -39 -70 l-45 -45 -12 30 c-18 43 -5 98 23 103 54 10
67 7 73 -18z m423 -41 c28 -72 27 -77 -14 -117 -19 -19 -35 -40 -35 -47 0 -16
-31 24 -54 68 -17 33 -14 65 8 88 6 6 22 25 36 42 14 16 28 28 32 26 4 -3 16
-29 27 -60z m-360 4 c0 -31 -1 -31 -10 -10 -5 13 -7 28 -3 33 10 16 14 9 13
-23z m523 -21 l26 -53 -21 -29 c-31 -44 -40 -47 -59 -22 -12 15 -16 36 -13 72
6 100 27 110 67 32z m-553 -108 c-35 -50 -51 -52 -66 -11 -16 48 -18 42 18 85
l32 38 18 -41 c19 -41 19 -42 -2 -71z m776 101 c3 -5 -1 -10 -10 -10 -9 0 -13
5 -10 10 3 6 8 10 10 10 2 0 7 -4 10 -10z m-545 -110 c0 -38 -1 -39 -20 -28
-24 16 -25 26 -3 50 22 25 23 24 23 -22z m210 20 c0 -11 -7 -20 -15 -20 -15 0
-21 21 -8 33 12 13 23 7 23 -13z m155 -9 c-3 -12 -13 -21 -21 -21 -18 0 -18 9
3 32 20 22 27 17 18 -11z m-549 -29 c-22 -5 -30 3 -21 18 5 8 11 7 22 -2 15
-12 14 -13 -1 -16z m-356 2 c0 -8 -5 -12 -10 -9 -6 4 -8 11 -5 16 9 14 15 11
15 -7z m968 -24 c13 -16 19 -30 15 -30 -10 0 -53 42 -53 52 0 17 17 7 38 -22z"/>
</g>
</svg>
