<?xml version="1.0" standalone="no"?>
<!DOCTYPE svg PUBLIC "-//W3C//DTD SVG 20010904//EN"
 "http://www.w3.org/TR/2001/REC-SVG-20010904/DTD/svg10.dtd">
<svg version="1.0" xmlns="http://www.w3.org/2000/svg"
 width="264.000000pt" height="216.000000pt" viewBox="0 0 264.000000 216.000000"
 preserveAspectRatio="xMidYMid meet">
<metadata>
Created by potrace 1.16, written by Peter Selinger 2001-2019
</metadata>
<g transform="translate(0.000000,216.000000) scale(0.100000,-0.100000)"
fill="#000000" stroke="none">
<path d="M1866 2075 c-31 -29 -30 -29 -55 -13 -16 10 -29 2 -97 -58 -44 -38
-121 -102 -171 -143 -51 -40 -93 -79 -93 -86 0 -18 -28 -45 -46 -45 -8 0 -13
6 -12 13 3 13 -15 14 -102 2 -30 -4 -71 -8 -92 -9 -47 -3 -68 -21 -68 -61 0
-30 -3 -33 -54 -49 -30 -10 -60 -24 -67 -32 -6 -8 -28 -14 -48 -14 -57 0 -135
-25 -229 -73 -48 -24 -114 -52 -147 -61 -33 -10 -81 -24 -107 -32 -26 -8 -53
-14 -60 -14 -7 0 -55 -14 -107 -30 -66 -21 -104 -28 -128 -24 -25 5 -34 2 -39
-10 -9 -23 26 -157 42 -163 12 -4 40 13 94 59 19 16 71 40 76 35 4 -4 -23
-178 -32 -201 -6 -14 -9 -15 -23 -3 -9 7 -28 18 -44 25 -23 10 -26 16 -21 37
3 14 2 25 -2 25 -13 -1 -44 -26 -44 -36 0 -5 -23 -32 -51 -60 -29 -29 -48 -57
-45 -63 4 -6 12 -9 17 -5 10 6 186 -44 244 -70 17 -7 46 -16 65 -20 19 -4 62
-16 95 -26 33 -11 74 -23 90 -28 23 -7 29 -15 28 -31 -3 -23 8 -27 35 -10 14
9 29 6 73 -16 29 -15 56 -30 59 -34 3 -3 23 -15 45 -26 33 -17 39 -25 40 -50
0 -23 5 -30 20 -30 15 0 19 6 18 23 -2 19 1 22 22 17 14 -3 37 -7 51 -10 20
-5 24 -10 19 -25 -7 -23 22 -41 34 -21 9 14 41 4 41 -12 0 -6 -21 -32 -46 -58
-47 -48 -50 -69 -11 -69 13 0 33 -7 46 -16 13 -9 51 -31 84 -49 160 -84 203
-112 252 -163 29 -31 65 -33 65 -3 1 21 10 32 100 115 41 39 107 99 145 135
39 36 129 112 201 168 72 56 158 127 192 157 35 31 78 63 97 71 19 7 35 20 35
28 0 8 26 32 58 53 31 21 74 60 95 86 l38 49 -19 27 c-11 15 -29 36 -41 46
-12 11 -21 23 -21 27 0 5 -25 49 -55 99 -30 50 -55 95 -55 100 0 9 -113 195
-135 220 -7 8 -15 27 -19 42 -3 15 -22 53 -41 85 -19 31 -44 82 -56 113 -40
102 -78 180 -88 180 -5 0 -7 9 -4 20 7 27 -9 25 -41 -5z m59 -92 c15 -32 35
-79 45 -104 10 -25 39 -86 64 -136 25 -50 46 -94 46 -98 0 -3 14 -26 30 -50
17 -24 30 -47 30 -50 0 -4 19 -37 43 -73 42 -65 61 -102 52 -102 -4 0 -125
197 -171 279 -12 21 -38 61 -57 89 -19 28 -41 65 -48 82 -8 16 -17 30 -22 30
-6 0 -46 78 -52 100 0 3 -5 14 -11 25 -8 18 -9 29 -5 58 0 4 7 7 15 7 7 0 26
-26 41 -57z m-136 19 c-6 -10 -25 -27 -43 -38 -99 -65 -90 -60 -76 -39 13 21
109 95 122 95 5 0 3 -8 -3 -18z m38 -19 c-3 -11 12 -42 38 -78 24 -33 67 -98
96 -145 29 -47 84 -134 123 -195 39 -60 84 -135 99 -165 16 -30 44 -75 63
-100 64 -84 79 -103 114 -153 l34 -49 -21 -17 c-12 -9 -47 -37 -80 -62 -32
-26 -78 -59 -103 -75 -25 -16 -65 -49 -90 -73 -54 -52 -205 -180 -240 -203
-14 -9 -34 -24 -45 -34 -11 -11 -40 -32 -65 -48 -25 -17 -58 -42 -75 -56 -31
-28 -97 -75 -203 -146 l-63 -43 -97 66 c-53 36 -98 67 -100 68 -2 2 0 19 3 39
6 30 20 45 79 90 39 30 103 89 141 131 86 95 287 274 419 373 95 71 93 68 64
91 -14 11 -28 34 -31 51 -5 20 -12 30 -25 30 -22 0 -57 36 -67 68 -3 12 -11
22 -16 22 -5 0 -9 6 -9 14 0 8 -4 16 -9 18 -4 2 -25 37 -45 79 -20 42 -46 92
-59 110 -23 35 -80 157 -92 196 -5 19 6 30 72 77 43 30 97 64 121 76 24 12 48
30 55 41 15 24 20 24 14 2z m-324 -264 c-4 -4 -15 -4 -23 1 -12 7 -11 12 5 31
l20 21 3 -22 c2 -12 0 -26 -5 -31z m89 -57 c20 -42 46 -93 58 -112 21 -34 21
-34 1 -10 -60 71 -77 95 -93 129 -18 39 -23 71 -10 71 4 0 24 -35 44 -78z
m-168 41 c8 3 34 -15 61 -43 l48 -49 -36 11 c-20 6 -37 15 -37 20 0 16 -77 8
-93 -10 -18 -19 -32 -109 -43 -264 -8 -114 4 -138 73 -138 38 0 53 6 91 37
l45 37 -7 -126 -7 -126 32 -4 c77 -12 143 24 164 87 43 132 38 179 -25 243
-32 31 -42 36 -68 33 -24 -4 -37 24 -37 81 l0 57 42 -47 c23 -26 42 -52 43
-58 0 -7 11 -22 25 -35 13 -13 25 -29 25 -35 0 -6 7 -18 16 -25 9 -7 34 -40
55 -74 21 -33 51 -73 66 -88 l28 -28 -27 -22 c-86 -72 -162 -132 -178 -141 -9
-6 -47 -36 -83 -66 -36 -30 -114 -84 -174 -119 -59 -35 -126 -76 -148 -90 -22
-15 -57 -38 -78 -50 l-38 -23 4 98 c4 88 9 135 32 296 9 60 42 209 67 298 11
41 27 100 34 130 21 89 31 123 49 165 10 22 21 51 26 64 8 19 12 21 24 11 8
-7 21 -10 29 -7z m-128 -111 c-15 -53 -38 -139 -52 -191 -14 -51 -37 -139 -50
-194 -14 -56 -27 -103 -30 -106 -3 -3 -2 84 2 194 4 110 8 244 8 297 l1 98 40
1 c22 1 54 4 70 8 17 4 32 3 33 -2 2 -4 -8 -52 -22 -105z m-161 -73 c-1 -142
-8 -315 -14 -330 -4 -12 -12 -14 -27 -9 -21 8 -21 12 -18 207 4 177 6 198 21
205 33 12 38 2 38 -73z m331 57 c54 -26 74 -56 74 -110 0 -88 -75 -200 -129
-194 l-26 3 0 105 c0 81 18 220 30 220 0 0 24 -11 51 -24z m-409 -23 c6 -17
-13 -353 -21 -360 -2 -2 -19 2 -38 10 l-33 14 7 94 c3 52 8 103 11 114 2 11 8
41 11 67 10 65 48 102 63 61z m-77 -25 c0 -13 -5 -40 -11 -61 -5 -21 -13 -81
-17 -135 -6 -88 -9 -97 -27 -97 -14 0 -19 6 -18 20 1 11 5 71 8 132 9 146 8
145 31 154 30 12 34 10 34 -13z m-78 -19 c2 -6 0 -39 -4 -73 -4 -33 -10 -91
-14 -127 l-5 -67 -35 8 c-20 5 -38 10 -40 13 -4 3 10 110 21 167 2 8 4 26 4
40 1 33 64 67 73 39z m-92 -31 c-1 -27 -29 -200 -34 -205 -3 -3 -17 -2 -31 1
-29 7 -29 21 -5 111 6 22 13 51 16 65 3 13 11 28 17 32 18 12 37 9 37 -4z
m-94 -100 c-11 -46 -20 -84 -21 -85 0 -1 -18 3 -38 9 -33 10 -37 15 -37 44 0
45 16 83 37 90 10 3 25 9 33 14 8 5 22 9 31 9 13 1 13 -9 -5 -81z m-118 -6
c-11 -45 -11 -45 -78 -20 l-25 10 28 14 c15 8 27 19 27 25 0 6 4 7 10 4 5 -3
18 -2 27 4 10 5 19 9 20 7 1 -1 -3 -21 -9 -44z m-98 24 c0 -2 -51 -32 -112
-67 -62 -34 -126 -71 -141 -82 -32 -22 -42 -16 -52 30 -6 29 -4 33 22 38 15 4
47 13 69 21 23 8 50 17 60 19 15 3 64 18 152 44 1 1 2 -1 2 -3z m1165 -59 c25
-35 29 -51 28 -96 -3 -70 -38 -143 -75 -155 -15 -6 -31 -6 -35 -2 -11 11 -5
241 7 271 14 37 41 30 75 -18z m-1196 -20 c6 -8 9 -16 6 -19 -3 -3 -14 -71
-24 -152 -11 -81 -22 -150 -25 -154 -8 -8 -73 27 -79 42 -2 6 4 49 13 96 9 47
16 101 16 120 -1 28 5 39 29 57 36 25 49 27 64 10z m99 -30 c22 -11 23 -15 17
-71 -3 -33 -8 -63 -10 -66 -3 -4 -7 -36 -11 -71 -9 -97 -9 -96 -23 -113 -16
-19 -51 -21 -74 -3 -15 11 -15 24 4 167 11 85 22 161 24 168 5 14 31 10 73
-11z m101 -24 c21 -5 23 -10 18 -52 -20 -160 -28 -215 -31 -218 -2 -2 -20 -7
-41 -10 l-38 -6 7 74 c5 58 19 150 25 167 1 1 1 13 1 27 0 26 13 31 59 18z
m105 -58 c-1 -16 -4 -59 -7 -95 -4 -36 -6 -68 -7 -72 0 -7 -70 -32 -74 -26 -4
4 22 198 28 215 4 9 17 13 33 11 24 -3 28 -7 27 -33z m89 -5 c5 -4 5 -35 1
-68 -6 -54 -9 -62 -35 -72 -15 -7 -31 -10 -35 -9 -8 4 -5 103 5 162 1 8 52 -2
64 -13z m65 -54 c3 -38 -11 -66 -32 -66 -13 0 -13 40 -2 86 10 36 30 24 34
-20z m87 4 c3 -5 -9 -13 -25 -19 -26 -9 -30 -8 -30 8 0 10 3 20 6 23 7 7 43
-2 49 -12z m107 -120 c-2 -122 -24 -370 -33 -370 -25 0 -29 36 -25 238 2 115
7 215 11 222 4 6 16 10 27 8 20 -3 21 -9 20 -98z m-87 -17 c-7 -147 -17 -308
-20 -311 -1 -2 -24 10 -49 25 l-47 28 6 65 c18 200 26 245 48 262 12 10 32 18
44 18 21 0 21 -3 18 -87z m-774 40 c27 -14 49 -29 50 -32 6 -41 4 -51 -9 -51
-13 0 -141 40 -151 47 -5 3 50 63 57 63 2 0 26 -12 53 -27z m655 -43 c-3 -17
-8 -67 -11 -113 -8 -102 -13 -127 -26 -127 -7 0 -10 40 -8 113 2 140 6 157 31
157 17 0 20 -5 14 -30z m-73 -102 c-2 -62 -6 -115 -9 -117 -2 -2 -23 2 -46 9
-24 7 -37 15 -30 17 8 3 12 30 12 88 0 75 2 85 22 99 12 9 30 16 39 16 16 0
17 -12 12 -112z m-450 63 c26 -14 34 -31 21 -44 -3 -3 -21 1 -39 10 -24 11
-31 20 -27 35 2 10 7 17 11 16 3 -2 18 -10 34 -17z m350 -63 c-3 -46 -7 -84
-8 -86 -2 -2 -18 4 -35 13 -30 15 -32 20 -26 53 3 21 6 47 6 59 0 19 29 39 62
42 4 1 4 -36 1 -81z m-101 -27 l-8 -24 -27 27 c-30 30 -27 51 11 64 24 8 27 6
30 -17 2 -15 -1 -37 -6 -50z m-126 29 c67 -34 64 -37 -13 -13 -29 9 -53 23
-53 30 0 17 -2 18 66 -17z m843 -200 c-35 -33 -76 -67 -91 -75 -38 -21 -78
-60 -78 -76 -1 -9 -8 -5 -20 9 -18 22 -18 25 -4 48 9 13 19 24 23 24 4 0 56
31 116 70 60 38 111 67 114 65 2 -3 -24 -32 -60 -65z m-261 -180 c4 -12 26
-32 47 -45 22 -13 35 -25 29 -25 -5 0 -31 14 -57 30 -26 17 -53 30 -59 30 -7
0 -6 5 2 15 17 21 29 19 38 -5z m402 -190 c-44 -39 -60 -47 -60 -32 0 7 89 71
100 72 3 0 -15 -18 -40 -40z"/>
<path d="M1311 1181 c-5 -14 -17 -82 -26 -151 -9 -69 -20 -138 -25 -154 -12
-38 10 -56 54 -46 118 28 157 75 173 202 4 36 0 58 -16 91 -29 59 -47 74 -103
79 -43 5 -47 3 -57 -21z m75 -39 c43 -30 59 -128 30 -195 -14 -34 -74 -73 -89
-58 -4 4 -3 59 3 122 5 63 10 120 10 127 0 13 29 16 46 4z"/>
</g>
</svg>
