<?xml version="1.0" standalone="no"?>
<!DOCTYPE svg PUBLIC "-//W3C//DTD SVG 20010904//EN"
 "http://www.w3.org/TR/2001/REC-SVG-20010904/DTD/svg10.dtd">
<svg version="1.0" xmlns="http://www.w3.org/2000/svg"
 width="148.000000pt" height="142.000000pt" viewBox="0 0 148.000000 142.000000"
 preserveAspectRatio="xMidYMid meet">
<metadata>
Created by potrace 1.16, written by Peter Selinger 2001-2019
</metadata>
<g transform="translate(0.000000,142.000000) scale(0.100000,-0.100000)"
fill="#000000" stroke="none">
<path d="M403 1329 c-18 -5 -33 -15 -33 -22 0 -7 -27 -39 -60 -72 -33 -33 -59
-64 -57 -70 2 -5 24 -11 48 -11 50 -2 146 -43 201 -86 41 -32 112 -74 141 -84
10 -4 16 -11 14 -17 -3 -11 -74 -54 -217 -133 -47 -26 -102 -58 -123 -71 -22
-13 -40 -23 -41 -21 -24 33 -47 81 -44 94 2 12 43 30 136 60 74 23 152 46 173
49 21 4 41 11 45 16 3 5 9 7 14 4 5 -3 12 -1 15 5 9 14 -60 4 -150 -22 -118
-35 -258 -68 -263 -63 -10 10 -32 -18 -32 -40 0 -13 13 -49 30 -80 17 -31 30
-63 30 -71 0 -27 30 -13 175 82 81 52 154 98 163 101 9 3 26 14 37 23 46 39
50 34 52 -59 1 -47 4 -111 6 -141 3 -40 0 -60 -12 -73 -13 -16 -13 -19 -1 -27
8 -6 25 -10 37 -10 27 0 46 -54 41 -118 l-3 -42 -50 36 c-27 19 -79 53 -115
75 -36 21 -94 66 -130 99 -35 33 -67 60 -70 60 -3 0 -18 -6 -33 -12 -19 -9
-26 -19 -23 -31 2 -10 -6 -37 -19 -60 -16 -27 -22 -51 -18 -66 5 -20 10 -22
40 -16 28 5 46 -1 96 -28 34 -19 96 -52 137 -73 69 -36 73 -39 45 -42 -16 -2
-46 1 -67 7 -20 6 -81 12 -135 12 -70 0 -105 5 -121 15 -13 9 -25 14 -27 12
-1 -2 -5 -35 -9 -75 -4 -58 -3 -72 10 -77 8 -3 83 3 167 14 84 11 159 20 167
20 31 -1 -78 -50 -148 -65 -77 -18 -97 -32 -67 -49 11 -6 32 -23 48 -38 23
-23 26 -31 17 -48 -11 -21 -6 -40 12 -40 5 0 49 27 97 60 47 33 110 76 140 95
l54 36 -7 -101 c-6 -87 -5 -101 9 -106 28 -11 35 9 38 119 2 59 6 110 9 112 5
6 229 -121 238 -134 3 -5 21 -16 40 -26 19 -10 58 -33 87 -52 51 -34 83 -40
90 -16 2 6 -29 33 -69 58 -40 26 -76 53 -81 60 -4 7 -48 46 -99 87 l-92 73
214 7 c226 8 303 16 298 33 -2 6 -76 9 -203 7 -110 -1 -222 1 -250 6 l-50 8
30 19 c17 11 55 38 85 61 30 23 89 60 130 83 41 24 82 49 90 56 13 12 22 9 65
-20 55 -38 65 -41 65 -22 0 8 -20 28 -45 46 -37 27 -44 36 -34 47 6 8 18 14
25 14 8 0 14 5 14 10 0 19 -33 24 -61 8 -26 -15 -28 -15 -72 21 -142 114 -219
172 -277 211 -60 40 -100 73 -100 83 0 7 142 73 185 87 22 7 54 18 70 25 17 7
62 23 102 35 74 23 113 44 102 55 -4 3 -108 -28 -231 -70 -123 -41 -229 -75
-235 -75 -18 0 -22 53 -7 82 20 38 73 116 85 123 5 4 9 15 9 27 0 19 -4 20
-47 13 -27 -4 -76 -9 -111 -10 -43 -1 -69 -7 -80 -18 -15 -15 -14 -18 6 -40
17 -18 22 -35 22 -81 l0 -58 -37 28 c-43 32 -51 39 -112 89 -24 20 -53 43 -65
50 -20 14 -20 15 -1 28 11 9 16 20 12 31 -7 18 -25 19 -74 5z m78 -115 c33
-25 68 -54 77 -63 9 -10 38 -34 65 -55 32 -27 47 -46 47 -62 0 -13 -2 -24 -4
-24 -6 0 -108 61 -167 101 -30 20 -71 42 -92 50 -59 21 -64 33 -25 68 18 17
34 31 36 31 2 0 30 -21 63 -46z m322 19 c-4 -9 -17 -38 -29 -64 -13 -26 -26
-59 -30 -73 -3 -14 -13 -26 -21 -26 -11 0 -14 6 -9 23 3 12 6 47 6 78 l0 55
38 11 c52 15 52 15 45 -4z m-7 -271 c10 -10 57 -43 104 -73 85 -56 145 -108
90 -79 -24 13 -81 48 -182 114 -26 17 -48 37 -48 44 0 17 13 15 36 -6z m20
-74 c32 -18 94 -56 137 -85 43 -29 84 -53 91 -53 7 0 24 -8 37 -18 13 -10 45
-31 72 -46 26 -15 47 -31 47 -35 0 -13 -294 -197 -371 -233 l-35 -16 19 74
c14 51 31 87 54 113 23 28 30 42 21 47 -6 4 -56 7 -111 6 -83 -1 -97 1 -83 11
13 9 19 36 26 107 5 51 7 97 4 101 -6 10 14 59 24 59 5 0 35 -14 68 -32z
m-387 -300 c31 -23 72 -53 91 -68 19 -15 55 -39 80 -53 61 -36 127 -93 118
-102 -9 -10 -388 196 -388 210 0 13 29 55 37 55 3 0 31 -19 62 -42z m381 -5
c0 -5 -8 -30 -19 -57 l-18 -48 -6 33 c-3 19 -9 44 -13 57 -6 19 -3 22 25 22
17 0 31 -3 31 -7z m-326 -223 c16 -6 50 -10 75 -11 25 -1 57 -5 71 -9 19 -6
10 -8 -35 -9 -33 -1 -103 -8 -155 -16 -52 -8 -112 -15 -132 -15 -37 0 -38 1
-38 34 0 34 1 35 48 38 63 4 131 -1 166 -12z m476 -10 c10 -6 -2 -7 -35 -4
-28 3 -52 8 -54 10 -9 8 75 3 89 -6z m-257 -67 c-18 -14 -75 -51 -127 -83
l-94 -58 -21 29 -21 29 27 6 c16 3 60 21 98 39 39 19 83 37 98 40 15 4 30 11
33 16 3 5 13 9 22 9 12 -1 8 -8 -15 -27z m172 -3 c67 -46 66 -57 -1 -15 -70
45 -71 45 -55 45 7 0 32 -14 56 -30z"/>
</g>
</svg>
