<?xml version="1.0" standalone="no"?>
<!DOCTYPE svg PUBLIC "-//W3C//DTD SVG 20010904//EN"
 "http://www.w3.org/TR/2001/REC-SVG-20010904/DTD/svg10.dtd">
<svg version="1.0" xmlns="http://www.w3.org/2000/svg"
 width="301.000000pt" height="158.000000pt" viewBox="0 0 301.000000 158.000000"
 preserveAspectRatio="xMidYMid meet">
<metadata>
Created by potrace 1.16, written by Peter Selinger 2001-2019
</metadata>
<g transform="translate(0.000000,158.000000) scale(0.100000,-0.100000)"
fill="#000000" stroke="none">
<path d="M1128 1399 c-21 -12 -23 -32 -6 -58 10 -17 6 -26 -34 -68 -26 -26
-102 -106 -170 -177 -68 -71 -136 -137 -151 -146 -16 -10 -61 -50 -101 -89
-44 -43 -82 -71 -95 -71 -14 0 -21 -6 -21 -20 0 -36 -43 -25 -80 22 -19 23
-62 72 -96 108 -34 36 -64 76 -65 90 -5 31 -35 38 -44 11 -3 -12 -28 -43 -54
-70 -44 -45 -46 -50 -31 -67 9 -11 29 -27 45 -36 45 -25 154 -111 160 -126 9
-25 -236 2 -296 32 -25 13 -30 12 -46 -6 -16 -18 -18 -36 -15 -151 1 -73 7
-136 11 -140 10 -10 38 3 96 47 41 32 152 83 160 74 5 -5 -149 -108 -162 -108
-4 -1 -18 -9 -30 -19 -24 -20 -30 -41 -13 -41 5 0 27 -15 47 -33 43 -38 122
-79 136 -70 5 3 6 20 3 38 -5 26 -1 37 18 57 28 27 79 100 119 171 18 30 35
47 47 47 31 0 33 -19 9 -64 -24 -46 -20 -80 8 -74 10 2 19 12 21 23 8 48 13
49 35 10 27 -47 67 -61 67 -23 1 55 15 50 91 -27 41 -42 94 -88 119 -103 25
-14 65 -42 90 -62 25 -19 57 -42 72 -49 14 -7 40 -26 57 -41 16 -15 49 -39 73
-52 35 -19 44 -30 48 -58 4 -24 10 -34 20 -31 8 2 35 7 60 12 57 9 63 11 155
43 490 171 531 186 700 256 55 23 119 48 142 55 24 8 80 32 125 54 46 22 95
43 111 46 15 4 30 11 33 16 9 15 32 10 38 -8 3 -10 2 -46 -3 -80 -8 -72 -3
-86 30 -81 20 2 25 10 31 53 14 93 20 160 22 250 2 84 21 254 31 283 8 22 97
-33 134 -83 30 -41 34 -54 35 -108 2 -176 -41 -263 -180 -362 -35 -25 -64 -50
-64 -56 0 -39 135 43 208 126 83 94 126 335 74 415 -47 74 -138 131 -210 130
-36 -1 -66 -24 -58 -45 3 -9 3 -28 0 -42 -8 -31 -23 -28 -149 28 -160 72 -346
146 -383 154 -33 7 -148 53 -244 99 -54 25 -101 46 -106 46 -5 0 -58 21 -118
46 -60 26 -116 47 -124 49 -33 4 -58 17 -64 31 -5 12 -15 14 -44 9 -21 -3 -69
1 -110 10 -85 18 -91 18 -114 4z m191 -85 c2 -2 -4 -30 -14 -61 -9 -32 -28
-101 -41 -153 -12 -52 -27 -111 -33 -130 -11 -37 -28 -164 -41 -295 l-7 -80
-2 85 c-2 47 -6 159 -9 250 -4 91 -7 211 -7 268 0 126 8 137 95 126 30 -4 57
-8 59 -10z m118 -5 c26 -11 61 -26 78 -34 16 -7 80 -33 140 -59 61 -25 107
-45 104 -46 -16 -1 -168 33 -209 47 -25 8 -56 17 -70 19 -72 12 -120 29 -120
42 0 14 18 52 25 52 2 0 25 -9 52 -21z m-307 -74 c0 -21 -5 -25 -32 -25 l-31
0 23 25 c13 14 27 25 32 25 4 0 8 -11 8 -25z m385 -36 c44 -11 94 -24 110 -29
17 -5 50 -12 75 -16 25 -3 65 -13 90 -21 57 -19 133 -39 185 -48 59 -10 119
-32 234 -86 57 -27 114 -49 127 -49 14 0 50 -13 82 -28 31 -16 79 -35 106 -42
l48 -13 -6 -56 c-4 -31 -9 -91 -13 -133 -3 -43 -11 -82 -17 -87 -16 -13 -227
-107 -321 -143 -44 -17 -141 -55 -215 -84 -191 -75 -501 -164 -645 -185 -170
-24 -165 -24 -165 3 0 14 7 31 15 38 12 10 15 36 15 114 0 143 17 429 30 506
6 36 22 112 35 170 14 58 30 131 36 162 l12 57 51 -5 c28 -3 87 -14 131 -25z
m-395 -34 c0 -12 -13 -15 -56 -15 -49 0 -55 2 -44 15 8 9 30 15 56 15 32 0 44
-4 44 -15z m5 -66 c11 -16 6 -17 -88 -22 -88 -4 -97 -1 -75 21 15 15 154 16
163 1z m4 -63 c-9 -10 -250 -15 -244 -6 4 6 59 10 127 10 67 0 119 -2 117 -4z
m3 -154 c1 -128 0 -154 -13 -166 -5 -6 -11 3 -15 22 -8 39 -20 40 -55 6 l-28
-27 -21 36 c-25 41 -36 40 -69 -8 -19 -28 -27 -33 -38 -24 -7 7 -12 23 -11 38
2 20 -2 27 -19 29 -13 2 -23 8 -23 13 0 5 -7 9 -16 9 -13 0 -15 -7 -10 -32 4
-23 0 -40 -12 -56 l-18 -24 -17 25 c-14 22 -14 27 -2 37 22 19 18 32 -9 28
-13 -1 -33 6 -45 16 -31 28 -48 8 -28 -31 15 -27 14 -31 -10 -61 -13 -18 -29
-30 -34 -27 -15 10 -10 38 12 61 22 23 19 44 -6 44 -8 0 -18 -8 -24 -17 -5
-10 -12 -15 -15 -12 -3 3 12 24 33 47 l39 41 199 -1 c167 -2 198 0 198 13 0
11 -31 15 -175 19 -135 4 -170 8 -155 16 11 6 47 12 80 13 33 2 63 5 68 8 4 2
48 -1 97 -8 72 -9 93 -9 105 1 8 7 15 16 15 19 0 12 -202 29 -256 22 -41 -6
-51 -4 -47 6 3 7 15 15 27 18 11 2 30 6 41 8 11 3 73 5 138 5 l117 1 2 -107z
m-788 -5 c73 -75 146 -158 146 -166 0 -3 -11 -7 -25 -7 -16 -1 -42 14 -77 45
-30 25 -74 61 -98 80 -67 51 -87 81 -56 81 7 0 19 7 26 15 7 8 15 15 17 15 3
0 33 -28 67 -63z m232 -176 c-10 -16 -36 -13 -36 3 0 17 21 27 34 16 4 -5 5
-13 2 -19z m408 -12 c-8 -14 -44 -10 -44 4 0 7 6 19 12 25 10 10 15 9 25 -4 7
-9 10 -21 7 -25z m-126 3 c2 -7 -5 -12 -17 -12 -14 0 -19 5 -14 15 6 17 25 15
31 -3z m225 4 c7 -18 -1 -26 -18 -19 -8 2 -11 11 -8 19 7 18 19 18 26 0z
m-905 -22 c34 -7 66 -16 71 -19 5 -3 40 -6 78 -6 l68 -1 -65 -22 c-90 -31
-154 -60 -204 -94 l-43 -30 -7 90 c-7 95 -3 113 23 103 9 -4 44 -13 79 -21z
m552 22 c0 -3 -4 -8 -10 -11 -5 -3 -10 -1 -10 4 0 6 5 11 10 11 6 0 10 -2 10
-4z m10 -73 c0 -19 -20 -26 -35 -13 -22 18 -18 28 10 26 14 0 25 -6 25 -13z
m298 -14 c1 -8 -4 -23 -11 -33 -14 -19 -15 -19 -26 3 -10 17 -10 26 0 37 14
17 33 14 37 -7z m102 -13 c0 -19 3 -43 6 -53 3 -10 -6 2 -20 26 -31 52 -32 61
-6 61 16 0 20 -7 20 -34z m-225 -33 c-10 -19 -11 -32 -4 -45 13 -23 30 -19 45
11 10 20 12 20 25 5 8 -10 14 -27 14 -38 0 -14 6 -21 20 -21 14 0 24 12 35 44
8 24 20 46 25 48 6 1 19 -15 29 -37 11 -22 25 -40 33 -40 9 0 13 -15 13 -50
l0 -50 -140 3 c-120 3 -143 6 -158 21 -16 18 -13 18 78 13 117 -7 210 1 210
18 0 10 -42 14 -172 17 -148 3 -177 6 -200 22 -25 16 -42 46 -19 31 5 -3 16 2
25 10 12 13 13 20 4 34 -15 24 -3 53 19 49 14 -3 17 -12 15 -46 -2 -32 2 -44
14 -49 10 -4 20 0 26 10 5 10 16 17 25 17 12 0 14 7 9 33 -8 41 2 52 25 31 15
-13 15 -19 4 -41z m-515 20 c0 -13 -92 -147 -133 -194 l-37 -43 -40 39 c-22
22 -40 43 -40 47 0 4 19 17 43 28 23 11 74 44 112 74 66 51 95 66 95 49z m178
-49 c-10 -10 -28 6 -28 24 0 15 1 15 17 -1 9 -9 14 -19 11 -23z m223 -131 l34
-37 -34 25 c-19 14 -37 31 -39 37 -6 20 2 14 39 -25z m343 -70 c8 -40 4 -163
-5 -163 -13 0 -38 42 -33 55 3 7 -10 19 -33 28 -21 8 -47 23 -58 31 -19 15
-16 16 41 10 43 -4 64 -3 69 6 4 6 5 13 2 16 -6 6 -73 15 -130 16 -26 1 -52 7
-58 15 -9 11 7 13 94 13 l105 0 6 -27z m206 -205 c-19 -5 -59 -16 -88 -24 -39
-12 -57 -13 -65 -5 -17 17 -2 24 81 36 82 12 131 7 72 -7z"/>
</g>
</svg>
