<?xml version="1.0" standalone="no"?>
<!DOCTYPE svg PUBLIC "-//W3C//DTD SVG 20010904//EN"
 "http://www.w3.org/TR/2001/REC-SVG-20010904/DTD/svg10.dtd">
<svg version="1.0" xmlns="http://www.w3.org/2000/svg"
 width="166.000000pt" height="118.000000pt" viewBox="0 0 166.000000 118.000000"
 preserveAspectRatio="xMidYMid meet">
<metadata>
Created by potrace 1.16, written by Peter Selinger 2001-2019
</metadata>
<g transform="translate(0.000000,118.000000) scale(0.100000,-0.100000)"
fill="#000000" stroke="none">
<path d="M487 1163 c-13 -12 -7 -40 23 -113 17 -40 30 -74 30 -75 0 -3 -170
23 -225 35 -74 16 -152 4 -171 -26 -14 -21 -14 -27 -3 -43 108 -150 163 -221
191 -246 19 -16 37 -35 41 -42 6 -9 -74 -121 -145 -203 -56 -65 -113 -140
-126 -167 -29 -61 11 -84 65 -39 16 14 43 28 59 31 38 9 222 71 299 101 98 38
218 65 227 51 4 -7 24 -60 43 -120 53 -165 79 -206 119 -191 24 9 28 36 7 58
-25 27 -61 93 -61 111 0 8 -12 49 -26 91 -14 42 -23 78 -21 81 3 2 25 11 50
18 35 10 48 11 55 2 10 -13 29 -57 82 -197 39 -100 56 -129 84 -140 52 -19 60
18 16 76 -16 21 -30 44 -30 49 0 6 -20 64 -45 130 -25 65 -44 119 -43 120 2 1
30 14 63 29 33 15 72 33 87 41 14 8 34 15 45 15 10 1 36 9 58 20 22 11 43 19
48 20 4 0 26 8 50 19 67 29 140 55 161 55 10 1 24 9 30 19 18 29 -4 52 -55 54
-24 1 -84 9 -133 17 -49 9 -101 16 -117 16 -15 0 -38 4 -51 9 -13 5 -61 16
-108 26 -179 34 -229 47 -240 60 -7 8 -26 57 -44 110 -33 95 -67 150 -89 142
-24 -8 -18 -58 13 -107 11 -19 36 -78 45 -107 6 -21 3 -23 -34 -23 -70 0 -87
14 -123 106 -39 101 -79 150 -101 127z m-97 -243 c142 -15 185 -27 200 -58 23
-49 122 -317 127 -343 4 -24 2 -27 -39 -33 -23 -4 -130 -36 -237 -72 -106 -36
-195 -63 -197 -61 -2 2 8 20 23 41 16 20 51 68 78 107 28 40 72 95 98 124 44
49 47 54 32 69 -9 9 -21 14 -26 10 -15 -9 -110 95 -152 165 -20 34 -37 65 -37
68 0 3 10 2 23 -1 12 -4 60 -11 107 -16z m363 -56 c29 -9 149 -297 130 -314
-10 -9 -72 -30 -89 -30 -7 0 -20 24 -30 53 -9 28 -30 80 -46 114 -15 34 -28
69 -28 78 0 9 -4 24 -9 33 -5 9 -11 32 -14 50 l-6 34 37 -7 c20 -3 45 -8 55
-11z m273 -59 c82 -14 190 -33 239 -42 50 -8 94 -19 99 -24 11 -10 -44 -34
-161 -69 -50 -16 -123 -42 -161 -59 -39 -17 -76 -31 -84 -31 -16 0 -113 234
-103 250 3 6 10 8 14 6 4 -3 75 -17 157 -31z"/>
</g>
</svg>
