<?xml version="1.0" standalone="no"?>
<!DOCTYPE svg PUBLIC "-//W3C//DTD SVG 20010904//EN"
 "http://www.w3.org/TR/2001/REC-SVG-20010904/DTD/svg10.dtd">
<svg version="1.0" xmlns="http://www.w3.org/2000/svg"
 width="301.000000pt" height="216.000000pt" viewBox="0 0 301.000000 216.000000"
 preserveAspectRatio="xMidYMid meet">
<metadata>
Created by potrace 1.16, written by Peter Selinger 2001-2019
</metadata>
<g transform="translate(0.000000,216.000000) scale(0.100000,-0.100000)"
fill="#000000" stroke="none">
<path d="M1306 1996 c-8 -53 -13 -55 -129 -66 -49 -5 -94 -13 -100 -18 -7 -5
-77 -28 -157 -51 -80 -24 -170 -54 -200 -67 -98 -42 -380 -114 -451 -114 -70
0 -95 -32 -67 -83 7 -12 12 -26 13 -32 3 -35 19 -102 27 -112 7 -9 7 -13 0
-13 -6 0 -18 -18 -28 -40 -10 -22 -21 -40 -26 -40 -4 0 -8 -9 -8 -20 0 -16 7
-20 38 -20 20 0 57 -5 82 -10 40 -9 67 -18 145 -51 11 -4 56 -19 100 -33 181
-56 305 -105 417 -166 20 -11 45 -20 54 -20 19 0 18 -41 -11 -290 -9 -74 -15
-192 -15 -262 l0 -128 -30 0 c-24 0 -33 6 -41 27 l-10 27 -21 -33 c-16 -25
-22 -54 -26 -125 -5 -94 3 -120 31 -98 34 28 90 51 162 66 44 10 116 28 160
40 109 32 240 56 297 56 26 0 69 4 95 10 55 11 255 32 295 31 15 -1 30 4 34
10 11 18 -18 30 -61 24 -22 -2 -130 -7 -240 -10 -110 -3 -236 -8 -280 -10
-220 -15 -325 -13 -325 5 0 7 47 14 190 26 30 2 124 6 208 8 85 3 156 7 160
10 3 3 11 1 18 -5 26 -22 34 2 34 104 0 79 7 128 29 217 53 209 82 314 101
368 11 29 20 59 20 67 0 7 5 26 10 41 l11 28 21 -35 c11 -19 25 -49 30 -66 10
-38 27 -42 46 -12 8 12 85 55 180 100 92 44 223 109 292 143 69 35 136 67 150
71 14 4 32 13 40 20 17 15 178 85 196 85 18 0 65 41 59 51 -4 5 -18 9 -33 9
-15 0 -36 7 -46 15 -11 8 -29 15 -40 15 -40 0 -310 72 -476 126 -25 8 -85 25
-135 38 -111 29 -196 53 -255 73 -25 8 -79 24 -120 34 -122 32 -365 112 -368
121 -2 4 -12 8 -22 8 -13 0 -19 -11 -24 -44z m129 -26 c39 -12 97 -32 130 -44
33 -13 107 -36 165 -52 101 -27 170 -53 141 -54 -7 0 -84 18 -170 39 -86 22
-199 49 -251 61 -124 27 -118 24 -113 55 3 14 11 24 17 21 6 -3 43 -14 81 -26z
m90 -92 c72 -16 164 -39 205 -50 41 -12 111 -26 155 -33 44 -8 126 -22 182
-33 55 -12 114 -21 130 -20 34 0 354 -81 462 -118 57 -19 78 -31 74 -41 -6
-14 -54 -43 -73 -43 -6 0 -30 -8 -53 -19 -89 -39 -223 -86 -362 -126 -33 -10
-104 -32 -158 -51 -115 -40 -223 -60 -241 -44 -7 5 -15 7 -18 4 -17 -17 -122
-31 -164 -22 -33 7 -49 7 -60 -3 -10 -8 -42 -11 -97 -9 -122 5 -146 4 -211 -4
-107 -14 -47 -28 125 -30 144 -1 164 -3 167 -18 5 -24 -16 -27 -188 -30 -85
-1 -160 -6 -167 -11 -6 -4 -24 -12 -40 -16 -15 -5 63 -6 174 -3 110 3 208 2
216 -1 12 -4 14 -13 8 -33 l-7 -27 -84 4 c-105 4 -372 0 -379 -6 -11 -12 15
-20 72 -23 87 -3 84 -3 167 3 98 8 225 -5 225 -23 0 -11 -49 -14 -241 -16
l-242 -2 5 40 c2 23 8 66 13 96 13 75 17 106 25 170 6 47 16 102 40 201 13 56
45 200 61 269 18 81 28 102 49 94 7 -3 16 0 20 6 9 14 30 11 210 -32z m-300 0
c-2 -13 -16 -70 -29 -128 -26 -114 -39 -177 -41 -200 -1 -8 -4 -22 -7 -30 -8
-20 -26 -118 -39 -215 -16 -125 -17 -129 -28 -155 -13 -29 -7 136 9 275 5 44
11 141 14 215 3 74 8 161 12 192 6 54 8 57 38 61 73 9 77 8 71 -15z m-143 -26
c-4 -22 -12 -139 -23 -327 -18 -321 -20 -359 -29 -374 -4 -8 -3 -27 2 -43 12
-35 5 -46 -16 -25 -9 8 -21 17 -28 19 -14 5 -15 41 -5 218 3 58 9 197 12 310
5 194 7 206 27 223 24 20 65 19 60 -1z m-106 -35 c-3 -13 -8 -151 -12 -307 -3
-156 -10 -294 -15 -307 -5 -14 -9 -38 -9 -54 0 -45 -35 -33 -48 17 -8 27 -6
252 4 534 l4 115 32 12 c47 17 51 16 44 -10z m-112 -102 c0 -44 -2 -120 -4
-170 -2 -49 -2 -119 -1 -155 3 -66 -9 -220 -16 -220 -2 0 -19 7 -38 14 -39 16
-38 14 -36 146 1 72 6 142 20 317 4 46 3 92 -1 103 -6 15 -1 23 20 35 50 27
57 18 56 -70z m-100 9 c4 -14 2 -60 -3 -102 -6 -42 -13 -146 -16 -231 -3 -85
-7 -157 -10 -159 -3 -3 -16 0 -29 6 -17 8 -27 22 -32 48 -6 31 2 278 12 389 1
17 3 35 3 41 1 11 37 32 57 33 7 1 15 -11 18 -25z m-195 -19 c-10 -10 -133
-87 -153 -96 -24 -11 -60 -34 -104 -67 l-31 -23 -6 33 c-17 93 -17 92 60 105
39 6 106 20 150 31 96 24 89 23 84 17z m85 -217 c-4 -123 -8 -224 -9 -226 -1
-1 -17 5 -34 15 l-32 18 6 85 c3 47 9 126 15 175 5 50 10 96 10 103 0 11 35
52 45 52 3 0 2 -100 -1 -222z m-68 145 c-4 -21 -9 -101 -12 -178 -4 -77 -8
-141 -9 -143 -5 -6 -65 28 -65 36 0 5 4 33 10 63 5 30 11 70 14 89 13 117 19
141 40 155 29 21 29 20 22 -22z m-76 -35 c0 -27 -22 -242 -25 -246 -1 -1 -16
5 -33 14 -35 17 -37 29 -23 119 5 27 6 55 4 62 -12 31 -21 7 -28 -72 -4 -47
-11 -85 -16 -85 -5 0 -9 4 -9 8 0 4 -13 16 -30 25 -16 10 -30 25 -30 33 0 8
-4 14 -10 14 -34 0 9 37 135 116 61 39 65 40 65 12z m-165 -206 c22 -17 52
-34 67 -37 15 -4 32 -13 39 -21 6 -8 18 -14 25 -14 8 0 14 -9 14 -21 0 -16 -4
-20 -17 -14 -40 15 -187 55 -203 55 -10 0 -25 3 -34 6 -14 5 -13 9 1 32 29 47
46 62 57 54 6 -5 29 -23 51 -40z m2070 18 c-8 -13 -111 -62 -195 -93 -55 -20
-256 -109 -311 -137 -12 -6 -20 0 -32 26 l-16 33 42 11 c23 6 76 23 117 39 41
16 131 48 200 71 69 23 132 46 140 51 21 12 63 11 55 -1z m-1857 -149 c3 -9
-2 -9 -22 0 -14 7 -26 19 -26 27 0 13 3 13 22 0 12 -8 24 -20 26 -27z m59 -17
c-3 -3 -12 -4 -19 -1 -8 3 -5 6 6 6 11 1 17 -2 13 -5z m1105 -9 l58 3 -6 -27
c-4 -14 -19 -66 -35 -114 -16 -49 -29 -97 -29 -107 0 -10 -4 -22 -10 -25 -5
-3 -10 -17 -10 -31 0 -14 -7 -38 -15 -54 -8 -16 -20 -52 -26 -80 -6 -28 -13
-49 -16 -46 -5 5 -15 227 -16 355 -1 51 3 66 18 77 15 11 16 17 7 26 -19 19
-15 40 6 30 9 -5 43 -8 74 -7z m-192 -228 l55 -2 7 -90 c4 -49 4 -93 2 -97 -3
-5 -94 -6 -202 -3 -196 6 -295 -1 -290 -20 2 -5 12 -9 23 -8 30 3 321 1 385
-2 30 -2 62 -4 71 -4 13 -1 16 -14 18 -60 l2 -59 -67 -7 c-36 -4 -114 -4 -173
1 -133 11 -228 11 -264 1 -28 -8 -28 -7 -25 34 l3 42 95 0 c52 0 165 -4 251
-8 114 -6 158 -5 163 4 5 8 -9 11 -49 11 -31 0 -111 7 -178 15 -82 10 -148 12
-199 7 l-78 -8 0 42 c0 34 4 44 20 49 11 3 117 7 237 9 152 2 218 6 221 14 5
15 -214 20 -357 9 -58 -5 -107 -5 -112 0 -5 5 -5 22 -1 38 l8 30 235 1 c136 0
234 4 234 9 0 18 -110 26 -287 23 -159 -4 -196 0 -170 16 4 2 75 7 157 11 83
4 151 8 152 9 2 2 15 1 30 -1 16 -2 53 -4 83 -6z m66 -392 c-3 -11 -6 -22 -6
-25 0 -3 -102 -6 -226 -8 -228 -3 -254 0 -254 34 0 17 27 19 278 19 208 0 213
0 208 -20z m-498 -10 c11 -23 10 -25 -13 -25 -18 0 -25 5 -25 18 0 38 22 42
38 7z m502 -50 c0 -4 -5 -15 -10 -26 -10 -18 -23 -19 -193 -20 -100 0 -219 -4
-265 -7 l-83 -7 3 24 c2 17 11 27 27 31 33 7 521 12 521 5z m-4 -90 l2 -25
-137 -1 c-75 -1 -145 -3 -156 -4 -11 -1 -78 -6 -148 -10 l-129 -7 7 24 c4 13
8 24 9 25 4 5 258 19 391 21 l160 2 1 -25z m-233 -126 c-6 -6 -49 -20 -95 -30
-46 -10 -105 -25 -132 -33 -26 -9 -69 -19 -95 -22 -25 -3 -58 -12 -73 -20 -15
-8 -37 -14 -49 -14 -20 0 -21 3 -16 51 4 29 8 53 10 56 2 2 91 6 198 9 107 3
196 8 198 10 2 2 18 4 35 4 22 0 27 -3 19 -11z"/>
<path d="M754 1026 c-23 -6 -47 -16 -55 -22 -8 -6 -32 -17 -54 -24 -22 -7 -44
-16 -50 -20 -24 -19 -268 -70 -336 -70 -46 0 -62 -16 -44 -44 7 -11 18 -44 24
-71 14 -58 5 -94 -29 -118 -21 -15 -21 -15 12 -34 18 -11 71 -39 118 -62 47
-24 92 -49 100 -55 8 -7 40 -20 70 -30 30 -10 60 -24 65 -31 6 -8 24 -15 40
-17 28 -3 30 -6 27 -41 -1 -27 2 -37 10 -35 7 3 14 14 16 26 5 35 19 26 33
-23 7 -25 17 -45 21 -45 12 0 20 39 13 69 -9 41 12 214 34 286 10 33 24 80 31
105 26 96 64 196 81 216 29 31 23 36 -31 29 -43 -6 -49 -5 -44 9 7 18 6 18
-52 2z m-29 -134 c-7 -14 -9 -13 -15 8 l-6 25 -17 -32 c-12 -23 -15 -44 -11
-76 7 -48 -4 -81 -23 -69 -8 5 -10 36 -6 105 l6 98 31 13 c30 13 31 12 40 -21
4 -18 5 -41 1 -51z m104 59 c-6 -17 -17 -35 -24 -41 -8 -6 -12 -17 -10 -23 3
-7 -6 -46 -19 -87 l-24 -75 3 125 c2 69 4 125 4 125 1 0 19 1 41 3 l39 2 -10
-29z m-210 -58 c-4 -27 -5 -57 -3 -68 7 -32 -9 -76 -24 -66 -24 15 6 176 34
181 0 0 -3 -21 -7 -47z m-59 -48 c-7 -25 -10 -52 -6 -61 5 -12 2 -15 -10 -10
-8 3 -20 6 -25 6 -5 0 -9 22 -9 50 0 44 3 51 28 64 34 18 38 8 22 -49z m-120
35 c-14 -10 -36 -25 -50 -32 -14 -7 -37 -21 -52 -32 -27 -19 -28 -19 -48 -1
-41 37 -27 51 73 67 50 9 94 16 97 17 3 0 -6 -8 -20 -19z m43 -47 c-6 -38 -37
-46 -46 -13 -4 15 2 24 21 34 15 8 28 14 28 13 1 -1 -1 -17 -3 -34z m240 -41
c-3 -29 -10 -52 -16 -52 -6 0 -7 15 -3 38 3 20 6 48 6 62 0 15 3 21 10 14 5
-5 7 -32 3 -62z m-326 -14 c-2 -57 5 -128 12 -128 5 0 12 25 16 56 6 53 26 79
44 58 4 -5 4 -53 -2 -107 -9 -90 -11 -97 -26 -83 -9 8 -17 25 -18 37 -2 28
-12 37 -22 20 -7 -11 -12 -10 -30 1 -29 18 -34 38 -26 103 6 49 10 55 30 55
13 0 23 -6 22 -12z m-80 -57 c-1 -35 -5 -47 -13 -40 -17 14 -7 89 11 89 3 0 4
-22 2 -49z m216 26 c23 -16 13 -68 -15 -86 -11 -7 -21 -11 -22 -9 -5 8 7 108
13 108 4 0 15 -6 24 -13z m75 -36 c-5 -24 -38 -27 -38 -3 0 10 3 21 6 25 11
11 35 -5 32 -22z m52 15 c0 -3 -4 -8 -10 -11 -5 -3 -10 -1 -10 4 0 6 5 11 10
11 6 0 10 -2 10 -4z m57 -20 c-3 -8 -9 -72 -13 -141 -5 -85 -11 -124 -18 -122
-7 3 -11 37 -10 98 2 99 17 179 35 179 6 0 9 -7 6 -14z m-50 -30 c-3 -8 -9
-62 -13 -120 -7 -104 -14 -121 -38 -84 -6 11 -5 45 3 104 16 112 17 114 37
114 10 0 14 -6 11 -14z m-322 -61 c22 -20 55 -43 73 -52 18 -9 31 -17 29 -20
-3 -3 -180 81 -196 94 -2 1 2 9 9 18 15 18 31 11 85 -40z m251 -20 c-8 -92
-13 -106 -33 -98 -13 5 -14 18 -9 76 6 68 18 97 39 97 6 0 7 -27 3 -75z m-61
8 c-14 -87 -14 -87 -34 -69 -12 11 -17 27 -15 49 6 48 11 57 34 57 19 0 20 -4
15 -37z"/>
</g>
</svg>
