<?xml version="1.0" standalone="no"?>
<!DOCTYPE svg PUBLIC "-//W3C//DTD SVG 20010904//EN"
 "http://www.w3.org/TR/2001/REC-SVG-20010904/DTD/svg10.dtd">
<svg version="1.0" xmlns="http://www.w3.org/2000/svg"
 width="303.000000pt" height="108.000000pt" viewBox="0 0 303.000000 108.000000"
 preserveAspectRatio="xMidYMid meet">
<metadata>
Created by potrace 1.16, written by Peter Selinger 2001-2019
</metadata>
<g transform="translate(0.000000,108.000000) scale(0.100000,-0.100000)"
fill="#000000" stroke="none">
<path d="M880 1010 c-11 -11 -20 -24 -20 -30 0 -5 -6 -7 -13 -4 -7 2 -79 -61
-161 -141 -82 -80 -151 -143 -154 -141 -11 12 -42 145 -42 182 0 100 -24 130
-66 82 -32 -36 -135 -108 -155 -108 -10 0 -21 -5 -24 -11 -16 -24 10 -61 87
-125 89 -73 117 -102 118 -121 0 -24 -238 -173 -277 -173 -23 0 -63 -23 -63
-36 0 -7 20 -28 45 -46 25 -18 64 -48 86 -66 23 -17 47 -32 53 -32 17 0 46 33
46 51 0 8 10 26 23 41 12 14 41 53 65 85 23 33 56 70 74 83 28 21 34 22 53 9
12 -8 36 -23 54 -34 18 -11 55 -41 83 -67 27 -27 54 -48 59 -48 5 0 9 -7 9
-15 0 -9 22 -39 49 -67 70 -73 47 -84 357 178 100 84 177 142 251 187 9 5 10
-2 6 -28 -4 -26 -2 -36 11 -41 9 -3 22 -2 29 4 6 5 39 17 72 27 33 10 65 21
70 25 65 43 318 65 648 57 121 -3 221 -8 224 -10 2 -2 -12 -12 -32 -21 -31
-15 -34 -20 -28 -44 8 -35 53 -69 203 -154 19 -11 54 -33 78 -49 45 -30 62
-36 62 -20 0 10 -89 87 -132 114 -48 30 -66 151 -27 175 15 10 19 20 15 38 -5
20 3 33 46 76 29 29 58 61 63 72 6 11 30 30 55 43 25 13 47 28 48 33 11 30
-81 -12 -183 -84 -62 -44 -154 -86 -186 -86 -12 0 -19 -7 -19 -20 0 -23 -1
-23 -215 -21 -373 3 -685 39 -728 83 -10 10 -21 18 -25 18 -16 0 -32 -25 -32
-51 l0 -27 -62 23 c-35 13 -86 35 -114 49 -29 14 -57 26 -63 26 -7 0 -42 16
-80 35 -37 19 -71 35 -76 35 -16 0 -115 73 -115 86 0 22 -30 24 -50 4z m67
-65 c11 -8 58 -33 103 -56 44 -23 79 -43 76 -46 -6 -6 -217 65 -230 78 -5 5
-4 14 4 24 16 19 20 19 47 0z m-91 -75 c11 -10 17 -10 28 -1 11 9 50 0 177
-43 209 -70 296 -100 337 -118 l34 -15 -37 -21 c-20 -12 -38 -22 -41 -22 -3 0
-28 -18 -57 -39 -103 -77 -385 -223 -457 -236 -33 -6 -39 -3 -106 63 -39 39
-88 91 -109 117 l-39 47 20 36 c37 69 125 195 151 216 15 11 38 33 52 49 l26
29 3 -25 c2 -14 10 -31 18 -37z m-425 -49 c2 -71 5 -85 20 -88 19 -5 57 -89
46 -100 -7 -6 -192 166 -192 179 0 7 118 97 122 94 1 -1 3 -40 4 -85z m799
-11 c8 -5 11 -10 5 -10 -5 0 -17 5 -25 10 -8 5 -10 10 -5 10 6 0 17 -5 25 -10z
m1356 -49 c-41 -41 -53 -48 -68 -40 -27 15 -22 26 20 40 20 6 48 20 61 30 42
33 36 20 -13 -30z m-863 -40 c39 -5 56 -9 37 -10 -19 0 -77 -14 -127 -30 -143
-45 -153 -47 -153 -21 0 17 4 20 20 15 14 -4 20 -2 20 8 0 8 -9 22 -20 32 -23
21 -26 41 -7 48 6 2 45 -5 85 -15 40 -10 105 -22 145 -27z m-1109 -13 c-20
-36 -47 -69 -51 -64 -3 2 7 21 22 40 27 35 43 49 29 24z m1932 -104 c1 -38 -1
-44 -15 -38 -9 3 -24 9 -33 11 -10 3 -18 9 -18 13 0 5 -10 12 -22 16 -21 7
-20 9 17 25 62 28 70 26 71 -27z m-2042 -42 c3 -5 -11 -24 -30 -43 -27 -26
-153 -172 -170 -198 -4 -4 -84 62 -84 70 0 4 26 20 57 35 31 16 88 55 127 86
70 56 90 66 100 50z m571 -138 c-27 -24 -81 -67 -119 -94 l-69 -50 -18 26 -17
26 66 34 c35 19 69 34 74 34 5 0 32 16 61 35 72 48 82 43 22 -11z"/>
</g>
</svg>
