<?xml version="1.0" standalone="no"?>
<!DOCTYPE svg PUBLIC "-//W3C//DTD SVG 20010904//EN"
 "http://www.w3.org/TR/2001/REC-SVG-20010904/DTD/svg10.dtd">
<svg version="1.0" xmlns="http://www.w3.org/2000/svg"
 width="280.000000pt" height="96.000000pt" viewBox="0 0 280.000000 96.000000"
 preserveAspectRatio="xMidYMid meet">
<metadata>
Created by potrace 1.16, written by Peter Selinger 2001-2019
</metadata>
<g transform="translate(0.000000,96.000000) scale(0.100000,-0.100000)"
fill="#000000" stroke="none">
<path d="M965 775 c-22 -19 -44 -34 -49 -35 -5 0 -60 -48 -124 -107 -181 -170
-185 -173 -201 -173 -9 1 -32 14 -51 30 -19 17 -40 30 -47 30 -14 0 -91 74
-116 113 -18 28 -47 37 -47 15 1 -35 82 -128 134 -155 17 -9 43 -26 58 -38 24
-20 25 -25 12 -36 -19 -16 -67 -2 -155 45 -36 19 -81 37 -102 41 -20 4 -37 9
-37 11 0 5 45 88 64 116 17 27 17 28 0 35 -12 4 -24 -2 -41 -23 -34 -42 -95
-155 -88 -163 4 -3 32 -11 63 -18 31 -6 99 -28 150 -49 l92 -38 -37 -23 c-42
-26 -116 -62 -180 -88 -39 -17 -61 -39 -45 -49 4 -2 22 -7 41 -11 19 -4 51
-24 71 -44 64 -63 120 -79 120 -33 0 19 58 112 103 167 l25 30 56 -28 c31 -15
85 -49 119 -75 74 -58 147 -105 147 -95 0 4 6 0 13 -9 6 -8 33 -27 59 -42 45
-25 48 -25 57 -8 11 20 90 65 186 105 33 14 101 47 150 74 50 27 117 60 150
73 33 13 67 29 76 37 23 19 30 16 23 -12 -4 -18 0 -32 17 -50 30 -31 52 -32
72 -2 16 25 66 40 192 57 39 6 106 15 150 21 76 11 184 9 486 -7 77 -4 109 -3
114 6 4 6 3 15 -1 20 -5 4 -137 13 -294 19 -452 19 -610 40 -645 88 -18 25
-55 0 -55 -37 0 -16 -4 -31 -8 -34 -4 -3 -51 24 -103 60 -51 36 -121 78 -155
94 -33 16 -68 38 -79 50 -10 11 -23 20 -29 20 -6 0 -41 19 -77 43 -36 23 -89
53 -117 66 -29 14 -52 30 -52 38 0 22 -23 14 -65 -22z m63 -24 c9 -5 37 -19
62 -31 25 -13 56 -32 70 -44 14 -12 43 -30 65 -41 22 -10 51 -29 65 -41 14
-12 43 -31 65 -42 111 -57 126 -65 131 -74 4 -5 -8 -2 -25 7 -50 26 -206 83
-272 100 -33 9 -90 31 -126 50 -35 19 -70 35 -78 35 -7 0 -19 7 -26 16 -12 15
-11 19 9 32 12 8 22 21 22 28 0 16 13 18 38 5z m-58 -108 c25 -8 68 -25 95
-39 28 -13 107 -44 178 -69 70 -24 153 -58 185 -74 31 -16 76 -32 99 -36 23
-3 47 -12 52 -19 14 -17 5 -21 -252 -107 -117 -40 -238 -81 -271 -92 -47 -17
-62 -18 -77 -8 -24 14 -39 7 -39 -20 0 -20 -1 -20 -37 2 -21 12 -61 45 -88 73
-28 28 -76 71 -108 95 -66 51 -66 55 18 136 28 28 66 73 84 100 64 94 56 92
161 58z m-320 -187 c0 -2 -8 -10 -17 -17 -16 -13 -17 -12 -4 4 13 16 21 21 21
13z m1095 -21 c22 -8 52 -14 67 -15 15 0 39 -5 55 -11 26 -11 24 -12 -46 -25
-41 -7 -85 -15 -98 -19 -22 -5 -23 -3 -23 40 0 25 1 45 3 45 1 0 20 -7 42 -15z
m-1155 -40 c0 -9 -9 -15 -21 -15 -18 0 -19 2 -9 15 7 8 16 15 21 15 5 0 9 -7
9 -15z m-55 -45 c5 -8 -19 -56 -35 -70 -4 -3 -26 -31 -49 -62 -24 -32 -44 -58
-46 -58 -1 0 -20 22 -43 48 l-41 49 62 32 c34 17 78 40 97 51 39 23 46 24 55
10z m805 -84 c0 -2 -26 -16 -57 -31 -191 -91 -262 -129 -256 -139 4 -7 3 -8
-4 -1 -5 6 -14 22 -21 37 -11 26 -9 27 31 42 23 9 96 32 162 52 66 19 122 37
124 40 5 5 21 5 21 0z m-379 -133 c13 -16 12 -17 -3 -4 -10 7 -18 15 -18 17 0
8 8 3 21 -13z"/>
</g>
</svg>
