<?xml version="1.0" standalone="no"?>
<!DOCTYPE svg PUBLIC "-//W3C//DTD SVG 20010904//EN"
 "http://www.w3.org/TR/2001/REC-SVG-20010904/DTD/svg10.dtd">
<svg version="1.0" xmlns="http://www.w3.org/2000/svg"
 width="318.000000pt" height="102.000000pt" viewBox="0 0 318.000000 102.000000"
 preserveAspectRatio="xMidYMid meet">
<metadata>
Created by potrace 1.16, written by Peter Selinger 2001-2019
</metadata>
<g transform="translate(0.000000,102.000000) scale(0.100000,-0.100000)"
fill="#000000" stroke="none">
<path d="M310 925 c-7 -8 -16 -15 -21 -15 -20 0 -119 -72 -119 -87 0 -12 7
-14 38 -9 37 5 41 3 132 -82 53 -48 111 -99 130 -115 l35 -27 -80 -78 c-44
-43 -128 -115 -188 -161 -100 -77 -119 -101 -80 -101 9 0 35 -16 59 -35 23
-19 46 -35 50 -35 4 0 15 -7 25 -16 21 -19 39 -11 39 19 0 43 70 150 180 275
l53 60 19 -21 c11 -13 21 -17 24 -11 3 7 165 -146 233 -221 2 -3 -2 -11 -8
-19 -14 -16 -8 -21 36 -31 36 -7 48 -20 48 -50 0 -27 30 -30 54 -6 11 11 33
27 50 35 16 9 52 30 78 48 49 32 71 49 198 149 39 30 82 63 97 72 l28 17 -7
-45 c-5 -43 -5 -45 19 -45 14 0 33 9 43 20 9 10 34 25 54 31 20 6 63 24 96 39
159 73 166 74 154 21 -5 -21 -13 -78 -19 -127 -6 -49 -12 -98 -13 -108 -3 -31
22 -30 34 1 5 15 16 84 22 153 l12 125 63 2 c37 1 62 -3 62 -9 0 -6 -16 -68
-35 -139 -39 -143 -42 -169 -21 -169 17 0 56 76 56 108 0 12 14 65 30 117 l31
95 39 0 c27 0 40 -4 40 -13 0 -17 -28 -106 -41 -130 -5 -9 -12 -39 -15 -65 -3
-26 -7 -59 -9 -74 -4 -22 -1 -28 14 -28 35 0 43 16 113 230 22 69 31 80 64 80
20 0 20 -3 13 -47 -4 -27 -15 -88 -23 -138 -20 -116 -20 -127 1 -123 17 3 27
29 43 108 4 25 17 79 27 120 l18 75 38 3 c35 3 37 2 32 -20 -3 -13 -10 -57
-16 -98 -5 -41 -12 -92 -15 -113 -4 -20 -3 -44 0 -53 10 -26 33 0 39 45 2 21
13 55 22 75 10 21 23 65 29 99 l11 62 141 3 142 3 48 -46 c67 -63 215 -164
242 -165 24 0 12 30 -20 50 -38 23 -96 94 -105 128 -9 39 22 87 125 190 50 51
92 96 92 99 0 4 7 15 17 25 9 10 13 21 10 25 -12 12 -51 -13 -127 -82 -92 -83
-197 -155 -227 -155 -12 0 -29 -7 -38 -16 -13 -13 -45 -18 -151 -22 -74 -3
-134 -2 -134 2 0 14 52 118 92 183 45 75 42 90 -19 74 -21 -6 -77 -9 -124 -7
-46 2 -113 -1 -148 -7 -59 -10 -65 -9 -80 9 -14 17 -24 19 -89 14 -42 -3 -77
-1 -83 5 -6 6 -19 5 -38 -2 -20 -7 -44 -7 -80 -1 -79 16 -80 14 -80 -99 1 -54
1 -104 0 -110 -1 -18 -54 -16 -99 3 -20 9 -48 18 -61 19 -46 6 -101 37 -101
57 0 12 -7 18 -24 18 -32 0 -45 -18 -52 -74 -4 -25 -8 -46 -11 -46 -2 0 -27
14 -56 30 -30 17 -60 30 -68 30 -12 0 -76 36 -253 142 -22 12 -68 42 -103 66
-70 47 -91 50 -110 12 -7 -14 -19 -24 -27 -22 -7 1 -36 -25 -62 -58 -58 -72
-221 -207 -235 -193 -15 15 -149 284 -149 299 0 19 -54 18 -70 -1z m42 -52 c9
-10 34 -55 57 -101 l41 -83 -33 27 c-17 15 -57 50 -89 79 l-56 52 26 21 c33
26 35 26 54 5z m573 -4 c4 -5 17 -15 28 -20 12 -5 34 -17 49 -27 14 -9 48 -30
75 -46 26 -16 57 -36 68 -44 l20 -14 -20 7 c-11 4 -60 22 -110 40 -93 34 -155
63 -155 71 0 3 5 14 10 25 12 21 25 25 35 8z m982 -64 c7 -5 -68 -145 -77
-145 -8 0 -9 22 -4 73 3 39 8 75 11 79 3 6 61 0 70 -7z m151 7 c10 -7 9 -18
-2 -55 -25 -83 -59 -157 -73 -157 -16 0 -17 -4 8 75 12 40 19 83 16 106 -4 34
-2 39 17 39 11 0 27 -4 34 -8z m-1138 -37 c30 -12 89 -32 130 -45 41 -12 100
-35 130 -50 30 -15 81 -33 112 -40 56 -11 108 -41 108 -62 0 -6 7 -19 16 -29
15 -16 13 -20 -28 -45 -23 -15 -83 -44 -131 -65 -48 -21 -109 -51 -135 -66
-87 -51 -214 -107 -232 -101 -16 5 -209 198 -247 246 -19 24 -31 48 -27 55 21
36 127 168 171 214 26 27 41 25 133 -12z m1052 13 c3 -23 -1 -53 -22 -141
l-12 -48 -46 7 c-53 7 -68 14 -56 23 18 12 62 77 88 129 28 56 43 65 48 30z
m536 13 c-14 -38 -103 -211 -108 -211 -6 0 -1 55 14 145 2 17 5 38 5 47 1 16
7 18 79 26 8 1 12 -2 10 -7z m-276 -58 c-71 -147 -83 -163 -106 -144 -10 8
-11 27 -4 78 13 104 15 112 36 106 10 -2 34 0 53 5 19 6 37 11 41 11 4 1 -5
-25 -20 -56z m97 -15 c-40 -81 -43 -83 -34 -23 5 28 8 58 9 68 0 12 9 17 28
17 l28 0 -31 -62z m-229 32 c0 -5 -5 -10 -11 -10 -5 0 -7 5 -4 10 3 6 8 10 11
10 2 0 4 -4 4 -10z m163 -62 c-9 -79 -22 -108 -49 -108 l-24 0 37 75 c21 41
38 75 39 75 1 0 0 -19 -3 -42z m111 -37 c-6 -70 -7 -71 -35 -71 -16 0 -29 5
-29 11 0 16 62 140 67 135 2 -2 1 -36 -3 -75z m-289 -18 c-5 -38 -9 -43 -31
-43 -14 0 -24 4 -22 8 2 4 14 34 28 67 20 46 26 54 28 35 2 -13 1 -43 -3 -67z
m-536 3 c13 -10 43 -20 141 -46 19 -5 51 -10 70 -10 26 0 31 -3 20 -10 -8 -5
-50 -10 -92 -10 -45 0 -80 -5 -84 -11 -3 -6 -22 -17 -41 -25 -37 -16 -35 -39
3 -30 46 12 23 -2 -36 -22 -60 -21 -60 -21 -60 -1 0 25 47 70 66 62 26 -10 14
22 -14 38 -23 13 -28 23 -28 52 0 33 2 36 21 31 11 -4 26 -11 34 -18z m-929
-16 c-24 -34 -39 -45 -48 -35 -6 6 54 65 66 65 2 0 -6 -13 -18 -30z m2270 5
c-6 -8 -26 -21 -44 -30 -30 -14 -30 -14 8 20 38 34 61 41 36 10z m-1010 -61
c0 -2 -11 -4 -25 -4 -14 0 -25 4 -25 9 0 4 11 6 25 3 14 -2 25 -6 25 -8z
m-1340 -25 c0 -6 -26 -38 -58 -72 -32 -34 -75 -84 -97 -112 -22 -27 -42 -52
-45 -55 -3 -3 -16 -21 -28 -42 l-22 -36 -30 29 c-16 17 -29 33 -28 37 0 4 33
32 72 62 39 30 104 88 144 128 69 69 92 84 92 61z m1571 -74 c-23 -56 -26 -53
-10 9 18 67 21 74 26 56 2 -8 -6 -37 -16 -65z m276 33 c-3 -7 -5 -2 -5 12 0
14 2 19 5 13 2 -7 2 -19 0 -25z m446 12 c3 -11 4 -20 3 -20 -2 0 -11 9 -21 20
-15 17 -16 20 -3 20 9 0 18 -9 21 -20z m-1577 -123 c-10 -7 -35 -25 -55 -41
-81 -65 -202 -137 -223 -134 -42 6 -31 28 29 53 32 14 67 31 78 37 50 29 180
98 185 97 3 0 -3 -6 -14 -12z"/>
</g>
</svg>
