<?xml version="1.0" standalone="no"?>
<!DOCTYPE svg PUBLIC "-//W3C//DTD SVG 20010904//EN"
 "http://www.w3.org/TR/2001/REC-SVG-20010904/DTD/svg10.dtd">
<svg version="1.0" xmlns="http://www.w3.org/2000/svg"
 width="213.000000pt" height="191.000000pt" viewBox="0 0 213.000000 191.000000"
 preserveAspectRatio="xMidYMid meet">
<metadata>
Created by potrace 1.16, written by Peter Selinger 2001-2019
</metadata>
<g transform="translate(0.000000,191.000000) scale(0.100000,-0.100000)"
fill="#000000" stroke="none">
<path d="M1106 1778 l-47 -52 -37 42 c-20 23 -40 42 -44 42 -6 0 -48 -66 -48
-77 0 -3 11 -2 24 1 18 4 28 0 40 -20 16 -24 16 -26 -6 -44 -16 -13 -28 -15
-40 -9 -29 16 -38 10 -38 -23 0 -28 -13 -46 -80 -112 -71 -71 -95 -106 -72
-106 4 0 32 27 61 61 61 69 123 114 146 105 29 -11 29 -36 -1 -67 l-28 -29
-22 21 c-40 37 -60 3 -22 -38 l21 -23 -71 -70 c-68 -66 -74 -84 -19 -59 20 9
30 7 61 -13 43 -28 45 -36 9 -44 -48 -10 -53 -13 -53 -32 0 -10 -16 -33 -35
-52 -23 -23 -32 -37 -25 -44 7 -7 23 2 48 27 43 42 48 43 81 18 l23 -18 -36
-36 c-41 -41 -63 -51 -26 -12 13 14 20 28 16 32 -8 8 -75 -59 -112 -111 l-21
-29 -22 37 c-28 44 -23 62 31 112 25 23 36 40 29 42 -7 2 -33 -15 -57 -39
l-43 -43 -22 25 c-11 13 -24 30 -29 38 -4 8 -12 11 -19 7 -16 -10 -14 -62 4
-80 19 -19 19 -40 0 -56 -19 -16 -19 -16 -45 45 l-21 49 23 17 c26 20 19 36
-8 21 -12 -7 -24 -6 -36 2 -23 14 -37 -4 -31 -37 5 -26 -32 -66 -46 -51 -21
21 -15 52 17 88 17 20 32 44 32 52 0 14 -3 14 -28 -1 -15 -10 -36 -25 -47 -35
-11 -9 -28 -20 -37 -23 -10 -4 -18 -13 -18 -20 0 -8 -9 -22 -20 -32 -19 -18
-20 -17 -31 14 -16 45 -34 33 -34 -24 0 -26 -5 -50 -11 -52 -6 -2 -21 19 -35
46 -13 28 -28 49 -34 47 -19 -5 -16 -54 4 -92 23 -42 26 -34 -46 -114 -111
-123 -111 -124 -94 -135 5 -3 44 35 86 85 42 49 81 90 86 90 5 0 13 -8 16 -18
4 -9 13 -23 20 -30 21 -22 16 -35 -32 -82 -45 -44 -57 -70 -32 -70 15 0 57 41
57 56 0 6 5 15 12 22 8 8 19 4 45 -19 24 -20 41 -28 54 -24 16 5 19 1 19 -29
0 -48 20 -47 54 4 15 23 38 45 51 50 14 5 25 17 25 26 0 10 12 32 26 51 l25
33 39 -32 c22 -18 40 -37 40 -43 0 -5 -14 -23 -31 -41 -17 -18 -28 -37 -25
-43 12 -19 42 5 93 75 l48 65 46 -50 c26 -27 49 -47 53 -44 14 14 4 39 -33 83
-22 26 -36 51 -33 56 4 5 42 42 85 83 l77 74 25 -23 26 -24 -34 -31 c-18 -16
-55 -49 -82 -72 -28 -24 -44 -43 -37 -43 7 0 49 30 93 66 80 67 80 67 118 55
51 -15 71 -14 71 4 0 8 -4 15 -9 15 -5 0 -22 5 -37 10 l-27 11 21 15 c12 8 34
14 49 12 24 -3 28 0 25 18 -2 15 7 29 28 44 16 12 28 25 25 30 -7 12 -35 2
-61 -21 -20 -18 -21 -18 -53 9 l-34 28 32 27 c27 22 36 25 53 16 27 -15 54 -4
39 15 -9 11 -9 19 1 35 17 27 3 39 -21 17 -16 -14 -23 -15 -39 -5 -10 6 -25
21 -31 31 -22 36 38 80 78 59 26 -14 36 2 15 23 -21 21 -12 43 23 58 38 17 86
65 73 73 -6 4 -21 0 -33 -8 -22 -14 -25 -13 -57 26 -33 40 -33 40 -13 56 11 9
29 21 39 27 11 7 14 13 7 17 -6 4 -27 -4 -47 -18 -45 -30 -57 -31 -81 -5 -17
19 -16 21 29 74 60 70 44 82 -18 14z m-32 -154 c-3 -22 -33 -27 -60 -10 l-27
19 24 13 c20 10 28 10 44 0 11 -8 19 -17 19 -22z m81 -36 c42 -27 43 -37 10
-68 l-25 -24 -27 20 c-43 32 -50 50 -29 73 24 26 28 26 71 -1z m-91 -91 c35
-30 38 -35 27 -55 -15 -29 -41 -28 -77 3 -16 14 -33 25 -37 25 -5 0 1 14 13
30 12 17 24 30 28 30 4 0 25 -15 46 -33z m-76 -90 l31 -23 -22 -32 c-12 -17
-27 -32 -34 -32 -13 0 -83 39 -83 46 0 15 46 64 60 64 9 0 30 -10 48 -23z m90
-114 c-26 -28 -49 -29 -73 -3 -17 18 -16 20 11 43 l28 25 28 -21 28 -21 -22
-23z m-78 -63 c0 -4 -6 -13 -14 -19 -12 -10 -20 -9 -40 4 -31 20 -31 24 -9 40
14 10 21 10 40 -2 13 -9 23 -19 23 -23z m61 -37 c36 -21 36 -27 0 -52 l-28
-20 -27 28 -28 29 23 16 c29 20 25 20 60 -1z m-641 -103 c12 -38 12 -43 -6
-61 -20 -19 -20 -19 -38 21 -17 39 -17 42 0 61 24 27 29 24 44 -21z m130 -54
c21 -54 21 -55 3 -80 -20 -29 -33 -33 -33 -11 0 8 -11 39 -24 70 l-25 55 21
14 c12 9 24 13 28 11 4 -3 18 -29 30 -59z m-207 -17 c16 -40 13 -73 -6 -66 -5
1 -19 19 -30 39 -18 30 -19 38 -8 52 20 24 26 20 44 -25z m350 -15 c21 -26 27
-42 23 -60 -8 -31 -16 -30 -54 7 -36 35 -37 41 -20 69 17 26 18 26 51 -16z
m-199 -86 c5 -22 0 -34 -23 -60 -33 -37 -31 -40 -56 61 -15 63 -15 65 7 88
l22 24 22 -43 c11 -24 24 -55 28 -70z m-106 -30 c12 -44 2 -49 -27 -12 -16 21
-18 30 -10 46 13 25 24 15 37 -34z"/>
<path d="M1210 1205 c-13 -21 -19 -42 -15 -55 3 -11 1 -36 -6 -55 -16 -42 -7
-53 28 -34 33 18 315 18 419 0 133 -23 179 -32 231 -48 85 -26 163 -25 163 3
0 10 -13 14 -42 14 -24 1 -61 8 -83 16 -49 19 -97 33 -150 44 -62 13 -138 36
-160 48 -18 10 -185 48 -258 58 -34 5 -67 21 -67 34 0 24 -40 7 -60 -25z m68
-24 c9 -5 80 -23 157 -40 136 -30 138 -30 65 -26 -41 2 -114 5 -161 5 l-86 0
-1 35 c-2 38 0 39 26 26z"/>
<path d="M1903 966 c-29 -7 -58 -18 -65 -23 -25 -20 -211 -78 -284 -88 -21 -3
-64 -11 -94 -16 -173 -33 -208 -39 -236 -39 -17 0 -37 -7 -44 -15 -16 -20 -8
-100 13 -123 15 -17 17 -21 17 -42 0 -17 20 -11 66 21 53 36 313 169 332 169
7 0 24 7 38 17 14 9 53 26 87 38 34 13 85 32 112 43 28 11 69 25 93 32 25 6
42 17 42 25 0 17 -8 18 -77 1z m-408 -155 c-3 -6 -33 -24 -68 -41 -34 -17 -89
-46 -122 -64 -55 -32 -60 -33 -72 -17 -6 10 -15 30 -18 44 -6 22 -4 27 11 27
11 0 48 6 84 14 74 17 183 43 188 45 2 0 1 -3 -3 -8z"/>
<path d="M1050 840 c-41 -38 -78 -69 -82 -70 -4 0 -23 14 -41 30 -66 57 -94
27 -31 -33 39 -37 40 -66 2 -46 -17 9 -24 7 -41 -10 -19 -18 -19 -21 -4 -21 9
0 17 -4 17 -9 0 -17 -52 -51 -78 -51 -21 0 -22 -2 -12 -15 7 -8 19 -15 26 -15
8 0 14 -3 14 -8 0 -4 10 -12 22 -17 12 -6 23 -15 25 -21 2 -7 -37 -46 -87 -89
-80 -68 -104 -95 -84 -95 4 0 25 16 48 36 61 52 64 54 83 54 10 0 26 -7 35
-14 16 -12 16 -14 -5 -34 -13 -12 -29 -22 -35 -22 -7 0 -12 -4 -12 -8 0 -5
-16 -27 -35 -49 -19 -23 -35 -44 -35 -47 0 -14 24 -4 60 25 l39 31 26 -20 c28
-22 31 -15 -40 -90 -30 -32 -35 -42 -21 -42 9 0 41 25 69 55 42 43 57 53 75
48 32 -8 28 -23 -28 -85 -27 -30 -46 -58 -43 -62 16 -15 35 -2 78 54 25 33 53
60 61 60 8 0 41 -13 74 -30 61 -31 90 -37 90 -21 0 16 -27 38 -81 67 l-50 28
20 20 c19 19 21 19 39 3 20 -18 72 -23 72 -7 0 6 -6 10 -13 10 -8 0 -24 11
-37 25 -25 26 -20 40 14 47 33 5 29 25 -11 49 -21 12 -39 23 -41 25 -2 1 15
19 38 41 22 22 40 43 40 47 0 4 -16 4 -35 0 -34 -6 -35 -5 -35 25 0 32 14 42
24 16 10 -28 28 -16 24 15 -3 17 -1 33 4 36 17 11 8 35 -10 30 -12 -4 -26 1
-37 14 -18 20 -18 21 18 58 20 21 37 41 37 45 0 17 -23 4 -60 -34 -38 -40 -41
-41 -70 -29 -17 7 -30 16 -30 20 0 4 34 35 75 69 41 34 75 66 75 71 0 23 -30
5 -100 -60z m-61 -131 c35 -12 38 -21 16 -39 -29 -24 -84 18 -58 43 8 9 4 9
42 -4z m98 -54 c2 -6 -3 -20 -11 -30 -14 -19 -15 -19 -35 -1 -16 15 -18 22 -9
33 13 15 50 14 55 -2z m-155 -13 l27 -18 -25 -28 -26 -27 -22 20 c-12 12 -28
21 -35 21 -11 0 37 49 49 50 3 0 17 -8 32 -18z m82 -51 c16 -17 16 -20 1 -35
-19 -19 -29 -20 -57 -5 -20 11 -20 11 3 35 27 29 31 29 53 5z m73 -57 c10 -26
-12 -39 -43 -25 -21 9 -24 14 -14 26 16 20 49 19 57 -1z m-142 -26 c15 -14
-25 -39 -49 -32 -33 10 -41 22 -26 38 13 16 55 13 75 -6z m80 -49 c0 -17 -44
-23 -65 -9 -13 8 -12 11 5 24 22 16 60 7 60 -15z m61 -29 c25 -10 26 -12 11
-27 -14 -14 -21 -15 -43 -5 -21 10 -24 15 -14 27 15 18 12 18 46 5z m-130 -25
c19 -15 19 -15 -5 -35 -28 -24 -41 -25 -67 -5 -19 15 -19 15 5 35 28 24 41 25
67 5z m78 -48 c9 -14 7 -21 -8 -32 -18 -13 -24 -12 -65 12 -2 2 4 12 14 23 22
24 43 23 59 -3z"/>
</g>
</svg>
