<?xml version="1.0" standalone="no"?>
<!DOCTYPE svg PUBLIC "-//W3C//DTD SVG 20010904//EN"
 "http://www.w3.org/TR/2001/REC-SVG-20010904/DTD/svg10.dtd">
<svg version="1.0" xmlns="http://www.w3.org/2000/svg"
 width="300.000000pt" height="224.000000pt" viewBox="0 0 300.000000 224.000000"
 preserveAspectRatio="xMidYMid meet">
<metadata>
Created by potrace 1.16, written by Peter Selinger 2001-2019
</metadata>
<g transform="translate(0.000000,224.000000) scale(0.100000,-0.100000)"
fill="#000000" stroke="none">
<path d="M722 2151 c-9 -17 -25 -32 -34 -35 -10 -2 -18 -12 -18 -21 0 -11 -5
-15 -15 -11 -9 3 -39 -15 -76 -47 -138 -117 -299 -238 -310 -232 -4 3 -30 -10
-57 -30 -27 -19 -54 -35 -61 -35 -6 0 -11 -9 -11 -19 0 -12 18 -31 48 -50 26
-16 53 -39 60 -51 11 -18 9 -25 -20 -60 -18 -22 -36 -40 -40 -40 -5 0 -8 -7
-8 -15 0 -9 9 -15 25 -15 13 0 39 -13 57 -29 18 -15 44 -31 58 -35 40 -11 190
-87 190 -96 0 -5 9 -12 20 -15 11 -4 20 -12 19 -18 -4 -34 8 -42 101 -74 25
-9 47 -19 50 -24 3 -4 24 -11 47 -15 40 -6 42 -5 49 21 4 18 2 30 -7 37 -10 7
0 8 29 4 58 -8 78 4 86 55 4 23 9 40 11 37 3 -2 6 -108 8 -235 l4 -230 -141 2
c-78 1 -198 6 -268 10 -119 7 -127 9 -130 29 -2 13 -10 21 -22 21 -19 0 -20
-7 -19 -113 0 -62 2 -114 4 -117 4 -3 60 12 239 66 74 23 92 26 210 34 57 4
90 11 102 22 10 9 18 12 19 7 1 -5 2 -129 3 -276 0 -146 3 -268 6 -271 3 -3
20 -8 38 -12 28 -6 32 -4 32 14 0 20 38 47 77 54 10 2 25 7 33 10 24 9 151 36
195 41 22 3 63 10 92 15 29 6 91 10 138 9 49 -1 90 3 96 9 18 18 0 53 -27 53
-20 0 -24 5 -24 28 0 15 4 32 10 38 5 5 14 60 20 121 6 62 15 125 22 140 6 16
12 42 14 58 2 28 33 152 47 185 3 8 18 52 33 98 30 91 44 92 44 1 0 -31 3 -58
6 -62 10 -10 99 39 222 121 62 41 114 73 115 71 3 -4 64 -168 73 -197 2 -8 10
-12 17 -10 7 3 12 25 13 57 1 41 -6 67 -31 116 -38 73 -38 71 47 118 l47 25
31 -56 c16 -30 30 -58 30 -62 0 -4 10 -16 23 -28 13 -12 36 -49 52 -82 20 -41
34 -60 45 -58 22 5 14 42 -28 123 -21 39 -40 72 -43 75 -3 3 -11 21 -18 40 -7
19 -18 45 -24 57 -6 13 -8 25 -6 27 5 6 304 139 349 156 19 8 62 28 96 46 33
17 77 37 97 43 37 13 54 46 20 39 -10 -2 -23 2 -28 10 -8 10 -38 14 -105 14
-52 0 -99 4 -105 8 -15 12 -230 33 -385 39 -25 1 -51 5 -58 10 -23 14 -52 146
-53 243 -1 38 -5 71 -10 73 -4 3 -27 -8 -50 -25 -23 -16 -54 -30 -69 -30 -38
0 -61 -20 -54 -47 4 -13 12 -23 18 -23 6 0 19 -9 29 -20 9 -11 15 -20 12 -20
-2 0 10 -29 27 -65 17 -37 28 -68 26 -71 -3 -2 -26 -1 -53 2 -41 6 -49 11 -61
39 -18 44 -30 185 -15 185 14 0 15 37 0 45 -5 4 -27 -4 -47 -18 -20 -14 -48
-30 -62 -36 -44 -17 -65 -24 -72 -25 -13 -2 -48 -35 -48 -46 0 -5 8 -10 18
-10 10 -1 30 -23 50 -57 18 -31 31 -57 29 -59 -3 -3 -165 11 -227 20 -19 3
-82 8 -140 11 -254 14 -331 23 -352 42 -9 8 -25 13 -35 11 -10 -2 -23 3 -29
11 -10 13 -14 13 -29 1 -15 -12 -16 -26 -11 -97 4 -46 4 -83 1 -83 -15 0 -145
136 -145 152 0 9 -4 19 -9 22 -26 17 -81 169 -81 226 0 34 -3 40 -20 40 -13 0
-28 -12 -38 -29z m24 -140 c8 -24 13 -46 11 -48 -3 -2 -25 1 -51 8 -55 14 -58
28 -13 78 23 26 33 32 35 21 2 -8 10 -35 18 -59z m1399 -66 c3 -16 14 -58 24
-92 l19 -63 -23 0 c-16 0 -27 10 -39 34 -9 19 -16 37 -16 40 0 3 -13 34 -30
68 -16 34 -28 63 -26 65 2 3 19 13 38 23 l33 18 8 -32 c4 -17 9 -44 12 -61z
m-225 32 c0 -12 11 -55 24 -95 l24 -73 -39 4 c-22 2 -41 6 -42 8 -1 2 -22 32
-46 67 -24 35 -42 64 -40 65 9 6 105 45 112 46 4 1 7 -9 7 -22z m-1247 -46
c16 -6 34 -11 40 -11 7 0 34 -20 61 -44 l50 -43 -22 -30 c-12 -16 -39 -46 -61
-66 -37 -33 -42 -35 -70 -24 -32 12 -35 19 -46 117 -9 86 -15 89 -69 29 -27
-30 -63 -58 -82 -65 -41 -14 -41 -15 43 80 29 33 53 63 53 68 0 10 67 4 103
-11z m-195 -38 c-21 -21 -72 -76 -116 -122 -74 -79 -80 -83 -100 -70 -13 8
-21 19 -20 25 3 11 255 204 266 204 3 0 -10 -17 -30 -37z m692 -52 c36 -5 126
-12 200 -16 74 -4 153 -8 175 -10 22 -2 85 -6 140 -10 124 -9 158 -24 60 -26
-38 -1 -79 -3 -90 -4 -11 -1 -60 -5 -110 -9 -166 -13 -210 -17 -231 -21 -20
-4 -94 -14 -144 -19 -14 -2 -42 -6 -62 -11 l-38 -7 6 44 c3 24 2 60 -4 80 -12
42 -5 54 17 34 9 -8 46 -19 81 -25z m-590 -58 c0 -10 -6 -13 -16 -9 -9 3 -21
6 -27 6 -7 0 -3 7 7 15 21 16 36 11 36 -12z m318 -13 c15 -16 32 -30 39 -30 7
0 13 -4 13 -10 0 -5 6 -10 14 -10 8 0 25 -13 38 -29 13 -16 33 -34 46 -40 l23
-12 -40 -47 c-22 -26 -79 -88 -128 -138 -151 -155 -174 -159 -249 -45 -16 24
-33 50 -38 57 -11 14 11 61 53 113 l27 33 60 -32 c32 -18 68 -41 80 -51 22
-21 49 -25 59 -9 9 14 -21 59 -43 67 -9 4 -19 9 -22 12 -3 3 -24 19 -47 35
-24 16 -43 33 -43 38 0 12 112 128 123 128 5 0 21 -13 35 -30z m1069 14 c-3
-3 -12 -4 -19 -1 -8 3 -5 6 6 6 11 1 17 -2 13 -5z m-1458 -54 c35 -11 70 -27
78 -35 8 -8 22 -19 31 -25 15 -9 14 -13 -14 -37 -43 -40 -87 -73 -95 -73 -4 0
-12 7 -20 16 -7 8 -25 22 -39 29 -15 8 -39 24 -52 36 -23 20 -24 25 -12 48 7
14 17 39 23 55 9 20 15 25 24 18 6 -6 41 -20 76 -32z m1396 -10 c8 -14 17 -32
20 -40 6 -16 7 -17 92 -178 31 -57 54 -105 52 -106 -8 -7 -215 -69 -234 -70
-11 -1 -25 -5 -32 -9 -6 -4 -15 -3 -18 3 -6 10 0 21 40 77 16 21 -11 32 -58
21 -48 -11 -137 -13 -166 -3 -12 3 -21 13 -21 21 0 21 -14 17 -41 -12 -14 -15
-23 -35 -21 -49 3 -20 -2 -23 -37 -27 -61 -5 -243 10 -255 22 -18 18 -53 11
-69 -14 -9 -13 -14 -26 -11 -29 3 -3 7 -54 8 -114 3 -103 5 -108 26 -111 20
-3 21 -8 18 -60 -2 -34 -9 -62 -17 -68 -8 -6 -15 -26 -17 -45 -1 -19 -3 -34
-4 -34 -2 0 -4 -74 -6 -165 -2 -91 -7 -182 -10 -202 -5 -33 -10 -38 -34 -38
-15 0 -41 5 -59 11 -28 10 -31 15 -31 52 0 23 5 60 10 82 5 22 12 94 15 160 3
66 12 174 21 240 8 66 17 144 20 173 4 30 19 105 34 167 18 78 23 116 16 119
-6 2 -3 5 7 5 9 1 16 4 15 9 -4 15 15 77 34 115 11 21 18 41 15 44 -4 3 -23
-2 -43 -12 -30 -14 -38 -15 -45 -4 -5 9 -3 17 5 21 18 10 200 36 296 42 41 3
125 10 185 16 243 23 282 22 300 -10z m89 -34 c3 -21 15 -64 26 -95 29 -76 11
-55 -44 54 -41 80 -44 90 -29 96 25 10 42 -10 47 -55z m167 7 c11 -27 38 -85
60 -129 22 -45 37 -88 34 -95 -3 -8 -36 -24 -73 -35 l-67 -22 -21 57 c-30 78
-84 247 -84 260 0 7 25 11 66 11 l65 0 20 -47z m312 30 c9 -2 15 -8 12 -13 -3
-5 0 -12 6 -15 10 -7 206 -7 262 0 15 2 27 -1 27 -6 0 -5 -9 -9 -19 -9 -11 0
-26 -7 -34 -15 -8 -8 -17 -12 -19 -9 -5 4 -94 -32 -218 -88 -190 -86 -179 -83
-194 -62 -8 10 -22 46 -31 79 -10 33 -24 77 -31 98 l-14 39 63 -7 c55 -6 65
-5 70 10 6 13 15 15 54 10 27 -4 56 -9 66 -12z m-273 -7 c0 -8 3 -22 7 -32 4
-11 3 -15 -4 -11 -13 8 -23 57 -12 57 5 0 9 -6 9 -14z m-1570 -142 c-21 -31
-40 -60 -42 -65 -2 -6 -11 -7 -20 -4 -35 14 -27 34 33 80 34 25 63 45 65 45 2
0 -14 -25 -36 -56z m-260 16 c6 -11 16 -20 23 -20 7 0 23 -9 37 -19 20 -16 22
-22 12 -34 -17 -20 6 -43 56 -57 21 -5 53 -26 74 -47 41 -44 64 -83 48 -83
-20 0 -80 29 -80 39 0 5 -10 13 -22 17 -13 3 -34 14 -48 23 -14 9 -52 28 -85
41 -33 13 -76 37 -97 54 l-36 31 36 37 c41 42 66 48 82 18z m770 -7 c0 -5 -10
-42 -21 -83 -31 -112 -58 -229 -64 -280 -3 -25 -7 -56 -10 -70 -3 -14 -7 -45
-10 -70 -16 -167 -29 -220 -51 -220 -8 0 -14 1 -15 3 0 1 -2 103 -4 227 -3
124 -7 242 -10 263 -5 33 0 46 29 87 19 26 42 63 51 81 26 52 45 69 77 69 15
0 28 -3 28 -7z m-256 -225 c-34 -55 -32 -54 -47 -39 -9 10 -4 19 25 47 21 19
40 34 43 34 3 0 -7 -19 -21 -42z m1267 21 c-13 -11 -27 -17 -30 -13 -7 7 28
34 43 34 6 -1 0 -10 -13 -21z m-412 -76 c-11 -38 -39 -129 -64 -203 -45 -135
-66 -209 -83 -285 -7 -35 -8 -30 -7 35 0 41 4 80 8 86 4 7 0 17 -8 24 -21 18
-20 114 2 151 16 27 16 30 1 41 -20 16 -28 102 -10 120 15 15 16 45 2 53 -5 3
-10 13 -10 22 0 12 8 15 38 11 21 -3 56 -2 77 2 77 15 75 18 54 -57z m348 44
c-3 -8 -45 -40 -94 -72 -48 -32 -108 -71 -132 -87 -24 -16 -45 -28 -46 -26 -2
2 -6 29 -10 61 -7 55 -7 57 16 57 13 0 78 20 144 44 66 24 122 42 124 40 2 -2
1 -9 -2 -17z m-763 -42 c32 -2 61 -7 64 -10 9 -9 -17 -23 -57 -30 -23 -4 -52
-22 -78 -47 -22 -22 -45 -38 -50 -35 -5 3 -10 37 -11 75 l-3 70 38 -10 c21 -5
64 -11 97 -13z m-659 -15 c4 -6 -6 -10 -22 -9 -25 0 -26 1 -8 9 11 5 21 9 22
9 1 1 5 -3 8 -9z m865 -89 l0 -49 -42 -4 c-90 -10 -206 -9 -213 1 -6 11 51 51
73 51 8 0 28 6 45 14 26 12 91 29 130 35 4 1 7 -21 7 -48z m-190 -101 l45 0
-54 -30 c-30 -17 -62 -37 -71 -45 -26 -24 -30 -19 -30 39 l0 55 32 -10 c18 -5
53 -9 78 -9z m200 -70 l0 -70 -67 1 c-107 2 -231 -12 -244 -27 -12 -14 -5 -19
35 -26 16 -2 12 -10 -25 -45 -50 -49 -57 -52 -53 -20 11 76 16 97 24 97 5 0
40 20 77 44 37 24 79 47 93 51 14 4 39 15 55 24 17 8 46 21 65 27 19 7 36 12
38 13 1 1 2 -31 2 -69z m5 -144 c11 -56 3 -80 -26 -83 -106 -8 -270 -9 -274
-3 -7 11 45 51 116 89 43 24 67 30 116 30 l62 1 6 -34z m-965 -45 c25 -5 35
-9 23 -10 -11 0 -65 -16 -119 -35 -55 -19 -100 -33 -102 -32 -1 2 0 22 4 45
l7 41 71 -1 c39 0 91 -4 116 -8z m425 -78 c-4 -38 -9 -81 -11 -98 -2 -16 -6
-56 -9 -89 -2 -32 -6 -60 -9 -63 -10 -11 -17 88 -12 182 2 55 5 108 5 118 1
10 9 17 22 17 20 0 21 -3 14 -67z m258 -4 l42 0 -31 -16 c-16 -8 -39 -28 -50
-44 -36 -54 -41 -46 -35 55 1 12 6 16 17 12 9 -3 34 -6 57 -7z m282 -10 c4
-12 4 -46 0 -76 -7 -54 -7 -55 -33 -48 -15 4 -84 7 -154 6 -78 0 -128 3 -128
9 0 9 72 60 85 60 3 0 24 12 48 28 37 24 67 32 159 40 9 1 20 -7 23 -19z
m-272 -149 l52 -1 -55 -29 c-30 -17 -65 -37 -77 -46 -23 -16 -23 -16 -23 15 0
43 17 74 37 67 8 -3 38 -6 66 -6z m251 -16 c17 -6 20 -32 10 -82 l-6 -31 -122
0 c-66 0 -143 3 -170 6 -48 5 -48 5 -28 25 10 11 53 35 93 53 58 26 88 33 141
34 36 1 73 -2 82 -5z m-329 -145 c90 -11 120 -19 73 -19 -25 0 -65 -11 -192
-51 -33 -11 -64 -19 -68 -19 -10 0 -11 71 -2 95 7 18 1 18 189 -6z"/>
<path d="M354 685 c-16 -12 -17 -17 -6 -35 9 -15 11 -44 6 -104 -4 -58 -3 -85
5 -90 6 -4 32 11 59 32 53 45 85 62 169 93 32 12 65 28 74 36 12 10 49 15 123
17 58 2 109 6 113 9 16 16 -16 22 -130 25 -129 3 -322 16 -346 23 -8 2 -17 -4
-19 -14 -5 -24 51 -46 106 -40 23 2 42 2 42 -1 0 -3 -24 -18 -52 -32 -29 -15
-68 -42 -85 -61 l-33 -34 6 89 c7 94 1 112 -32 87z"/>
</g>
</svg>
