<?xml version="1.0" standalone="no"?>
<!DOCTYPE svg PUBLIC "-//W3C//DTD SVG 20010904//EN"
 "http://www.w3.org/TR/2001/REC-SVG-20010904/DTD/svg10.dtd">
<svg version="1.0" xmlns="http://www.w3.org/2000/svg"
 width="261.000000pt" height="147.000000pt" viewBox="0 0 261.000000 147.000000"
 preserveAspectRatio="xMidYMid meet">
<metadata>
Created by potrace 1.16, written by Peter Selinger 2001-2019
</metadata>
<g transform="translate(0.000000,147.000000) scale(0.100000,-0.100000)"
fill="#000000" stroke="none">
<path d="M1264 1424 c-5 -34 -13 -49 -33 -61 -14 -9 -55 -35 -91 -58 -36 -23
-108 -58 -160 -79 -52 -21 -105 -42 -117 -47 -13 -5 -23 -13 -23 -18 0 -16 20
-24 33 -13 7 5 20 12 29 15 16 6 16 4 1 -28 -11 -23 -21 -32 -32 -27 -13 4
-13 2 2 -15 10 -12 33 -23 50 -26 53 -8 130 -39 174 -69 23 -15 45 -28 49 -28
4 0 18 -10 30 -21 l23 -21 -111 -74 c-62 -41 -115 -74 -120 -74 -14 0 -9 -22
8 -34 13 -10 12 -15 -10 -41 -36 -42 -33 -63 8 -56 13 3 101 -43 104 -54 2 -6
9 -9 16 -7 7 1 19 -4 25 -12 9 -11 5 -18 -21 -34 -61 -37 -131 -72 -145 -72
-18 0 -73 -32 -73 -42 0 -4 23 -20 52 -34 46 -23 50 -28 35 -39 -23 -16 -21
-42 4 -80 22 -32 89 -85 108 -85 6 0 11 -4 11 -10 0 -5 13 -16 28 -24 15 -8
34 -26 42 -40 7 -15 21 -26 29 -25 34 3 42 -2 62 -36 12 -19 25 -35 31 -35 5
0 51 36 101 80 51 45 117 97 147 118 30 20 99 72 155 115 55 43 123 96 150
117 28 20 67 56 88 79 28 31 44 40 58 36 15 -5 19 -1 19 17 0 23 73 98 181
188 l36 29 49 -50 c27 -27 63 -55 81 -61 17 -6 37 -21 43 -34 12 -22 49 -44
75 -44 22 0 18 28 -5 40 -43 23 -54 66 -51 198 3 135 10 158 63 202 35 30 34
52 -2 27 -11 -8 -65 -58 -120 -111 -54 -53 -101 -96 -104 -96 -6 0 -99 55
-138 82 -15 10 -30 18 -34 18 -4 0 -21 10 -38 23 -17 13 -56 37 -86 54 -30 16
-75 43 -100 60 -58 39 -153 95 -210 123 -25 13 -70 43 -100 69 -30 25 -71 55
-90 65 -19 11 -47 32 -62 47 -15 15 -33 30 -40 32 -10 4 -9 8 2 16 11 8 4 11
-32 11 l-47 0 -7 -46z m164 -93 c139 -83 163 -109 42 -48 -36 19 -88 42 -117
52 -52 18 -57 29 -30 63 8 10 13 8 24 -8 8 -11 44 -38 81 -59z m-71 -42 c34
-17 65 -35 68 -40 4 -5 -1 -23 -9 -41 -22 -47 -37 -136 -30 -175 5 -26 3 -33
-10 -33 -11 0 -16 8 -16 28 1 15 -2 40 -6 56 -5 19 -2 31 7 37 10 6 10 9 2 9
-8 0 -13 15 -13 43 0 75 -11 118 -29 115 -11 -3 -15 -13 -14 -33 1 -17 4 -75
7 -130 3 -55 2 -92 -2 -82 -7 17 -9 17 -35 -3 -16 -13 -27 -31 -27 -45 0 -13
-4 -27 -10 -30 -6 -3 -10 4 -10 17 0 14 -17 39 -46 65 -41 39 -104 141 -104
170 0 12 113 93 131 93 5 0 9 -4 9 -10 0 -16 37 -12 44 5 8 21 21 19 93 -16z
m103 -190 c0 -104 -1 -109 -21 -109 -17 0 -19 4 -13 23 5 12 9 56 9 97 2 100
3 112 15 105 6 -4 10 -53 10 -116z m94 90 c5 -5 2 -19 -8 -33 -9 -14 -19 -54
-23 -88 -7 -72 -7 -73 10 -73 7 0 14 22 18 60 l6 60 -1 -65 c-1 -62 -2 -65
-27 -68 -23 -3 -27 1 -32 35 -4 21 -7 75 -7 120 l0 83 28 -12 c15 -7 31 -15
36 -19z m-549 -6 c-14 -16 -27 -35 -30 -43 -3 -8 -14 -21 -25 -28 -19 -11 -20
-10 -16 10 8 44 19 59 50 73 46 20 50 18 21 -12z m624 -30 c18 -15 20 -23 12
-48 -6 -16 -16 -52 -24 -80 -16 -54 -35 -71 -32 -28 1 15 3 61 3 101 1 39 6
72 11 72 5 0 18 -8 30 -17z m-564 -50 c10 -23 10 -31 2 -28 -7 2 -24 6 -39 9
-32 7 -37 30 -10 45 24 14 32 10 47 -26z m651 -76 c-12 -39 -26 -72 -32 -74
-14 -5 -27 100 -18 144 l6 32 33 -16 32 -16 -21 -70z m144 15 c0 -5 -39 -91
-45 -100 -1 -1 -9 0 -18 4 -13 5 -16 19 -15 73 l2 66 38 -18 c21 -11 38 -22
38 -25z m83 -21 l27 -10 -21 -36 c-29 -49 -65 -49 -71 0 -4 33 16 70 32 60 4
-2 19 -9 33 -14z m-191 -36 c-3 -23 -9 -35 -19 -35 -11 0 -13 5 -8 18 4 9 10
25 12 35 9 30 19 18 15 -18z m-115 -17 c-3 -7 -5 -2 -5 12 0 14 2 19 5 13 2
-7 2 -19 0 -25z m386 2 c34 -17 30 -34 -9 -38 -43 -3 -59 10 -44 37 6 12 14
21 18 19 4 -2 19 -10 35 -18z m-702 -31 c-9 -23 -10 -22 -10 11 -1 23 2 31 9
24 7 -7 7 -19 1 -35z m63 6 c-4 -8 -12 -15 -20 -15 -8 0 -11 6 -8 15 4 8 12
15 20 15 8 0 11 -6 8 -15z m66 5 c0 -5 -8 -10 -17 -10 -15 0 -16 2 -3 10 19
12 20 12 20 0z m925 -92 c-3 -122 -3 -118 -14 -118 -12 0 -86 78 -86 90 0 4
-3 11 -6 14 -6 6 90 113 103 115 3 1 5 -45 3 -101z m-1088 -1 l32 3 -1 -91
c-1 -87 -2 -91 -26 -100 -17 -6 -29 -6 -36 1 -17 17 -48 11 -53 -10 -5 -20 -6
-20 -25 -3 -11 10 -33 37 -49 61 l-29 44 42 51 c23 29 55 67 72 85 l31 33 5
-38 c5 -36 7 -38 37 -36z m353 53 c6 -11 8 -30 5 -42 -3 -13 -7 -49 -9 -82 -4
-61 -14 -76 -52 -76 -18 0 -21 5 -17 28 2 15 4 34 5 42 0 26 42 150 50 150 4
0 12 -9 18 -20z m-97 -52 c-1 -35 -4 -79 -7 -98 -2 -19 -5 -41 -5 -48 -1 -8
-10 -12 -23 -10 -22 3 -23 6 -19 98 3 97 11 120 40 120 13 0 16 -11 14 -62z
m139 37 c-2 -14 -6 -25 -8 -25 -2 0 -4 11 -4 25 0 14 4 25 9 25 4 0 6 -11 3
-25z m64 -27 c-3 -29 -6 -63 -6 -75 0 -27 -25 -53 -52 -53 -16 0 -18 3 -10 13
6 7 11 22 11 32 0 11 6 46 12 78 10 46 16 57 32 57 18 0 19 -5 13 -52z m58 10
c-4 -24 -13 -61 -20 -83 l-12 -40 -1 36 c-2 65 11 129 25 129 11 0 13 -10 8
-42z m112 17 c-8 -30 -25 -75 -28 -75 -10 0 -6 85 5 92 22 14 29 9 23 -17z
m-461 -85 c-2 -55 -7 -106 -13 -113 -6 -7 -26 -14 -45 -15 -34 -2 -34 -2 -40
50 -10 77 -8 148 2 148 6 0 8 -21 5 -47 -5 -57 4 -123 17 -123 17 0 23 32 10
52 -7 12 -8 17 -2 13 7 -4 11 10 11 42 0 50 12 76 40 86 8 3 15 6 16 6 1 1 0
-44 -1 -99z m400 -17 c-3 -13 -13 -23 -21 -23 -14 0 -16 9 -10 62 4 34 10 67
14 73 9 14 24 -84 17 -112z m103 60 c-3 -51 -6 -58 -25 -61 -13 -2 -23 0 -23
4 0 19 36 114 43 114 4 0 7 -26 5 -57z m215 35 c18 -12 34 -23 37 -25 6 -6
-40 -46 -90 -79 -25 -16 -56 -39 -70 -52 -14 -13 -33 -27 -42 -33 -16 -8 -16
-6 -2 35 15 42 19 46 79 68 75 26 73 44 -2 25 -51 -14 -52 -14 -41 7 6 12 11
22 10 24 -1 1 -2 11 -2 21 0 16 8 21 43 24 23 2 44 4 45 5 2 1 18 -8 35 -20z
m-148 -5 c-3 -10 -9 -30 -12 -46 -12 -61 -41 -42 -35 23 4 35 7 40 29 40 20 0
24 -4 18 -17z m-909 -65 c-13 -18 -86 -54 -86 -42 0 7 83 64 92 64 5 0 2 -10
-6 -22z m847 -100 c5 -37 2 -47 -21 -71 -15 -16 -36 -33 -46 -39 -18 -10 -19
-7 -12 58 7 70 21 94 57 94 12 0 18 -12 22 -42z m126 6 c-69 -75 -89 -92 -89
-75 0 9 20 32 45 51 24 19 44 38 45 43 0 4 5 7 12 7 6 0 1 -12 -13 -26z m-234
-66 c-5 -80 -6 -84 -40 -115 -20 -18 -41 -33 -47 -33 -7 0 -8 26 -5 78 4 42 6
89 7 104 0 22 6 28 38 36 20 5 40 10 44 11 4 1 5 -36 3 -81z m-761 34 c8 -16
29 -40 45 -53 42 -33 39 -46 -5 -20 -19 12 -43 21 -53 21 -10 0 -24 6 -30 14
-7 8 -23 17 -37 20 -20 5 -23 10 -15 20 7 8 20 12 30 9 10 -3 22 0 25 6 12 18
25 12 40 -17z m639 -94 l-2 -113 -36 -29 -37 -29 6 79 c3 43 5 105 6 136 0 59
0 59 55 67 6 0 9 -41 8 -111z m-97 55 c-2 -21 -7 -86 -11 -145 -7 -100 -9
-107 -33 -117 -13 -7 -26 -10 -28 -9 -6 7 -6 145 1 214 7 64 10 72 34 81 40
16 40 16 37 -24z m-201 -3 c3 -5 -11 -16 -31 -25 -45 -19 -44 -19 -44 4 0 14
8 21 28 24 15 2 30 5 34 6 4 0 10 -3 13 -9z m-115 -32 c0 -22 -6 -31 -27 -39
-35 -13 -53 9 -23 30 11 7 20 19 20 26 0 6 7 12 15 12 10 0 15 -10 15 -29z
m204 -40 c-5 -35 -8 -101 -9 -146 0 -76 -2 -86 -24 -103 -13 -10 -26 -19 -30
-19 -4 0 -3 39 0 88 4 48 9 116 11 151 2 49 7 66 23 77 33 24 37 17 29 -48z
m451 44 c-7 -37 -181 -190 -375 -329 -36 -26 -97 -73 -136 -105 -40 -32 -92
-73 -117 -92 l-45 -34 -26 41 c-28 41 -30 67 -8 75 7 2 12 -6 12 -22 0 -30 13
-40 46 -32 22 6 24 11 22 48 -3 37 0 44 31 65 38 26 52 29 49 10 -2 -6 6 -12
17 -12 14 0 20 7 20 22 1 27 31 52 63 53 15 0 26 7 29 20 5 18 36 34 59 29 23
-4 34 2 34 20 0 13 26 37 78 72 42 28 85 61 96 71 13 14 21 17 29 9 17 -17 27
-13 27 12 0 15 16 34 48 59 26 20 48 37 49 37 1 1 0 -7 -2 -17z m-539 -74 c-4
-29 -9 -97 -13 -151 -5 -91 -8 -99 -32 -116 -57 -39 -55 -43 -47 70 13 208 15
215 50 232 47 24 49 21 42 -35z m-161 -24 c40 24 48 25 47 6 0 -3 -6 -57 -12
-120 -7 -63 -14 -126 -15 -140 -1 -14 -3 -28 -4 -32 -1 -10 -77 -48 -95 -48
-9 0 -23 15 -32 33 -9 17 -27 44 -40 58 -14 14 -33 48 -43 76 l-18 50 44 54
c24 30 56 64 71 76 l26 22 13 -30 13 -31 45 26z m-187 -49 c-49 -63 -64 -71
-101 -52 l-26 14 82 46 c45 26 83 47 85 47 2 0 -16 -25 -40 -55z m-10 -215 c4
0 13 -9 20 -20 19 -31 -1 -24 -57 20 -55 44 -60 56 -33 76 15 11 20 8 40 -32
12 -24 26 -44 30 -44z"/>
<path d="M1110 1230 c0 -5 5 -10 11 -10 5 0 7 5 4 10 -3 6 -8 10 -11 10 -2 0
-4 -4 -4 -10z"/>
<path d="M2055 860 c-3 -5 -2 -10 4 -10 5 0 13 5 16 10 3 6 2 10 -4 10 -5 0
-13 -4 -16 -10z"/>
<path d="M353 1343 c-15 -6 -17 -43 -3 -43 21 0 8 -47 -36 -134 -25 -50 -56
-102 -67 -115 -12 -13 -63 -43 -113 -67 -51 -23 -95 -47 -98 -52 -10 -16 13
-25 28 -12 11 8 24 4 58 -20 23 -17 57 -40 75 -51 32 -20 83 -80 83 -97 0 -5
9 -20 19 -34 11 -13 27 -49 36 -81 13 -44 30 -70 80 -124 36 -37 65 -74 65
-80 0 -17 29 -17 35 0 2 6 6 55 9 107 12 205 14 208 113 214 32 2 98 13 146
25 52 12 103 19 125 16 42 -6 94 5 99 22 7 20 -35 34 -123 43 -47 5 -91 13
-97 18 -7 5 -50 17 -97 26 -46 9 -86 19 -89 21 -3 4 70 176 111 261 5 12 8 30
6 40 -4 21 -31 24 -133 11 -60 -7 -60 -7 -71 21 -8 21 -29 38 -73 61 -63 32
-67 33 -88 24z m97 -92 c0 -4 -18 -22 -40 -40 -22 -17 -40 -30 -40 -28 0 2 9
22 20 44 15 33 24 40 40 36 11 -3 20 -9 20 -12z m137 -194 c-51 -106 -54 -110
-54 -72 0 82 -7 156 -15 161 -4 3 -8 14 -8 24 0 16 9 19 63 22 44 2 63 -1 65
-10 2 -7 -21 -63 -51 -125z m-120 76 c4 -32 8 -159 7 -283 -1 -252 -3 -308
-13 -314 -16 -10 -64 69 -78 127 -8 34 -23 69 -34 79 -10 9 -19 20 -19 25 0 4
-8 22 -17 38 -25 44 -24 198 0 245 18 33 124 140 139 140 4 0 10 -26 15 -57z
m-257 -162 c0 -11 5 -21 11 -23 6 -2 9 -18 7 -36 l-3 -32 -29 25 c-16 13 -37
27 -47 30 -28 9 -23 24 14 40 43 19 47 18 47 -4z m530 -129 c22 -8 20 -10 -25
-21 -28 -6 -69 -13 -92 -15 -42 -3 -43 -3 -43 29 0 17 2 34 5 37 6 6 115 -15
155 -30z"/>
</g>
</svg>
