<?xml version="1.0" standalone="no"?>
<!DOCTYPE svg PUBLIC "-//W3C//DTD SVG 20010904//EN"
 "http://www.w3.org/TR/2001/REC-SVG-20010904/DTD/svg10.dtd">
<svg version="1.0" xmlns="http://www.w3.org/2000/svg"
 width="265.000000pt" height="159.000000pt" viewBox="0 0 265.000000 159.000000"
 preserveAspectRatio="xMidYMid meet">
<metadata>
Created by potrace 1.16, written by Peter Selinger 2001-2019
</metadata>
<g transform="translate(0.000000,159.000000) scale(0.100000,-0.100000)"
fill="#000000" stroke="none">
<path d="M880 1478 c0 -12 -61 -58 -75 -58 -7 0 -130 -58 -305 -143 -69 -34
-127 -62 -130 -63 -6 -1 -32 -12 -97 -40 -48 -21 -53 -26 -53 -54 0 -39 66
-112 132 -146 26 -13 51 -30 55 -38 4 -8 38 -35 75 -59 65 -42 67 -45 49 -61
-26 -24 -68 -247 -53 -281 12 -27 30 -33 36 -12 2 6 14 78 26 160 l23 147 46
-42 c25 -23 56 -56 68 -73 11 -17 40 -44 63 -59 39 -26 42 -30 35 -59 -4 -18
-8 -43 -10 -57 -7 -77 -18 -168 -31 -268 -10 -76 -12 -118 -5 -126 7 -9 33
-10 93 -5 46 4 163 9 260 11 137 2 179 6 183 16 7 18 -2 32 -20 32 -34 0 -39
70 -14 179 6 25 17 109 25 186 16 159 28 242 35 250 3 3 39 14 80 25 64 16
236 73 389 126 25 9 86 23 135 30 50 8 104 18 120 24 17 5 44 11 60 14 17 3
66 12 110 22 44 9 92 16 107 15 15 -1 29 3 33 9 3 5 26 10 51 10 45 0 68 20
47 41 -12 12 -134 28 -248 33 -63 2 -114 12 -170 31 -44 14 -120 35 -169 46
-49 11 -115 29 -147 39 -31 11 -83 22 -115 25 -33 4 -93 17 -134 30 -41 12
-109 30 -150 40 -153 35 -315 86 -334 105 -15 15 -76 12 -76 -2z m157 -84 c49
-21 120 -43 158 -51 117 -24 137 -30 212 -57 40 -14 86 -26 102 -26 16 0 72
-11 125 -25 78 -20 192 -46 346 -80 8 -1 33 -8 56 -14 33 -9 103 -16 209 -21
17 -1 17 -3 -5 -12 -14 -5 -34 -11 -45 -13 -77 -11 -156 -26 -181 -34 -16 -5
-60 -12 -99 -16 -82 -7 -249 -56 -485 -141 -62 -22 -312 -34 -509 -24 l-63 3
5 86 c6 100 12 154 32 272 12 79 42 189 51 189 2 0 43 -16 91 -36z m-171 -55
c-19 -79 -53 -308 -62 -409 -3 -41 -10 -93 -15 -115 -4 -22 -9 -58 -9 -80 l-1
-40 -31 34 c-30 33 -30 35 -11 44 16 7 20 18 19 60 -1 29 1 72 5 97 4 25 16
115 28 200 28 210 39 256 65 268 11 5 22 8 24 7 2 -2 -4 -31 -12 -66z m-80
-16 c-3 -21 -10 -85 -16 -143 -6 -58 -20 -154 -31 -214 -10 -60 -19 -125 -19
-143 0 -33 0 -33 -25 -17 -18 11 -25 25 -25 47 0 50 31 307 45 377 8 38 9 69
4 74 -21 22 -29 -18 -54 -254 -18 -168 -22 -190 -35 -190 -5 0 -16 15 -24 33
-12 29 -11 55 5 193 10 87 18 169 19 181 0 17 16 30 73 57 39 20 76 36 80 36
5 0 6 -17 3 -37z m-190 -107 c-3 -30 -10 -98 -16 -153 -16 -157 -21 -168 -60
-143 -16 10 -16 133 0 205 5 22 10 56 10 75 0 28 6 39 28 52 41 26 45 22 38
-36z m-106 -123 c-10 -81 -20 -128 -27 -131 -7 -2 -13 1 -13 6 0 5 -11 20 -23
34 -22 24 -23 30 -15 89 4 35 11 72 14 82 5 16 48 46 69 47 7 0 5 -44 -5 -127z
m-106 14 c-10 -81 -15 -84 -62 -37 -23 22 -42 45 -42 49 0 11 92 50 103 44 4
-3 5 -28 1 -56z m862 -289 c3 -10 0 -27 -6 -39 -12 -21 -15 -21 -177 -14 -149
6 -166 5 -184 -11 -28 -25 -43 -6 -34 43 l6 40 195 -1 c174 -1 195 -3 200 -18z
m-29 -103 c8 -2 9 -13 4 -32 -7 -24 -12 -27 -37 -23 -16 3 -92 5 -169 5 -133
0 -140 -1 -140 -20 0 -19 7 -20 145 -22 182 -3 192 -6 188 -40 l-3 -27 -165
-1 c-91 0 -171 -4 -177 -8 -7 -5 -13 -15 -13 -24 0 -14 14 -15 113 -10 61 3
140 3 175 0 70 -6 72 -10 53 -96 -6 -23 -12 -54 -15 -69 l-6 -26 -166 2 c-165
2 -207 -5 -190 -32 5 -8 59 -12 172 -11 90 0 168 -2 173 -5 4 -3 8 -19 9 -35
1 -28 -2 -30 -46 -35 -26 -3 -111 -5 -189 -5 -165 1 -150 -13 -133 124 5 44
17 148 26 230 9 83 20 155 24 160 8 9 339 10 367 0z"/>
<path d="M835 430 c-17 -28 10 -33 165 -28 157 5 196 12 169 29 -20 12 -326
11 -334 -1z"/>
<path d="M888 243 c6 -2 18 -2 25 0 6 3 1 5 -13 5 -14 0 -19 -2 -12 -5z"/>
<path d="M320 865 c-18 -22 -29 -85 -35 -211 -5 -93 -3 -113 10 -124 9 -8 19
-9 25 -4 6 7 30 272 30 341 0 17 -15 17 -30 -2z"/>
<path d="M292 458 c-11 -14 -32 -138 -32 -191 0 -18 6 -42 14 -53 13 -17 16
-18 31 -3 11 11 13 22 7 38 -4 13 -5 46 0 74 21 146 21 147 6 147 -9 0 -20 -6
-26 -12z"/>
<path d="M456 423 c-10 -35 -15 -238 -6 -253 21 -33 32 10 38 139 4 115 3 131
-11 131 -9 0 -18 -8 -21 -17z"/>
</g>
</svg>
