<?xml version="1.0" standalone="no"?>
<!DOCTYPE svg PUBLIC "-//W3C//DTD SVG 20010904//EN"
 "http://www.w3.org/TR/2001/REC-SVG-20010904/DTD/svg10.dtd">
<svg version="1.0" xmlns="http://www.w3.org/2000/svg"
 width="133.000000pt" height="103.000000pt" viewBox="0 0 133.000000 103.000000"
 preserveAspectRatio="xMidYMid meet">
<metadata>
Created by potrace 1.16, written by Peter Selinger 2001-2019
</metadata>
<g transform="translate(0.000000,103.000000) scale(0.100000,-0.100000)"
fill="#000000" stroke="none">
<path d="M1088 934 c-4 -3 -44 -5 -91 -5 -62 0 -88 -3 -97 -14 -9 -11 -7 -17
9 -27 12 -7 21 -18 21 -23 0 -16 -126 -45 -139 -32 -7 7 -14 7 -23 -1 -26 -21
-241 -89 -355 -112 -35 -7 -79 -10 -99 -7 -42 7 -144 -11 -144 -26 0 -6 6 -18
14 -26 13 -15 21 -37 51 -141 12 -41 11 -48 -8 -80 -12 -19 -23 -37 -26 -40
-9 -8 -14 -32 -15 -65 l-1 -30 65 3 c54 3 77 -2 135 -26 39 -16 92 -32 117
-36 26 -4 51 -13 57 -19 5 -7 24 -14 42 -15 36 -3 183 -62 246 -99 35 -20 43
-30 43 -54 0 -22 5 -29 20 -29 16 0 20 7 20 35 0 19 5 69 11 111 9 59 18 83
35 100 13 11 24 28 24 35 0 42 79 207 118 245 12 13 22 30 22 38 0 15 -26 16
-121 1 -22 -3 -28 0 -31 20 -3 14 0 26 7 29 7 2 34 49 60 103 26 54 63 114 82
135 20 20 32 41 29 47 -7 11 -68 15 -78 5z m-8 -49 c0 -12 -89 -195 -95 -195
-3 0 -4 38 -1 85 2 47 0 87 -5 90 -23 15 -4 25 46 25 30 0 55 -2 55 -5z m-136
-182 c-3 -102 -4 -108 -25 -113 -13 -3 -24 -11 -26 -17 -6 -16 53 -22 122 -12
32 4 61 6 64 4 2 -3 -3 -13 -12 -23 -9 -10 -32 -53 -52 -97 -20 -44 -40 -82
-44 -85 -5 -3 -14 -22 -20 -42 -7 -21 -15 -38 -17 -38 -3 0 -4 24 -4 53 2 92
-12 218 -24 214 -7 -2 -11 -68 -13 -202 -1 -108 -5 -200 -8 -203 -2 -3 -37 11
-76 31 -39 21 -79 37 -89 37 -9 0 -33 11 -53 24 -19 13 -43 27 -53 30 -11 3
-44 26 -74 52 -30 25 -71 54 -90 64 -19 10 -60 42 -90 70 l-55 51 41 37 c73
65 128 99 220 137 48 20 98 47 109 59 23 24 244 90 266 79 4 -1 5 -51 3 -110z
m-397 9 c-21 -10 -35 -21 -31 -25 4 -4 -5 -7 -20 -7 -25 0 -61 -24 -174 -116
-18 -15 -34 -25 -36 -23 -6 9 -26 88 -26 106 0 17 9 21 63 26 63 7 214 41 225
51 3 3 12 6 21 5 9 0 -1 -8 -22 -17z m-194 -295 c29 -24 70 -54 92 -69 22 -14
55 -40 74 -57 l34 -32 -29 7 c-25 6 -134 46 -202 74 -13 6 -37 10 -54 10 -28
0 -30 2 -23 27 6 27 42 83 52 83 2 0 28 -19 56 -43z"/>
</g>
</svg>
