<?xml version="1.0" standalone="no"?>
<!DOCTYPE svg PUBLIC "-//W3C//DTD SVG 20010904//EN"
 "http://www.w3.org/TR/2001/REC-SVG-20010904/DTD/svg10.dtd">
<svg version="1.0" xmlns="http://www.w3.org/2000/svg"
 width="252.000000pt" height="198.000000pt" viewBox="0 0 252.000000 198.000000"
 preserveAspectRatio="xMidYMid meet">
<metadata>
Created by potrace 1.16, written by Peter Selinger 2001-2019
</metadata>
<g transform="translate(0.000000,198.000000) scale(0.100000,-0.100000)"
fill="#000000" stroke="none">
<path d="M698 1893 c-9 -2 -20 -13 -23 -23 -8 -24 -151 -134 -194 -148 -19 -7
-91 -12 -160 -12 -134 -1 -142 -3 -175 -54 -16 -25 -17 -36 -8 -80 6 -28 16
-91 23 -141 6 -49 15 -106 20 -126 5 -20 13 -105 18 -189 9 -153 18 -183 47
-159 16 13 23 1 32 -53 10 -59 30 -59 105 0 35 27 78 54 97 61 19 6 60 26 90
43 57 33 222 111 275 130 17 6 48 23 70 38 63 43 106 63 116 53 10 -10 16
-468 9 -695 l-5 -157 -55 -6 c-30 -4 -70 -10 -87 -15 -29 -7 -33 -6 -33 11 0
12 -7 19 -20 19 -14 0 -22 -10 -29 -37 -17 -67 -40 -288 -30 -297 8 -9 102 22
184 60 72 33 94 38 227 54 199 24 237 31 323 56 49 14 122 35 160 46 39 11 79
24 90 29 11 5 45 10 75 11 47 3 55 6 58 24 3 19 -4 23 -45 29 -26 4 -133 7
-237 6 l-189 -2 6 78 c3 43 15 104 27 137 26 75 145 320 164 335 8 7 77 16
158 21 78 5 177 12 219 15 99 9 100 7 104 -140 4 -118 10 -155 25 -155 17 0
40 32 41 58 3 64 27 199 71 401 41 192 47 211 74 248 15 21 15 23 -1 29 -10 4
-20 1 -25 -6 -5 -8 -36 -17 -69 -21 -51 -6 -67 -3 -99 13 l-37 20 61 -7 c43
-5 64 -3 69 5 4 6 3 15 -1 20 -5 4 -193 12 -419 19 -225 6 -428 13 -450 15
-89 11 -192 27 -226 36 -45 12 -72 4 -66 -21 3 -10 -2 -20 -10 -23 -12 -5 -14
-15 -8 -44 4 -20 9 -57 11 -82 l3 -45 -71 2 c-52 1 -82 -4 -107 -17 -20 -10
-74 -33 -121 -50 -47 -18 -94 -39 -105 -46 -11 -7 -49 -20 -85 -29 -36 -9 -81
-24 -100 -32 -40 -17 -157 -26 -165 -13 -3 5 1 37 9 72 41 168 56 239 56 260
0 13 13 50 29 83 45 92 42 90 89 66 23 -12 46 -21 53 -21 6 0 36 -16 67 -35
32 -19 95 -51 142 -71 47 -19 94 -44 105 -54 11 -11 40 -26 65 -35 24 -9 51
-22 61 -31 14 -13 18 -13 30 2 11 14 11 19 -6 33 -29 24 -115 153 -115 172 0
19 -33 51 -49 47 -7 -2 -20 20 -30 48 -10 28 -30 71 -44 95 -36 62 -44 107
-22 123 14 10 15 16 6 34 -12 22 -13 23 -43 15z m-1 -142 c7 -24 18 -50 25
-58 13 -16 27 -50 60 -151 11 -35 18 -65 16 -68 -5 -5 -106 37 -148 61 -25 14
-54 29 -137 66 -23 10 -45 24 -49 30 -7 12 63 89 81 89 5 0 35 18 65 40 30 21
59 38 65 36 5 -1 15 -22 22 -45z m-332 -111 c-3 -6 1 -13 9 -16 22 -9 20 -25
-10 -69 -14 -21 -32 -66 -39 -99 -8 -34 -26 -118 -41 -188 -15 -71 -31 -128
-36 -128 -4 0 -8 22 -8 50 0 42 -23 225 -47 380 -4 25 -7 49 -8 54 0 5 27 9
60 8 33 -2 74 2 90 7 17 5 31 10 33 10 2 1 0 -4 -3 -9z m828 -200 c40 -6 95
-15 122 -20 28 -5 199 -12 380 -15 378 -6 447 -14 279 -34 -60 -6 -138 -18
-174 -26 -90 -19 -225 -34 -349 -36 -112 -3 -228 -19 -303 -43 l-48 -15 -1 32
c0 18 -2 62 -5 100 -6 77 -13 73 99 57z m893 -158 c18 -79 22 -271 6 -281 -7
-4 -43 -8 -80 -9 -37 -1 -101 -6 -142 -12 -109 -14 -202 -14 -315 0 -55 7
-122 13 -150 14 -45 1 -51 -2 -63 -26 -13 -27 -15 -28 -104 -28 -88 0 -90 0
-85 23 3 12 13 58 22 102 9 44 25 102 34 129 16 48 17 50 71 62 30 7 78 13
107 14 54 0 347 31 518 54 55 8 116 13 135 13 33 -2 35 -4 46 -55z m61 42 c31
10 113 15 113 7 0 -4 -6 -30 -14 -57 -7 -27 -18 -71 -24 -99 -6 -27 -23 -97
-37 -155 -13 -58 -27 -127 -30 -154 -2 -27 -6 -51 -8 -53 -2 -2 -7 26 -11 63
-6 55 -4 70 10 85 16 18 16 20 1 37 -12 13 -19 53 -26 162 -5 80 -13 154 -17
165 -7 18 -6 18 9 7 9 -8 24 -11 34 -8z m-1207 -88 c0 -9 -79 -49 -201 -101
-72 -31 -142 -63 -155 -71 -13 -9 -47 -26 -76 -38 -29 -12 -79 -36 -112 -55
-64 -37 -79 -33 -74 22 3 27 10 32 107 67 57 21 120 41 140 45 20 4 72 21 116
40 131 53 209 83 230 88 11 3 21 5 23 6 1 0 2 -1 2 -3z m231 -52 c-10 -27 -29
-87 -41 -134 -30 -111 -39 -127 -41 -70 0 25 -3 68 -6 95 -3 28 -6 70 -7 95
l-1 44 55 11 c30 6 56 11 58 10 1 -1 -6 -24 -17 -51z m399 -268 c0 -15 -135
-295 -149 -309 -10 -10 -22 83 -27 206 -3 83 -2 88 19 97 21 8 157 14 157 6z
m-366 -16 c-5 -5 -24 -13 -42 -16 -27 -6 -31 -4 -26 10 4 11 18 16 42 16 24 0
33 -3 26 -10z m158 -47 c1 -27 3 -61 5 -78 7 -72 4 -388 -4 -396 -11 -11 -250
-15 -261 -5 -4 4 -8 104 -9 222 -2 194 0 216 15 221 9 4 22 13 27 20 11 15
134 55 146 48 4 -3 18 -1 31 4 42 17 48 13 50 -36z m-160 -524 c155 0 157 -1
173 -25 l16 -25 25 20 c31 25 54 29 209 35 74 4 114 2 105 -3 -19 -12 -282
-81 -330 -87 -158 -20 -381 -65 -468 -94 -52 -18 -95 -30 -97 -28 -2 2 22 213
25 213 0 0 42 -1 93 -2 50 -2 163 -3 249 -4z"/>
</g>
</svg>
