<?xml version="1.0" standalone="no"?>
<!DOCTYPE svg PUBLIC "-//W3C//DTD SVG 20010904//EN"
 "http://www.w3.org/TR/2001/REC-SVG-20010904/DTD/svg10.dtd">
<svg version="1.0" xmlns="http://www.w3.org/2000/svg"
 width="134.000000pt" height="155.000000pt" viewBox="0 0 134.000000 155.000000"
 preserveAspectRatio="xMidYMid meet">
<metadata>
Created by potrace 1.16, written by Peter Selinger 2001-2019
</metadata>
<g transform="translate(0.000000,155.000000) scale(0.100000,-0.100000)"
fill="#000000" stroke="none">
<path d="M539 1469 c-9 -5 -72 -63 -139 -129 -114 -112 -122 -123 -106 -138
12 -13 19 -13 28 -4 21 21 61 13 123 -23 33 -19 87 -48 120 -64 37 -17 90 -57
140 -104 44 -42 83 -77 88 -77 13 0 7 -27 -8 -40 -33 -28 -58 -101 -52 -157 7
-70 -5 -84 -140 -162 -59 -35 -131 -78 -159 -96 -71 -46 -182 -101 -231 -114
-62 -17 -64 -45 -10 -113 13 -16 118 -58 147 -58 8 0 21 -9 28 -21 18 -29 54
-21 71 16 8 17 39 63 70 104 95 125 171 232 186 262 29 54 55 63 200 66 149 3
188 14 227 65 45 61 60 114 48 172 -18 87 -61 138 -125 147 -35 5 -109 -12
-149 -35 l-38 -21 -34 39 c-18 21 -48 66 -66 100 -17 33 -46 88 -64 121 -18
33 -41 78 -52 100 -11 22 -31 58 -46 79 -14 21 -26 49 -26 62 0 28 -10 35 -31
23z m7 -92 c72 -140 124 -251 120 -254 -3 -3 -16 3 -29 13 -13 11 -72 41 -131
69 -60 28 -105 55 -104 62 4 17 111 132 123 133 6 0 15 -10 21 -23z m510 -432
c54 -37 70 -135 35 -208 -25 -51 -55 -67 -129 -67 -107 0 -166 41 -165 114 1
58 14 79 70 117 76 53 152 71 189 44z m-448 -450 c-18 -25 -53 -74 -78 -109
-25 -35 -65 -85 -89 -111 -40 -43 -46 -46 -78 -40 -42 8 -138 49 -146 62 -4 6
26 27 66 48 39 21 103 56 141 79 100 60 200 115 209 116 4 0 -7 -20 -25 -45z"/>
</g>
</svg>
