<?xml version="1.0" standalone="no"?>
<!DOCTYPE svg PUBLIC "-//W3C//DTD SVG 20010904//EN"
 "http://www.w3.org/TR/2001/REC-SVG-20010904/DTD/svg10.dtd">
<svg version="1.0" xmlns="http://www.w3.org/2000/svg"
 width="231.000000pt" height="134.000000pt" viewBox="0 0 231.000000 134.000000"
 preserveAspectRatio="xMidYMid meet">
<metadata>
Created by potrace 1.16, written by Peter Selinger 2001-2019
</metadata>
<g transform="translate(0.000000,134.000000) scale(0.100000,-0.100000)"
fill="#000000" stroke="none">
<path d="M1920 1195 c-58 -31 -71 -34 -121 -29 -30 3 -129 -2 -220 -11 -128
-14 -213 -16 -389 -11 -124 3 -234 6 -245 6 -53 1 -293 43 -322 57 -46 22 -60
6 -62 -69 -1 -21 -15 -35 -81 -77 -43 -28 -90 -55 -104 -61 -47 -17 -106 -60
-106 -76 0 -9 5 -14 12 -12 7 3 23 -8 36 -24 14 -16 37 -35 52 -43 15 -8 64
-50 109 -94 l82 -80 -83 -70 c-232 -196 -242 -203 -301 -216 -22 -4 -28 -11
-25 -27 2 -15 18 -27 55 -41 44 -16 53 -24 53 -44 0 -22 3 -24 30 -18 l30 7 0
-69 c0 -40 -5 -74 -12 -81 -9 -9 -9 -15 0 -24 8 -8 29 -2 84 25 72 36 84 39
253 52 33 2 92 11 130 19 136 28 261 46 355 51 120 6 342 16 441 20 42 1 82 6
88 9 6 4 30 -4 54 -18 61 -36 75 -34 75 11 1 53 23 108 74 189 24 38 63 101
86 141 23 40 67 95 96 124 l54 52 -38 28 c-22 16 -44 37 -49 47 -6 11 -10 87
-9 178 1 127 5 163 17 177 13 16 13 19 1 27 -22 14 -29 12 -100 -25z m43 -122
c13 -187 8 -221 -25 -174 -8 10 -30 29 -50 41 -21 12 -40 30 -43 40 -3 11 -15
22 -25 25 -10 3 -34 20 -51 36 -27 25 -30 32 -18 40 8 5 19 9 25 9 6 0 46 18
90 39 43 22 82 40 85 40 3 1 9 -43 12 -96z m-1223 66 c30 -5 119 -13 198 -18
78 -5 145 -10 147 -13 8 -7 -180 -37 -300 -48 -60 -6 -120 -12 -131 -15 -19
-4 -22 1 -28 42 -10 76 -10 76 27 69 17 -4 57 -12 87 -17z m995 -16 c-79 -6
-81 -8 -49 -50 l28 -36 -24 -16 c-13 -9 -39 -31 -58 -48 -19 -18 -41 -33 -49
-33 -7 0 -16 -6 -19 -13 -2 -7 -33 -30 -69 -52 -39 -24 -64 -47 -65 -57 0 -10
6 -18 13 -18 8 0 22 -9 32 -20 10 -11 24 -20 30 -20 7 0 29 -13 50 -30 39 -31
73 -46 83 -36 3 4 -4 13 -15 21 -12 8 -31 30 -43 49 -20 34 -20 36 -4 93 16
60 54 104 118 139 38 21 65 12 119 -38 25 -24 69 -63 97 -88 28 -25 60 -61 70
-82 15 -28 24 -35 40 -31 47 12 28 -7 -229 -242 -42 -38 -107 -97 -144 -130
-64 -57 -81 -84 -54 -86 6 -1 -6 -4 -28 -8 -76 -12 -728 -6 -752 7 -16 9 -74
10 -207 7 -156 -5 -190 -4 -215 10 -17 8 -31 18 -31 21 0 3 17 28 38 57 22 29
46 66 55 82 8 17 52 74 97 128 44 53 78 97 74 97 -4 0 -1 6 5 13 8 11 4 28
-19 74 -16 33 -34 82 -39 109 -5 27 -13 57 -16 66 -6 15 -2 16 29 11 25 -4 42
-1 54 10 9 8 46 18 82 22 36 4 99 14 140 21 158 28 271 45 440 65 96 11 195
23 220 27 25 4 95 8 155 8 61 1 88 -1 60 -3z m-1162 -108 c-7 -21 -13 -19 -13
6 0 11 4 18 10 14 5 -3 7 -12 3 -20z m-64 -32 c-2 -66 21 -174 37 -180 8 -3
11 -9 8 -14 -3 -6 7 -26 21 -45 21 -28 23 -34 9 -26 -11 6 -34 31 -53 56 -19
25 -38 46 -42 46 -4 0 -42 29 -84 65 -54 46 -70 65 -56 65 11 0 22 4 25 9 3 5
17 12 31 15 13 3 41 17 61 31 20 14 38 25 40 25 2 0 3 -21 3 -47z m1030 -143
c-10 -32 -15 -38 -21 -26 -5 9 -17 16 -26 16 -13 1 -8 9 16 31 19 17 36 28 39
26 2 -3 -1 -24 -8 -47z m346 -300 c-9 -17 -33 -57 -53 -88 -20 -32 -46 -82
-57 -111 -17 -44 -23 -51 -40 -46 -11 4 -31 9 -45 12 -14 3 -33 11 -43 18 -16
11 -12 17 45 66 34 30 94 82 132 117 38 34 71 62 73 62 2 0 -4 -14 -12 -30z
m-1485 -87 c-57 -91 -99 -122 -136 -103 l-24 13 27 25 c15 14 57 48 93 76 36
28 67 54 68 58 2 5 8 8 13 8 5 0 -14 -35 -41 -77z m450 -198 c19 -4 55 -2 79
3 24 6 39 7 35 2 -11 -9 -323 -60 -374 -60 -38 -1 -127 -21 -174 -39 -16 -6
-32 -9 -35 -5 -3 3 -6 31 -6 62 l0 57 220 -7 c121 -3 236 -9 255 -13z"/>
<path d="M1240 1018 c-40 -29 -96 -70 -124 -90 -28 -20 -57 -37 -64 -38 -18 0
-92 -48 -92 -59 0 -5 21 -20 48 -32 26 -13 54 -32 64 -44 22 -27 125 -81 135
-71 4 4 -14 28 -42 53 -42 39 -49 50 -46 77 8 81 50 135 148 194 34 20 63 43
63 50 0 20 -14 14 -90 -40z m-140 -164 c-5 -19 -10 -38 -13 -41 -3 -2 -22 5
-44 15 -33 18 -35 21 -18 27 11 4 34 13 50 20 17 8 31 14 31 14 1 1 -2 -15 -6
-35z"/>
<path d="M1475 1005 c-48 -36 -91 -65 -97 -65 -5 0 -33 -20 -61 -44 -29 -24
-62 -49 -74 -55 -27 -14 -30 -47 -5 -55 24 -8 155 -100 159 -112 5 -14 -140
-126 -180 -140 -43 -14 -46 -39 -8 -59 17 -8 36 -25 42 -37 18 -33 63 -68 74
-57 5 6 5 13 -3 21 -7 7 -12 18 -12 24 0 7 -14 28 -30 46 -17 18 -29 37 -27
42 2 5 17 20 34 33 l31 24 -10 -46 c-5 -26 -8 -49 -5 -52 12 -11 26 9 32 47 4
22 11 42 16 46 5 3 9 12 9 21 0 9 18 31 40 50 22 19 40 38 40 42 0 3 -22 30
-49 58 l-50 52 16 55 c12 43 24 62 52 82 20 15 41 32 46 38 18 21 112 86 124
86 6 0 11 5 11 10 0 22 -32 7 -115 -55z m-152 -167 c-8 -42 -8 -43 -33 -25
l-21 15 27 21 c15 11 28 21 30 21 2 0 1 -15 -3 -32z"/>
<path d="M950 984 c-14 -7 -52 -36 -84 -64 -32 -28 -80 -62 -107 -75 -27 -14
-49 -29 -49 -33 1 -17 17 -30 45 -36 17 -4 54 -20 83 -37 43 -24 51 -33 42
-44 -16 -19 -268 -209 -298 -224 -32 -17 -24 -30 32 -52 27 -10 58 -27 70 -37
31 -28 114 -63 122 -51 3 6 4 11 3 13 -2 1 -19 13 -36 25 -24 16 -33 30 -33
49 1 30 21 111 33 129 13 21 -10 23 -28 3 -10 -11 -20 -42 -23 -70 -2 -28 -7
-49 -11 -47 -3 2 -23 11 -44 20 l-39 18 44 34 c24 19 89 70 144 114 96 76 103
80 139 74 51 -8 44 12 -15 43 -25 13 -51 32 -57 41 -21 27 -16 96 7 116 11 9
20 23 20 30 0 7 18 23 40 36 22 12 40 26 40 32 0 12 -9 10 -40 -7z m-112 -179
c-2 -2 -16 -1 -32 2 l-30 6 30 23 29 24 3 -26 c2 -14 2 -27 0 -29z"/>
<path d="M1738 714 c-4 -3 -17 -7 -30 -8 -28 -3 -291 -204 -283 -216 8 -13
152 -88 172 -90 48 -5 60 13 20 31 -19 8 -22 17 -20 47 11 118 11 118 73 171
33 27 65 51 72 54 7 2 10 7 7 11 -3 3 -8 3 -11 0z m-170 -214 l-3 -30 -30 25
-30 25 25 19 c21 17 26 18 33 5 5 -8 7 -28 5 -44z"/>
<path d="M1165 629 c-33 -22 -76 -49 -96 -59 -19 -10 -54 -34 -77 -53 -23 -20
-47 -37 -54 -40 -7 -2 -11 -7 -8 -10 3 -3 26 7 52 23 l46 29 -9 -31 c-5 -17
-6 -42 -3 -55 8 -29 5 -29 -57 2 -39 21 -53 23 -70 15 -11 -6 -19 -16 -17 -22
4 -12 163 -68 192 -68 20 1 20 1 -3 20 -20 17 -22 26 -17 58 15 84 30 120 55
132 31 14 98 58 125 83 35 31 3 18 -59 -24z"/>
</g>
</svg>
