<?xml version="1.0" standalone="no"?>
<!DOCTYPE svg PUBLIC "-//W3C//DTD SVG 20010904//EN"
 "http://www.w3.org/TR/2001/REC-SVG-20010904/DTD/svg10.dtd">
<svg version="1.0" xmlns="http://www.w3.org/2000/svg"
 width="108.000000pt" height="128.000000pt" viewBox="0 0 108.000000 128.000000"
 preserveAspectRatio="xMidYMid meet">
<metadata>
Created by potrace 1.16, written by Peter Selinger 2001-2019
</metadata>
<g transform="translate(0.000000,128.000000) scale(0.100000,-0.100000)"
fill="#000000" stroke="none">
<path d="M852 1100 c-18 -11 -60 -31 -95 -46 -34 -14 -91 -43 -127 -65 -36
-21 -104 -50 -150 -64 -148 -45 -322 -116 -316 -130 2 -7 0 -17 -6 -23 -23
-23 15 -20 113 9 56 16 114 36 128 43 67 34 68 33 56 -41 l-11 -68 -116 3
c-64 1 -119 -2 -122 -7 -12 -19 25 -32 119 -40 53 -6 99 -12 102 -15 6 -6 -23
-135 -32 -144 -6 -6 -69 37 -114 77 -60 54 -125 34 -85 -27 37 -57 222 -222
281 -250 18 -9 33 -19 33 -24 0 -4 18 -19 40 -33 23 -14 48 -33 58 -43 36 -36
87 -66 109 -64 39 3 73 41 73 82 0 19 7 60 15 90 15 51 23 107 74 480 21 156
31 287 24 308 -6 16 -12 15 -51 -8z m-19 -170 c-3 -56 -22 -215 -29 -237 -6
-23 -154 -8 -154 15 0 29 22 182 30 205 6 19 6 27 -3 27 -7 0 8 11 33 24 25
13 61 33 80 44 l35 22 6 -23 c3 -12 4 -47 2 -77z m-184 -22 c-6 -18 -16 -71
-23 -118 l-12 -85 -67 -3 -67 -3 0 45 c0 25 5 48 10 51 6 3 10 19 10 35 0 29
38 70 65 70 7 0 18 6 25 14 6 8 21 17 33 19 12 2 25 5 29 6 4 0 2 -14 -3 -31z
m-309 -63 c-28 -16 -60 -20 -44 -6 8 9 36 18 59 19 6 1 -1 -5 -15 -13z m-60
-19 c0 -2 -9 -6 -20 -9 -11 -3 -18 -1 -14 4 5 9 34 13 34 5z m326 -188 c-3
-13 -13 -70 -22 -128 -23 -153 -20 -149 -81 -100 -69 55 -81 90 -58 173 9 34
19 65 22 70 2 4 36 7 75 7 68 0 70 -1 64 -22z m183 -4 c18 -18 -53 -384 -74
-384 -17 0 -78 48 -92 73 -7 12 -12 45 -12 72 -1 57 24 228 35 246 5 8 27 9
73 5 36 -4 67 -9 70 -12z"/>
</g>
</svg>
