<?xml version="1.0" standalone="no"?>
<!DOCTYPE svg PUBLIC "-//W3C//DTD SVG 20010904//EN"
 "http://www.w3.org/TR/2001/REC-SVG-20010904/DTD/svg10.dtd">
<svg version="1.0" xmlns="http://www.w3.org/2000/svg"
 width="283.000000pt" height="159.000000pt" viewBox="0 0 283.000000 159.000000"
 preserveAspectRatio="xMidYMid meet">
<metadata>
Created by potrace 1.16, written by Peter Selinger 2001-2019
</metadata>
<g transform="translate(0.000000,159.000000) scale(0.100000,-0.100000)"
fill="#000000" stroke="none">
<path d="M2083 1544 c-6 -3 -30 -30 -53 -59 -23 -30 -46 -52 -52 -49 -5 3 -24
-1 -41 -10 -26 -12 -42 -13 -77 -5 -57 13 -72 -4 -65 -71 9 -85 15 -277 10
-291 -4 -11 -39 -14 -183 -12 -97 1 -233 -2 -302 -8 -69 -5 -167 -12 -217 -16
-180 -12 -80 -31 122 -24 44 2 77 0 74 -3 -3 -4 -69 -16 -145 -27 -76 -11
-147 -22 -158 -25 -16 -5 -17 -2 -11 37 12 74 64 293 80 339 9 24 22 52 31 61
23 26 1 32 -49 15 -49 -16 -118 -7 -149 21 -16 14 -19 13 -42 -13 -21 -25 -23
-31 -11 -40 10 -7 15 -30 15 -67 0 -54 -1 -55 -37 -70 -21 -8 -71 -36 -112
-61 -41 -25 -108 -60 -150 -77 -42 -17 -110 -48 -151 -69 -41 -21 -101 -48
-132 -60 -63 -24 -75 -43 -54 -84 13 -25 12 -31 -11 -72 -13 -24 -29 -46 -34
-49 -5 -4 -9 -19 -9 -34 0 -27 30 -51 62 -51 32 0 487 -230 554 -280 l51 -38
5 -117 c5 -118 14 -143 43 -131 13 5 16 22 15 103 -2 143 11 327 24 335 6 4
27 8 46 8 19 0 67 7 105 14 39 8 115 17 170 20 92 6 177 16 265 31 19 4 60 2
91 -3 39 -6 69 -5 98 4 23 6 51 10 62 7 21 -6 52 24 42 40 -3 5 -40 6 -82 2
-42 -4 -220 -8 -396 -10 -176 -2 -337 -5 -358 -7 l-38 -4 6 41 c3 22 7 56 10
75 2 19 9 59 15 89 5 29 10 55 10 57 0 7 81 24 185 38 61 9 151 22 200 30 50
8 109 14 131 14 23 -1 46 2 53 6 6 4 66 8 133 9 l121 2 7 -25 c14 -50 21 -218
20 -476 0 -263 0 -264 21 -264 19 0 21 4 16 30 -9 43 13 39 54 -10 41 -48 74
-53 82 -12 7 35 102 139 267 290 155 143 294 254 358 286 27 14 36 15 48 5 12
-10 18 -9 30 3 14 14 11 19 -24 49 -22 19 -42 43 -46 54 -3 12 -18 28 -34 37
-26 16 -88 78 -205 209 -76 85 -223 283 -245 331 -16 35 -31 43 -59 32z m27
-64 c0 -6 57 -82 95 -127 5 -6 21 -29 35 -49 14 -21 61 -76 105 -123 44 -47
66 -74 50 -60 -17 14 -77 59 -135 99 -110 77 -140 100 -203 157 l-38 34 32 44
c19 26 37 41 45 38 8 -3 14 -9 14 -13z m-90 -118 c14 -8 45 -32 70 -52 25 -20
68 -52 95 -70 28 -18 57 -39 65 -46 8 -8 42 -35 75 -61 33 -26 65 -52 70 -58
6 -7 40 -33 76 -59 37 -25 86 -67 109 -93 40 -45 41 -48 24 -61 -11 -7 -50
-34 -89 -59 -38 -26 -79 -55 -90 -66 -11 -10 -32 -25 -48 -33 -15 -8 -62 -41
-105 -73 -42 -32 -94 -64 -114 -71 -20 -8 -34 -18 -31 -22 15 -25 -230 -150
-258 -132 -11 7 1 458 16 631 14 144 34 264 57 326 12 30 29 30 78 -1z m-110
10 c0 -5 -11 -44 -24 -88 -13 -43 -27 -116 -31 -162 -4 -46 -8 -82 -10 -80 -1
2 -6 76 -10 165 l-7 162 34 4 c18 2 36 5 41 5 4 1 7 -2 7 -6z m-877 -42 c-3
-14 -11 -43 -19 -65 -21 -66 -64 -255 -64 -281 0 -33 -15 -61 -40 -74 -20 -10
-20 -8 -15 140 l6 151 39 36 c22 19 40 40 40 45 0 9 -9 8 -61 -8 -12 -4 -18 3
-22 32 -4 20 -5 40 -3 43 3 3 36 6 75 6 70 0 70 0 64 -25z m-203 -151 c-19
-17 -75 -61 -125 -99 -49 -37 -104 -83 -121 -102 -17 -18 -45 -44 -63 -58 -18
-14 -56 -46 -84 -71 l-51 -47 -48 42 c-26 22 -47 49 -48 59 0 17 80 59 360
190 25 11 71 38 102 59 51 34 93 56 108 57 3 0 -11 -13 -30 -30z m24 -351 c-5
-288 -8 -335 -22 -345 -29 -24 -63 -14 -112 30 -26 23 -73 62 -105 87 -31 25
-71 59 -89 75 -17 17 -48 43 -69 58 -20 16 -37 34 -37 41 0 7 28 37 62 67 35
30 97 86 138 125 59 57 226 193 237 194 1 0 0 -150 -3 -332z m66 6 c-6 -27
-13 -80 -16 -119 -10 -113 -20 -95 -18 31 2 99 5 118 21 129 10 7 19 12 20 11
2 -2 -2 -25 -7 -52z m-603 -64 c22 0 24 -2 13 -15 -20 -24 3 -44 30 -27 11 6
22 12 24 12 5 0 109 -85 196 -160 25 -21 56 -48 70 -60 l25 -22 -35 20 c-19
11 -105 54 -190 97 -85 42 -170 84 -187 93 -18 9 -33 18 -33 20 0 14 38 51 48
47 8 -3 25 -5 39 -5z m913 -150 c0 -6 -239 -40 -277 -40 -22 0 -40 16 -30 27
3 3 59 7 124 10 65 3 120 7 122 9 6 5 61 0 61 -6z m955 -102 c-22 -18 -83 -75
-135 -126 l-95 -93 -27 32 c-16 19 -28 37 -28 41 0 4 24 15 54 23 30 9 65 24
78 34 13 10 34 22 48 26 14 4 27 11 30 15 8 11 101 80 108 80 4 0 -11 -15 -33
-32z"/>
</g>
</svg>
