<?xml version="1.0" standalone="no"?>
<!DOCTYPE svg PUBLIC "-//W3C//DTD SVG 20010904//EN"
 "http://www.w3.org/TR/2001/REC-SVG-20010904/DTD/svg10.dtd">
<svg version="1.0" xmlns="http://www.w3.org/2000/svg"
 width="231.000000pt" height="141.000000pt" viewBox="0 0 231.000000 141.000000"
 preserveAspectRatio="xMidYMid meet">
<metadata>
Created by potrace 1.16, written by Peter Selinger 2001-2019
</metadata>
<g transform="translate(0.000000,141.000000) scale(0.100000,-0.100000)"
fill="#000000" stroke="none">
<path d="M857 1160 c-23 -21 -74 -70 -114 -108 -74 -71 -278 -202 -314 -202
-10 0 -19 -4 -19 -9 0 -5 -24 -19 -54 -31 -30 -12 -57 -28 -60 -37 -9 -21 22
-80 61 -118 18 -17 33 -36 33 -41 0 -12 -78 -78 -102 -87 -10 -3 -18 -16 -18
-28 0 -19 4 -21 31 -15 37 7 159 -19 214 -46 51 -26 173 -116 217 -161 32 -34
120 -87 142 -87 6 0 22 18 36 39 35 54 146 152 227 200 37 22 93 58 123 80 30
22 82 54 115 72 33 17 71 40 84 50 13 11 37 19 53 19 l29 0 -7 -114 c-7 -121
-2 -166 20 -166 17 0 26 31 26 95 1 78 15 134 41 161 13 13 53 42 89 63 63 36
74 39 231 56 173 19 209 27 209 46 0 13 -148 6 -256 -11 -47 -8 -75 -6 -149
11 -116 26 -138 47 -121 111 15 56 71 143 124 190 23 21 42 41 42 46 0 4 -35
7 -77 7 -43 0 -103 2 -133 5 l-55 5 1 -30 c1 -16 10 -50 20 -75 18 -45 23
-197 8 -262 l-5 -28 -47 24 c-26 13 -58 27 -72 31 -14 4 -55 27 -92 51 -177
115 -207 133 -263 163 -73 38 -125 85 -125 112 0 29 -18 59 -36 59 -8 0 -33
-18 -57 -40z m79 -81 l29 -31 -30 7 c-70 16 -68 15 -49 36 9 10 18 19 19 19 1
0 14 -14 31 -31z m771 17 c1 -1 -20 -26 -47 -56 -34 -38 -50 -50 -54 -40 -13
42 -25 77 -31 93 -7 18 -3 18 61 12 38 -4 70 -8 71 -9z m-895 -48 c-23 -23
-12 -30 36 -23 65 9 163 -10 238 -45 104 -50 139 -90 78 -90 -17 0 -24 6 -24
18 0 29 -7 30 -65 14 -50 -14 -57 -14 -72 0 -14 13 -31 15 -83 9 -36 -3 -85
-3 -110 1 -25 3 -65 7 -90 7 l-45 1 45 38 c24 20 53 47 64 60 11 12 24 22 30
22 6 0 5 -5 -2 -12z m-144 -130 c6 -6 40 -12 76 -12 88 -1 99 -14 55 -65 -19
-21 -38 -38 -44 -37 -5 1 -11 22 -13 45 -3 39 -5 42 -29 39 -29 -3 -45 -28
-18 -28 13 0 15 -11 13 -67 -3 -68 -3 -68 -34 -71 -46 -5 -84 14 -95 47 -23
64 -60 41 -66 -42 -2 -29 -6 -62 -9 -74 l-4 -22 -26 24 -26 24 42 78 c24 43
51 84 62 91 10 7 16 17 13 22 -3 5 14 20 37 34 49 30 50 30 66 14z m265 -35
c-3 -10 -15 -30 -25 -45 -10 -14 -18 -30 -18 -36 0 -5 -7 -15 -16 -22 -13 -12
-15 -8 -13 26 2 22 0 45 -4 51 -8 12 9 29 38 36 38 9 45 7 38 -10z m111 -19
c6 -17 -30 -95 -62 -134 l-21 -25 5 40 c3 22 10 52 15 66 6 14 9 30 8 35 -4
24 3 34 25 34 13 0 27 -7 30 -16z m220 10 c9 -3 13 -10 10 -15 -7 -11 -64 -12
-64 -1 0 21 24 28 54 16z m-104 -19 c0 -2 -16 -35 -36 -72 -19 -37 -33 -61
-31 -52 3 9 11 42 18 73 10 42 18 56 31 56 10 0 18 -2 18 -5z m-716 -94 c-20
-33 -40 -61 -44 -61 -10 0 -40 46 -40 62 0 11 109 69 118 63 1 -1 -14 -30 -34
-64z m487 4 c-9 -35 -19 -65 -23 -65 -43 -1 -45 -11 20 106 7 13 14 24 16 24
1 0 -5 -29 -13 -65z m132 -4 c-15 -52 -21 -61 -41 -61 l-23 0 19 28 c11 15 27
44 37 65 25 54 29 39 8 -32z m202 12 c-46 -80 -51 -81 -51 -13 l1 60 38 0 39
0 -27 -47z m153 12 c34 -15 62 -33 62 -39 0 -7 12 -16 26 -22 25 -8 18 -14
-127 -102 -85 -51 -164 -100 -176 -108 -27 -20 -28 -16 -12 72 12 68 27 84 83
84 54 0 88 10 83 24 -2 6 -23 11 -45 11 -23 0 -42 1 -42 3 0 6 43 88 53 100 6
7 15 11 21 8 6 -2 39 -16 74 -31z m-604 -25 c-7 -43 -22 -57 -49 -46 -13 5
-14 10 -4 28 12 23 52 67 57 63 1 -1 0 -21 -4 -45z m376 24 c-6 -14 -10 -36
-10 -49 0 -21 -33 -45 -46 -32 -9 8 39 107 52 107 10 0 11 -6 4 -26z m486 -25
c24 -6 44 -14 44 -18 0 -5 -82 -56 -112 -69 -5 -2 -8 19 -8 47 0 57 2 58 76
40z m-1079 -91 c-42 -23 -47 -22 -47 5 0 33 5 35 45 23 l35 -11 -33 -17z m190
4 c18 -11 21 -209 4 -241 -9 -16 -10 -26 -2 -34 31 -31 61 62 61 188 l0 75 31
0 31 0 -4 -89 c-2 -74 -7 -95 -25 -120 -26 -35 -30 -61 -8 -61 8 0 29 28 46
62 29 58 35 87 39 201 0 4 16 7 36 7 33 0 36 -2 30 -22 -29 -101 -37 -147 -34
-189 l3 -49 -50 -19 c-94 -34 -148 -46 -153 -33 -5 17 -32 15 -32 -3 0 -29
-36 -14 -103 45 -37 32 -73 63 -81 67 -18 11 -66 82 -66 99 0 8 6 14 14 14 8
0 16 7 19 15 14 36 147 93 147 62 0 -6 -4 -40 -9 -74 -10 -70 -2 -117 21 -121
12 -2 16 15 21 97 4 55 10 106 13 115 7 17 31 21 51 8z m368 -39 c-4 -21 -10
-62 -14 -91 -8 -56 -22 -74 -82 -110 l-35 -21 7 70 c15 137 43 186 108 188 22
1 23 -2 16 -36z m-706 -100 c16 -26 19 -34 8 -30 -9 3 -32 9 -51 13 -42 7 -45
16 -13 37 30 21 29 22 56 -20z m471 -228 c-24 -25 -49 -45 -56 -45 -12 0 -50
38 -43 44 6 5 122 44 134 45 5 1 -11 -19 -35 -44z"/>
</g>
</svg>
