<?xml version="1.0" standalone="no"?>
<!DOCTYPE svg PUBLIC "-//W3C//DTD SVG 20010904//EN"
 "http://www.w3.org/TR/2001/REC-SVG-20010904/DTD/svg10.dtd">
<svg version="1.0" xmlns="http://www.w3.org/2000/svg"
 width="283.000000pt" height="169.000000pt" viewBox="0 0 283.000000 169.000000"
 preserveAspectRatio="xMidYMid meet">
<metadata>
Created by potrace 1.16, written by Peter Selinger 2001-2019
</metadata>
<g transform="translate(0.000000,169.000000) scale(0.100000,-0.100000)"
fill="#000000" stroke="none">
<path d="M1361 1460 c-22 -17 -50 -47 -61 -69 -11 -22 -24 -43 -30 -46 -22
-13 -86 -15 -133 -4 -40 9 -51 9 -72 -5 -13 -9 -35 -16 -49 -16 -94 0 -358
-97 -540 -198 -91 -50 -137 -84 -196 -142 -84 -83 -109 -125 -114 -197 -6 -70
34 -131 149 -229 117 -100 293 -224 317 -224 7 0 56 -20 108 -45 52 -25 101
-45 109 -45 8 0 54 -18 103 -41 72 -33 92 -38 103 -29 8 7 15 19 15 26 0 11
29 14 148 15 81 0 167 2 192 4 62 4 554 15 795 16 206 2 238 5 213 20 -13 8
32 14 75 10 9 -1 17 4 17 13 0 9 -3 16 -7 16 -5 0 -71 -5 -148 -10 -397 -27
-776 -31 -905 -11 -47 8 -147 14 -224 15 -118 1 -140 3 -149 18 -8 12 -8 23 0
40 7 13 14 73 18 133 6 126 7 128 93 146 54 11 57 10 75 -12 54 -69 98 -106
97 -81 -1 4 -18 27 -40 52 -22 24 -38 45 -36 47 1 2 17 4 35 6 27 3 39 -3 69
-33 43 -43 102 -85 102 -73 0 4 -20 24 -44 43 -24 19 -49 43 -55 53 -10 15 -7
17 23 17 29 0 44 -11 104 -72 84 -86 105 -88 27 -2 -30 32 -55 62 -55 65 0 4
11 9 24 11 19 4 38 -10 97 -68 63 -62 105 -94 124 -94 6 0 -120 120 -154 148
l-25 19 38 5 c40 5 54 -3 128 -71 46 -42 78 -64 83 -59 3 2 -27 32 -65 67 -39
34 -70 66 -70 71 0 20 78 -26 153 -91 44 -38 85 -69 91 -69 6 0 -2 12 -19 27
-56 48 -145 132 -145 137 0 6 59 13 62 7 6 -12 113 -101 122 -101 5 0 -12 19
-37 43 -26 24 -47 46 -47 50 0 4 18 7 39 7 32 0 44 -6 66 -32 30 -36 55 -54
55 -40 0 5 -11 22 -25 38 -13 15 -23 29 -21 31 12 12 496 18 507 6 12 -14 27
-97 28 -157 1 -32 3 -62 5 -65 4 -6 19 -159 18 -176 -11 -115 -13 -179 -8
-200 8 -31 36 -34 35 -2 0 50 11 285 16 332 7 59 16 89 65 215 21 52 41 106
45 120 13 44 38 94 58 117 11 13 18 26 14 29 -8 9 -261 9 -274 1 -7 -4 -10
-23 -7 -45 3 -20 6 -59 7 -87 l2 -50 -277 -1 -276 -2 -34 41 c-54 68 -85 112
-106 154 -12 22 -39 63 -61 91 -23 28 -53 73 -67 99 -15 25 -45 72 -68 104
-22 32 -63 92 -91 135 -27 42 -54 83 -60 90 -7 9 -6 20 2 33 10 16 8 20 -12
29 -20 9 -30 6 -64 -18z m69 -82 c13 -18 53 -75 88 -128 36 -52 75 -108 88
-123 13 -16 24 -33 24 -38 0 -5 23 -40 50 -79 28 -39 50 -74 50 -79 0 -6 8
-16 18 -23 9 -7 18 -20 19 -28 2 -8 -79 65 -178 163 -100 98 -206 196 -237
219 -45 33 -52 43 -41 52 8 6 29 30 47 54 19 23 37 42 41 42 4 0 18 -14 31
-32z m-413 -92 c-3 -8 0 -19 7 -25 8 -7 13 -41 14 -93 3 -188 11 -301 20 -310
7 -7 7 -19 2 -33 -5 -13 -7 -25 -5 -27 2 -2 6 -46 8 -98 4 -71 0 -119 -15
-190 -15 -72 -18 -115 -13 -177 4 -54 2 -84 -5 -88 -6 -4 -28 2 -48 12 -66 34
-96 49 -165 84 l-68 34 -4 90 c-15 270 -15 315 0 315 10 0 15 11 15 34 0 40
94 237 134 279 14 15 26 37 26 48 0 18 -8 19 -105 19 -96 0 -155 -12 -155 -31
0 -4 6 -14 13 -21 15 -15 32 -81 29 -113 -10 -118 -10 -370 1 -467 7 -65 10
-118 6 -118 -25 0 -217 200 -264 275 -19 31 -47 131 -48 175 -1 68 28 143 77
198 20 22 36 43 36 48 0 5 10 14 23 20 12 6 55 28 94 48 40 20 79 36 88 36 8
0 15 4 15 8 0 5 19 14 43 20 23 6 62 17 86 24 35 10 45 10 48 1 7 -19 24 -15
58 12 33 28 60 33 52 11z m151 1 c23 1 42 -2 42 -8 0 -6 -11 -29 -25 -52 -16
-29 -26 -63 -29 -107 -5 -72 -13 -100 -28 -100 -7 0 -6 -5 1 -14 9 -10 8 -29
-3 -76 -8 -35 -13 -67 -10 -71 2 -4 0 -10 -6 -14 -5 -3 -10 -21 -11 -38 -2
-57 -27 158 -27 229 0 38 -2 113 -5 167 l-6 98 32 -8 c18 -4 51 -7 75 -6z
m197 -97 c17 -15 37 -31 47 -36 9 -5 71 -61 138 -124 67 -63 128 -119 136
-123 8 -4 14 -12 14 -17 0 -12 68 -80 79 -80 5 0 11 -8 15 -17 3 -10 9 -24 12
-31 5 -11 -1 -10 -24 2 -47 24 -92 66 -136 127 -23 31 -68 79 -101 105 -33 27
-64 53 -70 60 -5 6 -26 21 -45 34 -19 13 -39 28 -45 34 -5 6 -40 35 -77 65
-81 65 -92 96 -20 55 26 -15 61 -39 77 -54z m-90 3 c11 -10 72 -59 135 -107
116 -90 210 -178 210 -198 0 -32 190 -174 198 -149 4 12 37 -2 60 -26 11 -11
6 -13 -35 -13 -26 0 -61 7 -77 15 -25 13 -27 13 -22 0 4 -11 -2 -15 -27 -15
-24 1 -44 12 -83 48 -71 66 -173 154 -198 171 -32 22 -198 166 -224 194 -19
20 -22 32 -17 55 l6 30 66 -64 c36 -36 109 -97 162 -136 53 -40 133 -108 177
-152 45 -45 92 -90 105 -101 l23 -20 -15 21 c-46 68 -158 172 -316 293 -112
85 -199 172 -186 184 7 8 31 -5 58 -30z m-435 -100 c0 -6 -100 -206 -106 -212
-2 -2 -3 41 -2 96 0 55 -2 105 -6 111 -5 8 12 11 54 11 33 -1 60 -3 60 -6z
m392 -26 c18 -18 49 -44 68 -57 19 -13 37 -27 40 -30 3 -3 21 -18 40 -34 88
-72 138 -116 204 -179 l71 -68 -50 7 c-44 6 -59 16 -140 89 -49 46 -123 111
-164 146 -41 35 -79 73 -85 84 -6 11 -17 25 -25 31 -12 9 -10 44 3 44 2 0 19
-15 38 -33z m-804 -24 c-118 -121 -103 -317 34 -465 48 -53 88 -103 88 -112 0
-15 -106 73 -208 173 l-112 110 0 58 c0 66 13 92 81 164 44 46 126 108 144
109 5 0 -7 -17 -27 -37z m821 -80 c37 -32 85 -71 107 -88 49 -38 164 -148 164
-157 0 -8 -57 1 -79 12 -25 13 -271 264 -271 277 0 21 8 16 79 -44z m27 -97
c17 -17 59 -57 93 -88 l62 -58 -34 0 c-30 0 -47 12 -136 99 -78 77 -101 106
-101 126 l0 27 43 -38 c23 -20 56 -51 73 -68z m-78 -10 c26 -24 70 -64 99 -88
49 -40 50 -43 28 -46 -14 -2 -39 7 -57 19 -38 27 -88 79 -88 90 0 5 -4 9 -10
9 -23 0 -7 -27 42 -72 49 -45 51 -48 26 -48 -16 0 -39 13 -61 35 -19 19 -40
35 -47 35 -8 0 -10 8 -5 23 4 12 9 37 12 55 3 17 7 32 10 32 2 0 25 -20 51
-44z m1485 -3 c4 -3 3 -11 -2 -17 -11 -15 -52 -126 -46 -126 3 0 -9 -22 -25
-48 -16 -27 -31 -65 -32 -85 -2 -21 -7 -37 -11 -37 -4 0 -7 -6 -6 -12 3 -27
-1 -51 -8 -44 -5 4 -11 40 -15 79 -19 188 -27 261 -32 273 -4 10 11 14 57 17
34 2 74 4 88 5 14 1 29 -1 32 -5z m-1543 -87 c0 -3 -4 -8 -10 -11 -5 -3 -10
-1 -10 4 0 6 5 11 10 11 6 0 10 -2 10 -4z m25 -26 c3 -5 1 -10 -4 -10 -6 0
-11 5 -11 10 0 6 2 10 4 10 3 0 8 -4 11 -10z m22 -62 c26 -24 25 -27 -8 -33
-13 -3 -37 -7 -53 -11 -24 -5 -28 -4 -23 11 4 9 7 28 7 42 0 22 3 24 28 18 15
-3 37 -16 49 -27z m74 10 c14 2 31 -3 38 -11 18 -23 -37 -30 -66 -8 -23 17
-33 38 -11 24 7 -4 25 -6 39 -5z m249 1 c19 0 41 -3 48 -7 8 -5 -32 -11 -99
-15 -83 -5 -116 -3 -127 6 -13 10 -4 13 49 18 35 3 71 3 79 1 8 -3 31 -4 50
-3z m-90 -439 l65 -7 -60 -3 c-142 -7 -355 0 -355 12 0 9 179 16 240 10 25 -3
74 -8 110 -12z"/>
</g>
</svg>
