<?xml version="1.0" standalone="no"?>
<!DOCTYPE svg PUBLIC "-//W3C//DTD SVG 20010904//EN"
 "http://www.w3.org/TR/2001/REC-SVG-20010904/DTD/svg10.dtd">
<svg version="1.0" xmlns="http://www.w3.org/2000/svg"
 width="306.000000pt" height="183.000000pt" viewBox="0 0 306.000000 183.000000"
 preserveAspectRatio="xMidYMid meet">
<metadata>
Created by potrace 1.16, written by Peter Selinger 2001-2019
</metadata>
<g transform="translate(0.000000,183.000000) scale(0.100000,-0.100000)"
fill="#000000" stroke="none">
<path d="M876 1735 c-25 -25 -46 -49 -46 -54 0 -5 -6 -16 -13 -23 -7 -7 -24
-31 -37 -53 -35 -58 -195 -267 -220 -288 -16 -14 -25 -16 -33 -8 -19 19 -33
12 -99 -51 -36 -35 -80 -74 -98 -88 -18 -14 -52 -41 -75 -60 -24 -19 -57 -46
-74 -59 -25 -19 -31 -30 -31 -62 0 -22 4 -39 9 -39 15 0 134 -100 233 -196 53
-52 101 -94 106 -94 5 0 45 -34 88 -76 44 -42 95 -87 114 -102 19 -14 52 -42
72 -61 95 -93 116 -111 156 -135 66 -41 189 -163 212 -212 20 -40 45 -56 63
-38 8 8 -22 74 -49 104 -48 56 -48 66 -3 107 52 47 121 87 179 104 25 7 50 16
56 21 6 4 78 6 160 4 l149 -4 -3 -35 c-2 -19 1 -38 7 -41 6 -4 49 14 97 39 47
25 99 45 115 45 17 0 47 8 69 19 34 16 61 18 245 17 181 -2 205 0 203 13 -4
19 -42 28 -123 30 -57 2 -59 2 -35 16 39 22 92 18 131 -10 19 -14 49 -32 68
-41 19 -8 50 -31 70 -50 34 -32 71 -45 71 -24 0 5 7 7 15 4 8 -3 13 -16 12
-27 -2 -19 3 -22 38 -22 36 0 40 3 40 25 0 14 17 49 37 79 28 41 35 58 26 68
-6 8 -7 13 0 13 13 0 187 114 196 129 4 5 -7 17 -24 26 -17 9 -28 20 -25 24 5
9 -44 56 -80 77 -22 13 -30 98 -14 157 16 61 0 67 -66 24 -53 -36 -55 -36 -55
-15 0 13 11 43 25 67 14 23 25 49 25 56 0 19 109 115 130 115 21 0 45 34 35
50 -3 6 -15 10 -26 10 -10 0 -19 6 -19 14 0 8 -22 48 -49 89 -34 51 -65 84
-99 105 l-49 32 -7 84 c-10 135 -19 142 -96 73 l-49 -44 -163 -1 c-144 -2
-221 4 -308 22 -14 3 -38 8 -55 12 -49 10 -134 54 -145 75 -12 22 -36 25 -43
7 -3 -7 -6 -3 -6 10 -1 12 -7 22 -15 22 -26 0 -46 -42 -46 -94 l0 -49 -167 6
c-93 4 -186 8 -208 10 -55 6 -117 37 -132 67 -7 14 -17 25 -23 24 -5 -1 -17
-2 -25 -2 -22 -3 -51 -68 -69 -155 -18 -85 -21 -143 -7 -151 4 -3 7 -50 5
-105 -3 -81 -1 -102 11 -108 11 -7 13 -16 7 -38 -14 -50 -15 -145 -1 -145 9 0
10 -21 5 -82 -9 -107 -9 -120 3 -127 17 -11 -8 -112 -33 -132 -37 -29 -64
-229 -31 -229 16 0 18 -29 7 -114 l-7 -49 -46 69 c-25 38 -51 85 -59 104 -7
19 -32 64 -55 100 -76 117 -155 273 -191 377 -30 86 -53 136 -108 232 -45 78
-42 97 16 137 24 16 50 38 59 49 9 11 43 40 75 65 31 25 79 64 105 88 41 37
80 61 206 126 40 20 29 55 -34 118 -59 57 -90 78 -116 78 -8 0 -35 -20 -61
-45z m111 -56 c49 -46 51 -50 26 -45 -15 3 -52 8 -80 11 -29 4 -53 11 -53 16
0 11 41 69 48 69 3 0 29 -23 59 -51z m885 -80 c23 -12 58 -27 77 -34 l36 -12
-50 -22 c-28 -12 -67 -35 -87 -51 -20 -17 -39 -30 -42 -30 -3 0 -4 26 -2 58 2
31 4 77 5 102 1 36 4 41 12 27 5 -9 29 -27 51 -38z m-1019 -11 c-10 -18 -43
-63 -75 -100 -31 -37 -62 -75 -70 -86 -7 -10 -20 -22 -28 -27 -8 -4 -4 5 10
21 14 16 32 40 38 54 7 14 30 44 52 67 21 23 42 52 46 65 3 13 12 26 18 30 23
16 26 7 9 -24z m106 16 l31 -6 -43 -32 c-23 -18 -60 -43 -82 -56 l-39 -24 43
62 c24 34 47 62 51 62 4 0 21 -3 39 -6z m326 -56 c11 -6 34 -14 50 -18 28 -6
25 -9 -64 -53 -52 -26 -96 -46 -98 -44 -3 4 14 108 23 139 4 15 8 15 37 1 18
-8 41 -19 52 -25z m1349 -4 c10 -37 0 -41 -30 -14 -23 22 -23 25 -7 31 28 12
30 11 37 -17z m-884 -79 l0 -75 -112 0 c-133 0 -339 17 -351 29 -11 11 117 72
166 78 23 3 49 9 58 14 9 4 55 9 101 10 47 1 92 5 99 10 33 21 39 10 39 -66z
m531 56 l177 -6 -44 -50 -45 -50 -92 2 c-214 4 -387 23 -387 44 0 4 30 24 68
43 55 29 74 34 107 29 22 -3 119 -9 216 -12z m318 -59 c31 -26 76 -63 101 -82
59 -45 74 -64 106 -127 14 -28 33 -54 42 -58 12 -4 -11 -33 -98 -120 -63 -63
-119 -115 -125 -115 -6 0 -8 40 -5 113 5 111 6 114 47 186 53 91 56 105 22
109 -35 4 -200 -25 -212 -37 -18 -18 2 -30 36 -20 65 18 62 26 63 -161 l0
-170 -20 19 c-12 11 -46 32 -76 49 l-55 29 3 77 c3 95 -7 98 -73 21 -26 -31
-49 -54 -52 -52 -8 9 48 127 107 226 33 55 60 104 60 108 0 7 57 50 69 52 2 1
29 -21 60 -47z m-694 -114 c-38 -26 -82 -56 -96 -67 l-26 -21 4 28 c8 54 13
72 21 71 24 -4 42 3 42 16 0 9 -9 15 -22 15 l-23 1 21 18 c21 16 26 17 86 2
l64 -15 -71 -48z m-598 20 l81 -11 -36 -20 c-21 -11 -67 -39 -103 -63 -37 -24
-69 -44 -73 -44 -10 0 -7 120 5 141 7 14 16 18 27 14 9 -4 54 -11 99 -17z
m981 7 c23 0 42 -3 42 -6 0 -16 -136 -129 -150 -124 -14 4 -40 5 -180 5 -63 1
-140 17 -140 30 0 7 65 49 130 84 42 22 52 23 150 17 58 -3 124 -6 148 -6z
m-544 -72 c-4 -32 -8 -69 -9 -83 l-2 -25 -164 0 c-184 1 -339 12 -339 26 0 5
4 9 10 9 5 0 26 11 47 26 20 14 67 39 103 57 66 32 100 37 319 45 l43 2 -8
-57z m895 -13 c-25 -48 -33 -46 -24 4 5 26 12 36 26 36 18 0 18 -2 -2 -40z
m-331 -50 c-22 -44 -45 -80 -50 -80 -5 0 -21 9 -34 19 -25 19 -25 20 -5 31 12
6 42 33 67 60 26 28 50 50 55 50 4 0 -10 -36 -33 -80z m-411 -8 l73 -18 -71
-49 c-38 -28 -80 -58 -91 -67 -12 -10 -25 -18 -29 -18 -15 0 -27 35 -19 56 5
13 21 24 40 28 38 7 36 29 -3 36 -29 5 -26 19 8 38 11 6 20 11 20 11 0 0 33
-8 72 -17z m239 -27 c-21 -16 -15 -45 9 -45 20 0 92 -47 99 -65 2 -7 -2 -16
-10 -19 -29 -11 -269 -17 -343 -9 l-74 8 59 41 c86 61 143 87 199 95 81 10 82
10 61 -6z m-888 -29 c28 -6 50 -9 137 -22 l50 -7 -73 -22 c-39 -13 -99 -39
-132 -58 l-60 -36 0 32 c1 69 38 173 48 132 2 -8 15 -16 30 -19z m-780 12 c10
-10 17 -10 32 0 17 10 20 10 20 -6 0 -9 9 -23 19 -29 28 -17 92 -132 131 -233
68 -177 83 -208 158 -328 80 -127 164 -282 155 -282 -12 0 -75 53 -131 110
-32 33 -61 60 -65 60 -3 0 -24 17 -46 38 -85 78 -148 134 -193 170 -25 20 -91
78 -145 127 -120 110 -186 165 -195 165 -16 0 -7 21 19 43 14 12 39 33 54 47
62 57 158 130 169 130 3 0 12 -6 18 -12z m1258 -78 c-1 -22 -5 -43 -9 -47 -4
-3 0 -14 8 -23 8 -9 12 -25 8 -39 -6 -22 -8 -23 -110 -19 -71 2 -106 7 -112
16 -6 10 -22 11 -58 6 -50 -6 -121 4 -178 26 l-30 12 36 18 c20 11 64 24 97
29 34 5 70 15 81 20 11 6 44 11 74 11 36 0 59 5 67 15 8 10 31 15 70 15 l58 0
-2 -40z m656 10 c-3 -21 -10 -30 -23 -30 -19 0 -19 1 3 30 12 17 22 30 23 30
1 0 0 -13 -3 -30z m-472 -91 c0 -5 -17 -18 -37 -29 -21 -11 -48 -27 -60 -36
-20 -14 -23 -15 -23 -1 0 8 -7 17 -15 21 -16 6 -11 34 10 51 14 12 125 7 125
-6z m323 -2 c5 3 45 7 88 9 66 4 86 1 122 -17 53 -27 107 -68 107 -81 0 -7
-41 -8 -117 -3 -65 4 -225 7 -357 7 -263 -2 -267 -1 -159 54 48 24 74 30 153
34 52 3 108 2 124 -2 16 -4 33 -5 39 -1z m-920 -56 l57 -14 -73 -47 c-40 -26
-83 -49 -95 -52 -20 -6 -22 -3 -18 20 2 15 5 46 5 69 1 23 8 48 16 57 14 14
17 14 33 -2 10 -10 43 -24 75 -31z m352 -31 l60 0 0 -72 c0 -67 -2 -73 -20
-71 -11 2 -72 5 -136 7 -64 3 -159 12 -209 22 l-93 17 24 18 c13 10 53 33 89
52 60 31 71 33 145 30 44 -2 107 -3 140 -3z m292 -27 c16 -6 15 -8 -7 -13 -16
-4 -24 -12 -22 -23 2 -9 -3 -17 -10 -17 -12 -1 -117 -65 -145 -90 -10 -8 -13
3 -13 52 0 58 2 64 28 80 28 17 135 24 169 11z m557 -19 c60 -3 103 0 111 6 9
8 17 4 29 -15 l16 -25 -73 0 c-69 0 -74 -2 -95 -29 -17 -23 -29 -29 -59 -30
-21 0 -161 -2 -310 -3 l-273 -4 28 22 c15 12 40 25 55 28 16 3 26 10 22 15 -8
14 24 27 73 30 23 1 53 6 65 12 20 8 101 7 411 -7z m274 -44 c3 -45 -6 -49
-41 -18 l-24 22 21 18 c32 26 41 22 44 -22z m-217 -138 c-2 -42 -3 -126 -3
-185 l0 -108 -22 16 c-11 8 -34 22 -51 31 -29 15 -30 17 -29 89 2 88 -10 99
-61 53 -35 -30 -36 -30 -58 -12 -12 10 -24 20 -26 21 -2 1 2 15 8 30 15 33
108 96 154 103 24 4 31 10 29 24 -2 10 5 24 15 31 15 12 20 12 33 -1 11 -11
14 -33 11 -92z m69 89 c0 -3 -4 -12 -9 -19 -7 -11 -10 -10 -15 3 -10 26 -7 35
9 29 8 -4 15 -9 15 -13z m-1266 -34 c5 -2 -12 -16 -39 -31 -26 -16 -71 -46
-99 -67 -27 -21 -51 -37 -52 -36 -6 6 17 151 26 162 7 9 26 7 82 -7 40 -10 77
-20 82 -21z m1417 -28 c27 -26 49 -50 49 -55 0 -14 43 -54 58 -54 26 0 5 -24
-64 -72 -63 -44 -194 -118 -208 -118 -3 0 -6 51 -6 113 0 94 3 117 20 145 11
18 20 38 20 44 0 7 12 24 26 39 30 31 26 33 105 -42z m-881 27 c30 -3 72 -5
93 -6 23 0 36 -4 32 -10 -3 -5 -14 -10 -24 -10 -29 0 -113 -47 -160 -90 -25
-22 -48 -40 -53 -40 -4 0 -8 18 -8 39 0 49 34 132 52 126 7 -2 38 -6 68 -9z
m-195 -29 c6 -7 18 -16 27 -20 21 -8 12 -47 -11 -47 -24 0 -33 -11 -21 -25 17
-21 0 -45 -31 -45 -37 0 -314 48 -346 61 -22 8 -23 11 -12 26 8 9 41 29 74 44
57 26 66 27 185 23 88 -3 128 -8 135 -17z m695 17 c0 -3 -25 -16 -55 -30 -30
-14 -57 -30 -61 -35 -3 -5 -40 -26 -81 -46 -86 -42 -139 -49 -268 -38 -86 7
-86 7 -68 27 28 32 104 78 129 78 26 0 74 20 74 30 0 4 33 6 73 5 39 -1 97 1
127 5 72 10 130 11 130 4z m-135 -133 c-3 -6 -16 -11 -28 -11 -21 0 -21 1 3
13 27 15 36 14 25 -2z m-969 -12 c54 -14 50 -19 -42 -64 -53 -26 -72 -31 -83
-22 -10 9 -17 6 -31 -11 -23 -28 -32 -28 -28 1 2 13 11 23 24 25 12 2 36 21
53 43 35 43 41 44 107 28z m249 -43 c50 -8 104 -14 120 -13 24 2 31 -2 33 -21
2 -13 0 -31 -4 -40 -4 -9 -8 -30 -8 -47 -1 -27 -5 -30 -36 -33 -19 -2 -69 2
-110 8 -41 6 -96 12 -121 15 -26 2 -84 11 -129 19 -46 8 -89 12 -97 9 -28 -11
-5 -29 62 -45 37 -10 69 -19 72 -21 2 -2 -22 -14 -53 -26 -31 -12 -77 -35
-101 -52 -25 -16 -48 -28 -50 -25 -7 7 17 105 28 112 5 3 9 13 9 23 0 26 27
46 105 76 39 15 74 31 80 36 5 5 17 9 26 9 9 0 22 7 29 15 15 19 32 19 145 1z
m352 6 c18 -6 7 -15 -66 -53 -81 -42 -87 -44 -89 -25 -5 51 6 66 48 66 22 0
40 5 40 10 0 11 33 12 67 2z m270 -25 c41 -22 54 -44 41 -73 -10 -22 -12 -22
-167 -17 -86 3 -174 8 -196 12 l-40 7 92 45 c84 40 99 44 165 44 49 -1 84 -7
105 -18z m147 14 c3 -5 0 -11 -8 -14 -15 -6 -26 1 -26 15 0 11 27 10 34 -1z
m102 -48 c-2 -3 -14 1 -26 7 -21 11 -21 12 -3 25 16 12 19 11 26 -7 4 -12 5
-23 3 -25z m284 -97 c-25 -42 -30 -43 -61 -16 -23 18 -23 19 -4 20 11 0 34 8
50 19 17 10 32 17 34 15 2 -2 -7 -19 -19 -38z m-790 14 c30 0 25 -4 -39 -26
-41 -14 -86 -33 -100 -43 -46 -31 -48 -31 -43 -1 3 20 11 30 28 34 13 4 28 16
35 27 9 18 17 20 47 15 21 -3 53 -6 72 -6z"/>
</g>
</svg>
