<?xml version="1.0" standalone="no"?>
<!DOCTYPE svg PUBLIC "-//W3C//DTD SVG 20010904//EN"
 "http://www.w3.org/TR/2001/REC-SVG-20010904/DTD/svg10.dtd">
<svg version="1.0" xmlns="http://www.w3.org/2000/svg"
 width="212.000000pt" height="171.000000pt" viewBox="0 0 212.000000 171.000000"
 preserveAspectRatio="xMidYMid meet">
<metadata>
Created by potrace 1.16, written by Peter Selinger 2001-2019
</metadata>
<g transform="translate(0.000000,171.000000) scale(0.100000,-0.100000)"
fill="#000000" stroke="none">
<path d="M1125 1458 c-60 -54 -71 -65 -117 -115 -20 -22 -51 -52 -70 -67 -20
-17 -28 -30 -21 -33 8 -3 9 -10 3 -21 -5 -9 -11 -25 -14 -34 -3 -10 -15 -18
-27 -18 -27 0 -105 -39 -193 -98 -39 -25 -84 -53 -101 -62 -16 -9 -59 -32 -95
-52 -81 -44 -135 -54 -189 -32 -22 8 -42 22 -45 30 -8 20 -36 6 -47 -23 -7
-19 -1 -39 26 -98 l36 -75 -16 -52 c-23 -77 -21 -87 18 -86 17 0 71 -6 119
-13 80 -13 91 -17 130 -55 24 -22 77 -66 120 -97 42 -31 102 -81 133 -112 54
-53 57 -57 39 -70 -19 -13 -18 -14 1 -21 22 -8 52 -33 95 -78 23 -23 35 -28
60 -24 28 4 35 0 66 -40 19 -25 34 -50 34 -57 0 -19 47 -57 66 -53 15 3 14 6
-7 33 -38 47 -56 96 -48 130 14 61 11 85 -12 85 -18 0 -20 -4 -15 -26 9 -33
-1 -64 -18 -58 -24 9 -13 69 19 101 43 43 119 91 162 103 57 15 78 33 31 25
-21 -3 -38 -2 -38 3 0 10 65 42 86 42 8 0 17 7 20 15 4 8 14 15 23 15 9 0 45
16 81 35 35 19 69 35 75 35 6 0 18 9 27 20 10 10 46 34 80 51 35 17 76 42 91
55 16 13 32 24 36 24 9 0 58 -37 94 -72 66 -64 117 -100 133 -94 13 5 3 20
-47 74 -34 37 -66 69 -71 70 -14 6 -8 65 11 107 10 22 47 69 82 104 47 47 52
55 19 27 -25 -20 -56 -42 -70 -49 -13 -7 -45 -31 -70 -54 -54 -51 -93 -55
-155 -18 -22 14 -53 32 -70 41 -43 24 -75 50 -69 57 7 7 -56 44 -107 62 -24 9
-61 27 -81 40 -21 14 -44 25 -52 25 -7 0 -16 6 -19 14 -3 8 -59 46 -125 85
l-119 71 22 63 c12 35 24 79 27 98 5 26 23 51 70 97 71 70 66 85 -7 20z m-104
-183 c-17 -48 -25 -55 -35 -29 -6 16 28 74 43 74 5 0 1 -20 -8 -45z m158 -224
c66 -37 77 -55 14 -23 -21 11 -86 36 -143 56 -125 43 -138 53 -110 83 l19 21
80 -51 c43 -29 106 -67 140 -86z m-341 56 c8 -99 17 -275 14 -294 -3 -20 -9
-23 -46 -23 -24 0 -68 5 -97 10 -30 6 -85 11 -123 12 -38 0 -83 6 -99 13 -16
7 -38 10 -47 8 -21 -6 -31 -55 -19 -95 4 -16 6 -28 4 -28 -2 0 -21 16 -42 35
l-38 35 35 30 c19 16 47 38 62 47 15 9 28 28 30 42 2 19 20 35 76 68 41 24 78
43 83 43 5 0 9 4 9 8 0 9 174 120 190 121 3 1 6 -14 8 -32z m42 12 c0 -5 -4
-9 -10 -9 -5 0 -10 7 -10 16 0 8 5 12 10 9 6 -3 10 -10 10 -16z m98 -30 c26
-10 27 -14 7 -69 -9 -26 -15 -78 -15 -135 0 -72 -3 -94 -15 -98 -8 -4 -16 -3
-19 2 -8 12 -9 110 -1 209 4 60 3 92 -4 92 -6 0 -10 -23 -10 -54 1 -30 -2 -60
-6 -66 -4 -7 -7 -50 -6 -96 1 -66 -1 -84 -12 -84 -20 0 -26 49 -20 170 4 68
11 113 21 128 15 23 21 23 80 1z m104 -126 c-1 -48 -4 -108 -6 -133 -3 -25 -5
-48 -5 -52 -1 -3 -9 -5 -18 -3 -10 2 -28 4 -40 4 -22 1 -23 5 -23 76 0 42 4
75 10 75 6 0 5 10 -2 25 -9 19 -9 28 0 37 7 7 12 22 12 34 0 46 8 54 43 39
l32 -13 -3 -89z m68 64 c8 -7 16 -23 18 -37 5 -41 3 -210 -2 -218 -3 -5 -21
-6 -40 -4 l-36 4 6 122 c3 66 7 127 9 134 5 15 25 15 45 -1z m96 -39 c12 -1
14 -128 2 -128 -5 0 -8 -7 -8 -15 0 -8 7 -15 15 -15 11 0 15 11 15 39 0 21 3
52 6 69 6 31 7 31 35 17 25 -14 27 -18 18 -47 -5 -18 -9 -59 -9 -90 0 -55 -1
-58 -25 -58 -14 0 -25 6 -25 13 0 8 -4 7 -11 -3 -8 -12 -10 -9 -6 13 6 39 -9
43 -22 6 -9 -27 -13 -29 -31 -19 -15 8 -19 17 -14 32 3 11 6 61 7 110 0 86 1
89 21 83 12 -4 26 -7 32 -7z m145 -73 c16 -9 27 -20 24 -25 -4 -6 -6 -40 -6
-76 l0 -65 -32 3 c-25 2 -33 8 -35 27 -5 29 7 151 14 151 3 0 18 -7 35 -15z
m-1015 -50 c-47 -42 -58 -43 -81 -9 -19 30 -12 45 11 22 12 -12 24 -14 47 -7
17 5 35 13 41 19 5 5 12 10 16 10 3 -1 -13 -16 -34 -35z m1101 7 c16 -10 20
-18 14 -30 -5 -10 -13 -35 -18 -57 -5 -25 -14 -40 -23 -40 -12 0 -16 17 -18
78 -3 84 -5 81 45 49z m73 -83 c0 -28 -5 -38 -19 -42 -27 -7 -31 0 -31 48 0
50 6 58 31 42 13 -8 19 -23 19 -48z m-1020 5 c19 -1 41 3 49 10 11 8 13 8 8
-1 -5 -7 1 -13 15 -15 18 -3 7 -12 -52 -43 -41 -22 -78 -41 -82 -43 -5 -2 -8
8 -8 22 0 13 -4 36 -9 49 -12 30 -4 39 23 31 12 -4 37 -8 56 -10z m1118 -39
c-2 -1 -19 -5 -40 -8 -29 -4 -37 -2 -41 12 -2 10 0 26 5 35 8 14 13 13 44 -10
19 -15 33 -28 32 -29z m-804 11 c17 0 18 -7 12 -106 -7 -114 -36 -310 -45
-310 -3 0 -22 15 -42 33 -20 17 -78 66 -128 107 -88 71 -161 147 -161 168 0
11 100 82 115 82 6 0 21 9 35 20 22 18 34 19 110 13 47 -4 93 -7 104 -7z m969
-14 c-3 -12 -12 -22 -19 -22 -12 0 -11 5 2 25 19 30 26 28 17 -3z m-909 -64
c-3 -129 -15 -281 -26 -335 l-11 -53 -14 27 c-9 18 -12 41 -8 68 4 22 8 51 11
65 2 14 6 66 9 115 5 95 15 175 22 188 12 21 19 -9 17 -75z m-464 -52 c0 -10
-64 -2 -123 15 -35 9 -38 13 -32 37 3 15 13 38 22 51 l15 23 59 -58 c32 -32
59 -63 59 -68z m524 -13 c-4 -76 -8 -176 -8 -223 -1 -88 -6 -100 -43 -100 -24
0 -29 10 -14 26 6 5 13 105 17 222 l7 212 25 0 25 0 -9 -137z m102 90 c-3 -21
-7 -83 -11 -138 -4 -55 -8 -124 -10 -153 -4 -50 -3 -53 18 -50 17 2 21 9 19
28 -5 39 -5 56 -2 202 2 125 4 138 21 143 10 4 28 3 40 0 19 -6 20 -12 15 -88
-4 -45 -7 -121 -9 -169 l-2 -87 -70 -35 c-38 -20 -75 -36 -80 -36 -10 0 -11
81 -6 353 l1 67 40 0 40 0 -4 -37z m165 5 c1 -13 1 -32 1 -43 0 -11 -2 -69 -3
-128 -3 -92 -6 -110 -21 -118 -26 -14 -35 18 -33 121 2 191 2 190 30 190 19 0
25 -6 26 -22z m89 -13 c-3 -16 -4 -61 -1 -100 9 -105 5 -119 -35 -138 -19 -10
-36 -17 -37 -17 -3 0 2 132 7 178 3 24 1 54 -4 68 -8 20 -6 26 10 32 10 4 30
7 43 7 21 0 23 -3 17 -30z m81 -58 c-3 -95 -9 -129 -24 -139 -30 -19 -36 -7
-39 85 -4 133 -3 139 34 134 l31 -3 -2 -77z m210 25 c-4 -24 -12 -38 -24 -40
-9 -2 -17 0 -18 5 -6 69 -3 82 16 85 27 4 33 -6 26 -50z m99 51 c0 -14 -14
-28 -47 -52 l-33 -22 0 40 0 41 40 0 c22 0 40 -3 40 -7z m-240 -20 c1 -10 3
-45 6 -78 5 -59 4 -60 -27 -78 -17 -10 -33 -16 -34 -15 -1 2 0 45 3 96 4 89 5
92 28 92 16 0 24 -6 24 -17z m70 -42 c0 -33 -5 -63 -11 -66 -15 -10 -17 -6
-25 63 -6 59 -5 62 15 62 19 0 21 -5 21 -59z m-370 -279 c0 -5 -32 -31 -71
-58 -40 -27 -88 -64 -107 -81 l-36 -33 -30 23 c-16 13 -32 29 -33 34 -6 16 55
27 71 14 11 -9 18 -7 31 6 13 13 142 89 173 102 1 1 2 -3 2 -7z m-167 -172
c-3 -10 -12 -25 -19 -31 -12 -10 -13 -8 -8 7 7 19 24 44 29 44 2 0 1 -9 -2
-20z"/>
</g>
</svg>
