<?xml version="1.0" standalone="no"?>
<!DOCTYPE svg PUBLIC "-//W3C//DTD SVG 20010904//EN"
 "http://www.w3.org/TR/2001/REC-SVG-20010904/DTD/svg10.dtd">
<svg version="1.0" xmlns="http://www.w3.org/2000/svg"
 width="119.000000pt" height="135.000000pt" viewBox="0 0 119.000000 135.000000"
 preserveAspectRatio="xMidYMid meet">
<metadata>
Created by potrace 1.16, written by Peter Selinger 2001-2019
</metadata>
<g transform="translate(0.000000,135.000000) scale(0.100000,-0.100000)"
fill="#000000" stroke="none">
<path d="M675 1220 c-27 -27 -79 -66 -116 -85 -76 -40 -89 -52 -62 -61 29 -11
279 -253 340 -331 l32 -40 -137 -141 c-75 -77 -168 -163 -207 -192 -69 -52
-69 -52 -78 -29 -6 13 -21 48 -35 77 -14 28 -22 55 -19 58 3 4 -9 24 -28 46
-21 25 -36 56 -40 81 -4 23 -12 48 -18 55 -7 9 -3 20 15 40 14 15 32 37 40 50
9 13 61 70 117 128 96 99 124 137 84 115 -10 -5 -29 -20 -43 -33 -40 -38 -316
-218 -352 -230 -56 -18 -64 -32 -32 -57 14 -11 33 -21 40 -21 7 0 18 -9 24
-20 15 -28 -17 -72 -81 -112 -54 -33 -62 -48 -25 -48 55 0 149 -33 213 -76 38
-24 71 -44 74 -44 4 0 14 -12 24 -26 l17 -27 -80 -76 c-45 -42 -100 -92 -124
-112 -75 -64 -31 -55 54 11 46 35 166 113 268 173 102 60 205 122 230 138 25
15 81 47 125 69 80 42 115 66 115 81 0 4 -16 25 -35 46 -19 21 -38 47 -41 58
-4 11 -24 40 -46 64 -21 24 -41 56 -44 70 -3 14 -16 62 -29 106 -31 109 -55
216 -56 256 -1 44 -12 82 -25 86 -5 2 -32 -19 -59 -47z m49 -157 c15 -65 39
-138 52 -163 l24 -45 -47 50 c-27 28 -60 64 -74 80 -14 17 -45 47 -69 67 -36
32 -41 40 -30 53 7 8 18 15 24 15 6 0 27 14 46 30 19 16 37 30 40 30 4 0 19
-53 34 -117z m-328 -240 c-19 -21 -54 -60 -77 -88 -54 -65 -62 -69 -99 -50
-28 14 -41 35 -22 35 5 0 56 32 113 70 57 39 107 70 112 70 4 0 -8 -17 -27
-37z m536 -215 l29 -37 -46 -25 c-25 -14 -66 -38 -92 -53 -27 -14 -50 -29 -53
-32 -3 -3 -19 -13 -35 -22 -41 -22 -179 -105 -245 -148 -82 -54 -83 -55 -76
-43 3 5 52 43 107 83 56 40 128 100 159 133 32 34 91 96 131 139 63 67 74 75
83 60 5 -10 22 -35 38 -55z m-648 -44 c6 -10 25 -40 42 -65 34 -50 50 -89 37
-89 -5 0 -27 14 -50 30 -23 17 -63 34 -93 40 -47 9 -98 29 -75 30 6 0 21 10
35 23 38 34 74 57 84 54 5 -2 14 -12 20 -23z"/>
</g>
</svg>
