<?xml version="1.0" standalone="no"?>
<!DOCTYPE svg PUBLIC "-//W3C//DTD SVG 20010904//EN"
 "http://www.w3.org/TR/2001/REC-SVG-20010904/DTD/svg10.dtd">
<svg version="1.0" xmlns="http://www.w3.org/2000/svg"
 width="276.000000pt" height="136.000000pt" viewBox="0 0 276.000000 136.000000"
 preserveAspectRatio="xMidYMid meet">
<metadata>
Created by potrace 1.16, written by Peter Selinger 2001-2019
</metadata>
<g transform="translate(0.000000,136.000000) scale(0.100000,-0.100000)"
fill="#000000" stroke="none">
<path d="M1011 1230 c-10 -25 -11 -40 -2 -73 7 -26 10 -106 8 -206 -2 -146 -1
-165 14 -168 15 -4 15 -10 3 -56 -19 -73 -18 -114 4 -128 20 -12 19 -22 -7
-123 -8 -31 -7 -42 4 -50 9 -7 12 -20 9 -33 -6 -21 -8 -22 -35 -7 -16 8 -29
18 -29 23 0 8 -23 25 -106 77 -19 11 -45 31 -59 44 -27 26 -50 40 -113 70 -23
12 -58 36 -76 53 -19 18 -44 39 -56 48 -22 15 -23 16 -6 51 24 50 151 167 299
276 55 40 56 66 5 93 -29 16 -227 22 -260 8 -37 -15 -36 -36 3 -44 23 -5 28
-10 20 -18 -6 -6 -11 -18 -11 -26 0 -9 -15 -56 -34 -106 -18 -49 -41 -111 -51
-137 -17 -50 -39 -62 -50 -29 -8 26 -93 103 -108 98 -7 -2 -11 -14 -10 -26 2
-11 -1 -21 -5 -21 -5 0 -17 -7 -28 -16 -19 -15 -19 -15 2 -11 19 4 16 -5 -24
-77 -25 -44 -55 -99 -66 -120 -12 -21 -33 -48 -49 -59 -15 -12 -27 -29 -27
-39 0 -14 8 -17 43 -16 24 0 68 -6 98 -15 47 -13 132 -30 419 -79 36 -6 74
-16 85 -23 16 -9 92 -35 115 -40 3 0 26 -7 52 -15 38 -11 48 -19 50 -40 2 -19
10 -26 30 -28 15 -2 35 1 45 6 11 7 30 4 61 -9 72 -31 95 -19 52 26 l-20 22
91 22 c50 12 119 25 153 27 33 3 75 10 91 16 34 12 145 26 145 18 -1 -3 -7
-32 -15 -65 -8 -33 -15 -66 -15 -72 0 -15 46 -18 55 -4 8 14 126 91 139 91 6
0 47 16 91 35 44 19 85 35 92 35 7 0 13 4 13 10 0 5 12 9 28 9 15 -1 45 4 67
10 22 6 67 11 100 10 93 -1 95 -1 95 20 0 18 -9 20 -127 24 -138 4 -295 27
-337 49 -27 14 -27 14 41 36 37 13 102 29 143 38 151 30 175 36 187 45 6 6 30
9 52 8 39 -3 72 13 58 27 -4 4 -55 11 -114 16 -122 10 -179 18 -306 43 -78 15
-86 19 -70 31 10 7 24 14 31 14 8 0 28 6 45 14 82 37 113 45 219 51 227 13
213 11 216 34 3 20 0 20 -140 19 -84 -1 -162 3 -188 10 -25 6 -84 19 -132 28
-49 10 -88 20 -88 23 0 8 40 24 155 63 81 27 101 30 200 27 172 -3 185 -2 185
21 0 17 -7 19 -57 17 -105 -2 -297 15 -368 34 -125 33 -144 39 -174 64 -16 14
-36 25 -44 25 -19 0 -47 -37 -47 -61 0 -13 -8 -16 -42 -13 -24 2 -99 5 -168 8
-135 4 -189 18 -310 76 -35 18 -78 34 -95 37 -26 4 -32 1 -44 -27z m109 -61
c14 -9 64 -29 110 -42 47 -14 78 -27 70 -30 -91 -32 -185 -57 -201 -52 -19 6
-22 15 -34 88 -3 21 -9 45 -12 54 -5 12 -1 14 18 8 13 -4 35 -16 49 -26z m689
-59 c11 0 22 -4 26 -9 3 -5 31 -15 63 -22 l57 -12 -80 -31 c-44 -17 -90 -37
-102 -44 -53 -29 -60 -15 -47 95 l7 52 28 -14 c15 -8 37 -15 48 -15z m-177
-10 l40 0 -6 -47 c-12 -80 -14 -83 -54 -83 -20 0 -53 4 -72 9 -19 5 -66 12
-105 15 -38 3 -106 14 -150 24 l-80 19 50 15 c73 22 299 59 323 52 8 -2 32 -4
54 -4z m-832 -47 c0 -13 -12 -26 -98 -102 -46 -40 -85 -71 -88 -68 -3 3 6 32
20 66 14 33 26 66 26 74 0 26 25 37 82 37 32 0 58 -3 58 -7z m514 -74 c106
-21 118 -26 95 -33 -234 -75 -306 -93 -327 -80 -18 12 -27 53 -18 89 12 48 92
55 250 24z m341 -69 c3 -11 13 -20 22 -20 13 0 15 -8 9 -46 -3 -26 -6 -55 -6
-66 0 -11 -3 -17 -7 -15 -5 3 -56 8 -115 11 -211 12 -395 45 -371 66 4 4 55
22 113 41 76 25 131 36 200 40 52 3 107 6 122 7 19 1 29 -4 33 -18z m195 -9
c30 -10 78 -22 105 -26 l50 -7 -50 -23 c-178 -82 -188 -85 -219 -62 -15 11
-16 18 -6 62 7 28 13 56 16 63 5 17 39 15 104 -7z m-695 -101 c52 -18 193 -43
295 -52 32 -4 31 -4 -15 -11 -27 -4 -97 -19 -155 -34 -157 -41 -237 -35 -210
16 4 9 11 35 15 59 4 23 8 42 9 42 2 0 29 -9 61 -20z m-682 -79 c12 -9 17 -22
14 -37 -5 -29 8 -40 28 -24 17 14 47 0 85 -38 14 -14 41 -31 60 -39 19 -9 63
-35 98 -59 35 -24 80 -53 100 -63 20 -11 59 -40 86 -65 26 -25 53 -46 59 -46
6 0 8 -2 5 -5 -3 -3 -47 10 -99 28 -52 18 -141 41 -199 51 -168 28 -353 65
-408 81 -55 17 -56 20 -9 85 41 58 87 133 87 141 0 5 7 21 16 34 l16 25 21
-28 c12 -15 30 -33 40 -41z m1204 -41 l1 -69 -27 4 c-14 3 -82 7 -151 10 -208
10 -244 13 -269 23 -20 7 -13 11 55 30 101 27 252 52 320 52 29 0 56 5 59 10
11 17 12 12 12 -60z m129 41 c21 -20 87 -35 229 -55 l90 -12 -65 -18 c-80 -22
-202 -63 -235 -78 -19 -9 -31 -8 -49 2 -26 13 -50 6 -43 -14 3 -6 -6 -17 -20
-23 -21 -10 -23 -10 -13 2 7 8 13 48 14 89 2 66 5 77 27 95 26 22 49 26 65 12z
m-619 -102 c15 -6 62 -13 103 -15 367 -23 378 -23 384 -11 12 30 4 -25 -9 -62
-13 -39 -13 -43 6 -62 11 -11 19 -30 17 -41 -3 -19 -10 -21 -88 -21 -117 -1
-313 20 -352 37 -18 8 -42 18 -53 21 -21 7 -22 7 84 53 19 8 63 17 97 20 50 4
61 8 57 19 -8 22 -81 10 -207 -32 -119 -40 -163 -47 -157 -25 1 8 6 35 10 60
5 34 12 48 31 57 31 16 41 16 77 2z m675 -143 c40 -17 120 -36 151 -36 20 0
19 -2 -8 -18 -16 -10 -66 -33 -110 -51 -44 -18 -106 -48 -139 -67 -32 -19 -60
-33 -63 -31 -2 2 1 15 6 29 5 13 14 60 21 104 7 43 17 83 24 87 14 10 76 1
118 -17z m-640 -67 c26 -10 75 -20 110 -23 35 -2 72 -5 83 -6 20 -1 -101 -36
-160 -46 -36 -6 -86 -14 -100 -16 -5 0 -27 6 -48 15 -38 17 -39 17 -32 59 4
24 12 46 17 49 12 8 61 -5 130 -32z"/>
<path d="M1455 572 c-14 -14 -1 -22 34 -22 22 0 44 6 51 15 11 13 7 15 -34 14
-25 -1 -48 -5 -51 -7z"/>
</g>
</svg>
