<?xml version="1.0" standalone="no"?>
<!DOCTYPE svg PUBLIC "-//W3C//DTD SVG 20010904//EN"
 "http://www.w3.org/TR/2001/REC-SVG-20010904/DTD/svg10.dtd">
<svg version="1.0" xmlns="http://www.w3.org/2000/svg"
 width="288.000000pt" height="216.000000pt" viewBox="0 0 288.000000 216.000000"
 preserveAspectRatio="xMidYMid meet">
<metadata>
Created by potrace 1.16, written by Peter Selinger 2001-2019
</metadata>
<g transform="translate(0.000000,216.000000) scale(0.100000,-0.100000)"
fill="#000000" stroke="none">
<path d="M880 1973 c-14 -2 -34 -8 -45 -13 -11 -5 -37 -11 -58 -15 -58 -9 -56
-28 7 -92 31 -31 56 -60 56 -63 0 -4 -17 -14 -39 -22 l-38 -15 -16 48 c-8 27
-11 49 -6 49 5 0 9 7 9 15 0 16 -35 21 -44 6 -8 -12 -52 -19 -66 -11 -7 4 -34
-8 -62 -26 -32 -22 -62 -34 -84 -34 -18 0 -37 -6 -41 -13 -4 -8 -23 -22 -40
-32 -30 -18 -34 -18 -45 -3 -12 15 -19 15 -88 -9 -79 -27 -103 -40 -95 -53 7
-11 -13 -23 -60 -39 -22 -8 -46 -18 -53 -23 -19 -16 -14 -48 11 -57 12 -5 40
-30 62 -56 69 -81 108 -116 121 -111 30 11 12 -10 -26 -32 -25 -14 -48 -38
-61 -64 -19 -38 -20 -47 -10 -88 6 -25 11 -74 10 -110 -1 -76 31 -206 66 -265
13 -22 56 -70 97 -105 40 -36 82 -73 93 -83 11 -10 43 -30 70 -44 28 -14 70
-40 95 -57 25 -18 85 -52 133 -76 78 -39 91 -49 114 -92 30 -55 51 -66 26 -13
-9 19 -14 37 -12 40 3 2 35 -5 72 -17 58 -19 66 -25 61 -42 -5 -16 -3 -18 12
-11 11 5 89 12 174 16 85 4 220 10 299 14 79 4 153 11 165 15 12 5 17 9 11 10
-21 3 -246 0 -415 -6 l-175 -7 -1 27 c-2 22 2 25 20 21 58 -13 876 -21 1051
-10 190 11 361 15 371 8 8 -6 9 -28 2 -76 -11 -80 -8 -139 8 -144 13 -4 34 62
34 109 0 53 48 367 65 423 8 28 24 84 36 125 11 41 30 94 41 117 28 56 20 73
-30 66 -21 -3 -69 0 -108 6 -59 9 -71 8 -84 -5 -13 -14 -13 -17 8 -31 18 -13
22 -25 22 -68 l0 -53 -102 -6 c-57 -3 -310 -4 -563 -2 -414 3 -507 8 -657 32
-23 4 -38 2 -38 -4 0 -18 79 -42 158 -49 l77 -7 -115 -17 c-63 -10 -129 -18
-146 -19 l-32 0 10 48 c5 26 13 55 18 64 6 10 10 41 10 70 0 29 4 88 10 132 5
45 15 133 21 196 27 289 70 435 146 508 49 46 35 57 -74 61 -48 2 -101 4 -118
5 -22 1 -33 -5 -40 -21 -6 -14 -20 -23 -45 -26 -19 -2 -42 -7 -51 -11 -11 -5
-24 5 -44 34 -15 22 -26 42 -24 43 2 2 17 8 32 15 51 22 19 37 -53 25z m-65
-83 c21 -41 19 -47 -10 -20 -25 24 -33 50 -15 50 5 0 16 -13 25 -30z m86 -25
c15 -22 25 -43 23 -47 -8 -13 -41 -9 -47 5 -3 6 -13 29 -22 50 -15 36 -15 38
2 35 9 -2 29 -21 44 -43z m336 -9 c3 -3 -3 -20 -14 -39 -11 -18 -29 -62 -41
-98 -28 -88 -69 -376 -77 -539 -9 -177 -10 -186 -21 -180 -10 5 -9 29 7 170 8
68 8 164 0 335 -6 132 -11 267 -11 300 l0 60 76 -2 c42 -1 78 -4 81 -7z m-187
-68 c0 -29 3 -125 6 -213 l5 -160 -38 75 c-39 75 -105 225 -118 268 -5 17 -1
24 17 31 29 10 36 1 73 -99 28 -76 40 -98 50 -89 6 7 -36 132 -59 177 -16 31
-16 31 11 46 47 25 53 21 53 -36z m-329 -3 c9 -25 14 -45 11 -45 -3 0 -25 17
-50 37 -39 32 -43 38 -26 44 38 15 49 9 65 -36z m-113 -46 c20 -47 22 -69 4
-69 -4 0 -24 22 -44 49 -36 48 -36 49 -15 59 12 6 24 11 27 11 3 1 15 -22 28
-50z m55 12 c27 -21 33 -31 24 -40 -19 -19 -33 -13 -50 24 -26 55 -24 57 26
16z m232 -41 c43 -104 145 -307 160 -320 13 -10 16 -30 14 -96 -1 -45 -5 -87
-9 -93 -4 -7 -28 25 -58 76 -62 105 -222 427 -222 446 0 14 81 49 91 38 3 -3
14 -26 24 -51z m-351 -12 c20 -23 36 -45 36 -49 0 -7 -53 -49 -63 -49 -8 0
-47 98 -47 119 0 35 35 25 74 -21z m-224 3 c0 -10 7 -35 15 -54 8 -20 15 -47
15 -59 0 -19 -5 -16 -29 20 -15 24 -38 50 -50 58 -28 20 -27 28 7 41 39 16 42
15 42 -6z m133 -37 c16 -31 26 -58 25 -60 -2 -1 -22 21 -45 51 -38 49 -40 60
-13 64 3 1 18 -24 33 -55z m314 -6 c11 -12 64 -106 115 -208 102 -199 133
-255 156 -283 11 -12 15 -35 12 -80 -2 -34 -3 -77 -3 -94 -1 -44 -12 -41 -37
8 -18 35 -123 217 -150 259 -58 91 -169 321 -190 392 -7 23 -5 28 18 36 31 11
48 4 79 -30z m-307 -87 c0 -5 -13 -19 -30 -31 l-29 -21 -6 23 c-16 71 -25 114
-25 123 0 6 21 -11 45 -37 25 -26 45 -51 45 -57z m-171 23 c23 -26 41 -51 41
-55 0 -5 6 -9 14 -9 7 0 19 -6 25 -14 10 -12 6 -21 -18 -48 l-30 -33 -25 28
c-19 22 -66 143 -66 171 0 17 22 1 59 -40z m395 -42 c70 -155 102 -215 199
-377 48 -80 85 -144 97 -168 8 -16 25 -40 38 -55 26 -28 27 -31 17 -187 -3
-49 -7 -142 -8 -205 -2 -115 -2 -115 -27 -118 -14 -1 -42 8 -62 20 -20 13 -61
38 -91 55 -74 45 -127 128 -310 483 -142 276 -155 304 -149 315 4 6 7 12 8 15
1 3 5 20 9 38 l8 34 23 -29 c13 -15 23 -31 24 -35 0 -3 16 -35 36 -70 20 -34
58 -101 84 -148 82 -146 97 -173 132 -231 18 -31 46 -76 61 -100 47 -75 98
-161 139 -234 42 -75 55 -92 63 -84 8 9 -166 320 -200 359 -13 14 -33 45 -45
70 -13 25 -30 56 -40 70 -9 14 -39 66 -65 115 -26 50 -72 131 -101 181 -29 51
-64 120 -78 155 l-26 64 32 28 c18 15 35 27 38 27 3 -1 18 -29 33 -63 69 -152
88 -190 106 -214 11 -13 38 -61 60 -106 96 -199 321 -542 321 -489 0 5 -34 57
-75 116 -41 59 -75 110 -75 114 0 4 -17 34 -37 67 -111 181 -293 543 -293 584
0 18 83 89 105 90 6 0 28 -39 49 -87z m-453 -32 c21 -52 39 -97 39 -99 0 -3
-15 15 -32 39 -18 23 -50 63 -72 88 -36 43 -37 46 -20 59 10 8 25 12 32 11 8
-2 32 -46 53 -98z m153 -113 c-3 -9 -12 -17 -19 -17 -10 0 -11 5 -2 24 13 27
32 20 21 -7z m-49 -109 c-4 -13 -9 -64 -12 -113 -5 -94 1 -126 47 -245 12 -30
22 -60 24 -66 1 -7 7 -18 13 -25 10 -13 43 -86 43 -96 0 -6 -66 48 -103 84
-42 41 -73 93 -81 135 -5 29 -10 36 -24 32 -12 -4 -14 -3 -4 3 9 7 11 24 7 59
-4 28 -2 69 4 94 17 68 63 160 79 160 10 0 12 -6 7 -22z m187 -313 c47 -93
110 -211 140 -261 73 -119 81 -134 69 -134 -17 0 -111 86 -144 132 -17 25 -47
58 -65 73 -18 15 -42 48 -53 74 -12 25 -32 69 -45 96 -13 28 -26 60 -28 70 -2
11 -9 33 -15 48 -6 16 -11 63 -11 105 l0 77 33 -55 c18 -30 72 -131 119 -225z
m2110 6 c8 -7 -15 -102 -25 -103 -4 0 -21 2 -37 6 -29 5 -30 8 -30 60 l0 54
43 -5 c23 -3 45 -8 49 -12z m-129 -211 c3 -41 4 -127 3 -190 l-1 -114 -65 -3
c-36 -2 -104 -8 -153 -13 -79 -10 -674 -11 -1071 -2 l-159 3 5 141 c4 92 9
143 17 148 7 4 11 13 9 20 -3 16 51 30 212 57 96 15 513 26 1127 28 l71 1 5
-76z m97 51 c0 -3 -5 -22 -11 -41 -6 -19 -19 -78 -29 -130 -10 -52 -19 -80
-19 -62 -1 18 -6 32 -13 32 -10 0 -9 3 1 9 10 6 13 34 13 102 0 52 2 97 4 100
4 8 54 -1 54 -10z"/>
</g>
</svg>
