<?xml version="1.0" standalone="no"?>
<!DOCTYPE svg PUBLIC "-//W3C//DTD SVG 20010904//EN"
 "http://www.w3.org/TR/2001/REC-SVG-20010904/DTD/svg10.dtd">
<svg version="1.0" xmlns="http://www.w3.org/2000/svg"
 width="354.000000pt" height="125.000000pt" viewBox="0 0 354.000000 125.000000"
 preserveAspectRatio="xMidYMid meet">
<metadata>
Created by potrace 1.16, written by Peter Selinger 2001-2019
</metadata>
<g transform="translate(0.000000,125.000000) scale(0.100000,-0.100000)"
fill="#000000" stroke="none">
<path d="M427 1176 c-15 -12 -57 -33 -93 -47 -72 -27 -118 -59 -106 -74 4 -6
40 -32 80 -59 70 -46 72 -49 59 -70 -8 -11 -59 -49 -113 -83 -54 -34 -105 -66
-111 -72 -7 -6 -24 -16 -38 -21 -14 -5 -25 -16 -25 -25 0 -23 119 -133 219
-202 4 -2 -13 -18 -78 -70 -19 -15 -66 -42 -105 -60 -62 -28 -71 -36 -73 -60
-2 -23 6 -35 46 -65 51 -39 81 -48 81 -24 0 16 118 191 147 218 44 43 85 68
188 117 61 28 126 61 145 72 19 11 47 25 62 30 24 9 27 15 22 37 -14 57 -56
122 -79 122 -6 0 -17 -10 -24 -23 -7 -13 -22 -29 -34 -36 -19 -12 -23 -11 -37
10 -8 13 -30 40 -47 60 -18 20 -31 38 -28 40 2 3 -2 40 -10 84 -7 44 -11 102
-9 130 3 27 6 59 7 69 3 27 -14 28 -46 2z m2 -88 c0 -29 4 -73 10 -98 15 -64
15 -65 -21 -35 -18 15 -62 47 -97 71 l-64 43 29 12 c16 6 52 22 79 35 28 12
53 23 57 23 5 1 8 -23 7 -51z m14 -208 c16 -22 32 -40 37 -40 4 0 25 -23 45
-52 l37 -51 -58 -55 c-33 -30 -84 -75 -114 -100 l-54 -45 -49 53 c-61 66 -61
80 4 227 13 30 93 102 114 102 6 0 23 -17 38 -39z m-202 -102 c-11 -24 -23
-59 -28 -78 l-9 -34 -38 35 -39 36 59 41 c32 23 62 41 66 41 4 1 -1 -18 -11
-41z m433 -22 c14 -19 24 -41 21 -48 -6 -15 -47 -37 -197 -107 l-107 -50 67
62 c37 34 92 88 122 120 30 31 58 57 61 57 4 0 18 -15 33 -34z m-380 -278 c-5
-7 -12 -17 -16 -23 -4 -5 -34 -49 -65 -97 -32 -48 -62 -88 -66 -88 -4 0 -26
17 -49 38 l-41 38 96 44 c61 27 103 53 116 71 21 29 39 41 25 17z"/>
<path d="M1153 1138 c-22 -28 -21 -46 3 -69 13 -12 24 -30 24 -40 0 -21 -163
-182 -226 -223 -24 -15 -44 -32 -44 -36 0 -7 -46 -29 -105 -50 l-30 -11 39
-33 c48 -39 44 -51 -44 -127 -64 -56 -67 -72 -10 -60 28 6 54 0 133 -32 65
-26 101 -36 106 -29 12 19 39 -12 45 -53 4 -21 8 -41 11 -43 8 -9 26 11 21 24
-10 27 8 14 63 -44 52 -54 56 -62 53 -100 -3 -34 0 -41 12 -36 10 4 16 18 16
35 0 20 4 27 14 23 8 -3 54 11 103 31 141 59 215 66 676 62 38 0 47 -3 43 -14
-4 -9 -1 -13 6 -10 9 2 16 -14 23 -46 6 -28 15 -52 22 -54 8 -3 12 35 15 130
l3 134 64 127 c36 72 75 135 88 143 13 8 23 18 23 22 0 8 -269 5 -277 -3 -4
-3 2 -12 12 -20 10 -7 24 -31 30 -53 l12 -41 -81 -4 c-45 -3 -85 -3 -91 -1 -5
2 -23 23 -39 46 -16 23 -50 59 -77 80 -27 20 -60 54 -73 75 -13 21 -56 67 -94
102 -39 35 -82 84 -96 109 -35 65 -74 104 -95 96 -26 -12 -240 -15 -246 -5 -8
14 -21 12 -32 -2z m160 -47 c4 -16 -36 -95 -63 -124 -4 -4 -17 19 -29 53 -12
33 -26 60 -32 60 -5 0 -9 5 -9 11 0 6 6 9 13 6 8 -3 29 -2 48 3 54 13 66 11
72 -9z m141 -12 c10 -17 16 -33 13 -35 -3 -3 -22 2 -42 11 -37 15 -37 16 -20
35 24 26 27 25 49 -11z m-80 -106 c21 -23 47 -45 59 -49 12 -4 24 -10 27 -13
3 -3 30 -26 60 -51 30 -25 62 -52 70 -60 9 -8 31 -26 50 -40 18 -14 38 -30 44
-35 35 -33 79 -65 87 -65 18 0 -6 27 -71 81 -36 29 -92 78 -124 107 -33 30
-82 68 -108 84 -45 28 -100 88 -80 88 30 0 101 -36 155 -77 34 -27 68 -52 75
-58 7 -5 23 -21 35 -35 53 -59 104 -107 132 -124 17 -10 42 -34 56 -54 l27
-37 -92 2 c-50 1 -94 2 -97 2 -3 1 -55 50 -115 110 -60 60 -145 132 -189 161
-44 29 -82 55 -84 57 -9 7 19 51 31 49 8 -1 31 -20 52 -43z m-166 -16 c7 -19
12 -90 12 -167 1 -74 1 -142 2 -150 0 -14 -12 -158 -17 -205 -1 -11 -3 -46 -4
-78 -1 -52 -3 -56 -18 -46 -10 7 -40 39 -66 71 l-49 59 7 67 c3 37 2 78 -3 92
-8 21 -4 36 26 90 19 36 48 82 64 102 30 39 26 49 -19 48 -15 0 -43 2 -62 6
l-34 7 69 68 c38 37 71 68 74 68 4 1 11 -14 18 -32z m145 -56 c42 -25 72 -51
203 -176 l89 -84 -45 -1 c-44 0 -46 1 -177 135 -73 74 -139 135 -147 135 -9 0
-12 7 -9 20 5 18 8 19 27 7 11 -7 38 -24 59 -36z m35 -129 c67 -64 122 -121
122 -125 0 -4 -13 -7 -29 -7 -21 0 -36 8 -50 29 -12 16 -57 60 -101 96 -66 55
-80 72 -80 96 0 16 4 29 8 29 4 0 63 -53 130 -118z m-266 29 c4 -3 -8 -31 -27
-61 -19 -30 -35 -50 -35 -45 -1 6 -3 36 -6 67 l-6 58 34 -6 c18 -4 36 -9 40
-13z m-102 2 c6 -102 13 -176 20 -210 10 -40 3 -133 -9 -133 -28 2 -140 153
-121 165 6 4 8 11 4 17 -3 5 7 28 23 51 16 23 37 59 48 80 18 34 34 48 35 30z
m339 -96 l54 -55 -73 2 c-48 2 -75 8 -81 17 -5 8 -9 40 -9 72 l0 58 28 -20
c15 -10 51 -44 81 -74z m-406 46 c-42 -68 -70 -86 -92 -59 -9 10 0 21 41 49
65 43 73 45 51 10z m1287 -20 c0 -2 -11 -21 -25 -41 -14 -20 -25 -43 -25 -50
0 -9 -12 -12 -41 -10 -40 3 -42 5 -55 47 -7 25 -11 47 -9 50 4 7 155 11 155 4z
m-834 -106 c2 -2 -25 -9 -61 -16 -35 -7 -69 -19 -76 -27 -6 -8 -8 -14 -3 -14
11 0 144 36 164 44 10 4 30 -15 63 -63 52 -74 97 -122 97 -103 0 6 -25 44 -55
84 -30 40 -55 76 -55 81 0 4 14 7 31 7 21 0 47 -13 82 -40 60 -48 79 -44 22 5
l-40 34 252 -2 252 -1 6 -37 c8 -46 7 -101 -2 -169 l-8 -55 -210 -2 c-115 -1
-300 2 -410 7 -110 5 -204 5 -209 0 -8 -8 23 -22 40 -19 18 3 219 -3 209 -6
-5 -2 -41 -7 -79 -10 -54 -5 -73 -12 -91 -30 -12 -13 -40 -28 -63 -33 -40 -9
-42 -9 -37 12 2 11 7 62 10 111 3 50 9 124 11 165 3 41 8 78 10 81 4 7 143 3
150 -4z m740 -61 c-11 -24 -23 -42 -26 -39 -2 2 -6 22 -7 44 -3 37 -1 39 26
39 l29 0 -22 -44z m-1210 -71 l59 -55 -101 43 c-93 38 -100 43 -80 54 39 22
62 14 122 -42z"/>
<path d="M2523 853 c-22 -51 -36 -117 -35 -173 0 -19 1 -94 1 -167 0 -81 5
-134 11 -138 11 -7 123 55 200 111 58 41 126 68 215 84 107 19 145 27 205 45
59 18 102 23 224 30 76 4 109 16 92 32 -4 4 -116 8 -249 8 -166 1 -259 5 -297
14 -59 15 -175 68 -192 88 -6 7 -16 13 -22 13 -20 0 -95 60 -101 80 -11 33
-30 22 -52 -27z m61 -68 c18 -14 40 -25 48 -25 9 0 21 -7 28 -15 7 -8 18 -15
26 -15 7 0 33 -11 56 -24 24 -13 70 -29 103 -35 70 -13 87 -26 48 -35 -15 -4
-68 -33 -118 -65 -106 -68 -213 -131 -223 -131 -4 0 -7 64 -8 143 0 81 -5 151
-11 162 -10 19 -1 65 12 65 4 0 21 -11 39 -25z m513 -141 c-10 -11 -188 -45
-196 -38 -1 1 26 12 60 22 61 19 149 29 136 16z"/>
</g>
</svg>
