<?xml version="1.0" standalone="no"?>
<!DOCTYPE svg PUBLIC "-//W3C//DTD SVG 20010904//EN"
 "http://www.w3.org/TR/2001/REC-SVG-20010904/DTD/svg10.dtd">
<svg version="1.0" xmlns="http://www.w3.org/2000/svg"
 width="242.000000pt" height="202.000000pt" viewBox="0 0 242.000000 202.000000"
 preserveAspectRatio="xMidYMid meet">
<metadata>
Created by potrace 1.16, written by Peter Selinger 2001-2019
</metadata>
<g transform="translate(0.000000,202.000000) scale(0.100000,-0.100000)"
fill="#000000" stroke="none">
<path d="M1384 1957 c-44 -30 -98 -64 -120 -76 -39 -22 -43 -22 -66 -7 -14 9
-27 13 -31 10 -8 -8 50 -64 67 -64 13 0 46 -31 46 -43 0 -10 -103 -8 -119 2
-21 13 -76 -16 -63 -32 10 -12 8 -241 -2 -304 -4 -22 -2 -33 7 -33 8 0 9 -3 1
-8 -6 -4 -14 -27 -17 -52 -3 -25 -8 -56 -10 -70 -3 -14 -8 -76 -12 -139 -3
-63 -8 -117 -10 -121 -2 -3 -7 -51 -11 -105 -7 -98 -11 -148 -13 -152 -2 -4
-65 41 -160 113 -54 41 -87 72 -81 78 5 5 -1 24 -16 47 -13 21 -24 47 -24 58
0 11 -5 23 -11 27 -6 3 -20 26 -30 49 -10 23 -37 73 -59 111 -22 38 -40 77
-40 87 0 10 -6 28 -13 40 -6 12 -23 49 -37 82 l-25 60 32 50 c63 98 93 134
106 129 7 -2 44 13 83 34 38 21 88 45 109 54 74 30 130 63 133 80 4 23 -29 51
-108 90 -58 29 -75 33 -117 29 l-48 -6 -1 -47 c-1 -35 -11 -63 -38 -108 -20
-34 -36 -63 -36 -65 0 -2 -20 -33 -44 -68 -24 -36 -52 -79 -61 -97 -13 -25
-19 -30 -26 -19 -5 8 -9 24 -9 37 0 42 -31 39 -69 -8 -53 -64 -229 -219 -267
-235 -19 -8 -34 -18 -34 -23 0 -5 30 -28 68 -52 70 -45 253 -178 262 -190 3
-4 29 -19 58 -34 52 -27 153 -98 203 -143 15 -14 34 -26 44 -27 21 -3 175
-109 228 -156 l39 -35 -1 -104 c0 -135 -18 -249 -40 -256 -23 -8 -113 -92
-104 -97 4 -3 2 -3 -5 -2 -14 4 -158 -61 -166 -75 -6 -10 19 -41 33 -41 4 0
16 9 27 21 31 34 96 62 144 63 36 1 47 5 56 24 6 13 22 31 34 39 28 20 237
123 248 123 18 0 329 169 432 235 36 22 97 58 135 80 39 21 73 43 77 49 4 6 8
7 8 2 0 -4 12 0 28 10 63 42 143 82 213 109 84 32 99 42 99 61 0 14 -27 59
-78 129 -16 23 -40 61 -52 85 -12 25 -42 66 -66 92 -24 26 -68 84 -98 130 -30
46 -82 115 -115 153 -34 39 -70 88 -81 110 -11 22 -36 61 -57 87 -122 151
-172 217 -187 246 -23 45 -49 42 -142 -21z m152 -49 c33 -40 66 -81 74 -92 8
-10 22 -26 30 -35 23 -24 82 -110 112 -161 15 -25 46 -65 69 -90 23 -25 72
-90 108 -144 116 -175 114 -165 31 -105 -41 30 -88 68 -104 84 -45 44 -234
196 -280 225 -22 13 -65 45 -95 70 -31 25 -66 53 -79 62 -20 13 -21 17 -7 28
25 21 18 42 -12 39 -51 -4 -68 1 -103 31 l-35 29 49 21 c27 11 65 33 85 49 27
22 84 57 97 61 1 0 28 -33 60 -72z m-648 -31 c17 -10 32 -20 32 -22 0 -2 -115
-70 -198 -117 -19 -10 -36 -17 -38 -15 -5 5 16 54 40 92 11 17 30 47 42 67 23
36 25 37 56 26 18 -7 48 -20 66 -31z m442 -149 c0 -5 -5 -18 -10 -29 -6 -11
-19 -52 -30 -92 -10 -39 -32 -119 -48 -177 -16 -58 -34 -125 -41 -150 -19 -75
-72 -321 -81 -380 -12 -78 -27 -131 -40 -144 -9 -8 -10 6 -5 59 4 39 8 79 8
90 0 11 4 54 9 95 5 41 13 136 18 210 6 74 15 180 20 235 5 55 9 143 10 195
l0 95 95 1 c52 0 95 -3 95 -8z m97 -60 c27 -24 66 -58 88 -76 25 -21 35 -35
28 -38 -7 -3 -13 -19 -13 -34 0 -16 -9 -78 -21 -137 -11 -59 -19 -122 -17
-140 2 -17 1 -30 -3 -27 -4 2 -9 -13 -12 -34 -2 -20 -12 -80 -20 -132 -30
-183 -48 -336 -41 -353 3 -9 2 -17 -4 -17 -5 0 -67 -54 -138 -120 -125 -117
-200 -177 -208 -169 -7 6 15 103 25 114 5 5 9 34 9 65 0 31 3 60 8 64 4 4 8
29 8 54 1 26 11 83 22 127 21 81 59 287 68 360 3 22 7 47 11 55 3 8 18 67 35
130 16 63 33 131 39 150 5 19 12 43 14 53 14 63 52 147 64 147 6 0 32 -19 58
-42z m-967 -119 c0 -11 25 -72 55 -134 30 -63 55 -120 55 -127 0 -13 56 -108
79 -134 5 -7 16 -28 24 -47 8 -19 20 -38 26 -41 6 -4 11 -14 11 -23 0 -8 14
-33 32 -56 l32 -40 -29 19 c-17 10 -48 32 -70 50 -22 17 -68 48 -102 68 -35
21 -86 56 -115 79 -52 41 -204 144 -242 165 -18 9 -15 14 35 58 29 27 85 79
124 116 38 38 73 68 78 68 4 0 7 -9 7 -21z m1207 -61 c47 -35 111 -89 142
-122 31 -32 76 -72 101 -89 73 -50 110 -83 109 -94 0 -5 -37 -35 -82 -68 -44
-33 -168 -133 -276 -223 -107 -89 -196 -160 -199 -157 -3 2 2 30 11 62 8 32
21 90 28 128 7 39 16 72 19 75 11 9 40 85 64 165 13 44 36 105 50 135 14 30
26 61 26 68 0 8 9 25 20 39 23 30 25 43 6 43 -12 0 -103 -187 -121 -250 -4
-14 -21 -50 -37 -80 -23 -41 -29 -48 -24 -25 3 17 15 98 26 180 35 262 37 275
45 275 3 0 44 -28 92 -62z m416 -362 c9 -27 65 -106 115 -162 18 -21 18 -21
-47 -50 -61 -26 -282 -151 -513 -289 -9 -5 -43 -25 -75 -44 -32 -19 -76 -46
-98 -60 -36 -23 -180 -93 -324 -157 l-54 -24 24 22 c14 13 40 36 59 52 19 16
87 77 150 136 142 132 196 180 336 295 60 49 138 115 174 146 101 88 213 170
229 167 8 -2 19 -16 24 -32z"/>
</g>
</svg>
