<?xml version="1.0" standalone="no"?>
<!DOCTYPE svg PUBLIC "-//W3C//DTD SVG 20010904//EN"
 "http://www.w3.org/TR/2001/REC-SVG-20010904/DTD/svg10.dtd">
<svg version="1.0" xmlns="http://www.w3.org/2000/svg"
 width="274.000000pt" height="158.000000pt" viewBox="0 0 274.000000 158.000000"
 preserveAspectRatio="xMidYMid meet">
<metadata>
Created by potrace 1.16, written by Peter Selinger 2001-2019
</metadata>
<g transform="translate(0.000000,158.000000) scale(0.100000,-0.100000)"
fill="#000000" stroke="none">
<path d="M1255 1429 c-16 -5 -48 -10 -69 -10 -27 -1 -47 -9 -63 -25 -12 -12
-44 -37 -70 -55 -27 -18 -55 -38 -63 -46 -53 -48 -115 -85 -270 -160 -183 -90
-241 -110 -328 -120 -58 -6 -88 -32 -72 -62 50 -95 44 -191 -11 -191 -10 0
-20 -4 -23 -9 -9 -13 22 -34 39 -27 9 3 13 2 10 -4 -3 -5 16 -19 42 -31 26
-12 82 -38 123 -58 l75 -36 3 -67 c2 -49 7 -68 16 -68 16 0 29 41 20 64 -3 8
-2 22 3 31 8 14 22 9 110 -37 56 -29 115 -64 133 -78 18 -14 54 -32 80 -41 27
-9 60 -23 74 -32 24 -16 25 -19 19 -102 -5 -74 -4 -85 11 -91 24 -9 27 -3 33
73 3 39 11 71 18 75 10 6 11 18 3 50 -7 34 -4 129 5 134 1 0 36 10 77 22 58
17 102 22 195 22 66 0 194 5 285 11 167 11 562 19 591 11 13 -3 17 -23 22 -99
3 -53 10 -100 15 -105 22 -22 32 6 32 85 0 45 5 114 10 152 4 39 11 117 14
175 14 249 16 259 47 312 33 55 63 119 61 130 -1 3 12 21 28 38 17 18 30 36
30 42 0 5 -23 7 -57 2 -32 -3 -82 -7 -111 -9 -29 -1 -55 -4 -57 -7 -2 -2 0
-20 4 -39 5 -19 11 -82 14 -141 l5 -108 -62 0 c-33 -1 -162 -3 -286 -6 -295
-7 -676 -6 -703 1 -70 20 -78 27 -71 58 17 79 111 286 156 346 10 13 18 28 18
32 0 12 -66 10 -105 -2z m35 -44 c0 -2 -13 -26 -28 -52 -16 -26 -31 -57 -34
-68 -11 -35 -60 -150 -68 -158 -4 -5 -6 2 -4 15 3 13 8 48 13 78 5 30 10 81
10 112 1 56 2 58 34 67 35 10 77 14 77 6z m-196 -107 c-2 -18 -6 -125 -9 -238
-4 -192 -15 -391 -31 -572 l-7 -77 -73 39 c-96 51 -124 69 -154 98 -13 13 -39
30 -57 37 -19 8 -58 36 -88 62 l-55 48 0 60 c0 35 6 69 13 80 8 11 27 54 43
95 16 41 31 79 33 84 2 5 -10 6 -28 3 -41 -8 -32 7 17 32 20 10 80 53 132 95
52 42 124 92 160 110 37 19 74 44 85 55 24 27 25 27 19 -11z m48 -25 c-10 -28
-10 -28 -11 12 -1 28 2 36 10 28 8 -8 8 -19 1 -40z m1288 5 c-1 -24 -78 -173
-80 -153 -1 11 -2 47 -3 80 l-2 60 35 12 c45 15 50 15 50 1z m-1680 -153 c0
-7 -81 -60 -148 -96 -34 -19 -75 -41 -91 -50 -16 -9 -41 -23 -56 -33 -28 -19
-45 -14 -45 12 0 22 38 45 110 66 30 9 91 36 135 60 78 43 95 51 95 41z m1555
-157 c-3 -18 -9 -99 -14 -179 -4 -80 -11 -150 -14 -156 -4 -5 -87 -10 -204
-11 -109 -1 -212 -6 -230 -11 -17 -5 -185 -8 -373 -8 -291 2 -342 4 -350 17
-9 14 -7 131 4 175 2 11 8 41 11 67 7 44 10 49 44 58 20 5 44 10 53 10 10 0
47 11 83 25 65 24 67 24 511 29 245 3 449 7 452 10 3 3 12 6 19 6 10 0 12 -9
8 -32z m-1040 13 c16 -6 9 -11 -34 -20 -54 -12 -81 -4 -67 18 8 13 71 14 101
2z m-615 -18 c0 -13 -24 -73 -30 -73 -9 0 -5 65 5 72 13 10 25 10 25 1z m-77
-10 c9 -16 17 -181 10 -201 -8 -21 -12 -19 -80 32 l-71 54 18 28 c17 27 95 92
112 93 4 1 9 -2 11 -6z m-137 -171 c35 -19 74 -53 119 -101 l30 -32 -110 52
c-61 29 -112 54 -114 55 -5 5 30 44 38 44 3 -1 20 -9 37 -18z m698 -212 c-22
-9 -29 -6 -20 9 4 6 14 7 23 4 15 -6 14 -7 -3 -13z"/>
<path d="M785 1055 c-8 -14 -22 -37 -32 -52 -9 -15 -17 -54 -19 -88 -2 -33 -7
-96 -13 -140 -5 -46 -6 -84 -1 -89 5 -5 31 6 62 27 29 19 72 38 96 42 23 4 48
12 55 19 6 6 32 18 56 26 24 8 50 20 57 28 32 31 9 83 -65 147 -19 17 -48 43
-65 59 -56 52 -107 60 -131 21z m160 -120 c43 -41 77 -77 74 -79 -6 -5 -121
-50 -191 -75 l-58 -19 0 25 c0 24 15 128 26 181 3 13 12 22 24 22 10 0 22 5
25 10 11 17 18 12 100 -65z"/>
</g>
</svg>
