<?xml version="1.0" standalone="no"?>
<!DOCTYPE svg PUBLIC "-//W3C//DTD SVG 20010904//EN"
 "http://www.w3.org/TR/2001/REC-SVG-20010904/DTD/svg10.dtd">
<svg version="1.0" xmlns="http://www.w3.org/2000/svg"
 width="324.000000pt" height="210.000000pt" viewBox="0 0 324.000000 210.000000"
 preserveAspectRatio="xMidYMid meet">
<metadata>
Created by potrace 1.16, written by Peter Selinger 2001-2019
</metadata>
<g transform="translate(0.000000,210.000000) scale(0.100000,-0.100000)"
fill="#000000" stroke="none">
<path d="M1072 1960 c-24 -28 -69 -68 -100 -89 -59 -40 -90 -71 -157 -160 -22
-29 -96 -102 -165 -162 -69 -60 -134 -118 -145 -128 -48 -46 -142 -91 -188
-91 -19 0 -40 -6 -46 -14 -12 -15 -5 -22 50 -52 9 -5 31 -22 50 -38 l33 -28
-39 -34 c-22 -19 -51 -45 -65 -59 -14 -14 -31 -25 -38 -25 -7 0 -12 -7 -12
-15 0 -18 8 -18 40 0 38 22 69 17 140 -20 76 -39 72 -42 -77 -48 -98 -5 -113
-9 -113 -34 0 -12 9 -15 42 -11 l43 5 3 -43 c2 -32 -2 -45 -15 -52 -15 -9 -15
-12 -3 -26 14 -18 11 -59 -25 -321 -13 -93 -13 -102 4 -130 17 -30 17 -31 -3
-48 -21 -17 -21 -17 29 -59 28 -23 79 -70 113 -105 35 -35 68 -61 73 -57 5 3
9 18 9 33 0 16 7 34 15 41 8 7 15 19 15 26 0 26 105 157 195 245 117 114 125
120 146 114 14 -5 35 5 75 36 30 23 59 50 65 61 5 10 19 18 30 18 26 0 105
-46 113 -65 3 -8 16 -15 29 -15 21 0 25 6 30 39 4 33 18 70 70 193 7 15 70 88
141 163 71 75 135 144 143 153 11 15 14 15 23 2 5 -8 10 -28 10 -43 0 -56 32
-84 62 -54 34 35 254 147 287 147 4 0 7 -19 6 -42 -6 -157 -7 -359 -2 -364 4
-4 13 -2 20 5 16 13 26 122 29 300 1 104 3 117 23 137 18 18 30 21 76 17 85
-7 83 -5 75 -76 -9 -82 -20 -248 -20 -318 -1 -56 18 -99 36 -81 5 5 11 76 13
158 5 166 21 283 41 300 9 7 54 9 136 5 216 -10 609 -5 651 8 80 27 39 33
-190 29 -126 -1 -282 1 -348 5 -227 15 -248 17 -251 20 -4 4 72 191 111 272
19 39 57 101 84 140 28 38 47 72 43 76 -4 4 -38 0 -77 -8 -38 -8 -85 -11 -103
-8 -32 6 -33 7 -18 24 34 38 21 38 -174 7 -57 -9 -126 -15 -154 -12 -48 6 -82
-7 -70 -25 3 -5 18 -9 34 -9 16 0 31 -4 34 -8 9 -16 17 -412 8 -412 -39 0
-194 57 -244 90 -56 36 -63 38 -79 24 -9 -8 -22 -35 -29 -60 -7 -25 -18 -43
-24 -41 -6 2 -31 29 -55 61 -24 31 -62 69 -84 83 -23 14 -66 52 -96 83 -31 32
-77 68 -102 79 -73 34 -111 81 -130 161 -13 53 -15 79 -7 115 14 68 -1 72 -50
15z m18 -157 c0 -2 -20 7 -45 19 -25 12 -45 24 -45 27 0 4 15 16 32 28 l32 23
13 -48 c7 -26 12 -48 13 -49z m-88 -18 c25 -14 74 -52 109 -84 35 -32 85 -67
110 -78 27 -12 60 -38 80 -63 19 -23 62 -63 97 -88 35 -25 74 -62 87 -83 14
-21 36 -46 51 -56 104 -72 104 -73 -191 -368 -101 -102 -258 -226 -269 -214
-4 4 -11 100 -21 284 -3 55 -8 117 -11 139 -2 21 0 52 5 70 42 136 88 253 109
278 37 44 20 54 -67 40 -38 -7 -92 -12 -120 -12 -51 0 -70 -12 -54 -33 15 -19
31 -86 38 -152 3 -33 10 -85 14 -115 5 -30 7 -67 4 -82 -3 -14 3 -52 12 -85
10 -34 19 -111 22 -187 l6 -129 -39 23 c-21 13 -57 40 -79 61 -22 20 -67 51
-100 69 -108 57 -219 129 -227 147 -3 10 -4 33 -1 51 4 25 1 36 -13 46 -14 11
-18 26 -17 69 1 56 -14 86 -37 72 -5 -3 -10 -1 -10 5 0 27 59 96 179 210 72
68 163 161 202 207 38 45 74 83 78 83 5 0 29 -11 53 -25z m1203 -21 c-42 -65
-155 -283 -166 -324 l-13 -45 -7 110 c-3 61 -9 137 -13 170 -4 34 -3 66 3 74
5 9 43 19 93 26 129 19 123 20 103 -11z m203 -21 c-9 -10 -42 -69 -74 -131
-32 -61 -60 -109 -64 -105 -3 5 -3 60 0 123 l5 115 63 1 c35 1 66 4 69 8 14
14 15 5 1 -11z m-182 -175 c-4 -84 -12 -177 -17 -206 l-11 -54 -36 6 c-89 16
-92 17 -92 40 0 38 37 135 97 254 31 61 58 112 61 112 2 0 1 -69 -2 -152z
m-1170 -149 l-41 -102 -11 69 c-6 38 -14 81 -18 96 -7 25 -6 27 31 31 89 9 85
19 39 -94z m699 -69 c44 -22 93 -40 109 -40 38 0 106 -21 106 -32 0 -5 -19
-17 -42 -26 -24 -9 -90 -40 -148 -68 -102 -51 -105 -52 -112 -31 -3 12 -6 34
-7 50 -1 24 2 27 24 21 19 -5 25 -2 25 11 0 9 -11 30 -25 47 -14 16 -25 37
-25 46 0 16 11 62 14 62 1 0 37 -18 81 -40z m-1303 -45 c-20 -40 -27 -43 -42
-15 -9 16 -6 22 17 34 41 22 44 20 25 -19z m38 -119 c0 -8 10 -32 22 -55 12
-22 18 -44 15 -48 -4 -4 -28 3 -52 15 -25 12 -52 22 -60 22 -30 0 -23 20 17
48 49 35 58 37 58 18z m225 -292 c55 -29 118 -68 140 -87 22 -19 64 -47 92
-62 l51 -28 -29 -21 c-15 -12 -57 -41 -91 -65 -35 -24 -79 -58 -99 -76 -81
-72 -271 -158 -401 -180 l-36 -7 -7 45 c-4 25 -4 51 1 58 4 7 10 50 14 94 5
69 13 96 49 166 69 139 94 180 128 217 33 34 33 34 60 17 15 -10 72 -42 128
-71z m-245 60 c0 -6 -70 -119 -87 -141 -18 -22 -18 -21 -19 62 l0 84 35 3 c35
3 71 -1 71 -8z m734 -207 c-14 -26 -28 -47 -31 -47 -11 0 -43 21 -43 29 0 9
92 72 97 67 2 -2 -8 -24 -23 -49z m-626 -414 c-41 -49 -79 -95 -84 -103 -7
-12 -20 -5 -68 42 -38 37 -54 59 -45 62 59 17 219 71 239 82 14 7 27 10 29 8
2 -2 -30 -43 -71 -91z"/>
</g>
</svg>
