<?xml version="1.0" standalone="no"?>
<!DOCTYPE svg PUBLIC "-//W3C//DTD SVG 20010904//EN"
 "http://www.w3.org/TR/2001/REC-SVG-20010904/DTD/svg10.dtd">
<svg version="1.0" xmlns="http://www.w3.org/2000/svg"
 width="260.000000pt" height="134.000000pt" viewBox="0 0 260.000000 134.000000"
 preserveAspectRatio="xMidYMid meet">
<metadata>
Created by potrace 1.16, written by Peter Selinger 2001-2019
</metadata>
<g transform="translate(0.000000,134.000000) scale(0.100000,-0.100000)"
fill="#000000" stroke="none">
<path d="M940 1153 c-14 -10 -70 -39 -124 -65 -55 -26 -104 -52 -110 -58 -5
-5 -14 -10 -19 -10 -16 0 -102 -71 -220 -182 -103 -96 -123 -121 -159 -191
-33 -66 -40 -92 -42 -143 -1 -54 3 -68 29 -106 27 -38 42 -47 120 -77 86 -32
229 -62 360 -75 105 -11 476 -14 570 -5 50 4 158 13 240 18 83 6 186 13 230
16 73 5 146 14 185 21 15 3 252 13 318 14 26 0 32 4 32 21 0 13 -8 23 -21 26
-19 5 -21 10 -14 52 4 25 9 60 10 76 4 29 16 107 31 187 5 29 3 39 -9 43 -8 4
-77 -1 -153 -9 -249 -28 -393 -35 -806 -41 -223 -3 -414 -8 -422 -11 -21 -8
-20 33 3 236 19 172 21 271 6 277 -6 2 -22 -5 -35 -14z m-10 -117 c0 -28 -7
-103 -15 -166 -7 -64 -15 -136 -15 -160 -3 -81 -22 -285 -28 -300 -8 -21 -10
-29 -11 -79 l-1 -44 -77 7 c-90 7 -193 22 -199 29 -16 16 28 451 52 520 10 28
11 44 3 59 -17 31 -35 6 -44 -60 -4 -31 -9 -68 -11 -82 -1 -14 -12 -102 -24
-197 -11 -95 -25 -184 -30 -198 -12 -31 -27 -31 -110 3 -89 37 -114 74 -106
156 10 99 61 192 156 284 107 103 157 149 193 175 44 33 236 115 255 109 7 -3
12 -23 12 -56z m1355 -373 c-3 -10 -11 -58 -17 -108 -6 -49 -14 -94 -18 -100
-4 -5 -8 -30 -9 -55 -1 -24 -3 -46 -5 -47 -1 -1 -56 -7 -122 -13 -65 -6 -135
-13 -154 -15 -53 -6 -249 -23 -405 -36 -142 -11 -627 -15 -644 -5 -13 8 -8 60
7 79 11 13 21 103 23 217 l1 36 232 2 c470 4 713 16 966 46 153 19 153 19 145
-1z"/>
</g>
</svg>
