<?xml version="1.0" standalone="no"?>
<!DOCTYPE svg PUBLIC "-//W3C//DTD SVG 20010904//EN"
 "http://www.w3.org/TR/2001/REC-SVG-20010904/DTD/svg10.dtd">
<svg version="1.0" xmlns="http://www.w3.org/2000/svg"
 width="322.000000pt" height="162.000000pt" viewBox="0 0 322.000000 162.000000"
 preserveAspectRatio="xMidYMid meet">
<metadata>
Created by potrace 1.16, written by Peter Selinger 2001-2019
</metadata>
<g transform="translate(0.000000,162.000000) scale(0.100000,-0.100000)"
fill="#000000" stroke="none">
<path d="M1554 1462 c1 -53 -36 -110 -78 -117 -18 -4 -63 -30 -101 -58 -93
-70 -312 -179 -320 -160 -8 23 -6 63 4 63 5 0 12 15 15 34 7 34 58 138 84 168
20 23 6 41 -27 34 -14 -4 -66 -9 -115 -11 -49 -2 -94 -9 -99 -14 -6 -6 -4 -22
8 -46 9 -21 13 -41 8 -45 -4 -4 -44 -21 -88 -38 -44 -17 -134 -54 -200 -82
-187 -81 -388 -142 -475 -144 -25 -1 -51 -5 -57 -9 -19 -12 -16 -58 7 -105 11
-22 20 -47 20 -55 0 -8 -18 -37 -40 -65 -22 -27 -40 -55 -40 -61 0 -16 29 -27
110 -40 41 -7 93 -18 115 -24 39 -11 117 -55 123 -69 2 -5 8 -8 14 -8 5 0 24
-11 41 -24 30 -23 85 -50 97 -48 3 0 4 -17 2 -39 -4 -41 15 -56 25 -19 3 11 8
20 10 20 9 0 124 -80 180 -126 29 -24 70 -53 91 -63 20 -10 48 -31 61 -45 13
-14 28 -23 34 -19 6 3 7 1 4 -4 -4 -6 14 -27 38 -48 25 -20 45 -42 44 -48 -3
-29 3 -37 29 -37 16 0 37 9 46 19 10 11 28 22 41 25 22 6 68 26 240 106 198
92 286 130 335 146 30 9 82 30 115 45 140 65 400 169 422 169 6 0 13 4 15 8 3
8 159 75 243 106 63 22 175 67 230 92 28 12 52 22 55 21 3 0 25 11 50 25 63
36 94 41 130 23 17 -9 35 -13 40 -10 12 8 -8 42 -30 49 -8 3 -24 11 -35 18
-67 44 -102 62 -117 59 -10 -1 -18 3 -18 8 0 6 -14 11 -30 11 -17 0 -55 14
-85 31 -31 17 -156 61 -287 101 -298 89 -273 81 -348 116 -80 36 -213 92 -342
143 -53 21 -115 47 -137 58 -54 28 -59 27 -57 -17z m161 -56 c45 -13 104 -33
133 -45 29 -11 76 -31 105 -42 28 -12 84 -36 122 -53 39 -18 96 -41 128 -50
32 -10 56 -20 53 -23 -10 -10 -79 -4 -86 7 -5 7 -19 11 -34 8 -14 -3 -26 -1
-26 4 0 6 -7 7 -16 4 -16 -6 -77 10 -99 25 -5 4 -28 10 -50 13 -41 7 -189 32
-237 41 -15 3 -39 10 -53 15 -15 6 -37 10 -50 10 -13 0 -26 4 -29 9 -8 13 33
101 47 101 7 0 48 -11 92 -24z m-628 -50 c-2 -6 -14 -39 -27 -73 l-23 -63 -33
56 c-39 65 -42 82 -14 92 29 11 102 2 97 -12z m417 -71 c8 -30 36 -33 43 -5 6
22 19 24 72 10 20 -5 70 -16 111 -25 41 -9 95 -23 120 -30 25 -7 66 -16 93
-20 32 -4 45 -10 41 -18 -5 -9 -4 -9 5 -1 10 9 19 8 39 -2 15 -8 33 -14 41
-14 21 0 81 -23 81 -31 0 -15 -35 -18 -174 -18 -79 1 -149 -2 -154 -5 -6 -3
-17 -3 -25 0 -17 6 -40 -27 -32 -48 5 -14 9 -77 21 -340 7 -153 10 -164 39
-158 6 1 35 3 65 5 30 2 79 8 109 14 29 6 61 11 70 11 24 -1 -89 -40 -115 -40
-12 0 -32 -8 -45 -19 -13 -10 -53 -28 -89 -40 -36 -13 -80 -32 -98 -43 -18
-11 -63 -28 -100 -38 -37 -9 -78 -20 -92 -25 -17 -5 -22 -4 -15 3 6 5 27 15
48 22 20 6 37 16 37 21 0 11 -24 5 -83 -20 -22 -9 -35 -21 -32 -28 2 -7 0 -13
-6 -13 -6 0 -25 -6 -42 -14 -41 -19 -223 -78 -310 -101 -53 -14 -70 -16 -80
-6 -14 14 -20 268 -6 277 5 3 23 -3 40 -13 l30 -18 29 35 c15 19 27 37 24 41
-2 3 3 15 10 25 14 18 15 18 34 0 12 -10 18 -24 15 -31 -2 -8 3 -28 13 -44 18
-30 18 -31 -1 -46 -11 -8 -29 -14 -40 -12 -14 1 -21 -5 -23 -21 -3 -18 4 -26
35 -38 21 -9 46 -23 55 -31 21 -19 41 -7 65 41 9 17 22 35 29 39 8 4 14 16 14
26 0 9 7 26 15 37 30 39 14 49 -21 11 -19 -20 -37 -37 -40 -37 -12 0 19 41 47
62 18 12 56 47 85 77 l53 54 27 -22 c36 -28 59 -11 27 21 l-22 21 24 18 c22
18 42 66 31 77 -3 2 -25 -16 -48 -42 l-43 -46 -80 76 c-44 42 -92 82 -107 90
-38 20 -35 52 8 87 l34 29 0 -65 c0 -72 11 -88 41 -61 23 21 26 42 3 23 -15
-12 -16 -6 -10 68 6 89 -2 108 -31 71 -10 -13 -39 -44 -65 -71 l-48 -47 40
-40 c22 -22 40 -42 40 -45 0 -9 -50 -52 -87 -76 -45 -28 -57 -17 -49 42 5 36
3 49 -6 49 -14 0 -108 -89 -108 -102 0 -5 13 -21 28 -36 l29 -28 -45 -39 c-52
-45 -63 -38 -51 36 4 28 9 78 10 112 0 34 2 80 3 102 2 22 3 54 4 71 2 25 8
33 26 38 14 3 71 50 128 104 140 134 170 159 220 186 47 25 62 21 72 -19z
m-520 -60 c19 -46 20 -69 17 -300 -6 -424 -6 -579 1 -616 11 -64 -2 -65 -90
-5 -45 30 -104 73 -132 95 -28 22 -83 62 -121 88 l-70 47 4 148 c3 82 10 155
16 161 5 7 24 55 41 106 35 105 59 160 78 179 23 25 13 33 -39 28 -62 -6 -57
-1 46 46 208 94 220 96 249 23z m250 -67 c-10 -11 -52 -48 -93 -80 -84 -67
-92 -66 -82 14 1 3 39 21 86 39 47 17 88 36 91 40 3 5 8 9 11 9 3 0 -2 -10
-13 -22z m1143 -14 c-3 -3 -12 -4 -19 -1 -8 3 -5 6 6 6 11 1 17 -2 13 -5z m-2
-25 l20 -8 -20 -1 c-16 0 -17 -2 -6 -9 9 -6 21 -5 31 2 14 8 35 4 93 -16 41
-15 88 -27 104 -26 l28 1 -34 14 c-19 9 -73 26 -120 39 -50 14 -74 24 -58 24
16 1 37 -4 47 -9 10 -6 32 -11 47 -13 16 -2 34 -6 39 -10 6 -3 33 -13 60 -23
27 -9 70 -29 95 -44 26 -16 71 -36 100 -46 85 -28 120 -44 114 -55 -4 -5 -15
-9 -25 -9 -10 0 -22 -5 -25 -10 -5 -8 -12 -7 -22 1 -20 17 -69 -1 -158 -59
-38 -25 -106 -60 -150 -77 -44 -18 -99 -41 -121 -53 -43 -22 -144 -62 -156
-62 -4 0 -5 10 -3 22 10 47 14 335 6 368 -11 49 -5 60 30 53 28 -5 43 11 17
20 -7 2 1 2 17 -1 17 -2 39 -8 50 -13z m-1818 -16 c-4 -3 -1 -13 5 -21 17 -20
15 -506 -1 -517 -8 -5 -80 41 -144 92 -109 86 -125 101 -119 109 4 4 2 4 -5 0
-7 -4 -29 11 -53 35 l-41 41 78 79 c42 43 79 83 82 87 3 5 21 17 39 26 17 9
32 23 32 32 0 8 4 13 8 10 4 -2 26 4 47 14 39 18 85 27 72 13z m110 -12 c-2
-10 -8 -25 -14 -33 -5 -7 -18 -48 -28 -91 -10 -42 -20 -75 -23 -72 -2 2 -6 52
-7 110 l-2 105 39 0 c32 0 37 -3 35 -19z m1563 -10 c0 -27 -3 -29 -57 -37 -32
-5 -69 -9 -83 -9 -33 0 -39 -30 -8 -39 38 -10 72 -6 92 9 32 24 53 19 58 -15
l4 -29 -80 -3 c-69 -3 -81 -6 -84 -21 -4 -17 3 -19 75 -15 77 3 78 3 78 -22 0
-24 -3 -25 -67 -28 -43 -2 -71 -8 -78 -17 -11 -13 -2 -15 64 -15 l76 0 0 -29
c0 -26 -3 -29 -40 -33 -22 -2 -45 1 -50 6 -6 6 -15 4 -25 -4 -16 -13 -15 -15
1 -27 9 -7 29 -10 43 -7 76 16 71 17 71 -22 l0 -37 -59 6 c-64 5 -77 1 -60
-20 14 -15 72 -17 100 -3 10 6 19 7 19 2 0 -21 -29 -29 -105 -30 -44 -1 -98
-4 -120 -8 -37 -5 -38 -5 -21 9 18 13 15 15 -40 19 -57 5 -90 -5 -78 -23 3 -5
-3 -9 -13 -9 -17 0 -18 14 -21 176 l-2 177 51 -6 c50 -6 89 4 89 23 0 6 -31
10 -70 10 -67 0 -70 1 -70 24 0 13 6 28 13 34 6 5 59 13 117 16 113 7 192 16
199 22 2 2 22 4 43 4 35 0 38 -2 38 -29z m-1900 -49 c0 -10 -138 -147 -143
-141 -2 2 -9 24 -16 49 -12 41 -12 45 9 62 12 10 36 18 54 19 17 1 42 5 56 9
34 11 40 11 40 2z m2480 -152 c-8 -5 -19 -10 -25 -10 -5 0 -3 5 5 10 8 5 20
10 25 10 6 0 3 -5 -5 -10z m-40 -15 c0 -6 -56 -35 -67 -35 -4 1 8 9 27 20 39
22 40 22 40 15z m-1347 -97 c66 -59 67 -62 50 -81 -25 -28 -162 -137 -173
-137 -5 0 -16 15 -25 34 -9 18 -27 44 -41 57 -13 12 -24 29 -24 37 0 22 50 86
92 116 21 15 38 32 38 38 0 6 3 8 8 4 4 -4 37 -35 75 -68z m-1203 12 c24 -23
41 -42 39 -44 -5 -5 -119 13 -130 20 -9 5 30 64 42 64 4 0 26 -18 49 -40z
m938 -5 c1 -20 4 -40 7 -45 11 -18 -8 -10 -32 12 l-23 22 22 23 c12 13 22 23
23 23 1 0 2 -16 3 -35z m2 -120 c0 -9 -11 -33 -25 -55 -25 -40 -26 -40 -51
-24 -31 21 -29 25 21 63 46 34 55 37 55 16z m773 -32 c-13 -2 -33 -2 -45 0
-13 2 -3 4 22 4 25 0 35 -2 23 -4z m146 -47 c-14 -12 -202 -91 -244 -102 -103
-28 -100 -15 6 23 41 14 108 39 149 54 70 26 99 34 89 25z m-772 -105 c3 -32
-21 -45 -53 -28 l-28 14 30 16 c39 21 49 21 51 -2z m413 -52 c-30 -12 -116
-46 -190 -77 -400 -166 -420 -173 -420 -152 0 6 -7 10 -15 10 -13 0 -14 4 -5
20 6 11 19 20 29 20 10 0 21 3 25 7 3 4 15 8 26 10 10 1 61 19 112 38 51 20
113 44 138 53 25 9 47 20 48 25 2 4 8 4 13 1 6 -3 18 -2 27 2 21 9 16 7 132
34 52 11 96 23 99 26 2 2 11 4 20 3 9 0 -9 -9 -39 -20z"/>
<path d="M1864 918 c-9 -14 15 -28 48 -28 23 0 47 16 37 24 -12 10 -80 13 -85
4z"/>
<path d="M1867 843 c-14 -14 -6 -21 32 -26 51 -6 91 2 91 19 0 10 -15 14 -58
14 -32 0 -62 -3 -65 -7z"/>
<path d="M1880 770 c-13 -9 -13 -11 0 -20 19 -12 80 -13 100 0 8 5 12 11 10
13 -12 11 -97 16 -110 7z"/>
</g>
</svg>
