<?xml version="1.0" standalone="no"?>
<!DOCTYPE svg PUBLIC "-//W3C//DTD SVG 20010904//EN"
 "http://www.w3.org/TR/2001/REC-SVG-20010904/DTD/svg10.dtd">
<svg version="1.0" xmlns="http://www.w3.org/2000/svg"
 width="164.000000pt" height="164.000000pt" viewBox="0 0 164.000000 164.000000"
 preserveAspectRatio="xMidYMid meet">
<metadata>
Created by potrace 1.16, written by Peter Selinger 2001-2019
</metadata>
<g transform="translate(0.000000,164.000000) scale(0.100000,-0.100000)"
fill="#000000" stroke="none">
<path d="M770 1388 c-178 -184 -241 -239 -397 -343 -62 -42 -115 -80 -119 -87
-7 -11 26 -45 99 -101 21 -15 37 -34 37 -41 0 -23 -69 -102 -110 -125 -56 -31
-51 -51 14 -58 17 -2 48 -12 71 -22 22 -10 79 -31 126 -45 48 -15 95 -33 105
-41 11 -8 26 -15 34 -15 21 0 179 -77 216 -105 16 -13 52 -34 80 -47 44 -22
143 -96 262 -196 47 -40 75 -47 80 -20 2 11 -28 42 -92 92 -52 42 -98 81 -101
87 -4 6 -30 26 -59 44 -28 18 -63 43 -77 56 -59 55 -121 101 -177 131 -33 18
-83 53 -112 78 -28 25 -70 58 -93 73 -23 16 -57 42 -74 58 l-32 29 23 45 c14
25 23 45 20 45 -2 0 14 24 36 53 22 28 47 68 57 87 9 19 45 78 80 132 34 53
63 100 63 105 0 5 13 24 30 43 16 19 29 42 30 50 0 8 34 51 75 95 67 72 89
105 68 105 -5 0 -78 -73 -163 -162z m-81 -149 c-17 -32 -175 -270 -201 -303
-13 -15 -27 -37 -32 -47 -5 -11 -12 -19 -16 -19 -9 0 -100 90 -100 99 0 3 28
25 63 48 79 54 216 168 252 211 30 36 52 43 34 11z m-92 -620 c12 -9 20 -19
16 -22 -3 -4 0 -14 8 -23 8 -10 10 -15 4 -13 -5 3 -21 10 -35 16 -14 7 -73 31
-133 53 l-107 42 31 39 31 39 81 -57 c45 -31 92 -64 104 -74z m98 -79 c3 -6
-1 -7 -9 -4 -18 7 -21 14 -7 14 6 0 13 -4 16 -10z"/>
</g>
</svg>
