<?xml version="1.0" standalone="no"?>
<!DOCTYPE svg PUBLIC "-//W3C//DTD SVG 20010904//EN"
 "http://www.w3.org/TR/2001/REC-SVG-20010904/DTD/svg10.dtd">
<svg version="1.0" xmlns="http://www.w3.org/2000/svg"
 width="151.000000pt" height="147.000000pt" viewBox="0 0 151.000000 147.000000"
 preserveAspectRatio="xMidYMid meet">
<metadata>
Created by potrace 1.16, written by Peter Selinger 2001-2019
</metadata>
<g transform="translate(0.000000,147.000000) scale(0.100000,-0.100000)"
fill="#000000" stroke="none">
<path d="M1014 1398 c-16 -12 -50 -41 -76 -65 -26 -24 -52 -43 -57 -43 -6 0
-45 -21 -88 -46 -43 -25 -88 -50 -100 -55 -26 -10 -31 -29 -8 -29 9 0 25 -9
37 -19 11 -11 33 -26 50 -34 l29 -14 -33 -25 c-83 -62 -309 -178 -368 -187
-46 -8 -49 -30 -10 -75 17 -19 29 -40 25 -45 -3 -6 -26 -25 -50 -42 -24 -18
-42 -36 -39 -41 3 -4 10 -6 15 -3 5 4 15 3 21 -2 13 -8 93 -25 208 -43 36 -5
83 -16 105 -24 22 -8 49 -16 60 -18 28 -5 -91 -65 -234 -117 -103 -38 -228
-69 -354 -87 -41 -5 -47 -9 -47 -29 0 -23 35 -88 90 -170 15 -22 29 -49 31
-60 2 -11 16 -24 30 -29 33 -11 52 2 142 105 37 43 109 112 160 153 51 40 101
82 112 93 48 45 94 72 145 87 30 8 98 27 150 41 52 15 169 47 260 72 170 47
200 60 164 69 -13 3 -23 19 -31 47 -6 23 -15 56 -21 72 -6 17 -17 52 -24 80
-8 28 -20 51 -29 53 -8 1 -30 -17 -48 -42 -18 -24 -45 -53 -60 -64 l-28 -20
-43 85 c-57 114 -70 179 -60 307 4 56 12 114 19 129 24 60 6 74 -45 35z m-16
-70 c-19 -33 -13 -245 7 -284 8 -16 15 -37 15 -46 0 -9 5 -20 10 -23 6 -3 10
-11 10 -16 0 -6 -30 17 -67 51 -87 80 -143 118 -204 139 l-49 18 48 26 c26 14
76 41 112 60 36 19 78 49 94 66 35 37 41 39 24 9z m-112 -300 c27 -24 87 -81
133 -127 83 -82 84 -84 64 -100 -76 -59 -162 -117 -224 -152 l-73 -42 -146 74
c-80 41 -147 75 -149 77 -3 1 10 17 27 35 18 18 32 36 32 40 0 22 250 235 276
237 7 0 34 -19 60 -42z m-273 -96 c-17 -15 -56 -49 -86 -75 -50 -43 -58 -47
-76 -35 -31 19 -26 34 17 52 20 9 66 32 102 51 79 41 84 42 43 7z m657 -98 c0
-13 6 -27 13 -31 23 -14 58 -83 44 -88 -61 -21 -122 -39 -242 -69 -77 -19
-167 -44 -199 -55 -111 -39 -109 -20 4 39 30 16 78 47 105 69 28 22 73 54 102
71 29 17 74 51 100 75 43 39 49 42 61 27 6 -8 12 -26 12 -38z m-735 -129 c41
-20 77 -40 80 -45 9 -15 -42 -12 -105 5 -30 8 -69 15 -87 15 -17 0 -34 4 -37
9 -7 10 42 50 62 51 7 0 46 -16 87 -35z m135 -222 c-14 -10 -34 -26 -45 -36
-11 -11 -37 -32 -57 -47 -102 -75 -179 -147 -245 -229 l-41 -51 -13 37 c-18
57 -70 152 -98 182 -13 14 -6 17 55 31 38 9 79 20 89 25 11 4 38 10 60 12 39
3 120 29 141 45 6 5 18 6 26 3 8 -3 39 6 69 20 63 29 96 33 59 8z"/>
</g>
</svg>
