<?xml version="1.0" standalone="no"?>
<!DOCTYPE svg PUBLIC "-//W3C//DTD SVG 20010904//EN"
 "http://www.w3.org/TR/2001/REC-SVG-20010904/DTD/svg10.dtd">
<svg version="1.0" xmlns="http://www.w3.org/2000/svg"
 width="310.000000pt" height="150.000000pt" viewBox="0 0 310.000000 150.000000"
 preserveAspectRatio="xMidYMid meet">
<metadata>
Created by potrace 1.16, written by Peter Selinger 2001-2019
</metadata>
<g transform="translate(0.000000,150.000000) scale(0.100000,-0.100000)"
fill="#000000" stroke="none">
<path d="M517 1156 c-17 -18 -71 -54 -119 -80 -49 -26 -88 -52 -88 -56 0 -11
36 -67 82 -129 69 -92 320 -323 442 -406 17 -12 54 -37 82 -57 28 -20 67 -41
85 -47 55 -16 118 -40 157 -59 21 -10 57 -24 82 -31 25 -7 55 -17 66 -21 21
-8 92 7 209 45 44 14 164 38 250 51 38 5 147 29 200 44 22 6 62 15 89 20 26 5
62 13 80 19 31 9 90 21 135 27 29 4 98 20 201 47 41 11 98 23 125 27 28 4 77
16 110 27 33 12 76 24 95 28 19 4 41 12 47 17 40 32 -46 58 -412 124 -12 2
-50 13 -84 24 -34 11 -85 22 -114 26 -60 7 -131 23 -237 52 -41 12 -127 33
-190 47 -179 41 -430 132 -430 156 0 22 -36 4 -103 -51 -92 -77 -405 -313
-435 -329 -18 -10 -26 -9 -46 6 -56 42 -202 295 -216 375 -4 22 -3 55 3 73 8
26 7 38 -3 50 -18 22 -26 19 -63 -19z m3 -85 c0 -80 145 -327 257 -438 29 -29
56 -53 61 -53 5 0 17 -10 28 -21 18 -21 59 -50 128 -94 31 -19 100 -70 121
-88 12 -10 -19 1 -55 20 -14 7 -33 13 -43 13 -22 0 -186 111 -273 185 -106 89
-265 249 -299 300 -19 28 -44 61 -57 75 -13 13 -21 27 -20 30 14 21 33 35 81
60 67 35 71 35 71 11z m902 -75 c49 -22 181 -64 344 -111 28 -8 61 -15 74 -15
18 0 21 -3 13 -11 -8 -8 -59 -1 -184 25 -96 20 -190 38 -209 42 -19 3 -42 7
-50 9 -8 2 -39 6 -67 10 -29 4 -53 10 -53 14 1 4 53 46 76 60 1 1 26 -10 56
-23z m-32 -96 c-5 -9 -11 -79 -15 -156 -3 -76 -9 -186 -13 -244 -4 -58 -6
-122 -5 -143 1 -35 0 -37 -28 -37 -16 0 -29 3 -30 8 -5 53 7 438 17 535 5 39
3 57 -5 57 -6 0 -12 -15 -12 -32 -1 -18 -3 -46 -4 -63 -1 -16 -5 -133 -10
-260 -4 -126 -8 -231 -10 -233 -1 -1 -14 2 -29 8 l-27 10 6 142 c3 79 10 182
15 229 6 48 9 113 9 144 -1 32 3 60 9 64 6 4 40 2 76 -3 55 -8 63 -12 56 -26z
m137 -6 c41 -10 44 -13 32 -37 -13 -24 -20 -487 -8 -487 14 0 19 58 18 255 0
110 2 208 4 218 5 28 23 40 47 32 22 -7 23 -10 18 -129 -3 -66 -2 -155 1 -196
6 -72 -3 -168 -17 -182 -4 -3 -42 -9 -86 -13 l-78 -8 6 119 c14 268 18 416 9
411 -5 -3 -10 -50 -11 -104 -1 -54 -5 -132 -8 -173 -3 -41 -9 -117 -12 -169
-7 -93 -8 -95 -34 -102 -26 -7 -28 -5 -30 24 0 18 0 39 1 47 1 8 4 78 7 155 7
178 13 281 20 323 5 32 6 33 49 28 25 -3 57 -9 72 -12z m-394 -49 c-33 -30
-103 -100 -155 -156 l-94 -100 -25 20 -24 21 22 18 c12 9 70 53 128 97 58 44
127 97 153 117 68 54 66 46 -5 -17z m93 -57 c-4 -62 -9 -147 -12 -188 -2 -41
-7 -112 -10 -157 l-6 -83 -24 18 c-21 15 -23 25 -23 92 0 41 4 93 9 115 5 21
12 91 16 155 5 96 10 119 27 138 11 12 23 22 25 22 3 0 2 -51 -2 -112z m508
57 c9 -9 13 -27 11 -48 -8 -62 -27 -301 -26 -331 0 -17 2 -41 5 -53 4 -19 -1
-24 -32 -33 -51 -14 -53 -13 -41 17 6 15 9 101 8 197 -3 277 -4 266 30 266 16
0 36 -7 45 -15z m246 -12 c47 -14 144 -36 217 -49 72 -12 140 -27 150 -32 18
-10 93 -26 164 -36 19 -3 46 -10 60 -15 l24 -10 -25 0 c-14 -1 -42 4 -62 9
-20 6 -65 14 -100 19 -61 8 -154 29 -323 73 -44 12 -109 26 -144 32 -36 7 -66
17 -69 24 -5 17 12 15 108 -15z m-143 -200 c-6 -173 -1 -224 17 -194 4 5 7 93
8 196 l3 186 25 -6 c14 -4 27 -9 30 -12 3 -2 7 -81 10 -174 7 -226 25 -224 24
4 l-1 167 28 -2 c21 -2 29 -8 30 -23 4 -81 3 -315 -2 -319 -4 -4 -36 -15 -72
-25 -36 -11 -75 -22 -87 -26 -15 -5 -20 -4 -16 4 10 15 -8 14 -49 -3 l-34 -15
-7 37 c-9 44 -9 93 0 146 4 22 9 69 11 105 3 36 7 89 11 117 l6 52 36 -11 35
-11 -6 -193z m-682 100 c-4 -60 -11 -132 -16 -162 -5 -30 -9 -79 -9 -108 0
-29 -4 -53 -9 -53 -13 0 -61 59 -61 76 0 8 -5 14 -11 14 -5 0 -7 -4 -4 -10 10
-16 -11 -11 -35 8 -21 17 -22 21 -12 111 8 72 14 96 30 112 12 10 24 19 28 19
4 0 4 -52 1 -116 -4 -64 -4 -114 -1 -111 7 7 11 35 23 160 8 85 13 102 38 131
15 19 32 35 36 35 5 1 5 -47 2 -106z m921 37 l29 -10 0 -103 c0 -109 8 -157
27 -157 12 0 7 52 -13 125 -1 6 1 27 6 49 6 28 4 40 -6 47 -10 6 -11 9 -1 9 6
0 12 7 12 15 0 16 23 19 53 7 14 -6 18 -23 21 -103 3 -98 11 -128 28 -111 5 5
5 34 -2 75 -6 37 -9 80 -8 97 2 29 4 30 38 24 44 -8 41 -5 32 -39 -9 -33 5
-145 20 -160 6 -7 8 16 4 68 -3 43 -2 85 1 93 6 16 30 15 160 -7 l61 -11 4
-53 c3 -47 0 -55 -17 -60 -114 -33 -443 -105 -479 -105 -7 0 -12 10 -10 23 1
12 3 84 3 160 1 75 3 137 5 137 1 0 16 -5 32 -10z m619 -90 c4 -6 -6 -7 -27
-3 -44 8 -48 13 -10 13 17 0 34 -4 37 -10z m20 -28 c22 -2 50 -5 62 -6 30 -1
17 -10 -46 -29 -58 -18 -71 -16 -71 14 0 10 -4 19 -10 19 -5 0 -10 -13 -10
-29 0 -25 -5 -31 -31 -36 -38 -8 -39 -7 -45 45 l-5 43 58 -8 c32 -4 76 -10 98
-13z m-1741 -59 c-3 -32 -7 -59 -8 -60 -1 -1 -14 6 -28 15 l-27 18 32 41 c18
23 33 42 35 43 2 0 0 -26 -4 -57z"/>
<path d="M2377 683 c-10 -10 -8 -88 3 -117 12 -32 33 -35 25 -3 -3 12 -7 43
-9 69 -2 49 -8 63 -19 51z"/>
<path d="M2462 668 c-16 -16 -15 -70 1 -93 18 -24 30 -5 18 28 -6 14 -8 37 -5
51 5 29 3 31 -14 14z"/>
</g>
</svg>
