<?xml version="1.0" standalone="no"?>
<!DOCTYPE svg PUBLIC "-//W3C//DTD SVG 20010904//EN"
 "http://www.w3.org/TR/2001/REC-SVG-20010904/DTD/svg10.dtd">
<svg version="1.0" xmlns="http://www.w3.org/2000/svg"
 width="256.000000pt" height="190.000000pt" viewBox="0 0 256.000000 190.000000"
 preserveAspectRatio="xMidYMid meet">
<metadata>
Created by potrace 1.16, written by Peter Selinger 2001-2019
</metadata>
<g transform="translate(0.000000,190.000000) scale(0.100000,-0.100000)"
fill="#000000" stroke="none">
<path d="M1065 1807 c-10 -5 -35 -7 -56 -4 -62 8 -70 -9 -63 -134 3 -57 7
-107 7 -110 2 -7 -36 -35 -164 -122 -36 -25 -119 -73 -185 -107 -65 -34 -123
-66 -129 -70 -21 -17 -171 -88 -190 -91 -11 -1 -28 1 -37 6 -23 9 -44 1 -57
-24 -10 -17 -4 -28 33 -74 l44 -54 -35 -36 c-44 -43 -40 -67 11 -67 39 0 171
-81 301 -186 39 -31 104 -81 145 -112 41 -31 80 -61 86 -67 7 -5 32 -22 57
-37 38 -22 46 -32 52 -67 4 -23 11 -41 17 -41 6 0 8 -14 4 -36 -6 -31 -5 -35
10 -32 21 4 32 35 33 100 1 28 -4 48 -11 51 -8 3 -6 6 4 6 21 1 65 -55 70 -89
2 -19 10 -26 31 -28 20 -3 27 1 27 13 0 34 283 282 389 340 20 11 38 23 39 28
2 4 8 7 14 7 6 0 29 15 52 33 50 41 150 105 182 117 21 8 22 7 15 -13 -27 -70
-138 -273 -161 -297 -23 -24 -27 -34 -21 -57 10 -39 37 -35 59 7 10 21 42 52
83 80 36 25 98 71 136 103 39 31 74 57 78 57 4 0 22 12 40 28 18 15 56 45 84
67 29 22 68 53 88 70 19 16 45 29 57 30 14 0 20 6 18 16 -1 9 4 19 13 23 21 8
19 38 -1 34 -10 -2 -29 7 -43 20 -51 45 -177 133 -228 159 -51 27 -52 27 -73
8 -13 -11 -18 -25 -14 -34 4 -9 6 -24 6 -34 -1 -22 -75 -177 -84 -177 -4 0
-14 15 -21 33 -8 17 -36 52 -62 77 -88 82 -107 104 -160 185 -28 44 -84 115
-123 157 -39 43 -91 103 -114 136 -55 73 -63 83 -120 139 -27 25 -48 54 -48
64 0 14 -7 18 -34 17 -19 -1 -42 -5 -51 -11z m8 -64 c-4 -10 -13 -29 -20 -42
-6 -14 -18 -47 -25 -73 -6 -27 -17 -47 -22 -45 -6 2 -12 38 -14 80 l-3 76 33
10 c50 14 58 13 51 -6z m119 -69 c24 -28 57 -68 73 -89 35 -45 53 -65 143
-160 72 -75 126 -153 94 -136 -9 5 -73 62 -141 128 -114 109 -242 215 -272
225 -8 3 -6 17 9 52 25 56 31 55 94 -20z m-89 -76 c14 -13 36 -31 50 -40 19
-13 23 -23 19 -47 -4 -26 -7 -29 -22 -21 -10 5 -38 11 -63 11 -49 2 -47 -4
-26 82 6 20 11 37 13 37 2 0 15 -10 29 -22z m130 -125 c-7 -3 -13 -12 -13 -21
0 -9 -5 -24 -10 -32 -7 -11 -10 2 -10 45 l0 59 23 -23 c15 -16 18 -25 10 -28z
m-287 -35 c-4 -40 -11 -116 -16 -168 -5 -52 -11 -106 -15 -120 -3 -14 -8 -81
-11 -149 -3 -69 -7 -128 -9 -131 -2 -4 -5 -71 -6 -149 -1 -78 -4 -155 -8 -171
l-6 -30 -30 20 c-21 14 -25 20 -12 20 27 0 20 15 -20 46 -40 30 -264 256 -368
371 l-60 66 65 58 c35 33 69 59 73 59 5 0 26 17 46 38 77 78 357 311 375 312
5 0 6 -31 2 -72z m224 2 c0 -30 -1 -30 -50 -29 -27 1 -50 6 -50 10 0 16 33 39
49 35 9 -3 23 -1 31 4 20 13 20 14 20 -20z m230 -108 c25 -23 73 -62 108 -87
34 -26 62 -51 62 -56 0 -5 5 -9 12 -9 15 0 115 -94 151 -142 16 -21 24 -38 18
-38 -20 0 -12 -20 12 -30 20 -8 20 -9 2 -10 -11 0 -42 -13 -70 -29 -162 -92
-221 -126 -225 -131 -3 -4 -12 -10 -20 -13 -8 -4 -46 -25 -85 -46 -156 -87
-208 -112 -215 -104 -4 4 -2 100 6 213 18 286 24 342 40 367 8 12 14 33 14 46
0 13 9 57 21 98 11 41 21 82 22 92 1 13 14 5 52 -31 27 -27 70 -67 95 -90z
m-350 106 c0 -6 -7 -19 -16 -29 -25 -27 -8 -39 55 -39 32 0 60 -2 63 -5 2 -3
3 -18 0 -35 -4 -29 -5 -29 -76 -32 -55 -2 -71 -6 -71 -18 0 -12 15 -15 75 -15
l75 -1 -4 -29 c-5 -43 -7 -45 -59 -42 -54 4 -105 -10 -99 -27 3 -7 29 -10 76
-8 l71 3 0 -40 c0 -36 -2 -39 -22 -35 -73 16 -124 16 -137 0 -11 -13 -10 -17
7 -23 12 -5 48 -8 82 -8 l61 0 -3 -35 -3 -35 -75 0 c-41 0 -81 -4 -87 -8 -16
-10 -16 5 -3 131 8 77 49 283 65 330 6 15 25 16 25 0z m-410 -132 c0 -3 -51
-43 -112 -89 -62 -47 -122 -95 -133 -107 -11 -12 -32 -28 -47 -36 -25 -13 -28
-12 -42 8 -22 31 -20 45 8 52 13 3 91 44 172 90 161 92 154 88 154 82z m1355
-151 c22 -13 60 -34 85 -45 51 -24 90 -57 90 -76 0 -13 -95 -94 -204 -174 -33
-24 -62 -48 -64 -52 -2 -4 -8 -8 -14 -8 -9 0 -37 -21 -98 -73 -9 -7 -37 -25
-62 -40 -55 -32 -55 -37 13 98 25 50 54 112 64 138 10 27 24 51 32 54 7 3 13
14 13 24 0 20 42 120 66 157 18 28 29 28 79 -3z m-1611 -166 c15 -12 39 -39
53 -61 13 -22 33 -43 44 -45 10 -3 19 -13 19 -22 1 -9 18 -29 38 -46 40 -32
130 -130 97 -105 -11 8 -24 18 -30 22 -5 4 -42 34 -82 68 -40 33 -75 60 -78
60 -12 0 -165 102 -165 110 0 15 28 31 71 39 4 0 18 -9 33 -20z m734 -107 c-4
-37 -7 -72 -7 -79 -1 -7 -26 -13 -68 -15 -38 -2 -76 -8 -85 -12 -16 -7 -18 -1
-18 60 0 116 -2 114 99 113 l87 -1 -8 -66z m-97 -135 l79 6 0 -27 0 -27 -70 7
c-51 5 -70 3 -70 -5 0 -7 -4 -9 -10 -6 -5 3 -10 -1 -10 -9 0 -12 11 -16 49
-16 76 0 111 -10 111 -31 0 -17 -9 -19 -85 -19 l-85 0 1 73 c0 39 3 67 5 60 4
-8 29 -9 85 -6z m312 -65 c-12 -9 -40 -28 -63 -42 -22 -13 -80 -59 -127 -101
l-87 -77 -23 31 -23 31 37 20 c21 11 54 20 73 21 24 0 35 5 35 15 0 8 27 29
61 46 34 17 75 40 90 52 34 25 59 29 27 4z m-603 -45 c0 -4 -16 4 -35 19 -45
34 -45 41 0 12 19 -13 35 -27 35 -31z m308 -62 c-3 -3 -29 -14 -57 -25 l-51
-18 0 24 c0 23 3 24 57 24 31 0 54 -2 51 -5z"/>
<path d="M1040 1130 c0 -5 5 -10 10 -10 6 0 10 5 10 10 0 6 -4 10 -10 10 -5 0
-10 -4 -10 -10z"/>
<path d="M966 875 c-3 -10 -5 -19 -3 -21 1 -2 32 -6 69 -9 44 -4 69 -2 73 5
12 19 -8 30 -71 36 -53 6 -62 4 -68 -11z"/>
</g>
</svg>
