<?xml version="1.0" standalone="no"?>
<!DOCTYPE svg PUBLIC "-//W3C//DTD SVG 20010904//EN"
 "http://www.w3.org/TR/2001/REC-SVG-20010904/DTD/svg10.dtd">
<svg version="1.0" xmlns="http://www.w3.org/2000/svg"
 width="240.000000pt" height="184.000000pt" viewBox="0 0 240.000000 184.000000"
 preserveAspectRatio="xMidYMid meet">
<metadata>
Created by potrace 1.16, written by Peter Selinger 2001-2019
</metadata>
<g transform="translate(0.000000,184.000000) scale(0.100000,-0.100000)"
fill="#000000" stroke="none">
<path d="M1162 1674 c-36 -25 -129 -44 -160 -32 -36 13 -85 -5 -80 -30 2 -10
11 -16 21 -14 14 2 17 -5 17 -36 0 -42 -23 -72 -56 -72 -10 0 -41 -11 -69 -25
-27 -13 -63 -25 -78 -25 -15 0 -58 -18 -94 -40 -37 -22 -74 -40 -83 -40 -8 0
-26 -8 -39 -17 -14 -9 -43 -18 -65 -19 -121 -9 -153 -21 -128 -46 9 -9 22 -9
52 -1 22 5 40 8 40 6 0 -2 -12 -27 -27 -56 -26 -49 -28 -50 -31 -24 -5 38 -30
35 -28 -4 1 -28 -3 -32 -44 -46 -31 -11 -49 -12 -61 -5 -34 21 -50 -14 -30
-63 7 -16 15 -51 18 -77 4 -43 1 -50 -33 -88 -30 -34 -35 -43 -23 -51 8 -5 18
-9 23 -9 23 0 144 -55 175 -79 18 -14 59 -44 91 -66 96 -67 420 -366 441 -407
11 -21 24 -38 29 -38 6 0 10 27 10 59 0 34 5 63 11 67 7 4 54 15 106 25 52 11
99 21 103 24 7 4 238 40 320 50 34 4 101 7 418 21 l152 7 0 -116 c0 -64 4
-118 9 -121 12 -8 27 76 52 294 11 102 23 188 24 191 2 3 7 28 10 55 12 94 37
199 60 246 30 60 23 65 -80 69 -97 4 -113 -3 -86 -36 15 -20 17 -33 11 -65 -4
-22 -9 -43 -12 -45 -6 -6 -62 -13 -198 -25 -118 -10 -715 -15 -760 -7 -14 3
-45 6 -69 6 l-43 1 7 78 c8 93 18 139 56 256 16 49 29 97 29 107 0 26 60 181
79 203 9 10 26 22 39 27 14 6 22 16 20 26 -4 23 -20 26 -46 7z m-62 -72 c0 -5
-15 -53 -34 -108 -18 -54 -39 -123 -46 -151 -6 -29 -16 -50 -21 -47 -10 6 -5
187 6 204 3 5 2 18 -4 27 -5 10 -7 30 -4 45 4 21 12 28 37 31 58 7 66 7 66 -1z
m-138 -232 c-3 -67 -1 -90 8 -90 9 0 9 -4 2 -12 -5 -7 -12 -47 -16 -88 -3 -41
-11 -111 -16 -155 -5 -44 -12 -141 -14 -215 -3 -74 -8 -178 -11 -230 -3 -52
-5 -108 -5 -125 0 -16 -5 -37 -10 -45 -7 -11 -10 -11 -10 -2 0 7 -5 10 -12 6
-6 -4 -8 -3 -4 4 3 6 2 13 -3 16 -5 4 -10 26 -11 51 -1 25 -2 53 -2 63 -1 23
12 208 18 252 3 19 7 136 11 260 5 192 9 228 24 250 9 14 20 45 22 70 13 112
34 105 29 -10z m-57 48 c-4 -41 -6 -43 -16 -25 -11 19 -6 47 9 47 5 0 8 -10 7
-22z m-166 -49 c-19 -12 -24 -2 -8 17 9 11 14 13 17 4 3 -7 -2 -16 -9 -21z
m90 -6 c-5 -21 -9 -42 -9 -48 -1 -5 -5 -2 -9 8 -17 43 -23 1 -27 -178 -2 -104
-9 -226 -14 -270 -6 -44 -10 -130 -10 -192 0 -61 -4 -114 -9 -118 -5 -3 -22 5
-37 18 -31 27 -33 52 -14 262 7 72 13 175 15 230 1 55 5 109 9 120 4 11 12 30
17 43 5 13 14 45 20 70 6 30 20 55 37 69 37 31 41 29 31 -14z m36 -130 c-12
-358 -16 -429 -25 -492 -12 -87 -15 -210 -6 -238 10 -30 -2 -29 -35 3 -22 21
-26 31 -19 53 4 14 8 69 9 121 1 52 6 140 11 195 5 55 11 159 13 232 2 77 8
137 14 145 6 7 14 31 18 53 20 118 26 98 20 -72z m-185 106 c0 -5 -7 -9 -15
-9 -9 0 -12 6 -9 15 6 15 24 11 24 -6z m-74 -35 c-3 -8 -10 -12 -16 -9 -6 3
-14 -4 -19 -17 -6 -13 -10 -17 -10 -10 -1 17 19 55 33 64 13 9 20 -7 12 -28z
m126 -4 c-6 -42 -19 -46 -14 -4 2 19 7 34 11 34 4 0 6 -14 3 -30z m-197 -29
c-6 -26 -29 -51 -48 -51 -10 0 18 65 33 77 20 15 23 10 15 -26z m-74 -44 c-6
-15 -15 -27 -21 -27 -5 0 -2 16 7 36 19 39 29 32 14 -9z m175 -64 c-4 -54 -12
-150 -18 -213 -5 -63 -9 -145 -9 -182 1 -37 -3 -70 -9 -73 -18 -11 -62 24 -55
43 4 9 11 55 16 102 5 47 11 103 13 125 3 22 7 81 11 130 5 86 29 165 49 165
5 0 6 -41 2 -97z m55 -59 c0 -71 -4 -158 -10 -194 -5 -36 -13 -111 -17 -167
-3 -57 -10 -103 -14 -103 -22 0 -26 32 -18 130 5 58 10 143 12 190 4 81 22
239 32 269 10 32 14 -3 15 -125z m-127 14 c-3 -57 -9 -134 -15 -173 -6 -38
-13 -90 -15 -115 -3 -25 -7 -56 -10 -69 -5 -24 -6 -24 -44 14 -29 28 -37 42
-31 54 5 9 14 75 21 146 7 72 17 134 21 140 5 5 9 16 9 24 0 11 55 78 66 81 1
0 0 -46 -2 -102z m-119 22 c-3 -5 -19 -19 -35 -30 -21 -15 -30 -17 -30 -8 0 7
12 20 28 30 31 19 46 22 37 8z m-118 -33 c25 -10 29 -16 22 -32 -15 -37 -47
-71 -57 -60 -16 17 -23 93 -9 98 6 3 13 6 13 6 1 1 15 -5 31 -12z m1858 -7 c3
-5 1 -18 -4 -28 -19 -36 -67 -316 -77 -455 -4 -48 -10 -90 -14 -92 -9 -6 -5
473 5 538 7 47 8 47 46 47 21 0 41 -4 44 -10z m-1736 -115 c-11 -107 -18 -145
-28 -145 -4 0 -17 11 -29 23 -18 19 -23 36 -23 86 -1 34 0 63 2 64 2 2 21 18
43 36 21 18 39 31 41 29 2 -2 -1 -43 -6 -93z m-101 -31 c-10 -21 -13 -23 -21
-9 -5 10 -4 21 3 30 19 22 31 8 18 -21z m1706 -12 c3 -10 5 -101 3 -204 -2
-178 -3 -187 -22 -192 -11 -3 -92 -7 -180 -11 -88 -3 -227 -10 -310 -15 -82
-6 -204 -13 -270 -17 -66 -5 -162 -8 -212 -8 -67 1 -94 -3 -97 -12 -6 -14 18
-17 124 -15 l65 1 -94 -20 c-75 -15 -96 -17 -103 -7 -4 7 -5 58 -2 113 3 55 7
136 9 180 2 44 4 89 4 101 1 17 13 23 77 38 41 10 78 24 80 31 5 13 123 21
459 30 149 4 358 19 425 29 23 4 39 -4 44 -22z m-1711 -89 c-4 -9 -19 -5 -54
13 -34 17 -47 29 -42 37 39 61 34 60 69 9 17 -26 29 -52 27 -59z m729 73 c9
-14 -9 -24 -47 -26 -57 -4 -63 -2 -58 25 5 23 8 24 52 18 25 -3 49 -11 53 -17z
m-671 -107 c10 -19 9 -20 -10 -9 -12 6 -21 18 -21 26 0 19 16 10 31 -17z"/>
</g>
</svg>
