<?xml version="1.0" standalone="no"?>
<!DOCTYPE svg PUBLIC "-//W3C//DTD SVG 20010904//EN"
 "http://www.w3.org/TR/2001/REC-SVG-20010904/DTD/svg10.dtd">
<svg version="1.0" xmlns="http://www.w3.org/2000/svg"
 width="252.000000pt" height="168.000000pt" viewBox="0 0 252.000000 168.000000"
 preserveAspectRatio="xMidYMid meet">
<metadata>
Created by potrace 1.16, written by Peter Selinger 2001-2019
</metadata>
<g transform="translate(0.000000,168.000000) scale(0.100000,-0.100000)"
fill="#000000" stroke="none">
<path d="M930 1590 c-36 -37 -98 -89 -138 -114 -40 -26 -72 -51 -72 -56 0 -15
27 -12 62 6 25 13 33 14 44 2 11 -11 -8 -35 -114 -144 -70 -71 -147 -145 -172
-164 -25 -18 -63 -50 -85 -71 -54 -51 -153 -109 -185 -109 -32 0 -69 -25 -55
-37 6 -5 34 -29 63 -52 28 -24 55 -54 58 -67 4 -17 13 -24 29 -24 13 0 27 5
30 10 7 11 54 -11 90 -42 11 -9 37 -24 58 -33 21 -9 61 -32 88 -51 28 -19 58
-38 68 -42 10 -4 68 -38 129 -77 102 -64 112 -73 112 -101 0 -26 -6 -33 -45
-52 -25 -12 -45 -26 -45 -30 0 -5 23 -23 50 -41 28 -18 58 -44 67 -57 28 -44
73 -25 73 32 0 17 8 41 18 53 l17 22 34 -26 c35 -25 61 -31 75 -18 4 4 -13 26
-39 48 l-45 40 16 35 c9 19 35 50 58 68 51 41 213 199 283 275 37 41 60 57 78
57 22 0 25 3 19 24 -3 14 -1 27 7 32 10 6 11 -34 7 -187 -7 -226 -1 -302 23
-307 22 -4 32 37 24 103 -4 29 -2 77 5 108 6 31 11 74 12 96 0 23 4 38 9 35
10 -6 41 13 134 81 l70 52 235 2 c217 1 267 7 246 28 -4 4 -92 9 -194 11 -103
1 -227 9 -275 17 -94 16 -177 46 -177 66 0 6 -7 8 -16 5 -15 -6 -16 3 -11 80
3 54 11 92 20 102 8 10 18 28 22 42 11 39 63 125 95 160 17 18 28 36 25 40 -5
8 -295 3 -304 -5 -12 -12 12 -35 37 -35 l29 0 6 -82 c7 -114 1 -288 -12 -318
-15 -36 -49 -73 -61 -65 -5 3 -35 39 -65 80 -31 40 -83 97 -117 126 -33 29
-84 76 -112 103 -29 28 -87 71 -128 96 l-76 45 -7 85 c-5 67 -3 95 10 130 30
81 30 80 4 79 -15 -1 -47 -26 -89 -69z m20 -68 c0 -4 -15 -23 -34 -41 -25 -24
-36 -29 -42 -20 -5 8 5 23 26 41 35 28 50 35 50 20z m10 -84 c0 -30 -1 -31
-17 -16 -13 14 -14 20 -3 32 18 22 20 20 20 -16z m-21 -88 c22 -22 43 -40 46
-40 12 0 154 -103 202 -147 128 -115 293 -283 293 -298 0 -20 -243 -270 -336
-345 -98 -79 -114 -87 -147 -65 -29 19 -44 77 -29 116 6 14 13 61 17 104 4 44
10 96 15 116 9 43 109 199 153 239 29 26 30 29 13 36 -10 4 -33 2 -50 -4 -29
-11 -117 -22 -196 -25 -24 -2 -36 -7 -38 -19 -2 -12 3 -18 15 -18 16 0 20 -10
23 -67 8 -119 4 -357 -7 -382 -9 -24 -10 -24 -29 -4 -18 19 -136 93 -147 93
-4 0 -32 17 -64 38 -32 22 -70 46 -86 56 -32 20 -34 46 -12 161 8 43 12 82 9
86 -12 19 -43 7 -63 -23 -22 -37 -101 -117 -101 -103 0 28 101 186 144 225 28
25 108 105 180 178 71 72 135 132 141 132 7 0 31 -18 54 -40z m779 8 c-14 -18
-34 -51 -45 -72 l-20 -39 -6 63 c-8 73 -3 80 57 80 l38 0 -24 -32z m-664 -375
c-57 -88 -67 -102 -74 -98 -4 3 -11 22 -14 42 -4 21 -9 46 -12 55 -5 17 14 23
85 27 l33 1 -18 -27z m-645 -63 c-17 -33 -35 -60 -39 -60 -13 0 -55 53 -45 56
6 2 30 18 55 34 25 16 49 30 53 30 5 0 -6 -27 -24 -60z m1369 -35 c15 -6 -10
-29 -97 -89 l-54 -38 8 59 c4 32 9 67 10 78 1 11 3 23 4 26 1 5 68 -14 129
-36z m-1261 -102 c-6 -6 -67 25 -67 34 0 4 15 19 33 34 l32 27 3 -45 c2 -25 1
-47 -1 -50z m512 -425 c-24 -47 -30 -50 -56 -26 l-24 22 23 13 c13 7 33 12 46
13 20 0 22 -2 11 -22z"/>
</g>
</svg>
