<?xml version="1.0" standalone="no"?>
<!DOCTYPE svg PUBLIC "-//W3C//DTD SVG 20010904//EN"
 "http://www.w3.org/TR/2001/REC-SVG-20010904/DTD/svg10.dtd">
<svg version="1.0" xmlns="http://www.w3.org/2000/svg"
 width="130.000000pt" height="180.000000pt" viewBox="0 0 130.000000 180.000000"
 preserveAspectRatio="xMidYMid meet">
<metadata>
Created by potrace 1.16, written by Peter Selinger 2001-2019
</metadata>
<g transform="translate(0.000000,180.000000) scale(0.100000,-0.100000)"
fill="#000000" stroke="none">
<path d="M780 1725 c-13 -14 -30 -25 -37 -25 -7 0 -71 -58 -141 -128 -120
-121 -216 -193 -291 -217 -29 -9 -26 -24 10 -61 17 -17 32 -43 33 -58 3 -25
-9 -39 -79 -90 -11 -8 -17 -17 -13 -21 11 -11 49 14 113 74 l60 56 3 -54 c2
-29 1 -55 -2 -58 -2 -3 -15 2 -28 11 -25 18 -54 21 -62 7 -7 -11 54 -48 92
-57 92 -20 331 -133 332 -156 0 -12 -42 -30 -74 -32 -23 -2 -31 -7 -30 -19 1
-12 -25 -30 -88 -62 -50 -25 -98 -45 -107 -45 -9 0 -34 -9 -55 -19 -20 -11
-66 -23 -102 -26 -35 -4 -67 -11 -70 -16 -3 -5 20 -38 50 -73 31 -35 56 -67
56 -72 0 -5 -21 -22 -47 -38 -25 -17 -41 -32 -35 -34 11 -3 29 6 107 53 52 32
62 31 63 -5 0 -17 3 -38 7 -49 5 -18 3 -18 -56 -4 -42 10 -65 11 -72 4 -7 -7
-6 -12 4 -15 8 -3 43 -15 79 -27 77 -26 204 -130 195 -159 -4 -12 4 -23 21
-35 15 -10 43 -33 62 -52 18 -19 39 -32 45 -30 11 3 24 43 41 119 8 34 31 56
93 88 26 14 76 48 109 76 34 29 72 55 85 59 42 13 55 51 14 41 -25 -6 -37 6
-101 110 -11 19 -33 47 -48 63 -27 28 -28 31 -25 134 2 58 1 109 -3 112 -4 4
-17 0 -30 -9 -48 -34 -54 -8 -21 93 26 83 45 106 176 218 33 29 47 53 31 53
-6 0 -148 -123 -169 -146 -16 -18 -157 -119 -187 -134 -25 -12 -34 -10 -96 18
-38 18 -76 32 -85 32 -25 0 -31 20 -32 97 -1 40 -4 75 -7 79 -4 3 -20 -3 -36
-15 -17 -12 -32 -21 -35 -21 -11 0 80 170 95 177 9 4 51 41 93 81 47 46 80 70
88 66 6 -4 36 -26 65 -48 30 -23 80 -57 112 -76 32 -19 79 -49 104 -67 49 -34
77 -44 82 -28 3 10 -64 67 -144 122 -26 18 -55 38 -65 45 -17 12 -18 20 -8
107 13 119 6 134 -39 86z m2 -95 c-2 -33 -6 -60 -8 -60 -11 0 -54 33 -54 42 0
10 52 78 60 78 3 0 3 -27 2 -60z m-359 -257 c-5 -14 -26 -49 -49 -81 -3 -5
-44 32 -44 40 0 6 82 54 97 58 1 0 0 -8 -4 -17z m382 -280 c-4 -10 -12 -37
-19 -60 l-11 -42 -35 30 c-19 17 -30 33 -24 35 6 3 26 16 44 29 40 29 55 32
45 8z m37 -175 c1 -13 2 -41 4 -63 l2 -40 -31 38 c-30 35 -77 52 -77 27 0 -5
4 -10 9 -10 4 0 20 -18 34 -39 15 -22 49 -61 77 -88 28 -26 57 -59 65 -73 7
-14 24 -37 36 -51 63 -70 63 -62 5 -112 -54 -46 -204 -140 -243 -152 -22 -6
-23 -4 -23 47 0 77 66 226 120 271 12 10 19 21 17 24 -3 3 -47 2 -97 -2 -110
-9 -130 -22 -99 -64 18 -24 21 -45 23 -160 2 -104 0 -134 -10 -138 -8 -3 -45
26 -88 67 -81 80 -97 113 -89 194 4 38 2 46 -12 46 -9 0 -23 -7 -31 -15 -23
-22 -36 -18 -29 8 19 62 49 116 70 127 14 7 22 18 18 23 -3 6 -1 7 6 3 10 -7
111 39 221 99 25 14 52 25 61 25 9 0 22 7 29 15 18 21 30 19 32 -7z m-441
-206 c-12 -17 -21 -37 -21 -45 0 -30 -15 -25 -42 14 l-27 38 42 11 c23 6 47
12 52 14 18 6 17 -3 -4 -32z m336 -93 l-31 -51 -9 33 c-5 19 -13 39 -19 46 -7
8 0 13 24 16 71 9 70 11 35 -44z m-11 -333 l-10 -45 -33 32 c-18 18 -33 35
-33 39 0 4 15 9 33 11 17 2 37 5 43 5 7 2 7 -11 0 -42z"/>
<path d="M675 1406 c-48 -14 -51 -26 -34 -140 6 -44 12 -107 13 -139 1 -45 4
-57 16 -55 10 2 18 25 26 73 5 39 14 79 19 90 14 32 81 128 104 149 11 11 21
23 21 28 0 12 -119 8 -165 -6z m70 -52 c-8 -13 -22 -35 -31 -49 -24 -37 -31
-31 -30 22 1 41 4 48 26 53 41 11 53 2 35 -26z"/>
</g>
</svg>
