<?xml version="1.0" standalone="no"?>
<!DOCTYPE svg PUBLIC "-//W3C//DTD SVG 20010904//EN"
 "http://www.w3.org/TR/2001/REC-SVG-20010904/DTD/svg10.dtd">
<svg version="1.0" xmlns="http://www.w3.org/2000/svg"
 width="224.000000pt" height="160.000000pt" viewBox="0 0 224.000000 160.000000"
 preserveAspectRatio="xMidYMid meet">
<metadata>
Created by potrace 1.16, written by Peter Selinger 2001-2019
</metadata>
<g transform="translate(0.000000,160.000000) scale(0.100000,-0.100000)"
fill="#000000" stroke="none">
<path d="M1226 1435 c-3 -9 -25 -24 -49 -34 -24 -11 -55 -30 -69 -43 -37 -35
-190 -143 -235 -166 -55 -28 -69 -14 -41 41 11 22 29 48 41 57 30 24 13 40
-36 35 -23 -3 -74 -7 -113 -9 -40 -2 -77 -7 -83 -10 -18 -12 -12 -36 9 -36 11
0 20 -1 20 -3 0 -1 4 -17 9 -35 9 -31 8 -33 -47 -71 -31 -21 -92 -68 -135
-104 -74 -61 -131 -95 -252 -147 -37 -16 -61 -20 -92 -15 -24 3 -44 2 -47 -4
-4 -6 -13 -8 -21 -4 -9 3 -15 -1 -15 -11 0 -9 5 -16 11 -16 5 0 16 -15 24 -32
15 -38 50 -78 67 -78 7 0 0 -12 -14 -27 -24 -26 -51 -75 -52 -97 -1 -5 52 -10
118 -11 l118 -2 69 -52 c38 -29 70 -60 70 -69 5 -68 10 -79 28 -67 6 3 11 17
11 31 0 13 6 24 13 24 13 0 97 -64 108 -82 7 -11 29 -2 29 12 0 4 -28 29 -62
54 -35 25 -68 50 -74 55 -10 8 -27 194 -26 279 1 42 29 118 59 160 13 17 22
36 19 41 -3 5 -24 9 -47 9 -23 1 -43 3 -46 6 -6 6 46 53 132 118 60 45 65 47
75 29 6 -12 10 -92 10 -192 0 -163 -1 -174 -22 -196 -23 -25 -18 -44 7 -23 13
11 15 8 15 -16 0 -65 -22 -311 -30 -336 -7 -22 -6 -28 5 -28 19 0 54 -37 71
-75 8 -16 27 -45 43 -64 25 -28 33 -32 45 -22 15 13 10 51 -7 51 -11 0 -67 59
-67 70 0 4 -9 17 -20 30 -11 13 -20 26 -20 29 0 10 302 3 400 -9 71 -8 500
-13 658 -8 23 1 43 -1 44 -5 0 -4 -4 -45 -10 -90 -7 -45 -14 -102 -16 -127 -2
-25 -7 -53 -11 -62 -4 -11 -3 -18 4 -18 6 0 18 26 26 58 9 31 23 77 30 102 39
126 74 270 73 306 0 53 20 154 38 181 19 30 18 42 -3 38 -61 -12 -73 -16 -73
-25 0 -6 9 -10 21 -10 17 0 20 -4 15 -23 -3 -13 -8 -48 -12 -78 -3 -30 -14
-78 -25 -107 -15 -44 -15 -54 -4 -58 11 -5 11 -14 -2 -57 -22 -78 -35 -83 -29
-12 4 33 11 113 16 177 6 64 13 123 16 132 12 31 -91 50 -138 25 -49 -26 -616
5 -647 37 -10 10 69 76 85 70 8 -3 21 5 30 19 8 13 26 31 40 40 22 14 26 14
40 0 23 -23 48 -1 32 28 -8 16 -8 22 1 25 6 2 34 19 61 38 27 19 57 34 66 34
15 0 64 43 64 57 0 3 -11 2 -24 -1 -21 -5 -26 0 -40 34 -9 22 -27 59 -41 81
-16 25 -24 47 -20 60 5 14 2 19 -13 19 -20 0 -43 32 -106 143 -28 49 -40 57
-50 32z m63 -125 c47 -82 48 -86 30 -102 -10 -10 -21 -18 -24 -18 -3 0 -23
-11 -43 -25 -20 -14 -39 -25 -43 -25 -3 0 -19 24 -34 53 -16 28 -42 67 -58 86
l-29 34 23 18 c13 10 29 17 35 15 6 -2 26 9 45 25 19 16 37 28 41 26 4 -1 30
-40 57 -87z m-193 -50 c25 -29 88 -140 82 -144 -2 -1 -20 -14 -40 -29 l-37
-27 -24 32 c-32 45 -77 124 -77 138 0 12 50 59 63 60 5 0 19 -13 33 -30z
m-300 -25 c-13 -24 -27 -63 -31 -85 -8 -46 -20 -53 -23 -12 -1 15 -10 51 -21
79 -21 58 -21 59 51 62 l48 1 -24 -45z m195 -90 c17 -35 37 -70 45 -76 18 -15
18 -49 1 -49 -7 0 -29 -11 -47 -25 -33 -24 -36 -25 -48 -8 -17 22 -82 150 -82
160 0 6 86 62 98 63 1 0 16 -29 33 -65z m415 -39 c41 -78 42 -75 -47 -125
l-57 -31 -29 57 c-16 32 -36 69 -44 82 -13 21 -12 24 4 35 11 6 42 26 70 43
58 37 51 41 103 -61z m-580 21 c6 -12 29 -58 52 -101 22 -44 38 -84 36 -90 -3
-6 -19 -21 -37 -33 -17 -12 -52 -36 -76 -52 -24 -17 -47 -31 -50 -31 -4 0 -4
35 1 78 4 42 5 85 2 94 -3 9 4 36 15 60 11 24 23 56 26 71 9 33 16 34 31 4z
m384 -75 c13 -20 34 -56 46 -79 l22 -42 -39 -25 c-21 -14 -41 -26 -44 -26 -6
0 -75 139 -75 152 0 9 50 57 60 58 3 0 16 -17 30 -38z m-121 -62 c3 -3 21 -34
39 -70 l32 -65 -22 -17 c-13 -10 -31 -25 -41 -35 -20 -19 -17 -22 -81 70 -26
37 -45 71 -42 76 4 5 27 23 53 40 34 23 49 28 52 19 2 -7 7 -15 10 -18z m-632
-37 c-2 -21 2 -81 9 -133 8 -52 17 -135 20 -184 6 -78 5 -89 -8 -83 -22 8
-178 129 -207 160 l-23 26 23 33 c13 18 32 43 43 54 12 12 45 54 75 93 30 39
58 71 63 71 5 0 7 -17 5 -37z m73 17 c4 0 -1 -19 -13 -42 l-21 -43 -7 35 c-10
43 -4 64 17 56 9 -3 19 -6 24 -6z m-180 -47 c0 -10 -42 -53 -53 -53 -5 0 -29
-14 -54 -30 l-45 -30 -18 22 c-15 19 -20 20 -34 9 -14 -11 -16 -11 -16 2 0 8
-6 18 -12 20 -7 3 14 6 47 7 45 1 74 8 115 30 59 30 70 34 70 23z m645 -76
c30 -41 55 -77 55 -82 0 -10 -202 2 -233 14 -13 5 -35 7 -50 4 -37 -7 -34 1
11 28 20 13 63 43 96 66 32 24 60 43 62 43 2 0 28 -33 59 -73z m-80 -124 c55
-2 186 -12 290 -23 226 -24 520 -29 582 -10 57 18 77 9 69 -33 -3 -17 -8 -71
-12 -118 -3 -48 -7 -95 -7 -105 -3 -35 -65 -42 -347 -39 -146 2 -301 8 -345
13 -44 6 -147 11 -230 12 -86 0 -152 5 -155 11 -4 5 -14 7 -24 3 -15 -6 -17
-2 -11 29 4 19 10 77 14 128 l7 94 19 -34 c30 -51 65 -91 80 -91 26 0 27 22 2
48 -48 50 -87 116 -74 124 7 4 19 5 27 1 8 -4 60 -8 115 -10z m-617 -94 c-7
-4 -20 -3 -29 2 -10 5 -37 9 -62 9 -24 0 -47 3 -50 6 -8 8 10 43 32 65 15 14
20 12 69 -30 34 -30 48 -47 40 -52z"/>
</g>
</svg>
