<?xml version="1.0" standalone="no"?>
<!DOCTYPE svg PUBLIC "-//W3C//DTD SVG 20010904//EN"
 "http://www.w3.org/TR/2001/REC-SVG-20010904/DTD/svg10.dtd">
<svg version="1.0" xmlns="http://www.w3.org/2000/svg"
 width="243.000000pt" height="192.000000pt" viewBox="0 0 243.000000 192.000000"
 preserveAspectRatio="xMidYMid meet">
<metadata>
Created by potrace 1.16, written by Peter Selinger 2001-2019
</metadata>
<g transform="translate(0.000000,192.000000) scale(0.100000,-0.100000)"
fill="#000000" stroke="none">
<path d="M820 1758 c-11 -18 -20 -38 -20 -43 0 -13 -67 -146 -81 -160 -22 -22
-7 -32 59 -38 53 -4 200 -47 221 -63 2 -2 -25 -36 -61 -76 -60 -67 -261 -233
-326 -268 -15 -8 -43 -27 -62 -42 -19 -15 -79 -48 -133 -73 -97 -47 -109 -60
-70 -80 11 -6 43 -31 70 -56 43 -38 50 -49 46 -72 -3 -17 -1 -27 7 -27 19 0
71 40 68 53 -3 16 25 77 35 77 8 0 0 -45 -13 -70 -8 -14 -13 -61 -11 -88 1 -9
12 -10 41 -6 22 4 46 2 52 -3 7 -6 28 -13 47 -17 43 -8 195 -68 273 -107 32
-16 63 -27 69 -24 12 8 79 -13 102 -33 24 -21 21 -37 -9 -51 -31 -14 -29 -45
4 -49 18 -3 22 -10 22 -43 0 -21 4 -39 8 -39 14 0 32 23 32 42 0 24 0 24 62
-17 58 -39 83 -41 82 -8 -1 36 20 34 74 -8 53 -40 123 -79 142 -79 28 0 4 33
-42 60 -29 16 -73 47 -97 68 l-44 38 17 29 c52 93 76 129 145 215 69 85 234
260 246 260 3 0 24 18 47 41 64 60 70 62 112 34 48 -32 86 -42 86 -22 0 15
-61 67 -79 67 -22 0 -9 16 49 59 63 48 69 55 45 65 -9 3 -39 -15 -76 -46 l-62
-51 -60 33 c-34 19 -102 63 -151 99 -50 35 -121 83 -158 105 -37 23 -124 76
-193 120 -143 90 -142 81 -33 153 66 43 87 74 51 72 -10 0 -45 -20 -78 -45
-117 -86 -98 -83 -163 -30 -69 57 -247 176 -262 176 -6 0 -19 -15 -30 -32z
m89 -53 c19 -11 72 -50 119 -87 47 -37 90 -69 96 -71 13 -5 -30 -54 -54 -62
-10 -3 -53 8 -95 25 -43 17 -99 35 -126 41 -54 12 -58 20 -30 66 11 17 25 50
32 72 7 23 15 40 18 39 3 -2 21 -12 40 -23z m408 -277 c114 -77 128 -86 181
-119 18 -12 31 -23 29 -25 -5 -5 -110 37 -197 77 -35 17 -98 45 -140 62 -41
17 -77 33 -80 35 -12 10 56 52 76 47 12 -2 71 -37 131 -77z m-162 -36 c39 -16
104 -45 146 -64 41 -19 88 -38 104 -42 17 -4 44 -14 60 -21 17 -7 68 -30 115
-50 47 -20 89 -41 94 -46 6 -5 15 -9 22 -9 7 0 45 -19 84 -42 l72 -41 -53 -48
c-30 -27 -73 -63 -97 -81 -23 -18 -71 -60 -105 -93 -34 -33 -98 -91 -142 -130
-43 -38 -92 -82 -108 -97 -16 -16 -31 -28 -34 -28 -3 0 -23 -14 -45 -32 -56
-44 -71 -32 -79 58 -5 59 -2 84 23 169 16 55 33 104 37 110 4 5 13 30 20 55 7
25 30 72 51 105 49 78 56 101 33 113 -28 14 -214 -6 -235 -25 -23 -21 -23 -40
0 -48 16 -5 20 -20 25 -112 4 -58 7 -173 7 -255 0 -146 0 -149 -21 -143 -24 8
-137 74 -229 135 -218 144 -258 173 -270 195 -13 24 -11 28 27 68 22 23 49 53
59 66 113 142 340 375 359 366 6 -2 42 -17 80 -33z m-455 -280 c0 -5 -40 -51
-90 -103 -49 -52 -90 -99 -90 -105 0 -6 -6 -16 -13 -23 -10 -8 -23 -1 -54 29
l-41 39 29 10 c16 5 54 27 85 48 53 36 166 110 172 112 1 1 2 -3 2 -7z m600 3
c0 -2 -18 -39 -39 -82 -22 -43 -46 -100 -53 -128 l-12 -50 -6 40 c-3 23 -6 79
-5 125 l0 85 35 6 c46 8 80 10 80 4z m-605 -309 c35 -25 96 -64 135 -87 38
-23 70 -43 70 -45 0 -3 -9 0 -21 6 -38 21 -164 70 -179 70 -25 0 -95 28 -94
37 1 15 16 63 20 63 2 0 33 -20 69 -44z m669 -260 c-10 -20 -21 -36 -26 -36
-4 0 -8 -7 -8 -15 0 -19 -20 -19 -44 -2 -17 12 -14 17 34 55 29 23 55 41 57
38 2 -2 -4 -20 -13 -40z m-54 -116 c0 -5 -4 -10 -9 -10 -6 0 -13 5 -16 10 -3
6 1 10 9 10 9 0 16 -4 16 -10z"/>
</g>
</svg>
