<?xml version="1.0" standalone="no"?>
<!DOCTYPE svg PUBLIC "-//W3C//DTD SVG 20010904//EN"
 "http://www.w3.org/TR/2001/REC-SVG-20010904/DTD/svg10.dtd">
<svg version="1.0" xmlns="http://www.w3.org/2000/svg"
 width="206.000000pt" height="152.000000pt" viewBox="0 0 206.000000 152.000000"
 preserveAspectRatio="xMidYMid meet">
<metadata>
Created by potrace 1.16, written by Peter Selinger 2001-2019
</metadata>
<g transform="translate(0.000000,152.000000) scale(0.100000,-0.100000)"
fill="#000000" stroke="none">
<path d="M700 1386 c-30 -41 -63 -81 -73 -88 -68 -46 -72 -68 -14 -68 34 0
135 -24 145 -35 4 -3 -25 -36 -63 -73 -106 -102 -228 -215 -256 -237 -63 -51
-55 -51 -101 -5 -27 27 -38 45 -30 47 19 7 14 31 -8 38 -26 8 -45 -5 -139 -95
-43 -40 -71 -74 -65 -78 5 -5 36 -16 69 -26 l59 -18 -27 -14 c-15 -8 -27 -18
-27 -23 0 -5 32 -28 70 -51 39 -23 70 -46 70 -50 0 -14 58 -32 79 -25 27 8 27
35 1 42 -23 6 -25 16 -7 31 19 16 132 -66 254 -184 59 -58 119 -108 133 -111
40 -10 70 -34 70 -55 0 -11 5 -28 10 -38 14 -27 93 -79 130 -86 18 -4 43 -21
59 -41 21 -26 38 -35 66 -38 20 -2 42 -8 48 -14 6 -6 15 -11 19 -11 20 0 3 26
-53 80 -56 54 -60 60 -48 82 6 13 15 25 18 28 10 8 41 62 63 110 11 24 39 74
61 110 22 36 57 96 76 134 55 105 55 106 66 106 5 0 21 -9 33 -18 24 -18 24
-20 23 -206 -1 -103 -2 -190 -3 -194 -1 -4 1 -23 5 -43 15 -76 61 -70 48 6 -3
22 -3 65 0 95 4 30 8 97 8 148 1 91 7 106 31 77 13 -16 50 -21 50 -7 0 5 -18
33 -40 62 -45 60 -52 107 -22 137 22 23 33 46 76 161 36 99 67 154 73 135 3
-7 -1 -61 -7 -120 -22 -213 -29 -350 -22 -493 3 -80 5 -166 4 -192 -1 -36 2
-48 12 -48 24 0 29 18 37 149 6 115 40 332 69 456 24 99 103 350 122 387 25
47 21 94 -7 91 -24 -2 -96 -11 -148 -18 -21 -3 -57 1 -80 9 -43 14 -118 9
-137 -10 -20 -20 -44 -205 -59 -449 -4 -52 -10 -89 -16 -88 -14 3 -19 33 -6
33 6 0 11 7 11 16 0 13 -7 15 -32 10 -31 -6 -39 0 -138 97 -190 186 -381 415
-422 505 -29 64 -51 58 -118 -32z m160 -111 c28 -38 79 -99 113 -135 34 -36
69 -74 77 -85 13 -17 11 -17 -15 3 -16 12 -47 35 -67 50 -21 15 -40 34 -43 43
-3 9 -26 24 -50 33 -43 17 -44 18 -29 41 20 30 1 44 -27 19 -18 -16 -22 -16
-84 2 l-64 20 24 28 c14 16 25 32 25 35 0 3 12 19 27 35 l27 29 18 -24 c9 -13
40 -55 68 -94z m949 -47 c-16 -29 -59 -172 -109 -362 -21 -81 -42 -151 -45
-155 -4 -3 -4 5 -1 19 3 14 8 76 11 139 3 63 8 118 11 123 3 4 5 55 6 112 0
121 10 138 88 153 50 10 57 5 39 -29z m-187 26 l36 -6 -33 -62 c-18 -33 -57
-123 -86 -199 l-54 -139 -3 49 c-2 26 1 89 7 140 6 50 11 121 11 157 l0 66 43
0 c23 0 58 -3 79 -6z m-769 -109 c25 -14 51 -32 57 -40 7 -8 17 -15 23 -15 5
0 37 -24 71 -53 34 -29 83 -68 109 -87 67 -48 142 -116 172 -156 l26 -34 -32
-47 c-33 -49 -282 -301 -344 -349 -19 -14 -38 -23 -43 -20 -6 3 -2 34 10 73
11 38 31 109 46 158 30 106 63 177 104 223 48 56 37 67 -62 65 -57 -2 -86 1
-91 9 -6 9 -18 7 -46 -9 -42 -24 -45 -34 -15 -47 22 -11 36 -70 26 -110 -3
-12 -11 -89 -17 -170 l-12 -148 -74 63 c-40 35 -125 114 -188 174 l-114 110
58 70 c32 39 71 90 87 115 25 38 98 129 144 178 6 7 12 18 12 24 0 13 30 48
40 48 4 0 28 -11 53 -25z m-298 -233 c-36 -49 -79 -102 -96 -118 -30 -28 -31
-28 -45 -10 -13 18 -9 24 53 80 37 34 86 78 108 98 22 21 41 38 42 38 2 0 -27
-40 -62 -88z m-254 -53 c33 -35 36 -51 13 -69 -13 -11 -23 -10 -59 8 -25 12
-53 19 -62 15 -10 -3 0 13 22 36 21 22 43 41 48 41 5 0 22 -14 38 -31z m699
-48 c0 -5 -12 -30 -26 -56 -15 -25 -37 -77 -50 -113 l-23 -67 6 115 c3 66 11
118 17 122 15 11 76 10 76 -1z m-610 -61 c14 -26 1 -31 -32 -14 -23 12 -27 18
-18 29 14 16 37 9 50 -15z m-70 -35 c29 -15 40 -35 21 -35 -14 0 -71 34 -71
43 0 11 18 8 50 -8z m868 -197 c-19 -29 -49 -79 -67 -111 -76 -138 -87 -152
-111 -149 -12 1 -35 13 -51 26 l-29 24 76 69 c41 37 105 98 142 135 36 37 68
65 71 63 2 -3 -12 -28 -31 -57z"/>
</g>
</svg>
