<?xml version="1.0" standalone="no"?>
<!DOCTYPE svg PUBLIC "-//W3C//DTD SVG 20010904//EN"
 "http://www.w3.org/TR/2001/REC-SVG-20010904/DTD/svg10.dtd">
<svg version="1.0" xmlns="http://www.w3.org/2000/svg"
 width="147.000000pt" height="144.000000pt" viewBox="0 0 147.000000 144.000000"
 preserveAspectRatio="xMidYMid meet">
<metadata>
Created by potrace 1.16, written by Peter Selinger 2001-2019
</metadata>
<g transform="translate(0.000000,144.000000) scale(0.100000,-0.100000)"
fill="#000000" stroke="none">
<path d="M927 1280 c-27 -10 -60 -26 -75 -36 -15 -10 -64 -37 -109 -60 -210
-109 -293 -171 -361 -274 -44 -65 -71 -157 -76 -260 -6 -127 72 -257 204 -337
41 -25 84 -54 95 -65 49 -47 111 -89 181 -122 l75 -36 27 20 c21 17 26 30 27
68 1 26 7 76 13 112 6 36 13 112 16 170 2 58 9 148 15 200 6 52 15 154 20 225
5 72 12 144 16 160 3 17 10 52 15 78 19 94 8 178 -23 176 -7 0 -34 -9 -60 -19z
m35 -88 c-1 -31 -6 -70 -10 -87 -8 -28 -11 -29 -53 -27 -24 1 -64 5 -89 8 -38
4 -49 2 -64 -15 -29 -32 -14 -47 55 -54 34 -4 77 -7 95 -7 18 0 34 -5 36 -11
2 -7 0 -44 -4 -83 -4 -39 -9 -102 -9 -140 l-2 -68 -51 7 c-28 4 -73 8 -101 8
-44 2 -50 0 -53 -20 -3 -18 3 -23 35 -28 21 -3 48 -10 61 -16 13 -5 38 -9 57
-9 19 0 36 -3 38 -7 8 -16 -10 -213 -21 -226 -6 -7 -14 -31 -18 -53 l-6 -40
-61 11 c-72 12 -107 9 -107 -10 0 -14 84 -45 121 -45 40 0 49 -11 49 -61 0
-58 -7 -60 -75 -23 -53 28 -79 46 -160 114 -29 25 -79 61 -110 80 -31 19 -61
44 -67 54 -10 18 -6 19 116 14 69 -3 128 -2 131 2 9 15 -6 37 -32 49 -38 17
-213 12 -235 -7 -16 -13 -18 -12 -28 14 -6 16 -16 42 -22 57 -7 18 -8 63 -4
134 7 97 21 155 52 207 11 18 12 18 40 -2 20 -14 59 -23 130 -31 100 -12 143
-7 159 19 11 17 -14 39 -43 38 -15 0 -76 7 -136 17 l-108 18 50 49 c63 60 422
249 442 231 2 -2 3 -29 2 -61z"/>
</g>
</svg>
