<?xml version="1.0" standalone="no"?>
<!DOCTYPE svg PUBLIC "-//W3C//DTD SVG 20010904//EN"
 "http://www.w3.org/TR/2001/REC-SVG-20010904/DTD/svg10.dtd">
<svg version="1.0" xmlns="http://www.w3.org/2000/svg"
 width="332.000000pt" height="146.000000pt" viewBox="0 0 332.000000 146.000000"
 preserveAspectRatio="xMidYMid meet">
<metadata>
Created by potrace 1.16, written by Peter Selinger 2001-2019
</metadata>
<g transform="translate(0.000000,146.000000) scale(0.100000,-0.100000)"
fill="#000000" stroke="none">
<path d="M1768 1430 c-9 -6 -24 -30 -34 -55 -14 -39 -21 -45 -46 -45 -16 0
-27 -4 -23 -9 7 -13 -76 -96 -205 -204 l-105 -89 -125 6 c-145 6 -352 49 -419
87 -33 18 -46 21 -59 12 -9 -6 -16 -17 -14 -23 2 -7 -4 -46 -13 -87 -31 -154
-21 -167 102 -135 67 17 87 19 97 9 14 -14 36 -94 36 -133 0 -26 -1 -26 -45
-20 -24 4 -72 18 -105 32 -64 26 -95 25 -117 -5 -6 -9 -9 -19 -7 -23 3 -5 -2
-47 -11 -95 -13 -69 -14 -88 -3 -94 7 -4 17 -4 23 1 25 21 182 60 241 60 23 0
23 -2 21 -102 -3 -158 26 -176 38 -24 11 141 5 132 88 139 40 4 101 9 137 13
l65 5 -29 -24 c-30 -26 -28 -47 5 -47 35 0 130 -53 156 -87 14 -18 40 -42 58
-53 25 -16 35 -29 37 -53 2 -26 7 -32 24 -30 14 2 25 -6 32 -22 13 -27 42 -34
42 -10 0 18 1 18 34 5 14 -5 26 -16 26 -24 0 -7 7 -19 15 -26 9 -7 14 -22 13
-34 -5 -37 26 -28 58 17 17 23 112 113 211 200 100 86 189 167 199 181 23 29
146 96 177 96 13 0 49 -26 87 -61 115 -106 135 -124 170 -143 19 -10 49 -31
65 -45 17 -15 48 -40 70 -56 22 -16 86 -75 141 -132 95 -97 124 -118 124 -92
0 14 -36 54 -199 219 -73 74 -150 155 -170 180 -19 25 -62 75 -94 111 -63 73
-65 86 -14 117 18 11 70 55 117 98 87 79 116 103 180 146 19 13 40 34 47 48 6
13 20 28 31 34 27 16 122 100 122 109 0 12 -32 8 -44 -6 -29 -36 -216 -177
-284 -215 -163 -92 -287 -152 -312 -152 -21 0 -45 20 -111 93 -165 182 -450
448 -479 447 -3 -1 -13 -5 -22 -10z m113 -116 c35 -36 93 -89 129 -117 35 -29
78 -67 95 -86 16 -19 39 -44 50 -55 11 -12 34 -36 50 -55 l30 -34 -32 21 c-17
12 -35 22 -41 22 -5 0 -44 26 -85 58 -116 87 -153 113 -239 165 -43 26 -78 54
-78 63 0 28 29 84 43 84 8 0 43 -30 78 -66z m-149 -43 c116 -65 251 -158 332
-227 17 -14 48 -35 70 -46 45 -23 104 -65 153 -111 17 -16 36 -27 41 -23 5 3
15 -1 22 -10 11 -12 10 -17 -6 -30 -124 -95 -182 -133 -305 -194 -79 -40 -155
-80 -169 -90 -14 -10 -57 -33 -95 -52 -39 -19 -96 -49 -127 -67 -47 -26 -58
-29 -58 -16 0 9 -29 46 -64 84 -74 79 -82 91 -89 151 -6 45 -6 45 42 77 45 29
107 53 140 53 11 0 12 -17 7 -89 -9 -106 1 -211 19 -211 18 0 25 33 25 119 0
50 5 80 14 90 14 16 23 52 25 98 1 28 16 30 231 38 90 4 168 9 172 11 24 15
-19 22 -179 28 -98 4 -181 11 -185 15 -10 9 81 170 120 211 51 53 41 65 -53
65 -153 0 -201 -20 -184 -78 10 -37 15 -174 6 -183 -6 -7 -95 11 -139 28 -16
6 -28 18 -28 27 0 23 189 325 215 343 13 10 10 11 47 -11z m-204 -163 c-28
-40 -61 -86 -72 -103 -12 -16 -25 -33 -31 -37 -12 -8 -35 10 -35 27 0 8 -5 15
-11 17 -6 2 22 31 61 63 40 33 85 70 99 82 45 39 42 25 -11 -49z m292 -22 c0
-8 -4 -17 -9 -21 -5 -3 -30 -43 -56 -90 -25 -46 -50 -87 -55 -90 -6 -4 -10 19
-11 57 0 35 -2 79 -5 99 -4 31 -1 36 23 46 43 17 113 16 113 -1z m-945 -43
c22 -3 45 -9 50 -13 6 -4 33 -11 60 -14 28 -4 61 -10 75 -14 25 -6 25 -6 -5
-13 -16 -4 -73 -19 -125 -33 -52 -14 -110 -26 -129 -26 l-34 0 6 55 c7 68 13
79 41 70 11 -4 39 -10 61 -12z m1785 -37 c0 -2 -8 -10 -17 -17 -16 -13 -17
-12 -4 4 13 16 21 21 21 13z m-1364 -29 c2 -7 25 -24 49 -37 25 -14 45 -32 45
-41 0 -8 3 -19 8 -23 4 -4 7 -43 8 -86 l1 -78 -38 -12 c-31 -11 -56 -10 -143
4 -57 9 -119 16 -135 16 -38 0 -38 10 -3 72 15 25 37 65 50 87 l22 41 -92 1
c-92 1 -93 1 -58 16 36 16 204 50 253 52 15 1 30 -5 33 -12z m1284 -42 c-25
-26 -63 -56 -86 -69 -40 -22 -41 -22 -64 -4 -12 10 -20 21 -17 24 9 9 191 94
202 94 5 0 -11 -20 -35 -45z m-1490 -62 c0 -3 -8 -17 -18 -31 -10 -15 -26 -46
-37 -69 -22 -53 -35 -55 -35 -5 0 20 -4 52 -10 71 -5 19 -8 37 -6 40 5 7 106
1 106 -6z m477 -24 l63 -13 -30 -12 c-17 -7 -30 -18 -30 -24 0 -5 -6 -10 -13
-10 -7 0 -30 -9 -51 -21 -21 -11 -39 -19 -41 -17 -5 5 -7 32 -6 77 1 39 3 43
24 38 12 -3 50 -11 84 -18z m803 -53 c0 -2 -7 -7 -16 -10 -8 -3 -12 -2 -9 4 6
10 25 14 25 6z m88 -68 c52 -51 47 -64 -6 -17 -21 19 -47 39 -58 46 -18 12
-18 12 2 12 11 1 39 -18 62 -41z m-1566 -28 c92 -17 88 -32 -14 -49 -40 -7
-90 -17 -111 -23 -20 -6 -39 -9 -42 -7 -2 3 1 33 7 66 l11 62 51 -21 c28 -11
72 -24 98 -28z m218 -30 c-69 -7 -75 -6 -67 7 3 4 34 6 69 3 l63 -4 -65 -6z
m1444 -36 c7 -19 2 -18 -19 6 -16 17 -16 20 -3 15 9 -4 19 -13 22 -21z m-1167
-6 c-3 -8 -6 -5 -6 6 -1 11 2 17 5 13 3 -3 4 -12 1 -19z m-11 -37 l31 -49 -58
31 c-55 29 -58 32 -42 49 24 27 35 22 69 -31z m714 35 c0 -6 -18 -22 -84 -76
-31 -25 -105 -87 -166 -138 l-110 -94 -35 37 c-19 21 -35 39 -35 41 0 1 33 19
73 39 39 21 100 53 134 72 35 19 68 31 74 27 8 -4 9 -3 5 4 -5 8 16 23 59 43
36 18 68 36 71 40 5 9 14 12 14 5z"/>
<path d="M686 1217 c-11 -7 -29 -20 -39 -29 -54 -47 -340 -158 -408 -158 -15
0 -37 -8 -50 -19 l-23 -18 22 -7 c12 -4 22 -11 22 -16 0 -4 17 -34 38 -66 21
-33 55 -88 77 -124 21 -36 71 -104 110 -151 40 -47 90 -110 111 -140 54 -77
75 -99 96 -99 24 0 23 12 -6 54 -87 129 -34 602 82 728 39 42 15 74 -32 45z
m-63 -134 c-50 -111 -93 -320 -89 -435 2 -46 1 -47 -17 -30 -28 24 -99 121
-120 162 -19 38 -37 69 -78 140 -15 25 -30 55 -34 68 -5 18 -3 22 17 22 37 0
150 38 255 86 17 8 35 14 41 14 5 0 15 7 22 15 27 32 28 12 3 -42z"/>
<path d="M2855 1038 c-32 -25 -32 -36 3 -40 25 -3 27 -7 32 -59 8 -93 9 -92
-74 -87 -45 3 -84 12 -103 23 -64 38 -88 -7 -84 -156 1 -53 24 -54 127 -3 103
50 137 56 130 22 -3 -13 -8 -66 -11 -118 -4 -74 -3 -99 8 -114 14 -20 15 -20
20 0 3 10 9 57 13 104 3 47 8 100 10 119 5 58 28 71 124 72 101 1 130 6 130
25 0 11 -22 14 -104 14 -58 0 -107 4 -110 8 -2 4 15 47 38 95 30 61 40 90 32
96 -6 5 -44 11 -84 13 -62 5 -76 2 -97 -14z m121 -50 c-2 -7 -10 -30 -17 -50
-17 -53 -29 -47 -29 12 0 47 2 50 26 50 17 0 24 -4 20 -12z m-242 -173 c27 -8
65 -15 85 -16 l36 0 -40 -15 c-22 -8 -61 -26 -87 -39 -45 -24 -47 -24 -53 -5
-5 15 2 90 9 90 0 0 23 -7 50 -15z"/>
</g>
</svg>
