<?xml version="1.0" standalone="no"?>
<!DOCTYPE svg PUBLIC "-//W3C//DTD SVG 20010904//EN"
 "http://www.w3.org/TR/2001/REC-SVG-20010904/DTD/svg10.dtd">
<svg version="1.0" xmlns="http://www.w3.org/2000/svg"
 width="250.000000pt" height="175.000000pt" viewBox="0 0 250.000000 175.000000"
 preserveAspectRatio="xMidYMid meet">
<metadata>
Created by potrace 1.16, written by Peter Selinger 2001-2019
</metadata>
<g transform="translate(0.000000,175.000000) scale(0.100000,-0.100000)"
fill="#000000" stroke="none">
<path d="M1055 1580 c-11 -4 -68 -6 -126 -3 -81 5 -108 3 -114 -7 -5 -8 -2
-18 8 -25 10 -7 17 -20 17 -29 0 -14 4 -15 20 -6 22 12 23 10 34 -41 7 -32 -7
-46 -88 -88 -32 -17 -75 -44 -95 -60 -20 -15 -47 -34 -60 -41 -14 -7 -30 -17
-35 -22 -12 -9 -96 -70 -183 -131 -29 -20 -63 -36 -75 -36 -54 2 -156 -15
-195 -34 -54 -24 -55 -44 -3 -98 22 -23 40 -47 40 -52 0 -5 -11 -20 -25 -33
-38 -35 -32 -51 25 -63 28 -6 62 -11 76 -11 34 0 113 -42 201 -106 78 -59 93
-81 93 -144 0 -21 4 -41 9 -44 10 -7 21 17 21 45 0 29 15 23 67 -27 93 -89
161 -144 179 -144 14 0 15 3 6 12 -7 7 -12 23 -12 37 0 25 0 25 38 -10 73 -68
92 -82 99 -76 3 4 -24 35 -60 70 -37 35 -67 68 -67 74 0 5 15 14 33 20 24 7
38 6 55 -5 14 -9 22 -10 22 -3 0 6 -4 11 -10 11 -5 0 -10 4 -10 10 0 5 18 13
40 16 47 8 63 24 24 24 -20 0 -25 3 -17 11 7 7 33 8 75 4 l64 -7 -8 -71 c-15
-134 -15 -132 7 -132 14 0 20 7 21 25 2 34 14 129 20 162 4 22 10 27 27 24 15
-2 21 -10 20 -22 -1 -11 -5 -48 -8 -84 -3 -36 -8 -72 -11 -82 -3 -9 0 -19 6
-23 23 -14 37 17 44 99 8 110 11 116 53 116 22 0 32 -4 28 -11 -4 -6 -11 -43
-16 -82 -5 -40 -14 -93 -21 -120 -9 -36 -9 -50 0 -59 18 -18 29 0 36 57 21
165 36 215 67 215 20 0 21 -3 14 -62 -4 -34 -11 -75 -16 -92 -14 -49 -11 -113
6 -119 19 -8 24 3 20 38 -2 17 3 55 11 86 8 31 14 77 14 102 0 41 2 45 28 50
15 3 31 2 35 -2 7 -7 -5 -175 -15 -222 -2 -7 4 -14 14 -16 13 -3 18 9 28 66 6
38 10 83 9 98 -4 39 8 70 29 75 15 4 182 9 409 12 l83 1 0 -55 c0 -73 8 -100
31 -100 16 0 17 7 12 84 l-5 85 36 -5 c27 -3 36 -1 36 11 0 8 -3 15 -7 16 -5
0 -18 2 -30 3 -13 2 -26 6 -30 10 -4 4 12 80 36 169 23 89 44 185 45 212 4 56
32 120 70 156 23 22 34 49 21 49 -4 0 -18 -6 -33 -14 -36 -18 -66 -21 -129
-12 -78 12 -95 3 -91 -46 3 -40 3 -41 -32 -43 -163 -8 -296 -18 -415 -30 -187
-19 -447 -29 -537 -20 -49 4 -81 13 -96 25 -22 18 -23 23 -13 72 6 29 11 76
12 103 2 34 12 68 33 105 43 79 85 142 112 166 44 39 24 67 -31 44z m-38 -55
c2 -1 -14 -34 -35 -75 l-37 -73 -7 61 c-4 33 -12 70 -17 81 -11 19 -9 20 41
14 29 -3 54 -7 55 -8z m-113 -233 c-2 -65 -7 -128 -11 -140 -8 -20 -11 -19
-58 22 -27 24 -50 52 -50 62 0 10 -8 20 -17 22 -16 3 -30 -9 -60 -51 -15 -20
-82 -27 -99 -10 -11 11 82 82 170 129 22 12 59 35 82 53 24 17 44 31 45 31 1
0 1 -53 -2 -118z m-134 -92 c0 -5 -2 -10 -4 -10 -3 0 -8 5 -11 10 -3 6 -1 10
4 10 6 0 11 -4 11 -10z m46 -84 c34 -28 63 -59 63 -70 1 -21 7 -25 -96 59 -40
33 -73 63 -73 68 0 17 45 -7 106 -57z m29 14 c27 -28 45 -50 40 -50 -6 0 -33
23 -60 50 -27 28 -45 50 -40 50 6 0 32 -23 60 -50z m1332 -22 c-13 -29 -30
-77 -38 -105 -7 -29 -15 -53 -19 -53 -5 0 -15 49 -37 177 l-5 32 58 3 c33 2
61 2 63 1 1 -1 -8 -26 -22 -55z m-1621 -25 c8 -89 10 -246 3 -345 l-4 -66 -45
35 c-56 44 -190 184 -190 199 0 6 11 21 25 34 13 12 22 27 19 31 -17 27 133
186 178 189 3 0 10 -35 14 -77z m80 43 c-4 -11 -11 -43 -16 -70 -12 -59 -20
-70 -21 -30 0 16 -2 38 -5 49 -8 38 -11 74 -7 78 2 2 15 2 29 -1 21 -4 24 -9
20 -26z m157 -54 c70 -58 77 -67 77 -99 l0 -36 -47 44 c-27 24 -48 51 -48 59
0 9 -11 16 -26 18 -15 2 -35 12 -45 23 -9 10 -23 19 -31 19 -17 0 -17 10 3 31
20 22 18 23 117 -59z m-130 3 c-3 -9 -8 -14 -10 -11 -3 3 -2 9 2 15 9 16 15
13 8 -4z m1397 -63 c16 -87 13 -362 -4 -379 -4 -5 -63 -10 -131 -13 -134 -5
-157 4 -35 15 89 7 115 14 104 25 -5 5 -40 5 -79 0 -110 -13 -183 -19 -270
-21 -65 -2 -81 1 -83 13 -2 12 11 17 55 23 85 11 108 13 219 15 96 2 137 11
122 25 -3 4 -26 6 -50 6 -101 -2 -217 -9 -275 -16 -55 -7 -63 -5 -63 9 0 23
-27 20 -35 -4 -5 -15 -15 -20 -41 -20 -32 0 -35 2 -29 23 4 12 10 25 14 29 10
11 197 31 316 33 61 2 127 3 148 4 26 1 37 5 37 17 0 13 -11 15 -77 10 -43 -3
-127 -8 -188 -11 -60 -3 -138 -9 -172 -14 -59 -7 -62 -6 -66 16 l-4 22 151 1
c83 0 180 4 216 9 36 4 71 6 78 4 16 -7 62 5 62 16 0 16 -81 19 -183 6 -56 -8
-166 -14 -245 -13 -121 0 -143 2 -152 16 -17 29 -38 -11 -45 -86 -4 -37 -8
-78 -10 -92 -2 -14 -4 -35 -4 -47 -1 -20 -6 -23 -42 -23 -38 0 -41 2 -35 23 4
12 9 45 12 72 3 28 10 63 15 79 5 16 9 42 9 57 0 15 3 30 8 32 4 3 115 8 247
13 307 9 387 16 393 32 3 10 -14 11 -75 8 -43 -3 -91 -7 -108 -10 -56 -8 -450
-9 -469 -1 -24 10 -51 -21 -35 -41 7 -8 5 -36 -5 -91 -9 -43 -19 -100 -24
-128 -7 -44 -10 -50 -32 -50 -24 0 -25 2 -22 60 1 33 7 85 12 115 6 30 11 80
13 110 l2 55 355 3 c477 3 470 3 470 18 0 18 -46 25 -110 16 -30 -4 -211 -7
-401 -7 l-345 0 -14 -120 c-7 -66 -16 -148 -19 -182 -4 -34 -9 -65 -13 -68 -3
-4 -38 -3 -76 0 -68 7 -72 9 -120 59 -48 49 -50 53 -43 93 l6 42 80 -70 c78
-68 95 -78 95 -60 0 10 -151 146 -169 152 -6 2 -8 14 -5 26 6 22 7 22 38 -11
30 -33 86 -74 86 -63 0 3 -27 34 -60 68 -54 56 -60 66 -58 100 l3 37 59 -52
c87 -76 117 -99 122 -93 3 3 -24 31 -60 63 -36 33 -66 62 -66 67 0 4 11 7 23
7 16 0 28 -9 35 -24 12 -27 59 -62 69 -53 7 7 -38 77 -49 77 -5 0 -8 6 -8 14
0 26 71 43 189 44 108 2 364 23 461 40 25 4 118 8 206 9 l162 3 12 -68z
m-1762 23 c7 -13 14 -14 35 -6 l28 11 -28 -35 c-15 -20 -39 -43 -53 -52 -22
-15 -25 -15 -35 2 -5 9 -20 32 -32 51 l-22 33 37 4 c20 2 42 4 49 5 7 1 16 -5
21 -13z m457 -29 c17 -17 48 -45 69 -61 29 -24 37 -36 34 -56 l-3 -26 -45 29
c-31 19 -38 28 -23 26 41 -5 24 17 -19 24 -25 5 -51 18 -65 33 -13 14 -28 25
-33 25 -15 0 -12 -38 4 -47 16 -9 36 -46 36 -65 0 -10 -2 -10 -8 -1 -10 16
-49 6 -56 -15 -28 -77 -31 -69 54 -149 46 -43 77 -80 73 -87 -3 -6 -2 -8 2 -3
5 4 19 -3 32 -15 24 -22 32 -81 13 -93 -5 -3 -33 16 -61 42 -49 46 -50 48 -28
55 24 7 24 7 -2 5 -14 -1 -38 8 -53 21 -29 23 -46 28 -46 14 0 -4 42 -47 94
-95 72 -67 93 -92 89 -107 -3 -11 -8 -20 -10 -20 -3 0 -35 28 -71 63 -151 142
-142 130 -142 181 0 43 2 47 20 41 15 -5 18 -3 14 9 -3 9 -12 12 -21 9 -11 -4
-14 -2 -9 5 4 6 7 45 7 87 0 47 8 95 20 130 10 30 19 61 19 69 0 26 81 7 115
-28z m202 16 c9 -15 7 -21 -7 -30 -22 -13 -46 8 -36 33 7 20 29 19 43 -3z
m-167 -143 c56 -38 60 -43 60 -80 0 -21 -3 -39 -7 -39 -17 1 -100 97 -111 128
-6 17 -9 32 -6 32 2 0 31 -18 64 -41z m-479 -20 c16 -18 28 -33 27 -35 -2 -2
-32 4 -67 13 l-64 16 34 18 c43 23 36 24 70 -12z m380 4 c13 -16 12 -17 -3 -4
-10 7 -18 15 -18 17 0 8 8 3 21 -13z m4 -33 c3 -5 15 -10 26 -10 12 0 42 -23
70 -52 44 -48 49 -57 47 -95 -1 -30 -5 -40 -14 -35 -20 12 -134 123 -134 131
0 4 -9 16 -20 26 -11 10 -20 24 -20 32 0 15 36 18 45 3z m751 -35 c-3 -22 -33
-32 -48 -17 -17 17 -1 42 26 40 19 -2 24 -7 22 -23z m-12 -72 c-4 -16 -10 -48
-13 -72 -5 -38 -10 -45 -30 -46 -22 -2 -23 0 -17 43 3 25 6 58 6 73 0 26 4 29
31 29 29 0 31 -2 23 -27z m-507 -101 c-21 -4 -47 15 -47 35 0 11 8 9 32 -9 27
-18 29 -23 15 -26z m592 22 c-15 -19 -69 -19 -69 0 0 9 12 16 33 18 41 4 51 0
36 -18z m244 -31 c-7 -2 -19 -2 -25 0 -7 3 -2 5 12 5 14 0 19 -2 13 -5z m-868
-23 c3 -5 -1 -10 -9 -10 -9 0 -16 5 -16 10 0 6 4 10 9 10 6 0 13 -4 16 -10z
m-15 -51 c0 -6 -4 -7 -10 -4 -5 3 -10 11 -10 16 0 6 5 7 10 4 6 -3 10 -11 10
-16z m73 14 c-7 -2 -21 -2 -30 0 -10 3 -4 5 12 5 17 0 24 -2 18 -5z"/>
</g>
</svg>
