<?xml version="1.0" standalone="no"?>
<!DOCTYPE svg PUBLIC "-//W3C//DTD SVG 20010904//EN"
 "http://www.w3.org/TR/2001/REC-SVG-20010904/DTD/svg10.dtd">
<svg version="1.0" xmlns="http://www.w3.org/2000/svg"
 width="163.000000pt" height="145.000000pt" viewBox="0 0 163.000000 145.000000"
 preserveAspectRatio="xMidYMid meet">
<metadata>
Created by potrace 1.16, written by Peter Selinger 2001-2019
</metadata>
<g transform="translate(0.000000,145.000000) scale(0.100000,-0.100000)"
fill="#000000" stroke="none">
<path d="M1300 1334 c-69 -17 -122 -17 -155 -2 -19 8 -31 8 -50 0 -14 -6 -25
-15 -24 -19 4 -24 -3 -43 -16 -43 -8 0 -34 -9 -57 -19 -24 -11 -77 -33 -118
-50 -41 -16 -116 -50 -167 -75 -50 -25 -96 -46 -102 -46 -6 0 -64 -27 -129
-60 -65 -33 -126 -60 -135 -60 -10 0 -17 -7 -17 -16 0 -9 -25 -43 -55 -76 -70
-75 -94 -122 -102 -198 -10 -100 27 -139 192 -202 113 -44 160 -58 189 -58 32
0 263 -70 331 -100 22 -10 65 -21 95 -25 83 -11 130 -42 130 -87 0 -37 18 -36
31 2 6 17 15 30 20 30 6 0 7 23 4 54 -3 30 -1 90 4 133 6 43 12 98 12 123 1
25 5 64 10 87 5 24 16 87 24 140 20 133 30 183 43 215 6 14 14 55 18 90 9 85
39 174 75 219 39 49 24 61 -51 43z m-30 -89 c0 -8 -8 -36 -19 -62 -10 -26 -22
-73 -26 -103 -4 -30 -18 -94 -30 -142 -13 -47 -21 -89 -18 -91 2 -3 1 -7 -4
-10 -4 -3 -9 54 -11 126 -1 73 -4 166 -5 207 l-2 75 40 6 c67 10 75 10 75 -6z
m-165 -57 c3 -29 7 -134 10 -233 2 -99 6 -200 9 -225 6 -53 -14 -374 -25 -391
-10 -17 -187 43 -261 89 l-58 35 0 106 c0 115 12 208 37 286 21 63 70 156 91
171 12 9 14 15 5 25 -9 11 -37 13 -127 9 -64 -3 -116 -2 -116 2 0 20 354 175
402 177 25 1 27 -2 33 -51z m-448 -261 c2 -72 7 -157 13 -187 5 -30 14 -91 21
-134 6 -44 13 -86 16 -93 7 -18 -19 -8 -82 32 -27 18 -67 42 -88 54 -51 31
-70 72 -71 151 -1 66 19 124 67 193 24 35 16 45 -18 23 -26 -17 -26 -17 -15 4
7 12 44 37 83 56 40 18 72 33 72 34 0 0 1 -60 2 -133z m183 72 c0 -5 -7 -20
-15 -33 -8 -12 -29 -61 -46 -107 -27 -75 -31 -96 -31 -197 0 -62 -3 -110 -6
-107 -8 8 -41 202 -47 275 -2 30 -7 79 -10 107 -4 29 -4 56 -1 61 7 12 156 13
156 1z m-422 -105 c-38 -71 -40 -77 -30 -117 6 -23 14 -58 18 -77 16 -85 44
-114 202 -206 61 -36 112 -70 112 -75 0 -12 -6 -11 -38 5 -15 7 -47 17 -71 21
-47 8 -165 46 -197 63 -37 21 -133 62 -143 62 -19 0 -41 59 -41 111 0 83 82
219 132 219 11 0 35 16 55 35 20 19 37 35 39 35 2 0 -15 -34 -38 -76z m339
-396 c-3 -8 -6 -5 -6 6 -1 11 2 17 5 13 3 -3 4 -12 1 -19z m48 -109 c5 -6 3
-9 -7 -9 -24 0 -48 11 -48 22 0 10 39 1 55 -13z"/>
</g>
</svg>
