<?xml version="1.0" standalone="no"?>
<!DOCTYPE svg PUBLIC "-//W3C//DTD SVG 20010904//EN"
 "http://www.w3.org/TR/2001/REC-SVG-20010904/DTD/svg10.dtd">
<svg version="1.0" xmlns="http://www.w3.org/2000/svg"
 width="275.000000pt" height="161.000000pt" viewBox="0 0 275.000000 161.000000"
 preserveAspectRatio="xMidYMid meet">
<metadata>
Created by potrace 1.16, written by Peter Selinger 2001-2019
</metadata>
<g transform="translate(0.000000,161.000000) scale(0.100000,-0.100000)"
fill="#000000" stroke="none">
<path d="M1070 1383 c-25 -8 -52 -17 -60 -20 -8 -3 -31 -5 -51 -4 -41 3 -69
-20 -50 -42 6 -8 9 -16 6 -18 -2 -3 0 -21 5 -42 8 -37 7 -38 -28 -53 -21 -9
-45 -17 -55 -19 -70 -15 -244 -82 -317 -123 -36 -20 -67 -37 -70 -37 -3 -1
-27 -13 -55 -27 -69 -36 -125 -50 -141 -37 -7 6 -18 8 -23 5 -5 -4 -12 -2 -16
3 -9 15 -35 1 -35 -18 0 -17 40 -138 53 -157 4 -7 0 -17 -8 -24 -8 -7 -15 -17
-15 -22 0 -5 -9 -21 -20 -35 -40 -51 -30 -58 78 -60 53 -1 111 -7 127 -14 17
-7 32 -13 35 -13 3 -1 27 -14 53 -30 l48 -29 -7 -75 c-5 -61 -4 -74 7 -70 8 3
18 28 23 61 4 31 11 57 15 57 15 0 181 -90 198 -107 10 -10 37 -32 58 -48 22
-17 43 -34 47 -40 5 -6 11 -6 18 1 9 9 3 18 -22 37 -75 57 -137 99 -215 143
-45 26 -84 52 -86 58 -4 10 17 221 29 301 3 17 28 61 57 99 29 38 56 75 62 82
15 20 2 24 -39 13 -20 -6 -45 -8 -54 -6 -12 3 -7 6 13 12 17 4 53 19 80 31 58
27 158 63 196 71 21 4 28 0 38 -24 15 -36 17 -97 7 -185 -6 -58 -11 -68 -27
-68 -25 0 -24 -15 1 -33 16 -11 19 -26 21 -83 2 -110 3 -106 -31 -99 -37 8
-39 -7 -4 -24 27 -12 27 -12 9 -101 -2 -8 -4 -23 -4 -33 -1 -15 -7 -17 -37
-11 -43 8 -40 -7 6 -31 26 -14 28 -17 19 -49 -10 -38 -5 -95 11 -126 12 -22
30 -18 30 6 0 10 12 14 43 14 23 0 71 3 107 6 108 8 133 6 183 -15 26 -11 47
-16 47 -11 0 5 -9 12 -21 15 -12 4 -17 11 -13 15 20 19 706 32 864 16 36 -3
97 -9 137 -12 83 -8 85 -11 67 -92 -12 -52 -5 -118 10 -94 12 20 36 121 36
152 0 26 4 30 28 30 25 0 67 18 50 21 -5 1 -12 3 -18 4 -5 1 -19 3 -31 4 -19
1 -20 6 -15 52 7 62 21 85 114 189 40 44 71 84 67 90 -9 14 -207 8 -213 -8 -2
-6 0 -12 5 -12 4 0 9 -11 9 -25 2 -24 -1 -25 -52 -25 -50 0 -54 2 -54 23 0 37
21 141 31 153 5 6 46 14 91 17 132 11 131 43 -1 40 -41 -1 -77 0 -81 2 -4 2
-3 30 3 61 5 32 6 59 1 64 -14 14 -36 -5 -40 -31 -7 -50 -15 -84 -23 -92 -12
-12 -66 -4 -64 8 0 6 4 33 6 60 3 28 9 58 12 68 5 11 2 17 -8 17 -16 0 -57
-97 -57 -136 0 -28 -20 -31 -43 -6 -16 17 -89 169 -101 210 -9 27 -27 28 -51
2 -10 -11 -23 -20 -30 -20 -7 0 -34 -12 -60 -26 -27 -14 -83 -43 -125 -65
l-76 -40 -12 -82 c-7 -45 -15 -102 -18 -127 -9 -73 -6 -71 -91 -69 -132 3
-203 17 -273 54 -36 18 -117 61 -180 94 l-115 60 0 58 c1 87 12 184 26 223 19
52 67 131 102 168 25 26 29 36 21 49 -14 23 -22 24 -74 6z m-9 -71 c-11 -16
-29 -51 -39 -78 -11 -27 -25 -49 -32 -49 -7 0 -22 28 -35 62 l-22 62 61 14
c89 21 90 21 67 -11z m-433 -321 c-18 -28 -36 -51 -39 -51 -8 0 -22 45 -23 75
-1 16 7 21 44 25 25 3 46 4 48 4 2 -1 -12 -25 -30 -53z m1353 32 c6 -15 13
-30 17 -33 4 -3 20 -30 36 -60 16 -30 39 -65 52 -78 30 -29 30 -38 0 -54 -14
-7 -59 -34 -101 -60 -85 -54 -100 -58 -92 -25 3 12 11 51 17 87 6 36 13 77 16
93 4 19 2 27 -9 27 -22 0 -34 -20 -40 -65 -3 -22 -9 -58 -13 -80 -4 -22 -7
-48 -8 -57 0 -10 -3 -18 -7 -18 -7 0 -49 92 -49 107 0 4 -11 31 -25 58 -30 62
-31 71 -2 86 12 7 24 15 27 19 7 11 143 79 158 80 7 0 17 -12 23 -27z m-1437
-40 c12 -89 11 -228 -3 -300 -8 -40 -16 -73 -19 -73 -12 0 -128 76 -177 116
-76 62 -74 79 13 169 72 73 96 95 109 95 4 0 19 9 33 20 14 11 28 20 31 20 4
0 10 -21 13 -47z m-241 -86 c-29 -35 -53 -38 -53 -7 0 11 11 22 28 28 49 18
55 13 25 -21z m916 -164 l86 -41 -100 4 c-55 2 -117 6 -137 9 -39 5 -52 -8
-21 -20 10 -3 83 -10 163 -16 177 -11 210 -16 233 -37 17 -15 20 -15 30 -1 10
13 26 15 77 12 36 -3 67 -6 69 -9 2 -2 -1 -21 -7 -41 -14 -44 1 -61 29 -34 10
9 51 31 91 47 65 27 82 30 153 27 44 -1 114 -8 155 -13 84 -12 99 -13 253 -10
60 1 111 -1 115 -4 3 -4 0 -39 -7 -79 -7 -39 -15 -89 -18 -110 -5 -34 -8 -38
-27 -31 -52 18 -501 24 -726 9 -41 -3 -147 -8 -235 -11 l-160 -6 -90 42 c-108
50 -144 66 -169 74 -16 6 -18 13 -11 74 4 37 8 68 9 69 1 1 44 -20 97 -46 52
-27 106 -52 119 -56 23 -6 43 -14 142 -59 20 -9 39 -16 43 -16 4 0 18 -9 32
-20 14 -11 30 -17 36 -13 5 3 0 14 -14 24 -23 17 -41 26 -154 73 -85 35 -288
141 -287 149 1 4 2 43 2 86 l0 79 72 -31 c39 -18 110 -51 157 -74z m541 24
c15 -31 33 -64 40 -72 7 -8 9 -15 4 -15 -5 -1 -31 -3 -59 -5 -73 -6 -76 -2
-58 80 21 101 22 103 34 85 6 -8 23 -41 39 -73z m515 43 c-5 -17 -12 -88 -14
-144 -1 -18 -7 -18 -103 -12 -57 4 -136 11 -177 14 l-74 7 69 45 c38 24 93 59
122 77 l53 32 -3 -82 c-3 -76 -2 -82 17 -82 15 0 21 8 23 30 11 132 11 134 45
137 42 4 49 0 42 -22z m-1967 -81 c18 -18 31 -34 28 -36 -2 -2 -31 -1 -65 3
l-61 7 21 28 c26 37 38 36 77 -2z m2232 -45 c0 -9 -84 -113 -92 -113 -12 -1
-9 34 3 46 8 8 8 17 0 31 -19 36 -13 42 39 42 28 0 50 -3 50 -6z m-835 -43
c-6 -5 -20 -12 -32 -16 -18 -5 -22 -3 -17 9 3 9 18 16 32 16 16 0 22 -4 17 -9z
m-688 -187 c26 -8 54 -17 61 -19 7 -3 16 -5 20 -5 4 -1 14 -7 22 -14 8 -7 24
-17 35 -22 28 -12 -51 -18 -130 -9 -79 8 -89 15 -80 54 8 36 9 36 72 15z"/>
</g>
</svg>
