<?xml version="1.0" standalone="no"?>
<!DOCTYPE svg PUBLIC "-//W3C//DTD SVG 20010904//EN"
 "http://www.w3.org/TR/2001/REC-SVG-20010904/DTD/svg10.dtd">
<svg version="1.0" xmlns="http://www.w3.org/2000/svg"
 width="296.000000pt" height="156.000000pt" viewBox="0 0 296.000000 156.000000"
 preserveAspectRatio="xMidYMid meet">
<metadata>
Created by potrace 1.16, written by Peter Selinger 2001-2019
</metadata>
<g transform="translate(0.000000,156.000000) scale(0.100000,-0.100000)"
fill="#000000" stroke="none">
<path d="M1238 1464 c-4 -3 -29 -7 -55 -8 -26 -1 -81 -6 -120 -11 -54 -6 -76
-5 -88 5 -12 10 -18 10 -30 0 -12 -10 -14 -24 -9 -61 7 -54 4 -57 -84 -79 -27
-7 -40 -15 -36 -22 4 -7 3 -8 -5 -4 -12 8 -208 -56 -246 -79 -11 -7 -74 -29
-140 -50 -66 -20 -129 -41 -141 -45 -11 -4 -28 -3 -38 2 -12 6 -22 6 -32 -2
-19 -17 -18 -36 5 -74 41 -67 38 -85 -29 -172 -33 -43 -59 -86 -58 -94 3 -11
15 -14 50 -12 40 3 57 -2 115 -36 37 -22 100 -54 140 -72 l72 -33 -6 -66 c-2
-36 -8 -90 -12 -118 -5 -29 -4 -53 0 -53 10 0 28 61 35 120 8 69 14 90 23 90
5 0 46 -20 91 -45 45 -26 87 -44 94 -42 26 9 156 -84 156 -113 0 -9 -6 -24
-13 -34 -11 -15 -11 -24 2 -52 17 -38 34 -40 39 -3 2 13 7 27 11 32 9 9 149
33 241 42 36 3 69 10 74 15 13 13 10 13 -159 -5 -176 -18 -164 -19 -158 5 6
24 16 24 358 19 121 -2 452 -4 737 -4 l516 0 6 -35 c3 -19 6 -63 6 -97 0 -40
7 -78 21 -109 24 -57 25 -58 38 -50 6 4 5 23 -4 53 -12 40 -12 51 0 77 8 17
14 56 14 86 1 162 84 461 149 533 9 11 27 23 40 28 13 5 22 15 20 21 -3 9 -44
12 -152 12 -152 -1 -185 -9 -147 -36 20 -15 26 -40 22 -108 l-1 -25 -163 -3
c-89 -1 -250 -4 -357 -5 l-195 -3 -28 31 c-44 47 -89 117 -80 124 16 14 109
40 156 45 36 4 47 1 47 -10 0 -18 27 -18 37 0 5 8 51 59 104 113 l96 98 247 0
c137 0 253 3 259 7 26 16 -11 23 -121 25 -162 3 -365 5 -378 4 -7 -1 -58 -46
-114 -101 -56 -55 -108 -100 -115 -100 -23 0 -24 24 -9 188 5 48 3 72 -4 72
-24 0 -39 -32 -46 -91 -3 -35 -10 -67 -15 -72 -4 -4 -28 10 -53 33 l-45 41 13
40 c8 22 16 48 17 58 2 10 27 48 56 85 62 78 45 84 182 -56 66 -68 92 -88 113
-88 32 0 29 9 -29 72 -22 24 -55 61 -74 83 -19 22 -47 48 -63 57 -15 10 -28
24 -28 32 0 25 -20 29 -42 9 -26 -23 -83 -106 -80 -115 1 -5 -4 -8 -11 -8 -7
0 -27 -18 -45 -40 -37 -44 -97 -85 -112 -75 -12 7 -70 -22 -70 -35 0 -5 11
-12 25 -16 43 -11 49 -28 29 -81 -9 -26 -20 -52 -24 -56 -9 -10 -95 79 -158
162 -90 116 -104 136 -109 151 -3 8 -22 32 -41 52 -19 21 -36 48 -37 60 -2 22
-33 37 -47 22z m-96 -62 c-7 -2 -12 -8 -12 -13 0 -5 -20 -52 -45 -105 -25 -52
-45 -102 -45 -110 0 -8 -6 -17 -14 -20 -8 -3 -12 -12 -9 -20 4 -12 -12 -65
-47 -149 -5 -12 -7 23 -5 83 2 56 7 108 11 114 4 6 6 39 6 74 -1 56 2 65 23
83 33 25 31 34 -5 26 -26 -6 -30 -4 -30 14 0 18 6 21 53 22 28 1 66 5 82 8 29
7 61 1 37 -7z m140 -19 c14 -16 33 -43 42 -60 9 -18 35 -55 59 -82 68 -79 103
-125 110 -144 4 -11 12 -15 19 -11 7 4 10 4 7 0 -6 -6 15 -34 69 -92 12 -14
22 -30 22 -37 0 -6 -35 22 -77 64 -43 42 -111 108 -150 147 -40 38 -73 74 -73
79 0 16 -52 73 -87 94 l-34 21 22 24 c29 31 40 30 71 -3z m-93 -65 c43 -26 69
-55 77 -84 3 -12 53 -61 111 -110 90 -76 138 -122 244 -234 9 -10 23 -22 30
-26 8 -5 25 -25 38 -44 l24 -35 -33 30 c-19 17 -40 36 -48 43 -8 7 -50 40 -94
74 -45 34 -97 79 -117 101 -20 22 -71 71 -114 109 -42 37 -77 70 -77 73 1 8
-50 49 -77 64 -51 26 -27 -11 50 -80 45 -40 111 -101 147 -136 36 -34 94 -85
130 -113 131 -105 230 -191 230 -201 0 -5 -24 -9 -53 -9 l-52 0 -85 86 c-47
47 -112 109 -145 136 -33 28 -102 91 -153 139 -52 49 -101 89 -109 89 -13 0
-13 -3 -2 -17 34 -45 148 -156 184 -181 46 -31 39 -25 142 -117 43 -38 91 -85
107 -103 l29 -33 -57 4 c-58 4 -58 4 -154 99 -54 52 -119 115 -146 139 -27 24
-59 55 -70 68 -31 36 -80 81 -87 81 -4 0 -6 11 -5 24 0 13 4 22 8 20 4 -2 9 6
13 18 8 28 68 148 73 148 3 0 21 -10 41 -22z m-238 -35 c0 -16 2 -36 4 -46 2
-9 -1 -32 -5 -50 -17 -64 -37 -352 -44 -639 -1 -48 -5 -90 -8 -94 -4 -3 -24 8
-45 25 -21 17 -42 31 -47 31 -5 0 -31 18 -58 40 -26 23 -65 48 -85 58 -71 32
-103 61 -103 92 0 35 51 229 74 283 9 21 30 52 47 69 37 39 28 50 -43 52 -33
1 -53 5 -53 13 0 20 143 124 195 141 19 6 60 20 90 31 73 26 80 26 81 -6z
m812 -75 c-10 -49 -11 -49 -33 -36 -19 12 -19 13 8 35 15 12 28 22 29 23 0 0
-1 -10 -4 -22z m-1217 -61 c-37 -23 -110 -72 -161 -108 l-93 -67 -5 32 c-3 17
-8 38 -12 47 -5 12 8 21 57 38 174 62 205 73 233 86 58 26 49 14 -19 -28z m69
-77 c19 0 35 -3 35 -6 0 -3 -11 -24 -24 -47 -14 -23 -30 -64 -37 -92 -6 -27
-15 -54 -19 -58 -4 -5 -11 42 -15 103 -10 165 -26 134 -26 -50 0 -85 -2 -170
-5 -188 l-6 -32 -48 27 c-27 16 -74 51 -106 78 -78 68 -84 74 -84 90 0 14 126
117 217 178 46 30 49 31 66 15 10 -10 32 -18 52 -18z m481 -7 c21 -27 54 -62
74 -80 19 -18 45 -42 58 -55 12 -12 22 -20 22 -17 0 2 38 -32 85 -76 47 -44
85 -84 85 -88 0 -4 -19 -6 -42 -3 -24 3 -46 5 -49 5 -4 1 -73 68 -155 150
-145 145 -149 149 -140 180 5 17 12 31 16 31 4 0 25 -21 46 -47z m713 -28 c28
-21 51 -44 51 -50 0 -6 -38 -19 -85 -29 -69 -15 -88 -16 -100 -6 -20 16 -19
29 6 86 24 56 38 68 60 51 9 -7 39 -30 68 -52z m-736 -70 c25 -25 51 -45 57
-45 6 0 9 -4 6 -9 -4 -5 28 -40 69 -78 41 -37 75 -71 75 -74 0 -11 -44 -16
-75 -7 -17 4 -69 45 -122 97 -91 88 -92 90 -83 123 6 18 10 34 10 35 0 13 26
-5 63 -42z m67 -209 c0 -4 -17 -5 -37 -1 -29 5 -49 19 -83 58 -25 28 -44 57
-44 64 1 7 2 18 3 24 1 12 161 -131 161 -145z m1570 75 c-50 -95 -96 -236 -99
-303 -1 -10 -4 -18 -8 -18 -5 0 -9 33 -11 73 -1 39 -3 85 -5 101 -2 26 2 31
32 38 31 8 35 21 8 24 -7 0 -19 2 -27 3 -11 1 -15 17 -17 66 l-2 64 32 3 c18
2 53 3 79 4 l48 1 -30 -56z m-2422 -8 c20 -16 41 -34 45 -40 4 -7 25 -24 45
-38 51 -35 34 -31 -46 9 -38 19 -85 38 -106 41 l-37 7 22 24 c28 30 32 30 77
-3z m712 -28 c27 -29 23 -39 -14 -29 -19 4 -26 13 -26 30 0 31 11 30 40 -1z
m62 -77 c13 -22 10 -25 -35 -31 -24 -3 -51 -9 -60 -13 -14 -5 -17 0 -17 31 l0
38 52 -6 c28 -4 55 -12 60 -19z m125 -3 c2 -6 -14 -11 -39 -10 -25 0 -43 5
-46 13 -3 10 7 12 39 10 23 -2 44 -8 46 -13z m66 8 c-7 -2 -21 -2 -30 0 -10 3
-4 5 12 5 17 0 24 -2 18 -5z m275 -64 c81 -70 117 -83 45 -17 -21 19 -47 44
-57 56 l-19 22 50 0 c45 0 55 -5 97 -41 57 -50 73 -46 19 5 l-38 36 54 0 c47
0 58 -4 93 -36 47 -42 64 -37 23 6 -16 17 -24 30 -19 30 6 0 21 -11 34 -25 13
-14 27 -25 32 -25 10 0 92 -81 154 -153 23 -26 49 -47 59 -47 13 0 9 9 -19 40
-20 22 -36 44 -36 48 0 5 -31 42 -69 83 -38 41 -67 78 -64 83 3 4 65 5 137 1
72 -4 151 -6 176 -4 87 7 358 4 367 -4 13 -14 9 -265 -5 -279 -22 -22 -1298
-16 -1538 7 l-60 6 0 89 c1 48 3 90 6 92 16 12 63 27 104 33 l47 7 53 -58 c67
-74 83 -66 21 10 -25 31 -42 56 -38 57 4 0 26 2 48 3 39 3 43 0 138 -97 53
-55 100 -97 104 -93 4 4 -35 48 -85 99 -51 51 -89 96 -86 100 4 4 25 7 46 7
35 0 46 -7 111 -74 82 -83 141 -130 158 -124 6 2 -13 23 -43 46 -49 38 -158
152 -158 166 0 2 15 7 33 9 17 2 34 4 37 5 3 1 42 -30 88 -69z m-1057 21 c17
0 32 -6 36 -15 10 -27 -4 -27 -54 0 -26 14 -40 24 -30 21 10 -3 32 -6 48 -6z
m109 -65 c7 -8 19 -15 27 -15 17 0 113 -61 113 -72 0 -4 -28 8 -62 28 -35 19
-73 40 -85 46 -13 6 -23 15 -23 20 0 13 16 9 30 -7z"/>
</g>
</svg>
