<?xml version="1.0" standalone="no"?>
<!DOCTYPE svg PUBLIC "-//W3C//DTD SVG 20010904//EN"
 "http://www.w3.org/TR/2001/REC-SVG-20010904/DTD/svg10.dtd">
<svg version="1.0" xmlns="http://www.w3.org/2000/svg"
 width="313.000000pt" height="169.000000pt" viewBox="0 0 313.000000 169.000000"
 preserveAspectRatio="xMidYMid meet">
<metadata>
Created by potrace 1.16, written by Peter Selinger 2001-2019
</metadata>
<g transform="translate(0.000000,169.000000) scale(0.100000,-0.100000)"
fill="#000000" stroke="none">
<path d="M843 1511 c-5 -21 -103 -94 -140 -105 -13 -4 -23 -14 -23 -21 0 -23
-188 -206 -268 -262 -49 -34 -87 -53 -117 -58 -25 -3 -47 -11 -51 -16 -8 -13
20 -56 64 -98 l36 -34 -45 -39 c-24 -21 -52 -41 -61 -44 -20 -6 -24 -39 -7
-50 6 -3 16 -1 22 5 15 15 59 13 130 -4 55 -13 69 -20 109 -56 22 -19 140 -79
156 -79 7 0 12 -4 12 -10 0 -5 -7 -10 -15 -10 -8 0 -15 -6 -15 -12 0 -13 -105
-105 -183 -161 -44 -32 -197 -97 -228 -97 -22 0 -22 -8 -8 122 l11 102 60 74
c33 40 57 76 54 80 -4 3 -49 8 -101 10 -78 3 -95 1 -95 -11 0 -8 6 -17 14 -20
7 -3 16 -28 19 -59 8 -64 -10 -284 -26 -316 -10 -20 -5 -28 46 -77 62 -60 86
-67 110 -32 9 12 29 37 45 54 16 18 46 57 67 88 21 30 42 55 47 55 5 0 53 34
108 76 98 75 100 76 135 64 19 -6 35 -16 35 -21 0 -5 6 -9 14 -9 7 0 19 -7 26
-15 15 -18 60 -20 60 -2 0 7 14 40 31 73 17 32 32 67 34 76 5 23 55 108 64
108 4 0 35 27 69 61 66 64 67 64 62 -13 -1 -23 3 -28 22 -28 13 1 46 14 73 30
70 42 110 60 185 82 86 26 108 29 139 16 14 -6 46 -14 71 -17 l45 -6 -1 -40
c-4 -96 -38 -307 -51 -312 -8 -3 -37 9 -65 26 -47 29 -52 31 -73 17 -30 -20
-36 -65 -33 -249 2 -167 7 -175 68 -112 19 19 37 35 41 35 5 0 38 21 74 48 37
26 77 54 88 62 12 8 38 26 57 41 20 15 54 31 75 35 22 4 49 13 60 20 26 16
156 32 314 39 69 4 129 9 133 11 15 9 3 28 -18 30 -60 3 -62 4 -67 36 -2 18 2
67 9 108 8 41 16 100 19 132 5 47 10 57 28 61 12 3 181 7 375 9 259 2 352 5
352 14 0 16 -31 23 -89 19 -27 -2 -186 -5 -353 -7 l-303 -3 3 28 c1 15 18 60
36 100 18 39 37 82 41 95 17 57 76 160 109 191 33 32 47 61 29 61 -5 0 -33 -7
-63 -15 -72 -19 -100 -19 -115 2 -11 14 -19 15 -70 5 -77 -16 -86 -15 -78 4 5
13 -4 14 -71 8 -58 -5 -76 -4 -76 6 0 9 -10 11 -37 5 -71 -13 -138 -13 -206 3
-97 23 -101 18 -98 -137 2 -80 -3 -150 -14 -208 -10 -49 -19 -98 -21 -110 -6
-30 -18 -29 -144 8 -58 17 -123 35 -145 41 -90 23 -205 93 -205 125 0 28 -46
1 -52 -30 -2 -14 -31 9 -117 93 l-113 112 4 109 c3 87 1 109 -10 109 -8 0 -16
-9 -19 -19z m-7 -115 l1 -54 -33 20 c-19 11 -34 23 -34 26 0 8 52 62 59 62 3
0 6 -24 7 -54z m1124 -21 c0 -12 -24 -55 -32 -55 -4 0 -8 -6 -8 -14 0 -8 -11
-34 -25 -57 l-25 -44 -2 53 c-1 28 -2 60 -2 70 -1 10 13 24 34 34 34 17 60 23
60 13z m-134 -18 c2 -7 -15 -43 -40 -81 -56 -86 -72 -124 -58 -138 7 -7 18 6
36 44 14 30 36 66 47 79 l21 24 -7 -105 c-4 -58 -8 -109 -10 -115 -4 -22 -19
-111 -20 -120 0 -8 -114 -9 -122 -2 0 1 7 52 18 112 10 61 19 133 19 160 0 28
3 74 6 103 l7 52 49 0 c31 0 50 -5 54 -13z m265 -20 c-11 -18 -36 -64 -55
-102 l-35 -70 -1 83 c0 49 -4 82 -10 82 -7 0 -7 6 0 20 9 16 21 20 66 20 l56
0 -21 -33z m-1348 1 c45 -26 156 -119 290 -243 46 -44 57 -60 58 -87 0 -18 2
-42 4 -54 8 -37 -194 -214 -318 -279 l-53 -28 -112 68 c-62 37 -115 71 -118
77 -4 5 -7 55 -9 111 -2 108 -10 124 -46 91 -32 -29 -33 -8 -2 38 16 24 34 56
41 71 7 15 18 35 24 44 28 37 198 203 208 203 6 0 20 -6 33 -12z m1505 5 c-20
-38 -96 -199 -115 -243 -19 -44 -23 -48 -17 -20 4 19 8 85 10 145 l4 110 27 6
c41 10 95 10 91 2z m114 -9 c2 2 18 6 37 10 33 6 34 5 17 -13 -9 -10 -41 -71
-71 -136 -59 -129 -67 -142 -61 -99 12 73 15 213 5 219 -22 14 11 34 41 25 16
-4 30 -7 32 -6z m-391 -111 c-1 -43 -8 -103 -16 -133 -8 -30 -15 -71 -15 -90
-1 -70 -8 -80 -56 -80 -59 0 -63 14 -31 114 15 44 30 95 33 111 9 39 74 169
81 162 3 -3 5 -41 4 -84z m133 0 c-2 -38 -7 -84 -10 -103 -12 -67 -14 -75 -24
-135 -6 -32 -12 -60 -13 -61 -1 -1 -20 -4 -42 -6 l-40 -3 -3 49 c-2 29 3 61
12 81 9 18 16 37 16 41 0 23 94 204 106 204 0 0 0 -30 -2 -67z m150 -25 c-7
-131 -24 -261 -34 -272 -8 -8 -34 -10 -97 -7 -19 1 -23 7 -23 36 0 23 6 37 19
44 10 6 21 25 25 42 6 30 105 249 112 249 2 0 1 -42 -2 -92z m-1811 -105 c-10
-16 -20 -30 -24 -33 -3 -3 -17 -24 -31 -48 l-25 -43 -22 26 c-20 27 -20 45 1
45 5 0 23 10 38 23 45 36 74 57 77 57 2 0 -4 -12 -14 -27z m782 -73 c26 -22
96 -49 112 -43 7 2 22 -1 34 -8 21 -11 18 -13 -42 -33 -35 -12 -86 -34 -114
-49 -27 -15 -53 -27 -57 -27 -4 0 -7 17 -6 38 0 25 9 46 26 65 l26 27 -27 28
c-15 15 -27 31 -27 35 0 9 51 -13 75 -33z m-770 -182 l7 -27 -58 15 c-94 25
-89 22 -69 44 10 11 24 20 31 20 8 0 26 14 41 31 l28 31 7 -43 c4 -24 10 -56
13 -71z m1308 63 c19 -1 23 -44 8 -83 -21 -53 -40 -137 -44 -193 -7 -85 -15
-105 -43 -105 -38 0 -49 36 -36 117 6 38 14 111 17 163 4 52 8 97 10 100 3 4
33 5 88 1z m292 -22 c-3 -5 -8 -30 -11 -56 -3 -27 -12 -94 -19 -150 -8 -56
-12 -109 -9 -116 4 -11 -6 -17 -36 -22 -23 -4 -44 -4 -47 -1 -4 3 -1 36 5 73
6 38 15 116 18 175 l7 107 41 3 c47 4 59 1 51 -13z m-141 -116 c-7 -71 -15
-151 -19 -180 l-8 -52 -54 -7 c-66 -8 -75 1 -61 60 6 22 10 55 10 71 -1 17 8
64 18 105 10 41 21 87 24 103 6 25 10 27 54 27 l48 0 -12 -127z m302 80 c-3
-27 -12 -84 -19 -129 -7 -48 -9 -96 -5 -119 5 -21 7 -39 6 -41 -2 -1 -31 -6
-65 -9 -78 -9 -79 -6 -59 156 9 67 13 126 10 130 -2 4 -2 20 2 34 6 24 10 25
71 25 l66 0 -7 -47z m-1949 -131 c9 -6 7 -16 -10 -40 -24 -35 -35 -39 -43 -17
-17 43 18 79 53 57z m605 -39 c-17 -37 -52 -105 -57 -111 -4 -4 -85 51 -85 58
0 3 27 18 60 34 33 16 65 35 71 42 22 27 28 14 11 -23z m667 -178 c16 -8 61
-20 100 -26 39 -7 71 -15 71 -18 0 -3 -15 -15 -33 -27 -17 -12 -64 -42 -103
-68 -40 -25 -77 -46 -83 -46 -7 0 -11 31 -11 93 0 115 4 121 59 92z m-1166
-132 c-9 -16 -34 -47 -56 -70 l-40 -42 -33 26 c-19 14 -34 31 -34 38 0 6 19
17 43 24 23 7 56 18 72 25 26 12 52 22 63 25 1 1 -5 -11 -15 -26z"/>
<path d="M650 1180 c-9 -6 -9 -13 3 -31 20 -31 26 -73 31 -239 4 -170 14 -240
32 -240 19 0 19 -5 10 153 -6 113 -6 119 20 172 15 30 51 80 81 111 30 31 51
60 46 64 -11 11 -207 20 -223 10z m160 -36 c0 -12 -89 -103 -94 -96 -2 4 -7
26 -11 49 -6 46 -6 45 67 51 21 1 38 -1 38 -4z"/>
</g>
</svg>
