<?xml version="1.0" standalone="no"?>
<!DOCTYPE svg PUBLIC "-//W3C//DTD SVG 20010904//EN"
 "http://www.w3.org/TR/2001/REC-SVG-20010904/DTD/svg10.dtd">
<svg version="1.0" xmlns="http://www.w3.org/2000/svg"
 width="142.000000pt" height="138.000000pt" viewBox="0 0 142.000000 138.000000"
 preserveAspectRatio="xMidYMid meet">
<metadata>
Created by potrace 1.16, written by Peter Selinger 2001-2019
</metadata>
<g transform="translate(0.000000,138.000000) scale(0.100000,-0.100000)"
fill="#000000" stroke="none">
<path d="M815 1280 c-33 -33 -79 -70 -102 -81 -25 -12 -75 -57 -125 -112 -130
-144 -207 -210 -297 -253 -47 -23 -80 -45 -81 -54 0 -8 24 -31 53 -52 28 -20
60 -50 70 -67 l19 -32 -39 -37 c-21 -20 -48 -44 -61 -52 -32 -21 -27 -35 12
-37 31 -3 77 -19 161 -57 89 -41 126 -57 186 -84 37 -17 70 -35 74 -42 14 -23
99 -70 127 -70 26 0 78 -23 119 -52 10 -7 24 -8 35 -3 11 4 27 7 38 6 16 -2
17 2 12 36 -8 51 26 248 52 299 11 22 59 80 106 129 47 49 86 90 86 92 0 20
-100 -69 -159 -142 -102 -126 -242 -275 -276 -293 -39 -21 -54 -17 -91 24 -31
33 -31 34 -8 34 12 0 37 12 54 28 74 64 140 135 154 163 26 51 47 140 45 183
-3 46 -37 122 -65 147 -26 23 -180 79 -215 79 -39 0 -45 -30 -30 -134 8 -50
10 -134 7 -218 -5 -130 -4 -139 15 -157 19 -18 20 -22 8 -50 -8 -17 -16 -31
-19 -31 -3 1 -39 18 -80 38 -65 32 -79 44 -108 92 -33 54 -33 57 -28 143 3 48
3 87 -1 87 -4 0 -22 -15 -41 -32 -39 -39 -36 -26 20 75 21 38 38 73 38 76 0 4
11 22 24 40 14 18 22 39 19 47 -3 9 20 41 61 83 36 38 66 74 66 79 0 17 63 58
68 44 2 -6 20 -21 40 -34 74 -45 190 -139 226 -182 20 -25 46 -48 59 -52 28
-9 93 -65 89 -77 -3 -10 20 -30 62 -53 32 -18 60 -4 38 18 -7 7 -12 19 -12 28
0 17 -84 95 -138 127 -17 11 -57 47 -89 82 -46 49 -63 78 -84 137 -25 73 -30
131 -15 167 17 36 -21 16 -79 -43z m40 -124 c7 -16 1 -15 -43 10 l-51 29 37
38 37 38 6 -48 c3 -26 9 -57 14 -67z m-45 -256 c34 -13 54 -31 83 -71 36 -51
38 -58 34 -115 -7 -96 -64 -204 -109 -204 -11 0 -18 -7 -18 -18 0 -19 -36 -46
-50 -37 -6 4 -10 15 -10 26 0 11 -5 29 -11 40 -6 12 -10 77 -9 162 2 148 1
184 -4 229 -3 25 -2 26 23 16 14 -6 46 -18 71 -28z m-396 -93 l-47 -86 -35 35
c-19 19 -33 36 -31 38 2 1 24 14 49 28 25 15 58 40 75 58 16 17 31 27 33 22 1
-5 -18 -48 -44 -95z m4 -209 c1 -29 5 -61 8 -72 7 -20 12 -21 -86 5 l-46 13
53 53 c29 29 57 53 61 53 4 0 9 -24 10 -52z m581 -208 c-11 -47 -22 -102 -26
-122 l-6 -38 -51 37 c-28 20 -53 38 -55 40 -2 1 5 10 16 20 11 10 46 48 78 86
32 37 59 66 61 64 1 -1 -6 -41 -17 -87z"/>
</g>
</svg>
