<?xml version="1.0" standalone="no"?>
<!DOCTYPE svg PUBLIC "-//W3C//DTD SVG 20010904//EN"
 "http://www.w3.org/TR/2001/REC-SVG-20010904/DTD/svg10.dtd">
<svg version="1.0" xmlns="http://www.w3.org/2000/svg"
 width="227.000000pt" height="142.000000pt" viewBox="0 0 227.000000 142.000000"
 preserveAspectRatio="xMidYMid meet">
<metadata>
Created by potrace 1.16, written by Peter Selinger 2001-2019
</metadata>
<g transform="translate(0.000000,142.000000) scale(0.100000,-0.100000)"
fill="#000000" stroke="none">
<path d="M725 1218 c-45 -29 -90 -58 -100 -64 -11 -6 -19 -14 -17 -18 5 -11
-188 -210 -276 -285 -46 -38 -112 -84 -148 -101 -65 -30 -77 -49 -38 -60 30
-8 71 -39 89 -67 16 -23 15 -26 -2 -45 -10 -11 -44 -40 -76 -65 -75 -58 -63
-85 14 -32 l26 18 72 -67 c40 -37 114 -109 166 -159 51 -51 98 -93 103 -93 5
0 12 -10 15 -21 5 -18 11 -21 39 -16 24 3 49 -4 90 -25 46 -24 61 -27 78 -18
16 9 18 15 10 30 -16 31 -11 98 11 142 22 42 188 218 206 218 6 0 18 11 26 23
9 13 50 53 91 88 42 35 76 68 76 75 0 6 -13 30 -30 52 -16 23 -30 46 -30 50 0
5 -14 21 -31 38 -17 16 -65 70 -106 119 -41 50 -86 97 -99 105 -31 19 -34 28
-41 137 -5 76 -9 93 -22 93 -9 0 -52 -24 -96 -52z m60 -30 c1 -13 4 -38 8 -55
3 -18 2 -33 -2 -33 -13 0 -71 50 -71 60 0 4 15 17 33 29 17 11 32 21 32 21 0
0 0 -10 0 -22z m-36 -127 c22 -12 42 -25 46 -31 7 -11 -53 -15 -146 -11 -58 3
-80 -9 -60 -33 6 -6 12 -33 15 -58 l4 -45 -61 -7 c-33 -3 -73 -6 -90 -6 l-30
0 49 52 c27 29 85 88 129 133 l80 80 12 -27 c6 -15 30 -36 52 -47z m132 -103
c63 -67 62 -68 -51 -68 -95 0 -100 1 -91 18 20 37 70 82 91 82 12 0 35 -14 51
-32z m-182 -28 c-13 -22 -26 -40 -30 -40 -9 0 -20 60 -13 71 3 5 19 9 35 9
l30 0 -22 -40z m281 -95 c13 -14 22 -27 19 -29 -2 -2 -77 -7 -166 -11 -146 -7
-163 -6 -163 9 0 9 6 16 14 16 7 0 19 7 26 15 9 10 40 15 113 18 56 1 109 4
118 5 8 1 26 -9 39 -23z m-370 -20 c0 -20 -6 -25 -36 -31 -36 -7 -193 1 -201
10 -3 2 -2 13 1 23 5 17 18 19 121 21 l115 1 0 -24z m480 -91 l45 -46 -35 -29
-34 -29 -199 0 -198 0 3 23 c3 21 8 22 168 33 91 7 180 16 198 20 35 10 41 30
7 27 -11 -1 -100 -5 -199 -9 -172 -7 -178 -6 -174 12 3 17 18 20 123 30 66 6
149 12 185 12 65 2 65 2 110 -44z m-801 6 c-6 -16 -14 -30 -19 -30 -9 0 -35
29 -29 33 2 1 13 7 24 14 31 18 35 15 24 -17z m213 12 c110 -3 117 -5 108 -22
-8 -15 -24 -18 -102 -18 -51 -1 -101 -1 -111 -2 -12 0 -17 -6 -15 -17 3 -16
17 -18 117 -18 102 0 114 -2 117 -18 3 -25 -7 -27 -141 -35 l-116 -7 3 25 c3
32 -10 53 -28 46 -18 -7 -18 3 2 49 12 29 19 35 32 29 9 -4 70 -10 134 -12z
m495 -182 l-38 -32 -150 -1 -150 -2 3 25 c3 23 8 25 68 30 36 3 119 6 185 8
l120 3 -38 -31z m-688 -52 c1 -35 -9 -35 -39 -3 l-23 25 24 26 24 26 6 -24 c4
-13 7 -35 8 -50z m301 43 l0 -28 -110 -6 c-60 -3 -114 -8 -120 -12 -27 -17 11
-25 116 -25 l115 0 -3 -32 c-3 -31 -6 -33 -43 -34 -22 -1 -69 -5 -105 -8 -95
-8 -110 4 -110 94 l0 69 53 3 c28 2 87 4 130 5 l77 1 0 -27z m288 -89 c-12
-15 -42 -44 -64 -65 -40 -36 -44 -37 -115 -37 -54 0 -70 3 -62 11 6 6 31 12
55 13 88 4 94 36 8 36 -59 0 -60 0 -60 28 0 16 3 32 7 35 3 4 62 7 131 7 l124
0 -24 -28z m-288 -93 c0 -4 -12 -9 -27 -11 -35 -4 -37 -32 -3 -36 14 -2 31 -9
38 -15 9 -7 16 -7 24 1 14 14 98 16 98 3 0 -18 -122 -111 -145 -111 -16 0 -35
14 -57 41 -18 23 -48 59 -67 81 -23 25 -31 42 -24 46 16 10 163 10 163 1z
m102 -171 c-5 -41 -12 -46 -32 -23 -11 13 -9 20 10 40 13 14 24 24 25 22 1 -1
0 -19 -3 -39z"/>
<path d="M1768 1222 c-18 -16 -55 -41 -83 -56 -58 -31 -135 -99 -135 -119 0
-14 -21 -35 -105 -102 -27 -22 -61 -52 -75 -67 -14 -15 -59 -45 -100 -67 -41
-22 -75 -46 -75 -53 0 -7 23 -26 52 -43 77 -44 72 -58 -42 -144 -53 -40 -93
-76 -90 -81 10 -16 20 -12 73 24 l49 35 54 -51 c30 -27 86 -80 125 -118 39
-37 85 -75 102 -84 33 -17 40 -30 22 -41 -18 -11 -11 -23 18 -30 16 -3 56 -24
90 -46 77 -50 91 -47 87 19 -4 56 15 140 40 178 9 14 35 42 57 62 23 20 46 42
52 47 6 6 31 26 56 45 25 19 54 46 64 60 11 14 40 44 65 67 50 47 50 66 -1 35
-28 -17 -41 -18 -88 -12 -30 5 -104 9 -164 9 -97 1 -107 3 -96 16 11 13 38 15
164 13 83 -2 159 -7 169 -12 13 -6 17 -4 17 12 0 20 -61 100 -137 179 -75 78
-89 103 -103 185 -10 62 -10 83 0 107 25 62 -8 79 -62 33z m2 -107 l0 -36 -31
23 c-28 21 -29 24 -13 35 31 22 44 16 44 -22z m-35 -104 c-6 -5 -39 -11 -75
-14 -50 -3 -66 -8 -68 -20 -4 -18 39 -34 57 -22 7 4 11 -9 12 -37 1 -40 -1
-71 -4 -75 -1 0 -59 -4 -129 -7 -97 -5 -128 -3 -128 6 0 15 90 100 147 140 24
16 43 32 43 37 0 4 16 24 36 44 l36 36 42 -39 c27 -26 37 -43 31 -49z m15 -56
c0 -2 -8 -20 -17 -40 -18 -38 -33 -31 -33 18 0 22 4 27 25 27 14 0 25 -2 25
-5z m130 -105 c0 -4 -29 -8 -65 -9 -36 -1 -65 1 -65 5 0 4 12 28 27 53 l26 45
39 -43 c21 -24 38 -47 38 -51z m55 -60 l29 -30 -123 0 c-121 0 -122 0 -119 23
3 19 10 23 63 28 117 11 119 11 150 -21z m-291 14 c9 -3 16 -15 16 -25 0 -17
-9 -19 -102 -19 -57 -1 -122 -5 -145 -9 -41 -8 -43 -7 -43 15 0 13 6 25 13 25
6 1 64 5 127 9 63 3 116 7 117 8 1 1 8 -1 17 -4z m-334 -39 c0 -8 -4 -15 -9
-15 -13 0 -22 16 -14 24 11 11 23 6 23 -9z m344 -54 c13 -21 -18 -29 -121 -33
-99 -3 -113 -1 -113 13 0 8 2 18 5 21 8 8 224 7 229 -1z m333 -75 c4 -4 -2
-15 -13 -25 -16 -16 -39 -20 -146 -23 l-128 -4 0 23 c0 15 8 27 23 33 24 11
253 7 264 -4z m-340 -16 c6 -29 -13 -39 -100 -48 -94 -10 -103 -14 -92 -33 6
-8 32 -10 97 -5 l89 6 -3 -33 c-3 -31 -5 -32 -56 -38 -52 -7 -86 -24 -77 -40
3 -4 37 -5 76 -2 l70 6 -3 -36 c-4 -46 13 -51 32 -9 8 18 25 35 37 38 51 13
40 -5 -36 -64 -69 -54 -83 -61 -97 -50 -9 7 -50 45 -92 85 l-77 71 1 79 c1 43
2 80 3 83 0 3 52 6 113 5 92 0 113 -3 115 -15z m-287 -31 c0 -22 5 -49 10 -60
16 -30 1 -23 -40 18 l-36 37 25 23 c36 31 41 29 41 -18z m506 -74 c-47 -43
-51 -45 -113 -45 l-63 0 0 34 0 34 63 9 c34 4 85 9 112 10 l50 2 -49 -44z
m-163 -222 c-9 -72 -13 -76 -53 -51 l-35 21 45 38 c25 22 46 39 47 39 2 0 0
-21 -4 -47z"/>
</g>
</svg>
