<?xml version="1.0" standalone="no"?>
<!DOCTYPE svg PUBLIC "-//W3C//DTD SVG 20010904//EN"
 "http://www.w3.org/TR/2001/REC-SVG-20010904/DTD/svg10.dtd">
<svg version="1.0" xmlns="http://www.w3.org/2000/svg"
 width="274.000000pt" height="144.000000pt" viewBox="0 0 274.000000 144.000000"
 preserveAspectRatio="xMidYMid meet">
<metadata>
Created by potrace 1.16, written by Peter Selinger 2001-2019
</metadata>
<g transform="translate(0.000000,144.000000) scale(0.100000,-0.100000)"
fill="#000000" stroke="none">
<path d="M1552 1351 c-8 -4 -12 -14 -11 -22 2 -8 0 -24 -4 -36 -11 -30 -101
-40 -177 -20 -51 14 -56 14 -74 -3 -19 -19 -15 -40 9 -40 9 0 16 -19 20 -57 9
-84 9 -80 1 -176 l-8 -87 -137 5 c-75 3 -192 12 -261 20 -69 8 -147 17 -175
20 -27 3 -68 2 -89 -2 -36 -8 -39 -11 -43 -47 -2 -23 1 -42 7 -46 16 -10 24
-216 10 -225 -8 -5 -9 -29 -5 -74 l7 -66 -31 29 c-39 38 -121 159 -121 181 0
9 -4 24 -10 34 -19 36 -47 162 -44 197 4 42 39 84 96 114 20 11 52 30 71 43
20 13 69 41 111 62 74 37 93 60 59 71 -20 6 -39 15 -97 45 -49 26 -70 19 -61
-20 6 -29 4 -32 -75 -125 -45 -54 -60 -66 -76 -66 -10 0 -14 -6 -11 -14 6 -16
-22 -46 -43 -46 -7 0 -41 -25 -74 -56 -34 -31 -70 -64 -81 -74 -11 -9 -54 -37
-95 -61 -41 -23 -77 -45 -80 -47 -8 -6 41 -41 100 -71 167 -86 353 -191 401
-227 30 -22 81 -56 114 -76 66 -38 198 -135 203 -149 2 -5 10 -9 18 -9 24 0
15 29 -14 44 l-29 15 13 63 c8 35 14 77 14 94 0 17 7 48 15 68 13 32 20 36 53
38 20 0 51 2 67 4 78 7 228 5 237 -4 5 -5 6 -34 1 -73 -5 -35 -5 -89 -1 -119
7 -57 4 -133 -7 -161 -3 -9 -17 -21 -30 -27 -32 -15 -24 -35 21 -51 22 -8 49
-31 72 -62 20 -27 40 -49 45 -49 4 0 34 17 67 38 32 20 81 50 107 65 26 15 75
44 108 63 33 20 116 65 185 101 69 37 148 81 176 98 28 18 61 36 74 40 13 4
34 19 47 33 19 21 251 132 276 132 5 0 27 12 50 28 62 41 102 53 138 40 22 -7
33 -7 44 2 20 17 19 40 -3 40 -25 0 -160 70 -260 135 -48 31 -148 94 -222 140
-74 47 -139 88 -145 93 -5 4 -64 43 -130 86 -236 154 -254 168 -248 183 10 26
-36 43 -65 24z m155 -138 c65 -36 126 -73 136 -82 10 -8 34 -24 52 -36 19 -11
72 -46 119 -77 47 -32 88 -58 90 -58 3 0 22 -11 42 -25 72 -49 19 -23 -170 82
-246 137 -320 176 -378 198 -27 10 -48 20 -48 23 0 6 31 42 36 42 2 0 57 -30
121 -67z m-257 2 c0 -3 -13 -46 -29 -97 -46 -145 -64 -218 -57 -225 12 -12 24
11 46 91 12 43 30 98 41 122 10 24 18 45 17 47 -4 6 19 33 38 44 18 10 38 5
125 -31 93 -38 362 -180 430 -228 32 -22 255 -133 286 -142 24 -8 111 -58 157
-92 l29 -21 -39 -20 c-22 -11 -61 -31 -89 -46 -56 -28 -193 -91 -365 -165
-206 -90 -587 -223 -734 -256 -24 -6 -27 -4 -22 10 3 9 9 57 11 108 13 216 27
364 40 401 7 22 16 56 19 76 3 20 10 48 15 63 10 25 5 32 -23 27 -5 -1 -5 30
0 76 5 43 9 120 9 171 l-1 92 48 0 c26 0 48 -2 48 -5z m-786 -19 c-3 -8 -30
-31 -61 -51 l-55 -37 27 37 c31 40 63 65 82 65 7 0 10 -6 7 -14z m-316 -303
c1 -31 56 -183 81 -223 38 -62 117 -151 182 -203 19 -16 27 -25 19 -21 -8 4
-35 23 -58 42 -41 33 -243 151 -395 231 -37 19 -67 38 -67 42 0 3 10 10 22 16
13 6 63 40 111 77 49 36 92 66 96 66 5 0 8 -12 9 -27z m387 9 c-3 -8 -5 -18
-5 -22 0 -5 -10 -18 -22 -29 -17 -17 -19 -23 -8 -36 8 -10 9 -15 1 -15 -6 0
-11 -9 -11 -20 0 -11 -4 -20 -9 -20 -5 0 -12 -8 -14 -17 -3 -10 -5 5 -6 32 -1
28 -6 69 -10 92 -5 23 -6 45 -3 48 3 3 25 4 49 3 31 -2 42 -7 38 -16z m290
-12 l80 -7 -86 -2 c-47 0 -123 -6 -168 -12 -45 -6 -84 -10 -85 -8 -2 2 0 15 5
27 10 26 3 26 254 2z m256 -20 l27 0 -13 -62 c-7 -35 -16 -101 -20 -146 -5
-60 -10 -81 -18 -73 -7 7 -69 11 -170 11 -141 0 -158 2 -153 16 3 9 6 20 6 26
0 6 7 7 16 4 14 -5 15 -4 4 9 -10 12 -8 21 14 50 15 19 32 35 37 35 6 0 9 7 7
16 -2 14 -18 17 -90 19 -94 3 -132 -10 -112 -36 17 -22 25 -67 18 -103 -5 -32
-8 -33 -40 -29 -20 3 -41 -1 -49 -7 -12 -10 -15 -10 -15 -1 0 7 -10 11 -22 9
-19 -2 -24 2 -26 24 -2 15 4 43 13 61 9 19 21 56 28 83 l12 49 100 11 c55 6
145 14 200 18 55 4 118 11 140 16 22 4 49 6 60 4 11 -2 32 -4 46 -4z m-346
-157 c-4 -10 -15 -38 -24 -63 -26 -70 -46 -64 -47 15 l0 65 39 0 c33 0 38 -3
32 -17z m-95 -143 c0 -5 -10 -10 -22 -10 -13 0 -53 -3 -90 -7 -59 -5 -68 -4
-68 11 0 14 13 16 90 16 53 0 90 -4 90 -10z m107 4 c-3 -3 -12 -4 -19 -1 -8 3
-5 6 6 6 11 1 17 -2 13 -5z m-103 -94 c-2 -14 -6 -43 -10 -65 -3 -22 -6 -55
-6 -72 0 -18 -2 -33 -6 -33 -4 0 -23 14 -42 31 -19 17 -47 38 -62 47 -15 9
-28 19 -28 23 0 4 -11 21 -24 37 -44 51 -29 67 77 83 90 14 92 14 98 -6 3 -11
5 -31 3 -45z m1135 -84 c-5 -4 -81 -46 -219 -119 -52 -27 -100 -54 -106 -58
-17 -14 -280 -159 -287 -159 -2 0 -17 18 -33 41 -35 51 -33 53 104 99 53 18
124 43 157 55 33 13 114 42 180 65 66 22 136 50 155 60 31 17 61 27 49 16z"/>
<path d="M1647 952 c-3 -15 -17 -40 -30 -54 -24 -26 -27 -27 -93 -17 -60 8
-70 7 -85 -8 -15 -15 -16 -25 -7 -63 21 -95 13 -322 -17 -433 -14 -53 -3 -73
24 -41 9 10 64 40 122 65 l105 46 -7 -46 c-11 -64 -11 -81 1 -81 5 0 14 19 20
43 28 106 26 103 124 137 50 17 109 36 131 41 58 14 293 88 336 106 21 8 46
12 58 8 15 -5 21 -2 21 10 0 8 -8 18 -17 21 -10 4 -36 14 -58 24 -22 10 -68
29 -102 44 -34 14 -98 43 -141 65 -44 21 -99 45 -123 54 -75 26 -214 90 -217
99 -8 20 -40 7 -45 -20z m70 -32 c8 0 43 -13 78 -30 35 -16 69 -30 74 -30 14
0 132 -52 128 -56 -2 -2 -58 12 -125 31 -66 19 -127 35 -134 35 -7 0 -30 5
-50 11 -38 10 -38 10 -21 35 11 17 19 22 26 15 6 -6 17 -11 24 -11z m-11 -71
c69 -13 295 -74 321 -87 10 -5 44 -14 75 -21 32 -7 60 -17 63 -22 4 -5 17 -9
29 -9 15 0 26 -7 29 -20 3 -12 0 -20 -7 -20 -7 0 -17 -5 -23 -11 -15 -15 -124
-59 -133 -54 -4 2 -40 -7 -81 -20 -133 -42 -239 -64 -239 -49 0 7 4 15 9 18 5
3 12 18 16 33 3 16 20 45 37 66 39 49 30 59 -62 63 l-72 3 7 -32 c10 -38 8
-110 -3 -152 -7 -25 -16 -32 -48 -39 -21 -5 -63 -14 -91 -21 -29 -6 -53 -9
-53 -4 0 36 145 377 166 389 0 0 27 -5 60 -11z m-184 -23 c5 -8 8 -7 8 2 0 14
28 16 48 3 11 -7 11 -11 -2 -24 -9 -8 -16 -22 -16 -30 0 -7 -3 -17 -7 -20 -4
-4 -24 -58 -45 -120 l-38 -112 2 115 c1 63 -1 136 -4 161 -5 45 -5 46 21 41
14 -3 29 -10 33 -16z m255 -156 c-8 -14 -55 -117 -61 -134 -14 -42 -18 -2 -6
68 12 74 13 75 41 73 16 -1 28 -4 26 -7z m-140 -206 c-3 -4 -43 -21 -89 -40
-69 -28 -84 -31 -86 -18 -5 22 -4 22 89 48 79 22 101 24 86 10z"/>
</g>
</svg>
