<?xml version="1.0" standalone="no"?>
<!DOCTYPE svg PUBLIC "-//W3C//DTD SVG 20010904//EN"
 "http://www.w3.org/TR/2001/REC-SVG-20010904/DTD/svg10.dtd">
<svg version="1.0" xmlns="http://www.w3.org/2000/svg"
 width="253.000000pt" height="138.000000pt" viewBox="0 0 253.000000 138.000000"
 preserveAspectRatio="xMidYMid meet">
<metadata>
Created by potrace 1.16, written by Peter Selinger 2001-2019
</metadata>
<g transform="translate(0.000000,138.000000) scale(0.100000,-0.100000)"
fill="#000000" stroke="none">
<path d="M794 1252 c-6 -4 -34 -34 -64 -66 -78 -88 -228 -214 -349 -296 -21
-14 -52 -38 -71 -53 -18 -16 -56 -40 -84 -54 -28 -14 -53 -27 -54 -28 -2 -2
15 -29 38 -60 23 -31 39 -62 37 -69 -3 -8 -32 -31 -66 -52 -33 -22 -60 -44
-60 -50 -1 -7 16 -11 42 -11 23 1 56 -4 72 -11 17 -6 77 -22 136 -36 125 -30
223 -72 276 -118 21 -19 54 -45 73 -58 19 -13 47 -35 62 -48 39 -36 44 -22 15
40 -21 44 -25 68 -24 138 0 47 -3 120 -7 163 -9 88 -6 90 57 50 23 -15 67 -42
97 -62 30 -19 76 -52 101 -73 47 -38 65 -46 71 -29 2 5 19 1 38 -9 19 -10 49
-25 67 -33 17 -9 56 -31 85 -50 30 -19 64 -38 76 -41 12 -4 27 -16 32 -27 6
-10 20 -19 30 -19 11 0 28 -8 38 -18 10 -9 30 -23 45 -31 15 -8 27 -18 27 -23
0 -14 15 -9 61 20 24 16 87 55 139 88 154 95 222 146 208 157 -9 6 -7 7 5 3
10 -3 32 1 49 10 25 13 28 18 17 26 -11 8 -11 9 3 5 9 -3 36 4 59 16 23 12 53
28 68 36 14 7 64 34 111 60 47 25 94 46 105 46 26 0 32 33 8 42 -10 4 -33 17
-51 29 -18 13 -56 30 -85 39 -50 17 -123 50 -197 92 -19 11 -71 34 -115 52
-144 60 -339 158 -379 190 -21 17 -42 31 -47 31 -4 0 -14 2 -22 5 -8 4 -24 -9
-41 -35 -15 -24 -34 -40 -46 -40 -10 0 -22 -4 -25 -10 -3 -5 -2 -10 4 -10 33
0 -258 -318 -319 -350 -27 -14 -60 -18 -143 -19 -60 0 -107 3 -105 7 2 4 37
39 78 77 92 86 176 175 164 175 -5 0 -65 -54 -133 -120 -85 -83 -127 -117
-132 -109 -13 22 2 111 29 169 29 62 87 155 102 165 5 3 10 13 10 22 0 12 -12
14 -62 12 -35 -2 -69 0 -75 4 -18 12 -51 -10 -55 -35 -2 -13 0 -39 4 -58 10
-48 10 -240 0 -240 -15 0 -90 82 -103 111 -6 16 -19 29 -29 29 -19 0 -86 -49
-112 -83 -16 -21 -16 -23 5 -34 12 -7 31 -12 43 -13 11 0 34 -6 50 -14 16 -8
52 -20 79 -27 28 -6 56 -13 63 -15 6 -2 12 -9 12 -16 0 -19 -202 -11 -280 11
l-61 17 35 53 c20 29 36 55 36 57 0 18 73 107 118 144 101 83 242 237 242 264
0 8 -13 7 -26 -2z m782 -186 c22 -12 66 -33 97 -46 31 -13 56 -25 54 -26 -1
-1 -49 11 -106 27 -57 16 -107 26 -112 23 -5 -3 -9 -1 -9 4 0 5 -18 15 -40 22
-22 7 -40 15 -40 17 0 2 10 18 21 36 l22 32 36 -33 c20 -18 54 -43 77 -56z
m-739 -20 c1 -1 -15 -37 -37 -79 l-38 -78 -7 58 c-3 32 -10 68 -15 80 -5 11
-7 23 -4 26 4 4 95 -3 101 -7z m639 -5 c32 -10 117 -36 187 -56 70 -20 151
-46 180 -57 29 -11 72 -26 96 -34 25 -8 81 -32 125 -53 45 -21 110 -51 146
-66 59 -24 119 -61 109 -68 -75 -51 -466 -251 -649 -332 -57 -25 -112 -53
-122 -62 -10 -9 -18 -11 -18 -5 0 6 -15 14 -33 17 -19 4 -60 30 -99 63 -37 31
-96 80 -133 107 -36 28 -82 67 -102 87 -33 34 -35 39 -21 55 24 29 59 103 80
173 11 36 27 73 37 82 9 9 43 50 76 92 33 41 65 75 71 76 5 0 37 -9 70 -19z
m-1053 -188 c-10 -16 -32 -49 -50 -74 -18 -26 -33 -49 -33 -53 0 -9 -34 -46
-42 -46 -5 0 -16 16 -26 37 -13 29 -14 37 -4 41 7 2 33 20 57 41 113 92 128
100 98 54z m172 -2 c3 -11 22 -34 41 -50 19 -17 33 -31 30 -31 -10 0 -122 44
-130 51 -5 5 1 17 15 28 30 26 36 26 44 2z m573 -99 c-18 -37 -29 -48 -50 -50
-38 -5 -35 6 17 57 25 24 45 49 46 55 0 7 3 6 6 -2 3 -7 -6 -34 -19 -60z
m-707 -76 l32 -14 -41 -26 c-23 -14 -46 -26 -52 -26 -11 0 -13 24 -4 58 7 26
19 27 65 8z m-96 -7 c-4 -6 -7 -26 -7 -45 0 -29 -2 -33 -14 -23 -18 15 -18 29
2 57 15 22 31 32 19 11z m695 2 c12 -8 9 -19 -15 -68 -17 -32 -31 -60 -32 -62
-1 -2 -22 12 -45 30 -24 19 -63 48 -88 64 l-45 30 90 6 c50 3 97 6 105 7 8 1
22 -2 30 -7z m-406 -42 c-60 -48 -114 -81 -167 -100 l-47 -17 -31 25 -31 26
38 19 c21 10 48 28 60 39 28 26 70 37 153 38 l64 1 -39 -31z m75 14 c-1 -10
-1 -20 0 -23 1 -3 4 -43 7 -90 2 -47 6 -103 8 -125 1 -22 0 -51 -3 -64 l-7
-23 -42 35 c-23 20 -52 39 -63 42 -11 4 -24 16 -28 28 -13 34 95 233 127 237
2 0 2 -8 1 -17z m398 -75 c29 -31 83 -74 230 -183 98 -73 84 -71 -49 6 -67 40
-150 84 -184 99 -64 29 -64 29 -56 98 3 21 28 13 59 -20z m-771 -29 c81 -70
83 -73 49 -55 -16 8 -57 22 -90 32 -33 9 -68 21 -79 26 -17 9 -16 11 10 29 16
10 34 19 40 19 6 0 37 -23 70 -51z m268 19 c-9 -30 -54 -98 -65 -98 -4 0 -19
11 -33 25 l-26 26 28 12 c15 6 42 22 61 34 42 28 44 28 35 1z m1306 -81 c0 -5
-90 -70 -115 -83 -114 -60 -175 -97 -175 -105 0 -5 -9 -9 -19 -9 -11 0 -23 -4
-26 -10 -9 -15 -41 -12 -54 4 -9 11 6 22 81 57 51 24 138 67 193 95 95 50 115
58 115 51z"/>
<path d="M1500 903 c-23 -26 -46 -48 -51 -48 -4 0 -21 -14 -36 -32 -47 -54
-166 -153 -184 -153 -9 0 -22 -6 -28 -14 -14 -16 7 -32 91 -65 47 -19 57 -27
55 -45 -2 -18 3 -21 29 -18 26 2 41 -8 104 -68 41 -38 80 -70 87 -70 34 0 -1
54 -96 147 -29 29 -57 53 -61 53 -4 0 -12 12 -19 26 -22 48 2 121 58 181 50
52 108 140 98 149 -2 3 -24 -17 -47 -43z m-140 -227 c-11 -48 -13 -50 -40 -36
-22 12 -22 12 11 46 18 18 34 33 35 31 2 -1 -1 -20 -6 -41z"/>
<path d="M1583 923 c-26 -10 -13 -33 17 -33 l30 0 0 -75 c0 -53 -4 -75 -12
-75 -7 0 -48 7 -91 15 -43 8 -81 15 -84 15 -8 0 8 -164 17 -173 4 -5 30 7 56
26 27 19 62 43 78 53 l29 18 -6 -34 c-4 -19 -11 -75 -16 -125 -5 -49 -11 -97
-13 -105 -1 -8 3 -15 11 -15 18 0 37 70 46 171 9 88 19 100 100 109 33 4 69
11 80 15 26 10 27 10 78 10 40 0 77 13 67 24 -3 2 -61 0 -129 -5 -68 -6 -125
-8 -128 -6 -8 9 31 111 55 145 13 17 21 36 18 40 -5 8 -184 13 -203 5z m132
-43 c6 -10 -31 -127 -46 -143 -10 -13 -8 115 3 136 10 19 33 23 43 7z m-172
-164 c37 -9 34 -18 -12 -44 -43 -25 -47 -23 -49 26 -2 28 1 33 15 29 10 -3 30
-8 46 -11z"/>
</g>
</svg>
