<?xml version="1.0" standalone="no"?>
<!DOCTYPE svg PUBLIC "-//W3C//DTD SVG 20010904//EN"
 "http://www.w3.org/TR/2001/REC-SVG-20010904/DTD/svg10.dtd">
<svg version="1.0" xmlns="http://www.w3.org/2000/svg"
 width="308.000000pt" height="174.000000pt" viewBox="0 0 308.000000 174.000000"
 preserveAspectRatio="xMidYMid meet">
<metadata>
Created by potrace 1.16, written by Peter Selinger 2001-2019
</metadata>
<g transform="translate(0.000000,174.000000) scale(0.100000,-0.100000)"
fill="#000000" stroke="none">
<path d="M1295 1543 c-22 -2 -53 -10 -70 -17 -16 -8 -57 -21 -90 -29 -108 -27
-285 -103 -454 -195 -184 -100 -185 -101 -197 -91 -7 6 -16 4 -24 -6 -7 -8
-24 -15 -37 -15 -56 0 -169 -178 -208 -325 -50 -193 9 -273 300 -410 55 -26
116 -55 136 -66 20 -10 44 -19 53 -19 9 0 36 -9 59 -20 71 -35 201 -61 312
-63 126 -2 139 5 133 75 -5 51 -2 54 36 37 l25 -12 -21 -17 c-38 -31 -13 -39
54 -18 52 16 98 20 263 23 110 1 232 6 270 9 39 3 187 8 331 11 143 3 275 10
293 15 35 10 61 27 61 40 0 8 -267 5 -410 -4 -349 -24 -745 -27 -831 -5 -30 7
-61 13 -69 13 -17 1 -18 20 -2 59 7 15 17 58 22 95 6 36 16 70 23 74 7 4 32
10 57 14 41 5 81 14 275 59 86 20 210 35 281 35 34 0 86 5 115 11 30 5 170 12
312 14 l258 3 10 -26 c10 -25 0 -199 -18 -312 -7 -44 -7 -269 -1 -276 16 -15
31 38 38 128 7 91 12 113 48 188 22 47 45 98 51 113 14 37 86 144 124 184 55
59 52 60 -284 56 -167 -1 -322 -4 -344 -6 -189 -17 -295 -18 -399 -7 -96 10
-119 10 -132 -1 -12 -10 -52 -13 -155 -12 -132 2 -142 4 -189 30 -55 31 -54
24 -20 143 11 36 22 85 26 110 9 62 33 159 49 195 7 17 23 57 35 90 13 33 27
64 32 70 11 12 10 42 -1 50 -14 8 -80 13 -126 8z m54 -98 c-21 -54 -71 -240
-79 -296 -5 -35 -18 -89 -29 -119 -19 -54 -20 -55 -22 -20 -1 19 -1 49 -1 65
6 124 6 354 0 370 -7 19 -4 20 66 20 69 0 73 -1 65 -20z m-146 -37 c4 -18 3
-91 0 -163 -6 -124 -14 -440 -14 -555 -1 -43 -5 -57 -21 -69 -19 -13 -20 -21
-15 -138 3 -68 8 -127 12 -132 12 -21 -16 -20 -57 2 -58 31 -75 40 -131 67
-26 13 -58 35 -70 49 -20 24 -135 101 -151 101 -7 0 -128 80 -136 90 -3 4 -25
20 -50 37 -25 17 -60 47 -78 67 l-34 37 -1 134 c-2 128 -1 134 22 159 14 14
30 26 36 26 7 0 20 9 30 20 10 11 64 43 119 70 56 28 124 64 151 80 62 38 166
88 270 133 90 38 110 35 118 -15z m-797 -330 c-25 -95 -30 -205 -13 -288 7
-33 56 -116 83 -141 16 -14 41 -39 56 -55 54 -57 94 -92 123 -108 17 -8 26
-15 20 -15 -5 0 -39 15 -75 34 -36 19 -88 46 -116 59 -151 72 -239 164 -205
217 6 10 11 36 11 57 0 22 4 52 9 68 5 16 12 45 15 65 7 38 68 129 88 129 6 0
8 -9 4 -22z m900 -253 c16 -8 54 -15 84 -15 71 0 54 -14 -38 -29 -53 -10 -75
-18 -83 -32 -22 -42 -31 -2 -20 84 2 11 26 8 57 -8z m1438 -4 c3 -5 -13 -37
-36 -72 -22 -35 -55 -95 -71 -132 -38 -86 -51 -70 -32 39 8 43 11 98 8 121
l-6 42 49 4 c27 2 57 4 66 5 9 1 19 -2 22 -7z"/>
<path d="M892 1217 c-6 -6 -16 -86 -23 -176 l-13 -164 -65 7 c-36 3 -77 8 -91
10 -14 2 -50 7 -80 11 -30 3 -65 13 -78 21 -36 23 -52 3 -52 -63 0 -46 3 -54
18 -51 9 2 18 14 20 26 3 22 7 23 45 17 23 -4 61 -7 84 -7 51 1 49 -13 -2 -22
-20 -4 -35 -13 -35 -21 0 -22 15 -26 58 -17 37 9 38 8 34 -14 -6 -30 9 -31 79
-2 71 29 108 55 120 85 8 21 14 24 51 21 66 -5 54 -26 -42 -74 -90 -45 -110
-59 -110 -75 0 -34 103 5 216 82 26 18 49 26 62 23 33 -9 41 22 46 182 2 82 5
158 7 168 6 32 -36 46 -142 46 -66 0 -100 -4 -107 -13z m194 -40 c8 -8 -76
-19 -111 -15 -16 1 -30 9 -33 15 -3 10 14 12 67 9 39 -1 74 -6 77 -9z m-14
-69 c-6 -6 -35 -13 -64 -15 -67 -4 -79 -9 -72 -28 5 -11 21 -15 59 -15 80 0
85 -4 85 -64 0 -71 -8 -80 -56 -67 -22 6 -56 11 -76 11 -32 0 -38 3 -38 21 0
16 4 19 18 14 36 -16 113 -26 128 -17 27 15 -9 40 -76 54 -65 13 -68 17 -54
87 l7 31 75 0 c58 0 73 -3 64 -12z m-275 -284 c-3 -3 -12 -4 -19 -1 -8 3 -5 6
6 6 11 1 17 -2 13 -5z"/>
<path d="M1005 756 c-76 -40 -109 -76 -68 -76 31 1 178 84 181 103 5 27 -25
20 -113 -27z"/>
</g>
</svg>
