<?xml version="1.0" standalone="no"?>
<!DOCTYPE svg PUBLIC "-//W3C//DTD SVG 20010904//EN"
 "http://www.w3.org/TR/2001/REC-SVG-20010904/DTD/svg10.dtd">
<svg version="1.0" xmlns="http://www.w3.org/2000/svg"
 width="261.000000pt" height="168.000000pt" viewBox="0 0 261.000000 168.000000"
 preserveAspectRatio="xMidYMid meet">
<metadata>
Created by potrace 1.16, written by Peter Selinger 2001-2019
</metadata>
<g transform="translate(0.000000,168.000000) scale(0.100000,-0.100000)"
fill="#000000" stroke="none">
<path d="M613 1486 c-40 -41 -93 -89 -118 -107 -25 -18 -45 -36 -45 -40 0 -4
33 -13 73 -19 79 -13 95 -20 146 -58 l34 -25 -98 -49 c-162 -82 -165 -83 -216
-59 -93 42 -128 10 -94 -84 8 -22 14 -54 15 -72 0 -19 8 -40 20 -51 16 -15 18
-24 11 -48 -4 -16 -12 -83 -16 -148 -7 -112 -9 -119 -37 -152 -17 -19 -34 -31
-39 -28 -5 3 -8 2 -7 -3 3 -7 -29 -47 -74 -95 -10 -10 -18 -20 -18 -22 0 -2
46 -1 103 1 94 3 105 2 121 -16 18 -20 18 -20 -26 -19 -24 0 -59 -3 -77 -7
-18 -4 -44 -8 -57 -10 -37 -4 -41 -14 -13 -38 26 -22 74 -84 95 -123 8 -13 9
-26 2 -37 -14 -26 15 -32 51 -11 24 14 29 23 25 43 -4 19 6 43 35 89 23 34 48
65 56 68 20 8 51 -4 210 -82 72 -34 147 -66 168 -69 28 -4 40 -12 47 -31 11
-28 11 -28 43 -13 20 9 24 19 25 57 3 87 10 100 60 123 145 65 255 117 313
145 14 7 86 17 160 23 73 6 159 15 189 21 30 6 128 13 218 15 89 3 182 9 205
15 24 5 52 7 64 4 20 -6 41 11 29 23 -11 12 -80 10 -136 -3 -63 -14 -72 -15
-237 -15 -62 0 -118 -2 -125 -4 -18 -6 -310 -33 -448 -41 -63 -4 -146 -12
-184 -19 l-68 -13 7 61 c5 53 23 150 40 223 3 13 26 30 67 48 35 16 92 43 128
61 36 18 87 37 115 44 27 7 55 17 62 23 7 5 62 11 122 13 61 2 114 5 118 8 5
3 91 8 191 12 101 3 191 8 200 10 19 3 146 8 173 6 17 -1 42 -92 35 -128 -2
-10 -7 -79 -10 -153 -4 -74 -9 -153 -11 -175 -3 -22 -7 -100 -10 -172 -5 -110
-3 -133 8 -133 15 0 25 51 52 275 19 155 31 223 52 290 24 73 89 195 125 232
27 28 29 33 15 39 -10 3 -32 4 -50 0 -17 -3 -61 -1 -97 4 -36 5 -74 11 -85 12
-14 2 -21 -4 -23 -19 -2 -13 1 -23 7 -23 6 0 11 -4 11 -9 0 -4 -12 -8 -27 -8
-83 1 -421 -15 -503 -23 -159 -16 -528 -17 -581 -2 -46 14 -46 14 -33 40 7 15
18 50 25 77 7 28 23 72 36 99 12 28 23 55 23 61 0 7 14 31 31 54 36 50 33 77
-9 67 -40 -10 -192 -14 -192 -5 0 9 -58 4 -67 -5 -3 -3 0 -12 7 -21 16 -19 19
-16 -60 -54 -36 -17 -76 -38 -90 -46 -14 -8 -36 -14 -49 -13 -21 3 -27 11 -38
58 -7 30 -12 89 -12 130 1 93 1 100 -8 100 -5 0 -41 -33 -80 -74z m47 -61 c0
-31 6 -71 14 -89 l14 -34 -32 18 c-17 11 -56 24 -86 31 -54 12 -54 12 -31 28
13 9 41 35 64 59 22 23 44 42 49 42 4 0 8 -25 8 -55z m478 -147 c-69 -160
-118 -331 -118 -411 0 -16 -5 -37 -11 -49 -6 -11 -13 -48 -15 -81 -2 -34 -8
-75 -13 -92 -11 -38 -6 152 8 285 6 52 13 157 16 232 9 204 10 205 121 207
l52 1 -40 -92z m-172 -50 c-3 -57 -6 -119 -6 -138 l0 -34 -85 89 c-47 49 -85
90 -85 92 0 2 10 8 23 14 12 5 49 25 82 44 33 18 64 34 68 34 5 1 6 -45 3
-101z m-216 -33 c7 -8 18 -15 24 -15 6 0 48 -36 93 -80 l82 -81 -4 -77 c-6
-97 -14 -265 -15 -315 0 -33 -2 -36 -18 -28 -16 9 -62 -6 -170 -55 -19 -9 -36
-13 -39 -11 -12 13 21 165 46 212 62 113 85 150 104 166 27 21 16 53 -14 44
-31 -10 -142 -7 -148 4 -4 5 -38 8 -76 6 -39 -2 -96 -4 -127 -4 -45 -1 -58 -4
-58 -16 0 -8 7 -15 15 -15 8 0 15 -3 15 -7 0 -5 8 -46 16 -93 33 -176 39 -227
36 -313 -2 -73 -5 -87 -19 -87 -20 0 -63 39 -63 57 0 7 -9 33 -21 58 -17 37
-20 56 -15 105 6 55 -2 77 -19 50 -11 -18 -26 -11 -17 8 5 9 10 38 10 65 0 26
6 80 13 120 11 62 20 81 62 134 43 55 61 69 150 114 56 28 106 55 112 60 14
13 31 11 45 -6z m-355 -110 l45 -11 -31 -36 c-42 -52 -54 -44 -85 62 -6 23 -5
24 10 11 9 -8 37 -19 61 -26z m1992 -44 c21 -1 20 -6 -29 -97 -28 -53 -57
-115 -64 -138 -13 -40 -13 -40 -12 44 0 47 -3 101 -7 122 -4 20 -4 46 0 58 6
18 12 20 48 16 23 -2 52 -5 64 -5z m-1209 -71 c29 -5 64 -7 78 -4 13 3 24 4
24 1 0 -9 -116 -77 -131 -77 -8 0 -25 -9 -39 -20 -58 -46 -67 -17 -34 108 2 7
13 11 26 8 13 -3 47 -10 76 -16z m-565 -82 c-8 -23 -25 -66 -39 -95 -13 -30
-24 -58 -24 -63 0 -6 -4 -10 -8 -10 -7 0 -19 54 -39 178 l-5 32 65 0 65 0 -15
-42z m187 20 c0 -7 -18 -40 -40 -73 -22 -33 -40 -64 -41 -70 -2 -33 -18 40
-18 87 l-1 57 38 4 c20 2 43 4 50 5 6 1 12 -4 12 -10z m-132 -126 c2 -64 0
-153 -3 -197 l-6 -80 -39 -23 c-47 -27 -70 -28 -71 -4 -4 107 4 179 27 228 13
29 23 57 22 61 -1 7 5 24 45 111 6 12 13 22 16 22 3 0 7 -53 9 -118z m300
-243 c-2 -22 1 -39 7 -40 5 0 4 -3 -2 -6 -7 -2 -13 -14 -13 -25 0 -12 -2 -19
-6 -16 -3 3 -2 41 2 84 5 44 10 71 12 60 2 -10 2 -36 0 -57z m-617 54 c3 -31
11 -58 24 -76 8 -12 15 -27 15 -33 0 -12 -74 -26 -147 -28 -41 -1 -42 0 -24
17 10 11 40 43 67 72 47 52 63 63 65 48z m561 -120 c-6 -54 -14 -125 -18 -158
-3 -33 -8 -62 -10 -64 -8 -9 -112 31 -171 65 -32 18 -79 43 -105 55 -52 23
-61 44 -25 55 12 4 33 15 46 25 13 11 35 19 49 19 14 0 30 7 36 15 11 14 197
94 205 88 2 -2 -1 -47 -7 -100z m253 -18 c-49 -24 -114 -52 -143 -63 -47 -18
-52 -19 -48 -4 3 9 8 34 12 55 4 24 12 37 23 38 9 1 31 3 49 5 19 1 36 5 39 8
4 3 40 6 82 5 l76 0 -90 -44z m-218 -37 c-3 -8 -6 -5 -6 6 -1 11 2 17 5 13 3
-3 4 -12 1 -19z m-568 -108 l-42 -62 -34 37 c-54 59 -49 65 62 83 28 5 51 8
53 7 1 -1 -16 -30 -39 -65z"/>
</g>
</svg>
