<?xml version="1.0" standalone="no"?>
<!DOCTYPE svg PUBLIC "-//W3C//DTD SVG 20010904//EN"
 "http://www.w3.org/TR/2001/REC-SVG-20010904/DTD/svg10.dtd">
<svg version="1.0" xmlns="http://www.w3.org/2000/svg"
 width="118.000000pt" height="121.000000pt" viewBox="0 0 118.000000 121.000000"
 preserveAspectRatio="xMidYMid meet">
<metadata>
Created by potrace 1.16, written by Peter Selinger 2001-2019
</metadata>
<g transform="translate(0.000000,121.000000) scale(0.100000,-0.100000)"
fill="#000000" stroke="none">
<path d="M748 1067 c-21 -20 -133 -111 -157 -127 -13 -8 -27 -14 -33 -12 -5 1
-38 -21 -72 -50 -163 -141 -318 -244 -349 -232 -7 2 -20 -2 -27 -11 -12 -14
-5 -24 49 -79 l63 -63 -51 -43 c-51 -43 -58 -66 -18 -54 12 3 28 13 34 22 16
19 23 16 158 -73 55 -36 112 -74 127 -83 16 -9 28 -25 28 -34 0 -13 8 -18 28
-18 16 0 42 -11 57 -24 31 -27 92 -43 107 -28 13 13 -2 42 -23 42 -47 0 -5 79
73 139 29 23 88 72 131 111 67 59 84 69 120 72 30 2 43 8 45 20 2 11 -3 18
-11 18 -10 0 -13 7 -10 20 7 26 -11 26 -44 0 -22 -17 -41 -19 -194 -19 l-169
-1 0 35 0 36 143 -5 c140 -5 142 -6 164 -33 17 -21 25 -25 34 -16 25 25 -56
153 -121 192 -19 11 -49 33 -66 48 -26 24 -29 33 -23 58 3 17 7 51 8 76 1 30
8 55 21 72 11 14 20 30 20 35 0 16 -28 22 -42 9z m-51 -138 c2 -32 -1 -40 -14
-37 -9 2 -21 11 -26 20 -9 13 -6 21 14 37 13 11 24 20 24 21 1 0 1 -18 2 -41z
m-69 -70 c17 -16 32 -33 32 -38 0 -4 -27 -5 -60 -3 -45 3 -66 0 -85 -12 -29
-19 -25 -36 9 -36 19 0 24 -7 29 -37 4 -21 3 -41 -1 -45 -5 -5 -30 -3 -58 3
-27 6 -60 12 -74 14 -14 1 -24 8 -22 15 2 7 -3 17 -10 21 -7 4 -10 9 -8 11 3
2 33 27 66 56 34 29 68 52 75 52 8 1 25 7 39 15 33 19 30 19 68 -16z m13 -121
c-27 -44 -38 -45 -43 -3 -4 34 -3 35 30 35 l34 0 -21 -32z m150 -16 c24 -16
51 -37 59 -46 13 -17 10 -18 -75 -12 -132 10 -134 11 -88 51 21 19 43 34 49
35 5 0 30 -13 55 -28z m-443 -14 c1 -7 5 -29 8 -48 5 -31 1 -41 -31 -75 -25
-27 -35 -34 -32 -20 3 11 11 40 17 64 20 78 35 107 38 79z m-85 -91 c-9 -31
-20 -57 -24 -57 -9 0 -49 49 -49 61 0 6 81 58 87 55 1 -1 -6 -27 -14 -59z
m186 37 c5 -5 -20 -34 -29 -34 -4 0 -10 11 -12 25 -5 22 -3 25 16 19 11 -4 23
-8 25 -10z m111 -64 c0 -31 -1 -31 -77 -44 -40 -7 -51 9 -26 36 21 24 49 36
81 37 18 1 22 -4 22 -29z m339 -67 c-2 -17 -181 -165 -250 -208 -83 -51 -105
-56 -94 -22 4 12 16 65 28 117 11 52 22 97 24 100 12 14 294 27 292 13z m-409
-13 c0 -10 -70 -80 -80 -80 -11 0 -11 0 -14 50 l-3 35 49 0 c26 0 48 -2 48 -5z
m-166 -52 c6 -26 5 -27 -24 -17 -42 15 -47 29 -19 50 26 19 31 15 43 -33z
m221 -20 c-4 -40 -11 -88 -17 -107 -9 -28 -13 -32 -22 -20 -6 8 -26 25 -43 37
l-33 23 58 69 c31 38 58 70 60 70 2 0 0 -33 -3 -72z m80 -188 c-3 -5 -12 -10
-18 -10 -7 0 -6 4 3 10 19 12 23 12 15 0z"/>
</g>
</svg>
