<?xml version="1.0" standalone="no"?>
<!DOCTYPE svg PUBLIC "-//W3C//DTD SVG 20010904//EN"
 "http://www.w3.org/TR/2001/REC-SVG-20010904/DTD/svg10.dtd">
<svg version="1.0" xmlns="http://www.w3.org/2000/svg"
 width="139.000000pt" height="123.000000pt" viewBox="0 0 139.000000 123.000000"
 preserveAspectRatio="xMidYMid meet">
<metadata>
Created by potrace 1.16, written by Peter Selinger 2001-2019
</metadata>
<g transform="translate(0.000000,123.000000) scale(0.100000,-0.100000)"
fill="#000000" stroke="none">
<path d="M934 1146 c-15 -38 -184 -142 -192 -118 -2 7 -8 12 -13 12 -9 0 -239
-166 -249 -180 -10 -13 -198 -138 -240 -160 -23 -12 -50 -20 -60 -17 -21 6
-50 -10 -50 -27 0 -7 12 -18 26 -25 38 -17 104 -72 104 -87 0 -8 -26 -32 -57
-56 -57 -42 -58 -59 -3 -39 38 13 66 1 180 -73 46 -31 88 -56 91 -56 4 0 9 -9
12 -20 3 -11 11 -22 19 -24 7 -3 47 -15 88 -27 59 -17 83 -29 112 -60 39 -41
58 -49 58 -24 0 18 1 18 34 6 14 -6 26 -19 28 -33 2 -18 10 -23 36 -24 41 -2
47 9 26 45 -17 28 -17 32 1 84 24 72 45 95 96 106 24 5 49 18 54 27 13 21 52
58 135 126 82 68 114 88 139 88 30 0 37 22 13 38 -12 8 -22 24 -22 37 0 13 -9
26 -22 32 -28 13 -112 78 -147 114 -14 14 -44 45 -65 68 -22 22 -45 41 -53 41
-7 0 -13 5 -13 11 0 5 -13 15 -30 20 -29 11 -29 12 -25 67 3 32 10 69 16 84
12 30 6 58 -11 58 -6 0 -13 -7 -16 -14z m-40 -118 c-4 -24 -7 -44 -9 -46 -1
-1 -13 7 -26 18 l-24 20 28 25 c15 14 30 25 32 25 3 0 2 -19 -1 -42z m-202
-150 c-12 -11 -140 -14 -135 -3 2 6 32 31 66 56 l62 46 7 -46 c4 -25 4 -49 0
-53z m88 84 c0 -11 -8 -27 -19 -36 -18 -16 -19 -16 -23 8 -5 26 7 46 29 46 7
0 13 -8 13 -18z m114 -47 c31 -14 56 -28 56 -32 0 -10 -156 -17 -171 -8 -7 5
-1 17 17 36 15 16 31 29 35 29 3 0 32 -11 63 -25z m128 -87 l20 -23 -144 -7
c-78 -4 -147 -3 -152 2 -18 18 8 30 72 31 55 1 164 11 181 18 2 0 12 -9 23
-21z m-422 3 l25 -7 -32 -17 c-41 -22 -43 -22 -43 8 0 26 7 28 50 16z m-78
-101 c6 0 7 -11 3 -27 -15 -61 -16 -80 -5 -128 10 -43 9 -61 -7 -122 l-19 -73
-46 29 c-55 35 -61 51 -56 144 3 75 -6 91 -36 61 -30 -30 -27 -8 9 60 19 36
35 72 35 79 0 6 22 26 48 43 l47 31 8 -48 c5 -27 13 -49 19 -49z m157 59 c-8
-5 -21 -9 -29 -9 -10 1 -7 7 10 21 17 14 26 17 28 9 3 -7 -2 -16 -9 -21z m383
-39 c36 -5 74 -20 102 -39 25 -17 49 -31 55 -31 13 0 44 -46 39 -59 -1 -6 -34
-35 -71 -65 l-68 -54 -122 -5 c-193 -9 -277 -8 -277 1 0 5 8 16 19 26 22 20
202 39 336 34 75 -2 90 0 90 12 0 26 -96 32 -268 18 -87 -8 -159 -12 -161 -10
-2 2 -1 15 3 30 7 26 10 27 112 36 72 6 130 5 189 -3 86 -12 124 -8 117 13 -5
16 -185 34 -304 30 l-103 -4 0 34 c0 19 6 36 13 39 23 9 242 7 299 -3z m-432
-32 c-31 -25 -35 -27 -42 -11 -13 35 -8 40 34 40 l42 0 -34 -29z m-302 -25
c-8 -10 -19 -30 -26 -45 -14 -33 -23 -35 -46 -9 -16 18 -15 20 26 44 52 30 66
33 46 10z m370 0 c-2 -10 -14 -20 -28 -22 -25 -3 -25 -3 -6 18 23 26 39 27 34
4z m-96 -88 c-24 -21 -28 -22 -34 -7 -13 32 -8 38 26 34 l35 -4 -27 -23z m88
-3 c0 -13 -23 -32 -39 -32 -11 0 -10 4 4 20 19 21 35 26 35 12z m-353 -92 c0
-32 -18 -39 -47 -20 -13 9 -12 13 9 30 31 27 38 25 38 -10z m263 -5 c-27 -29
-32 -28 -23 3 3 14 13 22 26 22 20 0 20 -1 -3 -25z m70 -4 c0 -12 -20 -25 -27
-18 -7 7 6 27 18 27 5 0 9 -4 9 -9z m345 -73 c-48 -31 -54 -32 -172 -34 -102
-3 -123 -1 -123 11 0 8 -1 18 -1 23 -4 20 53 29 194 31 l152 1 -50 -32z m-358
-33 c-4 -8 -17 -15 -29 -15 l-23 1 24 20 c26 21 37 19 28 -6z m-48 -51 c7 -6
-2 -12 -24 -16 -12 -2 -21 3 -23 15 -3 16 0 18 20 12 12 -4 25 -9 27 -11z
m265 8 c5 -8 -122 -83 -152 -90 -10 -3 -12 8 -10 39 l3 43 65 4 c36 2 67 6 69
8 7 7 19 5 25 -4z m-214 -52 c0 -5 -2 -10 -4 -10 -3 0 -8 5 -11 10 -3 6 -1 10
4 10 6 0 11 -4 11 -10z m190 -44 c-6 -20 -16 -38 -21 -41 -10 -7 -49 12 -49
24 0 10 72 62 78 56 2 -2 -1 -20 -8 -39z"/>
</g>
</svg>
