<?xml version="1.0" standalone="no"?>
<!DOCTYPE svg PUBLIC "-//W3C//DTD SVG 20010904//EN"
 "http://www.w3.org/TR/2001/REC-SVG-20010904/DTD/svg10.dtd">
<svg version="1.0" xmlns="http://www.w3.org/2000/svg"
 width="244.000000pt" height="128.000000pt" viewBox="0 0 244.000000 128.000000"
 preserveAspectRatio="xMidYMid meet">
<metadata>
Created by potrace 1.16, written by Peter Selinger 2001-2019
</metadata>
<g transform="translate(0.000000,128.000000) scale(0.100000,-0.100000)"
fill="#000000" stroke="none">
<path d="M1060 1221 c-18 -11 -134 -25 -172 -22 -31 3 -47 -17 -27 -33 23 -17
49 -79 40 -94 -13 -23 -249 -149 -351 -187 -74 -28 -162 -48 -215 -50 -27 -1
-58 -5 -67 -8 -10 -4 -25 -9 -33 -12 -20 -6 -19 -30 4 -99 18 -56 18 -57 -2
-82 -32 -41 -14 -59 62 -61 42 -1 74 -9 97 -22 19 -11 40 -18 47 -16 6 3 37
-19 68 -48 l56 -52 2 -89 c0 -49 4 -92 7 -95 14 -15 23 31 18 97 -3 39 -2 72
3 72 14 0 273 -187 293 -212 27 -34 43 -11 44 63 1 40 5 64 13 66 7 3 48 -30
92 -71 44 -42 85 -76 92 -76 18 0 -53 78 -129 142 l-31 25 25 12 c22 10 31 7
70 -21 24 -17 46 -29 49 -26 3 3 -11 18 -32 33 -21 16 -40 30 -42 32 -3 2 4
10 15 19 18 14 17 15 -18 9 -21 -3 -39 -1 -43 5 -8 13 48 13 92 1 24 -7 33 -6
37 5 6 17 78 19 107 4 13 -7 19 -7 19 0 0 18 18 11 25 -11 7 -20 41 -24 36 -4
-3 14 32 21 109 23 36 2 88 7 117 13 28 5 142 13 253 17 l201 7 -6 -48 c-9
-62 -9 -113 0 -127 16 -25 26 0 30 70 3 41 7 111 9 155 3 44 12 105 21 135 9
30 21 69 26 86 5 17 7 38 4 46 -7 19 30 125 61 171 28 42 26 74 -4 62 -31 -13
-96 -24 -148 -25 -34 0 -56 -5 -65 -16 -19 -23 1 -50 35 -46 24 2 26 0 26 -33
l0 -35 -92 -1 c-51 -1 -104 -3 -118 -5 -14 -2 -112 -6 -217 -9 l-193 -7 0 27
c0 44 58 178 88 202 21 18 24 25 15 34 -10 10 -18 10 -38 1 -14 -7 -50 -12
-79 -12 -51 0 -54 -2 -59 -28 -3 -15 -2 -61 4 -101 5 -40 6 -84 3 -97 -6 -23
-9 -24 -115 -24 -60 0 -127 6 -149 13 l-40 12 5 45 c4 25 10 56 15 70 4 14 13
46 19 72 6 26 25 70 41 98 35 60 31 84 -10 61z m-30 -51 c5 0 -4 -31 -20 -68
-16 -37 -30 -80 -32 -95 -2 -14 -7 -30 -12 -34 -4 -4 -6 -3 -5 2 5 17 -13 149
-22 167 -8 14 -3 19 23 27 18 5 39 7 46 5 8 -2 18 -4 22 -4z m349 -147 c-43
-98 -48 -108 -49 -93 -3 32 -10 86 -15 107 -4 18 0 22 22 26 66 10 64 12 42
-40z m-466 -16 c8 -50 -6 -180 -19 -184 -6 -2 -27 15 -48 36 -32 33 -37 43
-27 55 15 17 2 27 -26 20 -13 -4 -23 -17 -27 -37 -6 -28 -8 -30 -22 -15 -12
12 -24 14 -52 7 -21 -5 -48 -8 -62 -8 -20 0 -13 6 30 28 30 15 93 51 140 79
47 28 90 51 96 51 6 1 14 -14 17 -32z m1163 -95 c-26 -65 -48 -152 -46 -173 4
-24 0 -83 -4 -78 -2 2 -7 60 -10 127 -4 68 -7 127 -7 130 -4 28 4 41 29 45 65
10 63 12 38 -51z m-1109 -24 c-2 -13 -4 -5 -4 17 -1 22 1 32 4 23 2 -10 2 -28
0 -40z m-157 -28 c0 -5 -7 -10 -16 -10 -8 0 -12 5 -9 10 3 6 10 10 16 10 5 0
9 -4 9 -10z m-242 -25 c13 -28 16 -195 6 -294 l-7 -62 -88 90 c-48 49 -95 100
-103 113 -15 24 -15 25 54 74 66 46 86 73 58 75 -11 0 46 26 63 28 3 1 11 -10
17 -24z m87 -65 c-19 -37 -35 -74 -35 -80 0 -6 -3 -9 -7 -7 -5 3 -7 40 -5 82
2 42 6 75 8 72 3 -3 17 -2 32 3 15 4 30 5 34 3 4 -2 -8 -35 -27 -73z m100 70
c3 -5 26 -10 50 -10 62 0 99 -33 97 -85 -2 -49 -7 -53 -35 -28 -12 11 -37 30
-56 43 -28 19 -33 20 -28 7 5 -12 0 -18 -19 -23 -38 -10 -41 3 -9 36 37 39 19
39 -30 0 -53 -42 -59 -37 -23 20 31 50 42 58 53 40z m300 -20 l29 -6 -52 -32
c-55 -34 -73 -35 -67 -4 15 75 14 73 38 60 12 -6 35 -14 52 -18z m919 24 c14
-5 16 -30 16 -174 l0 -167 -37 -6 c-21 -4 -96 -7 -168 -8 -71 -1 -159 -5 -195
-10 -36 -4 -112 -9 -170 -11 l-105 -3 4 75 c3 74 3 75 49 115 70 62 71 62 177
73 95 10 223 30 254 39 10 2 11 7 4 14 -6 6 -33 6 -79 -1 -38 -7 -104 -14
-147 -17 -42 -3 -80 -10 -83 -15 -3 -5 -11 -5 -18 1 -6 5 -42 11 -79 13 l-67
3 0 33 0 32 113 0 c126 0 370 11 376 16 7 6 138 4 155 -2z m-1575 -65 c-41
-28 -77 -56 -81 -62 -9 -14 -10 -13 -29 43 l-15 46 67 2 c37 1 77 6 90 11 49
20 41 10 -32 -40z m893 19 c4 -39 -9 -269 -16 -275 -2 -2 -46 29 -98 69 -51
40 -112 87 -135 103 -24 17 -43 32 -43 35 0 15 141 86 180 91 103 13 108 12
112 -23z m116 -73 c4 -4 -49 -54 -69 -65 -13 -7 -16 -4 -14 18 5 67 2 63 43
56 20 -4 38 -8 40 -9z m-563 -12 c38 -21 57 -50 53 -82 l-3 -31 -30 28 c-48
44 -101 82 -115 82 -9 0 -8 -6 5 -20 16 -18 16 -20 2 -20 -29 0 -67 23 -67 40
0 13 11 16 68 15 37 -1 76 -6 87 -12z m214 -56 c48 -35 94 -69 102 -75 87 -72
115 -96 117 -103 2 -5 -15 -9 -38 -9 -34 0 -55 9 -106 45 -34 25 -68 51 -76
58 -7 7 -34 27 -60 45 -31 21 -45 38 -43 49 2 10 4 26 4 36 1 9 3 17 6 17 4 0
46 -28 94 -63z m-385 22 c5 -24 1 -35 -16 -49 -19 -15 -20 -20 -9 -34 7 -9 20
-16 29 -16 8 0 -4 -17 -29 -40 -52 -47 -44 -60 37 -59 63 1 94 -19 159 -102
35 -44 45 -66 45 -94 0 -27 -4 -36 -13 -32 -7 3 -73 49 -145 103 -125 94 -132
101 -132 134 0 82 37 220 59 220 5 0 11 -14 15 -31z m-303 -56 c24 -25 28 -34
14 -29 -10 4 -39 10 -62 13 l-44 6 22 23 c13 13 25 24 29 24 3 0 22 -16 41
-37z m455 8 c45 -25 77 -65 78 -94 1 -39 -6 -37 -69 20 -27 25 -67 54 -87 64
-21 11 -38 22 -38 25 0 7 101 -6 116 -15z m-79 -28 c23 -16 67 -53 100 -83 61
-57 71 -90 30 -91 l-22 0 23 -16 c12 -8 22 -22 22 -29 0 -24 -17 -15 -42 24
-32 48 -104 119 -128 127 -11 3 -18 14 -17 25 1 22 12 26 22 10 3 -5 16 -10
27 -10 20 0 20 1 4 19 -10 10 -33 22 -52 26 -19 3 -32 10 -29 16 9 14 19 11
62 -18z m302 -47 c47 -35 95 -68 105 -73 16 -9 11 -11 -29 -15 -54 -4 -76 5
-135 54 -31 26 -40 40 -40 66 0 17 3 32 6 32 4 0 45 -29 93 -64z m-329 -36
c11 -7 7 -10 -17 -10 -18 0 -33 5 -33 10 0 13 30 13 50 0z m269 -24 l32 -24
-35 1 c-31 1 -36 4 -36 24 0 28 -1 28 39 -1z m5 -94 c2 -4 -4 -13 -14 -20 -22
-13 -46 8 -36 33 4 12 10 14 25 5 11 -5 22 -14 25 -18z"/>
</g>
</svg>
