<?xml version="1.0" standalone="no"?>
<!DOCTYPE svg PUBLIC "-//W3C//DTD SVG 20010904//EN"
 "http://www.w3.org/TR/2001/REC-SVG-20010904/DTD/svg10.dtd">
<svg version="1.0" xmlns="http://www.w3.org/2000/svg"
 width="270.000000pt" height="96.000000pt" viewBox="0 0 270.000000 96.000000"
 preserveAspectRatio="xMidYMid meet">
<metadata>
Created by potrace 1.16, written by Peter Selinger 2001-2019
</metadata>
<g transform="translate(0.000000,96.000000) scale(0.100000,-0.100000)"
fill="#000000" stroke="none">
<path d="M547 889 c-14 -8 -17 -18 -12 -39 7 -32 0 -46 -83 -158 -52 -70 -55
-72 -69 -52 -20 29 -36 25 -75 -18 -46 -51 -143 -130 -202 -165 -45 -26 -53
-47 -18 -47 19 0 95 -44 157 -91 22 -16 57 -41 78 -54 20 -14 37 -29 37 -35 0
-9 129 -109 167 -129 12 -6 35 -11 52 -11 46 0 49 30 8 92 -19 29 -40 71 -47
93 -7 22 -16 45 -20 50 -4 6 -11 21 -15 35 -4 14 -23 57 -41 97 -46 100 -49
117 -27 148 10 14 69 60 131 102 99 66 113 79 110 101 -2 17 -14 32 -36 44
-18 10 -43 24 -55 32 -16 11 -27 12 -40 5z m57 -88 c3 -5 -10 -21 -30 -36 -32
-24 -35 -25 -25 -6 7 11 8 21 4 21 -9 0 29 29 39 30 4 0 9 -4 12 -9z m-219
-313 c101 -240 117 -273 148 -312 l32 -41 -28 18 c-35 22 -57 40 -116 92 -54
47 -114 93 -156 119 -16 11 -33 25 -38 32 -4 7 -23 18 -42 24 -19 6 -35 15
-35 18 0 4 38 38 85 76 47 39 85 73 85 78 0 4 4 8 9 8 4 0 30 -51 56 -112z"/>
<path d="M2504 831 c-28 -17 -111 -76 -141 -101 -7 -6 -15 -10 -18 -10 -6 0
-169 -124 -193 -147 -8 -7 -33 -27 -57 -43 -24 -16 -45 -34 -47 -40 -4 -12
-361 -17 -424 -6 l-41 7 18 65 c10 36 31 87 48 113 16 27 26 53 22 60 -4 6
-29 11 -57 10 -152 -4 -302 4 -329 16 -16 7 -65 16 -107 19 -75 5 -79 4 -94
-19 -13 -20 -15 -40 -9 -114 l7 -89 -39 8 c-21 5 -87 12 -148 15 -60 4 -136
13 -168 21 -92 22 -97 16 -92 -114 2 -59 4 -110 4 -114 2 -14 34 -9 108 17 58
19 93 24 172 24 54 0 111 3 126 7 26 7 27 6 25 -42 -4 -101 -1 -116 17 -112
15 3 18 13 15 68 -1 36 1 70 5 76 12 17 53 24 80 13 26 -9 26 -10 21 -104 -3
-52 -2 -95 2 -95 13 0 30 77 30 137 0 60 0 61 31 67 17 3 36 6 41 6 5 0 7 -45
6 -102 -3 -86 -1 -103 12 -103 10 0 14 9 13 30 -1 17 1 63 4 103 5 71 6 72 34
72 l29 0 0 -85 c0 -69 3 -85 15 -85 12 0 15 15 16 68 1 37 2 74 3 82 1 10 15
16 44 18 l43 3 -7 -85 c-6 -72 -4 -86 8 -86 11 0 17 21 25 85 6 47 13 89 17
92 3 4 103 9 222 11 l215 5 32 -30 c29 -27 144 -113 274 -206 28 -21 65 -53
81 -72 39 -43 97 -58 107 -26 3 12 4 29 0 40 -3 10 -1 58 5 107 23 186 44 437
45 533 0 52 -9 58 -51 32z m8 -58 c-5 -10 -14 -67 -21 -128 -6 -60 -17 -150
-23 -200 -6 -49 -12 -99 -13 -110 -1 -11 -3 -45 -4 -75 -2 -81 -12 -91 -53
-49 -18 19 -47 44 -63 55 -28 20 -30 25 -29 87 2 99 4 101 74 94 49 -6 60 -4
60 8 0 11 -12 15 -49 15 -28 0 -52 4 -55 9 -8 12 10 103 30 154 12 33 12 38
-1 43 -11 4 8 23 62 60 82 57 99 65 85 37z m-1316 -56 c3 -3 -15 -40 -40 -83
l-46 -79 0 41 c0 23 -3 63 -7 89 l-6 48 47 -5 c26 -3 49 -8 52 -11z m244 -1
c0 -8 -72 -158 -74 -154 -2 1 -1 34 3 73 5 63 8 70 31 76 31 9 40 10 40 5z
m-110 -17 c0 -5 -11 -27 -25 -47 -14 -20 -25 -41 -25 -47 0 -5 -9 -21 -18 -33
l-19 -24 3 39 c2 21 6 56 9 79 5 38 8 41 40 42 19 1 35 -3 35 -9z m183 -26
c-11 -15 -25 -47 -33 -71 -14 -45 -35 -70 -25 -30 3 12 7 46 9 73 2 46 5 50
32 56 38 7 40 5 17 -28z m95 -23 c-16 -33 -31 -60 -34 -60 -2 0 -1 14 3 32 5
24 2 34 -12 45 -21 14 -13 28 20 36 54 13 55 10 23 -53z m-62 -90 c-3 -25 -5
-51 -5 -57 -1 -14 -29 -17 -55 -7 -13 5 -14 10 -4 27 7 12 12 27 13 32 0 6 9
32 20 59 l19 49 8 -29 c5 -16 6 -49 4 -74z m-331 -7 c-5 -20 -10 -22 -33 -17
-15 4 -29 8 -31 10 -6 5 30 58 46 67 7 4 14 16 15 25 1 9 3 -1 5 -22 3 -22 2
-50 -2 -63z m1089 73 c-3 -13 -1 -27 4 -30 10 -6 -9 -101 -23 -114 -10 -11
-39 -11 -52 0 -8 6 -42 8 -90 4 l-77 -5 35 21 c19 11 48 31 64 45 17 13 39 30
50 38 11 8 34 26 50 40 38 31 47 31 39 1z m-964 -46 c0 -57 -1 -60 -24 -60
-14 0 -27 4 -31 9 -4 8 44 110 53 111 1 0 2 -27 2 -60z m86 -56 c-3 -8 -14
-14 -25 -14 -18 0 -18 2 3 58 l21 57 3 -44 c2 -24 1 -50 -2 -57z m-531 20
c137 -8 171 -18 178 -49 2 -14 0 -28 -4 -31 -5 -3 -57 -4 -117 -3 -94 1 -156
-6 -228 -26 -19 -6 -21 -2 -22 60 l-1 67 47 -6 c26 -3 92 -8 147 -12z m314
-43 c25 -16 -5 -40 -45 -37 -41 4 -49 10 -41 31 7 17 63 21 86 6z m119 -16
c10 -10 -8 -18 -38 -18 -35 0 -45 7 -35 23 7 11 61 7 73 -5z m82 -15 c0 -13
-11 -13 -30 0 -12 8 -11 10 8 10 12 0 22 -4 22 -10z m103 -7 c-13 -2 -33 -2
-45 0 -13 2 -3 4 22 4 25 0 35 -2 23 -4z m760 -61 c-11 -88 -10 -87 -98 -21
-44 32 -81 62 -83 67 -1 4 41 6 93 4 l94 -3 -6 -47z"/>
</g>
</svg>
