<?xml version="1.0" standalone="no"?>
<!DOCTYPE svg PUBLIC "-//W3C//DTD SVG 20010904//EN"
 "http://www.w3.org/TR/2001/REC-SVG-20010904/DTD/svg10.dtd">
<svg version="1.0" xmlns="http://www.w3.org/2000/svg"
 width="180.000000pt" height="124.000000pt" viewBox="0 0 180.000000 124.000000"
 preserveAspectRatio="xMidYMid meet">
<metadata>
Created by potrace 1.16, written by Peter Selinger 2001-2019
</metadata>
<g transform="translate(0.000000,124.000000) scale(0.100000,-0.100000)"
fill="#000000" stroke="none">
<path d="M993 1128 c-4 -7 -13 -28 -18 -47 -9 -29 -18 -37 -55 -49 -25 -8 -56
-22 -70 -32 -65 -43 -271 -130 -345 -145 -97 -19 -190 -19 -209 0 -45 45 -68
-13 -46 -115 27 -120 13 -162 -70 -208 -38 -21 -47 -46 -15 -47 35 -1 105 -28
105 -40 0 -7 12 -15 27 -18 116 -23 138 -32 190 -78 18 -15 98 -60 178 -100
80 -39 148 -75 151 -80 3 -5 17 -9 31 -9 15 0 44 -15 69 -36 43 -34 64 -37 64
-8 0 8 3 14 8 14 4 0 13 15 21 33 19 44 93 144 111 151 47 17 218 138 282 200
27 26 53 43 61 40 8 -3 26 10 42 30 33 41 52 51 72 35 11 -9 17 -9 26 0 9 10
-1 24 -48 66 -33 30 -71 60 -85 67 -30 16 -106 68 -176 120 -28 21 -55 38 -59
38 -17 0 -151 104 -185 143 -19 23 -34 49 -32 58 4 22 -14 34 -25 17z m67
-124 c32 -32 39 -45 25 -41 -11 3 -46 8 -78 12 l-58 7 28 33 c15 18 30 34 33
34 3 1 26 -20 50 -45z m-169 -33 c-6 -10 -8 -21 -5 -24 3 -3 40 -3 83 0 65 5
85 2 125 -16 27 -11 52 -19 56 -16 5 3 25 -5 45 -17 l37 -21 -48 -46 c-48 -44
-172 -153 -206 -179 -14 -11 -22 -9 -55 12 -21 13 -49 35 -63 49 -14 13 -44
36 -66 51 -44 28 -80 72 -86 101 -2 14 17 29 82 62 47 25 89 49 95 54 14 14
17 11 6 -10z m464 -181 c156 -108 176 -123 172 -134 -4 -11 -100 -23 -375 -47
-181 -15 -191 -10 -112 64 85 80 204 186 210 186 3 1 50 -30 105 -69z m-724
22 c-17 -22 -37 -45 -46 -52 -8 -7 -15 -19 -15 -26 0 -16 20 -21 105 -28 127
-10 158 -19 208 -54 69 -49 52 -58 -75 -38 -189 29 -279 55 -319 91 -28 26
-55 15 -51 -20 1 -17 -4 -64 -12 -105 -8 -41 -12 -78 -9 -82 7 -12 51 -9 59 3
4 7 48 31 99 55 79 37 98 42 124 34 17 -5 65 -10 106 -12 41 -2 74 -6 72 -9
-1 -4 -22 -24 -47 -44 -53 -45 -154 -95 -190 -95 -25 0 -50 -16 -50 -32 0 -4
19 -20 42 -34 23 -15 56 -40 73 -56 37 -35 70 -34 70 2 1 34 72 172 113 221
29 34 39 39 76 39 42 0 101 -29 159 -80 14 -13 36 -28 49 -34 31 -16 27 -63
-10 -94 -44 -37 -151 -83 -249 -108 -51 -12 -97 -25 -103 -29 -9 -6 -57 17
-193 93 -103 57 -211 154 -241 215 -8 19 -22 40 -31 47 -8 7 -15 16 -15 20 0
12 53 90 61 90 4 0 44 29 88 65 81 65 130 93 164 94 16 1 14 -5 -12 -37z m83
-23 c8 -12 28 -30 43 -40 l28 -19 -50 7 c-27 3 -60 9 -73 12 l-23 6 21 28 c26
33 34 34 54 6z m-270 -1 c-6 -10 -111 -88 -118 -88 -7 0 -18 78 -13 87 3 4 35
8 71 9 36 1 63 -3 60 -8z m138 -176 c6 -6 -11 -20 -46 -36 -30 -14 -57 -26
-60 -26 -8 0 -7 49 0 77 6 21 8 21 51 8 25 -8 50 -18 55 -23z m838 -45 c-84
-78 -148 -127 -165 -127 -10 0 -58 30 -108 68 l-90 67 54 7 c54 8 254 24 319
26 l35 2 -45 -43z m-1090 -54 c32 -50 39 -72 18 -56 -7 5 -35 18 -63 28 -67
24 -73 31 -44 54 37 31 56 26 89 -26z m448 -111 l-33 -60 -32 27 c-18 15 -29
31 -25 37 8 12 114 65 120 60 2 -2 -12 -31 -30 -64z m223 -176 c-46 -82 -40
-78 -84 -44 -35 28 -37 32 -21 41 15 9 96 34 116 36 4 1 -1 -14 -11 -33z"/>
</g>
</svg>
