<?xml version="1.0" standalone="no"?>
<!DOCTYPE svg PUBLIC "-//W3C//DTD SVG 20010904//EN"
 "http://www.w3.org/TR/2001/REC-SVG-20010904/DTD/svg10.dtd">
<svg version="1.0" xmlns="http://www.w3.org/2000/svg"
 width="314.000000pt" height="172.000000pt" viewBox="0 0 314.000000 172.000000"
 preserveAspectRatio="xMidYMid meet">
<metadata>
Created by potrace 1.16, written by Peter Selinger 2001-2019
</metadata>
<g transform="translate(0.000000,172.000000) scale(0.100000,-0.100000)"
fill="#000000" stroke="none">
<path d="M1154 1640 c-6 -6 -48 -15 -95 -21 -58 -7 -90 -16 -103 -29 -21 -20
-18 -32 24 -125 20 -43 30 -174 35 -485 2 -85 9 -181 16 -213 8 -39 10 -98 5
-182 -6 -125 -3 -155 18 -155 6 0 12 -9 12 -20 0 -18 -2 -18 -31 5 -16 14 -43
32 -60 41 -16 9 -43 27 -58 40 -15 13 -47 32 -70 42 -23 10 -64 40 -92 66 -61
58 -175 153 -221 184 -37 25 -42 37 -18 50 8 4 39 36 69 70 l53 61 39 -43
c104 -118 103 -116 103 -211 0 -65 3 -86 13 -83 6 3 13 23 15 46 3 44 10 50
30 30 21 -21 26 1 9 37 -9 20 -17 50 -17 67 0 51 21 158 31 158 6 0 24 -23 41
-50 17 -27 35 -50 41 -50 16 0 -1 46 -39 102 -34 50 -35 56 -29 113 18 187 19
214 1 221 -28 11 -63 -30 -221 -256 -65 -92 -156 -200 -170 -200 -7 0 -28 15
-47 33 -18 17 -54 50 -80 72 -26 22 -48 46 -48 52 0 7 18 24 39 37 22 14 42
30 46 36 7 11 169 118 248 164 72 41 156 81 205 96 42 13 142 102 123 108 -5
2 -38 -11 -73 -29 -71 -36 -140 -61 -247 -90 -41 -11 -125 -40 -187 -64 -113
-45 -170 -55 -192 -33 -10 9 -16 8 -29 -5 -16 -16 -16 -23 0 -114 17 -96 17
-98 -3 -112 -11 -7 -20 -19 -20 -26 0 -7 -16 -37 -35 -65 -39 -59 -40 -73 -4
-78 35 -6 237 -99 294 -136 28 -18 86 -49 130 -68 78 -33 156 -82 280 -173 66
-49 196 -115 226 -115 28 0 23 15 -8 30 l-28 13 27 7 c14 4 151 10 305 13 221
5 694 34 833 52 14 1 41 3 60 4 20 1 30 5 25 10 -6 5 -68 3 -150 -4 -223 -21
-268 -24 -491 -31 -173 -6 -225 -4 -285 9 -41 8 -103 21 -138 27 -82 15 -141
38 -141 56 0 18 -14 18 -29 0 -22 -26 61 -71 147 -81 12 -1 26 -5 29 -9 3 -3
-35 -6 -85 -6 l-92 0 0 34 c0 19 -4 37 -8 40 -10 6 -4 278 6 287 6 5 103 33
209 59 23 6 48 17 55 24 11 10 82 15 298 21 157 4 288 9 291 10 3 2 90 9 195
15 104 6 214 15 244 20 30 5 90 12 133 16 42 3 77 9 77 13 0 9 -126 4 -255
-10 -49 -6 -124 -12 -165 -15 -41 -3 -122 -9 -180 -15 -153 -15 -646 -19 -783
-6 l-117 11 0 30 c1 17 -1 83 -3 146 -4 101 -1 154 16 287 2 18 11 43 19 55 8
13 22 48 32 79 9 31 23 65 31 75 20 28 -7 58 -31 34z m-34 -70 c0 -8 -69 -192
-74 -197 -2 -2 -3 12 -3 30 0 17 -14 61 -31 96 -17 36 -29 67 -27 71 6 9 135
10 135 0z m-63 -302 c-2 -13 -4 -3 -4 22 0 25 2 35 4 23 2 -13 2 -33 0 -45z
m-401 23 c-3 -5 -57 -39 -118 -77 -62 -37 -136 -84 -164 -106 -28 -21 -56 -38
-62 -38 -13 0 -34 92 -23 103 5 5 24 12 42 17 19 5 99 31 179 59 167 58 153
54 146 42z m200 -83 c-14 -110 -18 -136 -37 -236 -10 -57 -19 -105 -19 -108 0
-14 -21 6 -77 72 l-61 70 41 60 c22 32 47 65 54 72 21 21 34 52 28 62 -3 6 1
7 9 4 9 -3 16 -1 16 5 0 12 36 51 46 51 4 0 4 -24 0 -52z m-537 -272 c18 -14
59 -49 90 -78 31 -29 83 -74 116 -100 33 -26 78 -63 100 -83 38 -33 38 -34 11
-25 -37 13 -89 40 -246 125 -69 37 -136 70 -149 74 -14 4 -26 12 -28 17 -4 11
55 94 66 94 4 0 22 -11 40 -24z m986 -43 c39 -6 39 -6 -45 -29 -119 -33 -172
-45 -176 -41 -2 2 -1 20 3 40 l6 37 86 0 c47 0 104 -3 126 -7z"/>
<path d="M2850 1219 c-25 -4 -100 -8 -167 -8 -78 -1 -124 -5 -129 -12 -3 -6
-2 -14 3 -18 5 -3 19 -49 33 -101 20 -80 24 -123 26 -275 1 -99 0 -196 -3
-215 l-5 -36 -91 -13 c-51 -7 -116 -16 -144 -18 -38 -4 -53 -10 -53 -21 0 -12
11 -14 68 -8 37 4 95 12 128 18 88 16 94 12 94 -68 0 -67 25 -174 40 -174 16
0 20 18 12 61 -5 25 -3 89 4 149 6 58 12 147 12 197 1 53 7 111 16 136 20 61
58 137 68 137 4 0 8 5 8 11 0 6 7 18 16 27 10 9 12 18 6 20 -14 4 52 117 96
164 29 31 37 61 14 57 -4 -1 -27 -5 -52 -10z m-7 -51 c-11 -13 -31 -43 -45
-68 -70 -126 -95 -159 -109 -147 -11 10 -11 9 -1 -4 9 -12 9 -24 1 -48 -6 -17
-14 -31 -19 -31 -4 0 -10 33 -14 73 -4 39 -15 106 -26 147 -11 41 -20 78 -20
82 0 4 44 9 98 11 53 1 110 4 126 5 l29 2 -20 -22z"/>
<path d="M2350 470 c20 -13 50 -13 50 0 0 6 -15 10 -32 10 -25 0 -29 -3 -18
-10z"/>
</g>
</svg>
