<?xml version="1.0" standalone="no"?>
<!DOCTYPE svg PUBLIC "-//W3C//DTD SVG 20010904//EN"
 "http://www.w3.org/TR/2001/REC-SVG-20010904/DTD/svg10.dtd">
<svg version="1.0" xmlns="http://www.w3.org/2000/svg"
 width="255.000000pt" height="149.000000pt" viewBox="0 0 255.000000 149.000000"
 preserveAspectRatio="xMidYMid meet">
<metadata>
Created by potrace 1.16, written by Peter Selinger 2001-2019
</metadata>
<g transform="translate(0.000000,149.000000) scale(0.100000,-0.100000)"
fill="#000000" stroke="none">
<path d="M1804 1349 c-3 -6 -1 -22 7 -35 11 -22 9 -28 -19 -67 -18 -23 -43
-63 -57 -89 -13 -25 -41 -69 -62 -98 l-38 -51 -85 7 c-47 4 -146 8 -220 10
-163 3 -165 3 -262 44 -54 23 -82 30 -90 23 -7 -6 -25 -13 -40 -17 -17 -4 -29
-14 -29 -24 -1 -9 -3 -28 -4 -42 -8 -68 -6 -213 2 -221 7 -7 7 -27 2 -57 -11
-55 -9 -160 3 -185 7 -14 13 -15 31 -6 12 6 31 20 42 30 11 9 63 38 115 64 52
25 103 50 112 56 10 5 27 9 39 9 20 0 20 -3 14 -98 -6 -82 -5 -100 8 -111 22
-18 40 -4 34 28 -7 37 3 81 17 75 8 -3 22 17 36 51 17 41 29 55 44 56 12 0 46
2 76 3 91 5 93 4 120 -82 24 -79 59 -161 106 -244 14 -26 28 -66 31 -89 5 -36
25 -60 39 -46 13 13 -16 157 -44 214 -20 42 -26 65 -19 72 5 5 11 56 13 113 4
123 28 259 49 274 8 6 15 17 15 25 0 21 55 111 84 138 14 14 26 33 26 44 0 18
-5 19 -52 13 l-53 -7 43 31 c59 42 134 78 139 65 2 -6 21 -35 43 -64 22 -29
40 -58 40 -65 0 -6 3 -21 6 -32 5 -20 0 -22 -50 -28 -60 -8 -75 -19 -56 -41
15 -18 -9 -213 -46 -359 -27 -109 -32 -200 -11 -194 6 3 15 22 19 44 4 21 11
57 16 79 25 102 34 143 39 175 9 64 93 220 118 220 13 -1 45 -69 52 -113 4
-25 0 -43 -14 -63 -11 -16 -40 -63 -63 -104 -53 -91 -128 -205 -191 -285 -74
-96 -93 -145 -56 -145 7 0 22 17 35 38 12 20 38 57 57 82 19 25 52 71 74 103
44 65 92 110 201 187 41 29 78 57 81 63 12 17 -3 46 -40 80 -27 25 -42 51 -60
107 -13 41 -28 80 -33 87 -14 18 -28 75 -21 87 4 6 7 49 8 96 1 56 7 95 18
116 26 50 8 62 -50 33 -64 -31 -132 -30 -208 5 -65 29 -71 30 -81 15z m95 -75
c39 -8 30 -21 -44 -68 -84 -54 -82 -53 -61 -21 11 17 29 45 40 62 23 36 21 35
65 27z m185 -46 c-4 -29 -8 -54 -9 -56 -4 -4 -65 80 -65 89 0 7 27 15 63 18
16 1 17 -5 11 -51z m-264 -157 c-5 -9 -16 -25 -24 -36 -16 -19 -16 -19 -10 10
9 39 10 42 28 42 11 0 12 -5 6 -16z m-75 -48 c-3 -27 -10 -66 -15 -88 -5 -22
-11 -56 -14 -75 -3 -19 -10 -51 -16 -70 -5 -19 -10 -67 -10 -107 0 -39 -4 -74
-9 -78 -16 -9 -40 96 -35 150 5 55 32 153 45 161 13 8 -2 34 -20 34 -9 0 -22
-5 -29 -12 -7 -7 -12 -9 -12 -4 0 11 22 31 43 39 9 3 17 15 17 25 0 18 42 72
55 72 4 0 4 -21 0 -47z m-675 -11 c30 -11 75 -25 100 -30 l45 -10 -45 -1 c-45
-1 -150 -42 -150 -59 0 -7 -42 -32 -55 -32 -6 0 -4 100 2 133 6 33 10 33 103
-1z m982 -18 c7 -6 -39 -91 -54 -100 -8 -5 -9 3 -5 26 4 18 7 41 7 51 0 15 10
22 41 28 3 0 8 -2 11 -5z m-619 -11 c-13 -2 -33 -2 -45 0 -13 2 -3 4 22 4 25
0 35 -2 23 -4z m167 -13 c0 -19 -36 -70 -50 -70 -22 0 -36 -12 -44 -37 -5 -17
-3 -23 7 -23 18 0 50 -46 51 -74 1 -16 -5 -21 -21 -20 -13 0 -50 1 -83 2 -71
2 -74 10 -25 71 37 46 43 66 23 73 -20 6 -213 1 -237 -7 -11 -3 -21 -11 -21
-17 0 -6 40 -9 110 -6 61 1 110 -1 110 -5 0 -13 -73 -97 -85 -97 -13 0 -45 52
-45 74 0 22 -27 20 -35 -3 -3 -10 -1 -30 4 -45 10 -26 10 -26 -39 -26 -27 0
-72 9 -100 20 -28 11 -59 20 -69 20 -10 0 -29 8 -41 18 l-23 19 63 38 c35 21
79 42 99 46 20 4 54 12 76 18 22 5 97 11 166 12 150 1 184 6 169 24 -8 9 -4
11 15 7 14 -2 25 -8 25 -12z m25 -113 c-8 -21 -18 -37 -22 -37 -7 0 -32 32
-33 42 0 7 62 38 68 33 1 -1 -5 -18 -13 -38z m-587 -103 c32 -9 66 -23 78 -30
11 -8 23 -12 26 -8 3 3 9 1 13 -5 3 -6 1 -11 -5 -11 -6 0 -51 -19 -99 -43
l-89 -43 -6 29 c-13 63 -5 127 16 127 5 0 35 -7 66 -16z m1176 -6 c11 -19 11
-19 -67 -74 -20 -15 -40 -24 -43 -21 -3 3 8 31 26 62 34 59 61 70 84 33z"/>
<path d="M673 1289 c-8 -8 -8 -18 -1 -34 8 -17 7 -35 -5 -68 -19 -57 -105
-187 -123 -187 -7 0 -21 -14 -29 -31 -36 -69 -202 -208 -269 -225 -19 -4 -33
-18 -42 -40 -9 -21 -23 -36 -39 -40 -42 -10 -28 -28 37 -48 35 -11 96 -37 136
-59 40 -21 110 -53 156 -71 45 -18 108 -49 138 -69 30 -21 60 -37 67 -37 28 0
136 -68 174 -110 73 -79 137 -116 137 -79 0 5 -19 29 -43 53 -23 24 -49 56
-57 72 -21 41 -134 213 -165 250 -14 18 -32 47 -39 66 -8 19 -33 56 -56 84
-22 27 -44 63 -49 79 -5 17 -17 51 -27 76 -14 39 -15 52 -5 76 23 57 143 160
251 216 68 35 65 58 -10 80 -33 9 -69 26 -80 37 -23 23 -41 25 -57 9z m116
-90 c10 -4 -62 -59 -101 -77 -13 -6 29 80 43 89 7 4 20 4 28 0 9 -5 22 -10 30
-12z m-254 -384 c24 -79 37 -105 85 -160 22 -25 40 -55 40 -65 0 -10 11 -27
25 -38 13 -11 30 -32 37 -48 12 -29 51 -87 76 -112 19 -21 14 -27 -6 -9 -10 9
-34 22 -53 28 -19 7 -46 20 -60 30 -14 10 -61 34 -105 54 -43 20 -128 60 -189
90 -60 29 -122 57 -137 60 -16 4 -28 10 -27 14 0 3 32 32 72 63 40 32 101 84
137 117 75 68 78 67 105 -24z"/>
</g>
</svg>
