<?xml version="1.0" standalone="no"?>
<!DOCTYPE svg PUBLIC "-//W3C//DTD SVG 20010904//EN"
 "http://www.w3.org/TR/2001/REC-SVG-20010904/DTD/svg10.dtd">
<svg version="1.0" xmlns="http://www.w3.org/2000/svg"
 width="250.000000pt" height="244.000000pt" viewBox="0 0 250.000000 244.000000"
 preserveAspectRatio="xMidYMid meet">
<metadata>
Created by potrace 1.16, written by Peter Selinger 2001-2019
</metadata>
<g transform="translate(0.000000,244.000000) scale(0.100000,-0.100000)"
fill="#000000" stroke="none">
<path d="M1710 2244 c-46 -14 -174 -14 -238 1 -28 7 -36 4 -63 -24 -30 -31
-31 -51 -3 -51 9 0 14 -11 14 -35 0 -33 -2 -35 -32 -35 -18 0 -43 3 -55 6 -23
6 -23 6 8 45 17 22 28 39 25 39 -19 0 -62 -25 -78 -46 -11 -13 -61 -58 -112
-98 -119 -95 -242 -203 -216 -190 20 10 80 56 161 124 102 85 111 92 115 87 9
-9 -260 -337 -276 -337 -6 0 -10 -6 -10 -12 -1 -7 -11 -26 -24 -41 l-23 -28
-36 42 c-20 23 -37 44 -37 48 0 3 25 26 56 50 30 24 53 45 50 48 -3 3 -24 -10
-48 -30 -24 -19 -54 -40 -67 -47 -22 -12 -27 -10 -40 11 -33 50 -74 89 -94 89
-19 0 -20 -1 -2 -20 10 -11 14 -20 9 -21 -18 -1 -46 -8 -62 -14 -12 -4 -13 -8
-4 -14 16 -10 -96 -124 -115 -117 -8 4 -13 -3 -13 -18 0 -13 -7 -29 -15 -36
-8 -7 -15 -21 -15 -31 0 -11 -11 -41 -24 -67 -37 -73 -126 -279 -126 -292 0
-6 -16 -44 -35 -84 -35 -74 -43 -106 -26 -106 11 0 111 194 111 214 0 16 184
231 230 269 37 32 54 30 115 -14 22 -15 72 -49 110 -75 70 -47 137 -98 163
-122 8 -7 51 -41 96 -75 44 -33 109 -88 142 -122 61 -59 129 -117 145 -123 5
-2 9 -9 9 -16 0 -24 -171 -252 -268 -357 -62 -66 -56 -86 9 -29 24 22 67 55
95 74 27 19 73 55 101 80 28 25 53 46 56 46 9 0 107 -102 107 -111 0 -8 30
-44 130 -153 31 -34 62 -73 69 -87 18 -37 75 -99 91 -99 19 0 5 53 -39 145
-22 45 -43 93 -47 109 -4 16 -17 31 -31 37 -16 6 -32 28 -48 64 -14 30 -33 63
-44 74 -10 10 -28 43 -39 74 -12 30 -35 69 -51 88 -32 34 -38 49 -22 49 13 0
19 57 25 230 5 141 31 304 62 392 7 21 11 38 7 38 -3 0 0 6 6 14 7 8 38 18 69
21 31 3 80 10 107 15 176 32 384 26 546 -16 31 -8 67 -14 79 -14 34 0 7 27
-33 33 -74 11 -393 80 -537 116 -114 28 -156 42 -158 54 -7 35 87 258 143 341
38 56 26 66 -55 40z m-26 -84 c-1 -14 -24 -79 -51 -145 -55 -133 -77 -193 -99
-274 -8 -30 -18 -60 -22 -65 -4 -6 -9 -24 -11 -40 -1 -16 -7 -39 -12 -50 -6
-14 -7 27 -4 114 4 74 5 149 4 165 -6 80 -1 148 12 156 11 6 10 9 -4 15 -10 3
-17 17 -17 33 0 14 -4 40 -9 58 -13 44 1 52 87 51 40 -1 75 2 79 6 4 4 16 6
28 4 14 -2 20 -10 19 -28z m-281 -88 c34 -2 38 -32 3 -32 -12 0 -51 -3 -86 -7
-51 -5 -62 -4 -58 8 2 8 14 19 25 24 20 10 37 11 116 7z m29 -74 c0 -7 2 -26
2 -41 2 -27 0 -28 -34 -21 -64 13 -148 9 -211 -11 -17 -6 -15 1 13 39 l32 46
98 0 c71 0 98 -3 100 -12z m-24 -90 c20 -3 43 -41 31 -52 -2 -2 -62 -6 -133
-10 -71 -3 -146 -9 -168 -12 -43 -7 -49 3 -15 33 51 46 131 58 285 41z m342
-117 c63 -17 133 -33 155 -37 l40 -7 -35 -8 c-19 -4 -62 -11 -95 -14 -33 -4
-78 -10 -100 -15 -22 -4 -47 -8 -55 -9 -8 0 -35 -3 -58 -5 -32 -4 -42 -2 -39
7 2 7 13 38 23 70 13 44 22 57 34 53 8 -2 67 -18 130 -35z m-310 14 c0 -11
-12 -15 -47 -15 -26 0 -102 -7 -169 -16 -67 -8 -136 -14 -152 -12 -28 3 -30 4
-16 23 18 25 71 32 247 34 116 1 137 -1 137 -14z m-695 -76 c-4 -12 12 -36 52
-77 32 -33 72 -76 90 -96 17 -20 41 -36 52 -36 12 0 25 -8 29 -18 12 -30 44
-71 115 -148 37 -40 67 -78 67 -85 0 -6 32 -44 72 -85 39 -41 68 -74 65 -74
-4 0 -19 12 -34 28 -58 57 -327 268 -373 292 -14 7 -56 36 -95 65 -38 29 -103
71 -142 94 -40 23 -73 46 -73 50 0 5 32 39 71 75 68 65 72 67 90 50 11 -10 17
-25 14 -35z m693 -2 c4 -35 -10 -38 -190 -41 -79 -2 -174 -7 -212 -11 l-69 -8
19 26 c21 28 66 52 86 45 7 -3 78 3 158 12 172 19 204 16 208 -23z m-10 -72
c6 -2 12 -14 12 -25 0 -16 -7 -20 -37 -21 -21 -1 -94 -3 -163 -4 -69 -2 -164
-6 -212 -9 -84 -6 -88 -5 -88 14 0 28 30 39 135 47 92 8 330 7 353 -2z m-855
-61 c18 -9 33 -18 35 -19 1 -1 -17 -22 -41 -46 -23 -24 -64 -68 -90 -98 -26
-30 -50 -52 -52 -49 -2 2 4 22 15 44 10 21 29 64 41 94 19 46 45 87 57 89 2 1
17 -6 35 -15z m859 -24 c4 0 7 -26 7 -59 l-1 -58 -167 -6 c-91 -3 -178 -9
-193 -12 -21 -6 -27 -3 -33 15 -4 12 -5 23 -3 25 10 9 119 18 241 20 76 1 140
5 144 8 3 4 -7 11 -23 18 -34 13 -201 5 -312 -14 -70 -13 -73 -13 -93 10 -12
12 -26 20 -31 16 -6 -3 -5 4 1 16 9 15 21 21 49 21 72 1 327 12 330 15 2 1 20
-1 40 -6 20 -5 40 -9 44 -9z m-60 -147 c37 -3 68 -9 68 -12 -1 -23 -27 -29
-171 -34 -144 -6 -158 -5 -173 12 -16 17 -15 19 6 25 13 4 48 10 78 13 30 3
57 7 60 10 3 2 18 2 34 -1 16 -4 60 -9 98 -13z m48 -78 c3 -6 -26 -11 -75 -12
-102 -2 -140 -9 -156 -30 -12 -15 -12 -16 6 -8 29 13 133 17 185 8 36 -7 46
-13 48 -31 3 -20 1 -22 -25 -15 -42 11 -151 9 -164 -4 -7 -7 16 -12 80 -15 50
-2 96 -9 101 -14 6 -6 10 -48 8 -101 l-3 -89 -30 8 c-16 4 -36 17 -43 28 -12
20 -11 21 23 14 23 -4 35 -2 35 5 0 11 -43 25 -72 23 -10 0 -27 13 -38 29 -19
25 -19 30 -6 35 9 3 30 1 47 -5 38 -13 79 -14 79 -2 0 15 -88 34 -128 27 -24
-3 -44 -1 -54 7 -14 11 -98 133 -98 142 0 13 274 13 280 0z m12 -422 c15 -15
28 -30 28 -34 0 -3 -19 -19 -42 -35 -24 -16 -81 -62 -127 -102 -46 -40 -86
-70 -89 -67 -5 4 26 48 68 95 12 14 34 43 48 65 27 43 74 103 81 104 3 1 18
-11 33 -26z m67 -86 c7 -19 23 -49 37 -68 14 -19 51 -80 82 -137 31 -57 70
-125 85 -153 35 -61 23 -64 -18 -4 -30 45 -153 188 -239 278 -25 26 -46 51
-46 55 1 9 70 62 81 62 4 0 12 -15 18 -33z m256 -437 c3 -5 1 -10 -4 -10 -6 0
-11 5 -11 10 0 6 2 10 4 10 3 0 8 -4 11 -10z"/>
</g>
</svg>
