<?xml version="1.0" standalone="no"?>
<!DOCTYPE svg PUBLIC "-//W3C//DTD SVG 20010904//EN"
 "http://www.w3.org/TR/2001/REC-SVG-20010904/DTD/svg10.dtd">
<svg version="1.0" xmlns="http://www.w3.org/2000/svg"
 width="208.000000pt" height="164.000000pt" viewBox="0 0 208.000000 164.000000"
 preserveAspectRatio="xMidYMid meet">
<metadata>
Created by potrace 1.16, written by Peter Selinger 2001-2019
</metadata>
<g transform="translate(0.000000,164.000000) scale(0.100000,-0.100000)"
fill="#000000" stroke="none">
<path d="M1130 1415 c-6 -8 -9 -18 -6 -23 6 -11 -44 -59 -139 -134 -38 -31
-88 -73 -110 -94 -22 -20 -62 -50 -90 -65 -28 -15 -49 -33 -47 -41 1 -8 -14
-22 -33 -31 -37 -18 -40 -16 -47 28 -7 44 -43 28 -135 -62 -49 -48 -108 -101
-131 -117 -23 -17 -42 -33 -42 -36 0 -17 44 -50 66 -50 14 0 48 -18 77 -39 61
-46 100 -68 219 -127 85 -42 156 -87 270 -170 32 -23 90 -54 128 -69 48 -18
92 -45 133 -81 34 -30 68 -53 76 -52 11 2 15 26 17 102 2 91 4 101 25 117 21
16 22 18 6 24 -10 5 -17 18 -17 35 0 26 4 29 46 36 48 7 48 20 0 26 -16 2 -31
8 -33 14 -6 18 26 44 53 44 31 0 31 16 -1 24 -27 7 -33 35 -16 78 5 13 15 44
22 69 13 46 13 47 62 53 55 8 53 23 -3 28 -19 2 -34 8 -33 14 17 90 35 159 43
170 6 7 21 14 33 16 29 4 28 22 -1 26 -18 3 -21 8 -15 30 8 34 70 139 101 174
19 21 22 30 14 45 -10 16 -25 18 -149 19 -76 0 -153 4 -171 8 -25 7 -37 4 -53
-10 -11 -10 -17 -24 -14 -33 4 -9 8 -40 10 -68 l4 -53 -70 0 c-62 0 -70 -2
-67 -17 3 -15 13 -18 68 -15 l65 3 -95 -45 c-52 -24 -97 -42 -99 -40 -2 2 2
29 9 59 12 50 18 59 58 83 52 31 102 76 102 91 0 10 -60 71 -71 71 -4 0 -12
-7 -19 -15z m370 -120 c0 -1 -5 -17 -11 -34 l-12 -33 -81 7 c-93 8 -96 9 -96
36 0 16 8 19 53 20 28 1 66 4 82 8 26 6 65 4 65 -4z m-488 -168 c-5 -38 -5
-70 -1 -72 14 -9 16 -60 4 -95 -7 -21 -16 -104 -20 -184 l-8 -147 -39 38 c-43
41 -219 257 -236 290 -13 24 0 39 58 68 54 27 101 66 110 91 10 24 120 95 132
85 4 -4 4 -37 0 -74z m427 64 c19 -12 7 -57 -17 -63 -9 -3 -37 -2 -61 1 -42 6
-44 8 -45 39 l-1 32 55 0 c30 0 61 -4 69 -9z m-169 -36 c0 -23 -3 -25 -50 -25
-27 0 -50 2 -50 5 0 7 73 44 88 45 6 0 12 -11 12 -25z m-1 -64 c6 -4 11 -27
13 -51 l3 -45 -55 2 c-120 4 -117 3 -95 13 11 5 38 16 59 25 31 12 37 18 27
28 -9 9 -26 7 -76 -11 -35 -12 -69 -22 -74 -22 -15 0 -14 43 1 58 12 12 178
15 197 3z m149 -40 c-8 -33 -16 -41 -40 -47 -36 -7 -48 6 -48 54 0 32 0 32 49
32 l49 0 -10 -39z m-793 -70 c3 -5 1 -12 -5 -16 -18 -11 -11 -25 13 -25 16 -1
52 -36 132 -131 61 -72 120 -138 132 -146 32 -22 103 -117 103 -139 0 -11 5
-25 12 -32 28 -28 -7 -8 -90 52 -49 36 -136 88 -193 117 -87 43 -236 136 -274
171 -6 6 19 36 70 83 83 77 90 81 100 66z m495 -11 c18 -6 20 -8 7 -9 -10 -1
-31 -8 -47 -16 -30 -15 -35 -11 -24 19 7 17 24 19 64 6z m280 -13 c0 -24 -26
-51 -44 -44 -16 6 -22 38 -9 50 12 12 53 7 53 -6z m-104 -8 c13 -21 -13 -30
-67 -23 l-54 8 45 12 c59 16 67 16 76 3z m-101 -76 c-22 -8 -60 -21 -85 -28
-25 -7 -52 -16 -61 -19 -13 -6 -16 -2 -13 21 4 41 22 48 115 44 l84 -3 -40
-15z m105 -27 l0 -35 -87 0 c-84 0 -86 1 -56 14 18 8 47 20 65 29 36 16 59 24
71 25 4 1 7 -14 7 -33z m66 -3 c-3 -21 -5 -40 -6 -43 -1 -15 -20 28 -20 47 0
18 8 27 28 32 2 1 1 -16 -2 -36z m-266 -53 c0 -5 17 -10 38 -10 l37 -1 -38
-13 c-20 -8 -52 -25 -71 -40 -19 -14 -37 -26 -40 -26 -9 0 14 63 30 81 18 20
44 25 44 9z m198 -59 c-3 -32 -6 -36 -28 -34 -14 1 -60 3 -102 5 -43 2 -78 4
-78 5 0 8 63 33 82 33 13 0 36 8 51 19 16 10 38 16 53 13 22 -4 25 -9 22 -41z
m-192 -78 c-16 -8 -44 -22 -62 -29 -31 -13 -33 -13 -27 3 12 35 26 43 72 43
l46 -1 -29 -16z m169 3 c14 -2 21 -12 23 -31 l4 -28 -54 6 c-29 4 -78 7 -108
7 l-55 1 34 14 c21 10 31 20 28 29 -4 11 6 13 51 9 31 -2 66 -5 77 -7z m-165
-85 c0 -12 -56 -25 -70 -16 -6 3 -8 11 -5 16 8 12 75 12 75 0z m188 -35 c3
-25 1 -28 -20 -23 -91 23 -158 19 -158 -8 0 -18 -21 -20 -38 -3 -18 18 109 67
168 65 42 -2 45 -4 48 -31z m-4 -66 c9 -8 -2 -130 -11 -130 -3 0 -25 16 -49
35 -23 19 -46 35 -50 35 -13 0 -44 32 -44 46 0 28 126 39 154 14z"/>
</g>
</svg>
