<?xml version="1.0" standalone="no"?>
<!DOCTYPE svg PUBLIC "-//W3C//DTD SVG 20010904//EN"
 "http://www.w3.org/TR/2001/REC-SVG-20010904/DTD/svg10.dtd">
<svg version="1.0" xmlns="http://www.w3.org/2000/svg"
 width="158.000000pt" height="150.000000pt" viewBox="0 0 158.000000 150.000000"
 preserveAspectRatio="xMidYMid meet">
<metadata>
Created by potrace 1.16, written by Peter Selinger 2001-2019
</metadata>
<g transform="translate(0.000000,150.000000) scale(0.100000,-0.100000)"
fill="#000000" stroke="none">
<path d="M975 1349 c-22 -23 -56 -51 -75 -64 -19 -13 -60 -46 -90 -75 -30 -29
-80 -70 -110 -93 -30 -22 -78 -61 -106 -86 -66 -59 -180 -138 -267 -186 l-67
-37 34 -38 c64 -71 61 -82 -41 -136 -52 -27 -67 -44 -38 -44 14 0 61 24 109
55 29 19 86 26 87 11 1 -6 3 -30 5 -53 l4 -42 -55 25 c-56 26 -95 25 -95 -2 0
-8 10 -14 23 -14 35 0 206 -112 283 -187 61 -59 237 -173 252 -164 7 4 -16 28
-54 56 -111 85 -184 146 -184 155 0 5 -29 29 -64 54 l-63 45 4 109 c3 86 1
112 -11 121 -12 10 -9 23 18 84 36 81 57 117 69 117 4 0 34 21 66 48 32 26 75
60 97 77 21 16 69 58 106 94 l67 64 50 -32 c28 -18 53 -41 56 -52 4 -11 19
-26 35 -34 16 -8 42 -31 57 -50 15 -19 76 -78 136 -130 59 -53 117 -111 130
-130 26 -41 37 -44 37 -11 0 14 -19 47 -44 78 -57 68 -250 258 -264 258 -22 0
-34 33 -35 102 0 40 2 90 7 111 6 32 4 37 -12 37 -10 0 -36 -18 -57 -41z m12
-83 l1 -44 -35 20 -35 21 29 23 c15 13 31 23 34 24 3 0 6 -20 6 -44z m-559
-441 c-18 -36 -37 -65 -43 -65 -16 0 -61 53 -49 57 5 2 32 19 59 38 28 18 53
34 57 34 4 1 -7 -28 -24 -64z"/>
<path d="M838 924 c-59 -46 -112 -84 -117 -84 -5 0 -14 -7 -22 -16 -7 -8 -33
-26 -58 -39 -25 -14 -57 -33 -71 -45 l-25 -20 22 -6 c26 -7 21 -24 -6 -24 -10
0 -24 -7 -31 -15 -10 -11 -6 -16 22 -28 18 -8 62 -35 98 -61 114 -83 212 -146
226 -146 23 0 5 24 -49 63 -123 89 -183 165 -143 180 8 3 84 7 171 8 202 3
325 18 325 39 0 6 -10 8 -22 5 -40 -8 -134 -14 -260 -15 -205 -2 -218 -1 -218
13 0 19 57 78 167 171 56 47 105 91 108 96 15 24 -17 3 -117 -76z m-223 -254
c3 -6 -1 -7 -9 -4 -18 7 -21 14 -7 14 6 0 13 -4 16 -10z"/>
<path d="M1275 664 c-119 -101 -357 -268 -437 -307 -32 -16 -58 -34 -58 -41 0
-7 18 -21 39 -31 31 -14 46 -29 66 -72 22 -43 31 -54 49 -51 17 2 21 9 19 33
-2 31 31 135 54 170 17 25 16 35 -2 35 -16 0 -60 -70 -70 -113 l-7 -27 -22 23
c-12 13 -31 29 -41 35 -23 13 -27 9 60 61 39 23 93 59 121 79 29 20 76 54 105
74 61 42 249 217 234 217 -5 0 -55 -38 -110 -85z"/>
</g>
</svg>
