<?xml version="1.0" standalone="no"?>
<!DOCTYPE svg PUBLIC "-//W3C//DTD SVG 20010904//EN"
 "http://www.w3.org/TR/2001/REC-SVG-20010904/DTD/svg10.dtd">
<svg version="1.0" xmlns="http://www.w3.org/2000/svg"
 width="182.000000pt" height="170.000000pt" viewBox="0 0 182.000000 170.000000"
 preserveAspectRatio="xMidYMid meet">
<metadata>
Created by potrace 1.16, written by Peter Selinger 2001-2019
</metadata>
<g transform="translate(0.000000,170.000000) scale(0.100000,-0.100000)"
fill="#000000" stroke="none">
<path d="M1374 1645 c-80 -25 -174 -74 -174 -90 0 -11 6 -15 19 -10 15 4 18 1
14 -17 -2 -13 5 -43 16 -68 15 -33 17 -47 8 -51 -12 -7 -356 -129 -362 -129
-2 0 2 17 9 38 8 21 16 56 19 79 4 23 9 53 13 67 3 14 3 26 -1 26 -4 0 -34
-16 -67 -36 -47 -27 -63 -32 -69 -22 -11 17 -143 -28 -183 -63 l-29 -25 34
-61 c19 -34 30 -65 26 -70 -5 -4 -46 -8 -92 -8 -65 0 -87 4 -103 18 -19 17
-52 14 -52 -4 0 -5 -9 -4 -19 3 -15 9 -23 9 -35 -1 -26 -22 -6 -251 22 -251 9
0 91 56 178 122 28 21 58 38 67 38 8 0 23 7 31 16 9 8 21 14 27 12 12 -4 59
-115 51 -123 -3 -3 2 -5 12 -5 30 0 30 27 0 132 -6 19 40 48 75 48 20 0 28
-17 46 -107 8 -42 28 -58 45 -38 7 8 9 15 4 15 -5 0 -9 15 -9 33 0 17 -4 52
-8 77 l-7 45 72 23 c40 13 87 29 103 37 54 25 185 65 213 65 25 0 32 -9 70
-84 23 -47 42 -89 42 -94 0 -16 81 -171 96 -183 10 -8 18 -9 25 -2 10 10 1 44
-46 153 -80 190 -84 202 -76 218 5 10 11 47 13 84 4 47 15 85 37 128 41 84 33
93 -55 65z m-20 -102 c-13 -32 -24 -71 -24 -88 l0 -30 -13 26 c-8 14 -21 46
-30 71 l-15 47 41 15 c65 23 67 21 41 -41z m-468 -130 c-3 -10 -8 -35 -12 -56
-8 -47 -19 -54 -32 -19 -5 15 -13 35 -17 44 -5 12 1 21 22 32 37 20 45 20 39
-1z m-173 -66 l-28 -53 -23 35 c-23 33 -23 35 -5 45 16 10 51 21 76 25 4 0 -5
-23 -20 -52z m91 -22 c18 -58 15 -75 -12 -75 -9 0 -29 -7 -44 -14 -36 -19 -41
-8 -24 45 37 118 54 127 80 44z m-360 -160 c11 -8 36 -15 55 -15 l36 0 -30
-29 c-17 -15 -47 -38 -67 -50 l-38 -23 0 66 c0 70 8 79 44 51z"/>
<path d="M660 1096 c0 -9 5 -16 10 -16 6 0 10 4 10 9 0 6 -4 13 -10 16 -5 3
-10 -1 -10 -9z"/>
<path d="M1035 1081 c-11 -5 -29 -18 -39 -30 -11 -12 -46 -40 -78 -61 -45 -31
-67 -40 -100 -40 -82 0 -270 43 -289 66 -8 10 -16 10 -35 2 -24 -11 -24 -13
-19 -110 3 -54 1 -98 -4 -98 -4 0 -27 13 -49 30 -27 20 -40 35 -36 45 4 9 0
15 -9 15 -19 0 -87 -69 -87 -88 0 -8 -16 -46 -35 -86 -19 -40 -35 -77 -35 -81
0 -9 41 -2 120 20 30 8 71 17 90 20 19 2 53 6 75 9 22 3 46 1 54 -3 16 -10
-18 -44 -106 -108 -58 -43 -65 -59 -28 -73 14 -5 30 -21 35 -36 7 -19 16 -25
33 -22 18 2 23 10 25 42 2 21 9 48 17 60 7 12 16 35 20 53 3 17 17 39 31 48
21 13 28 14 52 2 15 -8 40 -17 57 -21 l30 -8 -36 -31 c-20 -18 -51 -44 -70
-58 -36 -29 -36 -37 2 -44 30 -6 52 -29 54 -57 2 -26 42 -39 49 -16 15 53 27
121 29 156 1 33 5 41 17 37 8 -2 37 -9 63 -15 27 -6 66 -19 88 -30 21 -11 59
-23 84 -27 49 -6 54 -14 28 -41 -151 -153 -251 -282 -237 -304 11 -18 42 -7
48 17 3 13 18 37 33 52 58 62 201 233 248 297 101 137 126 166 136 160 5 -3
31 8 57 25 53 34 183 94 224 105 38 9 54 41 31 61 -40 36 -121 95 -131 95 -5
0 -21 9 -36 21 -18 14 -34 19 -51 15 -20 -5 -24 -12 -23 -44 0 -49 -17 -110
-42 -147 -12 -16 -25 -39 -31 -50 -11 -24 -65 -99 -133 -184 -36 -44 -54 -60
-65 -55 -21 9 -101 33 -126 39 -11 2 -42 12 -70 21 -27 9 -56 18 -63 20 -15 4
76 133 96 134 20 0 14 20 -7 20 -10 0 -40 -26 -67 -57 -67 -78 -75 -85 -88
-80 -6 2 -28 10 -48 18 -21 7 -38 18 -38 24 0 5 25 30 55 54 54 43 67 61 43
61 -12 0 -110 -78 -116 -92 -6 -14 -23 -9 -69 22 -24 17 -49 30 -56 30 -39 0
105 86 183 109 25 7 54 17 65 21 32 13 75 18 75 9 0 -5 8 -9 18 -9 18 0 91
-66 160 -145 32 -37 45 -46 54 -37 9 9 7 19 -10 42 -68 93 -64 81 -51 140 6
30 24 81 40 114 16 32 29 60 29 62 0 6 -12 4 -35 -5z m-58 -112 c-8 -19 -17
-42 -20 -52 -6 -17 -9 -16 -36 4 l-29 22 46 32 c26 18 48 32 50 30 1 -1 -4
-17 -11 -36z m459 -35 c32 -19 62 -39 66 -42 4 -4 -44 -34 -108 -65 -64 -32
-114 -54 -112 -50 2 4 17 37 34 73 17 36 34 77 38 93 3 15 10 27 14 27 5 0 35
-16 68 -36z m-836 7 c25 -6 53 -12 62 -13 9 -2 -16 -17 -57 -34 l-73 -32 -4
49 c-2 39 0 48 12 45 8 -2 35 -9 60 -15z m-206 -148 c17 -14 49 -34 70 -44
l39 -17 -49 -7 c-27 -3 -71 -10 -97 -16 -26 -5 -52 -9 -56 -9 -5 0 2 21 15 48
13 26 24 53 24 60 0 19 19 14 54 -15z m99 -233 c-6 -21 -18 -26 -28 -11 -4 7
17 28 32 31 0 0 -1 -9 -4 -20z m211 -12 c-1 -13 -3 -26 -3 -30 -2 -14 -22 -8
-28 7 -4 12 15 38 33 45 0 0 0 -10 -2 -22z"/>
</g>
</svg>
