<?xml version="1.0" standalone="no"?>
<!DOCTYPE svg PUBLIC "-//W3C//DTD SVG 20010904//EN"
 "http://www.w3.org/TR/2001/REC-SVG-20010904/DTD/svg10.dtd">
<svg version="1.0" xmlns="http://www.w3.org/2000/svg"
 width="278.000000pt" height="128.000000pt" viewBox="0 0 278.000000 128.000000"
 preserveAspectRatio="xMidYMid meet">
<metadata>
Created by potrace 1.16, written by Peter Selinger 2001-2019
</metadata>
<g transform="translate(0.000000,128.000000) scale(0.100000,-0.100000)"
fill="#000000" stroke="none">
<path d="M952 1040 c-36 -4 -57 -11 -63 -23 -6 -9 -14 -17 -20 -17 -5 0 -29
-9 -51 -20 -23 -11 -45 -20 -50 -20 -4 0 -32 -12 -61 -26 -79 -39 -234 -102
-312 -129 -48 -16 -98 -24 -160 -26 -139 -4 -147 -14 -93 -118 35 -68 55 -76
87 -35 12 15 21 23 21 19 0 -4 -16 -25 -36 -47 -19 -22 -33 -45 -31 -51 2 -7
29 -13 68 -14 110 -2 187 -15 221 -36 61 -39 252 -137 355 -184 34 -15 60 -29
58 -32 -2 -2 7 -12 20 -23 20 -16 28 -17 46 -7 16 8 45 9 93 4 238 -24 546
-24 751 0 22 3 65 7 95 10 55 6 235 30 300 40 106 17 204 40 275 64 52 18 93
27 116 24 43 -6 62 13 33 34 -10 7 -24 11 -30 9 -13 -5 -29 58 -19 73 3 5 -1
12 -7 14 -9 4 -9 6 -1 6 20 2 -8 70 -49 116 -21 24 -64 58 -96 75 -31 18 -64
38 -72 45 -34 30 -336 117 -465 135 -44 6 -134 21 -200 34 -171 34 -229 44
-277 45 -18 1 -28 7 -28 16 0 19 -20 19 -47 0 -12 -9 -26 -15 -30 -14 -4 1
-15 1 -23 0 -13 -1 -13 -3 -1 -10 11 -7 6 -13 -20 -26 -36 -19 -97 -62 -114
-80 -5 -6 -43 -32 -84 -58 -55 -35 -77 -44 -83 -35 -4 7 -7 46 -7 87 1 74 2
75 46 122 46 50 47 51 3 64 -3 0 -29 -2 -58 -5z m22 -45 c-4 -8 -10 -15 -15
-15 -4 0 -6 7 -3 15 4 8 10 15 15 15 4 0 6 -7 3 -15z m-50 -41 c3 -9 4 -20 1
-24 -3 -5 -7 -78 -10 -162 -2 -84 -8 -184 -14 -223 -5 -38 -13 -104 -17 -145
-3 -41 -7 -76 -8 -77 -1 -1 -57 25 -123 58 l-122 60 -6 47 c-3 26 -8 58 -12
72 -9 42 -2 164 10 172 7 4 12 11 12 15 0 5 8 27 17 48 9 22 19 52 22 67 5 19
15 30 34 35 15 3 58 21 97 40 77 36 110 41 119 17z m604 -14 c40 -6 76 -12 80
-14 4 -2 25 -7 47 -10 178 -28 378 -72 433 -96 24 -11 53 -20 63 -20 10 0 20
-4 24 -9 3 -5 27 -17 53 -27 26 -10 68 -33 93 -51 26 -18 49 -33 53 -33 4 0
29 -17 57 -37 60 -45 89 -94 82 -141 -3 -18 -1 -38 5 -45 17 -20 1 -34 -63
-52 -33 -10 -70 -24 -81 -32 -12 -7 -74 -25 -137 -38 -284 -60 -771 -87 -1027
-56 -63 8 -154 16 -202 18 l-88 4 0 32 c0 18 7 86 15 152 9 66 18 145 21 175
5 59 9 64 84 108 25 14 74 49 109 77 35 27 89 64 120 82 61 34 81 35 259 13z
m-890 -107 c-7 -16 -17 -36 -24 -46 -11 -17 -13 -16 -28 14 -9 18 -15 33 -14
34 18 10 56 24 65 24 10 1 10 -5 1 -26z m-78 -49 c6 -14 10 -60 10 -102 0 -42
5 -106 10 -141 6 -35 9 -65 8 -67 -2 -2 -32 15 -66 36 -35 22 -67 40 -71 40
-5 0 -11 7 -15 15 -3 8 -18 21 -33 27 -15 7 -30 15 -33 19 -3 3 -24 19 -47 36
l-42 30 47 34 c46 33 184 98 210 99 7 0 17 -12 22 -26z m-309 -80 c-34 -29
-55 -27 -64 5 -5 19 -1 21 45 21 l50 0 -31 -26z m96 -115 c46 -33 52 -40 29
-35 -15 4 -51 9 -79 12 -28 3 -53 6 -54 8 -4 3 36 56 42 56 2 0 30 -19 62 -41z"/>
<path d="M1225 678 c4 -46 7 -130 7 -187 l0 -103 51 6 c29 3 97 8 152 11 203
11 340 33 423 70 102 45 107 49 110 95 5 62 -15 79 -123 109 -51 14 -94 18
-354 35 -174 11 -217 17 -227 30 -6 9 -19 16 -29 16 -16 0 -17 -7 -10 -82z
m505 -5 c47 -8 103 -18 126 -22 71 -13 109 -77 67 -113 -70 -58 -268 -102
-519 -114 l-131 -7 3 72 c2 40 0 101 -5 137 -4 35 -5 67 -2 70 10 11 373 -7
461 -23z"/>
</g>
</svg>
