<?xml version="1.0" standalone="no"?>
<!DOCTYPE svg PUBLIC "-//W3C//DTD SVG 20010904//EN"
 "http://www.w3.org/TR/2001/REC-SVG-20010904/DTD/svg10.dtd">
<svg version="1.0" xmlns="http://www.w3.org/2000/svg"
 width="278.000000pt" height="127.000000pt" viewBox="0 0 278.000000 127.000000"
 preserveAspectRatio="xMidYMid meet">
<metadata>
Created by potrace 1.16, written by Peter Selinger 2001-2019
</metadata>
<g transform="translate(0.000000,127.000000) scale(0.100000,-0.100000)"
fill="#000000" stroke="none">
<path d="M894 1223 c-9 -9 -12 -55 -12 -165 1 -84 -2 -218 -6 -298 -5 -80 -7
-154 -7 -165 1 -11 2 -57 2 -102 -1 -74 2 -84 21 -98 13 -8 17 -15 11 -15 -6
0 -11 -15 -11 -34 0 -69 -9 -71 -98 -18 -45 26 -94 57 -110 70 -16 12 -78 54
-139 93 -116 74 -155 105 -155 123 0 7 13 27 28 46 16 19 45 67 66 106 39 75
41 77 256 193 24 13 18 46 -9 49 -13 2 -54 22 -90 44 -70 42 -96 42 -96 0 0
-12 -4 -24 -7 -28 -4 -3 -1 -15 5 -25 10 -16 8 -26 -7 -52 -10 -17 -44 -79
-74 -137 -30 -58 -66 -120 -80 -139 l-25 -34 -18 22 c-10 12 -21 42 -25 66 -5
38 -10 45 -29 45 -14 0 -35 -15 -58 -42 -41 -51 -127 -138 -136 -138 -10 -1
-71 -59 -71 -68 0 -13 38 -29 110 -47 35 -9 101 -31 145 -50 44 -18 115 -43
158 -54 43 -12 101 -33 129 -47 28 -14 85 -37 127 -51 42 -13 108 -39 146 -57
67 -31 116 -50 215 -83 25 -8 73 -25 108 -39 72 -28 82 -29 82 -10 0 15 -24
27 -147 76 -83 33 -104 50 -60 50 13 0 27 3 30 7 4 3 17 7 30 9 45 4 253 45
282 55 17 6 42 12 58 13 27 3 27 2 27 -55 0 -93 14 -107 68 -71 69 46 91 60
148 90 34 18 76 32 94 32 18 0 71 4 119 10 244 28 239 28 244 3 2 -13 -2 -24
-9 -27 -16 -6 -19 -32 -4 -41 14 -9 170 21 205 39 17 9 34 16 38 16 5 0 33 11
63 25 92 42 169 127 179 199 2 11 13 46 25 76 42 106 16 222 -73 332 -44 54
-98 87 -183 111 -71 20 -125 22 -142 5 -15 -15 -269 -13 -317 2 -16 5 -76 24
-132 41 -88 27 -110 38 -150 76 -41 40 -50 44 -72 37 -15 -5 -32 -23 -40 -42
-17 -37 -20 -38 -181 -22 -154 16 -233 29 -265 46 -15 8 -32 14 -38 14 -5 0
-25 11 -43 25 -35 26 -78 30 -100 8z m201 -113 c11 0 42 -7 69 -14 34 -9 44
-15 32 -19 -9 -4 -25 -2 -34 4 -25 16 -90 -19 -157 -82 -29 -27 -55 -49 -58
-49 -4 0 -7 51 -7 113 l0 113 68 -32 c37 -18 76 -34 87 -34z m505 -1 c0 -13
68 -45 150 -69 41 -13 79 -25 84 -28 14 -8 -35 -30 -84 -38 -25 -4 -64 -15
-88 -25 -41 -18 -69 -16 -85 5 -4 6 -7 48 -6 93 1 64 5 80 15 76 8 -3 14 -9
14 -14z m-90 -88 l0 -59 -54 -6 c-29 -4 -91 -7 -137 -6 -46 0 -135 -2 -196 -6
-62 -4 -113 -4 -113 0 0 12 65 65 81 66 9 0 51 11 93 25 42 14 94 25 116 25
21 0 42 5 45 10 3 6 42 10 86 10 l79 0 0 -59z m867 -71 c56 -1 144 -95 179
-190 17 -49 14 -150 -7 -236 -19 -76 -88 -141 -205 -193 -80 -36 -101 -41
-116 -32 -10 6 -24 9 -30 5 -7 -5 -8 7 -3 42 4 27 7 56 7 64 0 8 6 71 14 139
9 72 14 189 12 278 -2 119 0 156 10 162 8 5 37 -1 70 -15 31 -13 62 -24 69
-24z m-1728 31 c20 -13 3 -33 -55 -65 l-43 -24 14 24 c8 13 22 35 30 49 16 26
31 31 54 16z m1507 -4 c10 -9 -8 -157 -17 -151 -5 3 -58 12 -118 20 -59 8
-127 21 -151 29 -23 8 -57 15 -74 15 -17 1 -53 7 -81 14 l-49 13 34 11 c19 6
57 13 84 17 27 4 70 15 95 26 38 16 65 19 159 16 62 -2 115 -7 118 -10z m-637
-166 c2 -81 -1 -117 -13 -146 -9 -20 -16 -52 -16 -71 0 -18 -3 -35 -7 -37 -12
-6 -234 20 -273 32 -19 6 -62 11 -95 12 -33 0 -82 4 -110 8 l-50 7 35 12 c19
6 51 14 70 17 19 3 39 10 45 15 27 22 163 45 258 42 99 -2 137 7 137 33 0 16
-57 23 -295 33 l-170 7 60 35 c33 19 80 42 105 52 25 9 54 23 65 30 23 14 94
25 185 27 l66 1 3 -109z m-433 32 c-50 -29 -104 -53 -119 -53 -15 0 -30 -7
-33 -15 -14 -35 -24 -12 -18 38 10 80 15 83 147 82 l114 0 -91 -52z m634 22
c47 -9 108 -22 135 -30 28 -7 67 -16 89 -20 21 -3 36 -8 34 -11 -3 -2 -52 -13
-109 -23 -57 -11 -141 -33 -187 -50 -46 -17 -90 -31 -98 -31 -11 0 -14 16 -14
70 0 58 3 72 22 90 26 24 22 24 128 5z m430 -168 l0 -104 -119 3 c-73 1 -137
8 -167 18 -27 8 -83 23 -124 31 -120 26 -118 25 -79 42 73 31 154 53 193 53
23 0 64 7 91 16 28 8 84 21 125 28 41 8 76 14 78 15 1 0 2 -46 2 -102z m-975
30 c17 -2 -96 -42 -170 -60 -11 -3 -37 -12 -57 -21 -42 -18 -43 -16 -32 42 3
16 15 34 26 39 17 7 167 7 233 0z m-905 -66 c0 -5 11 -22 24 -38 13 -15 26
-37 28 -48 2 -11 10 -19 16 -17 7 1 31 -11 54 -28 22 -16 44 -30 49 -30 12 0
170 -100 214 -135 22 -18 55 -41 74 -51 98 -55 101 -61 15 -29 -92 34 -102 38
-154 63 -25 12 -83 35 -130 51 -47 15 -123 44 -170 63 -47 20 -102 41 -122 47
-21 7 -38 18 -38 24 0 13 120 137 132 137 4 0 8 -4 8 -9z m1394 -46 c53 -14
104 -25 114 -25 10 0 26 -6 37 -13 16 -12 5 -18 -101 -56 -65 -23 -123 -46
-129 -51 -8 -6 -18 -5 -30 4 -30 22 -21 162 11 166 1 0 45 -11 98 -25z m-579
-56 c66 -6 126 -14 133 -18 14 -8 -75 -41 -109 -41 -11 0 -56 -14 -100 -31
-44 -17 -83 -29 -85 -26 -8 8 -15 117 -8 128 3 6 16 8 28 5 11 -3 75 -10 141
-17z m1053 -101 c-3 -86 -4 -93 -23 -91 -11 1 -67 5 -124 8 -57 3 -108 8 -113
12 -6 3 -52 15 -102 25 -50 11 -107 23 -126 27 l-35 7 42 22 c23 12 49 22 56
22 8 0 34 9 58 19 51 23 158 38 282 40 l88 1 -3 -92z m-648 29 c0 -15 -4 -35
-9 -45 -6 -9 -13 -39 -16 -65 -5 -39 -9 -47 -24 -42 -9 3 -48 9 -86 15 -39 5
-95 14 -125 19 -30 6 -73 12 -95 15 -22 2 -60 13 -84 23 l-44 19 29 11 c16 6
49 16 74 23 25 7 66 19 92 27 26 8 78 17 115 20 37 2 69 6 70 7 2 1 25 2 53 2
48 -1 50 -2 50 -29z m170 -100 c19 -6 69 -16 110 -22 84 -11 94 -27 23 -35
-28 -3 -93 -27 -158 -58 -61 -28 -114 -52 -119 -52 -4 0 -5 37 -1 83 5 57 12
86 23 95 17 13 59 9 122 -11z m-620 -29 c19 -10 53 -18 75 -18 43 -1 162 -24
172 -34 4 -3 -3 -6 -15 -6 -35 0 -273 -51 -292 -62 -33 -21 -50 -3 -50 51 0
27 4 61 10 76 8 22 14 24 37 19 16 -4 44 -15 63 -26z"/>
<path d="M2293 929 c-14 -14 -6 -39 12 -39 18 0 26 15 19 34 -7 19 -16 20 -31
5z"/>
<path d="M2316 851 c-9 -15 23 -36 36 -23 5 5 7 15 4 21 -9 13 -33 14 -40 2z"/>
<path d="M2341 776 c-12 -14 -5 -26 16 -26 15 0 18 26 4 34 -5 3 -14 0 -20 -8z"/>
<path d="M2364 685 c-4 -8 -3 -23 1 -32 7 -17 8 -16 15 2 5 11 9 26 9 33 1 17
-18 15 -25 -3z"/>
<path d="M2353 593 c-18 -6 -16 -33 1 -33 19 0 31 19 20 30 -5 4 -15 5 -21 3z"/>
<path d="M2313 479 c-33 -49 -42 -79 -23 -79 6 0 13 8 17 18 3 9 14 28 23 42
22 33 31 58 22 63 -4 3 -22 -18 -39 -44z"/>
<path d="M2238 351 c-10 -13 -15 -28 -11 -34 9 -14 35 18 31 39 -3 17 -5 17
-20 -5z"/>
</g>
</svg>
