<?xml version="1.0" standalone="no"?>
<!DOCTYPE svg PUBLIC "-//W3C//DTD SVG 20010904//EN"
 "http://www.w3.org/TR/2001/REC-SVG-20010904/DTD/svg10.dtd">
<svg version="1.0" xmlns="http://www.w3.org/2000/svg"
 width="202.000000pt" height="132.000000pt" viewBox="0 0 202.000000 132.000000"
 preserveAspectRatio="xMidYMid meet">
<metadata>
Created by potrace 1.16, written by Peter Selinger 2001-2019
</metadata>
<g transform="translate(0.000000,132.000000) scale(0.100000,-0.100000)"
fill="#000000" stroke="none">
<path d="M950 1132 c-53 -44 -80 -56 -80 -37 0 29 -27 14 -76 -42 -27 -31
-102 -111 -166 -177 -89 -92 -138 -134 -204 -173 -49 -29 -98 -53 -110 -53
-51 0 -43 -47 22 -119 25 -28 44 -57 41 -64 -3 -8 -31 -27 -64 -43 -32 -16
-60 -30 -62 -32 -3 -1 1 -8 7 -14 10 -10 17 -10 31 -1 16 10 32 5 103 -37 74
-44 249 -165 343 -237 26 -21 65 -43 75 -43 41 0 -64 121 -152 175 -34 21 -79
51 -98 66 l-35 27 1 88 c0 49 4 108 8 130 12 63 -8 67 -62 10 -24 -26 -46 -45
-49 -43 -2 3 13 44 34 93 37 84 46 97 181 232 78 79 142 147 142 153 0 19 18
8 24 -14 8 -34 108 -135 150 -152 20 -9 53 -32 74 -53 20 -20 55 -51 76 -67
22 -17 52 -44 69 -62 16 -17 47 -44 68 -59 21 -15 39 -31 39 -35 0 -5 -48 -46
-106 -91 -58 -46 -138 -109 -177 -141 -40 -31 -102 -73 -138 -92 -37 -19 -72
-42 -79 -51 -15 -17 -18 -13 48 -55 17 -11 32 -25 32 -30 0 -5 11 -16 25 -25
37 -24 75 -6 75 35 0 25 47 136 96 223 8 15 35 41 59 58 24 16 49 36 57 43 52
49 113 97 124 97 14 0 13 -90 -1 -246 -8 -87 3 -128 32 -122 11 2 16 16 18 43
1 22 7 119 14 215 6 96 8 198 5 226 -4 40 -1 60 17 95 45 89 112 199 122 199
6 0 8 -44 3 -127 -4 -71 -6 -146 -6 -169 0 -25 -5 -46 -14 -53 -12 -10 -14
-45 -10 -214 3 -111 9 -206 15 -212 17 -17 27 9 42 105 11 72 22 108 45 148
18 29 32 55 32 58 0 6 46 59 98 113 48 51 52 68 18 77 -21 5 -103 -7 -160 -23
-16 -4 -17 -1 -11 29 21 106 122 330 157 349 13 7 18 19 16 37 -4 35 -32 41
-155 35 -143 -8 -205 -8 -229 1 -16 6 -28 1 -49 -18 -24 -23 -26 -28 -16 -58
14 -45 26 -233 23 -357 l-2 -54 -78 79 c-43 43 -108 103 -144 133 l-65 54 -3
91 c-1 50 -3 100 -3 111 0 11 3 37 7 58 7 32 6 37 -11 37 -10 0 -34 -13 -53
-28z m6 -109 c0 -32 4 -78 8 -103 l8 -45 -68 68 c-57 58 -65 70 -53 82 14 13
89 55 99 55 3 0 5 -26 6 -57z m676 -55 c-20 -40 -44 -83 -53 -96 -16 -23 -17
-22 -24 49 -7 71 -7 74 19 96 17 14 40 23 61 23 l34 0 -37 -72z m-138 35 c-10
-16 -42 -68 -73 -118 -30 -49 -55 -91 -56 -93 -2 -2 -8 37 -14 85 -7 48 -14
100 -17 115 -5 27 -5 27 63 31 37 2 79 4 92 5 23 2 23 2 5 -25z m-1072 -393
l-29 -63 -26 39 -27 38 53 26 c28 14 53 25 55 25 1 -1 -11 -30 -26 -65z m1205
-67 c-30 -38 -60 -79 -66 -91 -16 -31 -22 -24 -30 40 -7 63 9 86 74 105 78 22
80 18 22 -54z m-1157 -86 c0 -17 4 -47 9 -65 5 -17 7 -32 3 -32 -4 1 -31 13
-59 29 -50 27 -52 29 -34 45 10 9 29 15 42 14 20 -3 24 1 22 20 -2 12 2 22 7
22 6 0 10 -15 10 -33z m478 -256 l-40 -78 -40 26 c-35 23 -38 27 -23 36 10 5
45 29 79 52 33 23 62 42 62 42 1 1 -16 -34 -38 -78z"/>
</g>
</svg>
