<?xml version="1.0" standalone="no"?>
<!DOCTYPE svg PUBLIC "-//W3C//DTD SVG 20010904//EN"
 "http://www.w3.org/TR/2001/REC-SVG-20010904/DTD/svg10.dtd">
<svg version="1.0" xmlns="http://www.w3.org/2000/svg"
 width="256.000000pt" height="124.000000pt" viewBox="0 0 256.000000 124.000000"
 preserveAspectRatio="xMidYMid meet">
<metadata>
Created by potrace 1.16, written by Peter Selinger 2001-2019
</metadata>
<g transform="translate(0.000000,124.000000) scale(0.100000,-0.100000)"
fill="#000000" stroke="none">
<path d="M1335 1113 c-22 -15 -59 -42 -83 -60 -24 -18 -54 -33 -66 -33 -13 0
-25 -3 -29 -6 -8 -8 34 -64 47 -64 6 0 28 26 49 58 36 54 102 112 126 112 6 0
11 5 11 10 0 16 -12 12 -55 -17z m-115 -113 c-6 -11 -16 -18 -21 -14 -6 3 -3
12 8 20 24 18 26 17 13 -6z"/>
<path d="M1444 1107 c-35 -38 -169 -127 -191 -127 -7 0 -13 -4 -13 -10 0 -5 6
-10 14 -10 11 0 11 -6 -2 -34 -14 -31 -17 -33 -48 -26 -18 4 -48 17 -68 29
-34 22 -51 16 -40 -12 7 -20 -35 -101 -117 -224 -38 -56 -69 -106 -69 -110 0
-4 -10 -20 -23 -35 -25 -30 -35 -32 -214 -29 l-112 1 -16 30 c-8 16 -25 39
-37 50 -21 19 -21 23 -9 68 21 78 22 84 6 78 -44 -18 -47 -15 -15 13 71 65
118 92 145 85 15 -4 29 -14 33 -23 3 -9 15 -25 25 -36 27 -29 106 -151 122
-188 14 -34 48 -71 57 -62 3 3 -3 22 -13 43 -11 20 -19 42 -19 49 0 7 -4 13
-8 13 -5 0 -15 12 -23 28 -8 15 -27 45 -42 67 -34 47 -32 75 8 162 14 31 23
58 21 61 -3 2 -32 -13 -65 -33 -56 -35 -67 -38 -134 -38 -39 0 -85 4 -100 8
-30 8 -49 -1 -28 -14 16 -10 4 -30 -98 -167 -41 -54 -90 -119 -108 -143 -18
-24 -33 -48 -33 -51 0 -4 -10 -10 -21 -13 -16 -4 -20 -11 -14 -24 3 -10 9 -42
12 -71 3 -28 8 -52 11 -52 7 0 194 90 201 96 2 2 2 6 -1 9 -3 3 -35 -8 -72
-25 -80 -36 -102 -38 -110 -7 -14 51 -12 52 81 50 49 -1 160 -3 248 -3 152 -2
158 -2 125 -17 -19 -8 -36 -16 -38 -18 -1 -1 20 -51 48 -110 27 -59 50 -114
50 -121 0 -8 7 -14 15 -14 20 0 19 1 -12 93 l-27 78 24 45 c29 54 65 83 82 66
8 -8 4 -13 -15 -17 -31 -8 -58 -35 -35 -35 8 0 18 4 24 9 17 15 73 30 79 21 5
-8 -8 -44 -21 -59 -2 -2 -12 7 -23 20 -27 33 -38 16 -18 -26 9 -20 17 -42 17
-50 0 -7 5 -15 11 -17 6 -2 18 -37 28 -78 9 -41 21 -74 26 -72 13 4 7 83 -11
141 -12 42 -12 49 12 102 24 53 29 57 62 61 57 5 83 -1 81 -20 -3 -38 2 -72
11 -72 6 0 10 20 10 45 l0 45 51 0 52 0 -6 -66 c-4 -58 -3 -64 10 -52 7 8 16
39 18 69 3 50 5 54 27 51 66 -8 67 -9 65 -62 -3 -66 17 -65 21 2 1 29 4 53 5
55 2 1 73 4 158 6 84 2 204 7 264 11 61 4 107 4 103 0 -5 -4 4 -28 19 -53 l26
-46 -51 48 c-29 26 -57 45 -62 42 -11 -7 83 -105 150 -156 25 -18 64 -51 87
-72 60 -56 105 -87 115 -81 10 6 -68 80 -151 144 -64 49 -78 64 -73 78 2 7 -4
24 -13 38 -25 39 -27 64 -5 64 10 0 22 -4 25 -10 9 -14 21 -12 40 6 8 9 23 13
32 10 14 -6 11 -12 -16 -40 -18 -19 -30 -39 -27 -45 4 -5 45 -29 93 -52 47
-24 100 -56 117 -72 51 -47 155 -119 167 -115 6 2 -6 15 -28 30 -21 14 -84 72
-140 129 -96 97 -101 104 -86 121 9 10 12 18 8 18 -5 0 11 19 36 43 24 23 52
55 62 70 10 15 34 35 52 44 19 9 35 20 35 25 0 12 -14 10 -27 -3 -15 -15 -267
-138 -272 -133 -9 8 25 60 59 89 19 17 46 42 60 56 14 15 36 30 49 34 34 10
89 45 72 45 -8 0 -69 -26 -135 -59 -67 -32 -138 -66 -159 -75 -23 -11 -35 -22
-30 -29 3 -6 -7 -1 -25 11 -17 12 -61 34 -99 48 -37 14 -124 56 -193 94 -69
38 -128 69 -132 69 -9 1 -27 16 -83 68 l-37 34 31 26 c17 14 31 30 31 34 0 16
63 100 86 116 13 8 24 19 24 24 0 13 -13 11 -26 -4z m-105 -132 c-24 -40 -34
-44 -42 -15 -4 15 2 24 21 35 40 21 43 18 21 -20z m-606 -112 c-20 -50 -20
-50 -43 -23 l-21 24 33 18 c46 24 49 23 31 -19z m664 -60 c148 -88 285 -157
339 -172 21 -6 70 -31 108 -56 l69 -45 -49 -1 c-27 0 -62 -2 -79 -4 -16 -1
-122 -6 -235 -10 -183 -7 -207 -6 -219 8 -7 9 -11 24 -7 32 3 9 0 15 -9 15
-10 0 -15 -10 -15 -30 0 -29 -1 -30 -50 -30 l-49 0 24 36 c14 20 25 40 25 44
0 13 -72 22 -83 11 -8 -8 -5 -11 9 -11 10 0 26 -5 34 -10 13 -8 13 -11 1 -22
-11 -10 -14 -10 -18 0 -7 19 -23 3 -23 -24 0 -22 -4 -24 -47 -24 l-47 0 39 40
c21 22 37 42 34 44 -9 9 -88 13 -101 5 -13 -8 -4 -14 34 -21 13 -2 15 -7 7
-18 -8 -11 -12 -12 -16 -2 -2 6 -11 12 -20 12 -11 0 -13 -7 -8 -29 l6 -28 -58
2 c-106 5 -98 3 -80 23 10 10 17 22 17 27 0 13 80 146 104 173 11 12 24 22 29
22 6 0 31 20 57 44 70 65 124 88 68 29 -28 -30 -12 -44 38 -33 19 5 47 5 62 0
l27 -7 -34 -19 c-18 -10 -49 -30 -69 -42 -33 -22 -40 -23 -86 -13 -28 7 -57
13 -65 14 -8 1 -18 -11 -24 -28 -5 -16 -16 -37 -23 -46 -33 -37 2 -39 71 -4
39 19 58 23 92 18 58 -8 109 -42 106 -72 -2 -12 1 -20 6 -17 5 3 23 3 39 0 29
-6 30 -7 16 -28 -21 -33 -6 -39 22 -9 33 36 30 51 -11 59 -26 4 -40 15 -51 35
-15 30 -12 75 6 93 5 5 10 18 10 28 0 10 10 23 23 27 22 9 21 9 -8 22 -16 6
-49 13 -72 13 -24 1 -43 2 -43 4 0 2 12 19 28 38 l27 35 22 -26 c13 -14 58
-47 100 -72z m-237 78 c0 -4 -23 -31 -51 -59 -27 -27 -49 -47 -47 -43 40 88
55 110 76 111 12 0 22 -4 22 -9z m-588 -30 c-11 -9 -47 -38 -81 -65 -38 -30
-57 -52 -50 -56 6 -5 -2 -12 -20 -18 -28 -10 -30 -9 -22 6 5 9 22 33 38 53 15
20 38 50 51 66 19 26 30 31 63 30 38 -1 39 -2 21 -16z m708 -122 c0 -6 -5 -19
-10 -30 -9 -16 -14 -17 -32 -8 l-22 12 23 18 c26 21 41 24 41 8z m-803 -39
c-4 -28 -14 -35 -32 -20 -20 16 -19 27 3 33 30 8 32 7 29 -13z m617 1 c3 -5
-1 -12 -10 -15 -25 -10 -34 -7 -28 9 7 17 30 20 38 6z m-596 -119 c38 -41 39
-48 12 -57 -28 -9 -240 -3 -246 7 -9 13 90 137 116 146 21 8 29 4 55 -25 17
-20 45 -51 63 -71z m1486 46 c-16 -18 -32 -37 -36 -42 -7 -9 -38 10 -38 24 0
4 18 13 41 20 22 8 42 17 45 22 3 4 8 8 11 8 4 0 -6 -15 -23 -32z m131 -51
c-20 -31 -73 -69 -85 -62 -22 14 -7 35 43 59 28 14 53 25 55 26 1 0 -4 -10
-13 -23z m-1386 -138 c-16 -23 -24 -28 -30 -17 -14 21 -10 36 9 41 40 11 43 7
21 -24z m1281 18 c0 -7 13 -26 30 -42 42 -40 30 -43 -25 -5 -37 26 -44 34 -34
46 14 18 29 18 29 1z"/>
</g>
</svg>
