<?xml version="1.0" standalone="no"?>
<!DOCTYPE svg PUBLIC "-//W3C//DTD SVG 20010904//EN"
 "http://www.w3.org/TR/2001/REC-SVG-20010904/DTD/svg10.dtd">
<svg version="1.0" xmlns="http://www.w3.org/2000/svg"
 width="280.000000pt" height="174.000000pt" viewBox="0 0 280.000000 174.000000"
 preserveAspectRatio="xMidYMid meet">
<metadata>
Created by potrace 1.16, written by Peter Selinger 2001-2019
</metadata>
<g transform="translate(0.000000,174.000000) scale(0.100000,-0.100000)"
fill="#000000" stroke="none">
<path d="M1135 1584 c-44 -41 -96 -78 -142 -100 -39 -19 -118 -72 -175 -117
-191 -152 -228 -179 -291 -204 -34 -14 -75 -31 -92 -38 -16 -8 -55 -24 -85
-35 -30 -12 -58 -26 -61 -32 -14 -22 15 -57 62 -78 35 -15 49 -26 49 -41 0
-11 7 -22 15 -25 8 -4 12 -10 9 -15 -7 -12 -163 -131 -188 -144 -11 -5 -21
-16 -24 -22 -5 -18 35 -16 68 3 27 16 30 16 116 -25 143 -68 237 -113 267
-127 16 -8 33 -14 39 -14 9 0 54 -21 176 -84 21 -10 57 -35 81 -55 25 -20 58
-41 75 -47 29 -10 39 -22 50 -56 9 -31 34 -9 49 43 22 73 124 237 167 265 35
24 59 41 200 145 149 109 157 113 234 121 39 4 117 7 172 7 84 1 103 -2 108
-15 7 -18 -9 -212 -23 -275 -5 -24 -15 -71 -21 -104 -7 -33 -18 -72 -26 -87
-12 -22 -12 -33 -1 -65 16 -51 40 -50 47 2 3 22 9 46 14 53 12 20 43 160 49
222 3 30 13 73 23 95 9 22 27 67 39 100 25 70 18 68 228 66 102 -1 127 2 127
13 0 19 -78 29 -207 28 -70 -1 -103 2 -103 10 0 6 17 43 38 82 21 39 49 98 62
131 30 76 59 123 99 158 51 45 36 59 -39 37 -39 -11 -158 3 -221 25 -59 22
-62 14 -64 -152 -3 -182 -13 -280 -31 -287 -14 -6 -211 9 -270 20 -27 5 -55
25 -109 78 -40 39 -75 80 -79 92 -3 11 -36 45 -71 74 -36 29 -71 61 -78 71 -7
10 -37 37 -65 59 -31 25 -55 53 -58 68 -4 15 -15 41 -25 58 -14 22 -20 54 -22
105 -1 40 -6 74 -12 76 -5 1 -41 -27 -80 -63z m35 -64 c0 -32 19 -80 32 -80 4
0 8 -4 8 -10 0 -10 -64 16 -101 42 l-24 17 33 31 c41 38 52 38 52 0z m-101
-84 c12 -13 36 -27 53 -30 16 -3 42 -16 58 -28 15 -13 41 -31 58 -40 31 -16
31 -18 18 -50 -7 -18 -17 -80 -20 -138 -8 -122 -33 -335 -46 -400 -13 -65 -12
-102 3 -98 21 7 34 67 46 208 6 74 13 145 15 158 3 13 8 62 11 110 4 48 11
104 16 125 10 39 16 40 62 5 16 -12 17 -17 4 -48 -15 -37 -23 -88 -32 -205 -3
-38 -12 -121 -21 -183 -8 -62 -16 -125 -17 -140 -2 -18 -13 -34 -37 -49 -19
-12 -49 -34 -67 -49 -48 -40 -142 -94 -174 -101 -17 -3 -39 2 -58 13 -33 20
-38 30 -18 37 9 3 9 7 1 18 -17 21 0 296 43 684 8 77 17 153 18 168 3 27 29
56 51 57 6 0 21 -11 33 -24z m-120 -58 c-5 -18 -14 -94 -19 -168 -6 -74 -15
-175 -20 -225 -16 -150 -19 -177 -25 -270 -4 -49 -11 -107 -16 -128 -21 -81
-42 1 -29 109 5 38 10 120 11 183 1 62 6 139 10 170 4 31 15 117 24 191 14
115 20 138 38 152 32 25 37 22 26 -14z m-93 -86 c-6 -45 -11 -105 -36 -442 -6
-74 -15 -162 -20 -195 -5 -33 -10 -63 -10 -68 0 -4 -8 -2 -19 5 -16 9 -17 16
-9 42 5 17 11 83 13 146 5 149 13 246 30 345 8 44 17 107 20 140 8 66 11 75
27 75 7 0 8 -17 4 -48z m1402 15 c24 -2 27 -8 13 -22 -5 -6 -21 -39 -35 -75
-15 -36 -48 -109 -74 -162 -39 -81 -51 -98 -70 -98 -32 0 -36 18 -22 112 10
75 16 148 19 232 l1 29 73 -7 c39 -4 82 -8 95 -9z m-1475 -74 c-3 -50 -21
-225 -29 -278 -3 -16 -9 -88 -14 -160 -10 -135 -18 -185 -29 -185 -4 0 -17 7
-30 16 -20 14 -22 22 -17 58 3 22 11 88 16 146 10 105 13 133 25 245 3 33 11
75 16 92 6 18 8 41 4 52 -4 13 2 25 22 40 15 11 30 21 33 21 3 0 4 -21 3 -47z
m672 -82 c90 -90 131 -141 111 -141 -28 0 -110 21 -141 37 -28 14 -31 13 -45
-8 -8 -12 -20 -39 -27 -58 -12 -36 -12 -35 -11 24 2 57 22 177 34 196 9 16 19
10 79 -50z m-769 -3 c-3 -24 -11 -95 -17 -158 -6 -63 -13 -118 -15 -121 -1 -3
-6 -30 -9 -60 -10 -88 -13 -94 -37 -64 -18 23 -20 35 -14 103 3 42 9 114 12
160 4 45 11 85 15 88 5 3 9 12 9 21 0 16 40 72 53 72 5 1 6 -18 3 -41z m-161
-78 c-70 -71 -74 -72 -112 -37 -32 28 -29 35 18 47 22 6 55 19 73 30 30 17 56
26 81 29 5 0 -22 -30 -60 -69z m46 -123 c-6 -53 -11 -101 -11 -109 -1 -21 -39
55 -40 79 0 12 -4 25 -10 28 -18 11 -10 42 22 79 45 53 53 37 39 -77z m924 24
l30 -1 -39 -32 c-41 -35 -76 -57 -88 -58 -14 0 -9 55 7 76 8 13 23 20 37 19
13 -1 36 -3 53 -4z m145 -31 c0 -5 -23 -13 -50 -19 -67 -14 -67 -14 -43 8 29
27 93 35 93 11z m441 -77 l-20 -38 -1 37 c0 25 6 40 18 47 25 14 26 -2 3 -46z
m-1585 -25 c16 -24 36 -58 45 -76 8 -18 25 -39 36 -47 18 -13 39 -55 27 -55
-2 0 -22 11 -44 25 -22 14 -45 25 -52 25 -22 0 -143 65 -143 76 0 8 80 82 101
93 1 1 14 -18 30 -41z m1049 23 c-17 -15 -179 -136 -209 -155 l-29 -18 7 32
c3 18 6 43 6 57 0 19 4 23 19 18 12 -3 29 3 47 18 38 32 191 78 159 48z m-401
-368 c-8 -16 -22 -39 -33 -52 -18 -24 -18 -24 -49 -5 l-31 18 57 33 c70 40 74
40 56 6z"/>
<path d="M1036 1392 c-3 -5 -8 -86 -11 -178 -2 -93 -9 -203 -14 -244 -6 -41
-11 -115 -11 -163 0 -104 -17 -223 -35 -252 -15 -24 -3 -65 19 -65 21 0 24 8
31 85 3 38 8 72 11 77 3 4 7 83 10 175 2 93 6 186 8 208 3 22 9 83 15 135 12
110 9 206 -6 221 -7 7 -13 7 -17 1z"/>
<path d="M1147 1332 c-3 -15 -11 -95 -17 -177 -6 -83 -15 -180 -21 -217 -5
-37 -9 -115 -9 -173 0 -71 -5 -117 -15 -142 -19 -45 -19 -73 -1 -73 30 0 51
97 52 235 0 131 16 352 34 474 5 36 10 74 10 84 0 28 -27 19 -33 -11z"/>
</g>
</svg>
