<?xml version="1.0" standalone="no"?>
<!DOCTYPE svg PUBLIC "-//W3C//DTD SVG 20010904//EN"
 "http://www.w3.org/TR/2001/REC-SVG-20010904/DTD/svg10.dtd">
<svg version="1.0" xmlns="http://www.w3.org/2000/svg"
 width="232.000000pt" height="146.000000pt" viewBox="0 0 232.000000 146.000000"
 preserveAspectRatio="xMidYMid meet">
<metadata>
Created by potrace 1.16, written by Peter Selinger 2001-2019
</metadata>
<g transform="translate(0.000000,146.000000) scale(0.100000,-0.100000)"
fill="#000000" stroke="none">
<path d="M1051 1341 c-9 -5 -12 -18 -8 -32 3 -12 1 -31 -4 -41 -10 -18 -23
-19 -209 -16 -109 2 -202 0 -206 -5 -20 -20 24 -29 157 -33 79 -3 168 -7 197
-10 l52 -5 0 -38 0 -38 -52 10 c-76 13 -337 12 -372 -2 -16 -6 -27 -13 -24
-16 2 -2 71 -5 153 -6 83 -1 181 -6 218 -11 l68 -10 -3 -52 -3 -51 -55 0 c-30
1 -80 5 -110 10 -54 10 -276 9 -292 -1 -25 -16 16 -24 120 -24 64 0 134 -5
156 -11 21 -6 70 -11 107 -12 l69 -2 0 -42 c0 -48 -18 -64 -66 -57 -75 11
-412 16 -430 6 -14 -8 -5 -11 47 -16 93 -8 197 -15 325 -23 l112 -6 -5 -56
c-14 -145 -18 -166 -35 -165 -9 1 -54 5 -100 10 -85 9 -265 8 -306 -1 -48 -12
-7 -25 76 -25 48 0 144 -5 215 -12 l127 -12 0 -32 0 -32 -192 1 c-184 1 -248
-6 -202 -24 10 -4 75 -8 144 -9 69 -1 148 -3 175 -5 28 -2 56 -4 63 -4 9 -1
12 -13 10 -38 l-3 -38 -180 0 c-130 0 -186 -4 -200 -13 -18 -11 -15 -12 25 -9
25 2 77 0 115 -5 39 -5 109 -9 158 -9 70 0 87 -2 87 -14 0 -8 6 -15 14 -15 7
0 16 -9 19 -20 7 -29 30 -25 100 16 57 33 130 66 397 175 52 22 109 47 125 55
17 9 39 15 48 13 15 -3 8 -23 -47 -133 -71 -140 -92 -216 -60 -216 13 0 28 19
48 63 35 75 91 148 182 242 90 91 275 237 349 275 17 8 30 21 30 29 0 18 -93
67 -189 98 -101 32 -112 27 -149 -66 -16 -39 -33 -71 -38 -71 -16 0 -121 112
-164 175 -47 69 -138 162 -201 205 -50 35 -77 78 -63 101 13 20 11 29 -6 29
-8 0 -15 5 -15 10 0 19 -24 10 -58 -22 l-34 -33 13 30 c7 17 19 37 26 46 29
34 16 40 -79 39 -51 -1 -106 1 -123 4 -16 4 -36 2 -44 -3z m179 -62 c0 -6 -7
-23 -15 -37 -17 -30 -95 -264 -95 -285 0 -8 -9 -43 -19 -78 -10 -35 -27 -93
-36 -129 -28 -107 -35 -122 -31 -70 11 133 30 267 39 278 8 10 7 16 -2 21 -18
11 -8 91 13 103 19 11 22 38 3 38 -9 0 -12 11 -9 35 4 34 6 35 47 35 28 0 45
5 48 14 7 16 -13 26 -51 26 -71 1 -65 47 6 53 94 7 102 7 102 -4z m114 -87
c10 -15 55 -58 99 -97 44 -38 87 -81 96 -95 19 -32 71 -97 126 -158 33 -37 35
-43 15 -32 -14 7 -42 28 -62 46 -20 18 -54 42 -75 53 -21 11 -60 40 -88 65
-27 25 -89 69 -137 98 -48 29 -88 56 -88 60 0 8 82 87 90 88 3 0 14 -12 24
-28z m-34 -150 c41 -25 91 -61 110 -79 19 -19 57 -47 85 -63 27 -16 66 -43 85
-60 19 -17 70 -50 113 -73 42 -22 77 -46 77 -51 0 -6 -15 -38 -33 -71 l-32
-59 -80 -18 c-44 -10 -96 -20 -115 -23 -76 -13 -250 -47 -351 -71 -58 -13
-109 -24 -114 -24 -18 0 30 219 95 435 10 33 21 76 25 95 4 19 11 40 15 45 4
6 11 25 15 43 4 20 11 30 18 26 7 -4 46 -27 87 -52z m640 -197 c23 -8 52 -15
64 -15 11 0 36 -9 55 -21 l34 -21 -33 -21 c-19 -12 -54 -40 -79 -63 -25 -23
-68 -59 -96 -79 -27 -21 -83 -69 -124 -109 -41 -39 -70 -62 -66 -51 4 11 14
39 22 63 10 29 24 47 42 55 31 13 71 47 71 59 0 5 -13 0 -29 -11 -37 -27 -45
-26 -27 2 7 12 33 68 57 125 23 56 48 102 54 102 7 0 32 -7 55 -15z m-430
-332 c-8 -3 -33 -13 -55 -23 -22 -11 -89 -37 -150 -60 -60 -22 -144 -58 -186
-80 l-77 -38 -6 40 c-5 32 -3 43 11 54 10 7 79 27 153 44 74 18 169 40 210 50
69 17 137 26 100 13z"/>
<path d="M465 1165 c-82 -40 -288 -99 -316 -92 -12 3 -27 -3 -39 -16 -24 -25
-25 -37 -6 -37 9 0 53 -78 112 -197 54 -109 117 -230 140 -269 23 -39 54 -96
68 -128 30 -67 81 -136 102 -136 21 0 18 13 -27 108 -72 156 -70 148 -70 257
0 101 22 272 48 384 14 58 25 82 51 106 33 33 41 56 20 54 -7 0 -44 -16 -83
-34z m-5 -51 c0 -3 -4 -13 -10 -23 -5 -10 -11 -29 -13 -42 -3 -13 -10 -42 -16
-64 -6 -23 -13 -61 -16 -85 -3 -25 -10 -76 -16 -114 -5 -38 -7 -76 -5 -85 3
-9 2 -31 -2 -49 l-7 -33 -16 33 c-38 78 -89 186 -107 228 -10 25 -31 63 -45
84 -15 21 -27 44 -27 51 0 7 57 32 133 57 148 51 147 50 147 42z"/>
<path d="M538 723 c-58 -9 -24 -22 60 -23 170 -3 288 -8 335 -15 38 -6 47 -4
47 7 0 31 -48 38 -233 37 -100 -1 -194 -4 -209 -6z"/>
</g>
</svg>
