<?xml version="1.0" standalone="no"?>
<!DOCTYPE svg PUBLIC "-//W3C//DTD SVG 20010904//EN"
 "http://www.w3.org/TR/2001/REC-SVG-20010904/DTD/svg10.dtd">
<svg version="1.0" xmlns="http://www.w3.org/2000/svg"
 width="214.000000pt" height="106.000000pt" viewBox="0 0 214.000000 106.000000"
 preserveAspectRatio="xMidYMid meet">
<metadata>
Created by potrace 1.16, written by Peter Selinger 2001-2019
</metadata>
<g transform="translate(0.000000,106.000000) scale(0.100000,-0.100000)"
fill="#000000" stroke="none">
<path d="M975 749 c-4 -6 -4 -13 -1 -16 9 -9 -13 -42 -89 -138 -74 -92 -151
-172 -159 -164 -66 72 -153 205 -170 262 -10 33 -39 17 -120 -65 -69 -70 -148
-145 -329 -310 -31 -29 -34 -44 -9 -52 9 -3 125 -5 257 -4 132 0 301 -3 375
-8 l135 -9 -3 -43 c-3 -40 -2 -43 18 -40 18 2 23 11 26 42 2 21 5 40 7 42 2 2
47 7 100 10 104 7 102 8 97 -43 -1 -17 4 -23 18 -23 16 0 20 7 20 36 0 19 2
37 4 39 2 3 51 8 108 11 99 7 103 6 96 -12 -14 -36 -15 -53 0 -64 16 -14 18
-9 29 53 3 20 11 37 18 37 45 0 231 10 298 16 68 6 82 10 87 26 4 17 6 18 23
2 19 -17 63 -11 57 9 -2 7 -26 23 -54 37 -28 14 -61 32 -75 41 -13 9 -82 35
-154 59 -71 23 -159 58 -195 75 -76 38 -231 100 -242 97 -5 -1 -8 2 -8 7 0 5
-9 12 -20 16 -11 3 -43 24 -72 46 -56 42 -63 45 -73 28z m106 -91 l61 -32 -63
-58 c-61 -55 -66 -57 -111 -53 -29 2 -53 -2 -65 -10 -16 -13 -13 -14 35 -15
35 0 52 -4 52 -12 0 -7 25 -32 55 -55 31 -24 55 -51 55 -61 0 -10 5 -23 11
-29 25 -25 2 -40 -62 -42 -34 -1 -65 -2 -68 -3 -3 0 -23 0 -43 1 l-38 1 0 50
c0 37 -4 50 -15 50 -14 0 -28 -34 -25 -61 6 -41 0 -51 -27 -45 -58 11 -285 20
-463 18 -102 -1 -191 2 -198 6 -8 6 21 39 99 113 61 57 137 130 168 163 53 53
59 57 79 45 11 -7 27 -25 34 -39 27 -53 163 -220 180 -220 10 0 24 13 33 30 8
16 37 52 64 80 27 28 77 86 112 130 34 44 66 80 71 80 4 0 35 -14 69 -32z
m175 -76 c38 -16 91 -41 119 -55 27 -15 60 -27 72 -27 12 0 24 -4 27 -9 3 -5
21 -12 40 -15 19 -4 55 -18 81 -31 25 -14 54 -25 64 -25 9 0 35 -13 57 -30 21
-16 46 -30 54 -30 8 -1 5 -5 -9 -11 -22 -9 -252 -29 -333 -29 -38 0 -38 0 -38
41 0 33 -3 40 -17 37 -14 -3 -18 -13 -16 -46 l2 -42 -58 0 c-32 0 -79 -3 -105
-6 l-46 -7 0 44 c0 42 -3 47 -60 92 -33 27 -60 50 -60 51 0 1 15 1 33 0 84 -7
138 -7 144 -1 11 12 1 14 -75 20 -41 3 -76 8 -79 10 -2 3 12 18 32 34 20 15
46 36 57 46 28 22 33 22 114 -11z"/>
<path d="M377 493 c-8 -12 18 -63 54 -106 57 -69 66 -40 16 49 -30 55 -58 77
-70 57z"/>
</g>
</svg>
