<?xml version="1.0" standalone="no"?>
<!DOCTYPE svg PUBLIC "-//W3C//DTD SVG 20010904//EN"
 "http://www.w3.org/TR/2001/REC-SVG-20010904/DTD/svg10.dtd">
<svg version="1.0" xmlns="http://www.w3.org/2000/svg"
 width="236.000000pt" height="106.000000pt" viewBox="0 0 236.000000 106.000000"
 preserveAspectRatio="xMidYMid meet">
<metadata>
Created by potrace 1.16, written by Peter Selinger 2001-2019
</metadata>
<g transform="translate(0.000000,106.000000) scale(0.100000,-0.100000)"
fill="#000000" stroke="none">
<path d="M900 945 c-89 -24 -116 -45 -57 -45 27 0 37 -5 42 -21 4 -11 5 -22 3
-24 -1 -2 -64 -34 -138 -71 -74 -37 -155 -80 -180 -94 -78 -46 -140 -61 -237
-59 -126 3 -178 -25 -121 -65 12 -9 19 -16 15 -16 -4 0 1 -17 11 -37 21 -42
20 -46 -40 -124 -16 -20 -28 -41 -28 -46 0 -10 65 -17 215 -26 22 -1 51 -9 65
-17 47 -26 99 -55 167 -92 37 -20 85 -48 106 -62 21 -14 52 -33 70 -42 17 -9
42 -26 54 -37 22 -20 23 -20 43 -2 17 15 20 31 20 101 l0 83 38 10 c20 6 47
11 60 11 12 0 39 7 60 16 32 14 87 16 392 15 195 0 367 2 383 5 74 15 0 20
-287 19 -173 -1 -345 2 -383 6 -164 16 -243 20 -243 10 0 -10 82 -27 113 -23
39 5 4 -17 -45 -28 -29 -6 -60 -14 -69 -16 -14 -4 -14 7 -1 113 7 65 19 121
25 125 21 14 81 28 119 28 20 0 39 4 42 9 4 5 150 7 354 5 191 -3 365 -4 386
-4 l39 0 -6 -164 c-6 -170 -3 -206 17 -206 14 0 36 160 36 256 0 56 4 67 43
123 94 136 107 156 107 164 0 5 -26 7 -58 4 -32 -2 -89 0 -127 4 -38 4 -75 5
-82 2 -24 -9 -13 -23 20 -24 17 0 26 -3 19 -6 -9 -3 -7 -12 8 -30 12 -16 20
-41 20 -66 l0 -40 -307 7 c-427 10 -559 19 -605 42 -37 19 -38 20 -38 79 0 60
19 125 60 206 25 47 25 69 3 68 -10 -1 -56 -12 -103 -24z m60 -52 c-9 -21 -19
-45 -22 -53 -4 -12 -18 40 -19 67 0 7 28 18 53 22 3 1 -2 -16 -12 -36z m-60
-120 c-1 -32 -1 -112 -1 -178 1 -66 -6 -181 -16 -255 -19 -156 -20 -164 -10
-208 l7 -34 -78 42 c-98 53 -123 80 -117 123 3 18 8 82 11 142 3 61 10 115 15
122 7 7 6 14 -1 18 -5 3 -10 42 -10 90 0 83 0 85 30 100 47 25 51 18 21 -38
-40 -73 -46 -97 -27 -97 9 0 16 6 16 13 0 6 17 47 37 89 28 56 45 81 65 89 15
6 33 17 39 25 18 22 20 18 19 -43z m1107 -73 c19 0 33 -4 31 -10 -6 -18 -91
-130 -96 -126 -2 3 -4 22 -4 43 0 21 -6 50 -14 65 -20 38 -18 41 17 34 17 -3
47 -6 66 -6z m-1337 -47 c0 -37 -3 -43 -21 -43 -19 0 -20 4 -15 35 9 44 0 45
-18 1 -17 -42 -56 -56 -56 -20 0 16 11 31 38 48 55 36 72 31 72 -21z m-140
-55 c0 -13 -5 -52 -11 -88 -10 -60 -13 -91 -17 -163 -2 -26 -3 -27 -26 -15
-45 25 -148 128 -142 143 3 8 12 15 19 15 8 0 20 7 28 16 7 8 30 24 51 35 39
20 51 49 21 49 -12 1 -7 6 12 15 46 21 65 19 65 -7z m-105 -12 c6 -2 -19 -22
-54 -45 -36 -23 -68 -38 -71 -34 -4 5 -14 26 -23 49 l-16 41 77 -4 c42 -3 82
-6 87 -7z m572 -11 c48 -10 46 -18 -8 -36 l-49 -16 0 40 c0 30 3 37 13 29 6
-5 27 -13 44 -17z m-417 5 c0 -5 -5 -10 -11 -10 -5 0 -7 5 -4 10 3 6 8 10 11
10 2 0 4 -4 4 -10z m85 -11 c0 -9 -13 -15 -39 -17 -41 -4 -43 12 -2 28 27 11
41 7 41 -11z m-5 -70 c0 -16 -8 -19 -55 -19 -30 0 -55 4 -55 9 0 29 12 36 60
33 41 -3 50 -7 50 -23z m0 -66 c0 -27 -1 -28 -60 -28 -55 0 -60 2 -58 20 3 19
12 22 106 33 7 1 12 -9 12 -25z m-280 -80 c0 -3 -15 -1 -32 3 -18 4 -50 10
-70 13 l-37 6 20 32 21 33 49 -42 c27 -22 49 -43 49 -45z m278 -16 l3 -38 -38
6 c-83 13 -83 14 -83 46 l0 30 58 -3 57 -3 3 -38z m-35 -62 c18 -4 27 -12 27
-25 0 -26 -3 -25 -50 6 -54 36 -54 36 23 19z"/>
</g>
</svg>
