<?xml version="1.0" standalone="no"?>
<!DOCTYPE svg PUBLIC "-//W3C//DTD SVG 20010904//EN"
 "http://www.w3.org/TR/2001/REC-SVG-20010904/DTD/svg10.dtd">
<svg version="1.0" xmlns="http://www.w3.org/2000/svg"
 width="286.000000pt" height="184.000000pt" viewBox="0 0 286.000000 184.000000"
 preserveAspectRatio="xMidYMid meet">
<metadata>
Created by potrace 1.16, written by Peter Selinger 2001-2019
</metadata>
<g transform="translate(0.000000,184.000000) scale(0.100000,-0.100000)"
fill="#000000" stroke="none">
<path d="M1170 1659 c-14 -4 -44 -7 -66 -8 -53 -1 -91 -30 -90 -68 1 -15 7
-29 14 -29 24 -3 26 -4 14 -16 -17 -17 -15 -38 3 -38 8 0 15 -4 15 -9 0 -11
-26 -22 -59 -26 -13 -2 -96 -40 -185 -84 -155 -77 -299 -136 -436 -179 -36
-11 -89 -29 -118 -40 -60 -22 -117 -61 -91 -61 18 -1 35 -33 44 -85 6 -29 2
-42 -21 -75 -16 -22 -36 -42 -44 -43 -8 -2 28 -26 80 -54 52 -28 129 -71 170
-94 41 -24 109 -61 150 -84 72 -39 75 -43 72 -74 -4 -39 14 -43 28 -6 l10 26
65 -37 c36 -20 106 -63 155 -96 92 -61 110 -68 110 -46 0 13 -28 36 -199 164
-57 43 -110 84 -119 90 -13 11 -14 25 -5 95 8 65 17 94 42 132 17 28 31 58 31
68 0 20 30 82 73 151 20 33 27 51 20 58 -15 15 -181 18 -200 4 -13 -10 -14
-15 -3 -35 10 -19 11 -60 5 -175 -9 -181 -11 -228 -13 -238 -2 -10 -79 41
-147 98 -27 22 -74 58 -102 79 -29 21 -53 41 -53 45 0 4 41 38 90 75 50 38 90
72 90 76 0 7 102 80 113 80 4 0 31 15 60 33 119 77 249 150 314 177 l68 29 8
-22 c10 -26 12 -244 2 -287 -4 -16 -12 -30 -18 -30 -8 0 -7 -4 1 -12 18 -18
16 -62 -3 -54 -19 7 -19 -3 0 -29 12 -15 14 -36 9 -94 -3 -42 -11 -79 -17 -83
-8 -5 -7 -11 2 -22 8 -10 11 -31 7 -58 -3 -24 -8 -70 -11 -103 -4 -33 -8 -71
-10 -85 -2 -14 -7 -52 -11 -85 -3 -33 -12 -67 -20 -75 -11 -13 -10 -19 5 -39
19 -24 47 -21 37 4 -3 10 12 15 57 19 34 4 91 11 127 16 85 13 255 31 352 37
68 4 77 3 82 -13 4 -11 18 -32 33 -49 l26 -30 -27 47 c-25 45 -25 47 -7 53 11
3 39 6 63 5 24 0 122 4 218 9 120 6 179 5 188 -2 10 -8 16 -8 20 0 4 6 43 13
87 16 44 4 119 13 167 20 l87 14 3 -31 c2 -17 -3 -49 -11 -71 -16 -48 -21
-265 -6 -265 6 0 11 15 12 34 1 19 8 50 16 68 8 19 20 74 27 124 20 145 64
395 81 459 6 22 13 48 15 59 2 10 10 43 19 73 9 29 13 59 9 65 -4 7 -3 8 4 4
6 -4 18 6 27 24 26 51 10 60 -110 60 -89 0 -104 -3 -120 -20 -17 -19 -17 -20
8 -31 30 -14 37 -34 37 -116 l0 -62 -52 -5 c-122 -13 -278 -17 -278 -7 0 5 5
22 10 37 6 14 12 42 15 61 7 56 158 353 199 392 20 19 36 38 36 42 0 4 -43 8
-96 8 -53 0 -102 5 -108 10 -7 6 -20 3 -36 -9 -20 -15 -22 -20 -11 -34 12 -14
9 -16 -24 -16 -21 0 -63 11 -94 24 -31 13 -77 30 -103 36 -27 7 -48 17 -48 22
0 5 -5 6 -11 3 -13 -8 -78 64 -79 87 0 15 48 58 65 58 4 0 5 -22 3 -50 -3 -33
-1 -53 8 -60 16 -14 21 -4 30 58 4 34 11 52 20 52 18 0 18 19 0 26 -8 3 -11
15 -8 30 5 28 -7 31 -34 6 -10 -9 -42 -32 -70 -49 -27 -18 -61 -44 -74 -58
l-23 -24 27 -10 c14 -6 26 -14 26 -18 0 -5 16 -24 34 -44 48 -50 64 -95 59
-156 -6 -62 4 -71 62 -48 28 10 60 14 87 11 24 -3 62 -5 86 -5 36 -1 43 -4 40
-18 -2 -12 -12 -17 -28 -16 -92 9 -149 9 -179 1 -18 -5 -31 -11 -29 -14 3 -2
51 -6 106 -7 103 -3 139 -14 115 -38 -9 -9 -31 -9 -87 0 -63 9 -82 8 -109 -3
-32 -14 -32 -14 36 -16 37 -2 72 -4 77 -5 6 -1 24 -3 40 -4 23 -1 30 -6 30
-21 0 -19 -7 -20 -100 -20 -60 0 -100 -4 -100 -10 0 -8 135 -16 178 -11 9 2
12 -6 10 -21 -3 -24 -16 -26 -108 -12 -23 3 -42 0 -55 -10 -19 -14 -17 -15 30
-16 60 0 125 -10 125 -19 -1 -23 -18 -29 -61 -21 -26 5 -70 10 -98 11 -28 2
-56 9 -62 16 -7 7 -25 13 -42 13 -28 0 -29 -2 -24 -32 3 -18 8 -42 12 -53 20
-58 -141 174 -285 409 -36 58 -90 145 -120 194 -30 48 -55 94 -55 102 0 15
-35 22 -45 9 -3 -3 -24 -16 -48 -28 l-43 -22 15 30 c11 21 13 32 5 37 -17 10
-80 12 -109 3z m50 -55 c0 -3 -12 -31 -26 -62 -14 -31 -27 -66 -29 -77 -3 -27
-16 -58 -31 -72 -9 -10 -13 -5 -18 21 -4 18 -4 40 -1 47 3 8 -1 37 -10 64 -24
79 -29 74 93 83 12 1 22 -1 22 -4z m200 -81 c25 -37 47 -72 49 -78 2 -5 21
-35 41 -65 68 -101 90 -139 77 -134 -7 2 -19 15 -27 28 -18 29 -69 93 -93 119
-18 18 -106 123 -136 160 -13 16 -13 20 0 28 29 18 46 7 89 -58z m-116 -73
c31 -48 83 -114 153 -193 49 -57 276 -355 292 -385 10 -20 9 -21 -25 -18 -30
3 -42 13 -87 70 -55 71 -72 93 -205 258 -120 149 -118 146 -173 226 -48 69
-50 75 -39 103 l13 29 21 -22 c12 -13 35 -43 50 -68z m56 13 c35 -43 67 -79
72 -81 8 -4 120 -135 171 -201 15 -20 43 -54 61 -76 39 -47 139 -188 161 -227
15 -27 15 -28 -9 -28 -18 0 -37 19 -85 85 -34 46 -67 90 -74 97 -7 7 -46 57
-87 111 -124 161 -203 262 -242 310 -21 25 -38 55 -38 66 0 12 2 21 4 21 2 0
32 -35 66 -77z m-136 -44 c10 -18 53 -75 95 -128 239 -299 336 -423 340 -432
2 -6 -12 -9 -35 -7 -31 2 -44 10 -69 44 -163 220 -182 245 -313 409 -46 57
-62 85 -58 100 3 11 6 26 6 33 0 21 15 13 34 -19z m1144 -49 c13 0 13 -2 0
-17 -17 -20 -48 -86 -48 -101 0 -6 -4 -12 -9 -14 -14 -5 -101 -185 -93 -193 4
-5 2 -5 -4 -2 -14 8 -30 -31 -40 -93 -9 -63 -23 -85 -24 -38 0 41 23 164 46
245 8 28 14 55 13 60 -4 21 3 31 24 37 l22 7 -22 9 c-19 8 -20 13 -12 47 5 21
9 41 9 45 0 9 58 16 94 12 16 -2 35 -4 44 -4z m-1104 -130 c59 -71 103 -129
248 -325 4 -5 19 -25 34 -42 l26 -33 -35 0 c-29 0 -40 7 -66 43 -181 242 -267
356 -287 378 -14 15 -24 37 -24 55 0 38 11 50 24 27 5 -10 41 -56 80 -103z
m799 101 c5 -5 -6 -13 -23 -19 -17 -6 -44 -20 -59 -32 -37 -25 -37 -25 -46 7
-10 40 26 66 80 58 22 -3 44 -10 48 -14z m125 -41 c-2 -12 -6 -21 -10 -20 -5
0 -38 0 -75 0 -74 0 -76 7 -6 26 73 19 95 18 91 -6z m-1022 -63 c56 -66 70
-83 156 -197 47 -63 96 -125 107 -137 12 -13 19 -23 15 -23 -3 0 -1 -7 6 -15
7 -9 10 -18 7 -22 -9 -9 -31 11 -63 60 -81 118 -167 230 -228 294 -38 40 -54
73 -36 73 4 0 21 -15 36 -33z m-576 -7 c0 -5 -17 -18 -38 -29 -21 -11 -45 -27
-52 -37 -8 -9 -47 -41 -87 -70 -93 -69 -130 -71 -146 -6 -6 28 -2 30 134 75
59 19 124 44 145 56 46 24 44 23 44 11z m560 -48 c13 -15 72 -91 92 -117 4 -5
25 -32 46 -60 111 -145 123 -165 104 -165 -11 0 -42 31 -77 77 -33 42 -92 115
-131 162 -66 80 -86 121 -60 121 7 0 18 -8 26 -18z m-370 -28 c0 -1 -16 -36
-35 -78 -19 -43 -35 -87 -35 -99 0 -18 -2 -19 -10 -7 -6 10 -10 11 -10 3 0 -7
-5 -13 -11 -13 -7 0 -8 20 -4 63 4 35 3 79 -3 98 l-9 35 58 -1 c33 0 59 -1 59
-1z m456 -178 c91 -114 102 -131 83 -134 -11 -2 -22 -2 -23 0 -1 2 -46 55 -99
119 -87 105 -96 122 -88 157 3 10 34 -25 127 -142z m1420 57 c-21 -96 -29
-132 -38 -168 -5 -22 -13 -65 -19 -95 -18 -103 -51 -132 -44 -39 2 28 -1 64
-6 81 -7 25 -5 34 9 44 16 13 16 13 -2 14 -14 0 -17 5 -12 23 3 12 6 52 6 89
l0 67 33 4 c79 10 80 9 73 -20z m-1476 -90 c8 -10 28 -35 43 -56 16 -21 33
-35 38 -32 5 4 9 4 9 0 0 -13 -52 -25 -69 -15 -30 15 -101 133 -101 166 l0 29
33 -36 c17 -21 39 -45 47 -56z m-746 -105 c16 -13 39 -31 50 -41 12 -9 46 -34
76 -55 34 -23 56 -46 58 -60 2 -12 2 -22 0 -22 -5 0 -210 118 -263 151 -22 14
-59 33 -82 43 -34 15 -41 23 -40 43 1 15 12 30 26 38 23 12 30 9 85 -31 34
-24 74 -54 90 -66z m726 10 c0 -4 -16 -8 -35 -8 l-35 0 0 48 1 47 34 -39 c19
-22 35 -43 35 -48z m833 72 c-10 -9 -93 -22 -93 -15 0 9 42 22 72 22 16 0 25
-4 21 -7z m92 -49 c35 -7 37 -8 15 -14 -77 -17 -120 -21 -165 -17 -47 6 -48 6
-20 14 17 4 39 11 50 16 25 11 68 11 120 1z m431 -68 c11 -49 10 -244 0 -261
-6 -11 -48 -20 -126 -29 -30 -3 -62 -9 -70 -12 -8 -4 -49 -8 -90 -9 l-75 -2
-60 90 c-33 49 -76 103 -97 120 -20 16 -50 49 -66 73 l-30 44 126 1 c123 1
173 5 297 21 33 5 87 9 121 10 l61 1 9 -47z m-780 -49 c25 -35 53 -64 62 -64
12 0 13 -3 5 -8 -9 -6 -5 -17 16 -39 16 -18 27 -34 25 -36 -2 -2 13 -19 33
-38 40 -38 37 -29 -16 46 -20 28 -40 58 -46 67 -5 8 -29 43 -53 77 l-43 61 34
0 c31 0 39 -7 87 -75 29 -41 57 -75 61 -75 4 0 -14 32 -42 72 -27 39 -46 75
-41 80 16 16 53 -6 96 -60 25 -32 62 -75 83 -98 45 -47 127 -163 121 -170 -3
-2 -86 -7 -186 -10 l-181 -6 -12 26 c-7 14 -15 26 -19 26 -4 0 -11 10 -17 23
-6 12 -40 63 -75 112 -36 50 -73 102 -82 118 l-18 27 31 0 c27 0 39 -12 110
-102 43 -57 89 -112 102 -123 l23 -20 -14 22 c-8 12 -48 67 -89 123 -75 104
-79 123 -25 112 16 -3 40 -27 70 -68z m-546 43 c0 -18 -43 -37 -81 -37 -23 0
-29 4 -27 18 2 12 16 19 48 23 25 3 48 7 53 7 4 1 7 -4 7 -11z m360 -63 c30
-42 60 -82 65 -88 37 -41 123 -166 117 -169 -4 -2 -26 -4 -49 -3 -41 1 -42 2
-122 115 -44 62 -91 126 -104 141 -37 42 -51 70 -34 70 8 0 34 -28 58 -62 24
-33 52 -69 62 -80 9 -10 17 -21 17 -25 0 -11 112 -154 117 -149 3 3 -33 59
-78 126 -46 66 -88 129 -94 138 -5 9 -16 22 -24 28 -13 10 -8 34 7 34 4 0 32
-34 62 -76z m-80 -57 c47 -61 100 -133 118 -159 l32 -48 -33 0 c-29 0 -36 6
-67 58 -19 31 -62 94 -95 140 -33 46 -66 92 -74 103 -12 17 -11 19 10 19 19 0
43 -26 109 -113z m-143 83 c14 -11 22 -20 18 -20 -5 0 1 -10 12 -22 29 -33
163 -230 163 -240 0 -5 -26 -6 -57 -3 -87 8 -322 9 -370 1 l-43 -8 7 59 c3 32
7 67 8 78 1 11 3 43 4 70 l1 51 68 17 c37 9 70 17 74 17 4 0 32 -36 63 -80 31
-44 61 -82 66 -86 13 -8 6 6 -55 101 -24 38 -42 73 -40 77 9 15 56 8 81 -12z
m1234 -153 c-13 -13 -15 11 -4 40 7 16 8 15 11 -6 2 -13 -1 -28 -7 -34z
m-1846 13 c21 -16 42 -30 46 -30 5 0 9 -5 9 -11 0 -6 -12 -2 -27 8 -16 11 -40
24 -55 31 -16 6 -28 16 -28 22 0 17 16 11 55 -20z m549 -180 c-5 -5 -38 -12
-74 -15 -36 -3 -84 -8 -107 -11 -45 -5 -57 7 -25 25 22 13 220 15 206 1z"/>
</g>
</svg>
