<?xml version="1.0" standalone="no"?>
<!DOCTYPE svg PUBLIC "-//W3C//DTD SVG 20010904//EN"
 "http://www.w3.org/TR/2001/REC-SVG-20010904/DTD/svg10.dtd">
<svg version="1.0" xmlns="http://www.w3.org/2000/svg"
 width="261.000000pt" height="158.000000pt" viewBox="0 0 261.000000 158.000000"
 preserveAspectRatio="xMidYMid meet">
<metadata>
Created by potrace 1.16, written by Peter Selinger 2001-2019
</metadata>
<g transform="translate(0.000000,158.000000) scale(0.100000,-0.100000)"
fill="#000000" stroke="none">
<path d="M1326 1492 c-3 -5 1 -24 10 -41 17 -34 14 -137 -7 -266 -17 -104 -4
-95 -148 -95 -95 0 -148 5 -206 20 -145 37 -148 35 -156 -112 -3 -62 -4 -119
-1 -125 6 -17 22 -16 41 1 42 37 194 96 209 82 3 -3 -2 -6 -11 -6 -33 0 -45
-25 -36 -81 5 -29 6 -56 2 -62 -3 -5 -42 -6 -98 -2 -71 5 -95 4 -101 -6 -13
-22 -32 -163 -23 -173 5 -6 40 -1 87 12 91 25 118 27 124 10 6 -18 1 -162 -6
-186 -4 -11 -2 -23 3 -26 13 -8 44 51 37 70 -3 7 -1 16 3 18 5 3 11 23 15 44
3 22 12 55 21 75 13 32 20 37 67 46 99 19 103 19 102 -9 -5 -98 -55 -383 -68
-392 -7 -5 -4 -15 11 -30 20 -19 23 -20 29 -5 4 11 17 17 38 17 17 0 87 10
156 21 104 18 176 22 430 24 193 2 309 0 317 -6 8 -7 18 -7 32 0 11 6 29 11
40 11 25 0 28 19 4 26 -58 18 -58 18 -33 42 20 18 24 35 31 122 4 55 10 103
12 107 3 5 8 53 12 108 4 67 11 102 20 108 14 8 17 34 35 282 15 201 20 242
37 282 16 40 11 50 -33 69 -44 18 -78 18 -95 -2 -11 -13 -27 -15 -93 -10 -86
7 -428 24 -611 31 -60 3 -129 7 -152 10 -23 3 -44 2 -47 -3z m325 -44 l67 -2
5 -56 c3 -30 4 -68 2 -85 -2 -16 -7 -71 -11 -122 l-7 -91 -41 -4 c-23 -1 -94
-1 -158 0 -132 4 -129 1 -103 81 52 161 69 218 70 233 1 10 10 27 20 38 15 16
27 20 55 16 19 -3 65 -7 101 -8z m-227 -68 c-20 -38 -37 -70 -37 -70 -1 0 -2
32 -3 70 l0 70 38 0 39 0 -37 -70z m506 49 c3 -3 -11 -25 -31 -49 -40 -50
-129 -195 -130 -213 0 -7 -4 -2 -9 10 -5 13 -5 35 1 55 5 18 9 72 9 121 l0 88
78 -4 c42 -2 79 -6 82 -8z m281 -15 c5 -3 8 -33 7 -67 -1 -34 2 -117 6 -184 8
-118 4 -137 -20 -113 -12 12 -124 28 -288 41 -72 5 -132 11 -134 14 -8 7 134
264 173 313 7 9 40 11 129 7 65 -3 122 -8 127 -11z m101 -12 c-8 -42 -22 -155
-23 -197 l-1 -50 -9 40 c-9 48 -12 187 -3 210 7 18 40 15 36 -3z m-919 -179
c-8 -32 -17 -60 -19 -63 -8 -7 8 84 18 103 16 31 16 18 1 -40z m-464 -148 c25
-8 105 -17 206 -21 156 -7 206 -17 133 -28 -145 -21 -192 -29 -253 -43 -38 -9
-88 -25 -109 -35 l-39 -20 6 39 c4 21 7 57 7 81 0 23 2 42 4 42 2 0 22 -7 45
-15z m536 -20 c-23 -8 -85 -10 -85 -3 0 4 21 8 48 7 26 0 43 -2 37 -4z m230
-116 c-2 -66 -7 -124 -10 -129 -3 -5 -89 -9 -191 -8 -162 2 -184 4 -177 18 3
8 8 38 11 67 3 40 8 52 23 56 14 4 19 14 19 41 0 32 3 36 33 40 55 9 149 18
210 21 32 2 61 6 64 9 19 19 23 -6 18 -115z m265 109 c63 -6 126 -15 140 -21
14 -6 48 -15 75 -21 l50 -11 2 -90 c3 -114 -2 -123 -57 -106 -62 19 -263 26
-308 12 -20 -7 -57 -11 -82 -9 l-46 3 12 117 c6 64 14 121 18 126 8 13 59 14
196 0z m-675 -110 c-10 -103 -13 -120 -22 -128 -10 -10 -112 -22 -124 -14 -11
6 24 100 46 124 25 28 11 38 -43 32 -70 -6 -75 14 -5 23 31 4 66 11 77 15 12
5 34 9 49 9 l28 1 -6 -62z m-155 -42 c0 -8 -9 -35 -20 -60 -14 -33 -25 -46
-40 -46 -18 0 -20 6 -20 60 l0 60 40 0 c28 0 40 -4 40 -14z m-142 -126 c30 0
32 -2 32 -35 0 -28 -4 -36 -22 -39 -13 -3 -53 -12 -90 -20 -38 -8 -69 -11 -69
-8 -2 11 1 44 7 81 l5 34 52 -7 c29 -3 67 -6 85 -6z m504 0 c-62 -15 -182 -22
-182 -12 0 16 26 20 125 20 65 0 81 -2 57 -8z m657 -2 l74 -11 -7 -66 c-8 -83
-13 -113 -27 -176 -6 -27 -13 -70 -16 -95 -3 -25 -8 -48 -12 -52 -9 -10 -429
-13 -458 -4 -12 4 -23 15 -25 24 -3 17 16 168 26 200 3 9 8 48 11 86 3 39 8
72 10 74 3 3 28 7 57 9 29 2 69 8 88 12 55 12 198 11 279 -1z m-1068 -31 c-11
-30 -31 -33 -31 -4 0 28 7 37 25 30 9 -3 11 -11 6 -26z m179 18 c0 -9 -14 -17
-37 -20 -21 -4 -53 -11 -70 -15 -35 -9 -47 -1 -37 24 7 19 25 23 92 25 39 1
52 -3 52 -14z m410 -22 c0 -10 -10 -94 -22 -186 l-22 -168 -136 6 c-74 3 -155
8 -179 11 l-43 6 6 76 c4 42 6 90 6 106 0 16 7 53 16 81 l15 52 72 12 c78 12
128 17 225 19 53 2 62 -1 62 -15z m-610 -73 c0 -5 -2 -10 -4 -10 -3 0 -8 5
-11 10 -3 6 -1 10 4 10 6 0 11 -4 11 -10z m510 -320 c53 -7 53 -8 13 -9 -23 0
-75 -5 -115 -10 -40 -5 -108 -12 -150 -15 l-78 -6 0 29 0 29 138 -5 c75 -3
162 -8 192 -13z"/>
<path d="M518 1209 c-8 -44 -106 -199 -126 -199 -9 0 -41 -26 -72 -57 -73 -75
-232 -177 -263 -169 -33 8 -54 -8 -38 -28 19 -22 145 -88 221 -115 66 -23 282
-115 310 -132 42 -25 365 -179 376 -179 2 0 23 -14 46 -30 42 -31 63 -37 72
-21 8 13 -92 85 -147 105 -26 10 -65 33 -87 51 -22 18 -56 43 -75 55 -23 14
-34 28 -31 36 3 8 -9 31 -27 52 -18 20 -40 48 -49 62 -9 14 -39 55 -68 90 -49
62 -99 154 -113 212 -9 35 8 78 30 78 10 0 50 28 88 61 39 34 87 73 108 86 20
14 37 29 37 34 0 17 -41 29 -113 35 l-74 7 -5 -34z m80 -15 c22 -6 22 -8 -15
-41 -21 -19 -51 -47 -66 -61 l-29 -27 29 50 c16 28 32 58 36 68 7 19 11 20 45
11z m-253 -294 c-5 -15 -2 -20 12 -20 14 0 28 -18 49 -61 19 -42 56 -90 112
-146 45 -47 80 -89 77 -94 -3 -5 -1 -18 5 -30 10 -18 0 -15 -62 19 -40 21
-111 55 -158 76 -160 70 -225 100 -238 111 -9 8 10 25 78 69 49 32 97 67 106
77 22 24 27 24 19 -1z"/>
</g>
</svg>
