<?xml version="1.0" standalone="no"?>
<!DOCTYPE svg PUBLIC "-//W3C//DTD SVG 20010904//EN"
 "http://www.w3.org/TR/2001/REC-SVG-20010904/DTD/svg10.dtd">
<svg version="1.0" xmlns="http://www.w3.org/2000/svg"
 width="302.000000pt" height="132.000000pt" viewBox="0 0 302.000000 132.000000"
 preserveAspectRatio="xMidYMid meet">
<metadata>
Created by potrace 1.16, written by Peter Selinger 2001-2019
</metadata>
<g transform="translate(0.000000,132.000000) scale(0.100000,-0.100000)"
fill="#000000" stroke="none">
<path d="M1190 1181 c-18 -10 -164 -34 -202 -33 -39 1 -46 -18 -15 -40 18 -13
27 -29 27 -47 0 -26 -6 -30 -62 -50 -35 -12 -108 -43 -163 -68 -55 -25 -109
-49 -120 -54 -26 -12 -116 -36 -184 -50 -64 -12 -241 -17 -241 -6 0 16 -40 6
-50 -14 -13 -24 -2 -64 31 -110 l21 -30 -22 -52 c-12 -29 -29 -60 -37 -69 -8
-9 -12 -21 -9 -26 3 -5 60 -12 127 -15 134 -8 159 -16 234 -78 27 -22 68 -50
90 -61 22 -11 42 -24 45 -27 3 -4 30 -20 60 -35 30 -16 69 -39 87 -52 17 -13
36 -24 41 -24 6 0 32 -17 59 -38 72 -56 102 -70 113 -52 10 16 13 12 28 -49 4
-19 13 -36 19 -38 7 -3 32 14 56 36 24 23 69 52 100 66 56 24 74 45 40 45 -32
0 -5 11 68 26 41 9 83 17 94 19 11 1 32 8 47 14 16 6 80 24 143 40 63 16 121
33 127 37 7 5 19 9 28 10 8 1 35 5 60 8 25 3 60 10 79 15 19 6 38 8 43 5 5 -3
14 -1 21 4 7 5 33 14 58 19 40 9 48 8 58 -9 14 -23 31 -15 24 12 -3 13 0 20 8
21 23 2 33 5 53 14 15 7 26 1 50 -28 17 -20 34 -37 39 -37 15 0 6 25 -19 51
l-25 26 61 16 c33 8 63 11 66 6 8 -14 24 -11 24 5 0 7 10 16 23 19 81 19 201
58 207 68 10 15 112 56 160 64 21 4 51 18 67 31 27 24 27 25 9 39 -11 8 -36
17 -55 21 -84 14 -334 95 -386 125 -16 10 -57 25 -91 33 -72 19 -396 130 -507
175 -100 40 -195 89 -199 103 -3 7 -15 8 -31 4 -15 -3 -26 -10 -23 -15 3 -4
-2 -26 -10 -48 -13 -32 -20 -39 -37 -36 -15 3 -42 -12 -87 -49 -56 -46 -334
-238 -345 -238 -6 0 0 24 12 45 6 11 13 31 14 45 2 14 7 28 12 31 4 3 9 16 12
28 6 34 105 231 116 231 5 0 9 7 9 15 0 16 -26 19 -50 6z m-20 -48 c0 -5 -13
-33 -29 -63 -16 -30 -39 -84 -52 -120 l-24 -65 -12 90 c-19 146 -21 140 59
150 17 3 33 7 36 10 8 8 22 6 22 -2z m513 -61 c86 -42 92 -68 15 -58 -43 6
-58 13 -80 39 -15 18 -29 40 -31 49 -5 19 -8 20 96 -30z m-95 -7 c15 -32 15
-35 0 -35 -25 0 -37 16 -31 38 7 29 17 28 31 -3z m-103 -37 c-3 -7 -1 -19 4
-27 8 -12 12 -12 25 -2 10 9 31 11 68 6 53 -7 53 -8 118 -93 114 -151 114
-152 96 -170 -12 -12 -20 -13 -38 -5 -40 19 -142 115 -156 146 -12 29 -38 56
-55 57 -5 0 -22 -14 -37 -30 l-28 -30 -36 42 -36 43 26 23 c14 12 21 22 17 22
-4 0 1 7 11 15 24 18 27 18 21 3z m408 -44 c77 -25 46 -23 -56 4 -44 12 -63
23 -65 35 -4 18 -3 18 22 2 14 -10 59 -28 99 -41z m-879 -21 c10 -64 7 -198
-6 -211 -8 -8 -8 -15 1 -26 13 -15 17 -233 5 -287 -4 -19 -14 -192 -14 -247 0
-7 -22 2 -52 23 -29 19 -58 35 -65 35 -7 0 -13 3 -13 8 0 4 -39 29 -88 56
l-87 48 2 157 c1 141 4 162 23 197 32 57 38 62 67 56 18 -3 24 -1 19 7 -4 6
-14 11 -22 11 -8 0 -12 5 -9 10 3 6 15 10 25 10 10 0 22 5 26 12 5 8 2 9 -9 5
-21 -8 -22 1 -1 24 26 29 11 49 -30 42 -20 -3 -36 -3 -36 1 0 12 212 102 246
105 6 1 14 -16 18 -36z m727 17 c11 0 26 -8 34 -17 115 -140 118 -150 73 -174
-17 -9 -25 -6 -47 19 -40 46 -55 65 -69 93 -7 14 -27 40 -45 59 l-31 33 33 -6
c19 -4 42 -7 52 -7z m180 -37 c30 -9 58 -20 62 -23 5 -4 -12 -24 -38 -45 -25
-21 -47 -36 -48 -34 -2 2 -22 27 -45 55 -23 29 -42 55 -42 58 0 11 58 6 111
-11z m-479 -42 c18 -27 23 -42 16 -49 -7 -7 2 -18 29 -35 33 -21 103 -95 103
-109 0 -2 -31 -3 -69 -3 -65 2 -71 4 -107 38 -22 20 -43 37 -47 37 -13 0 12
-38 36 -55 22 -16 22 -16 -13 -12 -77 11 -101 21 -120 47 -11 16 -20 31 -20
35 0 21 139 155 153 149 7 -3 24 -22 39 -43z m-153 -18 c-69 -79 -124 -131
-132 -126 -4 3 -6 11 -3 19 3 8 0 14 -7 14 -7 1 -5 6 5 14 10 7 15 16 11 19
-3 4 2 7 11 7 10 0 35 12 55 28 36 27 72 50 80 51 3 1 -6 -11 -20 -26z m284
13 c4 -10 1 -13 -9 -9 -27 10 -14 -16 15 -32 36 -18 66 -46 111 -104 31 -40
32 -43 9 -31 -61 32 -159 93 -170 106 -6 7 -16 11 -21 8 -5 -3 3 12 19 35 31
44 38 48 46 27z m509 3 c63 -12 108 -29 108 -39 0 -4 18 -30 40 -57 l40 -51
-31 -6 c-68 -13 -82 -8 -132 55 -63 77 -82 77 -22 -1 38 -49 43 -60 28 -61
-10 -1 -43 -3 -75 -4 -31 -1 -60 -5 -65 -8 -4 -3 -29 -8 -54 -12 -60 -9 -73
14 -33 56 l27 28 28 -32 c15 -17 31 -28 35 -24 4 4 -7 22 -24 40 -18 18 -32
36 -32 40 0 5 97 84 107 86 1 1 26 -4 55 -10z m200 -43 c9 -1 36 -23 58 -49
39 -44 40 -47 18 -48 -12 0 -33 -2 -44 -5 -17 -3 -31 9 -63 51 -23 30 -41 57
-41 61 0 3 12 3 28 0 15 -4 35 -8 44 -10z m-1608 -64 c-1 -37 -5 -103 -8 -147
-8 -87 -8 -159 -2 -217 3 -21 1 -38 -3 -38 -4 0 -33 18 -64 40 -32 22 -57 38
-57 36 0 -2 -17 13 -39 33 -21 20 -64 56 -96 81 -31 25 -64 55 -72 68 -22 32
-12 42 126 134 31 21 119 48 156 48 14 0 24 4 20 9 -3 5 5 12 17 14 13 2 23 5
23 6 0 0 -1 -29 -1 -67z m67 18 c-21 -41 -27 -46 -29 -28 -2 13 4 28 15 36 16
13 16 14 1 9 -11 -4 -18 -1 -18 7 0 18 10 26 36 26 l22 0 -27 -50z m1704 -17
c43 -12 162 -151 151 -178 -14 -38 -70 4 -181 136 -11 13 -31 37 -44 52 l-24
29 39 -17 c21 -10 48 -20 59 -22z m-2065 -15 c0 -4 -18 -17 -40 -29 -22 -13
-40 -26 -40 -31 0 -4 -7 -8 -15 -8 -8 0 -15 6 -15 13 0 6 -3 22 -6 34 -5 17
-1 22 18 25 40 5 98 3 98 -4z m765 -20 c14 -21 14 -24 -5 -32 -13 -6 -30 -5
-47 3 l-27 13 24 19 c32 24 36 24 55 -3z m109 -13 c12 -19 14 -30 6 -51 -6
-16 -7 -30 -2 -33 5 -3 14 -17 21 -31 8 -17 -2 -10 -29 20 -59 64 -63 73 -39
99 25 26 23 26 43 -4z m386 -16 c3 -3 14 -11 25 -17 18 -10 18 -11 3 -17 -17
-7 -73 28 -82 51 -4 11 0 11 22 1 15 -6 29 -14 32 -18z m1025 -8 c142 -35 152
-38 135 -43 -8 -3 -49 -17 -90 -30 l-76 -25 -39 53 c-21 30 -42 54 -46 54 -4
0 -9 7 -12 15 -5 11 -1 12 16 6 12 -5 63 -18 112 -30z m-924 2 c13 -16 12 -17
-3 -4 -17 13 -22 21 -14 21 2 0 10 -8 17 -17z m701 -39 c25 -27 57 -63 72 -81
29 -35 33 -30 -34 -49 -14 -4 -18 -1 -14 9 3 8 -2 17 -10 20 -9 4 -13 13 -10
22 4 9 1 15 -8 15 -7 0 -39 26 -71 58 l-56 57 43 -1 c38 -2 49 -8 88 -50z
m-81 -29 c96 -95 98 -101 53 -120 -51 -21 -59 -19 -89 18 -15 17 -55 61 -88
97 l-62 65 30 5 c72 12 84 8 156 -65z m-117 -39 c47 -55 84 -101 82 -103 -2
-3 -32 -10 -66 -17 -52 -11 -64 -11 -76 1 -8 8 -14 17 -14 21 0 4 -10 19 -23
34 -43 53 -72 92 -72 99 0 4 -13 18 -30 31 l-30 23 45 6 c88 12 91 11 184 -95z
m-1013 27 c29 -37 52 -76 52 -86 -1 -10 8 -22 20 -26 31 -12 69 -68 62 -90 -4
-14 1 -20 19 -25 22 -5 86 -89 86 -113 0 -6 -11 -13 -25 -15 -27 -6 -35 2 -80
72 -34 53 -204 270 -212 270 -9 0 25 -48 112 -160 93 -120 129 -176 121 -188
-3 -5 -25 -12 -48 -15 -24 -3 -60 -9 -80 -13 -35 -6 -39 -4 -55 27 -10 18 -34
51 -53 73 -80 92 -87 106 -89 180 -1 38 1 89 5 112 5 38 8 42 24 34 10 -6 25
-7 33 -4 8 3 18 1 22 -5 11 -19 25 -12 25 14 0 14 2 25 4 25 2 0 28 -30 57
-67z m806 10 c21 -25 46 -54 56 -65 9 -10 17 -21 17 -24 0 -3 14 -23 30 -44
34 -43 36 -50 14 -50 -15 0 -106 46 -146 74 -33 23 -110 136 -96 140 7 3 20 7
28 9 40 14 60 6 97 -40z m-584 9 c23 -21 21 -32 -6 -32 -13 0 -28 -5 -33 -10
-16 -16 -36 -4 -62 36 l-24 36 54 -7 c29 -4 61 -14 71 -23z m174 -1 c10 -6 14
-11 8 -11 -5 -1 -25 -3 -43 -6 -21 -2 -31 0 -27 6 7 12 -21 12 -50 1 -20 -8
-45 3 -45 20 0 11 135 3 157 -10z m93 5 c0 -8 -61 -12 -66 -4 -3 4 11 8 30 8
20 0 36 -2 36 -4z m172 -13 c29 -35 31 -48 2 -23 -16 14 -33 28 -38 32 -6 5
-3 8 5 8 9 0 23 -8 31 -17z m-542 -24 c24 -33 24 -34 -7 -43 -19 -6 -22 -3
-21 22 1 16 -2 34 -6 41 -16 26 14 9 34 -20z m485 21 c3 -6 -1 -7 -9 -4 -18 7
-21 14 -7 14 6 0 13 -4 16 -10z m-1530 -19 c3 -10 19 -31 35 -47 16 -16 30
-32 30 -36 0 -6 -61 -2 -107 8 -27 5 -28 15 -7 60 18 37 39 44 49 15z m1633
-76 c20 -14 42 -29 47 -34 21 -19 65 -69 65 -75 0 -4 -58 -19 -85 -21 -5 0
-19 11 -30 26 -11 15 -41 53 -66 85 -25 33 -54 72 -64 88 l-19 28 57 -36 c32
-20 74 -48 95 -61z m-219 64 c-22 -22 -35 -20 -26 6 4 8 16 15 27 15 20 0 20
0 -1 -21z m155 -112 c32 -44 54 -83 50 -87 -5 -5 -28 -13 -51 -18 l-41 -10
-60 93 -60 93 31 30 30 30 22 -26 c12 -15 48 -62 79 -105z m16 107 c0 -2 -9 0
-20 6 -11 6 -20 13 -20 16 0 2 9 0 20 -6 11 -6 20 -13 20 -16z m-240 7 c0 -10
-40 -46 -66 -59 -18 -9 -24 -7 -42 17 l-21 28 42 9 c55 12 87 14 87 5z m-120
-48 l21 -27 -33 -28 c-18 -15 -36 -28 -39 -28 -12 0 -70 90 -64 100 3 5 26 10
50 10 35 0 47 -5 65 -27z m150 14 c0 -7 -17 -30 -38 -50 -35 -34 -40 -36 -52
-22 -12 15 -9 21 26 50 41 36 64 44 64 22z m-273 -34 c46 -59 48 -64 28 -79
-29 -21 -38 -18 -73 28 -24 31 -29 44 -21 55 16 18 49 16 66 -4z m352 -86 c34
-51 47 -79 39 -82 -31 -10 -207 -55 -215 -55 -5 0 -17 14 -27 31 l-18 31 33
35 34 34 32 -38 c41 -48 43 -35 4 23 -28 40 -29 43 -11 49 11 3 29 20 41 36
12 17 25 27 30 22 4 -4 30 -43 58 -86z m-179 38 c11 -13 8 -21 -16 -48 -16
-17 -30 -34 -31 -36 -5 -8 -43 32 -43 45 0 11 56 53 71 54 4 0 12 -7 19 -15z
m503 -31 c22 -8 22 -24 -1 -24 -9 0 -23 9 -30 21 -11 18 -11 20 0 15 7 -3 21
-9 31 -12z m-597 -31 c21 -28 16 -33 -15 -15 -16 9 -27 20 -25 24 8 13 26 9
40 -9z m-326 -128 c1 -5 11 -23 22 -38 11 -16 18 -30 15 -33 -3 -3 -40 -8 -83
-11 l-77 -6 6 79 c11 130 11 129 67 70 26 -28 49 -55 50 -61z m357 43 c15 8
22 6 32 -10 14 -23 15 -22 -25 -36 -30 -10 -32 -8 -53 30 -27 51 -27 57 3 29
19 -18 28 -21 43 -13z m-333 -179 c-32 -17 -67 -38 -77 -47 -21 -19 -23 -17
-32 30 l-7 37 48 4 c27 2 67 4 88 5 l39 2 -59 -31z"/>
<path d="M1310 853 c0 -5 12 -21 26 -37 21 -23 28 -26 35 -15 5 10 3 16 -10
21 -10 3 -21 13 -24 22 -6 16 -27 23 -27 9z"/>
<path d="M1276 765 c4 -8 8 -15 10 -15 2 0 4 7 4 15 0 8 -4 15 -10 15 -5 0 -7
-7 -4 -15z"/>
<path d="M1120 662 c0 -12 19 -26 26 -19 2 2 -2 10 -11 17 -9 8 -15 8 -15 2z"/>
<path d="M1074 544 c6 -33 34 -76 45 -70 7 5 74 -71 115 -129 8 -11 18 -17 22
-13 4 4 -5 22 -20 40 -15 18 -54 70 -88 116 -34 45 -65 82 -70 82 -5 0 -6 -12
-4 -26z"/>
<path d="M1140 422 c0 -12 19 -26 26 -19 2 2 -2 10 -11 17 -9 8 -15 8 -15 2z"/>
<path d="M1260 310 c0 -13 18 -22 24 -11 3 5 -1 11 -9 15 -8 3 -15 1 -15 -4z"/>
</g>
</svg>
