<?xml version="1.0" standalone="no"?>
<!DOCTYPE svg PUBLIC "-//W3C//DTD SVG 20010904//EN"
 "http://www.w3.org/TR/2001/REC-SVG-20010904/DTD/svg10.dtd">
<svg version="1.0" xmlns="http://www.w3.org/2000/svg"
 width="175.000000pt" height="111.000000pt" viewBox="0 0 175.000000 111.000000"
 preserveAspectRatio="xMidYMid meet">
<metadata>
Created by potrace 1.16, written by Peter Selinger 2001-2019
</metadata>
<g transform="translate(0.000000,111.000000) scale(0.100000,-0.100000)"
fill="#000000" stroke="none">
<path d="M1029 978 c-19 -12 -52 -27 -74 -34 -22 -6 -77 -28 -121 -47 -87 -38
-271 -99 -350 -118 -91 -21 -191 -9 -267 32 -35 19 -46 -5 -42 -87 1 -41 6
-78 9 -81 13 -14 5 -96 -14 -135 -11 -23 -20 -47 -20 -54 0 -13 142 -34 236
-34 62 0 136 -18 155 -37 6 -6 27 -9 50 -6 l39 6 0 -37 c0 -29 4 -36 20 -36
11 0 21 5 21 10 1 6 2 14 3 19 3 22 18 23 39 4 12 -11 38 -23 57 -26 39 -6
205 -81 233 -105 10 -9 17 -29 17 -49 0 -24 5 -33 16 -33 27 0 190 192 179
210 -3 5 33 28 81 50 114 52 314 171 314 186 0 7 -19 22 -42 33 -24 11 -73 40
-110 63 -37 24 -92 59 -123 78 -30 18 -74 52 -98 75 -23 22 -64 59 -90 82 -26
23 -47 48 -47 55 0 7 -8 18 -19 25 -15 9 -25 7 -52 -9z m90 -112 l44 -39 -34
8 c-54 12 -102 13 -122 3 -15 -8 -14 -1 8 42 29 58 23 59 104 -14z m-144 5
c-13 -27 -29 -51 -36 -53 -7 -2 -12 -44 -13 -116 -2 -62 -5 -114 -7 -116 -2
-2 -16 -2 -32 1 l-27 5 2 124 c3 142 -13 171 -24 42 -12 -145 -17 -168 -38
-168 -16 0 -18 6 -14 53 3 28 2 81 -1 116 -10 93 -29 63 -31 -49 -2 -105 -6
-120 -34 -120 -18 0 -19 6 -17 96 4 146 -25 136 -38 -13 -6 -76 -9 -83 -29
-83 -20 0 -21 6 -24 88 -3 101 -4 101 78 127 30 10 100 37 155 60 89 38 122
50 148 54 4 0 -4 -21 -18 -48z m255 -101 c30 -28 63 -53 74 -56 10 -4 49 -25
85 -49 36 -23 74 -45 84 -48 38 -14 15 -27 -48 -27 -63 0 -65 1 -65 25 0 18
-5 25 -20 25 -17 0 -19 -5 -14 -25 6 -23 4 -25 -31 -25 -35 0 -36 1 -35 33 3
50 1 57 -15 57 -11 0 -15 -12 -15 -50 l0 -50 -41 0 -42 0 7 90 c5 73 4 90 -7
90 -10 0 -18 -26 -27 -90 -12 -84 -14 -90 -36 -90 -24 0 -24 1 -24 116 l0 116
38 -6 c20 -4 45 -9 55 -12 11 -4 17 0 17 10 0 9 1 16 3 16 1 0 27 -23 57 -50z
m-188 23 c-5 -10 -12 -58 -15 -106 -5 -95 -13 -113 -45 -103 -24 8 -29 36 -22
131 4 62 8 71 30 82 38 19 63 17 52 -4z m-463 -108 l0 -85 -39 0 c-40 0 -40 0
-40 39 0 71 10 97 43 114 18 9 33 16 34 16 1 1 2 -37 2 -84z m-227 43 c21 2
38 2 38 0 0 -3 -30 -29 -67 -58 l-68 -52 -7 44 c-13 86 -13 87 29 73 20 -7 54
-10 75 -7z m114 -60 c-4 -29 -9 -55 -12 -57 -3 -3 -24 0 -47 7 -36 10 -44 9
-55 -6 -13 -16 -14 -16 -10 2 3 19 103 105 122 106 5 0 5 -24 2 -52z m1082
-93 c3 -3 -104 -68 -155 -94 l-43 -21 0 49 0 50 78 3 c66 3 77 6 76 20 -1 15
2 16 20 6 11 -6 22 -12 24 -13z m-1130 4 l37 -1 -43 -19 c-46 -22 -62 -19 -62
13 0 14 5 18 16 14 9 -3 32 -6 52 -7z m140 -19 c14 0 17 -77 3 -99 -8 -12 -14
-12 -40 -1 -32 13 -39 36 -24 88 4 18 11 22 27 18 11 -3 27 -6 34 -6z m108
-52 c-13 -102 -21 -113 -59 -85 -14 10 -15 18 -7 47 5 19 10 47 10 62 0 25 4
28 31 28 l32 0 -7 -52z m71 -35 c-5 -49 -10 -89 -12 -91 -9 -10 -46 21 -41 34
3 8 8 43 12 79 6 58 9 65 28 65 22 0 22 -2 13 -87z m83 45 c0 -24 -3 -73 -6
-110 -7 -66 -7 -66 -31 -55 -22 10 -24 16 -19 51 3 23 8 67 12 99 5 47 10 57
25 57 16 0 19 -8 19 -42z m90 -72 c0 -74 4 -117 11 -122 19 -11 24 11 28 118
1 56 5 106 8 111 4 6 40 1 51 -8 1 -1 5 -43 8 -94 6 -89 6 -92 -20 -118 -17
-17 -24 -32 -21 -45 8 -24 5 -23 -66 12 l-60 31 2 107 c0 59 3 110 6 115 2 4
15 7 29 7 l24 0 0 -114z m310 27 l0 -81 -36 -12 c-19 -7 -37 -10 -39 -8 -2 2
-1 44 2 93 l6 90 33 0 34 0 0 -82z m100 43 c0 -24 3 -51 6 -59 4 -11 -5 -19
-31 -27 -20 -7 -39 -10 -41 -7 -3 3 -2 32 2 65 6 60 12 67 52 71 8 1 12 -14
12 -43z m-983 -16 c13 0 9 -5 -11 -15 -32 -17 -102 -20 -111 -5 -4 6 8 24 26
41 l33 31 23 -26 c12 -14 30 -26 40 -26z m771 -52 c-3 -100 -4 -103 -26 -103
-23 0 -23 3 -24 90 0 120 -1 115 27 115 l26 0 -3 -102z m-655 51 c-5 -5 -17
-3 -29 5 -18 14 -18 15 6 24 19 7 26 6 28 -5 2 -8 0 -19 -5 -24z m676 -228
c-29 -34 -56 -61 -60 -61 -10 0 -19 28 -19 58 0 24 7 29 63 48 34 12 64 20 66
18 2 -2 -21 -30 -50 -63z"/>
</g>
</svg>
