<?xml version="1.0" standalone="no"?>
<!DOCTYPE svg PUBLIC "-//W3C//DTD SVG 20010904//EN"
 "http://www.w3.org/TR/2001/REC-SVG-20010904/DTD/svg10.dtd">
<svg version="1.0" xmlns="http://www.w3.org/2000/svg"
 width="168.000000pt" height="158.000000pt" viewBox="0 0 168.000000 158.000000"
 preserveAspectRatio="xMidYMid meet">
<metadata>
Created by potrace 1.16, written by Peter Selinger 2001-2019
</metadata>
<g transform="translate(0.000000,158.000000) scale(0.100000,-0.100000)"
fill="#000000" stroke="none">
<path d="M848 1393 c-21 -5 -23 -24 -6 -41 9 -9 3 -27 -22 -77 -18 -36 -39
-65 -46 -65 -19 0 -27 -19 -14 -34 8 -11 6 -23 -10 -50 -21 -38 -27 -86 -10
-86 5 0 28 35 52 79 45 83 42 81 181 140 68 29 63 57 -20 100 -23 11 -44 25
-48 31 -6 10 -26 11 -57 3z m90 -92 c15 -9 10 -14 -45 -44 -43 -24 -45 -22
-26 18 17 35 42 45 71 26z"/>
<path d="M530 1189 c0 -25 -46 -92 -95 -139 -21 -19 -54 -57 -75 -85 -21 -27
-48 -61 -60 -75 -32 -36 -52 -78 -48 -103 4 -28 130 -113 233 -157 44 -19 103
-49 132 -67 29 -18 56 -33 60 -33 13 0 141 -56 218 -94 39 -20 73 -36 78 -36
4 0 26 -9 50 -19 23 -10 56 -24 72 -29 36 -13 167 -67 212 -87 17 -8 36 -15
43 -15 6 0 31 -9 56 -21 51 -23 77 -22 82 3 2 12 -5 19 -25 24 -38 9 -60 30
-82 78 -10 23 -38 61 -62 86 -24 25 -66 72 -94 104 -27 32 -81 86 -120 119
-38 33 -95 91 -127 129 -32 38 -95 106 -141 151 -45 45 -127 128 -181 185 -97
102 -126 120 -126 81z m171 -190 c364 -353 609 -617 627 -675 5 -19 8 -34 6
-34 -3 0 -55 20 -117 44 -62 24 -123 48 -137 51 -14 4 -86 37 -160 73 -74 35
-163 78 -198 93 -35 16 -82 42 -105 58 -23 17 -71 42 -107 57 -75 32 -189 112
-190 134 0 8 20 42 45 75 25 33 45 63 45 67 0 4 32 41 70 82 39 42 70 80 70
86 0 27 37 0 151 -111z"/>
</g>
</svg>
