<?xml version="1.0" standalone="no"?>
<!DOCTYPE svg PUBLIC "-//W3C//DTD SVG 20010904//EN"
 "http://www.w3.org/TR/2001/REC-SVG-20010904/DTD/svg10.dtd">
<svg version="1.0" xmlns="http://www.w3.org/2000/svg"
 width="188.000000pt" height="168.000000pt" viewBox="0 0 188.000000 168.000000"
 preserveAspectRatio="xMidYMid meet">
<metadata>
Created by potrace 1.16, written by Peter Selinger 2001-2019
</metadata>
<g transform="translate(0.000000,168.000000) scale(0.100000,-0.100000)"
fill="#000000" stroke="none">
<path d="M1050 1531 c0 -6 -15 -18 -32 -27 -48 -24 -128 -93 -128 -110 0 -8
-10 -14 -25 -14 -18 0 -25 -5 -25 -18 0 -19 -61 -82 -175 -183 -33 -29 -76
-67 -95 -85 -52 -49 -161 -126 -208 -149 -23 -11 -42 -25 -42 -31 0 -6 25 -28
55 -49 32 -22 55 -45 55 -55 0 -10 3 -25 6 -33 6 -17 -61 -87 -83 -87 -17 0
-17 -40 0 -41 6 -1 26 0 43 1 18 1 35 -4 39 -10 4 -7 42 -29 85 -50 43 -20 98
-54 122 -73 25 -20 62 -44 83 -53 21 -9 53 -26 69 -39 17 -13 51 -32 76 -43
25 -11 72 -44 105 -74 75 -67 130 -93 180 -84 33 7 36 10 31 32 -8 30 51 135
89 160 12 8 38 38 57 67 20 29 71 91 115 138 44 47 84 93 89 100 5 8 33 30 62
48 38 24 50 37 42 45 -14 14 -74 -18 -185 -98 -99 -72 -259 -176 -272 -176 -4
0 -14 -9 -20 -20 -11 -17 -64 -60 -155 -126 l-29 -22 -107 108 c-132 132 -221
211 -289 257 l-53 35 20 25 c35 45 18 71 -26 38 -10 -8 -22 -15 -26 -15 -21
-1 40 132 88 193 19 23 34 47 34 52 0 6 57 65 127 132 l128 123 48 -30 c26
-17 71 -44 100 -62 97 -58 221 -143 265 -180 24 -21 46 -38 50 -38 4 0 34 -27
67 -60 33 -33 64 -60 70 -60 5 0 28 -19 51 -41 23 -23 47 -38 53 -35 18 11 13
20 -31 62 -23 21 -66 64 -97 95 -31 30 -87 79 -124 109 -78 60 -144 137 -178
207 -20 41 -24 63 -24 148 l0 100 -37 3 c-22 2 -38 -1 -38 -7z m4 -139 c5 -55
12 -81 30 -105 39 -54 42 -61 16 -47 -78 42 -188 122 -184 134 8 20 121 100
131 92 0 0 4 -34 7 -74z m-550 -439 c-40 -73 -42 -75 -70 -55 -27 19 -31 32
-10 32 8 0 21 6 28 13 18 18 70 57 75 57 2 0 -8 -21 -23 -47z m56 -251 c58
-41 134 -107 209 -183 92 -93 102 -109 40 -63 -19 14 -48 31 -65 39 -18 7 -49
28 -70 47 -45 39 -106 78 -124 78 -14 0 -100 60 -100 70 0 9 39 50 48 50 4 0
32 -17 62 -38z m794 -134 c-32 -34 -68 -71 -79 -82 -11 -12 -47 -54 -79 -93
-32 -40 -62 -73 -66 -73 -18 0 -70 36 -70 48 0 6 4 12 9 12 10 0 57 38 109 88
19 17 38 32 42 32 4 0 34 19 67 43 88 65 118 86 122 87 2 0 -23 -28 -55 -62z"/>
</g>
</svg>
