<?xml version="1.0" standalone="no"?>
<!DOCTYPE svg PUBLIC "-//W3C//DTD SVG 20010904//EN"
 "http://www.w3.org/TR/2001/REC-SVG-20010904/DTD/svg10.dtd">
<svg version="1.0" xmlns="http://www.w3.org/2000/svg"
 width="201.000000pt" height="189.000000pt" viewBox="0 0 201.000000 189.000000"
 preserveAspectRatio="xMidYMid meet">
<metadata>
Created by potrace 1.16, written by Peter Selinger 2001-2019
</metadata>
<g transform="translate(0.000000,189.000000) scale(0.100000,-0.100000)"
fill="#000000" stroke="none">
<path d="M1587 1643 c-4 -3 -64 -6 -134 -5 -126 0 -130 0 -288 -50 -279 -87
-419 -148 -570 -249 -72 -48 -125 -111 -125 -149 0 -49 93 -158 169 -199 33
-17 63 -36 66 -41 5 -9 63 -37 130 -65 120 -48 117 -46 110 -87 -9 -49 11 -51
30 -4 l15 34 51 -18 c28 -11 54 -21 56 -24 5 -5 -10 -16 -139 -101 -111 -73
-208 -142 -223 -159 -5 -6 -37 -32 -71 -57 -46 -35 -72 -47 -108 -51 -62 -7
-79 -23 -49 -47 15 -13 48 -20 115 -25 51 -3 104 -9 118 -12 14 -3 75 -7 135
-10 199 -8 465 -45 502 -69 23 -15 27 -15 40 -2 12 12 13 22 6 44 -24 69 2
419 52 701 8 45 21 117 29 160 29 162 67 348 78 377 7 17 21 42 32 57 16 22
17 30 6 43 -13 16 -23 19 -33 8z m-239 -55 c10 3 13 -12 13 -59 0 -35 3 -192
5 -349 5 -231 3 -283 -7 -272 -7 6 -21 12 -32 12 -20 0 -154 66 -163 81 -3 5
-16 9 -30 9 -14 0 -48 7 -75 16 -38 13 -49 20 -44 32 3 9 8 37 11 62 3 25 10
54 15 65 5 11 22 56 39 99 16 44 41 92 56 107 14 15 24 32 20 37 -3 5 -29 12
-59 15 -29 4 -67 9 -84 13 -23 5 -36 1 -50 -13 -19 -19 -19 -25 -7 -119 7 -54
13 -139 14 -187 0 -84 -1 -87 -20 -77 -40 21 -130 126 -161 186 -26 52 -30 69
-24 103 15 90 132 153 380 205 39 8 93 23 120 34 38 14 52 16 60 7 6 -6 16
-10 23 -7z m188 -40 c-4 -13 -14 -57 -22 -98 -8 -41 -24 -118 -35 -170 -11
-52 -30 -158 -43 -235 l-23 -140 0 250 c0 138 -4 283 -8 323 -10 88 -6 92 79
92 56 0 58 -1 52 -22z m-464 -148 c8 0 3 -21 -18 -65 -7 -16 -21 -48 -31 -70
l-17 -40 -11 80 c-15 108 -13 115 33 104 21 -5 40 -9 44 -9z m-347 -30 c-8
-16 -15 -44 -15 -62 0 -79 88 -202 196 -273 52 -35 54 -38 54 -80 0 -43 -1
-44 -25 -35 -14 5 -51 23 -83 39 -262 133 -355 217 -318 289 8 15 22 35 32 44
18 15 164 108 171 108 2 0 -3 -13 -12 -30z m340 -395 c22 -8 45 -15 51 -15 24
0 144 -76 141 -89 -3 -19 -71 -21 -131 -4 -28 8 -62 16 -76 17 -14 2 -31 4
-37 4 -9 1 -13 19 -13 52 0 56 3 57 65 35z m173 -215 c24 -4 46 -10 49 -14 4
-3 13 0 22 8 11 9 23 11 39 5 21 -8 22 -13 22 -133 l0 -124 -47 -16 c-78 -26
-494 -70 -603 -65 l-64 4 68 55 c126 101 190 145 296 204 58 32 114 66 125 77
11 11 27 17 35 13 8 -3 34 -9 58 -14z m108 -322 c4 -7 11 -31 14 -55 l7 -42
-36 -3 c-20 -2 -115 3 -211 10 -96 7 -212 15 -258 18 -46 3 -81 9 -77 12 7 8
19 9 145 21 170 16 373 41 378 46 9 9 31 5 38 -7z"/>
</g>
</svg>
