<?xml version="1.0" standalone="no"?>
<!DOCTYPE svg PUBLIC "-//W3C//DTD SVG 20010904//EN"
 "http://www.w3.org/TR/2001/REC-SVG-20010904/DTD/svg10.dtd">
<svg version="1.0" xmlns="http://www.w3.org/2000/svg"
 width="229.000000pt" height="181.000000pt" viewBox="0 0 229.000000 181.000000"
 preserveAspectRatio="xMidYMid meet">
<metadata>
Created by potrace 1.16, written by Peter Selinger 2001-2019
</metadata>
<g transform="translate(0.000000,181.000000) scale(0.100000,-0.100000)"
fill="#000000" stroke="none">
<path d="M784 1673 c-3 -10 -12 -29 -20 -43 -7 -14 -19 -37 -26 -52 -7 -16
-17 -28 -23 -28 -15 0 -65 -53 -65 -68 0 -7 14 -12 33 -12 17 -1 45 -7 61 -13
l30 -13 -71 -79 c-114 -130 -239 -241 -343 -308 -28 -18 -28 -18 -59 15 -24
25 -30 39 -26 59 11 51 -21 43 -81 -19 -70 -72 -88 -98 -80 -117 3 -8 18 -15
33 -15 15 0 35 -4 43 -10 12 -7 11 -10 -5 -15 -61 -20 -76 -29 -73 -43 2 -10
19 -20 43 -24 22 -5 56 -21 75 -37 69 -55 118 -67 127 -31 6 23 -1 28 161
-112 55 -49 103 -88 107 -88 7 0 157 -119 170 -136 5 -6 40 -35 78 -63 37 -27
85 -66 106 -86 22 -20 53 -44 70 -53 16 -9 41 -26 53 -37 48 -41 99 -77 104
-72 7 7 -93 104 -138 134 -57 39 -50 68 48 182 43 51 94 113 112 137 18 24 37
44 42 44 6 0 10 6 10 14 0 8 6 21 13 28 6 7 35 45 64 83 83 111 94 125 103
125 5 0 25 -14 45 -31 l36 -32 -7 -231 c-5 -176 -4 -237 5 -255 18 -33 36 -12
36 42 1 23 5 86 9 139 7 84 11 98 28 104 11 3 26 22 34 42 27 67 31 77 65 151
l34 74 5 -54 c3 -30 0 -83 -7 -119 -7 -36 -15 -121 -18 -190 -3 -69 -8 -140
-11 -157 -4 -28 -2 -33 14 -33 25 0 29 12 37 101 13 160 16 179 31 179 7 0 20
16 29 35 23 57 123 231 140 245 8 7 15 23 15 36 0 23 -3 24 -75 24 l-75 0 6
28 c3 15 24 65 46 112 22 47 60 134 84 194 24 60 54 120 65 132 13 14 19 30
15 39 -5 15 -18 16 -103 9 -103 -8 -146 -9 -203 -5 -19 1 -80 -1 -134 -4 -116
-7 -147 -22 -113 -57 38 -40 52 -143 32 -237 -6 -31 -10 -73 -7 -94 3 -29 -2
-47 -22 -77 -14 -22 -30 -40 -35 -40 -18 0 -349 348 -423 446 -26 33 -63 75
-83 93 -40 35 -40 34 17 103 27 33 35 49 26 54 -7 5 -29 -12 -60 -47 l-49 -54
3 35 c3 33 1 35 -24 32 -19 -2 -28 2 -28 12 0 13 -20 26 -41 26 -5 0 -12 -8
-15 -17z m72 -116 c16 -9 8 -32 -22 -63 -23 -23 -25 -23 -56 -6 -18 9 -35 18
-36 19 -4 1 31 54 57 86 13 16 15 16 29 -5 9 -13 22 -26 28 -31z m95 -86 c24
-26 69 -79 99 -117 l55 -69 -73 62 c-72 63 -138 103 -167 103 -8 0 -15 5 -15
12 0 13 39 58 50 58 4 0 27 -22 51 -49z m1014 -23 c3 -3 -3 -25 -14 -49 -11
-24 -39 -89 -62 -144 -23 -55 -48 -109 -56 -120 -14 -18 -14 -15 -7 30 5 28 9
102 9 165 l0 115 45 5 c54 6 78 6 85 -2z m-255 -50 c-8 -18 -21 -44 -30 -58
-9 -14 -27 -50 -40 -80 -14 -30 -35 -75 -48 -100 l-23 -45 7 65 c3 36 5 104 5
152 -2 84 -1 88 21 92 13 2 41 8 63 13 51 12 61 3 45 -39z m87 -64 c2 -71 -3
-139 -11 -175 -18 -74 -16 -62 -16 -108 l0 -38 -74 -6 c-40 -4 -85 -11 -100
-17 -34 -12 -34 -2 0 70 14 30 41 93 60 139 46 109 80 178 111 219 13 17 25
32 26 32 1 0 3 -52 4 -116z m-907 36 c45 -28 92 -55 105 -60 12 -5 47 -30 76
-55 286 -248 339 -295 339 -305 0 -16 -193 -230 -273 -303 -120 -109 -157
-137 -181 -137 -11 0 -38 -3 -58 -6 l-38 -7 0 40 c0 23 6 46 14 53 24 19 48
107 56 199 11 128 54 294 93 359 11 20 16 37 11 42 -5 5 -51 -7 -109 -29 -82
-31 -100 -41 -97 -57 6 -50 3 -418 -4 -487 l-9 -78 -65 54 c-63 52 -239 237
-292 306 l-26 34 35 46 c18 25 47 62 63 81 16 19 41 53 56 75 14 22 48 65 73
95 26 30 63 78 81 105 36 52 61 85 66 85 1 0 39 -23 84 -50z m-351 -239 c-41
-55 -131 -161 -138 -161 -4 0 -16 9 -27 21 -17 19 -17 21 -2 30 9 5 52 36 95
69 43 33 80 60 82 60 2 0 -3 -8 -10 -19z m407 -43 c-9 -18 -23 -66 -31 -107
-25 -119 -33 -113 -36 23 l-3 98 40 17 c45 21 51 14 30 -31z m-691 -16 c6 -4
18 -16 27 -28 17 -20 17 -21 -12 -42 -28 -21 -32 -21 -65 -8 -19 8 -35 18 -35
22 0 12 53 64 64 64 6 0 16 -4 21 -8z m92 -104 c24 -23 29 -43 13 -53 -8 -5
-43 14 -79 42 -4 3 30 32 38 33 3 0 15 -10 28 -22z m1342 -65 c-43 -80 -44
-81 -78 -49 -30 29 -45 72 -29 82 8 5 80 18 125 23 8 0 0 -22 -18 -56z m198
-5 c-14 -24 -44 -79 -67 -123 -40 -77 -41 -78 -33 -35 4 25 7 77 5 117 -3 80
-3 80 76 82 l43 1 -24 -42z m-1402 -76 c38 -42 93 -101 122 -129 29 -29 48
-53 44 -53 -5 0 -16 6 -23 13 -7 7 -50 43 -95 80 -89 74 -148 141 -138 157 11
17 18 12 90 -68z m-170 57 c11 -17 -1 -21 -15 -4 -8 9 -8 15 -2 15 6 0 14 -5
17 -11z m1304 -97 c6 -12 3 -28 -10 -52 l-18 -35 -1 58 c0 57 9 66 29 29z
m-734 -99 c-3 -18 -10 -33 -15 -33 -6 0 -6 10 0 26 6 14 11 44 12 67 1 40 1
40 5 8 3 -19 2 -50 -2 -68z m264 -100 c-58 -65 -106 -120 -127 -148 l-23 -30
-20 25 c-25 33 -24 37 9 43 16 3 59 34 98 71 69 66 109 90 63 39z"/>
</g>
</svg>
