<?xml version="1.0" standalone="no"?>
<!DOCTYPE svg PUBLIC "-//W3C//DTD SVG 20010904//EN"
 "http://www.w3.org/TR/2001/REC-SVG-20010904/DTD/svg10.dtd">
<svg version="1.0" xmlns="http://www.w3.org/2000/svg"
 width="318.000000pt" height="242.000000pt" viewBox="0 0 318.000000 242.000000"
 preserveAspectRatio="xMidYMid meet">
<metadata>
Created by potrace 1.16, written by Peter Selinger 2001-2019
</metadata>
<g transform="translate(0.000000,242.000000) scale(0.100000,-0.100000)"
fill="#000000" stroke="none">
<path d="M1499 2212 c-14 -9 -69 -53 -123 -97 -158 -129 -209 -166 -238 -172
-15 -3 -34 -16 -42 -28 -16 -25 -10 -41 10 -24 9 7 27 6 61 -5 l48 -16 -110 5
c-60 3 -175 7 -255 10 -260 10 -415 30 -430 56 -11 17 -39 4 -49 -24 -5 -13
-12 -66 -16 -118 -9 -134 -29 -221 -54 -237 -20 -14 -19 -42 2 -42 6 0 19 -7
29 -17 10 -9 26 -21 36 -27 10 -6 50 -32 90 -58 39 -27 75 -48 81 -48 6 0 11
-5 11 -10 0 -6 8 -14 17 -17 10 -4 67 -41 128 -83 60 -42 148 -98 193 -125 46
-28 115 -74 154 -103 54 -42 73 -51 82 -42 8 9 6 15 -8 24 -10 6 -30 21 -44
33 -14 13 -29 23 -33 23 -5 0 -9 7 -9 15 0 9 -12 21 -27 27 -16 7 -46 28 -68
48 -22 19 -58 50 -80 68 -196 162 -264 225 -326 307 -51 68 -65 93 -56 101 7
6 57 16 112 22 55 7 111 14 125 17 106 21 292 46 490 65 63 6 142 15 175 20
33 5 101 12 150 15 50 4 101 8 115 10 14 2 63 6 110 10 47 3 119 11 160 17 41
7 164 12 272 12 109 1 198 4 198 8 0 4 -12 9 -27 11 -18 2 -11 5 19 6 45 1 46
0 40 -24 -5 -16 -27 -38 -58 -58 -54 -33 -152 -98 -267 -176 -38 -25 -107 -71
-155 -101 -48 -30 -132 -87 -187 -126 -96 -69 -229 -154 -241 -154 -10 0 -148
-82 -259 -155 -191 -125 -246 -156 -274 -153 -22 3 -26 -1 -26 -22 0 -16 8
-29 24 -36 13 -7 34 -24 47 -38 l24 -25 -68 -90 c-37 -49 -68 -88 -70 -86 -2
1 6 31 16 66 33 110 40 149 28 149 -6 0 -26 -64 -45 -143 -47 -197 -68 -273
-92 -337 -32 -85 -33 -90 -16 -90 11 0 39 66 42 100 0 3 3 10 7 16 6 9 20 63
33 127 9 43 19 64 49 102 17 22 44 58 59 80 15 22 36 51 47 65 l19 25 38 -37
c22 -21 45 -38 53 -38 21 0 159 118 410 350 69 64 145 131 170 150 25 19 50
39 56 45 6 5 51 42 99 80 48 39 104 84 124 101 20 17 52 41 71 54 19 13 37 27
40 30 19 20 156 134 213 177 l70 51 31 -16 c17 -9 45 -26 61 -37 17 -12 55
-32 85 -45 30 -13 68 -35 83 -47 25 -20 200 -113 212 -113 3 0 5 6 5 14 0 14
-107 86 -127 86 -4 0 -24 13 -43 29 -19 15 -63 42 -97 60 -70 35 -72 41 -47
114 15 44 44 65 44 32 0 -8 5 -15 10 -15 6 0 10 5 10 10 0 6 9 10 21 10 15 0
19 5 15 15 -3 8 6 32 20 52 14 21 32 52 41 70 8 18 20 33 27 33 6 1 45 33 86
72 52 50 67 69 50 63 -14 -4 -41 -21 -60 -38 -36 -32 -167 -97 -195 -97 -21 0
-65 -29 -65 -44 0 -6 -20 -24 -45 -39 l-44 -29 -403 -4 c-577 -6 -801 -5 -811
5 -12 12 77 141 157 225 36 39 64 72 62 74 -3 2 10 17 27 33 36 32 34 37 -4
11z m-156 -169 c-28 -32 -62 -77 -78 -100 -29 -44 -49 -52 -78 -30 -16 11 -6
22 90 99 59 47 110 87 111 87 2 1 -18 -25 -45 -56z m1316 -140 c-18 -26 -34
-50 -36 -52 -2 -3 -16 7 -31 23 -27 27 -27 27 -7 42 31 24 78 47 71 35 -4 -6
-2 -11 3 -11 6 0 11 8 11 17 0 12 3 14 11 6 8 -8 2 -24 -22 -60z m-2109 -23
c132 -19 633 -35 1060 -34 267 1 399 -2 370 -7 -64 -13 -94 -17 -190 -24 -47
-3 -107 -8 -135 -10 -27 -3 -90 -7 -140 -10 -74 -5 -138 -12 -165 -20 -3 -1
-36 -5 -75 -9 -38 -4 -83 -10 -100 -12 -16 -2 -82 -6 -145 -9 -143 -7 -183
-11 -290 -30 -47 -8 -118 -20 -157 -27 -40 -7 -73 -16 -73 -21 0 -4 -4 -6 -9
-2 -6 3 -31 0 -56 -6 -25 -6 -48 -9 -51 -7 -2 3 2 58 11 122 8 64 15 119 15
122 0 3 12 3 28 0 15 -3 61 -11 102 -16z m2004 -15 c18 -14 17 -15 -24 -15
-41 0 -42 1 -24 15 24 18 24 18 48 0z m-361 -22 c-7 -2 -19 -2 -25 0 -7 3 -2
5 12 5 14 0 19 -2 13 -5z m354 -27 c-3 -8 -11 -32 -18 -55 -13 -45 -25 -49
-69 -26 -36 18 -30 45 15 75 36 24 80 27 72 6z m-202 -96 c-3 -5 -16 -15 -28
-21 -21 -10 -21 -9 2 10 25 23 36 27 26 11z m-1542 -17 c-7 -2 -19 -2 -25 0
-7 3 -2 5 12 5 14 0 19 -2 13 -5z m-60 -10 c-7 -2 -19 -2 -25 0 -7 3 -2 5 12
5 14 0 19 -2 13 -5z m1517 -31 c-19 -15 -62 -52 -95 -82 -34 -30 -88 -75 -121
-100 -88 -67 -261 -207 -284 -230 -3 -3 -30 -25 -60 -50 -50 -40 -126 -107
-339 -298 -122 -110 -193 -163 -210 -160 -17 3 -121 111 -121 126 0 8 290 204
350 236 19 10 46 26 60 36 14 9 70 42 126 73 56 31 107 63 114 72 7 8 18 15
25 15 8 0 15 4 17 9 3 10 152 109 233 155 28 16 68 43 90 61 22 17 63 45 90
60 28 16 73 46 100 67 28 21 52 38 55 37 3 0 -11 -12 -30 -27z m-1799 -100
c19 -21 51 -60 72 -85 21 -26 95 -93 164 -149 70 -57 140 -116 157 -132 l31
-28 -30 18 c-16 9 -74 48 -127 85 -53 37 -105 72 -115 78 -10 5 -70 48 -133
95 -63 47 -119 87 -125 89 -9 3 53 66 66 67 4 0 22 -17 40 -38z"/>
</g>
</svg>
