<?xml version="1.0" standalone="no"?>
<!DOCTYPE svg PUBLIC "-//W3C//DTD SVG 20010904//EN"
 "http://www.w3.org/TR/2001/REC-SVG-20010904/DTD/svg10.dtd">
<svg version="1.0" xmlns="http://www.w3.org/2000/svg"
 width="268.000000pt" height="158.000000pt" viewBox="0 0 268.000000 158.000000"
 preserveAspectRatio="xMidYMid meet">
<metadata>
Created by potrace 1.16, written by Peter Selinger 2001-2019
</metadata>
<g transform="translate(0.000000,158.000000) scale(0.100000,-0.100000)"
fill="#000000" stroke="none">
<path d="M1145 1540 c-15 -10 -35 -31 -45 -48 -11 -17 -28 -36 -39 -41 -11 -6
-29 -24 -40 -40 l-20 -28 25 -34 c36 -49 93 -117 137 -162 20 -22 37 -43 37
-47 0 -5 10 -17 23 -27 12 -10 55 -56 96 -103 65 -76 71 -85 51 -88 -29 -5
-57 22 -202 198 -66 80 -138 161 -160 181 l-40 36 27 56 c14 31 30 59 36 62
20 13 8 27 -17 21 -32 -8 -83 -15 -149 -19 -60 -4 -101 -23 -87 -40 5 -7 12
-34 15 -60 l5 -48 -57 -25 c-31 -14 -63 -28 -71 -33 -22 -12 -177 -76 -240
-99 -30 -11 -93 -36 -140 -54 -50 -19 -104 -33 -130 -33 -25 0 -51 -4 -58 -8
-15 -10 -11 -108 6 -150 11 -26 10 -29 -23 -48 -19 -12 -35 -27 -35 -34 0 -8
26 -25 57 -39 32 -15 102 -48 155 -74 l97 -47 1 -82 c0 -121 26 -110 32 13 l3
52 70 -34 c39 -18 87 -36 108 -40 23 -4 69 -29 115 -63 124 -90 162 -106 162
-67 0 9 27 17 78 25 42 7 93 15 112 19 19 3 73 7 120 9 47 1 155 6 240 12 231
15 409 18 413 6 2 -6 10 -5 20 3 12 10 47 13 134 11 80 -2 117 1 116 8 -2 11
57 21 156 27 l54 4 -7 -112 c-3 -61 -8 -124 -10 -141 -12 -83 -16 -186 -7
-181 12 8 28 84 40 186 l8 75 2 -62 c0 -35 6 -63 11 -63 6 0 10 1 10 3 3 35
74 499 84 547 2 14 13 59 24 100 10 41 25 104 32 140 13 66 41 125 63 133 27
10 -53 29 -118 28 -119 -3 -113 4 -114 -123 -2 -165 4 -156 -104 -157 -51 0
-177 -5 -282 -11 -104 -7 -226 -10 -269 -8 l-80 3 -44 65 c-24 35 -77 118
-117 185 -95 157 -167 269 -176 273 -4 2 -13 25 -20 52 -14 56 -34 66 -74 40z
m103 -156 c34 -49 67 -99 72 -112 5 -12 18 -35 29 -50 10 -15 59 -88 109 -163
l90 -137 -66 -1 c-66 -1 -67 0 -91 35 -13 19 -70 86 -125 148 -128 144 -230
266 -220 266 21 0 240 -209 369 -353 43 -48 80 -85 83 -82 7 6 -246 284 -345
379 l-82 79 47 43 c26 24 52 42 57 40 6 -1 38 -43 73 -92z m-278 45 c0 -12
-34 -91 -56 -131 -8 -16 -13 -28 -9 -28 3 0 -1 -12 -8 -27 -8 -16 -17 -46 -20
-68 -4 -22 -8 -49 -11 -60 -2 -11 -5 -28 -5 -37 -2 -33 -22 -18 -21 15 1 17 1
70 0 117 -1 75 2 87 20 99 27 18 25 33 -4 25 -21 -5 -24 -1 -29 33 -11 63 -12
62 61 66 37 2 70 4 75 5 4 1 7 -3 7 -9z m65 -181 c32 -34 72 -81 89 -104 17
-23 64 -80 104 -126 39 -47 72 -88 72 -92 0 -3 -15 -6 -34 -6 -29 0 -41 7 -68
41 -18 23 -49 60 -69 83 -79 88 -179 222 -179 237 0 17 9 29 21 29 4 0 33 -28
64 -62z m-235 -196 c1 -114 3 -294 5 -400 3 -119 0 -192 -5 -190 -6 2 -36 25
-67 51 -52 43 -157 112 -287 189 l-46 28 6 52 c3 29 13 61 21 70 9 10 17 28
18 41 3 25 31 83 64 132 28 40 27 43 -16 47 l-37 3 64 42 c36 23 86 51 112 62
26 11 51 29 57 39 10 19 88 54 103 45 4 -2 8 -97 8 -211z m155 180 c6 -4 37
-43 70 -87 33 -44 63 -82 67 -85 15 -12 98 -124 98 -133 0 -20 -75 3 -94 29
-10 14 -48 63 -84 107 -79 99 -91 120 -84 152 5 26 10 30 27 17z m1535 -56 c0
-3 -5 -17 -11 -33 -11 -28 -80 -295 -84 -323 -1 -8 -5 -22 -8 -30 -3 -8 -13
-53 -22 -100 -10 -47 -19 -87 -21 -89 -2 -2 -3 67 -2 153 1 115 5 159 14 167
11 9 11 14 -1 26 -11 11 -15 40 -15 117 0 56 3 106 7 109 7 8 143 10 143 3z
m-1970 -20 c0 -3 -51 -41 -114 -86 -62 -44 -123 -90 -135 -101 -11 -11 -21
-17 -21 -14 0 3 -10 -4 -22 -15 -36 -33 -61 -23 -71 29 -5 24 -5 47 0 52 4 4
46 21 93 38 64 22 243 89 268 100 1 1 2 -1 2 -3z m460 -87 c18 -27 36 -49 41
-49 5 0 9 -6 9 -13 0 -8 9 -22 20 -32 25 -22 26 -45 3 -45 -18 0 -52 38 -112
122 -24 33 -31 52 -26 68 9 27 22 16 65 -51z m-65 -40 c-4 -5 1 -9 9 -9 9 0
16 -4 16 -8 0 -5 11 -22 25 -38 30 -35 31 -44 6 -44 -10 0 -34 19 -53 43 -28
33 -33 45 -25 59 6 9 15 14 19 12 5 -3 6 -10 3 -15z m-435 4 c0 -1 -11 -24
-25 -51 -14 -28 -26 -56 -26 -63 -1 -8 -5 9 -9 36 -9 68 -5 80 31 80 16 0 29
-1 29 -2z m-94 -115 c-3 -62 -8 -122 -10 -133 -3 -11 -5 -23 -5 -28 -1 -7 -19
4 -128 79 l-60 40 49 35 c27 19 73 53 101 76 29 24 54 43 56 43 2 0 1 -51 -3
-112z m525 19 c-16 -16 -40 0 -34 21 5 19 6 19 24 4 11 -10 15 -20 10 -25z
m1360 -25 c25 -2 27 -6 34 -74 4 -40 7 -88 6 -105 -1 -21 3 -33 11 -33 9 0 8
-3 -2 -10 -16 -10 -17 -13 -19 -59 -1 -26 -4 -29 -53 -35 -29 -3 -82 -9 -118
-11 -92 -8 -115 -11 -129 -19 -15 -10 -175 -16 -188 -7 -20 13 -217 321 -209
328 1 1 56 5 121 7 218 10 339 17 341 19 3 2 168 2 205 -1z m-990 -89 c30 -38
85 -110 123 -160 37 -51 72 -93 78 -93 9 0 -48 84 -153 222 -78 103 -76 98
-31 98 39 0 42 -3 148 -136 60 -75 110 -131 112 -125 2 6 -9 26 -25 45 -15 19
-39 49 -53 67 -14 18 -44 57 -67 86 -24 29 -43 55 -43 57 0 10 46 2 65 -11 11
-7 16 -13 13 -13 -6 0 121 -177 165 -230 7 -8 22 -29 34 -46 l22 -30 -107 -3
c-220 -5 -252 -4 -252 10 0 14 -78 125 -156 223 -35 43 -61 83 -58 87 7 12 44
12 44 0 0 -4 10 -19 23 -33 35 -39 142 -168 188 -228 24 -30 44 -49 47 -42 5
16 -24 56 -142 192 l-99 115 34 6 c19 4 35 7 35 8 1 0 26 -29 55 -66z m289 6
c30 -34 59 -69 64 -78 5 -9 19 -27 31 -41 12 -14 43 -55 69 -92 l46 -68 -39 0
c-38 0 -41 3 -127 118 -48 64 -98 128 -110 142 -12 14 -29 37 -39 53 l-17 27
33 0 c29 0 42 -9 89 -61z m22 21 c35 -51 23 -50 -21 1 -19 23 -28 39 -20 39 8
-1 26 -19 41 -40z m-652 22 c0 -9 -63 -29 -78 -24 -7 2 -12 10 -12 18 0 10 13
14 45 14 25 0 45 -3 45 -8z m187 -99 c105 -131 163 -210 163 -223 0 -17 -56
-11 -72 8 -9 9 -46 62 -83 117 -37 55 -81 116 -96 136 -34 43 -35 46 -11 52 9
3 18 5 19 6 1 0 37 -43 80 -96z m-85 -13 c29 -41 61 -86 70 -100 10 -14 31
-45 48 -69 17 -24 29 -45 28 -47 -7 -6 -62 -6 -200 2 l-136 7 -5 31 c-3 17 -4
76 -3 131 1 91 3 100 21 103 11 2 29 7 40 12 29 13 58 17 72 11 6 -3 36 -40
65 -81z m-832 59 c19 -12 37 -25 40 -28 3 -4 31 -24 63 -45 31 -21 57 -42 57
-47 0 -11 -61 13 -98 39 -15 11 -60 31 -100 47 -60 22 -71 30 -61 41 17 20 59
17 99 -7z m2128 -306 c-12 -75 -22 -84 -14 -13 3 30 6 58 6 63 0 4 4 7 8 7 5
0 5 -26 0 -57z m-1393 7 c35 -8 25 -14 -48 -28 -49 -10 -64 -3 -53 23 6 16 49
18 101 5z"/>
<path d="M1658 1392 c-56 -31 -60 -52 -18 -82 25 -18 28 -24 19 -42 -9 -17
-17 -19 -57 -13 -26 3 -56 7 -67 8 -11 1 -27 11 -36 21 -16 20 -16 20 -28 -1
-6 -13 -7 -23 -1 -25 5 -2 12 -36 16 -76 4 -40 11 -75 16 -78 5 -3 32 9 60 28
52 33 168 81 177 73 6 -7 -64 -76 -91 -89 -30 -15 -37 -47 -10 -39 11 2 31 -2
43 -10 33 -20 77 -29 84 -17 3 5 1 10 -4 10 -18 0 -8 102 13 137 1 1 13 4 27
8 21 5 29 1 43 -20 14 -21 15 -29 5 -41 -10 -12 -9 -13 3 -9 11 5 15 0 14 -17
0 -13 -7 -23 -13 -22 -30 2 -34 5 -28 14 12 19 -12 10 -33 -13 l-22 -24 30 0
c17 0 44 -9 60 -21 27 -21 30 -21 39 -4 9 16 13 15 52 -6 46 -27 69 -19 50 16
-16 31 -13 63 9 100 23 37 47 41 60 10 7 -19 3 -28 -23 -50 -32 -29 -44 -58
-23 -58 7 0 22 -13 34 -30 14 -19 32 -30 47 -30 29 0 41 15 19 24 -17 7 -13
43 12 105 14 33 15 33 28 15 13 -17 12 -23 -5 -50 -25 -41 -24 -47 8 -39 21 5
31 1 48 -21 29 -36 51 -24 30 16 -18 35 -19 64 -3 89 11 18 12 18 29 -3 23
-29 35 -14 19 25 -12 27 -11 32 3 41 9 5 17 16 17 25 0 14 -3 14 -20 -2 -22
-19 -37 -15 -24 7 5 7 7 26 5 42 -1 16 3 49 10 73 15 57 5 69 -44 48 -44 -18
-45 -18 -49 -1 -2 12 -10 11 -43 -4 -49 -24 -56 -24 -49 -5 8 20 -41 20 -91 0
-36 -16 -37 -16 -30 6 6 18 4 20 -17 14 -37 -12 -108 -65 -108 -80 0 -8 6 -12
13 -9 11 4 47 -51 47 -71 0 -3 -16 -5 -36 -5 -28 0 -35 3 -30 15 21 52 21 51
3 36 -15 -12 -16 -10 -11 20 3 19 10 44 16 56 20 41 4 45 -57 12 -71 -37 -98
-59 -73 -59 14 0 78 -62 78 -75 0 -17 -47 0 -72 25 -31 32 -32 43 -13 123 9
33 3 33 -57 -1z m18 -48 c-5 -13 -9 -14 -21 -4 -20 16 -19 28 3 32 20 4 26 -6
18 -28z m394 31 c0 -4 -22 -57 -27 -64 -2 -2 -12 4 -23 14 -25 22 -39 12 -17
-12 8 -10 19 -30 22 -45 7 -26 5 -28 -26 -28 -31 0 -32 1 -13 15 17 13 17 14
2 15 -9 0 -20 -4 -23 -10 -15 -25 -21 -6 -13 39 10 46 12 49 57 64 52 17 61
19 61 12z m-252 -45 c-10 -39 -10 -39 -34 -22 -30 22 -30 24 4 44 39 25 41 23
30 -22z m118 13 c-2 -16 -4 -34 -5 -40 -2 -22 -16 -14 -27 15 -9 24 -8 31 5
40 25 17 30 14 27 -15z m209 -12 c-8 -37 -9 -37 -36 -10 -23 23 -23 24 11 37
32 12 33 10 25 -27z m106 26 c-1 -12 -15 -9 -19 4 -3 6 1 10 8 8 6 -3 11 -8
11 -12z m-43 -52 c3 -55 3 -55 -26 -55 l-30 0 11 43 c20 82 41 88 45 12z
m-108 -32 c0 -14 -27 -29 -36 -21 -2 3 -1 20 2 38 7 30 8 32 21 15 7 -11 13
-25 13 -32z m-475 -52 l60 -6 -80 -40 c-44 -22 -82 -41 -85 -42 -3 -2 -5 22
-6 53 0 54 0 55 25 48 15 -3 53 -9 86 -13z m601 -47 c-7 -27 -27 -31 -46 -9
-12 15 -3 37 25 57 14 10 28 -20 21 -48z m-186 38 c0 -4 -9 -15 -19 -24 -18
-15 -20 -15 -36 2 -13 14 -13 19 -3 23 20 8 58 8 58 -1z m86 -7 c3 -8 -1 -21
-9 -30 -14 -14 -17 -13 -31 7 -9 12 -16 26 -16 30 0 14 51 8 56 -7z m-226 -10
c-12 -15 -30 -12 -30 6 0 5 10 9 21 9 18 0 19 -2 9 -15z m64 -16 c17 -29 17
-32 2 -47 -15 -15 -18 -14 -43 10 -26 27 -26 28 -8 48 24 26 27 26 49 -11z
m-232 -56 c-5 -47 -9 -50 -38 -29 -18 14 -18 15 10 45 16 17 30 30 31 28 1 -1
0 -21 -3 -44z m202 -25 c-8 -13 -44 -9 -44 5 0 8 3 16 6 20 8 8 44 -15 38 -25z
m163 -3 c-11 -38 -21 -44 -31 -19 -6 16 18 54 35 54 4 0 2 -16 -4 -35z m-131
-5 c0 -20 -7 -25 -19 -13 -4 3 -2 12 4 20 15 17 15 17 15 -7z"/>
</g>
</svg>
