<?xml version="1.0" standalone="no"?>
<!DOCTYPE svg PUBLIC "-//W3C//DTD SVG 20010904//EN"
 "http://www.w3.org/TR/2001/REC-SVG-20010904/DTD/svg10.dtd">
<svg version="1.0" xmlns="http://www.w3.org/2000/svg"
 width="292.000000pt" height="156.000000pt" viewBox="0 0 292.000000 156.000000"
 preserveAspectRatio="xMidYMid meet">
<metadata>
Created by potrace 1.16, written by Peter Selinger 2001-2019
</metadata>
<g transform="translate(0.000000,156.000000) scale(0.100000,-0.100000)"
fill="#000000" stroke="none">
<path d="M2385 1420 c-38 -10 -99 -30 -135 -44 -82 -34 -164 -53 -260 -61 -41
-3 -79 -10 -84 -16 -6 -5 -2 -32 12 -71 28 -84 18 -96 -53 -63 -63 30 -129 56
-134 55 -2 -1 -7 2 -10 7 -3 4 -33 22 -66 38 -37 19 -68 42 -80 62 -26 42 -58
43 -75 3 -14 -34 -78 -78 -160 -109 -19 -8 -50 -23 -68 -34 -26 -15 -31 -22
-20 -29 10 -8 9 -9 -4 -4 -9 3 -76 -19 -147 -48 -72 -30 -142 -57 -157 -60
l-27 -7 7 66 c5 51 17 86 53 153 25 48 57 101 69 118 13 17 21 34 17 37 -9 10
-55 9 -89 -2 -16 -5 -65 -17 -109 -27 -106 -24 -123 -38 -59 -50 35 -6 40 -11
48 -46 5 -22 2 -28 -16 -33 -25 -7 -231 -82 -263 -96 -82 -34 -222 -84 -285
-101 -41 -10 -94 -24 -118 -30 -36 -10 -45 -9 -53 3 -8 11 -13 10 -30 -11 -19
-23 -21 -33 -14 -115 4 -58 12 -96 22 -107 14 -16 13 -20 -11 -49 -33 -39 -25
-49 43 -53 28 -2 57 -8 64 -14 6 -6 38 -18 69 -27 31 -9 71 -27 90 -40 18 -13
45 -31 59 -39 36 -21 97 -83 101 -104 2 -9 13 -18 25 -20 12 -2 34 -20 49 -40
15 -20 52 -62 83 -94 31 -31 65 -68 76 -82 11 -14 28 -26 38 -26 11 0 17 -8
17 -21 0 -16 5 -20 19 -16 12 3 22 -1 25 -9 6 -16 36 -19 36 -4 0 5 17 12 38
15 64 10 171 45 179 60 5 7 20 17 35 20 27 7 28 6 29 -31 1 -22 1 -45 0 -52
-1 -8 3 -20 10 -28 8 -10 8 -14 0 -14 -6 0 -11 -13 -11 -30 0 -16 4 -30 9 -30
13 0 20 55 18 128 -2 49 1 62 13 63 8 0 25 2 38 3 24 3 30 -9 34 -79 4 -61 23
-43 23 23 0 60 7 72 40 72 18 0 22 -10 33 -77 6 -42 16 -81 22 -87 18 -18 23
4 12 55 -19 81 -16 116 11 123 47 13 50 10 45 -54 -4 -57 2 -74 18 -49 3 6 7
34 8 62 2 46 5 52 29 58 l27 7 0 -81 c0 -95 16 -95 26 1 4 34 12 69 18 77 6 8
34 19 61 25 79 16 93 20 120 30 15 6 28 10 29 10 4 0 19 -156 18 -182 -1 -20
33 -25 44 -7 3 6 46 37 94 68 85 56 90 58 161 60 41 1 83 4 93 8 13 3 25 -2
36 -17 26 -34 40 -16 40 50 0 32 4 61 9 64 5 4 12 24 15 46 3 22 9 58 12 79 5
36 11 42 67 72 34 18 86 47 115 66 29 18 54 33 57 33 2 0 29 15 60 34 53 31
59 33 83 20 32 -16 62 -18 62 -4 0 6 -11 15 -25 20 -28 11 -31 20 -13 38 19
19 0 27 -27 12 -23 -12 -34 -9 -133 38 -59 28 -118 54 -132 58 -14 3 -41 15
-61 25 l-35 17 9 84 c7 65 19 105 54 183 25 55 60 119 79 141 48 60 33 66 -91
34z m24 -82 c-18 -35 -38 -79 -45 -98 -12 -33 -13 -31 -11 49 l2 84 40 13 c22
6 41 12 43 13 1 1 -12 -27 -29 -61z m-1422 14 c-2 -4 -19 -38 -37 -77 l-34
-69 -13 42 c-6 23 -13 57 -15 74 -3 32 -2 33 42 38 47 6 63 3 57 -8z m1325
-118 c-3 -131 -10 -235 -15 -241 -3 -2 -17 1 -32 7 -24 9 -27 14 -22 40 4 16
9 60 13 97 7 82 7 82 24 161 21 102 35 73 32 -64z m-741 42 l29 -25 -37 6
c-46 7 -45 6 -37 27 8 21 11 20 45 -8z m510 -5 c-37 -17 -68 -38 -72 -49 -11
-28 -37 -35 -43 -11 -19 66 -28 58 88 74 22 3 42 8 45 10 2 3 14 5 25 5 12 0
-8 -14 -43 -29z m165 3 c-4 -15 -9 -54 -12 -88 -3 -33 -7 -70 -9 -81 -2 -11
-4 -34 -4 -52 -1 -26 -4 -30 -21 -26 -24 6 -24 -4 0 133 10 62 19 115 18 119
-2 15 3 21 18 21 12 0 15 -6 10 -26z m-75 -111 c-8 -60 -16 -110 -17 -111 -1
-2 -23 5 -47 16 l-45 20 10 39 c20 79 20 83 9 83 -14 0 -41 -60 -41 -90 0 -11
-5 -20 -10 -20 -12 0 -70 28 -70 34 0 2 25 20 55 40 30 20 66 49 80 64 16 18
36 29 58 30 l33 2 -15 -107z m-687 71 c4 -11 14 -15 32 -11 14 2 54 -4 87 -14
34 -10 89 -24 121 -30 33 -6 80 -21 105 -33 25 -13 59 -26 74 -30 15 -4 25
-11 22 -16 -3 -5 -7 -42 -9 -82 -2 -40 -8 -91 -14 -113 -5 -22 -10 -47 -10
-55 -1 -78 -49 -421 -61 -433 -10 -10 -211 -60 -217 -54 -3 2 1 17 8 33 6 16
12 34 12 39 1 13 14 31 49 65 36 35 24 43 -44 29 -30 -6 -69 -10 -87 -10 -45
2 -88 -43 -91 -96 -5 -71 -6 -78 -13 -89 -8 -12 -61 -26 -55 -15 14 27 47 104
47 112 0 4 9 23 20 41 11 18 20 36 20 40 0 9 -96 2 -112 -8 -7 -5 -19 -9 -28
-10 -8 0 -48 -4 -89 -8 -40 -4 -82 -11 -92 -17 -19 -10 -19 -15 -4 -140 l5
-37 -73 -6 c-121 -10 -238 9 -220 37 3 5 1 12 -5 16 -8 5 -9 18 -3 41 5 19 12
91 16 160 4 69 11 158 16 198 5 41 11 106 14 145 10 123 20 143 44 90 11 -24
10 -29 -10 -44 -23 -17 -11 -36 16 -25 8 3 19 -2 24 -12 12 -21 21 -13 24 20
2 27 36 58 180 168 99 76 249 167 278 169 9 0 20 -6 23 -15z m-611 -46 c6 -37
3 -159 -7 -228 -3 -25 -8 -72 -10 -105 -3 -33 -9 -88 -15 -121 -6 -34 -13
-119 -16 -190 -6 -176 -14 -234 -31 -234 -9 0 -14 -11 -14 -27 l0 -28 -33 35
c-17 19 -51 52 -75 73 -23 20 -39 37 -35 37 4 0 -15 22 -41 49 l-49 50 12 144
c6 80 11 174 11 209 0 44 8 83 24 126 14 35 25 64 25 65 0 1 5 16 11 32 7 17
14 39 16 49 4 24 14 31 84 56 30 11 64 25 75 30 42 19 62 12 68 -22z m287 -99
c-14 -11 -50 -37 -80 -58 -31 -22 -62 -46 -69 -55 -13 -15 -16 -14 -29 14 -8
17 -13 32 -11 33 7 4 204 85 209 86 3 0 -6 -9 -20 -20z m800 12 c0 -4 15 -12
33 -18 l32 -9 -2 -65 c-4 -98 -40 -407 -57 -494 -3 -11 -5 -27 -5 -37 -1 -10
-18 -22 -46 -31 -25 -9 -45 -13 -45 -9 0 4 7 54 16 112 8 58 14 121 13 140 0
19 0 37 1 40 9 25 42 260 43 312 1 38 5 68 10 68 4 0 7 -4 7 -9z m-1436 -59
c7 -48 8 -365 2 -437 -2 -22 -4 -49 -5 -60 -1 -15 -16 -4 -72 50 -107 105
-196 226 -198 269 -1 14 -7 17 -26 14 -14 -3 -25 -3 -25 -1 0 7 95 98 136 130
22 16 65 40 97 52 31 13 60 27 63 32 11 18 22 -2 28 -49z m69 51 c2 -5 -4 -26
-14 -48 l-18 -40 -1 48 c0 34 4 47 14 47 8 0 17 -3 19 -7z m1517 -59 l40 -16
-5 -56 c-7 -82 -22 -207 -28 -237 -3 -11 -8 -57 -12 -102 -4 -45 -12 -88 -18
-96 -7 -8 -31 -21 -54 -30 -50 -20 -49 -23 -32 103 5 41 16 129 25 194 8 65
16 122 19 126 2 3 5 28 6 56 2 48 7 74 15 74 2 0 22 -7 44 -16z m-1905 -89
c-38 -35 -70 -63 -71 -62 -2 1 -4 22 -6 47 l-3 45 65 17 c36 9 69 16 75 17 5
1 -22 -28 -60 -64z m2010 -100 c-6 -152 -22 -270 -39 -284 -6 -5 -23 -12 -37
-16 -26 -6 -26 -6 -22 37 2 24 13 111 25 193 11 83 21 164 23 181 3 46 12 56
35 42 18 -12 19 -22 15 -153z m69 9 c0 -60 -2 -140 -4 -177 -4 -64 -7 -70 -33
-84 l-29 -15 6 54 c5 39 16 274 16 341 0 3 10 3 23 -2 21 -8 22 -13 21 -117z
m119 60 c34 -14 100 -44 146 -65 71 -34 82 -42 70 -53 -21 -19 -213 -134 -244
-146 -14 -5 -24 -14 -21 -18 2 -4 -3 -8 -12 -8 -15 0 -17 13 -15 116 1 63 3
134 3 158 0 23 2 42 5 42 3 0 34 -12 68 -26z m-2163 -130 c0 -6 9 -19 20 -29
11 -10 28 -33 39 -51 l20 -33 -27 11 c-15 7 -32 15 -37 19 -6 4 -33 15 -60 24
-28 10 -52 19 -54 21 -3 3 13 22 34 44 35 36 39 38 51 22 8 -9 14 -22 14 -28z
m2030 -231 c0 -3 -6 -14 -14 -22 -12 -13 -24 -91 -26 -163 0 -14 -8 -18 -35
-18 -34 0 -34 1 -28 33 3 17 10 36 14 41 5 6 9 19 9 30 0 41 21 95 38 99 28 7
42 7 42 0z m-95 -55 c-4 -18 -17 -58 -29 -88 l-22 -55 -74 2 c-81 2 -93 10
-78 56 8 21 24 36 61 53 28 13 52 22 54 20 1 -1 3 -23 4 -49 2 -34 6 -47 17
-47 12 0 14 10 8 55 -6 52 -5 55 21 69 40 22 45 20 38 -16z m-752 -14 c6 -6
-11 -64 -24 -78 -4 -5 -5 1 -2 14 4 17 2 21 -8 18 -8 -3 -18 -28 -23 -65 -9
-57 -11 -62 -39 -67 -17 -3 -32 -5 -33 -3 -2 1 8 32 21 67 45 124 42 120 73
120 16 0 31 -3 35 -6z m187 -51 c-12 -26 -23 -53 -24 -60 -4 -26 -16 -25 -16
0 0 15 -6 27 -12 28 -10 0 -10 2 0 6 6 2 12 10 12 16 0 13 51 69 58 63 2 -3
-6 -26 -18 -53z m-60 32 c0 -6 -11 -26 -25 -45 -25 -34 -25 -50 1 -50 27 0 14
-28 -16 -32 -35 -5 -40 10 -26 90 9 49 11 52 38 50 15 -1 28 -7 28 -13z m-243
-36 c-8 -21 -13 -26 -15 -14 -2 9 -9 14 -15 12 -8 -2 -12 -28 -12 -68 l-1 -64
-34 -1 c-44 -2 -52 3 -41 24 5 9 17 38 25 63 18 50 39 74 71 81 30 7 34 1 22
-33z m-112 -8 c-3 -12 -11 -21 -16 -21 -6 0 -8 3 -6 8 2 4 7 16 11 26 9 25 20
13 11 -13z m751 -23 c-8 -41 -10 -42 -43 -31 -41 14 -42 40 -1 52 50 14 51 13
44 -21z m-71 -64 c21 -8 42 -13 49 -11 6 2 20 1 31 -3 16 -6 10 -13 -42 -47
l-61 -41 -10 42 c-9 37 -12 76 -7 76 2 0 19 -7 40 -16z m-900 -87 l60 -13 -74
-17 c-40 -9 -77 -17 -82 -17 -5 0 -9 15 -9 34 0 31 3 34 23 30 12 -3 49 -10
82 -17z"/>
</g>
</svg>
