<?xml version="1.0" standalone="no"?>
<!DOCTYPE svg PUBLIC "-//W3C//DTD SVG 20010904//EN"
 "http://www.w3.org/TR/2001/REC-SVG-20010904/DTD/svg10.dtd">
<svg version="1.0" xmlns="http://www.w3.org/2000/svg"
 width="246.000000pt" height="124.000000pt" viewBox="0 0 246.000000 124.000000"
 preserveAspectRatio="xMidYMid meet">
<metadata>
Created by potrace 1.16, written by Peter Selinger 2001-2019
</metadata>
<g transform="translate(0.000000,124.000000) scale(0.100000,-0.100000)"
fill="#000000" stroke="none">
<path d="M1050 1115 c-25 -8 -70 -14 -100 -14 -68 -2 -90 -13 -73 -39 12 -21
32 -141 35 -212 1 -48 -9 -201 -18 -262 -3 -21 -5 -81 -5 -135 0 -54 -4 -128
-11 -164 l-11 -66 -41 27 c-22 15 -63 40 -91 55 -52 28 -136 90 -130 96 2 2 5
34 8 70 5 74 59 205 104 251 22 23 23 28 11 33 -18 7 -176 0 -184 -8 -3 -3 2
-16 10 -30 13 -20 16 -50 14 -166 -1 -77 -3 -141 -5 -141 -10 0 -83 43 -118
70 -22 16 -51 37 -65 47 -14 10 -35 28 -48 41 l-23 22 29 38 c17 21 42 44 56
52 16 8 26 22 26 36 0 18 11 28 44 44 25 11 48 20 52 20 14 0 210 103 229 121
11 10 46 29 78 43 54 24 65 35 51 49 -10 9 -96 -26 -146 -61 -54 -37 -200
-107 -323 -155 -127 -49 -134 -51 -161 -37 -12 7 -30 10 -38 7 -25 -10 -20
-72 9 -115 14 -20 25 -41 25 -46 0 -5 -18 -37 -40 -72 -22 -35 -40 -68 -40
-73 0 -29 149 -22 190 9 14 10 22 21 19 24 -3 3 -35 1 -73 -5 -37 -6 -70 -9
-73 -6 -7 8 22 59 46 81 18 17 21 17 27 3 8 -22 143 -121 215 -157 21 -11 40
-28 40 -38 1 -9 3 -32 5 -50 6 -75 34 -81 34 -8 0 23 3 46 6 49 4 4 23 -6 43
-22 39 -31 200 -116 216 -115 6 1 9 -15 7 -35 -4 -47 10 -70 32 -52 9 7 13 17
11 22 -3 4 4 13 15 19 18 10 20 17 14 60 -9 70 -5 76 50 72 56 -5 57 -23 3
-36 -20 -5 -37 -13 -37 -18 0 -17 55 -7 98 18 35 21 66 28 136 35 50 4 125 12
166 18 80 11 138 15 375 31 83 5 182 13 221 16 l70 6 0 -51 c0 -56 5 -66 29
-58 10 5 15 20 15 51 0 36 4 48 21 56 19 11 20 13 4 30 -15 16 -16 33 -10 127
9 150 13 176 29 220 8 21 22 65 32 98 23 81 50 143 81 188 20 29 24 40 14 50
-9 9 -16 9 -31 -1 -23 -14 -73 -16 -117 -3 -51 15 -62 -1 -53 -81 6 -59 5
-126 -2 -134 -4 -3 -167 -12 -443 -24 -132 -6 -247 -13 -255 -15 -29 -8 -265
-9 -300 -1 -57 13 -63 23 -36 60 20 27 37 60 60 116 3 8 22 37 41 64 51 71 40
85 -45 61z m0 -53 c0 -5 -9 -17 -20 -27 -11 -10 -20 -22 -20 -27 0 -5 -10 -32
-22 -60 l-22 -51 -8 29 c-4 16 -10 52 -14 81 l-6 52 44 4 c23 2 49 4 56 5 6 1
12 -2 12 -6z m1110 -52 c0 -4 -10 -29 -22 -56 -12 -27 -29 -76 -38 -109 l-17
-60 -5 115 c-3 63 -2 117 3 121 12 7 79 -2 79 -11z m-125 -357 c-4 -93 -8
-188 -8 -213 l-2 -45 -100 -12 c-55 -7 -143 -15 -195 -18 -52 -3 -168 -11
-256 -18 -169 -13 -174 -12 -143 29 5 6 6 14 2 17 -3 4 1 7 10 7 10 0 17 -8
17 -20 0 -30 20 -24 31 9 12 33 42 48 176 87 133 39 283 97 283 110 0 7 -10
15 -22 19 -44 11 -133 38 -153 45 -53 19 -124 39 -156 43 -20 3 -57 15 -82 26
-25 12 -56 21 -68 21 -16 0 -20 5 -16 20 3 10 0 21 -7 23 -23 8 94 17 294 22
112 3 206 8 209 10 2 3 47 5 99 5 l94 0 -7 -167z m-1011 128 c3 -5 -9 -20 -27
-35 l-32 -27 -7 27 c-4 15 -5 31 -2 36 7 11 61 10 68 -1z m287 -25 c-14 -29
-21 -34 -51 -33 -72 2 -130 -3 -130 -13 0 -5 8 -10 19 -10 33 0 42 -74 14
-116 -15 -24 -15 -25 6 -31 20 -5 21 -11 17 -57 -2 -28 -5 -65 -5 -83 -1 -23
-7 -33 -22 -38 -16 -5 -19 -12 -15 -30 5 -19 1 -23 -25 -29 -46 -9 -99 -7
-141 4 l-36 10 -1 138 c0 181 6 213 44 231 17 7 39 21 50 31 39 34 71 44 170
50 55 4 105 8 111 8 7 1 6 -10 -5 -32z m-968 -63 c-16 -16 -35 -37 -41 -48
-12 -20 -12 -20 -27 -1 -8 11 -15 25 -15 32 0 9 57 31 109 43 2 1 -10 -11 -26
-26z m299 -31 l-27 -58 -6 40 c-9 59 -2 76 32 76 l28 0 -27 -58z m748 27 c0
-7 -35 -19 -56 -19 -6 0 -9 10 -7 24 4 22 7 23 34 13 16 -6 29 -14 29 -18z
m-160 -4 c-7 -9 -15 -13 -17 -11 -7 7 7 26 19 26 6 0 6 -6 -2 -15z m52 -20
c-6 -35 19 -41 82 -21 66 20 116 20 186 1 30 -9 89 -25 130 -36 41 -11 78 -23
83 -28 4 -4 -54 -29 -130 -55 -76 -25 -151 -51 -168 -57 -68 -24 -68 -24 -34
27 18 27 43 59 56 71 13 12 23 26 23 30 0 4 -35 7 -77 6 l-78 -2 3 -83 4 -84
-39 -11 c-21 -6 -53 -14 -72 -18 l-34 -7 8 53 c4 30 6 80 6 111 -2 49 2 64 25
93 14 19 27 35 29 35 1 0 0 -11 -3 -25z m162 -103 c-6 -4 -19 -22 -28 -39 -9
-18 -19 -33 -21 -33 -3 0 -5 18 -5 40 0 38 1 40 33 40 17 0 27 -4 21 -8z
m-159 -202 c-16 -31 -47 -38 -90 -20 -22 9 -23 8 50 34 57 20 57 19 40 -14z"/>
</g>
</svg>
