<?xml version="1.0" standalone="no"?>
<!DOCTYPE svg PUBLIC "-//W3C//DTD SVG 20010904//EN"
 "http://www.w3.org/TR/2001/REC-SVG-20010904/DTD/svg10.dtd">
<svg version="1.0" xmlns="http://www.w3.org/2000/svg"
 width="226.000000pt" height="144.000000pt" viewBox="0 0 226.000000 144.000000"
 preserveAspectRatio="xMidYMid meet">
<metadata>
Created by potrace 1.16, written by Peter Selinger 2001-2019
</metadata>
<g transform="translate(0.000000,144.000000) scale(0.100000,-0.100000)"
fill="#000000" stroke="none">
<path d="M1116 1308 c-21 -24 -49 -55 -63 -70 -29 -33 -72 -45 -173 -51 l-75
-4 1 -55 1 -55 -56 -25 c-31 -14 -82 -37 -114 -52 -32 -14 -109 -54 -170 -89
-181 -104 -238 -131 -248 -116 -6 10 -12 9 -28 -5 -23 -21 -27 -56 -11 -87 9
-16 7 -19 -10 -19 -11 0 -20 -4 -20 -8 0 -5 10 -8 23 -8 36 1 35 -45 -2 -83
-45 -46 -41 -65 8 -56 31 5 53 1 98 -19 32 -13 68 -28 80 -31 13 -3 43 -18 68
-31 l45 -26 0 -94 c0 -65 3 -93 11 -89 6 4 10 34 9 68 -2 93 -2 97 18 97 9 -1
42 -14 72 -30 30 -17 62 -30 71 -30 9 0 22 -6 28 -14 7 -8 24 -17 39 -21 52
-13 142 -58 142 -71 0 -17 20 -19 21 -1 1 6 2 21 3 32 2 29 112 46 305 49
l153 2 35 -35 c24 -25 33 -30 28 -16 -18 50 -18 52 12 53 15 0 33 -3 38 -6 6
-4 35 -5 65 -3 49 2 60 -1 94 -28 46 -37 74 -41 31 -5 l-30 25 70 -6 c195 -16
301 -27 306 -33 4 -4 3 -34 -1 -67 -9 -75 -8 -95 5 -96 16 0 37 122 40 241 3
100 7 126 34 200 18 47 41 103 51 126 11 22 20 43 20 45 0 7 -159 1 -170 -6
-4 -3 -3 -19 3 -35 16 -42 3 -50 -65 -41 -32 4 -60 10 -63 13 -3 3 6 28 20 56
14 27 28 64 31 81 7 35 -4 39 -64 22 -17 -5 -32 -9 -32 -8 0 21 100 246 126
285 20 29 34 56 30 59 -4 4 -25 6 -46 4 -22 -1 -40 1 -40 6 0 4 -33 8 -72 7
-40 0 -78 3 -85 9 -14 10 -79 -8 -89 -25 -4 -6 0 -14 7 -19 17 -10 18 -121 1
-299 -6 -69 -12 -130 -12 -137 0 -14 -120 109 -120 124 0 6 -27 43 -60 84 -33
40 -60 77 -60 82 0 5 -12 24 -27 44 -56 72 -122 212 -142 298 -11 49 -49 46
-95 -7z m72 -45 c6 -16 13 -41 17 -56 3 -15 19 -47 35 -69 17 -23 30 -46 30
-53 0 -6 17 -36 38 -66 34 -49 28 -44 -63 46 -56 55 -110 105 -121 111 -10 6
-19 17 -19 24 0 14 56 89 66 90 4 0 11 -12 17 -27z m-173 -102 c3 -11 -3 -39
-14 -63 -43 -94 -105 -251 -115 -291 -9 -38 12 -35 25 3 6 17 13 30 15 30 6 0
134 -129 134 -135 0 -3 -19 -5 -43 -5 -34 0 -48 6 -66 25 -12 14 -20 31 -19
38 3 12 -4 17 -22 17 -16 0 -11 -26 11 -54 l20 -26 -33 0 -34 0 -2 68 c-1 37
-3 81 -6 97 -14 102 -18 205 -7 205 6 0 11 5 11 10 0 6 -7 10 -15 10 -19 0
-21 58 -2 66 8 3 43 9 78 13 35 5 67 9 71 10 4 0 9 -8 13 -18z m110 -50 c133
-127 240 -241 267 -282 9 -14 41 -51 72 -82 60 -60 68 -77 36 -77 -11 0 -53
35 -102 86 -46 47 -135 132 -199 190 -132 119 -163 156 -154 184 10 30 35 24
80 -19z m661 -3 c4 -4 -77 -167 -99 -198 -20 -28 -21 -19 -7 30 6 19 11 67 11
107 l0 72 46 -4 c25 -2 47 -5 49 -7z m117 -13 c4 -8 2 -17 -4 -20 -12 -8 -55
-93 -80 -160 l-18 -50 -1 67 c0 89 17 166 38 171 35 9 60 6 65 -8z m-752 -139
c46 -44 128 -123 182 -175 97 -95 98 -96 67 -99 -26 -3 -44 9 -133 89 -149
136 -267 252 -267 264 0 6 7 21 16 34 l16 23 18 -29 c9 -15 55 -64 101 -107z
m-333 52 c0 -13 5 -63 11 -112 12 -91 20 -600 10 -610 -7 -7 -110 29 -158 54
-20 11 -67 34 -106 53 -38 18 -70 38 -70 45 0 7 2 13 5 13 13 4 58 -16 90 -40
36 -27 98 -60 115 -61 6 0 -15 14 -45 31 -30 17 -64 39 -75 49 -11 9 -35 23
-53 30 -18 7 -35 16 -38 21 -16 26 82 283 116 304 23 14 7 22 -45 22 -30 0
-55 -4 -55 -8 0 -9 29 -14 64 -10 16 1 17 -1 5 -15 -8 -9 -28 -50 -45 -90 -17
-41 -34 -71 -37 -67 -4 3 -7 30 -7 60 0 35 -4 53 -12 54 -8 0 -9 2 -3 5 6 2 9
19 7 37 -3 30 2 36 74 87 42 30 95 72 118 92 22 21 46 38 51 38 6 0 21 9 35
20 33 26 48 25 48 -2z m952 -115 c-3 -65 -9 -124 -13 -131 -5 -7 -4 -19 3 -27
15 -18 4 -85 -13 -85 -7 0 -29 3 -51 7 l-38 6 7 94 c6 87 10 99 44 151 21 31
43 67 50 80 6 12 13 22 14 22 1 0 0 -53 -3 -117z m-1090 93 c0 -2 -42 -32 -92
-66 -110 -75 -187 -138 -246 -202 -25 -26 -48 -45 -53 -42 -5 3 -6 -1 -3 -9 6
-17 -11 -31 -26 -22 -8 5 -8 11 0 20 8 9 6 14 -5 19 -9 3 -15 18 -15 39 0 33
4 36 78 74 100 50 289 151 327 175 32 19 35 20 35 14z m359 -35 c14 -15 64
-61 111 -101 47 -40 99 -86 115 -101 17 -15 41 -37 55 -48 l25 -20 -32 -1
c-27 0 -47 14 -120 83 -48 45 -108 103 -133 130 -25 26 -51 47 -58 47 -24 0 9
-43 112 -145 89 -88 98 -100 78 -103 -13 -2 -31 0 -40 4 -9 4 -26 6 -38 5 -26
-3 -186 162 -178 183 3 8 13 12 22 9 12 -3 13 -2 4 4 -10 8 -9 17 3 46 18 45
39 47 74 8z m-555 -331 c2 -52 0 -103 -5 -112 -12 -22 -26 -16 -107 39 -35 24
-67 43 -73 43 -20 0 -6 19 78 106 l87 89 7 -35 c5 -19 10 -78 13 -130z m1351
76 c-14 -31 -30 -56 -35 -56 -11 0 -11 92 -1 109 4 5 18 14 31 19 35 13 36 -4
5 -72z m251 -25 c-2 -9 -16 -45 -29 -80 -24 -64 -24 -64 -29 -30 -3 19 -2 36
3 37 15 6 10 20 -7 24 -11 2 -18 15 -19 35 -3 35 8 42 58 35 21 -3 27 -9 23
-21z m-1106 -5 c0 -6 -90 -56 -100 -56 -4 0 -10 14 -12 30 l-5 30 59 0 c32 0
58 -2 58 -4z m289 -163 l155 -158 -33 -3 c-25 -3 -37 2 -49 19 -20 29 -161
164 -237 226 -33 27 -67 58 -75 68 -14 17 -12 18 35 13 49 -6 52 -9 204 -165z
m-47 147 c37 0 45 -6 126 -92 48 -51 113 -119 145 -151 31 -33 57 -64 57 -69
0 -6 -13 -8 -31 -4 -17 3 -40 6 -50 6 -10 0 -35 19 -56 42 -21 23 -87 94 -148
156 -60 63 -112 116 -115 119 -3 4 3 3 13 0 10 -4 37 -7 59 -7z m-177 -35 c79
-63 222 -197 270 -253 l19 -23 -63 2 c-63 2 -63 2 -40 20 30 23 15 24 -42 3
-35 -13 -65 -14 -144 -9 -55 4 -113 7 -129 8 -16 1 -31 -3 -33 -9 -2 -7 23
-14 69 -20 l73 -9 -77 -10 -77 -11 0 141 1 141 61 32 c34 17 65 31 68 29 3 -1
23 -15 44 -32z m451 -85 c77 -78 108 -116 109 -134 1 -36 23 -56 38 -35 7 9
19 14 27 11 10 -3 7 4 -7 20 -26 27 -28 52 -10 85 l12 21 29 -25 c22 -18 31
-38 37 -76 9 -53 21 -73 38 -63 7 5 7 14 -1 31 -12 27 -2 48 11 26 5 -7 14
-10 20 -7 7 5 5 18 -7 44 -10 20 -17 46 -15 57 10 48 38 107 54 113 10 4 47 5
84 4 61 -3 67 -6 76 -30 10 -26 11 -227 2 -263 -4 -14 -12 -17 -42 -14 -20 3
-109 12 -199 21 l-163 16 -43 47 c-24 25 -66 73 -93 106 -28 33 -69 80 -91
105 -23 25 -36 47 -31 51 26 16 65 -11 165 -111z m48 59 c62 -48 66 -54 66
-91 0 -22 -4 -38 -9 -36 -11 3 -181 168 -181 174 0 2 13 4 29 4 19 0 50 -17
95 -51z m28 24 c29 -35 31 -48 2 -23 -16 14 -33 28 -38 32 -6 5 -3 8 5 8 9 0
23 -8 31 -17z m183 -42 c-12 -63 -18 -66 -58 -24 -34 34 -45 61 -32 75 3 3 26
0 51 -5 45 -11 46 -11 39 -46z m39 24 c-4 -8 -8 -15 -10 -15 -2 0 -4 7 -4 15
0 8 4 15 10 15 5 0 7 -7 4 -15z m-1458 -42 c31 -21 76 -48 100 -60 24 -13 44
-30 44 -38 0 -20 1 -20 -65 15 -31 17 -64 30 -73 30 -20 0 -152 53 -152 61 0
9 43 28 67 28 13 1 48 -16 79 -36z m1360 -45 l19 -21 -27 18 c-29 18 -34 25
-20 25 5 0 17 -10 28 -22z"/>
<path d="M740 340 c8 -5 20 -10 25 -10 6 0 3 5 -5 10 -8 5 -19 10 -25 10 -5 0
-3 -5 5 -10z"/>
<path d="M787 319 c7 -7 15 -10 18 -7 3 3 -2 9 -12 12 -14 6 -15 5 -6 -5z"/>
</g>
</svg>
