<?xml version="1.0" standalone="no"?>
<!DOCTYPE svg PUBLIC "-//W3C//DTD SVG 20010904//EN"
 "http://www.w3.org/TR/2001/REC-SVG-20010904/DTD/svg10.dtd">
<svg version="1.0" xmlns="http://www.w3.org/2000/svg"
 width="292.000000pt" height="234.000000pt" viewBox="0 0 292.000000 234.000000"
 preserveAspectRatio="xMidYMid meet">
<metadata>
Created by potrace 1.16, written by Peter Selinger 2001-2019
</metadata>
<g transform="translate(0.000000,234.000000) scale(0.100000,-0.100000)"
fill="#000000" stroke="none">
<path d="M877 2076 c-20 -19 -54 -47 -75 -62 -20 -15 -62 -46 -92 -68 -74 -54
-120 -97 -114 -108 3 -4 15 -8 27 -8 12 0 42 -18 66 -38 l43 -38 -128 -126
c-141 -138 -280 -258 -300 -258 -20 0 -84 -33 -84 -43 0 -5 14 -28 31 -52 l32
-44 -58 -63 c-32 -35 -66 -67 -76 -72 -26 -12 -24 -33 4 -42 45 -13 113 -47
136 -68 98 -86 193 -184 206 -213 9 -19 27 -39 39 -45 22 -9 22 -12 10 -37
-18 -36 -78 -78 -194 -136 -75 -37 -190 -102 -219 -122 -11 -8 21 -25 75 -40
34 -10 72 -29 89 -46 17 -15 42 -35 58 -43 15 -8 27 -18 27 -23 0 -5 14 -14
31 -21 23 -10 33 -10 42 -1 9 10 8 15 -5 25 -20 14 -25 32 -7 20 7 -4 9 0 5
14 -5 13 11 54 50 128 89 172 101 194 117 212 8 9 29 43 45 75 37 72 111 159
160 188 20 13 82 52 137 88 55 35 143 83 195 107 52 23 128 58 167 78 70 35
72 37 63 62 -6 15 -23 36 -38 48 -15 11 -51 43 -79 70 -39 36 -58 47 -74 43
-17 -5 -40 12 -108 78 -47 46 -95 91 -106 99 -17 13 -18 15 -3 16 30 0 29 18
-3 92 l-31 72 3 165 c5 189 1 196 -64 137z m11 -194 c-2 -126 -1 -130 28 -178
16 -27 32 -57 36 -67 15 -36 -46 10 -122 93 -41 44 -87 88 -102 96 -15 8 -32
23 -38 34 -11 20 -4 26 75 64 17 8 50 30 75 50 25 20 46 36 47 36 2 0 2 -58 1
-128z m126 -396 c39 -38 88 -77 108 -86 38 -17 38 -17 18 -35 -11 -10 -30 -35
-42 -54 -12 -20 -40 -58 -62 -86 -62 -77 -258 -275 -267 -269 -4 2 -13 -6 -20
-18 -16 -30 -110 -147 -141 -176 l-25 -23 -19 28 c-64 94 -214 410 -214 451 0
4 27 36 61 72 33 36 93 108 132 160 39 52 83 112 99 132 15 20 28 46 28 56 0
11 18 36 40 56 l41 37 96 -88 c53 -48 129 -119 167 -157z m-470 32 c-11 -19
-117 -147 -169 -203 l-45 -50 -25 30 c-13 17 -24 32 -25 35 0 4 15 11 34 18
18 7 78 50 132 96 106 90 109 93 98 74z m755 -238 c17 -13 31 -30 31 -36 0 -7
-71 -48 -157 -92 -87 -43 -194 -100 -238 -126 l-80 -48 45 48 c25 27 48 51 51
54 23 21 172 208 184 230 8 16 25 36 37 44 20 14 24 13 59 -17 21 -18 51 -43
68 -57z m-954 -175 c8 -16 21 -46 30 -65 9 -19 27 -57 41 -84 14 -26 23 -50
21 -52 -1 -2 -34 26 -72 61 -49 46 -83 69 -119 81 -28 8 -57 18 -65 20 -10 3
7 27 54 74 l69 70 14 -38 c7 -20 20 -50 27 -67z m158 -557 c-28 -46 -65 -111
-82 -146 l-32 -63 -42 34 c-23 19 -64 42 -91 52 l-49 19 29 23 c16 12 51 33
79 45 89 41 200 99 214 114 32 30 22 1 -26 -78z"/>
<path d="M2533 2019 c-68 -24 -201 -35 -244 -20 -29 10 -37 8 -98 -31 -70 -44
-204 -165 -285 -257 -116 -132 -280 -301 -292 -301 -8 0 -24 -15 -35 -32 -36
-59 -12 -162 62 -265 17 -24 34 -43 39 -43 18 0 221 -142 227 -158 3 -9 7 -23
9 -31 3 -10 8 -11 18 -2 15 13 46 5 46 -12 0 -11 -47 -75 -150 -204 -36 -45
-93 -120 -128 -165 -34 -46 -85 -110 -112 -143 -27 -33 -49 -65 -50 -72 0 -6
-10 -13 -22 -15 -13 -2 -21 -7 -20 -12 5 -12 -19 -26 -45 -26 -13 0 -23 -5
-23 -11 0 -8 12 -10 34 -6 25 4 36 1 40 -9 7 -19 33 -18 44 2 13 24 180 52
275 46 43 -2 106 1 139 8 34 6 104 12 157 12 112 1 182 -22 203 -66 15 -35 49
-34 66 1 14 32 16 53 2 53 -5 0 -9 27 -9 61 1 33 -1 63 -5 66 -3 3 1 15 9 27
18 25 19 46 2 46 -7 0 -20 9 -29 20 -15 17 -17 51 -13 342 6 434 10 501 37
568 12 30 26 61 31 68 6 7 7 15 4 18 -3 4 2 29 12 58 10 28 29 85 41 126 29
100 62 193 71 206 13 16 59 142 59 159 0 18 0 18 -67 -6z m-272 -71 c13 -5 17
-32 23 -155 4 -81 12 -168 17 -193 11 -48 14 -474 4 -490 -3 -5 -6 -81 -7
-169 l-1 -160 -30 15 c-60 32 -134 84 -192 136 -33 30 -74 64 -91 76 -30 21
-31 22 -23 79 4 32 11 87 14 123 5 60 55 189 77 198 5 2 8 9 8 15 0 7 27 42
60 79 59 65 60 67 39 79 -15 8 -41 9 -78 4 -31 -5 -69 -9 -86 -10 -16 -1 -40
-6 -53 -10 -20 -7 -22 -12 -15 -39 13 -52 5 -250 -12 -289 -19 -45 -19 -47 1
-47 12 0 15 -11 12 -60 -1 -33 -6 -60 -9 -60 -16 0 -86 149 -129 275 -34 102
-22 205 25 205 7 0 21 12 31 28 28 44 74 100 146 176 37 40 77 84 89 100 12
15 49 50 82 78 50 41 63 48 71 36 6 -8 18 -17 27 -20z m249 -54 c-35 -77 -38
-86 -55 -138 -8 -26 -20 -57 -26 -68 -5 -10 -18 -62 -29 -116 -10 -53 -23
-108 -29 -122 -11 -29 -11 -30 -16 85 -2 39 -8 108 -14 155 -6 47 -14 121 -17
166 l-7 81 33 6 c18 4 53 7 79 8 25 1 57 4 71 8 34 10 36 -6 10 -65z m-405
-352 c-19 -13 -77 -92 -104 -142 l-27 -50 -10 96 c-9 93 -9 95 11 90 12 -3 34
-1 50 3 37 11 94 13 80 3z m-346 -284 c17 -48 50 -120 75 -161 l44 -75 -76 49
c-118 75 -192 172 -192 250 0 28 25 68 66 103 l39 34 7 -57 c4 -31 20 -95 37
-143z m309 -428 l35 -17 -54 -39 c-157 -113 -239 -184 -213 -184 6 0 66 40 74
50 12 14 158 119 195 140 l41 23 64 -30 c36 -17 73 -33 83 -37 10 -3 15 -10
12 -16 -3 -6 -6 -68 -6 -139 l0 -130 -97 -21 c-53 -12 -110 -26 -127 -31 -16
-5 -79 -16 -140 -25 -60 -8 -156 -28 -211 -44 -56 -17 -107 -30 -113 -30 -15
0 13 42 79 120 25 30 63 82 84 115 22 33 54 78 72 101 18 22 42 59 54 81 11
22 30 49 41 59 11 10 29 32 40 50 21 35 23 35 87 4z m256 -426 c12 -5 16 -21
16 -65 0 -53 -2 -59 -21 -59 -11 0 -30 5 -42 11 -27 15 -185 19 -257 8 -30 -5
-120 -13 -200 -18 -80 -4 -154 -12 -165 -16 -14 -6 -17 -5 -10 3 12 14 180 56
300 76 50 8 135 26 190 40 101 25 160 31 189 20z"/>
</g>
</svg>
