<?xml version="1.0" standalone="no"?>
<!DOCTYPE svg PUBLIC "-//W3C//DTD SVG 20010904//EN"
 "http://www.w3.org/TR/2001/REC-SVG-20010904/DTD/svg10.dtd">
<svg version="1.0" xmlns="http://www.w3.org/2000/svg"
 width="272.000000pt" height="136.000000pt" viewBox="0 0 272.000000 136.000000"
 preserveAspectRatio="xMidYMid meet">
<metadata>
Created by potrace 1.16, written by Peter Selinger 2001-2019
</metadata>
<g transform="translate(0.000000,136.000000) scale(0.100000,-0.100000)"
fill="#000000" stroke="none">
<path d="M2047 1263 c-12 -11 -8 -23 8 -23 15 0 57 -51 61 -74 4 -30 -14 -37
-107 -41 -52 -2 -98 -4 -104 -5 -17 -1 28 -30 47 -30 26 0 27 -31 4 -163 -13
-78 -19 -90 -58 -132 -41 -45 -95 -81 -104 -72 -13 12 12 61 44 87 20 17 30
30 22 30 -8 -1 -31 -14 -50 -30 -19 -17 -38 -30 -43 -30 -4 0 -25 -12 -45 -27
-20 -15 -39 -28 -41 -30 -5 -3 53 -52 62 -53 5 0 20 -9 34 -20 l26 -20 -66 0
c-53 0 -65 3 -61 14 3 9 -3 17 -15 21 -24 7 -26 19 -10 63 14 40 112 125 127
110 15 -15 36 0 22 17 -14 17 -8 129 9 149 21 26 -12 21 -35 -5 -10 -12 -36
-32 -56 -45 -21 -14 -38 -30 -38 -37 0 -7 17 -21 38 -31 l37 -18 -45 -40 c-25
-22 -54 -44 -65 -49 -11 -5 -27 -13 -35 -19 -8 -5 -28 -15 -43 -20 l-29 -10
31 -29 c17 -16 31 -34 31 -39 0 -6 10 -13 23 -15 12 -2 3 -5 -21 -6 -24 0 -41
3 -37 8 3 5 -5 17 -17 25 -18 13 -22 24 -19 58 1 24 9 46 16 51 28 15 76 60
71 65 -3 3 -12 -1 -20 -7 -12 -11 -20 -8 -41 13 -14 14 -29 26 -33 26 -4 0
-17 8 -30 18 -21 16 -21 19 -7 40 21 29 29 28 42 -5 11 -27 11 -27 12 12 1 34
6 44 30 58 33 19 40 20 59 8 10 -6 3 -18 -27 -49 -23 -23 -41 -45 -41 -49 0
-12 111 -74 124 -70 5 2 -2 14 -16 26 -21 19 -25 28 -18 46 5 13 6 26 3 29 -3
3 0 12 7 21 17 20 1 19 -24 -2 -21 -17 -20 -17 0 7 24 28 21 47 -9 71 -19 16
-20 20 -8 72 7 31 21 68 33 82 11 14 18 28 16 30 -4 5 -152 -94 -156 -104 -1
-4 8 -13 21 -20 20 -11 57 -59 57 -74 0 -3 -7 -8 -16 -11 -9 -4 -29 7 -51 29
l-36 35 18 63 c10 34 22 66 27 72 29 33 -14 24 -52 -12 -14 -12 -45 -37 -69
-54 l-45 -32 25 -20 c13 -11 48 -33 77 -49 57 -33 57 -30 2 -90 -14 -16 -30
-28 -36 -28 -6 0 -16 -6 -22 -13 -10 -12 6 -23 98 -61 8 -4 25 -13 38 -20 22
-13 21 -14 -40 -54 -35 -22 -75 -44 -90 -47 -16 -4 -28 -11 -28 -15 0 -13 26
-30 58 -36 17 -4 36 -12 43 -20 6 -7 16 -11 24 -8 7 3 15 2 18 -3 3 -5 -75 -7
-174 -5 l-179 3 -156 94 c-86 52 -162 96 -167 98 -26 8 56 245 103 302 28 33
31 43 16 58 -11 11 -27 12 -78 5 -35 -5 -81 -11 -103 -13 -22 -2 -44 -4 -50
-5 -5 0 -2 -7 7 -14 10 -7 15 -15 13 -18 -3 -3 1 -11 10 -18 8 -7 15 -27 15
-44 0 -28 -6 -35 -62 -65 -35 -19 -99 -57 -143 -86 -116 -75 -193 -119 -252
-143 -54 -23 -102 -31 -73 -12 22 14 5 23 -20 10 -11 -6 -30 -8 -41 -5 -36 12
-51 -13 -44 -68 9 -62 31 -117 48 -117 31 0 94 52 184 154 23 26 78 71 122 99
44 29 117 77 163 108 137 92 125 92 133 -7 4 -47 5 -87 3 -90 -3 -2 -23 12
-45 31 -45 38 -70 46 -54 18 5 -10 30 -29 55 -43 44 -23 46 -27 46 -67 0 -24
-3 -43 -7 -43 -16 1 -103 71 -103 83 0 19 -168 17 -175 -2 -3 -7 0 -20 6 -27
6 -8 8 -22 4 -31 -3 -10 -8 -79 -11 -153 -2 -74 -10 -154 -16 -176 l-12 -42
-35 13 c-90 33 -167 77 -191 110 -22 31 -43 42 -40 22 0 -4 -6 -20 -14 -35
-29 -51 -65 -152 -54 -152 5 0 39 14 74 31 74 35 83 34 167 -22 32 -22 63 -39
69 -39 6 0 9 -20 6 -50 -1 -28 0 -50 3 -50 6 0 19 28 32 71 4 14 14 15 54 9
27 -5 67 -17 88 -29 22 -11 61 -29 86 -39 41 -18 47 -24 55 -63 9 -43 28 -56
30 -21 1 9 4 24 8 33 4 9 2 35 -3 60 -5 24 -9 45 -8 46 2 1 35 3 74 4 63 2 75
-1 114 -28 65 -44 119 -75 119 -70 0 3 -29 26 -65 52 -36 25 -65 48 -65 51 0
6 951 -4 1126 -12 90 -4 134 -2 139 5 4 8 -20 11 -77 11 -46 1 -155 3 -243 5
-88 2 -263 7 -389 10 -259 6 -235 0 -406 109 -41 26 -122 76 -179 111 l-104
63 64 -5 c35 -3 79 -14 97 -24 17 -10 32 -14 32 -9 0 5 -8 14 -17 19 -15 9
-12 11 17 12 19 1 53 3 75 5 21 2 52 -3 69 -11 37 -19 42 -19 25 1 -12 15 6
16 231 9 135 -5 360 -10 500 -11 140 -2 265 -5 277 -6 41 -4 68 -178 48 -309
-11 -77 -13 -104 -8 -121 6 -23 35 -23 32 -1 -2 10 3 65 10 122 8 57 11 133 8
169 -6 57 -3 71 19 116 14 28 43 74 65 103 21 29 39 57 39 63 0 23 -240 5
-248 -19 -3 -10 1 -12 17 -8 11 3 19 1 16 -4 -3 -4 4 -26 15 -49 l20 -40 -33
0 c-18 0 -38 5 -44 11 -7 7 -20 8 -30 5 -10 -4 -89 -9 -176 -10 -157 -2 -159
-2 -178 22 -10 14 -19 28 -19 32 0 13 44 -2 53 -17 9 -14 37 -18 37 -5 0 4 -6
16 -14 27 -12 18 -10 25 28 69 l42 48 -4 -81 c-3 -67 -1 -81 11 -81 11 0 20
34 37 143 22 137 24 144 67 204 25 35 49 66 55 69 11 7 6 -119 -6 -146 -30
-72 -43 -224 -21 -260 12 -19 35 14 28 40 -5 18 20 146 47 251 6 20 10 51 10
68 0 36 20 81 57 126 98 121 98 128 -2 116 -33 -4 -72 -4 -85 0 -34 9 -75 11
-83 2z m183 -41 c0 -6 -42 -64 -57 -80 -17 -17 -32 -7 -26 17 3 10 0 28 -6 39
-9 17 -8 21 7 24 26 5 82 5 82 0z m-1292 -49 c-2 -5 -16 -35 -31 -68 -42 -90
-61 -125 -66 -119 -9 9 0 78 12 93 10 12 9 14 -5 9 -12 -5 -19 3 -30 37 l-15
44 31 4 c58 7 108 7 104 0z m537 -42 c-7 -35 -12 -37 -40 -15 -12 10 -15 18
-9 21 6 2 20 10 30 18 24 17 27 13 19 -24z m131 17 c-15 -50 -16 -51 -32 -37
-14 12 -14 15 6 31 26 21 31 22 26 6z m474 -55 c-1 -5 -16 -26 -34 -47 l-34
-39 2 39 c0 21 6 42 11 46 13 10 55 10 55 1z m-324 -181 c-4 -3 -12 0 -19 7
-9 9 -9 14 3 21 11 7 16 5 18 -6 2 -9 1 -18 -2 -22z m-136 12 c0 -8 -5 -12
-10 -9 -6 4 -8 11 -5 16 9 14 15 11 15 -7z m-1010 -115 c-12 -21 -37 -35 -46
-26 -14 14 9 47 32 47 22 0 23 -2 14 -21z m130 -26 c66 -45 70 -50 70 -86 l0
-37 -40 25 c-22 14 -42 25 -46 25 -3 0 -30 14 -59 32 l-54 32 17 28 c9 15 22
28 29 28 7 0 44 -21 83 -47z m143 26 c75 -39 257 -153 257 -160 0 -6 -35 -8
-83 -6 -78 4 -87 7 -144 46 -68 46 -72 53 -66 99 6 36 6 36 36 21z m-564 -66
c-14 -21 -60 -60 -83 -69 -13 -5 -16 1 -16 28 0 34 2 36 53 50 28 8 53 13 55
12 2 -1 -2 -10 -9 -21z m261 19 c0 -5 -7 -17 -16 -28 -14 -17 -15 -17 -10 -1
3 10 6 23 6 28 0 5 5 9 10 9 6 0 10 -4 10 -8z m98 -48 c132 -72 128 -68 124
-114 -5 -49 -4 -50 -116 24 -101 66 -111 78 -96 105 6 12 13 21 16 21 3 0 36
-16 72 -36z m825 29 c3 -5 0 -19 -5 -33 -6 -15 -12 -20 -15 -12 -3 6 -11 12
-19 12 -19 0 -18 10 4 26 20 15 29 17 35 7z m117 -19 c0 -8 -5 -12 -10 -9 -6
4 -8 11 -5 16 9 14 15 11 15 -7z m140 -5 c0 -18 -2 -19 -15 -9 -15 12 -12 30
6 30 5 0 9 -10 9 -21z m593 -57 c-24 -37 -43 -70 -43 -75 0 -4 -4 -6 -9 -3 -5
3 -7 15 -4 26 3 11 -4 38 -16 60 -12 23 -19 46 -15 51 3 5 34 9 68 8 l62 -2
-43 -65z m-1450 13 c20 -14 37 -27 37 -30 0 -5 -56 2 -81 10 -21 7 -26 45 -6
45 7 0 29 -11 50 -25z m-281 -34 c100 -66 125 -81 134 -81 22 0 46 -38 39 -61
-5 -16 -4 -19 5 -14 9 5 11 4 6 -3 -11 -18 -18 -15 -98 31 -40 24 -91 50 -113
59 -25 10 -40 22 -39 32 4 79 4 79 66 37z m373 -113 c77 -47 176 -106 220
-132 l80 -47 -85 3 c-47 2 -94 7 -105 12 -16 6 -17 6 -5 -3 11 -8 -5 -11 -65
-11 -78 0 -82 1 -142 42 -55 38 -63 47 -63 75 0 41 8 45 45 22 17 -10 37 -22
45 -26 8 -4 41 -22 73 -41 106 -62 68 -28 -49 43 -95 58 -113 73 -109 90 3 11
5 30 5 43 0 13 3 21 8 19 4 -2 70 -42 147 -89z m-378 12 c24 -10 74 -39 112
-63 l68 -45 -5 -73 c-2 -41 -6 -76 -8 -78 -2 -2 -22 11 -46 28 -23 17 -51 31
-61 31 -11 0 -50 17 -88 38 -58 31 -69 40 -64 57 3 11 11 44 17 73 7 28 17 52
23 52 5 0 29 -9 52 -20z m-364 -37 c-19 -7 -3 -33 20 -33 21 0 21 0 2 -14 -24
-15 -79 -30 -72 -19 2 4 12 25 22 45 10 22 22 35 28 31 8 -5 8 -8 0 -10z m667
-155 c0 -11 -48 -10 -55 2 -3 5 -12 7 -20 3 -11 -4 -15 3 -15 26 l0 31 45 -28
c25 -15 45 -30 45 -34z"/>
<path d="M1715 1180 c-28 -22 -58 -40 -67 -40 -10 0 -18 -4 -18 -10 0 -13 140
-93 148 -85 4 4 -1 13 -12 20 -10 8 -22 33 -26 57 -7 36 -5 46 12 65 36 38 15
34 -37 -7z m-2 -60 c4 -17 2 -18 -14 -9 -22 11 -25 29 -5 29 7 0 16 -9 19 -20z"/>
<path d="M1822 1173 l-52 -36 31 -19 c17 -10 40 -30 52 -43 16 -18 26 -22 37
-16 12 8 12 13 -4 30 -15 16 -18 31 -14 71 3 27 5 50 4 49 -1 0 -25 -16 -54
-36z"/>
<path d="M1872 985 c-29 -30 -58 -55 -63 -55 -5 0 -9 -7 -9 -15 0 -8 4 -15 9
-15 4 0 28 -16 53 -35 47 -35 65 -37 47 -4 -14 27 0 119 23 152 34 48 -3 31
-60 -28z m3 -74 c-5 -16 -9 -18 -19 -8 -11 10 -10 14 3 24 20 14 25 10 16 -16z"/>
<path d="M1894 725 c-3 -8 -3 -19 1 -25 11 -18 25 -11 25 15 0 27 -17 34 -26
10z"/>
</g>
</svg>
