<?xml version="1.0" standalone="no"?>
<!DOCTYPE svg PUBLIC "-//W3C//DTD SVG 20010904//EN"
 "http://www.w3.org/TR/2001/REC-SVG-20010904/DTD/svg10.dtd">
<svg version="1.0" xmlns="http://www.w3.org/2000/svg"
 width="328.000000pt" height="178.000000pt" viewBox="0 0 328.000000 178.000000"
 preserveAspectRatio="xMidYMid meet">
<metadata>
Created by potrace 1.16, written by Peter Selinger 2001-2019
</metadata>
<g transform="translate(0.000000,178.000000) scale(0.100000,-0.100000)"
fill="#000000" stroke="none">
<path d="M801 1492 c-185 -187 -309 -301 -366 -337 -16 -11 -45 -32 -64 -48
-18 -15 -57 -39 -86 -53 -30 -13 -56 -28 -59 -33 -8 -12 59 -63 132 -101 58
-30 86 -64 43 -53 -17 4 -19 1 -14 -34 5 -35 2 -42 -32 -72 -36 -31 -36 -33
-19 -52 9 -10 23 -19 30 -19 7 0 49 -23 94 -50 45 -28 107 -62 136 -76 31 -15
105 -70 172 -130 64 -57 141 -116 170 -130 61 -29 76 -28 31 1 -20 14 -27 25
-22 35 5 8 7 51 5 95 -1 44 2 132 8 195 5 63 12 146 16 183 l6 68 31 -25 c90
-72 150 -116 160 -116 7 0 -4 14 -23 31 -103 89 -160 143 -160 150 0 5 45 9
99 9 102 0 135 5 125 21 -3 5 -54 9 -115 9 -102 0 -108 1 -98 18 6 9 29 29 50
44 21 15 64 60 96 100 32 40 75 90 96 110 44 44 48 57 10 33 -30 -19 -70 -61
-130 -136 -50 -60 -117 -113 -121 -94 -6 25 27 189 49 245 11 30 28 73 37 95
9 22 25 50 36 62 10 13 16 26 12 30 -4 4 -53 9 -109 10 -119 3 -129 -3 -117
-70 4 -23 10 -130 11 -237 4 -190 3 -195 -16 -193 -11 1 -24 9 -30 19 -5 10
-24 34 -41 53 -60 69 -69 105 -36 143 13 16 12 18 -11 29 -28 13 -57 0 -57
-26 0 -7 -22 -32 -50 -55 -27 -23 -50 -46 -50 -51 0 -5 17 -16 37 -24 21 -9
40 -20 43 -25 3 -5 30 -21 60 -35 l55 -26 -55 5 c-134 15 -155 18 -173 28 -40
21 -47 5 -47 -111 0 -65 4 -112 10 -116 6 -4 41 19 78 51 37 31 85 65 107 75
41 19 139 26 133 10 -7 -18 -206 -161 -251 -180 -26 -11 -47 -27 -47 -34 0
-13 70 -67 86 -67 3 0 25 -14 48 -30 27 -19 49 -28 59 -24 19 7 22 20 7 29
-20 12 -9 68 25 134 42 77 101 161 115 161 14 0 13 -149 -1 -285 -12 -113 -13
-195 -2 -230 6 -20 5 -20 -16 -1 -12 11 -21 24 -20 30 4 30 -2 38 -22 33 -29
-8 -102 31 -158 82 -24 23 -47 41 -52 41 -5 0 -15 16 -23 35 -8 19 -19 35 -24
35 -17 0 -142 136 -142 154 1 28 67 190 106 256 8 14 31 56 52 93 100 184 241
373 389 521 3 3 0 6 -7 6 -7 0 -97 -85 -199 -188z m276 -69 c-3 -10 -21 -56
-41 -103 -20 -47 -42 -111 -48 -142 -7 -32 -15 -58 -19 -58 -9 0 -16 64 -24
207 l-5 102 32 4 c18 2 50 5 72 5 32 2 37 -1 33 -15z m-424 -160 c-20 -32 -67
-104 -105 -160 -37 -56 -68 -106 -68 -110 -1 -4 -10 -19 -21 -32 -20 -24 -20
-24 -42 -4 -12 10 -42 32 -66 47 l-43 28 83 55 c83 55 153 108 185 141 15 15
105 89 111 91 2 1 -14 -25 -34 -56z m117 -179 c0 -5 13 -23 30 -39 16 -16 28
-30 26 -32 -6 -6 -92 46 -111 67 -17 19 -17 21 0 41 l19 20 18 -23 c10 -13 18
-28 18 -34z m-52 -139 c5 -4 -109 -95 -119 -95 -5 0 -9 24 -9 54 l0 54 63 -5
c34 -3 63 -7 65 -8z m57 -187 c-21 -35 -40 -65 -42 -67 -2 -3 -20 3 -39 13
l-37 17 47 30 c26 16 59 40 74 54 14 13 28 22 31 20 2 -3 -13 -33 -34 -67z
m-313 -16 c15 -15 40 -42 54 -59 14 -18 31 -33 37 -33 16 0 47 -31 47 -47 0
-11 -10 -9 -39 9 -22 13 -69 40 -105 61 -36 21 -66 43 -66 48 0 9 31 47 40 48
3 1 17 -11 32 -27z"/>
<path d="M1498 1519 c-9 -5 -52 -8 -95 -6 -43 2 -84 2 -90 -1 -15 -5 -18 -52
-4 -52 5 0 9 -89 9 -197 0 -109 3 -241 5 -293 3 -52 1 -122 -3 -155 -5 -33
-11 -150 -14 -259 -3 -110 -11 -233 -18 -274 -17 -100 -3 -108 69 -42 36 33
66 51 91 56 20 3 47 12 59 20 12 8 32 14 44 14 11 0 49 7 82 16 34 9 92 19
129 23 62 6 68 5 68 -11 0 -10 7 -18 15 -18 8 0 15 9 15 20 0 15 7 20 25 20
19 0 25 -5 25 -21 0 -18 2 -19 15 -9 8 7 13 16 10 20 -6 9 19 20 46 20 10 0
19 -7 19 -15 0 -19 17 -19 27 0 5 8 24 18 42 21 l33 7 -3 -74 c-5 -94 13 -104
24 -12 4 37 11 71 16 76 12 12 315 27 426 21 50 -3 122 -9 160 -14 142 -19
205 -20 205 -5 0 8 -13 16 -32 19 -134 21 -267 28 -483 27 -137 0 -256 3 -264
8 -12 8 -12 22 -1 92 22 141 -25 126 372 123 188 -1 354 -2 368 -3 37 -1 50
-40 46 -146 -3 -88 7 -135 28 -135 7 0 12 45 13 133 3 191 21 448 39 552 44
255 66 322 127 377 27 24 38 41 34 52 -6 15 -10 15 -43 1 -20 -8 -68 -15 -108
-16 -39 0 -102 -3 -140 -8 -48 -5 -84 -3 -120 6 -61 16 -154 18 -216 5 -74
-17 -244 -23 -338 -13 -48 6 -145 12 -217 15 -215 9 -433 26 -458 35 -13 5
-30 5 -39 0z m124 -48 c17 -15 -13 -33 -68 -40 -32 -5 -61 -7 -63 -5 -3 2 8
17 23 33 24 25 34 29 65 24 20 -3 39 -8 43 -12z m-153 -26 c-12 -19 -25 -35
-29 -35 -4 0 -11 -11 -14 -25 -4 -14 -17 -49 -31 -78 -13 -28 -26 -63 -28 -77
-4 -21 -4 -20 -6 7 0 17 -5 34 -10 37 -5 4 -5 24 1 48 5 24 8 69 5 101 l-5 57
69 0 68 0 -20 -35z m261 21 c0 -2 -3 -11 -6 -20 -10 -27 -84 -18 -84 10 0 10
13 14 45 14 25 0 45 -2 45 -4z m98 -15 c-4 -21 -88 -29 -88 -8 0 22 11 28 52
25 29 -1 38 -6 36 -17z m92 -1 c0 -5 -3 -10 -7 -11 -5 0 -20 -3 -35 -5 -21 -3
-28 -1 -28 11 0 11 10 15 35 15 19 0 35 -4 35 -10z m218 -4 c3 -3 -19 -6 -49
-7 -30 0 -72 -2 -94 -3 -44 -4 -58 0 -49 15 6 11 181 6 192 -5z m471 10 c-2
-2 -40 -7 -84 -10 -56 -5 -76 -4 -65 3 13 10 159 16 149 7z m489 -15 c-39 -77
-72 -159 -85 -209 -9 -34 -18 -61 -20 -58 -6 6 -4 256 2 266 6 9 107 10 103 1z
m-248 -12 c36 1 76 2 89 3 24 3 24 2 22 -72 -1 -41 -4 -89 -7 -106 l-6 -31
-96 -8 c-112 -10 -156 -10 -384 -7 -150 2 -168 4 -168 19 0 22 66 157 85 173
20 17 149 17 217 0 32 -8 60 -11 64 -7 12 12 -3 19 -53 26 l-48 6 70 5 c39 3
88 3 110 2 22 -2 69 -4 105 -3z m-1142 -34 c2 -2 1 -33 -3 -69 l-7 -66 -39 0
-39 0 1 68 c1 37 3 70 5 73 4 6 75 1 82 -6z m261 -42 c-4 -32 -8 -70 -8 -85
-1 -23 -5 -28 -27 -28 l-27 0 5 73 c5 85 11 97 42 97 21 0 22 -2 15 -57z m121
42 c27 -14 35 -26 31 -48 -1 -4 -2 -32 -2 -62 l-2 -55 -34 0 -34 0 1 48 c3 77
0 103 -9 98 -4 -3 -11 -36 -15 -74 -6 -59 -9 -68 -27 -68 -19 0 -20 4 -14 71
4 38 9 78 11 88 7 22 54 23 94 2z m234 -37 c-19 -29 -44 -72 -55 -95 -19 -41
-21 -43 -65 -43 l-45 0 3 88 3 87 50 6 c28 3 71 7 98 7 l47 2 -36 -52z m-836
-29 c-9 -54 -12 -57 -41 -62 -18 -2 -33 -3 -35 -2 -2 2 9 29 23 62 43 94 70
95 53 2z m106 4 c-4 -38 -7 -68 -8 -69 0 -1 -18 1 -40 4 l-39 4 6 54 c7 68 11
74 53 74 l35 0 -7 -67z m222 15 c-3 -29 -6 -63 -6 -75 0 -20 -5 -23 -39 -23
-22 0 -42 3 -44 8 -2 4 -2 37 1 75 l4 67 46 0 45 0 -7 -52z m81 -5 c-6 -73
-14 -93 -38 -93 -17 0 -19 8 -19 59 0 75 6 91 37 91 24 0 24 -2 20 -57z m-429
-185 l-3 -73 -39 2 c-22 2 -41 5 -43 7 -2 2 2 33 8 70 12 66 13 66 46 66 l34
0 -3 -72z m106 62 c23 -8 26 -15 26 -59 0 -73 -5 -81 -55 -81 -50 0 -52 4 -47
88 3 57 6 62 27 62 13 0 35 -4 49 -10z m114 -9 c9 -5 12 -26 10 -67 l-3 -59
-38 -3 -38 -3 3 63 c2 35 8 66 13 70 13 10 37 10 53 -1z m120 -74 l3 -68 -38
3 c-21 2 -40 6 -43 9 -3 4 -3 35 -2 69 l4 61 36 -3 37 -3 3 -68z m67 62 c4 -5
4 -37 0 -70 -6 -47 -11 -59 -24 -59 -15 0 -17 8 -14 58 3 31 6 63 8 70 5 15
21 16 30 1z m72 -61 c-3 -35 -6 -64 -7 -65 0 -2 -9 -3 -20 -3 -18 0 -20 7 -20
58 0 64 4 72 33 72 18 0 19 -5 14 -62z m69 31 c-3 -17 -6 -49 -6 -69 0 -33 -3
-37 -20 -33 -17 5 -20 12 -16 52 2 25 4 54 5 64 1 10 9 17 22 17 19 0 21 -4
15 -31z m104 -23 c0 -65 -7 -76 -46 -76 -31 0 -34 3 -34 29 0 16 3 43 6 60 6
27 10 31 40 31 33 0 34 -1 34 -44z m103 -3 c-8 -21 -19 -48 -24 -60 -5 -14
-14 -20 -23 -17 -16 6 -29 44 -15 44 5 0 9 16 9 35 0 33 2 35 34 35 l35 0 -16
-37z m467 26 c30 0 92 3 138 6 67 6 87 4 107 -9 24 -15 25 -22 25 -104 0 -74
-14 -187 -34 -282 -2 -14 -7 -37 -10 -52 -5 -20 -10 -25 -26 -21 -10 3 -49 0
-86 -6 -77 -14 -398 -22 -529 -14 l-91 6 -1 59 c-1 32 2 70 7 84 l9 24 330 -5
c277 -4 331 -2 341 10 22 27 1 32 -81 19 -60 -10 -152 -12 -333 -8 -138 3
-252 7 -255 9 -7 8 29 139 42 150 8 8 62 8 182 2 189 -11 258 -12 325 -7 25 2
73 0 108 -4 54 -8 62 -7 62 8 0 27 -48 38 -135 31 -147 -12 -501 -10 -523 4
-8 5 -7 21 5 60 l17 53 176 -7 c96 -3 200 -6 230 -6z m-1236 -115 c28 -11 17
-151 -11 -148 -7 1 -26 2 -42 3 l-28 1 -2 75 -2 75 35 0 c19 0 41 -3 50 -6z
m136 -49 c0 -23 -3 -57 -6 -74 -6 -29 -9 -31 -50 -31 -49 0 -49 0 -38 97 6 49
8 52 38 55 49 5 56 -1 56 -47z m106 -7 c-2 -29 -4 -63 -5 -75 -1 -20 -6 -23
-42 -23 l-40 0 5 73 c3 39 5 73 6 75 0 1 18 2 40 2 l40 0 -4 -52z m97 47 c11
-5 13 -21 10 -68 -5 -82 -6 -83 -47 -85 l-36 -1 0 73 c0 40 3 76 7 79 8 8 46
9 66 2z m319 -19 c4 -6 8 -39 8 -73 l0 -63 -40 0 c-25 0 -40 5 -41 13 -9 125
-3 147 38 139 15 -3 31 -10 35 -16z m78 17 c0 -5 -5 -15 -10 -23 -8 -12 -10
-11 -10 8 0 12 5 22 10 22 6 0 10 -3 10 -7z m-320 -32 c0 -62 -13 -121 -26
-121 -11 0 -14 18 -14 75 0 68 2 75 20 75 15 0 20 -7 20 -29z m66 -23 c-3 -29
-6 -63 -6 -75 0 -16 -6 -23 -20 -23 -18 0 -20 7 -20 68 0 74 3 82 33 82 18 0
19 -5 13 -52z m70 -10 c-2 -35 -5 -69 -5 -75 -1 -7 -10 -13 -21 -13 -22 0 -25
21 -14 104 5 37 11 46 26 46 18 0 19 -6 14 -62z m-550 -148 c3 -88 -4 -106
-45 -116 -47 -12 -47 -30 2 -26 l37 4 0 -64 c0 -102 -9 -138 -34 -138 -11 1
-32 9 -45 20 -23 20 -23 21 -18 172 7 197 8 200 61 196 l41 -3 1 -45z m124 16
c0 -11 -3 -45 -6 -73 l-7 -53 -43 0 -44 0 0 49 c0 27 3 61 6 77 5 27 8 29 50
26 37 -3 44 -7 44 -26z m102 17 c2 -5 0 -41 -5 -80 -9 -71 -10 -73 -37 -73
-16 0 -32 5 -36 12 -8 12 -6 127 2 140 7 10 72 10 76 1z m112 -10 c3 -10 2
-45 -2 -78 l-7 -60 -44 -3 -44 -3 7 72 c3 39 9 75 12 80 3 5 20 9 39 9 23 0
35 -5 39 -17z m132 -66 c-8 -82 -10 -87 -36 -80 -18 5 -19 11 -14 62 9 94 11
100 35 94 20 -6 21 -10 15 -76z m198 74 c5 0 4 -7 -3 -14 -6 -8 -7 -17 -2 -23
5 -5 11 -34 13 -64 l3 -55 -50 0 -50 0 -3 69 c-2 38 -1 74 1 80 4 9 55 13 91
7z m-268 -47 c-3 -26 -6 -60 -6 -75 0 -23 -5 -29 -21 -29 -15 0 -19 4 -15 16
3 9 6 42 6 75 0 54 2 59 21 59 20 0 21 -4 15 -46z m144 -35 c0 -70 -2 -80 -16
-75 -9 3 -19 6 -24 6 -6 0 -7 57 -1 138 1 6 10 12 21 12 18 0 20 -7 20 -81z
m-439 -201 c-2 -105 6 -135 31 -110 8 8 7 24 -2 56 -8 28 -10 66 -6 100 6 45
11 55 29 58 54 10 56 6 50 -110 -3 -59 -9 -111 -14 -116 -9 -10 -148 1 -168
14 -10 6 -13 31 -12 91 3 125 5 131 54 127 l40 -3 -2 -107z m212 -5 c-3 -61
-11 -111 -17 -116 -6 -4 -24 -6 -41 -5 -33 3 -30 -16 -26 168 l1 60 44 0 45 0
-6 -107z m68 -3 c-2 -107 -8 -127 -35 -117 -12 5 -14 20 -11 79 7 116 15 150
32 146 13 -2 15 -20 14 -108z m79 72 c0 -22 -3 -73 -6 -115 -7 -74 -8 -77 -32
-77 -24 0 -25 1 -18 61 3 34 6 86 6 115 0 51 1 54 25 54 22 0 25 -4 25 -38z
m76 26 c4 -6 7 -41 6 -77 -1 -141 1 -131 -32 -131 -29 0 -30 1 -30 49 0 26 3
76 6 110 6 50 10 61 25 61 10 0 21 -5 25 -12z m133 -20 c0 -13 -6 -61 -12
-108 l-12 -85 -35 0 -35 0 0 95 c0 52 1 101 3 108 3 7 22 12 48 12 39 0 44 -2
43 -22z m-701 -220 c9 -37 27 -47 35 -19 4 18 11 19 93 14 150 -9 142 -29 -30
-74 -65 -16 -135 -41 -157 -55 -48 -30 -50 -30 -39 4 11 30 18 81 19 130 1 30
3 32 36 32 30 0 35 -4 43 -32z m571 -2 c-12 -10 -59 -15 -59 -6 0 5 14 10 32
10 17 0 29 -2 27 -4z m-234 -16 c3 -5 2 -10 -3 -10 -5 0 -24 -3 -41 -6 -24 -5
-31 -3 -31 10 0 12 9 16 34 16 19 0 38 -4 41 -10z m62 4 c-3 -3 -12 -4 -19 -1
-8 3 -5 6 6 6 11 1 17 -2 13 -5z m76 -1 c-7 -2 -21 -2 -30 0 -10 3 -4 5 12 5
17 0 24 -2 18 -5z"/>
</g>
</svg>
