<?xml version="1.0" standalone="no"?>
<!DOCTYPE svg PUBLIC "-//W3C//DTD SVG 20010904//EN"
 "http://www.w3.org/TR/2001/REC-SVG-20010904/DTD/svg10.dtd">
<svg version="1.0" xmlns="http://www.w3.org/2000/svg"
 width="256.000000pt" height="148.000000pt" viewBox="0 0 256.000000 148.000000"
 preserveAspectRatio="xMidYMid meet">
<metadata>
Created by potrace 1.16, written by Peter Selinger 2001-2019
</metadata>
<g transform="translate(0.000000,148.000000) scale(0.100000,-0.100000)"
fill="#000000" stroke="none">
<path d="M1856 1327 c-8 -12 -20 -35 -28 -51 l-15 -29 -114 0 c-63 0 -120 -4
-126 -10 -16 -12 -17 -59 -2 -74 9 -9 47 -144 49 -173 0 -6 -208 -13 -400 -14
-168 0 -299 24 -308 56 -4 18 -28 24 -48 10 -20 -13 -26 -102 -13 -184 11 -69
15 -78 34 -78 11 0 29 6 40 14 52 35 166 87 213 96 53 10 153 20 248 25 27 1
61 8 74 15 13 7 56 15 96 17 l73 5 8 -28 c9 -36 10 -149 2 -229 l-6 -60 -59 2
c-240 7 -320 13 -362 27 -26 8 -72 17 -102 20 -107 10 -165 18 -182 27 -14 7
-21 3 -33 -21 -12 -24 -15 -57 -13 -153 3 -113 4 -122 23 -125 12 -1 36 12 59
32 56 51 180 93 313 106 59 6 122 13 138 17 30 7 46 8 161 19 l60 6 -3 -92
c-1 -51 -7 -98 -13 -105 -13 -15 -8 -21 63 -66 26 -17 52 -40 58 -50 5 -11 20
-19 34 -19 19 0 25 5 25 23 0 14 18 42 43 68 23 25 62 69 87 99 65 80 211 241
239 265 36 29 142 85 163 85 21 0 22 8 8 44 -5 15 -17 26 -28 26 -24 0 -56 35
-49 54 4 10 -10 25 -41 45 -26 17 -99 85 -162 152 -130 138 -143 154 -146 183
-1 12 -3 24 -3 27 -1 4 -10 9 -21 12 -14 4 -25 -2 -34 -16z m105 -163 c102
-104 101 -102 64 -77 -16 11 -59 36 -95 56 -98 55 -93 50 -79 80 7 15 15 27
19 27 4 0 45 -39 91 -86z m-221 39 c0 -9 -32 -134 -50 -200 -21 -72 -31 -55
-60 92 -7 33 -16 68 -22 78 -5 9 -6 22 -3 27 7 12 135 14 135 3z m170 -81 c36
-20 83 -47 105 -61 22 -15 52 -33 67 -40 45 -23 137 -104 159 -141 12 -19 28
-40 37 -46 13 -9 10 -13 -18 -22 -18 -7 -65 -36 -104 -65 -208 -156 -444 -316
-469 -317 -8 0 -2 282 8 410 3 36 22 124 43 196 l37 132 35 -6 c19 -3 64 -21
100 -40z m-855 -183 l40 -11 -45 -15 c-25 -9 -47 -19 -50 -24 -3 -4 -22 -15
-42 -23 -42 -18 -48 -12 -48 56 l0 41 53 -7 c28 -3 70 -11 92 -17z m-48 -280
c15 -6 46 -13 68 -15 42 -5 78 -14 160 -38 47 -14 48 -15 16 -15 -40 -1 -232
-64 -278 -91 -18 -10 -34 -16 -37 -12 -2 4 -4 38 -5 75 -1 37 -2 71 -2 75 -5
34 24 42 78 21z m1042 -36 c-8 -10 -29 -34 -48 -53 -18 -19 -56 -61 -83 -93
-26 -32 -72 -81 -100 -108 l-52 -49 -31 30 c-17 16 -36 30 -43 30 -23 0 -12
15 26 36 98 55 137 78 142 83 12 14 109 91 115 91 4 0 20 11 37 25 34 29 57
34 37 8z"/>
<path d="M626 1205 c-16 -12 -17 -18 -8 -27 20 -20 14 -52 -19 -114 -18 -33
-42 -79 -53 -102 -19 -39 -24 -42 -35 -28 -21 25 -33 20 -86 -41 -64 -74 -96
-104 -172 -165 -35 -27 -63 -56 -63 -63 0 -19 40 -41 126 -71 85 -30 286 -131
321 -162 13 -11 38 -29 56 -41 18 -11 42 -29 52 -41 10 -11 27 -20 38 -20 10
0 31 -8 45 -19 42 -29 100 -47 113 -34 12 12 -12 31 -114 94 -43 27 -54 38
-42 43 15 5 14 10 -7 35 -54 68 -111 154 -145 218 -78 148 -93 179 -93 196 0
22 27 77 38 77 11 0 222 207 222 217 0 7 -136 64 -150 63 -3 0 -14 -7 -24 -15z
m92 -75 c-7 -16 -118 -133 -118 -123 0 5 8 17 18 26 10 10 29 39 41 66 18 38
27 47 43 43 10 -2 18 -8 16 -12z m-219 -343 c79 -163 120 -229 201 -320 24
-28 28 -37 14 -29 -11 6 -27 18 -34 27 -8 9 -41 30 -74 47 -34 17 -79 43 -102
59 -48 33 -139 75 -206 95 -27 8 -48 18 -48 23 0 4 26 28 57 53 32 24 76 65
98 90 22 26 42 46 45 47 3 0 25 -41 49 -92z"/>
</g>
</svg>
