<?xml version="1.0" standalone="no"?>
<!DOCTYPE svg PUBLIC "-//W3C//DTD SVG 20010904//EN"
 "http://www.w3.org/TR/2001/REC-SVG-20010904/DTD/svg10.dtd">
<svg version="1.0" xmlns="http://www.w3.org/2000/svg"
 width="350.000000pt" height="244.000000pt" viewBox="0 0 350.000000 244.000000"
 preserveAspectRatio="xMidYMid meet">
<metadata>
Created by potrace 1.16, written by Peter Selinger 2001-2019
</metadata>
<g transform="translate(0.000000,244.000000) scale(0.100000,-0.100000)"
fill="#000000" stroke="none">
<path d="M1108 2250 c-9 -6 -31 -34 -48 -63 -18 -28 -52 -73 -76 -99 -49 -52
-54 -67 -24 -75 20 -5 27 -18 12 -25 -9 -4 -154 -174 -230 -268 -52 -65 -168
-171 -245 -223 -23 -15 -68 -36 -99 -45 -34 -10 -58 -23 -58 -31 0 -20 79 -89
128 -112 50 -24 54 -45 17 -93 -14 -18 -25 -40 -25 -48 0 -20 31 -33 41 -17 5
8 15 9 35 1 l29 -10 -35 -3 c-19 -1 -44 -3 -55 -4 -11 0 -23 4 -27 10 -5 7
-14 6 -28 -2 -11 -7 -30 -13 -42 -13 -58 -1 -61 -39 -3 -43 37 -3 50 -43 34
-110 -7 -28 -8 -78 -4 -125 5 -68 3 -86 -20 -156 -37 -108 -40 -217 -8 -262
13 -18 32 -52 43 -78 11 -27 26 -46 35 -46 21 0 142 65 227 121 36 24 79 52
95 61 15 10 49 31 74 47 42 26 203 81 240 81 8 0 24 7 35 15 15 12 16 16 5 24
-9 6 3 12 40 20 83 19 139 41 139 56 0 8 8 18 17 24 14 7 15 12 5 24 -11 13
-7 15 30 10 24 -3 51 -10 60 -14 9 -5 25 -9 36 -9 11 0 22 -9 25 -20 6 -22 28
-26 57 -10 16 9 18 18 13 59 -6 53 -5 55 84 241 35 72 74 137 107 175 29 33
85 104 125 158 40 53 73 97 74 97 1 0 2 -17 2 -37 0 -49 26 -54 92 -17 26 14
113 49 193 76 121 41 164 51 260 59 63 6 174 20 245 31 72 12 148 21 170 21
22 0 102 6 177 14 75 7 180 11 235 8 102 -5 130 2 120 29 -7 17 -12 18 -532
21 -132 1 -278 5 -325 10 -47 4 -98 9 -115 10 -194 13 -329 43 -412 91 -70 41
-85 31 -98 -63 -7 -54 -21 -66 -44 -39 -6 7 -53 39 -104 70 -107 66 -217 143
-255 178 -15 14 -49 42 -77 63 -27 21 -81 67 -119 102 -38 35 -82 71 -97 78
-14 8 -36 30 -47 50 -18 29 -27 35 -54 35 -18 0 -40 -5 -50 -10z m215 -183
c60 -50 70 -75 19 -48 -21 12 -156 41 -188 41 -15 0 -24 6 -24 15 0 8 5 15 10
15 6 0 10 9 10 20 0 30 -22 24 -60 -15 -30 -31 -68 -49 -58 -27 14 30 68 110
91 134 l27 30 53 -54 c28 -29 83 -79 120 -111z m-101 -57 c24 -5 63 -15 88
-21 25 -6 66 -14 92 -16 36 -4 58 -14 90 -41 24 -21 57 -46 73 -58 17 -11 68
-47 114 -79 47 -32 108 -72 136 -89 110 -66 134 -88 135 -126 0 -39 -12 -59
-118 -198 -192 -254 -444 -512 -499 -512 -8 0 -28 9 -43 20 l-29 21 0 144 c1
80 5 147 10 151 5 3 9 15 9 27 0 28 107 275 160 368 11 20 31 42 45 49 28 15
40 39 26 53 -8 8 -84 1 -287 -29 -43 -6 -59 -26 -47 -61 5 -16 10 -68 11 -118
1 -49 7 -188 14 -308 7 -135 8 -221 2 -227 -15 -15 -179 75 -261 143 -40 33
-73 62 -73 66 0 3 -13 13 -28 22 -16 9 -51 49 -78 90 -27 40 -57 82 -66 91
-23 23 -23 37 4 65 16 17 19 26 10 35 -8 8 -18 6 -38 -7 l-28 -18 29 49 c56
96 95 153 113 166 11 7 36 40 57 73 21 33 57 80 81 105 61 65 144 164 144 173
0 10 102 9 152 -3z m853 -300 c72 -33 161 -49 335 -60 91 -5 190 -13 220 -17
l55 -7 -70 -7 c-194 -20 -267 -31 -340 -53 -130 -39 -141 -40 -178 -17 -18 11
-41 29 -51 40 -17 18 -17 21 0 45 19 30 12 45 -11 26 -9 -7 -17 -11 -20 -8 -5
5 6 78 12 78 2 0 24 -9 48 -20z m-684 -92 c-5 -13 -22 -48 -38 -78 -42 -80
-83 -177 -84 -197 -3 -45 -17 55 -18 129 -1 46 -4 97 -7 114 l-6 31 59 10 c97
17 104 16 94 -9z m677 -101 c9 -11 4 -17 -24 -31 -33 -15 -36 -15 -30 -1 3 9
6 28 6 41 0 21 3 23 18 15 10 -5 24 -16 30 -24z m-1476 -56 c-63 -116 -63
-116 -97 -98 -17 8 -38 24 -48 35 -19 20 -18 21 25 41 25 11 69 36 99 56 29
19 55 35 56 35 1 0 -14 -31 -35 -69z m123 -212 c24 -36 66 -83 92 -103 44 -35
46 -37 18 -31 -16 4 -50 16 -74 26 -24 11 -51 19 -60 19 -8 0 -46 12 -83 26
l-67 25 47 74 47 75 18 -23 c9 -12 37 -52 62 -88z m170 -213 c17 -8 69 -32
117 -54 48 -23 107 -53 130 -69 64 -43 80 -52 111 -64 36 -15 34 -24 -10 -52
-36 -22 -83 -45 -343 -169 -142 -68 -212 -82 -367 -73 -121 8 -139 18 -98 54
14 11 27 31 29 43 27 136 58 245 76 262 11 12 43 56 71 98 27 43 57 81 65 86
14 8 152 -32 219 -62z m-335 37 c0 -15 -58 -141 -70 -153 -3 -3 -11 -16 -17
-30 -9 -20 -11 -4 -10 88 l1 112 48 0 c38 0 48 -3 48 -17z m41 -6 c-10 -9 -11
-8 -5 6 3 10 9 15 12 12 3 -3 0 -11 -7 -18z m966 -94 c-14 -21 -35 -62 -48
-90 -25 -55 -36 -61 -83 -43 -24 9 -23 11 62 94 47 47 88 83 90 81 2 -2 -8
-20 -21 -42z m-962 -466 c28 1 73 4 100 7 l50 6 -51 -28 c-29 -16 -65 -38 -81
-50 -25 -18 -124 -62 -138 -62 -3 0 -5 4 -5 9 0 5 -14 32 -31 60 -41 65 -34
75 45 64 33 -4 84 -7 111 -6z"/>
</g>
</svg>
