<?xml version="1.0" standalone="no"?>
<!DOCTYPE svg PUBLIC "-//W3C//DTD SVG 20010904//EN"
 "http://www.w3.org/TR/2001/REC-SVG-20010904/DTD/svg10.dtd">
<svg version="1.0" xmlns="http://www.w3.org/2000/svg"
 width="323.000000pt" height="185.000000pt" viewBox="0 0 323.000000 185.000000"
 preserveAspectRatio="xMidYMid meet">
<metadata>
Created by potrace 1.16, written by Peter Selinger 2001-2019
</metadata>
<g transform="translate(0.000000,185.000000) scale(0.100000,-0.100000)"
fill="#000000" stroke="none">
<path d="M2275 1803 c-10 -15 -30 -38 -44 -50 l-25 -22 30 -11 c39 -14 94 -43
94 -50 0 -3 -28 -30 -63 -60 -92 -82 -307 -301 -318 -324 -11 -25 -157 -152
-244 -212 l-60 -42 -25 35 c-14 19 -43 58 -66 86 -22 29 -53 72 -69 97 -15 25
-31 47 -35 50 -15 11 -133 177 -142 199 -5 14 -25 38 -44 54 -29 26 -34 35
-29 59 8 33 -8 37 -44 12 -23 -16 -23 -16 -11 6 6 12 10 24 7 26 -5 5 -201
-29 -251 -44 -37 -10 -46 -32 -14 -32 23 0 39 -19 51 -60 2 -9 -12 -26 -37
-42 -42 -29 -66 -35 -66 -18 0 5 -33 -13 -74 -40 -41 -28 -77 -50 -80 -50 -4
0 -97 -44 -209 -99 -111 -54 -231 -111 -267 -125 -110 -45 -140 -61 -137 -71
2 -5 12 -10 21 -10 13 0 26 -21 48 -74 30 -76 31 -101 3 -101 -24 0 -18 -37 8
-43 19 -5 120 -72 264 -177 23 -16 46 -30 51 -30 5 0 7 -12 4 -27 -5 -25 -4
-27 11 -14 22 18 15 23 228 -158 63 -53 189 -164 215 -189 17 -16 38 -6 30 15
-4 11 -2 13 9 10 8 -4 18 0 22 7 10 18 79 40 171 57 40 7 75 16 78 21 7 10 2
10 -71 -3 -33 -5 -71 -12 -85 -14 -14 -2 -40 -9 -59 -14 -19 -6 -37 -8 -40 -6
-11 11 -7 44 6 49 8 3 195 8 416 11 221 3 503 8 627 12 124 3 286 7 360 8 74
2 155 5 180 9 92 14 226 22 250 16 20 -5 25 -13 27 -49 3 -44 19 -75 33 -66 4
3 8 42 9 87 1 46 3 92 5 103 2 11 7 45 11 75 4 30 20 80 36 111 16 31 29 63
29 70 0 26 90 174 122 201 17 15 28 31 24 35 -9 9 -261 15 -295 7 l-25 -5 27
-22 c18 -14 30 -36 34 -59 l5 -36 -139 5 c-102 4 -146 2 -163 -7 -20 -11 -103
-16 -282 -20 -10 0 -18 -3 -18 -7 0 -13 348 -7 363 6 8 6 34 9 63 6 27 -3 80
-6 117 -8 81 -2 80 -1 75 -136 -2 -56 1 -91 7 -91 6 0 5 -3 -1 -8 -14 -9 -26
-55 -28 -110 -2 -24 -8 -47 -15 -52 -7 -4 -63 -10 -124 -13 -62 -3 -130 -8
-152 -11 -22 -2 -141 -8 -265 -12 -124 -4 -243 -8 -265 -10 -46 -2 -943 -7
-1024 -5 l-54 1 6 173 c3 94 8 179 12 188 6 17 69 29 156 29 42 0 50 -4 73
-35 26 -33 63 -61 72 -53 2 2 -10 20 -26 39 -37 44 -37 49 3 49 27 0 44 -11
94 -60 74 -74 101 -79 39 -8 -48 55 -54 67 -33 69 33 3 55 -5 82 -32 40 -38
52 -37 25 1 -20 28 -20 30 -3 31 10 0 34 2 54 4 29 3 41 -1 58 -21 12 -14 26
-22 32 -18 8 4 7 10 0 17 -22 22 -9 27 71 27 l81 0 47 -52 c29 -32 51 -49 58
-44 18 11 15 22 -18 58 -17 18 -28 38 -25 45 2 8 -4 13 -15 13 -11 0 -20 5
-20 10 0 6 21 10 48 10 46 -1 47 -1 22 -16 -23 -13 -13 -14 110 -10 74 3 149
5 167 5 17 0 34 4 37 9 3 5 16 7 30 5 13 -3 32 0 43 6 14 8 8 10 -34 11 -45 0
-53 3 -53 19 0 11 3 21 8 23 9 4 113 134 138 173 10 17 21 32 25 35 13 11 79
110 79 119 0 6 42 54 93 107 l94 97 92 -79 c148 -125 201 -162 201 -136 0 6
-120 126 -323 320 -47 45 -90 82 -95 82 -5 0 -26 24 -47 53 -22 28 -65 76 -96
105 l-56 53 -18 -28z m72 -62 c45 -42 70 -81 53 -81 -5 0 -10 6 -10 14 0 7
-12 16 -27 19 -16 4 -43 16 -62 27 -32 20 -33 22 -16 41 10 10 19 19 20 19 1
0 20 -17 42 -39z m87 -141 c70 -55 73 -57 88 -77 15 -21 70 -58 81 -55 15 4 6
-7 -40 -51 l-47 -45 -66 57 c-78 70 -163 124 -187 119 -13 -2 -5 -11 28 -30
47 -28 209 -156 209 -165 0 -3 -8 -11 -17 -18 -14 -10 -23 -6 -62 32 -50 49
-162 126 -200 138 -24 7 -24 8 20 46 52 45 69 48 105 14 15 -14 32 -25 37 -25
11 0 110 -79 115 -92 5 -11 32 -10 32 0 0 13 -49 55 -120 103 -35 24 -68 47
-74 50 -15 11 2 39 25 39 12 0 44 -18 73 -40z m-1310 -12 c-3 -13 -22 -53 -40
-90 -19 -37 -31 -74 -28 -83 3 -8 1 -15 -5 -15 -6 0 -11 -9 -11 -20 0 -11 -6
-20 -14 -20 -9 0 -12 -9 -8 -27 3 -19 1 -25 -6 -18 -5 6 -12 64 -15 129 -4 96
-9 122 -22 132 -14 10 -8 14 37 22 29 5 68 10 86 11 30 1 33 -1 26 -21z m110
-52 c14 -19 26 -39 26 -44 0 -6 17 -32 38 -59 77 -97 61 -96 -32 2 -92 95
-104 113 -89 128 14 14 32 6 57 -27z m76 -196 c146 -147 420 -456 420 -472 0
-3 -14 -3 -30 0 -24 3 -52 30 -135 126 -104 121 -320 339 -404 409 -41 34 -80
50 -66 27 4 -6 10 -8 15 -5 4 3 10 1 12 -5 1 -5 93 -101 203 -212 222 -225
336 -352 307 -340 -18 7 -166 159 -386 396 -92 100 -114 116 -123 89 -5 -14
26 -45 37 -38 5 3 10 1 12 -4 3 -10 169 -187 316 -338 85 -87 107 -119 69 -96
-20 11 -246 223 -388 363 l-116 115 13 40 c14 43 56 125 63 125 2 0 84 -81
181 -180z m917 140 c21 -11 54 -33 73 -50 19 -16 38 -30 41 -30 4 0 30 -21 58
-48 52 -47 52 -48 32 -66 -19 -18 -21 -17 -53 16 -66 65 -145 128 -181 143
-40 16 -44 24 -25 43 15 15 11 16 55 -8z m-1257 -105 c1 -38 1 -74 0 -80 -1
-5 -1 -14 0 -20 6 -23 0 -79 -9 -88 -6 -6 -4 -18 6 -33 10 -16 13 -35 8 -62
-3 -21 -8 -91 -10 -156 -3 -100 -6 -120 -22 -131 -17 -14 -17 -14 5 -15 12 0
22 -6 22 -12 -1 -7 -7 -81 -14 -165 -13 -153 -9 -234 12 -255 17 -17 15 -45
-4 -52 -20 -8 -33 0 -44 29 -5 12 -41 44 -82 70 -67 44 -219 174 -275 235 -21
22 -23 32 -17 83 3 32 7 100 8 150 1 100 -1 94 92 239 24 36 49 68 55 70 7 2
9 10 5 17 -7 11 -47 10 -129 -6 -39 -7 -22 -21 31 -25 l42 -3 -46 -73 c-26
-40 -48 -71 -50 -69 -2 1 -4 23 -5 47 -1 25 -7 58 -12 73 -11 34 2 51 106 134
71 57 307 186 319 175 4 -4 7 -38 8 -77z m1242 31 c15 -11 44 -34 65 -51 21
-16 57 -48 81 -69 l42 -39 -22 -16 c-25 -17 -51 -24 -43 -12 3 6 -169 150
-219 183 -17 11 26 38 49 31 11 -3 32 -15 47 -27z m-79 -42 c9 -4 17 -10 17
-15 0 -4 21 -22 47 -40 25 -18 54 -39 63 -48 9 -9 32 -29 51 -44 l34 -28 -24
-20 -24 -20 -66 64 c-39 38 -72 63 -80 60 -8 -4 -11 -1 -7 5 4 7 -11 23 -34
38 -22 15 -40 30 -40 33 0 13 24 31 35 26 5 -3 18 -8 28 -11z m-23 -81 c61
-41 164 -144 166 -165 3 -34 -42 -15 -95 41 -31 32 -79 73 -108 91 -46 29 -50
35 -40 51 7 11 14 19 17 19 3 0 30 -16 60 -37z m-941 -78 c58 -58 115 -114
126 -125 12 -11 26 -20 33 -20 7 0 10 -4 7 -10 -3 -5 -3 -10 2 -10 15 0 171
-159 160 -163 -6 -2 -32 0 -58 4 -44 7 -56 17 -225 189 -98 100 -180 183 -182
184 -5 5 17 56 24 56 4 0 55 -47 113 -105z m-652 7 c-52 -43 -109 -88 -128
-100 -19 -12 -60 -48 -92 -81 -54 -56 -58 -58 -66 -38 -27 71 -34 97 -30 100
2 2 65 34 141 71 75 37 139 70 142 73 7 7 107 50 119 52 5 0 -34 -34 -86 -77z
m1423 -2 c-17 -22 -29 -40 -25 -40 3 0 -1 -7 -9 -16 -22 -22 -76 -101 -72
-105 2 -2 -9 -14 -23 -26 -26 -21 -28 -21 -66 -4 l-39 17 26 19 c14 11 38 29
53 40 16 11 40 29 56 40 15 12 48 44 74 73 55 61 73 62 25 2z m157 -9 c32 -27
75 -66 96 -88 33 -35 36 -41 22 -53 -16 -13 -32 -2 -152 102 -24 20 -51 41
-60 46 -21 12 -10 42 16 42 11 0 46 -22 78 -49z m-927 -124 c74 -72 146 -144
158 -158 l23 -27 -44 -3 c-25 -2 -43 -1 -42 2 3 4 -76 91 -236 256 -14 14 -19
28 -14 42 3 12 9 21 13 21 4 0 68 -60 142 -133z m925 28 c37 -33 72 -63 79
-67 7 -5 4 -15 -11 -30 -13 -12 -23 -17 -23 -10 0 7 -4 12 -9 12 -4 0 -39 29
-76 65 -37 36 -72 65 -79 65 -7 0 -17 5 -24 12 -9 9 -8 16 5 30 15 17 17 17
44 1 15 -10 57 -45 94 -78z m-1582 -45 c4 -41 6 -142 5 -225 l-3 -150 -124
121 -124 122 33 17 c30 15 32 19 17 30 -14 10 -12 16 25 51 66 64 132 113 148
111 11 -2 17 -22 23 -77z m1530 -8 c42 -42 77 -80 77 -84 0 -21 -37 -3 -84 39
-28 25 -70 58 -92 73 -34 21 -40 29 -32 44 15 28 46 11 131 -72z m212 -28
c-47 -58 -88 -111 -91 -118 -3 -8 -15 -11 -29 -8 -23 4 -23 5 -8 28 8 13 22
24 30 24 11 0 14 7 10 21 -3 12 -3 18 0 15 3 -3 41 28 84 69 44 41 81 75 85
75 3 0 -33 -48 -81 -106z m-1205 45 c0 -6 5 -7 12 -3 6 4 8 3 5 -3 -7 -11 88
-103 106 -103 6 0 7 -3 4 -7 -4 -3 2 -12 13 -20 30 -21 24 -33 -12 -27 -45 8
-168 132 -168 169 0 23 2 24 20 15 11 -6 20 -15 20 -21z m981 -82 c35 -31 50
-51 46 -61 -9 -23 -19 -20 -63 17 -21 18 -60 48 -86 65 -56 38 -63 48 -48 67
9 11 18 9 55 -14 24 -15 67 -48 96 -74z m-72 -23 c44 -33 80 -65 81 -72 0 -7
10 -17 23 -22 15 -6 -26 -9 -123 -9 -80 0 -150 3 -155 7 -6 4 -30 31 -54 60
-50 60 -38 68 38 25 30 -16 55 -24 66 -19 17 6 17 7 0 26 -16 18 -17 23 -5 46
18 33 31 29 129 -42z m-902 -1 c24 -25 41 -48 39 -50 -2 -3 -25 -1 -50 2 -30
5 -46 13 -48 24 -5 21 3 71 10 71 4 0 25 -21 49 -47z m2033 12 c0 -2 -10 -15
-22 -28 -13 -13 -28 -32 -34 -42 -8 -14 -22 -19 -60 -19 -47 -1 -49 0 -50 26
-1 15 -6 34 -12 41 -7 8 -10 16 -8 18 6 5 186 9 186 4z m-1934 -116 c15 -16
26 -31 23 -33 -2 -3 -42 -6 -89 -7 l-85 -2 -3 39 -3 39 64 -3 c56 -3 69 -7 93
-33z m-858 -1 c26 -18 49 -37 51 -43 6 -14 109 -113 137 -132 13 -8 24 -19 24
-24 0 -9 -62 33 -207 141 -53 41 -80 67 -76 76 8 21 20 18 71 -18z m957 4 c12
-9 27 -25 34 -35 24 -31 -59 -11 -94 24 l-30 29 35 0 c19 0 44 -8 55 -18z
m139 -13 c23 -21 21 -25 -16 -34 -22 -6 -33 -1 -57 24 -17 18 -31 33 -31 35 0
12 88 -9 104 -25z m1616 6 c0 -8 -4 -16 -10 -20 -5 -3 -17 -31 -26 -63 -10
-31 -20 -60 -23 -64 -3 -4 -7 26 -9 67 -2 58 0 75 13 82 24 14 55 13 55 -2z
m-1464 -12 c17 -17 15 -18 -32 -23 -60 -7 -66 -5 -82 20 -12 19 -9 20 42 20
39 0 60 -5 72 -17z m64 -3 c13 -8 13 -10 -2 -10 -9 0 -20 5 -23 10 -8 13 5 13
25 0z m145 0 c6 -9 -9 -12 -70 -13 -40 0 -55 3 -55 13 0 6 26 10 59 10 33 0
63 -4 66 -10z m218 3 c-7 -2 -19 -2 -25 0 -7 3 -2 5 12 5 14 0 19 -2 13 -5z
m47 -3 c0 -5 -2 -10 -4 -10 -3 0 -8 5 -11 10 -3 6 -1 10 4 10 6 0 11 -4 11
-10z"/>
</g>
</svg>
