<?xml version="1.0" standalone="no"?>
<!DOCTYPE svg PUBLIC "-//W3C//DTD SVG 20010904//EN"
 "http://www.w3.org/TR/2001/REC-SVG-20010904/DTD/svg10.dtd">
<svg version="1.0" xmlns="http://www.w3.org/2000/svg"
 width="288.000000pt" height="160.000000pt" viewBox="0 0 288.000000 160.000000"
 preserveAspectRatio="xMidYMid meet">
<metadata>
Created by potrace 1.16, written by Peter Selinger 2001-2019
</metadata>
<g transform="translate(0.000000,160.000000) scale(0.100000,-0.100000)"
fill="#000000" stroke="none">
<path d="M1202 1445 c-17 -13 -22 -26 -22 -64 0 -46 -2 -49 -52 -84 -29 -19
-98 -57 -153 -82 -128 -60 -306 -148 -369 -182 -60 -33 -133 -38 -182 -11 -43
23 -43 23 -55 -9 -8 -21 -5 -36 15 -77 13 -28 27 -63 30 -78 9 -41 35 -35 86
18 24 26 63 55 87 65 29 12 43 24 43 37 0 32 75 77 307 182 90 40 171 81 181
90 19 18 56 40 66 40 3 0 6 -19 6 -42 0 -24 4 -70 10 -103 5 -33 10 -80 11
-105 2 -71 -13 -655 -17 -659 -2 -2 -21 9 -42 26 -21 17 -78 51 -127 77 -126
66 -127 67 -119 140 6 64 18 111 39 161 8 17 21 56 29 87 9 31 21 60 26 63 6
3 10 12 10 20 0 17 -52 32 -147 41 -72 6 -72 6 -79 -19 -4 -18 1 -41 15 -70
12 -24 21 -52 21 -63 0 -11 5 -25 11 -31 11 -11 14 -201 4 -212 -3 -2 -13 3
-22 11 -10 9 -32 23 -48 31 -17 8 -64 47 -105 86 -41 38 -86 76 -100 83 -14 7
-28 17 -32 22 -4 6 -12 5 -20 -2 -19 -16 -93 -160 -86 -167 3 -4 19 0 35 8 30
15 55 16 116 3 26 -6 42 -4 53 4 13 11 20 8 47 -20 18 -18 61 -49 97 -70 l65
-38 -3 -64 c-3 -73 5 -128 18 -128 6 0 10 15 10 33 0 17 7 41 15 51 8 11 15
30 15 43 0 28 1 28 48 4 20 -10 60 -29 87 -42 28 -13 66 -36 85 -51 19 -15 45
-36 58 -45 18 -15 23 -31 27 -88 5 -67 19 -104 29 -74 3 8 8 67 11 132 6 98
10 119 24 123 9 3 49 21 90 41 72 36 74 36 200 35 120 0 249 13 176 18 -16 1
-104 3 -195 4 -91 2 -191 6 -223 10 -69 10 -69 11 -65 151 3 92 5 100 26 111
37 19 39 27 3 20 -33 -6 -33 -6 -27 25 3 17 6 45 6 61 0 27 2 29 33 24 17 -2
59 -8 92 -12 l60 -7 -70 -23 c-38 -13 -71 -24 -72 -24 -2 0 -3 -6 -3 -14 0
-11 9 -11 53 1 28 8 67 18 85 23 18 4 40 14 49 22 13 10 94 13 414 12 219 -1
397 2 394 6 -4 7 -420 21 -730 25 -134 2 -249 10 -288 22 -16 4 -18 12 -14 46
13 114 93 326 143 378 15 16 24 32 20 36 -4 5 -42 8 -84 8 -42 1 -84 4 -92 8
-9 4 -25 1 -38 -8z m156 -40 c1 -1 -15 -40 -37 -86 -22 -46 -49 -106 -60 -134
-11 -27 -20 -45 -20 -40 -1 6 -8 51 -16 100 -8 50 -15 109 -15 132 l0 42 73
-6 c39 -3 73 -6 75 -8z m-861 -451 c4 -11 -1 -22 -12 -30 -27 -20 -32 -18 -44
16 -10 29 -9 30 20 30 18 0 32 -6 36 -16z m450 -19 c2 -1 -2 -15 -7 -31 -26
-85 -60 -243 -60 -284 0 -16 -3 -31 -7 -33 -5 -3 -7 48 -6 114 1 66 -2 121 -8
124 -5 4 -9 18 -9 33 0 15 -7 38 -16 50 -8 12 -13 26 -9 31 4 8 112 4 122 -4z
m-363 -196 c15 -17 25 -34 22 -36 -3 -3 -21 0 -40 7 -19 6 -44 10 -54 8 -24
-4 -26 5 -7 42 18 35 36 31 79 -21z m761 -219 c16 -6 17 -9 5 -14 -22 -8 -102
-36 -105 -36 -8 0 -14 32 -9 45 7 16 74 20 109 5z"/>
<path d="M503 1292 c-378 -378 -456 -462 -443 -477 7 -8 17 -15 22 -15 8 0 72
-44 88 -60 3 -3 17 -11 32 -19 15 -8 40 -26 55 -41 15 -15 75 -53 133 -84 58
-32 110 -65 117 -73 16 -21 36 -7 23 16 -16 31 -96 102 -147 131 -54 31 -109
87 -124 128 -10 26 13 164 31 187 4 6 11 20 14 33 4 12 54 69 110 125 57 57
111 118 122 135 10 18 22 32 26 32 4 0 8 5 8 10 0 21 -31 8 -67 -28z m-267
-360 c-7 -20 -17 -56 -21 -79 l-7 -43 -39 23 c-21 12 -39 24 -39 28 0 3 20 24
45 48 25 24 45 47 45 52 0 5 7 9 15 9 12 0 12 -5 1 -38z"/>
<path d="M2406 1123 c-17 -5 -18 -12 -13 -83 3 -43 7 -84 9 -91 2 -10 -12 -15
-52 -19 -52 -5 -53 -5 -21 -12 18 -5 43 -8 55 -8 20 0 22 -6 25 -72 3 -91 -8
-251 -19 -269 -7 -10 -11 -10 -23 0 -17 13 -75 12 -382 -9 -192 -13 -280 -32
-110 -24 339 15 442 17 449 6 4 -7 21 -12 37 -12 l30 0 -7 -68 c-5 -54 -3 -75
10 -101 9 -17 21 -29 25 -26 5 2 9 46 8 96 0 79 3 94 19 106 17 13 17 15 3 26
-12 10 -15 28 -12 92 6 165 9 180 46 231 19 27 45 69 57 94 12 25 38 61 57 81
35 37 32 57 -7 44 -10 -3 -27 -2 -37 3 -22 11 -121 21 -147 15z m129 -50 c13
-8 10 -18 -19 -73 -44 -85 -66 -88 -81 -10 -17 85 -12 95 40 93 25 -1 51 -6
60 -10z m-75 -172 c0 -6 -4 -13 -10 -16 -5 -3 -10 1 -10 9 0 9 5 16 10 16 6 0
10 -4 10 -9z"/>
</g>
</svg>
