<?xml version="1.0" standalone="no"?>
<!DOCTYPE svg PUBLIC "-//W3C//DTD SVG 20010904//EN"
 "http://www.w3.org/TR/2001/REC-SVG-20010904/DTD/svg10.dtd">
<svg version="1.0" xmlns="http://www.w3.org/2000/svg"
 width="306.000000pt" height="238.000000pt" viewBox="0 0 306.000000 238.000000"
 preserveAspectRatio="xMidYMid meet">
<metadata>
Created by potrace 1.16, written by Peter Selinger 2001-2019
</metadata>
<g transform="translate(0.000000,238.000000) scale(0.100000,-0.100000)"
fill="#000000" stroke="none">
<path d="M1810 2165 c-43 -17 -151 -19 -204 -4 -38 11 -41 10 -74 -26 -44 -46
-140 -162 -167 -200 -38 -53 -195 -227 -266 -293 -51 -47 -109 -76 -122 -63
-16 16 -67 14 -67 -2 0 -14 -100 -105 -135 -122 -11 -6 -20 -16 -20 -22 0 -7
-16 -33 -36 -60 -20 -26 -60 -83 -89 -126 -29 -43 -64 -86 -77 -97 -12 -10
-23 -22 -23 -28 0 -5 -32 -48 -70 -95 -39 -47 -70 -88 -70 -91 0 -3 6 -6 13
-6 15 0 63 50 97 100 13 19 27 37 30 40 3 3 21 26 40 52 19 26 44 51 55 56 16
8 154 105 250 176 8 6 31 -4 69 -28 58 -39 265 -150 396 -212 41 -20 112 -55
157 -77 l82 -42 -38 -40 c-21 -22 -49 -54 -62 -71 -88 -113 -150 -187 -200
-239 -183 -189 -267 -281 -263 -287 10 -15 61 22 133 97 61 64 222 185 246
185 3 0 32 17 63 37 31 20 72 44 91 54 l34 16 46 -60 c25 -33 51 -67 56 -76 6
-9 30 -43 55 -76 25 -33 50 -68 55 -77 29 -48 106 -157 115 -163 23 -14 20 4
-7 53 -45 80 -165 256 -206 302 -34 39 -77 99 -77 109 0 6 13 17 29 26 34 17
32 19 72 -65 14 -30 40 -77 57 -104 17 -27 38 -70 47 -95 21 -61 52 -101 64
-82 6 9 1 25 -15 49 -13 19 -24 42 -24 50 0 8 -20 49 -44 91 -52 91 -73 138
-92 209 -8 29 -22 70 -32 91 -17 34 -18 51 -10 155 4 65 12 125 17 134 5 9 12
62 15 117 4 55 18 153 31 218 14 64 25 128 25 142 0 13 5 27 10 30 6 3 54 3
108 -1 l97 -7 -87 -22 c-91 -22 -126 -41 -109 -58 7 -7 20 -6 38 2 92 38 412
61 859 61 28 0 53 27 33 35 -8 3 -57 5 -109 5 -179 -2 -555 7 -605 13 -27 3
-82 9 -120 12 -105 9 -104 7 -71 122 36 125 55 190 68 228 22 66 22 65 -3 64
-13 0 -40 -7 -59 -14z m-13 -168 c-14 -45 -32 -108 -41 -139 -9 -32 -20 -57
-24 -57 -19 3 -22 -3 -12 -22 10 -18 -5 -117 -55 -354 -4 -16 -8 -59 -10 -95
-2 -36 -7 -87 -12 -115 l-7 -50 -6 50 c-4 28 -8 115 -9 195 -1 80 -7 163 -13
185 -5 22 -12 92 -14 155 -4 110 -10 168 -20 200 -3 8 -5 15 -5 15 0 0 -4 17
-9 38 -5 23 -4 50 1 66 9 27 11 27 57 18 34 -7 67 -6 117 4 57 12 72 12 78 2
5 -8 -2 -48 -16 -96z m-268 -62 c11 -56 20 -146 21 -205 0 -58 5 -121 10 -140
5 -19 11 -116 14 -215 2 -99 7 -187 10 -195 3 -8 7 -37 10 -65 2 -27 9 -62 15
-77 11 -29 6 -34 -18 -19 -7 5 -11 13 -8 18 10 16 -21 51 -81 92 -31 22 -73
56 -92 77 -19 20 -51 48 -70 62 -19 14 -69 61 -112 106 -60 64 -74 84 -67 98
5 9 9 29 9 43 0 15 20 63 44 106 25 43 48 88 51 100 10 30 104 169 114 169 5
0 11 10 15 23 6 25 109 144 113 130 1 -4 11 -53 22 -108z m-316 -252 c-15 -27
-37 -66 -48 -87 -23 -45 -35 -52 -65 -36 -20 10 -17 15 57 95 43 46 79 82 81
80 2 -1 -10 -25 -25 -52z m-206 -169 c21 -19 61 -51 88 -69 28 -19 72 -60 100
-91 27 -31 72 -72 100 -92 27 -19 67 -53 88 -74 20 -21 61 -56 90 -77 90 -69
105 -82 82 -74 -11 3 -33 16 -50 28 -16 12 -52 30 -80 40 -27 10 -108 49 -180
86 -167 86 -179 93 -289 164 -51 33 -102 65 -112 71 -17 10 -17 13 -4 29 20
24 110 95 120 95 5 0 26 -16 47 -36z m84 -3 c13 -11 21 -22 18 -26 -4 -3 -20
5 -35 19 -34 29 -18 35 17 7z m-263 -114 c22 -13 22 -13 -20 -54 -50 -47 -158
-127 -158 -116 0 22 126 183 143 183 7 -1 22 -6 35 -13z m808 -494 c30 -55 34
-83 13 -83 -6 0 -77 -41 -159 -90 -82 -50 -157 -93 -167 -97 -10 -4 3 16 28
43 25 27 54 63 65 79 10 17 24 35 29 40 6 6 29 32 51 60 38 48 94 104 104 105
3 0 19 -26 36 -57z"/>
<path d="M376 985 c-3 -8 -1 -15 4 -15 6 0 10 7 10 15 0 8 -2 15 -4 15 -2 0
-6 -7 -10 -15z"/>
</g>
</svg>
