<?xml version="1.0" standalone="no"?>
<!DOCTYPE svg PUBLIC "-//W3C//DTD SVG 20010904//EN"
 "http://www.w3.org/TR/2001/REC-SVG-20010904/DTD/svg10.dtd">
<svg version="1.0" xmlns="http://www.w3.org/2000/svg"
 width="300.000000pt" height="188.000000pt" viewBox="0 0 300.000000 188.000000"
 preserveAspectRatio="xMidYMid meet">
<metadata>
Created by potrace 1.16, written by Peter Selinger 2001-2019
</metadata>
<g transform="translate(0.000000,188.000000) scale(0.100000,-0.100000)"
fill="#000000" stroke="none">
<path d="M957 1723 c-13 -12 -7 -30 23 -74 16 -24 30 -47 30 -51 0 -7 -70 -32
-73 -26 -16 26 -47 102 -47 113 0 8 -7 15 -15 15 -22 0 -19 -45 7 -97 21 -41
21 -44 4 -61 -16 -16 -18 -16 -33 3 -8 11 -22 36 -30 55 -19 45 -52 90 -64 90
-17 0 -22 -30 -7 -48 8 -9 29 -43 46 -74 l31 -56 -42 -25 c-39 -23 -42 -24
-52 -7 -74 129 -98 160 -110 141 -6 -10 14 -50 63 -131 12 -19 22 -38 22 -42
0 -3 -16 -17 -37 -29 l-36 -22 -21 25 c-12 15 -32 43 -46 63 -45 66 -58 80
-65 73 -11 -10 2 -50 22 -73 26 -29 73 -103 73 -115 0 -5 -10 -10 -23 -10 -12
0 -30 -9 -40 -20 -20 -24 -43 -17 -55 18 -5 15 -20 38 -33 53 -13 14 -30 37
-38 52 -14 27 -44 36 -56 17 -4 -6 11 -32 32 -58 21 -25 50 -64 65 -86 l26
-40 -31 -22 -32 -22 -30 34 c-16 18 -45 52 -63 74 -36 44 -40 46 -65 28 -16
-12 -11 -20 48 -83 63 -69 64 -70 44 -87 -11 -9 -18 -20 -17 -25 2 -4 -9 -24
-24 -43 -31 -40 -52 -88 -49 -110 1 -11 -19 -23 -68 -38 -39 -13 -73 -27 -76
-32 -9 -14 10 -12 52 5 54 23 53 18 -5 -21 -71 -48 -88 -87 -26 -63 16 6 41
15 56 19 27 8 27 7 -10 -28 -36 -35 -36 -36 -14 -40 13 -2 37 1 55 8 23 7 33
8 35 0 3 -7 13 -5 29 5 17 11 29 13 35 7 14 -14 6 -44 -12 -50 -13 -5 -13 -3
-1 11 12 16 10 16 -29 2 -23 -8 -46 -13 -50 -10 -5 3 -11 1 -14 -4 -11 -17 15
-23 45 -11 35 15 47 7 28 -17 -8 -10 1 -5 20 10 34 28 61 32 68 10 5 -13 -58
-43 -97 -46 -14 -2 -24 -7 -23 -12 4 -19 32 -16 85 11 35 18 48 21 39 10 -15
-17 -2 -23 15 -6 12 12 47 2 39 -11 -9 -13 -96 -49 -106 -43 -9 5 -25 -23 -17
-31 2 -3 25 7 51 20 39 21 45 22 40 8 -5 -14 0 -12 26 6 25 18 37 21 54 14 19
-9 15 -12 -36 -31 -32 -12 -62 -22 -67 -22 -6 0 -10 -4 -10 -10 0 -16 27 -12
73 10 25 13 34 15 23 6 -11 -9 -17 -19 -13 -22 3 -3 18 3 33 15 15 11 38 21
53 21 l26 0 -32 -21 c-17 -11 -47 -21 -67 -22 -42 -3 -51 -10 -33 -25 10 -9
23 -6 53 10 43 23 116 40 138 32 11 -4 9 -10 -8 -28 -35 -37 -66 -76 -60 -76
3 0 27 18 54 41 l49 41 68 -26 c38 -14 78 -26 91 -26 12 0 22 -4 22 -10 0 -5
-6 -10 -14 -10 -8 0 -21 -3 -30 -6 -11 -4 -16 -1 -16 10 0 20 1 21 -52 -9 -25
-14 -60 -27 -79 -29 -19 -2 -37 -4 -41 -5 -5 0 -8 -8 -8 -17 0 -16 14 -14 78
12 31 13 33 12 27 -6 -4 -14 -2 -20 8 -20 9 0 17 5 19 11 2 6 26 19 53 28 28
10 58 21 68 26 9 4 17 3 17 -3 0 -5 -12 -15 -28 -21 -31 -13 -57 -47 -42 -56
5 -3 18 -1 29 5 24 12 34 13 26 1 -12 -20 16 -20 66 -1 l52 21 -17 -25 c-32
-50 -15 -69 39 -44 26 12 36 35 10 24 -8 -3 -22 -9 -30 -12 -24 -10 -17 15 13
45 24 24 38 29 107 34 95 8 810 5 975 -3 l115 -6 -110 -4 c-60 -2 -267 -5
-460 -7 -547 -4 -544 -4 -552 -16 -13 -21 -11 -35 7 -52 21 -19 48 -10 52 17
4 25 -1 25 563 32 215 3 462 8 550 11 l160 7 2 -34 c11 -182 16 -228 28 -228
21 0 25 25 25 139 0 68 4 111 12 119 8 8 8 15 0 24 -15 19 0 89 37 170 17 37
31 72 31 78 0 5 18 51 41 101 23 50 42 96 43 103 1 6 18 33 39 61 35 46 45 80
22 80 -6 -1 -44 -4 -85 -9 -201 -22 -264 -32 -268 -44 -2 -8 8 -12 31 -12 30
0 36 -5 51 -38 25 -56 28 -358 4 -454 l-9 -38 -92 2 -92 2 84 5 c58 4 86 10
89 20 3 10 -1 11 -19 5 -26 -10 -1114 -7 -1192 2 l-49 6 7 132 c4 72 9 134 12
138 9 15 33 120 33 143 0 37 28 45 147 45 148 0 162 -15 21 -23 -62 -4 -123
-10 -135 -13 -40 -11 -25 -25 20 -20 126 16 703 49 897 51 58 1 107 6 110 11
3 5 -10 10 -27 12 -18 2 -33 8 -33 13 0 6 -10 3 -22 -5 -25 -17 -58 -21 -58
-7 0 10 -37 7 -158 -10 -54 -8 -149 -7 -350 3 -153 7 -304 12 -337 12 l-61 -1
9 66 c11 79 54 261 67 275 4 6 11 29 16 51 4 22 20 67 35 101 46 97 50 93
-108 87 -76 -3 -144 -10 -151 -16 -15 -12 -31 6 -62 71 -20 41 -30 49 -43 35z
m318 -143 c3 -5 -1 -24 -8 -42 -8 -18 -20 -58 -27 -88 -7 -30 -16 -59 -20 -65
-4 -5 -19 -64 -33 -130 -61 -279 -56 -279 -52 5 2 140 -1 262 -6 272 -14 26 0
46 34 51 63 8 106 7 112 -3z m-186 -54 c12 -46 3 -324 -12 -333 -5 -3 -29 9
-53 26 -25 17 -49 31 -55 31 -6 0 -8 3 -6 8 3 4 8 39 11 77 3 39 9 84 12 101
3 18 2 34 -3 37 -5 3 -56 -41 -114 -99 -74 -74 -109 -104 -122 -100 -13 3 -21
-3 -28 -21 -5 -14 -19 -33 -32 -44 -25 -21 -17 -25 13 -7 10 7 22 10 25 7 3
-3 15 -46 26 -95 12 -49 27 -103 35 -121 8 -17 14 -34 14 -38 0 -3 11 -23 25
-43 29 -42 31 -64 10 -82 -8 -7 -15 -19 -15 -26 0 -21 33 -17 47 5 8 13 19 18
32 14 30 -8 43 35 46 152 3 136 11 175 39 175 17 0 19 -2 6 -11 -11 -8 0 -9
43 -6 l57 6 2 -87 c3 -149 2 -173 -6 -329 -7 -127 -11 -153 -24 -153 -28 0
-147 43 -167 60 -26 22 -80 50 -98 50 -28 0 -195 194 -237 274 -8 16 -32 54
-52 85 l-37 56 20 34 c25 43 17 75 -17 67 -27 -7 -32 5 -9 24 8 7 13 15 11 19
-8 12 7 26 73 74 34 26 67 44 72 41 5 -3 25 11 45 30 42 40 47 42 64 21 12
-14 40 -21 40 -9 0 3 -5 14 -10 24 -9 17 -4 23 31 45 32 21 44 24 55 15 11
-10 16 -7 23 13 15 38 38 41 46 6 4 -16 13 -29 22 -29 12 0 13 8 8 38 -6 38
-6 39 36 51 37 11 44 11 55 -3 17 -24 37 -20 31 5 -3 12 -2 18 3 13 4 -5 13
-27 19 -48z m-142 -123 c-3 -5 -8 -32 -11 -62 -4 -29 -8 -56 -10 -60 -2 -3 -7
-42 -11 -87 -3 -44 -10 -106 -14 -137 -4 -31 -6 -81 -5 -110 3 -49 2 -51 -12
-32 -22 28 -70 135 -79 176 -7 33 -27 83 -47 123 -9 17 3 32 83 108 82 76 121
106 106 81z m-507 -196 c-10 -9 -12 -8 -7 6 4 9 2 17 -4 17 -6 0 -7 5 -3 11 5
8 10 6 16 -6 7 -12 6 -21 -2 -28z m-50 -7 c0 -5 -2 -10 -4 -10 -3 0 -8 5 -11
10 -3 6 -1 10 4 10 6 0 11 -4 11 -10z m585 0 c3 -5 1 -10 -4 -10 -6 0 -11 5
-11 10 0 6 2 10 4 10 3 0 8 -4 11 -10z m-515 -50 c0 -5 -4 -10 -9 -10 -6 0
-13 5 -16 10 -3 6 1 10 9 10 9 0 16 -4 16 -10z m-58 -17 c31 -36 32 -75 3
-145 -12 -31 14 -20 30 12 19 38 28 31 73 -57 49 -98 75 -133 146 -202 75 -73
91 -108 26 -56 -8 6 -49 26 -91 44 -41 18 -91 46 -110 62 -100 85 -121 106
-144 147 -46 81 -42 212 5 197 10 -3 21 -1 25 5 9 15 20 12 37 -7z m2243 -55
c-5 -7 -18 -27 -31 -45 -26 -34 -84 -156 -116 -243 -32 -86 -38 -82 -40 25 -2
152 -5 185 -22 211 -35 53 -29 55 138 62 62 3 77 1 71 -10z m-2381 -118 c-5
-5 -18 -11 -29 -13 -11 -2 -28 -7 -38 -12 -10 -4 -20 -5 -23 -3 -2 3 14 13 36
23 22 10 40 23 40 29 0 6 5 5 12 -2 8 -8 9 -15 2 -22z m30 -61 c-6 -10 -105
-41 -111 -35 -2 2 18 17 44 34 33 20 52 26 60 20 7 -6 10 -14 7 -19z m596
-359 c-24 -15 -36 -11 -14 4 10 8 21 12 24 10 2 -3 -2 -9 -10 -14z m50 -20
c-19 -10 -37 -16 -39 -14 -8 8 34 33 54 33 15 0 11 -5 -15 -19z"/>
<path d="M595 1140 c-3 -5 -2 -10 4 -10 5 0 13 5 16 10 3 6 2 10 -4 10 -5 0
-13 -4 -16 -10z"/>
<path d="M170 1279 c0 -22 67 -109 84 -109 15 0 4 29 -19 50 -14 13 -25 28
-25 32 0 10 -25 38 -34 38 -3 0 -6 -5 -6 -11z"/>
<path d="M140 1121 c0 -16 28 -32 64 -38 24 -4 36 -2 36 6 0 6 -4 11 -10 11
-19 0 -25 2 -45 16 -22 16 -45 18 -45 5z"/>
<path d="M689 598 c-8 -7 -23 -24 -34 -38 l-20 -24 25 15 c14 9 35 22 48 30
12 8 22 17 22 21 0 12 -25 9 -41 -4z"/>
<path d="M500 593 c-33 -6 -51 -23 -24 -23 11 0 29 7 40 15 10 8 17 14 14 13
-3 0 -16 -3 -30 -5z"/>
<path d="M594 556 c-11 -8 -27 -14 -35 -13 -19 3 -28 -17 -9 -20 8 -2 33 8 55
22 22 13 33 25 25 25 -9 0 -25 -6 -36 -14z"/>
</g>
</svg>
