<?xml version="1.0" standalone="no"?>
<!DOCTYPE svg PUBLIC "-//W3C//DTD SVG 20010904//EN"
 "http://www.w3.org/TR/2001/REC-SVG-20010904/DTD/svg10.dtd">
<svg version="1.0" xmlns="http://www.w3.org/2000/svg"
 width="311.000000pt" height="176.000000pt" viewBox="0 0 311.000000 176.000000"
 preserveAspectRatio="xMidYMid meet">
<metadata>
Created by potrace 1.16, written by Peter Selinger 2001-2019
</metadata>
<g transform="translate(0.000000,176.000000) scale(0.100000,-0.100000)"
fill="#000000" stroke="none">
<path d="M543 1559 c-9 -9 -8 -19 2 -40 8 -15 19 -29 24 -31 7 -2 6 -11 -2
-25 -7 -12 -25 -45 -40 -73 -15 -28 -57 -89 -92 -136 -36 -46 -65 -91 -65 -99
0 -34 -22 -10 -52 56 l-32 71 -18 -24 c-10 -12 -34 -51 -54 -85 -21 -34 -68
-104 -106 -154 -37 -50 -68 -94 -68 -99 0 -10 60 -31 70 -25 5 3 12 1 15 -5 4
-6 32 -24 63 -40 66 -35 122 -75 247 -175 95 -76 196 -153 293 -223 32 -23
103 -85 157 -137 54 -52 101 -95 106 -95 22 0 5 25 -51 77 -34 31 -73 77 -87
102 -15 25 -70 104 -124 176 -53 72 -108 148 -121 170 -23 37 -89 127 -154
213 -14 18 -38 57 -54 87 l-29 55 22 35 c84 134 128 179 266 268 35 23 70 52
78 64 13 19 12 23 -7 41 -19 17 -138 62 -166 62 -5 0 -15 -5 -21 -11z m131
-88 c5 -8 -57 -59 -101 -85 -7 -4 3 20 23 53 31 52 39 59 54 51 11 -6 21 -14
24 -19z m-390 -268 c3 -10 10 -25 15 -33 5 -8 28 -53 50 -100 23 -47 75 -128
117 -180 76 -97 134 -177 134 -186 0 -5 92 -129 119 -159 37 -43 81 -115 66
-109 -8 3 -15 9 -15 13 0 4 -13 14 -28 23 -26 15 -121 89 -267 206 -101 82
-355 252 -376 252 -15 0 -12 4 51 92 32 46 72 109 87 140 30 62 37 68 47 41z"/>
<path d="M1216 1538 c-8 -5 -13 -15 -10 -23 3 -7 1 -22 -4 -31 -8 -14 -23 -17
-83 -15 -46 1 -86 8 -106 18 -29 15 -33 15 -57 0 -29 -19 -37 -67 -11 -67 11
0 15 -13 17 -50 0 -27 1 -60 2 -72 1 -22 -25 -262 -45 -418 -5 -41 -16 -109
-25 -150 -16 -78 -34 -259 -27 -272 2 -5 11 -8 19 -8 12 0 17 10 16 30 0 3 45
6 100 6 81 1 98 -1 94 -12 -7 -18 13 -18 33 0 9 8 30 16 46 18 28 3 30 1 27
-24 -5 -39 24 -37 32 2 5 26 10 30 37 30 18 0 38 -7 45 -18 13 -16 15 -16 28
0 8 12 27 18 51 18 l37 0 -17 -26 c-16 -25 -16 -26 2 -22 10 2 22 13 28 25 12
29 63 39 80 16 13 -17 14 -17 33 0 11 10 31 17 44 15 19 -2 22 -8 20 -33 -7
-61 -7 -68 5 -72 10 -4 22 21 28 57 6 32 18 47 38 45 12 -1 28 -3 35 -4 9 -1
11 -14 6 -50 -3 -28 -3 -62 0 -77 11 -42 30 -13 32 49 2 76 2 77 23 77 27 0
30 -16 14 -87 -8 -42 -10 -71 -3 -88 15 -39 35 -21 37 35 2 28 10 61 19 75 9
13 13 29 9 35 -3 5 2 10 12 11 10 0 72 3 138 6 66 4 219 7 340 7 l220 1 0 -78
c0 -57 4 -80 15 -87 23 -14 29 -3 29 60 0 33 2 63 5 68 3 5 8 40 10 78 5 67
10 108 22 184 8 52 43 196 55 228 12 29 13 33 29 102 6 25 20 63 30 86 11 22
20 46 20 53 0 15 85 145 106 162 8 6 14 20 14 30 0 18 -11 19 -202 20 -112 0
-214 2 -228 4 -14 1 -76 6 -138 9 -118 7 -162 11 -302 27 -47 6 -139 14 -205
19 -120 9 -314 33 -408 51 -27 5 -66 9 -86 9 -20 1 -52 7 -72 14 -23 8 -43 10
-53 4z m323 -77 c84 -12 156 -23 160 -25 3 -2 47 -7 96 -10 168 -12 325 -29
320 -34 -11 -12 -323 -13 -330 -2 -4 7 -11 8 -18 1 -7 -5 -55 -10 -107 -12
-52 -2 -98 -4 -101 -6 -16 -7 -308 -10 -319 -3 -10 6 -11 15 -2 37 6 15 13 41
17 57 6 28 6 28 68 23 34 -3 131 -14 216 -26z m-391 -48 c-2 -5 -18 -39 -37
-78 -18 -38 -42 -88 -51 -110 -10 -22 -25 -56 -34 -75 -9 -19 -25 -60 -36 -90
l-20 -55 6 75 c3 41 10 93 14 115 5 22 9 78 9 125 0 47 0 88 0 93 1 4 35 7 77
7 42 0 74 -3 72 -7z m1015 -20 c-7 -2 -19 -2 -25 0 -7 3 -2 5 12 5 14 0 19 -2
13 -5z m-959 -86 c27 2 28 1 22 -35 -4 -20 -14 -65 -24 -99 -17 -63 -17 -63
-53 -63 -30 0 -36 3 -33 18 1 9 10 50 19 91 9 40 13 81 10 91 -3 10 0 28 7 40
12 20 13 19 18 -12 5 -29 9 -33 34 -31z m1428 47 c1 -9 2 -63 0 -119 l-3 -102
-202 -7 c-111 -4 -246 -9 -299 -12 l-97 -6 8 29 c17 55 65 168 83 195 21 31
19 31 330 36 159 3 177 2 180 -14z m222 4 c-4 -7 -18 -26 -30 -43 -34 -45
-108 -211 -128 -288 -10 -37 -21 -66 -23 -63 -5 4 -4 95 0 293 1 45 7 87 12
92 6 6 46 12 90 14 44 1 81 4 83 5 2 1 0 -4 -4 -10z m-771 -26 c-3 -12 -9 -22
-14 -22 -5 0 -9 -6 -9 -13 0 -7 -16 -51 -35 -97 -31 -77 -37 -85 -64 -88 -28
-3 -29 -2 -22 30 4 18 9 69 10 113 1 44 5 83 9 87 5 5 114 16 129 13 1 -1 0
-11 -4 -23z m-172 1 c5 -5 10 -25 11 -44 1 -50 -13 -179 -21 -180 -54 -10 -56
-8 -53 66 2 39 7 84 11 100 9 36 4 55 -15 55 -16 0 -31 -49 -18 -59 5 -3 6
-40 1 -88 l-9 -83 -40 0 -41 0 7 63 c4 34 11 76 16 92 4 17 11 42 14 57 5 22
12 27 44 30 52 4 83 1 93 -9z m-278 -45 c-2 -29 -8 -80 -13 -113 -6 -33 -10
-63 -10 -67 0 -5 -16 -8 -35 -8 l-36 0 5 53 c8 72 24 165 31 177 3 6 19 10 34
10 28 0 28 -1 24 -52z m117 38 c0 -13 -25 -155 -35 -203 -5 -19 -12 -23 -46
-23 -39 0 -40 1 -35 28 3 15 11 61 16 102 15 110 15 110 61 110 27 0 39 -4 39
-14z m-421 -108 c-10 -57 -18 -104 -19 -105 -1 -7 -100 -2 -100 5 0 22 43 132
52 132 5 0 8 8 7 18 -4 42 1 51 34 54 17 2 35 2 38 1 3 -1 -2 -49 -12 -105z
m116 83 c-9 -19 -11 -32 -5 -36 6 -3 7 -17 4 -31 -4 -14 -2 -24 4 -24 12 0 32
61 32 98 0 18 5 22 33 22 l32 0 -14 -107 c-8 -60 -19 -111 -25 -115 -6 -4 -21
-8 -33 -8 -21 0 -23 5 -23 52 0 59 -11 57 -20 -5 l-5 -42 -44 2 c-24 1 -45 3
-46 5 -4 3 32 184 40 206 2 7 22 12 45 12 l41 0 -16 -29z m-346 -115 c-10 -33
-19 -65 -19 -73 0 -15 -16 -18 -24 -4 -6 9 52 146 59 139 2 -2 -5 -30 -16 -62z
m1511 -88 c12 -2 15 -22 13 -117 -3 -121 -7 -131 -51 -131 -13 0 -21 -3 -19
-7 3 -5 -16 -8 -41 -9 -152 -2 -531 -16 -551 -20 -21 -5 -23 -3 -17 23 4 15
11 44 15 63 24 99 58 183 77 187 10 1 100 6 199 9 99 4 182 8 184 10 4 4 159
-2 191 -8z m-1545 -67 c-4 -20 -13 -72 -22 -116 -8 -44 -16 -85 -16 -91 0 -5
-13 -8 -29 -6 -21 3 -27 9 -24 21 3 9 14 57 26 106 27 117 35 136 55 129 12
-5 14 -15 10 -43z m101 -3 c-8 -74 -31 -192 -40 -206 -4 -7 -20 -12 -37 -12
-35 0 -36 10 -13 131 9 46 16 91 16 99 -1 32 8 40 44 40 l36 0 -6 -52z m133
15 c-5 -21 -16 -81 -26 -133 l-19 -95 -48 -3 -48 -3 5 33 c3 18 11 74 17 123
16 122 12 115 73 115 l54 0 -8 -37z m107 27 c14 0 11 -34 -12 -135 -7 -33 -16
-72 -18 -87 -3 -15 -7 -32 -11 -38 -6 -10 -72 -6 -83 5 -3 3 -1 25 5 48 7 23
15 67 18 97 4 30 11 70 17 89 9 30 13 33 40 27 17 -3 36 -6 44 -6z m494 -12
c0 -33 -20 -198 -26 -225 -5 -18 -13 -23 -36 -23 -29 0 -30 2 -25 33 4 17 9
61 12 97 10 109 15 128 33 133 35 9 42 7 42 -15z m80 8 c0 -8 -4 -17 -8 -20
-5 -3 -17 -32 -27 -66 -10 -33 -20 -58 -23 -56 -2 3 -1 39 3 80 7 71 9 76 31
76 14 0 24 -6 24 -14z m-474 -93 c-11 -154 -16 -167 -55 -171 -53 -5 -59 1
-51 50 4 23 13 77 20 118 16 103 15 100 56 100 l37 0 -7 -97z m89 5 c-4 -51
-10 -111 -14 -133 -6 -37 -9 -40 -40 -43 l-34 -3 6 43 c4 24 10 85 13 136 l7
92 35 0 34 0 -7 -92z m111 70 c-3 -13 -10 -70 -16 -128 -6 -58 -15 -109 -20
-113 -4 -5 -20 -7 -36 -5 -22 2 -28 8 -27 23 1 11 5 61 8 110 9 136 9 135 55
135 37 0 40 -2 36 -22z m114 0 c0 -33 -29 -230 -34 -236 -3 -2 -23 -5 -45 -6
-33 -2 -40 1 -37 13 3 9 8 50 12 91 4 41 8 80 9 85 1 6 3 25 3 43 2 31 3 32
47 32 40 0 45 -2 45 -22z m786 -310 c-5 -61 -15 -121 -31 -184 -5 -17 -87 -23
-365 -26 -140 -1 -260 -6 -266 -10 -6 -4 -26 -5 -43 -2 -29 6 -32 10 -26 32 3
13 8 38 11 56 10 56 37 161 45 170 9 10 32 12 319 21 124 4 227 9 229 11 2 2
33 4 68 4 l64 0 -5 -72z m-1602 15 c-7 -21 -13 -54 -14 -73 0 -19 -4 -51 -9
-70 -5 -19 -12 -47 -15 -61 -5 -21 -11 -27 -31 -25 -24 1 -25 3 -19 46 3 25 9
59 14 75 5 17 12 49 15 73 7 47 27 72 55 72 16 0 17 -3 4 -37z m100 -18 c-19
-79 -23 -175 -6 -175 8 0 12 -8 10 -22 -2 -19 -10 -23 -41 -24 -27 -1 -37 3
-33 11 2 7 2 16 -2 20 -4 4 -8 11 -8 16 -3 22 -5 23 -14 9 -15 -24 -20 -6 -9
36 29 109 55 174 69 176 46 10 48 7 34 -47z m138 30 c-1 -11 -7 -60 -12 -108
-15 -134 -16 -137 -57 -137 -32 0 -34 2 -29 28 2 15 8 53 11 85 6 53 5 57 -15
57 -17 0 -19 3 -10 19 5 11 10 30 10 44 0 33 8 38 60 35 38 -3 45 -6 42 -23z
m123 3 c3 -7 -6 -65 -18 -128 l-23 -115 -40 -3 -41 -2 3 47 c2 27 8 80 13 118
6 39 11 76 11 83 0 8 16 12 45 12 28 0 47 -5 50 -12z m301 -40 c-3 -29 -11
-73 -16 -98 -5 -25 -12 -56 -14 -70 -4 -21 -10 -25 -38 -24 -18 1 -32 7 -31
12 2 6 8 55 14 109 7 54 16 104 22 111 5 6 23 12 40 12 l30 0 -7 -52z m112 -5
c-5 -32 -13 -74 -18 -93 -6 -19 -10 -47 -10 -62 0 -28 -17 -37 -57 -30 -16 3
-22 13 -25 38 -2 19 0 34 4 34 4 0 8 10 8 22 0 12 5 50 11 85 l11 63 43 0 42
0 -9 -57z m79 10 c-11 -98 -28 -198 -35 -205 -10 -10 -52 2 -52 16 0 6 5 40
11 76 6 36 12 78 14 94 8 53 15 66 42 66 24 0 24 -2 20 -47z m-393 -45 c-7
-46 -17 -100 -23 -120 -11 -36 -14 -38 -52 -38 -22 0 -38 3 -36 8 3 4 8 32 11
62 4 30 12 81 18 113 l12 57 41 0 41 0 -12 -82z m102 39 c-12 -77 -16 -101
-27 -150 -11 -46 -12 -47 -45 -45 -39 2 -39 5 -20 85 8 32 17 79 21 106 6 46
7 47 42 47 l35 0 -6 -43z"/>
</g>
</svg>
