<?xml version="1.0" standalone="no"?>
<!DOCTYPE svg PUBLIC "-//W3C//DTD SVG 20010904//EN"
 "http://www.w3.org/TR/2001/REC-SVG-20010904/DTD/svg10.dtd">
<svg version="1.0" xmlns="http://www.w3.org/2000/svg"
 width="219.000000pt" height="129.000000pt" viewBox="0 0 219.000000 129.000000"
 preserveAspectRatio="xMidYMid meet">
<metadata>
Created by potrace 1.16, written by Peter Selinger 2001-2019
</metadata>
<g transform="translate(0.000000,129.000000) scale(0.100000,-0.100000)"
fill="#000000" stroke="none">
<path d="M974 1188 c-16 -13 -36 -30 -44 -38 -38 -38 -116 -86 -154 -95 -34
-8 -41 -14 -42 -35 -1 -52 -14 -70 -47 -71 -18 0 -65 -6 -105 -13 -78 -14
-113 -35 -95 -58 13 -18 14 -58 1 -58 -5 0 -42 -15 -81 -33 -129 -60 -191 -74
-255 -58 -88 22 -91 22 -101 3 -8 -14 -3 -32 19 -73 16 -30 29 -61 30 -70 0
-9 10 -20 22 -26 21 -9 21 -10 -15 -50 -21 -22 -37 -43 -37 -46 0 -5 208 -22
224 -18 5 1 16 -5 25 -13 9 -9 39 -27 66 -41 73 -39 182 -124 188 -146 6 -23
28 -24 68 -3 17 8 33 13 37 10 3 -3 -1 -6 -9 -7 -8 0 18 -11 56 -23 39 -13 85
-31 103 -40 19 -10 40 -15 47 -12 8 3 33 -13 57 -36 55 -52 109 -89 120 -82 5
3 -4 15 -19 27 -15 11 -58 48 -94 82 -36 34 -89 76 -117 95 -28 18 -49 37 -46
41 7 11 44 12 44 1 0 -11 114 -50 170 -58 33 -5 71 -25 138 -71 51 -36 96 -62
100 -58 4 4 1 10 -6 12 -7 3 -18 10 -25 17 -22 21 -180 132 -239 167 -32 19
-58 37 -58 40 0 14 170 90 225 100 59 11 141 30 200 48 17 5 47 12 68 16 21 3
35 10 32 15 -3 4 3 6 12 4 10 -3 38 2 62 10 24 9 48 13 55 9 6 -4 18 -9 28
-10 9 -1 31 -11 50 -22 18 -11 56 -26 85 -34 49 -15 99 -44 207 -122 53 -39
66 -42 66 -20 0 8 -4 15 -9 15 -5 0 -36 23 -69 50 -33 28 -62 50 -65 50 -11 0
-163 103 -183 125 l-22 22 47 -2 c53 -3 136 -33 202 -76 25 -16 54 -29 65 -29
15 1 11 8 -21 36 -21 19 -49 37 -62 40 -19 5 -34 24 -18 24 12 0 114 -71 148
-104 34 -32 67 -47 67 -30 0 16 -101 98 -153 125 -32 16 -57 33 -55 37 2 4 10
19 17 33 7 14 37 43 67 65 51 37 65 54 45 54 -5 0 -23 -11 -39 -25 -16 -13
-56 -40 -88 -58 -33 -19 -73 -42 -90 -52 -20 -12 -39 -16 -57 -11 l-28 7 30
25 c16 14 40 40 51 59 13 22 48 51 90 75 71 41 86 55 72 63 -4 3 -34 -13 -67
-35 -33 -22 -67 -42 -75 -45 -8 -4 -34 -19 -57 -35 -51 -34 -144 -79 -153 -73
-4 2 -20 6 -36 9 -50 9 -176 52 -248 86 -38 17 -79 33 -90 34 -12 2 -43 13
-71 26 -27 12 -78 33 -113 47 -58 24 -87 43 -63 43 6 0 11 10 11 22 0 11 18
45 39 73 22 29 38 55 35 58 -3 3 17 23 45 44 27 21 50 42 50 46 1 15 -44 -5
-74 -33 -45 -40 -162 -128 -196 -146 -16 -8 -27 -19 -24 -23 3 -5 -4 -7 -15
-4 -18 5 -19 8 -7 22 24 28 45 54 92 120 32 44 58 68 86 80 21 9 39 19 39 24
0 15 -38 6 -66 -15z m-145 -167 c-34 -39 -49 -49 -49 -32 0 11 61 71 73 71 5
0 -6 -18 -24 -39z m144 -20 c-26 -38 -55 -52 -67 -33 -5 8 85 84 92 77 2 -1
-9 -21 -25 -44z m-95 -96 c31 -14 50 -24 41 -25 -21 0 -142 40 -154 52 -15 15
47 0 113 -27z m-198 -4 c0 -6 -10 -17 -22 -26 -13 -8 -32 -34 -44 -56 l-21
-41 -17 33 c-9 19 -22 42 -28 51 -17 24 -8 29 59 38 32 4 61 8 66 9 4 0 7 -3
7 -8z m190 -40 c41 -11 121 -36 178 -55 57 -20 111 -36 120 -36 9 -1 42 -10
72 -21 30 -11 102 -33 160 -49 l105 -29 -60 -1 c-33 -1 -73 -3 -90 -6 -103
-15 -104 -14 -107 25 -4 43 -21 39 -22 -4 -1 -29 -3 -30 -49 -33 l-49 -3 4 53
c4 72 -16 73 -22 1 l-5 -58 -52 -3 -53 -3 0 33 c0 18 4 47 8 63 10 35 6 55
-12 55 -8 0 -13 -24 -14 -72 -2 -40 -8 -77 -13 -83 -7 -7 -8 -4 -3 9 8 21 11
21 -65 -3 l-33 -10 7 62 c11 98 11 140 -1 144 -7 2 -13 -23 -17 -69 -4 -40 -9
-82 -11 -93 -2 -11 -5 -26 -5 -32 -1 -14 -59 -17 -99 -6 -22 5 -23 10 -18 48
11 68 16 99 22 123 2 13 0 30 -7 38 -6 7 -8 21 -5 30 7 18 20 17 136 -15z
m-150 -64 c-8 -38 -8 -35 -16 -109 l-7 -58 -37 0 c-21 0 -45 3 -54 6 -26 10
-19 51 17 97 18 23 38 61 46 84 13 40 15 41 36 27 19 -12 22 -20 15 -47z
m-177 -115 c-3 -53 -6 -133 -8 -177 -1 -44 -3 -99 -4 -122 l-1 -42 -79 52
c-82 54 -99 73 -81 91 5 5 10 26 10 46 0 25 14 57 50 113 51 80 54 97 19 97
-33 0 -21 15 29 37 67 28 71 21 65 -95z m1176 12 c-26 -28 -59 -45 -73 -37 -8
6 71 61 88 62 5 1 -1 -11 -15 -25z m-1299 11 c0 -7 -39 -85 -43 -85 -1 0 -2
20 -3 45 -1 41 1 45 23 45 12 0 23 -2 23 -5z m-82 -115 c1 -60 -3 -110 -6
-110 -4 0 -19 12 -32 28 -14 15 -40 39 -59 54 l-34 26 54 55 c30 30 59 55 66
56 8 1 11 -32 11 -109z m-128 60 c-19 -16 -40 -30 -46 -30 -8 0 -34 40 -34 54
0 1 26 3 58 4 l57 1 -35 -29z m1407 -13 c6 -7 -65 -42 -137 -68 -33 -12 -56
-15 -58 -9 -2 5 -15 10 -28 10 -40 0 -31 63 11 72 28 5 205 1 212 -5z m-269
-34 c-3 -38 -3 -38 -55 -43 l-53 -6 0 38 c0 40 -5 37 93 46 15 2 18 -4 15 -35z
m-128 0 c0 -41 -10 -50 -57 -54 -41 -4 -42 -4 -36 26 9 52 11 55 53 55 37 0
40 -2 40 -27z m-110 0 c-1 -50 -11 -61 -62 -67 -60 -8 -70 -1 -62 42 7 34 17
39 82 41 34 1 42 -2 42 -16z m-145 -37 c-4 -20 -12 -36 -19 -37 -6 0 -30 -2
-53 -5 l-42 -6 4 31 c6 44 9 47 56 49 23 1 45 4 47 7 11 10 13 -4 7 -39z
m-135 -5 c0 -43 -12 -51 -81 -51 -33 0 -35 2 -35 30 1 36 12 47 51 53 66 9 65
10 65 -32z m-649 16 c-7 -7 -14 -8 -21 -1 -6 6 -2 10 12 11 16 2 18 -1 9 -10z
m426 7 c-3 -3 -12 -4 -19 -1 -8 3 -5 6 6 6 11 1 17 -2 13 -5z m85 -44 c-2 -16
-7 -30 -11 -31 -3 0 -26 -1 -51 -2 -39 -2 -45 1 -48 20 -3 17 3 24 25 29 15 3
39 9 53 14 33 10 37 6 32 -30z m975 10 c14 -11 21 -20 15 -20 -12 0 -60 39
-49 40 5 0 20 -9 34 -20z m-1414 -45 c27 -19 9 -23 -50 -12 l-53 8 18 24 c18
25 18 25 85 -20z m992 1 c-66 -18 -123 -31 -128 -29 -4 2 -2 13 4 24 8 16 19
20 52 18 23 -1 49 1 57 4 27 10 54 15 95 15 30 0 9 -8 -80 -32z m-157 -13 c-4
-22 -98 -56 -113 -42 -15 15 8 43 41 50 56 13 76 10 72 -8z m-140 -30 c-3 -29
-23 -39 -80 -42 -21 -1 -28 4 -28 18 0 23 17 38 50 44 56 10 61 8 58 -20z
m-136 -27 c-4 -31 -8 -35 -47 -45 -24 -6 -45 -11 -47 -11 -9 0 -8 74 1 79 5 3
29 7 53 9 l44 3 -4 -35z m-119 -57 c7 -1 -13 -7 -43 -13 -30 -7 -58 -11 -62
-9 -13 7 -9 71 4 79 7 4 28 10 48 14 35 5 35 5 38 -32 2 -21 9 -39 15 -39z
m207 6 c-30 -17 -40 -18 -40 -6 0 8 22 16 55 19 6 1 -1 -5 -15 -13z m-59 -18
c-18 -23 -211 -91 -223 -79 -22 22 -2 32 162 76 70 19 75 19 61 3z m89 -67
c30 -17 50 -30 43 -30 -20 0 -122 40 -128 51 -12 18 31 8 85 -21z m-137 -56
c29 -20 48 -34 42 -32 -83 29 -135 52 -135 59 0 20 44 7 93 -27z"/>
</g>
</svg>
