<?xml version="1.0" standalone="no"?>
<!DOCTYPE svg PUBLIC "-//W3C//DTD SVG 20010904//EN"
 "http://www.w3.org/TR/2001/REC-SVG-20010904/DTD/svg10.dtd">
<svg version="1.0" xmlns="http://www.w3.org/2000/svg"
 width="278.000000pt" height="183.000000pt" viewBox="0 0 278.000000 183.000000"
 preserveAspectRatio="xMidYMid meet">
<metadata>
Created by potrace 1.16, written by Peter Selinger 2001-2019
</metadata>
<g transform="translate(0.000000,183.000000) scale(0.100000,-0.100000)"
fill="#000000" stroke="none">
<path d="M1165 1678 c-11 -6 -39 -27 -62 -46 -46 -37 -55 -35 -23 5 26 34 16
46 -34 39 -22 -3 -70 -9 -106 -13 -36 -5 -70 -12 -77 -16 -8 -5 -10 -45 -6
-142 5 -102 3 -135 -6 -135 -7 0 -9 -4 -6 -10 3 -5 -1 -10 -10 -10 -9 0 -33
-12 -53 -27 -60 -44 -60 -47 -1 -14 31 17 61 31 67 31 9 0 12 -35 12 -121 0
-116 -1 -120 -20 -114 -25 8 -25 4 -1 -36 15 -25 18 -45 15 -98 -12 -209 -11
-401 2 -418 17 -23 18 -83 2 -82 -7 0 -65 31 -128 68 l-115 67 3 60 c1 32 11
83 22 112 11 28 18 52 16 52 -5 0 25 86 48 140 8 19 26 50 40 69 38 51 30 85
-15 61 -11 -6 -56 -15 -100 -20 -44 -4 -83 -10 -86 -13 -3 -4 0 -55 6 -114 6
-59 11 -152 11 -206 l0 -99 -48 27 c-26 15 -67 43 -92 62 -25 18 -67 48 -93
65 l-48 31 29 31 c16 17 44 52 63 77 19 25 40 44 47 41 7 -2 12 5 12 17 0 12
4 21 10 21 5 0 44 35 87 79 43 43 97 90 120 106 23 15 49 38 58 51 18 28 20
40 3 26 -22 -17 -387 -201 -421 -211 -82 -25 -123 -44 -139 -64 -22 -27 -22
-47 -3 -84 45 -86 48 -99 29 -135 -9 -18 -37 -55 -60 -83 -71 -80 -69 -82 108
-88 141 -5 161 -8 248 -39 l95 -33 1 -45 c1 -25 2 -49 3 -55 3 -16 41 36 41
56 0 29 11 29 75 -1 33 -16 79 -33 103 -40 30 -8 42 -16 42 -29 0 -11 7 -21
15 -25 10 -4 13 -14 9 -36 -6 -27 -4 -30 20 -30 21 0 26 5 26 23 0 13 6 30 13
39 14 17 198 61 327 78 47 6 114 15 150 20 36 5 135 9 221 8 97 0 163 3 176
10 17 10 27 7 58 -18 48 -38 77 -41 40 -4 -8 9 -15 20 -15 25 0 17 47 9 65
-11 25 -27 50 -27 35 0 -10 19 -8 20 34 20 44 0 47 -2 102 -71 52 -66 78 -88
90 -77 2 3 -11 25 -29 49 -18 24 -40 55 -48 69 l-16 25 115 1 114 0 -7 -80
c-4 -45 -9 -110 -11 -145 -2 -36 -6 -77 -9 -93 -5 -21 -3 -28 9 -28 15 0 22
25 28 95 2 21 8 30 21 30 15 0 18 12 21 87 2 55 9 94 17 105 12 14 12 16 0 8
-11 -6 -13 -4 -7 11 8 20 10 34 21 149 16 163 80 398 125 453 17 22 30 45 26
50 -3 5 -27 4 -58 -5 -33 -9 -76 -12 -115 -9 -42 3 -64 1 -72 -7 -11 -14 -11
-56 0 -72 4 -5 10 -39 13 -74 4 -35 9 -67 11 -72 9 -14 -9 -17 -150 -24 -77
-4 -178 -10 -225 -14 -149 -11 -146 -12 -250 117 -50 63 -111 144 -137 180
-47 69 -107 144 -177 222 -23 25 -50 58 -61 74 -11 15 -41 56 -67 90 -26 33
-48 66 -48 72 0 10 -32 44 -41 44 -2 0 -13 -6 -24 -12z m58 -80 c21 -24 52
-62 70 -86 18 -24 67 -83 109 -132 42 -49 85 -101 95 -117 10 -15 21 -32 26
-38 4 -5 33 -44 65 -86 31 -42 87 -115 125 -162 37 -47 67 -88 67 -91 0 -4
-30 25 -67 64 -210 222 -512 525 -553 556 -63 48 -66 58 -23 99 21 19 40 35
43 35 2 0 22 -19 43 -42z m-232 -45 c-18 -50 -35 -79 -45 -81 -14 -3 -15 -6
-4 -19 10 -12 9 -18 -7 -29 -10 -8 -19 -13 -21 -11 -1 1 -5 45 -9 98 l-6 95
48 11 c26 6 54 11 60 12 8 1 3 -26 -16 -76z m98 -23 c6 0 142 -128 253 -238
12 -11 252 -258 325 -333 l64 -67 -37 -4 c-43 -5 -30 -16 -259 227 -82 88
-207 218 -277 288 -70 70 -128 134 -128 141 0 23 11 25 31 5 10 -10 23 -19 28
-19z m8 -102 c41 -40 98 -97 127 -127 28 -30 103 -109 166 -174 127 -132 118
-123 180 -190 l44 -48 -45 5 c-24 2 -52 5 -61 5 -17 1 -74 58 -145 142 -134
163 -188 221 -273 297 -79 71 -95 90 -92 111 3 33 10 51 17 51 3 0 40 -33 82
-72z m-71 -63 c6 -5 27 -21 47 -35 20 -14 37 -28 37 -32 0 -4 11 -17 23 -30
13 -13 54 -59 92 -103 37 -44 73 -84 79 -90 6 -5 42 -46 81 -90 51 -59 64 -81
52 -83 -37 -7 -79 29 -331 287 -111 114 -146 155 -137 164 6 6 11 20 11 30 0
20 9 17 46 -18z m-102 -7 c-13 -46 -23 -55 -24 -22 0 31 6 44 22 44 5 0 6 -10
2 -22z m110 -124 c47 -48 86 -90 86 -95 0 -5 7 -9 15 -9 8 0 15 -4 15 -10 0
-5 48 -57 108 -114 l107 -106 -42 0 c-45 0 -49 3 -209 171 -152 159 -182 197
-176 224 2 14 5 25 7 25 1 0 41 -39 89 -86z m6 -119 c56 -60 124 -132 151
-159 52 -52 52 -66 -2 -66 -20 0 -50 26 -137 118 -154 165 -151 161 -140 195
6 15 14 27 18 25 4 -2 54 -52 110 -113z m-469 72 c-6 -8 -7 -17 -3 -21 4 -4 2
-6 -5 -4 -7 2 -31 -15 -55 -38 -24 -23 -55 -44 -70 -47 -16 -4 -42 -27 -65
-58 -60 -79 -125 -149 -134 -144 -4 3 -11 20 -15 37 -3 18 -14 43 -22 56 -19
29 -16 30 78 67 36 14 117 56 180 94 128 77 127 76 111 58z m441 -169 c53 -57
99 -106 104 -110 4 -5 -12 -8 -35 -8 -39 0 -47 5 -103 63 -33 34 -64 70 -69
79 -11 21 -12 78 -1 78 4 0 51 -46 104 -102z m1473 80 c-10 -33 -35 -129 -41
-157 -3 -14 -7 -28 -9 -31 -2 -4 -7 -22 -10 -41 -3 -19 -8 -42 -11 -52 -3 -10
-7 -30 -9 -45 -3 -15 -7 -38 -10 -52 -3 -14 -10 -56 -14 -95 -5 -38 -9 -65
-10 -60 -3 15 -4 172 -2 367 l1 177 53 4 c28 2 56 4 61 5 4 1 5 -8 1 -20z
m-1796 -85 c-33 -77 -79 -169 -79 -158 -1 21 -21 151 -25 166 -4 13 7 18 57
26 35 6 64 11 65 12 1 0 -7 -20 -18 -46z m301 -95 c0 -16 -36 -7 -62 16 -19
15 -28 33 -28 52 l0 28 45 -44 c25 -24 45 -48 45 -52z m420 -53 c11 -13 6 -15
-38 -15 -55 0 -79 16 -35 23 53 8 61 7 73 -8z m-438 -12 c27 -24 23 -28 -32
-31 -48 -3 -50 -2 -50 22 0 22 4 26 32 26 17 0 40 -7 50 -17z m76 5 c17 -17
15 -28 -6 -28 -11 0 -27 9 -37 20 -18 19 -17 20 6 20 14 0 30 -5 37 -12z m118
-7 c16 -8 11 -10 -27 -11 -28 0 -51 6 -58 14 -9 11 -5 13 28 11 21 -2 47 -8
57 -14z m121 4 c1 -5 -13 -11 -33 -13 -45 -3 -68 10 -34 19 32 9 63 7 67 -6z
m203 5 c0 -5 -9 -10 -19 -10 -11 0 -23 5 -26 10 -4 6 5 10 19 10 14 0 26 -4
26 -10z m88 3 c-10 -2 -28 -2 -40 0 -13 2 -5 4 17 4 22 1 32 -1 23 -4z m745
-12 c5 -5 11 -73 12 -150 l1 -140 -44 -7 c-24 -4 -83 -3 -130 0 -74 6 -88 10
-104 32 -11 13 -25 21 -31 17 -7 -3 -9 -3 -5 1 4 5 -17 36 -45 71 -61 75 -115
149 -123 170 -5 12 12 15 98 18 159 5 360 -1 371 -12z m-491 -77 c40 -42 81
-84 91 -93 10 -9 39 -40 63 -68 l46 -53 -50 0 -49 0 -61 78 c-34 42 -86 104
-115 137 -30 33 -53 63 -50 68 2 4 15 7 28 7 17 0 46 -22 97 -76z m-117 7 c31
-32 68 -74 83 -94 15 -20 33 -36 41 -37 8 0 12 -3 8 -6 -3 -4 5 -21 18 -39 32
-41 31 -55 -2 -55 -22 0 -54 26 -148 118 -66 65 -131 130 -144 145 l-24 27 56
0 c57 0 58 0 112 -59z m-223 4 c18 -21 48 -55 66 -74 45 -48 123 -161 118
-170 -3 -4 -21 -5 -40 -3 -29 3 -45 15 -83 60 -27 31 -55 63 -63 72 -115 123
-131 143 -118 152 7 4 29 7 50 5 27 -3 45 -14 70 -42z m167 -93 c78 -76 141
-141 141 -145 0 -4 -20 -7 -45 -7 -25 0 -45 4 -45 9 0 17 -122 175 -176 229
-40 39 -48 52 -34 52 10 0 79 -60 159 -138z m-379 46 c43 -46 81 -80 85 -77 3
4 -23 40 -59 80 l-64 74 38 3 c36 3 42 -1 123 -85 85 -88 169 -185 164 -189
-2 -2 -126 -6 -277 -9 -151 -3 -300 -7 -330 -9 l-56 -5 -4 57 c-5 75 -4 202 3
208 3 3 30 8 60 10 l56 5 41 -53 c61 -77 80 -102 88 -113 4 -5 20 -21 35 -34
50 -45 28 -5 -53 95 -44 54 -80 102 -80 107 0 4 11 7 24 7 17 0 38 -16 69 -52
25 -29 49 -50 53 -45 4 4 -12 26 -35 49 l-42 43 38 6 c21 3 39 7 41 8 2 0 39
-36 82 -81z m-979 31 c61 -42 135 -90 196 -128 28 -18 57 -39 65 -48 12 -15
10 -16 -17 -9 -61 14 -115 39 -115 52 0 10 -15 14 -51 14 -45 0 -219 45 -219
57 0 12 74 93 85 93 6 0 32 -14 56 -31z m-120 -108 c-12 -8 -51 -4 -51 5 0 2
15 4 33 4 22 0 28 -3 18 -9z m964 -161 l60 -2 -75 -13 c-41 -8 -86 -16 -100
-19 -100 -22 -120 -23 -120 -10 0 8 6 14 14 14 7 0 19 6 26 14 12 16 44 22
100 20 19 -1 62 -3 95 -4z"/>
<path d="M1934 1489 c-54 -13 -195 -98 -210 -126 -6 -13 -13 -21 -16 -18 -7 8
-58 -101 -58 -125 0 -29 46 -98 94 -142 46 -42 100 -58 159 -47 20 3 40 2 43
-2 14 -24 108 8 157 53 42 39 59 93 59 180 0 42 -6 87 -12 100 -33 62 -67 105
-98 121 -36 19 -56 20 -118 6z m99 -83 c42 -51 64 -98 70 -154 5 -38 1 -47
-34 -89 -44 -54 -86 -79 -144 -88 -49 -8 -104 10 -87 27 20 20 14 28 -21 28
-44 0 -74 33 -85 91 -14 76 10 124 88 174 45 28 94 37 125 23 35 -16 58 5 29
26 -18 15 -18 15 3 9 12 -3 38 -24 56 -47z m81 -32 c3 -8 2 -12 -4 -9 -6 3
-10 10 -10 16 0 14 7 11 14 -7z"/>
</g>
</svg>
