<?xml version="1.0" standalone="no"?>
<!DOCTYPE svg PUBLIC "-//W3C//DTD SVG 20010904//EN"
 "http://www.w3.org/TR/2001/REC-SVG-20010904/DTD/svg10.dtd">
<svg version="1.0" xmlns="http://www.w3.org/2000/svg"
 width="122.000000pt" height="148.000000pt" viewBox="0 0 122.000000 148.000000"
 preserveAspectRatio="xMidYMid meet">
<metadata>
Created by potrace 1.16, written by Peter Selinger 2001-2019
</metadata>
<g transform="translate(0.000000,148.000000) scale(0.100000,-0.100000)"
fill="#000000" stroke="none">
<path d="M663 1346 c-32 -33 -181 -126 -203 -126 -14 0 -13 -27 3 -33 9 -3 9
-8 -2 -21 -18 -21 -8 -31 17 -17 32 17 39 14 92 -36 39 -37 47 -49 38 -60 -16
-20 -127 -103 -136 -103 -5 0 -19 -12 -33 -26 -13 -14 -49 -37 -79 -52 -30
-14 -76 -38 -101 -54 -25 -15 -53 -28 -61 -28 -9 0 -21 -6 -27 -14 -15 -18 7
-56 44 -76 33 -18 29 -55 -10 -86 -35 -28 -27 -41 15 -24 40 17 161 5 211 -20
32 -17 119 -105 119 -121 0 -6 -59 -15 -170 -25 -30 -3 -60 -7 -67 -9 -25 -8
-89 18 -113 46 -23 26 -27 28 -50 16 -14 -8 -23 -20 -21 -28 2 -8 5 -70 6
-138 1 -69 6 -126 11 -128 5 -2 27 7 49 18 22 12 92 48 155 80 106 53 112 55
77 24 -22 -19 -34 -36 -28 -40 15 -9 43 8 115 69 72 61 162 95 389 147 72 16
136 34 141 39 22 22 -8 21 -106 -4 -97 -24 -257 -50 -265 -43 -7 8 37 37 167
112 74 43 161 95 192 116 31 22 62 39 67 39 16 0 13 26 -4 40 -8 7 -15 22 -15
33 0 29 -78 127 -101 127 -19 0 -34 -13 -68 -59 l-18 -25 -18 35 c-10 18 -21
36 -24 39 -18 15 -74 95 -86 123 -7 19 -15 89 -18 169 -3 75 -8 142 -12 147
-12 20 -40 11 -72 -23z m16 -115 c0 -38 3 -86 7 -107 7 -37 6 -38 -12 -24 -10
8 -35 30 -54 48 -19 18 -48 40 -63 48 -27 15 -28 16 -10 29 10 8 21 15 25 15
4 0 27 13 50 30 24 16 46 30 50 30 4 0 7 -31 7 -69z m94 -293 l104 -103 -59
-75 c-67 -85 -73 -92 -144 -175 -28 -33 -56 -70 -63 -82 -14 -27 -37 -30 -45
-5 -9 27 -76 92 -102 98 -32 8 -36 27 -24 114 5 41 10 78 10 83 0 18 -27 3
-72 -39 -52 -48 -80 -53 -36 -6 14 15 33 41 42 59 9 18 33 49 54 69 37 36 211
164 223 164 4 0 54 -46 112 -102z m227 -89 c40 -41 62 -92 45 -105 -48 -36
-221 -148 -257 -166 -24 -12 -58 -33 -77 -45 -19 -13 -38 -23 -43 -23 -9 0 53
83 78 105 7 6 29 35 49 65 46 67 157 200 166 200 4 0 21 -14 39 -31z m-670
-64 c-24 -31 -46 -58 -50 -60 -4 -2 -17 6 -30 20 l-22 23 31 16 c17 9 47 27
67 41 21 14 39 23 42 20 3 -2 -14 -29 -38 -60z m67 -162 c-3 -2 -27 -1 -53 3
l-47 7 49 46 49 46 3 -49 c2 -26 1 -50 -1 -53z m128 -222 c-13 -11 -130 -51
-151 -51 -10 0 -14 -6 -11 -14 4 -10 -6 -18 -31 -26 -20 -7 -61 -25 -89 -41
-29 -16 -54 -29 -55 -29 -2 0 -3 31 -3 70 l0 70 100 0 c55 1 123 7 150 15 58
16 104 19 90 6z"/>
</g>
</svg>
