<?xml version="1.0" standalone="no"?>
<!DOCTYPE svg PUBLIC "-//W3C//DTD SVG 20010904//EN"
 "http://www.w3.org/TR/2001/REC-SVG-20010904/DTD/svg10.dtd">
<svg version="1.0" xmlns="http://www.w3.org/2000/svg"
 width="305.000000pt" height="156.000000pt" viewBox="0 0 305.000000 156.000000"
 preserveAspectRatio="xMidYMid meet">
<metadata>
Created by potrace 1.16, written by Peter Selinger 2001-2019
</metadata>
<g transform="translate(0.000000,156.000000) scale(0.100000,-0.100000)"
fill="#000000" stroke="none">
<path d="M769 1456 c-13 -9 -14 -22 -9 -71 8 -68 15 -56 -94 -154 -38 -34 -74
-60 -79 -58 -6 2 -50 -18 -97 -45 -47 -27 -113 -63 -147 -80 -35 -18 -63 -37
-63 -43 0 -14 -125 -84 -163 -92 -16 -3 -31 -12 -34 -20 -3 -8 -12 -12 -20 -9
-18 7 -29 -20 -14 -37 6 -8 12 -24 14 -37 2 -12 12 -29 22 -36 18 -14 18 -15
-3 -44 -27 -36 -28 -60 -2 -60 10 0 42 -13 70 -30 28 -16 55 -30 60 -30 4 0
53 -20 107 -44 121 -54 136 -60 146 -58 4 1 7 -2 7 -7 0 -9 203 -111 220 -111
6 0 10 -4 10 -8 0 -5 18 -17 41 -27 22 -10 46 -27 54 -38 15 -22 51 -19 49 5
-1 9 4 15 10 13 13 -4 942 -19 1106 -17 291 2 716 12 727 17 10 3 13 -22 13
-106 0 -113 10 -152 34 -143 13 5 21 105 17 207 -1 16 2 33 6 40 3 6 8 35 9
64 7 121 65 258 141 330 30 29 30 48 1 38 -62 -20 -172 -16 -138 5 11 7 9 15
-12 42 -35 45 -87 98 -143 143 -25 21 -44 42 -42 48 1 5 18 12 37 14 32 3 66
22 44 24 -5 1 -18 2 -29 3 -11 1 -35 3 -52 4 -25 2 -33 7 -33 21 0 10 7 24 15
31 9 7 13 15 11 18 -3 2 1 17 9 33 8 15 15 36 15 47 0 22 40 62 63 62 9 0 19
5 22 10 3 6 -1 10 -10 10 -13 0 -10 7 11 35 28 37 27 59 -1 31 -22 -22 -53
-28 -106 -22 -24 2 -48 5 -53 5 -5 1 1 13 15 27 24 26 26 26 125 20 77 -4 105
-2 120 8 16 12 12 15 -46 20 -36 3 -163 8 -283 11 -255 7 -423 20 -456 37 -21
11 -26 10 -46 -16 -19 -24 -21 -33 -13 -58 6 -16 8 -42 6 -59 -5 -31 17 -62
30 -43 8 11 49 29 101 44 33 9 33 9 16 -10 -9 -10 -29 -20 -44 -22 -16 -2 -26
-9 -26 -19 0 -24 -19 -42 -113 -117 -46 -37 -79 -68 -73 -70 6 -2 11 -8 11
-13 0 -6 -23 -9 -52 -7 l-53 3 -6 42 c-3 24 -2 46 2 50 4 5 14 32 22 61 17 61
8 75 -31 43 -15 -12 -53 -34 -84 -49 -55 -25 -82 -52 -54 -52 8 0 22 -17 31
-37 10 -21 20 -42 23 -47 7 -13 -58 4 -95 25 -19 11 -42 19 -53 19 -11 0 -20
5 -20 10 0 13 -26 13 -51 -1 -16 -8 -18 -13 -8 -25 12 -14 9 -85 -7 -161 -6
-29 -4 -33 16 -33 12 0 33 9 46 19 14 11 49 27 77 37 29 9 67 25 85 35 l32 18
16 -37 c8 -20 22 -68 30 -107 8 -38 28 -96 44 -129 17 -33 27 -62 24 -65 -8
-8 -290 -12 -319 -5 -14 3 -33 25 -50 57 -16 29 -49 79 -75 112 -39 51 -190
295 -190 308 0 3 -18 35 -40 71 -22 36 -40 70 -40 75 0 5 -7 14 -16 22 -10 8
-14 22 -10 39 9 50 -31 66 -71 28 l-23 -21 0 22 c0 12 7 32 16 45 20 31 9 36
-51 25 -27 -5 -57 -7 -66 -4 -38 12 -55 13 -70 1z m137 -53 c-3 -10 -12 -47
-20 -83 -18 -81 -56 -223 -62 -229 -4 -4 -7 63 -8 172 -1 33 2 61 7 63 13 9 8
24 -8 24 -10 0 -15 10 -15 28 0 16 2 31 4 33 3 2 28 5 56 7 46 2 51 1 46 -15z
m1242 -8 c13 -12 -49 -39 -83 -35 -3 0 -21 -6 -40 -14 l-35 -15 0 41 0 41 77
-7 c43 -4 79 -9 81 -11z m189 -32 c-9 -10 -29 -18 -44 -19 -30 -1 -45 -24 -16
-24 15 -1 14 -4 -8 -24 -24 -21 -34 -23 -100 -18 -41 2 -76 6 -78 8 -2 2 11
16 29 31 29 25 115 49 225 62 5 0 2 -7 -8 -16z m183 7 c0 -19 -46 -33 -105
-31 -68 3 -73 5 -55 26 9 11 32 15 86 15 41 0 74 -4 74 -10z m-1516 -55 c6
-17 4 -18 -18 -9 -20 8 -21 24 -2 24 8 0 16 -7 20 -15z m1456 -4 c3 -1 -8 -10
-25 -21 -23 -15 -47 -20 -99 -20 l-69 0 24 26 c22 24 28 25 94 21 38 -3 72 -6
75 -6z m136 -11 c13 0 24 -5 24 -11 0 -7 -23 -10 -65 -7 -36 1 -65 0 -65 -4 0
-5 -10 -8 -22 -8 -21 0 -21 0 -2 21 16 18 26 20 63 15 24 -3 54 -6 67 -6z
m-1811 -475 c0 -377 -2 -455 -14 -455 -7 0 -11 6 -8 14 3 8 -8 20 -31 30 -60
29 -251 160 -256 176 -12 37 -8 118 7 153 9 21 26 76 37 123 11 46 30 105 43
131 23 48 28 73 14 73 -4 0 -30 -11 -59 -25 -57 -28 -74 -28 -31 0 39 26 159
125 228 189 33 30 62 53 64 50 3 -3 5 -209 6 -459z m202 435 c31 -19 60 -49
83 -85 84 -134 203 -312 225 -335 12 -14 41 -55 64 -92 l41 -68 -41 0 c-35 0
-42 4 -57 32 -9 17 -25 39 -34 50 -10 10 -18 21 -18 24 0 3 -47 76 -103 162
-57 86 -120 187 -141 223 -20 37 -47 78 -61 93 -32 34 -17 33 42 -4z m-29 -83
c43 -72 213 -325 277 -412 12 -16 28 -40 34 -52 11 -21 9 -21 -31 -17 -23 2
-47 9 -53 16 -27 31 -178 273 -233 375 -50 91 -60 119 -56 143 4 16 8 30 10
30 2 0 25 -37 52 -83z m1621 70 c-8 -7 -18 -20 -22 -29 -5 -15 -19 -18 -70
-18 -71 0 -81 4 -67 31 8 14 25 19 73 22 34 2 71 4 82 5 18 1 18 0 4 -11z
m-369 -6 c0 -3 -7 -13 -17 -23 -13 -14 -31 -18 -89 -18 l-74 0 22 25 c21 24
28 26 90 23 37 -2 68 -5 68 -7z m159 -17 c-16 -15 -33 -18 -102 -16 -42 2 -46
4 -34 16 17 17 48 22 106 17 36 -3 41 -5 30 -17z m-354 -14 c-3 -5 -12 -10
-18 -10 -7 0 -6 4 3 10 19 12 23 12 15 0z m-315 -19 c0 -4 -5 -23 -11 -41
l-12 -33 -15 28 c-13 26 -13 30 4 42 20 15 34 17 34 4z m268 -33 c-19 -28 -45
-45 -55 -35 -7 8 44 56 61 57 5 0 2 -10 -6 -22z m181 13 c24 -16 4 -42 -31
-41 -18 0 -60 -3 -93 -6 l-60 -6 28 29 c24 26 36 30 85 31 31 1 63 -2 71 -7z
m173 -3 c-20 -20 -13 -32 7 -14 19 17 19 17 15 -1 -5 -17 -16 -20 -90 -22
l-85 -2 17 26 c15 23 23 25 82 25 51 0 63 -3 54 -12z m176 4 c9 -7 8 -13 -8
-27 -15 -14 -34 -18 -73 -16 -28 1 -53 3 -54 5 -1 1 4 12 13 24 12 17 25 22
62 22 26 0 53 -4 60 -8z m-1966 -52 c-18 -17 -37 -30 -44 -30 -14 0 -8 6 34
36 45 32 49 29 10 -6z m369 -2 c7 -18 66 -113 132 -211 65 -98 121 -185 124
-194 5 -13 -3 -14 -53 -8 -32 4 -59 8 -59 9 0 11 -102 200 -142 264 -54 86
-54 87 -42 129 6 24 15 43 19 43 4 0 14 -14 21 -32z m1631 10 c-7 -7 -12 -8
-12 -2 0 14 12 26 19 19 2 -3 -1 -11 -7 -17z m-312 -49 c-31 -19 -100 -26
-100 -10 0 24 50 40 103 32 l28 -3 -31 -19z m-306 12 c3 -5 0 -14 -8 -20 -11
-9 -15 -7 -19 9 -5 20 16 29 27 11z m117 2 c-10 -4 -8 -9 10 -19 22 -12 18
-13 -43 -14 -38 0 -68 2 -68 4 0 18 37 36 73 35 23 0 36 -3 28 -6z m287 -5
c-3 -7 -13 -13 -23 -13 -10 0 -20 6 -22 13 -3 7 5 12 22 12 17 0 25 -5 23 -12z
m101 -13 c-24 -25 -71 -41 -89 -30 -4 3 -3 16 3 30 10 22 19 25 62 25 l50 0
-26 -25z m101 16 c0 -36 -21 -49 -49 -32 -12 8 -12 12 -2 25 14 17 51 22 51 7z
m-1022 -20 c9 -6 41 -18 69 -28 l53 -19 -81 -26 -81 -27 6 22 c3 12 6 37 6 55
0 35 2 37 28 23z m338 -75 c16 -15 65 -45 109 -67 72 -37 120 -74 225 -175 33
-32 70 -45 70 -25 0 5 -17 21 -37 36 -36 27 -263 252 -263 261 0 8 78 4 82 -4
2 -4 29 -22 60 -40 32 -18 103 -68 157 -113 55 -45 106 -79 112 -77 7 2 -13
24 -44 48 -31 25 -57 50 -57 56 0 6 -19 24 -42 41 -48 35 -98 79 -98 88 0 3
14 5 31 5 35 0 101 -28 94 -40 -3 -4 8 -12 23 -18 15 -5 56 -33 90 -61 33 -28
66 -51 72 -51 6 0 33 -20 59 -45 26 -25 51 -45 55 -45 21 0 -4 36 -70 101 -69
66 -124 129 -124 140 0 2 28 4 63 4 68 0 92 -12 172 -88 22 -21 56 -45 75 -53
19 -8 49 -34 67 -57 l32 -41 -30 -13 c-30 -12 -37 -27 -19 -38 6 -3 10 -17 10
-31 l0 -24 -157 7 c-169 8 -232 9 -526 3 -155 -3 -190 -1 -198 11 -17 28 -58
145 -78 224 -11 44 -23 89 -27 99 -7 17 -3 19 38 14 31 -4 55 -14 74 -32z
m144 -53 c0 -10 -49 12 -94 43 -43 29 -46 33 -25 36 17 2 39 -9 72 -36 26 -21
47 -41 47 -43z m-1580 73 c0 -13 -177 -115 -200 -115 -8 0 -1 7 15 16 17 9 44
26 60 39 17 13 51 32 75 43 49 22 50 23 50 17z m516 -121 c27 -49 59 -111 71
-137 l22 -48 -24 0 c-18 0 -35 17 -76 80 -34 51 -56 77 -63 70 -6 -6 0 -23 16
-47 64 -98 62 -93 44 -93 -9 0 -16 7 -16 15 0 18 -14 19 -41 5 -22 -12 -21
-19 -20 140 1 57 4 113 7 123 6 18 6 18 18 0 7 -10 35 -58 62 -108z m-386 109
c0 -3 -4 -14 -10 -24 -5 -10 -20 -55 -34 -101 l-24 -83 -7 82 c-4 45 -8 85 -9
88 0 4 15 15 34 25 36 20 50 23 50 13z m1774 -10 c3 -8 2 -12 -4 -9 -6 3 -10
10 -10 16 0 14 7 11 14 -7z m-1883 -93 c0 -25 2 -101 3 -167 l2 -122 -87 59
c-48 33 -91 59 -96 59 -5 0 -20 11 -32 24 l-23 25 51 50 c28 28 51 55 51 60 0
6 24 28 53 50 46 35 53 37 65 23 6 -9 12 -36 13 -61z m-241 -5 c0 -2 -9 -6
-20 -9 -11 -3 -18 -1 -14 4 5 9 34 13 34 5z m20 -51 c-13 -14 -32 -25 -42 -25
-30 0 -20 17 20 33 49 21 49 21 22 -8z m-10 -125 c14 -11 28 -20 32 -20 15 0
220 -144 210 -148 -6 -2 -57 20 -113 47 -56 28 -107 51 -113 51 -6 0 -27 13
-46 29 -29 25 -32 31 -21 45 17 20 20 20 51 -4z m2607 -90 c-32 -69 -32 -70
-39 -37 -4 17 -4 49 -1 70 5 34 8 37 38 37 l33 0 -31 -70z m-1877 44 c30 -5
41 -15 75 -70 40 -65 71 -101 80 -93 2 3 -6 20 -18 39 -25 39 -67 111 -67 117
0 1 11 3 24 3 17 0 27 -7 32 -22 13 -42 72 -124 81 -114 2 2 -10 32 -27 67
l-30 64 36 3 c60 5 81 -5 121 -63 43 -62 66 -75 30 -17 -13 20 -27 43 -31 50
-5 9 5 12 41 12 44 0 50 -3 73 -38 13 -20 40 -57 59 -82 20 -25 37 -47 38 -49
2 -2 6 -2 9 1 6 7 -20 51 -52 88 -12 14 -30 38 -40 54 l-18 29 44 -7 c35 -5
52 -14 73 -41 37 -45 68 -49 37 -4 -12 16 -21 32 -18 34 3 4 708 19 823 18 55
0 340 -9 393 -12 22 -1 22 -3 22 -135 0 -74 -4 -137 -9 -140 -4 -3 -125 -6
-267 -7 -142 0 -284 -5 -314 -10 -50 -9 -299 -12 -361 -4 -15 2 -195 6 -400 9
-206 4 -399 9 -431 12 -33 3 -64 1 -77 -5 -19 -11 -20 -8 -23 56 -2 38 -2 114
0 171 l3 103 27 -5 c15 -3 43 -8 62 -12z m-372 -178 c56 -32 65 -49 10 -20
-32 16 -93 61 -73 53 6 -2 34 -17 63 -33z"/>
</g>
</svg>
