<?xml version="1.0" standalone="no"?>
<!DOCTYPE svg PUBLIC "-//W3C//DTD SVG 20010904//EN"
 "http://www.w3.org/TR/2001/REC-SVG-20010904/DTD/svg10.dtd">
<svg version="1.0" xmlns="http://www.w3.org/2000/svg"
 width="150.000000pt" height="180.000000pt" viewBox="0 0 150.000000 180.000000"
 preserveAspectRatio="xMidYMid meet">
<metadata>
Created by potrace 1.16, written by Peter Selinger 2001-2019
</metadata>
<g transform="translate(0.000000,180.000000) scale(0.100000,-0.100000)"
fill="#000000" stroke="none">
<path d="M848 1726 c-21 -6 -57 -30 -80 -52 -52 -50 -112 -95 -130 -98 -24 -3
-38 -17 -38 -37 0 -22 4 -23 32 -8 17 9 28 5 67 -22 45 -31 101 -87 101 -101
0 -3 -28 -28 -62 -55 -34 -26 -97 -81 -140 -121 -50 -47 -99 -82 -135 -98 -32
-14 -65 -29 -73 -33 -23 -12 -24 -41 -2 -57 11 -7 22 -27 24 -43 4 -25 -2 -37
-29 -63 -38 -36 -40 -46 -16 -55 10 -4 36 -21 58 -39 22 -17 65 -44 95 -59 65
-33 109 -68 132 -105 16 -27 16 -29 -10 -53 -47 -44 -372 -198 -423 -201 -48
-2 -80 -48 -40 -59 19 -5 81 -104 81 -131 0 -18 34 -56 50 -56 6 0 10 12 10
28 0 18 15 43 48 78 26 28 61 66 78 85 64 70 284 274 301 279 51 16 95 50 63
50 -22 0 -6 17 53 58 91 63 305 201 343 220 11 6 35 24 52 40 l30 28 -21 35
c-29 46 -66 79 -88 79 -10 0 -27 6 -36 14 -10 8 -43 35 -74 60 -51 41 -58 51
-78 118 -46 152 -81 304 -81 352 0 39 -4 41 -62 22z m36 -151 c8 -44 26 -113
39 -152 14 -40 21 -73 17 -73 -10 0 -60 59 -60 70 0 5 5 12 12 16 8 5 6 11 -7
20 -15 11 -19 31 -22 110 -1 54 -1 95 1 93 2 -2 11 -40 20 -84z m-80 33 c3
-18 8 -53 11 -77 l6 -43 -30 23 c-16 13 -42 33 -57 43 l-27 19 39 34 c21 18
42 33 46 33 4 0 9 -15 12 -32z m116 -309 c49 -45 102 -91 119 -103 17 -11 31
-24 31 -29 0 -11 -324 -407 -333 -407 -1 0 0 21 2 46 2 29 14 64 32 92 16 25
34 61 40 81 16 48 77 172 95 192 22 24 18 42 -8 35 -13 -3 -69 -6 -125 -6
l-103 0 0 -42 c0 -24 4 -68 9 -100 12 -73 17 -305 7 -315 -26 -26 -182 237
-169 286 3 14 1 26 -7 31 -10 6 6 29 56 84 61 68 247 236 260 236 3 0 45 -37
94 -81z m-78 -156 c-4 -10 -17 -36 -28 -58 -12 -22 -29 -64 -38 -92 -10 -29
-21 -55 -25 -58 -8 -4 -52 204 -46 215 2 3 35 6 74 8 64 2 70 1 63 -15z m293
-13 c3 -5 15 -10 25 -10 18 0 70 -53 70 -71 0 -5 -33 -30 -72 -55 -40 -26
-104 -70 -143 -99 -38 -29 -94 -65 -124 -80 l-54 -27 49 64 c27 34 54 68 59
74 6 6 46 56 89 112 44 56 83 102 87 102 4 0 11 -4 14 -10z m-660 -50 c-18
-20 -45 -27 -45 -12 0 15 24 32 44 32 18 0 19 -1 1 -20z m20 -127 c3 -15 12
-34 18 -42 13 -15 38 -83 33 -88 -2 -2 -32 18 -67 44 -35 26 -66 48 -67 49 -7
5 61 73 68 69 4 -3 11 -17 15 -32z m-65 -548 c-63 -63 -118 -115 -122 -115 -4
0 -19 22 -33 50 l-25 49 22 15 c13 8 43 22 67 32 24 9 78 34 120 55 42 20 78
35 81 33 2 -3 -47 -56 -110 -119z"/>
</g>
</svg>
