<?xml version="1.0" standalone="no"?>
<!DOCTYPE svg PUBLIC "-//W3C//DTD SVG 20010904//EN"
 "http://www.w3.org/TR/2001/REC-SVG-20010904/DTD/svg10.dtd">
<svg version="1.0" xmlns="http://www.w3.org/2000/svg"
 width="142.000000pt" height="182.000000pt" viewBox="0 0 142.000000 182.000000"
 preserveAspectRatio="xMidYMid meet">
<metadata>
Created by potrace 1.16, written by Peter Selinger 2001-2019
</metadata>
<g transform="translate(0.000000,182.000000) scale(0.100000,-0.100000)"
fill="#000000" stroke="none">
<path d="M992 1660 c-26 -23 -49 -37 -58 -33 -12 4 -127 -65 -144 -87 -3 -4
-26 -18 -51 -32 -25 -14 -54 -31 -65 -37 -38 -22 -229 -101 -246 -101 -27 0
-48 -11 -48 -26 0 -8 6 -14 13 -14 7 0 20 -9 30 -20 9 -11 23 -20 31 -20 17 0
46 -43 46 -67 0 -19 -41 -85 -77 -123 -13 -13 -23 -27 -23 -31 0 -18 19 -17
40 1 27 24 78 25 135 5 22 -8 59 -15 81 -15 33 0 51 -8 90 -39 62 -49 137 -91
163 -91 38 0 30 -17 -20 -40 -72 -34 -81 -49 -29 -48 35 0 48 -6 82 -38 22
-22 51 -59 65 -84 15 -25 35 -55 46 -67 l20 -23 -89 0 c-84 0 -161 17 -190 41
-33 27 -74 -34 -74 -110 0 -82 22 -106 53 -57 9 13 38 32 64 42 26 10 57 23
68 30 11 7 54 14 95 17 43 2 76 9 78 16 4 12 22 5 22 -9 0 -4 -21 -21 -47 -38
-27 -16 -77 -53 -113 -82 -36 -29 -85 -61 -109 -71 -38 -17 -46 -18 -60 -5 -9
7 -44 28 -78 45 l-63 31 6 85 c5 84 5 85 -18 85 -13 0 -34 -12 -47 -25 -13
-14 -25 -24 -27 -22 -5 5 41 113 55 131 7 8 56 43 109 76 90 56 152 102 152
114 0 6 -98 -50 -179 -102 -35 -23 -71 -42 -80 -42 -9 0 -31 -13 -49 -30 -18
-16 -49 -34 -70 -40 -80 -23 -143 -69 -95 -70 23 -1 43 -16 70 -56 l22 -31
-21 -21 c-30 -30 -16 -39 20 -13 17 12 34 21 40 21 5 0 21 9 35 20 28 22 34
18 33 -20 -1 -17 -6 -24 -16 -21 -49 13 -72 13 -68 0 3 -8 14 -19 26 -25 12
-6 30 -18 39 -27 10 -8 51 -32 91 -51 64 -32 91 -56 62 -56 -5 0 -10 -4 -10
-10 0 -5 11 -10 25 -10 13 0 41 -11 61 -25 57 -39 97 -29 108 26 17 87 78 153
201 218 25 13 45 29 45 37 0 7 -13 29 -30 47 -62 71 -97 149 -105 233 -4 44
-11 82 -17 85 -15 10 32 121 66 152 17 16 60 51 96 79 83 63 85 80 17 148 -28
28 -62 61 -77 74 -47 39 -60 67 -51 108 10 43 6 172 -6 175 -4 1 -27 -15 -51
-37z m19 -47 c0 -10 2 -27 3 -39 1 -11 0 -28 -3 -37 -5 -13 -12 -10 -40 15
l-35 31 28 23 c32 29 46 30 47 7z m-51 -124 c36 -45 74 -88 84 -98 10 -9 32
-28 49 -42 l30 -26 -76 9 c-42 4 -115 14 -161 23 -111 19 -141 10 -150 -45 -3
-21 -3 -59 1 -85 6 -46 7 -47 38 -42 17 3 62 26 99 52 66 47 68 47 154 50 48
1 95 5 104 10 11 4 27 0 43 -13 l25 -20 -42 -34 c-24 -19 -61 -48 -83 -63 -22
-16 -62 -46 -90 -66 -27 -21 -70 -45 -95 -55 -25 -10 -48 -22 -52 -28 -4 -7
-22 3 -45 26 -21 20 -59 49 -85 66 -26 16 -66 46 -89 67 -35 31 -40 41 -31 55
8 13 7 21 -6 34 -16 15 -15 20 11 69 22 42 35 56 65 66 46 16 102 58 102 75 0
7 21 28 48 46 26 19 49 38 50 42 10 24 44 -1 102 -73z m-414 -114 c-11 -8 -25
-15 -30 -15 -6 1 0 7 14 15 32 19 40 18 16 0z m1 -52 c-15 -16 -17 -16 -17 -1
0 9 6 18 13 21 20 7 22 -2 4 -20z m337 -23 c10 -9 -84 -71 -96 -64 -4 3 -8 23
-8 46 l0 40 48 -7 c26 -4 51 -10 56 -15z m-288 -170 c24 -22 42 -40 40 -40 -2
0 -20 7 -39 15 -20 8 -52 15 -72 15 l-35 0 16 25 c22 34 40 32 90 -15z m388
-87 c-7 -16 -14 -34 -14 -40 0 -17 -6 -16 -36 4 l-26 17 44 22 c23 13 44 23
45 24 1 0 -5 -12 -13 -27z m-94 -64 c17 -13 18 -17 5 -10 -33 17 -51 31 -40
31 6 0 21 -10 35 -21z m89 -133 c1 -18 -1 -18 -25 5 -24 22 -24 24 -7 37 15
11 19 10 25 -5 3 -10 7 -27 7 -37z m-454 -176 c-18 -34 -18 -34 -48 -18 -21
11 -20 12 18 29 22 10 41 18 43 18 1 1 -4 -12 -13 -29z m294 -61 c37 -13 33
-20 -22 -43 l-38 -15 3 34 c2 38 9 41 57 24z m46 -236 c-8 -35 -9 -35 -29 -27
-23 9 -20 29 7 42 12 6 24 11 26 11 2 1 0 -11 -4 -26z"/>
</g>
</svg>
