<?xml version="1.0" standalone="no"?>
<!DOCTYPE svg PUBLIC "-//W3C//DTD SVG 20010904//EN"
 "http://www.w3.org/TR/2001/REC-SVG-20010904/DTD/svg10.dtd">
<svg version="1.0" xmlns="http://www.w3.org/2000/svg"
 width="261.000000pt" height="145.000000pt" viewBox="0 0 261.000000 145.000000"
 preserveAspectRatio="xMidYMid meet">
<metadata>
Created by potrace 1.16, written by Peter Selinger 2001-2019
</metadata>
<g transform="translate(0.000000,145.000000) scale(0.100000,-0.100000)"
fill="#000000" stroke="none">
<path d="M1767 1373 c-3 -2 -50 -4 -106 -4 -92 1 -101 -1 -111 -20 -10 -17 -8
-21 8 -26 23 -5 56 -48 65 -81 5 -22 4 -23 -53 -20 -32 1 -62 0 -65 -4 -12
-12 5 -28 29 -28 37 0 38 -11 4 -37 -39 -28 -48 -29 -48 -4 0 11 -5 32 -10 47
l-11 28 -21 -21 c-20 -20 -20 -23 -5 -61 9 -22 13 -42 10 -46 -3 -3 0 -13 8
-22 7 -9 12 -33 10 -54 -1 -21 2 -41 7 -44 5 -3 7 -17 5 -31 -7 -34 5 -75 21
-75 18 0 25 -28 15 -57 -12 -34 10 -39 37 -10 30 33 88 77 101 77 5 0 10 -24
12 -52 2 -55 16 -75 38 -56 9 7 10 14 3 23 -5 6 -11 29 -12 51 -3 38 -2 39 34
42 l37 3 3 -58 c2 -44 7 -59 19 -61 15 -3 16 5 12 62 -5 62 -5 66 16 66 19 0
21 -6 21 -52 0 -62 8 -98 22 -98 6 0 8 32 6 75 -3 83 0 88 63 82 25 -2 27 -6
31 -55 5 -55 21 -84 37 -66 5 5 6 31 1 59 -10 69 -6 76 46 74 74 -4 75 21 1
30 -30 4 -43 11 -45 25 -5 26 11 39 59 45 24 3 44 12 47 20 4 11 -7 13 -51 9
-42 -3 -58 -1 -62 10 -12 32 -5 41 35 44 22 2 40 8 40 13 0 10 -9 12 -64 14
-24 1 -27 3 -16 16 7 8 30 20 51 25 35 10 57 33 27 29 -60 -7 -64 32 -13 111
19 30 35 58 35 63 0 12 -50 8 -80 -8 -22 -12 -29 -12 -33 -2 -4 10 -33 14
-105 14 -55 1 -102 -1 -105 -4z m47 -80 c-14 -32 -28 -64 -31 -70 -9 -23 -21
-4 -28 47 -4 28 -10 50 -15 50 -15 0 -19 -28 -10 -61 11 -38 9 -41 -25 -45
-29 -3 -31 6 -9 69 17 50 40 65 106 66 l38 1 -26 -57z m126 52 c0 -3 -11 -27
-25 -54 -13 -27 -23 -50 -21 -52 2 -2 -2 -10 -9 -16 -15 -14 -18 -8 -29 58 -4
24 -2 40 6 47 19 15 78 28 78 17z m96 -22 c-7 -16 -21 -46 -30 -67 -9 -22 -18
-37 -21 -34 -3 2 -9 26 -14 52 -8 46 -8 47 23 61 50 22 59 19 42 -12z m-367
-10 c-1 -21 -16 -70 -19 -63 -1 3 -3 13 -5 24 -2 10 -8 23 -14 29 -18 18 -13
27 14 27 18 0 25 -5 24 -17z m271 -68 c0 -24 -5 -35 -15 -35 -18 0 -19 11 -3
45 15 33 18 32 18 -10z m-100 -22 c0 -7 -9 -13 -20 -13 -17 0 -18 3 -8 25 8
19 14 22 20 13 4 -7 8 -19 8 -25z m-100 -62 c0 -11 3 -26 6 -35 5 -13 -1 -16
-29 -16 -31 0 -35 3 -39 30 -5 36 -6 35 32 38 24 2 30 -2 30 -17z m97 -11 c1
-20 -2 -30 -12 -30 -7 0 -20 -3 -29 -6 -10 -4 -17 2 -22 20 -8 33 1 46 34 46
23 0 27 -5 29 -30z m111 6 c5 -25 -10 -33 -52 -28 -35 4 -35 4 -19 29 19 29
66 29 71 -1z m-298 -28 c0 -15 -9 -18 -45 -18 -25 0 -45 2 -45 5 0 3 17 15 38
29 38 24 52 20 52 -16z m297 -42 c2 -1 4 -13 5 -26 3 -21 -2 -24 -39 -28 l-43
-3 0 35 c0 36 0 36 38 30 20 -3 38 -7 39 -8z m-413 -2 c22 -9 20 -24 -9 -59
l-25 -30 4 30 c2 17 5 38 5 48 1 19 3 20 25 11z m306 -29 c0 -31 -3 -35 -25
-35 -21 0 -25 5 -25 28 0 33 7 42 32 42 14 0 18 -8 18 -35z m-80 -5 c0 -28 -3
-30 -35 -30 -30 0 -35 3 -35 24 0 25 7 31 46 34 20 1 24 -3 24 -28z m-100 -5
c0 -23 -3 -25 -50 -25 -47 0 -50 1 -40 19 12 23 25 29 63 30 22 1 27 -3 27
-24z m-63 -60 c2 -1 -15 -16 -37 -34 l-40 -32 0 29 c0 37 17 53 49 45 14 -3
27 -7 28 -8z m371 -12 c-3 -26 -7 -28 -50 -31 -47 -3 -48 -3 -48 27 0 30 1 31
51 31 49 0 50 -1 47 -27z m-128 -13 c0 -23 -4 -30 -20 -30 -16 0 -20 7 -20 30
0 23 4 30 20 30 16 0 20 -7 20 -30z m-70 -10 c0 -25 -4 -30 -24 -30 -41 0 -53
9 -48 36 4 20 10 24 38 24 31 0 34 -3 34 -30z m-100 -10 c0 -16 -7 -20 -34
-20 -42 0 -56 17 -24 29 39 16 58 13 58 -9z m-60 -60 c0 -3 -13 -13 -29 -23
-28 -17 -29 -16 -33 8 -7 33 8 45 38 31 13 -6 24 -13 24 -16z"/>
<path d="M1003 1180 c-12 -5 -53 -11 -92 -14 -38 -4 -76 -9 -85 -12 -20 -8
-29 -39 -18 -61 6 -10 12 -38 14 -63 3 -44 2 -45 -24 -42 -21 3 -27 0 -22 -11
3 -10 -13 -20 -58 -37 -35 -12 -99 -40 -143 -62 -179 -88 -257 -110 -389 -112
-55 -1 -61 -3 -77 -30 -11 -18 -15 -35 -10 -45 5 -9 16 -47 26 -84 12 -44 25
-71 36 -75 15 -6 10 -17 -31 -82 -57 -87 -54 -101 17 -89 70 11 211 11 218 -1
4 -6 11 -8 16 -5 16 11 89 -38 96 -63 3 -13 3 -44 -1 -69 -4 -32 -3 -44 6 -41
12 4 20 26 32 81 l6 27 78 -39 c42 -21 90 -41 105 -45 52 -12 97 -48 97 -78 0
-33 13 -43 30 -23 7 8 18 15 25 15 14 0 28 27 21 39 -10 16 -9 157 1 176 6 11
32 28 58 37 48 18 62 15 107 -20 9 -8 22 -11 29 -6 7 4 10 3 6 -2 -3 -5 35
-38 85 -73 49 -35 92 -70 95 -77 8 -20 53 -47 53 -31 0 13 -132 119 -164 130
-10 4 -16 10 -13 13 3 3 19 -2 37 -11 44 -23 49 -12 6 13 -20 12 -38 16 -43
11 -5 -5 -17 -3 -29 7 -18 15 -18 15 4 4 45 -22 21 9 -28 36 -27 15 -50 30
-50 33 0 3 18 14 39 24 42 19 87 22 96 7 14 -23 220 -170 238 -170 21 0 1 22
-50 56 -32 21 -69 49 -83 62 -14 12 -41 33 -60 45 l-35 22 50 7 c42 6 55 4 78
-13 30 -22 48 -19 28 4 -9 12 -4 15 26 21 21 3 58 6 83 6 25 0 63 5 85 10 22
4 111 11 198 14 87 3 161 7 165 10 4 2 28 7 52 10 25 3 71 10 103 14 31 5 82
7 112 6 31 -2 55 1 55 6 0 6 5 10 10 10 6 0 10 -40 10 -99 0 -110 13 -164 39
-159 12 3 15 12 11 38 -13 101 5 272 35 328 30 58 49 82 64 82 6 0 11 6 11 14
0 8 15 27 34 44 37 33 72 80 64 88 -3 3 -36 0 -73 -6 -98 -16 -163 -11 -171
12 -8 27 -32 22 -49 -12 -19 -36 -19 -40 0 -40 9 0 15 -9 15 -25 0 -20 -5 -25
-24 -25 -13 0 -35 -9 -50 -21 -23 -18 -44 -21 -164 -26 -75 -3 -142 -9 -148
-14 -15 -12 -585 -15 -606 -3 -9 5 -51 40 -94 79 -42 38 -101 89 -130 113 -30
25 -54 51 -54 58 0 27 42 104 81 148 21 24 39 49 39 55 0 13 -26 13 -57 1z
m-60 -110 c-19 -32 -41 -61 -49 -64 -10 -4 -13 -13 -9 -26 4 -11 2 -20 -4 -20
-6 0 -11 12 -11 28 0 15 -7 52 -15 82 -8 30 -15 56 -15 57 0 5 51 8 92 5 l46
-4 -35 -58z m-105 -165 c-2 -9 -8 -12 -17 -6 -11 7 -11 13 0 32 11 20 14 21
17 7 2 -10 2 -25 0 -33z m-69 3 c7 -16 5 -26 -5 -34 -8 -6 -14 -16 -14 -23 0
-18 -26 -24 -49 -11 -27 14 -27 -1 -1 -20 29 -21 25 -30 -12 -30 -28 0 -30 -1
-14 -13 13 -10 15 -18 8 -37 -5 -14 -9 -28 -8 -31 2 -13 -37 -49 -54 -49 -21
0 -46 -70 -28 -81 8 -5 2 -23 -20 -59 -18 -28 -32 -55 -32 -59 0 -5 -7 -14
-15 -21 -21 -17 -19 -5 11 89 14 44 43 104 63 133 21 30 36 59 34 65 -4 11
-137 -18 -175 -38 -19 -10 -24 -39 -9 -54 16 -16 23 -74 22 -174 -1 -99 -5
-116 -24 -90 -7 8 -37 27 -67 41 -31 15 -77 45 -103 68 -69 61 -64 80 53 191
51 49 96 89 101 89 5 0 26 15 46 34 45 40 105 73 208 114 65 26 74 26 84 0z
m224 -17 c23 -16 73 -59 111 -95 l70 -66 -66 0 c-60 0 -71 3 -127 41 -72 48
-91 72 -91 116 0 30 3 33 31 33 17 0 48 -12 72 -29z m-178 -21 c3 -5 -1 -10
-10 -10 -9 0 -13 5 -10 10 3 6 8 10 10 10 2 0 7 -4 10 -10z m36 -42 c10 -16
-3 -58 -18 -58 -16 0 -73 28 -73 36 0 3 4 13 9 23 8 13 18 16 43 13 18 -3 36
-9 39 -14z m1539 -2 c0 -7 -13 -31 -30 -52 -16 -21 -40 -54 -52 -71 -13 -18
-25 -33 -28 -33 -3 0 -6 20 -8 45 -2 47 -3 46 47 61 21 7 4 18 -27 19 -20 0
-28 6 -30 23 -3 21 0 22 62 22 49 0 66 -4 66 -14z m-1429 -61 c51 -33 52 -35
24 -34 -68 3 -90 13 -91 42 -1 15 2 27 7 27 4 0 31 -16 60 -35z m-571 1 c0 -2
-24 -23 -52 -46 -29 -23 -76 -64 -104 -91 l-52 -49 -16 50 c-9 27 -16 62 -16
78 l0 29 100 6 c55 3 108 11 118 16 20 12 22 13 22 7z m426 -15 c22 -14 32
-27 32 -45 0 -14 -5 -26 -9 -26 -18 0 -119 73 -113 81 9 15 58 10 90 -10z
m1404 -38 c0 -32 4 -74 9 -94 8 -34 7 -37 -23 -46 -17 -6 -56 -12 -86 -12 -30
-1 -71 -6 -90 -11 -43 -11 -140 -20 -380 -35 -58 -4 -120 -11 -138 -17 -35
-10 -40 -8 -99 47 -12 11 -53 47 -92 80 -38 32 -68 62 -65 64 4 5 279 11 637
15 42 1 77 4 77 8 0 3 44 9 98 13 109 7 132 12 132 26 0 6 -9 7 -20 4 -11 -4
-20 -2 -20 4 0 6 14 11 30 11 30 0 30 0 30 -57z m-1438 -23 c67 -41 80 -70 21
-44 -21 9 -44 18 -50 21 -7 3 -13 13 -13 24 0 10 -8 23 -17 29 -10 6 -13 10
-8 8 6 -2 36 -19 67 -38z m277 4 l24 -5 -22 -16 c-14 -9 -51 -17 -99 -19 -76
-3 -77 -3 -77 21 0 16 4 23 13 20 6 -3 20 -8 30 -11 15 -5 15 -4 -1 9 -17 14
-12 15 45 11 35 -3 74 -7 87 -10z m108 0 c-3 -3 -12 -4 -19 -1 -8 3 -5 6 6 6
11 1 17 -2 13 -5z m-612 -55 c-14 -27 -31 -62 -37 -77 -10 -26 -11 -24 -24 33
-7 33 -13 63 -14 67 0 8 54 26 83 27 15 1 15 -4 -8 -50z m755 -36 c41 -38 89
-78 105 -90 l30 -22 -58 -1 c-54 0 -59 2 -91 38 -19 21 -60 58 -90 82 -46 37
-53 46 -38 52 44 17 67 8 142 -59z m-506 22 c38 -16 38 -17 33 -61 -6 -58 -12
-62 -42 -34 -14 13 -25 19 -25 14 0 -5 -4 -4 -8 2 -4 6 -28 25 -54 43 -27 17
-48 34 -48 37 0 2 10 9 23 14 27 12 70 7 121 -15z m343 7 c37 -23 153 -132
153 -144 0 -5 -9 -4 -19 2 -12 6 -21 6 -23 0 -2 -5 -28 -10 -58 -12 -52 -1
-59 1 -148 62 -98 67 -99 70 -29 84 12 2 33 9 47 14 36 15 46 14 77 -6z m-429
-67 c-8 -8 -47 8 -52 21 -4 12 0 11 25 -2 17 -8 29 -17 27 -19z m247 9 c17
-10 54 -37 84 -59 l54 -39 -32 -9 c-18 -4 -67 -7 -109 -5 l-77 3 -3 68 -3 68
28 -3 c15 -2 42 -13 58 -24z m-257 -30 c108 -35 127 -51 123 -105 -1 -24 -4
-45 -6 -47 -4 -4 -94 56 -105 69 -7 9 -92 49 -102 49 -5 0 -6 -5 -3 -10 6 -10
-22 -27 -30 -18 -5 5 32 88 40 88 3 0 40 -11 83 -26z m-454 -93 c34 -30 41
-41 30 -45 -23 -9 -134 -7 -134 2 0 9 49 82 55 82 2 0 24 -18 49 -39z m436 8
c28 -17 49 -33 47 -35 -4 -4 -119 24 -126 31 -4 4 18 35 25 35 2 0 26 -14 54
-31z m5 -45 c109 -30 147 -51 120 -67 -11 -6 -13 -12 -6 -20 11 -14 23 -147
13 -147 -4 0 -25 12 -47 25 -22 14 -48 25 -58 25 -23 0 -188 85 -199 103 -4 6
-8 20 -8 30 0 26 52 88 70 83 8 -2 60 -16 115 -32z m255 -3 c0 -7 -64 -41 -75
-41 -10 0 -5 46 6 57 12 12 69 -2 69 -16z m60 15 c0 -9 -40 -13 -46 -5 -3 5 6
9 20 9 14 0 26 -2 26 -4z"/>
<path d="M880 323 c0 -9 67 -57 72 -52 3 3 38 -24 70 -54 26 -25 36 -13 12 14
-40 45 -118 104 -111 85 7 -19 7 -19 -11 -3 -20 18 -32 22 -32 10z"/>
</g>
</svg>
