<?xml version="1.0" standalone="no"?>
<!DOCTYPE svg PUBLIC "-//W3C//DTD SVG 20010904//EN"
 "http://www.w3.org/TR/2001/REC-SVG-20010904/DTD/svg10.dtd">
<svg version="1.0" xmlns="http://www.w3.org/2000/svg"
 width="243.000000pt" height="158.000000pt" viewBox="0 0 243.000000 158.000000"
 preserveAspectRatio="xMidYMid meet">
<metadata>
Created by potrace 1.16, written by Peter Selinger 2001-2019
</metadata>
<g transform="translate(0.000000,158.000000) scale(0.100000,-0.100000)"
fill="#000000" stroke="none">
<path d="M1684 1509 c-16 -17 -62 -53 -101 -80 -40 -27 -73 -54 -73 -59 0 -12
29 -40 42 -40 14 0 5 -118 -26 -325 -14 -93 -26 -185 -26 -204 l0 -35 -25 34
c-14 19 -25 39 -25 46 0 7 -4 14 -8 16 -4 2 -38 44 -75 93 -37 50 -82 108
-100 130 -41 50 -137 241 -137 271 0 13 -9 28 -19 34 -40 21 -59 12 -101 -50
-22 -33 -47 -61 -55 -61 -8 -1 -18 -2 -22 -3 -5 -1 -45 -6 -91 -10 -45 -5 -82
-13 -82 -19 0 -5 12 -35 27 -66 25 -52 27 -66 28 -206 1 -136 -4 -226 -19
-348 -3 -23 -8 -68 -12 -99 l-6 -56 -101 50 c-55 28 -117 56 -136 63 -28 9
-37 19 -42 44 -6 28 -4 31 12 26 11 -4 19 -2 19 4 0 24 44 103 82 146 51 58
43 71 -53 77 -42 3 -75 11 -79 18 -4 7 -15 10 -23 7 -13 -5 -14 -12 -5 -44 11
-39 17 -223 8 -223 -37 0 -247 102 -253 122 -7 24 80 104 171 158 77 45 146
73 302 121 52 17 102 36 110 44 17 18 3 20 -35 5 -14 -5 -36 -12 -48 -14 -34
-6 -164 -45 -237 -71 -108 -38 -309 -86 -348 -83 -36 3 -37 2 -40 -37 -3 -37
9 -100 30 -157 8 -20 6 -35 -6 -59 -9 -18 -16 -35 -16 -40 0 -4 42 -9 93 -12
50 -2 124 -10 162 -17 39 -6 85 -14 103 -16 29 -4 32 -8 32 -39 0 -38 19 -48
27 -15 7 27 18 26 109 -16 169 -76 162 -70 170 -141 6 -62 15 -76 31 -50 9 14
10 18 12 60 2 30 3 30 11 9 8 -20 14 -22 52 -16 24 3 78 15 122 25 43 10 112
19 152 19 70 0 74 -1 96 -30 28 -39 43 -39 23 0 l-16 30 78 1 c94 0 417 -2
563 -5 109 -2 164 4 143 17 -6 4 -189 7 -407 8 l-395 1 -100 136 c-77 104 -98
139 -89 149 6 7 18 13 27 13 20 0 86 -71 156 -169 28 -38 55 -72 61 -74 6 -3
32 13 58 35 30 26 53 38 65 35 13 -3 17 0 14 12 -2 9 5 22 17 29 21 13 21 12
17 -55 -3 -37 -2 -73 0 -80 12 -30 21 -9 25 57 3 39 8 73 11 76 3 3 18 -6 34
-20 29 -27 54 -36 34 -13 -6 8 -8 17 -4 20 3 4 1 7 -6 7 -19 0 -54 37 -46 49
11 19 24 12 50 -29 24 -38 45 -52 45 -30 0 6 -12 29 -27 51 l-27 41 31 28 c31
28 32 28 135 22 127 -8 259 -7 322 1 l47 7 -6 -58 c-3 -31 -8 -115 -10 -187
-4 -130 -7 -162 -29 -307 -11 -69 -8 -115 7 -92 8 14 37 164 42 219 2 28 8 93
13 145 7 81 15 110 50 186 23 50 42 96 42 102 0 16 40 83 68 114 14 15 22 31
19 35 -4 4 -42 7 -85 8 -89 1 -128 -15 -112 -45 6 -10 10 -37 10 -59 0 -46 12
-42 -135 -46 -38 -1 -90 -3 -115 -4 -25 -2 -74 -2 -110 -1 l-65 1 65 25 c132
50 191 80 210 105 18 25 19 30 5 62 -8 20 -19 38 -25 42 -5 3 -10 19 -10 36 0
16 -4 29 -8 29 -5 0 -61 -53 -125 -117 l-117 -118 0 51 c0 34 5 56 15 64 8 7
15 17 15 23 0 17 54 121 72 139 18 18 19 17 30 -7 11 -24 44 -43 55 -31 3 3
-4 17 -16 32 -11 15 -21 34 -21 44 0 9 -10 25 -21 36 -12 10 -32 42 -44 69
-13 28 -30 57 -39 64 -24 20 -19 32 10 25 25 -7 26 -6 18 27 -11 50 -11 178 1
183 6 3 -2 5 -16 5 -16 1 -36 -10 -55 -30z m40 -41 c-3 -5 -6 -29 -6 -53 0
-57 -20 -65 -60 -24 l-31 30 44 40 c29 27 45 35 50 27 4 -7 5 -16 3 -20z
m-109 -96 c-2 -2 -17 -1 -32 3 -27 6 -27 7 -8 21 18 13 21 13 32 -2 7 -10 11
-20 8 -22z m-478 -143 c30 -59 28 -81 -3 -34 -10 16 -23 24 -33 21 -17 -5 -34
6 -64 41 -18 21 -18 22 5 53 l23 31 21 -26 c12 -15 35 -54 51 -86z m515 84
c-5 -10 -18 -40 -31 -68 -35 -76 -41 -95 -32 -95 14 0 38 33 59 83 28 63 57
62 77 -3 8 -26 43 -80 60 -92 18 -13 -2 -18 -48 -12 -26 4 -47 11 -47 15 0 14
-17 10 -35 -7 -12 -13 -13 -19 -5 -24 9 -5 12 -42 12 -116 -2 -206 -13 -237
-86 -232 l-41 3 3 80 c2 44 5 91 8 105 6 33 23 167 32 256 4 40 5 83 1 98 -7
25 -6 26 37 26 38 0 42 -2 36 -17z m-702 -78 c0 -22 -82 -185 -93 -185 -5 0
-7 13 -4 29 4 17 -1 51 -12 82 -11 29 -17 58 -14 65 3 7 26 15 51 17 26 2 53
4 60 5 6 1 12 -5 12 -13z m122 -123 c35 -37 99 -110 142 -162 44 -52 97 -112
118 -133 46 -46 47 -57 8 -57 -25 0 -45 19 -147 136 -65 75 -122 144 -128 152
-5 9 -15 21 -21 27 -6 5 -28 29 -48 52 l-37 42 17 33 17 33 8 -28 c4 -15 36
-58 71 -95z m54 -4 c32 -34 75 -54 59 -28 -3 6 -3 10 1 10 10 0 42 -39 79 -96
18 -28 51 -64 73 -80 22 -16 58 -56 80 -89 l42 -60 -27 -3 c-27 -4 -39 6 -97
79 -11 13 -35 42 -55 65 -20 22 -45 52 -55 65 -11 13 -57 68 -103 121 -46 53
-83 100 -83 104 0 4 11 -6 25 -22 14 -16 42 -46 61 -66z m-110 -35 c32 -38 63
-74 69 -81 5 -7 25 -30 44 -50 43 -47 141 -169 141 -176 0 -4 -14 -6 -31 -6
-36 0 -41 5 -181 178 -51 61 -95 112 -99 112 -26 0 -14 -29 33 -79 67 -73 162
-182 172 -198 16 -28 -37 -12 -67 20 -18 19 -73 76 -124 129 l-92 95 31 61
c18 34 35 62 38 62 4 0 33 -30 66 -67z m717 21 c3 -3 2 -14 -4 -23 -5 -9 -14
-29 -21 -46 l-11 -30 -7 30 c-15 59 -12 75 13 75 13 0 26 -3 30 -6z m-653
-326 c0 -20 -83 -1 -103 24 -11 13 -41 46 -68 75 -48 50 -56 72 -42 109 5 14
26 -2 110 -90 57 -59 103 -112 103 -118z m820 209 c0 -7 12 -30 26 -50 14 -21
24 -40 22 -41 -13 -10 -115 -53 -173 -73 -38 -14 -79 -29 -90 -35 l-20 -11 20
24 c11 13 26 28 33 32 7 4 47 44 89 88 76 78 93 91 93 66z m-1606 -70 c-55
-31 -84 -52 -84 -61 0 -15 -52 -58 -60 -49 -4 4 -11 26 -14 48 l-7 40 78 16
c99 21 114 22 87 6z m645 -135 c-14 -2 -37 2 -52 7 -24 9 -27 16 -27 58 l0 48
53 -55 c51 -53 51 -55 26 -58z m1279 83 c2 -1 -4 -18 -12 -36 -9 -19 -27 -65
-42 -104 -15 -38 -30 -74 -34 -79 -9 -9 -3 68 7 94 3 8 5 43 4 78 l-1 63 37
-7 c21 -4 39 -8 41 -9z m-1632 -27 c-9 -13 -29 -48 -46 -78 -48 -90 -52 -92
-47 -29 3 32 2 73 -3 93 l-8 36 60 0 60 0 -16 -22z m414 -93 c16 -19 -32 -49
-97 -62 -58 -11 -60 -9 -47 53 5 29 6 29 69 26 37 -2 69 -9 75 -17z m486 1 c3
-8 4 -25 2 -38 -3 -22 -3 -22 -30 7 -16 16 -28 32 -28 35 0 13 51 9 56 -4z
m99 5 c7 -12 -32 -34 -45 -26 -6 3 -10 13 -10 21 0 16 45 20 55 5z m-330 -62
c28 -34 62 -76 77 -93 l27 -33 -23 -11 c-29 -13 -32 -11 -96 73 -29 39 -64 82
-78 98 l-26 27 35 0 c29 0 41 -8 84 -61z m63 38 c10 -12 34 -43 52 -70 30 -43
32 -49 18 -63 -13 -14 -19 -10 -54 32 -21 27 -54 65 -72 85 l-33 37 35 0 c23
0 41 -7 54 -21z m119 -19 l43 -42 -22 -23 c-12 -13 -25 -23 -29 -23 -4 0 -28
29 -53 65 l-45 65 31 0 c24 0 43 -10 75 -42z m-1154 -26 c7 -6 33 -21 58 -32
43 -21 43 -21 9 -15 -19 3 -68 10 -108 15 -40 5 -78 12 -83 15 -12 8 -12 32 1
55 10 18 12 18 60 -4 27 -13 55 -28 63 -34z m773 -8 c16 -20 40 -50 55 -67 27
-34 91 -124 103 -145 6 -10 -30 -12 -186 -8 l-193 6 1 47 c1 88 7 153 14 153
3 0 10 -4 16 -10 6 -6 33 2 79 24 39 19 73 35 76 35 4 1 20 -15 35 -35z m-76
-244 c15 -6 -65 -17 -83 -12 -20 6 -19 7 8 13 26 5 58 5 75 -1z"/>
</g>
</svg>
