<?xml version="1.0" standalone="no"?>
<!DOCTYPE svg PUBLIC "-//W3C//DTD SVG 20010904//EN"
 "http://www.w3.org/TR/2001/REC-SVG-20010904/DTD/svg10.dtd">
<svg version="1.0" xmlns="http://www.w3.org/2000/svg"
 width="256.000000pt" height="180.000000pt" viewBox="0 0 256.000000 180.000000"
 preserveAspectRatio="xMidYMid meet">
<metadata>
Created by potrace 1.16, written by Peter Selinger 2001-2019
</metadata>
<g transform="translate(0.000000,180.000000) scale(0.100000,-0.100000)"
fill="#000000" stroke="none">
<path d="M1100 1599 c-52 -55 -117 -117 -145 -137 -27 -20 -79 -61 -115 -90
l-65 -54 -85 6 c-47 3 -146 9 -220 12 -74 3 -151 10 -170 15 -51 13 -106 11
-119 -5 -8 -9 -11 -68 -10 -181 1 -108 -3 -171 -10 -178 -8 -8 -6 -16 6 -30
17 -18 16 -20 -18 -51 -19 -18 -44 -38 -55 -45 -18 -10 -18 -12 -1 -25 9 -7
54 -23 100 -35 85 -23 177 -49 287 -81 36 -10 76 -21 90 -24 126 -25 281 -71
310 -91 51 -35 97 -50 114 -36 15 13 24 5 50 -47 18 -34 34 -39 65 -20 15 9
23 9 35 -1 9 -8 16 -18 16 -23 0 -6 11 -23 25 -40 14 -16 25 -40 25 -54 0 -13
6 -24 14 -24 14 0 76 -125 76 -153 0 -9 7 -17 16 -17 13 0 15 7 9 37 -6 36
-55 144 -76 169 -17 21 -22 102 -9 168 12 63 15 68 74 118 33 29 91 79 127
113 167 151 294 262 320 278 28 18 38 37 21 37 -13 0 -190 -151 -371 -315 -36
-34 -93 -81 -126 -105 -33 -24 -90 -70 -127 -102 l-67 -59 -27 48 c-15 27 -36
57 -46 69 -17 20 -18 21 -1 36 10 8 83 53 163 98 80 46 201 116 270 156 69 40
142 80 163 89 20 8 61 30 90 49 99 63 201 108 259 115 57 7 57 7 68 -22 21
-60 9 -94 -22 -64 -43 42 -108 72 -108 50 0 -5 27 -30 61 -57 33 -27 69 -66
80 -87 11 -22 25 -39 32 -39 8 0 24 -12 38 -26 45 -48 120 -97 131 -86 7 7
-18 37 -81 98 l-91 87 0 56 c0 31 -4 62 -9 70 -15 23 -1 41 30 41 19 0 29 5
29 15 0 8 -5 15 -10 15 -23 0 13 42 70 83 32 23 69 60 82 82 19 31 41 49 94
75 85 42 81 39 64 50 -8 5 -22 4 -34 -2 -43 -23 -412 -252 -426 -265 -12 -11
-12 -13 3 -13 10 0 69 31 132 70 63 38 115 65 115 60 0 -5 -8 -11 -19 -15 -10
-3 -41 -30 -69 -59 -28 -29 -61 -56 -74 -59 -49 -13 -376 -8 -538 8 -197 19
-269 25 -365 30 -119 6 -185 14 -185 22 0 10 53 94 64 101 16 9 126 177 126
191 0 6 4 11 9 11 8 0 61 74 61 85 0 21 -39 -9 -120 -96z m-24 -71 c-59 -82
-139 -210 -139 -224 0 -7 -15 -8 -50 -1 -39 8 -47 13 -36 21 8 6 21 23 29 38
8 14 55 60 103 102 49 42 98 87 109 101 39 50 28 23 -16 -37z m-536 -233 c209
-13 204 -11 268 -77 67 -67 84 -68 104 -5 l13 42 90 -1 c82 -1 186 -8 290 -19
78 -8 182 -15 315 -21 74 -3 136 -7 138 -9 2 -2 16 0 30 4 15 4 38 5 52 1 39
-10 -282 -51 -478 -60 -95 -5 -207 -14 -250 -19 -87 -11 -114 -14 -302 -36
-74 -9 -143 -18 -154 -21 -10 -4 -22 0 -27 7 -7 11 -11 11 -17 2 -4 -6 -50
-19 -102 -28 -98 -16 -220 -40 -255 -50 -19 -6 -20 0 -23 151 l-4 156 119 -7
c65 -3 152 -8 193 -10z m356 -26 c3 3 5 -3 3 -13 -2 -10 -12 -24 -21 -30 -15
-9 -23 -6 -42 15 -30 33 -26 39 19 29 19 -4 37 -5 41 -1z m894 -106 c0 -5
-153 -103 -161 -103 -4 0 -6 15 -5 33 1 27 -2 33 -15 30 -13 -4 -16 -13 -12
-43 5 -35 3 -38 -27 -49 -18 -6 -34 -11 -35 -11 -2 0 1 17 6 38 11 48 11 62 0
62 -5 0 -15 -26 -22 -57 -13 -60 -24 -83 -41 -83 -6 0 -7 27 -3 72 7 65 6 71
-8 59 -10 -8 -18 -38 -23 -82 -7 -77 -10 -80 -114 -135 -30 -15 -66 -36 -80
-44 -59 -39 -57 -42 -59 115 l-2 143 98 6 c171 10 430 36 454 44 23 9 49 11
49 5z m-625 -207 l0 -154 -28 -16 c-16 -9 -32 -16 -35 -16 -4 0 -6 74 -4 164
l3 165 32 4 c18 2 32 5 32 5 0 1 0 -67 0 -152z m-171 98 c-1 -16 -3 -96 -4
-179 -2 -115 -6 -154 -18 -167 -14 -17 -13 -43 3 -80 6 -16 4 -17 -24 -7 l-31
11 2 221 3 221 25 7 c37 10 45 5 44 -27z m75 -129 c-1 -156 -2 -167 -22 -186
l-22 -20 -6 29 c-3 16 -5 53 -3 83 1 30 3 92 4 139 4 105 7 120 32 120 18 0
19 -9 17 -165z m-179 -65 c0 -175 -2 -210 -14 -210 -45 0 -53 52 -46 300 2 99
10 120 41 120 18 0 19 -11 19 -210z m-88 13 c-2 -104 -5 -189 -6 -191 -2 -1
-15 3 -29 9 -22 10 -26 20 -32 73 -4 48 -1 282 4 294 0 1 16 2 34 2 l33 0 -4
-187z m-200 30 c2 -68 0 -123 -4 -123 -18 0 -77 34 -72 42 3 4 7 50 9 101 2
50 4 95 4 99 1 8 55 15 58 8 1 -3 3 -60 5 -127z m99 95 c1 -24 2 -95 3 -159
l1 -117 -36 19 -37 18 -1 122 c-1 67 -2 125 -3 128 -2 24 6 31 37 31 34 0 35
-1 36 -42z m-193 -77 l3 -93 -28 6 c-43 11 -52 26 -54 86 -1 30 -6 63 -10 72
-7 13 -3 18 19 21 67 11 67 11 70 -92z m-113 -39 c-6 -7 -122 47 -136 64 -14
18 14 35 79 48 l57 12 3 -59 c2 -33 0 -62 -3 -65z m-90 -1 c22 -10 96 -46 165
-79 69 -33 147 -70 174 -81 27 -12 47 -23 45 -25 -4 -5 -193 44 -266 68 -27 9
-99 29 -161 45 -63 16 -116 32 -118 34 -3 3 12 21 32 40 41 38 42 38 129 -2z
m909 -343 c-6 -65 -13 -83 -22 -59 -3 8 -16 26 -30 40 l-25 24 34 28 c19 16
37 29 42 29 4 0 5 -28 1 -62z"/>
<path d="M1396 1093 c-3 -11 -9 -48 -11 -82 -4 -48 -3 -62 7 -59 7 3 13 16 14
29 1 13 3 45 5 71 3 50 -5 73 -15 41z"/>
<path d="M1246 1083 c-4 -9 -6 -59 -5 -111 1 -80 4 -93 18 -90 9 2 16 9 15 16
-1 6 -2 55 -2 107 -2 89 -11 117 -26 78z"/>
<path d="M1316 1088 c-3 -7 -7 -42 -10 -78 -2 -36 -7 -77 -11 -92 -5 -17 -3
-28 3 -28 18 0 23 16 28 97 3 43 7 83 9 90 2 7 0 15 -6 18 -5 4 -11 0 -13 -7z"/>
</g>
</svg>
