<?xml version="1.0" standalone="no"?>
<!DOCTYPE svg PUBLIC "-//W3C//DTD SVG 20010904//EN"
 "http://www.w3.org/TR/2001/REC-SVG-20010904/DTD/svg10.dtd">
<svg version="1.0" xmlns="http://www.w3.org/2000/svg"
 width="314.000000pt" height="196.000000pt" viewBox="0 0 314.000000 196.000000"
 preserveAspectRatio="xMidYMid meet">
<metadata>
Created by potrace 1.16, written by Peter Selinger 2001-2019
</metadata>
<g transform="translate(0.000000,196.000000) scale(0.100000,-0.100000)"
fill="#000000" stroke="none">
<path d="M1595 1819 c-50 -68 -213 -211 -248 -218 -23 -5 -32 -12 -32 -26 0
-11 6 -19 13 -17 21 4 13 -16 -9 -23 -12 -4 -47 -30 -78 -59 -145 -130 -201
-175 -270 -214 l-53 -30 -59 63 c-73 78 -100 91 -218 106 -83 11 -207 4 -306
-16 -5 -1 -32 -5 -60 -10 -27 -4 -74 -18 -103 -31 -66 -29 -67 -51 -2 -74 70
-26 142 -60 175 -84 17 -11 47 -30 68 -40 35 -18 36 -20 21 -38 -26 -28 -58
-22 -142 26 -99 56 -172 87 -184 80 -16 -10 13 -34 88 -69 40 -19 77 -35 82
-35 4 0 22 -12 40 -27 l33 -28 -71 -45 c-39 -25 -91 -58 -115 -73 -25 -16 -45
-35 -45 -43 0 -20 13 -18 67 15 65 39 130 76 179 102 l42 22 60 -29 c33 -15
59 -31 56 -35 -2 -4 -41 -25 -87 -47 -238 -115 -244 -117 -275 -77 -21 27 -42
31 -72 15 -31 -17 -7 -71 49 -107 75 -48 135 -66 194 -59 29 3 82 8 118 10
142 9 225 35 332 103 21 13 42 23 47 21 5 -2 37 -30 72 -63 93 -87 125 -114
200 -169 78 -57 87 -72 53 -88 -14 -6 -25 -17 -25 -25 0 -17 10 -16 34 2 23
18 46 20 46 4 0 -15 30 -53 128 -165 83 -94 116 -122 126 -106 3 5 -5 19 -17
33 -13 13 -36 42 -52 64 -16 22 -40 52 -53 67 -20 21 -23 33 -18 60 3 18 11
40 16 48 8 13 11 12 24 -5 9 -11 16 -27 16 -35 0 -8 22 -40 50 -70 28 -31 52
-69 56 -87 7 -37 59 -123 74 -123 15 0 12 12 -13 61 -13 24 -27 59 -30 77 -4
18 -22 52 -41 75 -32 40 -34 45 -26 88 5 25 19 67 31 92 13 26 20 49 18 52 -3
3 -30 -8 -60 -25 -30 -16 -56 -30 -59 -30 -3 0 -6 11 -5 24 0 26 37 61 94 88
34 16 36 16 39 -2 4 -21 32 -16 32 6 0 7 10 19 22 25 18 9 24 8 34 -6 14 -18
36 -12 29 8 -9 22 12 39 51 41 22 1 50 8 63 15 16 9 26 10 33 3 8 -8 16 -5 27
7 19 22 125 55 147 47 9 -3 27 3 41 14 14 11 35 20 47 20 11 0 30 7 40 15 11
8 26 15 34 15 8 0 28 6 45 14 43 19 127 36 127 25 0 -5 7 -9 15 -9 8 0 25 -14
37 -31 13 -17 41 -40 63 -51 22 -12 55 -33 75 -48 108 -83 163 -121 172 -118
15 5 -86 112 -157 166 -33 25 -63 50 -66 55 -3 5 0 25 6 45 14 41 66 72 89 53
7 -6 17 -6 26 -1 27 17 37 11 43 -26 6 -34 32 -72 106 -154 18 -19 38 -47 46
-61 15 -29 63 -64 73 -54 3 3 0 16 -8 28 -7 12 -25 42 -38 67 -14 25 -33 54
-43 65 -42 47 -39 80 21 208 18 37 7 44 -35 22 -19 -11 -37 -16 -40 -13 -16
16 95 145 195 227 30 26 48 47 41 49 -7 2 -32 -14 -54 -35 -53 -50 -101 -83
-121 -83 -9 0 -16 -7 -16 -15 0 -23 -45 -61 -106 -90 -62 -29 -67 -30 -84 -10
-8 10 -9 19 -3 28 6 6 16 28 22 48 9 28 28 46 89 87 108 73 203 152 196 163
-7 12 -48 -13 -106 -65 -65 -60 -137 -106 -164 -106 -16 0 -27 -8 -33 -23 -12
-30 -29 -44 -81 -62 -40 -14 -49 -14 -100 1 -30 10 -59 20 -65 24 -5 4 -33 15
-62 25 -29 10 -50 22 -48 25 3 4 -7 6 -20 4 -29 -3 -275 81 -360 124 -33 16
-85 37 -115 46 -30 9 -66 22 -79 30 -20 11 -21 14 -7 19 14 5 14 10 5 26 -29
45 55 201 139 258 18 12 28 24 22 28 -15 9 -29 -1 -161 -128 -87 -83 -119
-121 -112 -128 8 -8 13 -8 17 0 11 17 22 13 34 -14 14 -30 7 -31 -35 -5 -26
15 -33 26 -33 50 0 51 41 132 95 186 65 64 101 114 83 114 -7 0 -26 -19 -43
-41z m-171 -223 c-3 -9 -10 -13 -16 -10 -5 3 -4 12 3 20 15 18 22 13 13 -10z
m149 -6 c-6 -22 -21 -35 -30 -26 -5 5 24 46 33 46 1 0 0 -9 -3 -20z m-179 -66
c13 -5 12 -10 -10 -26 -29 -24 -40 -19 -24 11 12 23 12 23 34 15z m137 -86 c9
-16 13 -17 25 -7 12 10 21 10 42 -3 15 -8 52 -23 82 -33 30 -10 87 -32 125
-50 39 -18 124 -49 190 -71 131 -41 255 -93 255 -106 0 -4 -30 -7 -67 -6 -38
0 -75 -1 -83 -3 -11 -3 -14 3 -12 19 4 30 -12 28 -26 -3 -8 -17 -20 -25 -37
-25 -24 0 -24 2 -19 48 5 44 4 46 -10 28 -9 -11 -16 -32 -16 -48 0 -25 -4 -28
-30 -28 -30 0 -31 1 -24 38 4 20 11 45 16 55 6 12 5 17 -6 17 -10 0 -19 -19
-27 -55 -11 -51 -14 -55 -41 -55 -28 0 -28 1 -28 60 0 60 -12 80 -24 38 -3
-13 -6 -40 -6 -60 0 -36 -2 -38 -31 -38 l-32 0 6 66 c5 67 -6 124 -25 124 -6
0 -7 -16 -2 -42 8 -47 7 -125 -2 -139 -6 -11 -71 -12 -77 -1 -2 4 -1 32 2 62
8 71 2 152 -12 147 -6 -2 -9 -34 -8 -83 1 -45 -1 -93 -5 -108 -5 -23 -11 -26
-38 -23 -24 3 -30 8 -29 23 5 39 4 227 -2 232 -14 14 -18 -17 -19 -126 l-1
-117 -41 -3 -41 -3 3 58 c2 32 6 73 9 91 13 72 16 142 6 142 -14 0 -17 -20
-32 -162 -11 -113 -12 -118 -35 -118 -31 0 -33 6 -24 75 5 33 11 92 15 130 6
66 24 103 45 90 4 -3 13 2 20 10 10 12 15 12 36 -2 14 -9 29 -24 35 -35z
m-184 15 c30 6 30 5 27 -31 -2 -20 -6 -59 -8 -87 -7 -87 -19 -155 -27 -161 -5
-3 -25 -2 -45 2 l-36 7 6 76 c17 214 20 233 40 206 10 -13 21 -17 43 -12z
m-99 -101 c-4 -25 -8 -66 -9 -91 -1 -73 -4 -78 -44 -73 l-35 4 0 61 c0 49 5
66 25 93 14 18 25 39 25 48 0 8 8 19 18 25 24 13 31 -11 20 -67z m-569 -26
c49 -14 91 -40 80 -49 -2 -3 -57 -30 -122 -61 l-118 -58 -102 58 c-156 87
-153 85 -134 95 28 16 181 35 262 33 44 -2 104 -10 134 -18z m464 -43 c-3 -38
-10 -76 -15 -86 -8 -15 -11 -16 -23 -3 -19 19 -19 31 3 68 14 25 14 32 3 36
-10 3 -7 10 10 28 13 12 25 23 25 23 1 1 -1 -29 -3 -66z m-71 -37 c-9 -25 -24
-47 -34 -49 -10 -3 -18 -3 -18 0 0 6 60 93 64 93 2 0 -4 -20 -12 -44z m-58 -8
c-16 -29 -38 -48 -56 -48 -26 0 -22 15 8 39 30 23 59 28 48 9z m-200 -4 c9 -3
24 -22 33 -41 16 -34 16 -36 -7 -53 -12 -9 -51 -32 -85 -50 l-62 -33 -57 32
c-31 18 -56 36 -56 41 0 11 125 80 175 96 22 7 41 13 42 13 1 1 9 -2 17 -5z
m1482 -82 c-10 -2 -22 0 -28 6 -6 6 0 7 19 4 21 -5 23 -7 9 -10z m204 8 c0 -5
-5 -10 -11 -10 -5 0 -7 5 -4 10 3 6 8 10 11 10 2 0 4 -4 4 -10z m-1453 -32
c-3 -13 -9 -48 -12 -79 l-7 -57 -52 -5 c-28 -2 -62 0 -75 5 -16 6 -34 5 -51
-2 -23 -10 -34 -7 -73 17 -26 15 -47 32 -47 36 0 4 30 22 67 39 60 28 72 30
107 20 35 -9 43 -7 85 19 56 35 65 36 58 7z m83 -48 c0 -64 -2 -71 -22 -79
-42 -16 -50 -4 -43 63 8 67 18 86 46 86 17 0 19 -8 19 -70z m94 -10 l-1 -65
-33 -3 c-41 -4 -51 10 -44 63 11 84 11 83 46 76 l33 -7 -1 -64z m100 60 c15 0
28 -75 19 -108 -4 -18 -12 -22 -49 -22 l-44 0 0 60 c0 61 16 86 48 75 8 -3 19
-5 26 -5z m106 -21 c7 -11 9 -40 6 -62 -3 -23 -5 -45 -5 -49 -1 -5 -14 -8 -30
-8 -27 0 -29 3 -32 43 -7 75 -1 97 26 97 14 0 29 -9 35 -21z m96 9 c2 -3 0
-31 -4 -64 -6 -55 -9 -59 -34 -62 -28 -3 -28 -3 -28 61 0 35 2 66 5 69 6 6 54
2 61 -4z m287 -46 c-5 -66 -7 -69 -45 -70 -33 -1 -33 -1 -30 41 6 80 8 83 45
79 33 -4 34 -4 30 -50z m225 49 c10 -6 12 -22 7 -65 -7 -50 -10 -56 -31 -56
-21 0 -24 5 -24 39 0 43 15 91 27 91 5 0 14 -4 21 -9z m102 -56 l0 -65 -35 0
-36 0 2 58 c2 70 3 72 40 72 l29 0 0 -65z m86 28 c-12 -85 -18 -103 -36 -103
-21 0 -30 27 -30 93 l0 47 36 0 c36 0 36 0 30 -37z m-610 5 c-3 -13 -6 -40 -6
-60 0 -32 -4 -39 -26 -44 -37 -10 -45 5 -38 69 l7 57 35 0 c31 0 34 -2 28 -22z
m106 12 c2 -5 1 -32 0 -60 l-4 -50 -44 0 c-40 0 -44 2 -40 23 3 12 5 39 5 60
1 36 2 37 40 37 22 0 41 -4 43 -10z m168 -37 c0 -57 -9 -73 -35 -68 -11 2 -23
4 -26 4 -7 1 7 86 16 102 4 5 15 9 26 9 16 0 19 -7 19 -47z m80 25 c0 -13 -3
-40 -6 -60 -6 -32 -11 -38 -30 -38 -22 0 -24 4 -24 53 0 60 4 67 37 67 17 0
23 -6 23 -22z m340 15 c-2 -31 -26 -124 -33 -123 -4 0 -16 0 -26 0 -20 0 -20
2 4 108 4 15 13 22 30 22 14 0 25 -3 25 -7z m67 -51 c-8 -79 -15 -92 -44 -92
-21 0 -24 4 -20 23 3 12 9 40 12 62 10 60 13 65 36 65 21 0 22 -3 16 -58z
m280 41 c-9 -9 -20 -13 -24 -9 -4 4 -1 11 7 16 25 16 35 11 17 -7z m-217 0
c-1 -5 -7 -19 -15 -33 -8 -14 -14 -37 -15 -52 0 -15 -5 -30 -10 -33 -7 -4 -9
3 -4 22 18 79 26 103 34 103 6 0 10 -3 10 -7z m-1852 -49 c40 -24 43 -28 29
-42 -23 -22 -72 -17 -123 13 -49 29 -51 32 -26 52 22 17 64 10 120 -23z m1951
8 l35 -16 -50 -23 c-27 -12 -57 -23 -66 -23 -22 0 -28 39 -9 68 15 24 26 24
90 -6z m134 -67 c-8 -25 -19 -45 -24 -45 -5 0 -9 3 -9 8 0 4 -3 17 -6 29 -5
16 1 25 23 37 15 8 29 15 30 16 1 0 -5 -20 -14 -45z m-1948 -9 c41 -17 66 -54
58 -84 -7 -28 -12 -28 -57 3 -20 14 -40 25 -44 25 -4 0 -23 10 -42 21 -32 20
-33 22 -15 35 24 18 57 18 100 0z m973 -15 c10 -6 11 -29 6 -99 -7 -90 -7 -91
-37 -102 -37 -12 -50 -13 -43 -1 3 5 7 50 8 101 2 83 4 93 22 100 27 11 29 11
44 1z m95 -73 c-2 -45 -7 -85 -11 -89 -4 -4 -19 -11 -34 -14 -27 -7 -28 -6
-27 31 0 22 4 61 7 89 7 48 14 55 63 64 3 1 4 -36 2 -81z m84 74 c16 -10 -2
-132 -20 -144 -33 -21 -42 -9 -42 60 0 37 4 73 8 80 9 14 36 16 54 4z m-774
-8 c12 -4 14 -27 10 -136 -3 -72 -8 -140 -12 -151 -8 -20 -9 -20 -26 7 -13 20
-18 46 -17 97 0 38 1 96 1 129 1 61 7 69 44 54z m120 -94 c-1 -52 -2 -127 -3
-167 l-3 -71 -36 -5 c-20 -2 -37 -3 -39 -1 -7 5 -4 323 3 334 4 6 23 10 42 8
l36 -3 0 -95z m121 25 c-1 -38 -2 -107 -3 -152 l-2 -82 -37 -11 c-47 -13 -65
-13 -57 0 3 5 6 72 7 147 0 76 4 146 10 156 7 13 19 17 46 15 l37 -3 -1 -70z
m83 63 c5 -7 7 -24 5 -38 -2 -14 -6 -72 -9 -130 -5 -105 -10 -120 -45 -120
-18 0 -18 27 -3 190 2 25 4 60 4 78 1 24 5 32 20 32 10 0 23 -6 28 -12z m87
-30 c-4 -24 -8 -81 -8 -127 -1 -79 -3 -84 -25 -93 -13 -4 -27 -6 -30 -2 -8 8
-5 122 4 202 8 60 9 62 37 62 29 0 30 0 22 -42z m91 -65 c-5 -94 -8 -110 -26
-125 -12 -10 -25 -18 -30 -18 -15 0 -22 69 -14 148 3 42 7 83 7 90 1 7 15 12
35 12 l33 0 -5 -107z m346 90 c6 -73 -7 -112 -38 -113 -14 0 -18 67 -7 108 8
26 43 30 45 5z m81 -28 c-5 -49 -8 -55 -33 -55 -16 0 -19 7 -19 51 0 49 1 50
28 47 25 -3 27 -6 24 -43z m106 25 c4 -24 -20 -47 -56 -55 -32 -7 -33 -6 -27
22 4 15 9 34 11 41 6 19 68 11 72 -8z m-1113 -82 c-3 -71 -7 -92 -19 -94 -9
-1 -13 3 -9 11 2 8 -6 29 -20 47 -36 49 -60 99 -50 108 10 10 40 17 75 19 l26
1 -3 -92z m1190 82 c3 -6 -6 -15 -20 -20 -38 -14 -44 -13 -38 10 6 21 47 28
58 10z m58 3 c-7 -2 -19 -2 -25 0 -7 3 -2 5 12 5 14 0 19 -2 13 -5z m-1620
-43 c96 -52 109 -66 72 -80 -15 -6 -31 -7 -37 -4 -5 3 -44 -8 -86 -24 -101
-40 -270 -54 -321 -27 l-33 16 44 27 c23 15 63 36 88 47 25 11 72 35 105 52
33 18 68 33 77 33 9 0 50 -18 91 -40z m1733 3 c-3 -3 -13 0 -22 8 -15 12 -14
14 3 20 17 6 32 -15 19 -28z m-1446 -92 c23 -35 39 -65 37 -67 -8 -8 -107 94
-107 109 0 13 19 29 27 23 2 -1 21 -31 43 -65z m378 -209 c-9 -4 -30 -19 -46
-34 -26 -23 -32 -25 -43 -12 -6 8 -10 16 -8 17 11 9 86 35 99 35 12 1 11 -1
-2 -6z m109 -104 l-15 -43 -15 35 c-15 33 -15 36 4 44 10 5 19 14 19 20 0 6 4
6 11 -1 8 -8 7 -23 -4 -55z m-107 34 c0 -23 -33 -72 -43 -65 -34 20 -34 28 -4
50 33 24 47 29 47 15z"/>
</g>
</svg>
