<?xml version="1.0" standalone="no"?>
<!DOCTYPE svg PUBLIC "-//W3C//DTD SVG 20010904//EN"
 "http://www.w3.org/TR/2001/REC-SVG-20010904/DTD/svg10.dtd">
<svg version="1.0" xmlns="http://www.w3.org/2000/svg"
 width="210.000000pt" height="112.000000pt" viewBox="0 0 210.000000 112.000000"
 preserveAspectRatio="xMidYMid meet">
<metadata>
Created by potrace 1.16, written by Peter Selinger 2001-2019
</metadata>
<g transform="translate(0.000000,112.000000) scale(0.100000,-0.100000)"
fill="#000000" stroke="none">
<path d="M732 1027 c-6 -7 -9 -22 -6 -33 3 -12 -4 -35 -16 -55 -55 -87 -91
-155 -116 -217 -14 -37 -28 -68 -29 -70 -2 -2 -40 33 -86 77 -45 44 -87 82
-93 84 -7 3 -7 9 2 20 17 21 7 37 -22 37 -21 0 -56 -27 -56 -44 0 -4 -20 -32
-45 -63 -25 -30 -45 -58 -45 -61 0 -4 -30 -38 -67 -76 l-66 -69 23 -19 c18
-14 33 -18 59 -13 26 4 56 -2 106 -20 39 -15 108 -37 155 -50 170 -47 316
-112 495 -220 39 -23 97 -57 131 -74 74 -38 85 -36 172 41 34 30 86 68 115 85
121 71 155 89 212 114 33 14 78 35 99 47 44 24 63 20 31 -6 -28 -23 -31 -82
-7 -112 l19 -23 69 27 c38 15 77 33 86 40 68 51 114 163 103 247 -7 53 -79
162 -119 180 -49 23 -96 -34 -111 -133 -4 -27 -8 -48 -9 -48 -1 0 -54 52 -118
116 -89 88 -122 128 -140 170 -29 68 -53 77 -107 40 -36 -25 -43 -27 -114 -20
-42 4 -84 3 -94 -1 -10 -5 -25 -9 -33 -9 -13 -1 -15 -31 -16 -201 -2 -168 -8
-328 -15 -395 -5 -39 2 -70 16 -70 21 0 35 33 35 87 1 73 20 149 79 316 43
121 63 161 82 165 9 2 58 -25 109 -60 50 -35 106 -72 123 -82 117 -69 187
-129 187 -158 0 -12 -15 -25 -42 -37 -24 -10 -63 -27 -88 -39 -25 -11 -53 -23
-63 -26 -10 -3 -15 -10 -12 -16 3 -5 0 -7 -8 -4 -17 6 -136 -40 -256 -101 -50
-24 -107 -49 -129 -53 -34 -8 -42 -6 -68 16 -16 14 -28 30 -26 35 1 4 -2 6 -8
2 -6 -4 -41 20 -78 52 -37 33 -110 91 -162 130 -52 38 -114 88 -138 109 l-43
39 19 36 c10 19 23 34 29 32 6 -2 30 13 54 34 101 90 127 110 179 137 107 56
108 71 6 120 -41 20 -78 41 -81 46 -9 14 -51 12 -63 -3z m97 -93 c37 -18 35
-22 -16 -49 -21 -11 -69 -51 -106 -90 -69 -72 -78 -64 -24 22 13 21 27 48 31
59 8 26 54 74 71 74 6 0 26 -7 44 -16z m589 -19 c18 -38 15 -41 -13 -15 -13
12 -22 27 -19 31 9 16 20 10 32 -16z m-1 -53 c26 -21 54 -37 62 -34 8 3 11 0
7 -6 -6 -10 185 -205 220 -225 8 -4 14 -12 14 -17 0 -9 -235 145 -275 180 -11
10 -33 25 -50 33 -16 9 -43 27 -60 40 l-30 25 25 21 c14 11 28 20 32 21 3 0
28 -17 55 -38z m-186 18 c25 0 24 -18 -4 -82 -13 -29 -34 -87 -47 -128 -48
-151 -48 -151 -49 29 -1 90 -4 167 -6 172 -7 11 25 18 59 13 16 -2 37 -4 47
-4z m-727 -235 c29 -27 81 -72 117 -100 35 -27 66 -53 69 -56 3 -4 37 -27 75
-52 39 -25 90 -65 115 -88 25 -23 69 -60 99 -82 29 -23 48 -43 42 -45 -7 -2
-20 3 -30 12 -64 58 -346 185 -561 252 -188 59 -240 79 -240 91 0 6 12 22 28
35 15 12 50 52 77 88 28 36 54 68 60 72 5 4 29 -12 53 -35 24 -23 67 -64 96
-92z m1341 58 c52 -75 67 -134 46 -188 -9 -22 -19 -41 -23 -43 -5 -2 -8 -9 -8
-16 0 -14 -42 -55 -82 -81 l-28 -17 4 61 c2 46 8 65 22 76 15 11 17 16 7 26
-24 24 -9 239 16 239 3 0 24 -26 46 -57z m-525 -404 c-19 -12 -61 -44 -93 -70
-64 -54 -72 -57 -81 -33 -10 25 1 33 98 80 98 47 132 57 76 23z m-205 -109 c8
-13 -5 -13 -25 0 -13 8 -13 10 2 10 9 0 20 -4 23 -10z"/>
</g>
</svg>
