<?xml version="1.0" standalone="no"?>
<!DOCTYPE svg PUBLIC "-//W3C//DTD SVG 20010904//EN"
 "http://www.w3.org/TR/2001/REC-SVG-20010904/DTD/svg10.dtd">
<svg version="1.0" xmlns="http://www.w3.org/2000/svg"
 width="290.000000pt" height="134.000000pt" viewBox="0 0 290.000000 134.000000"
 preserveAspectRatio="xMidYMid meet">
<metadata>
Created by potrace 1.16, written by Peter Selinger 2001-2019
</metadata>
<g transform="translate(0.000000,134.000000) scale(0.100000,-0.100000)"
fill="#000000" stroke="none">
<path d="M1407 1139 c-9 -6 -50 -13 -90 -15 -99 -8 -101 -9 -81 -38 15 -24 17
-60 13 -201 0 -22 0 -79 0 -128 l1 -88 30 16 c17 9 30 13 30 10 0 -6 50 20
143 73 37 22 70 27 222 37 376 24 474 26 580 10 18 -3 39 1 49 8 17 13 14 15
-32 24 -29 5 -54 8 -57 5 -3 -3 -85 -7 -183 -8 -163 -3 -274 -9 -362 -20 -19
-3 -111 -6 -203 -7 -128 -1 -170 1 -176 11 -15 25 0 114 25 141 13 14 26 37
29 51 7 33 62 100 81 100 8 0 14 4 14 9 0 16 -14 20 -33 10z m-73 -68 c-4 -14
-13 -37 -22 -51 l-15 -25 -12 45 c-14 55 -12 59 25 58 27 -1 29 -4 24 -27z
m51 -281 c28 0 45 -4 40 -9 -12 -10 -122 -71 -129 -71 -4 0 -6 21 -6 46 0 43
2 46 23 40 12 -3 44 -6 72 -6z"/>
<path d="M2310 1080 c-13 -8 -12 -18 8 -74 13 -36 22 -69 19 -73 -3 -4 -8 -98
-11 -208 -4 -110 -9 -201 -10 -203 -5 -4 -39 -10 -127 -22 -43 -6 -109 -17
-146 -24 -37 -7 -124 -14 -193 -15 -69 -1 -154 -6 -190 -11 -67 -9 -385 -8
-394 1 -3 3 -1 34 4 69 15 104 13 140 -8 140 -16 0 -20 -17 -31 -142 -8 -79
-15 -156 -16 -173 -11 -110 3 -211 28 -202 8 2 11 28 9 84 -2 45 -1 90 3 102
3 11 34 36 69 56 60 33 68 35 154 34 50 0 95 2 100 5 6 3 93 8 194 11 101 3
195 8 209 11 58 12 200 33 267 40 58 5 72 4 72 -7 0 -8 -9 -72 -20 -143 -19
-120 -19 -131 -4 -147 20 -23 38 -14 30 14 -3 12 -1 40 4 63 18 80 22 120 26
263 3 99 8 149 17 160 23 29 48 92 53 140 7 62 42 159 71 198 12 17 23 36 23
41 0 4 -38 6 -84 4 -55 -3 -86 -1 -90 7 -9 13 -16 14 -36 1z m150 -44 c0 -3
-18 -44 -66 -153 -8 -17 -14 -37 -14 -45 0 -7 -5 -20 -10 -28 -6 -10 -8 11 -6
65 2 53 -1 91 -10 114 -8 18 -14 37 -14 42 0 5 27 9 60 9 33 0 60 -2 60 -4z
m-1140 -614 c0 -6 -44 -41 -52 -42 -5 0 -8 11 -8 25 0 22 4 25 30 23 17 -1 30
-4 30 -6z"/>
<path d="M1170 1053 c-8 -3 -41 -23 -73 -45 -32 -21 -61 -38 -64 -38 -2 0 -59
-26 -126 -59 -240 -116 -341 -157 -417 -170 -41 -7 -83 -17 -92 -22 -10 -5
-25 -9 -33 -9 -25 0 -17 -43 15 -82 19 -23 26 -39 20 -43 -12 -7 -74 -101 -96
-143 -12 -24 11 -36 45 -24 50 18 143 24 186 14 22 -6 99 -33 170 -61 72 -28
163 -63 204 -77 40 -13 119 -48 175 -77 55 -29 104 -54 108 -55 5 -2 8 4 8 12
0 11 -42 37 -124 76 -69 33 -128 60 -131 60 -20 0 -229 83 -344 137 -68 31
-171 105 -171 122 0 4 16 13 35 20 23 8 50 32 77 68 43 57 111 107 187 137 24
9 100 46 167 81 68 35 124 61 124 58 0 -3 6 -1 13 4 6 6 24 13 39 17 15 3 43
22 64 41 20 20 48 38 61 41 12 4 23 10 23 15 0 10 -26 11 -50 2z m-662 -367
c4 -18 -33 -66 -50 -66 -16 0 -58 54 -58 74 0 5 64 14 90 12 8 -1 16 -9 18
-20z m-62 -183 c19 -14 31 -29 27 -33 -4 -4 -35 -11 -67 -15 l-60 -7 19 28
c20 30 38 53 43 54 2 0 19 -12 38 -27z"/>
<path d="M1075 764 c-75 -68 -99 -82 -118 -65 -7 5 -31 11 -52 12 -22 1 -53 9
-70 18 -49 26 -68 29 -97 15 -28 -14 -44 -46 -33 -65 4 -6 7 -45 6 -87 -1 -83
8 -108 33 -99 14 6 16 17 11 74 -13 150 -13 151 2 157 8 3 32 -3 53 -14 22
-11 52 -20 68 -20 16 0 46 -11 66 -25 l37 -25 42 41 c46 45 85 74 91 68 3 -2
0 -57 -5 -123 -7 -88 -7 -122 2 -133 19 -22 32 0 35 64 1 32 6 92 10 133 9 95
8 120 -3 130 -4 5 -39 -20 -78 -56z"/>
<path d="M1290 669 c0 -5 5 -7 10 -4 6 3 10 8 10 11 0 2 -4 4 -10 4 -5 0 -10
-5 -10 -11z"/>
<path d="M853 568 c-6 -7 -12 -20 -15 -28 -3 -8 -26 -26 -52 -38 -46 -23 -63
-39 -52 -49 8 -8 61 15 104 46 20 15 44 30 53 33 10 4 57 -14 114 -43 94 -47
115 -52 115 -25 0 14 -131 83 -178 92 -18 4 -35 11 -38 15 -8 13 -40 11 -51
-3z"/>
</g>
</svg>
