<?xml version="1.0" standalone="no"?>
<!DOCTYPE svg PUBLIC "-//W3C//DTD SVG 20010904//EN"
 "http://www.w3.org/TR/2001/REC-SVG-20010904/DTD/svg10.dtd">
<svg version="1.0" xmlns="http://www.w3.org/2000/svg"
 width="180.000000pt" height="141.000000pt" viewBox="0 0 180.000000 141.000000"
 preserveAspectRatio="xMidYMid meet">
<metadata>
Created by potrace 1.16, written by Peter Selinger 2001-2019
</metadata>
<g transform="translate(0.000000,141.000000) scale(0.100000,-0.100000)"
fill="#000000" stroke="none">
<path d="M1041 1199 c-34 -38 -59 -58 -68 -55 -22 9 -51 -10 -129 -83 -98 -90
-161 -142 -214 -177 -25 -16 -69 -48 -98 -71 -30 -24 -64 -43 -77 -43 -15 0
-26 -8 -30 -20 -12 -38 -92 -59 -129 -35 -18 12 -30 13 -50 6 -32 -13 -34 -38
-3 -50 20 -8 93 -89 86 -95 -2 -2 -37 -27 -76 -55 -40 -29 -73 -57 -73 -62 0
-15 23 -10 58 11 33 20 34 20 60 1 27 -19 103 -44 119 -39 10 3 73 -25 177
-80 128 -67 158 -81 205 -93 30 -7 61 -26 96 -60 52 -49 157 -104 181 -95 8 3
14 17 14 30 0 23 5 38 31 101 4 11 15 37 23 57 11 28 27 43 64 62 27 14 79 48
115 76 37 27 106 75 154 106 100 65 137 99 129 119 -5 14 -35 36 -140 107 -26
18 -65 47 -85 64 -20 17 -54 42 -76 56 -22 14 -53 37 -70 52 -16 14 -35 26
-40 26 -6 0 -27 14 -48 31 -33 27 -35 32 -22 45 18 19 19 16 -3 89 -16 52 -16
63 -4 87 14 29 10 48 -11 48 -7 0 -37 -27 -66 -61z m59 -157 c0 -15 -51 12
-77 41 -15 16 -14 19 8 43 l24 26 22 -49 c13 -26 23 -54 23 -61z m-79 -39 c63
-52 109 -85 229 -167 19 -13 53 -40 74 -60 22 -20 45 -36 52 -36 6 0 22 -8 35
-18 13 -10 55 -31 92 -47 37 -15 66 -33 64 -39 -2 -6 -27 -23 -57 -38 -29 -14
-55 -30 -59 -35 -3 -5 -32 -26 -63 -47 -32 -21 -58 -42 -58 -47 0 -5 -5 -9
-12 -9 -6 0 -25 -10 -42 -23 -17 -13 -48 -33 -69 -45 l-39 -22 -18 22 c-13 15
-19 39 -20 70 0 45 2 49 39 72 22 14 42 30 46 36 13 20 -25 21 -53 1 -16 -11
-54 -29 -84 -41 -31 -11 -61 -27 -68 -35 -16 -19 -9 -45 15 -59 10 -6 35 -26
55 -43 19 -18 39 -33 43 -33 23 0 -13 -25 -87 -59 -117 -54 -117 -55 -155 -27
-18 13 -58 35 -89 47 -31 12 -86 41 -122 63 -36 23 -87 49 -114 58 -96 34
-116 65 -96 154 11 49 7 64 -16 64 -13 0 -13 4 2 29 10 17 31 40 47 52 l29 21
32 -31 c18 -17 36 -31 41 -31 5 0 18 -9 30 -20 23 -21 85 -38 85 -23 0 5 -9
26 -20 48 -32 63 -22 137 20 150 26 8 21 31 -6 27 -13 -1 -9 6 16 25 19 16 64
53 101 85 36 31 77 58 90 61 13 2 28 5 32 6 4 0 40 -25 78 -56z m-389 -228 c5
-26 1 -29 -26 -19 -12 5 -13 9 -3 25 16 26 24 24 29 -6z m-242 -99 c0 -16 -14
-36 -25 -36 -17 0 -27 27 -12 34 16 6 37 7 37 2z m14 -148 c3 -17 4 -33 2 -35
-2 -2 -27 -1 -55 3 -44 6 -50 9 -39 22 12 13 63 41 79 42 4 0 9 -14 13 -32z
m665 -302 c-12 -31 -26 -56 -30 -56 -11 0 -69 50 -69 59 0 9 112 62 118 56 3
-2 -6 -29 -19 -59z"/>
<path d="M791 845 c-29 -25 -57 -46 -62 -46 -5 -1 -15 -2 -21 -3 -30 -3 -16
-38 36 -91 31 -30 60 -55 65 -55 13 0 24 77 20 139 -2 28 -1 51 3 51 4 0 12 9
18 19 19 37 -7 30 -59 -14z m-1 -82 c0 -36 0 -36 -20 -18 -19 17 -19 19 -4 37
23 24 24 24 24 -19z"/>
<path d="M973 841 c-22 -16 -59 -39 -82 -50 -27 -14 -41 -28 -41 -41 0 -22 33
-60 52 -60 6 0 21 -8 32 -18 26 -23 72 -43 80 -35 13 13 5 30 -19 43 -54 29
-46 100 18 150 15 12 25 26 22 31 -9 14 -19 11 -62 -20z m-50 -86 c-3 -9 -8
-14 -10 -11 -3 3 -2 9 2 15 9 16 15 13 8 -4z"/>
<path d="M1097 794 c-79 -46 -95 -59 -86 -70 6 -8 16 -14 21 -14 6 0 39 -20
75 -45 59 -42 103 -57 103 -36 0 5 -7 14 -15 21 -10 8 -12 17 -6 23 6 6 4 22
-5 43 -19 46 -18 71 6 91 20 17 27 43 13 43 -5 0 -52 -25 -106 -56z m52 -88
c6 -4 11 -12 11 -17 0 -6 -18 5 -40 23 -35 30 -38 34 -23 45 14 11 19 9 29
-16 7 -16 17 -32 23 -35z"/>
<path d="M700 620 c-19 -11 -70 -38 -112 -60 -43 -22 -78 -45 -78 -50 0 -6 24
-22 54 -36 29 -14 66 -38 81 -55 49 -50 85 -30 40 23 -21 25 -25 39 -23 77 3
44 5 47 50 71 27 14 48 31 48 38 0 17 -20 15 -60 -8z m-90 -100 c0 -5 -4 -10
-10 -10 -5 0 -10 5 -10 10 0 6 5 10 10 10 6 0 10 -4 10 -10z"/>
<path d="M780 568 c-41 -21 -78 -46 -83 -53 -11 -20 75 -111 119 -125 41 -14
61 -5 41 18 -15 17 -33 95 -28 122 1 8 14 26 27 41 49 51 27 51 -76 -3z m6
-47 c-4 -5 -1 -22 4 -37 15 -38 7 -39 -19 -3 -19 25 -21 33 -10 40 18 11 32
11 25 0z"/>
<path d="M1002 597 c-6 -7 -45 -30 -87 -51 -41 -21 -75 -43 -75 -51 0 -7 16
-25 35 -39 19 -15 35 -33 35 -41 0 -20 70 -49 84 -35 6 6 2 18 -13 34 -21 22
-23 31 -17 79 6 49 10 55 42 71 20 9 34 22 32 28 -6 18 -24 20 -36 5z"/>
</g>
</svg>
