<?xml version="1.0" standalone="no"?>
<!DOCTYPE svg PUBLIC "-//W3C//DTD SVG 20010904//EN"
 "http://www.w3.org/TR/2001/REC-SVG-20010904/DTD/svg10.dtd">
<svg version="1.0" xmlns="http://www.w3.org/2000/svg"
 width="284.000000pt" height="164.000000pt" viewBox="0 0 284.000000 164.000000"
 preserveAspectRatio="xMidYMid meet">
<metadata>
Created by potrace 1.16, written by Peter Selinger 2001-2019
</metadata>
<g transform="translate(0.000000,164.000000) scale(0.100000,-0.100000)"
fill="#000000" stroke="none">
<path d="M1015 1549 c-16 -5 -67 -11 -112 -12 -46 -1 -84 -4 -84 -7 -7 -25 -4
-50 6 -54 14 -5 19 -96 6 -96 -6 0 -27 -10 -48 -22 -52 -31 -108 -51 -93 -33
7 9 7 15 1 19 -5 4 -12 2 -15 -2 -9 -15 -209 -109 -246 -117 -19 -4 -82 -25
-140 -47 -83 -32 -108 -38 -122 -29 -29 18 -47 13 -63 -19 -15 -29 -15 -31 10
-42 14 -6 25 -20 25 -30 0 -24 32 -87 60 -116 l21 -23 -32 -37 c-18 -20 -38
-41 -46 -45 -23 -14 -15 -37 15 -37 15 0 92 -33 172 -73 l145 -72 -3 -58 c-2
-54 12 -106 26 -93 3 4 5 26 4 49 -4 69 8 75 70 37 29 -18 57 -39 61 -46 4 -8
13 -14 18 -14 6 0 30 -14 54 -30 24 -17 47 -30 52 -30 4 -1 25 -16 47 -35 26
-23 36 -39 32 -51 -3 -8 -4 -20 -1 -24 7 -12 35 -1 35 14 0 18 490 28 685 13
55 -4 127 -9 160 -12 33 -2 96 -7 140 -10 44 -3 187 -8 317 -10 131 -2 242 -6
248 -10 6 -3 8 -11 4 -16 -3 -5 -7 -71 -9 -145 -2 -99 0 -134 8 -131 12 4 22
44 32 120 3 21 7 42 9 46 3 4 7 35 11 70 9 85 11 94 34 143 50 109 116 217
153 255 44 45 44 57 0 59 -15 1 -58 6 -97 12 -66 11 -71 11 -87 -9 -17 -20
-24 -21 -140 -14 -68 4 -136 9 -153 11 -16 2 -100 4 -185 5 -231 2 -301 10
-314 34 -6 11 -14 22 -17 25 -3 3 -25 33 -48 67 -24 35 -47 66 -53 69 -5 3
-30 38 -55 77 -25 39 -51 77 -59 85 -8 7 -14 17 -14 22 0 5 -38 49 -83 98 -66
70 -88 102 -101 143 -25 79 -55 136 -73 143 -9 4 -28 -1 -42 -11 -14 -10 -32
-16 -38 -15 -7 2 -13 -6 -13 -17 0 -11 -13 -29 -30 -41 -38 -27 -40 -11 -4 55
36 69 26 85 -41 64z m-7 -82 c-5 -17 -19 -66 -30 -107 -11 -41 -26 -80 -34
-86 -9 -7 -12 -22 -9 -40 3 -17 -5 -63 -19 -109 -14 -44 -25 -75 -26 -70 -2
14 -9 139 -14 255 -3 52 -8 111 -11 131 -7 33 -5 38 16 44 30 10 122 22 131
18 3 -2 2 -18 -4 -36z m148 -79 c40 -44 118 -147 134 -177 15 -29 12 -26 95
-116 94 -103 79 -102 -23 1 -48 49 -115 114 -147 145 -33 32 -77 76 -99 98
-37 40 -38 42 -21 61 24 26 26 26 61 -12z m-34 -110 c52 -51 119 -116 149
-144 99 -92 319 -339 319 -358 0 -3 -8 -6 -18 -6 -26 0 -575 548 -568 567 3 8
6 19 6 24 0 21 22 5 112 -83z m-273 -195 c1 -58 -3 -104 -9 -108 -7 -4 -7 -13
0 -26 8 -14 7 -42 -2 -97 -7 -42 -12 -143 -12 -224 1 -89 -2 -148 -8 -148 -15
0 -67 39 -139 105 -37 33 -85 75 -108 94 -43 33 -64 68 -53 85 3 6 5 30 3 55
-1 30 5 61 19 88 11 23 20 47 20 52 0 27 34 91 49 92 11 0 12 2 3 6 -9 4 -6
17 14 50 14 25 22 49 18 53 -11 11 -135 17 -150 8 -7 -5 -10 -71 -8 -198 2
-106 0 -198 -3 -206 -12 -32 -176 116 -193 174 -8 31 -5 37 49 100 32 37 88
95 124 127 56 51 81 66 170 99 58 21 127 51 154 66 l48 28 6 -87 c4 -47 7
-132 8 -188z m228 125 c291 -274 432 -415 433 -431 0 -4 -12 -5 -27 -1 -31 7
-34 10 -173 150 -52 53 -137 134 -187 179 -112 100 -147 140 -139 160 3 8 8
15 11 15 3 0 40 -33 82 -72z m-637 -18 c0 -5 -4 -10 -9 -10 -5 0 -45 -36 -91
-81 l-82 -81 -28 33 c-32 39 -30 50 8 67 102 45 188 81 195 81 4 1 7 -3 7 -9z
m630 -76 c32 -25 298 -282 324 -313 19 -23 19 -24 2 -18 -10 4 -36 7 -59 7
-41 0 -47 5 -215 168 -95 92 -172 172 -172 179 0 6 5 24 10 39 l11 27 37 -35
c20 -20 48 -44 62 -54z m334 24 l18 -33 -26 30 c-14 17 -31 39 -38 50 -10 19
-10 19 8 3 10 -9 27 -32 38 -50z m-812 -7 c3 0 -9 -31 -28 -68 -19 -38 -34
-74 -34 -81 0 -7 -4 -10 -10 -7 -5 3 -10 41 -10 84 l0 78 38 -2 c20 -1 40 -3
44 -4z m502 -186 c73 -72 133 -122 140 -118 6 3 8 3 4 -2 -4 -4 -3 -14 3 -22
9 -10 4 -13 -28 -13 -34 0 -46 6 -80 43 -22 23 -77 77 -121 120 -78 73 -98
108 -75 130 8 8 -1 16 157 -138z m-58 -64 c41 -41 74 -76 74 -78 0 -1 -12 -3
-27 -3 -35 0 -169 126 -167 156 1 10 2 23 3 28 1 11 22 -7 117 -103z m517 51
c10 -12 25 -28 32 -36 8 -7 12 -16 10 -18 -3 -2 9 -19 25 -37 47 -51 60 -81
36 -81 -18 0 -166 193 -166 216 0 16 2 16 22 -2 12 -10 31 -29 41 -42z m-1120
-186 c59 -41 66 -50 45 -62 -7 -4 -10 -4 -6 0 3 4 -57 40 -133 79 l-140 72 32
28 31 28 56 -53 c32 -29 83 -71 115 -92z m556 81 l23 -26 -42 4 c-54 5 -73 23
-65 58 l7 27 27 -19 c14 -11 37 -30 50 -44z m51 -62 c8 -10 -8 -18 -67 -34
-42 -11 -78 -20 -79 -18 -1 1 1 17 3 35 l5 33 64 -2 c37 -1 68 -7 74 -14z
m268 -161 c90 -91 166 -163 169 -160 3 2 -57 73 -134 156 -76 83 -139 155
-141 160 -2 6 15 10 37 10 38 0 46 -6 148 -109 60 -59 120 -122 136 -140 31
-35 56 -43 33 -10 -8 12 -63 73 -122 136 l-107 115 59 -3 59 -3 93 -94 c52
-51 96 -91 99 -88 3 3 -30 43 -73 88 l-79 83 30 3 c16 2 31 -1 33 -7 2 -6 8
-9 13 -5 5 3 9 0 9 -7 0 -7 26 -40 58 -74 31 -33 69 -75 84 -93 14 -18 33 -32
40 -32 14 0 -31 56 -125 155 -42 44 -46 50 -28 53 11 2 30 -3 41 -11 28 -20
132 -120 165 -159 19 -22 29 -28 34 -19 6 9 11 8 21 -4 16 -19 70 -49 69 -38
-1 5 -38 42 -83 83 -80 74 -126 126 -126 143 0 8 251 4 505 -9 55 -2 131 -5
168 -5 47 0 66 -3 61 -11 -5 -7 -2 -9 9 -5 22 8 26 -33 10 -107 -8 -32 -13
-73 -13 -90 1 -17 -4 -54 -11 -83 l-11 -51 -167 4 c-258 6 -370 12 -721 43
-63 5 -146 12 -185 15 -95 8 -367 20 -437 20 l-58 -1 0 54 c0 33 5 60 14 68 9
9 12 28 9 57 l-5 43 90 31 89 32 70 -70 c39 -39 75 -69 81 -67 6 2 -19 35 -54
73 -35 38 -64 73 -64 77 0 6 12 12 40 18 3 0 79 -74 168 -165z m392 116 c6
-11 9 -20 7 -20 -2 0 -12 9 -22 20 -10 11 -13 20 -7 20 6 0 16 -9 22 -20z
m918 -9 c10 -6 7 -18 -16 -52 -16 -24 -42 -66 -57 -94 -15 -27 -29 -53 -32
-58 -2 -4 -8 -5 -13 -2 -4 3 -2 31 6 63 7 31 13 76 14 99 0 35 4 42 23 46 38
7 62 7 75 -2z m-2033 -72 c22 -15 54 -42 70 -60 24 -25 14 -21 -50 23 -43 31
-81 62 -83 68 -5 14 -1 12 63 -31z m425 -220 l65 -3 -75 -5 c-86 -7 -147 -2
-116 9 11 3 29 5 40 4 12 -1 50 -4 86 -5z"/>
<path d="M2038 1513 c-24 -21 -63 -57 -88 -79 -25 -23 -63 -57 -85 -75 -22
-19 -49 -43 -60 -55 -19 -19 -44 -39 -159 -119 -83 -59 -119 -93 -113 -109 7
-19 111 -69 134 -64 11 2 20 16 23 38 6 33 110 191 166 251 13 14 24 30 24 36
0 6 30 35 68 64 115 91 161 133 156 141 -9 15 -24 8 -66 -29z m-263 -295 c-45
-68 -109 -147 -120 -147 -5 0 -21 8 -33 17 l-24 19 54 44 c29 24 58 49 63 56
14 17 79 61 84 57 2 -2 -9 -23 -24 -46z"/>
<path d="M2180 1434 c-19 -16 -46 -42 -60 -59 -13 -16 -38 -43 -55 -60 -228
-222 -274 -265 -289 -265 -9 0 -15 -4 -12 -8 3 -5 -8 -21 -24 -37 -28 -26 -31
-55 -5 -55 6 0 31 -14 55 -31 46 -34 59 -30 65 19 2 17 27 67 54 112 28 45 51
83 51 86 0 18 86 127 165 208 93 97 124 147 55 90z m-241 -291 c-60 -98 -111
-173 -117 -173 -4 0 -15 7 -25 14 -16 12 -10 21 70 105 49 50 89 91 91 91 2 0
-7 -17 -19 -37z"/>
<path d="M2278 1278 c-101 -112 -341 -353 -389 -390 -28 -22 -32 -29 -23 -45
6 -10 28 -27 50 -37 21 -11 45 -26 52 -33 28 -27 66 -4 52 32 -9 25 2 64 28
102 10 15 45 73 77 128 32 55 64 109 70 120 7 11 54 64 105 118 50 53 85 97
77 97 -8 0 -53 -42 -99 -92z m-154 -210 c-34 -58 -146 -218 -152 -218 -5 0
-16 6 -25 13 -16 11 -7 23 80 115 93 98 113 117 97 90z"/>
</g>
</svg>
