<?xml version="1.0" standalone="no"?>
<!DOCTYPE svg PUBLIC "-//W3C//DTD SVG 20010904//EN"
 "http://www.w3.org/TR/2001/REC-SVG-20010904/DTD/svg10.dtd">
<svg version="1.0" xmlns="http://www.w3.org/2000/svg"
 width="142.000000pt" height="127.000000pt" viewBox="0 0 142.000000 127.000000"
 preserveAspectRatio="xMidYMid meet">
<metadata>
Created by potrace 1.16, written by Peter Selinger 2001-2019
</metadata>
<g transform="translate(0.000000,127.000000) scale(0.100000,-0.100000)"
fill="#000000" stroke="none">
<path d="M929 1094 c-42 -32 -124 -74 -142 -74 -8 0 -31 -13 -52 -30 -20 -16
-46 -32 -58 -36 -12 -4 -38 -17 -57 -30 -20 -13 -97 -46 -171 -73 -74 -27
-150 -56 -169 -64 -19 -8 -49 -13 -66 -10 -20 3 -35 -1 -44 -12 -15 -18 -2
-47 51 -115 15 -19 33 -47 38 -62 9 -24 7 -32 -20 -62 -16 -19 -56 -52 -87
-73 -56 -38 -57 -38 -27 -41 49 -5 124 -30 153 -50 15 -10 75 -37 133 -60 58
-22 130 -57 160 -76 29 -20 58 -36 63 -36 30 0 120 -56 159 -100 47 -52 70
-57 82 -19 12 38 108 194 153 249 63 77 151 161 205 195 l46 29 -35 41 c-19
22 -50 56 -68 75 -36 38 -70 91 -81 129 -4 13 -14 31 -22 41 -29 34 -73 154
-73 200 0 57 -9 90 -24 90 -7 0 -28 -12 -47 -26z m40 -175 c12 -15 21 -35 21
-42 0 -8 10 -27 21 -43 12 -16 -17 10 -65 57 -98 98 -105 119 -48 141 l37 14
7 -49 c3 -27 16 -62 27 -78z m-131 -1 c26 -28 57 -65 69 -81 12 -16 36 -38 53
-49 17 -10 63 -50 103 -88 40 -39 75 -70 78 -70 4 0 23 -21 44 -46 36 -43 36
-46 19 -60 -53 -41 -452 -302 -472 -308 -42 -14 -120 35 -217 136 -125 130
-159 169 -180 200 l-17 28 60 58 c34 32 98 88 144 123 46 35 109 89 140 119
54 53 104 89 121 90 5 0 30 -23 55 -52z m-243 -56 c-6 -5 -48 -37 -95 -72 -47
-36 -109 -87 -139 -114 l-54 -50 -24 48 c-13 26 -22 53 -20 59 3 7 56 31 118
55 63 24 134 52 159 62 51 20 69 24 55 12z m-290 -374 c11 -17 27 -42 35 -55
8 -13 22 -23 31 -23 8 0 25 -13 37 -30 l22 -29 -42 18 c-24 10 -61 28 -83 40
-22 11 -54 24 -72 27 -18 3 -36 10 -38 14 -5 7 71 68 85 69 3 1 14 -13 25 -31z
m676 -200 c-49 -68 -99 -134 -110 -148 l-20 -25 -40 44 -39 44 61 46 c52 38
227 158 234 160 2 1 -37 -54 -86 -121z"/>
<path d="M550 699 c-13 -6 -28 -15 -33 -22 -10 -15 2 -259 14 -271 5 -6 18 -2
31 11 13 11 37 27 53 36 50 25 292 69 418 77 65 3 123 12 129 18 16 16 2 20
-137 31 -66 6 -133 15 -150 20 -16 6 -55 15 -86 21 -30 6 -86 28 -123 50 -73
43 -78 44 -116 29z m78 -85 c5 3 34 -3 65 -14 31 -11 93 -26 139 -33 l83 -13
-69 -8 c-38 -4 -110 -19 -160 -32 -50 -14 -97 -26 -105 -27 -13 -2 -16 29 -12
137 l1 29 24 -22 c14 -13 29 -20 34 -17z"/>
</g>
</svg>
