<?xml version="1.0" standalone="no"?>
<!DOCTYPE svg PUBLIC "-//W3C//DTD SVG 20010904//EN"
 "http://www.w3.org/TR/2001/REC-SVG-20010904/DTD/svg10.dtd">
<svg version="1.0" xmlns="http://www.w3.org/2000/svg"
 width="274.000000pt" height="180.000000pt" viewBox="0 0 274.000000 180.000000"
 preserveAspectRatio="xMidYMid meet">
<metadata>
Created by potrace 1.16, written by Peter Selinger 2001-2019
</metadata>
<g transform="translate(0.000000,180.000000) scale(0.100000,-0.100000)"
fill="#000000" stroke="none">
<path d="M1290 1730 c0 -5 7 -15 15 -24 20 -19 18 -42 -5 -91 -32 -66 -22 -87
29 -60 56 29 67 22 111 -69 22 -46 40 -89 40 -95 0 -6 14 -39 31 -73 17 -34
37 -79 45 -100 17 -49 30 -48 -216 -28 -165 13 -338 37 -405 57 -113 34 -114
34 -129 5 -19 -38 -30 -230 -14 -249 9 -11 9 -16 -3 -23 -11 -8 -12 -13 -1
-30 6 -11 12 -26 12 -34 0 -7 7 -20 16 -27 14 -12 16 -28 11 -106 -5 -92 -5
-93 18 -93 12 0 28 6 34 14 6 8 22 16 34 19 12 3 54 15 92 26 39 11 75 21 81
21 8 0 11 -36 9 -120 -1 -66 1 -120 5 -120 22 0 35 41 41 128 6 89 8 97 34
118 16 12 50 25 79 29 28 4 60 9 71 11 30 6 255 15 255 10 0 -2 -16 -35 -36
-72 -62 -118 -142 -231 -193 -273 -52 -43 -79 -49 -151 -32 -34 8 -68 -7 -52
-23 9 -10 3 -81 -13 -150 -28 -117 -13 -157 43 -118 37 25 211 88 297 106 120
26 229 39 233 28 2 -6 14 -4 32 4 18 9 77 17 157 21 167 8 170 8 361 0 167 -8
242 1 242 29 0 18 -46 25 -122 19 -37 -2 -70 -1 -73 5 -3 5 14 22 37 38 55 38
82 68 73 82 -4 6 -12 9 -17 8 -14 -5 -73 55 -105 105 -13 21 -38 73 -55 114
-34 87 -63 146 -91 186 -16 24 -19 41 -15 100 3 45 13 87 25 112 11 22 26 66
34 98 7 33 19 62 29 67 9 5 25 28 35 52 29 66 77 137 134 198 30 32 51 64 51
78 0 12 6 22 13 22 7 0 22 6 33 14 18 14 18 15 -9 25 -16 6 -174 13 -390 16
-386 6 -607 18 -672 36 -53 15 -125 20 -125 9z m214 -66 c40 -6 44 -12 10 -19
-16 -3 -58 -12 -93 -21 -35 -8 -65 -13 -68 -10 -3 2 -2 19 2 37 l7 32 57 -8
c31 -4 69 -9 85 -11z m157 -27 c-19 -23 -41 -109 -41 -162 -1 -56 -27 -176
-30 -135 -7 107 10 230 32 230 5 0 8 6 7 13 -3 27 2 46 17 62 19 19 32 12 15
-8z m219 -30 c-8 -28 -16 -88 -48 -357 -7 -51 -9 -55 -36 -58 -27 -3 -28 -2
-22 30 3 18 13 83 21 145 17 134 21 152 46 200 22 43 12 63 -20 41 -12 -8 -18
-17 -15 -20 3 -4 1 -23 -5 -45 -6 -21 -20 -99 -31 -173 -28 -183 -30 -190 -46
-190 -10 0 -14 12 -14 38 1 67 28 266 44 317 20 63 20 85 1 85 -8 0 -15 -5
-15 -12 0 -6 -7 -3 -15 8 -14 18 -14 18 -9 -2 5 -18 -16 -263 -31 -364 -2 -14
-4 -35 -4 -47 -2 -44 -55 -24 -62 22 -5 38 48 329 67 368 8 16 14 34 14 40 0
9 27 11 94 9 l94 -3 -8 -32z m370 8 c0 -26 -22 -113 -39 -159 -7 -16 -26 -84
-42 -150 -38 -150 -53 -176 -44 -81 3 39 8 104 11 145 5 66 16 162 26 225 2
13 -2 19 -11 17 -17 -4 -45 19 -32 27 5 3 36 4 70 3 56 -4 61 -6 61 -27z
m-173 9 c3 -9 0 -55 -6 -102 -7 -48 -14 -103 -16 -122 -1 -19 -6 -74 -10 -122
-7 -76 -10 -88 -26 -88 -16 0 -19 8 -19 43 0 48 18 259 25 297 19 96 19 102
-1 98 -13 -2 -19 -12 -20 -33 -2 -40 -24 -300 -29 -345 -2 -19 -4 -41 -5 -47
0 -8 -13 -13 -31 -13 l-30 0 7 58 c3 31 8 66 10 77 2 11 9 70 15 130 5 61 15
121 20 135 8 19 7 27 -7 37 -15 11 -8 13 49 13 53 0 69 -4 74 -16z m346 9 c-7
-2 -19 -2 -25 0 -7 3 -2 5 12 5 14 0 19 -2 13 -5z m-503 -134 c-5 -63 -14
-143 -20 -179 -6 -36 -11 -78 -13 -95 -1 -18 -8 -31 -18 -33 -13 -2 -14 6 -8
65 4 37 13 119 19 182 10 96 35 190 47 178 1 -2 -2 -55 -7 -118z m404 100 c24
-11 25 -13 9 -43 -8 -17 -32 -57 -51 -90 -37 -60 -56 -61 -28 -2 9 19 16 45
16 59 0 24 19 87 26 87 1 0 14 -5 28 -11z m-769 -41 c-4 -23 -12 -50 -18 -59
-8 -13 -8 -25 1 -43 7 -16 8 -28 2 -31 -6 -4 -10 -1 -10 5 0 7 -8 24 -18 38
-10 15 -26 47 -35 71 -20 52 -13 61 46 61 l39 0 -7 -42z m555 -187 c-7 -63
-13 -121 -15 -130 -1 -9 -6 -46 -9 -82 -4 -36 -13 -88 -21 -115 l-14 -49 5 70
c6 95 12 160 24 290 11 114 13 133 27 200 l8 40 3 -55 c2 -30 -2 -106 -8 -169z
m121 6 c-10 -9 -11 -8 -5 6 3 10 9 15 12 12 3 -3 0 -11 -7 -18z m-1169 -213
c73 -6 152 -21 118 -23 -14 -1 -89 -14 -165 -30 -77 -16 -140 -28 -141 -28 -1
1 -4 29 -7 63 l-6 60 72 -18 c40 -11 98 -21 129 -24z m672 -61 c-9 -83 -13
-93 -30 -86 -13 5 -15 16 -9 62 8 64 11 71 30 71 11 0 13 -11 9 -47z m81 7
c-4 -22 -8 -48 -10 -58 -2 -9 -7 -42 -11 -72 -4 -30 -9 -58 -10 -62 -1 -5 -2
-17 -3 -28 -1 -13 -8 -20 -22 -20 -21 0 -21 3 -14 98 4 53 9 106 12 117 2 11
6 29 7 40 4 27 3 25 32 25 25 0 25 -2 19 -40z m57 27 c0 -4 -3 -63 -7 -132 -7
-124 -7 -125 -31 -125 -24 0 -24 2 -19 48 3 26 8 65 10 87 11 92 23 137 37
133 5 -2 10 -7 10 -11z m83 -72 c-4 -44 -8 -89 -10 -100 -1 -11 -3 -35 -4 -52
-1 -30 -4 -33 -32 -33 l-30 0 5 53 c3 28 8 85 11 126 3 40 8 77 11 82 3 5 17
8 31 7 l25 -3 -7 -80z m71 -22 c-9 -142 -14 -165 -34 -161 -21 4 -24 70 -9
173 10 66 22 94 41 95 4 0 5 -48 2 -107z m-461 79 c12 -9 27 -31 34 -49 7 -17
23 -46 36 -63 19 -26 22 -37 15 -62 -16 -54 -15 -54 -191 -45 -90 4 -165 9
-167 12 -12 11 13 63 45 93 29 27 33 36 22 43 -8 5 -30 6 -49 2 -19 -4 -44 -6
-55 -5 -37 4 -161 -9 -175 -18 -13 -8 -11 -12 8 -25 14 -11 22 -26 22 -46 l0
-30 -57 6 c-32 4 -74 11 -93 16 -19 5 -47 9 -62 9 -15 0 -39 5 -55 11 l-28 11
35 18 c77 39 319 95 460 106 56 4 94 12 101 20 17 21 129 18 154 -4z m114 11
c0 -5 -4 -17 -8 -28 -7 -17 -8 -17 -13 8 -4 19 -1 27 8 27 8 0 14 -3 13 -7z
m-435 -168 c-23 -35 -35 -45 -56 -45 -34 0 -38 7 -29 50 6 33 9 35 56 40 28 3
52 4 54 3 2 -1 -10 -23 -25 -48z m472 -82 c-2 -3 -14 -2 -25 2 -20 6 -20 6 2
52 l22 46 3 -48 c2 -26 1 -49 -2 -52z m368 61 c9 -36 -2 -64 -25 -64 -14 0
-19 7 -19 29 0 61 32 86 44 35z m-1074 -45 c36 -4 73 -8 83 -9 14 0 18 -7 15
-32 -3 -35 -3 -35 -155 -70 -57 -13 -63 -13 -64 1 0 9 -2 38 -5 65 -4 60 1 69
35 61 14 -4 55 -11 91 -16z m161 -46 c-8 -15 -10 -15 -11 -2 0 17 10 32 18 25
2 -3 -1 -13 -7 -23z m246 13 c2 -2 -35 -6 -83 -10 -88 -7 -101 -5 -89 14 6 9
162 6 172 -4z m116 -3 c-7 -2 -21 -2 -30 0 -10 3 -4 5 12 5 17 0 24 -2 18 -5z
m474 -50 c-3 -21 -17 -119 -32 -218 -26 -181 -37 -214 -70 -201 -17 6 -16 38
5 146 5 25 14 81 20 125 21 149 34 184 69 185 10 0 12 -9 8 -37z m93 20 c4 -4
16 -45 37 -123 9 -36 -1 -340 -12 -340 -27 0 -30 15 -27 148 1 75 7 152 12
170 7 26 6 34 -6 39 -8 3 -18 2 -22 -2 -11 -11 -18 -325 -7 -336 11 -11 -36
-11 -75 0 -23 6 -25 11 -22 52 2 24 7 60 12 79 7 29 8 24 9 -37 1 -41 5 -73
11 -73 15 0 18 30 25 205 5 117 10 164 21 176 18 20 18 29 -1 29 -8 0 -15 7
-15 15 0 12 7 14 28 9 15 -4 29 -9 32 -11z m-324 -33 c-10 -35 -20 -110 -37
-275 -11 -112 -23 -141 -52 -129 -21 8 -21 30 -2 111 8 34 21 110 30 170 24
167 23 164 46 150 10 -6 17 -19 15 -27z m74 14 c0 -21 -12 -122 -34 -299 -11
-81 -20 -114 -32 -119 -22 -8 -45 5 -40 23 7 21 33 210 41 291 10 111 17 130
46 130 14 0 19 -7 19 -26z m75 -26 c-8 -71 -56 -370 -60 -385 -3 -7 -11 -10
-20 -7 -9 4 -14 12 -11 19 2 7 -1 18 -7 24 -8 8 -8 11 2 11 7 0 11 6 8 15 -4
8 -2 17 3 20 6 4 10 40 10 82 0 42 5 106 10 142 6 36 13 81 16 99 4 26 9 32
30 32 25 0 26 -1 19 -52z m-219 -2 c-18 -138 -29 -210 -42 -276 -22 -106 -24
-110 -40 -110 -16 0 -15 66 5 210 5 42 10 104 10 138 0 34 2 66 5 71 4 5 20 9
37 9 30 -1 31 -2 25 -42z m589 -257 c11 -12 33 -30 49 -40 l29 -17 -43 -22
c-23 -12 -43 -20 -45 -18 -17 20 -75 185 -75 213 0 8 -4 15 -9 15 -5 0 -14 19
-19 43 -5 23 -12 51 -16 62 -4 11 19 -33 51 -97 32 -64 67 -126 78 -139z
m-690 114 c-2 -43 -9 -109 -14 -148 -6 -38 -11 -76 -11 -82 0 -14 -48 -17 -68
-5 -10 7 -10 15 -2 36 5 15 10 45 10 67 0 23 12 62 29 96 15 32 33 70 39 86 7
15 14 27 17 27 2 0 3 -35 0 -77z m-132 -133 c-28 -74 -29 -75 -65 -77 -21 -2
-38 1 -38 5 0 4 19 28 43 53 23 25 50 61 61 80 30 54 29 21 -1 -61z m727 -15
c-4 -5 -11 -36 -14 -67 -5 -36 -12 -58 -20 -58 -14 0 -14 49 -1 162 l8 63 17
-45 c10 -25 14 -49 10 -55z m38 -68 c17 -46 15 -57 -8 -57 -17 0 -20 7 -20 45
0 53 11 58 28 12z m-823 -47 c13 -5 26 -14 30 -19 4 -8 12 -8 24 -1 23 12 171
12 171 0 0 -22 -34 -38 -96 -44 -37 -4 -111 -19 -163 -33 -53 -14 -116 -32
-141 -38 -25 -7 -46 -11 -48 -10 -2 2 2 40 9 85 l11 81 90 -6 c49 -3 100 -10
113 -15z m290 -30 c0 -8 -8 -16 -17 -18 -13 -2 -18 3 -18 18 0 15 5 20 18 18
9 -2 17 -10 17 -18z m75 0 c-20 -13 -40 -13 -40 0 0 6 12 10 28 10 21 0 24 -2
12 -10z m77 4 c-3 -3 -12 -4 -19 -1 -8 3 -5 6 6 6 11 1 17 -2 13 -5z"/>
<path d="M647 1349 c-26 -35 -65 -84 -87 -109 l-41 -45 -18 24 c-14 18 -24 22
-44 17 -14 -3 -28 -15 -32 -25 -8 -26 -126 -137 -195 -183 -94 -64 -107 -76
-91 -87 12 -8 10 -12 -11 -22 -41 -18 -49 -59 -12 -59 14 0 206 -76 272 -108
37 -17 84 -62 158 -148 88 -102 104 -122 104 -131 0 -10 65 -33 94 -33 21 0
20 15 -3 64 -10 23 -28 70 -39 106 -31 98 -45 133 -64 160 -10 13 -18 33 -18
44 0 10 -22 75 -50 143 -27 68 -50 137 -50 152 0 36 58 91 98 91 16 1 51 19
87 45 33 25 79 57 102 73 72 46 54 75 -53 87 l-61 7 -46 -63z m91 3 c14 -9 -4
-30 -46 -52 -36 -18 -39 -3 -7 30 31 33 34 34 53 22z m-290 -255 c2 -49 11
-80 46 -152 24 -49 54 -117 67 -150 13 -33 29 -67 36 -76 16 -19 47 -108 40
-115 -5 -5 -58 44 -98 91 -40 48 -106 95 -167 120 -31 12 -85 35 -120 50 -59
26 -61 29 -42 42 25 18 25 30 0 38 -20 6 -20 7 4 26 13 10 27 19 32 19 9 0
199 162 199 170 0 0 1 -28 3 -63z"/>
</g>
</svg>
