<?xml version="1.0" standalone="no"?>
<!DOCTYPE svg PUBLIC "-//W3C//DTD SVG 20010904//EN"
 "http://www.w3.org/TR/2001/REC-SVG-20010904/DTD/svg10.dtd">
<svg version="1.0" xmlns="http://www.w3.org/2000/svg"
 width="198.000000pt" height="190.000000pt" viewBox="0 0 198.000000 190.000000"
 preserveAspectRatio="xMidYMid meet">
<metadata>
Created by potrace 1.16, written by Peter Selinger 2001-2019
</metadata>
<g transform="translate(0.000000,190.000000) scale(0.100000,-0.100000)"
fill="#000000" stroke="none">
<path d="M924 1611 c-75 -76 -148 -145 -163 -152 -24 -12 -60 -41 -153 -124
-64 -56 -204 -149 -293 -195 -102 -51 -116 -73 -68 -109 83 -62 83 -63 79 -88
-3 -13 -26 -64 -51 -114 -25 -49 -44 -93 -41 -98 3 -4 61 -13 128 -20 118 -11
144 -16 268 -42 84 -18 184 -57 229 -90 23 -16 48 -29 56 -29 21 0 155 -73
156 -85 1 -15 99 -89 139 -105 19 -7 51 -24 70 -37 19 -13 38 -23 43 -23 5 0
27 -15 50 -34 60 -48 171 -116 191 -116 43 0 4 35 -188 163 -54 37 -95 67 -91
67 19 0 -25 36 -70 56 -50 23 -115 74 -115 91 0 5 -27 22 -60 37 -33 16 -81
47 -105 68 -54 47 -54 65 -5 173 17 39 41 90 52 115 29 64 87 140 107 140 14
0 16 -9 14 -57 -16 -328 -12 -437 15 -395 5 7 12 86 16 175 8 198 11 225 18
232 7 7 90 -66 249 -222 117 -114 149 -139 149 -113 0 6 -86 96 -191 199
l-190 189 43 6 c24 3 72 8 108 11 178 14 307 28 323 37 28 15 8 30 -32 24 -20
-3 -72 -8 -116 -11 -84 -6 -155 -11 -268 -20 -68 -6 -69 -6 -61 17 4 12 91
107 193 211 102 103 188 192 189 197 11 32 -33 -4 -136 -112 -144 -151 -223
-228 -233 -228 -4 0 -3 17 1 38 5 20 11 60 15 87 14 118 86 307 134 349 22 20
28 46 10 46 -6 0 -39 -7 -73 -16 -34 -9 -81 -14 -106 -11 -25 2 -51 3 -57 0
-17 -6 -16 -28 1 -42 11 -10 13 -55 10 -253 -2 -133 -6 -243 -8 -246 -7 -6
-89 85 -130 146 -27 39 -34 57 -27 70 13 26 -4 63 -26 55 -33 -13 -173 -125
-173 -139 0 -7 10 -16 23 -19 12 -2 51 -12 87 -21 36 -8 80 -18 98 -21 23 -4
43 -18 68 -49 60 -73 55 -75 -146 -76 -165 -1 -179 1 -241 25 -95 37 -103 29
-102 -119 0 -82 13 -124 37 -124 8 0 41 22 73 49 32 26 90 64 128 83 63 32 79
36 160 37 l90 2 -50 -47 c-101 -95 -206 -168 -249 -174 -47 -6 -62 -34 -24
-45 13 -3 37 -13 53 -21 17 -7 48 -21 70 -30 22 -9 35 -18 28 -21 -6 -2 -30 5
-52 16 -22 12 -49 21 -60 21 -11 0 -63 29 -116 65 -52 35 -116 76 -143 91 -49
28 -81 60 -82 81 0 7 37 58 83 114 45 56 112 140 148 186 36 46 80 93 98 104
44 27 341 327 341 345 0 8 -2 14 -5 14 -2 0 -66 -63 -141 -139z m295 -82 c-28
-68 -55 -133 -60 -144 -5 -12 -8 33 -7 117 l1 137 46 6 c25 4 51 8 56 9 6 2
11 2 13 1 1 -1 -21 -58 -49 -126z m-313 -175 c-4 -9 4 -28 19 -46 36 -42 31
-49 -22 -32 -27 9 -54 18 -62 20 -9 3 -1 16 25 39 45 39 48 41 40 19z m-334
-100 c-5 -8 -42 -50 -83 -92 -41 -42 -85 -92 -98 -109 l-22 -33 -35 26 c-19
15 -34 30 -34 33 0 4 16 15 36 25 21 9 55 32 78 50 36 30 156 114 164 115 2 1
-1 -6 -6 -15z m75 -189 c19 -8 49 -15 66 -15 29 0 27 -2 -35 -46 -37 -25 -70
-45 -75 -45 -12 1 -21 94 -10 109 12 15 10 15 54 -3z m289 -179 c-18 -41 -40
-86 -49 -100 l-17 -26 -45 22 c-25 12 -45 25 -45 29 0 4 30 30 68 57 37 27 78
59 91 71 13 11 25 21 26 21 2 0 -12 -33 -29 -74z m-545 -12 c7 -8 30 -24 50
-35 21 -10 42 -25 46 -32 8 -13 73 -47 90 -47 4 0 28 -14 53 -30 50 -33 44
-38 -19 -16 -22 8 -69 18 -103 21 -85 8 -191 27 -201 35 -11 9 44 120 59 120
6 0 17 -7 25 -16z"/>
</g>
</svg>
