<?xml version="1.0" standalone="no"?>
<!DOCTYPE svg PUBLIC "-//W3C//DTD SVG 20010904//EN"
 "http://www.w3.org/TR/2001/REC-SVG-20010904/DTD/svg10.dtd">
<svg version="1.0" xmlns="http://www.w3.org/2000/svg"
 width="240.000000pt" height="126.000000pt" viewBox="0 0 240.000000 126.000000"
 preserveAspectRatio="xMidYMid meet">
<metadata>
Created by potrace 1.16, written by Peter Selinger 2001-2019
</metadata>
<g transform="translate(0.000000,126.000000) scale(0.100000,-0.100000)"
fill="#000000" stroke="none">
<path d="M970 1065 c-19 -8 -65 -17 -103 -21 -62 -6 -97 -22 -69 -32 6 -2 8
-10 5 -18 -3 -8 3 -21 12 -28 17 -12 17 -14 -11 -31 -77 -48 -170 -111 -198
-135 -33 -28 -147 -97 -206 -123 -71 -32 -110 -37 -177 -22 -29 7 -33 5 -38
-18 -5 -17 2 -40 19 -73 14 -27 26 -55 26 -61 0 -7 10 -23 21 -34 19 -19 20
-25 9 -43 -21 -33 -60 -115 -60 -126 0 -7 32 -8 93 -5 50 3 129 7 175 9 82 3
82 3 88 -23 3 -14 9 -37 14 -51 l7 -25 14 30 c7 17 14 31 15 33 6 9 294 -142
294 -154 0 -22 31 -16 37 7 5 19 8 18 39 -12 19 -18 37 -29 41 -26 4 4 -12 26
-35 49 -23 22 -42 48 -43 57 0 9 -2 33 -5 54 l-4 39 45 -27 c55 -32 62 -12 9
24 l-36 25 33 17 c24 12 40 14 57 8 20 -8 23 -6 19 5 -9 22 24 29 148 31 114
3 158 7 335 30 244 32 320 38 335 25 10 -8 32 -11 60 -8 29 4 45 2 46 -6 1 -6
2 -39 3 -73 1 -34 7 -68 14 -75 9 -9 12 -9 13 0 1 7 3 17 4 22 1 6 3 48 4 94
1 78 3 84 24 90 19 6 20 8 5 14 -15 6 -19 25 -23 131 -5 145 5 184 79 307 25
42 44 79 41 83 -2 5 -32 2 -67 -5 -35 -8 -88 -14 -119 -14 -38 0 -61 -5 -69
-15 -11 -13 -7 -15 29 -15 47 0 51 -9 56 -108 6 -125 17 -227 24 -230 6 -2 0
-66 -8 -89 -1 -2 -1 -10 -1 -18 0 -9 -9 -15 -23 -15 -12 0 -40 -9 -61 -19 -35
-19 -80 -26 -202 -36 -28 -3 -93 -11 -145 -20 -110 -17 -139 -19 -139 -5 0 20
200 110 245 110 19 0 55 26 44 33 -2 1 -29 15 -59 31 -136 71 -200 108 -205
116 -7 11 37 20 110 21 33 1 112 10 175 20 63 10 141 19 173 19 31 0 57 4 57
9 0 17 -73 20 -153 5 -45 -8 -116 -19 -157 -24 -41 -5 -93 -12 -115 -15 -157
-21 -208 -24 -350 -26 -282 -2 -263 -4 -270 34 -12 71 -12 83 5 107 9 14 29
52 45 85 15 33 38 76 51 95 13 19 24 38 24 42 0 11 -29 8 -70 -7z m-3 -52 c-8
-16 -26 -54 -42 -85 -15 -32 -29 -58 -31 -58 -2 0 -11 26 -20 58 -9 31 -20 62
-26 67 -6 7 14 16 59 26 37 9 69 17 71 18 1 0 -4 -11 -11 -26z m1112 -80 c-12
-21 -34 -60 -48 -88 l-26 -50 -8 70 c-4 38 -5 75 -3 82 3 6 24 14 48 16 24 2
47 4 51 5 5 1 -1 -15 -14 -35z m-1214 -130 c6 -55 5 -57 -9 -33 -8 14 -15 44
-16 68 0 29 -4 42 -14 42 -15 0 -39 -24 -31 -31 2 -3 -18 -31 -46 -63 -49 -58
-61 -83 -35 -73 12 5 11 -4 -5 -40 -16 -37 -17 -48 -7 -55 10 -5 4 -16 -22
-37 -19 -17 -31 -34 -27 -38 5 -4 12 -1 17 7 7 12 13 12 37 1 15 -7 48 -20 73
-28 25 -9 57 -24 72 -34 14 -11 31 -19 37 -19 6 0 11 -9 11 -20 0 -26 -12 -25
-60 5 -39 25 -60 31 -60 19 0 -4 8 -13 18 -20 15 -12 14 -13 -16 -14 -37 0
-49 18 -32 50 6 12 9 24 6 27 -7 8 -76 -48 -76 -62 0 -7 -11 -24 -25 -39 -14
-15 -25 -29 -25 -32 0 -2 18 -4 39 -4 34 0 71 -19 71 -37 0 -3 -11 -14 -26
-25 -32 -26 -24 -35 11 -12 27 17 27 17 23 -7 -2 -19 -8 -23 -28 -21 -14 1
-40 4 -58 5 -67 6 -83 48 -84 223 0 83 13 125 63 196 30 42 25 52 -23 44 l-42
-7 49 43 c26 24 55 47 64 52 9 5 30 21 46 37 17 15 46 32 65 36 32 9 36 7 47
-18 6 -15 14 -54 18 -86z m-29 -74 c10 -11 23 -18 30 -15 13 5 24 -24 24 -67
l0 -27 -40 25 c-46 29 -76 32 -102 8 -21 -18 -23 -6 -6 32 13 29 25 31 55 10
35 -25 73 -36 73 -22 0 6 -25 25 -55 42 -30 16 -55 31 -55 33 0 1 10 16 22 33
l23 31 6 -32 c4 -17 15 -40 25 -51z m-245 -59 l-26 -50 -12 30 c-7 16 -14 35
-15 42 -3 10 29 23 68 27 7 0 0 -21 -15 -49z m427 4 c2 -1 -19 -14 -47 -28
l-51 -26 0 35 0 35 48 -7 c26 -3 49 -7 50 -9z m142 6 c0 -3 8 -15 18 -26 22
-24 42 -70 35 -78 -4 -3 -29 -6 -57 -6 -28 0 -71 -6 -96 -14 -42 -12 -47 -12
-82 12 -21 13 -38 28 -38 32 0 3 22 17 50 30 27 13 57 31 65 40 14 15 105 25
105 10z m160 -27 c-59 -63 -63 -65 -76 -34 -6 15 -26 37 -44 48 l-33 21 93 1
94 1 -34 -37z m-802 -24 c13 -45 35 -270 26 -278 -6 -7 -46 15 -180 98 l-52
32 27 28 c14 16 53 60 86 100 33 39 64 70 70 68 5 -2 16 -23 23 -48z m962 4
c45 -27 97 -58 117 -69 l35 -22 -53 -17 c-30 -10 -77 -31 -105 -46 -29 -15
-55 -25 -58 -22 -8 9 22 74 42 89 28 20 6 28 -83 28 -47 0 -85 1 -85 3 0 6 94
103 100 103 4 0 45 -21 90 -47z m-685 17 c3 -5 1 -10 -4 -10 -6 0 -11 5 -11
10 0 6 2 10 4 10 3 0 8 -4 11 -10z m-408 -30 c-8 -11 -33 -41 -57 -66 -47 -50
-57 -48 -70 10 -7 34 -6 36 19 41 14 3 44 12 66 20 54 19 58 18 42 -5z m466
-6 c18 -9 34 -18 37 -21 5 -5 8 -93 3 -93 -20 0 -82 44 -91 65 -28 61 -9 79
51 49z m-91 -24 c5 -32 4 -33 -29 -24 -27 8 -29 22 -5 40 25 19 29 17 34 -16z
m281 -91 c46 -24 59 -20 23 9 -23 18 -24 21 -8 27 9 3 49 9 87 11 l70 5 -41
-38 c-41 -38 -62 -73 -44 -73 5 0 13 6 17 14 11 19 103 89 103 78 0 -4 25 -34
55 -65 30 -31 55 -61 55 -67 0 -7 -66 -9 -207 -7 -180 4 -209 7 -218 21 -7 12
-6 19 5 27 11 8 12 12 3 16 -8 3 -13 25 -13 59 l0 54 38 -25 c20 -14 54 -34
75 -46z m328 39 c1 -7 0 -23 -1 -35 -1 -13 3 -23 9 -23 6 0 11 7 11 17 0 9 2
14 5 12 2 -3 2 -22 -2 -43 l-6 -37 -48 53 c-26 29 -45 56 -43 60 8 13 74 9 75
-4z m612 -82 c8 -21 -2 -26 -47 -26 -30 0 -37 3 -26 10 11 7 11 10 2 10 -7 0
-10 5 -7 10 9 15 72 12 78 -4z m-1263 -47 c0 -5 -11 -9 -25 -9 -27 0 -32 9
-13 28 12 12 38 -1 38 -19z m139 11 c24 -12 40 -28 43 -42 8 -43 0 -49 -40
-29 -20 10 -53 24 -74 30 -55 18 -60 47 -6 42 9 -1 19 3 23 9 8 13 10 13 54
-10z m-451 -38 c45 -23 82 -44 82 -47 0 -2 -51 -4 -114 -3 l-114 1 11 26 c17
39 39 72 46 69 3 -2 43 -22 89 -46z m622 -12 c0 -5 -5 -10 -11 -10 -5 0 -7 5
-4 10 3 6 8 10 11 10 2 0 4 -4 4 -10z m-50 -20 c0 -10 -39 -24 -46 -17 -2 2
-2 11 1 19 6 16 45 13 45 -2z m-137 -29 c57 -25 57 -25 57 -68 0 -24 -1 -43
-3 -43 -2 0 -22 9 -45 20 -23 11 -53 24 -65 29 -20 8 -22 15 -19 50 2 23 7 41
11 39 4 -2 32 -14 64 -27z m-108 -72 c11 -17 0 -20 -21 -4 -17 13 -17 14 -2
15 9 0 20 -5 23 -11z m106 -36 c27 -16 49 -34 49 -40 0 -7 -2 -13 -5 -13 -15
0 -125 62 -125 70 0 17 31 11 81 -17z"/>
</g>
</svg>
