<?xml version="1.0" standalone="no"?>
<!DOCTYPE svg PUBLIC "-//W3C//DTD SVG 20010904//EN"
 "http://www.w3.org/TR/2001/REC-SVG-20010904/DTD/svg10.dtd">
<svg version="1.0" xmlns="http://www.w3.org/2000/svg"
 width="282.000000pt" height="116.000000pt" viewBox="0 0 282.000000 116.000000"
 preserveAspectRatio="xMidYMid meet">
<metadata>
Created by potrace 1.16, written by Peter Selinger 2001-2019
</metadata>
<g transform="translate(0.000000,116.000000) scale(0.100000,-0.100000)"
fill="#000000" stroke="none">
<path d="M871 1106 c-6 -7 -16 -58 -22 -112 -6 -55 -13 -123 -16 -152 -3 -29
-9 -54 -12 -57 -4 -2 -6 -34 -4 -72 2 -37 5 -115 8 -173 7 -177 8 -211 1 -217
-10 -10 -53 17 -109 70 -28 27 -83 73 -122 103 -38 30 -92 73 -119 97 l-48 44
15 30 c18 35 91 97 127 108 14 4 50 20 80 35 30 15 60 29 65 31 6 3 34 20 63
38 69 45 77 74 33 111 -55 44 -118 73 -145 66 -27 -7 -33 -14 -98 -116 -84
-133 -149 -228 -163 -240 -12 -10 -19 -6 -39 17 -14 15 -35 45 -48 65 -13 21
-27 38 -31 38 -5 0 -32 -24 -60 -54 -29 -30 -85 -88 -125 -130 -89 -94 -92
-110 -19 -101 58 7 188 -21 313 -70 101 -39 304 -134 339 -159 17 -12 73 -48
125 -79 52 -32 120 -76 150 -97 57 -41 100 -52 100 -25 0 8 -3 15 -7 15 -5 0
-40 26 -80 58 -39 31 -79 62 -89 68 -15 9 -10 14 39 41 52 28 151 60 170 55 4
-1 26 7 49 19 36 18 47 20 78 10 21 -6 49 -11 63 -11 31 0 36 -14 26 -60 -22
-94 -1 -137 47 -98 39 31 62 45 102 63 18 9 64 31 102 50 l71 34 96 -11 c71
-8 100 -8 114 0 26 16 75 5 139 -33 30 -18 84 -41 119 -51 54 -15 72 -16 119
-6 116 24 187 77 273 203 43 65 60 99 64 136 l7 48 -42 19 c-33 14 -57 17
-109 13 -58 -4 -63 -3 -46 9 49 34 154 132 176 164 13 19 37 49 53 67 30 35
31 67 2 96 -15 14 -211 33 -301 29 -123 -6 -238 -3 -288 8 -50 12 -59 11 -83
-5 -54 -35 -491 -5 -542 38 -11 9 -18 7 -31 -10 -23 -27 -108 -39 -171 -23
-25 6 -76 13 -115 16 -83 7 -169 29 -185 49 -16 19 -44 19 -59 1z m89 -75 c19
-6 48 -13 64 -16 l30 -6 -42 -24 c-25 -14 -55 -23 -77 -22 -34 2 -35 3 -35 45
0 31 4 42 13 38 6 -2 28 -9 47 -15z m574 -32 c16 -5 43 -9 60 -9 29 0 26 -3
-30 -33 -34 -18 -74 -43 -89 -55 -15 -12 -32 -22 -36 -22 -9 0 -11 118 -2 132
4 8 51 2 97 -13z m-244 -3 l85 0 -3 -37 c-3 -32 -8 -39 -31 -44 -15 -3 -48 -1
-72 4 -24 6 -78 11 -119 12 -41 0 -86 4 -100 8 -24 7 -22 9 30 38 44 24 62 29
90 24 19 -3 73 -6 120 -5z m-592 -32 c45 -22 46 -30 8 -59 -31 -24 -135 -69
-143 -62 -3 3 96 137 101 137 2 0 17 -7 34 -16z m1177 10 c17 -4 24 -21 38
-87 9 -44 14 -83 11 -86 -19 -19 -261 1 -359 30 -75 21 -79 27 -46 54 16 14
33 25 37 25 5 0 31 11 58 25 27 14 58 25 68 25 10 0 18 5 18 10 0 11 139 14
175 4z m440 -30 c143 -2 264 -4 269 -4 5 0 3 -6 -4 -14 -6 -8 -18 -12 -25 -10
-18 7 -57 -14 -49 -27 3 -6 15 -9 25 -6 11 3 19 2 19 -1 -1 -20 -131 -132
-185 -160 -11 -5 -40 -13 -65 -17 -25 -3 -58 -9 -73 -11 -70 -11 -198 65 -210
125 -3 16 -9 40 -12 54 -6 22 -4 24 20 19 22 -4 26 -1 23 14 -2 11 -11 19 -20
19 -10 0 -25 9 -35 19 -17 18 -17 18 22 11 22 -4 157 -9 300 -11z m-1395 -13
c0 -6 -4 -13 -10 -16 -5 -3 -10 1 -10 9 0 9 5 16 10 16 6 0 10 -4 10 -9z m159
-42 c29 -4 56 -10 58 -13 2 -2 -24 -7 -59 -11 -35 -4 -92 -18 -128 -31 -35
-13 -66 -22 -68 -20 -1 2 19 24 45 50 39 38 53 45 73 40 14 -3 49 -10 79 -15z
m283 -31 c-7 -7 -12 -26 -12 -42 0 -17 -3 -42 -7 -55 l-6 -23 -191 4 c-192 5
-251 14 -224 35 22 17 133 52 164 51 16 -1 48 5 69 12 22 8 52 13 67 12 15 -1
29 2 33 8 3 5 32 10 63 10 43 0 53 -3 44 -12z m102 -47 c3 -5 25 -12 48 -15
24 -4 53 -13 66 -20 22 -12 18 -15 -76 -64 -55 -29 -103 -52 -107 -52 -7 0 4
139 12 153 6 10 51 9 57 -2z m390 -62 c83 0 90 -1 108 -24 11 -14 33 -32 49
-40 41 -22 36 -31 -13 -27 -55 4 -110 -30 -118 -73 l-6 -30 -79 3 c-44 2 -111
13 -150 24 -38 11 -82 22 -97 25 -14 3 -36 15 -48 28 l-21 23 48 27 c93 52
156 74 198 69 22 -3 80 -5 129 -5z m-1563 -31 c6 -13 20 -32 30 -43 10 -11 33
-37 50 -58 30 -35 159 -145 196 -166 10 -5 16 -12 13 -14 -4 -4 -130 47 -205
83 -11 5 -67 21 -125 36 -58 14 -108 28 -112 30 -9 6 87 130 110 144 25 14 30
12 43 -12z m694 -13 c11 -2 40 -4 65 -5 42 -1 43 -2 20 -12 -14 -7 -63 -29
-108 -51 -46 -21 -86 -37 -88 -35 -2 2 -6 30 -10 62 l-7 59 54 -7 c30 -4 63
-9 74 -11z m346 -32 c1 -16 1 -33 0 -39 -2 -18 27 -37 50 -31 15 4 19 1 17
-11 -3 -15 -20 -17 -117 -20 -78 -2 -117 1 -121 9 -6 8 -13 8 -30 -1 -23 -12
-184 -5 -176 9 5 7 52 31 113 56 47 20 192 53 236 54 23 1 27 -3 28 -26z m740
-73 c76 -10 128 -9 269 3 161 13 235 10 188 -8 -10 -4 -18 -14 -18 -22 0 -10
6 -13 16 -9 25 10 7 -31 -42 -95 -79 -103 -135 -142 -221 -154 -63 -8 -131 11
-191 55 -47 34 -97 127 -88 163 4 17 0 30 -14 42 -23 20 -27 50 -7 42 8 -3 56
-11 108 -17z m-551 -30 c19 -1 70 -29 53 -30 -7 0 -41 -13 -75 -30 -34 -16
-63 -29 -64 -27 -10 10 12 46 30 49 28 4 27 32 -1 36 -13 2 -23 7 -23 11 0 17
13 18 38 5 15 -8 34 -14 42 -14z m-487 -39 c13 -13 -81 -62 -129 -68 -40 -5
-42 -4 -49 27 -4 17 -5 32 -3 33 1 1 12 8 23 15 22 14 142 9 158 -7z m340 -9
c10 -2 17 -14 17 -27 0 -32 -32 -85 -50 -85 -8 0 -33 5 -54 10 -21 5 -91 10
-155 11 -172 4 -174 5 -102 46 33 18 63 38 67 44 6 10 239 11 277 1z m392 -6
c55 -7 106 -11 112 -9 7 3 18 -8 24 -24 6 -15 18 -42 26 -60 9 -17 15 -35 14
-39 -2 -10 -164 -4 -175 7 -6 5 -22 9 -36 9 -28 0 -199 56 -213 70 -11 10 6
21 68 42 61 20 57 20 180 4z m-209 -125 l77 -28 -59 -28 c-32 -15 -85 -40
-116 -56 l-58 -29 6 78 c4 52 11 81 22 90 17 13 17 13 128 -27z m-498 -6 c23
0 42 -3 42 -7 0 -5 -9 -8 -19 -8 -11 0 -48 -13 -83 -29 -35 -16 -80 -32 -101
-36 l-38 -7 3 43 c4 54 15 60 93 51 33 -4 79 -7 103 -7z"/>
<path d="M2059 874 c-10 -13 -10 -17 2 -25 35 -22 71 -2 43 25 -19 20 -28 20
-45 0z"/>
<path d="M2420 870 c-8 -5 -29 -10 -47 -10 -41 0 -52 -17 -19 -30 19 -7 35 -6
59 4 17 8 40 17 50 20 9 3 17 10 17 16 0 13 -40 13 -60 0z"/>
<path d="M2142 843 c2 -11 14 -19 31 -21 23 -3 28 0 25 15 -2 11 -14 19 -31
21 -23 3 -28 0 -25 -15z"/>
<path d="M2242 843 c-25 -22 -45 -139 -21 -131 7 2 18 27 24 54 9 45 12 49 38
46 22 -3 27 1 27 17 0 12 -4 21 -9 21 -5 0 -16 2 -24 5 -7 3 -23 -2 -35 -12z"/>
<path d="M1997 536 c-7 -18 16 -34 53 -36 14 0 50 -3 80 -5 30 -2 60 -4 66 -4
6 -1 8 -20 3 -58 -10 -82 -10 -103 0 -103 8 0 27 107 24 138 -1 9 13 13 46 12
25 0 61 2 78 3 38 4 113 36 113 49 0 12 -13 10 -49 -8 -24 -12 -50 -14 -114
-10 -176 11 -212 15 -268 30 -19 6 -28 3 -32 -8z"/>
</g>
</svg>
