<?xml version="1.0" standalone="no"?>
<!DOCTYPE svg PUBLIC "-//W3C//DTD SVG 20010904//EN"
 "http://www.w3.org/TR/2001/REC-SVG-20010904/DTD/svg10.dtd">
<svg version="1.0" xmlns="http://www.w3.org/2000/svg"
 width="289.000000pt" height="175.000000pt" viewBox="0 0 289.000000 175.000000"
 preserveAspectRatio="xMidYMid meet">
<metadata>
Created by potrace 1.16, written by Peter Selinger 2001-2019
</metadata>
<g transform="translate(0.000000,175.000000) scale(0.100000,-0.100000)"
fill="#000000" stroke="none">
<path d="M1584 1593 c-54 -47 -101 -89 -104 -93 -3 -4 -9 -9 -15 -11 -27 -11
-95 -55 -95 -61 0 -5 7 -8 15 -8 17 0 20 -16 5 -25 -5 -3 -10 -14 -10 -23 0
-9 -12 -33 -27 -54 -30 -44 -22 -70 15 -47 12 7 24 10 27 7 8 -8 13 -182 7
-215 -4 -21 -10 -23 -69 -23 l-64 0 5 33 c3 17 8 67 11 111 5 61 3 77 -7 74
-9 -3 -14 -29 -16 -84 -3 -124 -4 -124 -63 -124 l-52 0 8 53 c4 28 8 59 9 67
4 29 21 46 109 104 48 32 87 62 87 67 0 20 -29 7 -100 -45 -66 -47 -321 -186
-342 -186 -18 0 -5 38 40 118 28 51 58 92 74 101 16 9 28 21 28 28 0 17 -240
5 -259 -13 -12 -11 -10 -15 12 -25 34 -15 37 -49 4 -49 -13 0 -45 -14 -73 -31
-55 -36 -243 -126 -351 -170 -73 -30 -199 -44 -235 -26 -18 10 -31 -18 -30
-64 1 -31 39 -120 55 -131 6 -4 27 8 47 25 19 18 65 55 102 82 38 28 68 55 68
61 0 15 64 44 78 35 12 -7 34 -145 30 -191 0 -14 2 -78 6 -142 8 -128 3 -140
-41 -99 -12 11 -36 26 -54 34 -51 22 -152 118 -154 147 -1 19 -7 25 -25 25
-19 0 -32 -16 -72 -94 -26 -52 -48 -103 -48 -114 0 -17 4 -19 37 -12 78 15
228 21 253 10 68 -30 100 -57 100 -86 0 -31 17 -39 26 -14 4 8 18 15 33 15 31
0 116 -48 150 -84 24 -25 61 -35 61 -16 0 5 -9 14 -21 20 -11 7 -18 14 -16 17
3 3 26 -9 51 -26 35 -24 45 -38 48 -63 2 -17 8 -33 13 -35 19 -6 31 42 25 107
-3 36 0 92 5 125 l10 60 85 -15 c47 -9 104 -25 128 -38 23 -12 59 -31 80 -41
21 -11 44 -27 52 -35 7 -9 25 -16 40 -16 22 0 30 -6 39 -30 11 -33 9 -35 -20
-20 -11 7 -19 7 -19 1 0 -11 57 -48 113 -73 20 -10 61 -33 90 -52 29 -19 72
-44 96 -55 24 -10 77 -49 118 -86 80 -73 114 -83 41 -13 -71 68 -107 99 -199
171 -47 37 -95 81 -107 97 -20 27 -21 29 -3 35 16 5 140 -55 178 -86 7 -6 21
-9 32 -6 11 3 35 -8 61 -29 24 -19 47 -34 51 -34 13 0 152 -108 162 -126 4 -7
12 -14 17 -14 15 0 12 27 -2 33 -12 4 -169 130 -290 231 -25 21 -56 52 -67 67
l-21 29 51 26 c28 14 62 27 75 28 12 1 29 7 36 12 7 6 33 18 58 28 25 10 62
27 83 38 21 11 44 17 52 14 8 -3 18 0 22 7 9 13 86 62 168 107 28 15 88 53
134 84 88 60 113 65 152 30 8 -8 25 -14 37 -14 11 0 36 -16 55 -35 19 -19 41
-35 50 -35 9 0 24 -11 33 -25 19 -29 47 -34 37 -7 -10 30 -96 113 -143 137
-25 13 -38 24 -29 25 9 0 58 42 110 93 52 52 109 104 127 116 17 12 32 27 32
32 0 15 -60 -20 -117 -67 -28 -24 -54 -44 -57 -44 -3 0 -29 -15 -58 -34 -82
-52 -86 -52 -200 -7 -183 72 -270 102 -276 97 -3 -4 -3 -7 -1 -9 12 -9 141
-59 189 -73 30 -9 50 -19 43 -21 -11 -4 -181 53 -368 123 -55 20 -172 61 -259
90 -88 29 -165 55 -173 58 -21 8 -3 36 24 36 13 0 48 -11 76 -24 29 -13 77
-33 107 -46 30 -12 80 -33 111 -46 138 -59 232 -94 237 -89 7 7 8 7 -88 47
-280 118 -430 190 -412 196 7 2 12 11 12 19 0 18 120 170 179 228 40 38 50 55
33 55 -5 0 -53 -39 -108 -87z m-85 -123 c-18 -22 -33 -40 -35 -40 -1 0 -9 3
-18 6 -12 5 -6 14 27 40 56 44 65 42 26 -6z m-529 -147 c0 -5 -14 -33 -32 -63
l-31 -55 -12 30 c-7 17 -15 42 -19 57 -6 26 -4 27 36 31 24 2 46 4 51 5 4 1 7
-1 7 -5z m538 -73 l52 -14 0 -103 0 -103 -49 0 c-81 0 -79 -3 -80 127 -1 90 1
114 11 111 7 -3 37 -11 66 -18z m-647 -59 c4 -21 3 -42 -4 -53 -8 -12 -9 -21
-2 -26 16 -11 19 -40 18 -157 -1 -116 -2 -137 -23 -362 l-14 -141 -40 28 c-23
15 -57 30 -76 33 -19 2 -65 17 -102 32 l-67 27 0 101 c-1 56 -3 113 -6 127 -8
43 44 166 101 236 19 23 34 49 34 59 0 16 -7 17 -62 11 l-63 -6 97 49 c53 27
107 56 120 65 12 9 36 15 53 14 25 -3 30 -8 36 -37z m792 14 c34 -7 35 -8 32
-48 -1 -23 -3 -61 -4 -84 l-1 -41 -50 0 -50 -1 0 88 c0 89 4 105 26 97 7 -3
28 -8 47 -11z m-543 -29 c0 -11 -135 -106 -151 -106 -43 0 -23 22 58 63 103
53 93 48 93 43z m745 -46 c61 -20 140 -48 178 -61 73 -25 89 -49 32 -49 -28 0
-35 4 -35 19 0 22 -19 39 -21 19 -1 -7 -1 -17 0 -22 7 -33 -73 -19 -82 15 -7
26 -25 24 -29 -3 -2 -18 -10 -23 -33 -23 -30 0 -30 0 -28 53 1 28 -2 52 -7 52
-4 0 -12 -24 -17 -52 l-9 -53 -39 3 c-61 4 -60 4 -57 81 3 63 6 72 20 66 10
-4 67 -24 127 -45z m-709 31 c-3 -5 -8 -26 -11 -47 -9 -61 -12 -65 -42 -60
-16 2 -36 5 -46 5 -26 1 -12 21 48 70 52 42 60 47 51 32z m-531 -108 c-9 -16
-29 -50 -45 -78 l-30 -50 0 35 c0 19 -4 50 -9 67 -9 32 -9 33 27 39 20 3 42 7
47 9 23 8 25 4 10 -22z m1530 -23 c3 -5 1 -10 -4 -10 -6 0 -11 5 -11 10 0 6 2
10 4 10 3 0 8 -4 11 -10z m-1026 -15 c2 -3 -20 -5 -50 -5 -33 0 -49 4 -41 9
13 8 82 5 91 -4z m131 -1 c0 -2 -24 -3 -52 -3 -43 1 -47 3 -23 8 28 6 75 3 75
-5z m-315 -4 c3 -5 1 -10 -4 -10 -6 0 -11 5 -11 10 0 6 2 10 4 10 3 0 8 -4 11
-10z m65 6 c0 -3 -4 -8 -10 -11 -5 -3 -10 -1 -10 4 0 6 5 11 10 11 6 0 10 -2
10 -4z m559 -99 c-1 -48 -4 -89 -8 -91 -3 -2 -31 -7 -62 -11 l-56 -7 -2 91
c-1 50 0 95 3 99 2 4 32 7 65 7 l61 0 -1 -88z m120 14 c-2 -44 -6 -82 -9 -85
-3 -3 -25 -8 -48 -12 l-42 -7 0 92 0 91 51 0 51 0 -3 -79z m123 1 c-3 -37 -10
-70 -16 -74 -6 -4 -28 -8 -48 -8 l-38 0 0 64 c0 89 2 92 58 88 l48 -4 -4 -66z
m108 7 c0 -63 0 -63 -58 -73 l-33 -6 2 53 c3 75 8 85 38 89 46 6 51 0 51 -63z
m-1625 26 c-66 -58 -72 -60 -91 -24 -22 44 -5 55 91 57 l40 2 -40 -35z m1119
-70 l1 -95 -30 -5 c-16 -2 -46 -6 -65 -7 l-35 -3 -5 80 c-8 126 -9 124 63 127
34 2 64 2 66 0 3 -1 5 -45 5 -97z m608 54 c1 -29 -1 -53 -7 -54 -5 -2 -25 -6
-42 -9 l-33 -5 0 59 0 60 39 0 39 0 4 -51z m84 -1 c-1 -38 -5 -48 -18 -49 -10
-1 -23 -2 -29 -3 -6 -1 -12 19 -13 46 -2 40 1 48 19 50 41 7 42 5 41 -44z m94
13 c0 -40 -11 -51 -51 -51 -16 0 -19 7 -19 45 0 45 0 45 35 45 34 0 35 -1 35
-39z m112 16 c19 -31 -1 -44 -69 -45 -20 -1 -23 5 -23 34 l0 34 42 -5 c23 -3
46 -11 50 -18z m-1185 -74 c-4 -49 -7 -98 -7 -110 0 -16 -8 -23 -30 -27 -16
-3 -44 -9 -62 -12 l-31 -6 7 93 c10 146 10 145 90 148 l39 1 -6 -87z m134 0
c1 -83 0 -115 -5 -120 -1 -1 -28 -5 -59 -9 l-57 -7 6 99 c3 55 7 105 9 112 3
7 23 12 55 12 l50 0 1 -87z m-275 29 c-3 -25 -6 -75 -6 -113 0 -61 -2 -68 -22
-75 -43 -13 -50 21 -33 167 7 64 7 65 37 65 30 0 30 0 24 -44z m1229 -47 c-24
-20 -121 -77 -157 -93 -5 -2 -8 15 -8 37 0 23 3 41 8 41 4 0 17 3 30 6 18 5
22 2 22 -16 0 -13 5 -20 13 -17 6 2 11 14 9 25 -3 18 2 22 25 23 15 0 37 4 48
9 36 16 40 10 10 -15z m-188 -61 c0 -44 -2 -47 -41 -65 -22 -10 -41 -17 -42
-16 -1 1 -4 24 -5 52 l-3 50 39 12 c22 6 43 12 47 12 3 1 6 -20 5 -45z m-111
-40 c-1 -57 -1 -57 -40 -71 -22 -7 -42 -11 -44 -8 -7 6 -3 116 4 127 3 4 22 8
43 8 l38 0 -1 -56z m-109 -28 l-2 -73 -43 -16 c-52 -20 -54 -16 -50 74 l3 63
40 12 c22 7 43 13 47 13 4 1 6 -32 5 -73z m-270 38 c-3 -3 -12 -4 -19 -1 -8 3
-5 6 6 6 11 1 17 -2 13 -5z m151 -69 c3 -61 0 -72 -18 -87 l-20 -17 22 -3 23
-4 -25 -11 c-14 -6 -36 -13 -50 -17 l-25 -7 25 21 c23 19 23 21 4 15 -27 -7
-32 10 -30 101 1 68 1 69 31 75 57 13 60 10 63 -66z m-195 58 c-7 -2 -19 -2
-25 0 -7 3 -2 5 12 5 14 0 19 -2 13 -5z m-79 -13 c-12 -12 -134 -30 -134 -19
0 4 21 11 48 14 26 3 54 8 62 9 30 7 34 6 24 -4z m155 -80 c0 -77 -3 -90 -17
-90 -9 -1 -34 -7 -54 -14 l-38 -13 -5 31 c-3 17 -6 58 -7 90 l-3 60 45 12 c83
22 80 25 79 -76z m-309 60 c0 -5 -7 -10 -16 -10 -8 0 -12 5 -9 10 3 6 10 10
16 10 5 0 9 -4 9 -10z m-971 -36 c22 -19 47 -42 57 -49 17 -13 10 -14 -63 -15
-71 0 -83 2 -83 17 0 14 39 83 48 83 2 0 20 -16 41 -36z m916 26 c-26 -11 -78
-12 -71 -2 3 5 24 9 48 10 32 0 38 -2 23 -8z m217 -66 c1 -41 2 -82 2 -91 1
-12 -13 -20 -46 -29 -48 -12 -48 -12 -48 13 0 16 -7 27 -20 30 -16 4 -20 14
-21 54 -1 27 -2 55 -3 61 -1 7 16 15 37 19 20 3 39 8 41 10 3 2 16 5 30 5 26
2 26 1 28 -72z m-312 57 c0 -9 -48 -21 -88 -21 -32 0 -22 10 20 20 46 11 68
11 68 1z m150 -100 c3 -45 3 -86 2 -91 -2 -6 -30 4 -63 21 -49 27 -59 37 -63
63 -9 65 -5 75 39 85 77 16 79 14 85 -78z m-294 48 l29 -32 -40 8 c-48 8 -48
8 -40 34 9 28 16 27 51 -10z m139 -11 c-9 -42 -11 -44 -30 -28 -9 7 -18 10
-22 6 -3 -3 -15 2 -25 11 -19 17 -18 18 19 29 62 19 65 18 58 -18z m694 -13
c-12 -11 -79 -34 -79 -27 0 4 15 13 33 19 38 12 52 15 46 8z m-229 -87 c-1 -7
-23 -24 -51 -37 -41 -20 -52 -22 -59 -11 -4 7 -6 19 -3 26 10 27 113 47 113
22z m-142 -55 c-2 -23 -8 -29 -35 -31 -24 -2 -34 2 -43 18 -11 21 -9 23 35 33
42 10 46 7 43 -20z m178 -69 l26 -21 -24 2 c-13 2 -48 15 -78 30 l-53 27 29
18 c29 18 29 18 51 -8 12 -15 34 -37 49 -48z m-147 -59 c29 -30 59 -55 66 -55
7 0 16 -7 19 -15 4 -10 -9 -5 -37 13 -23 16 -66 41 -94 57 -42 22 -51 31 -42
42 19 22 31 15 88 -42z"/>
<path d="M1800 1649 c0 -16 -209 -222 -247 -244 -31 -18 -45 -45 -24 -45 6 0
22 -11 37 -25 15 -14 32 -25 39 -25 19 0 26 12 14 26 -9 10 -2 28 27 71 43 66
141 189 173 217 11 10 18 23 15 27 -7 13 -34 11 -34 -2z m-169 -227 c-14 -27
-50 -56 -59 -48 -4 5 9 21 28 37 40 34 44 35 31 11z"/>
</g>
</svg>
