<?xml version="1.0" standalone="no"?>
<!DOCTYPE svg PUBLIC "-//W3C//DTD SVG 20010904//EN"
 "http://www.w3.org/TR/2001/REC-SVG-20010904/DTD/svg10.dtd">
<svg version="1.0" xmlns="http://www.w3.org/2000/svg"
 width="348.000000pt" height="184.000000pt" viewBox="0 0 348.000000 184.000000"
 preserveAspectRatio="xMidYMid meet">
<metadata>
Created by potrace 1.16, written by Peter Selinger 2001-2019
</metadata>
<g transform="translate(0.000000,184.000000) scale(0.100000,-0.100000)"
fill="#000000" stroke="none">
<path d="M2110 1751 c-8 -4 -55 -14 -105 -20 -115 -16 -125 -19 -125 -38 0
-38 134 -145 195 -156 11 -2 34 -10 50 -17 17 -7 73 -13 127 -14 53 0 99 -4
102 -7 3 -3 7 -15 8 -28 3 -22 1 -22 -127 -24 -175 -3 -177 -21 -3 -25 132 -3
153 -8 141 -39 -5 -12 -28 -14 -119 -11 -73 2 -113 -1 -111 -7 2 -5 14 -11 28
-12 13 -1 63 -5 112 -8 l87 -7 0 -44 c0 -46 -11 -54 -48 -34 -19 10 -147 40
-202 47 -19 2 -62 10 -95 18 -33 7 -67 13 -75 13 -8 -1 -60 13 -115 30 -55 17
-122 36 -148 42 -26 5 -67 19 -90 29 -23 10 -50 21 -59 24 -24 8 -71 -27 -168
-127 -47 -48 -97 -96 -112 -107 -24 -18 -26 -18 -23 -2 2 10 4 18 5 18 1 0 3
7 5 15 2 8 10 38 19 65 21 67 20 82 -6 97 -21 11 -206 13 -217 2 -2 -2 2 -16
9 -30 12 -22 12 -27 0 -34 -8 -6 -26 -10 -40 -10 -14 0 -108 -7 -208 -15 -101
-7 -190 -11 -198 -8 -19 7 -46 -17 -39 -35 13 -34 33 -151 31 -181 -2 -25 2
-33 20 -37 28 -7 30 -17 54 -189 21 -146 24 -205 14 -205 -6 0 -130 55 -239
106 -47 22 -95 72 -95 99 0 18 21 40 88 91 131 101 133 104 115 145 -8 19 -21
45 -30 59 -8 14 -23 44 -34 68 l-21 44 -36 -37 c-21 -21 -81 -71 -135 -112
-102 -79 -124 -109 -161 -221 -25 -74 -16 -110 39 -161 25 -23 51 -41 60 -41
8 0 43 -13 77 -28 73 -33 204 -68 343 -92 83 -14 278 -33 348 -34 31 0 57 -4
57 -9 0 -5 8 -6 19 -2 15 4 20 -1 24 -25 4 -16 8 -38 11 -48 2 -9 5 -30 5 -45
1 -28 27 -48 40 -31 8 11 94 41 146 49 44 8 172 49 221 70 91 41 395 128 404
115 7 -9 160 -60 183 -60 40 0 8 23 -66 47 -42 14 -77 29 -77 33 0 4 15 11 33
17 25 7 40 7 58 -2 30 -16 123 -23 127 -10 1 6 -20 12 -47 15 -56 6 -73 16
-45 26 91 32 175 67 179 75 4 5 13 9 22 9 15 0 15 -2 -1 -17 -9 -10 -31 -41
-49 -69 -18 -29 -68 -91 -112 -139 -69 -75 -84 -86 -106 -81 -32 6 -99 45 -99
57 0 12 5 11 67 -5 37 -10 54 -11 62 -3 8 8 -17 20 -86 43 -54 18 -101 30
-105 28 -15 -9 -8 -20 18 -30 l27 -9 -44 -30 c-24 -17 -57 -36 -72 -43 -24
-10 -27 -10 -25 4 6 30 -26 39 -58 17 -30 -21 -254 -136 -299 -153 -14 -5 -25
-16 -25 -23 0 -16 33 -57 46 -57 5 0 20 -12 33 -25 13 -14 27 -25 31 -25 4 0
10 -9 13 -20 8 -31 23 -24 56 24 22 31 27 46 18 49 -7 3 -5 6 5 6 9 1 38 24
65 53 70 76 106 108 120 108 20 0 71 -53 96 -100 16 -31 33 -48 53 -54 78 -23
141 -51 164 -71 25 -22 50 -23 50 -2 0 6 10 31 21 56 12 25 37 80 56 121 19
41 43 92 54 113 11 20 17 37 13 37 -3 0 0 10 8 23 8 12 29 60 47 107 48 121
64 145 114 163 23 8 85 30 137 48 52 18 158 57 235 86 77 29 158 56 180 59 44
6 90 25 147 61 21 13 48 23 62 23 13 0 29 6 35 14 6 8 25 19 41 26 41 17 39
34 -2 23 -39 -10 -318 -11 -318 -1 0 4 -13 3 -29 -2 -16 -4 -32 -5 -36 -2 -3
3 -43 9 -88 13 -45 4 -142 13 -214 20 -132 13 -133 13 -133 39 1 20 19 105 41
190 2 8 14 26 27 40 12 14 25 32 27 41 3 9 17 21 32 28 23 11 25 14 11 27 -13
13 -22 14 -59 3 -24 -6 -72 -11 -106 -10 -34 1 -71 -3 -82 -8 -24 -13 -181
-18 -200 -7 -38 24 -48 114 -16 159 24 34 2 58 -35 38z m-26 -96 c-3 -25 -1
-45 3 -45 5 0 9 -9 9 -20 0 -11 -5 -20 -11 -20 -17 1 -70 33 -114 70 l-42 35
58 11 c103 20 102 21 97 -31z m436 -130 c-5 0 -50 -104 -50 -115 0 -9 -4 -20
-8 -25 -5 -6 -15 -43 -21 -82 -7 -40 -17 -73 -21 -73 -14 0 -22 76 -12 114 10
33 8 59 -5 96 -9 25 -10 64 -2 75 4 6 32 10 63 10 31 0 56 0 56 0z m-1300
-240 c-15 -57 -31 -109 -35 -115 -4 -6 -8 -26 -10 -43 -2 -18 -5 -39 -7 -47
-25 -85 -31 -108 -33 -125 -1 -11 -5 -33 -8 -50 -4 -16 -9 -50 -13 -75 -10
-75 -15 -67 -18 33 0 17 -5 35 -11 39 -6 5 -5 8 3 8 10 0 11 43 6 204 -6 200
-5 203 15 209 27 7 27 23 1 30 -11 3 -20 12 -20 21 0 12 15 16 68 18 37 2 72
2 79 0 7 -2 2 -35 -17 -107z m441 96 c46 -11 113 -29 149 -41 52 -17 260 -60
293 -60 5 0 5 -5 1 -11 -3 -6 -17 -8 -33 -4 -42 11 -56 13 -271 40 -241 29
-287 40 -269 61 8 10 8 14 0 14 -6 0 -11 5 -11 10 0 15 47 12 141 -9z m-264
-98 c-13 -26 -45 -87 -69 -135 l-45 -87 -37 37 -36 37 102 102 c57 56 104 100
106 98 2 -2 -7 -25 -21 -52z m-392 39 c-6 -5 -36 -19 -68 -32 -32 -12 -108
-51 -169 -86 -62 -35 -115 -64 -119 -64 -4 0 -10 26 -15 58 -15 104 -21 96 86
103 150 10 265 20 269 25 2 2 9 4 15 4 6 0 6 -3 1 -8z m472 -49 c7 -3 17 6 22
20 8 19 15 23 35 20 14 -3 26 -10 26 -17 1 -31 1 -267 1 -388 -1 -131 3 -168
18 -168 3 0 6 124 7 275 0 151 3 277 6 280 2 3 49 1 104 -5 54 -5 126 -12 159
-15 93 -9 415 -63 465 -79 55 -17 28 -26 -40 -14 -95 17 -250 13 -229 -6 5 -5
178 -15 262 -16 l68 0 -3 -27 c-3 -26 -6 -28 -43 -26 -127 6 -224 13 -239 19
-16 6 -45 -10 -35 -20 2 -3 40 -7 84 -10 44 -3 113 -8 153 -12 l72 -7 0 -33
c0 -18 -4 -35 -8 -38 -5 -3 -40 1 -78 9 -91 18 -203 25 -210 14 -7 -12 11 -18
71 -23 28 -2 87 -10 133 -17 80 -13 82 -14 82 -42 0 -33 -23 -45 -46 -23 -8 9
-19 14 -24 11 -4 -2 -29 2 -56 9 -81 23 -147 30 -142 14 3 -7 13 -14 24 -16
10 -1 56 -10 102 -19 l82 -18 -52 -12 c-29 -7 -66 -12 -81 -13 -19 0 -30 -6
-34 -18 -4 -15 -62 -38 -148 -59 -5 -1 -28 -9 -50 -17 -22 -8 -105 -28 -185
-44 -80 -17 -157 -35 -172 -41 -15 -6 -72 -19 -125 -31 -54 -11 -127 -26 -163
-34 -112 -23 -160 -28 -174 -16 -14 11 -14 10 40 280 19 94 41 181 49 188 3 3
24 -13 46 -37 31 -33 43 -40 54 -31 7 6 15 7 18 3 7 -12 16 -104 23 -228 3
-60 7 -112 9 -114 2 -1 8 0 14 3 7 5 8 30 5 69 -3 33 -7 95 -9 137 -6 135 -14
170 -40 170 -11 0 -7 13 14 48 16 27 34 65 42 85 7 20 16 37 20 37 3 0 17 24
30 53 22 51 23 51 28 23 3 -16 12 -31 18 -33z m-416 -35 c0 -35 3 -85 5 -113
13 -169 1 -514 -18 -526 -10 -6 -26 -3 -113 21 -22 6 -71 18 -110 26 -79 17
-97 32 -85 72 5 15 16 75 25 133 8 58 27 142 40 185 14 43 28 100 31 125 5 37
12 49 33 59 61 30 177 80 184 80 4 0 7 -28 8 -62z m1296 -24 c-3 -3 -12 -4
-19 -1 -8 3 -5 6 6 6 11 1 17 -2 13 -5z m-1864 -74 c32 -56 28 -64 -59 -126
-79 -57 -134 -125 -134 -167 0 -34 39 -98 75 -121 12 -8 59 -20 103 -26 73
-10 221 -64 209 -77 -5 -4 -123 22 -242 54 -33 8 -97 33 -141 54 -45 22 -86
39 -92 39 -6 0 -20 12 -32 28 -38 47 -19 154 41 240 9 13 63 56 120 97 115 82
109 81 152 5z m1992 50 c3 -5 1 -10 -4 -10 -6 0 -11 5 -11 10 0 6 2 10 4 10 3
0 8 -4 11 -10z m223 -15 c9 -2 51 -6 92 -11 66 -7 71 -8 41 -15 -19 -4 -44 -3
-55 1 -12 5 -79 14 -150 20 -71 5 -132 13 -135 16 -5 6 165 -3 207 -11z
m-1918 -75 c-41 -143 -50 -178 -61 -248 -15 -101 -19 -94 -34 68 -4 41 -13 97
-20 125 l-12 49 56 34 c31 18 60 38 66 43 20 20 23 -9 5 -71z m1758 53 c32 -3
51 -10 49 -17 -2 -6 1 -27 8 -46 10 -32 6 -92 -8 -106 -3 -3 -36 -14 -74 -24
-37 -10 -79 -22 -93 -28 -23 -9 -25 -7 -27 17 -2 25 16 109 38 179 12 35 16
36 107 25z m182 -15 c42 -2 46 -5 57 -38 16 -45 8 -68 -25 -76 -46 -10 -103
-25 -115 -30 -9 -3 -13 19 -14 77 l-2 80 27 -5 c15 -3 47 -6 72 -8z m270 -39
c-52 -16 -102 -32 -110 -36 -8 -3 -18 -7 -22 -7 -3 -1 -10 -4 -14 -8 -4 -5
-14 -8 -23 -8 -12 0 -16 11 -17 45 l-1 45 141 -1 141 0 -95 -30z m100 -4 c0
-6 -128 -45 -148 -45 -28 0 -6 10 64 29 79 22 84 23 84 16z m-215 -69 c-27
-13 -90 -38 -140 -56 -49 -17 -142 -52 -206 -77 -64 -25 -128 -45 -142 -45
-15 0 -32 -7 -38 -14 -6 -8 -18 -14 -25 -14 -8 0 -40 -9 -71 -20 -32 -11 -68
-20 -81 -20 -12 0 -33 -10 -45 -23 -24 -26 -48 -36 -152 -66 -38 -11 -110 -32
-160 -47 -49 -15 -92 -28 -95 -28 -14 -2 -104 -31 -180 -58 -79 -27 -205 -66
-240 -73 -8 -2 -35 -9 -60 -16 -25 -7 -48 -12 -53 -11 -4 1 -7 -2 -7 -8 0 -16
-18 -12 -37 9 -12 13 -18 35 -18 67 l0 48 115 23 c63 12 122 26 130 29 8 4 25
9 37 11 11 2 54 12 95 23 91 24 213 53 343 80 55 12 110 26 123 31 13 5 32 9
43 9 21 0 105 25 219 66 36 13 79 26 95 29 48 11 115 37 111 44 -2 3 9 6 26 7
16 1 46 6 66 12 132 41 210 62 226 62 22 0 118 30 131 41 5 5 16 9 25 8 8 0
-7 -11 -35 -23z m-2495 -250 c0 -13 -29 14 -42 38 -10 18 -7 17 15 -4 15 -14
27 -29 27 -34z m1950 -9 c0 -6 -50 -130 -71 -174 -10 -24 -19 -46 -19 -49 0
-4 -30 -66 -67 -139 -54 -109 -69 -132 -82 -125 -9 5 -42 19 -73 31 -32 13
-58 25 -58 28 0 3 25 33 56 66 31 33 61 68 68 77 7 9 40 47 74 85 55 61 112
136 112 148 0 9 44 55 52 55 4 0 8 -1 8 -3z m-1613 -143 c-3 -3 -12 -4 -19 -1
-8 3 -5 6 6 6 11 1 17 -2 13 -5z m80 -10 c-3 -3 -12 -4 -19 -1 -8 3 -5 6 6 6
11 1 17 -2 13 -5z m1089 -125 c3 -6 8 -32 9 -57 2 -29 9 -50 20 -58 9 -7 14
-17 10 -23 -10 -18 -22 -12 -29 13 -3 13 -21 41 -41 62 -19 22 -35 42 -35 45
0 6 39 27 52 28 4 1 10 -4 14 -10z m-166 -19 c0 -6 -7 -13 -15 -16 -8 -4 -15
-11 -15 -17 0 -6 -11 -22 -24 -36 -14 -14 -49 -53 -79 -86 l-54 -59 -52 39
c-28 22 -51 43 -51 47 0 4 24 18 53 30 28 12 90 42 137 65 91 46 100 49 100
33z m273 -4 l28 -7 -32 -41 c-30 -37 -33 -39 -46 -22 -7 10 -13 33 -13 52 0
27 3 32 18 29 9 -3 30 -8 45 -11z"/>
<path d="M1786 1262 c-10 -16 6 -82 18 -75 7 4 6 1 -1 -8 -8 -10 -13 -50 -13
-105 -1 -49 -2 -136 -3 -194 -2 -86 1 -105 13 -105 11 0 13 12 11 55 -2 30 -3
62 -3 70 1 8 4 95 6 193 3 142 1 177 -10 177 -7 0 -15 -4 -18 -8z"/>
</g>
</svg>
