<?xml version="1.0" standalone="no"?>
<!DOCTYPE svg PUBLIC "-//W3C//DTD SVG 20010904//EN"
 "http://www.w3.org/TR/2001/REC-SVG-20010904/DTD/svg10.dtd">
<svg version="1.0" xmlns="http://www.w3.org/2000/svg"
 width="326.000000pt" height="150.000000pt" viewBox="0 0 326.000000 150.000000"
 preserveAspectRatio="xMidYMid meet">
<metadata>
Created by potrace 1.16, written by Peter Selinger 2001-2019
</metadata>
<g transform="translate(0.000000,150.000000) scale(0.100000,-0.100000)"
fill="#000000" stroke="none">
<path d="M1518 1310 c-20 -46 -58 -80 -90 -80 -5 0 -34 -11 -64 -25 -30 -14
-59 -25 -63 -25 -14 0 -169 -69 -313 -138 -7 -3 -4 12 14 88 12 49 52 136 74
161 20 23 7 52 -20 45 -11 -3 -57 -9 -101 -12 -44 -4 -86 -11 -93 -17 -15 -12
-7 -42 19 -68 10 -10 19 -31 19 -47 0 -25 -7 -30 -82 -59 -171 -66 -540 -164
-629 -168 -56 -2 -69 -10 -69 -40 0 -39 40 -179 55 -190 11 -9 9 -20 -11 -59
-13 -26 -24 -50 -24 -54 0 -12 55 -26 280 -73 30 -6 96 -14 145 -19 86 -7 112
-12 214 -46 74 -25 81 -31 81 -74 0 -33 3 -40 20 -40 18 0 25 16 21 43 0 4 3
7 8 7 5 0 9 -21 8 -47 l-2 -48 35 1 c200 5 363 20 520 49 47 8 135 24 195 35
61 11 128 24 150 29 244 53 457 91 530 95 39 2 77 6 85 8 8 3 62 16 120 28
151 33 241 56 286 75 21 9 68 19 104 22 66 6 114 27 107 47 -2 6 -16 10 -31 8
-27 -4 -112 20 -156 44 -14 8 -53 23 -87 34 -34 11 -87 31 -117 45 -30 14 -59
25 -64 25 -5 0 -17 9 -27 20 -9 10 -43 27 -74 36 -31 9 -128 50 -216 91 -88
41 -184 83 -214 94 -30 10 -75 31 -100 45 -195 111 -377 204 -400 204 -16 0
-27 -13 -43 -50z m166 -64 c246 -130 295 -155 355 -176 89 -31 239 -99 220
-100 -21 0 -73 17 -125 41 -22 11 -45 19 -52 19 -11 0 -122 33 -242 72 -36 12
-81 29 -100 38 -19 10 -68 27 -109 39 -88 24 -95 30 -82 62 5 13 12 32 15 42
3 9 8 17 12 17 3 0 52 -24 108 -54z m-680 23 c-4 -7 -17 -41 -30 -77 l-23 -66
-7 62 c-3 35 -12 66 -18 70 -6 4 4 10 24 13 56 10 62 10 54 -2z m471 -83 c8
-7 12 -15 10 -17 -7 -8 -16 -149 -19 -340 -3 -107 -8 -227 -11 -266 l-7 -71
-82 -4 c-100 -5 -108 -3 -102 31 8 42 17 175 20 326 2 77 7 153 11 169 5 20 4
31 -6 37 -11 7 -11 9 -1 9 7 0 11 4 8 8 -2 4 21 26 51 47 31 22 65 50 76 63
24 26 33 27 52 8z m61 -25 c16 -5 49 -14 74 -21 25 -6 71 -24 102 -38 l58 -25
-7 -101 c-7 -107 -7 -132 -4 -238 2 -37 0 -96 -4 -132 -8 -74 -4 -70 -110 -86
-38 -5 -86 -13 -106 -16 -35 -6 -37 -5 -44 25 -3 17 -4 35 -1 39 3 5 8 126 10
269 3 143 8 272 12 287 5 19 2 31 -7 37 -18 11 -9 11 27 0z m-221 -30 c-13
-10 -302 -193 -334 -211 -24 -12 -24 -12 -18 26 9 51 28 66 125 99 45 16 82
31 82 35 0 4 6 7 13 7 15 1 117 40 125 48 3 3 8 5 11 5 3 0 1 -4 -4 -9z m-410
-208 c-5 -148 -13 -231 -26 -288 -10 -44 -19 -94 -19 -112 l0 -32 -52 24 c-29
14 -58 25 -64 25 -6 0 -17 6 -23 14 -7 8 -35 20 -64 26 -61 15 -112 60 -101
92 3 10 6 49 5 85 0 54 6 79 36 147 49 108 61 126 87 126 11 0 35 7 51 16 69
38 161 83 168 84 5 0 6 -93 2 -207z m1044 102 c52 -14 97 -28 100 -30 6 -7 15
-187 16 -330 l0 -110 -75 -1 c-41 0 -102 -4 -135 -8 l-60 -7 2 213 c3 307 4
313 36 304 12 -4 64 -18 116 -31z m-1359 0 c-7 -8 -17 -15 -23 -15 -18 0 -197
-89 -263 -131 -34 -22 -65 -39 -69 -39 -5 0 -17 -7 -27 -17 -17 -15 -18 -15
-18 14 0 17 -3 44 -6 60 -6 29 -6 30 68 46 40 9 105 26 143 37 39 11 90 25
114 30 24 6 51 15 60 20 24 14 35 12 21 -5z m646 -222 c-2 -131 -8 -257 -11
-279 l-7 -42 -92 -6 c-50 -3 -119 -8 -153 -12 -70 -7 -74 -2 -54 62 13 38 28
194 30 312 1 17 27 39 119 99 96 64 151 97 170 102 1 1 0 -106 -2 -236z m-625
175 c-5 -13 -22 -51 -39 -85 l-29 -62 -10 60 -10 60 46 24 c25 13 47 24 48 25
1 0 -1 -10 -6 -22z m1666 -57 c40 -7 77 -18 82 -25 6 -7 14 -83 17 -169 l7
-157 -29 -1 c-16 0 -77 -2 -136 -5 l-107 -5 0 88 c0 49 -4 111 -10 138 -11 58
-11 82 -4 147 l5 46 51 -22 c29 -13 84 -28 124 -35z m-1771 -36 c9 -131 12
-206 7 -224 -4 -17 -8 -18 -52 -6 -25 6 -55 17 -66 23 -54 30 -136 63 -145 57
-23 -14 -8 43 18 66 68 61 204 143 225 136 5 -1 11 -25 13 -52z m2019 -24 c22
-15 52 -32 67 -39 32 -13 39 -35 41 -123 1 -35 7 -64 12 -64 6 0 15 34 20 76
l10 75 60 -27 c33 -15 65 -27 71 -26 5 1 29 -7 51 -18 l42 -20 -52 -18 c-112
-39 -289 -83 -373 -93 l-50 -6 -3 48 c-1 27 -4 67 -7 89 -9 80 -13 169 -8 177
9 14 77 -3 119 -31z m-2240 -172 c22 -6 65 -21 95 -34 30 -13 72 -26 92 -30
21 -3 37 -9 37 -13 -5 -32 3 -52 21 -52 12 0 20 7 20 16 0 12 5 14 18 9 9 -5
39 -16 67 -25 l50 -17 -85 4 c-47 3 -99 9 -116 14 -17 5 -64 16 -105 24 -115
22 -170 34 -179 40 -12 7 20 75 34 75 6 0 29 -5 51 -11z m1615 -190 c-19 -5
-46 -10 -60 -12 -14 -2 -41 -9 -60 -14 -38 -12 -107 -26 -215 -43 -38 -7 -104
-18 -145 -25 -42 -8 -136 -18 -210 -24 -149 -12 -229 -20 -247 -26 -9 -3 -13
8 -13 34 l0 39 93 11 c50 6 133 11 182 11 124 -1 225 7 395 30 140 19 206 26
280 27 l35 1 -35 -9z"/>
</g>
</svg>
