<?xml version="1.0" standalone="no"?>
<!DOCTYPE svg PUBLIC "-//W3C//DTD SVG 20010904//EN"
 "http://www.w3.org/TR/2001/REC-SVG-20010904/DTD/svg10.dtd">
<svg version="1.0" xmlns="http://www.w3.org/2000/svg"
 width="86.000000pt" height="135.000000pt" viewBox="0 0 86.000000 135.000000"
 preserveAspectRatio="xMidYMid meet">
<metadata>
Created by potrace 1.16, written by Peter Selinger 2001-2019
</metadata>
<g transform="translate(0.000000,135.000000) scale(0.100000,-0.100000)"
fill="#000000" stroke="none">
<path d="M180 1242 c-19 -16 -23 -32 -31 -142 -5 -69 -14 -149 -19 -179 -14
-79 -12 -128 6 -157 14 -21 21 -24 53 -18 85 16 164 87 212 191 55 122 -6 254
-141 303 -65 24 -53 24 -80 2z m105 -78 c93 -76 110 -182 45 -280 -38 -57 -80
-91 -125 -100 -30 -5 -30 -5 -28 38 1 24 9 90 18 148 9 58 17 133 18 168 2 74
10 77 72 26z"/>
<path d="M608 1027 c-42 -16 -67 -95 -87 -277 -6 -47 -13 -106 -17 -131 -9
-62 6 -66 93 -24 132 63 167 111 193 265 13 76 -2 122 -49 148 -46 25 -99 33
-133 19z m64 -37 c57 -16 82 -58 75 -128 -14 -151 -56 -210 -176 -247 -20 -6
-23 -4 -18 10 6 14 19 107 31 225 5 44 17 125 21 138 5 15 19 15 67 2z"/>
<path d="M152 603 c-21 -17 -22 -26 -25 -230 -3 -197 -5 -214 -23 -227 -10 -8
-16 -17 -12 -21 13 -14 89 17 146 60 46 35 68 60 96 115 45 85 49 146 16 215
-22 46 -47 65 -110 83 -19 5 -42 13 -51 16 -9 4 -25 -1 -37 -11z m96 -58 c32
-13 41 -24 55 -63 9 -26 17 -59 17 -74 0 -67 -66 -179 -124 -210 -18 -10 -19
-5 -13 168 4 99 7 182 7 187 0 11 15 9 58 -8z"/>
</g>
</svg>
