<?xml version="1.0" standalone="no"?>
<!DOCTYPE svg PUBLIC "-//W3C//DTD SVG 20010904//EN"
 "http://www.w3.org/TR/2001/REC-SVG-20010904/DTD/svg10.dtd">
<svg version="1.0" xmlns="http://www.w3.org/2000/svg"
 width="259.000000pt" height="125.000000pt" viewBox="0 0 259.000000 125.000000"
 preserveAspectRatio="xMidYMid meet">
<metadata>
Created by potrace 1.16, written by Peter Selinger 2001-2019
</metadata>
<g transform="translate(0.000000,125.000000) scale(0.100000,-0.100000)"
fill="#000000" stroke="none">
<path d="M538 1064 c-11 -11 12 -34 33 -34 24 0 24 -3 -8 -58 -108 -189 -211
-297 -390 -410 -51 -32 -54 -56 -13 -77 16 -8 31 -15 32 -14 11 4 58 -15 62
-26 2 -7 44 -33 93 -57 48 -25 113 -60 143 -79 57 -36 104 -59 120 -59 24 0 6
29 -41 65 -72 55 -98 94 -119 177 -14 56 -16 90 -10 143 14 141 59 205 204
297 7 4 11 -8 10 -35 -1 -23 4 -74 11 -113 8 -45 11 -152 9 -302 -2 -134 0
-234 6 -237 15 -9 30 30 28 76 -2 74 10 199 21 213 6 7 8 15 5 18 -3 4 2 20
10 36 14 27 20 30 48 26 75 -10 94 -12 106 -13 6 -1 12 -5 12 -9 0 -9 -73 -59
-126 -85 -17 -9 -36 -23 -44 -32 -30 -36 156 63 207 111 7 6 56 15 110 19 54
4 108 11 120 16 25 9 25 10 8 -61 -3 -14 -8 -79 -12 -146 -5 -105 -4 -122 10
-127 23 -9 31 9 31 68 l1 50 35 -3 c19 -2 38 -6 42 -8 14 -9 -5 -36 -31 -46
l-26 -10 23 -9 c28 -11 26 -42 -3 -47 -112 -17 -80 -29 93 -37 217 -9 239 -9
477 -1 116 4 283 9 372 9 166 2 210 12 164 37 -12 6 -27 8 -33 4 -7 -5 -8 -3
-3 6 5 7 9 39 11 69 4 99 24 345 30 379 5 23 3 32 -7 32 -10 0 -11 2 -2 8 7 4
13 27 14 50 2 23 6 42 10 42 15 0 17 31 4 56 -10 19 -11 34 -4 52 20 51 19 51
-253 47 -212 -4 -392 -11 -417 -17 -3 -1 -31 1 -61 5 -30 4 -86 9 -125 12 -38
2 -109 7 -156 10 -123 9 -136 4 -145 -53 -10 -68 -11 -114 -2 -139 4 -12 3
-25 -2 -28 -6 -4 -9 -37 -7 -74 3 -70 -3 -105 -19 -107 -5 0 -58 -4 -119 -9
-60 -5 -114 -8 -118 -7 -4 1 -29 4 -55 7 -95 9 -130 17 -128 28 5 35 117 247
144 274 55 54 46 62 -63 56 -91 -5 -95 -4 -95 16 0 13 -8 22 -22 25 -13 2 -45
9 -73 16 -75 18 -119 23 -127 14z m149 -62 c-18 -2 -32 -12 -39 -28 -6 -13
-15 -24 -20 -24 -5 0 -20 -12 -34 -27 -37 -40 -40 -20 -5 36 28 43 37 50 69
53 44 4 70 -6 29 -10z m656 -5 c2 -7 1 -22 -4 -34 -6 -16 -13 -20 -30 -16 -14
4 -20 2 -16 -4 5 -7 0 -9 -13 -6 -29 8 -28 61 2 72 26 9 55 4 61 -12z m873 3
c0 -8 -4 -27 -9 -42 -7 -21 -16 -28 -34 -28 -23 0 -25 3 -19 31 3 17 6 38 6
46 0 20 55 13 56 -7z m-768 -17 c-2 -22 -9 -29 -32 -31 -35 -4 -50 9 -41 37 5
16 15 21 41 21 33 0 35 -2 32 -27z m478 0 c-3 -8 -6 -26 -6 -39 0 -19 -5 -24
-25 -24 -24 0 -25 2 -19 35 4 23 2 35 -5 35 -11 0 -13 -6 -15 -45 -1 -14 -9
-21 -28 -23 -25 -3 -28 0 -28 25 0 39 10 51 45 55 51 5 87 -3 81 -19z m72 -12
c5 -47 -2 -59 -32 -54 -22 5 -26 11 -26 39 0 21 6 37 18 43 26 15 37 8 40 -28z
m72 -12 c0 -35 -3 -39 -25 -39 -22 0 -25 4 -25 38 0 45 4 52 31 45 15 -4 19
-14 19 -44z m66 29 c-3 -13 -6 -33 -6 -45 0 -16 -6 -23 -20 -23 -17 0 -20 7
-20 38 0 44 5 52 33 52 15 0 18 -5 13 -22z m194 -2 c0 -34 -21 -57 -47 -50
-16 4 -23 14 -23 31 0 13 -4 21 -10 18 -5 -3 -10 -17 -10 -31 0 -14 -4 -23 -9
-19 -15 8 8 63 27 68 9 2 29 4 45 4 22 1 27 -3 27 -21z m-798 9 c2 -3 3 -18 0
-34 -3 -26 -7 -28 -30 -22 -15 4 -27 13 -26 19 1 7 2 19 3 27 1 14 41 22 53
10z m96 -20 c-3 -14 -1 -25 5 -25 19 0 1 -9 -28 -14 -43 -8 -58 4 -46 37 8 21
17 27 42 27 28 0 31 -3 27 -25z m156 3 c-4 -13 -7 -29 -7 -35 0 -7 -11 -13
-24 -13 -19 0 -23 5 -23 28 0 35 6 42 37 42 21 0 23 -3 17 -22z m-82 -14 c-5
-28 -28 -42 -42 -28 -17 17 1 54 25 54 19 0 21 -4 17 -26z m-833 -3 c22 -1 23
-2 7 -23 -31 -44 -67 -119 -61 -129 4 -5 1 -8 -7 -7 -7 2 -13 -4 -13 -12 0 -8
-2 -17 -5 -20 -3 -3 -13 -17 -23 -32 -10 -16 -24 -28 -32 -28 -9 0 -15 10 -16
28 0 15 -3 38 -5 52 -2 14 -7 57 -10 97 -6 69 -6 71 17 75 23 3 95 3 148 -1z
m471 -90 c0 -45 -1 -47 -53 -56 l-37 -7 4 33 c2 19 4 42 5 52 1 13 10 17 41
17 40 0 40 0 40 -39z m96 -1 c1 -38 -9 -50 -43 -50 -21 0 -23 5 -23 46 0 45 0
45 33 42 29 -3 32 -6 33 -38z m92 -4 c-3 -37 -11 -44 -44 -38 -19 3 -24 10
-24 36 0 41 3 44 41 38 27 -4 30 -8 27 -36z m83 20 c5 -72 7 -70 -57 -51 -17
5 -5 53 15 57 29 7 41 5 42 -6z m85 -23 c-1 -21 -6 -37 -9 -35 -4 1 -16 2 -27
2 -15 0 -20 7 -20 28 0 35 6 42 36 42 21 0 23 -4 20 -37z m76 -9 c-4 -36 -6
-37 -31 -29 -16 5 -21 15 -21 40 0 31 1 33 28 26 23 -7 26 -12 24 -37z m86 0
c2 -32 1 -34 -28 -34 -27 0 -30 3 -30 33 0 41 4 45 33 40 18 -4 24 -12 25 -39z
m272 5 c0 -22 -5 -29 -20 -29 -15 0 -20 7 -20 29 0 28 16 44 33 34 4 -2 7 -17
7 -34z m70 22 c0 -11 3 -26 6 -35 5 -13 -1 -16 -25 -16 -27 0 -31 3 -31 28 0
33 7 42 32 42 11 0 18 -7 18 -19z m40 -16 c0 -19 -4 -35 -10 -35 -5 0 -10 16
-10 35 0 19 5 35 10 35 6 0 10 -16 10 -35z m75 8 c0 -23 -5 -29 -27 -31 -25
-3 -28 0 -28 27 0 27 3 31 28 31 24 0 28 -4 27 -27z m-395 -14 c0 -26 -3 -30
-22 -27 -36 5 -33 58 3 58 15 0 19 -7 19 -31z m73 1 c6 -24 -10 -39 -34 -33
-12 3 -19 14 -19 28 0 38 43 42 53 5z m77 0 c0 -25 -4 -30 -24 -30 -16 0 -27
7 -31 20 -9 27 1 40 31 40 20 0 24 -5 24 -30z m235 -84 c8 -35 -1 -61 -21 -61
-14 0 -20 8 -22 33 -2 19 -1 40 2 48 7 19 35 6 41 -20z m-782 -18 c-1 -21 -2
-42 -2 -48 -1 -5 -17 -10 -36 -10 -33 0 -35 2 -35 34 0 40 24 68 53 64 17 -2
20 -10 20 -40z m82 34 c9 -6 10 -22 6 -84 -1 -14 -10 -18 -36 -18 l-35 0 0 48
c0 27 3 52 7 55 9 9 45 9 58 -1z m93 -7 c2 -2 0 -24 -3 -50 -7 -42 -9 -46 -34
-43 -24 3 -26 7 -26 48 0 25 1 48 3 53 3 6 50 0 60 -8z m290 -37 c-3 -49 -5
-53 -28 -53 -23 0 -25 4 -25 45 0 44 8 54 48 59 4 1 7 -23 5 -51z m72 33 c0
-10 3 -32 6 -49 6 -28 4 -30 -28 -33 l-33 -4 3 40 c5 57 9 65 32 65 13 0 20
-7 20 -19z m70 -11 c10 -43 0 -70 -26 -70 -22 0 -24 4 -24 43 0 24 3 47 7 51
14 13 37 0 43 -24z m72 -11 c4 -43 -6 -59 -34 -59 -15 0 -18 8 -18 43 0 49 1
52 29 54 15 1 20 -6 23 -38z m41 4 c7 -39 -7 -68 -21 -46 -10 15 -3 83 8 83 4
0 10 -17 13 -37z m-911 -17 c-3 -35 -8 -45 -25 -50 -45 -12 -53 -8 -54 32 -3
55 2 62 44 62 l38 0 -3 -44z m100 10 c6 -49 1 -56 -42 -56 -36 0 -39 2 -36 28
2 15 4 35 5 45 1 13 10 17 35 17 31 0 34 -3 38 -34z m332 12 c3 -13 7 -35 11
-50 5 -26 3 -28 -30 -28 -32 0 -35 3 -35 28 0 46 11 72 31 72 11 0 20 -9 23
-22z m91 -18 c0 -49 -11 -69 -34 -63 -13 3 -21 17 -25 44 -8 50 -1 61 32 57
24 -3 27 -8 27 -38z m62 -9 c-2 -42 -5 -50 -24 -54 -20 -4 -22 0 -21 42 0 55
3 61 28 61 17 0 19 -7 17 -49z m326 -98 c-3 -21 -7 -40 -9 -42 -16 -16 -28 57
-13 75 18 22 27 8 22 -33z m-1850 -33 c3 -36 10 -85 17 -110 6 -25 13 -60 16
-78 l6 -33 -34 17 c-18 9 -55 32 -83 52 -27 19 -69 44 -94 55 l-45 20 29 21
c48 37 179 125 181 123 1 -1 5 -31 7 -67z m929 53 c9 -44 -3 -61 -45 -65 -23
-3 -43 -4 -45 -2 -2 1 1 17 6 35 8 33 16 38 74 48 3 0 8 -7 10 -16z m106 -25
l3 -38 -40 0 c-40 0 -41 1 -41 33 0 42 7 49 45 45 27 -3 30 -7 33 -40z m84 -4
c-4 -47 -11 -55 -40 -48 -18 5 -22 13 -22 43 0 45 1 47 37 45 26 -1 28 -3 25
-40z m680 6 c6 -37 -4 -53 -28 -48 -22 4 -30 39 -14 67 14 27 37 17 42 -19z
m104 25 c9 -23 -5 -65 -21 -65 -10 0 -15 11 -15 33 0 19 3 37 7 40 11 11 23 8
29 -8z m-685 -5 c7 -58 1 -70 -38 -70 -34 0 -38 3 -40 28 -1 15 0 33 2 40 5
14 74 17 76 2z m77 -32 c3 -36 2 -38 -27 -38 -28 0 -31 3 -31 33 0 40 7 49 35
45 15 -2 21 -12 23 -40z m83 26 c9 -5 -5 -70 -14 -66 -4 1 -15 2 -26 2 -19 0
-30 29 -23 63 3 13 10 16 30 11 15 -4 30 -8 33 -10z m88 -35 c2 -38 1 -39 -32
-39 -34 0 -34 0 -31 43 1 23 3 42 3 43 1 0 14 -1 29 -4 25 -3 28 -8 31 -43z
m127 37 c1 0 -1 -16 -3 -33 -4 -24 -11 -33 -24 -33 -19 0 -21 5 -21 35 0 43 2
46 25 39 12 -3 23 -7 23 -8z m144 -14 c0 -42 -11 -50 -62 -50 -26 0 -52 -3
-58 -7 -8 -5 -11 5 -9 31 1 22 4 42 6 46 2 3 30 6 63 6 58 0 60 -1 60 -26z
m-218 6 c9 -25 -4 -58 -23 -58 -15 0 -19 7 -19 35 0 28 4 35 19 35 11 0 21 -5
23 -12z m-602 -97 c0 -36 -17 -50 -58 -49 -29 1 -32 4 -32 34 0 25 4 32 14 28
8 -3 16 -2 19 3 3 5 17 9 31 11 22 1 26 -2 26 -27z m116 -13 c1 -27 -1 -28
-47 -28 -27 0 -49 2 -49 4 0 3 4 17 10 31 9 23 15 26 47 23 34 -3 38 -6 39
-30z m182 -4 c0 -21 -5 -24 -39 -24 -42 0 -51 16 -25 43 23 22 64 10 64 -19z
m582 2 c0 -28 -4 -35 -27 -40 -28 -8 -44 6 -37 31 2 7 6 20 9 28 2 8 16 15 30
15 22 0 25 -4 25 -34z m100 -2 c0 -17 -6 -24 -20 -24 -11 0 -20 6 -20 13 0 7
-7 4 -15 -7 -8 -11 -16 -18 -16 -15 -9 33 -6 59 7 59 8 0 12 -4 9 -10 -3 -5
-2 -10 3 -10 6 0 12 7 16 15 8 22 36 6 36 -21z m-780 1 c0 -21 -5 -25 -30 -25
-25 0 -30 4 -30 25 0 21 5 25 30 25 25 0 30 -4 30 -25z m180 0 c0 -21 -5 -25
-30 -25 -25 0 -30 4 -30 25 0 21 5 25 30 25 25 0 30 -4 30 -25z m74 3 c-1 -10
-2 -22 -3 -28 -1 -10 -44 -14 -53 -5 -3 3 -3 17 0 31 4 20 10 25 31 22 18 -2
26 -9 25 -20z m86 -7 c0 -31 -16 -43 -48 -35 -30 8 -17 52 17 57 14 2 27 5 29
6 1 0 2 -12 2 -28z m62 17 c10 -29 -4 -58 -28 -58 -25 0 -31 20 -18 54 7 19
41 21 46 4z m70 -18 c5 -36 2 -40 -29 -40 -20 0 -23 5 -23 35 0 30 3 35 24 35
19 0 25 -6 28 -30z m72 18 c5 -10 7 -10 12 0 3 6 14 12 25 12 15 0 19 -7 19
-35 0 -31 -3 -35 -25 -35 -16 0 -25 6 -25 16 0 13 -4 11 -18 -6 -24 -30 -42
-18 -42 26 0 29 3 34 24 34 13 0 27 -6 30 -12z m-632 -90 l3 -33 -47 3 c-43 4
-48 7 -48 27 0 20 6 24 38 28 20 2 40 4 43 5 4 1 9 -13 11 -30z m164 26 c16
-4 19 -12 16 -35 -4 -25 -8 -29 -38 -29 -38 0 -48 11 -40 46 6 24 22 29 62 18z
m-278 -32 c-2 -22 -7 -28 -22 -26 -12 1 -33 3 -48 3 -16 1 -28 7 -28 14 0 23
23 37 62 37 36 0 38 -2 36 -28z m194 -2 c-4 -25 -9 -30 -33 -30 -26 0 -29 4
-29 30 0 27 3 30 33 30 32 0 33 -2 29 -30z m179 0 c-6 -48 -61 -58 -61 -12 0
36 8 44 40 40 20 -2 24 -8 21 -28z m542 0 c-3 -11 -9 -20 -14 -20 -10 0 -11
12 -3 34 9 22 23 10 17 -14z m-465 -7 c3 -20 -1 -23 -27 -23 -23 0 -31 5 -31
18 0 25 10 33 35 30 12 -2 21 -12 23 -25z m84 21 c3 -3 4 -14 1 -25 -4 -13
-14 -19 -35 -19 -23 0 -29 4 -24 16 3 9 6 20 6 25 0 10 43 13 52 3z m196 -23
c-2 -9 -11 -17 -21 -19 -21 -4 -35 27 -17 38 19 12 42 0 38 -19z m66 4 c-6
-14 -39 -26 -48 -17 -12 11 -5 31 12 34 25 6 41 -2 36 -17z m76 6 c0 -21 -16
-30 -42 -23 -21 5 -24 28 -5 35 28 12 47 7 47 -12z m105 -1 c0 -8 -10 -16 -22
-18 -25 -4 -26 -2 -17 23 8 19 39 16 39 -5z m-382 4 c12 -12 -6 -34 -29 -34
-23 0 -32 18 -17 33 8 9 38 9 46 1z m70 -1 c9 -9 -12 -33 -29 -33 -8 0 -14 9
-14 20 0 19 28 28 43 13z m-563 -78 c0 -18 -6 -24 -32 -27 -48 -5 -68 1 -68
22 0 21 42 39 77 32 16 -3 23 -11 23 -27z m82 0 c6 -30 2 -35 -32 -35 -19 0
-26 5 -25 18 3 46 49 60 57 17z m183 -5 c0 -27 -3 -30 -33 -30 -29 0 -33 3
-30 22 2 16 12 25 33 29 17 4 30 7 30 8 0 0 0 -12 0 -29z m78 -32 c-9 -17 -52
-7 -58 13 -8 24 1 35 30 41 15 3 22 -3 26 -22 3 -14 4 -28 2 -32z m145 30 c-3
-33 -21 -43 -44 -26 -8 6 -11 37 -5 56 1 1 13 2 27 2 23 0 25 -3 22 -32z m73
15 c0 -10 2 -25 4 -34 2 -12 -4 -16 -21 -16 -21 0 -24 4 -24 33 0 27 4 34 20
34 12 0 20 -7 21 -17z m65 -5 c-3 -13 -5 -28 -5 -35 -2 -26 -31 1 -31 28 0 22
5 29 20 29 15 0 19 -5 16 -22z m56 -14 c-6 -46 -36 -44 -40 4 -3 28 0 32 20
32 22 0 24 -4 20 -36z m74 4 c-18 -41 -43 -45 -48 -7 -5 35 -2 39 33 39 28 0
28 0 15 -32z m47 -15 c-3 -7 -9 -13 -14 -13 -11 0 -12 21 -2 46 6 16 7 16 13
-2 4 -10 5 -25 3 -31z m51 41 c23 -9 22 -67 -1 -62 -12 2 -19 14 -21 36 -3 34
-2 35 22 26z m-664 -12 c0 -14 -34 -37 -54 -37 -12 0 -20 8 -22 23 -4 20 0 22
36 22 22 0 40 -4 40 -8z m225 -12 c8 -26 -1 -39 -25 -37 -28 2 -29 57 -1 57
11 0 22 -9 26 -20z m-419 -56 c-3 -9 -6 -20 -6 -25 0 -5 -16 -9 -35 -9 -24 0
-37 6 -45 19 -11 22 0 28 59 30 26 1 32 -2 27 -15z m177 -24 c-6 -23 -16 -25
-44 -10 -26 14 -24 38 4 42 29 5 46 -8 40 -32z m-89 22 c2 -4 1 -14 -3 -21
-12 -18 -55 -10 -59 12 -3 13 3 17 27 17 16 0 32 -4 35 -8z m170 -7 c7 -19 35
-20 42 -1 6 17 44 9 44 -9 0 -14 -44 -25 -101 -25 -31 0 -39 4 -39 18 0 10 3
22 7 25 12 12 41 7 47 -8z m150 -11 c4 -11 1 -14 -11 -12 -9 2 -18 9 -21 16
-6 18 25 15 32 -4z m86 2 c0 -8 -13 -16 -30 -18 -32 -5 -37 1 -18 20 16 16 48
15 48 -2z m134 -1 c4 -12 -5 -15 -54 -15 -49 0 -58 3 -54 15 4 10 21 15 54 15
33 0 50 -5 54 -15z m54 -4 c3 -8 -1 -12 -9 -9 -7 2 -15 10 -17 17 -3 8 1 12 9
9 7 -2 15 -10 17 -17z m70 7 c-6 -18 -28 -21 -28 -4 0 9 7 16 16 16 9 0 14 -5
12 -12z m137 2 c17 -7 14 -9 -13 -9 -20 -1 -31 3 -27 9 7 12 13 12 40 0z"/>
</g>
</svg>
