<?xml version="1.0" standalone="no"?>
<!DOCTYPE svg PUBLIC "-//W3C//DTD SVG 20010904//EN"
 "http://www.w3.org/TR/2001/REC-SVG-20010904/DTD/svg10.dtd">
<svg version="1.0" xmlns="http://www.w3.org/2000/svg"
 width="274.000000pt" height="118.000000pt" viewBox="0 0 274.000000 118.000000"
 preserveAspectRatio="xMidYMid meet">
<metadata>
Created by potrace 1.16, written by Peter Selinger 2001-2019
</metadata>
<g transform="translate(0.000000,118.000000) scale(0.100000,-0.100000)"
fill="#000000" stroke="none">
<path d="M1389 1075 c-3 -2 -54 -7 -114 -11 -134 -8 -153 -16 -103 -39 l36
-18 -57 -30 c-31 -16 -68 -40 -84 -53 -45 -37 -268 -143 -326 -154 -70 -13
-121 -13 -121 1 0 6 -10 9 -22 7 -46 -6 -31 -106 26 -182 l34 -44 -30 -28
c-16 -16 -36 -41 -44 -55 -25 -49 5 -56 166 -40 81 7 85 7 125 -19 22 -15 67
-44 100 -65 33 -21 85 -56 117 -77 31 -21 64 -38 74 -38 9 0 25 -6 33 -14 15
-13 41 -20 67 -17 6 0 11 17 12 37 1 20 3 38 4 40 2 1 52 -22 112 -52 59 -30
113 -53 119 -51 6 2 -42 34 -106 73 -64 38 -117 71 -117 74 0 3 11 10 24 16
19 9 31 8 53 -2 46 -22 145 -64 149 -64 2 0 4 3 4 8 0 4 -34 25 -75 47 l-76
39 26 14 c15 7 43 12 63 10 24 -2 36 1 35 9 -3 14 51 23 136 22 35 -1 66 3 70
8 3 4 74 8 156 9 83 0 215 6 295 12 162 13 162 13 158 -53 -3 -54 10 -105 28
-105 10 0 14 19 15 77 4 203 5 215 41 298 31 72 115 206 139 220 5 4 9 13 9
21 0 12 -11 13 -57 8 -57 -6 -116 -11 -160 -13 -20 -1 -22 -5 -19 -35 4 -31 2
-34 -26 -40 -39 -8 -224 -23 -363 -31 -60 -3 -141 -8 -180 -11 -174 -15 -445
7 -445 35 0 12 107 189 129 212 28 30 27 49 -2 49 -13 0 -26 -2 -28 -5z m-65
-115 c-20 -38 -40 -70 -44 -70 -5 0 -12 28 -17 63 -9 70 -6 75 60 76 l38 1
-37 -70z m-109 -32 c7 -32 13 -138 8 -138 -9 0 -90 44 -112 61 -29 23 -41 24
-41 4 0 -10 -10 -15 -27 -15 -33 0 -29 4 61 64 78 51 103 57 111 24z m1212
-117 c-26 -38 -49 -81 -53 -95 -12 -48 -21 -36 -23 27 -1 34 -2 76 -4 92 -2
29 -1 30 58 40 33 6 62 9 64 8 2 -2 -17 -34 -42 -72z m-1266 -27 c55 -25 59
-29 59 -60 l0 -34 -40 25 c-42 27 -85 34 -78 13 3 -7 30 -28 61 -47 56 -32 57
-34 57 -77 l0 -45 -27 16 c-16 9 -53 31 -83 50 -30 19 -63 35 -72 35 -36 0
-16 -28 45 -65 125 -76 137 -86 137 -116 l0 -29 -57 32 c-32 17 -82 47 -110
66 -52 33 -53 35 -48 75 7 51 74 187 92 187 3 0 32 -12 64 -26z m-148 -38
c-16 -30 -29 -53 -31 -51 -2 2 -6 23 -8 46 -3 24 -8 47 -10 51 -3 4 13 8 36 8
l40 0 -27 -54z m-71 -37 c13 -137 17 -289 8 -289 -5 0 -35 22 -67 48 -32 27
-65 53 -74 58 -9 5 -35 26 -58 46 l-43 36 78 79 c73 74 116 104 139 99 6 -1
13 -36 17 -77z m1371 59 c5 -19 4 -68 -3 -264 0 -8 -30 -14 -77 -18 -206 -15
-282 -19 -325 -18 -30 1 -48 -3 -48 -9 0 -8 -4 -8 -12 -2 -8 6 -53 7 -113 2
-112 -8 -85 -17 -303 105 -45 25 -86 46 -90 46 -13 1 -52 38 -52 50 0 6 4 9 9
6 5 -4 21 -2 36 4 23 9 38 5 99 -26 39 -20 86 -45 104 -56 18 -11 35 -18 38
-15 5 4 -73 58 -163 113 -16 10 -15 13 15 28 22 11 65 18 135 21 56 2 131 6
167 9 36 3 137 11 225 17 88 5 180 14 205 19 25 4 68 8 96 9 46 1 52 -2 57
-21z m-948 -23 c25 -5 27 -8 13 -16 -17 -10 -61 2 -72 19 -6 10 -1 10 59 -3z
m-652 -59 c-34 -42 -50 -44 -65 -10 -15 32 0 44 55 44 l39 0 -29 -34z m591 28
c20 -8 21 -20 2 -27 -8 -3 -16 2 -19 14 -6 21 -5 22 17 13z m42 -140 c27 -15
86 -46 131 -70 89 -46 88 -51 -7 -61 -52 -5 -61 -2 -120 34 -60 37 -63 41 -62
76 0 44 1 47 6 47 1 0 25 -12 52 -26z m-576 -93 c14 -13 20 -21 14 -18 -6 3
-43 3 -82 -2 -40 -4 -72 -4 -72 1 0 4 16 26 36 48 l36 39 21 -22 c12 -12 33
-33 47 -46z m385 -46 c11 -13 29 -25 40 -27 20 -3 36 -48 17 -48 -12 0 -102
49 -124 68 -23 19 -56 8 -38 -13 15 -18 151 -91 162 -88 5 2 8 -11 8 -27 0
-17 -3 -30 -7 -30 -45 1 -245 126 -223 140 6 4 11 20 10 36 -1 16 -2 41 -1 56
l1 28 68 -37 c37 -19 76 -46 87 -58z m161 20 c18 -14 18 -14 -8 -15 -18 0 -28
5 -28 15 0 19 11 19 36 0z m59 -54 c-18 -17 -75 -17 -75 -1 0 6 19 10 42 10
26 0 38 -4 33 -9z"/>
<path d="M515 888 c-11 -7 -36 -29 -56 -51 -21 -21 -41 -38 -45 -38 -5 1 -56
-22 -113 -51 -82 -42 -106 -60 -119 -85 -22 -46 -8 -52 31 -15 18 18 39 32 46
32 19 0 130 -114 173 -179 21 -31 49 -72 62 -91 13 -19 43 -53 66 -75 22 -22
56 -55 74 -73 28 -26 35 -30 45 -18 9 11 2 26 -34 72 -171 220 -172 222 -170
275 3 58 18 105 61 190 51 100 42 143 -21 107z m-55 -144 c-16 -32 -30 -69
-30 -81 0 -36 -13 -34 -64 10 l-48 42 77 40 c42 22 79 44 82 48 3 5 7 7 9 5 2
-3 -10 -31 -26 -64z"/>
</g>
</svg>
