<?xml version="1.0" standalone="no"?>
<!DOCTYPE svg PUBLIC "-//W3C//DTD SVG 20010904//EN"
 "http://www.w3.org/TR/2001/REC-SVG-20010904/DTD/svg10.dtd">
<svg version="1.0" xmlns="http://www.w3.org/2000/svg"
 width="186.000000pt" height="102.000000pt" viewBox="0 0 186.000000 102.000000"
 preserveAspectRatio="xMidYMid meet">
<metadata>
Created by potrace 1.16, written by Peter Selinger 2001-2019
</metadata>
<g transform="translate(0.000000,102.000000) scale(0.100000,-0.100000)"
fill="#000000" stroke="none">
<path d="M647 986 c-8 -8 -18 -31 -21 -50 -5 -27 -21 -46 -74 -88 -165 -130
-320 -242 -359 -259 -50 -21 -52 -33 -18 -73 14 -16 25 -33 25 -37 0 -4 21
-31 47 -59 26 -28 53 -61 61 -73 8 -12 20 -26 26 -32 7 -5 25 -27 40 -47 16
-21 34 -38 42 -38 7 0 17 -6 21 -13 4 -8 20 -17 36 -21 37 -9 36 15 -3 47 -17
14 -30 28 -30 31 0 3 -13 27 -30 53 -36 56 -37 78 -10 221 35 183 31 174 128
251 48 38 89 67 91 65 3 -3 4 -38 4 -80 -2 -90 10 -101 62 -55 35 30 154 97
205 114 26 9 406 11 420 2 5 -3 30 -7 56 -10 95 -10 114 -16 115 -39 4 -68
-25 -398 -40 -446 l-8 -25 -194 3 c-291 5 -263 1 -267 43 -2 23 2 40 12 49 9
7 16 18 16 24 0 19 55 93 98 133 52 49 57 68 17 68 -16 0 -65 4 -107 9 -86 9
-128 3 -128 -19 0 -8 9 -31 19 -52 13 -26 22 -71 26 -141 l7 -102 -58 6 c-67
7 -139 37 -171 71 -22 22 -53 31 -53 15 0 -5 -10 -8 -22 -8 -23 1 -23 -2 -30
-139 -3 -77 -4 -143 -1 -147 8 -15 21 -8 75 38 63 54 129 90 195 105 26 6 158
12 293 13 135 1 252 4 260 7 11 3 15 -4 15 -28 0 -34 17 -59 33 -49 5 3 12 38
15 78 4 40 9 87 11 103 3 17 10 82 16 145 l11 115 56 85 c89 135 96 144 121
164 12 10 22 25 20 33 -2 13 -27 16 -138 18 -74 1 -143 -2 -152 -7 -21 -10
-24 -28 -5 -28 14 0 57 -52 57 -70 0 -13 -72 -2 -81 11 -7 12 -88 18 -319 24
-238 6 -321 25 -401 92 -14 12 -19 12 -32 -1z m956 -64 l37 -7 -34 -50 c-19
-27 -43 -66 -52 -85 -18 -34 -18 -34 -25 -10 -4 14 -7 47 -8 74 -1 31 -7 56
-18 68 -15 17 -14 18 23 17 21 0 56 -3 77 -7z m-848 -34 c28 -10 57 -21 65
-24 9 -3 -15 -20 -63 -45 -42 -21 -80 -39 -82 -39 -3 0 -5 32 -5 71 0 64 2 70
18 64 9 -4 40 -16 67 -27z m-374 -230 c-5 -13 -14 -69 -21 -125 -8 -69 -16
-100 -24 -97 -22 10 -106 142 -93 148 7 3 39 26 72 50 69 51 78 54 66 24z
m669 -54 c6 -6 1 -19 -13 -34 -12 -14 -34 -43 -47 -65 l-25 -40 -7 57 c-4 32
-12 68 -19 79 -11 21 -10 22 45 17 31 -3 61 -9 66 -14z m-319 -270 l62 -32
-41 -26 c-23 -14 -45 -26 -50 -26 -5 0 -17 -9 -27 -20 -10 -11 -22 -20 -26
-20 -5 0 -8 46 -8 102 1 90 3 99 14 78 7 -14 41 -39 76 -56z"/>
</g>
</svg>
