<?xml version="1.0" standalone="no"?>
<!DOCTYPE svg PUBLIC "-//W3C//DTD SVG 20010904//EN"
 "http://www.w3.org/TR/2001/REC-SVG-20010904/DTD/svg10.dtd">
<svg version="1.0" xmlns="http://www.w3.org/2000/svg"
 width="328.000000pt" height="192.000000pt" viewBox="0 0 328.000000 192.000000"
 preserveAspectRatio="xMidYMid meet">
<metadata>
Created by potrace 1.16, written by Peter Selinger 2001-2019
</metadata>
<g transform="translate(0.000000,192.000000) scale(0.100000,-0.100000)"
fill="#000000" stroke="none">
<path d="M527 1728 c-7 -4 -41 -8 -77 -8 -76 0 -116 -20 -101 -48 7 -14 7
-219 0 -487 -1 -33 -20 -167 -30 -215 -6 -25 -12 -111 -14 -191 -3 -137 -15
-220 -35 -244 -5 -6 -5 -17 -1 -24 7 -11 22 -10 82 2 90 19 138 25 248 32 46
3 88 8 93 11 5 4 58 8 116 10 59 1 190 6 292 9 102 4 246 8 320 10 134 3 330
13 425 21 28 2 114 3 193 2 264 -3 317 -3 387 4 l71 6 -4 -34 c-3 -21 1 -39
11 -48 8 -9 23 -37 32 -63 9 -27 24 -64 32 -83 9 -19 19 -51 24 -70 16 -70 27
-106 44 -145 10 -22 19 -42 20 -45 10 -36 19 -50 35 -50 21 0 37 24 70 105 35
87 109 206 250 398 25 33 70 97 100 142 47 69 59 80 84 80 17 0 33 7 40 18 15
25 -12 44 -73 52 -73 10 -92 15 -86 25 3 4 -21 12 -52 15 -32 4 -98 13 -148
21 -49 9 -169 19 -265 24 -97 5 -225 16 -285 24 -61 9 -128 17 -150 18 -26 2
-39 7 -38 16 3 14 -14 16 -19 2 -3 -10 -90 -6 -323 16 -33 3 -98 8 -145 12
l-85 7 1 30 c1 36 8 71 25 122 39 122 62 202 79 283 7 30 21 77 31 104 11 27
19 62 19 78 l0 30 -64 -7 c-38 -4 -72 -2 -83 4 -32 18 -370 35 -706 35 -181 1
-334 -2 -340 -6z m753 -55 l135 -8 -95 -7 c-148 -10 -705 -36 -708 -33 -2 2 4
17 13 35 l16 31 252 -5 c139 -2 313 -8 387 -13z m-710 -12 c-1 -22 -14 -51
-25 -51 -6 0 -20 -9 -29 -19 -17 -18 -16 -20 4 -26 19 -6 21 -12 15 -43 -4
-21 -10 -41 -14 -47 -5 -5 -16 -50 -25 -99 -10 -48 -40 -150 -67 -225 -27 -75
-52 -142 -54 -150 -11 -29 -13 -4 -4 39 17 81 32 292 33 456 l0 161 65 9 c66
9 101 7 101 -5z m1092 -23 c2 -6 -2 -43 -10 -82 -8 -39 -15 -81 -17 -93 -2
-12 -10 -44 -18 -70 -26 -85 -56 -197 -67 -257 -8 -41 -15 -55 -21 -45 -10 15
-1 498 9 514 4 5 7 15 7 20 0 6 18 13 40 16 65 10 73 10 77 -3z m-164 -25 c-1
-10 0 -22 3 -28 3 -5 4 -49 1 -96 -3 -77 -6 -86 -22 -82 -20 5 -98 -68 -199
-187 -35 -41 -70 -79 -78 -83 -10 -6 -32 10 -74 54 l-60 62 54 56 c30 31 86
95 126 144 40 48 76 87 80 87 4 0 24 17 45 37 26 26 49 39 79 44 23 3 43 7 45
8 2 0 2 -7 0 -16z m-270 -96 c-51 -51 -118 -117 -150 -146 -68 -63 -71 -63
-161 54 -34 44 -79 98 -101 120 l-39 40 44 6 c24 4 140 7 257 7 118 0 216 3
220 6 3 3 9 6 14 6 4 0 -34 -42 -84 -93z m-467 20 c25 -28 67 -79 94 -112 26
-33 66 -79 89 -103 l40 -42 -79 -80 c-89 -90 -85 -89 -146 -6 -50 68 -168 188
-181 184 -26 -9 -16 -29 49 -101 37 -42 89 -101 116 -131 l47 -54 -31 -31
c-17 -17 -35 -31 -40 -31 -5 0 -9 -3 -9 -7 -1 -5 -22 -23 -48 -42 -26 -19 -96
-88 -156 -153 -60 -65 -112 -114 -115 -109 -4 6 -3 61 2 123 6 89 16 135 44
218 20 58 39 110 43 115 14 21 87 270 107 368 4 19 13 29 32 33 14 3 31 7 36
9 38 13 62 2 106 -48z m736 -169 c-3 -8 -6 -5 -6 6 -1 11 2 17 5 13 3 -3 4
-12 1 -19z m2 -260 c1 -128 -2 -238 -6 -245 -6 -8 -24 3 -56 33 -27 24 -53 44
-58 44 -15 0 -139 127 -139 142 0 7 29 42 65 77 36 35 65 68 65 72 0 7 116
109 125 109 2 0 4 -105 4 -232z m-437 90 c9 -13 35 -42 59 -66 36 -35 41 -44
29 -52 -8 -5 -47 -41 -86 -80 l-70 -71 -69 71 c-58 61 -66 73 -54 85 42 41
156 134 165 134 7 1 18 -9 26 -21z m-166 -225 c35 -38 64 -71 64 -74 0 -3 -57
-63 -126 -134 l-127 -127 -126 8 c-114 7 -133 9 -152 13 -20 4 374 381 399
381 2 0 33 -30 68 -67z m382 -3 c43 -38 82 -70 88 -70 14 0 74 -66 74 -81 0
-5 6 -9 13 -8 34 4 39 -1 33 -33 -3 -18 -7 -55 -9 -82 -3 -58 -7 -61 -125 -69
-70 -4 -86 -3 -100 12 -62 62 -207 235 -207 246 0 16 130 155 145 155 7 0 46
-31 88 -70z m462 34 c69 -3 127 -7 130 -9 3 -2 39 -5 80 -6 41 -1 91 -6 110
-10 19 -4 67 -10 105 -13 39 -3 86 -9 105 -13 30 -7 23 -9 -45 -13 -107 -7
-671 13 -682 23 -2 3 -1 17 3 31 5 23 10 26 38 22 17 -3 87 -8 156 -12z m668
-71 c-16 -2 -40 -2 -55 0 -16 2 -3 4 27 4 30 0 43 -2 28 -4z m-348 -18 c527
-13 589 -15 674 -20 48 -3 92 -7 96 -10 5 -3 10 -1 12 4 2 6 37 7 83 4 l80 -6
-27 -57 c-15 -31 -35 -86 -44 -121 -9 -35 -41 -120 -71 -189 -31 -69 -71 -161
-91 -205 -19 -44 -45 -93 -56 -108 -23 -32 -24 -31 -45 56 -25 106 1 276 55
359 33 51 31 62 -8 53 -18 -4 -64 -8 -103 -10 -38 -1 -124 -7 -190 -12 -66 -6
-298 -10 -515 -9 l-395 1 3 120 c2 66 6 128 8 137 8 26 20 27 534 13z m-924
-211 c28 -32 49 -65 47 -72 -4 -9 -29 -11 -101 -7 -54 3 -142 8 -197 11 l-100
5 105 109 105 110 45 -48 c25 -27 68 -75 96 -108z m1949 121 c11 -1 26 -3 33
-4 13 -1 -49 -99 -138 -216 -25 -33 -60 -82 -77 -110 -18 -27 -33 -47 -33 -44
0 8 37 97 51 123 17 30 40 96 55 159 18 74 42 108 69 100 11 -3 29 -7 40 -8z
m-2475 -217 c135 -1 131 -15 -5 -17 -44 -1 -118 -8 -165 -15 -47 -7 -87 -12
-88 -10 -2 1 -1 12 3 23 7 23 34 31 90 25 22 -2 96 -5 165 -6z m2032 -75 c-31
-96 -38 -104 -50 -62 -6 19 -17 50 -26 70 l-15 36 47 16 c72 24 72 24 44 -60z"/>
</g>
</svg>
