<?xml version="1.0" standalone="no"?>
<!DOCTYPE svg PUBLIC "-//W3C//DTD SVG 20010904//EN"
 "http://www.w3.org/TR/2001/REC-SVG-20010904/DTD/svg10.dtd">
<svg version="1.0" xmlns="http://www.w3.org/2000/svg"
 width="318.000000pt" height="140.000000pt" viewBox="0 0 318.000000 140.000000"
 preserveAspectRatio="xMidYMid meet">
<metadata>
Created by potrace 1.16, written by Peter Selinger 2001-2019
</metadata>
<g transform="translate(0.000000,140.000000) scale(0.100000,-0.100000)"
fill="#000000" stroke="none">
<path d="M691 1243 c-22 -9 -50 -36 -46 -44 3 -4 -11 -39 -30 -78 -19 -39 -35
-74 -35 -78 0 -6 -29 -67 -178 -373 -25 -51 -33 -58 -112 -98 -46 -24 -86 -45
-88 -47 -2 -2 3 -14 12 -26 14 -20 52 -39 111 -56 26 -7 147 -98 161 -121 6
-10 38 -37 70 -62 33 -24 70 -54 84 -65 14 -12 46 -30 72 -39 34 -12 61 -33
94 -72 42 -49 70 -65 87 -48 14 14 -117 154 -144 154 -40 0 -320 237 -297 251
10 6 12 90 4 189 -2 20 5 50 16 70 10 19 18 39 18 45 0 12 78 166 91 180 6 5
9 4 9 -3 0 -7 7 -12 16 -12 8 0 12 -4 9 -10 -3 -5 -3 -16 2 -22 14 -23 16 -41
18 -131 2 -136 -1 -147 -41 -147 -21 0 -40 8 -53 21 -37 39 -49 19 -53 -83 -2
-51 0 -97 4 -102 4 -5 34 2 70 17 35 15 66 27 69 27 4 0 7 -45 7 -99 0 -105 4
-124 29 -119 12 2 16 21 19 88 2 47 5 103 6 125 l3 40 85 22 c46 12 86 20 88
18 3 -3 6 -93 8 -201 1 -135 6 -199 14 -204 7 -4 9 -17 4 -34 -6 -24 -4 -27
12 -24 12 2 35 36 64 94 30 62 63 109 100 147 86 86 160 146 221 176 l55 29
-4 -29 c-5 -31 18 -49 41 -32 15 12 91 43 137 55 40 11 263 37 269 32 7 -7 0
-152 -9 -184 -12 -43 -2 -92 19 -88 11 2 16 15 17 43 0 22 6 72 13 110 12 64
16 89 20 121 1 13 101 18 101 5 0 -4 -8 -35 -18 -67 -22 -74 -19 -224 4 -224
20 0 22 11 27 110 2 47 10 97 18 110 7 14 14 27 14 30 7 48 16 57 61 64 26 3
49 4 51 3 2 -2 -4 -53 -13 -113 -27 -178 -28 -194 -11 -194 19 0 20 4 52 165
14 72 30 134 35 139 9 9 42 11 286 23 150 7 237 -9 332 -59 30 -15 60 -28 67
-28 8 0 34 -16 59 -35 51 -39 94 -48 77 -17 -18 34 -62 70 -116 96 -61 28 -59
11 -15 151 19 60 31 77 83 127 33 32 58 60 55 64 -16 15 -58 -16 -166 -123
-64 -63 -128 -120 -142 -125 -14 -5 -88 -11 -165 -13 -77 -2 -184 -8 -238 -12
-53 -5 -96 -6 -94 -3 1 3 22 45 45 95 24 49 55 105 68 123 41 53 30 57 -111
37 -73 -10 -163 -18 -196 -16 -20 1 -49 -3 -64 -9 -15 -6 -59 -15 -99 -20 -39
-6 -79 -13 -88 -16 -30 -9 -20 -24 17 -24 34 0 35 -2 36 -37 1 -21 2 -51 3
-68 2 -57 -8 -65 -82 -64 -134 1 -285 30 -321 63 -28 25 -40 13 -49 -47 l-7
-47 -53 25 c-34 16 -56 33 -64 52 -7 15 -28 55 -48 88 -19 33 -46 85 -60 115
-13 30 -32 67 -42 82 -18 26 -18 28 17 112 30 74 46 156 29 156 -8 0 -195 -81
-214 -93 -26 -15 -74 8 -102 49 -14 22 -36 38 -58 44 -38 11 -39 11 -59 3z
m384 -80 c-4 -10 -16 -42 -27 -70 -12 -29 -25 -53 -30 -53 -5 0 -30 17 -55 37
l-44 37 68 33 c78 37 98 41 88 16z m-293 -20 c10 -9 18 -19 18 -24 0 -4 -30
-27 -66 -51 -37 -23 -78 -51 -93 -60 -14 -10 -29 -18 -32 -18 -15 0 47 109 79
138 40 36 66 40 94 15z m166 -123 c69 -61 86 -83 126 -163 25 -51 57 -105 71
-121 17 -20 22 -33 15 -40 -14 -14 -13 -46 2 -46 9 0 8 -5 -2 -15 -10 -9 -50
-16 -124 -21 l-109 -7 6 24 c3 13 11 53 17 89 10 57 28 144 41 190 3 12 -8 15
-56 16 -67 1 -96 -11 -69 -30 13 -10 16 -35 16 -150 0 -76 -3 -140 -6 -143
-10 -11 -90 -19 -140 -15 l-49 4 6 107 c8 129 12 154 37 207 11 22 20 46 20
52 0 15 -33 15 -83 1 -22 -6 -41 -9 -43 -6 -4 4 115 85 181 124 40 23 63 14
143 -57z m-285 -110 c-3 -12 -8 -19 -11 -16 -5 6 5 36 12 36 2 0 2 -9 -1 -20z
m276 -32 c-1 -7 -5 -24 -9 -38 -7 -22 -8 -21 -9 13 -1 20 4 37 9 37 6 0 10 -6
9 -12z m1295 -65 c-37 -84 -46 -88 -42 -18 3 64 10 75 45 75 l22 0 -25 -57z
m-179 -33 c-19 -38 -38 -70 -41 -70 -3 0 -4 28 -3 63 2 53 5 63 23 69 56 17
58 12 21 -62z m101 33 c-31 -188 -28 -183 -82 -183 -58 0 -57 9 8 126 55 100
85 123 74 57z m-262 -28 c-20 -30 -38 -55 -40 -55 -2 0 -4 22 -4 49 0 53 -2
51 68 60 7 0 -4 -24 -24 -54z m90 44 c-4 -6 -11 -50 -15 -96 -5 -47 -11 -89
-15 -94 -3 -5 -28 -9 -55 -9 l-49 0 21 43 c30 59 102 167 112 167 5 0 5 -5 1
-11z m816 -159 c-10 -30 -19 -40 -34 -40 -45 0 -47 15 -6 46 22 16 40 33 40
38 0 5 3 6 7 3 3 -4 0 -25 -7 -47z m-1325 -36 c34 -8 112 -16 182 -17 117 -3
162 -11 112 -21 -13 -2 -71 -9 -129 -15 -58 -5 -136 -20 -173 -31 -38 -12 -70
-20 -72 -18 -5 6 8 118 14 118 4 0 34 -7 66 -16z m-230 -28 c33 -14 61 -28 62
-33 1 -4 -27 -28 -64 -53 -36 -24 -90 -66 -120 -93 -29 -27 -53 -46 -53 -43 0
4 20 49 44 100 39 83 47 95 72 98 29 3 47 28 20 28 -8 0 -18 5 -21 10 -8 13
-9 13 60 -14z m-841 -63 c3 -21 9 -48 12 -60 l6 -22 -53 20 c-30 12 -64 23
-76 26 -13 3 -23 9 -23 13 0 6 107 59 121 60 4 0 9 -17 13 -37z m703 30 c-2
-5 -43 -88 -91 -186 -49 -99 -92 -174 -98 -171 -11 7 -3 334 10 345 12 13 186
23 179 12z m-477 -28 c0 -20 -10 -30 -50 -50 l-50 -25 0 50 0 50 50 0 c47 0
50 -2 50 -25z"/>
</g>
</svg>
