<?xml version="1.0" standalone="no"?>
<!DOCTYPE svg PUBLIC "-//W3C//DTD SVG 20010904//EN"
 "http://www.w3.org/TR/2001/REC-SVG-20010904/DTD/svg10.dtd">
<svg version="1.0" xmlns="http://www.w3.org/2000/svg"
 width="339.000000pt" height="171.000000pt" viewBox="0 0 339.000000 171.000000"
 preserveAspectRatio="xMidYMid meet">
<metadata>
Created by potrace 1.16, written by Peter Selinger 2001-2019
</metadata>
<g transform="translate(0.000000,171.000000) scale(0.100000,-0.100000)"
fill="#000000" stroke="none">
<path d="M193 1555 c-22 -9 -31 -19 -27 -28 3 -8 0 -18 -5 -22 -6 -3 -9 -10
-6 -15 3 -5 -1 -33 -10 -62 -10 -34 -17 -113 -20 -216 -3 -89 -6 -165 -7 -169
-1 -5 1 -25 5 -45 7 -31 12 -38 32 -38 24 0 24 1 27 123 2 67 0 133 -3 147 -5
24 2 91 23 213 l11 67 51 0 c28 1 123 3 211 6 138 5 176 3 275 -16 63 -12 136
-33 162 -45 26 -13 91 -38 145 -55 54 -17 105 -37 113 -44 17 -15 139 -58 260
-91 47 -13 117 -33 155 -45 62 -18 126 -30 310 -58 181 -26 802 11 1039 62 72
16 182 23 193 13 3 -4 1 -95 -6 -204 -6 -109 -14 -250 -17 -313 -4 -63 -7
-116 -8 -117 -4 -5 -199 48 -234 63 -61 26 -132 44 -221 54 -46 6 -91 14 -100
19 -9 5 -47 11 -86 15 -76 7 -149 20 -236 42 -30 8 -90 17 -132 20 -115 10
-103 27 28 39 89 8 201 29 290 55 39 11 84 23 100 26 17 4 68 19 115 35 47 16
108 31 135 34 144 14 206 19 265 20 52 1 66 5 68 18 5 24 -33 35 -87 25 -25
-5 -98 -13 -161 -17 -92 -8 -145 -19 -265 -56 -197 -61 -272 -80 -375 -94
-131 -19 -187 -31 -221 -48 -30 -15 -31 -16 -12 -34 10 -11 37 -21 58 -23 22
-1 56 -8 75 -14 85 -25 146 -41 160 -40 8 0 35 -5 60 -11 65 -15 191 -39 295
-56 123 -19 446 -106 471 -126 6 -5 9 -20 7 -33 -4 -21 -9 -23 -31 -16 -55 16
-372 54 -487 58 -178 6 -286 12 -293 16 -5 3 -86 7 -181 8 -94 2 -171 6 -171
10 0 11 -36 19 -54 12 -21 -8 -21 -21 2 -27 15 -4 15 -5 -3 -12 -10 -5 -46
-25 -80 -45 -102 -62 -155 -82 -240 -89 -114 -9 -146 4 -254 102 -146 134
-183 169 -244 234 -71 76 -181 142 -257 154 -82 12 -160 26 -208 37 -47 11
-355 5 -360 -7 -1 -4 -15 -6 -30 -4 -29 4 -61 -11 -49 -23 4 -4 94 -9 200 -10
105 -2 215 -6 242 -10 80 -10 227 -55 265 -81 19 -12 40 -23 46 -23 6 0 44
-37 85 -82 177 -195 288 -291 389 -337 108 -49 297 -9 438 92 29 20 59 37 67
37 7 0 26 11 41 25 17 15 34 23 43 20 47 -19 190 -31 441 -40 105 -3 270 -15
290 -20 8 -2 58 -6 110 -10 52 -4 129 -13 170 -21 41 -8 83 -16 93 -17 14 -1
17 -11 17 -57 0 -100 27 -155 58 -117 12 15 18 70 32 317 6 107 13 211 15 230
9 73 14 537 7 575 -4 23 -14 41 -22 43 -22 4 -50 -50 -50 -97 0 -40 -1 -41
-32 -41 -18 0 -80 -9 -138 -19 -187 -34 -315 -51 -436 -57 -66 -3 -177 -9
-248 -15 -286 -20 -493 -1 -655 61 -30 12 -101 32 -158 46 -101 25 -228 67
-248 84 -11 9 -68 31 -164 61 -35 12 -87 31 -115 43 -91 41 -238 60 -486 63
-178 2 -232 0 -257 -12z"/>
</g>
</svg>
