<?xml version="1.0" standalone="no"?>
<!DOCTYPE svg PUBLIC "-//W3C//DTD SVG 20010904//EN"
 "http://www.w3.org/TR/2001/REC-SVG-20010904/DTD/svg10.dtd">
<svg version="1.0" xmlns="http://www.w3.org/2000/svg"
 width="341.000000pt" height="152.000000pt" viewBox="0 0 341.000000 152.000000"
 preserveAspectRatio="xMidYMid meet">
<metadata>
Created by potrace 1.16, written by Peter Selinger 2001-2019
</metadata>
<g transform="translate(0.000000,152.000000) scale(0.100000,-0.100000)"
fill="#000000" stroke="none">
<path d="M1159 1335 c-19 -20 -158 -67 -175 -61 -7 3 -23 -4 -36 -15 l-23 -19
35 -30 c19 -17 39 -30 44 -30 12 0 -235 -184 -286 -213 -21 -12 -38 -27 -38
-33 0 -6 16 -26 35 -45 19 -19 35 -42 35 -51 0 -10 7 -18 15 -18 20 0 55 36
55 55 0 9 7 29 15 46 9 16 18 48 20 70 2 23 5 42 7 43 2 2 19 14 38 29 20 14
54 32 75 39 22 7 40 19 40 27 0 27 24 22 40 -8 8 -17 40 -58 70 -92 30 -34 55
-64 55 -68 0 -4 27 -27 60 -51 33 -25 60 -48 60 -52 0 -4 -32 -35 -72 -70 -40
-35 -84 -74 -99 -88 -49 -46 -66 -52 -88 -33 -10 10 -38 32 -61 48 -49 35 -59
51 -68 108 -11 62 -32 60 -102 -10 -31 -32 -67 -66 -79 -75 -11 -10 -21 -25
-21 -34 0 -14 3 -15 23 -2 23 15 67 14 149 -2 51 -10 154 -68 141 -80 -35 -29
-119 -83 -171 -110 l-63 -32 -44 37 c-51 41 -68 67 -59 89 7 17 -8 43 -52 91
-46 51 -84 118 -84 148 0 15 -5 37 -10 48 -9 15 -5 29 15 63 14 24 37 52 50
60 30 20 32 34 6 44 -19 7 -18 8 4 35 13 15 30 27 38 27 8 0 35 16 60 35 26
20 69 47 97 61 60 30 66 56 18 74 -18 6 -45 18 -60 26 -14 8 -33 14 -41 14
-14 0 -50 -45 -52 -65 -3 -23 -39 -84 -83 -140 -39 -49 -55 -61 -82 -63 -18
-2 -44 2 -56 9 -57 30 -65 -15 -18 -98 14 -24 24 -58 24 -81 0 -33 -6 -45 -34
-70 -73 -64 -201 -137 -289 -166 -20 -6 -14 -26 8 -26 8 0 38 -11 67 -25 29
-13 96 -39 148 -56 52 -17 140 -48 195 -69 55 -21 108 -41 118 -44 30 -10 15
-29 -48 -60 -37 -19 -54 -31 -43 -34 9 -2 47 13 83 34 l67 36 52 -23 c28 -13
53 -25 55 -26 3 -2 -14 -22 -37 -44 l-41 -41 -38 15 c-21 8 -54 22 -75 31 -34
15 -38 14 -62 -5 -34 -26 -33 -37 2 -31 19 2 50 -8 95 -32 77 -42 94 -44 106
-13 5 12 25 41 45 63 l36 42 52 -15 c29 -8 72 -23 95 -34 49 -22 73 -24 73 -6
-1 14 -75 50 -137 66 -23 7 -45 16 -48 20 -5 9 60 84 160 186 22 23 45 49 50
59 7 12 33 23 75 31 36 7 99 22 140 33 41 11 97 23 124 27 27 4 61 11 75 17
25 9 25 10 7 24 -11 8 -30 14 -43 14 -24 0 -23 -3 -44 113 -7 37 -16 67 -21
67 -4 0 -27 -13 -49 -30 l-42 -30 -56 52 c-92 84 -118 119 -126 171 -8 53 8
136 36 185 27 47 4 73 -32 37z m-29 -62 c-1 -5 -7 -32 -13 -62 l-13 -54 -20
25 c-11 14 -29 30 -42 37 -32 17 -28 24 26 42 59 20 62 21 62 12z m-367 -11
c14 -6 9 -14 -33 -45 -27 -21 -50 -35 -50 -31 0 3 10 24 22 45 22 40 29 43 61
31z m-241 -242 c40 0 41 -1 24 -19 -10 -11 -15 -25 -11 -30 3 -6 -1 -11 -10
-11 -9 0 -13 -4 -10 -10 3 -5 0 -7 -8 -4 -8 3 -24 23 -37 46 -20 35 -21 40 -6
35 10 -4 36 -7 58 -7z m298 -35 c0 -15 -34 -85 -41 -85 -4 0 -14 10 -20 22
-10 19 -8 25 17 45 28 22 44 29 44 18z m585 -147 c4 -29 11 -60 16 -69 7 -14
-2 -20 -59 -35 -37 -9 -74 -20 -82 -24 -8 -4 -37 -11 -65 -15 l-49 -7 49 40
c28 22 77 67 110 100 33 33 63 61 67 61 3 1 9 -23 13 -51z m-905 -44 c0 -16
19 -44 55 -81 30 -32 55 -63 55 -71 0 -36 65 -126 113 -157 28 -18 36 -35 16
-35 -6 0 -57 20 -113 44 -55 24 -156 62 -222 84 -112 37 -184 67 -184 76 0 2
36 25 80 51 44 26 83 51 86 57 11 17 96 68 105 62 5 -3 9 -16 9 -30z m375 -16
c7 -27 6 -28 -34 -28 l-42 0 28 35 c30 37 38 36 48 -7z m142 -218 c-8 -11 -45
-52 -82 -90 l-67 -70 -28 23 c-16 12 -28 26 -26 31 1 5 44 31 96 58 52 27 99
54 105 59 16 15 17 10 2 -11z"/>
<path d="M1790 1240 c-30 -5 -84 -11 -120 -14 -36 -2 -69 -5 -74 -5 -10 -1 -1
-258 12 -311 5 -22 4 -50 -4 -75 -20 -67 -45 -287 -43 -375 0 -30 0 -57 -1
-60 0 -3 -3 -29 -6 -59 l-4 -53 47 7 c27 4 84 15 128 26 133 31 167 38 233 45
40 4 65 11 69 20 4 11 32 14 124 14 l119 0 0 -44 c0 -70 39 -75 45 -6 1 17 6
35 11 40 5 5 156 11 337 14 l327 6 0 -55 c0 -30 4 -55 9 -55 17 0 30 26 33 65
l3 40 93 3 c73 2 92 6 92 18 0 12 -16 14 -87 12 -62 -2 -88 1 -91 10 -2 7 5
12 17 12 27 0 35 19 22 52 -10 27 0 153 19 243 6 28 13 63 16 79 2 16 9 36 13
45 5 9 14 43 21 76 16 82 61 175 99 205 17 14 31 28 31 32 0 5 -42 8 -94 8
-52 0 -97 3 -99 8 -3 4 -44 5 -92 2 -47 -3 -96 -1 -108 3 -12 5 -195 11 -407
13 -363 4 -427 6 -575 18 -33 2 -85 1 -115 -4z m372 -42 c103 -1 185 -5 183
-8 -3 -4 -62 -10 -132 -14 -70 -4 -140 -9 -155 -11 -20 -2 -28 1 -28 12 0 15
-2 15 -17 1 -18 -15 -175 -32 -187 -20 -4 3 4 16 16 30 21 21 29 23 78 18 30
-3 139 -6 242 -8z m-382 -28 c-12 -16 -26 -30 -31 -30 -5 0 -9 -10 -9 -21 0
-22 -80 -179 -92 -179 -6 0 -20 189 -16 226 1 12 7 20 13 18 6 -3 22 0 36 5
13 5 46 10 72 10 l48 1 -21 -30z m759 26 c-9 -8 -179 -13 -179 -5 0 5 41 9 92
9 50 0 89 -2 87 -4z m505 -91 c0 -44 -2 -105 -2 -135 l-2 -55 -288 1 c-158 1
-290 2 -294 3 -10 2 22 89 55 151 17 30 36 67 44 81 13 26 15 27 125 28 62 1
113 3 114 4 1 1 58 2 126 2 l123 0 -1 -80z m-512 48 c-28 -24 -75 -114 -97
-186 -16 -52 -20 -58 -43 -55 l-26 3 -1 122 -1 122 26 3 c14 2 56 4 94 6 68 3
69 3 48 -15z m633 -51 c-18 -37 -43 -103 -55 -147 -12 -44 -23 -82 -26 -84 -4
-5 -8 108 -4 124 2 6 4 39 5 75 1 36 3 70 3 77 2 11 25 17 84 20 l28 2 -35
-67z m-915 48 c0 -3 -5 -11 -10 -16 -6 -6 -13 -35 -15 -65 -15 -165 -14 -159
-46 -159 -24 0 -29 4 -25 18 3 9 12 57 21 105 8 48 19 96 24 105 9 16 51 26
51 12z m76 -47 c5 -32 8 -88 6 -125 l-3 -68 -44 0 c-29 0 -45 4 -45 13 0 6 5
53 11 102 6 50 11 100 11 113 0 17 6 22 27 22 25 0 28 -4 37 -57z m-171 5 c-4
-24 -9 -56 -11 -73 -16 -112 -22 -125 -51 -125 -24 0 -25 2 -19 44 4 24 7 76
7 114 l0 71 32 4 c18 2 36 5 40 5 5 1 6 -17 2 -40z m-181 -35 c-4 -38 -8 -78
-8 -90 -1 -13 -4 -23 -8 -23 -5 0 -8 -11 -8 -25 0 -22 -4 -25 -38 -25 l-39 0
14 78 c7 42 16 91 19 109 4 27 10 32 37 36 18 2 34 5 36 5 1 1 0 -28 -5 -65z
m81 25 c-4 -40 -13 -146 -14 -175 -1 -8 -15 -13 -37 -13 -33 0 -36 2 -30 23 3
12 13 58 22 102 22 108 21 105 43 105 18 0 20 -5 16 -42z m-185 10 c0 -29 -19
-158 -26 -180 -5 -17 -54 -26 -54 -10 0 46 34 189 47 200 24 18 33 15 33 -10z
m-95 -78 c-7 -41 -13 -76 -14 -77 -1 -2 -1 -12 -1 -23 0 -14 -7 -20 -24 -20
-55 0 -57 7 -15 81 22 38 44 81 50 96 16 43 18 22 4 -57z m1192 -161 c14 -5
34 -7 44 -4 16 5 19 1 20 -27 1 -18 1 -37 -1 -43 -1 -5 -4 -30 -7 -55 l-5 -45
-47 -1 c-25 -1 -80 -5 -121 -10 -112 -12 -394 -9 -460 5 l-30 6 41 80 c51 100
53 103 92 108 55 8 447 -3 474 -14z m-1221 -2 c3 -2 -3 -35 -11 -73 -8 -38
-18 -79 -20 -91 -4 -19 -12 -23 -40 -23 -46 0 -48 -27 -2 -32 l32 -3 -4 -70
c-2 -38 -4 -86 -5 -105 -1 -34 -2 -35 -45 -38 l-43 -3 6 116 c4 64 11 138 16
163 5 26 12 63 14 83 3 20 10 49 16 64 9 25 14 27 46 22 20 -4 38 -8 40 -10z
m179 -54 c-7 -38 -12 -79 -11 -93 1 -22 -4 -25 -37 -28 l-38 -3 6 38 c6 36 23
113 31 141 2 6 16 12 33 12 l29 0 -13 -67z m105 36 c0 -40 -29 -142 -44 -151
-27 -18 -37 -8 -30 28 5 27 4 35 -5 30 -14 -9 -14 22 0 80 11 41 14 44 45 44
31 0 34 -2 34 -31z m84 -6 c-10 -49 -12 -71 -13 -110 -1 -32 -3 -33 -42 -33
-29 0 -39 4 -36 13 3 6 14 47 24 90 17 73 19 77 46 77 27 0 28 -1 21 -37z m86
-30 c0 -97 -6 -113 -42 -113 l-30 0 7 83 c4 45 9 85 12 90 2 4 15 7 29 7 23 0
24 -3 24 -67z m129 43 c2 -11 -2 -53 -9 -93 l-13 -73 -33 0 c-38 0 -66 9 -59
20 2 4 7 38 11 76 8 96 7 96 56 92 33 -2 44 -7 47 -22z m71 -4 c-4 -16 -15
-42 -23 -58 l-16 -29 -1 51 c0 55 4 64 31 64 15 0 16 -5 9 -28z m-564 -9 c-3
-16 -11 -56 -17 -90 -7 -39 -17 -63 -24 -63 -8 0 -20 -3 -29 -6 -21 -8 -21 22
0 115 16 68 17 71 46 71 27 0 29 -2 24 -27z m-40 -220 c-7 -37 -10 -58 -22
-150 -4 -35 -9 -43 -26 -43 -20 0 -21 4 -15 106 6 110 11 124 51 124 16 0 18
-5 12 -37z m114 28 c0 -18 -21 -119 -35 -168 -13 -46 -19 -53 -40 -53 -20 0
-25 5 -26 28 -1 15 -1 31 0 35 1 5 4 36 8 70 8 83 16 97 58 97 19 0 35 -4 35
-9z m53 -103 c-12 -62 -22 -114 -23 -115 0 -2 -12 -3 -26 -3 -21 0 -25 3 -19
18 4 9 12 33 17 52 6 19 13 39 16 45 3 5 7 29 9 53 3 51 8 62 31 62 17 0 16
-8 -5 -112z m112 70 c-29 -189 -27 -183 -63 -186 -33 -3 -33 -3 -29 30 3 18 8
58 12 88 12 109 13 110 51 110 l35 0 -6 -42z m91 5 c-4 -21 -8 -45 -9 -53 -2
-8 -9 -32 -16 -53 -7 -21 -11 -49 -8 -63 4 -21 1 -24 -24 -24 -25 0 -29 4 -29
29 0 34 26 177 35 191 3 6 18 10 32 10 24 0 25 -2 19 -37z m130 15 c-4 -13
-12 -65 -18 -115 l-11 -93 -42 0 c-36 0 -44 4 -48 23 -6 21 -2 86 6 117 2 8 7
32 12 53 7 37 7 37 57 37 47 0 50 -1 44 -22z m670 11 c3 -6 15 -9 25 -6 18 5
19 0 13 -66 -4 -40 -6 -84 -5 -99 1 -17 -5 -31 -17 -37 -10 -5 -156 -10 -340
-10 l-322 -1 0 67 c0 41 7 84 17 108 l16 41 221 -1 c122 0 237 3 256 6 58 11
128 10 136 -2z m-1258 -267 c27 16 132 21 132 7 0 -13 -18 -19 -97 -34 -43 -8
-93 -17 -111 -21 -32 -7 -33 -6 -30 22 4 34 45 51 66 25 11 -14 15 -14 40 1z
m227 8 c-28 -12 -45 -12 -45 0 0 6 15 10 33 9 27 0 29 -2 12 -9z"/>
</g>
</svg>
