<?xml version="1.0" standalone="no"?>
<!DOCTYPE svg PUBLIC "-//W3C//DTD SVG 20010904//EN"
 "http://www.w3.org/TR/2001/REC-SVG-20010904/DTD/svg10.dtd">
<svg version="1.0" xmlns="http://www.w3.org/2000/svg"
 width="198.000000pt" height="169.000000pt" viewBox="0 0 198.000000 169.000000"
 preserveAspectRatio="xMidYMid meet">
<metadata>
Created by potrace 1.16, written by Peter Selinger 2001-2019
</metadata>
<g transform="translate(0.000000,169.000000) scale(0.100000,-0.100000)"
fill="#000000" stroke="none">
<path d="M1275 1568 c-11 -6 -22 -14 -25 -17 -8 -10 -79 -64 -136 -103 -75
-53 -89 -55 -130 -19 -19 17 -39 31 -45 31 -5 0 -26 16 -45 36 -37 36 -60 41
-75 14 -5 -8 -34 -76 -65 -150 -60 -143 -68 -160 -149 -285 -28 -44 -67 -106
-85 -137 -26 -44 -40 -58 -57 -58 -13 0 -23 -4 -23 -10 0 -5 -15 -10 -32 -10
-43 0 -56 -10 -60 -43 -4 -30 -171 -207 -195 -207 -7 0 -13 -9 -13 -20 0 -17
7 -20 43 -21 23 -1 46 -1 50 0 19 3 97 -23 163 -55 39 -19 74 -34 77 -34 4 0
56 -29 116 -65 60 -36 113 -65 116 -65 3 0 40 -23 82 -50 42 -28 82 -50 89
-50 8 0 14 -4 14 -8 0 -5 11 -14 25 -20 14 -7 30 -23 36 -36 7 -14 24 -31 39
-38 33 -16 100 -74 100 -86 0 -5 -7 -15 -15 -22 -20 -17 -19 -40 3 -40 20 1
82 54 82 71 0 6 11 24 25 41 14 16 40 55 59 87 19 32 65 97 102 144 38 47 83
104 99 127 40 56 251 249 291 266 26 11 31 17 26 39 -2 15 -15 33 -28 42 -24
15 -84 96 -84 112 0 7 -73 81 -147 147 -18 16 -70 53 -117 82 -82 52 -85 55
-93 100 -14 81 -10 267 6 286 19 22 2 38 -24 24z m-58 -145 c-4 -38 -1 -72 9
-98 7 -22 14 -41 14 -42 0 -2 -34 20 -75 47 -73 49 -95 70 -77 70 5 0 36 18
68 40 33 22 61 40 63 40 2 0 1 -26 -2 -57z m-347 2 c7 -8 21 -15 30 -15 25 0
50 -10 50 -21 0 -4 -33 -33 -74 -63 -69 -53 -126 -108 -153 -152 -12 -19 27
78 46 113 5 10 19 43 31 73 33 82 46 94 70 65z m189 -71 c9 -8 54 -43 101 -77
47 -35 99 -75 115 -91 17 -15 46 -36 66 -47 38 -19 155 -120 222 -192 35 -37
37 -42 22 -53 -11 -8 -15 -20 -10 -33 8 -28 -36 -120 -124 -256 -39 -60 -74
-114 -79 -120 -4 -5 -22 -34 -40 -63 -18 -29 -59 -87 -93 -129 -34 -42 -74
-101 -91 -130 -16 -29 -33 -53 -37 -53 -5 0 -20 11 -35 25 -15 14 -40 32 -57
40 -16 9 -29 21 -29 28 0 12 -33 36 -167 119 -39 25 -83 58 -97 75 l-25 30 49
48 c28 27 50 54 50 61 0 6 19 19 43 30 23 10 57 31 75 46 18 15 43 28 55 28
33 0 128 -75 155 -122 24 -42 66 -84 95 -93 9 -4 17 -15 17 -26 0 -24 26 -25
38 -1 5 9 10 60 11 112 2 58 7 101 15 110 7 8 13 28 14 43 2 36 74 186 108
226 15 18 24 34 21 37 -3 4 -36 1 -74 -5 -37 -6 -84 -11 -104 -10 -53 3 -83
-22 -41 -33 16 -4 20 -19 26 -86 3 -45 4 -98 1 -119 -2 -21 -7 -73 -9 -117 -3
-43 -7 -81 -10 -84 -3 -3 -6 0 -6 6 0 6 -9 14 -21 17 -22 7 -42 47 -41 80 1
11 -5 26 -13 35 -15 17 -22 123 -10 153 6 13 2 17 -16 17 -14 0 -40 16 -62 39
-21 21 -69 58 -107 82 -82 52 -90 69 -90 185 0 61 -3 84 -12 84 -7 -1 -42 -30
-78 -65 -36 -36 -73 -65 -82 -65 -10 0 -18 2 -18 4 0 7 126 172 148 194 41 41
133 103 162 109 17 3 33 10 36 14 7 13 15 11 33 -7z m-230 -319 c1 -35 -1 -44
-12 -39 -9 3 -13 13 -10 25 4 15 0 22 -16 26 l-22 6 22 23 c27 29 34 20 38
-41z m-94 -72 c-4 -21 -10 -42 -14 -48 -4 -5 -20 -41 -35 -80 -15 -38 -31 -74
-36 -80 -4 -5 -11 -25 -15 -43 -12 -57 -17 -27 -6 35 6 32 12 91 15 131 3 57
1 72 -10 72 -8 0 -14 -6 -15 -12 0 -7 -2 -26 -3 -43 -1 -16 1 -32 4 -35 4 -3
-1 -38 -11 -78 -9 -40 -20 -110 -24 -155 -4 -45 -11 -86 -17 -92 -12 -12 -102
82 -156 163 l-35 53 34 35 c18 19 39 32 45 30 18 -7 47 17 80 66 52 76 65 88
91 82 19 -5 23 -2 23 15 0 18 6 21 46 21 l46 0 -7 -37z m106 -55 c15 -15 29
-35 33 -43 4 -12 9 -13 23 -4 15 9 29 3 76 -28 49 -32 55 -39 42 -49 -19 -14
-158 -10 -199 6 -25 9 -28 8 -42 -25 -19 -46 -18 -104 1 -111 8 -4 67 15 132
40 64 26 118 45 120 43 2 -2 -16 -17 -39 -33 -23 -16 -49 -35 -58 -42 -55 -48
-84 -66 -165 -100 -49 -21 -102 -42 -116 -45 l-27 -7 28 108 c28 107 35 126
101 269 36 79 34 79 90 21z m539 -24 c0 -3 -20 -43 -44 -88 l-44 -83 -6 51
c-3 28 -6 65 -6 83 0 29 3 32 38 36 20 2 43 4 50 5 6 1 12 -1 12 -4z m323
-101 c9 -3 17 -9 17 -14 0 -6 -8 -13 -17 -16 -19 -7 -82 -50 -98 -68 -5 -5
-37 -33 -69 -60 l-59 -50 18 35 c10 19 33 59 51 88 19 29 34 56 34 61 0 4 9
20 20 34 20 25 22 25 53 11 17 -8 40 -17 50 -21z m-840 -41 c15 -2 27 -8 27
-12 0 -4 -12 -13 -27 -18 -16 -5 -36 -13 -45 -17 -15 -6 -18 -1 -18 30 0 32 3
36 18 30 9 -4 29 -10 45 -13z m232 -66 c2 -26 1 -46 -3 -44 -4 2 -24 12 -44
22 l-37 19 37 27 c20 15 38 26 39 25 2 -1 5 -23 8 -49z m-725 5 c10 -22 53
-73 93 -114 78 -79 78 -79 -52 -14 -40 20 -90 39 -110 43 -74 12 -74 11 -13
69 31 30 58 55 59 55 2 0 12 -18 23 -39z m347 -198 l-47 -48 -22 22 c-12 13
-20 24 -17 26 6 5 112 45 124 46 5 0 -12 -20 -38 -46z"/>
<path d="M1355 730 c3 -5 8 -10 11 -10 2 0 4 5 4 10 0 6 -5 10 -11 10 -5 0 -7
-4 -4 -10z"/>
</g>
</svg>
