<?xml version="1.0" standalone="no"?>
<!DOCTYPE svg PUBLIC "-//W3C//DTD SVG 20010904//EN"
 "http://www.w3.org/TR/2001/REC-SVG-20010904/DTD/svg10.dtd">
<svg version="1.0" xmlns="http://www.w3.org/2000/svg"
 width="199.000000pt" height="191.000000pt" viewBox="0 0 199.000000 191.000000"
 preserveAspectRatio="xMidYMid meet">
<metadata>
Created by potrace 1.16, written by Peter Selinger 2001-2019
</metadata>
<g transform="translate(0.000000,191.000000) scale(0.100000,-0.100000)"
fill="#000000" stroke="none">
<path d="M625 1783 c-6 -27 -70 -128 -132 -211 -18 -24 -33 -49 -33 -57 0 -17
33 -25 53 -13 9 5 44 11 78 15 l61 6 -32 -63 c-17 -34 -49 -88 -70 -119 -20
-31 -45 -72 -55 -91 -10 -19 -32 -55 -49 -80 -34 -49 -66 -102 -116 -195 -18
-33 -41 -69 -51 -81 -11 -11 -19 -29 -19 -39 0 -10 -8 -27 -17 -38 -17 -19
-16 -21 25 -58 50 -44 127 -89 152 -89 9 0 29 -9 44 -21 16 -13 33 -18 46 -14
15 5 20 2 20 -13 0 -11 6 -25 14 -31 11 -10 16 -9 24 5 7 13 13 14 31 5 15 -9
21 -21 21 -46 0 -28 4 -35 20 -35 13 0 20 7 20 20 0 23 4 24 31 9 13 -7 19
-18 17 -36 -4 -32 21 -44 29 -14 11 44 70 18 65 -29 -2 -17 1 -30 7 -30 6 0
11 4 11 8 0 5 6 16 13 26 12 17 15 17 57 1 25 -10 69 -28 98 -41 29 -13 57
-24 62 -24 5 0 14 -8 19 -18 7 -13 18 -17 39 -14 39 5 102 -22 102 -45 0 -10
-7 -31 -16 -48 -21 -40 -31 -125 -15 -125 24 0 51 21 51 40 0 34 22 69 55 89
21 12 34 29 38 50 12 57 221 237 309 265 18 6 32 15 31 21 -1 5 -24 17 -51 26
-55 19 -118 56 -146 87 -10 12 -35 26 -55 33 -20 6 -54 20 -77 30 -22 10 -52
20 -65 23 -26 6 -203 63 -231 74 -15 6 -10 21 38 117 30 61 62 115 71 120 9 6
49 40 89 77 79 71 109 84 163 68 25 -7 38 -6 49 2 11 10 6 18 -29 50 -23 21
-46 38 -51 38 -5 0 -25 11 -46 24 -20 14 -97 45 -169 69 -92 31 -144 54 -168
76 -20 17 -42 31 -49 31 -7 0 -23 11 -36 25 -16 17 -39 27 -72 31 -29 4 -52
13 -55 21 -4 10 -14 12 -30 8 -20 -5 -26 0 -42 37 -10 24 -21 60 -25 81 -9 46
-40 52 -51 10z m33 -131 c27 -59 27 -65 3 -53 -10 6 -21 7 -25 4 -4 -4 4 -12
16 -19 21 -11 20 -13 -23 -19 -25 -4 -55 -5 -67 -3 -20 3 -19 7 21 71 23 37
44 67 48 67 3 0 15 -22 27 -48z m201 -148 c3 -3 -47 -31 -109 -60 -19 -9 -54
-30 -79 -46 -24 -17 -42 -26 -40 -21 2 5 17 39 33 76 l29 68 56 -3 c41 -2 55
0 53 10 -2 11 16 3 57 -24z m146 -53 c60 -23 63 -30 64 -173 1 -59 5 -110 11
-113 5 -3 3 -21 -8 -43 -21 -48 -65 -113 -58 -87 12 44 25 154 26 230 1 44 3
98 4 120 1 30 -3 40 -14 40 -16 0 -23 -55 -34 -255 -3 -52 -10 -110 -15 -129
-12 -39 -5 -57 15 -40 11 9 10 2 -2 -35 -12 -34 -21 -46 -36 -46 -18 0 -19 7
-17 148 1 81 6 194 11 252 4 60 4 108 -1 113 -26 26 -39 -80 -47 -373 -5 -191
-22 -475 -30 -503 -3 -9 -9 -15 -14 -12 -6 4 -6 98 -2 228 11 344 9 650 -4
654 -20 7 -24 -56 -29 -423 -3 -198 -8 -378 -11 -402 -5 -38 -8 -42 -27 -36
-12 3 -26 10 -32 15 -11 11 -9 101 6 219 5 46 14 205 18 353 5 147 10 269 12
271 2 1 27 12 54 24 62 27 96 27 160 3z m-255 -103 c-3 -259 -35 -748 -50
-748 -18 0 -39 39 -41 75 -2 62 11 220 26 320 8 50 17 155 21 235 4 80 11 151
17 158 19 24 27 11 27 -40z m420 27 c7 -4 -43 -140 -56 -154 -2 -2 -4 37 -4
87 l0 92 26 -11 c15 -5 30 -12 34 -14z m-510 -225 c-6 -80 -18 -183 -26 -229
-7 -46 -14 -103 -14 -126 0 -56 -11 -135 -19 -135 -3 0 -12 4 -20 9 -12 8 -12
26 -2 118 7 59 15 119 17 133 22 138 24 306 4 363 -8 25 -6 29 28 51 l37 23 3
-31 c2 -17 -1 -96 -8 -176z m578 121 c-23 -25 -44 -48 -45 -50 -2 -2 -5 -2 -8
1 -4 4 4 35 30 105 3 9 12 10 35 1 l32 -11 -44 -46z m-666 -88 c3 -63 -3 -152
-15 -248 -3 -22 -11 -86 -18 -143 -8 -65 -16 -101 -23 -99 -14 5 -16 109 -5
202 5 39 10 122 11 185 1 111 15 170 38 170 5 0 10 -30 12 -67z m-91 -150 c-2
-97 -18 -253 -26 -262 -4 -3 -15 4 -25 16 -14 18 -16 31 -10 65 4 24 8 70 9
103 0 33 4 73 7 90 7 33 34 78 42 71 2 -3 4 -40 3 -83z m-95 -109 c-5 -26 -11
-33 -18 -26 -7 7 -6 20 3 41 17 38 23 32 15 -15z m580 -71 c-3 -7 -6 -89 -7
-182 -1 -158 -2 -168 -19 -164 -10 3 -21 12 -24 20 -6 14 11 296 20 341 4 20
7 22 20 11 8 -7 13 -18 10 -26z m-622 1 c3 -8 2 -12 -4 -9 -6 3 -10 10 -10 16
0 14 7 11 14 -7z m674 -16 c13 -13 18 -358 5 -358 -30 1 -33 20 -30 193 1 97
4 177 8 177 3 0 10 -5 17 -12z m-673 -40 c14 -6 25 -20 25 -30 0 -19 -1 -18
-30 2 -16 12 -30 26 -30 31 0 12 4 11 35 -3z m736 -177 c-4 -83 -11 -154 -15
-159 -8 -8 -6 314 2 337 14 39 20 -41 13 -178z m52 2 c-1 -87 -2 -164 -3 -170
0 -7 -7 -13 -16 -13 -14 0 -16 7 -10 45 3 25 9 102 12 170 4 69 10 125 13 125
3 0 5 -71 4 -157z m162 143 c11 -8 39 -19 63 -26 23 -7 42 -17 42 -22 0 -5 -8
-25 -17 -46 l-17 -37 -4 42 c-3 40 -6 44 -53 65 -27 13 -49 26 -49 30 0 12 13
10 35 -6z m-109 -179 c-3 -83 -9 -153 -11 -156 -3 -2 -5 69 -5 158 0 119 3
160 11 155 9 -5 10 -49 5 -157z m59 81 c-10 -102 -12 -166 -5 -217 7 -52 5
-57 -18 -42 -11 6 -11 35 -1 159 7 84 16 152 21 152 4 0 6 -24 3 -52z m56 -66
c0 -44 -8 -94 -16 -117 -15 -39 -16 -35 -11 90 3 72 6 132 6 135 0 3 5 -3 11
-13 6 -11 11 -53 10 -95z m224 46 c25 -12 45 -25 45 -29 0 -4 -42 -34 -92 -67
-51 -33 -103 -70 -115 -82 -13 -11 -23 -18 -23 -15 0 6 88 177 104 204 10 16
30 14 81 -11z m-183 -60 c-9 -9 -12 -4 -11 23 0 32 1 33 11 11 8 -17 8 -26 0
-34z"/>
</g>
</svg>
