<?xml version="1.0" standalone="no"?>
<!DOCTYPE svg PUBLIC "-//W3C//DTD SVG 20010904//EN"
 "http://www.w3.org/TR/2001/REC-SVG-20010904/DTD/svg10.dtd">
<svg version="1.0" xmlns="http://www.w3.org/2000/svg"
 width="306.000000pt" height="198.000000pt" viewBox="0 0 306.000000 198.000000"
 preserveAspectRatio="xMidYMid meet">
<metadata>
Created by potrace 1.16, written by Peter Selinger 2001-2019
</metadata>
<g transform="translate(0.000000,198.000000) scale(0.100000,-0.100000)"
fill="#000000" stroke="none">
<path d="M1315 1724 c-6 -2 -9 -47 -8 -110 2 -133 16 -156 70 -114 21 16 41
20 104 20 44 0 79 -4 79 -9 0 -21 -35 -34 -101 -38 -40 -2 -76 -6 -81 -9 -14
-9 3 -25 25 -23 12 0 35 1 51 0 l30 -1 -34 -35 c-26 -27 -42 -35 -69 -35 -45
0 -73 -16 -52 -29 8 -5 21 -7 30 -3 9 3 -2 -11 -24 -32 -22 -20 -52 -39 -67
-42 -15 -4 -26 -10 -23 -14 6 -10 -20 -31 -78 -65 -49 -28 -56 -48 -20 -53 11
-2 31 -14 44 -28 l22 -24 -34 0 c-19 0 -63 4 -99 9 -36 5 -103 12 -149 16 -84
6 -110 18 -111 52 0 6 -4 13 -8 15 -15 6 -91 143 -98 176 -4 17 -11 32 -16 32
-5 0 -6 5 -3 11 4 6 1 16 -7 22 -20 17 -40 82 -36 120 2 26 -1 33 -19 35 -12
2 -35 -9 -55 -25 -18 -15 -42 -33 -53 -39 -11 -6 -38 -20 -60 -32 -22 -12 -52
-26 -67 -32 -42 -14 -36 -40 8 -40 20 0 42 -6 48 -14 6 -7 37 -47 68 -87 31
-41 73 -90 92 -108 32 -31 51 -72 27 -57 -5 3 -42 8 -82 11 -41 3 -111 9 -156
14 -86 9 -129 5 -139 -11 -4 -6 -1 -14 6 -18 8 -5 9 -13 2 -26 -5 -11 -12 -57
-16 -104 -4 -46 -12 -104 -18 -128 -14 -56 -3 -67 43 -43 72 39 175 61 326 71
81 6 164 13 184 16 32 5 39 1 65 -31 16 -21 43 -54 60 -74 17 -20 56 -69 88
-109 31 -39 84 -102 117 -140 33 -37 77 -96 96 -132 20 -36 48 -75 62 -86 14
-12 40 -47 56 -78 17 -31 33 -56 38 -56 34 0 -52 152 -164 290 -45 55 -67 99
-62 123 3 10 -1 17 -9 17 -8 0 -26 24 -41 53 -15 28 -51 93 -80 142 -52 86
-53 90 -33 98 12 5 51 7 88 5 46 -2 69 0 72 8 11 28 108 -12 265 -109 35 -21
78 -44 96 -50 40 -15 98 -61 185 -148 61 -61 104 -89 117 -76 6 7 -100 113
-201 202 -38 33 -87 79 -110 102 -22 24 -44 43 -48 43 -7 0 -68 59 -68 66 0 2
35 4 79 4 90 0 133 -18 296 -125 107 -71 125 -85 125 -102 0 -7 7 -13 16 -13
16 0 72 -39 110 -77 24 -24 54 -31 54 -13 0 6 -11 15 -25 20 -14 5 -25 13 -25
18 0 5 -11 15 -25 22 -14 7 -25 19 -25 27 0 7 -6 13 -14 13 -7 0 -31 17 -53
38 -21 20 -55 48 -75 62 -78 55 -166 146 -145 151 1 0 21 2 44 5 36 4 54 -2
134 -47 141 -78 207 -125 350 -251 37 -32 69 -58 73 -58 15 0 4 22 -24 47 -16
14 -30 33 -30 40 0 8 -6 13 -12 11 -14 -3 -91 71 -177 169 -30 34 -65 67 -78
74 -35 19 -28 26 30 32 67 7 95 -7 184 -88 38 -35 117 -98 174 -141 57 -42
116 -88 132 -102 38 -36 34 -11 -7 35 -18 21 -59 67 -90 102 -31 36 -55 70
-52 78 3 7 -1 13 -11 13 -18 0 -123 86 -123 101 0 18 40 9 88 -20 48 -28 98
-62 222 -151 36 -26 81 -55 100 -66 19 -10 54 -34 78 -52 23 -19 47 -32 53
-30 9 3 -19 33 -156 166 -16 16 -61 62 -100 101 l-70 72 105 -2 c92 -1 105 0
108 15 3 16 -7 17 -102 15 -59 -1 -111 2 -116 7 -5 5 -3 22 7 42 11 24 22 32
42 33 14 0 46 1 71 3 25 1 52 -2 61 -6 25 -11 59 2 59 24 0 18 -7 19 -92 17
-53 -1 -93 2 -95 8 -2 5 6 22 18 37 21 26 24 27 93 22 162 -12 151 -13 151 9
0 23 -11 25 -157 26 -90 1 -97 2 -88 18 5 10 16 24 25 31 14 12 18 12 25 0 7
-11 11 -11 24 -1 9 8 16 20 16 27 0 8 9 23 21 35 11 11 18 27 15 36 -5 12 0
14 26 10 18 -3 43 -8 55 -12 17 -5 25 -3 29 10 9 22 -11 35 -56 35 l-35 1 24
20 c16 13 21 23 14 30 -6 6 -24 -1 -50 -20 -38 -28 -49 -30 -133 -32 -50 -1
-93 1 -95 3 -3 3 4 17 16 32 35 44 12 43 -34 -2 l-43 -42 -107 0 -108 0 23 30
c12 17 31 33 43 35 11 3 103 11 205 19 102 9 200 18 219 20 39 6 207 9 236 4
12 -2 21 3 23 14 4 20 -58 43 -91 34 -12 -3 -71 -1 -132 4 -60 5 -254 12 -430
15 -176 3 -340 7 -365 10 -103 12 -330 38 -395 45 -38 5 -71 13 -73 19 -4 11
-27 13 -47 5z m258 -81 c48 -3 90 -9 92 -13 3 -4 -14 -25 -38 -45 -41 -37 -43
-37 -109 -32 -38 2 -86 1 -108 -3 l-40 -7 0 52 c0 28 3 55 8 59 4 5 30 5 57 2
28 -3 90 -9 138 -13z m442 -29 c28 -3 140 -7 250 -9 110 -3 223 -5 250 -6 l50
-1 -34 -10 c-19 -5 -45 -8 -58 -5 -21 4 -68 1 -245 -17 -31 -4 -48 -1 -51 7
-3 9 -10 9 -27 -1 -15 -9 -53 -13 -121 -11 -91 2 -99 4 -93 21 6 22 1 23 -29
4 -13 -8 -68 -16 -141 -20 -107 -6 -117 -5 -103 9 9 8 19 24 22 36 7 20 11 20
143 14 76 -4 160 -9 187 -11z m-171 -82 c3 -5 -7 -21 -23 -36 -27 -26 -30 -27
-136 -24 l-107 3 18 23 c16 19 33 24 104 31 121 12 138 12 144 3z m254 -8 c2
-1 -4 -14 -15 -28 -17 -24 -22 -25 -120 -26 -57 0 -103 3 -103 8 0 4 7 17 15
29 11 16 28 23 63 25 48 3 154 -2 160 -8z m-1470 -62 c14 -46 91 -205 102
-212 10 -6 80 -121 80 -130 0 -4 -24 -5 -52 -3 -38 4 -58 11 -71 26 -10 12
-38 45 -63 73 -25 29 -69 85 -99 125 -51 68 -53 74 -37 89 23 21 104 69 118
70 6 0 16 -17 22 -38z m1397 -24 c3 -3 -2 -15 -12 -27 -17 -20 -25 -22 -117
-19 l-98 3 24 26 c23 25 29 26 111 24 48 -1 90 -4 92 -7z m257 6 c5 -3 -1 -19
-13 -35 l-21 -30 -99 3 c-54 1 -99 6 -99 10 0 5 7 19 15 31 13 20 23 22 111
24 54 1 101 0 106 -3z m248 -1 c0 -5 -12 -20 -25 -35 -23 -27 -28 -28 -120
-28 -52 0 -95 3 -95 6 0 3 9 19 21 35 20 29 21 29 120 29 54 0 99 -3 99 -7z
m-783 -28 c-26 -23 -36 -25 -128 -25 l-99 0 16 25 c16 24 20 25 128 25 l111
-1 -28 -24z m-74 -92 c-15 -21 -28 -39 -29 -41 -3 -7 -224 -13 -224 -5 0 12
53 70 70 76 8 3 59 6 113 6 l98 1 -28 -37z m267 -3 l-32 -40 -84 0 c-46 0 -84
4 -84 9 0 5 8 23 18 40 l17 31 98 0 99 0 -32 -40z m276 27 c8 -7 -18 -46 -35
-52 -24 -9 -201 -19 -201 -11 0 4 12 23 28 42 l27 36 88 -5 c48 -2 90 -7 93
-10z m-493 -36 c-10 -17 -24 -31 -31 -31 -8 0 -3 14 14 35 32 42 42 40 17 -4z
m727 32 c0 -4 -10 -17 -22 -30 -19 -20 -31 -23 -95 -23 -47 0 -72 4 -68 10 3
6 1 10 -4 10 -6 0 -11 -4 -11 -10 0 -5 -7 -10 -15 -10 -20 0 -19 13 4 34 15
13 20 14 24 4 4 -10 9 -9 17 5 9 14 26 17 90 17 44 0 80 -3 80 -7z m-1046 -38
c-16 -25 -44 -45 -61 -45 -8 0 65 70 73 70 3 0 -3 -11 -12 -25z m463 -53 c10
-6 9 -13 -3 -30 -13 -20 -24 -22 -95 -22 -43 0 -79 4 -79 8 0 22 39 41 90 45
30 2 60 4 65 5 6 1 16 -2 22 -6z m249 -28 c-37 -33 -43 -35 -105 -33 -36 1
-69 3 -73 6 -5 2 -1 17 7 34 l16 29 97 0 97 0 -39 -36z m264 29 c0 -5 -12 -20
-25 -35 -21 -25 -31 -28 -86 -28 -50 0 -60 3 -55 15 18 44 18 51 2 31 -8 -10
-17 -23 -18 -28 -4 -11 -68 -22 -68 -11 0 4 12 20 28 34 25 24 34 26 125 28
53 0 97 -2 97 -6z m75 -3 c8 -14 -35 -60 -57 -60 -17 0 -16 4 9 35 29 37 38
41 48 25z m-866 -25 c-24 -24 -34 -27 -132 -32 -109 -6 -124 -1 -89 29 22 20
35 22 152 26 l95 3 -26 -26z m101 19 c0 -22 -24 -44 -50 -44 l-29 0 22 24 c20
21 57 35 57 20z m-360 -28 c-16 -15 -42 -26 -69 -29 l-44 -6 44 30 c24 16 55
29 69 29 l25 0 -25 -24z m184 -57 c2 -2 -11 -15 -30 -29 -18 -14 -34 -31 -34
-37 0 -10 -25 -13 -90 -13 l-91 0 23 40 c22 39 25 40 76 40 34 0 52 -4 52 -12
0 -9 5 -8 15 2 13 13 69 20 79 9z m116 4 c-1 -5 -9 -22 -18 -38 -16 -29 -19
-30 -50 -20 l-32 11 22 21 c31 28 79 44 78 26z m148 -16 c-33 -26 -36 -47 -9
-47 24 0 51 -10 51 -19 0 -4 -43 -6 -95 -6 -106 0 -110 4 -75 60 19 31 23 32
88 33 l67 1 -27 -22z m86 1 c-9 -30 -8 -30 -35 -20 l-23 9 29 16 c38 21 38 21
29 -5z m196 14 c0 -3 -12 -19 -27 -35 -27 -28 -28 -29 -9 -43 19 -13 18 -14
-15 -15 -19 -1 -45 -3 -59 -4 -27 -3 -70 13 -70 26 0 5 7 23 16 42 16 33 16
34 90 34 41 0 74 -2 74 -5z m92 0 c17 -7 16 -9 -2 -40 -17 -27 -25 -32 -43
-26 -38 11 -42 22 -17 49 24 26 33 28 62 17z m-872 -22 c0 -4 -6 -13 -13 -19
-11 -8 -18 -6 -31 8 -13 15 -14 20 -4 23 17 6 48 -2 48 -12z m994 -15 c-21
-20 -38 -42 -36 -50 2 -12 -8 -15 -44 -15 l-46 0 6 32 c11 54 31 68 99 68 l61
0 -40 -35z m116 18 c0 -5 -8 -18 -18 -31 -16 -20 -20 -21 -37 -8 -16 12 -17
16 -6 30 13 16 61 23 61 9z m-1820 -33 c114 -9 115 -9 145 -43 33 -38 98 -127
93 -127 -2 -1 -75 -3 -163 -6 -117 -4 -185 -12 -254 -28 l-93 -23 6 56 c4 31
9 72 11 91 3 19 7 50 10 68 l6 33 62 -6 c34 -3 114 -9 177 -15z m283 -75 c19
-27 39 -50 45 -50 19 0 27 -16 12 -25 -28 -18 -77 -11 -93 13 -8 12 -23 31
-34 42 -22 24 -53 67 -53 75 0 3 20 3 44 0 39 -4 48 -10 79 -55z m475 18 c195
-3 262 -8 259 -16 -2 -7 -25 -13 -53 -13 -27 -1 -56 -4 -64 -7 -8 -3 -46 -8
-85 -11 -73 -6 -238 -23 -290 -30 -16 -2 -58 -7 -92 -11 l-62 -7 -28 51 c-30
54 -54 72 -28 20 9 -17 15 -33 12 -35 -2 -2 -12 14 -23 36 -10 22 -23 40 -29
40 -5 0 -4 4 2 8 7 4 59 2 115 -6 57 -7 221 -16 366 -19z m992 17 c11 -7 5
-10 -23 -10 -23 0 -36 4 -32 10 8 13 35 13 55 0z m-460 -23 c-10 -9 -210 -17
-210 -9 0 5 48 10 107 11 59 1 105 0 103 -2z m627 -130 c61 -59 109 -107 107
-107 -3 0 -33 22 -67 48 -99 76 -224 162 -239 164 -7 0 7 4 32 7 25 3 47 4 50
1 3 -3 55 -54 117 -113z m-247 17 c99 -101 87 -99 -42 8 -42 34 -84 68 -95 75
-16 11 -15 12 12 12 25 1 46 -15 125 -95z m-280 20 l65 -67 -55 32 c-30 18
-79 44 -109 58 -44 22 -51 28 -35 34 48 19 69 10 134 -57z m-316 14 c19 -18
19 -18 -22 -1 -23 10 -42 21 -42 25 0 11 44 -5 64 -24z m-239 -68 c41 -38 70
-70 65 -70 -5 0 -11 4 -15 9 -3 6 -18 16 -33 24 -15 8 -53 29 -84 47 -32 17
-58 29 -58 25 0 -3 -6 0 -14 7 -20 19 -10 28 30 28 30 0 46 -11 109 -70z
m-479 24 c12 -3 30 -22 40 -42 11 -21 29 -54 42 -75 37 -62 115 -213 98 -192
-9 11 -26 31 -39 45 -34 37 -159 190 -185 227 -27 38 -10 52 44 37z"/>
<path d="M1129 1249 c-17 -11 32 -10 76 1 26 6 24 7 -16 7 -26 0 -53 -3 -60
-8z"/>
</g>
</svg>
