<?xml version="1.0" standalone="no"?>
<!DOCTYPE svg PUBLIC "-//W3C//DTD SVG 20010904//EN"
 "http://www.w3.org/TR/2001/REC-SVG-20010904/DTD/svg10.dtd">
<svg version="1.0" xmlns="http://www.w3.org/2000/svg"
 width="271.000000pt" height="173.000000pt" viewBox="0 0 271.000000 173.000000"
 preserveAspectRatio="xMidYMid meet">
<metadata>
Created by potrace 1.16, written by Peter Selinger 2001-2019
</metadata>
<g transform="translate(0.000000,173.000000) scale(0.100000,-0.100000)"
fill="#000000" stroke="none">
<path d="M494 1585 c-3 -8 -67 -76 -141 -150 -74 -74 -133 -141 -131 -147 3
-7 23 -15 45 -18 22 -4 52 -14 66 -23 15 -9 37 -17 50 -17 13 0 41 -13 63 -30
21 -16 44 -30 50 -30 15 0 167 -102 213 -142 21 -18 46 -38 57 -44 18 -11 15
-15 -31 -55 -27 -24 -61 -57 -75 -72 -48 -54 -257 -215 -355 -274 -55 -33
-101 -66 -103 -75 -4 -22 34 -64 99 -109 70 -47 94 -46 109 9 23 83 105 202
230 335 l65 68 40 -18 c22 -10 75 -42 117 -70 42 -28 87 -53 100 -56 13 -4 38
-26 55 -51 17 -24 44 -50 59 -58 16 -7 40 -30 54 -52 24 -34 26 -46 23 -110
-1 -39 -8 -92 -15 -117 -22 -89 4 -100 94 -38 33 22 78 47 99 54 22 8 54 21
72 29 65 29 153 49 205 47 29 -2 59 2 66 8 8 7 76 16 153 22 76 5 176 13 223
17 123 10 210 -1 269 -35 55 -30 67 -28 57 12 -5 21 -12 26 -34 23 -15 -2 -33
4 -42 13 -8 9 -37 24 -65 34 -27 10 -59 25 -70 34 -18 16 -50 37 -96 66 -10 5
-33 23 -52 38 -19 15 -82 52 -139 81 -57 29 -136 74 -177 100 l-73 47 69 36
c37 20 86 45 108 56 65 32 113 67 118 86 2 10 35 34 73 53 148 77 223 121 218
130 -3 4 -31 -5 -62 -21 -154 -80 -423 -211 -432 -211 -6 0 -75 -32 -154 -70
-79 -39 -150 -70 -157 -68 -26 6 -22 -59 7 -123 15 -32 31 -59 35 -59 3 0 24
7 45 16 35 15 45 15 128 -1 116 -21 303 -78 386 -116 69 -33 130 -70 130 -80
0 -6 -104 -10 -280 -11 -14 0 -70 -5 -125 -10 -131 -13 -199 -12 -271 1 -103
20 -167 43 -221 78 -35 23 -59 32 -72 28 -14 -4 -25 2 -40 24 -12 16 -21 32
-21 36 0 4 -9 20 -20 35 -11 16 -27 48 -35 71 -8 23 -26 53 -40 67 -26 26 -85
136 -85 159 0 8 -7 25 -16 39 -16 24 -16 28 4 72 12 26 30 68 41 95 11 26 24
47 30 47 5 0 13 10 16 23 4 12 22 38 40 57 18 19 51 61 74 93 41 56 75 80 49
35 -17 -30 -17 -253 -1 -269 9 -9 20 -5 46 18 57 50 212 141 253 149 22 4 54
13 72 21 18 7 37 11 42 8 21 -13 245 -26 508 -30 156 -2 287 -7 292 -10 13 -8
146 -4 161 6 27 16 -6 29 -89 35 -45 3 -205 7 -355 8 -278 3 -430 14 -534 39
-32 8 -89 18 -128 21 -38 4 -112 21 -163 39 l-93 32 -53 -55 c-159 -165 -377
-354 -391 -338 -11 11 -75 137 -75 146 0 6 -18 41 -40 77 -37 60 -62 141 -77
245 -8 53 -36 79 -49 45z m11 -153 c5 -39 21 -82 51 -138 24 -45 44 -88 44
-96 0 -9 7 -21 15 -28 9 -7 14 -15 12 -17 -5 -4 -135 63 -157 81 -8 7 -36 20
-62 30 -26 10 -50 22 -53 27 -4 5 -15 9 -26 9 -10 0 -19 5 -19 12 0 15 172
186 182 181 4 -2 10 -29 13 -61z m776 -42 c24 -11 58 -20 74 -20 24 0 27 -2
15 -11 -12 -9 -12 -10 4 -5 24 8 137 -4 131 -14 -2 -4 -24 -10 -47 -14 -40 -7
-133 -50 -190 -88 -49 -34 -58 -26 -58 52 0 56 14 120 26 120 1 0 21 -9 45
-20z m-368 -257 c-31 -73 -58 -123 -65 -123 -4 0 -21 8 -37 18 l-30 18 71 62
c39 34 73 62 75 62 1 0 -5 -17 -14 -37z m40 -338 c15 -22 35 -51 46 -65 11
-14 22 -35 26 -48 6 -22 5 -22 -45 8 -28 16 -53 30 -55 30 -2 0 -33 21 -68 48
-35 26 -72 52 -83 59 -18 11 -17 14 20 47 29 26 45 34 61 30 13 -3 26 0 30 7
5 7 14 -4 25 -32 9 -24 28 -62 43 -84z m723 102 c-49 -32 -92 -71 -126 -117
-21 -27 -49 -59 -63 -70 l-26 -21 -14 34 c-33 77 -33 76 20 98 26 11 64 27 83
36 84 40 166 65 126 40z m20 -150 c33 -24 106 -70 164 -101 58 -32 96 -54 85
-51 -11 4 -58 22 -105 40 -47 18 -107 36 -135 39 -42 6 -130 32 -144 43 -10 7
52 84 64 80 7 -3 39 -25 71 -50z m-1125 -45 c-5 -9 -19 -26 -31 -37 -12 -11
-45 -49 -73 -85 -28 -36 -57 -69 -64 -73 -7 -4 -13 -13 -13 -20 0 -7 -7 -20
-14 -30 -12 -16 -18 -17 -38 -7 -51 27 -89 80 -57 80 6 0 24 10 41 21 16 12
50 32 76 46 26 13 64 38 84 54 20 16 40 29 43 29 3 0 15 9 27 20 27 25 32 25
19 2z m704 -258 c11 -7 56 -20 100 -29 44 -9 81 -18 83 -20 6 -5 -60 -32 -111
-46 -23 -6 -65 -23 -93 -38 l-51 -28 2 81 c2 45 4 86 4 93 1 13 36 6 66 -13z"/>
</g>
</svg>
