<?xml version="1.0" standalone="no"?>
<!DOCTYPE svg PUBLIC "-//W3C//DTD SVG 20010904//EN"
 "http://www.w3.org/TR/2001/REC-SVG-20010904/DTD/svg10.dtd">
<svg version="1.0" xmlns="http://www.w3.org/2000/svg"
 width="299.000000pt" height="193.000000pt" viewBox="0 0 299.000000 193.000000"
 preserveAspectRatio="xMidYMid meet">
<metadata>
Created by potrace 1.16, written by Peter Selinger 2001-2019
</metadata>
<g transform="translate(0.000000,193.000000) scale(0.100000,-0.100000)"
fill="#000000" stroke="none">
<path d="M2654 1885 c-28 -13 -71 -29 -95 -35 -24 -7 -48 -14 -52 -17 -4 -2
18 -33 51 -67 32 -34 67 -79 79 -98 l21 -37 -172 3 c-95 1 -177 6 -183 9 -6 4
-96 9 -199 12 -104 3 -222 10 -262 16 -40 5 -112 9 -160 9 -113 0 -409 36
-436 52 -23 14 -96 12 -96 -2 0 -5 11 -12 24 -16 20 -5 24 -12 24 -45 1 -21 4
-43 7 -49 8 -13 -51 -87 -75 -93 -18 -4 -92 -98 -116 -146 -22 -45 -117 -177
-168 -235 l-48 -56 -86 66 c-47 37 -90 70 -96 75 -6 5 -38 30 -71 57 -33 26
-69 58 -79 72 -62 79 -164 157 -180 139 -17 -19 -136 -284 -133 -293 3 -8 32
-16 68 -20 68 -8 203 -47 259 -76 19 -10 75 -37 123 -60 48 -24 90 -46 92 -50
5 -9 -155 -153 -208 -188 -23 -15 -53 -37 -67 -50 -35 -32 -145 -96 -202 -117
-68 -25 -76 -38 -36 -63 18 -12 45 -25 60 -31 15 -6 71 -43 123 -82 79 -60 98
-69 110 -59 8 7 15 20 15 29 0 9 18 48 40 86 21 39 53 99 71 135 18 36 53 99
78 140 25 41 55 92 66 113 23 43 48 48 88 17 14 -12 56 -31 92 -45 36 -13 86
-37 112 -54 25 -17 49 -31 52 -32 3 0 16 -2 29 -3 29 -3 162 -94 162 -111 0
-8 -5 -26 -11 -41 -13 -36 -2 -104 18 -111 9 -4 22 2 30 13 13 18 32 19 431
20 229 0 486 4 571 8 161 7 255 -4 266 -32 3 -8 -24 -42 -67 -83 -40 -38 -69
-69 -65 -69 11 0 51 31 110 86 26 25 47 42 47 37 0 -4 -34 -53 -76 -108 -41
-55 -84 -117 -94 -137 -27 -50 -39 -55 -64 -26 -22 26 -69 58 -84 58 -4 0 -17
-6 -28 -14 -18 -14 -16 -16 28 -35 25 -12 58 -35 72 -51 14 -17 31 -28 39 -24
13 4 58 89 58 106 0 4 15 24 35 45 19 21 53 64 75 95 21 31 43 59 49 63 5 3
19 -28 31 -71 20 -66 40 -97 54 -82 6 5 -53 239 -66 261 -16 29 -13 185 5 237
9 25 16 48 16 53 0 12 -23 8 -65 -13 l-40 -20 34 6 34 6 -8 -43 c-4 -24 -10
-62 -14 -83 l-6 -40 -22 45 c-12 24 -27 59 -35 77 -13 32 -38 44 -38 18 0 -8
6 -27 14 -43 41 -81 67 -156 58 -165 -12 -12 -72 13 -168 71 -38 23 -89 48
-114 55 -25 8 -99 41 -165 75 -66 33 -160 75 -210 92 -49 17 -128 52 -175 78
-47 27 -102 56 -122 66 -63 29 -62 30 127 132 33 18 101 53 150 79 50 25 104
56 120 69 28 20 153 80 235 110 19 8 60 23 90 35 30 12 96 35 145 51 50 16
101 38 115 47 25 17 70 19 70 2 0 -4 -24 -41 -53 -81 -55 -76 -130 -155 -179
-191 -32 -22 -36 -38 -10 -38 25 0 94 -38 119 -66 21 -23 23 -24 33 -5 5 11
10 29 10 40 0 33 58 200 95 274 9 17 10 27 3 27 -6 0 -5 6 3 16 11 14 15 12
31 -18 33 -62 95 -143 111 -146 22 -4 21 12 -2 46 -10 15 -37 60 -59 100 -41
74 -41 74 -24 104 40 71 73 120 101 150 13 15 21 31 17 35 -10 10 -78 -67
-119 -134 -17 -29 -35 -53 -39 -53 -4 0 -15 11 -23 24 -14 20 -15 34 -6 81 6
31 10 59 9 63 -1 4 6 21 15 39 18 34 22 53 10 53 -5 -1 -31 -11 -59 -25z m1
-113 l-6 -35 -40 39 c-21 21 -39 41 -39 44 0 3 19 12 43 20 42 15 42 15 45 -9
2 -13 1 -40 -3 -59z m-1280 -92 c122 -15 499 -41 697 -48 97 -4 179 -10 182
-13 4 -3 -49 -9 -116 -12 -68 -3 -148 -13 -178 -20 -30 -8 -116 -18 -190 -22
-123 -6 -329 -25 -452 -41 l-48 -7 0 34 c0 19 -7 55 -14 81 -8 25 -12 49 -9
52 9 8 36 8 128 -4z m1195 -80 c-8 -6 -46 -20 -85 -31 -92 -28 -262 -95 -405
-159 -63 -29 -162 -73 -220 -97 -58 -25 -139 -61 -180 -80 -174 -82 -164 -80
-174 -23 -7 42 -23 74 -45 94 -11 11 -21 24 -21 30 -1 6 -21 24 -45 39 -62 39
-104 35 -126 -13 -10 -19 -13 -37 -9 -40 5 -3 7 -35 5 -72 -3 -37 -5 -132 -6
-212 -1 -115 -5 -146 -16 -150 -28 -11 -1 -28 33 -22 91 18 180 78 203 139 13
33 22 33 91 1 60 -28 227 -92 275 -104 66 -18 258 -89 273 -103 23 -19 119
-67 135 -67 7 0 71 -29 142 -65 l130 -66 -55 6 c-30 4 -80 15 -110 25 -56 18
-371 50 -500 50 -36 0 -90 7 -120 15 -30 8 -76 15 -102 15 -27 0 -82 13 -130
30 -146 54 -180 61 -200 43 -10 -9 -18 -22 -18 -30 0 -7 -2 -13 -5 -13 -3 0
-43 25 -90 55 -46 30 -86 55 -89 55 -2 0 -20 14 -38 30 -19 17 -53 41 -76 53
-63 34 -152 101 -152 114 0 25 58 107 166 232 16 20 64 80 105 135 90 120 95
126 100 126 2 0 4 -21 4 -46 -1 -49 13 -68 39 -58 16 6 20 17 17 42 -1 6 2 12
6 12 4 0 35 4 68 9 167 26 209 30 315 36 178 9 247 15 345 30 50 8 122 17 160
20 39 4 108 10 155 14 129 12 268 13 250 1z m40 -208 c-22 -55 -40 -108 -40
-116 0 -9 -2 -16 -6 -16 -9 0 -84 45 -84 50 0 3 24 30 53 60 29 30 66 72 81
93 16 21 30 36 32 34 2 -2 -14 -49 -36 -105z m-2206 -25 c14 -18 58 -58 98
-90 160 -126 203 -159 230 -175 33 -19 34 -26 10 -57 -17 -21 -22 -22 -43 -11
-176 93 -355 166 -441 182 -46 8 -49 27 -13 80 14 21 28 49 32 63 3 14 15 36
26 48 18 21 22 21 48 8 15 -8 39 -30 53 -48z m998 -64 c43 -47 58 -90 58 -167
0 -129 -26 -181 -109 -218 -54 -25 -65 -14 -55 52 3 25 8 83 10 130 3 47 6
111 8 142 4 89 39 113 88 61z m397 -48 c-7 -6 -129 -76 -202 -115 -53 -28 -77
-32 -77 -11 0 5 21 16 46 26 25 10 85 37 133 61 78 39 113 52 100 39z m-172
-226 c43 -23 82 -46 88 -51 13 -12 -61 15 -111 40 -21 10 -52 22 -67 26 -27 7
-29 26 -2 26 8 0 49 -19 92 -41z m-842 -18 c-3 -6 -11 -11 -17 -11 -6 0 -6 6
2 15 14 17 26 13 15 -4z m150 -79 c69 -47 69 -47 -5 -16 -77 33 -130 63 -130
73 0 28 21 19 135 -57z m-204 4 c-11 -17 -26 -43 -33 -56 -7 -14 -31 -52 -52
-85 -22 -33 -75 -118 -119 -190 -43 -71 -81 -132 -83 -134 -2 -2 -11 5 -21 17
-27 31 -152 122 -169 122 -30 0 -12 17 40 39 30 12 80 43 112 68 33 25 75 56
94 68 20 12 80 61 135 108 55 47 103 83 108 80 4 -2 -1 -19 -12 -37z m753
-222 c38 -13 86 -24 105 -24 20 0 68 -8 106 -19 42 -11 122 -21 200 -25 131
-6 181 -9 290 -21 33 -3 80 -8 104 -10 24 -2 46 -6 49 -9 7 -8 -113 -10 -605
-10 -361 -1 -413 1 -413 14 0 22 19 91 32 117 13 26 21 25 132 -13z"/>
<path d="M2793 793 c-10 -15 -32 -43 -51 -62 -32 -33 -58 -71 -48 -71 6 0 86
85 116 122 12 15 16 29 11 33 -6 3 -18 -7 -28 -22z"/>
<path d="M2656 614 c-5 -14 -4 -15 9 -4 17 14 19 20 6 20 -5 0 -12 -7 -15 -16z"/>
<path d="M2350 329 l-35 -31 40 23 c51 28 63 39 45 39 -8 0 -31 -14 -50 -31z"/>
</g>
</svg>
