<?xml version="1.0" standalone="no"?>
<!DOCTYPE svg PUBLIC "-//W3C//DTD SVG 20010904//EN"
 "http://www.w3.org/TR/2001/REC-SVG-20010904/DTD/svg10.dtd">
<svg version="1.0" xmlns="http://www.w3.org/2000/svg"
 width="180.000000pt" height="169.000000pt" viewBox="0 0 180.000000 169.000000"
 preserveAspectRatio="xMidYMid meet">
<metadata>
Created by potrace 1.16, written by Peter Selinger 2001-2019
</metadata>
<g transform="translate(0.000000,169.000000) scale(0.100000,-0.100000)"
fill="#000000" stroke="none">
<path d="M853 1583 c-15 -16 -41 -52 -56 -79 -150 -263 -167 -289 -211 -338
-20 -21 -36 -42 -36 -46 0 -7 -20 -26 -134 -127 -26 -24 -54 -43 -61 -43 -8 0
-19 -9 -25 -20 -13 -24 -153 -120 -174 -120 -18 0 -52 -47 -42 -57 4 -4 16 -2
26 5 17 10 29 8 71 -12 75 -37 143 -89 299 -230 19 -18 55 -46 80 -63 25 -17
56 -41 70 -53 14 -11 42 -36 63 -53 22 -18 46 -41 55 -51 10 -11 34 -35 55
-54 43 -41 45 -53 16 -93 -18 -26 -19 -30 -4 -35 11 -4 26 4 43 23 15 17 50
44 77 61 28 17 60 44 72 59 12 15 41 53 65 83 71 90 98 128 98 137 0 4 13 25
29 45 21 28 31 34 39 26 8 -8 18 -5 38 15 14 14 36 29 48 33 11 4 44 21 71 38
57 36 122 67 178 86 21 6 41 18 43 25 7 17 -24 65 -42 65 -7 0 -29 10 -48 22
-89 58 -124 78 -135 78 -6 0 -13 -12 -17 -27 -7 -36 -25 -68 -109 -196 -38
-58 -87 -133 -108 -166 -64 -102 -166 -225 -172 -207 -3 9 -7 22 -9 30 -3 8 0
16 7 19 7 2 13 30 14 73 2 75 13 149 38 259 21 89 20 86 29 112 8 24 18 78 41
222 8 51 20 111 26 133 l10 40 27 -24 c15 -13 45 -37 67 -53 62 -43 145 -128
145 -147 0 -17 20 -41 70 -85 17 -15 30 -19 39 -13 12 7 9 14 -12 40 -15 17
-36 50 -47 73 -11 23 -38 67 -60 97 -22 30 -40 67 -40 81 0 53 -13 92 -32 96
-20 6 -21 10 -18 108 2 69 27 151 58 187 16 19 9 38 -15 38 -8 0 -52 -19 -98
-41 -46 -23 -117 -49 -157 -59 l-73 -17 -40 34 c-22 19 -54 48 -72 65 l-32 31
-28 -30z m27 -83 c0 -5 6 -10 13 -10 7 0 28 -11 45 -24 l32 -23 -67 -55 c-38
-30 -75 -57 -83 -60 -8 -3 -49 -34 -90 -69 -59 -50 -70 -56 -49 -28 14 18 43
66 64 104 59 109 105 175 121 175 7 0 14 -4 14 -10z m388 -12 c-16 -31 -17
-226 -1 -255 11 -17 10 -22 -3 -27 -21 -8 -34 3 -70 57 -16 23 -38 53 -51 67
-73 82 -83 98 -70 108 6 5 43 19 80 31 38 11 76 25 85 31 31 18 44 13 30 -12z
m-221 -124 c15 -20 45 -54 66 -76 20 -22 37 -43 37 -48 0 -5 -13 -22 -29 -38
-22 -22 -27 -32 -18 -41 8 -8 8 -23 -1 -58 -14 -52 -17 -72 -26 -150 -4 -28
-11 -65 -17 -82 -10 -29 -12 -30 -67 -28 -45 2 -56 6 -54 17 8 36 32 193 43
280 21 177 25 231 17 236 -13 8 -9 24 7 24 8 0 27 -16 42 -36z m-93 -31 c-4
-48 -23 -198 -29 -240 -2 -12 -9 -57 -15 -100 -7 -43 -14 -81 -17 -85 -5 -10
-59 17 -70 35 -8 14 -138 121 -179 148 l-25 16 80 75 c44 41 104 92 133 112
29 20 68 48 87 61 19 14 35 25 37 25 1 0 1 -21 -2 -47z m356 -163 c0 -5 -4
-10 -9 -10 -6 0 -13 5 -16 10 -3 6 1 10 9 10 9 0 16 -4 16 -10z m-639 -172
c45 -35 105 -80 133 -101 l51 -39 -75 4 c-44 2 -76 -1 -78 -7 -2 -5 3 -11 10
-12 7 -1 46 -7 86 -14 l74 -11 -37 -32 c-21 -17 -96 -61 -167 -98 -109 -55
-130 -63 -136 -50 -3 9 2 77 13 152 10 74 18 165 18 203 1 46 4 67 13 67 7 0
49 -28 95 -62z m-165 -65 c-4 -43 -9 -91 -11 -108 -2 -16 -6 -70 -9 -120 -4
-80 -2 -93 16 -115 l20 -24 31 18 c100 59 187 105 222 116 22 7 51 21 64 32
13 10 25 17 27 16 1 -2 -4 -71 -12 -153 -18 -175 -20 -239 -10 -278 13 -52 31
-24 32 49 1 38 5 92 8 119 4 28 11 93 16 145 17 184 21 191 106 182 41 -4 41
-4 33 -35 -27 -102 -50 -227 -60 -334 -10 -108 -10 -125 4 -147 16 -23 15 -25
-16 -48 -54 -41 -56 -41 -85 -11 -60 61 -191 175 -267 234 -92 70 -145 122
-145 142 0 7 -13 26 -30 42 -16 16 -30 34 -30 39 0 6 -11 33 -25 60 -28 56
-31 95 -10 135 16 31 111 121 128 121 6 0 7 -26 3 -77z m-196 -125 c8 -24 24
-57 37 -74 29 -39 30 -53 1 -28 -13 11 -39 28 -60 39 -20 10 -46 26 -59 36
l-22 17 39 25 c21 14 42 26 45 26 3 1 12 -18 19 -41z m1208 -8 c40 -19 72 -37
72 -40 0 -3 -33 -20 -73 -39 -39 -19 -100 -52 -135 -73 -34 -21 -65 -38 -69
-38 -3 0 -15 -8 -26 -17 -16 -14 -14 -8 8 32 42 76 138 216 145 213 4 -2 39
-19 78 -38z"/>
</g>
</svg>
