<?xml version="1.0" standalone="no"?>
<!DOCTYPE svg PUBLIC "-//W3C//DTD SVG 20010904//EN"
 "http://www.w3.org/TR/2001/REC-SVG-20010904/DTD/svg10.dtd">
<svg version="1.0" xmlns="http://www.w3.org/2000/svg"
 width="208.000000pt" height="128.000000pt" viewBox="0 0 208.000000 128.000000"
 preserveAspectRatio="xMidYMid meet">
<metadata>
Created by potrace 1.16, written by Peter Selinger 2001-2019
</metadata>
<g transform="translate(0.000000,128.000000) scale(0.100000,-0.100000)"
fill="#000000" stroke="none">
<path d="M707 1143 c-32 -8 -47 -56 -47 -148 0 -97 -24 -221 -48 -248 -22 -25
-19 -206 3 -223 16 -12 10 -64 -17 -136 l-14 -37 -97 99 c-111 114 -106 96
-79 281 19 129 24 138 154 276 32 34 58 70 58 82 0 34 -23 24 -58 -27 -18 -26
-66 -83 -108 -127 -41 -44 -84 -93 -96 -110 -11 -16 -37 -43 -57 -60 -20 -16
-58 -53 -85 -82 -46 -50 -48 -54 -34 -75 9 -13 48 -39 87 -58 71 -34 72 -35
66 -67 -6 -35 9 -45 32 -22 8 8 21 4 48 -16 20 -16 42 -35 48 -44 7 -9 36 -34
65 -56 38 -29 52 -45 48 -58 -6 -25 25 -107 41 -107 6 0 16 6 20 13 9 13 28
26 88 58 22 12 47 27 55 34 8 8 42 28 75 47 l60 33 232 0 c161 0 235 4 243 11
9 9 -12 13 -87 18 -88 6 -282 20 -418 31 -27 2 -59 4 -70 5 -16 0 -14 4 12 19
17 11 35 26 40 33 18 30 63 49 101 43 52 -8 412 -8 445 0 27 7 27 7 26 -41 0
-27 -4 -82 -8 -122 -6 -64 -5 -75 10 -83 12 -6 20 -5 24 1 4 6 13 70 20 143
17 167 19 175 68 272 38 75 51 97 103 162 l21 27 -8 -55 c-4 -30 -13 -71 -19
-92 -6 -20 -9 -41 -6 -45 5 -9 -14 -137 -34 -230 -14 -61 -6 -120 16 -129 23
-8 27 2 28 64 2 71 36 256 49 264 5 4 7 11 3 17 -15 25 53 129 165 247 59 63
77 94 56 96 -17 2 -15 2 -86 -5 -41 -5 -68 -3 -77 4 -9 9 -28 9 -69 0 -31 -6
-73 -9 -93 -5 -25 4 -48 1 -70 -10 l-32 -16 0 -94 c0 -52 -4 -96 -9 -100 -6
-3 -9 3 -9 12 1 10 -5 38 -13 63 -8 25 -14 86 -14 135 0 88 -1 90 -23 88 -22
-3 -138 -89 -175 -131 -20 -22 -58 -23 -225 -1 -84 10 -193 59 -225 101 -12
15 -32 41 -45 58 -13 16 -27 29 -30 29 -4 -1 -15 -3 -25 -6z m51 -133 c21 -22
46 -40 55 -40 27 0 32 -23 8 -39 -12 -9 -43 -33 -68 -54 -25 -21 -47 -36 -49
-34 -2 2 1 39 7 82 6 44 9 89 6 102 -2 13 -3 23 -1 23 1 0 20 -18 42 -40z
m650 -32 c-3 -35 -1 -70 3 -78 26 -56 38 -90 31 -90 -4 0 -27 18 -52 40 -25
22 -48 40 -52 40 -3 0 -4 8 -1 19 3 12 -2 20 -16 24 -12 3 -21 9 -20 14 0 7
99 92 107 93 2 0 2 -28 0 -62z m223 0 c27 1 54 4 59 7 18 11 10 -9 -20 -50
-16 -22 -51 -73 -77 -112 -26 -40 -52 -73 -56 -73 -5 0 -5 15 -1 33 4 17 6 74
5 125 -2 93 -2 93 20 82 11 -7 43 -12 70 -12z m203 -35 c-47 -64 -116 -143
-124 -143 -4 0 -3 28 2 63 15 107 16 110 43 103 13 -3 27 -2 30 4 3 5 22 10
42 10 l35 0 -28 -37z m-839 -39 c50 -4 127 -8 172 -9 81 -2 82 -2 150 -53 37
-27 89 -60 116 -73 26 -13 47 -29 47 -36 0 -13 -19 -16 -125 -18 -294 -8 -422
-3 -473 16 -15 6 -51 13 -81 15 -54 5 -91 18 -91 32 1 4 20 22 43 40 23 18 61
48 85 67 23 19 48 32 55 30 6 -2 53 -7 102 -11z m-615 -132 c0 -5 -4 -33 -10
-63 -5 -30 -11 -70 -13 -89 -2 -23 -8 -34 -17 -32 -24 6 -100 54 -100 64 0 10
121 128 133 128 4 0 7 -4 7 -8z m400 -72 c22 0 40 -4 40 -9 0 -8 -139 -92
-157 -95 -4 0 -8 10 -9 24 -1 14 -4 43 -8 64 -10 51 6 60 55 35 21 -10 56 -19
79 -19z m686 -62 c-4 -34 -12 -69 -19 -76 -10 -12 -42 -13 -192 -8 -99 4 -211
11 -250 16 -38 5 -104 10 -145 10 -41 1 -84 5 -94 9 -17 7 -15 10 15 28 88 52
111 58 189 52 96 -7 439 7 471 20 13 5 26 10 28 10 2 1 0 -27 -3 -61z m-641
-103 c11 -2 22 -4 24 -4 2 -1 -2 -8 -10 -17 -15 -18 -112 -68 -150 -77 -24 -6
-27 -3 -31 23 -2 16 -1 27 4 24 4 -3 8 8 8 24 0 16 3 32 8 36 6 7 91 2 147 -9z
m-2 -151 c20 -4 37 -9 37 -13 0 -7 -205 -124 -226 -129 -6 -2 -13 7 -16 20
-16 94 68 144 205 122z"/>
</g>
</svg>
