<?xml version="1.0" standalone="no"?>
<!DOCTYPE svg PUBLIC "-//W3C//DTD SVG 20010904//EN"
 "http://www.w3.org/TR/2001/REC-SVG-20010904/DTD/svg10.dtd">
<svg version="1.0" xmlns="http://www.w3.org/2000/svg"
 width="90.000000pt" height="122.000000pt" viewBox="0 0 90.000000 122.000000"
 preserveAspectRatio="xMidYMid meet">
<metadata>
Created by potrace 1.16, written by Peter Selinger 2001-2019
</metadata>
<g transform="translate(0.000000,122.000000) scale(0.100000,-0.100000)"
fill="#000000" stroke="none">
<path d="M503 1063 c-24 -38 -148 -206 -201 -272 -53 -65 -78 -105 -126 -198
-43 -83 -46 -119 -21 -221 15 -61 24 -77 78 -135 79 -84 121 -102 220 -93 66
6 74 10 116 49 88 83 132 127 127 127 -3 0 15 40 41 90 45 89 46 91 47 192 1
74 -4 116 -16 148 -31 85 -101 215 -133 250 -18 19 -36 45 -39 56 -6 20 -32
34 -63 34 -7 0 -20 -12 -30 -27z m47 -57 c0 -6 14 -31 31 -54 36 -49 93 -176
113 -255 15 -58 11 -126 -14 -209 -19 -66 -77 -178 -92 -178 -5 0 -8 -6 -8
-12 0 -7 -22 -32 -48 -55 l-49 -41 -79 18 c-66 15 -84 24 -107 52 -60 71 -79
114 -81 187 -1 62 3 76 46 163 26 52 78 134 115 181 37 48 88 118 112 156 40
64 61 80 61 47z"/>
<path d="M407 742 c-8 -9 -22 -55 -31 -102 -9 -47 -19 -96 -22 -110 -9 -40
-10 -144 0 -158 20 -32 40 18 52 132 2 21 8 55 13 75 5 20 12 59 16 86 3 28 8
57 11 66 7 23 -21 31 -39 11z"/>
<path d="M555 717 c-8 -12 -16 -32 -18 -42 -2 -11 -6 -27 -9 -35 -35 -94 -63
-285 -45 -297 16 -10 37 21 37 55 0 19 9 69 19 111 11 42 25 101 31 131 7 30
19 60 27 67 8 6 12 16 8 22 -11 18 -34 12 -50 -12z"/>
</g>
</svg>
