<?xml version="1.0" standalone="no"?>
<!DOCTYPE svg PUBLIC "-//W3C//DTD SVG 20010904//EN"
 "http://www.w3.org/TR/2001/REC-SVG-20010904/DTD/svg10.dtd">
<svg version="1.0" xmlns="http://www.w3.org/2000/svg"
 width="204.000000pt" height="136.000000pt" viewBox="0 0 204.000000 136.000000"
 preserveAspectRatio="xMidYMid meet">
<metadata>
Created by potrace 1.16, written by Peter Selinger 2001-2019
</metadata>
<g transform="translate(0.000000,136.000000) scale(0.100000,-0.100000)"
fill="#000000" stroke="none">
<path d="M930 1192 c-25 -7 -82 -13 -126 -13 -75 1 -84 -2 -111 -27 -242 -227
-313 -290 -370 -326 -25 -15 -43 -34 -43 -44 0 -10 27 -44 59 -75 33 -31 75
-80 93 -110 63 -103 106 -163 142 -199 35 -35 37 -39 30 -86 -8 -66 6 -73 56
-28 22 20 45 36 50 36 5 0 31 15 57 33 43 30 135 67 168 67 7 0 18 7 25 15 16
19 63 24 292 29 125 2 200 0 207 -7 5 -5 18 -6 28 -2 10 5 22 7 27 6 13 -3 36
20 30 30 -3 5 -14 9 -25 9 -23 0 -25 29 -4 115 8 33 15 88 15 122 0 54 5 69
38 120 21 32 44 71 52 87 23 45 119 148 161 175 22 12 39 29 39 36 0 21 -57
25 -400 30 -173 3 -344 8 -380 13 -46 5 -79 4 -110 -6z m794 -50 c3 -5 -23
-45 -57 -88 -35 -44 -76 -100 -92 -126 -17 -27 -32 -48 -35 -48 -3 0 -6 45 -7
101 0 55 -4 110 -7 123 -5 20 -1 23 47 32 76 14 144 16 151 6z m-257 -14 c-2
-7 -1 -20 3 -28 4 -8 11 -53 15 -99 l7 -84 -114 6 c-198 10 -373 45 -393 77
-8 13 -83 10 -94 -4 -9 -12 -15 -48 -27 -165 -6 -65 -5 -76 11 -87 16 -12 16
-20 6 -93 -15 -98 -7 -122 30 -90 29 25 123 73 163 83 38 9 76 35 76 52 0 8
-4 14 -8 14 -9 0 -159 -63 -201 -85 -36 -18 -37 -17 -20 67 l11 55 42 -14 c32
-12 87 -14 262 -10 121 2 227 7 234 12 13 8 10 -43 -12 -161 l-11 -62 -56 -6
c-81 -10 -466 -8 -493 3 -13 4 -50 12 -83 16 -51 6 -65 13 -97 45 -21 21 -36
44 -33 51 3 8 9 44 14 81 6 41 17 78 30 94 11 14 18 31 15 38 -3 8 2 16 10 19
8 3 39 43 69 89 30 46 77 106 103 134 l49 52 114 1 c63 0 116 3 119 6 3 3 63
5 135 5 99 0 128 -3 124 -12z m-613 -11 c66 3 66 12 -4 -77 -20 -25 -41 -56
-48 -70 -8 -14 -29 -42 -47 -64 l-34 -39 4 44 c2 24 7 83 11 130 l7 87 26 -8
c14 -4 52 -5 85 -3z m-174 -119 c-6 -172 -8 -195 -19 -281 -6 -48 -16 -99 -22
-113 -5 -15 -12 -58 -16 -98 -3 -39 -7 -73 -9 -75 -8 -9 -34 24 -54 70 -12 28
-35 72 -51 99 -38 61 -38 105 2 232 17 55 28 102 25 105 -3 3 27 39 66 79 40
40 74 71 76 69 3 -3 4 -42 2 -87z m332 -78 c28 0 21 -12 -24 -45 -23 -16 -50
-37 -61 -45 -19 -14 -20 -13 -14 10 4 14 7 49 7 78 l0 53 37 -26 c21 -14 46
-25 55 -25z m-520 -37 c-5 -10 -18 -53 -28 -95 -11 -43 -21 -78 -24 -78 -8 0
-63 71 -64 84 -1 12 115 117 122 111 2 -2 -1 -12 -6 -22z m843 2 c77 -2 141
-6 143 -9 1 -3 2 -33 2 -67 0 -46 -3 -58 -12 -52 -7 4 -114 8 -238 8 -165 0
-233 4 -255 13 l-30 14 39 31 c69 57 110 74 163 70 26 -2 111 -6 188 -8z
m-585 -397 c57 -14 63 -15 108 -23 41 -7 50 -25 12 -25 -11 0 -63 -23 -116
-52 l-97 -51 6 74 c4 41 6 82 7 92 0 15 3 16 22 6 13 -7 38 -16 58 -21z"/>
</g>
</svg>
