<?xml version="1.0" standalone="no"?>
<!DOCTYPE svg PUBLIC "-//W3C//DTD SVG 20010904//EN"
 "http://www.w3.org/TR/2001/REC-SVG-20010904/DTD/svg10.dtd">
<svg version="1.0" xmlns="http://www.w3.org/2000/svg"
 width="205.000000pt" height="125.000000pt" viewBox="0 0 205.000000 125.000000"
 preserveAspectRatio="xMidYMid meet">
<metadata>
Created by potrace 1.16, written by Peter Selinger 2001-2019
</metadata>
<g transform="translate(0.000000,125.000000) scale(0.100000,-0.100000)"
fill="#000000" stroke="none">
<path d="M835 1129 c-32 -22 -76 -55 -96 -72 -20 -18 -49 -40 -63 -50 -15 -10
-24 -22 -21 -27 11 -17 -12 -44 -96 -115 -45 -38 -110 -95 -144 -125 -54 -48
-98 -84 -195 -159 -22 -17 -23 -21 -10 -36 8 -9 37 -30 65 -46 27 -16 61 -39
75 -52 30 -27 118 -87 129 -87 4 0 24 -15 45 -34 21 -18 65 -46 97 -61 54 -27
59 -31 59 -62 0 -41 15 -42 60 -2 54 48 112 85 150 97 50 15 218 24 239 12 12
-6 24 -5 35 3 13 10 19 41 28 147 6 81 16 141 24 150 8 10 9 21 3 31 -9 17 11
89 31 114 6 7 17 30 25 51 13 34 14 35 11 9 -3 -16 -8 -91 -11 -165 -7 -143
-21 -299 -31 -323 -5 -14 -88 -59 -131 -72 -30 -8 -29 -21 5 -42 15 -9 41 -32
58 -50 22 -23 41 -33 62 -33 37 0 40 4 62 89 9 36 19 72 21 80 6 21 37 51 53
51 7 0 19 7 27 16 8 9 22 14 37 11 18 -3 26 0 29 14 3 11 13 19 23 19 9 0 30
11 46 25 16 14 32 25 36 25 4 0 22 10 40 23 19 12 73 42 121 67 53 27 86 49
83 57 -3 6 0 13 7 16 20 6 -120 155 -158 167 -18 6 -41 20 -50 30 -10 11 -22
20 -27 20 -5 0 -25 11 -45 25 l-37 24 -3 103 c-2 57 -8 107 -13 112 -4 4 -19
-4 -32 -19 -55 -65 -122 -125 -142 -127 -11 -1 -40 0 -63 1 -23 1 -55 -5 -72
-13 -21 -11 -56 -16 -113 -15 -107 1 -158 12 -236 52 -80 40 -79 55 7 116 59
42 85 71 64 71 -4 0 -35 -19 -68 -41z m622 -192 c-1 -5 -15 1 -31 14 l-27 24
23 24 22 25 8 -39 c5 -21 7 -43 5 -48z m-703 27 c3 -8 37 -30 76 -48 l70 -32
-78 -55 c-42 -29 -80 -55 -83 -57 -4 -2 -6 45 -5 102 1 101 6 125 20 90z m-80
-356 c-2 -172 -7 -314 -9 -316 -6 -7 -55 27 -81 55 -13 14 -53 46 -90 71 -79
55 -82 63 -58 182 24 117 36 141 91 186 26 21 59 48 72 59 14 11 36 32 50 47
14 15 27 27 28 27 1 1 0 -139 -3 -311z m742 267 l44 -45 -26 -47 c-22 -40 -25
-43 -20 -18 3 17 8 40 12 53 5 18 3 21 -10 16 -26 -10 -33 -54 -41 -252 -8
-201 -10 -209 -48 -232 -39 -24 -46 -25 -41 -2 2 14 12 208 14 285 0 9 7 17
15 17 10 0 15 10 15 33 0 28 26 85 70 154 15 23 9 40 -9 28 -6 -3 -29 -39 -51
-78 l-40 -72 4 80 c4 71 7 82 31 102 14 13 29 23 32 23 4 0 26 -20 49 -45z
m-142 13 c-3 -13 -15 -35 -25 -50 -11 -14 -19 -31 -19 -37 0 -6 -4 -11 -10
-11 -5 0 -10 22 -10 48 0 41 4 51 23 60 37 18 49 15 41 -10z m-118 -7 c15 -1
23 -80 10 -88 -26 -17 -155 -20 -218 -6 -38 8 -68 18 -68 21 0 13 59 56 92 66
27 9 120 12 184 7z m361 -101 c-8 -14 -13 -16 -19 -7 -12 19 -18 4 -24 -62 -4
-34 -11 -64 -15 -67 -5 -3 -3 -13 3 -24 9 -14 9 -30 1 -67 -7 -26 -15 -62 -18
-79 -3 -18 -15 -40 -25 -49 -19 -17 -19 -15 -15 93 3 68 11 127 21 154 43 114
62 142 90 131 10 -4 11 -9 1 -23z m86 -29 c64 -33 67 -37 51 -76 -7 -18 -17
-59 -20 -90 -6 -51 -11 -59 -43 -80 -20 -12 -37 -22 -38 -21 -8 7 21 154 37
185 25 50 26 73 1 44 -20 -24 -38 -32 -25 -12 4 7 1 10 -7 7 -13 -4 -19 -45
-18 -133 0 -68 -12 -105 -42 -126 -17 -12 -32 -19 -35 -16 -3 2 4 40 16 83 11
43 20 88 20 101 0 32 29 115 48 136 18 21 10 21 55 -2z m-728 -10 c0 -7 -18
-23 -40 -35 -22 -11 -54 -31 -72 -44 -21 -14 -34 -19 -38 -12 -24 38 56 112
115 107 21 -2 35 -8 35 -16z m289 -43 c-4 -24 -8 -44 -9 -46 -12 -15 -325 -9
-325 7 0 3 28 18 63 32 43 19 89 29 152 34 50 4 92 9 94 11 2 2 10 4 18 4 10
0 12 -10 7 -42z m-760 -73 c-7 -33 -14 -75 -14 -94 0 -27 -3 -31 -14 -22 -7 6
-36 24 -64 39 l-50 28 76 56 c42 32 77 56 78 55 2 -1 -4 -29 -12 -62z m1339
21 c21 -19 35 -36 30 -39 -54 -32 -103 -56 -104 -50 -5 34 17 123 29 123 4 -1
24 -16 45 -34z m-919 -46 c14 0 26 -4 26 -8 0 -15 -50 -52 -70 -52 -13 0 -24
-10 -30 -25 -20 -54 -47 -13 -29 44 14 46 36 64 60 51 10 -6 29 -10 43 -10z
m327 -22 c4 -6 5 -18 2 -27 -3 -14 -24 -16 -154 -18 -82 -1 -149 0 -149 3 0 2
15 11 33 21 59 32 252 47 268 21z m-244 -103 c-2 -5 -25 -21 -53 -35 -27 -14
-65 -35 -85 -47 -50 -31 -60 -30 -49 7 5 17 9 33 9 36 0 3 14 16 31 28 23 16
46 21 91 21 34 0 58 -4 56 -10z m231 6 c1 -1 2 -28 2 -61 l0 -61 -142 6 c-79
3 -151 6 -160 7 -22 3 -24 18 -3 18 16 0 76 28 85 39 3 4 20 19 39 35 33 26
39 28 105 23 39 -3 72 -6 74 -6z m-300 -149 c9 -6 -6 -21 -50 -49 -44 -29 -65
-38 -70 -30 -12 19 -9 33 13 61 15 20 29 26 57 26 20 0 43 -4 50 -8z m442 -39
c-2 -28 -29 -108 -37 -110 -6 -2 -21 10 -33 27 -12 16 -26 28 -31 25 -5 -4 -9
-2 -9 3 0 14 35 42 60 47 12 2 25 7 28 10 8 8 22 6 22 -2z"/>
</g>
</svg>
