<?xml version="1.0" standalone="no"?>
<!DOCTYPE svg PUBLIC "-//W3C//DTD SVG 20010904//EN"
 "http://www.w3.org/TR/2001/REC-SVG-20010904/DTD/svg10.dtd">
<svg version="1.0" xmlns="http://www.w3.org/2000/svg"
 width="306.000000pt" height="158.000000pt" viewBox="0 0 306.000000 158.000000"
 preserveAspectRatio="xMidYMid meet">
<metadata>
Created by potrace 1.16, written by Peter Selinger 2001-2019
</metadata>
<g transform="translate(0.000000,158.000000) scale(0.100000,-0.100000)"
fill="#000000" stroke="none">
<path d="M332 1461 c-9 -5 -11 -59 -10 -212 1 -112 -1 -213 -5 -224 -3 -11 -8
-47 -11 -80 -3 -33 -11 -107 -17 -165 -6 -58 -12 -130 -14 -160 -2 -30 -10
-71 -18 -90 -22 -54 -28 -97 -14 -109 9 -7 40 -6 103 5 183 30 414 47 704 50
162 2 306 5 320 8 14 2 77 7 140 10 63 4 214 14 335 22 207 13 459 14 472 0 4
-3 0 -6 -9 -6 -17 0 -58 -41 -58 -58 0 -7 11 -12 25 -12 20 0 30 -11 54 -59
16 -32 40 -71 53 -87 24 -29 88 -154 88 -170 0 -16 61 -84 76 -84 14 0 54 68
54 94 0 19 72 178 86 191 6 6 25 28 40 50 61 85 100 128 146 157 27 17 48 35
48 39 0 14 -31 26 -114 44 -44 9 -87 21 -95 26 -9 4 -43 12 -76 18 -33 5 -121
21 -195 35 -74 13 -151 27 -170 30 -19 3 -48 8 -65 11 -16 2 -77 13 -135 24
-147 27 -222 39 -316 51 -121 16 -277 57 -291 77 -7 9 -13 11 -13 5 0 -17 -25
-15 -40 3 -16 20 -7 64 51 250 40 129 61 178 86 203 9 10 10 19 3 33 -9 16
-21 19 -83 17 -40 -1 -78 1 -85 6 -7 4 -100 10 -205 12 -299 7 -506 21 -525
37 -15 12 -302 20 -320 8z m218 -70 c0 -4 -32 -51 -70 -106 -85 -121 -86 -123
-72 -146 9 -15 9 -26 -2 -51 -13 -31 -13 -27 -15 72 -1 58 -5 134 -9 170 l-8
66 88 0 c48 1 88 -2 88 -5z m380 -12 c10 -6 2 -9 -25 -9 -199 -5 -245 -8 -278
-19 -21 -7 -40 -11 -42 -9 -3 2 7 16 21 32 l26 27 142 -7 c77 -3 148 -10 156
-15z m35 -44 c-35 -16 -85 -19 -85 -6 0 9 38 16 95 19 14 0 12 -3 -10 -13z
m415 -31 c0 -25 -6 -82 -14 -127 -28 -158 -58 -375 -72 -514 l-7 -73 -62 58
c-34 31 -85 75 -115 97 -29 22 -82 68 -119 103 l-66 63 60 -6 c81 -8 255 -8
288 0 32 8 37 35 6 35 -11 0 -18 4 -14 9 10 18 -12 20 -101 11 -49 -5 -126
-11 -172 -13 l-84 -4 129 124 c70 69 138 131 151 140 12 8 22 19 22 25 0 20
-51 -21 -179 -144 -74 -71 -136 -127 -138 -125 -2 3 3 24 11 48 19 56 38 135
42 176 3 30 22 80 43 113 5 8 12 23 15 32 4 15 26 17 190 18 l186 0 0 -46z
m106 34 c3 -4 -73 -228 -94 -278 -10 -22 -11 -19 -11 25 0 28 6 79 14 115 8
36 14 85 15 109 l0 44 36 -6 c20 -3 38 -8 40 -9z m-667 -8 c14 -1 14 -2 -1
-11 -22 -13 -23 -39 -2 -39 14 0 16 -13 11 -107 -4 -60 -6 -119 -7 -133 0 -21
-6 -16 -30 29 -16 29 -35 60 -41 67 -6 8 -12 41 -13 74 -1 32 -5 62 -9 66 -11
11 -115 -43 -132 -69 -8 -13 -26 -29 -40 -35 -30 -14 -33 -42 -6 -42 11 0 23
-5 26 -10 9 -15 101 -60 122 -60 10 0 43 -23 73 -50 49 -45 55 -57 25 -50 -5
1 -30 4 -55 7 -24 3 -57 11 -72 19 -15 8 -42 14 -60 15 -56 2 -82 14 -97 43
-11 23 -15 26 -25 15 -35 -38 -63 -194 -41 -228 8 -14 38 -14 51 -1 5 5 30 14
54 19 25 6 86 19 135 30 50 12 99 21 109 21 18 0 18 -2 -4 -25 -14 -14 -49
-45 -80 -68 -30 -23 -64 -50 -75 -60 -26 -25 -63 -44 -160 -83 -43 -17 -81
-37 -83 -42 -2 -6 19 -22 45 -36 27 -13 55 -32 62 -40 12 -14 4 -16 -83 -16
-53 0 -96 4 -96 9 0 5 5 22 11 38 6 15 12 62 13 103 2 47 8 87 19 106 9 17 26
79 37 139 19 93 70 240 89 255 3 3 16 27 29 53 18 40 31 52 70 69 51 23 141
38 186 32 16 -2 36 -4 45 -4z m98 -112 c-11 -35 -27 -83 -36 -108 l-16 -45 -5
63 c-3 35 -3 83 -2 108 4 44 4 44 42 44 l37 0 -20 -62z m-233 -24 c3 -8 1 -24
-4 -35 -8 -13 -7 -25 0 -40 16 -29 9 -31 -28 -7 -38 24 -39 30 -10 68 25 34
33 37 42 14z m189 -184 c-3 -12 -8 -19 -11 -16 -5 6 5 36 12 36 2 0 2 -9 -1
-20z m-297 -50 c19 0 51 -7 71 -15 19 -8 45 -15 56 -15 11 0 18 -3 14 -6 -9
-10 -210 -45 -224 -39 -14 5 -17 36 -7 72 5 18 10 20 31 12 13 -5 40 -9 59 -9z
m388 -136 c3 -7 47 -46 98 -87 108 -86 132 -111 126 -129 -3 -7 2 -18 10 -24
11 -8 12 -15 4 -31 -16 -29 -90 -35 -362 -32 -124 2 -246 3 -272 3 -27 1 -48
4 -48 8 0 5 4 8 9 8 5 0 14 15 21 33 6 17 40 63 75 100 36 38 65 72 65 76 0 9
102 93 106 88 2 -2 -3 -41 -11 -88 -19 -106 -19 -153 0 -169 25 -21 48 -4 41
30 -3 17 3 76 14 131 11 55 20 111 20 123 0 12 3 26 6 29 8 8 91 -51 98 -69z
m483 10 c-3 -3 -12 -4 -19 -1 -8 3 -5 6 6 6 11 1 17 -2 13 -5z m248 -49 c133
-10 272 -28 390 -50 72 -14 193 -37 270 -51 77 -14 182 -36 234 -49 52 -13 97
-22 101 -20 3 2 16 -11 28 -30 l23 -33 -90 -184 c-50 -100 -94 -201 -99 -223
l-8 -40 -18 27 c-10 15 -18 38 -17 50 0 13 -1 48 -2 78 -1 30 0 100 1 155 3
95 4 101 30 122 21 17 24 24 15 34 -10 10 -18 10 -35 1 -15 -7 -141 -13 -343
-17 -176 -4 -347 -8 -380 -10 -33 -2 -145 -6 -248 -10 l-188 -6 5 113 c8 173
-6 160 150 153 72 -3 154 -8 181 -10z m-1115 -132 c-30 -32 -55 -60 -56 -62
-2 -2 -18 6 -36 17 l-33 21 33 12 c18 6 57 24 85 39 29 15 54 28 56 29 2 0
-20 -25 -49 -56z m710 -108 c0 -16 -9 -19 -35 -9 -13 5 -14 8 -3 15 20 13 38
11 38 -6z m1523 -17 c-16 -18 -49 -57 -72 -86 -50 -65 -52 -58 -8 28 46 91 45
90 80 90 l31 0 -31 -32z m-358 -126 l0 -108 -25 35 c-54 76 -93 142 -88 146 3
2 95 31 108 34 3 1 5 -48 5 -107z m-2082 81 c-7 -2 -19 -2 -25 0 -7 3 -2 5 12
5 14 0 19 -2 13 -5z"/>
</g>
</svg>
