<?xml version="1.0" standalone="no"?>
<!DOCTYPE svg PUBLIC "-//W3C//DTD SVG 20010904//EN"
 "http://www.w3.org/TR/2001/REC-SVG-20010904/DTD/svg10.dtd">
<svg version="1.0" xmlns="http://www.w3.org/2000/svg"
 width="319.000000pt" height="163.000000pt" viewBox="0 0 319.000000 163.000000"
 preserveAspectRatio="xMidYMid meet">
<metadata>
Created by potrace 1.16, written by Peter Selinger 2001-2019
</metadata>
<g transform="translate(0.000000,163.000000) scale(0.100000,-0.100000)"
fill="#000000" stroke="none">
<path d="M2960 1430 c-30 -5 -81 -8 -113 -9 -32 -1 -67 -6 -78 -12 -14 -7 -24
-7 -33 0 -22 18 -36 -9 -36 -71 0 -32 -3 -58 -7 -59 -5 0 -26 -2 -48 -4 -22
-2 -92 0 -155 5 -180 15 -290 19 -665 25 -192 4 -406 10 -475 15 -69 4 -187 6
-263 3 -77 -3 -256 0 -399 7 -229 11 -262 11 -275 -3 -13 -13 5 -16 163 -23
99 -5 258 -7 354 -6 96 1 301 -2 455 -8 154 -6 413 -13 575 -16 162 -3 347 -8
411 -12 l117 -7 -26 -19 c-14 -11 -22 -15 -19 -9 4 7 -16 13 -56 18 -61 7
-645 7 -847 1 -58 -2 -202 -7 -320 -11 -250 -8 -596 -44 -728 -76 -51 -12 -94
-20 -97 -18 -2 3 -6 49 -7 102 -3 97 -11 115 -37 83 -8 -9 -11 -48 -9 -113 l3
-98 -80 -1 c-44 0 -90 -6 -104 -13 -20 -11 -22 -18 -17 -54 24 -172 32 -375
20 -502 -6 -66 -8 -141 -4 -167 5 -36 3 -51 -8 -62 -22 -22 -6 -36 88 -80 75
-36 95 -56 69 -72 -7 -4 -8 -9 0 -17 16 -16 39 9 75 82 40 82 180 311 248 408
l51 73 17 -38 c9 -20 29 -75 45 -122 15 -47 35 -98 43 -115 23 -44 63 -155 70
-195 6 -31 12 -36 52 -48 25 -7 62 -22 82 -32 48 -26 72 -26 65 -1 -3 13 3 22
20 30 20 9 23 14 13 25 -19 24 -1 84 63 206 62 119 158 280 167 280 3 0 5 -28
5 -61 0 -36 4 -63 11 -66 6 -2 26 5 45 16 37 22 166 59 294 86 44 9 100 22
125 28 28 7 117 12 235 11 319 -1 345 -2 513 -3 92 -1 162 2 162 7 0 18 -174
43 -286 42 -60 -1 -161 3 -224 9 -63 6 -194 11 -290 11 -444 2 -450 2 -510 32
-30 15 -58 24 -62 20 -4 -4 -9 -23 -11 -42 -3 -38 -74 -143 -172 -255 -59 -67
-241 -248 -255 -253 -15 -6 -22 42 -22 155 0 186 3 235 24 325 12 47 18 94 15
103 -6 14 -9 14 -36 1 -16 -9 -50 -18 -76 -20 -45 -5 -95 -28 -95 -44 0 -13
-429 -391 -485 -428 l-28 -18 6 95 c8 100 36 196 97 321 37 77 133 232 177
287 39 47 40 51 11 51 -12 0 -19 3 -16 6 7 6 195 51 218 52 52 2 263 22 269
26 40 25 1284 42 1441 20 84 -11 97 -11 112 3 11 10 48 18 105 22 48 4 89 7
91 6 8 -6 20 -350 21 -592 1 -132 4 -163 15 -163 19 0 32 40 45 140 11 84 55
230 91 301 11 20 37 83 59 140 48 128 127 297 148 321 8 9 13 24 10 33 -7 16
-42 18 -137 5z m80 -36 c0 -4 -13 -34 -29 -68 -33 -69 -70 -153 -162 -374 -35
-84 -65 -147 -66 -140 -1 7 -4 104 -6 216 -3 185 -2 202 14 202 30 0 31 30 2
41 -36 13 -43 25 -43 75 0 37 2 41 23 37 12 -2 56 0 97 5 93 12 170 14 170 6z
m-2610 -343 c-5 -9 -39 -61 -75 -116 -58 -89 -96 -159 -121 -220 -7 -18 -21
97 -35 290 l-4 50 60 5 c33 3 88 6 122 6 55 2 61 0 53 -15z m426 -288 c-9 -27
-18 -102 -21 -167 -3 -66 -7 -121 -9 -123 -3 -4 -17 28 -72 169 -36 93 -37 98
-20 117 13 15 14 20 4 24 -7 2 7 10 32 16 25 7 56 16 70 20 33 9 35 1 16 -56z
m695 -15 c64 0 134 3 155 6 22 3 73 2 114 -3 44 -5 60 -9 40 -10 -19 -2 -44
-5 -55 -8 -11 -2 -42 -8 -70 -13 -27 -4 -70 -13 -95 -19 -25 -5 -58 -12 -75
-15 -16 -3 -55 -13 -85 -21 -107 -31 -98 -34 -102 32 -2 32 -3 61 -1 65 2 4
16 2 31 -3 15 -6 79 -11 143 -11z m-937 -108 c-130 -176 -186 -258 -226 -327
l-42 -72 -30 18 c-17 10 -46 27 -64 37 -17 10 -32 24 -32 30 0 7 27 34 59 61
77 63 206 177 305 270 43 41 80 72 83 69 3 -3 -21 -41 -53 -86z m541 -166
c-49 -75 -91 -155 -110 -211 -12 -34 -26 -59 -31 -54 -5 4 -28 13 -51 20 -24
6 -43 16 -43 22 0 5 37 44 82 87 45 42 100 96 123 119 47 49 54 53 30 17z"/>
</g>
</svg>
