<?xml version="1.0" standalone="no"?>
<!DOCTYPE svg PUBLIC "-//W3C//DTD SVG 20010904//EN"
 "http://www.w3.org/TR/2001/REC-SVG-20010904/DTD/svg10.dtd">
<svg version="1.0" xmlns="http://www.w3.org/2000/svg"
 width="318.000000pt" height="155.000000pt" viewBox="0 0 318.000000 155.000000"
 preserveAspectRatio="xMidYMid meet">
<metadata>
Created by potrace 1.16, written by Peter Selinger 2001-2019
</metadata>
<g transform="translate(0.000000,155.000000) scale(0.100000,-0.100000)"
fill="#000000" stroke="none">
<path d="M1283 1333 c-8 -3 -13 -22 -13 -47 0 -23 -6 -50 -13 -60 -7 -9 -48
-30 -92 -45 -135 -49 -154 -58 -148 -79 3 -13 -7 -26 -35 -44 -35 -24 -216
-118 -225 -118 -3 0 -7 21 -11 48 -4 26 -9 58 -12 72 -3 14 -7 75 -9 135 -2
61 -4 113 -5 117 0 12 -31 -3 -104 -50 -45 -29 -71 -40 -75 -33 -10 15 -367 9
-383 -7 -8 -8 -7 -21 5 -49 15 -35 19 -66 32 -213 3 -30 10 -82 16 -115 14
-79 4 -406 -16 -527 -7 -44 -6 -48 12 -48 11 0 30 12 44 26 29 32 97 67 204
107 72 27 90 30 185 28 58 -1 132 -6 165 -11 175 -26 1000 -13 1330 20 50 5
144 12 210 15 66 4 164 11 219 16 139 13 134 14 144 -23 9 -37 25 -43 30 -13
2 11 15 30 29 41 28 24 24 44 -8 44 -20 0 -21 4 -13 108 7 104 8 122 12 226 2
46 3 48 16 30 14 -19 15 -19 23 1 11 28 75 139 83 145 4 3 19 24 34 48 51 82
98 137 127 150 16 6 29 15 29 20 0 4 -339 7 -753 7 -413 0 -774 3 -802 6 -89
11 -185 41 -196 61 -10 19 -15 20 -36 11z m127 -83 c31 -11 85 -20 125 -21 63
-1 66 -2 30 -9 -69 -14 -158 -41 -197 -61 -56 -29 -59 -26 -57 46 2 76 7 77
99 45z m-740 -105 c-13 -53 -12 -56 14 -93 16 -24 29 -59 33 -90 7 -58 -8 -71
-26 -22 -5 17 -14 30 -19 30 -9 0 -62 98 -62 116 0 6 -16 29 -35 51 -19 23
-35 44 -35 47 0 2 28 21 63 40 l62 36 9 -31 c6 -20 5 -48 -4 -84z m2027 64
l31 -13 4 -115 c2 -64 0 -138 -4 -166 -8 -49 -12 -100 -25 -302 -4 -64 -10
-103 -17 -103 -6 0 -40 -5 -76 -10 -36 -5 -114 -11 -175 -15 -60 -3 -177 -12
-260 -20 -82 -8 -202 -17 -265 -20 -63 -3 -151 -9 -195 -12 -171 -14 -721 -3
-900 17 -44 5 -129 12 -190 15 -150 8 -335 64 -335 101 0 8 -8 22 -18 32 -18
18 -18 19 0 42 10 12 18 31 18 43 0 11 14 57 31 101 17 45 47 122 65 171 38
98 92 195 109 195 12 0 69 -92 79 -127 10 -33 101 -151 142 -184 20 -16 47
-29 59 -29 12 0 30 -9 40 -20 19 -21 65 -28 65 -10 0 6 -5 18 -11 28 -20 32
11 68 251 295 44 42 77 63 112 71 25 6 26 5 33 -54 4 -33 11 -60 16 -60 6 0
21 11 35 25 54 54 180 99 306 109 191 15 247 18 446 20 117 2 216 7 220 11 11
12 373 -2 409 -16z m283 12 c0 -15 -108 -172 -145 -211 -18 -19 -40 -50 -49
-67 -9 -18 -19 -33 -22 -33 -3 0 -2 5 1 11 6 9 6 120 1 259 l-1 35 80 6 c44 3
92 6 108 7 15 1 27 -2 27 -7z m-2520 -36 c0 -2 -15 -28 -34 -57 -54 -86 -67
-116 -123 -278 -30 -85 -51 -139 -48 -119 3 19 -1 73 -9 120 -9 46 -18 122
-22 169 -3 47 -10 100 -14 118 -8 32 -8 32 28 33 67 1 156 9 161 14 6 6 61 6
61 0z m670 -45 c-8 -6 -24 -15 -35 -21 -16 -8 -15 -6 4 10 13 12 28 21 35 21
6 0 4 -5 -4 -10z m-165 -158 c-45 -42 -88 -88 -97 -100 -18 -26 -36 -24 -76 6
l-24 18 99 59 c54 32 112 66 128 76 58 36 49 18 -30 -59z m-660 -482 c3 -5 40
-20 81 -31 66 -20 97 -39 61 -39 -8 0 -58 -23 -111 -51 -54 -28 -100 -49 -102
-46 -2 2 0 25 5 50 4 26 6 58 3 72 -2 14 1 32 8 40 14 17 46 20 55 5z"/>
</g>
</svg>
