<?xml version="1.0" standalone="no"?>
<!DOCTYPE svg PUBLIC "-//W3C//DTD SVG 20010904//EN"
 "http://www.w3.org/TR/2001/REC-SVG-20010904/DTD/svg10.dtd">
<svg version="1.0" xmlns="http://www.w3.org/2000/svg"
 width="264.000000pt" height="141.000000pt" viewBox="0 0 264.000000 141.000000"
 preserveAspectRatio="xMidYMid meet">
<metadata>
Created by potrace 1.16, written by Peter Selinger 2001-2019
</metadata>
<g transform="translate(0.000000,141.000000) scale(0.100000,-0.100000)"
fill="#000000" stroke="none">
<path d="M1043 1281 c1 -29 -4 -49 -20 -68 -12 -16 -46 -60 -75 -99 -105 -139
-103 -137 -124 -124 -10 7 -31 27 -46 44 -26 32 -29 46 -37 224 -1 6 -6 12
-12 12 -11 0 -79 -48 -92 -65 -4 -6 -21 5 -43 28 -26 28 -40 36 -55 32 -10 -4
-20 -11 -20 -16 -3 -20 -6 -26 -34 -74 -15 -27 -48 -74 -73 -103 l-44 -52 -53
56 -53 56 -42 -25 c-68 -40 -114 -127 -67 -127 27 0 81 -34 134 -85 30 -29 79
-72 109 -96 80 -63 144 -121 144 -128 0 -3 -55 -61 -122 -129 -113 -112 -214
-191 -245 -192 -26 0 -11 -16 39 -40 28 -14 50 -29 49 -34 -1 -5 40 -23 91
-41 116 -39 117 -40 167 -96 22 -26 56 -54 76 -63 26 -13 35 -23 35 -41 0 -30
3 -31 39 -4 20 14 27 27 24 43 -3 12 3 50 12 84 8 35 14 66 11 71 -3 4 22 37
55 74 l60 66 67 -66 c77 -76 122 -139 122 -169 0 -36 31 -125 45 -130 8 -3 33
8 57 24 44 30 89 50 336 147 79 31 156 61 170 67 15 6 29 12 32 13 9 2 115 26
155 35 138 30 247 65 256 82 5 10 17 18 25 18 9 0 48 13 88 29 40 16 88 31
107 34 19 3 48 10 64 17 17 6 72 17 124 24 52 6 96 16 98 22 2 5 -18 21 -44
34 -25 14 -74 39 -107 57 -34 17 -77 37 -96 43 -62 21 -91 34 -229 103 -75 38
-158 78 -186 89 -27 11 -91 39 -141 64 -50 24 -95 44 -99 44 -4 0 -98 58 -209
129 -111 70 -220 139 -243 152 -23 13 -59 36 -80 51 -21 15 -53 30 -70 34
l-32 6 2 -41z m170 -97 c59 -30 109 -60 112 -65 4 -5 -31 5 -77 22 -46 17 -98
36 -115 42 -25 8 -33 16 -33 34 0 13 1 23 3 23 2 0 52 -25 110 -56z m-507 -72
c-3 -2 -19 1 -37 8 -25 11 -28 15 -15 22 9 5 13 15 9 25 -4 10 1 21 13 30 18
13 20 11 27 -33 4 -25 6 -49 3 -52z m-136 68 c12 -8 5 -19 -40 -60 -30 -28
-68 -57 -85 -66 l-30 -17 21 24 c12 13 36 48 54 77 31 51 50 61 80 42z m574
-39 c3 -5 18 -12 33 -15 95 -23 297 -115 443 -200 30 -18 75 -38 100 -45 68
-20 175 -67 346 -153 85 -43 159 -78 165 -78 18 0 242 -100 257 -114 10 -10
-6 -16 -85 -29 -93 -15 -172 -36 -218 -57 -11 -6 -45 -16 -75 -24 -30 -8 -109
-30 -176 -50 -66 -20 -142 -39 -167 -42 -26 -4 -50 -11 -53 -15 -3 -5 -20 -9
-38 -9 l-33 0 17 90 c9 49 15 92 12 95 -3 3 2 5 10 5 9 0 21 7 28 15 11 13 26
15 83 9 86 -9 90 12 6 34 -30 9 -55 16 -57 18 -7 5 72 151 95 176 33 34 25 58
-19 58 -18 0 -63 3 -99 6 l-66 7 0 -27 c0 -46 -15 -51 -144 -52 -67 -1 -125
-6 -131 -12 -13 -13 47 -141 70 -149 10 -4 21 2 31 18 25 38 62 69 113 95 26
13 51 24 55 24 4 0 9 -35 10 -77 l1 -76 -82 6 c-45 3 -87 3 -92 -1 -6 -4 -29
-35 -53 -69 -23 -35 -46 -63 -51 -63 -6 0 -10 -7 -10 -16 0 -12 7 -14 30 -9
17 4 36 2 43 -3 7 -6 46 -20 87 -32 89 -27 110 -41 90 -65 -8 -10 -22 -14 -36
-11 -19 5 -49 1 -143 -18 -13 -3 -38 -10 -55 -15 -17 -6 -53 -13 -81 -16 -27
-4 -92 -16 -144 -27 -85 -19 -94 -20 -103 -5 -4 9 -14 14 -21 11 -14 -5 -167
146 -167 164 0 6 -7 17 -15 25 -10 11 -13 25 -9 46 6 26 11 31 37 31 27 0 29
-2 24 -30 -8 -39 10 -49 25 -13 7 15 13 30 14 31 1 2 12 1 23 -3 17 -5 21 -15
21 -46 0 -21 4 -39 9 -39 11 0 21 25 21 50 0 20 21 32 39 21 6 -4 10 -22 9
-39 -4 -40 14 -43 27 -3 13 42 52 44 57 4 4 -34 33 -39 32 -5 -1 20 4 22 47
22 63 0 73 18 12 22 -47 3 -48 4 -51 39 -3 33 -1 37 27 42 37 8 41 27 7 27
-13 0 -26 5 -28 12 -8 22 4 68 18 68 19 0 18 19 -1 26 -19 8 -20 54 -1 54 24
0 30 22 11 36 -12 9 -16 21 -13 39 8 40 -10 40 -29 1 -11 -23 -24 -36 -36 -36
-18 0 -19 5 -14 45 4 25 3 45 -2 45 -9 0 -31 -45 -31 -65 0 -10 -9 -14 -25
-13 -22 2 -25 7 -25 41 0 49 -23 46 -30 -4 -4 -28 -9 -34 -30 -34 -21 0 -25 5
-25 28 1 32 -18 31 -23 -1 -3 -18 -10 -22 -38 -22 -30 0 -34 3 -34 25 0 30
-20 33 -27 5 -6 -21 -31 -25 -67 -11 -17 7 -13 15 43 72 35 35 70 75 79 89 21
31 41 56 67 84 11 11 29 34 39 50 l19 29 14 -27 c17 -33 37 -29 41 7 3 22 8
27 32 27 16 0 31 -4 34 -9z m-512 -62 c31 -12 74 -41 103 -68 28 -27 58 -53
67 -58 15 -7 0 -26 -97 -123 -63 -63 -117 -111 -121 -107 -8 7 68 161 93 189
9 10 13 25 9 34 -5 14 -15 16 -53 10 -25 -3 -62 -6 -82 -6 -20 0 -43 -5 -51
-10 -13 -8 -13 -11 3 -22 12 -9 19 -32 23 -73 3 -33 7 -66 9 -72 9 -27 -5 -10
-62 80 -33 50 -63 105 -67 121 -6 26 -5 28 17 22 19 -4 33 5 77 49 30 30 60
55 67 55 7 0 36 -9 65 -21z m-362 -30 c0 -4 11 -20 25 -35 26 -28 32 -58 15
-69 -10 -6 -110 53 -110 65 0 18 42 59 55 53 8 -3 15 -9 15 -14z m92 -136 c8
-10 25 -36 37 -58 l23 -39 -46 44 c-43 41 -58 70 -38 70 5 0 16 -8 24 -17z
m254 -5 c5 -6 -38 -98 -46 -98 -4 0 -7 15 -7 33 0 17 -4 42 -8 55 -7 22 -6 23
25 19 17 -3 34 -7 36 -9z m177 -133 c34 -6 38 -9 35 -33 -3 -26 -6 -27 -71
-32 -37 -3 -67 -9 -67 -15 0 -5 28 -12 62 -15 58 -5 63 -7 66 -30 3 -24 0 -26
-63 -36 -61 -9 -67 -8 -95 14 -56 44 -56 55 3 111 35 34 58 49 72 46 11 -2 37
-7 58 -10z m125 -14 c8 -4 12 -19 10 -32 -2 -19 -10 -25 -35 -27 -27 -3 -33 0
-33 17 0 46 24 64 58 42z m859 -33 c-12 -24 -31 -67 -43 -97 -33 -89 -53 -77
-49 31 2 69 31 108 82 108 l33 0 -23 -42z m-767 3 c0 -34 -12 -45 -40 -36 -36
12 -18 65 22 65 13 0 18 -8 18 -29z m80 -10 c0 -33 -11 -44 -34 -35 -10 4 -16
18 -16 35 0 24 4 29 25 29 21 0 25 -5 25 -29z m76 3 c-3 -9 -6 -22 -6 -30 0
-8 -9 -14 -20 -14 -14 0 -20 7 -20 23 0 29 7 37 33 37 13 0 17 -5 13 -16z
m364 -21 c0 -10 -70 -66 -76 -61 -2 3 -7 19 -10 36 l-6 32 46 0 c25 0 46 -3
46 -7z m-610 -42 c0 -24 -14 -41 -35 -41 -28 0 -38 12 -29 34 7 17 64 23 64 7z
m80 -22 c0 -14 -7 -19 -30 -19 -22 0 -30 5 -30 18 0 26 6 30 35 24 16 -3 25
-11 25 -23z m160 -9 c0 -25 -4 -30 -25 -30 -20 0 -25 5 -25 23 0 28 7 37 32
37 13 0 18 -8 18 -30z m-82 3 c-2 -10 -12 -18 -23 -18 -11 0 -21 8 -23 18 -3
13 3 17 23 17 20 0 26 -4 23 -17z m-537 -89 c-13 -50 -2 -113 23 -133 20 -17
25 -3 25 70 0 35 4 79 8 97 l8 32 44 -42 c24 -24 61 -67 83 -95 35 -48 48 -58
71 -54 23 3 -18 -45 -156 -186 l-81 -83 -53 56 c-50 54 -53 59 -53 109 0 58
-19 79 -42 46 -17 -23 -97 -76 -104 -68 -4 3 15 39 41 79 27 39 53 87 58 105
6 19 36 58 71 91 67 63 78 59 57 -24z m277 18 c3 -30 2 -32 -30 -32 -27 0 -37
6 -51 29 -17 29 -17 30 5 34 57 9 73 3 76 -31z m90 1 c-2 -22 -8 -28 -28 -28
-20 0 -26 6 -28 28 -3 24 0 27 28 27 28 0 31 -3 28 -27z m86 18 c3 -5 3 -22 0
-39 -5 -26 -9 -29 -30 -23 -13 3 -24 9 -24 14 -1 53 0 57 24 57 14 0 27 -4 30
-9z m60 3 c11 -4 16 -19 16 -45 0 -32 -4 -39 -19 -39 -11 0 -23 4 -26 10 -6 9
3 80 10 80 2 0 10 -3 19 -6z m104 -57 c3 -37 2 -38 -25 -35 -25 3 -28 8 -31
41 -3 37 -2 38 25 35 25 -3 28 -8 31 -41z m471 4 c11 -7 13 -25 9 -76 -3 -36
-8 -68 -10 -70 -2 -3 -19 1 -36 7 -35 13 -62 65 -62 118 0 29 2 30 43 30 23 0
48 -4 56 -9z m-134 -62 c4 -22 5 -42 2 -45 -3 -4 -48 11 -65 22 -2 1 7 18 20
37 12 20 26 33 29 31 4 -2 10 -22 14 -45z m-675 21 c0 -11 -2 -20 -3 -20 -2 0
-12 9 -22 20 -18 19 -17 20 3 20 15 0 22 -6 22 -20z m-457 -52 c-5 -7 -24 -37
-42 -66 -35 -54 -55 -62 -75 -30 -8 14 -6 22 11 38 12 11 25 20 28 20 3 0 23
11 43 25 42 28 46 30 35 13z m59 -158 c3 -17 0 -30 -6 -30 -32 0 -86 14 -86
21 0 10 72 49 81 43 4 -2 9 -17 11 -34z m1157 -14 c-2 -2 -42 -17 -89 -34
-148 -52 -324 -123 -351 -143 -42 -29 -56 -24 -64 22 -4 24 -3 45 3 51 10 10
59 22 217 53 39 8 111 23 160 34 90 19 132 25 124 17z m-911 -103 c-14 -52
-15 -54 -44 -41 l-25 12 38 33 c21 18 39 32 40 33 1 0 -3 -17 -9 -37z"/>
</g>
</svg>
