<?xml version="1.0" standalone="no"?>
<!DOCTYPE svg PUBLIC "-//W3C//DTD SVG 20010904//EN"
 "http://www.w3.org/TR/2001/REC-SVG-20010904/DTD/svg10.dtd">
<svg version="1.0" xmlns="http://www.w3.org/2000/svg"
 width="236.000000pt" height="141.000000pt" viewBox="0 0 236.000000 141.000000"
 preserveAspectRatio="xMidYMid meet">
<metadata>
Created by potrace 1.16, written by Peter Selinger 2001-2019
</metadata>
<g transform="translate(0.000000,141.000000) scale(0.100000,-0.100000)"
fill="#000000" stroke="none">
<path d="M2000 1344 c-48 -10 -450 -19 -471 -10 -27 12 -39 -18 -39 -95 0
-127 6 -137 63 -107 57 31 77 39 76 30 -2 -15 14 -52 22 -52 5 0 8 -3 7 -7 -1
-5 13 -39 32 -78 19 -38 33 -74 32 -79 -2 -4 2 -14 7 -20 6 -7 12 -28 15 -48
2 -20 9 -45 15 -56 6 -11 8 -22 5 -25 -8 -8 -144 2 -174 13 -25 9 -250 22
-412 24 -47 1 -83 3 -79 6 11 8 33 63 38 95 3 17 9 32 14 33 5 2 7 8 3 13 -8
14 45 175 68 204 11 14 18 30 16 35 -2 6 -49 12 -108 14 -58 2 -130 7 -160 10
-46 6 -59 4 -80 -13 -24 -19 -24 -20 -5 -41 15 -16 19 -39 22 -113 1 -51 7
-114 12 -142 5 -27 6 -56 2 -65 -3 -8 -5 -26 -4 -40 9 -90 10 -187 1 -197 -6
-7 -8 -20 -4 -28 3 -9 6 -73 7 -142 0 -69 4 -136 8 -147 4 -12 5 -32 2 -45 -6
-22 -7 -22 -21 -7 -12 15 -12 19 1 28 11 8 11 9 -3 4 -10 -3 -18 -2 -18 2 0
12 -103 145 -190 246 -105 122 -159 198 -152 215 3 9 1 12 -7 7 -12 -8 -32 13
-78 81 l-22 33 22 42 c34 67 106 128 206 178 50 25 91 50 91 57 0 7 -17 15
-37 19 -21 4 -57 15 -80 25 -43 19 -78 16 -69 -6 2 -7 -2 -22 -10 -34 -8 -11
-13 -21 -9 -21 3 0 -6 -18 -20 -40 -14 -22 -25 -44 -25 -48 0 -5 -13 -27 -29
-49 -23 -32 -35 -40 -53 -36 -19 3 -30 -6 -58 -48 -42 -62 -225 -219 -302
-258 -32 -16 -38 -35 -8 -26 13 4 46 -9 99 -40 45 -26 83 -50 86 -55 3 -5 21
-14 39 -20 19 -6 70 -31 113 -56 43 -24 96 -49 118 -55 21 -6 57 -23 80 -39
50 -34 108 -64 159 -80 21 -7 77 -39 125 -71 81 -55 121 -71 121 -50 0 5 -7
14 -16 21 -31 27 -36 49 -16 75 17 21 29 66 46 175 12 75 18 107 26 130 4 14
13 44 20 66 l12 41 92 17 c50 10 105 19 121 21 307 38 475 53 475 43 0 -3 -11
-18 -24 -33 -14 -16 -23 -33 -20 -37 3 -5 1 -7 -4 -6 -6 2 -10 -1 -10 -7 0 -5
5 -9 11 -7 6 2 5 -4 -3 -12 -14 -18 -25 -22 -15 -6 3 6 2 10 -3 10 -15 0 -93
-88 -232 -264 -30 -38 -65 -72 -86 -84 -28 -16 -7 -30 35 -25 21 3 41 1 44 -4
4 -6 -40 -9 -106 -9 -112 1 -112 1 -109 24 5 36 -30 24 -40 -13 -8 -33 -11
-158 -4 -190 2 -11 5 -23 5 -27 2 -14 22 -8 54 16 18 13 73 35 122 49 50 14
122 36 160 47 39 12 113 26 165 31 156 15 194 21 215 32 21 12 26 13 95 22 86
11 110 17 104 27 -6 9 -90 5 -160 -8 -35 -6 -39 13 -10 54 13 20 39 74 55 119
17 46 37 93 45 105 8 13 20 43 27 68 6 25 24 61 39 80 42 55 42 58 20 88 -12
17 -28 62 -35 103 -19 101 -44 211 -51 229 -19 43 -26 119 -14 155 8 25 18 35
37 37 15 2 28 9 31 16 3 11 -57 16 -98 6z m25 -41 c-29 -69 -28 -98 6 -212 11
-35 17 -66 15 -68 -3 -3 -9 12 -15 33 -6 20 -23 53 -39 73 -28 36 -89 158 -81
165 3 3 86 21 113 25 4 0 5 -7 1 -16z m-230 -23 c-38 -10 -111 -40 -162 -68
l-92 -50 -7 54 c-10 85 -17 82 168 82 l163 -1 -70 -17z m130 -77 c22 -43 46
-89 54 -102 18 -29 47 -105 67 -179 8 -30 25 -78 39 -107 l26 -53 -46 -66
c-25 -36 -45 -72 -45 -79 0 -6 -18 -34 -41 -62 -22 -27 -58 -76 -80 -107 -22
-32 -57 -77 -79 -100 -41 -42 -51 -64 -25 -55 8 4 17 2 20 -3 7 -11 7 -11
-144 -15 -58 -2 -110 -1 -118 2 -16 6 -8 45 17 88 10 17 29 51 43 76 13 25 29
54 35 65 6 10 39 70 73 132 34 62 72 120 86 129 24 16 24 16 5 37 -20 22 -52
106 -52 136 0 9 -7 31 -16 49 -14 28 -14 37 1 104 9 39 23 82 31 94 17 26 17
33 4 33 -14 0 -39 -53 -53 -117 l-13 -56 -26 49 c-44 84 -43 87 4 115 33 18
146 59 189 68 3 0 23 -34 44 -76z m-725 -6 c0 -2 -8 -19 -17 -38 -10 -19 -18
-41 -19 -49 0 -8 -3 -22 -7 -30 -10 -26 -65 -212 -82 -280 -18 -71 -37 -135
-66 -220 -10 -30 -19 -77 -20 -103 -2 -31 -8 -51 -18 -57 -10 -6 -11 -10 -3
-10 9 0 11 -15 7 -57 -9 -94 -21 -90 -24 9 -5 155 -4 528 2 534 3 3 0 29 -7
57 -7 29 -12 93 -11 142 l0 90 113 2 c63 1 117 4 120 7 6 6 32 8 32 3z m-526
-48 c5 -5 8 -10 5 -12 -20 -16 -139 -86 -139 -82 0 10 35 81 49 98 11 13 23
16 45 11 17 -3 35 -10 40 -15z m-245 -298 c17 -21 31 -43 31 -48 0 -6 9 -18
20 -28 11 -10 41 -50 67 -89 25 -39 52 -75 59 -79 7 -4 35 -36 61 -70 26 -34
58 -73 71 -87 13 -14 28 -35 33 -47 4 -13 16 -23 24 -23 9 0 14 -4 11 -9 -4
-5 -3 -11 1 -13 5 -1 21 -23 38 -48 16 -25 34 -51 39 -59 6 -7 -13 1 -42 19
-28 17 -75 40 -102 50 -28 10 -74 34 -103 53 -29 19 -78 44 -110 56 -59 21
-269 132 -297 156 -8 7 -39 25 -67 39 -46 23 -69 46 -45 46 15 0 203 148 234
184 17 20 34 36 38 36 5 0 22 -18 39 -39z m891 -48 c96 -3 177 -10 178 -14 2
-5 22 -9 45 -9 68 0 36 -9 -54 -15 -83 -6 -197 -23 -333 -52 -38 -7 -71 -11
-74 -8 -3 3 2 30 12 61 14 45 21 54 34 49 9 -4 96 -9 192 -12z m340 -230 c-52
-100 -84 -157 -107 -190 -13 -17 -23 -35 -23 -40 0 -5 -6 -18 -14 -28 -11 -15
-17 -17 -27 -8 -8 6 -25 13 -38 15 -23 3 -22 5 26 58 27 30 69 82 93 115 38
54 109 135 117 135 2 0 -10 -26 -27 -57z m345 -52 c-14 -27 -25 -54 -25 -60 0
-6 -11 -29 -25 -51 -14 -22 -25 -43 -25 -47 -1 -5 -11 -20 -23 -35 -16 -20
-28 -26 -45 -22 -12 4 -22 10 -22 14 0 4 18 30 41 56 22 27 49 65 59 84 10 19
30 46 44 59 14 14 26 30 26 38 0 7 4 13 10 13 5 0 -2 -22 -15 -49z m-126 -266
c-8 -7 -79 -16 -169 -20 -47 -3 -94 -7 -105 -9 -48 -11 -343 -100 -366 -110
-15 -6 -16 0 -13 46 1 29 3 61 3 70 1 16 18 17 214 14 116 -1 241 0 277 3 99
9 164 12 159 6z"/>
<path d="M1390 436 c0 -2 8 -10 18 -17 15 -13 16 -12 3 4 -13 16 -21 21 -21
13z"/>
</g>
</svg>
