<?xml version="1.0" standalone="no"?>
<!DOCTYPE svg PUBLIC "-//W3C//DTD SVG 20010904//EN"
 "http://www.w3.org/TR/2001/REC-SVG-20010904/DTD/svg10.dtd">
<svg version="1.0" xmlns="http://www.w3.org/2000/svg"
 width="146.000000pt" height="124.000000pt" viewBox="0 0 146.000000 124.000000"
 preserveAspectRatio="xMidYMid meet">
<metadata>
Created by potrace 1.16, written by Peter Selinger 2001-2019
</metadata>
<g transform="translate(0.000000,124.000000) scale(0.100000,-0.100000)"
fill="#000000" stroke="none">
<path d="M995 1100 c-9 -15 -94 -56 -133 -65 -18 -4 -38 -2 -45 3 -15 12 -87
24 -152 26 -46 1 -50 -1 -48 -22 3 -28 -27 -90 -66 -134 -15 -18 -52 -69 -81
-112 -52 -77 -55 -80 -142 -120 -62 -28 -88 -45 -86 -55 2 -9 37 -40 78 -69
41 -29 116 -92 166 -140 51 -48 119 -113 153 -144 34 -32 61 -62 61 -66 0 -16
50 -63 60 -57 10 6 47 73 49 88 1 10 19 33 59 73 17 18 32 42 32 54 0 11 8 24
19 28 20 8 75 52 152 124 28 26 59 50 69 53 9 3 25 14 35 25 15 16 15 22 5 35
-7 8 -25 15 -40 15 -29 0 -49 19 -69 65 -7 17 -30 60 -52 97 -40 66 -40 67
-30 123 17 92 31 134 47 143 20 11 8 42 -16 42 -11 0 -22 -5 -25 -10z m-291
-89 c6 -8 -28 -48 -78 -91 -29 -25 -28 -17 6 32 10 14 18 33 18 41 0 22 43 37
54 18z m238 -47 l-8 -39 -17 32 c-22 42 -21 51 6 55 28 4 29 0 19 -48z m-92
-27 c11 -23 18 -43 16 -44 -1 -2 -52 -5 -112 -8 l-109 -5 58 53 c51 47 61 53
93 49 31 -4 39 -10 54 -45z m-273 -121 c1 -20 -3 -30 -17 -33 -25 -7 -41 -59
-32 -103 6 -27 4 -38 -10 -52 -10 -10 -19 -30 -19 -45 -5 -100 -7 -102 -39
-68 -19 21 -21 25 -7 25 9 0 17 2 17 4 0 2 7 43 15 90 9 48 13 91 10 96 -7 12
57 121 70 117 5 -2 11 -16 12 -31z m93 25 c0 -5 -9 -19 -20 -32 l-19 -24 -1
33 c0 25 4 32 20 32 11 0 20 -4 20 -9z m258 -15 c6 -14 26 -42 45 -63 42 -47
59 -77 51 -96 -7 -19 -265 -33 -294 -15 -15 10 -27 10 -53 0 -18 -7 -44 -12
-57 -12 l-23 0 22 24 c39 41 83 56 168 57 87 1 125 9 130 26 3 9 -29 13 -121
15 l-125 3 32 37 c28 33 38 37 87 41 129 8 126 9 138 -17z m-323 -116 c-3 -5
-10 -10 -16 -10 -5 0 -9 5 -9 10 0 6 7 10 16 10 8 0 12 -4 9 -10z m-175 -82
c0 -24 -5 -50 -10 -58 -8 -12 -12 -11 -32 7 -13 12 -36 29 -52 37 -27 14 -28
16 -10 21 10 4 33 13 49 20 49 22 55 19 55 -27z m178 -18 c14 0 -35 -68 -50
-69 -10 -1 -21 57 -13 70 4 6 17 8 29 5 11 -3 27 -6 34 -6z m361 -52 c-15 -29
-39 -65 -51 -80 -25 -30 -21 -30 -207 -28 -61 0 -109 -4 -115 -10 -8 -8 -4
-12 12 -16 27 -8 28 -16 2 -32 -19 -11 -22 -9 -35 20 -12 30 -12 34 3 47 41
32 77 39 199 36 89 -2 127 1 140 10 10 7 16 15 13 18 -3 3 -75 7 -160 10 -85
3 -157 6 -159 6 -3 1 8 14 23 30 33 35 36 35 223 39 l141 2 -29 -52z m114 46
c11 -4 1 -18 -36 -54 -28 -27 -53 -48 -55 -46 -5 6 33 81 48 93 17 14 23 15
43 7z m-223 -213 c-14 -28 -24 -32 -83 -38 -29 -3 -71 -8 -94 -13 -32 -5 -43
-4 -43 5 0 32 84 63 173 64 54 1 57 0 47 -18z m-60 -85 c0 -11 -43 -76 -50
-76 -4 0 -11 7 -14 16 -3 9 -13 14 -21 10 -8 -3 -21 4 -30 17 -14 20 -14 22 2
29 20 7 113 11 113 4z"/>
</g>
</svg>
