<?xml version="1.0" standalone="no"?>
<!DOCTYPE svg PUBLIC "-//W3C//DTD SVG 20010904//EN"
 "http://www.w3.org/TR/2001/REC-SVG-20010904/DTD/svg10.dtd">
<svg version="1.0" xmlns="http://www.w3.org/2000/svg"
 width="258.000000pt" height="115.000000pt" viewBox="0 0 258.000000 115.000000"
 preserveAspectRatio="xMidYMid meet">
<metadata>
Created by potrace 1.16, written by Peter Selinger 2001-2019
</metadata>
<g transform="translate(0.000000,115.000000) scale(0.100000,-0.100000)"
fill="#000000" stroke="none">
<path d="M1933 1069 c-25 -9 -30 -28 -11 -47 16 -16 1 -31 -105 -113 -49 -38
-112 -77 -145 -89 -31 -11 -71 -27 -89 -35 -19 -9 -62 -15 -112 -15 l-82 0 7
58 c3 31 7 61 8 67 0 5 -6 10 -14 10 -15 0 -34 -83 -26 -117 4 -19 -16 -30
-40 -21 -10 4 -14 13 -10 27 13 56 17 114 8 120 -14 8 -31 -16 -36 -50 -12
-92 -17 -104 -47 -104 -28 0 -29 2 -29 48 1 26 7 64 14 85 8 20 10 37 5 37
-18 0 -39 -47 -45 -103 -7 -59 -24 -81 -46 -59 -11 11 -6 45 17 120 6 16 3 22
-8 22 -18 0 -37 -56 -37 -107 0 -30 -3 -33 -31 -33 l-31 0 2 78 c3 98 2 98
-12 84 -7 -7 -15 -45 -18 -85 l-5 -72 -51 0 c-40 1 -59 7 -87 28 -20 15 -46
31 -59 36 -13 5 -60 41 -106 81 -65 57 -80 75 -71 86 6 7 8 18 4 23 -8 15
-217 4 -258 -12 l-32 -13 0 -105 0 -104 -113 -1 c-62 -1 -115 -4 -119 -7 -13
-14 53 -27 132 -27 49 0 87 -4 90 -11 4 -6 4 -31 0 -55 l-6 -45 -89 3 c-83 2
-112 -3 -97 -18 3 -4 47 -9 97 -12 l90 -5 0 -32 c0 -33 0 -33 -63 -39 -72 -8
-92 -18 -84 -40 7 -18 27 -22 27 -6 0 6 25 10 55 10 53 0 55 -1 55 -27 0 -47
-11 -55 -66 -48 -47 6 -104 -6 -104 -22 0 -5 21 -7 47 -6 26 0 62 -1 80 -4 31
-5 33 -8 33 -48 l0 -42 -46 -7 c-26 -3 -64 -6 -85 -6 -21 0 -40 -4 -44 -10 -3
-5 29 -10 81 -12 l87 -3 4 -50 c5 -58 19 -72 73 -73 29 -1 51 8 92 37 98 70
108 73 221 66 255 -15 247 -13 247 -46 0 -17 -5 -50 -11 -75 -9 -34 -9 -48 0
-57 19 -19 46 6 47 44 1 19 2 53 3 77 1 39 3 42 30 42 l29 0 -15 -50 c-12 -40
-12 -54 -3 -65 25 -30 67 -7 49 26 -16 30 3 83 30 87 21 3 23 1 18 -35 -3 -21
-10 -53 -15 -70 -8 -26 -7 -36 4 -48 19 -19 29 -19 48 1 15 14 16 14 16 -6 0
-24 26 -38 42 -22 6 6 12 37 13 69 3 68 18 113 40 113 10 0 15 -10 15 -34 0
-19 -4 -37 -9 -40 -12 -8 -23 -70 -15 -90 5 -13 42 -24 45 -13 0 1 6 40 12 87
l12 85 230 2 c180 2 239 -1 270 -12 45 -16 69 -49 79 -107 8 -44 10 -45 64
-54 51 -8 55 6 12 43 -26 21 -30 32 -30 74 l0 49 93 1 c50 1 117 4 147 7 48 6
179 1 235 -9 31 -6 26 33 -5 42 -14 3 -123 4 -242 2 l-218 -6 0 37 c0 21 5 38
13 41 6 2 100 7 207 10 107 4 213 8 234 9 24 0 43 7 50 18 17 27 1 32 -61 19
-32 -6 -145 -15 -250 -18 l-193 -6 0 41 c0 30 4 41 16 44 25 5 457 -6 472 -12
8 -3 19 3 25 13 19 29 -26 61 -73 52 -19 -3 -123 -8 -231 -11 -218 -5 -212 -7
-199 61 l5 30 214 2 c143 1 219 -1 228 -9 16 -13 45 8 41 30 -3 12 -41 14
-235 16 -127 0 -235 4 -239 8 -4 4 1 27 10 52 20 53 16 52 249 66 129 8 172 7
187 -2 22 -14 36 -5 42 27 2 16 -2 20 -22 19 -14 -1 -104 -5 -200 -8 -96 -4
-183 -9 -192 -12 -27 -8 -22 14 22 109 22 47 40 90 40 95 0 6 12 19 28 30 40
31 18 44 -80 48 -46 2 -92 6 -103 8 -11 2 -30 0 -42 -5z m146 -68 c11 -7 12
-13 4 -23 -6 -7 -28 -55 -48 -105 -20 -51 -41 -93 -45 -93 -12 0 -21 60 -11
77 4 9 6 46 3 84 l-5 69 44 0 c24 0 50 -4 58 -9z m-1554 -48 c-14 -21 -40 -66
-57 -100 -24 -47 -38 -63 -53 -63 -22 0 -23 13 -16 172 1 17 20 21 119 26 l32
2 -25 -37z m140 -59 l70 -65 -85 5 c-47 4 -95 9 -107 12 -14 4 -23 2 -23 -5 0
-6 6 -13 13 -15 6 -2 28 -9 47 -16 19 -7 69 -16 110 -20 65 -6 56 -7 -67 -8
-79 -1 -143 0 -143 3 0 25 90 175 105 175 6 0 42 -30 80 -66z m1275 -34 c0
-69 -2 -80 -17 -80 -10 0 -73 -1 -140 -3 -66 -1 -116 1 -110 5 7 4 20 8 30 8
19 0 100 52 177 114 25 20 48 36 53 36 4 0 7 -36 7 -80z m-1531 -127 c0 -10
-7 -34 -15 -53 l-14 -35 5 40 c3 22 5 46 5 53 0 6 5 12 10 12 6 0 10 -8 9 -17z
m525 -13 c6 -6 17 -10 25 -10 26 -1 52 -26 45 -43 -5 -14 -32 -16 -192 -17
-103 0 -200 -2 -217 -5 -16 -3 -60 -2 -97 1 l-66 6 15 44 15 44 231 -6 c128
-3 236 -9 241 -14z m492 5 c-23 -17 -36 -19 -36 -6 0 5 10 12 23 14 12 2 24 5
27 5 3 1 -4 -5 -14 -13z m508 -37 c1 -46 1 -46 -34 -51 -19 -2 -143 -4 -275
-3 -231 1 -240 2 -240 20 0 16 19 27 90 52 l90 33 184 -2 184 -2 1 -47z m-754
27 c0 -9 -9 -15 -25 -15 -26 0 -34 15 -12 23 23 10 37 7 37 -8z m78 -2 c-2
-12 -11 -17 -23 -15 -25 5 -29 8 -20 21 11 19 47 13 43 -6z m102 2 c0 -10 -10
-15 -30 -15 -29 0 -38 9 -23 23 13 13 53 7 53 -8z m-263 -1 c-3 -3 -12 -4 -19
-1 -8 3 -5 6 6 6 11 1 17 -2 13 -5z m3 -54 c0 -5 -13 -10 -30 -10 -16 0 -30 5
-30 10 0 6 14 10 30 10 17 0 30 -4 30 -10z m80 -10 c0 -5 -11 -10 -24 -10 -14
0 -28 5 -31 10 -4 6 7 10 24 10 17 0 31 -4 31 -10z m80 0 c0 -5 -11 -10 -25
-10 -14 0 -25 5 -25 10 0 6 11 10 25 10 14 0 25 -4 25 -10z m90 1 c0 -15 -16
-22 -34 -15 -25 9 -19 24 9 24 14 0 25 -4 25 -9z m-357 -49 c3 -4 3 -19 0 -34
l-5 -27 -284 1 c-157 1 -287 4 -289 9 -3 4 0 19 6 33 l12 26 278 0 c153 0 280
-3 282 -8z m727 -3 c69 -1 130 -1 135 1 6 1 25 2 43 1 32 -1 32 -1 32 -52 l0
-50 -197 7 c-109 3 -209 8 -223 9 -14 2 -51 4 -83 4 l-58 1 3 38 3 37 65 5
c36 3 85 4 110 3 25 -1 101 -3 170 -4z m-627 -21 c8 -30 1 -38 -39 -38 -34 0
-41 10 -28 44 10 25 60 21 67 -6z m83 0 c-3 -13 -6 -29 -6 -35 0 -7 -11 -13
-25 -13 -22 0 -25 4 -25 35 0 33 2 35 31 35 28 0 31 -3 25 -22z m74 -13 c0
-30 -3 -35 -24 -35 -18 0 -23 5 -21 23 1 12 3 28 4 35 0 6 10 12 21 12 16 0
20 -7 20 -35z m88 -5 c-2 -34 -5 -40 -25 -40 -18 0 -23 6 -23 24 0 38 10 56
31 56 17 0 19 -6 17 -40z m-354 -61 c2 -2 1 -20 -3 -39 l-7 -35 -144 -8 c-135
-7 -398 -1 -425 9 -13 6 -8 51 8 72 8 10 71 12 288 9 153 -2 281 -5 283 -8z
m106 -33 c0 -30 -4 -34 -31 -40 -52 -10 -57 -8 -52 22 8 48 12 52 48 52 33 0
35 -2 35 -34z m80 -12 c0 -30 -3 -34 -25 -34 -22 0 -25 4 -25 34 0 25 5 36 18
39 26 6 32 -1 32 -39z m76 14 c-3 -13 -6 -29 -6 -35 0 -7 -9 -13 -20 -13 -16
0 -20 7 -20 35 0 31 3 35 26 35 22 0 25 -3 20 -22z m82 -15 c-2 -25 -8 -37
-20 -39 -24 -3 -31 11 -23 46 5 21 13 30 26 30 17 0 20 -6 17 -37z m407 18
c55 -5 117 -9 139 -9 48 0 58 -10 50 -51 l-7 -33 -136 5 c-202 8 -412 29 -417
42 -3 6 -1 23 5 37 l9 25 129 -4 c70 -1 173 -7 228 -12z m-987 -96 c2 -2 -30
-10 -70 -20 -92 -22 -258 -31 -258 -14 0 6 -7 9 -15 5 -11 -4 -15 2 -15 20 l0
25 178 -7 c97 -4 178 -8 180 -9z m314 0 c12 -5 12 -15 4 -55 -9 -47 -12 -50
-41 -50 -27 0 -31 3 -29 23 1 12 3 37 3 55 1 27 5 32 25 32 13 0 31 -2 38 -5z
m94 -36 c-9 -57 -22 -78 -44 -72 -16 4 -17 10 -8 53 7 37 15 50 30 53 12 2 23
5 25 6 2 0 1 -18 -3 -40z m-189 -14 c-2 -26 -7 -48 -9 -51 -6 -5 -311 16 -318
22 -9 9 24 23 70 29 25 3 77 15 115 25 39 10 87 19 109 19 l39 1 -6 -45z m263
9 c0 -19 -5 -44 -10 -55 -14 -24 -43 -26 -37 -1 3 9 8 34 12 55 8 50 35 51 35
1z m90 24 c0 -7 -5 -30 -11 -50 -7 -28 -15 -38 -31 -38 -14 0 -18 5 -14 16 3
9 6 31 6 50 0 30 3 34 25 34 14 0 25 -6 25 -12z m348 -18 c73 -19 142 -53 142
-70 0 -9 -455 -9 -463 0 -3 3 0 27 7 54 l11 49 115 -7 c63 -4 148 -16 188 -26z
m244 -29 c-3 -27 -9 -41 -22 -44 -19 -5 -40 9 -40 28 0 5 -17 20 -38 32 l-37
22 70 1 71 0 -4 -39z m-1412 -49 c0 -4 -14 -16 -31 -26 -26 -15 -33 -16 -40
-5 -18 28 -9 39 31 39 22 0 40 -4 40 -8z m706 -39 c-2 -10 -8 -37 -11 -60 -8
-50 -25 -67 -25 -26 0 56 13 103 27 103 9 0 12 -7 9 -17z"/>
</g>
</svg>
