<?xml version="1.0" standalone="no"?>
<!DOCTYPE svg PUBLIC "-//W3C//DTD SVG 20010904//EN"
 "http://www.w3.org/TR/2001/REC-SVG-20010904/DTD/svg10.dtd">
<svg version="1.0" xmlns="http://www.w3.org/2000/svg"
 width="133.000000pt" height="148.000000pt" viewBox="0 0 133.000000 148.000000"
 preserveAspectRatio="xMidYMid meet">
<metadata>
Created by potrace 1.16, written by Peter Selinger 2001-2019
</metadata>
<g transform="translate(0.000000,148.000000) scale(0.100000,-0.100000)"
fill="#000000" stroke="none">
<path d="M965 1366 c-33 -34 -75 -69 -92 -77 -32 -13 -49 -36 -38 -48 4 -3 20
2 37 12 28 16 32 16 48 2 10 -9 20 -24 23 -35 3 -14 -1 -17 -19 -16 -13 0 -24
4 -24 7 0 3 -6 6 -12 6 -108 6 -141 4 -151 -6 -9 -10 -8 -15 6 -25 14 -11 18
-30 19 -102 1 -49 -1 -95 -5 -101 -5 -7 -20 -13 -34 -13 -35 0 -151 57 -163
80 -15 27 -48 26 -55 -2 -14 -60 -22 -120 -24 -186 -3 -86 13 -101 58 -58 15
14 31 26 37 26 5 0 29 14 54 30 25 16 56 30 70 30 15 0 31 5 36 10 7 7 11 -9
13 -51 1 -35 7 -71 12 -81 8 -15 -1 -23 -68 -55 -46 -22 -79 -45 -81 -55 -3
-18 33 -4 215 84 35 16 68 26 74 23 14 -9 -30 -56 -96 -100 -88 -61 -92 -65
-75 -75 8 -5 42 -10 75 -10 42 0 55 -3 44 -10 -9 -5 -34 -35 -55 -66 l-39 -57
-6 29 c-4 16 -7 44 -8 62 -1 26 -5 33 -18 30 -19 -4 -19 -3 -10 -97 6 -57 5
-63 -11 -58 -9 3 -57 17 -106 31 -49 14 -101 34 -116 44 -14 11 -36 23 -49 27
-24 7 -24 6 -18 -40 4 -26 7 -81 7 -122 0 -90 13 -100 70 -54 66 53 136 83
178 77 20 -3 39 -5 42 -6 3 0 5 -28 5 -62 0 -35 3 -72 8 -84 7 -19 -3 -25 -95
-64 -104 -44 -160 -80 -126 -80 10 0 41 11 70 24 131 59 185 79 213 77 48 -3
290 57 347 85 25 13 30 12 48 -6 26 -26 51 -12 44 23 -3 12 -8 38 -11 57 -3
19 -10 40 -15 47 -6 7 -4 19 4 32 16 26 4 37 -27 23 -21 -10 -27 -8 -42 11
-10 13 -42 38 -70 57 -65 43 -102 112 -104 194 -2 58 5 76 25 76 8 0 47 11 87
24 41 13 95 27 121 30 26 4 55 9 63 12 22 9 18 34 -5 34 -26 0 -51 40 -48 77
2 30 -21 67 -88 140 -27 29 -34 45 -34 78 0 23 -5 46 -12 53 -8 8 -12 47 -12
107 0 117 -7 119 -91 31z m64 -149 c7 -10 10 -17 5 -17 -5 1 -26 23 -48 51
l-38 50 28 30 29 31 5 -65 c3 -35 11 -71 19 -80z m-146 -43 c3 -3 -11 -28 -30
-56 -26 -35 -38 -46 -44 -36 -6 11 -13 70 -10 91 1 8 75 10 84 1z m108 -4 c16
-9 49 -58 49 -74 0 -3 -36 -4 -79 -3 -87 2 -88 4 -26 59 35 32 31 31 56 18z
m-91 -110 c14 0 30 -69 30 -126 0 -81 -14 -107 -73 -138 l-52 -27 -3 72 c-3
71 0 78 33 93 6 3 2 11 -7 19 -24 19 -23 34 9 79 16 24 32 37 40 33 8 -3 19
-5 23 -5z m86 -60 l-21 -48 -7 37 c-12 64 -11 68 21 63 l29 -4 -22 -48z m149
0 c5 -9 -21 -40 -34 -40 -5 0 -38 -22 -75 -50 -54 -40 -66 -46 -66 -30 0 10 7
25 15 33 8 8 26 37 41 63 38 70 50 78 85 53 16 -11 31 -24 34 -29z m-550 -39
c3 -5 19 -12 35 -16 37 -8 31 -18 -29 -56 l-46 -30 -6 43 c-3 24 -4 49 -2 56
6 14 39 16 48 3z m572 -61 c16 -31 18 -40 7 -40 -7 0 -47 -11 -88 -25 -41 -14
-85 -25 -98 -25 l-23 0 25 23 c27 25 142 106 150 107 3 0 15 -18 27 -40z
m-234 -232 c3 -24 4 -44 2 -46 -2 -2 -17 4 -34 13 -33 17 -51 13 -51 -11 0
-10 -11 -14 -37 -14 l-38 0 35 21 c19 12 51 35 70 50 19 16 37 29 41 29 3 0 9
-19 12 -42z m5 -99 c-2 -6 6 -16 17 -22 20 -12 35 -27 35 -37 0 -3 -28 -5 -62
-5 -40 0 -63 -4 -65 -12 -3 -9 7 -13 34 -13 59 0 71 -12 44 -45 -13 -18 -21
-22 -21 -13 0 23 -24 40 -37 27 -7 -7 -7 -25 -1 -54 5 -24 8 -61 6 -82 -3 -34
-8 -40 -51 -62 -58 -30 -67 -23 -67 56 0 87 53 189 127 246 41 30 44 32 41 16z
m140 -119 c23 -17 42 -36 42 -43 0 -10 -166 -97 -185 -97 -12 0 -3 42 16 77
22 39 68 93 79 93 4 0 26 -14 48 -30z m-538 -38 l40 -7 -50 -28 -50 -28 0 41
c0 24 4 39 10 35 5 -3 28 -9 50 -13z m627 -66 l10 -33 -51 -21 c-46 -19 -156
-52 -170 -52 -3 0 -6 8 -6 18 0 22 49 55 122 82 32 12 60 26 63 31 11 17 22 9
32 -25z m-262 -116 c-11 -5 -27 -9 -35 -9 -13 -1 -13 0 0 9 8 5 24 9 35 9 l20
0 -20 -9z"/>
<path d="M508 1177 c-16 -6 -28 -14 -28 -18 0 -4 -28 -29 -62 -55 -35 -26 -98
-81 -140 -121 -43 -40 -83 -73 -90 -73 -23 0 -70 -44 -63 -60 8 -20 148 -114
244 -163 42 -21 89 -46 104 -54 28 -15 57 -12 57 6 0 6 -15 18 -32 27 -18 9
-44 27 -58 39 -14 13 -44 34 -66 47 -23 13 -69 45 -102 72 -60 48 -61 49 -44
72 9 13 22 24 28 24 6 0 27 19 48 41 20 23 39 39 43 36 3 -4 -4 -29 -16 -56
-24 -56 -25 -71 -10 -124 16 -58 35 -42 31 26 -3 40 3 73 18 113 11 32 19 63
16 70 -5 13 87 90 142 118 17 9 32 23 32 31 0 17 -13 18 -52 2z"/>
<path d="M430 565 c-30 -25 -65 -48 -77 -51 -12 -3 -29 -16 -37 -29 -8 -13
-49 -44 -91 -70 -52 -33 -75 -53 -75 -67 0 -20 62 -82 102 -102 13 -7 23 -21
23 -31 0 -30 13 -44 35 -38 20 5 52 -22 91 -78 9 -13 20 -19 27 -15 19 12 -23
105 -69 152 l-42 43 16 102 c12 76 21 105 35 115 55 38 122 96 122 104 0 14 0
14 -60 -35z m-123 -147 c-3 -18 -9 -52 -12 -76 l-7 -42 -29 17 c-17 10 -39 28
-50 40 l-21 21 24 7 c12 5 39 21 58 36 19 16 36 29 38 29 3 0 2 -15 -1 -32z"/>
</g>
</svg>
