<?xml version="1.0" standalone="no"?>
<!DOCTYPE svg PUBLIC "-//W3C//DTD SVG 20010904//EN"
 "http://www.w3.org/TR/2001/REC-SVG-20010904/DTD/svg10.dtd">
<svg version="1.0" xmlns="http://www.w3.org/2000/svg"
 width="292.000000pt" height="165.000000pt" viewBox="0 0 292.000000 165.000000"
 preserveAspectRatio="xMidYMid meet">
<metadata>
Created by potrace 1.16, written by Peter Selinger 2001-2019
</metadata>
<g transform="translate(0.000000,165.000000) scale(0.100000,-0.100000)"
fill="#000000" stroke="none">
<path d="M672 1540 c-34 -22 -67 -40 -72 -40 -4 0 -10 -6 -13 -12 -2 -8 -22
-13 -53 -13 -44 0 -49 -2 -47 -21 2 -17 -16 -31 -97 -73 -97 -51 -130 -81 -73
-66 15 3 30 10 33 14 9 14 142 71 165 71 13 0 48 -25 91 -66 38 -36 95 -83
126 -105 31 -21 60 -43 63 -49 8 -12 -31 -66 -105 -144 -98 -107 -134 -136
-158 -129 -12 3 -19 10 -16 15 4 5 -11 27 -32 49 -21 21 -39 45 -40 52 -1 7
-20 42 -43 77 -51 78 -57 100 -44 162 5 27 6 51 2 53 -4 3 -25 -12 -47 -33
-22 -22 -64 -54 -94 -72 -128 -80 -158 -102 -152 -111 3 -5 10 -6 16 -3 7 5 9
0 6 -14 -7 -25 10 -41 22 -22 13 21 62 3 151 -56 46 -30 95 -57 109 -60 14 -4
39 -17 57 -30 17 -13 42 -24 56 -24 36 0 39 -11 11 -37 -25 -23 -25 -25 -9
-44 10 -10 23 -19 29 -19 6 0 22 -9 35 -19 l25 -19 -26 -39 c-24 -37 -142
-159 -205 -213 -38 -33 -127 -90 -178 -115 -90 -45 -91 -67 -1 -106 37 -16 56
-31 58 -44 2 -13 12 -21 30 -23 25 -3 28 0 28 28 0 34 36 90 57 90 17 0 56
-22 66 -37 12 -20 96 -96 123 -113 15 -9 27 -11 33 -5 11 11 -119 165 -148
176 -41 16 -45 36 -15 83 74 113 119 176 132 181 24 9 227 -135 253 -180 25
-42 79 -150 79 -158 0 -3 11 -23 25 -43 16 -23 23 -44 19 -58 -10 -42 16 -48
86 -21 35 14 69 25 76 25 10 0 177 59 229 81 22 9 118 35 180 49 23 5 70 20
105 33 36 13 119 39 185 57 176 47 326 89 362 101 18 5 42 12 54 14 12 2 57
16 100 30 43 14 86 25 95 25 23 0 183 73 184 84 0 13 -57 -1 -116 -29 -29 -14
-59 -25 -67 -25 -8 0 -30 -7 -50 -15 -19 -8 -57 -13 -83 -12 -48 1 -187 -31
-329 -78 -38 -13 -112 -33 -164 -45 -76 -17 -96 -19 -102 -8 -7 10 -9 9 -9 -4
0 -12 -11 -19 -37 -23 -71 -10 -378 -66 -498 -91 -142 -29 -154 -29 -170 -7
-11 15 -15 15 -29 4 -14 -12 -16 -11 -16 4 0 27 -67 145 -105 185 -40 42 -57
105 -54 203 1 37 0 70 -4 73 -3 3 -19 -2 -36 -12 -17 -10 -33 -15 -37 -12 -3
4 14 53 39 110 25 57 53 127 62 156 9 29 28 66 42 83 l26 31 15 -39 c7 -21 20
-63 27 -93 8 -30 22 -77 33 -105 11 -27 25 -81 32 -120 7 -38 18 -79 25 -90 6
-11 18 -44 24 -73 7 -28 17 -55 23 -58 5 -3 6 -19 3 -34 -3 -16 -2 -31 4 -35
6 -3 11 -15 11 -27 0 -15 4 -18 18 -13 24 10 85 28 97 29 21 2 85 30 85 38 0
4 6 5 14 2 7 -3 39 2 71 11 48 14 59 15 66 4 7 -11 13 -10 27 7 21 25 175 59
472 104 41 6 111 18 155 25 44 8 118 17 165 19 329 18 320 17 320 36 0 10 -12
28 -26 39 -15 12 -24 21 -21 21 12 0 144 -31 180 -42 41 -13 44 -31 6 -36 -14
-2 -38 -14 -54 -28 -17 -14 -21 -20 -10 -15 48 25 113 44 154 45 30 1 46 6 49
16 3 8 12 21 20 30 14 13 14 15 -1 18 -9 2 -24 -1 -35 -7 -13 -7 -37 -3 -88
14 -384 129 -491 171 -567 223 -23 17 -63 35 -87 42 -25 6 -85 31 -135 55 -49
23 -106 46 -125 50 -38 8 -56 16 -200 92 -176 93 -264 143 -285 162 -11 10
-36 24 -55 31 -19 8 -42 21 -51 30 -9 8 -29 25 -43 37 l-27 22 -43 -22 c-31
-16 -49 -33 -61 -60 -9 -21 -37 -57 -62 -80 -24 -22 -60 -65 -80 -94 -19 -29
-38 -53 -42 -53 -17 0 -231 195 -231 210 0 8 88 70 98 70 5 0 14 -29 21 -65
14 -68 62 -150 84 -142 14 5 12 90 -2 122 -13 29 -31 110 -31 139 0 35 -14 33
-88 -14z m493 -134 c42 -13 90 -35 108 -48 30 -23 96 -59 317 -175 47 -24 109
-51 138 -59 30 -9 51 -18 48 -21 -8 -8 -137 38 -193 69 -77 43 -289 119 -358
128 -73 10 -209 32 -213 36 -9 6 56 94 69 94 5 0 42 -11 84 -24z m-153 -131
c31 5 60 2 92 -9 26 -9 60 -16 77 -16 38 0 285 -83 359 -120 30 -15 107 -44
170 -64 63 -20 160 -59 215 -87 55 -28 145 -68 200 -90 106 -43 151 -63 123
-55 -9 3 -45 10 -80 16 -58 11 -156 45 -202 71 -33 19 -128 49 -236 75 -58 13
-132 34 -165 45 -63 22 -185 58 -197 59 -4 0 -51 -39 -103 -87 -53 -49 -118
-101 -145 -118 -27 -16 -67 -43 -89 -58 -22 -16 -44 -26 -49 -23 -6 3 -15 36
-22 73 -6 38 -17 75 -24 83 -6 8 -13 29 -15 45 -3 38 -51 178 -62 186 -5 3 8
29 28 57 l36 52 23 -21 c18 -17 29 -19 66 -14z m-712 -80 c0 -32 36 -104 55
-112 10 -3 13 -13 9 -28 -6 -24 22 -59 72 -92 14 -8 23 -18 20 -20 -2 -3 -17
4 -33 15 -104 73 -214 138 -250 150 -24 7 -43 15 -43 17 0 3 26 18 58 34 31
16 66 36 77 45 28 22 35 20 35 -9z m1128 -167 c41 -9 49 -14 42 -27 -17 -31
-41 -121 -36 -130 4 -5 3 -11 -1 -13 -8 -3 -39 -140 -52 -223 -6 -36 -9 -40
-50 -52 -25 -7 -46 -11 -48 -10 -2 3 17 93 47 217 21 86 41 202 36 207 -10 10
-26 -9 -26 -31 0 -12 -4 -26 -9 -32 -5 -5 -18 -54 -29 -109 -59 -288 -51 -264
-89 -271 -19 -4 -37 -4 -40 0 -3 3 6 68 21 143 15 76 30 151 33 168 10 52 45
106 92 141 53 39 45 37 109 22z m652 -56 c29 -20 31 -23 10 -17 -26 7 -110 53
-110 60 0 9 67 -20 100 -43z m-1411 -73 c-23 -52 -45 -98 -50 -103 -8 -9 -99
39 -99 52 0 4 22 21 48 39 26 18 67 53 92 78 25 25 46 41 48 36 2 -5 -16 -51
-39 -102z m883 82 c4 -4 -4 -61 -17 -128 -14 -67 -22 -129 -19 -137 3 -8 1
-17 -5 -21 -6 -3 -11 -18 -11 -33 0 -38 -10 -47 -52 -51 -44 -3 -44 -4 -22 94
8 39 21 104 29 145 8 41 20 94 27 116 11 40 13 41 37 31 14 -6 29 -13 33 -16z
m161 -32 c77 -14 75 -6 32 -108 -18 -42 -27 -84 -28 -122 -2 -59 -9 -68 -55
-69 -17 0 -8 103 19 205 10 38 14 74 10 78 -28 28 -71 -110 -71 -227 l0 -64
-40 -7 c-55 -9 -60 -3 -45 56 8 29 17 77 21 108 10 80 11 81 19 129 9 49 -3
48 138 21z m130 -42 c17 -11 17 -15 2 -57 -9 -25 -22 -74 -28 -109 -11 -59
-14 -64 -40 -67 l-29 -3 5 52 c5 58 17 104 40 160 17 40 24 44 50 24z m-633
-13 c0 -3 -5 -14 -11 -25 -5 -11 -23 -92 -39 -180 -16 -89 -30 -162 -32 -163
-12 -7 -61 -26 -62 -24 -1 2 -6 17 -13 35 -9 26 -8 33 4 37 11 5 14 15 9 39
-4 24 3 63 27 135 29 86 40 106 68 126 34 25 49 31 49 20z m732 -24 c23 0 23
-7 -1 -61 -11 -24 -21 -56 -23 -71 -5 -34 -9 -38 -51 -47 l-34 -8 14 61 c24
107 48 155 67 136 5 -5 18 -10 28 -10z m77 -29 c11 -7 11 -13 0 -32 -7 -13
-15 -40 -18 -59 -5 -26 -12 -36 -29 -38 -29 -4 -30 28 -2 92 20 47 26 52 49
37z m-933 -43 c-3 -18 -18 -64 -33 -101 l-27 -68 -18 58 c-10 32 -18 61 -18
64 0 7 90 79 98 79 2 0 2 -15 -2 -32z m1012 13 c23 -14 -11 -81 -41 -81 -21 0
-23 4 -20 33 3 17 6 38 8 45 5 14 34 16 53 3z m138 -37 c6 -8 19 -12 28 -8 19
7 91 -4 82 -13 -12 -13 -111 -3 -122 12 -16 21 -34 19 -34 -5 0 -16 -7 -20
-35 -20 -37 0 -42 9 -24 41 9 18 17 20 52 14 23 -4 47 -13 53 -21z m-1622 -59
c-25 -19 -40 -19 -24 0 7 8 20 15 28 15 13 0 12 -3 -4 -15z m61 -23 c-4 -26 2
-57 21 -107 7 -19 6 -19 -17 1 -13 12 -39 29 -56 38 -18 9 -33 22 -33 28 0 14
61 67 78 68 8 0 11 -9 7 -28z m-253 -171 c-76 -108 -167 -221 -177 -221 -6 0
-20 7 -31 15 -10 8 -27 15 -36 15 -31 0 -29 19 4 34 91 42 160 89 223 155 22
22 41 41 42 41 2 0 -10 -17 -25 -39z m1083 -166 c-49 -13 -114 -30 -142 -38
-29 -8 -53 -13 -53 -11 0 3 -14 -3 -31 -11 -67 -35 -292 -100 -315 -91 -8 3
-14 14 -14 24 0 14 11 23 43 31 23 7 58 17 77 22 34 9 182 40 285 59 27 5 61
14 75 19 27 11 74 17 130 18 23 1 4 -7 -55 -22z"/>
<path d="M1885 630 c-3 -5 -1 -10 4 -10 6 0 11 5 11 10 0 6 -2 10 -4 10 -3 0
-8 -4 -11 -10z"/>
<path d="M680 250 c-57 -55 -101 -102 -97 -106 3 -4 41 27 84 68 43 42 94 90
113 107 19 18 28 31 20 30 -8 0 -62 -45 -120 -99z"/>
</g>
</svg>
