<?xml version="1.0" standalone="no"?>
<!DOCTYPE svg PUBLIC "-//W3C//DTD SVG 20010904//EN"
 "http://www.w3.org/TR/2001/REC-SVG-20010904/DTD/svg10.dtd">
<svg version="1.0" xmlns="http://www.w3.org/2000/svg"
 width="132.000000pt" height="150.000000pt" viewBox="0 0 132.000000 150.000000"
 preserveAspectRatio="xMidYMid meet">
<metadata>
Created by potrace 1.16, written by Peter Selinger 2001-2019
</metadata>
<g transform="translate(0.000000,150.000000) scale(0.100000,-0.100000)"
fill="#000000" stroke="none">
<path d="M532 1349 c-18 -7 -22 -14 -17 -29 4 -11 2 -20 -4 -20 -6 0 -11 -8
-11 -19 0 -10 -11 -35 -25 -55 -14 -21 -36 -59 -49 -84 -13 -26 -35 -64 -49
-84 -17 -25 -22 -38 -14 -42 7 -2 -16 -5 -50 -5 l-63 -1 4 -37 c2 -21 14 -66
26 -101 34 -98 33 -110 -13 -167 -22 -27 -68 -76 -101 -107 -39 -37 -57 -60
-51 -66 6 -6 42 -17 80 -25 173 -38 368 -103 362 -120 -2 -6 -25 -18 -53 -26
-28 -9 -50 -23 -52 -32 -2 -9 18 -34 45 -58 80 -71 83 -74 83 -98 0 -55 78 7
92 74 5 19 15 41 23 49 41 42 87 108 126 182 42 80 46 84 104 110 33 15 65 31
70 36 6 5 53 30 105 55 64 31 100 55 109 72 17 31 21 25 -74 104 -33 28 -61
53 -63 58 -2 4 -12 7 -23 7 -12 0 -23 11 -30 27 -6 15 -13 30 -17 33 -4 3 -16
22 -26 42 -16 32 -17 44 -8 80 7 24 14 61 17 83 3 22 8 57 11 78 5 32 3 37
-14 37 -11 0 -30 -8 -43 -18 -47 -36 -137 -82 -160 -82 -19 0 -24 -6 -25 -25
-1 -14 4 -25 10 -25 7 0 35 -20 62 -45 l49 -45 -30 -25 c-43 -36 -245 -135
-275 -135 -50 0 -55 -15 -16 -50 38 -35 41 -57 12 -89 -20 -22 -14 -41 14 -41
10 0 33 -21 54 -48 19 -26 58 -64 85 -83 28 -18 51 -36 51 -39 -2 -21 -112
-110 -137 -110 -18 0 -183 168 -183 186 0 6 -23 35 -51 63 -33 34 -49 57 -45
67 3 9 2 34 -4 55 -9 34 -8 43 15 76 47 71 60 88 72 96 21 13 15 35 -12 39
l-24 3 29 47 c23 36 33 45 49 41 14 -4 35 7 68 34 27 22 67 52 91 67 73 45 69
60 -28 114 -43 23 -60 28 -78 21z m63 -89 c4 -6 -4 -19 -17 -29 -12 -10 -36
-31 -51 -45 -45 -41 -48 -30 -10 29 34 53 63 69 78 45z m318 -145 c-7 -12 -17
-7 -53 26 l-44 40 50 23 49 23 3 -49 c2 -26 -1 -55 -5 -63z m-5 -104 c7 -4 30
-37 50 -72 22 -37 44 -64 54 -64 9 0 19 -3 23 -6 8 -9 -99 -150 -173 -229
l-61 -64 -21 19 c-44 40 -68 119 -72 233 -1 23 -5 31 -15 28 -25 -10 0 21 60
73 32 28 64 51 70 51 7 0 23 9 37 20 28 22 30 23 48 11z m-518 -30 c0 -5 -6
-16 -14 -23 -7 -8 -21 -29 -31 -48 l-18 -35 -13 39 c-8 21 -19 45 -25 52 -7 9
-5 14 8 17 33 9 93 7 93 -2z m274 -96 c-25 -24 -41 -32 -48 -25 -5 5 -8 11 -5
12 12 8 84 48 87 48 2 0 -13 -16 -34 -35z m464 -94 l44 -38 -136 -72 c-75 -39
-139 -71 -141 -71 -3 0 -5 4 -5 10 0 15 176 210 189 210 3 -1 26 -18 49 -39z
m-451 -13 c6 -7 8 -30 6 -50 l-5 -38 -29 31 c-28 30 -29 33 -13 50 20 22 28
23 41 7z m-336 -75 c11 -10 32 -38 47 -63 14 -25 65 -84 114 -132 48 -48 88
-89 88 -92 0 -2 -35 11 -77 28 -86 36 -248 86 -303 93 -19 3 -36 6 -38 8 -2 2
9 16 25 32 16 15 42 46 58 68 33 45 58 75 62 75 2 0 12 -8 24 -17z m434 -240
c-21 -37 -41 -72 -45 -76 -10 -11 -83 20 -76 32 3 5 30 25 58 44 29 19 62 44
72 56 33 36 29 15 -9 -56z m-107 -106 c17 -6 32 -13 32 -17 -1 -3 -18 -25 -39
-49 -43 -48 -44 -48 -106 7 l-37 33 23 17 c46 34 54 34 127 9z"/>
</g>
</svg>
