<?xml version="1.0" standalone="no"?>
<!DOCTYPE svg PUBLIC "-//W3C//DTD SVG 20010904//EN"
 "http://www.w3.org/TR/2001/REC-SVG-20010904/DTD/svg10.dtd">
<svg version="1.0" xmlns="http://www.w3.org/2000/svg"
 width="284.000000pt" height="164.000000pt" viewBox="0 0 284.000000 164.000000"
 preserveAspectRatio="xMidYMid meet">
<metadata>
Created by potrace 1.16, written by Peter Selinger 2001-2019
</metadata>
<g transform="translate(0.000000,164.000000) scale(0.100000,-0.100000)"
fill="#000000" stroke="none">
<path d="M2569 1496 c-3 -3 -54 -6 -115 -7 -138 -2 -159 -12 -152 -74 5 -43 5
-43 -36 -55 -22 -7 -71 -28 -107 -46 -87 -45 -181 -72 -304 -87 -111 -14 -181
-8 -260 23 -27 10 -71 24 -96 31 -27 7 -65 29 -90 51 -51 45 -106 72 -169 82
-24 4 -49 10 -55 14 -34 25 -95 33 -228 32 -173 -2 -286 -15 -352 -39 -27 -11
-84 -29 -125 -41 -41 -12 -86 -26 -99 -31 -12 -5 -55 -12 -95 -15 -39 -4 -77
-11 -83 -16 -15 -12 -17 -44 -4 -52 21 -13 33 -172 33 -428 0 -147 -3 -276 -7
-287 -3 -10 -1 -22 6 -26 22 -14 39 21 49 99 5 44 11 81 13 82 2 2 32 -25 68
-59 83 -82 134 -113 154 -97 8 7 15 25 15 40 0 31 43 121 110 230 25 41 49 84
54 95 7 18 11 16 47 -25 43 -50 118 -194 117 -225 0 -11 5 -33 11 -50 6 -16
13 -47 16 -67 3 -20 17 -47 30 -60 14 -13 25 -28 25 -35 0 -25 41 -25 73 1 18
14 46 37 62 50 28 22 86 55 200 116 28 15 106 51 175 81 l125 54 210 -2 c258
-2 350 -11 391 -42 18 -13 47 -23 73 -24 l42 -1 -6 -96 c-4 -52 -8 -113 -11
-135 -17 -158 -17 -162 -2 -168 8 -3 27 5 41 16 23 20 26 30 32 122 7 111 14
163 25 185 5 9 11 42 15 75 3 33 13 101 21 150 9 50 17 99 19 110 18 117 124
402 177 478 24 34 20 71 -7 75 -12 2 -23 1 -26 -2z m-42 -81 c2 -1 -9 -30 -23
-66 -69 -176 -123 -376 -144 -544 -17 -130 -32 -141 -26 -20 10 225 16 404 15
468 0 39 5 75 12 83 9 11 9 21 0 40 -6 14 -11 29 -11 34 0 14 160 19 177 5z
m-1397 -30 c33 -14 69 -25 80 -25 33 0 106 -37 147 -75 36 -34 125 -75 161
-75 9 0 30 -7 47 -16 58 -30 164 -35 283 -14 146 26 277 66 332 99 25 15 62
30 83 34 l37 6 2 -42 c1 -23 1 -58 0 -77 -1 -19 -3 -129 -5 -244 -5 -215 -9
-232 -46 -219 -9 3 -25 14 -36 24 -28 25 -218 44 -440 44 l-180 0 -155 -68
c-161 -71 -297 -146 -390 -216 -30 -23 -58 -41 -62 -41 -5 0 -8 16 -8 35 0 19
-11 68 -24 108 -21 63 -24 93 -24 198 1 68 0 149 -2 179 -2 53 6 86 32 122 31
44 -42 24 -129 -34 -25 -17 -44 -24 -48 -18 -6 9 -43 -16 -113 -79 -15 -12
-40 -30 -57 -38 -16 -9 -57 -35 -90 -58 -33 -23 -85 -52 -115 -65 -30 -12 -68
-29 -83 -37 l-28 -15 7 54 c3 29 21 91 39 138 18 47 39 108 48 135 36 111 54
152 85 195 28 37 44 48 100 67 99 34 150 41 330 42 152 1 166 -1 222 -24z
m-742 -147 c-11 -29 -31 -87 -43 -128 -29 -96 -63 -191 -71 -199 -3 -3 -5 48
-4 114 1 66 -1 147 -5 181 l-7 60 63 10 c35 6 70 12 76 12 9 1 6 -15 -9 -50z
m497 -185 c-3 -15 -6 -87 -6 -160 1 -73 -1 -133 -5 -133 -3 0 -14 20 -24 44
-11 24 -44 70 -74 101 -30 32 -52 63 -50 69 4 9 152 106 163 106 2 0 0 -12 -4
-27z m-296 -245 c-50 -78 -97 -149 -105 -157 -10 -11 -17 -8 -43 21 -16 19
-49 48 -72 63 -25 18 -36 31 -28 33 64 20 154 67 205 109 41 33 126 83 132 78
2 -2 -38 -68 -89 -147z"/>
</g>
</svg>
