<?xml version="1.0" standalone="no"?>
<!DOCTYPE svg PUBLIC "-//W3C//DTD SVG 20010904//EN"
 "http://www.w3.org/TR/2001/REC-SVG-20010904/DTD/svg10.dtd">
<svg version="1.0" xmlns="http://www.w3.org/2000/svg"
 width="189.000000pt" height="170.000000pt" viewBox="0 0 189.000000 170.000000"
 preserveAspectRatio="xMidYMid meet">
<metadata>
Created by potrace 1.16, written by Peter Selinger 2001-2019
</metadata>
<g transform="translate(0.000000,170.000000) scale(0.100000,-0.100000)"
fill="#000000" stroke="none">
<path d="M1406 1571 l-96 -81 -68 0 c-37 0 -119 -1 -182 -3 l-115 -2 -60 40
c-33 22 -64 46 -68 52 -10 17 -47 16 -70 -1 -19 -15 -33 -78 -43 -196 -3 -41
-8 -93 -10 -115 -7 -62 -4 -109 8 -116 7 -5 7 -9 -1 -13 -6 -4 -11 -33 -11
-64 0 -31 -1 -97 -3 -147 -2 -88 -1 -90 22 -93 42 -6 73 8 130 63 31 30 69 58
83 64 33 13 200 2 210 -13 16 -24 5 -33 -77 -65 -47 -18 -88 -37 -91 -43 -11
-18 7 -22 39 -9 18 7 52 21 77 31 216 89 402 145 470 142 44 -2 65 10 56 33
-8 21 -71 17 -156 -10 -99 -30 -109 -30 -58 3 26 17 64 48 84 69 l38 38 54
-52 c56 -56 69 -62 79 -37 3 9 -6 28 -24 47 -17 18 -34 48 -37 70 -4 20 -11
37 -15 37 -5 0 -24 24 -43 53 l-35 52 4 129 c1 72 8 145 14 164 21 64 -3 58
-105 -27z m43 -98 c-1 -49 -4 -81 -7 -73 -2 8 -21 32 -41 53 l-36 38 40 34
c22 19 41 34 42 35 2 0 2 -39 2 -87z m-592 -1 c48 -30 60 -41 51 -50 -7 -7
-19 -12 -28 -12 -10 0 -37 -13 -61 -30 -51 -35 -58 -36 -54 -12 2 9 4 45 4 80
1 42 5 62 14 62 6 0 40 -17 74 -38z m453 -30 c0 -4 -9 -18 -20 -32 -11 -14
-20 -31 -20 -37 0 -7 -4 -13 -8 -13 -5 0 -19 -20 -31 -45 -12 -25 -23 -45 -24
-45 -4 0 4 154 8 166 3 11 95 17 95 6z m-148 -49 c6 -80 3 -82 -109 -77 -152
8 -167 9 -186 20 -14 8 -7 14 43 37 33 16 60 32 60 37 0 6 17 11 38 11 20 1
51 5 67 9 17 4 42 7 57 7 24 -1 27 -5 30 -44z m243 -52 c8 -25 38 -73 66 -106
l52 -60 -59 -53 c-33 -30 -86 -68 -119 -84 -33 -17 -72 -39 -86 -49 -31 -22
-79 -35 -79 -21 0 5 7 13 16 16 11 4 14 14 10 33 -3 16 -7 58 -8 95 -2 56 2
72 20 97 12 17 22 34 22 39 0 14 81 146 98 159 22 18 47 -7 67 -66z m-556 -57
c3 -3 -3 -11 -14 -17 -60 -37 -99 -56 -106 -51 -12 7 22 72 40 78 18 5 72 -1
80 -10z m297 -47 c-2 -18 -4 -44 -5 -59 -1 -30 -9 -34 -92 -43 -56 -7 -80 3
-91 36 -3 9 -13 8 -40 -1 -32 -12 -42 -11 -77 5 -22 10 -38 21 -36 25 3 5 26
21 53 36 51 31 125 42 234 36 l58 -4 -4 -31z m-362 -86 c3 -5 23 -12 43 -16
34 -6 35 -8 18 -17 -11 -6 -35 -24 -54 -40 -18 -16 -37 -26 -41 -21 -8 8 -14
53 -12 86 2 18 36 24 46 8z m231 -54 c17 0 49 4 71 8 30 5 44 4 50 -6 10 -17
6 -81 -6 -93 -10 -10 -268 10 -303 23 -17 7 -14 12 29 44 44 33 53 36 89 30
22 -4 54 -6 70 -6z m-203 -110 l48 -13 -48 -47 c-65 -64 -82 -63 -82 6 0 74 2
75 82 54z"/>
<path d="M585 1457 c-22 -13 -82 -51 -134 -85 -52 -34 -116 -72 -143 -84 -42
-19 -48 -25 -48 -52 0 -24 17 -47 89 -120 49 -50 127 -130 174 -178 54 -55 93
-88 106 -88 27 0 27 22 0 46 -11 10 -37 41 -57 67 -33 46 -35 55 -37 131 -5
166 36 308 100 350 57 38 13 49 -50 13z m-45 -74 c0 -5 -9 -32 -20 -61 -11
-29 -22 -65 -24 -80 -2 -15 -7 -35 -11 -45 -8 -20 -2 -90 11 -122 10 -24 -111
103 -144 152 -13 19 -22 36 -20 37 1 1 26 15 53 31 28 16 70 43 94 62 43 33
61 40 61 26z"/>
<path d="M1240 866 c-29 -31 -59 -56 -67 -56 -7 0 -13 -4 -13 -9 0 -5 -9 -13
-20 -16 -20 -6 -100 -78 -100 -90 0 -12 30 -3 64 20 20 14 43 25 50 25 7 0 27
-18 44 -39 39 -49 39 -49 -133 -45 -201 4 -288 29 -307 86 -3 8 -20 0 -46 -21
-23 -18 -40 -36 -38 -39 2 -4 7 -52 10 -107 3 -55 9 -115 12 -133 5 -24 2 -38
-11 -52 -14 -16 -17 -40 -17 -152 -1 -124 1 -133 19 -136 10 -2 40 13 66 33
72 55 104 65 183 58 39 -3 86 -1 108 6 42 11 61 6 36 -9 -8 -6 -48 -20 -87
-32 -42 -13 -73 -27 -73 -35 0 -7 6 -13 13 -13 13 0 141 51 177 70 12 7 38 14
58 16 19 3 49 11 66 19 17 7 51 17 75 20 24 4 60 14 80 23 20 8 64 19 99 22
85 10 131 50 80 69 -48 18 -82 78 -79 138 1 29 -3 43 -11 43 -13 0 -27 12
-104 88 -46 44 -54 73 -59 211 -2 40 -8 78 -13 83 -6 6 -29 -12 -62 -46z
m-423 -231 c24 -4 45 -10 47 -14 3 -4 -14 -17 -37 -29 -23 -12 -52 -29 -64
-38 -23 -16 -23 -16 -23 19 0 19 -3 49 -6 67 -7 32 -7 32 17 17 13 -8 43 -18
66 -22z m283 -67 l0 -40 -67 5 c-38 3 -99 6 -138 6 -78 0 -77 3 15 52 38 20
57 23 118 21 l72 -4 0 -40z m70 12 c-16 -22 -25 -28 -30 -20 -12 20 1 49 24
52 30 5 31 3 6 -32z m100 29 c0 -6 7 -8 16 -5 10 4 25 -3 39 -16 12 -13 41
-36 64 -52 51 -37 48 -53 -18 -116 -84 -79 -222 -182 -237 -176 -17 7 -19 75
-3 143 24 105 30 120 75 176 44 55 64 69 64 46z m-390 -118 c0 -5 -13 -14 -29
-21 -16 -6 -44 -23 -62 -36 -18 -13 -37 -24 -41 -24 -14 0 -9 44 8 68 12 18
25 22 70 22 30 0 54 -4 54 -9z m211 -46 c11 -66 12 -65 -135 -59 -72 4 -135
10 -140 14 -4 5 7 16 25 26 19 9 47 28 63 41 25 21 37 23 105 21 l76 -3 6 -40z
m354 -42 c3 -16 15 -37 26 -49 l20 -21 -63 -22 c-35 -13 -90 -29 -123 -37 -33
-8 -73 -22 -90 -31 l-30 -16 25 27 c13 15 49 46 80 69 30 23 73 56 94 74 22
18 43 33 47 33 4 0 10 -12 14 -27z m-627 -49 c23 -7 22 -7 -12 -28 -19 -11
-48 -31 -65 -44 l-30 -23 2 35 c4 54 43 76 105 60z m200 -10 l61 -7 -2 -51
c-2 -63 0 -63 -175 -45 -131 13 -133 13 -110 31 13 10 42 27 66 38 23 11 42
25 42 30 0 12 33 13 118 4z m-248 -143 c0 -3 -11 -14 -25 -23 -23 -17 -24 -17
-30 2 -3 11 -4 24 -1 29 6 9 56 3 56 -8z"/>
<path d="M970 289 c0 -5 5 -7 10 -4 6 3 10 8 10 11 0 2 -4 4 -10 4 -5 0 -10
-5 -10 -11z"/>
<path d="M544 627 c-49 -45 -105 -93 -124 -107 -19 -13 -49 -36 -67 -51 -18
-15 -53 -37 -78 -48 -25 -11 -45 -23 -45 -26 0 -27 68 -97 119 -124 14 -7 35
-21 46 -31 11 -10 31 -21 45 -25 14 -4 56 -30 94 -56 39 -27 75 -49 82 -49 33
0 19 25 -51 92 -88 83 -102 106 -111 181 -11 93 -2 116 80 196 40 40 87 82
105 93 35 23 40 38 12 38 -10 0 -59 -37 -107 -83z m-128 -227 c1 -44 -2 -80
-6 -80 -11 0 -90 81 -90 91 0 5 6 9 13 9 8 0 82 54 82 60 0 0 0 -36 1 -80z"/>
</g>
</svg>
