<?xml version="1.0" standalone="no"?>
<!DOCTYPE svg PUBLIC "-//W3C//DTD SVG 20010904//EN"
 "http://www.w3.org/TR/2001/REC-SVG-20010904/DTD/svg10.dtd">
<svg version="1.0" xmlns="http://www.w3.org/2000/svg"
 width="196.000000pt" height="110.000000pt" viewBox="0 0 196.000000 110.000000"
 preserveAspectRatio="xMidYMid meet">
<metadata>
Created by potrace 1.16, written by Peter Selinger 2001-2019
</metadata>
<g transform="translate(0.000000,110.000000) scale(0.100000,-0.100000)"
fill="#000000" stroke="none">
<path d="M1630 1040 c-14 -4 -90 -9 -170 -10 -142 -1 -209 -13 -217 -37 -3 -8
38 -10 159 -6 l163 5 -34 -23 c-27 -18 -55 -25 -135 -30 -137 -11 -184 -19
-197 -36 -20 -23 -3 -26 76 -14 42 6 92 11 113 11 l37 0 -40 -27 c-28 -19 -57
-28 -104 -32 -36 -4 -72 -10 -78 -14 -19 -12 -16 -35 5 -39 16 -3 3 -9 -130
-57 -26 -9 -57 -25 -69 -35 -18 -15 -33 -17 -88 -12 -135 12 -326 37 -365 47
-77 20 -111 32 -118 42 -9 14 -38 -10 -38 -31 0 -13 -15 -14 -108 -8 -98 6
-111 5 -133 -12 -20 -17 -21 -22 -10 -36 7 -9 20 -16 28 -16 11 0 13 -4 6 -12
-6 -7 -13 -76 -17 -153 -4 -77 -11 -178 -15 -225 -8 -84 -8 -85 20 -118 16
-18 32 -44 35 -58 7 -29 31 -29 48 1 13 23 107 150 133 180 25 27 67 54 114
70 45 16 47 14 25 -58 -19 -64 -3 -77 50 -41 55 38 96 53 119 44 24 -9 55 5
55 24 0 32 -80 27 -149 -9 l-34 -17 7 39 c4 21 12 51 18 66 15 39 5 43 -34 14
-30 -22 -350 -187 -364 -187 -6 0 3 142 12 196 5 25 10 30 27 27 17 -3 28 5
47 38 14 23 45 63 68 88 l44 46 -6 -48 c-8 -66 12 -72 65 -20 28 28 58 46 99
58 33 10 66 25 74 34 16 18 38 17 305 -8 63 -6 118 -8 122 -5 16 9 10 24 -13
34 -15 6 -18 9 -7 9 9 1 32 -14 51 -32 28 -26 34 -37 26 -50 -5 -10 -7 -21 -3
-26 3 -5 1 -12 -5 -16 -23 -14 -6 -24 53 -29 66 -6 294 -15 388 -16 l56 0 10
-87 c5 -49 8 -92 5 -97 -5 -8 -176 -1 -191 8 -4 3 -62 6 -129 7 -67 1 -141 5
-164 9 -24 5 -108 14 -188 20 -80 6 -180 20 -224 31 -95 23 -96 23 -96 3 0 -8
15 -21 34 -29 40 -17 258 -43 331 -40 28 2 80 -4 115 -11 39 -8 99 -12 150 -9
55 3 111 -1 160 -12 41 -8 102 -16 136 -17 33 -2 66 -6 73 -10 29 -19 35 12
32 184 0 47 4 126 10 175 6 50 14 122 18 160 8 87 38 145 104 208 l51 47 -89
-1 c-50 -1 -101 -5 -115 -9z m86 -38 c7 -5 3 -18 -13 -41 l-23 -33 -10 26
c-13 35 -13 43 3 49 18 8 31 8 43 -1z m-92 -29 c10 -24 -7 -35 -50 -31 l-39 3
35 22 c42 27 46 28 54 6z m4 -105 l3 -28 -122 0 c-67 0 -119 3 -116 7 4 3 24
17 44 29 32 20 49 23 113 21 74 -2 75 -2 78 -29z m7 -98 l0 -25 -188 -2 -188
-1 14 21 c25 38 46 42 207 37 l155 -5 0 -25z m-414 -20 c-13 -11 -29 -20 -37
-20 -19 0 -27 -19 -15 -34 8 -10 7 -17 -4 -26 -13 -11 -18 -10 -29 6 -8 10
-15 23 -17 27 -4 8 95 64 116 66 6 0 -1 -9 -14 -19z m-676 -67 l50 -16 -53
-18 c-28 -10 -62 -25 -74 -33 -12 -9 -25 -16 -28 -16 -3 0 -3 25 -2 55 4 62 0
61 107 28z m978 20 l97 -6 -1 -56 c-3 -99 8 -95 -213 -86 -105 4 -209 10 -231
14 l-40 7 44 23 c41 22 53 23 217 20 129 -2 177 0 186 9 27 27 -15 33 -204 29
l-187 -4 15 23 c11 15 28 24 52 27 67 7 165 7 265 0z m-1175 -49 c2 -1 -10
-22 -28 -46 -17 -24 -44 -62 -61 -85 -34 -50 -54 -56 -46 -15 3 15 2 57 -2 93
l-7 66 71 -5 c38 -2 72 -6 73 -8z m-20 -405 c-13 -18 -34 -48 -48 -67 -14 -19
-30 -37 -35 -39 -10 -3 -51 55 -43 62 7 7 133 74 141 74 5 1 -2 -13 -15 -30z"/>
</g>
</svg>
