<?xml version="1.0" standalone="no"?>
<!DOCTYPE svg PUBLIC "-//W3C//DTD SVG 20010904//EN"
 "http://www.w3.org/TR/2001/REC-SVG-20010904/DTD/svg10.dtd">
<svg version="1.0" xmlns="http://www.w3.org/2000/svg"
 width="163.000000pt" height="129.000000pt" viewBox="0 0 163.000000 129.000000"
 preserveAspectRatio="xMidYMid meet">
<metadata>
Created by potrace 1.16, written by Peter Selinger 2001-2019
</metadata>
<g transform="translate(0.000000,129.000000) scale(0.100000,-0.100000)"
fill="#000000" stroke="none">
<path d="M1245 1160 c-41 -19 -219 -138 -223 -149 -2 -6 3 -11 11 -11 7 0 19
-11 25 -25 7 -14 28 -35 47 -46 19 -12 35 -25 35 -30 0 -5 18 -22 39 -37 41
-30 42 -41 2 -61 -16 -9 -20 -16 -13 -23 7 -7 31 4 74 34 34 24 80 53 101 63
33 17 39 18 47 5 21 -33 11 -47 -47 -65 -32 -10 -87 -31 -121 -47 -68 -30 -97
-36 -67 -15 12 10 14 16 7 21 -7 4 -45 -10 -86 -32 l-75 -39 -108 3 c-59 1
-119 2 -133 3 -35 1 -122 20 -138 30 -14 9 4 39 103 176 28 39 55 75 58 82 6
9 -17 12 -85 12 -51 0 -100 1 -108 2 -42 5 -58 -3 -74 -35 -18 -38 -246 -233
-321 -276 -25 -14 -45 -28 -45 -32 0 -4 18 -13 40 -19 23 -7 47 -23 57 -38 9
-14 28 -38 42 -52 36 -36 71 -79 71 -87 0 -4 14 -16 30 -27 16 -11 30 -23 30
-28 0 -4 15 -29 34 -55 18 -27 37 -58 41 -71 3 -12 12 -20 18 -18 12 4 14 9
45 171 16 82 23 103 43 115 13 9 35 27 49 40 14 12 44 34 68 48 39 23 54 26
138 25 51 0 97 -3 102 -6 11 -6 79 17 94 32 7 7 17 12 23 12 5 0 2 -5 -7 -11
-25 -14 -23 -33 1 -19 32 17 36 12 38 -41 2 -27 8 -59 13 -70 11 -19 -3 -28
-15 -10 -3 6 -32 30 -64 55 -49 37 -62 42 -76 33 -14 -11 -14 -14 5 -35 11
-12 24 -22 28 -22 4 0 18 -10 32 -22 40 -36 104 -83 111 -81 4 1 17 -9 30 -23
l24 -26 -35 -29 c-19 -16 -51 -39 -70 -50 -19 -11 -47 -27 -62 -37 -14 -9 -58
-37 -97 -62 -39 -24 -71 -48 -71 -51 0 -8 34 -2 65 11 11 4 36 14 55 21 19 7
62 25 95 39 153 69 205 90 219 90 20 0 20 19 0 48 -9 13 -13 31 -9 42 7 22 -9
27 -34 11 -33 -21 -101 110 -101 191 l0 54 93 33 c50 18 108 39 127 47 19 7
52 16 73 20 40 7 48 19 18 29 -14 4 -21 19 -26 55 -4 28 -11 52 -15 55 -5 3
-21 -5 -37 -18 -15 -13 -51 -37 -80 -55 l-52 -31 -53 55 c-29 31 -70 67 -90
80 -21 13 -38 28 -38 32 0 8 120 73 134 72 4 0 5 -15 2 -34 -5 -23 -3 -36 6
-39 10 -4 11 -7 0 -14 -7 -5 -13 -27 -15 -48 -1 -31 2 -40 16 -43 12 -2 17 3
17 18 0 12 4 29 9 38 5 10 11 37 14 62 2 25 12 62 21 84 22 52 13 65 -29 46z
m-515 -191 c0 -3 -23 -37 -51 -75 -28 -38 -58 -81 -67 -96 -25 -42 -31 -34
-25 31 2 33 0 77 -6 97 -6 20 -8 40 -6 44 6 9 155 8 155 -1z m-189 -51 c6
-132 -4 -292 -26 -439 -8 -55 -15 -103 -15 -109 0 -20 -16 -9 -29 21 -7 17
-29 51 -47 75 -19 24 -34 52 -34 61 0 9 -7 24 -16 34 -32 35 -10 247 29 278
12 9 44 37 71 63 28 26 54 48 59 48 4 0 8 -15 8 -32z m-200 -146 c-5 -10 -6
-24 -1 -31 4 -8 2 -25 -6 -40 -8 -14 -14 -39 -14 -55 l0 -29 -41 41 c-24 23
-38 45 -34 52 6 10 95 79 103 80 1 0 -2 -8 -7 -18z m315 -83 c24 -6 44 -14 44
-18 -1 -7 -84 -69 -105 -77 -12 -5 -15 2 -15 27 0 44 10 79 22 79 5 0 29 -5
54 -11z m582 -305 c-7 -7 -67 -38 -133 -69 -137 -64 -134 -55 14 39 82 52 107
63 118 54 12 -9 12 -14 1 -24z"/>
</g>
</svg>
