<?xml version="1.0" standalone="no"?>
<!DOCTYPE svg PUBLIC "-//W3C//DTD SVG 20010904//EN"
 "http://www.w3.org/TR/2001/REC-SVG-20010904/DTD/svg10.dtd">
<svg version="1.0" xmlns="http://www.w3.org/2000/svg"
 width="238.000000pt" height="130.000000pt" viewBox="0 0 238.000000 130.000000"
 preserveAspectRatio="xMidYMid meet">
<metadata>
Created by potrace 1.16, written by Peter Selinger 2001-2019
</metadata>
<g transform="translate(0.000000,130.000000) scale(0.100000,-0.100000)"
fill="#000000" stroke="none">
<path d="M2059 1215 c-3 -2 -51 -6 -108 -8 -56 -3 -107 -9 -113 -15 -17 -17 1
-32 35 -29 31 2 32 1 35 -44 3 -44 2 -46 -21 -42 -13 3 -43 -6 -68 -19 -25
-13 -99 -49 -164 -81 -66 -32 -129 -63 -140 -69 -11 -6 -49 -21 -84 -33 -60
-20 -69 -21 -144 -9 -44 7 -84 11 -89 8 -4 -3 -8 -16 -8 -28 0 -22 -4 -23 -42
-19 -24 2 -99 8 -168 12 -156 11 -165 13 -251 58 -63 32 -72 35 -95 23 -32
-18 -37 -39 -32 -159 4 -116 13 -134 56 -109 15 8 57 18 95 21 79 7 79 6 -4
-83 l-50 -55 3 44 c4 59 -19 68 -28 12 -8 -48 -15 -51 -42 -14 -32 44 -45 25
-66 -88 -22 -126 -20 -165 9 -161 11 2 32 15 47 29 l27 26 5 -24 c3 -13 7 -35
8 -49 2 -14 10 -26 20 -28 16 -3 17 3 12 56 l-7 59 35 21 c20 12 55 25 80 28
l44 6 11 -81 c7 -45 9 -89 6 -97 -4 -12 -2 -15 8 -12 10 3 15 27 16 92 1 49 4
90 6 93 8 7 278 25 294 19 12 -5 10 -14 -12 -52 -29 -49 -28 -62 2 -45 21 11
148 30 172 25 59 -11 70 -16 76 -35 4 -13 12 -18 22 -15 8 3 21 0 29 -8 8 -8
39 -20 70 -27 42 -9 52 -15 38 -20 -21 -8 -14 -12 38 -23 15 -3 33 -13 42 -21
8 -8 39 -27 68 -42 29 -14 64 -34 78 -44 19 -13 30 -15 44 -7 17 9 18 8 12
-15 -7 -28 4 -40 27 -32 30 12 40 108 52 505 7 194 9 223 20 262 8 29 42 108
55 128 95 150 120 192 120 205 0 11 -11 15 -38 15 -21 0 -41 -2 -43 -5z m11
-80 c-17 -30 -47 -81 -66 -113 -18 -31 -37 -63 -41 -70 -5 -8 -9 38 -10 101
l-3 115 28 10 c15 6 49 11 75 11 l48 1 -31 -55z m-227 -147 c-20 -29 -53 -71
-73 -93 -20 -22 -59 -68 -85 -103 -45 -58 -50 -61 -57 -42 -11 29 -19 67 -25
121 -5 45 -5 46 33 63 22 10 55 26 74 36 19 10 57 30 84 44 27 14 57 26 67 26
16 0 13 -8 -18 -52z m63 -135 c-3 -93 -9 -190 -11 -218 -4 -40 -13 -313 -15
-422 0 -13 -4 -23 -8 -23 -4 0 -39 50 -76 110 -38 61 -72 113 -77 116 -5 3 -9
12 -9 19 0 8 -14 43 -31 77 -50 103 -48 184 7 233 6 6 31 37 56 70 25 33 56
71 70 85 13 14 39 46 58 73 18 26 36 47 38 47 3 0 2 -75 -2 -167z m-325 -38
c30 -114 32 -125 21 -125 -5 0 -12 10 -16 23 -3 13 -24 51 -46 86 -39 59 -40
64 -23 77 32 24 45 11 64 -61z m-870 26 c24 -10 53 -21 64 -25 17 -6 12 -11
-30 -39 -28 -17 -54 -37 -58 -44 -4 -7 -15 -13 -22 -13 -12 0 -15 16 -15 70 0
39 4 70 9 70 5 0 28 -8 52 -19z m779 -1 c0 -5 13 -28 29 -52 16 -24 32 -54 36
-68 4 -14 12 -31 18 -38 9 -11 -6 -29 -63 -83 -41 -38 -94 -81 -118 -95 -41
-26 -43 -26 -57 -8 -7 10 -11 22 -8 26 2 5 -3 11 -11 14 -9 3 -14 10 -11 14
12 19 -14 19 -36 0 -13 -11 -20 -19 -14 -20 5 0 0 -6 -11 -14 -14 -10 -51 -14
-129 -14 -61 0 -129 -3 -152 -7 -24 -3 -43 -2 -43 2 0 5 13 24 30 43 16 19 29
39 30 43 0 5 9 20 20 34 34 43 27 53 -39 53 -33 0 -71 -4 -85 -10 -27 -10 -34
-2 -15 17 17 17 3 45 -18 39 -10 -3 -44 -8 -76 -12 -70 -8 -70 6 -1 49 66 39
108 46 267 40 137 -5 177 -13 177 -34 0 -5 7 -21 16 -34 17 -25 33 -23 66 8
12 11 84 62 156 109 25 17 42 16 42 -2z m-153 -22 c22 -3 21 -4 -10 -25 -52
-35 -64 -37 -72 -11 -17 60 -19 57 22 48 21 -5 48 -10 60 -12z m-379 -181 c4
-9 -55 -117 -63 -117 -3 0 -3 11 1 25 3 14 3 32 0 41 -11 29 -36 -4 -36 -47 0
-36 -2 -39 -27 -38 -29 1 -116 26 -97 28 6 1 25 21 43 46 18 25 40 45 50 45
10 0 23 6 29 13 11 13 95 16 100 4z m680 -89 c22 -46 44 -96 48 -113 7 -29 54
-123 96 -192 23 -39 13 -42 -35 -9 -19 13 -45 27 -56 31 -12 4 -33 17 -48 31
-14 13 -31 24 -37 24 -6 1 -36 13 -66 28 -49 25 -55 30 -54 58 2 50 87 224
110 224 1 0 20 -37 42 -82z m-158 -44 c-16 -31 -30 -63 -30 -70 0 -8 -6 -14
-12 -14 -13 1 -64 39 -57 43 2 1 21 11 42 21 21 11 47 33 58 48 32 45 32 33
-1 -28z m-823 -49 c-1 -23 -9 -37 -31 -53 -16 -12 -31 -20 -32 -19 -3 3 14 97
21 115 9 25 43 -9 42 -43z m643 -1 c6 -15 16 -24 23 -21 7 3 21 -1 32 -9 17
-13 13 -14 -37 -14 -30 0 -69 -3 -85 -6 -26 -5 -30 -3 -28 15 2 26 8 33 48 47
18 6 33 12 35 13 1 0 7 -11 12 -25z m-578 0 c-24 -17 -39 -14 -27 5 3 6 16 11
28 11 l21 0 -22 -16z"/>
<path d="M539 928 c-51 -46 -110 -98 -133 -116 -22 -17 -50 -39 -61 -48 -11
-9 -57 -40 -102 -70 -46 -30 -83 -61 -83 -69 0 -8 21 -36 47 -62 27 -26 102
-105 168 -174 113 -119 191 -179 214 -164 13 8 2 35 -14 35 -7 0 -28 19 -47
41 -18 23 -50 62 -70 86 -43 50 -45 62 -23 183 9 47 20 112 26 145 6 33 17 64
25 68 12 7 13 11 3 24 -11 12 1 28 75 98 52 48 86 87 82 94 -4 6 -9 11 -12 11
-2 0 -45 -37 -95 -82z m-109 -164 c-6 -15 -15 -65 -21 -113 -5 -47 -13 -108
-17 -135 l-7 -50 -25 31 c-14 17 -39 48 -57 69 -17 22 -40 49 -51 60 l-20 21
94 62 c52 35 96 67 100 72 11 18 13 8 4 -17z"/>
</g>
</svg>
