<?xml version="1.0" standalone="no"?>
<!DOCTYPE svg PUBLIC "-//W3C//DTD SVG 20010904//EN"
 "http://www.w3.org/TR/2001/REC-SVG-20010904/DTD/svg10.dtd">
<svg version="1.0" xmlns="http://www.w3.org/2000/svg"
 width="104.000000pt" height="141.000000pt" viewBox="0 0 104.000000 141.000000"
 preserveAspectRatio="xMidYMid meet">
<metadata>
Created by potrace 1.16, written by Peter Selinger 2001-2019
</metadata>
<g transform="translate(0.000000,141.000000) scale(0.100000,-0.100000)"
fill="#000000" stroke="none">
<path d="M180 1303 c-34 -14 -45 -30 -31 -46 6 -8 6 -18 1 -27 -15 -23 -12
-30 11 -30 21 0 21 0 16 -235 -3 -130 -9 -240 -12 -246 -4 -5 -2 -16 4 -23 9
-10 9 -32 2 -77 -15 -98 -29 -251 -36 -387 -5 -112 -4 -123 11 -120 16 3 40
46 110 193 20 44 50 99 66 122 15 23 28 47 28 54 0 6 18 40 40 75 22 35 40 66
40 69 0 5 21 31 58 71 44 49 34 53 -144 50 l-139 -3 3 39 c3 27 9 38 21 39 10
0 29 27 51 70 19 39 43 77 52 86 10 9 18 21 18 27 0 7 15 27 34 46 18 19 40
49 49 67 9 17 34 51 54 75 47 55 81 100 85 112 5 14 -359 13 -392 -1z m307
-55 c-14 -22 -240 -350 -265 -385 -10 -15 -11 -7 -6 46 4 36 6 127 6 203 l0
138 51 1 c68 1 96 4 104 12 3 4 33 7 66 7 59 0 59 0 44 -22z m-67 -546 c20 -7
19 -8 -6 -46 -38 -55 -166 -283 -189 -334 -40 -91 -42 -66 -19 258 8 118 8
118 57 122 95 7 137 7 157 0z"/>
<path d="M940 1258 c-19 -5 -93 -10 -164 -11 l-128 -2 -3 -165 c-2 -91 -6
-187 -9 -215 -4 -27 -11 -115 -16 -195 -7 -110 -7 -146 2 -151 18 -11 36 8 43
44 10 47 63 138 96 167 21 18 32 39 38 74 5 27 14 52 21 56 7 4 10 13 6 19
-10 15 78 212 130 294 24 37 44 72 44 76 0 15 -23 18 -60 9z m0 -44 c0 -3 -8
-18 -19 -32 -17 -25 -42 -76 -99 -203 -12 -25 -31 -77 -43 -115 -12 -38 -28
-76 -34 -84 -7 -8 -25 -41 -41 -72 -15 -32 -32 -58 -38 -58 -5 0 -6 33 -1 83
4 45 9 111 10 147 10 164 17 236 27 247 7 9 7 13 0 13 -6 0 -9 8 -7 18 2 9 4
25 4 34 1 15 14 17 102 17 55 -1 103 2 107 5 7 8 32 8 32 0z"/>
</g>
</svg>
