<?xml version="1.0" standalone="no"?>
<!DOCTYPE svg PUBLIC "-//W3C//DTD SVG 20010904//EN"
 "http://www.w3.org/TR/2001/REC-SVG-20010904/DTD/svg10.dtd">
<svg version="1.0" xmlns="http://www.w3.org/2000/svg"
 width="214.000000pt" height="126.000000pt" viewBox="0 0 214.000000 126.000000"
 preserveAspectRatio="xMidYMid meet">
<metadata>
Created by potrace 1.16, written by Peter Selinger 2001-2019
</metadata>
<g transform="translate(0.000000,126.000000) scale(0.100000,-0.100000)"
fill="#000000" stroke="none">
<path d="M424 1131 c-30 -13 -35 -35 -19 -75 9 -21 15 -67 15 -111 l0 -75 -42
5 c-63 9 -131 27 -147 39 -9 7 -16 6 -25 -4 -6 -8 -20 -20 -31 -26 -23 -13
-50 -105 -41 -141 7 -27 27 -29 61 -7 31 20 116 43 181 50 45 4 52 2 57 -15 7
-27 -1 -140 -19 -284 -8 -65 -12 -134 -8 -154 l7 -36 -39 6 c-21 4 -48 10 -59
13 -25 6 -76 -31 -69 -50 13 -34 57 -40 304 -43 323 -5 385 -6 575 -5 88 1
173 0 190 -1 21 -1 30 3 33 16 8 42 -12 47 -184 47 l-165 0 16 29 c8 16 18 31
22 33 25 10 187 228 223 298 12 23 31 45 42 48 15 4 19 11 15 31 -7 37 21 81
53 82 134 4 423 0 430 -7 10 -10 -5 -151 -21 -201 -6 -18 -8 -70 -4 -120 8
-121 9 -126 21 -130 16 -5 33 41 28 79 -2 18 5 101 17 183 22 159 42 214 124
348 20 31 33 62 29 68 -4 7 -26 9 -63 5 -72 -9 -111 -24 -111 -45 -1 -56 -9
-132 -15 -141 -8 -13 -70 -13 -115 0 -19 5 -97 10 -173 11 -76 0 -145 3 -152
6 -10 3 -11 11 -4 30 5 13 9 60 9 104 0 77 -1 79 -24 79 -31 0 -42 -16 -45
-65 -6 -109 -10 -138 -22 -146 -8 -5 -126 -8 -264 -6 l-250 2 3 49 c1 28 11
65 22 83 38 65 18 104 -30 58 -37 -35 -60 -84 -69 -144 l-6 -46 -50 3 c-86 6
-88 7 -65 50 27 49 39 68 78 124 47 66 41 81 -33 90 -121 15 -170 18 -191 9z
m163 -84 c5 -6 -23 -65 -42 -87 -7 -8 -18 -32 -26 -52 -24 -69 -36 -45 -41 81
l-4 73 54 -5 c30 -3 56 -8 59 -10z m1333 -68 c0 -5 -16 -40 -35 -76 l-34 -65
6 69 c3 37 11 71 17 75 16 11 46 9 46 -3z m-1646 -129 c22 -5 52 -11 66 -12
16 -2 -2 -10 -47 -21 -40 -9 -79 -20 -86 -23 -18 -7 -27 24 -15 55 5 16 13 21
24 17 9 -4 35 -11 58 -16z m994 -55 c2 -2 1 -13 -3 -25 -7 -22 -8 -22 -256
-17 -137 2 -252 7 -256 10 -3 3 -3 16 0 29 l6 23 253 -8 c139 -5 254 -10 256
-12z m-589 -27 c-2 -24 -11 -54 -21 -67 -23 -31 -23 -56 2 -81 12 -12 27 -53
39 -112 11 -51 29 -119 41 -151 12 -32 19 -61 16 -64 -9 -9 -214 -5 -256 5
-34 8 -35 10 -34 52 0 43 6 122 21 270 3 36 14 87 24 115 15 43 22 51 56 61
21 7 55 12 76 13 l39 1 -3 -42z m361 -64 c96 -3 178 -8 182 -10 5 -3 3 -14 -2
-24 -10 -18 -23 -19 -237 -17 -218 2 -226 3 -229 22 -7 40 3 47 58 41 29 -3
132 -8 228 -12z m15 -85 c123 -2 139 -7 120 -33 -13 -17 -32 -19 -215 -23
l-200 -4 0 25 c0 37 26 46 115 41 44 -2 125 -5 180 -6z m67 -111 c-9 -16 -23
-28 -32 -28 -8 0 -81 -2 -162 -5 -137 -5 -148 -4 -157 14 -21 39 17 46 256 46
l111 0 -16 -27z m-72 -73 c8 -5 7 -11 -1 -21 -9 -11 -40 -14 -130 -14 -66 0
-119 2 -119 4 0 2 -3 11 -6 19 -3 10 2 17 13 20 25 7 230 0 243 -8z m-111 -71
l62 -7 -23 -24 c-20 -22 -28 -23 -78 -17 -58 7 -80 18 -80 40 0 16 25 17 119
8z"/>
</g>
</svg>
