<?xml version="1.0" standalone="no"?>
<!DOCTYPE svg PUBLIC "-//W3C//DTD SVG 20010904//EN"
 "http://www.w3.org/TR/2001/REC-SVG-20010904/DTD/svg10.dtd">
<svg version="1.0" xmlns="http://www.w3.org/2000/svg"
 width="348.000000pt" height="145.000000pt" viewBox="0 0 348.000000 145.000000"
 preserveAspectRatio="xMidYMid meet">
<metadata>
Created by potrace 1.16, written by Peter Selinger 2001-2019
</metadata>
<g transform="translate(0.000000,145.000000) scale(0.100000,-0.100000)"
fill="#000000" stroke="none">
<path d="M1126 1307 c-17 -19 -66 -53 -108 -77 -43 -24 -78 -50 -78 -58 0 -8
6 -12 15 -8 18 6 87 -45 172 -128 35 -33 70 -64 78 -69 8 -4 20 -17 25 -28 9
-16 5 -27 -24 -61 -48 -56 -58 -109 -33 -168 25 -58 55 -100 71 -100 7 0 24
-9 37 -21 20 -18 34 -20 92 -17 37 2 67 3 67 2 0 -1 -13 -31 -30 -67 -16 -37
-30 -71 -30 -77 0 -6 -12 -37 -26 -68 l-27 -57 -13 38 c-7 21 -16 66 -18 100
-13 155 -27 168 -98 90 -109 -120 -155 -159 -242 -203 -49 -24 -90 -50 -93
-57 -7 -18 27 -58 75 -87 52 -32 66 -32 79 -4 17 38 87 178 103 207 20 34 103
131 113 131 4 0 7 -17 7 -37 0 -21 7 -76 16 -123 9 -47 19 -104 21 -127 3 -24
10 -43 17 -43 15 1 46 25 46 37 0 19 50 121 65 133 8 7 21 33 29 59 8 25 22
64 32 86 l18 40 12 -99 c17 -138 20 -141 150 -121 217 35 307 60 489 135 39
17 115 43 170 60 55 17 120 37 145 46 116 39 210 65 265 70 33 4 71 12 85 19
14 6 66 17 115 24 99 14 190 33 275 57 30 9 93 21 140 28 66 9 86 15 88 29 3
13 -4 17 -30 17 -18 0 -60 12 -93 26 -70 29 -257 79 -335 88 -30 4 -127 27
-215 50 -88 24 -182 48 -210 54 -89 18 -329 82 -380 101 -27 11 -77 27 -110
36 -33 9 -86 32 -118 51 -32 19 -62 34 -66 34 -5 0 -14 7 -21 15 -22 26 -48
18 -55 -17 -4 -18 -15 -49 -25 -68 -44 -89 -70 -152 -70 -170 0 -19 7 -20 123
-21 67 0 151 -2 187 -4 225 -12 293 -17 355 -25 39 -5 111 -12 160 -15 50 -3
117 -11 150 -17 79 -14 77 -14 250 -38 146 -20 214 -35 303 -67 49 -17 54 -30
15 -38 -16 -4 -57 -15 -93 -26 -36 -11 -96 -24 -135 -29 -38 -5 -137 -20 -218
-34 -82 -14 -176 -26 -209 -26 -34 0 -84 -6 -112 -14 -202 -57 -423 -90 -701
-106 -155 -8 -206 -17 -213 -38 -3 -10 34 -11 165 -7 92 4 190 11 216 16 26 5
62 9 80 9 43 0 235 35 383 71 156 37 177 36 49 -3 -55 -16 -145 -45 -200 -64
-387 -134 -385 -134 -647 -179 -42 -8 -41 -8 -54 125 -10 105 -7 119 37 167
21 23 41 54 45 70 4 15 12 34 18 42 6 8 11 46 11 86 0 62 -4 76 -27 106 -24
33 -32 65 -29 129 1 19 4 21 13 12 21 -21 28 -13 22 31 -7 55 23 132 60 157
35 22 18 35 -27 22 -17 -6 -47 -10 -65 -10 -19 -1 -44 -7 -56 -16 -21 -13 -26
-12 -64 10 -42 25 -53 22 -58 -16 -1 -8 -12 -46 -24 -85 -35 -111 -130 -268
-130 -214 0 6 -10 25 -23 42 -35 48 -61 174 -53 258 7 66 6 69 -15 69 -12 0
-35 -15 -53 -33z m494 -95 c-11 -29 -20 -65 -21 -80 l-1 -27 -9 30 c-5 17 -8
51 -7 77 1 43 4 47 27 50 14 2 27 3 28 3 2 -1 -6 -25 -17 -53z m-465 -105 l7
-37 -63 61 c-59 56 -62 62 -45 73 10 6 32 20 50 31 l31 21 6 -56 c4 -30 10
-72 14 -93z m308 51 c-31 -31 -59 -56 -61 -54 -2 2 3 17 11 33 8 15 18 44 22
63 11 50 12 51 51 33 l34 -17 -57 -58z m458 13 c46 -21 104 -43 129 -49 25 -5
79 -21 120 -35 77 -25 287 -79 398 -101 34 -7 66 -16 70 -21 4 -4 -6 -5 -23
-2 -16 4 -66 9 -110 12 -44 4 -102 10 -130 15 -27 5 -124 12 -215 15 -91 3
-199 10 -240 15 -41 5 -96 7 -122 6 -27 -2 -48 -2 -48 1 0 2 9 22 19 46 11 23
28 63 40 90 11 26 22 47 24 47 2 0 42 -18 88 -39z m-368 -43 c11 -115 13 -112
-84 -119 -46 -3 -92 -9 -101 -13 -12 -6 -18 -4 -18 5 0 12 178 188 191 189 4
0 9 -28 12 -62z m4 -180 c38 -42 45 -67 38 -127 -4 -31 -18 -80 -32 -109 -45
-95 -148 -128 -254 -81 -39 18 -50 30 -70 73 -33 74 -29 118 18 170 66 74 110
94 214 95 56 1 69 -2 86 -21z m-500 -610 c-8 -13 -26 -44 -41 -70 l-26 -47
-35 20 c-19 12 -35 26 -35 33 0 9 100 66 148 85 1 1 -4 -9 -11 -21z"/>
<path d="M379 1248 c-29 -43 -110 -120 -177 -170 -29 -21 -50 -43 -47 -49 4
-5 10 -7 15 -4 11 7 54 -12 105 -46 22 -14 75 -43 117 -63 42 -20 83 -47 92
-60 16 -25 94 -66 126 -66 16 0 20 -7 20 -34 0 -19 -4 -37 -9 -40 -5 -4 -7 4
-3 16 6 26 5 25 -103 -57 -44 -34 -107 -78 -140 -100 -115 -74 -124 -80 -120
-84 7 -7 123 58 209 116 l79 54 -30 -38 c-17 -21 -42 -60 -56 -88 -27 -53
-171 -225 -188 -225 -16 0 -129 94 -129 108 0 7 10 16 22 21 12 4 17 11 11 14
-5 3 -32 -2 -59 -11 -66 -24 -71 -52 -18 -99 40 -35 131 -83 159 -83 9 0 25 5
35 10 30 16 179 199 207 253 46 92 113 171 129 154 2 -2 5 -38 6 -80 1 -100 7
-101 174 -32 132 54 178 86 204 139 38 79 22 227 -30 274 -64 57 -86 64 -173
60 -70 -3 -88 -8 -124 -33 -44 -30 -47 -37 -43 -112 1 -24 -1 -43 -5 -43 -20
0 -64 44 -70 71 -4 17 -25 74 -46 127 -22 53 -47 122 -56 152 -25 90 -47 102
-84 48z m56 -145 c21 -60 46 -125 57 -145 10 -21 16 -38 13 -38 -3 0 -22 10
-43 23 -20 13 -53 29 -72 37 -19 7 -53 28 -75 45 -22 17 -48 34 -57 38 -13 5
-2 20 55 76 40 39 75 71 78 71 4 0 23 -48 44 -107z m445 -159 c14 -3 35 -14
48 -24 21 -17 24 -31 29 -114 l6 -95 -33 -31 c-17 -16 -38 -30 -45 -30 -7 0
-15 -4 -17 -9 -1 -5 -32 -21 -66 -35 -43 -17 -60 -20 -52 -11 10 12 9 15 -3
15 -15 0 -32 -17 -32 -32 0 -5 -4 -8 -10 -8 -16 -1 -20 56 -15 220 5 154 5
154 30 161 24 7 107 3 160 -7z"/>
<path d="M752 928 c5 -15 28 -18 29 -3 0 6 -7 12 -17 13 -10 3 -15 -1 -12 -10z"/>
<path d="M776 901 c-3 -4 1 -17 9 -27 16 -23 40 -7 29 19 -7 18 -29 23 -38 8z"/>
<path d="M807 824 c-9 -10 12 -34 30 -34 19 0 12 34 -8 38 -8 1 -18 0 -22 -4z"/>
<path d="M815 751 c-3 -6 -1 -20 5 -30 13 -26 42 -16 38 13 -3 22 -32 34 -43
17z"/>
<path d="M792 668 c-18 -18 -15 -40 6 -36 9 2 18 13 20 26 4 24 -7 29 -26 10z"/>
<path d="M215 480 c-3 -5 1 -10 9 -10 9 0 16 5 16 10 0 6 -4 10 -9 10 -6 0
-13 -4 -16 -10z"/>
</g>
</svg>
