<?xml version="1.0" standalone="no"?>
<!DOCTYPE svg PUBLIC "-//W3C//DTD SVG 20010904//EN"
 "http://www.w3.org/TR/2001/REC-SVG-20010904/DTD/svg10.dtd">
<svg version="1.0" xmlns="http://www.w3.org/2000/svg"
 width="216.000000pt" height="100.000000pt" viewBox="0 0 216.000000 100.000000"
 preserveAspectRatio="xMidYMid meet">
<metadata>
Created by potrace 1.16, written by Peter Selinger 2001-2019
</metadata>
<g transform="translate(0.000000,100.000000) scale(0.100000,-0.100000)"
fill="#000000" stroke="none">
<path d="M1071 798 c-9 -15 -14 -63 -15 -155 -1 -73 -5 -135 -8 -138 -9 -9
-259 79 -423 149 -33 14 -66 26 -73 26 -7 0 -54 20 -104 45 -69 34 -103 45
-138 45 -72 0 -69 6 -94 -255 -3 -27 -10 -93 -15 -145 -12 -111 -14 -250 -3
-267 14 -22 62 -20 62 3 0 22 114 69 190 79 3 0 10 4 16 7 10 7 40 16 159 48
17 4 75 22 130 40 55 18 138 43 185 57 47 13 93 27 103 30 17 5 18 0 13 -53
-3 -33 -9 -72 -12 -89 -10 -48 -9 -154 2 -165 18 -18 33 6 34 55 1 28 9 98 18
158 16 105 17 108 50 127 18 11 40 20 49 20 8 0 76 -20 150 -45 74 -25 141
-45 148 -45 8 0 56 -20 107 -44 51 -24 116 -51 144 -59 28 -8 76 -29 107 -47
45 -25 57 -37 57 -56 0 -24 23 -33 35 -14 8 12 22 149 29 290 11 190 17 234
39 298 12 35 13 44 2 48 -7 3 -57 -12 -111 -32 -55 -20 -130 -47 -169 -60 -89
-28 -247 -85 -350 -125 -158 -61 -192 -69 -233 -55 l-37 13 0 154 c0 176 -10
211 -44 157z m-656 -118 c44 -22 87 -40 95 -40 9 0 24 -6 34 -13 16 -12 14
-16 -17 -52 -33 -37 -36 -39 -53 -24 -11 9 -54 37 -96 63 -76 47 -84 57 -72
90 9 23 19 20 109 -24z m1520 -44 c-9 -28 -14 -103 -15 -203 0 -87 -3 -169 -5
-183 -2 -14 -4 -30 -4 -37 -1 -8 -23 -2 -63 17 -35 17 -69 30 -77 30 -7 0 -57
19 -110 41 -53 23 -141 56 -196 75 -205 68 -212 71 -190 80 11 4 60 25 109 46
49 21 99 38 112 38 12 0 50 9 85 19 35 11 77 22 92 24 16 2 32 8 36 15 3 6 32
22 63 36 46 20 56 22 51 10 -5 -13 -1 -15 18 -9 13 4 40 15 59 25 49 26 50 25
35 -24z m-1477 -111 c10 -9 9 -17 -8 -38 -12 -15 -26 -27 -31 -27 -6 0 -37 21
-70 46 -47 36 -59 51 -59 73 0 53 18 54 89 4 36 -25 72 -51 79 -58z m157 83
c14 -6 25 -14 25 -18 0 -10 -84 -87 -102 -93 -10 -4 -18 -12 -19 -19 0 -19
-56 -61 -64 -48 -12 19 4 40 40 55 22 10 32 20 29 29 -4 11 52 106 62 106 2 0
15 -5 29 -12z m185 -70 c47 -16 117 -39 155 -49 39 -11 78 -22 88 -25 9 -3 17
-14 17 -25 0 -24 -54 -47 -129 -55 -31 -3 -82 -15 -113 -26 -51 -18 -59 -19
-72 -5 -9 9 -40 29 -68 46 -29 17 -66 42 -81 55 l-29 23 52 52 c58 58 44 57
180 9z m-459 -70 l52 -32 -29 -24 c-32 -26 -86 -62 -94 -62 -3 0 -1 34 4 75 6
41 11 75 13 75 1 0 26 -14 54 -32z m286 -71 c38 -24 76 -46 86 -50 27 -10 20
-22 -28 -46 l-46 -23 -74 56 c-41 31 -75 59 -75 62 0 10 44 43 57 44 7 0 43
-19 80 -43z m-201 2 c3 -6 -19 -36 -50 -68 -31 -31 -56 -60 -56 -64 0 -19 31
-2 75 43 27 28 55 50 62 50 16 0 133 -79 133 -89 0 -4 -44 -18 -97 -31 -54
-13 -129 -34 -168 -47 -38 -12 -71 -23 -72 -23 -2 0 -3 25 -3 56 0 61 6 69
106 151 42 34 59 40 70 22z"/>
</g>
</svg>
