<?xml version="1.0" standalone="no"?>
<!DOCTYPE svg PUBLIC "-//W3C//DTD SVG 20010904//EN"
 "http://www.w3.org/TR/2001/REC-SVG-20010904/DTD/svg10.dtd">
<svg version="1.0" xmlns="http://www.w3.org/2000/svg"
 width="197.000000pt" height="161.000000pt" viewBox="0 0 197.000000 161.000000"
 preserveAspectRatio="xMidYMid meet">
<metadata>
Created by potrace 1.16, written by Peter Selinger 2001-2019
</metadata>
<g transform="translate(0.000000,161.000000) scale(0.100000,-0.100000)"
fill="#000000" stroke="none">
<path d="M748 1476 c-33 -20 -48 -22 -115 -18 -77 4 -133 -8 -133 -28 0 -5 7
-10 15 -10 8 0 15 -3 15 -7 0 -5 3 -18 6 -30 6 -23 6 -23 -109 -23 -64 0 -118
-4 -121 -9 -10 -16 18 -19 132 -18 88 2 113 -1 117 -12 11 -29 -12 -34 -87
-21 -56 9 -83 9 -115 1 -65 -18 -61 -30 9 -28 35 1 91 -1 126 -3 58 -4 62 -6
62 -28 0 -24 -2 -24 -47 -16 -86 15 -170 11 -190 -9 -17 -18 -16 -18 47 -13
39 4 91 1 130 -7 l65 -14 -2 -34 c-2 -19 -3 -42 -3 -52 -1 -14 -6 -17 -18 -12
-9 4 -60 10 -112 12 -80 5 -98 3 -109 -11 -12 -15 -5 -16 83 -18 53 -1 108 -2
124 -2 22 -1 28 -6 32 -31 3 -16 3 -41 0 -54 -6 -24 -9 -25 -66 -21 -126 10
-203 4 -183 -14 2 -2 55 -6 117 -9 116 -6 133 -10 115 -28 -6 -6 -33 -6 -81 1
-54 9 -81 9 -108 0 -19 -7 -33 -14 -31 -16 3 -3 40 -6 83 -8 111 -5 132 -12
139 -47 9 -39 25 -27 25 19 0 20 4 53 9 72 8 29 19 111 21 156 0 10 138 41
143 33 1 -2 22 -42 46 -89 73 -142 100 -175 125 -150 6 6 3 17 -10 32 -11 13
-29 43 -39 68 -11 25 -32 65 -47 90 l-27 45 22 6 c28 7 151 0 197 -11 19 -5
73 -9 118 -9 46 0 86 -2 90 -5 8 -8 -54 -60 -98 -83 -52 -27 -90 -53 -90 -63
0 -4 16 -17 35 -29 22 -13 35 -28 35 -41 0 -43 35 -3 53 62 24 81 84 148 133
148 63 0 59 -21 -15 -93 -38 -37 -74 -67 -80 -67 -23 0 -10 -18 22 -30 17 -8
40 -20 49 -28 22 -19 40 -7 37 26 -6 78 0 93 53 143 49 46 98 65 98 38 0 -7 9
-9 22 -6 13 4 -9 -22 -55 -65 -43 -39 -77 -74 -77 -80 0 -8 82 -48 101 -48 5
0 9 7 9 15 0 19 2 19 61 -6 27 -12 51 -20 53 -18 2 2 7 27 10 55 7 69 14 83
54 118 33 29 88 53 99 42 7 -6 -40 -70 -90 -123 l-39 -41 33 -18 c59 -32 91
-44 100 -38 12 7 11 24 -1 24 -15 0 -70 42 -70 52 0 5 26 41 57 80 53 65 59
70 89 65 20 -4 37 -1 43 7 16 19 3 26 -54 26 -46 0 -53 3 -63 25 -19 40 -14
71 18 135 17 33 30 62 30 64 0 9 -143 -2 -180 -13 -51 -16 -81 -14 -74 4 7 17
-16 21 -32 6 -5 -6 -31 -19 -58 -31 -37 -15 -46 -17 -36 -5 16 19 6 19 -75 0
-61 -15 -92 -7 -81 21 3 7 2 15 -2 18 -13 8 -165 -38 -161 -49 2 -5 14 -9 25
-7 25 3 67 -58 58 -83 -4 -9 0 -15 9 -15 8 0 22 -11 31 -25 10 -15 22 -22 31
-19 12 5 12 10 -5 31 -21 27 -26 68 -10 93 13 21 19 10 35 -56 7 -33 17 -67
21 -78 7 -17 3 -18 -67 -12 -142 13 -174 17 -220 31 -26 7 -71 16 -100 20 -30
4 -70 14 -89 24 -35 16 -35 16 -38 90 -2 42 2 79 8 85 5 5 10 19 10 31 0 11 7
33 15 49 28 52 19 57 -37 22z m-12 -62 c-4 -9 -11 -36 -17 -60 l-11 -43 -24
28 c-31 38 -30 47 9 71 39 24 51 25 43 4z m-122 -16 c-15 -50 -21 -53 -38 -20
-21 41 -21 42 15 42 27 0 30 -3 23 -22z m54 -102 c11 -18 23 -43 27 -55 6 -20
3 -21 -49 -21 -45 0 -56 3 -56 16 0 19 41 94 51 94 4 0 16 -15 27 -34z m520
-11 c-9 -21 -28 -35 -28 -21 0 2 -3 11 -6 19 -5 14 6 21 38 26 4 0 2 -10 -4
-24z m458 16 c-11 -17 16 -136 35 -157 28 -30 24 -34 -31 -34 -42 0 -52 4 -66
25 -10 15 -13 32 -9 47 14 46 57 128 66 128 6 0 8 -4 5 -9z m64 0 c0 -5 -7
-14 -15 -21 -8 -7 -15 -10 -15 -7 0 3 -3 12 -6 21 -4 12 0 16 15 16 12 0 21
-4 21 -9z m-261 -38 c-5 -21 -9 -42 -9 -47 0 -11 -8 -5 -10 9 -1 6 -6 20 -11
33 -7 19 -5 24 14 32 12 5 23 9 23 9 1 1 -2 -16 -7 -36z m129 4 c-16 -47 -25
-53 -33 -18 -4 17 -13 31 -21 31 -8 0 -14 -1 -14 -3 0 -27 25 -128 36 -144 14
-23 14 -23 -35 -23 -64 0 -80 21 -54 74 9 20 20 36 25 36 4 0 5 7 2 15 -4 8
-4 25 0 38 4 19 13 22 55 24 l49 2 -10 -32z m-238 19 c0 -2 -12 -25 -27 -52
l-27 -49 -12 40 c-10 37 -9 41 10 52 20 12 56 17 56 9z m47 -46 c3 -16 8 -30
12 -30 3 0 7 -16 8 -35 2 -19 4 -41 5 -47 2 -9 -12 -14 -39 -16 -35 -3 -44 1
-58 22 -15 23 -15 27 -1 48 9 12 16 29 16 37 0 16 28 51 42 51 5 0 11 -13 15
-30z m-681 -70 c38 -15 20 -27 -53 -35 -58 -6 -63 -5 -63 12 0 11 3 23 7 26
10 11 78 8 109 -3z m914 -87 c0 -7 -113 -115 -151 -143 l-25 -19 -2 33 c-3 44
46 112 90 125 39 11 88 14 88 4z m-498 -118 c-6 -32 -16 -39 -32 -20 -11 13
-10 18 6 30 27 20 32 18 26 -10z m284 -20 c-3 -9 -11 -13 -16 -10 -8 5 -7 11
1 21 14 18 24 11 15 -11z m125 -16 c-8 -21 -10 -22 -16 -6 -4 10 -2 24 6 33
17 20 23 5 10 -27z m-290 8 c-10 -9 -11 -8 -5 6 3 10 9 15 12 12 3 -3 0 -11
-7 -18z"/>
<path d="M310 1161 c-8 -5 -12 -12 -10 -14 11 -10 230 -15 236 -6 3 6 4 12 2
14 -10 10 -214 15 -228 6z"/>
<path d="M347 1021 c-38 -15 -19 -21 76 -26 53 -2 97 0 97 4 0 9 -100 31 -134
30 -12 0 -29 -4 -39 -8z"/>
<path d="M1700 994 c-13 -33 -13 -81 0 -89 12 -8 17 6 23 68 5 51 -8 63 -23
21z"/>
<path d="M469 731 c-22 -18 -22 -20 -6 -26 14 -6 17 -20 17 -79 0 -43 -4 -66
-9 -57 -6 8 -11 10 -15 3 -4 -8 -20 -6 -48 4 -48 17 -89 18 -140 3 -52 -14
-48 -28 7 -21 53 5 195 -17 195 -32 0 -5 -5 -25 -12 -43 -13 -37 -24 -39 -94
-22 -34 9 -55 9 -85 0 -21 -7 -39 -15 -39 -19 0 -4 35 -9 78 -10 125 -5 122
-4 122 -31 0 -22 -2 -23 -42 -15 -63 13 -159 9 -169 -7 -10 -17 11 -31 27 -18
7 6 44 7 93 3 70 -6 81 -9 81 -25 0 -23 1 -23 -61 -3 -57 19 -108 13 -134 -16
-24 -27 -18 -31 32 -17 31 8 55 8 98 -2 52 -12 57 -15 52 -37 -5 -28 9 -42 26
-25 7 7 19 62 27 124 l16 112 95 -4 c98 -3 129 -16 129 -52 0 -9 16 -41 35
-70 58 -91 62 -95 74 -83 8 7 7 20 -6 45 -9 19 -19 36 -22 39 -19 16 -42 64
-39 83 3 25 25 29 96 16 25 -5 91 -11 145 -13 55 -3 101 -7 104 -10 3 -2 -12
-16 -34 -29 -21 -13 -44 -31 -51 -40 -8 -9 -27 -19 -43 -22 -41 -9 -45 -23
-17 -53 14 -15 28 -35 31 -44 8 -22 30 -23 47 -3 19 23 52 18 93 -16 38 -31
57 -31 57 1 0 16 5 18 38 13 40 -6 72 -28 72 -50 0 -18 27 -16 34 3 3 9 6 45
6 80 0 64 1 65 46 109 31 31 40 45 29 45 -9 0 -49 -34 -88 -75 -82 -84 -127
-105 -127 -56 0 40 25 85 63 113 27 21 44 25 110 26 45 1 77 -2 77 -8 0 -14
27 -13 32 2 3 7 28 10 74 8 107 -5 138 -1 151 17 10 13 10 20 1 31 -7 8 -14
23 -15 35 -4 23 43 127 58 127 5 0 9 7 9 16 0 12 -6 15 -22 10 -50 -15 -78
-17 -78 -6 0 8 -9 10 -27 5 -16 -4 -41 -9 -58 -11 -16 -2 -33 -8 -38 -13 -12
-12 -10 -79 2 -121 18 -57 15 -70 -17 -70 -15 0 -33 5 -40 12 -22 22 -14 86
18 145 17 31 29 57 27 59 -1 2 -20 -3 -42 -10 -27 -10 -47 -11 -66 -4 -18 6
-34 6 -48 -1 -11 -6 -31 -11 -45 -11 -14 0 -26 -4 -26 -8 0 -17 13 -21 37 -11
35 13 38 7 15 -38 l-20 -38 -7 28 c-4 15 -12 27 -17 27 -10 0 -9 -16 7 -94 3
-16 7 -34 8 -40 1 -6 -14 -12 -34 -14 -33 -3 -37 0 -42 25 -5 28 -1 74 10 103
4 8 7 19 7 23 1 4 6 11 13 15 6 4 15 20 18 35 8 30 6 30 -67 11 -9 -3 -19 0
-22 5 -4 6 -23 5 -53 -4 -25 -8 -49 -14 -52 -13 -17 2 -31 -4 -45 -18 -22 -21
-20 -37 2 -30 15 5 23 -2 35 -31 21 -48 33 -118 20 -110 -5 3 -47 8 -94 11
-46 3 -115 9 -154 15 -38 6 -88 12 -110 13 l-40 3 3 60 c2 34 13 78 25 102 11
24 18 46 14 49 -3 4 -22 -1 -41 -10 -43 -20 -46 -20 -46 3 0 15 -11 19 -69 25
-38 3 -76 8 -84 11 -7 3 -25 -3 -38 -14z m101 -46 c0 -10 -43 -85 -51 -91 -5
-3 -9 18 -9 45 0 50 1 51 30 51 17 0 30 -2 30 -5z m114 -67 c-4 -24 -8 -45
-10 -47 -3 -4 -34 68 -34 80 0 5 11 9 25 9 24 0 25 -2 19 -42z m-52 -45 c10
-27 18 -50 18 -53 0 -3 -34 -5 -75 -5 -75 0 -95 7 -52 19 15 4 30 23 45 58 26
59 35 57 64 -19z m595 31 l-11 -37 -8 29 c-5 19 -3 31 5 36 22 14 25 8 14 -28z
m-84 6 c-8 -29 -20 -33 -32 -11 -11 19 -6 23 31 30 3 0 4 -8 1 -19z m317 -10
c-15 -29 -30 -34 -30 -11 0 12 -5 21 -10 21 -15 0 -8 -102 7 -118 20 -21 4
-42 -31 -42 -17 0 -37 4 -45 9 -17 11 -10 75 15 127 17 37 20 39 61 36 38 -4
42 -6 33 -22z m130 25 c0 -4 -8 -20 -17 -38 l-17 -32 -6 25 c-7 27 5 50 26 50
8 0 14 -2 14 -5z m89 -12 c0 -5 -4 -17 -9 -28 -8 -18 -9 -17 -9 8 -1 15 4 27
9 27 6 0 10 -3 9 -7z m-51 -49 c0 -32 7 -56 21 -75 l22 -29 -46 0 c-39 0 -45
3 -51 24 -7 28 12 96 27 96 5 0 9 7 9 15 0 8 4 15 9 15 5 0 9 -21 9 -46z
m-434 -18 c25 -86 22 -98 -27 -89 -17 4 -27 12 -27 23 0 31 23 120 31 120 4 0
15 -24 23 -54z m-14 -179 c-44 -47 -115 -97 -138 -97 -2 0 -1 19 3 43 8 45 58
100 83 92 8 -3 19 1 26 8 8 7 29 13 47 13 l34 0 -55 -59z m-27 -98 c-4 -13 -9
-17 -15 -11 -11 11 -3 32 12 32 4 0 6 -9 3 -21z m133 -16 c-10 -10 -19 5 -10
18 6 11 8 11 12 0 2 -7 1 -15 -2 -18z"/>
<path d="M246 652 c-10 -16 2 -19 83 -21 41 -1 78 -4 83 -7 4 -3 15 -1 24 4
15 8 15 10 -1 16 -33 12 -182 19 -189 8z"/>
<path d="M265 522 c-59 -14 -28 -25 78 -29 108 -3 147 9 60 20 -27 3 -61 8
-78 11 -16 2 -43 1 -60 -2z"/>
<path d="M1439 338 c-80 -84 -97 -115 -58 -105 26 7 49 -1 49 -18 0 -13 29
-29 38 -21 2 3 4 39 4 80 0 74 0 75 34 98 33 22 45 48 23 48 -6 0 -46 -37 -90
-82z m-3 -75 c-10 -10 -19 5 -10 18 6 11 8 11 12 0 2 -7 1 -15 -2 -18z"/>
<path d="M1606 367 c-83 -88 -105 -116 -96 -122 6 -3 14 -4 19 0 6 3 26 -4 47
-15 20 -12 44 -18 53 -15 12 5 13 8 2 14 -9 6 -11 26 -8 72 3 50 8 66 25 77
12 8 22 18 22 23 0 20 -25 6 -64 -34z m-16 -84 c0 -20 -3 -24 -11 -16 -7 7 -9
19 -6 27 10 24 17 19 17 -11z"/>
</g>
</svg>
