<?xml version="1.0" standalone="no"?>
<!DOCTYPE svg PUBLIC "-//W3C//DTD SVG 20010904//EN"
 "http://www.w3.org/TR/2001/REC-SVG-20010904/DTD/svg10.dtd">
<svg version="1.0" xmlns="http://www.w3.org/2000/svg"
 width="178.000000pt" height="96.000000pt" viewBox="0 0 178.000000 96.000000"
 preserveAspectRatio="xMidYMid meet">
<metadata>
Created by potrace 1.16, written by Peter Selinger 2001-2019
</metadata>
<g transform="translate(0.000000,96.000000) scale(0.100000,-0.100000)"
fill="#000000" stroke="none">
<path d="M364 797 c-16 -8 -22 -19 -21 -44 1 -18 5 -33 9 -33 13 0 9 -47 -8
-112 -8 -33 -13 -66 -10 -73 2 -7 0 -17 -6 -23 -6 -6 -15 -88 -21 -182 -9
-145 -9 -173 4 -185 24 -23 53 -22 64 2 8 18 20 23 75 28 36 3 133 12 216 21
83 8 158 12 167 8 8 -3 24 -1 34 4 22 12 272 42 473 56 181 13 235 18 242 22
4 3 2 15 -4 28 -10 24 -43 36 -96 36 -15 0 -44 6 -67 14 -22 8 -128 43 -235
77 -107 34 -211 70 -231 80 l-36 18 3 93 c2 51 6 103 9 116 4 15 1 22 -9 22
-8 0 -16 5 -18 12 -3 8 -49 12 -149 14 -79 2 -193 5 -254 7 -65 2 -119 0 -131
-6z m493 -50 c25 0 30 -4 22 -13 -5 -7 -14 -59 -19 -116 -6 -56 -15 -125 -20
-153 -6 -27 -15 -84 -21 -125 -7 -41 -15 -78 -18 -82 -3 -4 -87 -14 -186 -23
-99 -9 -192 -20 -207 -25 -24 -8 -29 -6 -34 15 -12 50 22 495 40 513 2 2 77 5
166 7 89 2 165 6 168 10 4 4 23 3 42 -1 19 -4 50 -7 67 -7z m148 -302 c50 -14
104 -29 120 -34 33 -10 145 -41 240 -67 33 -8 77 -18 97 -21 72 -10 26 -23
-80 -23 -59 0 -193 -9 -297 -20 -105 -11 -196 -20 -203 -20 -11 0 -12 12 -8
48 3 26 8 73 12 105 4 33 11 57 18 57 7 0 52 -11 101 -25z"/>
</g>
</svg>
