<?xml version="1.0" standalone="no"?>
<!DOCTYPE svg PUBLIC "-//W3C//DTD SVG 20010904//EN"
 "http://www.w3.org/TR/2001/REC-SVG-20010904/DTD/svg10.dtd">
<svg version="1.0" xmlns="http://www.w3.org/2000/svg"
 width="278.000000pt" height="128.000000pt" viewBox="0 0 278.000000 128.000000"
 preserveAspectRatio="xMidYMid meet">
<metadata>
Created by potrace 1.16, written by Peter Selinger 2001-2019
</metadata>
<g transform="translate(0.000000,128.000000) scale(0.100000,-0.100000)"
fill="#000000" stroke="none">
<path d="M1158 1124 c-13 -12 -9 -21 10 -26 15 -4 20 -19 25 -68 8 -77 9 -148
1 -177 -6 -21 -9 -21 -132 -16 -159 7 -153 7 -177 -1 -13 -5 -16 -5 -7 1 17
13 -103 73 -145 73 -29 0 -30 -2 -37 -52 -3 -29 -6 -77 -6 -105 0 -38 -4 -53
-14 -53 -13 0 -21 -43 -32 -171 -6 -76 12 -84 75 -31 25 21 57 45 71 52 14 7
27 16 30 19 16 19 120 40 229 46 l124 7 -6 -34 c-15 -83 -18 -166 -8 -173 6
-3 9 -11 5 -16 -3 -5 -6 -30 -6 -55 0 -25 -3 -58 -8 -73 -15 -55 9 -54 69 1
58 53 123 98 141 98 6 0 30 9 53 20 30 15 70 22 142 26 l99 6 -49 -41 c-28
-23 -50 -45 -50 -49 -2 -16 -19 -58 -32 -79 -13 -19 -19 -21 -35 -12 -20 11
-18 13 23 50 54 48 42 52 -15 6 -23 -19 -51 -39 -63 -46 -31 -16 -29 -29 10
-47 17 -9 49 -24 71 -35 48 -25 63 -15 46 33 -11 30 -10 39 9 77 13 24 20 48
18 55 -3 7 12 23 32 37 20 13 42 30 49 36 7 7 23 15 35 17 46 10 110 14 123 9
12 -4 -182 -178 -213 -190 -6 -2 -14 -11 -17 -20 -5 -12 -1 -14 19 -11 18 4
36 -3 62 -23 52 -42 100 -36 71 10 -9 15 -9 28 1 63 25 83 32 95 77 133 l46
38 146 14 c171 17 231 20 252 10 8 -4 22 -2 30 3 12 8 13 13 3 30 -23 36 -13
129 23 207 8 17 14 34 14 39 0 4 6 15 14 23 7 9 29 45 48 81 55 105 88 153
127 187 20 17 34 34 31 36 -14 14 -66 14 -116 1 -30 -8 -91 -14 -134 -14 l-79
0 5 -32 c3 -18 9 -46 13 -63 4 -16 9 -63 10 -102 l2 -73 -115 0 c-126 0 -116
-4 -172 68 -17 21 -24 38 -19 50 13 32 45 165 41 169 -4 4 -39 -13 -116 -57
-39 -23 -47 -15 -31 30 9 26 8 30 -9 30 -10 0 -22 -5 -25 -11 -4 -6 -39 -31
-78 -56 l-70 -45 31 -24 c17 -13 36 -41 42 -62 7 -20 24 -49 38 -65 l26 -27
-89 6 c-50 3 -111 13 -137 22 l-47 15 15 29 c8 16 31 47 51 69 20 22 33 42 30
45 -2 3 17 27 45 55 27 27 46 54 43 59 -4 6 -55 10 -119 10 -72 0 -116 4 -124
12 -6 6 -33 12 -59 13 -26 1 -93 6 -148 10 -55 4 -103 4 -107 -1z m185 -44
c31 0 57 -4 57 -8 0 -5 -12 -22 -26 -38 -14 -16 -36 -45 -50 -64 -13 -19 -32
-46 -41 -60 -51 -74 -48 -76 -47 49 1 142 -1 135 27 127 12 -3 48 -6 80 -6z
m152 -37 c-3 -10 -8 -45 -11 -78 -2 -33 -9 -100 -14 -150 -6 -49 -10 -106 -9
-125 0 -19 -2 -72 -5 -117 -3 -54 -1 -85 6 -89 15 -10 28 16 28 57 0 33 4 38
54 64 30 16 80 50 111 77 63 54 88 63 145 54 22 -3 41 -2 45 4 3 5 36 10 73
10 37 1 129 2 204 3 l138 2 0 -46 c0 -25 -5 -72 -12 -105 -6 -32 -11 -70 -12
-84 -1 -25 -3 -25 -121 -37 -66 -6 -135 -12 -154 -12 -33 -1 -34 -1 -16 19 15
16 15 20 3 20 -8 0 -23 -9 -32 -19 -14 -15 -34 -20 -96 -23 -62 -2 -76 0 -68
10 15 17 -7 16 -36 -3 -34 -23 -370 -14 -451 11 l-57 18 4 54 c3 30 11 58 18
62 11 7 11 11 1 24 -16 19 -6 106 16 151 53 105 192 265 231 265 19 0 23 -4
17 -17z m140 7 c5 -8 -15 -40 -84 -137 -9 -12 -19 -23 -23 -23 -9 0 -9 79 -2
133 6 37 6 37 54 37 27 0 51 -4 55 -10z m839 -22 c-4 -7 -15 -24 -24 -38 -10
-14 -34 -56 -55 -95 -42 -76 -83 -145 -88 -145 -2 0 -3 30 -3 68 0 37 -3 97
-8 134 l-7 67 33 -5 c18 -2 58 2 88 10 72 18 72 18 64 4z m-524 -17 c-5 -11
-10 -33 -10 -50 0 -41 -11 -44 -38 -10 l-22 28 30 17 c16 10 30 22 30 26 0 4
5 8 10 8 7 0 7 -6 0 -19z m-164 -44 c-17 -50 -21 -52 -40 -21 -10 14 -16 27
-14 29 7 6 63 33 65 31 1 -1 -4 -18 -11 -39z m88 -32 c9 -13 17 -34 19 -45 2
-12 20 -37 40 -55 20 -19 37 -38 37 -43 0 -5 -28 -10 -62 -10 l-63 -1 -26 41
c-26 40 -26 42 -11 89 18 56 40 64 66 24z m-1006 -126 c13 -4 -100 -89 -119
-89 -10 0 -13 99 -3 123 5 13 13 12 57 -7 29 -13 58 -25 65 -27z m305 -17 c12
-1 15 -6 10 -14 -4 -7 -8 -35 -8 -63 l0 -49 -40 -8 c-35 -7 -151 -3 -225 7
-14 2 -49 6 -78 10 -46 6 -51 9 -40 23 22 27 101 72 126 72 13 0 29 6 36 13
12 11 138 16 219 9z m457 -36 c25 -3 48 -5 53 -5 11 -1 -60 -62 -117 -101 -39
-26 -50 -30 -57 -19 -5 8 -7 23 -4 34 2 11 5 45 5 76 l0 56 38 -18 c20 -10 57
-21 82 -23z m-875 -106 c3 -5 29 -12 56 -16 l51 -7 -62 -33 c-35 -18 -70 -40
-80 -49 -26 -23 -30 -19 -30 30 0 57 44 109 65 75z m570 -220 c56 -4 74 -9 60
-14 -71 -30 -105 -49 -142 -82 l-43 -37 0 54 c0 75 9 102 29 93 9 -4 52 -10
96 -14z m386 -169 c-7 -13 -17 -17 -32 -14 -20 6 -20 7 8 29 30 24 41 18 24
-15z"/>
<path d="M696 1023 c-126 -118 -187 -164 -398 -305 -32 -21 -58 -43 -58 -48 0
-15 48 -82 84 -114 18 -17 87 -82 153 -144 126 -117 184 -162 208 -162 25 0
17 14 -37 72 -29 30 -84 90 -123 132 -38 43 -72 80 -75 82 -10 10 7 128 36
259 2 11 42 48 87 83 89 68 217 187 217 203 0 21 -25 6 -94 -58z m-246 -252
c0 -5 -7 -36 -15 -68 -8 -32 -16 -71 -17 -88 -1 -16 -3 -33 -5 -37 -5 -10 -42
26 -78 75 -27 36 -27 38 -9 52 10 8 24 15 29 15 6 0 26 14 45 30 35 31 50 37
50 21z"/>
</g>
</svg>
