<?xml version="1.0" standalone="no"?>
<!DOCTYPE svg PUBLIC "-//W3C//DTD SVG 20010904//EN"
 "http://www.w3.org/TR/2001/REC-SVG-20010904/DTD/svg10.dtd">
<svg version="1.0" xmlns="http://www.w3.org/2000/svg"
 width="228.000000pt" height="120.000000pt" viewBox="0 0 228.000000 120.000000"
 preserveAspectRatio="xMidYMid meet">
<metadata>
Created by potrace 1.16, written by Peter Selinger 2001-2019
</metadata>
<g transform="translate(0.000000,120.000000) scale(0.100000,-0.100000)"
fill="#000000" stroke="none">
<path d="M875 1055 c-19 -8 -32 -23 -37 -41 -4 -16 -11 -47 -16 -69 -6 -22
-13 -74 -16 -115 -10 -121 -17 -203 -21 -227 -2 -12 -7 -62 -10 -112 -8 -94
-23 -127 -48 -102 -15 16 -15 285 1 356 6 28 18 93 28 145 9 52 21 99 25 105
13 14 11 25 -5 25 -19 0 -32 -40 -50 -150 -33 -199 -48 -334 -50 -435 -1 -55
-3 -60 -25 -63 l-24 -4 7 109 c14 228 18 269 26 308 6 26 5 42 -2 46 -7 5 -7
8 0 10 6 2 13 22 16 44 2 22 8 57 12 78 4 24 3 37 -4 37 -17 0 -30 -31 -41
-101 -10 -63 -14 -104 -31 -329 -13 -179 -18 -200 -46 -200 -22 0 -23 4 -26
78 -3 73 3 168 17 268 9 71 46 218 57 231 6 7 8 20 4 28 -8 21 -36 19 -36 -4
0 -10 -7 -35 -15 -54 -8 -20 -15 -53 -15 -74 0 -21 -7 -75 -15 -120 -8 -45
-17 -141 -20 -214 -4 -73 -9 -137 -11 -141 -3 -4 -21 -8 -39 -8 l-35 0 5 138
c3 75 14 193 25 262 12 69 23 139 26 157 3 18 12 39 20 48 8 8 12 20 9 25 -4
6 -2 17 5 25 8 10 8 15 -4 22 -22 12 -299 -5 -312 -20 -11 -11 -9 -34 20 -328
2 -20 7 -61 12 -90 4 -30 7 -145 6 -256 l-2 -203 25 0 c13 0 39 8 57 19 19 11
72 23 128 30 89 11 149 21 343 57 42 8 90 14 106 14 15 0 127 16 247 35 289
46 329 52 459 70 159 22 265 42 302 55 25 9 44 8 93 -4 34 -9 70 -16 81 -16
31 0 22 28 -12 35 -29 7 -30 8 -14 25 9 10 14 23 11 28 -7 12 -75 14 -112 2
-25 -8 -66 -3 -205 26 -96 20 -231 46 -300 59 -69 12 -135 28 -147 34 -12 6
-65 23 -119 37 -109 28 -180 59 -194 86 -9 17 -5 35 38 163 9 28 31 68 50 89
23 27 30 43 23 50 -6 6 -45 9 -90 7 -66 -2 -81 0 -86 13 -7 19 -9 19 -49 1z
m-450 -82 c-22 -55 -54 -163 -58 -198 -4 -36 -17 -92 -49 -210 l-11 -40 -8 29
c-4 16 -11 61 -14 100 -4 39 -9 82 -11 96 -8 44 -24 184 -24 208 0 13 3 21 8
19 4 -3 34 -2 67 3 101 13 108 12 100 -7z m469 1 c5 -14 -17 -43 -34 -44 -3 0
-5 -53 -4 -118 0 -64 -5 -151 -12 -192 -7 -41 -15 -109 -18 -150 -3 -47 -9
-76 -17 -79 -9 -3 -11 24 -5 120 3 68 8 142 11 164 2 22 7 74 10 115 7 95 14
138 27 173 12 30 33 36 42 11z m110 -16 c-3 -13 -13 -38 -20 -57 -8 -18 -14
-43 -14 -54 0 -48 -15 1 -20 64 l-5 69 33 0 c30 0 33 -2 26 -22z m-89 -248
c-3 -63 -12 -140 -20 -170 -8 -30 -15 -76 -15 -102 0 -32 -4 -48 -12 -48 -16
0 -18 44 -7 140 5 41 14 147 20 235 6 87 13 164 17 170 12 19 22 -109 17 -225z
m-483 23 c-20 -131 -47 -336 -47 -358 0 -15 -17 -25 -42 -25 -28 0 -28 -2 1
90 24 74 79 314 91 398 4 24 9 41 12 38 3 -3 -4 -68 -15 -143z m558 -51 c0
-10 71 -40 128 -54 26 -6 86 -24 133 -39 47 -16 139 -37 205 -48 105 -18 240
-45 269 -55 11 -3 -167 -22 -295 -31 -47 -3 -116 -14 -155 -25 -42 -11 -109
-19 -170 -20 -55 -1 -116 -3 -135 -4 -23 -1 -34 3 -33 11 2 7 5 45 8 85 8 95
25 188 36 188 5 0 9 -3 9 -8z m734 -247 c9 -12 19 -13 46 -6 63 16 100 21 100
12 0 -11 -213 -48 -315 -55 -44 -3 -118 -13 -165 -21 -122 -21 -408 -65 -428
-65 -12 0 -18 9 -19 29 -3 37 8 40 164 47 65 3 138 11 163 19 25 8 101 19 170
25 69 6 148 15 175 19 76 13 97 12 109 -4z m-812 -118 c4 -22 1 -24 -161 -50
-91 -15 -209 -32 -261 -37 -52 -5 -112 -15 -133 -21 -22 -6 -42 -8 -45 -4 -10
9 -7 74 4 85 5 5 70 14 144 19 74 6 168 17 208 26 100 21 158 20 171 -2 9 -16
10 -16 11 -1 0 37 54 25 62 -15z"/>
</g>
</svg>
