<?xml version="1.0" standalone="no"?>
<!DOCTYPE svg PUBLIC "-//W3C//DTD SVG 20010904//EN"
 "http://www.w3.org/TR/2001/REC-SVG-20010904/DTD/svg10.dtd">
<svg version="1.0" xmlns="http://www.w3.org/2000/svg"
 width="140.000000pt" height="138.000000pt" viewBox="0 0 140.000000 138.000000"
 preserveAspectRatio="xMidYMid meet">
<metadata>
Created by potrace 1.16, written by Peter Selinger 2001-2019
</metadata>
<g transform="translate(0.000000,138.000000) scale(0.100000,-0.100000)"
fill="#000000" stroke="none">
<path d="M477 1215 c3 -9 51 -52 107 -96 55 -45 102 -84 104 -89 1 -4 -24 -43
-56 -86 -87 -118 -150 -212 -157 -235 -7 -20 -11 -17 -59 30 -29 28 -55 49
-59 46 -4 -3 -3 1 3 7 16 19 12 38 -7 38 -25 -1 -46 -19 -76 -66 -14 -23 -46
-66 -69 -95 -24 -30 -47 -62 -50 -71 -9 -22 16 -41 42 -33 40 13 189 -19 320
-69 63 -23 299 -141 314 -156 7 -7 -7 -27 -40 -59 -67 -66 -110 -129 -97 -142
11 -11 38 13 95 86 17 22 44 51 60 63 l28 24 48 -28 c87 -51 133 -74 150 -74
15 1 14 3 -3 15 -33 25 -115 89 -136 107 -19 15 -19 19 -6 45 20 37 126 138
155 147 12 4 28 22 36 40 8 18 37 52 65 76 28 23 48 46 46 50 -3 4 -21 15 -41
25 -53 25 -196 120 -301 201 -72 54 -88 71 -75 77 40 18 136 84 146 100 9 15
6 22 -14 38 -14 11 -46 38 -73 60 -35 30 -53 39 -68 34 -14 -5 -19 -13 -16
-26 3 -10 1 -21 -3 -24 -4 -3 -22 -30 -39 -60 -17 -30 -36 -55 -42 -55 -15 0
-58 31 -146 107 -76 64 -97 76 -86 48z m373 -85 c14 -11 31 -20 38 -20 23 0 0
-26 -57 -64 -58 -39 -59 -40 -80 -27 -12 8 -7 21 25 70 21 33 41 61 44 61 3 0
16 -9 30 -20z m-100 -136 c0 -4 -25 -31 -55 -61 -30 -30 -55 -50 -55 -44 0 6
4 11 8 11 4 0 21 23 37 50 18 31 36 50 47 50 10 0 18 -3 18 -6z m97 -75 c13
-7 22 -18 20 -24 -1 -6 6 -19 16 -30 55 -62 97 -118 97 -129 0 -7 9 -21 21
-32 22 -20 51 -69 55 -92 1 -8 10 -22 20 -33 9 -10 12 -19 7 -19 -6 0 -53 -40
-104 -90 -104 -100 -96 -98 -169 -30 -35 33 -163 125 -251 182 -46 29 -46 30
-33 57 12 24 109 134 216 245 36 36 39 37 60 24 13 -8 33 -21 45 -29z m218
-156 c6 -5 22 -14 38 -22 15 -8 27 -18 27 -23 0 -5 12 -13 27 -19 l28 -10 -40
-34 c-36 -31 -41 -32 -52 -17 -30 43 -92 120 -135 167 -27 29 -48 55 -48 59 0
5 109 -66 155 -101z m-669 -48 c29 -31 54 -63 56 -73 2 -10 12 -16 23 -15 10
1 44 -15 74 -36 126 -84 207 -145 224 -167 16 -21 10 -19 -50 13 -144 76 -276
126 -415 158 -43 10 -78 20 -78 22 0 2 5 9 10 16 39 45 89 121 84 128 -3 5 1
9 8 9 7 0 36 -25 64 -55z"/>
</g>
</svg>
