<?xml version="1.0" standalone="no"?>
<!DOCTYPE svg PUBLIC "-//W3C//DTD SVG 20010904//EN"
 "http://www.w3.org/TR/2001/REC-SVG-20010904/DTD/svg10.dtd">
<svg version="1.0" xmlns="http://www.w3.org/2000/svg"
 width="280.000000pt" height="115.000000pt" viewBox="0 0 280.000000 115.000000"
 preserveAspectRatio="xMidYMid meet">
<metadata>
Created by potrace 1.16, written by Peter Selinger 2001-2019
</metadata>
<g transform="translate(0.000000,115.000000) scale(0.100000,-0.100000)"
fill="#000000" stroke="none">
<path d="M2511 1114 c-58 -7 -111 -10 -118 -7 -7 3 -20 0 -28 -7 -13 -11 -13
-14 2 -26 17 -13 17 -13 -3 -14 -25 0 -205 -74 -294 -120 -36 -18 -72 -34 -80
-35 -8 -1 -31 -7 -51 -13 -24 -9 -55 -10 -97 -4 -34 5 -88 5 -119 0 -67 -9
-172 -1 -223 17 -19 8 -53 15 -76 18 -22 3 -65 16 -94 30 -58 28 -80 25 -101
-15 -10 -19 -5 -165 6 -177 3 -2 1 -9 -5 -16 -6 -7 -4 -25 4 -50 27 -82 28
-95 7 -95 -11 0 -24 7 -29 16 -7 13 -13 14 -30 5 -21 -11 -244 -17 -260 -7 -4
2 -39 7 -77 11 -38 3 -90 15 -116 26 l-47 20 35 52 c33 50 48 69 122 150 38
42 31 61 -16 48 -13 -3 -65 -3 -116 1 -112 8 -217 0 -217 -17 0 -7 7 -18 15
-25 8 -7 15 -19 15 -26 0 -8 4 -14 9 -14 5 0 13 -15 16 -32 4 -18 11 -37 15
-43 13 -18 21 -116 25 -320 5 -214 11 -292 26 -301 15 -9 19 14 22 130 l4 110
34 29 c108 92 152 128 169 137 11 6 82 13 158 16 75 2 148 5 162 7 18 1 26 -3
28 -18 2 -11 10 -35 19 -53 8 -19 15 -59 14 -90 -1 -251 -1 -252 28 -252 9 0
39 15 66 33 28 18 79 48 115 66 36 18 74 42 85 52 17 15 43 19 150 24 72 3
144 7 162 9 27 3 62 -1 150 -19 12 -3 25 -14 28 -26 5 -14 12 -18 23 -13 22 9
62 6 76 -5 6 -5 29 -12 51 -16 22 -4 54 -16 70 -25 17 -10 32 -18 35 -18 21 0
60 -31 84 -70 19 -29 32 -40 35 -31 2 7 10 20 18 27 8 9 13 38 13 80 0 37 5
99 11 137 6 39 12 99 13 135 2 36 7 103 10 150 4 47 9 116 12 153 4 55 11 78
40 122 18 30 34 59 34 65 0 5 4 10 9 10 17 0 102 118 88 122 -6 2 -59 -2 -116
-8z m62 -37 c-5 -6 -25 -32 -45 -57 -20 -25 -44 -61 -54 -80 l-18 -35 -7 45
c-4 25 -5 53 -3 62 3 9 -3 21 -12 26 -24 14 -11 40 23 44 75 10 125 8 116 -5z
m-243 -61 c0 -2 -9 -6 -20 -9 -11 -3 -18 -1 -14 4 5 9 34 13 34 5z m64 -15 c5
-8 -33 -111 -45 -121 -3 -3 -9 -14 -14 -25 -7 -17 -9 -14 -16 20 -11 55 -2 91
28 115 28 22 39 25 47 11z m-110 -46 c-4 -67 -38 -160 -67 -184 -16 -12 -17
-8 -17 46 0 37 6 67 16 81 9 13 14 25 12 27 -2 2 -25 5 -51 6 -26 2 -47 6 -47
10 0 8 44 21 83 25 15 1 31 5 35 8 12 13 37 0 36 -19z m-964 -43 c19 -9 51
-19 71 -20 48 -4 59 -7 94 -22 28 -11 209 -18 260 -9 15 3 25 -7 42 -41 20
-43 22 -66 2 -55 -5 4 -89 6 -187 5 -98 0 -181 3 -185 6 -4 4 17 18 45 31 37
17 48 27 41 34 -8 8 -32 0 -86 -30 -41 -22 -81 -41 -90 -41 -8 0 -20 -7 -27
-15 -21 -25 -29 -5 -36 88 -8 98 -5 101 56 69z m1070 -107 c-20 -32 -14 -55
10 -40 12 7 12 4 0 -110 -5 -49 -12 -137 -15 -195 -4 -58 -8 -126 -10 -152 -2
-27 0 -50 4 -52 5 -3 6 -77 1 -106 0 -3 -9 13 -19 35 -22 48 -44 68 -94 86
-21 7 -43 19 -49 26 -12 15 -22 163 -21 321 1 109 1 113 27 133 15 11 35 37
46 57 l19 37 1 -35 c1 -19 4 -46 6 -60 2 -14 3 -56 2 -95 -5 -207 3 -385 18
-385 17 0 24 105 21 329 -3 208 -4 201 54 301 14 25 14 25 17 -18 2 -30 -3
-53 -18 -77z m-225 83 c-7 -34 -57 -137 -70 -141 -6 -3 -9 13 -6 45 2 36 -2
54 -15 69 -18 20 -44 26 -44 9 0 -5 -5 -10 -11 -10 -6 0 -44 -29 -84 -65 l-73
-66 -20 61 c-12 33 -20 60 -19 61 1 0 27 3 57 5 45 3 104 17 205 49 6 2 27 4
47 4 33 1 36 -1 33 -21z m-1355 -2 c0 -3 -18 -25 -39 -50 -21 -24 -54 -65 -72
-91 -45 -62 -67 -58 -86 14 -7 30 -18 60 -23 66 -5 6 -13 23 -19 38 l-11 27
125 0 c69 0 125 -2 125 -4z m1248 -63 c-2 -11 -14 -19 -31 -21 -30 -4 -36 12
-9 27 26 16 44 13 40 -6z m107 -31 c-14 -73 -6 -306 11 -334 3 -4 1 -8 -5 -8
-5 0 -7 -12 -4 -27 2 -16 6 -49 8 -75 2 -41 0 -48 -16 -48 -10 0 -21 4 -24 10
-3 5 -27 16 -53 23 -46 14 -47 15 -53 63 -4 27 -4 68 -1 92 2 23 1 42 -3 42
-4 0 -34 -23 -67 -50 -33 -28 -62 -49 -64 -47 -3 2 0 35 5 72 10 69 40 117 82
130 9 3 20 18 24 32 3 15 15 37 25 50 l19 24 6 -38 c3 -21 8 -46 10 -57 2 -10
0 -28 -5 -41 -11 -29 -17 -161 -8 -171 4 -4 10 -1 12 7 8 22 29 210 28 244 -1
18 7 39 22 55 13 14 29 35 35 48 14 27 21 29 16 4z m-135 -24 c0 -19 -34 -68
-51 -73 -9 -3 -20 -16 -23 -28 -3 -12 -15 -33 -26 -47 l-20 -25 0 70 c0 62 3
72 23 85 38 25 97 37 97 18z m-504 -31 c3 -3 -30 -19 -73 -37 -43 -18 -92 -41
-109 -51 -41 -25 -49 -24 -62 6 -19 41 -15 49 34 71 37 17 61 21 126 18 44 -1
82 -5 84 -7z m282 -3 c13 -2 21 -8 18 -13 -7 -11 24 -52 35 -46 14 9 15 -83 3
-202 -6 -69 -9 -74 -41 -93 -31 -18 -51 -20 -240 -19 -114 0 -210 2 -215 5
-20 13 61 60 122 71 13 2 32 11 40 18 11 10 58 16 153 21 93 5 135 10 128 17
-14 14 -429 5 -453 -9 -4 -3 -8 -1 -8 5 0 15 79 49 147 64 77 18 86 42 12 32
-30 -4 -58 -11 -64 -15 -5 -4 -21 -10 -36 -13 -14 -4 -45 -20 -70 -37 -60 -40
-84 -39 -99 5 -6 19 -17 35 -23 35 -7 1 2 8 18 17 31 17 175 21 448 14 162 -5
177 14 20 24 -65 4 -165 10 -223 14 l-105 6 70 34 c85 40 161 69 195 73 31 4
137 -1 168 -8z m-1051 -140 c34 -9 63 -20 63 -25 0 -5 -4 -9 -8 -9 -5 0 -43
-29 -85 -65 -42 -36 -80 -65 -84 -65 -16 0 -14 110 2 133 8 12 15 30 15 40 0
14 5 17 17 13 9 -4 45 -14 80 -22z m713 -128 c0 -2 -30 -18 -66 -35 -36 -17
-77 -40 -91 -51 -35 -27 -41 -26 -52 16 -12 44 -6 62 22 66 37 5 187 8 187 4z
m517 -103 c-10 -9 -108 10 -104 21 2 6 23 26 48 45 l44 34 8 -48 c4 -26 6 -49
4 -52z m-507 -42 c0 -5 -41 -28 -90 -52 -50 -23 -95 -49 -101 -56 -22 -25 -29
-12 -29 52 l0 65 110 0 c61 0 110 -4 110 -9z"/>
<path d="M257 683 c-80 -60 -146 -114 -146 -120 -1 -7 23 -31 52 -53 77 -59
126 -104 127 -115 0 -17 179 -177 223 -200 12 -6 32 -18 44 -25 46 -29 32 0
-31 65 -71 71 -92 119 -100 221 -3 27 -7 74 -11 104 -12 105 -12 135 2 174 12
37 10 56 -6 56 -4 0 -73 -48 -154 -107z m125 33 c-15 -54 -7 -221 16 -306 l20
-74 -97 101 c-53 55 -108 108 -123 118 -16 9 -28 23 -28 30 0 13 211 177 218
170 2 -2 -1 -19 -6 -39z"/>
</g>
</svg>
