<?xml version="1.0" standalone="no"?>
<!DOCTYPE svg PUBLIC "-//W3C//DTD SVG 20010904//EN"
 "http://www.w3.org/TR/2001/REC-SVG-20010904/DTD/svg10.dtd">
<svg version="1.0" xmlns="http://www.w3.org/2000/svg"
 width="236.000000pt" height="112.000000pt" viewBox="0 0 236.000000 112.000000"
 preserveAspectRatio="xMidYMid meet">
<metadata>
Created by potrace 1.16, written by Peter Selinger 2001-2019
</metadata>
<g transform="translate(0.000000,112.000000) scale(0.100000,-0.100000)"
fill="#000000" stroke="none">
<path d="M1815 949 c-29 -17 -29 -17 -16 -33 7 -8 11 -25 9 -38 -3 -23 -5 -23
-118 -23 -159 1 -210 9 -292 50 -39 19 -74 32 -79 29 -5 -2 -11 -20 -15 -38
-4 -26 -12 -35 -32 -39 -35 -7 -104 2 -120 15 -9 8 -20 8 -37 0 -24 -11 -25
-13 -18 -101 4 -61 2 -105 -7 -135 -13 -46 -26 -58 -36 -32 -4 10 -15 11 -52
3 -26 -5 -59 -9 -73 -9 -22 1 -100 35 -195 85 -20 11 -20 13 33 104 50 85 53
94 39 109 -9 8 -16 11 -16 5 0 -14 -36 -24 -60 -16 -11 3 -20 12 -20 19 0 8
-11 12 -30 11 -16 -1 -43 -2 -58 -3 -17 -1 -44 -17 -68 -39 -52 -50 -140 -116
-189 -142 -81 -44 -130 -72 -139 -81 -8 -8 10 -45 38 -77 6 -7 27 -34 46 -60
19 -26 54 -65 77 -87 24 -22 43 -49 43 -60 0 -15 3 -17 12 -8 8 8 20 4 46 -19
19 -17 36 -28 39 -26 2 3 -8 24 -23 47 -28 42 -28 43 -26 198 1 86 7 174 14
196 6 23 11 45 10 49 -2 5 1 6 6 3 5 -3 22 8 37 24 l29 30 22 -38 c20 -34 21
-47 17 -152 -5 -125 -7 -157 -16 -180 -16 -42 -23 -248 -9 -262 16 -16 43 58
44 119 1 60 11 83 34 83 18 0 68 20 62 25 -2 3 -19 0 -38 -5 -18 -5 -31 -8
-29 -6 53 46 127 100 148 107 18 6 37 6 55 -1 15 -5 67 -10 116 -10 84 0 89
-1 92 -22 2 -13 0 -39 -4 -58 -4 -19 -8 -49 -8 -66 0 -26 -5 -33 -25 -38 -21
-5 -25 -12 -24 -39 1 -17 8 -54 15 -81 8 -27 14 -69 14 -93 0 -35 3 -43 18
-43 11 0 27 10 38 21 27 31 108 81 183 112 63 27 66 28 292 27 207 0 229 2
238 18 5 9 14 58 21 107 6 50 17 119 25 155 7 35 11 68 9 72 -12 20 89 218
142 279 24 27 16 35 -43 48 -98 20 -127 22 -148 10z m141 -52 c3 -3 -14 -41
-37 -86 -44 -83 -59 -89 -59 -24 0 17 -4 43 -9 56 -5 14 -7 35 -4 47 5 20 11
22 55 18 26 -3 51 -8 54 -11z m-551 -53 l56 -26 -33 -22 c-32 -22 -97 -56
-106 -56 -2 0 -1 12 3 28 16 59 17 95 4 87 -8 -5 -10 -4 -5 3 10 17 16 15 81
-14z m-658 -40 c-11 -24 -25 -44 -29 -44 -4 0 -8 -6 -8 -13 0 -8 -11 -24 -24
-36 l-24 -22 -5 63 c-3 35 -8 72 -12 83 -6 19 -2 20 59 17 l65 -4 -22 -44z
m491 1 c4 -3 -79 -95 -86 -95 -4 0 -8 24 -10 54 l-2 54 47 -6 c27 -2 49 -6 51
-7z m578 -107 c-4 -68 -9 -139 -12 -158 -6 -43 -12 -137 -13 -209 l-1 -54 -62
8 c-35 4 -117 9 -183 11 -113 4 -149 7 -350 34 -111 15 -105 9 -90 82 7 35 16
96 20 137 9 91 40 154 106 216 26 25 52 45 57 45 11 0 7 -46 -8 -85 -19 -49 3
-53 64 -12 31 21 58 37 62 37 3 0 21 12 40 26 32 25 43 27 151 30 64 2 118 6
121 9 3 3 28 5 55 5 l49 0 -6 -122z m-1382 37 c-13 -11 -14 -14 -4 -13 11 2
14 -5 13 -27 -2 -16 -5 -75 -7 -130 -3 -55 -5 -102 -5 -104 -2 -7 -91 113 -91
122 0 5 -9 22 -21 38 -11 16 -19 35 -16 42 2 7 26 23 53 37 27 13 58 32 68 42
11 10 22 16 25 13 2 -3 -4 -12 -15 -20z m335 -151 c5 3 11 0 14 -7 6 -15 -99
-97 -124 -97 -14 0 -15 8 -7 63 14 94 12 92 63 62 25 -14 49 -24 54 -21z m410
-293 c45 -6 87 -13 93 -17 5 -3 -14 -16 -44 -28 -29 -12 -71 -34 -93 -49 -22
-15 -43 -27 -47 -27 -5 0 -8 16 -8 35 0 19 -5 46 -12 60 -10 21 -9 28 2 35 8
5 17 7 20 5 4 -2 43 -9 89 -14z"/>
</g>
</svg>
