<?xml version="1.0" standalone="no"?>
<!DOCTYPE svg PUBLIC "-//W3C//DTD SVG 20010904//EN"
 "http://www.w3.org/TR/2001/REC-SVG-20010904/DTD/svg10.dtd">
<svg version="1.0" xmlns="http://www.w3.org/2000/svg"
 width="175.000000pt" height="114.000000pt" viewBox="0 0 175.000000 114.000000"
 preserveAspectRatio="xMidYMid meet">
<metadata>
Created by potrace 1.16, written by Peter Selinger 2001-2019
</metadata>
<g transform="translate(0.000000,114.000000) scale(0.100000,-0.100000)"
fill="#000000" stroke="none">
<path d="M1278 1022 c-12 -17 -156 -135 -212 -175 -37 -26 -33 -44 12 -51 20
-3 56 -8 79 -12 l42 -6 -35 -46 c-18 -26 -53 -75 -76 -109 -24 -35 -46 -63
-50 -63 -4 0 -6 29 -4 65 3 35 1 79 -4 96 -8 27 -6 32 10 36 25 7 25 7 -6 38
-14 15 -32 24 -40 21 -15 -6 -19 -32 -6 -38 11 -4 -3 -245 -17 -280 -6 -15
-11 -63 -12 -108 -1 -62 2 -85 14 -98 16 -17 13 -20 -36 -50 -28 -17 -61 -34
-72 -38 -11 -5 -26 -14 -33 -21 -31 -30 24 -11 102 36 131 79 161 91 196 85
20 -5 36 -2 48 8 9 8 37 23 61 32 42 16 66 22 186 47 48 10 105 34 105 45 0 3
-6 17 -14 32 -7 15 -18 48 -25 74 -9 37 -27 63 -83 123 -40 43 -77 89 -81 104
-5 14 -8 81 -8 149 0 99 -2 122 -14 122 -7 0 -20 -8 -27 -18z m-2 -122 c-1
-44 -2 -80 -3 -80 -14 0 -72 37 -86 56 -17 23 -17 24 4 41 12 10 33 28 48 40
14 12 29 23 32 23 3 0 5 -36 5 -80z m-106 -81 c0 -3 -18 -1 -40 4 -46 13 -49
20 -17 34 18 9 25 7 39 -11 10 -11 18 -24 18 -27z m100 -94 l34 -35 -46 0
c-56 0 -101 -16 -95 -33 2 -6 9 -11 14 -10 6 1 5 -20 -3 -54 -7 -32 -11 -91
-9 -135 l4 -78 -42 -28 c-23 -16 -57 -34 -75 -42 -46 -18 -55 -3 -47 84 8 83
13 97 33 94 9 -2 16 5 17 20 1 12 11 32 22 45 11 12 29 38 38 57 20 39 104
150 115 150 3 0 21 -16 40 -35z m24 -84 c6 -10 -83 -96 -91 -88 -3 4 -2 27 1
52 7 45 8 45 46 45 21 0 41 -4 44 -9z m107 -32 l30 -21 -33 -31 c-42 -41 -180
-147 -190 -147 -4 0 -8 22 -8 48 0 45 4 52 47 93 55 52 93 79 111 79 8 0 27
-9 43 -21z m54 -122 c17 -34 21 -49 12 -51 -6 -2 -48 -12 -92 -22 -44 -9 -99
-26 -123 -37 -46 -20 -69 -16 -36 7 10 8 62 45 114 83 52 39 96 69 97 68 2 -1
14 -23 28 -48z"/>
<path d="M495 835 c-17 -8 -58 -42 -91 -77 -110 -115 -183 -177 -224 -188 -21
-6 -42 -15 -45 -20 -7 -12 155 -173 237 -237 32 -24 58 -50 58 -56 0 -7 11
-25 23 -41 29 -35 51 -28 36 11 -7 19 -4 53 11 128 11 56 18 110 14 119 -9 24
14 37 43 23 17 -7 62 -8 156 0 73 6 152 11 176 11 23 0 46 3 49 6 16 16 -26
21 -192 21 -213 0 -231 6 -192 59 13 17 32 49 42 70 10 22 47 68 83 103 35 35
61 66 57 70 -13 14 -209 11 -241 -2z m101 -25 c76 0 79 -7 25 -69 -22 -24 -50
-65 -62 -92 -25 -51 -44 -54 -31 -5 10 36 -7 136 -23 136 -20 0 -22 -8 -14
-67 5 -33 4 -71 -1 -88 -5 -16 -12 -77 -15 -135 -3 -58 -11 -124 -18 -148
l-13 -43 -53 54 c-69 70 -69 70 -74 154 -6 100 11 144 86 221 34 34 67 62 73
62 7 0 15 7 18 16 4 10 12 14 22 10 9 -3 45 -6 80 -6z m-308 -259 c0 -38 3
-75 6 -83 4 -7 -13 9 -38 37 l-46 50 37 32 c21 18 39 32 40 33 1 0 2 -31 1
-69z"/>
<path d="M605 458 c-61 -20 -83 -33 -73 -43 7 -7 119 35 138 52 19 17 7 16
-65 -9z"/>
</g>
</svg>
