<?xml version="1.0" standalone="no"?>
<!DOCTYPE svg PUBLIC "-//W3C//DTD SVG 20010904//EN"
 "http://www.w3.org/TR/2001/REC-SVG-20010904/DTD/svg10.dtd">
<svg version="1.0" xmlns="http://www.w3.org/2000/svg"
 width="206.000000pt" height="120.000000pt" viewBox="0 0 206.000000 120.000000"
 preserveAspectRatio="xMidYMid meet">
<metadata>
Created by potrace 1.16, written by Peter Selinger 2001-2019
</metadata>
<g transform="translate(0.000000,120.000000) scale(0.100000,-0.100000)"
fill="#000000" stroke="none">
<path d="M712 1038 c-28 -24 -62 -51 -75 -60 -13 -9 -24 -22 -24 -30 -1 -7
-11 -46 -22 -85 -12 -40 -21 -89 -21 -108 0 -19 -2 -35 -5 -35 -3 0 -43 22
-91 49 -85 49 -85 50 -62 65 13 8 46 25 73 37 28 12 45 24 39 26 -16 5 -156
-60 -173 -81 -13 -15 -12 -19 5 -36 21 -21 228 -130 247 -130 7 0 21 -7 31
-15 19 -15 19 -16 -10 -46 -45 -49 -163 -124 -231 -149 -35 -12 -63 -29 -63
-36 0 -14 87 -77 150 -109 19 -10 59 -40 88 -66 51 -47 124 -80 140 -65 7 8
-6 19 -68 59 -45 29 -59 80 -58 205 l2 93 54 44 c31 24 61 41 68 38 6 -2 15 0
19 6 6 11 -70 65 -108 77 -17 5 -19 12 -13 60 6 55 27 140 44 184 12 31 96
114 100 100 2 -5 10 -10 18 -10 10 0 12 -5 8 -12 -5 -7 -7 -60 -6 -118 1 -58
-2 -132 -8 -165 -6 -33 -13 -87 -16 -120 -3 -33 -12 -102 -20 -153 -24 -155
-17 -252 18 -252 10 0 13 23 13 83 1 96 24 249 36 241 12 -7 47 13 94 54 23
20 52 36 65 38 14 1 45 7 70 12 25 6 94 11 154 11 60 0 113 4 118 9 20 20 -27
30 -189 39 -165 9 -173 11 -208 37 -64 49 -88 13 -34 -49 18 -20 30 -37 28
-38 -2 -1 -21 -17 -41 -36 -31 -29 -36 -31 -31 -12 3 14 1 21 -9 21 -15 0 -15
13 -3 100 7 43 21 73 71 147 87 128 117 181 109 193 -3 6 -50 9 -115 7 -86 -2
-106 1 -98 11 23 27 -11 10 -60 -30z m218 -27 c0 -4 -9 -20 -20 -34 -11 -14
-20 -29 -20 -33 0 -4 -15 -30 -32 -57 l-32 -51 -8 35 c-6 31 -11 98 -9 126 1
18 121 32 121 14z m-393 -605 c-2 -96 6 -93 -94 -29 -30 19 -51 38 -48 42 2 5
32 19 65 31 33 12 63 27 66 31 11 19 13 6 11 -75z"/>
<path d="M1660 1066 c-17 -10 -55 -16 -115 -17 -97 -1 -136 -8 -136 -24 0 -5
12 -11 26 -13 14 -2 23 -8 19 -13 -3 -6 -8 -47 -10 -92 -2 -45 -13 -131 -24
-192 -10 -60 -21 -132 -24 -160 -3 -27 -10 -96 -17 -153 -9 -78 -9 -106 0
-115 20 -20 29 5 50 149 43 292 45 298 98 370 26 36 53 74 58 83 28 45 76 109
98 130 23 21 32 23 79 17 65 -8 86 -19 71 -38 -69 -89 -136 -174 -139 -177 -4
-5 1 36 16 122 7 37 10 71 7 74 -32 31 -69 -98 -68 -235 0 -51 2 -96 5 -100 2
-4 0 -29 -5 -57 -33 -186 -48 -365 -30 -365 15 0 20 13 31 91 15 106 19 121
31 114 16 -10 35 12 78 88 22 40 62 97 90 129 50 55 61 81 41 93 -11 7 -145
-10 -174 -21 -39 -15 84 170 143 215 33 26 59 77 45 91 -5 5 -56 11 -114 15
-84 4 -110 3 -130 -9z m-30 -51 c0 -8 -86 -137 -113 -170 l-25 -30 0 95 c0 52
1 97 3 101 5 7 135 12 135 4z m145 -367 c-70 -109 -86 -130 -92 -125 -7 8 18
171 29 184 10 13 36 20 84 22 l32 1 -53 -82z"/>
</g>
</svg>
