<?xml version="1.0" standalone="no"?>
<!DOCTYPE svg PUBLIC "-//W3C//DTD SVG 20010904//EN"
 "http://www.w3.org/TR/2001/REC-SVG-20010904/DTD/svg10.dtd">
<svg version="1.0" xmlns="http://www.w3.org/2000/svg"
 width="335.000000pt" height="152.000000pt" viewBox="0 0 335.000000 152.000000"
 preserveAspectRatio="xMidYMid meet">
<metadata>
Created by potrace 1.16, written by Peter Selinger 2001-2019
</metadata>
<g transform="translate(0.000000,152.000000) scale(0.100000,-0.100000)"
fill="#000000" stroke="none">
<path d="M3094 1320 c-19 -7 -95 -17 -196 -26 -121 -10 -207 -32 -300 -77
-205 -100 -458 -217 -500 -233 -63 -22 -173 -14 -348 26 -19 4 -60 13 -90 19
-35 7 -85 30 -140 65 -47 29 -105 61 -130 70 -62 25 -267 76 -301 76 -15 0
-40 5 -56 11 -26 10 -163 13 -228 5 -16 -2 -59 -7 -95 -11 -36 -4 -108 -17
-162 -30 -79 -19 -108 -22 -161 -15 -73 9 -87 15 -87 36 0 35 -60 1 -84 -48
-13 -25 -14 -38 -5 -72 12 -43 16 -427 5 -445 -4 -5 -7 -42 -7 -82 -1 -60 2
-75 19 -88 32 -27 35 -50 7 -63 -30 -13 -31 -25 -5 -58 11 -14 20 -31 20 -38
0 -7 7 -15 15 -18 10 -4 13 -14 9 -31 -5 -19 -2 -25 15 -30 11 -3 21 -9 21
-14 0 -14 37 -10 43 4 3 7 3 25 0 39 -4 19 6 39 36 79 23 30 44 64 47 76 4 14
29 35 68 57 34 19 82 53 108 75 l46 41 6 -28 c3 -15 9 -58 11 -97 3 -38 10
-98 16 -132 5 -34 6 -80 3 -103 -6 -37 -4 -43 30 -76 20 -19 36 -42 36 -50 0
-21 47 -37 71 -23 16 8 18 17 14 43 -13 67 65 171 192 256 29 19 53 40 53 45
0 8 56 52 82 63 4 2 6 -30 5 -70 -2 -92 4 -94 126 -34 51 24 115 52 142 61 28
9 61 23 74 32 20 13 48 15 145 12 205 -5 774 3 1049 16 l117 6 0 -46 c0 -54
14 -85 38 -85 31 0 41 20 35 69 -4 37 -1 51 13 65 14 15 15 22 6 37 -16 25
-15 64 2 78 8 6 17 37 21 67 4 31 13 78 21 106 8 27 17 63 19 79 7 57 120 314
168 382 10 14 9 19 -3 27 -18 11 -28 12 -56 0z m-34 -66 c0 -3 -17 -40 -39
-82 -21 -43 -48 -102 -60 -132 -12 -30 -29 -66 -37 -80 -13 -23 -14 -18 -8 63
4 57 2 109 -6 148 -7 33 -11 62 -8 64 3 3 34 8 69 12 35 3 66 7 68 9 7 6 21 5
21 -2z m-228 -46 c13 -25 15 -88 9 -405 -3 -187 -5 -213 -19 -217 -10 -2 -102
-7 -207 -10 -568 -17 -680 -18 -891 -5 -120 8 -283 14 -361 14 -139 0 -142 0
-170 -26 -15 -15 -80 -61 -143 -103 -63 -41 -146 -97 -185 -124 -38 -27 -80
-51 -91 -54 -20 -5 -22 -1 -28 80 -3 47 -2 88 2 91 5 3 12 20 16 36 12 47 58
146 88 189 34 48 22 62 -36 44 -30 -9 -39 -9 -46 1 -14 23 -51 5 -139 -69 -46
-39 -86 -68 -88 -66 -7 7 44 90 69 112 27 25 114 73 189 106 72 32 119 61 119
74 0 5 -14 23 -30 39 -17 16 -30 36 -30 45 0 8 -15 38 -34 66 l-34 50 21 62
c16 49 25 64 44 68 59 15 333 -37 405 -77 10 -5 25 -9 33 -9 20 0 82 -31 170
-86 106 -65 329 -117 504 -118 96 0 111 3 158 27 29 15 57 27 62 27 6 0 79 33
164 74 84 40 164 77 178 80 13 4 56 23 96 42 39 19 83 34 96 34 14 0 30 7 37
15 19 23 57 19 72 -7z m-2124 -41 c-61 -22 -74 -37 -33 -37 27 0 65 -45 49
-59 -54 -48 -147 -121 -177 -140 -48 -29 -49 -67 -2 -90 17 -9 50 -26 74 -39
42 -23 43 -25 25 -41 -11 -10 -68 -39 -127 -66 -60 -27 -111 -53 -113 -57 -6
-9 4 -26 46 -80 l22 -28 -73 -35 c-103 -49 -107 -48 -98 23 4 31 14 82 22 112
8 30 18 75 22 100 4 25 10 50 14 55 4 6 16 33 26 60 46 128 143 293 186 316
20 10 114 26 164 27 24 1 19 -4 -27 -21z m62 -21 c0 -3 -4 -8 -10 -11 -5 -3
-10 -1 -10 4 0 6 5 11 10 11 6 0 10 -2 10 -4z m-331 -32 c2 -2 -3 -10 -12 -17
-9 -6 -36 -38 -61 -71 -25 -32 -55 -65 -66 -73 -20 -14 -20 -13 -20 66 0 43
-3 87 -7 97 -6 16 0 17 77 10 46 -4 86 -9 89 -12z m316 -104 c15 0 55 -59 55
-81 0 -7 -23 -37 -51 -65 l-52 -52 -25 30 c-25 29 -25 33 -14 86 12 59 64 130
70 98 2 -9 10 -16 17 -16z m-141 -82 c-9 -30 -10 -31 -24 -23 -8 5 -6 13 6 26
22 25 27 24 18 -3z m-285 -21 l30 11 -20 -52 c-12 -28 -34 -100 -50 -161 -16
-60 -27 -92 -24 -70 3 22 8 96 11 164 4 72 10 118 15 110 6 -11 14 -11 38 -2z
m521 -30 c0 -7 -23 -24 -50 -38 -28 -15 -50 -24 -50 -20 0 4 19 24 42 44 40
35 58 39 58 14z m-323 -225 c-10 -10 -17 -24 -17 -30 0 -19 -17 -23 -47 -11
l-28 12 50 23 c62 28 62 28 42 6z m271 11 c-3 -5 -17 -36 -34 -70 -16 -35 -31
-63 -35 -63 -3 0 -11 23 -17 51 -13 57 -7 75 31 82 38 7 59 7 55 0z m-541 -95
c-3 -8 -6 -5 -6 6 -1 11 2 17 5 13 3 -3 4 -12 1 -19z m1173 -38 c0 -4 -19 -13
-42 -20 -24 -8 -65 -24 -91 -37 -53 -26 -67 -24 -67 12 0 53 6 56 106 54 52
-1 94 -5 94 -9z m-1062 -131 c-13 -23 -29 -44 -36 -46 -15 -6 -42 15 -52 42
-7 18 -2 21 39 32 74 18 75 17 49 -28z m445 -151 c-4 -7 -8 -17 -8 -23 0 -14
-27 -13 -32 1 -2 6 7 16 19 22 30 14 30 14 21 0z"/>
</g>
</svg>
