<?xml version="1.0" standalone="no"?>
<!DOCTYPE svg PUBLIC "-//W3C//DTD SVG 20010904//EN"
 "http://www.w3.org/TR/2001/REC-SVG-20010904/DTD/svg10.dtd">
<svg version="1.0" xmlns="http://www.w3.org/2000/svg"
 width="322.000000pt" height="126.000000pt" viewBox="0 0 322.000000 126.000000"
 preserveAspectRatio="xMidYMid meet">
<metadata>
Created by potrace 1.16, written by Peter Selinger 2001-2019
</metadata>
<g transform="translate(0.000000,126.000000) scale(0.100000,-0.100000)"
fill="#000000" stroke="none">
<path d="M2809 1052 c-28 -20 -70 -40 -229 -109 -98 -43 -139 -55 -275 -78
-204 -35 -288 -31 -465 19 -174 50 -243 81 -275 122 l-26 35 -92 -7 c-51 -3
-108 -7 -127 -10 -19 -2 -116 -8 -215 -14 -99 -6 -233 -17 -297 -25 -64 -8
-165 -15 -225 -15 -158 1 -443 -9 -454 -16 -16 -10 1 -24 30 -24 16 0 37 -10
50 -24 13 -13 35 -27 49 -31 15 -4 32 -11 39 -16 17 -15 171 -88 228 -109 28
-10 75 -24 105 -30 30 -6 66 -17 78 -24 23 -12 22 -14 -69 -82 -51 -38 -104
-78 -118 -88 -125 -95 -341 -285 -341 -301 0 -19 35 -28 59 -16 11 6 31 11 45
11 28 0 117 28 279 89 79 29 136 43 210 51 55 6 109 16 118 21 10 5 33 9 52 9
18 0 69 9 113 20 43 11 84 18 90 16 7 -3 44 9 84 25 40 16 85 29 100 29 15 0
33 7 40 15 17 21 44 19 65 -5 21 -23 37 -25 65 -8 15 10 28 10 62 0 24 -7 111
-23 193 -37 83 -13 186 -31 230 -38 131 -24 273 -39 351 -38 41 0 86 -4 100
-10 22 -8 242 -22 341 -21 14 0 25 -10 33 -28 7 -16 21 -37 32 -47 19 -17 20
-17 38 7 17 22 18 26 4 37 -14 10 -15 35 -5 224 6 116 9 214 7 217 -3 2 4 23
15 45 12 22 27 58 35 81 8 22 33 69 56 104 23 36 37 67 32 71 -5 5 -50 11
-100 15 -78 5 -95 3 -115 -12z m141 -41 c0 -20 -69 -154 -70 -136 -1 11 -5 44
-9 73 -6 43 -5 55 8 62 20 12 71 13 71 1z m-135 -53 c15 -148 23 -270 20 -308
-7 -98 -16 -177 -26 -223 -9 -39 -14 -46 -25 -36 -8 7 -29 9 -49 6 -30 -5 -36
-3 -41 17 -3 13 1 63 10 112 10 61 14 136 11 239 -2 83 1 160 5 172 8 19 79
66 88 58 2 -2 5 -18 7 -37z m-1329 -4 c3 -19 -1 -64 -10 -104 -38 -165 -46
-207 -48 -249 l-2 -43 -47 6 c-68 9 -289 65 -321 82 -15 8 -38 14 -52 14 -13
0 -44 8 -68 19 -24 10 -86 28 -138 40 -52 12 -104 25 -115 30 -11 4 -45 16
-76 26 -31 9 -107 46 -168 80 l-112 63 78 6 c43 4 132 9 198 11 66 3 147 7
180 10 33 3 146 10 250 15 105 6 208 14 230 18 22 4 79 8 127 9 l87 1 7 -34z
m1203 -31 c-10 -12 -13 -43 -11 -122 6 -183 5 -223 -3 -323 l-8 -98 -27 0
c-22 0 -28 5 -29 23 -5 83 -1 480 4 497 7 22 36 38 69 39 16 1 17 -1 5 -16z
m-1134 -75 c-3 -35 -10 -99 -16 -143 -5 -44 -10 -96 -12 -115 -2 -28 -6 -35
-22 -35 -18 0 -20 6 -19 70 0 39 11 113 23 165 27 118 28 120 41 120 7 0 9
-21 5 -62z m1019 20 c-11 -30 -12 -426 -2 -455 7 -22 5 -23 -41 -23 -27 0 -62
3 -78 6 l-30 6 4 186 c6 255 5 252 78 278 77 28 78 28 69 2z m-912 -5 c15 -5
16 -8 4 -32 -7 -14 -17 -53 -20 -86 -8 -66 -35 -207 -41 -213 -2 -3 -10 -2
-18 1 -11 4 -14 24 -11 91 2 47 8 103 13 123 6 21 11 56 11 79 0 46 7 57 29
48 9 -3 24 -8 33 -11z m98 -23 c11 -7 11 -10 2 -10 -21 0 -41 -61 -56 -177
-16 -122 -22 -143 -42 -143 -17 0 -17 2 -4 69 5 29 15 94 21 144 13 112 36
145 79 117z m641 -23 c-5 -13 -8 -73 -6 -133 2 -60 1 -147 -2 -192 -6 -88 -13
-99 -56 -88 -22 5 -22 8 -16 83 4 43 8 109 8 147 1 102 19 194 39 199 37 10
42 8 33 -16z m-586 3 c3 -5 1 -27 -5 -47 -6 -21 -16 -92 -23 -158 -10 -97 -15
-120 -29 -123 -26 -5 -29 27 -13 152 20 149 46 215 70 176z m495 -7 c0 -5 -5
-60 -10 -123 -6 -63 -11 -145 -12 -183 -1 -79 -13 -101 -49 -92 -24 6 -24 6
-17 98 3 51 7 130 9 176 2 109 6 119 38 124 14 2 29 5 34 6 4 0 7 -2 7 -6z
m-414 -25 c-13 -41 -27 -187 -24 -241 2 -41 7 -53 22 -55 29 -6 36 10 25 58
-7 31 -7 69 1 125 15 107 18 115 42 115 18 0 20 -4 15 -37 -4 -21 -10 -96 -13
-166 l-7 -129 -31 6 c-17 4 -48 9 -68 13 l-38 6 0 61 c0 53 23 218 35 254 2 6
14 12 26 12 17 0 20 -4 15 -22z m294 -95 c0 -54 -3 -135 -7 -180 l-6 -83 -33
0 -34 0 1 103 c0 140 12 236 30 248 8 5 22 9 32 9 15 0 17 -11 17 -97z m-115
-15 c-4 -57 -8 -134 -9 -171 -1 -63 -3 -68 -21 -63 -11 3 -24 6 -29 6 -10 0
-1 304 9 321 4 5 17 9 31 9 l25 0 -6 -102z m-1120 -53 c100 -32 121 -38 274
-72 68 -15 120 -28 115 -29 -5 -1 -47 -15 -94 -30 -47 -15 -103 -31 -125 -35
-337 -62 -446 -85 -515 -107 -167 -54 -265 -82 -284 -82 -18 1 -15 6 19 36 22
20 58 53 80 73 22 20 60 52 85 71 48 37 165 132 236 192 l43 36 43 -14 c24 -7
79 -25 123 -39z"/>
<path d="M2778 930 c-1 -16 -2 -43 -3 -60 -1 -16 1 -30 5 -30 11 0 20 38 20
83 0 44 -19 51 -22 7z"/>
<path d="M2771 774 c0 -11 3 -14 6 -6 3 7 2 16 -1 19 -3 4 -6 -2 -5 -13z"/>
<path d="M2506 852 c-8 -13 -24 -164 -31 -282 -3 -58 -8 -120 -11 -137 -4 -25
-1 -33 11 -33 9 0 15 10 16 28 4 75 29 351 35 393 4 25 3 39 -4 39 -6 0 -13
-4 -16 -8z"/>
</g>
</svg>
