<?xml version="1.0" standalone="no"?>
<!DOCTYPE svg PUBLIC "-//W3C//DTD SVG 20010904//EN"
 "http://www.w3.org/TR/2001/REC-SVG-20010904/DTD/svg10.dtd">
<svg version="1.0" xmlns="http://www.w3.org/2000/svg"
 width="222.000000pt" height="107.000000pt" viewBox="0 0 222.000000 107.000000"
 preserveAspectRatio="xMidYMid meet">
<metadata>
Created by potrace 1.16, written by Peter Selinger 2001-2019
</metadata>
<g transform="translate(0.000000,107.000000) scale(0.100000,-0.100000)"
fill="#000000" stroke="none">
<path d="M1960 900 c-14 -4 -66 -8 -116 -9 -59 -1 -97 -6 -109 -15 -18 -13
-18 -14 4 -25 21 -12 22 -17 17 -94 -3 -45 -5 -96 -5 -113 l-1 -31 -67 3 c-38
2 -74 4 -80 4 -16 0 -17 42 -2 57 7 7 6 12 -5 16 -10 4 -30 -8 -55 -33 -55
-56 -109 -76 -224 -85 -111 -8 -114 -5 -74 63 72 124 96 160 130 195 39 41 45
57 25 58 -81 4 -209 -6 -277 -22 -101 -23 -104 -25 -91 -49 19 -36 12 -215
-10 -251 -15 -24 -275 -6 -333 23 -17 9 -17 10 1 36 11 15 29 47 42 72 12 25
40 68 61 96 34 45 48 74 35 74 -3 0 -37 -7 -77 -15 -40 -9 -94 -16 -120 -17
-36 0 -54 -7 -76 -27 -16 -14 -58 -51 -93 -81 -36 -30 -67 -57 -70 -60 -3 -3
-34 -30 -70 -61 -80 -68 -136 -103 -152 -93 -8 5 -9 2 -5 -9 3 -9 3 -16 -1
-15 -14 3 -42 -14 -42 -26 0 -12 117 -115 194 -170 62 -45 217 -198 227 -225
16 -39 27 -12 30 69 1 41 6 93 11 114 5 22 11 74 13 115 3 45 14 98 26 129 21
51 23 54 53 48 17 -3 66 -11 108 -18 l77 -12 -57 -31 c-159 -87 -182 -102
-182 -116 0 -11 52 0 60 12 10 14 83 61 159 100 60 32 84 39 130 39 l56 0 -3
-76 c-4 -61 -2 -76 9 -72 9 3 18 32 24 79 l10 74 50 7 c71 11 73 9 64 -59 -16
-118 -17 -153 -5 -153 8 0 16 34 24 97 6 53 17 102 24 108 7 7 49 16 93 19
l80 7 -37 -26 c-49 -33 -51 -58 -5 -50 29 5 38 0 87 -49 63 -62 71 -72 105
-122 29 -43 56 -70 107 -108 64 -48 61 -24 -6 46 -62 65 -65 70 -71 133 -8 70
-3 190 7 201 14 14 73 19 113 10 l42 -10 -3 -75 c-2 -42 1 -93 5 -113 5 -22 5
-36 0 -32 -5 3 -8 -26 -8 -64 1 -38 -1 -78 -5 -88 -7 -24 9 -53 22 -39 17 19
35 161 33 265 -1 84 2 111 16 137 10 17 31 55 47 85 32 59 95 148 138 192 29
31 38 67 16 65 -7 -1 -24 -5 -38 -9z m-750 -49 c0 -5 -7 -14 -15 -21 -8 -7
-15 -16 -15 -21 0 -11 -27 -45 -57 -72 -13 -11 -23 -26 -23 -33 0 -7 -5 -16
-10 -19 -7 -5 -10 19 -8 71 l3 78 40 12 c49 15 85 17 85 5z m102 -48 c-20 -31
-36 -60 -35 -64 1 -3 -8 -16 -21 -28 l-24 -23 3 49 c2 26 4 62 4 80 1 34 11
40 73 42 l37 1 -37 -57z m606 14 c-12 -17 -26 -33 -30 -35 -4 -2 -24 -36 -44
-75 -54 -107 -57 -106 -53 13 5 121 6 124 94 127 l56 3 -23 -33z m-1153 3 c3
-5 -10 -33 -30 -62 -19 -29 -35 -56 -35 -61 0 -4 -17 -34 -37 -65 -21 -31 -43
-68 -50 -82 -11 -24 -11 -24 -13 15 -1 22 -5 84 -9 138 -3 55 -4 100 -1 102 3
2 33 7 65 10 33 4 62 9 64 11 8 8 40 4 46 -6z m-207 -121 c-3 -29 -1 -46 4
-42 6 3 5 -4 -1 -16 -7 -12 -9 -26 -6 -31 13 -20 4 -248 -14 -374 -6 -38 -8
-72 -6 -76 2 -3 0 -12 -4 -19 -8 -12 -17 -2 -149 162 -29 36 -33 47 -31 96 2
50 26 168 44 214 4 9 3 17 -3 17 -13 0 -39 -56 -47 -100 -3 -18 -8 -37 -11
-42 -3 -5 -8 -41 -10 -80 -1 -39 -6 -73 -10 -77 -4 -3 -5 1 -2 9 3 8 -22 37
-64 73 -37 32 -68 62 -68 65 0 4 26 24 58 44 61 39 174 132 256 211 43 40 51
45 59 31 5 -9 7 -38 5 -65z m645 39 c-15 -170 -16 -173 -87 -177 -41 -2 -46 0
-46 19 0 12 19 45 43 73 23 29 51 69 61 90 25 49 34 47 29 -5z m329 -258 c2
-50 1 -90 -2 -90 -3 0 -32 27 -65 60 -54 54 -58 61 -44 76 14 13 80 42 101 44
4 0 8 -41 10 -90z"/>
</g>
</svg>
