<?xml version="1.0" standalone="no"?>
<!DOCTYPE svg PUBLIC "-//W3C//DTD SVG 20010904//EN"
 "http://www.w3.org/TR/2001/REC-SVG-20010904/DTD/svg10.dtd">
<svg version="1.0" xmlns="http://www.w3.org/2000/svg"
 width="187.000000pt" height="83.000000pt" viewBox="0 0 187.000000 83.000000"
 preserveAspectRatio="xMidYMid meet">
<metadata>
Created by potrace 1.16, written by Peter Selinger 2001-2019
</metadata>
<g transform="translate(0.000000,83.000000) scale(0.100000,-0.100000)"
fill="#000000" stroke="none">
<path d="M143 748 c-19 -24 -26 -62 -25 -152 1 -133 21 -207 71 -261 23 -25
41 -49 41 -55 0 -5 18 -23 40 -39 31 -23 58 -31 123 -40 45 -6 107 -14 137
-18 74 -10 91 -7 162 29 56 28 72 31 212 40 83 5 301 11 485 13 205 2 337 7
344 14 5 5 7 16 4 24 -4 12 -19 14 -69 10 -35 -3 -110 -6 -168 -5 -162 1 -400
1 -565 -1 l-150 -2 -2 35 c-1 19 -2 45 -2 58 -1 27 -43 69 -90 89 -18 8 -35
23 -38 34 -3 10 -12 19 -19 19 -8 0 -14 3 -15 8 -4 35 -2 112 4 133 5 20 3 28
-8 33 -23 8 -38 -37 -39 -114 -1 -56 -4 -65 -21 -68 -11 -2 -26 -9 -33 -15 -7
-5 -15 -7 -18 -4 -13 13 -28 105 -26 160 2 50 0 58 -15 55 -11 -2 -20 -18 -26
-43 -8 -39 -7 -53 11 -142 l9 -41 -61 -26 c-34 -14 -64 -26 -69 -26 -27 0 -38
183 -16 269 7 28 -30 24 -41 -4 -16 -43 -12 -222 6 -260 15 -32 15 -36 -3 -59
-35 -48 -60 -24 -88 84 -16 61 -23 229 -10 249 2 5 -1 14 -9 20 -10 8 -16 8
-23 -1z m464 -310 c67 -33 113 -82 113 -122 0 -21 -42 -47 -101 -62 -43 -11
-62 -11 -132 3 -133 26 -153 32 -181 54 -26 20 -26 22 -10 40 20 22 124 78
179 95 57 18 79 17 132 -8z"/>
</g>
</svg>
