<?xml version="1.0" standalone="no"?>
<!DOCTYPE svg PUBLIC "-//W3C//DTD SVG 20010904//EN"
 "http://www.w3.org/TR/2001/REC-SVG-20010904/DTD/svg10.dtd">
<svg version="1.0" xmlns="http://www.w3.org/2000/svg"
 width="214.000000pt" height="146.000000pt" viewBox="0 0 214.000000 146.000000"
 preserveAspectRatio="xMidYMid meet">
<metadata>
Created by potrace 1.16, written by Peter Selinger 2001-2019
</metadata>
<g transform="translate(0.000000,146.000000) scale(0.100000,-0.100000)"
fill="#000000" stroke="none">
<path d="M1663 1420 c-13 -5 -23 -14 -23 -19 0 -13 -93 -65 -165 -92 -70 -26
-110 -50 -98 -58 5 -3 19 -23 32 -44 13 -20 38 -49 57 -64 54 -41 61 -61 30
-89 -14 -13 -29 -24 -33 -24 -5 0 -35 -22 -68 -50 -59 -50 -168 -112 -217
-124 -24 -5 -28 -11 -28 -41 0 -19 4 -35 9 -35 5 0 12 -7 15 -16 6 -15 -11
-16 -167 -12 -170 3 -175 4 -215 31 -64 42 -59 68 33 196 42 57 83 109 92 116
18 14 11 47 -9 41 -7 -3 -40 -7 -72 -10 -52 -5 -61 -3 -73 14 -8 11 -20 20
-27 20 -8 0 -35 9 -61 21 -39 17 -52 19 -72 10 -20 -9 -23 -14 -13 -26 14 -17
1 -44 -62 -130 -24 -33 -54 -77 -67 -97 -25 -42 -110 -110 -195 -157 -31 -18
-72 -43 -92 -56 -20 -14 -45 -25 -55 -25 -10 0 -20 -4 -23 -8 -6 -10 103 -95
121 -95 7 0 11 -2 9 -5 -11 -10 69 -68 168 -121 32 -18 77 -47 99 -66 22 -19
43 -32 48 -30 4 3 21 -6 37 -20 68 -57 42 0 -30 65 -47 43 -50 49 -64 125 -8
44 -19 121 -23 170 -8 83 -6 94 15 144 13 29 21 57 18 62 -8 13 15 51 27 43 5
-3 33 12 62 34 60 45 96 66 104 58 3 -3 6 -18 8 -34 1 -16 4 -33 7 -38 8 -16
0 -187 -12 -244 -17 -82 -28 -369 -16 -402 18 -49 35 -34 34 30 0 31 5 76 11
98 6 23 9 57 7 75 -3 31 2 38 51 77 29 23 66 47 81 53 15 6 34 16 42 23 13 11
110 22 275 30 52 2 58 -12 24 -55 -17 -22 -44 -46 -60 -55 -16 -8 -29 -18 -29
-23 0 -5 28 -19 63 -31 34 -13 67 -26 72 -30 6 -4 33 -10 60 -14 121 -15 227
-70 187 -95 -6 -3 -12 -13 -14 -20 -2 -8 -25 -34 -53 -58 -27 -23 -58 -49 -67
-58 -10 -8 -18 -13 -18 -10 0 3 -17 -5 -37 -18 -21 -13 -73 -40 -115 -60 -79
-36 -97 -60 -57 -72 11 -4 43 -27 70 -51 61 -54 80 -57 75 -12 -2 25 3 38 19
53 13 11 47 59 78 106 30 48 71 99 91 114 20 15 34 30 31 33 -8 8 26 42 43 42
12 0 12 -2 1 -17 -12 -14 -10 -14 21 2 44 22 51 30 23 23 -37 -10 -33 16 12
76 61 81 204 236 219 236 7 0 25 -13 41 -30 16 -16 35 -30 42 -30 30 0 9 -27
-49 -65 -103 -66 -210 -147 -203 -153 3 -4 9 -2 13 4 11 16 185 128 242 155
27 13 52 30 55 38 3 8 -14 33 -42 61 -27 26 -49 53 -51 61 -2 8 -9 17 -17 21
-7 4 -16 20 -19 34 -4 15 -21 43 -37 64 -17 21 -39 53 -49 71 -50 90 -52 98
-53 248 -1 80 2 163 7 184 9 39 6 42 -31 27z m-30 -132 c-3 -59 13 -195 29
-246 5 -19 8 -35 6 -38 -7 -7 -72 90 -70 104 2 6 -2 12 -8 12 -13 0 -140 124
-140 136 1 5 39 27 85 48 52 24 82 43 78 50 -4 6 -1 6 8 -1 11 -9 14 -28 12
-65z m-936 -152 c8 -6 -12 -44 -26 -51 -11 -6 -47 -30 -81 -54 -34 -24 -58
-37 -54 -30 100 156 94 149 127 142 18 -3 33 -7 34 -7z m183 -35 c0 -5 -20
-38 -45 -74 -25 -37 -45 -70 -45 -75 0 -5 -8 -17 -19 -26 -15 -14 -20 -14 -24
-3 -4 12 -21 134 -22 162 0 9 50 17 133 23 12 1 22 -2 22 -7z m695 -73 c19
-17 35 -37 35 -44 0 -7 9 -18 20 -24 11 -6 51 -42 88 -79 88 -88 91 -109 24
-180 -26 -28 -65 -71 -87 -95 -22 -25 -52 -60 -68 -77 -15 -18 -32 -39 -37
-48 -8 -14 -15 -10 -47 27 -21 23 -62 67 -90 97 -29 30 -53 58 -53 62 0 4 -15
18 -34 31 -60 41 -53 83 30 172 28 30 73 82 99 115 71 88 71 88 120 43z m-186
-95 c-13 -16 -25 -30 -27 -32 -1 -3 -8 1 -14 7 -9 9 -7 13 8 18 10 4 23 13 27
21 4 7 13 13 19 13 6 0 1 -12 -13 -27z m-81 -50 c-16 -37 -69 -133 -73 -133
-11 0 -53 74 -49 85 3 7 25 18 50 25 24 7 47 17 50 21 6 11 27 12 22 2z m-898
-87 c-15 -41 -12 -87 11 -157 21 -65 30 -139 17 -139 -32 0 -269 175 -264 195
1 5 25 21 52 36 27 14 69 39 93 55 70 46 85 54 94 45 4 -4 3 -20 -3 -35z m418
-73 l43 -5 -68 -48 c-37 -27 -71 -45 -76 -41 -4 4 -2 31 4 60 10 48 13 52 33
46 11 -4 40 -10 64 -12z m475 -54 c20 -17 35 -34 32 -39 -3 -4 16 -27 42 -50
l48 -42 -60 7 c-81 10 -66 6 -167 46 -16 7 -28 14 -28 17 0 8 82 92 90 92 3 0
22 -14 43 -31z m25 -458 c-10 -21 -30 -49 -43 -61 -14 -13 -25 -29 -25 -37 0
-19 -5 -17 -54 21 l-44 33 44 22 c25 11 55 21 67 21 12 0 30 9 40 20 28 33 36
23 15 -19z"/>
</g>
</svg>
