<?xml version="1.0" standalone="no"?>
<!DOCTYPE svg PUBLIC "-//W3C//DTD SVG 20010904//EN"
 "http://www.w3.org/TR/2001/REC-SVG-20010904/DTD/svg10.dtd">
<svg version="1.0" xmlns="http://www.w3.org/2000/svg"
 width="308.000000pt" height="148.000000pt" viewBox="0 0 308.000000 148.000000"
 preserveAspectRatio="xMidYMid meet">
<metadata>
Created by potrace 1.16, written by Peter Selinger 2001-2019
</metadata>
<g transform="translate(0.000000,148.000000) scale(0.100000,-0.100000)"
fill="#000000" stroke="none">
<path d="M680 1330 c-22 -32 -56 -39 -102 -21 -13 4 -48 5 -79 2 -30 -4 -71
-3 -90 1 -18 4 -63 8 -97 9 -37 1 -69 8 -77 16 -41 40 -55 -2 -60 -175 -7
-234 -8 -380 -1 -391 6 -10 -48 -51 -66 -51 -17 0 -7 -20 10 -20 27 -1 52 -25
46 -46 -12 -51 -10 -231 4 -269 7 -22 14 -69 14 -105 0 -36 2 -68 4 -71 2 -4
35 9 73 27 38 18 96 40 129 49 68 17 75 18 69 7 -8 -12 12 -134 24 -149 16
-19 42 -16 73 8 35 28 69 37 221 59 185 28 251 41 355 70 36 10 88 22 115 25
28 4 70 13 95 20 25 7 92 22 150 34 58 11 132 25 165 32 33 6 83 15 110 19 28
4 95 19 150 33 55 13 142 35 193 47 l94 21 71 -42 c110 -65 217 -138 272 -187
45 -40 49 -48 52 -95 5 -74 11 -97 28 -97 21 0 23 22 29 230 3 102 8 201 11
220 12 67 48 175 87 255 21 44 38 86 38 93 0 6 27 39 61 73 75 75 74 95 -4 84
-28 -4 -102 -10 -164 -14 -130 -7 -153 -19 -111 -54 29 -23 49 -77 29 -77 -6
0 -11 -6 -11 -14 0 -20 -79 -86 -137 -115 -26 -14 -82 -48 -123 -76 -102 -69
-148 -95 -152 -85 -2 5 -16 11 -33 15 -20 5 -26 4 -16 -3 9 -7 10 -12 2 -16
-20 -13 -12 -43 16 -61 l27 -18 -74 -18 c-41 -10 -88 -18 -104 -19 -16 0 -68
-9 -115 -20 -47 -10 -142 -29 -211 -40 -69 -12 -161 -31 -205 -42 -396 -99
-517 -123 -655 -133 -100 -7 -219 -28 -250 -45 -26 -14 -37 5 -41 68 -3 41 -1
52 11 54 8 1 22 2 30 3 8 1 42 5 75 9 33 3 132 8 220 11 88 2 241 16 340 29
99 13 223 29 275 36 52 6 133 19 180 30 47 10 102 21 123 24 69 11 127 28 127
39 0 12 -73 4 -220 -23 -189 -35 -598 -93 -614 -87 -15 6 -23 56 -17 97 2 8 4
35 6 60 6 87 17 177 24 187 17 26 496 -19 736 -69 83 -17 164 -32 180 -33 17
-1 50 -5 75 -9 40 -7 43 -6 25 6 -11 8 -49 23 -85 33 -36 10 -81 27 -102 37
-20 9 -54 20 -76 23 -23 2 -56 11 -74 19 -18 8 -73 30 -123 50 -136 53 -306
129 -347 154 -20 12 -39 34 -42 47 -4 16 -13 25 -25 25 -26 0 -74 -42 -95 -82
-17 -32 -17 -29 -11 107 6 156 11 185 30 185 24 0 28 21 7 40 -11 10 -22 16
-25 14 -3 -3 -60 -5 -126 -5 -107 1 -145 5 -238 26 -12 3 -25 14 -28 25 -9 29
-30 25 -55 -10z m-313 -61 l28 -11 -28 -15 c-16 -8 -37 -16 -47 -18 -10 -2
-28 -9 -40 -15 -27 -14 -37 -5 -46 38 l-6 32 55 0 c31 0 68 -5 84 -11z m246
-9 c33 0 37 -3 37 -24 0 -17 -14 -36 -45 -62 l-45 -37 -143 9 -142 9 65 32
c36 17 81 34 101 38 20 4 49 15 65 25 16 11 38 17 49 15 11 -3 37 -5 58 -5z
m211 -10 c11 -1 -3 -9 -33 -20 -60 -22 -76 -19 -60 12 9 16 17 19 41 14 17 -3
40 -6 52 -6z m123 -55 c-2 -26 -7 -48 -10 -51 -3 -3 -32 -2 -65 2 -51 5 -59 9
-55 25 4 16 51 44 103 62 30 11 33 6 27 -38z m149 28 c-14 -52 -26 -140 -31
-238 -4 -60 -13 -148 -21 -194 -8 -46 -14 -88 -14 -92 0 -11 -71 -11 -88 0
-11 6 -11 17 -3 49 6 22 17 42 24 45 9 3 9 7 -1 20 -10 11 -12 33 -8 69 3 29
5 59 6 66 0 6 7 12 15 12 19 0 20 19 1 26 -10 4 -11 15 -4 52 4 26 8 77 7 113
-1 37 1 72 5 78 4 6 32 11 62 11 48 0 55 -2 50 -17z m-311 -62 c8 -14 -10 -22
-30 -15 -13 5 -14 8 -3 15 17 11 26 11 33 0z m-445 -51 c49 0 52 -1 35 -13
-11 -8 -38 -19 -60 -25 -22 -6 -50 -14 -62 -17 -20 -7 -23 -4 -23 22 0 36 8
46 35 39 11 -3 45 -6 75 -6z m600 -12 c0 -9 -5 -40 -11 -68 -8 -39 -15 -50
-26 -46 -8 3 -35 6 -59 6 l-45 0 2 58 c1 31 3 60 5 63 2 3 32 5 68 5 55 -1 66
-4 66 -18z m-167 -43 c-3 -27 -6 -55 -8 -61 -4 -13 -255 -17 -275 -3 -12 7 -4
20 41 64 l56 54 95 -2 95 -2 -4 -50z m-299 -15 c-35 -36 -60 -52 -86 -57 -40
-6 -128 4 -128 15 0 11 161 76 205 83 22 3 44 7 50 7 5 1 -13 -21 -41 -48z
m2307 -92 c-12 -18 -38 -68 -58 -110 -20 -43 -40 -78 -45 -78 -6 0 -8 33 -6
75 2 41 0 76 -4 78 -3 1 -10 14 -13 29 -7 27 -6 27 52 31 32 2 66 4 76 5 18 2
18 0 -2 -30z m-2468 4 c31 -2 57 -8 57 -13 0 -10 -125 -69 -146 -69 -10 0 -14
13 -14 43 0 49 7 61 29 50 9 -4 42 -9 74 -11z m589 13 c9 -4 12 -19 10 -48 -6
-88 -6 -87 -73 -87 l-61 0 6 28 c3 15 8 44 12 64 6 35 8 37 48 41 22 2 42 4
43 5 1 1 7 0 15 -3z m-145 -61 c-9 -89 -2 -87 -232 -81 -162 4 -199 7 -197 18
6 26 37 45 122 77 84 30 122 37 249 40 l64 2 -6 -56z m463 47 c0 -10 89 -55
245 -123 55 -24 111 -49 125 -55 l25 -12 -30 0 c-16 0 -64 5 -105 10 -41 5
-132 13 -202 17 -70 5 -130 10 -133 13 -6 7 58 159 68 159 4 0 7 -4 7 -9z
m-924 -96 c-11 -8 -25 -15 -30 -15 -6 0 -2 7 8 15 11 8 25 15 30 15 6 0 2 -7
-8 -15z m-46 -33 c0 -10 -41 -35 -47 -28 -11 11 7 36 27 36 11 0 20 -3 20 -8z
m2365 -162 c-3 -69 -9 -170 -11 -225 -6 -130 -8 -134 -41 -101 -15 15 -48 39
-74 53 -50 29 -78 65 -74 98 25 242 15 217 106 277 43 29 79 57 80 63 0 5 5
-1 11 -15 6 -16 8 -71 3 -150z m-2194 126 c-14 -16 -93 -51 -139 -61 -32 -7
-33 -6 -23 13 6 12 11 30 11 41 0 20 6 21 81 21 68 0 80 -2 70 -14z m315 1 c1
-1 -1 -22 -5 -47 l-6 -45 -50 -7 c-27 -3 -135 -6 -240 -7 -182 0 -188 1 -145
15 71 23 124 46 142 62 37 31 91 41 198 35 58 -2 106 -5 106 -6z m154 -37 c-9
-50 -7 -48 -50 -50 -70 -4 -70 -4 -70 45 l0 45 64 0 63 0 -7 -40z m-662 -11
c-6 -16 -12 -28 -14 -26 -5 5 13 57 20 57 3 0 0 -14 -6 -31z m2158 -91 c-2
-18 -7 -62 -11 -98 -4 -36 -9 -68 -12 -72 -2 -4 -18 2 -36 15 -18 12 -34 23
-36 25 -3 1 4 9 15 17 17 13 15 14 -28 15 -27 0 -48 3 -48 7 0 11 32 43 44 44
6 0 34 18 61 39 28 21 51 39 52 39 2 1 1 -14 -1 -31z m-1521 -32 c-11 -66 -18
-73 -74 -75 -31 -1 -51 3 -51 9 0 22 23 105 31 110 4 3 28 4 54 2 l46 -4 -6
-42z m-149 27 c-3 -10 -8 -39 -12 -65 l-6 -48 -137 0 c-126 0 -139 2 -160 21
-12 12 -19 25 -14 29 28 27 154 64 228 67 43 2 81 6 84 8 11 12 22 3 17 -12z
m300 -8 c-3 -11 -6 -33 -6 -50 0 -29 -1 -30 -56 -33 -52 -2 -55 -1 -49 18 5
17 12 52 14 82 1 4 24 7 51 5 45 -2 50 -4 46 -22z m-614 -12 c-55 -24 -74 -22
-101 11 -12 14 -3 15 70 14 l84 -1 -53 -24z m-162 -6 c24 -13 45 -27 47 -33 2
-7 -76 -54 -90 -54 -3 0 -6 110 -3 110 2 0 22 -10 46 -23z m105 -77 c4 -6 -7
-10 -27 -10 -25 0 -29 3 -18 10 19 13 37 13 45 0z m657 -59 l-4 -48 -43 -1
c-23 -1 -49 -3 -56 -4 -14 -3 -15 17 -3 71 5 22 9 23 49 18 25 -4 47 -2 50 3
10 16 10 13 7 -39z m-158 -3 c-4 -24 -9 -46 -13 -49 -3 -4 -27 -9 -53 -12 -53
-5 -55 -2 -42 61 6 29 10 31 53 35 25 2 49 4 54 5 4 1 4 -17 1 -40z m-441 11
c26 -15 14 -24 -50 -38 -32 -7 -72 -19 -90 -26 -26 -11 -32 -11 -37 1 -3 7
-12 11 -21 8 -21 -8 -20 39 1 61 14 14 30 15 98 10 44 -4 89 -11 99 -16z m293
-20 c-3 -17 -6 -38 -6 -45 0 -25 -86 -17 -136 12 -43 25 -44 27 -28 45 14 16
32 19 97 19 l80 0 -7 -31z m-217 -43 c17 -20 -30 -32 -134 -35 -94 -2 -92 10
5 32 84 20 115 20 129 3z m-45 -85 c3 -4 -14 -14 -37 -20 -23 -7 -64 -23 -92
-36 -90 -41 -90 -41 -91 10 l-1 44 71 4 c39 1 88 4 108 5 20 1 39 -2 42 -7z"/>
</g>
</svg>
