<?xml version="1.0" standalone="no"?>
<!DOCTYPE svg PUBLIC "-//W3C//DTD SVG 20010904//EN"
 "http://www.w3.org/TR/2001/REC-SVG-20010904/DTD/svg10.dtd">
<svg version="1.0" xmlns="http://www.w3.org/2000/svg"
 width="166.000000pt" height="180.000000pt" viewBox="0 0 166.000000 180.000000"
 preserveAspectRatio="xMidYMid meet">
<metadata>
Created by potrace 1.16, written by Peter Selinger 2001-2019
</metadata>
<g transform="translate(0.000000,180.000000) scale(0.100000,-0.100000)"
fill="#000000" stroke="none">
<path d="M1175 1730 c3 -5 0 -10 -8 -10 -7 0 -24 -12 -38 -26 -30 -33 -167
-124 -185 -124 -8 0 -14 -4 -14 -10 0 -17 36 -11 63 10 l25 20 33 -29 32 -30
-29 -7 c-16 -4 -40 -6 -54 -5 -77 7 -114 5 -117 -5 -2 -7 9 -16 26 -22 24 -9
30 -17 36 -54 3 -23 9 -58 12 -76 l5 -33 -53 7 c-58 7 -159 47 -159 62 0 15
-42 22 -57 10 -17 -14 -19 -228 -2 -228 8 0 10 -21 5 -70 -7 -66 -6 -70 13
-70 12 0 46 23 77 51 49 44 60 50 86 45 17 -3 39 -6 49 -6 16 0 19 -8 19 -59
0 -65 3 -61 -101 -119 -60 -33 -79 -46 -79 -54 0 -16 21 -7 110 46 58 34 98
52 110 49 11 -3 26 0 34 6 7 6 35 18 62 26 l49 14 -50 -45 c-27 -24 -60 -47
-72 -50 -22 -6 -30 -24 -17 -37 4 -3 14 -2 23 3 13 6 20 3 29 -11 11 -18 9
-19 -32 -19 -55 0 -63 -11 -37 -47 20 -29 31 -118 17 -141 -4 -6 -19 -9 -34
-7 -15 3 -46 7 -68 8 -29 3 -58 15 -92 40 -52 39 -82 47 -82 23 0 -8 -7 -22
-16 -30 -9 -10 -11 -16 -4 -16 7 0 10 -13 9 -32 -2 -18 1 -62 5 -98 5 -36 9
-100 10 -142 1 -42 4 -80 8 -83 17 -18 70 21 126 93 31 39 37 42 83 42 l49 0
1 -47 c0 -27 2 -57 4 -67 2 -11 1 -25 -3 -32 -12 -22 -91 -74 -112 -74 -15 0
-20 -7 -20 -25 0 -28 7 -31 35 -11 11 7 38 23 59 34 37 20 40 20 53 4 12 -16
14 -16 28 2 8 11 15 30 15 41 0 25 29 55 54 55 20 0 89 34 131 65 17 12 50 33
75 46 25 13 54 31 65 41 12 10 34 16 50 15 26 -2 30 1 30 26 1 16 -6 32 -14
37 -8 4 -16 15 -17 24 -3 21 -60 87 -94 110 -14 9 -53 42 -87 74 -61 56 -62
58 -67 122 -10 113 -6 122 84 164 42 20 89 36 104 36 34 0 34 23 1 62 -24 29
-29 44 -25 81 1 9 -17 38 -39 64 -23 25 -41 54 -41 64 0 10 -9 23 -20 29 -17
9 -21 20 -19 58 0 26 -4 67 -11 92 -11 42 -9 83 6 138 5 18 2 22 -15 22 -12 0
-19 -4 -16 -10z m-26 -97 c0 -27 7 -66 15 -88 19 -52 10 -58 -23 -15 -14 19
-37 45 -50 57 l-24 23 39 35 c21 19 40 34 41 35 2 0 2 -21 2 -47z m-105 -191
c-15 -26 -33 -54 -41 -62 -11 -12 -13 -11 -13 8 0 28 0 26 -10 61 -9 33 -7 35
51 38 l40 3 -27 -48z m118 -54 c-15 -10 -44 -18 -64 -18 -31 0 -38 -4 -38 -20
0 -13 7 -20 18 -20 11 0 18 -8 19 -21 1 -11 7 -45 13 -75 7 -31 9 -66 6 -79
-6 -22 -93 -95 -114 -95 -14 0 -19 38 -10 75 4 17 9 64 11 107 3 54 9 81 20
93 10 9 17 23 17 31 0 15 48 94 65 106 5 4 27 -9 47 -29 l38 -37 -28 -18z m9
-78 c-1 -14 -8 -34 -14 -45 -10 -19 -10 -19 -17 0 -4 11 -10 33 -14 48 -6 26
-5 28 21 25 24 -2 27 -7 24 -28z m-376 -2 c6 -6 1 -16 -15 -28 -37 -29 -50
-25 -50 15 0 33 1 35 28 29 15 -4 32 -11 37 -16z m462 -36 c-36 -45 -92 -89
-99 -79 -4 6 -1 18 6 27 8 8 23 37 35 64 l21 49 25 -23 c20 -19 23 -26 12 -38z
m-301 -14 c-3 -13 -6 -38 -6 -57 0 -27 -3 -32 -17 -26 -10 3 -43 11 -73 16
-107 19 -109 22 -48 62 33 21 54 27 96 27 51 0 54 -1 48 -22z m322 -56 c8 -15
16 -32 18 -38 6 -13 -116 -75 -196 -100 -30 -9 -59 -21 -65 -25 -5 -5 -14 -9
-20 -9 -22 1 91 65 115 65 20 0 25 4 22 24 -2 24 25 57 78 93 32 23 33 23 48
-10z m-495 -40 c15 -7 13 -12 -18 -42 l-35 -34 4 34 c3 19 5 38 5 43 1 9 20 8
44 -1z m337 -234 c0 -33 -3 -33 -41 -11 l-29 17 28 22 c30 25 42 17 42 -28z
m-66 -135 c-32 -62 -31 -62 -35 -4 l-4 51 31 0 31 0 -23 -47z m135 -20 l44
-39 -77 -18 c-84 -20 -100 -31 -62 -46 50 -19 69 -80 53 -175 -5 -30 -17 -49
-49 -77 -50 -44 -58 -46 -59 -15 -7 148 -5 195 9 225 11 24 12 36 3 46 -13 15
4 64 42 121 25 38 28 37 96 -22z m129 -104 l33 -30 -78 -73 -78 -74 -3 35 c-2
19 3 42 10 51 8 10 20 31 27 47 17 40 40 75 49 75 4 0 22 -14 40 -31z m-537 2
l24 -19 -24 -26 c-14 -14 -26 -24 -29 -21 -10 9 -13 85 -4 85 5 0 20 -9 33
-19z m429 5 c0 -7 -6 -25 -13 -39 l-13 -25 -17 30 c-9 16 -15 34 -11 39 9 15
54 11 54 -5z m-225 -80 c8 -51 1 -69 -23 -62 -10 3 -45 6 -80 8 -43 2 -68 8
-78 19 -13 15 -12 20 11 48 25 29 31 31 95 31 l69 0 6 -44z m399 -3 c9 -21
-32 -59 -116 -107 -34 -20 -74 -44 -88 -53 -14 -10 -4 3 21 27 69 67 163 150
170 150 4 0 10 -8 13 -17z m-559 -98 c11 -4 15 -9 9 -13 -5 -4 -23 -24 -38
-44 -16 -21 -32 -38 -37 -38 -5 0 -9 29 -9 65 l0 64 28 -14 c15 -8 36 -17 47
-20z m325 -79 c0 -2 -7 -7 -16 -10 -8 -3 -12 -2 -9 4 6 10 25 14 25 6z"/>
<path d="M674 1479 c-94 -97 -127 -129 -135 -129 -5 0 -21 -12 -37 -27 -47
-44 -104 -87 -134 -100 -17 -7 -28 -20 -28 -31 0 -22 53 -79 128 -137 28 -22
51 -44 52 -48 0 -17 105 -117 123 -117 21 0 22 23 2 40 -8 7 -15 16 -15 21 0
5 -7 17 -16 27 -21 23 -76 100 -91 126 -12 21 -5 66 26 165 6 18 9 36 8 40 -1
3 40 47 91 98 50 50 92 96 92 101 0 27 -21 17 -66 -29z m-181 -264 c-8 -38
-16 -71 -18 -73 -7 -7 -43 18 -58 41 -15 24 -15 25 35 66 28 23 52 40 53 39 2
-2 -4 -34 -12 -73z"/>
<path d="M579 858 c0 -2 -2 -11 -4 -21 -4 -22 -53 -87 -65 -87 -5 0 -10 -7
-12 -15 -2 -8 -54 -67 -117 -130 -69 -69 -111 -119 -105 -124 5 -5 37 -23 72
-41 35 -18 73 -46 85 -62 16 -22 27 -28 44 -23 34 8 166 -57 181 -90 15 -33
53 -35 45 -2 -11 43 -61 92 -126 125 -36 17 -70 32 -76 32 -21 0 -31 50 -28
143 3 95 22 147 53 147 8 0 13 4 12 9 -2 5 13 31 33 58 47 63 54 83 29 83 -11
0 -20 -1 -21 -2z m-140 -315 c0 -30 -2 -59 -5 -64 -6 -10 -85 32 -81 43 7 22
73 94 78 86 4 -6 7 -35 8 -65z"/>
</g>
</svg>
