<?xml version="1.0" standalone="no"?>
<!DOCTYPE svg PUBLIC "-//W3C//DTD SVG 20010904//EN"
 "http://www.w3.org/TR/2001/REC-SVG-20010904/DTD/svg10.dtd">
<svg version="1.0" xmlns="http://www.w3.org/2000/svg"
 width="272.000000pt" height="160.000000pt" viewBox="0 0 272.000000 160.000000"
 preserveAspectRatio="xMidYMid meet">
<metadata>
Created by potrace 1.16, written by Peter Selinger 2001-2019
</metadata>
<g transform="translate(0.000000,160.000000) scale(0.100000,-0.100000)"
fill="#000000" stroke="none">
<path d="M492 1328 c-7 -7 -12 -24 -12 -39 0 -47 -31 -88 -70 -95 -111 -18
-142 -28 -150 -48 -7 -18 -11 -175 -11 -436 0 -41 -7 -131 -14 -200 -21 -182
-20 -208 9 -220 13 -4 26 -20 30 -34 3 -13 20 -35 37 -47 l32 -22 17 23 c9 13
22 20 28 16 6 -3 66 31 134 76 68 46 144 93 168 105 111 53 199 92 244 107 27
9 68 28 91 42 52 30 151 58 134 38 -21 -26 1 -37 60 -30 31 4 112 14 181 23
69 8 157 19 195 24 137 16 321 28 380 24 33 -2 125 -4 203 -5 l144 0 -6 -57
c-4 -32 -7 -114 -8 -183 -2 -102 1 -125 12 -125 24 0 39 46 44 131 4 78 19
159 36 199 5 11 11 33 15 50 4 16 23 65 44 110 21 44 42 91 46 104 4 14 21 47
38 74 17 28 26 52 21 57 -5 5 -44 10 -86 11 -61 1 -83 -2 -105 -17 -27 -18
-55 -19 -528 -19 l-500 0 -100 48 c-55 27 -127 61 -160 77 -71 34 -192 83
-255 104 -53 17 -291 124 -304 137 -13 12 -20 11 -34 -3z m138 -90 c50 -22 88
-43 86 -45 -2 -3 -34 5 -71 16 -37 12 -78 21 -91 21 -19 0 -24 5 -24 25 0 14
2 25 5 25 2 0 45 -19 95 -42z m-19 -57 c25 -6 88 -25 140 -45 52 -19 135 -46
184 -61 50 -15 117 -36 150 -47 33 -11 76 -24 95 -27 19 -4 48 -14 63 -22 l28
-15 -53 -23 c-96 -42 -187 -142 -188 -208 0 -12 11 -35 25 -51 14 -17 25 -36
25 -44 0 -8 -39 -28 -102 -50 -57 -20 -128 -47 -158 -59 -80 -32 -324 -116
-405 -140 -123 -36 -146 -42 -152 -35 -3 3 4 47 16 98 12 51 23 107 26 123 7
57 35 186 44 203 5 9 14 47 20 84 14 80 77 241 116 299 24 34 33 40 54 35 14
-3 47 -10 72 -15z m179 -13 c10 -6 7 -7 -10 -2 -14 3 -32 11 -40 16 -10 6 -7
7 10 2 14 -3 32 -11 40 -16z m-380 -39 c0 -6 -9 -31 -19 -57 -25 -61 -58 -176
-66 -228 -3 -23 -12 -61 -19 -85 -12 -41 -14 -32 -16 126 -1 94 -3 186 -4 205
-1 31 2 35 29 41 49 11 95 10 95 -2z m2076 -196 c-73 -198 -75 -203 -93 -203
-10 0 -12 18 -7 88 8 135 7 132 60 132 40 0 45 -2 40 -17z m-846 -15 c-69 -5
-136 -10 -149 -11 -13 -1 -26 3 -28 9 -3 9 38 12 149 12 l153 -1 -125 -9z
m706 0 c3 -4 0 -49 -6 -102 l-12 -96 -42 0 c-49 0 -297 -25 -456 -47 -63 -8
-185 -18 -270 -21 l-154 -5 27 33 c38 44 57 94 57 145 0 52 -7 49 190 65 133
11 259 26 265 32 6 6 395 2 401 -4z m-1000 -9 c53 -14 68 -39 65 -109 -2 -68
-18 -106 -49 -118 -36 -14 -101 -24 -159 -24 -41 0 -52 5 -76 32 -24 27 -28
38 -22 69 13 78 20 86 128 148 27 16 56 16 113 2z m1044 -228 c0 -6 -4 -13
-10 -16 -5 -3 -10 1 -10 9 0 9 5 16 10 16 6 0 10 -4 10 -9z m-70 -10 c0 -6
-51 -9 -117 -9 -84 1 -105 3 -73 8 69 11 190 11 190 1z m-807 -48 c-13 -2 -35
-2 -50 0 -16 2 -5 4 22 4 28 0 40 -2 28 -4z m-873 -209 c-25 -14 -90 -49 -145
-77 -55 -28 -112 -59 -127 -69 -33 -23 -42 -19 -57 22 -8 23 -7 32 2 35 7 2
37 11 67 21 30 9 107 33 170 54 137 46 150 48 90 14z"/>
</g>
</svg>
