<?xml version="1.0" standalone="no"?>
<!DOCTYPE svg PUBLIC "-//W3C//DTD SVG 20010904//EN"
 "http://www.w3.org/TR/2001/REC-SVG-20010904/DTD/svg10.dtd">
<svg version="1.0" xmlns="http://www.w3.org/2000/svg"
 width="226.000000pt" height="151.000000pt" viewBox="0 0 226.000000 151.000000"
 preserveAspectRatio="xMidYMid meet">
<metadata>
Created by potrace 1.16, written by Peter Selinger 2001-2019
</metadata>
<g transform="translate(0.000000,151.000000) scale(0.100000,-0.100000)"
fill="#000000" stroke="none">
<path d="M1936 1432 c-3 -3 -16 -6 -29 -7 -12 -1 -23 -7 -23 -13 -1 -7 -2 -16
-3 -20 -2 -15 -236 -227 -313 -284 -84 -62 -154 -97 -253 -126 -74 -22 -89
-22 -480 -7 -294 12 -484 26 -518 40 -10 4 -27 1 -41 -9 -24 -15 -25 -18 -19
-108 10 -136 9 -284 -1 -447 l-9 -143 -28 -10 c-37 -13 -37 -29 1 -51 41 -24
73 -72 65 -97 -7 -24 8 -26 47 -8 19 9 29 23 33 48 5 28 32 60 127 153 66 65
129 122 140 126 11 4 66 -1 122 -11 55 -10 121 -18 146 -18 25 0 63 -5 84 -11
22 -6 85 -19 140 -29 172 -30 343 -80 438 -127 50 -24 97 -42 103 -39 7 2 16
-5 19 -17 l6 -22 19 23 c12 13 22 46 26 80 4 31 10 68 15 82 5 14 16 64 25
111 8 47 22 108 30 135 9 27 24 90 35 139 35 167 171 567 205 605 7 8 15 26
17 40 3 24 1 25 -59 27 -34 1 -64 -1 -67 -5z m69 -73 c-8 -21 -11 -39 -7 -39
4 0 2 -4 -4 -8 -15 -9 -169 -469 -185 -551 -7 -36 -21 -85 -31 -110 -10 -25
-16 -35 -13 -21 3 14 12 59 20 100 8 41 24 104 35 139 17 54 50 250 77 453 6
53 18 67 66 78 51 11 58 4 42 -41z m-130 -36 c-7 -19 -24 -113 -30 -173 -10
-92 -37 -233 -55 -286 -29 -84 -67 -286 -83 -447 -8 -76 -17 -140 -20 -144 -3
-3 -18 4 -32 15 -29 23 -133 59 -264 93 -47 12 -114 32 -150 46 -141 53 -348
135 -386 153 -49 25 -67 25 -63 3 3 -18 39 -39 113 -66 131 -49 203 -81 198
-90 -3 -5 -8 -5 -12 1 -9 15 -125 40 -221 47 -133 11 -140 11 -147 18 -3 4
-20 7 -36 7 -30 0 -30 0 -11 21 10 12 35 29 54 39 44 22 80 60 58 60 -8 0 -23
-9 -34 -21 -10 -12 -37 -30 -59 -41 -22 -11 -85 -51 -140 -88 -127 -85 -252
-153 -268 -147 -11 4 -10 33 4 153 17 145 24 171 76 281 27 58 42 66 158 78
71 7 220 29 395 57 293 47 303 47 389 -5 60 -35 113 -47 125 -28 3 5 -2 12
-11 15 -14 6 -14 9 4 29 12 12 35 45 52 73 19 31 60 73 108 111 43 34 125 104
182 157 57 53 106 96 109 96 2 0 1 -8 -3 -17z m-420 -340 c-13 -21 -34 -51
-46 -66 -20 -27 -22 -27 -40 -11 -11 9 -19 25 -19 36 0 10 -8 18 -17 19 -10 1
5 7 32 13 28 7 64 20 80 29 17 9 31 16 32 17 1 0 -8 -17 -22 -37z m-512 -41
c26 -1 47 -6 47 -10 0 -10 -82 -23 -325 -52 -93 -12 -187 -25 -207 -30 -21 -4
-38 -6 -38 -3 0 3 9 20 20 37 23 39 52 55 105 58 42 3 315 3 398 0z m-536 -26
c1 -1 -23 -51 -53 -111 -46 -92 -54 -104 -53 -74 1 18 -2 64 -6 101 -11 93 -7
98 57 91 29 -3 54 -6 55 -7z m105 -523 c-33 -32 -86 -83 -118 -113 l-59 -56
-32 32 c-35 35 -38 29 37 63 14 6 43 22 65 36 22 13 56 33 75 44 19 11 46 29
60 40 46 37 32 13 -28 -46z"/>
</g>
</svg>
