<?xml version="1.0" standalone="no"?>
<!DOCTYPE svg PUBLIC "-//W3C//DTD SVG 20010904//EN"
 "http://www.w3.org/TR/2001/REC-SVG-20010904/DTD/svg10.dtd">
<svg version="1.0" xmlns="http://www.w3.org/2000/svg"
 width="248.000000pt" height="132.000000pt" viewBox="0 0 248.000000 132.000000"
 preserveAspectRatio="xMidYMid meet">
<metadata>
Created by potrace 1.16, written by Peter Selinger 2001-2019
</metadata>
<g transform="translate(0.000000,132.000000) scale(0.100000,-0.100000)"
fill="#000000" stroke="none">
<path d="M1146 1214 c-20 -20 -24 -37 -30 -152 -6 -111 3 -142 39 -142 15 0
23 4 20 10 -3 5 0 7 8 4 8 -3 39 6 69 19 31 14 99 35 153 47 111 25 160 21
263 -24 32 -14 93 -34 137 -46 151 -38 170 -43 240 -63 39 -11 86 -31 105 -43
19 -13 45 -24 57 -24 80 0 -71 77 -222 114 -116 27 -251 67 -305 90 -30 13
-107 40 -170 60 -63 21 -139 48 -168 62 -29 13 -57 24 -62 24 -17 0 -81 43
-91 61 -12 23 -23 24 -43 3z m141 -104 c49 -21 108 -42 131 -46 23 -4 42 -9
42 -13 0 -4 -33 -12 -74 -18 -40 -7 -102 -21 -136 -33 -34 -12 -65 -19 -68
-16 -6 7 -3 147 4 158 7 11 1 13 101 -32z"/>
<path d="M755 1055 c-20 -15 -20 -15 1 -33 l22 -18 -57 -115 c-31 -63 -68
-142 -83 -176 -15 -34 -32 -64 -37 -67 -5 -3 -30 19 -56 49 -25 30 -52 55 -59
55 -17 0 -68 -55 -101 -110 -16 -25 -53 -76 -84 -114 -85 -104 -84 -101 -68
-114 10 -8 21 -7 42 4 47 24 186 29 315 10 168 -24 265 -59 370 -131 25 -17
65 -39 90 -49 25 -10 57 -29 73 -44 19 -18 30 -23 38 -15 12 12 -53 68 -100
84 -17 6 -31 17 -31 24 0 7 -22 22 -50 34 -27 12 -74 46 -105 76 -31 29 -86
74 -123 99 -37 24 -82 60 -101 79 l-33 35 47 76 c26 42 52 76 57 76 6 0 47 31
92 68 44 38 100 79 123 92 23 13 44 29 47 35 5 13 -92 67 -149 84 -16 5 -37
12 -45 15 -9 4 -24 0 -35 -9z m137 -79 c10 -6 18 -13 18 -16 0 -3 -19 -18 -42
-35 -23 -16 -64 -50 -92 -75 -27 -25 -47 -40 -45 -35 3 6 15 33 27 60 13 28
31 67 40 88 15 35 19 37 46 31 17 -4 38 -12 48 -18z m-304 -389 c37 -38 87
-80 112 -95 25 -14 47 -29 50 -33 3 -3 24 -18 48 -33 23 -14 42 -28 42 -31 0
-2 -26 5 -57 16 -88 30 -267 59 -370 59 -51 0 -93 3 -93 6 0 4 15 25 33 48 18
23 55 72 82 110 l48 69 19 -24 c10 -13 49 -55 86 -92z"/>
<path d="M2215 786 c-44 -13 -105 -34 -135 -48 -30 -14 -66 -29 -80 -33 -14
-4 -51 -21 -83 -37 -32 -16 -63 -26 -69 -22 -6 4 -8 3 -5 -3 10 -16 -111 -50
-293 -84 -174 -32 -387 -72 -397 -75 -23 -6 -14 -52 29 -144 47 -104 64 -112
102 -51 13 21 46 53 73 70 82 55 423 221 477 233 63 13 93 27 77 37 -13 8 -7
11 109 59 114 48 200 78 258 92 28 6 52 16 52 21 0 13 -27 10 -115 -15z m-545
-231 c0 -3 -74 -41 -165 -84 -91 -44 -185 -96 -210 -116 l-44 -37 -26 58 c-14
32 -24 63 -22 69 4 9 144 49 212 60 11 2 65 11 120 20 55 10 107 21 115 26 18
10 20 11 20 4z"/>
</g>
</svg>
