<?xml version="1.0" standalone="no"?>
<!DOCTYPE svg PUBLIC "-//W3C//DTD SVG 20010904//EN"
 "http://www.w3.org/TR/2001/REC-SVG-20010904/DTD/svg10.dtd">
<svg version="1.0" xmlns="http://www.w3.org/2000/svg"
 width="88.000000pt" height="102.000000pt" viewBox="0 0 88.000000 102.000000"
 preserveAspectRatio="xMidYMid meet">
<metadata>
Created by potrace 1.16, written by Peter Selinger 2001-2019
</metadata>
<g transform="translate(0.000000,102.000000) scale(0.100000,-0.100000)"
fill="#000000" stroke="none">
<path d="M499 888 c-41 -28 -100 -73 -131 -99 -32 -26 -79 -59 -105 -72 -95
-48 -118 -64 -121 -84 -4 -27 22 -74 81 -148 67 -84 167 -223 167 -232 0 -15
101 -113 111 -108 14 9 11 26 -7 46 -9 10 -33 51 -53 91 -21 40 -52 96 -70
124 -49 78 -50 115 -7 216 20 46 36 99 36 118 1 30 9 41 53 76 29 23 76 57
105 74 28 18 52 37 52 41 0 22 -43 5 -111 -43z m-119 -154 c0 -3 -19 -50 -42
-104 l-41 -99 -34 47 c-47 67 -48 67 50 127 53 34 67 40 67 29z"/>
<path d="M784 800 c-27 -22 -62 -46 -79 -54 -17 -8 -50 -33 -75 -56 -24 -22
-75 -60 -112 -83 -37 -23 -68 -47 -68 -54 0 -7 18 -36 40 -65 22 -29 43 -64
47 -78 11 -45 101 -230 112 -230 18 0 13 31 -19 133 l-31 96 35 105 c20 58 39
124 42 147 6 34 14 46 47 68 55 37 123 98 116 105 -3 4 -28 -12 -55 -34z
m-137 -144 c-3 -8 -11 -34 -17 -58 -6 -24 -18 -65 -27 -92 -14 -44 -17 -47
-27 -29 -6 10 -24 37 -41 58 -28 36 -29 39 -11 49 61 36 106 69 106 77 0 5 5
9 11 9 6 0 9 -6 6 -14z"/>
</g>
</svg>
