<?xml version="1.0" standalone="no"?>
<!DOCTYPE svg PUBLIC "-//W3C//DTD SVG 20010904//EN"
 "http://www.w3.org/TR/2001/REC-SVG-20010904/DTD/svg10.dtd">
<svg version="1.0" xmlns="http://www.w3.org/2000/svg"
 width="250.000000pt" height="116.000000pt" viewBox="0 0 250.000000 116.000000"
 preserveAspectRatio="xMidYMid meet">
<metadata>
Created by potrace 1.16, written by Peter Selinger 2001-2019
</metadata>
<g transform="translate(0.000000,116.000000) scale(0.100000,-0.100000)"
fill="#000000" stroke="none">
<path d="M767 1046 c-8 -9 -18 -35 -22 -58 -3 -24 -11 -65 -17 -91 -5 -26 -8
-51 -4 -54 3 -3 0 -15 -6 -27 -7 -11 -13 -39 -15 -61 -1 -22 -6 -68 -11 -103
-5 -35 -5 -65 -2 -67 4 -2 10 -35 13 -72 7 -66 -4 -136 -36 -250 l-12 -42
-135 132 -134 132 -4 68 c-3 53 1 82 18 129 16 45 19 62 10 68 -14 8 -5 19 45
50 63 41 69 45 81 55 6 6 54 44 107 85 53 41 96 81 96 88 2 24 -29 11 -88 -38
-33 -27 -65 -50 -70 -50 -6 0 -14 -6 -18 -14 -9 -15 -254 -200 -339 -256 -29
-20 -56 -39 -60 -43 -4 -4 16 -30 43 -57 28 -28 61 -65 73 -83 12 -18 42 -47
67 -66 25 -19 57 -48 71 -64 15 -15 73 -64 129 -108 56 -44 105 -89 108 -100
6 -17 12 -20 38 -15 17 4 40 15 52 25 23 22 157 91 225 117 35 13 83 18 215
19 94 2 184 5 200 8 17 3 64 8 105 12 l76 7 2 -38 c3 -43 20 -70 35 -55 5 5
11 40 14 78 5 83 31 244 42 258 5 5 12 28 15 50 8 46 83 203 120 254 l25 34 7
-28 c4 -14 3 -52 -1 -83 -8 -65 -11 -101 -20 -222 -3 -47 -14 -126 -24 -177
-15 -79 -16 -95 -4 -118 18 -33 39 -27 35 11 -1 16 4 65 13 109 8 44 17 110
20 148 4 47 13 77 29 101 13 19 36 65 51 103 42 104 56 135 60 131 4 -5 -13
-249 -21 -278 -10 -43 -17 -301 -8 -310 23 -23 33 10 38 120 2 63 8 131 11
150 12 60 88 247 123 300 17 25 17 25 22 -35 3 -33 0 -107 -7 -165 -8 -58 -16
-159 -18 -225 -6 -138 -10 -183 -20 -207 -5 -12 -2 -18 8 -18 27 0 57 117 57
223 0 94 21 219 40 242 10 11 21 31 25 45 15 49 58 126 96 172 21 26 39 51 39
56 0 15 -28 18 -140 16 -125 -4 -198 -12 -206 -25 -12 -20 8 -26 52 -17 55 12
64 5 36 -25 -11 -12 -35 -55 -53 -95 -38 -85 -49 -77 -42 29 3 40 0 70 -6 73
-11 7 6 56 19 56 4 0 7 7 7 15 0 21 -26 27 -67 15 -51 -15 -90 -13 -90 5 0 12
-18 13 -111 9 -117 -5 -129 -7 -129 -28 0 -41 -592 -18 -673 26 -21 11 -61 22
-132 35 -16 3 -35 10 -41 15 -8 5 -17 3 -27 -6z m101 -65 c23 -6 42 -15 42
-20 0 -12 -125 -72 -128 -61 -2 5 1 18 7 29 6 11 11 34 11 52 0 23 3 29 13 22
6 -5 31 -15 55 -22z m928 -53 c-14 -18 -42 -59 -62 -90 -28 -44 -43 -58 -60
-58 -23 0 -24 3 -24 75 0 71 1 75 23 75 12 0 31 7 41 15 11 8 40 15 64 15 l45
0 -27 -32z m174 16 c0 -2 -13 -33 -30 -69 -16 -36 -30 -70 -30 -75 0 -24 -46
-100 -59 -100 -10 0 -12 3 -6 8 15 11 17 27 20 137 1 55 3 101 4 102 2 4 101
1 101 -3z m-745 -18 c127 -4 253 -3 280 2 28 4 61 5 75 2 24 -6 25 -9 25 -80
l0 -75 -230 2 c-237 2 -355 12 -460 39 -98 25 -115 27 -115 15 0 -6 5 -11 11
-11 5 0 7 -4 4 -10 -8 -12 48 -35 110 -45 l50 -7 -100 -50 c-55 -27 -104 -54
-109 -59 -18 -17 -25 -9 -20 24 2 17 5 53 5 79 1 30 8 56 19 71 23 29 203 120
220 112 3 -2 109 -6 235 -9z m1060 -45 c-19 -26 -46 -73 -59 -102 l-25 -54 -1
50 c-1 28 -3 57 -5 65 -1 8 -6 32 -10 53 l-7 37 71 0 71 0 -35 -49z m-862
-142 l177 -1 0 -68 0 -67 -48 -7 c-69 -9 -439 -6 -474 5 -17 5 -76 11 -132 15
-56 4 -107 10 -115 14 -10 5 15 21 75 49 48 23 99 44 112 48 34 8 173 20 202
16 14 -1 105 -3 203 -4z m257 7 c0 -2 -6 -16 -14 -30 l-14 -27 -4 25 c-3 14
-3 28 0 31 6 6 32 7 32 1z m-1293 -13 c-28 -55 -41 -98 -45 -145 l-4 -57 -35
47 c-20 26 -42 52 -49 58 -12 10 -6 17 32 39 25 15 55 36 65 46 18 18 44 27
36 12z m470 -143 c26 -1 75 -6 107 -13 l59 -12 -99 -38 c-86 -33 -129 -51
-156 -65 -3 -2 -10 27 -13 64 -8 71 2 92 36 73 10 -5 39 -9 66 -9z m743 -34
c0 -19 -30 -189 -34 -194 -2 -2 -59 -10 -126 -17 -123 -15 -170 -14 -398 5
-144 12 -162 15 -215 45 l-39 23 24 16 c14 9 47 23 74 31 27 8 81 31 119 51
l70 36 229 4 c126 2 232 6 234 9 12 11 62 4 62 -9z m-795 -206 c17 -11 56 -25
88 -31 l57 -12 -107 -48 c-60 -27 -113 -48 -120 -49 -12 0 -8 55 8 123 11 43
29 47 74 17z"/>
</g>
</svg>
