<?xml version="1.0" standalone="no"?>
<!DOCTYPE svg PUBLIC "-//W3C//DTD SVG 20010904//EN"
 "http://www.w3.org/TR/2001/REC-SVG-20010904/DTD/svg10.dtd">
<svg version="1.0" xmlns="http://www.w3.org/2000/svg"
 width="240.000000pt" height="104.000000pt" viewBox="0 0 240.000000 104.000000"
 preserveAspectRatio="xMidYMid meet">
<metadata>
Created by potrace 1.16, written by Peter Selinger 2001-2019
</metadata>
<g transform="translate(0.000000,104.000000) scale(0.100000,-0.100000)"
fill="#000000" stroke="none">
<path d="M438 798 c-123 -123 -163 -155 -203 -160 -42 -4 -46 -33 -4 -33 44 0
60 -27 34 -55 -11 -12 -33 -29 -50 -38 -24 -13 -26 -17 -12 -20 10 -2 48 -24
84 -48 36 -24 71 -44 78 -44 6 0 33 -16 58 -36 33 -25 47 -44 47 -60 0 -13 4
-24 9 -24 9 0 42 74 39 88 -12 47 71 148 157 191 49 25 55 25 208 5 28 -4 47
-2 47 4 0 9 -25 16 -100 28 -14 2 -35 6 -46 9 -12 3 -64 7 -115 10 -52 4 -98
10 -103 15 -10 10 42 78 128 168 33 34 58 62 56 63 -3 0 -32 2 -65 3 -66 3
-113 14 -132 28 -9 7 -42 -21 -115 -94z m182 42 c30 -6 56 -12 58 -15 3 -3
-17 -29 -44 -59 -27 -30 -60 -69 -74 -87 l-25 -33 -6 99 c-5 101 2 135 26 115
7 -5 36 -14 65 -20z m-129 -52 c1 -13 2 -85 4 -161 2 -109 -1 -141 -12 -153
-8 -8 -10 -14 -4 -14 13 0 15 -69 3 -88 -6 -9 -16 -6 -38 13 -16 15 -46 35
-67 46 -21 11 -36 23 -33 27 8 14 16 162 8 162 -5 0 -14 -6 -21 -12 -26 -25
-1 44 31 84 42 54 107 118 118 118 6 0 10 -10 11 -22z m-183 -153 c-6 -13 -15
-22 -19 -19 -9 5 11 44 23 44 4 0 3 -11 -4 -25z m300 -46 c23 -2 42 -4 42 -6
0 -8 -55 -52 -65 -53 -6 0 -16 -9 -23 -20 -20 -32 -30 -23 -25 23 6 55 11 69
21 63 5 -3 27 -6 50 -7z m-282 -64 c-2 -25 -6 -48 -9 -51 -8 -8 -60 19 -64 33
-3 9 55 57 74 62 1 1 1 -19 -1 -44z"/>
<path d="M976 885 c-3 -9 -3 -22 1 -28 10 -15 5 -148 -7 -218 -15 -86 -39
-241 -43 -279 l-3 -35 -12 28 c-14 34 -38 31 -36 -4 2 -37 14 -141 19 -166 7
-31 17 -29 70 17 74 64 116 78 246 79 63 1 144 4 181 7 77 7 118 0 118 -21 0
-22 21 -18 27 5 3 11 6 20 7 21 0 0 69 3 152 5 135 5 255 -4 322 -22 16 -5 22
-2 22 9 0 23 -50 29 -280 33 -118 2 -218 3 -222 4 -14 0 -8 87 6 99 18 15 354
13 373 -1 6 -5 9 -16 6 -24 -3 -8 1 -14 11 -14 9 0 16 8 16 20 0 20 4 22 45
24 11 1 20 8 20 16 0 10 -8 14 -27 12 -31 -4 -33 5 -22 92 6 40 10 46 30 46
29 0 32 26 5 35 -49 15 -21 92 66 187 38 41 52 63 45 70 -14 14 -196 10 -230
-4 -32 -13 -370 -23 -424 -13 -13 3 -68 8 -123 11 -55 3 -103 8 -106 10 -3 2
-60 6 -126 9 -106 6 -121 5 -127 -10z m104 -21 c0 -3 -12 -21 -27 -41 l-27
-35 -7 27 c-11 38 -1 55 32 55 16 0 29 -3 29 -6z m190 -10 c30 -2 102 -9 159
-14 58 -6 109 -10 114 -10 5 0 6 -8 2 -17 -4 -10 -7 -26 -7 -35 0 -10 -3 -20
-9 -23 -5 -4 -9 -14 -9 -23 0 -9 -5 -34 -11 -56 l-11 -39 -51 8 c-29 4 -72 9
-97 11 -67 6 -101 12 -107 18 -9 9 37 74 70 101 19 14 26 25 17 24 -8 0 -30
-13 -49 -29 -19 -16 -36 -28 -39 -26 -2 2 2 23 9 45 15 50 8 59 -28 36 -15
-10 -22 -20 -16 -22 8 -3 8 -14 2 -36 -5 -18 -15 -101 -23 -184 -8 -84 -17
-157 -21 -163 -10 -16 6 -101 19 -97 6 2 13 26 16 53 4 37 9 48 20 45 25 -6
104 -1 112 7 7 7 154 0 160 -8 2 -3 2 -28 0 -56 l-4 -51 -91 -5 c-146 -7 -280
-3 -304 10 -12 7 -26 12 -30 11 -4 -1 -12 0 -18 1 -15 3 -38 6 -61 8 -19 2
-20 6 -13 60 4 31 13 82 18 112 6 30 16 96 22 145 8 73 15 95 35 116 13 14 24
30 24 36 0 7 19 24 43 38 31 19 50 24 72 19 17 -3 55 -8 85 -10z m789 0 c2 -2
-14 -24 -35 -50 l-38 -46 -11 31 c-19 57 -30 39 -30 -51 0 -48 -2 -89 -5 -91
-8 -8 -378 -13 -385 -5 -4 4 0 35 9 70 9 36 16 74 16 86 0 38 34 47 174 45 97
-1 134 1 149 12 15 10 38 12 86 8 36 -3 68 -7 70 -9z m-699 -234 c52 -6 111
-14 130 -16 49 -7 64 -7 150 1 104 9 263 10 278 1 13 -8 17 -124 4 -141 -4 -7
-133 -10 -359 -10 l-353 0 4 40 c12 120 18 146 35 141 9 -3 59 -10 111 -16z
m-327 -319 c27 -1 40 -21 13 -21 -8 0 -37 -16 -66 -35 -29 -19 -54 -35 -56
-35 -2 0 -4 22 -4 48 l0 48 43 -2 c23 -1 54 -2 70 -3z"/>
</g>
</svg>
