<?xml version="1.0" standalone="no"?>
<!DOCTYPE svg PUBLIC "-//W3C//DTD SVG 20010904//EN"
 "http://www.w3.org/TR/2001/REC-SVG-20010904/DTD/svg10.dtd">
<svg version="1.0" xmlns="http://www.w3.org/2000/svg"
 width="225.000000pt" height="179.000000pt" viewBox="0 0 225.000000 179.000000"
 preserveAspectRatio="xMidYMid meet">
<metadata>
Created by potrace 1.16, written by Peter Selinger 2001-2019
</metadata>
<g transform="translate(0.000000,179.000000) scale(0.100000,-0.100000)"
fill="#000000" stroke="none">
<path d="M1364 1662 c-10 -10 -35 -28 -54 -42 -19 -13 -61 -46 -92 -73 l-58
-49 -135 67 c-74 37 -135 71 -135 76 0 5 -11 9 -25 9 -17 0 -33 -12 -55 -46
-18 -25 -30 -51 -27 -58 4 -9 35 -12 119 -11 112 1 158 -8 213 -43 17 -10 18
-13 5 -21 -8 -5 -35 -24 -59 -43 -24 -18 -49 -37 -56 -42 -8 -6 -43 6 -98 33
-48 22 -90 41 -95 41 -5 0 -18 11 -30 25 -12 14 -26 25 -30 25 -22 0 -72 -77
-72 -111 0 -5 17 -7 38 -3 36 6 107 -11 196 -46 l29 -11 -34 -23 c-19 -13 -76
-42 -126 -66 -51 -24 -93 -49 -93 -56 0 -8 14 -21 31 -29 23 -12 29 -21 24
-35 -10 -33 3 -41 37 -22 18 10 35 30 39 44 7 26 46 66 136 138 l50 39 57 -17
c31 -9 56 -20 56 -23 0 -8 -143 -103 -222 -148 -63 -35 -72 -55 -33 -73 14 -6
25 -14 25 -18 0 -7 -322 -3 -397 5 -29 4 -55 11 -58 16 -4 5 -35 9 -70 9 -36
0 -85 5 -109 12 -68 18 -78 5 -70 -91 3 -42 1 -141 -5 -221 -6 -80 -13 -185
-16 -235 -3 -49 -8 -101 -11 -115 -14 -76 -14 -79 5 -92 11 -8 25 -26 32 -41
7 -15 16 -27 21 -27 16 0 53 22 62 37 4 8 22 21 40 28 35 16 223 136 246 159
8 8 46 29 84 46 89 41 93 41 375 -34 52 -13 116 -36 143 -51 27 -15 59 -28 71
-30 64 -8 111 -17 150 -30 134 -43 242 -86 275 -108 20 -14 60 -32 89 -40 45
-13 53 -14 64 -1 6 7 9 24 6 36 -3 12 -2 42 3 67 5 25 12 80 14 122 5 99 50
380 76 479 6 25 14 56 16 70 3 14 13 57 23 95 11 39 22 90 26 115 21 132 85
313 129 364 13 17 23 33 20 37 -6 11 -144 0 -171 -13 -13 -6 -23 -18 -23 -27
-1 -34 -323 -389 -452 -497 l-90 -75 -77 6 c-42 4 -80 10 -86 14 -5 3 -61 7
-123 7 -65 1 -118 6 -124 12 -7 7 -4 21 12 46 12 20 25 36 30 36 4 0 37 30 74
66 l66 65 38 -11 c20 -7 46 -18 58 -25 11 -7 44 -20 73 -29 28 -8 64 -24 80
-35 34 -25 77 -42 84 -34 8 7 -80 66 -123 82 -19 8 -69 30 -110 49 l-74 35 49
43 c27 24 57 44 68 44 10 0 57 -18 104 -40 83 -39 123 -49 123 -31 0 4 -28 21
-62 36 -35 15 -81 36 -103 45 l-39 18 54 51 c30 29 74 66 98 83 38 28 53 48
35 48 -10 0 -74 -51 -140 -112 -34 -32 -65 -58 -68 -58 -10 0 -114 55 -115 60
0 3 28 25 61 50 33 25 63 50 67 56 4 5 24 23 45 38 35 27 47 46 29 46 -5 0
-17 -8 -28 -18z m-430 -84 l31 -20 -50 6 c-53 7 -71 17 -60 36 8 13 37 5 79
-22z m1106 -10 c-17 -40 -77 -268 -109 -418 -18 -80 -41 -174 -52 -210 l-19
-65 5 70 c2 39 6 81 9 95 2 14 7 63 11 110 4 47 17 139 30 205 13 66 26 139
30 163 9 53 27 72 70 72 32 0 34 -2 25 -22z m-127 -95 c-2 -16 -15 -84 -28
-153 -12 -69 -30 -192 -40 -275 -9 -82 -22 -175 -30 -205 -8 -30 -14 -100 -14
-155 1 -110 -18 -392 -26 -406 -7 -11 -24 -5 -110 36 -38 19 -101 46 -140 60
-38 15 -81 33 -95 40 -50 28 -146 72 -205 94 -33 12 -91 37 -130 56 -38 18
-92 43 -120 55 -27 12 -68 30 -91 41 -23 10 -49 19 -58 19 -9 0 -16 7 -16 15
0 31 -28 13 -103 -65 -73 -74 -82 -81 -157 -104 -44 -14 -122 -41 -173 -59
-158 -57 -190 -67 -195 -62 -3 3 3 60 12 127 16 109 23 134 67 223 27 55 59
108 70 117 36 30 68 36 479 88 41 6 98 15 125 21 33 7 116 9 240 5 105 -3 210
-6 234 -6 26 0 56 -8 76 -20 18 -11 40 -18 48 -14 17 6 30 31 23 43 -18 28
329 531 355 515 3 -2 4 -16 2 -31z m-693 -113 l-60 -50 -57 24 c-32 13 -58 28
-58 32 0 5 26 29 59 56 l59 47 59 -30 58 -30 -60 -49z m-410 74 c48 -19 91
-44 74 -44 -5 0 -35 9 -67 20 -31 11 -63 20 -71 20 -10 0 -13 6 -9 16 3 8 11
13 17 11 6 -3 31 -13 56 -23z m105 -154 c-16 -16 -34 -30 -39 -30 -12 1 49 60
61 60 4 0 -6 -13 -22 -30z m-75 -50 c-27 -38 -36 -43 -60 -35 -26 8 -18 20 28
45 51 26 57 25 32 -10z m840 16 c0 -2 -16 -23 -35 -47 -19 -24 -35 -47 -35
-52 0 -4 -13 -25 -29 -47 -15 -21 -34 -52 -40 -69 -12 -28 -14 -28 -39 -15
-15 8 -34 14 -42 14 -8 0 14 26 50 57 36 31 87 81 114 110 46 50 56 58 56 49z
m-605 -32 c-16 -14 -54 -48 -83 -75 -46 -42 -55 -47 -72 -37 -24 15 -19 23 38
53 26 14 65 38 87 54 49 36 71 40 30 5z m-735 -213 c0 -8 -55 -129 -108 -241
-10 -21 -11 -11 -7 60 2 47 5 109 5 138 l0 52 55 0 c30 0 55 -4 55 -9z m495 2
c-73 -7 -402 -63 -448 -77 -44 -13 -44 -13 -33 8 6 11 20 33 30 48 l18 28 236
-2 c131 -1 219 -3 197 -5z m1020 -175 c-3 -24 -7 -51 -9 -60 -3 -27 -16 -34
-16 -10 0 24 22 112 28 112 2 0 0 -19 -3 -42z m-990 -190 c22 -11 47 -24 55
-29 8 -5 51 -26 95 -48 87 -43 82 -52 -11 -22 -32 11 -104 30 -159 41 -55 12
-104 24 -108 27 -5 3 4 18 19 34 30 32 40 31 109 -3z m360 -176 c-3 -3 -11 0
-18 7 -9 10 -8 11 6 5 10 -3 15 -9 12 -12z m-782 -21 c-81 -59 -187 -113 -202
-104 -28 18 -20 28 42 52 34 13 78 34 98 46 65 42 118 46 62 6z m-188 -46
c-16 -8 -37 -14 -45 -14 -8 0 -1 7 15 14 17 8 37 14 45 14 8 0 2 -7 -15 -14z"/>
</g>
</svg>
