<?xml version="1.0" standalone="no"?>
<!DOCTYPE svg PUBLIC "-//W3C//DTD SVG 20010904//EN"
 "http://www.w3.org/TR/2001/REC-SVG-20010904/DTD/svg10.dtd">
<svg version="1.0" xmlns="http://www.w3.org/2000/svg"
 width="258.000000pt" height="124.000000pt" viewBox="0 0 258.000000 124.000000"
 preserveAspectRatio="xMidYMid meet">
<metadata>
Created by potrace 1.16, written by Peter Selinger 2001-2019
</metadata>
<g transform="translate(0.000000,124.000000) scale(0.100000,-0.100000)"
fill="#000000" stroke="none">
<path d="M1867 1030 c-20 -17 -36 -35 -35 -38 1 -4 -3 -18 -9 -32 -10 -23 -17
-96 -29 -270 -3 -36 -7 -104 -11 -151 l-6 -86 -81 -7 c-44 -4 -124 -9 -177
-13 -93 -5 -96 -5 -102 17 -3 12 -1 33 4 47 5 13 9 36 9 50 0 46 -26 8 -39
-57 l-12 -60 -50 0 -49 0 0 48 c1 48 17 193 23 198 2 2 107 5 235 6 192 2 232
5 237 17 10 26 -10 32 -66 20 -36 -8 -112 -10 -228 -6 -171 6 -173 6 -196 -17
-25 -25 -40 -86 -50 -207 l-6 -77 28 -9 c16 -6 50 -8 76 -6 l47 5 0 -59 c0
-53 12 -94 24 -83 2 3 6 33 8 67 l3 61 85 8 c47 5 90 9 95 9 180 22 185 21
185 -43 0 -73 4 -112 13 -112 4 0 14 0 22 0 11 0 15 28 18 158 5 203 24 481
39 555 l11 58 66 -2 c36 0 85 -4 109 -6 41 -6 42 -7 29 -27 -34 -51 -40 -98
-62 -461 -5 -82 -13 -171 -20 -225 l-6 -46 -72 0 c-48 0 -83 -6 -105 -18 -19
-10 -32 -19 -30 -21 1 -1 77 2 168 7 91 5 202 7 247 4 85 -5 105 2 83 29 -8
10 -10 30 -6 54 3 22 9 93 12 158 3 65 12 144 20 175 14 58 18 97 33 266 6 73
12 96 27 107 10 7 15 17 11 22 -5 4 -95 8 -200 9 -106 0 -213 4 -238 8 -43 7
-49 6 -82 -24z m447 -93 c-13 -82 -45 -299 -48 -327 -1 -9 -5 -21 -9 -27 -4
-7 -7 -41 -6 -75 1 -59 -5 -139 -17 -217 -5 -31 -7 -33 -37 -28 -18 2 -56 1
-84 -2 -76 -11 -79 -7 -65 91 7 45 14 133 17 193 4 105 7 146 20 295 9 93 31
168 52 172 10 2 56 4 104 5 l86 2 -13 -82z"/>
<path d="M540 814 c-83 -75 -157 -132 -290 -223 -19 -13 -50 -36 -68 -52 l-32
-29 32 -27 c18 -15 71 -66 118 -113 77 -78 115 -111 253 -217 57 -44 89 -44
50 -1 -14 15 -14 19 -3 16 11 -2 14 4 12 22 -5 34 -4 322 1 327 9 8 60 13 194
18 76 3 162 7 192 8 31 1 56 7 58 14 6 16 -29 33 -58 28 -13 -2 -107 -6 -208
-9 l-183 -5 7 47 c4 26 6 56 6 67 -1 24 17 157 25 191 3 13 2 24 -2 23 -5 0
-52 -39 -104 -85z m49 -23 c-5 -24 -12 -64 -14 -90 -21 -192 -25 -245 -27
-345 -2 -94 1 -118 15 -140 29 -44 -154 119 -206 184 -27 33 -53 60 -58 60
-17 0 -9 49 18 115 22 54 36 72 87 112 34 26 90 72 124 101 35 29 65 52 67 50
2 -2 -1 -23 -6 -47z m-294 -208 c-4 -10 -12 -31 -19 -48 -6 -16 -12 -32 -13
-34 -2 -3 -14 6 -28 19 l-24 23 37 28 c43 32 57 36 47 12z"/>
</g>
</svg>
