<?xml version="1.0" standalone="no"?>
<!DOCTYPE svg PUBLIC "-//W3C//DTD SVG 20010904//EN"
 "http://www.w3.org/TR/2001/REC-SVG-20010904/DTD/svg10.dtd">
<svg version="1.0" xmlns="http://www.w3.org/2000/svg"
 width="312.000000pt" height="188.000000pt" viewBox="0 0 312.000000 188.000000"
 preserveAspectRatio="xMidYMid meet">
<metadata>
Created by potrace 1.16, written by Peter Selinger 2001-2019
</metadata>
<g transform="translate(0.000000,188.000000) scale(0.100000,-0.100000)"
fill="#000000" stroke="none">
<path d="M437 1734 c-3 -3 -36 -8 -74 -10 -94 -6 -142 -13 -164 -24 -17 -9
-17 -13 -3 -45 10 -24 16 -84 19 -183 2 -81 11 -184 20 -230 9 -45 14 -86 11
-91 -5 -8 -20 -429 -21 -566 l0 -60 40 1 c22 1 87 7 145 13 58 7 143 16 190
22 47 5 243 11 435 14 193 3 382 10 420 16 39 6 126 12 195 15 69 2 170 10
225 16 141 17 387 19 382 4 -5 -14 18 -48 70 -101 21 -23 51 -65 67 -95 41
-79 106 -274 106 -319 0 -24 44 -64 67 -59 12 2 19 13 20 33 1 34 36 147 84
275 17 47 47 127 66 179 19 52 58 131 87 176 28 45 56 90 62 100 6 10 19 23
30 29 49 28 35 51 -32 54 -55 2 -84 23 -66 45 27 32 -28 37 -85 8 -34 -17 -50
-18 -158 -11 -66 4 -201 17 -300 28 -160 18 -284 28 -465 37 -52 3 -166 12
-254 20 -65 6 -119 16 -154 28 -32 11 -32 12 -26 57 3 25 10 61 15 81 5 19 12
60 15 90 3 30 13 79 21 109 8 30 19 75 24 100 5 25 18 57 29 72 55 74 -24 92
-455 102 -281 7 -511 33 -546 63 -17 14 -32 17 -42 7z m203 -88 c60 -9 196
-16 315 -18 116 -1 224 -5 240 -9 36 -8 39 -8 -162 -16 -113 -4 -191 -2 -260
8 -54 7 -153 14 -220 14 -78 0 -119 4 -115 10 20 37 20 37 202 11z m-270 -1
c10 -12 10 -19 2 -27 -7 -7 -12 -20 -12 -29 0 -9 -10 -38 -22 -65 -12 -27 -32
-101 -44 -164 l-21 -115 -6 65 c-4 36 -9 127 -12 202 l-5 137 37 4 c21 2 45 4
54 5 9 1 22 -5 29 -13z m424 -63 c28 -8 28 -8 -25 -33 -30 -15 -84 -37 -121
-50 -38 -13 -68 -27 -68 -31 0 -5 4 -8 8 -8 4 0 35 -27 69 -59 l60 -59 -84
-69 c-46 -37 -105 -83 -131 -101 -52 -37 -60 -53 -39 -73 12 -12 12 -17 -1
-37 -14 -22 -12 -25 46 -80 34 -31 78 -72 98 -90 l37 -32 -22 -24 c-13 -13
-60 -50 -107 -81 -94 -63 -101 -70 -78 -83 29 -16 -16 -22 -115 -14 -39 4 -42
77 -16 347 38 379 47 435 86 522 l27 62 64 4 c89 5 277 -1 312 -11z m519 -44
c4 -29 2 -96 -3 -148 -6 -52 -15 -144 -20 -205 -9 -104 -23 -200 -51 -363 -11
-65 -10 -74 5 -91 11 -12 15 -27 11 -44 -6 -24 -10 -25 -110 -32 -120 -8 -470
-3 -480 7 -4 4 8 29 28 55 19 26 51 81 71 120 41 82 76 113 203 182 45 24 96
56 115 71 l33 29 -50 45 c-27 25 -64 52 -82 61 -35 17 -87 77 -103 121 -6 15
-14 72 -17 126 l-6 98 104 1 c57 1 129 4 159 9 30 4 85 8 121 9 l66 1 6 -52z
m103 17 c-12 -33 -35 -133 -46 -205 -6 -41 -15 -100 -20 -130 -5 -30 -14 -96
-20 -145 -11 -87 -57 -288 -59 -253 -1 9 6 52 14 95 23 121 38 247 56 483 6
80 12 151 15 158 2 6 17 12 35 12 24 0 30 -4 25 -15z m-611 -114 l0 -89 -40
28 c-61 43 -111 98 -94 104 8 3 37 14 64 25 28 10 55 19 60 20 6 1 10 -35 10
-88z m-8 -147 c55 -29 109 -82 105 -104 -2 -8 -7 -24 -12 -35 -5 -11 -23 -54
-40 -95 -35 -85 -56 -111 -118 -147 l-43 -26 -17 23 c-31 42 -61 124 -50 137
14 17 2 48 -23 59 -19 9 -19 10 -1 29 10 11 36 52 58 92 34 63 59 90 86 92 4
1 29 -10 55 -25z m-179 -91 c-12 -21 -33 -52 -46 -70 -21 -29 -26 -31 -53 -21
-16 5 -29 13 -29 16 0 4 15 17 33 30 18 12 46 36 62 52 41 43 60 39 33 -7z
m373 -54 c21 -17 39 -35 39 -39 0 -9 -120 -83 -154 -96 -15 -6 -4 29 44 144
13 29 25 28 71 -9z m-416 -117 l2 -22 -26 22 c-14 13 -28 25 -31 26 -3 2 8 2
24 0 22 -2 30 -9 31 -26z m920 -43 c33 -5 204 -16 380 -25 176 -8 361 -21 410
-29 l90 -12 -90 -2 c-349 -6 -847 5 -892 20 -27 9 -33 16 -33 39 0 32 -5 32
135 9z m450 -94 c563 -7 645 -9 645 -16 0 -10 35 -6 42 5 5 8 8 7 8 -1 0 -7 5
-13 11 -13 6 0 9 6 6 13 -3 9 7 14 34 16 21 1 39 0 39 -1 0 -2 -9 -27 -19 -57
-11 -29 -25 -78 -31 -109 -7 -32 -21 -83 -31 -114 -10 -32 -19 -72 -19 -89 0
-34 -2 -44 -44 -179 -15 -47 -27 -98 -27 -115 l0 -30 -11 25 c-16 36 -15 417
0 454 20 47 1 54 -58 22 -45 -25 -61 -27 -182 -31 -249 -8 -972 -15 -991 -9
-15 5 -17 13 -12 57 4 29 13 80 22 114 15 61 16 62 52 65 20 2 70 2 111 1 41
-1 246 -5 455 -8z m-1225 -73 c-17 -32 -40 -69 -53 -82 -12 -14 -22 -27 -22
-30 -3 -46 -78 -71 -127 -42 -34 20 -36 35 -5 51 12 6 69 44 127 85 58 41 106
74 108 75 1 0 -11 -25 -28 -57z m2128 29 c9 -5 3 -22 -22 -61 -62 -99 -113
-194 -127 -235 -22 -67 -23 -6 -1 67 11 35 23 83 26 108 6 39 16 77 31 127 4
12 66 8 93 -6z m-372 -247 c-3 -26 -6 -79 -6 -118 l0 -71 -21 43 c-12 24 -44
67 -70 97 -27 29 -49 55 -49 57 0 3 17 5 39 6 21 1 51 9 67 17 43 22 47 19 40
-31z m-1208 27 c25 -16 -28 -19 -303 -20 -148 -1 -285 -4 -303 -7 -27 -5 -31
-4 -26 10 5 14 41 16 293 19 157 1 295 3 306 5 11 1 26 -2 33 -7z m-785 -13
c59 -7 82 -6 93 3 12 10 13 9 9 -4 -7 -17 -30 -22 -170 -38 -55 -6 -103 -13
-107 -15 -5 -3 -8 8 -8 25 0 16 6 32 13 35 18 7 82 5 170 -6z m865 5 c-10 -2
-28 -2 -40 0 -13 2 -5 4 17 4 22 1 32 -1 23 -4z"/>
</g>
</svg>
