<?xml version="1.0" standalone="no"?>
<!DOCTYPE svg PUBLIC "-//W3C//DTD SVG 20010904//EN"
 "http://www.w3.org/TR/2001/REC-SVG-20010904/DTD/svg10.dtd">
<svg version="1.0" xmlns="http://www.w3.org/2000/svg"
 width="299.000000pt" height="113.000000pt" viewBox="0 0 299.000000 113.000000"
 preserveAspectRatio="xMidYMid meet">
<metadata>
Created by potrace 1.16, written by Peter Selinger 2001-2019
</metadata>
<g transform="translate(0.000000,113.000000) scale(0.100000,-0.100000)"
fill="#000000" stroke="none">
<path d="M2615 978 c-170 -29 -242 -37 -345 -37 -52 -1 -121 -5 -152 -10 -32
-6 -180 -13 -330 -17 -374 -10 -390 -10 -584 0 -131 7 -173 6 -179 -3 -4 -7
-5 -14 -3 -17 3 -2 60 -6 129 -9 261 -12 459 -12 594 1 77 8 172 13 210 13 81
-1 332 10 390 17 22 2 101 11 175 19 74 8 153 17 175 20 33 5 20 -5 -85 -60
-69 -37 -156 -78 -195 -92 -38 -14 -94 -36 -123 -49 -29 -13 -56 -24 -60 -24
-4 0 -20 -7 -37 -16 -47 -24 -250 -104 -350 -136 -118 -39 -176 -44 -245 -24
-30 9 -84 21 -120 27 -96 15 -100 16 -100 50 0 34 -50 87 -112 119 -20 11 -39
24 -43 29 -3 6 -47 30 -98 55 -190 92 -397 118 -717 91 -36 -3 -96 -7 -134 -9
-82 -3 -78 2 -96 -136 -6 -52 -20 -135 -31 -185 -10 -49 -21 -103 -23 -120
-23 -142 -26 -169 -18 -177 5 -5 67 -12 138 -15 146 -6 161 -6 299 6 133 12
191 7 280 -24 40 -14 83 -25 95 -25 12 0 30 -5 40 -10 10 -6 45 -14 77 -19 32
-5 112 -19 178 -32 108 -20 129 -21 210 -11 258 32 325 42 380 57 33 8 101 18
150 21 53 4 108 14 134 25 24 11 52 19 63 19 10 0 35 7 54 15 64 27 268 47
400 40 132 -7 149 0 117 44 -35 50 -18 48 -851 120 -51 5 -95 10 -97 13 -3 2
19 10 48 17 28 8 66 21 82 29 17 8 44 19 60 23 49 13 186 64 245 91 30 14 91
40 135 58 44 18 150 66 235 107 85 41 175 85 200 97 43 20 49 25 53 43 4 14
-109 10 -218 -9z m-1991 -107 c-8 -16 -17 -42 -19 -58 -2 -15 -13 -66 -24
-113 -11 -47 -28 -148 -38 -225 l-19 -140 -31 -3 c-36 -4 -45 17 -38 83 2 22
9 88 15 147 9 91 38 250 56 310 3 11 18 18 47 21 23 2 47 4 54 5 8 1 7 -7 -3
-27z m-159 -112 c-29 -100 -38 -155 -47 -283 l-12 -158 -70 7 c-39 4 -75 9
-79 12 -5 3 -6 24 -2 47 4 22 9 64 11 91 3 28 9 64 14 80 4 17 16 89 26 160 9
72 21 138 26 148 6 12 21 17 50 17 31 0 38 -3 31 -12 -19 -24 -42 -142 -52
-263 -6 -66 -18 -146 -26 -178 -17 -64 -14 -77 15 -77 20 0 37 40 26 59 -4 5
-2 29 4 53 5 24 15 104 20 178 6 74 17 158 25 187 13 44 19 52 43 55 15 2 28
3 29 2 2 0 -13 -56 -32 -125z m245 99 c-32 -117 -72 -390 -67 -455 l5 -61 -35
-4 c-23 -3 -37 0 -40 9 -6 15 34 326 52 403 6 26 15 72 20 103 5 34 8 37 40
37 33 0 33 -1 25 -32z m85 15 c-4 -10 -10 -31 -12 -48 -3 -16 -14 -84 -25
-150 -11 -66 -25 -158 -32 -204 -10 -74 -13 -82 -25 -67 -16 19 -12 85 18 316
12 85 21 158 21 163 0 4 14 7 31 7 26 0 30 -3 24 -17z m-490 -10 c-8 -20 -13
-43 -44 -211 -11 -61 -22 -115 -24 -120 -5 -8 -12 -48 -22 -134 -5 -37 -12
-59 -23 -63 -8 -3 -17 -3 -19 -1 -6 5 7 96 37 266 11 63 23 152 26 198 l7 82
35 0 c29 0 33 -3 27 -17z m617 -4 c70 -18 188 -66 248 -100 131 -76 151 -94
169 -149 10 -32 16 -37 73 -52 75 -19 148 -35 205 -43 33 -5 40 -10 36 -22 -5
-13 -1 -15 23 -8 50 13 225 4 304 -15 75 -19 135 -25 351 -36 139 -7 151 -8
258 -33 l36 -9 -40 -2 c-22 -1 -56 -1 -75 0 -20 0 -47 -3 -61 -8 -14 -6 -61
-11 -105 -13 -51 -2 -98 -10 -134 -24 -106 -42 -186 -64 -255 -70 -38 -4 -104
-13 -145 -21 -41 -7 -100 -15 -130 -18 -30 -2 -93 -12 -140 -21 -106 -20 -222
-20 -320 -1 -137 28 -205 43 -240 54 -19 6 -66 19 -104 28 -99 25 -105 34
-102 157 1 56 4 107 8 112 3 6 9 42 12 80 4 39 9 97 12 130 7 81 13 105 24
105 5 0 47 -9 92 -21z"/>
</g>
</svg>
