<?xml version="1.0" standalone="no"?>
<!DOCTYPE svg PUBLIC "-//W3C//DTD SVG 20010904//EN"
 "http://www.w3.org/TR/2001/REC-SVG-20010904/DTD/svg10.dtd">
<svg version="1.0" xmlns="http://www.w3.org/2000/svg"
 width="174.000000pt" height="112.000000pt" viewBox="0 0 174.000000 112.000000"
 preserveAspectRatio="xMidYMid meet">
<metadata>
Created by potrace 1.16, written by Peter Selinger 2001-2019
</metadata>
<g transform="translate(0.000000,112.000000) scale(0.100000,-0.100000)"
fill="#000000" stroke="none">
<path d="M1392 1070 c-11 -18 -23 -20 -145 -20 -100 -1 -137 -4 -151 -15 -24
-18 -32 -17 129 -15 127 1 129 1 112 -18 -14 -16 -36 -20 -120 -24 -98 -5
-177 -26 -177 -47 0 -5 19 -5 48 2 26 7 78 10 116 7 l68 -5 -18 -23 c-16 -19
-31 -24 -84 -27 -104 -7 -160 -16 -160 -27 0 -7 32 -9 94 -6 l95 5 -15 -22
c-19 -28 -42 -35 -123 -38 -41 -1 -66 -7 -68 -14 -4 -10 13 -13 59 -13 l63 -1
-33 -29 c-18 -17 -43 -30 -57 -30 -13 0 -33 -9 -43 -20 l-19 -21 -104 21 c-57
12 -106 23 -108 26 -3 2 0 19 7 37 17 48 27 193 14 201 -6 4 -34 -5 -61 -18
-35 -18 -51 -22 -54 -13 -3 9 -12 9 -43 -2 -75 -26 -164 -73 -164 -87 0 -7 6
-11 14 -8 8 3 29 -13 50 -38 30 -35 34 -44 21 -46 -9 -2 -29 8 -44 22 -15 14
-34 26 -43 26 -9 0 -18 5 -20 12 -6 16 -37 2 -44 -19 -14 -47 -17 -48 -113
-44 -77 2 -95 0 -111 -14 -11 -10 -17 -22 -14 -26 3 -5 7 -98 8 -207 2 -108 7
-209 11 -225 5 -21 4 -27 -8 -27 -31 0 -22 -24 24 -66 64 -60 93 -60 119 2 21
48 98 164 110 164 3 0 17 10 30 22 l23 22 -7 -45 c-19 -123 -19 -129 -2 -129
10 0 32 15 49 32 71 73 127 107 127 77 0 -12 -96 -134 -134 -168 -31 -29 -33
-41 -6 -41 25 0 77 -25 82 -40 2 -7 15 -5 36 5 35 18 41 32 17 41 -21 8 -19
24 10 86 14 29 25 63 25 76 0 36 55 89 90 87 17 -1 44 -2 60 -3 l30 -2 -27
-42 c-14 -24 -55 -78 -90 -121 -34 -44 -63 -85 -63 -91 0 -24 14 -26 35 -6
l21 20 35 -30 c57 -48 62 -44 74 70 6 63 23 144 36 179 9 23 11 23 107 17 53
-4 169 -9 256 -11 152 -3 160 -4 168 -24 4 -12 14 -21 22 -21 28 0 40 97 21
165 -8 29 -9 87 -3 205 8 145 12 172 36 225 31 71 87 165 110 183 13 10 -1 12
-79 12 -83 0 -96 -2 -107 -20z m113 -10 c-3 -5 -22 -10 -41 -10 -19 0 -34 5
-34 10 0 6 18 10 41 10 24 0 38 -4 34 -10z m-93 -70 c4 -27 3 -29 -21 -23 -34
8 -34 8 -19 32 18 30 35 26 40 -9z m68 17 c0 -7 -6 -22 -14 -33 -14 -18 -15
-18 -21 -1 -4 9 -5 24 -1 32 7 18 36 20 36 2z m-92 -82 c13 -4 22 -14 22 -26
0 -18 -6 -20 -52 -18 -29 1 -58 4 -65 7 -17 5 -4 32 21 42 21 8 29 8 74 -5z
m-658 -90 c0 -36 -4 -65 -9 -65 -5 0 -19 21 -32 47 l-22 46 22 19 c13 10 27
18 32 18 5 0 9 -29 9 -65z m-134 19 c-3 -9 -6 -29 -6 -45 l0 -30 -40 33 -39
33 27 12 c40 18 65 16 58 -3z m782 -10 c16 -5 22 -14 22 -36 0 -27 -3 -30 -22
-24 -13 4 -58 10 -100 13 -43 3 -78 8 -78 11 0 3 7 14 17 24 12 14 31 18 77
18 34 0 71 -3 84 -6z m-712 -71 c9 -16 25 -34 33 -40 14 -11 14 -14 2 -22 -9
-6 -22 -6 -32 0 -10 5 -27 9 -38 9 -24 0 -26 15 -8 53 15 34 20 34 43 0z m657
-9 c73 -7 77 -8 77 -31 l0 -25 -97 6 c-54 3 -115 5 -135 6 -24 0 -38 5 -38 13
0 37 41 43 193 31z m-829 -64 c56 0 64 -16 18 -39 -39 -20 -58 -38 -50 -46 2
-3 20 6 39 19 55 37 84 40 103 11 21 -31 36 -32 36 -2 0 21 5 24 50 25 27 0
52 -3 55 -8 3 -5 12 -7 20 -4 8 3 49 -1 92 -9 43 -8 100 -18 126 -22 40 -5 46
-9 36 -21 -9 -11 -8 -14 7 -15 11 0 88 -2 172 -5 84 -2 160 -8 169 -13 11 -6
17 -26 19 -66 1 -32 8 -68 14 -81 20 -37 7 -52 -52 -56 -70 -6 -431 11 -441
21 -4 4 2 19 13 33 11 15 20 31 20 37 0 22 -21 10 -48 -29 -25 -37 -30 -39
-77 -39 -57 -1 -91 13 -62 25 9 3 17 11 17 16 0 6 11 23 25 40 28 33 32 48 11
48 -7 0 -33 -25 -56 -56 l-42 -56 -47 7 c-25 4 -67 16 -93 27 -26 11 -51 17
-57 14 -5 -4 -12 -2 -16 4 -10 16 -22 4 -28 -28 -10 -48 -223 -183 -263 -168
-22 9 -9 182 15 211 10 11 31 41 47 66 35 54 80 109 89 109 4 0 4 -12 0 -27
-12 -46 -14 -73 -5 -78 16 -10 77 22 83 44 6 24 4 25 -23 9 -25 -16 -36 -4
-22 25 9 19 18 57 24 104 1 8 10 5 26 -8 14 -10 39 -19 56 -19z m-142 -14 c-3
-6 -27 -37 -53 -68 -26 -31 -55 -71 -65 -87 -10 -17 -21 -31 -24 -31 -3 0 -5
43 -6 95 l-1 94 31 3 c67 7 125 4 118 -6z m728 -11 c0 -8 -4 -15 -9 -15 -13 0
-22 16 -14 24 11 11 23 6 23 -9z m268 5 c41 0 42 0 42 -35 l0 -35 -97 5 c-54
3 -107 7 -118 10 -11 2 -30 4 -42 4 -19 1 -23 7 -23 33 l0 31 98 -6 c53 -4
116 -7 140 -7z m-798 -275 c16 -8 46 -19 67 -24 31 -7 35 -9 18 -15 -54 -20
-86 -37 -121 -68 -36 -32 -37 -32 -31 -8 4 14 10 49 13 78 7 57 11 59 54 37z
m-258 -184 l-40 -61 -26 34 -26 34 63 30 c34 16 63 28 65 27 2 -2 -15 -30 -36
-64z m507 -15 c-6 -33 -12 -63 -15 -67 -8 -13 -55 13 -50 28 5 13 70 102 72
99 1 0 -2 -28 -7 -60z m-183 22 c-32 -75 -40 -88 -58 -88 -10 0 -18 2 -18 5 0
12 78 115 87 115 2 0 -3 -15 -11 -32z"/>
</g>
</svg>
