<?xml version="1.0" standalone="no"?>
<!DOCTYPE svg PUBLIC "-//W3C//DTD SVG 20010904//EN"
 "http://www.w3.org/TR/2001/REC-SVG-20010904/DTD/svg10.dtd">
<svg version="1.0" xmlns="http://www.w3.org/2000/svg"
 width="269.000000pt" height="173.000000pt" viewBox="0 0 269.000000 173.000000"
 preserveAspectRatio="xMidYMid meet">
<metadata>
Created by potrace 1.16, written by Peter Selinger 2001-2019
</metadata>
<g transform="translate(0.000000,173.000000) scale(0.100000,-0.100000)"
fill="#000000" stroke="none">
<path d="M82 1617 c-24 -31 -42 -84 -42 -123 0 -49 17 -94 35 -94 7 0 34 -26
61 -57 56 -66 71 -80 99 -92 21 -9 191 -273 209 -325 6 -17 14 -35 17 -41 8
-13 4 -79 -6 -95 -14 -22 12 -35 42 -20 16 8 31 15 35 17 13 6 142 -166 213
-287 41 -69 108 -168 150 -220 41 -52 80 -110 87 -127 7 -18 16 -33 20 -33 4
0 8 -9 8 -20 0 -37 35 -1 76 78 21 42 48 87 60 101 11 14 35 47 53 74 17 26
38 47 46 47 8 0 15 5 15 11 0 22 91 150 148 208 31 32 70 78 87 102 16 24 45
60 63 79 18 19 35 45 38 57 6 21 7 21 326 22 176 0 331 -2 344 -5 21 -6 24
-12 24 -58 -1 -47 -18 -137 -35 -177 -3 -10 -2 -20 4 -24 6 -3 11 -19 11 -36
0 -29 13 -39 25 -19 4 6 8 36 10 68 4 71 60 235 116 338 58 109 62 115 76 109
7 -2 13 0 13 6 0 5 10 23 22 39 13 19 18 33 12 39 -5 4 -55 4 -112 -1 -59 -5
-110 -5 -120 0 -22 12 -82 -13 -82 -33 0 -13 17 -19 38 -12 8 2 20 -77 21
-150 l1 -52 -117 -3 c-146 -5 -580 1 -648 8 -27 3 -153 6 -280 7 -158 2 -278
8 -381 22 l-152 19 41 61 c23 33 91 110 152 170 60 61 133 135 161 165 28 30
90 90 137 134 48 43 87 84 87 92 0 7 -14 15 -32 18 -100 14 -207 26 -230 26
-37 0 -47 -20 -19 -38 18 -13 20 -17 8 -31 -19 -23 -120 -191 -135 -225 -7
-16 -28 -47 -46 -70 -29 -35 -93 -145 -153 -262 -15 -30 -19 -32 -86 -37 -92
-6 -127 10 -169 77 -37 61 -89 142 -134 211 -38 58 -64 127 -64 171 0 38 27
52 119 63 65 8 77 13 66 31 -9 15 -99 10 -154 -8 -33 -11 -48 -12 -62 -4 -14
9 -25 8 -46 -3 -58 -31 -70 -17 -49 58 9 31 14 32 62 12 19 -8 65 -17 102 -21
37 -3 70 -8 73 -10 22 -13 279 -13 403 1 78 9 165 15 193 14 56 -3 77 6 53 21
-20 13 -39 12 -218 -5 -116 -11 -177 -12 -255 -5 -140 14 -242 29 -307 45 -68
16 -116 17 -128 2z m1107 -59 c22 -3 17 -11 -60 -93 -46 -50 -106 -115 -132
-145 -61 -69 -228 -240 -235 -240 -2 0 0 6 5 13 6 6 25 39 43 72 18 33 43 71
55 85 13 14 39 57 57 95 32 65 102 178 135 216 11 13 23 15 61 8 26 -4 58 -9
71 -11z m-999 -139 c0 -5 -7 -9 -15 -9 -15 0 -20 12 -9 23 8 8 24 -1 24 -14z
m-46 -12 c-2 -7 7 -23 21 -35 14 -12 25 -27 25 -34 0 -6 -15 6 -34 28 -32 37
-37 54 -16 54 5 0 7 -6 4 -13z m2316 -302 c-4 -5 -38 -67 -74 -137 l-66 -128
1 93 c0 50 -1 110 -3 132 l-3 40 55 6 c79 8 100 7 90 -6z m-1615 -186 c157
-21 159 -20 -135 -64 -63 -9 -122 -18 -130 -20 -18 -5 -48 34 -61 77 l-8 31
127 -7 c70 -3 163 -11 207 -17z m565 -47 c0 -17 -89 -188 -129 -246 -17 -26
-31 -52 -31 -57 0 -6 -9 -23 -19 -38 -10 -14 -35 -58 -54 -96 -81 -161 -146
-280 -152 -278 -8 3 -147 191 -175 238 -13 22 -28 42 -32 43 -4 2 -8 8 -8 13
0 15 -98 178 -134 224 -44 56 -90 125 -85 128 11 8 152 37 204 42 33 3 80 10
105 16 59 13 267 25 402 25 81 -1 108 -4 108 -14z m134 -29 c-19 -21 -56 -64
-82 -97 -26 -32 -85 -105 -131 -162 -87 -109 -116 -130 -63 -47 16 26 41 71
54 98 13 28 36 69 51 92 15 24 27 45 27 48 0 4 10 29 21 56 l21 49 69 0 68 0
-35 -37z"/>
</g>
</svg>
