<?xml version="1.0" standalone="no"?>
<!DOCTYPE svg PUBLIC "-//W3C//DTD SVG 20010904//EN"
 "http://www.w3.org/TR/2001/REC-SVG-20010904/DTD/svg10.dtd">
<svg version="1.0" xmlns="http://www.w3.org/2000/svg"
 width="281.000000pt" height="158.000000pt" viewBox="0 0 281.000000 158.000000"
 preserveAspectRatio="xMidYMid meet">
<metadata>
Created by potrace 1.16, written by Peter Selinger 2001-2019
</metadata>
<g transform="translate(0.000000,158.000000) scale(0.100000,-0.100000)"
fill="#000000" stroke="none">
<path d="M797 1433 c-4 -3 -4 -23 -1 -44 5 -27 -1 -56 -20 -107 -51 -132 -183
-372 -206 -372 -11 0 -70 75 -70 89 0 7 -7 25 -15 41 -8 16 -16 37 -18 47 -2
10 -9 38 -16 63 -8 27 -11 68 -7 102 4 40 2 58 -7 61 -6 2 -39 -21 -72 -51
-66 -59 -138 -112 -154 -112 -9 0 -41 -55 -41 -72 0 -4 13 -8 29 -8 16 0 42
-11 58 -24 15 -13 48 -33 73 -46 37 -18 190 -127 190 -135 0 -1 -5 -17 -12
-36 -40 -116 -164 -257 -300 -344 -43 -27 -78 -54 -78 -61 0 -8 13 -20 28 -28
37 -19 56 -42 42 -51 -14 -8 -13 -35 2 -35 6 0 29 8 50 17 30 13 38 22 38 44
0 14 10 42 23 60 12 19 33 54 46 79 14 25 49 79 78 121 29 42 53 80 53 84 0 4
9 18 20 32 19 25 20 25 20 4 0 -25 22 -64 62 -106 l28 -31 -57 -17 c-83 -26
-113 -57 -55 -57 35 0 71 -37 98 -100 3 -8 16 -40 29 -70 13 -30 29 -86 36
-125 15 -89 25 -115 43 -115 21 0 28 16 17 37 -5 10 -15 52 -21 93 -6 41 -20
94 -30 118 -15 33 -17 49 -9 64 6 10 10 44 10 74 0 29 4 56 8 58 4 3 21 2 36
-3 16 -4 56 -3 89 1 32 4 61 7 62 5 2 -2 -1 -17 -6 -33 -5 -16 -21 -76 -35
-134 -15 -58 -44 -150 -66 -204 -30 -76 -36 -102 -27 -113 6 -7 15 -12 20 -11
11 4 52 113 75 197 9 31 27 68 44 85 16 17 59 64 96 103 36 40 69 73 72 73 29
0 128 -129 156 -203 10 -26 23 -51 29 -55 6 -4 21 -28 33 -54 29 -61 44 -61
137 -5 39 24 98 54 131 67 33 12 74 29 90 35 17 7 59 23 95 35 36 12 79 28 95
35 17 8 50 21 75 30 25 9 61 23 80 30 19 8 51 14 70 15 19 0 49 8 65 18 35 21
117 52 230 87 44 13 98 31 120 39 22 8 83 21 135 30 91 16 131 33 103 43 -7 3
-13 10 -13 16 -1 21 -49 68 -87 83 -20 9 -95 44 -167 78 -72 35 -162 75 -200
90 -106 43 -177 80 -352 187 -88 54 -174 104 -190 111 -44 19 -145 88 -150
103 -3 7 -19 19 -36 26 -25 10 -32 10 -38 -2 -18 -31 -39 -53 -40 -41 0 24
-19 12 -55 -35 -120 -157 -280 -314 -305 -298 -5 3 -10 37 -10 76 0 48 -4 69
-12 69 -9 0 -10 3 -2 8 6 4 12 38 13 77 1 38 6 74 11 79 4 4 6 14 4 21 -3 7 2
29 10 50 9 21 16 41 16 46 0 15 -29 10 -73 -12 -43 -23 -40 -23 -174 5 -7 1
-16 5 -19 9 -9 9 -19 9 -27 0z m227 -75 c-3 -18 -9 -64 -12 -102 l-7 -69 -38
69 c-21 37 -35 74 -32 81 3 11 76 51 93 53 1 0 0 -15 -4 -32z m-150 3 c18 -7
16 -11 -19 -49 -21 -24 -40 -40 -43 -37 -6 6 28 95 36 94 4 0 16 -4 26 -8z
m636 -31 c0 -11 118 -86 174 -110 26 -11 62 -30 79 -42 17 -12 60 -37 96 -55
66 -33 154 -93 116 -78 -11 4 -36 12 -55 17 -19 6 -55 18 -80 28 -67 28 -262
88 -341 106 -80 18 -81 22 -43 100 17 36 30 51 40 47 8 -3 14 -9 14 -13z
m-550 -162 c0 -9 6 -23 14 -31 8 -7 16 -25 18 -38 3 -20 -1 -24 -22 -21 -91
12 -156 4 -218 -26 -34 -17 -61 -27 -59 -24 42 95 80 151 140 209 l68 66 30
-59 c16 -32 29 -67 29 -76z m450 112 c0 -5 -5 -10 -11 -10 -5 0 -7 5 -4 10 3
6 8 10 11 10 2 0 4 -4 4 -10z m-33 -45 c-27 -20 -6 -55 33 -56 17 -1 33 -2 38
-4 4 -1 21 -5 37 -9 135 -32 286 -79 573 -178 127 -43 260 -98 317 -130 11 -6
43 -22 70 -35 148 -71 183 -90 197 -109 16 -20 15 -21 -77 -47 -51 -14 -112
-35 -136 -45 -68 -31 -108 -42 -150 -42 -20 0 -57 -8 -81 -18 -24 -11 -56 -22
-72 -26 -25 -6 -28 -5 -22 11 4 10 10 104 12 210 5 182 4 192 -14 202 -11 6
-105 13 -208 16 -178 5 -190 6 -207 27 -17 20 -19 20 -34 5 -14 -13 -17 -42
-20 -154 -3 -161 -25 -345 -42 -351 -6 -2 -11 -10 -11 -17 0 -16 42 -27 73
-20 12 3 65 7 117 9 86 4 93 3 75 -11 -19 -13 -17 -14 20 -8 l40 6 -30 -14
c-16 -8 -102 -37 -190 -66 -88 -29 -205 -75 -260 -101 -90 -44 -101 -47 -112
-32 -28 35 -9 69 44 78 15 3 64 14 107 26 43 11 89 21 101 22 39 5 145 39 145
48 0 11 -38 10 -61 -3 -11 -5 -39 -12 -62 -15 -23 -3 -80 -16 -127 -28 -130
-36 -158 -38 -170 -16 -6 12 -19 19 -32 17 -14 -1 -23 5 -27 19 -3 11 -12 27
-19 35 -40 46 -53 65 -58 88 -3 14 -10 38 -16 53 -17 45 -5 49 40 13 48 -37
69 -36 78 4 3 14 15 54 26 89 l20 64 27 -25 c46 -43 81 -61 93 -49 8 8 -1 24
-31 58 -22 26 -41 53 -41 61 0 8 34 57 75 108 70 89 86 115 67 115 -18 0 -57
-37 -112 -106 -35 -45 -61 -70 -65 -64 -11 17 -7 148 5 170 25 48 -1 40 -72
-22 -43 -37 -68 -51 -89 -51 -16 0 -25 -3 -19 -7 6 -4 0 -11 -14 -18 -25 -11
-25 -11 -14 16 7 15 26 47 42 72 38 58 227 262 235 254 3 -3 -2 -12 -12 -19z
m-998 -32 c-1 -10 2 -29 8 -43 6 -14 17 -45 24 -70 7 -25 19 -57 26 -72 16
-34 14 -34 -34 -7 -21 12 -65 36 -98 54 -68 37 -78 57 -38 74 15 6 46 27 68
46 47 40 47 40 44 18z m537 -168 c28 -8 60 -25 73 -39 19 -20 21 -27 10 -44
-10 -16 -10 -23 4 -36 8 -9 20 -16 26 -16 32 0 23 -128 -13 -175 -33 -43 -104
-86 -159 -96 -52 -9 -142 6 -183 32 -46 28 -84 88 -84 133 0 45 10 66 67 133
71 83 125 118 194 122 8 1 38 -6 65 -14z m186 -67 c-7 -7 -12 -8 -12 -2 0 14
12 26 19 19 2 -3 -1 -11 -7 -17z m160 -35 c2 -10 1 -31 -3 -48 -4 -16 -7 -24
-8 -17 0 7 -12 18 -26 24 l-25 11 22 24 c26 28 34 29 40 6z m766 -2 c30 -1 42
-5 42 -16 0 -12 -14 -15 -64 -15 -44 0 -67 -5 -76 -15 -14 -17 -2 -19 82 -15
40 1 47 -1 53 -20 11 -36 -6 -43 -72 -32 -45 8 -61 7 -72 -3 -23 -22 -5 -32
66 -34 62 -2 82 -10 83 -34 0 -5 -26 -7 -58 -6 -32 1 -64 -1 -70 -5 -28 -17
-8 -26 57 -26 67 0 68 0 64 -25 -5 -23 -10 -24 -77 -27 -55 -2 -71 -6 -71 -18
0 -12 15 -15 69 -16 62 -1 70 -3 77 -22 8 -21 6 -22 -61 -22 -56 0 -70 -3 -70
-15 0 -12 14 -15 66 -15 57 0 65 -2 62 -17 -3 -16 -20 -18 -158 -21 -85 -1
-175 -4 -199 -5 -28 -1 -46 3 -48 11 -3 9 13 12 59 14 35 0 68 2 73 3 6 2 16
3 23 4 6 0 12 6 12 12 0 8 -25 10 -80 7 l-80 -5 0 36 c0 20 4 31 8 25 10 -15
132 -25 154 -13 34 18 7 29 -73 29 l-79 0 0 28 c0 68 6 73 83 70 47 -2 71 1
74 9 4 11 -56 25 -120 27 -19 1 -27 6 -25 16 3 11 19 15 61 17 65 2 87 7 87
23 0 6 -30 10 -75 10 -70 0 -75 2 -75 21 0 19 5 21 63 18 50 -3 62 -1 62 11 0
12 -13 15 -58 15 -47 0 -57 3 -57 17 0 20 39 24 195 21 55 -1 119 -2 143 -2z
m-803 -98 c25 -27 45 -53 45 -58 0 -14 -68 -79 -97 -94 -30 -15 -53 -14 -53 4
0 25 -28 17 -83 -23 -75 -55 -88 -60 -37 -14 25 23 49 41 53 42 17 0 58 112
52 141 -9 39 0 49 41 49 28 0 43 -9 79 -47z m10 -192 c-6 -30 -7 -30 -31 -15
-31 21 -30 28 4 40 34 13 35 12 27 -25z m-157 13 c-3 -3 0 -25 8 -50 l13 -45
-30 25 c-17 14 -38 26 -47 26 -12 0 -11 5 8 25 13 14 30 25 38 25 9 0 13 -2
10 -6z m-110 -60 c6 3 13 2 17 -4 7 -11 -15 -13 -39 -4 -9 3 -13 11 -10 16 4
6 9 6 14 -2 4 -7 12 -10 18 -6z m-328 -54 c0 -27 -2 -50 -4 -50 -2 0 -16 16
-31 36 -27 35 -27 37 -10 50 35 26 45 17 45 -36z m-296 -2 c-16 -32 -89 -138
-94 -138 -3 1 -18 11 -34 24 l-28 24 65 36 c36 20 71 43 77 51 15 18 24 20 14
3z m634 -3 c3 -3 -10 -22 -29 -43 -20 -20 -46 -50 -59 -67 -13 -16 -21 -23
-17 -14 3 9 8 38 12 65 10 76 11 77 51 71 20 -4 39 -9 42 -12z m991 -59 c-2
-2 -17 -6 -34 -10 -22 -5 -26 -4 -15 4 14 9 59 15 49 6z"/>
<path d="M1738 443 c-21 -5 -24 -23 -4 -23 24 0 46 12 40 21 -5 9 -8 10 -36 2z"/>
<path d="M1710 691 c-10 -7 -11 -13 -5 -19 12 -11 75 -21 93 -15 21 8 13 33
-10 33 -13 0 -32 3 -43 5 -11 3 -27 1 -35 -4z"/>
</g>
</svg>
