<?xml version="1.0" standalone="no"?>
<!DOCTYPE svg PUBLIC "-//W3C//DTD SVG 20010904//EN"
 "http://www.w3.org/TR/2001/REC-SVG-20010904/DTD/svg10.dtd">
<svg version="1.0" xmlns="http://www.w3.org/2000/svg"
 width="195.000000pt" height="93.000000pt" viewBox="0 0 195.000000 93.000000"
 preserveAspectRatio="xMidYMid meet">
<metadata>
Created by potrace 1.16, written by Peter Selinger 2001-2019
</metadata>
<g transform="translate(0.000000,93.000000) scale(0.100000,-0.100000)"
fill="#000000" stroke="none">
<path d="M1083 802 c-12 -7 -22 -46 -28 -110 -2 -18 -6 -45 -10 -60 -3 -15 -7
-59 -9 -99 -2 -39 -7 -76 -11 -83 -4 -6 -5 -14 -2 -16 3 -3 1 -20 -5 -37 -5
-18 -11 -65 -13 -104 -3 -62 -1 -74 14 -83 19 -10 390 -8 407 3 33 20 241 31
294 16 25 -7 49 -13 55 -14 5 0 10 65 11 158 l2 158 -176 -6 c-97 -3 -201 -8
-231 -11 l-54 -4 8 72 c4 40 8 96 9 123 2 28 5 56 7 64 2 7 -1 15 -7 18 -21 7
-41 -42 -48 -117 -3 -41 -8 -90 -10 -108 -6 -53 3 -75 30 -69 13 2 21 1 19 -4
-5 -7 150 -5 353 5 59 3 62 2 56 -18 -4 -12 -8 -61 -10 -111 -2 -49 -3 -93 -4
-98 0 -4 -8 -2 -18 4 -15 9 -57 7 -188 -9 -144 -18 -275 -25 -435 -23 l-36 1
3 53 c2 28 10 88 18 132 8 44 17 121 21 170 11 144 15 176 20 185 7 12 -19 30
-32 22z"/>
<path d="M451 688 c-99 -89 -255 -207 -276 -208 -5 0 -21 -10 -35 -21 l-25
-21 24 -19 c13 -11 35 -22 50 -26 33 -8 189 -120 264 -190 80 -76 91 -71 94
42 4 144 3 187 -3 196 -10 17 25 20 220 22 134 1 199 6 207 14 21 21 -65 34
-247 36 l-174 2 0 70 c0 79 15 146 36 158 23 13 16 37 -9 37 -15 0 -59 -32
-126 -92z m51 -10 c-12 -16 -16 -122 -13 -327 1 -46 -1 -86 -4 -89 -3 -3 -20
8 -38 24 -56 53 -176 146 -189 148 -25 4 -54 27 -40 32 30 13 214 158 261 206
19 19 38 24 23 6z m38 -188 c0 -5 -4 -10 -10 -10 -5 0 -10 5 -10 10 0 6 5 10
10 10 6 0 10 -4 10 -10z"/>
</g>
</svg>
