<?xml version="1.0" standalone="no"?>
<!DOCTYPE svg PUBLIC "-//W3C//DTD SVG 20010904//EN"
 "http://www.w3.org/TR/2001/REC-SVG-20010904/DTD/svg10.dtd">
<svg version="1.0" xmlns="http://www.w3.org/2000/svg"
 width="318.000000pt" height="103.000000pt" viewBox="0 0 318.000000 103.000000"
 preserveAspectRatio="xMidYMid meet">
<metadata>
Created by potrace 1.16, written by Peter Selinger 2001-2019
</metadata>
<g transform="translate(0.000000,103.000000) scale(0.100000,-0.100000)"
fill="#000000" stroke="none">
<path d="M1090 967 c-67 -31 -170 -68 -208 -74 -19 -3 -36 -12 -39 -19 -6 -16
53 -96 117 -159 48 -48 38 -54 -47 -30 -45 13 -68 27 -103 64 -37 39 -52 48
-82 49 -28 1 -40 -4 -48 -18 -9 -17 -21 -20 -78 -20 -119 0 -254 19 -300 42
-24 11 -64 36 -88 55 -35 26 -50 32 -71 27 -14 -4 -28 -15 -30 -25 -3 -11 -8
-19 -12 -19 -10 0 -5 -132 8 -218 8 -54 9 -109 3 -182 -5 -57 -6 -116 -1 -130
4 -14 13 -44 19 -66 17 -68 38 -67 125 5 27 23 55 41 62 41 6 0 18 9 26 20 12
17 28 20 133 23 127 4 144 2 144 -18 0 -31 36 -22 128 32 53 31 104 62 112 68
29 23 86 36 195 45 l110 9 87 -91 c48 -50 104 -116 125 -147 21 -31 42 -59 48
-63 16 -12 28 8 19 33 -4 13 -8 27 -9 31 0 3 -34 46 -75 94 -41 48 -88 103
-103 121 -34 39 -33 40 85 46 65 4 88 1 92 -8 2 -7 47 -34 98 -60 51 -26 126
-71 167 -99 40 -28 81 -56 90 -61 9 -6 34 -22 56 -36 22 -13 60 -33 85 -44 25
-10 53 -27 63 -38 16 -19 19 -19 34 -5 14 15 7 20 -78 61 -123 59 -258 156
-320 230 -27 32 -49 62 -49 66 0 4 27 4 60 0 41 -5 75 -16 108 -38 27 -17 52
-31 55 -31 4 0 38 -20 77 -45 39 -25 72 -45 75 -45 8 0 70 -45 141 -102 74
-60 88 -67 97 -45 6 15 -110 103 -206 157 -35 20 -69 49 -86 74 -16 23 -36 48
-45 55 -25 21 -19 31 20 31 29 0 59 -16 148 -77 61 -42 133 -92 159 -110 26
-18 60 -41 74 -53 14 -11 32 -20 39 -20 17 0 114 -61 114 -71 0 -5 7 -9 15 -9
8 0 15 6 15 13 0 18 -35 47 -90 76 -25 14 -53 30 -63 36 -32 22 -197 185 -197
195 0 17 47 11 87 -12 21 -12 65 -43 98 -68 33 -25 78 -57 100 -71 22 -15 60
-46 85 -71 46 -45 109 -88 129 -88 22 0 11 38 -13 44 -13 3 -48 28 -78 54 -29
27 -86 72 -126 101 -67 48 -135 111 -127 119 2 2 27 4 56 4 36 -1 58 -6 73
-20 11 -11 48 -37 81 -60 33 -22 74 -53 92 -68 17 -16 53 -42 80 -59 88 -55
158 -95 166 -95 21 0 1 21 -50 55 -114 74 -219 158 -255 205 l-38 48 78 7 c94
8 104 5 246 -88 136 -90 276 -170 283 -163 10 9 -8 25 -53 48 -26 12 -71 48
-102 80 -30 31 -79 74 -108 95 -29 21 -60 53 -69 71 -9 17 -20 32 -25 32 -5 0
8 33 30 73 22 39 40 81 40 92 0 11 10 31 21 45 40 50 90 132 84 139 -8 7 -48
-38 -142 -160 -40 -52 -93 -116 -118 -143 -47 -50 -52 -76 -14 -76 51 0 8 -8
-78 -14 -68 -6 -93 -4 -93 4 0 7 23 59 51 118 52 108 107 196 161 258 32 37
33 55 0 33 -10 -8 -64 -68 -119 -134 -55 -66 -123 -145 -151 -175 -60 -63 -65
-80 -22 -80 20 0 30 -5 30 -15 0 -12 -17 -15 -89 -15 -88 0 -89 0 -83 23 8 30
38 81 88 147 23 30 56 80 74 110 18 30 49 71 67 91 22 23 31 39 24 43 -16 10
-20 7 -117 -106 -114 -133 -170 -194 -217 -241 -39 -38 -41 -57 -7 -57 10 0
22 -4 25 -10 4 -6 -15 -10 -49 -10 -30 0 -58 5 -61 11 -4 6 7 33 24 60 17 28
31 53 31 56 0 2 13 23 29 46 41 60 91 146 91 156 0 5 23 30 52 56 33 30 48 49
41 56 -12 12 -75 -37 -124 -96 -37 -44 -195 -211 -248 -261 -31 -30 -35 -62
-6 -51 6 3 25 -4 41 -15 l29 -20 -49 6 c-27 3 -71 6 -98 6 -33 0 -50 5 -54 15
-5 13 49 114 83 155 7 8 34 42 60 75 50 63 76 92 132 150 19 19 31 38 28 41
-10 10 -54 -22 -95 -68 -64 -71 -164 -170 -244 -242 -43 -38 -78 -73 -78 -77
0 -4 9 -11 20 -14 11 -3 20 -11 20 -17 0 -7 -17 -8 -50 -4 -83 11 -83 12 -44
67 18 27 34 52 34 55 0 27 200 245 257 280 10 7 14 15 10 20 -15 16 -74 -30
-223 -171 -131 -125 -219 -195 -243 -195 -5 0 -14 -7 -21 -15 -13 -16 -25 -15
-170 6 -115 17 -136 28 -143 78 -3 23 -1 56 3 73 8 26 6 31 -10 35 -11 3 -20
7 -20 9 0 2 14 41 30 86 28 77 32 109 13 107 -4 0 -28 -10 -53 -22z m-24 -89
c-4 -13 -13 -54 -20 -91 -8 -38 -16 -70 -18 -73 -3 -2 -33 26 -68 63 l-64 67
39 8 c21 5 46 15 54 22 15 13 41 22 70 25 9 1 11 -6 7 -21z m-854 -98 c24 -10
46 -22 50 -25 3 -3 -16 -29 -43 -57 -27 -28 -51 -49 -53 -47 -9 9 -11 149 -2
149 2 0 23 -9 48 -20z m628 -132 c25 -9 83 -26 129 -38 97 -23 124 -38 146
-80 l16 -30 -50 0 c-31 0 -51 5 -54 13 -3 9 -11 9 -38 -2 -32 -13 -99 -31
-162 -45 -16 -4 -27 -12 -24 -19 5 -16 -59 -58 -100 -64 -30 -5 -33 -3 -33 19
0 14 5 39 11 55 8 25 18 32 51 39 60 13 63 36 4 28 -36 -5 -46 -4 -46 7 0 34
14 58 36 63 29 8 32 26 4 26 -17 0 -20 7 -20 53 0 30 3 56 6 60 3 3 22 -11 43
-32 20 -20 57 -44 81 -53z m-187 43 c-9 -65 -8 -64 -71 -57 -31 3 -118 9 -192
12 -74 4 -137 8 -139 10 -2 1 9 14 24 28 16 15 28 27 29 28 1 0 71 4 156 7 85
3 165 7 177 7 19 1 21 -2 16 -35z m1603 7 c-8 -13 -30 -47 -48 -75 -18 -29
-38 -53 -45 -53 -23 0 -14 15 45 83 58 67 77 85 48 45z m-179 5 c-40 -76 -82
-132 -89 -121 -12 20 -11 23 38 77 41 46 62 64 51 44z m-987 -28 c0 -14 -4
-25 -10 -25 -11 0 -14 33 -3 43 11 11 13 8 13 -18z m1600 -35 c-20 -39 -44
-59 -57 -47 -3 3 12 28 33 55 44 56 55 53 24 -8z m-254 8 c-22 -39 -46 -61
-46 -41 0 9 58 83 66 83 2 0 -7 -19 -20 -42z m-843 -23 c-23 -35 -42 -55 -52
-53 -25 5 -19 31 9 45 14 6 36 23 50 37 35 39 34 32 -7 -29z m191 5 c-15 -22
-31 -37 -36 -34 -8 5 48 74 59 74 2 0 -9 -18 -23 -40z m-1523 -24 c32 -13 32
-14 8 -21 -13 -4 -36 -16 -51 -26 -34 -24 -38 -24 -38 5 0 25 22 51 33 39 4
-3 7 -1 7 5 0 15 1 15 41 -2z m376 -20 c1 -1 0 -19 -4 -39 l-5 -36 -190 -1
c-104 0 -194 -3 -200 -6 -7 -5 -8 -2 -3 5 12 20 86 51 122 51 17 0 35 5 38 11
14 22 53 28 145 22 52 -3 96 -6 97 -7z m727 -46 c88 0 64 -7 -50 -15 -90 -6
-102 -5 -108 11 -6 15 -1 16 46 11 29 -4 80 -7 112 -7z m1392 -55 c76 -55 95
-79 27 -35 -26 17 -60 39 -75 48 -26 16 -37 32 -22 32 4 0 35 -20 70 -45z
m-1222 5 c6 0 24 -16 39 -36 l29 -35 -71 36 c-77 38 -89 51 -40 41 17 -3 37
-6 43 -6z m295 -22 c17 -17 29 -33 27 -35 -4 -5 -95 47 -101 58 -4 5 5 9 18 9
14 0 38 -13 56 -32z m243 -9 c22 -22 38 -42 36 -44 -5 -6 -118 68 -118 78 0
21 47 2 82 -34z m353 31 c3 -6 -1 -7 -9 -4 -18 7 -21 14 -7 14 6 0 13 -4 16
-10z m-2187 -24 l47 6 -59 -36 c-32 -20 -60 -36 -62 -36 -11 0 -2 69 9 73 6 2
13 0 15 -4 2 -5 25 -6 50 -3z m381 -40 l-1 -53 -197 -6 c-108 -3 -207 -9 -221
-12 l-25 -7 25 14 c38 21 128 84 145 101 12 12 42 16 145 16 l129 0 0 -53z
m-339 -99 c0 -10 -91 -67 -99 -63 -5 3 -11 17 -13 31 -3 13 -2 22 3 20 4 -3
18 -1 31 4 22 9 78 15 78 8z"/>
</g>
</svg>
