<?xml version="1.0" standalone="no"?>
<!DOCTYPE svg PUBLIC "-//W3C//DTD SVG 20010904//EN"
 "http://www.w3.org/TR/2001/REC-SVG-20010904/DTD/svg10.dtd">
<svg version="1.0" xmlns="http://www.w3.org/2000/svg"
 width="144.000000pt" height="124.000000pt" viewBox="0 0 144.000000 124.000000"
 preserveAspectRatio="xMidYMid meet">
<metadata>
Created by potrace 1.16, written by Peter Selinger 2001-2019
</metadata>
<g transform="translate(0.000000,124.000000) scale(0.100000,-0.100000)"
fill="#000000" stroke="none">
<path d="M763 1058 c-19 -24 -21 -43 -6 -60 8 -9 18 -46 23 -81 4 -36 10 -70
14 -75 18 -30 28 -499 12 -586 l-7 -37 -55 55 c-29 30 -54 64 -54 74 0 10 -9
27 -20 37 -11 10 -20 26 -20 36 0 10 -8 40 -19 66 -10 26 -22 70 -25 97 -4 27
-9 52 -10 55 -2 3 -7 47 -12 96 -9 106 -7 207 6 254 19 70 -4 54 -74 -53 -72
-110 -220 -258 -358 -359 -40 -29 -54 -77 -23 -77 8 0 15 5 15 11 0 13 31 9
133 -19 37 -10 73 -24 79 -30 7 -7 18 -12 25 -12 27 0 135 -65 184 -111 29
-27 58 -49 65 -49 7 0 51 -36 97 -80 47 -44 92 -80 101 -80 13 0 16 15 18 93
1 50 1 111 0 134 -1 40 2 45 55 85 30 24 78 64 106 89 48 43 52 45 91 38 23
-4 61 -6 86 -4 166 15 174 17 167 38 -2 8 -48 12 -148 13 -85 0 -160 5 -184
13 -70 22 -115 44 -115 56 0 54 106 288 150 331 50 49 41 58 -42 48 -89 -10
-196 -10 -224 0 -13 5 -24 3 -31 -6z m249 -55 c-26 -38 -107 -211 -122 -260
-15 -51 -40 -53 -38 -4 0 20 -5 63 -12 96 -7 33 -15 86 -19 118 l-7 57 56 1
c30 0 73 4 95 8 67 14 68 14 47 -16z m-485 -238 c2 -145 20 -239 58 -315 7
-14 16 -36 20 -50 7 -25 7 -24 -26 6 -29 27 -122 81 -169 98 -8 3 -22 10 -30
15 -21 12 -83 31 -117 36 -68 9 -67 13 9 83 98 89 183 178 220 230 17 23 32
42 32 42 1 0 2 -65 3 -145z m397 -154 c3 -5 27 -14 52 -20 46 -12 46 -12 28
-33 -19 -20 -128 -98 -138 -98 -16 0 -4 85 17 120 22 40 31 47 41 31z"/>
</g>
</svg>
