<?xml version="1.0" standalone="no"?>
<!DOCTYPE svg PUBLIC "-//W3C//DTD SVG 20010904//EN"
 "http://www.w3.org/TR/2001/REC-SVG-20010904/DTD/svg10.dtd">
<svg version="1.0" xmlns="http://www.w3.org/2000/svg"
 width="272.000000pt" height="131.000000pt" viewBox="0 0 272.000000 131.000000"
 preserveAspectRatio="xMidYMid meet">
<metadata>
Created by potrace 1.16, written by Peter Selinger 2001-2019
</metadata>
<g transform="translate(0.000000,131.000000) scale(0.100000,-0.100000)"
fill="#000000" stroke="none">
<path d="M542 1198 c-7 -7 -12 -25 -12 -41 l0 -30 -98 7 c-54 4 -106 4 -115 1
-18 -8 -15 -54 10 -123 12 -35 14 -78 10 -223 -2 -99 -6 -182 -9 -184 -11 -11
-81 18 -85 36 -6 23 -4 23 -57 -2 -40 -19 -62 -48 -56 -74 2 -5 3 -56 2 -112
-2 -98 -1 -103 19 -103 11 0 46 23 77 50 31 28 76 60 101 72 24 12 52 29 60
37 13 12 39 16 116 16 99 1 251 10 353 21 52 5 54 4 105 -39 29 -25 90 -81
136 -125 l83 -80 -3 -78 c-3 -55 0 -78 9 -81 6 -3 12 2 12 11 0 9 3 15 8 14 4
-1 25 9 47 23 22 14 57 29 78 32 41 6 70 24 62 37 -8 14 -112 -15 -167 -47 -5
-2 -8 18 -8 46 l0 50 33 -10 c17 -5 76 -12 130 -16 53 -3 97 -10 97 -16 0 -5
9 -7 19 -4 11 3 50 -1 88 -8 37 -7 71 -11 75 -9 3 2 14 1 23 -2 13 -5 16 -15
12 -40 -6 -34 9 -57 19 -30 5 13 11 41 13 59 1 12 71 8 71 -4 0 -8 4 -8 13 -1
18 15 142 11 142 -5 0 -21 16 -28 26 -10 9 15 24 17 112 16 56 -1 107 -1 112
1 6 1 22 2 38 1 25 -1 27 -4 27 -40 0 -59 11 -101 26 -101 10 0 14 15 15 48 4
128 8 184 18 267 6 50 13 135 17 190 10 176 52 292 155 428 61 80 57 96 -16
78 -29 -7 -75 -9 -122 -5 -58 5 -77 4 -83 -7 -6 -8 -4 -19 5 -29 37 -41 44
-83 40 -236 -2 -82 -6 -171 -10 -199 -3 -27 -7 -73 -10 -101 -2 -28 -9 -84
-15 -125 -21 -147 -14 -133 -67 -138 -97 -9 -123 -5 -141 20 -9 13 -16 30 -16
37 1 6 2 17 3 23 1 7 13 9 34 5 18 -3 36 -3 40 0 13 14 -16 34 -49 34 -32 0
-33 1 -27 37 3 21 7 39 8 41 1 1 22 6 46 10 30 5 45 13 47 25 3 15 -3 16 -43
10 l-46 -6 3 34 c3 31 6 34 43 39 28 4 41 10 43 23 3 15 -2 18 -25 17 -48 -3
-53 -1 -53 25 0 18 5 25 19 25 11 0 23 5 27 11 8 13 -14 29 -31 22 -9 -3 -11
6 -5 35 4 22 5 53 2 70 -4 29 -2 31 24 29 20 -1 29 3 32 16 3 13 -3 17 -27 17
-29 0 -31 2 -31 36 0 45 -24 42 -28 -4 -3 -30 -6 -32 -42 -32 -38 0 -39 1 -30
26 12 31 12 34 2 34 -5 0 -16 -16 -25 -35 -18 -38 -40 -45 -57 -17 -10 16 -10
16 -20 0 -7 -11 -23 -18 -40 -18 -24 0 -29 5 -33 28 l-4 27 -13 -30 c-11 -27
-17 -30 -46 -27 -28 3 -34 8 -34 28 0 13 -4 24 -10 24 -5 0 -10 -8 -10 -19 0
-25 -24 -43 -52 -39 -21 3 -23 8 -21 51 1 35 -2 47 -13 47 -10 0 -14 -13 -14
-45 0 -41 -2 -45 -25 -45 -20 0 -25 5 -26 28 -1 15 -1 33 0 40 1 6 -5 12 -13
12 -9 0 -20 -16 -27 -40 -11 -36 -15 -40 -45 -40 -18 0 -35 -4 -39 -9 -7 -12
28 -23 49 -15 13 5 16 0 16 -24 0 -26 -4 -31 -27 -34 -39 -4 -42 -28 -4 -28
28 0 31 -3 31 -30 0 -24 -4 -30 -22 -30 -38 0 -69 -12 -65 -24 2 -6 20 -10 44
-8 38 3 40 2 41 -27 1 -28 -2 -30 -39 -33 -50 -4 -51 -21 -2 -28 36 -5 38 -7
38 -40 0 -30 -4 -35 -25 -37 -14 -1 -41 -4 -60 -7 -19 -2 -39 -5 -44 -5 -5 -1
-6 -4 -2 -9 5 -4 36 -7 69 -7 l62 0 0 -40 c0 -40 0 -40 -42 -43 -54 -4 -57
-22 -4 -22 41 0 65 -25 35 -37 -20 -8 -146 3 -212 18 -40 10 -52 17 -52 31 0
14 -5 18 -19 13 -15 -4 -22 3 -34 33 -8 21 -18 56 -22 78 -3 21 -12 57 -20 79
-7 22 -15 71 -18 108 -3 37 -7 71 -10 73 -14 14 -50 -13 -96 -70 -70 -90 -99
-101 -296 -114 -162 -10 -241 -7 -251 9 -3 5 -26 9 -50 9 l-46 0 6 38 c3 20 8
93 12 162 3 68 7 128 10 131 2 4 31 26 64 48 60 41 60 41 66 17 3 -13 5 -30 4
-37 -7 -49 8 -50 57 -5 49 43 110 81 146 90 46 11 322 9 344 -3 11 -5 24 -7
28 -3 5 4 5 2 2 -4 -4 -6 10 -25 31 -41 20 -17 70 -60 111 -97 l74 -66 36 33
c20 18 64 49 97 70 l61 37 147 4 c137 5 215 10 311 22 22 3 103 7 179 10 76 2
141 6 144 9 3 3 1 10 -5 16 -13 13 -141 8 -338 -10 -104 -10 -427 -14 -507 -6
-41 4 -108 33 -108 46 0 18 -19 8 -26 -13 -8 -28 -11 -49 -13 -108 l-1 -45
-45 48 c-48 51 -48 51 -45 185 2 71 -6 76 -61 39 -123 -83 -136 -88 -217 -86
-92 2 -155 17 -252 60 -63 29 -71 35 -67 56 5 25 -3 29 -21 11 -9 -9 -12 -8
-12 5 0 20 -11 22 -28 5z m617 -105 c-1 -21 -4 -48 -7 -61 -7 -23 -8 -23 -42
13 -29 30 -32 38 -20 45 8 5 24 16 35 24 30 23 35 20 34 -21z m-511 -7 l63
-29 -61 -33 c-33 -18 -68 -38 -77 -46 -14 -12 -15 -7 -8 47 5 33 8 68 9 78 0
9 3 16 6 15 3 -2 33 -16 68 -32z m-205 -16 c40 0 57 -4 57 -13 0 -15 -65 -80
-96 -95 -25 -13 -34 -7 -34 25 0 13 -7 40 -15 59 -15 36 -15 36 8 30 12 -3 48
-6 80 -6z m2013 -64 c-24 -33 -54 -81 -67 -106 l-24 -45 -5 85 c-3 47 -11 94
-17 105 -10 19 -8 20 73 21 l84 1 -44 -61z m-1052 -41 c49 -8 59 -19 26 -30
-11 -4 -39 -21 -63 -39 l-42 -32 1 30 c1 17 2 44 3 60 1 19 5 27 15 23 7 -3
34 -9 60 -12z m177 -145 c24 0 27 -45 3 -54 -33 -13 -64 -7 -64 13 0 32 12 52
27 47 8 -3 23 -6 34 -6z m222 -20 c-3 -11 -9 -20 -13 -20 -4 0 -22 -3 -39 -6
-28 -6 -31 -4 -31 19 0 23 5 26 38 29 47 4 51 2 45 -22z m90 24 c13 -13 -14
-44 -38 -44 -41 0 -41 32 0 43 31 7 31 7 38 1z m70 -11 c-13 -37 -43 -38 -43
-2 0 14 7 19 25 19 19 0 23 -4 18 -17z m107 -3 c0 -17 -7 -20 -40 -20 -33 0
-40 3 -40 20 0 17 7 20 40 20 33 0 40 -3 40 -20z m-378 -15 c-5 -25 -1 -22
-37 -27 -26 -3 -30 0 -33 25 -3 27 -2 28 35 25 32 -2 37 -6 35 -23z m191 -44
c4 -1 7 -14 7 -31 0 -28 -3 -30 -35 -30 -36 0 -40 6 -29 46 4 14 12 20 27 18
12 -1 25 -3 30 -3z m75 -23 c-2 -22 -9 -34 -20 -36 -15 -3 -18 4 -18 32 0 30
4 36 21 36 17 0 20 -5 17 -32z m110 1 c3 -23 -1 -27 -34 -33 -44 -9 -54 0 -47
37 5 25 9 28 42 25 31 -3 36 -7 39 -29z m-268 -9 c0 -28 -2 -30 -40 -30 -38 0
-40 2 -40 30 0 28 2 30 40 30 38 0 40 -2 40 -30z m-210 -9 c0 -23 -5 -30 -27
-34 -36 -7 -43 -2 -43 34 0 27 3 29 35 29 32 0 35 -3 35 -29z m100 -1 c0 -28
-2 -30 -40 -30 -35 0 -40 3 -40 23 0 31 7 37 47 37 30 0 33 -3 33 -30z m-626
-84 c4 -30 14 -62 21 -72 8 -11 15 -32 15 -47 0 -15 7 -39 16 -52 26 -40 7
-29 -58 34 -36 35 -57 64 -53 71 4 7 -1 14 -14 17 -12 3 -21 7 -21 10 0 8 74
92 81 93 4 0 10 -24 13 -54z m734 7 c3 -26 -1 -33 -15 -34 -10 -1 -28 -3 -40
-4 -23 -2 -25 1 -25 30 0 44 2 46 40 43 34 -3 37 -6 40 -35z m92 2 c0 -33 -2
-35 -35 -35 -32 0 -35 3 -35 28 0 36 6 42 42 42 25 0 28 -3 28 -35z m61 22
c-1 -4 -1 -18 -1 -32 0 -16 -6 -25 -15 -25 -15 0 -22 50 -8 64 8 8 25 3 24 -7z
m109 -23 c0 -35 -1 -35 -37 -32 -27 2 -39 8 -41 21 -7 33 6 47 43 47 33 0 35
-2 35 -36z m-370 -9 c0 -35 0 -35 -44 -35 -40 0 -43 2 -41 24 5 38 13 46 51
46 32 0 34 -2 34 -35z m-100 -4 c0 -32 -12 -40 -47 -33 -18 3 -23 11 -23 33 0
26 3 29 35 29 32 0 35 -2 35 -29z m-1293 -64 c20 -9 40 -47 24 -47 -3 0 -33
-18 -66 -40 -33 -22 -63 -40 -66 -40 -6 0 -1 135 6 157 4 13 16 9 102 -30z
m1501 -28 l2 -40 -38 3 c-36 3 -37 5 -40 43 l-3 41 39 -4 c38 -4 39 -5 40 -43z
m90 24 c5 -34 -16 -65 -41 -61 -23 3 -32 26 -23 62 8 31 60 31 64 -1z m168 -7
c-3 -11 -6 -27 -6 -33 0 -8 -14 -13 -35 -13 -33 0 -35 2 -35 33 0 42 2 44 46
39 31 -4 35 -7 30 -26z m-366 -16 l0 -40 -45 0 c-45 0 -45 0 -45 34 0 32 3 35
33 39 17 2 38 5 45 5 8 1 12 -12 12 -38z m260 1 c0 -34 -3 -40 -20 -38 -16 1
-20 8 -20 39 0 31 4 38 20 38 17 0 20 -7 20 -39z m-370 -6 c0 -32 -2 -35 -30
-35 -28 0 -30 3 -30 35 0 32 2 35 30 35 28 0 30 -3 30 -35z m-1220 11 c0 -3
-4 -8 -10 -11 -5 -3 -10 -1 -10 4 0 6 5 11 10 11 6 0 10 -2 10 -4z m1330 -100
c0 -19 3 -42 6 -51 6 -14 0 -16 -42 -13 l-49 3 -3 45 -3 45 46 3 45 3 0 -35z
m110 -16 l0 -50 -39 0 c-43 0 -50 13 -42 73 3 24 7 27 42 27 l39 0 0 -50z m80
11 c0 -44 -25 -80 -43 -62 -6 6 -11 31 -12 56 -2 43 -1 45 26 45 27 0 29 -3
29 -39z m70 -11 c0 -47 -2 -50 -25 -50 -23 0 -25 4 -25 43 0 48 5 57 32 57 15
0 18 -8 18 -50z m90 7 c0 -52 -2 -55 -37 -50 -29 5 -29 3 -24 81 1 7 14 12 31
12 29 0 30 -2 30 -43z m-462 -12 l1 -45 -35 0 c-29 0 -35 3 -30 16 3 9 6 29 6
45 0 25 4 29 29 29 27 0 29 -2 29 -45z m2 -97 c0 -18 -5 -28 -14 -28 -30 0
-46 13 -46 36 0 21 4 24 30 22 26 -2 30 -6 30 -30z m118 -12 l3 -39 -38 6
c-21 4 -47 7 -57 7 -16 0 -17 3 -8 12 7 7 12 23 12 36 0 21 4 23 43 20 41 -3
42 -4 45 -42z m102 4 c0 -40 0 -40 -38 -40 -37 0 -39 2 -40 32 -1 43 3 48 44
48 33 0 34 -1 34 -40z m55 23 c17 -44 16 -63 -5 -63 -17 0 -20 7 -20 40 0 41
13 53 25 23z m95 -12 c0 -16 3 -36 6 -44 4 -12 0 -14 -18 -10 -29 8 -47 31
-48 61 0 18 5 22 30 22 26 0 30 -3 30 -29z m90 -10 c0 -23 5 -41 13 -44 6 -2
-1 -6 -16 -9 -37 -7 -57 14 -57 58 0 31 3 34 30 34 28 0 30 -2 30 -39z"/>
</g>
</svg>
