<?xml version="1.0" standalone="no"?>
<!DOCTYPE svg PUBLIC "-//W3C//DTD SVG 20010904//EN"
 "http://www.w3.org/TR/2001/REC-SVG-20010904/DTD/svg10.dtd">
<svg version="1.0" xmlns="http://www.w3.org/2000/svg"
 width="177.000000pt" height="153.000000pt" viewBox="0 0 177.000000 153.000000"
 preserveAspectRatio="xMidYMid meet">
<metadata>
Created by potrace 1.16, written by Peter Selinger 2001-2019
</metadata>
<g transform="translate(0.000000,153.000000) scale(0.100000,-0.100000)"
fill="#000000" stroke="none">
<path d="M1157 1432 c-10 -10 -60 -41 -111 -68 -90 -46 -96 -47 -114 -31 -10
9 -24 17 -30 17 -6 0 -34 20 -62 45 -28 25 -57 45 -64 45 -16 0 -38 -24 -30
-33 3 -3 -28 -72 -68 -154 -41 -81 -82 -166 -91 -188 -19 -46 -106 -193 -133
-227 -11 -13 -30 -24 -43 -26 -13 -1 -31 -12 -40 -25 -29 -42 -145 -158 -181
-179 -71 -44 -63 -57 35 -56 70 0 77 -1 110 -31 20 -17 42 -31 50 -31 7 0 35
-23 62 -51 57 -59 188 -161 247 -191 45 -23 210 -159 225 -186 13 -24 56 -2
78 42 10 18 52 79 93 133 111 147 142 192 171 248 69 133 94 168 172 240 45
42 99 83 120 92 36 17 53 53 23 53 -28 0 -130 52 -180 93 -29 23 -68 64 -87
92 -19 27 -58 75 -88 107 -46 50 -52 62 -46 86 7 24 19 104 27 172 4 31 -22
38 -45 12z m-19 -124 c-2 -40 -7 -52 -20 -54 -10 -1 -18 1 -18 5 0 4 -18 14
-41 21 -22 8 -42 17 -44 20 -5 8 93 60 113 60 10 0 12 -13 10 -52z m-305 21
c23 -12 44 -23 46 -25 2 -2 -9 -14 -25 -26 -16 -12 -68 -60 -116 -107 -49 -46
-90 -82 -94 -79 -10 11 121 258 137 258 6 0 29 -10 52 -21z m194 -90 c94 -49
163 -109 246 -213 44 -53 86 -100 95 -103 36 -13 44 -25 28 -42 -9 -9 -27 -48
-41 -86 -15 -39 -38 -90 -51 -115 -21 -38 -29 -45 -52 -44 -15 1 -33 3 -40 3
-10 1 -12 17 -7 74 7 79 43 219 55 212 13 -8 40 6 40 20 0 8 -28 16 -82 23
-46 6 -104 15 -130 22 -55 13 -110 10 -116 -8 -2 -6 6 -16 18 -20 l22 -8 -26
-17 c-14 -9 -28 -17 -31 -17 -4 0 -6 24 -5 53 3 56 -6 87 -23 87 -5 0 -35 -24
-65 -52 -38 -36 -57 -48 -60 -38 -3 7 8 24 23 37 15 13 25 27 21 30 -10 10
-60 -16 -105 -55 -52 -45 -50 -61 10 -111 44 -36 71 -32 50 7 -14 25 -14 62
-2 62 6 0 22 -11 36 -24 19 -18 25 -31 20 -45 -4 -15 -2 -21 9 -21 8 0 18 5
21 10 3 6 13 10 21 10 19 0 19 -73 -1 -90 -17 -14 -20 -50 -4 -50 6 0 9 -22 8
-55 -1 -30 -6 -55 -10 -55 -4 0 -15 27 -25 60 -19 63 -39 75 -39 23 0 -27 -3
-30 -17 -22 -10 5 -18 13 -18 18 0 10 71 81 82 81 4 0 8 5 8 10 0 23 -39 6
-90 -40 -64 -59 -63 -70 16 -111 42 -21 49 -29 44 -45 -4 -10 -5 -34 -3 -52 7
-44 33 -42 86 7 54 50 126 76 181 66 36 -6 84 -12 123 -14 33 -2 -92 -214
-218 -368 -37 -46 -75 -93 -83 -105 -15 -21 -17 -21 -33 -5 -21 20 -90 74
-153 119 -25 17 -46 35 -48 40 -2 4 -11 8 -19 8 -21 0 -125 85 -200 162 -34
36 -72 72 -85 80 -19 12 -22 24 -22 69 0 43 7 67 33 114 18 33 41 69 51 80 10
11 34 44 53 72 34 52 34 53 52 33 10 -11 24 -20 30 -20 7 0 15 -7 19 -15 3 -8
12 -12 20 -9 8 3 25 -1 38 -10 25 -18 58 -21 58 -7 0 6 -16 22 -35 37 -40 30
-42 41 -19 108 9 26 14 49 12 52 -3 2 -18 -7 -34 -22 -55 -48 -104 -86 -104
-80 0 13 50 85 64 93 8 4 58 48 111 97 171 160 193 168 292 115z m-107 -239
c-6 -11 -12 -39 -12 -61 0 -21 -4 -39 -9 -39 -5 0 -9 23 -9 51 0 38 5 55 17
65 23 16 27 11 13 -16z m-160 -56 c0 -8 -5 -12 -10 -9 -6 4 -8 11 -5 16 9 14
15 11 15 -7z m-120 -4 c0 -5 -2 -10 -4 -10 -3 0 -8 5 -11 10 -3 6 -1 10 4 10
6 0 11 -4 11 -10z m561 -21 c11 -6 11 -15 1 -51 -7 -24 -17 -81 -23 -128 -6
-47 -11 -85 -12 -86 -1 -1 -52 -4 -113 -7 l-111 -6 4 62 c5 71 40 157 81 199
24 25 34 27 93 27 37 -1 72 -5 80 -10z m268 -61 c20 -7 38 -13 40 -15 4 -2
-81 -81 -124 -115 l-23 -18 17 58 c19 62 38 102 48 102 4 0 23 -5 42 -12z
m-1138 -221 c-12 -34 -32 -47 -76 -47 -16 0 -9 10 29 45 27 25 51 43 54 41 2
-3 -1 -20 -7 -39z m566 -59 c-3 -8 -6 -5 -6 6 -1 11 2 17 5 13 3 -3 4 -12 1
-19z"/>
<path d="M672 760 l-53 -50 38 -45 c20 -25 41 -46 45 -46 32 -6 33 -3 33 93 0
54 -2 98 -5 98 -3 -1 -29 -23 -58 -50z m24 -67 c-11 -11 -19 6 -11 24 8 17 8
17 12 0 3 -10 2 -21 -1 -24z"/>
<path d="M536 752 c-33 -26 -61 -52 -63 -57 -2 -6 11 -16 29 -24 18 -8 51 -34
74 -57 34 -34 45 -40 54 -29 6 7 7 16 2 19 -5 3 -12 38 -16 78 -3 40 -12 75
-18 80 -9 5 -7 9 5 14 9 3 17 10 17 15 0 19 -27 6 -84 -39z m35 -29 c0 -5 2
-16 4 -25 2 -10 0 -18 -5 -18 -13 0 -32 29 -25 40 7 12 25 14 26 3z"/>
</g>
</svg>
