<?xml version="1.0" standalone="no"?>
<!DOCTYPE svg PUBLIC "-//W3C//DTD SVG 20010904//EN"
 "http://www.w3.org/TR/2001/REC-SVG-20010904/DTD/svg10.dtd">
<svg version="1.0" xmlns="http://www.w3.org/2000/svg"
 width="270.000000pt" height="168.000000pt" viewBox="0 0 270.000000 168.000000"
 preserveAspectRatio="xMidYMid meet">
<metadata>
Created by potrace 1.16, written by Peter Selinger 2001-2019
</metadata>
<g transform="translate(0.000000,168.000000) scale(0.100000,-0.100000)"
fill="#000000" stroke="none">
<path d="M548 1365 c-20 -14 -41 -25 -46 -25 -5 0 -19 -11 -32 -25 -12 -13
-47 -34 -76 -46 -30 -13 -54 -27 -54 -32 0 -5 19 -29 43 -52 85 -85 147 -158
147 -172 0 -9 -13 -39 -29 -67 -63 -110 -60 -180 13 -244 l37 -32 -35 0 c-19
0 -38 -4 -41 -10 -3 -5 -14 -10 -25 -10 -10 0 -33 -14 -51 -32 -55 -51 -151
-119 -196 -139 -24 -10 -43 -23 -43 -29 0 -6 17 -18 38 -27 20 -10 50 -28 65
-40 40 -32 71 -29 100 10 13 17 27 44 31 59 6 28 52 88 67 88 17 0 31 -40 19
-55 -8 -10 -8 -15 2 -22 15 -9 58 -97 58 -119 0 -8 8 -18 18 -21 9 -4 20 -11
23 -16 13 -19 35 1 47 40 14 46 116 154 174 184 45 23 51 32 52 77 2 53 20 49
54 -10 17 -29 71 -102 121 -162 49 -60 93 -121 96 -136 3 -15 16 -32 28 -37
19 -9 34 -4 87 28 36 21 81 43 100 50 19 6 60 22 90 34 30 13 120 49 200 81
80 31 192 78 250 104 58 26 166 66 240 90 74 23 157 50 184 61 27 10 56 19 65
19 31 0 121 49 121 66 0 11 -6 15 -20 11 -11 -3 -23 -1 -26 4 -12 19 -113 63
-219 94 -192 57 -761 344 -793 400 -4 7 -19 16 -34 20 -23 6 -33 1 -60 -26
-18 -18 -53 -43 -78 -56 -25 -12 -67 -45 -95 -73 -78 -79 -244 -190 -283 -190
-13 0 -40 69 -47 120 -3 29 0 61 8 86 8 21 18 59 22 84 4 25 18 59 31 77 42
56 29 57 -58 7 -35 -20 -73 -46 -86 -58 -21 -19 -22 -22 -7 -32 16 -12 39 -95
51 -181 l5 -42 -63 1 c-35 0 -73 -2 -85 -6 -39 -13 -56 49 -31 114 12 34 37
65 121 151 20 21 37 42 37 47 0 10 -108 27 -116 20 -2 -3 -8 -25 -13 -49 -5
-24 -20 -70 -33 -101 l-24 -57 -12 33 c-7 18 -12 38 -12 45 0 6 -10 25 -22 42
l-23 31 33 29 c44 39 37 56 -10 24z m143 -68 c-8 -8 -11 -7 -11 4 0 20 13 34
18 19 3 -7 -1 -17 -7 -23z m143 -9 c-4 -13 -11 -39 -14 -58 l-7 -35 -8 32 c-4
18 -14 38 -21 44 -12 10 -11 14 3 25 10 7 26 14 36 14 15 0 17 -5 11 -22z
m582 -22 c34 -31 215 -137 284 -166 61 -25 101 -50 82 -50 -7 0 -61 17 -120
39 -59 21 -145 48 -192 61 -130 34 -150 41 -150 52 0 13 53 88 63 88 4 0 19
-11 33 -24z m-892 -97 c9 -38 19 -76 22 -86 9 -28 -56 48 -72 83 -7 17 -24 41
-37 54 l-25 24 32 16 c29 15 32 15 47 -4 9 -10 24 -50 33 -87z m736 26 c-12
-15 -5 -55 11 -55 5 0 18 6 29 12 15 10 22 10 32 0 6 -6 23 -12 36 -12 13 0
32 -5 43 -10 10 -6 45 -15 76 -21 32 -6 110 -28 174 -50 65 -21 137 -41 160
-45 59 -8 170 -47 244 -84 33 -16 67 -30 75 -30 13 -1 68 -19 259 -88 36 -13
41 -17 25 -22 -10 -4 -41 -15 -69 -24 -27 -9 -120 -42 -205 -72 -85 -30 -182
-64 -215 -74 -33 -10 -91 -30 -128 -44 -37 -14 -125 -40 -195 -56 -70 -17
-163 -41 -207 -55 -45 -14 -116 -34 -159 -45 -71 -19 -80 -20 -96 -5 -9 8 -24
13 -33 10 -11 -5 -29 11 -59 50 -23 32 -48 65 -53 75 -6 10 -16 24 -22 32 -7
8 -10 24 -6 36 3 12 -1 32 -9 44 -9 14 -12 31 -8 43 20 55 -28 45 -96 -20 -56
-54 -94 -70 -94 -40 0 8 5 15 11 15 6 0 28 14 49 30 30 23 44 46 60 95 12 36
19 69 16 74 -4 5 14 13 39 16 43 7 61 28 33 37 -9 3 -4 16 15 41 15 19 27 40
27 44 0 11 55 53 68 53 5 0 31 24 58 53 50 53 111 107 121 107 3 0 0 -7 -7
-15z m-670 -183 c0 -5 -10 -17 -22 -28 -12 -10 -19 -14 -16 -9 3 6 8 18 11 28
6 17 27 24 27 9z m188 -38 c82 -23 67 -236 -21 -277 -47 -23 -54 -22 -125 14
-79 39 -102 68 -102 128 0 42 4 51 43 88 23 22 49 43 57 46 21 8 120 8 148 1z
m192 -2 c0 -5 -8 -16 -19 -26 -15 -14 -20 -14 -29 -3 -9 10 -8 17 0 25 14 14
48 16 48 4z m-323 -327 c19 -8 44 -15 55 -15 10 0 21 -6 24 -13 2 -7 -28 -73
-67 -145 l-72 -133 -15 38 c-38 102 -37 197 4 261 17 26 23 27 71 7z m-123
-32 c-9 -38 -8 -37 -39 -9 l-26 24 23 5 c47 9 49 8 42 -20z m-81 -19 c4 -4
-14 -29 -38 -57 -25 -27 -48 -61 -51 -76 -7 -28 -22 -51 -34 -51 -4 0 -17 9
-29 19 -13 11 -27 21 -32 23 -15 5 0 36 20 43 9 2 43 27 76 54 59 49 75 57 88
45z m367 -9 c0 -8 -4 -15 -10 -15 -5 0 -25 -14 -45 -31 -40 -36 -43 -33 -15
21 16 30 26 40 45 40 16 0 25 -6 25 -15z m729 -129 c-7 -7 -193 -76 -205 -76
-6 0 -36 -13 -67 -30 -67 -35 -97 -39 -97 -10 0 13 9 22 28 26 69 16 240 66
267 79 27 13 85 21 74 11z"/>
</g>
</svg>
