<?xml version="1.0" standalone="no"?>
<!DOCTYPE svg PUBLIC "-//W3C//DTD SVG 20010904//EN"
 "http://www.w3.org/TR/2001/REC-SVG-20010904/DTD/svg10.dtd">
<svg version="1.0" xmlns="http://www.w3.org/2000/svg"
 width="281.000000pt" height="133.000000pt" viewBox="0 0 281.000000 133.000000"
 preserveAspectRatio="xMidYMid meet">
<metadata>
Created by potrace 1.16, written by Peter Selinger 2001-2019
</metadata>
<g transform="translate(0.000000,133.000000) scale(0.100000,-0.100000)"
fill="#000000" stroke="none">
<path d="M365 1212 c-15 -10 -35 -81 -37 -132 -2 -46 5 -45 -96 -24 -33 6 -67
-10 -56 -27 3 -5 7 -76 9 -157 2 -81 8 -181 14 -222 6 -41 11 -136 11 -210 0
-138 7 -167 33 -157 12 4 15 28 15 119 2 169 47 338 134 503 12 22 28 55 37
73 8 17 19 32 23 32 4 0 8 6 8 14 0 8 4 18 10 21 5 3 103 -6 217 -20 114 -15
217 -25 229 -22 20 3 104 -8 224 -31 67 -12 230 -64 230 -72 0 -4 -11 -15 -24
-24 -14 -8 -27 -24 -30 -34 -4 -10 -22 -26 -42 -35 -38 -19 -64 -66 -64 -114
1 -32 21 -112 33 -130 5 -8 4 -13 -2 -13 -6 0 -34 -11 -63 -24 -29 -13 -82
-33 -118 -44 -63 -20 -114 -33 -407 -107 -78 -19 -161 -42 -185 -51 -55 -19
-210 -54 -242 -54 -41 0 -39 -17 8 -67 35 -36 43 -50 34 -60 -15 -18 -6 -25
42 -29 35 -3 42 0 50 20 5 15 23 29 44 36 19 6 61 28 94 49 33 22 70 42 83 46
13 4 60 25 103 46 44 22 84 39 90 39 6 0 27 10 46 22 40 25 116 52 175 63 51
9 174 49 214 69 49 26 88 21 106 -13 12 -24 24 -31 60 -37 53 -7 129 2 167 22
30 16 201 20 363 9 55 -3 200 -12 323 -20 123 -7 226 -16 230 -20 4 -3 14 -30
22 -58 21 -69 44 -70 48 -2 2 27 7 55 13 61 5 6 6 14 2 18 -4 3 -8 43 -9 89
-1 45 -5 148 -8 228 -6 126 -4 148 10 159 8 8 29 43 45 79 17 36 42 83 56 104
22 32 24 40 12 48 -16 10 -219 6 -238 -5 -15 -10 -4 -26 18 -26 21 0 36 -50
17 -54 -22 -6 -132 -28 -201 -40 -38 -7 -83 -18 -99 -25 -16 -6 -95 -28 -175
-47 -80 -19 -185 -48 -232 -64 l-86 -29 -39 19 c-28 15 -58 20 -115 20 -61 0
-92 6 -141 26 -35 14 -79 32 -98 40 -19 8 -69 21 -110 29 -41 8 -127 28 -190
46 -63 17 -162 42 -220 54 -58 13 -141 35 -185 49 -44 14 -92 28 -108 32 -15
3 -30 10 -33 15 -6 11 -35 12 -49 1z m150 -68 c61 -19 153 -46 205 -59 100
-24 155 -43 130 -44 -8 -1 -94 8 -190 19 -96 11 -198 20 -227 20 -49 0 -53 2
-53 24 0 23 16 76 22 76 2 0 53 -16 113 -36z m2075 -9 c0 -3 -14 -35 -32 -72
l-32 -68 -7 42 c-5 23 -13 51 -18 62 -19 35 -13 41 39 41 28 0 50 -2 50 -5z
m-115 -256 c2 -94 6 -217 10 -273 9 -143 15 -139 -160 -115 -77 10 -201 28
-275 40 -189 29 -259 38 -342 41 -21 1 -38 4 -38 8 0 3 9 23 20 45 14 28 20
59 20 106 0 61 3 70 26 88 15 12 33 21 41 21 7 0 44 14 81 31 134 61 320 124
395 134 27 4 67 13 90 21 43 16 119 33 125 28 2 -1 5 -80 7 -175z m-2109 79
c-7 -18 -32 -74 -54 -124 -22 -51 -46 -111 -53 -135 l-12 -44 -8 47 c-7 45
-14 206 -10 255 1 23 4 23 124 31 27 2 27 2 13 -30z m1431 -74 c-8 -9 -107
-42 -107 -37 0 6 84 43 99 43 8 0 11 -3 8 -6z m-218 -41 c68 -33 89 -121 51
-211 -34 -80 -111 -130 -210 -139 -54 -5 -56 -5 -82 30 -15 19 -25 37 -21 40
3 4 -6 20 -21 37 -32 38 -40 69 -33 122 7 52 34 80 99 102 29 10 62 22 73 26
50 22 85 20 144 -7z m216 -312 c33 -6 20 -8 -70 -14 -60 -3 -111 -4 -114 -2
-2 3 7 9 20 14 29 12 109 13 164 2z m-1059 -170 c-16 -11 -57 -31 -91 -46 -34
-14 -115 -53 -180 -85 l-118 -60 -33 38 c-18 20 -29 40 -26 43 4 3 25 10 47
17 22 6 83 23 135 37 52 15 122 33 155 41 33 9 74 19 90 24 48 13 52 11 21 -9z"/>
</g>
</svg>
