<?xml version="1.0" standalone="no"?>
<!DOCTYPE svg PUBLIC "-//W3C//DTD SVG 20010904//EN"
 "http://www.w3.org/TR/2001/REC-SVG-20010904/DTD/svg10.dtd">
<svg version="1.0" xmlns="http://www.w3.org/2000/svg"
 width="86.000000pt" height="86.000000pt" viewBox="0 0 86.000000 86.000000"
 preserveAspectRatio="xMidYMid meet">
<metadata>
Created by potrace 1.16, written by Peter Selinger 2001-2019
</metadata>
<g transform="translate(0.000000,86.000000) scale(0.100000,-0.100000)"
fill="#000000" stroke="none">
<path d="M600 700 c-19 -11 -41 -19 -48 -20 -24 0 -122 -51 -122 -63 0 -10 41
-77 67 -112 5 -5 9 -26 10 -45 1 -38 33 -156 47 -179 5 -8 10 -37 11 -65 3
-65 3 -65 20 -42 19 25 19 63 0 151 -9 43 -11 71 -5 73 6 2 10 22 10 45 0 55
27 161 56 219 13 26 24 50 24 53 0 11 -37 3 -70 -15z m1 -48 c-16 -30 -52
-182 -46 -192 4 -6 1 -10 -4 -10 -9 0 -12 17 -11 55 1 12 -34 72 -53 92 -25
28 -20 33 46 54 71 23 80 23 68 1z"/>
<path d="M330 669 c-19 -11 -68 -29 -109 -41 -40 -12 -75 -27 -78 -34 -3 -7 6
-28 20 -46 34 -45 92 -174 101 -223 9 -47 55 -155 67 -155 25 0 23 12 -37 216
-13 45 -13 54 2 90 33 81 53 120 78 153 45 61 25 79 -44 40z m-28 -81 c-11
-18 -25 -51 -32 -73 -12 -35 -14 -38 -24 -21 -6 10 -21 33 -33 51 -24 37 -21
45 16 45 14 1 37 7 51 15 38 22 43 18 22 -17z"/>
</g>
</svg>
