<?xml version="1.0" standalone="no"?>
<!DOCTYPE svg PUBLIC "-//W3C//DTD SVG 20010904//EN"
 "http://www.w3.org/TR/2001/REC-SVG-20010904/DTD/svg10.dtd">
<svg version="1.0" xmlns="http://www.w3.org/2000/svg"
 width="266.000000pt" height="132.000000pt" viewBox="0 0 266.000000 132.000000"
 preserveAspectRatio="xMidYMid meet">
<metadata>
Created by potrace 1.16, written by Peter Selinger 2001-2019
</metadata>
<g transform="translate(0.000000,132.000000) scale(0.100000,-0.100000)"
fill="#000000" stroke="none">
<path d="M1250 1194 c-51 -16 -155 -18 -250 -5 -36 4 -70 6 -76 4 -7 -3 -14
-47 -18 -112 -4 -59 -11 -113 -15 -120 -10 -16 -104 0 -166 29 -134 62 -473
58 -599 -7 -24 -12 -27 -19 -21 -41 15 -63 24 -166 24 -297 1 -109 4 -145 16
-162 18 -26 56 -26 63 -1 3 14 8 16 18 7 10 -8 20 -7 41 5 57 32 428 47 517
21 l56 -16 2 -97 c1 -53 0 -114 -1 -134 -2 -32 1 -38 17 -38 25 0 32 34 32
151 0 48 3 90 8 92 9 6 98 -16 109 -27 4 -4 11 -49 14 -99 7 -98 24 -150 47
-145 12 2 16 25 18 107 1 57 7 108 13 114 7 7 20 8 38 1 27 -9 28 -12 25 -69
-1 -33 0 -93 4 -132 5 -61 9 -73 24 -73 24 0 30 19 31 103 1 40 4 86 8 102 l6
30 91 -4 c111 -4 240 12 399 50 66 15 147 31 179 34 32 4 91 13 130 21 39 8
107 21 151 28 101 16 173 43 180 67 11 33 -4 42 -59 34 -178 -26 -341 -29
-477 -11 -68 9 -144 19 -169 22 -111 12 -110 10 -16 74 84 57 325 190 346 190
13 0 252 137 343 197 37 25 67 51 67 59 0 16 -33 19 -61 4 -10 -6 -45 -15 -76
-20 -32 -6 -80 -17 -108 -24 -27 -8 -90 -22 -140 -31 -49 -9 -114 -25 -145
-36 -42 -15 -92 -21 -210 -24 -85 -3 -183 -7 -217 -10 l-62 -4 30 49 c17 28
40 56 51 64 11 8 18 22 16 33 -4 20 -31 22 -124 8 -51 -7 -52 -7 -47 18 7 33
-4 37 -57 21z m-42 -65 c-10 -5 -17 -20 -16 -32 3 -30 -49 -137 -67 -137 -10
0 -14 19 -17 76 -2 42 -1 80 2 84 5 8 44 16 90 18 21 1 23 0 8 -9z m-197 -21
c-5 -13 -21 -48 -35 -78 l-25 -55 0 78 -1 77 35 0 c32 0 34 -2 26 -22z m379
-5 c0 -4 -14 -31 -32 -60 -24 -39 -38 -53 -55 -53 -21 0 -23 4 -23 53 l0 54
36 1 c20 1 39 4 42 7 8 7 32 6 32 -2z m-333 -75 c-3 -35 -6 -64 -7 -65 0 -2
-11 -3 -24 -3 -24 0 -24 1 -12 33 25 63 40 97 44 97 3 0 2 -28 -1 -62z m1105
-3 c-107 -63 -135 -78 -332 -175 -79 -40 -167 -85 -195 -100 -27 -16 -76 -43
-108 -60 -69 -38 -107 -37 -193 5 l-54 26 0 60 c0 44 4 61 15 65 9 4 25 28 36
54 l20 47 142 7 c223 10 339 25 467 61 47 13 108 26 135 29 28 4 68 13 90 21
76 27 69 15 -23 -40z m-934 -16 c-1 -17 -6 -33 -10 -35 -9 -6 -10 12 -2 44 9
31 15 27 12 -9z m-528 -73 c30 -13 78 -30 105 -37 28 -6 56 -16 63 -22 16 -12
16 -153 0 -249 l-11 -70 -56 7 c-87 11 -377 6 -469 -9 -50 -8 -90 -20 -102
-31 -27 -24 -48 -7 -29 23 11 18 11 24 -3 39 -8 10 -13 29 -11 43 2 14 6 88 9
164 2 77 7 142 10 145 16 16 164 29 294 26 129 -3 151 -6 200 -29z m484 -26
c14 7 29 10 33 7 7 -7 7 -147 -1 -154 -2 -2 -26 6 -52 19 -46 22 -49 25 -52
67 -4 60 2 75 27 59 16 -10 25 -9 45 2z m-131 -7 c2 -5 1 -18 -2 -29 -6 -21
-7 -21 -32 7 l-27 29 29 0 c15 0 30 -3 32 -7z m-81 -82 c7 -10 28 -26 47 -35
l34 -18 -8 -66 c-4 -37 -10 -94 -14 -127 -7 -66 0 -63 -93 -49 -42 6 -47 9
-43 28 6 25 21 112 37 214 12 75 18 84 40 53z m226 -123 c11 -10 13 -27 9 -73
-15 -147 -19 -157 -65 -149 -20 3 -41 10 -46 15 -12 11 -8 144 6 201 l11 47
35 -15 c20 -8 42 -20 50 -26z m134 -67 c89 -32 211 -53 388 -66 47 -4 104 -11
128 -16 24 -5 66 -10 93 -11 57 -1 53 -15 -6 -23 -22 -3 -74 -12 -115 -20
-244 -49 -301 -57 -428 -59 -147 -1 -157 3 -147 59 3 17 7 48 11 70 8 59 14
85 19 85 2 0 28 -9 57 -19z m725 -97 c-3 -3 -12 -4 -19 -1 -8 3 -5 6 6 6 11 1
17 -2 13 -5z"/>
</g>
</svg>
