<?xml version="1.0" standalone="no"?>
<!DOCTYPE svg PUBLIC "-//W3C//DTD SVG 20010904//EN"
 "http://www.w3.org/TR/2001/REC-SVG-20010904/DTD/svg10.dtd">
<svg version="1.0" xmlns="http://www.w3.org/2000/svg"
 width="232.000000pt" height="196.000000pt" viewBox="0 0 232.000000 196.000000"
 preserveAspectRatio="xMidYMid meet">
<metadata>
Created by potrace 1.16, written by Peter Selinger 2001-2019
</metadata>
<g transform="translate(0.000000,196.000000) scale(0.100000,-0.100000)"
fill="#000000" stroke="none">
<path d="M343 1757 c-13 -18 -32 -52 -44 -76 -47 -97 -1 -290 84 -355 49 -37
201 -52 515 -49 l254 3 -57 -65 c-53 -60 -62 -85 -30 -85 13 0 95 86 95 101 0
4 9 11 20 14 11 3 20 13 20 21 0 24 25 16 48 -16 12 -16 22 -33 22 -38 0 -5
-16 -27 -36 -50 -41 -49 -39 -72 6 -72 25 0 30 4 30 23 0 13 7 32 15 43 14 18
17 16 68 -40 36 -40 56 -56 61 -48 4 7 -3 25 -16 42 -57 73 -68 89 -68 97 1
15 55 72 70 74 50 6 69 -2 90 -37 l22 -35 -21 -23 c-11 -12 -21 -30 -21 -39 0
-25 47 -33 69 -13 18 16 20 15 52 -26 53 -69 115 -116 89 -68 -6 11 -33 50
-60 87 l-50 66 33 40 c19 23 38 42 43 44 5 1 24 -22 41 -51 29 -48 32 -57 22
-85 -8 -23 -8 -35 1 -46 14 -16 38 -10 42 12 2 12 9 10 28 -12 65 -72 74 -79
78 -67 2 7 -14 40 -37 72 -23 32 -41 62 -41 67 0 4 12 26 26 47 l26 38 73 -78
c40 -44 76 -76 79 -73 4 3 -25 45 -64 92 -39 48 -68 91 -65 97 3 5 27 10 53
11 67 1 139 13 126 21 -6 4 -41 2 -78 -3 -37 -6 -70 -9 -72 -6 -5 5 29 68 62
112 32 43 47 85 31 85 -17 0 -54 -40 -107 -117 -24 -35 -46 -63 -49 -63 -8 1
-71 85 -71 95 0 5 12 21 27 37 23 24 24 28 9 34 -10 4 -25 -1 -37 -12 -19 -17
-21 -16 -79 41 -43 42 -63 56 -71 48 -7 -7 -2 -19 18 -39 16 -16 41 -45 55
-64 l27 -35 -21 -33 c-11 -17 -25 -32 -31 -32 -11 1 -55 56 -87 110 -33 57
-137 150 -166 150 -21 0 -17 -28 5 -35 20 -6 91 -79 91 -93 0 -12 -61 -92 -70
-92 -5 0 -19 14 -31 31 -21 29 -21 33 -6 44 28 20 21 37 -13 30 -25 -5 -37 0
-75 31 -32 26 -49 34 -56 27 -8 -8 1 -24 30 -53 23 -23 41 -45 41 -49 0 -7
-30 -47 -70 -94 l-26 -29 -44 63 c-24 35 -62 84 -85 109 -23 25 -46 54 -52 64
-11 20 -33 14 -33 -9 0 -7 20 -35 43 -61 51 -57 151 -193 146 -199 -2 -1 -65
-5 -140 -6 l-136 -4 -134 120 c-154 139 -214 196 -220 210 -5 12 -179 155
-188 155 -3 -1 -16 -15 -28 -33z m90 -70 c54 -43 91 -79 103 -97 8 -15 104
-98 250 -218 35 -29 61 -58 58 -64 -8 -12 -153 -4 -212 11 -20 6 -50 10 -67 9
-16 0 -46 3 -65 7 -68 14 -90 33 -122 101 -38 82 -44 185 -14 252 11 23 21 40
24 37 3 -3 23 -20 45 -38z m1142 -293 c55 -77 51 -85 -34 -81 -44 3 -57 8 -72
29 -19 25 -19 26 11 63 17 21 30 42 30 46 0 23 22 3 65 -57z m-202 4 l25 -32
-21 -27 c-19 -24 -29 -28 -74 -28 -29 -1 -53 1 -53 4 0 9 85 115 92 115 4 0
18 -14 31 -32z m374 -78 c-18 -3 -42 -4 -54 -2 l-22 4 26 39 26 39 28 -38 28
-37 -32 -5z m-428 -46 c3 -3 0 -9 -7 -16 -8 -8 -15 -8 -27 2 -22 19 -18 32 8
24 12 -3 24 -8 26 -10z m248 -15 c-15 -24 -34 -24 -47 0 -14 27 -14 27 24 23
31 -4 34 -6 23 -23z m223 25 c0 -10 -41 -64 -49 -64 -7 0 -41 53 -41 64 0 3
20 6 45 6 25 0 45 -3 45 -6z"/>
<path d="M342 960 c-36 -59 -19 -225 27 -268 101 -94 114 -99 456 -153 28 -4
132 -11 233 -15 l183 -7 -38 -41 c-73 -78 -84 -93 -78 -109 14 -35 65 -26 65
12 0 16 114 141 129 141 4 0 22 -16 41 -35 l33 -34 -35 -43 c-46 -57 -49 -63
-42 -82 9 -23 41 -20 55 6 7 13 18 28 25 35 7 7 15 18 17 25 4 8 29 -12 69
-54 59 -62 88 -76 88 -42 0 9 -13 26 -30 40 -16 14 -43 43 -61 65 l-31 39 28
38 c48 64 52 64 93 14 l30 -39 -24 -36 c-33 -48 -33 -69 1 -65 18 2 32 14 44
35 15 29 18 30 31 15 26 -31 54 -77 59 -97 3 -11 12 -20 20 -20 8 0 16 9 18
20 2 11 9 27 16 35 7 8 21 32 31 52 24 47 40 48 56 3 7 -19 19 -35 25 -35 27
0 25 23 -5 65 l-31 43 26 31 c14 17 30 29 35 26 5 -3 24 -29 43 -58 46 -69 83
-104 97 -90 7 7 -1 24 -27 54 -20 24 -41 54 -47 67 -6 12 -15 22 -20 22 -6 0
-7 3 -4 7 4 3 -1 15 -10 25 -25 28 -1 40 69 35 41 -4 60 -1 69 9 13 16 9 17
-58 14 -47 -2 -54 9 -25 38 10 10 24 32 31 50 7 18 17 32 22 32 5 0 9 5 9 10
0 6 -9 10 -19 10 -13 0 -36 -24 -68 -70 -26 -38 -55 -70 -64 -70 -8 0 -30 20
-48 45 -27 38 -30 46 -17 51 9 3 16 12 16 20 0 7 9 18 21 25 15 7 18 14 11 21
-7 7 -22 4 -46 -11 -40 -25 -50 -22 -71 20 -15 28 -38 38 -49 20 -3 -5 8 -27
24 -50 17 -22 30 -46 30 -53 -1 -7 -14 -28 -29 -46 l-28 -33 -27 31 c-14 17
-26 37 -26 44 0 18 47 59 59 52 7 -4 8 -1 5 8 -8 21 -31 20 -61 -3 -29 -24
-42 -20 -67 18 -27 39 -55 56 -70 41 -8 -8 -6 -15 10 -28 11 -9 33 -33 48 -53
l26 -36 -32 -41 c-18 -23 -38 -41 -45 -41 -7 -1 -26 19 -42 43 l-30 43 29 28
c17 16 30 32 30 37 0 19 -40 6 -60 -19 l-21 -27 -44 44 c-31 30 -49 41 -61 36
-15 -6 -12 -12 22 -49 21 -23 43 -45 49 -49 12 -9 -74 -100 -87 -92 -5 3 -21
23 -36 43 -49 68 -107 131 -119 131 -25 0 -12 -27 57 -114 39 -49 70 -93 70
-98 0 -14 -149 -15 -287 -2 -38 3 -63 10 -63 17 0 7 -31 30 -68 51 -58 34
-229 145 -257 168 -5 4 -50 40 -100 79 -49 40 -91 77 -93 84 -3 11 -32 24 -55
25 -4 0 -15 -13 -25 -30z m118 -77 c140 -111 195 -153 203 -153 4 0 29 -15 55
-34 27 -18 64 -42 83 -51 19 -10 47 -29 64 -43 l29 -24 -49 5 c-85 8 -217 37
-285 63 -96 37 -136 76 -161 162 -19 61 -21 122 -4 122 3 0 32 -21 65 -47z
m1009 -264 c18 -22 31 -43 27 -46 -3 -3 -37 -8 -76 -10 l-71 -4 38 50 c21 27
40 50 43 50 3 0 20 -18 39 -40z m221 -31 c0 -7 -119 -22 -126 -16 -2 3 12 24
32 47 l37 42 28 -33 c15 -18 28 -36 29 -40z m134 47 c21 -32 21 -32 -11 -38
-45 -8 -55 0 -37 34 18 35 27 36 48 4z m43 -61 c2 -6 -9 -26 -24 -44 l-27 -33
-28 34 c-31 36 -28 45 17 52 42 6 58 4 62 -9z m-223 -53 c-22 -37 -24 -37 -47
-6 -17 24 -17 25 10 31 16 3 33 7 38 9 18 4 17 -3 -1 -34z m120 -95 c-16 -31
-32 -56 -35 -56 -3 0 -20 18 -38 40 l-33 41 33 50 32 51 35 -35 35 -36 -29
-55z m-317 87 c-22 -22 -31 -26 -44 -17 -30 19 -25 33 14 37 21 2 42 4 48 5 5
1 -3 -10 -18 -25z"/>
</g>
</svg>
