<?xml version="1.0" standalone="no"?>
<!DOCTYPE svg PUBLIC "-//W3C//DTD SVG 20010904//EN"
 "http://www.w3.org/TR/2001/REC-SVG-20010904/DTD/svg10.dtd">
<svg version="1.0" xmlns="http://www.w3.org/2000/svg"
 width="344.000000pt" height="238.000000pt" viewBox="0 0 344.000000 238.000000"
 preserveAspectRatio="xMidYMid meet">
<metadata>
Created by potrace 1.16, written by Peter Selinger 2001-2019
</metadata>
<g transform="translate(0.000000,238.000000) scale(0.100000,-0.100000)"
fill="#000000" stroke="none">
<path d="M1281 2307 c-13 -6 -34 -32 -47 -57 -48 -94 -73 -154 -67 -163 6 -10
84 -4 118 9 25 10 -319 -352 -360 -378 -26 -16 -44 -18 -130 -14 -152 8 -218
17 -206 29 6 6 11 31 11 57 0 54 46 242 62 251 18 11 0 42 -20 34 -32 -14
-117 -42 -159 -54 -61 -17 -134 -91 -89 -91 24 0 61 -60 84 -134 12 -38 20
-72 17 -74 -2 -2 -44 3 -92 12 -48 9 -109 16 -135 16 -26 0 -50 5 -53 10 -9
15 -51 12 -64 -4 -9 -10 -9 -31 0 -82 6 -38 13 -86 15 -107 5 -50 26 -93 44
-90 8 1 35 7 60 12 71 16 290 19 290 4 0 -7 18 -50 40 -95 22 -46 37 -90 35
-99 -8 -25 16 -35 32 -14 19 27 16 53 -12 123 -14 34 -25 70 -25 80 0 21 -8
20 360 38 l125 6 -43 -37 c-47 -40 -45 -57 6 -70 15 -4 41 -13 57 -20 69 -31
125 -47 140 -41 9 3 26 0 36 -8 18 -12 12 -14 -63 -18 -67 -4 -85 -2 -96 11
-12 14 -15 14 -33 -8 -17 -21 -19 -36 -16 -102 4 -75 4 -78 -19 -83 -32 -8
-31 -26 2 -26 l25 0 -37 -47 c-21 -27 -65 -76 -98 -110 l-60 -63 -82 0 c-116
0 -115 -1 -94 68 10 31 21 90 24 131 4 40 11 82 17 93 14 27 4 34 -23 16 -13
-8 -48 -23 -78 -33 -30 -10 -82 -29 -115 -43 -33 -14 -75 -28 -94 -31 -53 -9
-52 -31 2 -31 44 0 45 0 66 -52 12 -29 26 -61 31 -70 20 -35 12 -38 -86 -37
-81 1 -96 4 -102 19 -9 23 -44 11 -66 -22 -16 -24 -38 -181 -29 -205 8 -20 51
-27 81 -13 26 11 210 39 265 40 17 0 30 -6 34 -18 3 -9 14 -36 25 -60 10 -23
23 -61 28 -85 24 -116 140 -332 178 -332 34 0 24 51 -34 170 -18 39 -42 95
-53 125 -11 30 -29 80 -40 110 -30 82 -35 107 -19 107 7 0 58 3 113 7 l100 7
-30 -25 c-38 -31 -30 -38 62 -59 95 -22 189 -68 260 -129 32 -26 90 -69 128
-95 39 -25 96 -66 128 -91 43 -32 62 -41 70 -33 15 15 -12 42 -98 99 -99 65
-156 114 -151 129 3 7 0 13 -7 13 -7 0 -20 9 -30 20 -9 11 -25 20 -35 20 -11
0 -32 12 -48 27 -29 26 -29 27 -4 19 14 -4 53 -9 88 -12 45 -3 81 -13 122 -35
33 -17 64 -28 70 -24 6 4 19 1 28 -7 9 -8 64 -43 122 -79 58 -35 130 -82 160
-105 63 -47 82 -55 99 -44 17 10 -72 78 -245 190 -73 47 -154 104 -181 128
-26 23 -67 56 -91 73 -24 17 -41 33 -39 36 3 2 28 6 56 8 29 2 77 7 107 11 29
3 54 4 54 1 0 -3 -16 -15 -35 -27 -42 -26 -45 -47 -7 -56 15 -4 54 -20 87 -37
33 -16 77 -38 97 -48 20 -11 44 -19 53 -19 38 0 196 -98 294 -182 47 -41 75
-49 69 -21 -3 17 -183 161 -288 231 -30 20 -86 63 -123 96 l-68 61 53 7 c29 4
80 10 113 14 l60 6 -43 -44 c-37 -39 -41 -46 -28 -57 8 -7 35 -15 58 -18 24
-3 59 -15 78 -27 44 -27 99 -46 114 -40 7 3 30 -8 52 -22 21 -15 95 -65 164
-112 69 -46 133 -90 142 -97 45 -37 69 -48 80 -37 14 14 -26 64 -67 82 -57 26
-140 83 -275 190 -74 59 -145 112 -156 118 -12 7 -26 25 -32 41 -10 27 -8 29
20 35 17 3 58 6 91 6 l61 0 -29 -30 c-37 -39 -27 -60 36 -76 24 -6 68 -24 98
-38 32 -17 62 -25 75 -22 13 3 29 -3 46 -18 24 -23 109 -71 220 -126 30 -15
76 -44 102 -63 76 -58 118 -75 118 -47 0 13 -137 107 -225 155 -49 26 -107 57
-128 69 -20 11 -62 42 -91 68 -30 26 -58 48 -63 48 -16 0 -96 77 -85 81 6 2
52 3 101 1 l89 -3 -9 -29 c-16 -45 1 -66 59 -74 31 -4 74 -21 116 -47 54 -32
70 -38 81 -29 12 10 38 -4 135 -69 113 -76 150 -94 150 -71 0 11 -96 89 -125
100 -26 11 -108 72 -182 135 -32 28 -70 58 -83 67 -25 17 -25 17 34 17 48 1
56 -1 47 -13 -16 -19 3 -32 78 -52 34 -8 77 -24 95 -35 33 -19 72 -17 60 3 -4
6 20 -7 52 -28 33 -21 82 -50 109 -64 28 -15 88 -50 135 -79 47 -28 89 -50 94
-48 22 7 15 27 -16 43 -18 9 -58 34 -88 54 -30 20 -77 48 -105 62 -27 14 -94
56 -148 94 l-98 69 32 8 c18 5 43 6 56 2 20 -5 23 -8 13 -20 -20 -24 -4 -45
33 -45 55 0 224 -57 253 -85 20 -19 140 -72 179 -78 6 -1 12 3 14 8 2 6 -40
34 -95 63 -54 30 -101 57 -104 61 -10 15 -113 81 -126 81 -27 0 -14 19 19 25
17 4 37 12 44 17 7 6 14 5 18 -2 10 -16 52 -12 59 6 14 36 7 44 -38 44 -65 0
-69 12 -41 105 14 44 31 85 39 91 8 5 14 17 14 25 -2 36 3 49 21 49 10 0 24 6
30 14 10 11 8 16 -6 24 -16 9 -11 18 45 73 34 34 60 64 57 67 -2 2 -20 -5 -40
-17 -29 -17 -40 -19 -56 -10 -13 7 -59 8 -132 4 l-112 -7 29 31 c37 39 12 44
-32 6 l-29 -24 -49 34 c-77 52 -199 181 -199 210 -1 23 3 25 46 25 45 0 48 -1
46 -26 -2 -23 4 -28 38 -39 55 -17 125 -56 203 -113 89 -65 122 -86 127 -80 3
3 -30 34 -72 69 -43 35 -109 90 -146 123 l-69 58 28 29 c21 22 25 32 16 41 -8
8 -15 8 -24 0 -11 -8 -12 6 -9 76 1 48 7 92 12 98 6 7 4 16 -6 24 -14 11 -20
10 -38 -9 -18 -18 -22 -33 -22 -86 0 -36 -2 -65 -5 -65 -3 1 -20 14 -38 29
l-33 28 56 59 c31 32 64 71 73 86 9 15 19 28 23 28 4 0 23 24 43 54 19 29 52
68 72 85 25 23 33 36 26 43 -17 17 -74 -25 -123 -90 -24 -31 -60 -77 -81 -102
l-37 -45 -76 -3 c-86 -3 -86 -2 -27 67 27 33 33 35 98 39 90 4 105 9 82 26
-12 9 -33 10 -70 6 -29 -4 -55 -6 -57 -4 -3 3 14 23 37 46 52 51 57 76 11 53
-33 -17 -52 -35 -86 -78 -18 -23 -31 -29 -72 -31 -28 -2 -51 -2 -51 -1 0 10
79 94 107 115 33 24 45 25 196 30 118 4 161 8 165 18 3 10 -34 13 -180 12
-288 -1 -285 -1 -303 16 -13 14 -20 14 -46 3 -38 -15 -550 -16 -619 0 -25 5
-74 13 -110 16 -36 4 -103 11 -150 16 -47 5 -140 9 -207 9 -112 0 -142 7 -113
25 12 7 13 25 3 25 -5 0 -19 -6 -32 -13z m294 -82 c16 -2 68 -7 114 -10 47 -3
125 -10 175 -16 50 -5 204 -11 343 -11 l251 -2 -30 -38 c-18 -23 -38 -38 -51
-38 -17 0 -19 -2 -8 -9 11 -7 8 -16 -14 -45 -25 -33 -32 -36 -77 -36 l-49 0
40 40 c22 22 50 41 63 41 17 1 18 3 6 6 -10 2 -18 9 -18 14 0 6 4 8 9 5 5 -3
14 0 20 8 9 11 -7 14 -90 19 -64 3 -105 10 -109 17 -5 8 -13 9 -21 4 -7 -4
-94 -7 -194 -6 -99 1 -184 2 -188 2 -5 0 -6 4 -2 9 12 21 -18 22 -39 2 -17
-16 -35 -21 -76 -21 -61 0 -60 11 2 19 47 7 65 31 22 31 -15 0 -57 -9 -93 -19
-69 -21 -216 -50 -288 -58 l-42 -5 14 46 c8 26 17 51 21 57 6 10 235 6 309 -6z
m1023 -45 l66 0 -29 -30 c-16 -16 -37 -32 -47 -36 -10 -3 -18 -11 -18 -17 0
-7 -11 -24 -25 -39 -20 -24 -34 -28 -94 -33 -39 -3 -71 -3 -71 0 0 19 47 65
66 65 13 0 26 5 29 10 3 6 -3 10 -14 10 -28 0 -27 4 11 46 18 20 38 32 46 29
7 -3 43 -5 80 -5z m-1103 -50 c-3 -5 -18 -10 -33 -9 -24 0 -25 1 -7 9 28 12
47 12 40 0z m370 -10 c-15 -17 -31 -20 -97 -20 -43 0 -78 4 -78 8 0 23 30 32
109 32 83 0 84 0 66 -20z m205 16 c0 -3 -6 -11 -14 -19 -16 -16 -166 -24 -166
-9 0 23 29 32 102 32 43 0 78 -2 78 -4z m151 -8 c43 -2 75 -6 72 -10 -2 -5
-16 -8 -31 -8 -21 0 -24 -2 -12 -10 12 -8 9 -15 -21 -45 l-35 -36 -92 3 -93 3
28 32 c25 29 35 32 103 38 97 8 106 18 13 13 -68 -3 -71 -2 -56 15 9 9 23 15
32 13 9 -3 50 -6 92 -8z m-573 -14 c-12 -13 -27 -14 -72 -9 -79 10 -70 25 16
25 66 0 71 -1 56 -16z m-234 -9 c3 -8 12 -15 21 -15 22 0 18 -13 -13 -43 -25
-24 -36 -27 -96 -27 -60 0 -67 -2 -56 -15 7 -9 29 -15 51 -15 22 0 39 -3 39
-7 0 -3 -11 -21 -26 -40 -24 -31 -28 -33 -89 -33 l-65 0 12 28 c13 31 152 169
177 175 30 9 39 7 45 -8z m600 -27 c-27 -48 -47 -58 -116 -58 -37 0 -68 3 -68
8 0 18 32 51 53 55 12 2 48 5 80 6 44 1 56 -2 51 -11z m-414 -8 c13 -9 12 -13
-7 -29 -16 -14 -39 -19 -83 -20 -63 -1 -66 2 -32 42 17 19 96 24 122 7z m220
-9 c-5 -11 -16 -23 -22 -28 -13 -7 -149 -5 -157 3 -2 2 2 10 8 18 13 15 47 21
134 24 44 2 47 1 37 -17z m-1255 -137 c-14 -49 -25 -100 -25 -114 -1 -18 -8
-8 -26 35 -13 33 -36 73 -50 88 -14 16 -23 31 -19 35 6 7 138 50 142 47 2 -1
-8 -42 -22 -91z m1198 80 c3 -3 -4 -21 -15 -40 l-20 -34 -84 0 c-46 0 -84 4
-84 9 0 4 9 20 20 34 18 23 30 27 88 30 37 2 72 4 78 5 6 1 13 -1 17 -4z m173
-5 c3 -6 -9 -27 -29 -46 -34 -35 -36 -35 -92 -28 l-56 7 17 26 c9 15 23 33 32
40 20 15 118 16 128 1z m227 -17 c-2 -9 -20 -27 -39 -40 -30 -20 -46 -22 -114
-20 l-79 3 31 40 31 40 87 -3 c76 -3 87 -6 83 -20z m477 21 c0 -3 -15 -25 -32
-49 -28 -37 -39 -43 -68 -44 -60 0 -67 13 -30 53 18 20 42 37 54 39 45 6 76 7
76 1z m-1105 -35 c-32 -39 -51 -46 -124 -47 l-54 -1 25 32 c29 37 51 46 126
47 l54 1 -27 -32z m758 15 c-15 -42 -52 -63 -111 -63 l-56 0 39 40 c35 36 44
40 87 40 41 0 46 -2 41 -17z m166 -23 c-32 -39 -34 -40 -96 -40 -35 0 -63 4
-63 8 0 5 14 23 31 40 29 29 37 32 96 32 l64 0 -32 -40z m-775 -68 c3 -5 -3
-22 -14 -39 -17 -28 -24 -31 -77 -35 -32 -2 -60 -3 -62 -1 -2 1 0 17 5 35 9
31 13 33 64 39 30 3 60 6 67 7 6 1 14 -2 17 -6z m164 -1 c8 0 3 -14 -15 -36
-25 -31 -33 -35 -73 -35 -66 0 -77 11 -51 46 19 26 27 29 74 28 28 -1 58 -2
65 -3z m190 -30 c-46 -50 -48 -51 -100 -51 -52 0 -59 10 -32 48 8 12 13 26 10
30 -2 4 31 8 75 8 l80 1 -33 -36z m172 30 c0 -1 -14 -21 -31 -42 -28 -36 -35
-39 -80 -39 -53 0 -60 7 -29 35 11 10 18 20 15 23 -3 3 0 11 7 19 8 10 28 13
65 11 29 -2 53 -5 53 -7z m-767 -38 c-15 -21 -29 -40 -30 -43 -2 -2 -29 -7
-59 -10 -55 -6 -55 -6 -49 18 3 13 13 35 22 48 13 21 23 24 80 24 l64 0 -28
-37z m936 20 c-35 -44 -47 -52 -81 -55 -47 -3 -51 1 -37 40 11 31 13 32 71 32
56 0 59 -1 47 -17z m145 -24 c-18 -19 -38 -29 -56 -29 -31 0 -33 7 -18 42 10
20 17 23 56 19 l46 -3 -28 -29z m196 6 c-27 -28 -42 -35 -72 -35 -42 0 -45 5
-20 37 11 14 31 23 57 26 22 2 47 4 54 5 8 1 0 -14 -19 -33z m-1440 16 c0 -5
-20 -27 -45 -49 -44 -39 -118 -63 -136 -45 -5 5 6 30 23 56 l30 47 64 0 c35 0
64 -4 64 -9z m-209 -63 c-16 -24 -37 -57 -47 -74 -16 -27 -23 -30 -42 -23 -21
8 -19 12 45 73 37 36 69 65 70 66 2 0 -10 -19 -26 -42z m414 13 c-3 -6 -11
-11 -17 -11 -6 0 -6 6 2 15 14 17 26 13 15 -4z m615 -61 c-25 -21 -32 -32 -24
-40 7 -7 19 -8 36 -1 21 8 29 6 42 -8 16 -18 14 -19 -38 -25 -63 -8 -96 6 -96
42 0 47 17 62 68 62 l47 -1 -35 -29z m93 0 c-6 -23 -19 -26 -26 -6 -6 15 12
38 24 31 4 -3 5 -14 2 -25z m101 15 c3 -8 14 -15 24 -15 10 0 26 -13 35 -30
26 -43 66 -40 58 4 -5 26 11 56 29 56 22 0 26 -10 9 -27 -19 -19 -2 -46 25
-39 16 4 29 -1 41 -14 18 -20 17 -20 -132 -20 -138 0 -151 2 -156 19 -7 29 19
81 41 81 11 0 22 -7 26 -15z m243 -7 c-3 -8 -6 -5 -6 6 -1 11 2 17 5 13 3 -3
4 -12 1 -19z m-1077 -37 c-10 -37 -12 -40 -30 -28 -23 14 -24 25 -7 48 11 15
38 29 45 24 2 -2 -2 -21 -8 -44z m140 40 c0 -15 -93 -101 -110 -101 -13 0 -13
3 6 61 16 49 16 49 60 49 24 0 44 -4 44 -9z m37 -26 c-6 -19 -16 -35 -24 -35
-18 0 -16 13 8 44 27 34 29 33 16 -9z m99 6 c-30 -32 -27 -56 6 -45 12 4 24 1
29 -7 13 -22 0 -29 -53 -29 l-50 0 7 48 c9 61 10 62 52 62 l37 0 -28 -29z m94
-12 l0 -42 -21 27 c-21 26 -21 28 -3 41 11 8 20 15 22 15 1 0 2 -19 2 -41z
m97 13 c-33 -35 -34 -42 -3 -42 13 0 29 -7 36 -15 11 -13 7 -15 -23 -15 -19 0
-42 -3 -51 -6 -13 -5 -16 2 -16 43 0 27 3 53 7 56 3 4 22 7 42 7 l35 0 -27
-28z m55 3 c-4 -25 -13 -31 -25 -18 -6 5 19 43 28 43 1 0 0 -11 -3 -25z m658
5 c0 -16 6 -19 34 -18 31 1 85 -27 86 -44 0 -5 -37 -8 -82 -8 l-83 0 -3 45
c-2 42 -1 45 23 45 18 0 25 -5 25 -20z m-1260 2 c0 -5 -12 -19 -26 -31 -17
-15 -24 -29 -21 -42 4 -16 0 -19 -29 -19 -39 0 -47 12 -36 55 6 22 16 32 38
36 44 10 74 10 74 1z m-141 -14 c0 -7 -4 -21 -8 -31 -6 -17 -8 -17 -25 1 -17
19 -17 21 1 31 24 14 33 14 32 -1z m-107 -14 c-31 -21 -28 -32 11 -37 22 -3
16 -4 -20 -5 -55 -2 -68 6 -58 38 5 16 15 20 48 20 40 0 41 0 19 -16z m-684
-51 c70 -6 82 -19 96 -95 l7 -38 -103 -1 c-57 0 -126 -4 -154 -8 l-52 -7 -5
70 c-5 91 4 100 88 92 33 -4 88 -9 123 -13z m1147 1 c12 -5 14 -9 4 -14 -15
-10 -41 -1 -33 11 6 11 8 11 29 3z m-649 -19 c89 -4 179 -8 200 -11 22 -3 100
-9 174 -14 127 -8 225 -8 755 3 225 5 222 2 -25 -26 -143 -16 -317 -27 -540
-33 -412 -11 -537 -15 -560 -19 -14 -3 -96 -8 -182 -12 l-156 -6 -12 44 c-7
24 -16 55 -21 67 l-9 24 107 -6 c60 -3 181 -8 269 -11z m441 9 c-3 -3 -12 -4
-19 -1 -8 3 -5 6 6 6 11 1 17 -2 13 -5z m1227 -69 c-9 -13 -24 -27 -35 -30
-10 -4 -24 -15 -29 -25 -13 -25 1 -33 60 -37 83 -4 108 -13 156 -56 26 -23 65
-54 88 -69 l41 -28 -52 0 c-28 0 -60 -3 -70 -6 -11 -3 -7 4 12 20 16 14 26 28
23 31 -8 8 -46 -11 -73 -36 -12 -10 -43 -20 -75 -24 -30 -3 -88 -10 -129 -15
-81 -11 -95 -8 -65 15 19 15 19 16 0 28 -10 7 -45 34 -77 61 -83 69 -64 82 40
28 54 -29 82 -38 87 -31 8 14 -22 38 -93 76 l-52 28 21 22 21 23 17 -28 c41
-66 230 -204 230 -168 0 2 -38 34 -85 71 -54 42 -93 81 -105 105 l-20 39 22
15 c15 11 45 16 90 16 l68 0 -16 -25z m-263 -27 c-17 -18 -34 -41 -37 -51 -6
-18 -7 -18 -25 2 -11 12 -26 21 -34 21 -21 0 -26 15 -11 36 11 14 28 20 76 22
l62 3 -31 -33z m-193 -23 c-27 -24 -48 -48 -48 -54 0 -8 197 -111 214 -111 3
0 6 6 6 14 0 8 -36 31 -80 52 -44 20 -79 42 -77 47 2 6 12 17 24 24 19 13 25
10 79 -39 33 -30 82 -72 111 -95 49 -37 51 -42 35 -55 -9 -9 -37 -18 -62 -22
-36 -4 -50 -2 -67 13 -13 11 -23 24 -23 31 0 6 -6 10 -12 7 -28 -9 -246 149
-229 166 6 6 11 17 11 24 0 23 -31 14 -68 -18 -20 -17 -51 -38 -70 -46 -28
-11 -32 -16 -22 -28 7 -8 28 -15 46 -15 18 0 63 -11 100 -25 71 -27 84 -29 84
-17 0 8 -113 62 -130 62 -13 0 -13 17 0 25 13 8 36 -5 148 -83 92 -64 93 -65
74 -84 -26 -26 -178 -32 -203 -7 -8 8 -13 21 -11 29 3 9 -2 11 -16 8 -16 -4
-43 14 -114 78 -51 46 -92 86 -91 89 15 37 10 36 307 60 39 3 72 8 75 10 2 3
16 5 30 5 25 -1 24 -3 -21 -45z m496 9 c22 -9 20 -24 -3 -24 -21 0 -34 13 -24
24 8 7 8 7 27 0z m-974 -39 c-19 -20 -45 -38 -58 -42 -34 -8 -24 -38 13 -39
17 -1 64 -18 105 -38 78 -38 95 -42 104 -27 4 5 -30 26 -74 47 -44 21 -80 41
-80 45 0 3 8 13 18 22 17 15 22 13 78 -36 33 -29 79 -67 102 -86 42 -32 42
-34 25 -53 -15 -17 -26 -19 -76 -14 -47 4 -68 13 -109 43 -56 40 -130 89 -220
143 -32 19 -58 37 -58 41 0 4 57 11 128 16 70 5 129 11 131 11 3 1 -11 -14
-29 -33z m-380 3 c0 -4 -4 -10 -10 -13 -5 -3 -10 -15 -10 -25 0 -20 12 -25 85
-34 22 -3 69 -16 104 -30 35 -14 80 -29 99 -32 20 -4 51 -16 70 -27 l35 -21
-23 -18 c-26 -21 -65 -23 -175 -6 -74 10 -85 15 -146 64 -76 61 -129 112 -129
125 0 5 -7 9 -16 9 -8 0 -13 4 -10 9 6 10 126 9 126 -1z m110 2 c0 -6 12 -22
26 -35 l25 -24 -50 17 c-48 15 -50 17 -34 34 18 20 33 24 33 8z m-160 -128 c0
-5 -40 9 -100 35 l-54 24 29 19 29 19 48 -47 c26 -25 48 -48 48 -50z m1020
-82 c11 -7 7 -10 -18 -10 -20 0 -31 4 -27 10 8 13 26 13 45 0z m901 -24 c-29
-30 -40 -34 -104 -40 -40 -4 -96 -9 -126 -13 -39 -4 -52 -2 -47 6 4 6 9 21 11
32 3 12 7 24 11 28 8 8 110 18 208 19 l80 2 -33 -34z m-1186 14 c4 -6 -5 -10
-20 -10 -15 0 -24 4 -20 10 3 6 12 10 20 10 8 0 17 -4 20 -10z m855 -34 c-31
-31 -43 -35 -109 -41 l-74 -7 19 33 c21 36 47 44 154 47 l45 2 -35 -34z
m-1618 -16 c-47 -47 -59 -49 -73 -13 -16 43 -6 53 57 53 l56 0 -40 -40z m1416
10 c-12 -16 -24 -31 -27 -31 -14 -3 -51 -7 -132 -14 -72 -6 -87 -5 -92 8 -3 8
4 24 16 35 22 21 54 26 195 30 l63 2 -23 -30z m-1228 12 c0 -5 -26 -14 -57
-21 -32 -7 -67 -15 -78 -18 -18 -5 -18 -3 4 21 21 22 33 26 78 26 29 0 53 -4
53 -8z m725 -11 c17 -1 16 -5 -12 -33 -32 -31 -35 -32 -150 -39 -66 -4 -122
-3 -128 2 -6 6 1 19 18 36 29 30 81 40 192 36 33 -1 69 -2 80 -2z m206 -25
l-35 -36 -95 0 -95 0 28 29 c31 32 40 34 156 39 l75 3 -34 -35z m-532 -21
l-35 -35 -103 -1 c-57 0 -106 3 -110 6 -3 4 7 16 24 28 30 23 84 33 195 35
l65 2 -36 -35z m-264 13 c2 -1 -5 -13 -14 -25 -17 -20 -30 -22 -152 -28 -74
-3 -142 -8 -151 -11 -10 -3 -18 -1 -18 5 0 11 40 25 125 42 33 7 63 15 67 18
7 6 137 5 143 -1z m1542 -41 c-17 -26 -49 -33 -156 -36 -82 -2 -91 2 -68 32 9
13 34 18 110 21 55 2 101 7 104 10 15 14 23 -8 10 -27z m-317 -8 c-16 -29 -34
-37 -93 -41 -46 -2 -57 0 -57 12 1 36 21 45 112 45 39 0 45 -2 38 -16z m-227
-20 c-28 -29 -39 -32 -107 -37 -80 -5 -92 3 -63 41 11 16 23 17 167 25 l35 2
-32 -31z m275 6 c-6 -14 -15 -25 -20 -25 -5 0 -1 11 8 25 9 14 18 25 20 25 2
0 -2 -11 -8 -25z m-564 -26 c-27 -28 -32 -29 -115 -29 -83 0 -87 1 -82 20 10
37 35 45 133 42 l92 -3 -28 -30z m-219 1 c-17 -32 -12 -31 -152 -34 -79 -1
-88 3 -78 33 6 21 29 25 178 29 l68 2 -16 -30z m294 0 c-7 -19 -18 -30 -30
-30 -19 0 -19 1 3 30 12 17 25 30 29 30 5 0 3 -13 -2 -30z m-1615 -27 c-14
-131 -37 -214 -55 -196 -10 10 -100 186 -96 188 7 4 143 54 149 54 4 1 5 -20
2 -46z m1016 22 c-23 -22 -34 -24 -117 -26 -51 -2 -95 -1 -97 2 -3 3 -1 11 4
19 7 11 37 17 112 21 57 3 107 6 113 7 5 1 -2 -9 -15 -23z m-250 -5 c-5 -10
-13 -21 -18 -23 -4 -3 -69 -8 -145 -12 -132 -7 -139 -7 -135 11 3 16 17 20 93
26 49 5 94 9 98 10 5 2 33 4 63 5 51 2 54 1 44 -17z m1560 -4 c0 -3 -14 -21
-31 -41 -31 -35 -32 -35 -110 -35 -70 0 -79 2 -79 18 0 33 23 51 70 54 105 7
150 8 150 4z m29 -77 c-26 -77 -25 -75 -44 -59 -18 15 -19 25 -2 42 7 7 23 30
36 51 13 21 25 36 27 34 2 -2 -6 -32 -17 -68z m-389 37 c-22 -24 -76 -44 -87
-32 -3 3 -3 17 1 31 6 23 11 25 58 25 l51 0 -23 -24z m109 -6 c-9 -26 -16 -30
-46 -30 l-34 0 21 30 c13 19 30 30 45 30 22 0 23 -2 14 -30z m-327 -9 c-22
-24 -37 -29 -84 -33 -32 -3 -58 -3 -58 -2 0 2 5 14 11 28 12 26 30 31 116 34
l42 2 -27 -29z m98 24 c0 -23 -27 -55 -47 -55 -20 0 -22 3 -13 20 13 25 60 53
60 35z m-580 -19 c-15 -19 0 -22 18 -4 14 14 16 4 2 -21 -9 -18 -45 -23 -165
-23 -67 0 -67 0 -59 25 4 12 11 25 16 28 5 3 52 7 105 8 86 2 95 0 83 -13z
m210 5 c0 -4 -9 -20 -21 -35 -16 -21 -29 -26 -62 -26 -55 1 -83 21 -67 49 9
18 20 21 80 21 39 0 70 -4 70 -9z m113 -12 c-8 -28 -46 -51 -79 -47 l-27 3 27
33 c19 22 36 32 56 32 23 0 27 -3 23 -21z m-647 -18 c-25 -26 -37 -30 -108
-36 -43 -4 -81 -5 -84 -2 -3 3 2 19 11 36 l16 31 96 0 97 0 -28 -29z m94 19
c0 -15 -38 -50 -54 -50 -9 0 -4 10 13 30 27 30 41 37 41 20z m-356 -25 c-18
-27 -31 -32 -111 -39 -29 -3 -75 -8 -103 -12 -55 -7 -55 -7 -39 30 10 20 21
26 63 30 65 8 110 11 163 13 l43 2 -16 -24z m46 -5 c-12 -16 -26 -30 -31 -30
-5 0 0 14 13 30 12 17 26 30 31 30 4 0 -1 -13 -13 -30z m-331 -25 c-24 -40
-58 -51 -38 -12 17 33 41 57 50 51 4 -2 -1 -20 -12 -39z m1841 6 c0 -5 -7 -14
-15 -21 -20 -17 -2 -40 31 -40 12 0 26 -4 29 -10 4 -6 -30 -10 -94 -10 -90 0
-100 2 -106 20 -11 34 11 58 58 63 82 7 97 7 97 -2z m-330 -21 c0 -21 7 -23
50 -21 16 1 34 -7 45 -20 l20 -22 -55 6 c-30 4 -70 7 -89 7 -31 0 -33 2 -26
27 10 43 55 61 55 23z m140 10 c0 -5 -5 -10 -11 -10 -5 0 -7 5 -4 10 3 6 8 10
11 10 2 0 4 -4 4 -10z m-376 -14 c-4 -10 8 -22 33 -35 l38 -20 -84 -1 c-72 0
-82 2 -77 16 3 9 6 20 6 25 0 12 37 28 67 28 15 1 21 -3 17 -13z m136 0 c0
-22 -16 -27 -44 -15 -36 17 -32 29 9 29 24 0 35 -5 35 -14z m-620 -7 c0 -5 -4
-9 -9 -9 -4 0 -25 -13 -46 -30 -30 -24 -47 -30 -86 -30 l-49 0 17 35 c10 20
25 35 37 37 51 7 136 6 136 -3z m70 6 c0 -2 -8 -20 -17 -40 -15 -31 -21 -35
-55 -35 -21 0 -38 4 -38 9 0 15 73 71 92 71 10 0 18 -2 18 -5z m105 -1 c13 -5
14 -9 3 -15 -19 -13 8 -29 47 -29 17 0 37 -5 45 -10 11 -7 7 -9 -15 -5 -16 3
-60 2 -97 -3 -39 -5 -68 -5 -68 0 0 5 7 22 15 38 15 30 36 37 70 24z m185 -2
c0 -5 -6 -16 -13 -27 -10 -12 -16 -14 -21 -7 -4 7 -18 12 -31 12 -34 0 -40 18
-8 23 50 7 73 7 73 -1z m-676 -23 c-18 -20 -18 -21 1 -35 17 -13 16 -14 -22
-14 -22 0 -68 -3 -103 -7 l-62 -6 16 31 c9 18 18 32 19 33 1 0 36 3 77 6 41 3
77 7 79 9 15 14 11 0 -5 -17z m116 2 c-14 -27 -21 -30 -50 -19 -24 9 -24 10
-6 24 11 8 30 14 43 14 20 0 22 -3 13 -19z m-380 1 c0 -5 -13 -20 -28 -35 -25
-24 -38 -28 -120 -33 l-93 -7 12 26 c15 33 26 37 124 44 44 3 82 7 84 9 8 7
21 4 21 -4z m63 -32 c-11 -19 -25 -30 -40 -30 -13 0 -23 3 -23 7 0 15 45 53
62 53 18 0 19 -1 1 -30z m-313 1 c0 -4 -7 -17 -16 -29 -11 -16 -25 -22 -52
-22 l-37 1 37 34 c23 21 43 32 53 29 8 -3 15 -9 15 -13z m1110 -51 c0 -7 -122
-20 -184 -20 -46 0 -19 18 34 22 76 6 150 5 150 -2z m220 0 c-8 -5 -22 -9 -30
-9 -10 0 -8 3 5 9 27 12 43 12 25 0z m218 3 c-27 -2 -69 -2 -95 0 -27 2 -5 3
47 3 52 0 74 -1 48 -3z m-395 -10 c-7 -2 -19 -2 -25 0 -7 3 -2 5 12 5 14 0 19
-2 13 -5z m120 0 c-7 -2 -21 -2 -30 0 -10 3 -4 5 12 5 17 0 24 -2 18 -5z
m-433 -12 c0 -5 -28 -11 -62 -15 -98 -9 -376 -29 -448 -31 -36 -1 -74 -5 -85
-8 -11 -4 -82 -9 -157 -11 -75 -3 -145 -9 -155 -14 -10 -5 -78 -12 -151 -15
-131 -5 -133 -4 -142 18 -23 60 -26 59 105 55 66 -2 139 -4 162 -5 22 0 39 -3
37 -7 -9 -15 18 -19 34 -5 24 21 94 27 372 34 135 3 247 7 249 9 8 8 241 3
241 -5z m-1285 -55 c9 -21 15 -40 13 -41 -2 -1 -55 -10 -118 -19 -63 -9 -125
-19 -137 -23 -22 -5 -23 -2 -23 49 0 30 5 59 11 65 7 7 53 11 125 10 l114 -2
15 -39z m2390 6 c17 -10 17 -11 3 -12 -9 0 -29 5 -43 10 -23 9 -25 13 -15 25
11 13 14 13 24 1 6 -7 20 -18 31 -24z m-249 -12 c24 -17 44 -34 44 -37 0 -3
-6 -1 -12 5 -7 5 -29 13 -48 17 -19 4 -46 12 -60 17 -20 7 -22 11 -10 18 24
15 39 12 86 -20z m-241 -35 l50 -45 -58 25 c-32 14 -64 25 -72 25 -15 0 -20
21 -8 33 15 15 41 4 88 -38z m-295 -32 c0 -2 -10 2 -22 7 -13 5 -35 11 -50 14
-29 7 -39 26 -13 26 8 0 15 5 15 11 0 9 69 -49 70 -58z m-250 -22 c47 -34 38
-36 -40 -7 -19 8 -45 18 -58 22 l-23 9 22 24 c22 23 23 23 38 5 9 -11 36 -34
61 -53z m-730 41 c0 -8 -7 -16 -57 -61 l-22 -20 -45 35 c-25 19 -46 39 -46 43
0 5 38 9 85 10 47 1 85 -2 85 -7z m399 -24 c14 -12 37 -35 50 -50 23 -28 23
-28 -48 9 -66 34 -81 50 -64 67 9 9 29 1 62 -26z m-269 -47 l45 -40 -40 14
c-22 8 -52 14 -67 15 -14 0 -33 3 -42 6 -14 5 -13 10 5 35 24 34 30 32 99 -30z
m-310 19 l35 -30 -55 16 c-63 18 -64 19 -55 33 11 19 39 12 75 -19z"/>
<path d="M2805 2109 c-4 -6 -5 -13 -2 -16 8 -7 47 7 47 18 0 13 -37 11 -45 -2z"/>
<path d="M835 670 c3 -5 10 -10 16 -10 5 0 9 5 9 10 0 6 -7 10 -16 10 -8 0
-12 -4 -9 -10z"/>
<path d="M2475 440 c3 -5 8 -10 11 -10 2 0 4 5 4 10 0 6 -5 10 -11 10 -5 0 -7
-4 -4 -10z"/>
</g>
</svg>
