<?xml version="1.0" standalone="no"?>
<!DOCTYPE svg PUBLIC "-//W3C//DTD SVG 20010904//EN"
 "http://www.w3.org/TR/2001/REC-SVG-20010904/DTD/svg10.dtd">
<svg version="1.0" xmlns="http://www.w3.org/2000/svg"
 width="193.000000pt" height="152.000000pt" viewBox="0 0 193.000000 152.000000"
 preserveAspectRatio="xMidYMid meet">
<metadata>
Created by potrace 1.16, written by Peter Selinger 2001-2019
</metadata>
<g transform="translate(0.000000,152.000000) scale(0.100000,-0.100000)"
fill="#000000" stroke="none">
<path d="M533 1413 c-16 -34 -22 -37 -61 -39 -24 -1 -67 -12 -95 -24 -29 -11
-61 -25 -72 -29 -11 -5 -39 -14 -62 -20 -35 -10 -43 -16 -43 -35 0 -34 77
-135 190 -250 96 -96 98 -99 103 -154 3 -31 11 -58 16 -60 6 -2 2 -13 -8 -24
-11 -11 -24 -49 -31 -86 -6 -37 -14 -77 -17 -89 -4 -20 -1 -23 21 -23 15 0 42
6 60 14 39 16 129 29 201 30 48 0 348 -44 430 -64 22 -5 56 -10 77 -10 31 0
35 -3 31 -20 -6 -24 -31 -40 -108 -69 -33 -13 -74 -30 -92 -37 -17 -8 -69 -25
-115 -38 -46 -14 -152 -48 -237 -75 -117 -38 -157 -48 -163 -39 -14 24 -32
-10 -30 -57 1 -25 0 -45 -2 -45 -8 0 -84 117 -91 140 -3 14 -19 59 -35 100
-15 41 -30 95 -32 120 -4 42 -2 48 44 97 26 28 48 60 48 70 0 14 -8 10 -30
-17 -16 -19 -32 -35 -37 -35 -4 0 -47 -40 -95 -87 -48 -48 -101 -94 -118 -103
-16 -8 -30 -21 -30 -28 0 -20 110 -108 166 -133 28 -12 85 -52 125 -88 41 -36
80 -66 87 -66 7 0 12 -13 12 -30 0 -34 15 -38 58 -16 31 16 182 169 182 184 0
6 57 29 128 53 70 23 165 57 212 76 48 19 91 31 100 27 10 -5 4 -9 -20 -14
l-35 -7 31 -12 c27 -11 104 -89 104 -107 0 -4 -7 -16 -17 -26 -25 -27 -7 -35
21 -8 l25 22 28 -45 c15 -25 33 -53 39 -63 15 -25 38 -13 70 38 61 96 114 146
186 174 37 15 73 32 78 39 11 14 -25 68 -57 86 -24 13 -73 138 -73 186 0 15
14 55 30 88 16 33 27 61 25 63 -2 2 -23 -8 -48 -22 -24 -14 -53 -26 -64 -26
-11 0 -27 -8 -36 -18 -20 -22 -21 -32 -4 -32 14 0 65 -103 101 -206 17 -46 30
-69 40 -68 8 1 24 -8 35 -20 l21 -22 -31 -11 c-27 -11 -29 -10 -24 8 10 29
-11 23 -35 -12 -13 -17 -33 -35 -47 -40 -14 -5 -21 -14 -17 -20 3 -6 2 -14 -3
-18 -5 -3 -33 -37 -63 -76 -29 -38 -54 -72 -56 -73 -1 -2 -10 10 -19 27 -15
29 -15 37 0 92 8 33 15 78 15 98 0 37 30 90 113 194 16 21 27 41 23 44 -8 8
-12 4 -84 -94 l-59 -83 -11 58 c-6 31 -12 79 -14 106 -2 47 0 51 46 92 47 41
53 64 17 64 -29 0 -32 11 -8 44 87 122 179 196 290 230 22 7 23 46 1 46 -16 0
-80 62 -111 108 -14 20 -14 27 2 74 9 29 26 65 37 80 10 15 17 32 14 36 -3 5
-41 -1 -84 -12 l-80 -20 -76 24 c-42 13 -79 20 -83 17 -3 -4 -7 -17 -7 -30 -1
-20 -112 -207 -123 -207 -7 0 -265 78 -333 101 -178 59 -295 117 -303 151 -8
30 -34 20 -54 -19z m79 -52 c18 -15 40 -31 48 -34 8 -3 -18 -6 -58 -6 -40 -1
-72 2 -70 7 22 45 33 62 39 62 5 0 23 -13 41 -29z m828 1 c3 -3 -2 -7 -10 -10
-8 -3 -42 -31 -75 -63 -49 -48 -56 -59 -39 -59 19 0 23 -8 29 -56 3 -30 17
-87 31 -126 13 -39 24 -82 24 -95 0 -43 17 -24 39 45 12 37 43 100 67 140 25
40 44 77 42 83 -5 14 -93 -122 -110 -168 -7 -18 -15 -33 -19 -33 -11 0 -40
118 -46 189 l-6 68 46 32 c25 17 51 31 58 31 7 0 41 7 77 16 35 9 66 14 69 11
3 -3 -2 -16 -11 -29 -9 -12 -16 -31 -16 -42 0 -17 -4 -16 -33 12 -33 32 -57
41 -57 22 0 -5 16 -30 35 -56 19 -25 36 -52 36 -60 3 -34 6 -39 18 -36 20 4
42 -19 39 -42 -2 -11 2 -21 7 -22 15 -1 68 -24 64 -27 -2 -2 -21 -13 -42 -25
-36 -21 -37 -21 -27 -2 20 38 -14 21 -44 -21 -15 -22 -39 -45 -53 -50 -13 -5
-22 -13 -18 -19 9 -15 -116 -162 -133 -155 -18 7 -52 -3 -52 -15 0 -4 12 -11
26 -14 l25 -7 -23 -27 c-13 -16 -30 -48 -38 -72 -8 -25 -22 -45 -32 -48 -22
-5 -23 -18 -3 -29 8 -5 11 -13 6 -21 -6 -11 -21 -10 -77 2 -77 18 -376 69
-499 86 -138 20 -146 22 -158 41 -7 11 -19 19 -28 19 -15 0 -16 5 -6 35 6 19
14 35 18 35 4 0 31 23 61 52 75 72 115 96 173 103 28 3 100 14 160 24 132 23
207 26 237 9 24 -15 27 -17 120 -93 37 -30 70 -55 73 -55 20 0 -3 39 -51 84
l-55 54 8 69 c6 48 12 68 22 68 27 0 22 23 -9 36 -35 16 -35 18 -15 44 38 50
85 126 85 136 0 26 32 49 59 42 14 -3 28 -8 31 -11z m-955 -61 c-11 -19 15
-21 127 -11 l113 10 145 -45 c164 -52 214 -68 284 -94 46 -18 47 -19 27 -33
-11 -8 -18 -18 -15 -21 4 -4 21 3 38 15 l31 22 -19 -22 c-11 -13 -33 -31 -50
-41 -29 -18 -157 -58 -215 -67 -14 -2 -46 -9 -71 -14 -123 -25 -319 -32 -357
-12 -18 10 -24 9 -31 -4 -11 -20 -32 -10 -32 15 0 9 -5 22 -10 27 -18 18 -12
142 9 214 7 25 15 51 17 58 2 6 6 12 9 12 4 0 4 -4 0 -9z m-91 -33 c-4 -13 -6
-48 -5 -78 2 -79 -10 -91 -44 -44 -16 22 -42 56 -58 77 -16 21 -27 40 -26 42
9 8 77 23 107 24 30 1 33 -1 26 -21z m831 -267 c-4 -3 -12 2 -19 11 -6 9 -25
18 -41 20 -29 4 -29 4 13 16 27 8 43 19 44 30 1 9 3 -3 5 -27 3 -23 1 -46 -2
-50z m-586 -67 c7 -6 -83 -83 -96 -84 -9 0 -13 16 -13 50 l0 49 53 -6 c28 -3
54 -7 56 -9z m948 -174 c-11 -28 -13 -29 -25 -13 -11 15 -10 20 5 30 27 20 32
15 20 -17z m-159 -4 c-2 0 -18 -14 -36 -30 -36 -33 -43 -23 -12 17 13 16 27
24 36 20 8 -3 14 -6 12 -7z m-884 -78 c11 -10 34 -18 49 -18 39 0 25 -16 -20
-23 -21 -3 -49 -9 -62 -13 -22 -7 -23 -6 -10 17 7 13 12 25 11 27 -1 1 -2 14
-1 30 0 15 3 20 6 12 3 -8 15 -23 27 -32z m824 -100 c1 -40 6 -88 12 -107 10
-36 5 -51 -33 -103 -42 -57 -62 26 -26 105 11 23 10 30 -3 43 -14 14 -14 21 4
67 35 92 44 91 46 -5z m-1043 -100 c4 -35 16 -80 27 -101 10 -21 18 -43 16
-48 -4 -11 -48 20 -114 81 l-47 44 49 43 c27 23 52 43 56 43 3 0 9 -28 13 -62z
m941 -75 c-13 -14 -25 9 -13 28 12 20 12 20 15 -1 2 -12 1 -24 -2 -27z m120
-68 c-7 -47 -14 -53 -33 -34 -9 9 -7 22 8 51 25 49 34 43 25 -17z m-646 -64
c0 -5 -37 -44 -82 -87 l-83 -77 -8 54 c-9 65 -5 79 25 80 13 0 48 8 78 19 67
22 70 22 70 11z"/>
</g>
</svg>
