<?xml version="1.0" standalone="no"?>
<!DOCTYPE svg PUBLIC "-//W3C//DTD SVG 20010904//EN"
 "http://www.w3.org/TR/2001/REC-SVG-20010904/DTD/svg10.dtd">
<svg version="1.0" xmlns="http://www.w3.org/2000/svg"
 width="312.000000pt" height="158.000000pt" viewBox="0 0 312.000000 158.000000"
 preserveAspectRatio="xMidYMid meet">
<metadata>
Created by potrace 1.16, written by Peter Selinger 2001-2019
</metadata>
<g transform="translate(0.000000,158.000000) scale(0.100000,-0.100000)"
fill="#000000" stroke="none">
<path d="M2730 1530 c-14 -4 -62 -26 -107 -49 -46 -22 -88 -41 -94 -41 -6 0
-8 -15 -4 -44 l7 -43 -49 -13 c-34 -9 -155 -13 -413 -15 -322 -2 -377 0 -463
16 -54 11 -110 19 -125 19 -15 0 -60 16 -100 36 -68 34 -76 35 -100 23 -39
-20 -42 -27 -42 -104 0 -38 -4 -75 -8 -80 -11 -17 -124 -101 -167 -125 -39
-22 -46 -22 -265 -17 -238 5 -305 16 -356 56 -15 12 -32 21 -39 21 -7 0 -42
23 -78 51 -108 83 -124 64 -129 -155 -2 -130 -1 -150 14 -159 12 -8 24 -4 52
17 51 39 71 32 72 -24 0 -25 4 -62 8 -82 6 -34 5 -37 -11 -31 -10 3 -31 17
-47 30 -28 23 -29 23 -48 6 -32 -28 -37 -55 -44 -198 -7 -155 -2 -162 66 -102
103 90 110 91 110 22 0 -42 4 -55 15 -55 20 0 32 27 34 85 2 54 12 71 44 81
12 3 32 16 45 27 l23 21 -2 -89 c-1 -50 -5 -100 -10 -112 -12 -32 10 -41 32
-14 10 12 20 42 23 66 19 149 14 135 52 135 33 0 34 -1 34 -38 0 -21 6 -47 14
-57 12 -16 16 -17 30 -6 12 10 14 23 10 52 -6 34 -4 39 12 40 11 0 57 1 104 3
47 1 114 6 150 10 61 8 67 7 95 -17 17 -14 50 -35 74 -47 23 -13 45 -29 48
-36 3 -7 20 -18 39 -24 52 -17 74 -55 64 -110 -8 -45 2 -198 14 -218 11 -19
19 -16 139 53 63 36 123 65 135 65 11 0 24 5 28 11 5 8 53 10 167 6 155 -6
176 -11 177 -39 0 -15 29 -8 39 10 8 12 10 -19 11 -110 0 -120 1 -128 19 -128
28 0 33 28 26 139 -7 89 -6 99 10 105 28 10 35 -5 24 -54 -16 -68 -20 -230 -6
-230 35 1 41 18 38 110 -2 89 -2 91 27 118 15 15 33 36 39 46 10 18 22 20 134
18 68 0 145 -6 170 -12 l47 -11 -13 -49 c-9 -35 -10 -51 -2 -59 29 -29 51 0
84 114 22 74 84 215 95 215 5 0 20 11 34 25 27 27 142 122 210 172 l44 33 -22
41 c-11 22 -28 43 -37 46 -31 11 -51 36 -81 100 -17 34 -30 66 -30 68 0 3 -22
51 -50 106 -58 115 -63 159 -30 255 38 109 39 112 27 122 -7 5 -23 6 -37 2z
m-52 -134 c-13 -36 -26 -66 -30 -66 -12 0 -73 83 -63 87 6 2 33 14 60 27 28
13 51 22 53 21 2 -2 -7 -33 -20 -69z m-1304 -69 l59 -25 -39 -20 c-55 -27 -94
-35 -95 -20 0 7 -2 32 -4 56 -2 31 0 42 8 38 7 -2 39 -16 71 -29z m336 -46
c63 -5 207 -7 320 -4 113 2 268 6 345 7 78 1 146 6 153 10 7 4 12 3 12 -3 0
-14 -92 -65 -175 -97 -137 -53 -300 -105 -333 -107 -31 -2 -35 1 -48 38 -7 22
-14 54 -14 72 0 17 -5 35 -11 38 -15 10 -69 -15 -69 -31 0 -9 -11 -14 -30 -14
-16 0 -31 -3 -31 -7 -1 -5 -3 -33 -4 -63 -4 -58 -12 -110 -18 -116 -10 -10
-239 -45 -320 -48 -122 -6 -125 -12 -66 -141 45 -96 63 -114 97 -96 12 6 22 7
29 0 7 -7 138 0 222 13 17 3 73 -27 81 -42 6 -10 10 -41 10 -68 0 -27 3 -52 7
-55 11 -12 33 15 33 41 0 14 3 23 6 19 3 -3 3 -51 -1 -107 l-7 -100 -92 5
c-220 13 -265 24 -353 89 -18 13 -52 27 -76 30 -33 5 -53 17 -85 49 -40 40
-41 45 -32 77 6 19 10 52 10 73 0 21 5 58 11 83 11 42 10 46 -10 60 -11 8 -21
20 -21 26 0 6 -7 19 -15 28 -19 21 -21 114 -3 161 7 20 28 49 45 63 39 32 166
96 192 96 10 0 29 9 42 21 18 15 32 19 54 15 16 -4 82 -10 145 -15z m981 -188
c41 -82 78 -142 98 -158 17 -15 31 -33 31 -41 0 -17 -2 -17 -51 -3 -53 16 -71
1 -63 -51 4 -26 -1 -59 -14 -102 -11 -34 -24 -78 -27 -97 -6 -29 -77 -209 -92
-234 -3 -4 -15 -2 -26 6 -12 8 -67 31 -122 51 -55 20 -112 46 -127 56 -15 11
-30 20 -34 20 -4 0 -31 12 -60 27 -57 29 -60 34 -89 143 -9 36 -28 99 -42 140
-61 187 -62 200 -26 200 10 0 63 16 118 36 260 94 312 113 345 128 19 9 53 15
75 13 l40 -2 66 -132z m-1501 40 c-4 -16 -14 -43 -20 -61 l-13 -34 -26 26 -26
27 40 34 c49 42 56 43 45 8z m-780 -58 c0 -12 -140 -88 -148 -81 -3 3 1 12 8
21 7 8 10 25 6 37 -3 13 -3 39 0 59 l6 36 64 -31 c35 -17 64 -36 64 -41z
m1498 43 c-2 -6 -14 -18 -26 -26 -21 -14 -22 -13 -22 12 0 21 5 26 26 26 15 0
24 -5 22 -12z m27 -68 c-3 -5 -14 -10 -23 -10 -15 0 -15 2 -2 10 20 13 33 13
25 0z m-1108 -11 c106 1 199 4 208 7 20 8 185 -163 185 -191 0 -19 -44 -61
-104 -101 -26 -16 -53 -19 -203 -22 -159 -4 -173 -3 -173 13 0 27 41 96 84
142 48 51 41 64 -29 53 -29 -5 -54 -4 -60 1 -5 5 -46 9 -92 9 -73 0 -84 2 -93
20 -8 15 -17 19 -31 15 -32 -10 -133 5 -119 19 30 30 95 46 165 40 39 -3 157
-6 262 -5z m1137 -45 c3 -9 6 -20 6 -25 0 -13 -37 -11 -63 3 -22 11 -22 12 8
24 39 17 42 17 49 -2z m-42 -64 c15 0 18 -5 13 -22 -4 -13 -13 -29 -20 -36
-10 -11 -14 -9 -19 12 -11 45 -23 29 -29 -40 -7 -73 -10 -80 -27 -69 -8 5 -10
33 -5 94 4 47 9 89 12 94 2 4 16 -2 30 -13 14 -11 34 -20 45 -20z m-116 -47
c-4 -37 -9 -69 -12 -72 -2 -2 -17 7 -32 21 -15 14 -40 33 -55 43 l-28 18 33
22 c19 13 42 25 53 28 48 12 48 11 41 -60z m-1369 -4 c-22 -51 -22 -51 -28
-23 -14 63 -11 74 20 74 l29 0 -21 -51z m1567 10 c5 -22 2 -28 -17 -33 -50
-13 -54 -2 -19 52 17 26 26 20 36 -19z m-1473 -36 c1 -64 0 -95 -5 -100 -1 -1
-19 0 -40 4 -34 5 -37 8 -31 32 11 45 53 131 64 131 7 0 11 -28 12 -67z m1046
3 c-34 -35 -66 -62 -71 -59 -15 10 -38 75 -29 84 8 8 117 35 150 38 7 1 -16
-28 -50 -63z m-954 -1 c-29 -59 -36 -57 -48 13 l-7 42 41 0 41 0 -27 -55z
m147 35 c0 -6 -12 -29 -27 -51 -29 -44 -43 -38 -43 18 0 22 5 33 18 36 31 8
52 7 52 -3z m959 -117 c1 -9 -16 -13 -54 -13 -30 0 -55 2 -55 5 0 3 10 21 22
39 l22 34 33 -26 c17 -15 32 -33 32 -39z m-1066 -12 c-3 -12 -12 -21 -19 -21
-17 0 -17 7 -2 50 10 31 12 32 19 13 4 -12 5 -30 2 -42z m1304 32 c-7 -16 -14
-20 -21 -13 -18 18 -26 11 -26 -21 0 -27 -2 -30 -15 -19 -15 12 -21 61 -9 73
3 3 23 5 44 4 36 -1 37 -2 27 -24z m82 -69 c1 -18 -6 -23 -41 -26 -24 -3 -46
-3 -51 -1 -7 4 10 44 23 53 4 3 15 21 25 40 l19 35 12 -40 c7 -22 13 -50 13
-61z m847 85 c6 -11 -14 -32 -148 -157 l-36 -35 7 36 c5 19 19 64 32 101 l24
66 57 0 c32 0 60 -5 64 -11z m-1683 -133 c-7 -13 -12 -12 -33 5 -20 15 -22 21
-11 28 7 5 11 15 8 22 -2 8 5 25 17 37 l21 24 3 -51 c2 -28 -1 -57 -5 -65z
m-880 52 c32 -11 37 -17 37 -43 0 -26 -8 -34 -52 -60 -29 -16 -55 -31 -58 -33
-4 -1 -5 17 -4 40 1 24 2 60 3 82 1 42 -4 41 74 14z m122 -28 c-3 -5 -10 -10
-16 -10 -5 0 -9 5 -9 10 0 6 7 10 16 10 8 0 12 -4 9 -10z m1585 -30 c0 -5 -4
-10 -9 -10 -6 0 -13 5 -16 10 -3 6 1 10 9 10 9 0 16 -4 16 -10z m-75 -98 c-10
-109 -17 -152 -23 -152 -4 0 -3 49 2 110 5 60 13 107 18 104 5 -3 6 -31 3 -62z
m110 7 c10 -15 -1 -23 -20 -15 -9 3 -13 10 -10 16 8 13 22 13 30 -1z m-25 -44
c27 -14 28 -18 18 -40 -12 -26 -28 -33 -28 -12 -1 22 -30 -26 -30 -50 0 -13
-4 -23 -10 -23 -11 0 -14 98 -4 124 8 20 17 20 54 1z m255 -63 c39 -18 83 -39
100 -46 28 -12 22 -13 -79 -20 -100 -7 -110 -6 -128 12 -17 16 -18 22 -7 39
10 17 9 25 -10 52 l-22 31 38 -18 c21 -10 70 -32 108 -50z m-883 -12 c20 -17
56 -39 79 -49 l42 -19 -29 -15 c-16 -8 -40 -18 -54 -22 -14 -4 -37 -16 -52
-26 -14 -11 -30 -19 -36 -19 -11 0 -21 102 -15 148 6 40 18 40 65 2z m701 -6
c5 -27 -14 -54 -39 -54 -19 0 -18 12 4 49 21 38 28 39 35 5z"/>
<path d="M2160 295 c-10 -12 -10 -15 3 -15 19 0 31 16 18 24 -5 3 -14 -1 -21
-9z"/>
</g>
</svg>
