<?xml version="1.0" standalone="no"?>
<!DOCTYPE svg PUBLIC "-//W3C//DTD SVG 20010904//EN"
 "http://www.w3.org/TR/2001/REC-SVG-20010904/DTD/svg10.dtd">
<svg version="1.0" xmlns="http://www.w3.org/2000/svg"
 width="318.000000pt" height="232.000000pt" viewBox="0 0 318.000000 232.000000"
 preserveAspectRatio="xMidYMid meet">
<metadata>
Created by potrace 1.16, written by Peter Selinger 2001-2019
</metadata>
<g transform="translate(0.000000,232.000000) scale(0.100000,-0.100000)"
fill="#000000" stroke="none">
<path d="M1550 2182 c-30 -32 -77 -78 -105 -104 -27 -26 -79 -77 -115 -113
-36 -37 -79 -74 -96 -83 -43 -23 -138 -96 -197 -151 l-48 -45 -55 55 c-30 30
-66 72 -79 94 -13 22 -49 64 -80 94 -55 53 -95 115 -95 146 0 10 -9 15 -27 15
-24 -1 -38 -15 -93 -97 -53 -79 -71 -98 -97 -105 -18 -5 -33 -14 -33 -21 0
-10 106 -67 124 -67 4 0 30 -17 59 -37 28 -20 95 -66 147 -101 52 -36 96 -68
98 -72 3 -7 -52 -50 -238 -185 -45 -32 -94 -69 -108 -82 -42 -36 -153 -109
-189 -123 -18 -7 -33 -16 -33 -20 0 -3 -10 -6 -22 -6 -18 1 -24 -5 -26 -26 -6
-50 82 -181 138 -205 27 -12 29 -10 108 80 44 51 128 137 186 192 59 55 117
116 131 135 13 19 53 66 88 104 l64 70 49 -32 c55 -36 92 -62 108 -77 32 -28
94 -74 121 -87 17 -9 44 -31 60 -49 17 -17 49 -52 72 -76 42 -45 54 -77 39
-102 -7 -10 -10 -10 -16 -1 -12 19 -46 -5 -77 -53 -38 -61 -172 -208 -264
-289 l-79 -70 -37 23 c-21 12 -56 36 -78 54 -22 17 -65 46 -95 64 -73 44 -157
116 -183 158 -29 45 -52 40 -96 -22 -53 -75 -101 -157 -101 -172 0 -8 26 -25
57 -39 32 -14 72 -31 88 -38 17 -8 53 -22 80 -31 28 -10 75 -31 105 -46 30
-16 65 -29 76 -29 12 0 32 -8 44 -18 l21 -17 -23 -23 c-22 -21 -141 -116 -218
-173 -19 -14 -43 -28 -52 -32 -21 -7 -24 -40 -6 -54 7 -6 56 -29 108 -53 52
-23 102 -48 111 -56 25 -22 48 -17 55 14 7 36 116 261 141 290 l18 24 133 -71
c73 -39 150 -82 170 -95 20 -13 47 -26 60 -30 12 -4 35 -18 50 -31 15 -12 48
-33 72 -46 25 -13 49 -29 53 -36 18 -29 46 -13 82 47 20 33 41 60 47 60 7 0 9
-44 8 -128 -3 -154 -4 -152 15 -152 16 0 130 34 185 55 19 8 82 24 140 35 58
12 130 28 160 36 225 60 296 75 415 84 72 5 159 12 195 16 36 3 99 7 140 9 41
1 81 3 88 4 26 2 11 30 -20 36 -82 14 -196 21 -228 14 -142 -32 -206 -37 -300
-25 -74 9 -94 15 -91 27 7 24 19 91 31 164 7 39 18 104 27 145 8 41 16 84 18
95 2 11 11 58 20 105 14 75 22 153 39 380 16 210 27 317 35 335 15 34 68 216
86 295 10 41 31 98 47 127 34 60 28 68 -43 58 -39 -6 -54 -3 -68 9 -15 14 -27
14 -97 4 -83 -12 -119 -12 -223 -2 -37 3 -73 2 -85 -4 -11 -6 -46 -13 -76 -17
-125 -15 -145 -18 -156 -26 -17 -14 -5 -67 17 -72 16 -4 19 -14 19 -58 0 -49
-3 -54 -42 -88 -22 -20 -47 -40 -55 -44 -20 -12 -45 12 -39 37 5 20 -13 61
-84 196 -57 107 -60 118 -60 183 0 58 -3 66 -25 81 -13 9 -28 16 -32 15 -4 0
-33 -26 -63 -57z m70 -80 c0 -20 9 -51 19 -68 10 -17 22 -45 26 -62 3 -17 16
-46 28 -64 43 -64 68 -111 62 -117 -4 -3 -28 17 -54 44 -41 43 -97 91 -190
163 -21 16 -22 21 -11 43 15 29 102 109 113 102 4 -2 7 -21 7 -41z m579 -199
c-22 -54 -44 -102 -49 -107 -7 -7 -10 17 -10 70 0 43 -3 89 -6 101 -5 19 -1
22 28 26 83 10 80 18 37 -90z m274 77 c-1 -8 -19 -64 -39 -124 -44 -131 -60
-126 -51 17 4 79 8 93 28 109 26 22 65 20 62 -2z m-1773 -46 c23 -30 53 -60
67 -67 13 -6 33 -28 44 -48 10 -21 46 -64 79 -96 33 -33 60 -64 60 -69 0 -5
-9 -15 -21 -22 -23 -14 -41 -6 -154 73 -33 23 -101 67 -151 96 l-90 55 53 67
c30 37 58 67 63 67 5 0 28 -25 50 -56z m1654 29 c-11 -44 -55 -153 -65 -159
-5 -3 -9 15 -9 39 0 24 -3 65 -6 90 -6 44 -6 46 22 50 64 9 65 9 58 -20z m246
-32 c-10 -27 -29 -89 -40 -138 -12 -48 -26 -92 -31 -98 -5 -5 -9 47 -9 136 l0
145 50 2 50 2 -20 -49z m-1104 17 c65 -48 154 -121 154 -128 0 -3 32 -32 70
-64 39 -31 70 -65 70 -74 0 -17 -193 -212 -289 -292 -30 -25 -74 -56 -98 -70
l-44 -25 -50 55 c-28 30 -97 104 -152 163 -56 60 -103 112 -105 116 -1 4 28
36 65 71 38 35 109 103 158 150 50 47 101 93 115 103 33 23 70 21 106 -5z
m551 -50 c-24 -75 -23 -74 -42 -58 -15 13 -22 100 -8 113 3 4 21 7 38 7 l32 0
-20 -62z m52 -186 c-11 -142 -19 -150 -64 -62 -30 59 -33 106 -7 112 10 3 27
31 42 71 l25 67 6 -43 c4 -23 3 -88 -2 -145z m130 -62 c-5 -47 -9 -116 -9
-153 l0 -68 -24 18 c-14 10 -36 36 -50 57 -21 32 -25 47 -20 80 4 23 12 48 19
56 6 8 19 46 28 83 9 37 24 84 34 105 l18 37 7 -65 c3 -36 2 -103 -3 -150z
m247 13 c-8 -269 -26 -584 -36 -643 -5 -30 -14 -89 -20 -130 -6 -41 -19 -113
-30 -160 -46 -206 -60 -279 -63 -330 -4 -79 -14 -92 -68 -88 -33 2 -45 7 -47
22 -3 16 21 119 63 271 16 56 47 213 66 325 17 107 29 253 33 420 4 195 15
312 31 330 11 13 44 87 59 133 14 42 17 6 12 -150z m-130 2 c-3 -49 -8 -144
-11 -210 -3 -65 -8 -121 -11 -124 -2 -3 -18 9 -35 26 l-31 30 12 139 c7 81 17
145 25 154 7 8 18 40 25 70 12 49 14 52 22 30 5 -14 7 -65 4 -115z m-394 13
c-2 -29 -6 -54 -7 -56 -6 -7 -55 30 -55 41 0 12 50 67 60 67 4 0 5 -24 2 -52z
m-48 -98 c46 -30 47 -31 42 -73 -5 -38 -29 -296 -40 -442 -3 -33 -8 -97 -12
-142 l-7 -82 -41 43 c-100 104 -146 156 -146 163 0 4 -27 37 -60 72 -38 40
-60 73 -60 87 0 13 -9 28 -20 34 -20 11 -20 12 -3 40 9 16 30 44 46 62 16 18
42 56 58 84 16 28 40 61 54 74 14 13 25 28 25 33 0 17 74 76 96 77 11 0 41
-14 68 -30z m136 -14 l25 -29 -32 23 c-18 13 -33 31 -33 39 0 8 3 11 8 6 4 -6
18 -23 32 -39z m-982 -8 c70 -76 107 -123 81 -103 -147 111 -148 112 -132 128
11 12 19 8 51 -25z m-155 -20 c-62 -83 -118 -144 -293 -320 -113 -115 -209
-208 -215 -208 -10 0 -21 17 -73 103 -23 37 -23 39 -5 53 10 7 25 14 34 14 9
0 39 16 65 35 27 19 81 56 119 81 39 26 104 72 145 104 126 96 204 149 219
150 9 0 10 -4 4 -12z m1141 -57 l28 -29 -12 -168 c-11 -172 -29 -344 -36 -356
-2 -3 -22 -21 -45 -39 l-40 -32 6 139 c5 123 25 348 41 472 6 50 20 53 58 13z
m-435 -73 c-13 -24 -58 -81 -120 -151 l-36 -40 -26 19 c-28 20 -35 44 -14 44
6 1 55 34 107 74 52 41 96 74 98 75 1 1 -3 -9 -9 -21z m584 -61 c20 -22 22
-84 7 -192 -10 -65 -14 -73 -60 -120 -27 -27 -52 -47 -55 -43 -5 5 19 310 31
387 l5 33 27 -23 c15 -13 35 -32 45 -42z m137 -95 c0 -20 -14 -41 -50 -77 -54
-53 -57 -50 -39 33 9 42 13 49 29 45 12 -3 22 1 26 11 10 27 34 19 34 -12z
m-816 -53 c-21 -24 -29 -18 -14 10 6 12 16 19 21 15 6 -4 4 -13 -7 -25z m156
-174 c0 -6 25 -35 55 -65 30 -30 55 -59 55 -64 0 -5 16 -25 36 -43 21 -18 34
-36 30 -40 -3 -3 -17 4 -31 17 -13 12 -33 28 -43 34 -44 25 -137 89 -185 127
-28 22 -68 49 -89 60 -21 11 -38 23 -37 27 0 4 21 24 47 46 l47 39 57 -64 c32
-35 58 -69 58 -74z m647 53 c-3 -40 -8 -82 -10 -93 -3 -11 -13 -58 -22 -105
-17 -85 -36 -171 -75 -332 -12 -48 -27 -118 -34 -155 -10 -58 -15 -68 -34 -71
-28 -4 -29 20 -2 136 41 177 41 174 65 412 13 132 21 171 37 195 19 28 68 81
77 84 2 1 1 -32 -2 -71z m-835 -68 c5 0 38 -22 73 -50 36 -27 96 -67 133 -90
77 -45 142 -101 142 -121 0 -18 -212 -234 -290 -296 -121 -97 -117 -95 -142
-82 -13 7 -39 24 -58 39 -19 15 -49 34 -66 43 -17 9 -65 44 -107 79 -42 35
-86 70 -98 79 l-22 15 43 65 c43 63 137 188 182 242 13 15 43 52 67 81 l43 54
46 -29 c25 -16 50 -29 54 -29z m692 -57 c-3 -27 -10 -68 -15 -93 -5 -25 -16
-102 -24 -172 -9 -70 -27 -172 -40 -227 -14 -55 -25 -107 -25 -116 0 -11 -11
-15 -39 -15 -48 0 -56 10 -43 53 5 17 17 79 27 137 9 58 23 134 30 170 8 36
17 93 21 127 5 50 13 70 39 100 17 21 37 48 44 61 20 37 31 25 25 -25z m-1573
-59 c29 -30 89 -75 161 -119 17 -11 160 -106 167 -112 3 -2 -5 -13 -17 -25
-22 -22 -22 -22 -74 -4 -29 11 -93 38 -143 61 -49 24 -119 55 -155 70 -36 15
-69 31 -73 35 -8 7 9 47 24 60 3 3 14 20 23 38 21 42 44 41 87 -4z m1405 -106
c-21 -127 -79 -444 -82 -450 -3 -4 -11 -5 -19 -1 -19 7 -19 55 3 243 l17 146
40 47 c22 25 41 46 43 47 2 0 1 -15 -2 -32z m-946 -91 c0 -2 -10 -12 -21 -23
-22 -19 -22 -19 -10 4 10 18 31 31 31 19z m796 -146 c-9 -50 -16 -115 -16
-145 0 -30 -4 -58 -10 -61 -12 -8 -121 12 -133 24 -6 6 12 42 45 93 30 46 69
107 88 135 18 29 35 51 37 49 3 -2 -3 -45 -11 -95z m-866 65 c0 -16 -14 -36
-26 -36 -14 0 -19 22 -7 33 7 8 33 10 33 3z m99 -71 c27 -20 57 -47 66 -62 17
-26 17 -26 -41 7 -79 45 -101 63 -96 78 6 19 18 15 71 -23z m660 -7 c-7 -13
-35 -56 -63 -97 -28 -40 -68 -98 -88 -129 -20 -30 -39 -56 -42 -59 -8 -8 -86
59 -86 73 0 14 14 25 105 83 33 22 87 64 120 94 33 31 61 56 63 57 1 0 -3 -10
-9 -22z m-829 -11 c0 -8 -14 -33 -31 -57 -17 -23 -48 -78 -70 -121 -21 -43
-43 -80 -49 -84 -10 -6 -125 48 -134 64 -7 11 6 21 159 135 101 75 125 87 125
63z m886 -235 c7 -4 14 -18 15 -32 5 -35 34 -37 51 -3 16 33 53 39 53 9 0 -27
22 -31 37 -7 16 26 73 28 100 4 15 -14 22 -14 41 -4 17 9 58 11 141 7 65 -2
120 -7 123 -9 2 -3 -20 -10 -49 -17 -29 -6 -80 -20 -113 -30 -33 -11 -100 -26
-150 -34 -49 -9 -130 -28 -180 -44 -49 -16 -107 -32 -128 -36 l-38 -7 7 93 c4
51 11 99 17 106 10 13 55 16 73 4z"/>
</g>
</svg>
