<?xml version="1.0" standalone="no"?>
<!DOCTYPE svg PUBLIC "-//W3C//DTD SVG 20010904//EN"
 "http://www.w3.org/TR/2001/REC-SVG-20010904/DTD/svg10.dtd">
<svg version="1.0" xmlns="http://www.w3.org/2000/svg"
 width="322.000000pt" height="140.000000pt" viewBox="0 0 322.000000 140.000000"
 preserveAspectRatio="xMidYMid meet">
<metadata>
Created by potrace 1.16, written by Peter Selinger 2001-2019
</metadata>
<g transform="translate(0.000000,140.000000) scale(0.100000,-0.100000)"
fill="#000000" stroke="none">
<path d="M2816 1214 c-33 -13 -74 -27 -92 -30 -18 -3 -41 -12 -51 -19 -17 -12
-16 -14 7 -35 l25 -21 -70 8 c-78 9 -182 10 -621 4 -219 -3 -306 -1 -322 8
-12 7 -75 16 -140 22 -205 17 -234 23 -252 50 -3 4 -12 4 -20 -1 -24 -15 0
-43 51 -59 41 -13 42 -15 19 -21 -14 -4 -40 -14 -57 -23 -52 -27 -55 -24 -48
47 7 64 1 82 -25 66 -14 -9 -44 -176 -34 -192 12 -19 44 -8 159 55 11 6 28 10
38 8 10 -1 30 5 45 15 22 14 45 17 127 15 55 -2 107 -7 116 -12 17 -9 527 -24
714 -20 122 2 257 -16 230 -32 -15 -8 -134 -49 -425 -146 -64 -22 -167 -59
-230 -84 -63 -24 -130 -48 -148 -52 -18 -4 -45 -13 -60 -21 -38 -19 -64 -18
-130 10 -89 36 -193 74 -239 86 -27 7 -43 17 -43 26 0 17 -43 36 -64 28 -8 -3
-25 -31 -37 -62 -22 -54 -23 -55 -33 -31 -6 14 -28 50 -49 80 l-38 55 16 43
c8 24 20 73 25 110 6 36 12 76 15 89 6 26 -19 31 -44 8 -9 -8 -47 -30 -86 -48
l-70 -34 -195 1 c-272 2 -366 19 -419 76 -25 27 -56 18 -77 -23 -13 -25 -15
-48 -9 -119 4 -56 3 -95 -4 -108 -13 -24 -4 -51 16 -51 9 0 31 14 50 31 33 28
38 30 92 23 31 -3 59 -9 64 -11 8 -5 -33 -62 -45 -62 -4 -1 -15 13 -24 30 -13
27 -18 29 -30 18 -11 -12 -11 -22 2 -67 19 -62 10 -81 -27 -61 -13 6 -30 21
-39 32 -14 17 -19 18 -38 6 -29 -18 -30 -23 -34 -174 -3 -148 3 -159 63 -105
19 16 51 42 72 57 35 25 40 26 48 10 20 -35 57 -9 42 29 -4 12 -2 15 8 12 11
-4 13 -21 10 -77 -3 -67 -2 -73 15 -69 16 3 20 16 26 77 4 41 12 78 18 81 6 4
24 4 41 2 l30 -4 -7 -54 c-5 -44 -4 -54 9 -54 18 0 27 21 27 66 l0 34 48 -4
c26 -2 48 -4 49 -5 1 -1 -5 -29 -13 -62 -8 -34 -12 -65 -8 -68 8 -8 34 29 40
59 15 77 13 75 97 78 92 3 94 2 193 -116 116 -137 111 -129 106 -197 -3 -51
-1 -63 16 -78 19 -17 22 -17 91 18 71 36 81 39 152 54 19 4 42 12 50 17 8 5
147 9 309 10 162 1 390 2 505 2 340 2 426 1 510 -6 l80 -7 -2 -48 c-1 -34 3
-50 13 -54 31 -12 41 16 48 137 8 142 25 181 118 272 32 32 58 62 58 67 0 18
-28 31 -78 34 -39 3 -58 11 -81 33 -17 16 -31 36 -31 45 0 23 -27 86 -41 95
-6 3 -19 25 -29 47 -14 31 -16 46 -8 66 5 14 11 33 13 42 2 9 13 46 24 84 12
37 21 69 21 71 0 10 -39 0 -94 -22z m19 -91 c-14 -37 -27 -68 -29 -70 -6 -7
-77 79 -74 89 4 12 84 47 110 47 16 1 15 -5 -7 -66z m-1730 -35 c-15 -114 -21
-118 -79 -59 -28 29 -35 41 -25 47 11 8 98 51 107 53 2 1 0 -18 -3 -41z m-662
-13 c26 -4 47 -10 47 -14 0 -3 -30 -20 -67 -38 -68 -31 -68 -31 -75 -10 -3 12
-6 39 -7 60 l-1 38 28 -15 c15 -8 49 -17 75 -21z m528 -91 c106 -102 169 -172
169 -187 0 -20 -39 -53 -84 -72 -40 -17 -186 -30 -186 -17 0 4 12 25 25 47 34
55 32 65 -12 65 -45 0 -58 8 -58 35 0 18 -6 20 -62 18 -40 -1 -63 2 -63 9 0
22 -44 49 -74 46 -25 -2 -32 1 -34 19 -3 18 -12 22 -73 28 -60 6 -68 9 -52 20
44 30 123 48 228 54 186 10 202 6 276 -65z m1812 1 c1 -11 6 -25 9 -31 7 -10
-159 -24 -294 -24 -52 0 -65 16 -20 26 15 3 47 15 72 26 25 11 59 26 75 32 17
7 46 20 65 29 34 15 36 14 62 -11 15 -15 29 -36 31 -47z m-423 -130 c0 -42 5
-60 20 -75 24 -24 40 -83 45 -174 l5 -68 -28 7 c-15 4 -52 13 -82 20 -30 7
-93 24 -140 38 -47 14 -107 30 -135 36 -204 42 -327 81 -255 81 11 0 82 23
157 51 76 28 158 57 183 64 25 8 83 28 130 44 47 17 88 31 93 31 4 0 7 -25 7
-55z m483 30 c10 -14 15 -29 12 -35 -7 -12 -64 -18 -223 -24 l-134 -5 39 34
c33 29 46 34 93 36 30 0 82 5 115 9 33 4 65 8 70 8 6 1 18 -10 28 -23z m-2225
-11 c2 -1 -9 -19 -25 -38 -25 -33 -28 -34 -31 -16 -2 14 -10 20 -20 18 -12 -2
-18 -17 -22 -48 -4 -40 -8 -45 -30 -45 -34 0 -40 45 -10 77 12 13 29 33 37 45
13 20 21 22 57 17 22 -4 43 -8 44 -10z m1856 7 c17 -7 17 -8 -5 -22 -49 -31
-59 -31 -59 1 0 25 4 30 23 29 12 0 30 -4 41 -8z m-1728 -54 c3 -2 -6 -17 -18
-33 -13 -16 -30 -41 -37 -56 -21 -40 -31 -34 -29 17 1 24 -1 47 -5 52 -13 12
-27 -19 -27 -61 0 -31 -3 -37 -16 -32 -9 3 -22 6 -30 6 -13 0 -12 5 3 31 10
18 32 47 49 65 28 30 33 32 68 24 21 -4 40 -10 42 -13z m614 -27 c31 -8 40
-14 30 -20 -16 -8 -130 -19 -130 -12 0 2 8 17 17 33 11 18 21 25 27 20 6 -5
31 -14 56 -21z m1518 -4 c9 -20 7 -27 -7 -40 -10 -9 -28 -18 -39 -21 -39 -7
-282 -18 -282 -12 0 3 26 19 57 36 42 23 79 34 141 41 47 5 87 12 90 15 12 12
29 4 40 -19z m-2022 4 l35 0 -27 -50 c-21 -38 -33 -50 -51 -50 -18 0 -23 5
-23 25 0 14 -4 25 -10 25 -5 0 -12 -11 -16 -25 -4 -18 -13 -25 -31 -25 -28 0
-26 4 25 68 22 26 41 41 49 37 8 -3 30 -5 49 -5z m1722 -15 c4 -4 -107 -55
-119 -55 -5 0 -9 15 -9 34 l0 35 63 -6 c34 -2 63 -6 65 -8z m-1388 -40 c-25
-30 2 -40 77 -27 37 6 93 14 123 17 30 3 61 10 69 14 14 9 80 -9 130 -36 l26
-13 -27 0 c-63 0 -72 -23 -38 -91 30 -59 47 -60 92 -8 21 24 38 50 38 57 0 19
-34 14 -53 -8 -18 -21 -37 -19 -37 4 0 8 20 19 44 26 39 11 54 9 157 -20 63
-17 128 -34 144 -36 132 -24 487 -123 501 -140 6 -8 16 -14 21 -14 5 0 14 -16
20 -35 l11 -35 -106 -1 c-305 -4 -807 3 -822 11 -9 5 -25 9 -36 9 -49 -2 -250
24 -261 33 -7 6 -23 8 -35 5 -18 -5 -28 1 -47 29 -13 19 -24 40 -23 47 1 7 4
54 6 105 4 81 15 122 33 122 3 0 0 -7 -7 -15z m-794 -35 c26 0 14 -38 -20 -64
-19 -14 -39 -26 -45 -26 -7 0 -11 22 -11 51 l0 52 31 -7 c17 -3 38 -6 45 -6z
m2137 3 c-28 -11 -10 -23 35 -24 26 0 41 -3 35 -6 -7 -2 -13 -9 -13 -14 0 -14
28 -10 37 6 6 10 37 16 113 21 117 7 122 5 133 -53 l7 -33 -58 -1 c-60 -2 -91
-2 -234 2 -74 2 -85 4 -70 15 9 7 23 14 30 14 6 0 12 7 12 15 0 18 -23 10 -68
-23 -42 -32 -58 -19 -34 28 16 32 53 61 77 59 6 0 4 -3 -2 -6z m-1425 -97 l-3
-34 -43 38 -43 38 43 24 43 24 3 -28 c2 -15 2 -43 0 -62z m1899 68 c5 -15 -43
-64 -62 -64 -8 0 -15 8 -15 18 0 9 -3 28 -7 40 -5 23 -4 24 37 20 24 -2 45 -8
47 -14z m-463 -109 l39 -6 -35 -24 c-40 -27 -73 -24 -82 8 -7 26 0 36 22 32 9
-2 34 -7 56 -10z m337 -5 c5 0 9 -14 9 -31 0 -30 -1 -31 -32 -25 -18 4 -49 10
-68 13 -19 3 -38 11 -42 16 -4 7 -21 6 -50 -1 -23 -6 -65 -13 -93 -17 -46 -5
-48 -4 -33 12 13 12 46 18 139 25 67 4 125 10 128 13 3 3 11 3 19 0 7 -3 18
-5 23 -5z m-71 -86 c68 -7 68 -7 75 -41 3 -18 3 -38 0 -43 -11 -17 -42 -11
-48 10 -3 11 -12 20 -20 20 -8 0 -43 13 -77 29 -43 21 -56 31 -43 34 10 3 24
3 31 1 8 -2 44 -7 82 -10z m-270 -23 c0 -17 -18 -21 -24 -6 -3 9 0 15 9 15 8
0 15 -4 15 -9z m168 -31 c17 -11 32 -22 32 -25 0 -3 -51 -5 -112 -5 l-113 0
40 24 c50 30 109 33 153 6z m-1373 -46 l50 -7 -50 -17 c-103 -35 -95 -36 -95
5 0 33 2 37 23 32 12 -3 45 -9 72 -13z"/>
</g>
</svg>
