<?xml version="1.0" standalone="no"?>
<!DOCTYPE svg PUBLIC "-//W3C//DTD SVG 20010904//EN"
 "http://www.w3.org/TR/2001/REC-SVG-20010904/DTD/svg10.dtd">
<svg version="1.0" xmlns="http://www.w3.org/2000/svg"
 width="220.000000pt" height="148.000000pt" viewBox="0 0 220.000000 148.000000"
 preserveAspectRatio="xMidYMid meet">
<metadata>
Created by potrace 1.16, written by Peter Selinger 2001-2019
</metadata>
<g transform="translate(0.000000,148.000000) scale(0.100000,-0.100000)"
fill="#000000" stroke="none">
<path d="M985 1291 c-11 -4 -96 -14 -190 -21 -93 -7 -197 -16 -230 -20 -61 -9
-201 -6 -266 5 -27 4 -39 1 -53 -14 -9 -10 -25 -17 -34 -15 -9 2 -24 0 -32 -5
-12 -8 -12 -13 4 -30 16 -18 17 -23 3 -78 -18 -71 -22 -336 -6 -396 29 -108
86 -189 162 -228 25 -13 72 -23 140 -28 98 -8 360 -6 422 3 17 3 77 5 135 6
58 1 123 5 145 10 22 5 133 12 247 16 l206 7 42 -44 c57 -59 110 -129 110
-144 0 -7 16 -20 35 -29 19 -9 38 -24 43 -33 5 -8 15 -14 23 -11 11 4 15 36
18 139 5 210 1 362 -10 375 -16 19 -68 24 -284 28 -270 5 -470 32 -483 65 -3
9 -17 27 -30 41 -48 51 -55 77 -49 180 3 52 13 119 22 149 9 29 14 59 11 67
-6 15 -67 18 -101 5z m7 -137 c-21 -95 -21 -203 0 -236 9 -13 37 -44 62 -69
38 -37 60 -50 119 -67 39 -11 92 -23 117 -26 25 -4 63 -9 85 -13 22 -3 117 -6
210 -4 94 1 194 -1 223 -5 l52 -5 1 -52 c0 -29 4 -60 8 -71 4 -10 4 -50 -1
-90 -4 -39 -10 -96 -13 -126 -7 -62 -12 -71 -21 -44 -9 25 -68 98 -122 152
l-44 44 -210 -7 c-115 -4 -222 -9 -236 -11 -15 -3 -128 -8 -252 -12 -233 -7
-505 11 -575 38 -45 17 -82 58 -111 120 -21 46 -28 83 -39 225 -11 129 -12
185 -3 234 l10 63 97 -5 c93 -5 194 2 351 24 41 6 107 13 145 15 39 2 90 7
115 12 25 4 46 5 48 2 1 -4 -6 -42 -16 -86z"/>
</g>
</svg>
