<?xml version="1.0" standalone="no"?>
<!DOCTYPE svg PUBLIC "-//W3C//DTD SVG 20010904//EN"
 "http://www.w3.org/TR/2001/REC-SVG-20010904/DTD/svg10.dtd">
<svg version="1.0" xmlns="http://www.w3.org/2000/svg"
 width="100.000000pt" height="124.000000pt" viewBox="0 0 100.000000 124.000000"
 preserveAspectRatio="xMidYMid meet">
<metadata>
Created by potrace 1.16, written by Peter Selinger 2001-2019
</metadata>
<g transform="translate(0.000000,124.000000) scale(0.100000,-0.100000)"
fill="#000000" stroke="none">
<path d="M548 1018 c-63 -75 -139 -151 -270 -274 -82 -77 -98 -97 -98 -122 0
-16 6 -35 14 -41 7 -6 19 -33 26 -59 7 -26 19 -54 27 -63 7 -8 13 -21 13 -28
0 -18 45 -76 116 -151 33 -36 69 -80 78 -98 16 -31 18 -32 44 -18 15 8 49 38
76 68 26 29 76 82 111 118 54 57 175 224 175 243 0 33 -98 -47 -138 -113 -29
-47 -124 -150 -133 -144 -17 10 -2 123 38 279 8 33 17 74 19 90 3 17 12 49 20
73 12 33 19 40 29 32 7 -6 16 -23 20 -38 11 -45 85 -172 101 -172 28 0 21 49
-16 107 -16 25 -32 59 -36 77 -3 17 -10 36 -14 41 -4 6 -10 22 -13 36 -4 14
-25 59 -48 100 -23 41 -47 84 -53 96 -6 13 -16 23 -23 23 -6 0 -36 -28 -65
-62z m66 -47 c8 -15 14 -42 14 -59 -1 -35 19 -65 38 -58 7 3 15 -2 18 -10 3
-9 -1 -14 -14 -14 -24 0 -25 -1 -50 -91 -47 -169 -72 -304 -71 -385 1 -76 -1
-82 -28 -108 l-29 -27 -31 46 c-37 56 -39 95 -10 210 29 114 46 211 54 296 9
94 32 177 59 210 24 30 30 29 50 -10z m-145 -183 c-5 -42 -23 -145 -41 -230
-17 -84 -31 -166 -30 -183 l1 -30 -35 40 c-36 41 -61 87 -90 168 -9 27 -26 59
-36 72 -18 23 -18 23 24 56 24 19 66 54 93 80 64 59 120 108 121 106 1 -1 -3
-36 -7 -79z"/>
</g>
</svg>
