<?xml version="1.0" standalone="no"?>
<!DOCTYPE svg PUBLIC "-//W3C//DTD SVG 20010904//EN"
 "http://www.w3.org/TR/2001/REC-SVG-20010904/DTD/svg10.dtd">
<svg version="1.0" xmlns="http://www.w3.org/2000/svg"
 width="229.000000pt" height="127.000000pt" viewBox="0 0 229.000000 127.000000"
 preserveAspectRatio="xMidYMid meet">
<metadata>
Created by potrace 1.16, written by Peter Selinger 2001-2019
</metadata>
<g transform="translate(0.000000,127.000000) scale(0.100000,-0.100000)"
fill="#000000" stroke="none">
<path d="M1700 1141 c0 -24 -54 -154 -78 -189 -39 -55 -99 -159 -129 -225 -18
-37 -34 -67 -38 -67 -9 0 -49 24 -71 43 -27 23 -70 48 -159 93 -38 19 -95 50
-125 68 -30 17 -75 40 -100 50 -25 10 -54 26 -65 36 -23 20 -125 73 -125 64 0
-6 -18 10 -72 64 -21 20 -38 40 -38 45 0 15 -36 6 -48 -13 -7 -11 -19 -20 -28
-20 -19 0 -94 -40 -94 -50 0 -4 -10 -12 -23 -17 -13 -6 -45 -30 -72 -53 -42
-36 -154 -116 -204 -145 -9 -5 -40 -25 -69 -43 -44 -29 -50 -37 -42 -53 6 -10
25 -26 43 -35 41 -22 65 -46 111 -116 40 -62 112 -127 214 -195 37 -25 75 -58
85 -74 11 -16 24 -29 30 -29 12 0 64 41 152 120 61 55 87 70 119 70 14 0 114
27 222 61 109 33 207 58 218 55 12 -3 32 1 45 8 23 13 27 11 53 -25 15 -21 28
-42 28 -45 0 -3 8 -18 18 -32 10 -15 26 -52 36 -82 10 -30 24 -69 32 -87 8
-17 14 -35 14 -40 0 -5 11 -24 24 -42 14 -19 28 -46 31 -62 8 -33 30 -55 40
-39 11 18 35 -9 35 -41 0 -57 33 -26 110 106 113 191 146 242 194 292 27 29
52 53 57 53 11 0 89 53 89 61 0 4 -12 11 -27 17 -49 17 -67 45 -92 138 -12 49
-32 109 -44 133 -17 39 -18 48 -7 75 7 17 21 55 31 85 10 30 24 60 30 68 20
24 1 26 -43 6 -51 -24 -105 -38 -133 -34 -28 4 -79 31 -88 47 -12 21 -47 17
-47 -5z m97 -85 c-5 -15 -115 -91 -122 -84 -4 3 6 33 21 66 l26 60 39 -16 c22
-8 38 -20 36 -26z m156 12 c-3 -18 -11 -45 -18 -60 l-11 -27 -28 35 c-35 44
-29 53 61 83 1 1 0 -14 -4 -31z m-1227 -37 c25 -22 64 -49 87 -60 49 -24 33
-27 -37 -6 -27 8 -68 15 -91 15 -23 0 -45 3 -48 6 -6 7 32 84 41 84 2 0 24
-18 48 -39z m-106 21 c0 -5 -9 -27 -20 -50 -11 -22 -20 -45 -20 -51 0 -17 20
-23 35 -11 16 13 71 10 205 -10 81 -12 177 -52 320 -130 19 -11 60 -31 90 -45
30 -14 76 -40 102 -58 25 -17 54 -37 64 -43 15 -9 -1 -16 -87 -38 -114 -30
-139 -37 -214 -61 -161 -52 -241 -69 -399 -86 -77 -8 -105 -7 -123 2 -30 16
-37 7 -34 -42 l2 -41 -38 30 c-56 45 -137 132 -161 173 -28 46 -28 106 -2 193
22 71 49 104 139 171 30 22 70 55 90 73 35 32 51 39 51 24z m1234 -41 c21 -23
56 -91 56 -108 0 -7 4 -21 10 -31 21 -38 60 -175 55 -193 -4 -12 -1 -19 7 -19
14 -1 85 -58 77 -63 -2 -1 -25 -20 -51 -41 -27 -20 -48 -35 -48 -32 0 3 11 22
25 42 24 35 25 54 4 54 -5 0 -13 -8 -16 -17 -4 -10 -44 -80 -90 -157 -46 -76
-83 -142 -83 -146 0 -4 -7 -13 -15 -20 -8 -6 -30 -41 -50 -76 l-36 -63 -20 20
c-11 11 -26 18 -32 16 -12 -4 -56 75 -77 139 -12 35 -11 39 13 60 24 21 97
125 97 139 0 3 11 22 24 41 l23 35 28 -33 c15 -18 32 -43 38 -55 6 -13 14 -23
18 -23 19 0 15 20 -17 80 -37 70 -40 80 -21 80 12 0 81 43 130 80 l28 22 -39
42 c-22 23 -41 49 -44 56 -6 20 -28 2 -28 -23 0 -34 -46 -112 -65 -111 -12 2
-13 -1 -5 -11 7 -8 7 -16 2 -19 -6 -3 -15 1 -22 9 -7 8 -9 15 -5 15 5 0 1 8
-7 18 -23 27 -27 58 -16 123 7 32 9 62 6 65 -4 3 -35 -25 -70 -62 -35 -37 -69
-65 -76 -63 -17 6 75 159 96 159 10 0 51 20 92 44 41 25 78 45 81 45 3 1 14
-7 23 -18z m-1534 -176 c-7 -8 -20 -44 -29 -79 l-17 -63 -42 38 -43 38 23 14
c44 27 113 66 117 67 2 0 -2 -7 -9 -15z m1346 -51 c-3 -8 -19 -14 -37 -14
l-32 0 34 33 c30 30 34 32 37 15 2 -11 1 -26 -2 -34z m203 -33 c9 -16 3 -23
-40 -50 -28 -17 -49 -28 -47 -24 16 37 55 93 65 93 7 0 17 -8 22 -19z m-264
-9 c47 -5 67 -20 95 -74 21 -40 21 -40 1 -71 -11 -18 -40 -69 -66 -114 -26
-45 -56 -89 -65 -98 -17 -15 -19 -13 -35 30 -23 60 -24 104 -3 195 22 94 22
93 -2 85 -23 -7 -23 -8 -9 34 9 24 15 30 28 25 9 -4 34 -9 56 -12z m-117 -146
l-12 -46 -28 27 c-32 31 -35 43 -10 43 10 0 27 6 38 14 10 8 20 13 22 12 1 -2
-3 -24 -10 -50z m-757 -180 c-38 -40 -99 -79 -115 -73 -8 3 -19 21 -24 39 -13
45 2 54 90 57 l73 2 -24 -25z"/>
</g>
</svg>
