<?xml version="1.0" standalone="no"?>
<!DOCTYPE svg PUBLIC "-//W3C//DTD SVG 20010904//EN"
 "http://www.w3.org/TR/2001/REC-SVG-20010904/DTD/svg10.dtd">
<svg version="1.0" xmlns="http://www.w3.org/2000/svg"
 width="235.000000pt" height="125.000000pt" viewBox="0 0 235.000000 125.000000"
 preserveAspectRatio="xMidYMid meet">
<metadata>
Created by potrace 1.16, written by Peter Selinger 2001-2019
</metadata>
<g transform="translate(0.000000,125.000000) scale(0.100000,-0.100000)"
fill="#000000" stroke="none">
<path d="M600 1026 c-28 -65 -257 -285 -373 -359 -61 -39 -86 -72 -68 -90 8
-8 19 -3 38 16 28 26 28 26 183 25 85 -1 251 2 367 7 l213 8 47 -49 c27 -27
62 -65 78 -85 17 -19 47 -49 68 -67 20 -17 57 -56 81 -85 l44 -54 -20 -32
c-11 -17 -17 -38 -14 -46 9 -23 35 -18 48 10 6 14 15 25 19 25 4 0 22 30 40
68 18 37 46 83 61 102 16 19 33 40 38 47 6 7 10 16 10 21 0 5 13 22 30 38 16
16 30 33 30 38 0 5 11 24 25 42 27 35 18 33 230 48 33 3 94 8 136 11 91 9 119
-2 112 -40 -3 -15 -1 -25 6 -25 7 0 11 -28 11 -80 0 -78 6 -93 28 -67 12 15
20 192 10 203 -4 3 2 24 12 45 29 57 70 171 64 181 -10 16 -111 9 -134 -10
-21 -17 -22 -20 -7 -43 37 -58 30 -131 -14 -135 -13 -1 -112 -5 -219 -9 -107
-3 -238 -8 -290 -10 -52 -2 -187 -7 -300 -11 l-205 -6 -40 39 c-22 22 -56 59
-74 84 -19 24 -51 62 -71 84 -27 29 -123 159 -134 182 -1 1 -12 4 -26 8 -21 5
-27 1 -40 -29z m83 -94 c23 -31 62 -79 87 -106 25 -27 64 -70 87 -95 24 -25
43 -50 43 -56 0 -10 -486 -17 -567 -8 l-42 5 72 58 c40 32 118 103 172 159 55
55 101 101 103 101 1 0 21 -26 45 -58z m1406 -99 c-1 -10 -4 -29 -8 -43 -7
-25 -7 -25 -19 9 -6 18 -9 37 -6 42 9 16 34 10 33 -8z m-598 -230 c-70 -86
-143 -180 -168 -220 l-27 -42 -96 98 c-52 53 -110 116 -128 139 l-34 42 79 1
c43 1 119 4 168 8 50 3 123 7 164 9 l73 3 -31 -38z"/>
</g>
</svg>
