<?xml version="1.0" standalone="no"?>
<!DOCTYPE svg PUBLIC "-//W3C//DTD SVG 20010904//EN"
 "http://www.w3.org/TR/2001/REC-SVG-20010904/DTD/svg10.dtd">
<svg version="1.0" xmlns="http://www.w3.org/2000/svg"
 width="122.000000pt" height="119.000000pt" viewBox="0 0 122.000000 119.000000"
 preserveAspectRatio="xMidYMid meet">
<metadata>
Created by potrace 1.16, written by Peter Selinger 2001-2019
</metadata>
<g transform="translate(0.000000,119.000000) scale(0.100000,-0.100000)"
fill="#000000" stroke="none">
<path d="M508 988 c-21 -11 -38 -25 -38 -32 0 -33 -185 -154 -274 -180 -22 -6
-41 -16 -43 -22 -2 -6 17 -34 42 -62 48 -53 52 -66 33 -107 -17 -37 -1 -49 49
-36 22 6 64 13 93 16 30 3 64 12 77 20 14 9 33 13 48 9 25 -6 24 -6 -13 -31
-20 -14 -50 -36 -67 -48 -34 -25 -123 -57 -136 -49 -11 7 -69 -24 -69 -37 0
-5 10 -23 22 -40 l23 -30 -33 -59 c-17 -32 -32 -64 -32 -70 0 -14 50 -9 118
10 31 9 50 10 65 2 105 -49 139 -68 158 -88 13 -13 31 -24 41 -24 24 0 23 12
-3 28 -20 13 -21 19 -15 100 21 274 36 333 84 331 15 0 36 -4 46 -8 17 -7 13
-12 -29 -44 -26 -20 -52 -37 -56 -37 -14 0 -10 -17 5 -23 8 -3 42 16 76 42 67
52 117 66 275 77 149 9 195 18 195 35 0 13 -190 10 -302 -5 -79 -10 -109 -10
-158 0 -34 7 -64 15 -67 18 -3 3 -1 34 6 68 6 35 14 78 16 95 2 18 9 43 16 55
16 32 71 101 86 111 7 4 13 15 13 22 0 17 -76 20 -150 5 -27 -5 -46 -5 -48 1
-5 12 -11 11 -54 -13z m159 -50 c-19 -24 -45 -65 -58 -92 l-22 -49 -13 49 c-7
27 -13 59 -14 72 0 12 -5 22 -11 22 -8 0 -8 4 1 14 11 14 43 20 118 24 l33 2
-34 -42z m-142 -71 c10 -54 -2 -237 -15 -237 -4 0 -24 7 -43 15 -20 8 -50 15
-66 15 -24 0 -66 12 -89 26 -8 4 49 113 74 141 35 39 117 103 124 96 3 -2 10
-28 15 -56z m-226 -109 c-18 -36 -51 -59 -66 -46 -22 18 -14 35 25 51 50 21
55 21 41 -5z m280 -73 c-5 -13 -8 0 -7 40 0 56 1 58 8 20 4 -22 4 -49 -1 -60z
m-255 -50 c11 -8 34 -16 50 -16 19 -1 9 -5 -28 -11 -32 -5 -60 -8 -62 -6 -5 6
8 48 15 48 3 0 15 -7 25 -15z m195 -157 c-1 -35 -4 -107 -8 -161 l-6 -99 -27
21 c-14 12 -33 21 -41 21 -8 0 -17 7 -21 15 -3 8 -11 15 -19 15 -7 0 -24 11
-37 25 -13 14 -31 25 -39 26 -11 0 -9 5 9 17 63 44 170 146 170 163 0 11 5 19
10 19 6 0 9 -27 9 -62z m-151 -45 c-18 -16 -34 -31 -36 -35 -7 -16 -42 -7 -52
12 -9 17 -8 20 12 21 13 0 39 6 58 13 52 20 55 19 18 -11z m-54 -129 c24 -9
19 -21 -11 -27 -16 -3 -36 -9 -46 -12 -16 -7 -16 -5 -6 19 12 26 32 32 63 20z"/>
</g>
</svg>
