<?xml version="1.0" standalone="no"?>
<!DOCTYPE svg PUBLIC "-//W3C//DTD SVG 20010904//EN"
 "http://www.w3.org/TR/2001/REC-SVG-20010904/DTD/svg10.dtd">
<svg version="1.0" xmlns="http://www.w3.org/2000/svg"
 width="88.000000pt" height="111.000000pt" viewBox="0 0 88.000000 111.000000"
 preserveAspectRatio="xMidYMid meet">
<metadata>
Created by potrace 1.16, written by Peter Selinger 2001-2019
</metadata>
<g transform="translate(0.000000,111.000000) scale(0.100000,-0.100000)"
fill="#000000" stroke="none">
<path d="M541 971 c-11 -11 -21 -26 -21 -32 0 -6 -12 -25 -26 -43 -45 -54
-290 -302 -333 -336 -40 -33 -53 -60 -28 -60 19 -1 140 -180 198 -293 12 -23
34 -44 54 -54 21 -10 35 -24 35 -35 0 -37 37 -16 100 59 73 86 145 167 175
197 33 34 95 119 95 131 0 6 -15 29 -33 51 -46 55 -67 90 -67 112 0 11 -7 36
-15 55 -8 20 -15 47 -15 60 0 13 -14 51 -32 83 -17 32 -39 74 -48 93 l-17 34
-22 -22z m27 -121 c13 -16 25 -44 28 -62 3 -18 13 -63 21 -100 l15 -66 -27
-39 c-37 -51 -116 -124 -129 -120 -5 2 -13 15 -17 29 -9 35 -76 135 -101 153
-20 13 -17 18 68 110 49 52 92 102 97 110 12 22 21 19 45 -15z m-211 -306 c23
-32 47 -76 54 -97 7 -20 18 -42 26 -48 22 -19 71 10 150 88 l74 74 38 -28 39
-28 -44 -57 c-25 -31 -70 -83 -100 -115 -31 -32 -74 -82 -96 -111 -22 -28 -42
-52 -44 -52 -19 0 -124 145 -124 171 0 14 -51 101 -86 148 l-34 44 41 39 c22
22 46 37 52 35 7 -2 31 -30 54 -63z"/>
</g>
</svg>
