<?xml version="1.0" standalone="no"?>
<!DOCTYPE svg PUBLIC "-//W3C//DTD SVG 20010904//EN"
 "http://www.w3.org/TR/2001/REC-SVG-20010904/DTD/svg10.dtd">
<svg version="1.0" xmlns="http://www.w3.org/2000/svg"
 width="202.000000pt" height="162.000000pt" viewBox="0 0 202.000000 162.000000"
 preserveAspectRatio="xMidYMid meet">
<metadata>
Created by potrace 1.16, written by Peter Selinger 2001-2019
</metadata>
<g transform="translate(0.000000,162.000000) scale(0.100000,-0.100000)"
fill="#000000" stroke="none">
<path d="M734 1372 c-12 -8 -49 -118 -59 -175 -10 -60 6 -70 68 -46 29 12 81
30 117 41 36 10 72 21 80 24 8 3 1 -9 -15 -27 -41 -45 -206 -208 -241 -239
-16 -14 -50 -48 -75 -75 -25 -28 -91 -81 -147 -119 -55 -38 -103 -75 -106 -81
-10 -27 107 -101 275 -175 52 -23 121 -54 154 -70 33 -15 67 -31 75 -34 8 -3
47 -23 85 -44 l70 -38 5 -106 c3 -61 10 -112 16 -119 18 -17 49 -2 80 39 33
43 85 92 99 92 6 0 36 14 67 30 53 28 133 46 243 55 22 1 70 7 106 13 37 5 86
6 110 2 48 -9 59 -6 59 15 0 8 -15 17 -34 21 -19 3 -37 12 -40 20 -3 7 -28 25
-55 39 -28 14 -56 35 -62 47 -15 29 -21 33 -101 64 -48 18 -72 23 -84 16 -13
-7 -27 -4 -53 13 -20 12 -56 31 -81 42 -53 23 -146 82 -177 112 -12 12 -28 21
-35 21 -8 0 -24 7 -37 16 l-23 16 25 17 c23 15 89 68 226 183 31 27 81 67 111
90 30 23 82 68 115 99 71 66 136 99 183 92 20 -3 32 -1 32 6 0 19 -48 31 -126
31 -41 0 -118 7 -172 16 -53 8 -104 16 -112 16 -8 0 -85 -1 -170 -2 -173 -1
-300 16 -353 49 -18 11 -37 17 -43 13z m153 -91 c57 -8 82 -21 41 -21 -14 0
-49 -8 -79 -18 -105 -36 -109 -36 -109 -3 0 55 8 64 54 56 23 -4 65 -10 93
-14z m616 -38 l38 -6 -43 -44 c-24 -25 -72 -68 -108 -96 -36 -28 -91 -73 -122
-100 -32 -27 -58 -45 -58 -41 0 13 153 164 166 164 6 0 19 11 28 25 9 14 35
37 57 52 23 15 36 29 30 31 -17 6 -71 -18 -72 -32 -1 -6 -4 0 -8 14 -4 15 -15
26 -28 28 -20 3 -21 0 -16 -33 5 -30 1 -41 -22 -66 -16 -16 -32 -29 -37 -29
-10 0 -10 40 -1 105 l6 47 76 -6 c42 -4 93 -10 114 -13z m-310 -5 c-13 -17
-41 -112 -49 -164 -3 -22 -1 -58 5 -80 l11 -39 -52 -49 -53 -49 -8 49 c-6 32
-5 60 2 80 6 17 10 64 9 104 -3 61 0 74 16 86 11 8 23 14 26 14 4 0 1 -43 -6
-96 -12 -94 -12 -123 1 -144 15 -24 25 -6 25 48 0 31 7 95 16 142 9 47 16 91
17 98 0 6 11 12 25 12 18 0 22 -3 15 -12z m72 -85 c0 -94 -1 -99 -27 -121 -15
-13 -30 -24 -34 -25 -13 -4 -10 55 7 142 10 47 15 89 13 93 -3 5 5 8 18 8 23
0 24 -2 23 -97z m-195 60 c-19 -15 -55 -46 -80 -69 -25 -22 -72 -61 -105 -87
-33 -25 -76 -58 -95 -73 -19 -15 12 21 70 80 173 177 171 176 210 176 l35 0
-35 -27z m-90 -189 c-6 -38 -10 -114 -9 -169 1 -100 -11 -219 -30 -278 -6 -18
-13 -60 -17 -94 -6 -55 -8 -61 -24 -53 -26 14 -30 32 -19 102 22 151 38 281
49 398 9 103 15 129 32 147 12 13 23 21 25 19 2 -2 -1 -34 -7 -72z m47 4 c-2
-13 -4 -3 -4 22 0 25 2 35 4 23 2 -13 2 -33 0 -45z m-111 -5 c-3 -10 -14 -97
-26 -193 -29 -249 -43 -348 -51 -361 -5 -8 -12 -8 -25 -1 -25 14 -30 152 -9
249 9 40 21 110 26 155 5 46 11 92 13 102 1 11 18 30 36 43 41 28 43 28 36 6z
m-111 -100 c-18 -63 -55 -309 -55 -367 0 -49 -5 -54 -36 -32 -16 13 -19 26
-18 99 1 47 7 107 13 133 6 27 13 63 15 79 6 49 16 68 55 102 20 18 37 33 38
33 0 0 -5 -21 -12 -47z m-124 -76 c-8 -22 -15 -74 -26 -211 -3 -33 -6 -60 -8
-62 -1 -2 -17 8 -35 22 -37 30 -41 63 -16 138 16 46 15 64 -4 52 -13 -8 -42
-93 -42 -123 l0 -23 -33 21 -32 22 50 52 c48 51 142 135 150 135 3 0 1 -10 -4
-23z m335 -145 c8 -5 9 -25 3 -66 -4 -33 -9 -95 -10 -138 -3 -88 -8 -102 -35
-96 -16 3 -19 12 -18 68 1 36 9 94 18 129 9 34 16 74 16 87 0 25 7 29 26 16z
m-550 -53 c55 -44 55 -45 -1 -14 -62 35 -74 45 -53 45 8 0 33 -14 54 -31z
m617 17 c16 -12 17 -22 7 -107 -16 -147 -20 -169 -36 -169 -11 0 -14 15 -14
63 0 87 12 227 19 227 3 0 14 -7 24 -14z m74 -47 c7 -7 8 -21 2 -42 -5 -18 -9
-50 -9 -73 0 -23 -3 -62 -6 -88 -5 -36 -11 -46 -25 -46 -23 0 -23 3 -4 140 8
58 15 108 15 113 0 10 14 9 27 -4z m67 -35 c10 -4 14 -15 11 -32 -7 -38 -13
-110 -14 -154 -1 -34 -4 -38 -27 -38 l-25 0 6 88 c6 74 20 142 30 142 2 0 10
-3 19 -6z m77 -35 c11 -5 17 -13 15 -17 -3 -5 -7 -32 -10 -62 -10 -93 -16
-110 -37 -110 -19 0 -20 11 -10 188 1 15 16 15 42 1z m74 -43 c18 -13 19 -18
7 -60 -6 -26 -12 -58 -12 -72 0 -21 -4 -25 -22 -22 -22 3 -23 7 -21 73 4 99
10 109 48 81z m81 -41 c4 -8 3 -35 0 -60 -6 -39 -10 -45 -32 -45 -27 0 -29 10
-13 76 11 44 34 59 45 29z m64 -24 c-5 -11 -10 -33 -10 -50 0 -21 -5 -31 -15
-31 -18 0 -19 12 -4 63 6 21 16 37 25 37 11 0 12 -4 4 -19z m125 -67 l40 -12
-68 0 c-37 0 -70 5 -73 10 -3 4 -3 22 1 38 l7 30 26 -27 c15 -14 45 -32 67
-39z m-495 -86 c22 13 70 17 70 5 0 -5 -32 -29 -70 -55 l-70 -47 0 44 c0 31 5
47 17 54 12 6 20 6 25 -2 6 -9 12 -9 28 1z"/>
</g>
</svg>
