<?xml version="1.0" standalone="no"?>
<!DOCTYPE svg PUBLIC "-//W3C//DTD SVG 20010904//EN"
 "http://www.w3.org/TR/2001/REC-SVG-20010904/DTD/svg10.dtd">
<svg version="1.0" xmlns="http://www.w3.org/2000/svg"
 width="337.000000pt" height="177.000000pt" viewBox="0 0 337.000000 177.000000"
 preserveAspectRatio="xMidYMid meet">
<metadata>
Created by potrace 1.16, written by Peter Selinger 2001-2019
</metadata>
<g transform="translate(0.000000,177.000000) scale(0.100000,-0.100000)"
fill="#000000" stroke="none">
<path d="M2257 1713 c-4 -3 -7 -15 -7 -25 0 -10 -6 -18 -14 -18 -12 0 -30 -31
-29 -50 0 -3 -4 -16 -9 -30 -13 -33 -11 -160 2 -195 8 -21 15 -26 32 -22 20 6
21 4 14 -76 -4 -45 -13 -111 -21 -147 -8 -36 -17 -83 -19 -105 -3 -22 -5 -42
-5 -44 -2 -12 -51 45 -51 59 0 9 -16 31 -35 50 -19 18 -41 48 -50 67 -15 32
-15 36 0 60 14 20 17 53 19 155 1 71 -1 131 -4 133 -3 1 -28 -5 -56 -14 -38
-12 -71 -35 -133 -93 -46 -43 -87 -78 -93 -78 -5 0 -30 -14 -55 -31 -41 -28
-54 -32 -141 -36 -131 -7 -162 -6 -271 6 -82 10 -105 17 -186 60 -51 27 -97
46 -103 42 -23 -14 -31 -64 -30 -203 0 -79 -3 -159 -6 -178 -3 -19 -8 -46 -10
-60 -11 -72 -19 -110 -32 -155 -13 -44 -13 -51 1 -61 8 -6 15 -25 15 -41 0
-33 -18 -134 -24 -141 -5 -4 -106 69 -135 97 -9 9 -34 28 -55 42 -53 37 -216
188 -216 201 0 5 23 35 50 66 72 80 149 195 156 231 7 32 21 37 72 22 22 -6
19 -11 -52 -80 -42 -40 -76 -76 -76 -80 -1 -3 -30 -35 -65 -71 -36 -35 -65
-68 -65 -73 0 -15 53 29 160 135 58 57 128 122 155 145 l50 42 -37 15 c-21 9
-47 16 -59 16 -11 0 -33 7 -49 16 -17 11 -37 14 -53 11 -23 -6 -24 -11 -22
-54 5 -62 -28 -124 -133 -251 -45 -54 -56 -58 -57 -19 0 14 -7 23 -21 25 -14
2 -49 -27 -124 -103 -58 -58 -126 -120 -152 -138 -43 -29 -62 -57 -39 -57 17
0 110 76 197 159 47 46 86 82 88 80 2 -2 13 -23 26 -46 28 -51 110 -123 302
-266 130 -95 148 -112 148 -137 l0 -28 -90 29 c-50 16 -102 29 -116 29 -14 0
-22 4 -19 10 3 5 0 7 -8 4 -16 -6 -97 15 -197 51 -36 13 -105 35 -155 50 -49
14 -107 33 -128 41 -52 19 -89 19 -85 -2 2 -11 16 -18 38 -20 19 -2 116 -30
215 -64 182 -62 287 -92 360 -105 60 -10 364 -114 410 -139 51 -29 135 -60
142 -53 11 12 -11 29 -75 58 -37 17 -78 36 -92 43 -14 7 -37 16 -52 20 -31 7
-38 26 -10 26 9 0 36 15 58 33 23 18 59 40 80 49 70 29 218 58 295 58 l76 0
33 48 c66 93 122 152 144 152 32 0 126 -103 126 -139 0 -5 -15 -13 -32 -16
-18 -4 -52 -16 -76 -27 -28 -12 -54 -17 -72 -13 -31 7 -78 -12 -64 -25 5 -4
32 -20 59 -35 28 -15 82 -60 122 -101 79 -83 104 -89 101 -25 -1 46 19 85 80
152 26 30 69 82 95 116 67 88 70 88 65 3 -3 -46 -10 -75 -19 -81 -11 -6 -11
-11 -1 -21 18 -18 16 -78 -3 -78 -8 0 -15 7 -15 15 0 25 -27 17 -34 -10 -6
-23 -27 -241 -30 -309 -1 -40 16 -42 57 -7 46 41 189 109 195 93 2 -7 11 -12
19 -12 9 0 13 6 10 14 -5 11 11 16 71 21 42 4 86 12 96 17 10 6 89 12 174 15
147 4 157 3 185 -17 l29 -22 96 22 c93 22 124 26 185 29 15 1 27 6 27 12 0 12
-95 8 -220 -7 -50 -6 -54 -6 -41 9 12 15 10 17 -13 17 -14 0 -26 -5 -26 -10 0
-35 -222 154 -447 379 -41 41 -43 47 -38 85 4 23 8 57 10 76 2 19 11 78 19
130 l15 95 88 88 c48 49 96 96 107 105 10 9 57 51 104 92 48 41 116 103 153
137 69 64 110 80 183 71 16 -2 31 2 33 9 4 12 -50 46 -59 37 -7 -6 -524 -5
-558 2 -174 32 -240 50 -240 65 0 11 -24 12 -33 2z m26 -67 c12 -8 45 -17 72
-21 78 -10 105 -16 105 -23 0 -4 -24 -22 -52 -39 -29 -17 -78 -54 -108 -82
-30 -28 -56 -51 -59 -51 -3 0 1 74 12 213 2 21 2 21 30 3z m577 -58 c0 -5 8
-8 18 -8 46 0 44 -3 -178 -210 -74 -69 -150 -142 -169 -162 -57 -63 -58 -58
-24 127 35 192 43 229 53 239 19 19 300 31 300 14z m109 8 c-2 -2 -15 -9 -29
-15 -24 -11 -24 -11 -6 3 16 13 49 24 35 12z m-454 -38 c-19 -56 -75 -317 -79
-371 l-5 -68 -83 -89 c-52 -56 -85 -84 -89 -77 -13 22 33 445 52 482 9 18 131
110 169 127 24 11 40 9 35 -4z m-479 -105 c-14 -48 -14 -107 0 -135 10 -18 13
-40 9 -59 -8 -36 -21 -37 -29 -4 -4 15 -16 27 -32 31 -33 8 -41 -1 -21 -24 10
-10 17 -25 17 -33 -1 -9 -9 -4 -23 12 -31 37 -58 49 -111 49 -50 0 -59 12 -23
31 21 12 75 55 127 104 23 22 63 43 83 44 5 1 6 -7 3 -16z m-919 -155 c31 -24
123 -48 182 -48 78 0 71 -11 -23 -34 -75 -18 -133 -44 -185 -84 l-34 -25 6 39
c4 21 7 69 7 106 0 60 2 67 18 61 9 -3 22 -10 29 -15z m672 -43 c14 -15 -206
-208 -306 -270 -61 -36 -77 -55 -50 -55 30 0 189 116 300 219 45 42 47 30 12
-63 -27 -71 -31 -110 -16 -149 11 -29 4 -42 -16 -26 -9 8 -40 9 -96 5 -126
-11 -165 -8 -260 20 -81 24 -155 64 -241 131 l-26 21 33 24 c74 56 266 113
350 105 29 -2 75 1 103 9 28 7 60 10 72 7 13 -3 32 3 49 17 20 16 36 20 57 16
16 -4 32 -9 35 -11z m131 -44 c0 -5 24 -23 53 -39 85 -48 86 -52 18 -105 -33
-25 -79 -56 -103 -68 -24 -12 -57 -32 -74 -45 -17 -13 -33 -24 -36 -24 -22 0
-5 152 20 183 5 7 13 28 17 47 3 19 11 50 16 67 l10 33 40 -20 c21 -11 39 -24
39 -29z m184 -155 c7 -18 31 -49 53 -69 30 -28 39 -45 41 -73 3 -35 -4 -43
-116 -155 -66 -66 -124 -119 -130 -119 -6 0 -14 9 -17 20 -4 11 -35 55 -69 97
l-63 76 21 25 c42 51 152 162 160 162 4 0 22 16 40 35 42 44 62 44 80 1z
m-929 -88 c33 -20 77 -41 98 -48 20 -6 35 -16 32 -20 -3 -5 -12 -7 -20 -4 -8
3 -64 -17 -126 -45 -102 -47 -158 -63 -145 -43 2 4 7 32 10 62 3 30 11 83 18
117 l11 61 31 -22 c17 -13 58 -39 91 -58z m1241 25 c-5 -84 -19 -173 -27 -179
-10 -6 -89 73 -89 89 0 9 107 137 115 137 2 0 2 -21 1 -47z m-581 -86 c-25
-26 -52 -47 -61 -47 -15 0 -15 2 2 21 10 12 17 24 16 27 -4 6 80 54 85 48 2
-1 -17 -24 -42 -49z m-155 -25 c0 -11 -152 -77 -200 -88 -19 -4 -45 -6 -57 -5
-43 5 -24 -34 58 -117 55 -57 76 -84 66 -88 -16 -6 -96 1 -152 15 -22 5 -56
12 -75 16 -58 13 -173 72 -212 110 -21 20 -38 39 -38 41 0 11 187 92 230 99
25 5 113 8 197 6 99 -1 153 1 158 8 7 13 25 15 25 3z m701 -157 c-1 -22 -9
-82 -17 -133 -8 -51 -15 -122 -15 -158 -1 -35 -2 -64 -4 -64 -1 0 -22 7 -46
15 -52 19 -91 53 -84 74 2 9 7 76 10 150 3 74 8 137 10 141 2 4 7 31 10 61 4
29 11 56 16 60 6 3 36 -19 67 -50 51 -51 56 -59 53 -96z m-657 113 c24 -34 20
-47 -37 -107 -29 -31 -63 -69 -76 -86 -20 -27 -24 -28 -32 -12 -6 9 -32 43
-60 74 l-50 57 48 16 c26 9 77 30 113 47 80 38 76 38 94 11z m435 -95 c-58
-66 -91 -103 -166 -183 -44 -47 -85 -95 -91 -107 -12 -22 -13 -21 -56 23 -24
24 -49 44 -55 44 -6 0 -11 5 -11 10 0 6 6 10 13 10 7 0 32 9 55 20 44 22 87
26 97 10 3 -5 13 -10 22 -10 11 0 14 7 10 23 -4 18 4 29 46 59 29 21 72 58 97
83 49 48 78 61 39 18z m-1058 -64 c26 -26 140 -77 205 -93 58 -13 58 -14 31
-25 -16 -6 -37 -11 -48 -11 -11 0 -47 -11 -81 -25 -61 -25 -171 -37 -196 -22
-6 4 -8 17 -6 30 3 12 8 63 11 114 l6 92 31 -22 c17 -12 38 -29 47 -38z m1376
-6 c21 -21 83 -78 137 -128 117 -108 196 -188 191 -193 -5 -5 -202 -3 -240 3
-16 2 -63 7 -103 11 l-73 7 6 76 c5 76 24 225 31 249 5 17 7 16 51 -25z m-317
-280 c0 -33 17 -49 37 -37 14 9 29 6 71 -14 l53 -25 -49 -26 c-27 -14 -68 -36
-90 -48 -23 -13 -43 -23 -44 -23 -2 0 -1 28 3 63 3 34 4 77 3 95 -2 17 1 32 7
32 5 0 9 -8 9 -17z"/>
</g>
</svg>
