<?xml version="1.0" standalone="no"?>
<!DOCTYPE svg PUBLIC "-//W3C//DTD SVG 20010904//EN"
 "http://www.w3.org/TR/2001/REC-SVG-20010904/DTD/svg10.dtd">
<svg version="1.0" xmlns="http://www.w3.org/2000/svg"
 width="201.000000pt" height="152.000000pt" viewBox="0 0 201.000000 152.000000"
 preserveAspectRatio="xMidYMid meet">
<metadata>
Created by potrace 1.16, written by Peter Selinger 2001-2019
</metadata>
<g transform="translate(0.000000,152.000000) scale(0.100000,-0.100000)"
fill="#000000" stroke="none">
<path d="M1490 1445 c-186 -28 -329 -57 -390 -80 -25 -9 -76 -26 -115 -39
-127 -41 -268 -97 -395 -156 -69 -32 -152 -68 -185 -80 -33 -13 -81 -33 -107
-46 -27 -13 -48 -22 -48 -18 0 11 -72 -72 -87 -100 -11 -21 -13 -43 -8 -85 6
-45 13 -61 40 -87 64 -60 259 -189 431 -284 35 -19 109 -63 165 -97 56 -35
107 -63 113 -63 6 0 19 -7 30 -15 41 -31 487 -187 646 -225 25 -6 55 -14 68
-17 51 -12 -2 69 -58 88 -16 6 -30 17 -30 24 0 7 -13 21 -29 32 -33 21 -114
108 -193 208 -30 39 -123 141 -207 228 -83 86 -151 160 -151 164 0 9 44 47
155 133 53 41 138 109 187 150 154 127 222 180 250 193 15 7 37 25 49 41 l22
28 -29 -6 c-24 -5 -35 -2 -53 18 l-23 25 37 7 c43 8 98 -11 74 -27 -34 -22 14
-6 70 23 66 34 76 53 34 69 -50 19 -108 18 -263 -6z m-7 -86 c7 -5 27 -19 46
-31 l35 -20 -24 -18 c-23 -17 -23 -17 -57 26 -18 24 -33 46 -33 49 0 9 21 5
33 -6z m-55 -34 c17 -20 32 -40 32 -45 0 -5 9 -12 21 -15 15 -5 18 -10 10 -18
-7 -7 -24 5 -56 41 -32 35 -55 52 -71 52 -29 0 -31 -15 -4 -30 32 -17 82 -92
70 -104 -7 -7 -32 12 -80 59 -38 38 -66 73 -62 77 4 3 18 8 32 11 61 11 75 7
108 -28z m-121 -69 l83 -85 -56 -47 -55 -47 -16 24 c-22 32 -73 80 -151 142
-66 52 -67 57 -10 71 22 5 25 3 21 -14 -3 -11 0 -20 6 -20 6 0 37 -26 69 -58
69 -71 109 -99 123 -85 9 9 -103 129 -156 167 -16 12 -17 15 -5 19 8 3 22 8
30 10 29 10 36 6 117 -77z m-189 -72 c90 -80 134 -135 113 -142 -6 -2 -35 -21
-63 -43 -29 -21 -56 -39 -61 -39 -4 0 -67 58 -138 128 l-130 128 33 16 34 16
59 -57 c33 -32 86 -85 118 -119 36 -38 64 -59 73 -55 8 3 14 10 14 17 0 13
-137 157 -188 198 l-34 28 23 8 c48 18 54 19 57 7 2 -7 42 -48 90 -91z m-188
-115 c71 -72 130 -135 130 -140 0 -10 -111 -90 -122 -87 -17 6 -298 282 -298
294 0 6 12 15 27 19 23 5 34 -1 87 -57 56 -57 176 -165 201 -180 6 -4 17 -3
25 2 10 6 -4 24 -55 72 -37 34 -86 81 -109 104 -23 22 -54 49 -70 59 l-29 19
29 13 c16 7 35 12 41 13 7 0 71 -59 143 -131z m-370 14 c0 -31 -14 -41 -47
-36 -18 3 -33 8 -33 12 0 7 58 39 73 40 4 1 7 -7 7 -16z m146 -114 c146 -132
178 -167 165 -183 -7 -8 -23 -18 -34 -22 -12 -4 -58 -33 -103 -65 -44 -33 -83
-59 -86 -59 -3 0 -5 30 -4 68 1 37 -3 125 -8 196 l-9 130 25 -20 c13 -10 37
-31 54 -45z m-173 34 c10 -2 16 -10 14 -16 -4 -13 -237 -20 -237 -7 0 8 36 27
65 34 22 5 129 -2 158 -11z m20 -70 c6 -4 11 -32 5 -33 -2 -1 -81 -4 -177 -7
l-173 -6 11 21 c12 22 39 30 131 36 59 3 190 -3 203 -11z m8 -84 c17 -27 1
-34 -87 -40 -166 -12 -254 -11 -254 5 0 8 -3 21 -6 30 -5 14 5 16 67 17 41 1
101 4 134 8 71 7 134 -1 146 -20z m7 -78 c8 -5 12 -17 10 -27 -3 -17 -14 -19
-98 -21 -52 -1 -107 -3 -122 -4 -16 -1 -38 8 -57 24 l-31 26 28 4 c53 8 257 7
270 -2z m402 -55 c0 -5 -140 -119 -200 -163 -55 -40 -56 -40 -93 -26 -20 8
-37 19 -37 24 0 8 185 159 195 159 3 0 22 11 42 25 l36 24 29 -20 c15 -11 28
-22 28 -23z m-411 -36 c13 -8 11 -10 -9 -11 -14 -1 -47 -3 -74 -5 -56 -4 -98
12 -75 28 16 10 135 2 158 -12z m470 -26 c17 -14 31 -29 31 -33 0 -4 -15 -14
-32 -23 -18 -9 -68 -48 -111 -87 -42 -39 -82 -71 -88 -71 -21 0 -69 31 -69 45
0 8 19 28 43 44 23 17 71 57 107 90 36 33 70 60 77 61 6 0 25 -12 42 -26z
m-459 -34 c0 -23 -9 -25 -46 -8 l-28 13 30 6 c16 4 32 7 37 8 4 0 7 -8 7 -19z
m548 -42 c9 -9 -3 -25 -50 -67 -124 -113 -173 -140 -185 -105 -6 17 94 122
147 155 49 31 70 35 88 17z m60 -69 c2 -10 -33 -46 -88 -93 -69 -59 -95 -76
-110 -71 -28 9 -25 20 16 52 19 15 60 52 90 81 55 52 86 63 92 31z m56 -58
c16 -17 14 -20 -37 -59 -29 -23 -63 -53 -77 -67 -24 -25 -54 -33 -65 -16 -5 9
142 161 156 161 3 0 13 -8 23 -19z m60 -67 c4 -10 -4 -23 -21 -37 -16 -12 -43
-36 -61 -54 -29 -28 -37 -31 -55 -22 -19 11 -17 15 40 70 63 61 86 71 97 43z
m43 -59 c6 -18 -62 -84 -88 -85 -32 0 -28 14 15 57 47 46 63 52 73 28z m75
-72 c34 -33 36 -37 20 -49 -23 -18 -52 -17 -52 1 0 7 8 18 18 24 12 7 14 13 6
21 -8 8 -19 4 -42 -14 -28 -24 -62 -27 -62 -6 0 8 60 60 70 60 2 0 21 -17 42
-37z m78 -78 c11 -13 8 -15 -14 -15 -16 0 -26 5 -26 15 0 8 6 15 14 15 7 0 19
-7 26 -15z"/>
</g>
</svg>
