<?xml version="1.0" standalone="no"?>
<!DOCTYPE svg PUBLIC "-//W3C//DTD SVG 20010904//EN"
 "http://www.w3.org/TR/2001/REC-SVG-20010904/DTD/svg10.dtd">
<svg version="1.0" xmlns="http://www.w3.org/2000/svg"
 width="344.000000pt" height="224.000000pt" viewBox="0 0 344.000000 224.000000"
 preserveAspectRatio="xMidYMid meet">
<metadata>
Created by potrace 1.16, written by Peter Selinger 2001-2019
</metadata>
<g transform="translate(0.000000,224.000000) scale(0.100000,-0.100000)"
fill="#000000" stroke="none">
<path d="M1287 2078 c-18 -10 -23 -53 -7 -63 13 -8 5 -128 -13 -196 -8 -29
-22 -88 -32 -129 -10 -41 -24 -85 -31 -97 -8 -12 -14 -33 -14 -46 0 -26 -36
-107 -48 -107 -5 0 -26 13 -48 29 -21 15 -57 35 -78 42 -21 8 -45 24 -54 37
-8 12 -33 30 -56 41 -22 10 -63 36 -90 59 -26 22 -65 48 -84 59 -65 33 -136
80 -161 107 -14 14 -30 26 -36 26 -7 0 -20 9 -30 20 -10 11 -13 20 -7 20 18 0
14 37 -4 44 -50 19 -234 -163 -239 -238 -1 -11 -7 -22 -13 -24 -20 -6 -13 -31
11 -36 12 -3 51 -8 87 -11 94 -9 431 -92 465 -115 14 -10 123 -47 172 -60 23
-6 56 -22 73 -36 26 -22 31 -23 36 -10 3 9 0 24 -7 33 -12 14 -10 14 14 -2
l28 -18 -42 -43 c-23 -23 -39 -46 -35 -52 3 -5 -6 -20 -20 -33 -48 -44 -58
-76 -59 -186 l0 -102 -43 -40 c-23 -22 -42 -45 -42 -51 0 -23 -264 -271 -344
-324 -118 -77 -234 -136 -266 -136 -15 0 -33 -6 -39 -14 -9 -10 -4 -19 23 -40
19 -14 39 -26 44 -26 5 0 16 -7 23 -17 8 -9 33 -25 56 -35 24 -10 43 -23 43
-27 0 -5 11 -16 25 -25 24 -16 27 -16 55 1 17 9 30 25 30 35 0 13 103 156 129
178 35 30 137 164 168 220 10 19 36 61 58 93 51 76 71 75 98 -8 11 -33 35 -84
54 -113 18 -29 33 -54 33 -57 0 -3 22 -37 49 -77 27 -40 56 -90 64 -111 9 -20
20 -37 24 -37 4 0 9 -16 10 -36 1 -19 9 -46 17 -59 10 -16 14 -35 10 -54 -6
-27 -4 -31 15 -31 11 0 21 5 21 11 0 6 11 25 25 43 14 18 25 38 25 45 0 20 35
82 112 199 40 61 88 136 107 166 46 76 55 82 87 61 15 -10 63 -52 108 -94 45
-42 106 -95 137 -118 31 -23 72 -66 92 -96 39 -58 52 -67 98 -67 16 0 29 -4
29 -9 0 -5 26 -38 58 -74 31 -36 64 -76 73 -88 21 -31 41 -17 34 25 -6 30 0
37 122 154 70 67 176 168 235 225 59 57 142 129 185 161 43 31 105 77 138 101
33 25 112 82 175 129 63 46 124 94 135 106 73 81 129 126 149 123 18 -4 22 0
20 24 0 17 -6 28 -15 28 -14 1 -53 22 -113 61 -18 12 -59 36 -92 54 -32 17
-61 35 -64 39 -3 3 -34 21 -70 40 -82 43 -189 121 -196 143 -3 9 -13 20 -24
23 -10 3 -36 20 -57 36 -21 17 -54 39 -74 49 -19 10 -67 45 -106 77 -103 85
-141 114 -203 154 -30 20 -75 55 -100 78 -25 23 -60 51 -78 63 -38 23 -52 16
-82 -41 -10 -20 -31 -48 -46 -62 -16 -14 -45 -43 -64 -65 -58 -64 -268 -243
-326 -277 -8 -4 -10 46 -9 173 1 158 3 181 19 199 25 27 14 56 -17 46 -12 -4
-51 -11 -87 -17 -36 -6 -69 -14 -73 -18 -5 -4 -25 1 -45 11 -20 11 -50 19 -67
19 -17 0 -48 9 -68 19 -55 28 -62 30 -80 19z m970 -68 c9 -16 20 -30 23 -30
10 0 255 -175 279 -199 11 -11 25 -21 29 -21 5 0 18 -9 30 -21 12 -11 46 -32
75 -47 59 -30 146 -93 147 -105 0 -5 -19 4 -42 18 -24 15 -59 33 -78 41 -55
22 -107 52 -215 122 -55 36 -152 90 -215 120 -63 30 -116 55 -118 57 -8 8 40
95 53 95 7 0 22 -13 32 -30z m-785 -36 c15 -4 12 -13 -21 -62 -21 -31 -47 -72
-57 -91 -11 -18 -23 -41 -29 -50 -18 -29 -107 -151 -110 -151 -5 0 9 55 60
230 8 25 16 65 19 90 3 25 5 47 5 49 1 4 108 -8 133 -15z m193 -180 c0 -182
-1 -197 -19 -210 -11 -8 -24 -10 -28 -6 -5 5 -15 65 -23 133 -7 68 -18 135
-23 149 -6 14 -11 46 -13 70 -4 44 -4 45 31 51 82 15 75 33 75 -187z m-135
101 c0 -19 4 -44 9 -57 5 -13 15 -63 21 -113 7 -49 21 -123 31 -163 17 -64 25
-137 12 -104 -2 7 -25 21 -50 33 -63 29 -227 24 -293 -8 -24 -12 -46 -21 -48
-18 -2 2 9 24 25 50 15 25 33 54 38 63 34 56 72 112 97 142 15 19 28 40 28 46
0 6 9 19 20 29 11 10 20 22 20 27 0 5 8 21 19 36 10 15 26 40 35 55 21 34 36
27 36 -18z m599 14 c18 11 46 3 101 -29 25 -14 63 -33 86 -41 34 -13 107 -54
199 -112 93 -58 127 -77 138 -77 12 0 60 -27 253 -142 53 -32 100 -58 105 -58
20 0 7 -20 -13 -21 -13 0 -32 -3 -43 -5 -38 -8 -250 -8 -360 0 -198 14 -216
10 -208 -56 3 -24 9 -48 14 -53 8 -10 2 -89 -21 -275 -7 -52 -12 -112 -12
-132 1 -42 -3 -45 -37 -22 -40 28 -51 -9 -36 -121 1 -11 3 -30 4 -43 2 -35 24
-36 79 -3 29 17 77 37 108 45 31 8 64 22 73 30 10 9 27 16 38 16 11 0 36 6 54
13 19 8 65 15 103 16 62 2 68 1 57 -13 -8 -9 -20 -16 -27 -16 -8 0 -14 -4 -14
-9 0 -10 -130 -95 -220 -144 -30 -17 -77 -45 -104 -64 -26 -18 -56 -33 -66
-33 -10 0 -52 -23 -93 -50 -41 -28 -77 -50 -80 -50 -3 0 -29 -16 -58 -35 -41
-27 -56 -32 -71 -24 -33 18 -112 102 -147 157 -19 30 -39 59 -45 65 -6 7 -18
26 -26 42 -8 17 -40 66 -71 110 -116 167 -150 241 -119 260 9 5 24 36 46 93
l9 23 27 -20 c51 -40 70 -23 83 75 10 75 10 75 48 56 30 -15 157 -126 157
-138 0 -2 -18 -16 -40 -30 -22 -15 -40 -32 -40 -38 1 -15 108 -79 120 -71 5 3
10 17 10 30 0 86 121 280 182 292 20 4 28 11 26 23 -3 19 38 71 69 88 10 6 14
14 10 18 -4 4 -27 -11 -50 -34 -24 -23 -48 -42 -54 -42 -6 0 -21 16 -33 36
-12 19 -32 41 -44 49 -26 17 -51 116 -40 159 4 17 3 27 -2 25 -10 -4 -167
-168 -232 -242 -49 -55 -56 -49 -49 43 3 44 2 80 -3 80 -4 0 -23 -17 -41 -38
-19 -21 -51 -51 -71 -66 l-38 -28 0 31 c0 24 14 46 64 101 85 92 184 215 210
260 47 80 101 148 111 140 6 -5 17 -5 24 -1z m-1625 -84 c30 -19 56 -38 58
-43 3 -9 174 -122 184 -122 3 0 30 -20 61 -45 30 -25 60 -45 67 -45 6 0 27
-13 46 -29 19 -15 59 -41 88 -56 28 -15 52 -28 52 -30 0 -6 -160 44 -220 69
-93 39 -211 76 -242 76 -15 0 -69 9 -120 19 -51 11 -118 23 -148 28 l-55 8 22
20 c19 18 74 87 127 159 10 14 20 26 22 26 2 0 28 -16 58 -35z m1436 -74 c-5
-11 -14 -22 -19 -26 -6 -3 -53 -57 -107 -121 -100 -120 -118 -129 -112 -58 3
34 9 42 68 82 36 24 90 66 120 93 30 26 56 48 58 49 1 0 -2 -9 -8 -19z m176
-209 c-3 -5 1 -21 9 -36 8 -15 11 -26 7 -24 -4 3 -22 10 -40 17 -32 13 -32 14
-16 32 17 18 50 27 40 11z m-444 -69 c2 -20 -1 -38 -9 -45 -10 -8 -13 -7 -13
3 -1 8 -5 33 -9 56 -7 38 -7 40 10 30 9 -6 19 -26 21 -44z m423 -22 c24 -16
52 -32 62 -35 11 -4 35 -27 53 -52 l33 -46 -34 -27 c-19 -14 -39 -33 -46 -41
-7 -8 -29 -34 -49 -58 l-37 -43 -71 69 c-39 38 -84 72 -99 76 l-28 7 48 56
c48 57 113 123 121 123 2 0 23 -13 47 -29z m-543 -19 c20 -12 39 -29 42 -37 3
-8 14 -15 25 -15 16 0 21 -9 27 -45 3 -25 10 -45 15 -45 14 0 10 -52 -6 -84
-8 -15 -15 -36 -15 -45 -1 -44 -53 -158 -92 -202 -61 -68 -255 -78 -403 -19
-42 16 -63 37 -84 86 -41 93 -45 187 -9 231 26 33 63 62 80 63 9 0 24 13 35
29 50 79 127 111 259 107 73 -1 97 -6 126 -24z m286 -70 l-3 -28 -43 18 -43
19 43 36 43 36 3 -26 c2 -15 2 -39 0 -55z m1307 -1 c28 -17 66 -39 85 -50 19
-10 52 -33 73 -49 21 -17 43 -33 50 -35 7 -3 -12 -27 -43 -56 -88 -84 -131
-116 -205 -155 -38 -21 -101 -60 -139 -88 l-69 -50 6 109 c8 135 24 222 48
249 11 11 19 34 19 51 0 17 14 56 32 87 l32 55 30 -18 c17 -11 54 -33 81 -50z
m-1460 -6 c5 -34 4 -37 -6 -20 -14 22 -21 81 -9 68 5 -4 11 -26 15 -48z m803
42 c8 -9 2 -39 -21 -106 l-32 -94 -7 59 c-4 33 -10 78 -14 101 -6 40 -5 42 23
46 15 2 31 5 34 6 4 0 11 -5 17 -12z m199 -7 c18 -5 59 -6 90 -3 73 7 71 7
114 -2 23 -4 39 -3 43 4 9 14 46 14 46 0 0 -6 -9 -22 -20 -36 -11 -14 -20 -37
-21 -52 0 -20 -4 -15 -16 22 -16 48 -29 59 -40 32 -4 -13 -16 -14 -63 -9 -62
7 -100 -3 -64 -17 10 -4 36 -8 56 -8 59 -1 88 -17 88 -46 0 -16 -4 -24 -11
-20 -16 11 -117 7 -137 -4 -20 -12 -15 -13 58 -12 61 2 74 -4 84 -36 7 -21 5
-21 -67 -16 -50 4 -76 2 -81 -6 -5 -7 7 -11 36 -12 58 -1 92 -12 95 -29 6 -30
-13 -41 -70 -41 -32 -1 -59 -5 -62 -9 -7 -12 39 -21 73 -14 26 5 32 2 45 -25
l15 -31 -63 3 c-43 1 -68 -2 -77 -11 -11 -11 -7 -13 22 -8 51 9 94 -6 98 -33
3 -21 1 -22 -54 -18 -61 5 -94 0 -94 -14 0 -4 32 -8 71 -8 77 0 95 -8 85 -39
-8 -25 -22 -29 -131 -31 -50 -1 -133 -6 -185 -11 -160 -16 -150 -19 -147 47 3
52 5 58 32 70 17 6 56 12 88 13 34 0 57 4 57 11 0 12 -124 8 -152 -5 -14 -6
-18 -4 -18 13 0 31 42 44 123 38 47 -3 67 -1 64 7 -2 7 -38 12 -91 14 l-87 3
2 54 2 53 43 12 c27 8 65 10 103 5 41 -5 61 -3 61 4 0 6 -12 13 -27 17 -16 3
-35 8 -43 10 -8 2 -31 0 -51 -5 -34 -8 -35 -7 -31 15 4 23 8 24 82 24 43 0 85
3 94 6 34 13 4 20 -73 17 -61 -3 -81 0 -81 9 1 31 28 102 45 114 18 13 75 11
142 -6z m-885 -73 l28 -14 -28 -25 c-56 -50 -72 -43 -72 33 0 42 4 43 72 6z
m-2 -91 c0 -13 -3 -32 -6 -41 -6 -14 -8 -14 -25 1 -24 21 -24 33 -1 50 25 19
32 17 32 -10z m268 -151 c-10 -30 -14 -33 -30 -24 -19 10 -19 11 3 35 31 33
39 30 27 -11z m-332 -310 c47 -59 107 -155 97 -155 -4 0 -28 21 -53 48 -25 26
-66 63 -91 82 -32 24 -44 40 -41 52 2 10 -1 18 -8 18 -6 0 -25 9 -40 20 -16
11 -42 23 -59 26 -44 9 -47 21 -9 37 18 8 46 29 61 46 l28 32 38 -78 c21 -43
56 -100 77 -128z m-646 122 c8 -3 -12 -5 -45 -6 -33 0 -69 4 -80 8 -19 8 -18
10 14 40 l35 33 30 -35 c17 -19 38 -37 46 -40z m75 -64 c-4 -21 -7 -92 -6
-157 2 -119 2 -120 -17 -95 -10 13 -27 42 -38 64 -11 22 -32 63 -48 91 -15 29
-28 64 -29 80 -2 29 -1 30 137 53 4 0 5 -16 1 -36z m244 -60 c-10 -49 -23 -99
-29 -113 -5 -14 -14 -43 -19 -65 -48 -199 -70 -270 -81 -270 -8 0 -18 24 -26
62 -7 34 -17 70 -22 80 -5 10 -12 36 -15 58 -8 50 -11 311 -4 322 3 5 53 10
110 11 l105 2 -19 -87z m1027 51 c41 5 44 4 35 -13 -6 -10 -31 -24 -56 -31
-25 -7 -48 -17 -51 -21 -14 -23 -24 -4 -24 41 l0 50 25 -16 c19 -12 37 -15 71
-10z m-882 -23 l29 -29 -50 -73 c-27 -41 -74 -111 -103 -157 -29 -45 -56 -85
-60 -87 -8 -5 9 73 35 165 9 30 25 93 37 138 l21 84 31 -6 c17 -4 44 -19 60
-35z m-760 -78 c-38 -69 -73 -117 -154 -209 -80 -92 -150 -182 -159 -206 l-8
-23 -7 22 c-4 12 -26 31 -51 43 -25 12 -45 26 -45 31 0 5 -13 15 -30 24 -16 9
-30 20 -30 25 0 6 53 36 119 69 155 76 219 120 316 214 44 42 81 77 83 77 2 0
-14 -30 -34 -67z m1946 23 c0 -3 -4 -8 -10 -11 -5 -3 -10 -1 -10 4 0 6 5 11
10 11 6 0 10 -2 10 -4z m-85 -74 c-33 -31 -71 -71 -85 -87 -14 -17 -52 -55
-85 -84 -33 -30 -101 -94 -152 -143 -50 -48 -96 -88 -101 -88 -5 0 -22 18 -37
40 -15 22 -31 40 -35 40 -13 0 -21 32 -10 45 5 6 36 25 67 41 64 32 94 54 88
64 -2 4 1 7 8 8 30 2 105 36 137 61 19 15 67 46 105 68 39 21 88 51 110 66 22
14 42 26 45 26 3 0 -22 -25 -55 -57z"/>
<path d="M2573 1323 c-53 -7 -37 -23 22 -23 42 0 55 3 55 15 0 15 -10 16 -77
8z"/>
<path d="M2449 1130 c-18 -14 -20 -19 -8 -20 8 0 19 4 25 9 5 5 31 6 62 1 66
-11 95 -3 61 16 -37 21 -113 17 -140 -6z"/>
<path d="M2460 942 c0 -4 15 -8 34 -8 19 0 32 4 30 8 -3 4 -18 8 -35 8 -16 0
-29 -4 -29 -8z"/>
<path d="M2410 913 c0 -12 47 -23 93 -23 49 0 18 20 -41 27 -33 3 -52 2 -52
-4z"/>
<path d="M2723 914 c-30 -13 -8 -22 57 -23 42 -1 70 3 70 9 0 5 -17 10 -37 10
-21 0 -47 2 -58 5 -11 2 -26 2 -32 -1z"/>
</g>
</svg>
