<?xml version="1.0" standalone="no"?>
<!DOCTYPE svg PUBLIC "-//W3C//DTD SVG 20010904//EN"
 "http://www.w3.org/TR/2001/REC-SVG-20010904/DTD/svg10.dtd">
<svg version="1.0" xmlns="http://www.w3.org/2000/svg"
 width="152.000000pt" height="128.000000pt" viewBox="0 0 152.000000 128.000000"
 preserveAspectRatio="xMidYMid meet">
<metadata>
Created by potrace 1.16, written by Peter Selinger 2001-2019
</metadata>
<g transform="translate(0.000000,128.000000) scale(0.100000,-0.100000)"
fill="#000000" stroke="none">
<path d="M1025 1165 c-33 -19 -70 -35 -83 -35 -12 0 -34 -7 -48 -16 -19 -13
-28 -14 -37 -5 -6 6 -31 11 -55 11 -24 0 -75 5 -114 12 -69 11 -72 11 -90 -11
-10 -13 -18 -33 -18 -45 0 -12 -21 -57 -47 -100 -121 -200 -147 -245 -166
-295 -18 -46 -27 -57 -63 -72 -23 -11 -56 -22 -73 -25 -17 -4 -34 -10 -37 -15
-7 -13 28 -49 48 -49 28 0 92 -44 144 -101 27 -28 67 -62 90 -75 23 -14 67
-54 99 -89 71 -81 112 -112 128 -96 8 8 3 19 -19 43 -17 18 -50 59 -74 92 -24
32 -56 65 -70 74 -14 8 -54 44 -90 78 -73 70 -127 104 -168 105 -19 0 -6 8 48
30 41 16 76 29 77 29 2 0 3 -19 3 -42 0 -52 32 -110 55 -102 17 7 18 17 6 61
-7 22 -5 54 5 100 8 37 14 69 14 70 0 9 -39 0 -58 -13 -19 -13 -15 -1 23 73
59 114 66 123 93 116 16 -4 19 -9 13 -22 -4 -9 -11 -56 -15 -104 -7 -95 3
-133 32 -122 14 5 14 4 -1 -13 -9 -10 -17 -28 -17 -39 0 -11 -4 -33 -9 -49
-14 -43 -19 -120 -9 -138 17 -31 48 -16 121 58 66 67 78 75 129 85 68 14 148
6 148 -16 0 -7 -17 -37 -38 -66 -46 -63 -102 -151 -102 -160 0 -4 -20 -36 -45
-73 -50 -72 -52 -79 -29 -88 25 -10 32 -7 39 15 4 11 12 18 18 16 20 -7 47 13
47 35 0 34 63 149 87 161 13 5 25 18 28 27 6 20 160 163 219 203 23 16 65 39
94 52 54 25 65 47 26 53 -85 12 -181 38 -177 48 2 6 -10 39 -27 73 -17 33 -37
80 -44 103 -12 40 -11 47 16 100 15 32 28 66 28 76 0 10 9 35 20 57 11 22 20
43 20 47 0 17 -37 6 -95 -27z m20 -62 c-8 -43 -34 -103 -45 -103 -4 0 -12 18
-19 40 -6 21 -16 42 -22 46 -8 5 64 48 90 53 2 1 0 -16 -4 -36z m-329 -21 c15
-8 13 -13 -22 -35 -21 -13 -50 -37 -64 -52 -49 -53 -59 -48 -29 13 16 31 31
65 34 75 4 14 12 17 34 14 16 -3 37 -9 47 -15z m198 -60 c11 -26 36 -82 58
-126 21 -43 36 -82 33 -86 -3 -4 -62 -6 -132 -3 -138 6 -164 14 -236 71 l-38
31 23 21 c13 12 34 32 48 45 65 62 118 91 172 92 l53 1 19 -46z m-262 -270
c-20 -14 -40 -30 -44 -36 -9 -13 -10 26 -2 75 l6 36 39 -25 39 -25 -38 -25z
m400 11 c19 -17 26 -49 8 -38 -6 3 -19 4 -30 0 -16 -5 -17 -10 -8 -30 8 -19 5
-32 -18 -74 l-29 -52 -48 7 c-27 3 -88 6 -135 6 -70 0 -97 5 -139 23 -29 13
-53 28 -53 33 0 19 69 77 120 100 46 20 70 24 154 24 54 0 108 3 120 8 31 13
37 12 58 -7z m109 -95 l57 -12 -81 -57 c-45 -31 -97 -71 -116 -88 -19 -17 -36
-31 -37 -31 -4 0 68 152 84 178 17 26 18 26 93 10z m-501 -122 c25 -8 40 -15
33 -15 -7 -1 -30 -20 -53 -43 -39 -41 -40 -41 -40 -16 0 22 10 88 14 88 0 0
21 -7 46 -14z"/>
</g>
</svg>
