<?xml version="1.0" standalone="no"?>
<!DOCTYPE svg PUBLIC "-//W3C//DTD SVG 20010904//EN"
 "http://www.w3.org/TR/2001/REC-SVG-20010904/DTD/svg10.dtd">
<svg version="1.0" xmlns="http://www.w3.org/2000/svg"
 width="153.000000pt" height="137.000000pt" viewBox="0 0 153.000000 137.000000"
 preserveAspectRatio="xMidYMid meet">
<metadata>
Created by potrace 1.16, written by Peter Selinger 2001-2019
</metadata>
<g transform="translate(0.000000,137.000000) scale(0.100000,-0.100000)"
fill="#000000" stroke="none">
<path d="M513 1090 c3 -12 0 -31 -6 -41 -9 -15 -9 -21 1 -28 9 -5 6 -17 -16
-47 -15 -21 -36 -58 -46 -81 -11 -24 -25 -43 -33 -43 -8 0 -35 -20 -61 -43
-26 -24 -76 -61 -112 -82 -36 -21 -82 -49 -102 -62 -21 -13 -44 -23 -52 -23
-36 0 -20 -21 57 -72 76 -51 223 -138 233 -138 2 0 22 -11 44 -25 22 -14 46
-25 55 -25 8 0 32 -15 53 -34 21 -19 50 -38 64 -41 14 -4 42 -25 62 -47 30
-33 36 -47 36 -83 0 -87 45 -59 51 32 2 32 3 95 3 140 l-1 81 36 16 c20 8 61
22 91 31 30 9 80 23 110 31 30 9 62 19 70 24 50 25 151 39 250 35 97 -4 162 5
184 26 5 4 -37 7 -93 6 -74 -1 -101 1 -101 10 0 12 -18 11 -84 -2 -11 -2 -72
2 -135 10 -64 8 -138 15 -165 15 -58 0 -116 19 -116 37 0 7 11 41 25 75 14 34
25 66 25 71 0 5 6 23 14 40 50 117 64 145 90 175 41 47 27 55 -92 53 -62 -1
-103 2 -107 8 -10 17 -46 13 -67 -6 -18 -16 -22 -16 -66 1 -26 10 -60 21 -76
24 -26 4 -28 2 -23 -18z m77 -60 c0 -5 -9 -14 -21 -20 -19 -11 -20 -10 -9 9
11 22 30 29 30 11z m99 -205 c0 -44 3 -182 6 -307 4 -134 3 -228 -3 -228 -5 0
-17 9 -27 20 -10 11 -24 20 -32 20 -8 0 -24 11 -37 25 -13 14 -38 35 -56 48
-27 18 -33 29 -35 62 -1 22 -16 76 -34 120 -25 64 -32 95 -33 155 0 66 3 81
26 115 35 51 76 89 151 137 l60 39 7 -63 c4 -35 7 -99 7 -143z m191 190 c0 -8
-10 -33 -22 -57 -12 -23 -32 -69 -44 -103 -51 -145 -78 -214 -81 -211 -2 2 -5
90 -7 195 l-3 191 79 0 c62 0 78 -3 78 -15z m-498 -317 c3 -60 10 -87 40 -147
28 -55 35 -78 28 -92 -11 -19 -37 -6 -237 119 -75 47 -81 62 -31 78 26 8 155
91 163 104 3 6 12 10 19 10 10 0 15 -21 18 -72z m545 -103 c54 -4 115 -10 133
-14 l34 -7 -29 -11 c-17 -6 -91 -28 -165 -48 -74 -21 -139 -40 -144 -43 -8 -4
-6 23 10 110 6 34 8 36 34 28 15 -4 72 -11 127 -15z"/>
</g>
</svg>
