<?xml version="1.0" standalone="no"?>
<!DOCTYPE svg PUBLIC "-//W3C//DTD SVG 20010904//EN"
 "http://www.w3.org/TR/2001/REC-SVG-20010904/DTD/svg10.dtd">
<svg version="1.0" xmlns="http://www.w3.org/2000/svg"
 width="266.000000pt" height="128.000000pt" viewBox="0 0 266.000000 128.000000"
 preserveAspectRatio="xMidYMid meet">
<metadata>
Created by potrace 1.16, written by Peter Selinger 2001-2019
</metadata>
<g transform="translate(0.000000,128.000000) scale(0.100000,-0.100000)"
fill="#000000" stroke="none">
<path d="M603 1085 c-14 -10 -19 -22 -16 -34 3 -13 -7 -35 -29 -63 -51 -64
-70 -97 -62 -110 4 -7 3 -8 -4 -4 -7 4 -12 2 -12 -4 0 -20 -52 -80 -69 -80
-22 0 -60 -28 -164 -124 -80 -73 -98 -87 -154 -117 -31 -17 -29 -26 7 -27 17
0 50 -10 73 -20 23 -11 53 -22 67 -25 116 -26 153 -37 169 -51 10 -9 21 -16
26 -16 5 0 27 -8 49 -19 23 -10 57 -24 76 -31 19 -7 44 -21 55 -31 22 -18 123
-64 129 -58 2 2 7 50 10 106 8 140 10 146 65 176 27 14 78 48 115 76 69 51
105 63 203 65 61 1 66 -7 48 -100 -8 -43 -15 -95 -15 -114 -1 -46 -1 -87 0
-102 1 -7 -2 -50 -6 -95 -6 -73 -5 -83 11 -89 12 -5 23 0 34 14 17 23 176 92
212 92 12 0 47 7 79 15 32 8 93 17 136 20 44 3 151 10 239 16 88 6 202 8 253
5 94 -7 112 -3 66 14 -22 9 -25 15 -20 36 4 14 11 60 16 102 21 159 55 241
108 254 35 9 43 28 12 28 -11 0 -20 3 -20 6 0 22 101 170 127 188 54 35 44 50
-29 41 -70 -8 -64 -8 -133 -2 -27 3 -55 1 -60 -3 -6 -5 -33 -4 -60 1 -51 10
-129 14 -430 24 -274 8 -284 8 -299 -4 -10 -8 -36 -10 -83 -5 -126 12 -128 12
-129 -16 -1 -14 3 -28 9 -31 12 -8 14 -153 4 -219 l-7 -45 -88 1 c-197 3 -302
25 -302 62 0 20 26 55 103 138 40 42 75 82 79 88 5 10 -33 17 -154 30 -96 10
-168 22 -178 30 -28 24 -37 25 -57 11z m51 -74 c6 -9 1 -13 -76 -82 -52 -45
-59 -43 -27 11 41 69 86 99 103 71z m1045 -12 c-22 -13 -6 -19 55 -21 41 -2
60 2 66 12 7 10 10 11 10 3 0 -7 9 -13 20 -13 24 0 20 -11 -40 -113 -25 -42
-49 -75 -55 -74 -5 2 -12 32 -15 68 -3 35 -11 74 -18 87 -12 22 -36 29 -46 14
-5 -8 19 -44 25 -38 2 3 2 -26 -1 -62 l-5 -67 -105 3 c-126 3 -186 9 -222 24
-33 12 -34 15 -8 48 11 14 20 28 20 33 0 6 40 73 58 97 5 7 179 16 231 11 28
-2 39 -6 30 -12z m-771 -3 c3 -4 -7 -19 -21 -34 -15 -16 -27 -33 -27 -40 0 -7
-4 -12 -9 -12 -15 0 -71 -63 -71 -79 0 -9 -3 -11 -9 -5 -10 11 -31 116 -31
157 l0 30 81 -6 c44 -3 83 -8 87 -11z m462 -5 c0 -4 -3 -11 -7 -15 -5 -4 -8
-11 -8 -15 0 -4 -20 -39 -45 -77 -25 -38 -50 -84 -57 -103 -24 -68 -30 -51
-30 86 l-1 138 74 -3 c41 -2 74 -7 74 -11z m388 12 c-10 -2 -26 -2 -35 0 -10
3 -2 5 17 5 19 0 27 -2 18 -5z m371 -18 c16 -9 31 -75 31 -136 l0 -57 -190 2
c-104 0 -190 2 -190 2 0 6 85 142 97 156 9 10 13 25 9 34 -6 15 5 16 113 11
66 -3 125 -8 130 -12z m-1429 -51 c0 -24 3 -44 8 -44 9 0 8 -218 -2 -248 -4
-13 -9 -83 -11 -155 -2 -73 -4 -142 -4 -155 -1 -19 -4 -21 -20 -10 -10 6 -27
25 -37 42 -10 17 -51 63 -91 103 -40 39 -81 91 -91 115 -28 62 -52 131 -52
148 0 23 71 107 116 137 23 15 70 49 104 75 34 27 66 45 71 42 5 -3 9 -25 9
-50z m1601 -19 c-27 -41 -59 -87 -70 -102 l-20 -28 -2 35 c-1 19 -1 44 0 55 1
11 -5 40 -14 64 -8 24 -15 45 -15 47 0 2 38 4 85 4 l85 0 -49 -75z m-970 -116
c11 -11 26 -18 33 -16 7 3 19 1 27 -3 11 -8 11 -10 -1 -14 -8 -2 -36 -12 -63
-22 -26 -9 -50 -14 -54 -11 -6 6 25 87 34 87 1 0 12 -9 24 -21z m272 -35 l77
-7 -1 -56 c-1 -97 21 -89 -240 -88 l-230 1 6 25 c10 39 19 46 97 71 40 12 96
31 123 41 58 21 65 21 168 13z m545 -8 c8 -8 3 -109 -7 -119 -7 -7 -79 -12
-216 -14 l-205 -2 0 23 c0 13 3 44 6 69 l7 46 46 3 c48 4 364 -2 369 -6z
m-1275 -57 c31 -6 57 -15 57 -19 0 -11 -141 -104 -163 -107 -18 -3 -19 1 -13
44 14 99 16 105 39 99 12 -3 48 -11 80 -17z m-523 -20 c0 -30 49 -120 84 -155
17 -17 32 -38 34 -45 2 -8 17 -27 35 -42 27 -25 19 -22 -57 17 -49 26 -106 51
-125 55 -88 22 -157 43 -163 49 -4 4 17 27 47 51 31 24 52 47 49 53 -4 6 -3 9
2 5 5 -3 22 5 38 18 32 26 56 23 56 -6z m1776 -92 c2 -2 0 -47 -4 -101 l-7
-98 -204 0 c-132 1 -206 5 -211 11 -7 12 9 162 19 173 3 3 67 9 141 13 74 4
136 8 137 9 3 2 127 -4 129 -7z m-721 -17 c-5 -9 -80 -52 -95 -55 -26 -5 -110
-41 -110 -47 0 -17 42 -6 136 36 120 52 129 55 243 62 l91 5 -5 -78 c-2 -43
-5 -84 -5 -91 0 -7 -5 -10 -10 -7 -6 3 -58 8 -118 10 -132 4 -210 12 -282 28
-62 14 -67 24 -55 103 l6 42 105 1 c71 1 103 -2 99 -9z m-115 -185 c14 -3 75
-8 135 -12 61 -3 111 -7 113 -8 2 -1 -41 -13 -95 -25 -54 -12 -133 -36 -175
-53 -43 -17 -80 -28 -84 -25 -3 4 -3 36 1 73 l8 67 36 -6 c20 -3 47 -8 61 -11z"/>
</g>
</svg>
