<?xml version="1.0" standalone="no"?>
<!DOCTYPE svg PUBLIC "-//W3C//DTD SVG 20010904//EN"
 "http://www.w3.org/TR/2001/REC-SVG-20010904/DTD/svg10.dtd">
<svg version="1.0" xmlns="http://www.w3.org/2000/svg"
 width="262.000000pt" height="165.000000pt" viewBox="0 0 262.000000 165.000000"
 preserveAspectRatio="xMidYMid meet">
<metadata>
Created by potrace 1.16, written by Peter Selinger 2001-2019
</metadata>
<g transform="translate(0.000000,165.000000) scale(0.100000,-0.100000)"
fill="#000000" stroke="none">
<path d="M399 1510 c-14 -8 -15 -17 -8 -47 8 -39 47 -146 78 -218 10 -22 25
-60 35 -85 10 -25 26 -64 37 -88 10 -23 19 -56 19 -72 0 -17 4 -38 9 -48 5 -9
15 -30 22 -47 7 -16 15 -34 18 -39 6 -15 -91 1 -169 27 -70 24 -72 24 -95 5
-27 -21 -32 -43 -39 -175 l-5 -93 25 0 c13 0 24 3 24 8 0 7 62 52 72 52 9 0
78 -126 78 -143 0 -19 113 -239 150 -291 16 -23 34 -60 40 -84 12 -48 33 -52
38 -8 2 19 -21 76 -73 181 -41 84 -83 177 -91 207 -9 29 -32 77 -51 106 -19
29 -33 55 -31 56 1 2 26 9 53 16 28 7 55 17 60 21 28 21 239 28 428 14 l137
-10 -23 -35 c-13 -19 -36 -57 -52 -85 -25 -45 -58 -97 -180 -275 -74 -109
-154 -217 -170 -230 -19 -16 -20 -50 -1 -50 8 0 27 19 43 41 15 23 35 49 43
58 8 9 21 29 29 44 8 15 29 45 46 65 17 20 35 44 38 52 22 47 50 80 100 118
32 24 75 69 96 100 36 54 105 123 147 148 23 14 13 28 -13 20 -26 -8 -145
-125 -168 -163 -10 -18 -25 -35 -33 -38 -8 -3 -5 6 7 24 12 16 21 32 21 36 0
4 13 29 29 55 16 27 28 50 25 52 -2 3 5 13 16 23 11 10 20 24 20 32 0 10 28
13 128 14 70 0 138 3 152 5 34 7 260 10 522 7 l217 -3 0 -171 c-1 -94 1 -172
3 -175 3 -2 12 2 22 9 14 10 17 33 20 143 4 132 10 159 48 201 11 12 17 26 14
31 -9 15 47 146 78 183 34 40 29 53 -20 56 -21 1 -74 5 -116 8 -68 6 -79 5
-85 -11 -4 -10 0 -21 10 -29 26 -19 37 -62 35 -136 l-2 -69 -85 -1 c-47 0
-225 -2 -396 -4 -648 -9 -833 -1 -987 42 -25 6 -23 13 20 58 20 23 64 75 97
115 32 41 72 89 87 105 15 17 28 35 28 42 0 6 4 13 8 15 5 2 40 39 78 83 38
44 72 81 76 83 4 2 16 23 28 48 12 24 25 44 28 44 4 -1 32 -7 62 -14 l55 -12
-115 -86 c-114 -85 -158 -124 -148 -133 2 -2 16 5 30 16 33 27 109 82 210 151
43 29 78 59 78 65 0 7 -12 15 -27 18 -16 4 -57 15 -92 26 -50 16 -66 17 -72 7
-4 -6 -5 -16 -3 -20 3 -5 -4 -21 -16 -37 -18 -26 -24 -29 -48 -21 -15 4 -62
11 -105 14 -42 3 -96 10 -120 15 -23 6 -64 12 -92 15 -27 3 -75 11 -105 19
-30 8 -84 18 -120 22 -35 4 -82 14 -104 21 -21 8 -39 14 -40 14 0 0 -8 -5 -17
-10z m211 -80 c0 -8 -103 -70 -116 -70 -6 0 -17 21 -25 48 l-16 47 79 -9 c43
-5 78 -12 78 -16z m87 -21 c15 -6 48 -13 73 -14 25 -2 72 -8 106 -14 33 -6 85
-11 115 -12 30 0 66 -3 82 -5 24 -5 25 -8 15 -23 -25 -36 -104 -127 -160 -186
-31 -33 -80 -88 -108 -123 -29 -35 -58 -66 -66 -69 -8 -3 -30 -28 -51 -55 -34
-47 -37 -49 -50 -32 -8 11 -16 30 -19 44 -3 14 -11 39 -19 55 -7 17 -16 44
-18 60 -6 32 -61 190 -75 215 -5 9 -13 30 -17 48 -6 27 -3 33 17 43 13 5 50
26 83 44 71 41 58 37 92 24z m1611 -405 c29 -6 30 -8 20 -28 -7 -11 -23 -52
-37 -90 -35 -92 -51 -97 -51 -14 0 35 -3 80 -6 101 -6 35 -5 37 18 37 14 0 39
-3 56 -6z m-1775 -174 c48 -7 89 -16 92 -20 5 -8 -18 -19 -110 -49 -33 -10
-77 -26 -97 -35 -21 -9 -40 -16 -43 -16 -7 0 -6 145 1 153 4 3 21 0 38 -7 18
-7 71 -19 119 -26z"/>
</g>
</svg>
