<?xml version="1.0" standalone="no"?>
<!DOCTYPE svg PUBLIC "-//W3C//DTD SVG 20010904//EN"
 "http://www.w3.org/TR/2001/REC-SVG-20010904/DTD/svg10.dtd">
<svg version="1.0" xmlns="http://www.w3.org/2000/svg"
 width="306.000000pt" height="154.000000pt" viewBox="0 0 306.000000 154.000000"
 preserveAspectRatio="xMidYMid meet">
<metadata>
Created by potrace 1.16, written by Peter Selinger 2001-2019
</metadata>
<g transform="translate(0.000000,154.000000) scale(0.100000,-0.100000)"
fill="#000000" stroke="none">
<path d="M699 1298 c-24 -24 -43 -46 -41 -50 6 -21 -202 -351 -263 -415 -49
-53 -80 -69 -203 -108 -65 -20 -98 -55 -52 -55 11 0 20 -4 20 -10 0 -5 6 -10
13 -10 8 0 33 -13 55 -30 23 -16 46 -30 51 -30 5 0 27 -19 48 -42 128 -139
164 -173 215 -209 32 -21 61 -39 66 -39 9 0 151 -125 168 -149 21 -27 60 2 93
67 16 33 41 72 54 88 14 16 41 60 62 97 20 37 41 67 47 67 5 0 33 19 61 43 29
24 78 60 109 82 32 21 65 46 74 57 10 10 20 18 23 18 4 0 6 -26 6 -57 0 -51 3
-58 20 -61 12 -1 42 16 75 43 43 36 169 107 254 144 5 2 5 -32 2 -75 -10 -120
-17 -157 -34 -177 -12 -13 -13 -20 -4 -29 24 -24 51 21 62 102 11 79 17 133
19 163 1 12 10 17 34 17 57 0 60 -7 51 -106 -12 -117 -8 -154 15 -154 16 0 19
14 25 117 4 64 9 120 12 125 6 10 84 11 83 1 0 -5 -8 -49 -18 -98 -20 -105
-13 -155 20 -155 19 0 20 4 15 48 -4 29 1 80 11 132 18 84 18 85 48 85 29 0
30 -2 29 -40 -1 -22 -5 -61 -9 -87 -8 -53 9 -118 30 -118 11 0 13 11 8 49 -3
29 0 64 8 87 7 22 11 54 10 72 -3 34 0 36 58 46 31 6 33 5 27 -19 -3 -13 -9
-74 -12 -134 -6 -98 -4 -111 10 -117 9 -4 18 -5 20 -3 2 2 6 41 10 87 3 46 10
91 16 101 5 10 7 35 3 55 l-6 36 42 0 c45 0 45 0 32 -50 -25 -94 -17 -210 14
-210 12 0 15 16 16 68 1 72 2 84 13 150 7 38 10 42 37 42 17 0 59 7 95 16 78
20 120 11 199 -41 28 -18 77 -45 110 -60 33 -14 70 -36 83 -47 17 -17 25 -19
34 -10 19 19 0 42 -77 89 -80 50 -92 65 -76 100 6 13 11 42 11 63 0 35 5 43
45 72 24 18 44 39 45 46 0 19 -15 15 -48 -13 -17 -14 -36 -25 -43 -25 -8 0
-26 -15 -41 -34 -40 -50 -116 -81 -228 -94 -52 -6 -105 -14 -117 -18 -18 -5
-23 -2 -23 13 0 11 9 29 20 41 11 12 20 27 20 35 0 7 5 18 12 25 6 6 13 22 15
34 2 13 17 42 33 65 41 56 39 67 -7 57 -21 -4 -81 -8 -133 -9 -52 -1 -121 -5
-153 -10 -40 -5 -61 -4 -72 5 -10 8 -31 10 -66 5 -34 -5 -54 -3 -58 4 -5 7
-17 8 -42 1 -19 -6 -73 -7 -125 -4 -68 5 -93 4 -99 -6 -4 -7 -3 -15 2 -19 6
-3 7 -29 4 -62 -4 -30 -3 -71 1 -90 4 -18 5 -47 2 -63 -6 -28 -7 -28 -58 -22
-28 4 -80 22 -116 40 -50 25 -71 31 -89 24 -12 -4 -27 -5 -32 -2 -6 3 -21 -1
-34 -10 -20 -13 -22 -21 -18 -55 7 -51 -11 -61 -70 -36 -23 9 -58 23 -77 30
-19 7 -37 21 -40 32 -3 10 -11 29 -17 43 -24 54 -82 217 -88 246 -7 39 28 139
63 176 15 17 22 33 18 43 -5 15 -14 12 -69 -18 -74 -42 -117 -49 -146 -23 -11
10 -24 15 -29 12 -5 -3 -30 6 -57 19 -27 14 -54 25 -60 25 -7 0 -32 -19 -56
-42z m85 -43 c20 -8 36 -17 36 -19 0 -4 -148 -86 -156 -86 -8 0 48 105 60 112
15 10 19 10 60 -7z m222 -39 c-8 -20 -17 -36 -19 -36 -3 0 -12 11 -21 25 -16
24 -16 25 16 38 18 8 34 13 36 12 2 -2 -4 -19 -12 -39z m-92 -23 c46 -84 160
-343 153 -349 -2 -2 -55 -6 -116 -9 -106 -4 -112 -3 -106 15 3 10 7 27 9 37
12 58 31 113 53 151 13 24 23 46 20 48 -8 9 -192 8 -206 0 -8 -5 -9 -12 -3
-19 6 -7 11 -59 13 -117 3 -89 2 -104 -11 -101 -8 2 -34 6 -57 8 -23 3 -50 14
-59 24 -22 24 -44 24 -44 0 0 -28 22 -41 97 -60 36 -9 68 -21 70 -27 2 -6 -18
-21 -44 -35 -26 -13 -64 -39 -84 -56 l-36 -33 -6 68 c-4 37 -7 92 -7 123 0 30
-6 61 -12 68 -11 10 -10 14 5 22 9 6 17 19 17 29 0 11 4 20 9 20 5 0 14 14 22
31 7 18 22 42 33 53 30 31 226 130 268 135 4 1 14 -11 22 -26z m-50 -151 c-4
-9 -18 -51 -32 -92 -38 -113 -41 -122 -50 -116 -5 3 -10 36 -11 73 -1 37 -4
82 -7 100 -8 44 -2 50 57 52 45 1 50 -1 43 -17z m861 -49 c-21 -50 -25 -52
-25 -11 0 37 6 48 27 48 11 0 10 -7 -2 -37z m145 34 c0 -8 -32 -67 -36 -67 -8
0 1 55 11 62 11 8 25 10 25 5z m-64 -34 c-4 -16 -8 -68 -11 -118 l-5 -90 -37
0 -38 0 -5 49 c-4 41 0 61 28 118 24 51 37 68 53 68 17 0 20 -4 15 -27z m130
-94 c-3 -67 -7 -124 -10 -127 -7 -7 -74 -4 -86 3 -17 10 -11 101 8 141 33 71
57 104 75 104 16 0 17 -10 13 -121z m64 113 c0 -5 -7 -17 -15 -28 -14 -18 -14
-18 -15 9 0 17 5 27 15 27 8 0 15 -4 15 -8z m138 1 c-18 -41 -60 -113 -68
-118 -6 -4 -8 14 -4 51 5 44 4 56 -7 52 -21 -7 -31 -56 -29 -145 l1 -83 -30 0
-29 0 0 63 c0 49 7 74 30 119 29 55 32 57 77 61 25 2 50 4 54 5 5 1 7 -1 5 -5z
m239 -5 c-31 -79 -40 -97 -47 -93 -4 3 -6 19 -5 37 2 18 3 41 4 51 1 11 9 17
27 17 17 0 24 -4 21 -12z m-176 -12 c-7 -8 -17 -55 -23 -104 -6 -50 -14 -95
-17 -101 -4 -5 -25 -13 -47 -16 l-40 -7 1 34 c0 18 10 49 23 68 12 19 22 40
22 46 0 20 60 94 76 94 13 0 14 -3 5 -14z m49 7 c-1 -5 -7 -19 -15 -33 l-14
-25 -1 33 c0 22 5 32 15 32 8 0 15 -3 15 -7z m50 -12 c-5 -11 -11 -48 -11 -83
-2 -95 -10 -122 -37 -126 -47 -7 -53 2 -35 60 17 60 48 124 71 151 20 22 25
22 12 -2z m-1794 -313 c2 -176 5 -214 17 -222 11 -7 37 6 101 49 47 32 88 56
91 54 2 -3 5 -53 6 -112 1 -95 3 -107 18 -107 16 0 19 15 24 116 4 64 12 122
18 130 16 20 70 31 177 38 68 4 92 3 92 -6 0 -14 -130 -236 -169 -288 -14 -19
-37 -59 -51 -88 l-26 -53 -59 67 c-32 37 -91 87 -129 112 -70 45 -183 148
-203 187 -14 26 -5 151 14 188 8 15 13 36 11 46 -2 14 54 101 65 101 1 0 3
-96 3 -212z m2184 148 c-12 -38 -24 -43 -52 -22 -13 10 -15 15 -6 24 7 7 17
12 24 12 6 0 17 7 24 15 19 23 23 11 10 -29z m-1583 -49 l20 -33 -24 -34 c-13
-19 -31 -38 -41 -41 -35 -13 -164 -20 -176 -9 -9 7 -23 7 -45 -1 -18 -6 -35
-9 -38 -5 -3 3 2 33 12 66 l18 59 51 11 c62 12 97 17 158 19 42 1 48 -2 65
-32z m349 12 c12 -11 44 -26 70 -33 l49 -13 -70 -33 c-38 -18 -88 -45 -111
-61 l-41 -28 13 82 c8 45 14 88 14 95 0 20 52 14 76 -9z m-722 -89 c1 -33 -1
-35 -38 -41 -21 -3 -48 -4 -58 -1 -18 4 -18 5 -1 25 23 25 75 58 87 54 5 -2
10 -19 10 -37z m-388 8 c-3 -13 -6 -35 -6 -50 l0 -27 -50 26 c-27 14 -50 29
-50 33 0 6 83 38 104 39 4 1 6 -9 2 -21z m873 4 l40 -19 -37 -34 c-50 -47
-162 -132 -162 -124 0 18 56 107 72 116 10 6 16 15 12 20 -7 12 15 59 27 59 4
0 25 -8 48 -18z m-496 -99 c4 -3 -13 -16 -40 -30 -26 -14 -50 -29 -53 -33 -5
-6 -69 -40 -77 -40 -9 0 -2 87 9 98 11 11 144 16 161 5z"/>
</g>
</svg>
