<?xml version="1.0" standalone="no"?>
<!DOCTYPE svg PUBLIC "-//W3C//DTD SVG 20010904//EN"
 "http://www.w3.org/TR/2001/REC-SVG-20010904/DTD/svg10.dtd">
<svg version="1.0" xmlns="http://www.w3.org/2000/svg"
 width="241.000000pt" height="160.000000pt" viewBox="0 0 241.000000 160.000000"
 preserveAspectRatio="xMidYMid meet">
<metadata>
Created by potrace 1.16, written by Peter Selinger 2001-2019
</metadata>
<g transform="translate(0.000000,160.000000) scale(0.100000,-0.100000)"
fill="#000000" stroke="none">
<path d="M1618 1394 c-3 -3 -110 -7 -237 -9 -127 -2 -235 -6 -241 -10 -22 -14
4 -25 60 -25 l59 0 -34 -51 c-31 -48 -49 -61 -51 -39 -1 6 -2 24 -3 40 0 17
-6 30 -11 30 -6 0 -10 -17 -8 -40 1 -22 0 -41 -3 -44 -8 -8 -342 112 -347 126
-9 20 -35 4 -62 -39 -55 -88 -205 -218 -391 -340 -42 -27 -90 -55 -107 -62
-18 -8 -32 -20 -32 -28 0 -21 155 -166 255 -238 61 -44 103 -81 184 -159 l73
-70 17 -88 c9 -49 19 -88 23 -88 5 0 17 20 29 44 46 98 293 278 320 234 4 -7
6 -15 3 -19 -2 -4 -4 -40 -5 -81 -1 -119 -10 -137 -49 -98 -11 11 -24 20 -29
20 -12 0 -23 29 -15 41 11 19 -13 8 -35 -15 -25 -26 -25 -30 -22 -207 1 -59 1
-112 -1 -119 -7 -28 24 -19 69 22 67 60 103 84 196 130 93 46 95 46 396 52
122 2 217 8 223 14 12 12 -73 32 -137 32 -39 0 -45 3 -51 25 -3 14 -3 44 1 67
4 24 10 104 13 178 l7 134 75 24 c41 12 82 25 90 27 27 7 174 57 210 71 19 7
56 18 82 24 55 12 98 30 98 42 0 12 -28 10 -53 -4 -12 -7 -31 -13 -42 -15 -11
-2 -83 -25 -160 -52 -132 -46 -282 -91 -306 -91 -15 0 -2 261 14 277 9 9 21 8
52 -3 22 -8 83 -25 135 -39 52 -13 129 -33 170 -45 51 -15 80 -18 94 -12 19 8
17 10 -17 27 -27 12 -35 21 -28 28 6 6 11 15 11 20 0 12 -44 -3 -53 -19 -7
-12 -12 -12 -36 1 -16 8 -55 18 -88 24 -103 16 -233 61 -233 80 0 30 51 175
82 234 17 31 28 60 24 64 -3 4 -31 6 -60 4 -30 -1 -57 2 -61 8 -6 12 -48 15
-57 5z m3 -51 c-9 -30 -70 -185 -75 -191 -8 -7 3 178 10 191 8 13 30 23 61 26
8 1 9 -7 4 -26z m-227 11 c15 -6 14 -10 -3 -38 -11 -17 -29 -57 -41 -88 -12
-32 -23 -58 -25 -58 -29 0 -35 16 -35 91 0 86 -6 77 65 92 11 3 21 5 22 6 1 0
9 -2 17 -5z m126 -8 c0 -13 -72 -181 -81 -191 -3 -2 -5 37 -5 88 1 88 2 92 26
104 34 16 60 16 60 -1z m218 -38 c-12 -24 -36 -86 -53 -138 l-32 -95 0 107
c-1 58 -4 111 -7 117 -4 6 -2 20 4 31 9 16 21 20 61 20 l49 0 -22 -42z m-883
-4 c39 -14 102 -36 140 -49 39 -13 92 -34 119 -45 l48 -22 -6 -81 c-4 -45 -11
-107 -17 -138 -5 -31 -8 -82 -7 -115 3 -69 -8 -242 -17 -265 -5 -15 -72 -37
-175 -59 -30 -6 -77 -18 -105 -25 -100 -28 -93 -29 -100 5 -7 32 -22 39 -31
15 -4 -10 -18 0 -49 38 -42 51 -71 79 -190 182 -65 56 -185 174 -185 180 0 3
5 5 12 5 6 0 19 6 27 14 9 8 39 27 67 44 l51 30 -9 -40 c-9 -42 -7 -63 15
-158 14 -59 33 -70 30 -17 -13 205 -4 242 70 297 22 16 74 62 115 102 42 40
72 64 68 53 -4 -10 -10 -38 -13 -62 -5 -35 -3 -43 10 -43 9 0 20 6 24 14 15
25 87 53 140 54 62 1 89 13 53 22 -25 7 -124 -3 -168 -16 -21 -6 -23 -4 -17
22 6 27 26 84 29 84 0 0 33 -12 71 -26z m417 -14 c2 -6 1 -31 0 -56 -4 -40 -6
-44 -26 -38 -34 10 -36 17 -16 62 18 40 35 53 42 32z m136 -70 c2 -38 1 -70
-2 -70 -3 0 -16 5 -29 11 -23 10 -23 11 -7 57 14 43 28 72 33 72 2 0 4 -31 5
-70z m108 -106 c-3 -7 -14 -10 -25 -7 -22 6 -30 50 -12 69 5 5 15 27 22 49
l14 40 3 -69 c2 -38 1 -75 -2 -82z m114 69 c0 -32 -3 -68 -6 -80 -7 -24 -38
-31 -49 -12 -8 12 35 149 47 149 4 0 8 -26 8 -57z m-368 -31 c10 -10 11 -64 3
-272 -10 -259 -11 -260 -63 -275 -23 -7 -42 -10 -43 -6 0 3 0 47 1 96 1 50 1
126 1 169 0 44 6 122 14 175 8 52 12 97 10 99 -3 3 0 11 7 19 11 14 54 11 70
-5z m49 -43 c-8 -21 -10 -22 -16 -6 -10 23 2 54 16 40 6 -6 6 -18 0 -34z m73
8 c16 -12 17 -28 12 -183 -3 -93 -5 -195 -5 -226 l-1 -56 -50 -11 c-28 -6 -52
-11 -53 -11 -7 0 6 167 14 175 14 14 11 25 -7 25 -12 0 -11 5 7 20 15 12 18
19 9 18 -12 -3 -15 14 -17 95 -2 95 -1 98 23 107 13 5 24 18 24 28 0 33 16 40
44 19z m100 -38 l25 -12 -4 -166 c-1 -91 -3 -178 -4 -192 -1 -20 -8 -28 -35
-36 l-34 -11 -1 199 c0 109 2 205 5 214 7 18 15 19 48 4z m141 -50 c9 -26 -3
-301 -13 -310 -4 -4 -20 -10 -37 -13 l-30 -6 -3 146 c-4 189 -1 204 43 204 25
0 35 -5 40 -21z m6 -376 c1 -21 1 -41 0 -45 0 -4 -1 -38 -2 -75 -1 -37 -6 -77
-12 -88 -6 -11 -11 -45 -12 -75 -1 -55 -1 -55 -30 -52 -17 2 -32 6 -34 8 -6 6
-3 336 3 342 4 4 57 18 79 21 4 1 8 -16 8 -36z m-139 -132 c-3 -90 0 -151 7
-172 6 -18 10 -33 9 -35 -2 -1 -19 -4 -38 -6 -25 -2 -34 1 -32 10 1 7 -2 22
-8 32 -6 12 -7 20 -1 20 5 0 8 56 6 134 l-2 133 26 10 c14 6 29 11 32 12 3 1
4 -62 1 -138z m-103 -61 l-1 -158 -43 0 c-25 0 -48 -3 -53 -6 -6 -3 -9 55 -8
146 l1 151 34 12 c75 25 72 32 70 -145z m-147 83 c3 -21 2 -83 0 -139 l-5
-102 -36 -5 c-55 -7 -60 7 -55 137 6 131 6 133 36 139 52 10 56 8 60 -30z
m-332 -70 c-19 -15 -57 -49 -84 -75 -27 -27 -50 -47 -52 -45 -1 1 -6 26 -10
54 l-6 52 38 7 c22 4 53 13 69 20 17 7 41 13 55 13 24 1 24 0 -10 -26z m154
-193 c44 -23 73 -30 115 -30 l56 -1 -70 -37 c-38 -20 -91 -52 -117 -70 l-47
-32 1 100 c0 55 1 100 1 100 1 0 29 -14 61 -30z"/>
</g>
</svg>
