<?xml version="1.0" standalone="no"?>
<!DOCTYPE svg PUBLIC "-//W3C//DTD SVG 20010904//EN"
 "http://www.w3.org/TR/2001/REC-SVG-20010904/DTD/svg10.dtd">
<svg version="1.0" xmlns="http://www.w3.org/2000/svg"
 width="263.000000pt" height="231.000000pt" viewBox="0 0 263.000000 231.000000"
 preserveAspectRatio="xMidYMid meet">
<metadata>
Created by potrace 1.16, written by Peter Selinger 2001-2019
</metadata>
<g transform="translate(0.000000,231.000000) scale(0.100000,-0.100000)"
fill="#000000" stroke="none">
<path d="M1488 2024 c0 -5 -2 -13 -2 -19 -1 -5 -25 -59 -54 -119 -29 -60 -52
-112 -52 -116 0 -5 -3 -10 -7 -12 -5 -1 -17 -19 -27 -38 -50 -93 -112 -192
-135 -217 -14 -15 -64 -55 -110 -88 -151 -108 -201 -187 -201 -312 0 -35 -4
-63 -8 -63 -5 0 -19 10 -31 22 -32 29 -54 14 -63 -45 -3 -25 -15 -63 -27 -84
-18 -35 -55 -121 -84 -198 -17 -44 -135 -274 -157 -304 -11 -14 -22 -38 -26
-53 -8 -37 11 -37 51 1 16 16 55 46 86 68 31 21 90 61 130 88 41 28 104 80
142 118 37 37 69 67 71 67 11 0 19 -135 20 -333 1 -214 2 -230 20 -243 35 -25
56 -17 77 31 11 24 23 47 28 50 11 6 81 151 81 167 0 7 6 24 13 38 8 14 19 40
25 58 16 47 116 196 148 221 21 17 30 19 41 9 11 -9 25 -9 61 0 69 18 167 17
252 -2 130 -29 184 -39 230 -40 25 -1 58 -9 74 -17 23 -11 30 -11 34 -1 2 7
13 10 27 6 29 -7 42 12 22 34 -9 9 -33 53 -55 97 -28 55 -65 106 -120 165 -44
47 -87 99 -95 115 -27 56 -47 141 -41 174 8 38 0 39 -60 5 -26 -14 -53 -24
-61 -20 -8 3 -19 24 -25 48 -14 56 -60 160 -78 175 -17 14 -2 48 35 76 22 17
83 112 83 129 0 4 -20 0 -45 -10 -25 -9 -45 -22 -45 -29 0 -16 12 -17 28 -1
24 24 12 -10 -15 -44 -54 -65 -69 -70 -96 -33 l-18 25 48 22 c39 18 44 22 26
25 -12 3 -32 -1 -44 -8 -21 -11 -22 -10 -14 32 4 24 9 60 10 79 2 19 30 85 61
147 32 62 56 115 53 118 -3 3 -19 0 -36 -6 -32 -11 -72 1 -120 37 -13 9 -24
13 -25 8z m38 -70 c5 -21 -1 -33 -32 -65 -21 -21 -39 -37 -41 -36 -6 6 50 127
58 127 5 0 12 -12 15 -26z m84 -31 c0 -10 -9 -29 -20 -43 l-20 -25 0 37 c0 32
8 45 33 47 4 1 7 -7 7 -16z m-71 -50 c-3 -50 -30 -231 -39 -276 -12 -53 -11
-59 6 -72 18 -13 16 -14 -21 -14 -22 0 -60 4 -85 9 -27 5 -62 5 -89 -1 -24 -5
-45 -8 -46 -7 -3 3 89 161 127 217 30 45 128 151 139 151 5 0 9 -3 8 -7z m-19
-438 c30 -10 37 -20 57 -75 33 -92 38 -145 18 -220 -9 -36 -24 -78 -33 -95
-48 -89 -77 -135 -88 -135 -6 0 -19 -11 -27 -24 -31 -46 -166 -70 -212 -37 -5
4 -50 23 -99 42 -81 31 -91 38 -123 85 -50 74 -63 161 -38 243 20 68 55 109
130 153 27 16 62 38 76 49 14 12 50 24 80 29 67 9 212 1 259 -15z m260 -227
c0 -7 3 -24 6 -38 l6 -25 -26 28 c-15 16 -24 33 -21 38 9 13 35 11 35 -3z
m-17 -104 c34 -37 69 -79 78 -93 9 -14 48 -60 88 -103 42 -45 82 -100 98 -135
15 -32 29 -61 31 -65 2 -3 -14 -2 -35 2 -21 5 -77 14 -124 20 -70 10 -105 21
-184 61 -53 27 -110 59 -126 70 l-29 21 23 28 c34 40 85 150 98 209 6 28 13
51 15 51 3 0 33 -30 67 -66z m-883 -109 c17 -9 30 -19 30 -23 0 -7 -70 -105
-148 -207 -24 -31 -46 -54 -49 -51 -3 3 -1 11 4 18 6 7 24 47 41 88 43 104 83
190 88 190 3 0 18 -7 34 -15z m116 -75 c18 -16 49 -32 69 -36 19 -3 38 -10 41
-15 3 -5 -9 -48 -25 -95 -17 -48 -31 -89 -32 -93 0 -7 -29 80 -29 90 0 3 11
18 25 33 14 15 23 31 20 36 -10 17 -74 -31 -104 -78 -32 -50 -86 -105 -161
-163 -72 -57 -193 -139 -197 -135 -3 3 60 106 131 213 61 92 210 273 224 273
3 0 19 -13 38 -30z m571 -93 c15 -12 42 -29 58 -36 36 -16 31 -18 -67 -24 -74
-4 -78 -3 -78 17 0 27 27 66 45 66 7 0 26 -10 42 -23z m-366 -12 c24 -14 54
-25 67 -25 28 0 28 -11 -4 -102 -14 -40 -31 -96 -39 -123 -42 -154 -156 -392
-167 -348 -2 10 -3 103 -2 207 2 155 6 197 20 230 10 23 26 60 36 83 10 23 18
47 18 53 0 12 18 50 24 50 2 0 24 -11 47 -25z m229 -25 c0 -5 -4 -10 -9 -10
-6 0 -13 5 -16 10 -3 6 1 10 9 10 9 0 16 -4 16 -10z m-85 -70 c-33 -34 -39
-33 -29 4 5 20 12 26 32 26 l26 0 -29 -30z"/>
<path d="M1994 1822 c-17 -15 -46 -35 -64 -45 -43 -23 -32 -32 15 -13 21 9 39
16 41 16 6 0 -84 -167 -131 -246 -24 -39 -68 -104 -99 -145 -31 -41 -56 -82
-56 -91 0 -34 20 -28 46 14 15 23 43 63 63 88 20 25 54 76 75 113 22 37 44 67
51 67 6 0 37 27 70 61 33 34 77 72 98 85 46 30 47 54 3 78 -19 10 -37 25 -40
32 -8 22 -38 16 -72 -14z m72 -47 c19 -15 19 -15 -1 -30 -11 -8 -39 -34 -63
-57 -42 -41 -43 -41 -32 -13 16 42 59 115 69 115 4 0 16 -7 27 -15z"/>
<path d="M677 1782 c-10 -10 -24 -43 -33 -73 -25 -84 -67 -121 -157 -134 -26
-4 -50 -11 -53 -16 -2 -5 7 -19 22 -31 106 -89 163 -153 257 -292 47 -68 133
-154 143 -143 7 7 -72 175 -92 198 -8 8 -20 35 -28 60 -26 81 -47 134 -55 139
-12 8 -41 67 -41 85 0 11 11 15 40 15 44 0 52 13 18 31 -13 6 -24 13 -26 14
-2 2 18 54 25 64 2 2 21 -15 43 -39 30 -33 37 -46 29 -56 -16 -20 -4 -31 58
-50 32 -10 73 -32 93 -50 19 -17 54 -42 78 -54 23 -12 45 -26 48 -31 6 -11 44
-12 44 -1 0 19 -34 53 -87 87 -32 21 -72 51 -89 67 -17 16 -53 44 -80 61 -36
24 -58 49 -84 96 -19 36 -40 66 -46 68 -6 2 -18 -5 -27 -15z m-14 -348 c8 -17
18 -42 22 -55 7 -26 8 -27 -123 113 l-54 57 44 8 43 9 27 -50 c15 -28 33 -65
41 -82z"/>
<path d="M1823 1719 c-22 -8 -32 -29 -15 -29 12 0 48 28 42 33 -3 3 -15 1 -27
-4z"/>
<path d="M1757 1684 c-16 -9 -27 -18 -24 -20 7 -7 57 18 57 28 0 10 1 10 -33
-8z"/>
</g>
</svg>
