<?xml version="1.0" standalone="no"?>
<!DOCTYPE svg PUBLIC "-//W3C//DTD SVG 20010904//EN"
 "http://www.w3.org/TR/2001/REC-SVG-20010904/DTD/svg10.dtd">
<svg version="1.0" xmlns="http://www.w3.org/2000/svg"
 width="218.000000pt" height="122.000000pt" viewBox="0 0 218.000000 122.000000"
 preserveAspectRatio="xMidYMid meet">
<metadata>
Created by potrace 1.16, written by Peter Selinger 2001-2019
</metadata>
<g transform="translate(0.000000,122.000000) scale(0.100000,-0.100000)"
fill="#000000" stroke="none">
<path d="M1208 1152 c-36 -7 -19 -30 76 -103 32 -24 72 -54 89 -66 18 -12 40
-29 51 -39 10 -9 44 -31 75 -49 73 -41 190 -118 262 -173 31 -23 63 -42 72
-42 42 0 19 -26 -80 -89 -59 -38 -115 -76 -123 -83 -8 -8 -49 -40 -90 -71 -41
-31 -95 -74 -120 -96 -25 -22 -49 -41 -54 -41 -4 0 -29 -17 -55 -38 -25 -21
-63 -49 -84 -61 -39 -24 -45 -46 -16 -64 13 -8 30 2 81 44 35 30 98 78 139
107 72 51 182 135 226 171 46 39 235 158 257 163 18 3 54 53 45 62 -2 3 -16 7
-29 9 -42 8 -82 29 -150 78 -36 25 -135 93 -221 151 -85 57 -180 125 -210 151
-62 54 -116 84 -141 79z"/>
<path d="M1088 958 c-51 -34 -116 -81 -145 -104 l-52 -42 -250 4 c-139 1 -277
8 -311 15 -61 12 -83 8 -63 -12 8 -8 6 -16 -8 -30 -21 -21 -23 -46 -20 -269 1
-102 5 -138 16 -149 21 -22 29 -7 26 51 l-2 51 107 -6 c59 -4 187 -7 284 -7
l177 0 64 -61 c35 -33 78 -67 94 -76 17 -9 51 -35 77 -59 47 -44 86 -61 113
-50 22 8 19 23 -7 37 -13 7 -44 34 -70 60 -26 26 -62 53 -80 60 -20 7 -65 47
-113 101 -44 49 -90 100 -102 114 -24 26 -73 33 -73 10 0 -7 16 -31 36 -52 37
-38 37 -38 13 -44 -13 -4 -46 -5 -74 -4 -27 1 -129 5 -225 9 -96 3 -186 9
-199 12 -23 6 -23 6 -16 117 4 61 7 123 6 137 0 25 2 27 37 23 125 -15 314
-20 398 -11 34 4 71 4 83 -1 20 -7 18 -10 -26 -44 -27 -19 -58 -42 -70 -49
-30 -18 -29 -31 1 -27 13 1 30 -3 38 -9 25 -21 58 -2 98 56 67 97 136 160 297
268 36 24 58 43 49 43 -8 0 -57 -28 -108 -62z m-284 -263 c-4 -8 -14 -15 -23
-15 -14 1 -13 3 3 15 25 19 27 19 20 0z"/>
<path d="M1207 904 c-15 -8 -26 -18 -23 -22 5 -8 50 -31 130 -67 32 -14 84
-43 115 -64 31 -21 71 -46 89 -55 32 -17 32 -17 16 -44 -18 -30 -133 -132
-181 -162 l-31 -19 1 122 c2 142 -3 163 -34 146 -20 -10 -21 -17 -16 -78 3
-36 2 -97 -1 -134 l-7 -68 -32 31 c-18 18 -40 49 -50 71 -9 21 -20 39 -24 39
-26 0 1 194 31 224 20 20 9 29 -11 10 -27 -24 -66 -109 -75 -163 -8 -53 25
-146 70 -192 46 -48 115 -101 125 -97 15 5 171 148 221 202 25 26 44 54 42 61
-1 7 5 18 13 25 8 7 15 18 15 25 0 20 -166 140 -245 179 -93 45 -105 48 -138
30z"/>
</g>
</svg>
