<?xml version="1.0" standalone="no"?>
<!DOCTYPE svg PUBLIC "-//W3C//DTD SVG 20010904//EN"
 "http://www.w3.org/TR/2001/REC-SVG-20010904/DTD/svg10.dtd">
<svg version="1.0" xmlns="http://www.w3.org/2000/svg"
 width="265.000000pt" height="154.000000pt" viewBox="0 0 265.000000 154.000000"
 preserveAspectRatio="xMidYMid meet">
<metadata>
Created by potrace 1.16, written by Peter Selinger 2001-2019
</metadata>
<g transform="translate(0.000000,154.000000) scale(0.100000,-0.100000)"
fill="#000000" stroke="none">
<path d="M964 1465 c-3 -8 -4 -37 -2 -65 l3 -51 -30 3 c-24 2 -29 0 -27 -15 3
-17 -3 -19 -55 -17 -92 4 -96 3 -90 -21 3 -12 1 -86 -5 -164 l-12 -143 -195
-2 c-108 -1 -205 -2 -216 -1 -11 0 -34 1 -52 1 -18 -1 -48 6 -67 14 -41 17
-76 11 -76 -15 0 -24 10 -29 70 -36 27 -3 50 -10 50 -15 0 -4 -13 -41 -30 -81
-16 -39 -38 -101 -48 -137 l-19 -65 5 141 c3 100 2 143 -7 148 -18 12 -29 -35
-29 -127 0 -47 -3 -90 -6 -96 -4 -5 -3 -65 1 -133 8 -138 9 -180 2 -222 -2
-16 1 -31 7 -33 13 -4 32 38 36 82 3 32 -3 28 143 76 63 21 89 23 253 23 147
0 185 -2 192 -14 9 -15 5 -312 -5 -346 -5 -16 5 -29 54 -67 32 -26 62 -47 66
-47 3 0 21 11 38 24 18 13 57 34 87 46 30 11 71 29 90 39 19 10 49 21 65 25
42 10 233 86 275 109 80 45 252 128 355 171 61 26 142 62 180 81 39 18 94 43
124 54 29 12 79 35 110 51 31 16 105 48 164 69 83 31 113 38 131 31 29 -11 36
-5 36 29 0 18 -10 33 -33 49 -40 26 -41 26 -62 6 -15 -15 -22 -13 -93 21 -42
20 -108 50 -147 65 -38 15 -199 91 -358 169 -291 143 -346 168 -450 202 -53
18 -224 108 -324 172 -47 30 -91 35 -99 12z m154 -89 c49 -24 111 -58 138 -74
28 -16 68 -35 90 -42 55 -18 154 -58 186 -75 14 -8 31 -15 37 -15 13 0 134
-71 129 -76 -3 -2 -29 6 -59 17 -30 12 -83 29 -119 39 -36 10 -98 34 -138 54
-71 35 -234 94 -320 116 -23 6 -40 15 -37 20 4 6 2 10 -2 10 -5 0 -7 16 -5 35
2 19 6 35 8 35 3 0 44 -20 92 -44z m-53 -86 c87 -19 210 -68 207 -83 -1 -8 4
-17 13 -21 19 -7 19 -24 -1 -93 -14 -48 -17 -52 -29 -37 -11 16 -15 16 -29 5
-9 -7 -16 -20 -16 -29 0 -8 -3 -13 -6 -10 -3 3 2 29 10 57 14 46 14 53 0 58
-18 7 -43 -24 -37 -46 2 -9 0 -27 -5 -40 -8 -23 -8 -23 -58 19 -27 23 -56 55
-63 72 -16 31 -48 35 -43 5 2 -13 -4 -17 -28 -17 -37 0 -37 5 1 55 27 36 28
41 13 52 -9 6 -22 9 -30 6 -20 -7 -18 18 4 45 11 15 23 21 37 16 11 -3 38 -9
60 -14z m-170 -110 c-13 -58 -35 -157 -49 -220 -14 -63 -29 -146 -34 -185
l-10 -70 3 68 c2 38 -1 84 -7 104 -8 30 -7 38 6 45 20 11 21 37 1 44 -12 5
-14 24 -9 113 3 58 7 125 10 147 5 41 5 41 57 51 29 5 53 9 53 8 1 0 -9 -47
-21 -105z m481 -5 c16 -12 16 -14 3 -15 -9 0 -22 7 -29 15 -16 19 0 19 26 0z
m109 -41 c39 -14 106 -39 150 -54 44 -15 100 -37 125 -48 l45 -20 -130 5 c-71
3 -135 8 -141 12 -31 16 -133 114 -128 122 6 11 -3 13 79 -17z m-129 -36 c-6
-42 -30 -73 -48 -62 -4 3 -4 13 1 23 6 10 12 31 15 47 2 16 5 30 5 32 1 1 8 2
17 2 14 0 15 -7 10 -42z m-302 -41 c44 -23 84 -50 90 -59 10 -16 -11 -122 -50
-260 -4 -12 0 -18 11 -18 18 0 22 9 29 65 3 22 9 54 15 70 6 17 15 49 21 73
11 44 30 49 30 6 0 -17 6 -24 19 -24 23 0 22 -13 -14 -175 -23 -102 -23 -124
0 -105 14 11 36 89 56 193 7 39 18 67 25 67 7 0 11 -8 9 -17 -5 -21 -43 -276
-48 -313 -1 -14 -6 -31 -11 -38 -5 -8 -3 -19 3 -25 19 -19 28 6 41 112 22 181
51 270 74 232 4 -5 7 -29 7 -53 1 -23 6 -48 11 -54 5 -8 3 -14 -7 -18 -8 -3
-15 -14 -15 -24 0 -10 -6 -24 -12 -30 -10 -10 -10 -15 1 -21 11 -7 10 -25 -8
-105 -25 -115 -24 -106 -7 -106 9 0 19 20 26 50 13 55 34 80 28 34 -2 -23 1
-29 16 -29 10 0 24 9 30 20 6 11 33 49 61 84 l49 64 8 -29 c9 -34 5 -114 -6
-132 -10 -17 -1 -26 19 -19 10 4 15 21 16 49 2 72 6 108 12 115 11 10 38 -19
33 -36 -3 -9 -8 -40 -11 -68 -6 -45 -4 -53 9 -53 9 0 16 6 16 13 0 6 5 29 10
49 10 34 13 36 34 27 19 -9 24 -19 24 -55 1 -43 1 -44 -41 -55 -89 -23 -295
-88 -362 -114 -38 -15 -127 -47 -197 -71 -70 -24 -155 -55 -189 -69 -82 -33
-97 -33 -93 2 2 16 6 107 9 203 3 96 12 222 20 280 8 58 17 128 20 155 4 28
10 64 14 80 5 17 15 63 22 103 12 71 12 72 43 71 17 0 67 -19 110 -42z m379
18 c36 -34 34 -44 -7 -42 -43 3 -50 10 -42 42 8 31 14 31 49 0z m371 -16 c26
-11 46 -23 43 -25 -2 -2 -35 9 -73 26 -38 17 -57 29 -43 26 14 -3 47 -15 73
-27z m-547 -81 c-3 -7 -5 -2 -5 12 0 14 2 19 5 13 2 -7 2 -19 0 -25z m611 6
c129 -29 542 -193 542 -214 0 -3 -19 -11 -42 -18 -24 -7 -108 -44 -188 -81
-297 -141 -393 -181 -428 -181 -15 0 -17 14 -16 145 1 79 5 150 10 157 6 7 21
40 34 73 13 33 32 71 42 85 19 23 19 25 1 39 -17 13 -17 13 0 7 11 -3 31 -9
45 -12z m-318 -4 c8 -5 11 -10 5 -10 -5 0 -17 5 -25 10 -8 5 -10 10 -5 10 6 0
17 -5 25 -10z m-150 -9 c0 -6 -4 -12 -9 -15 -5 -3 -12 -22 -15 -41 -9 -47 -30
-47 -23 1 6 36 22 64 38 64 5 0 9 -4 9 -9z m265 -1 c3 -5 -1 -10 -9 -10 -8 0
-18 5 -21 10 -3 6 1 10 9 10 8 0 18 -4 21 -10z m-355 -28 c0 -13 -12 -22 -22
-16 -10 6 -1 24 13 24 5 0 9 -4 9 -8z m460 4 c0 -2 -7 -19 -15 -37 l-14 -34
-1 31 c0 17 3 34 7 37 7 8 23 9 23 3z m-1385 -31 c-49 -13 -91 -22 -93 -20 -2
2 1 13 8 24 10 19 19 21 93 20 l82 0 -90 -24z m364 -37 c6 -35 10 -108 9 -163
-1 -55 2 -115 6 -134 l8 -34 -92 6 c-51 4 -98 11 -105 17 -6 5 -15 7 -18 4 -3
-4 -87 -7 -187 -8 -154 -1 -180 1 -180 14 0 26 61 234 73 251 12 16 139 59
175 59 12 0 23 4 26 9 6 8 74 22 128 26 15 1 31 5 35 8 3 4 30 7 59 7 l52 0
11 -62z m741 48 c0 -7 -7 -19 -15 -26 -16 -13 -20 -3 -9 24 8 20 24 21 24 2z
m64 -22 c22 -9 22 -74 0 -74 -12 0 -15 6 -10 25 5 18 2 27 -9 31 -8 3 -12 10
-9 15 6 11 8 11 28 3z m150 -75 c-1 -19 -3 -81 -3 -139 l-1 -104 -22 22 c-19
19 -22 31 -20 97 0 41 6 83 12 94 14 27 13 31 -9 31 -30 0 -33 15 -9 45 22 28
22 28 38 7 10 -11 16 -34 14 -53z m-193 8 c-17 -17 -24 -1 -10 25 12 21 14 21
17 4 2 -10 -1 -23 -7 -29z m-1 -34 c0 -5 -4 -14 -8 -21 -7 -9 -13 -8 -27 8
-18 20 -18 20 8 20 15 0 27 -3 27 -7z m120 -74 l0 -71 -22 14 c-19 13 -22 23
-19 64 3 56 7 64 27 64 11 0 14 -16 14 -71z m-154 0 c9 -15 -6 -28 -44 -35
-32 -7 -33 -6 -21 20 13 27 51 36 65 15z m-1 -69 c6 -10 -43 -90 -56 -90 -4 0
-11 16 -15 37 -5 29 -3 39 11 50 22 15 51 17 60 3z m-1145 -131 c0 -4 -137
-49 -152 -49 -3 0 -3 11 -1 24 3 16 13 26 27 28 36 5 126 3 126 -3z m1260
-134 c0 -3 -30 -19 -67 -36 -38 -17 -93 -43 -123 -57 -30 -14 -57 -26 -60 -27
-3 -1 -12 -5 -20 -8 -8 -4 -58 -22 -110 -41 -83 -30 -146 -56 -292 -120 -34
-15 -38 -14 -59 3 -25 20 -19 41 12 41 10 0 27 4 37 10 42 22 107 47 181 66
29 8 90 30 135 49 44 19 90 36 101 38 11 1 31 10 45 20 14 9 54 24 90 33 36 9
72 20 80 25 16 9 50 12 50 4z"/>
</g>
</svg>
