<?xml version="1.0" standalone="no"?>
<!DOCTYPE svg PUBLIC "-//W3C//DTD SVG 20010904//EN"
 "http://www.w3.org/TR/2001/REC-SVG-20010904/DTD/svg10.dtd">
<svg version="1.0" xmlns="http://www.w3.org/2000/svg"
 width="298.000000pt" height="172.000000pt" viewBox="0 0 298.000000 172.000000"
 preserveAspectRatio="xMidYMid meet">
<metadata>
Created by potrace 1.16, written by Peter Selinger 2001-2019
</metadata>
<g transform="translate(0.000000,172.000000) scale(0.100000,-0.100000)"
fill="#000000" stroke="none">
<path d="M2504 1539 c-10 -12 -43 -39 -72 -61 -32 -24 -51 -45 -48 -53 12 -32
-337 -315 -388 -315 -29 0 -26 -19 9 -46 37 -28 45 -51 21 -60 -20 -8 -34 2
-122 81 -42 39 -105 90 -139 115 -130 93 -264 214 -264 238 -1 18 -6 23 -23
20 -12 -2 -27 -12 -33 -24 -6 -11 -18 -20 -28 -18 -19 3 -96 -20 -350 -102
-180 -58 -193 -61 -200 -41 -3 9 -10 7 -23 -6 -19 -17 -18 -19 4 -58 13 -23
21 -43 18 -47 -4 -3 -82 -4 -174 -2 -92 2 -200 3 -241 2 -41 -1 -79 2 -85 6
-6 5 -56 9 -111 10 -87 2 -103 0 -124 -18 -19 -17 -21 -23 -11 -35 7 -8 19
-15 26 -15 8 0 16 -11 20 -25 8 -34 -13 -203 -37 -289 -26 -97 -21 -100 110
-60 48 15 95 28 106 30 11 1 43 8 70 14 46 11 251 14 267 4 4 -3 3 -17 -3 -31
-5 -14 -10 -42 -10 -62 -1 -20 -7 -65 -15 -100 -8 -35 -12 -66 -10 -69 13 -13
34 11 40 45 4 21 14 61 23 89 l16 51 141 -37 c307 -81 308 -82 389 -122 11 -5
21 -7 24 -4 3 3 13 -9 23 -26 22 -41 38 -46 50 -14 5 14 24 33 42 42 35 18
210 133 218 143 16 20 114 81 169 105 71 32 127 62 152 83 9 8 30 18 45 22 16
5 28 14 26 20 -2 8 4 10 17 6 25 -8 178 -98 214 -125 l28 -22 -67 -52 c-37
-28 -100 -79 -141 -114 -84 -70 -177 -125 -239 -141 -63 -17 -73 -35 -47 -82
20 -36 20 -40 5 -49 -15 -8 -15 -9 3 -10 15 0 17 -2 6 -9 -9 -6 -3 -10 20 -14
62 -10 107 -24 136 -44 15 -11 33 -18 40 -16 6 2 14 -1 18 -6 3 -6 18 -11 31
-11 14 0 53 -15 87 -34 34 -19 87 -44 117 -56 30 -12 70 -28 89 -36 26 -12 40
-12 67 -4 33 11 44 32 24 45 -20 12 39 102 107 163 37 33 93 83 123 111 l54
51 -34 35 c-19 19 -53 44 -75 55 -23 11 -48 31 -55 45 -7 14 -17 25 -22 25 -5
0 -8 12 -7 28 1 15 -1 45 -5 67 -9 51 13 115 56 164 17 20 77 70 132 112 144
108 140 96 69 182 -66 80 -144 140 -171 130 -9 -3 -14 -3 -10 2 4 4 2 15 -5
23 -6 8 -13 47 -14 86 -1 39 -2 86 -2 104 -1 38 -19 42 -47 11z m16 -106 c0
-39 -9 -41 -39 -9 -17 18 -19 25 -9 30 7 3 3 4 -9 2 -33 -6 -28 3 9 19 38 16
48 7 48 -42z m-55 -52 c17 -15 42 -42 56 -58 14 -17 41 -39 59 -49 18 -11 40
-24 50 -29 24 -14 70 -70 70 -84 0 -7 12 -22 26 -35 l27 -22 -29 -23 c-126
-98 -246 -187 -284 -208 -25 -15 -55 -35 -67 -46 -22 -20 -23 -20 -23 -1 0 44
32 136 105 299 7 17 16 43 20 59 3 16 19 41 36 57 54 50 31 68 -84 63 -120 -4
-114 2 -113 -117 0 -89 -21 -346 -29 -355 -2 -2 -23 9 -47 25 -23 15 -54 33
-67 38 -21 10 -24 18 -27 80 -3 56 1 75 17 102 27 43 5 45 -35 3 -16 -17 -31
-29 -34 -26 -11 11 51 117 81 138 44 30 175 146 210 186 16 17 34 32 41 32 6
0 25 -13 41 -29z m-1108 -14 c-62 -49 -415 -246 -421 -235 -1 2 -13 26 -27 54
l-25 51 35 10 c20 6 68 22 106 36 102 36 330 105 350 106 6 0 -3 -10 -18 -22z
m39 -24 c-1 -47 21 -51 44 -8 8 17 19 33 25 37 11 8 47 -12 100 -58 l40 -35
-45 17 c-25 10 -54 23 -65 31 -23 16 -35 17 -35 3 0 -5 8 -10 18 -10 9 0 28
-9 42 -20 14 -11 32 -20 41 -20 9 0 34 -13 55 -28 21 -15 73 -49 115 -75 41
-26 86 -58 100 -73 13 -14 37 -33 52 -41 50 -25 117 -82 107 -88 -6 -4 -19
-24 -30 -45 -11 -21 -30 -42 -42 -45 -13 -4 -59 -24 -103 -46 -44 -21 -109
-50 -145 -63 -205 -75 -317 -117 -329 -124 -23 -13 -61 10 -61 36 0 12 5 21
12 20 7 -2 22 15 34 38 11 23 35 64 52 93 18 28 32 54 32 57 0 4 16 24 35 45
19 22 35 44 35 49 0 15 -27 23 -47 15 -10 -4 -52 -6 -95 -5 -78 1 -100 -8 -78
-35 7 -8 9 -33 6 -62 -6 -62 -21 -296 -18 -305 3 -14 -166 66 -298 141 -30 17
-87 47 -126 66 l-72 36 53 115 c64 139 70 147 95 131 15 -9 23 -8 37 5 10 9
54 36 98 61 140 78 332 196 345 212 17 21 17 20 16 -22z m1052 -88 c6 -5 -59
-150 -78 -175 l-20 -25 0 102 c0 72 4 103 13 106 11 4 78 -2 85 -8z m-350
-122 c-31 -66 -49 -80 -61 -49 -4 9 6 23 26 35 35 23 40 25 35 14z m-1598 -12
c0 -4 -45 -23 -100 -41 -55 -17 -100 -36 -100 -42 0 -6 10 -8 23 -5 73 17 147
40 182 58 48 24 149 35 188 20 25 -10 27 -15 27 -63 0 -53 -25 -212 -36 -229
-7 -12 -91 -11 -134 2 -37 11 -270 15 -317 5 -50 -11 -58 3 -43 76 13 59 18
67 92 140 65 63 86 78 116 81 72 7 102 7 102 -2z m-220 -7 c0 -4 -16 -24 -35
-45 l-35 -39 0 45 c0 45 0 45 35 45 19 0 35 -3 35 -6z m554 -16 c-4 -13 -21
-52 -38 -88 -18 -36 -40 -87 -50 -113 -10 -27 -19 -47 -21 -45 -2 2 1 26 6 53
4 28 11 82 14 120 9 95 8 95 55 95 38 0 41 -2 34 -22z m1274 -113 c1 -50 -11
-57 -48 -27 l-22 18 32 27 c17 15 33 27 34 27 2 0 4 -20 4 -45z m257 13 c-4
-13 -12 -27 -18 -33 -7 -7 -8 -4 -3 8 3 10 6 25 6 33 0 8 5 14 11 14 6 0 8 -9
4 -22z m-967 -47 c-1 -5 -25 -52 -53 -105 -49 -94 -68 -118 -60 -74 3 12 5 59
6 105 l1 83 55 0 c30 0 53 -4 51 -9z m1151 -34 c-2 -1 -15 -11 -29 -22 l-25
-20 19 23 c11 12 24 22 29 22 6 0 8 -1 6 -3z m-64 -49 c-3 -7 -24 -24 -48 -37
-48 -27 -46 -23 9 19 45 34 45 34 39 18z m-16 -61 c-14 -30 -30 -39 -50 -26
-12 8 -12 11 1 18 8 6 24 16 35 24 26 19 29 16 14 -16z m-2141 -19 c-29 -11
-81 -28 -115 -38 -58 -17 -63 -17 -63 -2 0 38 18 47 112 57 116 13 135 8 66
-17z m566 -54 c72 -37 156 -78 186 -91 53 -22 54 -23 15 -17 -22 4 -47 10 -56
15 -13 7 -188 55 -284 78 -30 7 -43 35 -31 67 9 24 34 16 170 -52z m1366 1
c-7 -9 -23 -21 -34 -27 -15 -7 -12 -1 9 20 31 30 48 35 25 7z m116 14 c3 -6
-3 -21 -15 -32 l-21 -21 0 25 c0 37 20 53 36 28z m-736 -14 c0 -9 -228 -155
-265 -171 -32 -13 -33 -13 -39 12 -8 32 -4 39 36 54 18 6 56 21 83 32 28 12
64 26 80 33 17 6 46 19 65 28 42 19 40 18 40 12z m790 -45 c0 -13 -5 -17 -20
-13 -23 6 -25 14 -8 31 14 14 28 6 28 -18z m-166 -22 c0 -24 2 -55 6 -69 8
-28 1 -112 -25 -315 -11 -76 -14 -79 -71 -52 -27 13 -55 29 -62 36 -7 6 -19
12 -27 12 -7 0 -36 8 -65 17 l-52 17 5 47 c7 54 0 87 -18 91 -10 2 -10 10 1
39 11 26 31 45 77 73 34 21 100 62 147 92 46 30 84 54 85 54 0 0 0 -19 -1 -42z
m-99 2 c-3 -5 -12 -10 -18 -10 -7 0 -6 4 3 10 19 12 23 12 15 0z m206 -18 c13
-11 35 -22 49 -26 31 -8 50 -23 73 -59 11 -17 41 -39 71 -52 30 -13 56 -30 59
-38 6 -15 -123 -148 -198 -204 -51 -38 -128 -83 -143 -83 -15 0 -15 60 -2 115
23 94 40 193 46 276 4 49 10 89 14 89 4 0 18 -8 31 -18z m-1081 -72 c0 -5 -7
-7 -15 -4 -8 4 -12 10 -9 15 6 11 24 2 24 -11z m623 -112 c-5 -7 -17 -34 -27
-60 -10 -27 -21 -48 -24 -48 -4 1 -17 16 -29 35 l-22 35 22 14 c38 24 82 44
86 40 2 -2 -1 -9 -6 -16z m13 -127 c0 -11 -5 -17 -13 -14 -14 6 -17 16 -6 26
11 12 19 7 19 -12z m454 -151 c-11 -20 -40 -28 -40 -10 0 9 28 29 43 30 4 0 3
-9 -3 -20z"/>
<path d="M1800 290 c-9 -6 -10 -10 -3 -10 6 0 15 5 18 10 8 12 4 12 -15 0z"/>
</g>
</svg>
