<?xml version="1.0" standalone="no"?>
<!DOCTYPE svg PUBLIC "-//W3C//DTD SVG 20010904//EN"
 "http://www.w3.org/TR/2001/REC-SVG-20010904/DTD/svg10.dtd">
<svg version="1.0" xmlns="http://www.w3.org/2000/svg"
 width="257.000000pt" height="122.000000pt" viewBox="0 0 257.000000 122.000000"
 preserveAspectRatio="xMidYMid meet">
<metadata>
Created by potrace 1.16, written by Peter Selinger 2001-2019
</metadata>
<g transform="translate(0.000000,122.000000) scale(0.100000,-0.100000)"
fill="#000000" stroke="none">
<path d="M1527 1172 c-10 -10 -17 -24 -17 -31 0 -6 -13 -14 -30 -17 -16 -4
-30 -12 -30 -20 0 -7 -19 -26 -42 -42 -86 -58 -94 -55 -12 3 62 45 40 46 -29
2 -47 -30 -200 -107 -334 -168 -34 -15 -53 -30 -53 -41 0 -21 -39 -33 -82 -24
-17 3 -37 1 -44 -5 -7 -6 -31 -8 -56 -5 -24 4 -110 10 -191 16 -126 8 -156 7
-195 -6 -37 -13 -60 -14 -134 -5 -49 5 -95 8 -103 4 -23 -8 -18 -32 9 -39 15
-3 23 -11 20 -19 -3 -7 -1 -23 6 -34 17 -33 11 -329 -9 -422 -12 -51 -8 -112
7 -116 8 -3 12 6 12 26 0 39 20 131 28 131 28 0 272 41 293 48 43 17 216 35
264 28 32 -5 45 -12 46 -24 3 -40 -2 -189 -7 -215 -5 -24 -3 -28 12 -25 19 3
33 47 38 120 1 21 5 40 8 44 3 3 34 -4 69 -15 34 -12 68 -21 75 -21 6 0 25 -7
40 -15 16 -8 36 -15 44 -15 8 0 30 -9 49 -21 18 -11 56 -29 84 -40 28 -11 67
-33 86 -48 63 -49 76 -53 103 -31 13 10 60 37 104 60 43 23 81 46 84 50 10 16
105 70 122 70 10 0 18 5 18 11 0 5 5 7 10 4 6 -3 10 -2 10 3 0 5 15 15 33 22
52 20 102 44 105 53 2 4 12 7 22 7 9 0 23 7 30 15 7 8 17 15 22 15 5 0 64 27
131 60 67 33 149 66 181 75 33 8 64 19 70 25 5 5 22 10 37 10 15 0 30 4 33 9
8 12 -17 31 -124 95 -52 31 -101 63 -110 70 -8 8 -31 19 -51 26 -21 7 -61 30
-90 51 -69 48 -244 153 -301 179 -24 12 -54 27 -68 35 -13 8 -26 12 -29 9 -8
-8 30 -33 134 -89 120 -65 119 -72 -3 -12 -48 24 -103 49 -122 56 -68 26 -96
40 -115 61 -24 27 0 27 35 0 14 -11 31 -20 38 -20 22 0 13 18 -20 39 -18 11
-46 32 -62 46 -16 14 -30 25 -31 25 -1 0 -9 -8 -18 -18z m-13 -106 c39 6 58
-1 206 -75 90 -44 172 -81 183 -81 25 0 101 -36 117 -56 7 -7 18 -14 24 -14 6
0 22 -9 36 -20 l25 -20 -81 0 c-44 0 -106 5 -138 11 -31 5 -159 12 -284 13
-271 4 -382 13 -389 33 -3 8 -13 11 -27 8 -20 -5 -20 -5 2 8 12 7 20 16 17 19
-3 3 8 18 26 32 17 15 29 29 26 33 -9 9 -74 -25 -81 -42 -5 -15 -36 -21 -36
-7 0 15 118 73 122 60 5 -13 75 23 159 81 24 16 45 26 47 21 2 -5 23 -7 46 -4z
m-364 -206 c0 -6 -24 -10 -57 -9 -41 1 -51 3 -33 8 41 12 90 12 90 1z m555
-70 c193 -6 365 -13 383 -16 21 -4 32 -2 32 6 0 7 12 5 33 -8 17 -11 59 -34
92 -52 33 -18 70 -45 82 -59 13 -14 23 -21 23 -14 0 6 -4 15 -10 18 -5 3 -10
11 -10 17 0 6 6 5 16 -3 9 -7 33 -21 53 -31 32 -16 33 -18 7 -13 -18 4 -32 1
-40 -8 -6 -8 -45 -27 -86 -42 -41 -16 -142 -61 -224 -102 -82 -41 -185 -88
-230 -104 -44 -17 -85 -34 -92 -40 -14 -11 -159 -61 -258 -89 -50 -14 -73 -17
-82 -9 -16 13 -34 4 -34 -17 0 -11 -15 -7 -62 17 -35 17 -76 41 -93 53 -16 12
-73 46 -125 75 -52 29 -109 64 -126 79 l-31 27 29 100 c32 110 74 202 97 214
9 4 48 5 86 1 39 -3 72 -3 75 1 7 9 75 17 115 12 17 -1 188 -8 380 -13z
m-1150 -2 c-157 -37 -158 -37 -144 -23 20 19 76 33 134 33 l50 0 -40 -10z
m297 -68 c-1 -41 -3 -117 -3 -167 l0 -93 -112 -1 c-145 -2 -149 -2 -302 11
-166 15 -171 17 -166 78 4 51 51 132 76 132 8 0 22 8 32 18 17 18 105 46 221
72 28 7 55 16 58 21 3 5 49 8 102 7 l97 -3 -3 -75z m121 64 c-2 -5 -16 -52
-31 -104 -16 -52 -35 -115 -43 -140 l-13 -45 -6 45 c-3 25 -2 68 2 95 3 28 7
73 7 101 1 28 4 53 7 57 9 9 79 1 77 -9z m-615 -10 c5 -3 -78 -108 -88 -112
-4 -1 -5 8 -3 21 3 13 -4 42 -16 65 l-20 40 62 -5 c34 -3 64 -7 65 -9z m23
-330 c38 -4 69 -10 69 -14 0 -4 -35 -13 -77 -19 -133 -21 -123 -21 -123 9 0
34 7 41 37 35 14 -2 56 -7 94 -11z m640 -86 c54 -29 97 -53 95 -55 -2 -2 -47
13 -101 32 -54 19 -100 35 -102 35 -2 0 -3 9 -3 20 0 11 3 20 6 20 4 0 51 -23
105 -52z m609 -92 c0 -9 -192 -116 -200 -111 -6 4 -10 16 -10 28 0 19 14 26
98 53 102 34 112 36 112 30z"/>
<path d="M2035 653 c-11 -2 -58 -11 -105 -19 -47 -9 -112 -21 -145 -29 -93
-21 -220 -32 -460 -40 -277 -10 -315 -14 -324 -37 -9 -25 9 -98 24 -98 6 0 31
9 55 21 24 12 78 27 119 34 163 28 250 45 275 55 20 7 44 5 96 -9 59 -17 70
-17 70 -5 0 8 -6 15 -12 15 -13 2 102 19 137 21 11 0 57 -3 103 -7 54 -5 82
-4 82 3 0 5 -30 13 -67 17 -85 9 -70 18 79 46 65 12 118 26 118 30 0 9 -11 10
-45 2z m-855 -143 c-108 -27 -144 -29 -148 -8 -4 21 17 25 133 26 l90 1 -75
-19z"/>
</g>
</svg>
