<?xml version="1.0" standalone="no"?>
<!DOCTYPE svg PUBLIC "-//W3C//DTD SVG 20010904//EN"
 "http://www.w3.org/TR/2001/REC-SVG-20010904/DTD/svg10.dtd">
<svg version="1.0" xmlns="http://www.w3.org/2000/svg"
 width="306.000000pt" height="134.000000pt" viewBox="0 0 306.000000 134.000000"
 preserveAspectRatio="xMidYMid meet">
<metadata>
Created by potrace 1.16, written by Peter Selinger 2001-2019
</metadata>
<g transform="translate(0.000000,134.000000) scale(0.100000,-0.100000)"
fill="#000000" stroke="none">
<path d="M255 1196 c-18 -38 -51 -76 -66 -76 -10 0 -8 -38 4 -56 4 -7 1 -17
-7 -23 -8 -7 -12 -20 -9 -30 3 -11 -5 -122 -16 -247 -25 -262 -25 -267 -14
-354 6 -50 12 -66 25 -68 11 -2 22 6 29 21 6 13 23 31 37 39 32 19 182 71 187
66 15 -15 12 -85 -6 -120 -15 -29 -16 -38 -6 -38 14 0 61 80 62 109 1 9 2 28
3 43 2 24 13 31 145 83 82 32 230 78 347 108 121 31 205 58 208 66 3 9 -2 11
-16 7 -14 -5 -28 1 -46 19 -14 14 -32 25 -41 25 -18 0 -187 77 -195 89 -6 10
-96 56 -130 66 -14 4 -51 25 -82 46 -31 22 -60 39 -63 39 -3 0 -43 24 -88 54
-45 29 -96 60 -113 69 -17 9 -37 23 -44 32 -8 10 -24 21 -37 26 -15 5 -21 14
-17 24 4 10 0 15 -14 15 -14 0 -27 -12 -37 -34z m122 -73 c48 -31 118 -76 154
-99 36 -24 73 -46 82 -50 10 -3 17 -9 17 -13 0 -4 -37 11 -83 34 -46 22 -130
55 -188 74 -57 19 -107 37 -111 40 -6 5 29 71 38 71 2 0 43 -25 91 -57z m-72
-64 c14 -6 5 -8 -29 -6 -31 1 -51 7 -54 16 -3 10 3 11 29 6 19 -4 43 -11 54
-16z m245 -103 c36 -19 76 -37 90 -41 13 -4 58 -23 99 -42 40 -19 101 -45 135
-57 34 -13 84 -35 111 -48 28 -14 63 -28 79 -32 38 -9 19 -23 -44 -32 -43 -5
-188 -38 -370 -84 -47 -12 -96 -24 -109 -27 -21 -5 -23 -3 -18 19 4 14 23 54
42 89 20 34 34 68 31 74 -9 24 -116 34 -134 13 -6 -7 -12 -60 -15 -116 -3 -57
-7 -105 -9 -107 -8 -8 -249 -48 -254 -42 -4 4 2 37 14 74 21 70 31 113 36 148
1 11 8 34 15 50 39 90 56 126 87 182 l34 62 58 -25 c31 -14 86 -40 122 -58z
m-250 37 c0 -9 -91 -226 -97 -233 -6 -7 9 217 16 238 2 6 81 1 81 -5z m250
-251 c0 -5 -6 -22 -14 -38 -8 -16 -24 -50 -35 -76 -11 -27 -22 -48 -23 -48 -2
0 -2 109 1 158 1 13 71 17 71 4z m155 -131 c-18 -16 -196 -84 -203 -77 -10 10
15 23 93 46 38 12 79 26 90 30 27 12 31 12 20 1z m-271 -94 c-2 -7 -42 -26
-87 -41 -45 -15 -100 -38 -122 -51 l-41 -23 0 34 c0 19 5 34 11 34 5 0 3 4 -5
10 -18 11 -15 12 95 33 106 20 156 21 149 4z"/>
<path d="M1722 1213 c-5 -10 -17 -43 -27 -73 -10 -30 -31 -84 -48 -120 -16
-36 -46 -106 -66 -156 -20 -49 -65 -152 -101 -227 l-65 -137 -47 0 c-47 0 -48
1 -42 25 4 15 2 25 -4 25 -20 0 -49 -55 -51 -99 -1 -25 -4 -47 -6 -51 -10 -15
-16 -120 -7 -120 5 0 27 7 48 16 122 52 421 107 586 108 l117 1 30 -35 31 -35
18 23 c10 13 36 34 58 47 66 40 116 67 119 63 1 -2 -1 -28 -6 -58 -4 -30 -13
-91 -19 -134 -6 -43 -12 -84 -13 -89 -1 -6 5 -12 13 -14 12 -3 21 25 42 134
15 76 29 149 30 162 2 18 16 31 54 50 97 50 190 91 299 132 61 23 142 56 180
74 39 18 79 35 89 39 10 4 17 9 14 12 -3 2 -47 -6 -97 -20 -84 -22 -95 -23
-138 -10 -25 8 -59 14 -75 14 -29 0 -175 53 -191 69 -8 8 0 30 53 148 12 26
31 48 50 58 16 8 30 17 30 19 0 2 -33 4 -74 4 -40 0 -92 6 -115 12 -56 15 -64
8 -56 -50 7 -50 -1 -127 -15 -150 -7 -11 -22 -10 -87 8 -43 11 -109 24 -147
28 l-68 7 7 66 c4 36 9 90 11 119 2 30 9 62 15 73 18 34 1 37 -58 8 -32 -15
-71 -30 -88 -33 -16 -4 -24 -3 -17 0 28 13 9 32 -48 48 -32 9 -62 21 -65 26
-10 16 -44 11 -53 -7z m88 -49 c19 -4 41 -7 48 -5 18 3 15 -16 -5 -28 -10 -6
-15 -11 -12 -11 4 0 -16 -24 -44 -52 -27 -29 -66 -78 -85 -108 -43 -67 -122
-166 -122 -152 0 5 9 31 21 58 11 27 24 58 28 69 5 11 23 52 40 91 17 39 31
76 31 83 0 28 31 72 48 67 9 -2 33 -8 52 -12z m195 -76 c-12 -122 -27 -253
-29 -255 -1 -2 -13 30 -25 70 -13 39 -34 102 -47 140 -13 37 -22 67 -21 67 2
0 27 9 57 20 30 10 59 19 63 20 4 0 5 -28 2 -62z m-135 -40 c7 -24 30 -97 53
-163 l41 -120 0 -158 1 -157 -59 5 c-32 3 -66 9 -75 13 -9 5 -70 9 -136 10
-170 3 -235 11 -235 28 0 19 39 97 54 106 6 4 8 8 3 8 -22 0 32 88 133 218 25
31 61 82 80 111 37 59 108 141 121 141 5 0 13 -19 19 -42z m620 -23 c0 -3 -4
-13 -10 -23 -5 -9 -23 -51 -40 -93 -27 -68 -33 -76 -53 -71 -38 9 -47 21 -36
49 5 14 10 52 11 84 l2 59 63 0 c35 0 63 -2 63 -5z m-379 -150 c56 -6 193 -45
206 -59 8 -8 -198 0 -268 10 -32 5 -36 9 -37 35 -1 25 3 28 21 25 12 -3 47 -8
78 -11z m273 -64 c11 -4 15 -10 10 -13 -10 -6 -54 8 -54 17 0 7 21 5 44 -4z
m-84 -26 c7 -4 3 -141 -5 -181 -4 -18 -27 -29 -132 -62 -145 -45 -173 -48
-173 -17 0 12 3 25 7 28 3 4 5 36 4 72 -1 36 1 91 5 122 l7 56 140 -7 c77 -4
143 -9 147 -11z m180 -7 c10 -6 7 -7 -10 -2 -14 3 -32 11 -40 16 -10 6 -7 7
10 2 14 -3 32 -11 40 -16z m-113 -6 c10 -6 8 -22 -8 -70 -11 -34 -22 -62 -24
-62 -1 0 -3 32 -4 70 -2 71 5 82 36 62z m238 -41 l110 -17 -45 -16 c-86 -31
-236 -76 -274 -83 -37 -7 -38 -7 -31 16 4 13 13 38 20 54 8 17 16 41 20 54 6
21 11 23 49 16 22 -4 91 -15 151 -24z m-40 -96 c-16 -7 -52 -23 -80 -36 -27
-12 -74 -33 -103 -46 l-53 -23 7 22 c3 13 8 24 9 26 1 1 42 14 91 27 49 13
100 28 114 34 37 15 50 12 15 -4z m-275 -95 c0 -11 -10 -26 -22 -33 -88 -53
-167 -96 -188 -102 -22 -7 -23 -6 -11 9 11 14 11 16 -2 16 -19 0 -30 42 -14
52 7 4 44 17 82 28 39 12 86 27 105 35 48 18 50 18 50 -5z m-881 -87 c8 -15
13 -16 29 -6 17 10 180 10 330 -1 63 -4 82 -16 26 -16 -21 0 -75 -7 -119 -16
-212 -42 -274 -56 -323 -71 -29 -9 -55 -14 -57 -11 -5 5 14 118 22 131 9 15
82 7 92 -10z m591 -3 c0 -5 -5 -10 -11 -10 -5 0 -7 5 -4 10 3 6 8 10 11 10 2
0 4 -4 4 -10z"/>
</g>
</svg>
