<?xml version="1.0" standalone="no"?>
<!DOCTYPE svg PUBLIC "-//W3C//DTD SVG 20010904//EN"
 "http://www.w3.org/TR/2001/REC-SVG-20010904/DTD/svg10.dtd">
<svg version="1.0" xmlns="http://www.w3.org/2000/svg"
 width="203.000000pt" height="120.000000pt" viewBox="0 0 203.000000 120.000000"
 preserveAspectRatio="xMidYMid meet">
<metadata>
Created by potrace 1.16, written by Peter Selinger 2001-2019
</metadata>
<g transform="translate(0.000000,120.000000) scale(0.100000,-0.100000)"
fill="#000000" stroke="none">
<path d="M1485 1100 c-45 -15 -92 -34 -105 -42 -14 -9 -43 -21 -65 -28 -44
-14 -268 -105 -300 -123 -12 -6 -59 -10 -112 -8 -61 1 -93 -1 -93 -8 0 -6 -9
-11 -21 -11 -11 0 -18 4 -15 9 8 12 -11 16 -248 53 -46 7 -86 19 -95 29 -10
10 -40 19 -76 22 -33 3 -77 9 -97 13 -28 5 -39 3 -42 -7 -14 -52 -27 -158 -36
-309 -6 -96 -15 -195 -19 -220 -7 -45 8 -108 22 -94 4 4 7 32 7 63 l0 56 148
25 c153 26 364 33 465 17 l49 -9 -2 -81 c-4 -123 -1 -167 10 -167 6 0 10 23
10 51 0 27 5 70 11 94 9 37 15 44 40 47 17 3 32 1 34 -2 3 -4 25 -13 50 -19
24 -6 66 -25 92 -41 26 -17 53 -30 60 -30 7 0 18 -9 25 -20 7 -11 19 -20 26
-20 8 0 46 -17 85 -37 39 -21 78 -38 87 -38 11 0 14 -9 12 -37 -2 -23 2 -38 8
-38 8 0 9 -20 4 -66 -5 -54 -4 -66 7 -62 8 3 17 25 21 49 3 24 16 63 27 86 12
23 21 51 21 63 0 11 9 38 20 60 11 22 20 48 20 59 0 11 4 22 9 25 5 3 7 15 4
26 -6 22 14 113 58 265 36 123 61 188 111 285 50 96 65 112 97 105 25 -5 61 9
50 19 -3 3 -62 8 -131 11 -69 2 -131 6 -139 9 -8 2 -50 -9 -94 -24z m224 -10
l33 0 -18 -27 c-33 -50 -60 -107 -88 -185 -15 -42 -36 -94 -47 -115 -10 -20
-19 -44 -19 -53 0 -9 -9 -40 -19 -70 -11 -30 -31 -113 -45 -185 -29 -139 -34
-160 -41 -154 -2 3 1 25 6 49 27 114 87 519 98 648 7 93 16 106 71 97 19 -2
50 -5 69 -5z m-163 -55 c3 -19 4 -54 0 -78 -3 -23 -8 -64 -11 -92 -16 -140
-33 -219 -104 -491 l-16 -62 -83 41 c-45 22 -82 46 -82 52 0 6 13 26 30 45
l29 35 36 -37 c20 -21 38 -38 41 -38 11 0 2 19 -22 46 -31 35 -29 70 11 174
28 72 33 78 53 58 20 -20 21 -4 1 36 -17 36 -18 48 -8 128 11 90 4 132 -14 87
l-10 -24 -6 23 -6 24 -45 -35 c-44 -33 -161 -166 -169 -190 -2 -7 -11 -21 -21
-32 -9 -11 -20 -29 -23 -40 -5 -13 6 -6 27 18 l34 38 18 -38 c19 -39 60 -103
72 -113 4 -3 13 -13 21 -22 12 -16 8 -24 -29 -73 -23 -30 -45 -55 -49 -55 -3
0 -26 14 -51 31 -58 39 -135 74 -184 83 -63 12 -69 24 -51 98 39 150 55 197
70 192 26 -10 476 196 506 233 18 21 28 15 35 -22z m-104 5 c-51 -31 -267
-138 -325 -161 -33 -13 -53 -17 -55 -10 -2 6 -10 11 -18 11 -34 0 -7 18 87 58
55 23 105 40 111 36 7 -5 8 -3 3 6 -6 9 -2 10 15 5 13 -4 20 -3 17 2 -3 5 7
10 23 11 16 1 54 16 85 32 64 34 109 41 57 10z m-1074 -85 c7 -6 -30 -66 -44
-72 -8 -3 -12 -13 -9 -23 3 -10 -19 -66 -51 -131 -30 -63 -53 -103 -50 -89 3
14 6 68 7 120 1 53 6 121 12 153 l10 58 61 -7 c34 -4 62 -8 64 -9z m285 -52
c48 -8 86 -17 85 -18 -9 -8 -198 -12 -281 -7 l-97 7 15 23 c15 21 21 22 103
17 48 -3 127 -13 175 -22z m746 -40 c-2 -27 -9 -68 -15 -93 -24 -91 -57 -195
-65 -204 -4 -5 -16 9 -26 30 -10 21 -34 65 -55 96 l-38 57 45 54 c28 35 63 64
97 81 28 14 54 26 56 26 2 0 2 -21 1 -47z m-601 -11 c84 -2 93 -4 88 -19 -2
-10 -7 -47 -11 -83 -13 -146 -17 -180 -25 -185 -10 -6 -222 12 -357 31 -56 8
-126 14 -155 15 -93 1 -93 0 -47 116 38 93 44 102 77 115 35 13 175 16 430 10z
m242 -2 c-8 -5 -19 -10 -25 -10 -5 0 -3 5 5 10 8 5 20 10 25 10 6 0 3 -5 -5
-10z m-88 -12 c-16 -16 -15 -29 2 -22 12 5 12 -2 4 -38 -21 -83 -34 -84 -34
-3 1 67 3 75 21 75 15 0 16 -3 7 -12z m-45 -90 c-2 -13 -4 -5 -4 17 -1 22 1
32 4 23 2 -10 2 -28 0 -40z m5 -59 c4 -3 2 -23 -6 -45 l-15 -39 0 60 c1 33 3
53 6 45 3 -8 10 -18 15 -21z m-447 -120 c5 -5 -5 -9 -24 -9 -18 0 -73 -7 -122
-16 -90 -17 -119 -13 -86 10 9 7 17 18 17 24 0 12 200 4 215 -9z m642 -105
c40 -20 78 -44 85 -53 12 -14 11 -14 -4 -3 -9 8 -23 10 -29 6 -8 -5 -9 -3 -4
6 6 10 4 12 -8 7 -9 -3 -19 -2 -22 4 -9 13 -86 50 -115 54 -14 2 -36 9 -50 15
-21 9 -17 10 25 5 29 -3 80 -20 122 -41z m173 -104 c8 -5 11 -10 5 -10 -5 0
-17 5 -25 10 -8 5 -10 10 -5 10 6 0 17 -5 25 -10z m-15 -20 c13 -6 15 -9 5 -9
-8 0 -22 4 -30 9 -18 12 -2 12 25 0z m145 -55 c0 -3 -18 4 -40 15 -22 11 -40
23 -40 25 0 3 18 -4 40 -15 22 -11 40 -23 40 -25z m20 -52 c0 -5 -5 -15 -10
-23 -8 -12 -10 -11 -10 8 0 12 5 22 10 22 6 0 10 -3 10 -7z"/>
<path d="M1115 910 c-3 -6 1 -7 9 -4 18 7 21 14 7 14 -6 0 -13 -4 -16 -10z"/>
</g>
</svg>
