<?xml version="1.0" standalone="no"?>
<!DOCTYPE svg PUBLIC "-//W3C//DTD SVG 20010904//EN"
 "http://www.w3.org/TR/2001/REC-SVG-20010904/DTD/svg10.dtd">
<svg version="1.0" xmlns="http://www.w3.org/2000/svg"
 width="231.000000pt" height="113.000000pt" viewBox="0 0 231.000000 113.000000"
 preserveAspectRatio="xMidYMid meet">
<metadata>
Created by potrace 1.16, written by Peter Selinger 2001-2019
</metadata>
<g transform="translate(0.000000,113.000000) scale(0.100000,-0.100000)"
fill="#000000" stroke="none">
<path d="M1399 1058 c0 -2 -2 -15 -3 -31 -2 -26 -46 -84 -46 -59 0 7 -12 12
-27 12 -43 0 -434 -137 -457 -160 l-20 -20 21 0 c11 0 26 7 33 15 10 12 39 22
90 30 11 2 128 38 163 50 20 7 37 12 37 11 0 -5 -150 -91 -206 -119 -47 -24
-55 -25 -124 -16 -41 5 -86 8 -100 8 -14 -1 -42 6 -62 15 -21 9 -57 16 -80 16
-24 0 -59 4 -78 9 -60 16 -401 34 -413 22 -17 -17 -1 -23 75 -28 124 -7 142
-18 98 -58 -11 -10 -34 -40 -51 -66 -17 -27 -36 -49 -43 -49 -6 0 -12 22 -13
55 -1 30 -9 68 -18 85 -18 35 -41 41 -30 8 16 -53 24 -105 20 -138 -2 -19 -7
-113 -10 -208 -5 -139 -3 -173 7 -170 7 3 14 22 16 44 5 78 7 80 104 126 l93
44 135 -1 c74 -1 151 -5 171 -8 35 -7 37 -9 41 -59 3 -28 1 -67 -4 -86 -5 -19
-7 -36 -4 -39 11 -11 36 20 42 53 3 19 7 34 8 34 10 0 169 -66 192 -79 17 -10
48 -24 70 -31 21 -7 50 -23 64 -35 14 -13 45 -33 69 -45 29 -15 40 -25 32 -30
-21 -13 39 -19 73 -7 17 5 44 21 59 34 16 12 34 23 40 23 6 0 49 20 96 44 48
24 97 47 111 51 14 4 48 17 75 30 59 27 192 77 254 96 24 7 49 18 55 24 6 5
22 11 35 13 32 3 39 11 21 22 -9 6 6 11 47 15 57 7 93 19 83 28 -9 8 -115 -11
-230 -41 -63 -17 -167 -44 -230 -60 -63 -16 -160 -43 -215 -60 -92 -28 -172
-44 -235 -46 -24 -1 -25 -3 -22 -68 l2 -67 -37 15 c-47 20 -57 29 -21 20 51
-12 37 11 -18 28 -84 27 -355 222 -367 265 -5 22 -1 30 66 130 29 43 55 71 65
71 10 0 22 4 28 9 5 5 50 30 99 57 168 89 241 132 255 148 19 23 50 7 50 -25
0 -31 23 -41 34 -14 4 12 15 14 48 9 24 -4 48 -10 53 -14 6 -4 23 -10 38 -14
16 -4 88 -36 160 -72 73 -35 150 -69 172 -75 22 -6 56 -23 75 -38 19 -15 64
-44 100 -66 36 -21 72 -44 80 -50 23 -18 49 -25 55 -15 3 5 -12 18 -35 30 -22
11 -40 24 -40 29 0 5 -14 14 -31 22 -17 7 -57 31 -88 54 -31 22 -101 67 -156
99 -183 107 -270 164 -318 207 -44 41 -76 64 -78 57z m58 -73 c3 -9 23 -25 44
-35 20 -11 66 -39 101 -63 35 -24 82 -54 105 -67 62 -34 46 -35 -23 -1 -99 48
-198 89 -247 103 -52 14 -55 18 -29 53 20 28 40 32 49 10z m-992 -193 l40 -7
-60 -38 c-33 -20 -62 -37 -65 -37 -3 0 -4 20 -2 45 4 50 7 51 87 37z m243 -44
c38 -23 41 -39 29 -150 -10 -92 3 -86 -185 -81 -92 2 -185 8 -207 13 -22 5
-60 11 -85 14 l-45 6 24 -20 c13 -11 34 -20 47 -20 12 0 25 -4 28 -8 6 -10
-93 -66 -101 -58 -3 3 -8 34 -10 70 -5 61 -4 67 23 99 16 19 36 43 44 53 8 11
27 34 43 52 l27 34 0 -41 c0 -36 3 -41 22 -41 12 0 49 19 81 42 66 45 96 55
177 55 38 1 65 -5 88 -19z m124 -7 l27 -6 -40 -62 c-22 -35 -41 -63 -43 -63
-2 0 -4 32 -5 70 -2 76 -2 76 61 61z m1083 -281 c-11 -5 -27 -9 -35 -9 -13 -1
-13 0 0 9 8 5 24 9 35 9 l20 0 -20 -9z m-1058 -66 c32 -22 67 -43 77 -47 10
-4 17 -10 14 -12 -5 -6 -132 45 -166 66 -13 8 -22 24 -22 38 0 21 2 22 19 10
11 -8 46 -32 78 -55z m1003 52 c0 -2 -28 -13 -62 -26 -35 -12 -97 -37 -138
-55 -283 -125 -337 -149 -350 -160 -30 -23 -53 -12 -68 33 -10 30 -11 47 -4
54 6 6 43 14 84 18 40 4 100 17 133 29 33 12 123 37 200 56 77 18 151 38 165
44 27 11 40 13 40 7z"/>
<path d="M1156 815 c4 -8 13 -15 21 -15 9 0 31 -10 51 -22 19 -12 51 -27 71
-35 l36 -14 -35 6 c-19 4 -58 9 -87 12 -36 4 -50 9 -46 18 7 19 -15 29 -33 15
-8 -7 -28 -10 -47 -8 -55 9 -77 -10 -34 -29 22 -10 22 -12 15 -139 -3 -71 -9
-151 -13 -179 -6 -45 -5 -48 8 -32 11 13 54 25 148 43 74 13 143 27 154 30 10
4 44 10 75 15 58 8 151 30 210 48 51 16 134 21 172 11 49 -15 54 4 6 24 -24
10 -50 22 -58 27 -42 26 -132 62 -296 117 -100 34 -207 76 -237 92 -63 33 -90
38 -81 15z m99 -95 c14 0 60 -11 103 -24 42 -14 111 -31 153 -40 72 -14 209
-64 209 -77 0 -3 -48 -18 -107 -34 -124 -32 -300 -57 -420 -59 -51 -1 -82 -5
-80 -11 2 -5 20 -10 40 -10 19 0 33 -2 31 -5 -7 -6 -98 -29 -102 -25 -2 2 1
50 7 107 17 154 58 216 123 186 9 -4 28 -8 43 -8z m-154 -17 c-12 -20 -14 -14
-5 12 4 9 9 14 11 11 3 -2 0 -13 -6 -23z"/>
</g>
</svg>
