<?xml version="1.0" standalone="no"?>
<!DOCTYPE svg PUBLIC "-//W3C//DTD SVG 20010904//EN"
 "http://www.w3.org/TR/2001/REC-SVG-20010904/DTD/svg10.dtd">
<svg version="1.0" xmlns="http://www.w3.org/2000/svg"
 width="182.000000pt" height="86.000000pt" viewBox="0 0 182.000000 86.000000"
 preserveAspectRatio="xMidYMid meet">
<metadata>
Created by potrace 1.16, written by Peter Selinger 2001-2019
</metadata>
<g transform="translate(0.000000,86.000000) scale(0.100000,-0.100000)"
fill="#000000" stroke="none">
<path d="M796 751 c-10 -11 -25 -46 -35 -78 l-18 -58 -40 3 c-27 2 -44 -2 -53
-13 -21 -26 -212 -12 -305 21 -22 8 -69 16 -103 17 -62 2 -65 1 -98 -35 -19
-21 -34 -42 -34 -48 0 -17 25 -11 38 10 10 16 23 20 72 20 33 0 60 -4 60 -10
0 -6 -13 -31 -29 -56 l-29 -47 -20 47 c-12 26 -28 46 -36 46 -20 0 -20 -13 -2
-48 7 -15 16 -79 20 -147 8 -140 14 -185 28 -202 19 -23 52 -14 93 26 73 71
102 82 218 79 l102 -2 2 -59 c2 -43 9 -69 25 -93 33 -48 58 -44 88 12 29 55
78 89 157 108 66 16 155 41 227 62 26 8 57 14 67 14 11 0 54 9 97 21 105 29
196 48 204 43 9 -6 4 -117 -6 -132 -4 -7 -4 -18 1 -24 4 -7 8 -41 8 -75 1 -56
15 -93 35 -93 4 0 10 78 12 173 5 134 10 185 26 232 11 33 23 78 27 99 3 22
16 59 27 82 11 24 17 48 13 54 -6 9 -40 12 -135 10 -40 0 -73 -26 -52 -39 7
-4 14 -14 15 -22 2 -8 5 -18 9 -24 6 -11 11 -61 9 -110 -1 -22 -4 -26 -13 -17
-7 7 -21 12 -33 12 -11 0 -29 6 -40 14 -11 7 -81 26 -155 40 -74 15 -157 37
-185 50 -27 12 -76 31 -108 42 -49 15 -65 27 -94 66 -19 27 -36 48 -37 48 -2
0 -11 -9 -20 -19z m44 -93 c0 -9 -42 -28 -48 -23 -2 2 -1 18 3 35 7 30 8 31
26 14 10 -9 19 -21 19 -26z m722 2 c13 0 15 -5 8 -27 -5 -16 -17 -59 -26 -96
-9 -37 -18 -67 -19 -65 -1 2 -5 37 -8 78 -4 41 -9 86 -13 99 -6 22 -5 24 17
18 13 -4 31 -7 41 -7z m-598 -60 c9 0 41 -11 72 -25 31 -14 86 -30 123 -35
114 -18 175 -33 206 -50 17 -9 49 -23 73 -30 45 -14 51 -33 11 -38 -13 -2 -64
-14 -114 -27 -93 -25 -436 -109 -492 -120 -42 -8 -103 -9 -140 -1 l-29 7 9 52
c12 69 53 169 92 226 26 37 40 48 76 57 35 9 50 8 71 -2 15 -8 34 -14 42 -14z
m-570 -36 c16 -2 31 -5 33 -7 3 -4 -74 -61 -91 -68 -12 -5 -19 39 -11 69 4 18
10 22 23 17 9 -4 30 -9 46 -11z m326 -4 c0 -14 -33 -80 -40 -80 -3 0 -7 20 -9
45 -2 42 0 45 24 45 14 0 25 -4 25 -10z m-82 -83 c7 -46 12 -100 12 -121 l0
-39 -137 7 c-76 3 -168 6 -204 6 -46 -1 -69 3 -78 14 -13 15 -12 96 0 96 5 0
16 14 26 30 23 39 31 38 35 -7 2 -20 8 -38 14 -40 6 -2 42 24 80 58 38 34 77
64 87 68 9 3 48 7 85 9 l68 2 12 -83z m-303 -206 c-16 -10 -41 -30 -54 -45
-34 -36 -41 -33 -41 19 l0 45 63 0 62 0 -30 -19z m389 -41 l29 -11 -28 -29
c-33 -34 -41 -31 -50 23 -6 29 -4 36 6 32 8 -2 27 -9 43 -15z"/>
<path d="M796 551 c-14 -15 -15 -23 -5 -47 6 -16 9 -67 7 -113 -4 -104 6 -115
73 -83 46 21 86 33 179 52 166 33 175 36 178 58 4 25 -28 41 -123 61 -33 7
-71 19 -85 26 -26 14 -183 65 -198 65 -5 0 -16 -8 -26 -19z m124 -62 c19 -6
56 -21 82 -32 25 -11 57 -21 70 -22 13 -1 29 -3 36 -4 28 -3 9 -19 -30 -25
-47 -7 -184 -40 -209 -50 -14 -6 -16 4 -16 74 -1 90 -6 85 67 59z"/>
</g>
</svg>
