<?xml version="1.0" standalone="no"?>
<!DOCTYPE svg PUBLIC "-//W3C//DTD SVG 20010904//EN"
 "http://www.w3.org/TR/2001/REC-SVG-20010904/DTD/svg10.dtd">
<svg version="1.0" xmlns="http://www.w3.org/2000/svg"
 width="107.000000pt" height="106.000000pt" viewBox="0 0 107.000000 106.000000"
 preserveAspectRatio="xMidYMid meet">
<metadata>
Created by potrace 1.16, written by Peter Selinger 2001-2019
</metadata>
<g transform="translate(0.000000,106.000000) scale(0.100000,-0.100000)"
fill="#000000" stroke="none">
<path d="M411 926 c-7 -9 -37 -27 -67 -42 -30 -15 -57 -31 -60 -36 -4 -5 -34
-9 -68 -7 -33 1 -69 -1 -78 -6 -24 -10 -23 -31 1 -38 29 -7 44 -138 45 -392 1
-121 5 -226 9 -233 6 -8 14 -9 26 -2 21 11 31 4 31 -21 0 -13 8 -17 35 -17 41
0 50 10 35 39 -10 17 -8 25 10 44 12 12 20 31 18 41 -3 19 13 30 98 62 64 25
74 17 63 -45 -15 -76 8 -83 80 -25 76 63 111 79 151 71 33 -7 193 6 211 17 5
3 9 10 9 15 0 7 -29 9 -78 6 -46 -2 -100 2 -128 9 -27 7 -70 15 -96 19 -29 4
-57 16 -74 31 -24 23 -28 24 -43 10 -10 -9 -22 -16 -27 -16 -5 0 -35 25 -66
54 l-57 55 47 33 c26 18 59 41 75 51 27 17 27 17 27 -8 0 -45 27 -41 85 14
l54 52 123 -3 c118 -2 154 3 143 22 -7 11 -61 18 -189 24 -103 5 -111 9 -161
65 -27 30 -45 20 -45 -25 0 -33 -1 -34 -22 -23 -12 6 -37 26 -55 44 -31 30
-33 36 -31 94 2 66 -10 92 -31 67z m-1 -61 c0 -39 -5 -42 -35 -19 -20 15 -20
15 5 34 14 11 26 20 28 20 1 0 2 -16 2 -35z m-29 -65 c10 -6 19 -17 19 -25 0
-8 6 -15 13 -15 6 0 30 -18 51 -40 22 -22 47 -42 58 -46 31 -10 20 -30 -39
-70 -54 -36 -121 -74 -131 -74 -2 0 -2 25 0 55 3 30 1 55 -3 55 -4 0 -31 -11
-60 -24 -29 -14 -56 -23 -59 -21 -4 2 -4 25 0 50 5 36 18 57 61 104 59 64 62
66 90 51z m-131 -40 c-17 -24 -25 -29 -31 -18 -17 26 -10 47 19 50 37 5 37 4
12 -32z m364 -76 c22 -8 20 -27 -4 -42 -18 -11 -20 -10 -20 18 0 32 1 33 24
24z m-301 -102 c-6 -24 -11 -26 -32 -13 -10 7 -8 12 10 24 27 20 30 18 22 -11z
m-23 -63 l25 -21 -35 -29 c-34 -29 -35 -29 -43 -7 -4 12 -7 38 -5 59 2 41 8
41 58 -2z m20 -94 c-10 -27 -11 -27 -30 -10 -20 18 -20 19 7 37 32 20 38 13
23 -27z m78 31 c15 -8 44 -33 65 -55 l39 -41 -47 -20 c-26 -11 -52 -20 -59
-20 -7 0 -43 -16 -81 -35 -60 -30 -71 -33 -78 -19 -9 17 0 124 10 124 15 0 41
-33 36 -46 -9 -23 14 -16 36 12 12 15 21 38 21 51 0 24 16 63 26 63 3 0 17 -6
32 -14z m230 -111 l33 -12 -25 -16 c-14 -10 -37 -24 -49 -32 l-24 -15 0 50 c0
42 3 50 16 44 9 -4 31 -12 49 -19z m-308 -93 c0 -5 -8 -16 -18 -25 -14 -13
-21 -14 -30 -5 -10 10 -7 15 10 25 27 15 38 16 38 5z"/>
</g>
</svg>
