<?xml version="1.0" standalone="no"?>
<!DOCTYPE svg PUBLIC "-//W3C//DTD SVG 20010904//EN"
 "http://www.w3.org/TR/2001/REC-SVG-20010904/DTD/svg10.dtd">
<svg version="1.0" xmlns="http://www.w3.org/2000/svg"
 width="247.000000pt" height="127.000000pt" viewBox="0 0 247.000000 127.000000"
 preserveAspectRatio="xMidYMid meet">
<metadata>
Created by potrace 1.16, written by Peter Selinger 2001-2019
</metadata>
<g transform="translate(0.000000,127.000000) scale(0.100000,-0.100000)"
fill="#000000" stroke="none">
<path d="M1133 1188 c-11 -13 -31 -45 -44 -72 l-24 -48 -53 6 c-44 5 -54 3
-59 -11 -4 -9 -1 -19 5 -21 9 -3 8 -9 -2 -23 -10 -15 -11 -29 -4 -57 6 -20 13
-61 15 -90 l5 -52 -54 5 c-29 3 -120 7 -203 9 -82 2 -161 8 -175 14 -14 5 -53
13 -88 17 -46 5 -71 14 -93 32 -39 33 -53 20 -50 -47 l2 -50 -56 6 c-59 7 -94
-8 -75 -31 24 -29 49 -389 29 -427 -6 -11 -6 -25 0 -35 5 -10 12 -26 15 -36 6
-19 35 -23 37 -4 1 6 2 21 3 32 1 20 29 32 79 34 16 1 52 12 80 25 29 14 75
28 102 31 28 3 84 10 125 15 110 13 291 18 318 8 16 -5 22 -13 18 -26 -3 -9
-7 -59 -8 -111 -1 -66 -5 -94 -15 -98 -9 -4 -13 -25 -13 -68 0 -107 34 -117
166 -50 38 19 73 35 80 35 6 0 22 8 35 18 13 10 49 26 79 36 30 11 60 22 65
26 6 4 28 13 50 20 22 7 65 24 95 38 75 34 84 37 175 62 44 13 114 37 155 55
41 18 86 36 100 40 38 11 188 74 255 106 33 16 67 29 75 30 23 1 104 43 104
54 0 6 -14 14 -30 19 -16 4 -37 12 -46 17 -10 5 -26 9 -35 9 -10 0 -40 12 -68
25 -27 14 -56 25 -63 25 -7 0 -20 4 -30 9 -9 5 -64 33 -122 62 -175 86 -353
181 -385 205 -16 12 -59 36 -94 54 -36 18 -70 38 -77 45 -7 7 -50 28 -95 46
-47 20 -98 49 -121 72 -46 43 -57 45 -85 15z m75 -56 c15 -11 54 -31 87 -46
33 -15 71 -34 85 -43 14 -8 62 -32 106 -54 45 -21 87 -46 94 -55 8 -8 34 -26
59 -39 93 -48 -26 -22 -134 30 -38 19 -90 40 -115 49 -101 33 -205 76 -208 86
-2 5 -13 10 -24 10 -17 0 -19 4 -13 27 6 27 22 53 32 53 3 0 17 -8 31 -18z
m-129 -116 c12 -15 -6 -128 -32 -201 -14 -38 -15 -38 -21 -15 -3 14 -8 45 -10
70 -3 25 -11 71 -20 103 l-14 57 43 0 c24 0 48 -6 54 -14z m144 -26 c34 -12
71 -25 82 -30 11 -5 45 -17 75 -27 l55 -18 -40 -3 c-49 -4 -65 -17 -42 -34 40
-31 43 -203 4 -217 -20 -8 -20 -8 1 -23 12 -8 20 -17 17 -20 -8 -7 -18 -165
-16 -259 l1 -85 -50 -13 c-53 -14 -54 -14 -103 30 -17 16 -25 44 -26 97 -1 15
-7 22 -22 22 l-20 0 21 30 c12 16 49 43 85 60 35 17 71 38 80 46 17 17 12 34
-11 34 -17 0 -85 69 -101 102 -6 13 -16 43 -23 66 -10 39 -9 45 7 58 10 7 23
14 29 14 15 0 107 71 100 77 -3 3 -32 -11 -64 -31 -33 -20 -69 -36 -80 -36
-11 0 -31 -16 -46 -35 -26 -34 -66 -48 -66 -22 0 7 9 37 20 67 11 30 20 64 20
76 0 29 28 94 40 94 6 0 39 -9 73 -20z m212 -120 c3 -6 3 -20 -1 -33 -7 -21
-7 -21 -15 -2 -4 11 -8 26 -8 33 -1 14 15 16 24 2z m140 -13 c28 -8 68 -19 90
-25 66 -17 249 -84 264 -95 7 -6 18 -12 25 -14 6 -1 38 -15 71 -32 l60 -30
-75 0 c-41 0 -93 4 -115 9 -25 6 -87 5 -170 -2 -71 -6 -150 -9 -175 -8 -25 2
-62 4 -82 4 -34 1 -38 4 -38 28 0 36 46 169 62 179 7 5 18 7 23 4 6 -2 33 -10
60 -18z m-1075 -41 c52 -9 111 -17 130 -18 25 -2 9 -8 -60 -21 -52 -10 -106
-20 -119 -23 -24 -5 -24 -5 -7 21 23 35 13 46 -39 38 -38 -5 -45 -3 -45 11 0
12 6 15 23 12 12 -3 65 -12 117 -20z m478 -41 c8 -7 24 -265 18 -289 l-6 -26
-133 -1 c-72 0 -145 -2 -162 -4 -16 -2 -116 -7 -222 -10 -189 -6 -192 -5 -203
16 -24 44 19 178 57 179 6 0 30 17 53 38 23 20 47 37 54 38 35 2 118 17 161
29 28 7 79 16 115 20 36 4 85 10 110 15 38 6 148 3 158 -5z m-658 -43 c0 -24
-47 -109 -55 -100 -3 3 -16 88 -17 108 -1 17 6 20 37 20 32 0 35 -3 35 -28z
m834 -8 c4 -15 4 -29 1 -32 -9 -10 -48 35 -41 47 13 20 34 12 40 -15z m30
-107 c47 -33 86 -63 86 -68 0 -8 -199 -109 -213 -109 -3 0 -1 167 2 249 1 11
4 11 20 0 11 -8 58 -40 105 -72z m361 -1 c6 -2 -16 -9 -48 -16 -56 -13 -76
-25 -63 -37 3 -4 30 -1 58 5 29 7 81 14 115 16 34 2 66 7 71 10 6 3 41 9 79
12 37 3 145 11 238 18 162 13 171 13 203 -5 18 -10 40 -19 48 -19 9 0 25 -5
36 -11 17 -9 18 -13 7 -20 -8 -5 -26 -9 -40 -9 -14 0 -74 -16 -133 -35 -60
-19 -113 -35 -118 -35 -6 0 -24 -6 -41 -14 -123 -56 -521 -190 -540 -183 -27
10 -31 150 -6 183 5 6 8 26 8 45 -5 120 8 130 126 95z m531 -137 c-10 -6 -52
-24 -95 -40 -42 -15 -110 -42 -151 -59 -41 -18 -113 -43 -160 -56 -80 -23
-131 -42 -274 -101 -46 -18 -61 -21 -67 -11 -10 15 20 28 121 53 41 10 82 22
90 27 8 4 47 19 85 32 65 22 106 37 355 129 98 36 129 45 96 26z m-953 -42
c-12 -7 -22 -15 -22 -20 1 -22 -8 -28 -20 -14 -10 13 -8 18 16 31 15 8 33 15
38 15 6 0 0 -5 -12 -12z m-734 -36 c3 -1 -3 -7 -13 -14 -27 -20 -106 -22 -106
-3 0 21 37 26 119 17z m671 -31 c0 -5 -4 -10 -10 -10 -5 0 -10 5 -10 10 0 6 5
10 10 10 6 0 10 -4 10 -10z m84 -32 c-6 -9 -34 1 -34 12 0 5 6 10 13 13 13 4
28 -13 21 -25z m-41 -29 c12 -7 24 -15 27 -18 3 -4 18 -17 34 -29 19 -15 24
-23 15 -26 -8 -2 -34 -11 -59 -19 -25 -8 -58 -18 -74 -22 -26 -5 -28 -4 -22
17 3 13 9 42 12 66 7 45 24 53 67 31z m184 -116 c2 -6 -20 -21 -49 -33 -56
-25 -209 -80 -219 -80 -15 0 -15 50 0 63 23 20 221 68 255 62 6 -1 11 -6 13
-12z"/>
</g>
</svg>
