<?xml version="1.0" standalone="no"?>
<!DOCTYPE svg PUBLIC "-//W3C//DTD SVG 20010904//EN"
 "http://www.w3.org/TR/2001/REC-SVG-20010904/DTD/svg10.dtd">
<svg version="1.0" xmlns="http://www.w3.org/2000/svg"
 width="239.000000pt" height="165.000000pt" viewBox="0 0 239.000000 165.000000"
 preserveAspectRatio="xMidYMid meet">
<metadata>
Created by potrace 1.16, written by Peter Selinger 2001-2019
</metadata>
<g transform="translate(0.000000,165.000000) scale(0.100000,-0.100000)"
fill="#000000" stroke="none">
<path d="M998 1601 c-12 -15 -28 -36 -33 -46 -9 -15 -26 -18 -95 -20 l-85 -1
4 -65 c4 -76 5 -192 3 -269 l-2 -55 -238 -2 c-130 -1 -259 -5 -287 -10 -27 -5
-72 -5 -99 -1 -54 8 -85 -5 -66 -27 5 -6 7 -14 4 -17 -3 -3 9 -35 27 -69 28
-55 33 -77 36 -159 3 -56 -1 -131 -9 -183 -14 -84 -14 -89 4 -101 14 -10 30
-11 61 -4 56 12 172 25 342 39 77 6 145 15 151 20 5 4 20 6 32 2 22 -5 22 -8
15 -82 -9 -89 -8 -231 1 -316 5 -40 2 -78 -7 -114 l-15 -53 39 6 c21 3 63 17
91 30 29 13 69 31 88 40 19 8 60 29 90 47 30 17 87 48 125 67 39 20 95 52 125
72 30 20 96 54 145 77 50 22 106 50 125 61 19 12 53 31 75 43 22 12 42 25 45
29 3 4 39 26 80 50 123 69 212 123 262 158 26 17 50 32 53 32 4 0 37 21 73 46
l66 46 34 -16 c37 -18 60 -13 41 10 -6 8 -18 14 -25 14 -17 0 -18 17 -1 23 9
4 9 7 -1 18 -9 10 -17 11 -29 3 -14 -9 -27 -4 -64 23 -26 18 -100 59 -166 89
-65 31 -119 60 -121 65 -2 5 -9 9 -15 9 -6 0 -18 6 -26 14 -9 7 -59 36 -111
63 -52 27 -126 70 -165 95 -38 25 -142 85 -230 133 -273 151 -296 165 -305
191 -12 30 -13 30 -42 -5z m164 -109 c62 -32 149 -81 193 -109 44 -28 106 -64
138 -82 111 -60 151 -102 48 -51 -32 16 -85 39 -117 50 -33 12 -68 25 -79 30
-11 5 -46 20 -77 34 -32 14 -103 41 -158 61 -55 19 -109 39 -120 45 -20 10
-20 11 3 45 12 19 30 35 39 35 9 0 67 -26 130 -58z m-277 -17 c1 -11 -9 -60
-21 -110 -13 -49 -25 -101 -27 -115 -3 -14 -4 9 -4 50 1 75 -10 177 -19 192
-3 5 12 7 33 5 30 -2 38 -7 38 -22z m130 -45 c28 -10 77 -26 110 -35 54 -15
213 -80 257 -105 10 -6 23 -10 30 -10 13 0 154 -64 213 -97 17 -9 50 -27 75
-41 25 -13 50 -27 55 -32 6 -4 44 -22 85 -40 41 -17 102 -45 134 -61 33 -16
67 -27 76 -24 20 7 145 -76 145 -96 0 -11 -113 -90 -170 -119 -11 -5 -60 -37
-110 -70 -49 -33 -128 -80 -175 -104 -47 -25 -105 -59 -130 -75 -25 -17 -46
-27 -48 -22 -2 5 -19 3 -39 -5 -27 -12 -38 -13 -43 -4 -4 7 -18 17 -30 23 -57
28 -108 175 -80 227 6 11 11 45 11 75 1 38 5 53 13 48 35 -21 142 -99 145
-107 9 -21 85 -96 97 -96 20 0 18 8 -12 47 -14 18 -22 37 -19 43 3 5 -6 20
-21 32 -14 13 -37 45 -50 71 -14 26 -35 57 -48 68 -15 13 -22 28 -19 40 5 18
2 19 -23 13 -16 -3 -34 -13 -40 -20 -20 -25 -27 -15 -21 29 6 46 63 167 78
167 5 0 9 9 9 20 0 26 -34 34 -117 27 -65 -5 -88 -18 -78 -45 3 -8 -16 -37
-41 -65 -26 -29 -58 -70 -72 -91 -30 -49 -50 -70 -93 -101 -18 -14 -29 -25
-25 -25 5 0 2 -8 -5 -17 -12 -15 -12 -16 2 -11 12 5 18 0 22 -18 4 -24 -15
-34 -28 -14 -20 32 -69 -8 -150 -121 -42 -58 -55 -83 -47 -91 8 -8 26 4 64 44
29 30 70 68 91 83 21 15 35 30 33 33 -7 6 -66 -18 -66 -27 0 -3 -10 -12 -21
-19 -20 -13 -20 -12 -8 6 8 10 28 31 46 46 37 31 44 29 125 -33 25 -20 72 -52
103 -71 32 -19 68 -44 82 -56 22 -18 23 -24 12 -50 -6 -16 -16 -40 -21 -54
-23 -60 -68 -136 -90 -153 -21 -16 -146 -63 -298 -114 -25 -8 -53 -19 -63 -24
-16 -9 -18 -5 -17 38 0 26 -2 66 -5 88 -7 60 24 549 40 635 8 41 17 109 19
150 3 41 8 91 11 110 24 132 38 197 46 212 10 18 10 18 94 -12z m385 -289 c0
-17 -12 -41 -21 -41 -5 0 -9 11 -9 25 0 16 6 25 15 25 8 0 15 -4 15 -9z m-70
-26 c0 -14 1 -28 2 -32 1 -9 -42 -36 -95 -58 l-38 -16 15 28 c8 15 29 39 45
52 17 13 31 29 31 37 0 8 9 14 20 14 15 0 20 -7 20 -25z m470 10 c14 -8 21
-14 15 -14 -5 0 -21 6 -35 14 -14 8 -20 14 -15 14 6 0 21 -6 35 -14z m-1193
-21 c-4 -3 -305 -104 -311 -104 -3 0 -3 7 0 15 4 8 14 15 24 15 10 0 23 7 30
15 10 12 9 16 -3 21 -21 8 -10 32 16 36 21 3 247 5 244 2z m183 -82 c0 -37 -5
-85 -10 -107 -5 -22 -10 -88 -11 -147 l-1 -107 -26 4 c-15 2 -65 7 -112 10
-47 3 -116 8 -155 12 -38 4 -114 8 -167 8 -90 0 -112 5 -90 19 5 3 9 27 10 53
2 62 12 106 25 114 5 4 13 24 16 44 6 37 7 38 86 62 44 13 100 34 125 45 54
25 99 37 164 44 26 3 62 12 79 19 53 22 67 6 67 -73z m-523 63 c9 -3 7 -17 -8
-50 -11 -26 -23 -58 -25 -73 -7 -35 -12 -39 -20 -16 -3 10 -17 45 -30 77 -13
32 -24 59 -24 60 0 5 96 7 107 2z m1075 -107 c3 -54 -4 -170 -17 -298 -2 -19
-4 -41 -4 -48 -1 -7 -35 12 -76 43 -41 30 -79 55 -83 55 -23 0 -72 81 -72 119
0 46 85 151 122 152 13 0 43 9 68 19 25 10 48 19 52 19 3 1 8 -27 10 -61z
m127 -102 c10 -12 9 -14 -8 -9 -11 3 -26 11 -32 19 -6 8 -18 14 -25 14 -15 0
-19 12 -8 23 7 7 53 -23 73 -47z m-1194 -209 c33 -3 111 -9 173 -13 62 -4 111
-8 109 -11 -2 -2 -40 -6 -83 -9 -43 -3 -124 -14 -181 -23 l-103 -18 0 21 c0
30 11 66 19 62 3 -2 33 -6 66 -9z m1076 -130 c0 -16 54 -57 84 -66 24 -6 24
-7 -17 -28 -24 -12 -61 -29 -83 -39 -22 -9 -53 -23 -69 -31 l-29 -15 30 53
c16 30 37 75 47 102 16 42 35 55 37 24z m-121 -228 c-19 -12 -54 -30 -76 -39
-23 -10 -73 -36 -112 -58 -39 -22 -81 -44 -94 -48 -13 -4 -53 -22 -90 -40 -57
-27 -68 -30 -68 -16 1 43 25 64 105 92 100 34 234 83 300 109 67 26 77 25 35
0z"/>
<path d="M1140 910 c0 -5 7 -10 15 -10 8 0 18 0 22 -1 4 0 9 4 11 10 2 6 -8
11 -22 11 -14 0 -26 -4 -26 -10z"/>
</g>
</svg>
