<?xml version="1.0" standalone="no"?>
<!DOCTYPE svg PUBLIC "-//W3C//DTD SVG 20010904//EN"
 "http://www.w3.org/TR/2001/REC-SVG-20010904/DTD/svg10.dtd">
<svg version="1.0" xmlns="http://www.w3.org/2000/svg"
 width="310.000000pt" height="117.000000pt" viewBox="0 0 310.000000 117.000000"
 preserveAspectRatio="xMidYMid meet">
<metadata>
Created by potrace 1.16, written by Peter Selinger 2001-2019
</metadata>
<g transform="translate(0.000000,117.000000) scale(0.100000,-0.100000)"
fill="#000000" stroke="none">
<path d="M497 1123 c-13 -3 -18 -13 -17 -31 5 -69 7 -67 -82 -69 -105 -2 -148
-10 -148 -28 0 -8 6 -15 14 -15 20 0 23 -39 14 -165 -4 -60 -9 -181 -10 -267
-2 -120 -6 -158 -16 -158 -7 0 -18 11 -24 25 -6 14 -17 25 -24 25 -24 0 -26
-40 -5 -85 12 -25 21 -65 21 -89 0 -63 10 -106 26 -106 7 0 28 19 46 41 52 65
75 85 133 115 30 15 57 35 60 44 3 10 24 21 53 28 26 6 58 15 71 18 21 6 23 5
16 -17 -9 -27 -9 -149 0 -157 12 -12 25 16 26 58 1 25 7 51 13 59 6 8 15 27
21 44 9 27 18 31 115 57 58 15 130 35 160 44 30 9 78 21 105 27 28 6 100 27
160 46 61 19 126 40 145 45 19 6 60 19 90 29 30 9 66 19 80 21 14 2 26 10 28
18 2 12 -5 15 -35 12 -41 -4 -60 3 -138 48 -60 35 -59 35 -205 99 -63 28 -119
51 -125 51 -5 0 -22 6 -36 14 -15 7 -51 22 -80 31 -30 10 -67 25 -84 33 -16 8
-64 27 -105 42 -111 40 -220 93 -220 108 0 12 -10 13 -43 5z m130 -103 c40
-19 72 -38 72 -42 1 -4 -16 -6 -36 -4 -21 2 -54 4 -74 5 -34 1 -35 3 -31 31 3
23 0 30 -12 30 -10 0 -14 5 -11 11 4 5 10 9 13 7 4 -2 39 -19 79 -38z m-204
-47 c26 -3 47 -7 47 -8 0 -1 -27 -58 -59 -126 -33 -68 -67 -149 -76 -179 -9
-30 -21 -66 -25 -80 -10 -31 -2 254 9 295 4 17 4 47 1 67 -8 45 -3 51 30 43
14 -3 46 -8 73 -12z m417 -55 c58 -11 124 -29 147 -39 23 -10 47 -19 53 -19
21 0 251 -108 265 -125 6 -6 43 -24 84 -40 l73 -29 -93 -28 c-361 -110 -623
-180 -650 -176 -17 3 -15 11 23 87 23 46 57 99 75 117 41 41 43 59 6 48 -16
-4 -69 -8 -120 -9 -96 0 -118 -7 -90 -28 20 -14 29 -105 19 -186 -9 -67 -10
-68 -222 -95 -102 -14 -118 -12 -99 10 6 7 9 21 5 29 -3 9 10 64 30 123 20 59
38 120 40 136 2 16 21 65 42 110 21 44 39 85 40 89 1 4 9 15 18 25 13 13 41
18 108 22 103 6 104 6 246 -22z m-91 -301 c-17 -29 -39 -71 -50 -94 -11 -24
-22 -43 -24 -43 -2 0 -4 36 -3 80 0 44 -2 83 -6 87 -15 16 -2 21 54 21 l59 0
-30 -51z m-344 -270 c-22 -12 -62 -44 -88 -70 -27 -27 -50 -47 -52 -45 -1 2
-5 29 -7 61 l-5 57 41 1 c67 2 107 6 113 13 4 3 13 6 22 6 9 -1 -2 -11 -24
-23z"/>
<path d="M2028 847 c-12 -4 -29 -7 -37 -6 -9 1 -44 1 -78 0 -62 -1 -83 -13
-42 -24 12 -3 18 -10 15 -16 -4 -6 0 -21 7 -33 9 -14 15 -54 17 -98 1 -41 3
-77 5 -80 3 -6 -18 -179 -32 -255 -11 -65 -5 -146 12 -163 3 -3 22 13 43 35
50 54 93 66 288 78 44 3 108 8 144 11 108 9 355 5 358 -6 4 -12 31 -14 33 -2
1 4 2 34 4 67 1 33 8 111 14 174 11 103 15 119 50 180 22 36 48 75 60 85 12
11 21 23 21 27 0 5 -39 7 -87 5 -63 -2 -96 1 -118 12 -24 12 -87 15 -343 16
-172 0 -323 -3 -334 -7z m640 -38 c13 -5 34 -9 48 -9 22 0 24 -4 25 -52 2
-121 1 -177 -6 -248 -4 -41 -8 -87 -9 -102 -6 -76 4 -69 -103 -68 -54 1 -188
-2 -298 -6 -169 -6 -215 -4 -298 11 -81 14 -97 20 -93 34 13 40 26 152 26 216
0 54 6 79 23 110 24 42 51 56 150 72 27 4 48 13 47 18 0 11 -34 12 -100 1
l-45 -7 23 20 c22 19 37 20 239 20 118 0 218 3 221 6 8 8 118 -4 150 -16z
m-648 -9 c0 -5 -11 -17 -26 -26 -14 -9 -23 -22 -21 -28 3 -7 -1 -20 -9 -31
-13 -18 -14 -17 -14 11 0 16 -7 41 -14 57 l-15 27 50 0 c27 0 49 -4 49 -10z
m830 -4 c0 -3 -15 -28 -32 -57 l-33 -52 -7 39 c-12 69 -12 71 32 72 22 1 40 0
40 -2z m-857 -493 l38 -6 -51 -25 c-27 -13 -50 -28 -50 -33 0 -5 -4 -9 -10 -9
-11 0 -14 49 -4 75 4 10 13 14 23 10 9 -4 33 -9 54 -12z"/>
</g>
</svg>
