<?xml version="1.0" standalone="no"?>
<!DOCTYPE svg PUBLIC "-//W3C//DTD SVG 20010904//EN"
 "http://www.w3.org/TR/2001/REC-SVG-20010904/DTD/svg10.dtd">
<svg version="1.0" xmlns="http://www.w3.org/2000/svg"
 width="248.000000pt" height="107.000000pt" viewBox="0 0 248.000000 107.000000"
 preserveAspectRatio="xMidYMid meet">
<metadata>
Created by potrace 1.16, written by Peter Selinger 2001-2019
</metadata>
<g transform="translate(0.000000,107.000000) scale(0.100000,-0.100000)"
fill="#000000" stroke="none">
<path d="M2263 1015 c-19 -22 -30 -25 -90 -26 -37 0 -91 -4 -119 -8 -28 -4
-89 -4 -135 0 -46 4 -219 10 -384 13 -482 10 -679 16 -698 22 -10 3 -26 -1
-36 -10 -10 -9 -23 -16 -31 -16 -24 0 -39 -35 -40 -95 -1 -56 -17 -141 -53
-280 -9 -33 -21 -86 -27 -117 -11 -53 -14 -58 -38 -58 -15 0 -43 4 -62 9 -54
15 -358 20 -374 7 -36 -30 -55 -76 -68 -169 -14 -90 -13 -98 3 -113 25 -23 64
-2 54 29 -4 12 -7 29 -8 37 -1 27 14 164 19 172 13 21 457 -19 489 -43 13 -10
29 0 44 28 8 17 8 28 0 47 -13 28 0 132 26 216 22 69 43 177 50 258 4 39 9 72
12 72 2 0 14 -5 26 -11 14 -8 120 -13 316 -15 163 -1 428 -8 590 -14 162 -6
325 -8 363 -5 83 8 147 -1 156 -23 9 -25 -21 -352 -52 -547 -8 -55 -16 -117
-18 -138 -1 -21 -7 -41 -13 -45 -6 -4 -17 -18 -26 -31 -15 -24 -16 -24 -184
-21 -94 1 -267 5 -385 10 -118 4 -225 6 -237 4 -82 -15 -609 -8 -927 12 -129
8 -208 8 -234 0 -22 -7 -29 -21 -14 -29 4 -3 126 -10 272 -16 146 -6 297 -14
335 -18 39 -3 90 -6 115 -5 488 17 488 17 645 8 61 -3 215 -8 343 -10 127 -3
237 -8 243 -11 5 -4 21 0 34 9 13 9 37 16 53 16 38 0 60 24 42 45 -10 12 -10
38 0 128 6 61 14 123 17 137 10 48 41 344 38 368 -2 16 2 22 12 18 9 -4 11 -2
7 6 -4 6 -6 47 -5 92 1 83 -5 136 -17 136 -4 0 -17 -12 -29 -25z"/>
<path d="M1938 828 c-6 -17 -453 -25 -472 -9 -8 7 -24 7 -50 0 -35 -10 -124
-8 -311 7 -73 6 -82 5 -99 -15 l-19 -21 44 1 c24 1 62 -3 84 -9 22 -6 82 -14
133 -17 l93 -7 -45 -45 c-43 -45 -45 -45 -107 -44 -35 1 -82 3 -103 5 -45 5
-94 -10 -80 -24 5 -5 46 -10 92 -11 45 -2 87 -6 92 -9 6 -4 -1 -17 -15 -30
-29 -27 -32 -40 -8 -40 9 0 13 -3 10 -7 -4 -3 -33 -7 -64 -8 -64 -2 -103 -12
-103 -25 0 -13 19 -22 31 -15 19 12 173 8 177 -5 3 -7 18 -27 34 -46 l30 -34
-43 1 c-24 0 -66 4 -94 9 -49 8 -86 -3 -68 -21 12 -11 90 -22 154 -21 49 1 60
-3 83 -27 18 -18 24 -31 17 -35 -19 -12 -12 -26 12 -26 23 0 98 47 111 69 7
11 402 16 430 5 13 -5 15 -14 11 -36 -4 -17 -2 -35 5 -43 29 -35 48 -10 76
106 15 57 28 119 30 137 5 49 14 72 28 72 8 0 20 7 27 16 12 14 10 19 -11 38
-23 19 -25 26 -20 84 3 37 1 67 -5 72 -20 15 -83 21 -87 8z m-122 -72 c118 -7
126 -11 123 -50 -2 -17 -6 -35 -10 -41 -5 -6 -81 -9 -206 -7 l-198 3 -27 49
-27 49 42 3 c54 4 187 1 303 -6z m-395 -43 c13 -21 25 -41 27 -45 2 -5 -30 -8
-72 -8 -42 0 -76 4 -76 9 0 10 79 81 91 81 4 0 18 -17 30 -37z m68 -118 c17
-20 31 -38 31 -40 0 -3 -60 -5 -134 -5 -133 0 -134 0 -151 26 -29 44 -8 54
115 54 l108 0 31 -35z m419 21 c16 -5 22 -15 22 -35 0 -27 -3 -29 -52 -35 -68
-10 -230 -8 -256 1 -21 9 -74 67 -67 75 8 7 328 2 353 -6z m-430 -105 l33 -1
-43 -50 c-40 -47 -46 -50 -83 -48 -34 3 -42 8 -56 35 -9 18 -21 39 -28 46 -18
22 -3 26 73 23 39 -2 86 -4 104 -5z m299 -18 l141 -6 -5 -36 c-3 -20 -8 -38
-10 -40 -8 -10 -403 -6 -405 4 -3 18 103 97 121 90 9 -4 80 -9 158 -12z"/>
</g>
</svg>
