<?xml version="1.0" standalone="no"?>
<!DOCTYPE svg PUBLIC "-//W3C//DTD SVG 20010904//EN"
 "http://www.w3.org/TR/2001/REC-SVG-20010904/DTD/svg10.dtd">
<svg version="1.0" xmlns="http://www.w3.org/2000/svg"
 width="256.000000pt" height="154.000000pt" viewBox="0 0 256.000000 154.000000"
 preserveAspectRatio="xMidYMid meet">
<metadata>
Created by potrace 1.16, written by Peter Selinger 2001-2019
</metadata>
<g transform="translate(0.000000,154.000000) scale(0.100000,-0.100000)"
fill="#000000" stroke="none">
<path d="M1085 1450 c-19 -48 -21 -50 -55 -49 -19 1 -63 -1 -97 -5 -68 -9 -85
-26 -56 -58 14 -16 17 -42 19 -152 1 -73 -2 -139 -6 -147 -6 -8 -29 -14 -62
-14 -29 -1 -122 -3 -207 -5 -92 -2 -156 1 -160 7 -3 6 -60 9 -135 8 -108 -1
-132 -4 -140 -18 -8 -12 -6 -20 6 -29 42 -32 46 -94 22 -300 -10 -89 -12 -147
-6 -169 8 -32 11 -34 46 -33 21 1 48 7 60 12 11 6 68 18 126 27 58 9 128 23
155 30 28 7 77 16 110 19 33 4 81 9 107 12 45 6 47 5 42 -18 -2 -12 -7 -66
-10 -118 -5 -85 -9 -121 -30 -266 -6 -40 -5 -42 24 -49 20 -4 32 -14 36 -30 9
-36 35 -58 52 -44 8 6 14 15 14 20 0 25 145 126 256 179 38 18 85 45 104 60
32 26 67 46 155 93 17 8 62 29 100 47 125 55 216 102 246 128 16 13 51 30 77
38 72 22 312 120 352 145 32 19 118 57 170 74 30 10 60 22 66 26 16 13 5 58
-17 70 -25 13 -39 4 -39 -27 0 -15 -7 -27 -17 -30 -10 -4 -93 -42 -186 -86
-92 -43 -202 -92 -245 -108 -42 -15 -94 -36 -116 -45 l-39 -16 7 78 c10 108
10 110 28 130 9 10 27 38 40 63 54 101 83 140 103 140 17 0 233 -88 296 -121
59 -30 104 -38 97 -17 -8 23 -62 48 -273 127 -39 14 -85 36 -102 49 -17 12
-36 22 -41 22 -6 0 -48 17 -94 39 -47 21 -95 42 -107 46 -89 28 -592 282 -607
306 -3 5 -15 9 -27 9 -18 0 -27 -11 -42 -50z m208 -80 c79 -38 166 -78 193
-89 82 -32 204 -90 204 -96 0 -3 -8 -2 -17 3 -10 5 -56 19 -103 31 -87 23
-229 67 -265 82 -11 4 -42 15 -70 24 -40 13 -108 41 -123 50 -6 4 21 65 29 65
5 0 73 -31 152 -70z m-287 -72 c-6 -29 -15 -59 -19 -65 -5 -7 -5 -18 -2 -23
16 -26 -29 -160 -54 -160 -12 0 0 285 12 292 7 4 26 8 43 8 l30 0 -10 -52z
m54 7 c-7 -9 -15 -13 -18 -10 -3 2 1 11 8 20 7 9 15 13 18 10 3 -2 -1 -11 -8
-20z m143 -50 c63 -61 68 -79 15 -55 -13 6 -56 16 -95 23 l-73 12 26 43 c14
23 33 42 42 42 9 -1 47 -30 85 -65z m114 9 c22 -7 44 -10 47 -7 3 4 6 2 6 -4
0 -6 15 -13 33 -16 28 -5 62 -13 224 -59 41 -12 41 -12 27 -39 -8 -16 -14 -44
-14 -63 0 -40 -7 -47 -37 -35 -19 7 -21 12 -12 41 5 18 9 44 9 57 0 38 -29 6
-36 -40 -4 -22 -8 -39 -11 -39 -2 0 -13 9 -25 20 -19 18 -20 24 -10 56 11 37
9 54 -8 54 -11 0 -26 -41 -29 -78 0 -10 -14 -23 -31 -29 -27 -10 -31 -9 -36
12 -3 12 -1 40 5 61 13 47 14 64 3 64 -11 0 -32 -46 -32 -70 0 -11 -4 -20 -10
-20 -5 0 -10 4 -10 8 0 5 -33 41 -72 81 -54 54 -67 71 -48 65 14 -4 44 -13 67
-20z m-145 -84 c29 -11 61 -20 72 -20 24 0 114 -59 121 -79 6 -20 -3 -174 -13
-221 -6 -28 -13 -36 -35 -38 -63 -7 -236 218 -232 301 3 46 -16 49 -58 10
l-29 -28 7 25 c21 69 22 70 70 70 24 0 68 -9 97 -20z m583 -38 c28 -10 49 -21
49 -25 -1 -4 -5 -28 -9 -52 -6 -42 -8 -45 -36 -45 -29 0 -29 1 -29 56 0 68
-17 64 -26 -6 -7 -49 -28 -68 -40 -36 -9 22 16 126 29 126 7 0 35 -8 62 -18z
m82 -54 c-3 -8 -6 -5 -6 6 -1 11 2 17 5 13 3 -3 4 -12 1 -19z m-779 -63 c-2
-1 -18 2 -37 7 l-33 9 23 25 23 24 13 -31 c7 -18 12 -33 11 -34z m851 18 c4
-2 -18 -52 -52 -120 -12 -23 -23 -40 -26 -37 -2 2 -4 28 -4 56 1 35 7 56 17
64 21 15 20 24 -3 24 -14 0 -18 5 -14 19 4 16 9 17 41 8 21 -6 39 -12 41 -14z
m-369 -52 c0 -6 -4 -11 -9 -11 -5 0 -16 -3 -25 -6 -13 -5 -15 0 -12 27 3 19 5
38 5 43 1 12 41 -40 41 -53z m-118 -30 c-3 -50 -1 -61 15 -69 15 -8 18 -19 15
-51 -4 -39 -6 -41 -38 -41 -21 0 -37 6 -40 14 -3 8 2 62 12 120 12 78 20 103
29 96 7 -6 10 -31 7 -69z m-363 8 c31 -18 93 -68 139 -113 l82 -81 0 -63 c0
-72 15 -86 61 -60 27 16 28 15 44 -8 8 -13 31 -38 50 -56 19 -17 35 -37 35
-45 0 -16 1 -16 37 -2 26 10 27 12 11 23 -17 12 -17 18 0 102 16 80 20 89 41
92 18 3 22 0 18 -11 -3 -9 -9 -55 -13 -104 -8 -111 12 -104 27 8 13 102 17
116 33 122 8 3 21 0 30 -6 15 -11 15 -20 1 -103 -8 -50 -17 -99 -21 -107 -3
-9 -29 -24 -57 -33 -29 -9 -86 -31 -127 -49 -41 -18 -111 -47 -155 -65 -44
-18 -111 -46 -150 -63 -119 -51 -188 -78 -234 -93 l-43 -14 6 33 c8 47 19 183
20 252 1 54 3 60 24 63 30 4 28 20 -3 28 -18 4 -24 11 -21 23 3 9 19 86 35
172 17 86 33 164 37 173 9 23 29 20 93 -15z m-260 16 c-3 -2 -57 -16 -120 -29
-63 -14 -159 -36 -214 -49 -55 -14 -101 -23 -103 -22 -2 2 11 22 28 46 l30 44
138 3 c75 2 139 6 141 8 2 2 27 4 54 4 28 0 48 -2 46 -5z m86 -112 c-3 -65 -9
-136 -15 -158 -5 -22 -11 -53 -12 -69 l-3 -29 -115 -1 c-63 -1 -146 3 -185 7
-38 5 -108 10 -155 12 -47 1 -93 6 -103 10 -9 4 -25 4 -34 1 -14 -6 -12 -10
13 -25 23 -14 62 -20 168 -26 75 -4 136 -9 134 -10 -2 -2 -70 -15 -153 -29
-82 -15 -158 -29 -167 -32 -16 -5 -18 2 -18 50 0 42 8 72 35 128 76 157 60
140 155 164 47 12 132 35 190 49 58 15 137 34 175 42 39 8 74 19 80 24 5 5 10
9 12 9 1 0 0 -53 -2 -117z m54 100 c0 -10 -7 -36 -15 -58 -7 -22 -12 -29 -9
-15 3 14 5 40 5 58 0 17 5 32 10 32 6 0 10 -8 9 -17z m847 -100 c-3 -65 -8
-151 -12 -191 l-6 -73 -50 -25 c-28 -14 -52 -24 -54 -21 -2 2 3 29 11 61 8 31
15 68 15 82 0 35 17 64 38 64 19 0 42 18 42 33 0 5 -13 7 -30 4 -16 -4 -31 -3
-33 1 -3 4 0 43 7 87 11 81 16 88 70 94 4 1 6 -52 2 -116z m-1416 99 c0 -5
-18 -35 -41 -67 -22 -31 -38 -63 -36 -69 3 -7 -1 -25 -8 -41 -12 -28 -13 -23
-14 57 -1 47 -4 93 -7 101 -4 11 2 17 18 20 42 8 88 7 88 -1z m1316 -39 c-3
-27 -7 -65 -8 -85 -2 -36 -4 -38 -36 -38 -18 0 -31 3 -29 8 3 4 12 42 22 85
14 65 20 77 37 77 18 0 19 -5 14 -47z m-71 5 c-22 -116 -38 -149 -64 -133 -15
9 13 134 34 149 30 23 37 19 30 -16z m-90 -50 c-11 -77 -20 -97 -43 -91 -17 4
-18 10 -10 56 6 34 17 58 31 69 12 10 24 18 25 18 2 0 1 -24 -3 -52z m-95
-143 c0 -19 -38 -29 -55 -15 -27 22 -17 36 20 32 20 -2 35 -10 35 -17z m65
-52 c-4 -31 -10 -65 -14 -76 -7 -18 -9 -17 -34 13 -15 17 -27 36 -27 41 0 8
70 78 79 79 2 0 0 -25 -4 -57z m-150 7 c-3 -5 -10 -10 -16 -10 -5 0 -9 5 -9
10 0 6 7 10 16 10 8 0 12 -4 9 -10z m4 -314 c-32 -27 -121 -81 -161 -97 -45
-18 -163 -90 -227 -140 -32 -25 -38 -24 -55 10 -15 29 -7 51 20 51 6 0 31 11
55 24 24 13 62 29 84 36 22 7 45 17 52 22 22 17 250 110 232 94z"/>
</g>
</svg>
