<?xml version="1.0" standalone="no"?>
<!DOCTYPE svg PUBLIC "-//W3C//DTD SVG 20010904//EN"
 "http://www.w3.org/TR/2001/REC-SVG-20010904/DTD/svg10.dtd">
<svg version="1.0" xmlns="http://www.w3.org/2000/svg"
 width="244.000000pt" height="171.000000pt" viewBox="0 0 244.000000 171.000000"
 preserveAspectRatio="xMidYMid meet">
<metadata>
Created by potrace 1.16, written by Peter Selinger 2001-2019
</metadata>
<g transform="translate(0.000000,171.000000) scale(0.100000,-0.100000)"
fill="#000000" stroke="none">
<path d="M1161 1581 c-28 -46 -34 -50 -73 -53 -24 -2 -72 0 -108 4 -74 7 -79
4 -103 -59 -17 -43 -12 -54 11 -31 9 9 12 -4 12 -59 0 -38 -3 -90 -6 -115 -6
-44 -7 -45 -55 -57 -34 -9 -87 -11 -181 -6 -202 11 -329 22 -371 33 -86 23
-246 -8 -217 -42 19 -24 41 -130 36 -171 -3 -22 -8 -107 -11 -190 -3 -82 -8
-173 -11 -202 -5 -48 7 -93 24 -93 4 0 19 11 35 24 24 20 41 24 140 30 61 4
162 16 222 27 61 11 165 22 232 26 l123 6 0 -59 c0 -33 2 -116 4 -186 3 -117
2 -127 -15 -131 -27 -7 -23 -31 12 -71 17 -19 42 -59 57 -88 29 -57 55 -69 60
-28 2 14 16 38 30 54 49 52 166 141 230 175 93 49 103 54 147 82 22 14 96 54
165 88 69 35 150 79 181 97 31 19 60 34 65 34 18 0 144 52 144 60 0 4 12 11
28 15 15 3 50 17 77 30 28 13 62 26 77 30 15 3 36 14 46 25 10 11 39 26 65 34
47 14 47 14 47 -10 0 -28 28 -33 36 -6 3 9 10 25 15 34 12 24 11 28 -6 28 -8
0 -12 6 -10 13 8 20 -53 76 -116 107 -32 15 -87 53 -121 83 -35 30 -92 68
-128 86 -36 18 -83 45 -105 61 -22 16 -101 66 -175 111 -74 45 -208 133 -297
195 -89 63 -167 114 -172 114 -5 0 -23 -22 -40 -49z m119 -42 c30 -22 70 -50
90 -60 19 -11 49 -28 65 -39 17 -11 37 -23 45 -27 8 -4 35 -21 60 -38 25 -17
59 -36 75 -44 33 -14 163 -100 208 -137 15 -13 55 -37 90 -54 34 -16 76 -42
92 -55 l30 -25 -60 26 c-33 14 -85 36 -115 49 -52 22 -206 100 -491 248 -69
36 -144 71 -167 78 -23 7 -42 16 -42 21 0 14 51 98 59 98 3 0 31 -18 61 -41z
m-207 -61 c-10 -12 -67 -231 -78 -296 -4 -29 -32 -151 -60 -265 -9 -38 -19
-66 -21 -64 -8 8 -4 241 5 312 11 77 20 204 21 276 l0 46 72 2 c58 2 69 0 61
-11z m107 -39 c24 -5 65 -22 90 -37 25 -15 97 -52 160 -82 63 -30 187 -89 275
-131 88 -42 167 -78 175 -81 8 -2 -28 -2 -80 0 -54 3 -106 10 -120 18 -45 25
-64 39 -75 53 -10 11 -14 10 -28 -4 -9 -9 -17 -23 -17 -30 0 -24 -15 -25 -66
-6 -27 11 -66 19 -87 19 -46 0 -71 18 -41 28 23 8 54 34 54 45 0 4 -29 22 -66
39 -52 25 -68 29 -80 19 -10 -8 -11 -15 -4 -24 7 -9 6 -16 -5 -25 -9 -7 -36
-51 -62 -98 -25 -46 -54 -87 -64 -89 -10 -3 -29 -21 -42 -41 -31 -46 -125
-147 -131 -141 -5 5 -1 27 43 229 17 80 36 159 41 176 6 17 12 40 14 50 6 31
28 108 33 117 6 10 29 9 83 -4z m141 -210 c18 -9 17 -12 -23 -45 -24 -20 -49
-43 -55 -52 -20 -25 -15 -8 13 53 28 58 33 62 65 44z m-436 -77 c-3 -20 -7
-100 -10 -177 -5 -146 -14 -288 -19 -293 -6 -5 -215 -4 -223 1 -9 6 -217 19
-348 22 -38 1 -83 3 -99 3 l-29 2 6 88 c7 111 14 139 36 168 10 13 22 39 25
59 4 19 11 37 17 41 21 13 166 44 209 44 45 1 70 5 204 33 38 8 78 12 88 9 22
-5 128 28 128 41 0 4 4 6 9 2 6 -3 8 -22 6 -43z m-666 32 l31 -7 -24 -41 c-13
-22 -36 -72 -51 -111 -37 -94 -43 -98 -31 -19 7 48 6 78 -3 114 -7 27 -10 54
-6 60 7 11 38 13 84 4z m391 -11 c24 -6 23 -6 -10 -14 -19 -5 -73 -13 -120
-20 -47 -6 -94 -13 -105 -15 -83 -16 -115 -20 -115 -15 0 10 31 55 48 68 15
12 246 9 302 -4z m802 -54 c42 -1 42 -1 14 -11 -16 -6 -45 -21 -64 -34 -19
-14 -37 -23 -39 -20 -2 2 -1 22 3 44 6 36 9 40 25 32 10 -6 37 -10 61 -11z
m-116 -5 c-4 -10 -9 -51 -13 -93 -3 -42 -9 -83 -14 -92 -4 -8 -4 -21 1 -28 4
-8 4 -27 -1 -44 -5 -16 -5 -37 0 -46 6 -10 4 -30 -3 -51 -16 -46 -19 -111 -7
-142 5 -13 7 -36 4 -51 -4 -23 -8 -25 -20 -15 -43 35 -78 164 -92 340 l-7 92
31 40 c17 23 43 47 58 54 15 7 33 22 40 33 14 23 32 25 23 3z m332 -4 c7 -12
28 -22 52 -26 48 -8 47 -10 -25 -39 l-55 -23 0 54 c0 57 7 66 28 34z m-78 -57
c0 -20 -9 -27 -31 -25 -62 8 -88 11 -109 11 -23 1 -23 2 -7 18 9 10 36 22 60
28 53 14 87 1 87 -32z m460 -12 c151 -77 189 -99 230 -134 44 -36 40 -49 -18
-68 -20 -6 -45 -20 -55 -30 -11 -10 -32 -21 -48 -24 -25 -6 -97 -34 -222 -89
-21 -9 -42 -14 -46 -12 -5 3 -50 9 -101 12 -72 5 -92 4 -88 -6 4 -12 -61 -85
-69 -77 -9 10 19 59 37 64 11 3 20 10 20 15 0 5 -5 6 -11 2 -7 -4 -7 1 1 16
17 32 74 52 139 49 78 -3 101 -1 101 11 0 6 -17 10 -37 11 -21 0 -72 6 -113
13 l-75 12 47 32 c41 28 53 32 90 27 76 -11 82 -10 86 6 4 19 -51 29 -160 29
-81 0 -81 9 -2 47 49 23 60 25 104 16 37 -8 53 -7 60 2 21 25 -16 37 -117 37
l-98 0 38 18 c21 9 43 25 51 35 11 15 23 17 75 12 48 -4 64 -2 68 9 3 8 8 14
12 14 3 0 49 -22 101 -49z m-595 -29 c-28 -25 -105 -62 -105 -51 0 27 43 59
79 59 20 0 31 -4 26 -8z m132 -16 c1 0 4 -13 8 -29 l7 -27 -101 0 c-56 0 -101
2 -101 5 0 3 16 11 35 19 19 8 38 22 41 31 6 14 16 15 58 10 28 -4 52 -8 53
-9z m133 -20 c0 -6 -69 -46 -79 -46 -5 0 -6 10 -4 23 4 18 12 23 44 25 21 1
39 1 39 -2z m-578 -52 c-5 -29 13 -157 33 -227 l14 -47 -59 45 c-33 26 -60 50
-60 55 0 5 -17 26 -37 46 l-36 37 64 58 c70 65 89 72 81 33z m243 -38 c-42
-36 -57 -31 -34 10 9 17 21 24 43 24 l31 0 -40 -34z m209 -1 c18 -25 9 -68
-13 -60 -14 6 -130 23 -171 25 -22 1 18 30 42 30 10 0 18 7 18 16 0 24 105 15
124 -11z m126 -15 c0 -4 -12 -15 -27 -26 -52 -38 -54 -38 -51 -7 2 18 10 30
23 34 25 8 55 7 55 -1z m-767 -60 c-3 -11 -7 -20 -9 -20 -2 0 -4 9 -4 20 0 11
4 20 9 20 5 0 7 -9 4 -20z m475 -2 c-2 -6 -20 -22 -40 -34 -39 -25 -52 -17
-37 24 7 17 16 22 45 22 23 0 34 -4 32 -12z m118 -14 c13 -4 30 -2 37 4 9 8
11 -1 9 -39 -3 -42 -6 -47 -20 -40 -10 5 -52 12 -95 16 l-77 7 47 34 c27 19
54 32 61 29 8 -3 25 -8 38 -11z m-516 -54 c10 -21 39 -53 62 -71 50 -38 228
-211 228 -221 0 -4 -10 -10 -22 -14 -13 -3 -57 -22 -98 -41 -41 -20 -91 -41
-110 -49 -19 -7 -59 -22 -87 -32 l-53 -20 0 22 c0 12 5 27 11 33 7 7 8 18 2
29 -5 11 -9 24 -8 29 1 6 5 62 9 125 6 87 12 117 24 128 13 10 14 15 5 18 -13
6 -18 70 -7 98 8 21 21 12 44 -34z m660 34 c0 -4 -13 -20 -30 -36 -28 -27 -30
-27 -30 -7 0 12 8 28 18 35 18 14 42 18 42 8z m-1305 -89 c128 -8 249 -22 210
-24 -17 0 -46 -6 -65 -11 -39 -11 -97 -18 -315 -34 l-50 -4 3 43 4 43 56 -3
c32 -2 102 -7 157 -10z m970 5 c-3 -5 -11 -10 -16 -10 -6 0 -7 5 -4 10 3 6 11
10 16 10 6 0 7 -4 4 -10z m205 -14 c45 -14 45 -14 42 -57 -1 -23 2 -45 8 -49
6 -4 -9 -15 -32 -25 -24 -9 -52 -21 -63 -26 -108 -45 -150 -58 -159 -49 -11
11 35 65 86 101 23 17 34 18 62 11 32 -9 56 -1 56 19 0 12 -125 33 -182 30
-40 -1 -38 -31 2 -31 40 0 38 -9 -12 -44 -32 -23 -40 -26 -35 -12 4 10 7 33 7
52 0 28 6 38 33 54 17 11 44 20 60 20 15 0 27 5 27 10 0 14 47 12 100 -4z
m290 -13 c2 -2 -5 -6 -15 -9 -11 -3 -51 -18 -90 -33 -38 -16 -72 -27 -74 -25
-10 9 41 49 81 65 37 15 82 16 98 2z m-480 -257 c0 -2 -38 -25 -84 -50 -86
-47 -206 -132 -206 -145 0 -4 -11 -13 -25 -19 -14 -7 -30 -23 -35 -37 -12 -33
-26 -32 -35 3 -3 15 -16 37 -27 49 -17 19 -19 25 -8 38 7 8 20 15 29 15 9 0
29 7 45 15 15 8 32 15 37 15 5 0 44 16 86 36 150 69 223 95 223 80z"/>
</g>
</svg>
