<?xml version="1.0" standalone="no"?>
<!DOCTYPE svg PUBLIC "-//W3C//DTD SVG 20010904//EN"
 "http://www.w3.org/TR/2001/REC-SVG-20010904/DTD/svg10.dtd">
<svg version="1.0" xmlns="http://www.w3.org/2000/svg"
 width="78.000000pt" height="100.000000pt" viewBox="0 0 78.000000 100.000000"
 preserveAspectRatio="xMidYMid meet">
<metadata>
Created by potrace 1.16, written by Peter Selinger 2001-2019
</metadata>
<g transform="translate(0.000000,100.000000) scale(0.100000,-0.100000)"
fill="#000000" stroke="none">
<path d="M155 888 c-2 -7 -11 -36 -19 -64 -21 -63 -34 -228 -31 -359 2 -58 -3
-129 -11 -169 -10 -49 -11 -73 -3 -82 6 -7 10 -21 9 -31 -1 -10 -2 -30 -1 -45
2 -53 64 -33 186 60 98 74 132 85 280 91 123 6 130 7 133 27 2 12 -3 24 -10
26 -7 3 -67 2 -133 -1 -118 -6 -121 -6 -164 22 -25 15 -50 27 -56 27 -7 0 -26
15 -43 34 -17 19 -39 39 -49 45 -17 9 -17 11 2 25 11 9 64 37 117 63 54 27 97
54 98 61 0 12 9 13 150 16 68 1 75 3 78 22 3 20 -1 21 -94 23 -111 1 -161 12
-195 42 -13 12 -47 39 -75 60 -28 21 -65 57 -83 79 -32 40 -77 55 -86 28z m60
-90 c5 4 5 2 2 -4 -7 -13 22 -41 76 -73 20 -13 37 -26 37 -30 0 -4 16 -16 35
-27 38 -20 40 -33 9 -49 -10 -6 -43 -24 -73 -40 -102 -56 -116 -63 -128 -58
-16 6 -16 48 -1 185 8 81 14 105 23 98 7 -5 16 -6 20 -2z m22 -414 c9 -14 40
-36 69 -49 30 -14 54 -28 54 -32 0 -11 -161 -129 -187 -137 -37 -12 -40 29
-17 211 l6 51 30 -10 c16 -6 36 -21 45 -34z"/>
</g>
</svg>
