<?xml version="1.0" standalone="no"?>
<!DOCTYPE svg PUBLIC "-//W3C//DTD SVG 20010904//EN"
 "http://www.w3.org/TR/2001/REC-SVG-20010904/DTD/svg10.dtd">
<svg version="1.0" xmlns="http://www.w3.org/2000/svg"
 width="322.000000pt" height="136.000000pt" viewBox="0 0 322.000000 136.000000"
 preserveAspectRatio="xMidYMid meet">
<metadata>
Created by potrace 1.16, written by Peter Selinger 2001-2019
</metadata>
<g transform="translate(0.000000,136.000000) scale(0.100000,-0.100000)"
fill="#000000" stroke="none">
<path d="M1549 1204 c-9 -8 -34 -19 -55 -24 -21 -5 -77 -30 -124 -56 -162 -88
-210 -111 -216 -103 -2 4 -6 26 -9 48 -2 23 -6 45 -10 51 -11 18 -42 11 -80
-20 -21 -17 -50 -33 -64 -36 -14 -4 -57 -15 -96 -26 -38 -10 -108 -23 -155
-28 -47 -4 -116 -13 -155 -20 -38 -6 -95 -16 -125 -21 -61 -10 -124 -3 -156
18 -12 7 -29 10 -38 7 -15 -6 -17 -16 -12 -68 10 -100 15 -153 17 -162 3 -11
-8 -89 -22 -159 -5 -27 -7 -73 -3 -101 5 -44 10 -53 30 -57 31 -6 77 27 131
91 45 53 62 61 208 92 33 7 65 16 70 19 6 3 17 4 25 3 8 -1 38 4 65 12 27 9
51 14 53 11 2 -2 -6 -17 -19 -34 -12 -17 -20 -33 -17 -37 4 -3 46 -7 94 -7 73
-2 92 -5 110 -22 132 -121 148 -140 160 -184 14 -58 32 -62 81 -19 58 52 125
98 142 98 8 0 71 16 140 36 68 20 152 38 185 40 34 2 75 9 93 15 26 8 39 6 73
-11 23 -12 71 -32 108 -45 37 -13 81 -28 97 -34 17 -5 77 -27 134 -47 84 -29
122 -50 190 -102 47 -35 88 -66 90 -68 2 -2 -4 -13 -14 -24 -22 -24 -13 -50
17 -50 13 0 39 -14 57 -31 39 -35 59 -32 67 11 4 17 11 33 15 36 5 3 9 14 9
24 0 10 16 53 35 96 19 42 35 82 35 88 0 6 9 22 19 36 l19 24 -4 -39 c-3 -22
-9 -86 -14 -143 -5 -56 -14 -118 -21 -136 -16 -43 -7 -66 27 -66 22 0 25 4 21
21 -3 12 -2 45 3 73 5 28 11 76 13 106 5 63 60 177 108 222 16 15 29 32 29 37
0 16 -33 22 -67 10 -19 -6 -41 -8 -50 -5 -28 11 -84 -5 -82 -23 4 -42 -5 -61
-56 -123 l-55 -66 -29 26 c-16 15 -73 61 -126 102 -54 41 -122 97 -151 125
l-53 50 47 12 c26 6 72 19 102 29 71 21 250 64 272 64 9 0 38 -17 65 -38 56
-44 119 -76 133 -67 18 11 10 30 -23 50 -31 20 -32 23 -35 96 l-3 75 41 33
c23 18 44 30 48 27 5 -6 5 -116 -1 -261 -2 -44 0 -50 18 -50 18 0 21 9 26 92
5 59 13 100 23 115 9 12 16 36 16 53 0 39 52 149 86 180 38 36 23 48 -50 40
-102 -10 -171 -29 -171 -45 0 -8 7 -14 16 -12 11 1 21 -8 27 -27 10 -29 8 -32
-73 -106 l-85 -76 -262 -4 c-145 -2 -301 -6 -347 -10 l-84 -7 -41 40 c-22 23
-92 81 -153 130 -122 96 -240 217 -223 227 6 3 8 11 5 16 -10 14 -49 11 -66
-7z m68 -91 c25 -27 59 -63 76 -81 18 -19 52 -48 77 -65 25 -17 63 -46 85 -66
23 -20 55 -48 73 -62 l33 -27 -24 -6 c-14 -3 -126 -6 -250 -6 -176 -1 -236 2
-270 14 -24 8 -54 12 -65 9 -12 -3 -33 -2 -47 1 -20 5 -25 13 -25 36 0 38 -17
47 -31 16 l-12 -25 -32 40 c-45 58 -38 75 52 129 78 47 175 100 181 100 2 0 2
-7 -2 -15 -5 -15 0 -17 71 -29 18 -3 51 -18 74 -33 23 -15 53 -36 68 -45 17
-12 29 -14 36 -7 13 13 -54 73 -118 105 l-48 25 23 19 c13 11 25 19 27 20 2 0
24 -21 48 -47z m-525 -98 c7 -32 2 -35 -33 -23 l-30 10 22 24 c25 27 35 24 41
-11z m1908 30 c0 -3 -5 -13 -10 -23 -6 -9 -19 -39 -30 -66 -11 -27 -22 -47
-24 -45 -2 2 -6 32 -10 66 l-7 62 28 4 c48 7 53 7 53 2z m-2038 -27 c-25 -25
-14 -45 31 -52 82 -13 118 -29 133 -57 7 -15 22 -34 31 -41 18 -13 29 -29 58
-80 12 -21 13 -37 6 -69 -17 -75 11 -91 70 -39 28 24 128 70 153 70 14 0 326
-154 326 -161 0 -4 -26 -10 -57 -14 -32 -3 -84 -12 -116 -21 -32 -8 -62 -12
-66 -9 -5 2 -43 -2 -85 -9 -42 -7 -87 -11 -100 -9 -13 3 -30 -2 -39 -11 -28
-29 -191 -10 -202 24 -3 9 -16 22 -30 28 -17 8 -23 17 -18 28 4 10 -4 24 -23
39 -26 21 -29 29 -28 79 0 55 -1 56 -28 56 -15 0 -28 4 -28 9 0 5 -9 12 -20
16 -18 6 -19 13 -15 101 5 101 16 134 42 134 13 0 14 -3 5 -12z m-67 -18 c-3
-6 -7 -58 -9 -118 -2 -59 -8 -118 -15 -132 -9 -20 -10 -2 -6 95 5 127 11 165
27 165 5 0 6 -5 3 -10z m-57 -137 c-6 -102 -11 -131 -25 -140 -9 -7 -18 -11
-20 -10 -1 2 2 30 7 63 6 32 10 91 10 131 0 66 4 78 30 82 3 1 2 -56 -2 -126z
m-113 10 c-7 -107 -22 -183 -37 -183 -6 0 -8 7 -4 15 9 25 24 137 24 185 -1
69 1 80 13 80 7 0 8 -32 4 -97z m50 -10 c-2 -93 -17 -175 -29 -162 -7 7 17
269 25 269 4 0 6 -48 4 -107z m-103 0 c-3 -93 -6 -112 -16 -102 -8 8 -18 177
-12 188 4 6 13 11 20 11 9 0 11 -24 8 -97z m-314 70 c54 -6 62 -10 36 -19 -10
-4 -34 -18 -52 -31 l-32 -24 -10 26 c-13 34 -13 68 0 60 6 -4 32 -9 58 -12z
m257 -87 c8 -116 -4 -180 -33 -174 -18 4 -21 33 -10 123 4 28 7 74 7 103 1 38
5 52 15 52 11 0 16 -25 21 -104z m-130 53 c-1 -66 -16 -252 -21 -260 -3 -5
-14 -9 -25 -9 -14 0 -19 7 -19 25 0 14 -6 25 -13 25 -8 0 -13 -11 -13 -27 1
-22 -4 -28 -19 -28 -11 0 -20 5 -20 10 2 66 19 196 26 201 5 3 7 14 4 25 -4
11 -2 19 4 19 17 0 26 -4 24 -11 -9 -26 -11 -179 -3 -179 9 0 13 32 13 100 -1
38 18 123 30 138 17 21 32 7 32 -29z m60 -46 c-3 -49 -9 -112 -13 -142 -9 -66
-31 -82 -27 -19 2 24 4 79 5 123 2 98 8 125 26 125 11 0 13 -17 9 -87z m-204
-75 c-7 -168 -6 -163 -27 -163 -18 0 -19 7 -16 95 3 68 8 100 20 113 21 24 25
16 23 -45z m2429 -3 c0 -25 -2 -45 -5 -45 -3 0 -17 7 -30 16 l-25 16 21 29
c29 41 39 36 39 -16z m-1420 -12 c-25 -8 -53 -22 -62 -31 -17 -14 -18 -13 -18
15 0 16 2 32 4 34 2 2 30 2 62 0 l59 -3 -45 -15z m1280 7 c0 -5 -35 -16 -77
-25 -43 -9 -89 -20 -103 -25 -14 -5 -61 -18 -105 -30 -44 -12 -92 -26 -106
-30 -20 -6 -34 -1 -70 26 -24 19 -56 41 -71 50 -16 8 -28 19 -28 24 0 6 95 11
238 12 130 2 256 4 280 5 23 1 42 -2 42 -7z m-598 -26 c13 -12 44 -35 71 -53
26 -18 47 -36 47 -40 0 -9 -246 -51 -295 -51 -16 0 -61 18 -101 40 -40 22 -77
40 -81 40 -4 0 -45 19 -89 43 l-82 42 254 0 c242 0 254 -1 276 -21z m-1378
-28 c-3 -15 -8 -25 -11 -23 -2 3 -1 17 3 31 3 15 8 25 11 23 2 -3 1 -17 -3
-31z m300 2 c3 -13 6 -35 6 -49 0 -23 -5 -27 -41 -33 -23 -4 -44 -5 -46 -2 -2
2 4 19 14 36 10 18 22 41 28 51 13 26 31 24 39 -3z m1249 -110 c18 -13 53 -41
78 -63 70 -61 97 -82 132 -106 39 -28 109 -89 101 -89 -3 0 -56 18 -117 39
-62 22 -125 44 -142 50 -28 9 -107 37 -275 96 -35 13 -66 28 -68 33 -2 6 21
15 50 21 68 13 202 39 206 40 2 1 17 -9 35 -21z m-1878 -38 c-3 -5 1 -10 9
-10 8 0 18 5 21 10 10 16 21 12 22 -10 1 -12 -13 -32 -35 -50 l-37 -31 -12 28
c-21 48 -17 73 13 73 14 0 23 -4 19 -10z m2495 -65 c0 -10 -29 -75 -33 -75 -3
0 -5 18 -5 40 -1 33 3 40 19 40 10 0 19 -2 19 -5z m-1550 -49 c0 -1 -14 -13
-31 -25 -25 -19 -33 -21 -40 -10 -20 32 -10 45 31 41 22 -2 40 -5 40 -6z
m1208 -136 c14 -24 25 -25 44 -6 12 11 17 11 32 1 16 -12 16 -14 -5 -28 -20
-15 -25 -14 -65 14 -46 31 -52 39 -31 39 7 0 18 -9 25 -20z m149 -45 c-31 -85
-31 -85 -70 -68 l-33 15 61 58 c33 32 61 58 62 56 1 -1 -8 -29 -20 -61z"/>
</g>
</svg>
