<?xml version="1.0" standalone="no"?>
<!DOCTYPE svg PUBLIC "-//W3C//DTD SVG 20010904//EN"
 "http://www.w3.org/TR/2001/REC-SVG-20010904/DTD/svg10.dtd">
<svg version="1.0" xmlns="http://www.w3.org/2000/svg"
 width="200.000000pt" height="110.000000pt" viewBox="0 0 200.000000 110.000000"
 preserveAspectRatio="xMidYMid meet">
<metadata>
Created by potrace 1.16, written by Peter Selinger 2001-2019
</metadata>
<g transform="translate(0.000000,110.000000) scale(0.100000,-0.100000)"
fill="#000000" stroke="none">
<path d="M524 973 c-9 -10 -23 -33 -31 -51 l-14 -34 -83 7 c-73 6 -85 4 -106
-14 l-25 -20 23 -21 c16 -15 23 -34 24 -68 4 -94 -8 -285 -22 -379 -6 -33 -7
-68 -4 -76 4 -11 -3 -17 -25 -22 -17 -3 -35 -4 -41 0 -5 3 -18 1 -29 -5 -20
-10 -20 -11 6 -61 22 -44 24 -55 13 -77 -10 -23 -9 -29 10 -44 25 -20 51 -23
67 -7 6 6 26 14 44 19 190 50 400 99 444 105 75 10 114 17 170 30 233 54 329
78 391 96 39 11 77 17 86 14 8 -3 21 1 28 10 15 18 53 20 81 3 17 -10 23 -10
26 0 3 6 10 12 17 12 8 0 25 10 40 21 23 18 42 24 99 28 4 1 7 8 7 17 0 18 -5
18 -112 -12 -37 -10 -71 -15 -75 -11 -9 10 27 78 44 84 7 3 38 2 68 -2 42 -5
53 -10 48 -21 -5 -13 7 -15 88 -10 67 3 94 8 94 18 0 7 -19 16 -45 20 -25 4
-54 12 -65 17 -11 5 -34 12 -52 15 -17 3 -72 21 -122 41 -50 19 -99 35 -108
35 -21 0 -150 43 -190 63 -15 8 -53 20 -83 27 -49 11 -125 42 -285 115 -27 13
-68 28 -90 35 -22 7 -86 32 -143 56 -57 24 -109 44 -117 44 -8 0 -15 5 -15 10
0 15 -17 12 -36 -7z m83 -65 c29 -12 53 -27 53 -34 0 -7 10 -15 23 -17 12 -3
-9 -2 -48 1 -38 3 -71 9 -73 13 -2 5 -11 9 -19 9 -10 0 -13 6 -9 16 3 9 6 20
6 25 0 13 9 11 67 -13z m-222 -89 c4 -6 19 -7 36 -4 24 5 28 4 23 -9 -3 -9
-10 -16 -15 -16 -5 0 -9 -5 -9 -10 0 -16 -44 -110 -51 -110 -4 0 -7 25 -8 55
0 30 -1 58 -2 62 -6 36 11 57 26 32z m409 2 c4 -5 -3 -7 -14 -4 -23 6 -26 13
-6 13 8 0 17 -4 20 -9z m-116 -23 c2 -13 -3 -18 -18 -18 -17 0 -21 -5 -18 -23
1 -13 -15 -50 -40 -90 -23 -36 -43 -72 -43 -79 -1 -7 -5 3 -8 22 -4 19 -3 51
1 70 4 19 8 50 8 68 0 58 15 73 68 70 35 -2 48 -7 50 -20z m191 6 l39 -15 -32
-79 c-18 -44 -37 -85 -43 -92 -12 -15 -28 -60 -25 -70 1 -5 -3 -8 -9 -8 -5 0
-7 -6 -3 -12 5 -10 4 -10 -6 -1 -15 14 -15 94 1 155 6 24 10 52 10 63 -1 20
18 75 25 75 2 0 21 -7 43 -16z m-373 -76 c-24 -46 -46 -95 -50 -110 -12 -51
10 -29 43 45 34 73 51 79 32 10 -6 -21 -11 -62 -11 -92 0 -30 -4 -70 -10 -88
-24 -79 -29 -100 -32 -133 -2 -24 -9 -37 -23 -42 -29 -9 -57 -9 -51 0 5 9 21
126 31 237 4 33 8 67 10 75 3 8 7 34 10 57 9 77 38 123 75 123 17 0 14 -10
-24 -82z m259 50 c-4 -13 -15 -32 -25 -43 -10 -11 -25 -35 -34 -52 -9 -18 -21
-33 -27 -33 -6 0 -7 6 -2 12 4 7 6 25 4 40 -1 14 2 29 8 33 6 3 11 14 11 24 0
24 20 41 48 41 20 0 22 -4 17 -22z m259 -27 l28 -11 -32 -33 c-18 -17 -36 -42
-41 -54 -5 -15 -14 -21 -24 -17 -12 5 -15 20 -13 71 3 63 4 64 28 59 14 -2 38
-9 54 -15z m-255 -81 c-5 -30 -11 -86 -13 -125 -5 -102 -23 -188 -43 -202 -22
-17 -73 -17 -73 0 0 6 5 30 9 52 5 22 12 58 15 79 4 22 10 44 15 50 5 6 19 40
31 76 21 60 59 135 65 128 1 -2 -2 -28 -6 -58z m354 43 c24 -7 21 -20 -7 -38
-15 -10 -28 -33 -35 -60 -20 -80 -53 -70 -53 15 1 58 32 106 62 94 8 -3 23 -9
33 -11z m89 -42 c-14 -30 -75 -121 -83 -121 -15 0 -1 89 20 118 15 22 26 28
45 25 18 -4 23 -9 18 -22z m-314 -32 c-6 -16 -12 -28 -14 -26 -5 5 13 57 20
57 3 0 0 -14 -6 -31z m411 15 c8 -7 -62 -74 -71 -68 -12 8 -10 58 4 72 12 12
55 9 67 -4z m-686 -61 c-3 -32 -5 -62 -4 -68 5 -36 2 -78 -11 -135 l-15 -65
-43 -3 -43 -3 8 33 c4 18 8 42 10 53 14 89 23 113 46 125 12 7 19 21 19 40 0
17 4 30 9 30 5 0 12 11 15 25 11 43 15 27 9 -32z m-209 -20 c-1 -21 -5 -56 -9
-78 -5 -22 -9 -53 -10 -70 -4 -60 -18 -114 -32 -119 -23 -9 -27 22 -15 113 7
47 14 106 17 131 3 24 12 48 20 53 8 4 15 16 16 25 0 16 1 16 7 0 4 -10 7 -34
6 -55z m966 57 c5 0 2 -13 -6 -30 -20 -40 -32 -38 -32 6 0 27 3 34 15 30 8 -3
18 -6 23 -6z m-427 -25 c-7 -21 -13 -19 -13 6 0 11 4 18 10 14 5 -3 7 -12 3
-20z m-63 -15 c0 -5 -2 -10 -4 -10 -3 0 -8 5 -11 10 -3 6 -1 10 4 10 6 0 11
-4 11 -10z m103 -12 c7 -27 -23 -191 -37 -200 -6 -4 -24 -8 -40 -8 -25 0 -28
3 -22 23 3 12 9 39 12 60 4 22 12 37 20 37 12 0 19 13 12 23 -2 2 2 10 8 18 6
8 14 26 18 42 8 32 22 35 29 5z m317 -35 c-3 -32 -9 -63 -13 -70 -4 -6 -3 -14
2 -18 11 -6 3 -36 -13 -47 -6 -4 -21 -8 -33 -8 -21 0 -23 5 -23 45 0 26 7 60
16 78 17 33 53 77 64 77 3 0 3 -26 0 -57z m190 50 c-1 -10 -36 -53 -44 -53 -3
0 -6 7 -6 15 0 8 -7 15 -15 15 -11 0 -15 -12 -15 -47 0 -30 -6 -53 -17 -65
-16 -18 -16 -19 7 -25 21 -6 22 -7 6 -13 -10 -3 -31 -4 -47 -2 -23 3 -29 9
-29 28 0 34 22 83 54 122 23 26 35 32 67 32 21 0 39 -3 39 -7z m-305 -59 c-1
-34 -7 -53 -25 -71 -20 -20 -21 -26 -9 -34 8 -5 17 -9 22 -9 4 0 7 -6 7 -14 0
-9 -14 -15 -40 -18 -37 -3 -40 -2 -40 22 0 29 30 98 61 141 11 16 21 29 22 29
2 0 2 -21 2 -46z m368 39 c4 -3 -1 -12 -11 -19 -10 -8 -12 -13 -4 -14 21 0 13
-20 -8 -20 -15 0 -20 -7 -20 -25 0 -14 -7 -28 -15 -31 -10 -4 -13 -13 -10 -25
5 -14 1 -19 -14 -19 -32 0 -27 53 10 112 28 44 55 59 72 41z m-682 -13 c3 -24
2 -38 -5 -80 -20 -116 -30 -130 -100 -130 -22 0 -26 3 -18 13 11 13 96 177 98
190 3 16 4 17 14 17 6 0 11 -4 11 -10z m169 -19 c0 -6 -4 -13 -10 -16 -5 -3
-10 1 -10 9 0 9 5 16 10 16 6 0 10 -4 10 -9z m33 -53 c-9 -86 -16 -103 -46
-106 -24 -3 -27 0 -27 25 0 30 54 133 69 133 5 0 7 -23 4 -52z m-296 -20 c-3
-8 -6 -5 -6 6 -1 11 2 17 5 13 3 -3 4 -12 1 -19z m501 -100 c-5 -15 -58 -24
-58 -9 0 11 17 19 43 20 11 1 17 -4 15 -11z m-90 -15 c3 -12 -11 -20 -65 -37
-20 -6 -23 -4 -23 17 0 13 3 27 7 31 12 11 76 2 81 -11z m-128 -23 c0 -26 -4
-30 -37 -35 -21 -3 -54 -10 -73 -15 -19 -5 -87 -19 -150 -30 -63 -12 -157 -30
-209 -42 -51 -11 -106 -17 -122 -14 -21 4 -31 1 -35 -8 -3 -9 -34 -20 -74 -27
-76 -13 -100 -5 -100 33 0 11 -5 28 -11 40 -12 23 -12 23 19 32 16 6 22 3 22
-8 0 -22 17 -20 32 4 15 23 43 27 34 5 -8 -21 21 -19 32 2 5 9 26 18 46 20 34
3 36 2 36 -26 0 -16 4 -32 9 -35 14 -9 34 22 28 44 -5 18 0 20 38 20 24 0 47
-4 50 -10 10 -17 33 -11 40 10 5 15 15 20 41 20 31 0 35 -3 32 -22 -4 -29 25
-31 30 -3 5 28 14 35 56 45 34 7 36 6 36 -17 0 -18 5 -24 18 -21 10 2 17 12
16 26 -1 28 29 37 95 29 26 -3 54 -1 62 4 26 16 39 10 39 -21z"/>
</g>
</svg>
