<?xml version="1.0" standalone="no"?>
<!DOCTYPE svg PUBLIC "-//W3C//DTD SVG 20010904//EN"
 "http://www.w3.org/TR/2001/REC-SVG-20010904/DTD/svg10.dtd">
<svg version="1.0" xmlns="http://www.w3.org/2000/svg"
 width="173.000000pt" height="109.000000pt" viewBox="0 0 173.000000 109.000000"
 preserveAspectRatio="xMidYMid meet">
<metadata>
Created by potrace 1.16, written by Peter Selinger 2001-2019
</metadata>
<g transform="translate(0.000000,109.000000) scale(0.100000,-0.100000)"
fill="#000000" stroke="none">
<path d="M1338 947 c-32 -12 -37 -27 -10 -27 17 0 19 -7 15 -77 -2 -43 -8
-114 -14 -158 -6 -44 -10 -137 -10 -207 1 -71 -1 -128 -5 -128 -3 0 -18 8 -32
19 -15 10 -63 37 -108 60 l-81 41 11 67 c13 75 14 76 119 87 61 7 76 14 62 28
-3 3 -38 -1 -78 -8 -40 -8 -73 -14 -74 -14 -2 0 -3 5 -3 10 0 6 8 10 18 10 13
0 14 2 4 9 -11 7 -8 19 13 62 15 30 41 69 57 87 15 18 26 37 24 41 -5 8 -157
5 -194 -4 -31 -8 -18 -25 19 -25 l29 0 -1 -62 c-2 -100 -7 -112 -62 -122 -26
-4 -47 -12 -47 -17 0 -13 -34 -11 -65 3 -34 15 -45 0 -45 -62 0 -28 -8 -56
-20 -75 -11 -16 -20 -33 -20 -37 0 -4 38 -4 84 -1 88 6 148 -7 141 -30 -12
-41 -14 -67 -5 -67 5 0 10 7 10 15 0 8 9 24 19 34 11 11 16 23 13 27 -4 4 -2
5 3 2 6 -3 28 -13 50 -23 22 -9 47 -21 55 -25 8 -5 34 -19 58 -31 l42 -23 0
-65 c0 -73 5 -85 38 -95 26 -9 26 -8 9 35 -8 19 -13 41 -12 49 0 8 4 65 9 125
4 61 9 128 11 151 2 22 15 67 29 100 34 81 119 238 150 279 34 44 33 52 -6 49
-69 -5 -134 -5 -153 -1 -11 3 -32 0 -47 -6z m158 -64 c-18 -27 -52 -83 -75
-125 -23 -43 -43 -78 -44 -78 -1 0 -1 24 0 52 1 29 2 83 2 120 l1 67 53 4 c28
2 62 4 74 5 22 2 22 0 -11 -45z m-306 -62 c0 -9 -54 -101 -59 -101 -11 0 -10
94 1 101 11 7 58 7 58 0z m-103 -197 c-3 -3 -12 -4 -19 -1 -8 3 -5 6 6 6 11 1
17 -2 13 -5z m-1 -77 c-3 -28 -11 -54 -18 -59 -10 -6 -10 -10 2 -19 12 -8 9
-9 -10 -3 -34 9 -41 13 -86 53 l-38 34 23 16 c27 18 111 40 125 33 5 -3 6 -27
2 -55z m-149 37 c-3 -3 -12 -4 -19 -1 -8 3 -5 6 6 6 11 1 17 -2 13 -5z m15
-71 c15 -15 28 -30 28 -35 0 -7 -89 0 -98 8 -4 3 31 53 37 54 3 0 18 -12 33
-27z"/>
<path d="M240 925 c-7 -9 -21 -50 -31 -92 -16 -65 -16 -79 -5 -102 10 -19 13
-68 12 -179 l-1 -154 -30 -24 c-16 -12 -27 -26 -24 -29 10 -9 63 23 94 56 17
17 47 42 67 55 37 24 38 24 175 13 124 -10 193 -16 201 -18 1 -1 -7 -19 -18
-41 -24 -47 -25 -60 -5 -60 9 0 15 -9 15 -25 0 -34 17 -32 25 4 6 28 7 29 74
29 64 1 75 -3 182 -58 63 -33 146 -75 184 -94 39 -20 103 -53 142 -76 40 -22
78 -40 85 -40 31 0 -40 46 -192 123 -384 195 -462 246 -420 272 21 13 10 27
-16 21 -26 -7 -26 -6 -19 30 11 61 73 155 141 214 35 30 73 63 85 73 17 15
102 39 307 84 12 3 25 9 28 14 8 13 -34 11 -96 -6 -161 -43 -258 -50 -325 -25
-14 5 -31 7 -36 4 -15 -9 21 -44 45 -44 47 0 49 -16 5 -49 -24 -17 -47 -31
-51 -31 -9 0 -12 20 -9 71 3 39 -15 61 -30 38 -5 -8 -9 -31 -9 -53 l0 -38 -57
5 c-206 18 -360 57 -413 103 -43 37 -66 46 -80 29z m85 -89 l39 -18 -33 -14
c-47 -20 -71 -18 -71 5 0 25 11 53 19 48 3 -2 24 -11 46 -21z m275 -57 c25 -4
61 -12 80 -16 l35 -9 2 -69 c1 -39 -4 -99 -11 -135 -11 -60 -13 -65 -36 -63
-190 13 -292 30 -382 61 -59 21 -61 36 -10 95 74 87 92 112 92 129 0 9 6 19
13 22 14 6 154 -3 217 -15z m-291 -51 c-7 -13 -22 -36 -33 -51 l-21 -29 -6 24
c-4 13 -7 30 -8 39 -1 17 32 37 62 38 15 1 16 -2 6 -21z m486 12 c7 -11 -34
-95 -42 -86 -3 3 -2 26 1 51 7 43 26 60 41 35z m-511 -288 c-22 -21 -42 -36
-47 -34 -10 4 4 86 16 94 6 3 24 0 40 -9 l29 -15 -38 -36z m517 -70 c-7 -2
-28 -1 -47 2 -24 5 -34 12 -34 25 0 30 11 31 52 3 22 -14 35 -28 29 -30z"/>
</g>
</svg>
