<?xml version="1.0" standalone="no"?>
<!DOCTYPE svg PUBLIC "-//W3C//DTD SVG 20010904//EN"
 "http://www.w3.org/TR/2001/REC-SVG-20010904/DTD/svg10.dtd">
<svg version="1.0" xmlns="http://www.w3.org/2000/svg"
 width="272.000000pt" height="132.000000pt" viewBox="0 0 272.000000 132.000000"
 preserveAspectRatio="xMidYMid meet">
<metadata>
Created by potrace 1.16, written by Peter Selinger 2001-2019
</metadata>
<g transform="translate(0.000000,132.000000) scale(0.100000,-0.100000)"
fill="#000000" stroke="none">
<path d="M1334 1213 c4 -5 -30 -15 -76 -24 -62 -11 -84 -19 -86 -32 -3 -12 3
-17 22 -17 33 0 38 -21 32 -135 -2 -49 -5 -91 -5 -91 -1 -1 -81 -5 -178 -9
-254 -11 -487 -9 -563 5 -120 21 -194 27 -218 17 -26 -12 -24 -28 4 -41 15 -7
25 -29 38 -88 15 -67 16 -93 7 -192 -5 -63 -8 -125 -6 -137 3 -13 -2 -33 -10
-45 -10 -16 -11 -24 -2 -33 13 -13 37 -15 37 -2 0 16 77 40 163 51 47 6 106
17 133 25 26 8 50 13 51 11 2 -2 -3 -30 -12 -62 -16 -61 -18 -141 -3 -150 4
-3 8 -25 8 -50 0 -24 4 -44 9 -44 11 0 17 42 20 134 1 39 6 87 11 106 5 19 8
44 7 55 -2 22 -20 21 223 23 80 1 160 -1 178 -4 19 -4 38 -1 47 6 8 7 22 9 31
6 14 -5 16 -16 11 -65 -4 -36 -2 -62 4 -68 8 -8 8 -31 0 -80 -16 -103 -9 -169
23 -202 14 -15 26 -32 26 -38 0 -22 19 -24 40 -3 25 25 139 104 164 113 10 4
62 36 115 71 126 83 349 199 444 230 42 14 122 47 179 74 57 27 114 53 128 57
14 4 32 13 40 20 8 8 66 39 128 70 108 55 129 75 76 75 -15 0 -24 6 -24 15 0
16 -35 21 -44 6 -8 -12 -258 74 -346 119 -19 10 -69 28 -110 40 -41 12 -142
55 -225 95 -82 40 -166 78 -185 85 -19 7 -56 23 -81 36 -69 36 -176 74 -206
74 -14 0 -23 -3 -19 -7z m186 -87 c63 -30 131 -61 150 -68 68 -28 85 -37 72
-37 -7 -1 -27 5 -46 13 -18 7 -66 19 -107 25 -124 20 -221 45 -226 58 -5 14
22 63 35 63 4 0 59 -24 122 -54z m-192 9 c-6 -14 -14 -25 -17 -25 -3 0 -6 -17
-7 -38 -1 -55 -32 -152 -49 -152 -8 0 -12 6 -10 13 5 14 14 123 14 179 1 38 9
44 58 47 21 1 22 -1 11 -24z m79 -66 c15 -5 46 -13 68 -15 67 -9 181 -39 355
-94 91 -29 179 -55 195 -60 31 -8 63 -19 175 -63 36 -14 83 -32 105 -41 22 -8
65 -22 96 -30 31 -9 67 -24 80 -35 l23 -19 -74 -38 c-41 -21 -118 -57 -170
-80 -52 -23 -117 -53 -145 -67 -27 -13 -64 -27 -81 -30 -17 -3 -55 -17 -85
-30 -70 -32 -134 -58 -239 -97 -47 -18 -132 -56 -190 -86 -88 -45 -188 -87
-261 -110 -21 -7 -29 40 -19 100 4 22 6 122 5 221 -2 168 -1 187 27 300 16 66
38 152 50 190 12 39 22 76 24 83 4 15 24 15 61 1z m-193 -311 c-5 -153 -10
-227 -16 -234 -7 -6 -395 -12 -435 -6 -41 6 -42 18 -7 109 14 37 28 75 30 84
5 13 -5 17 -53 22 -70 6 -98 -10 -70 -41 17 -19 28 -105 19 -154 l-4 -27 -154
0 c-84 0 -159 -3 -165 -6 -8 -6 -10 20 -7 94 l5 101 39 34 c42 37 190 90 279
101 28 4 75 13 105 22 60 16 164 26 332 31 l106 3 -4 -133z m-796 106 c30 -8
28 -16 -18 -69 -41 -47 -44 -47 -53 10 -3 17 -9 38 -12 48 -6 14 -1 17 26 17
19 0 44 -3 57 -6z m237 -5 c6 0 -15 -7 -45 -14 -30 -7 -77 -20 -103 -28 -45
-14 -47 -14 -35 1 38 51 37 51 106 47 37 -3 72 -5 77 -6z m598 -9 c-3 -11 -7
-20 -9 -20 -2 0 -4 9 -4 20 0 11 4 20 9 20 5 0 7 -9 4 -20z m-514 -172 c0 -7
-7 -29 -14 -48 l-13 -35 -1 48 c-1 35 3 47 14 47 8 0 15 -6 14 -12z m-204
-198 c-3 -5 -23 -10 -43 -10 -20 0 -59 -7 -86 -15 -61 -19 -66 -19 -66 0 0 18
25 24 120 28 41 2 76 4 78 5 2 1 0 -2 -3 -8z m1145 -164 c0 -8 -199 -136 -226
-146 -13 -5 -48 -25 -77 -43 -75 -48 -82 -49 -108 -21 -28 30 -22 36 60 60 56
17 107 40 201 89 43 23 101 48 148 64 1 1 2 -1 2 -3z"/>
<path d="M1401 897 c-14 -18 -4 -27 31 -27 21 0 28 -5 28 -19 0 -10 -6 -23
-13 -29 -10 -8 -13 -6 -14 10 -2 26 -11 34 -22 22 -6 -5 -6 -29 0 -59 5 -27 7
-55 5 -62 -3 -6 -8 -71 -11 -145 -3 -73 -8 -143 -11 -155 -2 -13 0 -23 6 -23
5 0 10 -13 10 -29 0 -41 17 -48 48 -18 37 35 102 77 118 77 16 0 18 -38 5 -60
-12 -18 -5 -31 14 -23 8 3 15 18 15 34 0 69 30 91 235 174 50 20 113 50 141
65 28 16 70 30 93 33 22 2 44 6 47 10 8 8 -40 27 -69 27 -12 0 -58 18 -102 40
-44 22 -86 40 -94 40 -14 0 -67 15 -106 31 -28 10 -153 46 -194 54 -18 4 -42
16 -52 26 -22 22 -91 26 -108 6z m221 -74 c15 -7 30 -13 33 -13 5 -1 12 -3 70
-25 22 -9 29 -13 15 -10 -14 3 -74 12 -135 21 -60 8 -112 17 -114 19 -2 2 -1
11 2 19 5 12 16 14 54 9 26 -3 60 -12 75 -20z m-42 -43 c191 -22 445 -81 438
-102 -4 -11 -88 -59 -133 -75 -66 -24 -162 -61 -197 -77 l-37 -16 9 28 c15 50
39 98 54 112 30 24 19 40 -30 40 -25 0 -53 4 -63 10 -12 6 -23 5 -33 -3 -11
-10 -13 -32 -8 -111 3 -54 3 -102 0 -106 -3 -5 -38 -18 -78 -29 l-72 -20 -1
32 c-2 57 -2 71 5 149 3 43 11 89 16 103 6 14 14 36 20 50 5 14 13 25 17 25 5
0 46 -5 93 -10z m62 -205 c-13 -41 -27 -73 -31 -70 -10 6 -12 60 -5 108 5 32
9 37 33 37 l27 0 -24 -75z"/>
</g>
</svg>
