<?xml version="1.0" standalone="no"?>
<!DOCTYPE svg PUBLIC "-//W3C//DTD SVG 20010904//EN"
 "http://www.w3.org/TR/2001/REC-SVG-20010904/DTD/svg10.dtd">
<svg version="1.0" xmlns="http://www.w3.org/2000/svg"
 width="103.000000pt" height="124.000000pt" viewBox="0 0 103.000000 124.000000"
 preserveAspectRatio="xMidYMid meet">
<metadata>
Created by potrace 1.16, written by Peter Selinger 2001-2019
</metadata>
<g transform="translate(0.000000,124.000000) scale(0.100000,-0.100000)"
fill="#000000" stroke="none">
<path d="M297 1208 c-29 -16 -19 -38 28 -58 43 -18 44 -21 35 -46 -19 -49 -22
-86 -26 -334 -3 -149 -9 -254 -16 -267 -6 -12 -8 -32 -5 -44 7 -28 -11 -236
-23 -265 -5 -14 -27 -28 -58 -38 -28 -10 -53 -24 -56 -32 -8 -20 17 -18 58 7
20 11 41 22 48 23 7 1 31 12 53 23 22 11 76 35 120 52 265 105 413 235 440
386 16 85 11 110 -34 203 -26 53 -170 201 -223 228 -25 13 -64 35 -84 49 -31
21 -144 79 -225 116 -8 4 -23 3 -32 -3z m231 -160 c43 -33 50 -43 40 -55 -8
-10 -13 -80 -15 -226 -1 -117 -4 -270 -6 -340 -5 -144 -3 -140 -92 -175 -27
-11 -67 -27 -87 -36 -21 -9 -38 -12 -38 -7 0 5 9 13 21 16 16 5 19 12 14 28
-9 30 -7 72 10 212 7 66 16 218 19 338 3 119 10 236 16 258 10 38 13 40 38 34
15 -4 51 -25 80 -47z m202 -158 c42 -44 86 -104 98 -133 48 -105 24 -216 -65
-305 -59 -58 -155 -124 -166 -113 -4 4 -7 66 -6 137 1 71 1 214 0 317 0 104 1
193 5 198 10 17 60 -20 134 -101z"/>
</g>
</svg>
