<?xml version="1.0" standalone="no"?>
<!DOCTYPE svg PUBLIC "-//W3C//DTD SVG 20010904//EN"
 "http://www.w3.org/TR/2001/REC-SVG-20010904/DTD/svg10.dtd">
<svg version="1.0" xmlns="http://www.w3.org/2000/svg"
 width="232.000000pt" height="142.000000pt" viewBox="0 0 232.000000 142.000000"
 preserveAspectRatio="xMidYMid meet">
<metadata>
Created by potrace 1.16, written by Peter Selinger 2001-2019
</metadata>
<g transform="translate(0.000000,142.000000) scale(0.100000,-0.100000)"
fill="#000000" stroke="none">
<path d="M1955 1359 c-27 -11 -77 -24 -110 -28 -60 -9 -293 -65 -330 -81 -81
-34 -544 -168 -640 -185 -40 -7 -65 -20 -65 -36 0 -15 96 2 228 42 73 21 136
39 140 39 12 -1 -107 -50 -198 -81 -81 -28 -88 -29 -155 -18 -44 7 -111 9
-177 5 -59 -3 -179 -2 -266 4 -101 7 -168 7 -184 1 -24 -9 -24 -11 -20 -94 3
-55 -1 -111 -11 -159 -26 -122 -30 -151 -28 -211 2 -66 16 -111 31 -102 5 3
10 19 10 34 0 25 6 30 54 45 29 9 78 17 107 18 64 0 277 24 302 34 9 3 33 3
53 -1 l36 -6 -6 -52 c-9 -86 -10 -162 -1 -167 5 -3 15 23 23 58 11 52 17 62
30 57 10 -4 31 -9 47 -11 17 -3 64 -14 105 -24 41 -10 95 -22 120 -25 25 -4
50 -11 55 -15 6 -4 28 -10 50 -13 22 -4 91 -27 153 -52 63 -25 119 -45 125
-45 7 0 39 -14 71 -30 32 -17 67 -30 78 -30 10 0 32 -7 47 -15 61 -31 191 -73
197 -64 9 16 1 20 -99 55 -50 18 -123 44 -162 60 -38 15 -108 40 -155 56 -47
16 -92 35 -100 42 -8 7 -40 18 -70 25 -53 11 -149 44 -235 79 -22 9 -77 42
-123 74 -46 31 -88 58 -95 61 -11 3 -5 41 35 226 23 108 47 140 118 160 25 7
70 23 100 36 53 23 153 57 215 74 17 5 38 12 47 16 13 5 15 2 11 -13 -3 -14 1
-22 15 -26 11 -4 35 -25 53 -48 32 -39 83 -101 114 -140 7 -9 21 -28 30 -41
19 -30 16 -32 -100 -52 -79 -14 -80 -14 -97 8 -10 12 -18 26 -18 30 0 5 -9 21
-19 36 -31 43 -60 142 -50 169 15 39 -15 59 -41 27 -7 -8 -29 -19 -50 -25 -21
-6 -43 -17 -50 -26 -11 -12 -8 -19 17 -42 37 -32 153 -183 153 -198 0 -14
-157 -36 -198 -28 -29 6 -32 4 -40 -27 -5 -19 -6 -38 -2 -44 8 -12 43 -105 46
-120 0 -5 2 -18 2 -27 3 -27 19 -22 70 25 58 52 119 100 151 117 22 12 27 9
72 -41 31 -35 48 -48 49 -37 0 9 -4 18 -8 20 -12 5 -52 65 -52 78 0 23 27 -9
103 -123 42 -62 91 -128 111 -146 36 -35 51 -34 19 2 -10 10 -59 80 -110 156
l-91 136 31 17 c18 9 56 27 86 39 l54 23 40 -45 39 -44 -26 46 c-20 36 -23 48
-13 52 14 5 25 -8 66 -88 15 -27 35 -63 45 -80 18 -29 18 -29 0 -8 -11 12 -27
34 -37 48 -10 14 -22 25 -28 25 -14 0 15 -51 50 -89 17 -18 31 -35 31 -37 0
-9 63 -74 72 -74 16 0 -6 55 -54 137 -26 45 -48 85 -48 88 0 4 -14 27 -31 51
-17 25 -29 46 -27 47 1 2 24 12 50 24 l47 22 31 -37 c17 -20 48 -68 68 -106
21 -38 42 -68 47 -67 14 3 8 24 -30 116 -49 115 -49 113 17 149 31 17 60 28
64 23 14 -13 13 -98 -2 -165 -33 -152 -54 -269 -54 -297 0 -16 -4 -37 -9 -44
-8 -12 -12 -10 -22 12 -7 15 -19 27 -26 27 -15 0 -13 -6 21 -55 19 -27 21 -44
21 -190 0 -144 2 -160 18 -163 15 -3 17 7 18 105 0 59 4 133 9 163 5 30 18
129 29 220 31 246 45 323 103 530 11 41 27 102 34 135 8 32 26 74 41 93 14 19
21 37 17 42 -5 5 -36 11 -69 14 -46 4 -72 0 -110 -15z m123 -34 c3 -3 -40
-149 -78 -265 -22 -67 -25 -42 -6 65 8 44 12 98 10 121 -3 22 0 53 6 68 9 24
14 27 38 21 15 -4 28 -8 30 -10z m-108 -78 c0 -35 -4 -88 -9 -118 -5 -30 -12
-75 -16 -100 -6 -44 -7 -46 -61 -69 -31 -13 -59 -19 -64 -14 -4 5 -22 36 -40
69 -18 33 -38 67 -45 75 -7 8 -22 34 -34 56 l-20 42 22 15 c21 16 21 16 -19
16 -25 1 -59 -9 -88 -24 -26 -14 -56 -25 -67 -25 -33 0 -21 -27 39 -87 31 -32
75 -79 96 -103 l39 -45 -23 40 c-13 22 -43 65 -68 95 l-44 54 29 23 c15 13 36
23 45 23 17 0 88 -106 88 -132 0 -9 10 -39 22 -67 16 -39 18 -55 10 -63 -9 -9
-17 -7 -32 7 -20 18 -29 8 -10 -11 7 -7 -8 -16 -47 -28 -35 -11 -59 -14 -61
-8 -1 5 -19 36 -38 68 -50 83 -114 211 -114 229 0 21 103 70 190 89 41 10 91
21 110 26 19 5 46 7 60 4 14 -2 48 2 75 10 77 22 75 23 75 -47z m-608 -91
c-18 -6 -31 -14 -28 -16 2 -3 -17 -6 -42 -6 l-47 -1 55 18 c62 20 116 25 62 5z
m79 -46 c-7 -5 18 -50 113 -200 30 -48 36 -64 26 -73 -9 -9 -18 -4 -39 22 -56
72 -176 216 -184 222 -5 4 11 17 35 31 27 15 46 20 50 14 4 -6 3 -13 -1 -16z
m-209 -178 c20 -42 49 -96 63 -119 37 -61 23 -53 -27 14 -82 111 -116 168
-104 175 23 15 32 6 68 -70z m-982 19 c0 -11 -9 -38 -19 -61 l-19 -43 -4 61
c-2 49 0 62 12 65 21 5 30 -1 30 -22z m269 15 c-2 -2 -30 -7 -63 -11 -32 -3
-86 -15 -120 -25 -33 -11 -62 -20 -64 -20 -1 0 4 14 13 30 l16 30 111 0 c61 0
109 -2 107 -4z m242 -63 c0 -71 17 -64 18 8 1 40 16 59 45 59 20 -1 20 -1 2
-15 -10 -8 -16 -21 -13 -29 4 -9 -3 -41 -13 -73 -11 -32 -20 -66 -20 -75 0
-10 -4 -18 -10 -18 -5 0 -8 14 -6 30 2 17 0 30 -5 30 -7 0 -14 -55 -22 -160
l-2 -35 -278 0 -277 0 4 25 c3 14 8 43 11 64 4 22 18 68 32 102 21 53 30 65
56 73 48 15 247 51 287 51 19 1 49 7 65 15 17 7 51 14 78 14 l47 1 1 -67z
m1043 41 c3 -8 2 -12 -4 -9 -6 3 -10 10 -10 16 0 14 7 11 14 -7z m-10 -103
c-6 -6 -24 19 -24 34 1 6 7 1 15 -9 8 -11 12 -22 9 -25z m-444 -105 c0 -3 -4
-8 -10 -11 -5 -3 -10 -1 -10 4 0 6 5 11 10 11 6 0 10 -2 10 -4z m-50 -19 c0
-7 -39 -38 -86 -69 l-85 -57 -19 42 c-31 67 -31 67 80 86 72 13 110 12 110 -2z
m-862 -124 c-10 -2 -26 -2 -35 0 -10 3 -2 5 17 5 19 0 27 -2 18 -5z m-173 -22
c-27 -10 -57 -22 -66 -26 -20 -7 -33 9 -25 30 4 11 23 15 73 15 l68 -1 -50
-18z m575 -33 c19 -12 58 -35 85 -51 28 -16 43 -27 35 -24 -9 3 -42 10 -75 16
-92 18 -115 30 -115 57 0 31 23 31 70 2z"/>
<path d="M1430 560 c0 -5 9 -15 20 -22 11 -7 20 -18 20 -25 0 -15 84 -148 99
-157 5 -4 20 -27 32 -51 12 -25 26 -45 31 -45 16 0 8 22 -29 77 -21 30 -49 74
-63 97 -64 107 -110 159 -110 126z"/>
</g>
</svg>
