<?xml version="1.0" standalone="no"?>
<!DOCTYPE svg PUBLIC "-//W3C//DTD SVG 20010904//EN"
 "http://www.w3.org/TR/2001/REC-SVG-20010904/DTD/svg10.dtd">
<svg version="1.0" xmlns="http://www.w3.org/2000/svg"
 width="164.000000pt" height="103.000000pt" viewBox="0 0 164.000000 103.000000"
 preserveAspectRatio="xMidYMid meet">
<metadata>
Created by potrace 1.16, written by Peter Selinger 2001-2019
</metadata>
<g transform="translate(0.000000,103.000000) scale(0.100000,-0.100000)"
fill="#000000" stroke="none">
<path d="M1438 1004 c-3 -3 -21 -6 -39 -6 -42 -1 -130 -29 -231 -74 -42 -19
-126 -52 -188 -74 -61 -22 -134 -52 -160 -66 -38 -21 -55 -25 -77 -18 -15 4
-62 8 -103 9 -73 2 -205 13 -245 21 -11 2 -76 4 -144 5 -99 1 -127 -2 -139
-15 -12 -12 -13 -18 -3 -30 16 -19 22 -234 9 -290 -6 -22 -7 -75 -3 -120 7
-71 9 -78 21 -61 8 10 14 29 14 41 0 18 9 23 57 34 32 7 106 15 165 19 108 7
135 14 108 31 -10 7 3 10 42 10 31 0 62 2 70 5 7 3 19 1 26 -3 9 -7 8 -21 -8
-67 -22 -64 -25 -95 -10 -95 11 0 20 17 24 46 2 10 8 20 15 22 8 3 10 -8 5
-37 -11 -67 12 -48 26 22 6 34 13 67 15 74 4 13 84 -16 177 -63 26 -13 55 -24
64 -24 9 0 37 -11 63 -25 25 -13 75 -36 111 -49 36 -14 87 -37 114 -51 27 -14
55 -25 63 -25 7 0 16 -14 20 -30 8 -41 19 -45 39 -15 13 19 14 33 7 62 -7 29
-5 50 8 90 10 29 20 65 22 80 3 15 7 44 11 63 3 19 8 58 11 85 3 28 10 80 15
118 6 37 14 95 19 130 14 92 37 158 70 202 17 22 31 45 31 51 0 18 -77 33 -92
18z m32 -49 c0 -12 -32 -67 -36 -63 -9 10 9 68 22 68 8 0 14 -2 14 -5z m-70
-17 c0 -46 -23 -247 -36 -313 -26 -131 -53 -285 -66 -367 -7 -43 -16 -78 -21
-78 -5 0 -30 11 -56 24 -25 14 -94 46 -153 72 -59 27 -106 49 -105 50 9 6 176
-20 198 -32 32 -16 69 -19 69 -5 0 9 -55 30 -137 51 -32 8 -43 16 -43 30 0 10
4 21 8 24 10 6 99 -16 128 -32 11 -6 25 -7 32 -4 24 16 -15 39 -105 62 -32 8
-43 16 -43 30 0 28 13 32 85 20 36 -6 71 -7 77 -4 20 12 -24 34 -68 34 -55 0
-74 8 -74 30 0 47 7 50 95 44 57 -5 84 -3 89 5 5 7 -6 11 -36 12 -59 1 -133
21 -132 37 1 6 2 21 3 33 1 20 4 20 102 13 85 -6 101 -4 97 7 -3 8 -17 13 -34
12 -16 -1 -57 3 -91 10 -60 10 -63 12 -63 39 0 33 13 35 104 17 42 -9 60 -9
68 -1 14 14 3 18 -73 27 -74 8 -89 20 -77 62 12 44 88 84 178 93 36 4 68 8 73
9 4 0 7 -5 7 -11z m-310 -109 c-7 -12 -17 -18 -27 -15 -8 3 -22 6 -31 7 -19 1
34 28 56 29 10 0 10 -5 2 -21z m-47 -46 c24 -4 28 -9 25 -31 l-3 -27 -104 4
c-79 2 -102 0 -99 -9 3 -9 33 -14 92 -15 48 -2 92 -7 98 -13 5 -5 6 -21 2 -36
-5 -23 -11 -26 -50 -26 -24 0 -44 -4 -44 -10 0 -5 12 -10 28 -10 15 0 33 -4
40 -9 16 -9 13 -77 -3 -75 -5 1 -53 5 -105 9 -72 5 -92 4 -84 -5 10 -10 114
-29 167 -30 11 0 17 -8 17 -24 0 -22 -4 -23 -90 -28 -50 -3 -94 -8 -97 -12
-14 -13 9 -19 72 -17 76 2 105 -10 105 -44 0 -24 -1 -24 -67 -19 -51 5 -89 16
-151 46 -46 22 -86 46 -89 54 -8 21 44 157 81 212 17 26 43 53 59 60 15 7 27
20 27 28 0 8 10 19 23 24 24 10 105 12 150 3z m-801 -39 c3 -3 -7 -31 -22 -62
-15 -31 -31 -68 -35 -81 -11 -37 -22 -12 -29 72 l-6 77 43 0 c24 0 46 -2 49
-6z m127 2 c-2 -2 -26 -10 -53 -19 -49 -17 -49 -17 -31 3 12 13 31 20 53 20
20 0 33 -2 31 -4z m325 -39 c3 -16 4 -32 2 -36 -3 -4 -10 -45 -16 -91 -18
-136 1 -127 -272 -127 -128 -1 -236 1 -240 3 -4 3 1 22 12 42 11 20 20 42 20
48 0 6 10 34 21 62 25 60 80 99 151 108 24 3 59 9 78 14 19 4 81 8 137 7 l101
-1 6 -29z m86 12 c0 -6 -12 -31 -27 -57 l-28 -47 -3 34 c-6 55 5 81 33 81 14
0 25 -5 25 -11z m-545 -308 l40 -7 -53 -13 c-54 -14 -82 -6 -68 18 8 13 24 13
81 2z"/>
<path d="M865 641 c-14 -14 0 -21 41 -21 25 0 43 4 40 9 -6 10 -74 20 -81 12z"/>
</g>
</svg>
