<?xml version="1.0" standalone="no"?>
<!DOCTYPE svg PUBLIC "-//W3C//DTD SVG 20010904//EN"
 "http://www.w3.org/TR/2001/REC-SVG-20010904/DTD/svg10.dtd">
<svg version="1.0" xmlns="http://www.w3.org/2000/svg"
 width="232.000000pt" height="139.000000pt" viewBox="0 0 232.000000 139.000000"
 preserveAspectRatio="xMidYMid meet">
<metadata>
Created by potrace 1.16, written by Peter Selinger 2001-2019
</metadata>
<g transform="translate(0.000000,139.000000) scale(0.100000,-0.100000)"
fill="#000000" stroke="none">
<path d="M1816 1332 c-52 -2 -72 -7 -85 -22 -20 -23 -131 -70 -167 -70 -37 0
-104 -21 -104 -33 0 -5 14 -7 33 -4 31 6 -154 -93 -205 -109 -13 -4 -55 -22
-94 -40 -90 -43 -105 -43 -128 1 -11 19 -17 37 -15 40 3 2 38 9 79 16 115 17
290 65 308 83 16 15 13 15 -33 1 -138 -42 -198 -55 -284 -64 -106 -11 -120
-19 -103 -55 11 -24 9 -26 -26 -33 -71 -15 -409 -6 -552 15 -142 21 -210 20
-210 -4 0 -17 -22 -18 -74 -3 -32 9 -41 8 -55 -6 -15 -15 -15 -17 0 -28 10 -8
16 -29 17 -62 0 -27 6 -81 13 -120 7 -44 10 -126 6 -222 -4 -126 -2 -153 9
-153 10 0 14 13 14 45 0 32 6 50 21 63 17 17 18 20 4 25 -17 7 -18 77 0 78 16
2 158 -11 185 -16 14 -3 104 -8 200 -12 154 -7 166 -8 100 -14 -41 -4 -147
-10 -235 -14 -88 -4 -164 -10 -169 -13 -34 -19 128 -16 399 8 194 18 190 18
188 -5 -6 -49 -3 -183 5 -210 14 -49 24 -30 27 52 4 92 17 139 36 136 8 0 53
-17 102 -36 48 -19 87 -31 87 -25 0 5 -39 27 -87 49 -83 38 -88 42 -88 71 0
17 5 33 11 35 5 2 36 -17 67 -41 32 -25 92 -65 135 -90 89 -52 140 -91 130
-101 -7 -8 -69 19 -111 48 -15 10 -33 17 -39 15 -7 -3 17 -19 52 -37 36 -18
72 -40 80 -50 16 -19 86 -38 75 -21 -8 13 21 13 46 0 26 -14 25 -33 -2 -25
-41 13 -9 -15 47 -42 30 -14 59 -33 64 -43 5 -9 27 -22 50 -29 23 -7 44 -19
47 -27 3 -8 12 -14 20 -14 9 0 26 -11 39 -25 13 -14 28 -25 34 -25 19 0 10 21
-22 51 -18 16 -33 35 -33 42 0 6 -10 12 -22 13 -12 1 -68 34 -125 75 l-103 73
55 18 c30 9 67 17 81 17 14 1 34 7 45 15 17 13 18 15 2 21 -16 6 -126 -23
-176 -47 -17 -9 -30 -8 -54 3 l-31 15 49 33 c36 23 56 31 74 26 46 -11 181
-21 319 -25 11 0 12 -13 6 -67 -14 -130 -21 -258 -15 -283 4 -14 14 -26 22
-28 13 -2 16 5 15 35 -1 50 28 332 35 339 2 1 23 5 47 8 61 8 64 16 7 16 -46
0 -47 1 -44 28 l3 27 118 -3 c97 -3 117 -1 117 11 0 12 -18 14 -105 10 -121
-5 -126 -2 -105 74 l13 46 84 -6 c68 -4 83 -2 83 10 0 11 -12 14 -52 13 -97
-3 -106 -1 -103 18 16 77 13 74 58 72 57 -2 67 -1 67 8 0 5 -23 9 -51 9 -27 0
-52 3 -55 5 -2 3 -1 29 3 59 l8 53 48 -3 c38 -2 47 1 47 14 0 12 -8 16 -27 15
-59 -4 -63 -2 -63 35 0 29 5 37 28 46 26 11 26 11 5 19 l-21 9 18 58 c16 51
40 118 65 176 6 15 1 17 -51 15 -33 -2 -90 -4 -128 -6z m124 -29 c0 -3 -7 -29
-15 -57 -8 -28 -20 -77 -26 -108 l-10 -58 -49 0 -49 0 -3 96 c-3 98 1 112 42
127 22 8 110 8 110 0z m-186 -39 c3 -9 6 -53 6 -100 l0 -83 -82 5 c-46 3 -119
10 -163 16 -44 6 -88 11 -99 10 -18 -1 -18 -1 0 13 11 8 23 15 27 15 5 0 72
32 149 70 77 39 144 70 148 70 4 0 11 -7 14 -16z m-288 -190 c51 -7 95 -23 64
-24 -9 0 -51 -20 -94 -45 -44 -25 -82 -43 -85 -40 -5 6 17 123 26 138 3 5 13
1 22 -7 10 -9 40 -19 67 -22z m-126 9 c-1 -5 -7 -35 -15 -68 -11 -47 -12 -67
-3 -92 9 -25 9 -41 0 -65 -6 -18 -14 -67 -17 -108 -3 -41 -9 -94 -14 -117 -8
-43 -8 -43 20 -43 18 0 32 7 39 21 11 20 138 85 195 99 l30 7 -28 12 c-17 6
-50 8 -82 5 -55 -7 -67 -24 -17 -24 24 0 22 -3 -16 -20 -23 -10 -59 -32 -79
-47 l-36 -28 6 44 c5 42 41 91 66 91 5 0 54 18 108 40 93 38 102 40 177 35 44
-2 80 -6 82 -7 1 -2 4 -23 5 -48 l4 -45 -87 0 c-47 0 -90 -3 -94 -7 -4 -5 34
-8 85 -8 l93 0 -7 -52 c-4 -29 -9 -55 -11 -57 -2 -2 -23 1 -46 7 -58 14 -288
16 -288 2 0 -11 15 -13 65 -11 l30 2 -27 -14 c-14 -8 -43 -20 -65 -27 -21 -7
-52 -21 -69 -31 -47 -28 -58 -25 -51 16 3 19 2 35 -3 35 -10 0 -20 -25 -20
-50 0 -29 -19 -34 -43 -12 -12 11 -49 37 -82 58 -89 57 -175 133 -175 155 0
10 -4 19 -9 19 -21 0 40 209 69 235 19 17 20 17 26 -1 4 -11 12 -25 18 -33 9
-11 12 -9 16 10 5 19 30 34 120 75 122 55 130 58 130 47z m418 -65 c3 -37 2
-38 -30 -38 -18 0 -91 -3 -163 -5 l-130 -5 30 20 c16 11 53 24 81 30 28 6 60
17 70 25 12 8 41 13 79 12 l60 -2 3 -37z m122 2 l0 -40 -44 0 c-48 0 -60 14
-50 56 5 21 12 24 50 24 l44 0 0 -40z m-1362 -15 c3 -3 -10 -5 -29 -6 -19 0
-71 -6 -117 -13 -46 -6 -85 -10 -87 -7 -7 12 33 49 56 53 25 3 169 -18 177
-27z m469 -51 c-14 -33 -27 -68 -30 -79 -24 -86 -60 -196 -67 -200 -4 -3 -9
61 -9 142 -1 81 -6 152 -10 156 -5 5 -10 -60 -10 -149 -1 -86 -3 -159 -5 -161
-12 -12 -284 -2 -419 16 -87 12 -180 21 -207 21 -54 0 -54 0 -50 70 1 19 5 40
10 45 4 6 15 32 25 58 10 26 26 52 37 58 17 9 257 44 378 55 30 3 80 10 111
15 36 7 67 8 90 1 24 -6 58 -5 105 3 38 6 70 10 72 9 2 -1 -8 -28 -21 -60z
m-755 40 c3 -3 -8 -33 -25 -66 -29 -58 -31 -60 -40 -37 -13 32 -20 78 -13 95
5 14 67 20 78 8z m1526 -91 l-3 -58 -45 2 c-246 12 -282 15 -269 28 8 7 39 21
69 30 30 10 61 23 69 29 8 6 46 14 85 17 39 3 77 6 84 7 10 2 12 -13 10 -55z
m114 27 c-2 -14 -8 -40 -13 -57 -9 -28 -15 -33 -42 -33 -32 0 -32 0 -29 48 5
70 7 74 49 70 34 -3 38 -6 35 -28z m-362 3 c-19 -8 -64 -31 -99 -50 l-64 -35
7 33 c11 57 28 67 114 67 l77 0 -35 -15z m-53 -96 l43 -13 -85 -40 c-85 -39
-85 -40 -85 -16 0 24 52 82 74 82 6 0 30 -6 53 -13z m386 -55 c-1 -35 -21 -68
-34 -55 -4 4 -10 27 -14 51 -7 43 -7 44 21 40 26 -3 29 -7 27 -36z m-24 -114
c-15 -66 -28 -80 -29 -31 0 50 8 73 25 73 10 0 11 -10 4 -42z m-70 -103 c8 -8
11 -21 7 -30 -5 -13 -14 -16 -39 -11 -17 3 -75 6 -127 7 -131 2 -148 10 -79
36 45 18 68 20 139 16 49 -3 91 -11 99 -18z m-429 -135 c0 -5 -4 -10 -9 -10
-6 0 -13 5 -16 10 -3 6 1 10 9 10 9 0 16 -4 16 -10z"/>
<path d="M215 590 c3 -5 12 -7 20 -3 21 7 19 13 -6 13 -11 0 -18 -4 -14 -10z"/>
<path d="M1955 521 c-83 -10 -11 -21 78 -12 4 1 7 6 7 11 0 10 -4 11 -85 1z"/>
<path d="M2060 520 c0 -5 5 -10 10 -10 6 0 10 5 10 10 0 6 -4 10 -10 10 -5 0
-10 -4 -10 -10z"/>
</g>
</svg>
