<?xml version="1.0" standalone="no"?>
<!DOCTYPE svg PUBLIC "-//W3C//DTD SVG 20010904//EN"
 "http://www.w3.org/TR/2001/REC-SVG-20010904/DTD/svg10.dtd">
<svg version="1.0" xmlns="http://www.w3.org/2000/svg"
 width="270.000000pt" height="118.000000pt" viewBox="0 0 270.000000 118.000000"
 preserveAspectRatio="xMidYMid meet">
<metadata>
Created by potrace 1.16, written by Peter Selinger 2001-2019
</metadata>
<g transform="translate(0.000000,118.000000) scale(0.100000,-0.100000)"
fill="#000000" stroke="none">
<path d="M2179 1125 c-13 -13 -405 -27 -829 -31 l-465 -4 -23 -25 c-12 -15
-22 -36 -22 -48 0 -12 -12 -65 -26 -117 -32 -118 -70 -287 -72 -319 0 -13 -6
-29 -11 -34 -7 -7 -119 -12 -298 -15 -310 -4 -313 -5 -313 -57 0 -12 -7 -37
-16 -54 -30 -60 -38 -275 -13 -307 16 -20 188 -34 439 -34 135 0 346 0 470 0
124 -1 358 2 520 4 162 3 325 6 362 7 37 0 71 -2 77 -5 6 -4 128 -7 271 -8
304 -1 300 -2 281 79 -7 29 -9 87 -6 148 3 55 7 143 10 195 11 238 16 328 20
370 2 25 7 72 10 105 3 33 8 80 11 105 l5 45 -189 3 c-103 1 -190 0 -193 -3z
m319 -50 c3 -3 0 -54 -6 -113 -21 -184 -43 -414 -47 -492 -3 -41 -7 -122 -10
-180 -6 -133 -10 -147 -37 -152 -38 -6 -1986 -1 -2088 6 -52 3 -112 9 -133 12
l-39 6 5 87 c3 47 8 102 12 121 5 19 8 50 8 68 l0 32 86 0 c104 0 461 13 508
19 28 3 42 34 48 108 4 43 13 103 22 133 21 80 41 150 53 190 9 30 12 54 19
123 1 5 19 6 41 2 75 -13 95 -13 345 -4 481 17 715 29 775 40 48 9 428 4 438
-6z"/>
<path d="M963 953 c-45 -18 24 -161 127 -263 92 -93 163 -140 255 -171 39 -13
75 -30 81 -38 7 -9 13 -10 18 -3 4 7 24 6 66 -4 137 -32 278 -35 454 -9 101
15 115 20 162 55 36 27 55 51 68 84 22 57 17 73 -31 92 -21 8 -47 19 -58 24
-11 5 -40 16 -65 24 -25 8 -65 24 -90 35 -25 11 -57 21 -72 21 -15 0 -29 4
-33 9 -3 5 -20 12 -38 16 -17 4 -73 21 -123 37 -90 30 -92 30 -125 13 -68 -35
-196 -88 -289 -120 l-94 -33 -28 19 c-30 22 -128 163 -128 184 0 12 -31 37
-42 34 -2 0 -9 -3 -15 -6z m627 -219 c-2 -43 -4 -104 -4 -134 -1 -49 -4 -55
-23 -58 -17 -3 -22 3 -25 25 -2 15 0 46 4 68 3 22 9 69 13 105 7 70 11 83 28
77 6 -2 9 -32 7 -83z m74 21 c-1 -28 -2 -84 -3 -125 -3 -100 -3 -100 14 -100
16 0 17 8 20 125 2 135 2 132 33 127 l28 -4 -3 -111 c-6 -159 -3 -153 -60
-149 -71 4 -95 11 -87 24 4 6 9 41 10 77 6 137 16 192 33 189 12 -3 16 -15 15
-53z m-150 -78 c-6 -98 -10 -117 -23 -117 -36 0 -39 12 -24 95 8 44 15 90 16
103 2 20 26 46 34 38 2 -2 0 -55 -3 -119z m328 27 c-12 -194 -12 -194 -43
-194 -26 0 -27 3 -24 33 3 17 7 71 9 119 6 104 10 114 39 95 17 -11 21 -23 19
-53z m-405 -30 c-2 -47 -8 -88 -11 -91 -3 -4 -24 -1 -47 6 -33 10 -38 15 -29
26 7 8 9 19 5 25 -3 5 -3 30 0 55 6 36 12 46 34 54 53 19 54 18 48 -75z m483
3 c3 -31 2 -57 -2 -57 -4 0 -7 -15 -6 -33 1 -38 -18 -80 -35 -74 -12 4 -16 98
-7 177 5 45 8 52 28 48 13 -2 18 -18 22 -61z m-604 -55 c-7 -7 -86 48 -86 60
0 4 12 13 28 18 15 6 34 14 42 19 12 7 16 0 18 -41 2 -28 1 -53 -2 -56z m679
76 c3 -7 -1 -49 -8 -93 -11 -68 -16 -80 -33 -81 -18 -1 -19 3 -12 75 3 42 7
84 7 94 1 20 39 24 46 5z m62 -84 c-3 -39 -10 -70 -18 -75 -20 -12 -22 -6 -14
70 5 54 11 71 22 71 13 0 15 -11 10 -66z m93 6 c0 -17 -50 -58 -60 -49 -5 4
-3 27 5 66 5 20 8 21 30 11 14 -6 25 -19 25 -28z"/>
</g>
</svg>
