<?xml version="1.0" standalone="no"?>
<!DOCTYPE svg PUBLIC "-//W3C//DTD SVG 20010904//EN"
 "http://www.w3.org/TR/2001/REC-SVG-20010904/DTD/svg10.dtd">
<svg version="1.0" xmlns="http://www.w3.org/2000/svg"
 width="97.000000pt" height="106.000000pt" viewBox="0 0 97.000000 106.000000"
 preserveAspectRatio="xMidYMid meet">
<metadata>
Created by potrace 1.16, written by Peter Selinger 2001-2019
</metadata>
<g transform="translate(0.000000,106.000000) scale(0.100000,-0.100000)"
fill="#000000" stroke="none">
<path d="M420 948 c-25 -41 -56 -58 -89 -47 -43 13 -131 17 -139 5 -17 -27
-30 -81 -22 -91 5 -6 12 -33 15 -60 3 -28 8 -61 10 -75 3 -14 5 -104 7 -200 1
-104 6 -181 12 -189 6 -7 9 -26 8 -41 -3 -28 22 -65 38 -55 10 6 2 124 -12
151 -14 29 -6 78 13 82 8 1 38 -13 65 -32 27 -19 73 -52 102 -72 28 -20 52
-40 52 -43 0 -7 -117 -63 -191 -92 -25 -10 -65 -20 -88 -22 -54 -5 -59 -12
-33 -45 13 -15 27 -40 33 -55 17 -42 53 -34 57 13 4 45 50 93 111 116 25 9 61
25 80 35 19 10 38 16 43 13 4 -3 8 -32 8 -65 0 -52 2 -59 20 -59 11 0 37 15
57 33 55 47 119 74 195 81 79 8 100 14 95 30 -2 7 -43 11 -119 12 -124 2 -172
15 -206 59 -13 16 -26 22 -43 18 -17 -3 -35 6 -62 27 -40 34 -40 31 -21 133 5
23 2 27 -18 27 -13 0 -29 -5 -36 -12 -18 -18 -14 4 6 27 23 27 116 67 177 77
20 3 22 0 24 -54 0 -16 4 -28 9 -28 11 0 117 100 115 109 -1 4 28 4 65 -1 98
-10 170 -10 177 3 10 16 0 21 -47 26 -24 2 -58 9 -75 14 -18 6 -36 8 -41 5
-14 -9 -107 40 -129 68 -25 31 -39 33 -61 7 -17 -19 -18 -19 -58 -1 l-42 18
-7 91 c-8 101 -21 115 -55 59z m10 -84 c0 -28 -8 -30 -36 -10 -19 15 -19 15 1
29 25 19 35 13 35 -19z m-220 -15 c0 -5 -4 -9 -10 -9 -5 0 -10 7 -10 16 0 8 5
12 10 9 6 -3 10 -10 10 -16z m80 6 c0 -2 -11 -30 -25 -61 -14 -31 -25 -63 -25
-70 0 -8 -4 -14 -8 -14 -9 0 -7 50 4 113 5 31 10 37 30 37 13 0 24 -2 24 -5z
m96 -59 c24 -19 67 -42 94 -52 28 -10 49 -23 46 -29 -2 -5 4 -18 12 -28 14
-16 14 -19 2 -27 -31 -20 -187 -72 -227 -77 -38 -5 -43 -3 -43 15 0 12 5 24
10 27 6 3 10 19 10 35 0 16 5 32 10 35 16 10 12 25 -5 19 -13 -5 -13 -1 -1 34
17 48 35 82 42 82 3 0 25 -15 50 -34z m270 -97 c29 -15 27 -25 -13 -56 l-30
-23 -1 67 c0 53 2 63 10 47 5 -12 21 -28 34 -35z m-398 -74 c-1 -25 -5 -45
-10 -45 -8 0 -10 11 -10 50 0 33 2 40 11 40 5 0 9 -20 9 -45z m50 -81 c-9 -9
-24 -14 -32 -11 -27 11 -17 27 16 27 30 0 31 -1 16 -16z m58 -79 c-1 -27 -12
-31 -36 -15 -13 9 -12 12 4 25 28 21 34 19 32 -10z m236 -225 c27 0 21 -13
-16 -37 -38 -25 -46 -18 -46 38 0 29 1 30 22 15 12 -9 30 -16 40 -16z m-342
-90 c0 -15 -26 -23 -41 -14 -9 5 -7 10 7 15 27 11 34 10 34 -1z"/>
</g>
</svg>
