<?xml version="1.0" standalone="no"?>
<!DOCTYPE svg PUBLIC "-//W3C//DTD SVG 20010904//EN"
 "http://www.w3.org/TR/2001/REC-SVG-20010904/DTD/svg10.dtd">
<svg version="1.0" xmlns="http://www.w3.org/2000/svg"
 width="258.000000pt" height="126.000000pt" viewBox="0 0 258.000000 126.000000"
 preserveAspectRatio="xMidYMid meet">
<metadata>
Created by potrace 1.16, written by Peter Selinger 2001-2019
</metadata>
<g transform="translate(0.000000,126.000000) scale(0.100000,-0.100000)"
fill="#000000" stroke="none">
<path d="M2101 1139 c-37 -27 -57 -36 -62 -28 -10 17 -39 3 -39 -20 0 -18 -32
-34 -109 -57 -18 -6 11 -40 51 -60 24 -12 31 -34 16 -49 -9 -10 -143 33 -169
54 -13 10 -44 30 -69 44 -25 14 -44 32 -44 41 3 25 -35 30 -59 8 -12 -10 -62
-47 -112 -82 -79 -55 -118 -87 -225 -184 -34 -31 -113 -82 -140 -91 -29 -9
-91 -65 -84 -76 3 -5 12 -9 21 -9 16 0 203 -157 203 -171 0 -5 -6 -9 -13 -9
-7 0 -69 -7 -137 -16 -98 -12 -174 -14 -350 -9 -124 3 -233 8 -242 11 -41 12
-13 83 68 173 59 65 58 75 -8 67 l-53 -6 30 25 c17 14 62 41 101 61 70 34 75
34 220 39 253 7 361 18 381 38 16 16 15 17 -32 17 -28 0 -110 -5 -183 -12
-218 -19 -444 19 -523 89 -20 17 -66 10 -88 -12 -13 -12 -16 -40 -16 -133 0
-64 -3 -119 -6 -122 -3 -3 -2 -49 3 -104 5 -54 6 -101 3 -104 -3 -3 -33 13
-66 36 -33 23 -67 42 -75 42 -8 0 -14 5 -14 10 0 6 -11 10 -24 10 -39 0 -56
-35 -57 -115 0 -38 -4 -93 -8 -122 -8 -55 1 -93 21 -93 7 0 42 26 77 57 55 49
113 82 144 83 4 0 7 -13 7 -30 0 -59 21 -130 42 -141 26 -14 43 8 24 31 -13
14 -27 133 -19 156 2 7 80 9 241 7 241 -4 297 1 490 38 l103 20 67 -36 c36
-21 73 -44 82 -54 8 -9 54 -43 103 -75 48 -33 87 -63 87 -68 0 -4 11 -8 24 -8
13 0 27 -7 30 -16 4 -10 15 -14 33 -12 24 3 29 8 34 43 7 52 55 145 74 145 8
0 15 7 15 15 0 8 -6 15 -12 15 -15 -1 -65 -27 -59 -32 5 -4 -52 -118 -60 -118
-3 0 -14 9 -25 21 -15 17 -16 23 -6 40 7 11 8 19 2 19 -24 0 -6 20 55 58 67
44 98 56 55 22 -14 -11 -20 -20 -15 -20 16 0 33 14 37 30 3 16 28 39 41 40 5
0 5 -4 2 -10 -10 -16 7 -11 54 15 24 14 46 23 49 20 8 -7 -19 -35 -50 -51 -15
-8 -28 -20 -28 -27 0 -20 89 -96 145 -124 28 -14 64 -36 82 -49 68 -51 73 -14
7 45 -26 23 -51 41 -55 41 -23 0 -40 62 -36 132 4 71 4 71 41 90 21 11 40 17
43 14 6 -6 -49 -76 -59 -76 -5 0 -8 -9 -8 -19 0 -14 26 -34 96 -73 53 -29 105
-65 116 -80 10 -16 26 -28 34 -28 28 0 13 42 -33 87 -42 43 -48 54 -59 120 -7
41 -11 80 -7 88 3 9 -1 15 -8 15 -14 0 90 69 104 70 19 0 117 71 112 81 -4 5
-15 7 -24 4 -12 -3 -26 5 -43 26 -24 28 -40 36 -76 38 -24 2 -83 109 -85 154
-1 53 35 130 68 145 21 10 35 32 20 32 -9 0 -205 -121 -210 -130 -3 -5 12 -29
35 -53 22 -24 40 -54 40 -65 0 -12 8 -23 20 -27 11 -3 20 -10 20 -16 0 -9 -49
9 -143 51 -27 12 -47 24 -44 26 2 3 16 -1 31 -7 40 -19 45 -1 8 32 -34 31 -37
44 -22 99 7 26 20 41 52 58 55 29 118 82 98 81 -8 0 -39 -18 -69 -40z m-120
-132 c-6 -6 -15 -4 -27 7 -18 18 -18 18 11 34 17 9 21 8 23 -10 2 -11 -1 -25
-7 -31z m188 4 c-11 -30 -13 -32 -28 -16 -15 15 -14 18 8 36 30 25 34 21 20
-20z m-504 9 c10 -11 22 -20 28 -20 5 0 27 -14 48 -31 42 -33 108 -59 199 -79
30 -7 96 -31 145 -54 50 -24 113 -51 141 -61 28 -10 59 -24 69 -31 17 -13 17
-15 -11 -55 -16 -23 -43 -48 -61 -55 -17 -8 -34 -18 -37 -23 -11 -18 -137 -81
-148 -75 -6 4 -9 3 -5 -2 3 -5 -26 -27 -65 -48 -45 -24 -73 -35 -77 -28 -4 7
-24 0 -54 -19 -26 -16 -50 -29 -53 -29 -3 0 -20 -11 -38 -25 -18 -14 -35 -25
-38 -25 -2 0 1 26 8 58 13 62 81 201 121 245 13 16 22 31 19 34 -3 3 -56 6
-118 7 -100 1 -113 -1 -116 -17 -2 -10 3 -17 12 -17 27 0 34 -62 27 -267 -2
-55 -7 -75 -22 -88 -17 -17 -20 -16 -51 10 -18 16 -32 32 -30 37 1 5 -1 7 -6
4 -5 -3 -19 6 -32 19 -25 26 -65 54 -151 105 -43 25 -55 37 -52 51 3 11 -1 21
-11 25 -20 8 -20 35 -1 139 8 44 14 85 15 91 0 11 145 137 195 170 29 19 29
19 21 -1 -4 -11 -8 -24 -9 -30 -2 -11 206 -20 231 -10 11 4 12 8 2 20 -9 11
-34 15 -96 15 l-84 0 21 40 c24 45 38 49 64 20z m-1016 -207 l34 -8 -29 -15
c-16 -8 -56 -32 -90 -52 -34 -21 -64 -38 -68 -38 -13 0 -5 31 9 36 19 8 19 34
0 48 -12 9 -14 21 -9 52 l6 40 56 -27 c32 -16 72 -32 91 -36z m617 -75 c-2
-13 -9 -51 -16 -84 l-12 -61 -42 38 c-22 21 -47 39 -53 39 -23 0 -14 18 12 24
14 4 44 20 67 36 24 16 44 30 46 30 1 0 1 -10 -2 -22z m489 -140 c-18 -34 -37
-63 -41 -65 -5 -2 -10 26 -12 62 l-3 65 45 0 44 0 -33 -62z m-1212 -33 c-64
-95 -70 -94 -72 12 l-1 52 38 6 c20 4 42 8 47 10 45 15 43 2 -12 -80z m1646
-107 l1 -27 -30 17 c-36 20 -36 24 -7 63 l22 31 6 -29 c4 -15 7 -40 8 -55z
m-1858 -13 c35 -25 63 -48 62 -52 -1 -3 -24 -15 -50 -28 -26 -12 -59 -34 -72
-49 -34 -36 -40 -33 -30 17 4 23 8 68 9 100 0 31 4 57 8 57 4 0 37 -20 73 -45z
m1690 -38 c-12 -32 -22 -34 -46 -7 -15 17 -16 20 -3 20 9 0 24 12 34 28 17 25
19 26 22 6 2 -11 -2 -32 -7 -47z"/>
<path d="M1925 490 c-16 -11 -25 -20 -19 -20 16 0 64 24 64 33 0 12 -13 8 -45
-13z"/>
<path d="M1765 360 c-10 -11 -14 -20 -8 -20 5 0 18 9 28 20 10 11 14 20 8 20
-5 0 -18 -9 -28 -20z"/>
</g>
</svg>
