<?xml version="1.0" standalone="no"?>
<!DOCTYPE svg PUBLIC "-//W3C//DTD SVG 20010904//EN"
 "http://www.w3.org/TR/2001/REC-SVG-20010904/DTD/svg10.dtd">
<svg version="1.0" xmlns="http://www.w3.org/2000/svg"
 width="220.000000pt" height="126.000000pt" viewBox="0 0 220.000000 126.000000"
 preserveAspectRatio="xMidYMid meet">
<metadata>
Created by potrace 1.16, written by Peter Selinger 2001-2019
</metadata>
<g transform="translate(0.000000,126.000000) scale(0.100000,-0.100000)"
fill="#000000" stroke="none">
<path d="M1336 1181 c-29 -32 -97 -43 -148 -25 -56 20 -93 12 -84 -19 4 -12 9
-64 13 -115 l6 -94 -74 5 c-41 3 -99 8 -129 12 -30 4 -170 7 -310 8 -205 2
-271 -1 -339 -15 -92 -18 -111 -31 -110 -68 3 -71 0 -316 -7 -466 -5 -133 -4
-173 6 -179 18 -11 31 14 29 60 -2 60 -1 65 24 65 12 0 44 7 71 15 27 8 77 17
110 19 34 2 84 9 111 15 78 16 141 23 265 27 199 8 244 8 292 0 l48 -7 -4 -82
c-2 -45 -7 -90 -11 -99 -3 -9 -2 -25 4 -37 6 -11 11 -36 11 -57 0 -31 3 -36
20 -31 11 3 20 0 20 -5 0 -23 69 5 162 67 53 36 100 65 104 65 3 0 19 9 35 21
l29 20 0 -110 c0 -148 20 -151 36 -6 4 33 8 67 10 75 1 8 3 29 3 46 1 40 53
76 251 177 80 40 163 83 185 95 46 24 122 58 148 66 28 9 8 28 -25 24 -20 -3
-35 2 -51 17 -12 12 -31 27 -43 33 -12 6 -39 26 -62 44 -22 18 -84 65 -137
103 -53 39 -117 87 -143 108 -26 20 -50 37 -55 37 -8 0 -159 120 -188 150 -9
9 -20 26 -23 38 -9 27 -27 28 -50 3z m72 -71 c37 -34 41 -42 31 -58 -11 -17
-15 -17 -38 -6 -14 7 -38 17 -53 23 -26 10 -40 41 -19 41 5 0 13 9 16 20 9 27
13 26 63 -20z m-158 -19 c0 -9 -5 -22 -12 -29 -8 -8 -8 -15 1 -26 7 -8 10 -23
7 -33 -9 -31 -18 -76 -26 -133 -42 -319 -54 -385 -65 -382 -5 1 -9 28 -8 60 1
31 2 122 4 202 1 80 6 151 12 157 5 7 6 21 2 30 -9 21 -11 30 -19 106 l-6 57
51 0 c35 0 48 3 43 12 -4 7 -3 8 4 4 7 -4 12 -15 12 -25z m127 -63 c57 -21
100 -43 149 -75 14 -9 39 -23 55 -32 16 -9 82 -48 147 -87 64 -39 131 -79 149
-90 57 -34 172 -118 168 -123 -3 -2 -15 -5 -29 -6 -13 -2 -71 -30 -128 -64
-57 -33 -113 -62 -124 -64 -21 -4 -29 -7 -128 -48 -80 -34 -99 -36 -92 -11 3
9 17 62 31 117 15 55 35 115 46 133 26 45 25 64 -3 57 -13 -3 -56 -7 -96 -9
-88 -5 -108 -17 -63 -40 20 -11 31 -25 32 -39 2 -33 2 -83 0 -179 l-1 -86 -52
-18 c-29 -9 -57 -20 -63 -24 -17 -13 -177 -61 -183 -55 -11 10 -12 46 -3 85 5
22 5 40 1 40 -5 0 -4 12 0 28 16 52 30 128 40 227 13 128 53 354 67 378 6 11
17 9 80 -15z m221 -71 c23 -15 42 -30 42 -33 0 -4 -10 0 -22 8 -13 8 -51 31
-85 52 -35 21 -63 41 -63 45 0 22 18 18 49 -12 20 -18 55 -45 79 -60z m-1128
-47 c21 -7 19 -8 -17 -9 -23 -1 -45 4 -48 9 -7 12 29 12 65 0z m580 -39 l65
-6 -1 -100 c0 -55 -4 -139 -8 -186 l-8 -87 -40 -6 c-23 -4 -152 -6 -287 -6
-230 1 -337 7 -471 29 -55 8 -70 7 -70 -8 0 -13 123 -51 173 -53 71 -2 63 -16
-20 -33 -18 -4 -33 -10 -33 -13 0 -4 -10 -8 -22 -8 -13 -1 -47 -4 -75 -8 -69
-9 -76 -4 -58 41 11 27 12 38 4 44 -7 4 -8 9 -1 13 5 3 24 52 42 108 35 114
63 177 98 225 26 35 33 37 237 58 39 4 72 9 74 11 5 5 316 -6 401 -15z m-805
-22 c22 -7 41 -14 43 -15 2 -1 -10 -28 -27 -59 -17 -32 -31 -63 -31 -69 0 -24
-21 -86 -30 -86 -4 0 -6 45 -4 100 3 56 1 106 -3 113 -12 20 -12 39 0 34 7 -2
30 -10 52 -18z m1340 -166 c-4 -10 -23 -67 -41 -128 l-33 -110 4 120 c1 66 3
121 4 122 1 1 13 4 29 6 15 2 31 5 36 6 4 0 5 -7 1 -16z m-1032 -250 c-7 -2
-21 -2 -30 0 -10 3 -4 5 12 5 17 0 24 -2 18 -5z m594 -50 c-3 -10 -5 -4 -5 12
0 17 2 24 5 18 2 -7 2 -21 0 -30z m423 -3 c-8 -5 -19 -10 -25 -10 -5 0 -3 5 5
10 8 5 20 10 25 10 6 0 3 -5 -5 -10z m-93 -47 c-19 -19 -99 -67 -204 -120 -67
-34 -74 -36 -89 -21 -27 27 -28 26 221 131 74 31 97 35 72 10z m-307 -177 c0
-8 -4 -17 -9 -20 -10 -7 -23 19 -14 28 11 11 23 6 23 -8z"/>
</g>
</svg>
