<?xml version="1.0" standalone="no"?>
<!DOCTYPE svg PUBLIC "-//W3C//DTD SVG 20010904//EN"
 "http://www.w3.org/TR/2001/REC-SVG-20010904/DTD/svg10.dtd">
<svg version="1.0" xmlns="http://www.w3.org/2000/svg"
 width="152.000000pt" height="131.000000pt" viewBox="0 0 152.000000 131.000000"
 preserveAspectRatio="xMidYMid meet">
<metadata>
Created by potrace 1.16, written by Peter Selinger 2001-2019
</metadata>
<g transform="translate(0.000000,131.000000) scale(0.100000,-0.100000)"
fill="#000000" stroke="none">
<path d="M219 1111 c-67 -66 -73 -91 -24 -101 17 -4 46 -14 65 -22 19 -9 42
-19 50 -21 8 -3 -1 -6 -21 -6 -24 -1 -39 -7 -43 -17 -11 -28 3 -33 79 -28 40
2 76 0 79 -4 7 -11 -32 -131 -49 -152 -7 -8 -32 -63 -56 -122 -24 -59 -46
-108 -49 -108 -3 0 -5 78 -5 172 0 169 -6 228 -24 228 -16 0 -19 -25 -11 -71
8 -41 3 -529 -6 -538 -2 -2 -10 2 -19 9 -24 20 -29 4 -11 -40 9 -22 16 -49 16
-59 0 -26 30 -82 41 -76 5 4 9 16 9 28 0 29 92 104 202 166 29 17 67 43 83 59
57 55 119 94 270 169 50 24 97 48 106 53 9 5 33 12 54 16 33 6 37 5 32 -12 -3
-11 -8 -48 -12 -84 -4 -36 -8 -78 -11 -95 -11 -85 -15 -405 -5 -405 6 0 42 30
81 67 62 59 78 69 138 85 37 9 88 18 113 18 29 0 51 6 59 15 19 23 -10 29 -88
20 -37 -4 -111 -7 -165 -6 -91 2 -98 1 -95 -16 2 -13 14 -19 46 -21 23 -2 42
-7 42 -11 0 -7 -95 -101 -102 -101 -5 0 1 184 8 280 l6 85 42 32 c22 18 55 44
73 59 26 21 43 26 90 26 32 0 68 4 81 9 l24 9 -7 -67 c-3 -38 -13 -108 -21
-157 -10 -60 -11 -93 -4 -100 19 -19 21 -11 39 129 24 185 35 241 48 260 7 11
13 39 13 62 0 23 6 62 14 85 8 24 22 76 32 117 11 49 24 82 40 98 31 31 30 43
-3 45 -42 2 -47 3 -63 13 -8 5 -47 8 -87 6 -40 -1 -77 0 -84 4 -6 4 -56 8
-110 10 -78 1 -99 -1 -99 -12 0 -7 9 -13 19 -13 11 0 42 -5 70 -12 l50 -11
-13 -31 c-39 -91 -70 -146 -82 -146 -8 0 -14 -6 -14 -12 -1 -7 -7 -26 -14 -43
-11 -27 -13 -17 -11 85 1 124 -3 163 -16 158 -4 -2 -10 -88 -12 -192 -4 -145
-8 -190 -18 -197 -16 -9 -38 -7 -57 5 -8 5 -18 4 -25 -3 -6 -6 -22 -11 -35
-11 -20 0 -22 3 -13 14 9 11 5 21 -22 47 -59 60 -91 86 -177 142 -47 30 -117
88 -156 128 -39 41 -88 88 -109 104 -21 17 -45 38 -54 48 -26 28 -48 20 -112
-42z m137 -12 c22 -16 71 -63 110 -103 39 -41 104 -95 145 -121 109 -71 219
-163 219 -186 0 -6 -15 0 -32 15 -49 39 -198 137 -225 147 -14 5 -39 20 -57
34 -26 20 -32 31 -28 50 5 27 2 28 -61 25 -21 -1 -43 3 -50 8 -7 6 -32 18 -57
28 -25 9 -57 26 -72 36 l-26 18 35 40 c20 22 42 40 48 40 7 0 30 -14 51 -31z
m894 -38 c0 -10 -69 -45 -76 -38 -9 8 8 36 24 40 30 8 52 7 52 -2z m95 -13
c-2 -7 -6 -59 -9 -116 -3 -57 -8 -107 -11 -113 -4 -5 -59 -8 -125 -6 -136 2
-130 -5 -82 94 30 63 45 78 120 120 59 32 115 43 107 21z m95 -2 c0 -11 -44
-102 -53 -107 -5 -4 -13 -33 -17 -65 -4 -33 -8 -54 -10 -49 -2 12 1 110 5 145
1 14 3 37 4 53 1 24 5 27 36 27 19 0 35 -2 35 -4z m-780 -274 c61 -40 130 -94
130 -103 0 -3 -15 -5 -32 -4 -18 1 -54 2 -79 3 -30 1 -59 11 -83 27 -47 32
-55 31 -63 -5 -3 -17 -10 -33 -14 -36 -16 -10 -11 -111 6 -118 17 -6 45 2 45
14 0 16 74 54 117 60 23 4 43 5 43 4 0 -14 -101 -92 -139 -108 -25 -11 -72
-35 -104 -53 -68 -38 -226 -113 -238 -113 -5 0 -9 19 -9 43 0 45 43 154 130
332 27 55 56 117 64 138 l15 38 78 -42 c43 -23 103 -58 133 -77z m510 13 c0
-5 -68 -41 -106 -56 -25 -9 -26 -8 -19 18 3 15 12 31 18 35 13 8 107 11 107 3z
m153 -25 c0 -14 -2 -49 -4 -78 -2 -47 -6 -55 -28 -64 -25 -9 -181 -9 -243 0
-27 4 -29 8 -26 40 3 32 7 38 38 47 64 21 109 45 120 65 10 18 19 21 78 18 64
-3 67 -4 65 -28z m-712 -119 l24 -9 -30 -11 c-16 -6 -37 -15 -46 -20 -15 -9
-15 -5 -7 30 8 28 14 37 22 30 7 -6 23 -14 37 -20z m221 -13 c-15 -18 -77 -53
-68 -39 11 17 -2 13 -37 -10 -31 -20 -31 -20 3 10 19 17 44 31 55 31 11 0 27
5 35 10 20 13 24 12 12 -2z m248 -78 c-25 -22 -54 -45 -64 -51 -17 -10 -18 -9
-13 12 4 13 7 36 7 52 0 26 1 27 58 27 l57 0 -45 -40z m-547 -113 c-21 -19
-60 -47 -88 -62 -27 -16 -83 -53 -123 -83 -40 -29 -79 -55 -86 -58 -15 -6 -30
46 -17 58 8 9 333 176 344 177 4 1 -10 -14 -30 -32z"/>
</g>
</svg>
