<?xml version="1.0" standalone="no"?>
<!DOCTYPE svg PUBLIC "-//W3C//DTD SVG 20010904//EN"
 "http://www.w3.org/TR/2001/REC-SVG-20010904/DTD/svg10.dtd">
<svg version="1.0" xmlns="http://www.w3.org/2000/svg"
 width="238.000000pt" height="157.000000pt" viewBox="0 0 238.000000 157.000000"
 preserveAspectRatio="xMidYMid meet">
<metadata>
Created by potrace 1.16, written by Peter Selinger 2001-2019
</metadata>
<g transform="translate(0.000000,157.000000) scale(0.100000,-0.100000)"
fill="#000000" stroke="none">
<path d="M1112 1409 c5 -16 99 -74 148 -90 37 -13 113 -59 107 -66 -2 -2 -46
13 -98 33 -52 20 -110 37 -130 38 -34 1 -36 2 -28 24 5 13 9 27 9 32 0 15 -34
20 -67 11 -19 -6 -48 -5 -74 0 -33 8 -47 6 -65 -6 -26 -17 -32 -45 -10 -45 20
0 42 -130 27 -158 -8 -15 -7 -23 2 -30 8 -7 13 -34 12 -73 l0 -62 -310 1
c-246 1 -322 4 -370 16 -77 21 -102 20 -114 -3 -6 -10 -8 -20 -6 -22 2 -3 12
-46 23 -96 18 -88 21 -232 9 -460 -3 -57 10 -69 34 -33 8 12 25 21 39 22 14 0
83 10 155 20 72 11 157 23 190 28 142 19 218 40 202 56 -8 8 -172 -10 -287
-32 -41 -8 -111 -18 -156 -24 -44 -5 -93 -12 -107 -16 -26 -6 -27 -4 -25 26 1
18 7 34 13 35 15 5 413 18 570 19 l140 1 3 -70 c9 -205 6 -234 -19 -261 l-24
-25 25 -19 c24 -19 37 -24 53 -21 5 1 14 -12 20 -29 13 -35 48 -43 44 -9 -1
15 14 32 58 64 33 24 65 44 72 44 6 1 13 5 15 9 6 14 157 109 318 200 25 14
95 55 155 91 61 37 142 82 180 100 39 19 104 53 146 77 41 24 95 51 119 59 47
17 100 60 100 82 0 17 -37 17 -43 1 -5 -16 -53 25 -70 61 -12 23 -64 60 -117
81 -14 6 -64 31 -113 55 -91 47 -262 120 -295 126 -19 3 -91 45 -127 73 -55
43 -107 72 -275 149 -25 12 -49 23 -54 25 -5 3 -6 -2 -4 -9z m-57 -133 c-8
-69 -11 -74 -45 -78 -20 -2 -25 2 -26 22 -1 14 -3 41 -4 60 -3 56 -2 57 41 57
l41 0 -7 -61z m197 -27 c36 -16 75 -29 85 -29 11 0 23 -4 28 -9 8 -7 209 -88
240 -96 42 -12 70 -24 140 -62 44 -24 128 -67 187 -96 77 -38 111 -60 124 -82
10 -16 16 -31 14 -31 -3 -1 3 -11 13 -22 17 -19 16 -20 -30 -44 -133 -67 -390
-202 -483 -253 -58 -31 -143 -74 -190 -97 -47 -22 -132 -62 -190 -90 -133 -63
-139 -65 -174 -78 -29 -10 -29 -10 -21 22 4 18 9 88 10 156 3 119 16 243 36
347 17 91 21 119 25 185 8 142 13 170 35 201 21 29 21 33 6 44 -9 7 -17 24
-17 38 0 45 51 44 162 -4z m-220 -105 c3 -3 2 -21 -2 -40 -5 -20 -4 -34 2 -34
5 0 6 -5 2 -11 -3 -6 -6 -41 -6 -77 0 -37 -8 -107 -19 -157 -10 -49 -19 -104
-19 -121 0 -18 -4 -36 -10 -39 -6 -4 -8 10 -5 37 5 49 15 291 15 386 0 53 3
62 18 62 10 0 21 -2 24 -6z m-745 -176 c7 -6 13 -17 13 -24 0 -18 -59 -124
-69 -124 -4 0 -8 15 -9 33 -1 17 -8 53 -16 79 -7 26 -12 49 -9 52 8 8 76 -4
90 -16z m392 7 c-2 -2 -29 -6 -59 -9 -30 -3 -73 -10 -95 -15 -85 -20 -157 -32
-167 -29 -21 7 29 51 66 57 37 6 261 3 255 -4z m239 -1 l23 -6 -3 -187 -3
-186 -65 0 c-134 -1 -596 -16 -623 -20 l-29 -5 7 88 c6 69 13 96 34 132 15 25
30 52 33 61 4 9 21 19 40 22 18 3 80 17 138 31 58 14 157 33 220 42 63 9 122
20 130 25 18 10 66 11 98 3z m338 -659 c-32 -19 -60 -35 -61 -35 -2 0 -36 -22
-76 -50 -60 -41 -75 -48 -88 -38 -9 7 -17 13 -19 14 -3 2 68 37 193 96 11 5
36 18 55 28 60 33 57 22 -4 -15z"/>
<path d="M1144 1115 c-13 -21 -15 -38 -9 -93 4 -37 7 -74 7 -82 -3 -160 -8
-230 -15 -230 -5 0 -7 -6 -4 -14 3 -7 0 -19 -6 -25 -6 -6 -12 -51 -13 -104 -1
-50 -5 -109 -9 -129 -6 -30 -4 -39 9 -44 9 -3 16 -16 16 -28 0 -32 8 -36 43
-21 45 19 105 83 117 124 29 97 24 197 -11 229 -19 19 -19 19 2 38 12 10 42
46 68 79 45 58 46 62 46 130 0 62 -4 75 -30 112 -22 31 -44 48 -83 63 -72 28
-107 26 -128 -5z m126 -61 c44 -40 70 -86 70 -126 0 -74 -144 -231 -162 -176
-2 6 -2 32 2 57 8 66 5 232 -4 260 -8 23 -7 24 27 18 20 -3 50 -18 67 -33z
m-62 -385 c34 -12 42 -31 42 -102 0 -54 -21 -111 -52 -144 -29 -31 -48 -29
-49 5 -2 91 1 218 6 233 7 22 12 23 53 8z"/>
<path d="M1469 993 c-6 -16 -10 -50 -9 -78 1 -62 2 -53 -6 -160 -6 -77 -4 -93
10 -104 9 -7 16 -28 16 -46 0 -17 3 -34 6 -38 10 -10 56 18 92 56 36 37 80
151 77 199 -1 15 -2 44 -3 64 -1 24 -11 44 -30 62 -82 79 -134 94 -153 45z
m126 -114 c9 -29 3 -121 -11 -162 -12 -33 -54 -87 -69 -87 -3 0 -3 16 1 35 4
21 2 41 -5 49 -7 8 -9 31 -5 57 3 24 6 77 5 117 l0 72 39 -31 c22 -18 42 -40
45 -50z"/>
</g>
</svg>
