<?xml version="1.0" standalone="no"?>
<!DOCTYPE svg PUBLIC "-//W3C//DTD SVG 20010904//EN"
 "http://www.w3.org/TR/2001/REC-SVG-20010904/DTD/svg10.dtd">
<svg version="1.0" xmlns="http://www.w3.org/2000/svg"
 width="280.000000pt" height="166.000000pt" viewBox="0 0 280.000000 166.000000"
 preserveAspectRatio="xMidYMid meet">
<metadata>
Created by potrace 1.16, written by Peter Selinger 2001-2019
</metadata>
<g transform="translate(0.000000,166.000000) scale(0.100000,-0.100000)"
fill="#000000" stroke="none">
<path d="M2398 1433 c-7 -8 -4 -16 10 -24 16 -10 18 -16 9 -31 -7 -10 -17 -18
-23 -18 -6 0 -42 -29 -80 -65 -38 -36 -97 -93 -132 -125 -34 -33 -67 -60 -74
-60 -6 0 -25 10 -42 23 -17 13 -52 35 -77 50 -44 25 -179 153 -179 169 0 5 -5
8 -11 8 -7 0 -17 7 -23 15 -9 13 -17 14 -45 4 -26 -9 -38 -9 -53 0 -15 9 -23
9 -34 0 -18 -15 -18 -36 1 -47 18 -10 38 -119 31 -166 -3 -17 -9 -118 -12
-223 -4 -106 -11 -193 -16 -193 -14 0 -121 78 -213 155 -44 37 -87 72 -96 79
-9 6 -19 25 -23 41 -14 56 -51 145 -61 145 -5 0 -36 -27 -68 -60 l-57 -60 -90
0 c-93 0 -120 -11 -74 -32 l26 -12 -6 -101 c-7 -101 -14 -160 -21 -182 -5 -15
-46 -17 -375 -15 -198 1 -273 -2 -295 -11 l-30 -13 64 -13 c34 -7 61 -14 58
-17 -7 -7 -136 19 -131 27 2 4 -23 7 -56 6 -45 0 -64 -5 -76 -19 -13 -13 -20
-15 -30 -7 -18 14 -24 -3 -20 -51 2 -19 4 -45 5 -58 0 -13 5 -20 11 -17 6 4
10 -5 9 -22 -1 -17 -3 -21 -6 -10 -2 9 -9 17 -14 17 -14 0 -11 -17 6 -34 12
-11 14 -31 9 -88 -6 -85 12 -171 37 -176 9 -2 65 37 125 86 60 49 134 102 164
117 75 38 159 91 195 125 17 15 67 48 112 73 72 40 93 47 163 53 l80 7 -2 -52
c-2 -51 11 -79 31 -67 6 4 11 23 11 42 0 68 10 74 113 74 l92 0 3 -53 c1 -28
7 -91 13 -138 6 -47 10 -104 8 -126 -5 -45 4 -57 55 -78 19 -8 37 -23 41 -34
9 -30 45 -15 45 19 0 16 23 67 52 117 28 48 58 102 66 118 9 17 22 36 29 43 7
7 13 17 13 22 0 10 32 59 67 104 17 21 33 29 70 33 80 9 725 12 765 3 26 -5
43 -4 54 5 16 11 15 14 -10 30 -19 13 -25 23 -20 34 4 9 11 113 15 231 7 240
25 338 67 377 13 12 22 30 20 39 -2 14 -16 17 -81 18 -50 1 -82 -3 -89 -11z
m102 -36 c0 -2 -7 -26 -16 -53 -17 -50 -43 -91 -29 -44 4 13 9 36 10 50 2 31
12 50 26 50 5 0 9 -1 9 -3z m-780 -91 c0 -14 -4 -28 -10 -31 -5 -3 -10 -3 -10
2 0 4 -3 18 -6 31 -5 16 -2 22 10 22 10 0 16 -9 16 -24z m130 -22 c0 -2 -9 0
-20 6 -11 6 -20 13 -20 16 0 2 9 0 20 -6 11 -6 20 -13 20 -16z m581 -6 c1 -80
-3 -220 -7 -241 -2 -12 -7 -68 -11 -124 -3 -57 -9 -103 -12 -103 -4 0 -34 27
-66 61 -33 34 -93 95 -134 136 l-73 74 23 25 c29 31 111 84 130 84 8 0 41 27
74 60 33 33 63 60 67 60 4 0 8 -15 9 -32z m-469 -171 l72 -69 -34 -26 c-19
-15 -44 -34 -56 -42 -12 -8 -66 -45 -119 -83 -54 -37 -100 -65 -103 -62 -5 5
-5 126 1 300 2 55 10 112 17 127 l13 27 69 -52 c38 -29 101 -83 140 -120z
m-712 14 c0 -10 3 -33 6 -50 l7 -32 -36 21 c-27 16 -37 18 -43 9 -5 -8 0 -17
11 -23 11 -6 31 -22 45 -36 14 -14 45 -41 70 -60 73 -56 145 -122 143 -131 -2
-5 3 -9 11 -9 8 0 16 -4 18 -8 2 -4 20 -18 41 -31 67 -41 63 -42 -135 -46 -65
-1 -175 -6 -246 -10 l-129 -7 -7 25 c-8 32 93 244 150 315 73 91 94 108 94 73z
m764 -7 c9 -8 16 -18 16 -20 0 -7 -38 15 -45 26 -10 16 12 12 29 -6z m103
-111 c25 -21 59 -50 75 -65 16 -16 33 -28 38 -28 4 0 43 -33 85 -74 l78 -74
-49 -6 c-27 -4 -157 -6 -289 -5 -132 2 -260 -1 -285 -5 l-45 -8 60 58 c54 52
275 242 283 243 2 1 24 -16 49 -36z m-1047 1 c0 -10 -52 -139 -60 -147 -8 -9
-4 95 5 123 6 19 55 41 55 24z m498 -346 c-17 -18 -45 -55 -63 -83 -45 -69
-174 -213 -210 -235 l-30 -19 1 117 c1 98 5 127 25 177 l24 60 80 6 c44 3 108
6 142 7 l61 2 -30 -32z m-285 -13 c-19 -41 -28 -44 -37 -12 -10 40 -7 47 24
47 l30 0 -17 -35z m-599 16 c18 -7 18 -8 -5 -25 -13 -10 -57 -42 -97 -71 -39
-30 -102 -71 -140 -91 -86 -48 -174 -107 -235 -157 -26 -22 -50 -37 -53 -34
-3 3 -1 36 5 74 6 37 13 95 17 127 9 94 16 104 71 111 26 4 91 18 143 32 78
21 153 33 265 41 6 0 19 -3 29 -7z m-569 -31 c3 -5 1 -10 -4 -10 -6 0 -11 5
-11 10 0 6 2 10 4 10 3 0 8 -4 11 -10z m105 0 c12 -8 11 -10 -7 -10 -12 0 -25
5 -28 10 -8 13 15 13 35 0z m-119 -52 c-3 -21 -6 -26 -9 -15 -3 17 3 47 11 47
2 0 1 -15 -2 -32z m1307 -190 c-13 -24 -26 -45 -29 -48 -3 -3 -8 -13 -12 -22
-7 -20 -15 -22 -37 -8 -12 8 -5 19 40 65 30 30 56 55 57 55 2 0 -7 -19 -19
-42z"/>
</g>
</svg>
