<?xml version="1.0" standalone="no"?>
<!DOCTYPE svg PUBLIC "-//W3C//DTD SVG 20010904//EN"
 "http://www.w3.org/TR/2001/REC-SVG-20010904/DTD/svg10.dtd">
<svg version="1.0" xmlns="http://www.w3.org/2000/svg"
 width="233.000000pt" height="145.000000pt" viewBox="0 0 233.000000 145.000000"
 preserveAspectRatio="xMidYMid meet">
<metadata>
Created by potrace 1.16, written by Peter Selinger 2001-2019
</metadata>
<g transform="translate(0.000000,145.000000) scale(0.100000,-0.100000)"
fill="#000000" stroke="none">
<path d="M977 1328 c-26 -29 -47 -56 -47 -61 0 -9 -60 1 -73 13 -7 6 -57 2
-57 -5 0 -2 7 -16 15 -31 17 -32 20 -126 6 -153 -6 -10 -11 -48 -12 -85 -1
-36 -7 -73 -13 -80 -9 -10 -31 -11 -101 -6 -49 5 -137 11 -195 15 -57 3 -109
10 -115 14 -5 5 -39 11 -75 15 -36 4 -80 12 -99 18 -28 9 -36 7 -53 -10 l-20
-20 21 -21 c17 -17 21 -34 22 -93 1 -40 3 -83 4 -96 1 -12 -2 -25 -6 -28 -5
-3 -4 -14 2 -25 7 -14 8 -59 4 -132 -4 -62 -7 -114 -7 -117 -3 -57 25 -67 29
-10 2 18 8 39 14 46 12 15 92 41 149 50 19 3 42 7 50 10 8 4 78 10 155 14 77
4 152 14 168 21 15 7 30 9 33 6 6 -6 8 -79 12 -409 1 -38 5 -68 10 -68 4 0 32
11 60 25 29 14 55 25 58 25 8 0 129 48 194 77 30 14 75 33 100 43 119 47 224
92 277 118 32 16 123 58 203 93 80 35 171 79 204 97 32 19 85 45 117 57 32 13
71 32 87 44 15 11 40 23 55 26 32 9 54 32 41 45 -10 10 -68 -14 -100 -41 -12
-9 -13 -9 -9 2 5 14 -89 61 -150 75 -16 4 -55 24 -85 44 -67 45 -155 98 -233
139 -67 35 -106 61 -92 61 12 0 212 -101 270 -136 71 -43 174 -94 190 -94 23
0 11 15 -27 34 -18 9 -40 21 -48 26 -111 69 -505 275 -604 316 -32 13 -82 41
-110 62 -28 21 -75 53 -104 71 -31 20 -51 39 -50 49 6 32 -20 20 -65 -30z m92
-45 c28 -14 50 -27 49 -28 -2 -2 -31 4 -66 12 -50 13 -60 18 -51 29 14 17 8
19 68 -13z m-143 -55 c3 -4 -7 -43 -22 -86 -14 -42 -28 -97 -30 -122 -5 -52
-23 -114 -32 -106 -9 10 -2 127 12 186 13 56 13 65 1 113 -7 27 -6 28 30 25
20 -1 39 -6 41 -10z m236 -34 c51 -20 121 -53 154 -72 l62 -35 -47 -24 c-25
-14 -57 -35 -71 -47 -44 -40 -186 -116 -224 -121 -22 -2 -106 -55 -88 -55 6 0
1 -18 -11 -40 -12 -22 -25 -40 -29 -40 -3 0 -11 13 -16 29 -9 25 -7 30 11 39
20 10 20 11 -9 11 l-32 1 19 60 c10 32 21 83 24 112 7 55 50 193 69 217 15 20
79 8 188 -35z m295 -157 c27 -19 104 -65 173 -102 69 -38 145 -83 170 -101 55
-39 95 -59 154 -79 87 -30 142 -75 92 -75 -7 0 -64 -26 -127 -59 -63 -32 -170
-84 -239 -115 -69 -32 -143 -66 -165 -76 -87 -40 -197 -80 -206 -75 -25 16 8
114 62 184 20 25 167 136 212 160 26 14 36 31 18 31 -4 0 -50 40 -102 89 l-94
89 0 81 c0 44 1 81 2 81 2 0 24 -15 50 -33z m-91 -65 c-7 -6 -46 18 -46 28 0
5 8 13 18 19 14 8 18 5 24 -17 4 -14 6 -28 4 -30z m-53 -28 c20 -19 37 -39 37
-44 0 -14 70 -79 130 -120 86 -59 87 -61 33 -101 -26 -19 -70 -50 -99 -69 -29
-19 -86 -59 -128 -88 l-76 -52 -74 50 c-40 28 -83 60 -94 70 -11 10 -21 17
-23 15 -2 -2 -5 20 -7 48 -2 29 -5 61 -7 72 -2 11 -4 26 -4 33 -1 6 -10 12
-21 12 -18 0 -19 2 -8 23 7 12 16 24 19 27 3 3 10 13 15 23 8 14 244 136 264
137 3 0 22 -16 43 -36z m-1023 -42 c0 -5 -16 -31 -35 -58 l-35 -49 0 58 0 57
35 0 c19 0 35 -4 35 -8z m110 0 c0 -4 -18 -13 -40 -19 -39 -10 -40 -10 -24 8
17 19 64 27 64 11z m387 -28 c6 -15 6 -39 4 -188 l-1 -79 -62 8 c-35 5 -162 9
-283 10 l-220 1 4 54 c2 43 27 116 46 138 12 13 157 52 198 53 29 1 81 6 117
13 85 15 189 9 197 -10z m94 -176 c-5 -13 -17 -30 -26 -38 -15 -13 -16 -9 -14
41 3 69 6 75 30 45 14 -18 17 -30 10 -48z m91 -25 c3 -21 4 -39 3 -41 -5 -6
-65 21 -65 31 0 14 32 46 46 46 7 1 14 -16 16 -36z m-17 -86 c11 -6 64 -37
118 -70 94 -57 97 -60 81 -78 -16 -17 -16 -19 2 -24 55 -17 89 -41 92 -66 3
-24 -2 -28 -65 -48 -37 -11 -90 -28 -118 -35 -200 -57 -226 -61 -232 -31 -3
11 -4 87 -4 170 0 143 1 150 23 167 21 15 21 17 5 24 -13 5 -15 10 -6 20 11
13 40 5 104 -29z m-287 -2 c3 -3 -42 -5 -100 -5 -102 0 -277 -28 -320 -51 -26
-14 -37 -3 -29 29 6 24 13 28 57 32 60 7 385 2 392 -5z m625 -117 c-15 -24
-28 -45 -30 -47 -1 -2 -10 2 -19 9 -14 12 -11 17 23 46 51 45 59 42 26 -8z
m-293 -246 c0 -5 -19 -15 -42 -22 -24 -7 -60 -21 -80 -31 -25 -13 -39 -15 -44
-8 -10 16 5 25 71 39 33 7 67 16 75 21 19 11 20 11 20 1z"/>
</g>
</svg>
