<?xml version="1.0" standalone="no"?>
<!DOCTYPE svg PUBLIC "-//W3C//DTD SVG 20010904//EN"
 "http://www.w3.org/TR/2001/REC-SVG-20010904/DTD/svg10.dtd">
<svg version="1.0" xmlns="http://www.w3.org/2000/svg"
 width="272.000000pt" height="150.000000pt" viewBox="0 0 272.000000 150.000000"
 preserveAspectRatio="xMidYMid meet">
<metadata>
Created by potrace 1.16, written by Peter Selinger 2001-2019
</metadata>
<g transform="translate(0.000000,150.000000) scale(0.100000,-0.100000)"
fill="#000000" stroke="none">
<path d="M1820 1291 c-92 -11 -111 -30 -90 -85 11 -31 3 -61 -14 -47 -15 13
-77 21 -241 32 -197 13 -240 20 -292 47 -26 13 -35 14 -45 4 -16 -16 -1 -43
30 -57 12 -5 22 -12 22 -15 0 -6 -55 -41 -83 -52 -15 -6 -16 -5 -7 12 6 11 9
20 7 20 -2 0 -1 20 3 45 7 48 -2 64 -24 46 -15 -13 -41 -165 -31 -181 9 -15
32 -12 62 7 l26 17 -8 -59 c-4 -32 -11 -69 -16 -83 -5 -13 -9 -42 -9 -64 l0
-41 -82 7 c-46 4 -92 8 -103 10 -11 2 -44 7 -72 11 -36 5 -68 18 -100 41 -26
19 -55 34 -64 34 -23 0 -36 -42 -43 -135 -4 -44 -7 -89 -9 -100 -3 -32 35 -30
95 4 29 17 84 42 122 56 63 24 80 26 205 24 119 -2 138 -4 149 -21 17 -24 39
-23 52 2 8 15 21 20 51 20 33 0 41 -4 49 -26 12 -31 40 -29 55 3 14 33 64 41
85 14 30 -41 47 -18 55 71 7 76 10 83 44 117 20 20 48 60 64 89 24 47 50 72
62 60 5 -4 -35 -481 -41 -487 -13 -14 -496 -29 -767 -24 -309 6 -290 3 -270
51 10 25 -17 11 -31 -16 -8 -16 -21 -34 -30 -41 -8 -7 -14 -25 -14 -39 1 -25
-106 -239 -149 -300 -12 -18 -13 -22 -2 -22 14 0 91 133 140 242 14 32 28 60
30 62 3 3 128 8 279 11 351 7 512 14 575 25 28 5 94 11 148 15 108 6 118 -2
42 -36 -63 -28 -73 -44 -52 -81 9 -16 17 -41 17 -54 0 -30 14 -36 60 -26 33 8
35 10 36 52 2 91 66 170 137 170 20 0 46 9 63 22 15 13 25 17 21 10 -5 -6 -51
-42 -103 -78 -53 -37 -98 -73 -101 -81 -3 -7 2 -22 11 -32 9 -10 16 -22 16
-27 0 -5 12 -22 27 -39 l26 -29 18 23 c11 13 19 32 19 42 0 37 47 12 63 -33 7
-20 32 -24 42 -8 5 8 11 7 20 0 8 -7 18 -9 24 -6 5 4 23 -10 39 -30 42 -50 68
-44 64 16 -4 67 38 166 98 228 37 38 71 58 55 32 -4 -6 1 -22 10 -36 13 -20
19 -23 31 -13 10 8 14 35 14 97 0 65 4 90 17 104 15 17 15 19 -2 38 -15 17
-17 26 -8 58 6 20 9 59 7 85 -2 43 0 49 22 57 18 7 24 16 23 37 -2 38 37 142
63 170 19 20 20 25 7 36 -11 11 -42 12 -144 6 -74 -5 -143 -4 -160 1 -16 5
-61 12 -100 15 -38 3 -86 7 -105 9 -19 2 -60 1 -90 -3z m20 -56 c0 -10 -50
-105 -55 -105 -3 0 -5 25 -5 55 0 54 0 55 30 55 17 0 30 -2 30 -5z m194 -10
c55 -8 118 -15 142 -15 38 0 74 -18 74 -37 0 -13 -256 6 -302 22 -47 16 -55
24 -41 38 9 9 14 9 127 -8z m316 -8 c0 -2 -11 -25 -24 -53 -22 -43 -25 -45
-25 -22 -1 15 -5 38 -11 52 -9 25 -8 26 25 26 19 0 35 -1 35 -3z m-515 -170
c-8 -14 -20 -61 -25 -106 -5 -45 -12 -86 -15 -91 -3 -5 1 -24 8 -43 10 -23 12
-39 5 -51 -6 -10 -7 -32 -4 -51 5 -27 2 -35 -18 -49 -27 -17 -40 -21 -33 -8 3
4 8 74 12 155 3 81 11 162 16 180 6 18 12 46 14 62 3 17 15 50 27 75 l23 44 3
-47 c2 -30 -3 -55 -13 -70z m105 83 c0 -10 -49 -54 -55 -49 -2 3 -2 21 1 41 6
34 8 36 30 26 13 -6 24 -14 24 -18z m-701 -7 c-8 -10 -26 -31 -40 -47 l-26
-28 -5 26 c-3 14 0 30 6 35 9 7 58 27 75 30 2 1 -3 -7 -10 -16z m91 -40 c-29
-32 -57 -59 -61 -61 -19 -7 -8 61 14 88 17 23 30 29 61 29 l38 1 -52 -57z
m200 47 c0 -5 -27 -38 -60 -72 l-61 -63 3 50 c1 28 0 56 -3 64 -2 9 6 17 21
22 37 11 100 10 100 -1z m138 1 l24 -6 -26 -24 c-15 -14 -40 -47 -57 -73 -18
-27 -34 -46 -37 -43 -7 7 -11 126 -5 142 5 14 61 16 101 4z m590 -43 c3 -25 0
-28 -25 -29 -114 -3 -293 9 -293 21 0 23 63 35 186 35 l129 0 3 -27z m-878 -8
c-6 -12 -15 -68 -20 -125 -4 -57 -11 -108 -15 -114 -3 -6 -22 -11 -41 -11 -21
0 -33 4 -29 10 3 6 0 10 -7 10 -11 0 -13 12 -8 53 7 63 27 103 79 157 41 44
58 52 41 20z m130 -177 c-11 -63 -21 -74 -65 -71 -29 3 -30 5 -33 56 -3 59 6
79 67 145 l36 39 3 -56 c2 -31 -2 -82 -8 -113z m-280 112 c0 -19 -5 -67 -11
-108 -11 -71 -12 -74 -37 -73 -26 1 -27 2 -25 62 1 57 18 108 47 140 18 22 26
16 26 -21z m718 7 c9 -6 -3 -18 -38 -40 -28 -18 -53 -32 -56 -32 -2 0 -4 13
-4 28 0 20 7 32 23 40 27 13 58 15 75 4z m302 -42 l0 -30 -157 0 -158 1 55 29
c50 25 65 28 158 29 l102 1 0 -30z m-306 -79 c16 -6 12 -11 -27 -34 -54 -32
-77 -34 -77 -8 0 38 57 61 104 42z m294 -34 c2 -24 -1 -39 -10 -41 -7 -3 -80
-7 -162 -10 l-149 -5 36 25 c20 13 44 24 55 24 10 0 27 9 37 20 14 15 33 20
94 22 101 5 96 7 99 -35z m-1437 -45 l44 -8 -69 -32 c-38 -18 -70 -32 -72 -32
-7 0 -4 107 3 113 3 4 16 -2 28 -13 12 -11 42 -24 66 -28z m1102 -32 c-5 -17
0 -20 26 -20 39 0 39 -13 2 -39 -36 -26 -57 -27 -71 -2 -14 27 -13 29 16 56
32 30 34 30 27 5z m327 -61 c0 -38 -5 -46 -67 -104 -38 -35 -99 -93 -138 -130
-38 -37 -71 -63 -73 -57 -2 6 10 39 26 74 25 54 43 74 121 138 57 47 87 78 81
84 -6 6 -34 -12 -75 -49 -60 -53 -258 -205 -262 -201 -1 0 4 22 9 48 10 42 19
53 77 97 70 52 131 111 115 111 -5 1 2 7 16 15 15 9 54 14 98 15 l72 0 0 -41z
m-230 -2 c0 -2 -10 -12 -22 -23 l-23 -19 19 23 c18 21 26 27 26 19z m-185
-214 c-13 -77 -15 -79 -36 -52 -10 13 -19 28 -19 34 0 8 48 53 58 55 2 0 0
-17 -3 -37z m-153 -5 c-7 -7 -12 -8 -12 -2 0 14 12 26 19 19 2 -3 -1 -11 -7
-17z m273 -8 c-16 -31 -35 -40 -35 -16 0 11 34 43 48 45 1 1 -4 -12 -13 -29z
m115 -51 c-7 -11 -14 -18 -17 -15 -3 3 0 12 7 21 18 21 23 19 10 -6z"/>
<path d="M349 843 c-55 -58 -79 -94 -72 -106 3 -6 1 -7 -5 -3 -12 7 -67 -80
-78 -123 -7 -23 7 -41 33 -41 22 0 45 32 39 56 -4 15 2 40 15 66 28 56 99 158
109 158 4 0 10 7 14 15 10 28 -19 15 -55 -22z"/>
<path d="M426 794 c-80 -94 -162 -217 -215 -321 -20 -40 -20 -43 -3 -43 12 0
27 19 45 56 42 85 135 222 190 281 27 29 46 57 42 62 -10 17 -18 13 -59 -35z"/>
<path d="M438 698 c-85 -129 -178 -290 -178 -308 0 -32 30 6 85 107 33 60 87
150 120 199 81 119 78 114 62 114 -8 0 -48 -51 -89 -112z"/>
<path d="M525 718 c-25 -29 -70 -98 -99 -153 -29 -55 -71 -133 -94 -173 -44
-77 -50 -96 -30 -90 13 5 100 158 90 158 -4 0 -2 4 4 8 6 4 35 51 64 105 29
54 70 120 91 148 52 65 33 63 -26 -3z"/>
<path d="M564 672 c-36 -55 -94 -168 -94 -183 0 -5 -8 -18 -17 -29 -17 -18
-113 -192 -113 -204 0 -3 6 -6 14 -6 14 0 27 23 25 44 0 5 3 12 8 15 4 3 19
26 32 51 111 213 171 322 183 337 5 6 5 14 0 17 -4 2 -22 -16 -38 -42z"/>
</g>
</svg>
