<?xml version="1.0" standalone="no"?>
<!DOCTYPE svg PUBLIC "-//W3C//DTD SVG 20010904//EN"
 "http://www.w3.org/TR/2001/REC-SVG-20010904/DTD/svg10.dtd">
<svg version="1.0" xmlns="http://www.w3.org/2000/svg"
 width="128.000000pt" height="120.000000pt" viewBox="0 0 128.000000 120.000000"
 preserveAspectRatio="xMidYMid meet">
<metadata>
Created by potrace 1.16, written by Peter Selinger 2001-2019
</metadata>
<g transform="translate(0.000000,120.000000) scale(0.100000,-0.100000)"
fill="#000000" stroke="none">
<path d="M243 997 c-10 -14 -8 -139 4 -307 5 -63 6 -171 3 -240 -4 -102 -2
-134 12 -174 10 -27 23 -53 30 -57 14 -9 38 2 58 25 7 9 17 16 23 16 6 0 76
38 157 85 81 47 151 85 156 85 5 0 27 8 49 19 63 30 135 61 141 61 3 0 5 -17
4 -37 -4 -90 3 -99 67 -82 79 21 122 49 168 106 54 69 67 109 58 183 -7 63
-21 98 -60 155 -47 68 -184 122 -190 75 -8 -63 -16 -90 -26 -90 -7 0 -95 42
-197 93 l-185 94 -132 0 c-89 1 -135 -3 -140 -10z m106 -56 c24 -5 57 -5 72
-1 16 5 29 7 29 4 0 -2 -29 -68 -64 -147 -35 -78 -67 -158 -71 -177 -8 -34 -8
-34 -17 -10 -5 13 -7 40 -3 60 3 19 -1 63 -8 97 -18 82 -12 184 10 183 4 -1
28 -5 52 -9z m223 -22 c66 -32 58 -32 -30 -2 -29 10 -50 22 -46 26 10 9 5 11
76 -24z m38 -55 c36 -9 72 -23 80 -30 25 -21 102 -53 160 -65 l53 -11 -7 -82
c-3 -44 -6 -90 -6 -101 0 -25 -4 -26 -255 -109 -291 -96 -336 -108 -334 -88 0
7 26 118 53 232 7 30 20 71 29 90 8 19 23 55 33 80 10 25 28 61 41 82 25 40 8
40 153 2z m115 -14 c3 -6 -1 -7 -9 -4 -18 7 -21 14 -7 14 6 0 13 -4 16 -10z
m304 -24 c39 -34 72 -121 72 -188 1 -51 -4 -64 -33 -104 -18 -26 -53 -57 -78
-70 l-45 -24 -5 22 c-3 11 -2 46 2 77 19 147 25 237 17 259 -12 31 5 63 29 55
9 -3 28 -15 41 -27z m-234 -6 c3 -6 -1 -7 -9 -4 -18 7 -21 14 -7 14 6 0 13 -4
16 -10z m-399 -500 c-49 -28 -90 -50 -91 -50 -2 0 -5 7 -9 15 -8 23 4 45 26
45 11 0 29 5 41 12 18 10 69 22 112 27 6 0 -30 -22 -79 -49z"/>
</g>
</svg>
