<?xml version="1.0" standalone="no"?>
<!DOCTYPE svg PUBLIC "-//W3C//DTD SVG 20010904//EN"
 "http://www.w3.org/TR/2001/REC-SVG-20010904/DTD/svg10.dtd">
<svg version="1.0" xmlns="http://www.w3.org/2000/svg"
 width="260.000000pt" height="118.000000pt" viewBox="0 0 260.000000 118.000000"
 preserveAspectRatio="xMidYMid meet">
<metadata>
Created by potrace 1.16, written by Peter Selinger 2001-2019
</metadata>
<g transform="translate(0.000000,118.000000) scale(0.100000,-0.100000)"
fill="#000000" stroke="none">
<path d="M1546 1115 c-20 -31 -77 -60 -136 -70 -105 -17 -305 -71 -351 -96
-12 -6 -21 -3 -31 13 -8 12 -19 18 -26 14 -13 -8 -17 -46 -4 -46 4 0 15 -14
24 -30 21 -37 51 -41 42 -6 -5 20 -1 25 28 34 70 23 201 53 206 48 2 -3 -4 -8
-14 -12 -10 -3 -66 -29 -123 -56 -96 -47 -108 -50 -159 -45 -30 3 -59 12 -63
19 -6 10 -59 13 -217 14 -183 2 -393 17 -414 31 -5 2 -26 6 -47 9 -34 4 -43 1
-55 -18 -8 -13 -16 -41 -16 -63 -3 -57 11 -158 22 -172 11 -14 2 -133 -11
-146 -5 -5 -4 -21 2 -36 7 -18 7 -66 0 -146 -5 -66 -8 -122 -6 -124 7 -9 22
15 28 44 3 17 8 71 12 122 l6 92 87 3 c114 4 170 -6 83 -14 -65 -6 -134 -34
-141 -55 -5 -17 33 -17 47 1 6 7 37 16 69 20 66 8 90 11 192 26 41 6 104 13
140 15 36 3 84 7 108 10 46 7 53 -2 22 -30 -24 -22 -26 -41 -3 -53 15 -9 15
-16 4 -67 -7 -31 -10 -59 -7 -62 12 -13 33 20 45 69 18 80 21 84 73 69 24 -7
57 -19 73 -26 17 -7 46 -16 66 -19 19 -4 75 -30 125 -59 l89 -53 -3 -67 c-2
-43 1 -67 7 -67 6 0 12 11 12 25 1 14 3 30 4 35 1 6 3 19 4 30 1 24 28 26 52
4 17 -15 21 -15 41 -2 34 22 248 116 283 124 17 3 53 16 80 29 28 12 75 34
105 48 123 56 299 127 314 127 9 0 44 14 77 30 33 17 65 30 72 29 16 -3 67 22
67 33 0 15 -45 8 -105 -18 -198 -86 -289 -110 -520 -140 -36 -5 -38 -4 -22 9
9 8 17 19 17 24 0 20 49 99 80 128 36 34 38 54 8 56 -13 1 -31 2 -40 3 -24 1
-24 8 1 74 33 89 31 88 88 68 26 -10 79 -28 116 -41 38 -13 100 -42 139 -65
38 -22 72 -40 75 -40 4 0 21 -12 40 -26 19 -14 41 -23 48 -20 20 7 19 26 0 26
-9 0 -27 11 -41 25 -25 25 -153 95 -174 95 -6 0 -30 13 -53 29 -24 16 -87 50
-142 77 -117 56 -297 165 -340 205 -17 16 -34 29 -37 29 -3 0 -13 -11 -22 -25z
m77 -55 c14 -11 30 -20 35 -20 6 0 17 -6 24 -13 12 -12 85 -56 138 -84 24 -12
24 -13 3 -13 -12 0 -24 4 -27 8 -2 4 -21 9 -40 10 -36 3 -130 43 -176 75 -29
20 -40 22 -40 5 1 -16 33 -40 80 -58 19 -8 53 -24 75 -36 35 -18 40 -25 38
-52 -2 -17 -14 -48 -28 -68 -20 -30 -26 -33 -31 -20 -4 10 -4 42 -1 72 3 30 2
54 -3 54 -12 0 -23 -54 -26 -125 -6 -161 -33 -353 -50 -359 -17 -7 -183 -46
-194 -46 -11 0 26 141 55 207 14 30 25 63 25 73 0 9 14 36 30 59 39 54 32 66
-34 56 -28 -4 -72 -7 -98 -6 -25 1 -50 -3 -53 -9 -7 -12 -7 -97 -1 -275 3 -61
1 -117 -4 -125 -4 -7 -4 -24 1 -37 10 -26 -2 -31 -22 -7 -7 9 -39 29 -71 45
-32 16 -80 51 -106 77 -27 26 -69 64 -95 85 -27 22 -44 43 -41 51 9 23 -14 28
-41 10 -14 -9 -25 -12 -25 -6 0 6 5 14 10 17 6 3 23 33 40 66 36 73 90 140
127 160 15 8 35 21 43 30 8 8 42 26 75 39 33 12 85 38 115 56 67 40 102 49
128 35 29 -15 43 -7 75 44 32 50 51 55 90 25z m-1272 -196 c86 -10 88 -14 19
-46 -105 -47 -107 -47 -115 6 -4 25 -5 53 -1 61 5 14 8 14 30 0 13 -9 43 -18
67 -21z m1498 11 c4 -5 -50 -135 -56 -135 -1 0 -3 34 -3 76 l0 76 27 -7 c16
-4 30 -8 32 -10z m96 5 l20 -9 -20 0 c-11 0 -27 4 -35 9 -13 9 -13 10 0 9 8 0
24 -4 35 -9z m59 -25 c11 -8 15 -15 10 -15 -6 0 -19 7 -30 15 -10 8 -14 14 -9
14 6 0 19 -6 29 -14z m-1118 -162 c-4 -92 -9 -169 -12 -172 -6 -6 -154 -7
-431 -3 -146 2 -153 3 -153 22 0 24 44 113 94 190 20 30 36 60 36 66 0 6 20
17 45 24 25 7 45 16 45 20 0 5 64 9 142 9 78 1 144 4 147 6 2 3 25 5 49 5 l45
0 -7 -167z m874 95 c-5 -56 -7 -62 -30 -68 -14 -4 -36 -3 -50 1 -24 7 -24 7
-2 8 12 1 25 9 28 19 8 26 48 102 54 102 3 0 3 -28 0 -62z m-732 37 c2 -2 -19
-33 -45 -69 l-48 -67 -9 50 c-5 27 -6 61 -2 76 6 25 9 26 54 19 26 -3 48 -8
50 -9z m-658 -60 c0 -3 -27 -52 -61 -110 -33 -57 -58 -109 -55 -114 4 -5 2
-13 -4 -16 -7 -4 -8 18 -4 72 8 95 16 117 48 139 14 9 24 19 22 23 -3 4 9 8
25 9 16 1 29 0 29 -3z m1101 -37 c-20 -49 -90 -275 -96 -310 -4 -21 -11 -38
-15 -38 -12 0 -17 64 -16 215 l1 139 55 4 c30 1 56 5 59 7 12 13 19 2 12 -17z
m251 -65 c-34 -49 -64 -115 -58 -130 7 -17 32 -11 28 6 -3 15 48 111 60 111
12 0 -2 -163 -16 -176 -6 -7 -33 -15 -59 -19 l-48 -6 6 58 c4 32 10 74 15 93
4 19 11 47 14 63 6 23 11 27 42 27 l35 0 -19 -27z m123 -13 c-10 -11 -29 -37
-42 -58 l-24 -37 5 48 c7 62 11 67 48 67 31 0 31 0 13 -20z m-845 -142 c26
-24 58 -50 71 -59 39 -27 19 -27 -68 0 -80 24 -105 41 -63 41 11 0 20 7 20 15
0 8 -7 15 -15 15 -9 0 -12 6 -9 15 9 21 11 20 64 -27z m930 -42 c-19 -8 -59
-25 -89 -40 -30 -14 -58 -26 -63 -26 -13 0 -9 50 5 51 6 0 39 6 72 14 33 7 71
13 85 13 21 1 20 -1 -10 -12z m-190 -52 c0 -25 -19 -38 -87 -58 -20 -7 -23 -4
-23 23 0 38 15 46 103 60 4 0 7 -10 7 -25z m-132 -36 c-3 -28 -11 -37 -53 -60
-27 -15 -69 -34 -93 -42 l-42 -15 -20 40 c-12 22 -18 44 -15 49 3 5 22 12 43
16 20 3 62 14 92 24 82 28 92 26 88 -12z m-248 -79 c0 -5 -4 -9 -10 -9 -5 0
-10 7 -10 16 0 8 5 12 10 9 6 -3 10 -10 10 -16z"/>
</g>
</svg>
