<?xml version="1.0" standalone="no"?>
<!DOCTYPE svg PUBLIC "-//W3C//DTD SVG 20010904//EN"
 "http://www.w3.org/TR/2001/REC-SVG-20010904/DTD/svg10.dtd">
<svg version="1.0" xmlns="http://www.w3.org/2000/svg"
 width="192.000000pt" height="96.000000pt" viewBox="0 0 192.000000 96.000000"
 preserveAspectRatio="xMidYMid meet">
<metadata>
Created by potrace 1.16, written by Peter Selinger 2001-2019
</metadata>
<g transform="translate(0.000000,96.000000) scale(0.100000,-0.100000)"
fill="#000000" stroke="none">
<path d="M223 772 c-22 -14 -32 -97 -32 -279 1 -215 0 -215 84 -184 30 11 55
19 55 16 0 -2 32 7 70 20 l70 24 0 -65 c0 -62 1 -65 23 -62 20 3 22 10 27 78
l5 75 45 13 c25 8 54 17 65 22 112 49 171 69 221 74 32 3 76 9 97 12 27 4 37
2 37 -8 0 -7 -41 -53 -90 -103 -50 -49 -89 -97 -88 -105 2 -8 14 -16 28 -18
19 -2 32 7 54 37 15 21 57 67 91 101 l64 63 27 -19 c121 -84 155 -104 160 -90
8 22 -5 39 -64 86 -29 23 -51 47 -49 53 4 14 97 16 312 7 83 -3 156 -4 163 -2
6 2 12 12 12 22 0 11 -6 22 -12 27 -7 4 -118 6 -245 4 -132 -2 -233 1 -233 6
0 5 34 44 76 87 41 43 73 80 70 83 -13 13 -59 -17 -132 -89 l-81 -78 -54 57
c-30 32 -64 70 -74 84 -27 34 -61 52 -85 44 -28 -9 -25 -24 13 -60 70 -69 126
-132 122 -137 -11 -11 -453 98 -579 141 -33 12 -67 21 -76 21 -9 0 -27 11 -40
25 -25 26 -37 30 -57 17z m187 -123 c36 -11 117 -31 181 -45 65 -13 123 -26
130 -28 8 -3 33 -10 57 -16 41 -10 58 -30 26 -30 -9 0 -44 -13 -79 -29 -50
-23 -185 -71 -200 -71 -1 0 -6 25 -10 55 -3 30 -10 57 -15 60 -16 10 -30 -32
-30 -88 l0 -54 -42 -16 c-41 -15 -147 -34 -158 -27 -8 5 1 263 11 287 11 29
42 30 129 2z"/>
</g>
</svg>
