<?xml version="1.0" standalone="no"?>
<!DOCTYPE svg PUBLIC "-//W3C//DTD SVG 20010904//EN"
 "http://www.w3.org/TR/2001/REC-SVG-20010904/DTD/svg10.dtd">
<svg version="1.0" xmlns="http://www.w3.org/2000/svg"
 width="328.000000pt" height="136.000000pt" viewBox="0 0 328.000000 136.000000"
 preserveAspectRatio="xMidYMid meet">
<metadata>
Created by potrace 1.16, written by Peter Selinger 2001-2019
</metadata>
<g transform="translate(0.000000,136.000000) scale(0.100000,-0.100000)"
fill="#000000" stroke="none">
<path d="M1520 1214 l0 -46 -47 8 c-27 4 -66 8 -87 8 l-39 1 1 -180 c1 -136
-3 -203 -16 -275 l-18 -95 -165 0 c-90 1 -231 7 -314 14 -226 18 -235 20 -228
36 4 12 0 13 -27 4 -24 -9 -44 -8 -88 4 -31 9 -97 21 -147 27 -49 6 -100 15
-113 21 -42 17 -81 -20 -47 -45 10 -8 15 -30 15 -76 0 -36 0 -79 0 -96 0 -35
-25 -212 -40 -281 -10 -42 -7 -64 5 -51 10 9 53 192 66 277 12 79 15 86 58
130 l46 46 3 -53 c4 -62 24 -79 54 -43 10 13 37 38 61 57 41 33 45 34 133 34
50 0 116 -5 145 -11 30 -6 172 -14 316 -17 l263 -7 -57 -45 c-80 -63 -124 -89
-139 -83 -7 2 -18 2 -24 -2 -7 -4 8 -21 35 -43 38 -29 45 -40 40 -59 -6 -27
12 -31 29 -7 11 14 16 14 49 0 20 -8 37 -22 37 -30 0 -9 6 -16 14 -16 16 0 38
24 30 33 -4 3 -4 17 0 31 l6 25 45 -26 c38 -21 43 -27 35 -43 -17 -32 -12 -39
20 -27 25 9 30 17 30 44 0 24 5 33 22 39 12 4 24 2 25 -3 11 -32 43 -78 56
-81 11 -2 15 7 14 45 -1 70 33 121 129 192 43 33 80 58 81 57 2 -2 0 -23 -3
-48 -7 -48 0 -42 -155 -145 -27 -18 -49 -35 -49 -39 0 -3 14 -4 32 -2 28 3 35
-2 54 -36 l22 -39 21 34 c19 30 39 88 45 128 3 17 27 36 88 67 47 24 48 24 87
7 25 -11 41 -25 43 -38 2 -16 9 -19 33 -17 39 4 42 8 22 30 -13 14 -15 31 -10
91 7 83 12 90 98 136 53 29 57 29 70 12 9 -12 15 -14 20 -7 8 13 -20 59 -41
67 -19 7 -19 73 0 73 13 0 48 -25 100 -72 25 -23 54 -25 36 -3 -17 20 0 19 28
-3 l23 -18 -107 -64 c-60 -36 -124 -70 -143 -76 -45 -14 -50 -31 -14 -47 44
-19 111 -65 121 -82 6 -12 16 -14 35 -10 33 9 33 12 5 34 -17 15 -21 29 -22
78 l-1 61 70 46 c38 26 71 42 73 36 2 -5 13 -10 24 -10 20 0 20 4 14 88 -6 74
-4 91 8 102 14 10 16 10 16 -6 1 -11 3 -53 6 -95 4 -58 2 -77 -8 -81 -10 -4
-13 -38 -11 -154 1 -82 2 -152 3 -156 0 -13 27 -9 39 6 10 11 17 12 34 3 47
-25 97 -70 97 -88 0 -22 4 -23 29 -9 15 7 18 20 15 62 -2 54 -17 74 -29 39 -7
-24 -13 -25 -38 -7 -11 9 -15 20 -10 31 7 19 -2 19 -52 0 -18 -7 -18 -6 4 18
13 14 36 29 52 32 16 4 29 11 29 16 0 5 12 9 27 9 21 0 24 -3 15 -12 -17 -17
-15 -28 7 -28 11 0 23 -4 26 -10 3 -5 10 -10 15 -10 5 0 69 50 141 110 74 62
139 110 148 108 22 -5 16 -81 -10 -126 -15 -26 -16 -32 -4 -32 26 0 48 61 53
145 l5 79 73 75 c52 54 70 79 63 87 -6 7 -38 12 -80 12 -79 0 -92 -11 -89 -76
3 -65 0 -92 -10 -92 -10 0 -120 132 -120 145 0 4 -7 13 -15 19 -11 8 -17 37
-21 105 -3 52 -7 98 -10 103 -3 4 -48 -26 -99 -67 -52 -41 -99 -75 -105 -75
-5 0 -10 -4 -10 -9 0 -19 21 -22 44 -7 22 14 25 13 47 -11 l24 -26 -55 7 c-59
8 -125 45 -135 77 -4 11 -11 19 -16 19 -5 0 -9 9 -9 20 0 11 -7 20 -15 20 -14
0 -30 -44 -38 -103 -4 -36 -132 -124 -153 -106 -11 9 -14 7 -14 -9 0 -31 -15
-34 -39 -8 l-22 24 31 22 c17 12 41 32 53 44 12 12 38 33 57 48 30 24 32 28
16 34 -10 4 -21 2 -25 -4 -14 -23 -157 -132 -173 -132 -30 0 -20 27 22 61 22
18 40 38 40 46 0 20 -14 16 -40 -12 -13 -14 -29 -25 -36 -25 -8 0 -34 -20 -58
-45 -53 -52 -71 -58 -62 -17 10 41 38 74 84 100 41 23 55 42 30 42 -12 -1 -41
-21 -192 -135 -36 -27 -66 -57 -66 -66 0 -17 40 -49 60 -49 6 0 24 -12 39 -27
16 -16 39 -35 52 -44 22 -15 21 -16 -77 -85 -58 -42 -98 -77 -97 -85 2 -8 -11
-23 -28 -33 l-31 -18 7 33 c12 61 16 69 35 69 10 0 22 5 25 10 4 6 -5 10 -20
10 -26 0 -26 0 -20 63 16 160 67 273 161 356 47 41 55 61 27 61 -10 1 -85 7
-168 14 -162 15 -217 32 -283 86 -20 17 -40 30 -44 30 -5 0 -8 -21 -8 -46z
m143 -78 l31 -12 -65 -24 c-35 -14 -67 -26 -70 -28 -3 -1 -4 11 -1 28 2 16 8
30 13 30 5 0 9 7 9 16 0 18 24 15 83 -10z m-170 -13 c4 -2 -14 -29 -40 -59
-45 -52 -48 -54 -54 -32 -4 13 -7 43 -8 67 l-1 43 48 -7 c26 -4 50 -9 55 -12z
m351 -19 c13 -34 6 -62 -16 -68 -52 -13 -218 5 -218 25 0 4 28 18 63 32 74 30
162 35 171 11z m112 -2 c19 -7 18 -10 -22 -59 -23 -28 -45 -49 -48 -46 -3 4
-1 12 5 19 7 8 7 19 1 29 -5 9 -7 28 -4 41 4 25 24 29 68 16z m823 -74 c1 -21
-1 -38 -4 -38 -12 0 -75 46 -75 55 0 6 14 22 32 37 l33 27 7 -22 c3 -12 6 -39
7 -59z m-1274 5 c-2 -21 -7 -80 -11 -131 -4 -51 -11 -95 -15 -98 -5 -3 -9 -18
-9 -34 0 -39 -18 -83 -30 -75 -6 4 -27 -8 -48 -26 -47 -41 -51 -29 -24 78 11
43 23 103 27 133 7 59 30 106 79 158 16 17 31 32 32 32 1 0 1 -17 -1 -37z
m105 -22 c0 -12 -70 -64 -77 -58 -3 3 -2 19 2 36 6 27 11 31 41 31 19 0 34 -4
34 -9z m240 -8 c0 -5 -3 -18 -6 -31 -6 -21 -10 -22 -93 -17 -47 2 -99 5 -116
5 l-30 1 28 24 c26 23 36 25 123 25 52 0 94 -3 94 -7z m675 -27 l29 -23 -33
-18 c-41 -20 -56 -9 -46 34 8 37 12 38 50 7z m-701 -68 c-2 -53 -2 -53 -57
-56 -28 -1 -85 0 -124 4 -59 5 -70 8 -60 19 7 7 23 16 35 19 12 4 22 12 22 17
0 18 -37 8 -78 -22 -38 -28 -42 -29 -42 -11 0 34 29 47 114 52 121 7 191 -1
190 -22z m179 -15 c-5 -40 -6 -41 -34 -31 -16 5 -29 13 -29 16 0 7 63 62 67
59 1 -2 -1 -21 -4 -44z m768 30 c5 -5 -3 -26 -20 -51 l-28 -43 -11 28 c-5 15
-13 36 -16 46 -3 10 -10 15 -16 12 -6 -4 -8 -11 -5 -16 14 -22 13 -48 -3 -53
-9 -3 -53 -2 -97 3 -44 5 -83 7 -88 4 -15 -9 15 -33 41 -33 24 0 23 -1 -13
-30 -21 -17 -40 -28 -43 -26 -7 8 -6 69 2 94 7 21 63 53 126 73 32 10 159 4
171 -8z m339 0 c0 -5 -23 -30 -50 -57 -49 -49 -52 -49 -52 -1 0 66 -1 65 52
65 28 0 50 -3 50 -7z m-977 -50 c8 -40 -1 -42 -34 -7 -24 25 -24 26 -5 40 24
17 31 10 39 -33z m248 5 c1 -18 3 -43 4 -55 1 -13 -2 -23 -7 -23 -9 0 -68 60
-68 70 0 6 51 38 63 39 4 1 8 -14 8 -31z m503 -47 c59 -59 67 -72 57 -85 -17
-21 -166 -117 -215 -139 l-39 -18 7 48 c3 26 13 53 22 60 12 9 13 15 4 30 -9
14 -7 28 10 65 20 47 65 108 79 108 3 0 38 -31 75 -69z m-786 -16 c23 -16 42
-33 42 -36 0 -3 -12 -11 -26 -18 -23 -10 -30 -9 -50 10 -24 22 -46 73 -37 83
7 6 14 2 71 -39z m-288 -5 c0 -48 -7 -51 -99 -44 -47 4 -94 10 -105 14 -16 6
-15 8 10 26 19 12 53 21 99 24 83 6 95 4 95 -20z m-251 -14 c-45 -35 -55 -33
-45 9 6 22 12 25 48 25 l41 0 -44 -34z m1127 -17 c-3 -17 -6 -38 -6 -46 0 -11
-16 -13 -85 -8 -70 4 -85 3 -85 -9 0 -8 6 -17 13 -19 8 -4 4 -12 -13 -26 -25
-21 -50 -27 -50 -13 0 4 -3 17 -6 28 -5 18 4 28 42 55 73 50 115 68 158 69 38
0 38 -1 32 -31z m-888 -62 c2 -10 1 -30 -3 -44 -7 -28 0 -28 -203 -5 l-64 7
24 23 c27 25 109 41 193 38 40 -1 51 -5 53 -19z m867 -69 c-4 -24 -10 -46 -14
-51 -4 -4 -45 -4 -91 0 l-83 8 64 42 c42 28 75 42 97 43 l34 0 -7 -42z m-2375
22 c13 -8 10 -15 -17 -42 l-33 -33 0 43 c0 44 16 54 50 32z m167 -14 c5 -5
-68 -75 -79 -76 -5 0 -8 17 -8 38 0 21 3 42 8 46 7 8 70 1 79 -8z m961 -51
c-12 -41 -24 -54 -103 -115 -49 -38 -91 -67 -93 -65 -5 5 20 75 36 102 7 12
28 28 45 37 18 8 52 33 76 56 24 22 45 39 48 36 2 -2 -2 -25 -9 -51z m777 23
c-4 -18 -9 -34 -10 -36 -5 -5 -45 22 -45 30 0 6 47 36 58 38 2 0 0 -15 -3 -32z
m-698 -9 c-41 -22 -53 -20 -44 6 4 10 19 15 44 15 l38 -1 -38 -20z m230 6 c23
0 40 -1 39 -2 -3 -4 -76 -54 -172 -119 -49 -33 -97 -63 -107 -67 -16 -6 -16
-4 -2 23 8 16 50 52 95 82 75 50 94 68 69 68 -11 0 -58 -31 -184 -121 -44 -31
-90 -60 -102 -64 -37 -11 -28 23 17 64 73 67 108 91 172 121 50 24 70 28 98
23 19 -4 54 -7 77 -8z m249 -51 c-7 -19 -19 -18 -46 4 l-23 18 34 22 34 21 3
-25 c2 -14 1 -32 -2 -40z m500 7 c5 -5 21 -11 36 -13 26 -3 26 -3 -18 -42
l-45 -38 2 51 c3 51 7 59 25 42z m-1280 -126 c-6 -22 -9 -24 -28 -14 l-21 11
24 19 c28 21 33 18 25 -16z m366 -25 c-10 -17 -20 -26 -26 -20 -6 6 0 17 15
29 13 11 25 20 26 21 1 0 -6 -13 -15 -30z m-258 -14 c-6 -27 -19 -32 -42 -17
-10 6 -7 13 15 29 33 24 36 23 27 -12z m411 -12 c-8 -20 -15 -38 -15 -40 0
-11 -21 -2 -26 10 -7 18 24 66 42 66 12 0 12 -6 -1 -36z m-285 16 c0 -5 -5
-10 -11 -10 -5 0 -7 5 -4 10 3 6 8 10 11 10 2 0 4 -4 4 -10z"/>
<path d="M673 1145 c-17 -13 -16 -14 9 -24 31 -12 53 -75 44 -125 -19 -102
-37 -243 -34 -272 4 -45 22 -44 26 1 4 41 57 92 145 137 47 25 62 28 159 28
99 0 135 9 107 25 -6 4 -32 9 -57 11 -84 5 -217 22 -234 29 -10 4 -18 14 -18
21 0 22 76 100 115 119 19 9 35 23 35 31 0 12 -15 13 -92 8 -68 -4 -106 -2
-140 9 -39 12 -50 13 -65 2z m195 -63 c-31 -44 -78 -92 -91 -92 -10 0 -14 16
-16 55 l-2 55 61 0 c58 0 60 -1 48 -18z m-38 -182 c8 -5 12 -11 10 -13 -16
-13 -100 -67 -104 -67 -8 0 5 63 17 78 11 14 56 16 77 2z"/>
</g>
</svg>
