<?xml version="1.0" standalone="no"?>
<!DOCTYPE svg PUBLIC "-//W3C//DTD SVG 20010904//EN"
 "http://www.w3.org/TR/2001/REC-SVG-20010904/DTD/svg10.dtd">
<svg version="1.0" xmlns="http://www.w3.org/2000/svg"
 width="230.000000pt" height="236.000000pt" viewBox="0 0 230.000000 236.000000"
 preserveAspectRatio="xMidYMid meet">
<metadata>
Created by potrace 1.16, written by Peter Selinger 2001-2019
</metadata>
<g transform="translate(0.000000,236.000000) scale(0.100000,-0.100000)"
fill="#000000" stroke="none">
<path d="M693 2174 c-3 -8 -3 -78 0 -155 2 -76 2 -139 -2 -139 -9 1 -151 78
-263 143 -53 32 -102 57 -109 57 -7 0 -20 6 -28 14 -9 7 -29 16 -44 20 -25 6
-28 4 -22 -13 4 -14 -5 -34 -30 -66 -35 -47 -43 -69 -26 -79 13 -9 42 4 35 15
-8 13 38 2 105 -24 l55 -22 -65 -7 c-96 -10 -104 -13 -100 -34 12 -67 11 -224
-2 -302 -30 -174 -31 -194 -5 -213 19 -15 26 -16 48 -4 50 26 188 74 375 130
105 32 213 66 240 76 28 10 91 28 142 40 130 32 128 35 119 -151 -16 -323 -30
-488 -56 -670 -22 -158 -24 -165 -38 -228 -6 -23 -10 -45 -11 -47 -1 -3 -1
-19 -1 -36 0 -31 0 -31 -42 -25 -24 3 -70 8 -103 11 -33 4 -76 10 -95 16 -53
14 -96 11 -111 -7 -10 -12 -13 -45 -11 -123 2 -70 -3 -124 -12 -160 -22 -78
-9 -91 42 -43 24 22 57 33 193 64 94 21 235 44 329 53 91 9 202 23 247 31 45
8 89 11 97 8 9 -3 35 1 58 11 33 13 71 16 177 15 164 -3 156 -3 142 14 -10 12
-5 14 35 14 25 0 51 6 58 12 8 10 -35 11 -193 5 l-203 -6 6 48 c4 26 14 66 21
88 12 38 37 186 33 203 -1 4 1 27 5 52 3 25 8 77 11 115 3 39 8 84 11 100 7
37 23 122 36 195 6 30 13 71 15 90 3 19 10 52 15 72 5 20 9 40 8 45 -1 4 0 15
4 23 13 35 52 193 72 300 31 160 60 240 104 287 25 26 14 37 -39 39 -59 2
-141 14 -199 30 -30 8 -80 14 -111 14 -30 0 -82 5 -115 10 -33 6 -91 13 -130
16 -81 6 -178 19 -285 39 -41 8 -109 16 -150 19 -41 3 -100 12 -130 21 -70 19
-99 19 -107 -1z m222 -53 c50 -5 135 -16 190 -24 55 -9 138 -19 185 -22 47 -4
116 -13 153 -21 38 -8 103 -14 145 -15 42 0 86 -4 97 -8 l20 -8 -20 -6 c-11
-4 -58 -9 -104 -12 -46 -3 -87 -8 -91 -10 -5 -3 -68 -14 -142 -25 -291 -45
-340 -53 -492 -84 -65 -13 -82 -14 -92 -4 -14 14 -28 216 -18 243 5 13 15 16
43 11 20 -3 77 -10 126 -15z m-589 -81 c15 -15 241 -139 291 -159 15 -6 46
-23 68 -37 52 -33 16 -23 -80 21 -38 18 -95 40 -125 49 -30 9 -62 20 -70 25
-8 4 -54 20 -101 36 -71 24 -84 31 -73 42 7 7 19 13 28 13 8 0 18 5 21 10 8
13 28 13 41 0z m1526 -69 c12 -12 16 -81 6 -124 -5 -23 -11 -50 -13 -59 -2 -9
-8 -26 -14 -36 -6 -11 -18 -67 -26 -124 -9 -56 -24 -132 -34 -168 -25 -83 -48
-191 -56 -255 -6 -44 -14 -88 -31 -160 -16 -65 -36 -217 -45 -330 -5 -71 -20
-173 -33 -225 l-24 -95 -1 165 c0 91 3 212 9 270 10 109 16 193 25 308 7 86
14 167 20 212 2 19 6 62 9 95 18 209 51 498 62 533 3 11 19 12 71 7 38 -4 71
-10 75 -14z m-185 -29 c-2 -20 -16 -125 -30 -232 -29 -217 -54 -446 -61 -560
-11 -163 -27 -356 -31 -371 -3 -8 -6 -100 -6 -203 l-1 -189 -52 6 c-28 4 -80
11 -116 16 -36 6 -99 12 -140 15 -41 3 -101 9 -132 12 l-57 6 13 27 c7 14 16
50 20 80 4 30 22 126 41 213 19 88 37 178 40 201 16 103 45 249 54 265 5 10
17 60 26 111 22 125 60 244 91 280 14 17 23 34 20 39 -3 5 -39 5 -81 0 -48 -5
-83 -4 -95 2 -10 5 -27 10 -37 10 -10 0 -29 7 -43 15 -26 15 -48 25 -200 96
-50 23 -90 45 -90 49 0 14 366 86 540 105 30 4 69 11 85 16 17 5 71 12 120 17
50 4 98 8 108 9 16 2 18 -4 14 -35z m-1182 -61 c44 -16 125 -48 180 -71 55
-23 120 -48 145 -55 25 -7 82 -29 127 -49 45 -20 86 -36 92 -36 6 0 11 -4 11
-10 0 -5 -10 -10 -23 -10 -13 0 -55 -9 -93 -20 -38 -11 -94 -28 -124 -37 -30
-8 -88 -26 -127 -40 -107 -35 -443 -96 -443 -80 0 16 24 67 31 67 5 0 9 11 9
24 0 13 14 56 30 96 17 40 30 79 30 88 0 21 51 132 61 132 5 0 9 7 9 15 0 19
-9 20 85 -14z m-163 -6 c12 -5 9 -23 -18 -100 -50 -146 -61 -152 -66 -35 -2
46 1 80 7 80 5 0 4 5 -3 12 -20 20 -14 36 16 41 47 7 50 7 64 2z m472 -80 c25
-19 9 -19 -24 0 -14 8 -19 14 -10 14 8 0 24 -6 34 -14z m475 -217 c-35 -88
-59 -171 -59 -209 0 -20 -3 -39 -7 -43 -4 -4 -9 -19 -10 -34 -2 -15 -10 -47
-19 -72 -8 -25 -21 -72 -29 -105 l-14 -60 5 90 c7 126 13 296 13 387 0 84 -6
76 66 91 11 3 32 5 47 6 l28 1 -21 -52z m-869 -131 c-85 -30 -156 -53 -158
-52 -1 1 2 13 7 27 7 20 21 26 77 38 38 8 71 14 74 13 3 -1 30 5 60 12 112 27
91 14 -60 -38z m-178 -29 c-7 -7 -12 -8 -12 -2 0 14 12 26 19 19 2 -3 -1 -11
-7 -17z m643 -989 c44 -5 103 -12 130 -14 28 -3 68 -7 90 -10 42 -4 120 -12
220 -20 33 -3 87 -10 120 -16 33 -6 68 -11 77 -11 20 1 33 -14 20 -22 -17 -10
-187 -33 -422 -56 -63 -6 -151 -20 -195 -30 -44 -10 -111 -25 -149 -33 l-68
-15 6 46 c3 24 6 81 6 125 l0 80 43 -7 c23 -4 78 -12 122 -17z"/>
</g>
</svg>
