<?xml version="1.0" standalone="no"?>
<!DOCTYPE svg PUBLIC "-//W3C//DTD SVG 20010904//EN"
 "http://www.w3.org/TR/2001/REC-SVG-20010904/DTD/svg10.dtd">
<svg version="1.0" xmlns="http://www.w3.org/2000/svg"
 width="118.000000pt" height="128.000000pt" viewBox="0 0 118.000000 128.000000"
 preserveAspectRatio="xMidYMid meet">
<metadata>
Created by potrace 1.16, written by Peter Selinger 2001-2019
</metadata>
<g transform="translate(0.000000,128.000000) scale(0.100000,-0.100000)"
fill="#000000" stroke="none">
<path d="M487 1050 l6 -82 -29 5 c-16 4 -56 9 -89 13 -72 7 -131 32 -164 68
-14 14 -34 26 -46 26 -19 0 -24 -8 -32 -52 -5 -29 -8 -99 -5 -155 3 -90 6
-103 21 -103 10 0 26 9 36 20 10 11 50 40 90 64 74 47 152 71 193 61 l24 -6
-5 -130 c-4 -71 -8 -133 -11 -137 -3 -4 -7 -32 -11 -62 -9 -85 -36 -242 -46
-269 -16 -40 -21 -103 -14 -173 6 -57 10 -68 26 -68 10 0 22 6 26 13 4 7 42
36 83 64 l75 51 151 1 c144 0 204 9 204 30 0 12 -81 25 -115 19 -21 -4 -24 -2
-20 16 2 12 7 53 10 91 4 39 11 75 16 81 13 16 40 128 38 160 -3 60 14 147 33
166 10 10 18 26 18 36 1 29 58 110 95 134 51 34 45 48 -22 50 -78 2 -96 -1
-104 -14 -8 -12 -322 -18 -334 -6 -8 8 10 42 48 90 40 50 32 68 -30 68 -26 0
-64 3 -85 6 l-36 6 5 -82z m113 25 c0 -9 -69 -115 -75 -115 -3 0 -5 27 -5 60
l0 60 40 0 c22 0 40 -2 40 -5z m-365 -101 c11 -7 42 -18 69 -25 l49 -12 -77
-39 c-43 -22 -80 -38 -82 -36 -1 2 -6 34 -10 71 -7 73 -4 76 51 41z m727 -88
l-37 -53 -3 40 c-5 56 2 67 42 67 l35 0 -37 -54z m-77 25 c3 -11 3 -32 0 -48
-3 -15 -10 -68 -15 -118 -15 -150 -31 -248 -45 -281 -16 -38 -38 -172 -30
-184 3 -4 2 -15 -1 -24 -5 -13 -14 -15 -43 -10 -20 4 -41 11 -48 16 -7 5 -25
7 -41 3 -25 -5 -30 -3 -36 18 -3 13 -1 39 5 58 6 19 17 107 23 196 12 148 15
164 38 191 13 16 30 43 37 61 8 17 17 31 22 31 5 0 18 19 30 43 30 60 38 67
70 67 18 0 30 -6 34 -19z m-260 0 c15 -1 15 -72 -1 -196 -8 -60 -13 -123 -13
-140 3 -51 -11 -187 -24 -245 l-14 -55 -48 2 c-26 1 -52 6 -57 11 -8 8 2 106
22 202 13 61 19 111 31 270 5 74 13 138 17 141 9 9 43 16 62 13 8 -1 20 -3 25
-3z m148 -9 c-3 -9 -25 -43 -48 -74 l-43 -57 -7 66 c-4 41 -3 68 3 72 6 3 31
7 56 8 39 2 44 0 39 -15z m-228 -692 c5 -8 -85 -75 -90 -67 -1 1 -5 19 -8 40
l-6 37 49 0 c27 0 52 -4 55 -10z"/>
</g>
</svg>
