<?xml version="1.0" standalone="no"?>
<!DOCTYPE svg PUBLIC "-//W3C//DTD SVG 20010904//EN"
 "http://www.w3.org/TR/2001/REC-SVG-20010904/DTD/svg10.dtd">
<svg version="1.0" xmlns="http://www.w3.org/2000/svg"
 width="322.000000pt" height="128.000000pt" viewBox="0 0 322.000000 128.000000"
 preserveAspectRatio="xMidYMid meet">
<metadata>
Created by potrace 1.16, written by Peter Selinger 2001-2019
</metadata>
<g transform="translate(0.000000,128.000000) scale(0.100000,-0.100000)"
fill="#000000" stroke="none">
<path d="M854 1062 c1 -97 -3 -194 -7 -214 l-8 -37 -62 5 c-328 25 -368 31
-384 54 -10 14 -25 19 -62 18 -27 0 -59 3 -71 7 -12 4 -28 1 -37 -6 -13 -11
-18 -10 -34 10 -16 19 -20 20 -25 8 -3 -9 -12 -13 -20 -10 -12 4 -13 0 -4 -22
5 -14 10 -61 10 -104 0 -43 3 -81 8 -85 4 -4 5 -99 4 -210 -3 -174 -2 -204 11
-209 21 -8 27 13 27 97 l0 73 107 7 c201 13 303 25 303 37 0 5 -5 9 -12 9 -6
0 -9 3 -5 6 3 3 12 2 19 -2 7 -5 58 -7 113 -6 l101 3 -7 -68 c-11 -99 -38
-294 -45 -325 -3 -15 -15 -30 -25 -33 -10 -4 -19 -11 -19 -16 0 -6 9 -8 19 -4
11 3 22 1 26 -5 12 -19 40 -10 56 19 11 19 49 46 115 81 291 156 383 206 421
232 23 16 63 37 88 48 26 11 79 47 119 80 41 32 76 57 78 54 3 -2 1 -28 -4
-57 -28 -173 -41 -336 -28 -357 14 -22 30 0 30 40 0 70 13 88 67 95 26 3 77
10 113 15 36 5 93 12 127 15 58 5 62 5 65 -16 2 -12 8 -24 14 -26 13 -4 39 19
47 39 2 7 7 10 11 7 4 -4 -1 -26 -10 -49 -14 -35 -15 -43 -4 -50 8 -5 22 -4
33 2 12 6 37 7 61 3 22 -4 55 -9 71 -11 17 -2 50 -15 75 -28 25 -13 62 -27 83
-31 20 -4 37 -11 37 -16 0 -5 21 -19 47 -32 27 -12 55 -30 63 -40 27 -32 49
-12 49 46 0 29 2 63 5 77 2 14 7 55 11 93 l7 67 41 1 c23 1 51 1 62 0 11 -1
59 -5 107 -8 l87 -5 -3 -129 c-2 -98 1 -129 10 -129 22 0 26 19 30 123 3 89 6
104 24 116 21 14 27 41 9 41 -8 0 -10 35 -5 124 7 116 11 137 66 301 32 98 68
187 79 199 41 43 24 52 -99 51 l-65 0 0 -59 0 -59 -60 -4 c-115 -7 -170 -8
-183 -4 -16 4 -7 51 19 101 30 58 49 102 49 117 0 7 4 13 8 13 5 0 14 11 20
25 18 40 -5 54 -80 48 -35 -3 -74 -11 -88 -17 -27 -12 -27 -14 -21 -141 2 -27
2 -69 2 -92 -1 -43 -1 -43 -38 -43 l-36 0 6 101 c4 56 11 107 18 115 11 13 5
34 -10 34 -18 0 -30 -56 -32 -145 -1 -52 -5 -95 -9 -95 -9 0 -23 221 -14 246
5 18 5 18 -10 0 -12 -15 -16 -45 -18 -115 0 -53 -2 -102 -2 -109 -2 -19 -24
-30 -51 -24 -19 3 -24 9 -21 26 3 11 5 21 6 21 1 0 3 9 5 20 12 69 13 94 5
129 -5 25 -5 47 2 62 14 29 3 43 -17 23 -15 -14 -23 -93 -24 -226 -1 -40 -5
-53 -16 -53 -22 0 -43 59 -34 95 4 17 11 55 14 85 4 30 15 70 26 88 22 38 16
56 -15 49 -72 -19 -240 -84 -244 -96 -3 -10 1 -12 15 -9 25 7 48 -10 56 -43 4
-14 17 -37 29 -51 13 -13 38 -46 57 -72 l34 -48 -208 6 c-187 5 -210 8 -226
25 -15 16 -24 17 -64 10 -26 -5 -71 -10 -101 -11 -58 -2 -67 -11 -55 -55 7
-28 7 -47 3 -196 l-2 -78 -24 13 c-28 15 -232 208 -468 441 -132 131 -162 156
-174 146 -16 -13 -124 -5 -134 11 -3 5 -6 -70 -6 -168z m1472 102 c-9 -8 -16
-30 -16 -48 0 -19 -3 -47 -6 -64 l-6 -31 -30 27 c-25 23 -52 62 -61 89 -1 3
25 14 58 23 78 23 79 23 61 4z m-1211 -99 c29 -39 29 -40 5 -24 -14 8 -46 28
-71 44 -44 27 -46 30 -37 57 l10 29 32 -33 c18 -18 45 -51 61 -73z m-147 77
c2 -7 -2 -10 -12 -6 -9 3 -16 1 -16 -5 0 -6 5 -11 10 -11 16 0 12 -29 -15
-121 -33 -108 -35 -117 -42 -162 -3 -21 -10 -36 -15 -35 -5 2 -10 7 -10 11 -2
16 24 323 28 335 5 17 66 12 72 -6z m1774 -39 c-9 -27 -20 -50 -23 -53 -3 -3
-13 -23 -22 -45 l-16 -40 -2 58 c-5 117 -7 111 26 118 55 12 55 12 37 -38z
m-1678 -63 c152 -99 201 -137 411 -325 50 -44 106 -92 124 -106 l34 -25 -84
-62 c-91 -67 -157 -102 -259 -137 -36 -13 -99 -37 -140 -55 -96 -40 -242 -90
-267 -90 -10 0 -24 -5 -31 -12 -16 -16 -9 118 13 237 9 50 20 115 26 145 5 30
15 83 23 118 7 35 11 73 9 85 -2 12 12 72 31 132 20 61 36 116 36 123 0 18 7
16 74 -28z m2011 -77 c-4 -10 -20 -64 -35 -119 -36 -133 -42 -143 -33 -59 3
39 6 98 4 133 l-2 62 37 0 c31 0 35 -3 29 -17z m-1322 -74 c41 -11 44 -18 23
-57 -8 -15 -24 -54 -36 -87 -49 -133 -49 -133 -47 17 1 84 6 138 12 138 6 0
27 -5 48 -11z m416 -9 c86 0 56 -7 -64 -15 -99 -5 -198 -17 -263 -31 -23 -5
-23 -4 -6 27 l16 32 131 -6 c73 -4 156 -7 186 -7z m769 -20 c31 0 33 -1 28
-32 -3 -18 -8 -89 -11 -158 -6 -130 -22 -290 -28 -297 -8 -8 -116 -5 -129 3
-7 5 -48 7 -91 5 l-78 -3 6 83 c4 46 8 112 10 147 2 34 6 70 9 80 3 9 8 49 12
87 3 39 8 72 10 74 3 3 42 5 89 6 46 0 87 4 92 8 4 5 17 6 28 3 11 -3 35 -6
53 -6z m-2661 -33 c15 -1 28 -7 28 -12 0 -13 -31 -94 -69 -183 -30 -70 -31
-72 -36 -40 -3 18 -2 56 3 83 11 65 11 61 2 129 l-8 58 26 -16 c14 -10 38 -18
54 -19z m2197 18 c6 -16 -27 -21 -60 -8 -16 6 -16 7 2 14 31 12 51 10 58 -6z
m146 -42 c0 -32 -4 -87 -9 -123 -5 -36 -12 -112 -16 -169 -3 -57 -11 -113 -16
-124 -10 -17 -13 -18 -26 -4 -12 11 -12 19 -4 35 6 11 11 38 11 60 0 22 7 56
15 77 18 42 13 109 -12 164 -19 43 -25 123 -10 133 7 4 24 8 40 8 26 0 27 -1
27 -57z m-314 -15 c-3 -37 -17 -83 -32 -113 -30 -57 -160 -263 -179 -284 -12
-12 -103 -15 -230 -6 -16 2 -65 3 -108 4 l-77 1 6 28 c23 100 77 288 95 329
l21 49 107 17 c59 9 129 17 157 18 27 0 69 4 94 8 25 5 69 9 99 10 l54 1 -7
-62z m214 -9 c0 -38 -3 -68 -7 -66 -8 5 -5 137 3 137 2 0 4 -32 4 -71z m-1960
14 c94 -6 107 -8 70 -14 -25 -3 -85 -7 -135 -8 -49 -2 -107 -4 -128 -6 -37 -3
-39 0 -14 33 8 9 24 12 51 8 23 -3 93 -9 156 -13z m1824 2 c3 -9 -1 -18 -10
-22 -19 -7 -28 2 -21 22 8 19 23 19 31 0z m87 -210 l-6 -210 -23 0 -24 0 1
167 c1 91 4 176 6 189 4 19 45 73 50 66 2 -1 0 -96 -4 -212z m-1655 195 l27
-10 -8 -113 c-4 -61 -8 -118 -8 -126 0 -12 -44 -13 -279 -7 -153 4 -285 9
-293 12 -22 9 -19 22 22 105 21 41 37 77 38 81 1 17 24 21 157 25 79 2 174 11
212 18 38 8 72 12 77 10 4 -3 10 -1 14 5 8 12 8 12 41 0z m64 -36 c0 -14 -4
-23 -9 -20 -7 5 -8 23 -2 44 4 12 11 -3 11 -24z m-9 -61 c-12 -20 -14 -14 -5
12 4 9 9 14 11 11 3 -2 0 -13 -6 -23z m1648 -149 c0 -92 -3 -164 -7 -160 -7 8
-8 12 -11 196 -3 135 -3 130 8 130 5 0 9 -75 10 -166z m-112 134 c-3 -8 -6 -5
-6 6 -1 11 2 17 5 13 3 -3 4 -12 1 -19z m-28 -148 l1 -150 -40 0 -41 0 4 127
c4 126 5 127 33 150 16 13 32 23 36 23 4 0 7 -67 7 -150z m160 86 c-9 -8 -10
-7 -5 7 3 10 7 24 7 30 1 7 3 4 6 -7 3 -10 -1 -23 -8 -30z m-1682 12 c-3 -8
-6 -5 -6 6 -1 11 2 17 5 13 3 -3 4 -12 1 -19z m1425 -130 l-4 -118 -29 0 -29
0 6 63 c3 34 7 71 8 82 1 20 44 101 49 94 1 -2 1 -57 -1 -121z m-2082 36 c0
-8 -5 -12 -10 -9 -6 4 -8 11 -5 16 9 14 15 11 15 -7z m235 -21 c181 -8 157
-18 -62 -26 l-162 -6 10 23 c8 17 17 22 37 19 15 -2 95 -6 177 -10z m1768 -79
c-5 -50 -6 -50 -38 -50 -21 1 -30 5 -25 11 4 6 20 30 34 53 15 24 29 42 31 40
1 -1 1 -26 -2 -54z m-289 -75 c106 -2 90 -6 -121 -36 -87 -12 -133 -15 -133
-8 0 5 3 21 7 34 6 23 8 24 81 17 41 -3 116 -7 166 -7z m463 -25 c2 -10 1 -33
-2 -50 l-5 -31 -35 32 c-43 38 -45 62 -7 68 39 6 45 3 49 -19z m84 -29 c-5
-89 -12 -105 -35 -86 -21 18 -18 129 4 134 29 8 34 0 31 -48z m55 -6 c-3 -34
-6 -73 -6 -85 0 -13 -4 -24 -10 -24 -11 0 -14 111 -4 148 4 12 11 22 17 22 6
0 8 -22 3 -61z m-236 41 c0 -5 -5 -10 -11 -10 -5 0 -7 5 -4 10 3 6 8 10 11 10
2 0 4 -4 4 -10z m297 -27 c-4 -21 -9 -64 -13 -95 -4 -32 -11 -58 -15 -58 -12
0 -13 27 -4 140 4 47 5 50 21 50 13 0 15 -7 11 -37z m-378 3 c16 -19 3 -46
-23 -46 -31 0 -36 8 -24 36 13 27 30 31 47 10z m-1039 -16 c0 -5 -4 -10 -8
-10 -4 0 -75 -38 -157 -85 -82 -47 -154 -85 -161 -85 -9 0 -10 10 -3 38 5 20
9 40 9 44 0 4 26 12 57 19 31 7 102 30 157 51 118 44 106 40 106 28z m1095
-26 c20 -15 20 -16 -4 -12 -14 2 -26 9 -29 16 -5 16 9 15 33 -4z"/>
</g>
</svg>
