<?xml version="1.0" standalone="no"?>
<!DOCTYPE svg PUBLIC "-//W3C//DTD SVG 20010904//EN"
 "http://www.w3.org/TR/2001/REC-SVG-20010904/DTD/svg10.dtd">
<svg version="1.0" xmlns="http://www.w3.org/2000/svg"
 width="198.000000pt" height="126.000000pt" viewBox="0 0 198.000000 126.000000"
 preserveAspectRatio="xMidYMid meet">
<metadata>
Created by potrace 1.16, written by Peter Selinger 2001-2019
</metadata>
<g transform="translate(0.000000,126.000000) scale(0.100000,-0.100000)"
fill="#000000" stroke="none">
<path d="M1103 1081 c-23 -19 -83 -107 -135 -195 -31 -52 -27 -51 -171 -36
-51 5 -157 11 -237 14 -82 3 -171 12 -204 21 -69 18 -111 12 -131 -19 -8 -12
-19 -58 -25 -101 -6 -44 -13 -91 -16 -105 -11 -62 -34 -281 -34 -336 0 -38 5
-67 15 -80 8 -10 15 -17 15 -14 1 3 4 41 6 85 3 44 9 94 14 110 5 17 12 66 15
110 3 44 10 96 15 115 4 19 11 64 15 100 9 94 10 96 87 79 35 -7 135 -14 223
-15 88 -1 199 -5 247 -9 65 -6 91 -5 103 5 29 24 14 -8 -48 -101 -81 -122
-145 -206 -160 -211 -11 -3 -78 -3 -157 1 -62 3 -298 -12 -311 -19 -6 -5 -9
-15 -6 -23 8 -21 120 -32 172 -18 22 5 92 11 155 12 93 1 116 -1 118 -13 1 -8
17 -22 35 -33 18 -10 53 -37 78 -59 26 -23 80 -63 120 -91 41 -27 112 -87 158
-133 l84 -83 26 25 c15 14 32 26 39 26 7 0 12 5 12 12 0 6 3 9 6 5 4 -3 21 5
38 18 17 13 65 40 106 61 41 20 90 48 108 62 18 14 57 36 85 49 29 14 59 30
67 38 8 7 56 34 105 60 120 63 135 73 135 88 -1 6 -37 37 -81 67 -44 30 -97
73 -117 95 -20 22 -53 50 -74 62 -41 24 -108 76 -166 132 -20 18 -52 45 -72
59 -60 45 -154 134 -168 158 -21 40 -60 27 -44 -15 11 -31 241 -236 359 -321
37 -27 97 -75 131 -107 35 -32 79 -67 96 -78 63 -39 69 -46 51 -66 -9 -9 -67
-43 -128 -75 -134 -69 -176 -91 -304 -166 -169 -97 -198 -111 -201 -96 -1 8
-17 22 -35 33 -18 10 -53 38 -79 62 -26 23 -52 43 -58 43 -5 0 -43 28 -83 63
-39 34 -91 78 -115 97 -25 20 -41 39 -37 48 7 20 73 118 129 192 26 36 62 89
80 118 62 104 75 128 97 169 12 22 39 64 60 92 39 51 34 67 -8 32z"/>
<path d="M1200 698 c-14 -5 -76 -12 -139 -14 -93 -2 -116 -6 -124 -19 -14 -25
-4 -175 14 -215 9 -19 21 -47 27 -61 12 -30 -4 -30 167 7 71 16 100 18 145 12
22 -3 24 0 21 22 -2 14 -5 75 -7 135 -1 61 -3 118 -3 128 -1 13 -9 17 -38 16
-21 0 -49 -5 -63 -11z m48 -133 l1 -105 -42 -10 c-23 -5 -73 -19 -112 -29 -38
-11 -73 -17 -77 -15 -4 3 -8 16 -8 28 0 13 -7 40 -15 59 -8 20 -15 59 -15 86
0 44 3 51 23 55 40 8 91 16 152 21 32 3 61 8 64 10 2 3 10 5 16 5 8 0 12 -32
13 -105z"/>
</g>
</svg>
