<?xml version="1.0" standalone="no"?>
<!DOCTYPE svg PUBLIC "-//W3C//DTD SVG 20010904//EN"
 "http://www.w3.org/TR/2001/REC-SVG-20010904/DTD/svg10.dtd">
<svg version="1.0" xmlns="http://www.w3.org/2000/svg"
 width="268.000000pt" height="112.000000pt" viewBox="0 0 268.000000 112.000000"
 preserveAspectRatio="xMidYMid meet">
<metadata>
Created by potrace 1.16, written by Peter Selinger 2001-2019
</metadata>
<g transform="translate(0.000000,112.000000) scale(0.100000,-0.100000)"
fill="#000000" stroke="none">
<path d="M1144 972 c-24 -16 -34 -75 -27 -164 l6 -90 -139 7 c-76 5 -173 9
-214 10 -72 2 -133 18 -179 46 -11 8 -21 17 -21 21 0 4 -4 18 -10 33 -8 22
-13 24 -30 15 -39 -21 -47 -57 -42 -192 4 -119 5 -128 24 -128 10 0 28 5 39
10 17 10 19 7 19 -33 l0 -45 -47 5 c-99 9 -179 25 -203 41 -27 17 -77 17 -99
-1 -10 -9 -12 -43 -8 -164 4 -84 9 -158 12 -163 9 -15 31 -12 46 7 14 17 182
144 232 175 15 10 37 18 49 18 20 0 21 -3 14 -96 -7 -89 -6 -95 11 -92 18 3
23 23 36 145 6 60 14 76 30 66 7 -4 36 -6 65 -4 l54 3 -3 -79 c-2 -63 0 -77
11 -75 18 4 29 21 31 45 1 9 3 22 4 27 1 6 3 23 4 39 l1 29 120 1 c96 0 120
-3 120 -14 0 -26 32 -108 56 -147 16 -25 22 -46 18 -62 -3 -15 -1 -25 9 -29
18 -7 28 1 51 43 11 19 25 41 32 47 7 7 21 23 31 36 25 31 88 68 132 78 20 4
61 15 91 24 63 19 93 25 285 55 77 12 152 25 168 30 15 5 27 6 27 2 0 -10
-162 -147 -182 -155 -31 -11 -20 -27 35 -53 28 -13 66 -33 82 -44 65 -42 65
-42 72 -24 4 12 -4 26 -25 45 -29 26 -32 34 -32 87 0 53 3 61 35 92 19 19 35
39 35 46 0 10 107 54 133 54 5 0 -19 -33 -54 -72 -35 -40 -69 -80 -76 -89 -12
-15 -8 -20 38 -44 29 -15 75 -51 102 -81 80 -85 104 -69 40 26 -36 52 -38 59
-38 137 0 77 2 83 29 112 17 18 40 31 55 32 14 0 35 4 46 8 40 16 45 4 38 -89
-5 -74 -3 -92 13 -119 10 -17 23 -30 29 -28 6 2 10 48 10 113 0 88 3 114 18
134 9 13 17 32 17 41 0 31 110 235 145 269 49 48 47 65 -7 54 -24 -4 -81 -8
-127 -9 -86 0 -106 -10 -82 -39 12 -14 16 -164 6 -218 -7 -35 -8 -36 -33 -26
-15 5 -56 14 -92 19 -81 12 -94 26 -85 94 3 28 7 61 8 75 1 16 17 37 42 58 22
17 46 37 53 42 14 13 16 30 3 30 -12 0 -149 -109 -176 -140 -11 -12 -30 -26
-42 -31 -21 -8 -33 -39 -15 -39 4 0 23 -13 42 -30 26 -21 30 -29 18 -30 -24 0
-88 58 -88 81 0 10 6 40 13 65 10 41 21 54 85 102 39 30 72 58 72 63 0 18 -25
8 -76 -31 -32 -24 -62 -39 -76 -37 -17 1 -24 -4 -26 -20 -3 -21 -50 -63 -84
-76 -26 -9 -22 -32 12 -70 48 -55 42 -61 -49 -53 -44 3 -97 13 -119 20 -62 22
-155 66 -173 82 -15 13 -20 12 -42 -8 -31 -27 -72 -137 -57 -152 6 -6 23 -5
48 2 22 7 64 12 95 12 37 0 61 5 71 15 13 13 23 14 54 6 21 -6 85 -16 142 -22
58 -6 130 -17 160 -24 30 -7 76 -16 102 -20 46 -6 77 -25 42 -25 -27 0 -84
-22 -138 -53 -36 -21 -71 -31 -134 -38 -47 -5 -88 -11 -91 -14 -4 -2 -62 -11
-129 -20 -68 -9 -134 -20 -148 -25 -14 -6 -41 -10 -59 -10 l-35 0 1 120 c0
143 10 180 79 301 28 50 50 95 48 101 -2 5 -26 12 -53 15 -51 6 -63 6 -170 4
-33 -1 -80 5 -104 14 -51 17 -43 17 -57 7z m313 -76 c2 -2 -8 -28 -24 -58
l-28 -53 -5 44 c-6 49 -23 63 -39 33 -14 -26 -16 -163 -6 -324 l7 -128 -25 -9
c-14 -6 -54 -11 -89 -13 l-63 -3 -3 126 c-3 124 -2 127 21 142 14 9 28 28 31
42 9 34 91 161 127 197 24 24 32 26 60 18 17 -5 34 -11 36 -14z m-184 4 c15 0
27 -4 27 -8 0 -4 -21 -42 -47 -84 -27 -42 -53 -84 -59 -95 -10 -15 -12 -5 -13
50 0 37 -3 72 -6 77 -3 6 -1 10 6 10 10 0 10 3 1 12 -7 7 -12 21 -12 31 0 17
5 19 38 13 20 -3 49 -6 65 -6z m1162 -102 c-13 -29 -39 -81 -57 -115 l-34 -62
4 102 c2 56 5 108 7 115 3 7 23 12 54 12 l50 0 -24 -52z m-517 0 c-2 -6 -10
-14 -16 -16 -7 -2 -10 2 -6 12 7 18 28 22 22 4z m135 -46 c-6 -24 -23 -30 -23
-9 0 13 21 39 26 34 2 -2 1 -13 -3 -25z m-1419 -48 c27 -8 51 -16 54 -19 6 -6
-62 -35 -82 -35 -28 0 -46 -12 -48 -34 0 -11 -4 2 -7 29 -8 66 -3 88 18 79 9
-4 38 -13 65 -20z m931 1 c17 -7 37 -16 45 -18 8 -3 -1 -6 -20 -7 -19 -1 -54
-3 -77 -5 l-41 -5 11 30 c12 32 18 32 82 5z m-450 -150 l0 -119 -45 -4 c-57
-5 -202 7 -220 18 -10 6 -8 16 10 46 13 22 34 51 47 65 40 44 23 59 -63 59
-43 0 -74 4 -74 10 0 6 -14 10 -32 10 -31 0 -31 1 -15 17 23 23 92 29 257 23
l135 -5 0 -120z m-417 42 c8 -9 -1 -25 -34 -60 -24 -26 -44 -46 -45 -45 -6 29
-4 96 3 106 14 16 63 16 76 -1z m92 -24 c0 -5 -6 -28 -14 -53 -7 -25 -14 -49
-15 -55 -1 -13 -111 -19 -111 -7 0 18 105 121 123 122 9 0 17 -3 17 -7z m70 0
c0 -5 -9 -21 -20 -38 -20 -30 -25 -21 -14 23 6 20 34 32 34 15z m-447 -149
c29 -4 61 -10 72 -14 18 -7 18 -8 -5 -20 -14 -7 -46 -31 -71 -52 -26 -22 -56
-40 -67 -41 -11 0 -18 -5 -15 -10 3 -5 -5 -6 -18 -2 -16 4 -19 3 -11 -3 10 -7
10 -11 -2 -21 -12 -10 -17 -9 -25 7 -6 11 -8 22 -5 25 3 2 5 33 5 68 0 97 2
101 50 84 22 -8 63 -17 92 -21z m1655 -59 c3 -38 0 -40 -30 -24 -20 11 -20 11
3 35 12 13 23 24 24 24 0 0 2 -16 3 -35z m-928 21 c0 -3 -4 -8 -10 -11 -5 -3
-10 -1 -10 4 0 6 5 11 10 11 6 0 10 -2 10 -4z m82 -94 c-43 -35 -56 -41 -64
-31 -14 22 -38 68 -38 74 0 3 35 5 78 4 l79 -2 -55 -45z m634 -10 c-4 -3 -11
-1 -18 6 -8 8 -8 15 3 28 13 16 14 16 17 -5 2 -13 1 -25 -2 -29z"/>
</g>
</svg>
