<?xml version="1.0" standalone="no"?>
<!DOCTYPE svg PUBLIC "-//W3C//DTD SVG 20010904//EN"
 "http://www.w3.org/TR/2001/REC-SVG-20010904/DTD/svg10.dtd">
<svg version="1.0" xmlns="http://www.w3.org/2000/svg"
 width="206.000000pt" height="120.000000pt" viewBox="0 0 206.000000 120.000000"
 preserveAspectRatio="xMidYMid meet">
<metadata>
Created by potrace 1.16, written by Peter Selinger 2001-2019
</metadata>
<g transform="translate(0.000000,120.000000) scale(0.100000,-0.100000)"
fill="#000000" stroke="none">
<path d="M509 1100 c-12 -16 -47 -46 -78 -67 -45 -30 -68 -39 -116 -43 l-60
-5 -6 -130 c-4 -71 -12 -155 -18 -185 -7 -30 -16 -93 -21 -139 -7 -63 -14 -90
-29 -104 -20 -20 -20 -20 9 -61 15 -23 35 -58 43 -79 9 -20 21 -37 27 -37 20
0 57 49 74 97 39 109 35 104 151 152 60 25 155 68 213 98 58 29 115 53 128 53
36 0 29 18 -9 25 -19 4 -34 12 -34 19 0 27 -99 146 -145 173 -62 37 -81 81
-80 186 0 87 -11 99 -49 47z m7 -56 c-3 -9 -6 -23 -6 -32 0 -13 -10 -17 -42
-19 l-42 -1 40 34 c43 36 59 43 50 18z m4 -84 c11 -21 4 -25 -19 -11 -7 5 -10
14 -7 20 10 15 14 14 26 -9z m-108 -15 c-1 -5 -30 -55 -65 -110 l-62 -100 -5
105 -5 105 40 6 c55 9 100 6 97 -6z m107 -77 c7 -6 34 -21 60 -33 50 -25 135
-95 151 -126 9 -16 7 -18 -17 -14 -16 2 -65 9 -110 16 -62 9 -80 14 -76 25 7
18 -31 19 -45 1 -18 -21 -47 -129 -44 -159 4 -37 23 -35 78 6 33 26 60 37 99
41 30 4 60 13 66 21 6 8 23 14 38 14 l26 0 -25 -21 c-34 -27 -209 -111 -299
-143 -41 -15 -96 -28 -123 -30 l-48 -4 0 42 c0 93 19 163 63 230 23 35 53 84
67 107 14 23 33 52 43 66 l19 23 31 -25 c18 -14 38 -30 46 -37z m76 -199 c35
-6 36 -7 10 -8 -16 -1 -50 -12 -74 -26 -23 -14 -45 -25 -47 -25 -3 0 -3 12 0
28 2 15 5 33 5 40 1 10 9 12 34 6 17 -4 50 -11 72 -15z m-283 -294 l-26 -65
-23 46 c-13 25 -23 48 -23 50 0 7 63 33 81 34 14 0 13 -9 -9 -65z"/>
<path d="M940 955 c-11 -13 -8 -17 21 -28 19 -8 54 -15 79 -16 24 -1 45 -3 47
-4 1 -2 -29 -48 -66 -104 l-68 -102 -6 77 c-7 83 -15 134 -23 141 -13 13 -22
-28 -16 -69 4 -25 6 -72 6 -105 -1 -83 -23 -357 -29 -363 -3 -3 -28 0 -56 6
-66 15 -72 15 -65 -4 3 -8 2 -12 -4 -9 -13 8 -13 1 4 -40 8 -19 12 -35 8 -35
-4 0 -6 -36 -4 -80 4 -99 15 -103 91 -26 69 70 137 104 221 110 36 3 129 13
207 22 121 15 147 15 168 4 20 -11 37 -11 89 -2 35 7 86 12 115 12 44 0 51 -3
51 -19 0 -11 4 -22 9 -25 20 -13 28 26 30 148 l1 129 37 61 c43 73 138 192
158 200 8 3 15 12 15 20 0 13 -24 15 -162 12 -161 -2 -195 -11 -131 -31 44
-15 45 -16 48 -88 l3 -64 -83 -7 c-175 -14 -389 -2 -418 24 -9 7 31 82 80 151
18 25 30 49 26 52 -3 4 -43 7 -89 7 -76 0 -82 1 -77 19 4 17 -3 19 -84 23 -48
3 -95 8 -104 12 -10 4 -21 1 -29 -9z m201 -107 c2 -32 1 -81 -1 -225 -1 -39
-9 -110 -19 -158 -9 -47 -14 -88 -9 -91 12 -8 28 5 28 22 0 8 7 41 17 74 15
55 20 62 67 90 28 16 62 39 76 50 22 17 49 21 215 28 105 5 194 6 199 2 4 -5
3 -31 -3 -60 -6 -28 -11 -87 -11 -130 0 -76 -1 -80 -22 -80 -13 0 -124 -3
-248 -6 -461 -12 -516 -10 -506 24 3 9 8 64 11 122 5 99 25 170 47 170 5 0 8
6 8 13 0 11 81 137 112 174 19 24 38 15 39 -19z m131 15 c-10 -24 -80 -130
-89 -136 -10 -6 -17 129 -8 143 3 5 28 10 55 10 43 0 48 -2 42 -17z m616 -41
c-7 -11 -30 -39 -51 -64 -20 -24 -44 -53 -51 -64 -21 -28 -33 -9 -39 68 l-6
67 62 4 c34 2 70 4 80 5 16 2 16 0 5 -16z m-633 -182 c8 0 15 -4 15 -10 0 -11
-74 -60 -90 -60 -11 0 -14 82 -4 93 4 3 19 0 35 -8 15 -8 35 -15 44 -15z
m-352 -313 l48 -12 -66 -53 c-36 -28 -68 -52 -70 -52 -3 0 -5 29 -5 65 0 74 3
76 93 52z"/>
</g>
</svg>
