<?xml version="1.0" standalone="no"?>
<!DOCTYPE svg PUBLIC "-//W3C//DTD SVG 20010904//EN"
 "http://www.w3.org/TR/2001/REC-SVG-20010904/DTD/svg10.dtd">
<svg version="1.0" xmlns="http://www.w3.org/2000/svg"
 width="120.000000pt" height="126.000000pt" viewBox="0 0 120.000000 126.000000"
 preserveAspectRatio="xMidYMid meet">
<metadata>
Created by potrace 1.16, written by Peter Selinger 2001-2019
</metadata>
<g transform="translate(0.000000,126.000000) scale(0.100000,-0.100000)"
fill="#000000" stroke="none">
<path d="M337 1173 c-4 -3 -4 -31 0 -61 4 -38 2 -56 -7 -62 -22 -14 -143 1
-178 22 -18 11 -39 17 -47 14 -16 -6 -33 -78 -19 -83 5 -2 6 -44 3 -95 -3 -51
-4 -96 -2 -100 7 -13 30 -9 44 8 7 8 38 31 68 51 31 20 68 44 83 54 45 31 62
26 55 -18 -4 -21 -11 -39 -17 -41 -15 -5 -12 -21 6 -39 12 -13 14 -28 9 -70
-4 -33 -3 -53 4 -53 17 0 24 20 32 108 11 107 26 161 45 169 9 3 33 0 55 -6
l39 -12 2 -92 c4 -191 0 -234 -33 -348 -15 -52 -30 -117 -34 -142 -5 -31 -12
-47 -22 -47 -28 0 -103 23 -103 31 0 11 -30 12 -31 2 0 -5 -2 -17 -4 -27 -2
-11 -7 -71 -11 -133 -7 -110 -6 -113 14 -113 12 0 44 20 71 44 27 24 71 52 97
62 27 10 59 24 71 32 21 13 150 20 483 25 77 2 95 5 95 17 0 15 -4 16 -139 19
l-58 1 6 48 c3 26 11 119 17 207 8 116 15 165 26 177 9 10 13 24 10 31 -3 8
10 47 29 88 18 41 34 82 34 91 0 9 11 25 25 36 14 11 25 24 25 30 0 5 -30 12
-67 16 -78 8 -76 8 -288 2 -133 -4 -277 6 -294 20 -4 4 36 62 66 95 20 21 21
28 10 37 -9 8 -24 9 -45 3 -17 -5 -32 -8 -34 -6 -8 7 -86 14 -91 8z m103 -51
c0 -13 -50 -82 -60 -82 -6 0 -10 20 -10 45 0 45 0 45 35 45 19 0 35 -3 35 -8z
m-186 -118 c48 -4 84 -10 80 -13 -5 -6 -115 -68 -162 -93 -12 -6 -24 -9 -26
-7 -2 2 -6 34 -8 71 -5 62 -4 67 12 58 10 -5 57 -13 104 -16z m652 -131 c-12
-196 -14 -233 -27 -373 -6 -74 -13 -153 -14 -175 l-2 -40 -100 1 c-59 1 -110
7 -124 15 -13 7 -53 13 -89 14 l-65 2 3 42 c2 24 15 84 28 135 14 50 30 129
36 176 6 47 13 92 15 100 3 8 7 27 8 42 4 39 38 101 62 113 12 6 29 17 38 25
14 12 91 25 224 39 11 1 12 -20 7 -116z m104 97 c0 -14 -51 -139 -59 -144 -3
-2 -7 29 -9 69 -2 69 -1 74 20 78 40 8 48 7 48 -3z m-401 -6 l31 -7 -23 -21
c-12 -11 -30 -32 -39 -45 -28 -40 -48 -5 -32 57 7 24 14 25 63 16z m-255 -671
c10 -10 96 -32 129 -33 30 0 29 -20 -1 -20 -9 0 -48 -16 -86 -35 -39 -19 -71
-35 -73 -35 -6 0 -3 117 4 123 8 9 18 9 27 0z"/>
</g>
</svg>
