<?xml version="1.0" standalone="no"?>
<!DOCTYPE svg PUBLIC "-//W3C//DTD SVG 20010904//EN"
 "http://www.w3.org/TR/2001/REC-SVG-20010904/DTD/svg10.dtd">
<svg version="1.0" xmlns="http://www.w3.org/2000/svg"
 width="242.000000pt" height="156.000000pt" viewBox="0 0 242.000000 156.000000"
 preserveAspectRatio="xMidYMid meet">
<metadata>
Created by potrace 1.16, written by Peter Selinger 2001-2019
</metadata>
<g transform="translate(0.000000,156.000000) scale(0.100000,-0.100000)"
fill="#000000" stroke="none">
<path d="M1340 1479 c-25 -10 -124 -50 -220 -89 -150 -61 -184 -72 -239 -73
l-63 -1 5 -33 c8 -48 55 -143 71 -143 7 0 19 7 26 15 18 22 35 4 69 -69 41
-87 101 -238 101 -252 0 -4 -29 -5 -64 -2 -42 2 -69 9 -81 21 -9 10 -30 24
-46 32 -15 9 -33 24 -39 35 -6 11 -25 27 -43 36 -18 9 -45 28 -62 41 -16 14
-56 38 -88 54 -80 38 -111 62 -238 182 -11 9 -19 22 -19 29 0 16 -51 68 -67
68 -21 0 -15 -27 10 -47 12 -10 28 -31 34 -46 7 -15 20 -30 28 -33 8 -4 15
-10 15 -15 0 -6 -8 -5 -19 1 -11 5 -33 10 -49 10 -16 0 -43 7 -58 15 -16 8
-37 15 -47 15 -14 0 -8 12 27 52 49 56 55 68 32 68 -8 0 -27 -18 -43 -39 -15
-22 -40 -47 -56 -58 -36 -24 -67 -76 -67 -115 0 -17 7 -69 16 -116 12 -65 14
-125 10 -265 -3 -100 -5 -204 -5 -231 l-1 -49 -49 6 c-27 3 -51 4 -54 1 -5 -5
24 -103 44 -146 15 -35 24 -35 54 0 13 16 59 49 102 75 107 65 121 76 105 86
-9 5 9 18 55 40 37 18 75 38 83 45 8 7 82 48 165 91 82 43 168 89 190 103 33
21 55 27 126 30 51 3 94 0 106 -6 27 -15 74 -113 143 -297 22 -60 45 -114 50
-119 20 -20 8 -26 -49 -26 -33 0 -62 -3 -65 -8 -8 -13 48 -165 66 -176 14 -8
24 -2 55 34 21 24 46 51 56 59 11 9 32 27 48 41 32 27 115 71 272 144 53 25
97 50 97 56 0 14 -5 13 -51 -11 -23 -11 -42 -19 -44 -17 -5 5 -145 282 -145
286 0 3 14 2 32 -2 17 -3 122 -13 232 -22 111 -8 219 -17 241 -19 46 -3 53
-21 36 -89 -18 -72 -24 -211 -11 -251 20 -60 35 -37 31 47 -2 54 2 83 12 100
8 12 20 55 27 93 7 39 18 79 24 90 6 11 11 27 12 36 2 25 86 188 112 215 45
50 24 64 -94 64 -100 0 -102 -4 -103 -179 l-1 -94 -87 8 c-49 4 -122 6 -163 6
-69 -2 -231 12 -290 24 -21 5 -34 26 -83 135 -74 168 -128 360 -126 453 1 46
6 67 14 67 18 0 60 36 49 42 -5 3 -29 -3 -54 -13z m-31 -71 c-5 -17 -6 -50 -4
-72 l6 -41 -25 50 c-31 62 -32 69 -3 83 34 16 36 15 26 -20z m-69 -20 c0 -7
20 -53 44 -103 24 -49 49 -110 56 -135 7 -25 15 -49 20 -55 4 -5 13 -28 20
-50 7 -22 17 -49 23 -60 16 -28 76 -179 74 -182 -4 -3 -256 16 -305 23 -39 6
-45 10 -64 53 -12 25 -24 50 -26 55 -3 5 0 6 6 2 20 -12 22 11 6 80 -9 38 -21
106 -28 151 -6 45 -14 85 -18 89 -12 11 -10 -30 7 -140 18 -117 19 -148 6
-126 -6 8 -7 18 -5 22 3 4 2 8 -3 8 -4 0 -14 15 -22 33 -7 17 -24 55 -37 84
-13 28 -24 55 -23 60 0 10 123 114 154 130 13 7 26 22 30 32 9 29 85 54 85 29z
m-150 -42 c0 -7 -174 -146 -183 -146 -4 0 -15 16 -24 36 -20 41 -14 48 51 57
22 3 66 17 96 31 63 28 60 27 60 22z m-604 -207 c19 -22 19 -22 -3 -10 -24 12
-39 31 -25 31 5 0 17 -10 28 -21z m-95 -5 c5 -3 -1 -18 -14 -33 -13 -15 -31
-50 -41 -77 -50 -135 -121 -310 -129 -319 -7 -6 -7 -5 -2 3 12 23 6 243 -10
326 -23 119 -22 120 92 113 52 -4 99 -9 104 -13z m268 -130 c18 -10 58 -34 88
-51 31 -18 59 -33 64 -33 14 0 30 -38 19 -45 -5 -3 -7 -12 -4 -19 4 -10 -15
-15 -78 -19 -77 -6 -125 0 -215 28 -24 8 -31 -12 -35 -98 -2 -55 13 -78 40
-59 72 51 190 95 287 107 l50 6 -25 -20 c-14 -11 -45 -31 -70 -44 -107 -56
-189 -102 -238 -134 -78 -51 -241 -126 -289 -133 l-42 -7 6 51 c7 72 38 192
74 288 17 46 37 103 46 128 24 73 45 113 71 142 l24 26 97 -47 c53 -27 111
-57 130 -67z m1573 -19 c6 -7 -104 -235 -113 -235 -4 0 -9 51 -11 114 -2 63 0
112 5 109 4 -2 7 1 7 6 0 11 102 16 112 6z m-1352 -130 c0 -2 -7 -5 -15 -9 -9
-3 -15 0 -15 9 0 9 6 12 15 9 8 -4 15 -7 15 -9z m-279 -41 c21 -4 39 -10 39
-13 0 -7 -89 -51 -103 -51 -4 0 -7 18 -7 41 0 33 3 40 16 35 9 -3 33 -9 55
-12z m755 -30 l130 -7 42 -81 c22 -45 48 -97 56 -116 8 -19 25 -52 37 -72 13
-21 21 -39 18 -41 -35 -24 -251 -107 -278 -107 -22 0 -55 62 -97 176 -34 96
-60 156 -96 228 l-20 39 39 -6 c21 -4 97 -9 169 -13z m-1072 -335 c-33 -18
-71 -38 -86 -46 -15 -8 -30 -18 -33 -24 -13 -20 -35 -7 -44 29 -6 20 -11 40
-11 45 0 12 58 8 63 -5 3 -10 9 -10 25 -1 18 11 20 10 15 -3 -4 -12 1 -11 29
4 19 11 44 22 54 25 46 11 42 5 -12 -24z m1026 -178 l-55 -49 -11 26 c-30 70
-31 68 48 70 l72 2 -54 -49z"/>
</g>
</svg>
