<?xml version="1.0" standalone="no"?>
<!DOCTYPE svg PUBLIC "-//W3C//DTD SVG 20010904//EN"
 "http://www.w3.org/TR/2001/REC-SVG-20010904/DTD/svg10.dtd">
<svg version="1.0" xmlns="http://www.w3.org/2000/svg"
 width="230.000000pt" height="143.000000pt" viewBox="0 0 230.000000 143.000000"
 preserveAspectRatio="xMidYMid meet">
<metadata>
Created by potrace 1.16, written by Peter Selinger 2001-2019
</metadata>
<g transform="translate(0.000000,143.000000) scale(0.100000,-0.100000)"
fill="#000000" stroke="none">
<path d="M1147 1376 c-8 -6 -29 -32 -47 -58 -19 -28 -41 -48 -52 -48 -28 0
-21 -20 12 -31 56 -20 31 -24 -86 -16 -64 4 -119 5 -123 2 -13 -14 28 -23 124
-30 l103 -7 -64 -106 c-36 -59 -69 -125 -75 -147 -25 -92 -27 -84 -31 118 -2
76 -7 127 -13 127 -11 0 -13 -15 -16 -102 0 -31 2 -61 6 -68 10 -16 -16 -150
-29 -151 -82 -6 -326 12 -386 28 -118 32 -146 41 -184 57 -22 9 -47 14 -57 11
-17 -6 -35 -40 -44 -85 -10 -49 -6 -188 5 -231 17 -61 15 -178 -4 -214 -21
-39 -21 -121 -1 -128 8 -4 23 5 34 19 17 21 31 27 78 30 87 7 189 24 273 44
41 10 113 22 158 26 l84 7 -4 -101 c-3 -55 -9 -107 -15 -114 -15 -18 1 -125
23 -149 9 -10 23 -19 31 -19 14 0 18 46 4 54 -5 3 -11 17 -13 30 -6 28 26 56
89 80 223 84 309 116 316 116 5 0 33 11 63 25 30 14 57 25 60 25 3 0 47 20 97
44 51 24 112 51 137 60 25 8 99 36 164 60 66 25 121 44 122 43 7 -7 -311 -159
-436 -208 -41 -17 -88 -36 -105 -44 -16 -7 -59 -25 -95 -40 -36 -14 -78 -32
-95 -40 -16 -7 -64 -27 -105 -45 -115 -50 -190 -89 -190 -100 0 -19 40 -10 84
20 24 17 62 36 83 44 21 7 58 22 83 34 25 11 61 25 80 32 19 7 67 27 105 45
39 18 108 47 155 65 47 18 121 50 165 70 44 20 118 54 165 74 47 20 92 41 100
47 8 5 22 12 30 15 8 3 33 13 55 24 22 10 50 21 63 25 12 3 22 13 22 21 0 18
1 18 -60 -6 -28 -11 -56 -20 -63 -20 -7 1 35 19 91 41 80 30 112 38 138 33 26
-5 35 -2 40 10 8 21 -13 46 -39 46 -11 0 -52 24 -91 53 -39 30 -88 61 -108 71
-20 9 -40 20 -43 25 -3 5 -30 23 -60 40 -31 17 -83 54 -118 82 -34 27 -84 61
-112 75 -27 14 -80 46 -118 72 -37 26 -83 56 -101 67 -51 31 -194 145 -199
159 -7 19 -44 26 -60 12z m193 -164 c31 -16 95 -57 150 -99 24 -18 51 -33 60
-33 9 0 25 -9 36 -21 18 -20 18 -20 -11 -13 -57 14 -455 197 -455 210 0 3 12
20 27 38 l26 34 71 -52 c39 -28 82 -57 96 -64z m-93 -55 c48 -24 104 -49 123
-57 68 -25 111 -48 101 -55 -7 -4 -7 -12 1 -24 6 -10 8 -26 4 -36 -6 -16 -16
-17 -99 -11 -50 3 -101 7 -112 9 -34 4 -136 60 -156 86 l-20 24 -27 -20 c-26
-19 -27 -24 -30 -119 -2 -110 10 -151 44 -146 10 2 25 12 33 23 21 30 31 23
31 -25 0 -25 5 -48 11 -51 6 -4 7 -14 3 -24 -4 -9 -8 -45 -10 -81 -2 -71 -9
-79 -56 -59 -27 11 -32 10 -44 -5 -7 -10 -17 -50 -23 -89 -6 -40 -16 -87 -22
-105 -8 -25 -8 -37 0 -45 9 -9 20 -3 44 25 30 35 120 92 130 82 2 -2 21 11 42
30 31 28 44 34 74 32 20 -2 78 -7 129 -11 92 -8 110 -2 78 24 -17 14 -12 58
10 83 14 14 14 17 0 25 -13 7 -13 12 -1 38 18 40 55 163 55 185 0 16 43 106
60 123 4 5 70 -23 146 -62 198 -101 247 -131 298 -178 l45 -42 -57 -26 c-59
-28 -193 -80 -297 -117 -33 -11 -72 -27 -87 -34 -14 -8 -48 -21 -75 -30 -26
-9 -79 -31 -118 -49 -82 -38 -189 -80 -358 -140 -67 -24 -155 -58 -196 -75
-41 -16 -75 -29 -77 -27 -2 2 0 17 5 33 4 16 9 63 10 104 1 41 7 80 13 87 6 7
8 18 6 25 -3 7 1 78 8 158 7 80 13 157 13 172 1 15 16 44 36 68 21 25 35 53
35 68 0 15 25 72 55 127 30 54 55 101 55 102 0 12 48 52 62 52 9 1 56 -18 105
-42z m321 -143 c12 -4 22 -12 22 -18 0 -16 -52 -96 -62 -96 -14 0 -9 41 7 57
15 14 11 38 -5 28 -4 -3 -10 4 -13 15 -5 21 8 25 51 14z m102 -4 c8 -5 11 -10
5 -10 -5 0 -17 5 -25 10 -8 5 -10 10 -5 10 6 0 17 -5 25 -10z m-526 -26 c25
-14 46 -27 46 -29 0 -6 -101 -77 -104 -74 -4 5 5 129 9 129 1 0 23 -12 49 -26z
m336 -70 c0 -25 0 -25 -82 -23 -95 1 -184 17 -171 30 4 4 58 10 118 12 61 1
116 4 123 5 7 1 12 -9 12 -24z m-1152 -35 c116 -35 115 -30 13 -82 -51 -26
-94 -47 -96 -47 -2 0 -6 13 -10 30 -8 35 4 120 17 120 5 0 39 -9 76 -21z m912
-19 c0 -10 -50 -43 -56 -37 -2 2 -1 18 2 35 6 28 8 30 30 20 13 -6 24 -14 24
-18z m246 -15 c9 -22 6 -24 -77 -35 -77 -11 -184 0 -144 14 11 4 31 13 45 19
13 7 57 13 97 15 59 2 75 -1 79 -13z m-616 -35 c0 -8 -5 -33 -11 -55 -5 -22
-16 -97 -24 -168 -8 -70 -17 -132 -21 -138 -12 -20 -551 4 -572 26 -4 4 -7 28
-7 55 0 43 2 47 18 39 18 -10 19 -7 20 40 0 42 82 152 140 189 l52 33 202 -3
c173 -3 203 -5 203 -18z m395 -40 c-8 -14 -66 -43 -72 -36 -3 2 -2 14 2 25 5
16 15 21 41 21 21 0 33 -4 29 -10z m215 -15 c0 -21 -6 -26 -42 -32 -24 -4 -53
-6 -65 -6 -13 1 -42 2 -65 2 l-43 2 30 24 c28 23 49 27 153 33 28 2 32 -1 32
-23z m-1194 -50 c-54 -84 -49 -79 -57 -59 -14 36 -9 50 24 67 45 22 52 21 33
-8z m934 -32 c-28 -19 -48 -12 -26 10 9 9 23 14 32 10 12 -4 11 -8 -6 -20z
m243 -7 c-5 -22 -11 -25 -62 -28 -73 -4 -141 1 -141 11 0 11 66 30 115 34 96
8 93 9 88 -17z m-224 -77 c-31 -17 -69 -25 -69 -15 0 26 16 36 57 34 l45 -1
-33 -18z m216 1 c2 -4 2 -16 -1 -27 -5 -18 -10 -19 -62 -11 -31 5 -74 8 -94 6
-21 -2 -38 0 -38 4 0 5 6 8 14 8 7 0 27 7 42 15 28 15 131 19 139 5z m-318
-72 c7 -6 24 -8 38 -6 14 3 25 4 25 3 0 -5 -143 -76 -145 -73 0 2 3 26 8 55 8
51 9 52 35 42 14 -6 32 -15 39 -21z m-686 -97 l134 -6 -90 -17 c-49 -9 -126
-20 -170 -23 -44 -3 -89 -7 -100 -9 -11 -2 -14 -1 -7 1 6 3 12 20 12 39 l0 35
43 -6 c24 -4 104 -10 178 -14z"/>
</g>
</svg>
