<?xml version="1.0" standalone="no"?>
<!DOCTYPE svg PUBLIC "-//W3C//DTD SVG 20010904//EN"
 "http://www.w3.org/TR/2001/REC-SVG-20010904/DTD/svg10.dtd">
<svg version="1.0" xmlns="http://www.w3.org/2000/svg"
 width="280.000000pt" height="150.000000pt" viewBox="0 0 280.000000 150.000000"
 preserveAspectRatio="xMidYMid meet">
<metadata>
Created by potrace 1.16, written by Peter Selinger 2001-2019
</metadata>
<g transform="translate(0.000000,150.000000) scale(0.100000,-0.100000)"
fill="#000000" stroke="none">
<path d="M975 1329 c-16 -4 -39 -6 -51 -3 -12 3 -25 0 -29 -6 -4 -6 -6 -76 -6
-156 l2 -144 -240 0 c-222 0 -241 1 -250 18 -9 16 -22 18 -108 16 -77 -1 -100
-5 -107 -18 -8 -11 -6 -19 7 -28 16 -12 18 -35 19 -218 1 -113 -1 -250 -4
-304 -7 -112 -3 -133 18 -115 9 7 14 31 14 64 l0 52 58 16 c94 26 271 55 372
62 84 5 128 12 193 31 14 4 17 -1 17 -34 0 -21 -5 -76 -11 -121 -9 -65 -9 -88
1 -107 9 -16 11 -44 7 -88 -4 -46 -3 -66 6 -69 17 -6 77 24 77 38 0 6 15 22
33 35 38 29 262 156 362 206 39 19 84 43 100 52 41 23 209 20 450 -8 81 -9
307 -22 425 -25 119 -2 109 6 107 -82 -2 -72 0 -78 18 -78 17 0 21 11 32 100
7 55 15 145 18 200 7 125 14 176 24 190 4 5 18 39 31 75 30 84 74 173 94 189
28 23 20 44 -14 38 -23 -5 -30 -3 -30 9 0 13 -7 15 -37 9 -21 -4 -39 -10 -41
-15 -2 -4 -11 -6 -22 -3 -29 8 -44 -30 -30 -73 12 -34 9 -208 -5 -324 -3 -25
-7 -61 -9 -80 -2 -19 -7 -55 -11 -79 l-8 -44 -146 7 c-264 12 -473 25 -686 45
l-70 6 60 31 c137 72 161 86 180 104 12 11 35 20 53 20 25 0 32 4 32 19 0 10
-10 25 -22 34 -13 8 -36 27 -53 41 -16 15 -46 36 -65 46 -47 26 -88 60 -72 60
23 0 12 16 -28 39 -22 12 -40 25 -40 28 0 3 75 2 168 -2 296 -15 689 -21 698
-12 14 13 -10 27 -45 27 -21 0 -52 7 -67 15 -18 9 -57 15 -104 15 -41 0 -129
5 -195 10 -66 6 -160 12 -210 15 -49 3 -110 7 -135 10 -45 5 -60 8 -159 25
-74 13 -80 12 -53 -9 12 -11 22 -24 22 -30 0 -6 20 -11 48 -11 26 0 79 -3 117
-7 l70 -7 -50 -7 c-27 -4 -75 -8 -105 -8 -59 -1 -47 -7 -228 114 -45 30 -85
55 -88 55 -4 0 -36 22 -73 48 -36 27 -77 54 -89 61 -13 7 -32 21 -43 32 -20
20 -46 23 -94 8z m-12 -75 c-2 -7 4 -18 14 -25 18 -11 19 -15 6 -78 -7 -36
-16 -83 -20 -104 -6 -41 -13 -49 -30 -39 -11 7 -15 82 -14 224 1 57 1 57 25
47 14 -7 22 -17 19 -25z m204 -50 c53 -23 276 -165 269 -171 -3 -3 -60 26
-106 56 -37 23 -219 114 -263 130 -19 7 -24 15 -20 30 l5 21 29 -20 c15 -12
54 -32 86 -46z m-7 30 c0 -2 -9 0 -20 6 -11 6 -20 13 -20 16 0 2 9 0 20 -6 11
-6 20 -13 20 -16z m-92 -44 c19 -11 128 -61 152 -69 22 -8 310 -172 310 -177
0 -2 -8 -1 -17 3 -10 3 -1 -6 19 -21 20 -14 40 -26 44 -26 18 0 143 -65 177
-92 35 -28 37 -32 22 -48 -11 -12 -13 -20 -5 -25 18 -11 3 -22 -98 -71 -53
-26 -100 -52 -103 -57 -3 -5 -10 -8 -15 -8 -15 1 -74 -19 -184 -64 -58 -24
-143 -58 -190 -75 -47 -18 -116 -45 -155 -60 -99 -40 -105 -41 -111 -26 -6 15
12 326 21 366 3 14 10 52 15 85 5 33 17 87 25 120 9 33 18 80 21 105 7 63 33
150 44 150 6 0 18 -4 28 -10z m1528 -145 c-2 -5 -14 -35 -26 -65 -48 -121 -46
-118 -44 -69 1 24 -2 67 -6 96 l-6 52 43 -1 c25 -2 42 -7 39 -13z m-2265 -43
c3 -4 -13 -54 -36 -111 -23 -57 -45 -99 -48 -95 -3 5 -6 57 -6 115 l-1 106 42
-4 c24 -2 46 -7 49 -11z m1557 11 c-10 -2 -26 -2 -35 0 -10 3 -2 5 17 5 19 0
27 -2 18 -5z m49 -9 c-3 -3 -12 -4 -19 -1 -8 3 -5 6 6 6 11 1 17 -2 13 -5z
m-1301 -27 c3 -2 -19 -7 -48 -11 -48 -6 -196 -38 -241 -52 -17 -5 -17 -3 2 35
l21 40 131 -4 c72 -2 133 -6 135 -8z m300 -76 c-13 -83 -26 -102 -26 -39 0 63
10 108 24 108 9 0 10 -17 2 -69z m-59 45 c7 -7 4 -299 -4 -306 -4 -5 -98 -11
-208 -14 -110 -3 -248 -8 -307 -12 -123 -8 -116 -15 -94 86 22 106 36 148 52
164 18 18 129 52 199 62 28 3 54 8 59 11 26 16 288 24 303 9z m-304 -358 c-2
-5 -17 -8 -32 -8 -24 0 -196 -36 -268 -56 -20 -6 -23 -3 -23 25 0 29 2 31 38
31 44 1 176 10 178 13 6 6 111 1 107 -5z m873 -53 c-11 -8 -25 -15 -30 -15 -6
1 0 7 14 15 32 19 40 18 16 0z m-46 -19 c0 -5 -26 -19 -237 -131 -45 -24 -117
-67 -160 -95 l-78 -52 -6 34 c-4 24 0 39 15 56 11 12 23 22 28 22 5 0 33 10
61 23 29 13 72 30 97 39 25 9 97 36 160 61 134 53 120 48 120 43z"/>
<path d="M1465 960 c3 -5 11 -10 16 -10 6 0 7 5 4 10 -3 6 -11 10 -16 10 -6 0
-7 -4 -4 -10z"/>
</g>
</svg>
