<?xml version="1.0" standalone="no"?>
<!DOCTYPE svg PUBLIC "-//W3C//DTD SVG 20010904//EN"
 "http://www.w3.org/TR/2001/REC-SVG-20010904/DTD/svg10.dtd">
<svg version="1.0" xmlns="http://www.w3.org/2000/svg"
 width="240.000000pt" height="129.000000pt" viewBox="0 0 240.000000 129.000000"
 preserveAspectRatio="xMidYMid meet">
<metadata>
Created by potrace 1.16, written by Peter Selinger 2001-2019
</metadata>
<g transform="translate(0.000000,129.000000) scale(0.100000,-0.100000)"
fill="#000000" stroke="none">
<path d="M1103 1180 l-16 -40 -78 0 c-89 0 -164 -23 -155 -47 3 -8 2 -22 -3
-32 -7 -13 -5 -22 8 -32 14 -13 17 -31 15 -120 l-2 -104 -138 2 c-77 0 -182 3
-234 6 -63 4 -100 2 -108 -6 -21 -17 10 -25 90 -26 37 -1 70 -5 73 -11 3 -5 3
-10 -2 -10 -52 -1 -151 -24 -173 -40 -16 -11 -31 -20 -34 -20 -11 0 -6 46 6
58 9 9 8 17 -2 37 -15 28 -30 31 -49 13 -7 -8 -38 -13 -76 -13 -68 0 -97 -14
-77 -37 6 -9 9 -85 8 -223 -3 -175 -1 -213 12 -227 21 -25 41 -22 72 7 16 15
64 36 130 56 110 32 108 32 350 24 52 -2 109 -4 125 -4 l30 -1 -3 -87 c-5
-120 4 -170 35 -199 21 -20 29 -22 46 -12 12 6 30 21 40 34 10 13 45 40 78 60
70 42 78 38 79 -36 1 -54 32 -135 51 -135 10 0 13 12 11 46 -2 26 1 50 7 54 6
3 11 23 11 44 0 23 8 48 20 64 11 14 20 33 20 43 0 10 15 31 32 46 36 31 123
78 143 78 7 0 15 6 18 14 3 8 23 20 44 26 21 7 61 26 90 41 28 16 75 38 104
49 29 12 70 35 92 52 35 28 52 33 146 44 58 7 138 13 176 14 89 1 197 21 203
38 2 7 -7 12 -25 13 -15 0 -48 2 -73 4 -25 1 -94 5 -155 9 -60 3 -135 9 -165
13 -30 3 -63 7 -74 8 -16 1 -77 44 -176 123 -15 12 -31 22 -35 22 -8 0 -72 49
-131 99 -23 20 -68 57 -100 83 -32 25 -85 72 -118 103 -42 41 -63 54 -77 50
-23 -8 -25 -35 -3 -35 8 0 21 -6 28 -12 42 -41 97 -89 152 -133 34 -27 85 -68
112 -90 27 -22 59 -47 72 -55 55 -37 83 -60 74 -60 -6 0 -14 4 -20 9 -20 21
-408 212 -459 227 -55 16 -63 22 -46 40 15 15 61 106 61 120 0 8 -9 14 -21 14
-15 0 -25 -11 -36 -40z m-70 -86 c3 -3 -7 -43 -23 -88 -16 -44 -36 -107 -45
-138 -10 -37 -21 -58 -30 -58 -19 0 -23 22 -29 162 l-4 117 51 4 c29 2 57 4
63 5 6 1 13 -1 17 -4z m243 -135 c57 -35 185 -98 280 -139 22 -10 47 -24 55
-32 8 -7 25 -19 39 -26 25 -12 25 -12 -5 -6 -16 3 -54 8 -84 10 -30 2 -58 10
-63 16 -15 26 -36 -16 -52 -107 -20 -111 -20 -124 -1 -131 15 -6 127 35 133
49 2 4 10 3 18 -3 9 -8 23 -9 46 -2 35 11 148 23 148 17 0 -9 -356 -177 -396
-187 -24 -7 -41 -15 -39 -18 2 -3 -4 -6 -13 -7 -9 -1 -27 -4 -39 -8 -26 -8
-31 11 -13 45 6 12 6 21 1 25 -12 7 20 104 55 162 14 24 23 47 20 51 -2 4 -48
5 -103 2 -108 -6 -123 -4 -123 16 0 16 -9 18 -29 5 -17 -11 -15 -132 3 -201 3
-14 8 -58 9 -99 l4 -74 -41 -16 c-23 -8 -65 -28 -95 -43 -30 -16 -56 -26 -58
-24 -7 7 -5 114 2 137 4 10 13 19 21 19 19 0 18 26 -1 34 -25 9 -18 102 26
336 12 60 44 180 61 222 5 15 22 31 37 36 36 12 121 -13 197 -59z m-402 -342
c-2 -84 -4 -157 -4 -163 0 -19 -154 -26 -320 -14 -85 6 -175 11 -200 11 -25 0
-57 5 -72 10 -17 7 -33 7 -44 1 -14 -8 -8 -13 34 -26 29 -10 61 -15 72 -11 25
8 82 -3 75 -15 -3 -4 -28 -11 -57 -14 -29 -4 -71 -16 -93 -26 -37 -17 -40 -17
-46 -2 -10 26 0 162 13 186 7 11 13 23 13 26 1 3 10 22 20 42 15 31 22 36 44
32 17 -4 38 2 61 18 45 30 83 45 140 54 25 3 54 11 65 17 24 14 109 23 222 25
l82 1 -5 -152z m53 106 c-3 -10 -5 -2 -5 17 0 19 2 27 5 18 2 -10 2 -26 0 -35z
m-639 20 c-21 -47 -70 -134 -74 -131 -2 3 -6 35 -8 71 l-4 67 45 0 c24 0 43
-3 41 -7z m1372 -23 c55 -22 164 -39 300 -45 47 -3 99 -5 115 -6 54 -3 -61
-18 -215 -28 -80 -6 -154 -12 -165 -15 -11 -2 -45 -7 -75 -11 -92 -11 -104
-13 -122 -20 -22 -9 -23 3 -7 89 l12 62 66 -8 c36 -4 77 -12 91 -18z m-743
-42 c-3 -8 -6 -5 -6 6 -1 11 2 17 5 13 3 -3 4 -12 1 -19z m393 -46 c0 -4 -4
-12 -9 -17 -14 -15 -90 -203 -97 -242 -11 -58 -29 -32 -30 43 -1 38 -7 96 -13
128 -16 85 -16 84 32 89 82 7 117 7 117 -1z m40 -256 c0 -2 -7 -7 -16 -10 -8
-3 -12 -2 -9 4 6 10 25 14 25 6z m-138 -78 c-6 -6 -16 -7 -22 -3 -9 6 -9 9 1
16 17 10 34 0 21 -13z m-72 -26 c0 -13 -24 -31 -76 -58 -42 -21 -84 -49 -94
-61 -15 -20 -19 -21 -24 -7 -11 30 -6 62 12 68 9 3 31 14 47 24 35 22 105 51
123 51 6 1 12 -7 12 -17z m61 -43 c-5 -13 -10 -19 -10 -12 -1 15 10 45 15 40
3 -2 0 -15 -5 -28z"/>
</g>
</svg>
