<?xml version="1.0" standalone="no"?>
<!DOCTYPE svg PUBLIC "-//W3C//DTD SVG 20010904//EN"
 "http://www.w3.org/TR/2001/REC-SVG-20010904/DTD/svg10.dtd">
<svg version="1.0" xmlns="http://www.w3.org/2000/svg"
 width="286.000000pt" height="110.000000pt" viewBox="0 0 286.000000 110.000000"
 preserveAspectRatio="xMidYMid meet">
<metadata>
Created by potrace 1.16, written by Peter Selinger 2001-2019
</metadata>
<g transform="translate(0.000000,110.000000) scale(0.100000,-0.100000)"
fill="#000000" stroke="none">
<path d="M2208 1004 c-5 -4 -8 -45 -8 -91 l0 -83 -27 -1 c-39 -2 -283 3 -313
6 -14 2 -44 4 -67 4 -32 1 -43 5 -43 17 0 31 -35 9 -44 -28 l-9 -36 -54 41
c-105 82 -136 113 -137 138 -2 43 -66 33 -66 -11 0 -13 -20 -22 -87 -40 -49
-13 -133 -44 -188 -70 -55 -26 -128 -57 -163 -70 -34 -12 -67 -31 -73 -42 -9
-17 -18 -18 -92 -13 -45 3 -163 8 -262 10 -99 3 -198 7 -220 11 -63 8 -84 -2
-106 -51 -28 -63 -47 -252 -29 -294 19 -47 70 -67 70 -28 0 20 58 38 140 44
41 3 84 10 94 15 22 12 265 35 314 30 l32 -3 0 -123 c0 -124 9 -157 35 -133 8
7 11 26 7 49 -2 20 -1 62 3 94 l7 56 39 -5 c23 -3 63 -21 92 -41 29 -20 56
-36 62 -36 33 0 166 -80 219 -132 70 -69 111 -82 111 -35 -1 15 3 27 8 27 4 0
24 16 44 35 20 19 61 52 92 72 31 20 68 47 82 60 22 20 31 23 47 14 26 -14 55
-14 47 0 -5 7 5 8 32 3 21 -4 74 -8 118 -9 185 -4 206 -5 200 -15 -7 -11 -260
-6 -310 5 -29 7 -29 7 -10 -9 19 -16 18 -17 -30 -13 -27 3 -57 8 -66 11 -12 5
-18 1 -22 -15 -10 -37 1 -41 87 -35 44 3 142 8 218 12 l136 7 -14 -73 c-7 -40
-11 -77 -8 -81 3 -5 16 -9 30 -9 17 0 24 6 24 19 0 11 -5 21 -12 23 -9 3 -9
18 0 63 7 33 16 63 20 67 5 5 65 11 133 14 68 3 139 7 157 11 l33 5 -7 -53
c-8 -59 -8 -61 -6 -101 2 -20 7 -28 21 -28 21 0 31 40 31 122 0 34 5 50 18 57
14 9 14 12 3 20 -11 7 -10 18 4 67 10 33 18 64 19 69 2 6 10 27 19 49 9 21 17
40 17 43 0 9 29 33 40 33 7 0 9 8 5 19 -4 14 3 28 24 47 17 15 31 33 31 40 0
7 7 29 16 48 15 31 15 36 2 50 -20 20 -219 26 -242 7 -15 -13 -181 -19 -193
-8 -8 8 35 103 54 119 26 21 14 36 -34 40 -27 3 -56 1 -65 -4 -13 -6 -17 -3
-20 13 -2 11 -6 17 -10 13z m72 -64 c12 0 -35 -113 -49 -118 -7 -2 -11 17 -11
56 0 60 9 75 38 66 8 -2 17 -4 22 -4z m-701 -92 c46 -32 82 -58 79 -58 -8 0
-117 48 -150 66 -14 8 -33 14 -42 14 -13 0 -14 4 -4 25 6 13 16 21 22 18 6 -4
49 -33 95 -65z m-229 38 c0 -10 -94 -57 -175 -86 -49 -18 -103 -42 -118 -52
-15 -11 -49 -22 -75 -24 -59 -6 -44 4 63 42 44 15 109 43 145 62 36 20 85 41
110 48 25 7 46 13 48 13 1 1 2 -1 2 -3z m36 -35 c-13 -24 -13 -31 -2 -40 10
-8 17 -6 31 9 10 11 26 20 36 20 17 0 115 -40 241 -99 36 -17 70 -31 74 -31 4
0 52 -25 106 -56 90 -51 116 -74 87 -74 -6 0 -27 -14 -46 -30 -19 -17 -65 -46
-104 -65 -38 -20 -67 -39 -65 -44 3 -5 -13 -11 -35 -15 -22 -4 -50 -13 -62
-21 -28 -18 -145 -55 -176 -55 -47 0 -105 -25 -137 -58 -33 -34 -69 -40 -69
-13 0 17 -89 72 -161 100 -40 15 -147 72 -162 86 -2 1 6 41 17 88 12 46 21 91
21 99 0 21 55 66 115 94 53 25 80 31 70 14 -13 -21 37 -9 60 14 32 32 83 68
125 88 49 23 53 22 36 -11z m673 -41 c120 0 52 -13 -111 -20 -90 -4 -171 -11
-180 -15 -14 -5 -18 -2 -18 13 0 29 12 32 135 27 61 -2 139 -5 174 -5z m455
-112 c-2 -57 -6 -146 -8 -198 -2 -53 -7 -106 -11 -119 l-7 -24 -157 7 c-86 4
-160 11 -164 15 -5 5 -2 37 7 72 8 35 18 81 21 101 9 66 24 124 44 171 11 25
18 47 16 49 -7 7 195 29 205 23 5 -3 18 -2 27 4 10 5 21 8 24 5 4 -2 5 -50 3
-106z m126 105 c0 -11 -54 -161 -67 -187 -9 -16 -21 -48 -28 -70 l-14 -41 5
50 c3 28 6 80 7 117 1 38 6 68 12 68 5 0 4 5 -3 12 -16 16 -15 45 1 51 16 5
87 5 87 0z m-459 -50 c1 -10 1 -21 1 -24 -1 -4 -4 -30 -7 -60 -4 -29 -8 -56
-10 -60 -3 -3 -7 -28 -10 -55 -3 -27 -8 -56 -10 -64 -2 -8 -7 -35 -10 -60 -4
-24 -9 -48 -11 -52 -8 -12 -354 8 -367 21 -4 4 19 22 53 40 33 18 60 38 60 45
0 6 36 29 80 50 44 21 80 41 80 44 -1 16 -19 34 -28 28 -5 -3 -32 9 -58 28
-27 19 -70 47 -96 62 -78 44 -67 51 101 59 63 2 116 7 119 10 3 3 29 5 59 5
43 0 53 -3 54 -17z m35 -9 c-4 -9 -9 -15 -11 -12 -3 3 -3 13 1 22 4 9 9 15 11
12 3 -3 3 -13 -1 -22z m-1717 -70 c1 -1 -14 -5 -35 -9 -22 -3 -64 -13 -94 -23
-30 -9 -60 -18 -67 -20 -7 -2 -10 5 -6 20 11 49 7 48 105 42 51 -4 95 -8 97
-10z m361 -78 c3 -48 1 -80 -5 -81 -48 -14 -559 -25 -571 -12 -2 2 -1 18 2 36
9 43 48 67 138 81 40 7 80 20 91 30 25 23 41 25 205 25 l135 0 5 -79z m82 69
c6 -6 -16 -110 -30 -145 l-11 -25 -1 25 c-2 23 -2 142 -1 148 2 4 38 2 43 -3z
m-627 -215 c-3 -6 4 -10 17 -10 17 -1 12 -5 -17 -15 -49 -18 -45 -18 -45 -2 0
10 20 24 48 36 2 0 0 -3 -3 -9z m1280 -118 c-6 -4 -37 -25 -70 -47 -33 -21
-70 -48 -82 -59 l-23 -19 -25 23 c-23 21 -23 25 -10 40 18 20 82 41 140 47 21
3 46 8 55 13 19 12 27 13 15 2z"/>
<path d="M1391 733 c-15 -13 -21 -31 -23 -65 l-1 -48 -133 0 c-137 0 -166 -9
-128 -37 14 -11 42 -14 114 -11 132 6 144 2 144 -47 l1 -40 -110 -1 c-103 -1
-165 -13 -165 -31 0 -5 59 -10 132 -11 72 -2 135 -5 140 -8 4 -3 8 -21 8 -40
0 -22 5 -34 14 -34 15 0 26 21 26 50 0 10 7 21 16 24 12 5 15 14 10 36 -7 36
26 147 53 182 33 41 31 61 -7 69 -19 4 -39 12 -45 18 -15 15 -21 14 -46 -6z
m39 -80 c0 -5 -5 -15 -10 -23 -8 -12 -10 -11 -10 8 0 12 5 22 10 22 6 0 10 -3
10 -7z"/>
</g>
</svg>
