<?xml version="1.0" standalone="no"?>
<!DOCTYPE svg PUBLIC "-//W3C//DTD SVG 20010904//EN"
 "http://www.w3.org/TR/2001/REC-SVG-20010904/DTD/svg10.dtd">
<svg version="1.0" xmlns="http://www.w3.org/2000/svg"
 width="214.000000pt" height="122.000000pt" viewBox="0 0 214.000000 122.000000"
 preserveAspectRatio="xMidYMid meet">
<metadata>
Created by potrace 1.16, written by Peter Selinger 2001-2019
</metadata>
<g transform="translate(0.000000,122.000000) scale(0.100000,-0.100000)"
fill="#000000" stroke="none">
<path d="M1102 1068 c-7 -7 -39 -11 -77 -10 -37 1 -75 -3 -86 -9 -20 -10 -20
-10 1 -27 16 -14 21 -32 25 -97 3 -44 2 -114 -1 -156 l-6 -76 -97 0 c-53 0
-142 -1 -197 -2 -80 -2 -117 2 -173 19 -61 19 -76 20 -101 10 -44 -18 -51 -32
-35 -62 15 -30 9 -108 -9 -120 -8 -6 -8 -10 0 -15 26 -18 36 -88 35 -238 0
-85 -1 -157 -2 -162 -8 -45 19 -56 61 -23 14 11 29 20 34 20 5 0 17 6 25 13
24 20 94 38 153 38 46 1 223 -13 473 -37 39 -4 139 -8 223 -9 99 -2 157 -7
166 -14 8 -7 20 -11 28 -10 26 3 38 -1 38 -15 0 -8 8 -17 17 -20 16 -7 33 8
33 30 0 7 9 14 20 17 26 7 26 27 0 34 -16 4 -19 12 -15 47 2 22 7 74 10 115 9
125 32 230 80 366 26 72 52 148 60 170 24 72 43 110 64 129 38 35 27 49 -34
44 -30 -3 -55 -1 -55 4 0 4 -91 8 -202 8 -197 0 -386 18 -427 39 -12 7 -22 6
-29 -1z m283 -53 c257 -7 300 -11 285 -30 -6 -7 -8 -24 -5 -38 4 -14 2 -49 -4
-79 -6 -29 -13 -107 -16 -173 -5 -104 -28 -255 -41 -277 -3 -4 -12 -49 -20
-99 -10 -64 -11 -96 -4 -103 5 -5 10 -21 10 -36 l0 -25 -148 -2 c-81 -1 -176
2 -212 7 -61 9 -283 32 -430 45 -85 8 -227 31 -282 45 -54 15 -88 45 -88 80 0
40 46 127 92 172 46 45 41 63 -12 48 -19 -6 -46 -10 -60 -10 -48 1 80 57 149
65 36 4 58 11 51 15 -28 17 21 25 175 28 88 2 163 7 168 11 4 4 9 50 11 102 5
112 25 165 65 174 14 3 67 9 116 14 50 5 103 14 118 20 16 6 44 11 63 11 19 0
34 5 34 10 0 13 -23 13 -116 -4 -44 -8 -112 -17 -153 -21 l-74 -7 15 24 c8 13
18 29 22 36 6 10 20 12 45 8 20 -3 131 -8 246 -11z m-345 -8 c0 -8 -32 -68
-35 -65 -1 2 -5 18 -8 36 -6 29 -4 32 18 32 14 0 25 -2 25 -3z m760 -35 c0 -4
-4 -12 -9 -18 -5 -5 -21 -40 -35 -79 -15 -38 -31 -79 -36 -90 -5 -11 -13 -33
-19 -50 -8 -24 -9 -15 -6 45 3 41 6 103 7 137 l3 63 48 0 c26 0 47 -4 47 -8z
m-1329 -308 c17 -8 54 -15 82 -16 29 0 48 -2 42 -4 -5 -2 -41 -13 -80 -24 -38
-12 -78 -24 -87 -27 -15 -4 -18 1 -18 29 0 28 14 58 27 58 2 0 18 -7 34 -16z
m-13 -168 c6 -7 -26 -56 -37 -56 -9 0 -21 57 -13 64 5 5 43 -1 50 -8z m56
-291 c26 -4 45 -10 42 -13 -5 -4 -117 -52 -123 -52 -2 0 -3 15 -3 33 0 37 8
50 26 43 6 -2 32 -8 58 -11z"/>
</g>
</svg>
