<?xml version="1.0" standalone="no"?>
<!DOCTYPE svg PUBLIC "-//W3C//DTD SVG 20010904//EN"
 "http://www.w3.org/TR/2001/REC-SVG-20010904/DTD/svg10.dtd">
<svg version="1.0" xmlns="http://www.w3.org/2000/svg"
 width="94.000000pt" height="109.000000pt" viewBox="0 0 94.000000 109.000000"
 preserveAspectRatio="xMidYMid meet">
<metadata>
Created by potrace 1.16, written by Peter Selinger 2001-2019
</metadata>
<g transform="translate(0.000000,109.000000) scale(0.100000,-0.100000)"
fill="#000000" stroke="none">
<path d="M248 993 c-22 -5 -23 -22 -3 -28 8 -3 22 -7 31 -10 13 -4 14 -8 5
-19 -20 -24 -30 -74 -31 -159 -1 -45 -5 -109 -10 -142 -5 -33 -11 -130 -15
-215 -3 -85 -13 -192 -21 -238 -10 -62 -11 -89 -3 -104 8 -14 8 -23 0 -31 -33
-33 14 -36 95 -6 94 36 309 145 345 177 19 16 60 44 91 61 78 44 82 50 75 124
-3 34 -1 103 3 152 7 79 6 93 -10 110 -10 11 -19 27 -22 35 -5 17 -101 80
-175 115 -29 14 -53 29 -53 35 0 12 -91 70 -150 95 -25 10 -64 27 -87 37 -23
10 -43 17 -45 17 -2 -1 -11 -3 -20 -6z m138 -89 c21 -9 62 -31 91 -50 44 -28
52 -37 44 -52 -8 -15 -20 -122 -37 -337 -2 -33 -10 -103 -16 -155 -6 -52 -11
-111 -10 -131 1 -40 8 -35 -158 -99 l-46 -17 -2 50 c-1 27 3 67 9 89 11 42 19
101 45 348 19 170 20 191 23 298 0 39 5 72 10 72 5 0 26 -7 47 -16z m284 -171
c78 -51 86 -66 77 -144 -4 -35 -3 -49 6 -49 8 0 8 -3 -1 -9 -15 -9 -19 -105
-8 -158 6 -25 0 -34 -56 -84 -72 -64 -140 -109 -164 -109 -14 0 -16 7 -10 48
19 138 46 407 48 479 3 97 0 97 108 26z"/>
</g>
</svg>
