<?xml version="1.0" standalone="no"?>
<!DOCTYPE svg PUBLIC "-//W3C//DTD SVG 20010904//EN"
 "http://www.w3.org/TR/2001/REC-SVG-20010904/DTD/svg10.dtd">
<svg version="1.0" xmlns="http://www.w3.org/2000/svg"
 width="245.000000pt" height="110.000000pt" viewBox="0 0 245.000000 110.000000"
 preserveAspectRatio="xMidYMid meet">
<metadata>
Created by potrace 1.16, written by Peter Selinger 2001-2019
</metadata>
<g transform="translate(0.000000,110.000000) scale(0.100000,-0.100000)"
fill="#000000" stroke="none">
<path d="M2137 1074 c-1 -2 -131 -8 -287 -14 -157 -5 -301 -12 -320 -15 -19
-2 -88 -6 -153 -9 -65 -3 -122 -8 -125 -10 -4 -2 -41 -6 -82 -10 -273 -20
-246 -21 -271 8 -39 45 -47 35 -48 -66 -1 -51 -5 -118 -11 -148 -21 -126 -32
-177 -46 -221 -8 -25 -14 -54 -13 -65 5 -47 2 -49 -73 -54 -223 -13 -508 -1
-536 22 -10 8 -17 7 -28 -4 -16 -16 -18 -30 -14 -108 1 -25 -3 -76 -10 -115
-22 -138 -26 -185 -17 -194 13 -13 37 -2 37 16 0 8 4 12 10 8 5 -3 217 -8 472
-11 512 -6 631 -6 823 2 72 3 177 7 235 9 58 2 155 6 215 10 61 3 160 1 220
-5 192 -18 170 -22 167 30 -1 25 -3 238 -5 475 -2 359 0 432 12 441 28 22 1
33 -74 32 -42 -1 -77 -3 -78 -4z m87 -45 c6 -6 8 -396 2 -469 -3 -25 -5 -125
-6 -222 l-2 -178 -46 -2 c-26 0 -101 -2 -167 -2 -66 -1 -219 -7 -340 -15 -131
-8 -347 -12 -535 -10 -618 6 -959 2 -975 -11 -20 -16 -20 4 0 88 8 34 18 101
22 149 l6 86 76 -8 c122 -12 168 -13 316 -3 77 5 172 9 212 10 53 0 73 4 77
15 4 9 -1 17 -14 20 -23 6 -17 23 9 23 10 0 27 12 37 27 9 15 38 49 62 75 l45
48 24 -21 c12 -13 23 -28 23 -34 0 -6 -25 -39 -55 -72 -52 -58 -66 -83 -46
-83 5 0 37 30 70 67 l61 67 30 -29 c16 -16 32 -37 36 -47 3 -10 25 -28 48 -39
34 -16 48 -18 70 -9 52 19 55 16 49 -55 -5 -61 -4 -65 15 -65 20 0 21 4 15 65
-7 72 -9 69 70 84 l48 9 -7 -59 c-5 -49 -3 -63 11 -79 18 -20 45 -17 45 6 0 8
15 31 33 51 19 21 45 55 59 75 l25 38 21 -25 21 -24 -30 -40 c-16 -23 -29 -44
-29 -47 0 -3 -19 -28 -41 -56 -31 -36 -39 -52 -31 -60 14 -14 45 17 85 83 15
24 34 53 42 64 16 20 17 19 43 -13 15 -18 35 -32 45 -32 29 0 32 28 4 54 -34
32 -40 57 -22 97 33 75 57 85 68 29 4 -18 13 -30 22 -30 26 0 28 27 5 74 l-21
45 21 42 c12 23 30 51 41 62 10 12 19 24 19 28 0 4 12 21 26 38 16 19 24 38
20 48 -5 13 -11 10 -31 -18 -13 -19 -28 -38 -32 -44 -5 -5 -24 -35 -42 -65
-18 -30 -35 -57 -37 -59 -4 -5 -43 41 -44 51 0 9 72 114 105 152 26 31 33 60
13 54 -12 -4 -108 -122 -127 -157 -8 -13 -12 -12 -31 9 -11 14 -30 44 -40 68
-19 42 -33 52 -45 32 -6 -10 -70 -40 -86 -40 -4 0 -5 32 -2 70 5 61 4 70 -11
70 -9 0 -16 -3 -17 -7 0 -5 -2 -19 -4 -33 -2 -14 -4 -48 -6 -76 -2 -50 -3 -52
-46 -73 -24 -11 -46 -21 -50 -21 -3 0 -3 38 0 85 5 67 3 85 -7 85 -17 0 -28
-56 -27 -132 0 -55 0 -57 -29 -63 -19 -4 -37 -1 -55 11 -29 19 -30 16 39 92
21 22 27 35 20 42 -7 7 -26 -5 -58 -40 -39 -41 -50 -49 -62 -39 -8 6 -14 15
-14 20 0 5 30 41 68 80 37 40 66 75 65 80 -3 8 65 20 102 18 30 -1 386 12 500
20 125 8 271 8 279 0z m-954 -49 c-16 -31 -83 -100 -95 -100 -7 0 -17 11 -23
25 -7 14 -19 28 -27 31 -8 4 -12 10 -9 15 3 5 -2 6 -10 3 -18 -7 -22 -64 -6
-64 6 0 15 -11 22 -24 9 -22 6 -31 -37 -80 -26 -31 -52 -56 -58 -56 -6 0 -23
11 -37 25 -23 22 -29 24 -39 11 -14 -17 0 -52 28 -72 13 -10 6 -21 -43 -72
-32 -33 -65 -70 -73 -81 -32 -46 -37 -8 -14 89 24 95 51 255 51 295 l0 42 83
7 c196 16 222 19 226 22 2 2 19 4 38 4 31 0 33 -2 23 -20z m361 -165 c1 -5 16
-29 35 -52 19 -23 34 -45 34 -50 0 -4 -22 -43 -50 -85 -35 -56 -58 -81 -82
-91 -31 -13 -72 -12 -64 2 4 7 11 63 22 179 7 71 8 74 43 92 38 19 62 21 62 5z
m-446 -34 c15 -29 14 -30 -37 -91 l-51 -62 -25 25 -25 25 34 39 c34 39 82 90
86 92 1 1 9 -12 18 -28z m302 -98 c-11 -147 -15 -158 -51 -171 -18 -7 -45 -12
-60 -12 -27 0 -28 2 -22 33 4 17 10 52 13 77 3 25 12 54 19 65 8 11 14 27 14
36 0 15 57 54 84 58 5 0 6 -36 3 -86z m-247 27 c0 -24 11 -25 73 -6 46 14 47
14 43 -7 -7 -30 -16 -90 -21 -133 -7 -53 -21 -71 -60 -78 -20 -4 -42 -9 -49
-12 -7 -3 -20 12 -31 36 -10 23 -31 56 -46 73 -31 35 -32 31 36 104 45 48 55
52 55 23z m489 -139 c-18 -28 -33 -51 -34 -51 -2 0 -10 11 -18 24 -15 23 -14
27 15 81 l31 57 19 -30 19 -30 -32 -51z m-159 -67 c0 -14 -56 -94 -68 -99 -10
-4 -13 6 -10 42 3 40 7 48 28 54 34 9 50 10 50 3z"/>
</g>
</svg>
