<?xml version="1.0" standalone="no"?>
<!DOCTYPE svg PUBLIC "-//W3C//DTD SVG 20010904//EN"
 "http://www.w3.org/TR/2001/REC-SVG-20010904/DTD/svg10.dtd">
<svg version="1.0" xmlns="http://www.w3.org/2000/svg"
 width="146.000000pt" height="93.000000pt" viewBox="0 0 146.000000 93.000000"
 preserveAspectRatio="xMidYMid meet">
<metadata>
Created by potrace 1.16, written by Peter Selinger 2001-2019
</metadata>
<g transform="translate(0.000000,93.000000) scale(0.100000,-0.100000)"
fill="#000000" stroke="none">
<path d="M734 856 c-8 -14 -16 -46 -16 -73 0 -26 -2 -63 -5 -81 l-4 -33 -92 6
c-133 7 -220 16 -228 21 -4 2 -49 6 -100 9 -51 3 -95 8 -100 10 -4 3 -17 -3
-29 -13 -16 -13 -23 -31 -25 -63 -2 -24 -6 -87 -9 -139 -4 -52 -9 -118 -12
-146 -6 -49 -4 -54 29 -90 30 -33 37 -36 51 -25 11 10 13 18 6 31 -6 10 -10
32 -10 49 l0 31 252 -6 c138 -3 255 -7 258 -9 4 -3 6 -51 5 -107 -1 -57 2
-109 8 -116 5 -6 28 -12 50 -12 31 0 61 13 141 62 151 93 214 141 343 261 96
90 105 89 102 -12 -1 -43 1 -84 5 -90 8 -12 45 -15 47 -3 1 4 3 85 5 180 2
158 1 173 -14 170 -10 -2 -23 -22 -32 -48 -19 -59 -19 -59 -41 -28 -20 27 -71
58 -95 58 -6 0 -30 15 -52 33 -22 18 -98 62 -168 96 -71 35 -146 72 -166 82
-51 26 -84 24 -104 -5z m186 -90 c138 -68 186 -96 209 -120 13 -14 46 -33 73
-43 30 -10 58 -30 73 -49 l24 -31 -97 -86 c-146 -130 -391 -292 -410 -272 -9
9 -5 622 5 638 7 11 52 -2 123 -37z m-535 -141 c66 -7 161 -14 210 -14 50 0
95 0 101 0 6 -1 11 -42 12 -110 l2 -109 -37 -7 c-32 -6 -292 2 -363 10 -14 2
-44 4 -67 4 l-43 1 0 74 c0 40 3 94 6 118 8 54 3 53 179 33z"/>
</g>
</svg>
