<?xml version="1.0" standalone="no"?>
<!DOCTYPE svg PUBLIC "-//W3C//DTD SVG 20010904//EN"
 "http://www.w3.org/TR/2001/REC-SVG-20010904/DTD/svg10.dtd">
<svg version="1.0" xmlns="http://www.w3.org/2000/svg"
 width="186.000000pt" height="142.000000pt" viewBox="0 0 186.000000 142.000000"
 preserveAspectRatio="xMidYMid meet">
<metadata>
Created by potrace 1.16, written by Peter Selinger 2001-2019
</metadata>
<g transform="translate(0.000000,142.000000) scale(0.100000,-0.100000)"
fill="#000000" stroke="none">
<path d="M1680 1330 c-19 -5 -73 -12 -120 -16 -48 -4 -100 -14 -120 -24 -19
-10 -51 -22 -70 -28 -19 -6 -55 -18 -79 -27 -40 -15 -44 -14 -56 1 -14 19 -37
10 -33 -13 4 -18 -60 -55 -171 -100 -93 -36 -159 -43 -291 -29 -60 6 -79 5
-95 -7 -11 -9 -17 -19 -13 -22 4 -4 48 -10 98 -13 49 -2 90 -7 90 -9 0 -10
-73 -123 -79 -123 -3 0 -4 25 -3 55 3 45 1 55 -12 55 -9 0 -19 -13 -24 -32 -8
-31 -12 -33 -63 -40 -30 -4 -65 -5 -78 -2 -13 3 -92 9 -175 14 -162 9 -230 27
-240 63 -13 51 -57 -18 -64 -100 -4 -49 -3 -53 22 -64 17 -8 25 -18 22 -28
-27 -91 -49 -432 -31 -461 10 -16 22 -12 27 8 3 11 43 38 101 66 l96 48 159
-7 c147 -7 208 -18 175 -32 -18 -7 -16 -24 5 -39 16 -12 16 -15 -1 -45 -26
-46 -10 -50 28 -6 32 37 34 38 81 31 27 -3 59 -10 72 -15 13 -5 43 -9 68 -9
25 0 62 -9 84 -20 22 -11 65 -27 97 -35 72 -17 158 -48 198 -69 17 -9 46 -16
65 -16 48 0 76 -22 101 -81 31 -71 53 -66 39 9 -4 24 -2 105 5 185 7 78 13
153 13 167 1 36 20 159 26 169 3 4 8 30 12 57 3 27 10 54 14 59 5 6 20 51 34
101 14 50 34 115 44 145 11 30 28 81 38 114 9 33 33 81 51 108 18 26 33 52 33
57 0 12 -30 11 -80 0z m10 -44 c0 -2 -11 -26 -24 -53 -13 -26 -33 -82 -45
-123 -21 -76 -79 -241 -87 -249 -2 -3 -1 81 2 185 8 217 12 230 88 237 22 2
47 4 54 5 6 1 12 0 12 -2z m-190 -135 c0 -43 -4 -123 -9 -177 -6 -55 -13 -148
-16 -209 -4 -60 -9 -113 -11 -116 -2 -3 -6 -77 -9 -164 -4 -87 -10 -174 -13
-195 l-7 -37 -65 17 c-44 10 -82 29 -117 55 -29 22 -83 51 -120 64 -37 13 -77
29 -88 36 -11 6 -47 22 -80 34 -33 13 -98 42 -145 66 -47 24 -93 46 -102 49
-13 4 -18 16 -18 46 0 41 18 176 26 195 17 38 52 90 69 99 11 6 44 26 74 45
90 55 182 102 210 105 37 6 89 25 142 52 25 13 79 36 121 52 42 16 86 37 99
46 13 9 31 16 41 16 16 0 18 -10 18 -79z m-250 15 c0 -2 -7 -7 -16 -10 -8 -3
-12 -2 -9 4 6 10 25 14 25 6z m-255 -96 c-3 -5 -11 -10 -16 -10 -6 0 -44 -23
-85 -51 -41 -29 -77 -49 -80 -46 -11 11 49 77 75 83 14 3 35 9 46 14 49 21 69
24 60 10z m-802 -131 c-26 -11 -63 -10 -63 0 0 5 3 16 6 25 5 13 10 13 40 -2
30 -14 32 -17 17 -23z m493 -39 c-18 -80 -36 -261 -31 -297 4 -28 2 -43 -4
-43 -6 0 -11 -7 -11 -15 0 -13 -17 -16 -102 -15 -142 1 -337 20 -375 35 -35
15 -35 19 -12 138 5 26 9 70 9 97 0 71 12 96 52 104 75 16 152 21 311 21 l168
0 -5 -25z m-437 -386 c9 -8 -25 -37 -71 -60 -59 -30 -60 -30 -48 2 6 14 10 37
10 51 0 24 1 25 53 18 28 -4 54 -9 56 -11z m539 -29 c39 -17 115 -75 108 -82
-2 -2 -45 6 -96 18 l-92 23 7 33 c4 21 2 33 -5 33 -6 0 -8 5 -5 11 5 7 14 5
28 -5 12 -9 37 -23 55 -31z m205 -92 c-7 -2 -19 -2 -25 0 -7 3 -2 5 12 5 14 0
19 -2 13 -5z"/>
</g>
</svg>
