<?xml version="1.0" standalone="no"?>
<!DOCTYPE svg PUBLIC "-//W3C//DTD SVG 20010904//EN"
 "http://www.w3.org/TR/2001/REC-SVG-20010904/DTD/svg10.dtd">
<svg version="1.0" xmlns="http://www.w3.org/2000/svg"
 width="249.000000pt" height="134.000000pt" viewBox="0 0 249.000000 134.000000"
 preserveAspectRatio="xMidYMid meet">
<metadata>
Created by potrace 1.16, written by Peter Selinger 2001-2019
</metadata>
<g transform="translate(0.000000,134.000000) scale(0.100000,-0.100000)"
fill="#000000" stroke="none">
<path d="M2328 1255 c-3 -4 -631 -18 -823 -20 -44 0 -195 3 -335 7 -207 5
-269 3 -330 -9 -41 -8 -76 -16 -78 -18 -1 -1 7 -45 18 -96 21 -91 21 -97 5
-187 -10 -51 -20 -135 -24 -185 l-6 -92 -95 -6 c-52 -3 -167 -4 -255 -1 -88 3
-177 6 -199 6 -36 1 -39 -1 -42 -32 -2 -17 -11 -67 -20 -109 -14 -71 -17 -129
-11 -303 l2 -65 35 1 c84 3 246 15 260 19 8 2 44 7 80 11 61 6 84 7 203 14 38
3 45 6 31 13 -15 9 -265 2 -297 -8 -7 -2 -67 -6 -134 -10 -86 -4 -123 -3 -128
5 -12 19 7 29 55 30 116 3 544 3 593 -1 53 -3 36 -13 -18 -10 -26 1 -45 -2
-45 -9 0 -12 122 -3 130 10 3 4 52 7 110 7 139 -1 489 11 500 18 5 3 142 5
304 6 256 0 298 -2 312 -15 22 -22 37 -20 65 10 23 25 24 26 5 40 -20 14 -22
36 -11 169 9 114 45 285 66 311 5 6 22 83 39 170 28 152 50 254 65 300 4 14 2
23 -8 27 -8 3 -17 4 -19 2z m-203 -45 c46 0 54 -3 58 -22 8 -32 11 -403 4
-415 -4 -6 -8 -37 -11 -69 -2 -32 -9 -79 -14 -104 -6 -25 -18 -107 -27 -182
l-18 -138 -41 -1 c-22 0 -156 -2 -296 -3 -140 -2 -298 -6 -350 -10 -52 -3
-185 -9 -295 -12 -539 -17 -908 -7 -932 25 -16 20 -15 140 0 246 l12 80 240
-2 c132 -2 275 -3 317 -4 42 -1 81 2 87 6 18 10 13 22 -13 29 -31 8 -38 28
-30 87 l7 49 56 -6 c31 -3 64 -10 73 -15 9 -5 26 -9 37 -9 30 0 26 -13 -9 -29
-54 -23 -112 -81 -82 -81 4 0 34 18 67 40 40 26 71 40 94 40 40 0 39 -1 -23
-99 -25 -39 -46 -73 -46 -76 0 -3 9 -5 20 -5 13 0 20 7 20 19 0 10 7 24 15 31
8 7 15 16 15 21 0 5 7 17 15 26 8 10 21 26 28 37 10 13 20 16 36 11 21 -6 22
-10 15 -83 -10 -115 -10 -121 1 -122 12 -1 23 50 27 122 3 46 6 53 25 56 20 3
21 0 16 -70 -2 -40 -11 -113 -19 -161 -14 -88 -14 -89 8 -107 13 -11 29 -17
37 -14 55 19 109 24 152 14 55 -14 123 0 134 28 4 9 8 44 9 77 2 33 8 91 15
129 7 37 11 79 8 92 -3 20 1 25 22 29 69 14 168 50 260 95 62 30 116 50 136
50 42 0 76 40 55 65 -7 8 -16 13 -20 10 -7 -4 -29 -1 -170 25 -36 7 -76 14
-90 16 -54 7 -280 63 -302 75 -13 7 -30 13 -38 14 -8 1 -34 5 -57 9 -35 6 -48
3 -82 -18 l-41 -26 0 37 c0 57 -10 84 -29 81 -12 -3 -16 -16 -17 -53 -1 -69
-14 -115 -33 -115 -4 0 -18 19 -31 43 -36 66 -40 69 -58 50 -15 -14 -14 -19 2
-62 24 -63 24 -71 3 -85 -15 -9 -22 -7 -35 12 -45 63 -69 85 -86 79 -31 -12
-29 -36 9 -88 29 -40 34 -54 23 -60 -18 -12 -144 -16 -155 -6 -2 3 3 51 12
108 9 57 19 138 22 180 5 75 6 76 39 88 23 8 100 11 251 10 120 -1 268 -2 328
-2 143 0 549 14 554 20 3 2 11 1 19 -2 7 -3 38 -5 67 -5z m175 -19 c0 -11 -4
-31 -9 -44 -5 -13 -12 -39 -15 -58 -3 -19 -13 -81 -22 -139 -9 -58 -17 -106
-19 -108 -2 -2 -3 41 -3 95 0 117 -8 228 -17 242 -11 20 6 31 46 31 32 0 39
-3 39 -19z m-1468 -32 c-14 -16 -17 -17 -25 -4 -11 21 -1 34 22 28 18 -5 18
-6 3 -24z m620 -210 c48 -19 254 -63 343 -74 28 -3 74 -11 103 -17 l54 -12
-96 -46 c-53 -26 -138 -57 -189 -69 -50 -12 -109 -31 -129 -41 -30 -16 -58
-19 -147 -19 l-110 1 5 56 c3 32 7 71 10 87 2 17 7 50 10 75 11 95 10 92 57
85 23 -4 63 -16 89 -26z m-201 -100 c-6 -28 -11 -69 -11 -92 0 -23 -4 -48 -9
-55 -12 -20 -34 12 -29 42 6 30 -17 25 -25 -6 -3 -11 -10 -17 -17 -13 -8 5 -8
11 1 21 14 17 -2 19 -18 3 -13 -13 -36 -2 -27 12 3 6 -2 19 -12 30 -9 10 -14
19 -10 19 4 0 0 8 -9 17 -16 16 -16 17 1 30 26 19 30 17 53 -23 12 -19 27 -34
34 -31 13 4 15 47 3 90 -10 33 9 38 20 5 19 -63 44 -53 44 18 0 22 3 44 8 48
12 13 14 -62 3 -115z m976 -81 c-3 -8 -6 -5 -6 6 -1 11 2 17 5 13 3 -3 4 -12
1 -19z m-721 -142 c8 -3 14 -12 14 -19 0 -11 -25 -14 -115 -16 -64 -1 -120 1
-125 4 -6 4 -7 13 -1 23 8 15 24 17 111 15 56 -1 108 -4 116 -7z m-28 -61 c25
-5 32 -11 32 -29 0 -19 -4 -22 -24 -19 -13 3 -27 0 -30 -6 -4 -6 -2 -11 4 -11
13 0 40 -24 40 -36 0 -3 -6 -2 -12 4 -7 5 -39 13 -71 17 -31 3 -55 10 -52 15
3 5 -11 12 -32 15 -57 10 -63 13 -63 34 0 14 8 21 28 23 35 4 138 0 180 -7z
m-52 -105 c19 0 41 -6 49 -13 11 -11 3 -13 -44 -9 -31 3 -59 9 -62 14 -3 5
-29 6 -57 2 -48 -6 -52 -5 -52 14 0 28 26 31 83 10 26 -10 63 -18 83 -18z m64
-52 c0 -4 -5 -8 -11 -8 -8 0 -8 -5 1 -15 11 -13 4 -15 -54 -15 -38 0 -66 4
-66 10 0 6 -12 8 -26 6 -41 -8 -86 4 -74 19 12 14 230 17 230 3z m-131 -62
c-10 -9 -109 -14 -104 -6 4 6 29 10 57 10 28 0 49 -2 47 -4z m88 -2 c-3 -3
-12 -4 -19 -1 -8 3 -5 6 6 6 11 1 17 -2 13 -5z"/>
<path d="M1418 503 c7 -3 16 -2 19 1 4 3 -2 6 -13 5 -11 0 -14 -3 -6 -6z"/>
</g>
</svg>
