<?xml version="1.0" standalone="no"?>
<!DOCTYPE svg PUBLIC "-//W3C//DTD SVG 20010904//EN"
 "http://www.w3.org/TR/2001/REC-SVG-20010904/DTD/svg10.dtd">
<svg version="1.0" xmlns="http://www.w3.org/2000/svg"
 width="276.000000pt" height="155.000000pt" viewBox="0 0 276.000000 155.000000"
 preserveAspectRatio="xMidYMid meet">
<metadata>
Created by potrace 1.16, written by Peter Selinger 2001-2019
</metadata>
<g transform="translate(0.000000,155.000000) scale(0.100000,-0.100000)"
fill="#000000" stroke="none">
<path d="M1123 1485 c-10 -7 -15 -16 -11 -20 10 -11 -11 -61 -36 -84 -19 -18
-37 -22 -99 -24 -57 -2 -80 -7 -96 -21 -24 -21 -19 -36 11 -36 20 0 21 -3 15
-92 -4 -51 -9 -102 -11 -113 -2 -11 -5 -35 -5 -54 l-1 -34 -72 8 c-40 4 -149
11 -243 14 -142 5 -170 8 -170 21 0 11 -9 14 -31 12 -22 -2 -33 2 -38 14 -5
14 -15 15 -55 10 -27 -4 -71 -2 -97 4 -33 8 -50 8 -58 0 -17 -17 9 -33 70 -41
31 -4 58 -10 61 -13 3 -2 -7 -24 -21 -48 l-26 -43 0 35 c0 44 -13 65 -34 57
-15 -6 -16 -17 -9 -89 11 -111 7 -196 -13 -298 -19 -98 -21 -157 -6 -172 16
-16 32 0 32 31 l0 28 132 7 c128 6 167 9 253 22 22 4 81 8 131 10 51 2 96 4
100 5 5 1 22 1 38 0 31 -1 30 4 11 -82 -2 -9 -6 -52 -9 -95 -8 -96 -26 -193
-37 -200 -13 -8 -11 -41 4 -56 7 -7 22 -31 33 -52 23 -45 50 -67 62 -50 8 12
118 64 137 64 7 0 42 13 78 30 37 16 73 30 80 30 8 0 43 14 78 31 82 39 98 46
129 54 14 4 54 20 90 36 67 29 372 143 560 209 114 40 194 74 369 157 l114 54
54 -25 c60 -29 63 -30 63 -16 0 5 -19 19 -41 31 -31 15 -38 24 -30 32 27 27 8
33 -41 12 -11 -4 -18 -3 -18 5 0 6 4 9 8 6 13 -8 35 11 28 23 -10 16 -37 14
-57 -5 -20 -18 -30 -13 -196 78 -44 25 -105 57 -135 71 -227 107 -295 143
-378 198 -52 34 -145 88 -206 120 -60 31 -135 72 -165 91 -30 19 -81 50 -114
68 -33 18 -76 45 -95 60 -46 36 -64 41 -87 25z m182 -125 c3 0 32 -17 64 -39
48 -31 192 -106 236 -122 17 -7 145 -91 145 -95 0 -3 -3 -3 -7 -1 -21 13 -549
219 -571 223 -14 3 -33 9 -44 15 -17 9 -17 12 12 54 l30 44 65 -40 c35 -21 67
-39 70 -39z m-153 -51 c29 -7 76 -22 105 -35 28 -13 56 -24 62 -24 5 0 25 -9
43 -19 18 -10 74 -33 123 -51 105 -37 109 -38 198 -79 37 -17 71 -31 75 -31 4
0 24 -9 45 -20 20 -11 65 -30 99 -41 97 -33 314 -136 433 -206 39 -22 90 -47
115 -54 63 -18 67 -25 23 -39 -21 -7 -78 -32 -128 -55 -49 -23 -130 -57 -180
-75 -49 -17 -156 -58 -237 -91 -81 -32 -224 -84 -318 -115 -94 -32 -166 -60
-160 -64 7 -5 -1 -12 -22 -19 -30 -10 -31 -9 -14 4 23 18 9 19 -31 4 -15 -6
-35 -12 -43 -14 -8 -2 -35 -11 -59 -19 -25 -9 -72 -19 -105 -22 -34 -2 -81 -9
-106 -14 -25 -5 -74 -14 -110 -20 -36 -6 -75 -14 -88 -17 -22 -5 -23 -3 -18
38 7 54 22 134 34 174 5 17 10 58 11 92 0 34 12 113 25 175 14 62 27 126 30
142 3 15 14 56 24 90 36 113 52 171 56 206 9 76 48 210 61 210 2 0 28 -5 57
-11z m-118 -24 c-2 -26 -39 -181 -66 -275 -12 -41 -29 -103 -37 -137 -9 -35
-18 -63 -21 -63 -7 0 -3 125 6 165 10 53 24 158 30 235 8 102 8 102 51 98 31
-2 38 -7 37 -23z m-655 -285 c8 -4 -8 -10 -39 -14 -58 -8 -69 -4 -50 19 13 16
55 13 89 -5z m464 -21 c31 -8 36 -13 33 -32 -3 -12 -7 -91 -10 -175 -3 -85 -8
-157 -11 -162 -4 -7 -130 -5 -300 4 -69 4 -317 34 -343 42 -10 3 -12 15 -8 41
3 21 10 76 16 122 13 123 34 137 224 161 44 5 82 13 85 16 9 9 269 -6 314 -17z
m-468 -376 l110 -18 -75 -6 c-41 -4 -110 -7 -154 -8 -67 -1 -77 1 -72 15 3 9
6 20 6 25 0 14 63 11 185 -8z m900 -373 c-76 -37 -227 -93 -335 -125 -8 -2
-24 -7 -35 -10 -16 -5 -24 1 -37 29 l-17 35 32 10 c18 6 64 15 102 20 147 21
293 49 311 59 10 6 24 11 29 11 6 0 -17 -13 -50 -29z"/>
<path d="M1520 1055 c-7 -8 -9 -15 -4 -15 4 0 0 -6 -10 -13 -14 -10 -17 -22
-13 -49 2 -20 2 -40 -2 -46 -7 -12 -122 -9 -246 6 -49 7 -105 9 -124 5 -26 -4
-37 -2 -47 11 -12 17 -14 16 -33 -3 -12 -12 -21 -29 -22 -38 0 -10 -2 -66 -4
-125 -2 -58 -8 -115 -14 -126 -6 -11 -8 -21 -6 -24 3 -3 -2 -45 -10 -94 -9
-49 -15 -102 -13 -119 3 -39 27 -77 46 -73 12 2 16 20 16 85 1 45 5 85 9 90
11 11 317 4 339 -8 9 -5 28 -9 42 -9 27 0 31 -11 26 -67 -2 -26 32 -47 64 -40
31 7 114 37 173 64 28 13 59 23 68 23 8 0 41 13 72 30 31 16 62 30 70 30 17 0
98 41 182 92 51 31 70 37 96 32 24 -4 34 -2 38 10 3 8 2 18 -3 21 -6 4 -10 15
-10 26 0 15 -15 27 -57 46 -32 15 -76 39 -97 55 -21 15 -44 28 -50 28 -6 0
-37 16 -69 35 -32 19 -64 35 -72 35 -8 0 -70 29 -137 63 -136 71 -180 84 -198
62z m51 -51 c22 -11 28 -20 24 -33 -3 -11 -7 -32 -9 -47 -2 -16 -7 -45 -10
-64 -3 -19 -8 -71 -10 -116 -3 -44 -9 -100 -15 -125 -5 -24 -13 -71 -16 -104
-6 -49 -9 -56 -18 -40 -15 28 -6 247 13 314 4 15 7 73 6 129 0 56 0 102 2 102
2 0 16 -7 33 -16z m124 -64 c25 -11 44 -24 41 -29 -3 -5 -10 -53 -16 -107 -5
-55 -13 -121 -17 -149 -4 -27 -7 -72 -7 -98 -1 -42 -3 -47 -19 -43 -13 3 -17
0 -13 -10 5 -13 -5 -20 -16 -9 -6 7 10 139 27 210 18 78 27 202 15 210 -16 10
-30 -32 -30 -94 0 -60 -10 -121 -36 -221 -12 -46 -19 -83 -23 -122 -1 -5 -8
-8 -16 -8 -13 0 -14 12 -9 73 3 39 10 86 14 102 5 17 11 71 15 120 11 146 19
195 35 195 5 0 29 -9 55 -20z m-390 -48 c6 -4 26 -7 45 -8 131 -3 143 -7 133
-43 l-6 -23 -156 6 c-86 3 -175 8 -198 12 -41 6 -43 8 -43 42 l0 34 108 -7
c59 -4 112 -10 117 -13z m494 -1 c8 -5 9 -11 3 -15 -14 -8 -36 -185 -37 -296
0 -41 -8 -59 -27 -60 -6 0 -2 154 6 230 3 25 8 64 11 88 7 62 15 71 44 53z
m46 -92 c-13 -63 -14 -206 -1 -227 3 -6 0 -12 -8 -15 -21 -8 -39 35 -32 79 3
22 8 74 11 117 6 85 21 136 35 121 5 -5 3 -36 -5 -75z m67 36 c10 -4 12 -31
10 -116 -4 -103 -3 -111 15 -107 16 3 18 15 21 98 2 52 6 98 11 103 4 4 25 -6
46 -23 21 -16 45 -30 54 -30 9 0 27 -9 41 -20 l25 -19 -21 -22 c-27 -26 -44
-18 -44 22 0 51 -25 28 -28 -25 l-3 -48 -75 -35 c-41 -20 -77 -33 -79 -31 -8
7 -7 221 0 241 8 19 8 19 27 12z m-687 -44 c22 -4 76 -4 120 -1 108 8 125 4
125 -28 l0 -25 -142 6 c-79 4 -169 7 -200 7 -49 0 -58 3 -58 18 0 42 23 45
155 23z m130 -86 c96 -7 109 -12 99 -38 -5 -14 -31 -16 -204 -17 l-199 0 10
32 c5 18 9 34 9 36 0 3 163 -5 285 -13z m38 -91 c55 -6 58 -8 55 -33 -3 -23
-7 -26 -38 -25 -19 1 -110 3 -201 5 l-166 4 7 25 c6 25 8 25 124 27 65 1 121
4 124 8 3 3 13 3 21 1 9 -3 42 -8 74 -12z"/>
<path d="M1984 777 c-3 -8 -4 -41 -2 -73 2 -44 7 -59 18 -59 12 0 15 14 15 69
0 46 -5 71 -13 74 -6 2 -14 -3 -18 -11z"/>
</g>
</svg>
