<?xml version="1.0" standalone="no"?>
<!DOCTYPE svg PUBLIC "-//W3C//DTD SVG 20010904//EN"
 "http://www.w3.org/TR/2001/REC-SVG-20010904/DTD/svg10.dtd">
<svg version="1.0" xmlns="http://www.w3.org/2000/svg"
 width="190.000000pt" height="97.000000pt" viewBox="0 0 190.000000 97.000000"
 preserveAspectRatio="xMidYMid meet">
<metadata>
Created by potrace 1.16, written by Peter Selinger 2001-2019
</metadata>
<g transform="translate(0.000000,97.000000) scale(0.100000,-0.100000)"
fill="#000000" stroke="none">
<path d="M788 880 c-10 -6 -20 -30 -24 -58 -4 -26 -9 -51 -9 -57 -1 -5 -3 -53
-5 -105 -1 -52 -4 -87 -7 -78 -6 23 -40 32 -168 44 -38 3 -73 8 -76 10 -14 8
-130 19 -207 19 -59 0 -82 4 -82 13 0 6 -6 12 -14 12 -26 0 -33 -25 -40 -130
-3 -58 -10 -123 -16 -145 -14 -57 -12 -81 6 -100 15 -15 18 -15 35 1 17 16 32
16 152 7 72 -5 190 -8 260 -6 l128 4 -6 -28 c-3 -15 -8 -57 -11 -93 -2 -36 -7
-71 -10 -79 -5 -17 22 -61 38 -61 6 0 25 11 42 23 17 13 105 62 196 109 199
103 256 134 291 159 15 10 34 19 42 19 9 0 29 11 45 25 17 14 33 25 37 25 4 0
4 -21 1 -47 -4 -27 -3 -61 2 -77 10 -35 39 -57 50 -39 4 7 38 28 76 48 37 19
112 60 165 91 53 31 103 59 111 64 25 12 18 45 -10 48 -14 2 -36 14 -50 26
-41 37 -156 115 -187 127 -21 8 -38 7 -68 -2 -49 -15 -65 -33 -65 -74 0 -52
-16 -57 -80 -25 -31 15 -62 35 -69 44 -7 8 -43 32 -79 52 -37 21 -95 57 -128
81 -34 23 -66 43 -72 43 -6 0 -12 4 -14 8 -1 4 -21 19 -43 32 -22 13 -56 36
-76 52 -42 32 -38 31 -61 18z m116 -126 c39 -26 82 -55 96 -65 14 -10 59 -37
100 -60 41 -23 83 -48 92 -56 9 -8 22 -12 29 -7 7 4 10 3 6 -3 -4 -6 26 -27
67 -47 81 -41 94 -56 68 -79 -36 -32 -584 -308 -594 -299 -5 6 10 132 28 232
8 45 18 233 18 333 0 59 3 97 9 97 6 0 42 -21 81 -46z m-479 -154 c33 -6 101
-15 151 -19 50 -5 101 -14 114 -21 12 -6 30 -10 39 -7 15 4 17 -3 14 -52 -6
-92 -14 -140 -23 -146 -14 -8 -276 -9 -290 0 -6 4 -18 1 -27 -7 -12 -9 -15 -9
-9 0 5 9 -6 13 -46 14 -177 7 -161 3 -154 36 14 61 17 80 23 151 l6 73 71 -6
c39 -3 98 -10 131 -16z m1093 -15 c20 -14 40 -25 44 -25 10 0 122 -76 136 -92
17 -21 -2 -36 -132 -103 -81 -41 -112 -52 -117 -43 -3 7 -3 42 1 78 5 36 7 95
6 132 -2 59 2 72 22 77 2 1 20 -10 40 -24z"/>
</g>
</svg>
