<?xml version="1.0" standalone="no"?>
<!DOCTYPE svg PUBLIC "-//W3C//DTD SVG 20010904//EN"
 "http://www.w3.org/TR/2001/REC-SVG-20010904/DTD/svg10.dtd">
<svg version="1.0" xmlns="http://www.w3.org/2000/svg"
 width="222.000000pt" height="110.000000pt" viewBox="0 0 222.000000 110.000000"
 preserveAspectRatio="xMidYMid meet">
<metadata>
Created by potrace 1.16, written by Peter Selinger 2001-2019
</metadata>
<g transform="translate(0.000000,110.000000) scale(0.100000,-0.100000)"
fill="#000000" stroke="none">
<path d="M1035 1050 c-25 -48 -69 -70 -128 -64 -28 3 -58 9 -68 14 -10 6 -25
7 -33 4 -13 -5 -16 -27 -17 -128 -1 -66 -1 -126 0 -133 1 -9 -25 -11 -101 -8
-57 2 -116 6 -133 9 -141 22 -173 29 -197 41 -16 7 -46 11 -70 9 -23 -2 -69 1
-102 7 -50 9 -61 8 -74 -5 -14 -14 -14 -22 2 -84 17 -67 18 -170 1 -480 -4
-74 7 -94 26 -45 9 23 12 57 18 164 1 26 1 26 108 32 75 4 109 3 114 -5 5 -8
61 -13 161 -16 84 -2 169 -8 189 -13 l36 -9 7 -71 c3 -39 2 -77 -2 -86 -9 -16
49 -165 66 -171 5 -1 27 17 48 41 60 67 206 155 293 176 20 5 61 19 91 31 30
13 102 42 160 65 103 42 292 105 315 105 6 0 35 11 63 25 29 14 54 25 58 25 3
0 31 12 62 26 31 15 64 27 72 27 8 0 38 5 67 12 28 8 61 11 73 8 18 -5 21 -2
18 18 -2 17 -14 28 -44 39 -22 8 -51 22 -65 31 -13 9 -42 22 -64 30 -22 7 -44
16 -50 20 -5 4 -35 12 -66 17 -59 11 -114 30 -194 67 -27 13 -72 32 -100 43
-161 63 -462 218 -457 234 2 6 -6 8 -17 5 -12 -3 -22 1 -25 9 -9 23 -24 16
-41 -16z m238 -124 c73 -35 184 -85 247 -111 157 -63 171 -77 50 -49 -36 8
-126 28 -200 44 -200 43 -294 71 -342 100 -27 16 -28 17 -10 38 10 11 26 36
37 55 l18 34 34 -23 c19 -13 94 -52 166 -88z m-333 15 c0 -5 -18 -67 -39 -137
-22 -71 -46 -155 -55 -186 -9 -32 -18 -58 -20 -58 -10 0 2 112 13 123 15 15
14 36 -3 43 -13 5 -14 39 -8 187 l2 37 55 0 c30 0 55 -4 55 -9z m134 -91 c33
-12 71 -23 85 -26 14 -2 49 -9 76 -15 28 -5 100 -19 160 -30 61 -10 128 -23
150 -28 38 -9 38 -9 -19 -8 -72 2 -83 -14 -22 -32 l45 -13 -32 -64 c-17 -35
-32 -62 -32 -61 -1 1 1 30 4 65 9 81 -9 77 -27 -7 l-14 -62 -36 3 -37 3 3 65
c2 36 8 73 14 83 14 27 3 32 -34 14 -18 -8 -48 -18 -65 -22 -32 -6 -46 -18
-49 -41 -1 -6 -14 -30 -29 -53 -23 -35 -33 -41 -61 -41 -19 0 -34 4 -34 9 0
21 45 107 62 119 31 22 22 42 -19 43 -21 1 -45 2 -53 3 -8 0 -28 -1 -44 -4
l-30 -6 0 -84 -1 -84 -39 -4 c-32 -3 -43 1 -56 19 -21 27 -36 19 -42 -20 -6
-38 8 -44 84 -35 l58 7 0 -32 c0 -38 -17 -119 -31 -143 -14 -26 -11 -64 6 -78
17 -14 19 -10 29 48 4 21 24 52 55 85 27 29 60 66 72 82 31 39 39 45 71 45 40
0 56 -32 67 -135 6 -49 10 -89 8 -90 -21 -13 -100 -45 -111 -45 -8 0 -59 -15
-113 -34 -102 -35 -194 -61 -252 -70 -30 -5 -33 -4 -28 17 3 12 9 56 12 97 8
90 19 156 47 270 11 47 21 92 22 100 1 8 5 22 9 30 3 8 15 45 26 83 11 37 25
77 32 88 12 24 22 23 113 -11z m-854 -205 c-27 -54 -50 -89 -51 -79 0 11 -2
30 -4 44 -2 14 -6 48 -9 77 l-5 52 57 3 c31 2 58 2 60 2 2 -1 -20 -45 -48 -99z
m204 79 c41 -5 41 -10 4 -24 -93 -35 -160 -64 -164 -72 -14 -22 11 -17 108 20
101 39 106 40 238 41 74 0 144 2 155 3 19 3 20 -3 22 -92 2 -121 -5 -168 -26
-174 -48 -15 -302 4 -326 24 -5 4 -30 10 -55 13 -25 3 -61 8 -80 11 -19 4 -49
9 -66 11 -28 5 -31 9 -26 33 5 32 62 149 93 193 19 28 25 30 58 24 20 -4 49
-9 65 -11z m1306 -11 l25 -5 -32 -27 c-18 -15 -33 -31 -33 -36 0 -5 14 -22 32
-37 18 -15 30 -30 27 -32 -6 -6 -137 -11 -196 -8 -30 2 -32 4 -23 27 5 13 26
51 47 83 l37 58 46 -9 c25 -5 56 -11 70 -14z m-621 -62 c-12 -34 -26 -61 -30
-61 -5 0 -9 27 -9 59 0 58 1 60 28 63 15 2 29 3 30 2 2 -1 -6 -30 -19 -63z
m231 12 c0 -89 -29 -112 -46 -38 -11 47 -8 58 16 68 27 10 30 7 30 -30z m515
20 c17 -3 35 -9 40 -13 6 -4 27 -10 47 -13 47 -7 142 -67 128 -81 -10 -10
-206 -10 -222 0 -5 3 1 21 13 40 29 48 18 52 -22 10 -39 -42 -59 -34 -59 24 0
42 7 53 29 45 9 -4 30 -9 46 -12z m-585 -79 c0 -16 -6 -21 -25 -21 -14 0 -24
2 -23 6 2 3 10 19 18 34 15 30 30 21 30 -19z m-110 -65 c0 -6 -23 -34 -51 -62
-47 -49 -50 -50 -44 -23 3 15 13 35 20 43 8 8 15 21 15 28 0 13 17 21 48 24 6
0 12 -4 12 -10z m565 -34 c-19 -19 -39 -35 -44 -35 -6 0 -18 -11 -27 -25 -9
-14 -25 -25 -35 -25 -10 0 -38 -8 -61 -19 -63 -27 -140 -52 -146 -46 -3 3 2
20 11 37 8 18 21 54 28 81 6 26 17 51 23 55 11 7 264 20 278 14 4 -2 -8 -19
-27 -37z m190 25 c-6 -10 -124 -52 -135 -48 -20 7 16 53 45 58 38 7 96 0 90
-10z m-491 -27 c-7 -21 -13 -45 -14 -53 0 -8 -9 -33 -20 -55 -11 -22 -19 -46
-20 -52 0 -7 -4 -13 -9 -13 -12 0 -24 66 -16 91 4 10 1 35 -5 55 -16 47 -1 64
55 64 l43 0 -14 -37z m316 -33 c0 -5 -5 -10 -11 -10 -5 0 -7 5 -4 10 3 6 8 10
11 10 2 0 4 -4 4 -10z m-1456 -41 c6 -5 -18 -9 -56 -9 -49 0 -67 4 -72 15 -4
12 5 14 57 9 34 -4 66 -10 71 -15z m696 -264 c-19 -14 -37 -25 -42 -25 -4 0
-26 -16 -48 -36 l-39 -36 -16 38 c-8 20 -14 38 -13 39 6 4 164 43 177 44 8 1
0 -10 -19 -24z"/>
</g>
</svg>
