<?xml version="1.0" standalone="no"?>
<!DOCTYPE svg PUBLIC "-//W3C//DTD SVG 20010904//EN"
 "http://www.w3.org/TR/2001/REC-SVG-20010904/DTD/svg10.dtd">
<svg version="1.0" xmlns="http://www.w3.org/2000/svg"
 width="244.000000pt" height="122.000000pt" viewBox="0 0 244.000000 122.000000"
 preserveAspectRatio="xMidYMid meet">
<metadata>
Created by potrace 1.16, written by Peter Selinger 2001-2019
</metadata>
<g transform="translate(0.000000,122.000000) scale(0.100000,-0.100000)"
fill="#000000" stroke="none">
<path d="M1308 1088 c-13 -18 -30 -45 -38 -60 -7 -16 -18 -28 -25 -28 -6 0
-36 -22 -66 -48 -29 -26 -74 -63 -99 -82 -25 -19 -72 -58 -106 -87 -34 -29
-68 -53 -77 -53 -9 0 -20 -6 -24 -13 -14 -23 -66 -54 -145 -87 -46 -19 -78
-39 -78 -47 0 -9 8 -13 23 -11 29 3 86 -32 115 -72 21 -27 21 -31 6 -37 -9 -3
-51 -1 -93 5 -42 7 -130 17 -196 22 -192 16 -224 30 -232 102 -5 43 -3 49 36
90 l40 43 1 -46 c0 -64 21 -71 63 -22 102 120 128 130 307 115 126 -11 203 -5
198 13 -2 6 -11 9 -20 8 -42 -6 -291 38 -373 65 -49 17 -94 27 -98 23 -15 -15
6 -42 44 -58 22 -8 39 -18 38 -22 0 -3 -25 -25 -55 -49 l-54 -42 0 28 c0 15 9
35 20 45 25 21 25 33 0 47 -14 8 -20 19 -18 38 4 39 -24 35 -36 -5 -10 -37
-18 -39 -60 -18 -33 18 -52 19 -61 5 -11 -17 13 -37 53 -46 20 -4 40 -7 45 -6
20 5 3 -28 -34 -63 -37 -37 -40 -38 -35 -15 7 33 -15 95 -34 95 -13 0 -15 -19
-12 -124 1 -82 -3 -154 -14 -211 -16 -91 -16 -140 1 -141 6 0 12 8 13 18 2 10
8 23 14 28 6 7 9 7 8 0 -6 -27 1 -55 13 -55 7 0 23 13 35 30 14 19 37 33 65
40 23 6 62 18 87 26 35 11 88 13 229 10 l183 -4 37 -34 c20 -19 54 -46 77 -61
70 -47 84 -75 84 -166 0 -44 5 -83 10 -86 20 -13 49 7 74 50 35 59 50 73 96
85 22 6 43 16 47 23 9 14 79 42 133 52 19 4 55 13 79 21 25 8 86 21 135 29 50
8 118 25 151 39 33 14 79 26 101 26 24 0 51 8 65 18 82 62 299 114 314 74 8
-21 27 -13 23 10 -4 29 -104 99 -191 133 -37 15 -96 46 -130 70 -35 24 -100
61 -146 84 -45 22 -95 50 -111 61 -15 11 -31 20 -35 20 -13 0 -284 181 -285
191 0 12 -38 49 -48 49 -6 0 -22 -15 -34 -32z m42 -13 c0 -8 18 -28 40 -43 21
-15 41 -31 43 -37 3 -6 -26 -10 -74 -10 -44 -1 -78 1 -76 5 1 3 13 26 27 53
24 47 40 60 40 32z m-116 -120 c-9 -14 -15 -28 -12 -30 2 -2 26 7 53 21 46 23
57 25 130 20 73 -6 85 -10 145 -51 36 -24 74 -47 85 -51 10 -4 49 -25 84 -46
36 -21 81 -43 100 -49 20 -7 75 -41 123 -75 48 -35 93 -64 98 -64 6 0 46 -16
88 -36 l77 -37 -105 -33 c-58 -18 -154 -45 -215 -60 -60 -15 -153 -38 -205
-51 -146 -37 -379 -93 -435 -104 -27 -6 -63 -13 -78 -16 -16 -3 -40 0 -53 7
-13 8 -27 10 -31 7 -8 -9 -211 191 -219 215 -3 10 3 51 13 91 16 64 24 78 73
126 30 29 80 72 110 94 30 23 83 65 118 94 35 29 65 53 68 53 2 0 -3 -11 -12
-25z m-391 -337 c-8 -29 -17 -55 -19 -57 -2 -3 -14 5 -27 16 -12 11 -31 23
-42 27 -16 6 -10 12 35 35 30 16 58 29 62 30 4 0 0 -23 -9 -51z m-513 -138
c22 -11 46 -20 55 -20 8 0 15 -4 15 -10 0 -5 -7 -10 -16 -10 -20 0 -94 -41
-94 -52 0 -4 -3 -8 -7 -8 -5 0 -7 17 -6 37 1 21 2 48 2 61 1 27 2 27 51 2z
m1377 -96 c-3 -3 -12 -4 -19 -1 -8 3 -5 6 6 6 11 1 17 -2 13 -5z m-522 -124
l40 -1 -30 -16 c-26 -14 -38 -26 -82 -82 -10 -13 -12 -4 -13 48 0 61 1 63 23
57 12 -3 40 -6 62 -6z"/>
<path d="M1280 885 c-14 -8 -33 -14 -43 -15 -10 0 -32 -7 -50 -17 -28 -14 -30
-17 -13 -23 17 -6 16 -9 -15 -33 -75 -57 -128 -96 -148 -107 -21 -11 -21 -13
-7 -35 17 -26 21 -55 9 -55 -5 0 -33 -23 -63 -50 -55 -49 -55 -49 -20 -40 49
14 51 14 106 -22 60 -40 67 -49 47 -63 -20 -15 -9 -35 18 -35 11 0 34 -14 51
-31 27 -26 35 -29 54 -20 13 6 26 23 29 38 4 15 13 50 21 76 8 26 12 51 10 56
-6 9 67 72 112 95 33 17 43 36 19 36 -20 0 -82 -48 -161 -124 -38 -36 -75 -66
-81 -66 -16 0 -58 47 -51 58 3 5 0 25 -6 44 -13 42 -3 108 16 108 7 0 32 -15
56 -32 77 -59 94 -68 105 -57 7 7 3 15 -12 27 -19 15 -22 26 -21 90 0 40 -2
75 -5 79 -3 3 -27 -9 -53 -26 -59 -38 -92 -41 -66 -6 14 21 90 75 104 75 8 0
26 -17 39 -37 24 -37 103 -101 127 -102 26 -2 10 27 -29 53 l-41 27 7 75 c8
81 4 87 -45 59z m10 -65 c0 -17 -3 -19 -19 -8 -21 13 -19 28 5 28 8 0 14 -9
14 -20z m-210 -130 c-13 -47 -20 -53 -35 -33 -12 16 -10 21 13 40 15 12 28 22
29 23 1 0 -2 -13 -7 -30z m127 -37 c-3 -2 -19 5 -37 15 l-32 20 29 14 c27 13
28 13 36 -15 5 -16 6 -31 4 -34z m-153 -103 c13 -27 6 -44 -9 -20 -3 6 -21 10
-38 10 l-32 1 24 19 c31 26 37 25 55 -10z m170 -113 c-17 -49 -18 -50 -47 -38
-17 6 -15 11 19 48 21 23 40 41 41 39 2 -1 -4 -24 -13 -49z"/>
</g>
</svg>
