<?xml version="1.0" standalone="no"?>
<!DOCTYPE svg PUBLIC "-//W3C//DTD SVG 20010904//EN"
 "http://www.w3.org/TR/2001/REC-SVG-20010904/DTD/svg10.dtd">
<svg version="1.0" xmlns="http://www.w3.org/2000/svg"
 width="234.000000pt" height="116.000000pt" viewBox="0 0 234.000000 116.000000"
 preserveAspectRatio="xMidYMid meet">
<metadata>
Created by potrace 1.16, written by Peter Selinger 2001-2019
</metadata>
<g transform="translate(0.000000,116.000000) scale(0.100000,-0.100000)"
fill="#000000" stroke="none">
<path d="M1415 1076 c-16 -27 -42 -45 -120 -84 -55 -28 -112 -54 -128 -57 -25
-7 -44 -22 -36 -30 6 -5 122 36 139 50 29 23 100 59 106 52 3 -3 -10 -13 -30
-21 -20 -8 -36 -20 -36 -25 0 -6 -4 -11 -10 -11 -12 0 -53 -40 -47 -46 2 -2
19 9 38 26 39 34 47 36 64 14 9 -14 15 -14 31 -4 17 10 30 7 84 -20 36 -18 84
-46 107 -61 23 -16 44 -29 47 -29 9 0 131 -75 141 -87 6 -7 44 -29 85 -49 41
-20 88 -47 104 -61 16 -13 46 -33 67 -44 21 -10 46 -33 54 -49 9 -17 24 -30
34 -30 10 0 21 -7 25 -15 3 -8 14 -15 24 -15 10 0 23 -5 29 -11 16 -16 26 6
13 31 -6 11 -16 20 -23 20 -7 0 -17 8 -24 19 -6 10 -33 31 -60 46 -26 15 -58
37 -71 48 -12 11 -38 30 -56 41 -155 94 -493 372 -498 410 -5 34 -32 30 -53
-8z m133 -126 c53 -43 113 -93 132 -111 l35 -32 -50 28 c-27 15 -70 41 -94 57
-23 16 -65 40 -92 54 -27 13 -49 31 -49 38 0 17 10 46 17 46 2 0 48 -36 101
-80z m267 -200 c3 -6 -1 -7 -9 -4 -18 7 -21 14 -7 14 6 0 13 -4 16 -10z"/>
<path d="M167 929 c-21 -12 -22 -32 -2 -49 12 -10 14 -34 10 -132 -3 -66 -8
-124 -11 -129 -3 -6 -7 -73 -8 -149 -3 -113 -1 -140 10 -140 8 0 14 10 14 23
0 16 16 32 58 59 76 49 140 65 195 48 64 -19 64 -19 55 -117 -5 -48 -7 -94 -5
-102 4 -17 5 -15 34 114 l18 80 140 2 c77 1 164 4 192 6 55 6 73 -4 53 -28
-14 -17 -5 -35 17 -35 8 0 48 -29 88 -65 40 -36 77 -65 82 -65 21 0 104 -64
118 -90 8 -15 25 -38 39 -51 14 -13 26 -30 26 -36 0 -18 16 -16 48 6 15 10 52
35 82 55 30 20 73 53 95 72 46 40 40 37 -105 -50 -74 -44 -84 -47 -106 -36
-28 16 -32 45 -6 59 45 24 174 62 192 56 14 -4 20 -2 20 9 0 21 105 52 124 37
7 -6 16 -7 22 -2 5 5 45 21 89 36 81 27 138 54 120 55 -26 1 154 73 194 77 70
7 78 11 59 29 -14 14 -24 12 -104 -16 -49 -17 -118 -40 -154 -51 -36 -11 -101
-33 -145 -49 -96 -34 -204 -65 -208 -59 -2 2 1 31 6 64 l8 60 67 32 c64 30 72
31 167 28 55 -1 115 -6 132 -10 22 -5 33 -4 33 4 0 26 -53 43 -175 56 -70 8
-130 17 -133 20 -3 3 4 19 16 35 12 16 22 33 22 38 0 10 -56 22 -102 22 -23 0
-28 4 -28 25 0 25 -14 34 -24 16 -8 -13 -21 -208 -20 -318 l0 -92 -61 -21
c-33 -12 -81 -30 -107 -41 -26 -10 -52 -19 -58 -19 -14 0 -7 185 9 220 l11 25
-3 -29 c-3 -44 20 -43 28 1 9 51 72 200 101 240 39 52 33 63 -35 63 -33 0 -67
3 -76 6 -11 5 -18 0 -22 -15 -3 -11 -9 -21 -13 -21 -4 0 -10 -58 -14 -130 -4
-71 -12 -144 -17 -162 -5 -18 -7 -56 -3 -85 3 -28 2 -58 -3 -67 -8 -15 -11
-15 -34 2 -13 11 -38 26 -55 35 -31 16 -56 73 -69 160 -7 42 -19 47 -46 15
-24 -27 -24 -31 0 -23 15 5 19 -1 25 -36 4 -23 4 -44 1 -47 -7 -8 -55 39 -55
54 0 8 -6 11 -13 8 -20 -7 -10 166 14 245 25 84 33 93 75 85 26 -5 35 -2 40
10 7 19 -21 66 -40 66 -35 0 -21 50 14 50 15 1 50 23 50 32 0 3 -28 -5 -63
-17 -51 -19 -62 -27 -60 -44 3 -22 -11 -29 -22 -11 -4 6 -30 10 -58 9 -173 -4
-430 22 -546 57 -27 8 -72 16 -99 18 -26 2 -57 8 -68 14 -13 7 -25 7 -37 1z
m130 -74 c2 -6 -14 -32 -36 -57 -42 -52 -51 -48 -51 18 0 27 5 37 23 44 27 11
59 9 64 -5z m121 -13 c9 -6 5 -12 -13 -20 -34 -16 -34 -15 -28 8 6 21 20 25
41 12z m315 -32 c95 0 178 -4 186 -9 10 -7 14 -33 13 -107 -1 -55 -1 -125 -2
-156 l0 -57 -47 -7 c-42 -6 -311 12 -322 22 -8 7 42 112 85 176 46 69 52 88
32 89 -73 3 -149 1 -155 -5 -12 -12 11 -24 57 -31 25 -4 46 -8 48 -10 2 -1
-11 -27 -29 -56 -17 -30 -37 -67 -44 -83 -11 -26 -13 -23 -19 54 -9 95 -20 97
-23 3 -1 -36 -4 -81 -8 -100 -6 -31 -9 -34 -33 -29 -15 3 -72 8 -127 12 -55 3
-110 10 -124 15 -22 9 -23 13 -17 62 3 30 13 69 22 88 21 43 94 139 105 139 5
0 9 -13 9 -30 0 -37 8 -37 68 -3 58 32 100 42 130 31 13 -4 101 -8 195 -8z
m277 -31 c0 -6 -11 -24 -25 -41 l-25 -30 0 35 c0 18 3 37 7 40 11 11 43 8 43
-4z m301 -101 c22 -6 39 -15 39 -19 0 -10 -34 -97 -62 -158 -20 -43 -21 -45
-29 -23 -5 13 -6 28 -3 33 3 5 6 48 6 94 1 47 3 85 6 85 3 0 22 -5 43 -12z
m286 -71 c3 -4 -47 -87 -67 -110 -4 -5 -7 22 -7 58 l0 67 34 -5 c20 -4 37 -8
40 -10z m-1339 -127 l27 0 -33 -20 c-43 -26 -52 -25 -52 6 0 20 4 25 16 20 9
-3 28 -6 42 -6z"/>
<path d="M1600 270 c-13 -8 -12 -10 3 -10 9 0 17 5 17 10 0 12 -1 12 -20 0z"/>
</g>
</svg>
