<?xml version="1.0" standalone="no"?>
<!DOCTYPE svg PUBLIC "-//W3C//DTD SVG 20010904//EN"
 "http://www.w3.org/TR/2001/REC-SVG-20010904/DTD/svg10.dtd">
<svg version="1.0" xmlns="http://www.w3.org/2000/svg"
 width="194.000000pt" height="132.000000pt" viewBox="0 0 194.000000 132.000000"
 preserveAspectRatio="xMidYMid meet">
<metadata>
Created by potrace 1.16, written by Peter Selinger 2001-2019
</metadata>
<g transform="translate(0.000000,132.000000) scale(0.100000,-0.100000)"
fill="#000000" stroke="none">
<path d="M343 1237 c-11 -12 -28 -41 -38 -65 -10 -24 -37 -58 -58 -76 -42 -35
-46 -66 -10 -66 20 -1 164 -49 147 -50 -6 0 -23 -9 -38 -21 -21 -16 -24 -24
-16 -34 10 -13 14 -227 6 -295 -2 -14 -7 -61 -11 -105 -9 -105 -17 -119 -60
-111 -18 4 -36 3 -39 -2 -2 -4 0 -28 6 -53 6 -24 16 -75 22 -114 13 -84 26
-90 84 -43 125 100 158 124 232 169 45 27 86 49 91 49 5 0 32 11 60 25 44 23
364 135 384 135 4 0 2 -7 -5 -15 -14 -17 -7 -19 20 -5 21 11 67 -19 162 -109
130 -123 173 -161 186 -161 28 0 7 37 -62 109 -63 65 -74 82 -80 121 -3 25 -9
62 -12 83 -5 29 -3 37 9 37 8 0 29 3 47 7 24 4 31 3 26 -5 -4 -7 -15 -12 -25
-12 -10 0 -23 -11 -29 -25 -16 -34 -15 -37 6 -33 26 4 89 -46 111 -90 26 -51
120 -148 155 -162 44 -16 54 3 16 31 -44 33 -115 129 -95 129 20 0 19 13 -5
57 -22 42 -26 93 -9 125 16 30 -4 47 -29 25 -10 -9 -22 -17 -26 -17 -27 0 176
235 233 270 37 23 54 50 32 50 -9 0 -52 -32 -86 -63 -11 -11 -70 -57 -132
-103 -61 -46 -118 -93 -127 -105 -8 -12 -20 -19 -26 -17 -12 4 88 137 152 201
21 21 38 42 38 47 0 5 25 27 56 49 44 31 53 42 40 47 -9 3 -24 0 -34 -7 -58
-46 -134 -109 -177 -149 -62 -58 -166 -130 -187 -130 -9 0 -19 -7 -22 -16 -4
-11 6 -20 37 -34 60 -28 30 -25 -66 7 -110 35 -215 80 -252 107 -16 13 -64 42
-105 66 -41 24 -103 62 -136 84 -34 23 -87 57 -118 76 -32 19 -70 47 -84 63
-15 15 -48 43 -74 62 -33 25 -45 41 -41 54 7 28 -22 33 -44 8z m117 -133 c63
-50 200 -140 301 -197 28 -16 48 -31 45 -34 -5 -6 -169 71 -195 91 -7 6 -41
18 -75 27 -93 26 -240 70 -244 74 -2 2 5 12 17 24 11 11 27 34 36 50 19 37 28
35 115 -35z m62 -195 c-1 -5 -27 -50 -56 -99 -30 -49 -61 -110 -69 -137 -14
-48 -14 -47 -18 104 l-4 152 75 -4 c47 -3 74 -9 72 -16z m130 -18 c20 -11 85
-39 144 -61 60 -23 134 -52 164 -64 30 -13 75 -29 100 -37 l45 -14 -35 -3
c-19 -1 -78 1 -130 6 -113 11 -120 7 -116 -73 4 -58 10 -75 31 -75 7 0 57 17
111 39 101 39 198 57 223 42 16 -11 26 -7 -174 -56 -82 -20 -179 -45 -215 -56
-36 -10 -110 -28 -165 -40 -55 -11 -133 -29 -172 -40 -40 -10 -77 -19 -82 -19
-35 0 83 314 161 428 33 48 54 52 110 23z m736 -105 c-39 -54 -101 -80 -83
-35 6 14 107 88 113 83 2 -1 -12 -23 -30 -48z m87 -47 c-26 -33 -52 -58 -58
-56 -23 7 -17 27 18 59 20 18 42 38 48 45 7 7 18 12 25 13 7 0 -8 -27 -33 -61z
m-511 -67 l39 -7 -36 -17 c-19 -9 -51 -20 -70 -23 -33 -7 -34 -6 -33 24 1 28
4 31 31 30 17 0 47 -3 69 -7z m321 -132 c6 -21 5 -23 -6 -14 -8 7 -31 23 -52
37 l-38 26 38 20 38 19 6 -31 c3 -18 9 -43 14 -57z m179 67 c-3 -8 0 -26 5
-41 l11 -27 -35 28 c-32 25 -34 29 -18 41 22 16 44 15 37 -1z m-764 -131 c0
-3 -16 -10 -35 -16 -49 -16 -167 -85 -252 -146 -97 -71 -103 -72 -119 -4 -14
62 -3 89 22 55 15 -20 16 -20 37 7 22 27 65 43 202 74 33 8 74 18 90 23 34 10
55 13 55 7z"/>
</g>
</svg>
