<?xml version="1.0" standalone="no"?>
<!DOCTYPE svg PUBLIC "-//W3C//DTD SVG 20010904//EN"
 "http://www.w3.org/TR/2001/REC-SVG-20010904/DTD/svg10.dtd">
<svg version="1.0" xmlns="http://www.w3.org/2000/svg"
 width="239.000000pt" height="124.000000pt" viewBox="0 0 239.000000 124.000000"
 preserveAspectRatio="xMidYMid meet">
<metadata>
Created by potrace 1.16, written by Peter Selinger 2001-2019
</metadata>
<g transform="translate(0.000000,124.000000) scale(0.100000,-0.100000)"
fill="#000000" stroke="none">
<path d="M1424 1160 c-28 -39 -44 -52 -77 -61 -266 -69 -475 -144 -456 -163 3
-3 70 18 149 45 200 70 259 89 278 89 26 0 -71 -57 -142 -84 -35 -14 -82 -37
-105 -52 -37 -24 -51 -27 -129 -27 -96 -1 -209 14 -277 38 -72 24 -161 34
-328 36 -170 3 -196 -4 -163 -40 15 -17 18 -39 18 -148 0 -70 -5 -159 -11
-198 -5 -38 -13 -99 -16 -135 -9 -107 -16 -152 -31 -214 -17 -65 -13 -80 10
-44 16 24 20 43 38 151 8 43 18 71 27 76 9 4 70 13 136 20 66 7 172 19 236 27
135 16 195 18 204 4 3 -5 -1 -43 -10 -84 -8 -41 -15 -89 -15 -106 0 -49 24
-31 33 26 19 109 27 125 54 108 10 -6 98 -52 195 -102 167 -87 219 -107 202
-80 -5 8 -2 9 10 5 10 -4 20 -7 23 -7 3 0 0 -7 -8 -16 -16 -19 2 -34 42 -34
15 0 32 -7 39 -15 25 -31 47 -26 132 27 70 44 249 171 338 239 30 24 125 69
144 69 15 0 129 46 211 85 28 13 58 26 68 29 30 9 19 31 -30 56 -59 31 -103
69 -103 89 0 10 -37 33 -98 63 -53 26 -134 75 -179 110 -45 35 -122 92 -173
128 -50 36 -101 73 -112 83 -12 9 -27 17 -34 17 -7 0 -18 9 -24 20 -16 30 -26
25 -66 -30z m201 -95 c44 -30 76 -55 72 -55 -4 0 -52 23 -106 50 -54 28 -102
50 -107 50 -5 0 -15 4 -23 9 -12 8 -12 12 -2 25 15 18 38 8 166 -79z m-55 -25
c55 -27 124 -65 153 -84 28 -19 77 -45 107 -59 30 -13 95 -49 143 -80 48 -32
91 -57 96 -57 4 0 16 -10 27 -21 10 -12 40 -39 66 -59 47 -38 47 -38 25 -52
-29 -19 -170 -79 -272 -116 -174 -64 -248 -93 -288 -115 -23 -12 -60 -28 -82
-36 -22 -7 -69 -26 -105 -41 -92 -39 -107 -43 -113 -27 -5 14 64 227 100 307
11 25 37 63 57 84 49 53 42 66 -39 68 -36 1 -75 2 -87 2 -21 1 -23 -3 -25 -84
-2 -47 -8 -105 -13 -130 -6 -25 -11 -70 -12 -100 -1 -30 -6 -64 -11 -75 -6
-11 -11 -35 -13 -53 -1 -19 -5 -36 -7 -38 -8 -9 -81 30 -137 72 -30 22 -91 62
-135 87 -44 26 -95 60 -113 75 l-33 28 30 92 c17 51 48 125 69 164 30 58 47
78 89 105 29 18 54 33 57 33 9 0 119 49 161 72 22 12 58 31 80 42 22 11 51 25
65 32 39 21 53 17 160 -36z m176 -55 c16 -8 43 -26 59 -40 l30 -26 -30 15
c-31 15 -103 66 -93 66 2 0 18 -7 34 -15z m-1113 -67 c48 -18 29 -28 -55 -29
-83 -1 -116 -3 -195 -13 l-41 -5 15 29 c8 16 20 33 28 37 17 10 210 -5 248
-19z m-353 -18 c11 -20 4 -90 -9 -90 -4 0 -13 -20 -20 -45 -15 -51 -37 -75
-29 -31 3 15 2 57 -2 94 -4 37 -5 73 -2 80 7 19 50 14 62 -8z m528 -28 c20
-13 23 -120 7 -213 -17 -97 -18 -117 -6 -104 12 14 33 136 38 220 5 77 9 85
44 89 13 2 37 7 53 11 26 7 28 6 21 -16 -4 -13 -23 -53 -41 -89 -18 -36 -44
-99 -58 -141 -29 -92 -41 -116 -50 -100 -5 7 -15 6 -33 -6 -23 -16 -36 -16
-192 1 -363 37 -361 37 -361 10 0 -8 10 -15 23 -15 12 -1 29 -3 37 -4 8 -1 67
-3 130 -5 l115 -3 -102 -13 c-56 -7 -119 -18 -140 -23 -21 -6 -51 -11 -67 -11
-29 0 -29 0 -21 48 4 26 8 66 9 89 0 24 9 53 22 70 11 15 30 53 43 83 35 88
42 93 124 102 39 4 140 10 222 14 83 3 152 8 154 10 6 6 15 5 29 -4z m662
-171 c-5 -10 -16 -23 -24 -30 -8 -7 -28 -45 -45 -84 -16 -40 -39 -92 -50 -117
l-21 -45 4 65 c7 100 21 214 28 225 3 6 31 8 62 7 49 -3 55 -6 46 -21z m-559
-238 c8 -9 48 -32 89 -51 41 -19 95 -51 120 -72 25 -20 60 -44 78 -54 17 -9
32 -18 32 -21 0 -9 -67 19 -95 40 -16 12 -41 26 -55 30 -30 9 -220 103 -237
117 -7 6 -10 14 -7 19 9 15 61 10 75 -8z m829 -47 c0 -7 -181 -137 -252 -181
-40 -25 -79 -45 -88 -45 -9 0 -27 11 -39 24 -18 19 -20 26 -9 32 15 10 154 69
211 90 21 7 51 23 67 34 41 29 110 58 110 46z"/>
<path d="M2277 623 c-4 -3 -7 -11 -7 -17 0 -6 5 -5 12 2 6 6 9 14 7 17 -3 3
-9 2 -12 -2z"/>
</g>
</svg>
