<?xml version="1.0" standalone="no"?>
<!DOCTYPE svg PUBLIC "-//W3C//DTD SVG 20010904//EN"
 "http://www.w3.org/TR/2001/REC-SVG-20010904/DTD/svg10.dtd">
<svg version="1.0" xmlns="http://www.w3.org/2000/svg"
 width="238.000000pt" height="154.000000pt" viewBox="0 0 238.000000 154.000000"
 preserveAspectRatio="xMidYMid meet">
<metadata>
Created by potrace 1.16, written by Peter Selinger 2001-2019
</metadata>
<g transform="translate(0.000000,154.000000) scale(0.100000,-0.100000)"
fill="#000000" stroke="none">
<path d="M925 1380 c-15 -16 -16 -23 -7 -29 20 -12 26 -131 12 -207 -12 -62
-16 -89 -19 -118 -1 -5 -65 -5 -153 0 -84 5 -187 9 -230 9 -42 0 -79 3 -82 6
-3 3 -23 3 -44 0 -20 -4 -72 -3 -116 0 -43 4 -85 5 -92 2 -15 -5 -20 -53 -6
-53 14 0 36 -95 38 -168 2 -91 -13 -293 -24 -304 -13 -13 -1 -88 14 -88 14 0
18 17 15 52 -1 10 8 22 21 27 58 22 208 47 344 56 84 6 129 10 238 21 l69 7
-8 -69 c-4 -38 -6 -98 -5 -134 4 -94 1 -129 -10 -150 -6 -10 -10 -34 -10 -53
0 -18 -6 -55 -14 -80 -7 -25 -11 -48 -8 -51 13 -14 31 -4 40 23 9 25 32 40
154 99 79 39 154 74 168 77 14 4 61 22 105 40 44 18 98 38 120 45 22 7 72 27
110 45 39 17 90 40 115 50 25 11 74 37 110 58 35 22 101 57 145 79 44 21 91
45 105 52 14 7 38 17 55 20 16 4 50 22 75 40 25 18 53 35 62 38 11 5 15 14 11
27 -6 22 -49 55 -62 47 -8 -5 -62 16 -196 78 -129 59 -146 68 -230 122 -44 28
-121 72 -172 98 -50 25 -118 62 -150 83 -33 21 -121 70 -196 108 -76 39 -140
78 -143 87 -4 13 -16 17 -48 16 -23 0 -52 2 -63 6 -13 4 -26 -1 -38 -14z m82
-38 c9 -5 9 -18 3 -47 -6 -22 -17 -85 -26 -140 -20 -124 -21 -131 -33 -180 -5
-22 -12 -78 -16 -125 -10 -123 -17 -113 -11 15 9 176 11 196 30 280 10 44 17
104 17 134 0 69 7 82 36 63z m189 -87 c157 -80 244 -128 241 -132 -5 -4 -95
23 -183 56 -44 16 -103 32 -130 36 -88 11 -92 13 -90 38 3 21 23 67 30 67 2 0
61 -29 132 -65z m113 -127 c102 -33 204 -69 227 -79 22 -11 52 -19 66 -19 15
0 64 -23 109 -51 46 -28 96 -57 112 -64 l29 -12 -42 -7 c-32 -5 -47 -3 -60 9
-13 12 -43 15 -131 15 -63 1 -154 6 -204 13 -49 7 -119 12 -155 10 -36 -2 -74
-2 -85 -2 -11 1 -33 2 -50 3 -21 1 -31 -4 -33 -16 -2 -11 3 -18 13 -18 14 0
16 -10 11 -72 -3 -40 -14 -120 -25 -178 -21 -115 -19 -198 6 -217 13 -10 23
-7 59 17 23 17 46 39 49 50 6 19 17 25 39 21 32 -7 316 -5 316 1 0 5 11 8 25
8 14 0 25 -6 25 -12 0 -9 3 -10 8 -2 12 19 62 23 78 7 10 -10 24 -13 41 -8 15
3 22 9 17 13 -16 10 -25 98 -14 126 5 14 11 43 14 65 6 48 57 121 102 146 30
16 33 16 75 -5 24 -13 56 -31 71 -41 50 -36 141 -80 154 -75 8 3 16 2 18 -3 9
-14 -31 -48 -81 -71 -26 -12 -133 -64 -238 -115 -104 -51 -212 -102 -240 -113
-188 -74 -302 -108 -508 -150 l-188 -38 6 25 c5 25 6 96 3 171 -1 32 15 271
28 410 3 30 16 100 29 155 13 55 27 117 31 139 l7 38 50 -6 c28 -4 134 -34
236 -68z m-961 -138 l33 0 -28 -49 c-15 -28 -37 -53 -48 -56 -18 -7 -19 -7 -2
-12 13 -3 16 -10 12 -21 -4 -10 -16 -53 -27 -97 -11 -44 -22 -82 -24 -84 -2
-3 -4 45 -4 105 1 110 -2 151 -15 191 -8 23 13 34 50 27 11 -2 35 -4 53 -4z
m347 0 l70 -2 -115 -23 c-63 -13 -135 -29 -160 -35 -25 -6 -54 -12 -65 -14
-11 -2 -29 -8 -39 -12 -18 -7 -17 -4 4 34 29 51 49 58 154 56 44 -2 113 -3
151 -4z m205 -112 c1 -57 2 -136 3 -176 2 -66 0 -73 -18 -78 -29 -7 -98 -8
-368 -5 -220 2 -238 3 -232 19 3 9 20 64 37 122 16 58 32 107 34 109 4 5 48
13 259 51 94 16 193 36 220 44 28 8 53 15 58 15 4 1 7 -45 7 -101z m400 24 c0
-8 -59 -30 -105 -39 -28 -6 -29 -5 -15 12 8 9 23 21 35 25 26 11 85 12 85 2z
m418 -30 c12 -7 21 -16 18 -20 -2 -4 -7 -36 -11 -72 -3 -35 -9 -69 -13 -74 -3
-6 -8 -40 -11 -75 l-6 -66 -123 -2 c-75 -1 -129 -7 -138 -13 -9 -8 -34 -10
-76 -5 -35 4 -90 8 -123 9 -33 0 -65 4 -72 9 -14 9 -27 -8 -18 -23 3 -5 13
-10 22 -10 13 0 12 -5 -7 -25 -21 -23 -25 -24 -33 -9 -9 17 -7 55 13 189 19
133 18 130 58 152 34 18 97 38 146 45 11 2 94 3 185 3 115 -1 173 -5 189 -13z
m72 -16 c0 -2 -7 -9 -15 -16 -12 -10 -15 -10 -15 4 0 9 7 16 15 16 8 0 15 -2
15 -4z m-1155 -263 c-11 -2 -60 -7 -110 -13 -135 -14 -167 -19 -199 -30 -46
-16 -76 -13 -76 8 0 10 4 22 10 28 5 5 94 9 202 9 106 1 184 0 173 -2z m547
-314 c-17 -5 -53 -22 -80 -37 -26 -15 -67 -36 -92 -47 -25 -10 -57 -27 -72
-38 l-28 -18 0 48 0 49 103 18 c56 10 116 22 132 26 43 12 77 10 37 -1z"/>
</g>
</svg>
