<?xml version="1.0" standalone="no"?>
<!DOCTYPE svg PUBLIC "-//W3C//DTD SVG 20010904//EN"
 "http://www.w3.org/TR/2001/REC-SVG-20010904/DTD/svg10.dtd">
<svg version="1.0" xmlns="http://www.w3.org/2000/svg"
 width="220.000000pt" height="132.000000pt" viewBox="0 0 220.000000 132.000000"
 preserveAspectRatio="xMidYMid meet">
<metadata>
Created by potrace 1.16, written by Peter Selinger 2001-2019
</metadata>
<g transform="translate(0.000000,132.000000) scale(0.100000,-0.100000)"
fill="#000000" stroke="none">
<path d="M505 1190 c-14 -22 11 -37 150 -86 72 -26 219 -68 290 -84 22 -5 76
-20 120 -34 44 -14 122 -35 173 -47 51 -12 91 -24 88 -26 -3 -3 -38 2 -78 11
-105 23 -475 87 -528 91 -25 1 -72 12 -104 24 -40 14 -72 19 -96 15 -48 -8
-69 14 -46 48 20 28 21 78 2 78 -7 0 -26 -25 -41 -55 -18 -35 -41 -62 -63 -75
l-35 -21 22 -23 c26 -28 28 -78 13 -319 -7 -100 -7 -168 -1 -184 5 -13 9 -26
9 -29 0 -2 -27 -4 -60 -4 -45 0 -62 4 -66 15 -7 18 -30 20 -41 3 -4 -7 -14
-13 -20 -13 -21 0 -17 -19 5 -30 17 -7 22 -22 27 -75 10 -113 17 -141 32 -147
9 -4 22 3 32 15 15 19 45 31 191 76 30 10 99 33 152 53 53 19 102 32 107 29
11 -7 7 -142 -5 -179 -4 -14 -2 -18 7 -15 19 6 37 72 38 138 1 30 5 60 9 66
10 16 169 70 227 78 79 11 452 109 520 136 37 15 119 37 185 49 36 7 84 21
106 32 40 19 67 20 108 3 13 -5 24 0 37 17 27 35 25 53 -7 45 -14 -4 -31 -3
-37 2 -7 5 -30 12 -52 15 -80 11 -161 30 -185 42 -31 15 -143 51 -189 61 -19
3 -42 15 -50 25 -11 12 -72 31 -181 58 -91 22 -178 45 -194 51 -16 6 -90 27
-164 46 -75 19 -191 57 -259 84 -132 53 -139 55 -148 40z m35 -184 c0 -2 -20
-43 -44 -92 -24 -49 -49 -106 -56 -126 -6 -21 -12 -38 -13 -38 -1 0 -2 56 -2
125 0 102 3 125 15 129 19 5 100 7 100 2z m135 -16 c14 -5 52 -12 83 -14 31
-2 163 -22 292 -44 129 -23 253 -43 275 -46 115 -16 198 -36 256 -64 35 -18
93 -36 129 -41 105 -15 151 -41 98 -54 -214 -55 -550 -123 -708 -143 -110 -13
-166 -22 -248 -40 -22 -4 -23 -3 -17 28 10 47 72 168 101 199 35 37 32 54 -8
43 -18 -4 -65 -9 -104 -10 -78 -1 -101 -9 -85 -28 13 -15 16 -115 6 -188 -8
-57 -8 -58 -44 -63 -20 -4 -56 -10 -81 -15 -40 -8 -181 -30 -193 -30 -12 0
-16 54 -6 92 5 24 15 66 21 93 5 28 13 55 18 60 4 6 15 33 23 60 17 57 50 131
79 181 16 28 26 34 53 34 19 0 45 -4 60 -10z m205 -231 c0 -6 -16 -38 -36 -72
-20 -34 -38 -76 -41 -94 -9 -56 -27 -52 -19 3 4 27 6 75 6 106 l-1 57 38 4
c21 2 41 4 46 5 4 1 7 -3 7 -9z m557 -145 c-3 -3 -12 -4 -19 -1 -8 3 -5 6 6 6
11 1 17 -2 13 -5z m-187 -45 c-36 -11 -119 -31 -185 -45 -66 -13 -153 -36
-194 -49 -40 -14 -75 -25 -77 -25 -1 0 2 13 7 29 11 32 26 37 179 61 41 6 122
20 180 29 139 24 169 24 90 0z m-510 -103 l0 -34 -151 -51 c-82 -28 -154 -51
-159 -51 -5 0 -39 -10 -75 -21 -36 -12 -68 -19 -71 -16 -3 3 -8 31 -10 63 -3
32 -6 63 -7 68 -1 7 34 13 88 17 86 6 335 46 344 55 2 2 13 4 23 4 14 0 18 -8
18 -34z"/>
</g>
</svg>
