<?xml version="1.0" standalone="no"?>
<!DOCTYPE svg PUBLIC "-//W3C//DTD SVG 20010904//EN"
 "http://www.w3.org/TR/2001/REC-SVG-20010904/DTD/svg10.dtd">
<svg version="1.0" xmlns="http://www.w3.org/2000/svg"
 width="264.000000pt" height="120.000000pt" viewBox="0 0 264.000000 120.000000"
 preserveAspectRatio="xMidYMid meet">
<metadata>
Created by potrace 1.16, written by Peter Selinger 2001-2019
</metadata>
<g transform="translate(0.000000,120.000000) scale(0.100000,-0.100000)"
fill="#000000" stroke="none">
<path d="M1808 1065 c-15 -14 -31 -31 -35 -38 -4 -7 -24 -23 -43 -35 -19 -11
-46 -31 -60 -44 -67 -60 -420 -283 -420 -264 0 3 8 22 18 43 16 36 23 46 71
102 12 13 21 28 21 32 0 5 -26 8 -59 8 -32 -1 -68 2 -80 6 -11 3 -73 1 -137
-5 -124 -11 -393 -13 -509 -4 -38 4 -101 5 -139 4 -38 -1 -91 4 -117 10 -40
10 -53 9 -65 -1 -14 -12 -14 -14 -1 -24 19 -14 23 -136 12 -328 -7 -120 7
-287 23 -287 4 0 15 9 27 20 79 76 102 90 149 90 25 0 46 5 46 10 0 6 5 10 10
10 6 0 10 -9 10 -19 0 -39 29 -36 43 3 4 12 208 8 222 -4 7 -6 16 -5 24 3 6 6
29 13 49 14 20 1 64 6 97 11 34 6 65 6 71 1 6 -5 15 -4 21 2 5 5 36 9 69 7
l58 -3 11 -62 c13 -69 17 -78 38 -70 10 4 12 17 7 57 -5 37 -3 56 6 65 11 11
11 15 -1 25 -17 14 -27 61 -29 133 -1 47 2 52 22 55 13 2 31 -3 40 -11 9 -7
35 -22 57 -33 82 -40 155 -86 165 -105 6 -10 17 -19 26 -19 27 0 138 -41 215
-80 86 -42 127 -40 63 3 -35 24 -38 30 -38 76 -1 27 -4 53 -8 56 -3 4 0 18 7
32 7 14 11 32 8 39 -3 8 -1 14 5 14 5 0 15 14 22 30 26 62 32 44 25 -71 -5
-81 -11 -117 -21 -125 -12 -10 -10 -16 16 -35 18 -13 48 -41 68 -61 36 -38 62
-49 62 -25 0 7 -5 18 -11 24 -9 9 -5 20 15 45 15 18 45 57 67 85 33 44 46 54
79 59 22 4 40 10 40 14 0 5 36 20 80 35 44 15 80 31 80 36 0 5 -16 2 -37 -6
-52 -22 -50 -13 5 15 26 14 72 39 102 57 30 18 87 44 125 58 113 42 112 53
-10 80 -38 9 -106 31 -150 50 -44 18 -104 38 -133 44 -57 12 -99 31 -147 66
-16 12 -61 37 -99 56 -37 18 -80 48 -95 66 l-27 32 -26 -24z m138 -113 c44
-22 85 -47 92 -54 6 -8 38 -23 69 -33 32 -10 94 -31 138 -47 44 -17 98 -34
120 -39 128 -28 158 -43 123 -61 -7 -4 -70 -35 -140 -69 -71 -34 -128 -65
-128 -70 0 -5 -9 -9 -21 -9 -11 0 -18 -4 -15 -8 2 -4 -6 -9 -20 -10 -29 -2
-31 14 -5 36 10 10 29 37 42 62 13 25 34 53 47 63 12 10 22 25 22 33 0 12 -6
13 -22 7 -13 -4 -54 -8 -93 -9 -38 0 -77 -3 -85 -6 -8 -3 -34 -10 -57 -15 -33
-8 -40 -7 -36 4 6 16 -1 16 -50 2 -28 -7 -42 -7 -52 1 -10 8 -27 9 -60 2 -42
-9 -59 -2 -34 14 7 4 8 9 0 17 -7 7 -15 6 -25 -2 -13 -11 -92 -21 -211 -26
-70 -3 -70 -3 -52 -23 13 -15 14 -21 4 -31 -8 -8 -12 -40 -11 -91 l1 -78 -29
21 c-15 11 -30 29 -34 39 -10 34 0 122 17 141 9 10 19 31 22 45 4 21 31 45
119 104 62 42 126 89 142 103 35 30 41 28 22 -11 -8 -16 -17 -44 -21 -61 -8
-42 8 -43 47 -6 25 24 36 27 86 25 63 -1 92 4 92 19 0 15 -114 10 -154 -6 -20
-9 -36 -11 -36 -5 0 5 12 35 26 66 l26 56 26 -25 c15 -14 63 -43 108 -65z
m-764 -110 c-9 -6 -12 -58 -9 -219 l2 -212 -47 2 c-52 2 -48 -4 -64 97 -10 58
-8 71 23 132 14 27 26 55 27 62 18 94 41 146 64 146 12 0 14 -2 4 -8z m-789
-40 c-15 -20 -33 -46 -39 -56 -22 -40 -33 -29 -33 33 l1 61 50 0 50 0 -29 -38z
m243 25 c3 -2 -29 -21 -71 -41 -41 -20 -75 -39 -75 -42 0 -2 13 2 30 11 44 23
47 18 6 -10 -39 -26 -47 -30 -44 -17 1 4 -2 19 -6 35 -6 18 -3 34 7 50 13 21
22 23 82 21 37 -2 69 -5 71 -7z m267 3 c39 8 47 1 22 -20 -9 -7 -32 -45 -51
-84 -41 -82 -54 -99 -54 -69 0 11 -3 34 -6 50 -4 23 0 37 21 62 15 17 24 35
20 39 -11 11 -64 -58 -95 -125 -16 -35 -33 -63 -38 -63 -11 0 -8 154 3 183 4
10 18 17 34 18 45 1 71 5 78 12 3 4 11 3 17 -3 7 -5 27 -5 49 0z m107 -44
c-24 -55 -70 -134 -70 -121 -1 6 -3 28 -6 50 -6 49 13 113 35 117 9 2 26 2 38
0 21 -4 21 -4 3 -46z m104 37 c-4 -10 -19 -52 -33 -93 l-25 -75 -8 35 c-13 53
-13 62 2 108 12 37 17 42 43 42 24 0 28 -3 21 -17z m189 5 c-42 -70 -82 -117
-85 -102 -8 41 4 103 20 107 38 10 73 7 65 -5z m-593 -17 c0 -6 -26 -51 -83
-145 -20 -32 -34 -63 -31 -67 8 -14 34 -10 34 5 0 20 41 109 47 102 7 -7 4
-196 -4 -258 l-6 -48 -47 0 c-46 0 -47 1 -44 28 2 15 6 94 8 175 5 153 11 177
47 177 11 0 23 10 29 24 7 18 14 23 29 19 12 -3 21 -8 21 -12z m-268 -48 c3
-58 -7 -235 -18 -300 -5 -35 -11 -43 -28 -43 -12 0 -32 7 -44 16 -13 9 -28 14
-35 11 -12 -4 -10 47 6 169 4 30 94 174 109 174 4 0 9 -12 10 -27z m948 -61
c-11 -22 -20 -49 -20 -59 0 -10 -4 -24 -9 -32 -7 -11 -14 -10 -37 6 -16 11
-39 24 -52 27 -22 7 -22 8 10 30 18 12 47 28 65 35 18 7 38 20 44 27 20 25 20
9 -1 -34z m-838 -39 c-6 -37 -10 -79 -10 -93 0 -14 0 -55 -1 -92 l-1 -68 -46
0 -46 0 6 43 c3 23 8 80 11 127 6 83 7 86 46 123 22 22 43 37 46 34 2 -3 0
-36 -5 -74z m1141 -5 c-15 -29 -29 -56 -31 -60 -2 -5 3 -8 11 -8 9 0 27 24 41
54 24 50 29 55 67 61 22 4 43 4 47 1 7 -7 -17 -56 -46 -93 -17 -22 -17 -22
-13 28 4 70 -15 55 -24 -18 -4 -32 -9 -95 -10 -141 -2 -46 -5 -86 -8 -88 -10
-10 -77 30 -72 43 2 8 -1 16 -9 19 -18 7 -11 85 9 100 18 14 19 24 2 24 -9 0
-13 18 -13 60 -1 57 0 61 25 66 14 3 31 7 36 9 18 4 17 -2 -12 -57z m485 54
l22 -7 -25 -37 c-14 -21 -27 -38 -29 -38 -2 0 -3 16 -1 35 2 19 -1 35 -6 35
-14 0 -18 -17 -23 -98 -4 -69 -6 -75 -33 -92 -16 -10 -44 -21 -61 -25 -31 -6
-32 -5 -32 25 0 17 6 33 15 36 8 3 19 22 26 42 6 21 21 58 33 85 19 44 23 47
56 46 19 -1 45 -4 58 -7z m-1278 -154 c-3 -29 -2 -66 1 -83 4 -16 7 -41 6 -55
-2 -23 -6 -25 -52 -24 l-50 1 1 39 c1 72 11 124 27 142 19 21 50 102 39 102
-4 0 0 5 8 10 12 8 16 2 20 -34 3 -25 3 -68 0 -98z m682 110 c-46 -78 -56 -98
-49 -104 12 -13 37 6 54 41 9 19 20 35 25 35 11 0 10 -21 -3 -96 -8 -46 -8
-68 1 -84 11 -20 10 -21 -12 -15 -36 11 -70 35 -65 48 2 6 -2 34 -8 62 -10 45
-11 66 -7 117 1 11 13 18 35 21 17 2 36 5 40 5 5 1 0 -13 -11 -30z m350 15
c-23 -44 -62 -135 -62 -144 0 -18 24 -4 37 22 7 13 22 48 34 77 22 53 43 68
86 60 18 -3 17 -6 -9 -58 l-27 -55 6 49 c3 33 2 47 -5 42 -14 -8 -35 -73 -28
-85 4 -5 2 -12 -4 -16 -5 -3 -10 -30 -10 -59 l0 -53 -41 -12 c-23 -7 -43 -10
-46 -7 -9 9 -2 219 8 238 6 11 21 18 40 18 25 0 28 -3 21 -17z m-918 -95 c3
-51 10 -110 15 -131 8 -35 7 -39 -16 -48 -45 -17 -61 -11 -72 26 -14 51 -4
123 27 187 15 32 30 58 33 58 3 0 9 -42 13 -92z m-236 -64 c-6 -65 -14 -123
-19 -128 -4 -5 -18 -6 -31 -3 -21 6 -23 11 -21 59 4 98 11 122 45 159 18 20
34 36 35 35 2 -1 -3 -56 -9 -122z m619 94 c-3 -8 -6 -5 -6 6 -1 11 2 17 5 13
3 -3 4 -12 1 -19z m607 -173 c-4 -8 -10 -15 -15 -15 -4 0 -6 7 -3 15 4 8 10
15 15 15 4 0 6 -7 3 -15z m-47 -34 c9 -26 8 -32 -16 -54 -20 -19 -29 -22 -37
-14 -6 7 -22 20 -34 30 -21 18 -21 19 -3 33 10 9 12 12 4 8 -10 -5 -12 -3 -6
5 4 8 17 10 31 7 14 -4 24 -2 24 4 0 22 26 8 37 -19z m-1586 -27 c21 -4 39
-10 39 -13 0 -11 -89 -71 -94 -63 -2 4 -7 27 -11 51 -6 39 -5 43 10 37 9 -3
34 -9 56 -12z"/>
</g>
</svg>
