<?xml version="1.0" standalone="no"?>
<!DOCTYPE svg PUBLIC "-//W3C//DTD SVG 20010904//EN"
 "http://www.w3.org/TR/2001/REC-SVG-20010904/DTD/svg10.dtd">
<svg version="1.0" xmlns="http://www.w3.org/2000/svg"
 width="252.000000pt" height="161.000000pt" viewBox="0 0 252.000000 161.000000"
 preserveAspectRatio="xMidYMid meet">
<metadata>
Created by potrace 1.16, written by Peter Selinger 2001-2019
</metadata>
<g transform="translate(0.000000,161.000000) scale(0.100000,-0.100000)"
fill="#000000" stroke="none">
<path d="M882 1574 c-13 -9 -21 -23 -19 -32 2 -10 -5 -33 -14 -53 l-18 -37
-57 14 c-32 7 -61 11 -66 8 -16 -10 14 -33 51 -40 20 -3 46 -13 59 -21 22 -13
23 -19 18 -77 -4 -34 -8 -73 -11 -86 -3 -14 -10 -88 -16 -165 -12 -148 -28
-211 -29 -115 0 30 -5 93 -11 140 -5 47 -12 128 -14 180 -3 52 -8 106 -11 120
l-7 25 -8 -30 c-5 -16 -7 -52 -4 -80 8 -89 16 -285 11 -293 -4 -7 -211 1 -341
13 -38 4 -86 7 -105 6 -19 -1 -56 3 -82 10 -37 8 -52 8 -62 0 -11 -9 -15 -9
-19 1 -2 7 -8 10 -12 6 -4 -4 0 -28 9 -53 13 -33 17 -68 15 -133 -2 -48 0 -93
4 -99 4 -6 6 -98 5 -205 -2 -121 1 -195 7 -198 6 -3 13 30 17 83 3 49 8 91 10
93 3 2 56 15 119 29 63 13 134 29 159 35 58 13 139 21 218 20 46 0 62 3 62 13
0 19 -91 27 -300 27 -154 0 -240 -10 -240 -29 0 -4 55 -6 123 -3 116 4 147 -1
82 -12 -27 -5 -143 -35 -204 -52 -22 -7 -23 -5 -18 32 4 33 81 271 90 280 4 4
105 32 177 49 30 7 99 16 153 19 54 3 102 8 106 10 12 8 31 -9 38 -35 13 -49
21 -765 9 -777 -16 -15 -3 -52 29 -81 19 -17 35 -36 35 -41 0 -19 28 -10 62
20 60 53 299 202 353 220 21 7 64 26 96 41 32 16 62 29 66 29 11 0 314 121
388 155 56 25 152 65 159 65 3 0 36 14 73 31 132 60 261 109 341 128 94 22
102 26 102 49 -1 15 -79 82 -96 82 -3 0 -43 18 -87 39 -118 57 -236 110 -282
129 -22 9 -60 27 -85 40 -79 43 -298 152 -304 152 -6 0 -127 58 -421 201 -66
32 -151 71 -190 87 -48 20 -71 35 -73 48 -6 30 -16 35 -40 18z m84 -84 c61
-21 83 -31 419 -195 116 -57 257 -126 315 -154 117 -56 119 -68 5 -20 -41 17
-80 27 -86 23 -7 -4 -9 -3 -5 4 3 6 -9 15 -31 22 -21 7 -42 16 -48 20 -5 4
-23 10 -40 14 -16 4 -43 14 -60 21 -66 31 -255 105 -342 134 -79 26 -200 76
-212 87 -3 3 19 64 24 64 1 0 28 -9 61 -20z m34 -130 c30 -11 62 -20 72 -20 9
0 69 -21 135 -46 65 -25 137 -53 161 -63 30 -11 41 -20 37 -31 -5 -11 -3 -12
5 -4 9 9 24 7 62 -7 64 -23 67 -26 32 -35 -42 -10 -44 -12 -35 -37 4 -12 11
-34 15 -49 5 -23 4 -27 -11 -21 -10 3 -44 25 -75 49 -111 84 -232 133 -349
141 -73 5 -91 3 -118 -13 -35 -20 -43 -41 -9 -23 35 19 163 6 253 -26 89 -32
101 -38 208 -113 42 -29 88 -57 102 -62 14 -5 25 -17 25 -28 0 -10 7 -40 16
-66 9 -26 14 -49 12 -52 -11 -10 -95 -20 -119 -14 -15 4 -43 2 -65 -6 -21 -8
-56 -14 -78 -14 -33 0 -37 2 -26 15 7 9 11 17 9 19 -6 5 -93 25 -202 47 -55
11 -112 26 -126 34 -15 7 -43 16 -64 20 -20 4 -37 12 -37 19 -1 52 46 423 54
428 5 4 22 0 36 -7 14 -8 50 -24 80 -35z m617 -231 l28 -11 -30 -12 c-27 -11
-29 -16 -27 -51 3 -32 1 -37 -13 -31 -9 3 -21 6 -27 6 -11 0 -4 81 8 101 7 12
26 11 61 -2z m-91 -15 c-3 -9 -6 -25 -7 -37 -1 -20 -2 -20 -9 3 -13 39 -11 50
6 50 11 0 14 -5 10 -16z m264 -51 c113 -38 246 -90 335 -133 44 -21 116 -54
160 -74 44 -19 81 -42 83 -50 2 -9 8 -16 13 -16 5 0 9 -4 9 -8 0 -4 -33 -18
-73 -29 -40 -12 -138 -49 -217 -83 -80 -34 -199 -84 -265 -112 -66 -28 -177
-75 -247 -104 -70 -30 -134 -54 -143 -54 -8 0 -23 -4 -33 -10 -26 -14 -75 -34
-222 -90 -74 -28 -144 -55 -155 -60 -24 -11 -234 -80 -242 -80 -7 0 4 506 13
595 3 33 9 62 12 65 4 3 7 28 7 55 0 48 1 50 27 48 15 -1 42 -9 60 -17 18 -8
65 -24 103 -34 l70 -19 -4 -79 c-2 -44 -4 -88 -5 -99 -2 -30 -50 -29 -121 3
-33 14 -63 31 -67 36 -4 6 -13 5 -23 -4 -12 -10 -16 -29 -15 -69 1 -31 -3 -92
-8 -136 -10 -84 -8 -102 11 -87 35 27 154 82 191 87 l44 7 0 -41 c0 -23 -3
-41 -9 -41 -5 0 -8 3 -8 8 1 4 1 16 0 27 -2 20 -2 20 -17 0 -14 -18 -13 -72 3
-127 6 -24 25 -23 40 1 7 11 38 37 70 59 58 39 92 47 231 56 38 3 70 26 35 26
-48 0 -70 23 -33 35 22 7 27 25 7 25 -19 0 -20 80 -1 101 10 12 12 19 4 24
-16 10 27 65 51 65 12 0 25 12 35 33 9 18 24 39 34 45 17 10 20 5 34 -55 8
-36 19 -70 25 -76 21 -21 24 3 8 54 -24 74 -23 101 5 97 19 -3 24 -13 33 -70
6 -38 16 -73 23 -80 20 -20 23 12 8 88 l-13 72 51 5 c163 19 254 43 234 62 -2
3 -65 25 -139 49 -90 30 -135 49 -137 60 -2 9 2 32 8 52 9 27 16 34 29 29 9
-4 50 -18 91 -32z m-146 -10 c-8 -46 -12 -52 -24 -33 -16 24 -11 58 8 63 9 3
18 5 20 6 2 0 0 -16 -4 -36z m-1377 -48 c10 -3 9 -12 -1 -37 -8 -18 -29 -87
-47 -153 l-33 -120 -7 55 c-4 30 -9 103 -13 161 l-6 107 48 -5 c26 -3 52 -6
59 -8z m181 -6 c107 0 103 -7 -21 -34 -121 -26 -137 -28 -137 -13 0 24 31 60
47 54 8 -3 58 -6 111 -7z m1150 -24 c1 -1 6 -25 11 -53 7 -48 7 -51 -17 -57
-13 -3 -26 -5 -27 -3 -4 4 -35 114 -35 123 0 6 60 -3 68 -10z m118 -34 c32
-11 76 -23 97 -26 21 -4 35 -11 30 -15 -9 -8 -133 -28 -175 -28 -33 0 -34 5
-11 30 14 16 15 23 5 39 -15 23 -18 23 54 0z m-506 -112 c0 -10 -59 -59 -71
-59 -6 0 -8 -8 -5 -17 3 -10 1 -25 -4 -33 -11 -18 -13 23 -4 81 6 34 8 35 45
35 21 0 39 -3 39 -7z m148 -43 c4 -17 -1 -18 -69 -12 -74 6 -93 12 -68 20 36
11 47 13 89 12 35 -1 45 -5 48 -20z m54 -49 c-17 -19 -17 -19 -20 3 -2 12 -1
29 3 38 6 15 8 15 21 -2 12 -17 12 -22 -4 -39z m-63 -3 c2 -2 -35 -4 -83 -4
-57 0 -85 4 -81 10 6 10 153 4 164 -6z m9 -56 c3 -15 -4 -18 -40 -18 -24 0
-78 -2 -120 -4 -59 -3 -78 -1 -82 10 -7 17 6 18 23 2 10 -11 15 -10 24 3 17
22 28 25 115 24 65 0 77 -3 80 -17z m-421 -30 c41 -15 42 -23 2 -37 -46 -16
-50 -14 -47 19 3 34 1 34 45 18z m144 -71 c3 -21 2 -40 -2 -43 -12 -7 -169 8
-174 16 -3 4 11 15 30 24 121 58 137 58 146 3z m279 28 c0 -12 -15 -15 -72
-15 -40 -1 -97 -3 -125 -5 -29 -2 -53 0 -53 5 0 20 41 29 142 29 90 1 108 -2
108 -14z m0 -50 c0 -8 -33 -14 -102 -18 -56 -4 -106 -11 -112 -17 -5 -5 -14
-10 -20 -10 -6 0 -5 5 2 12 16 16 15 31 0 22 -9 -5 -10 -4 -3 4 14 14 35 17
142 18 66 1 93 -2 93 -11z m-437 -44 l29 -6 -44 -21 -44 -22 4 34 c3 20 8 31
15 27 6 -3 23 -9 40 -12z m427 -17 c0 -11 -21 -14 -100 -14 -125 0 -139 23
-20 32 65 5 120 -3 120 -18z m-160 -55 c0 -3 -15 -13 -32 -22 -18 -9 -43 -24
-55 -33 -22 -16 -23 -16 -23 9 0 19 4 25 14 21 9 -3 17 3 21 15 5 17 14 20 41
18 19 -1 34 -5 34 -8z m-110 -213 c0 -2 -28 -21 -62 -42 -34 -22 -86 -55 -116
-75 l-54 -36 -28 26 c-35 30 -31 38 18 46 41 7 172 52 212 72 27 14 30 15 30
9z"/>
<path d="M984 1166 c-3 -9 1 -35 11 -58 16 -41 16 -42 -7 -60 -13 -9 -45 -25
-71 -35 -27 -10 -54 -24 -60 -32 -18 -21 54 -6 115 25 l49 25 14 -35 c8 -20
15 -45 15 -56 0 -11 7 -20 15 -20 19 0 20 49 3 98 -15 40 -5 50 71 78 58 22
70 32 52 44 -9 5 -34 -1 -70 -17 -31 -14 -61 -27 -67 -30 -7 -2 -18 14 -26 38
-15 46 -34 61 -44 35z"/>
</g>
</svg>
