<?xml version="1.0" standalone="no"?>
<!DOCTYPE svg PUBLIC "-//W3C//DTD SVG 20010904//EN"
 "http://www.w3.org/TR/2001/REC-SVG-20010904/DTD/svg10.dtd">
<svg version="1.0" xmlns="http://www.w3.org/2000/svg"
 width="250.000000pt" height="122.000000pt" viewBox="0 0 250.000000 122.000000"
 preserveAspectRatio="xMidYMid meet">
<metadata>
Created by potrace 1.16, written by Peter Selinger 2001-2019
</metadata>
<g transform="translate(0.000000,122.000000) scale(0.100000,-0.100000)"
fill="#000000" stroke="none">
<path d="M2268 1153 c-29 -4 -40 -33 -13 -33 19 0 19 4 -10 -105 l-24 -90 1
110 c1 103 -1 110 -19 113 -11 2 -130 -24 -264 -57 -134 -33 -284 -67 -334
-75 -49 -9 -126 -25 -170 -37 -44 -11 -91 -23 -105 -26 -14 -3 -39 -16 -55
-28 -36 -27 -155 -41 -155 -18 0 18 -24 21 -195 27 -82 3 -213 10 -290 16
l-140 11 -28 35 c-25 30 -34 34 -75 34 -26 0 -53 4 -61 9 -23 14 -75 -16 -65
-37 4 -9 7 -26 8 -37 2 -39 -16 -223 -34 -360 -29 -212 -32 -265 -15 -265 15
0 20 14 30 81 l6 45 97 12 c53 7 151 19 217 28 66 8 143 16 170 19 172 13 212
18 228 27 10 5 42 6 73 2 l56 -7 -7 -93 c-5 -61 -4 -94 3 -94 5 0 13 17 17 38
8 43 30 82 48 82 6 0 48 -16 92 -35 125 -54 346 -133 437 -155 46 -11 99 -25
118 -31 44 -14 261 -119 278 -136 16 -16 44 -5 40 16 -2 9 -28 25 -63 37 -33
12 -76 31 -95 42 -35 20 -121 51 -260 92 -41 12 -156 54 -255 93 -99 39 -202
76 -229 82 -69 16 -91 54 -34 60 36 4 38 4 38 15 0 6 -13 10 -30 10 -16 0 -30
3 -30 8 0 4 20 47 45 96 25 48 45 96 45 106 0 22 50 60 77 60 11 0 105 30 209
66 254 88 343 116 449 143 157 39 196 52 189 63 -4 7 -2 8 4 4 11 -6 10 -39
-3 -303 -3 -56 -14 -141 -25 -190 -16 -76 -40 -269 -40 -325 0 -37 -32 -15
-147 100 -272 271 -289 291 -277 309 6 10 53 54 105 97 52 44 95 88 97 98 2
12 -9 25 -32 39 -20 12 -36 25 -36 30 0 14 -34 11 -55 -4 -17 -13 -14 -16 34
-39 l51 -24 -52 -50 c-29 -28 -68 -68 -86 -89 -37 -42 -52 -41 -29 2 52 95 85
173 73 173 -7 0 -21 -19 -31 -42 -38 -92 -77 -168 -85 -168 -5 0 -18 12 -29
26 -11 15 -27 24 -34 21 -7 -3 -23 -34 -35 -69 -24 -71 -53 -132 -78 -159 -22
-24 -8 -42 27 -35 16 3 46 -1 67 -9 20 -8 56 -19 80 -25 24 -6 70 -29 103 -50
33 -21 113 -65 177 -96 137 -66 181 -103 174 -141 -3 -18 -1 -24 7 -19 6 4 11
14 11 23 0 9 6 13 15 9 17 -6 20 15 4 31 -8 8 -8 26 0 64 5 30 13 81 16 114 3
33 12 94 20 135 8 41 24 135 35 208 20 124 62 276 95 349 8 17 15 36 15 42 0
11 -3 11 -52 4z m-398 -122 c-19 -11 -90 -24 -90 -17 0 7 59 24 85 25 16 0 17
-1 5 -8z m-138 -37 c-24 -8 -51 -13 -60 -11 -11 3 -8 5 8 6 14 1 32 6 40 11 8
5 24 10 35 9 11 0 1 -7 -23 -15z m-1342 -51 c0 -19 -71 -143 -82 -143 -9 0
-10 70 -2 123 6 35 8 37 45 37 30 0 39 -4 39 -17z m1152 -3 c-9 -11 -18 -16
-20 -11 -2 6 -36 -5 -76 -23 -39 -18 -88 -36 -108 -40 l-37 -7 30 32 c23 25
46 35 107 49 42 10 87 19 99 19 22 1 22 0 5 -19z m-953 -19 c38 -1 22 -8 -59
-25 -41 -9 -85 -19 -97 -22 -27 -8 -31 11 -7 37 12 14 28 17 77 14 34 -2 73
-4 86 -4z m473 -34 c-2 -14 5 -17 40 -17 24 0 48 -4 55 -8 15 -9 11 -41 -6
-52 -9 -5 -11 -21 -7 -51 7 -50 8 -136 0 -160 -5 -18 -16 -18 -254 2 -74 6
-242 11 -373 11 l-239 0 6 21 c3 12 6 39 6 60 0 22 7 44 18 55 9 10 29 34 44
54 25 33 35 37 155 66 163 40 135 37 362 37 181 0 196 -2 193 -18z m228 -10
c0 -9 -113 -237 -116 -234 -1 1 1 55 3 120 l6 117 53 0 c30 0 54 -1 54 -3z
m397 -239 c36 -35 87 -85 112 -113 25 -27 74 -78 109 -112 35 -35 60 -63 57
-63 -13 0 -113 54 -165 89 -30 21 -103 54 -162 75 l-106 38 29 62 c16 33 29
67 29 74 0 27 34 9 97 -50z m-1052 -75 c-27 -9 -59 -19 -70 -23 -24 -9 -204
-30 -258 -30 -36 0 -38 2 -35 28 3 26 6 27 68 33 36 3 128 6 205 6 l140 1 -50
-15z"/>
</g>
</svg>
