<?xml version="1.0" standalone="no"?>
<!DOCTYPE svg PUBLIC "-//W3C//DTD SVG 20010904//EN"
 "http://www.w3.org/TR/2001/REC-SVG-20010904/DTD/svg10.dtd">
<svg version="1.0" xmlns="http://www.w3.org/2000/svg"
 width="236.000000pt" height="148.000000pt" viewBox="0 0 236.000000 148.000000"
 preserveAspectRatio="xMidYMid meet">
<metadata>
Created by potrace 1.16, written by Peter Selinger 2001-2019
</metadata>
<g transform="translate(0.000000,148.000000) scale(0.100000,-0.100000)"
fill="#000000" stroke="none">
<path d="M1079 1393 c-1 -5 -1 -11 0 -15 2 -15 -71 -29 -123 -23 -30 4 -56 3
-59 -2 -3 -5 -1 -41 4 -79 11 -72 12 -118 5 -169 -3 -16 -6 -56 -7 -88 -2 -58
-3 -59 -28 -52 -14 3 -33 6 -41 6 -8 0 -104 0 -213 -1 -109 0 -203 2 -208 6
-6 4 -59 6 -117 6 -83 0 -108 -3 -117 -15 -8 -12 -8 -43 2 -124 9 -66 11 -139
7 -188 -12 -150 -14 -464 -3 -471 20 -12 30 13 33 81 4 74 9 80 71 91 22 3 45
9 50 13 13 9 104 28 170 36 27 3 54 10 59 15 6 6 22 10 36 10 14 0 50 9 80 21
93 35 144 49 177 49 30 0 32 -3 42 -50 6 -28 11 -121 11 -207 0 -133 -2 -158
-17 -168 -9 -7 -13 -17 -9 -23 12 -20 51 -13 76 13 12 13 39 30 59 36 32 10
110 47 451 212 47 22 101 50 120 62 19 12 49 30 65 41 17 10 40 20 52 21 45 7
115 43 110 57 -4 9 33 30 116 67 67 30 138 68 157 85 19 17 65 46 103 63 37
17 67 35 67 39 0 12 -64 72 -77 72 -6 0 -40 15 -75 34 -34 18 -96 46 -136 61
-41 15 -117 52 -170 83 -53 30 -142 80 -197 110 -54 30 -158 94 -230 141 -164
110 -292 172 -296 144z m103 -62 c65 -36 256 -161 245 -161 -4 0 -42 17 -85
38 -42 22 -114 51 -158 67 l-81 28 11 28 c6 16 11 29 13 29 1 0 26 -13 55 -29z
m-137 -58 c-5 -45 -11 -94 -20 -168 -3 -16 -14 -106 -25 -199 -12 -93 -22
-172 -24 -175 -2 -3 -6 -31 -10 -61 -12 -105 -18 -141 -25 -135 -3 4 -7 97 -8
208 -2 111 -4 236 -5 277 -1 41 0 122 3 180 l4 105 50 6 c28 3 53 7 57 7 4 1
5 -19 3 -45z m131 -27 c38 -13 81 -29 97 -36 l27 -13 -80 -53 c-79 -52 -110
-77 -110 -88 0 -3 6 -3 14 0 23 9 74 -24 91 -57 9 -17 32 -48 51 -69 l35 -39
-43 -32 c-24 -17 -59 -39 -78 -48 -20 -9 -46 -26 -60 -38 -13 -13 -36 -29 -52
-35 -38 -17 -35 -30 13 -69 23 -19 70 -62 106 -97 45 -44 70 -62 85 -60 29 4
35 28 9 35 -11 3 -23 14 -26 24 -4 11 -15 24 -26 29 -10 6 -19 16 -19 22 0 6
-8 20 -17 30 -11 12 -17 34 -16 59 3 54 31 90 83 104 7 2 41 15 65 25 11 5 55
21 98 36 72 25 79 26 94 11 15 -15 19 -14 45 5 28 20 33 42 10 44 -7 1 -16 2
-21 3 -15 2 -30 78 -18 90 14 14 -1 28 -18 16 -58 -42 -184 -125 -188 -125 -3
0 -13 12 -22 27 -13 20 -17 45 -16 97 2 65 16 136 27 136 8 0 105 -49 144 -72
19 -12 72 -36 116 -53 45 -18 117 -54 159 -80 147 -89 215 -116 239 -96 9 8
25 4 57 -13 24 -14 63 -35 87 -47 23 -13 42 -26 42 -31 0 -4 12 -14 27 -21
l27 -15 -35 -17 c-19 -9 -57 -34 -85 -55 -27 -21 -111 -65 -185 -99 -74 -34
-159 -77 -191 -96 -31 -19 -59 -35 -62 -35 -3 0 -40 -16 -82 -35 -41 -19 -78
-35 -82 -35 -3 0 -71 -24 -151 -54 -81 -30 -177 -66 -216 -79 -38 -14 -88 -32
-110 -40 -51 -20 -52 -17 -43 116 11 177 19 249 38 362 11 61 22 137 25 170 7
64 8 72 25 180 6 39 13 88 16 110 2 22 6 56 9 75 2 19 4 38 4 43 1 11 12 9 87
-17z m74 -176 l0 -49 -35 31 -34 32 27 18 c15 10 30 18 35 18 4 0 7 -22 7 -50z
m242 -115 c6 -30 -1 -36 -75 -64 -67 -24 -67 -24 -67 -11 0 13 41 49 88 77 47
28 49 28 54 -2z m-1162 -25 c0 -5 -13 -37 -29 -72 -17 -35 -40 -99 -51 -143
-12 -44 -24 -82 -26 -84 -1 -2 -3 30 -3 70 0 41 -3 111 -7 157 l-7 82 62 0
c33 0 61 -4 61 -10z m415 -6 c-44 -7 -100 -19 -125 -27 -25 -9 -63 -19 -85
-22 -22 -4 -75 -16 -118 -27 -43 -11 -81 -18 -83 -15 -5 4 23 76 36 92 5 6 96
10 232 11 210 0 218 -1 143 -12z m152 -197 c-4 -105 -8 -191 -10 -193 -1 -1
-115 -10 -252 -19 -138 -9 -283 -19 -323 -22 -73 -6 -73 -6 -68 18 3 13 13 60
22 104 9 44 20 89 24 100 4 11 11 33 16 50 8 25 19 33 78 53 37 13 84 25 104
28 20 2 65 14 101 25 36 11 100 23 141 26 41 3 93 11 115 18 22 6 44 10 49 7
5 -3 6 -86 3 -195z m251 -4 c-7 -16 -13 -29 -14 -31 -4 -7 -44 19 -44 28 0 7
41 27 62 29 4 1 2 -11 -4 -26z m-453 -238 c-47 -22 -164 -53 -225 -60 -30 -3
-90 -15 -134 -26 -107 -26 -116 -25 -116 9 0 57 10 60 200 67 80 3 177 10 215
14 95 11 94 11 60 -4z m630 -212 c-44 -19 -84 -39 -90 -44 -5 -4 -70 -34 -142
-68 l-133 -60 0 28 c0 32 -1 31 185 92 103 34 196 69 210 81 5 4 18 8 30 8 11
0 -16 -17 -60 -37z"/>
<path d="M1423 610 c-12 -5 -26 -18 -32 -28 -6 -11 -54 -53 -108 -93 -145
-109 -301 -238 -307 -255 -8 -21 11 -17 35 7 11 11 28 22 38 24 10 2 42 18 72
37 76 47 338 176 372 183 35 7 34 15 -8 56 -26 25 -34 40 -30 57 6 24 2 25
-32 12z m17 -103 c0 -3 -30 -22 -67 -43 -112 -62 -255 -135 -250 -127 3 5 51
42 107 83 57 41 119 89 138 106 l36 32 18 -23 c10 -13 18 -25 18 -28z"/>
</g>
</svg>
