<?xml version="1.0" standalone="no"?>
<!DOCTYPE svg PUBLIC "-//W3C//DTD SVG 20010904//EN"
 "http://www.w3.org/TR/2001/REC-SVG-20010904/DTD/svg10.dtd">
<svg version="1.0" xmlns="http://www.w3.org/2000/svg"
 width="270.000000pt" height="130.000000pt" viewBox="0 0 270.000000 130.000000"
 preserveAspectRatio="xMidYMid meet">
<metadata>
Created by potrace 1.16, written by Peter Selinger 2001-2019
</metadata>
<g transform="translate(0.000000,130.000000) scale(0.100000,-0.100000)"
fill="#000000" stroke="none">
<path d="M1822 1145 c-12 -14 -30 -25 -41 -25 -26 0 -441 -138 -468 -156 -14
-9 -48 -14 -90 -14 -37 0 -95 -5 -128 -10 -104 -17 -491 -24 -575 -10 -91 15
-218 47 -244 61 -14 8 -22 7 -35 -6 -23 -23 -21 -203 3 -240 14 -21 16 -50 14
-177 -2 -205 -1 -258 6 -266 4 -3 23 4 44 15 20 12 53 24 72 28 19 4 51 16 71
25 41 21 108 28 348 35 95 3 177 8 182 11 21 13 235 12 274 -1 22 -7 78 -21
125 -31 91 -19 187 -53 287 -103 34 -17 71 -31 81 -31 11 0 25 -7 32 -15 17
-20 33 -19 53 3 22 24 22 36 0 28 -15 -5 -14 -3 2 9 11 9 38 21 60 27 22 6 55
22 73 35 17 13 37 21 42 18 6 -4 9 -1 8 6 -2 7 8 13 23 14 14 1 44 15 65 32
21 17 51 34 67 37 15 4 27 10 27 15 0 12 63 51 92 56 12 3 40 17 63 33 22 15
60 37 85 47 25 10 51 23 58 28 21 16 14 37 -13 37 -15 0 -25 6 -25 14 0 8 -21
30 -47 50 -55 41 -101 78 -240 191 -54 45 -135 109 -180 144 -46 35 -83 67
-83 72 0 6 -55 39 -65 39 -1 0 -11 -11 -23 -25z m103 -73 c-3 -3 -11 0 -18 7
-9 10 -8 11 6 5 10 -3 15 -9 12 -12z m-145 5 c0 -4 -43 -22 -170 -74 -19 -8
-66 -29 -103 -46 -64 -30 -118 -40 -159 -30 -10 2 -18 8 -18 12 0 10 198 76
261 87 8 2 44 14 80 28 57 21 109 32 109 23z m0 -123 l-49 -99 1 78 2 79 45
23 c26 13 47 22 49 21 1 -2 -20 -47 -48 -102z m121 95 c20 -10 20 -11 3 -37
-10 -15 -31 -49 -47 -77 l-28 -50 6 75 c9 96 21 113 66 89z m79 -37 l22 -18
-24 -36 c-14 -20 -31 -50 -38 -67 -20 -50 -33 -37 -28 27 6 61 22 112 37 112
5 0 19 -8 31 -18z m-299 -59 c-10 -21 -34 -73 -55 -115 -21 -42 -35 -82 -32
-87 8 -13 36 -3 36 13 0 7 18 48 39 92 l39 79 -5 -70 c-3 -38 -8 -83 -12 -100
-4 -16 -9 -57 -10 -90 -1 -33 -6 -91 -11 -130 -5 -38 -10 -96 -10 -127 0 -32
-4 -58 -10 -58 -5 0 -28 7 -51 16 l-41 17 6 71 c4 39 8 89 11 111 2 22 7 103
11 180 3 77 7 151 9 165 2 14 4 29 4 33 1 10 60 36 83 37 16 0 16 -3 -1 -37z
m364 23 c18 -13 17 -15 -7 -76 l-25 -64 -1 52 c-1 28 -2 54 -3 59 -3 19 2 43
9 43 5 0 17 -6 27 -14z m-516 -106 c-38 -77 -57 -102 -46 -60 3 11 2 22 -2 25
-5 2 -7 21 -6 42 2 32 7 41 36 55 19 10 39 18 46 18 6 0 -7 -36 -28 -80z m275
56 c-3 -8 -10 -95 -14 -193 -5 -98 -11 -191 -13 -208 -2 -16 -7 -61 -12 -100
-4 -38 -9 -77 -11 -85 -1 -8 -3 -18 -3 -22 -1 -4 -14 -2 -30 3 -28 10 -28 12
-26 69 2 33 6 63 9 68 4 7 11 102 20 279 2 44 9 69 25 88 11 15 21 34 21 42 0
15 28 73 35 73 2 0 2 -6 -1 -14z m451 -110 c24 -20 26 -24 14 -49 -7 -15 -16
-27 -21 -27 -5 0 -7 4 -3 9 3 6 -3 14 -12 20 -16 9 -16 12 -3 20 8 6 11 14 6
18 -8 8 -23 -8 -58 -58 l-17 -24 4 30 c2 17 7 47 11 68 5 28 3 37 -7 37 -14 0
-42 -47 -65 -110 l-13 -35 -2 30 c-1 17 0 35 1 40 6 29 1 88 -9 98 -8 8 -11 5
-12 -13 -1 -14 -4 -47 -6 -75 -2 -27 -5 -124 -6 -214 -3 -161 -4 -163 -28
-177 -13 -7 -27 -13 -31 -14 -13 0 -9 122 5 170 8 25 13 79 11 120 -2 60 2 79
17 99 10 13 19 34 19 46 0 12 7 42 16 68 l16 46 73 -51 c40 -28 85 -61 100
-72z m-1867 88 c37 -9 73 -18 81 -21 16 -4 -109 -69 -151 -78 l-28 -7 0 67 c0
57 2 66 16 61 8 -3 45 -13 82 -22z m950 -7 c19 -1 30 -7 28 -13 -3 -7 -12 -48
-22 -93 -10 -45 -21 -81 -24 -81 -4 0 -10 33 -14 73 -3 39 -8 88 -12 107 -3
22 -2 30 4 22 4 -7 23 -14 40 -15z m545 -115 c-2 -75 -7 -159 -12 -187 -32
-172 -32 -180 -21 -222 14 -49 10 -57 -31 -72 -30 -10 -30 -10 -25 17 18 90
37 290 35 374 -2 80 0 101 14 116 9 10 14 21 11 24 -6 7 16 88 25 88 3 0 5
-62 4 -138z m-753 119 c0 -5 -6 -14 -14 -20 -8 -7 -24 -37 -37 -69 -12 -31
-25 -61 -30 -66 -11 -12 -22 32 -15 60 4 14 2 24 -4 24 -6 0 -5 12 3 33 10 23
22 34 43 38 44 10 54 10 54 0z m46 -57 c-31 -85 -42 -95 -50 -49 -10 49 20
114 51 115 l23 0 -24 -66z m84 61 c0 -4 -6 -18 -14 -33 -7 -15 -16 -45 -20
-67 -18 -108 -29 -124 -40 -57 -5 33 17 116 40 154 6 9 34 11 34 3z m185 -132
c-2 -71 -9 -144 -14 -163 -6 -19 -11 -56 -11 -82 0 -27 -4 -48 -10 -48 -12 0
-30 34 -29 57 0 16 1 16 8 -1 5 -14 10 -16 15 -8 4 7 4 16 1 22 -3 5 -1 19 5
30 7 13 7 20 0 20 -5 0 -10 -5 -10 -12 0 -6 -2 -9 -5 -7 -2 3 2 25 9 49 17 59
29 190 17 190 -11 0 -17 -27 -26 -115 -4 -33 -13 -89 -21 -125 -7 -36 -14 -69
-14 -74 0 -5 -6 -3 -14 3 -19 16 -14 71 19 221 19 86 34 132 49 147 12 13 24
23 28 23 4 0 5 -57 3 -127z m542 -31 c1 -119 -2 -162 -18 -226 -13 -49 -18
-93 -14 -116 5 -32 3 -38 -20 -50 -31 -17 -44 -4 -46 45 -2 37 -2 33 5 77 3
21 8 62 11 90 3 29 9 64 12 78 3 14 6 49 7 78 0 29 6 56 11 60 6 4 11 23 12
42 3 37 23 84 32 74 3 -3 6 -71 8 -152z m-1146 88 c-27 -52 -38 -46 -27 15 6
30 28 48 47 38 4 -1 -5 -25 -20 -53z m93 3 c-35 -79 -44 -86 -46 -35 -1 23 -2
50 -2 59 -1 15 25 29 61 32 7 1 3 -20 -13 -56z m56 -3 c-34 -67 -45 -76 -35
-27 11 47 33 87 50 87 12 0 8 -14 -15 -60z m-329 -35 c-20 -47 -38 -80 -39
-75 -7 19 20 145 32 152 6 4 18 8 27 8 14 0 10 -15 -20 -85z m129 80 c0 -3 -9
-22 -20 -42 -11 -21 -20 -42 -20 -48 0 -5 -8 -20 -18 -32 -17 -22 -17 -21 -14
40 2 34 5 68 7 75 4 11 65 18 65 7z m-185 -49 c-7 -24 -21 -58 -29 -74 -9 -17
-16 -40 -16 -51 0 -11 -4 -23 -10 -26 -15 -9 -12 -25 5 -25 7 0 19 8 24 18 8
13 10 2 10 -43 -2 -107 -13 -180 -28 -180 -17 0 -20 37 -21 220 -1 188 3 205
50 205 l28 0 -13 -44z m951 -38 c-6 -86 -22 -208 -30 -243 -2 -11 -5 -44 -5
-72 -1 -54 -5 -60 -31 -43 -20 13 -24 178 -6 223 8 18 26 74 42 124 16 51 31
93 33 93 2 0 1 -37 -3 -82z m-281 -39 c3 -52 2 -136 -1 -187 -7 -93 -7 -93
-33 -90 -30 4 -39 27 -40 113 -1 38 4 68 13 81 8 12 20 52 27 90 21 127 27
126 34 -7z m-764 59 c-5 -13 -23 -48 -40 -78 -22 -39 -31 -49 -31 -33 0 45
-17 31 -24 -20 -3 -28 -8 -68 -11 -87 -2 -19 -6 -60 -8 -90 -5 -59 -14 -68
-49 -49 -13 8 -27 12 -31 11 -4 -1 -7 19 -7 45 1 27 -1 86 -5 133 -3 47 -3 90
2 96 9 13 96 57 91 46 -83 -162 -90 -186 -61 -180 11 2 27 29 44 73 14 38 31
71 37 73 7 2 12 9 12 15 0 20 49 67 70 67 16 0 18 -4 11 -22z m344 -235 c-6
-109 -9 -123 -25 -123 -24 0 -29 24 -23 127 4 89 15 145 36 196 12 27 12 26
15 -25 2 -29 1 -108 -3 -175z m-85 46 c-6 -90 -14 -167 -16 -171 -3 -4 -12 -8
-20 -8 -8 0 -12 5 -9 10 4 6 3 19 -1 28 -4 9 -6 60 -6 112 2 80 5 97 21 110
10 8 22 32 25 54 15 79 17 23 6 -135z m237 -81 c-5 -49 -13 -88 -16 -88 -12 0
-31 89 -31 144 0 34 5 58 14 65 8 7 14 27 14 45 0 19 4 45 8 57 15 40 22 -124
11 -223z m1399 152 c22 -16 49 -59 41 -66 -2 -3 -17 -7 -32 -10 -16 -3 -39
-14 -53 -24 -13 -11 -29 -17 -34 -14 -13 8 -1 51 23 85 10 15 19 32 19 38 0
18 -18 12 -34 -11 -16 -22 -16 -21 -16 20 0 23 -4 42 -8 42 -11 0 -36 -165
-27 -179 3 -6 3 -11 0 -11 -3 0 -12 15 -20 34 -13 30 -12 41 5 99 10 37 21 71
25 77 4 7 23 -4 48 -27 23 -21 51 -45 63 -53z m-1728 9 c-10 -7 -10 -9 0 -9
10 0 11 -16 6 -72 -10 -94 -7 -147 8 -165 10 -13 6 -14 -33 -11 l-44 4 3 99
c3 79 7 104 23 126 11 16 25 43 32 61 l12 33 3 -29 c2 -16 -2 -32 -10 -37z
m419 -84 c0 -130 -2 -145 -18 -145 -36 0 -41 175 -6 246 11 24 22 44 22 44 1
0 2 -65 2 -145z m1039 103 c-17 -125 -17 -140 -2 -152 8 -6 18 -27 21 -48 6
-32 4 -38 -20 -54 -33 -22 -44 -9 -46 51 0 22 -3 60 -5 86 -4 36 -1 48 16 64
11 10 20 30 20 45 0 24 7 40 17 40 1 0 1 -15 -1 -32z m79 -48 c-6 -71 -5 -82
14 -106 27 -34 26 -38 -3 -52 -29 -13 -31 -9 -46 85 -9 55 -8 72 6 109 26 67
36 54 29 -36z m-1715 -47 c-1 -65 1 -133 3 -151 l4 -33 -41 3 -41 3 0 73 c0
60 3 76 19 87 24 18 46 61 46 89 -1 19 -2 18 -16 -6 -8 -16 -17 -28 -20 -28
-3 0 5 18 17 40 13 22 24 40 26 40 2 0 3 -53 3 -117z m667 -47 c-1 -82 -6
-116 -14 -116 -6 0 -11 8 -11 18 1 9 -2 56 -6 103 -5 59 -4 89 3 94 6 3 11 16
11 28 1 18 2 19 10 6 5 -9 8 -68 7 -133z m-243 77 c-1 -26 -2 -83 -3 -125 -1
-62 -4 -78 -16 -78 -8 0 -12 6 -9 14 3 8 2 22 -3 30 -5 9 -4 54 3 108 7 51 13
97 13 101 1 5 5 6 9 3 5 -3 8 -27 6 -53z m-474 -13 c0 -5 -5 -10 -11 -10 -5 0
-7 5 -4 10 3 6 8 10 11 10 2 0 4 -4 4 -10z m963 -210 c84 -42 70 -48 -45 -19
-28 7 -35 13 -31 28 6 23 15 22 76 -9z m-1015 -17 c52 -5 61 -8 50 -19 -11
-11 -116 -44 -140 -44 -4 0 -8 18 -8 41 0 35 3 40 18 34 9 -4 45 -9 80 -12z"/>
<path d="M1856 246 c-16 -13 -25 -29 -22 -35 9 -14 20 -8 46 29 26 36 16 38
-24 6z"/>
</g>
</svg>
