<?xml version="1.0" standalone="no"?>
<!DOCTYPE svg PUBLIC "-//W3C//DTD SVG 20010904//EN"
 "http://www.w3.org/TR/2001/REC-SVG-20010904/DTD/svg10.dtd">
<svg version="1.0" xmlns="http://www.w3.org/2000/svg"
 width="261.000000pt" height="158.000000pt" viewBox="0 0 261.000000 158.000000"
 preserveAspectRatio="xMidYMid meet">
<metadata>
Created by potrace 1.16, written by Peter Selinger 2001-2019
</metadata>
<g transform="translate(0.000000,158.000000) scale(0.100000,-0.100000)"
fill="#000000" stroke="none">
<path d="M1186 1414 c-4 -43 -8 -104 -11 -134 -2 -30 -4 -58 -5 -62 0 -14 -38
-8 -43 6 -4 11 -23 13 -89 9 -56 -4 -118 0 -183 11 -177 30 -318 48 -440 56
-66 4 -133 11 -150 17 -40 12 -60 7 -73 -20 -12 -26 -25 -253 -27 -492 -1 -93
-5 -185 -9 -203 -6 -25 -4 -32 8 -32 11 0 21 19 32 59 17 59 17 60 63 70 25 5
67 13 93 16 l47 6 -4 -37 c-3 -20 -10 -84 -16 -143 -6 -58 -13 -126 -16 -150
-7 -59 17 -52 32 10 7 24 16 53 22 64 6 11 27 74 47 139 20 66 38 121 39 123
2 1 39 5 83 8 267 16 348 22 402 31 23 3 58 3 78 -1 l36 -6 -7 -67 c-3 -37
-10 -93 -16 -125 -5 -32 -8 -66 -4 -76 3 -11 -3 -25 -15 -36 -18 -16 -20 -29
-17 -127 1 -59 5 -108 10 -108 4 0 23 15 41 33 18 18 62 47 97 64 76 38 325
120 389 128 25 4 59 11 75 16 17 4 82 17 145 28 63 11 129 23 146 26 l31 7
-27 -79 c-14 -43 -35 -98 -47 -123 -21 -48 -37 -170 -22 -170 17 0 44 71 80
215 6 21 14 44 18 50 4 5 16 33 26 62 21 58 26 60 150 69 39 3 81 9 95 14 48
18 185 38 223 33 63 -9 45 28 -23 47 -25 7 -58 18 -75 25 -16 7 -76 28 -132
46 l-102 33 57 109 c31 60 67 119 79 131 37 35 29 42 -51 38 -44 -3 -82 1 -95
8 -28 14 -53 -3 -50 -34 1 -12 -3 -46 -9 -76 -6 -30 -13 -72 -15 -93 -3 -21
-7 -40 -8 -42 -7 -6 -192 61 -272 98 -77 36 -77 36 -66 64 7 15 18 44 26 63 8
19 18 43 23 52 12 22 80 196 80 204 0 17 64 141 83 161 11 13 18 25 15 28 -9
9 -184 19 -555 31 l-191 7 -6 -79z m152 29 c-2 -5 -28 -59 -58 -120 -52 -109
-78 -143 -66 -85 3 15 7 63 8 107 1 44 3 86 6 93 3 7 24 12 59 12 30 0 53 -3
51 -7z m361 -8 c1 -2 -9 -84 -25 -182 -15 -98 -28 -214 -29 -258 -2 -97 -11
-141 -31 -149 -9 -3 -12 -10 -9 -16 4 -6 10 -8 14 -6 9 6 -5 -77 -29 -169 -10
-38 -22 -89 -25 -112 -7 -46 -2 -44 -140 -58 -27 -3 -84 -9 -125 -14 -154 -20
-180 -21 -180 -6 0 8 4 17 10 20 5 3 10 16 9 28 0 12 3 68 7 125 7 96 9 104
30 113 24 9 33 29 13 29 -7 0 -9 10 -4 28 4 15 11 63 16 107 14 129 19 160 29
163 5 2 7 9 4 16 -7 19 22 85 41 93 13 5 14 7 3 14 -10 7 -10 15 5 42 10 18
20 40 21 48 6 32 45 106 69 132 l26 27 148 -6 c81 -3 150 -7 152 -9z m125 -7
l44 -12 -25 -55 c-14 -31 -35 -85 -48 -121 -21 -62 -30 -84 -61 -155 -7 -17
-18 -44 -25 -60 -19 -46 -22 -9 -9 93 6 48 15 128 20 177 6 50 12 99 14 110 3
11 5 23 5 28 1 10 34 9 85 -5z m-1384 -198 c-6 -11 -14 -20 -18 -20 -4 0 -15
-13 -25 -29 -9 -16 -29 -32 -43 -35 -18 -5 -24 -11 -20 -23 4 -8 -7 -37 -24
-64 -16 -27 -30 -51 -30 -54 0 -2 -11 -28 -24 -57 -14 -29 -28 -66 -31 -81 -9
-33 -23 -45 -19 -14 2 12 8 98 14 192 8 144 12 171 27 180 16 9 47 13 181 23
20 2 21 -1 12 -18z m294 -5 c55 -8 107 -15 115 -15 13 -1 13 -2 -2 -11 -9 -6
-48 -13 -85 -15 -37 -3 -128 -14 -202 -25 -74 -10 -139 -19 -143 -19 -17 0 41
63 78 86 44 26 51 26 239 -1z m426 -72 c0 -16 -7 -77 -15 -138 -8 -60 -18
-136 -22 -168 l-6 -59 -261 6 c-261 7 -326 12 -326 26 0 18 73 167 93 188 34
37 12 46 -79 31 -122 -19 -121 -18 -114 -76 5 -39 -10 -122 -25 -141 -2 -2
-27 -5 -56 -7 -30 -3 -69 -7 -87 -10 l-32 -6 19 43 c11 24 31 73 46 110 15 38
40 87 56 111 26 40 33 44 91 55 78 14 193 30 278 37 36 3 90 9 120 14 30 5
115 9 188 10 l132 1 0 -27z m-624 -233 c-35 -96 -43 -109 -63 -105 -10 2 -22
4 -27 4 -5 1 -5 24 -1 54 5 28 9 68 9 87 1 35 2 35 51 40 28 3 51 2 53 -2 2
-4 -8 -39 -22 -78z m1644 -44 c-30 -63 -58 -118 -62 -122 -4 -4 -14 -1 -22 6
-21 17 -13 111 19 216 2 6 30 12 62 13 l59 2 -56 -115z m-389 -23 c26 -13 51
-23 55 -23 16 0 194 -72 200 -81 8 -13 1 -12 -58 12 -65 26 -155 53 -228 69
-30 7 -60 14 -67 16 -6 1 -9 12 -6 23 6 25 32 21 104 -16z m12 -63 c105 -31
206 -68 220 -80 5 -4 2 -29 -7 -56 -8 -27 -17 -61 -20 -76 -5 -24 -14 -28 -78
-43 -40 -10 -124 -20 -185 -22 l-113 -6 0 35 c0 19 6 48 14 64 8 16 17 54 20
84 5 50 11 83 22 118 5 17 11 16 127 -18z m-1403 -30 c0 -14 -12 -19 -52 -25
-64 -8 -85 -12 -115 -20 -21 -5 -23 -2 -20 19 4 36 12 40 80 46 81 7 107 2
107 -20z m78 8 c-7 -20 -48 -23 -48 -4 0 11 9 16 26 16 16 0 24 -5 22 -12z
m227 -3 c-20 -8 -195 -10 -195 -2 0 4 46 7 103 6 56 0 98 -2 92 -4z m1395 -35
c0 -5 -7 -7 -15 -4 -8 4 -15 8 -15 10 0 2 7 4 15 4 8 0 15 -4 15 -10z m-1655
-82 c-24 -100 -33 -104 -22 -11 8 67 22 102 35 88 3 -2 -3 -37 -13 -77z m1719
63 c4 -5 -3 -7 -14 -4 -23 6 -26 13 -6 13 8 0 17 -4 20 -9z m-84 -20 c0 -14
-34 -71 -43 -71 -4 0 0 16 8 36 8 20 15 38 15 40 0 2 5 4 10 4 6 0 10 -4 10
-9z m125 -24 c33 -8 87 -18 120 -22 33 -4 66 -11 74 -15 18 -9 -105 -36 -231
-49 -53 -6 -104 -14 -113 -17 -15 -6 -16 -4 -5 17 44 83 63 109 79 105 9 -3
43 -11 76 -19z m-640 -197 c-3 -5 -12 -10 -20 -10 -13 0 -161 -45 -298 -91
-33 -11 -81 -31 -108 -44 -26 -14 -51 -25 -54 -25 -7 0 -6 41 1 79 8 39 23 47
99 55 33 4 103 13 155 21 152 24 234 29 225 15z"/>
</g>
</svg>
