<?xml version="1.0" standalone="no"?>
<!DOCTYPE svg PUBLIC "-//W3C//DTD SVG 20010904//EN"
 "http://www.w3.org/TR/2001/REC-SVG-20010904/DTD/svg10.dtd">
<svg version="1.0" xmlns="http://www.w3.org/2000/svg"
 width="311.000000pt" height="123.000000pt" viewBox="0 0 311.000000 123.000000"
 preserveAspectRatio="xMidYMid meet">
<metadata>
Created by potrace 1.16, written by Peter Selinger 2001-2019
</metadata>
<g transform="translate(0.000000,123.000000) scale(0.100000,-0.100000)"
fill="#000000" stroke="none">
<path d="M421 1093 c-11 -23 -26 -43 -33 -45 -11 -4 -11 -8 0 -20 11 -13 8
-16 -14 -21 -15 -3 -52 -3 -82 -1 -51 4 -82 -6 -82 -26 0 -17 71 -32 120 -25
l49 7 -23 -49 c-29 -60 -96 -265 -96 -294 0 -13 -3 -19 -7 -16 -3 4 -7 80 -8
169 -3 188 -2 178 -16 178 -7 0 -10 -29 -8 -82 1 -46 -2 -181 -6 -300 -5 -153
-4 -218 3 -218 6 0 14 5 18 11 3 6 17 -7 31 -32 13 -24 30 -47 36 -51 17 -10
29 2 24 23 -6 21 5 29 73 52 25 8 53 18 62 22 14 6 18 -3 24 -65 9 -93 28 -88
32 9 l3 72 36 16 c20 8 68 23 107 33 39 10 116 35 171 55 249 92 257 94 290
78 16 -9 52 -31 79 -50 53 -38 136 -86 136 -79 0 2 59 -27 131 -65 71 -38 133
-69 137 -69 4 0 29 -15 55 -34 59 -42 165 -94 208 -103 27 -5 31 -4 26 10 -4
10 -2 17 2 17 5 0 12 44 16 98 8 125 15 175 24 185 11 12 284 64 396 75 55 6
127 8 160 4 33 -3 83 -7 112 -7 49 0 51 -1 36 -18 -9 -9 -33 -22 -54 -27 -20
-6 -40 -17 -43 -26 -4 -11 -1 -14 13 -9 12 4 29 -5 52 -26 19 -17 59 -48 89
-69 30 -21 70 -51 88 -68 31 -29 141 -92 162 -92 21 0 9 26 -21 44 -17 10 -54
41 -83 70 -28 28 -68 62 -88 76 -21 14 -32 27 -26 31 6 4 7 19 3 38 -8 36 1
72 18 68 7 -1 11 8 9 23 -11 88 16 167 66 195 36 20 99 75 85 75 -5 0 -21 -8
-34 -18 -60 -46 -131 -92 -211 -136 -49 -26 -88 -50 -88 -53 0 -2 10 -3 23 -1
13 1 38 -7 57 -19 l34 -22 -289 4 c-285 4 -434 11 -442 19 -14 14 42 226 60
226 4 0 5 5 2 10 -4 6 7 23 24 39 17 16 31 33 31 39 0 13 -188 26 -203 13 -9
-7 -11 -35 -5 -103 7 -94 10 -376 5 -545 -2 -83 -4 -90 -18 -77 -8 8 -25 14
-38 14 -23 0 -110 41 -132 62 -8 8 -57 35 -109 62 -151 77 -245 129 -248 138
-2 4 -11 8 -19 8 -9 0 -37 15 -63 34 -26 18 -56 37 -67 40 -12 4 -26 13 -33
21 -9 11 -4 16 32 25 24 6 81 23 128 37 47 15 93 28 103 30 10 2 59 18 110 37
145 54 259 89 289 88 14 0 32 5 38 13 25 30 -31 25 -146 -15 -66 -22 -228 -72
-362 -111 -200 -57 -246 -67 -264 -58 -11 6 -56 44 -100 85 -43 41 -83 74 -88
74 -6 0 -27 15 -47 33 -21 19 -67 53 -103 77 -36 24 -109 77 -163 117 -54 40
-102 73 -107 73 -5 0 -13 8 -18 17 -8 14 -13 10 -31 -24z m139 -93 c19 -13 37
-27 40 -31 3 -4 37 -30 75 -58 136 -97 148 -117 20 -31 -38 26 -108 69 -155
95 -105 59 -105 58 -89 84 13 20 14 20 44 -8 16 -15 46 -38 65 -51z m-23 -57
c37 -20 95 -55 128 -77 33 -23 67 -45 76 -51 51 -32 98 -65 103 -74 3 -5 34
-24 68 -41 35 -18 81 -44 102 -58 l40 -25 -70 -18 c-182 -49 -424 -103 -430
-96 -12 11 68 223 92 245 14 12 21 22 17 23 -4 1 -50 3 -101 5 -101 4 -115 -3
-91 -48 9 -15 13 -64 14 -136 l0 -113 -55 -15 c-30 -8 -65 -19 -78 -25 -13 -5
-39 -9 -59 -9 -30 0 -34 3 -28 18 4 9 12 55 17 102 12 100 49 230 90 315 28
60 70 115 88 115 5 0 40 -17 77 -37z m1441 -52 c11 -7 7 -29 -20 -117 l-33
-109 -6 60 c-4 33 -10 86 -14 118 l-7 57 34 0 c18 0 39 -4 46 -9z m-1062 -152
c8 -13 -21 1 -51 26 -19 15 -18 15 12 1 17 -9 35 -21 39 -27z m-338 -8 c13 -8
0 -70 -42 -201 -13 -41 -15 -42 -16 -15 0 17 -2 64 -4 105 -1 41 -6 85 -10 98
-7 20 -4 22 26 22 18 0 39 -4 46 -9z m2153 -70 l-15 -50 -28 20 c-15 11 -28
25 -28 30 0 7 62 42 86 49 0 0 -6 -22 -15 -49z m-2480 -134 c-8 -8 -11 -2 -11
19 0 40 14 54 18 19 2 -15 -1 -32 -7 -38z m1912 33 c4 -4 -20 -13 -55 -19
-129 -25 -159 -31 -167 -31 -11 0 -1 53 12 61 13 9 200 -1 210 -11z m-1238 -9
c-15 -14 -117 -47 -263 -86 -74 -19 -136 -35 -138 -35 -3 0 0 8 5 18 7 13 35
24 93 36 138 28 257 56 281 66 29 12 33 12 22 1z m1780 -101 c5 -8 -6 -3 -24
13 -18 15 -37 27 -42 27 -19 0 -8 20 19 34 27 14 27 14 32 -22 3 -20 10 -44
15 -52z m-2219 -11 c10 -17 -16 -34 -99 -64 -66 -24 -80 -26 -88 -14 -15 24
-6 31 76 59 93 32 102 34 111 19z"/>
</g>
</svg>
