<?xml version="1.0" standalone="no"?>
<!DOCTYPE svg PUBLIC "-//W3C//DTD SVG 20010904//EN"
 "http://www.w3.org/TR/2001/REC-SVG-20010904/DTD/svg10.dtd">
<svg version="1.0" xmlns="http://www.w3.org/2000/svg"
 width="230.000000pt" height="102.000000pt" viewBox="0 0 230.000000 102.000000"
 preserveAspectRatio="xMidYMid meet">
<metadata>
Created by potrace 1.16, written by Peter Selinger 2001-2019
</metadata>
<g transform="translate(0.000000,102.000000) scale(0.100000,-0.100000)"
fill="#000000" stroke="none">
<path d="M1286 1001 c-4 -5 0 -11 6 -14 27 -10 -17 -36 -64 -38 -37 -2 -53 2
-71 19 l-23 22 -17 -21 c-14 -16 -25 -19 -55 -13 -20 4 -46 14 -56 23 -18 15
-19 15 -13 -1 6 -16 -1 -18 -61 -17 -37 0 -76 4 -86 8 -18 7 -45 -1 -96 -28
-9 -5 -19 -2 -27 8 -21 28 -39 -6 -56 -109 -26 -153 -31 -184 -28 -195 1 -5 0
-34 -4 -62 l-6 -53 -242 1 c-210 1 -242 -1 -253 -15 -6 -9 -14 -53 -18 -99
-11 -135 -17 -181 -27 -199 -7 -12 -5 -27 5 -45 l14 -28 314 3 c172 2 340 7
373 12 34 5 92 5 135 0 41 -4 78 -6 81 -4 4 2 35 6 69 9 l61 4 91 -80 c50 -44
93 -77 97 -73 3 3 -27 37 -68 75 -81 75 -81 93 0 29 28 -22 56 -40 62 -40 6 0
-7 18 -28 40 l-39 40 42 0 c31 0 42 -4 42 -15 0 -8 5 -15 10 -15 6 0 29 -14
52 -30 54 -39 62 -30 15 18 -21 21 -34 41 -31 45 13 13 61 7 74 -8 7 -8 19
-15 27 -15 12 0 13 3 4 14 -11 13 32 14 311 13 309 -2 323 -1 326 17 5 23 -14
36 -55 36 -61 0 -65 49 -23 280 22 118 22 133 11 279 -6 85 -14 158 -16 162
-3 4 -22 5 -42 3 -155 -15 -196 -16 -220 -3 -19 10 -29 10 -43 1 -13 -8 -68
-10 -182 -6 -197 6 -199 6 -237 44 -16 17 -32 26 -35 21z m-126 -51 c0 -5 -7
-7 -15 -4 -8 4 -15 8 -15 10 0 2 7 4 15 4 8 0 15 -4 15 -10z m-223 -84 c47
-39 50 -45 36 -59 -15 -14 -22 -12 -80 29 -76 55 -83 44 -11 -19 52 -45 65
-76 16 -38 -27 22 -78 38 -78 25 0 -5 21 -21 46 -37 38 -23 44 -30 34 -42 -16
-19 -24 -19 -66 1 -49 23 -66 11 -21 -16 42 -25 44 -31 19 -47 -15 -9 -26 -6
-62 18 -47 32 -60 35 -60 17 0 -7 17 -22 37 -33 44 -23 52 -45 23 -62 -17 -11
-24 -9 -49 15 l-30 27 18 124 c12 76 24 127 32 132 8 5 44 9 80 9 63 0 67 -2
116 -44z m123 34 c0 -5 -7 -10 -15 -10 -9 0 -18 -7 -21 -15 -5 -12 -9 -12 -31
2 -18 12 -21 18 -11 24 18 12 78 11 78 -1z m934 -7 c3 -10 9 -61 14 -113 13
-132 8 -214 -23 -360 -9 -41 -17 -106 -17 -143 -2 -63 -4 -68 -26 -74 -13 -3
-112 -3 -220 0 -183 6 -197 8 -219 29 -32 30 -21 35 16 7 43 -32 53 -13 12 22
-34 28 -34 29 -16 49 10 11 21 20 25 20 3 0 25 -16 47 -35 65 -55 75 -43 16
19 -31 33 -34 40 -22 50 9 6 18 19 22 30 6 15 14 17 42 12 35 -7 49 6 20 18
-20 7 -19 26 2 26 9 0 13 3 10 7 -4 3 -2 12 5 20 9 11 15 10 34 -8 30 -28 44
-16 17 14 -11 12 -18 28 -16 35 5 12 32 -3 78 -45 54 -48 65 -55 65 -44 0 6
-25 35 -55 63 -30 28 -55 54 -55 58 0 4 11 13 25 20 23 12 28 11 50 -10 14
-13 28 -20 32 -16 4 3 -7 19 -24 33 l-32 27 47 56 c26 30 59 68 75 84 19 19
25 32 18 39 -10 10 -117 -76 -151 -123 l-18 -25 -27 25 c-14 13 -24 31 -23 39
2 8 39 42 83 76 44 33 91 77 104 98 18 28 31 37 52 37 18 0 30 -6 33 -17z
m-826 -18 c12 -14 19 -25 14 -25 -10 0 -72 39 -72 45 0 15 39 2 58 -20z m119
17 c7 -4 9 -13 4 -21 -5 -8 -14 -10 -22 -6 -9 6 -11 3 -6 -8 8 -22 -16 -23
-33 -2 -11 14 -7 19 13 16 4 0 7 6 7 14 0 16 18 19 37 7z m123 -23 c0 -5 -11
-9 -25 -9 -26 0 -35 25 -12 33 13 5 37 -10 37 -24z m150 24 c0 -5 -8 -18 -18
-31 -16 -21 -19 -21 -40 -6 -18 12 -21 19 -11 30 12 14 69 20 69 7z m107 -25
c-9 -13 -27 -36 -40 -52 -24 -28 -25 -28 -51 -11 -32 21 -32 29 -3 60 14 16
36 25 62 27 50 4 51 3 32 -24z m193 28 c0 -2 -39 -43 -87 -89 l-86 -86 -34 26
c-18 14 -32 31 -30 37 2 6 30 34 63 61 54 46 64 50 117 53 31 1 57 0 57 -2z
m-741 -30 c14 -15 19 -26 12 -30 -14 -9 -61 22 -61 40 0 22 24 17 49 -10z
m101 20 c0 -11 -19 -15 -25 -6 -3 5 1 10 9 10 9 0 16 -2 16 -4z m-136 -65 c-2
-3 -12 3 -22 13 -16 17 -16 18 5 5 12 -7 20 -15 17 -18z m267 19 c27 -15 25
-42 -3 -38 -14 2 -23 10 -22 20 1 11 -4 14 -14 11 -10 -4 -13 -2 -8 5 9 15 22
15 47 2z m149 -12 c0 -6 -6 -5 -15 2 -8 7 -15 14 -15 16 0 2 7 1 15 -2 8 -4
15 -11 15 -16z m-270 -8 c6 -11 7 -20 2 -20 -10 0 -32 21 -32 32 0 16 19 8 30
-12z m250 -22 c0 -5 -3 -8 -7 -8 -10 0 -43 32 -43 42 0 11 49 -24 50 -34z
m-270 -17 c0 -14 -6 -14 -31 0 -16 8 -18 13 -9 24 10 12 14 12 26 0 8 -7 14
-18 14 -24z m364 -4 c14 -10 16 -16 7 -22 -7 -4 -22 2 -37 16 -45 42 -24 46
30 6z m-539 3 c24 -27 8 -47 -24 -31 -21 12 -27 31 -14 44 10 11 19 8 38 -13z
m300 2 c-3 -3 -11 0 -18 7 -9 10 -8 11 6 5 10 -3 15 -9 12 -12z m105 -10 c-1
-27 -39 -44 -63 -27 -15 11 -15 13 4 34 16 17 24 19 39 11 11 -6 20 -14 20
-18z m-130 -30 c-15 -5 -41 18 -34 30 3 5 15 1 26 -9 11 -10 15 -19 8 -21z
m240 -5 c0 -4 -11 0 -25 10 -13 10 -25 22 -25 26 0 4 11 0 25 -10 13 -10 25
-22 25 -26z m-390 -7 c0 -14 -28 -1 -34 16 -4 12 -2 12 14 4 11 -6 20 -15 20
-20z m-161 -18 c-12 -5 -39 17 -39 30 0 5 11 1 24 -9 13 -10 20 -20 15 -21z
m645 9 c18 -18 24 -31 17 -36 -13 -8 -70 34 -70 53 -1 21 24 13 53 -17z m-363
3 c12 -14 11 -16 -5 -13 -11 2 -21 10 -24 17 -5 17 13 15 29 -4z m-157 -17 c8
-12 7 -20 -1 -28 -18 -18 -58 18 -41 38 13 16 28 13 42 -10z m253 -23 c-10
-10 -37 16 -37 34 0 13 4 12 22 -5 12 -13 19 -25 15 -29z m-421 7 c21 -16 22
-20 9 -31 -13 -10 -19 -10 -35 5 -10 9 -16 23 -13 31 7 18 10 18 39 -5z m544
-12 c0 -14 -33 -19 -46 -8 -23 19 2 42 27 26 10 -6 19 -15 19 -18z m-270 -4
c14 -16 10 -18 -14 -9 -9 3 -16 10 -16 15 0 14 16 11 30 -6z m110 0 c20 -24 6
-28 -15 -5 -10 11 -13 20 -8 20 6 0 16 -7 23 -15z m266 -36 c15 -26 -6 -15
-37 18 l-34 36 32 -22 c18 -12 35 -27 39 -32z m-531 21 c10 -11 14 -20 9 -20
-12 1 -44 25 -44 34 0 12 17 6 35 -14z m655 -15 c19 -20 21 -28 12 -37 -10
-10 -18 -6 -37 16 -23 26 -25 46 -6 46 4 0 18 -11 31 -25z m-800 -31 c0 -17
-40 -24 -61 -11 -24 15 -24 33 -2 45 18 11 62 -13 63 -34z m270 31 c19 -22 -3
-44 -25 -25 -19 16 -20 40 -1 40 7 0 19 -7 26 -15z m240 0 c7 -9 10 -18 7 -21
-7 -8 -47 14 -47 26 0 15 26 12 40 -5z m-406 -17 c12 -17 13 -24 4 -29 -16
-10 -48 19 -41 37 7 20 19 17 37 -8z m508 3 c-1 -6 5 -14 13 -17 17 -7 20 -34
4 -34 -11 0 -59 49 -59 61 0 3 10 5 23 4 12 -2 21 -8 19 -14z m-247 -4 c13
-10 15 -16 6 -21 -12 -8 -41 10 -41 25 0 13 13 11 35 -4z m110 -17 c10 -11 14
-20 8 -20 -5 0 -18 9 -28 20 -10 11 -14 20 -8 20 5 0 18 -9 28 -20z m-257 -12
c16 -16 15 -29 -2 -22 -16 6 -30 34 -18 34 5 0 13 -5 20 -12z m357 -15 c26
-29 31 -43 16 -43 -12 0 -61 47 -61 60 0 18 18 11 45 -17z m185 -35 c0 -15
-17 -8 -39 16 -13 14 -20 30 -16 36 5 8 15 3 31 -16 13 -16 23 -32 24 -36z
m-967 38 c17 -13 17 -15 -5 -30 -31 -22 -35 -20 -30 14 5 34 9 35 35 16z m132
-6 c17 -19 17 -22 3 -36 -14 -15 -18 -14 -41 1 -22 14 -24 19 -14 36 15 24 29
24 52 -1z m130 5 c19 -15 19 -16 -3 -37 -21 -21 -22 -21 -42 -3 -19 17 -19 19
-4 37 20 22 23 22 49 3z m278 3 c8 -25 -3 -38 -23 -26 -10 6 -16 18 -13 25 6
17 30 17 36 1z m113 -37 c-10 -16 -31 -14 -46 4 -10 12 -10 18 0 31 12 13 15
13 33 -4 11 -11 16 -25 13 -31z m-253 -7 c-3 -14 -17 -14 -37 1 -26 20 -10 40
17 22 12 -8 21 -18 20 -23z m359 -2 c10 -8 15 -19 12 -24 -7 -11 -41 18 -57
47 -9 19 -9 19 9 5 10 -8 27 -21 36 -28z m151 0 c21 -22 24 -31 15 -40 -9 -9
-18 -6 -40 15 -15 15 -28 33 -28 40 0 22 25 15 53 -15z m-412 -8 c12 -14 11
-16 -5 -13 -11 2 -21 10 -24 17 -5 17 13 15 29 -4z m109 -34 c-22 -13 -54 18
-38 37 10 12 15 11 32 -7 18 -18 19 -22 6 -30z m-526 25 c11 -8 17 -17 14 -20
-8 -9 -58 17 -52 26 7 12 16 11 38 -6z m120 2 c13 -10 16 -20 12 -35 -9 -27
-14 -27 -45 -3 -42 32 -9 69 33 38z m520 -26 c14 -15 16 -25 9 -32 -8 -8 -20
-2 -42 21 -31 33 -33 57 -3 41 10 -5 26 -19 36 -30z m-369 14 c19 -15 19 -15
-2 -37 -21 -20 -23 -21 -48 -4 -26 17 -26 18 -9 37 20 23 32 23 59 4z m518
-13 c15 -16 24 -31 21 -35 -7 -7 -74 43 -74 56 0 16 28 5 53 -21z m-409 -1
c12 -13 14 -21 6 -26 -13 -8 -52 24 -44 36 8 14 19 11 38 -10z m106 -44 c0 -6
-9 -2 -20 8 -11 10 -20 23 -20 28 0 6 9 2 20 -8 11 -10 20 -23 20 -28z m272
16 c31 -29 35 -43 15 -43 -17 0 -69 54 -60 63 10 11 15 9 45 -20z m-789 11 c6
-6 -37 -46 -91 -83 -38 -26 -36 -42 2 -17 14 9 30 16 36 16 6 0 25 13 43 30
18 16 37 30 42 30 11 -1 60 -39 54 -43 -43 -29 -119 -92 -119 -98 0 -15 12
-10 39 14 13 12 7 0 -14 -27 -32 -39 -35 -48 -20 -45 11 3 25 15 32 29 6 14
32 45 57 69 l44 43 37 -28 37 -28 -53 -52 c-30 -29 -59 -60 -65 -70 -16 -27
-76 -32 -398 -32 l-279 1 6 56 c4 31 9 83 12 116 12 115 -5 104 158 106 163 2
173 2 244 -2 46 -2 51 -5 40 -18 -16 -21 -44 -46 -69 -63 -21 -14 -18 -38 3
-38 6 0 39 27 74 61 65 62 127 93 148 73z m98 -14 c31 -25 12 -26 -21 0 -14
11 -20 20 -14 20 7 0 22 -9 35 -20z m137 -12 c17 -20 19 -26 7 -41 -12 -17
-14 -16 -44 9 -30 25 -30 27 -14 40 24 18 26 18 51 -8z m397 2 c15 -16 16 -22
5 -35 -12 -14 -16 -13 -36 6 -18 17 -21 25 -13 36 15 18 23 17 44 -7z m-267
-3 c9 -10 7 -19 -4 -35 -13 -18 -18 -20 -34 -9 -24 14 -25 21 -4 41 19 19 28
20 42 3z m126 -26 c3 -5 0 -14 -8 -20 -10 -8 -17 -6 -30 8 -22 25 -13 45 14
31 10 -6 21 -14 24 -19z m275 -28 c1 -20 -13 -15 -43 12 -36 33 -24 53 14 23
16 -13 29 -29 29 -35z m-584 2 c17 -14 26 -25 20 -25 -5 0 -23 11 -40 25 -16
13 -25 24 -20 24 6 0 24 -11 40 -24z m390 5 c10 -11 16 -20 13 -20 -3 0 -13 9
-23 20 -10 11 -16 20 -13 20 3 0 13 -9 23 -20z m139 -14 c30 -27 32 -39 10
-61 -15 -15 -19 -14 -45 11 -32 30 -35 44 -17 62 17 17 23 15 52 -12z m-404
-2 c11 -12 10 -18 -3 -32 -16 -15 -18 -15 -34 0 -13 14 -14 20 -3 32 7 9 16
16 20 16 4 0 13 -7 20 -16z m134 -6 c8 -14 7 -22 -7 -35 -16 -16 -18 -16 -39
4 -18 19 -19 24 -8 38 16 19 39 16 54 -7z m105 -11 c19 -21 20 -26 7 -36 -12
-10 -18 -8 -31 13 -9 14 -14 30 -10 36 8 13 8 13 34 -13z m-160 -85 l-13 -21
-28 26 c-26 25 -27 28 -11 45 16 18 17 18 41 -5 21 -21 22 -27 11 -45z m119
35 c22 -23 22 -24 4 -40 -17 -16 -20 -16 -41 6 -13 15 -19 30 -15 40 9 23 27
21 52 -6z m-243 3 c3 -6 -1 -7 -9 -4 -18 7 -21 14 -7 14 6 0 13 -4 16 -10z
m364 -36 c22 -21 30 -35 25 -48 -6 -15 -10 -14 -39 14 -62 60 -48 92 14 34z
m-404 12 c18 -13 18 -15 -8 -49 -34 -45 -20 -57 18 -17 l29 30 28 -27 c15 -15
28 -30 28 -35 0 -10 -118 -11 -185 -1 l-47 6 30 31 c17 17 40 41 51 54 24 26
31 27 56 8z m455 -6 c0 -5 -2 -10 -4 -10 -3 0 -8 5 -11 10 -3 6 -1 10 4 10 6
0 11 -4 11 -10z m-350 -25 c25 -27 25 -41 0 -22 -23 19 -43 47 -33 47 5 0 20
-11 33 -25z m128 -8 l22 -24 -20 -18 c-19 -17 -21 -17 -40 0 -23 21 -25 36 -8
53 17 17 21 15 46 -11z m126 -12 c8 -8 19 -15 24 -15 6 0 12 -7 16 -15 4 -12
-3 -15 -33 -15 -46 0 -70 22 -51 45 7 8 16 15 21 15 4 0 14 -7 23 -15z m126
-35 c12 -8 9 -10 -13 -10 -16 0 -26 4 -22 10 8 12 16 12 35 0z m-195 -10 c3
-5 1 -10 -4 -10 -6 0 -11 5 -11 10 0 6 2 10 4 10 3 0 8 -4 11 -10z"/>
<path d="M678 361 c-18 -16 -30 -32 -27 -35 3 -3 21 10 39 29 41 42 33 46 -12
6z"/>
</g>
</svg>
