<?xml version="1.0" standalone="no"?>
<!DOCTYPE svg PUBLIC "-//W3C//DTD SVG 20010904//EN"
 "http://www.w3.org/TR/2001/REC-SVG-20010904/DTD/svg10.dtd">
<svg version="1.0" xmlns="http://www.w3.org/2000/svg"
 width="259.000000pt" height="148.000000pt" viewBox="0 0 259.000000 148.000000"
 preserveAspectRatio="xMidYMid meet">
<metadata>
Created by potrace 1.16, written by Peter Selinger 2001-2019
</metadata>
<g transform="translate(0.000000,148.000000) scale(0.100000,-0.100000)"
fill="#000000" stroke="none">
<path d="M1100 1397 c-14 -12 -32 -39 -40 -60 l-15 -38 -68 -4 c-37 -2 -77 -7
-87 -10 -20 -7 -28 -35 -10 -35 7 0 9 -52 6 -152 -7 -225 6 -201 -117 -206
-57 -2 -165 2 -239 8 -74 7 -148 11 -165 11 -16 0 -61 4 -98 11 -59 10 -70 9
-84 -5 -12 -11 -13 -20 -6 -29 16 -21 22 -167 11 -290 -10 -123 -12 -270 -3
-300 7 -20 35 -25 36 -5 0 6 0 44 -1 84 -1 68 0 73 22 78 30 6 179 25 248 30
30 3 80 8 110 12 30 4 64 7 75 8 11 1 48 5 81 9 45 6 64 4 69 -5 12 -19 12
-125 -1 -242 -13 -114 -10 -147 12 -147 8 0 20 -16 28 -35 18 -43 38 -44 66
-5 12 16 25 30 30 30 4 0 64 27 133 60 69 33 128 60 132 60 3 0 43 18 88 41
45 23 111 50 146 61 36 11 74 26 85 33 12 7 47 21 78 30 32 9 60 21 63 26 4 5
13 9 21 9 8 0 34 8 57 19 70 31 280 118 312 129 106 37 115 35 124 -28 7 -51
25 -53 29 -3 1 21 4 43 6 48 2 6 5 15 7 20 4 14 38 30 77 38 73 15 142 39 142
50 0 24 -78 67 -184 101 -41 13 -55 29 -37 41 6 3 11 13 11 21 0 13 -10 14
-64 9 -53 -6 -77 -3 -132 15 -68 23 -455 211 -484 235 -18 15 -178 109 -232
137 -21 10 -48 27 -60 39 -80 71 -95 85 -99 95 -9 23 -53 23 -79 1z m73 -49
c60 -56 179 -135 189 -126 2 1 24 -12 50 -30 26 -18 49 -32 52 -32 3 0 40 -22
83 -49 43 -27 120 -68 171 -92 50 -23 90 -44 88 -46 -2 -3 -26 5 -53 17 -57
26 -232 92 -288 110 -22 7 -44 16 -50 20 -5 4 -25 11 -42 15 -18 3 -35 11 -38
15 -8 13 -94 50 -115 50 -9 0 -44 14 -78 30 l-60 31 17 47 c16 47 29 72 36 72
2 0 19 -15 38 -32z m-173 -120 c0 -11 -6 -43 -14 -71 -8 -29 -24 -96 -37 -149
-12 -54 -26 -98 -30 -98 -4 0 -3 17 2 38 5 20 8 96 8 167 l-1 130 28 6 c36 7
44 3 44 -23z m180 -48 c36 -9 97 -33 135 -52 39 -20 86 -39 105 -43 19 -4 56
-16 82 -27 l47 -20 -15 -29 c-11 -22 -21 -29 -45 -29 -29 0 -30 2 -24 31 5 20
3 29 -3 25 -5 -3 -12 -19 -15 -36 -6 -25 -11 -30 -37 -30 -30 0 -30 0 -24 42
9 51 -12 45 -22 -6 -4 -23 -13 -36 -27 -40 -30 -8 -36 0 -27 39 8 35 -1 52
-20 40 -5 -3 -10 -21 -10 -40 0 -40 -6 -45 -44 -38 -27 5 -28 8 -23 45 7 50
-14 47 -27 -5 -9 -34 -13 -37 -44 -37 -33 0 -34 1 -30 35 5 43 -9 46 -23 5 -6
-16 -14 -31 -17 -31 -4 -1 -26 -2 -50 -3 -34 -2 -41 1 -37 13 9 31 27 107 34
146 4 22 13 50 21 61 12 19 18 20 44 12 17 -6 60 -18 96 -28z m466 -179 c109
-40 136 -50 159 -60 67 -30 176 -71 192 -72 10 -1 3 -5 -16 -9 -18 -4 -45 -6
-60 -4 -96 13 -179 16 -185 5 -4 -6 -9 -72 -12 -147 -4 -113 -2 -141 11 -161
19 -29 39 -20 30 14 l-6 24 106 -2 c58 -2 105 -4 105 -6 0 -1 -33 -12 -72 -24
-146 -43 -560 -184 -591 -201 -11 -6 -48 -17 -81 -25 -54 -12 -271 -79 -320
-99 -18 -7 -19 -3 -12 87 5 52 8 110 9 131 0 43 24 58 93 58 44 0 45 -1 42
-27 -3 -27 -6 -28 -68 -33 -44 -4 -59 -8 -48 -14 10 -4 38 -6 62 -4 45 3 45 3
48 -32 4 -47 33 -49 32 -2 0 17 4 33 10 33 6 1 18 2 26 3 8 0 20 -8 25 -19 12
-23 55 -33 55 -13 0 8 -5 19 -12 26 -9 9 -2 12 35 12 35 0 47 -4 47 -15 0 -20
14 -19 31 1 9 11 23 14 44 11 18 -3 38 -1 46 4 10 6 19 2 31 -14 l18 -22 6 23
c4 15 14 22 30 22 31 0 83 21 66 27 -18 7 -4 124 17 141 15 11 14 13 -2 26
-27 21 -17 50 17 56 41 7 46 30 7 30 -26 0 -31 4 -31 25 0 14 9 30 20 37 23
15 27 38 5 38 -8 0 -15 7 -15 15 0 8 0 18 0 23 -1 4 14 9 31 12 46 7 50 30 5
30 -24 0 -36 5 -36 14 0 9 10 13 31 12 45 -2 47 20 5 35 -20 7 -36 17 -36 21
0 7 20 35 26 38 0 0 36 -13 80 -29z m-598 -50 c28 -1 32 -4 32 -30 0 -28 -2
-29 -56 -33 -31 -1 -58 0 -61 5 -2 4 -2 20 2 36 5 22 11 28 28 26 12 -1 37 -3
55 -4z m132 -32 c0 -15 -7 -19 -35 -19 -27 0 -35 4 -35 18 0 26 6 29 40 24 21
-3 30 -10 30 -23z m260 12 c0 -12 -9 -20 -24 -23 -33 -7 -43 20 -13 32 33 13
37 12 37 -9z m76 3 c-3 -9 -6 -20 -6 -26 0 -21 -45 -3 -48 20 -3 19 1 22 28
22 25 0 31 -3 26 -16z m-236 -14 c0 -17 -7 -20 -40 -20 -33 0 -40 3 -40 20 0
17 7 20 40 20 33 0 40 -3 40 -20z m80 0 c0 -15 -7 -20 -29 -20 -24 0 -28 3
-24 20 3 13 14 20 29 20 17 0 24 -6 24 -20z m-1030 -71 c0 -4 -12 -22 -27 -40
-15 -18 -28 -37 -28 -43 -1 -24 -26 -96 -33 -96 -8 0 -15 186 -8 199 6 10 96
-9 96 -20z m1022 -5 c-4 -37 -24 -52 -49 -36 -16 10 -4 60 16 65 28 8 36 1 33
-29z m78 1 c0 -32 -3 -35 -29 -35 -22 0 -28 4 -26 18 2 9 4 25 4 35 1 11 9 17
26 17 22 0 25 -4 25 -35z m83 5 c-3 -11 -9 -20 -13 -20 -5 0 -15 -3 -24 -6
-12 -5 -16 0 -16 19 0 19 6 27 23 29 30 5 36 1 30 -22z m-927 8 c9 -15 2 -17
-67 -23 -65 -6 -109 -12 -142 -22 -17 -4 -17 -2 -6 19 6 12 16 26 22 29 15 11
187 7 193 -3z m54 1 c0 -5 -9 -9 -20 -9 -11 0 -20 4 -20 8 0 4 9 8 20 9 11 1
20 -2 20 -8z m433 -21 c-3 -18 -7 -35 -9 -37 -2 -2 -31 -5 -64 -6 l-60 -2 0
29 c0 34 23 46 92 47 l48 1 -7 -32z m97 13 c0 -37 -12 -51 -41 -51 -26 0 -29
3 -29 35 0 33 2 35 35 35 28 0 35 -4 35 -19z m98 -13 c-3 -30 -6 -33 -39 -36
-32 -3 -35 -1 -33 20 1 13 3 29 3 36 1 7 15 12 37 12 34 0 35 -1 32 -32z
m-403 2 c6 -19 -21 -219 -30 -229 -8 -8 -561 -8 -569 0 -4 4 42 125 60 157 5
9 125 31 169 32 28 1 111 14 185 29 152 31 178 33 185 11z m1315 -97 c9 -99
11 -96 -50 -116 -48 -16 -75 -17 -210 -12 l-155 7 1 97 c1 53 2 100 3 104 0 5
47 6 104 3 56 -3 129 -2 162 2 48 6 68 4 100 -10 39 -16 40 -19 45 -75z m-750
12 c0 -41 -2 -45 -25 -45 -29 0 -50 36 -33 58 6 6 7 12 2 12 -17 0 21 20 39
20 14 0 17 -9 17 -45z m78 18 c-4 -62 -43 -73 -46 -13 -3 37 -1 40 22 40 22 0
26 -4 24 -27z m-158 -7 c0 -39 -11 -56 -35 -56 -29 0 -39 14 -31 45 5 21 13
25 59 34 4 0 7 -10 7 -23z m-197 6 c3 -4 3 -19 0 -35 -5 -23 -10 -27 -40 -27
-33 0 -35 1 -28 27 3 15 12 31 18 35 16 10 45 10 50 0z m105 -24 c-3 -28 -7
-34 -32 -36 -36 -4 -46 6 -39 41 5 23 10 27 40 27 33 0 34 -2 31 -32z m1023
12 c24 -11 53 -20 65 -20 11 0 29 -6 39 -14 18 -13 12 -16 -65 -40 -46 -14
-85 -25 -86 -23 -8 10 -14 117 -6 117 5 0 29 -9 53 -20z m-1220 -17 c-7 -28
-22 -35 -104 -46 -34 -5 -38 -4 -32 11 4 9 7 27 6 40 -1 21 3 22 68 22 l69 0
-7 -27z m-11 -88 c0 -24 -6 -28 -68 -40 -18 -4 -30 -11 -27 -15 3 -5 11 -7 18
-5 7 2 24 6 40 9 26 6 27 5 27 -34 l0 -40 -41 0 c-22 0 -49 -5 -59 -10 -27
-14 -36 6 -14 31 15 17 16 24 6 39 -7 11 -12 35 -12 54 0 34 1 35 48 38 67 4
82 -1 82 -27z m98 5 c1 -28 -2 -30 -34 -30 -31 0 -34 2 -34 30 0 27 3 30 33
30 31 0 34 -3 35 -30z m106 14 c14 -36 7 -45 -31 -42 -33 3 -38 7 -41 31 -3
25 -1 27 31 27 23 0 37 -6 41 -16z m86 -14 c0 -25 -4 -30 -25 -30 -21 0 -25 5
-25 30 0 25 4 30 25 30 21 0 25 -5 25 -30z m88 3 c-2 -23 -8 -29 -35 -31 -31
-3 -33 -1 -33 27 0 29 3 31 36 31 33 0 35 -2 32 -27z m68 11 c-3 -9 -6 -20 -6
-25 0 -5 -9 -9 -20 -9 -15 0 -20 7 -20 25 0 20 5 25 26 25 20 0 25 -4 20 -16z
m-6 -79 c0 -18 -5 -25 -20 -25 -20 0 -28 28 -13 43 15 16 33 6 33 -18z m-340
3 c-1 -38 -13 -56 -41 -60 -36 -6 -43 3 -34 42 6 26 11 30 41 30 21 0 34 -5
34 -12z m112 -11 c7 -39 -1 -47 -49 -47 -37 0 -44 3 -39 16 3 9 6 24 6 35 0
15 7 19 39 19 32 0 39 -4 43 -23z m73 -4 c0 -21 -6 -29 -22 -31 -24 -3 -29 11
-17 42 11 28 40 19 39 -11z m83 5 c-2 -17 -11 -24 -30 -26 -24 -3 -28 0 -28
22 0 22 4 26 31 26 26 0 30 -3 27 -22z m-861 -19 c188 0 261 -4 243 -11 -30
-11 -199 -34 -325 -43 -49 -4 -112 -11 -139 -16 -27 -5 -63 -9 -81 -9 -30 0
-31 2 -28 33 7 54 11 60 37 53 14 -3 145 -6 293 -7z m851 -61 c-2 -25 -8 -34
-25 -36 -19 -3 -23 1 -23 26 0 34 6 42 32 42 16 0 19 -6 16 -32z m72 7 c0 -14
-8 -29 -21 -35 -26 -14 -28 -12 -22 28 7 40 43 47 43 7z m-150 -18 c0 -26 -4
-33 -20 -34 -16 -1 -20 4 -20 26 0 31 7 41 27 41 8 0 13 -12 13 -33z m-72 -4
c-3 -26 -7 -28 -50 -31 -50 -3 -52 -2 -42 36 5 19 13 22 51 22 42 0 44 -1 41
-27z m-128 -7 c0 -23 -16 -36 -46 -36 -8 0 -14 10 -14 23 0 30 7 37 37 37 18
0 23 -6 23 -24z m420 -80 c0 -2 -33 -16 -72 -31 -106 -39 -446 -202 -536 -257
-38 -23 -35 -24 -50 19 -10 29 -8 34 13 51 25 20 184 76 330 117 44 12 96 28
115 35 19 7 69 26 110 41 77 28 90 32 90 25z"/>
</g>
</svg>
