<?xml version="1.0" standalone="no"?>
<!DOCTYPE svg PUBLIC "-//W3C//DTD SVG 20010904//EN"
 "http://www.w3.org/TR/2001/REC-SVG-20010904/DTD/svg10.dtd">
<svg version="1.0" xmlns="http://www.w3.org/2000/svg"
 width="128.000000pt" height="124.000000pt" viewBox="0 0 128.000000 124.000000"
 preserveAspectRatio="xMidYMid meet">
<metadata>
Created by potrace 1.16, written by Peter Selinger 2001-2019
</metadata>
<g transform="translate(0.000000,124.000000) scale(0.100000,-0.100000)"
fill="#000000" stroke="none">
<path d="M338 1098 c-13 -18 -34 -56 -47 -83 -14 -32 -34 -57 -53 -68 l-30
-18 6 -117 c4 -64 9 -201 12 -303 6 -183 6 -186 -15 -192 -28 -7 -27 -21 4
-41 14 -9 25 -22 25 -29 0 -8 11 -24 25 -37 14 -13 25 -28 25 -34 1 -6 9 -21
20 -34 l19 -22 40 21 c23 12 41 28 41 38 0 33 33 66 170 166 15 11 46 37 70
58 23 20 49 37 56 37 7 0 19 8 26 18 7 10 29 29 48 42 19 13 41 30 48 37 6 6
21 15 33 18 15 5 17 10 10 19 -8 10 2 20 40 41 l52 28 -7 -109 c-4 -60 -9
-133 -13 -162 -5 -49 -4 -54 13 -50 26 5 42 59 49 165 8 123 14 165 27 180 7
9 7 17 -2 28 -10 13 -10 19 3 33 9 10 29 49 44 87 33 79 104 205 127 225 9 7
16 20 16 30 0 16 -10 17 -112 13 -62 -3 -117 -6 -123 -7 -6 -2 -10 -53 -11
-127 0 -68 -4 -141 -8 -161 -7 -36 -8 -37 -34 -26 -15 7 -36 20 -47 29 -11 10
-42 27 -68 38 -26 11 -68 36 -93 55 -25 19 -59 38 -75 41 -17 4 -33 13 -35 20
-3 7 -19 19 -35 25 -16 7 -29 15 -29 19 0 4 -15 15 -32 26 -48 27 -91 64 -103
89 -17 34 -50 32 -77 -6z m59 -66 c15 -15 39 -35 53 -44 14 -8 23 -18 20 -21
-7 -6 -149 -15 -154 -9 -4 4 44 102 50 102 1 0 15 -12 31 -28z m731 -17 c4 -3
-107 -235 -112 -235 0 0 -2 57 -4 126 l-2 127 57 -7 c31 -4 59 -9 61 -11z
m-586 -110 c15 6 116 -44 164 -80 16 -13 47 -30 68 -39 21 -9 50 -26 66 -38
15 -13 42 -34 60 -47 25 -20 29 -26 18 -37 -15 -14 -142 -86 -268 -152 -47
-24 -97 -53 -111 -63 -48 -34 -212 -109 -239 -109 l-27 0 4 83 c4 76 31 190
69 292 19 51 98 170 126 189 15 11 26 12 39 6 10 -6 24 -8 31 -5z m-152 -26
c0 -8 -13 -33 -29 -55 -15 -21 -40 -61 -54 -87 l-25 -49 -6 59 c-4 32 -10 77
-15 100 -4 24 -7 44 -5 45 1 2 32 3 68 3 53 0 66 -3 66 -16z m298 -412 c-16
-16 -93 -77 -215 -172 -50 -38 -98 -81 -107 -95 -13 -21 -16 -22 -16 -6 0 10
-14 34 -30 53 -17 19 -28 38 -25 43 3 5 22 14 43 21 20 7 54 23 74 36 21 12
46 23 55 23 10 0 34 10 53 22 45 27 162 87 173 88 5 0 2 -6 -5 -13z"/>
</g>
</svg>
