<?xml version="1.0" standalone="no"?>
<!DOCTYPE svg PUBLIC "-//W3C//DTD SVG 20010904//EN"
 "http://www.w3.org/TR/2001/REC-SVG-20010904/DTD/svg10.dtd">
<svg version="1.0" xmlns="http://www.w3.org/2000/svg"
 width="290.000000pt" height="157.000000pt" viewBox="0 0 290.000000 157.000000"
 preserveAspectRatio="xMidYMid meet">
<metadata>
Created by potrace 1.16, written by Peter Selinger 2001-2019
</metadata>
<g transform="translate(0.000000,157.000000) scale(0.100000,-0.100000)"
fill="#000000" stroke="none">
<path d="M1062 1475 c-24 -34 -38 -45 -59 -46 -16 0 -41 -8 -58 -18 -27 -16
-30 -22 -27 -62 7 -103 -1 -315 -13 -327 -8 -8 -152 -6 -165 3 -8 6 -40 11
-70 11 -30 1 -111 6 -180 12 -77 6 -129 6 -137 1 -7 -6 -28 -5 -57 2 -98 24
-123 -4 -105 -119 13 -87 6 -221 -16 -306 -25 -97 -29 -160 -12 -175 24 -20
35 -5 35 45 0 26 4 50 9 54 30 26 165 63 293 80 47 6 105 17 130 24 26 7 85
11 140 10 52 -2 109 -3 127 -3 l31 -1 -3 -274 c-2 -151 -6 -280 -10 -286 -9
-15 12 -30 42 -30 13 0 28 -9 35 -20 7 -11 17 -20 22 -20 4 0 79 35 165 79 86
43 194 93 241 111 92 35 266 103 514 201 141 55 159 60 168 46 13 -24 27 -21
34 8 8 31 33 46 63 38 16 -4 27 1 37 16 8 11 22 21 30 21 13 0 15 -10 12 -48
-2 -37 0 -47 12 -47 11 0 16 14 18 58 3 52 6 59 30 68 15 6 59 25 97 43 90 43
275 115 317 123 34 6 51 21 42 35 -3 4 -11 8 -19 8 -8 0 -30 11 -50 24 -20 14
-57 32 -83 41 -74 27 -172 67 -172 71 0 2 5 13 12 24 7 10 10 22 7 25 -3 3
-55 9 -115 14 -97 8 -121 14 -216 55 -59 25 -109 46 -113 46 -3 0 -66 29 -139
65 -73 36 -148 68 -165 71 -18 4 -94 39 -170 78 -75 39 -190 95 -256 125 -66
29 -138 62 -161 72 -22 10 -45 19 -50 19 -6 0 -24 -20 -42 -45z m95 -9 c49
-17 484 -228 480 -232 -4 -5 -125 39 -163 59 -39 20 -289 103 -337 112 -43 8
-54 24 -37 54 13 25 8 24 57 7z m-127 -131 c0 -13 -4 -35 -10 -49 -8 -22 -24
-124 -36 -236 -2 -19 -7 -48 -11 -65 -9 -37 -10 -44 -12 -75 -1 -21 -3 -22
-11 -9 -13 21 -13 210 -1 280 6 33 6 83 1 124 -11 91 -8 97 41 74 29 -15 39
-25 39 -44z m200 13 c52 -17 129 -45 170 -63 41 -18 151 -62 243 -96 162 -62
167 -65 162 -89 -3 -14 -6 -51 -6 -82 -1 -32 -5 -58 -8 -59 -3 -1 -21 -2 -40
-4 l-33 -3 5 57 c3 31 9 68 13 84 5 22 4 26 -10 21 -17 -6 -32 -67 -35 -139
-1 -18 -6 -20 -40 -17 l-39 4 5 65 c3 48 1 68 -9 74 -19 13 -39 11 -37 -3 1
-7 1 -39 0 -70 -1 -57 -1 -58 -31 -58 -16 0 -39 4 -52 9 -13 5 -42 14 -65 20
-25 7 -43 18 -43 26 0 28 -24 28 -46 0 -20 -26 -25 -28 -48 -17 -39 18 -31 63
24 132 17 21 30 48 30 60 0 20 -3 22 -36 16 -23 -5 -41 -3 -50 5 -12 10 -18 9
-30 -3 -13 -12 -14 -23 -6 -52 14 -50 9 -71 -17 -72 -34 -2 -36 -12 -12 -45
34 -46 25 -105 -24 -161 -62 -71 -178 -188 -187 -188 -11 0 -2 220 10 250 12
27 37 153 47 240 4 30 11 62 15 70 4 8 10 35 14 59 7 54 22 74 50 65 12 -3 64
-20 116 -36z m616 -194 c38 -19 60 -32 49 -28 -50 16 -181 67 -189 75 -19 17
76 -15 140 -47z m29 -54 c20 -8 24 -14 17 -27 -5 -10 -10 -38 -11 -63 -2 -52
-1 -49 -32 -52 -23 -3 -24 -1 -21 57 3 59 10 95 17 95 2 0 15 -4 30 -10z m78
-29 c23 -9 24 -12 16 -56 -11 -58 -15 -65 -40 -65 -16 0 -19 7 -19 43 0 40 9
87 16 87 1 0 14 -4 27 -9z m85 -30 c8 -5 12 -23 10 -47 -3 -35 -6 -39 -32 -42
-29 -4 -29 -3 -22 39 10 60 16 68 44 50z m-1746 -31 c19 0 18 -2 -6 -31 -14
-17 -26 -35 -26 -40 0 -5 -4 -9 -9 -9 -10 0 -21 70 -14 83 3 5 12 6 20 3 8 -3
24 -6 35 -6z m223 0 c4 -6 -3 -10 -14 -10 -11 0 -55 -11 -98 -25 -42 -13 -78
-23 -80 -21 -8 8 29 41 58 50 44 15 127 18 134 6z m1619 -3 c26 -19 5 -57 -29
-57 -21 0 -25 5 -25 28 0 44 20 54 54 29z m-1218 -29 c2 -2 6 -66 9 -142 l6
-137 -123 2 c-68 1 -223 -1 -345 -4 l-223 -6 0 22 c0 61 14 127 26 127 16 0
33 30 27 47 -8 22 76 55 207 83 67 14 120 17 248 15 90 -2 165 -5 168 -7z
m1297 -2 c7 -18 -11 -36 -29 -29 -8 3 -14 14 -14 24 0 22 35 26 43 5z m-759
-24 c7 -4 -67 -50 -84 -52 -3 0 -4 18 -2 39 l4 39 36 -10 c21 -6 41 -13 46
-16z m806 -3 c0 -5 -4 -9 -10 -9 -5 0 -10 7 -10 16 0 8 5 12 10 9 6 -3 10 -10
10 -16z m121 -14 l29 -16 -16 -37 c-8 -20 -27 -72 -40 -115 -14 -44 -27 -77
-30 -75 -2 3 -6 43 -8 89 -3 46 -8 99 -11 116 -7 28 -4 34 16 42 13 5 25 10
27 10 2 1 16 -6 33 -14z m-1076 -40 c-30 -70 5 -83 85 -31 64 42 119 66 150
66 l30 0 -3 -105 c-3 -86 -7 -108 -22 -125 -14 -15 -18 -33 -16 -62 3 -38 1
-39 -21 -33 -13 4 -28 12 -34 17 -8 6 -27 -10 -60 -49 -27 -32 -50 -60 -51
-62 -2 -3 -18 9 -36 26 -17 16 -57 42 -87 57 -30 16 -65 38 -76 50 -12 13 -36
28 -53 36 -25 10 -29 15 -18 24 8 6 19 29 26 51 12 39 52 95 68 95 4 0 35 20
67 45 33 24 61 43 63 41 2 -1 -4 -20 -12 -41z m480 23 c3 -3 1 -34 -4 -69 -6
-35 -13 -94 -16 -131 -7 -67 -7 -68 -36 -68 -29 0 -30 1 -25 43 3 23 8 83 12
132 4 50 12 93 18 97 12 8 42 5 51 -4z m-99 -39 c-3 -23 -9 -76 -12 -119 -8
-97 -12 -104 -54 -95 -32 7 -32 8 -27 54 3 25 10 75 17 110 6 35 9 70 6 78 -4
9 5 13 35 13 l41 0 -6 -41z m194 17 c0 -33 -20 -228 -24 -242 -2 -6 -17 -9
-33 -7 l-29 5 13 116 c6 64 12 125 12 135 1 12 9 17 31 17 25 0 30 -4 30 -24z
m74 -11 c-1 -16 -2 -76 -3 -132 l-1 -101 -32 2 c-18 0 -32 6 -31 11 0 6 4 43
7 84 12 150 16 168 40 167 17 -1 21 -7 20 -31z m82 27 c8 -5 12 -46 11 -122
-1 -100 -3 -117 -19 -128 -36 -26 -43 -11 -45 107 0 61 1 120 4 131 5 20 28
26 49 12z m92 -118 c-7 -116 -14 -141 -40 -132 -10 4 -12 33 -10 127 l3 121
27 0 27 0 -7 -116z m78 29 c-9 -113 -18 -155 -34 -161 -11 -3 -12 20 -8 109 3
63 5 120 6 127 0 6 10 12 21 12 21 0 21 -3 15 -87z m71 62 c2 -11 6 -64 8
-117 l5 -98 -36 0 -36 0 8 108 c4 59 7 113 7 120 0 21 40 9 44 -13z m227 -10
c27 -14 58 -25 68 -25 26 0 121 -44 137 -64 11 -13 10 -17 -10 -25 -151 -59
-210 -81 -221 -81 -7 -1 -31 -9 -53 -20 -22 -11 -46 -19 -52 -20 -17 0 -16 36
3 85 8 22 17 51 20 65 6 30 45 110 53 110 3 0 28 -11 55 -25z m-1433 -144 c-6
-10 -7 -22 -3 -27 4 -5 -1 -2 -11 5 -16 13 -16 14 0 27 24 18 25 17 14 -5z
m-617 -72 c-2 -3 -23 -9 -46 -12 -24 -3 -76 -17 -116 -30 l-73 -24 4 31 c3 30
5 31 63 36 84 7 173 7 168 -1z m641 -29 c28 -22 79 -55 115 -74 36 -19 79 -46
95 -60 l30 -24 -92 -89 c-51 -49 -93 -93 -93 -96 0 -17 22 -3 73 43 30 28 61
50 69 50 8 0 45 20 81 43 92 61 155 93 163 84 5 -4 7 -23 6 -43 -3 -41 3 -55
22 -48 9 4 12 18 9 48 -5 40 -3 45 29 70 45 33 49 33 37 -6 -12 -42 -12 -125
0 -132 5 -4 16 -3 25 0 13 5 15 14 10 40 -3 19 -1 63 6 98 11 61 13 64 43 69
18 2 33 4 34 3 2 -1 -2 -18 -7 -37 -6 -18 -10 -58 -10 -87 0 -45 3 -53 17 -50
11 2 18 15 20 38 13 141 12 140 44 140 34 0 37 -14 13 -84 -9 -26 -14 -56 -11
-66 4 -16 -3 -22 -36 -31 -39 -11 -272 -97 -377 -139 -108 -43 -398 -130 -433
-130 -9 0 -9 358 -1 372 4 7 2 8 -5 4 -8 -6 -10 8 -5 51 8 81 9 83 46 83 23 0
48 -12 83 -40z m555 -9 c0 -8 -55 -51 -65 -51 -3 0 -5 15 -5 33 0 32 1 33 35
29 19 -2 35 -7 35 -11z m630 4 c0 -12 -36 -35 -54 -35 -3 0 0 41 3 48 0 1 12
2 26 2 16 0 25 -6 25 -15z m-341 -75 c-11 -62 -28 -90 -55 -90 -20 0 -25 30
-13 74 6 22 12 48 14 56 2 18 47 42 57 32 4 -4 3 -37 -3 -72z m169 33 c-2 -36
-7 -49 -20 -51 -15 -3 -18 4 -18 41 0 46 5 57 27 57 11 0 13 -12 11 -47z m80
20 c0 -26 -12 -42 -30 -43 -5 0 -8 16 -8 35 0 28 4 35 19 35 14 0 19 -7 19
-27z m-155 -35 c7 -56 -1 -70 -38 -66 -16 3 -19 9 -17 38 5 62 12 80 31 80 15
0 19 -10 24 -52z m-533 -3 c8 -9 9 -19 4 -24 -7 -7 -118 -80 -173 -115 -8 -5
15 28 50 72 66 83 93 98 119 67z m477 -111 c-3 -3 -12 -4 -19 -1 -8 3 -5 6 6
6 11 1 17 -2 13 -5z m-57 -14 c-8 -5 -19 -10 -25 -10 -5 0 -3 5 5 10 8 5 20
10 25 10 6 0 3 -5 -5 -10z m-110 -42 c-14 -6 -43 -19 -65 -28 -22 -10 -88 -34
-147 -55 -64 -22 -105 -42 -101 -48 3 -5 1 -7 -4 -4 -11 7 -105 -25 -188 -63
-22 -10 -72 -30 -110 -45 -37 -14 -75 -30 -82 -37 -7 -6 -16 -9 -18 -6 -3 3
19 18 47 33 29 16 58 34 64 40 6 6 45 22 85 34 41 13 92 32 114 42 44 20 358
134 390 142 34 8 41 6 15 -5z m-695 -246 c-31 -27 -104 -61 -111 -51 -9 16 6
27 57 43 54 17 66 19 54 8z"/>
</g>
</svg>
