<?xml version="1.0" standalone="no"?>
<!DOCTYPE svg PUBLIC "-//W3C//DTD SVG 20010904//EN"
 "http://www.w3.org/TR/2001/REC-SVG-20010904/DTD/svg10.dtd">
<svg version="1.0" xmlns="http://www.w3.org/2000/svg"
 width="330.000000pt" height="204.000000pt" viewBox="0 0 330.000000 204.000000"
 preserveAspectRatio="xMidYMid meet">
<metadata>
Created by potrace 1.16, written by Peter Selinger 2001-2019
</metadata>
<g transform="translate(0.000000,204.000000) scale(0.100000,-0.100000)"
fill="#000000" stroke="none">
<path d="M2195 1942 c-9 -9 -118 -22 -225 -27 -99 -4 -256 -31 -435 -76 -86
-21 -223 -67 -241 -81 -6 -4 -44 9 -90 31 -95 46 -255 99 -321 106 -175 17
-237 13 -358 -20 -123 -33 -139 -37 -143 -26 -5 15 -69 44 -84 38 -7 -2 -42 0
-78 4 -52 8 -67 7 -79 -6 -14 -13 -13 -18 2 -44 13 -23 17 -54 17 -148 0 -66
5 -145 11 -176 17 -93 19 -345 3 -358 -20 -17 -7 -30 24 -24 81 17 145 26 212
31 139 10 185 10 243 1 45 -7 62 -15 83 -40 14 -17 70 -70 124 -117 75 -67
109 -90 146 -100 27 -7 60 -22 73 -32 13 -10 36 -18 52 -18 15 0 30 -4 33 -9
11 -17 229 -56 384 -68 115 -8 115 -9 97 -113 -15 -83 -43 -186 -87 -323 -13
-40 -18 -71 -12 -76 10 -9 350 4 459 19 39 4 99 16 135 24 36 9 83 16 105 16
70 1 87 31 25 45 -17 4 -36 16 -44 27 -10 14 -27 21 -58 23 -24 1 -77 10 -118
20 -41 9 -88 20 -105 24 -43 10 -41 34 8 181 l42 125 355 1 c195 1 368 4 385
7 46 8 241 -12 271 -28 15 -8 32 -11 37 -8 17 10 40 78 44 128 1 28 12 86 22
130 11 44 25 113 31 153 7 45 17 76 26 79 24 9 16 33 -11 33 -21 0 -29 -9 -44
-42 -11 -25 -49 -73 -92 -114 -73 -70 -75 -71 -139 -77 -36 -3 -87 -4 -115 -2
-139 10 -197 17 -270 29 -44 8 -121 20 -171 26 -50 6 -122 19 -160 29 -38 10
-75 16 -81 14 -7 -3 -13 -3 -13 -1 0 8 38 174 59 253 11 44 30 121 42 170 12
50 34 114 50 144 16 30 29 63 29 74 0 29 47 124 67 135 9 6 14 16 10 25 -4 11
-21 15 -66 14 -34 0 -63 -3 -66 -5z m75 -37 c0 -3 -11 -28 -25 -55 -14 -27
-25 -60 -25 -73 0 -13 -7 -32 -16 -43 -13 -16 -15 -16 -10 -2 3 10 8 48 12 85
3 38 11 74 16 81 10 12 48 17 48 7z m-93 -62 c-3 -27 -10 -73 -16 -103 -6 -30
-16 -80 -22 -110 -6 -30 -21 -100 -33 -155 -13 -55 -29 -127 -36 -160 -7 -33
-23 -98 -35 -145 -13 -47 -26 -105 -30 -130 -14 -101 -38 -216 -46 -225 -5 -5
-9 -18 -9 -28 0 -27 -92 -300 -104 -309 -15 -10 11 -35 42 -41 15 -3 65 -12
112 -20 100 -18 165 -38 165 -52 0 -11 -42 -20 -171 -36 -96 -12 -395 -28
-403 -22 -3 2 3 26 13 54 10 27 16 53 12 56 -3 3 -2 11 3 17 12 14 51 156 51
183 0 12 15 74 34 140 38 133 101 416 116 524 6 40 13 84 17 98 7 28 58 130
74 146 17 17 9 35 -15 35 -13 0 -35 6 -50 14 -23 11 -36 10 -103 -9 -43 -13
-103 -32 -133 -44 -30 -11 -57 -17 -60 -13 -56 79 -103 132 -151 170 l-60 46
48 22 c45 20 186 54 243 59 14 1 34 5 45 8 11 3 48 8 82 11 33 3 76 8 95 11
18 2 81 11 140 20 59 8 117 19 130 24 51 21 60 15 55 -36z m-1587 -15 c0 -16
-35 -141 -66 -234 -13 -39 -28 -102 -33 -140 -6 -38 -15 -84 -22 -101 -6 -18
-9 -58 -7 -88 2 -38 -1 -56 -10 -60 -18 -7 -25 17 -20 67 5 48 50 288 73 388
8 36 18 87 21 113 5 37 12 51 28 57 30 12 36 12 36 -2z m82 7 c3 -3 -1 -29 -9
-58 -35 -135 -73 -352 -77 -442 -4 -94 -19 -125 -62 -125 l-33 0 5 58 c2 31
11 77 19 102 8 25 19 77 25 117 5 39 14 82 19 95 13 31 56 211 60 251 1 8 45
10 53 2z m83 -25 c-13 -49 -25 -136 -25 -177 0 -23 -9 -88 -21 -145 -11 -57
-24 -139 -27 -183 l-7 -80 -43 -3 -43 -3 16 32 c9 17 21 74 26 126 5 52 12 99
16 106 3 6 10 47 14 91 13 151 29 241 43 251 8 6 24 11 36 11 18 0 20 -4 15
-26z m-442 8 c-8 -14 -16 -33 -57 -148 -15 -41 -30 -82 -33 -90 -10 -23 -21
65 -22 163 l-1 87 61 0 c46 0 58 -3 52 -12z m543 -4 c-12 -31 -87 -446 -101
-556 -6 -48 -11 -53 -37 -43 -18 7 -8 110 22 215 15 52 24 121 29 226 4 82 11
155 15 162 4 7 23 12 43 12 28 0 34 -3 29 -16z m-360 -16 c-3 -13 -10 -45 -15
-73 -5 -27 -14 -61 -20 -75 -8 -21 -10 -14 -12 40 -2 78 0 94 12 98 5 2 9 10
9 18 0 8 7 14 15 14 11 0 14 -7 11 -22z m457 10 c-28 -35 -55 -167 -73 -348
-7 -63 -14 -118 -16 -121 -1 -3 -8 -45 -14 -94 -14 -114 -19 -123 -50 -90 -23
24 -23 25 -11 127 7 56 16 109 21 118 4 8 13 56 19 105 9 76 28 193 47 293 4
18 11 22 45 22 32 0 39 -3 32 -12z m-521 -10 c-29 -36 -38 -273 -11 -302 9
-10 5 -39 -17 -134 -9 -37 -13 -82 -9 -108 5 -42 4 -44 -19 -44 -35 0 -39 11
-26 93 5 39 12 117 15 172 2 55 13 149 25 209 11 61 20 113 20 118 0 4 7 8 16
8 12 0 14 -3 6 -12z m571 0 c15 -12 15 -18 -2 -88 -22 -91 -47 -249 -61 -385
-6 -55 -15 -131 -20 -170 -8 -70 0 -103 18 -69 5 11 12 42 16 69 4 28 13 84
21 125 8 41 17 95 20 120 3 25 12 92 21 150 8 58 17 133 21 168 6 67 15 74 59
46 22 -15 23 -19 10 -33 -8 -9 -19 -45 -26 -81 -6 -36 -17 -96 -25 -135 -19
-99 -24 -144 -30 -274 -3 -63 -9 -119 -13 -125 -22 -36 -11 -106 18 -106 21 0
22 4 40 220 6 74 20 196 30 270 11 74 22 159 25 188 4 28 11 52 16 52 6 0 24
-7 40 -16 23 -11 29 -20 23 -32 -3 -9 -15 -46 -25 -82 -20 -67 -21 -75 -39
-295 -6 -71 -20 -166 -31 -210 -19 -74 -20 -84 -6 -117 22 -53 10 -64 -50 -42
-67 25 -210 144 -198 164 10 17 56 279 66 380 15 149 46 320 58 320 4 0 15 -6
24 -12z m-624 -35 c-5 -21 -15 -58 -23 -83 l-15 -45 0 77 c-1 75 3 85 35 87 9
1 9 -10 3 -36z m1067 -248 c87 -113 110 -147 119 -174 4 -12 24 -33 46 -47 21
-13 39 -29 39 -34 0 -11 73 -50 95 -50 27 0 16 25 -20 44 -23 13 -35 26 -35
41 0 12 -11 32 -25 45 -14 13 -25 27 -25 32 0 4 -16 30 -35 57 l-36 49 33 11
c48 15 160 41 181 41 10 0 16 -4 13 -9 -3 -5 1 -14 9 -21 8 -7 13 -15 11 -19
-2 -3 -11 -60 -21 -126 -9 -66 -31 -174 -49 -240 -38 -137 -53 -202 -62 -263
-5 -34 -10 -42 -23 -37 -9 4 -52 8 -96 10 -94 4 -171 16 -315 51 -113 28 -131
37 -112 56 7 7 12 32 12 57 0 24 7 78 15 120 8 42 16 105 19 141 13 191 40
388 57 422 8 15 17 12 72 -25 45 -30 84 -69 133 -132z m-1127 56 c7 -12 9 -41
6 -68 -6 -50 -13 -156 -14 -235 -1 -42 -3 -47 -32 -57 -52 -18 -52 -18 -45 77
4 48 9 122 11 164 1 43 13 110 27 152 l23 75 6 -43 c4 -24 12 -53 18 -65z
m128 7 c-3 -7 -5 -2 -5 12 0 14 2 19 5 13 2 -7 2 -19 0 -25z m1416 -73 c-3 -9
-8 -14 -10 -11 -3 3 -2 9 2 15 9 16 15 13 8 -4z m1197 -485 c-19 -88 -20 -103
-8 -122 12 -19 12 -26 -4 -57 -11 -20 -24 -34 -31 -32 -7 2 -219 4 -472 6
-253 1 -469 5 -480 8 -11 3 -28 6 -38 6 -13 1 -17 6 -12 20 3 11 7 28 10 38 2
10 8 38 14 63 5 25 13 71 16 103 7 64 -5 61 115 30 77 -20 154 -34 230 -43 36
-4 101 -14 145 -22 44 -9 142 -16 219 -17 76 -1 146 -6 155 -11 14 -7 31 6 86
65 38 41 71 72 73 70 2 -2 -6 -49 -18 -105z"/>
<path d="M261 1394 c0 -11 3 -14 6 -6 3 7 2 16 -1 19 -3 4 -6 -2 -5 -13z"/>
<path d="M251 1274 c0 -11 3 -14 6 -6 3 7 2 16 -1 19 -3 4 -6 -2 -5 -13z"/>
</g>
</svg>
