<?xml version="1.0" standalone="no"?>
<!DOCTYPE svg PUBLIC "-//W3C//DTD SVG 20010904//EN"
 "http://www.w3.org/TR/2001/REC-SVG-20010904/DTD/svg10.dtd">
<svg version="1.0" xmlns="http://www.w3.org/2000/svg"
 width="225.000000pt" height="131.000000pt" viewBox="0 0 225.000000 131.000000"
 preserveAspectRatio="xMidYMid meet">
<metadata>
Created by potrace 1.16, written by Peter Selinger 2001-2019
</metadata>
<g transform="translate(0.000000,131.000000) scale(0.100000,-0.100000)"
fill="#000000" stroke="none">
<path d="M882 1181 l-20 -49 -59 -6 c-32 -4 -69 -10 -83 -14 l-25 -8 1 -147 0
-147 -50 0 c-266 -2 -356 -1 -367 5 -6 4 -30 9 -52 11 -22 2 -55 9 -74 16 -24
9 -39 9 -51 2 -18 -12 -25 -69 -11 -95 7 -14 18 -210 19 -347 0 -27 3 -32 18
-28 9 3 49 8 87 11 39 4 99 13 135 22 36 8 114 17 173 20 88 5 110 9 117 23 5
10 6 21 2 24 -7 7 49 -3 57 -10 2 -2 5 -79 6 -171 3 -185 11 -223 49 -223 32
0 57 10 51 20 -3 4 27 18 65 31 39 12 70 26 70 31 0 4 9 8 20 8 11 0 39 8 63
19 23 10 78 32 122 48 44 17 118 45 165 63 47 18 103 40 125 50 63 29 175 71
199 76 11 2 37 7 56 10 19 4 47 13 61 20 15 7 29 11 32 8 3 -3 13 -1 24 4 24
13 156 62 166 62 5 0 29 10 55 21 26 12 62 27 81 34 19 6 38 18 41 26 4 8 12
25 19 38 17 32 5 41 -64 45 -33 1 -61 8 -63 14 -2 7 -8 12 -13 12 -6 0 -36 12
-67 26 -31 14 -70 32 -87 39 -203 91 -270 119 -323 136 -55 18 -134 55 -167
79 -5 4 -62 26 -125 50 -145 53 -278 123 -308 161 -13 16 -29 29 -36 29 -8 0
-23 -22 -34 -49z m86 -41 c20 -11 57 -32 82 -46 25 -14 81 -39 125 -55 164
-61 191 -72 215 -88 14 -9 43 -24 65 -33 59 -25 36 -22 -50 7 -93 32 -128 47
-137 60 -4 5 -8 7 -8 2 0 -4 -13 -1 -29 8 -31 16 -191 72 -226 80 -102 22
-125 41 -93 73 15 15 12 16 56 -8z m-172 -117 c-13 -32 -29 -82 -37 -110 -7
-29 -15 -53 -18 -53 -3 0 -5 37 -5 82 1 46 -3 91 -8 101 -14 27 -1 37 47 37
l44 0 -23 -57z m224 8 c58 -15 132 -41 165 -56 64 -29 349 -125 371 -125 22 0
17 -14 -16 -45 -17 -16 -42 -49 -56 -72 -14 -24 -27 -43 -31 -43 -3 0 -22 8
-42 18 -20 10 -55 28 -79 40 -41 20 -76 20 -70 0 2 -5 39 -25 83 -43 43 -18
81 -37 82 -42 2 -6 -8 -25 -23 -42 -26 -31 -26 -31 -52 -13 -46 30 -79 44 -97
40 -25 -4 -30 -27 -8 -35 10 -4 35 -20 55 -36 l37 -29 -37 -52 c-21 -28 -46
-64 -55 -79 -15 -23 -21 -26 -32 -17 -17 14 -30 72 -26 120 1 19 2 51 3 70 0
58 0 243 -1 272 -1 17 8 33 25 47 33 26 24 40 -24 37 -56 -3 -121 -37 -193
-101 -35 -32 -85 -68 -110 -80 -46 -21 -109 -72 -109 -88 0 -23 36 -40 90 -43
36 -2 77 -12 111 -28 29 -14 58 -26 63 -26 6 0 17 -4 25 -9 17 -11 -3 -35
-121 -152 -80 -78 -102 -109 -80 -109 4 0 15 8 24 18 41 44 236 232 241 232 3
0 5 -21 4 -47 -1 -27 2 -66 7 -89 8 -40 8 -40 -31 -52 -21 -7 -74 -19 -117
-27 -43 -8 -81 -17 -84 -20 -18 -17 46 -23 113 -10 l30 6 -35 -22 c-38 -24
-222 -89 -252 -89 -10 0 -18 3 -18 8 0 4 -1 133 -2 287 -1 247 1 285 16 320
10 22 27 67 38 100 11 33 29 77 40 98 23 46 36 47 178 8z m123 -158 c-3 -16
-7 -76 -7 -135 -1 -101 -2 -108 -21 -108 -37 0 -46 15 -51 91 -3 41 -9 78 -14
82 -4 5 -17 -4 -30 -20 -18 -23 -21 -36 -16 -75 3 -27 4 -48 3 -48 -1 1 -31 9
-66 19 -58 16 -62 19 -47 33 9 9 16 23 16 32 0 17 39 48 51 40 5 -3 23 11 40
30 17 20 37 36 44 36 7 0 24 9 39 21 14 11 26 17 26 13 0 -5 5 -3 12 4 20 20
29 14 21 -15z m464 -9 c-3 -3 -12 -4 -19 -1 -8 3 -5 6 6 6 11 1 17 -2 13 -5z
m30 -157 c-33 -43 -62 -76 -66 -74 -3 2 -21 10 -38 17 -18 8 -33 18 -33 22 0
7 27 51 75 120 l25 37 48 -22 48 -22 -59 -78z m-1447 52 c0 -14 -32 -69 -41
-69 -4 0 -9 18 -11 40 -3 38 -2 40 24 40 16 0 28 -5 28 -11z m335 4 c-16 -2
-90 -15 -163 -29 -74 -14 -136 -24 -138 -21 -2 2 4 15 15 28 19 24 22 25 168
25 81 1 135 -1 118 -3z m1250 -3 c3 -5 16 -10 27 -10 12 0 44 -11 72 -24 29
-14 65 -28 81 -32 17 -3 40 -16 52 -27 14 -12 42 -22 70 -25 26 -2 49 -5 51
-7 2 -2 -61 -28 -138 -56 -19 -7 -58 -21 -86 -32 l-52 -20 -47 23 c-26 13 -78
33 -115 44 l-68 22 19 24 c11 14 36 49 55 78 34 50 64 66 79 42z m-1070 -124
c0 -65 -3 -120 -7 -122 -4 -3 -70 -5 -145 -6 -76 0 -187 -6 -247 -13 -147 -15
-156 -13 -158 39 -1 22 -2 56 -3 74 -2 39 35 72 82 72 16 0 56 7 88 16 33 8
127 24 209 34 82 11 151 22 154 25 20 20 27 -12 27 -119z m812 -11 l37 -16
-35 -35 c-33 -32 -37 -34 -67 -23 -18 6 -32 15 -30 19 4 9 52 70 56 70 1 0 19
-7 39 -15z m127 -53 c3 -5 29 -14 58 -21 29 -6 64 -18 77 -25 23 -13 22 -14
-40 -35 -34 -11 -71 -21 -82 -21 -27 0 -117 41 -117 53 0 22 44 57 71 57 15 0
30 -4 33 -8z m-212 -65 c15 -12 13 -18 -22 -62 -32 -41 -82 -75 -111 -75 -14
0 10 53 46 103 36 48 57 56 87 34z m-946 -38 c-38 -4 -81 -11 -95 -15 -14 -4
-33 -8 -41 -9 -8 -1 -40 -5 -70 -10 -30 -4 -64 -9 -75 -10 -11 -1 -30 -5 -42
-9 -19 -6 -23 -4 -23 13 0 12 3 21 8 22 4 0 30 2 57 5 28 2 91 8 140 12 50 5
117 9 150 9 l60 0 -69 -8z m1074 -21 c0 -4 -19 -12 -42 -18 -24 -6 -49 -13
-56 -15 -15 -6 -8 10 20 41 17 19 23 20 49 11 16 -6 29 -15 29 -19z m-316 -87
c7 -10 -122 -56 -131 -47 -7 7 41 26 66 26 9 0 26 7 37 15 23 17 22 17 28 6z
m-105 -95 c-12 -11 -343 -136 -360 -136 -5 0 -9 4 -9 9 0 5 35 22 78 39 122
49 310 106 291 88z"/>
</g>
</svg>
