<?xml version="1.0" standalone="no"?>
<!DOCTYPE svg PUBLIC "-//W3C//DTD SVG 20010904//EN"
 "http://www.w3.org/TR/2001/REC-SVG-20010904/DTD/svg10.dtd">
<svg version="1.0" xmlns="http://www.w3.org/2000/svg"
 width="147.000000pt" height="95.000000pt" viewBox="0 0 147.000000 95.000000"
 preserveAspectRatio="xMidYMid meet">
<metadata>
Created by potrace 1.16, written by Peter Selinger 2001-2019
</metadata>
<g transform="translate(0.000000,95.000000) scale(0.100000,-0.100000)"
fill="#000000" stroke="none">
<path d="M1155 840 c-8 -13 -83 -48 -205 -95 -52 -20 -108 -45 -125 -55 -24
-15 -39 -17 -75 -10 -25 5 -130 11 -235 15 -223 8 -290 17 -321 46 l-22 21
-15 -24 c-25 -38 -45 -134 -58 -283 -17 -198 -17 -199 5 -203 25 -5 37 16 30
51 l-6 28 124 -8 c67 -4 150 -6 183 -4 70 4 110 5 182 2 l52 -1 -3 -90 c-2
-49 -1 -91 1 -94 14 -14 33 12 38 52 12 86 10 84 63 55 26 -14 70 -45 97 -68
67 -56 85 -65 139 -65 44 0 49 3 148 99 168 162 221 211 228 211 25 0 -41 133
-75 153 -8 4 -16 22 -20 40 -4 17 -13 41 -19 52 -7 11 -21 45 -31 75 -10 30
-24 67 -32 83 -14 27 -37 36 -48 17z m0 -68 c2 -28 29 -132 36 -132 4 0 15
-21 25 -47 23 -60 89 -125 118 -118 12 3 15 2 9 -1 -10 -4 -10 -11 -2 -26 9
-17 3 -26 -48 -71 -32 -28 -100 -93 -152 -143 -107 -104 -132 -112 -126 -40 5
54 20 113 34 130 13 15 107 21 116 6 4 -7 13 -7 26 0 15 9 17 15 9 29 -8 16
-29 20 -170 26 -123 6 -164 4 -175 -5 -22 -18 -14 -22 67 -34 72 -11 73 -11
72 -41 -2 -33 -19 -103 -27 -112 -11 -10 -46 9 -83 44 -22 20 -57 44 -79 54
-62 28 -68 44 -55 157 14 122 37 202 58 209 10 3 40 16 68 29 28 13 66 25 85
27 19 2 68 20 109 39 70 33 85 36 85 20z m-902 -101 c14 -6 99 -12 188 -16
163 -6 281 -13 285 -18 2 -1 -2 -20 -7 -42 -10 -36 -16 -70 -37 -190 l-7 -40
-120 2 c-66 1 -151 3 -190 3 -38 1 -103 4 -142 7 l-73 5 0 67 c1 38 7 76 15
91 8 14 14 42 15 63 0 69 21 88 73 68z"/>
<path d="M1058 693 c-12 -27 -22 -63 -23 -81 -1 -18 -5 -35 -8 -38 -3 -3 -30
-1 -61 6 -40 8 -61 8 -76 0 -55 -30 8 -55 160 -64 63 -4 128 -8 145 -9 20 -1
30 3 33 14 3 18 -29 34 -91 44 -36 6 -75 44 -64 62 3 4 12 32 20 61 14 46 14
52 1 52 -8 0 -25 -21 -36 -47z"/>
</g>
</svg>
