<?xml version="1.0" standalone="no"?>
<!DOCTYPE svg PUBLIC "-//W3C//DTD SVG 20010904//EN"
 "http://www.w3.org/TR/2001/REC-SVG-20010904/DTD/svg10.dtd">
<svg version="1.0" xmlns="http://www.w3.org/2000/svg"
 width="234.000000pt" height="104.000000pt" viewBox="0 0 234.000000 104.000000"
 preserveAspectRatio="xMidYMid meet">
<metadata>
Created by potrace 1.16, written by Peter Selinger 2001-2019
</metadata>
<g transform="translate(0.000000,104.000000) scale(0.100000,-0.100000)"
fill="#000000" stroke="none">
<path d="M244 902 c-37 -24 -50 -111 -80 -537 -11 -157 -17 -140 46 -137 30 1
78 11 105 22 28 11 59 21 70 23 11 1 25 5 30 9 6 3 26 9 45 12 19 4 46 11 60
16 14 4 68 18 120 30 51 12 108 28 125 36 16 7 73 27 125 43 52 16 120 40 150
52 30 12 74 24 98 26 l42 5 0 -97 c0 -93 -1 -98 -26 -118 -24 -18 -25 -21 -8
-30 10 -6 106 -11 213 -13 108 -2 288 -6 401 -10 113 -3 236 -7 273 -8 l68 -1
3 240 c3 215 9 307 21 342 2 6 -2 18 -8 27 -11 15 -62 18 -437 26 l-424 10
-33 -33 c-31 -32 -33 -36 -34 -118 0 -46 -3 -96 -6 -112 l-5 -27 -29 21 c-16
11 -90 40 -164 64 -74 24 -148 51 -163 60 -62 35 -232 97 -303 110 -41 8 -117
28 -168 45 -51 16 -94 30 -94 30 -1 0 -7 -4 -13 -8z m163 -97 c54 -13 114 -26
133 -29 50 -6 183 -56 267 -100 39 -21 100 -46 135 -56 74 -21 118 -37 172
-61 l39 -18 -29 -7 c-16 -4 -65 -22 -109 -39 -103 -41 -355 -114 -570 -165
-93 -23 -182 -48 -197 -56 -14 -7 -29 -14 -32 -14 -7 0 -3 55 13 190 6 52 13
115 15 140 3 25 10 72 15 105 6 33 11 77 11 98 0 46 4 46 137 12z m1198 15
c182 -6 352 -13 380 -15 67 -7 94 -26 90 -62 -2 -15 -9 -126 -16 -245 -11
-180 -15 -218 -28 -224 -17 -6 -283 -6 -336 1 -17 2 -120 6 -230 9 -110 4
-208 9 -219 12 -17 6 -18 17 -11 232 9 263 9 250 0 280 -6 19 -4 22 16 22 13
0 173 -5 354 -10z"/>
</g>
</svg>
