<?xml version="1.0" standalone="no"?>
<!DOCTYPE svg PUBLIC "-//W3C//DTD SVG 20010904//EN"
 "http://www.w3.org/TR/2001/REC-SVG-20010904/DTD/svg10.dtd">
<svg version="1.0" xmlns="http://www.w3.org/2000/svg"
 width="258.000000pt" height="132.000000pt" viewBox="0 0 258.000000 132.000000"
 preserveAspectRatio="xMidYMid meet">
<metadata>
Created by potrace 1.16, written by Peter Selinger 2001-2019
</metadata>
<g transform="translate(0.000000,132.000000) scale(0.100000,-0.100000)"
fill="#000000" stroke="none">
<path d="M1800 1125 c-6 -8 -21 -17 -33 -21 -11 -3 -44 -21 -72 -40 -84 -53
-136 -80 -194 -99 -29 -9 -65 -24 -80 -31 -14 -8 -36 -14 -48 -14 -17 0 -23
-6 -23 -24 0 -22 -2 -23 -52 -15 -59 10 -339 21 -551 23 -134 1 -139 2 -156
25 -18 23 -25 25 -140 27 -94 2 -123 -1 -132 -12 -9 -11 -9 -18 -1 -26 9 -9 9
-15 0 -25 -12 -15 -26 -176 -33 -386 l-5 -138 22 3 c15 2 24 11 26 27 4 23 6
23 60 17 31 -4 64 -14 74 -23 14 -13 21 -14 30 -5 13 13 51 16 61 6 4 -4 97
-7 207 -6 162 0 200 -2 200 -13 0 -22 17 -27 33 -10 20 20 57 19 72 -2 11 -15
13 -15 31 3 24 23 61 29 81 12 10 -8 12 -24 8 -63 -5 -35 -3 -55 4 -59 6 -4
35 7 65 23 38 22 76 34 130 41 80 10 103 6 123 -19 8 -10 12 -12 13 -4 0 9 7
10 28 2 42 -16 120 -29 181 -30 47 -1 60 -6 81 -29 29 -31 79 -45 87 -24 3 8
0 21 -7 29 -11 13 -11 21 0 43 36 79 57 115 78 135 22 21 24 21 34 4 8 -14 13
-16 24 -6 8 6 14 17 14 24 0 7 8 15 18 18 21 8 187 96 222 119 14 9 44 22 68
29 23 7 42 18 42 26 0 7 -4 13 -10 13 -22 0 -138 -64 -133 -73 3 -6 1 -7 -4
-4 -9 6 -106 -42 -148 -72 -5 -4 -22 -12 -36 -18 l-26 -11 1 89 1 89 33 0 c17
0 32 -2 32 -5 0 -2 -12 -29 -27 -59 -15 -31 -24 -58 -20 -62 12 -13 36 6 43
33 4 15 20 47 35 72 29 45 29 65 1 57 -10 -2 -34 -7 -56 -11 -33 -6 -38 -4
-32 10 5 14 1 16 -31 11 -59 -9 -101 -10 -198 -2 -77 6 -98 4 -140 -12 -28
-11 -56 -17 -64 -14 -9 3 -11 0 -7 -9 4 -8 1 -6 -7 3 -12 15 -32 17 -151 16
-75 0 -139 2 -142 5 -3 3 6 23 20 44 14 20 26 41 26 46 0 17 29 37 55 37 22 0
24 -3 15 -19 -15 -29 -12 -41 10 -41 14 0 25 12 36 38 9 20 31 66 49 101 29
59 38 68 101 102 38 21 76 41 84 45 8 4 26 16 39 28 21 18 20 15 -6 -24 -30
-45 -37 -61 -34 -89 1 -13 12 -13 113 5 56 9 81 -1 130 -52 36 -39 83 -72 158
-113 71 -38 234 -111 272 -121 38 -10 51 -10 63 0 22 18 12 26 -58 49 -35 11
-91 36 -125 55 -33 19 -71 37 -84 41 -35 11 -105 55 -152 96 -22 20 -48 34
-56 32 -13 -4 -13 -3 0 6 13 10 13 13 -4 22 -10 6 -25 20 -35 31 -9 11 -21 25
-26 32 -18 19 -60 81 -57 84 1 1 2 7 2 12 0 15 -26 12 -40 -5z m29 -86 c13
-17 21 -32 19 -33 -11 -7 -94 -24 -100 -20 -4 3 -1 16 8 30 9 13 13 24 10 24
-11 0 18 29 30 30 5 0 20 -14 33 -31z m-355 -143 c-10 -20 -20 -36 -23 -36 -9
1 -54 40 -50 44 8 6 84 34 87 31 2 -1 -5 -19 -14 -39z m-964 -2 c0 -14 -138
-184 -149 -184 -7 0 -14 176 -8 187 5 9 157 5 157 -3z m100 -59 c-12 -13 -20
-28 -17 -32 3 -5 -12 -33 -34 -61 -42 -56 -47 -72 -24 -72 8 0 24 17 35 38
l21 37 -6 -75 c-4 -41 -10 -106 -15 -145 -5 -38 -10 -73 -10 -77 0 -5 -14 -8
-30 -8 l-31 0 3 153 c2 83 -1 162 -5 174 -7 18 0 31 33 67 39 42 43 44 71 34
l30 -10 -21 -23z m315 -4 c-3 -14 -18 -51 -32 -81 l-26 -55 -8 55 c-9 58 -4
101 12 111 6 3 22 4 35 1 22 -4 25 -9 19 -31z m-199 13 c-8 -6 -36 -38 -61
-72 -25 -34 -47 -62 -48 -62 -12 0 13 91 32 117 19 25 30 31 57 30 27 -2 31
-4 20 -13z m94 6 c0 -16 -90 -160 -100 -160 -3 0 -3 25 0 55 3 38 12 63 30 84
24 29 70 42 70 21z m290 5 c0 -12 -43 -85 -50 -85 -6 0 -10 -9 -10 -21 0 -21
-36 -58 -56 -59 -8 0 -11 23 -10 70 2 77 -7 88 -30 35 -20 -49 -18 -168 6
-260 29 -113 28 -115 -24 -115 -36 0 -45 3 -44 18 1 9 -4 35 -10 57 -6 22 -12
64 -13 93 -2 42 2 56 19 73 12 11 23 26 23 34 2 19 3 24 17 58 7 16 12 30 12
31 0 2 7 20 15 40 l16 37 69 -3 c39 -1 70 -3 70 -3z m60 -2 c0 -3 -6 -14 -14
-22 -7 -9 -21 -38 -30 -66 -24 -74 -36 -88 -36 -44 0 43 44 139 65 139 8 0 15
-3 15 -7z m171 -19 c4 -2 -17 -40 -47 -84 -30 -44 -54 -84 -54 -90 0 -5 11
-10 25 -10 25 0 25 -1 23 -82 -2 -106 -8 -120 -48 -106 -19 6 -27 14 -22 21 4
7 8 84 9 172 1 88 2 168 2 179 1 17 6 18 53 12 28 -4 55 -9 59 -12z m-163
-201 c-1 -98 0 -185 2 -193 4 -11 -3 -15 -29 -15 -37 0 -42 9 -55 92 -3 21 -8
57 -12 81 -6 37 -4 44 19 62 14 11 34 47 48 85 12 36 24 65 26 65 2 0 3 -80 1
-177z m-360 30 c3 -134 6 -151 42 -224 7 -13 -6 -15 -114 -12 -66 2 -127 6
-134 8 -10 4 -12 20 -7 62 3 32 7 83 9 114 2 43 10 66 35 102 18 26 34 47 37
47 3 0 2 -45 -1 -99 -9 -118 -3 -156 28 -195 35 -44 50 -26 26 30 -10 25 -20
67 -20 92 -2 41 5 57 46 120 27 39 49 72 50 72 0 0 2 -53 3 -117z m-357 -4 c0
-41 -2 -83 -5 -94 -2 -11 -5 -44 -5 -73 -1 -49 -2 -52 -23 -48 -13 3 -40 8
-62 11 l-38 6 6 47 c4 26 9 74 12 108 6 56 8 60 29 56 17 -3 30 5 50 32 15 20
30 35 32 32 2 -2 4 -37 4 -77z m587 -17 c2 -40 19 -181 24 -203 2 -9 -7 -15
-23 -17 -25 -3 -26 -1 -39 95 -7 54 -17 110 -21 126 -7 25 -6 27 16 21 12 -3
26 -1 29 5 10 16 11 15 14 -27z m709 32 c21 -6 19 -9 -30 -81 -48 -69 -52 -73
-55 -47 -4 29 25 115 42 126 13 9 15 9 43 2z m105 -40 c-6 -11 -24 -36 -41
-58 l-31 -39 0 31 c0 45 17 81 42 91 29 11 43 -1 30 -25z m110 -6 c-16 -24
-34 -52 -40 -63 -10 -17 -11 -11 -12 37 0 51 2 57 23 61 58 11 60 10 29 -35z
m-590 -30 c-39 -70 -62 -75 -62 -14 0 50 15 65 63 66 l29 0 -30 -52z m151 24
c-10 -16 -31 -50 -48 -75 -16 -26 -32 -47 -35 -47 -10 0 -9 66 2 108 10 42 11
42 55 42 l45 0 -19 -28z m85 -43 c-25 -47 -40 -63 -57 -64 -22 -2 -23 1 -17
44 3 25 12 52 20 59 13 13 76 32 85 26 2 -2 -12 -31 -31 -65z m135 -59 c-8
-41 -13 -92 -11 -112 2 -24 -1 -39 -9 -42 -14 -6 -7 -36 11 -49 6 -5 -5 -5
-24 -2 -19 4 -39 11 -45 17 -5 5 -10 40 -10 78 0 60 3 72 21 85 12 8 34 35 49
61 15 25 28 44 30 42 2 -2 -4 -37 -12 -78z m253 37 c-3 -18 -5 -47 -5 -65 -1
-18 -5 -31 -9 -28 -5 3 -21 -4 -38 -15 -39 -26 -44 -24 -44 15 0 25 6 38 25
50 14 9 25 22 25 29 0 19 30 58 41 52 5 -3 7 -20 5 -38z m-580 -99 c-1 -26 -5
-50 -8 -53 -9 -10 -85 32 -92 50 -12 33 -6 51 24 62 16 6 38 25 47 42 l18 31
6 -43 c4 -23 6 -63 5 -89z m451 46 l-5 -86 -41 -19 c-40 -18 -41 -18 -52 3
-20 37 -4 83 47 137 27 28 50 51 52 51 2 0 2 -39 -1 -86z m-372 -50 c-4 -41
-10 -74 -15 -74 -49 0 -55 65 -13 130 15 23 29 36 31 30 2 -6 1 -45 -3 -86z
m133 -68 c-4 -6 -8 -18 -8 -29 0 -16 -5 -18 -32 -12 -18 4 -36 10 -41 14 -4 4
-10 37 -14 74 -6 64 -5 66 16 60 15 -4 28 3 48 26 l28 32 6 -78 c3 -43 1 -82
-3 -87z m-358 16 c30 -24 19 -67 -21 -81 -27 -9 -29 -8 -29 13 0 36 12 86 20
86 4 0 18 -8 30 -18z m587 -91 l-24 -42 -33 41 c-18 22 -29 44 -26 48 4 4 26
14 49 22 41 16 42 15 50 -5 5 -15 0 -34 -16 -64z"/>
</g>
</svg>
