<?xml version="1.0" standalone="no"?>
<!DOCTYPE svg PUBLIC "-//W3C//DTD SVG 20010904//EN"
 "http://www.w3.org/TR/2001/REC-SVG-20010904/DTD/svg10.dtd">
<svg version="1.0" xmlns="http://www.w3.org/2000/svg"
 width="264.000000pt" height="174.000000pt" viewBox="0 0 264.000000 174.000000"
 preserveAspectRatio="xMidYMid meet">
<metadata>
Created by potrace 1.16, written by Peter Selinger 2001-2019
</metadata>
<g transform="translate(0.000000,174.000000) scale(0.100000,-0.100000)"
fill="#000000" stroke="none">
<path d="M900 1665 c-7 -8 -18 -15 -25 -15 -7 0 -15 -7 -19 -15 -3 -9 0 -15 9
-15 8 0 15 -3 15 -7 0 -5 -7 -66 -15 -138 -8 -71 -15 -167 -15 -212 l0 -83
-37 -2 c-47 -2 -60 -2 -213 7 -84 5 -133 12 -149 22 -13 8 -45 17 -70 19 -25
2 -69 6 -97 9 -57 5 -87 -12 -61 -34 11 -9 13 -68 11 -315 -3 -257 -1 -306 11
-316 13 -11 15 -5 15 36 0 92 9 122 39 127 29 5 258 50 369 72 40 8 95 15 123
15 l51 0 -6 -127 c-3 -71 -7 -146 -10 -168 -2 -22 -7 -74 -11 -116 -7 -85 -11
-123 -20 -187 -11 -77 13 -104 55 -62 12 12 53 36 93 54 213 99 298 136 354
154 33 11 72 26 85 33 12 7 33 14 46 15 12 2 36 14 53 28 17 14 35 26 40 26 6
0 53 20 106 45 52 25 99 45 104 45 5 0 44 16 86 36 149 69 231 104 246 104 9
0 50 18 93 41 42 22 93 47 113 54 20 7 66 27 103 44 36 17 70 31 75 31 12 0
113 69 113 78 0 4 -18 7 -40 6 -23 0 -43 3 -46 8 -3 4 5 8 17 8 21 0 21 1 6
18 -9 10 -33 24 -54 31 -21 7 -60 27 -86 43 -27 16 -73 38 -102 49 -29 11 -88
39 -131 62 -44 23 -137 64 -209 90 -71 26 -155 59 -185 72 -30 13 -73 29 -95
36 -22 6 -56 21 -75 32 -19 11 -82 45 -140 75 -297 153 -365 182 -436 186 -28
2 -56 6 -61 9 -6 4 -16 0 -23 -8z m88 -58 c3 -16 -1 -17 -32 -11 -44 8 -48 -9
-7 -31 19 -9 28 -21 25 -32 -2 -10 -5 -38 -8 -63 -2 -25 -15 -119 -29 -210
-15 -91 -30 -194 -35 -230 -7 -63 -8 -61 -11 55 -9 302 0 482 26 523 17 28 66
27 71 -1z m120 -8 c153 -68 263 -129 233 -129 -8 0 -57 15 -110 34 -53 18
-114 39 -136 46 -85 27 -87 28 -75 50 14 25 30 25 88 -1z m37 -100 c55 -17
105 -35 110 -39 6 -4 26 -11 45 -15 19 -4 73 -25 119 -47 47 -21 104 -43 127
-48 24 -6 69 -21 100 -35 31 -14 66 -25 77 -25 31 0 100 -22 120 -38 9 -8 17
-12 17 -9 0 13 143 -44 228 -91 50 -27 112 -58 139 -68 26 -10 74 -33 105 -51
31 -18 60 -33 65 -33 5 0 24 -13 43 -30 19 -16 43 -29 53 -30 9 0 17 -5 17
-12 0 -6 -3 -9 -6 -6 -3 4 -21 -4 -40 -17 -19 -13 -51 -29 -72 -36 -20 -7 -84
-34 -142 -61 -58 -28 -152 -70 -210 -95 -108 -46 -119 -50 -233 -102 -37 -17
-72 -31 -78 -31 -5 0 -37 -14 -71 -31 -34 -17 -80 -37 -101 -45 -39 -14 -39
-14 -33 10 3 13 9 31 12 40 3 9 2 16 -4 16 -11 0 -4 49 10 67 5 6 12 38 15 70
6 56 6 57 -13 43 -18 -14 -18 -14 -1 6 9 11 17 27 17 35 0 28 75 59 182 75 56
8 117 17 133 20 17 2 95 7 175 11 80 3 147 7 149 9 11 10 -13 15 -85 20 -44 3
-95 9 -114 13 -19 5 -119 8 -222 7 -180 -3 -188 -2 -188 16 0 30 39 178 55
209 14 26 14 28 -17 38 -71 25 -139 5 -124 -35 6 -15 -3 -16 -81 -10 -227 15
-349 18 -377 7 -16 -6 -27 -13 -25 -16 3 -2 67 -7 144 -10 77 -3 153 -8 170
-10 16 -2 62 -5 102 -7 59 -2 73 -6 71 -18 -3 -11 -15 -14 -43 -13 -22 1 -101
3 -175 3 -230 1 -334 -13 -290 -40 9 -6 19 -5 24 0 6 6 48 9 96 9 47 -1 74 -4
60 -6 -25 -5 -60 -30 -60 -43 0 -4 12 -6 28 -4 27 4 27 4 2 -5 -14 -5 -44 -9
-67 -10 -45 -1 -73 -9 -73 -21 0 -4 40 -5 88 -2 87 5 89 4 110 -23 12 -15 22
-32 22 -36 0 -5 -29 -9 -64 -9 -84 0 -156 -10 -156 -23 0 -6 27 -7 76 -3 42 4
95 4 120 0 40 -6 45 -9 54 -43 5 -20 10 -39 10 -43 0 -4 -60 -4 -133 -1 -96 4
-136 3 -141 -6 -5 -8 15 -11 71 -13 43 0 83 -2 88 -3 6 -2 38 -3 73 -4 62 -1
63 -2 78 -36 7 -19 14 -36 14 -38 0 -2 -53 -2 -117 1 -65 2 -134 -1 -153 -6
-31 -9 -26 -10 50 -13 47 -1 90 -3 95 -4 6 -2 38 -3 72 -4 61 -1 63 -2 87 -38
13 -21 22 -41 20 -44 -1 -3 -31 -2 -66 2 -93 12 -228 13 -239 2 -7 -7 34 -13
113 -17 205 -13 209 -14 235 -65 25 -49 16 -77 -20 -67 -19 5 -117 -28 -152
-51 -29 -20 -4 -16 50 8 25 11 49 19 51 16 8 -8 -98 -44 -176 -60 -41 -8 -109
-25 -150 -37 -90 -26 -154 -40 -159 -34 -2 2 2 63 9 136 7 73 15 194 17 268 3
89 11 162 24 215 11 44 23 105 25 135 6 61 21 181 29 220 20 110 35 209 35
240 0 43 6 52 29 40 9 -4 61 -23 116 -41z m-775 -328 c0 -5 -11 -33 -25 -64
-14 -30 -32 -90 -40 -132 -8 -42 -19 -83 -23 -91 -7 -12 -10 260 -4 289 3 10
92 9 92 -2z m1233 -6 c2 -12 -38 -19 -61 -10 -14 5 -14 7 -2 16 18 11 60 8 63
-6z m-1063 -10 c58 -4 106 -9 108 -10 4 -3 -113 -39 -201 -61 -37 -9 -70 -14
-74 -11 -14 15 39 103 56 93 4 -3 54 -8 111 -11z m275 -22 l47 -6 -7 -111 c-4
-61 -8 -122 -9 -136 l-3 -25 -255 0 c-228 0 -282 -4 -267 -20 4 -3 139 -12
259 -16 35 -1 35 -1 7 -9 -15 -5 -48 -11 -72 -15 -25 -3 -56 -10 -68 -14 -13
-5 -54 -12 -91 -16 l-69 -8 6 29 c3 16 18 79 33 140 l28 111 86 26 c47 15 98
29 113 31 16 3 50 12 75 20 85 27 112 30 187 19z m759 -19 c15 -6 24 -44 10
-44 -16 0 -44 23 -44 35 0 16 9 18 34 9z m-314 -75 c0 -27 -3 -30 -27 -27 -36
4 -38 20 -5 40 15 9 28 17 30 17 1 1 2 -13 2 -30z m262 7 c4 -8 17 -11 32 -9
21 4 23 2 19 -21 -6 -30 -28 -35 -37 -9 -6 14 -9 15 -15 4 -7 -10 -33 -12
-117 -8 -60 4 -110 6 -111 7 -2 0 -3 14 -3 32 l0 31 112 -6 c79 -5 114 -11
120 -21z m-233 -106 c33 -59 -5 -48 -42 13 -17 26 -17 27 1 27 11 0 27 -16 41
-40z m221 25 c8 -5 23 -8 33 -7 15 3 18 -2 14 -30 -3 -18 -6 -35 -6 -37 -1 -2
-8 2 -16 9 -10 9 -15 9 -15 1 0 -12 -169 -5 -181 8 -4 3 -9 21 -13 40 l-6 33
88 -4 c48 -2 94 -8 102 -13z m308 -60 c3 -3 -14 -5 -37 -5 -53 0 -155 -26
-187 -47 -19 -12 -23 -13 -20 -2 2 8 7 26 10 40 l6 25 111 -3 c62 -2 115 -5
117 -8z m-500 -37 c5 -7 13 -28 17 -45 12 -58 -27 -34 -45 26 -6 23 -5 31 4
31 8 0 18 -6 24 -12z m142 2 c43 -1 51 -12 44 -59 -8 -47 -2 -46 -104 -25 -28
5 -62 56 -53 80 4 11 16 14 47 10 22 -3 52 -5 66 -6z m83 -35 c-7 -21 -13 -19
-13 6 0 11 4 18 10 14 5 -3 7 -12 3 -20z m-178 -120 l6 -30 -15 25 c-17 28
-22 60 -7 45 5 -6 12 -23 16 -40z m126 26 c4 -3 10 -21 14 -40 l7 -34 -51 5
c-60 6 -68 12 -77 56 l-7 33 54 -7 c30 -3 57 -9 60 -13z m2 -135 c-2 -22 -4
-41 -6 -42 -2 -2 -16 0 -32 4 -21 6 -32 18 -41 44 -7 20 -11 38 -8 40 2 3 23
2 46 -1 43 -6 43 -6 41 -45z m-3 -102 c0 -44 -22 -45 -38 -1 -16 44 -16 45 13
39 21 -4 25 -10 25 -38z m-380 -190 c-19 -9 -57 -23 -84 -31 -27 -8 -59 -21
-70 -29 -29 -18 -88 -22 -93 -6 -3 7 5 12 22 12 27 0 92 18 180 50 62 22 92
25 45 4z"/>
</g>
</svg>
