<?xml version="1.0" standalone="no"?>
<!DOCTYPE svg PUBLIC "-//W3C//DTD SVG 20010904//EN"
 "http://www.w3.org/TR/2001/REC-SVG-20010904/DTD/svg10.dtd">
<svg version="1.0" xmlns="http://www.w3.org/2000/svg"
 width="254.000000pt" height="110.000000pt" viewBox="0 0 254.000000 110.000000"
 preserveAspectRatio="xMidYMid meet">
<metadata>
Created by potrace 1.16, written by Peter Selinger 2001-2019
</metadata>
<g transform="translate(0.000000,110.000000) scale(0.100000,-0.100000)"
fill="#000000" stroke="none">
<path d="M2170 921 c0 -30 -35 -90 -78 -131 l-26 -26 -116 23 c-63 13 -150 30
-193 38 -43 9 -91 22 -106 29 -15 8 -61 17 -102 21 -73 6 -205 39 -224 56 -20
19 -52 7 -89 -30 -38 -39 -84 -68 -286 -182 -52 -29 -122 -70 -154 -90 -59
-37 -60 -38 -85 -20 -30 22 -211 114 -326 166 -95 44 -112 57 -120 97 -8 35
-31 47 -52 26 -11 -12 -15 -49 -18 -169 -2 -85 -6 -215 -10 -290 -6 -119 -4
-137 10 -149 15 -12 25 -10 79 17 33 17 108 53 166 81 58 28 129 64 158 81
l52 31 2 -107 c1 -60 2 -127 1 -150 -1 -23 4 -44 10 -46 7 -2 56 -2 111 2 54
3 137 3 185 -2 47 -4 111 -11 141 -14 30 -3 270 -6 532 -6 367 -2 480 -5 489
-14 16 -16 59 -17 59 -2 0 7 13 8 38 4 28 -4 42 -2 51 9 16 20 8 32 -26 40
-16 4 -59 22 -98 40 -38 19 -140 55 -225 82 -85 26 -164 55 -175 64 -22 18
-269 140 -284 140 -4 0 -14 7 -21 15 -11 13 4 15 121 15 74 0 170 7 214 15 76
13 149 25 295 45 36 5 82 13 102 18 20 5 48 7 61 5 21 -4 30 2 53 36 21 32 24
45 16 53 -19 19 -15 35 24 95 40 63 41 89 4 85 -71 -7 -125 -2 -136 12 -17 23
-24 19 -24 -13z m-662 -81 c53 -5 103 -15 116 -23 13 -9 61 -21 107 -27 46 -6
87 -14 92 -17 4 -2 51 -11 105 -18 85 -12 190 -31 302 -55 65 -13 -33 -34
-355 -74 -71 -9 -137 -19 -145 -22 -26 -9 -362 -4 -401 6 -35 10 -38 14 -43
53 -3 23 -4 56 -2 72 1 17 4 58 4 91 l2 62 63 -20 c34 -11 104 -23 155 -28z
m697 30 c-10 -11 -22 -20 -27 -20 -4 0 -3 9 4 20 7 11 19 20 27 20 11 0 10 -5
-4 -20z m115 13 c0 -5 -9 -21 -20 -38 l-20 -30 0 31 c0 17 3 34 7 37 9 9 33 9
33 0z m-65 -79 l0 -66 -75 7 c-41 4 -77 9 -79 11 -7 6 131 111 149 113 3 1 5
-29 5 -65z m-1014 -55 c-5 -52 -6 -125 -2 -163 4 -41 3 -103 -4 -155 -7 -47
-10 -92 -7 -100 3 -8 -1 -12 -14 -9 -17 3 -26 39 -25 98 0 8 0 59 0 114 1 54
5 124 11 156 6 32 11 75 12 97 1 22 8 43 17 50 9 6 17 10 19 9 1 -2 -2 -45 -7
-97z m-67 14 c-1 -21 -6 -74 -11 -118 -5 -44 -9 -126 -8 -182 0 -57 0 -103 -1
-103 -1 0 -12 6 -25 12 -22 12 -24 19 -22 78 4 191 16 316 31 333 25 28 38 21
36 -20z m-823 -24 c111 -45 139 -62 130 -74 -7 -8 -18 -95 -26 -204 -2 -22
-28 -51 -47 -51 -14 0 -9 70 7 101 12 23 14 46 9 104 -4 41 -11 75 -16 75 -19
0 -30 -54 -20 -99 7 -31 7 -53 -1 -70 -6 -14 -13 -51 -16 -81 -5 -48 -9 -55
-29 -58 -19 -3 -23 0 -18 15 11 37 18 343 7 343 -19 0 -22 -21 -22 -163 0 -78
-5 -159 -10 -179 -9 -33 -40 -68 -61 -68 -7 0 -3 121 6 215 2 17 7 74 11 128
4 53 11 97 15 97 5 0 41 -14 81 -31z m731 -97 c-4 -53 -7 -130 -7 -170 0 -39
-2 -72 -3 -72 -13 0 -51 40 -43 44 5 4 8 21 5 39 -3 17 1 80 9 140 11 83 11
107 2 107 -7 0 -17 -12 -23 -27 -14 -37 -31 -194 -24 -228 4 -26 3 -26 -18
-15 -15 8 -19 15 -11 19 8 5 11 38 8 107 l-3 98 30 28 c27 25 61 39 78 31 3
-2 3 -47 0 -101z m-143 -78 l1 -84 -25 12 c-58 26 -68 135 -16 162 35 19 39
10 40 -90z m-351 60 c75 -40 92 -52 92 -65 0 -5 -6 -9 -12 -9 -7 0 -24 -9 -38
-20 -14 -11 -28 -20 -31 -20 -4 0 -10 25 -14 55 -4 36 -11 55 -20 55 -19 0
-23 -18 -13 -70 8 -41 6 -47 -17 -67 -35 -31 -45 -29 -45 7 0 33 22 170 27
170 2 0 34 -16 71 -36z m238 -40 c-3 -9 -6 -20 -6 -25 0 -12 -11 -11 -30 1
-13 9 -12 12 4 25 26 19 40 19 32 -1z m638 -99 c82 -38 180 -85 218 -107 38
-21 83 -41 101 -45 17 -3 79 -21 137 -39 58 -19 110 -34 117 -34 18 0 66 -20
61 -25 -2 -3 -69 -7 -149 -10 -79 -3 -182 -8 -229 -11 -47 -4 -176 -6 -287 -6
-162 1 -209 5 -233 17 -23 12 -79 17 -252 21 -123 3 -226 9 -231 13 -4 4 -12
57 -17 118 -13 151 -3 175 59 143 20 -9 72 -32 116 -51 88 -36 126 -57 138
-76 4 -7 31 -24 60 -38 51 -25 95 -53 149 -94 14 -12 31 -21 36 -21 14 0 22
25 12 40 -5 8 -6 19 -2 25 4 5 7 28 8 50 3 99 18 206 28 201 6 -2 78 -34 160
-71z"/>
</g>
</svg>
