<?xml version="1.0" standalone="no"?>
<!DOCTYPE svg PUBLIC "-//W3C//DTD SVG 20010904//EN"
 "http://www.w3.org/TR/2001/REC-SVG-20010904/DTD/svg10.dtd">
<svg version="1.0" xmlns="http://www.w3.org/2000/svg"
 width="292.000000pt" height="154.000000pt" viewBox="0 0 292.000000 154.000000"
 preserveAspectRatio="xMidYMid meet">
<metadata>
Created by potrace 1.16, written by Peter Selinger 2001-2019
</metadata>
<g transform="translate(0.000000,154.000000) scale(0.100000,-0.100000)"
fill="#000000" stroke="none">
<path d="M2210 1428 c-33 -18 -71 -31 -95 -32 -22 -1 -40 -6 -40 -12 0 -5 -4
-14 -8 -20 -4 -7 0 -17 8 -24 8 -7 15 -18 15 -24 0 -7 16 -36 34 -66 41 -65
41 -66 -59 -105 -38 -15 -104 -40 -145 -57 -159 -62 -302 -100 -360 -96 -76 6
-87 -12 -45 -74 14 -20 25 -40 25 -44 0 -4 7 -15 16 -25 14 -16 14 -20 -4 -46
-48 -69 -103 -165 -98 -171 4 -3 41 0 84 6 42 7 111 12 152 11 81 -3 150 -27
259 -93 31 -19 98 -51 149 -72 107 -43 102 -29 53 -164 -34 -94 -38 -132 -17
-149 17 -15 22 -8 31 46 5 35 11 43 28 44 20 1 20 2 -3 8 -16 5 -21 9 -13 14
7 4 17 26 23 47 6 23 17 40 25 40 8 0 20 9 27 20 7 11 20 20 29 20 11 0 16 9
16 29 0 54 192 288 251 306 31 9 22 29 -14 32 -16 2 -60 8 -98 15 -62 11 -70
15 -90 47 -13 20 -41 93 -64 162 -37 114 -41 137 -40 224 0 78 5 109 24 158
13 33 24 64 24 69 0 15 -25 8 -80 -24z m40 -15 c0 -3 -8 -15 -17 -25 -10 -11
-22 -49 -29 -86 -9 -51 -13 -62 -19 -47 -5 11 -17 32 -27 46 -34 46 -30 61 26
91 54 28 66 32 66 21z m-59 -308 c10 -27 33 -90 50 -140 17 -49 40 -104 50
-121 11 -18 17 -39 13 -47 -7 -18 2 -21 111 -37 38 -6 71 -13 74 -15 2 -3 -23
-33 -57 -69 -33 -35 -86 -101 -118 -145 -32 -44 -62 -77 -66 -73 -4 4 10 61
32 127 46 142 54 178 37 172 -7 -2 -23 -37 -37 -78 -31 -88 -74 -213 -76 -217
-4 -8 -179 71 -240 109 -38 23 -125 70 -195 105 -87 44 -136 75 -156 99 l-29
35 50 53 c28 30 66 64 84 76 17 12 32 31 32 41 0 13 28 29 121 65 66 26 155
62 197 81 42 19 83 33 91 31 7 -1 22 -24 32 -52z m-521 -140 c-7 -8 -10 -15
-8 -15 3 0 -10 -16 -29 -36 -19 -20 -35 -35 -37 -33 -1 2 -12 20 -24 40 l-22
37 57 10 c32 5 62 10 67 11 5 0 3 -6 -4 -14z m-8 -268 l47 -22 -99 -2 -100 -2
28 53 27 53 25 -29 c14 -15 46 -38 72 -51z"/>
<path d="M553 1261 c-32 -42 -45 -51 -82 -57 -23 -3 -74 -2 -111 5 -98 16
-123 2 -79 -45 37 -40 57 -158 59 -359 2 -99 2 -184 1 -190 -1 -5 -10 1 -20
14 -20 26 -41 21 -41 -8 0 -10 8 -36 17 -57 9 -22 22 -57 28 -79 5 -22 17 -41
25 -43 8 -1 47 28 85 64 66 63 133 103 199 118 31 8 31 5 10 -63 -5 -18 -4
-22 5 -16 10 6 12 -8 9 -59 -1 -36 0 -66 4 -66 11 0 17 35 22 125 3 44 5 83 5
87 1 3 33 12 73 18 39 7 113 25 162 41 50 16 100 29 112 29 21 0 121 28 274
78 47 15 95 26 108 24 25 -3 30 15 7 24 -8 4 -15 12 -15 19 0 7 -12 18 -27 25
-37 15 -107 52 -124 66 -8 5 -30 11 -49 12 -19 2 -60 12 -90 23 -66 24 -404
191 -408 202 -2 4 -9 7 -16 7 -15 0 -76 62 -76 77 0 6 -6 16 -14 22 -12 10
-22 3 -53 -38z m139 -101 c27 -13 47 -25 45 -26 -3 -4 -190 27 -195 31 -2 2 4
19 13 39 l17 36 37 -28 c20 -16 57 -39 83 -52z m-243 -51 c-6 -23 -14 -49 -18
-58 -10 -19 -41 -130 -51 -186 -6 -32 -8 -22 -9 50 -1 50 -8 118 -15 153 -8
35 -10 62 -4 62 5 0 6 5 3 10 -4 6 15 10 48 10 l55 0 -9 -41z m263 -4 c14 -4
36 -2 47 4 16 9 26 8 45 -4 33 -22 176 -83 261 -111 39 -13 82 -31 97 -39 14
-8 33 -15 40 -15 8 0 23 -9 33 -20 10 -11 26 -20 37 -20 10 0 18 -4 18 -10 0
-5 4 -10 9 -10 5 0 26 -7 47 -16 l39 -16 -48 -18 c-127 -48 -460 -136 -584
-154 -53 -8 -54 -2 -10 83 58 114 63 122 78 131 26 17 -4 28 -89 32 -61 4 -85
1 -93 -9 -6 -7 -10 -13 -8 -13 2 -1 31 -3 64 -6 33 -3 64 -9 68 -14 5 -4 -7
-38 -26 -76 -18 -38 -38 -79 -43 -91 -6 -17 -9 2 -10 68 -1 49 -4 93 -7 96
-16 15 -23 -13 -16 -69 4 -35 5 -82 2 -105 l-6 -42 -71 -11 c-39 -6 -93 -15
-119 -20 -27 -6 -60 -10 -74 -10 -24 0 -25 2 -20 58 6 83 32 206 62 292 14 41
30 89 36 107 6 20 19 35 35 40 26 9 156 1 206 -12z m-230 -513 c-13 -9 -41
-32 -63 -51 -22 -19 -41 -32 -43 -30 -7 7 -36 68 -36 74 0 3 3 4 8 2 4 -3 36
1 72 8 86 17 89 17 62 -3z"/>
</g>
</svg>
