<?xml version="1.0" standalone="no"?>
<!DOCTYPE svg PUBLIC "-//W3C//DTD SVG 20010904//EN"
 "http://www.w3.org/TR/2001/REC-SVG-20010904/DTD/svg10.dtd">
<svg version="1.0" xmlns="http://www.w3.org/2000/svg"
 width="200.000000pt" height="191.000000pt" viewBox="0 0 200.000000 191.000000"
 preserveAspectRatio="xMidYMid meet">
<metadata>
Created by potrace 1.16, written by Peter Selinger 2001-2019
</metadata>
<g transform="translate(0.000000,191.000000) scale(0.100000,-0.100000)"
fill="#000000" stroke="none">
<path d="M483 1708 c-16 -24 -38 -53 -51 -65 -13 -12 -22 -30 -21 -40 3 -20
-18 -91 -33 -109 -9 -13 -53 -153 -70 -224 -5 -25 -18 -52 -29 -60 -10 -8 -21
-28 -23 -45 -18 -129 -18 -143 -6 -150 8 -5 19 0 29 13 9 11 28 24 43 27 15 4
30 14 33 23 4 14 19 17 77 17 101 0 274 13 339 25 30 6 67 8 83 4 54 -12 326
-141 326 -154 0 -18 -142 -150 -187 -174 -26 -14 -82 -35 -123 -46 -41 -10
-103 -27 -138 -37 -50 -14 -65 -15 -71 -5 -6 10 -18 7 -52 -12 -45 -25 -182
-56 -248 -56 -21 0 -40 -3 -43 -6 -5 -4 5 -31 31 -84 8 -17 155 -91 216 -110
22 -6 60 -23 85 -36 25 -13 83 -43 130 -66 47 -23 96 -54 110 -69 14 -15 39
-36 55 -46 17 -10 30 -25 30 -33 0 -12 17 -15 88 -16 94 -1 110 10 62 42 -14
9 -25 22 -25 29 0 7 -9 24 -21 38 -14 18 -21 46 -24 87 -2 34 -6 64 -9 68 -3
5 -7 37 -11 71 -4 47 -2 69 9 86 11 17 13 35 7 72 -12 78 -1 98 126 232 l51
55 94 -46 c51 -25 110 -54 131 -63 49 -23 43 -39 -15 -43 -67 -4 -73 -18 -34
-77 20 -29 37 -71 41 -100 12 -74 13 -77 23 -87 5 -5 15 -6 23 -3 11 4 15 30
16 107 l2 101 36 34 c19 18 40 33 46 33 6 0 8 8 4 19 -9 28 84 74 131 65 27
-5 34 -3 34 9 0 15 -38 38 -89 52 -13 4 -46 20 -73 36 -27 16 -53 29 -58 29
-15 0 -27 -32 -29 -80 -1 -37 -6 -73 -10 -88 -1 -1 -22 9 -48 22 -27 13 -83
41 -125 62 -43 21 -78 41 -78 44 0 3 59 67 131 141 l131 134 -5 -45 c-3 -25
-8 -52 -11 -61 -11 -27 24 -33 55 -10 34 25 141 75 197 92 42 12 70 34 59 45
-3 4 -34 1 -69 -5 -58 -11 -67 -11 -119 11 -48 20 -55 27 -47 41 7 13 5 17 -7
17 -15 0 -15 2 1 17 16 16 15 18 -15 30 -20 8 -31 20 -31 32 0 11 -4 22 -9 25
-4 3 -7 16 -7 28 3 38 -13 61 -39 54 -21 -5 -22 -4 -17 39 4 36 2 45 -11 45
-9 0 -20 -14 -26 -32 -11 -38 -25 -99 -26 -113 0 -5 -13 -22 -30 -37 -28 -26
-29 -29 -13 -41 11 -9 15 -21 11 -35 -6 -25 16 -39 45 -27 38 16 102 4 102
-20 0 -7 -37 -48 -82 -91 -46 -44 -112 -110 -147 -148 l-64 -68 -155 79 c-140
71 -157 82 -181 122 -14 24 -55 80 -91 125 -36 45 -85 107 -109 139 -25 32
-56 67 -70 78 -37 29 -62 70 -60 99 6 119 -12 139 -58 68z m77 -181 c0 -7 13
-28 30 -47 148 -176 235 -288 228 -295 -5 -5 -216 -25 -264 -25 l-43 0 35 62
c43 75 76 170 64 182 -15 15 -36 -1 -55 -41 -9 -21 -33 -70 -51 -109 -19 -39
-34 -76 -34 -81 0 -21 -59 -36 -103 -27 -33 7 -42 14 -41 29 2 24 63 226 73
240 4 6 22 49 41 97 l34 86 43 -29 c24 -17 43 -35 43 -42z m1075 -277 c17 -6
14 -10 -22 -29 -23 -11 -45 -21 -48 -21 -3 0 -5 16 -5 35 0 34 1 35 28 29 15
-4 36 -10 47 -14z m-35 -299 c0 -5 10 -11 23 -15 l22 -6 -25 -20 c-46 -35 -60
-33 -60 11 0 32 3 39 20 39 11 0 20 -4 20 -9z m-126 -223 c8 -42 1 -46 -18 -9
-19 37 -20 41 -2 41 7 0 16 -14 20 -32z m-455 15 c0 -5 -4 -16 -7 -26 -7 -16
-9 -16 -30 -1 -12 8 -20 20 -17 25 7 11 55 12 54 2z m-100 -59 c59 -30 86 -63
76 -94 -3 -11 -6 -45 -6 -76 0 -66 4 -67 -116 16 -195 134 -187 127 -165 139
23 12 119 39 143 40 8 1 39 -11 68 -25z m-239 -74 c30 -27 58 -50 63 -50 5 0
23 -10 40 -22 43 -31 80 -52 155 -89 34 -17 63 -37 64 -43 11 -82 1 -176 -18
-176 -8 0 -34 18 -58 40 -23 22 -69 52 -102 67 -82 37 -274 152 -274 163 0 6
-8 10 -17 10 -18 1 -81 46 -73 53 69 53 137 94 160 96 3 1 30 -21 60 -49z
m-199 0 c-13 -11 -31 -20 -41 -20 -10 0 -23 -7 -30 -15 -15 -18 -30 -11 -30
15 0 19 48 37 100 39 l25 0 -24 -19z m583 -375 c3 -8 1 -15 -4 -15 -6 0 -10 7
-10 15 0 8 2 15 4 15 2 0 6 -7 10 -15z"/>
</g>
</svg>
