<?xml version="1.0" standalone="no"?>
<!DOCTYPE svg PUBLIC "-//W3C//DTD SVG 20010904//EN"
 "http://www.w3.org/TR/2001/REC-SVG-20010904/DTD/svg10.dtd">
<svg version="1.0" xmlns="http://www.w3.org/2000/svg"
 width="209.000000pt" height="132.000000pt" viewBox="0 0 209.000000 132.000000"
 preserveAspectRatio="xMidYMid meet">
<metadata>
Created by potrace 1.16, written by Peter Selinger 2001-2019
</metadata>
<g transform="translate(0.000000,132.000000) scale(0.100000,-0.100000)"
fill="#000000" stroke="none">
<path d="M902 1247 c-6 -7 -9 -23 -5 -35 4 -16 -3 -30 -26 -51 -17 -16 -31
-34 -31 -40 0 -15 -63 -14 -78 1 -21 21 -34 -7 -37 -79 -1 -37 -6 -102 -10
-145 l-7 -76 -142 5 c-78 2 -161 11 -187 18 -25 8 -65 17 -90 21 -24 3 -59 13
-77 21 -30 13 -36 13 -58 -1 -25 -17 -30 -31 -16 -40 9 -6 7 -238 -2 -302 -4
-22 -11 -56 -16 -75 -13 -46 -13 -132 1 -163 19 -40 31 -19 24 39 l-7 54 38
17 c22 9 84 21 139 26 55 5 145 19 200 29 55 11 114 23 132 26 l32 5 -7 -138
c-8 -170 -8 -262 1 -271 4 -3 17 3 30 15 12 12 52 30 89 42 36 11 91 31 121
45 31 13 100 41 154 60 54 20 157 65 229 101 100 49 329 134 359 134 2 0 18
13 36 30 18 16 46 32 63 36 17 4 62 22 99 41 37 19 74 32 81 30 8 -3 21 2 30
12 21 23 20 31 -3 31 -11 0 -21 9 -25 23 -4 17 -29 32 -108 65 -57 24 -132 59
-168 78 -36 19 -112 57 -170 85 -132 63 -217 107 -400 207 -111 60 -146 84
-150 102 -7 28 -23 36 -38 17z m211 -159 c242 -121 263 -132 325 -158 29 -13
50 -25 48 -28 -6 -6 -160 50 -233 85 -29 14 -56 22 -62 19 -5 -4 -12 -2 -16 4
-3 5 -15 10 -26 10 -10 0 -28 9 -39 20 -12 12 -41 23 -68 27 -46 6 -87 21
-127 46 -11 6 -22 13 -23 14 -4 2 31 52 36 53 1 0 84 -41 185 -92z m-261 -15
c4 -2 1 -14 -6 -26 -25 -39 -97 -265 -102 -322 -12 -124 -22 -140 -17 -25 2
63 6 120 8 127 2 6 7 56 11 110 9 133 14 145 62 142 20 -1 40 -4 44 -6z m133
-17 c74 -30 155 -60 215 -79 25 -8 68 -24 95 -34 28 -11 113 -44 190 -73 77
-29 151 -60 165 -69 14 -10 59 -30 100 -45 118 -43 179 -76 173 -92 -7 -18
-73 -54 -152 -83 -35 -13 -95 -38 -135 -56 -69 -33 -124 -50 -436 -135 -80
-21 -165 -46 -190 -55 -37 -13 -123 -35 -286 -72 -21 -5 -21 -3 -18 88 3 51 7
95 10 98 3 3 4 -22 2 -57 -2 -42 1 -62 9 -62 13 0 22 52 22 118 0 24 5 49 10
56 6 7 8 16 4 20 -9 9 -6 67 7 126 5 25 11 70 14 100 6 69 70 270 97 304 25
32 29 32 104 2z m-730 -240 c8 4 15 4 15 2 0 -2 -20 -48 -45 -103 l-45 -100 0
101 c0 55 3 103 6 107 3 3 17 2 30 -3 13 -5 31 -7 39 -4z m144 -11 c14 -1 49
-3 76 -5 45 -2 42 -4 -40 -15 -49 -7 -105 -16 -124 -20 l-34 -7 22 31 c19 26
27 30 48 25 15 -4 38 -8 52 -9z m297 -124 c-3 -58 -8 -115 -9 -126 -4 -19 -13
-20 -250 -20 l-247 -1 6 30 c2 17 20 64 39 104 27 58 39 72 57 73 34 1 95 8
163 20 33 6 80 13 105 15 25 3 46 7 47 7 1 1 23 3 49 3 l47 2 -7 -107z m-126
-175 c-8 -7 -132 -26 -205 -32 -70 -5 -177 -22 -201 -31 -15 -6 -15 -3 1 25
18 30 21 31 99 34 210 8 310 9 306 4z m651 -161 c-57 -24 -133 -54 -170 -66
-36 -12 -86 -31 -111 -42 -25 -10 -86 -34 -137 -52 l-92 -33 -6 29 c-4 17 -2
36 4 43 10 12 79 31 161 43 19 3 76 18 125 35 50 16 108 33 130 38 58 12 158
40 164 45 2 3 11 5 20 5 9 -1 -31 -21 -88 -45z"/>
<path d="M983 812 c-53 -38 -64 -52 -39 -52 17 0 66 -63 66 -84 0 -26 -62 -20
-105 10 -45 30 -77 28 -85 -5 -6 -27 11 -155 22 -167 4 -3 20 2 35 12 31 21
111 54 131 54 22 0 -24 -52 -70 -80 -48 -30 -52 -46 -9 -42 19 2 46 -5 67 -17
l35 -21 10 28 c6 15 13 44 16 65 7 46 36 48 41 4 3 -22 6 -26 16 -18 10 8 18
2 32 -24 20 -38 28 -42 41 -22 11 17 48 38 203 113 107 52 145 66 183 66 86 1
44 38 -69 62 -79 17 -133 37 -244 90 -79 38 -120 46 -120 21 0 -16 -67 -142
-80 -150 -4 -3 -4 10 2 28 8 27 7 41 -7 70 -11 24 -15 46 -10 67 4 16 3 30 -2
29 -4 0 -31 -17 -60 -37z m37 -32 c0 -12 6 -33 14 -48 8 -17 10 -35 5 -47 -7
-18 -8 -18 -8 -2 -1 10 -13 34 -27 53 -22 28 -24 37 -14 49 17 21 30 19 30 -5z
m160 -72 c-4 -56 -7 -63 -28 -66 -22 -3 -23 -1 -16 34 5 28 4 35 -5 29 -8 -4
-6 6 4 26 40 78 53 72 45 -23z m64 46 c17 -7 20 -32 10 -83 -5 -26 -11 -31
-34 -31 -23 0 -27 4 -24 23 14 103 15 104 48 91z m68 -36 c25 -20 13 -78 -16
-78 -19 0 -21 5 -18 45 4 48 9 52 34 33z m82 -25 c4 -5 11 -8 14 -9 111 -13
126 -33 25 -34 -51 0 -93 4 -93 9 0 34 33 54 54 34z m-277 -28 c-4 -8 -11 -15
-17 -15 -6 0 -6 7 2 20 14 22 24 19 15 -5z m-149 -40 c29 -4 51 -9 49 -11 -2
-2 -26 -10 -53 -18 -27 -7 -56 -16 -65 -20 -13 -6 -18 0 -21 29 -5 41 -1 47
21 36 9 -5 40 -12 69 -16z m482 0 c0 -5 -107 -55 -117 -55 -2 0 -3 10 -1 23 3
22 9 24 106 35 6 1 12 0 12 -3z m-340 -24 c0 -6 -4 -13 -10 -16 -5 -3 -10 1
-10 9 0 9 5 16 10 16 6 0 10 -4 10 -9z m130 -35 c0 -35 -5 -48 -22 -60 -34
-24 -38 -20 -38 38 0 57 -2 55 53 65 4 0 7 -19 7 -43z m68 18 c-2 -15 -13 -33
-25 -41 -21 -14 -22 -13 -19 14 2 15 4 34 5 41 0 6 10 12 22 12 16 0 20 -5 17
-26z m-146 4 c2 -6 2 -24 0 -40 -4 -23 -7 -26 -18 -17 -19 15 -18 69 0 69 8 0
16 -5 18 -12z m-127 -78 c-6 -37 -10 -41 -29 -36 -11 3 -25 6 -30 6 -4 0 7 17
25 38 19 21 36 37 37 36 2 -1 1 -21 -3 -44z"/>
</g>
</svg>
