<?xml version="1.0" standalone="no"?>
<!DOCTYPE svg PUBLIC "-//W3C//DTD SVG 20010904//EN"
 "http://www.w3.org/TR/2001/REC-SVG-20010904/DTD/svg10.dtd">
<svg version="1.0" xmlns="http://www.w3.org/2000/svg"
 width="89.000000pt" height="107.000000pt" viewBox="0 0 89.000000 107.000000"
 preserveAspectRatio="xMidYMid meet">
<metadata>
Created by potrace 1.16, written by Peter Selinger 2001-2019
</metadata>
<g transform="translate(0.000000,107.000000) scale(0.100000,-0.100000)"
fill="#000000" stroke="none">
<path d="M302 1008 c-5 -7 -15 -32 -22 -56 -11 -42 -11 -43 -53 -41 -60 3
-107 -23 -107 -61 0 -44 31 -61 101 -53 l57 6 13 -72 c8 -49 18 -75 30 -82 22
-11 34 5 31 44 -3 36 17 110 32 119 6 4 91 8 190 8 165 0 178 -1 172 -17 -10
-25 -24 -150 -30 -268 -8 -153 -25 -317 -37 -351 l-10 -31 -152 -8 c-206 -10
-314 -11 -322 -3 -7 7 18 59 38 80 33 33 107 128 122 158 10 18 28 45 41 59
26 28 30 41 13 41 -14 0 -91 -77 -134 -135 -16 -21 -54 -66 -83 -100 -29 -33
-62 -77 -72 -98 -16 -33 -17 -39 -3 -52 8 -8 25 -18 39 -21 30 -8 222 2 319
16 92 12 202 13 210 0 9 -14 51 -12 63 3 14 17 25 106 28 217 11 445 16 518
40 527 18 7 18 37 -1 53 -8 7 -23 9 -32 6 -18 -7 -130 -8 -208 -2 -235 19
-245 22 -245 88 0 39 -10 48 -28 26z"/>
</g>
</svg>
