<?xml version="1.0" standalone="no"?>
<!DOCTYPE svg PUBLIC "-//W3C//DTD SVG 20010904//EN"
 "http://www.w3.org/TR/2001/REC-SVG-20010904/DTD/svg10.dtd">
<svg version="1.0" xmlns="http://www.w3.org/2000/svg"
 width="266.000000pt" height="146.000000pt" viewBox="0 0 266.000000 146.000000"
 preserveAspectRatio="xMidYMid meet">
<metadata>
Created by potrace 1.16, written by Peter Selinger 2001-2019
</metadata>
<g transform="translate(0.000000,146.000000) scale(0.100000,-0.100000)"
fill="#000000" stroke="none">
<path d="M1018 1423 c-23 -26 -34 -52 -47 -108 l-12 -50 -73 3 c-70 4 -116 -7
-116 -27 0 -5 8 -11 18 -13 15 -4 19 -17 21 -64 4 -77 4 -120 0 -166 l-4 -38
-105 -2 c-58 -1 -114 -1 -125 -1 -243 8 -316 13 -331 21 -11 5 -35 9 -54 8
-43 -2 -51 -27 -34 -111 7 -33 11 -94 9 -135 -10 -188 -8 -302 6 -311 15 -9
115 -1 139 11 8 4 42 11 75 14 33 4 96 16 139 27 44 11 90 18 102 15 13 -4 43
1 66 9 24 8 46 15 49 15 12 0 -3 -235 -17 -283 -3 -10 1 -26 9 -35 16 -18 32
-62 29 -76 -7 -25 52 -49 72 -28 4 4 11 7 14 7 4 1 30 11 57 24 28 12 109 44
180 71 72 27 182 69 245 95 133 55 182 72 537 192 145 48 263 93 263 99 0 12
111 64 138 64 10 0 22 4 27 8 6 5 30 14 54 21 35 10 49 10 68 0 29 -16 35 -10
27 30 -6 29 -18 37 -158 107 -83 42 -150 81 -148 87 2 7 10 19 18 28 8 8 14
22 14 30 -1 8 -16 -4 -34 -25 l-33 -39 -42 23 c-31 18 -40 28 -35 42 6 19 -10
25 -21 8 -4 -6 -26 0 -55 15 -36 18 -48 29 -43 41 4 12 0 14 -20 9 -32 -8
-132 25 -186 61 -21 14 -90 45 -152 68 -63 24 -160 70 -217 102 -57 33 -137
77 -178 100 -42 22 -75 44 -74 49 2 9 -20 25 -36 25 -6 0 -18 -8 -26 -17z m95
-75 c34 -18 85 -46 112 -64 91 -57 209 -114 299 -145 74 -25 179 -79 154 -79
-11 0 -185 59 -308 105 -63 23 -133 47 -155 53 -204 57 -200 56 -197 87 5 34
19 75 27 75 3 0 34 -14 68 -32z m-159 -126 c2 -4 -11 -32 -30 -61 -18 -30 -41
-76 -50 -103 -8 -26 -17 -48 -19 -48 -1 0 -3 50 -4 110 l0 110 49 0 c27 0 51
-3 54 -8z m324 -58 c90 -30 167 -56 172 -59 4 -3 -52 -67 -126 -142 -74 -75
-134 -140 -134 -144 0 -4 12 -17 26 -28 32 -25 16 -35 -38 -24 l-36 8 15 40
c62 165 62 176 1 157 -18 -6 -58 -14 -88 -17 -30 -4 -64 -9 -74 -12 -18 -5
-18 -6 3 -22 12 -9 26 -33 30 -51 4 -19 11 -46 16 -59 7 -22 5 -23 -19 -17
-14 3 -42 17 -62 31 -41 28 -47 29 -73 15 -24 -12 -36 -100 -21 -163 8 -39 7
-52 -6 -72 -15 -23 -12 -45 6 -45 5 0 22 12 39 26 17 14 38 23 46 20 8 -3 14
0 12 6 -2 11 79 66 100 67 7 1 15 -16 18 -36 4 -21 13 -51 20 -68 7 -16 21
-52 30 -78 10 -27 24 -51 32 -54 18 -7 35 17 23 32 -5 6 -15 39 -23 73 -15 63
-14 63 9 79 27 17 26 18 98 -53 17 -17 39 -35 49 -40 10 -6 23 -33 31 -65 7
-30 15 -60 17 -68 6 -21 -143 -62 -461 -127 -14 -3 -43 -9 -65 -14 -68 -16
-68 -16 -61 38 3 27 8 93 11 148 2 54 9 133 14 174 6 42 9 84 7 94 -3 22 50
208 89 311 35 95 62 145 93 178 24 26 31 28 72 22 25 -4 119 -31 208 -61z
m275 -90 c15 -3 27 -10 27 -14 0 -5 -22 -32 -50 -62 -27 -29 -50 -57 -50 -61
0 -5 -35 -46 -77 -93 -88 -95 -123 -109 -113 -44 1 8 5 17 8 20 11 8 62 119
62 134 0 23 129 138 148 132 9 -3 29 -8 45 -12z m115 -39 c29 -9 52 -19 52
-22 0 -12 -65 -92 -76 -93 -6 0 -25 -22 -42 -49 -58 -90 -142 -148 -157 -108
-8 19 78 187 119 232 19 22 36 43 36 48 0 10 10 9 68 -8z m120 -42 c15 -9 29
-18 31 -20 6 -4 -59 -84 -110 -136 -26 -26 -50 -54 -53 -62 -3 -8 -17 -15 -31
-15 l-25 0 20 40 c11 21 20 48 20 59 0 17 103 151 116 151 3 0 17 -8 32 -17z
m-1530 -63 c38 -15 38 -16 -3 -87 -32 -56 -47 -67 -41 -31 1 13 -3 45 -10 73
-8 27 -14 59 -14 69 0 17 2 18 18 4 9 -8 32 -21 50 -28z m1652 13 c25 -9 46
-18 48 -19 3 -2 -54 -68 -110 -126 -45 -47 -59 -38 -52 35 7 62 35 127 57 127
6 0 32 -8 57 -17z m-756 -28 c-4 -11 -18 -45 -32 -75 l-25 -55 -18 54 c-28 81
-28 85 5 91 59 10 76 7 70 -15z m-685 8 l53 -6 -98 -28 c-119 -35 -118 -34
-96 -8 44 55 43 54 141 42z m329 -32 c2 -19 -2 -54 -8 -79 -6 -24 -17 -94 -24
-154 -8 -60 -16 -112 -20 -115 -3 -3 -11 -1 -18 4 -7 6 -42 9 -78 7 -152 -9
-303 -4 -382 12 -15 3 -36 0 -48 -6 -20 -11 -20 -9 -14 47 4 32 12 61 18 65 6
4 7 10 4 14 -8 7 46 117 65 132 7 6 39 15 71 22 33 7 69 16 80 20 12 4 49 16
84 26 34 9 66 22 72 29 5 7 44 11 102 10 l93 0 3 -34z m1239 2 c21 -10 40 -18
42 -20 1 -1 -9 -18 -24 -38 -26 -34 -28 -62 -3 -37 17 17 38 15 38 -4 0 -13
-11 -15 -62 -12 l-63 4 -5 44 c-4 31 -1 50 9 63 17 21 21 21 68 0z m-743 -22
c-19 -39 -40 -56 -49 -40 -5 6 5 23 21 40 37 36 46 36 28 0z m646 -21 c0 -5
-5 -10 -11 -10 -5 0 -7 5 -4 10 3 6 8 10 11 10 2 0 4 -4 4 -10z m163 -5 c-3
-9 -8 -14 -10 -11 -3 3 -2 9 2 15 9 16 15 13 8 -4z m-678 -34 c-8 -17 -22 -31
-31 -31 -17 0 -12 13 19 47 27 30 32 22 12 -16z m889 -48 l79 -41 -30 -16
c-17 -8 -79 -31 -138 -51 -83 -27 -111 -33 -121 -24 -16 13 -19 45 -5 54 5 3
12 19 16 36 5 23 11 28 25 24 23 -7 76 13 64 25 -5 4 -22 10 -38 12 -22 2 -31
10 -37 30 -4 15 -5 29 -2 32 6 6 78 -25 187 -81z m-558 40 c-11 -11 -19 6 -11
24 8 17 8 17 12 0 3 -10 2 -21 -1 -24z m-171 -5 c-11 -28 -45 -52 -45 -33 0 6
52 65 57 65 1 0 -4 -15 -12 -32z m-605 -22 c8 -7 32 -20 53 -29 21 -9 35 -22
32 -27 -4 -6 -38 -26 -76 -45 l-69 -35 -1 35 c-5 118 -3 128 24 119 12 -3 29
-12 37 -18z m940 14 c0 -5 -10 -10 -22 -10 -19 0 -20 2 -8 10 19 13 30 13 30
0z m-200 -20 c0 -5 -4 -10 -10 -10 -5 0 -10 5 -10 10 0 6 5 10 10 10 6 0 10
-4 10 -10z m170 -34 c-38 -14 -46 -13 -35 3 3 6 21 11 38 10 l32 -1 -35 -12z
m-656 -6 c42 0 47 -2 36 -15 -7 -8 -17 -15 -22 -15 -6 0 -30 -13 -55 -30 -24
-16 -46 -30 -48 -30 -8 0 -17 70 -11 86 4 11 13 14 29 10 12 -3 44 -6 71 -6z
m526 2 c0 -2 -19 -11 -42 -21 -42 -17 -42 -18 -16 -24 19 -5 30 -17 39 -44 6
-20 25 -49 41 -65 16 -16 28 -35 25 -41 -4 -12 -115 -53 -122 -45 -19 21 -54
112 -47 121 5 7 17 32 26 57 24 60 33 69 67 67 16 -1 29 -3 29 -5z m43 -45
l-17 -46 -16 27 c-16 26 -16 27 14 48 17 12 32 21 34 20 1 -2 -5 -24 -15 -49z
m-398 14 c-27 -16 -52 -27 -53 -26 -2 2 -1 13 3 24 6 18 17 22 85 29 8 1 -7
-11 -35 -27z m227 -21 l-16 -51 -14 26 c-15 30 -10 55 13 55 8 0 15 5 15 10 0
6 4 10 9 10 5 0 2 -23 -7 -50z m328 45 c0 -4 -7 -20 -16 -37 l-16 -32 -13 25
c-12 21 -11 25 8 36 24 13 37 16 37 8z m114 -10 c-4 -8 -15 -15 -26 -15 -17 0
-20 -5 -15 -30 4 -16 2 -32 -3 -35 -20 -12 -9 -27 15 -23 49 10 34 -10 -17
-22 -46 -12 -52 -11 -65 6 -18 24 -17 38 7 76 13 22 33 37 57 45 51 15 53 15
47 -2z m-534 1 c0 -3 -4 -8 -10 -11 -5 -3 -10 -1 -10 4 0 6 5 11 10 11 6 0 10
-2 10 -4z m-220 -17 c0 -9 -17 -47 -25 -57 -2 -2 -14 2 -26 9 l-23 12 30 23
c32 26 44 30 44 13z m158 4 c-34 -71 -42 -77 -51 -43 -3 13 2 25 16 35 23 16
41 20 35 8z m402 -23 c0 -40 25 -99 45 -106 26 -10 17 -20 -30 -31 -46 -10
-46 -10 -59 22 -8 18 -18 35 -24 39 -6 4 -3 20 9 43 10 21 19 43 19 50 0 7 9
13 20 13 16 0 20 -7 20 -30z m-323 -21 c-3 -12 0 -22 9 -26 8 -3 12 -8 10 -12
-4 -6 9 -33 51 -110 l22 -40 -52 -17 c-29 -9 -58 -19 -65 -22 -8 -3 -10 1 -6
11 3 9 -8 44 -25 79 -36 73 -36 78 -15 124 13 28 22 34 46 34 26 0 30 -3 25
-21z m-149 -47 c12 -26 22 -51 22 -56 -1 -5 2 -12 7 -15 15 -11 60 -76 66 -96
6 -17 0 -22 -33 -33 -22 -6 -44 -12 -49 -12 -11 0 -36 69 -27 77 9 9 -23 76
-50 104 -27 29 -25 51 9 67 31 15 30 16 55 -36z m-1144 -87 c94 -7 262 -6 281
1 14 5 17 4 10 -3 -5 -6 -55 -18 -110 -28 -55 -9 -132 -23 -172 -31 -88 -17
-82 -17 -78 4 2 9 4 30 4 45 1 18 5 26 12 21 6 -3 30 -8 53 -9z m1483 -51 c-3
-3 -12 -4 -19 -1 -8 3 -5 6 6 6 11 1 17 -2 13 -5z m-38 -8 c-2 -2 -29 -13 -59
-24 -30 -11 -64 -23 -75 -27 -14 -5 -17 -5 -10 2 6 6 37 20 70 31 58 21 83 26
74 18z m-245 -92 c-49 -17 -123 -46 -164 -64 -137 -58 -396 -151 -403 -144 -2
2 -20 -3 -40 -11 -20 -8 -38 -15 -41 -15 -6 0 -19 60 -14 65 2 3 105 30 229
60 123 31 240 62 259 70 32 13 130 43 155 47 6 0 28 9 50 19 21 10 43 15 49
12 5 -3 -31 -21 -80 -39z"/>
</g>
</svg>
