<?xml version="1.0" standalone="no"?>
<!DOCTYPE svg PUBLIC "-//W3C//DTD SVG 20010904//EN"
 "http://www.w3.org/TR/2001/REC-SVG-20010904/DTD/svg10.dtd">
<svg version="1.0" xmlns="http://www.w3.org/2000/svg"
 width="238.000000pt" height="148.000000pt" viewBox="0 0 238.000000 148.000000"
 preserveAspectRatio="xMidYMid meet">
<metadata>
Created by potrace 1.16, written by Peter Selinger 2001-2019
</metadata>
<g transform="translate(0.000000,148.000000) scale(0.100000,-0.100000)"
fill="#000000" stroke="none">
<path d="M2065 1379 c-16 -5 -64 -11 -106 -13 -42 -3 -98 -12 -124 -21 -26 -8
-60 -17 -74 -19 -54 -8 -128 -28 -188 -52 -34 -13 -110 -35 -170 -49 -59 -14
-135 -32 -168 -40 -33 -8 -87 -16 -120 -19 -33 -3 -73 -10 -88 -15 -16 -6 -40
-11 -54 -11 -23 0 -25 -2 -21 -47 l3 -48 -99 3 c-94 2 -159 15 -346 67 -30 8
-89 15 -130 15 -69 0 -79 -3 -107 -27 l-31 -28 -6 -180 c-9 -244 -15 -365 -21
-398 -5 -31 9 -77 25 -77 5 0 10 11 10 24 0 52 12 84 34 90 11 2 120 7 241 11
264 7 365 14 365 25 0 5 -8 11 -17 13 -12 3 -8 5 9 6 35 1 58 -8 58 -24 0 -6
-13 -32 -30 -56 -16 -24 -30 -47 -30 -50 0 -4 29 -4 65 -1 77 6 200 -12 262
-39 25 -10 56 -19 70 -19 46 0 226 -61 299 -101 45 -24 85 -39 106 -39 20 0
46 -9 61 -20 14 -11 30 -20 35 -20 6 0 16 -13 23 -29 25 -57 37 -26 35 92 0
62 2 130 7 152 4 22 14 78 23 125 34 185 79 360 120 465 23 61 53 150 66 199
16 62 31 98 51 119 43 46 31 58 -38 36z m-5 -61 c-11 -18 -31 -67 -45 -108
-33 -101 -58 -171 -90 -255 -15 -38 -33 -106 -41 -149 -7 -43 -17 -82 -20 -85
-4 -3 -4 41 0 99 3 58 8 141 10 185 2 44 7 136 10 205 l6 124 72 3 c39 2 73 5
76 8 3 3 14 5 24 5 17 0 17 -2 -2 -32z m-207 -50 c-2 -35 -8 -97 -13 -138 -6
-41 -10 -111 -9 -155 1 -88 -5 -174 -26 -370 -19 -181 -30 -297 -29 -318 1
-32 -81 -11 -181 47 -49 29 -106 59 -125 66 -56 22 -224 105 -256 127 -16 11
-40 27 -54 36 -14 9 -54 39 -90 67 -35 27 -70 50 -78 50 -7 0 -20 -16 -28 -36
-12 -30 -18 -34 -37 -28 -12 4 -107 9 -212 10 -104 1 -217 7 -250 13 -33 6
-80 11 -105 11 -74 0 -76 8 -36 140 9 30 31 84 49 119 25 51 38 66 62 73 28 7
321 3 433 -7 40 -3 52 -1 52 10 0 7 -8 16 -17 18 -10 3 2 5 25 6 36 1 45 -3
49 -18 8 -32 34 -35 57 -7 25 30 334 180 456 221 47 16 92 34 100 41 8 6 29
15 45 18 17 4 37 14 45 21 8 7 42 18 74 24 33 6 62 13 64 16 3 3 13 5 22 5 13
0 15 -10 13 -62z m-560 -118 c-29 -17 -55 -30 -59 -30 -4 0 -37 -15 -74 -34
-81 -42 -138 -55 -151 -35 -5 8 -9 26 -9 42 0 33 21 43 112 52 68 6 136 20
145 29 4 3 25 6 47 6 l41 0 -52 -30z m-940 -85 c31 -4 47 -11 44 -18 -4 -11
-67 -160 -107 -257 l-19 -45 -1 168 c0 156 1 168 18 164 9 -3 39 -8 65 -12z
m173 2 c22 -8 85 -22 142 -32 56 -10 102 -21 102 -24 0 -7 -333 -1 -339 5 -4
3 48 64 55 64 1 0 19 -6 40 -13z m301 -63 c-3 -3 -12 -4 -19 -1 -8 3 -5 6 6 6
11 1 17 -2 13 -5z m241 -404 c5 0 16 -7 23 -16 18 -22 119 -89 204 -137 39
-21 61 -36 50 -32 -11 4 -54 18 -95 32 -41 14 -104 27 -140 29 -36 2 -86 6
-112 9 l-47 7 14 31 c8 18 19 51 25 75 l11 43 29 -21 c15 -11 32 -20 38 -20z
m-443 3 c266 -8 239 -18 -73 -28 -125 -3 -234 -9 -243 -11 -17 -5 -29 21 -21
45 3 10 18 12 61 7 31 -3 155 -9 276 -13z"/>
</g>
</svg>
