<?xml version="1.0" standalone="no"?>
<!DOCTYPE svg PUBLIC "-//W3C//DTD SVG 20010904//EN"
 "http://www.w3.org/TR/2001/REC-SVG-20010904/DTD/svg10.dtd">
<svg version="1.0" xmlns="http://www.w3.org/2000/svg"
 width="188.000000pt" height="105.000000pt" viewBox="0 0 188.000000 105.000000"
 preserveAspectRatio="xMidYMid meet">
<metadata>
Created by potrace 1.16, written by Peter Selinger 2001-2019
</metadata>
<g transform="translate(0.000000,105.000000) scale(0.100000,-0.100000)"
fill="#000000" stroke="none">
<path d="M626 994 c-13 -12 -14 -19 -6 -29 8 -10 8 -19 0 -35 -6 -11 -18 -53
-25 -93 -41 -204 -48 -228 -64 -221 -9 4 -29 6 -46 4 -28 -4 -176 -4 -239 0
-15 1 -38 5 -51 10 -32 12 -64 -12 -49 -37 7 -11 8 -29 2 -48 -5 -16 -6 -64
-4 -105 3 -41 0 -123 -7 -182 -7 -60 -9 -114 -5 -122 7 -12 20 -14 61 -9 29 3
194 7 367 8 173 2 387 7 475 12 88 6 271 9 407 7 230 -3 248 -2 257 15 7 13 6
24 -6 40 -13 19 -14 39 -9 107 4 45 9 91 10 101 2 10 7 97 11 193 7 169 12
235 15 235 1 0 3 16 4 35 1 20 5 40 8 45 3 6 2 20 -3 33 l-9 24 -342 -3 c-301
-3 -468 2 -518 16 -8 2 -61 7 -117 10 -85 5 -104 3 -117 -11z m209 -59 c55 -8
129 -15 165 -15 36 0 71 -4 78 -9 14 -8 13 -31 -18 -346 -5 -55 -11 -155 -13
-223 -2 -67 -7 -126 -11 -130 -10 -9 -499 -12 -591 -3 -42 4 -101 2 -149 -6
-55 -9 -83 -9 -92 -2 -9 8 -11 52 -7 182 3 95 7 173 8 175 1 1 54 -2 118 -9
85 -8 120 -8 136 0 15 8 27 9 40 1 32 -17 100 -15 118 3 14 14 15 22 5 54 -10
31 -9 50 3 103 9 36 21 88 26 115 24 114 26 116 79 124 3 0 50 -6 105 -14z
m839 -40 c-1 -59 -15 -242 -20 -266 -3 -13 -9 -78 -14 -144 -5 -66 -14 -146
-19 -179 -6 -32 -9 -63 -8 -70 1 -8 -45 -12 -161 -14 l-163 -2 6 157 c4 87 8
172 11 188 11 85 31 331 27 341 -6 16 28 19 202 19 l140 0 -1 -30z m-393 7
c-10 -20 -19 -79 -26 -187 -3 -44 -8 -96 -10 -115 -5 -32 -15 -219 -18 -335
l-2 -50 -60 0 -60 0 2 45 c3 75 14 252 18 300 2 25 10 113 16 197 14 169 7
157 96 160 47 1 52 0 44 -15z"/>
</g>
</svg>
