<?xml version="1.0" standalone="no"?>
<!DOCTYPE svg PUBLIC "-//W3C//DTD SVG 20010904//EN"
 "http://www.w3.org/TR/2001/REC-SVG-20010904/DTD/svg10.dtd">
<svg version="1.0" xmlns="http://www.w3.org/2000/svg"
 width="128.000000pt" height="173.000000pt" viewBox="0 0 128.000000 173.000000"
 preserveAspectRatio="xMidYMid meet">
<metadata>
Created by potrace 1.16, written by Peter Selinger 2001-2019
</metadata>
<g transform="translate(0.000000,173.000000) scale(0.100000,-0.100000)"
fill="#000000" stroke="none">
<path d="M650 1680 c0 -14 -98 -106 -155 -145 -27 -19 -63 -45 -80 -58 l-30
-25 2 -625 2 -625 -67 -27 c-37 -15 -78 -34 -92 -43 -14 -9 -38 -24 -55 -33
-38 -21 -48 -55 -13 -44 12 5 39 18 58 31 19 13 43 24 53 24 10 0 16 4 13 8
-3 5 14 16 37 26 74 31 115 53 144 78 31 26 187 105 200 101 6 -2 16 5 22 15
18 33 215 162 247 162 9 0 44 -76 44 -96 0 -11 -104 -54 -129 -54 -6 0 -19 -4
-29 -9 -122 -62 -330 -153 -417 -183 -62 -21 -99 -37 -84 -37 23 -1 188 52
244 78 228 107 259 119 395 155 60 17 103 44 83 52 -7 3 -20 31 -29 62 -15 49
-15 57 -1 67 12 9 13 14 2 28 -7 9 -19 17 -27 17 -8 0 -30 11 -49 25 -19 14
-61 41 -94 60 -82 48 -105 69 -105 99 0 33 23 47 135 80 50 15 114 37 143 48
35 13 64 18 86 14 28 -5 36 -3 50 18 23 36 20 47 -11 44 -27 -3 -28 -1 -27 42
2 42 -1 47 -37 70 -22 14 -37 30 -35 37 6 16 -23 44 -72 69 -43 22 -202 153
-232 191 -11 14 -20 38 -20 53 0 15 -7 49 -15 76 -18 59 -20 155 -3 172 9 9 5
12 -20 12 -18 0 -32 -4 -32 -10z m-10 -88 c0 -11 9 -45 19 -77 19 -57 18 -95
-1 -60 -8 13 -18 15 -42 11 -22 -4 -41 0 -65 15 l-34 20 54 55 c57 58 69 64
69 36z m-70 -205 c0 -24 -76 -232 -111 -302 -5 -11 -16 -40 -23 -65 -13 -41
-14 -27 -13 165 l2 210 72 0 c40 0 73 -4 73 -8z m110 -45 c0 -4 27 -25 60 -47
33 -22 60 -44 60 -48 0 -5 -37 -7 -82 -6 -46 2 -93 0 -105 -5 -27 -9 -31 -35
-5 -38 9 0 23 -2 30 -2 21 -2 39 -56 45 -132 3 -38 9 -99 13 -136 8 -79 0 -94
-55 -104 -20 -4 -41 -14 -47 -22 -6 -8 -24 -15 -40 -16 -24 -1 -29 -5 -29 -26
0 -21 13 -32 83 -69 91 -49 92 -51 72 -149 -13 -57 -17 -93 -19 -144 -1 -40
-2 -40 -162 -126 -76 -41 -77 -41 -83 -19 -9 36 -7 112 5 124 6 6 10 93 10
244 -1 171 3 255 15 314 19 98 41 170 64 210 10 17 30 63 44 104 15 40 36 87
47 102 20 28 21 28 50 14 16 -9 29 -19 29 -23z m84 -189 c-39 -69 -43 -71 -50
-24 -4 23 -11 44 -15 47 -23 14 -4 24 41 24 l51 0 -27 -47z m135 7 c24 -17 50
-30 58 -30 7 0 21 -16 30 -35 9 -19 25 -37 35 -41 10 -3 18 -8 18 -12 -1 -13
-276 -172 -297 -172 -9 0 -13 23 -13 81 0 72 3 88 30 134 28 49 76 105 89 105
3 0 26 -14 50 -30z m171 -206 c0 -25 -24 -37 -124 -59 -38 -9 -96 -27 -129
-41 -33 -13 -63 -22 -65 -19 -3 3 -1 5 5 5 6 0 64 32 129 72 158 95 183 101
184 42z m-415 -194 c3 -5 1 -10 -4 -10 -6 0 -11 5 -11 10 0 6 2 10 4 10 3 0 8
-4 11 -10z m15 -46 c53 -32 32 -34 -27 -3 -32 17 -60 32 -62 34 -10 10 61 -15
89 -31z m146 -76 c74 -45 68 -55 -11 -16 -36 18 -65 36 -65 40 0 15 22 8 76
-24z m9 -54 c33 -12 71 -26 84 -32 23 -8 18 -13 -77 -75 -55 -37 -108 -70
-116 -73 -21 -8 -21 25 -1 129 8 43 15 81 15 84 0 3 8 2 18 -2 9 -4 44 -18 77
-31z"/>
</g>
</svg>
