<?xml version="1.0" standalone="no"?>
<!DOCTYPE svg PUBLIC "-//W3C//DTD SVG 20010904//EN"
 "http://www.w3.org/TR/2001/REC-SVG-20010904/DTD/svg10.dtd">
<svg version="1.0" xmlns="http://www.w3.org/2000/svg"
 width="271.000000pt" height="134.000000pt" viewBox="0 0 271.000000 134.000000"
 preserveAspectRatio="xMidYMid meet">
<metadata>
Created by potrace 1.16, written by Peter Selinger 2001-2019
</metadata>
<g transform="translate(0.000000,134.000000) scale(0.100000,-0.100000)"
fill="#000000" stroke="none">
<path d="M1151 1194 c-11 -14 -23 -35 -26 -46 -6 -16 -14 -19 -53 -16 -26 2
-52 7 -58 10 -16 10 -54 -20 -54 -43 0 -10 4 -19 8 -19 8 0 8 -24 3 -158 l-1
-33 -112 2 c-62 1 -135 9 -163 16 -56 16 -77 20 -117 22 -17 0 -28 7 -28 15 0
14 -29 26 -66 26 -12 0 -27 7 -34 15 -9 10 -17 12 -30 5 -14 -7 -21 -4 -33 13
-14 19 -18 20 -26 7 -6 -8 -13 -34 -17 -58 -4 -25 -13 -46 -21 -49 -9 -3 -43
-1 -76 5 -44 8 -64 8 -74 1 -20 -17 -16 -27 17 -34 l30 -7 -3 -197 c-2 -109
-7 -203 -11 -210 -5 -7 -9 -45 -11 -84 -2 -40 -6 -93 -10 -119 -5 -32 -4 -48
3 -48 13 0 18 15 36 119 8 46 20 88 28 92 7 5 58 10 113 11 55 1 123 3 150 4
28 1 101 5 163 7 62 3 116 8 119 11 9 9 133 7 133 -1 0 -5 -5 -39 -11 -78 -6
-38 -12 -103 -13 -144 -3 -73 -2 -74 27 -86 27 -11 32 -10 51 10 14 14 77 40
186 75 91 29 181 58 200 66 19 8 64 21 100 29 36 9 88 22 115 30 28 7 66 17
85 20 19 4 62 15 95 24 33 10 105 28 160 40 55 12 118 26 140 32 22 5 67 16
100 24 99 23 187 50 250 80 33 15 84 35 114 44 30 9 56 22 59 29 7 23 -16 16
-174 -47 l-51 -20 -11 24 c-6 13 -8 26 -4 28 4 3 41 8 84 12 42 3 85 13 95 20
16 13 10 15 -52 16 -38 0 -80 4 -92 7 -19 6 -20 9 -7 26 14 19 15 19 94 -7 44
-15 86 -27 95 -27 18 0 20 16 3 27 -25 15 -169 62 -225 73 -32 6 -62 17 -68
23 -5 7 -28 12 -50 13 -71 1 -93 10 -87 39 3 20 0 25 -16 25 -11 0 -25 -7 -33
-16 -9 -11 -22 -14 -48 -9 -20 4 -40 10 -46 15 -5 4 -26 11 -45 15 -50 10
-120 46 -120 62 0 8 -10 13 -27 12 -17 -2 -83 24 -165 64 -75 37 -140 67 -144
67 -4 0 -35 13 -70 30 -34 16 -79 30 -98 32 -20 1 -36 5 -36 8 0 3 -20 13 -45
23 -25 11 -42 23 -39 28 13 22 -37 6 -55 -17z m167 -67 c19 -4 55 -17 81 -30
26 -13 65 -30 86 -37 22 -7 52 -21 66 -31 14 -10 38 -21 54 -25 30 -7 95 -42
95 -51 0 -9 -53 5 -250 66 -143 45 -268 78 -297 80 -10 1 -10 7 -1 29 21 49
35 54 87 28 25 -13 61 -26 79 -29z m-245 -44 c7 -11 -9 -104 -28 -169 -10 -36
-21 -54 -31 -54 -13 0 -14 7 -8 43 4 23 6 70 5 104 -1 35 1 67 4 73 7 12 52
14 58 3z m134 -29 c32 -8 73 -17 92 -19 18 -2 38 -8 44 -14 6 -6 22 -11 35
-11 24 0 122 -38 122 -48 0 -11 -33 -42 -45 -42 -7 0 -18 -6 -25 -14 -6 -8
-17 -13 -23 -10 -7 2 -18 -6 -26 -17 -11 -19 -11 -23 1 -30 8 -4 20 -26 28
-48 12 -37 11 -43 -5 -61 -39 -43 -52 -21 -59 104 -3 38 -1 79 4 91 12 31 3
37 -29 21 -14 -7 -42 -16 -63 -20 -34 -6 -63 -36 -34 -36 14 0 98 -159 91
-171 -3 -4 -29 -1 -58 7 -28 7 -64 14 -79 14 -15 0 -30 5 -33 10 -4 6 -12 7
-23 1 -12 -7 -17 -28 -19 -95 -3 -81 -2 -86 17 -86 12 0 33 9 48 20 15 10 48
21 75 24 l47 6 -21 -29 c-22 -30 -85 -84 -131 -114 -36 -23 -36 -38 1 -31 38
8 74 -11 66 -36 -3 -10 -1 -21 4 -24 5 -4 43 43 83 103 40 61 76 107 79 103 3
-4 12 -22 19 -41 13 -33 13 -34 -38 -82 -29 -27 -52 -52 -52 -57 0 -4 28 -14
63 -21 34 -7 69 -15 77 -18 26 -9 -28 -23 -140 -38 -58 -8 -148 -26 -200 -40
-160 -44 -143 -46 -135 16 10 84 26 132 49 151 18 15 19 19 6 28 -8 5 -19 11
-24 13 -6 2 -2 31 8 69 9 36 19 76 20 89 9 65 106 399 117 399 4 0 34 -7 66
-16z m-733 -118 c28 -14 67 -27 86 -29 53 -7 140 -28 140 -33 0 -3 -16 -2 -35
2 -49 9 -147 -4 -142 -19 3 -7 10 -11 16 -9 23 5 227 2 322 -4 l97 -7 1 -86
c0 -76 -8 -155 -25 -229 l-5 -24 -197 5 c-108 2 -206 6 -217 9 -11 3 -58 11
-105 18 -119 17 -123 18 -144 33 -18 14 -18 15 2 43 12 16 30 61 42 99 35 114
33 112 87 119 97 14 113 18 113 32 0 12 -13 13 -67 8 -56 -5 -66 -4 -55 7 16
18 15 29 -3 29 -17 0 -18 4 -9 38 8 29 34 28 98 -2z m1125 8 c11 -4 10 -8 -4
-24 -10 -11 -21 -18 -23 -15 -3 3 -17 -5 -30 -17 l-25 -23 8 40 c4 22 9 43 11
46 4 7 29 4 63 -7z m-279 -81 c-1 -57 -1 -58 -16 -30 -8 15 -19 27 -24 27 -6
0 -10 11 -10 24 0 22 10 30 43 35 4 0 7 -25 7 -56z m388 49 c9 -6 6 -14 -13
-30 -32 -28 -35 -27 -35 1 0 36 19 47 48 29z m-218 -39 c-1 -23 -9 -48 -21
-62 -19 -23 -20 -23 -34 -5 -27 38 -25 53 13 79 20 14 38 25 39 25 2 0 3 -17
3 -37z m142 -17 c-3 -37 -10 -60 -22 -71 -18 -17 -20 -16 -36 19 l-18 36 34
35 c19 19 36 35 39 35 4 0 4 -24 3 -54z m141 -16 c-1 -29 -7 -59 -15 -66 -12
-12 -17 -8 -36 28 l-21 43 22 12 c12 6 23 16 23 22 3 21 4 23 17 18 8 -2 11
-22 10 -57z m67 31 c0 -3 -10 -12 -21 -20 -19 -11 -21 -11 -15 4 3 9 6 21 6
26 0 4 7 6 15 3 8 -4 15 -9 15 -13z m-1523 -35 c-3 -11 -17 -52 -31 -91 l-25
-70 -1 50 c-1 28 -5 59 -9 70 -4 10 -3 31 2 45 8 22 15 25 39 22 25 -4 29 -8
25 -26z m1573 16 c0 -10 -50 -35 -57 -29 -2 3 3 12 12 21 17 17 45 22 45 8z
m-884 -73 l-14 -54 -1 56 c-1 57 6 76 21 61 5 -5 3 -32 -6 -63z m553 -56 c-21
-40 -34 -27 -33 35 1 80 3 83 25 32 17 -37 18 -48 8 -67z m436 101 c14 -6 14
-8 -1 -25 -16 -18 -16 -19 4 -19 15 0 24 -8 28 -25 10 -40 -2 -57 -38 -53 -32
3 -33 5 -36 52 -5 72 3 85 43 70z m-275 -90 c0 -14 -38 -49 -45 -42 -3 3 -8
29 -12 58 -4 39 -3 54 8 61 10 6 18 -1 31 -29 10 -20 18 -42 18 -48z m123 61
c22 -16 17 -43 -13 -70 -19 -17 -20 -17 -22 1 0 10 -1 28 -1 39 1 51 5 54 36
30z m247 2 c0 -14 -19 -37 -31 -37 -14 0 -19 34 -7 42 20 12 38 10 38 -5z
m-590 -42 c0 -32 -4 -45 -14 -45 -21 0 -27 42 -10 67 21 32 24 29 24 -22z
m680 20 c-15 -19 1 -20 32 -4 15 8 10 -2 -16 -35 -21 -25 -41 -46 -45 -46 -4
0 -12 23 -17 50 l-11 50 35 0 c29 0 33 -2 22 -15z m-260 -27 c-1 -28 -2 -30
-11 -15 -6 10 -8 25 -5 33 9 24 16 16 16 -18z m408 1 c30 -10 31 -12 16 -34
-11 -16 -23 -22 -47 -21 -28 1 -32 5 -35 34 -4 36 10 41 66 21z m-701 -21 c-3
-8 -6 -5 -6 6 -1 11 2 17 5 13 3 -3 4 -12 1 -19z m481 -19 l-3 -24 -13 23 c-7
12 -10 27 -6 33 10 17 26 -6 22 -32z m-328 10 c0 -5 -4 -9 -10 -9 -5 0 -10 7
-10 16 0 8 5 12 10 9 6 -3 10 -10 10 -16z m450 -11 c0 -18 -2 -20 -9 -8 -6 8
-7 18 -5 22 9 14 14 9 14 -14z m-994 3 c16 -5 46 -12 67 -16 20 -3 37 -9 37
-14 0 -4 -43 -14 -95 -22 l-95 -14 0 37 c0 35 2 38 29 38 15 0 41 -4 57 -9z
m209 -31 c3 -5 -3 -10 -15 -10 -12 0 -18 5 -15 10 3 6 10 10 15 10 5 0 12 -4
15 -10z m659 -51 c13 -20 12 -25 -15 -62 -33 -45 -36 -57 -13 -57 8 0 12 -4 9
-10 -3 -5 -21 -10 -40 -10 -46 0 -54 34 -24 106 18 43 27 54 45 54 13 0 30
-10 38 -21z m136 -37 c10 -22 16 -42 14 -45 -3 -2 -19 -1 -37 2 -29 7 -32 10
-29 42 5 74 19 74 52 1z m-777 39 c15 -2 6 -49 -13 -66 -11 -10 -22 -16 -25
-14 -9 9 -34 77 -30 81 3 3 32 3 68 -1z m162 -8 c0 -17 -67 -102 -80 -103 -6
0 -17 15 -23 34 -12 32 -11 37 10 61 18 20 30 25 58 23 20 -2 35 -8 35 -15z
m-285 3 c0 -10 -102 -156 -109 -156 -5 0 -14 7 -22 16 -11 13 -3 24 52 79 56
56 79 74 79 61z m409 -18 c-7 -13 -19 -34 -27 -47 -14 -21 -17 -22 -28 -6 -7
9 -11 23 -8 31 2 8 6 21 9 29 3 9 17 15 35 15 29 0 30 -1 19 -22z m179 -3 c2
-17 -39 -75 -53 -75 -7 0 -26 39 -30 62 -6 31 3 39 43 36 28 -2 38 -8 40 -23z
m64 -7 c-7 -7 -12 -8 -12 -2 0 14 12 26 19 19 2 -3 -1 -11 -7 -17z m-210 -35
c-11 -16 -24 -41 -27 -56 -7 -28 -19 -35 -30 -16 -4 5 -1 18 7 27 8 9 23 34
33 54 12 23 23 34 28 29 6 -6 1 -21 -11 -38z m534 -1 c-22 -5 -30 3 -21 18 5
8 11 7 22 -2 15 -12 14 -13 -1 -16z m-702 -35 c-24 -43 -44 -67 -44 -52 0 20
59 109 67 101 2 -2 -8 -24 -23 -49z m230 -8 c10 -23 13 -45 9 -50 -11 -10 -72
-15 -74 -6 -2 14 32 97 41 97 4 0 15 -19 24 -41z m113 15 c-9 -9 -28 6 -21 18
4 6 10 6 17 -1 6 -6 8 -13 4 -17z m-1697 -2 c0 -10 178 -42 237 -43 86 -1 75
-16 -17 -22 -191 -12 -230 -10 -230 10 0 10 -3 28 -6 41 -4 13 -2 22 5 22 6 0
11 -4 11 -8z m1252 -19 c16 -26 15 -28 -10 -50 -31 -27 -38 -28 -45 -9 -5 13
23 85 33 86 3 0 13 -12 22 -27z m158 -1 c0 -9 -10 -24 -22 -32 -23 -14 -23
-15 12 -20 54 -8 46 -34 -12 -40 -27 -3 -48 -2 -48 3 0 14 54 107 63 107 4 0
7 -8 7 -18z m470 8 c0 -5 -10 -10 -22 -10 -19 0 -20 2 -8 10 19 13 30 13 30 0z
m-720 -28 c0 -16 -32 -52 -46 -52 -20 0 -18 10 8 37 22 23 38 30 38 15z m510
4 c0 -2 -9 -6 -20 -9 -11 -3 -20 -1 -20 4 0 5 9 9 20 9 11 0 20 -2 20 -4z
m-380 -46 c0 -5 -5 -10 -11 -10 -5 0 -7 5 -4 10 3 6 8 10 11 10 2 0 4 -4 4
-10z m-31 -49 c11 -7 9 -10 -8 -16 -24 -7 -44 2 -36 16 8 11 26 11 44 0z
m-181 -87 c-3 -3 -28 -12 -54 -19 -27 -8 -95 -30 -152 -49 -116 -39 -163 -47
-169 -29 -6 16 67 48 144 64 185 38 243 46 231 33z"/>
</g>
</svg>
