<?xml version="1.0" standalone="no"?>
<!DOCTYPE svg PUBLIC "-//W3C//DTD SVG 20010904//EN"
 "http://www.w3.org/TR/2001/REC-SVG-20010904/DTD/svg10.dtd">
<svg version="1.0" xmlns="http://www.w3.org/2000/svg"
 width="246.000000pt" height="167.000000pt" viewBox="0 0 246.000000 167.000000"
 preserveAspectRatio="xMidYMid meet">
<metadata>
Created by potrace 1.16, written by Peter Selinger 2001-2019
</metadata>
<g transform="translate(0.000000,167.000000) scale(0.100000,-0.100000)"
fill="#000000" stroke="none">
<path d="M1015 1610 c-3 -5 -46 -12 -96 -16 -100 -7 -107 -13 -90 -66 16 -53
14 -272 -4 -410 l-7 -48 -192 0 c-106 0 -196 4 -201 8 -12 10 -200 1 -211 -10
-13 -14 2 -19 79 -26 l75 -7 -51 -92 -52 -93 -7 38 c-3 20 -11 50 -17 66 -10
24 -9 27 4 22 8 -3 15 -1 15 4 0 6 -7 10 -15 10 -13 0 -14 4 -5 20 9 16 8 20
-5 20 -27 0 -33 -40 -22 -145 3 -27 11 -123 18 -213 7 -90 16 -165 20 -168 4
-2 13 4 18 14 7 13 31 23 73 32 35 7 97 20 138 30 41 10 97 21 123 25 27 3 66
13 88 20 22 8 53 12 69 8 27 -5 30 -9 30 -47 0 -23 -4 -57 -10 -75 -9 -31 -11
-89 -8 -161 3 -44 -23 -162 -50 -231 -6 -15 -8 -30 -5 -33 14 -14 32 -4 41 22
7 19 23 33 53 46 24 10 73 32 109 48 152 70 352 158 360 158 5 0 46 16 92 36
45 20 115 50 153 67 39 16 126 59 195 95 69 36 141 73 160 81 115 52 434 218
437 227 6 19 -28 26 -51 10 -19 -12 -24 -11 -56 18 -19 17 -71 53 -115 80 -44
27 -117 73 -161 103 -45 29 -84 53 -88 53 -4 0 -62 33 -129 74 -67 40 -138 81
-157 91 -19 10 -57 35 -85 56 -27 20 -102 65 -165 99 -63 34 -141 82 -173 106
-58 46 -112 70 -122 54z m7 -52 c-5 -7 -15 -32 -22 -56 -9 -36 -14 -42 -31
-37 -11 4 -19 2 -19 -4 0 -6 7 -11 16 -11 13 0 15 -7 9 -42 -4 -24 -15 -65
-25 -93 -10 -27 -23 -69 -29 -92 -12 -45 -17 -49 -39 -34 -11 6 -13 33 -9 116
2 59 1 123 -3 143 -4 21 -10 54 -13 74 -5 35 -4 37 26 41 18 2 58 5 91 5 46 2
56 -1 48 -10z m107 -62 c36 -25 93 -57 125 -71 33 -15 90 -46 127 -70 38 -24
82 -51 100 -60 58 -30 24 -24 -101 19 -100 34 -281 117 -346 158 -16 11 -5 68
14 68 8 0 45 -20 81 -44z m-84 -56 c3 -6 -1 -7 -9 -4 -18 7 -21 14 -7 14 6 0
13 -4 16 -10z m0 -20 c17 -7 24 -7 20 0 -3 6 -1 10 4 10 6 0 11 -5 11 -11 0
-5 4 -8 9 -5 4 3 28 -7 53 -23 62 -40 95 -53 238 -101 69 -23 191 -75 272
-116 81 -41 153 -74 161 -74 7 0 42 -19 78 -42 36 -24 89 -55 119 -71 68 -34
193 -118 197 -132 2 -6 -89 -58 -202 -115 -113 -58 -234 -120 -268 -138 -34
-17 -105 -49 -157 -69 -52 -20 -104 -42 -115 -50 -11 -7 -27 -13 -36 -13 -10
0 -52 -14 -93 -30 -42 -17 -95 -35 -118 -40 -78 -17 -213 -52 -233 -60 -36
-13 -161 -50 -172 -50 -6 0 -9 17 -6 43 27 279 66 550 105 725 22 99 23 102
50 102 16 0 28 -4 28 -10 0 -5 6 -10 13 -10 7 0 49 -27 93 -59 43 -33 88 -66
99 -74 20 -14 20 -15 -3 -59 -12 -25 -22 -49 -22 -53 0 -4 -19 -37 -43 -74
-75 -115 -156 -247 -163 -264 -4 -10 -1 -17 6 -17 10 0 10 -3 0 -15 -17 -21
-3 -55 23 -55 12 0 44 11 72 24 69 33 104 48 225 96 58 23 119 48 135 56 17 9
82 33 145 54 63 22 156 55 205 75 99 39 275 125 275 135 0 8 -101 50 -120 50
-18 0 -120 39 -104 40 6 0 33 -7 60 -15 58 -18 105 -20 64 -3 -14 5 -48 16
-75 23 -28 8 -73 25 -100 39 -28 13 -63 28 -80 32 -16 4 -50 21 -75 39 -25 18
-70 38 -100 45 -73 17 -333 106 -390 132 -25 12 -53 28 -63 37 -15 12 -23 13
-49 3 -18 -6 -33 -10 -35 -8 -6 6 20 106 28 106 4 0 19 -4 34 -10z m-73 -152
c-7 -7 -12 -8 -12 -2 0 14 12 26 19 19 2 -3 -1 -11 -7 -17z m139 -34 c30 -9
68 -22 84 -29 17 -7 53 -22 80 -33 37 -16 49 -25 47 -39 -7 -32 -44 -113 -53
-113 -13 0 -11 10 15 63 13 26 21 47 18 47 -8 0 -52 -54 -58 -72 -7 -23 -17
-23 -40 3 -10 12 -38 35 -61 51 -24 16 -43 37 -43 47 0 10 -9 26 -21 37 -25
22 -43 54 -31 54 5 0 33 -7 63 -16z m-95 -16 c18 -20 18 -21 1 -15 -10 4 -25
7 -33 7 -8 0 -11 6 -8 15 8 20 18 19 40 -7z m-122 -105 c-4 -19 -12 -53 -20
-76 l-13 -42 0 76 c-1 80 2 91 25 82 11 -4 13 -15 8 -40z m671 -28 c49 -25 97
-45 106 -45 9 0 34 -12 55 -27 21 -14 62 -36 89 -48 28 -13 57 -30 64 -39 9
-10 18 -13 28 -7 20 11 63 2 63 -13 0 -7 -30 -26 -67 -44 -75 -35 -272 -109
-300 -113 -27 -3 -69 17 -86 41 -8 11 -39 40 -68 63 -91 71 -149 121 -149 129
0 4 14 38 32 75 18 38 32 71 30 75 -1 4 24 5 56 2 42 -3 81 -16 147 -49z
m-902 -56 c-5 -3 -35 -12 -68 -18 -33 -6 -98 -20 -145 -30 -47 -11 -86 -18
-87 -17 -1 1 10 18 26 37 l29 34 126 1 c70 0 123 -3 119 -7z m152 -116 c-3
-60 -8 -128 -12 -153 -3 -25 -5 -57 -4 -72 1 -32 -8 -35 -101 -28 -37 3 -68 1
-68 -3 0 -5 -77 -7 -170 -5 -161 3 -171 4 -175 23 -20 85 -23 114 -18 135 10
37 63 110 87 121 25 10 244 53 371 73 50 8 91 14 93 15 2 0 1 -47 -3 -106z
m48 62 c-3 -9 -8 -14 -10 -11 -3 3 -2 9 2 15 9 16 15 13 8 -4z m365 -40 c-6
-14 -13 -23 -15 -21 -5 5 15 46 22 46 3 0 -1 -11 -7 -25z m125 -59 c39 -29 81
-63 91 -75 11 -11 24 -21 30 -22 6 0 21 -13 33 -28 l22 -28 -187 -68 c-103
-38 -200 -75 -215 -82 -36 -18 -41 -13 -25 23 6 16 12 36 13 44 5 41 31 99 61
134 18 21 40 55 50 75 16 33 46 80 52 81 1 0 35 -24 75 -54z m-888 -271 c-33
-6 -86 -20 -119 -29 -65 -19 -85 -12 -67 23 11 20 19 21 129 20 l117 -1 -60
-13z m589 -39 c-3 -9 -13 -16 -22 -16 -13 0 -12 3 3 20 20 23 29 21 19 -4z
m276 -156 c-19 -11 -42 -19 -50 -19 -8 0 3 9 25 19 53 24 70 24 25 0z m-155
-55 c-16 -8 -57 -26 -90 -41 -33 -14 -111 -51 -173 -80 -62 -30 -114 -54 -116
-54 -2 0 -3 14 -4 30 -1 35 21 52 88 70 70 18 180 50 240 70 65 22 98 25 55 5z"/>
</g>
</svg>
