<?xml version="1.0" standalone="no"?>
<!DOCTYPE svg PUBLIC "-//W3C//DTD SVG 20010904//EN"
 "http://www.w3.org/TR/2001/REC-SVG-20010904/DTD/svg10.dtd">
<svg version="1.0" xmlns="http://www.w3.org/2000/svg"
 width="221.000000pt" height="129.000000pt" viewBox="0 0 221.000000 129.000000"
 preserveAspectRatio="xMidYMid meet">
<metadata>
Created by potrace 1.16, written by Peter Selinger 2001-2019
</metadata>
<g transform="translate(0.000000,129.000000) scale(0.100000,-0.100000)"
fill="#000000" stroke="none">
<path d="M1230 1251 c0 -5 -18 -31 -40 -57 -38 -47 -59 -102 -46 -123 8 -13
36 -3 36 13 0 21 84 7 160 -26 122 -55 178 -82 205 -102 32 -24 108 -61 166
-81 55 -20 121 -55 148 -79 17 -15 25 -17 28 -8 3 9 27 0 80 -29 54 -29 79
-37 86 -30 14 14 6 22 -58 55 -27 15 -57 31 -65 36 -8 5 -54 31 -102 59 -48
28 -92 51 -98 51 -5 0 -10 4 -10 8 0 5 -44 39 -97 75 -54 36 -145 98 -203 138
-58 39 -117 76 -132 81 -16 6 -28 14 -28 19 0 5 -7 9 -15 9 -8 0 -15 -4 -15
-9z m108 -86 c16 -14 33 -25 36 -25 4 0 64 -41 134 -91 70 -50 134 -94 142
-97 8 -3 24 -14 34 -24 11 -10 25 -18 32 -18 6 0 18 -8 25 -17 15 -17 -85 33
-206 105 -70 42 -276 132 -301 132 -24 0 -25 20 -4 55 21 34 22 34 50 20 15
-8 41 -26 58 -40z"/>
<path d="M1146 1243 c-3 -3 -47 -8 -98 -10 -91 -4 -126 -15 -109 -37 4 -6 11
-45 14 -87 l6 -75 -107 -11 c-141 -14 -351 -16 -365 -4 -7 5 -34 6 -67 0 -30
-4 -90 -10 -132 -12 -85 -4 -103 -12 -74 -32 12 -10 19 -27 20 -52 1 -39 -11
-171 -18 -210 -3 -11 -8 -43 -12 -70 -4 -26 -11 -59 -16 -73 -15 -39 -11 -141
6 -158 13 -13 19 -13 48 1 18 8 62 18 98 21 36 3 119 10 184 16 65 5 137 15
160 21 39 11 218 5 251 -7 11 -5 13 -35 12 -149 -2 -156 3 -172 47 -161 22 5
25 11 20 31 -7 27 -15 22 124 76 70 27 85 30 93 18 6 -11 -12 -24 -83 -59 -51
-25 -94 -51 -96 -58 -3 -8 11 -4 34 11 42 26 131 67 146 67 5 0 8 -43 8 -97
-2 -122 -3 -118 14 -103 15 11 19 59 17 165 l-2 50 98 56 c54 30 121 63 148
74 28 10 62 26 77 36 14 11 29 19 32 19 4 0 25 12 49 27 52 34 74 46 162 91
39 19 86 48 106 63 20 15 51 31 70 34 49 8 99 37 99 57 0 10 -6 18 -14 18 -7
0 -134 -61 -282 -136 -278 -140 -485 -237 -492 -229 -2 2 1 28 8 57 8 29 14
62 16 73 5 48 27 108 45 126 21 21 19 56 -2 43 -7 -4 -45 -10 -86 -14 -40 -4
-77 -11 -81 -14 -8 -8 -7 -52 1 -197 7 -110 1 -125 -52 -134 -19 -3 -37 -7
-40 -9 -3 -2 -30 -11 -60 -20 l-53 -16 6 118 c7 139 14 222 21 279 6 40 8 43
43 48 20 3 60 10 87 15 28 5 90 13 138 19 48 6 92 13 97 16 29 18 -7 23 -167
21 l-178 -1 3 31 c2 17 10 59 18 95 8 35 23 106 34 157 11 51 29 111 40 134
11 23 20 43 20 44 0 6 -29 12 -34 7z m-31 -60 c-12 -33 -74 -301 -80 -348 -3
-27 -10 -54 -15 -59 -18 -18 -23 25 -14 115 7 67 6 100 -3 132 -14 45 -19 144
-8 155 28 29 131 33 120 5z m-416 -213 c-31 -9 -80 -20 -110 -24 -30 -4 -82
-16 -117 -27 -35 -12 -66 -19 -69 -16 -3 3 3 19 13 36 20 35 61 51 117 49 20
-1 39 1 41 3 2 2 44 2 93 0 l88 -4 -56 -17z m-320 -35 c-17 -25 -39 -50 -49
-55 -10 -6 -18 -18 -18 -28 1 -9 -11 -39 -25 -65 l-26 -48 3 113 4 113 44 6
c23 3 55 7 70 7 l27 2 -30 -45z m593 -50 c-2 -49 -7 -94 -12 -98 -7 -8 -97 1
-215 22 -145 25 -140 26 -153 -3 -7 -15 -12 -40 -12 -57 0 -41 20 -119 31
-119 5 0 53 12 106 26 54 14 132 28 174 31 l77 6 -4 -29 c-2 -16 -5 -60 -6
-97 l-1 -68 -46 6 c-25 3 -93 8 -151 10 -303 10 -417 18 -441 30 -29 13 -61 3
-44 -14 13 -13 136 -25 343 -34 7 0 9 -4 5 -8 -4 -3 -53 -10 -108 -13 -55 -3
-131 -9 -170 -12 -130 -11 -123 -13 -114 44 17 108 98 309 141 348 16 15 86
36 183 55 28 6 100 21 160 35 140 31 150 32 210 30 l50 -1 -3 -90z m-232 -110
c52 -9 121 -18 153 -19 38 -2 62 -8 68 -17 7 -11 0 -15 -34 -17 -50 -4 -226
-38 -261 -52 -30 -11 -31 -9 -40 51 -7 45 0 83 13 75 3 -2 49 -12 101 -21z
m410 -29 c0 -2 -9 -6 -20 -9 -11 -3 -20 -1 -20 4 0 5 9 9 20 9 11 0 20 -2 20
-4z m-53 -12 c-3 -3 -12 -4 -19 -1 -8 3 -5 6 6 6 11 1 17 -2 13 -5z m226 -119
c11 -5 12 -14 1 -58 -7 -29 -20 -87 -30 -130 -9 -43 -21 -80 -26 -83 -4 -3 -8
30 -8 73 0 72 -6 115 -24 170 -6 18 -3 22 21 26 48 7 51 7 66 2z m212 -196
c-55 -28 -128 -66 -162 -85 -65 -36 -78 -41 -68 -23 8 11 304 158 320 158 6 0
-35 -23 -90 -50z"/>
</g>
</svg>
