<?xml version="1.0" standalone="no"?>
<!DOCTYPE svg PUBLIC "-//W3C//DTD SVG 20010904//EN"
 "http://www.w3.org/TR/2001/REC-SVG-20010904/DTD/svg10.dtd">
<svg version="1.0" xmlns="http://www.w3.org/2000/svg"
 width="90.000000pt" height="114.000000pt" viewBox="0 0 90.000000 114.000000"
 preserveAspectRatio="xMidYMid meet">
<metadata>
Created by potrace 1.16, written by Peter Selinger 2001-2019
</metadata>
<g transform="translate(0.000000,114.000000) scale(0.100000,-0.100000)"
fill="#000000" stroke="none">
<path d="M575 1004 c-60 -50 -86 -58 -187 -60 -141 -3 -136 2 -132 -151 5
-176 2 -522 -5 -604 0 -9 -9 -19 -19 -21 -17 -5 -19 -22 -12 -120 0 -12 28
-10 35 2 4 6 2 16 -4 23 -6 8 -6 18 -1 27 8 12 10 9 10 -10 0 -24 1 -23 38 12
42 41 115 69 232 88 41 7 86 19 98 27 23 14 23 15 6 34 -10 11 -18 36 -18 58
-1 45 -50 108 -103 131 -32 14 -35 19 -37 68 -2 29 -6 55 -8 58 -9 8 -96 -34
-106 -52 -11 -20 -32 -11 -32 14 0 14 32 25 158 57 150 37 271 81 272 98 0 4
-8 4 -17 -2 -73 -38 -389 -118 -405 -102 -16 15 88 258 129 304 15 16 18 16
42 0 55 -35 114 -90 147 -135 33 -47 76 -70 95 -51 6 6 -2 18 -21 31 -16 13
-30 31 -30 41 0 10 -16 32 -35 50 -33 30 -35 35 -36 99 -1 37 -1 72 0 78 1 6
-4 16 -11 22 -10 7 -21 3 -43 -14z m17 -74 c2 -22 3 -40 2 -40 -1 0 -19 7 -39
16 l-38 16 29 23 c16 14 32 24 35 25 4 0 9 -18 11 -40z m-175 -52 c-3 -7 -22
-53 -43 -103 -20 -49 -45 -108 -55 -130 l-18 -40 -2 45 c-1 25 -3 88 -4 140
l-2 95 64 3 c49 1 64 -1 60 -10z m33 -373 c0 -26 -14 -31 -40 -15 -13 8 -12
11 5 24 28 21 35 20 35 -9z m10 -90 c60 -25 70 -34 70 -60 0 -16 -18 -34 -71
-69 -82 -55 -86 -72 -7 -27 65 37 72 38 85 8 11 -23 9 -24 -93 -49 -87 -21
-104 -23 -104 -11 0 13 -3 13 -24 -1 -28 -17 -46 -5 -26 19 7 8 10 50 9 110
-1 52 0 97 2 98 60 33 63 34 89 17 14 -9 45 -25 70 -35z"/>
</g>
</svg>
