<?xml version="1.0" standalone="no"?>
<!DOCTYPE svg PUBLIC "-//W3C//DTD SVG 20010904//EN"
 "http://www.w3.org/TR/2001/REC-SVG-20010904/DTD/svg10.dtd">
<svg version="1.0" xmlns="http://www.w3.org/2000/svg"
 width="255.000000pt" height="132.000000pt" viewBox="0 0 255.000000 132.000000"
 preserveAspectRatio="xMidYMid meet">
<metadata>
Created by potrace 1.16, written by Peter Selinger 2001-2019
</metadata>
<g transform="translate(0.000000,132.000000) scale(0.100000,-0.100000)"
fill="#000000" stroke="none">
<path d="M1541 1233 c-86 -81 -131 -108 -266 -158 -123 -46 -321 -149 -317
-165 3 -11 -38 -12 -215 -6 -120 3 -234 8 -253 11 -19 2 -62 6 -95 10 -33 3
-69 12 -80 19 -15 9 -37 11 -84 5 -85 -10 -100 -26 -32 -35 28 -4 51 -11 51
-17 0 -16 -70 -97 -85 -97 -14 0 -25 30 -25 72 0 15 -4 30 -10 33 -15 9 -23
-42 -15 -103 7 -61 8 -163 1 -332 l-4 -105 19 40 c10 22 19 50 19 63 0 14 9
26 23 32 17 7 18 9 5 9 -18 1 -22 10 -18 46 3 32 12 34 80 18 36 -8 88 -17
115 -20 28 -3 57 -11 66 -19 10 -9 19 -10 26 -3 7 7 24 7 56 -1 31 -7 84 -7
164 0 65 5 142 10 172 10 51 0 53 -1 49 -24 -5 -24 15 -143 26 -153 12 -12 26
11 26 42 0 23 6 38 19 44 10 6 20 8 23 6 2 -2 21 -6 43 -9 21 -3 42 -10 46
-17 6 -10 11 -10 23 0 13 11 23 7 63 -27 26 -22 71 -52 100 -66 28 -14 54 -34
58 -45 3 -11 19 -31 35 -44 16 -14 39 -46 51 -72 12 -26 32 -51 44 -57 24 -11
29 -8 136 72 26 19 77 53 113 75 37 22 90 55 119 74 29 18 64 38 80 43 15 6
27 14 27 19 0 12 -37 11 -45 -1 -4 -6 -10 -8 -15 -5 -5 3 -25 -6 -46 -20 -20
-14 -41 -25 -47 -25 -6 0 -33 -17 -61 -38 -28 -21 -58 -41 -68 -45 -9 -3 -45
-25 -80 -50 -79 -55 -94 -60 -113 -41 -19 20 -30 63 -19 74 5 5 29 12 54 15
25 3 67 16 93 30 27 14 55 25 62 25 7 0 43 15 81 34 38 19 85 40 104 48 83 35
97 41 133 54 21 7 35 9 32 4 -3 -6 -2 -10 3 -10 12 0 37 30 26 30 -22 1 24 20
47 20 15 0 53 14 85 31 33 18 71 38 86 46 15 8 30 18 33 24 4 5 15 9 26 9 10
0 19 7 19 15 0 20 -2 20 -66 -15 -31 -16 -71 -32 -90 -36 -19 -3 -37 -10 -40
-15 -3 -5 -13 -9 -22 -9 -10 0 -49 -15 -87 -33 -39 -19 -95 -42 -125 -52 -30
-10 -59 -21 -65 -25 -5 -4 -27 -13 -47 -19 -20 -7 -59 -23 -85 -37 -26 -13
-53 -24 -60 -24 -6 0 -27 -9 -45 -19 -18 -11 -62 -27 -98 -36 -36 -9 -75 -19
-88 -22 -18 -4 -31 3 -56 28 -18 19 -51 45 -74 58 -50 29 -126 98 -141 127 -7
14 -7 24 0 31 7 7 2 15 -14 26 -13 8 -37 29 -53 46 -16 17 -33 31 -39 31 -5 0
-18 -15 -29 -33 l-19 -32 -9 28 c-7 18 -6 38 1 59 6 17 11 41 11 53 0 26 96
153 133 178 17 11 34 13 58 8 19 -4 84 -8 144 -10 61 -1 153 -8 205 -14 l95
-12 2 -68 c1 -56 -2 -67 -15 -69 -19 -1 -52 -1 -66 1 -4 0 -5 25 -2 55 4 30 3
56 -1 59 -13 8 -37 -9 -29 -21 3 -6 2 -13 -4 -17 -5 -3 -10 -1 -10 5 0 7 -7 6
-20 -3 -22 -16 -152 -6 -234 19 -62 18 -119 19 -113 2 2 -7 14 -12 27 -10 12
1 29 -3 36 -9 7 -5 62 -13 123 -16 79 -4 111 -10 111 -18 0 -7 7 -15 15 -19 8
-3 15 -10 15 -15 0 -9 -44 -8 -210 4 -66 5 -89 3 -104 -8 -18 -13 -15 -14 35
-15 113 -3 290 -19 299 -28 5 -5 10 -15 12 -23 2 -12 -21 -14 -135 -13 -76 0
-148 -3 -160 -8 -26 -10 -41 -9 157 -15 144 -5 176 -15 176 -53 0 -9 10 -26
22 -39 l21 -23 -163 0 c-90 0 -161 -2 -159 -4 2 -2 49 -7 104 -10 174 -11 230
-18 238 -30 5 -8 10 -7 16 4 16 24 23 9 30 -70 1 -12 4 -11 12 3 7 12 8 47 4
98 -6 65 -10 79 -22 75 -8 -3 -19 -6 -24 -6 -5 0 -9 -4 -9 -10 0 -5 7 -10 15
-10 8 0 15 -9 15 -20 0 -26 -24 -16 -38 16 -7 13 -16 24 -22 24 -5 0 -10 9
-10 20 0 15 7 20 28 20 15 0 33 -5 40 -12 9 -9 16 -8 29 4 18 15 86 35 150 43
18 2 38 7 44 10 6 4 46 7 89 6 55 -1 81 3 89 12 9 12 -6 15 -87 20 -164 11
-222 9 -222 -8 0 -8 5 -15 10 -15 6 0 10 -4 10 -9 0 -12 -63 -21 -74 -10 -10
9 -9 99 1 157 4 23 11 32 24 32 29 0 33 -25 11 -62 -25 -42 -36 -78 -24 -78
14 0 92 135 92 158 0 35 -30 39 -343 47 -109 2 -205 8 -213 13 -14 8 10 27
178 139 35 22 77 53 94 67 40 33 45 33 38 -4 -7 -31 -3 -34 42 -31 26 2 271
-97 369 -149 106 -56 185 -103 234 -138 24 -18 49 -32 55 -32 42 0 158 -100
149 -127 -6 -18 18 -16 45 3 13 8 22 26 22 40 0 21 -4 23 -24 18 -17 -4 -28 1
-43 20 -11 14 -54 41 -94 61 -94 45 -186 101 -233 143 -20 18 -58 43 -84 56
-26 13 -56 33 -66 45 -10 11 -41 35 -67 52 -27 17 -49 35 -49 39 0 5 -34 33
-75 64 -41 31 -77 61 -80 66 -11 17 -33 11 -64 -17z m119 -69 c33 -25 62 -49
65 -55 4 -5 30 -25 58 -44 123 -81 116 -94 -14 -27 -52 26 -114 56 -139 67
-68 28 -69 31 -57 70 6 19 14 35 19 35 4 0 35 -20 68 -46z m-320 -99 c0 -10
-110 -86 -166 -115 -54 -27 -124 -40 -124 -22 0 12 156 95 223 119 71 26 67
24 67 18z m570 -95 c8 -5 11 -10 5 -10 -5 0 -17 5 -25 10 -8 5 -10 10 -5 10 6
0 17 -5 25 -10z m-1410 -91 c10 -6 -14 -8 -65 -7 -44 2 -95 -1 -112 -5 -40
-10 -44 5 -5 20 30 12 158 6 182 -8z m524 5 c14 -5 14 -9 0 -37 -9 -18 -26
-42 -37 -55 l-21 -22 -13 31 c-17 40 -17 59 1 59 7 0 19 7 26 15 14 16 21 18
44 9z m-134 -13 c14 -3 25 -14 26 -23 0 -10 1 -51 2 -90 2 -51 5 -69 12 -58
18 28 11 -9 -12 -71 -23 -57 -23 -58 -73 -65 -82 -12 -287 -6 -359 10 -37 9
-82 16 -99 16 -18 0 -65 7 -106 15 -40 9 -83 15 -94 13 -19 -3 -20 2 -18 67 2
59 6 73 26 92 13 13 29 31 34 40 9 15 12 16 20 4 8 -12 14 -12 40 -1 18 7 53
14 79 15 109 5 182 17 182 31 0 11 29 14 158 13 86 -1 168 -4 182 -8z m610
-110 c0 -26 -17 -36 -35 -21 -20 16 -19 28 3 33 30 8 32 7 32 -12z m99 -80
c25 -16 4 -41 -33 -41 -37 0 -51 12 -42 35 6 16 53 20 75 6z m-554 -111 c3 -5
-1 -10 -9 -10 -9 0 -16 5 -16 10 0 6 4 10 9 10 6 0 13 -4 16 -10z m23 -52 c23
-23 13 -38 -25 -38 -47 0 -66 11 -57 33 7 20 64 23 82 5z"/>
<path d="M1248 563 c7 -3 16 -2 19 1 4 3 -2 6 -13 5 -11 0 -14 -3 -6 -6z"/>
<path d="M1292 564 c11 -10 177 -14 183 -4 4 6 -31 10 -91 10 -54 0 -95 -3
-92 -6z"/>
</g>
</svg>
