<?xml version="1.0" standalone="no"?>
<!DOCTYPE svg PUBLIC "-//W3C//DTD SVG 20010904//EN"
 "http://www.w3.org/TR/2001/REC-SVG-20010904/DTD/svg10.dtd">
<svg version="1.0" xmlns="http://www.w3.org/2000/svg"
 width="256.000000pt" height="140.000000pt" viewBox="0 0 256.000000 140.000000"
 preserveAspectRatio="xMidYMid meet">
<metadata>
Created by potrace 1.16, written by Peter Selinger 2001-2019
</metadata>
<g transform="translate(0.000000,140.000000) scale(0.100000,-0.100000)"
fill="#000000" stroke="none">
<path d="M1762 1227 c-5 -6 -13 -23 -17 -35 -7 -23 -9 -24 -95 -17 -61 4 -95
3 -111 -5 -15 -9 -18 -14 -9 -20 7 -4 14 -32 16 -61 3 -30 9 -69 14 -89 5 -19
8 -132 7 -251 l-2 -217 -95 5 c-52 2 -152 1 -222 -4 -116 -7 -197 -5 -428 12
-101 7 -115 9 -183 28 -29 8 -83 18 -121 21 -89 9 -127 25 -162 71 -33 44 -33
63 1 140 19 43 34 59 72 81 26 15 59 37 73 47 l25 20 -25 -6 c-14 -4 -84 -37
-156 -76 -72 -38 -145 -72 -162 -76 -18 -3 -32 -13 -32 -20 0 -7 34 -39 75
-70 70 -54 75 -60 70 -89 -3 -17 -7 -74 -9 -126 l-5 -95 -43 -3 c-58 -3 -88
-11 -88 -22 0 -5 8 -11 18 -14 19 -6 35 -56 53 -166 20 -124 32 -171 43 -167
6 2 12 14 14 28 6 55 35 148 48 153 8 3 14 16 14 28 0 15 24 45 71 91 40 37
69 70 66 73 -3 3 -24 0 -46 -6 -40 -11 -61 -7 -61 9 0 9 155 83 223 107 23 8
53 12 67 10 14 -3 108 -8 209 -11 102 -4 187 -7 190 -7 7 -2 270 11 379 18 40
2 78 2 83 -2 14 -8 -30 -54 -52 -54 -10 0 -28 -13 -41 -29 -22 -27 -118 -84
-135 -79 -5 1 -18 -2 -31 -6 -26 -9 -23 -35 6 -65 10 -9 28 -30 40 -46 23 -29
24 -29 38 -11 8 11 14 26 14 33 0 28 79 135 131 178 65 54 83 65 105 65 24 0
33 15 14 22 -6 2 15 25 46 51 l56 47 84 0 c46 0 84 -2 84 -5 0 -2 -26 -23 -57
-46 -70 -52 -91 -70 -165 -138 -72 -67 -137 -115 -145 -108 -7 7 -63 -21 -63
-31 1 -4 19 -25 40 -47 22 -22 40 -48 40 -57 0 -12 8 -18 25 -18 21 0 25 5 25
29 0 17 10 41 23 56 l22 25 33 -20 c21 -13 40 -36 50 -61 19 -48 43 -49 47 -2
1 18 21 70 43 116 36 76 49 92 133 163 51 43 112 96 135 117 36 32 52 39 105
45 40 4 64 12 67 21 4 11 -1 12 -19 7 -13 -5 -158 -10 -323 -11 l-298 -4 4 90
c2 49 9 94 16 101 8 8 88 14 242 19 127 4 234 10 238 13 4 2 35 7 68 10 73 8
89 -4 79 -58 -9 -45 -5 -45 -310 -50 -230 -4 -306 -13 -321 -38 -5 -7 4 -9 27
-5 19 4 106 9 194 12 237 8 378 16 386 21 12 7 17 -8 24 -69 4 -36 3 -57 -3
-57 -16 0 -161 -123 -242 -204 -41 -42 -77 -76 -81 -76 -11 0 -39 -30 -39 -42
0 -6 10 -8 22 -5 26 7 70 -15 97 -49 27 -35 42 -27 46 23 3 34 21 86 62 182 4
9 1 12 -7 9 -16 -5 -67 -101 -75 -140 l-5 -27 -34 22 -33 22 40 35 c22 19 69
65 105 102 56 59 146 128 165 128 4 0 7 -9 7 -19 0 -25 20 -38 30 -21 9 14 2
87 -10 109 -4 8 -3 27 2 43 7 19 7 32 -1 41 -7 9 -6 39 3 102 15 98 56 193
100 234 49 46 38 51 -94 50 -65 0 -123 1 -127 4 -4 3 -51 8 -103 12 -52 4
-126 16 -165 26 -38 11 -80 21 -92 23 -12 2 -26 7 -31 10 -5 3 -14 0 -20 -7z
m159 -77 c10 0 21 -4 24 -10 3 -5 -3 -10 -14 -10 -12 0 -44 -9 -73 -20 -29
-11 -56 -20 -60 -20 -4 0 -6 22 -5 48 l2 48 54 -18 c30 -10 62 -18 72 -18z
m-189 -19 c4 -3 -22 -39 -57 -79 -58 -65 -65 -70 -69 -50 -13 58 -26 130 -26
136 0 9 142 3 152 -7z m495 -4 c1 -1 5 -25 8 -54 l7 -51 -48 -6 c-91 -11 -524
-17 -524 -7 0 12 59 71 71 71 6 0 8 -4 5 -9 -3 -4 0 -16 8 -26 12 -16 16 -15
72 13 32 16 77 33 98 37 22 4 49 14 61 23 18 14 40 16 130 14 60 -2 110 -4
112 -5z m143 6 c0 -3 -6 -14 -14 -22 -7 -9 -24 -35 -38 -59 l-25 -43 -12 46
c-17 69 -9 85 45 85 24 0 44 -3 44 -7z m-132 -179 c4 -53 10 -51 -238 -59
-107 -3 -235 -10 -283 -16 -48 -5 -93 -7 -98 -3 -12 7 -3 73 12 88 5 6 93 11
196 13 104 2 224 7 268 11 139 14 140 13 143 -34z m-1914 -156 c-9 -18 -20
-43 -23 -56 l-6 -23 -29 29 -28 30 44 26 c56 34 62 33 42 -6z m1326 -181 c0
-8 -11 -24 -25 -37 l-25 -23 0 36 c0 33 3 37 25 37 14 0 25 -6 25 -13z m410 7
c0 -7 -7 -13 -162 -140 -119 -97 -246 -189 -253 -182 -1 1 11 31 28 66 30 63
47 81 197 207 63 53 67 54 128 55 34 0 62 -3 62 -6z m-1620 -61 c30 -7 77 -16
105 -19 48 -6 49 -6 25 -20 -14 -7 -49 -23 -79 -34 -29 -11 -74 -30 -98 -41
-25 -11 -47 -18 -49 -16 -3 3 -2 39 2 81 6 66 9 76 23 70 9 -4 41 -13 71 -21z
m1193 -210 c-10 -28 -49 -87 -65 -101 -13 -10 -18 -8 -31 12 -16 23 -15 25 36
64 59 45 69 50 60 25z m-1233 -2 c0 -3 -30 -37 -66 -76 l-66 -70 -23 70 c-12
39 -21 73 -18 78 5 9 173 8 173 -2z m1372 -28 c-10 -21 -23 -47 -29 -58 -12
-20 -12 -20 -34 2 -13 12 -21 24 -18 26 11 10 92 67 95 67 2 0 -5 -17 -14 -37z
m-411 -5 c-21 -35 -44 -43 -49 -18 -2 14 41 49 61 50 5 0 0 -15 -12 -32z
m-1080 -159 c-9 -23 -10 -22 -10 11 -1 23 2 31 9 24 7 -7 7 -19 1 -35z"/>
</g>
</svg>
