<?xml version="1.0" standalone="no"?>
<!DOCTYPE svg PUBLIC "-//W3C//DTD SVG 20010904//EN"
 "http://www.w3.org/TR/2001/REC-SVG-20010904/DTD/svg10.dtd">
<svg version="1.0" xmlns="http://www.w3.org/2000/svg"
 width="220.000000pt" height="167.000000pt" viewBox="0 0 220.000000 167.000000"
 preserveAspectRatio="xMidYMid meet">
<metadata>
Created by potrace 1.16, written by Peter Selinger 2001-2019
</metadata>
<g transform="translate(0.000000,167.000000) scale(0.100000,-0.100000)"
fill="#000000" stroke="none">
<path d="M1054 1503 c3 -16 6 -66 7 -113 2 -133 7 -140 82 -95 95 55 165 73
424 111 18 3 38 10 45 17 22 22 46 27 79 15 l32 -11 -7 -196 c-4 -108 -11
-212 -16 -231 -4 -19 -11 -82 -14 -139 -4 -57 -9 -108 -12 -113 -7 -11 -5
-345 2 -373 5 -22 5 -22 -190 -23 -108 -1 -196 0 -196 2 0 3 5 17 12 33 6 15
12 37 13 48 1 11 5 40 10 65 4 25 8 79 9 120 5 139 56 307 138 454 21 38 37
71 35 73 -3 2 -26 6 -53 9 -27 2 -65 6 -84 9 -53 7 -64 -4 -51 -51 6 -22 11
-63 11 -91 0 -70 -19 -70 -85 -2 -28 28 -100 89 -162 135 -62 46 -116 90 -120
98 -7 12 -120 81 -206 126 -16 8 -54 40 -86 72 -51 52 -59 57 -86 50 -15 -5
-33 -17 -39 -27 -37 -67 -42 -71 -103 -74 -77 -5 -107 -5 -176 -1 -81 4 -94
-9 -71 -76 20 -56 25 -231 11 -399 -9 -113 -12 -127 -38 -209 -11 -35 -15 -64
-10 -69 5 -5 3 -21 -6 -38 -13 -27 -12 -34 11 -94 15 -35 29 -78 32 -95 9 -41
27 -38 72 12 29 32 72 59 197 118 261 126 295 141 401 175 101 33 170 63 161
71 -2 2 -23 -3 -47 -11 -24 -8 -45 -13 -47 -11 -2 2 17 11 44 21 26 9 72 26
101 37 29 11 65 22 80 23 15 1 34 5 42 9 22 9 114 36 123 36 12 0 8 -91 -7
-176 -8 -44 -17 -122 -20 -174 -6 -93 -17 -157 -30 -178 -11 -19 -156 22 -156
44 0 22 -20 27 -39 10 -18 -16 -18 -8 4 -228 2 -27 -2 -69 -10 -95 -8 -26 -11
-51 -6 -56 4 -4 34 19 67 53 75 78 234 175 312 190 31 6 65 15 74 20 10 6 85
10 166 10 133 0 223 12 208 28 -3 2 -44 4 -91 3 l-85 -2 -1 53 c-2 102 3 143
16 151 8 4 17 29 20 55 4 26 13 65 21 87 8 22 16 78 18 125 6 141 23 194 143
439 44 91 87 165 105 181 17 16 27 33 23 39 -3 6 -11 8 -17 5 -15 -9 -472 -4
-574 6 -49 5 -130 10 -179 10 -50 0 -117 7 -148 15 -83 21 -90 20 -83 -12z
m361 -49 c77 -3 146 -9 153 -13 8 -4 -34 -11 -92 -14 -92 -6 -122 -13 -228
-52 -67 -25 -124 -42 -127 -40 -3 3 -7 35 -9 71 l-4 66 83 -6 c46 -3 147 -8
224 -12z m-772 -43 c30 -34 93 -72 230 -142 20 -11 37 -24 37 -29 0 -5 30 -32
66 -60 37 -27 64 -50 60 -50 -12 0 -111 52 -131 69 -11 10 -40 23 -65 30 -25
7 -64 24 -87 37 -43 25 -92 31 -109 14 -7 -7 -28 -5 -64 4 -30 8 -58 12 -62
10 -3 -2 -9 0 -12 5 -4 5 -2 12 4 16 5 3 10 12 10 20 0 21 61 115 75 115 7 0
28 -17 48 -39z m1328 30 c12 -1 2 -29 -45 -124 -104 -212 -173 -374 -162 -385
3 -2 1 -15 -4 -27 -5 -13 -12 -47 -15 -76 -3 -29 -8 -56 -11 -61 -3 -5 -1 -15
5 -22 7 -9 7 -23 0 -47 -7 -19 -15 -56 -20 -84 -4 -29 -6 38 -3 158 3 114 9
220 14 236 4 16 11 122 15 235 l8 206 101 -4 c55 -2 108 -5 117 -5z m-1596
-188 c-20 -43 -45 -95 -56 -116 -12 -21 -31 -63 -44 -95 l-23 -57 5 95 c2 52
0 121 -5 154 -14 87 -9 96 52 97 28 1 62 4 76 8 14 4 26 4 28 0 2 -4 -13 -43
-33 -86z m69 52 c-8 -20 -12 -40 -9 -45 4 -6 31 -10 60 -10 30 0 89 -9 132
-19 43 -11 114 -26 159 -35 49 -9 95 -24 117 -39 19 -13 50 -29 68 -36 19 -7
45 -19 59 -26 14 -8 51 -28 82 -44 31 -17 69 -42 84 -56 l27 -25 -49 0 c-63 0
-267 34 -319 53 -22 8 -56 24 -75 36 -19 11 -44 21 -55 21 -12 0 -26 5 -33 12
-8 8 -15 8 -21 3 -13 -13 -46 -239 -38 -259 9 -22 32 -20 91 9 28 13 83 31
121 40 39 8 102 24 140 34 54 15 100 20 200 19 l130 0 -55 -18 c-30 -11 -63
-19 -73 -19 -27 -1 -230 -83 -346 -140 -57 -28 -111 -51 -119 -51 -9 0 -41 -9
-71 -20 -31 -10 -72 -21 -91 -23 -19 -2 -89 -20 -155 -40 -66 -19 -133 -37
-150 -39 -27 -3 -30 0 -33 30 -2 18 3 65 12 105 8 39 18 100 21 133 7 76 46
199 89 279 18 33 38 76 46 95 13 33 59 110 66 110 2 0 -4 -16 -12 -35z m1006
-194 c0 -5 -14 -39 -31 -75 -22 -47 -36 -66 -50 -66 -16 0 -18 8 -17 68 0 37
3 70 5 75 6 10 93 9 93 -2z m-593 -140 c23 -7 58 -12 78 -13 64 -2 46 -14 -48
-32 -50 -10 -113 -27 -140 -37 -74 -30 -75 -29 -65 54 13 105 9 102 76 68 31
-16 76 -34 99 -40z m-277 -338 c-162 -74 -298 -144 -314 -162 -26 -29 -33 -27
-45 16 -14 49 -8 53 109 87 52 16 109 32 125 37 42 13 138 36 150 37 6 0 -6
-6 -25 -15z m645 -307 c38 -9 90 -16 115 -16 l45 0 -29 -15 c-59 -31 -182
-109 -207 -132 -14 -13 -28 -23 -31 -23 -4 0 -8 48 -10 106 l-3 106 25 -5 c14
-3 56 -12 95 -21z"/>
</g>
</svg>
