<?xml version="1.0" standalone="no"?>
<!DOCTYPE svg PUBLIC "-//W3C//DTD SVG 20010904//EN"
 "http://www.w3.org/TR/2001/REC-SVG-20010904/DTD/svg10.dtd">
<svg version="1.0" xmlns="http://www.w3.org/2000/svg"
 width="120.000000pt" height="99.000000pt" viewBox="0 0 120.000000 99.000000"
 preserveAspectRatio="xMidYMid meet">
<metadata>
Created by potrace 1.16, written by Peter Selinger 2001-2019
</metadata>
<g transform="translate(0.000000,99.000000) scale(0.100000,-0.100000)"
fill="#000000" stroke="none">
<path d="M378 868 c-8 -7 -36 -46 -62 -87 -42 -65 -45 -75 -33 -90 15 -16 28
-73 28 -121 0 -14 0 -98 -1 -186 l0 -162 -48 -12 c-70 -18 -72 -19 -72 -27 0
-4 10 -23 23 -42 12 -18 34 -54 48 -80 14 -25 31 -46 39 -46 7 0 22 16 33 35
21 39 111 126 172 166 22 15 58 39 81 54 22 15 60 34 85 43 59 20 275 61 287
53 11 -6 48 8 99 39 33 20 38 38 12 42 -64 8 -88 16 -110 37 -15 14 -55 39
-89 56 -34 17 -92 56 -129 86 -36 29 -79 64 -96 78 -32 25 -86 58 -146 87 -20
10 -50 34 -67 54 -36 40 -33 39 -54 23z m92 -106 c63 -35 110 -64 110 -67 0
-9 -66 20 -73 32 -6 9 -31 13 -82 13 l-75 0 21 41 22 40 21 -19 c11 -11 37
-29 56 -40z m-41 -149 c-11 -38 -23 -78 -26 -91 -3 -12 -9 -25 -14 -28 -5 -3
-9 -15 -9 -28 0 -12 -3 -26 -7 -30 -4 -3 -8 -12 -9 -19 -2 -7 -7 -25 -13 -42
-8 -26 -10 -21 -11 40 -1 39 -1 75 1 80 1 6 2 49 2 98 l-1 87 53 0 54 0 -20
-67z m202 27 c48 -18 66 -30 110 -72 10 -9 50 -33 91 -53 91 -46 94 -49 38
-41 -77 12 -178 47 -222 77 l-43 29 -22 -27 c-22 -27 -39 -87 -50 -174 -6 -54
6 -68 42 -45 25 16 84 41 195 82 62 22 135 25 190 7 24 -7 -37 -29 -147 -51
-81 -17 -266 -72 -421 -125 -27 -9 -35 -9 -42 3 -6 9 -4 20 4 30 7 8 19 42 26
75 7 32 16 66 20 75 4 8 14 35 23 60 19 54 59 150 71 168 10 16 62 9 137 -18z
m97 -170 c10 0 23 -5 30 -12 9 -9 -7 -18 -75 -40 -49 -15 -91 -28 -95 -28 -3
0 -2 17 4 38 6 20 12 46 13 57 1 11 3 23 4 27 0 3 23 -5 51 -18 27 -13 58 -24
68 -24z m-252 -242 c-25 -18 -73 -55 -106 -81 -56 -45 -80 -52 -80 -25 0 6 -7
19 -16 29 -21 23 -12 35 32 44 20 3 44 10 53 14 23 12 134 48 150 50 7 0 -7
-14 -33 -31z"/>
</g>
</svg>
