<?xml version="1.0" standalone="no"?>
<!DOCTYPE svg PUBLIC "-//W3C//DTD SVG 20010904//EN"
 "http://www.w3.org/TR/2001/REC-SVG-20010904/DTD/svg10.dtd">
<svg version="1.0" xmlns="http://www.w3.org/2000/svg"
 width="218.000000pt" height="134.000000pt" viewBox="0 0 218.000000 134.000000"
 preserveAspectRatio="xMidYMid meet">
<metadata>
Created by potrace 1.16, written by Peter Selinger 2001-2019
</metadata>
<g transform="translate(0.000000,134.000000) scale(0.100000,-0.100000)"
fill="#000000" stroke="none">
<path d="M1494 1274 c-10 -14 -19 -48 -22 -75 l-5 -50 -102 7 c-77 5 -104 3
-110 -6 -5 -8 -1 -16 9 -22 19 -10 21 -69 7 -145 -5 -26 -15 -106 -22 -178 -7
-71 -16 -135 -21 -141 -6 -8 -69 -11 -211 -9 -191 2 -202 4 -200 21 30 225 29
224 93 224 27 0 50 -3 50 -7 0 -4 -15 -21 -32 -38 -44 -41 -88 -95 -88 -106 0
-20 20 -7 46 29 15 20 46 53 70 72 73 58 49 89 -57 77 -69 -8 -65 11 22 102
38 41 68 80 65 86 -8 21 -131 39 -165 25 -18 -7 -69 -10 -137 -8 -67 2 -110
-1 -112 -7 -2 -5 5 -11 15 -13 68 -11 63 3 59 -160 -2 -81 -7 -172 -11 -202
-12 -88 14 -48 29 46 7 43 23 96 34 117 27 46 28 66 4 44 -17 -16 -18 -13 -21
63 l-2 80 61 0 c33 0 60 -4 60 -9 0 -4 -16 -28 -35 -52 -19 -24 -35 -47 -35
-51 0 -19 20 -4 58 43 l42 52 -6 -49 c-3 -27 -10 -70 -16 -96 -5 -26 -7 -55
-4 -65 6 -21 -18 -200 -28 -211 -13 -12 -184 -2 -298 18 -69 12 -130 30 -173
50 -51 24 -70 29 -79 20 -8 -9 -5 -16 12 -30 13 -11 29 -17 37 -14 7 3 18 -4
24 -15 12 -22 66 -40 121 -42 34 0 34 -1 10 -11 -49 -20 -86 -39 -145 -73 -33
-19 -63 -35 -67 -35 -3 0 -5 44 -3 98 2 53 0 104 -4 111 -14 22 -38 5 -45 -32
-6 -33 -10 -142 -6 -162 7 -30 -3 -47 -30 -56 -53 -19 -21 -29 91 -28 61 0
112 -1 114 -3 2 -2 -21 -39 -51 -83 -30 -43 -54 -82 -54 -87 0 -11 49 46 81
93 28 43 75 83 107 93 24 8 30 25 10 27 -7 1 -53 0 -103 -1 l-90 -1 84 51 c48
29 108 57 140 64 63 15 297 11 316 -4 7 -6 16 -5 23 2 14 14 392 25 392 11 0
-15 -126 -123 -144 -123 -33 0 -23 -19 22 -41 32 -17 48 -31 50 -46 4 -24 16
-30 27 -13 8 13 66 13 99 0 17 -6 26 -17 26 -31 0 -15 4 -19 16 -15 9 3 22 6
30 6 10 0 14 8 12 22 -5 32 14 32 50 -2 38 -35 48 -36 74 -13 18 16 22 16 46
2 15 -8 31 -25 37 -37 15 -34 28 -21 47 49 20 75 21 79 9 79 -5 0 -16 -18 -25
-40 -18 -45 -26 -48 -49 -22 -15 16 -14 20 21 47 20 17 46 30 57 30 11 0 21 9
25 22 6 25 98 125 153 166 36 27 77 33 84 12 2 -6 -53 -69 -122 -140 -68 -72
-125 -133 -125 -136 0 -3 10 -4 23 -2 17 3 28 -5 45 -32 13 -20 28 -35 35 -32
11 3 36 63 85 199 17 48 45 85 77 103 15 9 18 26 20 95 2 47 5 99 7 115 2 17
5 46 6 66 3 46 39 99 129 192 41 41 69 78 65 84 -4 7 -35 10 -82 9 -122 -5
-120 -4 -130 -32 -6 -16 -16 -24 -24 -21 -7 3 -56 15 -107 27 -52 13 -112 27
-133 32 -40 10 -96 59 -96 84 0 22 -18 16 -36 -12z m66 -99 c14 -8 37 -14 52
-15 47 0 39 -17 -18 -39 -31 -11 -60 -21 -65 -21 -5 0 -9 20 -9 45 0 49 3 51
40 30z m478 -20 c4 -4 -89 -109 -100 -113 -4 -2 -7 26 -6 62 l3 66 50 -6 c28
-4 51 -8 53 -9z m-223 -37 c28 -6 55 -12 60 -13 6 -1 8 -25 6 -55 l-3 -53 -62
7 c-33 4 -106 11 -161 17 -55 7 -108 12 -117 13 -33 4 -28 13 22 40 71 38 151
65 180 59 14 -2 48 -9 75 -15z m-389 -11 c9 -9 -22 -60 -65 -104 -23 -23 -41
-47 -41 -53 0 -17 22 -11 47 12 l24 22 -6 -39 c-3 -22 -7 -67 -9 -100 -2 -33
-11 -77 -20 -97 -9 -21 -16 -48 -16 -62 0 -16 -7 -25 -21 -29 -19 -5 -20 -4
-5 12 23 25 20 31 -14 31 -35 0 -35 -1 -5 140 8 36 17 114 21 174 l7 108 49
-4 c27 -3 51 -8 54 -11z m-491 -7 c5 -9 -74 -115 -81 -108 -1 2 2 29 8 61 9
54 12 57 38 57 16 0 32 -5 35 -10z m578 -94 c23 -3 85 -8 137 -11 52 -3 123
-11 158 -17 57 -9 62 -12 62 -35 0 -25 -1 -26 -52 -19 -29 3 -107 6 -173 6
-116 1 -119 1 -90 17 38 20 38 20 31 32 -4 7 -14 7 -24 2 -27 -14 -127 -51
-136 -51 -13 0 -1 70 20 115 l18 40 4 -37 c3 -35 5 -37 45 -42z m2 -111 c-16
-9 -45 -28 -63 -42 -39 -30 -49 -25 -32 16 12 30 21 34 90 39 l35 2 -30 -15z
m281 3 c62 -11 64 -13 64 -41 l0 -30 -61 7 c-34 3 -116 6 -181 6 -91 0 -119 3
-116 13 3 6 19 17 36 23 18 5 37 15 44 22 15 15 131 16 214 0z m19 -97 c38 -6
40 -9 43 -45 l3 -38 -113 6 c-124 6 -261 17 -266 21 -10 8 103 64 135 67 46 4
143 -2 198 -11z m-310 -8 c-16 -9 -47 -29 -68 -46 -32 -24 -41 -28 -48 -16
-15 25 -10 39 24 59 20 12 49 20 77 20 l45 -1 -30 -16z m5 -87 c0 -3 -24 -12
-52 -21 -29 -9 -60 -18 -68 -21 -8 -3 -2 6 13 20 20 19 39 26 68 26 21 0 39
-2 39 -4z m108 -18 c-3 -7 -29 -32 -59 -56 -30 -24 -92 -75 -137 -113 -46 -39
-86 -69 -88 -67 -4 4 13 60 26 88 7 14 74 70 137 115 15 11 46 25 68 31 55 16
57 16 53 2z m121 -4 c2 -2 -31 -40 -75 -85 -87 -90 -212 -194 -221 -185 -3 3
-1 18 5 33 6 15 13 40 16 55 4 18 32 47 88 90 45 35 91 73 102 85 16 18 28 22
51 17 17 -4 32 -8 34 -10z m-394 -63 c-3 -5 -1 -12 4 -16 16 -9 0 -37 -48 -83
-39 -36 -110 -82 -126 -82 -11 0 -3 48 15 89 11 23 18 47 15 51 -10 15 26 33
83 40 31 4 58 8 60 9 2 0 1 -3 -3 -8z m-195 -111 c-20 -39 -39 -48 -47 -23 -4
11 58 76 65 68 2 -1 -6 -22 -18 -45z m584 -35 c-11 -27 -11 -35 -2 -36 10 0
10 -2 1 -6 -7 -2 -13 -13 -13 -24 0 -23 -5 -24 -34 -2 l-23 18 41 42 c23 24
42 43 43 43 1 0 -5 -16 -13 -35z m-429 -14 c-9 -19 -23 -31 -35 -31 -11 0 -20
2 -20 5 0 7 64 64 68 60 2 -2 -4 -17 -13 -34z m113 -21 c-10 -39 -11 -40 -29
-24 -19 17 -19 18 3 41 31 33 37 29 26 -17z"/>
<path d="M148 439 c-2 -6 0 -46 4 -88 4 -42 3 -103 -2 -136 -11 -68 -13 -166
-4 -189 3 -9 12 -16 19 -16 9 0 14 29 17 104 3 75 9 112 22 130 12 20 14 31 6
45 -5 11 -10 39 -11 63 -1 24 -4 54 -8 68 -7 26 -36 39 -43 19z"/>
</g>
</svg>
