<?xml version="1.0" standalone="no"?>
<!DOCTYPE svg PUBLIC "-//W3C//DTD SVG 20010904//EN"
 "http://www.w3.org/TR/2001/REC-SVG-20010904/DTD/svg10.dtd">
<svg version="1.0" xmlns="http://www.w3.org/2000/svg"
 width="146.000000pt" height="107.000000pt" viewBox="0 0 146.000000 107.000000"
 preserveAspectRatio="xMidYMid meet">
<metadata>
Created by potrace 1.16, written by Peter Selinger 2001-2019
</metadata>
<g transform="translate(0.000000,107.000000) scale(0.100000,-0.100000)"
fill="#000000" stroke="none">
<path d="M352 929 c-17 -17 -41 -51 -54 -75 -18 -35 -27 -44 -43 -40 -11 3
-27 1 -35 -4 -12 -7 -9 -14 14 -35 l29 -26 -6 -210 c-3 -116 -8 -213 -11 -216
-3 -3 -13 0 -21 7 -28 23 -40 -4 -37 -79 3 -83 23 -155 42 -159 9 -1 38 19 66
45 27 27 79 63 114 81 36 17 94 48 130 67 44 24 78 35 106 35 44 0 255 40 339
65 28 7 93 24 145 35 52 12 121 31 153 41 31 11 61 18 66 15 5 -3 14 0 20 8
15 18 -8 42 -52 54 -18 5 -68 25 -112 45 -85 37 -153 63 -250 95 -98 32 -191
70 -291 117 -52 25 -97 45 -100 45 -3 0 -26 18 -51 40 -25 22 -49 38 -53 35
-4 -2 -18 7 -30 20 -30 32 -41 31 -78 -6z m132 -85 c11 -10 32 -23 46 -31 23
-13 22 -13 -25 -8 -27 3 -79 8 -115 10 -36 2 -66 4 -68 4 -5 2 28 60 44 75 14
15 19 14 57 -8 22 -14 50 -33 61 -42z m-115 -80 c2 -2 -10 -26 -27 -55 l-30
-52 -10 49 c-13 58 -3 77 37 67 14 -3 28 -7 30 -9z m204 4 c21 -8 31 -8 36 0
6 10 34 1 138 -44 17 -8 35 -14 40 -14 5 0 32 -11 60 -25 28 -13 82 -34 120
-45 91 -28 208 -74 308 -119 l40 -18 -69 -22 c-37 -11 -79 -21 -92 -21 -13 0
-24 -5 -24 -11 0 -5 -4 -8 -9 -4 -6 3 -83 -13 -173 -36 -129 -33 -192 -43
-303 -50 -141 -9 -192 -13 -299 -25 l-59 -6 8 38 c4 21 9 81 11 133 2 63 8 99
18 110 8 9 25 41 39 71 36 81 52 92 147 98 19 1 48 -3 63 -10z m-67 -467 c-3
-5 -37 -21 -76 -37 -39 -16 -93 -46 -121 -66 -27 -21 -54 -38 -59 -38 -6 0
-10 18 -10 39 0 22 -2 46 -6 54 -4 11 8 16 48 21 47 6 218 32 226 35 2 1 1 -3
-2 -8z"/>
</g>
</svg>
