<?xml version="1.0" standalone="no"?>
<!DOCTYPE svg PUBLIC "-//W3C//DTD SVG 20010904//EN"
 "http://www.w3.org/TR/2001/REC-SVG-20010904/DTD/svg10.dtd">
<svg version="1.0" xmlns="http://www.w3.org/2000/svg"
 width="181.000000pt" height="106.000000pt" viewBox="0 0 181.000000 106.000000"
 preserveAspectRatio="xMidYMid meet">
<metadata>
Created by potrace 1.16, written by Peter Selinger 2001-2019
</metadata>
<g transform="translate(0.000000,106.000000) scale(0.100000,-0.100000)"
fill="#000000" stroke="none">
<path d="M1221 944 c-30 -30 -60 -54 -67 -54 -12 0 -46 -27 -185 -149 l-73
-64 -135 8 c-75 3 -149 8 -166 10 -126 15 -160 27 -195 72 -21 27 -22 27 -36
9 -13 -19 -14 -19 -14 5 l-1 24 -20 -24 c-11 -13 -17 -31 -14 -40 2 -9 1 -22
-4 -30 -7 -11 -16 -11 -58 1 -55 16 -93 7 -93 -23 0 -19 51 -39 98 -39 12 0
22 -3 22 -7 0 -13 -43 -58 -82 -87 l-38 -27 0 54 c0 29 -3 57 -6 60 -10 9 -41
-10 -48 -30 -6 -14 -5 -16 5 -5 24 23 31 12 25 -40 -3 -29 -5 -57 -5 -63 2
-73 0 -187 -4 -257 -9 -144 6 -158 87 -83 27 24 57 47 68 50 10 4 18 11 18 17
0 6 3 9 6 5 3 -3 27 1 52 8 26 8 105 17 177 20 71 4 132 8 136 11 4 2 37 6 75
9 97 8 147 16 160 26 13 10 202 -111 228 -147 11 -15 46 -10 46 7 0 4 15 40
33 78 20 45 38 71 48 71 22 0 90 29 109 45 8 7 35 18 60 25 58 15 176 66 217
93 39 26 42 55 11 84 -23 21 -141 86 -278 154 -42 20 -81 43 -88 52 -13 15
-18 128 -9 190 4 20 3 37 -1 36 -4 0 -31 -25 -61 -55z m14 -81 c4 -16 8 -36
10 -45 2 -10 -1 -18 -6 -18 -8 0 -46 21 -68 37 -6 4 41 53 51 53 4 0 10 -12
13 -27z m-77 -81 c77 -52 273 -152 435 -221 27 -11 47 -25 45 -31 -5 -17 -351
-174 -472 -214 -95 -32 -113 -36 -137 -25 -33 13 -34 15 -15 34 7 8 16 31 19
52 4 21 17 51 30 67 l24 30 66 -47 c63 -45 87 -56 87 -39 0 4 -31 32 -70 62
-38 30 -68 61 -67 68 1 8 28 28 59 45 74 41 115 73 106 82 -4 4 -24 -6 -45
-23 -21 -16 -59 -41 -85 -56 l-47 -26 -16 24 c-13 20 -15 39 -10 93 l7 68 -28
-26 c-16 -14 -42 -38 -59 -53 -16 -14 -47 -34 -67 -44 -48 -22 -48 -35 0 -28
32 5 42 2 77 -28 l40 -35 -58 -25 c-32 -14 -62 -26 -67 -26 -27 0 -16 -27 29
-75 79 -83 70 -83 -56 4 l-53 36 2 98 1 98 36 19 c20 10 53 34 74 53 20 20 58
53 85 74 26 21 49 41 50 46 7 13 23 7 80 -31z m-788 -61 c0 -5 8 -12 18 -15
31 -12 62 -31 62 -38 0 -4 -15 -17 -32 -29 -18 -13 -39 -29 -46 -36 -7 -7 -15
-13 -17 -13 -6 0 14 62 25 74 7 9 4 18 -10 31 -22 20 -26 35 -10 35 6 0 10 -4
10 -9z m660 -106 c0 -50 -4 -53 -40 -24 l-25 21 28 24 c16 13 30 24 33 24 2 0
4 -20 4 -45z m-196 18 c-54 -40 -69 -54 -48 -44 20 10 20 8 13 -45 -4 -31 -6
-64 -4 -75 2 -10 0 -19 -4 -19 -7 0 -54 33 -96 68 -6 5 -22 5 -35 0 -24 -9
-24 -10 30 -58 30 -27 67 -54 83 -61 23 -10 27 -17 25 -45 -1 -23 -8 -36 -20
-40 -37 -11 -348 -12 -467 0 -143 14 -153 20 -150 101 3 72 7 84 40 100 16 9
45 29 64 46 l35 31 0 -34 c0 -68 37 -70 85 -4 34 45 96 83 147 88 18 3 98 4
177 5 126 0 142 -2 125 -14z m191 -203 l-26 -51 -34 28 c-37 30 -43 43 -21 43
8 0 33 9 57 19 24 11 45 18 47 16 2 -1 -8 -26 -23 -55z m-152 -92 c22 -12 21
-12 -8 -18 -41 -9 -59 -2 -44 16 14 17 24 17 52 2z m-640 -54 c72 -10 74 -13
21 -44 -27 -15 -56 -35 -64 -45 -19 -23 -30 -2 -30 59 0 40 3 47 16 42 9 -3
34 -9 57 -12z m967 -1 c0 -5 -11 -25 -24 -46 l-23 -37 -27 25 c-23 21 -26 29
-16 40 7 8 15 13 19 11 3 -2 15 0 26 5 26 10 45 11 45 2z"/>
</g>
</svg>
