<?xml version="1.0" standalone="no"?>
<!DOCTYPE svg PUBLIC "-//W3C//DTD SVG 20010904//EN"
 "http://www.w3.org/TR/2001/REC-SVG-20010904/DTD/svg10.dtd">
<svg version="1.0" xmlns="http://www.w3.org/2000/svg"
 width="249.000000pt" height="149.000000pt" viewBox="0 0 249.000000 149.000000"
 preserveAspectRatio="xMidYMid meet">
<metadata>
Created by potrace 1.16, written by Peter Selinger 2001-2019
</metadata>
<g transform="translate(0.000000,149.000000) scale(0.100000,-0.100000)"
fill="#000000" stroke="none">
<path d="M1153 1329 c-7 -7 -37 -11 -73 -10 -67 2 -86 -4 -72 -22 18 -22 3
-447 -16 -447 -2 0 -26 18 -53 41 -64 54 -111 85 -140 94 -13 4 -51 23 -84 42
-33 19 -67 38 -75 43 -30 15 -72 121 -74 187 0 36 -5 63 -11 63 -6 0 -37 -31
-70 -70 -32 -38 -65 -72 -73 -75 -8 -3 -29 -1 -46 4 -17 5 -57 12 -89 14 -48
5 -59 3 -67 -12 -5 -10 -6 -22 -1 -27 39 -45 63 -216 63 -459 1 -175 0 -180
-20 -183 -12 -2 -29 1 -39 6 -46 24 -56 -16 -18 -68 14 -19 30 -51 36 -72 6
-24 16 -38 26 -38 9 0 49 33 89 74 105 107 150 141 250 191 97 48 147 76 166
93 17 13 186 97 215 106 23 7 23 7 22 -96 0 -57 -7 -148 -15 -202 -8 -55 -12
-106 -10 -113 7 -18 56 -17 56 1 0 8 -4 17 -8 20 -5 3 -3 33 4 68 8 35 14 82
14 105 0 36 5 46 33 66 17 14 43 28 57 32 14 4 34 13 45 20 20 12 205 26 205
16 0 -3 2 -83 5 -178 l4 -171 -67 -8 c-37 -4 -121 -8 -187 -8 -106 0 -129 3
-199 28 -49 17 -82 24 -88 18 -10 -10 -14 -78 -10 -179 3 -80 16 -82 92 -8 86
81 136 99 312 113 80 7 176 12 213 12 49 0 66 3 63 13 -3 7 -26 13 -57 15 -48
3 -52 5 -45 25 4 12 8 80 9 152 3 197 2 192 25 198 13 3 82 -25 192 -79 228
-112 279 -143 422 -256 36 -28 64 -40 70 -30 3 5 -15 24 -40 43 -25 18 -55 42
-67 52 -26 21 78 -39 111 -64 13 -10 40 -23 60 -30 20 -6 45 -18 55 -27 9 -8
20 -12 23 -9 13 13 -5 33 -42 46 -22 8 -84 41 -138 74 -55 33 -138 77 -185 99
-47 22 -114 58 -148 80 l-63 42 58 53 c31 29 60 53 64 53 13 0 217 -109 266
-142 26 -17 77 -58 115 -90 37 -32 73 -58 79 -58 6 0 -7 14 -30 32 -23 17 -40
33 -38 35 2 2 38 -17 80 -42 42 -24 76 -41 76 -37 -1 11 -46 41 -116 78 -103
53 -239 148 -314 218 -14 13 -35 30 -47 38 -22 14 -22 15 40 75 65 62 257 215
317 252 27 16 30 21 15 21 -23 0 -60 -24 -204 -133 -57 -43 -139 -100 -182
-127 l-79 -49 -61 41 -61 41 54 54 c29 30 74 71 99 92 26 20 84 66 130 104 46
37 89 67 95 67 6 0 19 9 29 20 44 49 -36 3 -164 -94 -29 -23 -73 -55 -98 -72
-24 -18 -54 -41 -66 -52 -12 -11 -55 -33 -95 -47 -40 -14 -102 -39 -138 -55
-60 -28 -64 -28 -64 -10 0 11 7 20 15 20 8 0 15 5 15 10 0 6 -7 10 -16 10 -13
0 -15 10 -8 68 5 52 15 81 45 131 22 34 39 66 39 70 0 3 11 19 26 34 14 15 23
31 20 35 -2 4 -51 4 -108 0 -95 -7 -182 -5 -283 8 -24 3 -45 0 -52 -7z m362
-78 c-26 -51 -60 -97 -52 -70 3 9 1 36 -4 60 -12 51 2 68 50 61 l30 -4 -24
-47z m-95 32 c6 -6 3 -283 -3 -290 -7 -7 -184 -7 -237 0 -25 3 -62 6 -82 6
l-38 1 0 54 c0 30 4 57 9 60 5 3 21 32 36 63 16 32 43 72 62 90 l33 32 108 -6
c59 -3 109 -8 112 -10z m-280 3 c0 -3 -17 -33 -37 -68 l-38 -63 -7 45 c-13 89
-13 90 37 90 25 0 45 -2 45 -4z m-610 -77 c0 -11 7 -34 16 -50 20 -39 15 -43
-22 -21 -75 43 -72 37 -40 71 31 32 46 32 46 0z m-111 -85 c2 -2 -7 -28 -21
-56 -38 -77 -56 -118 -71 -162 l-14 -40 -12 94 c-8 52 -20 112 -27 133 -8 22
-14 41 -14 44 0 5 153 -8 159 -13z m101 -35 c24 -11 58 -30 75 -43 16 -13 41
-27 55 -31 14 -4 44 -21 67 -36 23 -16 47 -29 53 -29 24 0 189 -107 190 -124
0 -5 -6 -4 -12 2 -7 5 -37 13 -67 17 -30 4 -80 16 -110 27 -79 27 -107 29
-124 10 -32 -37 -50 -162 -23 -162 8 0 18 5 21 11 4 5 44 28 88 49 76 36 86
38 142 32 l59 -7 -54 -29 c-239 -124 -391 -198 -470 -226 -19 -7 -39 -17 -45
-22 -5 -4 -19 -8 -32 -8 -26 0 -25 -2 -23 165 1 62 6 95 16 106 8 8 14 26 14
38 0 61 98 281 125 281 6 0 30 -10 55 -21z m1141 -105 c-25 -18 -184 -84 -202
-84 -7 0 5 11 25 25 20 14 41 25 47 25 5 0 28 9 52 19 76 35 118 42 78 15z
m-391 -26 c30 0 75 3 100 6 l46 6 -4 -42 c-3 -24 -9 -46 -15 -50 -7 -4 -8 -14
-1 -30 13 -32 6 -76 -14 -87 -19 -10 -322 -18 -338 -9 -5 3 -8 40 -6 82 3 63
6 76 20 76 9 1 28 7 42 14 17 10 30 11 43 5 24 -14 42 -1 26 18 -13 14 -24 14
-91 -3 -22 -5 -28 -3 -28 11 0 15 8 16 83 10 45 -3 107 -7 137 -7z m359 -34
c-10 -9 -22 -12 -34 -7 -17 6 -16 8 10 19 35 14 45 10 24 -12z m90 -29 c39
-24 59 -45 44 -45 -41 0 -128 44 -118 60 10 16 33 11 74 -15z m-141 7 c9 -6 7
-13 -10 -29 -46 -42 -64 -45 -93 -19 l-26 24 43 15 c52 17 69 19 86 9z m317
-22 c-16 -16 -35 -30 -42 -30 -7 0 -13 -5 -13 -11 0 -5 -5 -7 -10 -4 -10 6 26
41 65 63 31 18 31 14 0 -18z m-214 -22 c32 -13 57 -27 56 -33 -2 -5 -30 -22
-62 -38 l-58 -29 32 -20 c17 -11 30 -22 28 -24 -2 -2 -40 18 -85 44 l-81 48
27 16 c15 9 36 26 46 37 24 26 26 26 97 -1z m-959 -15 c21 -9 38 -20 38 -23 0
-6 -98 -50 -111 -50 -6 0 -1 54 6 78 6 16 21 15 67 -5z m1076 -32 c10 -6 2
-17 -31 -45 -24 -20 -51 -36 -59 -36 -17 0 -35 33 -21 37 4 2 26 14 48 28 45
28 45 28 63 16z m100 -7 c12 -8 27 -24 33 -35 9 -18 8 -19 -10 -7 -11 6 -17
16 -14 22 4 5 -1 7 -11 3 -9 -4 -15 -3 -11 2 3 6 -3 14 -12 20 -10 6 -13 11
-8 11 6 0 21 -7 33 -16z m-327 -69 c28 -19 56 -35 62 -35 6 0 8 -3 5 -6 -3 -3
-46 16 -94 41 -61 32 -79 45 -57 41 18 -3 56 -21 84 -41z m-441 -27 c-14 -7
-40 -20 -57 -31 l-33 -19 0 31 0 31 58 -1 c50 0 54 -2 32 -11z m-780 -248
c-36 -33 -68 -60 -71 -60 -3 0 -13 18 -22 40 -14 37 -14 40 1 41 42 1 81 10
113 23 19 9 36 15 39 15 3 0 -24 -27 -60 -59z m660 -140 l35 -1 -33 -14 c-21
-9 -31 -19 -26 -26 4 -8 3 -9 -5 -5 -6 4 -29 -8 -53 -28 -26 -22 -44 -32 -48
-25 -4 5 -8 39 -9 75 l-2 64 53 -20 c29 -11 69 -20 88 -20z"/>
</g>
</svg>
