<?xml version="1.0" standalone="no"?>
<!DOCTYPE svg PUBLIC "-//W3C//DTD SVG 20010904//EN"
 "http://www.w3.org/TR/2001/REC-SVG-20010904/DTD/svg10.dtd">
<svg version="1.0" xmlns="http://www.w3.org/2000/svg"
 width="71.000000pt" height="123.000000pt" viewBox="0 0 71.000000 123.000000"
 preserveAspectRatio="xMidYMid meet">
<metadata>
Created by potrace 1.16, written by Peter Selinger 2001-2019
</metadata>
<g transform="translate(0.000000,123.000000) scale(0.100000,-0.100000)"
fill="#000000" stroke="none">
<path d="M171 1166 c-14 -17 -28 -107 -35 -227 l-5 -87 42 -16 c32 -12 83 -16
221 -17 l178 -1 -6 -66 c-3 -37 -8 -102 -12 -144 -3 -43 -18 -142 -33 -220
-19 -98 -25 -149 -19 -161 5 -10 8 -20 6 -21 -6 -5 -267 20 -273 25 -3 4 -1
17 4 31 13 34 21 111 27 263 7 170 6 184 -11 201 -18 19 -29 18 -50 -6 -17
-18 -19 -41 -21 -198 -1 -121 -7 -201 -18 -252 -9 -41 -18 -82 -20 -91 -8 -38
8 -43 151 -44 76 -1 165 -4 198 -9 75 -9 93 0 77 41 -8 19 -9 41 -3 67 6 25 6
47 -1 61 -8 18 -4 47 16 127 15 58 30 159 36 233 6 72 12 149 15 172 5 54 -7
63 -75 55 -30 -4 -111 -2 -180 5 -69 6 -137 12 -151 12 l-27 1 5 140 c5 121 4
140 -9 140 -9 0 -21 -6 -27 -14z"/>
</g>
</svg>
