<?xml version="1.0" standalone="no"?>
<!DOCTYPE svg PUBLIC "-//W3C//DTD SVG 20010904//EN"
 "http://www.w3.org/TR/2001/REC-SVG-20010904/DTD/svg10.dtd">
<svg version="1.0" xmlns="http://www.w3.org/2000/svg"
 width="187.000000pt" height="117.000000pt" viewBox="0 0 187.000000 117.000000"
 preserveAspectRatio="xMidYMid meet">
<metadata>
Created by potrace 1.16, written by Peter Selinger 2001-2019
</metadata>
<g transform="translate(0.000000,117.000000) scale(0.100000,-0.100000)"
fill="#000000" stroke="none">
<path d="M1445 1131 c-112 -27 -108 -24 -88 -66 9 -19 15 -36 12 -38 -18 -15
-225 -70 -314 -83 -104 -15 -125 -15 -190 2 -30 7 -29 14 -13 -81 4 -23 7 -23
-197 -6 -240 19 -371 43 -422 76 -22 15 -26 14 -53 -5 -17 -12 -31 -24 -31
-28 -2 -8 -4 -26 -13 -115 -5 -47 -4 -72 4 -82 8 -10 11 -71 8 -209 -3 -179 0
-213 16 -187 6 9 14 75 15 117 1 17 17 28 71 53 97 43 116 42 124 -8 3 -22 3
-47 -1 -57 -4 -12 -2 -15 8 -12 9 3 15 23 17 56 l3 52 37 1 c20 1 66 3 102 4
36 2 86 1 111 -2 l46 -5 7 -57 c4 -31 7 -64 7 -73 0 -10 4 -18 8 -18 16 0 31
27 29 51 -7 57 116 58 195 2 23 -17 65 -42 92 -57 151 -80 175 -93 187 -103 7
-5 35 -16 61 -23 27 -7 51 -19 53 -25 3 -7 -4 -29 -16 -50 -12 -20 -19 -40
-16 -42 12 -13 35 9 68 65 56 94 117 172 142 182 12 4 42 29 66 54 29 31 69
57 126 83 62 27 84 42 84 56 0 10 -9 21 -20 24 -36 9 -104 50 -115 69 -5 10
-49 79 -98 153 -48 74 -85 142 -83 150 3 9 8 36 11 61 4 25 18 63 31 86 13 22
21 44 17 47 -8 8 0 9 -88 -12z m25 -68 c-9 -27 -20 -55 -23 -63 -4 -12 -6 -11
-13 5 -4 11 -16 31 -26 44 -25 33 -23 38 20 49 61 16 62 16 42 -35z m-69 -95
c10 -13 18 -28 19 -33 0 -13 113 -189 146 -228 13 -16 24 -36 24 -44 0 -9 7
-24 15 -33 15 -16 12 -25 -33 -101 -38 -66 -206 -299 -215 -299 -13 0 -113 43
-126 53 -9 8 -31 20 -50 27 -19 8 -53 28 -75 45 -23 16 -54 36 -70 43 -33 15
-78 49 -137 103 -29 28 -39 44 -39 68 0 48 -25 50 -70 6 l-39 -38 10 39 c6 21
28 76 49 122 31 65 43 82 60 82 28 0 60 17 85 44 53 58 133 92 343 146 19 4
36 11 39 14 14 13 46 5 64 -16z m-436 -93 c-36 -30 -61 -32 -68 -6 -7 27 0 31
52 31 l46 0 -30 -25z m-670 -19 l40 -12 -57 -37 c-31 -20 -62 -37 -68 -37 -11
0 -13 42 -4 78 7 25 28 27 89 8z m454 -40 c9 -6 11 -19 6 -40 -3 -17 -9 -53
-11 -81 -3 -27 -12 -74 -20 -104 l-15 -53 -146 6 c-80 3 -148 7 -150 10 -8 8
70 111 113 150 51 45 54 56 18 56 -14 0 -45 5 -69 11 -61 15 -76 4 -80 -62 -2
-30 -10 -76 -17 -104 -12 -46 -16 -50 -43 -51 -33 -2 -103 11 -112 20 -7 7 16
41 60 90 38 42 39 56 4 56 -12 0 -29 4 -37 10 -12 7 -11 10 5 16 11 4 40 21
63 37 24 16 56 33 70 38 33 10 343 6 361 -5z m73 -4 c14 -6 13 -12 -10 -52
-27 -45 -27 -45 -30 -16 -4 33 5 76 16 75 4 0 14 -3 24 -7z m-333 -87 c5 -5
-52 -73 -61 -74 -10 -1 -10 73 -1 83 7 6 53 0 62 -9z m-254 -45 c8 -12 -21
-60 -35 -60 -6 0 -10 16 -10 35 0 28 4 35 19 35 11 0 23 -5 26 -10z m1515
-131 c0 -3 -29 -20 -64 -38 -34 -17 -78 -44 -97 -61 -37 -32 -61 -41 -37 -12
8 9 28 40 43 67 15 28 34 60 41 72 l13 21 51 -21 c27 -11 50 -24 50 -28z
m-935 11 c-4 -6 0 -23 8 -39 14 -29 14 -29 -21 -35 -41 -6 -58 2 -23 11 17 4
21 11 17 26 -3 12 0 27 6 34 12 15 22 17 13 3z m-580 -39 c18 -7 17 -9 -11
-24 -35 -18 -44 -15 -37 14 6 20 16 22 48 10z"/>
<path d="M1246 873 c-16 -16 -1 -23 47 -23 30 0 56 -3 60 -6 3 -3 -5 -18 -19
-32 -13 -15 -24 -30 -24 -34 0 -5 -9 -8 -20 -8 -17 0 -19 3 -10 19 14 27 13
41 -5 41 -9 0 -15 -9 -15 -23 0 -13 -6 -31 -13 -41 -12 -16 -21 -16 -122 -5
-61 6 -116 16 -122 21 -7 6 -20 8 -28 4 -12 -4 -15 -23 -15 -80 0 -64 3 -77
19 -85 19 -11 19 -22 -4 -98 -9 -27 1 -29 43 -8 21 11 53 15 104 13 l73 -3 0
-40 c-1 -22 -4 -60 -9 -84 -12 -66 8 -42 29 34 9 36 20 65 24 65 3 0 30 -14
60 -30 58 -32 113 -46 131 -35 7 5 -19 23 -66 46 -44 20 -88 46 -100 56 -22
19 -39 53 -26 53 4 0 13 18 20 41 7 23 27 59 44 80 29 36 34 38 69 33 43 -7
89 1 89 16 0 6 -25 10 -55 10 -60 0 -69 11 -31 35 28 18 38 39 30 59 -4 10
-25 14 -79 14 -40 0 -76 -2 -79 -5z m-177 -140 c23 -6 22 -7 -15 -29 -50 -31
-54 -30 -54 6 0 32 16 37 69 23z m177 -14 c2 -4 -3 -42 -12 -83 -16 -69 -19
-76 -41 -76 -24 0 -153 77 -153 91 0 11 51 49 65 49 7 0 18 7 25 15 13 15 107
18 116 4z m-180 -144 c16 -12 17 -14 2 -15 -9 0 -23 -3 -32 -6 -12 -4 -16 0
-16 15 0 25 18 27 46 6z"/>
</g>
</svg>
