<?xml version="1.0" standalone="no"?>
<!DOCTYPE svg PUBLIC "-//W3C//DTD SVG 20010904//EN"
 "http://www.w3.org/TR/2001/REC-SVG-20010904/DTD/svg10.dtd">
<svg version="1.0" xmlns="http://www.w3.org/2000/svg"
 width="230.000000pt" height="123.000000pt" viewBox="0 0 230.000000 123.000000"
 preserveAspectRatio="xMidYMid meet">
<metadata>
Created by potrace 1.16, written by Peter Selinger 2001-2019
</metadata>
<g transform="translate(0.000000,123.000000) scale(0.100000,-0.100000)"
fill="#000000" stroke="none">
<path d="M999 1113 c-9 -16 -27 -18 -138 -17 -120 1 -128 0 -137 -21 -6 -12
-7 -33 -2 -50 10 -39 -2 -164 -16 -167 -6 -1 -136 -2 -288 -2 -244 -1 -279 -3
-294 -18 -15 -15 -15 -17 5 -27 13 -8 21 -22 21 -39 0 -15 7 -51 15 -81 8 -30
12 -57 10 -61 -9 -14 -13 -336 -4 -358 11 -28 35 -38 53 -22 13 10 12 14 -5
31 -13 13 -19 33 -19 63 l0 43 58 7 c31 3 93 8 137 11 44 3 116 8 160 12 44 4
100 7 125 7 51 1 47 15 36 -132 -3 -46 -8 -87 -10 -91 -3 -4 1 -43 9 -87 8
-43 14 -80 15 -81 1 -8 30 -1 30 7 0 5 6 7 14 4 8 -3 26 2 40 11 22 15 60 30
211 85 28 10 84 32 125 50 125 53 195 78 256 90 33 7 87 25 122 41 75 34 74
34 97 9 10 -11 26 -20 37 -20 22 0 22 4 2 35 -15 23 -15 25 2 31 11 4 46 17
79 29 33 12 89 33 125 45 36 13 82 33 102 46 20 13 55 28 78 33 22 5 51 16 65
25 13 9 40 16 60 16 30 0 35 3 35 23 0 17 -10 28 -35 40 -20 9 -40 17 -45 17
-5 0 -51 21 -102 46 -129 63 -388 180 -418 189 -14 4 -41 16 -60 26 -19 10
-69 30 -111 43 -42 13 -100 38 -130 54 -30 16 -81 37 -114 47 -103 29 -145 47
-145 61 0 20 -38 17 -51 -3z m175 -93 c5 -5 14 -6 21 -4 7 3 48 -13 91 -36 72
-37 71 -47 -1 -14 -24 11 -201 53 -278 66 -16 3 -16 5 -2 25 l15 21 72 -25
c40 -14 77 -29 82 -33z m-259 19 c1 -8 -5 -36 -12 -64 -11 -42 -31 -134 -48
-230 -19 -104 -57 -345 -57 -365 -1 -33 -39 -195 -48 -204 -13 -13 -12 19 4
118 9 53 12 142 9 265 -5 228 -3 243 38 258 39 15 34 37 -10 41 l-32 3 2 82
c0 45 -1 89 -3 97 -2 11 8 14 44 15 26 0 50 3 53 7 11 10 60 -8 60 -23z m102
-69 c-12 -15 -34 -35 -49 -44 -34 -21 -35 -32 -6 -42 11 -3 45 -25 74 -48 29
-22 78 -60 109 -84 58 -45 65 -59 39 -69 -9 -3 -30 -19 -47 -35 l-32 -29 -17
23 c-10 13 -22 28 -27 34 -5 6 -20 28 -33 50 -14 22 -33 46 -43 54 -9 8 -20
23 -24 33 -7 17 -8 17 -34 -3 -15 -12 -27 -17 -27 -11 0 10 27 133 36 164 7
23 51 45 80 39 l24 -4 -23 -28z m209 -15 c38 -14 96 -32 129 -41 33 -9 91 -29
130 -46 96 -42 209 -84 340 -125 61 -19 142 -50 180 -68 76 -36 105 -48 119
-49 5 -1 11 -6 13 -13 5 -13 -72 -38 -142 -47 -45 -6 -175 -44 -190 -56 -5 -4
-59 -24 -118 -44 -103 -33 -110 -34 -133 -19 -15 10 -23 22 -19 31 3 10 -14
34 -48 67 l-53 52 97 102 c54 55 91 101 82 101 -8 0 -55 -41 -103 -91 l-89
-91 -46 39 c-25 21 -52 48 -60 59 -13 20 -11 24 22 55 19 19 43 46 54 61 35
48 4 38 -56 -19 l-58 -55 -34 53 c-18 30 -54 75 -78 101 -71 76 -56 86 61 43z
m-41 -125 c15 -25 31 -47 35 -50 4 -3 12 -15 19 -27 17 -33 -7 -41 -33 -11
-11 14 -46 42 -76 64 -57 40 -62 44 -94 82 -19 22 -19 23 8 51 l27 29 43 -47
c24 -25 56 -66 71 -91z m465 10 c18 -12 2 -12 -25 0 -13 6 -15 9 -5 9 8 0 22
-4 30 -9z m-1185 -29 l40 -7 -60 -7 c-32 -4 -70 -10 -83 -14 -22 -5 -23 -4
-13 16 13 23 43 26 116 12z m-170 -11 c3 -5 -3 -18 -14 -29 -11 -11 -20 -28
-19 -38 1 -21 -25 -117 -41 -153 -10 -22 -11 -18 -7 25 2 28 -2 75 -10 105
-24 94 -22 100 35 100 28 0 52 -4 56 -10z m429 -150 c0 -88 -4 -163 -8 -167
-9 -10 -168 -10 -246 -1 -30 4 -96 10 -147 14 l-91 6 19 45 c10 24 26 70 35
101 30 101 47 114 179 127 104 11 220 26 224 31 2 2 11 4 20 4 14 0 16 -20 15
-160z m250 102 c8 -16 32 -51 53 -78 53 -66 57 -74 40 -74 -11 0 -111 73 -150
110 -10 9 19 70 33 70 5 0 16 -13 24 -28z m396 -145 c0 -11 -59 31 -87 63 -40
45 -24 42 32 -6 30 -26 55 -52 55 -57z m-336 -26 c3 -3 -1 -13 -7 -22 -19 -25
-141 -116 -167 -124 -20 -7 -22 -5 -16 16 3 13 11 67 17 119 6 52 13 101 15
108 3 9 29 -4 79 -39 42 -28 77 -55 79 -58z m305 -28 c-6 -7 -15 -10 -21 -7
-5 3 -24 -10 -43 -30 -18 -20 -37 -36 -42 -36 -4 0 -22 15 -38 33 -58 61 -58
61 -29 93 14 16 32 39 41 51 l15 23 64 -57 c49 -44 61 -59 53 -70z m-197 55
c-7 -7 -12 -8 -12 -2 0 14 12 26 19 19 2 -3 -1 -11 -7 -17z m-37 -27 c3 -5 1
-12 -5 -16 -5 -3 -10 1 -10 9 0 18 6 21 15 7z m-35 -45 c0 -15 -110 -130 -140
-146 -14 -7 -19 -5 -23 9 -6 23 8 40 63 78 25 17 54 40 64 52 22 24 36 27 36
7z m81 -12 c21 -24 22 -26 3 -16 -25 13 -50 42 -37 42 5 0 20 -12 34 -26z
m314 -50 c9 -14 27 -29 41 -34 13 -5 24 -14 24 -19 0 -10 -50 -31 -135 -56
l-50 -15 -48 50 -49 51 29 21 c15 12 30 25 33 28 3 3 18 15 34 27 l30 21 37
-25 c21 -14 45 -36 54 -49z m470 32 c-58 -26 -258 -96 -295 -103 -40 -7 -5 11
70 37 36 12 90 33 120 47 30 14 69 27 85 30 17 3 32 7 34 9 2 2 11 4 20 3 9 0
-6 -10 -34 -23z m-795 -25 l45 -39 -49 -44 c-67 -58 -108 -90 -145 -110 -33
-18 -41 -38 -16 -38 34 0 11 -18 -42 -34 -32 -9 -73 -21 -91 -27 -19 -6 -35
-9 -38 -7 -2 3 4 47 14 99 13 67 22 94 33 94 10 0 13 -10 11 -32 -2 -29 1 -33
22 -33 16 0 32 10 43 26 23 33 156 183 163 183 3 0 25 -17 50 -38z m-760 -22
c74 -5 142 -11 150 -13 12 -3 -110 -10 -131 -8 -9 1 -141 -17 -166 -23 -20 -5
-22 -2 -21 30 1 29 5 35 17 29 9 -3 77 -10 151 -15z m871 -91 l37 -43 -77 -28
c-121 -45 -115 -44 -101 -16 16 29 93 129 100 129 2 0 21 -19 41 -42z m-124
-26 c-54 -70 -73 -86 -87 -77 -7 5 14 31 57 71 37 35 69 63 71 64 2 0 -17 -26
-41 -58z m447 38 c-19 -19 -182 -76 -191 -67 -2 3 26 15 64 27 37 13 77 29 88
36 23 17 54 19 39 4z m-349 -128 c-33 -16 -85 -38 -115 -49 -181 -70 -248 -97
-274 -110 -34 -18 -51 -6 -42 30 4 17 17 27 43 35 21 6 62 18 91 27 29 8 68
15 86 13 19 -1 40 3 48 9 7 5 31 15 53 21 22 6 63 19 90 30 75 30 88 26 20 -6z"/>
</g>
</svg>
