<?xml version="1.0" standalone="no"?>
<!DOCTYPE svg PUBLIC "-//W3C//DTD SVG 20010904//EN"
 "http://www.w3.org/TR/2001/REC-SVG-20010904/DTD/svg10.dtd">
<svg version="1.0" xmlns="http://www.w3.org/2000/svg"
 width="334.000000pt" height="172.000000pt" viewBox="0 0 334.000000 172.000000"
 preserveAspectRatio="xMidYMid meet">
<metadata>
Created by potrace 1.16, written by Peter Selinger 2001-2019
</metadata>
<g transform="translate(0.000000,172.000000) scale(0.100000,-0.100000)"
fill="#000000" stroke="none">
<path d="M1610 1640 c-11 -11 -20 -25 -20 -32 0 -6 -10 -32 -21 -56 l-22 -44
-57 6 c-56 6 -120 -9 -135 -33 -3 -6 3 -38 14 -73 21 -68 35 -206 23 -225 -10
-16 -172 -43 -347 -58 -67 -6 -330 7 -480 24 -91 10 -298 49 -354 67 -51 16
-58 13 -77 -32 -26 -62 -13 -234 17 -234 15 0 40 -33 35 -46 -3 -7 -8 -50 -11
-96 -4 -46 -10 -86 -14 -91 -6 -6 5 -156 14 -184 3 -8 24 -4 72 14 37 14 73
30 78 34 6 4 44 21 85 36 l75 28 398 0 c270 -1 396 3 394 10 -2 5 -32 13 -68
16 -59 5 -57 6 31 7 52 0 105 -2 118 -5 28 -7 28 -24 -2 -172 -12 -63 -21
-125 -18 -138 6 -31 35 -29 53 3 17 33 159 105 330 169 68 26 193 73 277 106
84 32 156 59 161 59 26 0 102 41 95 51 -5 8 -2 9 12 1 13 -7 26 -6 48 5 31 14
32 14 74 -26 23 -22 42 -44 42 -48 0 -5 18 -29 41 -53 23 -25 48 -61 56 -80 8
-19 23 -44 34 -55 47 -49 75 -87 94 -122 11 -21 23 -40 26 -43 3 -3 12 -15 18
-28 12 -23 13 -23 32 -6 11 10 17 25 14 34 -5 17 92 231 107 238 5 2 8 10 8
19 0 37 148 280 213 346 26 28 47 54 47 58 0 5 -24 9 -52 9 -35 0 -71 9 -104
24 -52 24 -84 21 -84 -9 0 -20 -73 -29 -117 -15 -40 13 -150 70 -244 126 -31
19 -61 34 -67 34 -6 0 -27 13 -45 30 -19 16 -56 39 -83 50 -27 12 -64 33 -82
46 -17 14 -62 39 -100 56 -37 17 -80 46 -97 64 -18 20 -57 43 -100 59 -41 16
-85 42 -105 62 -19 19 -65 49 -102 66 -37 18 -70 40 -74 50 -7 23 -29 22 -54
-3z m124 -69 c46 -21 89 -48 95 -59 6 -11 48 -38 94 -60 47 -22 90 -50 99 -64
9 -13 49 -42 90 -63 40 -21 87 -48 103 -60 17 -12 51 -30 77 -40 25 -9 61 -30
80 -46 l33 -29 -43 19 c-23 10 -45 21 -49 24 -3 4 -13 7 -21 7 -30 0 -201 82
-196 94 6 16 -156 90 -169 77 -5 -5 -42 6 -90 26 -45 20 -109 45 -141 58 -40
15 -62 30 -68 44 -4 12 -12 19 -18 16 -5 -3 -10 -4 -10 -1 0 7 43 96 47 96 1
0 41 -18 87 -39z m-164 -113 c0 -6 -13 -35 -30 -64 -16 -29 -34 -70 -40 -91
-5 -21 -15 -59 -22 -86 -22 -84 -35 -55 -53 123 -4 36 -13 77 -20 92 l-13 27
71 4 c40 1 80 4 90 5 9 1 17 -3 17 -10z m69 -17 c9 -6 12 -17 7 -32 -3 -13
-17 -143 -31 -288 -14 -145 -28 -267 -30 -272 -3 -4 -10 -56 -15 -116 -18
-201 -15 -193 -60 -193 -25 0 -40 5 -44 15 -5 14 6 112 33 300 6 39 11 135 11
214 0 105 4 157 16 195 30 92 34 94 29 16 -19 -294 -28 -408 -41 -498 -17
-124 -17 -117 0 -103 12 10 24 83 41 239 3 29 10 144 15 255 12 255 23 297 69
268z m90 -84 c0 -34 -4 -80 -9 -102 -7 -34 -8 -28 -7 38 1 42 -1 77 -4 77 -4
0 -10 -41 -14 -91 -5 -63 -11 -92 -21 -96 -19 -7 -18 -23 2 -23 12 0 15 -6 11
-22 -4 -12 -2 -27 3 -33 9 -11 -17 -231 -44 -365 -22 -113 -30 -164 -27 -178
1 -8 -5 -12 -16 -10 -13 2 -18 12 -17 33 2 63 15 193 29 286 21 136 45 374 45
439 0 30 3 71 6 92 6 35 7 36 35 26 28 -10 29 -12 28 -71z m150 1 c20 -7 21
-11 10 -25 -8 -9 -38 -34 -68 -56 l-54 -40 24 -18 c28 -21 24 -26 -19 -35
l-32 -7 5 104 c2 57 4 109 5 116 0 7 17 5 53 -9 28 -11 63 -25 76 -30z m157
-46 c-6 -6 -86 30 -86 38 0 5 20 -1 44 -13 25 -12 43 -23 42 -25z m-135 -62
c-6 -34 -12 -65 -15 -67 -7 -7 -65 39 -66 52 0 10 82 86 88 80 2 -1 -2 -31 -7
-65z m136 38 c38 -17 120 -55 183 -83 l115 -52 -2 -69 c-3 -159 -16 -284 -28
-284 -21 0 -27 30 -25 120 5 189 5 250 -1 250 -25 0 -33 -84 -32 -320 0 -50
-2 -65 -7 -45 -4 17 -8 95 -9 175 -1 80 -6 162 -12 184 -9 34 -12 37 -25 24
-12 -12 -13 -23 -5 -59 6 -24 11 -68 11 -98 l0 -54 -22 20 c-30 27 -84 54 -92
46 -3 -4 -24 8 -45 25 -22 18 -43 32 -48 32 -4 1 -23 14 -42 30 -31 27 -33 31
-22 61 6 17 11 54 11 80 0 59 5 60 97 17z m-1622 -147 c146 -24 239 -33 440
-41 22 -1 36 -3 30 -5 -32 -10 -676 -67 -683 -61 -5 6 -11 127 -6 137 2 3 25
2 51 -2 26 -5 102 -17 168 -28z m1395 -28 c-23 -53 -32 -49 -45 19 -7 36 -6
37 27 40 18 2 34 0 36 -4 2 -4 -6 -29 -18 -55z m79 23 c15 -8 33 -22 40 -30
12 -14 8 -16 -32 -16 -49 0 -70 -14 -37 -25 27 -9 43 -40 35 -73 -5 -28 -8
-48 -20 -162 -8 -72 -11 -77 -68 -122 l-40 -32 7 89 c5 50 9 113 10 140 2 28
6 64 10 80 9 37 58 165 63 165 2 0 16 -6 32 -14z m-558 -175 c-20 -184 -33
-251 -47 -251 -10 0 -13 7 -9 23 10 44 35 259 35 302 0 24 5 56 12 72 l12 28
4 -39 c2 -22 -1 -83 -7 -135z m65 72 c-3 -54 -9 -151 -13 -216 -5 -97 -9 -117
-20 -112 -8 3 -23 5 -34 5 -17 0 -18 3 -9 20 11 21 15 43 27 143 3 32 12 65
20 72 16 16 18 150 3 160 -14 9 -3 25 17 25 14 0 15 -12 9 -97z m993 61 c-10
-26 -15 -89 -18 -226 -1 -29 -6 -48 -12 -48 -8 0 -10 31 -5 111 8 125 14 168
29 187 16 20 19 8 6 -24z m-1119 22 c0 -3 -4 -8 -10 -11 -5 -3 -10 -1 -10 4 0
6 5 11 10 11 6 0 10 -2 10 -4z m26 -13 c-4 -9 -11 -62 -17 -117 -18 -181 -32
-276 -39 -276 -15 0 -18 28 -9 66 5 22 13 91 19 154 12 127 25 190 41 190 6 0
8 -7 5 -17z m-111 -19 c-12 -18 -20 -60 -25 -128 -11 -126 -29 -236 -41 -236
-5 0 -7 24 -4 53 17 197 24 257 34 275 11 21 0 39 -18 28 -10 -6 -26 -67 -40
-151 l-10 -60 4 75 c2 41 7 90 11 109 6 26 4 33 -7 29 -24 -8 -39 -74 -48
-211 -10 -138 -14 -147 -63 -147 -29 0 -31 4 -28 60 1 19 3 53 4 75 2 22 6 78
11 124 7 70 6 83 -6 79 -15 -5 -37 -125 -39 -218 -1 -30 -5 -64 -10 -75 -5
-12 -9 34 -9 123 -1 111 -4 142 -14 142 -17 0 -24 -259 -8 -289 9 -15 7 -20
-12 -25 -58 -15 -60 -12 -53 67 3 39 8 104 11 142 3 39 8 83 10 98 7 42 -18
29 -27 -14 -8 -40 -31 -233 -32 -269 -1 -23 -5 -25 -52 -28 l-50 -3 8 68 c4
37 10 82 12 98 18 138 18 165 3 165 -11 0 -17 -23 -27 -97 -6 -54 -12 -129
-13 -168 l-2 -70 -104 -3 -103 -3 4 154 c2 84 8 158 12 165 4 7 18 12 32 12
22 0 24 -3 18 -22 -9 -26 -7 -254 1 -269 11 -17 37 -10 31 9 -9 26 -10 268 -2
281 4 6 21 11 38 11 28 0 30 -2 23 -27 -4 -16 -9 -88 -12 -160 -4 -117 -3
-133 11 -133 13 0 16 13 16 73 0 103 7 209 15 229 3 9 22 19 41 23 20 3 42 9
49 11 12 5 13 -12 7 -98 -12 -170 -9 -233 8 -233 11 0 14 9 12 30 -5 45 8 136
19 130 5 -4 9 -2 9 4 0 5 -4 11 -9 13 -6 2 -8 35 -4 80 7 90 -14 78 178 99 61
6 135 15 165 19 98 13 95 14 75 -16z m37 -106 c-5 -166 -20 -261 -45 -266 -13
-3 -17 4 -17 30 0 18 5 49 10 68 6 19 13 67 16 105 6 88 24 195 33 195 3 0 4
-60 3 -132z m1230 97 c-2 -11 -5 -65 -8 -120 -3 -80 -7 -101 -19 -103 -8 -2
-15 2 -16 10 -2 48 3 197 8 216 7 29 40 26 35 -3z m-702 6 c0 -5 -5 -11 -12
-13 -9 -3 -7 -24 6 -81 12 -50 16 -90 11 -114 -4 -21 -7 -65 -6 -98 1 -82 -15
-131 -52 -165 -49 -44 -53 -20 -23 139 26 137 30 165 42 279 5 42 11 62 20 62
8 0 14 -4 14 -9z m772 -52 c1 -13 1 -52 0 -85 -2 -52 -5 -62 -21 -67 -26 -6
-31 9 -31 102 0 82 13 112 37 88 8 -7 14 -24 15 -38z m-562 34 c0 -5 -6 -16
-13 -25 -12 -15 -14 -15 -25 2 -9 15 -8 19 6 23 28 7 32 7 32 0z m79 -34 l34
-30 -30 -32 c-16 -18 -56 -67 -87 -109 -32 -43 -59 -78 -61 -78 -2 0 -1 19 2
43 9 80 73 237 98 237 6 0 26 -14 44 -31z m554 -54 c-2 -53 -12 -74 -35 -75
-10 0 -10 66 -2 109 5 22 12 31 23 29 13 -3 16 -15 14 -63z m-2168 8 c-2 -21
-4 -94 -4 -162 l-1 -124 -57 7 c-32 4 -61 10 -65 14 -5 5 -3 45 2 90 6 45 11
99 12 119 0 21 3 43 7 48 3 6 6 15 6 20 0 6 10 11 23 13 21 3 22 1 23 -85 1
-48 1 -109 0 -135 -2 -29 2 -48 8 -48 7 0 11 43 11 124 0 132 4 156 26 156 9
0 12 -11 9 -37z m2246 17 c5 0 9 -13 9 -30 0 -23 -5 -31 -25 -36 -33 -8 -36
-5 -28 40 4 27 10 36 20 32 8 -4 19 -6 24 -6z m-2401 -13 c0 -2 -9 -21 -20
-43 l-19 -39 -1 36 c0 20 3 39 7 42 6 7 33 10 33 4z m2470 -12 c14 -8 21 -15
15 -15 -5 0 -20 -3 -32 -6 -19 -5 -23 -2 -23 15 0 25 6 25 40 6z m275 -15 c14
0 25 -2 25 -5 0 -2 -28 -46 -61 -97 -34 -51 -70 -113 -80 -137 -24 -54 -36
-47 -20 11 14 50 30 135 37 193 8 66 10 68 43 50 17 -8 41 -15 56 -15z m-900
-15 c-16 -14 -49 -36 -73 -49 l-42 -25 42 50 c33 39 47 49 72 49 l31 0 -30
-25z m765 21 c0 -11 -19 -15 -25 -6 -3 5 1 10 9 10 9 0 16 -2 16 -4z m-2600
-97 c-5 -35 -10 -85 -10 -111 0 -49 -7 -56 -44 -42 -11 4 -14 14 -10 37 10 54
63 191 71 183 2 -2 -1 -32 -7 -67z m1926 -16 c6 -49 9 -89 8 -91 -1 -2 -58
-23 -125 -47 -68 -23 -176 -61 -239 -83 -63 -23 -116 -39 -119 -36 -7 7 77 90
107 105 15 7 34 20 42 29 39 41 141 121 197 154 34 20 65 41 68 46 3 6 16 10
29 10 21 0 23 -6 32 -87z m647 65 c22 -11 22 -10 -9 -153 -14 -66 -29 -139
-34 -162 -10 -45 -83 -197 -100 -208 -14 -8 -40 13 -40 32 0 8 -11 38 -24 66
-37 81 -47 175 -30 277 7 47 14 85 14 86 0 0 29 13 65 29 36 16 65 35 65 43 0
14 58 8 93 -10z m-1383 -78 l-11 -25 6 25 c2 14 5 34 6 45 2 19 2 19 6 0 2
-12 -1 -32 -7 -45z m1147 54 c-3 -3 -12 -4 -19 -1 -8 3 -5 6 6 6 11 1 17 -2
13 -5z m-1536 -109 l-8 -70 -2 66 c-1 56 5 86 15 76 2 -1 -1 -34 -5 -72z
m1508 28 c-29 -75 -37 -150 -24 -220 7 -37 12 -70 10 -71 -2 -2 -13 19 -26 47
-12 28 -25 51 -29 51 -4 0 -20 19 -36 43 -15 23 -44 57 -63 76 l-36 34 95 32
c123 41 122 41 109 8z m-152 1 c-3 -3 -12 -4 -19 -1 -8 3 -5 6 6 6 11 1 17 -2
13 -5z m-980 -106 c-3 -7 -5 -2 -5 12 0 14 2 19 5 13 2 -7 2 -19 0 -25z m-347
-27 c40 -10 -250 -18 -400 -11 -44 3 -45 3 -10 9 57 10 372 12 410 2z m-656
-12 c34 -1 48 -4 31 -6 -16 -3 -74 -24 -130 -48 -141 -60 -141 -60 -149 -33
-8 32 -7 83 2 92 4 5 47 6 96 2 49 -3 117 -7 150 -7z m990 -71 c-6 -74 -15
-97 -35 -98 -4 0 2 30 12 68 10 37 19 77 19 90 0 12 3 22 6 22 3 0 2 -37 -2
-82z m62 -129 c-102 -50 -129 -59 -121 -36 12 28 144 84 205 85 8 0 -30 -22
-84 -49z"/>
<path d="M1011 1056 c-7 -8 -17 -64 -22 -123 -5 -59 -11 -124 -14 -144 -5 -25
-2 -39 9 -48 13 -11 17 -11 20 0 7 24 29 319 24 324 -3 3 -11 -1 -17 -9z"/>
</g>
</svg>
