<?xml version="1.0" standalone="no"?>
<!DOCTYPE svg PUBLIC "-//W3C//DTD SVG 20010904//EN"
 "http://www.w3.org/TR/2001/REC-SVG-20010904/DTD/svg10.dtd">
<svg version="1.0" xmlns="http://www.w3.org/2000/svg"
 width="254.000000pt" height="150.000000pt" viewBox="0 0 254.000000 150.000000"
 preserveAspectRatio="xMidYMid meet">
<metadata>
Created by potrace 1.16, written by Peter Selinger 2001-2019
</metadata>
<g transform="translate(0.000000,150.000000) scale(0.100000,-0.100000)"
fill="#000000" stroke="none">
<path d="M1543 1366 l-28 -46 -73 1 c-40 1 -77 -2 -82 -7 -11 -11 -40 -176
-40 -229 0 -62 -9 -69 -87 -66 -37 1 -149 -3 -248 -10 -208 -13 -181 -13 -315
-5 -118 7 -177 14 -235 27 -80 17 -92 13 -115 -37 -12 -25 -25 -76 -30 -113
-11 -80 -21 -128 -50 -246 -24 -97 -28 -183 -11 -228 17 -45 31 -22 31 52 0
37 3 70 6 74 3 3 8 27 10 53 4 50 17 74 28 55 4 -6 17 -11 30 -11 12 0 30 -6
40 -13 16 -12 16 -14 -6 -34 -13 -12 -38 -29 -57 -40 -18 -10 -32 -23 -30 -28
8 -20 45 -3 91 42 l47 46 3 -84 c2 -67 6 -84 18 -84 11 0 16 13 17 50 5 118 8
130 23 126 8 -2 29 -6 46 -9 32 -4 32 -4 39 -78 5 -54 11 -74 21 -74 13 0 20
52 14 118 -1 17 4 22 24 22 39 0 39 -1 37 -65 -2 -66 15 -103 43 -92 17 7 23
37 6 37 -14 0 -12 64 2 78 9 9 9 12 0 12 -7 0 -12 6 -12 14 0 14 74 31 91 21
5 -4 9 -30 10 -58 1 -67 11 -102 29 -102 11 0 13 13 11 54 -2 36 1 51 8 46 6
-3 11 -2 11 4 0 5 -4 13 -10 16 -5 3 -10 15 -10 26 0 16 7 19 55 19 50 0 55
-2 61 -25 7 -27 34 -40 65 -30 21 7 21 7 -2 19 -45 22 -32 33 53 41 46 5 104
8 130 6 25 -1 49 3 52 8 12 19 -54 29 -159 23 -104 -5 -107 -4 -101 15 4 12 2
41 -3 65 -12 53 -5 85 19 93 25 8 80 62 80 79 0 8 5 18 10 21 6 3 10 19 10 35
l0 29 95 -3 c52 -2 97 -5 99 -7 2 -2 -2 -51 -9 -109 -7 -58 -16 -132 -19 -165
-7 -82 -17 -127 -30 -144 -6 -8 -14 -46 -18 -85 -8 -94 -25 -168 -41 -178 -8
-6 0 -19 29 -46 23 -20 53 -56 68 -79 29 -47 50 -49 59 -5 7 29 65 107 133
178 41 43 145 94 364 179 41 16 100 42 130 58 30 16 102 54 160 84 58 30 112
61 121 69 8 8 23 14 32 14 14 0 37 27 37 44 0 3 -18 10 -40 16 -22 6 -40 17
-40 24 0 8 -7 16 -15 20 -8 3 -15 12 -15 20 0 8 -29 28 -65 45 -36 17 -90 51
-119 75 -30 24 -80 56 -112 71 -121 57 -331 261 -321 312 2 13 -2 28 -9 34
-11 9 -20 1 -41 -35z m57 -115 c0 -4 -18 -12 -39 -17 l-39 -11 11 26 c6 14 16
29 22 33 9 7 45 -18 45 -31z m-127 20 c5 -1 -4 -20 -18 -43 -15 -24 -40 -70
-56 -103 l-29 -60 0 40 c0 22 3 71 7 108 l6 68 41 -5 c23 -3 45 -5 49 -5z
m196 -88 c106 -101 163 -145 222 -170 35 -15 66 -30 69 -33 26 -28 104 -80
142 -95 26 -10 45 -21 42 -26 -3 -5 -1 -9 4 -9 5 0 26 -16 46 -36 20 -20 48
-39 62 -43 24 -6 24 -7 -13 -26 -21 -11 -60 -33 -88 -49 -111 -64 -200 -107
-203 -97 -5 14 -32 2 -125 -53 -43 -25 -80 -46 -82 -46 -3 0 -42 -17 -87 -39
-101 -47 -260 -107 -350 -132 -82 -23 -77 -23 -75 1 1 14 8 20 24 20 28 0 65
16 131 57 29 18 54 33 56 33 2 0 29 16 61 35 32 19 72 39 89 44 17 5 92 28
166 52 74 23 145 41 157 41 23 1 33 31 14 42 -5 4 -12 24 -16 46 -4 22 -10 38
-15 35 -15 -9 -203 184 -217 223 -16 47 -17 106 -1 149 16 44 4 52 -30 21 -15
-14 -38 -32 -52 -41 -14 -8 -44 -27 -68 -41 l-43 -27 23 -20 c13 -10 19 -19
13 -18 -23 3 -35 -2 -35 -14 0 -13 97 -43 128 -40 6 0 12 -2 12 -5 0 -12 -73
-93 -78 -87 -7 6 -8 11 -10 52 -1 12 -9 29 -18 38 -24 24 -38 5 -26 -36 5 -19
7 -43 6 -54 -2 -11 -6 -85 -8 -165 l-4 -145 -36 -7 c-34 -7 -104 -42 -151 -74
-29 -21 -35 -17 -35 21 0 19 4 35 9 35 5 0 11 14 15 30 3 18 12 30 21 30 16 0
20 16 6 24 -5 4 -12 0 -15 -6 -7 -16 -3 20 24 192 25 158 26 168 28 237 2 44
4 50 20 46 14 -3 26 10 52 61 18 36 36 64 40 61 4 -2 33 7 66 20 32 14 67 25
76 25 10 0 35 -17 57 -37z m-31 -125 c-5 -23 -6 -53 -3 -65 l6 -24 -52 26
c-49 26 -50 27 -33 46 9 10 22 19 29 19 7 0 20 9 30 20 27 30 34 24 23 -22z
m-1190 -78 c28 -5 113 -13 187 -16 75 -4 137 -10 139 -13 2 -3 -10 -16 -25
-29 l-29 -24 0 22 c0 34 -24 18 -35 -25 -10 -34 -45 -75 -64 -75 -4 0 -6 14
-3 30 3 19 17 41 40 60 41 33 39 51 -1 19 -15 -11 -27 -16 -27 -10 0 22 -18
10 -30 -19 -7 -16 -16 -30 -21 -30 -13 0 -102 -130 -94 -138 6 -7 21 8 73 74
l23 29 -6 -34 c-3 -18 -5 -54 -5 -80 0 -66 -8 -74 -65 -65 l-48 7 6 72 c11
124 26 175 54 186 13 5 23 15 21 22 -9 25 -46 16 -113 -28 -38 -25 -73 -45
-78 -45 -5 0 -6 15 -3 33 4 17 9 47 13 65 4 24 9 31 22 27 9 -2 40 -9 69 -15z
m522 -17 c0 -17 -111 -153 -125 -153 -4 0 -5 27 -2 60 6 78 23 97 82 96 25 0
45 -1 45 -3z m105 -15 c-13 -40 -46 -93 -71 -111 l-24 -18 0 55 c0 50 2 56 33
75 44 29 70 28 62 -1z m-281 -48 c-63 -81 -74 -89 -74 -58 0 18 16 39 52 72
28 25 55 46 60 46 5 0 -12 -27 -38 -60z m-340 -12 c-12 -19 -33 -131 -34 -176
l0 -44 -42 6 c-24 3 -51 5 -62 5 -16 1 -17 7 -12 49 10 65 15 82 29 82 7 1 37
21 67 45 58 48 65 52 54 33z m1238 -19 l27 -30 -42 6 c-70 9 -73 4 -58 -134 7
-67 9 -126 6 -131 -6 -10 -78 -50 -90 -50 -9 0 -6 95 6 177 10 68 17 84 53
128 40 49 56 65 66 65 3 0 18 -14 32 -31z m-748 -116 l6 -113 -56 0 -56 0 4
65 c4 60 8 68 49 114 24 27 45 48 45 48 1 -1 4 -53 8 -114z m-144 63 c0 -37
-4 -45 -22 -50 -21 -6 -22 -7 -6 -19 16 -13 23 -40 20 -85 -2 -21 -6 -23 -44
-20 l-43 3 4 44 c1 24 4 53 6 64 4 17 71 107 81 107 2 0 4 -20 4 -44z m-127
-53 c-2 -38 -6 -77 -8 -88 -2 -11 -4 -23 -4 -26 -1 -3 -14 -4 -30 -1 -20 3
-28 9 -26 20 2 10 4 37 4 62 1 34 7 52 26 73 14 15 30 27 35 27 4 0 6 -30 3
-67z m1010 6 c-23 -35 -28 -38 -34 -23 -4 11 -8 29 -8 42 -1 19 4 22 34 22
l35 0 -27 -41z m131 -8 l48 -48 -72 -52 c-81 -60 -106 -65 -30 -7 28 21 50 40
50 42 0 11 -22 0 -69 -35 -57 -43 -76 -44 -84 -3 -4 19 5 39 34 78 21 29 47
58 56 63 10 6 18 11 18 11 1 0 22 -22 49 -49z m80 -87 c4 -15 5 -28 3 -31 -11
-10 -144 -53 -166 -53 -19 0 -4 13 60 54 46 30 87 55 90 55 4 1 10 -11 13 -25z
m-214 -58 c0 -3 -4 -8 -10 -11 -5 -3 -10 -1 -10 4 0 6 5 11 10 11 6 0 10 -2
10 -4z m-235 -126 c-27 -12 -43 -12 -25 0 8 5 22 9 30 9 10 0 8 -3 -5 -9z
m-85 -40 c-25 -16 -49 -30 -55 -30 -12 0 76 58 90 59 6 1 -10 -13 -35 -29z
m109 26 c-17 -17 -174 -96 -186 -94 -16 3 152 96 176 97 8 1 12 -1 10 -3z
m-56 -177 c-26 -33 -56 -70 -65 -82 l-17 -22 -40 45 c-22 25 -41 49 -41 54 0
5 2 7 5 4 3 -3 49 10 103 28 53 18 98 33 100 33 2 1 -18 -26 -45 -60z"/>
<path d="M1344 568 c-3 -4 2 -8 10 -8 8 0 17 4 20 8 3 5 -2 9 -10 9 -8 0 -17
-4 -20 -9z"/>
<path d="M1105 560 c-19 -8 -19 -9 3 -9 12 -1 22 4 22 9 0 6 -1 10 -2 9 -2 0
-12 -4 -23 -9z"/>
<path d="M878 543 c7 -3 16 -2 19 1 4 3 -2 6 -13 5 -11 0 -14 -3 -6 -6z"/>
</g>
</svg>
