<?xml version="1.0" standalone="no"?>
<!DOCTYPE svg PUBLIC "-//W3C//DTD SVG 20010904//EN"
 "http://www.w3.org/TR/2001/REC-SVG-20010904/DTD/svg10.dtd">
<svg version="1.0" xmlns="http://www.w3.org/2000/svg"
 width="228.000000pt" height="170.000000pt" viewBox="0 0 228.000000 170.000000"
 preserveAspectRatio="xMidYMid meet">
<metadata>
Created by potrace 1.16, written by Peter Selinger 2001-2019
</metadata>
<g transform="translate(0.000000,170.000000) scale(0.100000,-0.100000)"
fill="#000000" stroke="none">
<path d="M1132 1568 c-5 -7 -7 -31 -4 -53 5 -46 5 -46 -3 -145 -3 -41 -8 -106
-11 -145 -3 -38 -7 -84 -9 -100 l-5 -30 -123 -3 c-254 -5 -514 33 -542 78 -8
12 -54 2 -76 -16 -9 -8 -38 -14 -71 -14 -63 0 -74 -6 -52 -31 11 -12 17 -42
20 -91 5 -109 5 -379 -1 -388 -6 -10 -20 -168 -20 -235 0 -38 4 -50 15 -50 11
0 15 13 16 50 1 28 4 77 8 110 4 33 13 134 20 225 9 118 18 177 32 208 24 53
34 54 27 2 -4 -28 -2 -40 7 -40 9 0 10 -9 6 -32 -4 -18 -11 -71 -16 -118 -5
-47 -12 -97 -16 -113 -9 -36 18 -37 49 -1 30 36 31 37 120 100 42 30 77 60 77
65 0 20 -34 7 -105 -41 -41 -27 -77 -50 -81 -50 -10 0 4 138 17 162 9 18 12
18 27 5 34 -30 100 -50 227 -66 l130 -17 -3 -30 c-1 -16 -12 -64 -22 -106 -24
-94 -25 -128 -5 -128 8 0 15 9 15 21 0 11 11 60 25 109 14 49 25 98 25 109 0
12 1 21 3 22 1 0 53 3 116 6 l114 4 -8 -53 c-27 -191 -45 -277 -68 -323 -13
-26 -16 -40 -8 -43 7 -2 11 -39 11 -108 0 -102 10 -131 29 -81 23 60 123 127
231 155 79 21 389 47 608 52 21 0 22 5 22 68 0 38 4 93 9 123 6 30 12 97 15
149 9 159 18 235 32 245 7 6 20 59 28 121 9 61 31 161 51 223 19 62 35 117 35
123 0 6 15 32 34 59 45 61 36 70 -59 57 -38 -5 -74 -13 -80 -18 -16 -13 -406
-20 -460 -9 -16 4 -48 10 -70 14 -22 3 -50 11 -62 17 -17 8 -30 8 -50 -1 -15
-7 -51 -15 -80 -18 -42 -4 -54 -2 -59 11 -7 19 -18 20 -32 4z m313 -58 c16 -6
12 -9 -20 -14 -22 -4 -48 -11 -57 -17 -10 -5 -21 -9 -26 -9 -12 0 -12 44 0 51
12 8 69 1 103 -11z m585 -20 c-11 -21 -20 -45 -20 -53 0 -7 -14 -54 -30 -103
-28 -81 -30 -85 -25 -39 3 28 8 86 11 130 6 85 18 105 61 105 l23 0 -20 -40z
m-772 -33 c-17 -34 -37 -69 -44 -77 -7 -8 -22 -44 -34 -80 -24 -69 -48 -108
-35 -55 4 17 9 55 11 85 2 30 7 83 10 117 7 68 7 68 86 70 l37 2 -31 -62z
m596 -19 c-3 -40 -9 -77 -12 -83 -3 -5 -8 -55 -12 -110 -4 -78 -8 -100 -20
-102 -33 -6 -40 11 -31 69 5 30 12 91 16 134 9 112 27 163 58 164 4 0 5 -33 1
-72z m-160 26 c-4 -79 -23 -316 -26 -319 -1 -2 -14 -5 -28 -7 -29 -4 -30 3
-11 172 21 196 20 190 44 186 17 -2 22 -10 21 -32z m85 -16 c-4 -29 -10 -93
-14 -143 -10 -153 -13 -164 -44 -161 -17 1 -25 7 -22 17 2 8 8 73 12 144 10
170 17 194 60 195 14 0 15 -8 8 -52z m148 40 c12 -17 9 -79 -11 -223 -20 -143
-20 -145 -44 -145 -17 0 -18 8 -15 98 2 53 8 110 13 126 6 16 10 44 10 61 0
78 22 116 47 83z m-395 -15 c-6 -10 -13 -93 -17 -184 l-7 -167 -36 -6 c-20 -3
-38 -3 -41 -1 -2 3 1 29 8 57 18 82 19 89 26 179 8 105 12 118 38 129 33 13
39 12 29 -7z m81 -45 c-2 -35 -8 -108 -15 -163 -6 -55 -11 -108 -10 -117 0
-10 -2 -18 -6 -18 -4 0 -18 -3 -30 -7 l-24 -6 6 94 c9 137 14 178 28 232 9 37
16 47 33 47 20 0 21 -4 18 -62z m-175 -60 c-4 -57 -13 -137 -19 -180 -11 -68
-15 -77 -36 -81 -27 -5 -29 11 -13 126 35 247 29 227 70 236 3 0 2 -45 -2
-101z m-73 35 c-3 -27 -10 -82 -15 -123 -5 -41 -11 -97 -13 -125 -3 -46 -6
-50 -31 -53 l-27 -3 5 73 c3 40 11 115 17 165 13 95 14 98 67 112 1 1 0 -20
-3 -46z m-87 -40 c-5 -32 -12 -103 -16 -158 l-7 -100 -32 -3 c-25 -3 -33 1
-33 13 0 36 33 192 48 225 14 33 42 80 46 80 2 0 -1 -26 -6 -57z m-113 -229
c-7 -41 -34 -48 -28 -6 3 15 10 38 16 51 10 20 13 21 15 7 2 -10 1 -33 -3 -52z
m-711 -29 c55 -29 256 -47 446 -42 97 4 181 3 188 -2 9 -6 9 -30 -3 -116 -9
-60 -17 -110 -18 -112 -5 -5 -178 -5 -183 0 -3 2 15 42 40 87 52 93 55 110 24
110 -13 0 -58 2 -101 3 -43 1 -81 -1 -83 -5 -3 -5 4 -20 15 -34 27 -34 31
-151 6 -161 -17 -6 -187 21 -245 39 -44 14 -78 36 -90 59 -9 15 0 23 56 55 36
20 80 40 97 43 43 9 47 31 5 31 -19 0 -71 -19 -120 -44 l-88 -44 0 58 c0 58 7
90 19 90 3 0 19 -7 35 -15z m1212 -12 c-3 -10 -10 -61 -16 -113 -14 -123 -16
-130 -47 -130 -23 0 -25 3 -19 33 4 17 11 73 16 122 4 50 9 91 9 92 1 1 13 4
29 6 15 2 28 5 30 6 2 0 1 -7 -2 -16z m69 -60 c-14 -174 -13 -173 -47 -173
-26 0 -29 3 -25 23 3 12 8 49 12 82 14 143 14 145 41 145 l26 0 -7 -77z
m-1391 45 c-3 -13 -14 -41 -24 -63 -10 -22 -20 -47 -22 -55 -3 -8 -7 20 -9 63
l-4 77 33 0 c30 0 33 -2 26 -22z m1463 12 c9 0 13 -6 9 -15 -3 -9 -8 -55 -12
-103 -4 -48 -8 -90 -11 -94 -2 -5 -15 -8 -29 -8 -16 0 -23 4 -18 11 6 10 10
64 13 183 1 30 4 37 17 32 9 -3 22 -6 31 -6z m87 -6 c-1 -5 -5 -54 -8 -109 -4
-55 -9 -113 -12 -130 -4 -29 -24 -285 -29 -375 -2 -43 -4 -45 -35 -48 l-32 -3
6 53 c3 29 10 112 16 183 12 151 18 185 32 185 10 0 38 25 38 34 0 3 -11 6
-24 6 -22 0 -23 3 -20 48 6 98 16 157 28 164 14 10 41 5 40 -8z m-389 -14 c-1
-18 -24 -186 -31 -217 -3 -18 -11 -23 -34 -23 l-30 0 0 74 c0 117 10 166 34
176 30 13 61 8 61 -10z m75 -23 c0 -28 -14 -128 -26 -184 -3 -17 -12 -23 -29
-23 -29 0 -31 14 -14 125 6 39 12 81 14 95 4 31 0 28 30 22 20 -3 25 -10 25
-35z m-336 -69 c-8 -117 -15 -142 -41 -146 -21 -3 -21 1 -21 115 0 65 2 121 4
124 2 3 17 4 34 1 l30 -4 -6 -90z m147 -22 c-6 -117 -7 -119 -30 -121 l-24 -2
8 96 c4 53 7 106 6 118 0 15 6 23 22 25 12 2 22 4 23 3 0 0 -2 -54 -5 -119z
m-231 40 c0 -115 -9 -162 -31 -163 -23 -2 -25 31 -7 155 7 56 15 82 25 82 10
0 13 -19 13 -74z m164 2 c-14 -151 -17 -163 -42 -166 -23 -4 -23 -3 -16 80 4
46 7 90 6 98 -2 40 9 60 34 60 l25 0 -7 -72z m-409 -10 c3 -3 -4 -23 -16 -44
-12 -22 -31 -56 -41 -76 -10 -21 -21 -38 -24 -38 -3 0 -4 28 -3 63 2 34 -1 72
-5 85 -7 21 -5 22 38 19 25 -1 48 -5 51 -9z m870 -200 c-4 -29 -9 -75 -11
-103 -15 -163 -25 -249 -27 -252 -2 -1 -32 -6 -67 -10 -83 -8 -94 3 -75 85 7
31 18 102 25 157 6 55 15 113 19 130 7 30 35 45 52 28 5 -5 0 -63 -11 -133
-26 -168 -29 -245 -11 -245 8 0 14 13 16 35 3 47 35 309 41 338 3 16 11 22 30
22 26 0 26 -1 19 -52z m-165 9 c0 -39 -30 -225 -41 -254 -5 -15 -11 -48 -12
-73 -2 -40 -5 -47 -22 -46 -29 1 -29 28 -4 168 12 68 23 139 24 158 2 19 3 40
4 47 1 10 16 18 44 22 4 0 7 -9 7 -22z m-476 -49 c-3 -35 -9 -101 -15 -148 -5
-47 -9 -104 -9 -126 0 -38 -2 -41 -24 -37 -48 10 -56 30 -40 108 15 75 33 189
34 217 0 20 26 48 46 48 11 0 13 -13 8 -62z m159 7 c-3 -49 -22 -230 -28 -270
-2 -11 -4 -28 -4 -37 -1 -11 -9 -18 -22 -18 -21 0 -21 3 -15 103 4 56 9 137
11 180 3 43 7 82 9 85 2 4 15 7 28 7 23 0 24 -3 21 -50z m72 28 c-8 -33 -24
-166 -33 -278 -6 -65 -10 -80 -25 -83 -15 -3 -17 3 -12 60 27 328 27 327 64
328 9 0 11 -8 6 -27z m87 22 c7 -7 -28 -267 -47 -352 -4 -15 -13 -23 -26 -23
-20 0 -20 4 -13 88 4 48 7 96 7 107 -1 29 18 168 23 177 6 9 48 11 56 3z m76
-52 c-8 -52 -42 -244 -54 -300 -2 -13 -12 -23 -20 -23 -14 0 -16 9 -10 63 4
34 11 85 16 112 5 28 12 85 15 128 7 76 7 77 34 77 l28 0 -9 -57z m-322 -60
c-4 -60 -9 -135 -11 -168 -3 -33 -4 -68 -5 -77 0 -12 -8 -18 -24 -18 -24 0
-24 1 -21 78 3 82 13 206 21 260 4 24 10 32 26 32 20 0 20 -3 14 -107z m-87
-296 c73 -7 98 -21 60 -35 -71 -28 -99 -43 -133 -72 l-37 -33 5 55 c7 80 16
110 30 99 6 -5 40 -11 75 -14z m134 -14 c-7 -2 -19 -2 -25 0 -7 3 -2 5 12 5
14 0 19 -2 13 -5z"/>
</g>
</svg>
