<?xml version="1.0" standalone="no"?>
<!DOCTYPE svg PUBLIC "-//W3C//DTD SVG 20010904//EN"
 "http://www.w3.org/TR/2001/REC-SVG-20010904/DTD/svg10.dtd">
<svg version="1.0" xmlns="http://www.w3.org/2000/svg"
 width="192.000000pt" height="138.000000pt" viewBox="0 0 192.000000 138.000000"
 preserveAspectRatio="xMidYMid meet">
<metadata>
Created by potrace 1.16, written by Peter Selinger 2001-2019
</metadata>
<g transform="translate(0.000000,138.000000) scale(0.100000,-0.100000)"
fill="#000000" stroke="none">
<path d="M409 1243 c-70 -6 -76 -26 -84 -299 -5 -178 -14 -290 -26 -321 -5
-13 -4 -25 1 -28 5 -3 6 -51 3 -108 -4 -76 -10 -107 -22 -122 -19 -22 -26 -82
-12 -104 7 -11 11 -10 22 7 9 15 17 18 25 11 14 -11 94 -25 209 -35 93 -8 642
-6 668 2 9 3 17 0 17 -6 0 -7 12 -9 35 -4 22 4 41 2 50 -6 10 -8 19 -9 28 -3
6 6 47 10 90 11 69 0 79 -3 89 -21 l11 -21 8 22 c8 22 12 23 84 16 84 -8 113
3 93 35 -8 14 -8 30 1 62 7 24 17 64 23 89 6 25 17 53 26 63 24 27 7 36 -115
62 -239 52 -500 78 -556 56 l-29 -11 6 52 c3 29 10 80 16 113 6 33 12 92 15
130 3 39 10 116 16 172 6 56 8 106 5 111 -3 5 1 18 9 28 21 27 19 47 -4 41
-10 -2 -26 0 -35 5 -11 6 -21 6 -29 0 -16 -13 -386 -22 -467 -11 -109 14 -123
15 -171 12z m-11 -108 c-4 -84 -22 -88 -28 -7 -5 68 -4 72 17 72 11 0 13 -15
11 -65z m257 44 c22 0 110 3 195 7 153 6 155 6 137 -14 -10 -11 -17 -26 -15
-33 4 -17 4 -17 -101 -1 -47 8 -101 10 -125 6 -86 -15 -276 2 -276 25 0 18 18
21 80 16 36 -4 83 -6 105 -6z m392 -34 c-4 -8 -11 -15 -17 -15 -6 0 -6 7 2 20
14 22 24 19 15 -5z m-159 -37 l63 -11 -27 -28 c-27 -29 -27 -29 -133 -24 -221
10 -249 14 -272 43 l-21 27 28 3 c16 2 30 0 31 -5 3 -7 169 1 197 10 12 4 53
-1 134 -15z m146 -75 c-8 -96 -6 -93 -69 -93 -30 0 -55 2 -55 5 0 3 12 24 26
46 21 33 30 40 48 35 33 -8 41 6 11 18 -24 10 -25 12 -10 34 9 12 25 22 35 22
18 0 19 -6 14 -67z m-534 -18 c24 -25 12 -35 -19 -16 -10 7 -19 4 -27 -7 -11
-15 -13 -13 -12 16 1 40 24 43 58 7z m380 4 c0 -4 -11 -20 -24 -36 -27 -32
-26 -32 -183 -12 -68 9 -85 15 -97 34 l-15 23 159 -1 c88 0 160 -4 160 -8z
m-503 -31 c-3 -7 -5 -2 -5 12 0 14 2 19 5 13 2 -7 2 -19 0 -25z m169 -42 c7
-3 17 -14 23 -25 10 -18 7 -20 -64 -23 l-75 -3 0 31 0 30 52 -3 c29 -1 58 -5
64 -7z m-176 -33 c-11 -17 -11 -17 -6 0 3 10 6 24 7 30 0 9 2 9 5 0 3 -7 0
-20 -6 -30z m408 11 c38 -8 19 -29 -29 -32 -69 -5 -109 5 -109 29 0 19 4 20
58 14 31 -3 67 -8 80 -11z m229 -13 c19 -1 21 -5 14 -23 -7 -20 -14 -23 -57
-20 -93 5 -115 11 -105 30 9 16 40 19 148 13z m-396 -56 c14 -5 42 -55 35 -62
-1 -2 -46 1 -100 7 -53 5 -102 9 -108 7 -17 -3 -22 31 -7 49 10 12 28 14 89
10 42 -3 83 -8 91 -11z m124 -25 c-10 -11 -21 -20 -25 -20 -4 0 -10 9 -13 20
-4 17 0 20 25 20 30 0 31 0 13 -20z m272 -3 c6 -4 9 -16 6 -27 -5 -19 -14 -20
-125 -20 l-119 0 21 29 c11 16 30 31 43 33 33 5 160 -6 174 -15z m-436 -54
c94 -6 106 -15 69 -48 -15 -14 -30 -16 -72 -11 -29 3 -77 7 -105 8 -48 1 -53
4 -53 25 0 25 33 46 59 37 7 -2 54 -7 102 -11z m427 -50 l-3 -38 -99 2 c-102
3 -146 17 -146 48 0 11 20 15 93 18 50 1 107 4 125 5 33 2 33 1 30 -35z m-398
-43 c0 -20 -50 -62 -66 -56 -9 3 -46 6 -83 6 l-68 0 5 30 4 30 104 0 c66 0
104 -4 104 -10z m139 -29 c12 -16 21 -32 21 -35 0 -6 -111 4 -119 10 -2 2 4
15 13 29 23 34 59 33 85 -4z m251 -12 c0 -31 -19 -39 -96 -39 -55 0 -78 13
-89 48 -6 22 -6 22 89 20 l96 -3 0 -26z m-460 -36 c0 -5 -6 -16 -14 -25 -25
-34 -136 -32 -136 3 0 15 10 19 63 22 34 2 68 4 75 5 6 1 12 -1 12 -5z m215
-12 c23 -1 35 -9 49 -32 l19 -32 -49 6 c-27 4 -79 9 -116 13 -38 4 -68 9 -68
12 0 3 8 14 17 24 13 15 27 18 67 14 28 -2 65 -5 81 -5z m234 -15 c2 -3 0 -30
-3 -59 l-7 -53 -39 -2 c-22 -2 -40 2 -40 7 0 5 -3 16 -6 25 -5 12 1 16 24 16
37 0 62 9 62 22 0 7 -18 8 -49 4 -44 -6 -50 -4 -65 18 -14 23 -14 25 2 29 24
7 116 1 121 -7z m102 -123 c2 -137 -1 -150 -34 -137 -13 5 -16 20 -13 97 5
143 4 137 26 137 19 0 20 -7 21 -97z m162 81 c3 -3 1 -18 -5 -33 -8 -21 -15
-93 -18 -203 0 -13 -40 -9 -41 5 0 10 -2 10 -6 0 -2 -7 -18 -13 -34 -13 l-30
0 4 116 c3 86 7 118 18 125 16 10 102 12 112 3z m74 -81 c-9 -124 -16 -153
-38 -153 -14 0 -19 9 -21 43 -6 90 22 197 54 197 7 0 9 -27 5 -87z m-869 55
c-26 -40 -98 -35 -82 5 4 12 18 17 51 17 45 0 45 0 31 -22z m299 3 c63 -1 93
-16 93 -48 0 -12 -10 -14 -57 -9 -32 3 -109 9 -171 12 -111 7 -112 7 -95 27
26 29 48 34 111 26 31 -4 85 -8 119 -8z m649 -8 c-3 -16 -8 -70 -12 -120 -6
-90 -7 -93 -30 -93 -13 0 -24 3 -24 8 0 20 21 190 25 210 3 14 13 22 26 22 17
0 20 -5 15 -27z m94 3 c0 -8 -5 -16 -12 -18 -9 -3 -11 -33 -9 -101 l2 -97 -26
0 c-26 0 -26 1 -24 68 1 37 4 88 7 115 4 44 7 47 33 47 18 0 29 -5 29 -14z
m65 -13 c-4 -10 -12 -60 -18 -110 -11 -98 -26 -124 -28 -48 -1 25 -1 55 -2 68
0 23 12 86 20 100 2 4 11 7 20 7 11 0 13 -5 8 -17z m80 -1 c15 -10 12 -202 -3
-202 -4 0 -8 45 -7 100 1 55 -2 100 -7 100 -14 0 -21 -52 -15 -126 l5 -74 -28
0 c-21 0 -27 4 -25 18 2 9 6 46 9 82 11 101 14 110 39 110 12 0 27 -4 32 -8z
m59 -27 c-4 -17 -10 -23 -16 -17 -6 6 -6 18 2 32 15 28 23 20 14 -15z m-1304
-24 c0 -5 -7 -14 -15 -21 -12 -10 -15 -10 -15 2 0 8 3 18 7 21 9 10 23 9 23
-2z m477 -18 c16 -6 16 -13 0 -34 -11 -15 -36 -16 -230 -10 l-217 6 26 29 27
29 190 -8 c105 -4 196 -9 204 -12z m103 -18 c0 -14 -4 -25 -9 -25 -10 0 -21
36 -13 44 12 13 22 5 22 -19z m-74 -57 c16 -16 -10 -22 -89 -19 -45 2 -116 4
-157 6 -119 4 -131 8 -40 15 114 8 277 7 286 -2z m-391 -8 c-3 -5 -1 -10 5
-10 6 0 8 -5 4 -12 -5 -8 4 -9 34 -4 29 4 42 3 42 -5 0 -8 -20 -9 -72 -4 -40
5 -85 9 -100 10 -51 4 -52 5 -42 14 16 16 139 27 129 11z m423 -35 c24 -24
-111 -34 -193 -15 -22 5 -57 10 -78 12 -21 1 -41 6 -43 10 -5 8 307 1 314 -7z
m142 -15 c-15 -9 -52 -1 -45 10 2 4 16 5 31 2 16 -3 21 -7 14 -12z"/>
<path d="M1176 484 c-9 -68 -7 -172 3 -154 12 22 24 200 13 200 -5 0 -12 -21
-16 -46z"/>
</g>
</svg>
