<?xml version="1.0" standalone="no"?>
<!DOCTYPE svg PUBLIC "-//W3C//DTD SVG 20010904//EN"
 "http://www.w3.org/TR/2001/REC-SVG-20010904/DTD/svg10.dtd">
<svg version="1.0" xmlns="http://www.w3.org/2000/svg"
 width="180.000000pt" height="128.000000pt" viewBox="0 0 180.000000 128.000000"
 preserveAspectRatio="xMidYMid meet">
<metadata>
Created by potrace 1.16, written by Peter Selinger 2001-2019
</metadata>
<g transform="translate(0.000000,128.000000) scale(0.100000,-0.100000)"
fill="#000000" stroke="none">
<path d="M891 1186 c-8 -9 -13 -68 -14 -166 -3 -180 3 -193 61 -137 62 60 184
145 230 161 l44 14 -6 -152 c-3 -83 -5 -164 -6 -181 l0 -30 -68 -1 c-37 -1
-147 -9 -245 -19 -207 -19 -457 -15 -552 9 -101 27 -116 22 -130 -44 -4 -19
-11 -40 -15 -45 -8 -10 -25 -270 -25 -385 0 -42 3 -55 15 -55 9 0 15 10 16 25
1 14 6 52 12 85 6 33 9 91 7 129 -6 106 -1 117 58 145 29 14 59 24 68 23 9 -1
19 7 22 18 7 28 64 39 232 45 83 2 175 7 205 10 30 3 78 7 105 10 28 2 66 6
85 9 19 3 67 8 105 10 39 2 78 7 88 11 17 7 18 3 11 -61 -4 -38 -8 -78 -10
-89 -1 -11 -3 -29 -3 -40 -1 -19 -9 -20 -132 -23 -72 -2 -176 -7 -232 -11
-103 -8 -148 -4 -145 14 1 6 19 38 40 73 21 34 38 64 38 65 0 8 -196 1 -201
-7 -4 -4 0 -21 8 -38 10 -19 13 -41 8 -64 -6 -34 -7 -35 -42 -28 -20 4 -44 7
-52 8 -9 1 -29 9 -46 17 -16 9 -42 19 -56 22 -37 9 -49 -24 -49 -133 0 -84 1
-90 20 -90 11 0 50 23 85 51 45 35 75 52 98 53 l32 1 -3 -95 c-4 -104 8 -153
33 -144 10 4 15 20 15 50 0 24 4 53 9 66 5 13 16 49 25 80 10 32 20 58 24 58
4 1 70 3 147 5 77 3 156 7 175 10 19 3 63 5 98 6 83 1 107 -15 111 -72 1 -24
4 -45 7 -48 9 -9 25 16 30 45 16 112 26 217 31 328 l5 130 58 75 c70 93 113
161 102 161 -10 0 -36 -29 -102 -112 -25 -31 -48 -57 -51 -58 -4 0 -7 32 -7
70 -1 39 -4 79 -7 90 -5 17 1 19 92 20 121 2 107 3 176 -10 32 -6 62 -8 68 -5
19 12 8 24 -38 39 -34 12 -85 16 -195 16 -148 0 -269 12 -318 33 -14 5 -34 12
-45 14 -26 5 -65 31 -65 43 0 15 -26 12 -39 -4z m149 -102 c36 -9 66 -17 68
-19 4 -3 -153 -115 -162 -115 -3 0 -6 36 -6 81 0 73 2 80 18 74 9 -3 46 -13
82 -21z m-701 -450 c5 -5 -24 -29 -62 -50 l-28 -15 3 41 2 42 40 -7 c22 -3 42
-8 45 -11z m351 -73 c0 -8 -47 -85 -67 -110 -8 -10 -14 11 -18 59 -5 51 -4 52
20 47 14 -2 28 0 31 4 7 12 34 11 34 0z m-282 -108 c7 -7 31 -16 53 -19 l40
-7 -43 -25 c-24 -14 -53 -34 -65 -45 -13 -11 -24 -19 -25 -16 -20 32 -25 48
-18 60 5 8 7 31 6 51 -3 35 -2 36 18 26 11 -6 27 -17 34 -25z"/>
</g>
</svg>
