<?xml version="1.0" standalone="no"?>
<!DOCTYPE svg PUBLIC "-//W3C//DTD SVG 20010904//EN"
 "http://www.w3.org/TR/2001/REC-SVG-20010904/DTD/svg10.dtd">
<svg version="1.0" xmlns="http://www.w3.org/2000/svg"
 width="290.000000pt" height="134.000000pt" viewBox="0 0 290.000000 134.000000"
 preserveAspectRatio="xMidYMid meet">
<metadata>
Created by potrace 1.16, written by Peter Selinger 2001-2019
</metadata>
<g transform="translate(0.000000,134.000000) scale(0.100000,-0.100000)"
fill="#000000" stroke="none">
<path d="M1270 1238 c-11 -18 -20 -38 -20 -45 0 -6 -24 -38 -54 -70 -77 -84
-90 -113 -77 -174 6 -28 11 -63 11 -78 l0 -29 -141 -1 c-78 -1 -145 -4 -150
-6 -4 -3 -97 -6 -208 -6 l-200 -1 -70 32 c-39 18 -76 39 -82 46 -19 23 -76 17
-90 -8 -14 -27 -29 -248 -17 -264 4 -6 19 -9 32 -7 35 7 43 -28 17 -64 -18
-24 -19 -33 -11 -63 6 -20 8 -63 4 -98 -5 -51 -3 -66 11 -82 15 -16 15 -25 5
-75 -9 -41 -9 -60 -1 -68 19 -19 29 4 38 87 8 79 8 79 53 112 25 18 53 33 62
33 19 1 19 11 1 -172 -5 -46 -4 -48 17 -45 19 2 23 10 25 43 5 112 18 187 34
192 9 2 24 9 33 14 36 19 39 12 33 -78 -4 -49 -8 -105 -9 -125 -2 -23 2 -42
11 -49 19 -16 26 -5 29 44 1 23 5 84 9 134 l7 93 43 0 c41 0 44 -2 51 -33 5
-17 7 -67 6 -110 -2 -86 9 -127 34 -127 13 0 15 6 9 28 -4 15 -6 45 -5 67 2
22 4 72 4 110 l1 70 51 3 c50 3 51 2 57 -27 4 -16 4 -51 1 -78 -5 -54 25 -198
41 -192 10 4 10 13 -1 137 -3 39 -3 91 0 115 l6 42 115 0 c92 0 114 -3 110
-13 -3 -8 -5 -22 -5 -33 0 -10 -9 -28 -21 -40 -20 -20 -22 -20 -40 -3 -18 16
-19 15 -28 -10 -6 -14 -15 -26 -21 -26 -5 0 -10 -4 -10 -10 0 -5 7 -10 15 -10
23 0 56 -60 52 -93 -4 -29 15 -53 33 -42 5 3 10 12 10 19 0 29 80 84 269 184
162 86 224 115 244 116 10 1 21 6 25 12 4 6 34 20 67 32 33 11 94 36 135 56
106 49 120 51 150 24 14 -13 50 -36 81 -51 51 -24 98 -63 88 -70 -5 -4 -95
-25 -139 -32 l-35 -6 -3 63 c-2 34 -5 65 -8 67 -12 12 -18 -17 -16 -81 3 -59
1 -70 -12 -65 -20 8 -30 -8 -18 -29 5 -9 5 -35 1 -61 -9 -48 -3 -93 12 -93 5
0 35 17 67 39 31 21 68 42 82 47 21 6 121 6 333 0 21 -1 41 2 44 7 3 5 6 36 8
70 1 34 10 127 19 207 9 80 19 176 22 214 5 55 9 69 24 73 13 3 18 14 18 36 0
35 10 56 64 137 51 76 72 98 103 110 29 11 29 37 -1 32 -37 -5 -215 -2 -225 3
-11 8 -29 -37 -29 -74 0 -25 -4 -28 -77 -44 -90 -19 -231 -29 -239 -16 -3 5
-27 7 -52 3 -56 -7 -132 11 -132 31 0 21 -20 29 -36 13 -17 -17 -49 -162 -40
-184 4 -10 14 -14 26 -11 19 5 20 1 18 -88 -1 -53 -6 -99 -13 -109 -12 -15
-15 -15 -44 1 -17 10 -31 23 -31 28 0 18 -70 79 -158 139 -92 63 -222 166
-222 177 0 3 -26 35 -57 69 -32 34 -62 69 -66 76 -13 23 -36 16 -57 -18z m95
-81 c22 -28 46 -62 53 -75 l13 -23 -48 8 c-26 4 -76 7 -110 6 -35 -2 -63 -1
-63 1 0 2 15 22 33 45 17 22 40 51 50 65 10 15 21 26 25 25 4 0 25 -23 47 -52z
m1265 36 c0 -5 -10 -19 -21 -33 -11 -14 -36 -50 -56 -80 l-37 -55 -7 40 c-4
22 -10 61 -14 88 l-8 47 72 0 c39 0 71 -3 71 -7z m-166 -120 c13 -84 16 -82
-76 -82 -46 0 -103 -4 -128 -10 -72 -16 -266 -13 -281 5 -6 8 -10 16 -8 17 99
66 112 70 229 78 111 7 180 16 189 25 2 2 19 4 36 4 30 0 33 -3 39 -37z m-440
-10 c-10 -8 -36 -23 -56 -34 l-38 -19 0 29 c0 55 5 59 62 48 47 -9 49 -11 32
-24z m-559 -50 c17 -3 56 -25 89 -47 71 -50 82 -57 121 -82 l30 -19 -45 -6
c-25 -3 -58 -2 -75 2 -34 10 -60 -6 -35 -21 21 -13 26 -295 5 -303 -7 -3 -19
1 -25 9 -7 8 -18 14 -26 14 -23 0 -44 31 -44 66 0 28 6 38 32 54 18 11 41 17
50 14 31 -9 21 25 -12 44 -27 15 -30 22 -30 70 0 51 22 92 50 92 6 0 10 7 10
16 0 12 -5 14 -17 9 -10 -4 -28 -10 -40 -12 -14 -3 -23 -13 -23 -24 0 -12 -19
-31 -50 -51 -65 -43 -65 -63 0 -90 56 -23 63 -41 23 -57 -46 -17 -127 -68
-131 -81 -5 -14 21 -32 51 -37 31 -5 76 -32 86 -52 13 -24 4 -32 -72 -56 -32
-11 -62 -25 -67 -31 -6 -6 -23 -9 -38 -6 l-29 4 -2 88 c-1 60 3 93 12 102 17
18 84 131 91 156 4 11 13 26 21 32 8 7 15 19 15 27 0 13 -13 14 -82 8 -46 -3
-78 -3 -73 2 6 4 32 38 58 75 56 80 93 111 122 103 11 -3 34 -8 50 -12z m-171
-25 c-16 -27 -49 -74 -67 -95 -11 -12 -29 -42 -41 -67 l-22 -45 4 69 c2 38 -1
83 -7 101 -6 17 -8 35 -5 40 3 5 37 9 75 9 53 0 68 -3 63 -12z m1172 -45 c-3
-16 -8 -47 -11 -70 l-6 -41 -82 -6 c-45 -3 -131 -8 -192 -11 -60 -3 -123 -8
-139 -11 -20 -5 -27 -4 -22 5 4 6 2 11 -5 11 -20 0 11 30 54 52 22 11 65 26
95 34 59 16 85 31 77 44 -7 12 33 17 143 19 l94 1 -6 -27z m-418 -12 c-25 -33
-82 -91 -91 -91 -4 0 -6 19 -3 43 2 23 5 48 5 54 1 9 18 12 51 12 45 -1 49 -3
38 -18z m137 13 c-28 -11 -115 -30 -115 -25 0 19 29 31 75 30 27 0 46 -2 40
-5z m-1900 -97 c30 -20 107 -47 135 -47 18 0 1 -15 -65 -56 -75 -47 -92 -54
-109 -44 -18 9 -21 19 -19 72 3 91 14 105 58 75z m1387 -31 c-4 -6 -19 -28
-32 -48 -26 -40 -36 -46 -38 -25 0 6 -4 29 -7 49 -7 35 -6 37 21 40 41 5 66
-2 56 -16z m89 3 c16 -11 29 -26 29 -33 0 -7 18 -22 40 -35 22 -12 40 -24 40
-27 0 -6 -97 -4 -168 3 -29 3 -52 9 -50 14 4 11 71 98 76 99 2 0 17 -9 33 -21z
m-287 -37 c-1 -2 -12 2 -25 9 -22 11 -22 12 -3 26 17 13 20 12 25 -9 3 -13 5
-24 3 -26z m-363 -87 c-3 -60 -5 -128 -5 -150 -1 -36 -4 -40 -31 -46 -16 -4
-67 -7 -113 -8 l-83 -1 46 85 c25 46 45 89 45 94 0 6 -17 4 -41 -4 -23 -8 -55
-15 -72 -15 -29 0 -30 0 -12 20 10 11 16 22 13 25 -2 3 -40 -1 -83 -8 -76 -14
-78 -13 -56 4 12 10 20 22 18 26 -7 11 -199 7 -272 -5 -33 -6 -78 -13 -99 -16
l-39 -7 24 19 c41 33 103 62 129 62 14 0 31 5 38 12 14 14 228 25 442 24 l155
-1 -4 -110z m219 99 c0 -9 -15 -39 -32 -66 l-33 -51 -8 44 c-5 24 -13 52 -17
61 -8 14 -4 17 23 21 63 8 67 7 67 -9z m-117 -101 c-5 -106 -5 -188 0 -247 2
-27 -2 -31 -36 -39 -21 -5 -40 -8 -41 -6 -2 2 0 27 5 54 5 28 12 107 15 178 5
98 9 127 20 127 7 0 18 9 24 20 6 11 12 20 14 20 2 0 2 -48 -1 -107z m765 80
c0 -16 3 -43 7 -62 l7 -34 -31 22 c-17 12 -33 26 -36 31 -4 7 40 70 50 70 2 0
3 -12 3 -27z m392 15 c36 -5 69 -13 73 -17 4 -4 5 -26 1 -48 l-6 -41 -112 5
c-61 2 -156 5 -211 6 l-100 2 -3 47 -3 47 63 4 c113 7 232 5 298 -5z m-495
-94 c9 3 23 0 31 -8 12 -12 0 -19 -79 -49 -50 -19 -99 -37 -107 -40 -8 -3 -39
-14 -67 -26 l-53 -21 0 29 c0 26 9 34 78 73 75 42 159 63 173 44 4 -5 15 -6
24 -2z m-207 -14 c-20 -11 -40 -24 -43 -30 -10 -16 -25 -11 -25 8 0 29 21 42
65 42 l40 -1 -37 -19z m-1175 -36 l-38 -45 -3 37 c-4 41 8 54 51 54 l28 0 -38
-46z m144 4 c-19 -24 -40 -54 -46 -66 -17 -32 -26 -20 -22 28 2 31 -1 40 -13
40 -16 0 -19 -14 -20 -120 l-1 -45 -35 3 c-41 5 -49 10 -31 21 7 5 12 17 10
27 -3 27 12 58 51 109 33 42 37 44 88 45 l53 0 -34 -42z m-225 -72 c-3 -83 -4
-86 -27 -86 -71 0 -93 36 -56 95 22 37 71 86 80 81 3 -2 5 -43 3 -90z m376 77
c-9 -10 -31 -47 -49 -83 l-33 -65 -7 40 c-17 107 -18 114 -5 109 6 -2 30 0 51
5 58 13 60 13 43 -6z m1602 5 c41 -3 45 -5 43 -28 -7 -71 -6 -70 -96 -72 -45
0 -86 -2 -92 -3 -5 -2 -16 -3 -22 -4 -19 -2 -16 -19 5 -24 10 -3 6 -5 -10 -6
-19 -1 -41 10 -65 33 -21 18 -49 39 -61 45 -13 7 -35 22 -49 34 l-25 22 39 6
c35 5 229 3 333 -3z m-2070 -18 c0 -21 -32 -72 -40 -64 -4 5 -10 24 -13 42 -6
30 -5 32 23 32 17 0 30 -5 30 -10z m1110 -21 c0 -15 -4 -19 -16 -15 -9 3 -23
6 -32 6 -13 0 -12 3 4 15 27 21 44 18 44 -6z m-545 -36 c-14 -20 -25 -40 -25
-44 0 -23 -18 -6 -24 22 -7 36 -33 35 -28 -2 8 -65 9 -64 -30 -67 -21 -2 -38
0 -38 5 0 4 13 33 28 63 27 54 28 55 77 60 28 3 53 4 57 2 4 -1 -4 -19 -17
-39z m-229 -90 c-2 -2 -18 -3 -34 -1 l-30 3 13 37 c7 21 21 50 31 65 l19 28 3
-64 c2 -35 1 -65 -2 -68z m1753 -37 l-1 -75 -121 4 c-264 9 -286 10 -299 23
-16 16 -28 15 -28 -1 0 -15 41 -37 67 -37 9 0 -4 -13 -30 -30 -26 -17 -52 -30
-57 -30 -6 0 -9 29 -7 64 1 37 6 61 11 56 5 -5 19 -2 32 6 21 14 81 30 204 54
25 5 68 15 95 23 28 9 69 16 92 16 l43 1 -1 -74z m-2051 -14 c-10 -2 -18 -7
-18 -11 0 -3 -13 -15 -30 -24 -29 -18 -29 -18 -36 8 -11 46 -1 54 53 41 26 -6
40 -12 31 -14z m912 -57 c-27 -14 -36 -13 -25 4 3 6 16 11 28 11 21 -1 21 -1
-3 -15z m-51 -14 c16 -10 21 -6 -96 -74 -44 -26 -48 -27 -60 -11 -17 24 -16
54 1 54 8 0 18 -4 21 -10 11 -18 45 -11 45 9 0 28 61 50 89 32z"/>
</g>
</svg>
