<?xml version="1.0" standalone="no"?>
<!DOCTYPE svg PUBLIC "-//W3C//DTD SVG 20010904//EN"
 "http://www.w3.org/TR/2001/REC-SVG-20010904/DTD/svg10.dtd">
<svg version="1.0" xmlns="http://www.w3.org/2000/svg"
 width="214.000000pt" height="116.000000pt" viewBox="0 0 214.000000 116.000000"
 preserveAspectRatio="xMidYMid meet">
<metadata>
Created by potrace 1.16, written by Peter Selinger 2001-2019
</metadata>
<g transform="translate(0.000000,116.000000) scale(0.100000,-0.100000)"
fill="#000000" stroke="none">
<path d="M1127 1067 c-21 -32 -42 -99 -57 -180 l-13 -69 -61 8 c-33 4 -68 6
-76 6 -54 -5 -565 -2 -581 3 -30 10 -54 -10 -56 -47 -1 -33 -14 -104 -33 -188
-16 -71 -50 -263 -50 -282 0 -30 35 -40 61 -19 20 16 21 21 10 35 -10 11 -11
31 -6 71 5 42 3 55 -7 55 -10 0 -11 2 0 8 12 8 19 42 54 253 l10 67 327 0
c179 0 343 -2 364 -5 l38 -5 -6 -66 c-3 -37 -8 -80 -10 -97 -5 -35 -19 -333
-19 -387 0 -60 7 -62 141 -48 65 7 138 14 163 15 100 7 280 42 280 55 0 4 -26
5 -57 4 l-58 -3 60 14 c118 27 173 63 200 130 8 21 8 77 -1 107 -6 21 -83 57
-137 63 -70 9 -193 33 -172 34 11 1 34 9 50 19 17 10 66 31 110 45 137 46 191
100 179 179 -11 65 -56 102 -174 140 -126 42 -257 67 -362 69 -69 2 -78 4 -78
20 0 26 -15 24 -33 -4z m241 -68 l52 -11 -5 -51 c-3 -29 -8 -72 -11 -97 -5
-44 -25 -159 -44 -250 -6 -25 -15 -90 -20 -145 -20 -184 -20 -185 -49 -203
-14 -9 -29 -21 -33 -26 -8 -11 -116 -23 -161 -18 l-29 4 6 156 c5 150 19 319
32 390 4 21 11 31 19 28 17 -6 35 13 28 30 -3 8 -11 14 -19 14 -20 0 -22 19
-10 100 15 100 13 97 108 93 45 -2 107 -8 136 -14z m197 -49 c7 -6 26 -13 42
-16 31 -6 66 -25 101 -57 26 -24 29 -67 6 -107 -17 -28 -95 -73 -149 -86 -16
-4 -53 -20 -82 -35 -29 -16 -56 -29 -61 -29 -8 0 -6 24 15 168 3 26 7 76 7
112 2 87 6 92 62 75 25 -7 51 -18 59 -25z m-60 -395 c61 -11 120 -28 130 -36
5 -5 17 -9 26 -9 23 0 49 -37 49 -68 0 -91 -80 -137 -284 -167 -21 -3 -43 -8
-49 -12 -7 -4 -8 10 -3 43 6 38 23 210 26 256 0 8 42 5 105 -7z m-27 -310
c-10 -10 -68 -14 -68 -4 0 5 17 9 37 9 20 0 34 -2 31 -5z m-81 -11 c-3 -3 -12
-4 -19 -1 -8 3 -5 6 6 6 11 1 17 -2 13 -5z"/>
<path d="M533 768 c-11 -13 -17 -34 -45 -148 -15 -64 -15 -252 1 -292 6 -16
17 -28 25 -28 16 0 15 -2 16 145 1 44 8 133 16 198 16 116 11 155 -13 125z"/>
<path d="M630 560 c-47 -6 -70 -15 -70 -30 0 -11 448 -11 455 1 13 20 -56 32
-195 33 -80 1 -165 -1 -190 -4z"/>
</g>
</svg>
