<?xml version="1.0" standalone="no"?>
<!DOCTYPE svg PUBLIC "-//W3C//DTD SVG 20010904//EN"
 "http://www.w3.org/TR/2001/REC-SVG-20010904/DTD/svg10.dtd">
<svg version="1.0" xmlns="http://www.w3.org/2000/svg"
 width="189.000000pt" height="105.000000pt" viewBox="0 0 189.000000 105.000000"
 preserveAspectRatio="xMidYMid meet">
<metadata>
Created by potrace 1.16, written by Peter Selinger 2001-2019
</metadata>
<g transform="translate(0.000000,105.000000) scale(0.100000,-0.100000)"
fill="#000000" stroke="none">
<path d="M430 886 c-9 -25 -12 -26 -104 -26 -98 0 -150 -12 -144 -32 2 -6 13
-13 23 -14 43 -6 50 -34 49 -198 -1 -134 -4 -159 -22 -197 -12 -25 -26 -83
-32 -136 -6 -51 -15 -105 -21 -119 -17 -45 5 -49 47 -8 34 32 107 84 117 84 2
0 4 -33 3 -72 -1 -103 17 -102 26 1 4 46 9 85 11 88 3 2 65 8 138 14 74 5 195
14 269 19 75 6 194 10 265 10 72 0 146 4 165 10 19 5 94 14 165 20 128 10 130
10 148 -12 28 -34 34 -11 36 130 1 69 5 130 10 136 5 6 23 38 41 71 40 74 93
148 138 196 39 42 33 52 -24 39 -21 -5 -68 -9 -104 -9 -66 0 -206 -14 -295
-30 -87 -15 -255 -18 -560 -9 -202 6 -283 20 -277 47 1 7 -5 11 -15 9 -10 -1
-24 1 -31 5 -8 6 -15 0 -22 -17z m1274 -61 c-38 -50 -124 -187 -124 -198 0 -4
-4 -6 -9 -3 -4 3 -9 55 -10 115 -2 107 -1 111 21 116 23 5 140 12 147 8 1 -1
-10 -18 -25 -38z m-1134 1 l54 -12 -48 -28 c-27 -16 -66 -44 -87 -63 l-39 -35
0 65 c0 36 5 69 11 72 6 4 8 13 5 21 -4 11 0 11 22 2 15 -6 52 -16 82 -22z
m953 -213 c-3 -161 -9 -240 -17 -245 -6 -4 -36 -10 -66 -13 -30 -3 -110 -12
-176 -20 -67 -8 -140 -15 -162 -15 -35 0 -40 2 -35 20 4 15 11 19 24 15 29
-10 22 8 -11 27 -32 18 -38 45 -20 92 11 30 59 57 88 49 16 -4 22 -1 22 11 0
10 -11 19 -30 23 -38 7 -50 28 -50 88 0 39 4 47 25 57 14 6 25 18 25 26 0 12
-4 12 -22 -2 -13 -9 -30 -19 -38 -22 -8 -3 -23 -10 -32 -15 -10 -5 -24 -9 -32
-9 -31 0 -26 -22 18 -68 30 -31 41 -49 33 -53 -7 -4 -41 -9 -77 -13 -36 -4
-84 -9 -106 -12 l-42 -6 14 66 c8 37 20 79 29 95 19 37 11 43 -32 24 -20 -8
-66 -15 -102 -16 -75 -2 -99 -20 -33 -25 23 -2 42 -6 42 -10 0 -4 -13 -23 -29
-42 l-30 -35 6 39 c5 30 3 38 -8 34 -8 -3 -17 -20 -20 -39 -4 -19 -11 -56 -17
-84 -20 -96 -24 -167 -10 -163 7 3 14 14 16 26 2 16 22 30 70 53 37 17 71 31
77 32 5 1 14 -22 20 -52 12 -63 40 -87 31 -27 -3 20 -8 51 -11 70 l-5 33 62 7
c35 4 88 9 118 12 l55 5 -40 -26 c-22 -14 -61 -35 -87 -48 -26 -12 -48 -25
-48 -28 0 -4 25 -17 55 -29 37 -15 61 -32 70 -49 l13 -27 -76 2 c-43 1 -106
-3 -142 -7 -74 -10 -418 -15 -426 -6 -9 8 48 99 92 148 8 8 11 19 7 22 -3 4
-44 7 -91 7 -69 0 -82 -2 -74 -13 6 -7 33 -14 59 -16 26 -1 49 -4 52 -6 2 -2
-12 -28 -30 -57 -31 -47 -34 -50 -37 -28 -9 82 -35 100 -32 23 3 -75 3 -76
-25 -69 -13 3 -35 10 -49 15 -23 9 -24 11 -11 48 7 21 19 85 25 141 11 94 15
106 45 140 18 20 44 51 59 67 l25 30 1 -57 c0 -50 3 -58 19 -58 11 0 30 12 43
28 28 33 114 104 148 123 19 10 81 14 250 15 216 1 345 7 475 24 33 4 86 8
117 9 l57 1 -6 -237z m-1113 198 c0 -5 -10 -22 -23 -38 -13 -15 -31 -40 -40
-55 -18 -29 -45 -37 -52 -15 -2 6 -6 33 -10 59 l-6 47 48 4 c26 2 56 4 66 5 9
1 17 -2 17 -7z m437 -151 c-11 -30 -12 -30 -21 -10 -7 16 -6 24 5 31 24 15 28
10 16 -21z m221 -32 c-3 -20 -4 -20 -18 6 -12 24 -12 28 0 36 17 11 24 -5 18
-42z m-262 -1 c3 -13 4 -41 2 -63 l-3 -39 -49 -3 c-27 -2 -53 1 -57 5 -9 9 76
123 92 123 5 0 11 -11 15 -23z m-64 -152 c-30 -14 -56 -25 -58 -25 -2 0 -4 11
-4 25 0 24 3 25 58 25 l57 0 -53 -25z m280 -34 c-4 -27 -6 -29 -28 -19 -26 12
-23 25 10 38 11 5 21 9 22 9 0 1 -1 -12 -4 -28z m-699 -155 c32 -7 35 -22 7
-31 -11 -3 -43 -22 -71 -42 -49 -34 -52 -34 -46 -12 4 13 7 29 7 35 0 7 8 11
18 10 12 -1 18 8 20 27 3 20 8 27 20 23 9 -2 29 -7 45 -10z"/>
<path d="M1176 692 c-33 -20 -60 -40 -60 -44 -1 -3 15 -24 35 -45 20 -21 39
-50 42 -64 6 -22 1 -30 -34 -52 -22 -15 -45 -27 -49 -27 -5 0 -12 -4 -15 -10
-6 -10 80 -100 96 -100 9 0 4 84 -7 118 -2 7 10 21 27 31 18 11 26 22 20 25
-6 4 -11 18 -11 30 0 13 -9 35 -20 49 -14 17 -19 35 -16 53 3 14 6 27 8 28 2
1 15 7 31 14 15 6 27 16 27 22 0 16 -10 12 -74 -28z m-13 -250 c-4 -18 -8 -20
-20 -10 -13 10 -13 14 3 25 22 16 25 13 17 -15z"/>
<path d="M1290 697 c-19 -13 -50 -29 -67 -36 -37 -15 -38 -17 -20 -36 6 -7 23
-32 37 -54 13 -23 32 -41 41 -41 36 0 27 -18 -24 -46 -44 -24 -48 -29 -29 -32
16 -2 30 -17 44 -48 24 -49 25 -49 52 -29 19 15 19 15 -2 35 -16 15 -20 28
-16 45 4 17 2 25 -7 25 -8 0 -2 8 14 18 15 9 27 19 27 22 0 3 -14 14 -31 24
-23 14 -29 24 -27 44 7 59 85 30 110 -40 13 -38 28 -26 28 23 0 21 10 60 21
84 12 25 19 48 17 51 -3 2 -35 -10 -71 -27 -37 -17 -74 -29 -84 -27 -16 3 -14
7 10 31 43 44 33 51 -23 14z m130 -32 c0 -10 -24 -55 -29 -55 -11 1 -45 30
-40 34 12 13 69 30 69 21z m-158 -35 c-8 -21 -9 -22 -16 -5 -4 11 -2 22 6 26
17 11 20 6 10 -21z"/>
<path d="M1380 483 c-55 -39 -73 -63 -46 -63 8 0 31 -10 51 -21 20 -12 38 -20
40 -18 2 3 1 23 -2 46 -6 43 -23 50 -23 10 -1 -21 -1 -21 -15 -3 -13 18 -12
21 20 43 19 13 35 28 35 33 0 14 -1 14 -60 -27z"/>
</g>
</svg>
