<?xml version="1.0" standalone="no"?>
<!DOCTYPE svg PUBLIC "-//W3C//DTD SVG 20010904//EN"
 "http://www.w3.org/TR/2001/REC-SVG-20010904/DTD/svg10.dtd">
<svg version="1.0" xmlns="http://www.w3.org/2000/svg"
 width="132.000000pt" height="112.000000pt" viewBox="0 0 132.000000 112.000000"
 preserveAspectRatio="xMidYMid meet">
<metadata>
Created by potrace 1.16, written by Peter Selinger 2001-2019
</metadata>
<g transform="translate(0.000000,112.000000) scale(0.100000,-0.100000)"
fill="#000000" stroke="none">
<path d="M531 979 c-19 -8 -22 -14 -17 -37 7 -28 24 -164 31 -239 2 -24 0 -45
-4 -47 -31 -19 -209 4 -264 35 -24 13 -37 3 -37 -27 0 -23 -3 -24 -57 -24 -75
0 -90 -9 -70 -41 20 -30 22 -64 13 -214 -6 -99 -5 -124 7 -140 15 -19 16 -19
49 -1 100 54 121 66 141 79 22 14 181 18 203 4 7 -4 7 -27 2 -64 -20 -151 -21
-181 -5 -197 27 -27 80 -19 154 23 69 39 69 39 194 42 68 1 148 -2 177 -6 46
-7 52 -11 52 -31 0 -26 7 -29 29 -15 9 6 15 30 17 64 1 31 5 84 8 119 9 102
19 329 17 388 -1 56 48 253 69 274 5 5 10 17 10 26 0 12 -18 19 -76 29 -47 8
-80 9 -87 3 -26 -21 -493 -19 -514 2 -8 8 -12 7 -42 -5z m575 -91 c14 -44 23
-143 27 -278 1 -42 -13 -322 -18 -360 -9 -63 -22 -95 -36 -91 -8 2 -88 5 -179
7 -181 3 -353 21 -344 36 3 5 9 36 14 68 5 33 16 68 25 77 16 16 16 17 -5 25
-15 5 -20 13 -16 24 3 9 6 60 6 114 0 90 2 99 20 105 26 8 26 25 0 32 -25 7
-25 19 -2 63 10 19 27 68 37 108 11 39 23 72 28 72 4 0 6 -4 3 -9 -9 -13 5
-71 16 -71 6 0 32 16 58 35 26 19 52 35 57 35 6 0 25 10 44 23 28 18 50 23
129 25 52 2 97 6 99 8 12 12 22 -1 37 -48z m-476 39 c0 -2 -9 -30 -20 -63 -11
-32 -20 -68 -20 -79 -1 -16 -2 -17 -9 -5 -8 12 -16 117 -12 143 1 7 61 11 61
4z m150 -7 c14 -4 18 -8 10 -9 -9 -1 -32 -12 -53 -26 -35 -24 -37 -25 -37 -6
0 49 21 60 80 41z m407 -4 c-3 -8 -9 -31 -13 -52 -8 -41 -17 -32 -28 29 -7 35
-6 37 20 37 18 0 25 -4 21 -14z m-828 -295 c11 -7 9 -11 -10 -21 -13 -7 -34
-22 -46 -33 l-23 -20 0 29 c0 17 5 35 12 42 14 14 47 15 67 3z m179 -128 l-3
-118 -100 2 c-55 1 -137 2 -182 2 l-82 1 4 40 c2 22 11 47 19 56 9 8 21 25 27
36 10 19 12 20 21 5 14 -26 41 -20 74 14 42 44 119 75 197 78 l29 1 -4 -117z
m-336 72 l-16 -35 -14 25 c-16 31 -9 45 22 45 23 0 23 0 8 -35z m28 -250 c-57
-30 -58 -30 -56 0 1 23 5 25 51 25 l50 -1 -45 -24z m411 -172 l52 -6 -22 -19
c-13 -10 -30 -18 -37 -18 -8 0 -26 -7 -39 -16 -25 -16 -25 -16 -25 19 0 19 -3
44 -7 54 -6 15 -4 16 9 5 9 -7 40 -15 69 -19z"/>
</g>
</svg>
