<?xml version="1.0" standalone="no"?>
<!DOCTYPE svg PUBLIC "-//W3C//DTD SVG 20010904//EN"
 "http://www.w3.org/TR/2001/REC-SVG-20010904/DTD/svg10.dtd">
<svg version="1.0" xmlns="http://www.w3.org/2000/svg"
 width="194.000000pt" height="104.000000pt" viewBox="0 0 194.000000 104.000000"
 preserveAspectRatio="xMidYMid meet">
<metadata>
Created by potrace 1.16, written by Peter Selinger 2001-2019
</metadata>
<g transform="translate(0.000000,104.000000) scale(0.100000,-0.100000)"
fill="#000000" stroke="none">
<path d="M1430 892 c-33 -10 -97 -13 -240 -12 -107 1 -208 4 -225 7 -62 12
-687 9 -704 -4 -13 -9 -16 -44 -19 -225 -4 -200 -4 -292 -2 -363 0 -16 6 -33
13 -37 6 -4 50 -8 97 -8 79 0 86 -2 95 -22 13 -30 38 -29 45 2 6 24 9 25 100
27 126 4 131 0 103 -77 -19 -52 -20 -62 -7 -67 18 -7 44 14 45 36 0 9 8 33 18
55 l17 38 42 -46 c62 -68 92 -62 52 10 -12 20 -19 39 -16 41 3 3 21 2 42 -1
31 -6 35 -10 30 -29 -3 -12 -9 -39 -12 -59 -5 -31 -4 -38 10 -38 18 0 32 27
41 83 5 32 10 37 32 37 15 0 41 -14 64 -35 59 -53 94 -47 42 7 l-27 28 75 1
c41 1 79 0 84 -1 6 -1 109 -4 229 -7 136 -2 225 -8 233 -14 34 -29 55 30 53
151 0 25 4 88 10 140 6 52 11 140 11 195 0 55 4 117 9 139 4 21 6 44 4 50 -7
18 -286 16 -344 -2z m295 -39 c-3 -10 -11 -74 -16 -143 -5 -69 -14 -156 -21
-195 -13 -77 -15 -159 -5 -190 14 -40 -6 -49 -120 -56 -59 -3 -162 -1 -228 4
-66 5 -158 7 -206 5 -48 -1 -83 -1 -78 2 4 3 -1 19 -11 35 -11 17 -20 40 -20
51 0 22 55 121 86 155 14 16 17 37 14 126 -2 60 -3 126 -4 148 l-1 40 165 7
c91 4 218 10 284 13 65 2 121 7 124 10 3 3 14 5 25 5 14 0 17 -5 12 -17z
m-975 -11 c0 -5 -52 -64 -115 -130 -69 -73 -115 -130 -115 -142 0 -24 27 -52
72 -75 18 -10 56 -43 85 -74 48 -52 51 -59 44 -91 l-7 -35 -104 0 -105 0 -3
50 c-2 27 -8 53 -14 57 -8 4 -8 11 3 24 11 13 14 56 14 198 1 100 4 191 8 202
7 21 15 22 122 23 63 1 115 -2 115 -7z m308 -7 c3 -3 -33 -44 -79 -92 -47 -49
-97 -104 -112 -125 -51 -67 -56 -61 -56 70 1 169 -5 160 130 156 62 -3 115 -6
117 -9z m-593 -77 c-3 -46 -9 -91 -11 -100 -3 -10 0 -18 6 -18 6 0 9 -3 7 -7
-3 -5 -8 -79 -11 -167 -4 -87 -9 -163 -12 -167 -3 -5 -39 -9 -81 -9 l-76 0 6
39 c2 22 1 43 -4 48 -6 6 -3 63 6 142 9 83 12 169 8 227 l-6 94 88 0 87 0 -7
-82z m301 -20 c-3 -35 -8 -88 -11 -119 l-7 -57 -43 -5 c-41 -6 -96 4 -125 23
-12 8 -6 19 35 62 93 98 150 158 152 158 2 0 1 -28 -1 -62z m310 -57 c4 -78 2
-102 -8 -105 -7 -3 -57 -7 -112 -11 l-98 -6 63 78 c59 73 140 155 147 148 2
-1 5 -48 8 -104z m-23 -147 c6 -7 -49 -120 -63 -129 -4 -3 -25 14 -47 38 -21
23 -52 51 -68 62 l-30 20 45 6 c64 9 156 10 163 3z m-311 -54 c-2 -28 -6 -50
-9 -50 -14 0 -45 24 -71 57 l-30 38 57 2 56 2 -3 -49z m68 15 c0 -8 4 -15 8
-15 4 0 36 -32 71 -70 62 -69 63 -72 50 -102 -12 -30 -14 -30 -63 -24 -28 3
-58 6 -67 6 -23 0 -39 42 -30 81 4 19 8 37 9 42 1 4 2 27 2 52 0 25 5 45 10
45 6 0 10 -7 10 -15z m190 -205 c0 -5 -4 -10 -10 -10 -5 0 -10 5 -10 10 0 6 5
10 10 10 6 0 10 -4 10 -10z"/>
</g>
</svg>
