<?xml version="1.0" standalone="no"?>
<!DOCTYPE svg PUBLIC "-//W3C//DTD SVG 20010904//EN"
 "http://www.w3.org/TR/2001/REC-SVG-20010904/DTD/svg10.dtd">
<svg version="1.0" xmlns="http://www.w3.org/2000/svg"
 width="274.000000pt" height="158.000000pt" viewBox="0 0 274.000000 158.000000"
 preserveAspectRatio="xMidYMid meet">
<metadata>
Created by potrace 1.16, written by Peter Selinger 2001-2019
</metadata>
<g transform="translate(0.000000,158.000000) scale(0.100000,-0.100000)"
fill="#000000" stroke="none">
<path d="M1359 1536 c-2 -2 -60 -7 -129 -11 -69 -3 -142 -8 -162 -11 -64 -10
-53 -24 17 -24 l66 0 -3 -117 -3 -118 -140 -1 c-185 -1 -214 2 -208 27 7 26
-9 24 -35 -4 -19 -20 -23 -39 -28 -133 -4 -60 -10 -113 -15 -118 -4 -5 -97 -9
-206 -10 -205 -1 -307 12 -328 41 -9 12 -13 12 -26 -4 -9 -10 -26 -43 -37 -73
-19 -46 -22 -74 -21 -175 0 -66 0 -130 0 -143 -1 -13 4 -33 10 -44 17 -32 31
-7 33 59 l1 58 60 -2 c33 -1 160 -3 282 -3 l221 -1 -3 -27 c-2 -15 -5 -69 -6
-119 -2 -72 -5 -93 -16 -93 -11 0 -13 -14 -11 -57 l3 -58 45 1 c25 0 123 3
218 6 159 6 173 5 167 -10 -17 -42 -24 -78 -31 -162 -5 -75 -10 -92 -26 -101
-35 -19 -9 -24 125 -25 73 0 174 -2 226 -3 70 -2 96 0 102 10 13 21 -5 31 -60
33 -65 2 -77 13 -62 58 6 19 12 74 14 121 2 85 2 87 27 87 68 0 437 22 450 27
8 3 26 6 40 7 24 1 25 3 21 51 -7 78 -7 213 0 220 13 13 324 16 401 4 l76 -12
15 -51 c8 -32 20 -52 30 -54 14 -3 17 5 17 47 0 68 -1 65 16 74 16 9 19 47 4
47 -20 0 -9 43 31 120 23 44 50 82 60 85 11 4 19 15 19 25 0 15 -10 19 -61 22
-33 1 -66 0 -73 -4 -7 -4 -42 -10 -77 -13 -81 -8 -407 -14 -430 -8 -12 4 -16
12 -12 31 3 15 7 67 10 116 4 77 7 89 24 93 19 5 26 28 11 37 -10 6 -242 21
-292 19 -81 -3 -282 -4 -285 -1 -4 4 -8 123 -6 181 l1 48 58 -3 c66 -3 89 6
71 28 -8 10 -35 14 -94 14 -45 0 -84 -2 -86 -4z m-9 -38 c1 -2 7 -53 13 -114
l13 -111 -89 -7 c-48 -4 -92 -4 -98 0 -6 3 -8 18 -4 33 4 14 9 57 12 96 2 38
9 75 15 82 5 7 35 14 66 16 31 2 60 4 65 5 4 1 7 1 7 0z m571 -288 c-2 -8 -7
-51 -11 -95 -4 -44 -15 -150 -24 -235 -9 -85 -17 -217 -17 -292 -1 -76 -4
-136 -8 -133 -4 2 -50 0 -102 -6 -52 -6 -213 -11 -359 -11 -232 -1 -373 -5
-617 -19 -35 -2 -64 0 -65 5 -2 5 5 10 15 12 28 4 29 8 20 60 -12 70 7 222 30
239 16 11 16 15 2 41 -10 19 -15 58 -15 110 0 73 2 82 20 87 23 6 27 27 6 27
-20 0 -22 15 -16 117 l5 92 234 5 c129 3 236 8 239 11 3 2 154 4 336 2 289 -2
330 -4 327 -17z m-1727 -209 c3 -5 45 -16 93 -25 74 -13 113 -14 238 -6 83 5
160 10 172 10 22 0 22 -3 22 -91 0 -50 -2 -96 -5 -102 -6 -16 -309 -14 -390 3
-34 6 -86 10 -118 9 l-56 -4 0 63 c0 98 24 176 44 143z m2336 -46 c0 -17 -34
-68 -38 -57 -7 22 8 62 23 62 8 0 15 -2 15 -5z m-95 -34 c-5 -33 -19 -164 -18
-171 1 -3 -109 -5 -244 -5 l-245 0 7 85 c3 47 11 88 17 91 6 4 47 8 92 9 45 1
142 5 216 9 74 3 145 7 157 7 18 1 21 -3 18 -25z m-1071 -546 c-2 -11 -9 -51
-14 -90 -6 -38 -13 -89 -16 -113 l-7 -43 -103 3 -104 3 0 35 c1 56 17 173 28
200 9 24 12 25 115 25 101 0 106 -1 101 -20z"/>
<path d="M1196 1194 c-3 -9 -6 -29 -6 -45 0 -27 -3 -29 -35 -29 -34 0 -35 1
-35 41 0 50 -23 49 -30 -2 l-5 -34 -72 0 c-39 0 -75 -3 -79 -8 -16 -16 14 -27
79 -28 37 -1 70 -5 73 -10 2 -4 2 -20 -2 -34 -4 -18 -13 -25 -29 -25 -33 0
-75 -17 -75 -31 0 -7 16 -9 50 -4 l50 7 0 -46 c0 -43 -1 -46 -27 -46 -39 0
-103 -19 -103 -31 0 -5 22 -7 56 -3 43 5 58 4 65 -7 19 -31 10 -41 -33 -37
-55 4 -62 -17 -8 -26 40 -6 40 -7 40 -51 l0 -44 -47 -3 c-66 -4 -70 -28 -5
-28 l50 0 -4 -32 c-8 -55 -11 -58 -58 -58 -25 0 -48 -5 -51 -10 -4 -6 12 -10
39 -10 34 0 46 -4 46 -15 0 -24 56 -20 63 5 3 12 14 20 27 20 17 0 20 -4 15
-21 -6 -17 -3 -20 17 -17 15 2 22 9 20 20 -2 15 5 18 37 18 l40 0 3 -45 c2
-25 8 -45 13 -45 6 0 11 20 13 45 3 44 4 45 38 45 l35 0 -7 -50 c-6 -42 -4
-50 10 -50 13 0 16 10 16 50 l0 50 35 0 35 0 -7 -61 c-5 -51 -4 -61 8 -57 9 3
15 23 17 55 3 54 19 78 41 64 10 -7 11 -19 3 -57 -12 -54 -3 -75 22 -55 10 9
13 19 7 30 -5 9 -7 21 -6 26 2 6 6 22 9 38 8 34 46 39 46 6 0 -18 2 -19 15 -9
8 7 15 19 15 26 0 8 10 14 23 14 12 0 29 4 37 10 11 7 9 11 -13 19 -16 6 -33
11 -38 11 -5 0 -9 11 -9 25 0 19 5 25 23 25 29 0 51 15 43 29 -4 6 -18 11 -31
11 -30 0 -35 8 -28 43 5 24 10 27 44 27 27 0 42 5 46 15 9 24 1 26 -82 27 -63
0 -75 2 -71 15 3 8 6 21 6 29 0 8 10 14 25 14 18 0 25 -5 25 -20 0 -11 5 -20
10 -20 6 0 10 12 10 26 0 22 4 25 28 24 52 -4 72 0 72 14 0 18 -70 29 -128 20
-40 -6 -44 -5 -39 10 4 10 7 24 7 32 0 17 47 19 53 2 4 -10 7 -10 18 0 7 6 32
12 56 12 31 0 45 5 50 16 9 23 -16 34 -59 27 -36 -5 -38 -4 -38 21 0 27 3 28
55 30 23 1 30 6 30 21 0 17 -6 20 -38 17 l-39 -3 7 33 c6 31 5 32 -10 14 -8
-11 -15 -26 -15 -33 0 -8 -12 -13 -28 -13 -22 0 -28 4 -27 23 0 30 -19 34 -25
5 -4 -16 -14 -24 -35 -26 l-28 -4 17 27 c10 15 15 29 12 32 -8 9 -27 -8 -36
-33 -9 -22 -21 -26 -67 -24 -11 1 -4 42 9 58 13 15 2 30 -11 16 -5 -5 -13 -25
-18 -44 -8 -31 -13 -35 -46 -38 -34 -3 -37 -1 -37 23 0 14 7 28 15 31 16 7 21
34 6 34 -13 0 -41 -47 -41 -70 0 -17 -6 -20 -44 -20 -50 0 -58 10 -49 64 6 37
-9 51 -21 20z m360 -131 c-3 -8 -6 -17 -6 -19 0 -2 -11 -4 -25 -4 -18 0 -25 5
-25 19 0 20 24 31 48 23 7 -3 11 -11 8 -19z m82 -7 c3 -24 1 -27 -25 -23 -33
4 -46 42 -16 50 29 7 38 2 41 -27z m-443 3 c4 -13 2 -25 -5 -29 -14 -8 -71 2
-71 13 1 4 1 14 1 22 0 10 10 15 34 15 27 0 36 -5 41 -21z m89 15 c20 -8 21
-40 2 -47 -8 -3 -22 -4 -32 -2 -11 2 -22 4 -26 4 -5 1 -8 10 -8 20 0 26 30 38
64 25z m114 -18 c5 -23 -14 -36 -50 -36 -31 0 -39 25 -16 48 19 19 62 11 66
-12z m82 4 c0 -11 -6 -20 -14 -20 -8 0 -21 -3 -30 -6 -12 -5 -16 0 -16 20 0
22 4 26 30 26 23 0 30 -4 30 -20z m65 -95 c0 -23 -5 -31 -22 -33 -20 -3 -23 1
-23 33 0 32 3 36 23 33 17 -2 22 -10 22 -33z m-357 -12 c-3 -31 -7 -38 -33
-45 -38 -10 -49 2 -41 46 6 33 10 36 42 36 34 0 35 -1 32 -37z m108 0 c-3 -8
-6 -19 -6 -23 0 -10 -68 -25 -76 -18 -2 3 -1 19 2 36 4 21 13 32 28 34 30 6
59 -10 52 -29z m176 7 c5 -31 -5 -40 -48 -40 -17 0 -24 6 -24 19 0 36 12 51
40 51 23 0 28 -5 32 -30z m-82 6 c0 -33 -13 -46 -46 -46 -30 0 -33 3 -30 23 3
12 5 25 5 30 1 4 17 7 36 7 24 0 35 -5 35 -14z m-19 -108 c7 -28 -4 -38 -41
-38 -32 0 -34 55 -1 63 26 7 35 2 42 -25z m104 2 c0 -22 -5 -25 -43 -28 -42
-3 -43 -2 -37 20 10 30 24 39 55 36 19 -2 25 -9 25 -28z m65 0 c0 -23 -5 -30
-19 -30 -11 0 -21 6 -24 13 -7 22 5 47 24 47 14 0 19 -7 19 -30z m-258 -10
c-4 -27 -8 -30 -43 -30 -35 0 -39 3 -39 24 0 27 11 34 56 35 28 1 30 -1 26
-29z m-110 -5 c-3 -20 -10 -25 -33 -25 -24 0 -29 4 -29 25 0 22 4 25 34 25 30
0 33 -2 28 -25z m294 -88 c-1 -41 -2 -42 -39 -45 l-38 -3 5 43 c2 24 5 44 5
45 1 0 16 1 35 1 33 0 34 -1 32 -41z m139 23 c9 -30 -4 -60 -26 -60 -15 0 -19
7 -19 34 0 30 9 43 32 45 4 1 10 -8 13 -19z m-447 -32 c-2 -36 -7 -44 -25 -46
-21 -3 -23 1 -23 42 0 43 2 46 26 46 23 0 25 -3 22 -42z m120 0 l-3 -43 -45 1
c-45 1 -45 1 -42 35 5 47 8 49 53 49 l40 0 -3 -42z m92 2 c0 -39 -1 -40 -35
-40 -30 0 -35 3 -35 24 0 42 11 56 41 56 27 0 29 -3 29 -40z m165 8 c-2 -18
-3 -36 -4 -40 -1 -5 -10 -8 -21 -8 -17 0 -20 7 -20 40 0 35 3 40 24 40 21 0
23 -4 21 -32z m-265 -114 c0 -26 -12 -36 -49 -40 -28 -3 -41 10 -41 43 0 16 7
23 28 25 44 5 62 -2 62 -28z m88 -1 c3 -32 2 -33 -32 -33 -39 0 -41 5 -26 45
15 40 54 31 58 -12z m102 1 c0 -32 -2 -34 -35 -34 -32 0 -35 3 -35 29 0 31 5
35 45 37 22 2 25 -2 25 -32z m70 17 c0 -33 -11 -51 -31 -51 -19 0 -25 23 -13
54 9 23 44 20 44 -3z m63 0 c6 -23 -10 -51 -28 -51 -15 0 -22 50 -8 63 12 13
31 7 36 -12z m-443 -26 c0 -31 -3 -35 -25 -35 -21 0 -25 5 -25 28 0 33 7 42
32 42 14 0 18 -8 18 -35z"/>
</g>
</svg>
