<?xml version="1.0" standalone="no"?>
<!DOCTYPE svg PUBLIC "-//W3C//DTD SVG 20010904//EN"
 "http://www.w3.org/TR/2001/REC-SVG-20010904/DTD/svg10.dtd">
<svg version="1.0" xmlns="http://www.w3.org/2000/svg"
 width="186.000000pt" height="119.000000pt" viewBox="0 0 186.000000 119.000000"
 preserveAspectRatio="xMidYMid meet">
<metadata>
Created by potrace 1.16, written by Peter Selinger 2001-2019
</metadata>
<g transform="translate(0.000000,119.000000) scale(0.100000,-0.100000)"
fill="#000000" stroke="none">
<path d="M671 983 c-6 -21 -18 -90 -26 -153 -9 -63 -19 -125 -22 -138 -5 -22
-6 -22 -190 -21 -147 1 -198 -2 -253 -17 l-69 -18 -3 -125 c-3 -142 12 -279
32 -291 8 -5 22 -4 31 1 10 5 46 5 91 -1 192 -26 256 -33 298 -33 469 4 865
-3 893 -15 16 -7 33 -9 38 -6 9 5 6 120 -3 129 -5 5 0 48 32 260 11 72 24 179
30 239 7 76 15 115 26 128 26 28 2 49 -55 48 -248 -5 -495 2 -611 16 -160 19
-140 18 -167 9 -51 -16 -16 -40 84 -56 37 -6 182 -13 322 -14 139 -2 278 -6
308 -10 l56 -7 -7 -56 c-4 -32 -11 -82 -16 -112 -19 -104 -41 -245 -58 -358
-13 -89 -14 -117 -4 -132 7 -11 12 -21 12 -22 0 -2 -159 -1 -353 1 -193 2
-390 3 -437 2 -47 -1 -110 3 -140 8 -30 6 -95 18 -143 27 -86 15 -154 15 -190
-1 -15 -6 -18 -2 -18 26 0 19 -2 94 -4 167 l-3 133 26 11 c15 6 116 12 224 15
l197 4 17 -26 c21 -32 39 -32 60 0 15 22 15 29 4 51 -11 20 -12 36 -2 82 6 32
14 86 17 122 3 36 8 89 10 118 4 41 2 52 -10 52 -8 0 -19 -16 -24 -37z"/>
<path d="M753 768 c-4 -7 -11 -65 -15 -128 -4 -63 -10 -137 -13 -165 -9 -77
-1 -81 91 -45 43 16 88 36 99 42 11 6 36 20 55 30 19 10 53 32 75 47 21 16 45
26 53 23 8 -3 17 0 21 5 4 7 27 7 66 2 33 -5 77 -10 98 -10 20 -1 39 -5 42 -9
2 -4 -25 -35 -60 -70 -68 -65 -74 -74 -51 -83 7 -3 38 20 72 54 32 32 74 66
92 74 38 19 41 43 12 83 -12 16 -31 57 -43 92 -24 69 -39 83 -57 51 -8 -16 -6
-35 10 -83 11 -34 20 -62 20 -63 0 -5 -262 3 -267 9 -4 3 -13 6 -22 6 -9 0
-38 16 -65 35 -27 19 -54 35 -58 35 -26 0 -108 45 -113 61 -7 22 -30 25 -42 7z
m53 -57 c5 -4 30 -16 57 -26 45 -17 46 -18 25 -29 -21 -11 -23 -18 -21 -92 l1
-81 -31 -10 c-85 -29 -80 -31 -72 23 13 80 13 86 14 157 1 65 6 77 27 58z
m210 -111 c25 -10 26 -11 9 -30 -13 -15 -90 -57 -115 -64 -3 0 -7 26 -10 59
-4 44 -2 64 9 77 14 16 17 16 47 -7 18 -14 45 -30 60 -35z"/>
</g>
</svg>
