<?xml version="1.0" standalone="no"?>
<!DOCTYPE svg PUBLIC "-//W3C//DTD SVG 20010904//EN"
 "http://www.w3.org/TR/2001/REC-SVG-20010904/DTD/svg10.dtd">
<svg version="1.0" xmlns="http://www.w3.org/2000/svg"
 width="246.000000pt" height="146.000000pt" viewBox="0 0 246.000000 146.000000"
 preserveAspectRatio="xMidYMid meet">
<metadata>
Created by potrace 1.16, written by Peter Selinger 2001-2019
</metadata>
<g transform="translate(0.000000,146.000000) scale(0.100000,-0.100000)"
fill="#000000" stroke="none">
<path d="M1475 1145 c-27 -41 -51 -73 -54 -71 -3 2 -51 7 -106 10 -55 4 -127
11 -160 15 -33 5 -71 9 -85 8 -60 -2 -285 22 -510 55 -134 20 -178 17 -199
-11 -21 -28 -40 -96 -47 -173 -5 -53 -3 -58 15 -58 11 0 22 4 25 9 6 10 53 21
111 27 136 13 372 39 445 49 159 20 218 25 354 31 l155 7 -4 -158 c-3 -87 -6
-159 -8 -161 -3 -3 -412 -15 -502 -14 -176 1 -314 8 -398 20 -70 10 -90 10
-103 0 -23 -20 -6 -28 71 -35 39 -4 102 -10 140 -14 l70 -7 -55 -8 c-86 -13
-181 -36 -211 -52 -47 -24 -50 -20 -43 56 6 66 6 70 -13 70 -23 0 -28 -17 -39
-134 -6 -67 -5 -78 11 -90 16 -11 17 -22 11 -81 -4 -37 -11 -76 -17 -87 -6
-10 -9 -36 -7 -56 2 -29 8 -38 24 -40 19 -3 21 2 20 50 0 29 5 73 10 98 l9 45
52 1 c38 2 53 -2 57 -13 5 -12 9 -13 21 -3 9 7 18 10 21 7 10 -10 -54 -37
-101 -44 -47 -6 -66 -20 -46 -33 18 -11 78 4 146 35 52 25 74 29 185 33 69 3
188 5 265 4 77 0 201 -1 277 -2 112 -1 137 -4 142 -16 4 -10 -5 -20 -29 -30
-19 -7 -39 -14 -44 -14 -24 0 -18 -23 20 -74 62 -83 103 -104 126 -66 14 21
170 140 184 140 5 0 6 -25 2 -57 -12 -90 -10 -136 6 -141 10 -3 12 1 9 16 -3
11 0 47 8 79 8 32 14 72 14 90 0 37 17 56 103 115 32 21 83 60 113 84 30 25
76 56 102 70 25 14 49 28 52 33 9 14 166 101 182 101 21 0 41 27 34 45 -3 8
-16 15 -28 15 -13 0 -38 9 -56 20 -18 11 -38 20 -45 20 -20 1 -125 51 -225
108 -102 58 -260 172 -306 221 -23 24 -38 31 -66 31 -35 0 -40 -4 -85 -75z
m190 -35 c58 -44 124 -89 146 -100 69 -36 42 -30 -68 15 -130 52 -135 54 -196
74 l-48 16 26 38 c14 20 28 37 30 37 2 0 52 -36 110 -80z m-1160 25 c40 -5 75
-11 130 -20 56 -10 220 -24 340 -30 128 -7 247 -21 205 -25 -14 -1 -41 -3 -60
-4 -19 -2 -87 -8 -150 -14 -112 -12 -343 -30 -465 -38 -60 -4 -89 -8 -120 -20
-14 -6 -15 0 -10 47 4 30 11 69 17 87 9 30 13 32 41 27 18 -2 50 -7 72 -10z
m1029 -172 c-13 -49 -29 -108 -35 -133 -5 -25 -15 -63 -22 -85 l-11 -40 -6 80
c-3 44 -3 119 -2 167 l4 87 36 4 c21 2 42 4 49 5 8 1 4 -27 -13 -85z m267 6
c13 -7 64 -27 114 -44 133 -48 316 -129 307 -136 -4 -4 -27 -18 -52 -32 -102
-56 -173 -98 -199 -116 -23 -17 -195 -101 -205 -101 -9 0 18 79 55 159 42 91
44 114 7 107 -13 -3 -54 -10 -91 -17 -72 -12 -94 -32 -63 -54 14 -11 16 -28
14 -116 l-3 -102 -42 -23 c-24 -12 -43 -21 -43 -19 0 2 -20 -5 -43 -15 -54
-24 -94 -12 -95 30 -1 42 18 141 39 208 12 35 19 72 16 83 -3 10 -2 17 3 14 4
-2 10 13 14 36 3 22 10 48 15 57 5 9 17 46 27 82 10 36 19 68 21 71 3 7 162
-49 204 -72z m-9 -226 c2 -5 -13 -57 -34 -118 l-37 -110 -1 111 c0 61 3 114 7
117 9 9 61 9 65 0z m-457 -75 c-4 -13 -9 -62 -12 -110 l-5 -88 -39 0 c-37 0
-38 1 -34 28 3 15 9 54 14 87 15 101 17 105 60 105 20 0 22 -3 16 -22z m72
-93 l-2 -103 -27 -4 -28 -5 0 76 c0 102 14 151 40 144 18 -5 19 -13 17 -108z
m-162 78 c-15 -57 -24 -109 -25 -145 0 -36 -2 -38 -31 -38 -16 0 -28 4 -24 9
3 6 8 36 11 68 11 127 13 133 51 133 23 0 24 -3 18 -27z m-181 -10 c-4 -16
-11 -38 -15 -51 -5 -13 -9 -46 -9 -73 0 -47 -1 -49 -29 -49 -24 0 -29 5 -33
30 -3 17 -1 33 4 36 4 3 8 16 8 29 0 13 5 36 12 50 13 29 5 43 -15 27 -12 -10
-25 -56 -43 -150 -4 -19 -10 -23 -37 -20 -36 3 -37 10 -22 122 6 46 5 58 -5
54 -16 -5 -39 -88 -40 -140 l0 -38 -46 0 -47 0 7 68 c3 37 6 77 6 88 0 20 8
22 98 31 53 6 123 11 155 12 l57 1 -6 -27z m92 -5 c-3 -18 -8 -63 -11 -100
l-7 -68 -34 0 c-34 0 -34 1 -29 38 2 20 7 61 10 91 8 68 9 71 46 71 28 0 30
-2 25 -32z m-421 -10 c-2 -7 -9 -46 -15 -85 -10 -60 -15 -73 -30 -73 -44 0
-51 10 -45 64 10 84 14 94 38 99 43 8 56 7 52 -5z m-108 -21 c-3 -8 -8 -39
-12 -70 l-7 -57 -43 0 -42 0 3 56 c2 31 8 62 15 70 15 19 93 19 86 1z m-131
-29 c-3 -13 -5 -39 -5 -60 l-1 -36 -53 -4 -54 -3 12 45 c10 40 16 47 56 62 24
9 45 17 46 17 2 1 1 -9 -1 -21z m1273 -87 c-27 -22 -32 -21 -23 3 3 9 15 16
26 16 19 0 19 -1 -3 -19z m-89 -34 c0 -17 -24 -38 -112 -97 -62 -41 -116 -76
-120 -78 -5 -2 -12 8 -17 21 -6 14 -15 28 -20 32 -19 11 -12 24 22 39 17 8 77
35 132 60 55 25 103 46 108 46 4 0 7 -10 7 -23z"/>
</g>
</svg>
