<?xml version="1.0" standalone="no"?>
<!DOCTYPE svg PUBLIC "-//W3C//DTD SVG 20010904//EN"
 "http://www.w3.org/TR/2001/REC-SVG-20010904/DTD/svg10.dtd">
<svg version="1.0" xmlns="http://www.w3.org/2000/svg"
 width="246.000000pt" height="182.000000pt" viewBox="0 0 246.000000 182.000000"
 preserveAspectRatio="xMidYMid meet">
<metadata>
Created by potrace 1.16, written by Peter Selinger 2001-2019
</metadata>
<g transform="translate(0.000000,182.000000) scale(0.100000,-0.100000)"
fill="#000000" stroke="none">
<path d="M1099 1746 c-3 -3 -54 -6 -112 -7 -105 0 -132 -10 -83 -28 29 -12 36
-48 36 -190 l0 -104 -108 6 c-63 3 -125 12 -146 21 -39 16 -85 8 -87 -16 0 -7
-2 -26 -3 -43 -2 -16 -6 -87 -11 -157 l-8 -128 -36 -2 c-44 -2 -44 -2 -206 11
-71 6 -138 11 -147 12 -10 0 -18 7 -18 15 0 27 -28 14 -44 -21 -29 -61 -37
-346 -11 -414 4 -10 9 -10 19 -2 9 8 12 27 8 62 -6 61 4 70 62 57 22 -6 105
-8 182 -5 78 3 147 1 153 -2 8 -5 10 -29 5 -77 -4 -38 -7 -89 -6 -114 0 -25 1
-64 1 -87 0 -32 5 -43 19 -47 20 -7 166 -9 319 -7 81 2 83 1 89 -24 3 -14 3
-45 0 -67 -4 -23 -9 -74 -12 -112 -3 -39 -7 -80 -9 -91 -11 -72 -20 -103 -32
-122 -17 -26 -7 -55 11 -31 20 27 70 36 181 31 213 -8 224 -8 237 5 19 20 -16
43 -53 35 -22 -4 -30 -1 -35 13 -3 11 -10 29 -16 41 -6 12 -8 36 -4 55 6 36
11 75 21 158 3 30 11 69 17 87 11 31 13 31 92 37 45 3 110 9 146 12 71 7 170
-11 183 -33 12 -19 31 -16 54 10 18 19 21 40 27 162 3 77 8 149 11 160 6 19
15 20 158 20 84 0 175 2 203 6 79 8 94 -1 94 -58 0 -56 11 -78 34 -70 12 5 16
20 16 61 0 30 5 58 11 62 6 4 8 17 3 33 -7 28 -6 175 2 203 3 9 17 18 31 20
36 4 40 25 9 39 -20 9 -29 9 -41 -1 -11 -9 -66 -12 -222 -9 -219 3 -266 -2
-261 -30 2 -9 12 -15 23 -14 11 1 109 5 219 9 l199 7 -6 -34 c-3 -19 -9 -64
-13 -102 -3 -37 -11 -70 -16 -73 -13 -8 -415 -7 -428 1 -6 4 -9 14 -6 23 3 10
7 60 10 112 3 52 8 136 11 185 3 50 2 124 -2 165 l-8 75 -68 11 c-43 7 -83 8
-105 3 -21 -5 -118 -9 -217 -9 -99 -1 -196 -2 -215 -3 l-35 -2 3 125 c1 68 6
128 11 133 4 4 41 9 82 10 67 2 74 4 74 22 0 19 -8 20 -115 23 -63 2 -118 1
-121 -2z m35 -83 c-3 -27 -9 -60 -14 -74 -4 -14 -7 -56 -6 -93 l1 -66 -31 -6
c-45 -8 -99 -1 -98 14 1 6 2 68 3 136 l1 125 28 4 c15 2 48 5 74 6 l48 1 -6
-47z m602 -270 c18 -11 21 -22 23 -97 l1 -84 -97 -7 c-118 -9 -511 -10 -608
-2 -39 4 -90 13 -114 22 -48 16 -93 11 -84 -10 5 -15 118 -55 153 -55 16 0 21
-5 18 -22 -3 -21 -8 -23 -53 -20 -27 2 -61 -1 -75 -7 -21 -8 -15 -10 37 -10
79 -1 91 -6 86 -35 -4 -21 -11 -23 -71 -25 -37 -1 -71 -6 -76 -12 -12 -11 -9
-12 75 -9 66 2 66 1 62 -23 -4 -22 -11 -25 -65 -31 -95 -10 -109 -28 -15 -20
73 6 77 5 77 -14 0 -21 -24 -32 -72 -32 -16 0 -28 -5 -28 -11 0 -8 16 -10 51
-6 43 5 50 4 45 -9 -3 -9 -6 -20 -6 -26 0 -5 -19 -9 -42 -8 -76 3 -108 0 -108
-10 0 -5 33 -10 73 -12 64 -3 72 -5 72 -23 0 -18 -8 -20 -73 -23 -52 -2 -72
-6 -69 -15 3 -8 27 -12 70 -11 50 0 67 -3 67 -13 0 -9 -18 -13 -69 -13 -39 0
-73 -4 -76 -10 -6 -10 17 -13 98 -10 37 1 47 -2 47 -14 0 -13 -15 -16 -95 -16
-55 0 -95 -4 -95 -10 0 -15 43 -22 111 -17 50 3 66 1 75 -12 10 -13 15 -13 27
-2 12 9 45 11 129 7 62 -3 201 -8 308 -12 107 -4 206 -7 220 -8 18 -1 25 4 25
17 0 17 -11 19 -135 21 -293 5 -279 4 -274 24 3 9 8 58 12 107 l7 90 219 0
219 0 -7 -75 c-4 -41 -9 -86 -10 -100 -2 -14 -4 -53 -5 -87 -1 -73 -12 -81
-86 -62 -36 9 -73 9 -159 0 -61 -6 -142 -13 -181 -16 -38 -2 -113 -7 -165 -11
-52 -4 -196 -3 -320 1 l-225 7 2 67 c4 127 23 231 44 231 5 0 9 9 9 20 0 11
-7 20 -15 20 -18 0 -18 6 -4 130 6 52 11 102 10 110 0 8 5 72 11 142 9 102 14
127 27 130 23 6 269 0 279 -6 5 -3 37 -1 73 5 35 5 118 12 183 14 66 3 121 7
122 8 2 1 90 2 196 2 132 0 200 -4 214 -12z m19 -224 c4 -6 4 -35 0 -64 l-6
-53 -87 -8 c-48 -5 -103 -8 -122 -7 -137 3 -169 6 -197 15 -32 9 -33 11 -27
51 4 23 8 43 9 45 2 2 67 5 146 8 117 4 220 13 271 23 4 0 10 -4 13 -10z
m-471 -17 c15 -24 -17 -34 -118 -39 -88 -5 -106 -3 -106 9 0 8 4 18 10 24 11
11 207 17 214 6z m-11 -115 c-3 -29 -8 -54 -10 -57 -3 -3 -54 -7 -114 -8 -100
-4 -109 -2 -109 15 0 38 13 43 118 44 56 0 102 5 102 10 0 5 -47 9 -105 9 -97
0 -105 1 -105 19 0 18 8 20 114 20 l115 0 -6 -52z m-1085 31 c8 -8 52 -13 125
-14 61 0 128 -4 148 -8 20 -4 53 -3 74 3 l37 10 -7 -77 c-8 -106 -10 -109 -53
-114 -63 -8 -250 -10 -307 -3 l-55 7 0 73 c0 77 8 135 19 135 4 0 12 -5 19
-12z m1540 -64 c20 -6 23 -12 20 -48 l-3 -41 -212 0 c-116 0 -214 2 -217 6 -3
3 -2 18 2 33 7 27 10 28 87 33 44 2 117 5 162 6 45 2 85 6 89 10 9 9 41 9 72
1z m-459 -70 c13 -12 -20 -17 -119 -18 -100 -1 -110 1 -110 17 0 17 8 18 113
11 61 -4 114 -8 116 -10z m-23 -54 c52 -20 11 -34 -99 -35 -98 0 -102 1 -105
23 -3 21 -1 22 87 22 49 0 102 -5 117 -10z m14 -80 c0 -19 -6 -20 -115 -20
-63 0 -115 2 -115 4 0 22 37 31 128 34 97 3 102 2 102 -18z m-11 -56 c10 -9
-9 -12 -112 -17 -82 -5 -107 -3 -104 6 2 7 17 15 33 18 28 6 175 0 183 -7z m8
-63 c10 -14 3 -16 -70 -19 -136 -5 -220 25 -110 39 72 9 166 -1 180 -20z m-7
-194 c0 -2 -7 -17 -15 -34 -8 -16 -18 -52 -21 -79 -3 -27 -12 -91 -21 -142
-14 -85 -14 -94 0 -110 16 -17 12 -18 -80 -14 -65 3 -102 9 -111 18 -12 12
-12 38 -2 162 6 81 13 157 16 169 4 24 -6 22 192 31 23 1 42 0 42 -1z"/>
</g>
</svg>
