<?xml version="1.0" standalone="no"?>
<!DOCTYPE svg PUBLIC "-//W3C//DTD SVG 20010904//EN"
 "http://www.w3.org/TR/2001/REC-SVG-20010904/DTD/svg10.dtd">
<svg version="1.0" xmlns="http://www.w3.org/2000/svg"
 width="293.000000pt" height="135.000000pt" viewBox="0 0 293.000000 135.000000"
 preserveAspectRatio="xMidYMid meet">
<metadata>
Created by potrace 1.16, written by Peter Selinger 2001-2019
</metadata>
<g transform="translate(0.000000,135.000000) scale(0.100000,-0.100000)"
fill="#000000" stroke="none">
<path d="M1537 1184 c-12 -14 -36 -51 -53 -82 l-31 -57 -47 1 c-26 1 -62 5
-81 8 -18 4 -36 3 -39 -2 -3 -5 1 -49 9 -98 8 -49 15 -108 15 -132 0 -36 -4
-44 -26 -52 -23 -9 -308 -7 -704 4 -188 6 -328 36 -382 83 -42 37 -65 -7 -74
-137 -6 -77 -4 -91 10 -96 9 -3 27 1 41 10 23 15 25 15 25 -1 0 -10 -8 -23
-19 -30 -15 -9 -17 -19 -12 -50 4 -21 4 -56 0 -78 -5 -22 -8 -62 -8 -88 -1
-52 13 -66 47 -48 16 8 21 7 26 -4 3 -8 15 -15 26 -15 18 0 19 2 8 21 -11 18
-10 23 12 41 l25 20 7 -72 c9 -81 9 -82 25 -72 7 4 14 43 17 87 6 74 17 107
32 92 4 -3 6 -41 5 -82 -2 -72 -1 -76 17 -66 15 8 21 26 26 83 4 40 10 76 15
81 17 17 18 -9 3 -70 -8 -33 -12 -73 -8 -87 7 -29 39 -37 35 -8 -2 15 14 109
27 155 3 9 12 17 21 17 14 0 15 -10 9 -72 -3 -40 -7 -84 -9 -98 -1 -16 4 -26
14 -28 17 -3 24 21 37 138 7 54 8 55 41 58 l33 3 -7 -96 c-7 -91 -6 -97 11
-93 13 2 21 15 25 43 5 33 6 35 8 11 1 -33 22 -96 31 -96 3 0 7 15 7 33 2 42
20 178 25 182 4 4 73 5 339 6 l197 0 6 -33 c3 -18 -1 -64 -9 -103 -14 -66 -12
-135 5 -135 11 0 30 -48 30 -76 0 -17 5 -24 14 -22 24 5 207 190 202 204 -3 8
22 19 77 34 73 19 127 37 262 87 22 8 52 12 67 9 20 -4 30 -1 37 13 6 10 32
26 58 36 26 10 74 31 105 47 l57 30 28 -21 c51 -37 190 -193 280 -313 38 -52
57 -46 58 17 1 28 6 82 13 121 8 50 9 96 2 155 -6 54 -6 87 0 93 6 6 10 16 10
23 0 14 42 80 115 181 25 34 45 65 45 68 0 3 -47 4 -104 1 -82 -4 -108 -2
-125 9 -12 9 -26 12 -31 9 -17 -10 -11 -39 10 -53 15 -9 20 -23 20 -53 0 -22
5 -71 12 -110 8 -51 8 -76 0 -94 -8 -18 -8 -26 0 -31 15 -9 3 -243 -13 -258
-8 -8 -19 -1 -42 28 -18 21 -54 63 -81 94 -48 54 -48 56 -43 111 2 32 14 72
27 94 25 42 20 60 -8 34 -24 -22 -23 -22 -67 13 -21 17 -44 30 -52 30 -15 0
-58 28 -110 72 -18 15 -64 45 -102 68 -39 22 -97 63 -128 91 -32 28 -81 67
-110 86 -29 19 -55 43 -58 53 -5 15 -66 75 -137 135 -26 22 -45 19 -71 -11z
m15 -84 c5 0 12 9 15 20 3 11 8 20 12 20 3 0 35 -28 71 -63 36 -35 83 -74 105
-87 39 -23 111 -80 101 -80 -9 0 -94 47 -125 69 -16 12 -33 21 -38 20 -4 -1
-16 1 -25 5 -9 4 -49 6 -88 4 -56 -2 -69 0 -65 11 3 7 1 19 -5 26 -7 8 -4 25
8 53 13 31 18 36 20 22 2 -11 8 -20 14 -20z m-107 -107 c-10 -24 -41 -149 -49
-195 -5 -29 -12 -38 -27 -38 -25 0 -26 4 -33 132 -7 120 -12 113 78 117 33 1
37 -1 31 -16z m253 -31 c29 -11 62 -28 75 -38 35 -31 99 -70 137 -84 88 -32
113 -46 194 -112 19 -16 41 -28 49 -28 8 0 34 -21 56 -46 35 -40 43 -45 56
-34 11 9 19 10 26 3 12 -12 -25 -43 -52 -43 -10 0 -57 -20 -106 -45 -48 -25
-103 -48 -120 -51 -32 -6 -33 -5 -33 28 0 19 6 40 12 46 10 10 10 15 -2 22
-13 8 -13 11 -1 22 10 10 12 10 7 1 -4 -7 -3 -13 1 -13 5 0 26 23 46 50 l37
50 -78 0 c-86 0 -105 7 -206 72 -33 21 -65 38 -71 38 -18 0 -74 59 -92 98 -9
18 -23 32 -33 32 -20 0 -114 -103 -124 -137 -6 -20 -3 -22 36 -26 41 -3 41 -4
-10 -5 l-54 -2 7 -40 c10 -57 7 -210 -4 -245 -5 -16 -10 -22 -10 -12 -1 23
-24 22 -46 -3 -18 -19 -17 -22 13 -80 18 -33 32 -64 32 -69 0 -8 -94 -51 -112
-51 -5 0 -7 8 -4 18 2 9 7 52 11 95 4 48 11 77 18 77 8 0 12 19 12 52 1 48 51
271 93 408 15 48 21 56 47 61 60 13 141 9 193 -9z m-89 -102 c13 -31 69 -90
84 -90 12 0 68 -27 112 -55 22 -13 52 -24 67 -25 15 0 39 -5 53 -12 20 -9 25
-18 25 -49 0 -21 -5 -41 -11 -45 -8 -5 -8 -9 1 -14 7 -4 10 -25 8 -53 l-3 -45
-29 24 c-27 24 -28 27 -16 67 24 84 26 81 -80 88 -52 3 -108 11 -124 18 -18 7
-33 8 -38 3 -12 -12 1 -82 16 -82 6 0 40 9 76 20 36 11 81 20 100 20 l35 0
-35 -30 c-56 -48 -167 -120 -185 -120 -9 0 -24 -4 -33 -9 -9 -4 -47 -11 -83
-15 l-66 -6 7 40 c4 23 16 51 27 63 11 12 25 40 32 62 6 22 22 60 34 85 22 45
22 45 70 42 26 -2 47 1 47 6 0 11 -93 42 -125 42 -30 0 -55 10 -55 21 0 10 60
79 69 79 3 0 12 -14 20 -30z m1071 -47 c-11 -16 -31 -44 -44 -63 -13 -19 -32
-43 -43 -53 -20 -17 -20 -17 -27 20 -3 21 -6 55 -6 75 0 40 3 41 108 46 l34 2
-22 -27z m-2385 -33 c182 -35 180 -35 149 -61 -9 -7 -30 -37 -46 -67 -17 -29
-32 -52 -33 -50 -2 2 -5 30 -6 63 -2 41 1 60 9 61 7 1 19 2 28 3 24 2 8 18
-25 24 -35 7 -127 -22 -173 -54 l-31 -22 7 48 c11 72 15 78 45 70 14 -3 49
-10 76 -15z m345 -37 c0 -2 -15 -23 -34 -46 -18 -23 -43 -61 -55 -84 -19 -38
-41 -57 -41 -35 0 28 25 85 50 117 38 48 30 59 -13 17 -18 -18 -38 -32 -44
-32 -6 0 -14 -15 -17 -34 -4 -19 -15 -45 -26 -58 l-19 -23 -1 56 c0 45 5 62
29 95 l29 39 71 -3 c39 -2 71 -6 71 -9z m90 2 c0 -2 -25 -41 -55 -85 -55 -81
-68 -120 -40 -120 8 0 15 5 15 12 0 6 3 9 6 5 3 -3 3 -19 -1 -36 -5 -25 -12
-31 -34 -31 l-27 0 4 72 c3 74 15 100 70 161 22 23 62 38 62 22z m103 -17
c-11 -13 -30 -42 -42 -65 -31 -61 -41 -62 -41 -3 0 73 12 90 62 90 l41 0 -20
-22z m547 4 c0 -3 -10 -47 -22 -96 -17 -69 -24 -85 -28 -66 -4 14 -5 39 -3 55
2 17 6 50 8 75 2 25 4 46 5 47 1 4 40 -10 40 -15z m-80 -26 c0 -17 -3 -75 -7
-128 l-6 -98 -122 0 c-67 0 -183 3 -258 7 -128 6 -136 7 -139 27 -5 26 10 73
32 106 10 14 29 46 44 72 l26 47 215 0 215 -1 0 -32z m267 22 c-3 -7 -15 -38
-27 -68 -12 -30 -26 -64 -30 -75 -6 -14 -9 -5 -9 33 -1 28 -1 53 0 55 0 1 -4
14 -10 29 -10 26 -9 27 27 31 20 2 41 4 46 5 4 1 6 -4 3 -10z m-1252 -25 c-4
-10 -10 -26 -12 -35 -3 -10 -9 -18 -13 -18 -5 0 -11 -13 -15 -30 -9 -41 -22
-38 -34 8 -15 51 -15 50 22 72 41 25 62 26 52 3z m1710 -43 c-3 -5 -15 -15
-26 -20 -16 -9 -19 -7 -19 10 0 15 7 20 26 20 14 0 22 -4 19 -10z m-1305 -53
c0 -24 -6 -52 -14 -62 -13 -18 -14 -14 -9 30 2 28 6 56 8 63 8 25 15 11 15
-31z m1005 22 c-29 -11 -35 -10 -35 5 0 9 8 12 27 8 25 -5 25 -6 8 -13z
m-1405 -58 c0 -35 -8 -42 -38 -34 -27 7 -28 19 -2 26 11 3 20 12 20 21 0 9 5
16 10 16 6 0 10 -13 10 -29z m1997 -19 l-13 -42 -21 22 -22 22 31 23 c17 12
33 22 34 20 2 -2 -2 -22 -9 -45z m-454 0 c-6 -24 -18 -28 -28 -11 -4 6 1 16
11 24 23 16 25 15 17 -13z m-1463 -17 c0 -27 -12 -32 -29 -12 -8 10 -7 17 1
25 19 19 28 14 28 -13z m70 -6 c0 -20 -4 -29 -12 -27 -18 6 -22 39 -6 49 18
12 18 12 18 -22z m88 -6 c-2 -20 -9 -29 -25 -31 -20 -3 -23 1 -23 27 0 27 4
31 26 31 22 0 25 -4 22 -27z m1275 -23 c16 -19 35 -30 51 -30 52 0 32 -18 -57
-52 -136 -52 -216 -76 -220 -65 -2 7 -15 6 -37 -1 -58 -21 -63 -15 -28 32 27
36 44 48 94 65 34 11 83 33 110 50 27 16 52 30 56 30 3 1 18 -12 31 -29z
m-1103 5 c0 -8 -7 -15 -15 -15 -26 0 -18 20 13 29 1 1 2 -6 2 -14z m-423 -9
c1 0 4 -13 8 -28 6 -23 2 -29 -23 -42 -35 -18 -39 -12 -34 45 4 35 7 39 26 33
11 -4 22 -7 23 -8z m80 -22 c-3 -3 -12 -4 -19 -1 -8 3 -5 6 6 6 11 1 17 -2 13
-5z m319 -56 c-6 -23 -12 -34 -14 -24 -5 23 6 66 17 66 4 0 3 -19 -3 -42z
m823 -5 c-7 -10 -22 -28 -33 -41 l-20 -22 -18 27 c-21 33 -23 44 -5 37 7 -2
24 0 38 5 41 16 54 14 38 -6z m2 -99 c-18 -8 -38 -13 -45 -11 -6 3 5 9 24 15
50 15 60 13 21 -4z m-21 -39 c-7 -8 -20 -15 -30 -15 -10 0 -23 -13 -30 -29 -6
-16 -29 -43 -51 -61 l-39 -31 -15 35 c-24 58 -22 61 73 89 105 31 108 31 92
12z"/>
</g>
</svg>
