<?xml version="1.0" standalone="no"?>
<!DOCTYPE svg PUBLIC "-//W3C//DTD SVG 20010904//EN"
 "http://www.w3.org/TR/2001/REC-SVG-20010904/DTD/svg10.dtd">
<svg version="1.0" xmlns="http://www.w3.org/2000/svg"
 width="129.000000pt" height="93.000000pt" viewBox="0 0 129.000000 93.000000"
 preserveAspectRatio="xMidYMid meet">
<metadata>
Created by potrace 1.16, written by Peter Selinger 2001-2019
</metadata>
<g transform="translate(0.000000,93.000000) scale(0.100000,-0.100000)"
fill="#000000" stroke="none">
<path d="M160 789 c-6 -11 -10 -52 -9 -92 l2 -72 -29 -5 c-39 -7 -33 -24 10
-28 l35 -3 5 -62 c3 -34 7 -99 10 -144 4 -73 2 -82 -15 -86 -10 -3 -19 -1 -19
4 0 14 -27 11 -32 -3 -2 -7 -4 -62 -3 -123 0 -102 1 -110 20 -113 12 -1 36 13
60 35 80 75 156 123 197 123 l38 0 0 -56 c0 -40 4 -55 13 -52 6 3 13 18 15 34
1 16 5 39 8 52 l5 24 227 -7 c337 -10 430 -11 439 -2 4 5 8 45 9 90 0 45 5
120 9 167 5 47 8 93 6 102 -2 17 33 91 68 143 35 50 29 65 -27 65 -26 0 -53 5
-58 10 -7 7 -19 8 -37 1 -27 -10 -35 -26 -18 -33 4 -1 11 -31 15 -65 8 -70 15
-64 -71 -67 -40 -1 -63 -11 -63 -27 0 -5 9 -9 20 -9 17 0 20 -7 20 -40 l0 -41
-37 6 c-60 10 -63 13 -63 49 0 29 -4 34 -27 39 -36 7 -42 0 -51 -54 -5 -29
-13 -44 -22 -44 -12 0 -15 14 -15 60 0 47 -3 60 -15 60 -9 0 -20 -19 -29 -53
-17 -63 -36 -63 -36 -1 0 32 -4 44 -15 44 -10 0 -14 -8 -12 -27 5 -40 -4 -49
-35 -33 -30 16 -50 6 -55 -27 -4 -27 -69 -49 -132 -44 -27 2 -58 1 -68 -2 -26
-6 -22 -32 5 -32 20 0 23 -5 24 -47 1 -27 5 -69 9 -95 l6 -47 -79 6 c-113 8
-123 14 -124 65 -2 119 3 150 31 197 49 80 49 95 0 92 -8 0 8 11 35 24 28 14
56 25 63 25 17 0 15 19 -3 27 -14 5 -65 -11 -137 -42 -15 -6 -17 -1 -15 43 2
41 5 49 17 42 28 -15 185 -40 255 -40 39 0 96 3 128 8 68 10 267 5 317 -8 52
-14 140 -18 146 -8 20 32 -44 39 -396 43 -274 3 -382 16 -444 55 -42 25 -62
25 -76 -1z m1034 -47 c2 -4 -7 -25 -20 -47 -13 -22 -24 -38 -24 -35 -1 3 -3
24 -6 48 -6 40 -5 42 19 42 14 0 28 -3 31 -8z m-944 -161 c0 -5 -3 -17 -6 -25
-6 -15 -8 -15 -20 1 -19 25 -17 33 6 33 11 0 20 -4 20 -9z m619 -85 c-9 -8
-10 -2 -5 29 3 22 7 47 8 55 1 8 3 -5 5 -29 3 -26 -1 -48 -8 -55z m201 90 c0
-2 -7 -9 -15 -16 -12 -10 -15 -10 -15 4 0 9 7 16 15 16 8 0 15 -2 15 -4z m43
-48 c-2 -24 -8 -76 -15 -115 -8 -56 -8 -83 2 -118 7 -25 11 -47 9 -50 -2 -2
-31 -7 -64 -10 -33 -4 -62 -9 -65 -10 -3 -2 -23 6 -45 16 -24 12 -41 15 -43 9
-4 -11 -320 -14 -382 -4 -29 5 -36 11 -38 30 -2 25 70 147 103 174 16 14 17
13 11 -16 -9 -43 14 -62 46 -40 12 9 25 16 29 16 3 0 2 -27 -3 -61 -10 -64 -8
-75 15 -66 10 4 17 30 22 81 4 42 10 78 14 80 16 10 27 -12 27 -52 -1 -56 26
-82 56 -55 16 15 17 18 3 39 -21 33 -20 76 3 72 14 -3 17 -14 16 -63 -2 -56 9
-81 28 -69 4 3 8 34 8 70 0 48 3 64 14 64 21 0 26 -23 15 -70 -11 -47 -9 -53
14 -44 10 4 18 24 23 60 7 64 23 83 58 77 25 -5 25 -6 19 -82 -4 -62 -3 -79
10 -89 23 -19 31 0 32 83 1 60 6 79 34 128 18 31 36 57 39 57 4 0 6 -19 5 -42z
m-458 -57 c3 -5 1 -12 -5 -16 -5 -3 -10 1 -10 9 0 18 6 21 15 7z m-147 -38
c-33 -68 -48 -82 -48 -44 0 11 -3 26 -6 35 -5 13 1 16 26 16 17 0 30 -3 28 -7z
m-323 -231 c-4 -29 -3 -47 4 -52 8 -4 5 -13 -9 -25 -20 -18 -20 -17 -19 58 1
63 3 75 16 70 12 -5 13 -16 8 -51z m110 8 c-4 -6 -24 -19 -45 -30 l-39 -20 11
30 c8 26 15 30 45 30 20 0 32 -4 28 -10z"/>
</g>
</svg>
