<?xml version="1.0" standalone="no"?>
<!DOCTYPE svg PUBLIC "-//W3C//DTD SVG 20010904//EN"
 "http://www.w3.org/TR/2001/REC-SVG-20010904/DTD/svg10.dtd">
<svg version="1.0" xmlns="http://www.w3.org/2000/svg"
 width="201.000000pt" height="163.000000pt" viewBox="0 0 201.000000 163.000000"
 preserveAspectRatio="xMidYMid meet">
<metadata>
Created by potrace 1.16, written by Peter Selinger 2001-2019
</metadata>
<g transform="translate(0.000000,163.000000) scale(0.100000,-0.100000)"
fill="#000000" stroke="none">
<path d="M985 1468 c-16 -6 -39 -14 -51 -18 -32 -12 -48 -84 -39 -174 9 -105
5 -114 -58 -120 -184 -20 -401 -11 -482 18 -52 20 -109 20 -125 1 -12 -15 -11
-43 6 -147 5 -31 3 -38 -10 -38 -17 0 -17 5 -22 -235 -1 -66 -8 -147 -16 -180
-7 -33 -12 -68 -10 -78 7 -33 27 -11 40 44 8 30 19 59 25 66 22 22 162 62 364
102 111 23 213 45 228 51 14 5 28 10 29 10 2 0 1 -35 -1 -77 -8 -173 -10 -435
-4 -466 9 -40 32 -45 63 -13 37 40 69 46 243 45 90 0 190 5 222 11 40 8 85 9
143 2 55 -6 87 -5 91 1 5 6 18 6 39 -2 24 -8 37 -8 46 0 20 16 10 26 -34 33
l-38 6 7 59 c3 32 7 103 8 157 1 53 4 100 6 103 2 4 7 60 10 126 4 66 9 123
11 126 1 3 4 52 5 110 1 68 6 114 16 132 8 16 16 39 18 50 18 98 41 178 59
209 20 35 19 57 -2 44 -13 -8 -43 -73 -58 -126 l-12 -45 -1 50 c-2 63 -10 97
-25 92 -6 -2 -10 -16 -8 -30 4 -36 -25 -37 -34 -2 -9 37 9 51 67 53 48 1 68
11 69 35 0 4 -15 6 -32 3 -93 -16 -561 -3 -693 18 -16 2 -43 0 -60 -6z m231
-48 c6 0 9 -13 6 -30 -3 -24 -9 -30 -28 -30 -37 0 -39 2 -36 24 3 21 2 21 -17
-1 -12 -15 -31 -23 -49 -23 -24 0 -32 5 -35 23 l-4 22 -8 -22 c-4 -13 -16 -23
-26 -23 -23 0 -23 3 -3 42 l16 30 86 -5 c48 -4 92 -7 98 -7z m110 -3 c1 -1 -1
-17 -3 -35 -5 -29 -9 -33 -27 -28 -11 3 -28 6 -37 6 -12 0 -15 7 -11 28 6 34
20 44 52 36 14 -3 26 -6 26 -7z m-359 -24 c-28 -145 -47 -176 -47 -79 0 73 11
106 36 106 12 0 15 -7 11 -27z m640 -13 c-1 -31 -6 -40 -20 -40 -14 0 -16 5
-11 25 3 14 3 25 -1 25 -4 0 -16 -11 -27 -25 -32 -41 -66 -28 -54 20 5 21 13
24 59 28 28 2 53 4 54 5 2 1 2 -16 0 -38z m-138 0 c-10 -28 -15 -30 -59 -30
-50 0 -61 9 -52 43 3 14 16 17 63 17 l58 0 -10 -30z m-354 -91 c-4 -47 -4 -46
-30 -51 -17 -3 -20 3 -23 44 -3 42 -1 47 20 50 34 6 38 1 33 -43z m95 -3 c0
-52 -1 -53 -27 -51 -16 1 -32 3 -36 3 -5 1 -7 21 -5 44 3 41 14 51 61 57 4 1
7 -23 7 -53z m-179 36 c1 -4 3 -24 4 -44 2 -35 0 -38 -26 -38 -35 0 -40 8 -33
51 5 28 11 35 30 37 13 1 25 -2 25 -6z m289 -42 l0 -50 -40 0 -40 0 0 50 0 50
40 0 40 0 0 -50z m131 34 c1 -8 1 -23 1 -34 0 -49 0 -50 -52 -50 -54 0 -57 4
-44 68 6 28 9 30 50 30 31 0 44 -4 45 -14z m77 -41 c-3 -41 -6 -48 -26 -51
-21 -3 -22 -1 -18 45 5 59 2 53 27 53 18 0 20 -5 17 -47z m80 -6 c3 -46 3 -47
-27 -47 -29 0 -29 1 -24 43 10 73 46 76 51 4z m62 -2 c0 -35 -3 -43 -15 -39
-10 4 -15 20 -15 45 0 28 4 39 15 39 11 0 15 -12 15 -45z m-640 -75 c0 -11 -3
-20 -7 -21 -5 0 -18 -2 -31 -3 -26 -3 -36 8 -28 29 3 9 18 15 36 15 23 0 30
-4 30 -20z m80 0 c0 -16 -7 -20 -30 -20 -23 0 -30 4 -30 20 0 16 7 20 30 20
23 0 30 -4 30 -20z m100 -6 c0 -22 -3 -25 -22 -20 -13 3 -29 6 -35 6 -7 0 -13
9 -13 20 0 16 7 20 35 20 31 0 35 -3 35 -26z m100 -19 l0 -45 -40 0 c-43 0
-45 3 -34 59 6 27 10 31 40 31 34 0 34 -1 34 -45z m131 29 c3 -1 3 -19 1 -38
-4 -36 -4 -36 -53 -36 -44 0 -49 2 -49 23 0 12 3 32 6 45 6 21 11 23 48 16 22
-3 44 -8 47 -10z m225 -60 c-4 -15 -11 -21 -21 -18 -21 8 -19 64 3 80 15 11
17 10 20 -13 2 -14 1 -36 -2 -49z m-146 26 c0 -36 -2 -40 -25 -40 -27 0 -28 2
-19 49 5 21 12 31 25 31 15 0 19 -8 19 -40z m90 20 c0 -4 -3 -22 -6 -39 -5
-25 -11 -31 -28 -29 -21 3 -34 43 -23 73 6 13 57 9 57 -5z m-504 -43 c2 -13
-5 -17 -27 -17 -32 0 -41 25 -11 33 26 7 35 3 38 -16z m-756 -3 c23 -9 68 -17
101 -18 32 0 59 -3 59 -6 0 -3 -20 -11 -45 -18 -25 -6 -68 -23 -97 -37 -29
-14 -58 -23 -65 -21 -15 6 -18 116 -3 116 5 0 28 -7 50 -16z m678 4 c-7 -20
-64 -22 -71 -4 -5 13 2 16 34 16 28 0 39 -4 37 -12z m170 -5 c2 -9 -8 -13 -32
-13 -26 0 -36 4 -36 16 0 19 61 16 68 -3z m-308 -69 c0 -41 -4 -54 -15 -54
-18 0 -20 -16 -2 -27 9 -6 12 -32 9 -97 l-4 -89 -72 7 c-39 3 -100 1 -136 -4
-36 -5 -132 -12 -215 -16 -149 -7 -192 -15 -179 -36 8 -12 302 -3 366 11 20 5
40 6 43 3 3 -3 -63 -20 -147 -38 -168 -35 -261 -58 -277 -68 -17 -11 -3 108
21 188 33 105 71 155 148 193 65 31 160 60 235 69 72 10 210 20 218 16 4 -2 7
-28 7 -58z m134 4 c-3 -72 -1 -69 -46 -66 l-43 3 -3 48 -3 47 48 -2 c45 -3 48
-5 47 -30z m74 -20 c3 -47 3 -48 -27 -48 -29 0 -31 3 -31 34 0 50 9 68 34 64
17 -2 22 -11 24 -50z m95 10 c-7 -65 -10 -69 -40 -65 -25 3 -28 8 -28 42 -1
43 16 65 50 65 21 0 23 -3 18 -42z m110 30 c-2 -5 -3 -28 -3 -53 l0 -45 -46 0
-46 0 7 48 c4 26 9 50 11 53 5 9 79 5 77 -3z m137 -12 c0 -13 -3 -38 -6 -55
-6 -30 -9 -31 -55 -31 -54 0 -57 7 -43 77 6 29 9 30 55 32 45 1 49 -1 49 -23z
m64 18 c16 -6 21 -41 10 -81 -4 -16 -14 -23 -29 -23 -21 0 -23 4 -19 43 7 68
10 72 38 61z m94 -51 c-3 -44 -5 -48 -31 -51 -27 -3 -28 -2 -23 35 2 21 5 44
5 51 1 6 12 12 27 12 24 0 25 -2 22 -47z m54 -5 c-3 -35 -7 -45 -18 -41 -22 8
-19 80 4 85 9 3 17 4 18 4 0 -1 -1 -22 -4 -48z m-634 -100 l3 -38 -40 0 c-50
0 -54 -17 -6 -26 31 -5 35 -10 35 -36 0 -29 -1 -30 -37 -23 -21 4 -39 8 -40 8
-2 3 -6 119 -4 139 1 13 10 16 44 15 41 -2 42 -3 45 -39z m75 30 c-2 -5 -3
-21 -3 -38 0 -27 -3 -30 -31 -30 -28 0 -31 3 -25 23 3 12 6 29 6 37 0 11 9 16
28 15 15 0 26 -3 25 -7z m-823 -49 c-18 -41 -20 -42 -20 -15 0 16 7 38 17 48
24 27 26 16 3 -33z m910 11 c0 -38 -2 -40 -30 -40 -28 0 -30 2 -30 40 0 38 2
40 30 40 28 0 30 -2 30 -40z m110 0 l0 -40 -42 0 -43 0 2 37 c1 21 2 39 2 41
1 1 19 2 41 2 l40 0 0 -40z m136 18 c-3 -13 -6 -31 -6 -40 0 -15 -9 -18 -50
-18 -46 0 -50 2 -50 24 0 48 9 56 62 56 47 0 50 -1 44 -22z m84 -5 c0 -37 -13
-56 -36 -51 -13 3 -18 11 -16 28 4 40 10 50 32 50 15 0 20 -6 20 -27z m90 -16
l0 -43 -35 4 c-38 4 -38 5 -29 49 5 23 11 29 35 31 28 2 29 1 29 -41z m50 14
c0 -16 -3 -36 -6 -45 -11 -29 -22 -17 -19 22 4 52 4 52 15 52 6 0 10 -13 10
-29z m-563 -98 c1 -30 -1 -33 -28 -33 -25 0 -29 4 -29 28 0 35 4 40 33 38 18
-1 22 -7 24 -33z m91 0 c-2 -23 -8 -29 -35 -31 -29 -3 -33 0 -33 21 0 31 7 37
42 37 26 0 29 -3 26 -27z m110 -5 c3 -27 2 -28 -42 -28 -45 0 -46 1 -46 31 0
29 1 30 43 27 38 -3 42 -6 45 -30z m132 13 c0 -11 3 -26 6 -35 5 -13 -1 -16
-27 -16 -60 0 -79 10 -79 39 0 25 3 27 50 29 43 2 50 -1 50 -17z m80 -14 c0
-38 -6 -48 -26 -40 -14 5 -20 54 -7 66 17 18 33 5 33 -26z m91 7 c13 -16 14
-42 3 -116 -5 -34 -9 -38 -35 -38 -26 0 -29 3 -29 34 0 22 6 36 16 40 16 6 16
8 0 24 -9 10 -16 31 -16 45 0 22 5 27 24 27 13 0 30 -7 37 -16z m49 -4 c0 -5
-5 -10 -11 -10 -5 0 -7 5 -4 10 3 6 8 10 11 10 2 0 4 -4 4 -10z m-636 -65 c9
-24 -11 -65 -33 -65 -55 0 -68 34 -23 62 35 21 48 22 56 3z m86 -14 c0 -37
-14 -53 -41 -49 -16 2 -25 11 -27 26 -5 37 4 49 37 49 27 0 31 -4 31 -26z m80
-11 c0 -38 -2 -40 -30 -40 -27 0 -30 3 -30 33 0 40 6 47 37 47 20 0 23 -5 23
-40z m110 8 c0 -46 -12 -60 -46 -56 -26 3 -29 7 -32 46 l-3 42 40 0 c40 0 41
-1 41 -32z m138 -25 l3 -43 -55 0 -56 0 0 44 c0 50 6 54 64 46 40 -5 41 -6 44
-47z m-681 31 c-3 -3 -12 -4 -19 -1 -8 3 -5 6 6 6 11 1 17 -2 13 -5z m761 -31
c-2 -31 -7 -39 -25 -41 -19 -3 -23 1 -23 21 0 39 10 57 32 57 16 0 19 -6 16
-37z m126 -55 c-4 -46 -11 -87 -16 -93 -10 -10 -9 1 9 133 9 71 14 47 7 -40z
m-630 -10 c0 -10 -1 -36 -2 -59 -2 -39 -3 -40 -34 -37 -36 3 -45 24 -34 82 5
27 10 31 38 31 25 0 33 -4 32 -17z m88 -5 c2 -16 1 -45 -1 -65 -3 -34 -6 -38
-32 -38 -30 0 -31 2 -31 45 0 84 0 85 31 85 25 0 30 -4 33 -27z m85 -18 c-2
-19 -6 -37 -9 -41 -4 -4 -3 -15 3 -25 9 -17 6 -19 -24 -19 l-34 0 3 63 c2 34
3 62 3 63 1 0 14 -1 30 -4 27 -4 30 -8 28 -37z m90 27 c7 -4 11 -28 9 -57 -2
-49 -2 -50 -37 -53 l-35 -3 3 48 c2 26 5 54 8 61 5 13 33 16 52 4z m146 -51
c-1 -24 -4 -45 -6 -48 -7 -6 -85 -8 -92 -2 -3 3 -2 27 1 53 l7 47 46 -3 46 -3
-2 -44z m92 17 c-11 -48 -23 -68 -43 -68 -15 0 -17 7 -14 38 5 56 9 62 37 62
25 0 26 -2 20 -32z m85 13 c0 -5 -3 -23 -6 -40 -5 -24 -12 -31 -30 -31 -25 0
-29 14 -18 58 4 15 14 22 30 22 13 0 24 -4 24 -9z m-600 -132 c0 -10 -4 -21
-10 -24 -5 -3 -10 -16 -10 -28 0 -12 -10 -28 -22 -36 -20 -13 -21 -14 -4 -26
20 -15 19 -59 -1 -61 -7 -1 -18 -2 -24 -3 -21 -2 3 -21 27 -21 14 0 22 -4 19
-10 -10 -16 -44 -11 -54 8 -6 12 -6 33 -1 58 5 21 10 61 10 87 0 64 12 86 45
80 16 -4 25 -12 25 -24z m276 17 c0 0 -1 -20 -4 -43 -7 -67 -62 -62 -62 6 0
13 7 21 18 22 15 1 14 2 -2 6 -15 4 -16 7 -5 14 11 7 49 3 55 -5z m136 -41
c-2 -27 -4 -51 -6 -52 -2 -2 -22 -1 -44 3 -43 7 -57 27 -46 71 6 22 29 32 74
29 24 -1 25 -4 22 -51z m82 8 c-7 -56 -10 -63 -30 -63 -10 0 -14 13 -14 48 0
54 4 62 32 62 16 0 18 -6 12 -47z m86 40 c-1 -5 -7 -30 -14 -58 -9 -33 -19
-51 -31 -54 -16 -3 -17 3 -12 48 3 28 9 56 12 61 7 12 45 14 45 3z m-495 -45
c-9 -56 -11 -58 -46 -58 -33 0 -37 15 -18 69 9 25 16 31 41 31 29 0 30 0 23
-42z m91 -5 c-4 -46 -5 -47 -40 -51 l-35 -3 4 41 c6 53 11 60 45 60 29 0 29
-1 26 -47z m454 12 c0 -8 -5 -15 -11 -15 -8 0 -7 -5 1 -15 15 -18 2 -39 -16
-27 -7 5 -8 18 -2 40 9 32 28 44 28 17z m-560 -116 c0 -21 -6 -28 -26 -33 -30
-8 -29 -8 -38 21 -8 24 10 39 44 39 15 0 20 -7 20 -27z m105 1 c0 -21 -5 -26
-33 -28 -22 -2 -34 2 -38 12 -12 30 4 47 38 44 28 -2 33 -7 33 -28z m87 5 c6
-28 1 -35 -23 -35 -17 0 -33 36 -23 52 11 18 42 7 46 -17z m143 0 c0 -14 -9
-21 -30 -25 -41 -8 -65 -1 -65 19 0 27 11 32 55 29 32 -2 40 -7 40 -23z m71 4
c3 -6 1 -16 -5 -22 -9 -9 -14 -8 -21 3 -9 15 -4 30 10 30 5 0 12 -5 16 -11z
m69 -9 c0 -7 -6 -15 -12 -17 -8 -3 -13 4 -13 17 0 13 5 20 13 18 6 -3 12 -11
12 -18z m75 0 c0 -11 -4 -20 -9 -20 -11 0 -22 26 -14 34 12 12 23 5 23 -14z
m-220 -65 c11 -29 4 -35 -46 -35 -39 0 -44 2 -44 23 0 31 2 32 46 32 28 -1 39
-6 44 -20z m68 3 c-2 -16 -11 -24 -28 -26 -14 -2 -20 1 -14 5 6 4 13 16 17 26
9 25 29 21 25 -5z m97 6 c20 -13 28 -14 40 -4 20 17 32 5 15 -15 -14 -16 -76
-20 -99 -6 -15 10 -8 41 9 41 6 0 22 -7 35 -16z m-395 -18 c5 -13 15 -26 22
-29 7 -2 -25 -2 -72 0 -85 4 -108 12 -96 32 9 15 32 14 57 -1 17 -11 22 -10
30 5 15 25 48 21 59 -7z m90 0 c0 -16 -7 -27 -21 -31 -26 -9 -28 -6 -22 28 7
36 43 38 43 3z m-325 -55 c-3 -6 -11 -11 -17 -11 -6 0 -6 6 2 15 14 17 26 13
15 -4z"/>
<path d="M1105 320 c-3 -5 -1 -10 4 -10 6 0 11 5 11 10 0 6 -2 10 -4 10 -3 0
-8 -4 -11 -10z"/>
</g>
</svg>
