<?xml version="1.0" standalone="no"?>
<!DOCTYPE svg PUBLIC "-//W3C//DTD SVG 20010904//EN"
 "http://www.w3.org/TR/2001/REC-SVG-20010904/DTD/svg10.dtd">
<svg version="1.0" xmlns="http://www.w3.org/2000/svg"
 width="160.000000pt" height="124.000000pt" viewBox="0 0 160.000000 124.000000"
 preserveAspectRatio="xMidYMid meet">
<metadata>
Created by potrace 1.16, written by Peter Selinger 2001-2019
</metadata>
<g transform="translate(0.000000,124.000000) scale(0.100000,-0.100000)"
fill="#000000" stroke="none">
<path d="M310 1000 c-15 -29 -32 -232 -20 -244 6 -6 19 -5 35 2 29 14 95 16
95 4 0 -4 -15 -23 -34 -41 -32 -31 -53 -30 -40 2 5 15 -12 34 -22 24 -10 -10
-14 -346 -4 -352 16 -10 52 15 98 67 35 38 49 47 66 42 14 -3 27 1 35 10 14
17 77 22 83 7 2 -5 53 -4 118 1 63 5 143 6 178 3 l62 -7 0 -43 c0 -24 -4 -77
-10 -117 -10 -82 -1 -189 17 -195 7 -3 44 28 83 67 l72 71 71 -3 c71 -3 72 -4
75 -31 2 -16 10 -31 18 -34 33 -12 39 15 40 190 2 193 4 212 24 247 37 64 88
141 123 187 34 45 24 60 -30 42 -21 -7 -72 -12 -113 -12 -41 1 -83 0 -93 -3
-28 -8 -20 -22 16 -26 17 -2 -9 -7 -58 -11 -61 -6 -100 -5 -120 3 -41 16 -16
29 55 31 73 2 112 11 118 27 3 11 -22 12 -144 6 -82 -3 -160 -7 -174 -8 -14 0
-92 3 -175 7 -184 10 -305 35 -372 76 -59 37 -59 37 -73 11z m75 -80 c22 -11
47 -20 57 -20 39 0 24 -20 -38 -49 -37 -17 -69 -30 -71 -28 -3 4 8 117 11 117
1 0 19 -9 41 -20z m580 -150 c-1 -52 -6 -120 -10 -151 l-7 -55 -66 3 c-93 5
-94 6 -90 55 2 33 8 43 24 48 22 5 73 59 93 98 13 25 15 23 -56 40 -35 8 -49
6 -77 -8 -18 -11 -56 -20 -82 -22 -43 -3 -49 -1 -46 15 3 17 -5 18 -122 14
-69 -2 -126 -3 -126 0 0 2 28 17 61 33 l62 29 222 -2 222 -2 -2 -95z m429 38
c-20 -29 -46 -62 -56 -73 -18 -19 -18 -19 -18 28 0 28 5 47 11 47 7 0 9 10 5
25 -6 24 -5 25 45 25 l51 0 -38 -52z m-286 -7 c62 -6 64 -7 31 -14 -20 -4 -58
-23 -83 -43 l-46 -35 -1 48 c0 26 -2 56 -4 66 -3 18 -3 18 16 1 12 -11 43 -20
87 -23z m180 -49 c3 -58 -4 -66 -62 -66 -45 1 -159 13 -164 19 -3 2 10 12 28
22 17 10 55 32 83 50 32 19 63 31 82 30 29 -2 30 -4 33 -55z m-731 -18 l-32
-46 -3 28 c-6 50 -20 48 -27 -2 -3 -27 -9 -69 -13 -94 l-7 -45 -54 -3 c-89 -5
-96 36 -20 124 54 62 90 83 151 83 l38 1 -33 -46z m281 40 c12 -4 22 -10 22
-14 0 -12 -50 -70 -61 -70 -10 0 -12 34 -3 68 7 24 8 25 42 16z m-68 -19 c-7
-9 -13 -50 -14 -102 l-1 -88 -39 -3 c-22 -2 -50 -1 -63 3 -39 9 -22 56 43 116
29 28 56 60 59 70 4 11 11 19 17 19 7 0 6 -6 -2 -15z m-160 -95 c-7 -44 -16
-82 -20 -85 -4 -2 -23 1 -43 7 -32 10 -36 14 -30 36 3 14 14 33 24 43 11 11
19 23 19 28 0 13 50 64 57 57 3 -3 0 -41 -7 -86z m110 87 c0 -2 -16 -18 -35
-37 l-35 -34 0 31 c0 27 4 32 28 36 15 2 30 5 35 6 4 0 7 0 7 -2z m390 -91 c0
-6 -106 -86 -113 -86 -9 0 -9 53 -1 74 5 12 20 16 60 16 30 0 54 -2 54 -4z
m160 -17 c11 -17 -2 -67 -19 -71 -9 -2 -56 -2 -106 1 l-90 6 35 25 c19 14 44
30 55 35 26 14 118 17 125 4z m-160 -106 c0 -7 -44 -47 -77 -71 -29 -20 -32
-21 -35 -5 -9 44 4 73 36 81 29 8 76 5 76 -5z m-706 -44 c-21 -22 -42 -39 -46
-39 -12 0 -9 78 3 82 6 2 27 2 46 0 l35 -4 -38 -39z m854 9 c3 -40 3 -40 -130
-54 -72 -7 -87 3 -42 26 14 8 34 27 45 42 18 24 25 27 72 25 52 -3 52 -3 55
-39z m2 -105 c0 -53 -11 -59 -123 -62 -71 -2 -78 0 -75 16 2 10 16 24 31 31
32 16 35 32 5 32 -12 0 -38 -18 -61 -41 -30 -33 -41 -39 -48 -28 -5 9 -2 25 9
44 17 29 22 30 108 37 49 4 96 9 104 11 44 8 50 4 50 -40z m-200 -99 c0 -10
-63 -84 -72 -84 -4 0 -8 11 -8 25 0 15 6 25 15 25 8 0 20 9 27 20 12 18 38 28
38 14z"/>
</g>
</svg>
