<?xml version="1.0" standalone="no"?>
<!DOCTYPE svg PUBLIC "-//W3C//DTD SVG 20010904//EN"
 "http://www.w3.org/TR/2001/REC-SVG-20010904/DTD/svg10.dtd">
<svg version="1.0" xmlns="http://www.w3.org/2000/svg"
 width="205.000000pt" height="127.000000pt" viewBox="0 0 205.000000 127.000000"
 preserveAspectRatio="xMidYMid meet">
<metadata>
Created by potrace 1.16, written by Peter Selinger 2001-2019
</metadata>
<g transform="translate(0.000000,127.000000) scale(0.100000,-0.100000)"
fill="#000000" stroke="none">
<path d="M1700 1194 c-36 -7 -90 -16 -120 -19 -30 -3 -74 -8 -97 -11 -35 -4
-43 -2 -43 10 0 20 -2 20 -47 -3 -21 -11 -67 -22 -103 -25 -36 -3 -114 -10
-175 -16 -180 -16 -317 -22 -562 -25 -127 -2 -237 -6 -244 -10 -6 -4 -14 -2
-18 4 -5 8 -14 5 -28 -8 -22 -21 -33 -78 -39 -216 -2 -44 -11 -156 -20 -250
-25 -258 -27 -238 26 -247 25 -5 70 -11 100 -16 l55 -7 -1 -40 c0 -22 -4 -85
-8 -140 -7 -85 -6 -102 7 -113 12 -10 18 -10 31 3 9 9 14 21 11 25 -10 16 24
253 37 262 21 13 183 -6 194 -24 7 -11 -62 -102 -119 -157 -22 -21 -36 -44
-33 -50 12 -19 54 -12 73 13 23 31 120 93 229 147 l84 42 267 -13 c148 -7 302
-15 343 -16 41 -2 100 -6 130 -9 30 -4 68 -8 83 -8 l29 -2 2 130 c3 142 31
439 46 495 6 19 10 57 10 84 0 27 5 77 11 110 12 71 1 117 -28 115 -10 -1 -47
-7 -83 -15z m45 -96 c-6 -68 -11 -111 -36 -293 -5 -38 -12 -110 -14 -160 -3
-49 -8 -104 -10 -121 -3 -17 -8 -67 -11 -110 -3 -43 -7 -80 -8 -81 -3 -3 -437
15 -536 22 -36 2 -83 5 -105 5 -40 1 -39 1 35 32 98 40 122 50 202 87 91 41
163 61 236 64 50 2 65 6 77 24 16 22 9 33 -27 46 -12 4 -18 17 -18 37 0 33
-41 139 -70 180 -13 19 -19 56 -24 161 l-7 136 98 12 c54 7 114 16 133 20 19
5 48 9 63 10 l28 1 -6 -72z m-480 -41 l-47 -54 -51 28 c-51 28 -117 39 -117
19 0 -6 12 -15 28 -21 51 -19 112 -53 112 -61 0 -21 -32 -17 -86 10 -55 27
-84 31 -84 12 0 -4 29 -22 65 -39 36 -16 65 -34 65 -40 0 -22 -22 -21 -85 4
-36 15 -73 24 -82 21 -23 -9 -8 -20 65 -46 61 -22 71 -34 41 -53 -9 -6 -35 1
-81 22 -66 31 -108 39 -108 22 0 -5 36 -23 80 -41 44 -18 80 -36 80 -40 0 -11
-29 -40 -39 -40 -5 0 -14 6 -20 13 -19 24 -141 71 -152 60 -7 -7 17 -24 76
-53 74 -36 85 -45 73 -57 -12 -11 -24 -9 -81 17 -69 31 -92 36 -101 21 -3 -4
26 -21 65 -36 77 -31 86 -39 69 -60 -9 -11 -22 -8 -75 16 -74 33 -75 33 -75
16 0 -13 60 -47 83 -47 24 0 37 -22 26 -42 -10 -18 -13 -17 -66 12 -31 16 -63
30 -71 30 -27 0 -6 -23 46 -49 49 -25 63 -43 42 -56 -5 -3 -41 8 -80 25 -39
17 -81 29 -93 27 -24 -4 -20 -6 97 -56 68 -30 52 -36 -20 -8 -32 13 -64 22
-71 20 -16 -6 -5 -33 13 -33 22 0 94 -31 94 -41 0 -16 -29 -10 -80 16 -55 28
-105 35 -80 11 8 -7 41 -24 73 -36 31 -13 57 -27 57 -30 0 -18 -17 -16 -73 11
-61 29 -97 36 -97 21 0 -5 32 -23 72 -40 67 -30 71 -33 53 -46 -15 -10 -33
-11 -70 -5 -27 4 -83 8 -123 8 l-72 1 6 140 c5 101 4 140 -4 140 -24 0 -41
-49 -51 -148 -6 -57 -14 -108 -17 -114 -7 -11 -71 -4 -123 15 -33 12 -33 12
-27 62 3 27 8 61 11 75 13 60 24 187 29 344 4 94 8 171 10 173 2 2 32 -3 67
-13 61 -15 186 -15 369 1 19 1 82 6 140 9 102 6 251 20 375 35 33 4 62 6 64 4
2 -1 -18 -26 -44 -56z m115 31 c0 -13 3 -40 6 -60 8 -49 -8 -49 -41 -1 l-25
37 23 23 c28 28 37 28 37 1z m-74 -85 c4 -16 17 -41 30 -58 46 -62 147 -262
139 -276 -8 -11 -120 -70 -221 -114 -98 -44 -148 -75 -136 -87 9 -9 69 14 82
31 3 4 28 15 55 25 28 11 84 36 126 57 41 22 79 39 82 39 4 0 7 -9 7 -20 0
-11 -6 -20 -13 -20 -14 0 -144 -52 -286 -114 -46 -20 -78 -30 -72 -22 25 30
-8 22 -114 -30 -85 -41 -121 -53 -157 -54 -27 0 -48 5 -48 10 0 6 5 10 10 10
6 0 10 9 10 20 0 24 20 26 60 5 24 -12 30 -13 30 -2 0 7 -14 18 -31 24 -33 13
-31 33 3 33 14 0 18 5 14 15 -7 18 -7 18 37 0 46 -19 53 -19 37 0 -7 8 -18 15
-24 15 -7 0 -17 5 -24 12 -9 9 -8 16 4 29 14 15 18 15 42 3 41 -21 62 -18 34
6 -12 10 -27 20 -33 22 -16 5 1 38 20 38 9 0 25 -7 35 -15 24 -18 36 -19 36
-2 0 6 -14 20 -32 30 -28 16 -30 19 -16 33 14 14 20 14 56 -7 22 -13 44 -20
48 -17 9 10 -14 38 -31 38 -7 0 -18 7 -25 15 -21 26 17 31 50 6 29 -21 60 -28
60 -13 0 4 -18 18 -40 32 -22 14 -40 27 -40 30 0 4 9 16 20 28 l21 22 39 -26
c35 -23 60 -26 60 -6 0 4 -18 17 -40 30 -36 20 -39 25 -28 42 17 26 28 25 73
-6 21 -14 44 -23 52 -19 21 8 3 28 -47 50 -22 10 -40 24 -40 30 0 23 27 24 65
4 36 -19 65 -20 65 -1 0 5 -20 17 -45 26 -25 10 -45 24 -45 32 0 19 20 18 48
-2 13 -9 29 -13 37 -10 25 9 17 33 -15 45 -34 11 -35 14 -18 41 17 27 26 25
34 -7z m-528 -682 c10 -6 -3 -19 -48 -46 -33 -20 -63 -35 -66 -33 -2 3 12 23
32 46 35 41 56 50 82 33z"/>
</g>
</svg>
