<?xml version="1.0" standalone="no"?>
<!DOCTYPE svg PUBLIC "-//W3C//DTD SVG 20010904//EN"
 "http://www.w3.org/TR/2001/REC-SVG-20010904/DTD/svg10.dtd">
<svg version="1.0" xmlns="http://www.w3.org/2000/svg"
 width="189.000000pt" height="90.000000pt" viewBox="0 0 189.000000 90.000000"
 preserveAspectRatio="xMidYMid meet">
<metadata>
Created by potrace 1.16, written by Peter Selinger 2001-2019
</metadata>
<g transform="translate(0.000000,90.000000) scale(0.100000,-0.100000)"
fill="#000000" stroke="none">
<path d="M320 810 c-13 -9 -12 -12 4 -25 11 -8 36 -15 55 -15 20 0 73 -7 118
-15 45 -8 137 -15 205 -16 105 -1 472 7 533 12 54 5 96 -1 89 -13 -9 -15 -12
-38 -18 -197 -4 -74 -10 -139 -14 -143 -5 -5 -186 -11 -403 -13 l-394 -5 -12
-27 c-7 -16 -12 -47 -13 -71 l0 -43 -90 2 c-60 1 -90 5 -90 13 1 15 26 117 35
139 5 11 3 17 -7 17 -17 0 -34 -33 -44 -85 -4 -24 -10 -33 -16 -27 -7 7 -3 35
12 84 17 56 23 104 26 203 2 72 6 144 9 162 6 35 -7 50 -25 28 -20 -24 -29
-83 -36 -215 -3 -69 -13 -154 -23 -190 -20 -77 -13 -119 22 -121 16 -1 13 -3
-10 -10 -30 -9 -46 -37 -23 -40 6 -1 16 -2 23 -3 13 -1 14 -44 1 -84 -6 -21
-4 -23 17 -20 21 3 24 9 27 49 l3 46 42 5 c36 5 82 4 135 -1 8 -1 12 -18 12
-51 0 -36 4 -50 14 -50 22 0 39 28 40 65 l1 35 150 5 c83 3 188 7 235 11 47 3
149 6 228 6 126 1 144 -1 155 -17 13 -17 15 -17 51 0 28 14 42 15 60 7 14 -6
28 -7 37 -1 23 14 59 11 59 -6 0 -8 7 -15 15 -15 8 0 15 7 15 16 0 14 8 16 49
11 57 -7 83 10 57 36 -12 11 -14 31 -9 88 3 41 6 111 7 156 1 45 4 85 8 88 3
4 3 25 0 47 -4 31 -1 43 12 50 20 11 21 28 1 28 -12 0 -14 6 -8 28 21 81 5 90
-124 72 -70 -10 -214 -14 -498 -14 -337 -1 -415 2 -495 17 -106 19 -188 22
-210 7z m1286 -62 c-3 -13 -6 -29 -6 -35 0 -10 -30 -13 -115 -13 -99 0 -115
-2 -115 -16 0 -14 14 -16 113 -13 l112 4 -3 -35 c-2 -19 -5 -35 -5 -35 -1 0
-53 1 -114 3 l-113 4 -1 46 c-1 26 -3 57 -4 69 -2 23 2 24 185 36 25 2 51 4
59 5 9 1 11 -5 7 -20z m-20 -194 c12 -48 4 -51 -113 -46 -111 5 -125 10 -121
47 3 17 13 21 63 25 33 3 84 3 113 2 45 -3 53 -7 58 -28z m-4 -134 c-2 -30
-10 -68 -19 -85 -8 -16 -22 -42 -30 -57 -8 -16 -19 -28 -25 -28 -6 0 -19 -7
-28 -15 -15 -14 -16 -13 -14 7 1 13 3 25 3 28 1 3 17 23 36 45 41 45 40 59 -1
61 -16 1 -37 5 -47 9 -21 9 -67 -12 -67 -30 0 -6 -14 -33 -31 -58 -25 -38 -37
-47 -60 -47 l-28 0 39 43 c55 60 67 83 52 107 -7 11 -12 33 -12 50 l0 31 118
-3 117 -3 -3 -55z m-497 -73 c17 -3 62 -2 100 2 39 3 83 4 98 1 l28 -5 -37
-47 -37 -48 -86 -1 c-47 0 -117 -2 -156 -4 -160 -9 -467 -7 -477 3 -6 6 -8 29
-4 55 l7 45 242 1 c132 1 243 4 246 6 2 3 13 3 25 0 12 -2 35 -6 51 -8z m338
-19 c-9 -18 -17 -41 -18 -50 -2 -23 -10 -31 -29 -26 -12 2 -8 14 20 56 40 59
53 68 27 20z m157 -78 c0 -5 -4 -10 -10 -10 -5 0 -10 5 -10 10 0 6 5 10 10 10
6 0 10 -4 10 -10z"/>
<path d="M756 708 c-22 -76 -26 -266 -5 -269 32 -6 34 -3 34 71 l0 75 123 -3
c84 -2 128 1 138 9 25 21 4 29 -79 29 -45 0 -105 3 -133 6 l-51 6 1 41 c1 38
-19 64 -28 35z"/>
</g>
</svg>
