<?xml version="1.0" standalone="no"?>
<!DOCTYPE svg PUBLIC "-//W3C//DTD SVG 20010904//EN"
 "http://www.w3.org/TR/2001/REC-SVG-20010904/DTD/svg10.dtd">
<svg version="1.0" xmlns="http://www.w3.org/2000/svg"
 width="290.000000pt" height="158.000000pt" viewBox="0 0 290.000000 158.000000"
 preserveAspectRatio="xMidYMid meet">
<metadata>
Created by potrace 1.16, written by Peter Selinger 2001-2019
</metadata>
<g transform="translate(0.000000,158.000000) scale(0.100000,-0.100000)"
fill="#000000" stroke="none">
<path d="M1845 1484 c-9 -9 -28 -44 -44 -78 -18 -40 -42 -72 -68 -93 -41 -32
-41 -32 -127 -26 -110 8 -127 -4 -124 -81 4 -93 -5 -211 -16 -218 -17 -12 -36
-9 -34 5 2 9 -62 12 -292 12 -308 1 -546 11 -592 25 -26 8 -71 -11 -57 -25 14
-13 370 -28 639 -25 157 1 282 -1 277 -6 -4 -4 -92 -9 -195 -10 -103 -1 -310
-10 -461 -19 -150 -9 -276 -14 -279 -11 -2 3 -5 27 -5 53 1 81 -38 94 -53 17
-7 -38 -8 -38 -103 -24 -70 10 -83 16 -61 30 13 8 13 10 -1 10 -15 0 -59 -39
-59 -54 0 -4 -7 -14 -15 -22 -10 -11 -12 -21 -6 -32 5 -9 12 -35 15 -57 9 -53
12 -523 3 -531 -8 -8 20 -64 32 -64 21 0 43 43 47 92 2 29 5 58 6 63 1 6 11
11 22 11 12 1 71 6 131 13 61 6 139 13 175 16 36 4 97 11 135 16 39 5 147 14
240 20 94 5 215 13 270 17 55 3 127 7 160 7 l60 0 0 -100 c0 -55 -4 -107 -9
-116 -6 -10 -3 -26 7 -45 9 -16 21 -41 28 -56 13 -33 32 -36 52 -7 9 13 16 16
19 9 2 -7 27 9 58 37 30 27 82 65 115 85 199 117 242 142 260 158 11 9 54 35
95 58 72 38 77 39 96 24 11 -10 26 -30 34 -46 8 -16 39 -54 68 -85 29 -31 63
-77 75 -103 26 -58 57 -75 92 -52 14 9 25 24 25 33 0 9 5 22 12 29 6 6 17 26
24 44 6 18 22 61 35 96 14 35 55 104 94 157 39 52 91 123 116 157 54 73 52 83
-25 116 -113 49 -320 157 -379 198 -34 24 -93 65 -132 90 -151 101 -183 124
-265 193 -47 40 -84 79 -82 86 4 21 -15 27 -33 9z m43 -81 c49 -49 130 -112
182 -143 32 -19 85 -54 118 -77 34 -24 65 -43 70 -43 5 0 15 -7 22 -15 7 -8
10 -15 8 -15 -13 0 -494 163 -501 170 -5 4 7 28 26 54 20 25 38 55 42 66 8 24
10 25 33 3z m-205 -180 c-3 -10 -10 -23 -15 -29 -23 -30 -128 -389 -128 -438
0 -16 -3 -26 -7 -23 -8 8 -5 451 4 485 5 20 11 22 79 22 66 0 73 -2 67 -17z
m124 9 c9 -6 7 -32 -8 -107 -11 -55 -24 -152 -29 -216 -5 -64 -14 -128 -20
-143 -5 -15 -10 -46 -10 -69 0 -23 -5 -49 -10 -57 -6 -9 -7 43 -4 145 7 203
22 433 29 445 7 12 35 13 52 2z m-76 -24 c-5 -13 -11 -52 -15 -88 -11 -103
-20 -143 -34 -148 -6 -2 -12 3 -12 12 0 10 -6 13 -15 10 -12 -5 -11 2 5 37 11
24 20 53 20 64 1 33 42 135 55 135 3 0 1 -10 -4 -22z m167 -3 c1 -1 -7 -44
-17 -96 -11 -52 -23 -116 -27 -144 l-8 -50 -9 40 c-8 39 -2 240 9 257 5 7 41
2 52 -7z m56 -11 c11 -4 13 -10 7 -18 -5 -6 -17 -70 -26 -141 -9 -72 -18 -137
-21 -145 -7 -19 -27 -249 -28 -318 -1 -28 -5 -52 -9 -52 -20 0 8 508 35 633
10 48 14 52 42 41z m66 -24 c17 -9 17 -13 5 -37 -8 -14 -17 -56 -20 -92 -4
-36 -16 -129 -28 -206 -12 -77 -22 -173 -22 -213 0 -59 -3 -72 -15 -69 -10 1
-15 13 -14 32 5 99 16 245 28 345 15 124 17 142 17 180 1 14 5 30 11 37 5 7 7
17 3 23 -8 13 11 13 35 0z m147 -51 c21 -8 21 -8 4 -56 -13 -35 -18 -81 -19
-168 -1 -66 -4 -141 -8 -166 -4 -34 -2 -49 10 -58 21 -17 36 -5 35 27 -1 15 1
95 5 177 3 83 6 169 6 193 0 51 -2 51 121 -6 74 -33 77 -36 69 -61 -15 -48
-22 -229 -9 -237 8 -4 4 -11 -12 -20 -13 -7 -27 -13 -31 -14 -5 0 -8 73 -8
162 0 130 -3 160 -12 150 -13 -13 -16 -56 -17 -243 l-1 -85 -36 -18 c-30 -14
-36 -14 -31 -2 26 67 45 404 21 371 -16 -22 -38 -139 -31 -171 2 -14 0 -63 -6
-107 -5 -45 -10 -91 -10 -102 1 -20 -18 -31 -101 -61 -18 -7 -19 -2 -13 122 4
71 10 153 13 183 7 66 -4 183 -17 176 -5 -4 -9 -39 -9 -78 -1 -40 -5 -103 -11
-142 -6 -38 -12 -119 -14 -180 l-4 -110 -28 -12 c-27 -11 -28 -10 -35 20 -7
32 0 101 27 267 8 47 15 117 16 155 1 40 7 80 16 93 7 12 11 26 9 31 -5 7 47
-7 111 -30z m297 -140 c-1 -13 -5 -57 -9 -96 -7 -62 -6 -73 7 -73 12 0 16 19
21 86 3 48 8 89 11 91 2 3 13 0 25 -6 19 -11 19 -13 5 -47 -8 -20 -16 -53 -16
-73 0 -32 -6 -41 -42 -64 -41 -26 -41 -26 -49 -5 -4 11 -5 46 -3 77 3 31 5 77
5 103 1 45 2 47 24 39 15 -6 22 -16 21 -32z m-989 -57 c-2 -15 -5 -105 -6
-200 -1 -154 -3 -173 -18 -170 -13 3 -16 15 -13 73 2 40 8 73 15 77 7 4 8 8 1
8 -10 0 -15 50 -17 168 -1 44 3 66 13 72 21 13 31 2 25 -28z m160 -49 c-4 -48
-8 -90 -10 -93 -2 -4 -7 -29 -10 -56 -4 -27 -11 -76 -16 -109 -11 -76 -11
-186 0 -204 7 -10 0 -21 -25 -38 -19 -12 -37 -23 -40 -23 -13 0 25 290 52 395
9 33 18 71 20 85 12 71 26 130 31 130 3 0 2 -39 -2 -87z m55 47 c0 -22 -4 -40
-10 -40 -11 0 -14 63 -3 73 11 12 13 8 13 -33z m-278 -235 c-4 -38 -6 -82 -7
-97 0 -16 -5 -28 -10 -28 -17 0 -18 372 -2 382 15 10 28 -155 19 -257z m1186
249 c25 -17 27 -54 3 -62 -11 -4 -12 2 -7 23 5 20 3 26 -6 23 -7 -3 -14 -19
-16 -37 -3 -24 -8 -31 -20 -29 -12 2 -16 12 -14 28 8 74 18 83 60 54z m-2276
-4 c63 0 70 -2 64 -17 -3 -10 -28 -83 -55 -163 -27 -80 -58 -174 -69 -210
l-18 -65 -2 121 c-3 146 -10 266 -18 313 -6 30 -5 33 10 28 10 -4 49 -7 88 -7z
m737 -22 c-6 -18 -15 -85 -20 -148 -12 -154 -19 -200 -31 -200 -6 0 -7 19 -3
48 3 26 8 72 10 102 6 79 24 210 30 221 14 22 23 6 14 -23z m292 -90 c1 -251
0 -258 -28 -258 -12 0 -14 10 -9 58 4 31 9 111 12 177 3 66 7 126 9 133 11 31
15 3 16 -110z m483 -73 c-4 -60 -8 -143 -8 -182 -1 -71 -2 -73 -30 -83 -16 -5
-31 -10 -34 -10 -12 0 24 319 42 369 7 23 10 41 5 41 -5 0 -7 10 -5 23 3 12 5
27 6 32 1 6 8 -10 16 -35 12 -35 14 -69 8 -155z m-824 168 c-1 -10 -5 -38 -10
-63 -5 -25 -14 -97 -20 -160 -6 -63 -14 -118 -18 -122 -4 -3 -70 -10 -147 -14
l-140 -7 2 89 c1 86 20 250 29 266 3 4 14 8 25 8 15 0 19 -5 15 -17 -26 -95
-38 -314 -18 -321 19 -6 24 19 27 131 4 136 19 203 47 210 19 5 19 2 13 -56
-4 -34 -11 -80 -15 -102 -9 -41 -14 -112 -11 -152 1 -16 7 -23 22 -23 19 0 20
4 14 48 -3 27 -1 66 6 92 6 25 14 79 18 120 5 62 9 75 25 78 10 2 16 0 13 -5
-8 -12 -26 -125 -32 -189 -2 -28 -6 -61 -10 -75 -7 -28 16 -66 34 -55 6 4 9
16 6 27 -4 10 -2 52 4 92 6 39 13 98 15 131 4 55 18 87 32 73 3 -3 2 -12 -2
-19 -5 -7 -9 -42 -10 -78 -1 -36 -5 -107 -9 -158 -6 -87 -5 -93 12 -90 20 4
30 68 32 220 0 48 5 98 11 112 11 29 40 35 40 9z m105 -60 c-4 -74 -8 -117
-21 -240 -4 -39 -10 -53 -21 -53 -12 0 -14 9 -9 48 3 26 10 106 15 177 5 72
10 133 10 138 1 4 8 7 16 7 13 0 14 -13 10 -77z m59 -48 c-1 -16 -6 -81 -10
-142 -4 -62 -10 -113 -13 -113 -28 1 -33 20 -27 111 7 106 24 236 33 259 8 18
21 -71 17 -115z m68 -15 c-3 -144 -17 -220 -41 -228 -11 -4 -12 20 -6 139 4
79 7 153 6 164 -2 37 9 65 27 65 16 0 17 -12 14 -140z m54 103 c-3 -21 -5 -51
-6 -66 0 -16 -4 -26 -10 -22 -11 7 -13 48 -4 94 9 44 27 39 20 -6z m-756 -31
c0 -15 -7 -89 -17 -164 -15 -125 -18 -138 -36 -138 -18 0 -19 5 -13 58 4 31 9
93 12 137 6 80 28 150 45 139 5 -3 9 -17 9 -32z m66 21 c-3 -10 -8 -49 -10
-86 -3 -38 -11 -87 -17 -110 -6 -22 -8 -53 -5 -67 7 -37 -3 -70 -22 -70 -12 0
-14 10 -8 58 3 31 11 106 16 166 6 59 13 112 16 117 10 17 36 10 30 -8z m53
-80 c-10 -54 -18 -133 -19 -175 0 -72 -2 -78 -21 -78 -19 0 -20 4 -15 78 4 60
15 179 25 265 1 4 11 7 24 7 l23 0 -17 -97z m-184 60 c-3 -10 -8 -52 -11 -93
-4 -64 -12 -124 -19 -152 -2 -5 -3 -19 -4 -33 -1 -20 -6 -25 -26 -25 -24 0
-25 3 -25 58 0 71 17 188 31 224 6 15 21 29 32 31 12 2 24 5 26 6 2 0 0 -7 -4
-16z m2242 5 c18 -7 33 -16 33 -22 0 -10 -113 -180 -137 -206 -15 -17 -14 -4
14 125 8 39 17 80 19 93 5 25 22 27 71 10z m-1037 -165 c-6 -87 -15 -179 -19
-206 -5 -26 -4 -50 0 -53 16 -9 10 -20 -17 -32 -17 -8 -23 -9 -19 -1 4 6 7 67
7 135 -1 127 16 253 37 278 7 8 11 18 10 22 -3 16 1 27 7 22 3 -4 0 -77 -6
-165z m920 98 c0 -39 -32 -156 -72 -265 -100 -274 -131 -288 -103 -45 9 74 15
147 15 164 -6 97 -5 98 63 132 73 37 97 41 97 14z m-1317 -144 c-5 -50 -12
-86 -18 -85 -12 3 -11 7 12 168 10 71 14 14 6 -83z m-906 81 c-3 -8 -6 -5 -6
6 -1 11 2 17 5 13 3 -3 4 -12 1 -19z m-13 -80 c-4 -35 -6 -71 -6 -80 0 -10 -6
-18 -14 -18 -9 0 -14 -6 -12 -12 4 -13 119 -24 273 -27 l60 -1 -35 -19 c-40
-21 -82 -29 -195 -36 -79 -6 -87 -7 -134 -20 -16 -5 -21 -4 -16 4 3 6 8 26 11
44 4 35 64 227 70 227 2 0 1 -28 -2 -62z m2016 -138 c-7 -52 -14 -99 -17 -103
-7 -12 -79 71 -119 137 l-36 60 24 18 c13 10 52 34 88 52 l65 34 3 -52 c2 -28
-2 -94 -8 -146z m-656 33 c-9 -89 -25 -118 -18 -33 2 36 7 73 10 83 11 35 14
15 8 -50z m371 21 c-21 -16 -299 -189 -468 -291 -97 -59 -102 -61 -105 -39 -8
57 73 110 368 242 36 16 99 46 140 66 84 41 94 44 65 22z m-1142 -50 c1 -5
-34 -12 -78 -15 -44 -3 -107 -9 -141 -13 -50 -6 -61 -5 -61 7 0 12 21 17 96
22 53 4 101 8 106 9 22 6 75 -1 78 -10z m127 4 c0 -4 -23 -8 -51 -8 -27 0 -48
4 -45 8 3 5 26 9 51 9 25 0 45 -4 45 -9z m65 2 c-3 -5 -16 -10 -28 -10 -18 0
-19 2 -7 10 20 13 43 13 35 0z m113 3 c-10 -2 -28 -2 -40 0 -13 2 -5 4 17 4
22 1 32 -1 23 -4z"/>
</g>
</svg>
