<?xml version="1.0" standalone="no"?>
<!DOCTYPE svg PUBLIC "-//W3C//DTD SVG 20010904//EN"
 "http://www.w3.org/TR/2001/REC-SVG-20010904/DTD/svg10.dtd">
<svg version="1.0" xmlns="http://www.w3.org/2000/svg"
 width="192.000000pt" height="99.000000pt" viewBox="0 0 192.000000 99.000000"
 preserveAspectRatio="xMidYMid meet">
<metadata>
Created by potrace 1.16, written by Peter Selinger 2001-2019
</metadata>
<g transform="translate(0.000000,99.000000) scale(0.100000,-0.100000)"
fill="#000000" stroke="none">
<path d="M483 774 c-26 -11 -12 -33 30 -48 30 -11 98 -18 237 -22 107 -4 224
-8 260 -10 158 -7 180 -6 196 11 24 24 27 12 16 -57 -6 -35 -16 -103 -23 -151
-8 -61 -16 -90 -26 -94 -8 -3 -59 -1 -112 6 -53 7 -123 14 -156 16 -33 3 -127
9 -210 15 -241 17 -273 20 -288 26 -50 19 -143 31 -164 21 -25 -11 -45 -66
-59 -162 -4 -27 -8 -56 -10 -62 -4 -22 16 -25 52 -8 30 14 67 17 227 16 106
-1 206 0 222 0 17 1 71 -2 120 -5 124 -10 355 -26 377 -26 14 0 20 -68 8 -90
-10 -18 -9 -24 1 -31 24 -15 34 -10 48 22 7 17 25 36 40 42 14 6 29 16 33 22
4 5 22 10 40 10 26 0 33 4 33 20 0 11 15 29 35 43 19 13 44 30 55 37 80 57
106 74 150 97 28 14 58 29 68 32 18 6 24 36 7 36 -5 0 -10 9 -10 20 0 14 -16
28 -52 46 -29 15 -67 38 -85 53 -18 14 -57 46 -88 71 -32 25 -69 55 -83 68
-15 12 -44 28 -66 34 -35 11 -39 10 -55 -10 -16 -21 -20 -22 -196 -17 -99 3
-196 8 -215 12 -19 4 -89 7 -155 8 -66 0 -136 4 -155 7 -19 4 -41 5 -47 2z
m822 -64 c5 -8 70 -59 189 -147 17 -13 59 -37 94 -53 34 -17 62 -34 62 -38 0
-5 -17 -16 -37 -26 -38 -18 -99 -62 -179 -128 -25 -21 -49 -38 -54 -38 -4 0
-4 17 0 37 9 39 30 206 33 257 1 16 -3 31 -10 33 -19 7 -35 -35 -43 -116 -4
-42 -13 -115 -20 -163 -12 -85 -13 -87 -55 -117 -49 -35 -55 -37 -55 -15 0 9
-5 12 -12 8 -10 -6 -10 -4 0 7 7 8 12 41 12 83 0 39 5 100 11 136 5 36 14 99
19 140 15 139 26 171 45 140z m-1017 -265 c45 -23 158 -45 232 -45 l65 0 0
-43 0 -42 -115 -2 c-63 -1 -141 -4 -172 -6 l-56 -3 -7 32 c-4 26 11 124 20
124 1 0 16 -7 33 -15z m592 -60 c80 -2 180 -8 223 -11 75 -7 77 -8 77 -33 0
-14 -5 -33 -10 -41 -9 -13 -11 -13 -20 0 -9 13 -10 13 -10 -1 0 -12 -9 -14
-52 -9 -29 3 -58 9 -64 13 -6 3 -98 7 -203 8 -190 2 -192 2 -187 23 3 12 6 31
6 43 0 20 4 21 48 18 26 -2 112 -7 192 -10z"/>
</g>
</svg>
