<?xml version="1.0" standalone="no"?>
<!DOCTYPE svg PUBLIC "-//W3C//DTD SVG 20010904//EN"
 "http://www.w3.org/TR/2001/REC-SVG-20010904/DTD/svg10.dtd">
<svg version="1.0" xmlns="http://www.w3.org/2000/svg"
 width="252.000000pt" height="160.000000pt" viewBox="0 0 252.000000 160.000000"
 preserveAspectRatio="xMidYMid meet">
<metadata>
Created by potrace 1.16, written by Peter Selinger 2001-2019
</metadata>
<g transform="translate(0.000000,160.000000) scale(0.100000,-0.100000)"
fill="#000000" stroke="none">
<path d="M627 1383 c-3 -43 -10 -109 -16 -147 -6 -38 -9 -71 -7 -74 3 -2 23
10 46 28 44 35 192 90 253 95 21 1 41 5 44 9 4 3 18 6 33 6 26 0 27 -2 33 -69
3 -38 3 -94 0 -124 -5 -49 -8 -56 -31 -60 -48 -9 -457 0 -512 12 -30 6 -75 15
-100 19 -25 5 -55 15 -67 22 -17 11 -27 11 -47 2 -27 -12 -28 -16 -30 -133 -1
-33 -7 -63 -15 -73 -12 -14 -12 -19 -1 -26 7 -5 11 -18 8 -33 -3 -15 -1 -25 5
-24 13 2 10 -153 -3 -198 -29 -99 -30 -110 -16 -120 8 -6 14 -26 14 -45 0 -73
6 -101 22 -97 8 2 14 8 13 14 -8 41 1 236 13 276 6 19 54 22 146 9 l46 -7 -84
-65 c-109 -84 -115 -90 -108 -101 3 -5 31 12 62 39 89 75 129 102 151 102 11
0 24 7 29 17 5 9 16 14 24 10 16 -6 16 -8 3 -189 -3 -48 -1 -78 5 -78 12 0 17
24 25 115 4 39 12 88 18 109 l11 39 120 -7 c65 -3 153 -6 194 -6 l75 0 -8 -32
c-9 -43 -17 -122 -19 -180 -1 -36 -5 -48 -16 -48 -29 1 -85 35 -95 58 -5 12
-17 21 -25 20 -15 -3 -30 -79 -45 -228 -4 -36 -10 -81 -14 -100 -13 -61 -3
-70 52 -47 34 15 165 55 257 80 70 19 269 55 340 62 30 2 71 10 90 15 19 6 77
11 128 11 51 -1 139 8 195 19 63 12 143 19 209 18 58 0 111 3 117 7 29 17 -11
25 -130 25 l-130 0 6 148 c3 81 8 197 10 257 2 61 4 110 4 111 1 0 25 -7 54
-17 28 -10 60 -18 70 -19 26 0 21 -14 -24 -62 -61 -64 -102 -118 -91 -118 6 0
30 21 54 46 23 26 59 63 79 83 l35 36 144 0 c101 0 144 3 147 12 3 8 -28 12
-115 11 -127 0 -149 3 -253 33 -64 18 -81 32 -84 69 -1 8 4 22 10 30 7 8 23
38 36 65 26 55 74 127 126 191 18 23 33 44 33 48 0 9 -259 5 -265 -4 -6 -10
-62 2 -94 19 -17 10 -26 10 -34 2 -9 -9 -9 -14 1 -20 10 -6 10 -10 -2 -20 -20
-17 -303 -12 -406 6 -151 28 -150 28 -150 2 0 -13 7 -37 15 -53 20 -39 19 -56
-5 -56 -18 0 -20 -7 -20 -77 0 -43 -5 -105 -10 -138 -24 -137 -29 -327 -13
-477 l9 -88 -46 1 c-25 0 -61 6 -80 13 -33 12 -34 14 -31 62 1 27 8 90 16 139
18 115 24 173 34 320 7 108 12 131 50 224 51 127 68 160 93 188 11 12 17 26
14 31 -6 11 -76 20 -203 27 -85 5 -235 53 -301 97 -64 42 -69 39 -75 -49z m71
-7 c15 -7 44 -16 65 -20 20 -4 56 -15 79 -25 l41 -17 -79 -28 c-43 -16 -97
-37 -118 -47 -22 -10 -41 -17 -43 -15 -5 4 20 166 25 166 2 0 15 -6 30 -14z
m445 -92 c12 -4 5 -26 -33 -110 -26 -58 -51 -108 -54 -111 -3 -4 -6 44 -6 105
l0 111 38 4 c20 2 38 4 39 5 1 1 8 -1 16 -4z m890 -151 c-33 -48 -75 -116 -92
-150 -31 -63 -49 -83 -35 -40 9 27 9 31 0 90 -7 43 -5 47 13 47 11 0 23 5 26
10 4 6 -5 10 -21 10 -26 0 -26 1 -22 50 3 31 1 53 -6 58 -9 6 182 21 193 15 2
-1 -23 -42 -56 -90z m-713 52 l55 -12 -45 -7 c-25 -5 -55 -17 -66 -28 -21 -19
-22 -19 -28 6 -3 14 -11 26 -16 26 -6 0 -10 9 -10 21 0 18 4 20 28 14 15 -4
52 -13 82 -20z m521 -18 c-12 -13 -34 -30 -49 -38 -15 -7 -35 -20 -44 -28 -23
-18 -23 -9 2 36 22 41 39 51 84 52 l29 1 -22 -23z m-101 8 c0 -3 -9 -23 -19
-44 -18 -35 -24 -39 -73 -44 -76 -10 -398 -9 -398 1 0 11 47 37 92 51 20 7 41
18 48 25 8 11 51 14 180 15 94 0 170 -1 170 -4z m135 -50 c1 -19 -5 -24 -32
-27 -19 -2 -35 -2 -37 0 -3 2 10 16 27 32 35 31 42 30 42 -5z m-576 -75 l46
-1 -45 -22 c-25 -12 -57 -31 -72 -41 l-28 -18 0 62 0 61 26 -20 c18 -14 42
-21 73 -21z m581 -16 c0 -43 -1 -44 -32 -45 -35 -2 -38 -2 -132 -14 -33 -4
-57 -4 -54 1 31 69 66 93 148 104 64 8 70 4 70 -46z m-207 19 c-14 -38 -35
-61 -61 -66 -15 -3 -45 -10 -67 -15 -39 -10 -135 -15 -244 -13 -46 1 -52 3
-41 16 6 8 22 17 33 21 12 3 47 19 77 34 46 22 72 27 140 29 47 1 87 4 89 7 2
2 21 4 42 4 32 0 37 -3 32 -17z m-1288 -15 c124 -14 145 -18 145 -28 0 -6 -15
-10 -32 -10 -41 0 -106 -29 -170 -75 -26 -19 -53 -35 -58 -35 -11 0 -14 128
-4 155 4 10 12 14 23 9 9 -4 52 -11 96 -16z m625 -70 c0 -35 -6 -83 -12 -108
-12 -49 -15 -80 -17 -153 l-1 -49 -167 7 c-168 6 -203 10 -203 24 0 13 92 146
112 162 34 27 13 39 -67 39 -60 0 -76 3 -84 17 -9 16 -11 16 -31 -2 -18 -17
-19 -21 -6 -30 13 -10 19 -66 17 -159 l-1 -29 -97 6 c-54 3 -112 9 -130 13
l-32 6 21 41 c26 51 59 99 76 110 23 15 12 27 -25 27 l-38 0 50 33 c68 46 115
60 212 63 46 1 82 6 81 11 -5 13 91 20 182 13 47 -3 87 -3 90 1 5 7 33 16 58
18 8 1 12 -17 12 -61z m864 -25 c-4 -15 -8 -40 -8 -55 -1 -28 -2 -28 -66 -29
-36 0 -91 -2 -122 -5 l-58 -6 0 40 c0 22 6 45 13 51 13 10 97 23 201 29 l48 3
-8 -28z m-340 -17 c-35 -55 -73 -73 -169 -79 -132 -9 -142 0 -53 47 57 30 89
40 148 46 41 4 78 8 83 9 4 0 0 -10 -9 -23z m-234 5 c20 -1 11 -9 -44 -41 -37
-22 -70 -40 -72 -40 -2 0 -4 14 -4 31 0 38 19 54 63 53 17 -1 43 -2 57 -3z
m282 -41 l-4 -51 -44 3 c-24 2 -44 6 -44 11 0 4 4 7 8 7 6 0 87 75 87 80 0 0
-2 -23 -3 -50z m-907 -30 c4 -6 -16 -45 -44 -88 l-51 -76 0 80 c0 44 3 84 7
87 10 11 81 8 88 -3z m-335 -6 c0 -3 -18 -31 -40 -61 l-40 -56 0 49 c0 28 5
55 12 62 12 12 68 17 68 6z m1524 -31 c-1 -7 -2 -24 -2 -37 -2 -30 -12 -33
-134 -41 l-98 -6 -1 30 c-1 17 -2 37 -3 43 -1 17 40 23 149 23 66 0 90 -3 89
-12z m-580 -3 c15 0 9 -7 -24 -27 -25 -14 -56 -35 -69 -47 l-23 -21 7 45 c9
52 19 62 59 55 16 -3 38 -5 50 -5z m86 -10 c-8 -5 -19 -10 -25 -10 -5 0 -3 5
5 10 8 5 20 10 25 10 6 0 3 -5 -5 -10z m214 -12 c15 -59 10 -68 -46 -70 -29
-1 -67 -2 -85 -3 -19 -1 -49 8 -74 23 l-42 25 54 23 c38 16 74 23 120 24 61 0
67 -2 73 -22z m-273 -24 c-11 -15 -18 -30 -15 -35 3 -5 -13 -9 -35 -9 -23 0
-41 3 -41 8 0 12 62 47 108 61 2 1 -6 -11 -17 -25z m28 -45 c-15 -9 -32 -2
-24 11 3 5 13 6 21 3 12 -4 13 -8 3 -14z m526 -23 c0 -13 -3 -28 -7 -32 -10
-9 -173 -24 -198 -17 -16 4 -20 12 -18 31 4 32 23 38 138 41 85 2 86 2 85 -23z
m-262 -15 c7 -34 1 -39 -58 -46 -46 -6 -52 -5 -79 23 l-28 30 43 10 c24 6 61
10 81 9 31 -1 37 -5 41 -26z m-338 9 l40 0 -68 -40 c-38 -22 -70 -40 -73 -40
-8 0 1 75 11 83 6 4 19 5 30 2 11 -2 38 -5 60 -5z m163 -33 l32 -33 -87 3
c-120 6 -124 7 -78 29 22 10 42 22 43 27 9 19 60 5 90 -26z m432 -66 c0 -28
-5 -53 -11 -57 -6 -4 -51 -9 -100 -12 l-88 -5 -66 43 c-35 23 -63 46 -60 50 3
4 20 10 39 12 34 4 35 2 41 -34 4 -23 12 -38 21 -38 11 0 13 9 8 40 l-6 39 93
4 c52 1 102 4 112 5 14 2 17 -6 17 -47z m-513 4 c4 -2 -163 -85 -171 -85 -3 0
-6 15 -6 34 0 52 27 66 109 59 36 -3 67 -7 68 -8z m177 -19 c12 -12 35 -30 50
-41 l28 -20 -88 3 c-124 3 -214 12 -214 21 0 4 19 15 43 25 23 10 51 22 62 26
50 23 85 18 119 -14z m-201 -73 l38 -5 -51 -24 c-28 -13 -54 -23 -58 -21 -4 1
-17 -8 -29 -20 -30 -30 -40 -29 -45 7 -4 25 1 33 31 54 23 16 43 23 56 20 11
-4 37 -9 58 -11z m532 -62 c-4 -3 -31 -6 -61 -6 -47 0 -58 4 -85 32 l-32 31
69 7 c38 3 78 7 89 8 16 2 21 -5 23 -32 2 -18 0 -36 -3 -40z m-193 27 l31 -33
-64 -8 c-69 -9 -255 -2 -303 11 l-29 8 39 16 c75 32 100 36 197 37 l99 1 30
-32z m-338 -61 c18 -13 18 -14 2 -20 -10 -4 -42 -23 -71 -43 -59 -39 -75 -38
-75 6 0 51 99 90 144 57z m426 -32 c33 -41 65 -63 76 -52 5 5 -1 13 -48 69
-10 12 -18 21 -18 22 0 1 21 2 48 3 l47 2 0 -59 0 -60 -300 3 c-192 1 -300 6
-299 12 1 5 28 25 60 44 55 32 66 35 154 37 52 2 118 7 145 12 88 17 97 15
135 -33z m-860 -39 c25 -8 70 -22 100 -31 78 -25 220 -32 549 -27 157 2 283 1
280 -2 -4 -4 -73 -11 -155 -16 -82 -5 -183 -14 -224 -19 -69 -10 -112 -17
-315 -56 -38 -8 -113 -28 -165 -44 -52 -17 -110 -34 -129 -37 l-34 -7 7 64
c10 89 28 189 35 189 3 0 26 -6 51 -14z"/>
</g>
</svg>
