<?xml version="1.0" standalone="no"?>
<!DOCTYPE svg PUBLIC "-//W3C//DTD SVG 20010904//EN"
 "http://www.w3.org/TR/2001/REC-SVG-20010904/DTD/svg10.dtd">
<svg version="1.0" xmlns="http://www.w3.org/2000/svg"
 width="234.000000pt" height="126.000000pt" viewBox="0 0 234.000000 126.000000"
 preserveAspectRatio="xMidYMid meet">
<metadata>
Created by potrace 1.16, written by Peter Selinger 2001-2019
</metadata>
<g transform="translate(0.000000,126.000000) scale(0.100000,-0.100000)"
fill="#000000" stroke="none">
<path d="M1186 1125 c-204 -15 -301 -27 -306 -35 -6 -9 -9 -9 -11 -1 -6 17
-153 29 -314 26 -202 -4 -202 -4 -219 -20 -8 -8 -28 -15 -45 -15 -16 0 -33 -5
-37 -12 -7 -11 -6 -240 1 -341 3 -31 0 -89 -5 -129 -6 -40 -13 -94 -16 -119
-5 -34 -2 -49 10 -61 9 -10 16 -33 16 -56 0 -51 25 -76 46 -47 11 15 27 19 67
20 l52 0 -1 -35 c-1 -19 -4 -79 -7 -132 -4 -64 -2 -100 5 -104 17 -11 25 14
32 104 3 48 10 101 15 117 9 33 8 33 111 21 30 -4 144 -11 252 -16 109 -5 201
-11 205 -13 5 -3 71 -8 148 -12 77 -4 145 -10 150 -13 6 -4 141 -7 300 -8 244
-1 295 -3 321 -17 54 -28 55 -26 70 233 3 63 8 135 10 160 2 25 6 99 9 165 3
66 9 154 14 195 12 88 13 160 3 160 -4 0 -135 2 -292 4 -230 3 -342 0 -584
-19z m830 -28 c1 -1 -4 -31 -12 -67 -15 -70 -35 -389 -37 -613 -2 -130 -3
-138 -23 -143 -35 -9 -575 3 -669 14 -79 10 -214 25 -340 37 -22 2 -105 9
-185 15 -138 10 -247 26 -262 39 -9 8 24 148 45 187 20 39 8 54 -43 54 -51 0
-61 -10 -51 -47 5 -17 7 -33 5 -35 -3 -3 -12 -101 -14 -145 0 -9 -17 -13 -53
-13 -29 0 -59 -6 -66 -13 -29 -29 10 426 45 533 3 8 7 45 9 82 2 37 6 71 9 77
4 6 81 8 214 5 239 -6 402 -5 412 1 4 2 52 7 106 10 54 3 140 10 189 14 50 4
153 9 230 10 76 1 140 3 141 4 3 3 347 -3 350 -6z m-1713 -119 c-8 -46 -13
-48 -13 -5 0 21 4 37 10 37 5 0 7 -14 3 -32z m181 -450 c-8 -29 -17 -57 -19
-63 -2 -5 -4 18 -4 53 -1 55 1 62 18 62 19 0 19 -2 5 -52z"/>
<path d="M1094 1007 c-12 -12 -42 -34 -66 -49 -41 -25 -55 -28 -136 -28 -92 0
-122 -5 -122 -21 0 -5 42 -9 94 -9 l94 0 61 -65 c58 -62 83 -77 96 -55 6 9
340 5 355 -5 4 -3 14 2 21 11 22 27 -7 33 -164 33 -82 0 -151 2 -154 5 -3 2
13 14 36 26 56 28 55 32 -22 93 l-29 22 176 0 175 0 3 -95 c3 -87 5 -95 23
-95 18 0 20 8 23 80 2 43 8 85 14 92 7 9 7 13 -1 13 -7 0 -11 8 -9 18 3 19 2
20 -102 8 -94 -10 -272 7 -305 28 -31 21 -36 20 -61 -7z m84 -108 c27 -11 22
-23 -19 -44 l-29 -16 0 41 c0 43 0 43 -25 34 -13 -5 -15 -15 -9 -52 4 -27 3
-43 -3 -41 -14 6 -83 85 -83 95 0 5 19 18 43 30 l42 21 30 -30 c17 -16 40 -33
53 -38z"/>
<path d="M818 1008 c-20 -5 -39 -16 -42 -24 -4 -11 12 -14 88 -14 51 0 108 -3
126 -6 28 -6 32 -4 28 12 -7 37 -116 55 -200 32z"/>
<path d="M769 859 c-16 -9 -13 -10 72 -29 56 -12 129 -7 129 9 0 8 -38 14
-151 25 -20 2 -42 0 -50 -5z"/>
<path d="M848 634 c-6 -5 2 -39 17 -77 7 -16 2 -17 -60 -11 -62 6 -67 5 -63
-12 2 -14 19 -22 63 -32 96 -21 107 -25 124 -57 33 -59 46 -75 63 -75 21 0 22
7 3 40 -33 57 -31 58 153 52 92 -2 169 -6 170 -7 2 -2 -8 -21 -22 -42 -37 -54
-13 -54 35 1 33 37 47 46 74 46 l33 0 -40 -40 c-22 -21 -37 -44 -33 -50 11
-18 21 -11 56 40 32 47 37 50 77 50 23 0 42 -4 42 -9 0 -5 -18 -27 -40 -49
-21 -23 -35 -44 -30 -47 5 -3 31 17 59 45 28 28 62 55 76 60 32 12 24 30 -12
30 -15 0 -23 3 -20 6 4 4 -2 19 -12 33 -10 14 -21 39 -25 54 -8 35 -30 30 -34
-8 -3 -23 3 -35 30 -57 l33 -27 -51 -1 c-49 0 -53 2 -78 40 -14 22 -26 49 -26
60 0 23 -10 26 -28 8 -19 -19 -14 -44 14 -77 l26 -31 -36 0 c-39 0 -55 17 -76
83 -16 51 -45 52 -35 1 3 -21 13 -48 22 -60 15 -24 15 -24 -22 -24 -27 0 -36
4 -32 14 3 7 -3 26 -12 42 -10 16 -21 41 -24 57 -4 15 -12 27 -18 27 -20 0
-21 -33 -3 -68 40 -80 45 -75 -58 -68 -51 4 -113 12 -138 20 -40 11 -48 19
-75 69 -26 52 -50 69 -67 51z"/>
<path d="M1177 408 c-42 -46 -42 -48 -23 -48 12 0 86 73 86 85 0 17 -31 -1
-63 -37z"/>
</g>
</svg>
