<?xml version="1.0" standalone="no"?>
<!DOCTYPE svg PUBLIC "-//W3C//DTD SVG 20010904//EN"
 "http://www.w3.org/TR/2001/REC-SVG-20010904/DTD/svg10.dtd">
<svg version="1.0" xmlns="http://www.w3.org/2000/svg"
 width="249.000000pt" height="162.000000pt" viewBox="0 0 249.000000 162.000000"
 preserveAspectRatio="xMidYMid meet">
<metadata>
Created by potrace 1.16, written by Peter Selinger 2001-2019
</metadata>
<g transform="translate(0.000000,162.000000) scale(0.100000,-0.100000)"
fill="#000000" stroke="none">
<path d="M1059 1573 c-32 -13 -37 -28 -14 -41 12 -6 15 -29 15 -108 0 -54 -1
-117 -3 -139 -4 -46 5 -45 -172 -31 -136 10 -140 7 -138 -111 1 -48 4 -114 8
-146 4 -32 4 -69 1 -83 -6 -24 -10 -25 -54 -20 -26 4 -114 8 -197 11 -82 2
-190 7 -240 10 -108 7 -134 -3 -153 -59 -18 -56 -20 -209 -3 -229 11 -14 17
-15 28 -5 16 13 215 23 453 23 l135 0 3 -72 c2 -40 -1 -103 -6 -140 -5 -37 -7
-75 -5 -84 7 -25 33 -32 52 -15 24 21 239 27 270 7 13 -9 16 -70 8 -226 l-2
-50 116 4 c72 2 124 -1 136 -8 17 -8 29 -6 62 12 40 21 49 41 20 43 -8 1 -20
2 -26 3 -25 2 -8 194 19 228 7 9 40 13 96 13 47 0 112 5 143 12 51 10 60 10
77 -5 23 -21 62 -22 62 -2 0 8 5 15 10 15 16 0 11 30 -6 37 -13 5 -14 21 -10
101 3 52 8 97 11 100 8 9 219 20 379 21 118 1 142 -2 158 -16 28 -25 42 1 21
41 -15 28 -15 100 0 276 2 20 -2 25 -18 23 -89 -9 -535 -11 -540 -3 -3 5 -8
66 -12 135 -4 96 -2 129 8 141 11 14 10 18 -5 29 -13 10 -60 12 -201 9 -116
-3 -186 -1 -190 5 -8 14 16 233 28 249 5 7 32 12 63 12 42 0 54 3 54 15 0 9
-6 18 -14 21 -30 12 -399 9 -427 -3z m275 -90 c-3 -31 -9 -75 -14 -97 -5 -23
-10 -59 -10 -82 l0 -41 -102 -6 c-56 -4 -103 -5 -105 -3 -2 2 -1 64 3 139 l7
136 26 4 c14 2 65 5 113 6 l87 1 -5 -57z m321 -251 l40 -2 1 -68 c2 -81 2
-232 0 -407 0 -71 1 -148 3 -170 5 -69 -10 -163 -28 -170 -42 -17 -532 -33
-773 -26 l-126 4 4 181 c6 252 10 283 37 292 17 5 18 8 6 18 -11 9 -14 43 -14
166 l0 155 135 1 c74 0 171 4 215 8 231 21 349 25 500 18z m601 -310 c8 -5 9
-24 3 -62 -4 -30 -8 -83 -8 -117 l-1 -62 -162 -1 c-90 0 -203 -4 -253 -8 -49
-5 -93 -7 -98 -5 -8 5 -2 226 7 241 4 6 45 8 104 5 53 -2 124 -1 157 4 80 11
237 14 251 5z m-1751 -67 c234 0 240 0 238 -20 -2 -11 -6 -48 -9 -82 l-7 -63
-46 0 c-46 -1 -186 -6 -423 -14 -71 -3 -128 -2 -128 2 0 11 20 135 25 159 4
18 13 22 48 25 23 2 47 1 52 -2 6 -3 118 -5 250 -5z m820 -525 c-2 -10 -9 -28
-15 -40 -6 -11 -14 -53 -17 -91 -3 -39 -11 -72 -17 -74 -6 -2 -48 -6 -93 -10
-80 -6 -82 -6 -87 17 -3 13 -2 66 2 118 l7 95 80 5 c113 7 144 2 140 -20z"/>
<path d="M1180 1085 c0 -9 16 -30 35 -48 19 -17 35 -37 35 -43 0 -11 -191
-195 -209 -202 -3 -1 -27 18 -51 43 -24 25 -52 45 -63 45 -18 0 -18 -1 0 -31
10 -17 30 -41 46 -52 35 -27 34 -38 -4 -66 -46 -34 -22 -49 26 -17 l38 26 31
-33 c17 -18 38 -38 46 -43 8 -5 39 -37 69 -72 l54 -63 -27 -28 c-27 -28 -34
-51 -15 -51 7 0 22 11 35 25 26 29 46 32 64 10 7 -8 18 -15 26 -15 25 0 26 22
3 47 -19 20 -21 27 -10 31 18 6 90 83 131 141 29 40 33 42 49 27 35 -32 55 -9
29 34 -10 15 -9 22 6 39 10 11 23 18 27 15 5 -3 6 2 3 10 -8 21 -16 20 -45 -3
-25 -19 -25 -19 -59 13 -19 18 -48 52 -65 77 -16 24 -40 52 -52 62 -31 25 -29
39 8 66 43 32 23 53 -20 22 -35 -25 -57 -19 -85 24 -18 27 -56 34 -56 10z
m125 -153 c12 -9 33 -35 48 -58 15 -22 43 -55 62 -74 37 -36 44 -57 21 -66 -8
-3 -17 -15 -20 -27 -6 -25 -121 -147 -138 -147 -11 0 -5 206 8 264 5 21 3 27
-6 24 -23 -7 -38 -70 -39 -160 -1 -54 -5 -88 -11 -88 -6 0 -20 16 -32 36 -11
19 -36 45 -54 58 -18 12 -42 34 -54 48 l-20 26 97 91 c54 50 102 91 108 91 5
0 19 -8 30 -18z"/>
</g>
</svg>
