<?xml version="1.0" standalone="no"?>
<!DOCTYPE svg PUBLIC "-//W3C//DTD SVG 20010904//EN"
 "http://www.w3.org/TR/2001/REC-SVG-20010904/DTD/svg10.dtd">
<svg version="1.0" xmlns="http://www.w3.org/2000/svg"
 width="184.000000pt" height="158.000000pt" viewBox="0 0 184.000000 158.000000"
 preserveAspectRatio="xMidYMid meet">
<metadata>
Created by potrace 1.16, written by Peter Selinger 2001-2019
</metadata>
<g transform="translate(0.000000,158.000000) scale(0.100000,-0.100000)"
fill="#000000" stroke="none">
<path d="M715 1462 c-37 -25 -55 -74 -70 -188 -24 -180 -43 -286 -54 -297 -13
-13 -60 -11 -215 7 -70 9 -132 14 -136 11 -4 -3 -14 -19 -22 -37 -11 -25 -14
-67 -13 -166 1 -73 5 -135 8 -138 3 -3 16 1 29 9 12 8 34 14 48 12 14 -1 78
-3 144 -4 l119 -1 -7 -57 c-3 -32 -8 -87 -12 -123 -3 -36 -10 -83 -14 -105 -7
-31 -5 -44 8 -60 9 -11 18 -22 20 -25 4 -6 342 -6 343 0 0 3 1 42 3 87 1 45 4
85 7 87 8 9 213 11 247 2 26 -6 33 -4 38 11 3 10 14 36 25 59 10 23 19 62 19
86 0 37 4 47 20 51 30 8 271 2 296 -7 20 -7 21 -3 28 78 3 48 7 92 9 98 1 6
-16 22 -38 34 -32 18 -62 24 -145 29 -58 3 -112 8 -120 10 -23 7 -3 171 23
190 23 17 13 22 -43 24 -105 3 -247 12 -278 17 -29 5 -33 8 -28 27 11 37 25
119 30 169 7 70 -5 78 -120 78 -81 0 -97 3 -114 20 -23 23 -21 22 -35 12z
m122 -69 c63 -4 93 -10 97 -19 5 -13 -17 -168 -29 -211 -11 -34 26 -47 132
-49 50 -1 118 -5 151 -9 l59 -7 -13 -76 c-7 -42 -22 -126 -34 -186 -11 -60
-20 -135 -20 -165 0 -31 -7 -69 -15 -85 -9 -16 -13 -36 -10 -45 5 -15 -7 -16
-120 -13 -180 6 -172 10 -174 -94 0 -47 -3 -90 -7 -95 -3 -6 -27 -8 -52 -5
-26 3 -86 8 -134 12 -99 7 -93 -1 -78 104 23 175 32 215 47 233 14 15 15 20 4
27 -8 4 -13 21 -13 36 2 69 11 167 27 274 9 63 18 129 20 145 1 17 6 71 10
120 9 103 19 130 43 120 9 -4 58 -10 109 -12z m-356 -459 c14 -3 44 -1 67 4
l42 10 -6 -52 c-8 -69 -23 -168 -26 -171 -2 -2 -57 -5 -123 -8 -67 -3 -134 -9
-150 -13 l-28 -7 8 84 c4 46 7 101 7 121 -1 33 2 37 26 41 29 5 140 -1 183 -9z
m1055 -79 c8 -2 9 -17 4 -47 -5 -24 -8 -51 -7 -61 2 -15 -13 -17 -149 -20
-149 -4 -152 -4 -149 17 3 28 16 99 20 111 2 9 253 10 281 0z"/>
<path d="M1066 907 c-70 -74 -81 -78 -198 -72 -57 3 -118 8 -136 11 -31 5 -62
-8 -62 -26 0 -5 20 -16 45 -26 35 -13 64 -16 124 -11 79 5 79 5 91 -22 23 -57
164 -136 184 -103 3 5 -11 22 -32 38 -20 15 -49 39 -64 54 l-27 27 37 35 c20
20 56 48 80 62 49 30 54 41 15 32 l-28 -7 23 16 c26 19 29 35 6 35 -9 0 -35
-20 -58 -43z"/>
</g>
</svg>
