<?xml version="1.0" standalone="no"?>
<!DOCTYPE svg PUBLIC "-//W3C//DTD SVG 20010904//EN"
 "http://www.w3.org/TR/2001/REC-SVG-20010904/DTD/svg10.dtd">
<svg version="1.0" xmlns="http://www.w3.org/2000/svg"
 width="216.000000pt" height="140.000000pt" viewBox="0 0 216.000000 140.000000"
 preserveAspectRatio="xMidYMid meet">
<metadata>
Created by potrace 1.16, written by Peter Selinger 2001-2019
</metadata>
<g transform="translate(0.000000,140.000000) scale(0.100000,-0.100000)"
fill="#000000" stroke="none">
<path d="M383 1163 c-23 -9 -14 -31 15 -37 15 -3 97 -5 182 -5 85 1 180 -4
210 -10 75 -15 1103 -3 1130 14 3 2 4 -49 4 -113 -1 -77 2 -120 10 -124 8 -6
7 -8 -1 -8 -9 0 -13 -20 -13 -66 0 -36 -4 -95 -10 -132 -5 -37 -17 -124 -26
-194 l-17 -126 -31 -6 c-34 -6 -123 -13 -266 -22 -52 -3 -144 -9 -205 -13
-145 -11 -397 -12 -460 -2 -28 5 -38 9 -23 10 15 0 29 5 33 11 3 5 12 7 20 3
9 -3 21 0 28 5 7 6 61 13 120 16 89 5 109 3 113 -9 9 -22 31 -18 37 5 4 16 14
20 56 21 28 1 63 2 79 4 195 14 272 15 291 3 11 -7 23 -10 26 -7 3 4 14 37 25
75 18 67 26 150 22 243 -2 42 -3 43 -29 37 -41 -9 -375 -37 -398 -33 -16 2
-13 7 18 22 20 10 37 23 37 27 0 5 -9 4 -19 -2 -13 -7 -20 -7 -23 1 -2 6 -31
-3 -70 -21 -60 -28 -73 -31 -149 -28 -73 3 -81 5 -59 15 30 14 11 17 -25 3
-14 -5 -67 -12 -118 -14 l-92 -4 130 63 c72 35 125 64 118 64 -7 1 -50 -17
-95 -40 -46 -22 -144 -65 -218 -96 -74 -30 -139 -59 -145 -64 -21 -21 37 -7
106 25 67 31 74 33 86 18 7 -10 13 -22 13 -28 0 -11 -68 -48 -144 -78 -26 -11
-36 -21 -33 -30 4 -10 -4 -17 -26 -21 -66 -13 -62 -7 -59 -110 4 -94 4 -95
-20 -96 -12 -1 -27 0 -33 1 -5 1 -29 2 -53 2 -54 1 -63 17 -51 83 14 71 19
145 24 345 6 209 6 205 -3 300 -5 58 -11 75 -23 78 -27 5 -37 -44 -27 -131 4
-43 6 -90 3 -105 -2 -14 -5 -102 -6 -196 0 -94 -7 -213 -15 -263 -7 -51 -11
-100 -8 -108 7 -18 26 -23 124 -33 67 -6 75 -9 73 -27 -1 -11 0 -27 4 -35 4
-8 5 -52 4 -97 -3 -71 -1 -83 13 -83 18 0 19 4 17 76 -1 35 3 55 14 64 8 7 15
25 15 39 0 61 -7 60 360 65 302 4 428 9 730 33 52 4 129 7 170 8 69 0 75 2 73
20 -3 21 16 186 43 379 14 101 18 362 6 410 -5 17 -12 18 -106 10 -56 -4 -216
-9 -356 -10 -140 -1 -354 -2 -475 -3 -121 -1 -256 3 -300 9 -44 6 -130 11
-192 11 -62 0 -115 4 -118 9 -7 11 -22 12 -42 3z m1311 -495 c8 -43 8 -153 -1
-162 -5 -4 -13 -24 -18 -44 -11 -37 -11 -37 -75 -44 -102 -10 -251 -15 -242
-7 4 4 41 22 84 38 56 23 93 31 137 31 50 0 61 3 61 16 0 14 -7 15 -37 10 -21
-4 -59 -8 -85 -10 -26 -2 -55 -9 -63 -16 -24 -20 -176 -80 -202 -80 -57 0 8
53 80 64 31 5 38 9 27 16 -11 7 -4 14 30 28 44 19 207 48 243 43 16 -2 35 24
25 35 -3 3 -40 -5 -83 -16 -79 -21 -104 -21 -65 0 38 21 13 22 -27 2 -28 -15
-63 -21 -130 -23 -51 -2 -95 0 -99 3 -3 4 14 17 38 29 37 20 64 24 203 30 161
7 195 13 195 31 0 7 -17 8 -47 3 -27 -4 -88 -9 -136 -10 -78 -3 -86 -2 -70 10
24 19 11 19 -34 0 -47 -20 -143 -20 -143 -1 0 24 18 29 119 32 53 2 132 7 176
12 139 13 132 14 139 -20z m-814 -3 c-46 -18 -59 -18 -36 0 11 8 31 15 45 14
24 0 23 -2 -9 -14z m105 5 c6 -10 -53 -45 -62 -36 -11 11 7 35 29 39 13 2 24
5 25 6 1 0 4 -3 8 -9z m241 -38 c-8 -7 -86 -9 -86 -1 0 3 19 14 43 26 41 20
42 20 45 1 2 -11 1 -22 -2 -26z m-178 13 c-2 -19 -8 -25 -25 -25 -25 0 -33 34
-10 43 27 11 37 6 35 -18z m71 -2 c-28 -13 -53 -22 -55 -20 -2 1 -1 12 2 23 4
17 14 20 56 20 l50 0 -53 -23z m-229 -8 c0 -10 -10 -15 -27 -15 l-28 1 25 14
c31 18 30 18 30 0z m80 -9 c0 -3 -4 -8 -10 -11 -5 -3 -10 -1 -10 4 0 6 5 11
10 11 6 0 10 -2 10 -4z m-160 -41 c0 -17 -48 -54 -107 -84 -52 -26 -56 -26
-43 -2 7 14 7 22 -2 27 -6 4 19 22 63 45 74 37 89 39 89 14z m475 15 c-3 -5
-12 -10 -18 -10 -7 0 -6 4 3 10 19 12 23 12 15 0z m-177 -32 c-2 -28 -8 -34
-30 -36 -24 -3 -28 0 -28 20 0 29 17 48 43 48 15 0 18 -6 15 -32z m38 -26
c-12 -12 -18 8 -10 35 l8 28 4 -28 c2 -16 1 -31 -2 -35z m84 49 c0 -11 -39
-41 -52 -41 -5 0 -8 11 -8 25 0 21 5 25 30 25 17 0 30 -4 30 -9z m-266 -12
c-4 -7 -7 -21 -8 -33 -1 -26 -31 -33 -40 -10 -11 29 3 54 30 54 16 0 23 -4 18
-11z m-81 -18 c-4 -17 -41 -36 -51 -26 -5 5 36 45 47 45 5 0 7 -9 4 -19z m145
-26 c-2 -1 -13 -6 -25 -9 -17 -5 -23 -3 -23 8 0 8 10 22 23 31 21 15 22 14 25
-6 2 -11 2 -22 0 -24z m-232 -31 c-4 -15 -10 -40 -13 -56 -4 -23 -15 -34 -42
-45 -72 -29 -121 -55 -121 -64 0 -15 26 -10 71 15 24 13 54 27 66 30 20 6 22
4 21 -34 l0 -40 -89 0 -89 0 6 28 c18 80 26 102 36 102 11 0 60 30 118 71 35
25 43 23 36 -7z m541 -4 c-73 -37 -97 -39 -97 -7 0 13 3 27 7 30 3 4 38 7 77
7 l71 -1 -58 -29z m-136 -7 c-7 -25 -12 -28 -49 -29 -44 -1 -55 13 -28 35 11
9 15 9 19 -1 3 -9 7 -8 12 5 4 9 18 17 30 17 20 0 22 -3 16 -27z m-121 7 c-20
-13 -43 -13 -35 0 3 6 16 10 28 10 18 0 19 -2 7 -10z m-224 -6 c24 -6 23 -34
-2 -55 -11 -9 -11 -15 -3 -25 16 -20 2 -66 -19 -62 -13 2 -17 14 -18 48 -2 51
5 100 15 100 3 0 16 -3 27 -6z m94 -19 c0 -18 -7 -26 -25 -31 -14 -4 -28 -4
-31 -1 -12 12 8 46 29 50 12 2 23 5 25 6 1 0 2 -10 2 -24z m70 5 c-6 -11 -12
-20 -15 -20 -2 0 -10 -3 -19 -6 -11 -4 -16 0 -16 13 0 26 8 33 37 33 21 0 22
-3 13 -20z m-414 -9 c-4 -5 -12 -35 -20 -68 l-14 -58 -1 68 c-1 61 1 67 20 67
11 0 18 -4 15 -9z m484 0 c0 -5 -9 -11 -21 -14 -16 -4 -18 -3 -8 9 13 16 29
19 29 5z m110 -30 c0 -5 -13 -19 -30 -31 l-30 -21 0 25 c0 23 12 32 48 35 6 0
12 -3 12 -8z m-120 -25 c0 -15 -7 -26 -20 -29 -16 -4 -20 0 -20 18 0 21 10 32
33 34 4 1 7 -10 7 -23z m48 2 c-5 -32 -28 -35 -28 -4 0 17 5 26 16 26 10 0 14
-7 12 -22z m-110 -10 c-2 -17 -11 -24 -30 -26 -32 -4 -39 21 -10 37 29 17 44
13 40 -11z m-90 0 c19 -19 14 -28 -17 -28 -24 0 -28 3 -24 20 6 23 23 26 41 8z"/>
<path d="M1415 480 c-3 -5 1 -10 9 -10 9 0 16 5 16 10 0 6 -4 10 -9 10 -6 0
-13 -4 -16 -10z"/>
<path d="M1247 1073 c-10 -18 25 -104 48 -119 14 -9 25 -22 25 -28 0 -16 -106
-96 -127 -96 -3 0 -3 29 1 65 4 43 3 65 -4 65 -16 0 -30 -46 -30 -98 l0 -47
-55 58 c-30 32 -55 60 -55 62 0 6 88 64 131 85 21 11 39 25 39 31 0 15 -463 6
-468 -9 -2 -8 15 -12 55 -13 32 -1 61 -1 65 0 7 1 130 0 196 -1 12 0 33 3 47
6 42 11 28 -7 -40 -50 -61 -39 -69 -41 -165 -48 -106 -7 -160 -21 -144 -35 5
-5 35 -5 69 1 71 12 165 4 176 -14 11 -18 -20 -26 -107 -27 -93 -1 -134 -10
-134 -28 0 -9 6 -12 18 -9 9 3 60 8 112 11 52 3 109 8 125 10 23 4 39 -2 68
-26 38 -31 49 -59 23 -59 -8 0 -18 -5 -22 -11 -9 -15 53 -2 81 17 52 34 138
54 235 54 53 0 143 7 201 16 71 10 105 12 107 5 5 -14 28 -14 53 0 20 10 20
12 3 30 -13 15 -16 29 -10 71 3 29 7 64 9 77 l2 24 -115 -2 c-63 -1 -165 -4
-227 -7 -111 -6 -112 -6 -136 20 -24 26 -42 33 -50 19z m479 -75 c-4 -13 -10
-43 -13 -68 -3 -25 -8 -48 -11 -52 -13 -12 -207 -29 -307 -26 l-100 3 43 28
c23 15 42 31 42 35 0 5 -14 23 -31 40 -18 18 -30 34 -28 37 8 8 157 20 283 23
l129 3 -7 -23z"/>
<path d="M1039 1006 c-2 -3 -58 -7 -124 -11 -137 -7 -165 -11 -165 -26 0 -6
44 -8 128 -3 176 8 198 12 176 34 -6 6 -12 8 -15 6z"/>
</g>
</svg>
