<?xml version="1.0" standalone="no"?>
<!DOCTYPE svg PUBLIC "-//W3C//DTD SVG 20010904//EN"
 "http://www.w3.org/TR/2001/REC-SVG-20010904/DTD/svg10.dtd">
<svg version="1.0" xmlns="http://www.w3.org/2000/svg"
 width="248.000000pt" height="150.000000pt" viewBox="0 0 248.000000 150.000000"
 preserveAspectRatio="xMidYMid meet">
<metadata>
Created by potrace 1.16, written by Peter Selinger 2001-2019
</metadata>
<g transform="translate(0.000000,150.000000) scale(0.100000,-0.100000)"
fill="#000000" stroke="none">
<path d="M890 1440 c-8 -5 -45 -10 -82 -10 -36 0 -73 -3 -82 -6 -18 -7 -22
-34 -5 -34 8 0 8 -4 0 -14 -9 -11 -9 -16 0 -22 9 -5 10 -35 4 -113 -4 -58 -8
-117 -9 -130 l-1 -24 -105 6 c-160 8 -267 38 -318 88 -57 56 -88 11 -94 -136
l-3 -80 28 0 c21 1 26 -3 21 -15 -10 -24 -21 -280 -15 -335 8 -63 29 -70 72
-24 16 17 50 45 74 60 41 26 55 29 162 34 64 3 125 8 136 11 15 5 18 2 14 -13
-18 -63 -27 -135 -32 -248 -2 -55 -11 -133 -20 -173 -13 -56 -14 -76 -5 -87
16 -19 28 -12 91 47 30 28 81 68 114 90 l60 39 111 -2 c62 -1 117 2 123 5 6 4
11 4 11 -1 0 -9 59 -8 248 3 107 6 125 4 141 -10 17 -16 20 -16 35 0 10 10 32
16 54 16 21 0 44 3 51 8 24 14 1 30 -46 30 -35 0 -43 3 -35 12 5 7 10 40 11
73 1 33 3 69 5 80 3 11 5 25 5 32 1 7 8 10 16 7 9 -4 26 6 43 23 42 46 112 73
190 72 154 0 154 0 149 -19 -8 -30 14 -130 28 -130 18 0 25 23 25 81 0 28 7
63 15 79 9 17 11 30 6 30 -5 0 -11 8 -13 18 -4 12 16 43 58 93 35 41 64 76 64
79 0 3 14 14 30 24 37 21 30 40 -12 31 -22 -5 -33 -2 -42 10 -10 14 -32 18
-112 21 -54 2 -170 9 -256 16 l-158 12 0 45 c0 36 5 49 20 59 12 7 18 17 15
22 -10 16 45 153 72 182 15 15 24 30 21 34 -3 3 -33 0 -67 -7 -49 -9 -67 -9
-92 2 -23 9 -87 12 -228 12 -108 -1 -220 3 -248 8 -127 22 -150 27 -176 38
-34 13 -47 14 -67 1z m174 -66 c14 -5 9 -11 -26 -32 -24 -14 -55 -36 -70 -50
l-28 -26 -1 35 c0 19 -2 47 -4 62 l-4 28 58 -5 c31 -3 65 -8 75 -12z m-214 -2
c0 -4 -16 -31 -35 -59 -19 -29 -35 -58 -35 -64 0 -7 -3 -9 -7 -5 -4 3 -8 36
-9 71 l-2 65 44 0 c24 0 44 -3 44 -8z m46 -92 c-8 -100 1 -102 81 -24 101 97
102 98 371 100 214 2 233 1 245 -16 17 -25 13 -203 -8 -322 -9 -51 -21 -167
-26 -258 -5 -91 -12 -209 -16 -262 l-6 -98 -31 -1 c-17 0 -65 -2 -106 -5 -150
-10 -443 -5 -451 8 -5 8 -17 9 -41 2 -32 -10 -62 -6 -153 20 -29 8 -40 16 -38
30 10 126 15 170 24 224 18 114 27 235 19 257 -2 6 0 57 4 115 7 81 14 116 33
155 29 57 92 155 100 155 3 0 3 -36 -1 -80z m807 58 c-5 -7 -20 -40 -34 -73
-23 -58 -24 -59 -30 -30 -4 17 -7 47 -8 67 -1 33 2 37 27 41 53 8 55 8 45 -5z
m-1388 -227 l55 -29 -38 -23 c-35 -22 -90 -49 -98 -49 -2 0 -4 12 -4 28 0 30
18 102 26 102 2 0 29 -13 59 -29z m398 -106 c-7 -168 -16 -265 -23 -270 -17
-11 -336 -8 -363 3 -39 16 -47 15 -47 -8 0 -12 13 -28 33 -40 17 -11 27 -20
21 -20 -6 0 -23 -11 -37 -24 -23 -22 -27 -22 -32 -7 -3 9 -3 53 -1 98 4 85 6
90 78 196 44 65 44 91 1 82 l-28 -6 24 18 c43 32 83 38 232 38 l145 0 -3 -60z
m1016 -11 c17 -4 31 -9 31 -13 -1 -9 -111 -71 -128 -71 -11 0 -13 8 -8 31 3
17 6 38 6 45 0 15 45 19 99 8z m275 -13 l29 -1 -7 -97 c-3 -54 -8 -107 -10
-118 -3 -19 -11 -20 -162 -21 -87 -1 -176 1 -196 3 l-38 5 0 56 c1 57 1 57 48
87 75 47 142 83 159 87 9 2 46 2 82 1 36 -1 79 -2 95 -2z m-1712 -55 c-29 -48
-38 -45 -28 10 6 28 11 34 31 34 l24 0 -27 -44z m1850 24 c16 0 13 -8 -20 -52
-21 -28 -42 -53 -48 -55 -5 -2 -10 25 -12 58 l-2 62 31 -7 c17 -3 40 -6 51 -6z
m-464 -250 l26 0 -34 -30 c-37 -33 -66 -40 -56 -14 3 9 6 25 6 36 0 14 5 18
16 14 9 -3 27 -6 42 -6z m-895 -334 c45 -11 47 -13 25 -23 -13 -6 -44 -27 -71
-47 l-47 -36 6 53 c9 76 7 75 87 53z"/>
<path d="M1175 1202 c-8 -9 -33 -38 -56 -64 -23 -27 -37 -48 -32 -48 5 0 15 6
22 13 11 9 12 9 7 0 -5 -9 2 -11 26 -7 26 4 30 3 16 -6 -14 -8 -15 -16 -8 -36
6 -14 10 -27 10 -30 0 -2 -25 -3 -55 -1 -30 1 -55 6 -55 10 0 4 13 16 30 25
37 21 38 31 3 24 -36 -6 -63 -30 -63 -55 0 -11 3 -17 7 -14 3 4 17 0 31 -9 13
-9 33 -14 43 -11 10 3 17 1 13 -4 -3 -5 3 -9 13 -9 10 0 32 -7 48 -16 17 -9
40 -18 51 -20 30 -6 94 -33 94 -40 0 -7 -187 2 -259 12 -54 8 -118 39 -132 65
-8 16 -14 17 -31 8 -13 -7 -18 -7 -14 -1 11 19 -15 24 -34 7 -22 -20 -29 -55
-32 -168 -1 -68 2 -91 13 -98 22 -13 24 -12 87 40 98 81 119 89 255 86 65 -1
123 -7 129 -13 15 -15 -261 -120 -283 -107 -13 9 -39 -7 -39 -24 0 -9 24 -43
54 -74 50 -53 76 -70 76 -47 0 5 6 7 14 4 10 -4 21 6 32 28 9 18 41 59 70 91
30 32 54 62 54 66 0 9 46 42 64 46 6 1 19 5 29 10 10 4 33 5 52 2 22 -4 38 -1
45 8 9 11 3 16 -30 25 -25 7 -53 24 -70 44 -16 18 -56 47 -90 65 -54 29 -61
36 -71 76 -6 25 -15 42 -20 39 -5 -3 -9 0 -9 5 0 6 4 11 9 11 5 0 12 16 15 36
4 19 9 41 12 48 8 21 -25 27 -41 8z m-197 -328 c6 -4 -53 -41 -75 -48 -22 -7
-23 -5 -23 48 l0 55 48 -26 c26 -15 48 -27 50 -29z m252 -110 c0 -4 -20 -30
-43 -58 -24 -28 -50 -62 -57 -75 -12 -23 -13 -23 -23 -5 -6 10 -21 32 -34 47
-28 35 -29 47 -2 47 11 0 30 5 42 12 12 7 33 14 47 16 14 2 29 7 35 13 10 10
35 12 35 3z"/>
</g>
</svg>
