<?xml version="1.0" standalone="no"?>
<!DOCTYPE svg PUBLIC "-//W3C//DTD SVG 20010904//EN"
 "http://www.w3.org/TR/2001/REC-SVG-20010904/DTD/svg10.dtd">
<svg version="1.0" xmlns="http://www.w3.org/2000/svg"
 width="266.000000pt" height="159.000000pt" viewBox="0 0 266.000000 159.000000"
 preserveAspectRatio="xMidYMid meet">
<metadata>
Created by potrace 1.16, written by Peter Selinger 2001-2019
</metadata>
<g transform="translate(0.000000,159.000000) scale(0.100000,-0.100000)"
fill="#000000" stroke="none">
<path d="M1285 1502 c5 -25 -1 -36 -45 -83 -27 -29 -50 -56 -50 -60 0 -4 8
-10 18 -13 9 -3 0 -3 -21 -1 -68 7 -109 -22 -70 -50 17 -13 18 -22 13 -191
l-3 -101 -66 -3 c-112 -4 -143 -6 -226 -18 -246 -35 -382 -32 -512 11 -63 20
-68 24 -68 50 1 24 -3 28 -24 25 -21 -3 -26 -9 -27 -38 -1 -19 -5 -90 -9 -157
-4 -77 -3 -123 3 -123 12 0 8 -189 -8 -330 -13 -116 -8 -153 18 -148 18 3 19
8 21 73 1 38 4 41 59 69 31 17 68 38 82 49 l25 19 5 -49 c3 -26 3 -59 0 -73
-3 -14 -4 -37 -2 -53 4 -33 32 -37 31 -4 -1 29 11 165 17 194 4 20 11 23 48
23 48 0 48 0 33 -75 -21 -102 -15 -144 18 -132 9 4 14 11 10 17 -8 14 17 184
30 192 5 4 20 8 33 8 22 0 22 -2 22 -115 0 -93 3 -115 14 -115 15 0 24 47 30
163 1 33 8 62 15 66 10 7 146 12 346 14 68 0 70 0 68 -24 -28 -293 -28 -270
-4 -324 48 -111 54 -120 85 -120 26 0 34 8 60 56 40 72 59 96 164 203 108 110
164 157 272 232 47 31 107 77 134 101 26 24 52 43 58 43 39 0 115 -74 205
-198 75 -103 76 -107 63 -148 -9 -27 -9 -47 -1 -80 6 -25 9 -49 6 -55 -4 -5 0
-9 7 -9 23 0 46 70 47 145 2 110 61 356 123 509 11 27 26 74 34 105 8 31 23
75 34 98 11 24 20 47 20 53 0 9 -44 15 -89 12 -8 0 -24 3 -36 8 -31 12 -131
-12 -127 -30 2 -7 -3 -17 -10 -22 -11 -6 -10 -10 1 -17 19 -12 23 -39 9 -64
-7 -14 -7 -17 1 -13 12 8 17 -83 13 -284 -3 -144 -11 -240 -20 -240 -4 0 -31
36 -59 79 -48 70 -53 84 -53 133 0 29 6 78 14 107 13 51 13 52 -6 48 -11 -3
-21 0 -25 9 -3 8 -11 14 -18 14 -6 0 -25 12 -42 28 -16 15 -41 36 -54 46 -13
11 -40 33 -60 50 -19 17 -55 47 -80 66 -52 41 -144 134 -178 179 -13 18 -55
58 -94 89 -106 84 -150 131 -144 153 6 21 -17 46 -28 29 -9 -15 -25 -12 -25 5
0 8 -7 15 -16 15 -12 0 -14 -7 -9 -28z m95 -103 c25 -22 80 -67 122 -99 42
-33 80 -65 84 -72 7 -11 -43 16 -97 54 -15 9 -38 22 -53 28 -14 5 -26 16 -26
23 0 10 -16 16 -49 19 -26 3 -58 12 -71 21 l-22 16 25 25 c15 14 30 26 34 26
4 0 28 -19 53 -41z m-42 -118 c-2 -4 -15 -32 -30 -62 -50 -98 -97 -215 -109
-267 -7 -29 -16 -52 -21 -52 -5 0 -8 87 -6 193 l3 192 40 5 c50 6 127 0 123
-9z m117 -21 c11 -10 49 -35 85 -56 36 -21 85 -56 110 -79 25 -23 57 -51 72
-62 l28 -21 -88 -4 c-52 -3 -128 1 -187 9 -55 8 -123 13 -152 10 l-52 -5 10
26 c5 15 14 36 19 47 5 11 18 40 29 65 23 50 42 82 55 91 12 10 48 -1 71 -21z
m915 -157 c0 -9 -96 -287 -120 -348 -11 -28 -20 -58 -20 -67 0 -9 -3 -19 -7
-21 -12 -7 -9 411 2 422 6 5 19 11 30 13 34 7 115 7 115 1z m-905 -82 l50 -7
-35 -11 c-19 -6 -54 -15 -77 -18 -24 -4 -45 -11 -49 -16 -3 -5 -15 -9 -28 -9
-12 0 -31 -7 -42 -16 -18 -14 -14 -15 44 -10 60 6 63 5 72 -20 6 -14 10 -27
10 -30 0 -3 -26 -5 -57 -5 -32 0 -77 -2 -100 -5 -41 -6 -58 6 -33 21 6 3 10
19 10 35 0 35 17 82 33 92 15 9 133 9 202 -1z m149 -36 c-8 -41 -16 -47 -47
-39 -23 5 -26 10 -21 33 10 39 13 41 45 39 27 -2 29 -5 23 -33z m73 -40 c-23
-34 -45 -61 -48 -59 -5 3 -3 34 6 99 5 29 7 30 44 27 l39 -4 -41 -63z m177 -1
c41 -42 79 -73 84 -70 6 3 14 0 20 -7 8 -9 -1 -23 -35 -52 -25 -22 -78 -70
-118 -107 -39 -38 -76 -68 -82 -68 -6 0 -21 -8 -34 -18 -13 -11 -39 -24 -57
-30 -19 -6 -46 -22 -62 -36 -16 -13 -62 -36 -102 -51 -40 -15 -95 -45 -123
-65 -27 -21 -83 -54 -124 -75 l-74 -37 6 114 c3 62 8 170 10 240 3 104 7 131
21 147 10 11 25 20 34 20 10 -1 59 1 109 2 51 1 94 1 96 -2 1 -2 10 -13 19
-24 17 -20 16 -20 -102 -19 -92 2 -122 -1 -131 -12 -10 -12 3 -14 82 -15 138
0 168 -4 186 -22 15 -15 7 -17 -103 -17 -65 -1 -129 -1 -141 -1 -13 0 -23 -3
-23 -8 0 -4 62 -11 137 -14 119 -5 139 -9 157 -27 28 -28 11 -41 -39 -30 -53
12 -219 22 -239 14 -28 -11 -17 -26 17 -23 17 1 66 -1 107 -5 41 -4 98 -8 125
-9 42 -3 50 -6 51 -23 1 -26 14 -64 22 -64 9 0 32 49 32 67 0 7 9 13 20 13 11
0 20 5 20 10 0 6 -9 10 -19 10 -14 0 -19 6 -18 20 1 11 7 20 14 20 7 0 13 6
13 14 0 17 128 72 189 82 58 9 62 25 4 18 -50 -6 -131 -31 -147 -46 -6 -4 -20
-8 -33 -8 -19 0 -21 4 -15 21 13 33 58 45 182 48 63 1 117 4 119 7 11 11 -16
14 -127 15 -77 1 -122 5 -122 11 0 20 102 168 116 168 2 0 37 -34 78 -76z
m-354 27 c0 -13 -7 -18 -25 -18 -39 0 -34 8 23 36 1 0 2 -7 2 -18z m-1193 -14
c40 -13 75 -26 78 -29 3 -3 -14 -21 -37 -39 -95 -76 -132 -89 -123 -41 2 15 5
51 6 80 1 28 3 52 3 52 1 0 34 -11 73 -23z m808 -9 c11 -11 11 -201 1 -290
l-9 -78 -31 0 c-17 0 -113 -3 -213 -6 -181 -6 -182 -6 -178 15 4 22 47 85 75
111 29 26 90 107 90 118 0 7 -40 9 -127 7 -73 -2 -132 0 -139 6 -7 6 -21 6
-35 0 -13 -5 -46 -6 -74 -4 -95 9 -115 7 -115 -11 0 -18 -22 -26 -68 -26 l-37
1 35 22 c20 12 59 41 88 64 61 49 100 59 175 46 29 -5 62 -6 73 -1 53 23 470
45 489 26z m375 -33 c0 -14 5 -25 10 -25 6 0 10 -4 10 -10 0 -5 -13 -10 -28
-10 -20 0 -32 8 -45 29 -18 32 -13 39 31 40 17 1 22 -5 22 -24z m100 -15 c0
-28 -3 -30 -35 -30 -32 0 -35 2 -35 30 0 28 3 30 35 30 32 0 35 -2 35 -30z
m37 -62 c-3 -7 -5 -2 -5 12 0 14 2 19 5 13 2 -7 2 -19 0 -25z m-137 2 c0 -5
-2 -10 -4 -10 -3 0 -8 5 -11 10 -3 6 -1 10 4 10 6 0 11 -4 11 -10z m85 -1 c4
-5 4 -21 1 -35 -6 -21 -11 -23 -34 -18 -15 4 -28 7 -29 8 -1 1 1 13 4 29 4 20
11 27 29 27 12 0 26 -5 29 -11z m425 -8 c0 -5 -11 -11 -25 -13 -20 -4 -23 -3
-14 8 13 16 39 19 39 5z m11 -52 c-6 -18 -11 -49 -11 -70 0 -44 -9 -48 -36
-18 -10 12 -29 25 -42 30 -22 8 -22 10 -6 34 14 22 93 67 103 59 2 -2 -2 -17
-8 -35z m-1471 15 c0 0 -11 -24 -26 -53 -14 -29 -34 -77 -45 -107 -11 -29 -24
-56 -29 -59 -9 -5 -14 201 -5 215 3 5 105 9 105 4z m114 -3 c3 -5 -7 -26 -22
-47 -15 -22 -38 -61 -52 -87 l-25 -48 -8 43 c-9 54 -1 104 21 126 18 18 78 27
86 13z m135 -20 c-13 -16 -42 -52 -64 -79 -22 -28 -43 -51 -46 -51 -10 -1 -3
129 7 138 12 12 41 18 88 20 l39 1 -24 -29z m-390 -91 c-1 -61 -6 -113 -11
-116 -5 -3 -38 -2 -73 1 -51 6 -65 11 -65 24 0 34 119 201 143 201 5 0 7 -50
6 -110z m1171 70 c0 -25 -29 -38 -41 -19 -15 25 -10 39 16 39 18 0 25 -5 25
-20z m-1268 4 c4 -3 -8 -28 -25 -56 -26 -41 -32 -47 -38 -31 -4 10 -8 35 -8
56 -1 35 0 37 32 37 19 0 36 -3 39 -6z m336 -124 l0 -70 -40 0 -40 0 21 33
c12 17 29 49 39 70 9 20 17 37 18 37 1 0 1 -31 2 -70z m-118 -14 c0 -56 -15
-75 -46 -58 -13 7 -12 12 6 34 11 14 20 35 20 45 0 18 8 33 17 33 2 0 3 -24 3
-54z m-165 -94 l40 -8 -65 -36 c-36 -20 -74 -39 -86 -42 -20 -6 -21 -5 -11 44
9 49 10 50 46 49 20 0 54 -3 76 -7z m936 -216 c-46 -46 -89 -94 -96 -106 -11
-20 -13 -20 -19 -5 -3 9 -3 21 0 27 4 6 1 14 -6 18 -25 15 -1 37 89 84 49 25
93 51 96 56 3 6 9 10 13 10 3 0 -31 -38 -77 -84z"/>
<path d="M1221 611 c3 -9 45 -14 134 -17 97 -4 127 -2 119 6 -17 17 -258 27
-253 11z"/>
</g>
</svg>
