<?xml version="1.0" standalone="no"?>
<!DOCTYPE svg PUBLIC "-//W3C//DTD SVG 20010904//EN"
 "http://www.w3.org/TR/2001/REC-SVG-20010904/DTD/svg10.dtd">
<svg version="1.0" xmlns="http://www.w3.org/2000/svg"
 width="122.000000pt" height="104.000000pt" viewBox="0 0 122.000000 104.000000"
 preserveAspectRatio="xMidYMid meet">
<metadata>
Created by potrace 1.16, written by Peter Selinger 2001-2019
</metadata>
<g transform="translate(0.000000,104.000000) scale(0.100000,-0.100000)"
fill="#000000" stroke="none">
<path d="M262 867 c-27 -32 -51 -166 -56 -312 -4 -82 -9 -189 -12 -237 -8
-105 -2 -131 31 -146 26 -12 149 -10 300 4 171 16 407 22 460 11 56 -11 84 9
69 50 -6 17 -7 54 -1 97 4 38 6 112 5 165 -2 77 -6 96 -18 96 -37 0 -61 -109
-61 -277 l0 -88 -57 -2 c-31 -1 -75 -3 -97 -4 -22 -1 -158 -5 -302 -9 -254 -8
-263 -7 -263 11 0 10 6 60 14 109 8 50 17 158 20 240 4 83 9 176 12 207 3 31
3 66 -1 77 -7 24 -27 27 -43 8z"/>
<path d="M567 836 c-3 -8 -9 -41 -12 -73 -3 -32 -10 -94 -16 -138 -12 -99 -16
-175 -9 -176 41 -5 177 -12 218 -11 177 2 222 6 222 19 0 28 -46 37 -132 25
-52 -7 -102 -8 -133 -2 -27 5 -70 9 -94 9 l-44 1 7 83 c4 45 10 114 14 152 8
78 5 125 -8 125 -4 0 -10 -6 -13 -14z"/>
</g>
</svg>
