<?xml version="1.0" standalone="no"?>
<!DOCTYPE svg PUBLIC "-//W3C//DTD SVG 20010904//EN"
 "http://www.w3.org/TR/2001/REC-SVG-20010904/DTD/svg10.dtd">
<svg version="1.0" xmlns="http://www.w3.org/2000/svg"
 width="127.000000pt" height="117.000000pt" viewBox="0 0 127.000000 117.000000"
 preserveAspectRatio="xMidYMid meet">
<metadata>
Created by potrace 1.16, written by Peter Selinger 2001-2019
</metadata>
<g transform="translate(0.000000,117.000000) scale(0.100000,-0.100000)"
fill="#000000" stroke="none">
<path d="M716 1093 c-14 -14 -4 -47 26 -89 17 -24 35 -44 40 -44 4 0 8 -5 8
-10 0 -6 -12 -8 -27 -5 -16 3 -53 7 -83 10 -30 3 -55 7 -55 8 -1 1 -15 20 -31
42 -17 22 -34 48 -37 58 -9 24 -27 22 -27 -4 0 -25 16 -57 43 -86 l20 -23 -89
0 c-83 1 -91 2 -120 29 -17 15 -33 35 -37 44 -7 19 -37 23 -37 6 0 -6 9 -24
21 -40 l20 -29 -31 0 c-41 0 -46 -16 -54 -180 -4 -74 -11 -173 -16 -220 -5
-47 -11 -122 -14 -167 -4 -45 -11 -94 -16 -108 -15 -38 -12 -72 5 -79 9 -3 18
0 20 7 4 12 31 211 40 297 3 25 9 71 15 104 5 32 9 61 8 65 -1 3 2 31 6 61 4
30 8 80 9 110 2 36 6 55 15 54 6 -1 32 -2 56 -2 32 -2 53 -9 75 -28 17 -14 31
-20 31 -13 0 6 24 -10 53 -37 28 -27 66 -59 82 -71 l30 -22 -48 -1 c-33 0 -49
-5 -53 -15 -5 -11 -10 -13 -19 -5 -13 11 -37 -10 -48 -43 -16 -45 -67 -282
-67 -311 0 -18 -5 -58 -11 -89 -13 -64 3 -57 -174 -74 -61 -6 -80 -12 -80 -23
0 -10 8 -14 25 -12 148 15 324 38 355 46 11 3 32 7 48 11 48 10 29 24 -25 18
-79 -7 -94 7 -91 94 3 70 20 167 49 281 l17 62 56 2 c84 2 90 1 141 -37 68
-50 101 -47 60 5 -28 36 -25 40 24 40 48 0 61 -9 96 -65 12 -19 26 -35 31 -35
13 0 10 31 -6 60 -21 37 -19 40 29 40 51 0 91 -27 121 -84 33 -62 50 -48 51
41 0 43 3 133 7 201 4 67 4 122 0 122 -5 0 -33 -7 -62 -15 -38 -10 -59 -11
-67 -4 -7 6 -35 10 -61 9 -120 -4 -124 -3 -170 46 -24 27 -43 57 -43 69 0 22
-22 40 -34 28z m-21 -245 c40 -40 86 -84 101 -98 l29 -25 -34 -3 c-19 -2 -43
-1 -55 2 -32 8 -226 161 -226 178 0 4 24 9 53 11 28 2 54 4 56 5 1 1 36 -31
76 -70z m191 0 c32 -35 68 -77 80 -95 l22 -31 -21 -6 c-62 -17 -79 -8 -187 94
l-105 99 76 1 76 0 59 -62z m99 50 c36 -10 50 -10 65 0 11 7 31 12 44 12 l24
0 -14 -52 c-7 -29 -14 -71 -14 -93 0 -36 -3 -41 -24 -43 -22 -1 -48 21 -98 88
-6 8 -29 34 -52 58 l-40 42 32 0 c17 0 52 -5 77 -12z m119 -223 c-5 -12 -10
-13 -20 -4 -19 15 -18 19 6 19 13 0 18 -5 14 -15z"/>
</g>
</svg>
