<?xml version="1.0" standalone="no"?>
<!DOCTYPE svg PUBLIC "-//W3C//DTD SVG 20010904//EN"
 "http://www.w3.org/TR/2001/REC-SVG-20010904/DTD/svg10.dtd">
<svg version="1.0" xmlns="http://www.w3.org/2000/svg"
 width="227.000000pt" height="143.000000pt" viewBox="0 0 227.000000 143.000000"
 preserveAspectRatio="xMidYMid meet">
<metadata>
Created by potrace 1.16, written by Peter Selinger 2001-2019
</metadata>
<g transform="translate(0.000000,143.000000) scale(0.100000,-0.100000)"
fill="#000000" stroke="none">
<path d="M1098 1415 c-2 -2 -41 -4 -88 -6 -95 -3 -140 -14 -140 -35 0 -10 13
-14 41 -14 34 0 40 -3 35 -16 -5 -14 -25 -218 -26 -263 0 -11 -18 -13 -97 -8
-98 6 -133 -2 -133 -28 0 -11 26 -14 123 -16 67 -1 147 -2 177 -1 l55 2 -35
-30 c-19 -16 -55 -37 -80 -46 -25 -10 -49 -21 -54 -25 -16 -14 4 -54 39 -79
19 -14 33 -28 32 -32 -6 -18 -140 -116 -181 -132 -40 -15 -46 -21 -40 -39 3
-12 35 -48 70 -81 35 -32 64 -64 64 -71 0 -17 -64 -54 -104 -62 -17 -3 -35 -9
-41 -13 -5 -4 -22 -10 -37 -14 -49 -11 -35 -39 38 -76 l39 -20 -65 3 -65 2 2
45 c1 25 4 122 7 215 4 152 21 402 31 462 5 29 -12 40 -32 21 -11 -12 -51
-225 -53 -282 0 -12 -461 1 -496 14 -36 14 -54 -2 -36 -31 7 -11 10 -24 8 -28
-3 -5 -6 -61 -7 -125 -1 -93 2 -121 15 -141 22 -34 38 -22 35 26 -2 21 0 41 4
45 10 11 406 7 442 -4 l30 -9 -1 -101 c0 -85 -3 -104 -18 -115 -16 -12 -15
-14 8 -36 20 -19 31 -22 53 -16 40 11 376 6 387 -6 2 -2 6 -47 8 -100 l3 -97
-60 -8 c-82 -12 -67 -29 25 -28 115 1 295 12 324 20 47 11 31 34 -24 34 -45 0
-50 2 -51 23 -3 32 1 87 7 124 l5 32 136 -6 c115 -5 139 -9 155 -25 29 -29 43
-18 39 28 -3 21 -3 50 -2 64 1 14 2 69 1 122 0 53 3 99 8 102 5 3 80 7 168 10
87 3 204 8 260 12 97 6 102 5 123 -17 21 -22 23 -23 35 -7 9 12 11 32 6 65 -4
27 -6 55 -5 63 2 8 4 39 6 69 l4 54 -120 -1 c-66 -1 -178 -4 -250 -7 -71 -2
-152 -1 -180 3 l-50 7 -1 40 c-1 22 -2 81 -4 130 -2 50 0 98 4 107 7 16 -5 17
-193 12 l-201 -5 6 33 c3 18 9 51 14 73 5 22 12 63 15 90 8 63 27 93 62 97 14
2 28 9 31 15 6 20 -48 35 -98 28 -25 -3 -59 -1 -77 4 -17 5 -33 8 -35 6z m69
-55 c20 0 23 -4 18 -21 -4 -11 -8 -45 -10 -75 -2 -31 -6 -58 -9 -61 -3 -4 -9
-27 -12 -53 -3 -26 -10 -53 -14 -60 -10 -15 -165 -26 -174 -12 -3 5 -1 24 4
43 9 33 18 129 19 196 1 28 6 34 34 42 17 6 52 8 76 6 24 -3 55 -5 68 -5z m99
-329 c38 5 111 8 162 8 l92 1 1 -77 c0 -43 0 -141 -2 -218 -1 -77 -1 -171 0
-210 2 -137 1 -234 -5 -248 -5 -15 -26 -15 -189 -3 -165 12 -234 16 -362 18
-73 1 -133 3 -133 4 0 14 40 70 80 111 27 28 50 56 50 62 0 15 47 45 151 97
96 48 139 78 139 99 0 6 -21 21 -46 33 -26 13 -73 46 -106 75 l-60 52 7 68
c12 125 24 139 111 126 22 -3 72 -2 110 2z m-262 -118 c-3 -27 -8 -49 -9 -51
-5 -5 -83 37 -90 48 -3 5 0 10 7 10 7 0 29 9 48 19 19 11 39 20 43 20 5 1 5
-20 1 -46z m32 -144 c30 -17 54 -34 54 -38 0 -4 -7 -16 -16 -26 -8 -11 -32
-45 -52 -76 -52 -80 -96 -138 -103 -139 -16 -1 -34 87 -27 125 23 112 32 142
51 163 26 28 29 28 93 -9z m-462 -36 c2 -10 5 -51 6 -92 1 -72 0 -73 -22 -66
-25 8 -242 16 -375 15 l-83 -2 0 74 0 73 217 3 c119 1 219 5 222 7 10 11 30 4
35 -12z m1500 11 l46 -7 -1 -41 c-1 -22 -4 -54 -8 -71 -5 -26 -11 -30 -41 -31
-174 -5 -405 -15 -448 -19 l-53 -5 3 80 3 81 190 5 c104 3 191 7 194 9 6 7 60
6 115 -1z m-1208 -89 c-8 -31 -16 -59 -18 -61 -3 -2 -20 13 -39 32 -19 20 -29
38 -24 40 6 2 28 15 50 28 22 14 41 23 43 21 2 -1 -4 -29 -12 -60z m274 30 c7
-8 21 -15 31 -15 11 0 19 -3 19 -8 0 -9 -14 -17 -103 -65 l-67 -37 21 42 c29
57 60 98 75 98 6 0 17 -7 24 -15z m-258 -243 c-4 -10 -26 -40 -48 -67 l-42
-48 -36 29 c-20 16 -36 32 -36 36 0 3 15 10 33 13 17 4 52 18 77 31 55 28 61
29 52 6z m333 -209 c-13 -31 -25 -117 -20 -140 6 -26 -6 -30 -85 -35 l-55 -3
-3 75 c-5 121 -6 120 89 120 73 0 80 -2 74 -17z"/>
</g>
</svg>
