<?xml version="1.0" standalone="no"?>
<!DOCTYPE svg PUBLIC "-//W3C//DTD SVG 20010904//EN"
 "http://www.w3.org/TR/2001/REC-SVG-20010904/DTD/svg10.dtd">
<svg version="1.0" xmlns="http://www.w3.org/2000/svg"
 width="211.000000pt" height="135.000000pt" viewBox="0 0 211.000000 135.000000"
 preserveAspectRatio="xMidYMid meet">
<metadata>
Created by potrace 1.16, written by Peter Selinger 2001-2019
</metadata>
<g transform="translate(0.000000,135.000000) scale(0.100000,-0.100000)"
fill="#000000" stroke="none">
<path d="M1315 1261 c-57 -54 -109 -77 -190 -85 -98 -10 -316 -43 -432 -65
-175 -35 -298 -45 -321 -27 -20 15 -33 -13 -26 -55 7 -47 -18 -64 -110 -72
-75 -7 -118 -30 -92 -51 14 -11 23 -91 32 -299 4 -77 0 -131 -11 -187 -9 -46
-13 -94 -9 -115 6 -31 9 -35 33 -32 24 4 26 7 27 58 2 96 13 201 25 238 7 20
21 63 32 96 10 33 25 72 33 87 8 14 14 32 14 39 0 24 53 119 66 119 7 0 19 8
26 18 7 11 22 24 34 30 28 15 157 48 219 57 28 4 93 18 145 32 215 58 394 103
406 103 21 0 136 -92 230 -182 47 -46 90 -84 95 -86 5 -2 9 -8 9 -14 0 -6 -7
-7 -16 -4 -15 6 -71 -19 -106 -47 -24 -19 -88 -129 -88 -151 0 -29 69 -126 98
-139 15 -6 32 -18 38 -26 7 -8 18 -11 28 -8 27 11 14 -16 -15 -30 -13 -7 -23
-18 -21 -24 1 -6 -2 -8 -7 -5 -5 3 -34 -20 -65 -52 -62 -65 -196 -147 -233
-144 -13 1 -57 13 -96 27 -40 13 -87 27 -105 30 -18 3 -49 12 -70 19 -20 8
-57 17 -82 21 -25 3 -95 17 -156 32 l-110 26 8 68 c9 72 60 240 84 274 25 35
18 54 -19 50 -110 -13 -161 -41 -135 -72 7 -9 13 -71 16 -159 4 -117 2 -144
-9 -144 -8 0 -52 12 -98 25 -85 25 -157 33 -147 16 3 -5 18 -12 33 -15 16 -4
71 -20 124 -37 85 -26 97 -33 102 -55 5 -30 -5 -37 -41 -30 -15 3 -45 8 -67
11 -22 3 -51 8 -65 11 -14 2 -36 6 -50 9 -30 5 -59 -10 -45 -23 15 -14 63 -23
69 -14 3 5 34 5 68 0 35 -5 77 -10 93 -12 28 -3 30 -6 36 -57 3 -30 4 -78 2
-107 -3 -30 0 -52 5 -52 6 0 13 44 17 97 4 54 9 101 11 104 2 4 50 -2 106 -12
104 -19 178 -26 368 -36 108 -5 155 -17 129 -34 -23 -14 19 -37 81 -45 30 -4
68 -13 85 -20 39 -16 59 -6 47 26 -7 18 4 44 55 134 35 61 80 127 102 146 21
19 63 62 91 95 100 114 111 125 120 125 5 0 5 -14 -1 -32 -6 -18 -12 -49 -14
-68 -1 -19 -10 -82 -18 -140 -23 -153 -26 -190 -18 -190 12 0 31 48 31 78 0
79 58 402 72 402 6 0 6 6 -1 14 -12 14 -8 64 10 131 18 66 104 260 127 287 21
25 6 38 -46 38 -26 0 -63 4 -82 10 -54 15 -58 4 -51 -140 4 -69 4 -156 1 -193
l-5 -69 -40 63 c-22 35 -83 112 -135 170 -142 160 -187 228 -170 260 19 34
-21 22 -65 -20z m50 -31 c7 -21 97 -141 154 -204 92 -101 127 -146 136 -176 4
-14 24 -44 43 -67 46 -57 24 -55 -25 1 -21 24 -59 60 -84 79 -25 19 -87 73
-136 121 -50 47 -108 99 -131 115 -53 39 -58 49 -27 57 28 7 31 14 13 32 -9 9
-6 17 12 37 28 30 37 31 45 5z m-276 -85 c-2 -1 -44 -13 -94 -25 -49 -12 -99
-25 -110 -30 -11 -5 -74 -18 -140 -30 -66 -12 -166 -35 -222 -51 -117 -33
-129 -35 -137 -13 -18 46 -9 54 58 54 59 0 188 21 331 55 33 8 93 17 134 21
41 4 86 10 100 14 27 7 86 11 80 5z m739 -107 c-22 -57 -44 -112 -48 -123 -6
-12 -9 27 -9 103 l-1 122 49 0 49 0 -40 -102z m-1488 -121 c0 -2 -13 -31 -30
-65 -16 -34 -30 -67 -30 -73 0 -5 -6 -20 -14 -32 -8 -12 -23 -47 -33 -77 l-18
-55 -9 100 c-5 55 -9 120 -10 145 -1 42 1 45 29 50 40 7 115 12 115 7z m1268
-144 c29 -42 35 -120 11 -144 -10 -10 -19 -23 -19 -28 0 -15 -73 -54 -98 -53
-13 1 -33 9 -44 17 -19 13 -20 15 -5 21 23 8 22 24 -1 24 -11 0 -26 8 -34 18
-21 23 -33 103 -17 113 7 4 14 17 16 30 4 26 27 46 68 57 37 11 94 -15 123
-55z m-1035 -125 c-14 -51 -28 -109 -32 -128 -6 -31 -8 -27 -14 35 -15 156 -8
184 49 185 l21 0 -24 -92z m1147 52 c0 -4 -10 -15 -22 -26 -20 -18 -21 -18
-15 -1 4 10 7 25 7 33 0 8 6 11 15 8 8 -4 15 -9 15 -14z m-1095 -356 c76 -17
75 -17 155 -29 30 -4 66 -12 80 -18 14 -5 57 -18 95 -28 l70 -17 -125 4 c-69
3 -159 11 -200 19 -41 8 -96 17 -122 21 -41 5 -48 10 -48 28 0 22 8 36 19 36
3 0 38 -7 76 -16z m789 4 c-4 -7 -28 -44 -53 -83 -24 -38 -45 -71 -46 -73 -6
-9 -95 13 -95 23 0 18 67 56 86 48 8 -3 20 2 27 10 31 41 73 86 80 87 5 0 5
-6 1 -12z"/>
</g>
</svg>
