<?xml version="1.0" standalone="no"?>
<!DOCTYPE svg PUBLIC "-//W3C//DTD SVG 20010904//EN"
 "http://www.w3.org/TR/2001/REC-SVG-20010904/DTD/svg10.dtd">
<svg version="1.0" xmlns="http://www.w3.org/2000/svg"
 width="236.000000pt" height="93.000000pt" viewBox="0 0 236.000000 93.000000"
 preserveAspectRatio="xMidYMid meet">
<metadata>
Created by potrace 1.16, written by Peter Selinger 2001-2019
</metadata>
<g transform="translate(0.000000,93.000000) scale(0.100000,-0.100000)"
fill="#000000" stroke="none">
<path d="M1270 882 c0 -4 -32 -37 -72 -72 l-72 -65 -136 -9 c-74 -4 -242 -9
-373 -10 -206 -1 -239 -4 -254 -18 -22 -22 -5 -44 40 -51 49 -7 397 11 448 23
24 6 82 13 129 16 47 3 93 7 103 9 22 4 22 2 -7 -59 -13 -28 -27 -79 -30 -112
-3 -34 -8 -73 -11 -87 l-7 -25 -356 -1 c-197 0 -364 0 -373 -1 -19 0 -89 -97
-89 -122 0 -9 11 -25 25 -36 l25 -20 -22 -6 c-17 -4 -20 -8 -11 -17 14 -14
173 -17 333 -6 63 4 158 10 210 12 52 3 111 6 130 8 19 2 65 4 103 5 54 2 67
5 67 18 0 18 -8 17 -522 -7 l-228 -11 -36 27 c-33 25 -36 31 -30 63 9 56 22
64 86 50 40 -8 113 -8 260 -2 113 5 260 8 326 6 134 -3 130 -1 140 -75 6 -42
75 -166 96 -173 10 -3 22 -14 28 -24 5 -10 25 -23 44 -30 31 -10 37 -9 58 13
13 13 46 32 73 42 28 10 93 38 145 63 52 24 131 58 175 74 44 16 103 40 132
54 28 13 56 24 61 24 5 0 35 17 68 38 32 21 92 51 131 66 40 15 75 32 79 37 9
15 -6 31 -20 20 -8 -7 -17 -1 -31 20 -11 16 -24 27 -30 26 -5 -2 -75 29 -155
68 -80 40 -163 78 -185 85 -22 7 -85 37 -140 66 -56 28 -121 57 -145 64 -25 7
-62 21 -82 31 -37 19 -98 26 -98 11z m73 -36 c12 -8 62 -31 112 -51 49 -21
112 -50 140 -65 27 -16 82 -40 121 -53 38 -13 92 -36 119 -51 28 -14 55 -26
61 -26 6 0 22 -8 35 -19 13 -10 55 -34 93 -54 67 -36 68 -37 41 -47 -14 -5
-30 -10 -34 -10 -4 0 -26 -14 -49 -30 -22 -17 -69 -42 -104 -56 -35 -14 -86
-36 -114 -49 -28 -13 -66 -27 -85 -33 -19 -5 -71 -26 -116 -46 -45 -20 -88
-36 -96 -36 -8 0 -17 -9 -20 -20 -6 -24 -27 -27 -27 -4 0 14 -2 15 -16 3 -9
-8 -47 -28 -83 -46 l-66 -32 -33 32 c-55 53 -106 159 -104 217 0 8 -7 30 -15
48 -9 20 -12 47 -9 65 3 18 8 57 11 87 7 81 54 167 126 234 64 60 77 64 112
42z"/>
<path d="M1286 664 c-9 -8 -21 -24 -26 -34 -10 -19 -24 -286 -15 -300 3 -5 31
0 62 11 70 24 67 24 82 -7 9 -21 14 -24 26 -14 9 7 13 21 9 35 -5 20 1 24 58
39 35 10 108 32 163 50 55 18 119 38 143 45 23 6 42 18 42 25 0 6 -28 21 -62
31 -35 10 -83 27 -108 38 -25 11 -65 23 -90 28 -44 9 -109 27 -198 55 -55 18
-67 18 -86 -2z m70 -37 c27 -13 83 -32 124 -41 126 -29 249 -72 250 -86 0 -7
-150 -57 -243 -81 l-69 -17 7 74 c7 73 1 90 -23 62 -13 -18 -26 -76 -23 -114
1 -29 -2 -33 -44 -47 -42 -15 -45 -15 -46 1 -2 23 2 109 6 130 2 9 4 45 4 80
1 34 2 62 4 62 2 0 25 -11 53 -23z"/>
</g>
</svg>
