<?xml version="1.0" standalone="no"?>
<!DOCTYPE svg PUBLIC "-//W3C//DTD SVG 20010904//EN"
 "http://www.w3.org/TR/2001/REC-SVG-20010904/DTD/svg10.dtd">
<svg version="1.0" xmlns="http://www.w3.org/2000/svg"
 width="134.000000pt" height="126.000000pt" viewBox="0 0 134.000000 126.000000"
 preserveAspectRatio="xMidYMid meet">
<metadata>
Created by potrace 1.16, written by Peter Selinger 2001-2019
</metadata>
<g transform="translate(0.000000,126.000000) scale(0.100000,-0.100000)"
fill="#000000" stroke="none">
<path d="M950 1094 c-45 -10 -166 -15 -399 -18 -331 -3 -335 -3 -352 -25 -24
-29 -30 -96 -33 -331 -2 -107 -6 -258 -11 -335 -10 -172 -8 -176 86 -156 33 6
63 10 67 8 4 -3 92 0 197 7 165 10 190 13 193 28 3 13 -3 16 -25 14 -15 -2
-44 -5 -63 -6 -33 -2 -33 -3 -10 -10 17 -6 -2 -8 -55 -7 l-80 2 2 195 c1 107
2 220 2 251 l1 56 173 6 c95 4 207 10 249 13 l77 7 6 -39 c9 -56 14 -66 25
-59 5 3 10 36 10 73 1 61 19 211 35 289 10 45 -13 54 -95 37z m42 -56 c3 -7 1
-47 -3 -88 -4 -41 -8 -87 -8 -101 -1 -21 -7 -28 -33 -34 -18 -4 -40 -9 -48
-12 -8 -2 -118 -6 -245 -9 -126 -3 -236 -7 -243 -10 -21 -6 -4 -23 18 -17 17
5 19 1 15 -23 -16 -88 -47 -454 -41 -471 6 -15 6 -15 -94 -13 -111 2 -118 8
-113 117 1 48 5 111 8 138 3 28 7 138 10 245 7 257 7 260 48 260 45 1 476 19
663 28 44 2 63 -1 66 -10z"/>
</g>
</svg>
