<?xml version="1.0" standalone="no"?>
<!DOCTYPE svg PUBLIC "-//W3C//DTD SVG 20010904//EN"
 "http://www.w3.org/TR/2001/REC-SVG-20010904/DTD/svg10.dtd">
<svg version="1.0" xmlns="http://www.w3.org/2000/svg"
 width="200.000000pt" height="109.000000pt" viewBox="0 0 200.000000 109.000000"
 preserveAspectRatio="xMidYMid meet">
<metadata>
Created by potrace 1.16, written by Peter Selinger 2001-2019
</metadata>
<g transform="translate(0.000000,109.000000) scale(0.100000,-0.100000)"
fill="#000000" stroke="none">
<path d="M1042 1017 c-5 -7 -12 -30 -15 -51 -4 -22 -10 -42 -14 -45 -9 -7 -56
-100 -59 -116 -10 -54 -58 -77 -229 -111 -79 -15 -99 -16 -165 -4 -41 7 -90
14 -108 16 -85 8 -148 25 -164 44 -9 11 -21 20 -27 20 -16 0 -31 -44 -31 -91
0 -41 -1 -41 -60 -43 -18 -1 -24 -5 -20 -16 6 -18 2 -350 -6 -440 -4 -49 -2
-62 6 -54 11 11 16 44 38 236 l7 68 55 -26 55 -26 -34 -26 c-70 -54 -76 -60
-68 -68 4 -5 14 -4 21 1 32 25 111 75 117 75 10 0 5 -232 -5 -254 -7 -14 -6
-18 5 -14 22 7 37 68 33 133 -3 33 -2 77 2 98 l6 38 131 -4 c73 -2 147 0 165
5 37 10 76 -1 124 -36 26 -18 31 -38 16 -62 -4 -6 1 -27 11 -47 10 -19 23 -68
30 -109 14 -90 22 -104 48 -90 10 6 25 21 32 34 13 23 73 75 154 132 22 17 36
31 31 33 -18 6 -84 -26 -117 -57 -18 -16 -48 -42 -68 -59 l-36 -31 -12 71 c-6
39 -16 81 -22 92 -11 19 -9 20 37 12 142 -21 415 18 659 95 224 71 258 80 291
80 36 0 53 15 36 32 -13 13 -58 2 -302 -72 -174 -53 -207 -59 -232 -47 -72 33
-93 168 -31 196 23 10 29 7 84 -49 32 -33 59 -66 59 -74 0 -17 30 -30 43 -17
5 5 2 21 -8 41 -17 34 -17 45 5 158 13 68 24 75 69 43 15 -11 52 -31 83 -44
31 -14 84 -44 118 -66 49 -33 65 -39 76 -30 8 6 12 15 9 19 -7 11 -129 80
-185 105 -25 11 -60 30 -77 43 -17 12 -36 22 -41 22 -6 0 -23 11 -39 24 -15
13 -60 41 -98 62 -39 20 -79 42 -90 48 -41 23 -80 51 -88 64 -6 8 -19 11 -43
6 -32 -6 -39 -2 -84 43 -36 36 -48 55 -44 70 6 23 -19 39 -34 20z m48 -117
c24 -18 24 -19 5 -25 -11 -4 -30 -11 -43 -16 -33 -13 -33 -13 -15 26 19 41 20
41 53 15z m87 -64 c22 -8 47 -13 54 -13 16 2 119 -45 119 -54 0 -4 -13 -12
-30 -19 -16 -7 -30 -16 -30 -19 0 -4 -15 -15 -32 -25 -52 -27 -75 -41 -94 -56
-13 -12 -18 -12 -21 -2 -9 24 -34 12 -82 -40 -51 -54 -62 -55 -85 -10 -11 22
-12 42 -2 107 l11 80 64 33 c73 37 75 37 128 18z m259 -112 c30 -14 54 -31 54
-37 -1 -17 -144 -109 -149 -95 -4 12 29 158 36 158 2 0 29 -12 59 -26z m-506
-24 c0 -21 -15 -27 -25 -10 -7 12 2 30 16 30 5 0 9 -9 9 -20z m-587 -11 c48
-13 43 -20 -17 -24 -39 -2 -46 0 -46 16 0 22 10 23 63 8z m553 -49 c20 -27 40
-50 45 -50 5 0 8 -3 7 -7 -1 -5 4 -19 11 -33 10 -18 11 -25 2 -28 -6 -2 -34
-23 -62 -45 -111 -92 -85 -85 -307 -83 -175 1 -198 3 -191 16 4 8 18 43 30 77
12 35 33 74 46 87 32 32 23 47 -20 35 -40 -11 -140 -12 -133 0 3 4 33 18 67
31 55 20 73 21 168 16 88 -5 118 -3 176 13 109 31 119 29 161 -29z m403 13
c-6 -21 -11 -42 -13 -47 -1 -5 -14 4 -29 20 l-27 29 33 17 c45 24 47 23 36
-19z m-60 -64 c32 -39 32 -41 15 -60 -9 -10 -21 -19 -27 -19 -5 0 -36 -16 -68
-37 -53 -32 -62 -35 -83 -24 -13 7 -31 29 -41 49 l-17 37 52 47 c44 41 57 48
93 48 37 0 46 -5 76 -41z m219 -43 l-14 -46 -27 28 -28 29 38 33 c45 40 52 29
31 -44z m-1225 45 c4 -16 -30 -87 -39 -79 -1 2 -5 25 -8 51 -6 44 -5 47 18 47
15 0 26 -7 29 -19z m114 -116 c4 -46 2 -75 -4 -75 -6 0 -30 13 -54 30 -48 32
-68 37 -87 18 -9 -9 -12 -9 -12 0 0 6 6 15 13 19 7 4 19 23 27 41 7 19 26 47
42 63 l30 29 20 -25 c14 -18 21 -47 25 -100z m68 55 c-14 -27 -26 -57 -26 -67
-2 -21 -18 52 -18 84 -1 17 6 23 32 26 17 2 33 5 35 5 1 1 -9 -20 -23 -48z
m625 -92 c20 -8 26 -17 22 -32 -4 -16 -2 -18 14 -12 42 18 55 17 126 -4 77
-24 132 -67 104 -82 -18 -10 -270 -40 -326 -39 -25 1 -58 5 -75 10 -40 11 -37
35 15 125 22 38 40 74 40 81 0 26 25 22 39 -6 8 -16 27 -34 41 -41z m203 -4
c-7 -18 -13 -19 -52 -11 l-43 9 23 16 c13 9 35 22 49 28 21 9 26 8 28 -6 2 -9
-1 -25 -5 -36z m-354 -21 c-35 -60 -47 -70 -61 -54 -11 11 -9 15 7 25 10 6 30
23 44 39 34 37 37 34 10 -10z"/>
</g>
</svg>
