<?xml version="1.0" standalone="no"?>
<!DOCTYPE svg PUBLIC "-//W3C//DTD SVG 20010904//EN"
 "http://www.w3.org/TR/2001/REC-SVG-20010904/DTD/svg10.dtd">
<svg version="1.0" xmlns="http://www.w3.org/2000/svg"
 width="198.000000pt" height="135.000000pt" viewBox="0 0 198.000000 135.000000"
 preserveAspectRatio="xMidYMid meet">
<metadata>
Created by potrace 1.16, written by Peter Selinger 2001-2019
</metadata>
<g transform="translate(0.000000,135.000000) scale(0.100000,-0.100000)"
fill="#000000" stroke="none">
<path d="M1096 1175 c-3 -9 -6 -45 -6 -81 0 -35 -5 -94 -12 -132 l-12 -69 -50
-12 c-34 -8 -141 -12 -326 -12 -282 0 -376 5 -398 23 -25 21 -39 -10 -46 -100
-3 -49 -11 -104 -16 -123 -15 -51 -12 -125 5 -139 18 -15 35 -5 35 20 0 28 40
31 425 33 l340 2 -5 -85 c-3 -47 -5 -143 -5 -215 l0 -129 40 -8 c22 -5 119
-11 215 -13 96 -3 210 -6 254 -7 56 -2 80 0 82 9 2 7 7 21 10 31 4 9 8 55 9
102 2 47 6 103 9 125 3 22 8 74 10 115 3 41 7 93 10 115 7 50 16 264 17 409 0
102 -9 144 -26 116 -5 -8 -10 -6 -19 5 -10 14 -44 17 -251 19 -132 1 -250 6
-261 10 -15 6 -23 3 -28 -9z m108 -46 c3 1 28 1 55 1 l50 0 -4 -77 c-3 -43 -9
-139 -15 -213 -5 -74 -12 -173 -15 -220 -3 -47 -7 -105 -10 -130 -2 -25 -7
-99 -11 -165 -3 -66 -7 -126 -10 -133 -4 -12 -28 -12 -135 4 l-37 5 4 107 c6
181 14 256 30 268 19 15 18 31 -3 42 -13 8 -16 23 -14 73 2 78 18 224 33 298
5 30 11 75 12 100 1 39 4 46 26 51 14 4 28 2 31 -3 3 -5 9 -8 13 -8z m408 -3
l28 -1 -6 -185 c-5 -177 -18 -324 -49 -566 -8 -61 -15 -129 -15 -152 0 -36 -3
-41 -27 -46 -16 -4 -39 -3 -53 0 -43 10 -63 12 -121 13 -36 1 -59 6 -62 14 -4
12 0 112 22 467 9 142 15 278 21 447 0 13 149 24 205 15 17 -3 42 -6 57 -6z
m-559 -317 c-6 -38 -11 -96 -12 -141 l-1 -36 -132 0 c-239 1 -461 -3 -551 -10
-86 -7 -88 -7 -82 13 3 11 11 62 18 113 l11 93 46 -7 c81 -13 648 -10 660 2 7
7 20 10 30 7 14 -4 17 -12 13 -34z"/>
</g>
</svg>
