<?xml version="1.0" standalone="no"?>
<!DOCTYPE svg PUBLIC "-//W3C//DTD SVG 20010904//EN"
 "http://www.w3.org/TR/2001/REC-SVG-20010904/DTD/svg10.dtd">
<svg version="1.0" xmlns="http://www.w3.org/2000/svg"
 width="234.000000pt" height="180.000000pt" viewBox="0 0 234.000000 180.000000"
 preserveAspectRatio="xMidYMid meet">
<metadata>
Created by potrace 1.16, written by Peter Selinger 2001-2019
</metadata>
<g transform="translate(0.000000,180.000000) scale(0.100000,-0.100000)"
fill="#000000" stroke="none">
<path d="M1095 1608 c-11 -6 -26 -14 -34 -18 -26 -12 -25 -32 0 -28 l24 3 -4
-115 c-2 -63 -4 -116 -6 -118 -1 -1 -48 2 -105 7 -59 6 -112 6 -125 1 -25 -9
-41 -42 -36 -74 4 -27 -20 -216 -31 -245 l-9 -24 -192 6 c-106 3 -202 9 -215
13 -34 10 -67 -72 -71 -177 -3 -99 12 -151 42 -147 17 2 22 9 20 31 -2 23 2
27 28 28 16 1 41 2 57 4 15 1 74 5 132 8 58 4 122 10 143 13 l37 6 2 -79 c1
-43 2 -94 3 -114 0 -20 6 -43 13 -52 8 -9 12 -34 11 -58 -4 -47 11 -61 39 -37
9 8 33 21 52 28 19 7 53 21 76 31 22 11 42 19 45 19 8 0 11 -43 9 -169 -1
-104 -4 -127 -18 -137 -31 -23 -2 -29 144 -31 170 -3 198 4 189 45 -3 15 -7
83 -8 151 l-2 124 90 4 c50 2 116 4 148 4 60 -1 81 14 59 42 -6 6 -9 32 -8 57
1 25 3 79 4 121 l2 76 163 1 c89 1 177 7 195 13 40 13 45 10 46 -37 1 -21 6
-39 12 -41 17 -6 27 29 12 39 -10 6 -10 8 2 8 13 0 13 1 0 10 -9 6 -10 10 -3
10 13 0 20 33 27 130 3 36 8 79 11 96 l7 31 -68 7 c-37 4 -140 4 -227 0 l-160
-7 7 33 c3 18 9 65 11 104 3 39 8 87 10 108 l5 36 -48 4 c-26 2 -54 6 -62 9
-8 2 -14 -2 -12 -8 1 -9 -13 -14 -45 -15 -27 -1 -65 -2 -85 -4 l-37 -2 5 52
c3 28 7 65 8 81 2 17 4 42 5 56 1 18 10 29 33 40 42 19 49 40 11 39 -148 -4
-282 1 -288 10 -8 12 -14 12 -40 -2z m234 -54 c2 -2 -1 -29 -8 -60 -6 -32 -11
-81 -11 -111 l0 -53 -37 -1 c-60 -3 -126 0 -131 5 -8 8 -3 209 6 217 13 14
165 16 181 3z m254 -231 c-7 -2 -21 -2 -30 0 -10 3 -4 5 12 5 17 0 24 -2 18
-5z m-69 -348 c-2 -292 2 -353 20 -312 3 6 4 -13 3 -43 l-2 -55 -65 -8 c-36
-4 -99 -5 -140 -1 -41 4 -106 8 -145 9 -83 2 -274 14 -330 21 l-41 5 3 77 c2
42 8 120 14 172 6 52 13 120 15 150 3 30 8 62 12 70 3 8 7 29 7 45 4 97 0 91
68 118 76 30 122 41 166 38 18 -1 38 3 45 8 6 5 59 12 116 15 172 10 232 15
238 20 16 17 19 -33 16 -329z m-560 305 c30 -1 2 -16 -46 -25 -35 -7 -38 -5
-38 15 0 20 4 22 31 16 17 -3 41 -6 53 -6z m648 -35 c-2 -22 -12 -92 -22 -155
-11 -63 -21 -150 -22 -192 -2 -43 -7 -78 -11 -78 -8 0 -8 163 0 353 l6 118 26
-3 c24 -3 26 -6 23 -43z m394 -218 c11 4 14 -4 13 -33 -2 -78 -9 -88 -69 -96
-119 -15 -187 -20 -240 -19 -99 2 -91 -4 -89 75 l2 71 76 -3 c42 -2 103 1 136
5 33 5 82 5 108 1 26 -4 55 -4 63 -1z m-1353 -72 l138 4 -5 -27 c-3 -15 -8
-44 -12 -64 -3 -21 -9 -38 -13 -38 -4 0 -63 -7 -131 -15 -253 -32 -277 -25
-266 78 3 33 11 64 16 67 6 4 38 3 73 -1 34 -4 124 -6 200 -4z m237 -450 c-33
-19 -60 -19 -60 0 0 11 11 15 43 15 41 -1 42 -1 17 -15z m374 -126 c-2 -71 -6
-134 -9 -139 -3 -5 -48 -8 -100 -7 -87 2 -95 4 -96 22 -1 11 -2 73 -2 138 l-2
117 107 0 106 0 -4 -131z"/>
<path d="M1035 1200 c-49 -3 -95 -9 -101 -12 -11 -8 -17 -59 -18 -178 -1 -60
1 -65 19 -61 11 2 73 6 137 8 l117 4 -5 -27 c-13 -74 -36 -222 -38 -242 -1
-23 1 -23 101 -26 95 -3 105 -2 127 19 19 18 24 32 25 77 0 30 7 75 15 99 8
24 19 71 25 104 6 33 13 74 16 90 20 104 24 138 19 147 -6 9 -263 8 -439 -2z
m382 -53 c-2 -6 -27 -16 -56 -22 -62 -12 -64 -31 -3 -28 40 1 43 0 39 -20 -3
-12 -13 -56 -22 -98 -16 -73 -18 -77 -47 -83 -40 -8 -93 -8 -101 0 -3 4 -2 15
3 25 8 13 24 19 67 21 77 4 86 28 10 28 -96 0 -76 46 22 52 68 4 65 28 -4 28
-61 0 -59 -4 -40 77 7 31 9 32 64 35 63 3 74 1 68 -15z m-418 -29 c-20 -108
-25 -123 -42 -126 -20 -4 -22 28 -6 98 14 66 16 70 37 70 17 0 19 -5 11 -42z
m173 -39 c-2 -38 -8 -69 -13 -70 -38 -5 -54 -1 -51 12 8 33 8 85 0 101 -13 27
-38 11 -32 -20 3 -15 1 -45 -3 -67 -8 -33 -13 -40 -33 -40 -29 0 -31 18 -9
102 13 49 15 52 49 55 19 2 49 2 65 0 l30 -4 -3 -69z m84 54 c-3 -10 -8 -36
-11 -58 -10 -63 -15 -75 -31 -75 -10 0 -14 14 -14 53 0 77 8 97 37 97 18 0 23
-4 19 -17z m82 -280 c-4 -24 -118 -33 -118 -9 0 11 14 16 53 19 28 2 56 4 60
5 5 1 7 -6 5 -15z m-8 -69 c0 -12 -7 -15 -26 -11 -15 3 -40 1 -55 -3 -24 -7
-29 -6 -29 8 0 14 11 17 55 19 45 2 55 0 55 -13z m0 -55 c10 -5 -9 -9 -52 -9
-52 0 -68 3 -68 14 0 11 12 13 53 9 28 -3 59 -9 67 -14z"/>
</g>
</svg>
