<?xml version="1.0" standalone="no"?>
<!DOCTYPE svg PUBLIC "-//W3C//DTD SVG 20010904//EN"
 "http://www.w3.org/TR/2001/REC-SVG-20010904/DTD/svg10.dtd">
<svg version="1.0" xmlns="http://www.w3.org/2000/svg"
 width="205.000000pt" height="115.000000pt" viewBox="0 0 205.000000 115.000000"
 preserveAspectRatio="xMidYMid meet">
<metadata>
Created by potrace 1.16, written by Peter Selinger 2001-2019
</metadata>
<g transform="translate(0.000000,115.000000) scale(0.100000,-0.100000)"
fill="#000000" stroke="none">
<path d="M354 989 c-11 -18 20 -40 72 -48 37 -7 41 -9 18 -10 -17 0 -52 -4
-78 -7 l-46 -7 0 37 c0 20 -5 36 -11 36 -25 0 -40 -76 -50 -248 -10 -188 -10
-190 -36 -350 -20 -125 -18 -129 84 -138 39 -4 76 -10 82 -13 6 -4 16 -45 22
-92 16 -124 18 -134 31 -121 8 8 11 47 9 113 l-3 102 379 -7 c208 -3 412 -10
453 -15 70 -9 267 0 287 12 11 7 132 18 223 21 49 2 65 6 65 17 0 9 -13 15
-38 17 -28 2 -37 7 -33 17 3 8 0 17 -6 21 -7 5 -9 65 -4 203 4 108 8 250 9
316 l2 120 -65 7 c-36 3 -124 2 -196 -3 -72 -5 -160 -9 -195 -9 -284 -3 -409
-2 -644 7 -166 6 -279 14 -292 21 -27 15 -30 15 -39 1z m1390 -54 c-1 -24 -18
-71 -28 -77 -8 -6 -8 -8 0 -8 8 0 10 -40 7 -137 -7 -227 -9 -231 -90 -162 -57
49 -60 55 -36 63 28 9 106 93 99 105 -10 16 -36 14 -36 -3 0 -8 -24 -35 -52
-61 -45 -38 -59 -45 -88 -43 l-35 3 3 63 c2 49 0 63 -10 60 -8 -3 -15 -28 -18
-64 -4 -51 -8 -59 -25 -59 -18 0 -20 6 -17 58 2 33 -1 57 -7 57 -15 0 -19 -11
-22 -60 -3 -41 -12 -59 -31 -60 -11 0 -10 64 2 94 6 17 6 27 -1 32 -18 11 -30
-11 -36 -70 -5 -46 -9 -56 -25 -56 -17 0 -18 5 -13 43 3 23 8 49 11 59 6 20
-14 34 -28 20 -5 -5 -12 -29 -14 -53 -3 -24 -7 -45 -8 -46 -5 -5 -66 43 -164
129 -96 85 -100 88 -130 77 -18 -6 -40 -25 -51 -42 -32 -51 -133 -144 -138
-128 -3 7 -16 25 -29 40 -13 14 -33 38 -45 54 -28 36 -66 37 -75 0 -5 -18 -2
-30 9 -38 20 -15 97 -107 97 -117 0 -4 -23 -33 -51 -63 -69 -72 -92 -110 -76
-124 16 -13 28 -5 58 40 13 19 41 51 63 69 l38 34 22 -26 c11 -14 26 -27 32
-29 7 -2 33 -24 59 -48 42 -39 46 -45 31 -56 -36 -27 -3 -35 42 -11 15 8 63
32 107 53 44 21 106 53 138 71 32 19 61 31 65 28 3 -4 1 -29 -4 -57 -10 -48
-5 -67 15 -54 5 3 13 35 16 71 5 42 13 68 22 71 23 9 25 -2 9 -65 -20 -77 -20
-82 5 -82 17 0 20 5 16 23 -8 34 17 121 37 125 20 4 20 -8 1 -78 -18 -67 -18
-73 -2 -68 6 3 19 36 28 74 13 59 19 70 38 72 22 3 23 1 18 -40 -3 -23 -9 -58
-13 -77 -6 -26 -4 -33 7 -29 11 4 25 54 38 140 2 16 68 -6 104 -34 21 -16 56
-40 79 -53 40 -23 41 -23 45 -92 3 -51 9 -72 23 -84 24 -21 16 -29 -29 -29
-20 0 -91 -7 -158 -17 -106 -15 -137 -15 -250 -5 -70 7 -200 15 -288 17 -88 3
-221 7 -295 10 -74 2 -161 4 -192 5 -55 0 -58 1 -58 25 0 14 7 42 15 62 29 69
7 116 -29 61 -11 -18 -36 -118 -36 -146 0 -2 -8 -1 -17 2 -10 2 -44 7 -76 11
l-57 7 6 51 c3 29 10 69 15 89 13 52 31 237 33 340 0 47 4 90 9 94 22 22 295
36 772 40 275 1 525 7 555 11 70 11 95 11 94 -2z m-694 -206 c47 -44 104 -92
128 -105 23 -14 42 -30 42 -34 0 -18 -231 -150 -263 -150 -24 0 -147 147 -147
176 0 15 19 45 54 83 30 32 62 70 71 85 10 14 20 26 24 26 3 0 44 -36 91 -81z"/>
</g>
</svg>
