<?xml version="1.0" standalone="no"?>
<!DOCTYPE svg PUBLIC "-//W3C//DTD SVG 20010904//EN"
 "http://www.w3.org/TR/2001/REC-SVG-20010904/DTD/svg10.dtd">
<svg version="1.0" xmlns="http://www.w3.org/2000/svg"
 width="204.000000pt" height="144.000000pt" viewBox="0 0 204.000000 144.000000"
 preserveAspectRatio="xMidYMid meet">
<metadata>
Created by potrace 1.16, written by Peter Selinger 2001-2019
</metadata>
<g transform="translate(0.000000,144.000000) scale(0.100000,-0.100000)"
fill="#000000" stroke="none">
<path d="M995 1321 c-2 -2 -109 -5 -237 -6 -128 -2 -255 -3 -283 -4 -60 -2
-102 -28 -90 -57 10 -25 7 -113 -10 -264 -7 -69 -17 -154 -20 -190 -4 -36 -9
-74 -11 -85 -2 -11 -6 -76 -9 -145 -3 -69 -7 -132 -10 -140 -2 -8 -7 -59 -9
-112 -3 -54 -7 -102 -11 -107 -3 -6 4 -15 16 -22 18 -9 25 -9 34 5 10 13 38
17 166 20 85 2 204 0 264 -4 64 -4 132 -3 164 3 46 9 56 8 66 -6 15 -21 25
-22 25 -2 0 16 -14 15 315 21 125 2 188 5 438 18 38 2 71 6 74 10 3 3 7 56 8
118 3 132 20 279 34 288 6 3 8 16 5 28 -8 30 -42 34 -214 24 -137 -8 -195 -8
-449 -4 l-103 2 6 33 c12 55 24 139 31 212 4 38 8 72 10 75 7 12 7 166 0 215
-12 85 -14 86 -111 83 -47 -2 -87 -5 -89 -7z m139 -88 c-6 -47 -10 -60 -18
-52 -2 2 -7 25 -10 52 -7 43 -6 47 14 47 19 0 20 -4 14 -47z m-90 -5 c-8 -50
-9 -52 -26 -45 -9 3 -12 18 -10 46 3 32 8 41 23 41 17 0 18 -5 13 -42z m-213
22 c10 0 12 -31 3 -54 -7 -17 -39 -22 -48 -7 -3 5 -3 23 0 41 5 22 11 29 21
26 8 -4 19 -6 24 -6z m93 -27 c-9 -50 -11 -53 -39 -53 -22 0 -24 4 -22 38 1
27 7 39 22 44 42 13 46 10 39 -29z m52 0 c-3 -27 -9 -39 -21 -42 -13 -2 -16 1
-11 14 3 9 6 28 6 41 0 14 6 24 15 24 10 0 13 -10 11 -37z m-214 -3 c-5 -34
-26 -39 -42 -10 -14 26 -5 40 24 40 19 0 22 -4 18 -30z m314 -38 c-12 -11 -16
6 -9 39 l8 34 3 -33 c2 -19 1 -36 -2 -40z m-548 36 c-2 -19 -11 -24 -46 -29
-47 -6 -57 1 -47 31 5 16 15 20 51 20 41 0 45 -2 42 -22z m87 0 c-1 -18 -9
-24 -33 -26 -18 -2 -32 1 -32 7 0 26 14 41 39 41 22 0 27 -4 26 -22z m55 3 c0
-19 -17 -38 -25 -29 -7 7 7 48 16 48 5 0 9 -9 9 -19z m-167 -132 c-5 -5 -23
-12 -41 -15 l-33 -7 3 39 c3 36 6 39 38 44 33 5 35 3 38 -24 2 -16 0 -32 -5
-37z m101 44 c-8 -35 -12 -39 -46 -47 -25 -6 -27 -4 -24 16 3 13 5 31 5 41 1
13 10 17 36 17 33 0 35 -1 29 -27z m56 -2 c0 -21 -6 -30 -22 -34 -27 -8 -27
-9 -16 31 11 41 38 43 38 3z m100 7 c0 -36 -14 -50 -42 -43 -20 5 -24 11 -20
36 4 24 9 29 33 29 23 0 29 -4 29 -22z m44 16 c10 -4 16 -18 16 -35 0 -22 -5
-29 -20 -29 -16 0 -20 7 -20 35 0 38 0 38 24 29z m226 -6 c0 -26 -13 -58 -22
-58 -7 0 -6 48 1 68 3 8 21 0 21 -10z m-120 -28 c0 -27 -3 -30 -30 -30 -25 0
-30 4 -30 23 0 29 3 32 34 35 23 1 26 -2 26 -28z m60 16 c0 -25 -12 -46 -26
-46 -15 0 -18 18 -8 44 8 20 34 21 34 2z m100 -16 c0 -20 -5 -30 -15 -30 -16
0 -19 17 -9 44 10 26 24 18 24 -14z m59 12 c10 -18 9 -51 -5 -158 -5 -47 -8
-52 -24 -44 -25 13 -20 118 6 138 14 10 15 16 7 19 -15 5 -18 63 -3 63 5 0 14
-8 19 -18z m-481 -99 c-2 -30 -7 -39 -25 -41 -19 -3 -21 1 -19 25 2 15 4 34 5
41 0 6 10 12 22 12 17 0 20 -5 17 -37z m100 5 c-2 -25 -9 -33 -30 -39 -27 -7
-28 -6 -28 32 0 37 2 39 31 39 28 0 30 -2 27 -32z m152 -3 c0 -32 -2 -35 -30
-35 -26 0 -30 4 -30 28 0 35 6 42 37 42 20 0 23 -5 23 -35z m60 23 c0 -30 -13
-58 -26 -58 -15 0 -17 12 -8 48 7 23 34 31 34 10z m46 -19 c-7 -45 -16 -48
-16 -6 0 21 5 37 11 37 6 0 8 -13 5 -31z m56 6 c-2 -11 -10 -27 -18 -35 -12
-12 -14 -9 -14 24 0 30 3 37 18 34 11 -2 16 -11 14 -23z m-481 -17 c-5 -26
-12 -34 -34 -36 -24 -3 -27 0 -27 26 0 36 6 42 40 42 26 0 27 -2 21 -32z m229
2 c0 -24 -4 -30 -21 -30 -15 0 -19 4 -15 16 3 9 6 22 6 30 0 8 7 14 15 14 10
0 15 -10 15 -30z m-317 13 c3 -5 1 -18 -4 -30 -6 -17 -16 -23 -39 -23 -30 0
-37 11 -24 44 6 16 59 23 67 9z m552 -88 c0 -42 -20 -41 -23 1 -2 26 1 35 10
32 7 -3 13 -17 13 -33z m-397 -2 c-3 -32 -44 -46 -54 -19 -10 26 4 46 31 46
23 0 26 -4 23 -27z m84 1 c-5 -29 -30 -43 -42 -24 -13 21 1 50 25 50 19 0 21
-4 17 -26z m72 18 c3 -5 3 -18 -1 -30 -4 -15 -12 -21 -27 -18 -11 2 -21 8 -20
14 1 7 2 19 3 27 1 16 36 21 45 7z m80 -19 c-9 -35 -6 -33 -30 -27 -31 8 -20
54 12 54 21 0 24 -3 18 -27z m66 -3 c0 -27 -3 -30 -32 -30 -25 0 -29 3 -20 12
7 7 12 20 12 30 0 11 7 18 20 18 16 0 20 -7 20 -30z m50 15 c0 -8 -4 -15 -8
-15 -5 0 -9 7 -9 15 0 8 4 15 9 15 4 0 8 -7 8 -15z m-520 -20 c0 -18 -7 -26
-24 -31 -33 -8 -44 1 -39 29 3 17 12 23 34 25 25 2 29 -1 29 -23z m88 3 c-3
-25 -34 -36 -50 -20 -17 17 -1 42 27 42 22 0 26 -4 23 -22z m-1 -75 c-3 -32
-8 -38 -31 -41 -24 -3 -26 0 -26 32 0 24 5 36 18 39 39 10 43 8 39 -30z m62
28 c19 -13 5 -71 -18 -71 -14 0 -17 7 -15 38 1 20 2 38 3 40 2 5 16 1 30 -7z
m171 -38 c0 -39 -2 -43 -25 -43 -22 0 -25 4 -25 38 0 45 2 48 30 48 17 0 20
-7 20 -43z m72 7 c-5 -42 -9 -50 -28 -50 -10 0 -14 12 -14 38 0 43 7 54 30 50
11 -2 14 -13 12 -38z m179 27 c-1 -4 -1 -23 -1 -42 0 -22 -5 -35 -13 -35 -12
0 -13 15 -8 78 1 8 6 12 12 10 6 -2 10 -7 10 -11z m51 -49 c-15 -15 -21 14 -9
42 l11 25 4 -29 c2 -16 -1 -33 -6 -38z m-624 20 c-3 -29 -7 -33 -36 -36 -31
-3 -33 -2 -30 24 2 20 10 30 28 35 40 11 41 11 38 -23z m242 -3 c0 -31 -3 -35
-26 -35 -22 0 -25 3 -20 23 3 12 6 28 6 35 0 6 9 12 20 12 16 0 20 -7 20 -35z
m220 -5 c0 -36 -2 -40 -25 -40 -27 0 -28 2 -19 49 5 21 12 31 25 31 15 0 19
-8 19 -40z m55 0 c0 -22 -3 -40 -7 -40 -5 0 -8 18 -8 40 0 22 3 40 8 40 4 0 7
-18 7 -40z m102 -72 c-3 -7 -5 -2 -5 12 0 14 2 19 5 13 2 -7 2 -19 0 -25z
m-627 -7 c0 -24 -5 -29 -30 -33 -36 -5 -43 2 -34 37 5 19 12 25 35 25 25 0 29
-4 29 -29z m90 5 c0 -36 -54 -52 -62 -18 -8 29 2 42 33 42 24 0 29 -4 29 -24z
m70 -1 c0 -20 -5 -25 -25 -25 -20 0 -25 5 -25 25 0 20 5 25 25 25 20 0 25 -5
25 -25z m85 0 c0 -14 -8 -21 -26 -23 -24 -3 -26 0 -21 23 3 20 10 25 26 23 13
-2 21 -10 21 -23z m73 -3 c3 -18 -1 -22 -23 -22 -21 0 -26 4 -21 16 3 9 6 20
6 26 0 20 35 2 38 -20z m72 19 c0 -20 -13 -41 -25 -41 -9 0 -14 32 -6 48 3 7
31 1 31 -7z m70 -16 c0 -20 -5 -25 -25 -25 -20 0 -24 4 -23 25 2 19 8 25 25
25 18 0 23 -6 23 -25z m60 0 c0 -14 -4 -25 -10 -25 -11 0 -14 33 -3 43 11 11
13 8 13 -18z m64 16 c9 -14 -4 -41 -20 -41 -15 0 -17 10 -8 34 7 18 20 21 28
7z m-518 -101 c-7 -29 -15 -40 -29 -40 -15 0 -18 5 -13 23 3 12 6 29 6 37 0 9
10 16 24 18 22 1 23 0 12 -38z m84 31 c0 -5 -3 -23 -6 -40 -6 -26 -11 -31 -35
-31 -33 0 -33 1 -17 47 9 24 18 33 35 33 13 0 23 -4 23 -9z m88 -28 c-3 -35
-6 -38 -33 -38 -26 0 -30 3 -27 25 4 42 10 50 37 50 24 0 26 -3 23 -37z m78
15 c-3 -13 -6 -31 -6 -40 0 -12 -8 -18 -23 -18 -20 0 -22 4 -19 40 4 35 7 40
29 40 21 0 24 -4 19 -22z m64 -13 c0 -29 -4 -35 -21 -35 -17 0 -20 4 -15 23 3
12 6 28 6 35 0 6 7 12 15 12 10 0 15 -11 15 -35z m77 0 c-1 -30 -5 -35 -24
-35 -20 0 -23 5 -23 35 0 30 3 35 24 35 21 0 24 -4 23 -35z m56 -6 c-3 -10 -9
-19 -14 -19 -11 0 -12 44 -2 53 10 11 21 -13 16 -34z m69 11 c-3 -22 -10 -30
-24 -30 -14 0 -18 5 -14 16 3 9 6 22 6 30 0 8 8 14 18 14 15 0 18 -6 14 -30z
m-584 -12 c-3 -30 -6 -33 -40 -36 -33 -3 -38 -1 -38 19 0 26 26 48 58 49 20 0
23 -4 20 -32z m1212 -57 c-4 -14 -13 -73 -19 -131 -7 -58 -14 -126 -17 -153
-6 -48 -30 -85 -45 -70 -5 5 -4 46 1 93 6 47 13 107 16 135 3 27 10 72 14 100
4 27 6 53 4 56 -1 3 10 3 26 1 25 -4 27 -7 20 -31z m165 27 c4 4 5 -9 1 -28
-9 -52 -25 -181 -32 -263 -3 -40 -8 -74 -10 -76 -2 -2 -20 -6 -40 -8 l-37 -4
6 78 c4 43 9 89 12 103 3 14 8 57 12 95 3 46 11 74 21 83 13 10 13 12 1 13 -8
0 -6 4 6 8 11 5 27 5 36 0 9 -5 20 -5 24 -1z m-668 -6 c16 -10 14 -186 -4
-302 -8 -52 -16 -96 -18 -98 -1 -2 -14 0 -28 3 -22 6 -24 10 -17 34 4 16 13
38 19 49 8 15 8 23 0 28 -7 4 -9 30 -5 78 4 39 9 100 11 135 7 81 13 92 42 73z
m438 -4 c-6 -18 -10 -42 -29 -193 -23 -170 -26 -179 -57 -183 l-26 -3 4 88 c2
48 11 115 20 148 9 33 18 76 20 95 7 53 8 55 42 58 21 2 29 -2 26 -10z m130
-5 c-3 -10 -11 -63 -16 -118 -5 -55 -13 -125 -18 -155 -5 -30 -10 -63 -10 -72
-1 -11 -9 -18 -22 -18 -19 0 -21 4 -15 32 3 18 11 84 17 148 5 63 11 122 13
130 11 54 20 70 38 70 15 0 18 -4 13 -17z m-458 0 c-15 -26 -29 -361 -16 -369
6 -3 12 -4 14 -2 2 2 7 80 10 173 3 94 8 178 11 188 3 11 15 17 32 17 l28 0
-8 -92 c-3 -51 -10 -131 -13 -178 -4 -47 -11 -92 -16 -101 -11 -21 -129 -35
-141 -17 -8 14 -3 85 13 177 5 30 9 76 9 102 0 25 3 61 6 78 6 27 10 31 41 31
19 0 32 -3 30 -7z m164 -11 c-10 -18 -23 -168 -25 -289 l-1 -73 -33 -6 c-18
-4 -36 -4 -39 -1 -3 4 0 41 6 84 6 43 14 123 17 178 3 55 7 106 9 113 3 6 20
12 40 12 31 0 34 -2 26 -18z m84 -12 c4 -19 -1 -53 -13 -93 -11 -34 -23 -93
-27 -132 -9 -107 -14 -125 -35 -125 -16 0 -18 9 -18 68 0 81 14 211 29 270 9
34 16 42 35 42 17 0 24 -7 29 -30z m-936 11 c23 -15 1 -54 -32 -55 -22 -1 -26
2 -25 24 3 37 27 50 57 31z m172 -18 c-10 -36 -41 -44 -41 -10 0 28 7 37 31
37 14 0 16 -5 10 -27z m79 18 c0 -23 -14 -41 -32 -41 -14 0 -18 5 -14 16 3 9
6 20 6 25 0 5 9 9 20 9 11 0 20 -4 20 -9z m70 -16 c0 -20 -5 -25 -26 -25 -20
0 -25 4 -20 16 3 9 6 20 6 25 0 5 9 9 20 9 15 0 20 -7 20 -25z m46 -23 c-11
-10 -15 4 -8 28 l7 25 3 -23 c2 -13 1 -26 -2 -30z m82 31 c-4 -22 -48 -31 -48
-10 0 19 10 27 32 27 13 0 18 -6 16 -17z m-592 -9 c-3 -9 -6 -20 -6 -25 0 -5
-7 -9 -15 -9 -20 0 -19 -20 1 -34 18 -14 10 -66 -11 -66 -7 0 -20 -3 -28 -6
-12 -4 -14 7 -9 68 5 76 12 88 51 88 17 0 22 -4 17 -16z m60 -6 c-3 -13 -6
-26 -6 -30 0 -14 -28 -8 -34 7 -9 23 4 45 26 45 16 0 19 -5 14 -22z m182 0
c-2 -17 -11 -24 -30 -26 -24 -3 -28 0 -28 22 0 22 4 26 31 26 26 0 30 -3 27
-22z m213 -69 c-2 -13 -4 -31 -6 -39 -1 -8 -12 -16 -23 -18 -19 -3 -22 1 -22
36 0 45 5 53 34 48 16 -2 20 -9 17 -27z m51 -31 c-2 -10 -9 -18 -14 -18 -6 0
-7 7 -4 16 3 9 6 28 7 42 l1 27 7 -25 c4 -14 5 -33 3 -42z m62 56 c10 -4 16
-18 16 -40 0 -30 -3 -34 -25 -34 -22 0 -25 4 -21 28 2 15 5 33 5 40 1 14 3 14
25 6z m-262 -21 c4 -54 3 -58 -22 -61 -24 -3 -25 -1 -22 38 3 31 8 40 23 40
11 0 20 -8 21 -17z m63 -28 c0 -22 -5 -40 -12 -43 -9 -2 -13 10 -13 43 0 33 4
45 13 42 7 -2 12 -20 12 -42z m-325 0 c0 -28 -4 -35 -19 -35 -19 0 -20 11 -5
58 8 26 24 10 24 -23z m100 23 c-1 -42 -13 -58 -44 -58 -31 0 -32 1 -28 35 4
32 7 35 38 35 21 0 34 -5 34 -12z m86 -20 c-3 -29 -7 -33 -35 -36 -30 -3 -31
-2 -25 25 10 40 12 43 40 43 21 0 23 -4 20 -32z m387 -13 c-3 -9 -8 -14 -10
-11 -3 3 -2 9 2 15 9 16 15 13 8 -4z m-633 -49 c0 -19 -34 -76 -45 -76 -23 0
-20 67 3 73 24 6 42 8 42 3z m52 -36 c-3 -24 -9 -30 -28 -30 -28 0 -31 16 -9
47 21 30 43 20 37 -17z m94 28 c3 -4 4 -19 0 -33 -5 -20 -13 -25 -36 -25 -26
0 -30 4 -30 28 0 16 3 32 7 35 8 8 49 4 59 -5z m89 -25 c0 -18 -3 -33 -7 -33
-5 0 -18 0 -31 0 -20 0 -23 4 -19 36 4 31 7 35 31 32 22 -3 26 -8 26 -35z m83
-7 c-2 -23 -9 -32 -24 -34 -17 -2 -22 3 -26 27 -5 36 6 51 33 44 16 -4 19 -13
17 -37z m138 22 c-3 -13 -6 -29 -6 -35 0 -7 -11 -13 -25 -13 -23 0 -25 3 -19
28 9 38 13 42 36 42 16 0 19 -5 14 -22z m54 -13 c0 -23 -5 -35 -14 -35 -13 0
-13 15 0 58 7 23 14 12 14 -23z m80 6 c0 -33 -25 -60 -41 -44 -18 18 -1 73 22
73 14 0 19 -7 19 -29z m31 -18 c-9 -16 -10 -16 -11 -1 0 9 3 25 7 35 7 16 8
17 11 1 2 -10 -1 -25 -7 -35z m-245 15 c-3 -13 -6 -26 -6 -30 0 -5 -4 -8 -10
-8 -5 0 -10 14 -10 30 0 21 5 30 16 30 12 0 15 -6 10 -22z m-238 -80 c-2 -18
-11 -24 -35 -26 -27 -3 -33 0 -33 16 0 26 8 32 42 32 25 0 29 -4 26 -22z m492
-68 c-26 -62 -43 -10 -24 70 5 24 6 24 21 -8 13 -27 13 -37 3 -62z m-660 63
c0 -9 -7 -25 -17 -35 -9 -11 -11 -18 -5 -18 7 0 12 -9 12 -20 0 -11 -7 -20
-15 -20 -11 0 -15 12 -15 48 0 27 3 52 7 55 12 13 33 7 33 -10z m70 -3 c0 -14
-7 -20 -24 -20 -19 0 -23 4 -19 20 3 11 14 20 24 20 12 0 19 -7 19 -20z m188
-2 c-2 -18 -11 -24 -35 -26 -30 -3 -33 -1 -33 22 0 23 4 26 36 26 31 0 35 -3
32 -22z m82 -3 c0 -20 -5 -25 -25 -25 -18 0 -25 5 -25 18 0 24 8 32 32 32 13
0 18 -7 18 -25z m52 8 c6 -22 -1 -43 -13 -43 -5 0 -9 14 -9 30 0 33 15 41 22
13z m76 -5 c-5 -34 -38 -37 -38 -4 0 20 5 26 21 26 15 0 20 -5 17 -22z m62 -8
c0 -11 -7 -20 -15 -20 -17 0 -18 2 -9 24 9 23 24 20 24 -4z m80 4 c0 -9 -7
-14 -17 -12 -25 5 -28 28 -4 28 12 0 21 -6 21 -16z m-8 -56 c-4 -30 -6 -30
-19 -12 -12 16 -11 20 4 31 9 7 17 13 18 13 1 0 -1 -14 -3 -32z m-542 2 c0
-11 -6 -20 -14 -20 -18 0 -29 16 -21 30 11 18 35 11 35 -10z m100 12 c0 -15
-24 -32 -47 -32 -22 0 -31 19 -16 33 9 10 63 9 63 -1z m98 -14 c3 -14 -4 -18
-32 -18 -36 0 -52 12 -41 31 11 17 69 6 73 -13z m280 -8 c-1 -18 -6 -30 -15
-30 -7 0 -13 3 -13 8 0 4 -3 17 -6 30 -5 17 -2 22 14 22 16 0 20 -6 20 -30z
m-198 0 c0 -15 -7 -20 -25 -20 -24 0 -34 18 -18 33 15 15 43 7 43 -13z m48 -5
c-2 -15 -6 -21 -11 -16 -6 6 -7 17 -4 25 9 24 17 19 15 -9z m74 0 c4 -21 1
-25 -18 -25 -19 0 -24 5 -24 25 0 18 5 25 19 25 12 0 20 -9 23 -25z"/>
</g>
</svg>
