<?xml version="1.0" standalone="no"?>
<!DOCTYPE svg PUBLIC "-//W3C//DTD SVG 20010904//EN"
 "http://www.w3.org/TR/2001/REC-SVG-20010904/DTD/svg10.dtd">
<svg version="1.0" xmlns="http://www.w3.org/2000/svg"
 width="130.000000pt" height="118.000000pt" viewBox="0 0 130.000000 118.000000"
 preserveAspectRatio="xMidYMid meet">
<metadata>
Created by potrace 1.16, written by Peter Selinger 2001-2019
</metadata>
<g transform="translate(0.000000,118.000000) scale(0.100000,-0.100000)"
fill="#000000" stroke="none">
<path d="M138 1023 c-27 -7 -41 -68 -63 -265 -8 -73 12 -118 53 -118 111 -2
259 -14 270 -22 9 -8 18 -6 30 6 10 9 22 13 25 9 12 -11 80 -32 89 -27 4 3 8
12 8 20 0 18 8 18 28 -2 14 -15 17 -15 30 2 10 13 16 15 19 7 7 -18 42 -16 49
2 6 14 8 13 20 -2 13 -17 13 -17 14 0 0 10 4 16 10 12 9 -5 7 -141 -5 -342 -6
-87 -5 -92 16 -103 34 -19 353 -31 380 -15 5 4 5 14 -2 26 -11 21 -7 173 12
460 6 86 12 183 14 215 1 33 6 78 10 101 l8 42 -209 -6 c-287 -9 -668 -9 -734
-1 -30 3 -63 4 -72 1z m921 -33 l54 1 -7 -47 c-3 -26 -6 -59 -6 -75 0 -24 -5
-30 -40 -39 -21 -6 -93 -10 -158 -8 -116 2 -120 2 -118 24 1 21 4 22 101 19
128 -3 195 4 195 21 0 10 -20 11 -88 7 -119 -8 -202 3 -202 25 0 15 10 17 76
14 83 -5 224 6 224 16 0 4 -68 8 -150 8 -83 1 -153 4 -157 7 -3 3 -3 14 1 23
6 15 19 16 114 10 59 -4 131 -6 161 -6z m-876 -6 c13 -5 13 -9 2 -31 -8 -14
-19 -58 -25 -97 -26 -157 -34 -115 -16 74 2 14 4 33 4 43 2 18 11 21 35 11z
m493 -5 c8 -14 -43 -290 -56 -303 -16 -16 -10 111 9 204 10 47 16 89 14 93 -9
15 -30 -13 -31 -40 -1 -16 -6 -50 -12 -78 -6 -27 -14 -78 -19 -113 -5 -35 -12
-66 -15 -69 -15 -16 -18 13 -7 73 19 105 26 224 12 224 -6 0 -11 -1 -11 -3 0
-14 -21 -168 -26 -187 -4 -14 -8 -40 -11 -58 -3 -18 -10 -35 -15 -38 -14 -9
-2 141 19 233 l16 72 64 -1 c35 0 66 -5 69 -9z m46 -51 c-2 -35 -7 -87 -11
-115 -5 -29 -4 -53 1 -53 4 0 9 8 9 18 1 9 4 4 8 -13 8 -37 2 -95 -10 -95 -5
0 -10 19 -11 43 l-1 42 -4 -37 c-3 -25 -9 -38 -19 -38 -13 0 -18 23 -17 70 1
36 26 197 34 218 16 41 25 23 21 -40z m-470 39 c-6 -7 -15 -40 -21 -72 -25
-147 -39 -217 -44 -222 -11 -11 -19 71 -13 130 6 55 20 127 32 165 2 6 15 12
30 12 20 0 24 -3 16 -13z m124 -4 c-10 -33 -28 -118 -30 -143 -9 -88 -20 -151
-27 -156 -5 -3 -9 4 -9 15 0 10 -5 21 -12 23 -12 4 -6 44 32 213 5 22 7 42 4
44 -11 12 -26 -22 -38 -90 -11 -62 -24 -119 -42 -186 -2 -7 -8 -13 -13 -13
-15 0 -17 66 -4 132 7 35 16 80 18 101 9 63 23 77 78 77 41 0 48 -3 43 -17z
m56 -33 c-2 -25 -12 -82 -23 -128 -10 -46 -19 -94 -19 -108 0 -30 -16 -32 -22
-1 -3 18 9 134 26 242 2 11 4 26 5 33 0 8 9 12 18 10 14 -3 17 -12 15 -48z
m74 18 c-8 -18 -17 -58 -21 -88 -4 -30 -9 -71 -12 -90 -3 -19 -6 -47 -7 -62
-3 -34 -13 -45 -27 -31 -12 12 -8 67 13 216 12 85 12 87 39 87 28 0 28 0 15
-32z m584 -167 c0 -24 -40 -31 -187 -31 -103 0 -113 2 -113 18 0 10 3 22 7 25
3 4 71 7 150 7 133 0 143 -1 143 -19z m-22 -50 c8 -5 12 -17 10 -27 -3 -17
-15 -19 -146 -22 -141 -3 -143 -2 -140 19 3 20 10 21 118 26 63 2 116 6 119 9
7 7 25 5 39 -5z m-75 -80 l77 -1 0 -34 c0 -19 -4 -45 -9 -58 -9 -24 -11 -24
-128 -22 -65 0 -126 2 -135 3 -15 1 -18 11 -18 54 0 30 3 57 7 61 5 4 35 5 68
2 33 -3 95 -5 138 -5z m51 -147 c43 -17 3 -24 -129 -24 -122 0 -145 2 -145 15
0 13 21 15 129 15 71 0 136 -3 145 -6z m14 -66 c3 -17 -9 -18 -142 -18 -115 0
-146 3 -146 13 0 8 3 17 7 21 4 3 68 5 142 4 120 -3 136 -5 139 -20z m-5 -57
c5 -5 7 -17 4 -25 -7 -18 -84 -21 -219 -10 -66 6 -75 9 -71 25 4 14 19 19 66
23 142 14 197 10 220 -13z m-107 -62 c50 -1 97 2 104 6 10 6 12 3 7 -9 -4 -10
-7 -20 -7 -22 0 -2 -65 -4 -145 -4 -119 0 -145 3 -145 14 0 18 25 26 65 20 17
-2 71 -4 121 -5z m82 -55 c15 -4 22 -14 22 -29 l0 -23 -145 1 -145 2 0 28 0
27 123 0 c67 0 132 -3 145 -6z"/>
<path d="M850 602 c-25 -2 -49 -7 -54 -13 -6 -5 28 -9 91 -9 55 0 115 -3 132
-6 24 -5 31 -3 31 9 0 12 -16 16 -77 19 -43 2 -98 2 -123 0z"/>
</g>
</svg>
