<?xml version="1.0" standalone="no"?>
<!DOCTYPE svg PUBLIC "-//W3C//DTD SVG 20010904//EN"
 "http://www.w3.org/TR/2001/REC-SVG-20010904/DTD/svg10.dtd">
<svg version="1.0" xmlns="http://www.w3.org/2000/svg"
 width="298.000000pt" height="137.000000pt" viewBox="0 0 298.000000 137.000000"
 preserveAspectRatio="xMidYMid meet">
<metadata>
Created by potrace 1.16, written by Peter Selinger 2001-2019
</metadata>
<g transform="translate(0.000000,137.000000) scale(0.100000,-0.100000)"
fill="#000000" stroke="none">
<path d="M2573 1296 c-42 -15 -48 -23 -34 -39 9 -11 3 -22 -26 -50 -83 -77
-144 -127 -158 -127 -8 0 -15 -4 -15 -9 0 -11 -229 -174 -303 -215 -28 -16
-85 -42 -124 -57 l-72 -27 -93 47 c-51 26 -111 58 -133 72 -22 14 -92 48 -155
74 -130 55 -229 112 -280 162 -19 18 -45 36 -58 40 -22 5 -22 6 -6 24 16 18
16 19 -9 19 -27 0 -60 -36 -155 -169 -46 -64 -47 -86 -3 -78 l26 5 -29 -23
c-16 -13 -41 -29 -55 -36 -14 -7 -38 -22 -53 -32 -23 -15 -40 -17 -105 -12
-155 11 -365 51 -450 86 -51 21 -64 0 -74 -112 -5 -69 -12 -96 -24 -105 -13
-10 -16 -27 -14 -81 1 -37 -1 -130 -5 -205 -4 -85 -3 -138 2 -138 15 0 22 27
22 90 l0 59 72 36 c39 19 86 35 103 35 l31 0 -7 -52 c-4 -29 -9 -62 -11 -72
-5 -30 18 -29 30 1 6 15 14 58 18 94 l6 67 57 6 c31 3 124 5 206 5 135 -1 147
-2 120 -14 -16 -8 -42 -14 -57 -15 -41 0 -45 -20 -9 -49 17 -14 31 -30 31 -36
0 -21 66 -145 77 -145 7 0 27 16 45 36 31 34 95 74 118 74 6 0 28 11 49 24 21
14 56 28 77 32 22 3 47 11 58 16 10 5 47 14 83 19 66 9 90 16 273 74 58 18
123 36 145 39 22 4 59 14 83 23 31 12 46 13 54 5 8 -8 8 -15 0 -24 -14 -18
-54 -169 -47 -177 4 -3 31 8 61 24 99 54 158 40 334 -75 25 -17 60 -37 79 -46
76 -35 247 -166 254 -196 8 -30 27 -12 27 27 0 18 5 35 11 37 7 2 12 53 13
138 2 85 9 161 20 205 40 163 78 348 107 518 21 128 29 151 59 167 11 6 20 17
20 25 0 17 -43 20 -104 6 -41 -10 -70 -5 -60 10 6 11 -2 10 -43 -5z m127 -63
c-17 -34 -25 -69 -46 -203 -20 -131 -59 -327 -66 -335 -6 -6 -7 -1 -4 15 3 14
7 138 8 276 l3 252 60 15 c33 8 61 15 62 16 2 0 -6 -16 -17 -36z m-139 -65 c1
-41 -2 -142 -4 -145 -1 -1 -58 -5 -127 -8 l-125 -7 35 25 c50 35 72 39 137 28
38 -8 60 -8 67 -1 19 19 -13 35 -67 33 l-52 -2 58 55 c32 29 62 54 67 54 6 0
10 -15 11 -32z m-1444 -41 c41 -51 191 -147 286 -182 26 -10 46 -20 44 -22 -2
-2 -35 8 -73 23 -76 29 -160 54 -242 74 -40 9 -57 9 -65 1 -11 -11 -77 -16
-77 -5 0 11 92 134 100 134 5 0 17 -10 27 -23z m1290 -140 c128 4 148 0 150
-27 2 -19 -4 -20 -85 -21 -48 0 -116 -2 -152 -5 -120 -11 -84 -22 69 -22 82 0
155 -3 161 -7 5 -3 10 -16 10 -29 l0 -23 -167 4 c-163 3 -223 -3 -230 -23 -2
-5 44 -8 114 -6 105 4 252 -10 277 -26 23 -13 -37 -20 -135 -15 -100 5 -239
-9 -239 -26 0 -3 39 -4 87 -2 49 2 134 -3 191 -10 83 -10 102 -16 100 -28 -3
-14 -25 -16 -158 -14 -85 2 -165 5 -177 8 -28 6 -39 -11 -16 -23 10 -5 79 -12
153 -16 178 -8 183 -9 188 -23 6 -21 -20 -25 -104 -16 -44 5 -94 6 -111 2 -18
-3 -36 -2 -40 2 -11 11 -113 -1 -113 -12 0 -5 39 -9 88 -9 48 0 105 -4 127 -9
22 -5 66 -12 98 -16 40 -4 57 -11 57 -21 0 -12 -30 -14 -187 -12 -160 2 -188
0 -188 -12 0 -12 23 -15 125 -17 107 -2 165 -5 228 -12 6 0 12 -8 12 -17 0
-13 -21 -15 -162 -14 -209 2 -195 3 -180 -12 9 -9 64 -15 170 -18 131 -4 157
-8 157 -20 0 -12 -19 -16 -99 -18 -54 -2 -112 2 -129 8 -19 6 -34 7 -40 1 -13
-13 -30 -5 -127 61 -138 94 -200 146 -200 167 0 13 202 213 244 242 20 13 40
33 46 45 14 25 62 56 72 46 4 -4 56 -6 115 -5z m-1184 -32 c15 -10 30 -15 33
-12 12 12 173 -44 268 -93 62 -31 86 -37 86 -19 0 5 10 3 22 -5 12 -9 30 -16
39 -16 9 0 24 -11 33 -25 9 -14 22 -25 30 -25 7 0 30 -15 50 -34 l36 -35 -33
-10 c-17 -6 -61 -17 -97 -24 -36 -8 -144 -35 -240 -60 -315 -82 -390 -97 -472
-96 -43 1 -78 4 -78 8 0 31 28 71 68 98 70 48 73 48 117 3 35 -34 75 -53 75
-34 0 9 -42 67 -62 85 -10 9 -18 20 -18 24 0 4 30 37 66 72 36 35 64 69 62 75
-2 6 -14 1 -29 -13 -13 -14 -45 -43 -70 -67 l-46 -42 -27 40 c-26 39 -26 43
-17 118 15 119 11 115 100 110 51 -3 86 -11 104 -23z m-246 -70 c-1 -25 -5
-45 -9 -45 -5 0 -8 7 -8 15 0 8 -9 15 -20 15 -28 0 -25 15 8 39 15 11 28 21
29 21 1 0 1 -20 0 -45z m528 19 c20 -8 35 -18 32 -20 -3 -3 -14 -1 -25 5 -11
6 -21 9 -23 7 -2 -2 -10 2 -17 10 -16 18 -13 18 33 -2z m-1117 -34 c53 -12 79
-30 43 -30 -11 0 -44 -10 -73 -23 -29 -12 -63 -21 -75 -19 -21 3 -23 9 -23 58
l0 54 38 -14 c20 -8 61 -20 90 -26z m162 -36 c0 -6 -101 -154 -105 -154 -1 0
-1 28 0 61 2 61 2 62 39 74 21 7 40 16 43 19 8 8 23 8 23 0z m242 -15 c125 0
127 0 148 -26 11 -14 20 -30 20 -35 0 -6 14 -23 30 -38 17 -15 30 -32 30 -37
-1 -11 -77 -63 -93 -63 -7 0 -18 -5 -25 -12 -9 -9 -20 -9 -47 0 -25 10 -86 12
-225 8 -104 -3 -190 -3 -190 -1 0 3 12 24 27 48 75 119 90 143 96 158 5 14 13
15 54 7 26 -5 105 -9 175 -9z m1252 -4 c-17 -26 -131 -125 -142 -124 -4 0 -17
13 -29 29 l-23 28 46 19 c26 10 72 30 103 45 31 14 57 27 59 27 1 1 -5 -10
-14 -24z m-1774 -29 c0 -3 -4 -8 -10 -11 -5 -3 -10 -1 -10 4 0 6 5 11 10 11 6
0 10 -2 10 -4z m149 -18 c5 -13 7 -27 5 -33 -1 -5 -8 -36 -14 -69 l-12 -59
-74 6 c-40 3 -78 8 -84 12 -7 4 1 28 22 65 26 49 41 63 78 79 58 26 69 26 79
-1z m-202 -76 c8 -5 8 -13 -1 -31 l-13 -24 -5 32 c-5 32 -1 36 19 23z m1688
-92 c4 -6 23 -17 43 -26 l37 -16 -53 -14 c-29 -8 -62 -19 -74 -25 -19 -10 -20
-9 -13 23 4 18 11 41 17 51 10 19 33 23 43 7z m-1555 -30 c32 -7 32 -8 7 -9
-15 -1 -58 -16 -96 -35 l-68 -35 18 35 c10 20 15 42 12 50 -4 11 4 13 43 8 27
-4 65 -10 84 -14z m523 -41 c-8 -28 -31 -35 -51 -16 -13 14 -13 17 -1 21 8 2
21 7 29 9 26 9 28 8 23 -14z m115 -83 c-26 -13 -63 -34 -83 -46 -20 -12 -39
-20 -42 -17 -3 3 3 24 13 46 l19 40 70 0 70 0 -47 -23z m1520 -55 c25 -1 30
-26 6 -35 -36 -14 -139 -6 -170 13 -17 10 -40 21 -50 24 -15 4 103 3 214 -2z
m11 -78 c-1 -10 -4 -28 -7 -39 -7 -21 -9 -20 -52 17 l-45 39 53 0 c43 0 52 -3
51 -17z"/>
</g>
</svg>
