<?xml version="1.0" standalone="no"?>
<!DOCTYPE svg PUBLIC "-//W3C//DTD SVG 20010904//EN"
 "http://www.w3.org/TR/2001/REC-SVG-20010904/DTD/svg10.dtd">
<svg version="1.0" xmlns="http://www.w3.org/2000/svg"
 width="290.000000pt" height="252.000000pt" viewBox="0 0 290.000000 252.000000"
 preserveAspectRatio="xMidYMid meet">
<metadata>
Created by potrace 1.16, written by Peter Selinger 2001-2019
</metadata>
<g transform="translate(0.000000,252.000000) scale(0.100000,-0.100000)"
fill="#000000" stroke="none">
<path d="M1126 2438 c-3 -29 -6 -81 -6 -115 0 -71 14 -82 43 -34 18 31 77 85
84 78 2 -3 -1 -82 -8 -176 l-12 -171 -189 1 c-103 0 -200 4 -215 8 -16 4 -39
5 -52 1 -28 -6 -41 -30 -17 -30 20 0 24 -84 15 -297 -3 -72 -6 -83 -24 -87
-11 -3 -95 -6 -187 -6 -136 0 -168 3 -168 14 0 26 -27 35 -117 42 -63 4 -93 3
-98 -5 -9 -15 16 -71 32 -71 10 0 13 -36 14 -142 2 -195 -1 -232 -17 -241 -8
-5 -12 -13 -9 -18 4 -5 11 -6 17 -3 6 4 8 -7 5 -30 -3 -25 -1 -36 7 -33 6 2
12 19 14 38 l3 34 112 23 c195 39 251 53 267 67 8 7 41 16 73 20 l59 8 -7
-114 c-4 -63 -9 -132 -11 -154 -2 -22 -6 -106 -9 -187 -4 -125 -3 -148 9 -148
19 0 123 27 136 35 6 3 43 8 82 11 40 3 83 7 95 9 12 3 24 1 28 -4 8 -14 8
-361 0 -394 -8 -29 -41 -38 -51 -13 -3 9 -18 14 -35 14 -21 -1 -26 -4 -19 -13
5 -7 9 -58 8 -114 -1 -80 2 -106 14 -118 14 -13 18 -12 37 8 11 13 21 25 21
28 0 3 21 21 48 38 110 75 305 130 482 134 86 3 110 7 110 21 0 6 -14 8 -35 5
-24 -4 -33 -2 -29 5 5 8 -3 9 -26 4 -18 -3 -64 -9 -102 -13 -79 -7 -70 -25
-70 147 0 110 19 176 63 224 11 11 29 35 42 53 l22 33 120 2 c66 1 134 1 152
-1 17 -1 35 4 39 11 11 16 22 103 30 230 4 54 11 95 15 92 15 -9 48 6 43 20
-3 8 16 19 58 31 35 10 81 24 104 31 22 7 60 15 85 19 77 10 97 16 110 31 8 9
32 14 73 14 110 0 104 8 99 -141 -3 -83 -1 -129 6 -129 18 0 23 20 22 83 -1
79 18 177 35 184 15 6 19 33 5 33 -12 0 -6 36 17 100 11 30 23 71 27 91 4 20
20 51 36 68 28 31 31 55 6 46 -7 -3 -157 -6 -334 -8 -283 -2 -322 0 -318 13 2
8 9 38 15 65 20 90 60 209 81 238 28 39 14 52 -40 37 -24 -6 -57 -8 -79 -3
-20 4 -39 7 -42 8 -3 0 -12 5 -20 10 -8 5 -73 11 -145 13 -71 1 -136 5 -144 7
-11 4 -12 22 -7 91 7 86 15 107 69 191 15 24 27 47 27 53 0 5 14 19 30 32 17
12 30 27 30 34 0 7 19 17 42 21 65 13 62 35 -4 28 -108 -11 -348 -13 -342 -3
11 18 -17 25 -63 17 -25 -5 -49 -6 -54 -4 -17 11 -96 13 -126 4 -41 -13 -42
-25 -4 -34 48 -10 68 -55 26 -55 -8 0 -31 -15 -51 -32 l-37 -33 6 88 c5 68 3
87 -7 87 -8 0 -16 -19 -20 -52z m197 -35 c-7 -2 -21 -2 -30 0 -10 3 -4 5 12 5
17 0 24 -2 18 -5z m22 -40 c-15 -27 -38 -75 -51 -108 l-23 -60 -1 46 c0 25 3
67 6 92 6 40 10 47 35 52 16 4 29 11 29 16 0 5 7 9 16 9 13 0 11 -9 -11 -47z
m260 -3 c0 -35 -25 -219 -33 -245 -1 -3 -2 -27 -2 -55 l0 -50 -149 0 c-82 0
-156 2 -164 6 -16 6 -12 50 8 74 13 16 37 80 30 80 -10 0 38 119 67 164 47 75
50 77 153 74 l90 -3 0 -45z m115 38 c0 -5 -3 -8 -7 -8 -8 0 -22 -20 -72 -100
l-22 -35 6 50 c13 106 12 105 56 102 21 -1 39 -5 39 -9z m-800 -442 c-12 -29
-97 -303 -108 -346 -6 -26 -10 11 -13 142 -3 97 -3 192 -1 210 l4 34 63 -10
c59 -8 63 -11 55 -30z m275 28 c28 -3 119 -5 203 -4 84 0 158 -2 165 -7 6 -4
46 -6 87 -5 64 2 72 1 55 -10 -15 -10 -78 -12 -250 -10 -214 2 -238 1 -350
-23 -66 -14 -134 -30 -151 -34 l-32 -8 23 51 c16 37 28 51 43 51 11 0 24 3 28
8 7 7 57 4 179 -9z m608 -21 c-13 -2 -33 -2 -45 0 -13 2 -3 4 22 4 25 0 35 -2
23 -4z m54 1 c-3 -3 -12 -4 -19 -1 -8 3 -5 6 6 6 11 1 17 -2 13 -5z m18 -89
c0 -260 -20 -789 -35 -913 -4 -40 -6 -81 -3 -92 4 -15 0 -20 -16 -20 -11 0
-21 5 -21 11 0 7 -54 8 -172 3 -100 -3 -243 -2 -338 5 -355 24 -403 29 -452
45 -25 9 -46 11 -53 6 -7 -6 -8 22 -2 93 4 56 9 146 11 200 3 59 9 104 17 113
10 13 10 17 0 23 -10 7 -10 24 -1 87 16 113 47 247 76 323 14 36 24 66 23 66
-1 0 1 10 5 22 6 18 17 23 64 28 31 3 96 15 144 25 71 17 125 20 295 20 114 0
228 4 253 9 25 5 81 8 125 7 l80 -1 0 -60z m123 51 c25 0 31 -3 28 -15 -23
-76 -107 -385 -114 -416 -5 -25 -7 21 -6 130 1 94 3 203 3 243 l1 72 28 -7
c15 -4 42 -8 60 -7z m-1691 -333 c-3 -10 -17 -45 -31 -78 l-26 -60 0 78 0 77
31 0 c25 0 30 -3 26 -17z m2278 -13 c-4 -6 -15 -43 -26 -83 -29 -107 -33 -109
-39 -22 -7 94 -5 104 20 98 10 -3 21 0 24 6 4 6 12 11 17 11 6 0 7 -5 4 -10z
m-1976 -15 c2 -3 -9 -5 -25 -5 -16 0 -45 -5 -64 -10 -88 -26 -181 -50 -195
-50 -13 0 -13 3 -3 23 32 56 31 56 161 51 66 -2 123 -7 126 -9z m157 -77 c-3
-51 -8 -105 -12 -119 l-6 -27 -151 -6 c-142 -5 -218 -10 -309 -20 -37 -4 -38
-3 -38 30 0 19 4 34 9 34 5 0 17 23 26 50 14 44 20 50 44 50 15 0 65 11 111
24 47 14 107 28 133 31 26 4 54 13 61 20 14 15 43 22 100 24 l39 1 -7 -92z
m1404 85 c-54 -8 -67 -14 -119 -53 -29 -22 -62 -40 -72 -40 -10 0 -19 -7 -19
-15 0 -23 27 -18 73 13 64 43 136 66 247 79 25 3 52 9 62 14 9 5 44 9 76 9
l60 0 6 -47 c8 -66 12 -200 6 -207 -3 -3 -128 -8 -278 -12 -150 -4 -272 -11
-272 -16 0 -4 42 -8 93 -9 50 -1 119 -4 152 -8 l60 -7 -47 -7 c-27 -5 -53 -5
-58 -2 -6 4 -34 -5 -63 -19 -64 -30 -160 -58 -168 -48 -8 8 5 109 25 202 8 36
19 90 26 121 l11 57 112 -1 c62 0 101 -2 87 -4z m-1585 -273 c-3 -5 -15 -10
-25 -10 -10 0 -76 -13 -145 -30 -151 -36 -170 -37 -172 -10 -2 27 13 34 77 36
83 2 254 16 259 20 8 8 12 4 6 -6z m231 -409 c12 -13 151 -29 314 -36 74 -3
144 -7 155 -10 11 -2 67 -5 125 -6 l105 -2 -110 -7 c-199 -14 -289 -21 -345
-29 -30 -5 -82 -9 -115 -10 -52 -2 -94 -9 -157 -27 -14 -4 -16 1 -12 28 7 54
12 92 13 101 1 10 15 9 27 -2z m902 -48 c-10 -2 -28 -2 -40 0 -13 2 -5 4 17 4
22 1 32 -1 23 -4z m-155 -10 c-7 -2 -19 -2 -25 0 -7 3 -2 5 12 5 14 0 19 -2
13 -5z m-60 -57 c-19 -25 -33 -34 -45 -30 -10 3 -18 1 -18 -4 0 -6 5 -12 11
-14 8 -3 3 -21 -14 -52 l-25 -48 1 64 c1 34 -2 73 -6 85 -9 24 -5 25 81 31
l44 3 -29 -35z m-126 6 c-13 -15 -14 -21 -4 -31 8 -8 14 -72 17 -212 l5 -199
-30 -6 c-16 -3 -82 -3 -145 -1 l-114 4 4 49 c2 27 4 65 5 84 0 19 7 49 14 65
7 17 26 70 42 119 45 140 43 138 183 144 37 2 38 1 23 -16z m-197 3 c0 -10
-58 -177 -64 -182 -3 -4 -6 35 -6 85 l0 91 28 4 c15 2 30 5 35 6 4 0 7 -1 7
-4z m-110 -491 c0 -8 7 -14 15 -14 8 0 15 7 15 15 0 9 10 15 28 16 145 6 150
4 67 -26 -27 -10 -78 -33 -112 -52 l-63 -33 0 53 c0 30 3 56 6 59 10 10 44 -4
44 -18z"/>
<path d="M1460 1883 c-8 -3 -56 -41 -106 -85 -51 -43 -97 -78 -102 -78 -6 0
-12 -4 -14 -8 -3 -9 -99 -83 -157 -121 -20 -13 -38 -27 -41 -30 -15 -17 -70
-50 -70 -41 0 21 -27 9 -65 -30 l-38 -39 39 -47 c21 -25 49 -60 61 -77 12 -17
49 -58 81 -91 107 -110 144 -150 181 -196 20 -25 39 -46 44 -48 15 -7 6 -21
-30 -44 -27 -16 -33 -24 -22 -26 9 -2 46 17 82 42 35 26 68 46 71 46 4 0 16 8
27 18 20 19 49 36 82 46 21 7 23 26 1 26 -8 0 -12 4 -9 10 6 10 -22 60 -42 73
-6 4 -33 49 -58 100 -26 50 -56 102 -68 115 -18 19 -19 24 -6 37 14 14 117 80
174 111 17 10 55 36 85 58 49 36 52 41 32 44 -13 2 -33 -5 -44 -14 -19 -18
-19 -18 -12 11 10 44 14 48 32 31 21 -18 67 -30 82 -21 7 4 -2 20 -25 42 -19
19 -49 62 -66 96 -46 92 -60 105 -99 90z m34 -88 c6 -17 -2 -45 -14 -45 -5 0
-12 9 -15 21 -14 42 -30 12 -30 -57 -1 -38 -4 -75 -8 -81 -5 -7 -4 -29 2 -48
5 -21 6 -35 0 -35 -5 0 -9 5 -9 11 0 8 -5 8 -15 -1 -8 -7 -15 -18 -15 -24 0
-13 -70 -60 -78 -52 -3 3 0 16 5 29 6 13 17 59 24 103 17 107 28 130 80 165
50 33 64 36 73 14z m-164 -111 c-18 -100 -29 -158 -35 -191 -8 -38 -82 -100
-99 -83 -8 8 -8 13 0 18 13 9 30 55 38 102 14 82 50 176 75 197 14 11 27 20
28 19 2 -2 -2 -29 -7 -62z m194 21 c-13 -10 -21 -45 -23 -92 -1 -13 -7 -23
-16 -23 -12 0 -15 14 -15 68 0 65 1 69 28 78 21 8 28 7 33 -6 3 -8 0 -19 -7
-25z m-315 -107 c-10 -35 -19 -65 -18 -68 0 -3 -5 -25 -10 -50 -22 -100 -41
-209 -41 -236 -1 -28 -1 -28 -15 -10 -19 25 -19 54 -1 119 7 29 21 85 31 126
9 41 23 88 32 104 8 16 13 38 10 48 -4 16 4 26 25 28 3 1 -2 -27 -13 -61z
m-63 -70 c-13 -46 -29 -108 -35 -138 -16 -85 -20 -102 -25 -107 -3 -3 -17 6
-32 20 -24 23 -26 30 -20 74 12 93 45 172 89 214 23 22 43 35 45 30 2 -6 -8
-48 -22 -93z m-113 -40 c-8 -29 -18 -65 -21 -80 l-7 -26 -41 44 c-37 41 -41
48 -21 45 4 -1 29 15 54 34 25 19 47 35 48 35 1 0 -4 -24 -12 -52z m184 30
c-3 -8 -6 -5 -6 6 -1 11 2 17 5 13 3 -3 4 -12 1 -19z m54 -154 l24 -26 -23
-18 c-12 -10 -19 -21 -14 -24 5 -3 0 -38 -10 -78 -10 -40 -16 -82 -14 -92 4
-14 -7 -8 -34 20 l-38 39 9 55 c5 30 10 66 11 80 2 27 34 70 53 70 6 0 22 -12
36 -26z m48 -205 c-11 -51 -22 -96 -25 -101 -3 -4 2 -8 10 -8 8 0 20 9 26 20
6 11 8 20 6 20 -3 0 1 18 9 40 8 22 12 40 9 40 -3 0 -2 5 1 10 4 6 26 -11 50
-37 40 -42 42 -48 27 -60 -26 -19 -32 -16 -25 17 8 44 -14 38 -26 -7 -6 -21
-11 -43 -11 -48 0 -6 -13 -18 -29 -28 -27 -16 -29 -16 -43 1 -9 9 -23 31 -32
49 -14 28 -14 32 0 37 9 4 13 13 10 23 -5 16 6 97 18 143 3 8 5 19 5 24 1 5
10 -3 21 -16 20 -26 20 -26 -1 -119z"/>
<path d="M1206 1305 c-3 -8 -1 -15 4 -15 6 0 10 7 10 15 0 8 -2 15 -4 15 -2 0
-6 -7 -10 -15z"/>
</g>
</svg>
