<?xml version="1.0" standalone="no"?>
<!DOCTYPE svg PUBLIC "-//W3C//DTD SVG 20010904//EN"
 "http://www.w3.org/TR/2001/REC-SVG-20010904/DTD/svg10.dtd">
<svg version="1.0" xmlns="http://www.w3.org/2000/svg"
 width="221.000000pt" height="127.000000pt" viewBox="0 0 221.000000 127.000000"
 preserveAspectRatio="xMidYMid meet">
<metadata>
Created by potrace 1.16, written by Peter Selinger 2001-2019
</metadata>
<g transform="translate(0.000000,127.000000) scale(0.100000,-0.100000)"
fill="#000000" stroke="none">
<path d="M520 1128 c-74 -4 -148 -8 -165 -8 -16 0 -46 -4 -64 -10 -26 -7 -37
-7 -43 3 -16 27 -26 -9 -17 -68 4 -33 11 -91 15 -130 10 -94 11 -606 2 -612
-5 -2 -8 -31 -8 -64 0 -53 2 -60 18 -55 28 9 192 46 202 46 5 0 8 -50 6 -115
-2 -63 0 -115 4 -115 11 0 20 27 20 58 0 51 19 99 41 105 15 4 20 11 15 22 -3
9 -3 27 0 40 10 40 127 54 509 60 319 5 585 18 602 28 9 6 189 19 272 21 58 1
70 26 13 26 -47 0 -60 20 -31 46 14 13 18 25 14 45 -11 47 -8 216 4 252 6 19
13 43 16 55 15 82 93 319 106 328 21 13 7 25 -22 19 -59 -13 -792 -2 -944 14
-135 14 -401 18 -565 9z m565 -42 c133 -9 160 -14 125 -19 -185 -29 -275 -37
-481 -42 -129 -3 -246 -8 -262 -10 -27 -5 -27 -4 -12 25 29 56 39 59 259 59
110 0 278 -6 371 -13z m-637 -3 c-28 -58 -44 -83 -54 -83 -17 0 -29 -21 -16
-29 6 -4 -4 -48 -29 -121 -21 -63 -39 -125 -39 -137 0 -39 -17 -25 -18 15 -1
20 -6 96 -13 167 -6 72 -12 141 -13 155 -1 24 2 25 64 31 106 9 122 9 118 2z
m1295 -19 c-5 -13 28 -24 72 -24 28 0 31 -4 33 -32 2 -18 5 -46 7 -63 26 -204
30 -296 15 -390 -13 -77 -13 -75 5 -75 19 0 19 -32 1 -85 l-14 -40 -119 -12
c-300 -29 -559 -37 -1085 -34 l-107 1 5 38 c3 20 19 67 36 104 18 37 29 70 26
73 -3 3 -34 2 -69 -2 l-64 -8 -9 -102 -8 -103 -77 0 c-47 0 -82 5 -89 12 -21
21 -13 133 18 290 41 201 90 349 122 364 13 7 104 14 204 18 187 6 340 19 447
35 53 9 299 38 362 44 11 1 81 2 156 2 97 0 135 -3 132 -11z m256 -33 c-10
-25 -32 -97 -50 -159 -18 -61 -34 -110 -36 -108 -2 2 -6 26 -7 52 -3 44 -7 84
-21 197 -5 37 -5 37 30 37 39 0 48 16 13 23 -13 2 2 4 33 4 l56 0 -18 -46z
m-1429 -550 c0 -5 -8 -26 -17 -47 -9 -22 -19 -57 -22 -79 -4 -26 -11 -40 -21
-40 -11 0 -15 11 -15 45 1 44 7 110 11 120 4 9 64 10 64 1z m-188 -202 c83 2
97 0 92 -12 -3 -9 -40 -23 -92 -36 -120 -29 -121 -29 -120 19 0 26 4 37 11 33
6 -4 55 -5 109 -4z m226 -6 c-10 -2 -28 -2 -40 0 -13 2 -5 4 17 4 22 1 32 -1
23 -4z"/>
<path d="M1150 961 c-5 -11 -10 -39 -10 -63 l0 -43 -112 3 c-62 2 -158 8 -213
12 -139 10 -156 0 -148 -89 3 -31 5 -60 5 -66 -21 -230 -18 -280 13 -255 5 4
49 11 98 15 118 10 122 26 4 20 l-94 -5 2 77 c1 43 2 81 3 84 2 6 112 16 276
25 49 3 96 9 105 15 12 7 9 9 -14 5 -41 -7 -352 -12 -358 -6 -3 3 -3 17 0 33
l5 27 128 0 c191 0 310 -10 310 -26 0 -8 -7 -14 -15 -14 -8 0 -15 -4 -15 -10
0 -5 7 -10 15 -10 11 0 15 -11 15 -39 0 -39 -1 -40 -42 -46 -24 -3 -123 -7
-220 -8 -98 -1 -178 -5 -178 -9 0 -5 10 -8 23 -9 31 0 236 3 330 6 56 1 77 -2
77 -11 0 -7 3 -19 6 -27 7 -18 -67 -36 -154 -38 -31 -1 -68 -5 -82 -10 -15 -5
26 -6 101 -2 l126 5 7 -32 c3 -18 6 -45 6 -61 0 -16 5 -29 11 -29 7 0 18 -8
25 -17 11 -17 14 -16 38 10 14 15 30 27 36 27 6 0 31 19 55 41 28 26 50 39 60
35 10 -3 18 1 22 12 3 9 18 30 32 45 27 29 27 31 30 190 1 17 6 27 16 27 11 0
14 -13 14 -61 -1 -33 2 -63 5 -66 3 -4 6 9 7 28 1 66 9 71 56 41 48 -31 53
-42 20 -42 -13 0 -32 -10 -43 -22 -10 -12 -14 -18 -7 -15 6 4 13 3 15 -3 4
-12 98 49 98 64 -1 11 -55 48 -190 129 -36 22 -81 54 -100 72 -42 39 -151 105
-173 105 -9 0 -21 -9 -27 -19z m122 -107 c-2 -14 0 -24 7 -24 6 0 11 9 11 20
0 28 18 25 32 -4 7 -18 8 -46 1 -98 -6 -40 -11 -120 -12 -178 -1 -77 -6 -109
-16 -120 -13 -12 -15 -7 -14 45 2 89 -2 134 -12 141 -8 4 -14 -120 -10 -182 1
-11 -5 -26 -13 -33 -13 -11 -15 9 -15 166 0 98 -1 193 -4 211 -2 17 -4 42 -5
53 -2 17 -5 19 -15 10 -19 -15 -27 -4 -27 36 l0 34 48 -26 c42 -23 48 -30 44
-51z m-315 -27 c17 3 65 2 106 -2 69 -6 75 -9 80 -30 l4 -24 -218 2 c-217 2
-219 2 -219 24 0 12 -2 28 -5 35 -5 12 12 12 107 2 62 -7 127 -10 145 -7z
m248 -52 c10 -65 6 -348 -4 -358 -14 -14 -22 57 -22 183 0 71 -3 120 -9 120
-11 0 -8 35 3 46 4 4 7 17 7 29 0 19 10 39 16 33 1 -2 5 -25 9 -53z m203 17
l33 -25 -2 -101 c-1 -76 -5 -105 -17 -118 -8 -10 -18 -18 -21 -18 -4 0 -5 54
-3 120 2 79 -1 120 -8 120 -12 0 -11 2 -11 -146 1 -88 -2 -114 -14 -124 -9 -7
-18 -10 -22 -6 -9 8 -8 229 1 289 8 51 8 51 64 9z"/>
<path d="M1275 798 c-3 -13 -5 -28 -3 -34 1 -5 -3 -18 -9 -29 -13 -25 -12 -67
3 -72 8 -3 14 23 19 72 7 76 2 110 -10 63z"/>
<path d="M1356 774 c-4 -9 -4 -19 -1 -22 2 -3 7 3 11 12 4 9 4 19 1 22 -2 3
-7 -3 -11 -12z"/>
<path d="M1464 548 l-29 -31 33 23 c17 13 32 27 32 32 0 13 -5 10 -36 -24z"/>
</g>
</svg>
