<?xml version="1.0" standalone="no"?>
<!DOCTYPE svg PUBLIC "-//W3C//DTD SVG 20010904//EN"
 "http://www.w3.org/TR/2001/REC-SVG-20010904/DTD/svg10.dtd">
<svg version="1.0" xmlns="http://www.w3.org/2000/svg"
 width="250.000000pt" height="130.000000pt" viewBox="0 0 250.000000 130.000000"
 preserveAspectRatio="xMidYMid meet">
<metadata>
Created by potrace 1.16, written by Peter Selinger 2001-2019
</metadata>
<g transform="translate(0.000000,130.000000) scale(0.100000,-0.100000)"
fill="#000000" stroke="none">
<path d="M501 1141 c-9 -6 -12 -24 -9 -56 l3 -47 -81 6 c-85 7 -114 2 -114
-19 0 -19 33 -28 110 -30 36 -1 65 -4 64 -6 -1 -10 -96 -195 -104 -203 -4 -4
-8 7 -8 25 0 46 -31 177 -44 185 -18 12 -29 -11 -18 -42 16 -47 26 -175 18
-229 -4 -27 -10 -95 -13 -150 -3 -59 -12 -119 -22 -147 -23 -61 -12 -74 44
-54 58 20 170 36 259 36 l77 0 -7 -62 c-10 -97 -10 -99 -8 -168 2 -69 15 -105
30 -82 5 6 9 51 10 100 3 95 17 201 29 213 4 4 60 10 123 13 63 4 133 9 155
11 23 3 104 -2 180 -10 77 -9 195 -22 262 -29 67 -7 125 -15 129 -19 4 -4 1
-13 -6 -22 -23 -27 -1 -29 28 -3 l27 26 150 -9 c181 -11 206 -14 268 -30 83
-23 105 14 107 171 1 124 16 292 31 338 6 20 36 88 66 150 30 62 54 114 52
116 -2 1 -48 8 -102 16 -80 10 -121 10 -223 0 -81 -8 -148 -10 -192 -4 -102
13 -185 9 -322 -16 -83 -14 -182 -23 -295 -26 -93 -3 -179 -6 -190 -7 -19 -2
-293 22 -325 28 -8 2 -39 4 -68 4 -29 1 -51 5 -48 9 8 14 -9 31 -23 23z m1610
-58 c6 -15 10 -104 10 -198 0 -115 4 -174 12 -185 11 -13 10 -13 -5 -1 -17 12
-18 9 -20 -40 0 -30 -2 -58 -3 -64 -2 -5 -3 -55 -4 -110 -1 -55 -5 -106 -10
-114 -8 -13 -28 -12 -148 2 -76 9 -174 19 -217 22 -43 2 -81 6 -83 8 -2 3 11
19 28 38 17 19 43 48 56 66 14 17 30 30 38 27 7 -3 37 15 66 40 30 26 75 62
102 82 53 41 59 61 20 70 -68 15 -66 13 -61 65 4 34 1 50 -8 53 -7 3 -18 24
-24 48 -6 24 -14 50 -19 59 -6 10 -2 37 11 76 18 55 23 61 52 66 17 2 48 -2
70 -9 48 -18 56 -17 56 0 0 16 15 24 48 25 16 1 26 -7 33 -26z m-518 10 c-7
-2 -21 -2 -30 0 -10 3 -4 5 12 5 17 0 24 -2 18 -5z m617 -85 c-22 -45 -40 -91
-40 -102 0 -10 -3 -16 -7 -12 -4 4 -6 26 -5 49 2 23 -1 63 -6 89 -5 26 -7 50
-4 53 3 3 27 5 53 5 l48 0 -39 -82z m-1575 62 c50 -6 133 -13 185 -16 97 -6
150 -24 72 -24 -35 0 -158 -18 -252 -36 -14 -3 -42 -8 -63 -11 -38 -6 -38 -6
-26 21 10 22 9 29 -4 44 -18 20 -22 32 -9 32 4 0 48 -5 97 -10z m1195 -2 c-1
-7 -7 -24 -15 -38 l-13 -25 -7 27 c-4 15 -4 32 0 37 9 15 35 14 35 -1z m-226
-11 c-4 -7 -19 -28 -33 -47 -14 -19 -48 -69 -75 -110 -55 -85 -126 -157 -162
-166 -13 -3 -24 -10 -24 -16 0 -5 -3 -7 -7 -5 -13 8 -55 -12 -48 -23 4 -6 12
-7 22 -1 18 9 69 -4 90 -23 17 -15 83 -126 83 -139 0 -5 14 -32 31 -59 16 -28
28 -52 26 -54 -2 -2 -68 5 -148 16 -79 11 -214 26 -299 35 -85 8 -192 22 -238
31 l-83 17 6 31 c8 36 25 78 66 160 26 50 28 61 17 73 -11 10 -21 11 -46 2
-18 -6 -69 -12 -114 -13 -92 -1 -112 -17 -55 -41 38 -16 35 -4 51 -163 2 -19
-1 -35 -8 -38 -9 -3 -170 34 -264 62 -15 4 -29 1 -41 -10 -17 -15 -17 -13 -6
62 9 61 18 88 45 127 19 28 43 66 53 85 36 68 46 78 65 73 11 -2 37 4 58 15
44 22 91 33 244 57 58 9 128 20 155 25 66 13 296 39 365 42 182 9 281 7 274
-5z m76 -7 c0 -10 -83 -80 -88 -75 -5 5 25 61 43 79 15 15 45 12 45 -4z m78
-17 c-1 -10 13 -55 31 -100 18 -45 30 -86 26 -92 -16 -27 -143 -4 -223 41 -32
18 -33 18 -41 -5 -11 -31 -20 -157 -11 -157 4 0 13 6 19 14 23 28 104 57 170
62 36 2 76 7 88 9 12 3 25 0 28 -6 13 -20 11 -70 -3 -81 -7 -6 -22 -28 -33
-47 -52 -96 -184 -257 -216 -263 -29 -6 -53 21 -82 92 -13 30 -31 69 -41 85
-20 33 -19 131 2 182 6 15 10 33 9 40 -3 21 70 113 103 130 17 9 49 30 71 48
31 25 89 62 102 65 1 0 1 -8 1 -17z m-149 -209 l32 -16 -26 -14 c-40 -21 -51
-17 -49 14 2 39 -1 38 43 16z m-177 -76 c-5 -7 -12 -24 -14 -38 -3 -25 -3 -25
-37 -9 l-34 16 44 25 c46 26 59 28 41 6z m-652 -28 c0 -3 -4 -10 -8 -16 -4 -5
-21 -48 -37 -96 -17 -49 -33 -88 -37 -88 -5 0 -8 24 -9 53 0 28 -4 73 -8 99
-4 27 -6 50 -3 52 7 7 102 3 102 -4z m1137 -18 c20 -6 16 -12 -44 -62 -37 -30
-75 -61 -86 -69 -18 -13 -18 -12 -6 10 7 13 20 35 29 49 10 14 25 37 34 53 16
27 31 31 73 19z m-1382 -186 c33 -9 74 -17 90 -18 31 -2 45 -13 45 -35 0 -9
-21 -13 -73 -13 -40 0 -116 -9 -167 -20 -51 -11 -98 -20 -103 -20 -13 0 -3 44
21 101 l20 47 54 -13 c29 -7 80 -20 113 -29z m295 -51 c61 -12 63 -13 25 -16
-54 -3 -127 -1 -132 5 -9 9 8 26 25 25 9 0 46 -6 82 -14z"/>
<path d="M1517 682 c-9 -13 1 -144 11 -154 7 -7 15 -4 24 11 7 11 19 21 26 21
7 0 26 10 43 22 18 14 51 25 82 28 77 7 63 24 -27 32 -50 5 -90 15 -113 28
-38 23 -40 23 -46 12z m85 -64 c28 -3 28 -3 -12 -26 l-40 -23 0 37 c0 28 3 34
13 26 6 -6 24 -12 39 -14z"/>
</g>
</svg>
