<?xml version="1.0" standalone="no"?>
<!DOCTYPE svg PUBLIC "-//W3C//DTD SVG 20010904//EN"
 "http://www.w3.org/TR/2001/REC-SVG-20010904/DTD/svg10.dtd">
<svg version="1.0" xmlns="http://www.w3.org/2000/svg"
 width="186.000000pt" height="112.000000pt" viewBox="0 0 186.000000 112.000000"
 preserveAspectRatio="xMidYMid meet">
<metadata>
Created by potrace 1.16, written by Peter Selinger 2001-2019
</metadata>
<g transform="translate(0.000000,112.000000) scale(0.100000,-0.100000)"
fill="#000000" stroke="none">
<path d="M1550 999 c-30 -4 -136 -18 -235 -30 -99 -12 -183 -23 -186 -25 -6
-3 -444 -78 -521 -89 -84 -11 -176 -7 -219 10 -28 11 -36 -17 -48 -155 -7 -74
-14 -146 -16 -160 -2 -14 -7 -51 -11 -83 -4 -37 -12 -61 -21 -64 -11 -4 -13
-18 -10 -56 6 -56 23 -74 49 -50 13 12 41 17 94 18 l75 2 -2 -26 c-1 -14 -1
-63 -1 -109 2 -62 5 -83 15 -80 7 3 16 42 23 105 6 55 14 105 17 110 3 5 30 6
64 2 32 -4 118 -13 191 -20 127 -12 133 -13 150 -39 30 -48 81 -100 96 -100 8
0 30 26 49 58 28 47 38 57 58 54 94 -10 426 -19 433 -12 6 6 5 15 -2 23 -7 8
-9 16 -6 20 3 3 1 21 -5 39 -9 28 -6 67 14 204 14 93 30 205 36 249 5 44 16
106 24 138 8 33 13 63 9 68 -6 10 -36 10 -114 -2z m45 -79 c-7 -21 -17 -71
-21 -109 -3 -39 -11 -71 -16 -71 -5 0 -6 -5 -3 -10 4 -6 -3 -72 -14 -148 -23
-153 -30 -259 -18 -283 8 -15 -2 -17 -95 -13 -188 8 -260 12 -265 18 -10 9 38
76 74 103 31 24 93 54 175 84 15 6 30 20 34 31 8 26 -3 36 -19 15 -14 -19
-126 -71 -135 -63 -5 6 66 116 75 116 2 0 17 -7 33 -15 33 -17 55 -1 27 20
-10 7 -17 16 -17 21 0 5 -19 28 -43 50 -65 61 -82 104 -68 172 20 101 22 102
211 118 41 3 77 8 79 10 2 2 7 1 12 -2 4 -2 2 -22 -6 -44z m-378 -16 c-31 -17
-74 -11 -47 6 8 6 29 10 45 9 l30 0 -28 -15z m-77 -18 c0 -13 16 -44 35 -69
19 -25 35 -50 35 -55 0 -11 -161 -122 -202 -140 -16 -6 -28 -18 -28 -26 0 -8
28 -34 63 -59 34 -25 77 -61 96 -80 l33 -35 -38 -24 c-128 -80 -157 -91 -182
-66 -10 10 -17 10 -32 0 -21 -13 -75 -10 -240 14 -58 9 -110 20 -116 25 -9 7
-3 34 20 102 18 51 36 100 41 111 7 17 4 18 -41 13 -27 -3 -49 -6 -49 -6 0 -1
0 -46 -1 -101 0 -54 -3 -102 -6 -105 -9 -10 -131 16 -147 31 -12 11 -12 24 -3
81 7 37 17 111 22 162 6 52 12 95 13 96 47 21 216 68 274 75 43 6 94 15 113
20 19 5 51 12 70 14 75 9 187 27 220 35 19 5 38 9 43 10 4 1 7 -10 7 -23z
m136 2 c-2 -7 -10 -32 -16 -55 l-12 -41 -29 33 c-36 41 -36 48 -1 62 38 15 65
16 58 1z m-829 -89 c-14 -8 -22 -8 -30 0 -8 8 -3 11 19 11 25 -1 27 -2 11 -11z
m844 -117 c55 -57 56 -58 39 -82 -10 -14 -36 -55 -60 -92 -23 -38 -45 -68 -49
-68 -4 0 -26 20 -50 44 l-44 45 7 57 c10 87 14 97 54 126 20 15 39 27 42 28 3
0 31 -26 61 -58z m-186 -71 c-8 -46 -8 -46 -38 -30 -34 18 -34 19 3 49 19 16
36 27 38 25 2 -2 1 -22 -3 -44z m-526 -63 c-17 -34 -19 -34 -19 -5 0 18 5 27
15 27 13 0 14 -4 4 -22z m577 -195 c-21 -42 -36 -50 -76 -43 -30 6 -32 8 -15
15 11 5 38 21 60 36 22 15 41 26 43 24 2 -2 -3 -16 -12 -32z m-763 0 c-7 -2
-21 -2 -30 0 -10 3 -4 5 12 5 17 0 24 -2 18 -5z m695 -109 c-11 -19 -23 -34
-27 -34 -4 0 -22 15 -40 34 -33 34 -33 34 -10 38 13 1 40 1 61 0 l36 -4 -20
-34z"/>
</g>
</svg>
