<?xml version="1.0" standalone="no"?>
<!DOCTYPE svg PUBLIC "-//W3C//DTD SVG 20010904//EN"
 "http://www.w3.org/TR/2001/REC-SVG-20010904/DTD/svg10.dtd">
<svg version="1.0" xmlns="http://www.w3.org/2000/svg"
 width="205.000000pt" height="130.000000pt" viewBox="0 0 205.000000 130.000000"
 preserveAspectRatio="xMidYMid meet">
<metadata>
Created by potrace 1.16, written by Peter Selinger 2001-2019
</metadata>
<g transform="translate(0.000000,130.000000) scale(0.100000,-0.100000)"
fill="#000000" stroke="none">
<path d="M369 1137 c-27 -21 -37 -50 -42 -127 -3 -41 -9 -94 -13 -117 -4 -25
-2 -48 3 -55 6 -7 9 -35 7 -63 -3 -27 -6 -81 -9 -120 -8 -120 -40 -363 -55
-416 -27 -92 -6 -90 90 9 96 98 204 172 186 127 -3 -8 1 -30 9 -49 8 -20 15
-53 15 -75 0 -46 14 -61 30 -30 8 14 9 48 5 103 l-7 83 30 21 c33 24 -3 22
764 37 l296 6 4 -23 c4 -31 19 -27 41 12 15 28 16 37 6 56 -6 12 -9 30 -6 39
4 8 9 55 12 103 3 48 8 121 11 162 4 41 6 86 5 98 -1 30 58 120 109 166 55 50
53 60 -10 57 -77 -3 -423 -32 -429 -35 -3 -2 -51 -7 -106 -11 -55 -3 -136 -10
-180 -16 -103 -12 -211 -11 -256 1 -19 5 -60 12 -90 14 -211 14 -323 28 -342
41 -26 18 -56 19 -78 2z m1429 -82 c-23 -30 -46 -55 -49 -55 -4 0 -9 22 -11
50 -3 55 -1 57 65 59 l38 1 -43 -55z m-101 23 c14 -24 5 -156 -14 -184 -16
-25 -16 -27 1 -40 13 -9 17 -20 13 -36 -6 -22 -12 -24 -74 -24 -37 -1 -117 -4
-178 -9 l-110 -8 55 44 c30 23 61 49 69 57 8 8 38 32 68 54 47 36 65 58 47 58
-11 0 -98 -67 -124 -95 -34 -37 -136 -115 -150 -115 -15 0 -4 55 17 87 9 13
12 23 9 23 -4 0 -2 6 4 13 59 71 88 112 84 118 -5 8 -170 11 -196 3 -10 -3
-18 -12 -18 -19 0 -10 9 -12 35 -8 19 3 35 2 35 -3 0 -12 -18 -141 -25 -180
-4 -24 -12 -33 -31 -37 -14 -2 -31 1 -37 7 -7 7 -24 20 -39 30 -25 16 -26 22
-23 76 2 33 6 69 10 80 9 27 -9 26 -48 -4 -18 -14 -43 -30 -57 -36 -37 -16
-70 -36 -83 -50 -9 -9 -3 -10 26 -5 23 5 37 3 37 -3 0 -6 10 -14 23 -18 24 -7
98 -70 91 -76 -7 -7 -118 16 -142 30 -12 7 -27 10 -32 7 -6 -3 -10 -1 -10 5 0
22 -34 5 -41 -20 -11 -39 -10 -178 1 -185 13 -8 62 30 52 40 -4 3 -2 5 3 3 6
-1 28 8 50 21 84 51 106 61 141 61 35 0 74 -14 74 -28 0 -14 -97 -71 -152 -89
-35 -11 -58 -24 -58 -33 0 -8 14 -29 32 -47 17 -18 29 -35 26 -39 -3 -3 -66
-5 -140 -4 -73 1 -165 1 -205 0 -43 -1 -74 3 -78 10 -5 8 -11 8 -21 -1 -12 -9
-14 -5 -14 24 0 20 4 38 9 41 4 3 23 34 41 69 18 35 45 79 61 97 34 38 30 51
-14 46 -18 -2 -54 -4 -82 -5 -48 -1 -91 -18 -70 -27 10 -4 10 -206 0 -233 -4
-11 -21 -12 -77 -7 -40 3 -76 10 -81 15 -5 5 -16 7 -25 4 -13 -5 -14 4 -7 68
4 41 8 85 9 99 2 33 58 113 101 146 40 30 43 42 15 52 -18 7 -9 16 62 63 137
93 122 89 338 74 61 -5 160 -1 275 9 261 23 342 29 406 30 32 0 61 4 65 9 12
12 62 8 71 -5z m-1109 -21 c8 -1 -23 -26 -68 -55 -45 -29 -86 -52 -93 -49 -10
3 -12 91 -2 107 3 5 126 3 163 -3z m750 -94 c-14 -16 -28 -35 -31 -43 -3 -8
-6 1 -6 21 -1 42 4 49 38 49 l25 0 -26 -27z m-256 -63 l-4 -39 -29 15 c-36 18
-36 25 -1 46 38 23 38 23 34 -22z m-689 -77 c-15 -23 -18 -24 -21 -9 -2 10 2
22 10 27 24 16 29 9 11 -18z m610 -67 c15 -4 27 -10 27 -14 0 -4 -22 -19 -49
-34 l-49 -28 -3 28 c-2 15 -3 37 -1 49 3 18 7 21 25 13 12 -5 34 -11 50 -14z
m680 -113 c-3 -71 -8 -130 -10 -133 -3 -3 -44 -5 -93 -5 -81 1 -90 3 -109 25
-11 14 -18 31 -16 38 2 6 0 12 -6 12 -13 0 -149 134 -149 147 0 16 26 23 88
24 31 0 77 4 102 8 25 5 80 9 122 10 l77 1 -6 -127z m-1038 58 c-31 -62 -43
-70 -51 -34 -3 15 -10 40 -14 56 -9 27 -9 27 41 27 l49 0 -25 -49z m602 -73
c-2 -52 1 -63 16 -66 14 -3 17 4 17 42 0 33 4 46 14 46 8 0 45 -30 82 -67 l67
-68 -34 -6 c-19 -3 -91 -6 -161 -8 l-128 -2 12 28 c7 15 25 48 40 72 16 25 28
49 28 53 0 13 24 37 37 38 8 0 11 -20 10 -62z m-112 -45 c-15 -26 -29 -50 -31
-52 -2 -2 -17 11 -33 28 -30 32 -30 32 -8 41 12 4 38 15 57 23 19 9 37 14 39
12 2 -2 -9 -26 -24 -52z m-657 -123 c40 0 54 -4 59 -17 4 -9 1 -19 -5 -21 -27
-9 -136 -87 -189 -136 -31 -28 -52 -42 -46 -31 6 11 16 61 23 110 7 50 17 95
22 101 6 8 20 9 46 3 20 -5 61 -9 90 -9z"/>
</g>
</svg>
