<?xml version="1.0" standalone="no"?>
<!DOCTYPE svg PUBLIC "-//W3C//DTD SVG 20010904//EN"
 "http://www.w3.org/TR/2001/REC-SVG-20010904/DTD/svg10.dtd">
<svg version="1.0" xmlns="http://www.w3.org/2000/svg"
 width="195.000000pt" height="114.000000pt" viewBox="0 0 195.000000 114.000000"
 preserveAspectRatio="xMidYMid meet">
<metadata>
Created by potrace 1.16, written by Peter Selinger 2001-2019
</metadata>
<g transform="translate(0.000000,114.000000) scale(0.100000,-0.100000)"
fill="#000000" stroke="none">
<path d="M363 1108 c-8 -14 -10 -46 -12 -185 -1 -81 -4 -96 -22 -114 -25 -25
-25 -21 -16 -221 5 -120 4 -148 -7 -148 -8 0 -23 -8 -34 -17 -26 -22 -42 -138
-33 -228 5 -54 8 -60 28 -58 12 2 46 18 75 36 55 35 199 97 226 97 12 0 13 -9
8 -50 -3 -27 -9 -72 -12 -100 -4 -30 -3 -50 3 -50 9 0 17 40 39 178 4 29 8 32
40 32 21 0 37 6 40 15 5 13 40 14 263 9 264 -7 348 -7 486 1 44 2 112 5 150 5
l70 0 2 186 c1 167 3 188 20 207 21 24 72 121 93 177 8 19 28 58 47 86 18 28
33 56 33 63 0 7 -20 11 -53 11 -29 0 -59 6 -66 13 -11 10 -12 9 -6 -3 6 -11 3
-10 -12 3 -18 16 -21 16 -33 2 -7 -9 -15 -13 -18 -11 -2 3 -12 1 -21 -3 -46
-24 -894 -30 -1016 -7 -11 3 -38 9 -60 15 -22 5 -58 14 -80 20 -22 5 -47 19
-57 31 -18 22 -53 27 -65 8z m142 -99 c52 -16 206 -28 327 -26 65 1 114 0 110
-3 -9 -8 -82 -24 -177 -41 -38 -6 -92 -22 -120 -35 -59 -26 -165 -59 -182 -56
-6 2 -14 -2 -18 -8 -3 -5 -15 -10 -26 -10 -15 0 -19 5 -15 18 8 26 17 103 17
145 0 41 2 41 84 16z m1272 -36 c-12 -21 -31 -56 -41 -78 -38 -84 -71 -147
-78 -151 -5 -3 -8 9 -8 27 0 39 -25 118 -58 183 l-25 49 69 -5 c38 -3 78 -2
89 2 11 5 32 9 48 9 l27 1 -23 -37z m-227 -44 c38 -86 48 -144 26 -152 -9 -4
-26 -3 -39 2 -12 5 -65 9 -117 10 -51 1 -95 3 -97 4 -1 2 20 34 47 71 28 38
50 78 50 89 0 17 -5 19 -31 13 -17 -3 -59 -6 -93 -6 -71 0 -96 -11 -78 -33 7
-8 13 -38 15 -67 l2 -53 -62 -2 c-34 -2 -66 -6 -72 -9 -19 -12 -112 26 -133
55 -42 56 -63 9 -73 -158 -3 -57 -1 -103 3 -103 5 0 7 -22 4 -49 -2 -28 -2
-61 2 -74 6 -24 8 -24 53 -15 27 6 60 19 75 30 15 10 52 30 82 44 31 14 58 30
61 35 4 5 17 9 31 9 22 0 23 -3 19 -35 -2 -20 -12 -60 -21 -89 -18 -58 -13
-106 12 -106 10 0 14 10 14 32 -1 18 9 68 22 111 l23 77 103 -4 c60 -3 102 -1
102 5 0 5 29 9 64 9 l65 0 -7 -37 c-8 -47 -7 -116 3 -163 l7 -35 -64 -2 c-100
-3 -464 -2 -573 1 -55 1 -157 3 -228 4 l-127 2 6 58 c8 72 44 152 95 207 21
23 39 46 39 50 0 4 -20 4 -45 1 -26 -4 -61 -2 -85 5 -35 11 -43 10 -57 -4 -14
-14 -15 -25 -5 -94 7 -43 13 -111 15 -152 l3 -73 -41 6 c-22 4 -56 9 -75 12
-19 3 -39 9 -45 13 -5 5 -22 11 -38 15 l-27 6 6 102 c4 78 10 106 23 118 9 8
34 40 56 70 21 30 56 75 77 99 21 24 36 47 33 49 -10 10 108 49 170 56 33 5
67 14 76 23 19 16 135 38 244 47 46 3 73 10 81 20 11 16 87 21 302 21 l93 0
29 -66z m-190 -14 c0 -10 -48 -81 -64 -94 -14 -12 -16 -10 -16 22 0 19 -3 42
-6 50 -4 11 2 17 23 20 46 7 63 7 63 2z m-863 -119 c-3 -8 -32 -50 -64 -93
l-58 -78 -3 64 c-3 71 -4 70 73 103 50 21 59 22 52 4z m538 -21 c28 -7 72 -16
98 -20 26 -3 60 -12 75 -18 24 -11 27 -17 28 -65 l0 -54 -105 7 c-58 4 -112
12 -119 18 -17 14 59 65 111 73 39 7 51 24 17 24 -30 0 -81 -23 -130 -59 -71
-51 -77 -44 -63 67 5 43 9 52 22 47 9 -4 39 -13 66 -20z m195 -5 c28 -17 1
-22 -42 -7 l-43 15 35 1 c19 0 42 -3 50 -9z m371 -32 c1 -7 3 -24 5 -38 2 -14
1 -43 -2 -65 l-5 -40 -112 1 c-62 1 -133 2 -159 2 l-48 2 0 65 0 65 143 -1
c159 -1 182 1 117 11 l-45 7 53 1 c35 2 52 -2 53 -10z m-917 -135 c-15 -16
-33 -41 -41 -56 -8 -16 -16 -27 -18 -25 -2 1 -6 23 -10 48 -4 24 -9 48 -11 52
-3 5 20 8 50 8 l55 0 -25 -27z m384 -17 c54 1 69 -9 29 -20 -12 -3 -43 -19
-67 -35 -25 -16 -57 -33 -72 -36 -31 -8 -33 -2 -22 68 7 37 7 37 43 30 20 -4
60 -8 89 -7z m-713 -255 c25 0 67 -7 95 -16 11 -4 42 -7 67 -7 55 0 49 -6 -42
-42 -38 -16 -92 -39 -119 -53 -26 -13 -51 -21 -55 -18 -7 8 -12 146 -4 158 3
4 13 1 22 -7 9 -8 25 -15 36 -15z"/>
</g>
</svg>
