<?xml version="1.0" standalone="no"?>
<!DOCTYPE svg PUBLIC "-//W3C//DTD SVG 20010904//EN"
 "http://www.w3.org/TR/2001/REC-SVG-20010904/DTD/svg10.dtd">
<svg version="1.0" xmlns="http://www.w3.org/2000/svg"
 width="201.000000pt" height="111.000000pt" viewBox="0 0 201.000000 111.000000"
 preserveAspectRatio="xMidYMid meet">
<metadata>
Created by potrace 1.16, written by Peter Selinger 2001-2019
</metadata>
<g transform="translate(0.000000,111.000000) scale(0.100000,-0.100000)"
fill="#000000" stroke="none">
<path d="M957 1013 c-59 -5 -67 -21 -67 -131 0 -42 -4 -104 -9 -137 -5 -33
-12 -82 -16 -110 -3 -27 -9 -52 -11 -55 -9 -8 -220 -1 -337 11 -124 13 -204 8
-246 -17 -32 -19 -40 -40 -47 -124 -3 -30 -9 -68 -14 -85 -5 -16 -14 -68 -20
-115 l-10 -85 27 -22 c19 -15 31 -19 39 -12 8 7 33 6 76 0 174 -28 478 -35
1278 -29 69 0 142 -3 162 -7 31 -6 39 -4 44 10 10 25 -5 33 -66 37 l-55 3 -1
48 c0 26 3 71 7 100 4 29 10 75 13 102 7 78 17 136 31 185 7 25 19 97 25 160
7 63 19 136 27 161 14 39 14 49 2 75 -14 27 -17 29 -69 26 -184 -10 -418 -11
-495 -3 -131 14 -213 18 -268 14z m193 -50 c19 -4 166 -8 326 -8 l292 0 -16
-30 c-8 -16 -23 -97 -33 -180 -10 -82 -23 -163 -30 -180 -12 -32 -14 -43 -23
-150 -4 -38 -12 -85 -18 -104 -6 -19 -11 -65 -11 -103 l0 -68 -181 -1 c-519
-4 -750 3 -1041 31 -60 6 -126 13 -145 14 -34 4 -34 4 -31 47 1 24 9 76 18
114 8 39 16 97 18 129 6 91 4 91 203 77 93 -6 236 -11 316 -11 122 0 148 3
152 15 4 8 1 22 -6 30 -8 10 -10 36 -4 92 4 43 7 125 6 182 0 58 2 109 5 114
6 10 140 3 203 -10z"/>
<path d="M1094 926 c-3 -8 -1 -23 5 -35 14 -24 14 -70 1 -158 -45 -324 -52
-415 -31 -436 8 -8 -3 -24 -46 -64 -32 -29 -61 -53 -65 -53 -5 0 -8 -7 -8 -15
0 -33 43 -13 98 46 53 57 156 135 230 173 17 9 71 57 120 107 48 50 98 96 111
102 33 16 42 42 12 34 -17 -4 -21 -2 -17 9 7 19 -38 60 -106 94 -31 16 -58 33
-60 37 -5 12 -85 73 -95 73 -5 0 -34 23 -65 50 -59 52 -75 59 -84 36z m149
-151 c54 -36 57 -41 52 -69 -4 -17 -10 -55 -16 -83 -5 -29 -14 -78 -20 -108
-7 -37 -7 -60 0 -73 9 -17 0 -26 -71 -76 -52 -37 -84 -54 -90 -48 -7 7 -3 14
12 22 19 10 21 17 15 63 -4 30 0 90 8 141 8 48 12 97 10 107 -9 33 18 180 31
171 6 -4 37 -26 69 -47z m182 -126 c4 -5 18 -14 32 -20 24 -9 23 -11 -59 -89
-71 -68 -98 -90 -98 -77 0 1 6 34 14 74 7 40 12 74 9 77 -2 2 1 22 7 44 l12
39 39 -18 c21 -11 41 -24 44 -30z"/>
</g>
</svg>
