<?xml version="1.0" standalone="no"?>
<!DOCTYPE svg PUBLIC "-//W3C//DTD SVG 20010904//EN"
 "http://www.w3.org/TR/2001/REC-SVG-20010904/DTD/svg10.dtd">
<svg version="1.0" xmlns="http://www.w3.org/2000/svg"
 width="250.000000pt" height="130.000000pt" viewBox="0 0 250.000000 130.000000"
 preserveAspectRatio="xMidYMid meet">
<metadata>
Created by potrace 1.16, written by Peter Selinger 2001-2019
</metadata>
<g transform="translate(0.000000,130.000000) scale(0.100000,-0.100000)"
fill="#000000" stroke="none">
<path d="M705 1029 c-61 -38 -111 -74 -113 -79 -2 -6 8 -10 21 -10 30 0 85
-43 98 -77 8 -22 29 -32 29 -14 0 5 9 11 21 14 23 6 17 27 -7 27 -17 0 -18 30
-3 98 8 41 16 53 45 68 18 10 34 22 34 26 0 21 -26 10 -125 -53z m11 -41 c-3
-13 -6 -31 -6 -41 0 -16 -2 -16 -30 -2 l-30 16 27 24 c35 31 47 31 39 3z"/>
<path d="M600 1060 c-19 -11 -42 -19 -51 -20 -9 0 -24 -9 -34 -20 -10 -11 -26
-20 -35 -20 -10 0 -35 -7 -56 -16 l-39 -16 45 -39 c81 -71 167 -111 177 -83 2
6 -10 17 -26 24 -30 12 -31 14 -29 72 1 50 5 62 26 79 14 10 30 19 37 19 6 0
20 9 30 20 24 26 3 26 -45 0z m-80 -111 c0 -35 -2 -35 -41 -7 l-29 22 27 12
c36 14 43 10 43 -27z"/>
<path d="M1475 1060 c-47 -8 -51 -23 -86 -275 -6 -44 -13 -82 -14 -83 -5 -5
-63 37 -117 84 -26 23 -62 48 -80 57 -18 9 -44 27 -58 42 -28 30 -111 85 -128
85 -7 0 -12 -6 -12 -14 0 -14 110 -108 170 -144 19 -11 44 -29 55 -39 11 -10
49 -40 85 -67 85 -64 88 -69 81 -113 -6 -36 -9 -38 -176 -125 -94 -49 -186
-95 -205 -104 -19 -8 -43 -19 -52 -24 -10 -6 -20 -10 -24 -10 -6 0 -3 115 12
432 l7 157 28 -6 c41 -8 37 15 -6 33 -19 7 -36 14 -39 14 -11 0 -26 -70 -21
-93 8 -32 -1 -37 -88 -48 -91 -12 -202 -13 -392 -5 -208 10 -215 4 -215 -159
-1 -44 -3 -108 -6 -141 -5 -54 -9 -63 -31 -73 -14 -7 -22 -15 -18 -19 3 -4 92
-5 197 -3 138 2 189 0 184 -8 -4 -6 -16 -11 -28 -11 -11 0 -22 -8 -25 -17 -2
-10 -22 -30 -44 -46 l-40 -27 26 -34 c34 -45 78 -78 139 -105 61 -26 80 -14
36 23 -17 14 -35 26 -39 26 -4 0 -16 18 -26 39 -23 53 -14 105 27 143 28 26
36 28 112 27 59 0 75 -3 59 -9 -13 -5 -23 -14 -23 -19 0 -5 -25 -25 -55 -43
-30 -18 -55 -38 -55 -44 0 -6 14 -17 30 -24 17 -7 42 -27 57 -44 32 -39 90
-69 111 -57 12 7 10 12 -14 27 -50 32 -125 117 -111 126 20 13 24 10 32 -19 8
-34 33 -63 53 -63 13 0 12 3 -2 19 -33 37 -13 131 27 131 6 0 18 6 26 14 9 8
27 16 40 18 24 3 25 1 25 -70 1 -66 4 -76 26 -94 24 -19 24 -19 39 1 14 18
121 77 352 194 88 45 81 55 74 -106 -6 -123 -5 -145 8 -156 25 -20 53 -10 49
19 -6 37 -3 262 2 285 8 34 78 67 122 59 l36 -7 -7 -56 c-3 -31 -8 -107 -11
-170 l-4 -115 -51 3 c-74 4 -61 -22 17 -32 83 -11 342 -1 441 18 49 9 206 28
251 29 24 1 47 8 52 15 4 8 12 11 18 7 12 -7 42 3 42 14 0 5 -15 11 -32 15
-18 4 -64 24 -103 45 -38 21 -116 56 -173 79 -57 23 -135 58 -175 78 -40 20
-101 46 -137 58 -65 22 -65 22 -65 60 0 36 3 39 65 73 85 46 215 129 315 199
44 31 94 64 110 73 17 9 29 24 27 32 -1 9 13 25 34 37 20 12 33 25 29 29 -8 8
-695 10 -740 2z m615 -60 c-28 -24 -39 -39 -30 -42 8 -2 -9 -18 -41 -37 -30
-18 -63 -41 -74 -51 -11 -10 -74 -49 -140 -87 -66 -38 -130 -76 -142 -83 -12
-8 -24 -12 -27 -10 -5 5 7 112 24 225 6 39 11 80 12 93 0 21 3 22 112 23 138
1 267 6 272 11 2 2 20 2 41 0 l37 -5 -44 -37z m-430 24 c2 -3 0 -8 -6 -12 -22
-15 -32 -58 -70 -315 -8 -54 -47 -73 -116 -56 l-50 13 5 91 c3 49 8 97 11 105
3 8 7 46 10 83 6 101 18 110 126 102 46 -4 87 -9 90 -11z m455 -44 c-3 -5 -12
-10 -18 -10 -7 0 -6 4 3 10 19 12 23 12 15 0z m-1716 -223 c0 -12 5 -48 12
-80 7 -36 9 -87 4 -133 l-7 -74 -49 -1 c-27 0 -62 -1 -77 -2 -15 0 -32 2 -38
5 -8 6 -10 128 -5 283 l1 30 80 -3 c74 -3 80 -5 79 -25z m486 -27 c-1 -118
-14 -243 -26 -250 -13 -9 -339 -24 -379 -19 -25 4 -25 5 -26 99 0 52 -4 121
-8 152 l-8 58 188 3 c290 5 259 10 259 -43z m695 -114 c0 -3 -4 -8 -10 -11 -5
-3 -10 -1 -10 4 0 6 5 11 10 11 6 0 10 -2 10 -4z m-130 -26 c-19 -13 -30 -13
-30 0 0 6 10 10 23 10 18 0 19 -2 7 -10z m235 -65 c28 -9 88 -33 135 -55 47
-22 150 -68 229 -102 80 -35 146 -68 148 -75 5 -13 -14 -17 -177 -44 -129 -20
-216 -31 -295 -34 -69 -3 -83 0 -102 17 -20 19 -21 28 -18 117 4 109 16 192
28 191 1 0 25 -7 52 -15z m-1215 -206 c0 -18 -2 -20 -15 -9 -13 11 -13 15 -3
21 18 12 18 12 18 -12z"/>
<path d="M1076 738 c-3 -18 -3 -71 -1 -118 2 -47 4 -109 5 -137 0 -40 4 -53
15 -53 16 0 19 31 14 165 -1 39 -2 94 -1 123 1 60 -22 75 -32 20z"/>
</g>
</svg>
