<?xml version="1.0" standalone="no"?>
<!DOCTYPE svg PUBLIC "-//W3C//DTD SVG 20010904//EN"
 "http://www.w3.org/TR/2001/REC-SVG-20010904/DTD/svg10.dtd">
<svg version="1.0" xmlns="http://www.w3.org/2000/svg"
 width="212.000000pt" height="126.000000pt" viewBox="0 0 212.000000 126.000000"
 preserveAspectRatio="xMidYMid meet">
<metadata>
Created by potrace 1.16, written by Peter Selinger 2001-2019
</metadata>
<g transform="translate(0.000000,126.000000) scale(0.100000,-0.100000)"
fill="#000000" stroke="none">
<path d="M1114 1198 c-21 -18 -52 -55 -70 -83 -17 -27 -41 -61 -53 -74 -16
-19 -18 -26 -9 -33 7 -4 21 -5 31 -2 18 6 121 -17 187 -41 29 -10 159 -50 195
-60 6 -1 -13 -2 -41 -2 -32 -1 -66 -9 -95 -23 -60 -31 -121 -80 -116 -94 3 -6
-5 -24 -17 -41 -12 -16 -28 -44 -35 -62 -21 -51 -37 -60 -65 -34 -45 42 -40
153 11 274 23 54 7 65 -43 29 -21 -16 -75 -47 -120 -70 l-80 -42 -120 5 c-65
2 -141 9 -169 14 -29 5 -57 5 -67 0 -23 -12 -28 -11 -28 6 0 22 -31 18 -37 -5
-6 -21 -18 -24 -95 -20 -77 3 -110 -17 -73 -44 11 -8 16 -33 16 -96 2 -109 -5
-153 -47 -336 -31 -132 -34 -157 -24 -193 18 -68 45 -49 41 30 -1 26 2 50 7
53 6 3 13 26 16 50 7 42 9 45 72 75 35 17 75 33 89 37 14 3 30 14 35 23 8 14
9 13 10 -4 0 -11 -5 -36 -10 -55 -6 -19 -12 -72 -15 -117 -3 -67 -2 -83 10
-83 21 0 26 15 35 98 4 42 14 99 21 125 l14 48 169 5 c167 5 226 1 226 -16 0
-11 -109 -77 -135 -82 -31 -5 -24 -32 11 -42 17 -5 40 -24 52 -43 13 -18 36
-42 52 -51 44 -27 68 -64 77 -118 12 -67 30 -68 98 -3 30 29 94 77 143 107 48
30 99 63 114 73 15 11 31 19 36 19 6 0 37 18 70 40 33 22 63 40 66 40 4 0 48
24 99 54 51 30 112 66 137 80 52 30 241 123 278 137 16 6 22 13 16 19 -14 14
-117 -22 -214 -75 -124 -67 -256 -121 -500 -205 -14 -5 -72 -27 -130 -50 -203
-80 -203 -80 -228 -60 -23 19 -29 45 -12 55 6 4 8 9 6 13 -6 11 56 116 93 158
33 37 33 37 61 21 15 -10 39 -17 53 -17 13 0 30 -7 38 -16 59 -71 235 -67 291
8 35 47 60 130 65 223 5 72 3 83 -17 109 -13 15 -37 37 -54 47 l-31 19 35 -6
c19 -3 58 -17 85 -29 28 -13 110 -51 183 -84 73 -33 145 -69 160 -79 40 -28
59 -32 72 -17 18 22 5 33 -93 81 -50 24 -98 51 -108 60 -10 9 -42 28 -71 43
-86 44 -204 121 -249 162 -23 22 -48 39 -55 39 -7 0 -50 36 -95 80 -45 44 -90
80 -100 80 -10 0 -35 -15 -55 -32z m101 -59 c28 -28 75 -67 105 -87 30 -19 66
-46 80 -58 14 -12 52 -39 85 -59 65 -39 63 -39 -80 0 -67 19 -124 38 -333 110
-10 4 -9 12 4 37 18 34 75 108 84 108 3 0 28 -23 55 -51z m-261 -306 c-8 -25
-16 -48 -19 -51 -7 -7 -54 52 -48 61 5 9 61 36 75 37 3 0 0 -21 -8 -47z m463
-12 c31 -24 33 -30 33 -86 0 -69 -30 -187 -54 -214 -26 -29 -84 -42 -136 -30
-52 12 -70 25 -70 51 0 10 -6 21 -14 24 -16 6 -35 76 -32 120 3 38 41 90 75
102 14 5 37 19 51 30 23 20 24 21 5 23 -17 1 -16 2 5 9 39 13 101 0 137 -29z
m-945 -9 c14 -6 10 -11 -22 -30 -42 -24 -54 -14 -23 20 17 20 20 20 45 10z
m379 -33 c8 -4 28 -32 44 -61 16 -29 48 -70 72 -92 24 -21 43 -43 43 -50 -1
-6 -14 -26 -30 -45 l-29 -34 -193 2 c-106 1 -212 4 -235 7 l-42 6 41 67 c22
36 44 68 49 69 12 5 12 39 0 46 -4 3 -45 6 -91 7 -81 2 -82 3 -58 21 33 25
100 45 197 57 46 6 86 12 87 14 6 6 129 -5 145 -14z m-521 0 c0 -6 -9 -22 -20
-36 -11 -14 -20 -33 -21 -42 -1 -23 -17 29 -18 62 -1 24 3 27 29 27 17 0 30
-5 30 -11z m49 -79 c5 0 8 -8 7 -17 -1 -14 7 -18 34 -19 79 -3 90 -5 90 -16 0
-7 -9 -24 -19 -37 l-19 -25 -16 37 c-17 42 -54 54 -41 15 9 -29 23 -122 20
-126 -2 -2 -27 1 -57 6 -29 6 -65 8 -80 5 -26 -5 -27 -4 -21 33 3 22 21 72 41
112 30 61 37 70 44 53 4 -12 12 -21 17 -21z m723 -122 l5 -32 -18 23 c-11 13
-16 27 -13 32 11 18 22 8 26 -23z m-774 -107 c10 -6 6 -11 -16 -19 -32 -11
-42 -7 -42 15 0 15 38 17 58 4z m1167 -41 c-3 -5 -10 -10 -14 -10 -22 0 -337
-187 -435 -257 -61 -45 -76 -47 -76 -9 0 13 -9 31 -20 41 -11 10 -19 23 -18
27 4 10 93 49 178 78 30 10 87 30 125 45 129 50 250 94 258 94 5 1 5 -3 2 -9z
m-624 -75 c-10 -27 -23 -51 -27 -52 -5 -2 -17 10 -26 27 l-16 29 41 25 c23 13
43 23 44 22 1 -1 -6 -24 -16 -51z"/>
</g>
</svg>
