<?xml version="1.0" standalone="no"?>
<!DOCTYPE svg PUBLIC "-//W3C//DTD SVG 20010904//EN"
 "http://www.w3.org/TR/2001/REC-SVG-20010904/DTD/svg10.dtd">
<svg version="1.0" xmlns="http://www.w3.org/2000/svg"
 width="228.000000pt" height="160.000000pt" viewBox="0 0 228.000000 160.000000"
 preserveAspectRatio="xMidYMid meet">
<metadata>
Created by potrace 1.16, written by Peter Selinger 2001-2019
</metadata>
<g transform="translate(0.000000,160.000000) scale(0.100000,-0.100000)"
fill="#000000" stroke="none">
<path d="M950 1492 c-24 -26 -25 -34 -28 -166 -2 -78 1 -143 6 -148 9 -9 29 5
54 41 7 10 43 36 80 59 71 43 106 49 257 44 l64 -2 -6 -95 c-4 -53 -10 -101
-14 -108 -16 -25 -167 -9 -190 20 -11 14 -15 13 -39 -6 -25 -20 -34 -21 -228
-16 -181 4 -218 8 -370 40 -93 20 -175 40 -182 46 -21 17 -92 1 -106 -24 -7
-13 -12 -65 -13 -124 0 -57 -4 -103 -9 -103 -5 0 -7 -105 -4 -240 2 -133 1
-243 -3 -246 -4 -2 -6 -23 -4 -47 2 -23 4 -46 4 -52 1 -6 4 -6 10 0 6 6 19 64
31 130 27 155 27 155 55 155 29 0 75 20 75 32 0 5 -9 4 -19 -2 -11 -5 -23 -10
-28 -10 -4 0 29 20 74 45 91 49 107 55 72 25 -21 -17 -21 -19 -4 -13 11 4 35
15 53 26 21 13 32 15 32 7 0 -7 6 -10 14 -7 11 5 13 -18 11 -129 -2 -125 5
-163 20 -113 4 12 8 42 10 68 1 25 6 74 10 109 7 55 10 62 30 62 12 0 25 3 28
7 4 3 85 6 180 5 94 -1 194 -2 221 -2 l48 0 -6 -72 c-17 -194 -16 -190 -40
-185 -55 13 -102 37 -121 61 -18 22 -26 25 -53 20 -18 -4 -37 -15 -42 -25 -14
-25 -13 -376 1 -384 5 -4 18 0 28 9 10 9 20 16 23 16 3 0 54 27 115 59 60 33
136 70 169 82 32 12 68 28 79 35 11 8 31 14 46 14 14 0 28 2 31 5 3 4 93 8
199 10 107 3 222 8 256 13 35 5 68 5 74 2 13 -8 59 -1 59 10 0 15 -67 18 -170
6 -102 -11 -324 -6 -436 9 l-50 7 7 42 c4 22 12 56 18 75 5 18 10 36 9 40 -1
3 3 31 9 61 24 119 40 237 49 355 3 44 14 98 24 120 10 22 21 51 25 64 10 31
51 92 77 112 14 11 19 22 14 34 -5 15 -14 16 -54 10 -26 -4 -65 -7 -87 -5 -22
1 -47 1 -55 0 -135 -17 -299 49 -355 143 -9 15 -13 14 -35 -11z m117 -120 c29
-15 53 -30 53 -33 0 -4 -28 -20 -63 -36 -34 -17 -68 -38 -76 -47 -7 -9 -16
-16 -20 -16 -8 0 -13 169 -5 192 5 16 8 15 32 -7 15 -14 51 -37 79 -53z m411
-59 c-10 -23 -54 -93 -58 -93 -3 0 -5 23 -5 50 0 50 0 50 33 50 19 0 32 -3 30
-7z m-1072 -174 c33 -5 88 -14 124 -20 95 -15 102 -20 40 -35 -30 -7 -72 -17
-92 -22 -38 -10 -119 -53 -151 -80 -9 -8 -20 -13 -22 -10 -9 9 -19 174 -12
192 6 15 9 15 31 1 13 -9 50 -20 82 -26z m740 -101 c10 -43 6 -220 -5 -231
-10 -10 -431 2 -431 12 0 11 87 113 126 148 20 17 33 36 30 41 -3 5 -55 9
-116 8 -60 0 -110 2 -110 7 0 4 -7 7 -15 7 -11 0 -15 -12 -16 -47 -1 -59 -9
-156 -13 -161 -8 -7 -226 -10 -226 -3 0 12 82 111 92 111 4 0 8 7 8 16 0 14
-9 15 -62 9 l-63 -7 45 33 c25 18 47 37 50 40 3 4 41 17 85 29 67 18 119 22
325 27 135 3 247 7 249 9 11 10 40 -20 47 -48z m199 -84 c-14 -128 -42 -343
-51 -384 -3 -14 -9 -45 -12 -70 -8 -49 -7 -49 -85 -29 -46 12 -54 29 -38 83 7
23 18 68 25 101 15 71 31 105 51 105 23 0 29 22 11 36 -15 10 -16 18 -6 56 19
73 53 151 84 190 16 21 30 37 31 35 1 -1 -4 -56 -10 -123z m-51 104 c-4 -7
-13 -20 -20 -28 -19 -23 -74 -167 -74 -195 0 -14 -4 -25 -9 -25 -5 0 -8 15 -5
33 8 55 7 160 0 195 l-8 32 62 0 c46 0 59 -3 54 -12z m-497 -82 c3 -2 -9 -19
-25 -37 -16 -19 -43 -56 -62 -83 l-33 -49 -18 24 c-13 17 -19 41 -19 85 0 33
3 64 7 68 7 7 143 0 150 -8z m-402 -73 c-10 -14 -26 -41 -37 -60 -11 -18 -24
-33 -29 -33 -5 0 -9 -9 -9 -19 0 -11 -15 -51 -33 -90 l-34 -71 -1 119 -1 120
37 22 c20 12 55 26 77 29 22 4 42 8 44 9 2 0 -5 -11 -14 -26z m95 -128 c0 -5
-175 -95 -184 -95 -9 0 17 65 32 83 12 13 31 17 84 17 37 0 68 -2 68 -5z m472
-270 c16 -14 35 -25 43 -25 7 0 26 -7 41 -15 16 -8 37 -15 47 -15 9 0 17 -7
17 -15 0 -17 21 -20 36 -5 8 8 19 8 38 0 15 -5 45 -10 66 -10 66 0 53 -17 -37
-49 -49 -17 -101 -38 -118 -47 -98 -53 -145 -73 -159 -68 -13 5 -16 23 -17 98
-1 50 -1 102 -1 116 -1 41 2 60 8 60 3 0 19 -11 36 -25z"/>
<path d="M1623 1353 c-24 -3 -34 -10 -38 -26 -2 -12 -11 -50 -19 -85 -7 -34
-14 -102 -15 -150 -1 -48 -6 -116 -11 -152 -22 -161 -33 -309 -26 -353 5 -32
17 -59 36 -80 28 -32 29 -32 118 -30 115 2 139 13 174 83 43 87 95 300 123
504 8 62 20 113 28 118 8 5 7 8 -5 8 -28 0 -26 95 2 110 11 6 20 17 20 24 0
10 -32 15 -137 20 -76 4 -156 8 -178 10 -22 2 -55 2 -72 -1z m313 -66 c7 -22
-12 -214 -32 -327 -33 -181 -94 -402 -120 -429 -20 -22 -179 -24 -198 -2 -37
42 -38 166 -2 386 8 50 15 140 15 201 0 61 4 129 10 150 l10 39 156 0 c140 0
156 -2 161 -18z"/>
</g>
</svg>
