<?xml version="1.0" standalone="no"?>
<!DOCTYPE svg PUBLIC "-//W3C//DTD SVG 20010904//EN"
 "http://www.w3.org/TR/2001/REC-SVG-20010904/DTD/svg10.dtd">
<svg version="1.0" xmlns="http://www.w3.org/2000/svg"
 width="244.000000pt" height="166.000000pt" viewBox="0 0 244.000000 166.000000"
 preserveAspectRatio="xMidYMid meet">
<metadata>
Created by potrace 1.16, written by Peter Selinger 2001-2019
</metadata>
<g transform="translate(0.000000,166.000000) scale(0.100000,-0.100000)"
fill="#000000" stroke="none">
<path d="M1029 1527 c-26 -21 -27 -26 -32 -158 -4 -75 -3 -139 0 -143 3 -3 20
6 37 20 41 34 149 102 182 114 76 29 154 35 400 30 156 -4 257 -10 265 -16 8
-6 26 -14 41 -18 35 -8 48 -48 48 -150 l0 -81 -123 1 c-67 1 -145 5 -174 9
-47 7 -52 5 -66 -16 -8 -13 -18 -44 -22 -69 -12 -85 -7 -81 -99 -75 -57 3 -88
1 -99 -8 -16 -12 -61 -196 -50 -207 2 -3 19 -5 36 -6 170 -2 177 -3 177 -25 0
-11 -3 -18 -7 -16 -5 3 -9 -22 -11 -54 -3 -75 -3 -75 188 -84 198 -10 195 -10
198 -27 3 -13 -13 -17 -90 -22 -198 -14 -322 -11 -477 12 -85 12 -156 24 -159
27 -3 3 -1 5 5 5 6 0 9 8 6 19 -11 42 40 241 63 241 8 0 14 7 14 15 0 8 -7 15
-16 15 -11 0 -14 6 -8 22 8 28 90 175 134 242 38 58 31 71 -33 57 -67 -15
-134 -16 -151 -2 -9 7 -21 9 -28 5 -36 -22 -541 -8 -588 16 -21 11 -87 20
-216 29 -117 9 -134 13 -134 37 0 29 -43 5 -59 -33 -19 -46 -30 -264 -15 -289
10 -16 10 -37 2 -90 -15 -100 -20 -307 -8 -299 5 3 10 15 10 26 0 12 7 19 19
19 10 0 52 32 92 70 85 81 143 119 190 125 19 2 60 7 93 11 l59 7 -5 -94 c-3
-52 -8 -102 -13 -112 -4 -10 -3 -17 4 -17 19 0 38 59 46 141 l6 76 82 1 c45 1
111 5 147 10 36 5 112 8 170 7 l105 -2 -2 -79 c-2 -79 -18 -160 -34 -170 -13
-8 -91 18 -96 33 -8 19 -31 16 -43 -7 -6 -11 -13 -69 -16 -128 -3 -59 -9 -134
-13 -167 -14 -96 1 -99 91 -17 62 56 104 83 230 150 72 38 148 56 196 47 41
-8 175 -7 267 1 33 3 99 7 147 7 47 1 89 4 91 7 3 3 7 57 8 120 1 63 4 119 7
124 6 10 9 59 16 219 3 59 9 94 19 105 8 10 39 64 67 122 29 58 63 120 77 138
33 45 27 68 -17 64 -19 -1 -165 5 -325 13 -436 23 -408 20 -540 43 -66 12
-184 59 -213 85 -23 21 -22 21 -53 -6z m122 -87 c46 -16 93 -30 104 -30 11 -1
2 -7 -22 -16 -23 -8 -73 -32 -111 -54 -38 -22 -72 -40 -76 -40 -4 0 -5 28 -2
63 3 34 5 78 6 97 0 22 3 30 9 22 4 -7 46 -26 92 -42z m989 -99 c0 -12 -104
-211 -110 -211 -4 0 -8 35 -8 78 -1 43 -6 90 -11 106 -6 15 -11 29 -11 31 0 2
32 3 70 2 39 -1 70 -4 70 -6z m-1620 -165 c36 -8 54 -14 40 -15 -45 -2 -237
-70 -290 -102 -28 -17 -53 -30 -55 -27 -4 3 13 126 21 156 4 16 188 8 284 -12z
m838 -43 c-9 -10 -32 -49 -53 -88 -20 -38 -46 -80 -56 -94 -16 -20 -20 -21
-25 -7 -3 9 -4 33 -2 54 3 20 1 50 -4 67 -13 47 -2 65 40 66 20 0 46 4 57 9
11 5 29 9 39 9 17 1 18 -1 4 -16z m-245 0 l69 -6 -4 -123 c-2 -68 -6 -125 -8
-127 -3 -2 -75 -7 -160 -11 -85 -3 -190 -10 -232 -14 -72 -7 -93 -3 -68 13 5
3 17 22 27 42 9 20 34 54 55 76 62 66 58 72 -52 75 -91 2 -139 -9 -114 -25 17
-12 23 -82 11 -134 l-10 -46 -71 -6 c-84 -7 -229 16 -275 44 -31 18 -31 20
-17 48 9 16 27 42 41 59 14 17 23 37 19 46 -4 11 5 20 33 31 21 9 47 17 58 17
11 1 26 6 32 11 23 17 174 24 348 17 33 -1 85 2 115 8 71 12 119 13 203 5z
m831 -48 c18 -13 18 -24 12 -152 -7 -128 -18 -240 -32 -305 -5 -27 -6 -27 -67
-22 -34 4 -71 8 -82 9 -11 2 -60 4 -109 4 -69 1 -86 4 -79 14 10 12 26 105 24
142 -3 41 21 222 35 270 l14 50 133 2 c101 2 136 -1 151 -12z m-1195 -65 c23
0 23 0 5 -27 -10 -16 -32 -51 -50 -80 l-31 -52 3 82 c1 45 3 84 3 86 1 2 11 1
24 -3 12 -3 33 -6 46 -6z m-509 -74 c-17 -31 -34 -56 -36 -56 -6 0 2 59 11 82
6 15 46 39 54 32 2 -1 -11 -28 -29 -58z m1332 -18 c10 -14 4 -120 -7 -138 -8
-12 -163 -5 -177 9 -5 5 7 105 17 138 5 16 155 8 167 -9z m-1257 -99 c106 -25
102 -21 48 -58 -26 -19 -69 -54 -95 -79 -26 -25 -50 -43 -54 -40 -13 13 -2
184 13 211 3 5 12 2 22 -7 9 -8 39 -20 66 -27z m-128 -61 c-3 -7 -5 -2 -5 12
0 14 2 19 5 13 2 -7 2 -19 0 -25z m1022 -265 l135 -6 -116 -57 c-64 -32 -137
-74 -162 -95 -26 -21 -49 -35 -52 -33 -5 5 13 168 22 197 3 8 11 10 21 6 10
-3 78 -9 152 -12z"/>
</g>
</svg>
