<?xml version="1.0" standalone="no"?>
<!DOCTYPE svg PUBLIC "-//W3C//DTD SVG 20010904//EN"
 "http://www.w3.org/TR/2001/REC-SVG-20010904/DTD/svg10.dtd">
<svg version="1.0" xmlns="http://www.w3.org/2000/svg"
 width="214.000000pt" height="124.000000pt" viewBox="0 0 214.000000 124.000000"
 preserveAspectRatio="xMidYMid meet">
<metadata>
Created by potrace 1.16, written by Peter Selinger 2001-2019
</metadata>
<g transform="translate(0.000000,124.000000) scale(0.100000,-0.100000)"
fill="#000000" stroke="none">
<path d="M419 1090 c-44 -3 -74 -11 -86 -22 -11 -10 -27 -18 -35 -18 -36 0
-74 -192 -68 -345 2 -38 2 -129 1 -201 -1 -157 2 -162 98 -168 34 -2 64 -6 67
-9 8 -8 6 -124 -2 -149 -9 -28 15 -80 35 -75 9 2 15 10 13 17 -3 13 15 156 23
186 3 9 19 8 62 -2 32 -7 108 -20 168 -29 61 -9 135 -22 165 -30 52 -13 206
-31 223 -27 4 1 88 -6 185 -17 97 -11 209 -23 247 -26 118 -9 348 -34 383 -41
28 -5 32 -4 32 15 0 11 -10 25 -21 32 -21 11 -22 16 -15 108 4 53 9 110 12
126 16 97 47 497 44 570 0 22 -3 42 -6 45 -3 3 -121 5 -262 6 -227 1 -590 17
-653 29 -22 4 -74 8 -344 21 -66 3 -138 6 -160 8 -22 1 -70 -1 -106 -4z m331
-65 c138 -3 410 -15 445 -20 36 -5 218 -7 494 -5 112 1 207 -2 212 -7 4 -4 3
-39 -2 -78 -6 -38 -13 -106 -15 -150 -2 -44 -8 -111 -13 -150 -5 -38 -8 -100
-7 -137 0 -36 -2 -64 -6 -62 -10 6 -25 -113 -23 -178 2 -67 11 -64 -130 -48
-44 5 -159 16 -255 25 -96 9 -182 18 -190 20 -8 2 -69 9 -135 15 -66 5 -131
12 -145 14 -14 3 -88 14 -165 26 -196 30 -187 25 -136 72 64 57 127 108 135
108 4 0 24 17 45 37 21 21 75 70 119 108 45 39 82 75 82 80 0 9 -39 50 -228
234 -73 71 -99 83 -121 57 -9 -11 -7 -20 12 -40 l24 -26 -24 -97 c-20 -79 -25
-129 -27 -257 l-3 -160 -47 -39 c-45 -38 -48 -39 -100 -33 -85 11 -85 12 -74
151 11 140 11 175 4 183 -14 13 -33 -36 -44 -111 -25 -175 -25 -177 -11 -177
9 -1 8 -4 -4 -11 -13 -8 -33 -7 -70 1 -73 18 -75 20 -66 87 10 68 15 118 30
273 6 63 12 124 14 135 1 11 3 55 4 97 l1 78 163 -6 c89 -4 205 -7 257 -9z
m96 -205 c5 0 32 -22 59 -50 27 -27 57 -50 66 -50 9 0 23 -7 30 -16 11 -14 6
-23 -42 -68 -71 -67 -110 -98 -115 -94 -2 2 1 20 6 39 16 62 22 171 8 167 -6
-2 -21 -58 -32 -125 -19 -111 -23 -122 -52 -147 -52 -43 -72 -32 -33 18 16 20
18 30 10 40 -15 17 -3 243 16 324 l6 23 31 -30 c18 -17 36 -31 42 -31z"/>
<path d="M1150 812 c0 -25 38 -36 165 -45 l134 -11 -32 -21 c-29 -20 -40 -21
-115 -16 -46 4 -89 3 -95 -1 -24 -14 8 -27 75 -29 62 -2 66 -3 57 -21 -17 -31
-52 -42 -99 -30 -41 10 -80 6 -80 -9 0 -4 20 -11 45 -15 25 -3 45 -10 45 -15
0 -4 12 -20 28 -34 l27 -25 -30 5 c-135 25 -155 25 -155 4 0 -11 27 -16 119
-24 51 -4 82 -12 103 -26 16 -12 27 -23 24 -26 -3 -3 -52 1 -111 7 -82 10
-114 10 -145 1 -22 -6 -40 -16 -40 -20 0 -5 80 -16 178 -25 97 -9 204 -20 237
-24 93 -13 317 -9 322 5 2 6 -5 14 -15 17 -25 8 -18 56 9 63 15 4 19 15 20 52
0 25 6 78 12 116 18 101 14 112 -36 121 -23 4 -100 6 -172 6 -119 -2 -308 9
-427 24 -29 3 -48 2 -48 -4z m348 -100 c27 -57 43 -84 62 -107 13 -16 13 -19
-4 -29 -10 -6 -32 -26 -49 -43 -17 -18 -35 -33 -40 -33 -6 0 -8 25 -4 65 5 54
4 65 -9 65 -20 0 -26 -19 -28 -85 l-1 -56 -52 55 c-29 30 -53 58 -53 64 0 17
50 63 80 74 17 5 30 15 30 22 0 6 9 17 20 24 12 7 18 17 15 22 -3 6 -3 10 2
10 4 0 18 -22 31 -48z m42 33 c0 -19 10 -19 38 1 16 11 43 15 102 13 129 -3
133 -4 127 -53 -7 -59 -27 -148 -38 -171 -6 -12 -11 -27 -13 -35 -10 -60 -17
-65 -91 -61 -37 3 -135 53 -135 70 0 3 19 23 42 43 l43 36 -27 54 c-15 29 -39
68 -54 86 -21 25 -23 32 -10 32 9 0 16 -7 16 -15z m-1 -303 c-10 -2 -27 2 -39
8 -17 9 -19 14 -10 26 10 12 16 10 39 -9 24 -19 25 -22 10 -25z"/>
</g>
</svg>
