<?xml version="1.0" standalone="no"?>
<!DOCTYPE svg PUBLIC "-//W3C//DTD SVG 20010904//EN"
 "http://www.w3.org/TR/2001/REC-SVG-20010904/DTD/svg10.dtd">
<svg version="1.0" xmlns="http://www.w3.org/2000/svg"
 width="237.000000pt" height="173.000000pt" viewBox="0 0 237.000000 173.000000"
 preserveAspectRatio="xMidYMid meet">
<metadata>
Created by potrace 1.16, written by Peter Selinger 2001-2019
</metadata>
<g transform="translate(0.000000,173.000000) scale(0.100000,-0.100000)"
fill="#000000" stroke="none">
<path d="M1105 1658 c-55 -5 -95 -13 -104 -23 -17 -17 -8 -22 44 -27 21 -2 29
-8 26 -18 -1 -8 -8 -59 -14 -113 l-11 -99 -26 7 c-14 4 -73 9 -132 12 -111 5
-114 5 -109 -34 1 -7 -3 -21 -8 -31 -11 -21 -41 -196 -41 -242 0 -38 15 -37
-241 -26 -162 6 -244 12 -306 22 -50 7 -64 -29 -58 -150 4 -78 2 -97 -11 -104
-13 -7 -13 -15 0 -69 7 -34 17 -66 21 -72 15 -25 25 -8 25 42 l0 52 148 -1
c81 -1 195 -2 253 -3 114 -1 138 -10 140 -51 1 -31 -8 -211 -11 -225 -7 -32 1
-36 68 -35 37 1 109 -2 160 -6 78 -6 92 -9 87 -23 -24 -77 -28 -279 -7 -318
13 -23 42 -32 42 -13 0 39 11 233 15 265 10 80 14 82 132 84 l105 2 -6 -28
c-31 -159 -35 -232 -13 -264 11 -15 13 -27 7 -40 -6 -10 -7 -24 -4 -32 8 -22
-112 -34 -178 -18 -70 16 -154 14 -194 -5 -19 -9 -32 -19 -29 -22 3 -3 42 -7
88 -8 45 -2 107 -8 139 -15 42 -8 73 -9 120 0 36 6 101 11 146 11 94 0 135 12
130 38 -3 9 -11 15 -19 13 -26 -9 -130 -13 -146 -7 -12 5 -14 9 -5 18 15 15
15 53 0 81 -13 25 -13 62 3 178 l12 87 81 7 c44 5 121 9 171 9 l90 1 0 178 -1
177 51 1 c27 1 147 2 265 3 118 1 221 5 228 10 9 5 15 1 19 -13 6 -23 32 -29
34 -8 1 6 2 19 3 27 1 8 -5 23 -13 32 -10 13 -12 34 -7 87 5 45 3 71 -4 76
-14 9 -3 24 26 35 35 14 31 33 -6 25 -23 -5 -30 -3 -30 9 0 22 -22 20 -43 -4
-10 -12 -22 -18 -28 -15 -5 4 -40 2 -77 -5 -55 -9 -84 -8 -162 6 -52 9 -126
20 -165 25 -38 6 -73 13 -77 17 -9 9 -12 201 -3 223 11 29 -16 39 -85 29 -77
-11 -254 -15 -268 -6 -9 6 -7 205 3 234 3 8 26 12 69 12 65 0 88 12 67 33 -14
14 -244 18 -376 5z m159 -48 c22 0 22 -2 22 -119 -1 -139 4 -134 -114 -117
-83 11 -80 4 -60 144 9 71 14 83 32 87 43 9 71 12 84 9 8 -2 24 -4 36 -4z
m-169 -270 c90 -7 224 -10 335 -6 102 3 190 2 197 -2 8 -5 12 -86 13 -292 1
-157 3 -339 4 -405 l1 -120 -70 -7 c-124 -13 -737 -7 -807 8 -26 5 -28 9 -30
57 0 29 -1 58 -1 65 7 175 14 266 22 302 5 25 13 77 16 115 7 78 22 213 30
262 4 22 12 33 28 36 23 5 30 5 262 -13z m753 -275 c118 -17 163 -19 269 -9
81 7 83 7 92 -17 5 -14 8 -59 8 -101 -2 -92 11 -88 -202 -80 -82 3 -192 6
-243 7 l-92 0 0 70 c0 39 3 87 6 108 8 44 12 45 162 22z m-1125 -87 c-2 -24
-9 -56 -14 -72 -5 -16 -9 -44 -9 -63 0 -33 -2 -34 -27 -29 -16 4 -128 8 -250
10 -121 2 -226 7 -232 10 -7 4 -11 40 -11 86 0 95 -13 89 183 93 75 1 189 3
251 5 l114 3 -5 -43z"/>
<path d="M1048 1272 c-16 -2 -28 -7 -28 -11 0 -15 -160 -111 -184 -111 -22 0
-29 -19 -14 -37 7 -9 38 -33 69 -53 31 -20 70 -49 85 -63 16 -15 43 -38 59
-52 24 -21 25 -24 6 -15 -35 18 -49 -1 -32 -43 7 -17 16 -46 20 -62 4 -17 13
-40 19 -52 7 -11 15 -45 18 -75 7 -61 36 -140 53 -146 12 -4 13 20 2 58 -5 15
-3 31 4 40 15 18 45 107 45 131 0 25 21 38 101 60 41 11 84 25 96 31 17 8 32
8 62 0 47 -15 111 -16 111 -2 0 5 -12 13 -27 16 -211 51 -258 68 -305 112 -35
32 -54 24 -62 -27 -5 -35 -10 -41 -31 -41 -27 0 -28 2 -44 105 -24 147 -24
179 -2 207 24 29 19 35 -21 30z m-27 -74 c0 -13 0 -51 -1 -85 -1 -35 3 -63 8
-63 6 0 8 -9 5 -20 l-6 -21 -14 20 c-7 11 -38 37 -68 57 -30 20 -55 41 -55 47
1 11 105 84 123 86 4 1 7 -9 8 -21z m283 -297 c26 -10 12 -17 -51 -26 -53 -7
-64 0 -41 23 13 13 62 15 92 3z m-167 -86 c-3 -44 -11 -94 -18 -110 l-12 -30
-7 40 c-4 22 -14 57 -23 78 -9 20 -14 37 -12 37 3 0 0 12 -5 26 -14 35 -7 42
41 41 l42 -2 -6 -80z"/>
</g>
</svg>
