<?xml version="1.0" standalone="no"?>
<!DOCTYPE svg PUBLIC "-//W3C//DTD SVG 20010904//EN"
 "http://www.w3.org/TR/2001/REC-SVG-20010904/DTD/svg10.dtd">
<svg version="1.0" xmlns="http://www.w3.org/2000/svg"
 width="257.000000pt" height="180.000000pt" viewBox="0 0 257.000000 180.000000"
 preserveAspectRatio="xMidYMid meet">
<metadata>
Created by potrace 1.16, written by Peter Selinger 2001-2019
</metadata>
<g transform="translate(0.000000,180.000000) scale(0.100000,-0.100000)"
fill="#000000" stroke="none">
<path d="M1529 1775 c-4 -3 -72 -8 -379 -23 -80 -4 -151 -11 -157 -15 -21 -13
-15 -25 18 -32 l31 -7 -8 -77 c-4 -42 -8 -95 -9 -118 0 -22 -3 -44 -6 -48 -4
-3 -73 -6 -155 -6 -82 0 -157 -3 -166 -5 -11 -3 -18 -15 -18 -28 0 -13 -6 -29
-14 -35 -18 -15 -27 -63 -27 -155 0 -51 -4 -76 -12 -77 -7 -1 -119 -1 -250 -1
-303 1 -280 16 -292 -188 -10 -178 -9 -201 7 -212 24 -15 32 -2 32 54 1 31 4
60 8 63 7 7 336 18 433 15 22 0 46 -7 53 -14 15 -15 20 -201 8 -318 -8 -80 2
-136 28 -157 13 -11 187 -27 261 -24 22 1 150 4 285 7 135 3 323 10 418 17
149 10 174 14 182 30 8 14 5 21 -11 33 -21 15 -22 17 -10 116 6 55 11 139 11
185 l0 85 108 1 c59 0 130 4 157 9 28 5 101 12 163 16 l112 7 0 -26 c0 -29 29
-97 42 -97 4 0 11 -1 15 -2 3 -2 7 44 9 102 2 92 10 161 30 264 l6 28 -83 -7
c-46 -5 -187 -9 -313 -9 l-228 -1 7 75 c12 131 14 240 4 240 -5 0 -9 7 -9 15
0 20 -42 29 -98 21 -26 -4 -87 -9 -137 -11 -49 -3 -112 -7 -140 -10 -77 -7
-82 -1 -66 92 7 43 12 92 12 109 -1 51 16 62 98 69 78 6 91 10 91 25 0 10 -35
32 -41 25z m-185 -102 c-4 -27 -10 -57 -14 -68 -4 -11 -8 -47 -9 -80 -2 -33
-5 -62 -7 -64 -3 -3 -56 -6 -118 -7 -134 -2 -127 -9 -114 116 15 138 7 130
122 135 55 3 101 7 104 10 3 3 14 5 24 5 17 0 18 -5 12 -47z m432 -241 c10 -7
3 -160 -9 -179 -8 -13 -19 -184 -28 -458 -5 -132 -14 -267 -21 -300 l-13 -60
-90 -7 c-49 -5 -124 -8 -165 -8 -41 0 -140 -1 -220 -2 -130 -3 -437 1 -515 5
l-30 2 3 190 c2 105 -1 224 -6 264 -5 41 -5 93 -1 115 4 23 8 123 9 223 l2
182 87 -1 c319 -1 955 24 970 38 6 6 15 5 27 -4z m-1142 -344 c0 -13 -4 -58
-9 -100 -7 -71 -9 -77 -25 -68 -11 6 -115 10 -239 10 l-221 0 0 83 0 82 118
-2 c64 -1 133 2 152 7 19 4 78 8 130 9 93 1 96 0 94 -21z m1730 -16 c-3 -15
-10 -43 -15 -62 -5 -19 -9 -49 -9 -66 l0 -32 -192 -6 c-106 -4 -211 -5 -233
-2 -22 3 -60 5 -84 5 l-43 1 6 70 c10 106 2 100 135 101 64 1 168 4 231 8 227
12 211 13 204 -17z"/>
<path d="M1276 1258 c-26 -24 -32 -35 -24 -45 11 -13 7 -137 -4 -149 -8 -8
-132 -22 -285 -32 -67 -5 -118 -13 -127 -21 -19 -16 -20 -59 -5 -133 13 -62
24 -78 51 -78 17 0 19 5 14 25 -4 16 -2 27 6 30 21 7 336 12 348 5 9 -5 7
-117 -4 -233 -3 -24 2 -50 12 -68 17 -28 17 -28 122 -30 58 -1 139 -2 180 -3
84 -1 94 8 66 65 -15 31 -16 41 -1 269 3 52 2 154 -3 225 -6 84 -6 134 0 142
15 19 1 45 -19 39 -10 -2 -75 -8 -145 -11 -112 -6 -128 -5 -128 8 0 29 -19 27
-54 -5z m295 -155 c0 -65 2 -134 5 -153 3 -19 -1 -87 -7 -150 -6 -63 -11 -140
-11 -172 l1 -56 -132 2 c-152 2 -147 -1 -127 103 6 32 10 99 9 148 -2 119 -2
151 2 270 l4 100 105 11 c58 6 115 12 128 13 22 1 22 -1 23 -116z m-321 -143
l0 -50 -132 0 c-73 0 -156 -3 -185 -6 l-52 -7 -7 38 c-9 47 2 54 86 56 36 1
79 5 95 9 17 4 67 8 113 9 l82 1 0 -50z"/>
<path d="M1087 363 c-4 -3 -7 -27 -7 -53 0 -25 -9 -72 -21 -105 -12 -34 -19
-75 -17 -97 3 -36 2 -38 -27 -38 -33 0 -62 -14 -48 -23 5 -3 108 -7 228 -9
189 -3 220 -1 220 12 0 9 -13 17 -35 20 -62 10 -61 9 -54 151 5 111 4 129 -9
129 -9 0 -18 -8 -21 -17 -6 -23 -21 -223 -17 -245 2 -16 -8 -18 -92 -18 -113
0 -114 1 -92 119 23 119 19 202 -8 174z"/>
</g>
</svg>
