<?xml version="1.0" standalone="no"?>
<!DOCTYPE svg PUBLIC "-//W3C//DTD SVG 20010904//EN"
 "http://www.w3.org/TR/2001/REC-SVG-20010904/DTD/svg10.dtd">
<svg version="1.0" xmlns="http://www.w3.org/2000/svg"
 width="132.000000pt" height="108.000000pt" viewBox="0 0 132.000000 108.000000"
 preserveAspectRatio="xMidYMid meet">
<metadata>
Created by potrace 1.16, written by Peter Selinger 2001-2019
</metadata>
<g transform="translate(0.000000,108.000000) scale(0.100000,-0.100000)"
fill="#000000" stroke="none">
<path d="M1168 964 c-4 -3 -39 -8 -80 -10 -40 -2 -129 -8 -198 -12 -83 -5
-151 -3 -204 5 -44 7 -83 10 -88 7 -5 -3 -15 -22 -24 -42 -12 -30 -14 -57 -9
-140 l7 -103 -109 5 c-59 4 -128 10 -153 16 -72 15 -115 12 -134 -9 -20 -22
-33 -130 -32 -252 1 -89 14 -113 53 -98 13 5 80 8 146 8 67 -1 127 -1 132 1 6
1 20 2 31 1 20 -1 21 -7 23 -93 0 -51 6 -122 13 -156 l12 -64 36 7 c19 4 87 9
150 11 63 2 153 9 200 15 47 7 114 11 149 10 76 -2 92 12 55 46 -22 21 -24 27
-20 100 3 43 7 96 10 118 28 212 39 358 40 503 1 72 1 132 0 132 0 0 -3 -3 -6
-6z m-53 -153 c-6 -130 -12 -206 -40 -466 -9 -82 -14 -166 -11 -186 l6 -36
-63 -13 c-91 -18 -366 -14 -387 5 -13 11 -17 34 -17 96 -1 45 3 95 8 112 13
47 23 258 20 426 l-3 153 64 -7 c34 -5 68 -8 73 -8 29 0 205 15 239 21 22 4
57 6 78 4 l37 -4 -4 -97z m-690 -186 c142 -9 130 0 128 -91 -1 -43 -3 -94 -5
-113 l-3 -34 -143 2 c-78 1 -153 6 -167 11 -24 9 -25 13 -19 52 3 24 6 74 6
113 0 38 2 73 4 76 2 3 27 2 56 -2 29 -5 94 -11 143 -14z"/>
</g>
</svg>
