<?xml version="1.0" standalone="no"?>
<!DOCTYPE svg PUBLIC "-//W3C//DTD SVG 20010904//EN"
 "http://www.w3.org/TR/2001/REC-SVG-20010904/DTD/svg10.dtd">
<svg version="1.0" xmlns="http://www.w3.org/2000/svg"
 width="234.000000pt" height="100.000000pt" viewBox="0 0 234.000000 100.000000"
 preserveAspectRatio="xMidYMid meet">
<metadata>
Created by potrace 1.16, written by Peter Selinger 2001-2019
</metadata>
<g transform="translate(0.000000,100.000000) scale(0.100000,-0.100000)"
fill="#000000" stroke="none">
<path d="M2000 978 c-74 -17 -170 -27 -305 -33 -77 -4 -158 -8 -180 -10 -105
-11 -201 -15 -460 -21 -154 -4 -292 -6 -306 -5 -35 2 -42 -26 -33 -122 5 -56
1 -92 -16 -163 l-21 -92 -47 -6 c-90 -12 -287 -26 -364 -26 -61 0 -78 3 -78
14 0 21 -19 30 -34 17 -12 -10 -20 -75 -31 -256 -2 -22 -6 -63 -10 -90 -8 -58
5 -78 42 -64 32 12 47 44 28 63 -14 14 -14 95 0 221 2 17 4 36 4 43 1 10 11
12 39 7 32 -5 183 5 287 20 17 2 58 7 92 10 56 6 62 4 68 -15 8 -26 40 -22 40
5 0 13 6 19 18 18 36 -6 43 -6 70 -5 27 2 40 32 13 32 -35 0 -38 25 -18 162
11 73 25 145 31 161 10 25 15 27 65 27 29 0 68 3 86 6 29 6 31 5 23 -12 -6
-10 -13 -77 -17 -148 -3 -71 -13 -168 -22 -217 -8 -48 -14 -125 -12 -171 3
-75 5 -83 23 -83 17 0 21 8 25 50 5 49 6 50 40 53 57 5 61 5 158 4 91 -2 92
-2 92 -27 0 -25 0 -25 -72 -20 -40 3 -85 8 -100 11 -34 7 -88 -4 -88 -17 0 -6
10 -7 23 -4 19 6 18 3 -8 -18 -16 -14 -27 -29 -23 -33 4 -4 14 -2 21 5 16 13
287 18 566 11 133 -4 175 -2 178 7 3 7 -7 17 -21 23 -23 8 -25 14 -20 37 4 16
10 30 13 33 3 3 7 26 8 53 1 26 11 68 23 93 24 48 24 50 0 55 -14 3 -259 -11
-290 -16 -8 -1 -41 -6 -73 -9 -54 -7 -58 -6 -53 11 9 31 46 250 46 275 0 13 6
36 12 50 14 30 34 35 153 37 85 2 339 27 381 37 15 4 24 2 24 -6 0 -6 10 -11
23 -10 12 1 37 2 54 1 30 -1 32 -3 23 -26 -5 -14 -12 -49 -14 -77 -7 -81 -23
-329 -31 -483 -3 -49 -10 -104 -16 -122 -5 -17 -9 -39 -7 -47 3 -14 -28 -16
-257 -20 -143 -3 -375 -13 -515 -25 -354 -28 -688 -35 -897 -21 -128 9 -176 9
-192 1 -26 -14 -27 -27 -4 -36 34 -13 493 -23 512 -11 4 3 87 7 186 11 99 3
277 12 395 20 118 8 260 17 315 20 55 2 136 7 180 10 44 3 136 2 205 -3 106
-8 128 -7 142 5 16 14 16 18 2 46 -13 24 -14 37 -5 71 6 22 13 127 16 231 10
361 16 428 42 457 23 25 6 41 -36 34 -23 -3 -44 -1 -57 7 -13 10 -30 11 -54 5z
m-609 -110 c-6 -14 -16 -22 -27 -20 -20 2 -199 3 -224 0 -51 -5 -100 3 -100
17 0 12 22 15 118 17 64 2 145 4 179 6 62 3 63 3 54 -20z m-597 -6 c2 -4 -4
-39 -14 -77 l-19 -70 0 78 c-1 61 2 77 13 77 8 0 17 -4 20 -8z m546 -63 c27
-6 -170 -6 -298 1 -2 0 -1 3 1 8 7 9 252 3 297 -9z m-48 -53 c32 7 68 -3 68
-18 0 -8 -40 -9 -131 -5 -125 5 -187 -2 -175 -22 3 -5 71 -12 151 -16 l145 -7
0 -25 c0 -24 -2 -25 -46 -18 -65 9 -203 7 -242 -4 -29 -9 -33 -8 -28 5 3 9 6
38 6 64 l0 49 83 3 c45 2 96 0 112 -5 17 -4 42 -5 57 -1z m-9 -145 c52 -9 66
-17 51 -30 -5 -6 -27 -6 -54 0 -92 20 -240 14 -240 -10 0 -4 55 -11 123 -14
67 -4 132 -9 145 -13 38 -11 19 -29 -29 -27 -24 1 -93 3 -152 5 l-109 3 7 40
c3 22 11 43 18 47 15 10 178 9 240 -1z m446 -148 c-10 -43 -21 -96 -26 -118
-6 -31 -13 -40 -28 -40 -22 0 -23 4 -10 135 8 79 20 100 61 100 l21 0 -18 -77z
m-72 60 c-3 -5 -8 -37 -12 -71 -8 -78 -27 -144 -41 -149 -19 -6 -22 19 -13
112 8 90 -5 146 -15 64 -22 -183 -20 -174 -45 -177 l-23 -4 4 96 c3 75 1 96
-9 96 -8 0 -13 -9 -12 -22 1 -13 1 -53 1 -90 -2 -61 -4 -68 -22 -68 -18 0 -20
7 -20 79 0 118 7 129 77 134 116 7 134 7 130 0z m-227 -18 c-7 -8 -9 -22 -6
-31 4 -10 4 -50 0 -91 -7 -71 -7 -73 -34 -73 -47 0 -55 21 -36 92 8 35 17 72
18 83 2 11 14 22 28 26 39 11 43 10 30 -6z m-108 -24 c4 -3 5 -17 1 -30 -5
-19 -11 -22 -32 -17 -97 22 -142 27 -181 23 -51 -6 -86 -14 -99 -21 -12 -8 0
48 13 57 13 9 287 -1 298 -12z m-54 -74 c68 -21 37 -28 -84 -21 -72 4 -123 3
-143 -4 -17 -6 -31 -7 -31 -2 0 4 -3 15 -6 24 -4 11 4 16 33 19 59 7 183 -2
231 -16z"/>
</g>
</svg>
