<?xml version="1.0" standalone="no"?>
<!DOCTYPE svg PUBLIC "-//W3C//DTD SVG 20010904//EN"
 "http://www.w3.org/TR/2001/REC-SVG-20010904/DTD/svg10.dtd">
<svg version="1.0" xmlns="http://www.w3.org/2000/svg"
 width="300.000000pt" height="144.000000pt" viewBox="0 0 300.000000 144.000000"
 preserveAspectRatio="xMidYMid meet">
<metadata>
Created by potrace 1.16, written by Peter Selinger 2001-2019
</metadata>
<g transform="translate(0.000000,144.000000) scale(0.100000,-0.100000)"
fill="#000000" stroke="none">
<path d="M1401 1304 c-17 -14 -31 -30 -31 -36 0 -6 -20 -41 -45 -78 -24 -37
-47 -73 -50 -81 -3 -8 -15 -19 -28 -24 -28 -13 -28 -29 0 -33 17 -2 24 -12 29
-38 11 -60 9 -60 -148 -68 -300 -14 -603 -16 -678 -4 -81 12 -132 39 -150 77
-11 24 -11 24 -30 5 -27 -27 -87 -261 -71 -277 9 -9 16 -9 31 1 35 22 60 15
61 -15 2 -92 -2 -174 -10 -196 -5 -14 -19 -65 -31 -114 -24 -98 -21 -193 6
-193 8 0 14 6 15 13 0 6 1 45 2 86 2 64 5 76 25 90 12 9 48 35 79 59 31 23 60
42 63 42 4 0 4 -21 -1 -47 -4 -27 -10 -81 -13 -120 -4 -60 -2 -73 10 -73 8 0
17 6 19 12 10 29 13 113 5 134 -6 14 -5 24 1 26 5 2 11 28 12 58 2 53 3 55 31
58 46 6 50 -7 36 -110 -14 -99 -8 -168 14 -168 10 0 16 34 22 133 l9 132 38 3
37 3 -4 -135 c-3 -106 -1 -136 10 -140 22 -9 29 15 29 114 0 53 6 104 12 115
6 11 14 28 17 38 4 12 14 17 28 15 21 -3 24 -11 32 -83 4 -44 9 -104 10 -133
1 -41 4 -52 16 -49 12 2 15 22 15 103 0 110 13 151 51 160 13 3 27 3 32 1 4
-3 7 -57 5 -119 -3 -100 0 -117 18 -147 24 -40 46 -31 29 13 -11 30 -14 263
-3 252 4 -4 8 -16 8 -26 0 -30 18 -28 33 4 10 21 18 25 30 19 10 -4 63 -6 120
-5 l102 4 0 -66 0 -66 -65 -29 c-85 -39 -85 -55 -3 -110 33 -22 67 -41 74 -41
17 0 69 61 90 106 10 20 47 61 83 90 36 30 69 61 74 69 4 8 14 15 22 15 11 0
276 128 495 239 9 5 23 -2 38 -18 24 -25 24 -29 18 -131 -5 -75 -11 -110 -23
-122 -9 -10 -12 -18 -8 -18 5 0 4 -5 -3 -12 -17 -17 -16 -155 1 -161 20 -7 55
10 105 51 26 22 72 52 102 67 50 26 63 28 150 27 52 -1 102 -5 111 -7 24 -8
36 14 42 75 3 30 8 66 11 80 4 14 10 84 13 155 6 133 22 195 62 240 10 11 24
40 31 65 25 85 87 206 114 223 14 10 26 23 26 31 0 20 -250 10 -267 -11 -6 -8
-9 -21 -7 -28 6 -14 -41 -22 -181 -32 -79 -5 -99 -3 -155 17 -36 13 -69 29
-75 36 -5 6 -20 15 -32 18 -21 7 -22 5 -25 -106 -2 -62 1 -119 6 -125 5 -8 4
-24 -2 -40 -14 -38 -24 -135 -16 -156 4 -12 13 -16 26 -11 17 5 19 2 16 -23
-4 -36 -15 -34 -143 24 -119 54 -161 82 -235 155 -30 30 -68 62 -85 73 -16 10
-67 52 -112 93 -74 67 -81 77 -76 103 7 36 -6 37 -46 3z m1278 -116 c-28 -51
-52 -103 -55 -115 -7 -25 -43 -38 -51 -17 -8 22 7 184 18 184 5 0 9 9 9 20 0
18 7 20 64 20 l64 0 -49 -92z m-511 6 c-39 -24 -56 -30 -65 -22 -13 10 -18 79
-8 90 3 3 33 -4 65 -15 l60 -21 -52 -32z m-682 -20 c35 -31 64 -61 64 -66 0
-5 -4 -7 -10 -3 -11 7 -85 14 -157 16 l-52 1 42 53 c23 30 44 54 45 54 2 1 33
-24 68 -55z m1059 -26 c-4 -46 -8 -88 -10 -94 -2 -6 -31 -14 -64 -17 -34 -4
-74 -10 -89 -14 -24 -6 -26 -5 -13 11 21 25 5 31 -26 10 -30 -20 -48 -25 -105
-25 -64 0 -73 12 -37 49 17 18 38 32 46 32 7 0 31 9 52 20 30 15 61 20 136 21
83 1 96 3 93 18 -3 11 -13 16 -38 15 -101 -5 -302 -5 -307 0 -14 14 63 36 129
37 40 0 93 4 118 8 25 5 62 9 83 10 l38 1 -6 -82z m-297 -23 c3 -3 0 -5 -7 -5
-6 0 -36 -18 -65 -40 -29 -22 -56 -40 -59 -40 -7 0 -7 80 0 93 5 8 122 1 131
-8z m-654 -61 c17 -11 15 -14 -23 -39 -23 -14 -53 -31 -67 -37 -13 -6 -24 -17
-24 -25 0 -8 -12 -13 -31 -13 l-31 0 27 48 c15 26 34 55 43 64 17 20 77 22
106 2z m-161 -11 c4 -3 -3 -22 -15 -40 -76 -125 -128 -263 -98 -263 6 0 10 4
10 9 0 5 16 42 35 83 l35 73 2 -45 c1 -25 1 -54 0 -65 -2 -11 -2 -50 -2 -87 1
-57 -2 -69 -20 -80 -29 -18 -25 -31 20 -60 44 -29 41 -31 83 52 21 42 38 61
70 78 23 12 47 22 53 22 15 0 67 -49 83 -77 10 -20 8 -24 -21 -37 -122 -52
-248 -105 -278 -116 -19 -8 -48 -22 -65 -32 -16 -10 -33 -18 -38 -18 -13 0 0
92 14 100 11 7 11 13 0 33 -10 19 -11 63 -6 193 4 93 8 192 9 219 1 47 3 50
31 56 43 9 91 10 98 2z m255 -57 c27 -25 79 -64 117 -86 39 -23 61 -39 50 -36
-49 13 -115 18 -115 8 0 -5 23 -12 50 -16 28 -4 50 -10 50 -14 -1 -9 -37 -52
-44 -52 -3 0 -6 14 -6 32 0 20 -4 28 -9 23 -5 -6 -12 -50 -15 -100 -4 -69 -9
-92 -22 -102 -10 -7 -21 -13 -25 -13 -19 0 -34 131 -19 161 14 26 6 36 -15 19
-12 -10 -26 -10 -73 4 -68 19 -82 20 -82 6 0 -5 7 -10 17 -10 14 0 14 -2 -2
-20 -26 -29 -38 -25 -30 10 8 38 -6 65 -16 30 -13 -46 -10 -90 5 -90 8 0 18 5
21 10 15 24 115 52 115 33 0 -11 -182 -121 -202 -122 -5 -1 -8 21 -8 48 0 37
9 66 36 118 20 37 43 73 51 80 21 16 53 -1 53 -27 0 -10 5 -22 10 -25 6 -3 10
1 10 10 0 12 8 10 40 -10 42 -27 60 -31 60 -15 0 6 -4 10 -10 10 -5 0 -25 17
-45 37 -33 34 -36 42 -30 77 5 36 20 66 32 66 2 0 25 -20 51 -44z m852 -16 c0
-38 -1 -39 -27 -34 -16 3 -72 -2 -125 -10 -159 -26 -185 -19 -105 28 28 17 72
30 123 37 43 6 81 13 83 15 2 2 15 4 28 4 20 0 23 -5 23 -40z m70 33 c0 -5 -7
-16 -14 -26 -12 -16 -14 -16 -20 -1 -3 9 -4 20 0 25 6 11 34 12 34 2z m-1029
-30 c-8 -32 -28 -41 -37 -18 -4 10 1 22 12 30 28 21 33 18 25 -12z m605 16
l28 -10 -59 -38 c-60 -38 -75 -38 -75 2 0 23 35 57 59 57 11 0 32 -5 47 -11z
m56 -39 c-18 -17 -42 -30 -54 -30 -25 0 -25 0 26 34 52 35 69 33 28 -4z
m-1912 -20 c22 -11 53 -22 70 -23 34 -4 53 -17 24 -17 -10 0 -40 -11 -65 -25
-26 -13 -49 -21 -53 -18 -4 4 -13 -3 -22 -15 -18 -26 -36 -20 -30 11 5 29 30
107 34 107 1 0 20 -9 42 -20z m1187 14 c-3 -3 -12 -4 -19 -1 -8 3 -5 6 6 6 11
1 17 -2 13 -5z m-286 -34 l39 0 -4 -82 c-2 -46 -4 -117 -5 -159 l-1 -76 -101
-7 c-62 -4 -106 -3 -112 3 -6 6 2 26 23 56 33 48 35 84 2 69 -9 -4 -38 -9 -64
-12 -43 -4 -46 -2 -41 17 7 27 -13 34 -65 22 -38 -8 -42 -7 -42 11 0 18 -5 19
-55 13 -48 -6 -54 -5 -49 8 5 14 -3 15 -63 10 -56 -4 -66 -3 -55 8 21 22 13
29 -25 24 -21 -3 -90 -2 -153 2 l-114 8 28 18 c15 10 39 21 53 23 15 3 34 9
43 14 20 11 411 33 465 26 22 -2 83 -1 135 3 52 4 101 6 108 4 8 -1 31 -3 53
-3z m249 -2 c0 -15 -39 -82 -44 -77 -2 2 -6 21 -10 41 -7 38 -8 37 47 47 4 0
7 -5 7 -11z m1043 2 c15 0 18 -7 15 -37 -3 -35 -5 -37 -43 -39 -42 -2 -227
-31 -257 -40 -14 -4 -18 1 -18 25 0 26 7 34 40 51 22 11 75 25 117 30 42 6 79
12 82 16 3 3 15 3 26 0 11 -3 28 -6 38 -6z m-363 -35 c-13 -14 -27 -25 -32
-25 -4 0 -8 11 -8 25 0 21 5 25 32 25 l31 0 -23 -25z m26 -29 c-20 -31 -56
-53 -56 -35 0 13 62 70 69 63 2 -2 -4 -15 -13 -28z m-178 -40 l34 -12 -59 -28
c-32 -15 -67 -33 -78 -39 -41 -23 -110 -56 -118 -57 -4 0 -5 17 -1 38 8 43 51
107 90 133 26 16 28 16 63 -3 20 -11 51 -26 69 -32z m532 -32 c0 -25 -4 -34
-17 -35 -10 0 -27 -3 -38 -5 -39 -9 -257 -24 -266 -19 -5 4 -9 17 -9 30 0 21
7 25 58 36 69 15 71 15 152 24 36 4 66 8 68 10 1 1 14 0 27 -3 21 -4 25 -10
25 -38z m-358 14 c-7 -7 -12 -8 -12 -2 0 14 12 26 19 19 2 -3 -1 -11 -7 -17z
m-1762 -7 c0 -7 -83 -136 -96 -151 -3 -2 -4 29 -2 70 3 74 3 75 33 81 45 10
65 10 65 0z m160 2 c-1 -5 -14 -26 -30 -48 -16 -22 -34 -49 -39 -60 -5 -12
-15 -26 -22 -32 -12 -9 -14 0 -13 53 0 36 5 68 10 73 15 15 94 26 94 14z
m1600 -38 c0 -23 -2 -24 -20 -13 -25 16 -25 25 -2 31 9 3 18 5 20 6 1 0 2 -10
2 -24z m-1724 -84 c-2 -30 -8 -57 -13 -61 -11 -10 -73 8 -73 21 0 12 48 108
63 127 17 22 30 -24 23 -87z m247 92 c-7 -2 -13 -10 -13 -17 0 -7 -11 -23 -24
-35 -13 -13 -34 -46 -46 -74 -25 -58 -36 -51 -39 25 -1 28 -4 54 -7 59 -2 5 4
17 16 29 15 15 32 20 73 19 28 0 46 -3 40 -6z m967 -29 c0 -23 -1 -24 -16 -10
-8 9 -12 20 -9 26 12 19 25 10 25 -16z m-892 -25 c-18 -22 -43 -55 -55 -72
-19 -26 -23 -28 -24 -12 -1 11 -3 34 -5 51 -5 46 24 67 99 73 15 1 13 -6 -15
-40z m152 16 c0 -9 -73 -110 -89 -122 -25 -21 -31 -15 -31 32 0 27 -5 45 -12
45 -6 0 -4 8 7 19 10 12 34 21 59 24 22 2 47 4 54 5 6 1 12 0 12 -3z m1220
-35 c18 -16 32 -31 29 -33 -2 -2 -17 -13 -33 -25 -30 -23 -52 -29 -41 -12 3 5
6 30 7 55 0 25 1 45 2 45 2 0 17 -13 36 -30z m386 -1 c-3 -17 -6 -44 -6 -60 0
-28 -1 -29 -52 -29 -28 0 -91 -5 -139 -11 -85 -11 -199 -5 -199 10 0 4 14 17
31 30 29 22 32 22 64 7 40 -19 88 -21 83 -4 -3 7 -15 15 -28 18 -26 6 -40 30
-17 30 8 0 20 7 27 15 8 9 37 15 88 18 43 1 94 4 116 5 38 2 38 2 32 -29z
m-283 4 c-7 -2 -19 -2 -25 0 -7 3 -2 5 12 5 14 0 19 -2 13 -5z m-1209 -15
c-28 -49 -57 -78 -81 -78 -23 0 -25 3 -19 31 7 37 -15 36 -24 -1 -6 -24 -30
-41 -30 -20 0 7 9 25 20 40 17 24 29 30 73 33 29 2 56 4 60 5 5 1 5 -4 1 -10z
m-485 -55 c1 -21 -4 -23 -44 -23 -33 0 -45 4 -45 15 0 17 16 20 25 5 10 -16
32 5 40 38 7 25 8 25 15 7 5 -11 9 -30 9 -42z m114 -5 c-3 -16 -12 -28 -19
-28 -17 0 -17 7 -3 50 14 39 30 22 22 -22z m107 7 c0 -28 -4 -35 -20 -35 -11
0 -20 3 -20 6 0 7 33 64 37 64 2 0 3 -16 3 -35z m690 28 c-1 -18 -37 -55 -44
-45 -4 6 2 20 14 32 21 21 30 25 30 13z m-1061 -79 c17 -4 31 -10 31 -15 0 -9
-141 -111 -146 -106 -7 7 24 91 34 95 7 2 12 10 12 18 0 15 20 18 69 8z m1796
-14 c27 -1 25 -3 -28 -30 -33 -17 -64 -30 -71 -30 -7 0 -12 15 -13 36 l-1 36
41 -6 c23 -3 56 -5 72 -6z m313 -37 l3 -43 -180 0 c-107 0 -181 4 -181 9 0 13
41 41 58 41 8 0 28 6 45 14 54 24 59 25 157 23 l95 -2 3 -42z m-1117 -61 c-38
-26 -94 -90 -108 -123 -15 -36 -42 -49 -55 -25 -5 9 -26 23 -46 32 l-37 16 44
19 c26 11 48 16 53 11 5 -5 23 4 41 21 30 28 99 65 122 66 6 0 -1 -8 -14 -17z
m849 -12 c0 -3 -21 -16 -47 -29 -26 -13 -64 -36 -84 -52 -20 -16 -40 -29 -43
-29 -3 0 -6 24 -6 54 0 49 2 55 23 59 33 7 157 5 157 -3z"/>
</g>
</svg>
