<?xml version="1.0" standalone="no"?>
<!DOCTYPE svg PUBLIC "-//W3C//DTD SVG 20010904//EN"
 "http://www.w3.org/TR/2001/REC-SVG-20010904/DTD/svg10.dtd">
<svg version="1.0" xmlns="http://www.w3.org/2000/svg"
 width="274.000000pt" height="167.000000pt" viewBox="0 0 274.000000 167.000000"
 preserveAspectRatio="xMidYMid meet">
<metadata>
Created by potrace 1.16, written by Peter Selinger 2001-2019
</metadata>
<g transform="translate(0.000000,167.000000) scale(0.100000,-0.100000)"
fill="#000000" stroke="none">
<path d="M2317 1468 c-7 -4 -4 -12 7 -24 17 -17 17 -18 0 -31 -19 -14 -18 -15
0 -28 18 -14 19 -25 13 -177 -5 -141 -27 -301 -43 -317 -2 -3 -19 1 -37 8
-123 49 -261 94 -372 122 -71 17 -131 32 -133 34 -1 1 24 20 57 41 33 21 64
49 70 61 5 11 20 24 33 28 13 4 68 24 123 46 55 21 138 51 184 66 47 15 87 34
89 42 4 11 0 12 -14 6 -11 -4 -46 -16 -79 -25 -33 -9 -67 -20 -75 -23 -117
-47 -341 -111 -420 -120 -34 -4 -47 -1 -57 12 -12 15 -14 14 -28 -3 -8 -11
-15 -31 -15 -44 l0 -24 -227 6 c-333 10 -561 25 -618 41 -27 7 -99 16 -160 20
-60 3 -126 10 -145 15 -59 16 -157 17 -172 2 -9 -9 -13 -51 -13 -150 l0 -137
-48 -3 c-64 -4 -60 -18 8 -25 30 -3 59 -8 64 -11 5 -4 1 -22 -9 -44 -10 -20
-27 -54 -37 -75 -20 -42 -17 -45 -48 56 -20 62 -31 75 -47 59 -6 -6 -6 -23 2
-48 6 -22 13 -124 16 -229 3 -104 10 -194 15 -200 20 -20 31 16 35 116 3 57
11 127 19 154 12 43 62 139 115 223 12 17 12 24 3 30 -8 5 -2 13 20 23 18 9
64 32 102 51 41 21 92 38 124 41 29 4 63 13 75 20 13 9 65 17 136 21 63 4 144
12 180 18 64 11 569 13 602 2 22 -7 40 -64 36 -112 -2 -29 0 -36 12 -34 8 2
75 3 148 3 121 -2 159 -6 272 -31 58 -12 151 -51 145 -60 -3 -5 10 -6 30 -3
41 7 42 4 20 -89 -8 -35 -14 -72 -14 -83 1 -72 -15 -265 -22 -265 -4 0 -34 14
-66 30 -31 17 -63 30 -69 30 -6 0 -17 7 -24 15 -7 8 -19 15 -27 15 -20 0 -176
94 -231 138 -24 19 -39 38 -35 42 13 12 223 90 242 90 9 0 26 7 37 16 19 15
19 15 -1 10 -58 -13 -188 -51 -245 -70 -55 -19 -69 -21 -89 -10 -21 11 -22 12
-5 17 11 3 37 9 59 12 93 15 183 35 215 48 45 18 112 29 105 16 -8 -12 -7 -12
48 7 47 16 68 43 25 30 -13 -4 -52 -11 -87 -17 -35 -5 -66 -11 -70 -14 -4 -2
-43 -14 -87 -25 -67 -18 -115 -22 -329 -26 -216 -4 -333 0 -615 21 -30 3 -133
10 -229 17 -126 8 -183 16 -208 29 -34 17 -34 17 -51 -9 -10 -15 -18 -48 -18
-77 -1 -27 -2 -59 -3 -70 -1 -13 -13 -26 -33 -35 l-33 -13 33 -4 c24 -3 32 -9
32 -24 0 -25 21 -24 54 2 14 11 35 19 47 17 19 -3 14 -11 -38 -68 l-60 -65 -7
58 c-4 33 -12 57 -19 57 -9 0 -13 -41 -13 -150 -1 -83 2 -150 5 -150 20 0 31
30 31 81 0 64 5 72 118 191 35 37 61 72 57 78 -21 34 226 66 580 75 94 2 207
7 252 11 44 4 106 3 136 0 45 -6 57 -12 68 -33 11 -21 11 -27 2 -30 -7 -3 -13
-15 -13 -27 0 -12 -7 -31 -15 -42 -27 -35 -18 -40 68 -40 143 1 144 1 447
-148 l65 -32 3 -72 c2 -40 7 -72 12 -72 21 0 30 46 30 162 0 174 12 274 65
558 7 41 16 109 20 150 9 118 22 151 95 249 38 50 64 94 59 97 -14 8 -198 11
-212 2z m167 -40 c-5 -7 -28 -44 -53 -83 l-46 -70 -7 45 c-3 25 -7 62 -7 83
l-1 37 61 0 c45 0 58 -3 53 -12z m-1914 -287 c102 -6 196 -13 210 -16 14 -3
52 -8 85 -11 33 -3 61 -7 63 -9 2 -2 -50 -6 -115 -9 -158 -8 -235 -23 -313
-59 -36 -16 -76 -33 -90 -37 -14 -5 -33 -11 -42 -15 -16 -6 -18 1 -18 77 0 87
3 100 23 93 7 -3 95 -9 197 -14z m1260 15 c0 -6 -132 -78 -135 -74 -2 2 -5 12
-7 22 -2 16 8 22 62 36 78 21 80 21 80 16z m13 -166 c15 -6 -4 -8 -58 -6 -119
6 -113 5 -95 17 16 11 117 4 153 -11z m-1058 -204 c252 -8 368 -17 358 -26 -4
-4 -80 -10 -168 -13 -192 -8 -340 -29 -396 -57 -22 -12 -42 -20 -43 -18 -1 2
0 33 2 70 3 64 5 67 25 59 12 -5 112 -11 222 -15z m408 -23 c-7 -2 -19 -2 -25
0 -7 3 -2 5 12 5 14 0 19 -2 13 -5z m595 -124 c23 -17 42 -31 42 -32 0 -1 -31
-3 -70 -4 -38 -1 -70 2 -70 7 0 9 42 60 51 60 3 0 24 -14 47 -31z"/>
</g>
</svg>
