<?xml version="1.0" standalone="no"?>
<!DOCTYPE svg PUBLIC "-//W3C//DTD SVG 20010904//EN"
 "http://www.w3.org/TR/2001/REC-SVG-20010904/DTD/svg10.dtd">
<svg version="1.0" xmlns="http://www.w3.org/2000/svg"
 width="186.000000pt" height="89.000000pt" viewBox="0 0 186.000000 89.000000"
 preserveAspectRatio="xMidYMid meet">
<metadata>
Created by potrace 1.16, written by Peter Selinger 2001-2019
</metadata>
<g transform="translate(0.000000,89.000000) scale(0.100000,-0.100000)"
fill="#000000" stroke="none">
<path d="M1018 823 c-8 -10 -25 -40 -38 -68 -13 -27 -32 -60 -42 -71 -11 -12
-18 -29 -16 -37 2 -8 -15 -34 -36 -57 l-39 -43 -71 8 c-100 12 -139 14 -326
20 -102 3 -190 12 -231 22 -37 9 -74 13 -84 9 -16 -6 -17 -8 -1 -24 19 -22 22
-97 3 -109 -9 -6 -12 -52 -13 -173 0 -91 -4 -177 -8 -193 -7 -23 -6 -27 13
-27 11 0 21 -4 21 -10 0 -5 6 -10 14 -10 11 0 13 9 9 34 -5 33 -4 33 38 40 24
4 78 18 119 31 42 13 93 26 114 30 34 7 38 6 33 -11 -15 -48 -17 -92 -8 -117
17 -44 29 -31 29 31 0 91 11 109 74 117 29 5 99 8 155 7 97 0 105 -2 135 -27
18 -15 33 -35 33 -44 0 -11 9 -16 28 -16 23 1 29 -5 39 -37 18 -59 31 -65 75
-30 40 32 67 48 203 120 47 25 122 67 168 94 117 68 228 122 285 139 62 18 79
45 46 70 -13 10 -33 21 -44 25 -18 5 -108 47 -176 80 -14 7 -59 25 -100 40
-123 44 -306 142 -357 191 -18 17 -26 16 -44 -4z m109 -83 c37 -23 75 -45 83
-50 37 -21 110 -55 170 -77 70 -26 61 -25 -105 8 -55 11 -129 25 -165 30 -38
6 -73 18 -83 28 -18 18 -18 20 2 60 12 22 23 41 25 41 2 0 35 -18 73 -40z m48
-136 c72 -14 146 -30 165 -34 19 -5 69 -15 110 -24 41 -9 86 -20 100 -25 14
-5 53 -17 87 -28 35 -10 63 -20 63 -23 0 -6 -9 -10 -145 -60 -49 -18 -126 -46
-170 -63 -122 -45 -138 -49 -131 -31 3 9 -1 17 -11 21 -10 4 -44 24 -76 46
l-58 38 32 37 c18 20 43 45 56 55 31 24 30 47 -2 47 -14 0 -25 -3 -25 -7 0 -5
-22 -33 -49 -63 l-49 -55 -38 31 c-25 20 -39 40 -41 60 -9 82 0 116 30 109 12
-3 81 -17 152 -31z m-215 -95 c8 -28 7 -29 -13 -23 -12 3 -29 10 -37 15 -12 7
-10 8 7 9 12 0 25 5 28 10 3 6 -3 10 -15 10 -18 0 -19 3 -9 22 10 19 12 20 21
4 5 -10 14 -31 18 -47z m-393 38 c159 -2 226 -6 235 -15 13 -13 6 -13 -167
-18 -38 -1 -142 -6 -230 -12 -225 -16 -205 -18 -205 23 l0 35 73 -5 c39 -3
172 -7 294 -8z m217 -66 c3 -5 15 -7 26 -4 23 6 102 -13 140 -33 14 -8 39 -19
55 -25 l30 -11 -37 -31 c-20 -18 -58 -43 -85 -57 -26 -13 -65 -34 -85 -47 -33
-20 -49 -23 -156 -22 -65 0 -125 -1 -133 -3 -41 -9 -8 92 57 178 19 24 34 49
34 54 0 13 147 13 154 1z m-322 -44 c9 -13 13 -114 9 -186 -1 -11 -22 -12
-118 -6 -65 5 -126 8 -135 9 -23 0 -23 8 2 48 15 25 20 28 20 14 0 -43 21 2
24 52 4 57 16 78 49 86 37 8 140 -3 149 -17z m108 9 c0 -1 -16 -31 -35 -66
l-35 -65 -1 45 c-3 88 4 101 47 92 13 -2 24 -5 24 -6z m-345 -28 c-11 -42 -58
-158 -62 -154 -2 2 -1 38 3 81 6 65 10 78 28 85 33 14 38 12 31 -12z m880 -74
c6 -7 22 -19 37 -29 24 -15 29 -15 34 -2 5 13 9 13 37 -1 17 -9 27 -17 22 -19
-112 -37 -255 -72 -255 -63 0 7 40 84 67 128 15 24 27 21 58 -14z m-141 -68
c-36 -64 -46 -70 -73 -42 l-23 24 24 15 c32 21 82 46 90 47 4 0 -4 -20 -18
-44z m371 6 c-16 -10 -73 -43 -125 -72 -52 -29 -118 -68 -147 -86 -28 -19 -54
-34 -56 -34 -3 0 -8 13 -12 30 -4 16 -11 32 -16 35 -13 9 -11 35 4 35 6 0 41
8 77 19 36 11 97 29 135 40 39 11 88 27 110 35 54 20 66 19 30 -2z m-1094 -67
c19 -2 50 -4 69 -5 l35 -2 -30 -10 c-41 -13 -149 -37 -153 -34 -1 2 5 20 14
40 11 21 21 32 25 25 3 -6 22 -12 40 -14z"/>
</g>
</svg>
