<?xml version="1.0" standalone="no"?>
<!DOCTYPE svg PUBLIC "-//W3C//DTD SVG 20010904//EN"
 "http://www.w3.org/TR/2001/REC-SVG-20010904/DTD/svg10.dtd">
<svg version="1.0" xmlns="http://www.w3.org/2000/svg"
 width="148.000000pt" height="124.000000pt" viewBox="0 0 148.000000 124.000000"
 preserveAspectRatio="xMidYMid meet">
<metadata>
Created by potrace 1.16, written by Peter Selinger 2001-2019
</metadata>
<g transform="translate(0.000000,124.000000) scale(0.100000,-0.100000)"
fill="#000000" stroke="none">
<path d="M1007 1120 c-17 -20 -37 -27 -37 -12 0 10 -192 9 -209 -2 -12 -8 -10
-11 7 -17 23 -9 26 -25 22 -99 -1 -19 -4 -37 -6 -40 -8 -8 -177 31 -227 52
-26 11 -58 34 -72 49 -37 45 -70 35 -77 -26 -3 -28 -5 -29 -58 -31 -55 -1
-122 -22 -134 -43 -4 -6 -12 -9 -17 -6 -5 4 -9 1 -9 -4 0 -6 7 -11 15 -11 8 0
15 -5 15 -10 0 -6 5 -9 12 -8 16 4 36 -66 37 -127 1 -27 -5 -93 -13 -145 -8
-52 -17 -141 -21 -197 -8 -115 -12 -120 -82 -87 -53 26 -58 13 -58 -134 0 -70
1 -130 3 -135 5 -11 41 11 91 55 89 77 126 96 209 103 42 4 88 10 102 12 14 3
62 7 108 10 58 3 82 8 79 16 -2 8 -32 12 -83 13 -43 1 -78 5 -78 10 1 5 10 71
20 148 l18 138 36 15 c19 9 54 24 78 34 68 30 72 28 67 -39 -4 -51 6 -95 18
-82 3 3 7 34 10 70 3 36 6 66 6 68 1 1 20 2 42 2 41 0 41 0 35 -32 -16 -93
-18 -118 -8 -118 11 0 14 7 33 90 13 61 21 70 63 70 28 0 28 0 22 -47 -3 -27
-8 -64 -11 -83 -10 -59 19 -11 34 57 7 32 15 64 17 71 2 8 25 12 66 12 35 0
74 3 87 7 l24 6 -5 -96 c-3 -54 -1 -97 3 -97 16 0 29 39 35 102 10 101 39 176
103 260 44 56 87 127 83 136 -3 8 -211 6 -220 -2 -3 -4 -2 -10 4 -14 15 -9 35
-48 28 -55 -7 -7 -75 3 -96 14 -9 5 -33 9 -52 9 -20 0 -36 2 -36 5 0 12 85
155 92 155 4 0 8 7 8 15 0 25 -101 21 -123 -5z m51 -50 c-18 -31 -24 -36 -29
-22 -4 10 1 26 14 40 32 35 40 26 15 -18z m-178 3 c0 -9 -50 -93 -55 -93 -3 0
-5 23 -5 50 0 49 1 50 30 50 17 0 30 -3 30 -7z m98 -14 c-7 -12 -23 -40 -35
-63 l-23 -41 0 56 c0 64 3 69 42 69 27 0 28 -2 16 -21z m-83 -69 c0 -37 -2
-40 -28 -40 l-27 0 26 40 c15 22 27 40 28 40 0 0 1 -18 1 -40z m105 0 c0 -36
-2 -40 -25 -40 -29 0 -29 -2 -10 44 20 47 35 46 35 -4z m348 -25 c5 -5 -48
-91 -79 -126 l-20 -23 4 38 c3 21 11 42 18 47 11 6 10 9 -4 15 -11 4 -17 17
-17 36 l0 31 47 -7 c25 -3 48 -8 51 -11z m-751 -24 c40 -12 94 -21 120 -21 65
0 77 -10 69 -51 -3 -19 -10 -63 -16 -98 -6 -36 -11 -66 -13 -67 -7 -6 -38 -7
-82 0 -96 14 -96 13 -85 42 12 30 59 99 90 132 12 13 20 25 17 28 -11 11 -37
-11 -68 -57 -32 -45 -48 -60 -49 -41 -1 4 -3 23 -6 43 -5 34 -3 37 25 42 17 4
31 11 31 17 0 17 -42 11 -105 -15 -79 -32 -86 -32 -75 4 4 15 13 38 20 51 13
24 12 24 127 -9z m-222 -38 c-10 -14 -27 -42 -39 -62 l-21 -36 -12 55 c-14 63
-9 70 51 70 l38 0 -17 -27z m511 -27 c-4 -17 -9 -62 -12 -101 -4 -38 -8 -72
-10 -74 -3 -3 -20 -5 -39 -6 l-35 -1 5 56 c3 30 11 80 16 110 l11 56 35 -4
c33 -4 35 -6 29 -36z m106 27 c3 -10 1 -28 -3 -39 -4 -12 -11 -54 -15 -93 -5
-59 -10 -71 -24 -71 -10 0 -25 -3 -34 -6 -13 -5 -16 2 -16 37 0 75 19 163 37
177 24 17 51 15 55 -5z m160 4 c32 -2 60 -6 64 -9 8 -8 -13 -169 -24 -179 -4
-4 -49 -9 -100 -11 l-93 -3 7 85 c9 118 15 131 56 125 19 -3 59 -7 90 -8z
m-609 -117 c-1 -71 -6 -117 -28 -261 -8 -53 -15 -118 -15 -145 0 -92 -17 -111
-83 -94 -17 5 -45 11 -62 14 -16 3 -43 11 -58 17 l-29 12 7 96 c17 229 25 270
62 341 40 75 53 92 53 67 0 -23 35 -21 80 3 19 11 44 19 55 17 18 -2 20 -9 18
-67z m112 -117 c18 -5 18 -7 -5 -16 -14 -5 -37 -11 -51 -13 -23 -3 -27 0 -25
22 1 25 12 26 81 7z m-404 -394 l69 -12 -31 -19 c-17 -11 -56 -37 -86 -60 -30
-22 -56 -38 -58 -36 -4 4 -7 55 -6 101 1 43 3 43 112 26z"/>
</g>
</svg>
