<?xml version="1.0" standalone="no"?>
<!DOCTYPE svg PUBLIC "-//W3C//DTD SVG 20010904//EN"
 "http://www.w3.org/TR/2001/REC-SVG-20010904/DTD/svg10.dtd">
<svg version="1.0" xmlns="http://www.w3.org/2000/svg"
 width="301.000000pt" height="161.000000pt" viewBox="0 0 301.000000 161.000000"
 preserveAspectRatio="xMidYMid meet">
<metadata>
Created by potrace 1.16, written by Peter Selinger 2001-2019
</metadata>
<g transform="translate(0.000000,161.000000) scale(0.100000,-0.100000)"
fill="#000000" stroke="none">
<path d="M905 1499 c-33 -5 -84 -10 -113 -10 -54 -1 -62 -13 -14 -23 l27 -6
-1 -113 c0 -61 -4 -147 -8 -190 l-8 -78 -205 5 c-240 6 -301 14 -371 48 -40
20 -47 -1 -48 -140 0 -152 -13 -302 -27 -319 -6 -9 -6 -13 3 -13 8 0 9 -10 5
-31 -6 -24 -4 -30 6 -27 8 3 16 20 19 38 4 30 12 38 65 64 102 50 158 69 200
67 22 -1 107 -2 188 -2 l149 -1 -7 -127 c-4 -69 -12 -137 -17 -150 -6 -16 -5
-27 2 -31 13 -8 29 -161 22 -208 -5 -37 19 -53 50 -33 29 18 148 27 148 11 0
-10 5 -9 18 3 12 11 52 19 126 26 60 6 112 9 116 6 18 -11 316 -8 338 4 12 6
21 15 18 19 -2 4 28 6 67 6 40 -1 121 3 181 9 78 7 123 7 155 -1 100 -24 111
-24 117 -7 4 8 0 23 -8 33 -14 18 -14 19 -3 160 4 51 7 107 7 125 0 32 2 34
74 56 41 13 74 27 74 32 0 14 -31 11 -84 -7 -26 -9 -48 -15 -50 -13 -2 2 -6
20 -10 39 -3 19 -2 29 2 23 14 -22 131 -28 435 -20 92 2 160 0 164 -6 3 -5 8
-39 10 -76 3 -36 7 -73 10 -81 4 -8 5 -19 4 -23 -1 -5 4 -7 11 -5 8 3 13 36
14 109 1 65 8 127 19 164 20 70 85 184 115 203 37 22 12 33 -68 28 -113 -7
-450 -7 -580 0 -99 6 -113 8 -107 23 3 9 13 50 20 91 8 41 28 102 45 134 35
69 36 76 12 76 -11 0 -33 7 -50 16 -17 8 -50 16 -74 16 -23 0 -55 4 -72 9 -17
5 -76 11 -131 14 -275 15 -424 26 -460 35 -22 5 -83 12 -135 15 -83 6 -246 26
-305 39 -11 2 -47 0 -80 -5z m31 -48 c-7 -14 -19 -46 -26 -71 -8 -25 -21 -50
-30 -57 -10 -8 -12 -15 -4 -22 7 -8 3 -37 -12 -99 -13 -48 -23 -99 -23 -114
-1 -16 -4 -28 -8 -28 -5 0 -8 91 -8 202 l1 202 44 11 c25 6 53 9 62 7 15 -4
16 -7 4 -31z m48 20 c6 -10 146 -28 271 -36 50 -3 128 -12 175 -20 47 -9 139
-18 205 -21 65 -2 120 -6 122 -8 5 -4 -232 -15 -467 -22 -179 -5 -343 -18
-362 -30 -14 -9 -9 30 12 86 11 30 20 56 20 57 0 7 19 2 24 -6z m988 -113
c111 -1 173 -12 152 -26 -19 -12 -25 -47 -25 -163 -1 -108 -3 -137 -29 -304
-6 -38 -11 -90 -11 -115 0 -25 -5 -72 -9 -105 -25 -165 -26 -181 -15 -260 l7
-50 -83 -1 c-46 -1 -236 -3 -421 -5 -188 -2 -334 -7 -331 -12 3 -5 -3 -4 -13
2 -35 18 -137 31 -255 31 -65 0 -120 3 -123 8 -25 41 -9 447 24 602 10 47 24
119 30 160 7 41 20 100 29 130 l16 55 64 11 c36 7 168 15 295 19 127 4 247 9
266 11 19 2 94 6 165 10 72 3 132 8 134 10 2 2 7 1 11 -1 5 -3 59 -6 122 -7z
m180 -110 c-13 -40 -26 -75 -28 -77 -5 -5 9 128 15 147 1 1 9 2 19 2 17 0 17
-5 -6 -72z m-1896 -163 c28 -8 82 -19 120 -24 69 -8 69 -8 17 -10 -28 0 -80
-10 -114 -21 -35 -10 -65 -17 -67 -15 -6 5 -13 85 -9 85 2 0 26 -7 53 -15z
m539 -46 c-3 -12 -7 -55 -11 -95 -4 -40 -8 -84 -9 -96 -1 -13 -3 -32 -4 -42
-1 -18 -8 -19 -153 -12 -84 4 -173 9 -198 11 -25 2 -79 4 -120 6 -111 3 -111
3 -106 58 3 25 5 54 5 63 2 35 169 87 283 88 39 0 60 5 65 14 8 15 36 18 180
24 69 2 72 1 68 -19z m32 -21 c-3 -7 -5 -2 -5 12 0 14 2 19 5 13 2 -7 2 -19 0
-25z m1408 -19 l40 -1 -38 -9 c-20 -5 -55 -18 -76 -28 l-39 -20 4 32 c1 18 3
35 3 39 1 4 16 2 33 -3 18 -5 51 -9 73 -10z m567 -49 c-15 -26 -30 -46 -33
-44 -4 2 -6 23 -5 46 2 31 7 43 22 48 39 14 44 0 16 -50z m-66 -20 c1 -30 -1
-82 -4 -115 l-4 -60 -137 -1 c-75 0 -194 -1 -266 -2 -151 -1 -221 8 -217 27 1
7 5 39 9 72 6 61 11 66 43 49 13 -7 19 -6 23 5 3 7 1 16 -6 18 -22 8 -1 17 79
33 43 9 85 20 93 24 8 4 98 7 200 6 l186 -1 1 -55z m-2424 -148 l38 -7 -80
-32 -80 -31 0 39 0 39 43 -1 c23 0 59 -3 79 -7z m643 -476 c50 -3 103 -5 119
-5 16 -1 27 -4 24 -7 -7 -6 -281 -33 -287 -28 -2 2 -1 15 3 29 5 20 11 24 29
20 12 -2 63 -7 112 -9z"/>
<path d="M1022 1194 c-15 -10 -21 -22 -17 -34 3 -10 2 -21 -3 -24 -5 -3 -10
-25 -11 -48 0 -24 -5 -59 -11 -78 -12 -40 -13 -100 -2 -116 17 -26 49 -33 110
-24 33 6 79 8 103 5 24 -3 110 -8 191 -10 81 -2 152 -6 158 -10 6 -4 8 -16 4
-28 -17 -54 -49 -317 -41 -339 5 -14 4 -24 -2 -26 -33 -11 1 -17 97 -17 59 0
126 -3 150 -8 24 -5 54 -6 68 -3 20 5 24 12 24 46 0 22 -4 40 -9 40 -11 0 -7
110 9 220 18 128 19 129 24 215 4 44 9 114 12 155 l6 75 -224 -3 c-198 -3
-557 11 -598 23 -9 3 -26 -2 -38 -11z m86 -65 c15 0 21 -3 14 -6 -6 -2 -10 -9
-7 -14 3 -5 1 -18 -5 -29 -6 -12 -13 -29 -15 -38 -19 -93 -34 -127 -53 -130
-29 -4 -34 21 -22 111 11 89 25 121 47 113 8 -3 27 -6 41 -7z m663 1 l48 0 -5
-77 c-3 -43 -7 -87 -9 -98 -2 -11 -4 -30 -4 -42 -1 -33 -45 -31 -77 4 -22 24
-25 33 -19 78 4 27 12 65 18 82 12 37 5 52 -17 34 -19 -16 -58 -132 -59 -175
-1 -29 -4 -33 -29 -32 -15 1 -28 6 -29 11 -2 19 1 80 7 139 5 46 3 57 -7 54
-15 -5 -48 -126 -49 -175 0 -34 -7 -38 -49 -26 -23 6 -23 8 -17 77 3 39 9 83
12 99 5 21 3 27 -10 27 -18 0 -46 -84 -51 -153 -2 -34 -7 -43 -24 -45 -49 -8
-56 21 -35 137 14 83 10 80 138 77 63 -2 132 0 153 4 21 4 44 6 51 4 8 -2 36
-4 63 -4z m-494 -6 c82 -6 82 -6 68 -27 -7 -12 -21 -59 -31 -104 -14 -65 -21
-83 -34 -83 -32 0 -45 54 -32 133 7 38 10 72 7 75 -20 20 -64 -97 -65 -170 0
-24 -4 -28 -29 -28 -57 0 -62 37 -19 151 24 62 19 61 135 53z m499 -280 c16
-4 20 -11 16 -29 -4 -21 -9 -23 -41 -20 -20 3 -66 8 -103 11 -71 7 -68 5 -59
53 1 4 157 -8 187 -15z m-63 -91 c37 -10 67 -20 67 -23 0 -3 -35 -6 -77 -6
-43 1 -92 -2 -109 -6 -29 -6 -30 -6 -26 23 4 26 8 29 41 29 20 0 66 -8 104
-17z m20 -69 c35 -6 37 -8 37 -45 0 -27 -4 -37 -12 -34 -11 4 -78 9 -187 14
-20 1 -22 4 -16 28 3 15 12 31 18 35 15 9 108 10 160 2z m-59 -109 c48 -4 73
-2 84 7 14 12 15 9 9 -21 -5 -25 -3 -39 9 -53 16 -17 15 -18 -34 -18 -28 0
-59 -3 -69 -6 -17 -5 -16 -4 1 10 11 9 17 18 15 21 -9 8 -126 8 -139 0 -10 -6
-12 -2 -7 16 4 13 7 32 7 41 0 13 7 16 28 13 15 -2 58 -7 96 -10z m-24 -82 c0
-5 -25 -8 -55 -8 -30 0 -55 3 -55 8 0 4 25 7 55 7 30 0 55 -3 55 -7z"/>
</g>
</svg>
