<?xml version="1.0" standalone="no"?>
<!DOCTYPE svg PUBLIC "-//W3C//DTD SVG 20010904//EN"
 "http://www.w3.org/TR/2001/REC-SVG-20010904/DTD/svg10.dtd">
<svg version="1.0" xmlns="http://www.w3.org/2000/svg"
 width="208.000000pt" height="122.000000pt" viewBox="0 0 208.000000 122.000000"
 preserveAspectRatio="xMidYMid meet">
<metadata>
Created by potrace 1.16, written by Peter Selinger 2001-2019
</metadata>
<g transform="translate(0.000000,122.000000) scale(0.100000,-0.100000)"
fill="#000000" stroke="none">
<path d="M515 1062 c-16 -2 -35 -10 -42 -19 -10 -13 -26 -15 -98 -9 -71 6 -85
5 -85 -8 0 -18 47 -29 116 -27 48 1 52 -1 47 -20 -3 -12 -21 -36 -39 -54 -19
-19 -28 -35 -22 -37 8 -3 5 -26 -12 -77 -26 -82 -39 -79 -40 9 -1 62 -29 161
-47 167 -8 3 -10 -3 -6 -19 9 -40 19 -391 11 -438 -11 -69 -9 -240 2 -240 5 0
7 -13 3 -31 -8 -40 10 -51 52 -33 32 13 167 44 194 44 10 0 12 -16 6 -80 -6
-70 -5 -81 10 -86 9 -4 23 0 32 9 14 13 14 19 3 32 -10 13 -11 26 -1 68 6 29
15 58 20 66 10 15 171 27 341 24 345 -5 849 -2 881 6 12 2 22 55 25 136 1 44
5 94 8 111 2 18 8 63 11 100 8 89 12 102 33 100 13 -1 18 10 23 49 8 63 31
134 58 181 12 20 20 38 18 41 -3 2 -247 6 -543 9 -297 3 -585 9 -640 15 -56 5
-140 9 -187 8 -47 -1 -89 0 -94 3 -4 2 -21 2 -38 0z m785 -47 c250 -3 478 -5
507 -6 30 0 53 -5 56 -12 2 -7 1 -35 -4 -62 -4 -28 -13 -104 -19 -170 -6 -66
-20 -176 -31 -244 -20 -117 -20 -126 -4 -137 9 -7 15 -21 13 -31 -3 -16 -20
-19 -145 -28 -77 -6 -251 -9 -384 -6 -134 2 -329 3 -434 2 -104 0 -196 3 -204
8 -15 10 -3 40 32 78 11 13 17 26 14 30 -4 3 -42 2 -84 -3 -83 -10 -83 -10
-68 -66 l7 -26 -111 -1 -111 -1 0 63 c0 124 52 372 98 467 19 39 2 33 275 86
81 15 153 32 160 36 25 16 -2 15 -98 -2 -244 -44 -296 -52 -300 -48 -3 3 10
22 29 44 l34 40 158 -3 c88 -2 364 -6 614 -8z m665 -32 c-28 -67 -55 -161 -53
-182 2 -13 -2 -26 -8 -28 -11 -4 -11 15 1 147 2 30 4 61 5 68 0 7 13 12 31 12
26 0 30 -3 24 -17z m-1337 -613 c-23 -40 -38 -51 -38 -27 0 6 -3 22 -6 34 -5
17 -1 22 18 26 48 9 49 8 26 -33z m-103 -60 c19 -1 2 -9 -50 -21 -148 -35
-137 -35 -133 -8 3 27 33 36 108 32 25 -1 59 -3 75 -3z"/>
<path d="M917 903 c-22 -11 -72 -69 -119 -137 -3 -5 -62 -14 -129 -20 -89 -8
-124 -15 -127 -25 -4 -12 12 -13 97 -8 90 4 100 3 90 -10 -10 -11 -10 -19 -1
-34 10 -16 9 -19 -5 -20 -10 -1 -27 -3 -38 -4 -11 -2 -49 -6 -84 -9 -65 -5
-98 -20 -69 -31 8 -3 71 -2 140 2 70 5 126 5 125 2 -3 -11 97 -90 123 -96 14
-3 30 -10 37 -15 7 -6 19 -6 30 0 10 5 124 12 253 15 129 3 257 8 284 10 28 3
53 4 57 1 4 -2 3 -23 -2 -46 -11 -44 -2 -62 23 -53 10 4 18 24 22 53 8 66 13
99 25 162 27 137 35 168 59 218 13 29 22 55 19 58 -3 3 -20 -2 -38 -11 -21
-11 -44 -15 -67 -12 -28 5 -35 3 -39 -13 -3 -12 -14 -20 -27 -21 -59 -3 -117
1 -128 8 -7 4 -101 12 -208 19 -200 12 -224 15 -236 27 -11 10 -35 7 -67 -10z
m69 -65 c25 -18 65 -50 90 -70 25 -21 53 -42 63 -47 15 -8 4 -23 -76 -108 -72
-75 -96 -95 -102 -84 -6 9 -4 22 4 35 7 12 15 63 19 114 5 76 3 92 -9 92 -27
0 -36 -27 -40 -128 -2 -40 -5 -75 -7 -77 -2 -2 -17 8 -33 23 -16 15 -33 26
-37 25 -5 -2 -8 3 -8 11 0 8 -16 28 -36 45 l-35 32 28 27 c15 15 46 55 68 90
23 36 45 60 53 57 6 -2 33 -19 58 -37z m684 13 c0 -5 -6 -23 -14 -41 l-13 -33
-5 34 c-3 19 -4 37 -1 42 6 10 33 9 33 -2z m-178 -62 c9 -5 39 -9 67 -9 l50 0
-6 -92 c-7 -115 -14 -134 -50 -142 -15 -4 -137 -9 -270 -13 -249 -6 -264 -4
-230 31 6 8 40 43 75 80 34 36 67 66 72 66 22 0 7 27 -31 53 -22 15 -37 32
-34 37 8 12 331 2 357 -11z"/>
<path d="M673 863 c-79 -3 -103 -7 -103 -17 0 -29 203 -32 237 -4 16 13 7 29
-15 26 -9 -1 -63 -4 -119 -5z"/>
<path d="M666 543 c-2 -2 -29 -4 -59 -4 -33 -1 -61 -6 -67 -14 -19 -23 7 -27
113 -19 56 4 116 6 133 5 32 -2 56 16 32 23 -17 6 -148 13 -152 9z"/>
</g>
</svg>
