<?xml version="1.0" standalone="no"?>
<!DOCTYPE svg PUBLIC "-//W3C//DTD SVG 20010904//EN"
 "http://www.w3.org/TR/2001/REC-SVG-20010904/DTD/svg10.dtd">
<svg version="1.0" xmlns="http://www.w3.org/2000/svg"
 width="216.000000pt" height="128.000000pt" viewBox="0 0 216.000000 128.000000"
 preserveAspectRatio="xMidYMid meet">
<metadata>
Created by potrace 1.16, written by Peter Selinger 2001-2019
</metadata>
<g transform="translate(0.000000,128.000000) scale(0.100000,-0.100000)"
fill="#000000" stroke="none">
<path d="M1770 1104 c-72 -23 -224 -52 -364 -70 -121 -15 -157 -15 -213 2 -17
4 -23 2 -23 -9 0 -10 -17 -17 -62 -22 -35 -4 -72 -9 -83 -11 -252 -35 -649
-62 -659 -45 -14 23 -35 10 -45 -26 -13 -52 -19 -213 -9 -219 5 -3 4 -12 -2
-19 -6 -7 -12 -55 -13 -105 l-2 -92 70 -3 c39 -2 94 -8 124 -15 l54 -12 -6
-67 c-3 -36 -9 -74 -12 -84 -5 -12 -2 -17 8 -17 9 0 18 8 20 18 3 9 11 40 17
67 7 28 16 53 19 57 6 7 132 -16 246 -45 33 -9 96 -21 139 -27 44 -5 82 -12
84 -15 2 -2 1 -17 -3 -32 -5 -15 -9 -31 -10 -35 -2 -5 -3 -27 -4 -51 -1 -39
-5 -45 -40 -65 -51 -29 -69 -50 -48 -58 17 -6 92 43 179 117 31 27 63 49 71
49 8 0 22 11 30 24 15 22 19 23 69 15 29 -5 107 -15 173 -23 227 -29 233 -31
227 -80 -3 -22 0 -36 7 -36 6 0 10 -10 8 -22 -1 -17 3 -23 18 -23 15 0 21 10
28 45 5 25 14 51 19 57 7 9 7 17 -2 27 -9 12 -9 37 0 113 7 54 14 101 16 105
3 4 7 60 10 125 6 130 39 397 56 455 8 29 8 41 -2 53 -15 18 -30 18 -90 -1z
m-36 -249 c-45 -316 -42 -279 -29 -472 l8 -103 -26 0 c-14 0 -54 6 -89 14 -35
8 -110 20 -168 26 -157 19 -154 16 -67 91 113 97 141 119 148 119 20 0 14 42
-11 72 -15 18 -40 53 -55 78 -15 24 -34 51 -42 59 -8 7 -31 47 -50 88 -20 40
-51 91 -70 112 -18 22 -30 42 -25 45 4 2 77 14 162 26 85 11 191 29 235 39
l80 17 7 -50 c4 -31 1 -95 -8 -161z m83 193 c-3 -8 -6 -5 -6 6 -1 11 2 17 5
13 3 -3 4 -12 1 -19z m-13 -114 c-11 -87 -24 -135 -24 -88 0 39 23 184 30 184
3 0 1 -43 -6 -96z m-637 14 c-3 -18 -8 -51 -11 -73 -4 -22 -11 -56 -16 -75 -5
-19 -12 -60 -16 -90 -3 -30 -14 -95 -24 -145 -10 -49 -22 -109 -25 -132 -4
-24 -10 -45 -15 -48 -14 -9 -325 59 -436 95 l-31 10 9 67 c5 37 16 82 24 101
18 43 13 49 -33 47 -37 -3 -54 -17 -34 -30 8 -4 7 -13 -1 -28 -6 -12 -12 -49
-12 -82 -1 -54 -3 -60 -21 -57 -11 1 -57 8 -101 15 l-82 12 4 35 c2 19 6 51 9
70 2 19 8 82 11 140 4 58 8 107 10 109 6 6 99 17 229 25 33 2 60 5 60 6 0 0
23 2 50 4 51 4 66 6 270 36 66 10 135 18 154 19 32 1 33 0 28 -31z m81 -58
c12 -16 22 -32 22 -35 0 -5 28 -70 52 -121 5 -11 41 -54 79 -95 38 -41 69 -77
69 -80 0 -4 -10 -14 -22 -22 -13 -9 -59 -50 -102 -91 -77 -73 -80 -75 -91 -53
-10 18 -8 23 7 31 10 5 18 17 18 26 0 9 5 65 11 124 6 59 8 110 5 113 -3 4
-15 -2 -25 -11 -22 -20 -29 -53 -36 -170 -3 -44 -10 -96 -15 -116 l-10 -37
-43 8 c-23 4 -46 8 -50 9 -9 0 -4 35 28 185 13 61 28 146 35 190 17 113 30
175 39 175 4 0 17 -13 29 -30z m-53 -571 c5 -6 5 -9 -2 -9 -7 0 -33 -20 -60
-45 -26 -25 -51 -45 -55 -45 -4 0 -1 19 7 41 8 23 15 50 15 61 0 18 5 19 43
13 23 -4 46 -11 52 -16z"/>
</g>
</svg>
