<?xml version="1.0" standalone="no"?>
<!DOCTYPE svg PUBLIC "-//W3C//DTD SVG 20010904//EN"
 "http://www.w3.org/TR/2001/REC-SVG-20010904/DTD/svg10.dtd">
<svg version="1.0" xmlns="http://www.w3.org/2000/svg"
 width="306.000000pt" height="146.000000pt" viewBox="0 0 306.000000 146.000000"
 preserveAspectRatio="xMidYMid meet">
<metadata>
Created by potrace 1.16, written by Peter Selinger 2001-2019
</metadata>
<g transform="translate(0.000000,146.000000) scale(0.100000,-0.100000)"
fill="#000000" stroke="none">
<path d="M1347 1314 c-1 -1 -82 -4 -181 -8 -98 -3 -187 -11 -198 -17 -15 -8
-23 -8 -28 1 -14 23 -40 2 -41 -32 -6 -182 -4 -233 12 -232 11 1 15 -5 12 -16
-7 -26 -45 -29 -333 -30 -140 0 -273 -3 -295 -6 -70 -11 -151 -54 -100 -54 18
0 18 -4 6 -50 -6 -19 -12 -53 -15 -75 -4 -22 -9 -53 -12 -68 -3 -16 -3 -48 0
-70 l6 -42 297 2 c163 1 314 -2 337 -6 l41 -7 0 -132 c0 -128 1 -133 22 -138
12 -3 33 2 47 11 24 16 47 17 234 10 356 -12 677 -15 746 -7 79 10 183 -1 227
-23 28 -15 33 -15 47 -1 14 13 13 17 -1 40 -9 13 -30 27 -47 31 -16 4 -30 12
-31 18 -3 35 10 249 15 255 2 2 73 8 158 13 406 23 387 23 406 6 15 -13 20
-14 36 -2 15 11 20 29 22 77 3 67 32 159 59 189 9 9 15 25 13 34 -3 15 -18 17
-128 16 -197 -2 -503 -12 -528 -17 -23 -5 -23 -4 -21 85 1 49 6 115 11 147 10
65 5 92 -15 76 -13 -11 -257 -9 -352 3 -43 6 -424 22 -428 19z m105 -55 c57
-1 112 -4 123 -9 19 -7 19 -8 -5 -18 -14 -6 -33 -13 -42 -16 -27 -8 -21 -26 8
-26 21 0 25 -4 19 -17 -9 -22 -34 -171 -40 -237 -3 -27 -7 -51 -9 -54 -3 -2
-32 22 -65 54 -33 31 -71 64 -83 73 -13 9 -44 37 -68 63 -45 47 -89 65 -98 40
-4 -14 73 -92 192 -190 42 -35 76 -67 76 -72 0 -6 -65 -9 -148 -9 -144 2 -208
-9 -186 -31 5 -5 87 -11 182 -13 95 -3 175 -7 178 -10 8 -8 -65 -63 -121 -91
-29 -14 -66 -36 -82 -49 -15 -13 -44 -33 -64 -45 -45 -27 -73 -58 -60 -66 9
-6 94 45 106 63 3 5 33 23 67 41 35 18 89 50 121 72 l59 39 -7 -78 c-8 -95
-14 -150 -21 -184 -3 -17 2 -31 16 -44 19 -18 22 -18 38 -2 13 13 14 21 6 35
-7 10 -8 28 -3 47 11 40 18 107 18 178 1 61 13 74 29 30 12 -35 56 -83 75 -83
18 0 73 -60 82 -89 3 -12 20 -28 36 -36 16 -9 29 -20 29 -25 0 -16 36 -12 50
5 11 13 10 18 -6 30 -10 8 -25 15 -32 15 -7 0 -18 12 -24 28 -13 30 -94 109
-121 118 -20 6 -61 80 -48 88 5 3 69 7 143 8 106 2 139 0 153 -12 15 -13 19
-12 31 5 8 11 13 26 12 35 -3 13 -28 15 -171 13 -145 -1 -167 0 -156 13 6 8
17 14 25 14 7 0 28 13 46 28 18 16 70 57 116 91 76 58 95 82 74 95 -4 3 -21
-7 -38 -22 -16 -15 -54 -46 -84 -69 -30 -23 -62 -48 -71 -55 -26 -24 -111 -68
-128 -68 -15 0 -17 9 -14 58 3 55 28 247 39 305 l6 28 69 -6 c82 -7 306 -18
334 -16 33 2 86 -9 81 -17 -3 -5 -7 -57 -11 -117 -3 -61 -10 -155 -15 -210 -5
-55 -12 -179 -14 -275 -2 -96 -7 -182 -10 -191 -10 -24 -127 -29 -536 -22
-495 9 -531 9 -563 0 l-28 -8 6 170 c3 94 11 196 16 228 14 77 28 189 38 293
4 47 13 95 19 107 7 13 10 33 7 45 l-6 23 162 3 c90 1 165 5 167 7 3 2 9 2 13
-1 5 -3 55 -5 111 -5z m-498 -26 c-10 -42 -24 -52 -24 -17 0 31 6 44 22 44 5
0 5 -12 2 -27z m1728 -350 c2 -75 -1 -125 -6 -131 -4 -4 -182 -16 -371 -26
-55 -3 -116 -10 -135 -16 -64 -18 -62 -21 -56 103 3 61 5 115 5 118 1 3 34 5
74 4 39 0 104 2 142 5 39 4 132 8 208 8 l137 2 2 -67z m-1779 36 c7 -11 3 -46
-12 -115 -11 -55 -21 -110 -21 -123 l0 -23 -320 4 -321 3 -6 23 c-6 24 -1 68
18 179 l11 62 71 3 c40 2 184 3 321 3 215 0 250 -2 259 -16z m1827 17 c0 -3
-4 -8 -10 -11 -5 -3 -10 -1 -10 4 0 6 5 11 10 11 6 0 10 -2 10 -4z"/>
</g>
</svg>
