<?xml version="1.0" standalone="no"?>
<!DOCTYPE svg PUBLIC "-//W3C//DTD SVG 20010904//EN"
 "http://www.w3.org/TR/2001/REC-SVG-20010904/DTD/svg10.dtd">
<svg version="1.0" xmlns="http://www.w3.org/2000/svg"
 width="191.000000pt" height="113.000000pt" viewBox="0 0 191.000000 113.000000"
 preserveAspectRatio="xMidYMid meet">
<metadata>
Created by potrace 1.16, written by Peter Selinger 2001-2019
</metadata>
<g transform="translate(0.000000,113.000000) scale(0.100000,-0.100000)"
fill="#000000" stroke="none">
<path d="M1388 935 c-8 -6 -428 -17 -727 -18 -265 -2 -345 -5 -349 -14 -2 -7
-10 -13 -17 -13 -25 0 -33 -33 -40 -175 -3 -77 -8 -177 -10 -223 -3 -46 -6
-86 -9 -90 -4 -7 -10 -105 -7 -130 1 -9 13 -13 34 -12 67 4 66 5 66 -61 -1
-64 9 -86 34 -76 11 4 15 22 16 63 0 31 3 59 6 63 4 3 113 6 243 7 458 1 813
15 980 40 35 5 40 31 6 27 -10 -1 -59 -7 -108 -13 -49 -6 -90 -9 -93 -7 -7 8
36 78 79 129 42 49 46 77 7 42 -38 -34 -109 -134 -109 -153 0 -18 -11 -19
-152 -23 -264 -7 -696 -3 -705 5 -18 19 0 169 20 162 44 -14 180 -21 198 -9 4
2 76 6 160 9 222 7 259 -10 193 -90 -20 -24 -33 -49 -29 -55 9 -15 44 6 54 33
5 12 36 52 70 89 34 36 61 69 61 72 0 15 -29 3 -49 -20 -25 -28 -43 -19 -34
16 6 23 59 30 223 30 92 0 131 -4 138 -13 6 -7 12 -48 14 -91 2 -61 7 -81 20
-90 9 -5 20 -7 24 -3 10 10 36 324 31 369 -3 20 -3 39 0 41 4 5 7 110 4 165
-1 23 -2 23 -121 21 -66 -1 -121 -3 -122 -4z m187 -43 c11 -30 -14 -40 -103
-41 -48 -1 -127 -6 -177 -10 -103 -10 -115 -7 -115 24 0 21 6 24 63 29 69 7
146 10 254 12 55 1 73 -2 78 -14z m-446 -144 c-2 -79 -4 -168 -7 -198 l-4 -55
-96 1 c-53 0 -151 -3 -217 -7 -111 -7 -208 -1 -262 16 -28 9 -40 -17 -56 -128
l-11 -77 -41 3 c-37 2 -40 5 -40 32 1 17 4 47 7 68 6 33 4 38 -10 35 -17 -3
-54 -95 -45 -111 6 -10 -46 -29 -59 -21 -6 4 -7 24 -4 48 3 22 8 66 11 96 4
30 8 69 10 86 8 60 19 230 18 282 l-2 52 42 -1 c70 -2 691 12 702 16 6 2 23 4
38 4 l28 1 -2 -142z m435 63 c13 -20 -7 -39 -47 -45 -23 -3 -100 -8 -172 -11
-71 -4 -138 -8 -147 -11 -14 -4 -18 1 -18 20 0 14 3 27 8 27 24 4 61 7 182 14
74 4 137 9 139 11 8 8 50 4 55 -5z m-6 -108 l-3 -38 -179 -3 c-99 -1 -183 1
-187 5 -5 5 -6 17 -3 28 4 17 15 20 72 22 122 4 266 14 271 19 2 2 11 4 18 4
10 0 13 -11 11 -37z m-20 -81 c6 -1 12 -10 12 -20 0 -17 -14 -19 -182 -25
-100 -4 -183 -5 -186 -3 -2 3 -1 14 3 25 4 14 16 21 43 23 36 3 284 3 310 0z"/>
<path d="M1362 424 c-39 -49 -72 -95 -72 -101 0 -24 29 -13 44 15 8 15 35 56
61 90 74 98 47 95 -33 -4z"/>
<path d="M1283 473 c-32 -32 -55 -61 -97 -115 -24 -32 -26 -39 -12 -44 23 -9
46 3 46 23 0 10 10 29 21 43 74 92 103 157 42 93z"/>
</g>
</svg>
