<?xml version="1.0" standalone="no"?>
<!DOCTYPE svg PUBLIC "-//W3C//DTD SVG 20010904//EN"
 "http://www.w3.org/TR/2001/REC-SVG-20010904/DTD/svg10.dtd">
<svg version="1.0" xmlns="http://www.w3.org/2000/svg"
 width="240.000000pt" height="146.000000pt" viewBox="0 0 240.000000 146.000000"
 preserveAspectRatio="xMidYMid meet">
<metadata>
Created by potrace 1.16, written by Peter Selinger 2001-2019
</metadata>
<g transform="translate(0.000000,146.000000) scale(0.100000,-0.100000)"
fill="#000000" stroke="none">
<path d="M1039 1359 c-11 -34 -10 -42 2 -50 8 -5 9 -9 4 -9 -6 0 -15 -10 -20
-22 -7 -15 -34 -32 -80 -51 -109 -44 -111 -47 -53 -110 27 -28 56 -65 64 -80
l15 -29 -198 6 c-109 2 -213 9 -231 15 -19 6 -77 13 -130 16 -69 4 -101 10
-114 22 -17 15 -20 15 -35 0 -12 -12 -18 -40 -21 -102 -4 -79 -6 -85 -26 -85
-21 0 -21 -2 -23 -291 -2 -314 8 -362 31 -148 9 89 19 139 37 177 26 57 24 56
119 38 l65 -12 -40 -27 c-85 -57 -152 -113 -144 -122 6 -6 134 81 188 127 l33
29 202 -2 c110 -1 212 -5 226 -9 25 -7 25 -7 -12 -29 -21 -13 -38 -27 -38 -33
0 -5 -5 -6 -12 -2 -6 4 -8 3 -5 -3 3 -5 -7 -19 -23 -31 -18 -14 -30 -17 -32
-10 -3 7 -14 5 -32 -7 -26 -18 -27 -20 -10 -32 10 -7 25 -13 35 -13 9 0 33
-12 52 -28 20 -15 47 -34 59 -43 21 -15 22 -17 8 -87 -14 -76 -10 -94 18 -74
72 49 172 71 346 73 66 1 169 7 230 15 61 7 181 16 266 18 85 2 157 5 160 6 3
1 -8 6 -25 10 l-30 8 37 1 c33 1 37 -2 43 -30 6 -27 9 -29 21 -17 8 8 16 34
18 58 3 43 24 173 61 375 31 173 85 385 124 483 12 29 21 55 21 58 0 3 -33 2
-72 -2 -48 -4 -83 -2 -103 6 -28 12 -92 23 -125 21 -8 0 -91 4 -185 9 -93 6
-206 12 -250 14 -135 6 -329 28 -339 37 -6 5 -22 9 -38 9 -23 0 -29 -6 -39
-41z m231 -21 c74 -6 198 -13 275 -14 285 -4 454 -21 440 -44 -3 -5 -8 -162
-10 -348 -3 -236 -8 -356 -18 -398 -8 -32 -13 -76 -12 -96 l2 -37 -346 4
c-274 2 -360 6 -411 19 -36 9 -81 16 -100 16 -36 1 -125 21 -135 31 -7 7 37
133 54 153 8 9 19 16 27 16 19 0 29 21 14 30 -21 13 5 63 56 110 24 22 44 43
44 46 0 3 20 29 45 56 25 28 45 54 45 59 0 17 -19 9 -39 -18 -12 -16 -18 -20
-15 -10 12 34 -16 16 -36 -23 -11 -22 -22 -40 -24 -40 -11 0 -67 114 -62 127
3 8 0 45 -8 81 -15 73 -11 135 9 152 35 29 389 64 662 65 89 0 164 3 167 6 4
3 -38 9 -91 13 -87 5 -158 4 -428 -8 -38 -2 -110 -9 -160 -16 -147 -20 -165
-12 -151 65 6 32 8 33 39 24 18 -4 93 -14 167 -21z m872 -99 c-10 -24 -30 -87
-45 -139 -15 -52 -37 -125 -47 -161 -11 -36 -20 -74 -20 -84 0 -10 -3 -16 -6
-12 -4 3 -8 90 -10 192 -1 103 -6 200 -10 217 l-6 31 38 -6 c22 -3 57 -2 79 2
22 4 41 7 43 6 1 -1 -6 -22 -16 -46z m-1123 -52 c-11 -40 -7 -94 12 -145 18
-51 5 -48 -37 10 -21 29 -53 69 -71 88 -17 19 -31 35 -30 37 4 3 132 49 134
48 1 -1 -2 -18 -8 -38z m-499 -194 c9 -3 -7 -14 -40 -27 -30 -13 -83 -37 -117
-54 -34 -18 -65 -32 -68 -32 -6 0 4 109 11 122 4 7 189 0 214 -9z m489 -40
c11 -15 25 -34 31 -40 6 -7 19 -28 30 -46 l20 -34 -39 -60 c-53 -79 -69 -92
-116 -94 -137 -6 -607 20 -622 34 -8 9 29 71 74 125 25 29 43 56 39 59 -16 16
116 67 194 75 14 2 102 4 196 6 l171 4 22 -29z m-662 -131 c-19 -27 -50 -81
-70 -120 -19 -39 -37 -68 -41 -65 -3 4 -6 43 -6 89 0 73 2 82 18 78 9 -2 37
12 62 31 64 49 79 44 37 -13z m607 -249 c-23 -60 -41 -102 -50 -112 -2 -2 -19
10 -38 26 l-34 30 72 61 c39 34 72 61 73 62 1 0 -9 -30 -23 -67z m101 -163
c168 -30 270 -41 322 -36 32 4 72 2 88 -3 27 -8 23 -9 -30 -11 -259 -6 -390
-21 -477 -55 -22 -9 -23 11 -7 64 7 20 13 42 15 50 3 8 11 11 22 6 9 -3 40
-10 67 -15z m652 -26 c-3 -3 -12 -4 -19 -1 -8 3 -5 6 6 6 11 1 17 -2 13 -5z
m-149 -11 c-10 -2 -28 -2 -40 0 -13 2 -5 4 17 4 22 1 32 -1 23 -4z"/>
</g>
</svg>
