<?xml version="1.0" standalone="no"?>
<!DOCTYPE svg PUBLIC "-//W3C//DTD SVG 20010904//EN"
 "http://www.w3.org/TR/2001/REC-SVG-20010904/DTD/svg10.dtd">
<svg version="1.0" xmlns="http://www.w3.org/2000/svg"
 width="180.000000pt" height="147.000000pt" viewBox="0 0 180.000000 147.000000"
 preserveAspectRatio="xMidYMid meet">
<metadata>
Created by potrace 1.16, written by Peter Selinger 2001-2019
</metadata>
<g transform="translate(0.000000,147.000000) scale(0.100000,-0.100000)"
fill="#000000" stroke="none">
<path d="M788 1284 c-4 -4 -2 -14 5 -22 8 -11 11 -53 9 -145 -1 -72 -4 -133
-6 -135 -10 -9 -196 -5 -208 6 -7 6 -31 13 -53 16 -22 2 -54 8 -71 11 -19 4
-34 3 -38 -4 -4 -6 -23 -11 -42 -11 -19 0 -46 -8 -60 -17 -26 -16 -26 -18 -19
-97 4 -45 9 -132 10 -194 4 -114 9 -138 25 -113 6 10 10 0 15 -32 4 -26 10
-47 14 -47 4 0 20 14 37 31 57 61 112 79 250 86 l125 6 -7 -59 c-3 -33 -7 -61
-9 -64 -2 -3 -6 -64 -10 -137 -10 -194 1 -210 80 -118 25 30 53 55 60 55 7 0
22 11 33 24 18 24 21 25 93 14 64 -9 123 -8 327 6 33 2 42 24 36 86 -2 30 0
84 5 120 6 36 12 152 15 259 4 147 9 198 20 210 7 9 28 50 46 91 18 44 44 86
63 102 17 15 29 30 26 32 -5 5 -84 16 -129 18 -14 1 -92 0 -175 -1 -268 -4
-275 -3 -268 16 5 13 3 15 -13 8 -23 -11 -95 -11 -144 -1 -19 4 -38 4 -42 0z
m110 -53 c28 5 29 -5 2 -53 -16 -29 -38 -72 -50 -95 -12 -24 -22 -43 -24 -43
-6 0 3 190 9 200 4 6 15 6 31 0 13 -5 28 -9 32 -9z m132 -15 c0 -21 -102 -196
-114 -196 -10 0 6 137 20 165 14 31 21 35 55 35 22 0 39 -2 39 -4z m210 -12
c0 -3 -15 -28 -34 -57 -18 -28 -43 -68 -54 -87 l-22 -35 0 54 c0 79 45 146 91
134 11 -3 19 -7 19 -9z m86 -6 c-8 -13 -34 -63 -57 -111 -28 -59 -46 -84 -52
-78 -7 7 -7 23 1 49 7 22 12 48 12 59 0 11 14 39 30 61 22 31 37 42 56 42 26
0 26 -1 10 -22z m-200 -20 c-25 -32 -55 -88 -83 -158 -13 -33 -13 -30 -7 50 3
46 12 97 20 112 12 24 21 28 56 28 l41 0 -27 -32z m254 5 c0 -38 -52 -186 -61
-172 -3 6 -2 29 2 50 5 22 8 52 7 67 -2 27 27 82 43 82 5 0 9 -12 9 -27z m71
-43 c-36 -70 -36 -71 -39 -36 -5 52 21 106 51 106 l25 0 -37 -70z m-456 -125
c-6 -54 -7 -55 -40 -55 -21 0 -35 6 -39 16 -9 24 -7 34 8 34 8 0 27 15 43 33
15 19 30 33 32 31 2 -2 0 -28 -4 -59z m299 -12 c-3 -32 -7 -60 -9 -61 -2 -2
-13 -1 -24 3 -16 5 -18 10 -11 23 5 9 16 34 24 55 8 20 18 37 21 37 3 0 3 -26
-1 -57z m-399 37 c-3 -5 -6 -25 -7 -45 -1 -27 -5 -35 -20 -35 -11 0 -18 7 -18
19 0 33 19 71 35 71 9 0 14 -4 10 -10z m300 -12 c-2 -46 -15 -68 -42 -68 l-26
0 21 23 c12 13 22 28 22 33 0 8 19 34 25 34 0 0 1 -10 0 -22z m-100 -40 c-1
-16 -9 -24 -26 -27 -23 -3 -23 -2 -6 16 9 11 17 25 17 32 0 7 4 10 8 7 5 -3 8
-15 7 -28z m281 -75 c-7 -73 -16 -228 -20 -333 0 -25 -5 -48 -9 -51 -5 -3 -9
-37 -10 -75 -2 -62 -4 -69 -22 -69 -19 0 -20 7 -20 90 1 50 5 140 9 200 5 61
8 138 7 173 -2 42 2 62 9 62 7 0 9 7 6 17 -7 16 28 63 47 63 6 0 7 -29 3 -77z
m-837 38 c11 -7 5 -13 -24 -25 -20 -9 -39 -16 -40 -16 -2 0 2 11 8 25 12 26
32 31 56 16z m-122 -20 c1 0 -11 -38 -28 -83 -16 -44 -30 -84 -31 -87 0 -3 -4
32 -8 79 -4 54 -3 87 4 92 8 5 54 5 63 -1z m365 -126 c-2 -71 -6 -133 -10
-137 -11 -11 -192 -16 -227 -7 -27 8 -103 17 -147 18 -10 1 -18 8 -18 17 0 10
-6 14 -15 10 -8 -3 -15 -1 -15 4 0 5 9 11 20 15 11 3 28 25 38 49 17 38 87
106 109 106 5 0 24 12 42 28 31 25 39 27 129 27 l97 0 -3 -130z m102 97 c7
-21 -2 -241 -10 -254 -3 -4 -16 -8 -30 -8 l-25 0 2 128 c1 70 7 133 12 140 14
18 45 15 51 -6z m104 -101 c5 -152 2 -161 -49 -161 l-40 0 6 103 c7 92 10 136
14 168 0 5 16 9 34 7 l32 -3 3 -114z m98 -18 c-2 -68 -5 -125 -7 -127 -2 -2
-14 -7 -26 -10 -22 -7 -22 -5 -25 116 -4 156 -4 155 33 150 l29 -4 -4 -125z
m98 28 c-5 -84 -7 -112 -13 -143 0 -5 -12 -8 -26 -8 -23 0 -31 12 -26 42 0 4
1 52 2 107 1 105 5 114 51 103 15 -4 17 -15 12 -101z m90 98 c14 -7 23 -16 20
-21 -3 -5 -7 -33 -9 -61 -1 -29 -6 -78 -10 -109 -7 -52 -10 -58 -31 -58 -19 0
-24 6 -25 28 -1 15 0 32 1 37 1 6 2 48 2 95 1 109 2 111 52 89z m-806 -263
c17 -4 32 -11 32 -14 -1 -12 -113 -81 -122 -76 -11 7 -10 62 2 84 10 19 25 20
88 6z m394 -49 c3 -6 2 -21 -3 -34 -5 -14 -9 -47 -9 -74 0 -47 -1 -49 -20 -37
-21 13 -22 23 -11 160 1 10 34 -3 43 -15z m112 -59 c-4 -46 -6 -95 -5 -110 1
-24 -3 -28 -24 -28 -33 0 -43 26 -46 126 l-2 79 34 6 c19 4 38 7 43 8 4 0 5
-36 0 -81z m100 76 c11 -4 14 -15 11 -37 -2 -18 -7 -63 -9 -100 -6 -78 -10
-87 -37 -87 -18 0 -19 8 -19 109 0 96 2 110 18 114 9 3 18 5 19 6 1 0 8 -2 17
-5z m192 -11 c-9 -30 -28 -156 -28 -189 0 -31 -1 -32 -56 -37 -31 -3 -59 -4
-63 -2 -4 3 -6 55 -5 117 l1 113 28 3 29 3 -7 -98 c-6 -101 1 -131 28 -120 12
4 16 24 16 86 1 118 7 133 54 140 5 0 6 -7 3 -16z m-431 -232 c3 -5 19 -13 36
-16 l31 -7 -29 -19 c-15 -10 -38 -26 -50 -35 -23 -16 -23 -16 -23 28 0 25 3
48 7 51 9 10 21 9 28 -2z"/>
</g>
</svg>
