<?xml version="1.0" standalone="no"?>
<!DOCTYPE svg PUBLIC "-//W3C//DTD SVG 20010904//EN"
 "http://www.w3.org/TR/2001/REC-SVG-20010904/DTD/svg10.dtd">
<svg version="1.0" xmlns="http://www.w3.org/2000/svg"
 width="237.000000pt" height="117.000000pt" viewBox="0 0 237.000000 117.000000"
 preserveAspectRatio="xMidYMid meet">
<metadata>
Created by potrace 1.16, written by Peter Selinger 2001-2019
</metadata>
<g transform="translate(0.000000,117.000000) scale(0.100000,-0.100000)"
fill="#000000" stroke="none">
<path d="M1320 1044 c0 -9 -13 -34 -29 -57 -67 -99 -129 -194 -145 -224 -19
-38 -32 -42 -41 -13 -3 11 -26 43 -49 72 -41 50 -59 86 -60 117 -1 24 -21 23
-57 -3 -19 -14 -56 -37 -82 -51 -53 -28 -57 -47 -11 -55 16 -3 45 -14 64 -25
l35 -20 -60 -6 c-65 -8 -322 -18 -557 -23 -102 -2 -151 -6 -162 -15 -20 -16
-21 -31 -3 -31 29 0 41 -50 42 -163 0 -62 3 -114 7 -117 3 -3 8 -43 10 -90 3
-71 6 -85 21 -88 13 -3 17 3 17 25 0 16 6 36 13 45 13 16 114 52 181 64 l38 7
-7 -112 c-6 -97 -5 -111 9 -111 12 0 16 10 16 34 0 19 7 42 16 51 9 9 27 46
40 83 12 37 29 70 36 73 7 4 40 12 73 19 33 6 78 16 100 21 22 5 60 12 85 15
l45 5 -63 -60 c-61 -58 -73 -85 -33 -74 10 2 48 -7 85 -22 75 -30 103 -27 112
13 10 50 80 211 106 246 14 18 16 16 44 -27 16 -25 40 -52 53 -59 14 -7 61
-50 105 -96 57 -59 85 -82 98 -79 13 4 23 -4 33 -24 9 -16 18 -29 21 -29 3 0
34 24 69 53 35 28 81 64 102 79 21 15 67 50 103 78 36 27 87 67 114 87 27 21
70 57 96 80 26 24 50 43 53 43 11 0 107 63 107 71 0 15 90 57 111 52 17 -5 20
-2 17 13 -2 10 -11 19 -21 19 -10 0 -21 5 -25 11 -8 11 -110 30 -212 39 -36 3
-105 15 -155 27 -122 29 -412 116 -446 134 -37 18 -59 18 -59 -2z m110 -64
c37 -13 47 -19 30 -20 -51 0 -100 13 -100 26 0 18 5 18 70 -6z m-83 -57 c-3
-10 -13 -109 -23 -220 -10 -112 -21 -203 -25 -203 -4 0 -13 7 -20 16 -11 13
-13 58 -13 190 1 200 9 234 56 234 23 0 28 -4 25 -17z m103 -10 c0 -10 -7 -52
-15 -93 -9 -41 -20 -111 -26 -155 -10 -86 -28 -205 -35 -244 -5 -21 -7 -22
-20 -10 -12 13 -13 38 -4 164 5 83 12 195 14 250 3 55 5 101 6 103 0 1 18 2
40 2 31 0 40 -4 40 -17z m197 -9 c18 -5 20 -10 12 -37 -5 -16 -11 -78 -14
-136 -2 -58 -8 -128 -12 -156 -4 -27 -7 -54 -7 -60 -1 -12 -65 -55 -84 -55 -8
0 -12 6 -9 14 3 8 8 81 11 162 4 82 9 178 12 214 5 57 4 63 -9 51 -18 -15 -24
-50 -32 -196 -6 -111 -10 -152 -21 -236 -5 -42 -9 -47 -40 -57 -32 -9 -34 -9
-34 13 0 12 5 47 10 76 6 30 15 108 20 174 5 66 14 149 21 184 l12 64 71 -7
c39 -3 81 -9 93 -12z m-668 -26 c5 -13 21 -34 36 -48 30 -27 91 -140 76 -140
-11 0 -61 58 -61 71 0 5 -29 27 -65 50 -36 22 -65 44 -65 47 0 7 50 40 63 41
4 1 11 -9 16 -21z m839 5 l34 -6 -9 -51 c-4 -28 -8 -85 -8 -126 0 -70 -2 -76
-25 -89 -14 -8 -27 -15 -30 -15 -6 -1 -1 233 6 257 5 17 -10 24 -20 9 -13 -21
-25 -148 -26 -263 0 -36 -1 -37 -62 -67 -8 -4 -2 283 8 337 l5 33 47 -6 c26
-4 62 -10 80 -13z m193 -43 c-17 -69 -21 -95 -17 -107 6 -14 -40 -50 -51 -40
-3 4 -5 39 -4 78 1 53 -1 70 -11 67 -19 -7 -31 -67 -25 -126 5 -44 3 -54 -13
-62 -11 -6 -21 -6 -24 -1 -6 9 2 177 9 201 7 22 142 12 136 -10z m123 -8 l40
-7 -35 -26 c-19 -14 -49 -34 -68 -43 -43 -23 -56 -11 -42 39 6 21 8 43 4 48
-4 6 7 7 28 3 19 -4 52 -10 73 -14z m-906 -145 l-13 -87 -29 36 c-32 40 -31
44 22 134 34 56 38 40 20 -83z m-233 44 c8 -16 26 -38 40 -49 14 -11 25 -26
25 -34 0 -7 -25 -40 -55 -73 -30 -33 -54 -63 -55 -67 0 -5 -22 -8 -49 -8 -27
0 -85 -7 -128 -15 -43 -8 -97 -15 -121 -15 -39 0 -43 2 -37 21 9 28 65 112 82
122 33 20 -3 28 -95 21 -134 -9 -135 -10 -126 -93 4 -41 2 -71 -3 -74 -6 -4
-46 -9 -91 -13 -66 -6 -83 -4 -96 9 -21 21 -20 73 3 123 16 35 27 44 67 59 94
33 200 57 309 70 61 8 133 19 160 25 28 5 68 12 90 13 22 2 46 4 52 5 7 1 19
-11 28 -27z m-570 -31 c-63 -20 -75 -19 -55 5 8 10 29 15 64 14 l51 0 -60 -19z
m-137 -40 c-26 -46 -38 -51 -38 -16 0 13 -3 31 -6 40 -5 13 1 16 30 16 l37 0
-23 -40z m1622 -24 c0 -4 -91 -74 -119 -91 -9 -5 -40 -27 -68 -47 -28 -21 -53
-38 -57 -38 -14 0 -4 39 12 44 9 3 64 35 122 71 106 66 110 68 110 61z m-1270
-32 c0 -3 -16 -37 -36 -76 -26 -48 -41 -67 -51 -63 -8 3 -19 5 -24 5 -5 0 -9
18 -9 39 0 22 -4 51 -10 65 -9 24 -8 25 43 29 29 2 60 4 70 5 9 1 17 -1 17 -4z
m391 -91 c-21 -43 -46 -99 -56 -124 l-19 -46 -35 20 c-20 11 -38 22 -40 24 -8
6 53 64 81 79 16 8 27 18 25 22 -2 7 71 102 79 102 1 0 -14 -35 -35 -77z m605
-57 c14 -15 4 -23 -142 -118 -6 -4 -19 1 -29 11 -16 18 -16 20 6 31 18 10 24
9 31 -4 8 -14 13 -15 24 -5 8 6 12 20 9 29 -4 13 5 25 37 43 24 14 44 25 46
26 2 1 10 -5 18 -13z m-1221 -46 c-22 -4 -65 -17 -95 -29 -30 -11 -55 -21 -56
-21 -1 0 1 11 3 25 5 25 28 30 148 32 l40 0 -40 -7z m131 -45 c-8 -32 -12 -40
-17 -28 -4 10 -4 23 0 28 6 10 7 16 10 35 0 6 5 10 9 10 5 0 4 -20 -2 -45z"/>
</g>
</svg>
