<?xml version="1.0" standalone="no"?>
<!DOCTYPE svg PUBLIC "-//W3C//DTD SVG 20010904//EN"
 "http://www.w3.org/TR/2001/REC-SVG-20010904/DTD/svg10.dtd">
<svg version="1.0" xmlns="http://www.w3.org/2000/svg"
 width="150.000000pt" height="146.000000pt" viewBox="0 0 150.000000 146.000000"
 preserveAspectRatio="xMidYMid meet">
<metadata>
Created by potrace 1.16, written by Peter Selinger 2001-2019
</metadata>
<g transform="translate(0.000000,146.000000) scale(0.100000,-0.100000)"
fill="#000000" stroke="none">
<path d="M420 1263 c-32 -9 -52 -23 -67 -46 -25 -36 -30 -82 -10 -90 7 -3 5
-6 -5 -6 -18 -1 -26 -21 -9 -21 13 0 24 -93 16 -129 -4 -17 -15 -32 -28 -36
-22 -7 -22 -8 -1 -12 19 -4 20 -9 14 -49 -4 -24 -7 -45 -8 -47 -8 -20 -11 -46
-15 -116 -3 -46 -9 -87 -14 -92 -6 -6 -6 -34 -2 -66 4 -31 6 -60 3 -65 -3 -4
0 -8 6 -8 6 0 9 -3 7 -7 -3 -5 -8 -58 -12 -120 l-7 -111 25 -17 c32 -20 117
-25 492 -26 251 -1 280 1 291 16 9 11 10 25 4 40 -5 13 -6 26 -3 29 3 3 10 92
14 198 8 200 26 439 34 447 3 2 21 4 40 4 19 0 35 4 35 9 0 4 -3 7 -7 7 -5 -1
-23 -1 -41 0 l-34 1 7 63 c4 34 9 75 11 92 8 72 7 136 -4 147 -8 8 -92 12
-259 15 -136 2 -288 5 -338 6 -51 2 -109 -3 -135 -10z m620 -49 c0 -5 -15 -24
-32 -41 l-33 -31 -128 8 c-70 5 -131 11 -135 14 -8 5 -151 17 -227 20 -20 1
-31 7 -33 18 -3 16 13 18 185 20 330 5 403 4 403 -8z m70 2 c0 -7 -3 -28 -6
-45 -6 -28 -10 -31 -45 -31 -22 0 -39 4 -39 8 0 5 17 25 37 45 39 39 53 45 53
23z m-733 -68 c-3 -7 -5 -2 -5 12 0 14 2 19 5 13 2 -7 2 -19 0 -25z m368 -28
c50 -6 118 -12 153 -13 l62 -2 -24 -35 -23 -35 -109 6 c-60 4 -145 12 -189 19
-72 10 -82 15 -97 40 -9 16 -14 30 -12 33 7 6 134 -1 239 -13z m-276 -17 c24
-30 25 -28 -11 -37 -27 -6 -28 -5 -28 29 0 42 11 44 39 8z m605 1 c16 -6 22
-51 8 -69 -8 -12 -132 -19 -132 -7 0 4 11 24 25 45 26 37 57 47 99 31z m-536
-109 l32 -45 -84 0 -84 0 8 34 c11 50 17 56 59 56 33 0 41 -5 69 -45z m244 26
c59 -1 109 -5 112 -9 2 -4 -7 -22 -20 -40 l-25 -32 -102 0 c-56 0 -112 3 -124
6 -20 5 -63 62 -63 83 0 4 26 4 58 0 31 -4 105 -8 164 -8z m279 -21 c14 0 19
-7 19 -30 l0 -30 -90 0 c-49 0 -90 3 -90 8 0 4 8 17 18 29 16 21 75 35 110 26
8 -2 22 -3 33 -3z m-526 -80 c49 0 50 -1 67 -40 l17 -40 -24 6 c-13 3 -63 6
-112 7 l-88 2 3 32 c4 33 25 45 67 37 11 -2 43 -4 70 -4z m540 -32 c-4 -24 -7
-44 -8 -45 -8 -7 -247 -14 -247 -7 0 5 13 26 30 45 25 31 35 36 65 33 19 -1
56 1 83 6 86 14 84 15 77 -32z m-277 -12 c-28 -41 -34 -44 -67 -41 -20 2 -45
4 -57 4 -15 1 -25 12 -37 41 l-15 40 104 0 104 0 -32 -44z m-234 -50 c47 -3
64 -8 78 -26 27 -34 24 -54 -8 -46 -15 4 -72 7 -127 7 -111 1 -124 4 -106 25
8 10 8 14 0 14 -6 0 -11 9 -11 20 0 18 5 19 58 15 31 -3 84 -7 116 -9z m479
-15 c16 -1 18 -9 15 -56 l-3 -55 -75 -1 c-115 -2 -234 2 -239 7 -15 14 30 22
152 27 82 2 143 9 150 16 18 18 2 23 -39 12 -46 -12 -205 -12 -225 -1 -10 7
-7 14 14 34 26 24 32 25 130 22 56 -2 110 -4 120 -5z m-315 -31 l-23 -31 -17
21 c-26 32 -23 36 23 38 l40 3 -23 -31z m-51 -64 c3 -3 4 -8 2 -10 -6 -6 -81
-14 -196 -22 l-103 -7 0 28 0 28 145 -5 c80 -3 148 -8 152 -12z m-20 -42 c-3
-3 -12 -4 -19 -1 -8 3 -5 6 6 6 11 1 17 -2 13 -5z m393 -23 c0 -55 -2 -56
-113 -55 -144 1 -154 2 -171 20 -24 24 -19 34 17 35 l32 1 -33 8 c-66 16 -42
20 111 20 l157 0 0 -29z m-452 1 c39 -2 42 -4 32 -22 -9 -17 -21 -20 -73 -21
-34 0 -88 -4 -119 -8 l-58 -7 0 27 c0 21 5 28 23 31 24 3 128 3 195 0z m134
-12 c4 -30 1 -35 -24 -35 -32 -1 -32 -1 -16 25 13 21 37 27 40 10z m-148 -68
c13 -22 -15 -31 -109 -33 -72 -1 -100 2 -103 11 -3 7 2 16 9 21 18 11 196 12
203 1z m204 -23 c3 -14 -23 -16 -126 -10 -40 2 -18 26 29 31 55 7 93 -2 97
-21z m235 19 c16 -2 36 -43 25 -53 -2 -2 -53 1 -113 7 -81 8 -113 15 -122 27
-10 14 -4 17 55 21 60 5 103 4 155 -2z m-473 -59 c0 -34 -13 -39 -96 -39 -67
0 -84 3 -84 15 0 8 15 19 33 24 37 11 147 11 147 0z m276 -16 c29 -38 18 -44
-58 -37 -40 4 -94 7 -120 7 -49 1 -53 3 -42 31 9 25 201 23 220 -1z m217 4
c15 9 -2 -231 -19 -258 -4 -6 -13 -4 -25 7 -26 23 -24 34 6 34 14 0 25 4 25 9
0 12 -29 23 -41 15 -12 -7 -39 14 -39 32 0 9 10 11 34 7 19 -3 36 -1 40 5 11
17 -31 33 -68 26 -31 -5 -36 -3 -50 25 l-16 30 65 3 c89 4 79 23 -12 22 -65
-1 -72 1 -82 22 -13 29 -8 31 92 23 45 -4 85 -4 90 -2z m-549 -66 c3 -4 0 -16
-7 -25 -10 -14 -22 -16 -70 -10 -36 4 -57 11 -57 20 0 7 6 15 13 17 21 9 116
7 121 -2z m379 -23 c24 -28 21 -36 -10 -32 -16 2 -93 5 -172 8 -79 3 -146 7
-148 10 -3 2 4 13 15 24 18 18 31 19 158 15 124 -4 141 -7 157 -25z m-420 -53
c-25 -44 -77 -62 -89 -30 -11 29 3 41 49 41 28 0 43 -4 40 -11z m409 -11 c68
-8 93 -28 63 -51 -16 -13 -17 -14 -3 -10 10 3 25 -1 33 -10 31 -31 12 -38
-101 -38 -160 0 -393 10 -400 18 -21 21 20 27 192 27 101 0 184 3 184 8 0 4
-39 7 -87 7 -130 0 -244 8 -250 18 -3 4 3 17 14 29 17 19 26 20 158 15 77 -4
166 -9 197 -13z m-472 -79 c-12 -15 -30 -12 -30 6 0 5 10 9 21 9 18 0 19 -2 9
-15z"/>
<path d="M875 660 c-4 -6 22 -9 70 -9 41 1 75 5 75 10 0 12 -137 12 -145 -1z"/>
</g>
</svg>
