<?xml version="1.0" standalone="no"?>
<!DOCTYPE svg PUBLIC "-//W3C//DTD SVG 20010904//EN"
 "http://www.w3.org/TR/2001/REC-SVG-20010904/DTD/svg10.dtd">
<svg version="1.0" xmlns="http://www.w3.org/2000/svg"
 width="288.000000pt" height="126.000000pt" viewBox="0 0 288.000000 126.000000"
 preserveAspectRatio="xMidYMid meet">
<metadata>
Created by potrace 1.16, written by Peter Selinger 2001-2019
</metadata>
<g transform="translate(0.000000,126.000000) scale(0.100000,-0.100000)"
fill="#000000" stroke="none">
<path d="M2305 1089 c-179 -11 -247 -17 -253 -24 -3 -3 73 -3 170 1 l176 7 5
-149 c7 -174 4 -500 -3 -508 -13 -12 -83 -18 -198 -18 -67 1 -187 -5 -265 -13
-78 -8 -212 -21 -297 -29 -324 -32 -1009 -51 -1031 -29 -10 10 31 95 62 129
36 38 25 45 -61 41 -44 -2 -83 -7 -87 -10 -3 -4 -1 -26 5 -49 6 -24 13 -58 16
-75 5 -31 4 -33 -24 -33 -16 0 -51 5 -78 11 l-49 10 4 72 c2 40 8 113 14 163
6 50 9 121 8 157 -2 59 1 71 27 109 16 23 44 57 63 75 19 18 30 34 25 35 -5 0
-13 2 -19 3 -5 2 -17 3 -25 4 -8 1 17 15 55 30 68 28 75 29 274 30 113 1 208
4 213 7 5 3 22 2 39 -1 37 -8 29 -21 -46 -71 -57 -37 -72 -40 -122 -22 -34 12
-50 7 -38 -13 4 -6 10 -51 12 -98 l4 -87 -83 8 c-46 4 -96 12 -112 18 -16 5
-42 10 -58 10 -18 0 -39 10 -55 26 -33 33 -44 22 -55 -53 -8 -61 -2 -129 12
-138 5 -3 17 -1 27 4 55 31 176 71 218 71 17 0 38 7 48 14 26 20 56 9 52 -17
-2 -12 -9 -61 -16 -109 -12 -85 -13 -88 -51 -113 -47 -31 -42 -47 28 -94 57
-37 79 -40 71 -9 -6 20 60 177 74 178 3 0 3 -14 1 -31 -8 -54 20 -29 35 31 13
56 18 61 119 144 l35 29 26 -19 c15 -11 31 -28 37 -38 6 -10 37 -44 69 -76 42
-42 57 -64 57 -85 0 -20 4 -26 15 -21 9 3 15 0 15 -10 0 -12 6 -14 33 -8 17 4
44 7 60 6 15 0 27 3 27 7 0 5 9 11 20 14 13 3 20 0 20 -9 0 -21 28 -17 40 7 9
16 14 18 26 8 10 -8 17 -9 28 0 7 6 21 9 30 5 10 -4 16 -1 16 9 0 11 13 18 38
23 20 3 62 13 92 21 30 8 82 20 115 28 33 7 73 18 90 25 85 33 302 83 338 78
28 -4 29 23 2 37 -12 6 -19 18 -17 28 4 21 -7 22 -22 1 -10 -13 -17 -13 -41
-4 -17 7 -59 18 -94 26 -35 7 -81 22 -102 33 -20 11 -55 23 -76 27 -42 8 -163
48 -293 99 -47 18 -117 42 -155 54 -39 11 -82 29 -95 38 l-25 18 60 6 c33 3
-140 7 -385 8 -530 2 -676 8 -708 27 -30 20 -39 12 -47 -39 -10 -64 -15 -77
-31 -77 -21 0 -17 -31 5 -37 16 -4 19 -19 26 -106 9 -119 9 -101 0 -288 -8
-139 -9 -145 -29 -145 -18 1 -22 -7 -28 -49 -11 -89 -9 -203 5 -208 6 -2 56
18 109 45 53 26 101 48 106 48 10 0 7 -57 -7 -105 -10 -38 -7 -45 25 -45 28 0
52 36 35 53 -28 28 -4 127 30 127 5 0 9 5 9 11 0 6 -9 9 -20 6 -11 -3 -20 -1
-20 4 0 5 95 9 218 10 119 0 235 2 257 4 106 12 304 25 373 25 42 0 104 4 137
10 33 5 83 11 110 14 28 3 118 13 200 22 91 10 219 16 325 15 174 -1 175 -1
195 -27 27 -34 55 -24 55 20 -1 95 10 350 16 369 17 58 101 237 132 281 40 57
33 75 -21 57 -38 -13 -97 -6 -132 14 -14 8 -55 9 -140 4z m-1844 -84 c-54 -31
-59 -31 -53 0 4 22 9 25 51 25 l46 0 -44 -25z m954 5 c16 -18 16 -20 2 -20
-10 0 -17 -6 -17 -14 0 -16 -187 -206 -204 -206 -6 0 -22 16 -35 35 -13 19
-27 35 -30 35 -14 0 -2 154 14 180 4 6 58 10 129 10 110 0 125 -2 141 -20z
m1110 -66 c-25 -47 -45 -92 -45 -99 0 -7 -6 -18 -14 -25 -12 -9 -15 -8 -14 7
1 10 -2 60 -6 111 l-8 92 67 0 66 0 -46 -86z m-1430 -24 c0 -47 -1 -49 -19
-36 -36 23 -42 43 -22 65 30 33 41 25 41 -29z m361 -67 c-7 -131 -29 -309 -39
-319 -3 -3 -11 -3 -17 1 -9 5 -10 27 -5 74 4 36 9 77 10 91 20 204 32 270 53
270 2 0 2 -53 -2 -117z m65 22 c-1 -49 -4 -92 -5 -95 -2 -3 -6 -45 -10 -95 -9
-123 -25 -185 -48 -185 -9 0 -16 6 -13 13 2 6 6 44 9 82 6 69 23 237 31 305 2
19 4 43 5 53 0 12 6 17 16 15 15 -3 17 -16 15 -93z m74 36 c-3 -14 -9 -52 -15
-85 -5 -32 -13 -109 -16 -170 -7 -117 -15 -146 -40 -146 -13 0 -14 9 -9 53 3
28 7 79 10 112 2 33 9 105 14 160 6 55 11 103 11 106 0 3 11 4 25 2 20 -4 23
-10 20 -32z m-1125 19 c0 -12 -53 -89 -61 -90 -4 0 -9 9 -12 21 -7 26 11 67
32 72 29 8 41 7 41 -3z m936 -72 c-4 -40 -9 -86 -11 -103 -2 -16 -7 -65 -11
-107 -4 -43 -10 -78 -14 -78 -20 0 -32 32 -26 66 4 19 11 84 16 144 9 108 20
150 41 150 8 0 9 -24 5 -72z m247 0 c-2 -29 -8 -84 -13 -123 -5 -38 -12 -100
-16 -137 -5 -55 -10 -67 -26 -71 -19 -5 -20 -2 -15 106 3 62 11 144 17 182 19
118 18 117 39 106 15 -8 17 -20 14 -63z m-686 37 c14 -4 -16 -74 -40 -93 -12
-10 -15 -6 -21 25 -3 21 -9 47 -12 59 -5 19 -2 20 28 17 18 -3 38 -6 45 -8z
m736 -41 c-2 -21 -7 -79 -13 -129 -21 -174 -24 -190 -39 -180 -6 3 -8 11 -6
18 3 7 6 41 9 77 7 110 17 214 22 238 8 39 29 19 27 -24z m-609 -55 c-11 -4
-35 -8 -54 -8 -48 -2 -68 -15 -51 -34 9 -11 9 -17 1 -22 -7 -4 -10 -32 -9 -69
1 -34 -2 -69 -7 -77 -12 -19 -75 -71 -81 -66 -7 8 19 181 29 194 5 7 5 14 -1
17 -6 4 4 26 25 53 19 25 42 59 50 75 l15 29 51 -42 c44 -37 48 -44 32 -50z
m697 -28 c-2 -67 0 -92 8 -87 6 4 11 36 11 74 0 71 10 99 30 87 8 -5 10 -26 5
-69 -17 -172 -45 -268 -45 -156 0 61 -16 60 -18 -1 -2 -42 -19 -66 -35 -50 -7
7 4 141 19 249 5 34 3 42 -10 42 -13 0 -16 -12 -17 -62 -1 -100 -22 -241 -37
-246 -9 -3 -11 3 -8 20 3 12 10 82 16 153 6 72 13 135 15 141 2 8 15 9 37 5
l33 -7 -4 -93z m-453 -20 c-4 -63 -11 -117 -14 -120 -3 -3 -13 5 -23 17 -17
23 -16 65 2 164 3 15 38 62 42 56 1 -2 -2 -54 -7 -117z m571 70 c10 -6 10 -10
1 -16 -7 -4 -10 -29 -9 -64 1 -32 -1 -63 -5 -69 -3 -6 -7 -27 -8 -46 -1 -24
-7 -36 -20 -39 -10 -3 -20 -2 -22 2 -4 5 6 108 19 196 1 11 3 26 4 33 1 14 20
16 40 3z m44 -93 c-6 -109 -10 -128 -29 -128 -13 0 -15 7 -9 38 4 20 9 64 10
97 2 33 4 63 4 68 1 4 7 7 15 7 11 0 13 -16 9 -82z m-688 -5 l-6 -26 -25 24
-24 23 27 29 28 29 3 -27 c2 -15 1 -39 -3 -52z m764 66 c24 -8 30 -16 26 -29
-3 -10 -7 -41 -8 -69 -2 -40 -5 -51 -17 -48 -16 3 -17 6 -6 85 4 30 3 52 -3
52 -5 0 -15 -38 -22 -85 -6 -46 -16 -82 -21 -79 -9 6 -9 147 0 172 5 15 11 15
51 1z m-869 -49 c0 -3 -31 -31 -70 -63 -38 -31 -70 -53 -70 -48 0 6 5 13 10
16 6 3 20 27 31 53 12 26 31 57 42 70 l21 23 18 -23 c10 -13 18 -25 18 -28z
m-504 -1 c17 -5 38 -9 47 -9 47 0 -8 -27 -135 -67 -16 -5 -18 2 -18 50 l0 55
38 -10 c20 -5 51 -14 68 -19z m394 11 c0 -4 -8 -22 -17 -41 l-18 -34 -3 28
c-2 16 -1 34 1 41 5 13 37 18 37 6z m1053 -42 c-1 -29 -2 -55 -3 -58 0 -3 -7
4 -15 14 -15 20 -20 77 -8 89 19 20 28 3 26 -45z m53 -3 c0 -22 -5 -35 -13
-35 -7 0 -13 6 -14 13 0 6 -2 22 -3 35 -2 15 3 22 14 22 12 0 16 -9 16 -35z
m54 6 c0 -11 -4 -22 -9 -25 -11 -7 -23 22 -15 35 9 16 24 10 24 -10z m65 -1
c4 -6 -5 -10 -19 -10 -14 0 -26 5 -26 10 0 6 9 10 19 10 11 0 23 -4 26 -10z
m-1360 -255 l-37 -67 -29 28 c-28 26 -29 30 -13 41 10 7 26 13 36 13 10 0 18
6 18 13 0 12 51 49 59 42 2 -2 -13 -34 -34 -70z m-295 -22 c-17 -26 -30 -53
-30 -60 0 -7 -4 -13 -9 -13 -8 0 -23 91 -15 99 2 2 21 7 41 11 21 4 39 8 40 9
2 0 -11 -20 -27 -46z m-157 -136 c108 -15 105 -33 -15 -80 -51 -20 -94 -34
-96 -33 -5 6 -9 126 -3 131 3 3 12 3 20 -1 9 -3 51 -11 94 -17z"/>
<path d="M1673 1060 c-50 -3 -94 -8 -98 -11 -3 -4 34 -5 82 -3 48 2 153 5 232
8 79 3 146 8 150 11 6 7 -204 4 -366 -5z"/>
</g>
</svg>
