<?xml version="1.0" standalone="no"?>
<!DOCTYPE svg PUBLIC "-//W3C//DTD SVG 20010904//EN"
 "http://www.w3.org/TR/2001/REC-SVG-20010904/DTD/svg10.dtd">
<svg version="1.0" xmlns="http://www.w3.org/2000/svg"
 width="242.000000pt" height="114.000000pt" viewBox="0 0 242.000000 114.000000"
 preserveAspectRatio="xMidYMid meet">
<metadata>
Created by potrace 1.16, written by Peter Selinger 2001-2019
</metadata>
<g transform="translate(0.000000,114.000000) scale(0.100000,-0.100000)"
fill="#000000" stroke="none">
<path d="M973 993 c-13 -8 -23 -23 -23 -33 0 -14 -12 -19 -57 -25 -109 -14
-278 -21 -424 -18 -134 3 -148 2 -170 -17 -21 -17 -22 -21 -9 -30 18 -12 54
-13 64 -2 4 4 85 8 179 9 95 0 225 4 291 8 l119 7 -6 -24 c-5 -20 -20 -200
-22 -253 0 -15 -9 -22 -40 -28 -105 -20 -237 -30 -415 -31 -170 -2 -195 -4
-198 -18 -5 -25 29 -30 175 -30 l133 1 0 -78 0 -79 -127 -4 c-73 -2 -137 -9
-150 -16 -31 -17 -35 -6 -42 109 -8 131 -27 127 -24 -4 1 -100 18 -151 46
-142 6 2 106 6 222 9 116 3 257 10 314 16 93 11 106 10 116 -4 15 -20 41 -21
52 -2 4 7 53 28 108 46 55 18 104 35 110 38 16 10 198 72 226 78 27 5 27 5 26
-58 -1 -112 3 -173 12 -186 11 -18 218 -20 251 -2 13 7 86 15 171 19 94 5 153
12 163 20 8 7 31 11 50 10 38 -4 59 7 34 16 -9 4 -14 14 -11 23 3 13 -18 33
-79 74 -46 30 -105 68 -133 82 -61 33 -121 87 -130 118 -4 13 -12 25 -16 29
-5 3 19 26 53 52 34 26 88 72 120 102 32 30 75 66 97 79 21 14 56 41 77 61 38
35 39 36 19 51 -16 12 -37 14 -105 9 -109 -9 -327 -9 -405 -1 -33 3 -66 2 -74
-3 -10 -7 -19 -5 -27 6 -23 32 -44 -25 -55 -152 -5 -64 -9 -124 -8 -133 5 -54
-6 -54 -80 -1 -31 22 -79 55 -106 72 -63 40 -189 159 -221 210 -27 41 -38 44
-71 20z m256 -264 c31 -18 81 -52 111 -74 30 -22 67 -49 83 -58 28 -18 36 -50
15 -64 -7 -4 -15 -8 -18 -8 -5 0 -46 -15 -95 -35 -53 -21 -151 -48 -158 -43
-5 3 -6 15 -4 27 3 11 0 55 -7 96 -8 54 -16 75 -26 75 -12 0 -15 -16 -15 -80
1 -44 3 -95 5 -114 5 -34 5 -34 -68 -63 -40 -17 -76 -28 -79 -25 -11 11 -2
320 12 434 8 65 15 123 15 129 0 6 39 -28 86 -76 48 -48 112 -102 143 -121z
m439 196 c2 -2 -1 -54 -7 -117 -15 -168 -21 -278 -22 -425 l-1 -131 -65 -4
c-87 -4 -92 4 -82 142 4 58 10 186 13 285 3 99 8 198 11 220 l6 41 72 -4 c40
-2 73 -6 75 -7z m408 -4 c-10 -11 -24 -17 -32 -14 -8 3 -17 -2 -20 -11 -3 -9
-11 -13 -17 -9 -5 3 -7 1 -4 -4 15 -24 -258 -253 -300 -253 -6 0 -9 34 -7 88
1 48 3 114 3 148 l1 61 91 1 c50 1 93 2 94 4 2 2 50 4 106 6 103 3 103 3 85
-17z m-276 -433 c25 -20 81 -55 125 -78 95 -51 122 -70 128 -91 4 -13 -2 -15
-33 -12 -21 3 -41 0 -45 -6 -3 -6 -27 -11 -53 -11 -46 0 -134 -12 -198 -25
-28 -6 -33 -4 -39 16 -7 21 -7 71 -1 154 2 17 3 57 4 89 l2 60 33 -30 c17 -17
52 -46 77 -66z m-886 31 c3 -17 6 -58 6 -90 l0 -59 -42 -1 c-24 0 -52 -2 -63
-5 -11 -2 -61 -7 -111 -10 l-92 -6 -4 83 c-2 46 -4 85 -3 86 1 1 44 5 96 8 52
3 108 9 124 14 61 19 82 14 89 -20z m246 -93 c0 -2 -8 -10 -17 -17 -16 -13
-17 -12 -4 4 13 16 21 21 21 13z"/>
</g>
</svg>
