<?xml version="1.0" standalone="no"?>
<!DOCTYPE svg PUBLIC "-//W3C//DTD SVG 20010904//EN"
 "http://www.w3.org/TR/2001/REC-SVG-20010904/DTD/svg10.dtd">
<svg version="1.0" xmlns="http://www.w3.org/2000/svg"
 width="190.000000pt" height="100.000000pt" viewBox="0 0 190.000000 100.000000"
 preserveAspectRatio="xMidYMid meet">
<metadata>
Created by potrace 1.16, written by Peter Selinger 2001-2019
</metadata>
<g transform="translate(0.000000,100.000000) scale(0.100000,-0.100000)"
fill="#000000" stroke="none">
<path d="M1544 865 c-44 -7 -164 -15 -266 -19 -102 -3 -228 -11 -279 -17 -149
-19 -617 -15 -676 6 -6 2 -17 -2 -23 -9 -18 -22 -38 -143 -44 -259 -2 -60 -12
-139 -22 -175 -23 -94 -12 -122 51 -123 25 -1 50 -3 55 -4 6 -1 26 -3 46 -4
l37 -1 -7 -57 c-12 -106 -12 -108 3 -108 8 0 15 7 16 15 1 8 5 40 9 71 11 85
13 87 151 93 66 3 183 8 260 12 l139 7 -32 -43 c-29 -40 -33 -60 -12 -60 4 0
24 23 44 50 21 28 44 50 53 49 10 0 32 -19 48 -42 17 -23 41 -43 53 -45 27 -4
28 14 2 48 -11 14 -20 28 -20 32 0 18 312 24 401 8 82 -15 102 -8 93 33 -9 44
-8 111 6 257 29 314 29 301 7 299 -7 -1 -48 -7 -93 -14z m62 -62 c-3 -21 -8
-58 -11 -83 -3 -25 -8 -56 -10 -70 -14 -83 -21 -254 -11 -290 l7 -25 -240 -1
c-186 -1 -241 1 -245 11 -4 10 30 57 89 123 1 2 28 -9 60 -23 32 -14 64 -25
71 -25 26 0 14 29 -18 46 -18 9 -45 28 -60 42 -27 24 -28 30 -28 118 0 51 5
115 12 143 l11 51 86 1 c47 1 118 5 156 9 39 4 85 8 103 8 33 2 34 2 28 -35z
m-466 -5 c0 -11 -107 -120 -215 -220 -40 -38 -105 -108 -105 -115 0 -1 11 -3
24 -3 15 0 37 16 62 45 l40 44 13 -46 c8 -25 29 -74 48 -109 18 -35 28 -64 22
-64 -27 0 -254 -10 -369 -15 -69 -4 -127 -7 -130 -7 -3 0 -20 0 -39 1 -33 1
-34 2 -28 38 4 21 13 43 22 49 18 14 58 123 51 141 -8 21 -53 15 -76 -9 -12
-13 -21 -37 -22 -62 -1 -23 -3 -50 -4 -61 -1 -11 -2 -37 -3 -57 l-1 -38 -57 0
c-102 0 -120 16 -94 82 19 49 31 128 37 243 4 66 10 127 14 135 7 13 22 15 92
8 125 -11 598 10 617 28 11 10 101 3 101 -8z m35 -25 c-22 -86 -27 -122 -29
-205 -1 -75 -4 -87 -31 -125 -16 -24 -36 -42 -44 -40 -17 3 -68 123 -72 170
-3 30 4 41 68 103 38 38 78 81 88 97 9 15 20 27 22 27 3 0 2 -12 -2 -27z
m-695 -300 c-11 -17 -11 -17 -6 0 3 10 6 24 7 30 0 9 2 9 5 0 3 -7 0 -20 -6
-30z"/>
</g>
</svg>
