<?xml version="1.0" standalone="no"?>
<!DOCTYPE svg PUBLIC "-//W3C//DTD SVG 20010904//EN"
 "http://www.w3.org/TR/2001/REC-SVG-20010904/DTD/svg10.dtd">
<svg version="1.0" xmlns="http://www.w3.org/2000/svg"
 width="240.000000pt" height="184.000000pt" viewBox="0 0 240.000000 184.000000"
 preserveAspectRatio="xMidYMid meet">
<metadata>
Created by potrace 1.16, written by Peter Selinger 2001-2019
</metadata>
<g transform="translate(0.000000,184.000000) scale(0.100000,-0.100000)"
fill="#000000" stroke="none">
<path d="M808 1779 c-9 -6 -10 -11 -2 -19 11 -11 91 -36 153 -48 l34 -7 -47
-23 c-26 -13 -67 -39 -91 -57 -51 -39 -55 -35 -55 58 0 74 -11 97 -34 78 -28
-24 -19 -227 11 -238 8 -3 28 8 45 26 17 17 33 31 37 31 27 -2 102 -196 125
-323 8 -45 18 -113 21 -151 l7 -69 -34 7 c-18 4 -46 10 -62 13 -41 7 -136 28
-240 54 -60 14 -97 29 -113 45 -13 13 -31 24 -39 24 -9 0 -29 14 -46 30 -34
34 -51 31 -46 -8 2 -20 -1 -26 -12 -24 -14 3 -82 5 -122 3 -17 -1 -27 -31 -10
-31 18 0 37 -72 42 -160 3 -52 4 -160 2 -240 -7 -262 -7 -290 3 -292 15 -4 24
101 29 316 4 168 7 191 24 210 11 11 26 30 35 41 69 89 84 98 125 76 19 -10
293 -69 360 -78 23 -3 45 -10 48 -14 3 -5 17 -9 31 -9 l26 0 -7 -84 c-3 -46
-9 -91 -12 -100 -3 -8 -31 -22 -62 -31 -67 -20 -162 -56 -252 -97 -110 -51
-328 -207 -301 -216 7 -2 22 5 34 16 12 11 42 30 67 42 25 13 58 32 73 42 71
50 223 119 340 154 44 13 82 22 84 20 7 -6 -36 -180 -58 -236 -44 -111 -69
-159 -89 -170 -34 -18 -23 -29 55 -52 70 -20 74 -23 59 -39 -9 -10 -32 -25
-51 -34 -19 -9 -51 -28 -70 -41 -20 -13 -39 -24 -43 -24 -4 0 -4 19 1 43 18
91 8 175 -16 136 -14 -21 -42 -254 -33 -264 6 -6 21 3 44 27 19 21 37 38 40
38 3 0 24 12 47 28 153 99 139 95 342 98 99 2 191 5 205 7 14 2 52 8 85 11 69
9 122 23 130 36 3 5 -10 9 -28 8 -46 -2 -94 29 -165 108 -47 51 -63 76 -75
122 -8 31 -23 84 -33 117 -10 33 -18 78 -18 100 -1 34 2 40 19 38 11 -1 56 -3
100 -4 58 -1 103 -9 167 -30 48 -16 93 -29 101 -29 8 0 30 -11 49 -24 20 -13
52 -29 72 -36 23 -7 45 -26 63 -52 48 -70 105 -128 126 -128 11 0 26 -8 34
-18 7 -9 12 -12 11 -7 -1 6 4 28 10 50 7 22 15 101 18 175 4 100 11 145 24
175 56 122 92 195 117 237 15 26 25 50 21 53 -4 4 -30 2 -58 -4 -28 -6 -76
-11 -106 -11 -56 0 -94 -12 -94 -30 0 -6 6 -10 14 -10 7 0 16 -12 19 -27 15
-71 39 -199 38 -208 -4 -141 -18 -325 -26 -333 -10 -11 -49 26 -95 88 -31 42
-62 73 -76 76 -13 3 -24 10 -24 16 0 5 -6 8 -12 6 -7 -1 -35 8 -62 20 -27 12
-54 22 -60 22 -6 0 -45 12 -86 26 -46 15 -116 29 -180 35 -120 10 -153 16
-146 27 3 5 8 31 11 58 4 27 10 52 14 56 3 4 47 12 96 18 160 18 151 17 250
45 28 8 82 22 120 30 39 9 116 36 172 61 56 24 107 44 112 44 6 0 11 7 11 15
0 23 -25 18 -121 -24 -49 -22 -133 -49 -187 -61 -53 -11 -119 -28 -147 -36
-74 -23 -298 -45 -307 -31 -4 6 -5 14 -2 19 3 4 9 43 14 87 12 104 54 227 130
382 62 127 92 170 124 182 44 17 -9 22 -232 23 -235 1 -288 6 -449 44 -40 9
-78 13 -85 9z m689 -126 c-73 -101 -158 -275 -196 -403 -18 -59 -38 -202 -32
-224 2 -10 -193 -1 -209 9 -6 3 -10 39 -10 79 0 87 -25 248 -46 294 -9 18 -22
54 -30 81 -7 26 -27 66 -43 88 l-30 41 37 24 c70 46 90 49 248 45 82 -3 183
-1 224 3 137 13 127 17 87 -37z m-1059 -563 c-16 -27 -40 -58 -52 -69 l-23
-21 -1 40 c-1 23 -6 50 -12 60 -22 40 -10 47 70 42 l48 -4 -30 -48z m1750 32
c-19 -49 -103 -222 -108 -222 -3 0 -6 19 -8 42 -2 24 -10 67 -18 97 -18 60
-13 70 41 72 17 0 41 5 55 9 34 11 42 11 38 2z m-991 -145 c28 -1 55 -5 58 -9
4 -4 4 -33 0 -65 l-7 -59 -86 -13 c-48 -6 -96 -14 -108 -17 -20 -5 -20 -3 -13
63 14 117 14 116 62 109 23 -3 65 -7 94 -9z m76 -285 c16 -59 32 -126 37 -149
5 -24 16 -57 25 -73 21 -42 89 -108 137 -135 27 -15 36 -25 28 -30 -25 -16
-494 -6 -521 11 -4 2 -24 6 -45 10 -22 3 -43 9 -47 13 -4 4 10 47 33 94 22 48
45 108 51 134 7 26 15 57 20 68 5 11 13 40 18 64 13 60 29 73 108 87 133 24
124 29 156 -94z"/>
</g>
</svg>
