<?xml version="1.0" standalone="no"?>
<!DOCTYPE svg PUBLIC "-//W3C//DTD SVG 20010904//EN"
 "http://www.w3.org/TR/2001/REC-SVG-20010904/DTD/svg10.dtd">
<svg version="1.0" xmlns="http://www.w3.org/2000/svg"
 width="218.000000pt" height="134.000000pt" viewBox="0 0 218.000000 134.000000"
 preserveAspectRatio="xMidYMid meet">
<metadata>
Created by potrace 1.16, written by Peter Selinger 2001-2019
</metadata>
<g transform="translate(0.000000,134.000000) scale(0.100000,-0.100000)"
fill="#000000" stroke="none">
<path d="M475 1261 c-3 -6 -15 -11 -27 -11 -17 0 -20 -4 -15 -29 6 -29 5 -30
-38 -37 -25 -3 -60 -3 -79 0 -50 10 -82 -6 -90 -45 -3 -18 -2 -35 3 -39 6 -3
15 -57 21 -119 6 -63 13 -117 15 -121 2 -4 6 -90 9 -192 5 -157 3 -188 -9
-198 -12 -10 -15 -41 -15 -155 0 -79 3 -150 6 -159 8 -21 30 -20 46 3 7 10 27
25 43 33 34 17 130 34 122 21 -2 -4 -8 -32 -11 -62 -4 -30 -9 -64 -12 -76 -6
-24 18 -51 36 -40 5 3 10 20 10 37 0 17 5 59 12 93 11 61 12 63 47 69 109 20
156 25 256 31 61 3 121 8 135 10 43 8 259 24 415 32 152 7 166 7 314 2 66 -2
86 1 95 13 12 16 66 30 66 17 0 -14 38 -10 43 4 2 6 -6 24 -19 39 -19 24 -21
33 -13 60 5 18 9 58 9 88 0 57 44 252 84 375 34 102 72 176 112 219 19 20 32
41 29 46 -3 5 -114 7 -252 5 -156 -2 -265 0 -297 7 -51 11 -129 14 -306 9
-127 -3 -334 6 -446 19 -51 6 -102 11 -115 12 -52 1 -145 22 -161 35 -11 10
-18 11 -23 4z m148 -91 c38 -4 71 -10 73 -13 2 -2 -31 -14 -73 -27 -43 -13
-82 -24 -88 -27 -6 -2 -11 18 -13 43 -3 41 -1 46 15 40 10 -4 48 -11 86 -16z
m558 -39 c13 -1 16 -12 15 -53 0 -29 -5 -52 -11 -52 -5 1 -63 5 -128 8 -140 8
-221 14 -264 21 -39 7 -53 -12 -19 -25 14 -5 116 -12 226 -16 110 -4 200 -11
200 -16 0 -4 -8 -8 -17 -9 -10 -1 -32 -2 -49 -3 -33 -2 -175 8 -286 19 -57 6
-68 5 -68 -8 0 -8 10 -17 23 -21 37 -9 184 -19 297 -20 86 -1 105 -4 105 -16
0 -13 -24 -15 -146 -17 -80 -1 -166 3 -189 8 -24 6 -50 7 -58 4 -14 -5 -13 -8
2 -23 15 -15 39 -17 206 -14 l190 2 0 -25 c0 -29 5 -28 -237 -29 -93 -1 -154
-5 -155 -11 -2 -6 63 -11 177 -12 99 -1 190 -3 201 -3 25 0 28 -31 4 -41 -8
-3 -95 -4 -192 -2 -157 4 -178 2 -178 -11 0 -18 -7 -17 227 -20 l151 -1 5 -28
c2 -19 -1 -31 -10 -34 -14 -6 -245 4 -313 13 -39 5 -71 -9 -55 -25 10 -9 156
-22 255 -21 129 1 137 -2 125 -39 -6 -19 -15 -21 -143 -23 -114 -3 -137 -6
-137 -18 0 -13 21 -15 138 -12 l137 3 0 -25 c0 -19 -7 -27 -24 -32 -27 -6
-204 1 -251 10 -30 6 -65 -7 -53 -19 16 -16 92 -25 203 -24 98 1 121 -1 123
-13 2 -13 -23 -16 -158 -20 -131 -4 -165 -9 -178 -22 -15 -15 -4 -16 148 -15
206 2 192 3 188 -23 -3 -23 -5 -23 -133 -21 -219 2 -525 15 -525 22 0 10 43
93 64 124 10 15 16 30 13 34 -3 3 0 12 8 20 27 27 16 51 -20 43 -5 -1 -39 -4
-75 -7 -87 -7 -94 -14 -81 -94 6 -35 11 -76 11 -90 0 -26 0 -26 -51 -17 -67
12 -102 26 -94 37 3 5 8 78 10 163 6 170 35 315 85 423 27 60 27 60 38 33 14
-34 39 -36 68 -5 39 40 140 68 301 81 123 10 280 13 354 7z m604 0 c5 -10 17
-423 15 -541 0 -36 -6 -83 -11 -104 -6 -23 -7 -41 -1 -45 16 -10 24 -61 10
-62 -7 0 -22 -2 -33 -3 -11 -2 -63 -6 -115 -11 -52 -4 -111 -9 -130 -11 -19
-1 -90 -6 -158 -10 l-123 -6 7 28 c4 16 8 31 10 33 2 2 121 4 265 5 200 1 263
4 267 14 4 14 -19 15 -325 14 -193 -1 -201 0 -206 19 -3 11 0 22 6 24 29 9
377 34 485 35 6 0 12 5 12 11 0 11 -171 7 -330 -6 -38 -3 -148 -7 -166 -6 -18
1 -4 51 15 52 9 0 27 2 41 4 14 3 111 7 215 10 201 6 215 8 215 26 0 11 -67
10 -407 -6 l-73 -4 0 30 c0 21 5 29 18 30 105 5 155 10 220 19 110 17 145 19
164 9 23 -12 48 -1 48 23 0 20 -9 21 -125 4 -22 -3 -56 -8 -75 -11 -19 -3 -81
-8 -137 -11 l-101 -7 7 33 c5 26 13 35 36 42 41 11 315 15 341 5 15 -6 26 -3
38 9 17 16 17 18 1 27 -10 5 -51 7 -94 3 -42 -3 -129 -9 -194 -12 l-117 -7 9
24 c8 24 10 24 152 24 79 -1 171 -3 203 -5 42 -4 60 -1 63 8 4 9 -18 13 -84
14 -48 1 -104 3 -123 4 -19 1 -70 3 -112 3 -80 1 -87 5 -65 34 10 15 35 18
157 22 80 2 169 0 197 -4 50 -7 85 0 71 14 -3 4 -96 6 -207 6 l-200 0 8 22 c8
21 15 22 130 24 67 1 152 -2 189 -6 67 -8 92 -6 92 9 0 16 -58 21 -229 21
-109 -1 -171 3 -165 9 5 5 63 9 129 9 170 0 209 2 214 7 13 13 -22 16 -169 15
l-162 -2 8 23 c12 39 34 66 57 70 12 2 69 5 127 7 57 1 106 3 107 5 8 7 83 5
88 -3z m76 -7 c8 2 47 7 87 10 l73 6 -41 -54 c-22 -31 -40 -59 -40 -63 0 -4
-6 -19 -13 -33 -7 -14 -23 -54 -36 -90 -12 -36 -27 -73 -32 -82 -5 -10 -9 -28
-9 -40 0 -12 -3 -18 -7 -14 -5 4 -9 69 -10 144 -1 75 -4 158 -6 184 -3 36 -1
45 8 38 7 -6 19 -8 26 -6z m-1441 -4 c0 -5 -4 -10 -10 -10 -5 0 -10 -7 -10
-15 0 -8 -8 -29 -18 -47 -10 -18 -27 -54 -37 -81 -19 -49 -27 -53 -30 -15 -2
13 -6 55 -9 95 l-7 72 48 4 c26 2 54 4 61 5 6 1 12 -2 12 -8z m967 -4 c2 -1
-3 -20 -10 -42 -14 -39 -15 -39 -70 -42 -51 -3 -57 -1 -57 16 0 11 -3 34 -7
52 l-6 33 73 -7 c41 -3 75 -8 77 -10z m-37 -115 c0 -11 -90 -19 -96 -9 -6 10
16 16 59 17 20 1 37 -3 37 -8z m-12 -58 c-2 -13 -14 -19 -41 -21 -32 -3 -37 0
-37 17 0 18 6 21 41 21 33 0 40 -3 37 -17z m-30 -68 c-14 -31 -42 -29 -46 3
-3 19 1 22 27 22 29 0 30 -1 19 -25z m-32 -72 c-10 -10 -19 5 -10 18 6 11 8
11 12 0 2 -7 1 -15 -2 -18z m-696 -260 c0 -4 -12 -37 -27 -75 -27 -66 -43 -86
-41 -50 1 9 -2 40 -6 69 l-8 52 34 4 c18 2 36 5 41 5 4 1 7 -1 7 -5z m-167
-190 c55 -7 61 -13 53 -57 -6 -30 -10 -33 -69 -47 -34 -9 -70 -19 -79 -23 -16
-7 -18 -1 -18 69 l0 78 33 -7 c17 -4 54 -10 80 -13z m482 -31 c28 -9 27 -10
-25 -15 -30 -4 -98 -11 -150 -17 -213 -24 -210 -24 -210 -6 0 10 4 25 9 35 9
15 27 17 178 15 92 -2 182 -7 198 -12z m828 11 c-7 -2 -21 -2 -30 0 -10 3 -4
5 12 5 17 0 24 -2 18 -5z"/>
</g>
</svg>
