<?xml version="1.0" standalone="no"?>
<!DOCTYPE svg PUBLIC "-//W3C//DTD SVG 20010904//EN"
 "http://www.w3.org/TR/2001/REC-SVG-20010904/DTD/svg10.dtd">
<svg version="1.0" xmlns="http://www.w3.org/2000/svg"
 width="196.000000pt" height="102.000000pt" viewBox="0 0 196.000000 102.000000"
 preserveAspectRatio="xMidYMid meet">
<metadata>
Created by potrace 1.16, written by Peter Selinger 2001-2019
</metadata>
<g transform="translate(0.000000,102.000000) scale(0.100000,-0.100000)"
fill="#000000" stroke="none">
<path d="M1595 910 c-33 -5 -105 -11 -160 -14 -55 -4 -140 -10 -190 -13 -131
-10 -756 -4 -853 8 -91 11 -122 3 -122 -32 0 -11 -5 -30 -12 -42 -6 -13 -12
-85 -15 -177 -1 -85 -8 -184 -15 -220 -6 -36 -12 -76 -13 -90 -1 -17 -9 -26
-25 -30 -35 -8 -37 -30 -3 -31 15 -1 39 -3 53 -5 14 -2 61 -6 105 -8 79 -4 80
-4 88 -35 4 -19 3 -47 -3 -69 -13 -48 -13 -52 4 -52 20 0 41 58 40 113 l0 49
95 -8 c127 -11 474 -7 686 6 94 6 204 13 245 15 282 16 281 16 261 53 -8 14
-8 29 -1 48 6 15 7 31 2 38 -5 6 -8 79 -7 163 1 84 -2 174 -6 200 -6 39 -4 53
11 74 10 14 20 35 22 45 3 17 -4 19 -62 20 -36 1 -92 -2 -125 -6z m93 -77 c-4
-100 12 -397 24 -429 8 -24 8 -37 -3 -60 -13 -27 -19 -29 -89 -35 -274 -24
-856 -39 -965 -26 -16 2 -65 8 -109 12 l-79 8 6 58 c3 33 2 61 -3 64 -14 9
-35 -27 -45 -79 -12 -57 -11 -57 -116 -41 l-46 7 18 99 c10 54 20 159 22 232
2 74 7 139 11 145 3 5 3 18 0 27 -10 25 11 33 64 24 62 -9 623 -2 777 11 66 5
165 12 220 16 55 3 129 9 165 13 36 5 84 9 108 10 l42 1 -2 -57z"/>
<path d="M1187 813 c-3 -5 -8 -23 -12 -40 l-7 -33 -80 0 c-59 0 -79 -3 -76
-12 6 -16 135 -23 152 -9 10 8 11 4 8 -19 -4 -29 -5 -29 -80 -32 -49 -2 -77
-7 -80 -15 -3 -10 16 -13 75 -13 l78 0 -4 -46 -3 -46 -73 7 c-51 4 -75 3 -80
-5 -11 -18 -2 -21 78 -27 l75 -6 12 -38 c15 -46 29 -48 74 -14 18 14 38 25 44
25 6 0 45 23 87 51 42 28 78 49 81 46 3 -3 1 -27 -4 -55 -10 -53 -1 -85 22
-76 7 3 16 22 20 42 3 20 10 60 15 87 8 50 1 208 -10 220 -11 11 -37 -6 -43
-28 -3 -12 -6 -37 -6 -55 l0 -32 -37 24 c-21 14 -58 32 -82 41 -24 8 -55 26
-69 40 -24 24 -66 34 -75 18z m50 -62 c6 -10 33 -29 60 -42 76 -36 123 -68
123 -84 0 -20 -195 -143 -207 -131 -10 10 -5 276 5 276 4 0 12 -8 19 -19z"/>
<path d="M987 793 c-19 -18 1 -23 85 -21 62 2 93 7 96 16 3 9 -19 12 -85 12
-50 0 -93 -3 -96 -7z"/>
<path d="M680 726 c0 -39 4 -48 37 -75 63 -52 90 -31 33 24 -16 16 -30 37 -30
46 0 28 -11 49 -26 49 -10 0 -14 -13 -14 -44z"/>
<path d="M562 748 c-19 -19 -15 -33 22 -81 l34 -44 -32 7 c-17 4 -38 11 -47
15 -10 3 -20 1 -24 -5 -12 -19 15 -39 72 -51 l56 -13 -68 -23 c-38 -13 -73
-23 -78 -23 -6 0 -8 29 -5 70 4 54 2 70 -8 70 -7 0 -18 -9 -24 -21 -12 -22
-17 -165 -6 -176 3 -4 34 5 69 19 34 14 64 22 66 16 2 -5 -8 -26 -22 -45 -15
-20 -24 -40 -21 -45 9 -14 38 13 87 82 47 66 50 68 96 72 27 1 56 2 65 0 24
-5 20 -48 -9 -86 -14 -18 -25 -38 -25 -45 0 -24 25 -5 58 45 38 55 81 87 111
82 19 -3 16 -9 -24 -63 -27 -35 -41 -63 -36 -68 14 -14 28 -1 76 74 l46 69 49
0 c45 0 71 13 56 28 -4 3 -27 5 -51 3 -25 -1 -44 2 -43 7 2 5 -11 21 -29 36
-17 15 -37 43 -43 62 -14 40 -43 44 -48 6 -4 -29 21 -68 59 -91 l30 -18 -32
-7 c-45 -9 -49 -8 -49 9 0 8 -16 29 -35 47 -20 17 -39 45 -43 62 -11 43 -36
40 -40 -4 -3 -31 2 -40 45 -78 l48 -44 -34 6 c-18 3 -55 6 -82 6 -42 0 -52 4
-84 37 -19 20 -35 41 -35 48 0 6 -13 23 -28 38 -22 21 -31 24 -40 15z"/>
<path d="M724 523 c-45 -48 -68 -82 -61 -89 9 -10 47 7 47 20 0 7 16 31 35 53
19 23 35 44 35 47 0 16 -25 2 -56 -31z"/>
<path d="M1037 479 c-50 -19 -26 -34 49 -31 75 4 83 7 67 23 -16 16 -84 20
-116 8z"/>
</g>
</svg>
