<?xml version="1.0" standalone="no"?>
<!DOCTYPE svg PUBLIC "-//W3C//DTD SVG 20010904//EN"
 "http://www.w3.org/TR/2001/REC-SVG-20010904/DTD/svg10.dtd">
<svg version="1.0" xmlns="http://www.w3.org/2000/svg"
 width="254.000000pt" height="112.000000pt" viewBox="0 0 254.000000 112.000000"
 preserveAspectRatio="xMidYMid meet">
<metadata>
Created by potrace 1.16, written by Peter Selinger 2001-2019
</metadata>
<g transform="translate(0.000000,112.000000) scale(0.100000,-0.100000)"
fill="#000000" stroke="none">
<path d="M1425 1084 c-30 -15 -155 -132 -155 -145 0 -8 180 -99 196 -99 7 0
14 -7 18 -15 3 -8 14 -15 25 -15 54 0 15 -49 -45 -56 -41 -5 -57 -14 -36 -21
6 -3 12 -8 12 -13 0 -8 -123 -100 -134 -100 -9 0 14 64 49 133 20 38 34 74 32
80 -4 14 -164 12 -182 -3 -9 -8 -12 -17 -7 -24 28 -35 45 -236 21 -236 -13 0
-63 52 -102 106 -22 30 -28 50 -28 89 0 74 -7 165 -13 181 -3 8 -15 14 -26 14
-14 0 -20 -7 -20 -24 0 -17 -22 -45 -77 -96 -124 -116 -133 -120 -250 -114
-163 8 -191 12 -269 35 -59 17 -78 28 -85 46 -5 13 -13 23 -18 23 -14 0 -20
-25 -25 -107 -4 -53 -2 -73 7 -73 8 0 8 -3 -2 -9 -11 -7 -11 -15 -2 -44 7 -19
19 -38 27 -41 10 -4 12 -11 6 -23 -5 -10 -10 -38 -11 -63 -2 -25 -4 -46 -4
-47 -1 -1 -28 4 -59 12 -40 9 -59 10 -67 2 -8 -8 -11 -5 -11 11 0 30 -18 28
-32 -3 -14 -32 2 -154 26 -190 23 -35 46 -31 96 17 l44 42 8 -29 c5 -17 7 -45
4 -62 -3 -24 -1 -33 9 -33 18 0 28 49 20 94 -6 32 -3 39 25 66 23 22 42 30 68
30 l35 0 -6 -110 c-3 -60 -4 -110 -1 -110 11 0 22 51 29 130 4 47 10 88 13 92
4 3 45 2 92 -3 47 -6 136 -12 197 -14 62 -2 117 -6 122 -9 5 -4 17 4 26 16
l17 23 -7 -25 c-4 -14 -16 -42 -26 -62 -11 -21 -19 -42 -19 -48 0 -24 19 3 50
68 17 37 42 79 56 93 22 23 23 27 10 39 -13 10 -18 7 -33 -19 -10 -17 -21 -31
-24 -31 -3 0 -11 23 -18 52 -11 48 -10 54 9 78 11 14 32 43 46 65 15 22 28 41
29 43 6 7 75 -28 75 -37 0 -6 13 -23 30 -38 25 -22 28 -29 17 -41 -9 -12 -9
-14 0 -9 15 9 65 -21 57 -34 -2 -5 -5 -58 -5 -119 0 -60 -5 -112 -10 -115 -27
-17 19 -41 50 -25 35 17 118 31 141 22 l23 -9 -34 -25 c-19 -14 -60 -44 -91
-66 l-56 -41 -26 67 c-15 37 -30 73 -35 81 -11 17 -31 6 -31 -18 0 -29 69
-171 86 -178 10 -4 31 9 57 36 65 64 178 151 196 151 9 0 43 -23 74 -51 32
-28 60 -49 63 -46 13 13 -11 50 -47 73 -21 13 -39 29 -39 35 0 13 57 37 109
45 46 7 44 14 41 -103 -1 -33 3 -64 8 -67 12 -7 87 41 163 104 60 50 60 50
132 50 40 0 89 4 110 9 20 5 47 7 58 4 19 -5 20 -11 14 -60 -7 -60 8 -123 31
-123 10 0 14 13 14 48 0 27 4 73 9 103 12 66 24 204 23 242 -1 15 3 27 9 27 5
0 7 11 3 24 -4 19 10 41 76 118 44 52 92 101 105 108 37 20 30 33 -12 26 -104
-15 -176 -18 -182 -7 -8 13 -71 4 -71 -10 0 -5 4 -9 9 -9 5 0 11 -11 13 -25 5
-21 1 -25 -21 -26 -14 0 -63 -3 -109 -5 -108 -5 -223 23 -269 68 -17 17 -36
27 -42 24 -6 -4 -11 -2 -11 3 0 6 -6 11 -14 11 -15 0 -26 -42 -26 -96 0 -19
-3 -34 -7 -34 -14 1 -47 30 -35 30 28 0 8 19 -40 40 -48 20 -51 23 -30 31 30
12 28 21 -5 18 -67 -6 -96 33 -113 150 -9 61 -25 121 -32 121 -2 0 -16 -7 -33
-16z m40 -184 c5 -16 3 -19 -12 -13 -32 11 -123 67 -123 76 0 5 24 32 52 60
l53 52 12 -77 c6 -43 14 -86 18 -98z m-427 -67 c9 -23 17 -89 13 -115 -1 -4
-22 -1 -48 7 -27 7 -61 15 -77 17 l-28 3 58 58 c32 31 62 57 65 57 4 0 11 -12
17 -27z m295 -19 c13 -5 10 -18 -19 -77 -19 -40 -38 -90 -42 -112 -6 -37 -7
-34 -13 35 -3 41 -10 92 -14 112 l-7 37 38 4 c22 2 40 4 41 5 1 1 8 -1 16 -4z
m1058 -61 c-16 -21 -52 -63 -80 -93 l-49 -55 0 55 c0 31 -3 70 -6 87 l-7 32
48 4 c26 2 65 4 86 5 l39 2 -31 -37z m-821 17 c12 -8 9 -10 -13 -10 -16 0 -26
4 -22 10 8 12 16 12 35 0z m224 -15 c54 -36 182 -50 374 -41 49 2 52 1 53 -23
3 -65 -4 -158 -13 -175 -11 -19 -12 -19 -227 0 -30 3 -86 18 -124 34 -39 16
-74 27 -79 24 -23 -14 -1 -35 62 -60 38 -15 67 -31 64 -35 -3 -5 -39 -31 -82
-59 l-77 -51 -3 51 c-4 59 15 160 29 160 5 0 8 5 7 11 -2 7 17 19 42 28 105
38 160 65 151 74 -6 6 -26 2 -53 -11 -65 -31 -129 -51 -144 -45 -10 4 -14 24
-14 69 0 35 2 64 5 64 3 0 16 -7 29 -15z m-1356 -27 c40 -11 69 -24 65 -28 -4
-4 -26 -13 -48 -20 -22 -7 -55 -21 -72 -32 l-33 -20 0 61 c0 34 3 61 8 61 4 0
40 -10 80 -22z m1117 -35 c-13 -25 -34 -76 -47 -111 l-23 -65 -7 39 c-12 67
-9 172 5 177 6 3 31 6 54 6 l41 1 -23 -47z m120 1 c14 -9 34 -35 45 -56 18
-37 18 -44 4 -116 -8 -42 -13 -93 -10 -112 3 -20 2 -41 -2 -46 -4 -6 -50 -20
-102 -32 -52 -11 -102 -22 -110 -24 -22 -5 -28 169 -6 186 8 6 25 43 39 81 31
85 53 138 62 147 8 8 45 -5 80 -28z m-687 3 c24 -7 43 -17 42 -23 0 -11 -57
-32 -91 -33 -14 -1 -34 -8 -45 -17 -18 -15 -18 -15 4 -9 21 6 22 3 22 -45 0
-28 7 -67 15 -87 8 -19 15 -46 15 -59 0 -23 -4 -24 -59 -24 l-59 0 -7 41 c-13
77 -9 107 22 142 15 19 40 55 55 80 31 53 27 51 86 34z m-116 -47 c-30 -55
-52 -81 -63 -75 -4 3 -13 30 -20 60 -7 30 -16 52 -20 49 -9 -5 -2 -62 12 -111
6 -17 12 -53 14 -80 3 -26 6 -57 7 -68 3 -18 -3 -20 -42 -19 -25 0 -82 4 -128
9 -83 8 -83 8 -77 34 8 33 44 91 56 91 5 0 9 4 9 10 0 6 -29 7 -77 3 -69 -6
-77 -4 -66 9 19 23 5 28 -54 22 -61 -8 -67 2 -20 33 48 33 86 46 146 52 7 0
11 7 8 15 -5 13 20 15 167 13 l173 -2 -25 -45z m575 -129 l-2 -179 -25 28
c-14 15 -52 49 -85 76 -59 46 -72 66 -74 112 -1 16 5 22 19 22 11 0 20 6 20
13 1 11 124 104 142 106 4 1 6 -80 5 -178z m-427 114 c0 -11 -50 -85 -58 -85
-4 0 -8 18 -10 39 -2 31 2 40 15 44 26 7 53 8 53 2z m-613 -141 c-17 -35 -35
-64 -40 -64 -4 0 -7 30 -6 68 l3 67 38 -3 37 -4 -32 -64z m142 -6 c-29 -59
-33 -60 -25 -10 9 57 -10 47 -25 -14 -11 -43 -13 -44 -50 -44 -22 0 -39 4 -39
10 0 5 10 30 22 55 l22 45 58 0 58 0 -21 -42z m1653 -79 c-2 -35 -8 -66 -14
-70 -16 -10 -127 -21 -208 -19 -67 1 -210 16 -217 23 -1 2 37 33 85 71 l87 67
135 -4 135 -4 -3 -64z m-887 19 c15 -13 50 -43 80 -68 68 -58 76 -74 33 -68
-18 3 -46 2 -63 -2 -16 -5 -47 -10 -67 -13 l-38 -6 0 90 c0 99 7 108 55 67z
m-1060 -27 c56 -7 75 -15 75 -32 0 -11 -4 -19 -10 -19 -5 0 -28 -17 -51 -37
-42 -38 -58 -35 -59 12 0 11 -3 37 -6 58 -7 36 -6 37 17 28 13 -5 29 -9 34
-10z m125 -21 c0 -5 -5 -10 -11 -10 -5 0 -7 5 -4 10 3 6 8 10 11 10 2 0 4 -4
4 -10z m1493 -88 l28 -7 -53 -40 c-63 -47 -109 -77 -113 -73 -7 6 -8 125 -2
135 6 9 60 3 140 -15z"/>
<path d="M1086 465 c-11 -8 -15 -15 -9 -15 6 0 16 7 23 15 16 19 11 19 -14 0z"/>
<path d="M765 310 c-4 -6 8 -23 26 -38 18 -15 52 -45 76 -66 33 -29 47 -36 55
-28 15 15 -22 68 -76 111 -39 32 -70 39 -81 21z"/>
</g>
</svg>
