<?xml version="1.0" standalone="no"?>
<!DOCTYPE svg PUBLIC "-//W3C//DTD SVG 20010904//EN"
 "http://www.w3.org/TR/2001/REC-SVG-20010904/DTD/svg10.dtd">
<svg version="1.0" xmlns="http://www.w3.org/2000/svg"
 width="256.000000pt" height="146.000000pt" viewBox="0 0 256.000000 146.000000"
 preserveAspectRatio="xMidYMid meet">
<metadata>
Created by potrace 1.16, written by Peter Selinger 2001-2019
</metadata>
<g transform="translate(0.000000,146.000000) scale(0.100000,-0.100000)"
fill="#000000" stroke="none">
<path d="M800 1303 c-26 -51 -36 -130 -21 -152 8 -12 27 -6 115 37 80 39 116
52 151 52 25 0 45 5 45 10 0 7 13 8 34 4 62 -11 499 -4 512 9 3 2 -1 9 -8 14
-9 7 -56 7 -143 1 -249 -18 -522 12 -579 64 -14 11 -44 10 -51 -3 -9 -13 23
-49 45 -49 9 0 21 -5 26 -10 6 -6 25 -12 42 -13 38 -3 38 -3 -80 -65 -82 -44
-97 -49 -100 -34 -5 26 3 73 12 67 4 -3 14 22 23 55 8 33 12 60 8 60 -4 0 -18
-21 -31 -47z"/>
<path d="M1367 1216 c-25 -38 -26 -44 -68 -201 -18 -66 -36 -123 -42 -126 -5
-4 -24 -2 -41 3 -17 5 -38 9 -46 9 -54 -3 -492 -1 -498 3 -4 2 -43 7 -87 11
-51 5 -95 15 -125 30 -47 24 -144 46 -157 36 -19 -14 -35 -81 -33 -142 0 -37
-4 -86 -10 -110 -12 -49 -30 -250 -24 -261 3 -4 10 -5 17 -2 8 3 14 27 15 62
4 95 12 175 23 217 6 22 12 71 14 110 1 38 3 76 4 83 0 7 15 12 36 12 l35 0
-21 -42 c-31 -60 -49 -134 -37 -146 12 -12 62 4 153 47 33 16 74 35 90 42 l30
13 -32 4 c-21 2 -45 -5 -70 -21 -21 -13 -51 -28 -68 -34 -16 -6 -38 -14 -48
-18 -16 -7 -18 -4 -14 21 3 16 10 43 16 59 7 17 13 35 16 42 3 8 15 6 43 -7
47 -23 117 -28 457 -35 132 -3 254 -7 270 -9 17 -1 44 -4 62 -4 l32 -2 -18
-42 c-26 -64 -44 -135 -37 -153 5 -13 -4 -14 -67 -9 -39 3 -132 7 -206 9 -183
5 -177 2 -173 70 l4 55 35 0 c35 0 35 -1 19 -19 -9 -10 -19 -29 -21 -41 l-4
-23 24 23 c14 13 25 29 25 35 0 6 11 18 25 25 14 7 25 16 25 19 0 3 -33 5 -72
4 -40 -1 -81 -2 -92 -3 -14 0 -16 -3 -8 -12 14 -18 3 -108 -14 -108 -20 0
-172 37 -185 45 -8 6 -7 10 2 17 10 7 8 8 -8 5 -12 -3 -24 0 -26 7 -9 28 -35
-56 -39 -126 -3 -79 2 -90 31 -64 9 8 48 26 86 40 39 15 84 33 101 41 18 7 35
11 38 8 13 -13 5 -63 -19 -117 -30 -68 -31 -76 -6 -76 23 0 40 22 23 28 -8 2
-3 20 13 52 14 27 25 60 25 73 l0 24 148 -2 c82 -1 155 -5 162 -10 8 -5 50 -8
94 -6 62 2 78 0 74 -11 -3 -7 -15 -44 -27 -81 -21 -61 -25 -67 -44 -61 -12 3
-29 12 -37 19 -25 21 -55 26 -74 12 -13 -10 -19 -31 -22 -82 -2 -39 -10 -75
-18 -84 -21 -24 -40 -101 -27 -114 19 -19 62 -10 94 20 18 17 67 53 110 80
l78 50 202 8 c260 10 290 11 302 15 6 2 19 3 29 4 29 2 31 24 2 37 -14 7 -24
15 -22 18 3 4 7 27 11 51 3 25 11 68 17 96 10 50 11 51 78 82 36 18 75 32 86
32 11 0 30 7 43 16 18 13 46 16 130 15 86 -1 110 1 121 14 11 13 9 15 -11 15
-74 0 -318 22 -344 30 -16 6 -41 19 -54 29 -23 18 -24 20 -9 43 9 14 30 39 47
56 17 17 31 36 31 43 0 7 27 43 60 80 82 92 80 99 -22 101 -172 3 -194 6 -232
22 -40 17 -66 15 -66 -3 0 -5 9 -12 19 -16 12 -4 18 -14 17 -29 0 -14 -3 -22
-5 -20 -2 2 -17 -21 -32 -52 -45 -89 -84 -131 -153 -163 -34 -17 -71 -28 -82
-25 -21 5 -94 -49 -82 -61 4 -5 14 -2 23 5 12 10 15 10 15 -5 0 -9 23 -42 51
-73 28 -32 68 -84 90 -117 21 -33 48 -69 59 -80 11 -12 20 -26 20 -33 0 -19
48 -38 62 -24 8 8 4 19 -16 42 -14 18 -23 37 -19 43 13 21 11 167 -2 167 -19
0 -38 84 -31 136 3 25 15 59 26 75 24 33 166 159 180 159 12 0 2 -187 -11
-211 -4 -9 -13 -67 -19 -130 -6 -63 -18 -144 -26 -181 -8 -37 -14 -83 -14
-103 0 -48 -22 -55 -183 -62 -110 -5 -130 -4 -146 11 -15 13 -24 15 -47 6 -28
-11 -87 -6 -132 11 -17 7 -20 13 -13 26 17 35 61 178 65 218 2 22 7 49 11 60
7 20 6 20 -9 1 -22 -27 -20 -17 13 72 16 42 35 105 42 139 10 48 16 60 26 52
14 -12 33 -4 33 14 0 7 11 29 25 48 13 20 22 39 19 42 -7 6 32 83 46 92 6 4 7
11 4 17 -4 7 -9 6 -15 -3 -6 -10 -15 -10 -43 -2 -31 10 -37 9 -49 -11z m61
-28 c-8 -13 -30 -49 -48 -81 -35 -63 -45 -69 -30 -17 5 18 7 37 3 43 -3 6 -1
7 5 3 7 -4 12 -1 12 8 0 37 20 66 46 66 25 0 26 -1 12 -22z m306 -57 c6 -9
-31 -48 -38 -40 -2 2 0 14 5 27 9 23 24 29 33 13z m209 -3 c15 1 27 -2 27 -6
0 -4 -16 -27 -35 -52 -19 -25 -51 -69 -70 -97 -20 -29 -38 -53 -40 -53 -3 0
-4 49 -2 110 l2 109 45 -6 c25 -3 57 -6 73 -5z m-408 -257 c-3 -17 1 -57 9
-91 8 -34 12 -68 9 -77 -3 -9 2 -16 13 -19 13 -3 20 -15 21 -37 l3 -31 -32 40
c-18 21 -58 66 -90 98 -32 33 -58 65 -58 71 0 9 106 71 128 75 1 0 0 -13 -3
-29z m359 -101 l40 -13 -60 -27 c-32 -15 -62 -24 -67 -21 -4 4 -4 28 -1 53 6
45 8 46 28 34 11 -8 39 -19 60 -26z m-1313 -80 c14 0 33 -6 43 -13 17 -12 13
-15 -40 -31 -33 -10 -69 -25 -81 -32 -21 -14 -23 -13 -23 10 0 13 3 37 6 54 6
28 8 29 37 21 18 -5 43 -9 58 -9z m593 -272 l39 -15 -49 -28 c-27 -15 -61 -36
-76 -46 -15 -11 -30 -19 -33 -19 -7 0 -6 100 1 138 l6 31 37 -23 c20 -12 54
-29 75 -38z"/>
</g>
</svg>
