<?xml version="1.0" standalone="no"?>
<!DOCTYPE svg PUBLIC "-//W3C//DTD SVG 20010904//EN"
 "http://www.w3.org/TR/2001/REC-SVG-20010904/DTD/svg10.dtd">
<svg version="1.0" xmlns="http://www.w3.org/2000/svg"
 width="353.000000pt" height="172.000000pt" viewBox="0 0 353.000000 172.000000"
 preserveAspectRatio="xMidYMid meet">
<metadata>
Created by potrace 1.16, written by Peter Selinger 2001-2019
</metadata>
<g transform="translate(0.000000,172.000000) scale(0.100000,-0.100000)"
fill="#000000" stroke="none">
<path d="M245 1614 c-8 -8 -16 -29 -19 -47 -13 -89 -26 -233 -26 -291 0 -36
-5 -68 -10 -71 -8 -5 -7 -12 1 -22 10 -12 10 -16 -1 -23 -11 -7 -11 -12 -2
-23 7 -8 10 -21 8 -28 -3 -8 -7 -100 -10 -206 -4 -157 -8 -197 -22 -218 -17
-26 -49 -34 -57 -12 -3 9 -8 8 -20 -3 -11 -11 -18 -43 -22 -110 -3 -52 -8
-104 -11 -116 -9 -34 12 -37 58 -10 24 14 78 36 120 50 108 35 177 42 523 51
181 5 247 8 355 20 19 2 76 6 125 10 82 5 294 22 372 29 18 2 30 0 28 -4 -3
-5 28 -25 68 -45 39 -21 90 -50 112 -66 22 -16 64 -43 93 -60 29 -17 72 -49
95 -71 23 -22 56 -51 72 -66 17 -15 35 -40 40 -57 8 -23 17 -30 35 -30 18 0
24 -5 22 -17 -2 -12 4 -18 15 -18 21 0 123 66 123 80 0 5 21 24 47 41 27 18
73 54 103 79 30 26 81 64 112 84 32 20 83 57 114 83 85 69 124 93 151 93 15 0
27 9 35 25 6 14 17 25 23 25 7 0 28 15 46 33 64 64 162 131 193 133 30 2 54
-9 141 -64 51 -33 105 -83 105 -97 0 -6 11 -21 23 -34 21 -19 26 -20 36 -7 9
10 9 16 1 21 -6 4 -22 31 -36 59 -14 29 -38 63 -54 75 -25 18 -30 29 -30 64 0
95 41 196 104 257 42 41 58 70 39 70 -5 0 -57 -51 -118 -113 -60 -63 -122
-122 -137 -131 -28 -18 -28 -18 -95 22 -77 46 -186 128 -249 187 -23 22 -67
56 -99 75 -31 19 -84 58 -119 85 -34 28 -84 68 -111 90 -28 22 -66 52 -85 67
-19 14 -53 42 -74 62 -45 42 -65 43 -85 2 -7 -16 -22 -31 -32 -33 -11 -3 -19
-11 -19 -17 0 -7 -27 -29 -60 -50 -33 -21 -79 -55 -102 -76 -24 -20 -60 -48
-80 -61 -20 -13 -89 -61 -153 -107 -92 -66 -119 -81 -130 -72 -31 26 -38 -1
-19 -71 7 -24 -89 -31 -447 -33 -267 -1 -305 1 -302 14 4 20 21 241 27 370 3
58 8 126 12 152 5 44 4 48 -18 52 -96 21 -195 28 -366 27 -224 -2 -276 -1
-315 4 -15 2 -34 -3 -42 -11z m440 -45 c-16 -5 -77 -18 -135 -29 -58 -11 -115
-23 -127 -26 -31 -9 -29 11 3 41 26 24 32 25 158 24 92 -1 122 -4 101 -10z
m155 2 c0 -31 -14 -41 -54 -40 -22 1 -54 5 -71 9 l-30 7 40 7 c22 5 54 12 70
16 41 11 45 11 45 1z m104 -21 c-8 -21 -13 -56 -18 -123 -2 -32 -6 -60 -8 -62
-2 -2 -14 -2 -26 2 -17 4 -22 13 -23 37 0 17 -2 41 -5 53 -3 17 2 23 26 28 34
7 41 25 10 25 -23 0 -35 22 -26 45 4 10 17 14 41 13 27 -2 34 -7 29 -18z
m-584 0 c0 -22 -56 -139 -77 -161 -17 -18 -21 -28 -12 -31 7 -2 10 -11 6 -22
-13 -34 -26 -5 -21 47 3 28 6 80 6 114 l0 63 49 -2 c27 0 49 -4 49 -8z m305
-35 c119 -12 150 -24 125 -49 -12 -12 -33 -13 -110 -5 -52 5 -118 10 -147 11
-41 2 -50 5 -41 15 6 7 7 14 2 14 -5 1 14 7 41 14 28 8 59 11 70 9 11 -3 38
-6 60 -9z m1742 -61 c38 -31 74 -63 82 -69 7 -7 -25 6 -72 30 -47 24 -91 45
-98 47 -9 3 -8 10 2 26 8 12 15 22 16 22 2 0 33 -25 70 -56z m-1944 19 c-7 -2
-21 -2 -30 0 -10 3 -4 5 12 5 17 0 24 -2 18 -5z m377 -8 c0 -8 -7 -15 -16 -15
-14 0 -14 3 -4 15 7 8 14 15 16 15 2 0 4 -7 4 -15z m-332 -29 c17 -10 -13 -35
-42 -36 -16 0 -45 25 -46 41 0 8 74 4 88 -5z m-108 -27 c0 -5 -9 -9 -20 -9
-19 0 -27 20 -13 33 7 8 33 -11 33 -24z m2025 -24 c59 -31 127 -69 151 -85 23
-17 45 -30 48 -30 6 0 120 -77 164 -111 23 -18 23 -18 3 -29 -11 -5 -18 -16
-15 -23 2 -7 -2 -41 -10 -75 -8 -34 -10 -60 -5 -56 5 3 9 16 9 30 0 14 3 23 8
21 4 -3 5 -38 2 -79 -5 -72 -5 -73 -34 -76 l-29 -4 5 156 c3 86 1 156 -3 156
-9 0 -21 -119 -23 -229 -1 -79 -2 -81 -26 -81 l-25 0 0 165 c0 91 -3 165 -7
165 -10 0 -10 5 -11 -177 -1 -150 -1 -153 -23 -153 -19 0 -23 8 -35 83 -15 94
-18 217 -5 265 13 50 -11 40 -26 -10 -12 -42 -15 -197 -4 -248 2 -14 8 -40 12
-57 5 -26 3 -34 -11 -39 -33 -13 -50 9 -51 67 -1 30 4 57 9 61 7 4 7 14 1 28
-9 19 -5 116 10 258 5 41 -8 59 -18 25 -4 -16 -7 -42 -21 -193 -2 -25 -6 -91
-7 -147 -3 -89 -5 -103 -21 -107 -11 -3 -21 2 -25 12 -9 21 -7 240 2 352 12
139 12 135 -4 135 -17 0 -25 -109 -25 -357 0 -134 -2 -148 -17 -148 -15 0 -18
9 -19 48 -1 26 -3 72 -4 102 -2 30 -6 131 -9 224 -3 93 -8 171 -11 174 -3 3
-10 1 -17 -6 -13 -13 -14 -116 -3 -363 l8 -176 -27 -5 -26 -5 -1 121 c-2 352
1 427 16 442 8 9 15 20 15 25 0 18 28 8 135 -46z m-1675 32 c0 -5 -5 -17 -11
-28 -8 -16 -19 -19 -55 -17 -25 2 -44 8 -44 15 0 6 -3 19 -6 28 -6 14 1 16 55
13 33 -1 61 -6 61 -11z m100 -22 c0 -22 -4 -25 -40 -25 -43 0 -45 2 -30 31 7
12 21 19 40 19 25 0 30 -4 30 -25z m1375 -260 c0 -285 -2 -305 -34 -286 -14 9
-20 129 -7 149 4 7 5 99 1 204 -5 175 -4 191 12 204 10 7 20 14 23 14 3 0 5
-128 5 -285z m-1795 215 c10 -19 8 -20 -49 -20 -54 0 -59 2 -54 20 4 16 14 20
49 20 33 0 46 -5 54 -20z m80 -1 c0 -5 8 -9 18 -10 14 0 14 -2 -3 -8 -23 -10
-55 4 -55 23 0 9 7 12 20 9 11 -3 20 -9 20 -14z m1641 -71 c2 -206 2 -246 -1
-323 -4 -105 -8 -117 -34 -113 -20 3 -21 8 -20 128 4 318 5 344 26 373 11 15
21 27 24 27 2 0 5 -42 5 -92z m-1453 63 c7 -1 10 -5 7 -11 -8 -13 -102 -13
-110 -1 -7 12 21 19 60 15 17 -1 36 -3 43 -3z m162 -16 c0 -12 -14 -15 -65
-15 -60 0 -75 6 -58 23 3 4 33 7 65 7 45 0 58 -3 58 -15z m60 0 c0 -6 -11 -12
-25 -13 -16 -1 -25 3 -25 13 0 10 9 14 25 13 14 -1 25 -7 25 -13z m-460 -29
c0 -10 -9 -13 -27 -11 -16 2 -47 4 -71 4 -26 1 -41 5 -37 11 3 6 35 10 71 10
49 0 64 -3 64 -14z m220 -4 c0 -4 -4 -13 -9 -21 -8 -13 -20 -13 -87 0 -107 20
-105 35 6 31 49 -2 90 -6 90 -10z m181 -14 c11 -21 14 -20 -85 -20 -76 1 -83
4 -63 23 21 22 136 19 148 -3z m1162 -18 c-24 -21 -43 -43 -43 -49 0 -5 -9 -7
-20 -4 -13 4 -20 0 -20 -10 0 -23 -36 -62 -57 -62 -11 0 -19 -8 -21 -22 -2
-13 -18 -33 -35 -45 -18 -12 -36 -28 -40 -36 -7 -11 -12 -10 -28 4 -10 9 -19
21 -19 25 0 4 24 26 53 48 28 23 66 53 83 67 53 43 169 122 179 123 6 0 -9
-17 -32 -39z m-1105 13 c-5 -26 -38 -29 -38 -4 0 15 6 21 21 21 14 0 19 -5 17
-17z m-424 -32 c39 -32 18 -36 -104 -22 -66 8 -120 17 -120 21 0 27 192 27
224 1z m1568 -209 c-4 -152 -8 -192 -18 -192 -8 0 -17 -1 -21 -2 -5 -2 -8 79
-8 179 0 101 2 183 5 183 3 0 11 15 19 33 11 29 13 30 21 11 4 -11 5 -106 2
-212z m-1418 204 c6 -1 0 -12 -11 -23 -27 -27 -86 -19 -91 14 -3 19 1 20 45
16 26 -3 52 -6 57 -7z m241 -10 c17 -1 21 -9 23 -48 2 -27 -1 -48 -6 -48 -17
0 -21 12 -10 30 9 14 8 21 -4 34 -11 10 -18 12 -20 5 -4 -11 -196 -14 -207 -4
-2 3 2 11 8 19 14 16 89 24 156 17 22 -2 49 -4 60 -5z m-451 -39 c61 -7 101
-17 104 -25 3 -11 -82 -10 -178 3 -14 2 -40 4 -57 4 -22 1 -33 6 -33 16 0 18
27 19 164 2z m1548 -169 c-4 -149 -11 -193 -28 -175 -8 8 -6 227 3 277 4 28
19 60 27 60 1 0 0 -73 -2 -162z m-1382 148 c0 -11 -19 -15 -25 -6 -3 5 1 10 9
10 9 0 16 -2 16 -4z m260 -12 c15 -15 -104 -27 -181 -18 -51 6 -58 9 -47 21
10 12 33 14 115 11 56 -2 107 -8 113 -14z m-365 -29 c11 -1 33 -3 50 -4 27 -1
28 -2 13 -18 -15 -14 -27 -15 -125 -4 -148 17 -173 22 -173 33 0 9 139 5 235
-7z m2402 -43 c18 -13 30 -29 26 -35 -3 -6 -1 -7 6 -3 10 6 69 -31 160 -102
l24 -19 -22 -22 c-16 -16 -32 -21 -54 -19 -31 3 -31 4 -28 51 1 29 -2 47 -8
47 -12 0 -13 -6 -13 -62 0 -33 -3 -38 -23 -38 -24 0 -24 2 -22 75 3 96 -11
100 -28 9 -2 -10 -4 -34 -4 -51 -1 -26 -5 -33 -21 -33 -13 0 -20 7 -21 20 -2
53 -1 76 6 92 10 26 3 49 -14 39 -12 -8 -17 -35 -20 -118 -1 -26 -5 -33 -21
-33 -18 0 -19 6 -15 108 2 59 6 115 10 124 8 20 25 14 82 -30z m-2049 22 c12
-2 22 -8 22 -13 0 -17 -61 -23 -149 -16 -78 6 -111 16 -111 34 0 7 201 3 238
-5z m45 -75 c-10 -10 -16 59 -6 74 5 7 9 -5 11 -27 2 -21 0 -42 -5 -47z m1021
14 c-1 -38 -3 -98 -3 -135 -1 -63 -3 -68 -22 -68 -21 0 -22 2 -15 103 7 101
21 167 35 167 4 0 6 -30 5 -67z m-1481 30 c53 -3 97 -9 97 -13 0 -23 -33 -32
-97 -26 -38 3 -88 6 -113 6 -53 0 -75 12 -67 34 5 12 15 15 44 11 21 -3 82 -8
136 -12z m185 -48 c-3 -4 -23 -5 -44 -3 l-39 3 24 24 23 23 21 -21 c12 -11 18
-23 15 -26z m195 26 c44 -1 57 -4 57 -16 0 -12 -17 -15 -82 -17 -46 0 -95 -2
-110 -3 -19 -1 -29 4 -37 22 l-11 24 62 -5 c35 -2 89 -5 121 -5z m1029 -108
l-4 -103 -28 0 c-24 0 -27 3 -24 30 3 22 0 28 -11 24 -27 -11 -4 68 33 114 19
23 36 41 37 40 1 -2 0 -49 -3 -105z m-1358 55 c-5 -8 -110 -4 -204 7 -40 5
-38 8 10 14 56 8 202 -8 194 -21z m136 -2 c8 -2 -13 -4 -48 -5 -35 0 -61 3
-58 7 4 7 70 6 106 -2z m250 -25 c0 -57 -6 -61 -85 -61 -72 0 -89 7 -97 40 -2
12 12 15 79 15 115 0 107 19 -9 23 -128 4 -124 12 5 12 l107 0 0 -29z m866
-56 c-3 -33 -5 -61 -5 -61 -1 -1 -13 -4 -27 -7 l-27 -5 6 69 c7 84 12 92 38
76 18 -10 20 -19 15 -72z m-148 12 c-4 -29 -10 -97 -12 -152 -5 -106 -18 -172
-30 -144 -10 23 2 334 13 356 1 0 9 -1 19 -4 17 -4 18 -10 10 -56z m66 -49
c-3 -62 -10 -129 -15 -148 -5 -19 -9 -50 -9 -67 0 -21 -5 -33 -14 -33 -11 0
-12 27 -8 148 3 81 6 162 6 180 1 26 5 32 24 32 22 0 22 0 16 -112z m1651 95
c-5 -10 -13 -45 -19 -77 l-12 -60 -34 32 -35 31 50 45 c56 51 60 53 50 29z
m-2937 -4 c39 -1 72 -6 72 -10 0 -15 -39 -35 -67 -33 -15 1 -49 2 -74 3 -34 1
-49 6 -53 18 -8 19 12 35 34 28 8 -2 48 -5 88 -6z m883 -13 c-6 -7 -14 -45
-16 -82 -5 -70 -14 -225 -14 -256 -1 -11 -9 -18 -21 -18 -18 0 -20 7 -20 68 0
37 5 85 9 107 5 22 11 74 13 115 2 71 4 75 28 81 31 7 36 3 21 -15z m117 -41
c-5 -33 -10 -114 -12 -180 -3 -106 -6 -120 -22 -124 -25 -5 -48 28 -32 47 7 7
15 64 19 125 9 145 17 185 38 190 9 2 17 3 17 3 1 -1 -2 -28 -8 -61z m70 -56
c1 -63 0 -142 -4 -176 -5 -55 -8 -63 -26 -63 -20 0 -21 3 -15 163 6 166 11
201 31 194 7 -2 12 -44 14 -118z m89 108 c1 -2 -2 -20 -7 -42 -5 -22 -9 -95
-9 -162 0 -68 -2 -127 -6 -133 -3 -5 -15 -10 -27 -10 -14 0 -18 5 -14 16 6 16
8 151 3 276 l-2 67 30 -5 c16 -3 30 -6 32 -7z m-554 -7 c-25 -10 -30 -26 -12
-32 9 -3 8 -36 -1 -128 -7 -69 -14 -146 -14 -173 -1 -42 -3 -47 -23 -47 -30 0
-31 4 -13 150 6 47 13 117 16 157 7 73 11 80 54 81 8 0 5 -3 -7 -8z m211 -1
c-4 -7 -8 -53 -9 -103 -1 -50 -6 -128 -10 -173 -7 -71 -11 -82 -29 -87 -35 -9
-37 -8 -32 37 3 23 8 96 12 162 3 66 10 128 15 137 11 20 -4 33 -19 15 -13
-17 -21 -85 -23 -197 -2 -132 -7 -157 -31 -164 -20 -5 -20 -2 -13 77 4 45 9
122 11 171 4 137 3 136 75 136 42 0 58 -3 53 -11z m122 -21 c-7 -43 -21 -220
-17 -232 3 -14 -20 -66 -28 -61 -4 2 -6 19 -5 37 2 18 3 71 4 118 2 134 9 170
32 170 17 0 19 -5 14 -32z m-642 -3 c23 -34 21 -36 -26 -31 -24 3 -76 9 -116
12 -70 7 -72 7 -56 25 14 16 32 19 99 19 77 0 84 -2 99 -25z m362 -166 c-1
-60 -6 -101 -13 -111 -7 -8 -10 -17 -8 -20 8 -8 -13 -58 -25 -58 -11 0 -14 73
-3 83 3 4 8 35 10 68 3 72 8 111 19 159 l8 35 6 -30 c4 -16 6 -73 6 -126z
m-657 105 c-21 -22 -30 -25 -69 -20 -25 2 -46 5 -47 5 -2 1 -3 10 -3 21 0 18
7 20 72 20 l71 0 -24 -26z m256 11 c43 -3 80 -7 81 -8 1 -1 4 -11 6 -22 3 -17
-3 -20 -42 -23 -47 -4 -271 15 -279 23 -2 3 4 14 15 26 16 18 26 20 79 15 33
-3 96 -9 140 -11z m223 -7 c16 -20 1 -35 -41 -41 -30 -4 -44 0 -58 14 -10 10
-19 23 -19 27 0 15 106 14 118 0z m2071 -51 c-1 -7 -1 -23 0 -36 1 -19 4 -21
16 -11 8 6 14 15 13 18 -4 33 4 52 22 52 14 0 20 -7 20 -23 0 -24 -40 -61
-112 -106 l-38 -23 0 41 c0 31 4 41 16 41 13 0 14 3 5 14 -16 19 -4 44 22 48
27 5 38 0 36 -15z m116 13 c-3 -5 -10 -10 -16 -10 -5 0 -9 5 -9 10 0 6 7 10
16 10 8 0 12 -4 9 -10z m-2725 -14 c0 -22 -29 -46 -56 -46 -17 0 -24 6 -24 19
0 22 20 32 49 24 12 -3 21 -1 21 6 0 6 2 11 5 11 3 0 5 -6 5 -14z m2475 -27
c4 -22 13 -43 21 -46 8 -3 14 -19 14 -38 0 -25 -8 -38 -34 -59 -19 -14 -38
-26 -43 -26 -4 0 -28 -14 -53 -30 -42 -28 -194 -110 -205 -110 -3 0 -5 11 -5
24 0 19 10 28 49 45 l49 21 0 92 c-1 108 8 158 28 158 16 0 16 -3 15 -154 0
-78 2 -107 10 -99 6 6 12 61 13 129 l2 119 27 3 27 3 0 -81 c0 -61 3 -81 13
-77 8 2 12 28 13 78 2 95 0 89 28 89 21 0 25 -6 31 -41z m45 9 c0 -25 -3 -29
-10 -18 -13 20 -13 50 0 50 6 0 10 -15 10 -32z m-301 -229 c-42 -36 -46 -27
-45 101 1 65 6 123 11 129 6 5 19 11 30 13 19 3 20 -3 23 -110 2 -107 1 -115
-19 -133z m-1882 227 c88 -1 129 -13 109 -33 -9 -9 -378 -7 -414 2 -24 6 -24
6 -6 27 18 19 25 20 119 12 55 -4 141 -8 192 -8z m1804 2 c0 -7 1 -86 2 -175
l2 -161 -42 -21 c-29 -14 -44 -17 -49 -9 -8 13 -20 264 -16 326 3 33 7 42 22
42 17 0 18 -8 13 -148 -6 -149 -1 -202 17 -202 6 0 10 67 10 173 0 96 3 177 7
180 11 12 33 8 34 -5z m-1599 -34 c6 -12 8 -35 4 -49 -6 -22 -9 -25 -21 -15
-8 7 -15 18 -15 25 0 6 -9 20 -20 30 -30 27 -25 42 11 37 19 -3 34 -13 41 -28z
m880 18 c4 -4 10 -29 13 -55 5 -37 4 -48 -7 -46 -33 4 -48 -3 -54 -26 -3 -14
-11 -25 -16 -25 -7 0 -8 23 -3 68 4 37 7 75 7 85 -1 16 4 18 26 12 15 -3 30
-9 34 -13z m494 6 c4 -6 6 -75 4 -152 -2 -78 -4 -172 -4 -209 -1 -54 -5 -70
-18 -78 -16 -9 -18 -4 -19 48 0 32 -3 67 -5 78 -7 31 -13 267 -7 298 6 28 35
38 49 15z m85 -90 c1 -109 4 -161 13 -245 5 -50 5 -51 -26 -62 -17 -6 -33 -9
-35 -7 -7 6 -4 169 4 251 3 39 6 91 7 118 1 38 4 47 19 47 15 0 17 -12 18
-102z m-481 -7 l0 -94 -23 21 c-20 19 -24 33 -25 89 -1 76 1 82 28 80 18 -1
20 -9 20 -96z m136 -63 c3 -84 6 -159 9 -165 6 -17 -10 -16 -24 1 -8 10 -11
42 -7 98 2 46 5 116 5 157 2 130 13 68 17 -91z m172 -25 c1 -103 6 -191 10
-195 4 -4 6 -24 4 -44 -4 -32 -7 -35 -29 -29 -16 4 -22 2 -18 -5 10 -16 -2
-12 -53 20 -26 16 -41 30 -33 30 9 0 11 6 6 18 -10 22 -31 295 -27 345 3 34 6
37 33 37 l29 0 1 -102 c5 -324 6 -306 -11 -301 -8 3 -5 -4 9 -16 13 -12 27
-21 32 -21 16 0 22 50 13 108 -5 31 -8 121 -6 200 2 129 4 142 21 142 16 0 18
-14 19 -187z m-230 47 c-2 -89 -7 -130 -15 -130 -22 0 -31 58 -26 159 5 91 8
101 25 101 19 0 20 -7 16 -130z m-1666 78 c-7 -7 -12 -8 -12 -2 0 14 12 26 19
19 2 -3 -1 -11 -7 -17z m395 3 c125 -1 133 -2 160 -25 l28 -25 -75 0 c-41 0
-106 4 -143 10 -61 8 -234 19 -311 19 -27 0 -28 1 -13 18 14 15 28 16 119 11
57 -4 162 -7 235 -8z m-115 -66 c35 -4 77 -9 93 -11 17 -3 72 -6 124 -9 51 -2
96 -6 98 -9 3 -3 3 -12 -1 -21 -4 -12 -10 -13 -23 -7 -10 5 -94 12 -188 16
-93 3 -215 11 -270 16 -55 5 -109 9 -119 10 -19 0 -19 0 -1 13 19 15 166 16
287 2z m1226 -38 c2 -11 -3 -17 -16 -17 -24 0 -32 8 -25 26 7 20 37 13 41 -9z
m-960 -42 c5 -5 -164 -9 -238 -5 -138 6 -172 9 -178 15 -8 8 408 -2 416 -10z
m995 -7 c12 -7 29 -22 37 -33 14 -19 16 -23 19 -45 0 -5 9 -10 19 -10 21 0 59
-37 49 -47 -4 -3 -17 3 -30 15 -13 12 -58 42 -102 66 -74 43 -77 46 -54 55 32
13 36 13 62 -1z m-1433 -24 c30 -4 62 -7 70 -5 13 2 13 1 0 -8 -8 -6 -33 -11
-55 -11 -36 0 -138 -22 -222 -49 -32 -9 -33 -9 -33 22 0 51 18 63 63 43 11 -5
28 -4 40 2 31 15 50 20 67 17 8 -2 40 -6 70 -11z m360 -4 c0 -6 -23 -9 -52 -9
l-53 2 40 7 c60 11 65 11 65 0z m197 -6 c-3 -3 -12 -4 -19 -1 -8 3 -5 6 6 6
11 1 17 -2 13 -5z m1753 -8 c0 -2 -7 -7 -16 -10 -8 -3 -12 -2 -9 4 6 10 25 14
25 6z m-61 -39 c-35 -29 -147 -112 -220 -163 -33 -23 -79 -60 -104 -83 -48
-45 -65 -51 -65 -23 0 10 -9 25 -20 35 -25 21 -25 28 0 55 28 30 40 28 40 -8
0 -23 5 -30 19 -30 17 0 19 5 14 34 -5 31 -2 37 28 55 24 15 35 17 37 8 10
-37 12 -39 26 -28 8 7 12 21 9 31 -4 16 4 24 44 41 28 11 83 38 124 59 83 44
106 50 68 17z m-459 -237 c0 -5 -2 -10 -4 -10 -3 0 -8 5 -11 10 -3 6 -1 10 4
10 6 0 11 -4 11 -10z"/>
</g>
</svg>
