<?xml version="1.0" standalone="no"?>
<!DOCTYPE svg PUBLIC "-//W3C//DTD SVG 20010904//EN"
 "http://www.w3.org/TR/2001/REC-SVG-20010904/DTD/svg10.dtd">
<svg version="1.0" xmlns="http://www.w3.org/2000/svg"
 width="184.000000pt" height="128.000000pt" viewBox="0 0 184.000000 128.000000"
 preserveAspectRatio="xMidYMid meet">
<metadata>
Created by potrace 1.16, written by Peter Selinger 2001-2019
</metadata>
<g transform="translate(0.000000,128.000000) scale(0.100000,-0.100000)"
fill="#000000" stroke="none">
<path d="M1518 1145 c-2 -2 -239 -40 -313 -50 -11 -2 -67 -13 -125 -25 -125
-26 -91 -21 -375 -61 -246 -35 -385 -43 -393 -21 -6 18 -30 15 -36 -5 -2 -10
-10 -116 -17 -235 -11 -197 -10 -219 4 -242 11 -17 15 -35 11 -56 l-7 -31 44
7 c24 4 48 10 53 14 12 12 -2 30 -24 30 -10 0 -22 5 -25 10 -7 11 22 6 83 -14
37 -12 34 0 46 -176 5 -57 3 -55 21 -40 11 9 15 33 15 85 0 41 3 80 6 89 8 22
48 20 184 -8 63 -14 142 -28 175 -31 33 -4 68 -14 77 -23 14 -11 24 -13 40 -5
15 7 47 5 108 -7 47 -10 132 -25 190 -34 58 -10 113 -22 122 -27 10 -5 33 -9
51 -9 18 0 43 -7 55 -16 24 -16 66 -10 59 9 -2 6 -19 16 -37 22 -38 13 -51 42
-40 85 4 14 5 70 3 126 -3 77 2 134 22 245 14 79 29 168 32 198 3 30 20 82 39
119 18 36 32 67 31 68 -5 3 -76 12 -79 9z m-56 -53 c-3 -18 -20 -146 -26 -202
-3 -25 -7 -61 -10 -80 -3 -19 -12 -86 -21 -149 -9 -62 -15 -154 -14 -205 1
-53 -2 -100 -9 -112 -13 -24 -1 -25 -196 12 -70 13 -137 24 -147 24 -11 0 -19
4 -19 9 0 31 265 211 310 211 33 0 56 30 29 38 -14 5 -61 52 -159 159 -70 77
-80 90 -80 102 0 6 -20 30 -45 54 -48 48 -56 71 -27 82 9 3 76 18 147 32 72
13 146 28 165 33 51 12 106 8 102 -8z m71 -12 c-3 -11 -7 -20 -9 -20 -2 0 -4
9 -4 20 0 11 4 20 9 20 5 0 7 -9 4 -20z m-557 -83 c-16 -65 -38 -246 -42 -352
-6 -164 -12 -215 -23 -229 -11 -13 -89 -3 -321 41 l-95 18 -3 37 c-3 29 19
127 54 245 6 21 4 22 -45 19 -28 -1 -53 -5 -56 -8 -3 -3 0 -18 6 -34 11 -27
13 -147 5 -204 -3 -14 -5 -28 -5 -33 -1 -8 -37 -1 -80 15 -19 7 -21 11 -11 23
10 12 10 15 -1 17 -8 0 -18 2 -24 3 -5 2 -16 3 -23 4 -12 1 -11 51 3 201 1 14
3 57 3 96 l2 70 93 12 c50 6 134 18 185 26 51 8 118 18 150 21 31 3 84 11 117
18 33 7 73 13 89 14 25 2 27 0 22 -20z m100 -130 c15 -23 50 -67 78 -99 28
-31 61 -70 74 -87 13 -17 31 -31 40 -31 15 -1 15 -2 2 -9 -8 -5 -46 -5 -85 0
-38 5 -73 5 -78 0 -12 -12 36 -39 78 -43 l37 -3 -94 -70 c-51 -38 -108 -82
-127 -98 -18 -15 -35 -26 -37 -24 -2 2 0 28 6 58 5 30 12 92 15 139 2 47 7
112 11 145 10 112 11 120 13 153 1 30 3 32 21 22 11 -6 32 -30 46 -53z m-573
-142 c-7 -21 -13 -19 -13 6 0 11 4 18 10 14 5 -3 7 -12 3 -20z"/>
</g>
</svg>
