<?xml version="1.0" standalone="no"?>
<!DOCTYPE svg PUBLIC "-//W3C//DTD SVG 20010904//EN"
 "http://www.w3.org/TR/2001/REC-SVG-20010904/DTD/svg10.dtd">
<svg version="1.0" xmlns="http://www.w3.org/2000/svg"
 width="191.000000pt" height="102.000000pt" viewBox="0 0 191.000000 102.000000"
 preserveAspectRatio="xMidYMid meet">
<metadata>
Created by potrace 1.16, written by Peter Selinger 2001-2019
</metadata>
<g transform="translate(0.000000,102.000000) scale(0.100000,-0.100000)"
fill="#000000" stroke="none">
<path d="M1746 930 c-67 -21 -113 -26 -140 -15 -10 5 -46 2 -80 -5 -33 -7 -73
-13 -87 -15 -14 -1 -30 -4 -36 -8 -5 -3 -81 -20 -169 -37 -87 -16 -177 -34
-199 -40 -22 -5 -96 -16 -165 -25 -69 -8 -136 -17 -150 -19 -14 -2 -52 -7 -85
-11 -32 -4 -67 -8 -76 -10 -60 -12 -153 -14 -165 -4 -9 8 -23 7 -49 -2 -28
-11 -40 -11 -55 -1 -29 18 -48 15 -64 -10 -22 -36 -28 -92 -27 -258 1 -119 -4
-173 -18 -232 -23 -99 -16 -109 60 -73 30 14 62 25 72 25 10 0 43 8 75 19 78
25 132 33 132 18 0 -7 -7 -43 -15 -82 -18 -85 -18 -80 -1 -66 8 7 18 27 22 44
4 18 8 34 9 37 1 3 5 22 9 42 7 30 13 38 38 43 50 11 258 13 343 3 44 -5 154
-17 245 -28 91 -11 210 -26 265 -35 55 -9 138 -22 185 -30 47 -8 94 -15 105
-17 19 -3 20 3 21 92 1 52 5 129 9 170 4 42 2 117 -4 169 -10 90 -9 95 14 142
14 26 25 56 25 66 0 10 6 28 14 39 20 28 55 122 48 128 -9 10 -45 5 -106 -14z
m40 -52 c-4 -13 -8 -27 -10 -33 -1 -5 -14 -32 -28 -60 l-26 -50 -7 68 c-8 71
-4 82 30 90 42 10 48 8 41 -15z m-158 -12 c33 -1 37 -4 44 -36 4 -19 9 -63 12
-98 2 -35 7 -66 10 -69 15 -15 4 -44 -20 -54 -15 -5 -29 -7 -32 -4 -3 3 -12
-1 -21 -9 -9 -8 -43 -19 -75 -25 -99 -18 -96 -20 -96 50 0 80 -24 77 -28 -3
-2 -46 -7 -57 -22 -61 -16 -4 -20 0 -20 21 1 15 6 43 13 62 14 39 11 73 -6 67
-6 -2 -18 -38 -26 -80 -11 -60 -18 -77 -31 -77 -27 0 -28 7 -14 73 17 79 18
110 2 105 -12 -4 -17 -24 -32 -130 -5 -34 -12 -48 -23 -48 -16 0 -16 12 3 124
6 30 4 38 -7 34 -7 -2 -20 -36 -29 -77 -15 -69 -19 -77 -40 -69 -8 3 4 62 26
136 7 24 -7 30 -24 10 -5 -7 -15 -40 -22 -73 -15 -73 -16 -74 -39 -68 -16 4
-17 10 -9 55 5 27 8 60 6 73 -5 42 -29 13 -34 -41 -3 -27 -7 -55 -9 -61 -6
-19 -57 -16 -106 7 -37 16 -46 17 -58 6 -16 -17 -18 -100 -3 -138 14 -34 32
-35 69 -4 15 12 38 28 50 35 23 12 23 11 16 -50 -5 -51 -4 -61 8 -57 8 3 14
16 14 29 1 31 25 102 38 111 33 21 39 -31 17 -135 -7 -33 -6 -38 8 -35 13 3
19 20 25 73 9 86 12 96 31 89 16 -6 14 -63 -5 -133 -4 -19 -6 -37 -4 -40 13
-12 27 22 36 85 10 72 24 99 38 76 7 -12 -5 -85 -25 -151 -6 -19 -4 -22 12
-19 15 2 20 18 29 81 11 77 24 101 52 90 16 -6 16 -12 -2 -102 -9 -40 -14 -76
-11 -78 11 -11 24 9 30 44 15 85 30 123 49 123 21 0 21 10 1 -135 -5 -36 -3
-45 9 -45 11 0 15 11 15 43 -1 60 19 127 38 127 9 0 58 -20 111 -46 52 -25
105 -49 117 -54 21 -8 22 -12 18 -97 -2 -48 -5 -89 -6 -90 -6 -7 -123 -3 -176
6 -109 20 -115 21 -212 32 -198 22 -254 29 -275 33 -11 3 -56 7 -99 11 -43 3
-80 8 -84 10 -3 2 -54 6 -112 9 -104 5 -158 13 -158 23 0 3 16 28 35 54 19 27
35 53 35 57 0 4 11 23 25 42 14 19 25 44 25 57 0 21 -3 22 -54 18 -29 -2 -66
-1 -82 4 -16 4 -35 6 -41 4 -14 -5 -18 -33 -5 -33 4 0 8 -48 10 -106 l2 -107
-86 7 c-47 3 -99 13 -115 22 -32 16 -32 21 -3 93 8 18 14 46 14 61 0 15 3 41
6 57 6 32 3 31 144 69 103 28 125 35 175 55 28 10 100 30 160 44 61 13 146 34
190 45 142 36 529 107 553 102 13 -2 39 -5 60 -6z m-968 -145 c0 -8 -49 -32
-75 -38 -5 -1 -39 -10 -75 -21 -36 -10 -82 -22 -102 -26 -37 -7 -38 -6 -38 24
0 17 5 30 13 31 6 0 44 4 82 10 39 5 94 12 124 14 30 3 57 7 59 10 8 7 12 6
12 -4z m-330 -58 c0 -33 -9 -47 -32 -56 -14 -5 -16 0 -15 29 4 52 47 76 47 27z
m1383 -175 l5 -57 -66 26 c-37 14 -91 34 -120 45 -59 22 -60 30 -4 34 20 1 66
11 102 22 75 22 73 24 83 -70z m-1411 35 c-3 -27 -11 -57 -19 -68 -14 -18 -14
-15 -11 38 4 49 16 75 34 77 1 0 -1 -21 -4 -47z m713 28 l30 -7 -40 -26 c-44
-28 -55 -23 -55 26 0 23 3 27 18 21 9 -4 31 -11 47 -14z m-375 -46 c0 -7 -61
-119 -71 -129 -5 -6 -9 16 -9 55 0 36 3 69 7 72 7 8 73 10 73 2z m-320 -200
c23 -8 70 -15 104 -16 43 0 55 -3 41 -9 -11 -5 -35 -9 -52 -9 -22 -1 -33 -6
-33 -15 0 -10 -20 -18 -57 -26 -32 -6 -68 -15 -81 -21 -21 -8 -23 -7 -17 13 4
13 15 30 26 40 10 9 19 26 19 37 0 25 -3 25 50 6z"/>
</g>
</svg>
