<?xml version="1.0" standalone="no"?>
<!DOCTYPE svg PUBLIC "-//W3C//DTD SVG 20010904//EN"
 "http://www.w3.org/TR/2001/REC-SVG-20010904/DTD/svg10.dtd">
<svg version="1.0" xmlns="http://www.w3.org/2000/svg"
 width="201.000000pt" height="114.000000pt" viewBox="0 0 201.000000 114.000000"
 preserveAspectRatio="xMidYMid meet">
<metadata>
Created by potrace 1.16, written by Peter Selinger 2001-2019
</metadata>
<g transform="translate(0.000000,114.000000) scale(0.100000,-0.100000)"
fill="#000000" stroke="none">
<path d="M500 955 c0 -14 1 -28 3 -32 3 -11 -113 -21 -145 -12 -31 8 -68 1
-68 -13 0 -5 9 -12 19 -15 23 -6 32 -38 32 -109 1 -169 8 -405 14 -414 3 -5 2
-10 -4 -10 -5 0 -13 5 -16 10 -11 18 -35 11 -35 -11 0 -13 10 -23 30 -30 17
-6 30 -14 30 -17 0 -4 26 -7 58 -8 32 -1 80 -4 107 -9 l50 -7 -101 -49 c-55
-27 -123 -70 -151 -94 l-51 -45 -1 117 c-2 122 -11 162 -28 127 -9 -17 1 -302
11 -311 2 -2 20 19 40 46 47 64 90 97 196 151 47 23 90 46 95 50 6 4 102 6
215 4 113 -2 291 1 395 7 105 5 258 12 340 14 201 6 295 15 295 27 0 6 -39 7
-110 3 l-110 -8 16 44 c13 34 16 77 15 184 l-1 140 40 79 c46 92 66 116 92
116 11 0 18 5 16 13 -7 18 -93 20 -258 7 -318 -27 -767 -17 -801 17 -9 9 -16
10 -26 2 -15 -13 -112 18 -120 38 -9 23 -33 14 -33 -12 0 -21 8 -29 40 -43
l41 -17 -48 -37 c-26 -20 -49 -36 -50 -34 -1 1 -3 39 -4 84 -1 62 -5 82 -15
82 -8 0 -14 -10 -14 -25z m-1 -137 c-3 -57 -1 -73 10 -73 8 0 19 9 25 19 13
24 59 64 99 89 23 14 49 19 110 18 43 0 83 -3 88 -6 10 -7 461 -7 534 -1 28 3
87 8 133 12 l82 6 0 -68 c0 -38 5 -89 11 -112 7 -35 12 -225 8 -364 0 -16 -11
-18 -82 -18 -45 0 -120 -5 -167 -10 -113 -14 -621 -14 -740 0 -52 6 -126 16
-164 22 l-69 12 9 135 c4 75 7 161 6 191 -1 34 4 70 15 95 21 49 73 125 86
125 5 0 8 -32 6 -72z m-81 27 c-13 -19 -26 -35 -29 -35 -4 0 -9 16 -11 35 -4
34 -3 35 29 35 l33 0 -22 -35z m1292 25 c0 -3 -11 -16 -24 -29 -12 -12 -29
-40 -37 -63 -12 -39 -14 -40 -20 -17 -4 13 -7 45 -8 71 l-1 47 45 -1 c25 0 45
-4 45 -8z"/>
<path d="M1261 736 c-9 -11 -7 -27 9 -73 12 -32 24 -66 27 -75 4 -15 -12 -16
-181 -18 -178 -1 -185 0 -196 20 -8 15 -8 25 -1 34 6 6 13 30 17 53 6 39 5 41
-22 46 -56 9 -132 8 -139 -3 -3 -5 1 -10 9 -10 9 0 16 -7 16 -16 0 -10 -5 -14
-15 -10 -33 12 -172 19 -179 8 -9 -14 18 -21 89 -23 71 -2 105 -13 105 -33 0
-13 -16 -14 -104 -9 -72 4 -105 2 -110 -6 -5 -8 8 -11 42 -11 27 0 77 -3 111
-6 52 -6 61 -10 61 -26 0 -19 -5 -19 -94 -13 -65 5 -96 4 -100 -4 -10 -16 8
-20 98 -23 62 -2 81 -7 90 -20 21 -34 -5 -42 -94 -28 -74 12 -103 10 -87 -6 8
-8 147 -32 172 -29 11 1 25 3 32 4 6 0 13 18 15 39 3 35 5 37 41 40 43 4 67
-11 67 -39 0 -11 5 -19 11 -19 7 0 9 10 7 25 -3 14 -3 27 1 29 3 2 65 7 136
10 l130 7 -63 -64 c-55 -56 -61 -65 -48 -77 13 -10 16 -10 16 2 0 7 23 36 50
63 28 27 50 55 50 62 0 9 17 13 58 12 l57 0 -35 -27 c-74 -58 -128 -122 -102
-122 17 0 176 162 164 167 -27 10 -51 47 -57 87 -7 37 -30 96 -39 96 -2 0 -9
-6 -15 -14z m-354 -78 c-3 -7 -5 -2 -5 12 0 14 2 19 5 13 2 -7 2 -19 0 -25z
m-67 2 c0 -5 -5 -10 -11 -10 -5 0 -7 5 -4 10 3 6 8 10 11 10 2 0 4 -4 4 -10z
m37 -17 c-2 -10 3 -30 10 -45 13 -28 13 -28 -22 -28 -40 0 -41 1 -18 52 17 38
38 53 30 21z"/>
<path d="M1147 733 c-18 -17 -3 -54 42 -101 27 -29 55 -52 61 -52 14 0 15 -4
-35 87 -38 68 -52 82 -68 66z"/>
<path d="M1380 696 c0 -36 7 -52 35 -86 19 -23 35 -46 35 -51 0 -11 30 -12 30
-1 0 4 -13 34 -29 67 -17 33 -33 72 -36 88 -9 46 -35 34 -35 -17z"/>
<path d="M1418 513 c-44 -49 -90 -123 -75 -123 11 0 102 113 115 143 8 17 -16
5 -40 -20z"/>
<path d="M760 421 c-14 -27 -13 -41 5 -41 10 0 15 10 15 30 0 35 -5 38 -20 11z"/>
</g>
</svg>
