<?xml version="1.0" standalone="no"?>
<!DOCTYPE svg PUBLIC "-//W3C//DTD SVG 20010904//EN"
 "http://www.w3.org/TR/2001/REC-SVG-20010904/DTD/svg10.dtd">
<svg version="1.0" xmlns="http://www.w3.org/2000/svg"
 width="277.000000pt" height="150.000000pt" viewBox="0 0 277.000000 150.000000"
 preserveAspectRatio="xMidYMid meet">
<metadata>
Created by potrace 1.16, written by Peter Selinger 2001-2019
</metadata>
<g transform="translate(0.000000,150.000000) scale(0.100000,-0.100000)"
fill="#000000" stroke="none">
<path d="M1211 1406 c-7 -8 -19 -12 -26 -10 -20 8 -34 -26 -42 -103 l-8 -68
-81 -40 c-85 -41 -114 -61 -114 -76 0 -5 8 -9 18 -9 9 0 26 -15 38 -33 11 -17
28 -43 37 -58 l17 -25 -178 3 c-97 2 -202 8 -233 13 -106 19 -242 68 -283 101
-48 40 -91 47 -106 18 -7 -12 -10 -65 -9 -130 2 -98 0 -111 -17 -128 -22 -20
-40 -142 -49 -331 -2 -52 -9 -111 -15 -130 -13 -46 -13 -50 5 -50 16 0 44 84
46 134 0 17 3 25 6 19 2 -7 9 -13 14 -13 13 0 133 80 137 91 2 5 24 9 48 9
l44 0 0 -37 c0 -21 -4 -54 -9 -73 -5 -19 -11 -61 -14 -92 -4 -45 -2 -58 8 -58
14 0 20 26 46 183 l13 77 45 -1 c26 0 120 -6 211 -12 l165 -12 -29 -22 c-16
-13 -46 -28 -67 -33 -53 -15 -50 -37 9 -61 26 -11 73 -32 104 -47 56 -26 58
-28 53 -62 -2 -19 -7 -67 -10 -106 -8 -90 7 -102 68 -53 21 17 74 46 116 64
42 17 103 43 136 57 54 23 79 26 240 33 229 9 572 7 630 -4 25 -5 63 -21 85
-36 53 -37 74 -29 67 26 -4 32 2 61 29 130 19 48 34 97 34 107 0 10 21 43 48
73 26 30 62 73 80 96 33 42 43 79 18 70 -18 -7 -36 12 -36 37 0 11 -13 34 -29
51 -16 16 -43 57 -60 90 -18 32 -38 66 -45 75 -31 37 -56 94 -56 128 0 50 23
132 51 181 12 22 20 44 16 47 -7 8 -148 -48 -187 -74 -25 -16 -35 -17 -395
-25 -227 -5 -493 40 -551 94 -18 17 -23 18 -33 5z m6 -54 c6 -11 38 -27 73
-36 34 -10 60 -19 58 -22 -19 -19 -158 -87 -165 -81 -6 7 9 157 16 157 3 0 11
-8 18 -18z m1073 -48 c-11 -25 -20 -55 -20 -67 -1 -20 -4 -18 -30 13 -16 19
-30 41 -30 47 0 13 65 52 87 53 9 0 6 -14 -7 -46z m-120 -38 c0 -7 17 -38 39
-68 21 -31 55 -84 75 -119 20 -35 45 -75 55 -89 10 -14 40 -59 66 -100 27 -41
59 -87 72 -101 l23 -25 -34 -48 c-104 -146 -260 -278 -368 -310 -26 -8 -22
-23 10 -35 19 -7 -86 -9 -358 -5 -405 5 -514 13 -620 42 -54 14 -66 21 -68 40
-3 17 -8 22 -19 18 -11 -5 -14 -1 -10 11 2 10 13 49 23 87 18 66 21 70 99 134
78 64 105 90 105 101 0 3 -29 41 -64 85 -35 43 -66 89 -69 102 -8 42 20 135
49 165 15 16 31 29 35 29 4 0 31 14 59 32 100 62 108 63 523 65 297 1 377 -1
377 -11z m-1067 -138 c-8 -71 -14 -98 -22 -98 -9 0 -75 90 -69 95 7 7 73 34
84 35 6 0 9 -14 7 -32z m-640 -139 c63 -19 77 -30 44 -35 -7 -1 -46 -18 -87
-38 -41 -20 -85 -36 -97 -36 -22 0 -23 3 -22 94 l1 95 46 -30 c26 -16 78 -39
115 -50z m556 -31 c49 -2 55 -5 77 -38 12 -19 43 -55 68 -79 25 -24 46 -47 46
-51 0 -6 -135 -120 -143 -120 -2 0 -21 -16 -43 -36 l-38 -36 -106 6 c-58 3
-156 12 -218 18 -113 11 -113 11 -107 36 6 25 47 82 98 138 16 18 24 34 19 38
-12 7 -185 26 -191 20 -2 -2 -3 -35 -2 -74 1 -38 -1 -84 -4 -103 l-7 -33 -51
9 c-29 5 -67 15 -85 23 l-33 14 36 56 c20 31 50 71 66 88 16 17 29 36 29 42 0
12 84 54 110 54 10 0 26 7 34 16 13 12 33 15 94 12 42 -3 102 -1 132 3 30 4
80 5 110 3 30 -3 79 -5 109 -6z m-769 -143 c0 -42 13 -44 60 -10 19 14 35 25
37 25 6 0 -29 -53 -62 -95 -18 -22 -40 -53 -49 -70 l-17 -30 5 34 c4 18 6 67
6 107 0 43 4 74 10 74 6 0 10 -16 10 -35z m341 -49 c-22 -29 -49 -69 -60 -87
l-21 -34 0 88 0 87 60 0 61 0 -40 -54z m-282 -147 c17 -6 31 -14 31 -18 0 -8
-93 -71 -103 -71 -7 0 7 51 22 79 14 25 10 24 50 10z m715 -46 c-6 -25 -27
-97 -40 -132 -3 -11 -9 -9 -27 7 -13 12 -37 25 -55 28 -18 4 -32 9 -32 13 0 7
102 71 132 83 10 4 18 12 18 18 0 5 2 10 5 10 3 0 3 -12 -1 -27z m1310 -80
c-8 -21 -25 -60 -36 -88 -11 -27 -21 -52 -23 -54 -2 -2 -16 6 -32 16 -15 11
-37 23 -48 27 l-20 8 20 15 c11 8 49 36 85 63 36 27 66 49 68 50 1 0 -5 -17
-14 -37z m-1164 -137 c36 -8 81 -16 100 -16 l35 -1 -26 -14 c-15 -8 -64 -28
-109 -44 -46 -17 -94 -38 -106 -46 -13 -8 -26 -15 -30 -15 -7 0 5 140 13 153
6 9 20 7 123 -17z"/>
<path d="M1351 1125 c-104 -54 -140 -79 -129 -91 4 -3 16 -1 28 6 11 6 29 8
40 5 22 -7 140 -133 161 -172 13 -24 12 -27 -26 -61 -112 -98 -173 -143 -212
-158 -51 -20 -55 -39 -12 -62 17 -9 50 -31 72 -48 54 -40 81 -48 96 -31 9 11
8 17 -5 28 -18 15 -15 43 17 146 14 43 32 77 54 99 41 41 52 42 67 9 6 -14 15
-25 19 -25 17 0 19 21 4 49 -14 29 -14 30 14 50 37 27 45 26 64 -3 15 -22 14
-25 -31 -68 -26 -25 -80 -66 -119 -92 -50 -32 -73 -53 -73 -66 0 -11 7 -20 15
-20 12 0 13 -4 5 -19 -16 -31 -12 -40 19 -39 43 1 105 -33 109 -59 3 -22 32
-33 32 -12 0 5 14 15 30 20 17 6 30 16 30 23 0 6 -13 17 -30 23 -28 10 -30 15
-30 62 0 64 33 154 65 175 23 15 25 15 41 -9 16 -24 44 -34 44 -16 0 4 -9 20
-21 35 l-20 26 30 26 c39 32 30 52 -10 22 -29 -21 -29 -22 -44 -2 -32 40 -35
51 -20 64 16 13 10 35 -6 25 -11 -7 -12 15 -1 31 4 6 17 13 30 16 18 5 28 -3
57 -47 20 -29 42 -59 50 -65 8 -7 15 -17 15 -23 0 -5 11 -25 25 -43 14 -18 25
-37 25 -42 0 -5 -49 -53 -110 -107 -113 -102 -134 -132 -81 -120 29 6 92 -21
147 -64 26 -21 54 -28 54 -14 0 4 -10 27 -22 51 -23 48 -20 83 12 172 7 19 15
41 17 49 3 11 6 12 15 3 7 -7 18 -12 25 -12 11 0 11 5 2 21 -10 19 -6 26 32
59 l44 38 27 -20 c15 -10 37 -32 49 -49 l21 -31 -33 -28 c-19 -16 -58 -46 -88
-67 -29 -21 -69 -52 -89 -69 l-35 -31 54 -54 c65 -67 110 -99 137 -99 35 0 33
16 -6 41 -46 30 -47 58 -7 147 20 46 31 59 44 55 12 -4 13 -2 3 4 -21 16 1 55
58 103 l51 43 27 -26 26 -27 -49 -51 c-28 -28 -69 -64 -92 -80 -45 -31 -57
-55 -23 -46 14 3 33 -10 69 -49 48 -52 81 -68 81 -41 0 7 -5 18 -11 24 -8 8
-8 21 -1 45 6 18 13 52 16 75 9 61 34 112 79 160 51 54 40 80 -12 29 -37 -36
-38 -36 -55 -17 -12 13 -16 27 -11 42 6 18 4 21 -9 16 -14 -5 -16 4 -18 61 -3
97 0 132 13 175 7 20 9 40 6 43 -3 4 -29 -5 -56 -20 -59 -30 -73 -32 -69 -9 5
30 -29 26 -90 -10 -99 -58 -128 -57 -98 1 8 16 13 32 10 34 -2 3 -44 -15 -92
-39 -48 -24 -95 -42 -105 -39 -9 2 -21 -3 -26 -12 -20 -36 -21 -2 -2 49 12 29
17 57 13 61 -4 4 -35 -6 -69 -22 -33 -16 -69 -31 -79 -33 -11 -2 -29 -9 -41
-15 -27 -15 -27 -16 -8 38 8 23 15 44 15 46 0 11 -35 -3 -129 -51z m64 -22
c-4 -10 -9 -33 -12 -51 l-6 -33 -34 33 -34 33 38 17 c48 22 57 22 48 1z m196
-5 c-4 -13 -14 -44 -21 -71 -8 -26 -18 -46 -23 -44 -6 2 -17 23 -26 47 l-17
45 46 22 c25 12 46 22 47 22 1 1 -2 -9 -6 -21z m188 -79 c-16 -45 -29 -83 -29
-86 0 -3 -16 19 -36 48 -20 29 -32 55 -27 57 6 2 96 48 120 61 0 1 -12 -36
-28 -80z m211 78 c0 -2 -9 -14 -20 -27 -13 -16 -17 -27 -10 -35 10 -12 -4 -82
-20 -98 -4 -5 -24 15 -45 43 -21 28 -35 54 -31 57 25 25 126 73 126 60z m115
-87 c0 -49 -1 -90 -3 -90 -5 0 -92 123 -92 130 0 4 21 17 48 28 26 11 47 21
47 21 0 1 0 -39 0 -89z m-617 -6 c7 -21 19 -46 27 -55 8 -8 15 -21 15 -27 0
-12 -48 -48 -54 -41 -2 2 -17 25 -33 51 -42 66 -30 124 22 114 6 -2 16 -20 23
-42z m422 -122 c0 -4 -18 -22 -40 -40 l-40 -33 -29 46 c-29 46 -29 47 -14 98
8 29 17 55 20 59 4 8 103 -117 103 -130z m184 -19 c18 -21 18 -22 -8 -47 -32
-33 -40 -32 -55 0 -6 15 -23 35 -36 46 -24 18 -27 35 -19 95 l5 31 47 -51 c26
-29 56 -62 66 -74z m-333 -173 c-10 -22 -21 -43 -24 -47 -4 -3 -7 -21 -7 -40
0 -18 -2 -33 -5 -33 -2 0 -20 11 -39 24 l-35 23 62 57 c33 31 62 56 64 56 1 0
-6 -18 -16 -40z m-421 28 c-1 -2 -11 -33 -23 -70 l-23 -68 -37 27 -37 26 50
35 c28 19 50 39 50 43 0 5 5 9 10 9 6 0 10 -1 10 -2z m134 -20 c-18 -31 -57
-78 -64 -78 -18 0 4 42 34 65 35 28 40 30 30 13z m28 -55 c-4 -53 -9 -59 -45
-45 -16 7 -14 12 15 54 18 26 33 46 33 45 1 -1 -1 -26 -3 -54z m634 7 c-3 -16
-9 -44 -12 -61 l-6 -31 -29 28 -29 28 37 33 c21 18 39 33 41 33 2 0 1 -13 -2
-30z m-198 -32 c-32 -78 -37 -83 -65 -57 -12 13 -23 26 -23 30 0 8 90 77 102
78 4 1 -3 -23 -14 -51z"/>
</g>
</svg>
