<?xml version="1.0" standalone="no"?>
<!DOCTYPE svg PUBLIC "-//W3C//DTD SVG 20010904//EN"
 "http://www.w3.org/TR/2001/REC-SVG-20010904/DTD/svg10.dtd">
<svg version="1.0" xmlns="http://www.w3.org/2000/svg"
 width="258.000000pt" height="150.000000pt" viewBox="0 0 258.000000 150.000000"
 preserveAspectRatio="xMidYMid meet">
<metadata>
Created by potrace 1.16, written by Peter Selinger 2001-2019
</metadata>
<g transform="translate(0.000000,150.000000) scale(0.100000,-0.100000)"
fill="#000000" stroke="none">
<path d="M902 1445 c-27 -31 -100 -37 -146 -13 -22 12 -49 -8 -28 -21 27 -17
16 -310 -13 -339 -8 -8 -395 -10 -395 -2 0 3 -46 5 -103 5 l-102 0 -2 -205 c0
-121 -6 -216 -12 -233 -14 -36 -14 -37 2 -37 7 0 26 14 43 31 57 60 187 94
397 104 l147 6 0 -40 c0 -36 -5 -44 -35 -63 -19 -13 -37 -29 -40 -37 -9 -23
14 -42 43 -34 l25 6 -6 -74 c-7 -77 -9 -86 -22 -132 -4 -17 -3 -33 5 -42 9
-11 8 -26 -3 -67 -28 -101 -29 -108 -11 -108 14 0 103 53 139 82 6 5 41 27 78
49 l68 40 152 -6 c83 -3 183 -10 222 -15 38 -5 96 -6 128 -4 37 4 63 1 73 -7
10 -8 18 -9 27 0 9 6 52 10 113 8 93 -2 99 -1 99 18 0 13 -10 23 -30 29 -16 6
-32 11 -34 13 -9 6 -9 72 1 133 16 105 24 125 65 144 20 9 56 33 80 53 43 35
44 36 161 40 160 7 262 6 270 -1 3 -4 5 -30 4 -57 -2 -55 11 -89 34 -89 12 0
15 9 13 38 -1 20 1 51 4 67 4 17 9 45 12 64 8 50 28 82 100 164 36 41 65 76
65 79 0 4 -84 6 -444 7 -188 1 -283 14 -309 42 -22 23 -18 40 28 124 59 108
70 125 80 125 10 0 45 50 45 64 0 3 -40 6 -89 6 -50 0 -92 4 -95 8 -3 5 -77 9
-165 10 -88 1 -231 6 -317 12 -135 9 -164 14 -207 36 -27 13 -52 23 -54 20
-12 -12 11 -45 38 -57 28 -11 29 -13 12 -22 -10 -5 -31 -21 -46 -36 -43 -40
-52 -12 -32 107 7 38 -4 41 -33 7z m-56 -97 c-12 -29 -32 -71 -44 -93 -24 -45
-24 -45 -26 71 l-2 62 39 0 c22 1 42 3 45 6 13 14 10 3 -12 -46z m73 -76 c13
-2 36 6 52 17 33 24 39 26 39 8 0 -20 37 -84 104 -177 l64 -88 -55 -45 -54
-46 -37 42 c-21 23 -70 85 -110 138 -39 52 -77 101 -85 107 -12 10 -10 21 17
72 l31 60 5 -43 c4 -35 9 -43 29 -45z m389 77 c86 1 164 2 172 2 8 1 52 -2 98
-6 80 -8 83 -9 97 -39 11 -24 13 -44 6 -86 -5 -30 -7 -63 -5 -73 8 -43 -18
-78 -105 -137 -47 -32 -111 -79 -141 -103 l-54 -45 -39 52 c-21 28 -48 66 -59
84 l-20 33 23 26 c13 14 42 37 64 51 22 14 58 40 80 58 22 19 68 56 103 84 59
48 75 70 51 70 -12 0 -48 -26 -179 -131 -52 -41 -112 -86 -133 -99 l-39 -23
-23 29 c-13 16 -34 46 -47 67 -13 21 -33 52 -46 68 -13 15 -25 41 -26 56 -2
19 -10 29 -27 34 l-24 6 25 10 c49 20 55 21 73 16 9 -2 88 -4 175 -4z m418
-20 c4 -7 27 -9 61 -6 52 5 54 4 38 -13 -20 -22 -81 -124 -92 -153 -6 -15 -10
3 -14 63 -3 47 -9 93 -13 103 -9 19 8 24 20 6z m-852 -219 c32 -49 65 -95 74
-102 19 -16 72 -88 72 -98 0 -11 -269 -210 -284 -210 -3 0 -4 6 -1 13 2 6 6
73 10 147 10 227 10 224 48 313 7 15 14 27 18 27 3 0 31 -40 63 -90z m-397
-81 c-16 -9 -190 -49 -215 -49 -11 0 -11 2 0 13 42 38 118 57 197 48 26 -3 30
-6 18 -12z m-259 -4 c2 -2 -7 -26 -56 -135 l-11 -25 -1 25 c0 14 -2 53 -4 88
l-2 64 35 -7 c20 -4 37 -8 39 -10z m497 -35 c-2 -19 -7 -66 -10 -105 -8 -91
-14 -125 -26 -125 -5 0 -9 4 -9 8 0 5 -112 7 -249 4 -189 -3 -250 -1 -256 8
-4 7 -3 15 4 19 6 4 18 31 27 60 20 68 52 98 112 106 26 4 72 13 102 22 30 8
69 17 85 20 17 3 48 8 70 13 22 4 66 7 98 6 l58 -1 -6 -35z m943 -174 c-1
-125 -6 -224 -13 -253 -12 -46 -12 -47 -25 -23 -7 14 -36 50 -65 82 -29 31
-75 91 -103 135 l-52 78 23 18 c60 49 221 167 228 167 4 0 7 -92 7 -204z m146
160 l28 -11 -56 -24 c-31 -12 -56 -29 -56 -37 0 -16 11 -18 26 -6 5 5 41 20
79 35 75 28 176 35 380 26 83 -4 90 -6 88 -24 -1 -11 -4 -49 -7 -84 -3 -35 -8
-66 -11 -69 -6 -6 -61 -9 -335 -17 l-235 -6 2 88 c3 169 -1 153 36 146 17 -3
45 -11 61 -17z m-534 -63 c30 -43 56 -80 58 -84 1 -3 -22 -25 -52 -47 -52 -40
-56 -41 -68 -23 -7 10 -37 44 -65 75 -29 31 -53 61 -53 65 0 11 100 91 114 91
6 0 36 -35 66 -77z m1150 51 c0 -9 -93 -125 -97 -121 -2 3 -1 29 3 60 6 51 9
56 33 60 45 7 61 7 61 1z m-1319 -151 c25 -27 51 -61 59 -76 13 -26 12 -30
-11 -51 -13 -13 -55 -44 -94 -69 -208 -135 -276 -186 -286 -216 -9 -26 -39 -4
-39 29 0 16 -5 30 -11 30 -5 0 -8 4 -5 8 3 5 6 32 7 61 2 45 7 55 31 72 31 22
36 39 12 39 -19 0 12 29 91 85 31 22 84 61 118 87 34 26 67 48 72 48 6 0 31
-21 56 -47z m284 -55 c25 -45 136 -178 147 -178 4 0 13 -12 18 -26 6 -15 19
-39 30 -54 11 -16 20 -34 20 -41 0 -7 6 -20 14 -28 8 -9 16 -32 18 -51 3 -33
1 -35 -31 -38 -54 -5 -76 5 -105 49 -15 23 -69 87 -120 143 -91 100 -141 164
-135 171 26 24 106 84 114 85 6 0 19 -15 30 -32z m-1155 -53 c-47 -19 -85 -35
-85 -35 -1 0 1 16 3 35 l4 35 82 0 81 0 -85 -35z m1563 29 c29 -5 35 -9 26
-20 -13 -16 -109 -78 -113 -73 -1 2 -1 25 2 52 4 52 8 53 85 41z m-554 -104
c6 0 10 -4 9 -9 -2 -6 42 -56 97 -113 101 -103 135 -144 135 -162 0 -8 -160
-3 -280 9 -19 1 -95 4 -169 5 -73 2 -154 8 -179 14 l-46 12 85 66 c46 36 120
89 164 118 44 30 93 64 110 78 l29 24 17 -21 c10 -12 22 -21 28 -21z m-426
-290 c20 -8 37 -16 37 -20 0 -6 -162 -112 -166 -107 -2 1 1 20 6 42 4 22 11
56 14 76 6 35 8 37 39 29 17 -4 49 -13 70 -20z"/>
</g>
</svg>
