<?xml version="1.0" standalone="no"?>
<!DOCTYPE svg PUBLIC "-//W3C//DTD SVG 20010904//EN"
 "http://www.w3.org/TR/2001/REC-SVG-20010904/DTD/svg10.dtd">
<svg version="1.0" xmlns="http://www.w3.org/2000/svg"
 width="216.000000pt" height="164.000000pt" viewBox="0 0 216.000000 164.000000"
 preserveAspectRatio="xMidYMid meet">
<metadata>
Created by potrace 1.16, written by Peter Selinger 2001-2019
</metadata>
<g transform="translate(0.000000,164.000000) scale(0.100000,-0.100000)"
fill="#000000" stroke="none">
<path d="M1110 1550 c-8 -5 -25 -7 -37 -4 -18 5 -25 0 -34 -22 -15 -40 -49
-236 -43 -246 9 -15 34 -8 59 15 18 16 67 33 167 57 127 31 156 34 260 32 145
-3 163 -9 171 -57 3 -21 3 -50 0 -66 -5 -26 -10 -29 -47 -30 -22 -1 -57 -3
-76 -5 -19 -1 -38 3 -42 9 -8 14 -243 10 -270 -4 -20 -11 -24 -35 -6 -41 15
-5 23 -122 11 -168 l-9 -34 -150 -1 c-303 -1 -629 48 -703 107 -24 18 -26 18
-38 2 -7 -9 -15 -37 -18 -63 -11 -90 -27 -186 -35 -201 -4 -8 -2 -27 4 -41 11
-26 6 -277 -9 -432 -6 -63 -5 -68 12 -65 21 4 38 74 49 203 4 55 12 86 24 100
10 11 27 36 39 55 l21 35 1 -35 c2 -69 10 -135 18 -143 5 -5 26 8 47 28 45 42
153 100 213 114 l41 9 0 -88 c0 -93 12 -144 32 -138 8 3 12 36 13 105 0 56 2
104 5 106 3 3 77 7 165 10 167 6 190 9 201 20 4 4 12 7 18 7 6 0 5 -4 -2 -9
-10 -6 -5 -10 17 -14 29 -6 30 -9 28 -52 -2 -43 -3 -45 -33 -45 -17 0 -37 7
-44 16 -8 9 -25 14 -44 12 l-31 -3 -3 -156 c-3 -180 5 -201 51 -149 15 17 35
30 45 30 10 0 22 4 28 9 29 27 140 75 215 91 47 11 99 24 115 31 19 7 70 8
154 4 107 -6 128 -5 139 8 10 13 9 17 -7 26 -10 5 -33 9 -50 9 -18 -1 -35 1
-38 4 -3 3 -5 113 -4 244 0 180 4 242 13 253 14 17 74 142 97 201 8 19 23 51
35 70 38 63 75 139 75 155 0 14 -12 15 -90 9 -78 -6 -90 -5 -90 9 0 13 -23 15
-172 16 -95 1 -189 4 -208 7 -70 11 -194 57 -215 80 -15 16 -25 20 -35 14z
m19 -74 c7 -8 42 -22 79 -32 37 -9 71 -20 75 -24 4 -4 -36 -17 -90 -30 -54
-13 -106 -27 -116 -32 -10 -5 -21 -8 -23 -5 -4 3 11 85 22 125 5 16 39 15 53
-2z m725 -113 c-7 -16 -14 -31 -14 -35 0 -4 -32 -74 -72 -155 -61 -127 -72
-144 -80 -124 -4 12 -6 27 -3 31 3 5 6 69 6 143 2 155 1 154 99 160 30 2 60 4
67 5 8 1 8 -6 -3 -25z m-810 -29 c3 -8 2 -12 -4 -9 -6 3 -10 10 -10 16 0 14 7
11 14 -7z m366 -150 c0 -3 -18 -31 -39 -62 -22 -32 -50 -82 -63 -112 l-23 -55
-5 105 c-3 58 -3 111 -1 118 3 12 131 19 131 6z m180 -19 c0 -19 -56 -137 -91
-193 -25 -39 -27 -41 -32 -20 -3 13 -9 61 -13 108 -7 95 -3 105 51 113 64 9
85 7 85 -8z m51 -107 c1 -62 2 -212 2 -333 l-1 -220 -71 1 c-104 2 -103 0 -95
173 6 145 26 240 60 281 19 24 94 178 94 195 0 8 2 15 5 15 2 0 5 -51 6 -112z
m-241 -16 c-8 -3 -7 -8 2 -19 8 -10 13 -83 16 -250 l5 -236 -59 7 c-75 9 -91
14 -96 29 -2 7 -2 85 0 175 3 121 7 162 16 162 20 0 40 29 71 100 38 88 49
102 53 64 2 -15 -1 -30 -8 -32z m-1007 -24 c12 -6 51 -19 87 -28 l65 -17 -39
-7 c-22 -4 -66 -21 -98 -37 -31 -16 -60 -29 -63 -29 -2 0 -2 24 1 53 3 28 6
58 7 65 0 15 12 15 40 0z m303 -57 c-11 -17 90 -24 305 -22 l217 2 -5 -108
c-5 -122 -8 -137 -24 -127 -11 7 -63 7 -262 -1 -121 -5 -117 -12 -51 79 52 73
47 78 -69 81 l-99 2 6 -26 c3 -14 9 -50 12 -78 7 -52 6 -53 -19 -53 -14 0 -56
6 -94 14 -86 18 -135 22 -151 12 -29 -17 -8 15 34 54 51 47 54 74 6 61 -16 -5
-62 -12 -103 -16 -67 -7 -72 -6 -60 9 20 24 93 53 190 77 47 11 104 27 126 34
49 17 47 17 41 6z m143 -162 c-5 -11 -21 -36 -34 -56 -27 -38 -29 -36 -39 34
l-6 42 37 3 c49 4 55 1 42 -23z m-384 -7 c-19 -13 -72 -87 -94 -130 -12 -24
-24 -42 -25 -40 -2 1 -6 40 -9 85 l-6 82 37 4 c68 7 107 7 97 -1z m42 -104
c15 -6 48 -14 73 -17 l45 -7 -45 -23 c-25 -13 -59 -35 -76 -48 l-31 -23 -7 46
c-12 90 -10 93 41 72z m703 -184 c36 -2 94 -7 130 -10 l65 -6 -40 -15 c-61
-22 -166 -73 -205 -100 -19 -12 -37 -23 -40 -23 -3 0 -6 39 -7 86 -2 76 0 85
15 79 9 -3 46 -8 82 -11z"/>
</g>
</svg>
