<?xml version="1.0" standalone="no"?>
<!DOCTYPE svg PUBLIC "-//W3C//DTD SVG 20010904//EN"
 "http://www.w3.org/TR/2001/REC-SVG-20010904/DTD/svg10.dtd">
<svg version="1.0" xmlns="http://www.w3.org/2000/svg"
 width="142.000000pt" height="112.000000pt" viewBox="0 0 142.000000 112.000000"
 preserveAspectRatio="xMidYMid meet">
<metadata>
Created by potrace 1.16, written by Peter Selinger 2001-2019
</metadata>
<g transform="translate(0.000000,112.000000) scale(0.100000,-0.100000)"
fill="#000000" stroke="none">
<path d="M263 1010 c-23 -9 -25 -15 -42 -150 -26 -191 -20 -230 24 -174 l23
29 -13 -75 c-7 -41 -16 -105 -20 -141 -4 -36 -10 -71 -14 -78 -9 -15 -41 -4
-41 14 0 8 -5 17 -10 20 -20 12 -31 -50 -33 -186 -3 -147 4 -167 40 -127 71
80 212 167 296 182 20 4 37 12 37 18 0 11 -28 7 -102 -13 -22 -5 -82 -39 -134
-74 -51 -35 -94 -61 -95 -57 -2 23 3 167 6 171 2 2 12 0 22 -4 10 -4 87 -6
171 -6 l152 2 0 -63 c0 -35 -6 -87 -14 -116 -7 -29 -9 -52 -5 -52 17 0 41 76
46 147 l6 71 46 5 c160 16 301 27 401 31 l115 4 -3 -49 c-2 -27 -1 -57 2 -66
10 -26 30 1 33 45 2 20 4 43 5 50 1 6 12 12 26 12 15 0 22 5 19 13 -2 6 -12
11 -21 11 -35 -3 -7 139 44 222 12 18 34 81 50 139 15 58 40 123 54 145 23 34
23 39 8 42 -9 3 -30 1 -47 -4 -16 -5 -84 -17 -150 -29 -101 -17 -160 -20 -370
-19 -137 0 -261 2 -275 5 -101 17 -138 34 -189 87 -21 21 -30 25 -48 18z m31
-55 c5 -15 70 -58 92 -61 6 -1 23 -8 38 -16 l26 -14 -20 -22 c-16 -17 -110
-72 -172 -100 -17 -8 -7 48 10 57 9 6 11 11 5 11 -14 0 -17 41 -7 114 7 47 17
58 28 31z m996 -82 c-16 -32 -30 -62 -30 -66 0 -5 -11 -36 -24 -70 -13 -34
-29 -81 -36 -105 -18 -57 -29 -63 -19 -9 4 23 8 92 9 152 0 61 4 115 8 120 7
11 72 31 105 34 15 1 14 -7 -13 -56z m-135 -45 c-4 -40 -9 -86 -11 -103 -2
-16 -6 -93 -10 -170 -4 -77 -8 -142 -10 -144 -2 -2 -63 -5 -136 -6 -73 -2
-191 -8 -263 -14 -71 -6 -137 -9 -146 -6 -14 5 -15 13 -7 57 5 28 20 68 34 89
13 21 24 42 24 46 0 5 11 25 25 45 40 59 36 63 -65 65 -92 2 -140 -7 -140 -28
0 -6 10 -8 28 -5 24 6 27 4 28 -21 1 -16 8 -50 14 -78 14 -56 15 -78 7 -115
-3 -14 -6 -28 -6 -32 -1 -9 -214 -9 -244 -1 -14 4 -17 11 -12 36 2 18 8 58 11
90 5 44 11 57 23 57 24 0 85 84 113 154 16 43 32 64 56 78 34 21 40 33 20 42
-7 2 59 5 147 5 205 0 410 9 455 20 74 19 73 19 65 -61z m-780 -103 c-19 -36
-45 -80 -59 -96 -29 -34 -31 -29 -20 55 6 44 10 49 58 77 28 16 52 29 53 29 1
0 -13 -29 -32 -65z m247 -80 c7 -7 -52 -125 -62 -125 -5 0 -12 17 -15 38 -3
20 -9 49 -14 65 -9 27 -9 27 38 27 26 0 50 -2 53 -5z"/>
</g>
</svg>
