<?xml version="1.0" standalone="no"?>
<!DOCTYPE svg PUBLIC "-//W3C//DTD SVG 20010904//EN"
 "http://www.w3.org/TR/2001/REC-SVG-20010904/DTD/svg10.dtd">
<svg version="1.0" xmlns="http://www.w3.org/2000/svg"
 width="184.000000pt" height="138.000000pt" viewBox="0 0 184.000000 138.000000"
 preserveAspectRatio="xMidYMid meet">
<metadata>
Created by potrace 1.16, written by Peter Selinger 2001-2019
</metadata>
<g transform="translate(0.000000,138.000000) scale(0.100000,-0.100000)"
fill="#000000" stroke="none">
<path d="M313 1187 c-58 -19 -63 -61 -68 -514 -4 -343 -4 -353 15 -366 16 -11
57 -13 203 -9 100 2 184 7 187 11 3 3 77 7 165 9 88 2 178 5 200 7 86 9 175
15 288 20 65 2 132 9 150 14 18 6 48 13 67 16 50 8 67 20 52 38 -8 10 -13 67
-15 168 l-3 154 -119 2 c-66 1 -136 1 -155 0 -19 -1 -72 -2 -118 -2 -45 0 -82
-2 -82 -5 0 -3 -41 -4 -91 -2 l-91 3 6 47 c4 26 9 97 12 157 3 61 8 117 11
125 3 8 5 26 4 40 -1 14 2 38 8 53 6 14 7 28 3 31 -17 10 -598 13 -629 3z
m584 -41 c3 -3 3 -16 -1 -29 -4 -19 -14 -26 -44 -30 -60 -10 -249 -21 -343
-21 -100 0 -179 24 -179 54 0 16 9 18 78 17 146 -1 391 8 398 15 7 8 83 2 91
-6z m-17 -106 c0 -38 -34 -44 -271 -46 -124 -1 -245 -5 -270 -8 -24 -4 -39 -4
-34 1 6 4 15 17 21 28 10 17 24 19 155 22 79 1 189 6 244 11 160 14 155 14
155 -8z m-5 -80 c3 -11 4 -24 1 -29 -3 -5 -70 -12 -148 -16 -79 -3 -170 -11
-203 -17 -33 -6 -78 -9 -100 -8 -22 1 -54 3 -72 3 -32 0 -47 15 -35 34 18 27
61 33 288 38 130 3 240 7 242 10 11 10 21 4 27 -15z m-5 -84 c0 -13 -8 -27
-17 -31 -10 -4 -112 -11 -228 -16 -116 -4 -228 -11 -250 -15 -45 -7 -70 10
-59 39 4 12 24 15 99 15 52 0 100 4 107 8 7 4 82 11 168 14 85 4 161 7 168 8
6 1 12 -9 12 -22z m-10 -79 c0 -35 -52 -48 -215 -53 -77 -3 -176 -8 -220 -12
-102 -9 -117 -6 -113 21 3 19 14 24 73 35 39 6 133 12 210 13 78 0 146 3 152
7 7 4 34 8 62 9 47 3 51 1 51 -20z m-25 -103 c-22 -16 -97 -23 -320 -28 -99
-2 -188 -7 -198 -11 -16 -7 -18 -4 -15 16 3 21 10 25 63 31 71 8 168 15 324
24 63 3 124 9 135 14 17 6 22 3 24 -13 2 -12 -4 -26 -13 -33z m491 6 c8 -8 4
-120 -12 -277 -5 -50 -7 -53 -32 -53 -48 0 -55 12 -48 76 3 33 9 93 12 134 7
102 11 118 32 123 29 8 38 7 48 -3z m186 -47 c2 -81 -7 -241 -14 -248 -2 -2
-15 -6 -29 -10 -26 -6 -27 -5 -29 42 -1 26 -1 73 0 103 6 103 5 123 -6 127 -6
2 -11 -11 -12 -29 -1 -18 -5 -62 -9 -98 -5 -36 -6 -87 -3 -113 5 -43 4 -48
-17 -53 -44 -11 -47 -4 -45 102 1 54 5 127 8 161 l6 62 52 4 c28 2 61 4 74 5
20 2 22 -2 24 -55z m-456 -2 c-5 -22 -35 -262 -36 -283 0 -5 -12 -8 -26 -8
-21 0 -25 4 -19 18 4 9 11 67 15 127 8 98 12 128 25 172 2 6 13 9 25 6 18 -5
21 -11 16 -32z m90 7 c-15 -81 -36 -236 -36 -265 0 -30 -3 -33 -31 -33 -31 0
-31 0 -25 42 3 24 11 93 17 153 11 114 21 135 62 135 16 0 18 -5 13 -32z m77
-35 c-3 -38 -11 -106 -19 -153 -8 -47 -14 -88 -14 -92 0 -5 -11 -8 -25 -8 -25
0 -26 1 -20 63 10 107 27 242 32 250 2 4 15 7 27 7 23 0 23 -2 19 -67z m-250
29 c-3 -15 -12 -47 -19 -72 -8 -25 -14 -70 -14 -100 0 -58 -16 -130 -29 -130
-4 0 -15 6 -25 13 -16 12 -18 24 -12 98 17 225 14 217 72 217 32 0 33 -2 27
-26z m-138 -57 c-5 -41 -10 -54 -23 -54 -9 -1 -62 -3 -117 -5 -55 -3 -140 -9
-190 -15 -49 -6 -113 -12 -142 -15 l-51 -5 -4 61 c-3 53 -1 61 17 68 11 4 110
11 220 14 110 4 220 10 245 14 25 4 47 4 49 -1 2 -5 0 -33 -4 -62z m-19 -127
c-3 -29 -6 -65 -6 -79 0 -25 -2 -26 -82 -34 -46 -4 -128 -9 -183 -10 -55 -1
-129 -6 -165 -10 -36 -4 -61 -3 -57 1 13 13 144 32 300 43 129 10 182 21 161
34 -5 3 -30 2 -54 -3 -25 -4 -98 -11 -162 -14 -65 -4 -123 -9 -130 -11 -7 -2
-39 -6 -70 -9 -51 -4 -58 -2 -58 14 0 10 8 21 18 24 27 8 179 19 282 21 97 2
180 18 180 35 0 13 -27 13 -52 -1 -12 -7 -80 -13 -157 -14 -75 -1 -166 -6
-203 -10 -63 -7 -68 -6 -68 12 0 11 7 19 19 20 10 1 54 7 97 14 43 7 147 15
229 19 83 3 154 7 159 8 5 1 6 -21 2 -50z"/>
<path d="M767 600 c-15 -5 -115 -12 -222 -16 -138 -5 -200 -11 -213 -20 -14
-12 -1 -13 88 -9 58 3 123 7 145 10 22 2 72 7 110 10 103 8 145 16 145 26 0
11 -15 10 -53 -1z"/>
</g>
</svg>
