<?xml version="1.0" standalone="no"?>
<!DOCTYPE svg PUBLIC "-//W3C//DTD SVG 20010904//EN"
 "http://www.w3.org/TR/2001/REC-SVG-20010904/DTD/svg10.dtd">
<svg version="1.0" xmlns="http://www.w3.org/2000/svg"
 width="256.000000pt" height="130.000000pt" viewBox="0 0 256.000000 130.000000"
 preserveAspectRatio="xMidYMid meet">
<metadata>
Created by potrace 1.16, written by Peter Selinger 2001-2019
</metadata>
<g transform="translate(0.000000,130.000000) scale(0.100000,-0.100000)"
fill="#000000" stroke="none">
<path d="M1595 1138 c-6 -22 -10 -23 -123 -24 -106 0 -243 -8 -601 -34 -68 -5
-127 -7 -131 -5 -3 2 -54 5 -113 6 -70 1 -130 8 -174 21 -161 46 -169 45 -171
-5 -1 -17 -6 -66 -10 -108 -12 -117 -7 -120 87 -59 138 89 168 100 308 106 71
3 134 7 140 9 7 2 70 7 140 10 71 3 166 10 213 15 165 18 202 20 237 14 l36
-7 -7 -71 c-4 -39 -9 -102 -12 -141 -7 -98 -13 -147 -18 -153 -9 -8 -545 -28
-726 -27 -177 1 -308 14 -368 36 -42 14 -53 5 -76 -65 -18 -56 -21 -127 -6
-142 7 -7 8 -19 1 -38 -6 -14 -13 -39 -16 -54 -7 -39 -8 -210 0 -222 12 -19
35 -10 35 14 0 15 11 33 27 46 136 103 125 98 209 104 44 3 100 8 125 11 31 5
49 3 54 -5 4 -7 11 -8 18 -1 16 12 96 17 126 7 14 -5 26 -4 30 2 4 7 102 12
273 14 257 3 266 2 247 -15 -15 -14 -17 -22 -9 -36 7 -14 6 -20 -5 -25 -28
-10 -16 -28 14 -21 26 5 34 0 71 -44 46 -55 70 -64 70 -28 1 15 21 37 70 75
37 28 71 52 74 52 3 0 6 -15 6 -34 0 -39 24 -66 42 -48 9 9 8 18 0 37 -22 49
-15 71 36 111 26 21 58 49 72 62 14 13 39 30 56 37 l30 12 -4 -57 c-4 -61 6
-80 31 -55 10 9 15 35 16 71 0 64 4 69 60 95 l41 18 -2 -42 c-3 -90 2 -127 17
-127 12 0 15 14 15 69 0 61 2 69 18 65 12 -3 24 7 40 36 14 24 37 48 58 57 18
9 34 23 34 30 0 15 110 73 140 73 11 0 20 5 20 10 0 6 12 10 27 10 42 0 16 15
-72 40 -103 29 -125 40 -119 55 4 8 -11 14 -46 17 -27 3 -58 12 -68 20 -9 8
-48 28 -87 43 -38 16 -77 34 -85 41 -8 7 -43 26 -77 43 -33 17 -63 34 -65 38
-4 10 -102 63 -117 63 -16 0 -14 -21 4 -40 14 -16 13 -18 -16 -24 -39 -7 -44
-4 -30 22 14 26 14 62 1 62 -5 0 -12 -10 -15 -22z m-27 -69 c-6 -16 -8 -33 -5
-36 3 -3 34 4 68 16 61 20 63 20 93 2 17 -10 60 -31 96 -47 36 -16 80 -39 99
-51 19 -13 46 -24 60 -24 25 -1 25 -2 -4 -8 -18 -4 -35 -16 -42 -32 -14 -30
-40 -161 -40 -199 2 -90 -1 -99 -45 -122 -24 -12 -60 -30 -82 -40 l-39 -18 6
40 c9 72 111 248 148 257 39 10 12 28 -52 34 -35 4 -71 10 -81 13 -9 4 -30 0
-46 -8 -25 -13 -32 -24 -36 -58 -6 -48 -15 -201 -16 -266 0 -43 0 -43 -57 -69
-32 -14 -92 -41 -135 -60 -42 -19 -82 -33 -90 -31 -7 3 7 13 31 24 l43 19 4
75 c1 41 6 102 9 136 6 60 6 60 36 56 35 -5 39 12 7 29 -34 18 -36 25 -31 98
6 71 63 242 96 289 15 20 17 14 5 -19z m-48 17 c0 -2 -11 -28 -24 -57 l-25
-54 0 44 c-1 30 4 48 17 57 16 13 32 18 32 10z m-1156 -21 c8 -9 33 -15 58
-15 79 0 76 -14 -14 -59 -46 -22 -87 -41 -91 -41 -3 0 -2 12 3 26 6 14 10 43
10 65 0 42 9 48 34 24z m1648 -186 c-2 -8 -17 -27 -34 -44 -30 -30 -30 -30
-24 -5 3 14 6 35 6 48 0 19 4 22 28 19 16 -3 26 -10 24 -18z m25 -89 c-13 -44
-14 -45 -57 -46 -38 -2 -42 0 -27 11 9 7 17 19 17 28 0 8 17 30 37 48 44 38
51 29 30 -41z m97 62 c5 -9 -52 -102 -63 -102 -4 0 -3 25 2 55 9 48 13 55 33
55 13 0 25 -4 28 -8z m-319 -34 l32 -1 -52 -77 c-54 -79 -95 -172 -95 -215 0
-14 -5 -25 -11 -25 -5 0 -8 4 -5 8 3 5 6 62 7 128 2 65 4 138 7 160 l4 41 40
-9 c23 -5 55 -9 73 -10z m487 -22 l37 -11 -79 -42 c-74 -39 -79 -40 -77 -20 2
19 -3 22 -33 22 -41 0 -42 13 -5 61 l24 32 48 -15 c26 -8 65 -20 85 -27z
m-187 -126 c-31 -32 -61 -41 -51 -14 3 9 6 24 6 34 0 13 9 20 28 22 43 6 49
-9 17 -42z m-125 8 c-11 -18 -26 -43 -32 -55 -17 -34 -28 -28 -28 16 0 60 8
71 47 71 l35 0 -22 -32z m44 -15 c-6 -25 -24 -47 -32 -39 -3 3 31 66 36 66 1
0 -1 -12 -4 -27z m-1650 0 l49 -6 -59 -28 c-32 -16 -67 -34 -76 -41 -28 -20
-39 0 -26 50 10 40 13 43 37 37 14 -3 48 -9 75 -12z m776 13 c0 -7 -61 -120
-72 -133 -19 -23 -28 -14 -28 27 0 43 -13 52 -30 21 -16 -31 -12 -68 15 -121
l25 -50 -54 0 c-51 0 -54 2 -67 31 -11 29 -11 33 8 49 12 9 22 23 24 31 2 8
20 42 39 76 33 58 38 62 75 66 22 2 46 4 53 5 6 1 12 0 12 -2z m180 -21 c-24
-25 -24 -25 -32 -5 -4 11 -10 20 -13 20 -3 0 -19 -23 -37 -51 l-31 -51 -14 26
c-15 29 -43 35 -43 9 1 -10 5 -37 9 -60 5 -27 4 -46 -2 -52 -8 -8 -8 -11 0
-11 6 0 16 -13 21 -29 9 -26 8 -30 -11 -35 -51 -14 -75 -7 -91 26 -21 42 -21
43 17 91 18 23 39 56 46 72 31 73 34 75 123 75 l81 0 -23 -25z m52 -83 c-3
-73 -1 -116 7 -130 11 -20 9 -22 -17 -22 -16 0 -49 -3 -74 -6 -56 -8 -78 11
-78 67 0 40 42 129 61 129 12 0 11 -17 -1 -25 -15 -10 -12 -35 5 -35 8 0 14
-3 13 -7 -3 -15 25 -103 34 -109 10 -6 9 9 -12 121 -8 49 -8 51 28 87 20 20
38 36 38 37 1 1 -1 -48 -4 -107z m-389 61 c-10 -16 -29 -49 -42 -75 -12 -27
-26 -48 -31 -48 -11 0 -20 26 -20 61 0 34 -15 39 -24 7 -12 -45 -6 -85 19
-118 13 -18 23 -36 21 -39 -3 -3 -28 -6 -57 -6 -46 0 -55 3 -67 25 -14 24 -12
29 41 99 52 69 76 116 57 109 -5 -2 -32 -34 -60 -73 l-51 -70 4 69 5 68 -34
-33 c-19 -18 -44 -48 -57 -66 -31 -46 -41 -41 -34 17 4 30 2 50 -4 50 -17 0
-29 -49 -31 -126 -3 -80 3 -75 -70 -77 -30 -1 -33 2 -36 30 -2 24 6 39 38 74
22 24 54 63 71 86 l31 41 87 7 c47 3 97 7 111 8 14 2 53 4 88 5 l64 2 -19 -27z
m-415 7 l53 0 -18 -31 c-10 -18 -37 -52 -60 -78 l-42 -46 -1 38 c0 21 -5 47
-10 57 -7 13 -7 21 0 25 5 3 10 11 10 18 0 16 -87 -71 -113 -113 l-22 -35 -7
49 c-9 62 2 81 49 93 23 6 37 15 35 23 -2 9 7 11 35 6 21 -3 62 -6 91 -6z
m1490 -35 c-13 -28 -31 -35 -21 -7 5 14 21 31 30 32 2 0 -3 -11 -9 -25z
m-1739 -57 c0 -13 2 -44 4 -70 2 -25 1 -51 -2 -56 -3 -5 -25 -11 -48 -14 -49
-4 -50 -1 -30 75 11 42 30 64 73 86 1 1 2 -9 3 -21z m415 -22 c-4 -25 -2 -58
4 -75 10 -28 9 -31 -13 -37 -39 -10 -70 -1 -73 21 -2 16 73 135 85 135 1 0 0
-20 -3 -44z m-266 -120 c-2 -1 -27 0 -55 2 -48 4 -53 6 -53 28 0 13 6 24 13
24 7 0 21 15 31 33 11 17 26 40 35 51 15 17 17 13 24 -59 4 -43 6 -79 5 -79z
m1296 93 c-19 -21 -98 -79 -108 -79 -3 0 -2 10 3 23 5 13 30 33 62 49 66 33
67 33 43 7z m-144 -83 c0 -23 -43 -62 -147 -133 l-32 -22 -31 37 c-16 20 -30
39 -30 42 0 10 71 41 80 35 4 -3 37 10 72 29 76 41 88 43 88 12z m-1292 -45
c6 -2 -39 -41 -47 -41 -5 0 -14 -7 -21 -15 -20 -25 -30 -17 -30 23 l0 38 48
-3 c26 -1 48 -2 50 -2z"/>
</g>
</svg>
