<?xml version="1.0" standalone="no"?>
<!DOCTYPE svg PUBLIC "-//W3C//DTD SVG 20010904//EN"
 "http://www.w3.org/TR/2001/REC-SVG-20010904/DTD/svg10.dtd">
<svg version="1.0" xmlns="http://www.w3.org/2000/svg"
 width="150.000000pt" height="108.000000pt" viewBox="0 0 150.000000 108.000000"
 preserveAspectRatio="xMidYMid meet">
<metadata>
Created by potrace 1.16, written by Peter Selinger 2001-2019
</metadata>
<g transform="translate(0.000000,108.000000) scale(0.100000,-0.100000)"
fill="#000000" stroke="none">
<path d="M343 856 c-28 -34 -41 -124 -43 -271 0 -66 -6 -163 -12 -215 -18
-154 -18 -153 22 -162 19 -5 143 -7 275 -6 132 2 246 -1 253 -6 8 -4 24 -1 40
10 17 11 49 18 92 19 36 1 87 6 113 10 34 5 56 4 73 -6 16 -8 28 -9 34 -3 14
14 55 238 55 299 l0 50 -45 -1 c-25 -1 -110 -6 -190 -12 -202 -16 -260 -18
-260 -9 0 5 -9 5 -20 2 -20 -6 -21 -4 -15 42 4 26 7 82 9 123 1 41 8 88 14
103 7 16 10 33 6 38 -3 5 -42 9 -87 8 -45 -1 -130 2 -188 6 l-106 7 -20 -26z
m341 -46 c4 0 5 -12 1 -27 -4 -16 -7 -37 -6 -48 0 -11 -1 -30 -4 -42 -5 -23
-8 -23 -145 -23 -105 0 -140 3 -141 13 0 6 -2 19 -4 29 -2 9 2 37 7 63 l10 46
136 -5 c76 -3 141 -5 146 -6z m-19 -237 c-4 -36 -9 -72 -12 -79 -5 -14 -100
-27 -207 -28 l-69 -1 2 65 c1 36 6 69 11 74 8 8 178 32 249 35 l33 1 -7 -67z
m525 -50 c0 -10 -4 -45 -10 -78 -5 -33 -12 -80 -15 -105 -3 -25 -11 -50 -18
-56 -17 -16 -115 -24 -120 -10 -5 13 9 185 18 228 7 28 13 31 98 36 40 3 47 0
47 -15z m-314 -30 c-3 -16 -12 -73 -21 -128 -8 -55 -17 -106 -20 -112 -3 -9
-28 -13 -76 -13 l-71 0 4 91 c4 81 7 93 28 109 24 18 20 40 -8 40 -25 0 -2 17
38 28 19 6 57 11 84 11 48 1 48 1 42 -26z m134 19 c0 -4 -6 -32 -14 -62 -8
-30 -17 -84 -21 -120 -8 -68 -15 -80 -51 -80 -36 0 -38 38 -14 195 6 33 10 63
10 68 0 4 20 7 45 7 25 0 45 -4 45 -8z m-386 -68 c18 -7 21 -49 6 -90 -6 -14
-11 -48 -12 -75 l-1 -49 -81 0 c-105 0 -216 11 -216 21 0 4 6 14 13 21 8 7 17
42 20 77 4 36 9 67 12 70 3 3 49 10 103 17 126 15 137 15 156 8z"/>
</g>
</svg>
