<?xml version="1.0" standalone="no"?>
<!DOCTYPE svg PUBLIC "-//W3C//DTD SVG 20010904//EN"
 "http://www.w3.org/TR/2001/REC-SVG-20010904/DTD/svg10.dtd">
<svg version="1.0" xmlns="http://www.w3.org/2000/svg"
 width="242.000000pt" height="194.000000pt" viewBox="0 0 242.000000 194.000000"
 preserveAspectRatio="xMidYMid meet">
<metadata>
Created by potrace 1.16, written by Peter Selinger 2001-2019
</metadata>
<g transform="translate(0.000000,194.000000) scale(0.100000,-0.100000)"
fill="#000000" stroke="none">
<path d="M1016 1853 c-25 -13 -28 -19 -23 -50 4 -24 2 -36 -9 -40 -10 -4 -14
-22 -14 -67 0 -33 -4 -78 -9 -98 -6 -24 -5 -40 2 -47 14 -14 47 -14 47 -1 0 6
4 10 9 10 5 0 5 -15 1 -34 -4 -19 -6 -37 -3 -39 3 -4 6 -128 4 -201 -1 -18 -9
-18 -158 -12 -87 4 -194 11 -238 17 -44 5 -115 8 -158 7 -59 -2 -76 0 -72 10
3 6 7 18 10 25 3 6 1 19 -5 27 -8 12 -14 12 -45 1 -19 -7 -55 -11 -80 -10 -24
2 -48 -1 -52 -5 -4 -4 -8 -58 -9 -119 0 -62 -8 -150 -17 -197 -28 -155 -30
-179 -12 -186 20 -8 25 -3 31 32 3 15 8 32 12 38 3 6 5 21 4 32 -3 22 26 42
37 26 9 -13 107 -21 148 -12 23 6 36 4 39 -4 3 -7 33 -12 86 -12 52 -1 83 -5
86 -13 5 -14 42 -15 42 -1 0 14 43 13 58 -2 9 -9 18 -9 37 0 21 10 30 9 48 -3
18 -13 23 -13 38 1 18 16 69 10 69 -8 0 -6 11 -7 25 -4 33 8 32 15 20 -209 -5
-88 -8 -184 -9 -213 0 -41 -3 -52 -14 -47 -7 3 -16 5 -18 5 -2 0 -4 7 -4 16 0
10 -7 14 -22 12 -22 -3 -23 -9 -33 -148 -6 -80 -7 -147 -3 -148 5 -2 5 -8 2
-14 -4 -6 1 -8 12 -6 11 2 18 10 16 16 -1 7 3 12 9 12 6 0 39 24 74 54 80 68
122 81 305 96 80 7 151 14 158 16 23 7 7 28 -27 35 -17 4 -34 9 -36 11 -10 10
9 47 27 51 22 6 16 27 -8 27 -8 0 -14 10 -15 23 -1 50 3 168 7 199 3 18 6 69
9 113 l3 80 259 1 c142 1 272 -1 289 -3 l30 -5 0 -74 c-1 -55 3 -77 14 -84 22
-14 30 -2 30 45 0 25 12 79 26 122 14 42 28 110 30 149 4 56 12 88 40 144 19
40 41 79 49 87 20 20 19 30 -5 43 -15 8 -30 8 -55 0 -19 -6 -52 -10 -72 -9
-21 2 -47 -3 -58 -9 -19 -11 -19 -13 -2 -26 36 -28 21 -42 -50 -43 -106 -2
-344 -1 -388 2 -22 2 -57 4 -78 4 l-38 1 5 53 c3 28 8 99 11 157 3 58 8 114
10 125 2 11 4 50 4 88 l1 67 33 0 c18 0 41 6 51 13 38 28 -4 36 -195 40 -161
3 -190 6 -231 25 -35 15 -48 27 -48 42 0 23 -4 23 -44 3z m71 -110 c21 -10 40
-19 42 -20 4 -3 -66 -66 -102 -92 -19 -14 -20 -13 -14 31 6 46 23 98 31 98 3
0 22 -8 43 -17z m323 -38 c-1 -30 -20 -35 -141 -39 -68 -2 -133 -8 -144 -12
-17 -6 -16 -4 4 14 13 12 32 22 41 22 10 0 31 7 46 15 33 17 194 17 194 0z
m-22 -89 c7 -4 12 -25 12 -48 0 -35 -2 -39 -15 -28 -12 10 -49 12 -151 7 -136
-5 -136 -5 -130 16 3 12 6 30 6 39 0 12 10 18 33 20 59 6 233 2 245 -6z m2
-129 c0 -12 -4 -27 -8 -33 -4 -7 -65 -15 -150 -20 l-143 -9 3 35 c2 24 7 34
17 32 8 -2 24 1 35 7 33 16 40 16 146 13 95 -3 100 -4 100 -25z m-54 -87 l44
0 0 -50 0 -49 -47 3 c-53 3 -213 -10 -245 -20 -19 -6 -20 -3 -16 45 3 28 7 53
10 56 2 2 41 6 87 9 46 3 86 8 89 11 3 3 12 3 20 0 7 -3 34 -5 58 -5z m-1018
-139 c-10 -25 -23 -50 -29 -57 -5 -6 -15 -29 -22 -50 -13 -37 -14 -34 -11 56
2 52 3 96 4 96 0 1 17 1 39 0 l38 -1 -19 -44z m1787 -8 c-26 -55 -53 -119 -65
-155 -6 -21 -14 -38 -17 -38 -11 0 9 94 23 107 18 19 18 37 -1 53 -27 22 -18
48 18 53 17 2 37 5 44 5 8 2 8 -6 -2 -25z m-751 11 c9 -3 16 -10 16 -15 0 -11
-188 0 -210 12 -17 10 169 12 194 3z m-874 -41 c0 -13 -5 -67 -12 -119 -12
-99 -14 -102 -65 -88 -20 6 -21 11 -18 87 3 87 13 138 27 148 5 3 22 4 38 1
24 -3 30 -9 30 -29z m-116 0 c-3 -16 -7 -65 -9 -111 -2 -46 -5 -85 -7 -86 -1
-2 -27 -6 -55 -8 -46 -4 -53 -3 -53 12 0 10 9 20 20 23 11 3 22 17 26 33 8 33
71 164 79 164 3 0 3 -12 -1 -27z m212 -50 c-18 -181 -15 -173 -47 -173 -17 0
-32 6 -35 15 -6 14 11 167 22 208 4 11 15 17 36 17 l30 0 -6 -67z m90 26 c-3
-15 -11 -66 -18 -113 -10 -71 -15 -86 -30 -86 -16 0 -17 9 -12 98 7 137 8 140
40 134 22 -4 25 -9 20 -33z m166 12 c-13 -8 -20 -44 -28 -148 -5 -60 -11 -83
-20 -83 -16 0 -16 -1 -14 135 1 55 6 102 11 106 6 3 22 4 36 1 13 -3 20 -8 15
-11z m-97 -18 c-6 -37 -14 -129 -15 -170 0 -26 -4 -33 -19 -33 -27 0 -30 8
-21 65 4 28 11 72 14 99 8 58 12 66 31 66 10 0 13 -8 10 -27z m268 -8 c0 -16
-7 -74 -13 -128 -17 -132 -34 -124 -38 19 -3 130 -6 141 -28 123 -12 -10 -15
-33 -13 -116 1 -56 1 -105 -2 -107 -2 -2 -16 -2 -31 1 -34 7 -42 42 -30 130 5
34 8 74 7 88 -1 26 -1 26 75 23 l75 -3 -2 -30z m365 10 c3 -3 -56 -9 -215 -21
-81 -6 -83 -5 -83 16 0 22 0 22 147 15 81 -3 149 -8 151 -10z m108 -47 c-3
-29 -8 -88 -12 -130 l-7 -78 -29 0 -30 0 7 88 c4 48 9 98 10 112 2 14 4 33 4
43 1 12 9 17 32 17 l31 0 -6 -52z m98 20 c-2 -18 -6 -77 -10 -130 l-7 -98 -27
0 c-26 0 -28 3 -35 56 -4 32 -2 67 3 82 6 15 13 48 17 75 6 43 8 47 34 47 25
0 27 -3 25 -32z m246 14 c3 -2 -1 -7 -7 -9 -9 -3 -13 -32 -13 -96 0 -112 -6
-134 -34 -139 -44 -9 -46 -2 -46 123 0 99 -3 119 -15 119 -15 0 -20 -46 -19
-182 l1 -58 -44 0 -45 0 7 123 c4 67 9 125 11 129 5 7 196 -2 204 -10z m83
-14 c-9 -15 -10 -17 -12 -135 l-1 -93 -30 0 c-34 0 -33 -3 -31 110 3 119 6
130 47 130 26 0 33 -3 27 -12z m77 -108 c0 -108 -2 -120 -17 -120 -41 1 -45
14 -44 120 1 57 4 107 7 111 3 5 16 9 30 9 l24 0 0 -120z m-636 94 c11 -4 16
-19 16 -45 l0 -39 -50 0 c-27 0 -71 -4 -97 -9 -26 -5 -69 -12 -96 -15 l-47 -6
6 48 c3 25 8 49 10 52 3 2 44 7 92 11 134 9 149 9 166 3z m6 -149 c0 -56 -5
-61 -68 -59 -31 1 -92 3 -134 5 l-78 2 0 33 c0 32 2 34 33 35 32 0 120 10 124
13 1 1 29 2 63 3 l60 2 0 -34z m-314 -42 c-11 -11 -19 6 -11 24 8 17 8 17 12
0 3 -10 2 -21 -1 -24z m-6 -75 c0 -18 -2 -20 -9 -8 -6 8 -7 18 -5 22 9 14 14
9 14 -14z m298 -3 c16 -6 16 -51 -1 -58 -7 -2 -62 -5 -122 -6 -61 -1 -120 -4
-132 -8 -25 -6 -26 -2 -17 45 6 28 10 31 48 34 49 4 206 -1 224 -7z m11 -89
c-2 -2 -69 -6 -149 -9 -81 -3 -132 -2 -115 2 30 9 272 15 264 7z m-5 -63 c-4
-15 -7 -29 -8 -29 -1 -1 -65 -4 -143 -7 l-143 -6 0 28 c0 16 6 31 13 34 6 2
74 5 150 6 l138 2 -7 -28z m-16 -105 c3 -37 2 -38 -30 -39 -234 -5 -259 -5
-269 7 -7 8 -7 14 1 19 5 3 10 15 10 25 0 22 41 27 195 26 l90 -1 3 -37z m12
-103 l0 -32 -142 -5 c-150 -5 -158 -3 -158 39 0 26 11 28 178 30 l122 1 0 -33z
m0 -95 c0 -25 -4 -30 -25 -31 -14 -1 -40 -3 -57 -4 -33 -3 -223 13 -245 20 -7
2 -10 11 -7 20 3 8 9 13 14 10 4 -2 27 -1 51 4 24 4 95 9 157 10 l112 1 0 -30z
m-356 -74 l38 -13 -48 -38 -49 -37 -3 37 c-4 40 2 65 15 65 4 0 25 -6 47 -14z"/>
</g>
</svg>
