<?xml version="1.0" standalone="no"?>
<!DOCTYPE svg PUBLIC "-//W3C//DTD SVG 20010904//EN"
 "http://www.w3.org/TR/2001/REC-SVG-20010904/DTD/svg10.dtd">
<svg version="1.0" xmlns="http://www.w3.org/2000/svg"
 width="174.000000pt" height="100.000000pt" viewBox="0 0 174.000000 100.000000"
 preserveAspectRatio="xMidYMid meet">
<metadata>
Created by potrace 1.16, written by Peter Selinger 2001-2019
</metadata>
<g transform="translate(0.000000,100.000000) scale(0.100000,-0.100000)"
fill="#000000" stroke="none">
<path d="M1337 874 c-4 -4 -765 -17 -927 -16 -36 0 -81 4 -102 7 -32 6 -38 4
-53 -19 -12 -17 -16 -38 -12 -59 3 -18 2 -51 -2 -74 -8 -41 -8 -41 25 -48 l34
-6 0 -175 c0 -133 -4 -183 -15 -211 -8 -19 -15 -37 -15 -39 0 -10 26 -2 44 14
40 34 110 51 326 77 309 37 504 54 690 60 47 2 88 4 92 4 4 1 5 13 3 29 -2 15
-7 72 -10 127 -3 55 -8 116 -11 136 -6 38 21 88 81 153 14 15 24 30 22 32 -6
6 -165 13 -170 8z m12 -51 c13 -35 31 -174 38 -310 6 -102 5 -103 -17 -103
-12 0 -117 -7 -232 -16 -116 -9 -213 -12 -217 -8 -3 5 -125 9 -271 9 -241 0
-267 2 -293 19 -24 16 -27 24 -26 67 2 35 6 49 16 49 8 0 23 20 34 44 10 24
39 66 64 94 24 27 42 52 39 55 -3 3 -20 4 -37 2 -18 -2 -54 -6 -82 -9 l-50 -5
45 24 c25 14 82 36 127 50 45 14 83 30 85 35 5 16 153 25 464 28 l301 3 12
-28z m-979 4 c14 -3 53 -2 88 2 78 9 81 -2 5 -18 -32 -7 -82 -26 -112 -42 -30
-16 -56 -28 -57 -26 -1 1 3 23 9 50 8 35 14 46 26 43 9 -2 27 -7 41 -9z m1060
-17 c-25 -35 -40 -46 -40 -28 0 7 -3 23 -6 36 -6 20 -3 22 31 22 l36 0 -21
-30z m-1036 -162 c-16 -24 -35 -56 -42 -72 -7 -16 -14 -27 -16 -25 -2 2 -6 34
-8 71 l-6 67 47 3 c25 2 48 2 50 1 2 -2 -9 -22 -25 -45z m86 -279 c63 -5 160
-7 215 -5 72 3 88 2 55 -4 -25 -5 -66 -9 -92 -9 -60 -1 -286 -39 -310 -52 -18
-10 -19 -7 -16 40 2 41 6 50 18 44 8 -3 67 -10 130 -14z"/>
</g>
</svg>
