<?xml version="1.0" standalone="no"?>
<!DOCTYPE svg PUBLIC "-//W3C//DTD SVG 20010904//EN"
 "http://www.w3.org/TR/2001/REC-SVG-20010904/DTD/svg10.dtd">
<svg version="1.0" xmlns="http://www.w3.org/2000/svg"
 width="214.000000pt" height="117.000000pt" viewBox="0 0 214.000000 117.000000"
 preserveAspectRatio="xMidYMid meet">
<metadata>
Created by potrace 1.16, written by Peter Selinger 2001-2019
</metadata>
<g transform="translate(0.000000,117.000000) scale(0.100000,-0.100000)"
fill="#000000" stroke="none">
<path d="M1348 1032 c-23 -26 -60 -61 -81 -76 -35 -27 -42 -28 -105 -23 -56 5
-71 3 -92 -12 -21 -17 -23 -22 -12 -46 7 -14 12 -27 12 -28 0 -1 -18 -3 -40
-4 -22 -2 -49 -7 -59 -13 -34 -18 -431 -15 -575 4 -71 10 -139 22 -152 26 -40
16 -69 -52 -69 -162 0 -84 4 -78 -54 -82 -8 -1 -16 -7 -19 -14 -3 -11 17 -13
107 -10 61 1 111 2 111 0 0 -8 -72 -111 -85 -122 -11 -9 -17 -3 -33 33 -20 44
-38 64 -49 53 -3 -3 3 -38 15 -78 24 -87 46 -250 38 -284 -5 -17 -2 -24 8 -24
17 0 37 60 29 88 -3 15 10 26 66 56 39 20 73 41 76 46 3 6 17 10 31 10 25 0
25 -1 18 -56 -5 -46 -4 -56 7 -52 8 3 18 27 23 54 5 27 10 50 11 52 5 6 296
17 445 17 l145 0 3 -74 c3 -71 2 -76 -25 -98 -27 -22 -28 -23 -9 -38 11 -8 27
-15 36 -15 9 0 36 -20 60 -45 57 -58 76 -59 71 -3 -2 21 50 126 90 180 16 23
29 47 29 54 0 8 14 21 30 29 17 9 28 20 25 25 -3 6 0 8 7 5 7 -3 49 18 93 47
112 72 265 150 265 135 0 -6 -7 -50 -15 -97 -27 -149 -19 -258 16 -223 11 11
12 16 24 158 4 50 9 93 11 97 3 4 7 33 10 65 4 34 13 66 23 78 10 11 35 49 57
85 21 36 44 71 52 79 7 8 21 26 30 40 9 14 25 32 34 39 10 7 18 22 18 33 0 18
-8 19 -118 19 -115 0 -119 -1 -131 -24 -8 -14 -10 -33 -5 -47 7 -22 7 -179 0
-186 -3 -3 -58 28 -161 90 -17 10 -50 30 -75 44 -61 35 -94 98 -87 168 8 91
-11 98 -75 27z m35 -131 c-6 -9 -73 29 -73 41 0 7 15 27 33 46 l32 33 6 -58
c3 -32 4 -60 2 -62z m539 1 c-10 -27 -116 -191 -123 -192 -3 0 -5 33 -4 73 1
39 -2 87 -6 105 l-7 32 74 0 c67 0 73 -2 66 -18z m-702 -14 c0 -11 -64 -118
-71 -118 -4 0 -6 15 -5 33 1 18 -5 42 -16 56 -28 36 -23 42 37 39 30 -2 55 -6
55 -10z m88 -6 c15 -10 36 -22 46 -26 17 -6 18 -9 5 -21 -20 -19 -178 -115
-191 -115 -16 0 93 178 110 180 2 0 16 -8 30 -18z m140 -77 c20 -14 42 -25 48
-25 6 0 17 -6 23 -13 8 -11 7 -18 -7 -29 -53 -46 -152 -83 -152 -57 0 18 40
149 46 149 3 0 22 -11 42 -25z m-1110 -10 l62 -7 -46 -30 c-26 -16 -53 -36
-61 -44 -8 -8 -23 -18 -33 -24 -15 -8 -19 -5 -24 20 -3 17 -1 42 4 56 6 14 8
29 5 34 -3 5 3 7 12 5 10 -2 46 -6 81 -10z m757 -8 c9 -33 -2 -297 -12 -325
-9 -23 -11 -24 -198 -28 -105 -2 -201 -5 -215 -6 -14 -1 -64 -1 -112 0 -102 2
-106 8 -53 74 146 182 146 178 11 178 -52 0 -97 -4 -100 -8 -3 -5 4 -37 14
-71 15 -45 18 -77 14 -115 l-6 -52 -86 3 c-48 2 -88 6 -90 8 -4 4 71 98 107
134 36 36 24 56 -36 59 l-52 3 37 35 c20 19 57 48 82 63 45 28 47 29 255 35
116 4 248 13 295 20 129 20 139 20 145 -7z m240 -29 c-4 -13 -9 -31 -12 -41
-5 -18 -6 -17 -29 4 -26 24 -23 36 10 49 33 14 38 12 31 -12z m308 -62 c43
-22 76 -45 74 -50 -2 -6 -23 -24 -48 -39 -24 -16 -117 -76 -206 -133 -141 -91
-192 -120 -170 -98 3 3 2 17 -3 30 -6 16 -6 24 1 24 14 0 54 95 58 143 2 19
22 3 40 -31 28 -56 42 -64 66 -39 11 11 14 17 6 12 -18 -10 -7 27 27 85 43 73
62 113 62 128 0 7 3 12 8 10 4 -1 42 -21 85 -42z m-386 -8 c17 -18 36 -43 42
-55 10 -19 6 -24 -37 -51 -41 -27 -94 -52 -108 -52 -2 0 -4 33 -4 74 0 73 1
75 33 94 42 26 38 27 74 -10z m203 -70 c-16 -29 -32 -52 -36 -51 -4 1 -14 14
-23 30 l-17 28 45 21 c25 13 49 23 54 23 4 1 -6 -23 -23 -51z m-911 17 c6 -7
-20 -56 -45 -83 l-21 -24 -6 44 c-3 24 -9 52 -13 62 -7 17 -3 18 36 12 25 -4
46 -9 49 -11z m756 -87 c-13 -64 -27 -98 -41 -98 -8 0 -14 3 -14 8 0 4 -13 16
-29 27 l-30 19 45 27 c25 14 50 31 56 37 18 18 20 15 13 -20z m-63 -145 c15
-21 27 -43 28 -48 0 -11 -133 -95 -150 -95 -6 0 -8 10 -6 23 3 12 7 53 11 91
3 38 10 78 16 88 10 19 11 19 42 -1 18 -10 44 -37 59 -58z m-888 -12 c15 -6 7
-14 -45 -49 -35 -22 -64 -40 -65 -39 -1 1 -4 23 -7 50 l-7 47 53 -1 c28 0 60
-4 71 -8z m895 -108 c-37 -63 -78 -140 -75 -144 1 -2 -12 11 -30 29 -17 17
-40 32 -50 32 -17 0 96 80 114 80 4 0 18 9 32 20 34 27 35 25 9 -17z"/>
</g>
</svg>
