<?xml version="1.0" standalone="no"?>
<!DOCTYPE svg PUBLIC "-//W3C//DTD SVG 20010904//EN"
 "http://www.w3.org/TR/2001/REC-SVG-20010904/DTD/svg10.dtd">
<svg version="1.0" xmlns="http://www.w3.org/2000/svg"
 width="264.000000pt" height="140.000000pt" viewBox="0 0 264.000000 140.000000"
 preserveAspectRatio="xMidYMid meet">
<metadata>
Created by potrace 1.16, written by Peter Selinger 2001-2019
</metadata>
<g transform="translate(0.000000,140.000000) scale(0.100000,-0.100000)"
fill="#000000" stroke="none">
<path d="M986 1253 c-23 -12 -50 -14 -118 -11 -61 4 -91 2 -98 -7 -6 -7 -6
-15 0 -21 16 -16 28 -583 14 -606 -3 -4 -34 -6 -69 -3 -35 3 -83 1 -107 -4
-24 -6 -103 -11 -176 -12 -107 -2 -135 0 -143 12 -8 12 -10 12 -18 -1 -18 -27
8 -40 83 -40 l71 -1 -39 -22 c-21 -12 -57 -34 -80 -49 l-41 -27 -6 27 c-11 45
-10 110 2 118 6 3 19 27 30 52 11 24 33 65 49 89 38 56 38 67 0 59 -98 -20
-98 -20 -35 18 33 20 65 44 72 52 9 12 28 15 90 12 107 -6 295 13 301 30 3 9
-3 11 -20 7 -77 -18 -439 -8 -461 14 -17 17 -37 13 -37 -7 0 -21 38 -42 78
-42 24 0 20 -4 -28 -33 -95 -57 -94 -57 -87 16 7 70 -2 98 -22 73 -7 -8 -14
-47 -16 -86 -1 -39 -6 -74 -9 -77 -3 -4 -6 -12 -6 -20 0 -10 10 -12 38 -8 20
3 52 7 70 10 18 2 37 7 42 10 17 11 11 -14 -13 -53 -13 -20 -30 -53 -37 -72
-14 -34 -14 -34 -21 -10 -4 14 -7 42 -8 63 -1 36 -14 50 -23 25 -9 -26 27
-321 40 -326 6 -2 12 4 12 13 0 19 36 51 84 76 44 22 79 42 96 56 19 15 162
33 263 33 l79 0 -5 -97 c-3 -54 -13 -120 -20 -148 -22 -74 -30 -215 -13 -215
7 0 20 7 27 17 8 9 40 28 72 43 31 15 63 32 70 37 16 13 178 25 382 29 304 5
447 12 455 20 5 5 11 36 14 69 9 109 13 118 65 148 53 29 79 34 231 42 129 6
231 15 248 20 30 10 39 -5 31 -53 -12 -70 -11 -92 5 -92 14 0 37 91 55 225 6
43 15 82 19 85 4 3 20 23 36 45 16 22 43 52 60 67 34 29 32 43 -5 30 -13 -4
-40 -6 -59 -3 -19 4 -64 3 -100 0 -100 -9 -432 -3 -460 9 -14 6 -46 16 -72 23
-52 14 -51 11 -49 107 1 84 15 124 73 204 7 9 9 20 6 23 -9 9 -147 15 -313 13
-359 -5 -511 3 -517 27 -2 11 -9 10 -32 -2z m-49 -60 c-3 -10 -26 -77 -51
-150 -25 -72 -48 -148 -52 -167 -14 -75 -21 -20 -20 146 l1 173 55 6 c30 3 59
6 64 7 4 1 6 -6 3 -15z m123 7 c12 -8 12 -10 1 -10 -8 0 -29 -11 -47 -25 -18
-14 -35 -25 -38 -25 -11 0 -6 46 6 58 14 14 57 15 78 2z m647 -66 c19 -110 22
-155 11 -185 -7 -20 -6 -34 5 -51 8 -13 16 -43 18 -68 7 -77 3 -355 -5 -375
-4 -11 -9 -42 -11 -69 -7 -94 -11 -102 -53 -103 -20 0 -116 -4 -212 -9 -165
-8 -608 -11 -657 -3 -26 4 -26 6 -12 69 5 25 14 110 18 190 11 183 31 290 84
458 38 122 44 132 63 128 13 -4 35 4 58 19 53 36 106 47 236 50 63 2 153 7
200 12 47 4 121 8 165 7 l80 0 12 -70z m90 47 c-2 -3 -12 -25 -23 -48 -10 -24
-22 -43 -25 -43 -3 0 -6 22 -8 49 -2 49 -2 50 29 49 17 -1 29 -4 27 -7z m15
-340 c13 -5 37 -13 53 -16 27 -6 28 -8 10 -15 -11 -4 -36 -10 -56 -14 -35 -6
-37 -5 -41 24 -5 32 -1 35 34 21z m567 -73 c-13 -110 -30 -192 -41 -199 -25
-16 -532 -29 -546 -14 -7 6 -6 190 1 202 4 5 32 13 62 17 31 3 68 14 82 23 20
13 56 17 181 20 85 2 158 5 160 8 3 3 28 5 57 5 l51 0 -7 -62z m74 54 c15 -7
15 -11 -10 -47 l-28 -40 -3 33 c-6 56 4 68 41 54z m-614 -305 c-2 -2 -16 -11
-31 -20 -27 -17 -28 -17 -28 3 0 16 7 20 32 20 17 0 29 -1 27 -3z m-1001 -277
c19 -5 35 -10 37 -12 2 -2 -20 -16 -50 -30 l-55 -27 0 46 c0 39 2 44 18 38 9
-4 32 -11 50 -15z"/>
</g>
</svg>
