<?xml version="1.0" standalone="no"?>
<!DOCTYPE svg PUBLIC "-//W3C//DTD SVG 20010904//EN"
 "http://www.w3.org/TR/2001/REC-SVG-20010904/DTD/svg10.dtd">
<svg version="1.0" xmlns="http://www.w3.org/2000/svg"
 width="260.000000pt" height="186.000000pt" viewBox="0 0 260.000000 186.000000"
 preserveAspectRatio="xMidYMid meet">
<metadata>
Created by potrace 1.16, written by Peter Selinger 2001-2019
</metadata>
<g transform="translate(0.000000,186.000000) scale(0.100000,-0.100000)"
fill="#000000" stroke="none">
<path d="M1013 1763 c-14 -5 -16 -102 -4 -158 9 -42 39 -45 71 -8 14 17 44 42
66 56 l42 26 7 -118 c3 -65 3 -134 0 -154 l-7 -37 -129 4 c-71 3 -136 9 -146
14 -10 5 -37 12 -61 15 -36 4 -45 2 -62 -20 -40 -51 -35 -165 8 -171 20 -3 22
-9 22 -72 0 -62 -2 -68 -22 -74 -13 -3 -117 -9 -233 -12 l-210 -6 47 47 c27
26 48 56 48 66 0 18 -4 19 -37 13 -48 -9 -71 -12 -105 -13 -53 -2 -28 -21 27
-21 l56 0 -33 -40 c-25 -32 -38 -40 -58 -38 -20 2 -26 9 -28 36 -2 21 -9 32
-19 32 -9 0 -13 -6 -10 -14 3 -8 -4 -21 -18 -30 -48 -32 -65 -206 -20 -206 8
0 12 -8 11 -17 -13 -69 -16 -194 -6 -213 16 -30 35 -19 36 21 1 34 8 46 66
113 l26 31 194 -3 c141 -2 200 1 217 10 54 29 31 33 -171 33 -217 0 -283 8
-310 35 -22 23 -14 32 70 79 71 41 74 41 165 40 50 0 119 4 152 9 33 6 84 13
113 17 l54 6 -7 -63 c-4 -35 -9 -66 -11 -70 -2 -3 -6 -37 -9 -75 -3 -37 -10
-97 -16 -131 -7 -35 -12 -105 -13 -155 -1 -106 9 -117 69 -72 24 19 42 25 58
21 17 -4 30 0 42 14 9 10 37 25 60 34 69 23 74 10 60 -172 -6 -75 -11 -92 -22
-87 -35 13 -61 16 -66 8 -3 -5 -9 -48 -13 -96 -6 -74 -4 -87 9 -93 16 -6 148
72 194 114 16 15 37 21 75 22 77 2 78 2 75 -21 -3 -32 21 -35 33 -4 9 24 15
27 53 25 62 -4 90 -1 107 10 23 15 -6 29 -46 23 -18 -3 -49 -2 -68 1 l-36 7 0
56 c0 45 6 65 34 112 19 31 56 78 81 105 l47 48 99 0 c82 0 103 -3 120 -18 29
-26 38 -9 49 86 5 45 11 83 12 84 2 1 50 25 108 54 l105 54 120 1 120 2 3 -42
c3 -35 7 -43 23 -43 18 0 19 6 18 63 -1 34 -5 72 -10 84 -5 15 -3 25 7 33 7 7
14 19 14 26 0 8 4 14 9 14 5 0 12 8 16 18 3 9 33 46 65 82 33 35 59 69 57 75
-5 11 -10 11 -169 -6 -116 -13 -149 -25 -86 -31 17 -2 33 -7 35 -13 4 -12
-386 -14 -404 -2 -6 4 -9 17 -6 30 9 36 82 184 98 197 43 36 -2 39 -363 27
-99 -3 -112 -2 -107 12 2 9 5 54 7 101 1 49 8 93 15 105 7 11 13 26 13 35 0 9
12 30 28 48 24 29 35 33 101 41 40 5 78 14 84 20 7 7 -59 8 -209 4 -282 -7
-400 -15 -394 -28 3 -5 23 -9 45 -7 l40 3 -63 -46 c-35 -26 -66 -44 -69 -42
-3 3 -5 35 -5 71 -1 68 -4 77 -25 69z m455 -98 c-24 -42 -27 -41 -21 3 4 23
11 32 24 32 17 0 17 -2 -3 -35z m-202 -21 c-20 -26 -33 -50 -30 -55 7 -13 34
-11 34 2 0 5 17 30 37 55 32 37 43 44 74 44 l36 0 -1 -155 c-1 -85 -5 -158
-10 -162 -7 -8 -163 -6 -176 2 -3 2 -5 43 -4 92 1 48 -1 110 -5 137 -7 41 -5
52 10 67 11 11 30 19 44 19 l26 0 -35 -46z m-357 -314 c11 -6 7 -12 -17 -24
-32 -17 -72 -21 -72 -8 0 4 3 17 6 30 6 20 11 22 38 16 17 -3 37 -10 45 -14z
m855 -22 c3 -24 7 -52 7 -63 3 -33 -10 -357 -15 -395 -2 -19 -7 -66 -11 -105
-11 -118 -8 -113 -78 -111 -34 0 -127 -3 -207 -8 -150 -10 -460 -11 -495 -2
-11 2 -40 5 -65 6 -78 1 -83 10 -70 137 22 216 28 255 43 266 8 7 21 30 27 52
15 45 27 66 89 159 24 36 51 68 60 71 15 6 133 6 281 1 36 -2 88 1 115 6 47 8
177 20 271 26 l42 3 6 -43z m86 16 c0 -8 -4 -22 -10 -32 -5 -9 -15 -30 -20
-46 -6 -16 -12 -27 -14 -25 -2 2 -7 31 -11 65 l-6 61 30 -5 c18 -2 31 -10 31
-18z m-890 -59 c0 -2 -17 -31 -37 -62 -20 -32 -45 -74 -55 -93 l-17 -35 -2 35
c-1 19 0 40 2 45 1 6 2 24 1 42 -2 34 5 41 53 59 34 13 55 16 55 9z m1400
-128 c0 -4 0 -11 0 -16 0 -10 -77 -104 -89 -108 -10 -4 -12 120 -2 126 13 8
91 6 91 -2z m-481 -56 c24 -6 24 -7 -12 -34 -45 -34 -57 -34 -57 1 0 43 13 49
69 33z m303 -5 l48 -1 1 -65 c1 -36 3 -72 3 -80 1 -12 -37 -19 -214 -35 -211
-20 -215 -20 -218 -1 -9 50 9 87 56 117 25 16 55 29 65 29 14 0 18 5 14 20 -4
17 1 19 67 22 39 2 85 1 101 -1 17 -3 51 -5 77 -5z m-1950 -80 c-6 -48 -12
-46 -12 5 0 22 4 38 8 35 4 -3 6 -21 4 -40z m52 25 c3 -5 -1 -14 -9 -21 -13
-10 -15 -9 -15 9 0 21 14 28 24 12z m1606 -181 c-14 -10 -42 -29 -62 -40 l-38
-21 0 23 c0 43 14 50 105 56 18 1 17 0 -5 -18z m-1578 -9 c6 -5 -56 -81 -67
-81 -3 0 -3 10 -1 23 3 12 5 34 5 50 1 25 4 27 29 21 15 -4 30 -9 34 -13z
m538 -231 c19 -6 66 -11 103 -11 38 0 67 -2 64 -5 -2 -2 -29 -11 -61 -19 -31
-8 -78 -26 -105 -40 l-49 -24 9 37 c5 20 6 45 3 55 -6 20 -8 20 36 7z m581
-45 c-23 -25 -47 -56 -53 -70 -17 -38 -25 -30 -27 27 -1 28 -3 54 -6 56 -15
15 -24 -26 -30 -147 l-7 -139 -42 -5 c-22 -2 -70 -4 -106 -3 l-65 1 0 76 c1
80 19 124 80 194 25 29 31 30 148 41 67 6 128 12 136 12 7 1 -5 -18 -28 -43z
m-293 -14 l-33 -40 -11 32 c-15 42 -11 47 37 47 l40 0 -33 -39z m-97 -291 c4
0 8 -15 7 -34 -1 -26 -8 -38 -30 -50 l-28 -17 0 49 c0 53 6 66 28 57 7 -3 18
-5 23 -5z m99 -8 c0 -8 -43 -32 -56 -32 -3 0 0 9 6 20 10 19 50 29 50 12z"/>
<path d="M1046 1101 c-4 -5 -4 -16 0 -24 3 -8 -2 -31 -10 -52 -20 -47 -22
-191 -3 -198 6 -2 26 8 44 24 51 44 122 82 172 92 25 5 96 10 156 12 72 2 123
8 148 18 64 27 45 37 -69 37 -94 0 -114 3 -180 30 -41 16 -101 34 -134 39 -32
5 -68 15 -79 20 -24 13 -38 14 -45 2z m105 -71 c11 0 36 -7 56 -15 l37 -15
-78 -40 c-43 -22 -82 -40 -87 -40 -10 0 -12 53 -3 98 6 28 9 30 31 21 13 -5
33 -9 44 -9z"/>
<path d="M2444 1124 c-18 -14 -18 -15 4 -4 12 6 22 13 22 15 0 8 -5 6 -26 -11z"/>
</g>
</svg>
