<?xml version="1.0" standalone="no"?>
<!DOCTYPE svg PUBLIC "-//W3C//DTD SVG 20010904//EN"
 "http://www.w3.org/TR/2001/REC-SVG-20010904/DTD/svg10.dtd">
<svg version="1.0" xmlns="http://www.w3.org/2000/svg"
 width="174.000000pt" height="125.000000pt" viewBox="0 0 174.000000 125.000000"
 preserveAspectRatio="xMidYMid meet">
<metadata>
Created by potrace 1.16, written by Peter Selinger 2001-2019
</metadata>
<g transform="translate(0.000000,125.000000) scale(0.100000,-0.100000)"
fill="#000000" stroke="none">
<path d="M1597 1134 c-3 -3 -38 -8 -79 -10 -40 -3 -86 -9 -103 -14 -16 -5 -70
-14 -120 -20 -142 -18 -293 -40 -385 -56 -239 -44 -315 -55 -425 -64 -128 -10
-165 -6 -165 16 0 16 -26 19 -35 5 -3 -5 -7 -53 -9 -106 -2 -75 0 -97 11 -104
31 -17 24 -261 -8 -261 -5 0 -9 -7 -9 -16 0 -8 -16 -49 -36 -90 -20 -41 -34
-77 -31 -81 4 -3 21 1 39 10 34 16 158 24 317 19 l84 -2 -7 -109 c-3 -59 -3
-122 0 -140 9 -42 34 -41 35 2 0 17 2 43 3 57 1 14 3 60 4 103 l2 79 78 -6
c43 -3 109 -13 147 -21 37 -9 75 -13 84 -9 9 4 30 6 46 5 66 -4 352 -42 389
-52 21 -6 45 -8 54 -4 13 5 13 7 -3 19 -19 13 -19 8 0 156 9 72 14 128 20 230
6 110 35 237 54 233 5 -2 8 3 5 11 -6 15 46 133 77 178 11 14 19 31 19 37 0
11 -42 15 -53 5z m-6 -56 c-5 -13 -23 -51 -40 -86 -17 -34 -31 -68 -31 -74 0
-8 -3 -8 -9 -2 -5 5 -11 46 -13 91 l-3 82 35 4 c19 2 43 4 52 5 14 2 16 -2 9
-20z m-135 -159 c0 -90 -4 -236 -8 -324 -12 -210 -11 -205 -18 -205 -3 0 -3
-21 -1 -46 l3 -47 -68 7 c-453 48 -592 70 -641 101 -25 17 -25 16 42 188 24
59 40 107 37 107 -4 0 -25 -5 -47 -12 -80 -22 -150 -13 -124 18 6 8 9 18 5 22
-8 7 -46 -34 -46 -50 0 -5 13 -16 29 -26 29 -16 29 -17 30 -114 1 -76 -2 -100
-13 -104 -7 -3 -47 6 -87 19 -41 14 -90 28 -109 32 -19 3 -49 11 -67 16 -30
10 -32 13 -29 52 3 42 35 105 123 240 21 33 43 68 50 80 6 11 20 21 30 23 33
3 67 12 172 43 91 27 170 44 264 57 15 2 38 9 50 16 26 13 122 35 222 49 39 6
95 14 125 18 30 5 60 7 65 6 6 -1 10 -65 11 -166z m-747 47 c-2 -2 -62 -18
-133 -36 -72 -18 -157 -44 -190 -57 -33 -12 -60 -23 -61 -23 0 0 0 25 0 54 0
30 3 52 7 48 10 -10 221 -5 278 7 48 9 106 14 99 7z m-300 -229 c-29 -53 -55
-95 -58 -92 -4 2 -8 27 -10 56 -1 29 -7 61 -12 72 -6 10 -9 20 -7 21 8 5 133
44 135 42 2 -1 -20 -46 -48 -99z m347 -93 c-3 -9 -9 -28 -12 -42 -4 -15 -11
-33 -17 -39 -5 -7 -7 -13 -3 -13 3 0 -1 -16 -9 -36 -8 -20 -15 -45 -15 -55 0
-10 -4 -20 -8 -23 -4 -2 -6 23 -4 57 2 34 -1 81 -6 104 -10 43 -10 43 22 52
48 14 59 13 52 -5z m-444 -203 c2 -19 10 -37 16 -39 11 -3 13 3 16 48 2 22 40
19 131 -12 44 -15 99 -30 123 -34 23 -4 42 -11 42 -16 0 -5 -4 -7 -9 -3 -13 7
-275 7 -328 -1 -37 -5 -43 -3 -43 13 0 18 38 88 45 82 2 -2 5 -19 7 -38z"/>
</g>
</svg>
