<?xml version="1.0" standalone="no"?>
<!DOCTYPE svg PUBLIC "-//W3C//DTD SVG 20010904//EN"
 "http://www.w3.org/TR/2001/REC-SVG-20010904/DTD/svg10.dtd">
<svg version="1.0" xmlns="http://www.w3.org/2000/svg"
 width="188.000000pt" height="130.000000pt" viewBox="0 0 188.000000 130.000000"
 preserveAspectRatio="xMidYMid meet">
<metadata>
Created by potrace 1.16, written by Peter Selinger 2001-2019
</metadata>
<g transform="translate(0.000000,130.000000) scale(0.100000,-0.100000)"
fill="#000000" stroke="none">
<path d="M844 1135 c-19 -29 -33 -92 -39 -180 -3 -33 -9 -74 -13 -90 -5 -17
-10 -55 -11 -85 -1 -30 -6 -58 -9 -61 -16 -14 -124 -27 -241 -29 -132 -2 -244
-12 -273 -25 -14 -5 -18 -2 -18 14 0 12 -4 21 -9 21 -25 0 -48 -66 -62 -175
-6 -44 -21 -123 -35 -177 -13 -53 -23 -107 -23 -120 1 -12 -2 -53 -6 -89 -7
-61 -6 -67 18 -95 24 -27 27 -28 49 -14 18 12 70 15 263 17 132 1 249 2 260 3
11 0 112 1 225 1 112 0 238 3 280 7 107 10 349 6 414 -8 41 -8 60 -8 76 0 26
14 22 42 -7 54 -18 9 -22 21 -27 100 -7 90 -2 235 10 331 8 63 10 111 19 371
7 202 7 212 -11 221 -22 12 -322 10 -442 -2 -88 -8 -338 11 -348 27 -9 14 -23
9 -40 -17z m741 -45 c20 -7 35 -19 39 -33 11 -40 6 -220 -10 -372 -8 -82 -18
-205 -21 -273 -3 -67 -8 -121 -10 -119 -10 10 -73 173 -73 189 0 9 -8 23 -17
30 -10 7 -30 31 -44 53 -53 82 -89 142 -89 149 0 4 -14 25 -31 46 -17 21 -28
43 -24 49 3 6 2 11 -3 11 -5 0 -19 24 -33 53 -13 28 -26 54 -29 57 -3 3 -14
23 -25 45 -11 22 -28 51 -37 64 -10 13 -18 27 -18 32 0 29 349 44 425 19z
m-520 -6 c17 -1 37 -3 46 -3 10 -1 38 -43 74 -112 l57 -111 -139 3 c-129 4
-141 6 -163 27 -14 13 -37 31 -52 40 -29 17 -29 25 -12 140 l5 33 77 -7 c42
-3 91 -8 107 -10z m-190 -203 c3 -11 18 -33 33 -50 15 -16 28 -34 29 -40 2 -5
20 -39 42 -75 44 -72 119 -242 130 -297 4 -20 20 -52 34 -71 15 -19 27 -40 27
-47 0 -7 11 -33 25 -59 14 -26 25 -57 25 -69 0 -14 6 -23 15 -23 28 0 26 25
-5 85 -16 33 -30 68 -30 77 0 9 -4 20 -10 23 -13 8 -37 63 -44 101 -5 32 -5
32 47 38 29 4 103 6 166 5 l113 -2 30 -66 c67 -150 69 -155 77 -142 8 12 21
-78 21 -138 l0 -27 -157 -1 c-87 0 -302 -3 -478 -6 -176 -4 -429 -4 -563 0
l-243 6 7 56 c4 31 7 65 6 76 -1 11 7 70 18 130 12 61 26 146 33 189 12 78 13
79 42 81 17 1 111 5 210 9 99 4 208 14 243 22 35 8 85 14 111 14 43 0 71 12
71 32 0 4 -13 8 -29 8 -23 0 -30 5 -34 28 -3 15 -4 38 -2 52 13 85 17 100 25
100 5 0 11 -9 15 -19z m380 -67 c6 -10 22 -31 36 -48 15 -17 34 -47 43 -66 9
-19 34 -62 56 -95 22 -33 44 -68 50 -77 10 -17 0 -18 -153 -18 l-164 0 -22 53
c-36 82 -60 127 -102 197 -21 36 -39 69 -39 74 0 5 63 6 143 2 117 -5 144 -9
152 -22z"/>
</g>
</svg>
