<?xml version="1.0" standalone="no"?>
<!DOCTYPE svg PUBLIC "-//W3C//DTD SVG 20010904//EN"
 "http://www.w3.org/TR/2001/REC-SVG-20010904/DTD/svg10.dtd">
<svg version="1.0" xmlns="http://www.w3.org/2000/svg"
 width="132.000000pt" height="124.000000pt" viewBox="0 0 132.000000 124.000000"
 preserveAspectRatio="xMidYMid meet">
<metadata>
Created by potrace 1.16, written by Peter Selinger 2001-2019
</metadata>
<g transform="translate(0.000000,124.000000) scale(0.100000,-0.100000)"
fill="#000000" stroke="none">
<path d="M752 1135 c-7 -14 -12 -38 -12 -53 0 -51 -4 -52 -191 -52 -96 0 -183
1 -194 3 -32 3 -24 -26 10 -35 17 -5 105 -6 196 -2 l166 7 -3 -89 -3 -89 -88
-5 c-48 -3 -94 -9 -100 -13 -24 -15 -38 -98 -49 -287 -9 -164 -19 -246 -33
-268 -5 -8 -122 -17 -188 -13 -7 1 -10 15 -7 39 2 20 8 84 14 142 6 58 13 123
16 145 2 22 9 78 14 125 5 47 14 105 20 130 17 73 29 163 24 172 -21 34 -63
-29 -69 -106 -2 -23 -8 -68 -15 -101 -6 -33 -14 -91 -16 -130 -2 -38 -9 -104
-14 -145 -5 -41 -12 -120 -15 -175 -4 -54 -11 -108 -17 -118 -17 -32 2 -38 85
-27 43 5 147 10 233 12 135 1 178 8 162 24 -3 2 -42 7 -89 11 l-84 8 2 35 c0
19 6 64 12 100 6 36 15 115 21 175 17 180 21 205 31 199 5 -3 9 2 9 10 0 19
37 29 83 23 50 -7 56 -12 49 -54 -12 -73 -8 -127 9 -131 12 -2 16 8 17 51 1
58 16 107 35 119 7 4 22 8 35 8 21 0 22 -4 23 -90 2 -119 1 -115 23 -115 18 0
20 8 20 97 1 53 3 98 6 101 3 2 26 7 52 9 47 5 48 5 54 -28 3 -18 4 -67 1
-109 -4 -58 -3 -75 8 -75 16 0 21 28 24 132 1 45 3 83 4 84 1 1 28 4 60 6 l57
5 -1 -41 c-2 -60 0 -76 10 -76 16 0 40 97 46 186 1 23 12 72 24 109 12 37 20
70 16 73 -3 3 -15 0 -28 -6 -12 -6 -53 -12 -91 -14 l-69 -4 6 67 c5 55 3 67
-8 63 -16 -7 -35 -57 -35 -95 0 -31 -14 -37 -69 -30 l-33 3 4 64 c7 116 -39
63 -51 -59 -1 -5 -18 -7 -38 -5 l-38 3 3 63 c2 47 -1 62 -11 62 -8 0 -19 -11
-25 -25z m432 -133 c8 -14 -41 -165 -58 -174 -9 -5 -33 -8 -54 -6 l-37 3 3 80
c2 44 6 82 9 85 2 3 30 8 61 11 31 3 60 7 64 8 4 0 9 -2 12 -7z m-336 -12 c11
0 12 -12 8 -52 -13 -109 -18 -123 -55 -126 l-32 -3 2 83 c3 91 12 112 43 104
12 -3 27 -6 34 -6z m149 -4 c3 -3 2 -41 -2 -84 -7 -79 -7 -80 -37 -86 -17 -3
-42 -6 -55 -6 -21 0 -24 4 -20 23 3 12 9 51 13 87 4 36 12 69 18 73 11 8 74 2
83 -7z"/>
</g>
</svg>
