<?xml version="1.0" standalone="no"?>
<!DOCTYPE svg PUBLIC "-//W3C//DTD SVG 20010904//EN"
 "http://www.w3.org/TR/2001/REC-SVG-20010904/DTD/svg10.dtd">
<svg version="1.0" xmlns="http://www.w3.org/2000/svg"
 width="136.000000pt" height="114.000000pt" viewBox="0 0 136.000000 114.000000"
 preserveAspectRatio="xMidYMid meet">
<metadata>
Created by potrace 1.16, written by Peter Selinger 2001-2019
</metadata>
<g transform="translate(0.000000,114.000000) scale(0.100000,-0.100000)"
fill="#000000" stroke="none">
<path d="M1225 959 c-16 -5 -77 -11 -135 -12 -86 -3 -106 -6 -108 -19 -2 -9 6
-18 17 -21 25 -6 41 -62 41 -149 l0 -68 -107 -2 c-60 -1 -134 -2 -166 -2 -61
1 -167 31 -174 50 -2 6 21 51 52 98 32 48 54 90 51 93 -3 4 -33 1 -67 -5 -33
-6 -67 -9 -75 -6 -7 2 -22 7 -31 10 -10 4 -74 7 -143 7 -109 0 -125 -2 -128
-16 -3 -12 4 -17 21 -17 20 0 24 -5 25 -32 0 -17 5 -34 10 -37 11 -7 10 -326
-1 -337 -4 -5 -12 -2 -17 6 -23 37 -43 -28 -56 -182 -9 -116 0 -178 28 -178
11 0 29 11 40 25 21 26 188 155 249 192 27 16 59 22 159 27 278 15 320 22 305
47 -4 5 -10 7 -15 4 -5 -3 -106 -8 -224 -11 -211 -5 -214 -5 -221 16 -11 36 5
99 28 112 12 6 43 28 69 49 53 42 68 45 265 54 133 7 127 13 120 -130 -6 -109
1 -165 19 -165 16 0 16 1 14 170 l-1 125 60 90 c34 50 80 116 103 148 44 62
43 80 -7 66z m-26 -61 c-7 -13 -40 -64 -74 -114 l-62 -91 -1 81 c0 45 -2 92
-4 106 -3 23 0 25 52 31 106 11 102 12 89 -13z m-761 -40 c-17 -29 -43 -71
-56 -93 l-26 -40 -7 29 c-5 16 -9 54 -11 85 l-3 55 40 4 c22 2 42 6 44 8 2 2
15 4 27 4 23 0 23 0 -8 -52z m204 5 c-60 -102 -67 -113 -74 -113 -9 0 -9 0
-11 80 l-1 54 44 12 c71 19 73 18 42 -33z m-118 -88 c-2 -197 -14 -336 -30
-342 -8 -3 -46 3 -85 13 l-71 18 6 107 c5 106 5 107 48 171 24 34 56 85 71
111 19 32 34 47 45 45 15 -3 17 -19 16 -123z m111 -110 c43 -19 39 -27 -34
-77 -33 -23 -43 -27 -38 -14 4 10 7 38 7 62 0 50 7 53 65 29z m-325 -260 c0
-27 17 -34 26 -11 4 10 15 11 47 5 23 -4 61 -8 84 -9 23 0 44 -4 47 -9 3 -5
-39 -39 -95 -77 -55 -38 -109 -75 -120 -83 -18 -13 -19 -11 -19 30 0 76 13
179 21 179 5 0 9 -11 9 -25z"/>
</g>
</svg>
