<?xml version="1.0" standalone="no"?>
<!DOCTYPE svg PUBLIC "-//W3C//DTD SVG 20010904//EN"
 "http://www.w3.org/TR/2001/REC-SVG-20010904/DTD/svg10.dtd">
<svg version="1.0" xmlns="http://www.w3.org/2000/svg"
 width="252.000000pt" height="116.000000pt" viewBox="0 0 252.000000 116.000000"
 preserveAspectRatio="xMidYMid meet">
<metadata>
Created by potrace 1.16, written by Peter Selinger 2001-2019
</metadata>
<g transform="translate(0.000000,116.000000) scale(0.100000,-0.100000)"
fill="#000000" stroke="none">
<path d="M2062 987 c-93 -26 -1457 -34 -1520 -8 -24 10 -36 10 -46 2 -24 -20
-37 -92 -37 -209 1 -121 -17 -383 -27 -392 -2 -3 -7 1 -9 8 -8 21 -23 13 -23
-11 0 -42 77 -87 148 -87 49 0 39 -21 -30 -60 -34 -19 -81 -50 -105 -68 l-44
-33 7 136 c5 90 3 135 -3 135 -15 0 -31 -74 -32 -145 0 -33 -3 -88 -7 -122 -8
-77 6 -83 58 -25 41 45 89 81 141 105 22 9 41 17 43 17 2 0 4 -29 4 -65 0 -45
4 -65 13 -65 9 0 11 20 10 74 l-3 75 35 11 c19 6 35 17 35 23 0 14 45 13 270
-3 80 -6 224 -13 320 -16 96 -3 180 -5 185 -6 6 0 143 3 305 7 162 4 326 8
365 9 58 1 70 4 73 19 3 14 -4 17 -36 17 -37 0 -61 18 -44 34 3 4 7 80 9 169
5 241 6 247 125 394 32 39 58 75 58 80 0 10 -201 11 -238 0z m38 -56 c0 -14
-4 -53 -9 -86 -17 -108 -28 -476 -16 -516 9 -27 -29 -29 -575 -33 -120 -1
-433 12 -482 20 -26 4 -35 10 -31 20 3 9 -2 14 -16 14 -27 0 -26 2 5 56 23 39
96 96 202 158 10 6 12 -10 10 -72 -2 -55 1 -84 11 -96 16 -19 34 -11 27 12 -8
27 -9 82 -1 142 4 30 8 62 9 71 1 9 10 24 19 33 9 10 17 22 17 27 0 12 74 124
103 156 34 38 18 48 -71 45 -95 -4 -93 -1 -101 -122 l-6 -85 -40 37 -40 37 0
85 c1 47 -2 86 -6 86 -3 0 -26 -16 -50 -35 -24 -19 -49 -35 -55 -35 -6 0 -17
-7 -24 -15 -10 -12 -24 -14 -61 -9 -31 4 -49 3 -49 -4 0 -11 23 -22 48 -22 38
-1 45 -15 23 -55 l-20 -37 -11 41 c-7 26 -17 41 -27 41 -13 0 -14 -8 -8 -52 4
-29 9 -84 11 -123 1 -38 9 -98 17 -132 l15 -62 -30 -10 c-24 -9 -27 -13 -19
-29 5 -10 17 -24 25 -32 17 -13 22 -35 7 -26 -4 3 -70 6 -145 7 -75 1 -136 6
-136 10 0 4 25 36 55 72 66 77 69 91 18 80 -21 -4 -58 -6 -81 -5 -32 2 -43 -1
-40 -10 3 -8 23 -13 51 -13 25 -1 49 -3 52 -6 3 -3 -10 -27 -29 -53 l-33 -47
-6 30 c-10 47 -27 37 -27 -15 l0 -47 -32 7 c-70 14 -76 24 -71 128 6 116 34
184 123 289 70 84 140 129 198 129 36 0 62 14 62 32 0 19 -103 -8 -184 -49
-50 -25 -97 -46 -105 -48 -9 -2 -24 -7 -34 -11 -17 -6 -18 -2 -16 47 4 91 5
92 58 85 58 -8 772 -9 909 -1 79 4 102 3 102 -7 0 -7 -26 -64 -57 -127 -56
-110 -61 -116 -120 -154 -62 -39 -62 -39 -45 -63 9 -13 21 -24 27 -24 12 0 93
-88 110 -120 17 -33 100 -110 119 -110 16 0 76 68 76 87 0 21 22 63 31 57 4
-2 23 8 41 24 18 16 63 50 101 76 37 26 65 52 61 57 -3 5 -20 9 -37 9 -18 0
-37 4 -44 8 -16 10 -34 60 -24 66 5 3 6 52 4 109 -3 78 -1 106 9 114 7 6 56
14 108 18 52 3 96 7 97 9 2 2 15 1 28 -2 19 -3 25 -11 25 -31z m140 23 c0 -6
-113 -164 -116 -161 -1 1 1 39 4 85 l5 82 53 0 c30 0 54 -3 54 -6z m-508 -38
c-23 -11 -42 -24 -42 -28 0 -12 13 -10 56 11 l39 19 3 -24 c2 -13 2 -38 0 -56
l-4 -33 -13 42 c-8 23 -18 40 -22 37 -14 -8 -11 -57 6 -104 8 -23 15 -44 15
-47 0 -2 -35 -3 -77 -2 -72 2 -133 16 -133 29 0 4 27 34 61 67 l61 61 -31 18
c-17 10 -31 22 -31 26 0 8 94 15 130 9 22 -4 21 -6 -18 -25z m-99 -33 c2 -5
-11 -24 -30 -43 l-35 -35 16 39 c9 21 16 40 16 42 0 7 29 4 33 -3z m-547 -19
c-3 -9 -6 -27 -6 -40 0 -30 -11 -31 -28 -3 -11 18 -11 24 4 40 21 23 38 25 30
3z m223 -70 c-16 -31 -40 -70 -54 -86 l-25 -30 0 80 c0 43 3 82 7 85 3 4 28 7
54 7 l48 0 -30 -56z m-214 -87 c17 -16 42 -35 57 -43 15 -8 32 -23 38 -33 9
-17 -1 -27 -77 -83 -48 -35 -91 -62 -96 -60 -6 2 -23 -9 -38 -24 -16 -15 -30
-26 -32 -23 -6 7 -27 148 -27 178 0 16 19 66 42 111 l41 81 31 -38 c17 -21 45
-50 61 -66z m702 61 c-3 -7 -5 -2 -5 12 0 14 2 19 5 13 2 -7 2 -19 0 -25z
m-1249 -46 c-18 -27 -38 -57 -43 -67 -9 -14 -11 -8 -10 30 0 44 2 48 40 70 22
12 41 21 43 20 2 -2 -11 -26 -30 -53z m1061 -18 c4 -4 -40 -43 -50 -44 -3 0
-4 14 -1 30 4 26 8 30 26 24 11 -4 23 -8 25 -10z m-64 -84 c7 0 26 11 42 24
48 40 90 56 147 56 52 0 78 -11 56 -25 -6 -4 -8 -10 -5 -15 3 -5 -4 -28 -17
-50 -21 -39 -25 -41 -58 -36 -19 3 -58 6 -87 6 -32 0 -57 6 -67 15 -29 29 -37
18 -32 -42 4 -44 3 -54 -7 -44 -15 15 -16 157 -2 186 8 16 10 12 13 -27 2 -32
8 -48 17 -48z m-81 0 c-4 -42 -5 -43 -43 -28 -14 5 -31 6 -40 3 -8 -3 -13 -4
-10 -1 5 6 93 65 96 66 1 0 -1 -18 -3 -40z m394 0 c25 0 10 -19 -53 -69 -53
-42 -63 -47 -53 -26 6 14 17 25 25 25 7 0 13 5 13 10 0 6 -4 10 -10 10 -10 0
-3 27 13 48 6 8 20 11 31 8 12 -3 27 -6 34 -6z m-260 -70 c12 -1 10 -5 -8 -15
-34 -19 -40 -19 -40 6 0 15 4 19 16 15 9 -3 23 -6 32 -6z m136 -12 c-18 -48
-91 -182 -98 -182 -13 -1 -98 104 -94 116 7 20 123 76 160 77 26 1 36 -3 32
-11z m-804 -148 c8 -5 12 -12 9 -15 -8 -8 -39 5 -39 16 0 11 11 11 30 -1z"/>
</g>
</svg>
