<?xml version="1.0" standalone="no"?>
<!DOCTYPE svg PUBLIC "-//W3C//DTD SVG 20010904//EN"
 "http://www.w3.org/TR/2001/REC-SVG-20010904/DTD/svg10.dtd">
<svg version="1.0" xmlns="http://www.w3.org/2000/svg"
 width="322.000000pt" height="154.000000pt" viewBox="0 0 322.000000 154.000000"
 preserveAspectRatio="xMidYMid meet">
<metadata>
Created by potrace 1.16, written by Peter Selinger 2001-2019
</metadata>
<g transform="translate(0.000000,154.000000) scale(0.100000,-0.100000)"
fill="#000000" stroke="none">
<path d="M1483 1343 c-15 -17 -50 -55 -76 -86 -35 -41 -55 -57 -73 -57 -14 0
-40 -6 -58 -14 -27 -11 -34 -21 -39 -52 -4 -26 -2 -41 6 -46 8 -4 11 -21 9
-47 -4 -38 -6 -41 -36 -42 -17 0 -107 -3 -201 -6 -295 -9 -322 -7 -507 48 -64
19 -68 22 -68 49 0 34 -14 38 -48 14 -18 -12 -22 -24 -21 -67 0 -29 4 -74 8
-101 5 -27 6 -68 3 -92 l-5 -44 -48 0 c-26 0 -51 -4 -54 -10 -3 -5 -1 -10 5
-10 6 0 10 -6 8 -12 -1 -7 8 -39 20 -71 26 -68 27 -81 7 -73 -26 10 -38 -32
-32 -110 5 -70 17 -105 43 -131 18 -18 21 -17 27 15 4 18 21 36 52 56 25 15
48 26 52 23 3 -3 7 -32 9 -64 3 -32 7 -64 9 -71 9 -24 26 -1 24 31 -2 18 -2
53 -1 78 2 43 4 46 36 56 l34 10 6 -58 c7 -60 1 -120 -16 -151 -7 -14 -5 -18
11 -18 25 0 42 55 44 150 3 79 15 98 57 92 l30 -4 -2 -97 c-1 -106 8 -164 25
-158 7 2 10 34 8 94 -2 62 2 101 12 125 l14 34 244 1 c134 1 247 -1 250 -3 4
-2 2 -25 -3 -50 -7 -33 -7 -54 1 -72 14 -30 -2 -46 -31 -31 -10 6 -23 7 -29 3
-21 -12 1 -66 57 -140 61 -82 94 -96 116 -49 6 14 19 25 29 25 10 0 25 14 34
33 9 19 69 75 146 137 175 141 240 185 316 211 34 13 63 27 63 32 0 5 -8 6
-17 3 -10 -4 -15 -5 -12 -2 9 9 80 56 84 56 3 0 25 16 51 35 58 44 93 46 127
5 14 -16 30 -30 36 -30 16 0 98 -59 105 -75 7 -20 -22 -20 -74 1 -57 23 -75 7
-65 -56 3 -25 10 -71 14 -102 3 -31 10 -61 15 -65 5 -4 18 5 30 21 42 58 90
108 119 123 22 11 71 16 176 19 80 2 156 7 169 9 18 5 22 1 22 -20 0 -14 4
-25 10 -25 9 0 23 56 20 81 -5 29 1 48 17 64 13 14 14 21 5 35 -14 23 2 135
22 155 7 8 16 39 20 70 8 70 35 124 87 176 22 22 38 43 35 46 -3 3 -47 7 -98
9 -95 3 -118 -4 -118 -36 0 -26 -17 -29 -137 -26 -121 3 -170 18 -192 59 -8
15 -20 27 -27 27 -14 0 -20 -23 -30 -108 -6 -57 -10 -65 -43 -89 -20 -15 -49
-39 -66 -53 -38 -34 -131 -90 -149 -90 -7 0 -36 22 -64 49 -29 27 -75 62 -104
78 -30 16 -84 61 -123 102 -99 105 -145 150 -198 194 -26 21 -47 46 -47 56 0
10 -9 26 -20 36 -18 17 -20 16 -47 -12z m84 -88 c98 -94 192 -190 188 -193 -6
-7 -167 65 -273 122 l-54 28 25 27 c14 14 30 36 36 49 6 12 14 22 16 22 3 0
31 -25 62 -55z m-162 -112 c-29 -72 -47 -130 -76 -243 l-12 -45 -13 60 c-17
79 -18 209 -1 223 11 9 43 17 91 21 13 1 16 -3 11 -16z m189 -47 c122 -44 195
-84 175 -97 -8 -5 -32 -9 -54 -9 -22 0 -60 -5 -84 -11 -24 -5 -45 -8 -48 -6
-2 2 10 19 27 37 16 18 30 36 30 41 0 5 -44 9 -97 9 -120 0 -132 6 -107 50 22
36 17 37 158 -14z m1260 18 c13 -5 10 -16 -19 -67 -31 -58 -64 -85 -66 -55 -3
35 4 63 19 75 16 12 16 14 0 24 -10 5 -18 14 -18 19 0 11 59 13 84 4z m-405
-38 l45 -13 -34 -16 c-51 -26 -70 -22 -70 13 0 34 0 34 59 16z m294 -53 c-3
-21 -7 -40 -9 -42 -7 -7 -239 -6 -267 2 -39 11 -27 22 46 46 66 21 100 27 184
29 l52 2 -6 -37z m-1184 -39 c-25 -45 -72 -139 -85 -172 -7 -17 -10 8 -11 87
l-3 110 48 6 c26 4 52 8 57 9 17 5 17 -1 -6 -40z m-1024 10 c39 -8 75 -16 80
-18 6 -2 -11 -13 -37 -25 -26 -12 -68 -38 -94 -57 -25 -19 -48 -33 -51 -30
-10 10 -9 116 1 116 6 0 5 5 -2 12 -19 19 -14 31 11 24 12 -4 54 -14 92 -22z
m896 -16 c2 -111 -2 -245 -11 -323 -5 -49 -9 -112 -9 -140 2 -80 1 -82 -41
-99 -22 -9 -45 -16 -51 -16 -18 0 21 431 41 455 6 7 13 24 15 36 15 80 28 119
41 119 9 0 14 -12 15 -32z m426 -19 c-19 -10 -97 -22 -97 -14 0 3 8 16 17 29
17 22 18 22 54 7 22 -9 33 -19 26 -22z m-122 1 c3 -5 -8 -16 -24 -25 -17 -8
-28 -21 -26 -28 3 -6 -10 -35 -29 -64 -18 -28 -38 -64 -44 -80 -9 -23 -11 -12
-13 65 -1 50 -2 98 -3 105 -1 7 22 17 54 24 71 15 78 15 85 3z m-496 -9 c28
-18 49 -357 23 -383 -13 -13 -479 -20 -487 -8 -7 12 60 119 101 161 36 37 39
68 6 50 -33 -17 -90 -20 -96 -6 -4 11 -21 13 -76 8 -61 -5 -70 -4 -65 10 4 8
16 18 28 21 43 11 7 17 -45 8 -29 -6 -84 -8 -121 -5 l-68 6 28 29 c15 17 53
46 83 67 l55 36 145 5 c216 8 476 9 489 1z m1121 -2 c21 -6 33 -124 31 -306
-1 -47 -18 -51 -40 -9 -7 13 -36 36 -64 53 l-52 29 3 55 c6 103 51 196 92 185
8 -2 22 -5 30 -7z m146 -12 c4 -4 2 -7 -5 -7 -7 0 -27 -12 -44 -26 l-31 -26
-9 27 c-7 19 -6 30 3 35 14 9 77 7 86 -3z m234 -35 l0 -47 -107 1 c-162 2
-175 3 -168 14 18 30 161 75 248 79 26 1 27 -1 27 -47z m44 11 c-9 -52 -14
-54 -14 -5 0 23 5 42 10 42 7 0 8 -14 4 -37z m-850 -2 c20 -16 33 -32 28 -35
-16 -10 -112 -18 -112 -10 0 10 38 74 43 74 3 0 21 -13 41 -29z m-114 -38
c-56 -100 -55 -99 -68 -42 -18 74 -17 75 41 86 28 6 54 11 55 12 2 0 -11 -25
-28 -56z m-248 20 c3 -10 1 -61 -4 -113 -5 -52 -8 -139 -6 -192 l4 -97 -48
-21 c-25 -11 -51 -20 -57 -20 -7 0 -9 30 -6 83 2 45 4 110 5 143 0 50 3 63 18
66 11 3 24 26 36 64 27 87 35 104 45 104 5 0 11 -8 13 -17z m155 -159 c2 -93
7 -130 19 -148 14 -23 14 -25 -3 -34 -19 -11 -121 -42 -135 -42 -5 0 -8 47 -7
104 1 86 4 103 16 102 10 -1 20 14 28 39 6 22 22 59 35 83 34 65 45 42 47
-104z m473 107 c-6 -16 -9 -38 -6 -49 4 -11 3 -22 -1 -25 -10 -6 -76 25 -80
38 -3 10 88 76 96 69 2 -2 -2 -17 -9 -33z m-240 5 c0 -7 -62 -106 -66 -106 -2
0 -4 22 -4 49 0 39 4 51 18 54 24 6 52 8 52 3z m66 -12 c18 -12 22 -20 14 -29
-11 -13 8 -37 26 -34 21 4 23 -2 6 -19 -21 -21 -94 -72 -129 -91 -41 -21 -24
-4 33 34 30 20 53 40 50 43 -4 3 -30 -11 -59 -31 -36 -26 -53 -33 -55 -23 -6
26 67 166 86 166 1 0 14 -7 28 -16z m-155 -41 c3 -87 6 -120 13 -131 6 -10
-77 -81 -95 -82 -4 0 -12 14 -19 30 -17 40 -8 99 25 166 21 43 31 54 51 54 21
0 24 -5 25 -37z m639 28 l24 -7 -31 -13 c-18 -7 -38 -19 -44 -27 -20 -24 -39
-16 -39 15 0 39 29 49 90 32z m202 -1 c25 0 26 -2 23 -52 l-3 -53 -124 3 c-67
2 -129 7 -137 12 -11 6 -3 15 29 39 24 17 50 31 59 32 9 0 32 6 51 14 19 7 44
11 55 9 11 -2 32 -4 47 -4z m-2271 -74 c-4 -6 -24 -31 -42 -56 l-35 -46 -26
63 -25 62 46 3 c53 3 95 -10 82 -26z m118 -42 c-28 -42 -52 -74 -54 -72 -2 2
-5 32 -6 68 l-3 65 40 6 c79 12 78 14 23 -67z m154 24 c-7 -28 -83 -148 -94
-148 -11 0 -16 149 -4 161 5 5 30 9 56 9 44 0 47 -2 42 -22z m-247 -155 c-7
-7 -67 5 -85 16 -15 9 -4 31 54 106 l30 39 3 -78 c2 -43 1 -81 -2 -83z m338
105 c-78 -109 -71 -104 -77 -50 -7 59 10 89 55 95 18 2 39 5 46 5 8 1 -3 -22
-24 -50z m1676 8 c42 -12 43 -14 20 -21 -14 -4 -27 -10 -30 -14 -3 -3 -15 -15
-27 -25 l-23 -19 0 46 c0 53 -2 52 60 33z m-1902 -56 c-1 -56 -3 -60 -25 -60
-30 0 -30 22 -1 78 13 23 24 42 25 42 2 0 2 -27 1 -60z m2148 10 c0 -27 -6
-42 -16 -45 -8 -2 -68 -3 -132 -3 -131 2 -134 5 -48 59 39 25 55 29 121 29
l76 0 -1 -40z m-2026 -35 c0 -28 -4 -35 -20 -35 -24 0 -25 13 -4 45 21 33 24
32 24 -10z m1600 -44 l45 -6 -55 -52 -56 -52 -10 64 c-9 62 -9 65 10 59 11 -4
41 -9 66 -13z m-1862 -27 c31 -9 27 -16 -23 -41 -54 -28 -55 -28 -55 -4 0 48
21 60 78 45z m1252 -28 c0 -4 -131 -104 -229 -176 -26 -20 -56 -43 -65 -53
-10 -9 -23 -17 -30 -17 -8 0 -20 -10 -28 -22 l-15 -22 -13 24 c-7 14 -24 38
-37 54 -25 30 -17 51 15 39 8 -3 17 -1 21 4 10 16 111 64 121 58 4 -3 15 1 22
9 21 20 94 56 168 82 76 27 70 25 70 20z"/>
</g>
</svg>
