<?xml version="1.0" standalone="no"?>
<!DOCTYPE svg PUBLIC "-//W3C//DTD SVG 20010904//EN"
 "http://www.w3.org/TR/2001/REC-SVG-20010904/DTD/svg10.dtd">
<svg version="1.0" xmlns="http://www.w3.org/2000/svg"
 width="306.000000pt" height="167.000000pt" viewBox="0 0 306.000000 167.000000"
 preserveAspectRatio="xMidYMid meet">
<metadata>
Created by potrace 1.16, written by Peter Selinger 2001-2019
</metadata>
<g transform="translate(0.000000,167.000000) scale(0.100000,-0.100000)"
fill="#000000" stroke="none">
<path d="M1528 1619 c-10 -5 -21 -28 -24 -49 -6 -38 -61 -136 -84 -150 -6 -4
-41 -5 -78 -2 -37 2 -85 5 -107 6 l-40 1 4 -63 c2 -35 8 -87 15 -115 7 -29 10
-73 8 -98 l-4 -46 -66 -7 c-37 -3 -168 -6 -292 -6 -181 0 -246 4 -334 20 -61
11 -117 18 -125 15 -9 -2 -54 -7 -100 -10 -54 -3 -93 -11 -109 -21 -25 -16
-25 -17 -6 -25 38 -13 58 -105 51 -233 -3 -65 -10 -112 -17 -114 -6 -2 -17
-11 -26 -19 -12 -12 -13 -18 -3 -23 9 -6 10 -28 5 -79 -3 -42 -2 -71 3 -71 5
0 31 11 58 24 26 13 75 29 108 36 33 6 89 18 125 25 73 15 127 22 248 31 46 3
107 10 135 15 98 17 222 30 257 27 38 -3 59 15 23 20 -19 3 -20 5 -8 28 9 17
10 36 4 62 -5 20 -6 85 -2 145 5 95 8 107 25 107 10 0 18 5 18 12 0 8 6 6 17
-4 12 -13 16 -36 17 -90 1 -96 -15 -421 -30 -610 -5 -64 5 -108 26 -108 14 0
32 69 26 98 -4 15 21 -27 54 -93 33 -65 65 -124 70 -129 6 -6 18 -3 32 11 26
23 180 124 310 203 48 29 89 59 92 67 3 8 11 11 18 7 7 -4 10 -4 6 1 -9 10
109 85 133 85 9 0 22 6 28 14 6 7 39 26 74 41 34 15 95 43 135 61 41 19 75 34
77 34 2 0 38 21 81 46 43 25 116 61 163 80 46 19 90 39 96 44 27 23 45 0 46
-59 1 -100 12 -141 36 -141 14 0 14 -3 -2 -20 -10 -11 -16 -22 -13 -25 8 -8
170 68 209 98 20 15 50 47 65 70 16 23 32 44 36 47 3 3 5 44 4 92 -3 89 -9
103 -82 207 -24 34 -119 74 -174 74 -25 0 -51 4 -57 10 -7 5 -14 6 -15 1 0 -5
-2 -13 -3 -19 -6 -25 -7 -33 -5 -77 1 -27 -3 -48 -9 -48 -5 0 -30 14 -55 30
-25 17 -91 51 -148 76 -144 63 -294 127 -351 150 -27 10 -65 33 -86 50 -20 18
-66 44 -101 59 -36 15 -76 35 -90 45 -14 9 -50 29 -80 44 -30 15 -57 31 -60
35 -3 4 -23 18 -45 31 -45 28 -75 56 -75 70 0 13 -10 12 -32 -1z m82 -95 c29
-20 82 -49 119 -66 36 -16 75 -38 86 -48 11 -10 44 -26 74 -36 29 -9 73 -32
96 -50 24 -18 69 -43 102 -57 198 -83 241 -102 270 -123 17 -13 35 -24 40 -24
4 0 26 -16 48 -35 l39 -36 -39 14 c-22 8 -80 30 -130 50 -49 19 -142 49 -205
65 -63 17 -146 46 -185 65 -38 19 -113 49 -165 66 -52 18 -108 38 -125 45 -16
8 -51 23 -77 35 -26 12 -52 21 -58 21 -15 0 -1 49 22 79 10 13 18 34 18 47 0
32 8 30 70 -12z m-241 -207 c-33 -82 -49 -140 -73 -260 l-23 -111 -7 54 c-13
87 -13 101 -6 142 5 23 2 69 -6 111 -23 117 -25 112 61 114 l75 2 -21 -52z
m116 31 c-2 -13 -12 -79 -20 -148 -9 -69 -18 -132 -20 -140 -3 -8 -9 -94 -15
-190 -6 -96 -13 -220 -17 -275 -4 -55 -6 -118 -5 -140 2 -50 -5 -60 -44 -68
l-30 -6 4 92 c2 51 8 124 13 162 12 94 27 259 43 498 16 214 23 237 73 237 19
0 22 -4 18 -22z m85 -2 c25 -8 61 -21 80 -29 19 -8 66 -23 103 -32 56 -15 67
-20 61 -34 -4 -9 -9 -53 -10 -97 -3 -88 -13 -214 -20 -254 -7 -39 -19 -218
-19 -290 0 -50 3 -65 14 -65 11 0 15 15 17 55 1 30 7 107 13 170 22 219 30
355 24 418 -5 54 -4 62 11 62 10 0 25 -4 35 -9 16 -9 17 -17 5 -108 -7 -54
-18 -159 -24 -233 -6 -74 -16 -168 -22 -207 -6 -40 -8 -92 -5 -116 l6 -44 -72
-20 c-82 -22 -86 -20 -69 51 11 42 18 137 27 346 7 155 14 225 32 288 10 37
12 57 5 64 -24 24 -31 3 -47 -137 -4 -27 -11 -79 -17 -115 -5 -36 -12 -101
-15 -145 -6 -114 -21 -292 -29 -347 -6 -41 -10 -48 -37 -57 -16 -6 -33 -11
-37 -11 -8 0 0 55 24 166 9 38 18 101 21 140 16 195 49 433 63 458 3 5 6 24 8
42 3 30 0 33 -18 30 -14 -2 -26 -15 -34 -37 -17 -47 -17 -62 1 -55 9 3 15 0
15 -9 0 -10 -6 -12 -17 -8 -16 6 -16 5 -3 -11 12 -16 12 -19 -3 -28 -11 -6
-16 -16 -12 -28 3 -10 -1 -60 -9 -112 -7 -51 -14 -100 -14 -108 0 -45 -25
-264 -37 -320 -7 -35 -11 -68 -8 -73 3 -4 0 -21 -7 -37 -9 -23 -22 -31 -61
-40 -28 -7 -53 -9 -56 -6 -6 5 7 182 23 336 3 25 5 80 5 124 -1 43 8 149 19
235 28 224 32 251 39 251 3 0 26 -6 51 -14z m391 -147 c11 -5 17 -14 15 -18
-3 -4 -8 -46 -11 -92 -3 -46 -10 -118 -15 -159 -11 -85 -11 -249 -1 -289 4
-14 13 -26 20 -26 10 0 14 45 17 195 7 323 9 358 15 364 7 7 64 -8 170 -45
l86 -30 -5 -162 c-4 -143 -3 -164 12 -176 24 -20 42 -1 27 27 -13 25 -14 89
-2 128 5 16 12 55 16 87 7 64 12 67 80 41 22 -9 72 -24 110 -34 39 -11 91 -30
117 -42 46 -22 47 -24 48 -69 0 -52 -16 -67 -51 -48 -17 8 -20 19 -18 54 2 25
0 47 -3 51 -13 12 -29 -39 -27 -83 3 -48 -16 -71 -48 -59 -13 6 -15 19 -9 87
5 61 4 80 -5 77 -21 -7 -43 -116 -31 -155 10 -34 10 -35 -31 -54 -23 -10 -47
-19 -53 -19 -16 0 -38 160 -31 229 4 39 3 61 -3 61 -31 0 -48 -161 -26 -235 9
-27 16 -55 16 -61 0 -7 -48 -31 -107 -53 -60 -23 -128 -50 -153 -61 -25 -11
-79 -32 -120 -48 l-75 -29 -6 36 c-4 20 0 70 7 111 8 41 17 155 19 252 3 157
16 258 31 258 3 0 14 -5 25 -11z m832 -94 c105 -58 146 -118 148 -221 3 -111
-44 -183 -149 -230 -58 -26 -66 -28 -58 -15 4 5 1 22 -5 38 -6 15 -13 91 -15
168 -3 77 -7 168 -11 202 -4 44 -2 67 7 78 7 8 14 15 16 15 2 0 32 -16 67 -35z
m-1459 -211 c-9 -121 -19 -281 -24 -357 -4 -76 -11 -141 -14 -144 -4 -4 -16
-7 -27 -8 -30 -2 -28 21 43 512 17 123 33 221 35 219 2 -2 -4 -102 -13 -222z
m-979 156 c-9 -17 -23 -34 -31 -37 -7 -3 -14 -14 -14 -24 0 -10 -8 -32 -18
-49 l-19 -30 -1 33 c-1 19 -6 46 -12 61 -5 15 -10 37 -10 49 0 20 6 22 61 25
l60 3 -16 -31z m225 11 c90 -15 100 -19 70 -24 -40 -8 -131 -4 -147 6 -6 4
-23 3 -38 -3 -36 -14 -42 -13 -48 9 -9 37 9 39 163 12z m1966 3 c18 -14 18
-14 -6 -3 -31 14 -36 19 -24 19 6 0 19 -7 30 -16z m-1796 -24 c0 -5 -15 -10
-32 -9 -28 0 -30 2 -13 9 28 12 45 12 45 0z m63 3 c-7 -2 -21 -2 -30 0 -10 3
-4 5 12 5 17 0 24 -2 18 -5z m233 -163 c-1 -150 -3 -170 -17 -170 -9 0 -31 -3
-49 -7 -29 -5 -32 -4 -27 12 4 10 2 24 -4 31 -7 9 -11 60 -10 146 1 73 3 133
4 134 1 1 11 4 23 8 20 6 21 4 18 -91 -2 -54 -6 -120 -9 -148 -5 -55 5 -81 28
-72 12 4 14 32 12 156 -2 130 0 153 14 161 9 5 17 10 17 10 1 0 1 -76 0 -170z
m75 158 c2 -7 3 -82 1 -165 -3 -141 -4 -153 -21 -153 -12 0 -20 9 -24 26 -4
21 0 175 6 287 1 19 33 24 38 5z m1474 -6 c-3 -3 -11 0 -18 7 -9 10 -8 11 6 5
10 -3 15 -9 12 -12z m-1688 -166 l-2 -163 -112 -1 c-97 0 -112 2 -114 16 -2
18 1 219 4 262 1 17 9 26 24 28 24 4 24 21 4 -183 -8 -91 -4 -115 19 -115 22
0 30 19 19 42 -5 10 -5 46 1 85 5 37 10 91 10 119 0 47 2 52 25 56 29 6 27 16
25 -153 -1 -122 7 -147 38 -115 13 12 13 18 4 28 -8 8 -12 51 -12 129 0 127
-3 121 57 128 9 1 11 -40 10 -163z m-443 63 c0 -46 -4 -114 -8 -151 -7 -66 -8
-68 -36 -68 -28 0 -44 19 -35 43 3 6 7 64 9 127 2 63 5 118 5 122 1 7 40 16
56 13 6 -1 10 -37 9 -86z m99 6 c0 -44 -3 -110 -7 -147 -7 -63 -6 -68 12 -68
15 0 19 7 19 33 -1 17 0 83 1 145 l2 113 33 -3 32 -3 -5 -75 c-2 -41 -5 -110
-5 -154 l0 -79 -83 6 c-46 3 -85 6 -86 8 -3 4 5 74 18 154 2 17 5 58 5 93 l1
63 31 -3 31 -3 1 -80z m-193 15 c-5 -16 -8 -58 -8 -92 0 -35 -3 -82 -7 -105
-7 -42 -8 -43 -46 -43 -32 0 -39 3 -39 20 0 11 6 20 14 20 24 0 31 22 12 36
-24 17 -14 58 31 141 36 64 58 77 43 23z m71 -271 c79 -1 158 -5 174 -9 29 -6
9 -11 -155 -36 -82 -13 -198 -38 -212 -46 -25 -13 -24 14 1 29 13 8 18 19 14
34 -6 20 13 43 27 34 4 -2 72 -5 151 -6z m1799 -19 c-8 -5 -19 -10 -25 -10 -5
0 -3 5 5 10 8 5 20 10 25 10 6 0 3 -5 -5 -10z m-45 -19 c-6 -5 -35 -19 -65
-32 -103 -44 -267 -137 -456 -260 -104 -67 -208 -133 -232 -147 -42 -24 -44
-24 -58 -6 -32 42 -73 139 -61 145 7 3 56 21 110 39 79 27 100 31 107 20 10
-17 44 -4 37 14 -4 10 9 18 46 26 29 7 57 16 62 20 6 4 39 17 75 28 36 11 108
37 160 57 52 20 121 45 152 55 31 11 70 26 85 34 32 17 52 21 38 7z"/>
<path d="M1576 1288 c-3 -18 -8 -62 -12 -98 -3 -36 -7 -81 -9 -100 -2 -19 -6
-78 -9 -130 -3 -52 -10 -120 -15 -150 -14 -75 -41 -307 -41 -348 0 -36 21 -41
26 -6 8 52 16 123 19 155 5 77 17 129 28 129 9 0 9 2 0 8 -8 5 -9 21 -3 52 12
65 19 156 26 315 3 77 10 155 14 173 6 24 5 32 -5 32 -8 0 -16 -14 -19 -32z"/>
<path d="M2067 1106 c-3 -8 -9 -43 -12 -78 -3 -35 -11 -106 -17 -159 -14 -120
-5 -189 23 -189 17 0 19 4 12 23 -15 41 2 349 22 400 5 11 2 17 -8 17 -8 0
-17 -6 -20 -14z"/>
<path d="M2156 1103 c-3 -10 -8 -101 -11 -202 -6 -189 0 -226 31 -200 11 9 12
45 8 178 -3 91 -5 183 -4 204 1 38 -14 51 -24 20z"/>
<path d="M2405 1000 c-11 -18 -9 -190 3 -202 21 -21 27 3 24 106 -3 97 -10
123 -27 96z"/>
</g>
</svg>
