<?xml version="1.0" standalone="no"?>
<!DOCTYPE svg PUBLIC "-//W3C//DTD SVG 20010904//EN"
 "http://www.w3.org/TR/2001/REC-SVG-20010904/DTD/svg10.dtd">
<svg version="1.0" xmlns="http://www.w3.org/2000/svg"
 width="81.000000pt" height="77.000000pt" viewBox="0 0 81.000000 77.000000"
 preserveAspectRatio="xMidYMid meet">
<metadata>
Created by potrace 1.16, written by Peter Selinger 2001-2019
</metadata>
<g transform="translate(0.000000,77.000000) scale(0.100000,-0.100000)"
fill="#000000" stroke="none">
<path d="M241 632 c-18 -15 -20 -35 -27 -215 -6 -190 -6 -197 12 -191 18 5 18
5 2 -6 -27 -17 -25 -113 3 -141 36 -36 42 -20 46 110 2 104 6 126 20 137 20
14 256 17 284 3 10 -5 24 -3 35 6 18 13 18 14 1 32 -14 14 -34 18 -95 18 -210
1 -244 4 -238 23 5 14 10 181 7 218 -2 20 -29 24 -50 6z"/>
</g>
</svg>
