<?xml version="1.0" standalone="no"?>
<!DOCTYPE svg PUBLIC "-//W3C//DTD SVG 20010904//EN"
 "http://www.w3.org/TR/2001/REC-SVG-20010904/DTD/svg10.dtd">
<svg version="1.0" xmlns="http://www.w3.org/2000/svg"
 width="264.000000pt" height="164.000000pt" viewBox="0 0 264.000000 164.000000"
 preserveAspectRatio="xMidYMid meet">
<metadata>
Created by potrace 1.16, written by Peter Selinger 2001-2019
</metadata>
<g transform="translate(0.000000,164.000000) scale(0.100000,-0.100000)"
fill="#000000" stroke="none">
<path d="M425 1377 c-22 -34 -33 -154 -26 -284 0 -12 10 -27 20 -33 17 -9 25
-3 57 44 30 43 53 61 111 91 l74 38 97 -11 c99 -11 261 -10 281 2 6 4 11 1 12
-6 0 -7 2 -117 4 -244 2 -127 5 -237 7 -244 11 -48 -374 -37 -567 16 -87 23
-87 23 -100 -21 -29 -96 -29 -562 -1 -552 7 3 11 42 12 113 0 133 13 169 57
160 16 -3 43 -6 61 -6 l31 0 -40 -21 c-22 -11 -47 -28 -55 -36 -13 -13 -12
-14 10 -8 14 4 51 20 84 36 32 16 64 29 72 29 23 0 40 -58 44 -155 l1 -20 15
20 c12 15 14 36 10 83 -4 53 -2 62 12 62 9 1 86 3 170 6 l152 6 -2 -128 c-3
-160 4 -165 96 -77 70 68 129 114 169 131 15 6 27 16 27 21 0 5 41 10 93 10
50 0 153 3 227 7 74 3 160 7 190 8 31 1 61 6 68 10 12 7 92 2 157 -11 26 -5
28 -4 17 10 -9 11 -40 18 -93 23 -86 7 -86 7 -73 73 4 17 13 31 20 31 8 0 14
7 14 16 0 8 5 12 10 9 25 -15 38 17 39 96 1 44 7 89 14 100 10 16 9 21 -2 28
-10 7 -13 34 -13 107 1 101 12 148 52 218 37 66 27 75 -59 55 -58 -13 -200
-19 -284 -12 -58 5 -68 9 -73 27 -4 19 -12 21 -67 21 l-62 0 -1 -108 c-1 -60
-6 -113 -12 -119 -11 -11 -114 2 -220 29 -59 15 -63 15 -83 -3 -22 -20 -22 3
-3 -281 4 -75 11 -113 18 -113 7 0 38 22 71 50 33 27 65 50 73 50 8 0 12 6 9
14 -7 19 13 25 81 25 62 0 60 4 46 -109 -4 -36 -8 -87 -8 -115 -1 -64 15 -68
77 -21 25 19 54 34 64 34 10 0 23 0 28 2 31 8 74 -1 78 -18 4 -16 5 -16 6 1 1
14 11 17 60 17 38 0 61 -4 64 -12 3 -8 6 -5 6 6 1 12 6 16 17 12 9 -3 18 -6
20 -6 2 0 4 -20 4 -45 0 -34 -5 -47 -20 -55 -28 -15 -387 -22 -570 -11 -156 9
-194 16 -185 32 3 5 -1 22 -10 38 -18 36 -19 68 -3 121 10 30 18 40 38 42 30
4 34 31 5 37 -11 2 -23 8 -27 15 -12 18 -9 347 3 391 6 22 19 49 28 61 16 20
18 20 28 6 9 -15 19 -11 88 31 42 26 91 51 108 54 18 3 42 13 55 21 19 12 40
13 150 2 70 -6 150 -9 177 -5 103 12 181 24 225 32 25 5 63 6 85 3 l40 -5 0
-254 c0 -193 -3 -255 -12 -258 -17 -7 -16 -58 1 -119 11 -38 13 -79 8 -177 -7
-127 -4 -149 16 -124 17 22 31 251 18 303 -4 16 -1 23 15 27 16 4 20 10 14 24
-13 33 -19 230 -6 237 6 4 11 25 11 47 0 30 10 55 39 97 60 90 141 223 141
233 0 5 -15 9 -32 8 -18 0 -98 0 -178 0 -80 0 -201 -7 -270 -15 -84 -11 -154
-14 -215 -10 -49 4 -133 9 -185 12 -173 8 -202 13 -208 36 -5 19 -6 19 -17 5
-15 -20 -147 -26 -169 -8 -15 13 -46 5 -46 -11 0 -6 7 -16 16 -22 12 -10 14
-19 7 -46 l-9 -35 -120 3 c-113 3 -355 41 -392 61 -10 5 -30 23 -46 40 -36 37
-41 38 -61 8z m753 -60 c2 -8 -2 -18 -7 -22 -6 -3 -11 -15 -11 -26 0 -19 -48
-105 -55 -97 -1 1 -6 38 -10 80 -6 74 -6 77 17 81 38 7 63 1 66 -16z m151 -21
c-8 -7 -35 -25 -61 -40 l-48 -27 0 34 c0 45 11 53 71 48 41 -2 49 -5 38 -15z
m926 -58 c-21 -40 -54 -98 -72 -128 l-33 -55 0 46 c0 25 -3 80 -6 122 l-7 77
44 1 c24 1 58 4 74 8 17 4 32 6 34 4 2 -1 -13 -35 -34 -75z m-1673 18 c5 3 8
1 8 -3 0 -8 -102 -63 -118 -63 -4 0 -5 22 -4 49 l4 49 51 -18 c28 -10 55 -16
59 -14z m962 -84 c3 -5 -1 -28 -8 -53 -13 -43 -14 -43 -21 -16 -12 45 10 99
29 69z m109 -46 c-25 -22 -29 -23 -35 -8 -11 29 -9 32 28 32 l35 0 -28 -24z
m346 2 c-17 -34 -19 -34 -19 -5 0 18 5 27 15 27 13 0 14 -4 4 -22z m-414 -40
c-12 -105 -14 -108 -46 -108 -37 0 -37 15 -1 77 16 26 31 56 35 66 13 34 19
16 12 -35z m90 15 c-4 -16 -9 -46 -11 -68 -6 -48 -19 -65 -44 -58 -35 9 -26
66 16 113 20 22 39 40 41 40 3 0 2 -12 -2 -27z m65 5 c0 -13 -3 -47 -6 -75 -6
-47 -9 -53 -30 -53 -23 0 -24 2 -18 53 8 68 20 97 39 97 9 0 15 -9 15 -22z
m120 -53 c0 -68 -2 -75 -20 -75 -18 0 -20 4 -14 43 4 23 11 52 15 64 9 26 -8
43 -22 22 -5 -8 -11 -39 -15 -71 -6 -49 -9 -57 -31 -61 -21 -4 -24 -1 -20 17
3 11 11 47 17 79 l11 57 40 0 39 0 0 -75z m96 -17 c-5 -57 -11 -77 -20 -67 -9
9 7 138 16 133 6 -4 7 -33 4 -66z m-66 -52 c-9 -8 -10 -1 -6 29 3 22 6 49 7
60 2 11 4 -2 6 -29 3 -29 -1 -53 -7 -60z m-645 -36 c-13 -14 -21 -17 -26 -9
-5 8 -8 7 -12 -2 -3 -8 -6 -4 -6 9 -1 18 4 22 31 22 31 0 31 0 13 -20z m162
-6 l82 -7 3 -31 c2 -17 1 -53 -1 -79 l-3 -49 -127 6 c-69 3 -133 7 -141 8 -11
2 -16 17 -18 54 -2 51 -1 53 40 84 28 20 50 29 63 26 11 -3 57 -9 102 -12z
m447 -59 c-2 -67 -10 -84 -43 -85 -10 0 -12 8 -6 33 4 17 9 48 11 67 7 51 12
62 27 57 8 -3 12 -25 11 -72z m91 -11 c-8 -87 -22 -87 -27 1 -2 44 1 63 12 72
8 6 17 10 19 8 2 -2 0 -39 -4 -81z m-391 70 c12 -5 14 -19 10 -72 -6 -86 -9
-92 -36 -92 -23 0 -23 1 -16 83 3 45 7 83 7 85 2 4 19 2 35 -4z m162 -56 c-2
-35 -5 -71 -5 -80 -1 -12 -9 -18 -27 -18 l-25 0 7 73 c8 84 9 87 35 87 18 0
19 -5 15 -62z m77 30 c-13 -120 -13 -118 -40 -118 -23 0 -25 3 -20 33 3 17 9
51 12 75 6 35 10 42 29 42 19 0 22 -4 19 -32z m107 -55 c0 -49 -3 -63 -15 -63
-10 0 -14 7 -11 23 3 12 5 47 5 77 2 78 21 44 21 -37z m-260 48 c0 -59 -13
-123 -27 -128 -27 -11 -35 13 -27 86 6 66 8 71 30 71 20 0 24 -5 24 -29z
m-321 -157 c8 -3 -10 -22 -45 -50 l-59 -45 -6 43 c-3 24 -4 48 -2 54 4 11 76
9 112 -2z m510 -104 c-17 -62 -19 -64 -36 -40 -13 18 -13 30 -2 85 8 43 18 65
28 67 21 4 26 -51 10 -112z m-288 19 c-5 -30 -11 -63 -13 -74 -2 -13 5 -23 19
-29 21 -10 21 -10 -9 -33 -38 -28 -51 -21 -42 20 4 18 6 67 5 110 -2 72 -1 78
21 86 29 11 33 -5 19 -80z m151 3 c-2 -42 -6 -79 -8 -81 -2 -2 -10 -1 -19 3
-14 5 -16 17 -11 77 7 79 11 90 30 83 10 -4 12 -24 8 -82z m74 46 c-4 -24 -10
-62 -13 -86 -8 -59 -28 -48 -26 14 1 27 2 64 2 82 1 26 5 32 22 32 20 0 21 -4
15 -42z m134 -12 c0 -65 -14 -106 -36 -106 -13 0 -14 7 -9 38 4 20 9 56 12 80
3 27 10 42 19 42 10 0 14 -14 14 -54z m41 34 c3 -59 2 -78 -5 -112 -4 -21 -12
-38 -18 -38 -6 0 -8 12 -4 31 3 17 6 56 6 85 0 30 5 54 10 54 6 0 10 -9 11
-20z m-325 -57 c-3 -38 -6 -71 -6 -75 0 -5 -9 -8 -20 -8 -18 0 -20 7 -20 75 0
74 0 75 26 75 l27 0 -7 -67z m-1108 5 c23 -5 42 -13 42 -16 0 -13 -87 -62
-109 -62 -16 0 -21 6 -21 28 0 49 11 74 29 66 9 -3 35 -11 59 -16z m552 -30
c0 -7 -5 -48 -12 -90 -10 -68 -14 -78 -32 -79 -12 0 -41 -2 -66 -4 -25 -2 -87
-6 -138 -9 l-92 -6 15 31 c9 16 32 48 52 70 39 43 40 76 1 63 -13 -4 -50 -8
-83 -9 -81 -2 -80 -2 -62 -23 10 -10 15 -21 12 -24 -3 -3 -9 -25 -13 -49 -9
-51 -21 -56 -125 -58 -66 -1 -67 -1 -56 20 14 27 55 65 92 84 32 18 35 35 6
42 -19 5 -19 6 6 23 23 15 50 17 188 16 132 -2 255 3 300 12 4 1 7 -4 7 -10z
m-572 -105 c-20 -21 -48 -56 -62 -77 l-26 -39 0 42 c0 27 4 41 13 41 8 0 24
12 38 26 20 22 50 41 69 43 2 1 -12 -16 -32 -36z m247 1 c-13 -19 -27 -44 -30
-55 -10 -31 -23 -22 -30 21 -9 51 6 70 51 70 l33 0 -24 -36z m366 -134 c11 -6
54 -14 96 -18 l76 -7 -54 -37 c-30 -20 -75 -56 -101 -79 l-48 -41 0 96 c0 53
3 96 6 96 3 0 14 -5 25 -10z"/>
</g>
</svg>
