<?xml version="1.0" standalone="no"?>
<!DOCTYPE svg PUBLIC "-//W3C//DTD SVG 20010904//EN"
 "http://www.w3.org/TR/2001/REC-SVG-20010904/DTD/svg10.dtd">
<svg version="1.0" xmlns="http://www.w3.org/2000/svg"
 width="150.000000pt" height="106.000000pt" viewBox="0 0 150.000000 106.000000"
 preserveAspectRatio="xMidYMid meet">
<metadata>
Created by potrace 1.16, written by Peter Selinger 2001-2019
</metadata>
<g transform="translate(0.000000,106.000000) scale(0.100000,-0.100000)"
fill="#000000" stroke="none">
<path d="M206 928 c-13 -30 -22 -91 -31 -193 -2 -22 -9 -80 -16 -130 -11 -86
-13 -129 -11 -260 1 -33 1 -68 1 -78 0 -35 30 -44 165 -51 204 -9 464 -11 472
-3 4 4 27 7 50 7 24 0 46 5 50 11 4 7 25 9 63 4 31 -4 108 -9 171 -11 63 -1
124 -4 135 -6 17 -2 20 3 21 32 1 19 5 68 9 107 7 68 9 72 30 67 16 -4 24 0
29 13 4 9 3 19 -2 21 -5 1 -17 8 -26 15 -14 11 -15 22 -2 127 8 63 14 122 14
130 3 75 14 195 17 201 3 4 1 10 -4 14 -11 6 -33 -28 -39 -60 -2 -11 -9 -58
-16 -105 l-12 -85 -80 -7 c-126 -11 -327 -14 -352 -5 -20 8 -23 14 -18 45 3
21 5 60 6 88 l0 51 103 12 c56 6 158 14 227 17 69 3 129 10 135 15 23 22 -24
28 -165 21 -298 -15 -798 -4 -839 18 -39 21 -71 12 -85 -22z m74 -28 c21 -11
257 -25 385 -22 120 3 124 1 114 -50 -4 -24 -12 -63 -16 -88 -7 -36 -13 -45
-28 -43 -10 1 -96 4 -191 7 -153 5 -175 3 -193 -12 -13 -10 -18 -22 -13 -29
10 -16 68 -20 497 -38 50 -2 158 2 240 10 175 17 196 14 190 -24 -3 -14 -7
-51 -9 -81 -3 -30 -5 -57 -6 -59 0 -2 -87 -1 -192 3 -630 22 -736 19 -722 -18
4 -10 41 -14 137 -15 73 0 167 -4 209 -7 67 -6 76 -9 69 -23 -5 -9 -11 -34
-14 -56 -3 -22 -10 -53 -15 -70 l-9 -30 -137 1 c-76 1 -190 5 -252 9 -111 7
-114 8 -120 32 -4 14 -2 45 3 69 8 35 7 44 -4 48 -15 6 -15 8 2 136 8 60 35
329 35 345 0 17 14 19 40 5z m850 -473 l105 -3 3 -69 c2 -38 -2 -73 -8 -79 -6
-6 -46 -9 -98 -7 -48 1 -99 -2 -114 -8 -18 -7 -29 -6 -37 2 -8 8 -30 8 -83 0
-40 -7 -84 -10 -98 -9 -24 3 -25 5 -22 67 3 70 16 106 40 111 16 3 127 1 312
-5z"/>
</g>
</svg>
