<?xml version="1.0" standalone="no"?>
<!DOCTYPE svg PUBLIC "-//W3C//DTD SVG 20010904//EN"
 "http://www.w3.org/TR/2001/REC-SVG-20010904/DTD/svg10.dtd">
<svg version="1.0" xmlns="http://www.w3.org/2000/svg"
 width="337.000000pt" height="147.000000pt" viewBox="0 0 337.000000 147.000000"
 preserveAspectRatio="xMidYMid meet">
<metadata>
Created by potrace 1.16, written by Peter Selinger 2001-2019
</metadata>
<g transform="translate(0.000000,147.000000) scale(0.100000,-0.100000)"
fill="#000000" stroke="none">
<path d="M810 1348 c-13 -28 -20 -66 -20 -105 0 -54 -3 -64 -22 -75 -51 -27
-451 -15 -469 14 -12 19 -41 -2 -51 -38 -15 -52 -28 -137 -34 -219 -3 -44 -14
-111 -26 -148 -11 -37 -18 -70 -14 -74 3 -3 17 -1 31 5 21 10 33 9 64 -7 42
-22 72 -24 316 -16 l160 5 -1 -120 c-2 -138 5 -152 58 -124 18 9 51 29 73 44
22 16 50 31 63 35 21 6 22 4 22 -45 0 -37 4 -52 16 -57 17 -6 35 13 33 37 -1
8 -1 38 0 65 1 46 4 52 38 75 21 14 78 59 128 100 126 105 156 125 170 114 7
-5 42 -31 78 -58 37 -27 67 -52 67 -56 0 -3 40 -49 90 -101 49 -52 96 -106
102 -121 7 -16 16 -28 20 -28 5 0 8 -5 8 -11 0 -6 15 -29 33 -49 17 -21 41
-53 52 -72 26 -43 60 -48 92 -14 16 18 34 26 56 26 31 -1 31 -1 -18 -26 -62
-32 -69 -39 -61 -59 6 -15 9 -16 29 -3 12 8 40 21 62 28 22 7 68 26 102 41 34
16 64 29 66 29 3 0 57 25 121 55 64 30 122 55 129 55 7 0 50 18 96 40 45 22
89 40 96 40 8 0 30 9 49 21 l36 21 36 -40 c35 -40 113 -167 139 -230 8 -18 21
-40 30 -48 8 -9 27 -31 41 -50 23 -30 25 -39 19 -84 l-7 -51 43 3 c44 3 44 3
45 43 1 22 13 67 28 100 31 69 35 76 68 166 31 82 141 262 191 311 20 21 37
46 37 56 0 24 -83 92 -112 92 -13 0 -88 23 -167 50 -79 28 -150 50 -157 50 -8
0 -42 13 -76 29 -117 53 -213 93 -348 148 -74 29 -151 64 -170 76 -50 32 -136
72 -200 93 -30 10 -66 24 -80 31 -14 7 -49 18 -78 24 l-52 12 -53 -54 c-56
-58 -155 -144 -196 -171 -14 -9 -57 -46 -94 -81 -38 -36 -96 -82 -129 -102
l-60 -38 -87 86 c-47 47 -108 108 -136 135 -27 27 -81 84 -120 127 -73 81
-138 135 -162 135 -8 0 -23 -19 -33 -42z m230 -225 c36 -36 109 -107 163 -159
53 -52 97 -99 97 -104 0 -5 -17 -22 -37 -37 -21 -15 -40 -31 -43 -34 -15 -19
-187 -149 -197 -149 -9 0 -12 25 -13 83 0 45 -1 91 -1 102 0 11 4 37 9 59 12
44 7 67 -13 60 -20 -8 -26 -47 -31 -188 -4 -134 -9 -166 -25 -166 -5 0 -38
-18 -72 -40 -34 -22 -66 -39 -72 -37 -13 5 -10 166 4 180 14 14 14 47 1 47
-14 0 -1 51 19 73 14 17 14 20 -3 32 -14 11 -17 21 -11 42 3 15 6 46 5 68 0
22 5 50 12 63 8 16 9 28 2 40 -10 16 -8 231 2 261 3 9 28 -11 72 -59 37 -39
96 -101 132 -137z m902 161 c43 -22 23 -39 -36 -30 -48 8 -54 14 -34 34 16 16
33 15 70 -4z m98 -44 c11 -8 7 -9 -15 -4 -37 8 -45 14 -19 14 10 0 26 -5 34
-10z m-92 -24 c12 -13 -20 -23 -51 -16 -18 3 -47 3 -64 -1 -24 -5 -33 -3 -33
6 0 7 6 16 13 18 16 7 126 1 135 -7z m274 -54 c31 -18 87 -44 125 -57 37 -13
104 -38 148 -55 44 -17 100 -38 125 -47 25 -9 67 -27 94 -40 27 -14 116 -47
198 -74 187 -61 189 -62 146 -78 -18 -7 -55 -22 -83 -33 -27 -11 -68 -27 -89
-35 -22 -8 -60 -26 -85 -41 -50 -29 -149 -72 -168 -72 -6 0 -13 -4 -15 -9 -1
-4 -59 -32 -128 -60 -139 -57 -131 -54 -319 -141 -123 -57 -141 -63 -205 -64
-39 -1 -78 -5 -87 -9 -11 -6 -19 0 -28 19 -6 15 -10 28 -9 29 2 2 33 5 70 6
56 3 69 1 81 -14 25 -35 35 0 25 88 -17 153 -17 164 3 189 19 24 19 25 -1 31
-22 7 -24 13 -11 34 6 9 5 21 -2 32 -8 13 -8 24 1 43 6 14 7 28 3 31 -13 7
-23 106 -26 248 l-3 127 44 0 c23 0 45 4 48 9 7 11 74 -14 148 -57z m-324 10
c36 -2 42 -5 42 -24 0 -21 -4 -23 -62 -23 -35 0 -71 -4 -80 -9 -15 -7 -18 -3
-18 21 0 37 3 40 43 38 17 -1 51 -2 75 -3z m-143 -122 c4 -63 9 -124 10 -135
7 -67 16 -209 20 -328 5 -143 1 -157 -31 -94 -21 43 -195 224 -302 315 -34 29
-62 57 -62 62 0 5 30 31 68 58 37 27 83 64 102 83 20 19 58 52 85 74 27 22 60
50 73 63 14 12 26 21 27 20 2 -2 6 -55 10 -118z m-980 60 c10 -16 -14 -40 -40
-40 -18 0 -22 4 -18 19 4 17 16 25 45 30 4 0 10 -4 13 -9z m-452 -12 c-2 -5
-3 -19 -3 -33 0 -19 -5 -25 -23 -25 -20 0 -23 4 -19 36 4 29 8 35 26 32 11 -2
20 -6 19 -10z m117 -9 c0 -27 -22 -49 -50 -49 -25 0 -30 4 -30 24 0 13 6 27
13 29 23 10 67 7 67 -4z m81 -1 c-1 -5 -1 -17 -1 -28 0 -15 -7 -20 -25 -20
-27 0 -31 10 -14 41 10 19 41 24 40 7z m77 -15 c-4 -36 -38 -45 -38 -10 0 27
7 37 27 37 10 0 13 -9 11 -27z m82 15 c0 -22 -17 -40 -32 -36 -12 2 -13 9 -7
26 9 23 39 31 39 10z m1222 2 c17 0 31 -8 39 -21 10 -20 8 -21 -28 -19 -74 5
-103 1 -103 -15 0 -10 11 -15 38 -16 62 -2 97 -13 100 -32 3 -14 -4 -17 -35
-17 -21 -1 -55 -3 -76 -6 -21 -3 -37 -2 -35 3 1 4 -2 31 -6 58 -9 54 -8 59 12
62 8 1 17 4 20 8 4 3 16 4 27 1 11 -3 32 -6 47 -6z m-1134 -99 c4 -28 -3 -36
-40 -45 -25 -6 -28 -4 -28 18 0 51 61 76 68 27z m-98 -7 c0 -24 -19 -54 -35
-54 -18 0 -20 41 -3 58 17 17 38 15 38 -4z m-258 1 c9 -10 -4 -54 -18 -59 -23
-9 -44 5 -44 28 0 13 3 26 7 29 8 8 47 9 55 2z m98 -30 c0 -32 -2 -35 -30 -35
-23 0 -30 5 -30 19 0 35 12 51 36 51 21 0 24 -5 24 -35z m75 8 c-8 -35 -22
-50 -34 -37 -17 16 -1 64 21 64 17 0 19 -4 13 -27z m-265 8 c0 -23 -14 -41
-31 -41 -14 0 -19 7 -19 25 0 20 5 25 25 25 14 0 25 -4 25 -9z m1633 -61 c5
-18 0 -20 -48 -20 -30 0 -65 -4 -79 -10 -22 -8 -26 -7 -26 8 0 31 22 42 86 42
53 0 62 -3 67 -20z m-1198 -40 c0 -9 -11 -16 -27 -18 -23 -3 -28 1 -28 18 0
17 5 21 28 18 16 -2 27 -9 27 -18z m-455 -21 c0 -12 -7 -19 -20 -19 -23 0 -24
4 -9 31 12 23 29 16 29 -12z m360 16 c0 -9 -9 -15 -25 -15 -16 0 -25 6 -25 15
0 9 9 15 25 15 16 0 25 -6 25 -15z m-270 -4 c0 -6 -4 -13 -10 -16 -5 -3 -10 1
-10 9 0 9 5 16 10 16 6 0 10 -4 10 -9z m103 0 c4 -1 7 -5 7 -11 0 -5 -13 -10
-30 -10 -16 0 -30 4 -30 8 0 14 10 20 28 17 9 -2 20 -4 25 -4z m87 0 c0 -5 -9
-11 -20 -14 -13 -3 -20 0 -20 9 0 8 9 14 20 14 11 0 20 -4 20 -9z m1383 -16
c1 -5 -25 -12 -59 -15 -34 -3 -68 -11 -76 -18 -13 -10 -17 -10 -22 4 -10 27
-7 33 22 37 47 8 132 2 135 -8z m-1395 -67 c-2 -26 -8 -34 -26 -36 -20 -3 -22
-1 -16 25 13 51 47 59 42 11z m92 -4 c0 -33 -2 -36 -22 -30 -13 3 -26 6 -30 6
-10 0 -10 44 -1 53 3 4 17 7 30 7 20 0 23 -5 23 -36z m90 1 c0 -31 -3 -35 -25
-35 -22 0 -25 4 -25 35 0 31 3 35 25 35 22 0 25 -4 25 -35z m-257 -7 c-3 -18
-7 -35 -9 -37 -2 -2 -37 0 -79 4 -74 7 -76 7 -59 26 23 25 54 25 54 -1 0 -22
7 -25 29 -11 7 5 11 13 7 19 -7 12 21 31 46 32 14 0 16 -6 11 -32z m1442 17
c36 -8 31 -25 -7 -26 -49 -1 -83 -13 -86 -30 -2 -11 10 -14 55 -14 74 0 81
-18 10 -26 -30 -3 -59 -9 -66 -13 -27 -17 -6 -26 57 -24 62 2 67 1 70 -20 2
-13 -2 -22 -10 -22 -7 0 -43 -2 -80 -5 l-68 -4 0 94 0 94 28 4 c27 3 50 2 97
-8z m-1655 -20 c-1 -6 -10 -13 -21 -17 -17 -7 -18 -5 -9 13 11 20 33 23 30 4z
m2813 -17 c2 -7 -2 -33 -10 -58 -7 -25 -20 -79 -29 -120 -19 -98 -85 -301
-106 -324 -4 -6 -8 11 -8 37 0 47 -19 97 -47 126 -25 24 -33 59 -33 142 0 44
-5 89 -10 100 -9 16 -6 21 17 30 15 6 57 24 93 39 93 41 126 47 133 28z m122
-2 c15 -10 17 -17 8 -27 -13 -17 -56 -96 -136 -249 -54 -105 -66 -117 -31 -32
7 19 23 73 34 120 19 83 25 102 51 172 13 33 42 40 74 16z m-419 -143 c-3 -21
-6 -56 -6 -78 l0 -40 -45 47 c-25 26 -45 52 -45 58 0 10 74 49 94 50 5 0 6
-17 2 -37z m-825 -46 c4 -5 6 -17 5 -25 -3 -16 -10 -16 -138 -13 -21 1 -25 47
-5 54 20 7 132 -5 138 -16z m12 -89 c9 -33 -1 -39 -52 -32 -28 4 -57 2 -68 -4
-17 -10 -22 -7 -32 14 -15 34 -16 32 32 36 116 8 115 8 120 -14z"/>
<path d="M2162 997 c-21 -24 -34 -73 -53 -197 -11 -69 -24 -146 -28 -173 -11
-68 3 -77 77 -44 96 42 97 42 108 0 6 -24 16 -39 27 -41 16 -3 18 3 15 45 l-3
48 45 6 c25 4 70 12 100 18 30 6 89 17 130 25 41 8 91 19 110 25 19 6 59 17
89 26 30 8 60 20 65 26 16 15 -24 45 -71 53 -57 9 -70 20 -53 43 8 10 2 7 -13
-6 -15 -14 -27 -19 -27 -12 0 8 -11 10 -36 7 -19 -4 -44 -1 -55 5 -12 6 -32
13 -47 15 -14 3 -77 23 -141 45 -64 23 -135 46 -159 52 -24 7 -44 19 -48 29
-6 21 -17 23 -32 5z m73 -83 c17 -9 44 -20 60 -25 17 -4 64 -17 105 -29 106
-29 215 -64 218 -71 1 -3 15 -4 31 -1 16 2 37 -1 48 -8 15 -9 12 -10 -17 -6
-31 5 -33 4 -17 -8 18 -14 32 -11 -213 -57 -36 -6 -85 -14 -109 -16 l-44 -4 6
40 c3 22 12 53 20 70 10 21 12 32 4 40 -14 14 -37 -5 -37 -33 -1 -11 -7 -43
-14 -70 -12 -46 -15 -50 -71 -72 -32 -13 -60 -24 -61 -24 -2 0 1 11 6 24 5 14
14 73 21 133 16 150 12 145 64 117z"/>
<path d="M2150 530 c0 -5 5 -10 11 -10 5 0 7 5 4 10 -3 6 -8 10 -11 10 -2 0
-4 -4 -4 -10z"/>
</g>
</svg>
