<?xml version="1.0" standalone="no"?>
<!DOCTYPE svg PUBLIC "-//W3C//DTD SVG 20010904//EN"
 "http://www.w3.org/TR/2001/REC-SVG-20010904/DTD/svg10.dtd">
<svg version="1.0" xmlns="http://www.w3.org/2000/svg"
 width="192.000000pt" height="97.000000pt" viewBox="0 0 192.000000 97.000000"
 preserveAspectRatio="xMidYMid meet">
<metadata>
Created by potrace 1.16, written by Peter Selinger 2001-2019
</metadata>
<g transform="translate(0.000000,97.000000) scale(0.100000,-0.100000)"
fill="#000000" stroke="none">
<path d="M235 901 c-2 -1 -31 -4 -65 -5 -73 -3 -95 -18 -53 -38 24 -11 28 -20
31 -59 2 -25 -2 -94 -8 -155 -6 -60 -10 -116 -10 -124 2 -80 -2 -173 -12 -265
-16 -158 -16 -160 7 -160 16 0 20 7 22 40 2 64 19 124 41 148 11 12 23 33 27
47 10 34 62 135 92 181 14 21 22 43 18 48 -3 6 -35 11 -70 11 -60 0 -64 1 -61
23 11 88 21 130 42 163 12 22 32 55 42 74 20 35 20 35 82 32 l62 -4 -6 -31
c-10 -49 -26 -278 -21 -288 3 -4 29 -5 57 -2 29 4 49 2 47 -3 -3 -5 -15 -27
-29 -49 l-25 -40 -5 30 c-3 17 -11 30 -19 30 -12 0 -15 -32 -17 -175 -1 -96 0
-178 3 -182 2 -4 10 -5 17 -2 10 4 16 34 21 102 9 117 39 201 96 264 59 65 54
78 -31 78 -66 0 -70 1 -70 23 0 38 40 149 76 215 20 35 33 67 29 70 -7 7 -304
10 -310 3z m245 -52 c-7 -11 -14 -19 -16 -16 -7 7 7 37 17 37 6 0 5 -9 -1 -21z
m-261 -21 c-16 -32 -16 -32 -21 -3 -4 20 -1 25 14 25 16 0 17 -3 7 -22z m31
-313 c0 -2 -9 -24 -19 -47 -11 -24 -29 -65 -40 -93 l-21 -50 2 92 c3 98 4 99
56 102 12 0 22 -1 22 -4z"/>
<path d="M1136 850 c-76 -70 -150 -238 -177 -400 -7 -41 -13 -123 -13 -182 -1
-100 0 -108 24 -133 45 -49 133 -72 159 -42 15 18 4 27 -33 27 -52 0 -71 10
-91 46 -16 30 -17 48 -11 157 7 146 23 228 65 335 40 105 66 149 116 194 29
27 35 37 22 38 -9 0 -37 -18 -61 -40z"/>
<path d="M1765 880 c-4 -6 -2 -17 4 -24 13 -16 34 -228 27 -266 -3 -14 -8 -61
-12 -105 -9 -106 -42 -200 -97 -277 -60 -85 -90 -111 -115 -104 -24 8 -35 -5
-26 -29 5 -12 14 -14 38 -9 31 7 47 20 95 84 14 19 34 44 45 55 32 34 73 133
85 203 7 37 16 92 22 123 12 71 2 276 -17 342 -6 19 -39 23 -49 7z"/>
<path d="M1470 828 c-14 -5 -45 -7 -70 -4 -71 9 -90 -18 -90 -131 0 -43 -5
-148 -11 -233 -13 -178 -3 -325 20 -325 23 0 34 60 21 118 -17 82 6 177 88
362 l53 120 -6 -90 c-3 -49 -9 -114 -13 -143 -5 -29 -6 -55 -3 -57 3 -1 6 -71
5 -154 0 -83 3 -151 7 -151 14 0 21 21 25 78 3 41 9 59 24 69 11 8 20 22 20
32 0 10 16 50 36 89 44 87 41 105 -18 101 -26 -2 -43 1 -46 9 -4 12 90 231
114 267 25 36 18 47 -25 40 -22 -3 -54 -2 -73 3 -21 6 -43 6 -58 0z m98 -54
c3 -2 -9 -34 -37 -94 -10 -22 -11 -21 -6 17 4 35 2 44 -17 58 -19 13 -21 17
-8 25 12 8 57 4 68 -6z m-144 -3 c7 -11 -41 -153 -59 -177 -13 -17 -14 -9 -10
70 3 49 10 95 16 103 13 15 45 18 53 4z m115 -323 c0 -7 -9 -33 -20 -58 l-20
-45 6 40 c2 22 5 48 5 58 0 9 7 17 15 17 8 0 15 -6 14 -12z"/>
</g>
</svg>
