<?xml version="1.0" standalone="no"?>
<!DOCTYPE svg PUBLIC "-//W3C//DTD SVG 20010904//EN"
 "http://www.w3.org/TR/2001/REC-SVG-20010904/DTD/svg10.dtd">
<svg version="1.0" xmlns="http://www.w3.org/2000/svg"
 width="129.000000pt" height="111.000000pt" viewBox="0 0 129.000000 111.000000"
 preserveAspectRatio="xMidYMid meet">
<metadata>
Created by potrace 1.16, written by Peter Selinger 2001-2019
</metadata>
<g transform="translate(0.000000,111.000000) scale(0.100000,-0.100000)"
fill="#000000" stroke="none">
<path d="M156 899 c-20 -15 -24 -25 -17 -32 6 -6 11 -22 11 -36 1 -15 7 -44
15 -66 9 -24 17 -95 20 -175 3 -74 7 -191 10 -259 6 -167 14 -221 32 -221 21
0 52 18 101 57 24 20 64 42 90 50 52 16 179 25 287 21 135 -5 400 3 409 12 7
7 -13 11 -54 12 -169 6 -231 7 -445 11 -126 2 -263 7 -302 11 l-73 9 -1 86
c-2 224 1 262 25 295 13 17 31 46 41 65 9 18 35 53 58 78 40 43 41 46 22 59
-10 8 -33 14 -51 14 -18 0 -43 4 -56 9 -59 22 -94 22 -122 0z m152 -81 c-9
-13 -28 -48 -43 -78 l-28 -55 -13 50 c-8 28 -17 62 -20 78 l-6 27 62 0 62 0
-14 -22z m16 -567 l61 -6 -63 -43 c-35 -24 -66 -41 -69 -38 -3 3 -8 29 -11 57
-4 41 -2 50 8 44 8 -5 41 -11 74 -14z"/>
<path d="M663 873 c-15 -6 -17 -33 -3 -33 21 0 39 -61 46 -153 5 -70 3 -97 -5
-97 -6 0 -11 4 -11 9 0 5 -13 14 -30 21 -32 13 -33 18 -21 93 10 58 -1 68 -37
34 -31 -29 -107 -67 -135 -67 -11 0 -17 -5 -14 -12 2 -7 13 -12 23 -11 35 3
107 -17 128 -37 12 -11 32 -28 46 -38 l24 -20 -79 -6 c-44 -4 -105 -4 -135 0
-30 3 -65 6 -77 7 -18 2 -23 8 -23 31 0 24 -2 27 -15 16 -17 -14 -21 -113 -5
-154 11 -30 35 -34 49 -8 13 25 116 76 141 69 11 -3 36 -1 57 3 21 4 54 11 73
14 l35 6 -54 -47 c-30 -27 -75 -59 -100 -73 -48 -27 -64 -50 -34 -50 26 0 63
-36 63 -60 0 -11 6 -20 13 -20 10 0 14 16 16 51 2 59 29 118 67 148 36 28 49
22 46 -20 -4 -39 12 -89 28 -89 5 0 10 21 10 48 l1 47 83 -89 c62 -67 87 -88
100 -83 15 6 11 15 -31 64 -26 32 -57 68 -68 82 -11 13 -28 33 -38 44 -10 10
-17 21 -14 23 2 3 64 5 136 5 72 0 131 4 131 9 0 4 -39 11 -87 15 -49 3 -117
9 -152 13 l-64 7 79 64 c100 82 192 173 179 177 -5 2 -61 -46 -123 -106 -62
-61 -116 -110 -121 -110 -5 0 -11 21 -14 48 -5 40 0 59 30 122 19 41 42 83 50
93 9 9 14 17 12 18 -29 4 -167 6 -176 2z m106 -50 c3 -2 -4 -20 -14 -41 -15
-30 -19 -33 -22 -17 -2 11 -8 32 -13 48 -9 26 -8 27 18 21 15 -4 29 -8 31 -11z
m-157 -128 c-4 -32 -6 -34 -31 -29 -38 10 -38 12 -6 39 39 32 42 31 37 -10z
m-193 -172 c3 -2 -4 -10 -15 -18 -17 -12 -20 -12 -31 2 -20 26 -15 34 15 27
15 -4 29 -8 31 -11z m173 -118 c-6 -32 -16 -39 -32 -20 -11 13 -10 18 6 30 27
20 32 18 26 -10z"/>
</g>
</svg>
