<?xml version="1.0" standalone="no"?>
<!DOCTYPE svg PUBLIC "-//W3C//DTD SVG 20010904//EN"
 "http://www.w3.org/TR/2001/REC-SVG-20010904/DTD/svg10.dtd">
<svg version="1.0" xmlns="http://www.w3.org/2000/svg"
 width="171.000000pt" height="122.000000pt" viewBox="0 0 171.000000 122.000000"
 preserveAspectRatio="xMidYMid meet">
<metadata>
Created by potrace 1.16, written by Peter Selinger 2001-2019
</metadata>
<g transform="translate(0.000000,122.000000) scale(0.100000,-0.100000)"
fill="#000000" stroke="none">
<path d="M353 1173 c-7 -2 -13 -13 -13 -23 0 -25 18 -37 68 -45 53 -9 54 -2
-13 -195 -26 -74 -53 -171 -61 -215 -12 -74 -12 -61 -9 188 2 147 0 269 -4
271 -15 10 -34 -13 -33 -40 1 -33 0 -267 -3 -549 -1 -104 2 -228 7 -275 7 -70
6 -91 -6 -115 -9 -16 -12 -33 -7 -38 4 -4 39 -1 77 7 42 9 157 17 294 20 695
19 708 20 702 47 -2 7 1 40 7 74 6 33 13 89 16 125 3 36 9 103 14 148 5 46 6
93 3 104 -3 11 4 32 17 49 12 16 26 50 31 76 20 105 52 211 81 272 22 45 28
66 20 74 -9 9 -502 12 -781 4 -90 -2 -180 7 -207 22 -13 7 -31 7 -52 1 -22 -6
-46 -4 -79 5 -51 16 -51 16 -69 8z m992 -73 c15 -25 22 -437 7 -452 -7 -7
-117 -2 -327 16 -20 2 -29 7 -27 17 32 135 69 240 105 291 27 41 14 52 -53 45
-34 -4 -61 -2 -67 4 -15 15 -43 -16 -43 -47 0 -13 -4 -24 -10 -24 -5 0 -10 6
-10 14 0 17 -51 56 -72 56 -8 0 -25 -11 -38 -25 -23 -24 -27 -25 -166 -25 -94
0 -145 -4 -150 -11 -13 -21 18 -26 142 -21 68 3 124 2 124 -2 0 -4 -7 -18 -16
-31 -16 -24 -19 -25 -144 -25 -71 0 -141 -5 -155 -10 -24 -9 -26 -8 -20 7 4
10 10 27 13 38 17 62 35 77 137 112 136 47 189 61 271 71 97 12 492 14 499 2z
m-730 -9 c41 -9 42 -10 15 -16 -8 -2 -40 -10 -70 -18 -47 -13 -55 -13 -58 0
-9 38 32 50 113 34z m869 -2 c3 -2 -4 -29 -14 -60 -10 -30 -21 -66 -24 -79 -2
-14 -10 -50 -17 -80 -6 -30 -14 -73 -18 -95 -5 -27 -10 20 -16 144 l-10 183
48 -4 c26 -3 49 -7 51 -9z m-629 -119 c3 -5 -3 -10 -15 -10 -12 0 -18 5 -15
10 3 6 10 10 15 10 5 0 12 -4 15 -10z m195 -5 c0 -2 -12 -39 -26 -82 -14 -43
-35 -107 -45 -143 -17 -60 -18 -61 -14 -20 2 25 7 86 11 135 3 50 7 96 9 103
4 11 65 18 65 7z m-220 -29 c0 -2 -11 -11 -25 -20 -28 -19 -33 -15 -9 8 14 15
34 22 34 12z m117 -95 c-3 -50 -7 -94 -10 -98 -3 -4 -8 -44 -11 -88 -3 -44
-10 -105 -15 -135 -6 -30 -13 -86 -16 -125 -3 -38 -7 -71 -8 -72 -2 -1 -23 26
-49 60 -37 49 -43 63 -30 65 35 8 35 22 0 22 -41 0 -55 13 -60 55 l-3 30 77
-3 c45 -1 79 2 83 8 4 6 -9 10 -32 11 -21 1 -51 2 -68 4 -16 1 -44 3 -61 4
-27 1 -34 7 -50 44 -10 23 -20 46 -22 51 -3 4 41 6 97 4 123 -6 144 6 28 16
-45 3 -91 8 -102 10 -11 3 -24 5 -28 5 -16 2 -2 46 14 46 9 0 23 6 32 13 12
10 38 12 106 7 65 -6 91 -4 91 4 0 6 -8 11 -17 11 -34 1 -166 20 -171 25 -3 3
3 14 13 25 16 17 26 19 86 13 48 -4 69 -2 69 6 0 9 -44 17 -72 12 -5 0 -8 4
-8 9 0 6 6 10 14 10 8 0 24 9 37 20 13 10 39 19 57 20 l34 0 -5 -89z m-152 39
c3 -6 -1 -7 -9 -4 -18 7 -21 14 -7 14 6 0 13 -4 16 -10z m-85 -31 c0 -3 -8
-13 -17 -22 -14 -12 -44 -16 -147 -16 -70 -1 -132 -4 -137 -7 -11 -6 -12 16
-1 33 4 6 21 13 37 15 51 5 265 3 265 -3z m-75 -69 c3 -5 1 -10 -6 -10 -6 0
-27 -13 -46 -30 -26 -23 -44 -30 -76 -31 -71 -1 -122 -13 -122 -29 0 -10 9
-14 28 -13 27 2 38 -12 15 -19 -8 -3 -2 -13 15 -28 14 -13 25 -26 22 -30 -2
-3 -23 -7 -47 -9 -44 -2 -64 -13 -55 -28 4 -6 38 -6 83 -1 70 7 79 6 99 -12
12 -11 26 -20 32 -20 5 0 18 -9 28 -20 18 -20 17 -20 -43 -22 -97 -3 -118 -4
-138 -13 -18 -7 -18 -7 1 -15 11 -4 38 -6 60 -4 22 3 71 6 108 7 64 3 70 2
105 -29 l37 -33 -137 -1 c-132 0 -195 -10 -184 -29 3 -5 25 -7 48 -5 24 2 102
6 175 8 l131 4 39 -40 38 -41 -95 8 c-52 4 -151 10 -219 14 -113 5 -125 4
-136 -12 -23 -33 -53 -13 -61 39 -7 52 1 177 15 232 6 20 17 72 25 116 9 43
17 80 18 82 2 1 28 4 58 5 30 1 64 6 75 10 29 11 103 11 110 -1z m3 -145 c12
-25 22 -48 22 -51 0 -12 -103 7 -132 24 -15 9 -28 19 -28 22 1 13 67 50 90 50
19 0 30 -10 48 -45z m392 -31 c-51 -18 -63 -18 -51 4 7 14 18 17 48 14 l38 -5
-35 -13z m326 -31 c-3 -21 -8 -69 -11 -108 -7 -80 -34 -227 -43 -237 -16 -16
-608 -25 -668 -10 -21 6 -75 18 -119 28 -140 30 -114 37 125 29 171 -5 229
-10 241 -21 8 -8 23 -14 32 -14 19 0 23 25 6 36 -6 3 -8 16 -4 28 7 22 11 52
20 156 3 36 9 70 13 76 4 6 57 24 117 41 84 23 132 31 203 32 l94 1 -6 -37z
m-661 -49 c9 -20 15 -38 12 -40 -5 -5 -107 64 -107 72 0 2 17 4 39 4 35 0 41
-4 56 -36z m-250 -312 c10 -7 -51 -20 -93 -21 -21 -1 -22 0 -7 23 15 22 19 23
53 14 20 -6 42 -13 47 -16z"/>
</g>
</svg>
