<?xml version="1.0" standalone="no"?>
<!DOCTYPE svg PUBLIC "-//W3C//DTD SVG 20010904//EN"
 "http://www.w3.org/TR/2001/REC-SVG-20010904/DTD/svg10.dtd">
<svg version="1.0" xmlns="http://www.w3.org/2000/svg"
 width="173.000000pt" height="93.000000pt" viewBox="0 0 173.000000 93.000000"
 preserveAspectRatio="xMidYMid meet">
<metadata>
Created by potrace 1.16, written by Peter Selinger 2001-2019
</metadata>
<g transform="translate(0.000000,93.000000) scale(0.100000,-0.100000)"
fill="#000000" stroke="none">
<path d="M1229 821 c-35 -28 -76 -62 -92 -76 -25 -24 -36 -26 -132 -31 -82 -4
-122 0 -187 15 -46 11 -102 20 -126 20 -29 0 -61 10 -102 33 -33 18 -60 36
-60 40 0 5 -6 8 -14 8 -12 0 -22 -19 -40 -72 -7 -24 -32 -23 -101 4 l-56 21
-21 -20 c-32 -32 -46 -124 -41 -279 2 -77 3 -186 3 -244 -1 -108 11 -165 33
-157 8 2 12 29 13 78 3 173 12 252 33 280 12 16 21 32 21 37 0 19 50 130 77
171 l28 43 3 -70 c4 -95 16 -98 100 -23 91 80 134 100 192 89 149 -28 333 -17
376 23 17 16 23 17 27 6 3 -7 20 -21 39 -30 l33 -17 -32 0 c-17 0 -38 7 -46
15 -13 13 -16 12 -22 -3 -4 -9 -9 -39 -11 -66 -3 -27 -11 -79 -20 -115 -8 -36
-14 -83 -12 -103 1 -20 -1 -40 -5 -44 -4 -4 1 -16 10 -26 10 -11 17 -34 16
-53 -1 -19 3 -35 8 -35 13 0 30 39 27 63 -2 15 1 21 12 18 8 -2 27 -4 42 -5
35 -1 35 -9 2 -25 -14 -6 -47 -29 -73 -51 -26 -22 -50 -40 -53 -40 -3 0 -8 39
-12 87 -7 92 -15 113 -34 90 -17 -20 -4 -227 15 -234 7 -3 39 17 70 43 81 70
115 94 124 89 4 -3 10 -19 14 -35 4 -17 10 -30 15 -30 12 0 21 44 10 48 -6 2
-10 13 -10 23 0 23 53 49 97 49 15 0 79 7 141 17 82 13 112 22 112 32 0 8 -3
11 -6 8 -10 -9 -44 12 -44 27 0 7 -26 40 -57 73 -56 57 -123 164 -123 197 0 8
-9 20 -19 26 -11 6 -28 38 -41 77 -13 38 -26 71 -29 76 -4 4 -36 -15 -72 -42z
m41 -16 c0 -28 61 -139 89 -162 14 -11 24 -24 21 -26 -3 -3 -34 22 -70 56 -36
34 -78 68 -93 76 l-27 14 32 28 c38 32 48 35 48 14z m-676 -89 c31 -13 36 -19
27 -30 -16 -19 -90 -70 -95 -65 -4 4 -9 77 -7 118 1 22 2 23 19 9 9 -9 34 -23
56 -32z m-198 -9 l41 -12 -18 -30 c-38 -62 -64 -112 -86 -160 l-22 -50 -1 133
c0 150 -3 146 86 119z m847 -70 c-12 -19 -95 -127 -98 -127 -2 0 2 109 5 138
0 1 23 2 50 2 39 0 49 -3 43 -13z m102 -73 c33 -28 67 -55 77 -60 31 -18 119
-104 114 -113 -6 -9 -136 -26 -173 -22 -12 1 -38 -2 -57 -8 -20 -5 -36 -6 -36
-1 0 4 20 35 45 68 25 33 45 65 45 71 0 8 -19 11 -57 9 l-58 -3 -10 -75 -10
-75 -45 5 c-44 5 -44 6 -47 45 -2 29 5 51 24 80 41 62 116 147 122 138 3 -4
33 -31 66 -59z m-40 -83 c3 -5 -5 -27 -17 -48 l-23 -38 -3 33 c-2 19 -1 40 2
48 6 16 32 19 41 5z"/>
</g>
</svg>
