<?xml version="1.0" standalone="no"?>
<!DOCTYPE svg PUBLIC "-//W3C//DTD SVG 20010904//EN"
 "http://www.w3.org/TR/2001/REC-SVG-20010904/DTD/svg10.dtd">
<svg version="1.0" xmlns="http://www.w3.org/2000/svg"
 width="330.000000pt" height="133.000000pt" viewBox="0 0 330.000000 133.000000"
 preserveAspectRatio="xMidYMid meet">
<metadata>
Created by potrace 1.16, written by Peter Selinger 2001-2019
</metadata>
<g transform="translate(0.000000,133.000000) scale(0.100000,-0.100000)"
fill="#000000" stroke="none">
<path d="M1175 1198 c-48 -34 -61 -39 -76 -30 -10 7 -23 12 -29 12 -16 0 -29
-44 -32 -104 l-2 -54 -71 -11 c-70 -12 -430 -19 -580 -12 -49 3 -86 10 -97 19
-14 12 -18 11 -32 -10 -25 -38 -45 -155 -50 -293 -3 -71 -10 -172 -15 -223
-10 -99 -6 -158 13 -170 18 -11 242 -2 352 14 55 8 105 14 110 13 5 -2 47 1
94 6 101 10 210 9 221 -2 4 -4 9 -52 12 -105 2 -54 9 -104 16 -111 6 -8 9 -22
5 -31 -14 -38 92 -2 170 57 17 13 46 32 64 41 29 15 33 15 38 1 10 -24 34 -18
45 12 9 24 73 87 89 88 3 1 31 26 63 58 73 71 123 110 145 112 10 0 22 4 28 7
10 7 94 -26 104 -41 3 -4 26 -18 52 -30 30 -14 88 -63 156 -131 76 -77 122
-115 156 -130 51 -21 76 -21 76 2 0 29 60 123 112 177 69 71 255 243 274 254
18 10 73 -47 81 -85 3 -15 20 -44 38 -65 18 -21 42 -57 54 -80 25 -50 66 -82
83 -65 9 9 7 16 -5 30 -26 29 -21 37 28 38 25 0 45 -1 45 -4 0 -6 -82 -134
-90 -142 -21 -18 -49 -72 -55 -104 -7 -33 -5 -37 9 -34 10 1 31 28 48 58 16
30 44 73 60 95 44 58 276 283 321 312 26 16 37 29 33 39 -3 9 -6 17 -6 20 0 2
-23 15 -50 29 -47 24 -90 72 -90 102 0 7 -11 23 -23 37 -21 23 -25 39 -30 137
-5 88 -4 117 8 139 37 72 10 77 -72 15 -63 -48 -77 -62 -212 -208 -110 -120
-167 -168 -187 -160 -8 3 -26 27 -39 53 -16 31 -35 53 -57 63 -18 9 -67 40
-108 70 -57 41 -75 59 -76 78 0 13 -6 36 -13 51 -12 23 -11 36 3 86 21 77 21
92 -5 92 -13 0 -44 -25 -81 -65 -34 -36 -71 -68 -84 -71 -19 -5 -38 -34 -35
-56 0 -3 -14 -19 -33 -35 -18 -15 -53 -45 -78 -67 -73 -62 -267 -173 -277
-159 -15 21 -130 111 -164 128 -21 11 -64 39 -95 63 -31 24 -81 59 -110 79
-29 19 -57 44 -62 54 -6 10 -12 55 -14 99 -2 44 -6 83 -8 85 -3 3 -31 -14 -63
-37z m25 -73 c0 -25 -2 -45 -4 -45 -3 0 -21 9 -40 21 -33 19 -40 39 -15 39 6
0 17 7 25 15 25 25 34 17 34 -30z m1044 -24 c-9 -22 -14 -58 -12 -80 4 -41 -4
-43 -46 -15 -18 12 -18 14 7 25 31 14 34 24 10 38 -16 9 -15 13 16 45 19 20
36 34 38 32 2 -2 -4 -22 -13 -45z m-1066 -72 c18 -16 37 -29 42 -29 19 0 116
-68 151 -106 20 -22 69 -61 110 -87 41 -26 99 -68 129 -93 66 -54 126 -94 140
-94 5 0 10 -4 10 -10 0 -5 -6 -10 -13 -10 -7 0 -74 -46 -149 -103 -76 -56
-150 -110 -165 -119 -15 -10 -40 -27 -55 -39 -15 -13 -30 -20 -34 -16 -3 3
-10 43 -15 88 -5 45 -17 113 -25 151 -9 41 -13 84 -9 105 5 26 3 34 -6 31 -28
-9 -38 -116 -20 -204 12 -60 17 -207 7 -222 -13 -22 -179 -113 -188 -104 -5 5
-11 43 -14 83 -2 41 -6 106 -9 144 -9 113 -7 248 4 296 5 24 10 80 10 124 1
44 5 107 10 140 5 33 7 63 5 67 -3 4 -2 18 2 32 5 23 9 24 28 14 11 -6 36 -24
54 -39z m1821 -11 c-8 -14 -10 -50 -6 -104 l6 -83 -60 46 c-32 25 -59 49 -59
52 0 9 111 111 121 111 6 0 5 -9 -2 -22z m-827 -60 c24 -12 71 -45 105 -72 34
-28 77 -62 96 -76 36 -26 33 -40 -10 -40 -16 0 -21 4 -17 15 4 8 4 21 1 29 -5
12 -19 10 -83 -9 l-76 -24 6 29 c3 17 3 30 0 30 -2 0 -31 -11 -64 -25 -33 -14
-61 -25 -64 -25 -2 0 -6 10 -9 21 -5 19 -11 21 -48 16 -24 -3 -51 -15 -63 -27
l-21 -22 22 6 c19 6 23 2 28 -28 4 -19 4 -39 1 -44 -7 -12 -67 4 -108 28 l-26
16 36 24 c21 13 61 45 91 70 65 54 155 128 158 129 1 1 22 -9 45 -21z m-1206
-28 c-4 -25 -2 -40 4 -40 5 0 10 18 10 41 0 33 3 40 16 35 9 -3 20 -6 25 -6 5
0 9 -29 9 -64 0 -62 0 -63 -25 -58 -17 3 -25 11 -25 25 0 11 -3 17 -7 13 -5
-4 -8 -13 -8 -19 0 -7 -9 -12 -20 -12 -17 0 -20 8 -23 57 -3 52 -1 57 20 61
13 2 25 5 27 6 2 0 1 -17 -3 -39z m-76 -29 c0 -55 -2 -59 -25 -63 -24 -5 -25
-3 -25 42 0 34 -5 50 -15 54 -10 3 -18 -1 -22 -11 -4 -9 -2 -18 4 -20 6 -2 8
-17 4 -36 -6 -29 -11 -32 -41 -32 -35 0 -35 0 -38 48 -4 61 -25 58 -26 -4 -1
-38 -4 -44 -21 -41 -11 2 -20 5 -21 5 -1 1 2 25 5 52 l6 50 105 6 c58 3 106 6
108 7 1 1 2 -24 2 -57z m-542 2 c3 -26 -2 -34 -24 -45 -37 -18 -43 -38 -11
-38 18 0 27 -7 31 -24 9 -38 -3 -56 -37 -56 l-30 0 6 90 c6 102 10 112 40 108
17 -2 23 -11 25 -35z m96 27 c8 0 11 -12 8 -35 -4 -32 -6 -34 -36 -31 -17 2
-30 6 -30 10 13 64 15 68 30 62 9 -3 21 -6 28 -6z m196 -41 l0 -51 -32 7 c-46
10 -49 13 -42 43 10 49 13 52 44 52 29 0 30 -1 30 -51z m-90 32 c0 -5 -3 -23
-6 -40 -5 -26 -11 -31 -35 -31 -31 0 -45 25 -34 60 5 15 15 20 41 20 19 0 34
-4 34 -9z m2380 -80 l25 -21 -40 -1 c-65 -2 -105 -8 -125 -19 -35 -19 -32 -10
17 44 l48 53 25 -18 c14 -10 36 -27 50 -38z m-2479 -29 c4 -4 9 -20 11 -37 3
-29 2 -30 -37 -30 l-40 0 -3 44 -3 44 33 -7 c18 -3 36 -10 39 -14z m89 -22 c9
-35 2 -50 -26 -50 -17 0 -24 6 -25 20 -1 11 -2 26 -3 33 -6 37 45 35 54 -3z
m90 -15 c0 -33 -2 -35 -35 -35 -33 0 -35 2 -35 35 0 33 2 35 35 35 33 0 35 -2
35 -35z m258 -15 c-2 -27 -8 -34 -26 -35 -27 -2 -37 15 -28 49 6 25 34 39 49
26 5 -4 7 -22 5 -40z m131 -31 c-10 -90 -33 -98 -37 -12 -4 82 1 97 26 84 16
-9 18 -17 11 -72z m-311 42 c5 -30 -8 -42 -36 -34 -21 5 -24 19 -13 61 1 2 11
2 24 0 14 -2 23 -11 25 -27z m86 23 c10 -4 16 -18 16 -35 0 -27 -3 -29 -40
-29 -37 0 -40 2 -40 28 0 16 3 32 7 35 8 9 36 9 57 1z m167 -1 c6 -56 4 -61
-18 -59 -19 1 -23 7 -23 34 0 25 4 32 20 32 11 0 20 -3 21 -7z m1059 -7 c0 -8
-4 -18 -10 -21 -5 -3 -10 -4 -10 -1 0 2 -3 11 -6 20 -4 11 -1 16 10 16 9 0 16
-6 16 -14z m150 -15 c0 -16 -8 -39 -19 -52 -18 -22 -18 -22 -29 -3 -8 16 -6
27 10 52 25 40 38 41 38 3z m838 -14 c33 -34 43 -51 45 -82 l2 -40 -60 0 c-33
0 -94 3 -136 7 -58 6 -80 4 -95 -6 -10 -8 -17 -17 -14 -20 3 -3 72 -8 152 -12
134 -6 146 -8 138 -24 -8 -14 -31 -18 -145 -22 -75 -3 -139 -8 -142 -12 -19
-18 24 -23 135 -13 67 5 125 7 128 4 4 -3 -4 -20 -16 -37 l-22 -30 -94 6 c-83
6 -94 5 -94 -10 0 -9 6 -17 13 -17 6 -1 17 -2 22 -4 6 -1 39 -3 74 -3 l63 -2
-15 -23 c-12 -19 -24 -22 -79 -23 l-64 -1 -41 61 c-23 34 -46 72 -52 86 -5 14
-22 38 -37 54 -45 47 -40 77 22 135 52 49 54 50 81 36 28 -15 128 -20 157 -9
27 10 18 24 -16 25 l-33 1 30 8 c17 4 35 8 40 9 6 0 30 -18 53 -42z m-718 12
c-14 -11 -35 -24 -48 -29 -12 -5 -22 -13 -21 -17 4 -23 -4 -31 -31 -35 -34 -5
-36 -1 -15 26 8 11 15 28 15 38 0 11 10 20 28 24 15 3 32 7 37 9 6 2 21 4 35
4 l25 1 -25 -21z m-200 -4 c0 -17 -31 -75 -39 -75 -14 0 -33 38 -25 51 10 16
64 36 64 24z m390 -45 c0 -19 -19 -40 -37 -40 -14 0 -18 46 -7 75 6 14 8 14
25 -1 11 -9 19 -25 19 -34z m-201 -2 c-8 -14 -14 -18 -17 -10 -4 13 17 46 25
38 3 -2 -1 -15 -8 -28z m75 -3 c-22 -29 -54 -47 -54 -30 0 16 26 55 39 58 38
11 41 6 15 -28z m-1890 -22 c-1 -7 -2 -17 -2 -23 -1 -5 -20 -10 -42 -10 -33 0
-40 3 -40 19 0 13 8 21 23 23 40 7 62 3 61 -9z m67 7 c5 0 9 -9 9 -20 0 -15
-7 -20 -25 -20 -20 0 -25 5 -25 26 0 20 4 25 16 20 9 -3 20 -6 25 -6z m99 0
c0 -7 7 -7 20 0 33 18 62 3 58 -28 -2 -18 -8 -26 -18 -24 -8 2 -40 4 -70 5
-45 2 -55 5 -58 21 -2 10 2 22 10 27 18 12 58 11 58 -1z m334 -22 c-1 -28 -5
-33 -25 -33 -19 0 -25 6 -27 27 -3 21 2 27 20 31 13 2 25 5 28 6 3 0 5 -14 4
-31z m1146 11 c0 -5 -4 -9 -10 -9 -5 0 -10 7 -10 16 0 8 5 12 10 9 6 -3 10
-10 10 -16z m-1770 -10 c0 -12 -8 -27 -17 -34 -14 -11 -15 -15 -4 -28 18 -23
5 -57 -23 -57 -37 0 -37 1 -11 118 7 31 55 32 55 1z m460 -8 c0 -30 -2 -31
-62 -22 -5 0 -8 12 -8 26 0 22 4 25 35 25 32 0 35 -2 35 -29z m82 -1 c-3 -24
-9 -30 -28 -30 -14 0 -27 7 -30 15 -10 26 4 45 34 45 26 0 28 -3 24 -30z m888
17 c0 -8 -3 -17 -7 -20 -9 -9 -34 13 -27 24 8 14 34 11 34 -4z m615 3 c3 -5 1
-10 -4 -10 -6 0 -11 5 -11 10 0 6 2 10 4 10 3 0 8 -4 11 -10z m-461 -30 c16
-5 12 -11 -26 -32 -25 -14 -50 -23 -56 -19 -7 5 -9 48 -3 69 1 4 58 -8 85 -18z
m76 -29 c0 -5 -18 -30 -40 -57 -21 -26 -37 -51 -35 -54 3 -4 18 -10 35 -13 22
-5 30 -12 30 -27 0 -17 5 -21 23 -18 12 2 21 9 20 15 -2 10 23 14 91 14 10 0
26 -7 36 -16 19 -17 60 -13 60 5 0 5 11 17 26 26 24 16 26 16 39 -4 17 -23 78
-28 95 -7 6 7 19 11 29 8 13 -3 20 2 25 20 4 19 11 24 26 20 24 -6 26 4 4 28
-15 17 -15 20 0 44 17 26 68 36 64 13 -2 -8 6 -12 19 -11 16 2 21 -2 17 -12
-4 -8 -10 -15 -14 -15 -4 0 -30 -21 -57 -47 -209 -201 -347 -313 -386 -313
-10 0 -42 24 -71 54 -52 56 -126 120 -166 146 -36 23 -60 49 -60 64 0 15 40
48 130 108 62 42 60 41 60 29z m144 -10 c15 -13 15 -15 -1 -33 -16 -18 -17
-18 -40 7 -13 14 -21 30 -18 35 8 13 39 8 59 -9z m123 -3 c8 -7 3 -22 -20 -59
-17 -28 -35 -53 -40 -56 -14 -9 -37 26 -30 45 5 12 8 11 14 -6 10 -25 29 -29
29 -7 0 9 -7 30 -16 46 -25 50 16 75 63 37z m135 -2 c4 -6 8 -16 8 -21 0 -14
-63 -85 -76 -85 -20 0 -57 51 -45 63 10 10 11 9 25 -37 3 -9 13 -12 26 -9 11
3 19 8 17 12 -20 37 -36 84 -31 92 7 12 66 1 76 -15z m-1950 -1 c3 -3 3 -17 0
-30 -4 -22 -10 -25 -43 -25 -34 0 -39 3 -39 23 0 13 3 27 7 30 8 8 67 9 75 2z
m82 -33 c1 -30 -1 -32 -32 -32 -30 0 -32 2 -26 28 10 39 14 43 37 40 15 -2 20
-11 21 -36z m174 -11 c3 -30 2 -31 -35 -31 -33 0 -41 4 -50 28 l-11 27 -1 -26
c-1 -23 -4 -25 -31 -21 -19 3 -30 10 -30 21 0 31 16 41 58 39 23 -1 45 1 48 5
15 15 49 -12 52 -42z m170 1 c3 -42 2 -43 -25 -40 -22 2 -29 9 -31 31 -5 41 3
55 30 53 20 -1 23 -7 26 -44z m82 19 c0 -39 -9 -61 -25 -61 -16 0 -25 22 -25
61 0 24 4 29 25 29 21 0 25 -5 25 -29z m40 -11 c0 -29 -4 -40 -15 -40 -10 0
-15 10 -15 33 0 19 3 37 7 40 15 16 23 5 23 -33z m-198 -5 c4 -35 4 -35 -37
-35 -38 0 -40 1 -39 30 1 17 2 32 3 35 0 3 16 5 35 5 31 0 34 -3 38 -35z
m1274 0 c26 -29 29 -37 19 -51 -9 -14 -16 -14 -33 -5 -12 6 -22 21 -22 31 0
11 -5 20 -11 20 -5 0 -7 -5 -4 -10 7 -11 -22 -26 -32 -17 -6 6 34 67 44 67 4
0 21 -16 39 -35z m1067 13 c12 -7 24 -14 27 -16 2 -2 -42 -47 -98 -102 -57
-54 -100 -89 -96 -78 13 44 117 208 130 208 8 0 24 -6 37 -12z m-1373 -64 c0
-25 -14 -30 -40 -14 -12 7 -12 12 4 29 22 25 36 19 36 -15z m-1463 -35 c-3
-23 -11 -45 -18 -50 -18 -10 -21 -6 -25 33 -3 23 1 37 13 46 29 21 36 14 30
-29z m133 -8 c0 -43 -11 -50 -62 -43 -21 3 -28 10 -28 27 0 44 10 55 51 55 39
0 39 0 39 -39z m68 30 c8 -4 11 -20 9 -37 -3 -23 -9 -30 -32 -32 -22 -3 -27 0
-21 13 3 9 6 28 6 41 0 24 14 30 38 15z m98 -6 c4 -8 3 -26 0 -40 -5 -20 -13
-25 -36 -25 -27 0 -30 3 -30 34 0 35 1 36 53 45 4 0 10 -6 13 -14z m82 6 c9
-1 12 -12 10 -33 -3 -30 -6 -33 -38 -33 -30 0 -35 3 -36 25 -2 37 4 47 29 44
12 -1 28 -3 35 -3z m122 -37 c0 -34 -1 -34 -44 -34 -50 0 -59 8 -50 44 6 26
30 35 72 28 18 -4 22 -11 22 -38z m73 15 c9 -33 -3 -50 -32 -47 -22 2 -26 8
-28 36 -1 29 1 32 27 32 20 0 29 -6 33 -21z m65 -11 c-4 -46 -28 -49 -28 -4 0
26 4 36 16 36 11 0 14 -8 12 -32z m44 -13 c-5 -31 -22 -23 -22 10 0 16 4 23
14 19 8 -3 11 -15 8 -29z m-482 -69 c0 -15 -7 -26 -20 -29 -16 -4 -20 0 -20
17 0 26 8 36 27 36 7 0 13 -11 13 -24z m90 4 c0 -14 -7 -20 -24 -20 -19 0 -23
4 -19 20 3 11 14 20 24 20 12 0 19 -7 19 -20z m90 5 c0 -8 -4 -15 -9 -15 -5 0
-15 -2 -23 -5 -7 -3 -19 4 -26 15 -11 19 -10 20 23 20 24 0 35 -5 35 -15z
m118 3 c-7 -19 -55 -21 -80 -4 -22 15 -20 16 31 16 38 0 51 -4 49 -12z m72 2
c0 -5 -11 -10 -25 -10 -14 0 -25 5 -25 10 0 6 11 10 25 10 14 0 25 -4 25 -10z
m-440 -20 c0 -12 -9 -22 -24 -26 -30 -7 -42 -1 -49 26 -4 18 0 20 34 20 32 0
39 -3 39 -20z m-143 -16 c-3 -4 -14 -3 -24 0 -15 6 -15 8 -3 16 16 10 39 -4
27 -16z m1893 -174 c-9 -17 -15 -19 -23 -10 -9 9 -7 15 7 26 25 18 31 12 16
-16z"/>
<path d="M2792 713 c-35 -3 -52 -8 -49 -16 3 -11 45 -11 257 -3 14 1 25 6 25
11 0 10 -138 15 -233 8z"/>
</g>
</svg>
