<?xml version="1.0" standalone="no"?>
<!DOCTYPE svg PUBLIC "-//W3C//DTD SVG 20010904//EN"
 "http://www.w3.org/TR/2001/REC-SVG-20010904/DTD/svg10.dtd">
<svg version="1.0" xmlns="http://www.w3.org/2000/svg"
 width="234.000000pt" height="122.000000pt" viewBox="0 0 234.000000 122.000000"
 preserveAspectRatio="xMidYMid meet">
<metadata>
Created by potrace 1.16, written by Peter Selinger 2001-2019
</metadata>
<g transform="translate(0.000000,122.000000) scale(0.100000,-0.100000)"
fill="#000000" stroke="none">
<path d="M335 1020 c-33 -13 -53 -43 -58 -85 -3 -22 -8 -51 -11 -65 -3 -14 -7
-70 -10 -125 -3 -55 -12 -158 -20 -230 -17 -159 -17 -346 1 -352 7 -3 33 3 57
12 28 11 58 15 82 11 22 -3 49 -5 62 -6 21 0 22 -4 20 -59 -2 -47 2 -64 16
-80 29 -32 38 -25 30 24 -3 25 -3 61 0 81 l7 35 307 -2 c169 -2 377 1 462 4
85 4 307 10 494 12 186 2 341 6 343 9 12 11 -11 47 -33 52 -21 5 -24 12 -24
48 0 68 20 285 35 381 14 87 27 218 29 300 1 37 -1 40 -24 36 -14 -2 -164 -5
-335 -6 -170 -2 -452 -5 -625 -8 -173 -2 -371 -1 -440 4 -216 14 -344 18 -365
9z m180 -56 c94 -4 274 -7 400 -6 l230 1 -59 -25 c-47 -20 -61 -23 -67 -12 -7
10 -29 6 -110 -22 -136 -47 -139 -50 -96 -83 39 -30 96 -110 148 -207 19 -36
38 -68 43 -71 4 -4 3 -15 -3 -25 -6 -11 -11 -13 -11 -6 0 6 -5 12 -10 12 -11
0 -7 -146 3 -157 3 -2 27 12 55 31 27 20 52 36 55 36 3 0 29 14 57 32 58 36
53 50 -7 19 -38 -19 -40 -19 -50 -1 -10 15 -8 19 19 24 54 11 118 7 118 -7 0
-18 -20 -36 -34 -31 -6 2 -32 -41 -59 -97 -39 -82 -53 -103 -77 -112 -18 -7
-29 -18 -27 -27 2 -13 -30 -15 -250 -16 -139 0 -257 2 -262 5 -6 4 -11 20 -11
36 0 58 7 211 14 283 8 76 2 87 -27 47 -14 -19 -18 -54 -23 -187 -3 -90 -8
-166 -11 -170 -2 -5 -44 -8 -94 -8 l-89 0 0 85 c0 47 9 178 20 293 10 114 22
245 24 292 3 47 6 86 6 88 0 2 3 1 8 -2 4 -2 84 -8 177 -12z m1348 6 c103 -1
192 2 198 6 8 5 9 -15 4 -71 -4 -43 -8 -86 -10 -96 -2 -10 -6 -46 -10 -80 -4
-35 -8 -66 -10 -69 -8 -14 -29 -281 -28 -353 1 -69 16 -65 -212 -72 -93 -2
-242 -7 -330 -10 -175 -6 -180 1 -30 36 106 25 187 47 193 54 12 12 -50 4
-109 -14 -35 -11 -90 -24 -122 -30 -31 -6 -66 -15 -78 -21 -11 -7 -23 -10 -25
-7 -7 6 215 217 229 217 6 0 35 -23 63 -51 63 -62 88 -58 44 7 -17 24 -34 44
-38 44 -4 0 -15 16 -23 34 l-16 35 46 11 c25 6 61 13 80 16 l33 5 -5 -123 c-3
-68 -6 -127 -7 -133 -6 -28 2 -45 20 -45 11 0 21 6 21 13 4 34 6 57 7 115 1
36 6 61 11 57 14 -8 22 10 35 74 10 49 14 56 36 59 39 6 49 22 12 22 -18 0
-32 2 -32 6 0 3 14 42 32 87 31 80 90 180 122 206 25 21 19 28 -21 26 -21 -2
-79 -6 -130 -9 -129 -9 -129 -9 -113 -71 1 -5 2 -24 1 -41 l-1 -31 -92 -9
c-51 -5 -100 -9 -108 -10 -8 0 -53 -4 -100 -8 -83 -7 -164 -9 -206 -7 -19 1
-20 5 -14 44 4 23 19 67 32 97 14 30 28 63 31 72 5 15 25 18 164 20 87 2 183
2 213 1 30 -2 139 -3 243 -3z m-684 -89 l-32 -72 -18 42 c-29 63 -25 73 29 90
26 8 48 14 50 13 2 -1 -11 -34 -29 -73z m-86 -24 c9 -23 17 -49 17 -58 0 -9 7
-34 16 -55 9 -22 21 -50 27 -64 6 -14 9 -31 8 -39 -1 -8 3 -17 9 -21 6 -4 12
-19 13 -34 3 -44 22 -34 27 14 5 43 7 46 63 73 31 15 57 32 57 37 0 6 8 10 18
10 11 0 13 -3 5 -8 -6 -4 -30 -44 -54 -90 -32 -62 -47 -82 -63 -83 -12 0 -52
-3 -91 -5 -38 -2 -75 -1 -80 4 -27 19 -94 150 -96 188 -4 56 30 154 52 154 10
0 21 5 24 10 13 21 31 9 48 -33z m830 29 c-4 -6 -24 -35 -45 -64 -20 -30 -51
-88 -68 -130 -18 -42 -36 -81 -40 -85 -8 -9 -16 50 -19 126 -1 37 0 38 30 35
19 -2 34 2 36 10 3 8 -8 12 -35 12 -36 0 -40 3 -46 31 -13 68 -13 68 72 71 42
2 87 4 99 4 14 1 20 -3 16 -10z m-953 -3 c0 -4 -10 -33 -22 -63 l-22 -57 -43
45 c-23 25 -42 46 -40 47 8 5 104 34 115 34 6 1 12 -2 12 -6z m742 -195 c5
-98 4 -102 -56 -116 -70 -16 -117 -16 -110 1 4 11 -84 100 -140 140 -18 13
-17 14 14 15 53 1 164 13 169 18 2 2 30 4 62 4 l57 0 4 -62z m-416 23 c-3 -4
-26 -16 -52 -26 -38 -15 -48 -15 -55 -4 -12 20 0 27 51 32 25 2 49 4 53 5 5 1
6 -2 3 -7z m101 -54 c10 -12 35 -35 56 -51 20 -16 37 -32 37 -36 0 -5 -28 -11
-62 -14 -35 -4 -84 -9 -110 -12 l-48 -6 48 71 c26 38 50 70 54 71 4 0 15 -10
25 -23z m364 -120 c-8 -8 -11 -7 -11 4 0 20 13 34 18 19 3 -7 -1 -17 -7 -23z
m-339 -18 c-12 -12 -135 -59 -153 -59 -51 0 -18 51 36 57 22 2 41 5 43 7 1 2
20 3 42 2 22 0 36 -4 32 -7z m98 -13 c0 -14 -9 -31 -21 -39 -28 -20 -113 -102
-185 -179 l-60 -65 -97 -6 c-62 -4 -97 -3 -97 4 0 5 10 13 23 18 12 5 58 25
102 46 102 47 136 61 158 69 25 8 21 36 -9 67 l-26 27 49 16 c26 9 68 28 93
41 57 31 70 31 70 1z m-450 -61 c0 -1 -14 -12 -31 -24 -35 -26 -49 -18 -49 31
0 34 37 42 63 14 9 -10 17 -20 17 -21z m687 23 c-3 -8 -6 -5 -6 6 -1 11 2 17
5 13 3 -3 4 -12 1 -19z m-510 -52 c11 3 25 -1 32 -10 8 -9 20 -16 27 -16 35 0
6 -22 -88 -68 -57 -28 -105 -49 -107 -46 -2 2 7 21 21 41 14 21 29 49 33 63
12 39 25 51 44 40 10 -5 27 -7 38 -4z"/>
</g>
</svg>
