<?xml version="1.0" standalone="no"?>
<!DOCTYPE svg PUBLIC "-//W3C//DTD SVG 20010904//EN"
 "http://www.w3.org/TR/2001/REC-SVG-20010904/DTD/svg10.dtd">
<svg version="1.0" xmlns="http://www.w3.org/2000/svg"
 width="152.000000pt" height="102.000000pt" viewBox="0 0 152.000000 102.000000"
 preserveAspectRatio="xMidYMid meet">
<metadata>
Created by potrace 1.16, written by Peter Selinger 2001-2019
</metadata>
<g transform="translate(0.000000,102.000000) scale(0.100000,-0.100000)"
fill="#000000" stroke="none">
<path d="M395 909 c-22 -4 -68 -8 -102 -8 -34 -1 -68 -4 -77 -7 -20 -8 -21
-33 -1 -40 13 -5 15 -56 13 -387 -2 -283 0 -381 9 -384 6 -2 40 20 75 50 86
73 99 79 198 88 144 14 183 19 240 29 52 9 319 23 403 20 63 -2 77 7 77 46 0
37 -10 43 -30 19 -7 -8 -15 -15 -19 -15 -3 0 -8 54 -9 120 l-4 120 46 94 c25
51 57 107 71 124 36 42 32 60 -12 67 -21 4 -51 9 -66 12 -15 2 -34 0 -41 -6
-7 -6 -28 -9 -47 -6 -19 3 -124 8 -234 11 -126 4 -220 11 -255 21 -111 29
-135 34 -152 30 -10 -3 -18 -1 -18 4 0 10 -9 10 -65 -2z m113 -59 c37 0 33
-16 -13 -49 l-45 -32 0 57 c0 55 1 56 18 41 10 -10 28 -17 40 -17z m-120 -7
c-7 -16 -16 -34 -22 -41 -5 -7 -28 -49 -51 -93 l-42 -81 -1 99 c0 54 -2 105
-4 113 -3 15 35 25 104 29 26 1 27 0 16 -26z m25 -73 c-5 -45 -4 -50 14 -50
11 0 28 9 39 21 33 36 104 62 179 65 176 7 237 7 330 -1 138 -11 145 -14 145
-69 0 -38 -3 -45 -24 -50 -14 -3 -158 -6 -321 -6 -247 -1 -306 2 -355 16 -33
9 -60 21 -60 25 0 15 44 98 52 99 4 0 4 -22 1 -50z m820 34 c23 -8 -26 -104
-54 -104 -15 0 -19 7 -19 37 0 52 33 83 73 67z m-804 -155 l45 -11 -69 -29
c-38 -16 -71 -27 -73 -24 -2 2 -1 24 2 49 7 42 9 44 29 36 12 -5 42 -14 66
-21z m697 -32 c-3 -16 -6 -49 -6 -73 0 -41 -2 -43 -37 -54 -135 -37 -743 -13
-743 30 0 17 41 40 135 76 94 37 108 39 240 44 77 3 202 6 278 6 l139 0 -6
-29z m-822 -108 c-10 -16 37 -59 65 -60 63 -1 62 -13 -5 -48 -35 -18 -66 -32
-68 -30 -6 7 -14 148 -8 153 8 9 23 -5 16 -15z m821 -86 c4 -16 10 -45 15 -66
4 -20 5 -39 1 -41 -6 -4 -108 -12 -280 -22 -52 -2 -97 -7 -101 -9 -9 -6 -321
-19 -389 -16 -30 1 -60 6 -67 11 -6 6 -19 8 -28 4 -12 -4 -16 0 -16 16 0 12 4
18 11 15 6 -4 36 11 68 34 36 25 75 43 102 47 24 4 51 12 59 20 11 9 62 13
185 14 94 0 215 5 270 9 172 14 164 15 170 -16z m-786 -193 c17 0 31 -3 31 -7
-1 -7 -84 -74 -102 -81 -9 -4 -11 69 -2 92 5 12 11 13 24 6 10 -6 32 -10 49
-10z"/>
</g>
</svg>
