<?xml version="1.0" standalone="no"?>
<!DOCTYPE svg PUBLIC "-//W3C//DTD SVG 20010904//EN"
 "http://www.w3.org/TR/2001/REC-SVG-20010904/DTD/svg10.dtd">
<svg version="1.0" xmlns="http://www.w3.org/2000/svg"
 width="127.000000pt" height="102.000000pt" viewBox="0 0 127.000000 102.000000"
 preserveAspectRatio="xMidYMid meet">
<metadata>
Created by potrace 1.16, written by Peter Selinger 2001-2019
</metadata>
<g transform="translate(0.000000,102.000000) scale(0.100000,-0.100000)"
fill="#000000" stroke="none">
<path d="M435 878 c-3 -18 -7 -49 -9 -68 -4 -40 -9 -40 -105 -13 -51 15 -54
14 -74 -6 -15 -14 -20 -32 -19 -58 4 -88 1 -600 -4 -625 -3 -16 -1 -28 4 -28
16 0 23 64 28 240 3 91 9 166 14 168 5 2 26 27 46 55 21 29 46 62 57 74 19 21
21 21 33 5 13 -16 16 -14 45 18 82 92 131 140 142 140 7 0 60 -7 118 -15 59
-7 138 -12 175 -9 306 22 314 23 314 45 0 7 -71 10 -212 7 -285 -4 -394 12
-460 67 -18 16 -39 24 -50 22 -10 -3 -18 -1 -18 4 0 24 -20 5 -25 -23z m101
-73 l25 -10 -56 -55 c-30 -30 -55 -50 -55 -44 0 6 9 19 20 29 26 23 25 39 -1
57 -18 11 -20 20 -14 47 l7 33 24 -23 c14 -13 36 -28 50 -34z m-164 -84 l38
-6 -36 -45 c-20 -25 -51 -69 -70 -97 -19 -29 -35 -53 -36 -53 -2 0 -3 50 -3
111 l-1 110 36 -7 c19 -4 52 -10 72 -13z"/>
<path d="M660 675 c-20 -24 -5 -42 39 -50 23 -4 41 -10 41 -14 0 -3 -20 -29
-45 -56 l-45 -50 2 57 c1 32 -1 61 -5 65 -4 3 -7 17 -7 30 0 13 -4 23 -9 23
-11 0 -21 -25 -21 -51 0 -20 -8 -22 -90 -19 -50 1 -100 -14 -100 -30 0 -7 24
-8 69 -4 101 10 109 4 71 -48 -17 -24 -44 -62 -61 -85 -16 -24 -33 -43 -38
-43 -5 0 -7 31 -5 70 4 117 -13 87 -24 -43 -18 -198 -24 -343 -13 -332 12 14
31 140 31 214 0 35 4 61 10 61 6 0 40 41 77 92 l67 92 8 -35 c4 -19 4 -44 1
-56 -11 -46 27 -22 98 62 48 57 78 85 93 85 166 2 318 20 324 39 4 11 -13 12
-99 7 -113 -8 -324 7 -344 24 -9 7 -16 6 -25 -5z"/>
</g>
</svg>
