<?xml version="1.0" standalone="no"?>
<!DOCTYPE svg PUBLIC "-//W3C//DTD SVG 20010904//EN"
 "http://www.w3.org/TR/2001/REC-SVG-20010904/DTD/svg10.dtd">
<svg version="1.0" xmlns="http://www.w3.org/2000/svg"
 width="187.000000pt" height="153.000000pt" viewBox="0 0 187.000000 153.000000"
 preserveAspectRatio="xMidYMid meet">
<metadata>
Created by potrace 1.16, written by Peter Selinger 2001-2019
</metadata>
<g transform="translate(0.000000,153.000000) scale(0.100000,-0.100000)"
fill="#000000" stroke="none">
<path d="M685 1486 c-7 -12 -18 -70 -25 -131 -6 -60 -15 -127 -19 -147 -5 -20
-6 -39 -3 -43 10 -10 38 -5 76 15 57 29 116 46 261 75 72 14 157 33 190 40 33
8 85 16 116 19 30 3 62 7 70 10 8 2 27 7 42 10 25 6 27 5 18 -13 -15 -27 -38
-141 -45 -226 -4 -38 -15 -113 -26 -165 -45 -223 -65 -349 -72 -448 -1 -19 -6
-36 -10 -38 -4 -3 -8 -23 -8 -45 0 -31 -4 -39 -18 -39 -10 0 -22 4 -28 9 -5 5
-47 21 -93 37 -46 16 -86 35 -89 43 -7 17 23 194 50 291 11 41 21 83 23 92 2
9 8 25 13 35 5 10 19 55 31 100 26 96 58 175 77 186 8 4 14 13 14 20 0 9 -35
12 -142 9 -79 -2 -149 -5 -155 -7 -24 -8 -13 -23 25 -33 31 -9 24 -10 -48 -7
-173 8 -346 23 -383 35 -21 6 -46 10 -55 7 -20 -4 -129 49 -134 65 -7 20 -27
-2 -38 -40 -5 -20 -10 -57 -10 -81 0 -24 -7 -70 -15 -102 -17 -63 -14 -82 10
-72 20 7 19 -7 -5 -69 -11 -29 -20 -75 -21 -103 0 -27 -4 -59 -9 -70 -6 -13
-7 13 -5 70 5 86 -3 191 -12 181 -3 -2 -7 -60 -9 -128 -7 -167 -13 -241 -36
-416 -7 -56 -7 -87 0 -94 14 -14 21 2 34 74 11 71 14 95 16 173 1 30 6 55 10
55 4 0 6 -16 4 -35 -4 -29 -1 -35 15 -35 10 0 23 4 29 10 13 13 192 70 221 70
13 0 22 -4 18 -9 -3 -5 -1 -12 5 -16 14 -9 13 -57 -5 -145 -47 -242 -53 -290
-35 -290 6 0 27 7 47 15 21 9 89 24 153 35 63 11 151 26 195 34 44 9 98 15
120 16 22 0 75 5 118 12 97 15 108 7 108 -79 0 -43 35 -66 56 -37 8 11 12 31
9 46 -3 17 5 54 20 95 15 37 27 73 28 80 1 7 5 16 9 19 4 4 7 14 7 21 0 13 22
75 65 183 8 19 40 105 71 190 31 85 74 196 96 245 23 50 47 106 56 125 40 94
95 194 115 210 41 34 12 41 -204 45 -112 2 -244 8 -294 14 -49 6 -146 13 -215
16 -128 6 -188 14 -298 38 -61 13 -64 13 -77 -7z m170 -46 c33 -6 107 -13 165
-15 100 -5 220 -14 285 -21 17 -2 86 -6 155 -8 69 -3 134 -5 145 -6 16 0 17
-2 5 -9 -8 -5 -63 -11 -122 -14 -59 -3 -111 -8 -115 -10 -4 -3 -30 -8 -58 -11
-92 -12 -120 -16 -190 -31 -38 -8 -106 -21 -150 -29 -133 -25 -208 -44 -247
-60 -21 -9 -38 -12 -38 -7 0 5 4 43 10 83 10 84 19 151 20 157 0 4 40 -2 135
-19z m855 -76 c0 -3 -12 -29 -26 -58 -23 -45 -111 -239 -174 -381 -12 -27 -32
-79 -45 -115 -38 -107 -84 -231 -110 -295 -13 -33 -27 -73 -30 -90 -12 -54
-23 -4 -14 60 5 33 12 85 15 115 3 30 12 93 19 140 8 47 17 103 20 125 4 22
10 56 15 75 5 19 12 64 15 100 10 119 28 225 44 263 l16 37 65 1 c36 0 83 6
105 14 44 14 85 19 85 9z m-1326 -189 c27 -14 66 -25 86 -25 20 0 62 -7 93
-15 32 -8 97 -15 145 -16 l87 -1 -140 -29 c-77 -15 -149 -33 -160 -39 -24 -12
-154 -50 -173 -50 -10 0 -12 8 -7 31 13 56 13 63 14 117 1 28 2 52 4 52 1 0
24 -11 51 -25z m734 -30 c43 -6 48 -11 33 -34 -6 -10 -21 -11 -58 -6 -54 7
-78 18 -70 32 7 12 43 15 95 8z m-135 -120 c7 -73 -2 -145 -17 -145 -6 0 -27
4 -46 9 -19 5 -71 12 -115 16 -43 3 -81 7 -82 9 -2 2 12 30 32 62 19 32 41 71
47 87 12 27 14 27 94 25 l82 -3 5 -60z m110 49 c36 -6 38 -8 32 -38 -3 -17
-10 -42 -15 -56 -4 -14 -23 -72 -40 -130 -38 -123 -50 -142 -50 -78 0 26 -3
53 -6 61 -3 10 3 17 21 21 28 7 25 26 -3 26 -18 0 -18 8 -12 208 0 2 8 1 18
-2 9 -3 34 -8 55 -12z m-357 -71 c-24 -43 -50 -79 -58 -81 -19 -4 -27 33 -20
94 5 48 11 51 109 63 6 0 -8 -34 -31 -76z m-107 -19 c-2 -65 -2 -66 -28 -60
-14 3 -55 11 -90 17 -74 13 -134 35 -111 42 34 10 98 31 140 48 25 9 55 18 68
18 22 1 23 -2 21 -65z m-241 -38 c15 -8 61 -19 102 -25 125 -20 140 -23 146
-33 10 -16 -17 -28 -62 -28 -63 0 -148 -19 -208 -45 -30 -13 -57 -21 -60 -18
-10 11 -7 59 8 94 7 19 16 42 19 52 8 21 19 21 55 3z m471 -66 c19 -1 22 -3
11 -9 -22 -11 -171 -1 -164 11 4 7 30 8 67 4 33 -3 72 -6 86 -6z m-221 -98
l-3 -57 -105 -3 c-78 -2 -116 1 -147 13 -24 9 -43 21 -43 26 0 22 167 73 251
76 l50 1 -3 -56z m345 -7 c6 -74 1 -300 -7 -313 -9 -15 -206 37 -243 64 -17
13 -36 24 -41 24 -14 0 -92 76 -92 89 0 22 34 7 40 -17 8 -34 25 -32 28 4 2
20 10 34 21 37 9 2 76 2 149 0 114 -4 132 -2 132 11 0 9 0 19 0 23 0 4 -64 8
-142 10 -79 2 -148 5 -155 8 -17 6 -9 78 13 104 18 21 25 22 155 19 l137 -3 5
-60z m-642 -54 c33 -15 75 -21 164 -25 140 -5 128 -4 120 -15 -3 -5 -31 -13
-63 -17 -48 -6 -207 -47 -264 -69 -16 -6 -18 0 -18 62 0 59 4 83 15 83 2 0 22
-9 46 -19z m307 -196 c56 -42 124 -72 185 -82 15 -2 51 -11 80 -19 29 -8 75
-21 102 -29 28 -7 77 -23 110 -36 33 -12 74 -25 90 -29 26 -7 24 -8 -20 -10
-27 -1 -59 -3 -70 -5 -11 -1 -69 -8 -130 -14 -60 -6 -146 -18 -190 -26 -144
-27 -259 -44 -264 -39 -5 5 25 188 44 264 11 42 12 56 2 62 -7 4 -9 8 -5 8 4
0 34 -20 66 -45z"/>
</g>
</svg>
