<?xml version="1.0" standalone="no"?>
<!DOCTYPE svg PUBLIC "-//W3C//DTD SVG 20010904//EN"
 "http://www.w3.org/TR/2001/REC-SVG-20010904/DTD/svg10.dtd">
<svg version="1.0" xmlns="http://www.w3.org/2000/svg"
 width="242.000000pt" height="118.000000pt" viewBox="0 0 242.000000 118.000000"
 preserveAspectRatio="xMidYMid meet">
<metadata>
Created by potrace 1.16, written by Peter Selinger 2001-2019
</metadata>
<g transform="translate(0.000000,118.000000) scale(0.100000,-0.100000)"
fill="#000000" stroke="none">
<path d="M1385 1115 c-27 -30 -70 -69 -95 -87 -25 -18 -85 -64 -135 -103 l-90
-71 -110 7 c-60 4 -140 9 -176 10 -71 2 -242 40 -264 59 -8 6 -15 24 -17 38
-2 19 -10 28 -26 30 -30 5 -49 -12 -58 -51 -11 -52 -20 -58 -96 -56 -59 2 -73
-1 -91 -20 -20 -19 -22 -33 -24 -158 -2 -76 -10 -189 -18 -253 -29 -215 -29
-205 -10 -223 21 -21 45 -7 45 27 0 14 22 38 67 74 72 56 85 59 187 45 l39 -5
-7 -62 c-22 -197 -20 -215 18 -200 11 4 16 19 16 48 0 22 6 74 14 115 8 41 12
80 9 87 -4 11 10 14 63 15 38 0 96 3 128 5 34 3 62 0 66 -5 4 -7 19 -6 44 1
58 18 131 -11 201 -80 30 -30 55 -58 55 -62 0 -5 26 -23 57 -41 31 -18 73 -48
92 -66 20 -18 56 -43 81 -55 25 -12 55 -32 68 -46 18 -19 28 -22 55 -17 42 9
47 13 47 33 0 18 46 113 74 154 43 63 190 217 261 273 28 22 56 47 63 57 7 9
26 27 42 38 l30 22 57 -52 c31 -29 68 -59 82 -68 15 -8 40 -31 57 -51 27 -31
34 -34 48 -22 14 12 14 16 0 45 -9 17 -26 41 -38 54 -16 18 -21 36 -21 75 1
90 13 177 25 193 21 25 3 28 -27 4 -65 -50 -136 -100 -144 -100 -5 0 -9 5 -9
11 0 7 -10 9 -25 5 -15 -4 -35 1 -54 11 -36 22 -174 115 -181 122 -3 3 -28 22
-57 42 -29 20 -90 76 -136 125 -79 84 -103 125 -98 167 4 34 -34 17 -84 -38z
m87 -87 c17 -21 26 -38 21 -38 -13 0 -127 22 -132 26 -1 1 12 21 30 44 29 36
34 39 42 23 6 -10 23 -35 39 -55z m-182 -56 c0 -4 34 -6 75 -4 104 6 177 -22
270 -103 39 -33 95 -75 125 -94 30 -18 81 -51 112 -71 31 -21 66 -41 78 -45
11 -3 20 -12 20 -19 0 -7 -55 -62 -122 -122 -68 -60 -143 -128 -168 -151 -45
-44 -60 -55 -190 -139 -121 -79 -156 -89 -178 -54 -7 11 -45 42 -85 68 -40 26
-92 68 -116 94 l-42 46 0 109 c0 113 -12 152 -44 140 -24 -10 -19 9 30 109 32
66 57 102 82 121 20 16 59 49 87 75 50 46 66 56 66 40z m-810 -97 c7 -8 31
-20 54 -26 l41 -11 -60 -55 -60 -55 -5 44 c-3 23 -2 51 3 62 5 10 7 27 4 37
-6 23 6 25 23 4z m-110 -52 c0 -7 -76 -107 -91 -120 -12 -9 -14 -1 -16 52 l-3
64 33 3 c50 5 77 6 77 1z m472 -14 l150 -3 -33 -28 c-19 -15 -59 -36 -89 -45
-59 -19 -73 -43 -31 -53 14 -3 32 -20 42 -37 17 -30 17 -31 -3 -36 -11 -3 -56
-2 -101 3 -64 6 -349 13 -480 11 -23 0 -23 -1 38 82 36 48 51 63 53 50 13 -67
24 -93 41 -93 11 0 49 29 84 65 76 75 108 95 149 90 16 -2 97 -5 180 -6z m159
-104 c-17 -36 -36 -65 -42 -65 -5 0 -18 13 -27 30 -9 16 -21 30 -27 30 -5 0
19 18 55 39 36 22 67 38 69 36 2 -2 -11 -34 -28 -70z m1128 -36 c-5 -19 -10
-48 -11 -66 l0 -31 -30 33 c-16 19 -30 37 -31 41 -2 6 76 64 80 60 2 -1 -2
-18 -8 -37z m-1774 -109 c-4 -6 -24 -19 -46 -30 -34 -18 -40 -19 -45 -5 -12
31 4 45 51 45 29 0 44 -4 40 -10z m592 -6 c4 -11 -10 -32 -43 -64 l-49 -49
-103 -3 c-56 -2 -102 -1 -102 2 0 7 48 57 88 92 27 23 42 28 104 31 40 1 79 4
86 5 7 1 15 -5 19 -14z m-444 -46 c-3 -29 -5 -57 -6 -61 -1 -4 -58 -9 -125
-10 -146 -3 -153 6 -46 61 104 55 116 59 150 61 l31 1 -4 -52z m160 -8 c-73
-76 -98 -79 -107 -14 -10 78 -15 74 79 74 l85 0 -57 -60z m343 -2 c-1 -47 -12
-55 -74 -57 -38 -1 -36 6 16 63 44 48 59 47 58 -6z m-714 -120 c-6 -7 -24 -21
-40 -30 -29 -17 -29 -17 -24 7 4 22 17 29 61 34 10 1 11 -2 3 -11z m1269 -174
c-12 -15 -21 -32 -21 -40 0 -7 -3 -14 -7 -16 -5 -1 -21 -23 -37 -48 -27 -40
-30 -42 -37 -23 -4 12 -19 29 -32 39 l-24 19 81 49 c44 28 83 55 85 61 3 6 6
5 8 -2 3 -7 -5 -25 -16 -39z"/>
<path d="M1470 775 c-25 -13 -71 -31 -103 -40 -35 -10 -57 -22 -57 -31 0 -17
31 -19 47 -3 12 12 35 -16 48 -58 8 -27 -2 -28 -91 -12 -59 11 -144 51 -144
69 0 6 -6 10 -14 10 -24 0 -38 -54 -32 -127 8 -94 11 -112 23 -124 14 -14 53
-2 53 15 0 8 28 32 63 55 57 37 70 41 125 41 72 0 92 -16 138 -111 19 -40 33
-59 44 -57 20 4 15 38 -16 107 -13 29 -24 54 -24 55 0 0 75 2 167 3 91 1 171
7 176 12 25 25 -9 31 -185 31 l-181 0 6 38 c3 20 8 48 11 62 23 103 22 105
-54 65z m11 -43 c-6 -11 -8 -27 -5 -36 3 -8 2 -22 -3 -30 -7 -13 -13 -9 -36
19 l-28 35 38 18 c44 21 48 21 34 -6z m-237 -146 l30 -12 -46 -26 -46 -25 -6
30 c-13 63 -11 64 68 33z"/>
</g>
</svg>
