<?xml version="1.0" standalone="no"?>
<!DOCTYPE svg PUBLIC "-//W3C//DTD SVG 20010904//EN"
 "http://www.w3.org/TR/2001/REC-SVG-20010904/DTD/svg10.dtd">
<svg version="1.0" xmlns="http://www.w3.org/2000/svg"
 width="194.000000pt" height="156.000000pt" viewBox="0 0 194.000000 156.000000"
 preserveAspectRatio="xMidYMid meet">
<metadata>
Created by potrace 1.16, written by Peter Selinger 2001-2019
</metadata>
<g transform="translate(0.000000,156.000000) scale(0.100000,-0.100000)"
fill="#000000" stroke="none">
<path d="M501 1396 c-9 -10 -22 -13 -42 -9 -40 8 -88 -14 -95 -43 -4 -14 -1
-68 5 -122 7 -53 13 -108 14 -122 2 -14 8 -24 15 -23 7 2 12 -4 12 -13 0 -8
-4 -12 -10 -9 -5 3 -10 1 -10 -4 0 -6 5 -11 10 -11 6 0 10 -4 10 -10 0 -5 -7
-10 -15 -10 -12 0 -13 -4 -3 -25 8 -18 8 -39 0 -77 -20 -98 -34 -230 -26 -238
5 -5 8 -88 7 -186 -1 -166 0 -177 18 -181 29 -8 23 -42 -11 -61 -16 -9 -28
-21 -27 -27 4 -11 503 -14 836 -5 138 4 202 2 222 -7 24 -10 31 -9 43 3 17 17
12 39 -12 50 -14 6 -13 8 8 14 18 4 24 12 22 26 -7 37 -7 71 1 364 5 162 13
315 19 340 5 25 9 99 9 165 0 68 5 134 12 153 18 51 6 54 -193 46 -279 -10
-608 -12 -698 -5 -61 6 -85 12 -95 25 -12 16 -14 16 -26 2z m-78 -58 c7 -21
-5 -168 -14 -168 -5 0 -9 41 -9 90 0 81 9 112 23 78z m1017 -17 l25 -1 -26
-14 c-19 -10 -74 -14 -195 -15 -132 -1 -172 -5 -183 -16 -8 -8 -12 -17 -9 -20
3 -4 89 -9 190 -11 l184 -6 11 24 c11 21 12 21 12 -14 l1 -38 -72 0 c-139 -1
-203 -8 -243 -26 l-40 -19 170 -3 c93 -1 173 -6 178 -11 5 -5 6 -22 3 -38 l-7
-30 -169 -7 c-166 -6 -200 -11 -200 -26 0 -13 108 -21 189 -14 49 4 97 2 128
-5 47 -12 49 -14 45 -42 -2 -16 -9 -29 -16 -29 -185 0 -335 -8 -355 -19 -40
-22 -9 -28 143 -30 77 0 161 -3 185 -7 l44 -7 -7 -180 c-6 -154 -9 -182 -24
-194 -16 -12 -16 -14 -1 -26 15 -11 17 -33 10 -91 -1 -5 -7 -4 -13 1 -35 28
-350 16 -349 -12 1 -10 116 -17 284 -19 72 -1 77 -2 77 -23 0 -28 -30 -31
-161 -19 -103 10 -198 -6 -207 -34 -3 -9 1 -11 14 -6 25 10 338 -4 327 -15 -8
-7 -578 -19 -599 -12 -7 2 -10 12 -7 23 9 35 -31 44 -194 43 l-153 -1 0 33 c0
43 16 48 106 36 38 -5 106 -12 152 -16 78 -7 82 -6 82 13 0 32 -48 41 -232 43
-112 2 -114 2 -102 46 6 22 10 23 148 23 139 0 175 7 162 29 -5 7 -58 11 -157
11 l-149 0 0 39 c0 51 11 55 154 46 120 -8 156 -3 156 21 0 11 -21 14 -102 15
-204 3 -203 2 -202 22 0 9 1 28 2 42 l2 26 158 -1 c86 -1 163 -1 170 0 23 0
12 30 -14 36 -15 4 -90 4 -167 0 -127 -6 -139 -5 -133 9 3 9 6 26 6 38 0 22 2
22 157 19 147 -2 199 5 180 25 -9 9 -36 10 -210 13 l-128 2 3 37 3 36 135 -3
c146 -3 203 3 197 21 -3 11 -31 14 -212 22 l-110 4 0 28 c0 28 1 28 75 35 41
3 118 7 170 8 101 2 123 7 114 22 -4 5 -74 7 -180 4 l-174 -5 0 44 0 44 133
-3 c73 -2 162 -1 197 3 55 5 65 9 65 25 0 17 -12 19 -158 22 -145 4 -161 2
-199 -17 l-41 -21 7 32 c3 18 6 43 6 56 0 21 2 22 31 12 43 -15 700 0 717 16
2 3 41 3 86 1 44 -2 92 -4 106 -4z m-706 -1038 c20 -13 -23 -19 -159 -22 -80
-1 -145 1 -145 6 0 30 26 35 160 28 74 -4 139 -9 144 -12z"/>
<path d="M1112 836 c-35 -7 -70 -20 -78 -28 -13 -13 -4 -14 83 -13 54 1 134
-2 178 -7 93 -10 128 -5 123 19 -6 33 -200 51 -306 29z"/>
<path d="M1180 729 c-80 -4 -146 -7 -147 -8 -2 0 -3 -7 -3 -15 0 -10 32 -14
148 -16 81 -1 163 -3 182 -4 24 -1 35 4 38 14 5 27 -63 35 -218 29z"/>
<path d="M1088 610 c-50 -9 -68 -16 -68 -29 0 -4 53 -8 118 -9 64 -1 144 -6
177 -11 69 -10 75 -8 75 23 0 21 -6 24 -67 29 -85 8 -174 7 -235 -3z"/>
<path d="M1071 500 c-19 -3 -36 -11 -39 -17 -4 -13 20 -15 248 -18 101 -1 129
7 108 32 -9 11 -39 14 -147 11 -75 -1 -151 -5 -170 -8z"/>
</g>
</svg>
