<?xml version="1.0" standalone="no"?>
<!DOCTYPE svg PUBLIC "-//W3C//DTD SVG 20010904//EN"
 "http://www.w3.org/TR/2001/REC-SVG-20010904/DTD/svg10.dtd">
<svg version="1.0" xmlns="http://www.w3.org/2000/svg"
 width="168.000000pt" height="134.000000pt" viewBox="0 0 168.000000 134.000000"
 preserveAspectRatio="xMidYMid meet">
<metadata>
Created by potrace 1.16, written by Peter Selinger 2001-2019
</metadata>
<g transform="translate(0.000000,134.000000) scale(0.100000,-0.100000)"
fill="#000000" stroke="none">
<path d="M543 1147 c-6 -6 -13 -19 -16 -29 -4 -12 -25 -18 -92 -23 -47 -4
-109 -4 -136 -1 -56 8 -79 -3 -79 -36 0 -11 9 -22 20 -25 17 -4 20 -14 20 -57
0 -28 5 -91 11 -141 12 -104 13 -288 3 -495 -11 -199 -11 -223 2 -227 9 -3 38
16 148 100 68 52 104 65 150 55 23 -5 82 -7 131 -4 50 3 142 8 205 11 63 4
140 8 170 10 30 1 79 -2 109 -7 37 -7 57 -6 64 1 6 6 19 11 29 11 14 0 18 8
18 40 0 30 -4 40 -16 40 -12 0 -14 7 -10 27 12 55 17 110 20 207 2 80 5 100
19 108 24 13 22 54 -3 61 -36 9 -26 62 22 121 24 28 46 53 50 56 19 14 78 107
78 122 0 17 -33 34 -48 24 -4 -2 -107 -10 -227 -16 -192 -9 -231 -8 -305 6
-47 9 -105 19 -130 23 -25 4 -60 15 -78 25 -43 22 -117 30 -129 13z m132 -82
c48 -14 56 -19 40 -25 -29 -12 -126 -40 -135 -40 -5 0 -9 28 -9 61 l0 62 22
-21 c12 -11 49 -28 82 -37z m702 -23 c9 -6 1 -25 -30 -70 -23 -34 -45 -62 -48
-62 -3 0 -6 12 -6 28 1 15 -3 44 -7 64 -8 36 -7 37 26 41 18 2 38 4 43 5 6 1
16 -2 22 -6z m-952 -57 c-19 -30 -35 -58 -35 -62 0 -16 -51 -83 -59 -78 -5 2
-9 26 -10 52 -2 27 -3 66 -4 88 l-2 40 70 6 c39 3 71 6 72 7 2 1 -13 -23 -32
-53z m815 -80 l0 -135 -25 0 c-28 0 -28 0 -15 89 5 36 6 69 3 74 -12 20 -33
-28 -33 -77 0 -72 -9 -96 -33 -96 -19 0 -20 4 -14 83 4 45 9 92 13 105 5 16 2
22 -10 22 -9 0 -16 -1 -17 -2 -1 -2 -6 -50 -13 -108 l-11 -105 -33 -3 c-30 -3
-32 -1 -28 20 3 13 8 52 11 88 3 36 8 80 12 98 4 24 2 32 -10 32 -20 0 -27
-21 -27 -79 0 -27 -3 -76 -6 -110 l-7 -61 -43 0 c-23 0 -44 5 -46 11 -2 7 -13
5 -32 -5 -55 -28 -60 -17 -53 125 5 121 0 157 -20 127 -4 -7 -10 -69 -13 -137
l-5 -124 -33 -2 -32 -3 1 125 c0 69 -1 126 -3 129 -3 2 -16 -2 -31 -9 -26 -12
-26 -14 -29 -122 -3 -103 -4 -110 -24 -113 -28 -4 -33 16 -24 113 4 44 5 90 3
102 -3 19 4 24 39 33 24 7 61 17 83 23 38 12 106 14 245 9 53 -2 131 3 248 17
9 1 12 -32 12 -134z m-714 98 c-17 -68 -11 -77 37 -58 19 8 19 2 8 -193 -1 -8
-11 -12 -28 -10 -30 3 -41 31 -46 110 -4 73 -22 43 -19 -32 1 -39 0 -70 -2
-70 -3 0 -16 4 -30 10 -25 9 -26 11 -20 82 5 62 11 80 45 130 43 63 66 76 55
31z m-133 -201 c-6 -45 -28 -57 -53 -27 -11 14 -8 20 21 44 19 16 35 28 36 27
1 -1 -1 -20 -4 -44z m-13 -102 c-5 -10 -16 -20 -25 -24 -11 -4 -15 2 -15 23 0
25 3 28 25 23 20 -3 23 -8 15 -22z m858 -38 c3 -56 1 -62 -16 -62 -24 0 -32
18 -32 74 0 47 6 58 30 54 11 -2 16 -19 18 -66z m-146 -11 c-4 -60 -4 -61 -33
-61 -16 0 -29 6 -30 13 0 6 -2 33 -4 59 -4 46 -4 47 28 50 18 2 34 3 37 2 3
-1 3 -29 2 -63z m72 37 c9 -47 -3 -100 -23 -96 -12 2 -17 17 -19 66 -3 56 -1
62 16 62 14 0 21 -9 26 -32z m-593 -8 c5 -94 5 -95 -26 -92 -38 4 -44 15 -37
66 5 45 11 52 42 52 14 0 20 -7 21 -26z m94 20 c3 -5 3 -37 -1 -70 -6 -56 -8
-60 -28 -54 -28 9 -26 4 -31 73 l-4 61 29 0 c16 0 32 -4 35 -10z m335 -50 c0
-52 -2 -60 -19 -60 -10 0 -33 -3 -51 -6 -31 -7 -32 -6 -28 27 2 26 -1 33 -13
31 -12 -1 -15 5 -11 27 5 33 15 38 80 40 l42 1 0 -60z m-522 -7 c-3 -58 -3
-58 -37 -61 -31 -3 -33 -2 -27 20 3 13 6 36 6 51 0 19 7 30 23 37 36 15 38 12
35 -47z m304 -3 c-3 -42 -8 -60 -17 -60 -7 0 -20 -3 -28 -6 -11 -4 -15 1 -13
20 0 14 4 26 8 26 4 0 13 18 19 40 18 61 35 50 31 -20z m68 0 c0 -53 -2 -60
-20 -60 -18 0 -20 7 -20 60 0 53 2 60 20 60 18 0 20 -7 20 -60z m-462 -6 c-2
-16 -11 -30 -23 -34 -17 -6 -21 -3 -23 16 -1 13 6 28 16 33 27 16 34 13 30
-15z m380 -171 c-2 -62 1 -88 10 -90 6 -3 12 -18 12 -34 0 -26 -3 -29 -32 -29
-53 0 -60 11 -63 86 -5 105 5 147 35 154 14 4 28 5 33 3 4 -2 6 -43 5 -90z
m226 37 c-1 -76 -15 -174 -27 -181 -18 -12 -61 7 -67 30 -8 34 -25 30 -28 -6
-2 -25 -8 -33 -23 -33 -10 0 -20 6 -20 13 -1 6 -3 35 -5 62 -1 28 -5 76 -8
108 -4 50 -3 57 13 57 20 0 31 -26 31 -72 0 -15 5 -30 12 -34 8 -5 9 2 5 26
-6 28 -5 31 8 20 13 -11 15 -7 15 29 l0 42 48 -3 47 -3 -1 -55z m175 18 c0
-55 -14 -176 -19 -182 -3 -2 -13 -6 -24 -8 -17 -3 -18 5 -17 107 2 112 7 125
44 125 14 0 17 -8 16 -42z m74 18 c4 -6 5 -29 1 -51 -3 -22 -8 -51 -9 -65 -10
-71 -17 -90 -33 -90 -14 0 -17 9 -16 43 1 23 2 75 3 115 1 71 2 73 24 66 12
-4 26 -12 30 -18z m-863 -1 c0 -8 -13 -21 -28 -29 -26 -13 -29 -13 -29 2 -2
31 6 42 32 42 15 0 25 -6 25 -15z m201 -52 c0 -38 2 -89 5 -115 l4 -47 -40 1
c-48 0 -59 15 -54 73 1 22 3 66 3 98 l1 57 40 0 40 0 1 -67z m81 35 c1 -18 1
-42 -1 -53 -1 -11 -2 -53 -1 -92 1 -54 -3 -73 -12 -73 -31 1 -36 18 -43 133
l-7 117 31 0 c28 0 31 -3 33 -32z m422 -75 c-8 -120 -21 -145 -58 -107 -13 12
-15 31 -10 92 8 118 10 122 45 122 l30 0 -7 -107z m-606 -3 c-1 -104 -2 -105
-46 -94 -22 6 -23 10 -20 88 3 74 5 81 28 93 14 7 28 13 32 13 4 0 7 -45 6
-100z m-101 -42 c-8 -26 -10 -27 -33 -12 -34 23 -32 64 4 86 l27 17 5 -32 c3
-18 2 -44 -3 -59z m883 -68 c0 -5 -5 -10 -11 -10 -5 0 -7 5 -4 10 3 6 8 10 11
10 2 0 4 -4 4 -10z m-912 -6 c12 -4 22 -14 22 -25 0 -25 21 -35 34 -17 9 12
16 12 39 3 l28 -12 -41 -27 c-57 -37 -109 -66 -120 -66 -11 0 -13 56 -4 113 7
40 7 40 42 31z"/>
<path d="M892 936 c-11 -37 -9 -152 1 -163 13 -12 17 3 22 75 2 40 7 83 11 97
10 41 -23 32 -34 -9z"/>
<path d="M863 411 c-7 -12 -13 -29 -13 -38 0 -16 1 -16 16 -1 9 8 14 25 12 37
-3 22 -3 22 -15 2z"/>
</g>
</svg>
