<?xml version="1.0" standalone="no"?>
<!DOCTYPE svg PUBLIC "-//W3C//DTD SVG 20010904//EN"
 "http://www.w3.org/TR/2001/REC-SVG-20010904/DTD/svg10.dtd">
<svg version="1.0" xmlns="http://www.w3.org/2000/svg"
 width="238.000000pt" height="134.000000pt" viewBox="0 0 238.000000 134.000000"
 preserveAspectRatio="xMidYMid meet">
<metadata>
Created by potrace 1.16, written by Peter Selinger 2001-2019
</metadata>
<g transform="translate(0.000000,134.000000) scale(0.100000,-0.100000)"
fill="#000000" stroke="none">
<path d="M1768 1182 c-31 -26 -94 -76 -139 -112 -45 -36 -112 -95 -150 -131
-37 -36 -93 -83 -123 -103 -31 -20 -76 -54 -101 -76 -24 -21 -82 -60 -129 -87
-47 -26 -86 -50 -86 -53 0 -3 23 -18 51 -33 28 -16 50 -30 48 -32 -6 -5 -259
-29 -309 -29 -25 0 -85 3 -135 7 -49 4 -146 10 -214 12 -68 3 -126 7 -129 10
-3 2 -1 76 4 163 l9 158 44 75 c24 40 70 102 103 135 33 34 58 66 54 72 -3 6
-25 4 -56 -4 -32 -8 -59 -10 -73 -5 -13 5 -53 12 -89 16 -75 8 -88 -1 -61 -42
16 -25 18 -54 17 -300 0 -150 -3 -276 -7 -279 -3 -3 -23 -2 -44 3 -26 6 -38
14 -37 26 2 18 -5 21 -29 11 -13 -5 -15 -31 -10 -177 3 -95 9 -176 14 -181 5
-6 36 16 77 55 122 114 169 147 283 194 55 24 76 26 227 30 92 2 181 6 197 9
17 2 56 7 87 10 65 7 70 -5 17 -39 -17 -11 -34 -27 -39 -35 -7 -13 -3 -15 24
-12 22 3 53 -5 88 -22 30 -14 66 -26 79 -26 14 0 29 -4 35 -9 5 -4 32 -14 59
-21 28 -8 79 -32 115 -55 36 -23 83 -46 105 -53 35 -9 142 -48 185 -66 17 -7
50 39 50 68 0 22 57 128 86 159 13 15 56 48 96 74 88 60 111 76 187 137 34 26
74 51 89 55 46 13 26 53 -43 87 -16 8 -57 35 -90 59 -33 25 -73 52 -90 61 -16
9 -32 20 -35 24 -3 3 -24 17 -48 31 -29 15 -49 35 -58 58 -18 43 -18 57 1 41
26 -22 29 -3 6 49 -11 27 -21 63 -21 80 0 38 -9 61 -24 60 -6 0 -37 -21 -68
-47z m77 -83 c3 -10 2 -20 -4 -24 -6 -3 -11 -17 -11 -30 0 -24 0 -24 -57 11
-31 19 -64 34 -72 34 -17 0 14 32 79 82 l35 27 11 -42 c7 -23 15 -49 19 -58z
m-1335 23 c0 -4 -26 -38 -57 -74 -32 -37 -65 -77 -74 -90 -16 -22 -16 -20 -23
47 -4 39 -10 81 -13 93 -6 23 -5 24 58 19 35 -2 73 -1 84 4 11 4 21 8 23 8 1
1 2 -3 2 -7z m1208 -67 c1 -1 -4 -20 -12 -42 -8 -22 -21 -118 -30 -214 -9 -96
-22 -210 -27 -254 -6 -44 -13 -116 -16 -160 -5 -76 -14 -105 -34 -105 -5 0 -9
6 -9 14 0 8 -6 16 -13 19 -10 4 -9 39 4 183 30 305 39 387 50 442 11 53 7 75
-10 56 -4 -5 -13 -40 -20 -79 -17 -95 -60 -481 -62 -555 -2 -62 -7 -67 -39
-50 -16 8 -18 15 -10 35 9 24 6 29 -14 26 -8 -2 -3 103 8 159 6 28 55 327 57
350 4 28 -1 50 -10 50 -5 0 -12 -33 -16 -72 -4 -40 -13 -104 -21 -141 -8 -38
-11 -74 -8 -79 4 -6 2 -8 -3 -5 -11 7 -43 -172 -43 -242 0 -23 -2 -41 -5 -41
-2 0 -29 11 -58 24 l-54 24 -6 62 c-4 34 -5 65 -3 69 2 3 10 54 16 111 13 114
27 155 67 191 l25 24 -5 -30 c-4 -16 -18 -97 -32 -180 -14 -82 -30 -165 -35
-184 -11 -40 -6 -51 22 -51 13 0 18 5 15 14 -12 30 47 344 78 419 4 9 3 17 -2
17 -6 0 -17 -24 -26 -52 -9 -29 -14 -39 -11 -23 15 85 25 99 135 198 100 88
112 96 132 86 12 -7 23 -13 25 -14z m59 -38 c22 -16 29 -27 23 -37 -5 -8 -13
-50 -20 -94 -6 -45 -22 -162 -36 -261 -14 -99 -24 -196 -22 -217 2 -40 -12
-63 -44 -71 -20 -6 -20 -3 -14 76 3 45 8 93 10 107 3 14 7 70 10 125 11 200
38 395 55 395 4 0 21 -10 38 -23z m73 -73 c8 -19 15 -24 30 -19 18 6 45 -8 95
-47 6 -5 44 -30 85 -56 41 -27 81 -56 89 -65 7 -9 18 -17 23 -17 5 0 20 -8 33
-18 l22 -18 -36 -26 c-20 -15 -76 -57 -126 -93 -49 -37 -103 -74 -120 -82 -16
-9 -41 -24 -54 -34 -26 -21 -46 -25 -36 -8 4 5 11 83 15 172 5 89 14 184 20
211 12 52 11 59 -7 48 -15 -10 -29 -139 -37 -356 -3 -68 -8 -101 -17 -108 -24
-15 -68 -38 -75 -38 -9 0 0 95 30 302 15 98 25 181 24 185 -5 18 13 93 22 93
6 0 15 -12 20 -26z m-560 -231 c-22 -37 -43 -78 -47 -91 -3 -12 -17 -29 -32
-36 -24 -11 -30 -10 -72 19 l-47 32 72 38 c39 21 91 56 115 77 24 21 46 36 48
34 3 -2 -14 -35 -37 -73z m18 -100 c-6 -35 -15 -60 -19 -57 -5 3 -9 14 -9 24
0 20 30 103 35 98 2 -2 -2 -31 -7 -65z m-112 -93 c18 -7 30 -7 40 0 17 15 39
-23 39 -67 0 -40 -12 -41 -87 -13 -44 16 -70 23 -108 29 -4 1 81 61 87 61 1 0
14 -5 29 -10z m-788 -11 c86 2 142 -1 142 -7 0 -5 -19 -17 -42 -27 -63 -25
-197 -118 -264 -182 -7 -7 -16 -13 -21 -13 -5 0 -8 54 -8 120 l0 121 25 -7
c14 -4 89 -6 168 -5z m1402 -119 c-24 -19 -40 -25 -40 -15 0 5 51 34 60 34 3
0 -6 -8 -20 -19z m-24 -64 c-14 -25 -26 -52 -26 -61 0 -9 -5 -25 -10 -36 -10
-19 -13 -18 -55 17 -25 20 -45 40 -45 44 0 8 52 34 63 32 5 -2 20 6 35 16 23
16 45 28 60 31 2 1 -8 -19 -22 -43z"/>
<path d="M1986 831 c-23 -36 -43 -220 -30 -268 11 -40 24 -13 25 50 0 34 4 98
9 142 8 81 7 95 -4 76z"/>
<path d="M2050 732 c0 -61 10 -112 21 -112 16 0 11 136 -6 150 -13 11 -15 6
-15 -38z"/>
</g>
</svg>
