<?xml version="1.0" standalone="no"?>
<!DOCTYPE svg PUBLIC "-//W3C//DTD SVG 20010904//EN"
 "http://www.w3.org/TR/2001/REC-SVG-20010904/DTD/svg10.dtd">
<svg version="1.0" xmlns="http://www.w3.org/2000/svg"
 width="105.000000pt" height="79.000000pt" viewBox="0 0 105.000000 79.000000"
 preserveAspectRatio="xMidYMid meet">
<metadata>
Created by potrace 1.16, written by Peter Selinger 2001-2019
</metadata>
<g transform="translate(0.000000,79.000000) scale(0.100000,-0.100000)"
fill="#000000" stroke="none">
<path d="M212 669 c-34 -13 -26 -28 19 -35 55 -9 62 -30 55 -179 -3 -66 -5
-121 -5 -122 -2 -5 -101 6 -111 12 -20 13 -30 -17 -30 -90 0 -82 20 -159 43
-163 8 -2 46 22 84 52 37 31 73 56 79 56 7 0 42 15 79 34 l67 34 228 -6 c171
-4 229 -2 235 7 4 7 4 15 1 18 -3 3 -68 7 -143 9 -76 2 -165 6 -198 9 -33 3
-104 7 -157 9 -55 2 -104 9 -112 15 -20 17 -10 139 14 166 10 11 21 30 25 43
3 13 26 42 50 65 26 24 41 47 37 53 -9 14 -228 25 -260 13z m167 -84 c-18 -25
-35 -45 -39 -45 -8 0 -12 68 -5 80 4 6 22 10 41 10 l35 0 -32 -45z m-35 -314
c62 -3 62 -12 3 -36 -31 -12 -74 -37 -96 -54 l-41 -33 -9 25 c-8 20 -15 95
-12 119 1 3 27 1 59 -6 31 -7 75 -14 96 -15z"/>
</g>
</svg>
