<?xml version="1.0" standalone="no"?>
<!DOCTYPE svg PUBLIC "-//W3C//DTD SVG 20010904//EN"
 "http://www.w3.org/TR/2001/REC-SVG-20010904/DTD/svg10.dtd">
<svg version="1.0" xmlns="http://www.w3.org/2000/svg"
 width="150.000000pt" height="158.000000pt" viewBox="0 0 150.000000 158.000000"
 preserveAspectRatio="xMidYMid meet">
<metadata>
Created by potrace 1.16, written by Peter Selinger 2001-2019
</metadata>
<g transform="translate(0.000000,158.000000) scale(0.100000,-0.100000)"
fill="#000000" stroke="none">
<path d="M676 1511 c-2 -3 -4 -48 -5 -99 -1 -51 -2 -98 -4 -105 -6 -31 -280
-21 -305 11 -24 31 -42 -11 -42 -100 0 -74 -1 -78 -22 -79 -13 -1 -27 -2 -33
-4 -5 -1 -18 -3 -28 -3 -16 -2 -17 -10 -13 -69 23 -287 22 -259 12 -448 -4
-77 -8 -177 -9 -223 -2 -78 -1 -83 20 -88 26 -7 43 2 43 22 0 8 8 14 18 14 9
0 44 12 77 25 33 14 78 28 101 31 l40 6 -7 -88 c-15 -174 -15 -244 -2 -244 18
0 26 18 27 69 1 49 11 67 86 166 57 74 84 115 77 115 -4 0 -40 -45 -82 -100
-42 -55 -77 -100 -79 -100 -6 0 6 175 13 182 3 3 28 9 55 13 27 3 54 8 58 11
5 3 20 3 33 0 20 -5 24 -11 20 -34 -3 -15 -7 -65 -9 -112 -3 -47 -7 -95 -10
-108 -9 -39 -10 -107 -2 -120 4 -7 13 -12 20 -12 9 0 15 26 19 90 5 60 12 96
23 107 8 10 43 54 77 98 33 44 68 85 76 92 9 7 48 13 91 13 41 0 81 4 88 9 18
11 62 1 62 -14 0 -19 20 -23 55 -13 16 4 49 8 73 8 26 0 41 4 37 10 -3 5 -26
10 -51 10 -24 0 -44 4 -44 9 0 5 -10 11 -22 13 -20 3 -23 8 -20 38 3 31 23
115 38 162 3 12 0 18 -10 18 -20 0 -20 4 1 62 13 38 22 48 45 53 32 7 38 25 8
25 -15 0 -20 7 -20 29 0 17 4 32 9 35 5 4 12 25 16 49 11 64 100 245 145 292
13 14 21 27 18 30 -2 3 -42 1 -89 -4 -52 -5 -91 -4 -103 2 -10 5 -77 9 -147 8
-71 0 -129 3 -129 7 0 17 92 188 110 204 11 10 20 23 20 27 0 13 -184 1 -192
-12 -4 -7 -8 -44 -8 -83 0 -39 -3 -86 -6 -103 -6 -31 -7 -31 -70 -31 l-63 0
25 63 c13 34 38 81 54 105 17 23 30 48 30 55 0 8 -28 12 -95 13 -53 1 -97 -2
-99 -5z m95 -37 l36 -6 -25 -61 c-13 -33 -25 -66 -26 -71 -5 -29 -27 -54 -43
-50 -16 5 -18 19 -20 106 -1 98 -1 100 20 94 12 -3 38 -9 58 -12z m259 -7 c0
-7 -10 -28 -23 -47 -12 -19 -33 -59 -47 -87 -14 -29 -29 -53 -33 -53 -5 0 -6
26 -3 58 3 31 5 76 5 100 l1 42 50 0 c34 0 50 -4 50 -13z m-506 -208 c126 -1
136 -2 136 -20 0 -13 -12 -21 -42 -30 -24 -6 -77 -22 -118 -35 -42 -13 -88
-24 -103 -24 -26 0 -27 1 -27 61 0 35 4 58 9 54 6 -3 71 -6 145 -6z m194 -11
c-6 -18 -28 -21 -28 -4 0 9 7 16 16 16 9 0 14 -5 12 -12z m162 -3 c0 -8 -8
-16 -17 -16 -17 -1 -17 -2 0 -6 18 -5 18 -15 5 -163 -7 -86 22 -73 38 16 13
74 48 163 67 169 32 9 248 15 243 6 -4 -5 -2 -12 4 -16 15 -9 12 -152 -5 -280
-8 -60 -15 -112 -15 -113 0 -2 -26 -1 -57 2 -32 4 -92 9 -133 11 -302 16 -497
44 -536 76 -23 19 -37 -1 -17 -23 39 -45 78 -53 298 -64 128 -6 129 -7 86 -20
-24 -7 -65 -15 -90 -18 -64 -7 -131 -23 -224 -52 -43 -14 -81 -24 -84 -21 -3
3 -6 45 -8 94 -2 48 -4 92 -4 98 -1 5 -9 1 -18 -8 -15 -15 -18 -34 -15 -130 2
-61 5 -113 7 -115 2 -2 28 7 57 21 29 13 70 32 90 41 38 17 116 35 183 41 22
2 74 9 115 15 87 14 196 13 221 -1 10 -5 41 -9 69 -9 47 0 50 -1 45 -22 -27
-126 -35 -182 -25 -192 12 -12 13 -56 2 -72 -12 -19 -364 -23 -687 -10 -230
10 -209 -2 -202 114 7 104 34 216 72 297 13 28 31 70 41 94 10 24 23 49 29 55
6 6 25 31 43 55 28 39 42 48 114 73 46 15 85 28 87 28 6 0 -6 -143 -14 -169
-7 -19 -5 -22 11 -19 21 4 32 35 33 96 1 23 5 42 11 42 5 0 16 16 24 35 14 33
17 35 65 35 68 0 66 20 -1 21 l-53 2 40 7 c72 13 105 11 105 -5z m504 -23
c-42 -48 -84 -105 -85 -115 -2 -31 -9 -50 -26 -69 -10 -11 -17 -28 -15 -37 1
-9 -4 -34 -13 -56 l-15 -40 5 65 c2 36 7 110 11 165 l7 100 72 2 c67 1 72 0
59 -15z m-675 -19 c0 -5 -4 -17 -9 -28 -8 -18 -9 -17 -9 8 -1 15 4 27 9 27 6
0 10 -3 9 -7z m-389 -107 c0 -8 7 -22 16 -31 16 -15 19 -14 52 17 37 35 35 28
-8 -37 -31 -46 -74 -136 -86 -180 -6 -22 -10 0 -15 87 -4 64 -13 126 -19 137
-10 19 -8 21 25 21 24 0 35 -5 35 -14z m135 -687 c-82 -21 -158 -39 -167 -39
-14 0 -18 8 -18 38 0 21 2 41 4 43 2 2 78 2 168 0 l163 -3 -150 -39z m435 26
c0 -6 -44 -67 -89 -123 -38 -46 -49 -42 -45 16 2 20 3 51 3 68 1 31 2 31 53
33 28 0 53 3 56 6 7 6 22 7 22 0z"/>
</g>
</svg>
