<?xml version="1.0" standalone="no"?>
<!DOCTYPE svg PUBLIC "-//W3C//DTD SVG 20010904//EN"
 "http://www.w3.org/TR/2001/REC-SVG-20010904/DTD/svg10.dtd">
<svg version="1.0" xmlns="http://www.w3.org/2000/svg"
 width="254.000000pt" height="118.000000pt" viewBox="0 0 254.000000 118.000000"
 preserveAspectRatio="xMidYMid meet">
<metadata>
Created by potrace 1.16, written by Peter Selinger 2001-2019
</metadata>
<g transform="translate(0.000000,118.000000) scale(0.100000,-0.100000)"
fill="#000000" stroke="none">
<path d="M189 1044 c-26 -31 -18 -198 21 -449 18 -118 22 -162 22 -282 0 -108
2 -124 21 -143 17 -19 27 -21 71 -17 28 3 121 12 206 20 85 9 243 18 350 21
107 3 249 10 315 15 66 5 185 12 265 16 80 3 186 10 235 14 50 5 117 7 150 6
33 -2 87 1 120 6 33 5 104 10 158 10 85 1 98 3 95 18 -2 11 -18 18 -48 23
-136 20 -183 29 -265 53 -49 14 -111 26 -136 28 -26 1 -45 5 -42 10 2 4 -9 7
-25 7 -16 0 -48 6 -70 14 -23 8 -81 22 -129 31 -77 15 -177 37 -223 50 -8 3
-64 18 -125 34 -60 16 -128 35 -150 42 l-40 12 30 8 c17 4 68 17 115 27 47 11
112 27 145 35 33 9 98 23 145 32 47 9 171 41 275 72 105 30 226 65 270 78 44
13 127 37 185 54 58 17 117 31 132 31 18 0 28 5 28 14 0 8 10 16 23 18 12 2
22 9 22 17 0 10 -22 19 -70 28 -93 17 -112 17 -307 9 -122 -6 -182 -4 -225 5
-38 8 -134 13 -278 12 -677 -2 -873 -2 -897 1 -15 2 -60 0 -100 -6 -72 -9
-113 -3 -234 37 -13 4 -25 1 -35 -11z m141 -73 c30 -5 70 -6 88 -4 28 5 31 3
25 -13 -3 -11 -35 -55 -69 -98 -35 -44 -70 -100 -79 -125 -40 -113 -41 -113
-49 -31 -3 41 -13 106 -21 145 -8 38 -15 87 -15 109 0 38 0 38 33 32 17 -4 57
-11 87 -15z m1246 7 c4 -5 -24 -8 -62 -8 -38 0 -105 -4 -149 -9 -44 -6 -161
-12 -260 -16 -158 -5 -273 -14 -565 -44 -41 -5 -77 -7 -79 -5 -8 7 51 83 67
86 36 7 1041 2 1048 -4z m608 -14 l50 -7 -85 -28 c-100 -32 -216 -66 -399
-114 -74 -20 -151 -43 -170 -50 -19 -8 -107 -28 -195 -45 -88 -16 -227 -48
-310 -70 -82 -22 -154 -40 -159 -40 -14 0 3 97 23 133 10 17 24 48 30 67 7 19
26 51 44 71 l32 36 150 7 c83 3 159 8 170 10 43 7 195 17 300 21 168 5 349 17
355 22 5 5 79 -1 164 -13z m-1184 -51 c0 -2 -10 -19 -23 -38 -13 -19 -43 -81
-67 -139 -24 -58 -46 -104 -47 -102 -2 2 -7 49 -10 105 -4 69 -2 105 6 114 6
8 9 21 5 30 -4 12 5 17 43 22 26 4 53 8 58 9 15 4 35 3 35 -1z m-177 -29 c-3
-9 0 -20 8 -25 8 -5 9 -9 4 -9 -7 0 -10 -47 -7 -139 l4 -139 -44 -7 c-23 -3
-88 -7 -143 -8 -92 -2 -100 0 -103 18 -3 10 5 37 17 60 30 59 91 204 91 218 0
7 -5 6 -14 -3 -18 -19 -76 -153 -76 -176 0 -43 -11 0 -16 62 -8 99 -10 108
-20 111 -5 2 -9 -59 -9 -142 0 -119 -3 -147 -15 -155 -21 -14 -137 -12 -177 2
-31 11 -33 14 -27 48 16 94 38 151 78 198 38 47 45 50 101 57 33 4 69 9 80 12
11 2 61 8 110 14 50 5 95 11 100 13 6 3 22 5 37 5 21 1 26 -3 21 -15z m123
-339 c27 -8 74 -21 104 -29 30 -8 111 -30 180 -49 69 -19 148 -38 175 -42 28
-3 95 -18 150 -32 55 -14 127 -29 160 -34 93 -14 245 -51 245 -61 0 -4 -6 -8
-12 -8 -7 0 -47 -5 -88 -10 -41 -6 -115 -13 -165 -16 -49 -3 -106 -7 -125 -9
-166 -15 -545 -25 -715 -18 -110 4 -221 8 -247 8 -25 0 -44 3 -41 8 2 4 -11 6
-29 6 -18 -1 -78 2 -133 6 -55 5 -108 8 -117 9 -13 0 -18 9 -20 31 -2 55 4 90
18 106 20 23 151 86 193 93 l34 6 -6 -79 c-6 -81 0 -151 13 -151 7 0 24 151
25 210 0 18 51 28 145 29 36 1 80 5 98 10 l32 10 1 -112 c1 -62 3 -119 4 -127
1 -8 3 -21 4 -27 0 -7 5 -13 10 -13 5 0 9 59 10 132 1 107 4 135 18 150 19 22
17 22 79 3z m-624 -72 c-20 -12 -40 -23 -43 -23 -5 0 -5 61 0 66 1 1 19 -4 40
-9 l40 -11 -37 -23z m228 -248 c58 -4 150 -6 205 -5 162 2 104 -8 -80 -14 -94
-3 -216 -9 -273 -12 -75 -5 -106 -3 -117 6 -45 37 -3 41 265 25z"/>
</g>
</svg>
