<?xml version="1.0" standalone="no"?>
<!DOCTYPE svg PUBLIC "-//W3C//DTD SVG 20010904//EN"
 "http://www.w3.org/TR/2001/REC-SVG-20010904/DTD/svg10.dtd">
<svg version="1.0" xmlns="http://www.w3.org/2000/svg"
 width="252.000000pt" height="142.000000pt" viewBox="0 0 252.000000 142.000000"
 preserveAspectRatio="xMidYMid meet">
<metadata>
Created by potrace 1.16, written by Peter Selinger 2001-2019
</metadata>
<g transform="translate(0.000000,142.000000) scale(0.100000,-0.100000)"
fill="#000000" stroke="none">
<path d="M1200 1295 c-6 -14 -10 -38 -10 -52 l0 -26 -99 6 c-55 2 -102 3 -105
0 -3 -3 4 -17 14 -32 14 -19 20 -45 21 -99 1 -40 0 -74 -3 -77 -8 -9 -252 -10
-338 -2 -112 11 -205 35 -297 77 -76 35 -94 22 -92 -66 0 -33 1 -99 0 -149 0
-49 4 -94 9 -99 5 -5 46 19 102 61 51 39 118 85 148 104 53 32 58 33 140 30
47 -2 101 -3 120 -2 19 0 46 1 59 1 13 0 51 4 85 10 33 5 64 6 68 2 10 -10 10
-337 0 -382 l-8 -35 -109 -12 c-198 -22 -239 -24 -363 -14 -84 6 -130 14 -147
25 -25 17 -26 17 -42 -21 -13 -29 -16 -65 -15 -153 1 -63 -3 -142 -8 -175 -5
-33 -11 -78 -14 -99 -5 -46 10 -94 25 -79 5 5 6 19 2 31 -5 12 -7 40 -5 62 3
32 10 44 31 54 14 8 35 24 46 37 17 20 14 19 -18 -5 -21 -15 -41 -26 -44 -23
-3 3 1 44 8 90 l13 85 95 59 c53 33 95 65 94 71 -2 7 10 12 30 12 76 1 248 12
315 21 40 5 79 9 85 9 9 0 12 -31 12 -104 l0 -104 -105 1 c-58 0 -140 -3 -182
-8 -43 -4 -78 -4 -78 -1 0 11 49 76 89 118 19 21 32 40 29 43 -3 4 -25 1 -49
-5 -24 -7 -64 -9 -90 -6 -35 5 -49 3 -59 -9 -7 -8 -10 -15 -6 -16 3 0 35 -1
71 -1 36 -1 65 -3 65 -5 0 -8 -72 -113 -81 -119 -5 -3 -9 22 -9 55 0 95 -21
76 -32 -29 -3 -24 -6 -25 -98 -30 -100 -5 -108 -13 -25 -25 l50 -7 -28 -15
c-16 -8 -27 -17 -24 -20 3 -2 19 3 36 11 16 9 41 16 54 16 22 0 25 -7 38 -75
18 -98 35 -97 31 0 l-3 75 73 1 c40 0 82 3 93 6 11 3 68 6 128 6 92 2 106 0
101 -13 -13 -30 -44 -186 -44 -221 0 -46 20 -56 50 -24 11 12 63 43 113 68
190 94 195 95 308 102 58 3 117 8 130 10 75 15 297 46 379 52 l95 8 15 -45 c8
-25 20 -44 25 -42 6 1 10 27 10 58 0 30 5 58 11 62 19 12 24 148 14 346 -5
104 -6 194 -1 200 4 6 13 29 19 51 24 94 86 202 165 290 20 22 37 43 37 47 0
3 -24 0 -53 -8 -32 -8 -95 -13 -158 -12 -57 1 -167 1 -243 0 -84 -2 -180 3
-240 12 -56 9 -130 17 -166 19 -75 5 -173 30 -178 46 -5 14 -32 14 -32 0 0
-28 23 -49 61 -55 54 -9 57 -20 10 -43 -22 -12 -42 -25 -46 -31 -3 -5 -13 -10
-20 -10 -11 0 -12 6 -5 26 13 34 13 34 -9 34 -17 0 -19 6 -15 44 5 51 -11 70
-26 31z m756 -90 l312 0 -27 -35 c-32 -41 -103 -153 -123 -194 l-15 -29 -5 54
c-3 30 -4 84 -3 122 1 44 -2 66 -9 64 -6 -2 -12 -21 -13 -43 -2 -21 -8 -97
-14 -169 -5 -71 -10 -164 -9 -205 1 -129 9 -296 15 -354 5 -39 3 -56 -5 -56
-6 0 -16 -14 -22 -30 -8 -26 -15 -30 -42 -30 -51 2 -126 -7 -366 -45 -89 -13
-146 -15 -447 -16 -72 0 -125 -4 -129 -10 -3 -6 -4 -12 -3 -14 2 -2 47 -6 99
-10 52 -3 96 -7 97 -9 1 -1 -37 -18 -85 -37 -48 -20 -105 -44 -126 -53 l-39
-18 6 56 c3 30 13 71 23 92 20 43 21 148 2 172 -7 9 -8 13 -2 10 6 -4 11 14
12 53 1 33 5 65 8 71 10 15 12 45 19 253 l7 179 41 51 c49 59 53 64 72 90 14
20 14 20 15 -2 0 -33 26 -29 66 9 19 18 63 47 97 64 61 31 63 31 172 25 61 -3
250 -6 421 -6z m-776 -35 c0 -13 -105 -180 -114 -180 -1 0 -3 6 -3 13 0 33
-15 160 -20 173 -4 12 6 14 66 12 55 -2 71 -6 71 -18z m-737 -159 c16 -6 46
-14 68 -17 38 -6 39 -8 23 -25 -17 -19 -130 -89 -143 -89 -5 0 -14 -7 -21 -15
-22 -26 -38 -18 -34 18 8 77 16 131 20 139 6 10 50 4 87 -11z m52 -496 c59 -3
60 -3 34 -23 -40 -30 -146 -82 -153 -75 -3 3 -6 31 -6 61 l0 54 43 -8 c23 -4
60 -8 82 -9z m1562 -197 c-3 -8 -6 -5 -6 6 -1 11 2 17 5 13 3 -3 4 -12 1 -19z"/>
<path d="M1647 1063 c-5 -8 -32 -13 -72 -13 -78 0 -94 -16 -25 -25 27 -4 50
-9 50 -11 0 -16 -30 -72 -45 -84 -17 -14 -18 -13 -13 8 4 12 3 22 -2 22 -4 0
-11 -36 -14 -80 l-7 -80 -52 1 c-82 1 -231 25 -235 37 -5 17 -22 15 -22 -3 0
-8 10 -20 22 -26 21 -11 21 -12 -8 -24 -38 -16 -44 -11 -44 33 -1 35 -2 36
-15 18 -10 -13 -15 -40 -14 -75 1 -31 -6 -92 -14 -136 -24 -124 -26 -152 -14
-164 15 -15 27 -14 27 2 0 15 85 98 120 118 17 9 58 13 128 13 56 -1 104 -3
106 -5 2 -2 -2 -39 -8 -82 -15 -92 -10 -187 10 -187 7 0 16 5 19 10 4 6 25 22
48 36 23 15 47 33 54 41 15 19 147 36 236 30 52 -3 67 -1 67 9 0 8 1 16 2 19
7 18 18 144 24 275 4 99 11 160 18 170 7 8 19 31 26 50 7 19 22 45 33 58 16
17 17 22 6 23 -47 3 -176 -1 -245 -7 -94 -8 -131 -1 -136 24 -3 12 -6 14 -11
5z m61 -58 c2 -2 -11 -13 -27 -25 l-31 -21 0 31 c0 28 2 30 28 24 15 -4 28 -8
30 -9z m219 4 c15 -15 7 -283 -12 -428 -8 -58 -12 -108 -9 -113 3 -4 -33 -8
-79 -8 -130 0 -297 -12 -297 -22 0 -4 15 -8 33 -8 50 0 52 -11 6 -37 -23 -13
-44 -21 -47 -18 -8 7 -4 77 9 170 6 44 11 138 11 208 l0 129 42 60 41 60 3
-31 c4 -36 21 -40 48 -10 29 32 54 43 114 50 90 10 125 10 137 -2z m57 -44
c-14 -38 -19 -44 -26 -31 -13 23 0 74 20 79 24 5 24 6 6 -48z m-466 -189 c2
-2 0 -40 -3 -84 l-7 -80 -127 4 c-69 2 -141 8 -158 13 -26 8 -33 7 -33 -5 0
-8 10 -14 24 -14 38 0 38 -14 2 -49 -31 -30 -35 -31 -40 -14 -4 11 -4 58 -2
103 5 92 12 105 73 116 18 3 36 10 38 15 5 8 224 3 233 -5z m-371 -238 c-3 -7
-5 -2 -5 12 0 14 2 19 5 13 2 -7 2 -19 0 -25z"/>
<path d="M1530 999 c0 -5 5 -7 10 -4 6 3 10 8 10 11 0 2 -4 4 -10 4 -5 0 -10
-5 -10 -11z"/>
</g>
</svg>
