<?xml version="1.0" standalone="no"?>
<!DOCTYPE svg PUBLIC "-//W3C//DTD SVG 20010904//EN"
 "http://www.w3.org/TR/2001/REC-SVG-20010904/DTD/svg10.dtd">
<svg version="1.0" xmlns="http://www.w3.org/2000/svg"
 width="248.000000pt" height="140.000000pt" viewBox="0 0 248.000000 140.000000"
 preserveAspectRatio="xMidYMid meet">
<metadata>
Created by potrace 1.16, written by Peter Selinger 2001-2019
</metadata>
<g transform="translate(0.000000,140.000000) scale(0.100000,-0.100000)"
fill="#000000" stroke="none">
<path d="M1414 1266 c-3 -8 -7 -48 -9 -88 -3 -94 -3 -92 -17 -81 -28 22 -231
38 -288 23 -100 -26 -477 -40 -551 -20 -64 18 -237 15 -281 -4 -47 -20 -56
-35 -32 -53 18 -13 18 -15 2 -27 -22 -16 -23 -36 -4 -36 16 0 31 -34 22 -48
-8 -14 -18 -151 -15 -212 3 -72 3 -96 -1 -216 -4 -87 -2 -104 13 -119 10 -10
16 -23 13 -30 -7 -19 16 -25 60 -14 46 10 353 14 384 4 11 -4 26 -2 33 3 21
17 68 23 82 12 10 -8 19 -8 35 0 11 6 60 13 108 16 48 3 102 8 120 11 27 4 32
2 32 -15 0 -34 20 -36 49 -6 l26 29 4 -25 c1 -14 8 -28 14 -32 15 -9 37 10 37
33 0 14 7 19 30 19 23 0 30 -4 30 -20 0 -15 7 -20 25 -20 22 0 25 -4 25 -32 0
-18 -5 -53 -11 -77 -18 -78 25 -91 102 -30 20 16 40 29 43 29 3 0 38 21 78 47
114 75 108 76 107 -24 0 -61 3 -88 13 -94 20 -13 26 1 32 76 11 147 7 140 115
215 27 19 50 38 51 43 0 4 5 7 11 7 16 0 205 126 258 172 24 21 49 38 56 38 7
0 18 7 25 15 7 9 19 14 27 11 44 -17 61 46 18 66 -14 6 -32 22 -40 35 -11 16
-22 22 -33 19 -20 -7 -118 42 -171 84 -20 15 -67 45 -106 66 -96 52 -214 122
-250 149 -47 35 -147 83 -191 91 -21 3 -47 11 -57 16 -12 6 -19 5 -23 -6z
m136 -89 c30 -16 71 -42 90 -56 38 -28 109 -68 235 -132 106 -53 122 -62 149
-88 12 -11 29 -21 38 -21 9 0 21 -6 27 -14 7 -8 27 -21 45 -30 27 -12 35 -24
41 -53 6 -35 4 -40 -32 -70 -42 -36 -241 -171 -295 -200 -18 -10 -48 -29 -67
-42 l-34 -25 6 108 c4 70 11 114 20 125 22 26 41 81 31 90 -17 15 -72 21 -82
8 -6 -7 -11 -37 -12 -67 0 -30 -4 -109 -8 -174 l-7 -119 -70 -44 c-38 -24 -90
-53 -115 -64 -25 -12 -57 -30 -72 -41 l-28 -19 5 88 c14 255 26 383 36 411 5
13 6 29 2 35 -10 16 -4 79 9 94 6 7 7 21 3 30 -4 10 -9 85 -11 166 l-4 148 23
-6 c12 -4 47 -21 77 -38z m-211 -159 c-5 -18 -9 -47 -9 -63 0 -35 -15 -55 -42
-55 -14 0 -18 8 -18 42 0 23 5 57 12 75 10 26 17 33 39 33 26 0 27 -2 18 -32z
m62 19 c-1 -4 -1 -32 -1 -62 0 -40 -4 -55 -14 -55 -15 0 -28 78 -14 86 4 3 8
14 8 25 0 12 5 19 11 17 6 -2 10 -7 10 -11z m-165 -28 c-3 -17 -6 -49 -6 -71
0 -35 -2 -39 -22 -36 -24 3 -25 10 -20 100 2 24 12 32 46 37 5 0 6 -13 2 -30z
m-81 4 c-2 -10 -7 -39 -10 -64 -4 -34 -11 -48 -24 -52 -33 -8 -42 7 -39 64 3
57 2 56 70 68 3 0 5 -7 3 -16z m-501 -15 c-3 -12 -6 -41 -6 -64 1 -49 -6 -57
-43 -48 -21 5 -25 12 -25 43 0 71 10 84 68 90 9 1 11 -6 6 -21z m92 -44 c-2
-65 -3 -67 -29 -70 -24 -2 -27 1 -28 29 -3 78 7 107 35 107 23 0 24 -2 22 -66z
m102 -3 l3 -61 -36 0 c-33 0 -35 2 -35 34 0 18 3 47 6 64 5 26 10 30 33 28 25
-3 26 -6 29 -65z m102 20 c0 -65 -7 -81 -36 -81 -23 0 -24 3 -24 65 l0 65 30
0 c29 0 30 -1 30 -49z m90 -16 c0 -63 -1 -65 -25 -65 -27 0 -28 5 -25 75 2 49
6 55 31 55 17 0 19 -7 19 -65z m-494 43 c1 -2 -1 -27 -3 -55 l-6 -53 -36 0
c-36 0 -36 0 -39 46 -3 57 9 72 50 68 17 -2 32 -5 34 -6z m-125 -5 c0 -5 2
-30 5 -56 l5 -48 -48 3 -48 3 -3 44 c-2 28 1 47 10 52 16 11 78 12 79 2z m978
-125 c-2 -35 -16 -85 -19 -65 -2 17 -3 73 -1 82 1 3 6 5 11 5 6 0 9 -10 9 -22z
m-69 -42 c0 -47 -3 -54 -22 -59 -29 -8 -38 7 -38 66 0 46 1 47 30 47 30 0 30
-1 30 -54z m-186 28 c3 -9 6 -33 6 -55 0 -38 -1 -39 -35 -39 l-35 0 5 46 c2
25 7 49 10 55 10 15 42 10 49 -7z m92 -30 c7 -47 -2 -63 -33 -64 -13 0 -15 6
-15 35 0 64 3 75 21 75 16 0 21 -10 27 -46z m-392 27 c3 -5 3 -30 0 -55 -6
-44 -8 -46 -39 -46 -32 0 -33 1 -30 44 1 24 5 49 9 55 9 13 52 15 60 2z m96
-41 c0 -44 -3 -50 -24 -56 -37 -9 -44 1 -35 48 4 24 8 46 9 51 0 4 11 7 25 7
23 0 25 -3 25 -50z m107 0 c-2 -42 -5 -50 -25 -55 -31 -8 -42 1 -42 33 0 54
11 72 41 72 27 0 28 -1 26 -50z m-636 30 c16 0 19 -7 19 -45 l0 -45 -55 0
c-50 0 -55 2 -55 23 0 56 22 81 58 71 8 -2 22 -4 33 -4z m329 -46 c0 -54 0
-55 -27 -52 -26 3 -28 6 -30 56 -3 52 -2 52 27 52 30 0 30 -1 30 -56z m-204
24 c-3 -13 -6 -35 -6 -50 0 -25 -4 -28 -34 -28 -19 0 -37 3 -39 8 -2 4 0 26 5
50 9 40 11 42 45 42 32 0 35 -2 29 -22z m104 -29 l0 -50 -32 3 c-29 3 -33 7
-36 36 -5 49 3 62 38 62 29 0 30 -1 30 -51z m750 -84 c0 -53 -16 -61 -22 -11
-4 39 0 56 13 56 5 0 9 -20 9 -45z m-157 -12 c-4 -54 -12 -66 -36 -57 -12 4
-17 18 -17 48 0 49 5 56 35 56 20 0 22 -4 18 -47z m88 5 c-5 -35 -11 -44 -33
-52 -15 -5 -29 -8 -31 -5 -2 2 -2 25 1 52 4 45 5 47 36 47 32 0 32 0 27 -42z
m-391 -12 c0 -50 -8 -59 -45 -50 -27 7 -31 26 -15 68 7 19 17 26 35 26 23 0
25 -4 25 -44z m216 13 c-3 -17 -6 -37 -6 -44 0 -6 -11 -17 -24 -23 -28 -13
-36 -1 -36 52 0 40 5 46 43 46 28 0 29 -2 23 -31z m-314 -25 c-3 -35 -7 -44
-19 -40 -8 3 -21 6 -29 6 -9 0 -14 11 -14 33 0 40 5 47 39 47 25 0 26 -2 23
-46z m212 9 c-4 -21 -9 -41 -11 -45 -5 -10 -61 -5 -62 5 -1 4 -1 23 -1 42 0
34 1 35 40 35 l41 0 -7 -37z m-406 -8 c4 -32 -10 -45 -50 -45 -25 0 -28 4 -28
34 0 30 4 35 28 39 41 6 47 3 50 -28z m100 -2 c-3 -33 -6 -38 -30 -40 -26 -2
-28 1 -28 38 0 37 2 39 31 39 29 0 30 -2 27 -37z m-316 5 c8 -46 -1 -58 -42
-58 -21 0 -45 -3 -54 -6 -13 -5 -16 1 -16 33 0 22 3 43 7 46 3 4 28 7 54 7 41
0 47 -3 51 -22z m98 -19 c0 -39 -1 -40 -32 -37 -29 3 -33 7 -36 35 -3 28 0 32
25 36 15 2 31 5 36 6 4 0 7 -17 7 -40z m860 -69 c0 -22 -4 -40 -10 -40 -5 0
-7 17 -5 38 5 45 4 42 10 42 3 0 5 -18 5 -40z m-59 -7 c-5 -32 -11 -39 -32
-41 -20 -2 -28 2 -33 20 -12 47 -8 54 32 56 l39 3 -6 -38z m-391 5 c0 -32 -10
-44 -42 -52 -26 -6 -28 -4 -28 28 0 30 4 35 28 39 15 2 30 5 35 6 4 0 7 -9 7
-21z m210 -13 c0 -29 -14 -39 -46 -31 -31 8 -32 44 -1 55 31 12 47 3 47 -24z
m80 0 c0 -31 -3 -35 -25 -35 -22 0 -25 4 -22 27 3 22 16 34 45 42 1 1 2 -15 2
-34z m-583 -29 c-7 -17 -87 -20 -87 -3 0 41 81 72 88 34 2 -10 1 -24 -1 -31z
m93 19 c0 -31 -3 -35 -25 -35 -22 0 -25 4 -25 35 0 31 3 35 25 35 22 0 25 -4
25 -35z m94 -3 c1 -30 -1 -32 -33 -32 -30 0 -33 2 -27 23 3 12 6 28 6 35 0 9
10 12 27 10 22 -3 26 -8 27 -36z m212 22 c-3 -9 -6 -19 -6 -24 0 -4 -16 -10
-35 -12 -38 -4 -38 -4 -29 30 5 17 13 22 41 22 28 0 34 -3 29 -16z m-618 -31
c3 -17 -4 -22 -44 -28 -25 -3 -52 -9 -59 -11 -15 -6 -26 18 -15 35 8 14 61 28
95 26 12 -1 21 -10 23 -22z m100 5 c-2 -19 -10 -24 -40 -26 -34 -3 -38 -1 -38
20 0 21 5 24 41 26 37 3 40 1 37 -20z m398 -78 c2 -38 -6 -50 -32 -50 -21 0
-24 5 -24 33 0 40 7 49 35 45 13 -2 20 -11 21 -28z m112 -2 c-3 -30 -6 -33
-40 -36 -37 -3 -38 -3 -38 32 0 35 1 36 41 36 39 0 40 -1 37 -32z m88 22 c17
0 19 -31 2 -48 -7 -7 -20 -12 -30 -12 -14 0 -18 8 -18 36 0 29 3 35 16 30 9
-3 22 -6 30 -6z m202 -9 c6 -18 -18 -41 -44 -41 -19 0 -24 5 -24 24 0 13 6 26
13 29 20 8 51 1 55 -12z m62 -7 c0 -8 -4 -14 -10 -14 -5 0 -10 9 -10 21 0 11
5 17 10 14 6 -3 10 -13 10 -21z m-567 8 c3 -4 3 -19 0 -35 -4 -20 -11 -27 -29
-27 -20 0 -24 5 -24 28 0 16 3 32 7 35 9 9 41 9 46 -1z m407 -11 c0 -10 -6
-23 -12 -29 -16 -12 -44 -2 -42 16 1 6 2 17 3 22 0 6 12 10 26 10 18 0 25 -5
25 -19z m-817 -38 c-8 -20 -74 -26 -91 -9 -21 21 -5 37 45 45 39 7 57 -7 46
-36z m102 37 c13 -21 -6 -48 -35 -52 -27 -4 -30 -2 -30 23 0 15 6 30 13 32 21
9 46 7 52 -3z m123 -17 c-3 -25 -7 -28 -47 -31 -37 -3 -43 -1 -37 13 3 9 6 23
6 31 0 10 12 14 41 14 38 0 40 -1 37 -27z m92 13 c0 -28 -12 -46 -31 -46 -14
0 -19 7 -19 30 0 25 4 30 25 30 15 0 25 -6 25 -14z"/>
</g>
</svg>
