<?xml version="1.0" standalone="no"?>
<!DOCTYPE svg PUBLIC "-//W3C//DTD SVG 20010904//EN"
 "http://www.w3.org/TR/2001/REC-SVG-20010904/DTD/svg10.dtd">
<svg version="1.0" xmlns="http://www.w3.org/2000/svg"
 width="171.000000pt" height="105.000000pt" viewBox="0 0 171.000000 105.000000"
 preserveAspectRatio="xMidYMid meet">
<metadata>
Created by potrace 1.16, written by Peter Selinger 2001-2019
</metadata>
<g transform="translate(0.000000,105.000000) scale(0.100000,-0.100000)"
fill="#000000" stroke="none">
<path d="M1315 919 c-123 -14 -898 -19 -993 -7 -72 8 -87 7 -108 -7 -16 -10
-24 -23 -21 -34 2 -9 0 -47 -4 -84 -5 -38 -11 -110 -14 -160 -3 -51 -8 -128
-10 -172 -3 -44 -8 -97 -11 -117 -4 -28 -2 -38 8 -38 8 -1 7 -4 -5 -11 -18
-10 -23 -54 -9 -76 12 -20 104 -33 178 -26 56 5 68 3 76 -10 12 -23 35 -21 43
3 6 19 39 28 49 12 5 -9 138 -8 188 2 31 7 38 5 47 -13 14 -25 41 -28 41 -3 0
14 9 17 50 18 34 0 50 -4 50 -12 0 -22 22 -28 36 -10 16 22 187 34 210 15 11
-9 18 -9 26 -1 7 7 27 12 45 12 32 0 33 -1 33 -42 l1 -43 19 24 c16 18 18 27
9 37 -9 11 -7 15 6 20 16 6 26 -2 39 -31 3 -5 13 1 24 14 19 23 19 23 25 2 3
-13 13 -21 27 -21 19 0 21 4 16 25 -6 23 -3 25 24 25 32 0 70 -30 70 -55 0
-17 16 -20 25 -6 3 5 10 88 15 183 12 198 37 505 46 561 l6 37 -88 -2 c-49 0
-125 -5 -169 -9z m172 -47 c9 -5 9 -19 3 -47 -5 -22 -10 -55 -10 -73 0 -30 -1
-32 -16 -18 -8 9 -22 16 -30 16 -8 0 -14 8 -15 18 0 9 -2 33 -5 52 -3 25 0 38
13 47 19 15 42 16 60 5z m-123 -14 c-4 -7 -13 -35 -19 -63 -10 -44 -15 -50
-39 -53 -23 -3 -27 0 -22 15 15 52 17 73 7 73 -10 0 -16 -17 -23 -65 -2 -14
-14 -21 -40 -26 -49 -8 -55 10 -26 70 20 41 28 47 63 52 73 11 107 10 99 -3z
m32 -45 c0 -53 -8 -72 -28 -73 -5 0 -8 11 -8 25 0 29 22 105 30 105 3 0 6 -26
6 -57z m-1068 17 c19 -31 -3 -67 -45 -75 -19 -3 -37 -4 -40 -1 -3 3 -2 26 1
51 7 43 9 45 39 45 21 0 36 -7 45 -20z m372 18 c0 -2 -6 -23 -14 -48 -13 -44
-14 -45 -60 -48 -52 -3 -49 -9 -30 59 6 23 35 37 77 38 15 1 27 0 27 -1z m114
-18 c-4 -8 -9 -30 -12 -47 -4 -32 -5 -33 -54 -33 -39 0 -49 3 -45 14 3 8 9 30
12 50 7 35 7 35 56 33 40 -2 48 -5 43 -17z m123 6 c-3 -8 -9 -30 -12 -49 -5
-27 -13 -37 -32 -42 -43 -10 -63 2 -63 40 0 58 7 65 62 65 39 0 49 -3 45 -14z
m99 -47 l-10 -50 -41 3 -40 3 2 40 c3 48 20 63 65 57 l34 -4 -10 -49z m134 24
c-3 -21 -7 -41 -8 -45 -1 -5 -2 -12 -2 -18 0 -5 -25 -10 -56 -10 l-56 0 7 33
c4 17 8 42 7 55 0 20 5 22 58 22 l57 0 -7 -37z m-700 7 c-6 -10 -10 -23 -9
-27 5 -27 -4 -33 -51 -33 -44 0 -50 3 -50 21 0 44 18 59 71 59 46 0 49 -1 39
-20z m110 14 c0 -23 -25 -84 -34 -84 -43 1 -56 13 -56 51 l0 39 45 0 c25 0 45
-3 45 -6z m78 -171 l-3 -48 -44 -3 c-41 -3 -43 -2 -37 20 3 13 6 33 6 45 0 17
7 23 33 26 17 2 36 5 40 5 4 1 7 -19 5 -45z m814 7 c-3 -31 -8 -40 -23 -40
-29 0 -26 52 4 66 12 7 22 12 22 13 0 0 -1 -17 -3 -39z m-1160 -15 c-3 -37 -8
-45 -24 -45 -33 0 -58 19 -58 45 0 27 23 44 60 45 24 0 25 -3 22 -45z m136 23
c-1 -62 -6 -68 -51 -64 -41 4 -42 4 -45 45 l-3 41 50 0 c45 0 50 -2 49 -22z
m107 10 c3 -7 1 -26 -3 -43 -7 -26 -13 -30 -43 -30 -31 0 -34 2 -32 29 1 16 5
36 7 43 7 17 65 17 71 1z m237 7 c2 -3 2 -24 -1 -47 l-6 -43 -45 3 c-25 2 -47
5 -48 7 -2 2 -1 22 3 44 7 40 7 41 49 41 24 0 45 -2 48 -5z m114 -37 c-9 -54
-11 -57 -44 -53 -15 2 -30 4 -34 4 -9 1 -10 53 -2 75 4 11 19 16 46 16 l41 0
-7 -42z m112 -5 c3 -38 1 -43 -22 -49 -14 -3 -36 -2 -49 3 -21 7 -22 11 -14
51 8 42 9 43 45 40 36 -3 37 -4 40 -45z m140 32 c2 -2 1 -20 -2 -39 -6 -33 -8
-34 -61 -38 l-55 -3 0 41 c0 22 3 44 7 47 7 7 103 0 111 -8z m164 -25 c-4 -35
-16 -50 -39 -50 -9 0 -13 15 -13 44 0 41 2 43 28 42 25 -1 27 -4 24 -36z m76
3 c-2 -31 -7 -39 -25 -41 -19 -3 -23 1 -23 25 0 31 16 53 38 53 9 0 12 -11 10
-37z m-150 -10 c-3 -35 -6 -38 -35 -41 -31 -3 -33 -2 -33 31 0 41 5 47 42 47
28 0 29 -2 26 -37z m-812 -118 l-1 -50 -47 -3 c-25 -2 -49 2 -53 7 -3 6 -1 28
5 50 8 32 16 40 38 43 58 8 60 8 58 -47z m102 32 c2 -11 1 -34 -3 -53 -5 -30
-10 -34 -35 -34 -29 0 -30 1 -30 49 0 30 5 51 13 55 23 10 52 1 55 -17z m111
-24 c-3 -65 -7 -73 -36 -73 -46 0 -62 16 -57 58 9 60 11 62 54 62 l42 0 -3
-47z m127 34 c8 -7 -6 -107 -14 -108 -37 -6 -73 -5 -78 3 -3 5 -3 34 1 64 l7
55 39 -4 c22 -2 42 -7 45 -10z m95 3 c16 0 19 -7 19 -54 0 -52 -1 -54 -31 -60
-61 -12 -62 -11 -56 49 6 64 14 78 34 71 8 -3 23 -6 34 -6z m139 -32 c0 -58
-14 -78 -55 -78 l-35 0 0 54 c0 58 0 58 68 62 19 2 22 -3 22 -38z m137 15
c-13 -65 -25 -83 -56 -83 -16 0 -36 -3 -44 -6 -10 -4 -14 1 -12 18 1 13 3 37
4 55 1 34 11 39 80 42 31 1 33 -1 28 -26z m164 14 c3 -5 3 -23 0 -40 -5 -23
-13 -33 -29 -35 -18 -3 -22 1 -22 23 0 16 -4 24 -11 20 -6 -4 -8 -14 -4 -23 7
-20 -12 -32 -53 -32 -32 0 -33 0 -27 38 11 62 9 61 77 60 35 -1 66 -6 69 -11z
m-1009 -14 c9 -43 -4 -73 -33 -81 -36 -9 -38 -26 -4 -30 24 -3 26 -6 19 -35
-9 -44 -12 -47 -40 -47 -27 0 -29 17 -17 143 l6 67 33 0 c23 0 34 -5 36 -17z
m1074 -13 c-1 -24 -24 -66 -27 -49 0 2 -3 15 -5 29 -6 31 2 50 20 50 9 0 13
-10 12 -30z m85 10 c5 0 9 -13 9 -29 0 -26 -3 -29 -25 -23 -13 4 -25 10 -25
15 -1 44 1 49 16 43 9 -3 20 -6 25 -6z m-88 -132 c-4 -39 -8 -46 -30 -51 -12
-3 -2 87 10 95 19 12 24 0 20 -44z m-131 15 c4 -71 -5 -83 -64 -83 -36 0 -37
1 -28 26 6 14 10 36 10 49 0 26 11 33 53 34 23 1 27 -3 29 -26z m68 0 c0 -45
-11 -73 -29 -73 -13 0 -16 10 -16 50 0 45 2 50 23 50 17 0 22 -6 22 -27z
m-884 -17 c-3 -11 -6 -28 -6 -36 0 -11 -13 -15 -50 -17 -48 -1 -50 0 -50 25 0
15 4 32 8 38 8 14 47 21 80 15 19 -3 22 -8 18 -25z m702 -6 c3 -48 -8 -61 -57
-67 l-42 -6 3 49 c3 45 5 49 33 55 50 11 60 7 63 -31z m328 -2 c-1 -34 -4 -38
-28 -38 -23 0 -27 4 -24 23 3 12 5 30 5 39 1 12 8 17 25 16 20 -2 23 -7 22
-40z m-944 -3 c-4 -47 -9 -53 -36 -48 -47 9 -29 88 19 81 16 -2 19 -9 17 -33z
m115 17 c8 -5 10 -17 5 -37 -7 -26 -14 -30 -46 -33 -48 -4 -56 4 -44 46 7 28
13 32 41 32 18 0 37 -4 44 -8z m258 -28 c1 -48 -4 -54 -52 -54 l-46 0 6 37 c7
43 21 54 62 49 25 -3 30 -8 30 -32z m116 29 c2 -12 2 -46 1 -65 -2 -14 -11
-18 -45 -18 l-42 0 3 45 4 45 39 0 c21 0 40 -3 40 -7z m-235 -25 c-3 -13 -6
-31 -6 -40 0 -14 -8 -18 -40 -16 -54 2 -63 9 -51 40 5 14 7 29 4 32 -4 3 17 6
46 6 50 0 53 -1 47 -22z m-496 -113 c0 -25 -4 -45 -9 -45 -5 0 -23 -3 -40 -6
l-32 -7 6 39 c8 42 28 64 57 64 15 0 18 -8 18 -45z m143 38 c2 -5 2 -25 0 -45
l-5 -38 -49 0 c-47 0 -49 1 -49 29 0 52 8 61 55 61 24 0 46 -3 48 -7z m823
-32 c-5 -54 -9 -57 -55 -53 -37 4 -41 7 -41 31 0 35 10 48 40 54 58 10 60 10
56 -32z m59 19 c-4 -11 -8 -32 -9 -48 -5 -41 -31 -35 -32 8 -1 48 5 60 28 60
15 0 18 -5 13 -20z m72 -14 c-6 -42 -14 -56 -33 -56 -9 0 -14 10 -14 29 0 43
10 61 32 61 17 0 19 -5 15 -34z m83 -5 c0 -35 -3 -39 -32 -45 -17 -3 -32 -5
-34 -3 -2 1 2 22 8 45 9 35 15 42 34 42 21 0 24 -5 24 -39z m-942 -13 c3 -36
2 -38 -27 -38 -30 0 -31 2 -31 41 0 38 1 40 28 37 23 -3 27 -8 30 -40z m108
29 c3 -3 3 -19 -1 -36 -6 -27 -11 -31 -41 -31 -32 0 -34 2 -34 33 0 19 2 36 4
38 6 6 65 3 72 -4z m504 4 c0 -5 -3 -23 -6 -40 -6 -30 -9 -32 -48 -29 -38 3
-41 5 -41 33 0 26 4 31 35 36 54 10 60 10 60 0z m-374 -23 c-3 -13 -6 -29 -6
-35 0 -9 -17 -13 -49 -13 l-49 0 11 35 c10 33 13 35 55 35 41 0 44 -2 38 -22z
m126 -13 c-4 -35 -5 -35 -52 -35 -45 0 -47 1 -45 28 1 15 3 30 3 35 1 4 24 7
50 7 l48 0 -4 -35z m115 0 c-10 -33 -13 -36 -46 -33 -30 2 -35 7 -33 23 6 40
12 45 51 45 l39 0 -11 -35z"/>
</g>
</svg>
