<?xml version="1.0" standalone="no"?>
<!DOCTYPE svg PUBLIC "-//W3C//DTD SVG 20010904//EN"
 "http://www.w3.org/TR/2001/REC-SVG-20010904/DTD/svg10.dtd">
<svg version="1.0" xmlns="http://www.w3.org/2000/svg"
 width="109.000000pt" height="78.000000pt" viewBox="0 0 109.000000 78.000000"
 preserveAspectRatio="xMidYMid meet">
<metadata>
Created by potrace 1.16, written by Peter Selinger 2001-2019
</metadata>
<g transform="translate(0.000000,78.000000) scale(0.100000,-0.100000)"
fill="#000000" stroke="none">
<path d="M800 679 c0 -5 -4 -8 -9 -5 -4 3 -16 -3 -26 -14 -17 -19 -18 -19 -42
0 -40 31 -73 2 -38 -34 8 -8 15 -19 15 -24 0 -6 -39 -51 -88 -102 -97 -103
-86 -99 -244 -100 -48 -1 -105 4 -126 10 -39 10 -40 11 -47 65 -3 30 -6 81 -5
112 2 80 2 83 -14 83 -29 0 -47 -113 -37 -230 2 -19 0 -69 -3 -110 -10 -109 1
-188 26 -196 27 -8 58 20 40 38 -8 8 -12 45 -12 101 l0 89 150 -4 151 -4 57
-60 c31 -33 78 -75 105 -93 47 -32 47 -33 30 -55 -10 -12 -35 -37 -56 -55 -20
-18 -37 -39 -37 -47 0 -28 33 -13 91 43 l59 57 54 -17 c95 -30 116 -16 44 29
-24 15 -45 28 -47 30 -2 2 33 43 79 91 45 48 88 100 96 115 13 26 13 28 -36
65 -27 21 -49 43 -50 50 0 6 -25 27 -55 47 -30 20 -57 41 -60 46 -3 5 8 24 25
43 32 37 36 47 20 47 -5 0 -10 -5 -10 -11z m-77 -146 c-8 -21 -21 -41 -28 -45
-17 -10 -17 -68 0 -68 17 0 24 -118 9 -155 l-10 -26 -45 44 c-47 47 -81 84
-93 106 -6 9 17 39 75 97 93 94 117 106 92 47z m80 -25 c17 -13 38 -31 44 -40
7 -9 30 -27 50 -39 21 -12 39 -24 41 -25 5 -4 -46 -62 -112 -128 -50 -51 -60
-57 -68 -42 -5 9 -6 36 -2 59 4 23 6 58 5 78 -1 20 4 41 12 47 15 12 16 39 3
60 -9 15 -16 52 -10 52 3 0 19 -10 37 -22z"/>
</g>
</svg>
