<?xml version="1.0" standalone="no"?>
<!DOCTYPE svg PUBLIC "-//W3C//DTD SVG 20010904//EN"
 "http://www.w3.org/TR/2001/REC-SVG-20010904/DTD/svg10.dtd">
<svg version="1.0" xmlns="http://www.w3.org/2000/svg"
 width="226.000000pt" height="214.000000pt" viewBox="0 0 226.000000 214.000000"
 preserveAspectRatio="xMidYMid meet">
<metadata>
Created by potrace 1.16, written by Peter Selinger 2001-2019
</metadata>
<g transform="translate(0.000000,214.000000) scale(0.100000,-0.100000)"
fill="#000000" stroke="none">
<path d="M304 2068 c-18 -8 -22 -22 -27 -86 -10 -126 -8 -250 3 -257 17 -11
60 4 60 20 0 8 9 15 20 15 26 0 25 -12 -4 -124 -13 -50 -31 -134 -41 -186 -9
-52 -26 -129 -37 -170 -11 -41 -24 -94 -29 -117 -9 -44 -34 -92 -56 -106 -7
-4 -13 -17 -13 -27 0 -10 -4 -21 -8 -24 -5 -3 -8 -15 -7 -27 1 -16 9 -23 31
-25 16 -1 49 -6 73 -9 24 -4 145 -7 268 -7 l225 1 -6 -24 c-3 -13 -9 -76 -13
-141 -5 -95 -4 -116 7 -112 13 4 34 86 44 168 3 19 5 36 7 38 1 1 2 5 3 10 13
53 10 52 131 52 62 0 121 3 131 7 16 6 16 3 -3 -28 -11 -19 -40 -70 -63 -114
-49 -93 -78 -145 -132 -236 l-39 -67 -74 -7 c-95 -9 -115 -2 -115 36 0 19 -5
29 -15 29 -8 0 -15 -4 -15 -9 0 -5 -6 -16 -13 -23 -7 -7 -21 -67 -31 -133 -11
-66 -23 -133 -27 -149 -11 -39 6 -63 30 -43 9 8 32 17 52 21 19 3 93 25 165
47 123 39 202 62 449 130 197 54 210 57 236 68 15 5 36 7 47 4 25 -6 36 11 17
27 -11 9 -26 7 -71 -10 -32 -11 -94 -30 -138 -41 -45 -10 -106 -26 -136 -34
-30 -9 -68 -18 -85 -21 -16 -2 -90 -23 -163 -45 -127 -39 -322 -89 -343 -89
-12 0 -3 84 15 156 l11 44 87 4 87 3 -15 -23 c-16 -24 -12 -44 8 -44 7 0 23
14 38 32 25 30 29 31 136 39 60 5 161 15 224 24 63 8 131 15 151 15 20 0 39 3
42 7 4 3 42 7 84 7 l78 1 -3 33 c-4 55 141 485 170 503 5 3 8 8 6 10 -6 8 25
88 33 83 5 -3 9 4 9 15 0 11 8 35 19 54 17 30 68 167 108 287 8 25 19 54 23
65 5 11 30 74 55 140 46 119 82 195 118 247 27 41 14 51 -57 44 -70 -7 -304
-18 -416 -19 -96 -1 -403 11 -421 17 -8 3 -86 7 -174 11 -87 3 -162 8 -165 10
-3 1 -48 6 -100 9 -52 4 -129 11 -170 16 -41 5 -82 8 -90 8 -8 0 -48 7 -88 16
-40 9 -74 16 -75 15 -1 0 -12 -5 -23 -11z m211 -69 c50 -6 96 -13 103 -15 8
-2 64 -6 125 -8 62 -3 166 -8 232 -11 303 -16 473 -21 634 -19 95 2 172 1 170
-1 -2 -2 -60 -8 -129 -14 -69 -6 -170 -16 -225 -21 -55 -6 -197 -19 -315 -30
-118 -11 -262 -25 -320 -31 -301 -31 -349 -35 -392 -31 l-48 4 0 92 c0 51 3
96 7 100 5 4 21 5 38 2 16 -3 71 -11 120 -17z m1489 -106 c-24 -52 -112 -271
-211 -520 -20 -53 -42 -93 -50 -93 -17 0 -16 16 3 120 23 129 36 171 51 177 9
4 11 8 5 12 -16 10 8 101 26 101 11 0 12 3 3 14 -15 18 4 112 25 120 18 7 18
36 0 36 -22 0 -6 50 19 60 13 5 42 9 65 8 23 0 47 5 53 11 6 6 17 11 24 11 9
0 5 -17 -13 -57z m-202 -13 c-2 -18 -10 -33 -16 -35 -16 -6 -324 -33 -446 -40
-58 -3 -152 -11 -209 -16 -57 -5 -105 -8 -108 -5 -2 2 2 17 10 33 l15 29 194
17 c106 10 229 20 273 24 44 3 109 9 145 12 151 15 147 16 142 -19z m-980 -62
c-7 -7 -12 -20 -12 -29 0 -22 -14 -26 -125 -33 -143 -10 -211 -9 -230 2 -22
12 -11 14 125 33 47 7 119 17 160 24 41 7 79 13 85 14 5 0 4 -4 -3 -11z m153
-19 c10 -16 2 -20 -59 -26 -46 -5 -56 -3 -56 10 0 8 6 18 13 20 23 10 96 7
102 -4z m810 -21 c-4 -18 -8 -34 -9 -35 -5 -6 -222 -33 -341 -42 -325 -25
-437 -33 -440 -29 -8 8 18 77 31 82 7 3 87 6 176 7 90 0 198 7 241 14 42 8
123 17 179 20 56 3 104 8 107 10 2 3 17 5 33 5 28 0 29 -2 23 -32z m-825 -36
c0 -3 -5 -22 -12 -43 -10 -37 -14 -39 -50 -39 l-39 0 3 38 c4 34 7 37 38 42
46 7 60 8 60 2z m-160 -41 c0 -22 -4 -42 -9 -45 -4 -3 -84 -8 -177 -12 -93 -3
-182 -10 -198 -15 -21 -6 -27 -6 -23 4 2 6 10 28 17 48 12 35 14 36 62 35 27
-1 98 4 156 10 181 19 172 20 172 -25z m181 16 c-10 -9 -11 -8 -5 6 3 10 9 15
12 12 3 -3 0 -11 -7 -18z m775 -48 c-3 -17 -6 -37 -6 -43 0 -6 -12 -11 -27
-12 -27 -1 -345 -32 -538 -54 -49 -5 -121 -12 -159 -16 l-69 -6 7 32 c3 18 6
41 6 51 0 22 21 26 170 34 58 3 119 8 135 10 17 2 86 7 155 10 69 4 143 10
165 15 22 4 69 8 104 9 l64 1 -7 -31z m-826 -33 c0 -1 -7 -26 -16 -55 -13 -46
-17 -51 -37 -45 -12 3 -23 7 -24 8 0 0 1 22 4 48 4 32 11 48 22 51 14 3 51 -2
51 -7z m-132 -58 l-3 -53 -207 0 c-113 0 -209 2 -212 6 -3 3 -3 21 0 40 l6 34
66 0 c77 0 285 15 291 21 2 2 17 4 33 4 29 0 29 -1 26 -52z m916 -75 c-13 -49
-23 -98 -23 -110 -1 -27 -16 -30 -25 -7 -5 13 -15 15 -54 9 -26 -4 -53 -12
-60 -17 -12 -10 -280 -32 -518 -41 -133 -6 -123 -11 -110 54 l6 26 162 8 c252
12 272 13 288 19 8 3 47 7 85 10 225 16 233 17 227 39 -4 17 -11 19 -64 14
-32 -3 -64 -10 -71 -15 -11 -9 -93 -19 -307 -37 -101 -8 -255 -14 -242 -9 28
13 10 26 -28 21 -34 -4 -40 -2 -40 13 0 32 24 39 156 49 71 6 190 17 264 25
74 9 184 18 244 20 59 3 111 7 114 10 17 17 16 -3 -4 -81z m-834 -23 c-16 -38
-30 -39 -30 -1 0 20 6 31 18 33 25 6 26 2 12 -32z m-84 14 c-3 -9 -6 -21 -6
-27 -1 -35 -16 -39 -203 -44 -190 -6 -237 -2 -237 20 1 29 19 36 105 42 182
10 290 17 292 19 1 1 14 3 28 4 21 1 26 -2 21 -14z m116 -19 c-2 -14 -9 -25
-14 -25 -5 0 -7 3 -5 8 2 4 7 15 10 25 9 25 15 21 9 -8z m71 -32 c-7 -2 -19
-2 -25 0 -7 3 -2 5 12 5 14 0 19 -2 13 -5z m-91 -64 c-2 -19 -5 -35 -5 -35 -1
-1 -11 -4 -22 -8 -17 -5 -20 -1 -22 27 -2 46 2 54 29 52 20 -2 23 -6 20 -36z
m-124 4 c3 -52 1 -53 -231 -57 l-216 -5 10 27 c6 15 9 29 7 32 -2 3 77 8 176
12 98 4 181 9 184 12 3 3 19 6 37 6 26 0 31 -4 33 -27z m910 -57 l-3 -29 -80
-3 c-44 -1 -150 -11 -235 -22 -282 -37 -470 -54 -470 -43 0 3 5 22 10 42 l10
37 133 6 c243 12 471 28 512 35 22 5 59 7 83 7 41 -1 43 -2 40 -30z m-804 -49
c-8 -47 -12 -57 -24 -57 -11 0 -14 82 -4 93 16 16 33 -6 28 -36z m-114 -11 l0
-43 -202 -6 c-237 -6 -261 -4 -252 27 4 11 7 22 8 23 1 1 99 11 361 36 88 8
85 10 85 -37z m906 -8 c-3 -7 -7 -25 -10 -39 l-6 -26 -192 -6 c-106 -3 -202
-8 -213 -10 -11 -3 -100 -8 -197 -12 -176 -7 -177 -7 -171 14 3 12 10 21 17
21 18 1 202 18 315 30 57 6 163 13 235 16 72 3 147 7 168 7 20 1 40 5 44 10
11 10 14 9 10 -5z m68 -25 c-21 -51 -37 -66 -23 -23 6 19 12 41 15 48 2 6 8
12 13 12 6 0 3 -17 -5 -37z m-978 -49 c-3 -9 -6 -23 -6 -32 0 -15 -22 -17
-233 -17 -225 0 -232 1 -232 20 0 19 10 21 180 31 283 17 298 17 291 -2z m94
-3 c0 -11 -4 -23 -10 -26 -6 -4 -10 5 -10 19 0 14 5 26 10 26 6 0 10 -9 10
-19z m-60 -17 c0 -14 -4 -23 -9 -20 -5 3 -7 15 -4 26 7 28 13 25 13 -6z m815
-4 c-22 -5 -128 -11 -235 -15 -109 -4 -199 -11 -205 -17 -9 -10 232 -5 413 8
l62 4 -6 -27 c-4 -16 -7 -29 -8 -29 -1 -1 -93 -5 -206 -8 -288 -9 -446 -16
-511 -22 l-57 -6 5 26 c3 15 9 28 13 31 10 6 126 14 214 15 38 0 66 3 62 7 -4
4 -46 7 -94 6 -54 0 -74 2 -52 6 19 4 87 8 150 10 63 1 142 6 175 10 82 11
334 11 280 1z m-662 -27 c-13 -2 -33 -2 -45 0 -13 2 -3 4 22 4 25 0 35 -2 23
-4z m-193 -57 l0 -36 -237 6 c-131 3 -244 7 -251 10 -10 3 -10 9 -2 23 11 22
14 22 333 30 l157 3 0 -36z m37 2 c-3 -7 -5 -2 -5 12 0 14 2 19 5 13 2 -7 2
-19 0 -25z m45 7 c-2 -14 -6 -25 -8 -25 -2 0 -4 11 -4 25 0 14 4 25 9 25 4 0
6 -11 3 -25z m637 -29 c-12 -10 -60 -16 -54 -6 3 5 18 10 32 10 15 0 24 -2 22
-4z m-475 -14 c2 -4 -4 -9 -15 -9 -11 -1 -17 2 -14 8 7 11 22 12 29 1z m134 1
c-10 -2 -28 -2 -40 0 -13 2 -5 4 17 4 22 1 32 -1 23 -4z m197 -2 c-33 -4 -78
-4 -100 0 -26 4 -5 6 60 6 86 0 91 -1 40 -6z m279 -29 c-9 -36 -14 -43 -24
-37 -5 3 -62 6 -126 6 -65 1 -125 5 -133 9 -9 5 -29 12 -45 15 -49 10 -21 17
68 17 46 0 96 2 110 6 15 4 55 8 91 9 l65 2 -6 -27z m-502 5 l28 -2 -23 -29
c-23 -28 -24 -28 -151 -32 -113 -3 -127 -2 -122 12 3 9 6 24 6 34 0 12 8 20
23 22 21 3 182 0 239 -5z m-342 -24 c0 -27 -2 -28 -58 -31 -61 -3 -484 18
-491 24 -2 2 -1 9 2 17 4 10 60 13 276 15 l271 2 0 -27z m443 -4 c18 -1 -25
-17 -47 -18 -15 -1 -16 1 -6 14 7 9 20 13 27 10 8 -3 20 -5 26 -6z m42 -39
c-3 -5 -17 -10 -30 -10 -13 0 -27 -4 -30 -10 -3 -5 0 -10 7 -10 7 0 -21 -33
-63 -73 -42 -39 -96 -98 -119 -129 -23 -32 -44 -58 -46 -58 -5 0 44 89 111
200 l51 85 55 6 c30 3 58 6 62 7 5 1 5 -2 2 -8z m303 -15 c35 -7 36 -11 6 -82
-7 -18 -16 -53 -19 -78 -4 -25 -11 -48 -16 -51 -5 -3 -9 -20 -9 -37 -1 -18 -9
-54 -18 -82 -16 -45 -23 -51 -65 -66 -26 -10 -55 -15 -65 -12 -10 2 -73 -3
-139 -11 -67 -9 -165 -19 -220 -22 -54 -3 -104 -7 -110 -9 -23 -8 -13 10 58
100 138 176 174 216 248 277 60 49 86 64 129 72 60 12 168 13 220 1z"/>
</g>
</svg>
