<?xml version="1.0" standalone="no"?>
<!DOCTYPE svg PUBLIC "-//W3C//DTD SVG 20010904//EN"
 "http://www.w3.org/TR/2001/REC-SVG-20010904/DTD/svg10.dtd">
<svg version="1.0" xmlns="http://www.w3.org/2000/svg"
 width="223.000000pt" height="123.000000pt" viewBox="0 0 223.000000 123.000000"
 preserveAspectRatio="xMidYMid meet">
<metadata>
Created by potrace 1.16, written by Peter Selinger 2001-2019
</metadata>
<g transform="translate(0.000000,123.000000) scale(0.100000,-0.100000)"
fill="#000000" stroke="none">
<path d="M279 1070 c-51 -12 -58 -40 -63 -250 -3 -107 -1 -217 4 -245 15 -83
18 -194 9 -299 -7 -87 -6 -104 9 -129 27 -47 43 -53 104 -39 47 12 169 33 343
61 74 13 264 21 545 26 144 2 240 8 290 19 76 15 264 36 332 36 28 0 38 -5 43
-20 8 -26 25 -26 32 0 3 11 12 20 19 20 8 0 14 5 14 10 0 6 -4 10 -10 10 -15
0 -12 124 4 221 8 46 17 107 21 134 21 166 57 341 76 360 5 5 9 17 9 28 0 15
-7 18 -42 17 -24 -1 -45 -1 -48 0 -17 8 -58 6 -74 -2 -19 -10 -440 -12 -791
-3 -253 7 -311 10 -432 24 -132 15 -365 28 -394 21z m121 -53 c0 -1 -9 -27
-21 -57 -12 -30 -23 -66 -26 -79 -2 -13 -17 -71 -33 -127 -16 -57 -30 -129
-32 -160 -2 -31 -6 -58 -9 -60 -7 -4 -14 299 -10 438 l1 46 65 1 c36 0 65 -1
65 -2z m190 -12 c52 -3 109 -7 125 -10 17 -3 66 -7 110 -9 101 -5 97 -4 90
-16 -3 -5 -3 -15 1 -21 4 -7 8 -58 9 -116 l2 -104 -107 2 c-59 1 -113 4 -119
8 -19 12 32 141 71 179 l33 33 -115 -7 c-63 -3 -152 -8 -197 -11 -46 -2 -83
-2 -83 1 0 3 7 24 16 46 15 36 20 40 43 35 14 -3 69 -8 121 -10z m780 -26 c54
5 484 1 501 -4 12 -4 18 -12 15 -21 -3 -8 0 -23 6 -34 9 -14 9 -34 0 -85 -7
-36 -10 -70 -7 -76 4 -5 4 -17 1 -27 -5 -15 -20 -17 -133 -15 -71 1 -204 6
-298 12 -93 5 -243 9 -332 8 -88 -1 -158 0 -154 3 4 3 20 37 35 75 15 39 36
84 47 100 11 17 22 38 25 47 8 23 41 27 169 21 61 -3 117 -5 125 -4z m641 -8
c-9 -17 -26 -101 -23 -113 1 -5 -2 -8 -7 -8 -4 0 -16 -46 -25 -102 -34 -212
-35 -211 -31 17 2 121 4 220 4 221 1 0 21 1 45 1 38 0 44 -3 37 -16z m-997
-78 c-24 -48 -44 -97 -44 -109 0 -13 -4 -26 -10 -29 -6 -4 -10 11 -11 37 -2
124 -5 168 -11 168 -5 0 -8 5 -8 10 0 6 28 10 64 10 l63 0 -43 -87z m-283 5
c-35 -54 -101 -209 -109 -257 l-6 -36 -7 34 c-4 19 -3 61 2 95 4 34 6 89 4
122 l-5 61 72 10 c40 6 74 11 75 12 1 0 -10 -18 -26 -41z m-147 -50 c-1 -35
-5 -90 -9 -124 -3 -34 -8 -142 -10 -240 -2 -98 -8 -192 -12 -208 l-9 -28 -114
-4 c-63 -2 -124 -5 -135 -7 -19 -2 -20 3 -17 68 2 39 12 109 23 157 10 48 19
105 19 125 0 40 66 290 81 309 5 6 44 12 86 13 43 1 79 4 82 6 12 12 17 -11
15 -67z m234 -139 c78 -1 102 -5 103 -15 1 -8 2 -20 3 -26 1 -7 0 -17 -2 -22
-3 -4 -5 -44 -6 -87 -1 -43 -4 -81 -7 -84 -3 -3 -68 -6 -145 -8 -159 -2 -162
0 -125 76 12 24 21 55 21 70 0 30 24 47 69 47 16 0 33 5 36 10 7 12 -8 12 -57
1 -37 -9 -38 -8 -38 21 0 26 3 29 23 25 12 -4 68 -7 125 -8z m207 -8 c7 10
763 4 822 -7 l31 -6 4 -111 c2 -62 2 -114 0 -117 -5 -7 -387 -5 -442 2 -25 4
-147 7 -271 7 l-226 1 4 107 c4 117 11 137 48 123 15 -6 27 -6 30 1z m-212
-271 l87 0 -2 -82 c-1 -46 0 -90 3 -98 3 -13 -17 -15 -151 -12 -98 2 -157 7
-161 14 -4 6 -3 22 2 35 5 14 9 40 9 59 0 23 5 34 15 35 8 1 24 2 34 3 36 2
34 16 -2 16 -24 0 -37 5 -37 13 0 24 14 29 65 23 28 -3 89 -6 138 -6z m1071
-33 c3 -23 7 -60 8 -82 l3 -40 -55 -6 c-30 -4 -107 -10 -170 -14 -63 -3 -131
-8 -150 -11 -40 -5 -101 -6 -321 -5 -85 0 -178 -2 -206 -5 -51 -5 -51 -5 -58
27 -11 47 -7 141 6 153 6 7 133 11 369 12 198 0 362 2 364 5 3 2 50 5 105 6
l100 3 5 -43z m-1226 -212 c3 -3 -1 -5 -9 -6 -8 0 -39 -2 -69 -4 -31 -3 -89
-7 -130 -10 -41 -3 -96 -8 -122 -11 -43 -5 -48 -4 -48 13 0 11 3 23 7 27 9 8
363 0 371 -9z"/>
</g>
</svg>
