<?xml version="1.0" standalone="no"?>
<!DOCTYPE svg PUBLIC "-//W3C//DTD SVG 20010904//EN"
 "http://www.w3.org/TR/2001/REC-SVG-20010904/DTD/svg10.dtd">
<svg version="1.0" xmlns="http://www.w3.org/2000/svg"
 width="196.000000pt" height="112.000000pt" viewBox="0 0 196.000000 112.000000"
 preserveAspectRatio="xMidYMid meet">
<metadata>
Created by potrace 1.16, written by Peter Selinger 2001-2019
</metadata>
<g transform="translate(0.000000,112.000000) scale(0.100000,-0.100000)"
fill="#000000" stroke="none">
<path d="M1660 1110 c-46 -17 -191 -27 -252 -17 -43 6 -63 5 -74 -3 -15 -14
-19 -36 -6 -42 5 -1 12 -21 15 -43 l7 -41 -78 -17 c-46 -10 -129 -17 -207 -18
-403 -4 -522 -1 -581 17 -22 7 -46 9 -53 4 -12 -7 -51 -6 -141 5 -69 8 -74 8
-91 7 -33 -4 -46 -73 -50 -266 -1 -49 -6 -105 -10 -125 -5 -20 -13 -103 -19
-185 -11 -147 -11 -149 11 -172 33 -35 66 -40 269 -38 102 1 188 0 192 -3 9
-5 -25 -76 -53 -112 -23 -29 -25 -61 -4 -61 9 0 34 19 58 43 123 123 181 150
342 162 44 3 107 8 140 11 72 5 97 -6 74 -33 -25 -29 -89 -150 -89 -167 0 -26
39 -19 65 12 13 15 25 31 25 35 0 5 16 28 35 51 19 24 35 48 35 55 0 6 5 11
10 11 6 0 10 7 10 15 0 9 7 18 15 21 8 4 15 12 15 19 0 19 49 75 65 75 7 0 17
12 23 28 5 15 25 43 43 63 34 36 153 129 166 129 3 0 14 6 22 14 9 8 44 28 79
46 42 21 62 37 62 50 0 19 -11 22 -132 35 -61 7 -77 18 -79 56 -3 78 85 267
117 255 16 -6 19 10 4 19 -11 7 28 55 46 55 13 0 26 38 18 52 -6 10 -11 9 -44
-2z m-64 -59 c-4 -5 -2 -11 2 -13 5 -1 -19 -49 -52 -106 -66 -111 -77 -115
-91 -31 -4 22 -15 62 -25 89 l-18 50 21 1 c48 1 152 11 156 15 8 8 12 4 7 -5z
m-1321 -190 c-8 -32 -11 -35 -29 -28 -12 5 -16 43 -7 64 1 0 10 -1 22 -4 16
-5 19 -11 14 -32z m1100 9 c17 -34 26 -29 -96 -54 -72 -15 -112 -12 -130 10
-6 8 -24 14 -38 14 -15 0 -48 7 -74 16 -68 23 -97 16 -111 -26 -9 -30 -16 -35
-45 -38 -19 -2 -49 -1 -67 3 -31 5 -33 7 -22 31 18 39 64 52 209 58 72 3 133
7 135 8 1 2 52 4 113 5 l111 2 15 -29z m-893 -6 c-9 -44 -42 -59 -42 -19 0 30
-16 33 -25 6 -3 -12 -14 -19 -25 -18 -23 2 -23 0 -10 29 9 20 18 23 58 22 40
-2 46 -5 44 -20z m-140 -16 c-3 -19 -10 -28 -23 -28 -11 0 -19 6 -19 14 0 27
12 45 29 43 13 -1 16 -8 13 -29z m228 2 c0 -28 -3 -30 -35 -30 -24 0 -35 5
-35 14 0 32 13 46 41 46 26 0 29 -4 29 -30z m218 21 c-26 -55 -85 -139 -106
-149 -56 -26 -62 -20 -61 71 l2 82 84 1 c46 1 83 -1 81 -5z m222 -61 c21 -7
18 -8 -18 -9 -26 -1 -41 3 -37 9 7 11 19 11 55 0z m380 -25 c17 -9 39 -33 50
-55 l20 -40 -36 -50 c-34 -48 -38 -50 -82 -50 -26 0 -71 -3 -101 -7 -66 -8
-63 6 10 42 27 14 49 32 49 40 0 10 11 16 33 17 31 1 57 4 85 7 6 0 12 6 12
11 0 7 -40 9 -108 8 -89 -3 -112 0 -135 15 -37 24 -62 21 -87 -10 -21 -27 -63
-47 -74 -35 -7 7 34 52 47 52 5 0 22 11 39 25 19 16 42 25 66 26 20 0 55 4 77
8 63 14 104 12 135 -4z m-930 -45 c0 -51 -6 -60 -28 -38 -15 15 -15 43 -2 69
18 33 30 21 30 -31z m-190 5 c0 -28 -4 -35 -20 -35 -16 0 -20 7 -20 35 0 28 4
35 20 35 16 0 20 -7 20 -35z m68 -2 c-2 -31 -7 -39 -25 -41 -25 -4 -26 0 -17
47 5 22 12 31 26 31 16 0 19 -6 16 -37z m52 -3 c0 -40 -15 -54 -26 -25 -8 20
4 65 16 65 6 0 10 -18 10 -40z m124 21 c-4 -9 -9 -26 -11 -39 -3 -12 -10 -25
-16 -29 -7 -4 -8 0 -4 11 4 10 7 30 7 45 0 18 5 28 15 28 11 0 14 -6 9 -16z
m61 -18 c0 -34 -3 -38 -28 -41 -26 -3 -28 -1 -22 20 4 13 9 31 11 41 3 9 13
17 22 17 14 0 18 -9 17 -37z m485 33 c0 -2 -22 -26 -50 -54 -41 -42 -54 -50
-77 -46 -15 3 -29 6 -30 8 -2 1 5 21 13 44 13 31 23 42 43 45 36 6 101 8 101
3z m-183 -52 l-21 -44 -58 0 c-68 0 -81 14 -50 57 18 25 26 28 85 29 l65 1
-21 -43z m278 -34 c3 -5 -3 -10 -15 -10 -12 0 -18 5 -15 10 3 6 10 10 15 10 5
0 12 -4 15 -10z m-497 -36 c1 -1 -9 -21 -23 -45 -22 -40 -25 -41 -25 -18 0 15
3 41 6 58 6 27 9 30 23 19 9 -7 17 -13 19 -14z m-328 4 c0 -7 -3 -30 -6 -50
-5 -30 -11 -38 -28 -38 -37 0 -45 17 -28 61 11 30 20 39 39 39 12 0 23 -6 23
-12z m240 -2 c0 -7 -3 -34 -6 -60 -7 -45 -8 -46 -42 -46 l-35 0 7 41 c4 26 3
38 -4 34 -5 -3 -10 2 -10 11 0 10 3 14 6 11 4 -3 16 0 28 8 26 19 56 19 56 1z
m676 1 c-11 -7 -37 -27 -58 -46 -27 -24 -52 -36 -79 -38 -44 -4 -46 1 -22 51
18 38 30 42 123 44 46 1 52 -1 36 -11z m-1001 -34 c-8 -44 -12 -50 -24 -37
-11 12 6 74 20 74 7 0 9 -13 4 -37z m127 -4 c-4 -36 -14 -54 -29 -48 -5 2 -5
22 0 47 10 52 34 52 29 1z m79 -4 c-4 -49 -7 -55 -32 -55 -19 0 -20 4 -14 43
9 53 13 59 33 55 13 -3 16 -12 13 -43z m609 37 c0 -5 -11 -24 -25 -43 -20 -26
-35 -35 -65 -40 -22 -3 -40 -3 -40 -1 0 3 15 23 34 46 25 30 41 42 65 43 17 1
31 -1 31 -5z m-226 -8 c-7 -3 -10 -13 -8 -22 7 -32 -22 -56 -68 -55 -82 0 -88
2 -82 21 19 60 23 62 98 61 39 0 66 -3 60 -5z m106 0 c0 -11 -53 -74 -62 -74
-9 0 -2 54 9 73 5 8 53 10 53 1z m670 -21 c20 -3 29 -8 20 -11 -21 -8 -222
-163 -242 -187 -26 -31 -33 -10 -13 37 28 64 54 98 75 98 26 0 36 21 16 32
-12 7 -14 14 -6 27 9 19 56 20 150 4z m-240 -70 c0 -5 -9 -21 -20 -38 -19 -29
-22 -30 -142 -40 -68 -6 -129 -9 -137 -6 -9 3 2 19 35 48 l49 43 108 0 c59 0
107 -3 107 -7z m-303 -39 c-43 -42 -56 -40 -32 5 11 23 22 31 42 31 l27 0 -37
-36z m-83 14 c-37 -64 -43 -68 -106 -68 -53 0 -59 2 -48 15 7 8 20 14 28 13 9
-2 22 9 30 25 11 23 19 27 58 27 33 0 43 -3 38 -12z m-759 -40 c-8 -48 -10
-52 -22 -45 -15 9 -3 87 14 87 12 0 13 -8 8 -42z m124 33 c5 -4 8 -15 6 -26
-2 -11 -4 -27 -4 -36 -1 -13 -13 -16 -56 -17 -54 0 -55 0 -55 28 0 51 8 60 56
58 23 0 47 -4 53 -7z m428 -16 c2 -11 0 -15 -3 -8 -6 14 -44 -15 -44 -34 0 -9
-15 -13 -43 -13 l-43 0 4 34 c4 33 7 35 46 39 67 6 81 4 83 -18z m-347 -9 c0
-37 -10 -56 -30 -56 -15 0 -17 5 -11 28 4 15 6 33 4 40 -3 7 4 12 16 12 16 0
21 -6 21 -24z m124 -3 c-1 -16 -2 -36 -3 -45 -1 -15 -11 -18 -50 -18 -28 0
-53 5 -56 10 -3 6 -1 26 6 45 12 33 16 35 59 35 44 0 46 -1 44 -27z m746 -55
c0 -7 -10 -26 -23 -41 -21 -27 -25 -28 -142 -33 -139 -6 -162 1 -126 40 19 20
37 26 104 33 143 15 187 15 187 1z m-616 -62 c-16 -32 -22 -36 -56 -36 -38 0
-39 1 -36 33 3 31 5 32 53 37 28 3 51 5 53 4 2 -1 -5 -18 -14 -38z m153 8 c16
-3 37 -7 48 -11 20 -6 20 -6 0 -13 -11 -4 -45 -8 -75 -9 -30 -1 -63 -4 -72 -7
-22 -6 -22 -6 -3 39 15 35 15 36 45 21 16 -9 42 -17 57 -20z m-489 -12 c-2
-30 -8 -38 -25 -40 -17 -2 -23 2 -23 15 -1 17 -1 17 -14 1 -7 -10 -23 -18 -35
-18 -17 0 -21 6 -21 34 0 39 7 43 73 44 l48 1 -3 -37z m62 10 c0 -22 -17 -48
-25 -40 -10 10 5 69 16 62 5 -3 9 -13 9 -22z m-202 -17 c1 -19 -3 -35 -8 -35
-6 0 -10 16 -10 35 0 19 4 35 8 35 5 0 9 -16 10 -35z m329 3 c-1 -19 -8 -33
-15 -32 -6 1 -30 2 -52 3 -37 1 -40 3 -40 31 0 30 1 30 55 30 l55 0 -3 -32z
m282 -89 c-37 -33 -51 -38 -91 -39 -27 0 -48 2 -48 5 0 2 7 20 17 39 15 32 20
35 67 38 28 2 62 1 75 -1 23 -4 23 -6 -20 -42z m413 41 c-5 -3 -11 -13 -15
-22 -4 -11 -17 -18 -34 -18 -15 0 -44 -4 -63 -9 -19 -5 -86 -11 -148 -14 -99
-5 -112 -4 -101 9 16 20 98 57 112 51 7 -2 20 -1 30 2 23 8 230 9 219 1z
m-586 -32 c-9 -12 -16 -30 -16 -40 0 -13 -8 -18 -25 -18 -22 0 -25 4 -25 34 0
35 7 40 63 45 17 1 17 -1 3 -21z m-354 0 c6 6 22 12 34 12 17 0 20 -5 16 -25
-3 -18 0 -25 12 -25 8 0 18 11 22 25 3 14 11 25 16 25 6 0 7 -7 4 -16 -3 -9
-6 -24 -6 -34 0 -15 -8 -17 -62 -14 -112 7 -148 14 -148 31 0 9 6 13 15 10 8
-4 27 0 42 8 21 11 29 12 35 2 6 -9 10 -9 20 1z m222 6 c10 -4 16 -18 16 -35
0 -28 -1 -29 -54 -29 -57 0 -66 7 -58 47 4 19 11 23 42 23 21 0 45 -3 54 -6z
m174 -131 c-15 -15 -31 -23 -35 -19 -9 8 32 46 50 46 7 0 -1 -12 -15 -27z"/>
</g>
</svg>
