<?xml version="1.0" standalone="no"?>
<!DOCTYPE svg PUBLIC "-//W3C//DTD SVG 20010904//EN"
 "http://www.w3.org/TR/2001/REC-SVG-20010904/DTD/svg10.dtd">
<svg version="1.0" xmlns="http://www.w3.org/2000/svg"
 width="214.000000pt" height="120.000000pt" viewBox="0 0 214.000000 120.000000"
 preserveAspectRatio="xMidYMid meet">
<metadata>
Created by potrace 1.16, written by Peter Selinger 2001-2019
</metadata>
<g transform="translate(0.000000,120.000000) scale(0.100000,-0.100000)"
fill="#000000" stroke="none">
<path d="M992 1154 c-12 -8 -22 -31 -26 -62 l-6 -49 -103 -2 c-56 -1 -118 -4
-137 -6 -42 -4 -483 -5 -525 -1 -16 2 -43 6 -60 9 -46 11 -57 -3 -60 -74 -1
-35 -5 -78 -9 -95 -5 -24 -2 -35 16 -55 l23 -24 270 2 c149 0 296 3 327 6 32
3 60 1 63 -3 3 -5 18 -2 35 6 19 10 52 14 97 12 l68 -3 -2 -130 c-1 -71 -5
-158 -8 -192 l-6 -61 -87 -8 c-81 -6 -630 -1 -662 7 -8 2 -20 10 -25 17 -30
38 -61 -85 -55 -210 1 -7 0 -22 -2 -33 -3 -17 3 -20 38 -21 22 0 45 -4 51 -7
6 -4 13 -3 17 1 4 4 29 8 54 8 26 1 108 6 182 10 74 5 209 9 299 9 l164 0 1
-45 c1 -50 -2 -49 91 -37 50 7 208 21 340 32 161 12 294 25 348 34 32 6 103
13 158 17 73 5 99 10 99 20 0 8 -10 14 -24 14 -29 0 -36 15 -24 55 5 17 11 57
14 90 3 33 9 87 14 120 5 33 9 85 8 115 -1 31 2 61 6 68 4 7 12 86 16 175 5
89 13 185 17 212 10 65 10 65 -2 67 -5 0 -14 7 -20 14 -8 10 -21 11 -60 3 -27
-5 -58 -14 -67 -19 -22 -13 -501 -4 -658 11 -63 6 -127 13 -142 14 -15 1 -36
-4 -46 -11z m176 -46 c6 -6 12 -7 12 -2 0 5 55 8 122 7 68 -2 161 -3 208 -4
79 -2 82 -2 35 -9 -27 -5 -159 -9 -292 -9 -242 -1 -243 -1 -243 20 0 21 3 21
73 14 39 -3 78 -11 85 -17z m785 8 c3 -8 -1 -49 -8 -93 -8 -43 -15 -112 -16
-153 -1 -91 -16 -153 -18 -75 -1 28 -4 106 -7 175 -6 111 -5 128 10 143 21 21
32 22 39 3z m-85 -83 c0 -38 2 -169 5 -293 5 -206 4 -232 -15 -300 -22 -82
-25 -127 -9 -143 15 -15 14 -67 -1 -68 -7 0 -75 -6 -151 -12 -76 -7 -143 -9
-149 -6 -6 4 -7 31 -2 75 13 125 14 138 18 234 8 188 17 326 29 410 6 47 11
100 11 118 l-1 32 61 1 c34 1 88 5 121 9 33 4 65 8 72 9 8 1 11 -20 11 -66z
m-304 -45 c-19 -122 -46 -407 -39 -418 5 -8 -4 -110 -27 -287 l-10 -81 -81 1
-82 2 2 35 c1 19 8 73 16 120 8 47 18 121 21 165 3 44 8 115 12 158 3 43 7 93
9 110 2 18 7 77 11 132 4 55 8 107 9 115 1 10 17 15 50 17 27 2 51 6 54 8 2 3
19 5 36 5 l32 0 -13 -82z m-524 68 c0 -2 -6 -19 -14 -37 l-15 -34 2 37 c1 23
7 38 15 38 6 0 12 -2 12 -4z m324 -17 c9 -8 5 -49 -20 -238 -2 -19 -9 -96 -14
-170 -17 -242 -50 -433 -74 -426 -12 4 -162 14 -208 15 l-28 0 0 93 c0 280 31
698 55 736 7 12 277 2 289 -10z m-394 -104 c0 -74 0 -75 -26 -75 -26 0 -26 0
-19 60 6 52 5 60 -9 60 -20 0 -24 -11 -28 -70 -3 -34 -8 -46 -22 -48 -13 -3
-17 1 -12 15 2 10 8 35 12 56 6 35 4 39 -12 35 -15 -2 -21 -16 -28 -61 -6 -37
-14 -57 -23 -57 -10 0 -12 14 -7 65 4 36 3 65 -2 65 -24 -1 -33 -21 -36 -75
-3 -48 -7 -61 -22 -63 -18 -4 -18 15 -2 112 0 5 -5 11 -11 13 -17 6 -33 -38
-33 -88 0 -34 -3 -39 -23 -39 l-24 0 14 72 c7 39 11 73 9 76 -12 12 -35 -31
-45 -82 -12 -66 -17 -76 -37 -76 -16 0 -17 18 -3 79 7 30 7 47 -1 55 -17 17
-29 -6 -36 -72 -6 -53 -10 -62 -27 -62 -17 0 -19 5 -13 48 4 26 9 59 12 75 5
22 2 27 -15 27 -17 0 -21 -9 -28 -62 -4 -35 -7 -69 -6 -76 0 -8 -7 -12 -18
-10 -23 4 -23 0 -14 88 4 41 12 71 19 71 6 1 106 5 221 9 116 3 229 7 253 8
l42 2 0 -75z m-745 56 c34 -1 34 -2 28 -33 -4 -18 -7 -53 -7 -78 -1 -42 -3
-46 -26 -45 -28 0 -31 20 -17 103 6 33 4 42 -7 42 -24 0 -38 -28 -43 -90 -5
-49 -9 -60 -22 -58 -13 3 -16 16 -14 72 2 87 4 91 42 90 17 -1 47 -2 66 -3z
m109 -63 c-7 -82 -10 -88 -34 -88 -17 0 -20 6 -20 38 0 62 18 112 40 112 18 0
19 -5 14 -62z m78 50 c-5 -7 -13 -43 -17 -80 -5 -43 -12 -68 -19 -68 -9 0 -12
19 -9 68 4 83 7 92 34 92 16 0 19 -3 11 -12z m-195 -588 c12 0 13 -3 5 -13 -6
-7 -14 -33 -17 -58 -8 -69 -16 -99 -26 -99 -10 0 -10 0 -11 55 -2 103 1 127
18 121 9 -3 23 -6 31 -6z m88 -8 c7 -4 7 -32 2 -79 l-9 -73 -35 0 -36 0 7 43
c17 108 35 135 71 109z m174 -1 c32 -1 33 -2 16 -15 -13 -9 -19 -29 -21 -66
-2 -30 -9 -57 -16 -61 -20 -13 -30 28 -17 73 5 22 8 47 5 55 -12 30 -39 -17
-44 -76 -5 -61 -12 -70 -47 -64 -20 4 -22 9 -18 46 3 23 9 58 14 77 8 34 10
35 51 33 24 -1 58 -2 77 -2z m88 -23 c-3 -18 -9 -52 -12 -75 -6 -37 -10 -43
-31 -43 -22 0 -23 3 -19 38 5 31 11 59 20 95 2 4 3 9 4 12 0 3 11 5 22 5 18 0
20 -4 16 -32z m265 19 c-6 -7 -12 -38 -13 -69 -2 -40 -7 -59 -17 -63 -24 -9
-30 5 -34 78 l-4 67 39 0 c31 0 37 -3 29 -13z m103 2 c4 -5 4 -37 0 -70 -5
-43 -11 -59 -22 -59 -12 0 -14 8 -9 39 3 22 9 46 12 55 4 11 0 16 -14 16 -20
0 -32 -32 -32 -86 0 -13 -4 -24 -10 -24 -13 0 -13 69 1 109 9 25 16 31 39 31
16 0 32 -5 35 -11z m-273 -64 c-2 -36 -7 -65 -12 -65 -4 0 -21 -3 -38 -6 l-30
-6 9 48 c16 92 17 94 47 94 27 0 27 0 24 -65z m88 55 c0 -5 -4 -10 -10 -10 -5
0 -10 -27 -12 -60 -4 -79 -24 -67 -30 18 l-4 62 28 0 c15 0 28 -4 28 -10z
m415 -191 l80 -2 -85 -8 c-47 -4 -114 -7 -149 -8 -60 -1 -63 0 -45 14 14 11
33 14 69 10 28 -2 86 -6 130 -6z"/>
</g>
</svg>
