<?xml version="1.0" standalone="no"?>
<!DOCTYPE svg PUBLIC "-//W3C//DTD SVG 20010904//EN"
 "http://www.w3.org/TR/2001/REC-SVG-20010904/DTD/svg10.dtd">
<svg version="1.0" xmlns="http://www.w3.org/2000/svg"
 width="300.000000pt" height="132.000000pt" viewBox="0 0 300.000000 132.000000"
 preserveAspectRatio="xMidYMid meet">
<metadata>
Created by potrace 1.16, written by Peter Selinger 2001-2019
</metadata>
<g transform="translate(0.000000,132.000000) scale(0.100000,-0.100000)"
fill="#000000" stroke="none">
<path d="M540 1220 c-8 -5 -20 -24 -26 -42 l-11 -33 -125 0 c-92 0 -129 -4
-142 -14 -15 -13 -15 -15 -1 -31 14 -15 15 -35 11 -122 -9 -167 -16 -271 -21
-303 -10 -64 -19 -172 -18 -205 1 -19 2 -75 3 -124 1 -80 17 -146 36 -146 8 0
84 44 158 90 60 38 71 41 168 50 56 5 138 9 180 10 72 0 77 -1 80 -22 4 -31
42 -31 46 -1 4 25 13 28 102 38 159 18 248 21 422 17 82 -2 100 -5 115 -21 10
-11 23 -17 29 -13 14 9 29 97 35 202 3 53 11 67 52 85 23 10 65 29 94 42 28
12 59 20 68 17 11 -5 18 0 22 15 8 29 49 25 46 -4 -1 -11 -7 -60 -13 -110 -19
-168 -19 -165 -5 -165 17 0 23 20 30 100 14 179 21 200 65 200 36 0 38 -13 14
-126 -17 -85 -16 -119 5 -119 10 0 19 20 27 60 22 110 24 120 29 153 5 26 10
32 31 32 21 0 24 -3 19 -21 -13 -38 -31 -199 -25 -209 4 -6 14 -8 22 -5 16 7
24 38 33 135 9 96 11 100 50 100 42 0 42 -4 20 -146 -9 -53 -14 -99 -11 -101
11 -12 34 26 44 72 14 63 26 146 24 161 -1 6 12 14 29 18 57 11 198 18 233 12
l35 -7 -16 -47 c-9 -26 -24 -58 -33 -72 -16 -24 -101 -196 -135 -275 -10 -22
-29 -64 -43 -93 -23 -48 -25 -79 -3 -56 9 9 72 124 117 215 13 27 44 63 71 85
26 21 55 46 63 55 8 9 43 35 77 58 59 40 110 99 95 112 -4 3 -27 13 -52 22
-40 15 -47 22 -62 64 -10 28 -13 49 -8 51 6 2 10 16 10 31 0 24 68 170 111
238 19 32 3 45 -41 33 -19 -6 -65 -10 -102 -10 -70 0 -164 -16 -173 -30 -2 -4
4 -17 15 -30 10 -12 24 -38 31 -59 21 -67 58 -149 84 -187 14 -20 25 -40 25
-44 0 -4 -39 -10 -87 -14 -49 -3 -123 -9 -166 -12 l-77 -6 41 78 c23 44 54
102 70 130 16 28 29 56 29 62 0 16 -26 22 -57 13 -16 -5 -58 -4 -93 1 -36 4
-114 10 -175 12 -60 2 -117 6 -125 10 -9 3 -24 0 -35 -8 -16 -12 -17 -16 -6
-30 10 -12 13 -46 12 -122 -1 -59 -3 -109 -6 -113 -5 -9 -259 -6 -274 3 -16
10 -13 66 4 100 8 15 15 34 15 41 0 18 57 133 84 170 13 17 26 38 29 49 6 16
4 18 -25 11 -18 -4 -85 -8 -148 -9 -94 -1 -115 -4 -115 -16 0 -8 9 -16 20 -18
11 -2 23 -7 27 -10 8 -8 6 -8 -367 -17 -268 -6 -271 -6 -368 20 -104 27 -130
39 -165 80 -24 27 -30 29 -52 15z m1120 -97 c-1 -5 -19 -39 -40 -78 l-40 -70
0 57 c0 31 -4 60 -10 63 -5 3 -10 13 -10 21 0 10 13 14 50 14 28 0 50 -3 50
-7z m-1018 -55 c-13 -13 -82 -38 -82 -30 0 5 7 23 16 41 l16 31 29 -17 c16 -9
25 -21 21 -25z m1975 -20 c-19 -35 -41 -82 -48 -106 -12 -40 -13 -41 -29 -24
-14 15 -55 139 -55 167 0 9 49 17 143 23 23 2 23 1 -11 -60z m-2137 21 c0 -5
-13 -27 -28 -47 -48 -63 -92 -125 -123 -174 -17 -27 -32 -48 -34 -48 -3 0 2
147 8 230 l3 35 49 -3 c28 -1 64 2 80 7 41 13 45 13 45 0z m1002 -14 c28 -7
28 -7 28 -91 0 -80 -3 -88 -30 -86 -3 0 -53 -5 -110 -12 -58 -7 -114 -13 -125
-13 -11 0 -75 -4 -142 -7 -143 -8 -141 -10 -93 88 54 111 52 110 182 116 228
10 262 11 290 5z m-643 -24 c8 -5 11 -36 8 -97 -3 -89 -3 -89 -31 -94 -56 -10
-407 18 -423 33 -6 7 40 78 66 101 21 19 21 19 21 -8 0 -31 25 -45 49 -28 9 7
25 17 36 22 148 78 150 78 206 78 31 0 62 -3 68 -7z m144 -43 c-19 -29 -44
-72 -54 -95 -10 -24 -21 -43 -24 -43 -3 0 -5 40 -5 89 l0 90 38 4 c88 9 85 13
45 -45z m989 25 c14 -4 12 -13 -14 -71 -42 -90 -51 -98 -44 -37 2 28 5 67 5
89 1 32 4 37 19 31 9 -4 24 -9 34 -12z m124 -1 c19 -7 18 -11 -24 -92 -32 -62
-42 -76 -38 -51 3 18 6 60 6 92 0 63 4 67 56 51z m180 -71 c-14 -32 -26 -64
-26 -70 0 -6 -5 -11 -10 -11 -10 0 -8 20 6 68 5 16 2 22 -10 22 -16 0 -21 -14
-31 -95 -10 -79 -13 -85 -47 -85 -16 0 -28 3 -26 8 71 152 102 205 131 222 42
26 45 12 13 -59z m-104 -5 c-41 -82 -51 -81 -32 3 15 70 16 71 45 71 l25 0
-38 -74z m-177 -103 c-7 -37 -26 -52 -61 -45 -29 5 -32 32 -6 49 11 6 30 33
43 60 l24 48 3 -40 c2 -21 1 -54 -3 -72z m94 1 c-11 -40 -25 -62 -34 -52 -3 3
4 26 16 52 24 56 33 56 18 0z m-583 -14 c8 -18 8 -149 0 -157 -2 -3 -65 -6
-138 -8 -73 -1 -205 -6 -292 -10 l-159 -8 6 37 c3 21 16 59 28 87 21 45 26 49
58 51 20 0 47 2 61 3 14 2 90 6 169 9 80 3 146 8 149 10 2 2 28 4 57 3 39 -1
56 -6 61 -17z m-1058 -5 c3 -2 -19 -16 -49 -29 -29 -14 -55 -24 -56 -22 -2 1
0 17 3 34 6 30 8 31 52 27 25 -3 48 -7 50 -10z m110 -14 c15 6 45 7 69 4 23
-3 82 -6 131 -7 l90 -1 6 -64 c10 -94 3 -102 -91 -101 -43 0 -159 0 -259 -1
-99 -1 -188 1 -198 5 -10 4 -16 15 -14 26 3 20 34 40 113 74 44 19 98 54 104
67 2 5 8 4 13 -1 7 -7 19 -7 36 -1z m1212 -65 c0 -4 -115 -49 -157 -61 -19 -5
-23 -2 -23 17 0 39 18 48 102 48 43 0 78 -2 78 -4z m820 -11 c7 -8 22 -15 34
-15 50 -1 45 -16 -22 -67 -37 -29 -84 -66 -104 -83 l-38 -32 18 39 c11 21 33
68 50 106 34 70 41 77 62 52z m-1123 -105 l41 0 4 -97 c2 -54 3 -100 2 -101
-1 -2 -60 -4 -131 -3 -70 0 -184 -5 -253 -12 -69 -7 -151 -11 -182 -9 l-58 3
0 37 c1 20 6 66 13 102 l12 65 115 3 c63 2 138 7 165 11 28 5 91 7 140 5 50
-2 109 -3 132 -4z m-1087 -30 c19 -1 14 -6 -24 -21 -56 -23 -76 -19 -76 12 0
19 4 21 38 15 20 -3 48 -6 62 -6z m458 -90 c-3 -55 -7 -102 -10 -105 -2 -2
-83 -7 -180 -11 -165 -7 -345 5 -376 25 -7 4 -9 21 -6 42 5 32 12 37 77 67 40
18 77 32 83 32 6 0 26 8 45 17 48 24 95 30 243 32 l129 1 -5 -100z m-485 -159
c15 -1 27 -5 27 -11 0 -10 -91 -60 -110 -60 -5 0 -10 18 -10 40 0 39 1 40 33
36 17 -3 44 -5 60 -5z"/>
</g>
</svg>
