<?xml version="1.0" standalone="no"?>
<!DOCTYPE svg PUBLIC "-//W3C//DTD SVG 20010904//EN"
 "http://www.w3.org/TR/2001/REC-SVG-20010904/DTD/svg10.dtd">
<svg version="1.0" xmlns="http://www.w3.org/2000/svg"
 width="216.000000pt" height="144.000000pt" viewBox="0 0 216.000000 144.000000"
 preserveAspectRatio="xMidYMid meet">
<metadata>
Created by potrace 1.16, written by Peter Selinger 2001-2019
</metadata>
<g transform="translate(0.000000,144.000000) scale(0.100000,-0.100000)"
fill="#000000" stroke="none">
<path d="M388 1219 c-24 -13 -48 -100 -49 -173 0 -34 -4 -81 -7 -106 -6 -41
-9 -44 -36 -45 -37 0 -54 -25 -39 -57 20 -38 25 -113 24 -323 -1 -228 6 -328
23 -322 6 2 12 18 14 35 l3 32 100 -3 c54 -1 99 1 99 5 0 11 44 5 52 -6 5 -7
11 -7 20 2 19 19 48 15 48 -7 0 -32 18 -34 34 -3 13 25 19 28 53 24 21 -2 45
-6 53 -9 8 -3 45 -5 83 -4 73 3 74 2 58 -55 -10 -37 2 -64 29 -64 20 0 23 7
35 82 4 28 11 39 28 42 35 8 265 28 352 32 44 2 124 10 178 17 l98 14 -3 -36
c-2 -26 1 -37 13 -39 15 -3 24 12 43 70 3 11 15 18 31 18 20 0 26 4 23 17 -2
10 -13 19 -25 21 -12 2 -20 9 -18 15 3 7 9 46 14 87 12 99 41 197 80 269 17
33 29 66 25 74 -3 8 4 34 15 56 11 23 23 56 27 74 3 17 17 46 30 63 13 17 24
34 24 39 0 4 -24 5 -52 2 -55 -6 -138 9 -138 24 0 13 -28 11 -32 -2 -3 -8 -70
-13 -208 -16 -113 -2 -221 -9 -240 -14 -19 -5 -43 -9 -53 -9 -17 0 -17 3 5 43
12 23 29 50 36 59 20 24 9 34 -39 36 -23 1 -47 5 -53 10 -19 13 -173 7 -190
-8 -16 -13 -22 -40 -8 -40 4 0 6 -20 4 -45 l-4 -46 -57 6 c-31 3 -102 7 -159
9 -57 3 -109 9 -116 15 -7 6 -24 10 -37 10 -31 -2 -78 17 -106 43 -21 20 -21
22 -5 34 16 12 16 13 -3 20 -11 4 -29 15 -40 25 -15 13 -25 15 -37 8z m782
-100 c0 -4 -7 -23 -16 -44 l-15 -38 -54 6 c-68 7 -75 11 -75 47 0 24 5 29 28
32 46 5 132 3 132 -3z m-720 -37 c24 -24 123 -60 178 -64 6 -1 12 -3 12 -5 0
-10 -230 -94 -240 -88 -5 3 -3 20 5 38 9 22 10 37 3 50 -9 17 -2 97 9 97 2 0
17 -13 33 -28z m1242 -131 l-3 -98 -122 -7 c-67 -4 -158 -6 -202 -5 -44 0
-117 -2 -161 -6 -97 -9 -105 -2 -76 64 11 25 23 58 27 74 4 21 11 27 33 27 15
0 43 5 62 10 19 6 89 13 155 16 66 4 147 10 180 14 33 4 71 8 85 9 l25 1 -3
-99z m185 72 c-8 -10 -43 -76 -76 -148 l-61 -130 -1 105 c-2 103 -1 122 4 168
2 21 5 23 47 17 25 -3 56 -2 70 3 32 12 38 7 17 -15z m-1103 -51 c-1 -7 -2
-39 -2 -72 l-2 -60 -36 0 -35 0 7 73 c5 61 4 70 -7 59 -8 -7 -18 -39 -24 -70
l-10 -57 -53 -3 -53 -3 7 38 c4 21 10 45 15 54 10 20 49 32 49 16 0 -8 3 -7 9
1 4 8 19 19 32 26 31 15 104 14 103 -2z m73 10 c17 -11 -13 -142 -33 -142 -11
0 -14 17 -14 75 0 65 2 75 18 75 9 0 22 -4 29 -8z m65 -34 c-6 -40 13 -29 21
12 4 16 11 30 17 30 7 0 10 -26 8 -72 l-3 -73 -41 -3 c-38 -3 -42 0 -48 23 -6
23 -1 77 9 112 2 6 12 9 23 7 14 -4 17 -12 14 -36z m202 5 c-16 -84 -29 -108
-62 -111 -27 -3 -32 0 -33 20 0 13 -2 43 -4 68 -1 25 0 48 2 53 2 4 27 7 54 7
l50 0 -7 -37z m-561 -60 c-8 -50 -14 -60 -22 -39 -7 19 7 66 20 66 3 0 4 -12
2 -27z m-53 -3 c0 -5 -8 -10 -17 -10 -15 0 -16 2 -3 10 19 12 20 12 20 0z
m-137 -55 c15 -1 43 -3 62 -4 l35 -1 -20 -39 c-18 -36 -93 -223 -118 -296 -8
-24 -10 -9 -10 80 -1 61 -6 137 -11 170 -17 94 -15 109 12 100 12 -4 34 -8 50
-10z m1317 -67 c0 -18 -3 -55 -6 -83 l-6 -50 -117 -4 c-171 -7 -509 -7 -515
-1 -6 6 35 125 48 137 4 4 29 9 54 10 26 1 130 4 232 8 101 3 186 8 189 10 2
3 31 5 63 5 l58 0 0 -32z m-1148 -38 c-6 -75 -17 -115 -32 -115 -12 0 -14 12
-12 50 4 89 11 117 30 113 14 -3 16 -12 14 -48z m66 -33 l3 -78 -28 3 c-27 3
-28 5 -25 53 5 82 12 106 30 103 14 -3 18 -18 20 -81z m54 19 c-2 -33 -8 -54
-14 -50 -5 3 -7 12 -4 20 3 7 1 16 -3 19 -8 4 -6 27 5 63 9 31 19 0 16 -52z
m96 55 c14 -8 16 -20 12 -78 l-5 -68 -34 -3 -33 -3 5 70 c7 92 15 104 55 82z
m289 -26 c-6 -19 -14 -35 -19 -35 -11 0 -10 13 2 44 15 40 30 32 17 -9z m-216
12 c-1 -4 -1 -36 -1 -72 0 -53 -3 -65 -16 -65 -14 0 -15 7 -10 38 3 20 6 54 6
75 0 23 4 37 11 35 6 -2 10 -7 10 -11z m69 -2 c0 -8 5 -15 10 -15 6 0 10 7 10
15 0 9 10 15 26 15 20 0 25 -4 20 -16 -3 -9 -6 -42 -6 -75 l0 -59 -49 0 -49 0
4 43 c9 81 15 107 24 107 6 0 10 -7 10 -15z m-436 -79 c-6 -47 -10 -56 -26
-56 -15 0 -18 4 -13 18 4 9 14 36 22 60 8 24 17 41 19 39 3 -2 2 -30 -2 -61z
m1212 -118 c-3 -24 -5 -50 -5 -58 -1 -25 -99 -38 -256 -34 -77 1 -171 -1 -210
-6 -38 -5 -96 -12 -127 -15 l-58 -6 0 58 c0 32 4 64 9 71 6 10 57 13 217 14
115 0 229 4 254 8 25 4 75 8 112 9 l68 1 -4 -42z m-1223 15 c2 -5 0 -41 -6
-80 l-10 -73 -48 0 c-46 0 -48 1 -40 23 5 12 17 48 27 80 16 51 21 57 45 57
16 0 30 -3 32 -7z m69 -30 c-1 -16 1 -40 6 -54 9 -22 10 -21 16 17 4 22 6 47
4 55 -2 9 8 15 30 17 l32 3 0 -75 0 -76 -31 0 c-19 0 -37 7 -45 18 -13 16 -13
16 -14 0 0 -13 -8 -18 -31 -18 -30 0 -31 1 -25 33 4 17 10 48 13 67 10 56 50
69 45 13z m238 0 c0 -21 -3 -55 -6 -75 -6 -34 -10 -38 -35 -38 -27 0 -29 3
-29 38 0 20 3 54 6 75 6 33 10 37 35 37 27 0 29 -3 29 -37z m-103 5 c-3 -8 -6
-5 -6 6 -1 11 2 17 5 13 3 -3 4 -12 1 -19z m164 -43 c-3 -57 -14 -79 -36 -72
-12 4 -12 34 -2 95 6 33 11 43 24 40 14 -2 16 -14 14 -63z m132 29 c3 -20 3
-49 0 -65 -5 -27 -8 -29 -54 -29 l-49 0 0 43 c0 76 7 87 55 87 41 0 43 -1 48
-36z m-299 -51 c-9 -65 -15 -67 -13 -5 1 29 6 52 11 52 5 0 6 -21 2 -47z
m1011 -80 c3 -36 -7 -42 -80 -48 -247 -21 -325 -27 -448 -32 l-138 -6 7 29 c3
16 12 34 20 40 23 19 201 34 393 33 100 0 186 2 189 6 4 3 17 5 31 3 17 -2 25
-10 26 -25z m-909 -33 c2 -31 6 -34 13 -10 4 14 15 26 24 28 13 3 17 -4 17
-32 l0 -36 -60 0 c-55 0 -60 2 -66 24 -3 14 -3 30 1 36 10 16 70 8 71 -10z
m114 11 c0 -5 15 -5 35 -1 41 9 49 1 40 -40 -6 -28 -9 -30 -55 -30 -52 0 -60
10 -52 58 4 21 32 33 32 13z m-358 -36 c-3 -26 -9 -35 -23 -35 -12 0 -19 7
-19 19 0 11 -3 26 -6 35 -5 12 1 16 23 16 27 0 29 -2 25 -35z m93 18 c-2 -10
-4 -26 -4 -35 -1 -14 -10 -18 -36 -18 -33 0 -35 2 -35 35 0 34 1 35 39 35 32
0 39 -3 36 -17z m45 -13 c0 -27 -4 -31 -27 -29 -8 0 -7 21 2 47 8 24 25 12 25
-18z m-225 3 c-4 -10 -8 -25 -9 -33 -2 -8 -6 -14 -9 -12 -4 1 -24 2 -45 2 -37
0 -38 1 -34 30 4 29 6 30 54 30 44 0 49 -2 43 -17z"/>
</g>
</svg>
