<?xml version="1.0" standalone="no"?>
<!DOCTYPE svg PUBLIC "-//W3C//DTD SVG 20010904//EN"
 "http://www.w3.org/TR/2001/REC-SVG-20010904/DTD/svg10.dtd">
<svg version="1.0" xmlns="http://www.w3.org/2000/svg"
 width="182.000000pt" height="110.000000pt" viewBox="0 0 182.000000 110.000000"
 preserveAspectRatio="xMidYMid meet">
<metadata>
Created by potrace 1.16, written by Peter Selinger 2001-2019
</metadata>
<g transform="translate(0.000000,110.000000) scale(0.100000,-0.100000)"
fill="#000000" stroke="none">
<path d="M1029 1017 c-59 -33 -128 -75 -230 -140 l-60 -38 -167 1 c-111 1
-182 5 -212 15 -81 24 -119 26 -140 5 -33 -33 -62 -174 -75 -366 -4 -69 -2
-85 13 -103 17 -22 23 -22 182 -20 309 4 351 1 378 -27 14 -13 28 -24 33 -24
4 0 26 -18 48 -40 22 -22 47 -40 56 -40 9 0 38 -23 66 -50 27 -28 54 -50 58
-50 4 0 26 17 48 38 22 20 70 62 107 92 36 30 95 80 129 111 184 166 188 169
228 135 28 -24 69 -35 69 -19 0 4 -14 22 -31 39 -44 46 -39 54 68 108 13 6 25
17 28 24 12 32 -91 -5 -129 -47 -11 -12 -23 -21 -27 -21 -11 0 -56 50 -93 102
-51 74 -118 162 -130 173 -6 6 -16 21 -22 35 -19 42 -104 140 -122 140 -9 0
-42 -15 -73 -33z m113 -87 c27 -36 62 -83 78 -106 37 -51 37 -57 3 -50 -16 3
-50 8 -78 11 -46 5 -97 15 -185 36 -58 14 -75 -5 -98 -113 -29 -137 -42 -269
-29 -293 6 -11 10 -27 9 -36 -4 -25 79 -41 212 -41 l113 0 -46 -42 c-25 -23
-67 -59 -93 -79 -40 -32 -48 -35 -48 -20 0 22 -51 73 -97 96 -18 10 -36 23
-40 30 -4 8 -21 22 -38 32 -16 10 -37 27 -45 36 -17 20 -126 35 -239 33 l-63
-1 5 64 c2 35 7 66 9 69 3 2 18 4 34 5 16 1 65 6 109 11 79 10 112 23 84 32
-10 3 -130 12 -217 16 -6 0 9 145 16 152 4 4 63 10 129 13 121 4 123 5 168 40
26 19 51 35 57 35 6 0 40 21 75 48 117 85 128 91 148 89 11 -1 40 -29 67 -67z
m-777 -144 c17 -2 42 -5 56 -5 26 -1 27 -3 18 -38 -5 -21 -9 -55 -9 -75 0 -20
-5 -40 -11 -44 -12 -7 -157 15 -163 25 -4 6 11 114 19 138 3 8 15 11 32 8 15
-3 42 -7 58 -9z m644 -31 l68 -16 -8 -47 c-5 -26 -14 -59 -20 -74 -10 -25 -14
-27 -62 -21 -95 11 -94 10 -83 97 11 86 6 83 105 61z m235 -34 c1 -3 -4 -36
-12 -74 l-15 -67 -66 6 c-65 7 -92 21 -68 36 13 8 14 11 16 68 l1 41 70 -2
c39 -1 72 -5 74 -8z m84 -40 c12 -21 41 -57 64 -80 26 -25 39 -44 33 -49 -6
-5 -48 -40 -94 -78 -71 -58 -84 -65 -78 -44 4 14 10 85 13 158 6 114 9 132 24
132 9 0 26 -17 38 -39z m-948 -105 l35 -1 0 -72 0 -73 -31 0 c-17 0 -66 -3
-109 -7 l-78 -6 6 32 c4 17 14 57 23 87 l16 56 51 -8 c29 -4 68 -8 87 -8z
m604 -21 c21 -3 42 -7 46 -10 4 -3 6 -31 5 -62 -2 -32 -4 -68 -4 -80 -1 -20
-6 -23 -38 -23 -21 0 -55 3 -77 7 l-39 6 6 79 c7 92 11 100 40 93 12 -2 39 -7
61 -10z m222 -90 l-1 -85 -62 0 c-64 0 -72 6 -63 45 1 6 2 31 1 58 -1 26 1 52
4 57 3 6 32 10 65 10 l58 0 -2 -85z"/>
</g>
</svg>
