<?xml version="1.0" standalone="no"?>
<!DOCTYPE svg PUBLIC "-//W3C//DTD SVG 20010904//EN"
 "http://www.w3.org/TR/2001/REC-SVG-20010904/DTD/svg10.dtd">
<svg version="1.0" xmlns="http://www.w3.org/2000/svg"
 width="158.000000pt" height="109.000000pt" viewBox="0 0 158.000000 109.000000"
 preserveAspectRatio="xMidYMid meet">
<metadata>
Created by potrace 1.16, written by Peter Selinger 2001-2019
</metadata>
<g transform="translate(0.000000,109.000000) scale(0.100000,-0.100000)"
fill="#000000" stroke="none">
<path d="M687 1043 c-4 -3 -7 -16 -7 -28 0 -13 -7 -39 -15 -58 -8 -20 -15 -48
-15 -62 0 -14 -6 -25 -12 -26 -51 -3 -234 4 -283 11 -116 18 -225 21 -229 8
-11 -38 -30 -134 -27 -137 1 -2 -4 -8 -13 -13 -25 -14 -20 -53 10 -68 20 -11
29 -12 45 -2 18 12 101 13 472 9 25 0 34 -13 27 -42 -1 -5 -2 -35 -1 -65 1
-31 -5 -73 -12 -95 l-14 -40 -134 0 c-74 -1 -180 -5 -236 -9 l-102 -8 6 38 6
39 -24 -16 c-28 -19 -36 -51 -44 -177 -4 -76 -3 -94 9 -98 8 -3 52 3 98 14 46
11 133 23 193 26 61 4 134 9 163 12 l52 5 0 -44 0 -45 123 -6 c176 -8 556 -19
597 -17 47 3 70 26 69 70 -1 20 6 90 15 156 30 230 37 291 45 446 9 181 6 219
-18 219 -9 0 -22 -5 -29 -12 -21 -21 -530 -15 -627 8 -69 16 -79 17 -88 7z
m91 -60 c-10 -2 -28 -2 -40 0 -13 2 -5 4 17 4 22 1 32 -1 23 -4z m578 -293 c1
-151 -2 -297 -7 -325 -4 -27 -11 -76 -14 -108 l-7 -58 -156 8 c-86 3 -179 6
-207 4 -27 -1 -110 0 -182 4 l-132 7 5 62 c8 87 13 106 28 106 23 0 29 31 7
37 -16 4 -18 9 -11 28 5 13 11 40 14 61 8 48 36 163 66 264 12 41 27 94 33
117 l11 42 51 -3 c27 -2 95 1 150 6 55 5 140 11 189 13 49 3 92 7 95 10 3 3
19 5 36 3 l30 -3 1 -275z m-610 218 c-9 -12 -16 -36 -17 -53 -1 -67 -16 -71
-21 -5 -3 36 -3 68 -1 73 2 4 15 7 29 7 24 0 24 -1 10 -22z m-442 -90 c-3 -80
-5 -87 -21 -90 -42 -9 -51 1 -42 50 7 34 6 48 -3 54 -19 12 -38 -20 -38 -64 0
-35 -2 -38 -29 -38 -30 0 -30 -4 -16 83 l6 38 72 -3 c71 -3 72 -3 71 -30z m84
16 c20 -6 22 -12 20 -55 l-3 -49 -37 0 -36 0 5 43 c8 72 8 72 51 61z m87 -14
c4 -6 4 -29 0 -50 -5 -29 -12 -40 -24 -40 -18 0 -19 10 -5 78 5 23 19 29 29
12z m89 -43 c-1 -27 -4 -50 -5 -52 -2 -2 -16 -1 -30 2 -25 5 -25 6 -15 54 8
42 13 49 31 47 17 -3 20 -10 19 -51z m84 -3 l3 -51 -32 -1 c-30 -1 -31 1 -25
30 3 17 6 42 6 55 0 20 4 24 23 21 19 -3 22 -10 25 -54z m-143 -433 c-5 -34
-12 -51 -21 -51 -20 0 -18 74 2 95 23 23 27 13 19 -44z m88 49 c13 0 17 -9 17
-39 0 -44 -2 -46 -45 -55 l-30 -6 0 55 c0 51 2 55 20 51 11 -3 28 -6 38 -6z
m-328 -63 c-4 -25 -13 -48 -21 -51 -20 -8 -22 43 -3 92 16 41 32 12 24 -41z
m90 16 c-8 -56 -6 -52 -34 -58 -20 -4 -21 -1 -15 33 10 63 15 72 36 72 19 0
20 -4 13 -47z m81 -2 c1 -44 -2 -50 -23 -54 -25 -5 -27 2 -17 66 5 25 12 37
23 37 12 0 16 -11 17 -49z m-246 -23 c-5 -49 -7 -53 -32 -56 -27 -3 -28 -2
-28 46 0 56 4 62 39 62 26 0 26 -1 21 -52z"/>
</g>
</svg>
