<?xml version="1.0" standalone="no"?>
<!DOCTYPE svg PUBLIC "-//W3C//DTD SVG 20010904//EN"
 "http://www.w3.org/TR/2001/REC-SVG-20010904/DTD/svg10.dtd">
<svg version="1.0" xmlns="http://www.w3.org/2000/svg"
 width="168.000000pt" height="153.000000pt" viewBox="0 0 168.000000 153.000000"
 preserveAspectRatio="xMidYMid meet">
<metadata>
Created by potrace 1.16, written by Peter Selinger 2001-2019
</metadata>
<g transform="translate(0.000000,153.000000) scale(0.100000,-0.100000)"
fill="#000000" stroke="none">
<path d="M435 1338 c-17 -5 -58 -7 -92 -6 -34 2 -65 -1 -70 -5 -4 -5 -6 -91
-5 -192 1 -108 -2 -204 -9 -232 -6 -26 -12 -55 -14 -63 -2 -8 -8 -27 -14 -42
-7 -18 -7 -29 0 -33 5 -4 7 -9 5 -13 -4 -7 -14 -120 -20 -227 -2 -27 0 -54 4
-60 17 -23 29 -188 17 -252 -8 -49 1 -54 39 -24 48 38 229 85 401 106 242 29
485 40 510 22 12 -9 29 10 18 21 -4 4 -59 8 -123 8 -104 2 -155 -1 -347 -19
-27 -3 -79 -11 -115 -17 -36 -7 -76 -14 -90 -15 -64 -9 -133 -26 -186 -45 -32
-11 -59 -20 -60 -20 -1 0 -2 45 -3 100 -1 92 1 100 17 92 57 -29 298 -51 574
-53 301 -1 320 -3 359 -27 52 -32 60 -20 64 96 2 56 6 106 9 111 6 10 12 54
21 166 4 47 19 116 36 167 17 47 32 96 34 107 2 11 20 62 41 113 20 51 37 99
37 106 0 7 13 24 29 37 29 24 37 62 16 70 -38 12 -302 22 -473 16 -84 -2 -323
3 -530 13 -28 1 -64 -1 -80 -6z m813 -33 c-3 -3 -177 -22 -283 -30 -38 -3
-110 -12 -160 -20 -49 -7 -124 -17 -165 -20 -41 -4 -106 -13 -145 -21 -38 -8
-78 -16 -87 -18 -15 -3 -13 4 10 50 l27 53 120 1 c66 1 158 0 205 -1 156 -4
354 0 400 9 39 7 87 5 78 -3z m-838 -10 c0 -3 -13 -31 -28 -63 -16 -31 -37
-83 -46 -114 -10 -32 -22 -60 -27 -64 -10 -6 -12 85 -3 174 l7 61 36 4 c20 2
42 4 49 5 6 1 12 0 12 -3z m1044 -26 c3 -3 0 -16 -7 -29 -24 -46 -97 -238
-103 -269 -11 -56 -24 -33 -25 47 -2 106 1 234 7 252 3 13 15 15 63 10 33 -3
62 -8 65 -11z m-170 -60 c-2 -283 -8 -417 -21 -458 -18 -58 -20 -161 -3 -171
8 -5 10 -16 6 -26 -4 -9 -9 -40 -12 -68 -3 -28 -7 -59 -10 -69 -3 -10 1 -20
10 -23 20 -8 21 -31 1 -31 -8 0 -12 4 -10 8 10 16 -62 22 -315 25 -408 6 -566
24 -648 74 -39 24 -39 24 -12 225 20 151 47 271 92 399 l23 70 67 17 c37 9
113 19 170 23 94 6 101 5 78 -8 -14 -9 -33 -15 -42 -16 -10 0 -18 -4 -18 -9 0
-5 -14 -15 -32 -22 -42 -17 -151 -126 -170 -170 -36 -81 -40 -98 -45 -166 -7
-89 18 -152 71 -177 18 -9 39 -23 46 -31 15 -18 87 -55 106 -55 6 0 16 6 23
13 8 10 33 12 93 9 83 -4 186 17 244 51 76 44 131 124 159 232 31 121 11 207
-63 277 -55 53 -116 88 -150 88 -13 0 -21 4 -18 9 3 4 38 11 78 15 40 3 105 9
143 12 39 3 86 10 105 14 19 4 40 7 45 6 6 -2 10 -32 9 -67z m-413 -34 c90
-17 199 -146 199 -234 0 -91 -61 -246 -111 -282 -71 -50 -157 -66 -321 -59
-65 3 -67 3 -116 54 -68 70 -78 105 -62 220 23 169 59 212 232 276 32 12 60
25 63 29 5 9 60 7 116 -4z"/>
</g>
</svg>
