<?xml version="1.0" standalone="no"?>
<!DOCTYPE svg PUBLIC "-//W3C//DTD SVG 20010904//EN"
 "http://www.w3.org/TR/2001/REC-SVG-20010904/DTD/svg10.dtd">
<svg version="1.0" xmlns="http://www.w3.org/2000/svg"
 width="324.000000pt" height="125.000000pt" viewBox="0 0 324.000000 125.000000"
 preserveAspectRatio="xMidYMid meet">
<metadata>
Created by potrace 1.16, written by Peter Selinger 2001-2019
</metadata>
<g transform="translate(0.000000,125.000000) scale(0.100000,-0.100000)"
fill="#000000" stroke="none">
<path d="M775 1153 c-25 -27 -45 -51 -45 -55 0 -5 -4 -8 -10 -8 -5 0 -10 11
-10 25 0 18 -5 25 -19 25 -24 0 -31 -19 -38 -100 -3 -36 -9 -69 -14 -74 -5 -6
-41 -5 -91 2 -140 19 -300 29 -353 23 -40 -5 -52 -11 -62 -31 -10 -22 -25
-148 -24 -205 0 -10 -4 -25 -10 -31 -7 -8 -7 -14 1 -19 6 -3 10 -46 10 -102
l0 -95 27 7 c16 3 55 8 89 9 33 2 65 6 71 9 6 4 53 4 104 1 52 -3 123 -7 159
-9 36 -2 68 -4 71 -4 7 -1 7 -1 10 -135 2 -108 1 -110 -25 -131 -55 -44 -22
-41 70 6 59 31 105 49 122 47 19 -2 27 2 30 17 5 21 21 35 62 57 14 7 34 20
45 30 25 21 170 131 238 180 29 20 57 37 64 38 7 0 27 -21 44 -47 111 -163
254 -353 271 -361 3 -2 25 -27 47 -55 29 -38 39 -59 35 -74 -10 -37 32 -38
132 -2 49 17 121 42 159 55 39 13 84 31 102 39 17 8 107 40 199 70 92 31 202
71 243 89 42 18 94 36 117 40 36 6 44 4 90 -32 27 -22 59 -43 72 -46 12 -4 43
-25 68 -47 25 -21 53 -43 64 -49 10 -5 28 -26 40 -45 35 -57 64 -43 40 20 -7
18 -5 42 5 83 18 68 64 189 82 217 7 11 13 27 13 36 0 9 6 19 13 22 7 2 21 21
32 40 15 29 16 38 6 51 -13 16 -22 14 -88 -15 -24 -10 -46 -19 -51 -19 -4 0
-13 -5 -20 -12 -7 -7 -31 -12 -55 -11 -23 1 -31 -1 -18 -4 22 -4 18 -8 -35
-34 -32 -16 -88 -41 -123 -55 -36 -14 -72 -30 -80 -35 -42 -24 -332 -124 -551
-189 -135 -41 -267 -85 -325 -110 -53 -23 -59 -24 -50 -10 8 13 7 194 -1 302
l-6 83 49 12 c26 7 58 15 71 19 34 10 29 -10 -38 -145 -65 -133 -65 -131 -50
-131 6 0 10 6 10 13 0 6 7 26 16 42 9 17 37 69 61 117 29 60 49 88 61 88 15 0
17 -11 16 -93 -1 -50 -5 -113 -9 -139 -5 -34 -4 -48 4 -48 6 0 11 4 11 10 0 5
23 49 51 97 72 126 71 124 102 164 15 20 27 42 27 48 0 10 -70 17 -122 13 -15
-1 -15 1 -3 26 7 15 30 66 51 115 20 48 40 87 42 87 15 0 362 -116 408 -136
30 -13 116 -39 191 -59 191 -48 196 -49 123 -20 -35 15 -85 30 -110 35 -25 5
-74 20 -110 34 -36 13 -141 52 -234 85 -190 69 -267 101 -413 172 -56 27 -106
49 -113 49 -6 0 -9 4 -6 9 3 5 0 8 -7 8 -6 -1 -38 5 -70 12 -61 15 -82 10 -51
-13 12 -10 16 -18 9 -24 -50 -46 -314 -232 -331 -232 -3 0 -24 -16 -46 -35
-48 -41 -52 -40 -128 43 -204 221 -257 289 -310 405 -12 26 -29 47 -36 47 -8
0 -35 -21 -59 -47z m136 -130 c24 -32 75 -92 113 -133 39 -42 80 -87 91 -100
11 -14 42 -51 70 -84 40 -47 46 -59 34 -66 -9 -5 -44 -30 -80 -57 -114 -84
-283 -193 -291 -185 -4 4 -3 40 2 81 6 40 7 77 4 82 -9 16 8 79 22 79 8 0 14
3 14 7 0 9 -32 43 -40 43 -16 0 -31 -61 -35 -141 -3 -46 -8 -109 -12 -139 -8
-57 -20 -69 -83 -83 l-25 -6 1 187 c1 103 7 234 13 291 6 57 11 137 11 178 l0
75 28 -6 c72 -17 138 -41 145 -53 12 -20 26 -15 20 7 -4 15 -24 26 -74 41 -38
12 -72 25 -75 30 -3 5 12 27 33 49 l38 39 17 -39 c9 -22 36 -65 59 -97z m-685
-77 c-3 -12 -6 -24 -6 -28 0 -5 -14 -8 -30 -8 -28 0 -29 1 -18 23 16 27 24 34
44 34 11 0 14 -7 10 -21z m1566 -6 c34 -16 69 -30 78 -30 8 0 27 -8 40 -17 24
-17 24 -17 -70 -30 -52 -7 -125 -16 -162 -21 -37 -4 -71 -12 -75 -16 -5 -4 3
-17 17 -28 13 -11 31 -36 39 -56 18 -44 23 -181 7 -201 -8 -10 -6 -17 8 -26
16 -12 18 -34 22 -199 2 -102 0 -186 -4 -186 -4 0 -35 28 -68 62 -60 62 -107
125 -206 275 -28 43 -70 101 -94 130 -24 28 -44 54 -44 58 0 11 52 55 66 55 7
0 14 3 16 8 2 4 21 19 43 33 70 45 157 103 185 124 15 11 47 34 71 50 24 17
46 33 47 38 6 12 19 8 84 -23z m-1294 4 c33 -4 42 -9 42 -25 0 -14 -7 -19 -25
-19 -18 0 -23 4 -19 15 4 8 2 15 -4 15 -5 0 -12 -7 -16 -15 -7 -18 -66 -20
-85 -2 -11 10 -14 10 -18 0 -3 -7 -16 -13 -29 -13 -13 0 -24 -4 -24 -10 0 -5
12 -10 26 -10 20 0 25 -4 20 -16 -3 -9 -6 -25 -6 -36 0 -17 -5 -20 -30 -16
-23 4 -30 1 -30 -12 0 -13 7 -16 30 -12 28 4 30 2 30 -27 0 -28 -3 -31 -30
-31 -16 0 -30 -4 -30 -10 0 -5 11 -10 24 -10 31 0 39 -13 31 -49 -5 -22 -13
-30 -36 -33 -16 -3 -32 -1 -35 4 -3 4 -18 8 -34 8 -15 0 -31 6 -33 13 -4 9 -8
9 -15 -1 -10 -14 -44 -13 -43 1 1 4 1 18 1 32 0 20 5 25 25 25 17 0 25 -6 25
-17 1 -17 1 -17 11 0 6 10 22 17 39 17 17 0 30 5 30 10 0 6 -13 10 -30 10 -28
0 -30 3 -30 36 0 35 1 36 30 32 20 -3 30 0 30 8 0 7 -12 14 -27 16 -22 2 -28
8 -28 28 0 22 4 25 38 24 28 -1 37 3 37 15 0 13 -7 16 -35 13 -27 -3 -35 0
-35 11 0 44 7 46 113 41 56 -3 121 -7 145 -10z m96 -29 c-4 -8 -12 -15 -20
-15 -8 0 -14 7 -14 15 0 8 9 15 20 15 13 0 18 -5 14 -15z m56 1 c0 -17 -32
-15 -38 2 -2 7 6 12 17 12 12 0 21 -6 21 -14z m0 -61 c0 -28 -4 -35 -20 -35
-36 0 -19 65 18 70 1 0 2 -16 2 -35z m-438 -5 c-3 -23 -9 -30 -26 -30 -30 0
-34 6 -28 35 3 19 11 25 31 25 25 0 27 -3 23 -30z m246 -2 c-3 -29 -7 -33 -35
-36 -30 -3 -33 -1 -33 26 0 36 6 42 42 42 27 0 29 -3 26 -32z m72 -3 c0 -31
-3 -35 -25 -35 -22 0 -25 4 -25 35 0 31 3 35 25 35 22 0 25 -4 25 -35z m58 8
c-2 -17 -10 -29 -20 -31 -14 -3 -18 3 -18 27 0 25 4 31 21 31 16 0 20 -5 17
-27z m1429 -27 c8 -8 -22 -96 -49 -144 -10 -18 -18 -39 -18 -47 0 -8 -5 -15
-12 -15 -6 0 -9 3 -6 6 3 3 0 29 -8 57 -17 65 -18 129 -1 146 12 12 81 10 94
-3z m-177 -18 c0 -7 -15 -38 -34 -68 -19 -31 -45 -83 -57 -116 -31 -86 -39
-88 -39 -6 0 48 -7 88 -20 123 -12 28 -19 53 -18 54 2 1 26 7 53 13 72 14 115
14 115 0z m-1630 -38 c0 -26 -3 -29 -25 -28 -20 2 -25 8 -25 30 0 23 4 28 25
28 21 0 25 -5 25 -30z m1673 12 c-2 -10 3 -51 11 -92 21 -97 20 -100 -7 -100
-13 0 -46 -7 -72 -15 -27 -8 -50 -13 -51 -12 -2 1 7 32 19 68 28 84 119 220
100 151z m-1432 1 c0 -5 2 -18 5 -30 3 -20 0 -23 -31 -23 -32 0 -35 2 -35 30
0 27 3 30 30 30 17 0 30 -3 31 -7z m71 -23 c-3 -21 -10 -30 -23 -30 -14 0 -19
7 -19 30 0 25 4 30 23 30 20 0 23 -4 19 -30z m58 0 c0 -19 -5 -30 -14 -30 -17
0 -25 18 -18 43 8 29 32 20 32 -13z m58 -8 c2 -23 -1 -32 -12 -32 -21 0 -29
17 -22 46 9 34 30 25 34 -14z m-188 -54 c0 -5 0 -21 0 -38 0 -28 -3 -30 -35
-30 -37 0 -42 9 -29 56 4 16 13 21 35 20 16 -1 29 -4 29 -8z m66 -10 c-3 -13
-6 -31 -6 -40 0 -12 -8 -18 -21 -18 -17 0 -20 4 -15 23 3 12 6 30 6 40 0 11 8
17 21 17 17 0 20 -4 15 -22z m63 8 c6 -7 10 -25 9 -40 -2 -21 -7 -26 -30 -26
-30 0 -34 12 -18 54 11 29 22 33 39 12z m56 -37 c0 -14 -7 -25 -16 -27 -12 -2
-15 4 -11 28 5 36 27 35 27 -1z m-442 -62 c2 -7 0 -23 -5 -36 -8 -23 -9 -24
-23 -5 -15 20 -19 46 -9 57 8 8 32 -2 37 -16z m155 -4 c6 -9 9 -20 4 -25 -9
-9 -129 -21 -141 -14 -4 3 -6 18 -4 33 4 28 6 28 66 26 45 -2 65 -8 75 -20z
m92 4 c0 -4 0 -14 0 -22 0 -20 -46 -20 -54 1 -3 9 -3 20 0 25 6 11 55 7 54 -4z
m73 -8 c3 -12 10 -18 17 -14 6 4 9 13 6 21 -4 10 3 14 23 14 20 0 30 -6 34
-19 7 -30 -12 -41 -70 -41 -49 0 -53 2 -53 23 0 41 33 53 43 16z m122 -12 c1
-16 -5 -27 -12 -27 -8 0 -13 12 -13 31 0 20 4 29 13 27 6 -3 12 -17 12 -31z
m2388 -57 c-39 -83 -70 -166 -82 -221 -9 -39 -18 -59 -30 -59 -4 0 -31 20 -60
45 -29 25 -57 45 -63 45 -6 0 -36 18 -66 41 l-54 41 31 19 c17 10 36 19 41 19
6 0 54 21 107 46 54 26 111 47 126 47 15 0 26 5 24 11 -3 9 53 49 60 42 1 -1
-14 -35 -34 -76z m-1024 -47 c-23 -43 -46 -82 -50 -87 -5 -6 -9 -18 -9 -28 0
-10 -4 -18 -9 -18 -6 0 -6 12 1 31 6 17 8 46 5 66 -4 20 -1 53 6 74 11 37 14
39 55 39 l43 0 -42 -77z"/>
</g>
</svg>
