<?xml version="1.0" standalone="no"?>
<!DOCTYPE svg PUBLIC "-//W3C//DTD SVG 20010904//EN"
 "http://www.w3.org/TR/2001/REC-SVG-20010904/DTD/svg10.dtd">
<svg version="1.0" xmlns="http://www.w3.org/2000/svg"
 width="233.000000pt" height="135.000000pt" viewBox="0 0 233.000000 135.000000"
 preserveAspectRatio="xMidYMid meet">
<metadata>
Created by potrace 1.16, written by Peter Selinger 2001-2019
</metadata>
<g transform="translate(0.000000,135.000000) scale(0.100000,-0.100000)"
fill="#000000" stroke="none">
<path d="M251 1147 c-11 -28 -11 -288 0 -302 4 -5 10 -64 14 -130 7 -129 -13
-400 -41 -554 -13 -70 -14 -88 -3 -108 11 -21 18 -24 44 -19 16 4 37 15 45 25
23 29 111 77 177 96 32 10 77 24 100 32 24 8 81 16 127 18 80 2 85 1 88 -19 5
-32 46 -34 53 -3 l7 24 216 2 c119 0 227 3 238 5 12 2 91 7 175 11 85 4 157 9
161 11 4 3 62 5 128 5 111 1 123 -1 141 -20 36 -38 41 -31 44 59 1 47 22 267
29 310 2 14 7 46 11 71 7 56 69 236 89 258 7 9 25 39 40 68 27 53 54 86 96
114 33 22 20 33 -33 30 -82 -4 -337 -40 -355 -50 -10 -5 -166 -11 -358 -13
-269 -2 -344 0 -357 10 -11 9 -17 10 -22 2 -5 -8 -66 -10 -214 -5 -113 3 -213
8 -221 10 -8 2 -62 9 -120 15 -122 13 -228 37 -251 56 -23 20 -38 17 -48 -9z
m1915 -69 c-48 -67 -113 -168 -133 -208 -13 -25 -23 -43 -23 -40 0 3 -3 37 -5
75 -6 97 -23 157 -44 153 -11 -3 -16 -14 -16 -41 0 -35 -2 -37 -31 -37 -17 0
-60 -9 -94 -20 -70 -22 -120 -26 -137 -9 -8 8 -17 8 -31 0 -39 -21 -70 -13
-88 22 -9 17 -25 38 -35 45 -11 7 -19 17 -19 21 0 4 75 8 168 10 92 1 205 8
252 16 47 7 114 16 149 20 36 3 67 8 69 10 3 3 12 5 20 5 12 0 12 -4 -2 -22z
m-1695 -18 c25 0 68 -3 94 -7 l47 -6 -83 -32 c-46 -17 -113 -47 -149 -66 -36
-18 -68 -35 -71 -37 -4 -2 -5 169 0 175 0 0 27 -5 59 -13 31 -7 78 -13 103
-14z m336 -34 c-3 -8 -9 -31 -13 -50 -5 -29 -11 -36 -30 -36 -31 0 -35 10 -17
48 9 18 13 35 10 38 -11 11 -27 -7 -38 -46 -10 -33 -17 -40 -37 -40 -18 0 -23
4 -18 16 3 9 6 21 6 28 0 7 8 21 19 32 24 26 127 34 118 10z m169 -17 c-3 -17
-6 -38 -6 -45 0 -9 -12 -14 -36 -14 -32 0 -36 3 -30 20 3 11 9 29 12 40 11 36
-13 21 -31 -20 -14 -31 -24 -40 -43 -40 -23 0 -24 2 -17 37 4 21 9 41 11 45 3
5 37 8 76 8 l71 0 -7 -31z m102 -11 c-3 -38 -6 -43 -29 -46 -23 -3 -25 -1 -21
34 3 24 0 39 -9 45 -9 6 -1 9 24 9 l38 0 -3 -42z m200 27 c2 -2 -9 -21 -25
-44 -27 -40 -30 -41 -78 -38 -49 2 -50 3 -53 35 -5 55 -1 58 79 54 41 -2 75
-6 77 -7z m67 -42 c-11 -45 -14 -48 -49 -51 -42 -4 -43 1 -15 48 24 39 37 50
60 50 14 0 14 -6 4 -47z m132 -3 c12 -14 22 -29 23 -35 0 -5 -25 -11 -55 -11
l-55 -2 0 43 c0 23 3 44 6 48 10 10 57 -15 81 -43z m-829 0 c-11 -41 -15 -44
-42 -34 -12 5 -14 10 -6 19 18 22 -6 26 -25 5 -10 -11 -25 -20 -33 -20 -8 0
-12 -6 -9 -15 4 -10 -3 -16 -26 -19 -57 -9 -127 -15 -127 -11 0 11 233 113
261 114 15 1 16 -4 7 -39z m357 0 c-4 -17 -9 -30 -11 -27 -2 2 -1 18 2 36 4
17 9 30 11 27 3 -2 2 -19 -2 -36z m918 -44 c26 -6 27 -9 27 -66 l0 -60 -73 0
-73 0 -35 48 c-46 63 -45 62 -7 62 18 0 51 6 73 14 21 8 44 12 50 11 5 -2 22
-6 38 -9z m-1062 -28 c7 -66 -8 -107 -38 -108 -14 0 -19 101 -6 113 11 12 43
8 44 -5z m96 -5 c-3 -10 -8 -34 -11 -54 -5 -29 -12 -38 -31 -41 -23 -5 -25 -3
-25 38 0 61 8 74 42 74 23 0 28 -4 25 -17z m97 11 c10 -4 16 -18 16 -39 0 -46
-9 -65 -31 -65 -16 0 -19 8 -19 55 0 55 4 61 34 49z m-418 -49 c2 -57 -4 -65
-43 -65 l-36 0 7 46 c8 59 12 66 44 62 24 -3 27 -7 28 -43z m75 35 c0 -3 1
-25 2 -50 2 -44 1 -45 -30 -48 l-31 -3 5 43 c2 24 6 48 8 53 3 11 44 15 46 5z
m75 -21 c-3 -17 -6 -42 -6 -55 0 -19 -5 -24 -25 -24 -25 0 -26 2 -21 43 3 23
5 48 5 55 1 6 13 12 27 12 24 0 26 -3 20 -31z m214 -19 c0 -38 -4 -50 -15 -50
-16 0 -20 36 -9 78 11 39 24 24 24 -28z m200 43 c0 -4 -8 -27 -17 -50 -13 -32
-24 -43 -40 -43 -26 0 -30 9 -25 61 4 38 5 39 43 39 21 0 39 -3 39 -7z m310
-32 c0 -67 -5 -71 -76 -71 -63 0 -64 0 -64 28 0 70 11 79 93 81 l47 1 0 -39z
m100 27 c0 -27 -21 -88 -30 -88 -6 0 -10 23 -10 50 0 43 3 50 20 50 11 0 20
-6 20 -12z m120 -80 c0 -5 -23 -8 -51 -8 l-51 0 7 33 c15 75 14 75 56 26 21
-24 39 -47 39 -51z m-413 32 l-10 -50 -54 0 c-52 0 -54 1 -47 23 19 64 33 77
78 77 l43 0 -10 -50z m-772 -9 c-6 -35 -10 -41 -32 -41 -19 0 -24 4 -19 16 8
20 50 73 54 68 2 -1 1 -21 -3 -43z m-51 27 c-4 -7 -33 -49 -64 -93 -32 -44
-63 -91 -69 -104 -17 -31 -26 -18 -39 60 -20 111 -17 127 21 137 17 5 60 10
95 11 49 1 62 -1 56 -11z m1456 -109 c0 -23 -5 -28 -32 -32 -18 -3 -52 -9 -75
-12 -41 -7 -43 -6 -43 16 0 45 20 54 118 55 28 0 32 -3 32 -27z m-1097 12 c8
-1 10 -63 1 -85 -4 -10 -18 -16 -35 -16 -29 0 -29 1 -23 43 8 61 11 66 31 62
10 -2 21 -4 26 -4z m75 -49 c3 -47 1 -52 -17 -52 -18 0 -21 6 -21 48 0 27 3
52 7 56 16 16 28 -4 31 -52z m66 26 c-11 -66 -15 -78 -24 -78 -6 0 -10 25 -10
55 0 48 2 55 20 55 16 0 19 -5 14 -32z m66 -23 c0 -55 0 -55 -31 -55 -30 0
-31 2 -25 31 3 17 6 42 6 55 0 19 5 24 25 24 24 0 25 -3 25 -55z m83 49 c3 -3
1 -18 -6 -32 -17 -41 -24 -46 -21 -15 1 15 2 34 3 41 1 13 14 16 24 6z m431
-42 c-6 -27 -11 -32 -35 -32 -36 0 -36 4 -3 47 30 40 47 33 38 -15z m168 13
c-2 -16 -6 -32 -8 -34 -2 -2 -27 -4 -56 -5 -49 -1 -53 1 -55 24 -3 46 3 51 64
48 58 -3 58 -3 55 -33z m-1216 -17 c-3 -24 -5 -46 -5 -50 -1 -5 -14 -8 -31 -8
-28 0 -30 2 -30 38 0 44 14 62 48 62 22 0 24 -3 18 -42z m100 -5 c-7 -53 -7
-53 -33 -57 -34 -6 -50 10 -46 46 7 54 11 58 49 58 l37 0 -7 -47z m79 10 c-10
-59 -13 -63 -41 -63 -22 0 -25 3 -20 23 3 12 6 34 6 50 0 23 4 27 30 27 30 0
31 -1 25 -37z m68 0 c-6 -55 -10 -63 -33 -63 -19 0 -25 11 -20 35 1 5 3 21 5
35 4 32 1 30 29 30 22 0 23 -3 19 -37z m527 13 c21 -55 -9 -76 -112 -76 l-36
0 16 50 16 50 53 0 c47 0 55 -3 63 -24z m175 -3 c-4 -16 -11 -34 -17 -40 -11
-14 -67 -18 -69 -5 0 4 -2 16 -5 27 -7 36 4 45 52 45 45 0 46 0 39 -27z
m-1043 -43 c-2 -17 -10 -30 -18 -30 -17 0 -17 2 -2 35 15 34 26 32 20 -5z
m1503 -20 c3 -5 3 -25 0 -44 l-7 -34 -76 -4 c-43 -2 -79 -2 -81 -1 -2 2 1 21
8 42 12 43 17 45 103 49 26 1 49 -2 53 -8z m-369 -16 c-3 -9 -6 -33 -6 -55 0
-34 -3 -39 -23 -39 -13 0 -36 13 -52 30 -24 25 -26 31 -14 46 27 33 107 48 95
18z m160 -16 c-8 -42 -35 -68 -74 -73 -34 -4 -36 -1 -32 60 3 43 6 45 62 45
l51 0 -7 -32z m-301 12 c-3 -5 -13 -10 -21 -10 -8 0 -12 5 -9 10 3 6 13 10 21
10 8 0 12 -4 9 -10z m-574 -21 c1 -5 2 -16 2 -24 0 -61 -2 -65 -33 -65 -29 0
-30 1 -30 49 0 31 5 51 13 54 16 5 47 -3 48 -14z m79 4 c0 -10 -3 -35 -6 -55
-5 -29 -11 -38 -26 -38 -18 0 -20 4 -13 48 4 26 9 50 12 55 9 14 33 7 33 -10z
m378 -34 l3 -46 -53 -6 c-95 -12 -131 -9 -124 9 3 9 6 31 6 49 l0 34 68 4
c102 5 97 7 100 -44z m-796 -23 c-4 -43 -6 -46 -32 -46 -27 0 -29 2 -25 38 1
20 3 42 4 49 1 14 32 22 46 12 6 -4 9 -28 7 -53z m174 26 c-12 -65 -16 -72
-43 -72 -25 0 -25 2 -19 46 7 57 9 59 41 62 26 2 27 0 21 -36z m74 -17 l0 -55
-35 0 c-33 0 -34 1 -29 33 12 74 14 77 39 77 24 0 25 -3 25 -55z m217 20 c-3
-19 -2 -35 3 -35 5 0 10 15 12 33 2 26 8 33 29 35 32 4 40 -13 32 -62 -5 -31
-9 -36 -32 -36 -15 0 -32 5 -39 12 -9 9 -12 9 -12 0 0 -7 -4 -12 -10 -12 -7 0
-7 61 0 98 0 1 5 2 11 2 8 0 10 -12 6 -35z m-557 -23 c0 -27 -2 -51 -4 -53 -3
-3 -23 -3 -44 -1 -35 3 -39 6 -33 26 10 34 44 75 64 76 14 0 17 -9 17 -48z
m185 1 c-10 -41 -16 -48 -39 -51 -25 -3 -26 -2 -26 47 l0 51 38 0 39 0 -12
-47z m799 -9 c20 -8 11 -24 -15 -24 -10 0 -19 7 -19 15 0 16 9 19 34 9z m494
-30 c16 -11 22 -24 20 -42 -3 -22 -11 -28 -50 -38 -27 -6 -85 -15 -130 -19
l-83 -7 51 52 c45 45 58 53 105 60 30 4 56 8 59 9 3 0 16 -6 28 -15z m-440
-62 l3 -42 -61 0 c-53 0 -61 2 -56 16 3 9 9 26 12 39 5 19 14 25 42 28 55 5
57 4 60 -41z m100 -22 c-2 -14 -9 -25 -18 -25 -16 0 -19 49 -5 83 6 15 8 14
16 -8 6 -13 9 -36 7 -50z m112 60 c0 -6 -12 -23 -27 -38 -30 -30 -44 -16 -22
24 12 24 49 34 49 14z m-370 -27 c0 -44 -11 -51 -80 -58 -36 -3 -75 -8 -87
-11 -20 -4 -23 0 -23 23 0 54 13 59 173 72 12 1 17 -6 17 -26z m-467 10 c3 -5
2 -23 0 -40 -4 -27 -10 -33 -29 -33 -26 0 -27 2 -18 49 6 29 35 44 47 24z m70
-40 c-4 -23 -11 -33 -23 -33 -15 0 -17 6 -13 33 5 32 22 52 34 39 4 -4 5 -22
2 -39z m60 -5 c-3 -24 -11 -38 -19 -38 -10 0 -13 10 -10 35 2 19 8 39 11 46
13 20 23 -5 18 -43z m75 39 c1 -4 2 -23 2 -42 0 -32 -2 -35 -30 -35 -26 0 -30
3 -30 29 0 16 2 36 5 43 5 14 48 18 53 5z m-528 -37 c0 -38 -2 -40 -30 -40
-28 0 -30 3 -30 34 0 35 1 35 53 45 4 0 7 -17 7 -39z m160 31 c0 -5 -3 -23 -6
-40 -6 -26 -11 -31 -36 -31 -23 0 -29 4 -24 16 3 9 6 24 6 34 0 17 15 26 48
29 6 0 12 -3 12 -8z m82 -26 c-3 -23 -11 -36 -23 -40 -27 -9 -36 0 -37 40 -1
33 0 35 31 35 32 0 33 -1 29 -35z m-342 -16 c0 -33 -3 -40 -16 -35 -9 3 -28 6
-43 6 -25 0 -28 3 -23 28 6 32 18 42 55 42 25 0 27 -3 27 -41z m171 9 c-4 -20
-14 -34 -24 -36 -13 -3 -17 4 -17 32 0 31 3 36 24 36 21 0 23 -3 17 -32z
m1318 -37 c23 -18 23 -19 5 -28 -50 -25 -308 -65 -368 -57 -25 4 -46 9 -46 11
0 2 7 17 15 33 17 33 45 39 65 15 11 -14 15 -14 32 2 15 13 50 21 136 29 65 6
122 12 127 12 6 1 21 -7 34 -17z m-616 -22 c-6 -6 -9 -26 -6 -44 l5 -32 -88
-7 c-96 -7 -109 -1 -98 44 8 33 8 33 62 41 82 11 137 10 125 -2z m167 5 c0 -4
-9 -22 -21 -40 -15 -26 -28 -34 -49 -34 -29 0 -40 15 -40 56 0 22 3 24 55 24
30 0 55 -3 55 -6z m-792 -57 c3 -45 2 -47 -22 -47 -15 0 -26 1 -27 3 0 1 -2
21 -5 44 -5 34 -3 42 13 46 32 8 38 1 41 -46z m102 41 c0 -7 -3 -30 -6 -50 -6
-34 -10 -38 -35 -38 -28 0 -29 2 -29 50 l0 50 35 0 c21 0 35 -5 35 -12z m60
-15 c0 -38 -10 -73 -21 -73 -5 0 -9 23 -9 50 0 38 4 50 15 50 10 0 15 -10 15
-27z m64 -9 c-3 -57 -4 -62 -17 -67 -13 -5 -16 31 -9 91 4 27 27 5 26 -24z
m-379 -16 c-9 -54 -12 -58 -36 -58 -16 0 -19 7 -19 44 0 44 7 54 43 55 17 1
18 -4 12 -41z m67 10 c5 -49 -1 -68 -23 -68 -15 0 -19 7 -19 34 0 68 34 95 42
34z m377 -5 c-5 -21 -9 -41 -9 -45 0 -5 -5 -8 -10 -8 -6 0 -10 19 -8 45 2 34
7 45 19 45 14 0 16 -6 8 -37z m81 -8 c0 -44 -1 -45 -31 -45 -30 0 -31 2 -25
31 3 17 6 38 6 45 0 8 10 14 25 14 23 0 25 -4 25 -45z m-622 -7 l-3 -43 -47
-3 -48 -3 0 39 c0 21 3 42 7 45 3 4 26 7 50 7 l44 0 -3 -42z m1483 -8 c10 -6
19 -19 19 -30 0 -16 -5 -19 -31 -13 -16 3 -40 1 -52 -5 -12 -6 -65 -13 -117
-16 -339 -20 -316 -20 -301 -2 26 31 55 39 166 47 143 10 249 21 254 25 8 8
43 4 62 -6z m-511 -37 c0 -5 -13 -17 -27 -27 -18 -14 -53 -22 -112 -27 -135
-12 -139 -12 -146 12 -10 31 9 39 103 39 66 0 82 -3 82 -15 0 -26 48 -22 68 6
13 19 32 26 32 12z m-358 -19 c15 -14 -5 -40 -33 -42 -32 -3 -34 0 -19 29 10
18 40 26 52 13z m-372 -8 c0 -2 3 -11 6 -20 5 -12 0 -16 -19 -16 -28 0 -42 14
-32 30 6 10 45 15 45 6z m93 -16 c-3 -13 -14 -20 -29 -20 -26 0 -27 1 -18 24
3 9 16 16 29 16 18 0 22 -4 18 -20z m67 6 c0 -8 -4 -17 -9 -21 -12 -7 -24 12
-16 25 9 15 25 12 25 -4z m60 -6 c0 -11 -4 -20 -10 -20 -5 0 -10 9 -10 20 0
11 5 20 10 20 6 0 10 -9 10 -20z m63 0 c-3 -11 -9 -17 -14 -15 -10 7 -1 35 11
35 5 0 6 -9 3 -20z m-533 -10 c0 -16 -7 -20 -32 -20 -18 0 -41 7 -52 15 -17
13 -15 14 20 18 22 2 45 4 52 5 6 1 12 -7 12 -18z m115 9 c6 0 20 3 33 6 18 6
21 4 16 -9 -12 -32 -116 -35 -122 -2 -3 16 0 18 30 12 18 -3 38 -7 43 -7z
m-115 -69 l45 -1 -85 -44 c-46 -24 -86 -42 -89 -40 -6 7 -3 74 5 87 4 6 21 8
43 4 20 -3 56 -6 81 -6z"/>
</g>
</svg>
