<?xml version="1.0" standalone="no"?>
<!DOCTYPE svg PUBLIC "-//W3C//DTD SVG 20010904//EN"
 "http://www.w3.org/TR/2001/REC-SVG-20010904/DTD/svg10.dtd">
<svg version="1.0" xmlns="http://www.w3.org/2000/svg"
 width="141.000000pt" height="108.000000pt" viewBox="0 0 141.000000 108.000000"
 preserveAspectRatio="xMidYMid meet">
<metadata>
Created by potrace 1.16, written by Peter Selinger 2001-2019
</metadata>
<g transform="translate(0.000000,108.000000) scale(0.100000,-0.100000)"
fill="#000000" stroke="none">
<path d="M365 973 c-12 -68 -9 -66 -84 -59 -60 5 -70 3 -86 -14 -9 -10 -16
-32 -15 -47 1 -15 2 -175 3 -355 2 -289 6 -353 21 -337 2 2 8 90 11 194 7 162
11 257 14 312 1 7 7 10 15 7 9 -3 29 20 57 66 l44 71 13 -31 c6 -16 18 -30 25
-30 21 0 16 -30 -10 -56 -19 -20 -23 -33 -23 -91 0 -37 -7 -105 -15 -149 -8
-45 -17 -123 -21 -174 -6 -84 -6 -92 10 -89 15 3 18 18 22 89 4 92 8 125 24
209 5 29 10 84 10 120 0 72 14 102 35 74 15 -20 35 -9 28 15 -3 14 1 18 16 17
30 -2 36 -13 19 -32 -25 -30 -68 -109 -68 -126 0 -31 19 -18 38 27 22 49 39
64 48 42 11 -28 34 -17 93 44 53 56 61 61 116 70 33 5 140 9 237 8 128 -2 181
1 190 10 9 9 8 12 -8 12 -10 0 -98 1 -194 2 -96 2 -225 -1 -286 -6 -86 -6
-113 -5 -119 4 -6 9 -12 7 -24 -9 -14 -19 -21 -21 -44 -12 -36 14 -28 30 50
95 l65 54 131 1 c119 0 195 5 267 17 14 2 82 7 153 10 74 4 127 11 127 17 0 7
-61 7 -182 1 -208 -10 -521 -8 -588 4 -30 5 -48 14 -55 28 -6 11 -16 19 -23
16 -6 -2 -12 1 -12 7 0 28 -20 7 -25 -26z m108 -68 l50 -10 -56 -43 c-31 -23
-61 -42 -67 -42 -13 0 -13 33 2 65 9 19 9 28 0 37 -18 18 -14 32 4 17 9 -8 39
-19 67 -24z m-130 -41 c3 -4 -9 -25 -27 -48 -18 -22 -43 -58 -55 -79 -13 -20
-27 -35 -32 -31 -5 3 -9 36 -9 75 0 39 -4 69 -10 69 -5 0 -10 5 -10 10 0 11
132 14 143 4z m233 -169 c-49 -43 -57 -44 -45 -3 5 18 9 34 9 35 0 2 17 3 38
3 l37 -1 -39 -34z"/>
<path d="M718 628 c-3 -22 -8 -23 -78 -23 -69 0 -75 -2 -72 -20 5 -43 4 -136
-3 -270 -7 -140 3 -247 26 -261 14 -8 48 16 105 75 l49 49 152 7 c132 6 152 5
147 -8 -12 -31 16 -26 42 8 21 28 24 38 14 50 -9 11 -9 22 -2 44 6 16 9 31 6
33 -9 10 19 135 35 153 9 11 28 36 41 56 13 20 41 47 62 60 54 33 49 47 -14
41 -29 -2 -72 1 -96 6 -36 9 -46 7 -60 -8 -16 -16 -29 -16 -174 -7 -118 8
-158 14 -158 24 0 22 -18 14 -22 -9z m465 -34 c11 -4 7 -17 -21 -59 -20 -30
-39 -52 -44 -49 -11 7 -10 72 2 95 11 19 35 24 63 13z m-371 -60 c-26 -24 -50
-43 -53 -44 -6 0 -19 50 -19 76 0 14 46 21 92 15 l28 -3 -48 -44z m236 36 l33
0 -6 -77 c-3 -43 -11 -119 -16 -169 -11 -91 -12 -92 -41 -98 -17 -3 -70 -6
-119 -6 -66 0 -88 3 -86 13 1 6 -5 10 -13 7 -36 -10 -130 -2 -155 14 -20 13
-30 15 -40 6 -12 -10 -13 -4 -10 32 15 145 14 142 62 201 26 31 49 55 52 52 2
-3 7 -24 10 -48 9 -63 31 -60 104 17 l62 65 65 -4 c36 -3 80 -5 98 -5z m-378
-7 c-1 -12 -60 -88 -61 -77 0 5 -2 23 -5 41 -3 26 0 32 19 36 38 7 47 7 47 0z
m3 -369 c15 -3 27 -9 27 -13 0 -8 -75 -81 -84 -81 -3 0 -6 25 -6 56 0 48 2 55
18 50 9 -3 29 -8 45 -12z"/>
</g>
</svg>
