<?xml version="1.0" standalone="no"?>
<!DOCTYPE svg PUBLIC "-//W3C//DTD SVG 20010904//EN"
 "http://www.w3.org/TR/2001/REC-SVG-20010904/DTD/svg10.dtd">
<svg version="1.0" xmlns="http://www.w3.org/2000/svg"
 width="136.000000pt" height="128.000000pt" viewBox="0 0 136.000000 128.000000"
 preserveAspectRatio="xMidYMid meet">
<metadata>
Created by potrace 1.16, written by Peter Selinger 2001-2019
</metadata>
<g transform="translate(0.000000,128.000000) scale(0.100000,-0.100000)"
fill="#000000" stroke="none">
<path d="M605 1180 c-7 -23 -59 -27 -135 -9 -41 9 -46 8 -62 -11 -10 -12 -16
-26 -13 -30 3 -4 -1 -23 -9 -41 -9 -23 -11 -52 -7 -90 4 -31 1 -121 -6 -200
-7 -79 -15 -184 -18 -234 -4 -49 -15 -112 -25 -140 -21 -57 -55 -287 -46 -310
9 -25 22 -18 93 48 38 35 91 79 119 99 l52 36 206 -1 c197 -1 207 0 227 20 22
22 35 74 44 177 3 34 8 75 10 91 2 17 7 70 11 119 6 74 11 92 32 115 13 14 40
57 59 96 20 40 55 87 80 110 36 34 44 47 41 70 l-3 29 -119 -3 c-137 -3 -149
-6 -140 -33 5 -17 2 -19 -33 -12 -21 4 -42 9 -48 13 -5 3 -19 7 -30 8 -11 2
-37 10 -58 18 -20 8 -51 15 -68 15 -31 0 -119 45 -119 61 0 18 -29 9 -35 -11z
m-96 -81 c67 -3 80 -9 55 -30 -9 -7 -38 -46 -65 -86 -28 -40 -51 -73 -53 -73
-2 0 -4 24 -4 53 0 28 -4 74 -7 101 -4 27 -3 46 2 43 5 -3 37 -7 72 -8z m164
-22 l26 -14 -46 -38 -45 -38 7 34 c15 77 16 78 58 56z m484 -15 c22 -7 22 -7
-8 -50 -16 -23 -42 -66 -59 -95 l-30 -52 6 40 c2 22 6 68 7 103 l2 62 30 -1
c16 -1 40 -4 52 -7z m-247 -30 l95 -7 -1 -30 c-1 -73 -13 -212 -19 -227 -6
-14 -15 -16 -48 -12 -23 3 -73 7 -112 9 -69 4 -162 15 -280 34 -62 10 -117 31
-112 43 1 4 29 42 62 84 l60 77 5 -39 c6 -50 25 -53 75 -14 21 16 42 30 48 30
6 0 7 3 4 7 -4 3 12 19 35 35 31 21 50 27 68 22 14 -3 68 -9 120 -12z m-406
-292 c16 -5 13 -10 -22 -38 -22 -18 -43 -32 -46 -32 -3 0 -6 20 -6 45 0 44 1
45 28 39 15 -4 35 -10 46 -14z m473 -34 c3 -3 2 -22 -1 -42 -7 -36 -8 -36 -44
-30 -20 4 -93 8 -162 10 -154 4 -252 15 -247 29 2 6 25 18 53 28 40 14 79 16
223 13 95 -1 175 -5 178 -8z m-474 -105 c18 -6 18 -7 0 -22 -10 -9 -35 -26
-57 -39 -42 -25 -58 -17 -48 24 9 40 55 57 105 37z m257 -13 c148 3 208 -5
212 -26 4 -22 -16 -210 -24 -217 -3 -3 -17 -1 -31 4 -15 6 -84 10 -154 10 -70
1 -144 5 -163 11 -19 5 -50 10 -68 10 -39 0 -67 13 -104 48 -32 30 -36 50 -10
59 9 4 42 25 72 48 79 60 91 65 125 58 17 -4 82 -6 145 -5z m-306 -268 l40
-13 -31 -26 c-64 -55 -133 -104 -133 -94 0 4 5 37 11 73 12 68 17 98 18 114 1
6 13 -2 29 -16 15 -14 45 -31 66 -38z"/>
</g>
</svg>
