<?xml version="1.0" standalone="no"?>
<!DOCTYPE svg PUBLIC "-//W3C//DTD SVG 20010904//EN"
 "http://www.w3.org/TR/2001/REC-SVG-20010904/DTD/svg10.dtd">
<svg version="1.0" xmlns="http://www.w3.org/2000/svg"
 width="198.000000pt" height="138.000000pt" viewBox="0 0 198.000000 138.000000"
 preserveAspectRatio="xMidYMid meet">
<metadata>
Created by potrace 1.16, written by Peter Selinger 2001-2019
</metadata>
<g transform="translate(0.000000,138.000000) scale(0.100000,-0.100000)"
fill="#000000" stroke="none">
<path d="M1571 1279 c-24 -10 -43 -13 -156 -24 -57 -6 -85 -18 -85 -36 0 -5 8
-9 18 -9 12 0 23 -13 31 -36 7 -19 11 -38 8 -40 -2 -3 -48 -6 -101 -8 -53 -2
-143 -10 -201 -17 -57 -7 -108 -9 -112 -5 -10 10 35 95 66 125 24 23 24 24 5
38 -15 12 -39 14 -119 8 -55 -4 -111 -6 -123 -6 -13 1 -35 -8 -48 -18 -23 -18
-23 -20 -8 -36 15 -15 31 -16 116 -10 54 4 98 4 98 1 0 -4 -12 -30 -26 -57
-24 -48 -27 -51 -56 -45 -17 3 -57 6 -89 6 l-59 0 0 50 c0 36 -4 50 -14 50 -9
0 -16 -17 -21 -50 -5 -37 -11 -50 -23 -50 -10 0 -103 5 -208 10 -253 13 -264
8 -277 -120 -3 -30 -13 -98 -21 -150 -20 -134 -25 -193 -32 -375 -6 -182 -1
-199 58 -201 18 -1 62 -7 98 -13 39 -8 92 -10 133 -6 81 8 246 -3 227 -15 -11
-7 -11 -11 -1 -23 6 -8 11 -33 10 -56 -3 -49 4 -58 34 -44 17 8 28 27 40 72
l17 60 195 0 c107 0 199 2 205 6 5 3 18 1 29 -5 14 -7 22 -7 27 1 4 7 21 9 42
5 22 -3 42 -1 51 7 12 10 14 9 7 -8 -4 -11 -9 -24 -10 -30 -1 -5 -8 -29 -16
-52 -7 -23 -10 -49 -7 -57 9 -23 41 -19 52 7 6 12 20 23 33 25 25 4 29 20 8
28 -12 5 -11 11 5 39 11 18 35 50 54 70 19 20 35 41 35 46 0 6 4 7 10 4 5 -3
7 0 5 8 -6 15 32 63 46 60 5 -2 9 6 9 17 0 11 5 20 11 20 12 0 39 25 39 37 0
11 109 123 120 123 5 0 20 10 34 23 37 34 47 41 94 61 27 12 42 25 42 37 0 23
-51 51 -70 39 -7 -4 -24 -4 -36 0 -12 5 -39 6 -60 3 -36 -6 -37 -5 -30 20 5
20 2 27 -14 32 -22 7 -54 48 -65 85 -4 13 -16 36 -27 50 -30 41 -20 118 30
224 23 48 42 94 42 102 0 16 -33 17 -69 3z m-33 -114 c-33 -67 -45 -77 -54
-47 -3 9 -12 29 -20 44 -23 43 -18 56 24 61 91 9 86 15 50 -58z m-1254 -119
c-3 -11 -12 -30 -18 -41 -7 -11 -11 -37 -8 -57 2 -21 1 -46 -4 -55 -4 -10 -8
-42 -8 -72 -1 -37 -5 -56 -15 -59 -12 -4 -13 8 -8 69 21 230 26 253 52 243 11
-4 14 -13 9 -28z m1132 27 c6 -5 15 -27 19 -50 l7 -43 -174 -1 c-95 0 -211 -2
-258 -4 -46 -2 -88 -1 -92 1 -4 3 2 20 13 39 18 30 27 35 57 35 21 1 66 7 102
14 73 14 309 20 326 9z m-1068 -40 c-2 -20 -9 -29 -25 -31 -26 -4 -27 -3 -13
32 13 36 42 35 38 -1z m92 22 c0 -23 -27 -55 -47 -55 -23 0 -29 14 -17 44 5
14 64 24 64 11z m80 1 c0 -1 -5 -17 -11 -35 -8 -22 -16 -30 -26 -27 -8 3 -19
6 -24 6 -14 0 -10 27 7 44 13 14 54 23 54 12z m60 -20 c-5 -13 -7 -26 -4 -29
10 -9 -22 -26 -35 -17 -20 12 5 70 30 70 15 0 17 -4 9 -24z m81 14 c27 0 29
-3 29 -37 0 -33 -1 -35 -13 -19 -12 17 -14 17 -20 2 -4 -9 -17 -16 -32 -16
-23 0 -25 3 -23 40 1 31 5 40 15 35 8 -3 28 -5 44 -5z m228 -6 c3 -2 -3 -20
-12 -38 -16 -34 -16 -34 -79 -33 l-63 2 3 35 c2 19 6 39 9 44 6 8 133 0 142
-10z m-549 -119 c0 -32 -2 -35 -30 -35 -31 0 -34 7 -24 48 4 15 14 22 30 22
21 0 24 -5 24 -35z m75 3 c-10 -44 -12 -47 -33 -41 -14 3 -17 12 -14 39 4 28
8 34 29 34 23 0 24 -3 18 -32z m76 9 c-1 -4 -1 -18 -1 -32 0 -21 -5 -25 -30
-25 -32 0 -37 11 -20 54 7 21 13 24 30 18 12 -4 21 -11 21 -15z m74 -22 c0
-25 -4 -30 -25 -30 -20 0 -25 5 -26 25 -1 35 5 42 29 38 17 -2 22 -10 22 -33z
m927 -6 c21 -20 38 -41 38 -47 0 -13 -75 -23 -165 -22 -38 0 -128 0 -200 0
-71 -1 -165 2 -207 6 -77 6 -78 6 -78 34 0 50 17 55 224 60 354 10 345 10 388
-31z m-842 -4 c0 -28 -4 -35 -19 -35 -37 0 -48 10 -43 40 4 25 9 30 33 30 26
0 29 -3 29 -35z m183 -14 c-13 -34 -16 -36 -54 -33 -37 4 -39 6 -39 37 0 31 3
34 33 37 17 2 42 1 53 0 21 -4 21 -5 7 -41z m-146 14 c0 -8 -4 -12 -9 -9 -4 3
-8 9 -8 15 0 5 4 9 8 9 5 0 9 -7 9 -15z m-351 -86 c-3 -17 -6 -38 -6 -45 0 -9
-11 -14 -30 -14 -28 0 -30 2 -30 38 0 46 5 52 43 52 28 0 29 -2 23 -31z m64 2
c0 -42 -10 -61 -31 -61 -20 0 -23 10 -13 59 9 43 44 44 44 2z m85 -18 c-1 -46
-3 -48 -33 -51 -30 -3 -32 -2 -32 32 0 51 9 66 40 66 26 0 27 -2 25 -47z m64
38 c15 -10 8 -76 -10 -87 -15 -9 -19 -1 -23 42 -5 53 3 64 33 45z m89 -46 c-2
-42 -4 -45 -30 -45 -26 0 -28 2 -28 45 0 43 1 45 30 45 29 0 30 -1 28 -45z
m47 -25 c-1 -13 -7 -26 -14 -28 -8 -3 -11 9 -10 40 1 23 5 47 8 53 6 12 18
-34 16 -65z m103 51 c16 -9 7 -54 -14 -71 -21 -18 -34 -2 -34 41 0 40 16 51
48 30z m632 -15 c52 -3 103 -5 114 -6 10 0 25 -8 33 -16 13 -12 12 -14 -5 -14
-21 0 -36 -25 -26 -42 5 -8 -10 -9 -47 -3 -30 4 -81 6 -114 4 -101 -6 -397 -4
-455 3 -30 3 -62 7 -71 7 -14 1 -15 7 -7 39 l9 38 237 -3 c130 -2 280 -5 332
-7z m-1184 -108 c-3 -13 -6 -26 -6 -30 0 -5 -4 -8 -10 -8 -5 0 -10 14 -10 30
0 21 5 30 16 30 12 0 15 -6 10 -22z m82 -10 c-3 -29 -7 -33 -35 -36 -35 -3
-38 3 -27 46 5 16 14 22 36 22 27 0 29 -2 26 -32z m72 15 c0 -37 -13 -63 -31
-63 -24 0 -30 12 -23 49 5 24 12 31 30 31 16 0 24 -6 24 -17z m92 5 c2 -6 2
-24 0 -40 -4 -25 -8 -28 -44 -28 -37 0 -40 2 -34 23 3 12 6 30 6 40 0 13 8 17
34 17 19 0 36 -5 38 -12z m58 -12 c0 -31 -10 -56 -21 -56 -10 0 -12 63 -2 73
13 14 23 6 23 -17z m1157 2 c7 -5 12 -5 15 2 2 6 11 8 21 4 17 -6 16 -9 -9
-36 -16 -15 -34 -26 -41 -24 -7 3 -12 2 -11 -2 1 -4 -32 -40 -75 -81 -74 -72
-87 -80 -68 -43 5 9 18 38 30 63 11 26 28 50 38 53 15 6 15 8 3 16 -10 7 -11
10 -2 10 6 0 11 3 10 8 -1 4 4 16 11 28 14 21 52 22 78 2z m-1071 -4 c-3 -9
-6 -26 -6 -38 0 -22 -13 -26 -50 -17 -4 0 -4 17 -2 36 4 31 7 35 34 35 23 0
29 -4 24 -16z m62 -24 c2 -36 0 -40 -22 -40 -21 0 -23 4 -20 33 1 17 3 35 3
40 1 4 9 7 19 7 13 0 18 -10 20 -40z m547 16 c143 -2 270 -7 282 -11 19 -6 20
-10 11 -31 -8 -18 -19 -24 -42 -24 -178 -2 -267 -8 -282 -21 -10 -8 -15 -9
-11 -3 4 6 -6 11 -26 12 -18 0 -41 1 -52 1 -11 1 -54 2 -95 2 -107 1 -225 13
-222 22 1 4 2 20 2 36 0 36 11 39 105 29 39 -5 187 -10 330 -12z m-482 -6 c-3
-11 -7 -20 -9 -20 -2 0 -4 9 -4 20 0 11 4 20 9 20 5 0 7 -9 4 -20z m-453 -103
c0 -32 -1 -33 -36 -29 -26 3 -34 8 -30 19 3 8 6 21 6 29 0 9 11 14 30 14 27 0
30 -3 30 -33z m72 -7 c-3 -33 -6 -36 -28 -32 -18 3 -24 11 -24 31 0 33 4 39
33 39 20 0 22 -5 19 -38z m98 31 c0 -5 -3 -23 -6 -40 -5 -26 -11 -31 -34 -31
-35 0 -37 3 -32 45 4 32 7 35 38 35 19 0 34 -4 34 -9z m52 -26 c-4 -37 -32
-51 -32 -16 0 29 11 51 24 51 8 0 11 -12 8 -35z m88 -3 c0 -36 -2 -39 -31 -39
-26 0 -30 3 -25 21 3 12 6 29 6 39 0 11 8 17 25 17 22 0 25 -4 25 -38z m-398
3 c-2 -14 -6 -25 -8 -25 -2 0 -4 11 -4 25 0 14 4 25 9 25 4 0 6 -11 3 -25z
m476 -2 c0 -31 -14 -44 -35 -36 -12 5 -12 7 -1 14 10 7 10 9 1 9 -7 0 -13 9
-13 20 0 14 7 20 24 20 19 0 24 -5 24 -27z m185 11 c3 -3 64 -7 135 -9 71 -1
135 -5 141 -9 6 -4 28 -2 48 5 54 18 241 19 248 2 4 -11 10 -11 27 -3 21 10
21 10 6 -3 -10 -8 -18 -21 -18 -30 0 -28 -46 -30 -430 -13 -182 8 -250 15
-250 27 0 5 -1 12 -2 16 -5 13 83 28 95 17z m-583 -94 c0 -10 -9 -28 -21 -39
-17 -16 -19 -22 -8 -38 15 -25 4 -72 -19 -79 -9 -3 -25 -10 -34 -15 -16 -8
-18 -4 -18 31 0 33 3 40 20 40 17 0 20 7 21 43 1 23 2 47 4 52 1 6 3 13 3 18
1 4 13 7 27 7 18 0 25 -5 25 -20z m72 5 c3 -3 3 -17 0 -30 -3 -20 -10 -25 -34
-25 -23 0 -29 4 -24 16 3 9 6 22 6 30 0 13 40 20 52 9z m88 -9 c0 -49 -54 -67
-62 -21 -6 30 -2 35 34 35 17 0 28 -5 28 -14z m58 -13 c-3 -30 -38 -47 -38
-19 0 9 5 16 11 16 6 0 9 7 5 15 -3 9 0 15 10 15 11 0 14 -8 12 -27z m102 -1
c0 -36 -4 -39 -38 -34 -22 3 -28 9 -26 25 1 12 3 25 3 30 1 4 15 7 31 7 26 0
30 -4 30 -28z m80 16 c-1 -39 -12 -55 -36 -50 -19 3 -24 11 -24 33 0 26 4 29
30 29 17 0 30 -5 30 -12z m519 -3 c7 -3 61 -6 121 -6 l110 1 -12 -23 c-7 -12
-14 -24 -15 -26 -5 -9 -84 -18 -89 -10 -3 5 -14 4 -25 -1 -35 -19 -489 2 -489
23 0 5 -7 4 -16 -3 -8 -8 -14 -9 -13 -4 4 21 -2 35 -11 29 -16 -10 -12 7 5 19
17 12 415 13 434 1z m-1002 -42 c-3 -10 -5 -2 -5 17 0 19 2 27 5 18 2 -10 2
-26 0 -35z m143 -52 c0 -35 -12 -51 -36 -51 -21 0 -24 5 -24 35 0 32 2 35 30
35 23 0 30 -5 30 -19z m86 2 c-3 -10 -8 -31 -12 -46 -5 -23 -11 -28 -33 -25
-27 3 -28 8 -16 66 4 17 12 22 36 22 24 0 29 -4 25 -17z m64 -7 c0 -38 -10
-56 -32 -56 -16 0 -19 5 -14 23 3 12 6 30 6 40 0 10 8 17 20 17 14 0 20 -7 20
-24z m100 -3 c0 -38 -13 -63 -31 -63 -22 0 -42 41 -33 65 9 22 64 20 64 -2z
m76 6 c3 -6 1 -16 -5 -22 -6 -6 -11 -19 -11 -30 0 -12 -6 -17 -17 -15 -13 2
-18 14 -19 41 -1 32 2 37 22 37 12 0 26 -5 30 -11z m289 -4 c186 -8 355 -9
381 0 13 4 25 1 33 -9 25 -29 -3 -43 -102 -50 -50 -4 -112 -10 -137 -13 -25
-2 -121 -2 -215 2 l-170 7 -3 35 c-2 28 1 34 13 30 8 -4 17 -2 21 4 3 5 13 8
22 5 10 -3 80 -8 157 -11z"/>
</g>
</svg>
