<?xml version="1.0" standalone="no"?>
<!DOCTYPE svg PUBLIC "-//W3C//DTD SVG 20010904//EN"
 "http://www.w3.org/TR/2001/REC-SVG-20010904/DTD/svg10.dtd">
<svg version="1.0" xmlns="http://www.w3.org/2000/svg"
 width="129.000000pt" height="79.000000pt" viewBox="0 0 129.000000 79.000000"
 preserveAspectRatio="xMidYMid meet">
<metadata>
Created by potrace 1.16, written by Peter Selinger 2001-2019
</metadata>
<g transform="translate(0.000000,79.000000) scale(0.100000,-0.100000)"
fill="#000000" stroke="none">
<path d="M180 702 c0 -19 27 -32 66 -32 24 0 45 -4 48 -9 3 -4 -5 -22 -18 -40
-19 -26 -25 -29 -30 -16 -3 9 -6 25 -6 36 0 10 -5 19 -11 19 -12 0 -9 -53 7
-128 l7 -34 -53 3 c-41 2 -55 -1 -66 -15 -15 -22 -19 -118 -10 -246 2 -30 5
-72 5 -92 1 -31 5 -38 21 -38 27 0 66 25 110 69 60 61 164 141 195 150 17 5
59 16 95 26 36 9 71 19 78 21 6 2 12 7 12 11 0 15 -95 7 -150 -11 -70 -24
-105 -46 -213 -136 -49 -40 -90 -70 -92 -68 -2 2 -7 61 -10 132 l-7 128 39 -6
c42 -6 327 -17 493 -19 131 -1 482 11 488 17 20 20 -30 26 -246 26 -130 0
-248 2 -262 4 -14 2 -109 12 -212 22 l-188 18 0 32 c0 29 60 134 82 142 4 2 8
12 8 23 0 17 -8 19 -90 19 -50 0 -90 -4 -90 -8z"/>
</g>
</svg>
