<?xml version="1.0" standalone="no"?>
<!DOCTYPE svg PUBLIC "-//W3C//DTD SVG 20010904//EN"
 "http://www.w3.org/TR/2001/REC-SVG-20010904/DTD/svg10.dtd">
<svg version="1.0" xmlns="http://www.w3.org/2000/svg"
 width="131.000000pt" height="117.000000pt" viewBox="0 0 131.000000 117.000000"
 preserveAspectRatio="xMidYMid meet">
<metadata>
Created by potrace 1.16, written by Peter Selinger 2001-2019
</metadata>
<g transform="translate(0.000000,117.000000) scale(0.100000,-0.100000)"
fill="#000000" stroke="none">
<path d="M402 1005 c-7 -14 -12 -47 -12 -73 l0 -47 -125 0 c-117 0 -126 -2
-147 -23 l-23 -23 33 -27 c28 -24 35 -39 57 -137 26 -113 33 -249 15 -260 -6
-4 -8 -16 -3 -28 4 -12 7 -80 8 -152 0 -167 5 -169 125 -54 47 44 101 91 120
103 41 27 100 33 390 42 107 4 203 10 213 15 15 8 17 26 18 122 1 199 13 242
94 337 74 88 77 91 72 104 -3 8 -36 15 -89 19 -72 5 -86 4 -110 -13 -15 -11
-33 -18 -40 -15 -7 2 -85 7 -173 9 -203 6 -281 26 -336 86 -42 46 -71 51 -87
15z m136 -116 l42 -12 -57 -54 c-32 -29 -60 -53 -64 -53 -10 0 -19 57 -19 123
l0 61 28 -26 c15 -14 46 -32 70 -39z m629 -22 c-3 -7 -22 -36 -43 -65 -43 -57
-54 -54 -54 16 0 31 4 42 15 42 8 0 15 5 15 10 0 6 16 10 36 10 26 0 35 -4 31
-13z m-148 -22 c14 -8 14 -102 1 -110 -5 -3 -76 -7 -157 -8 -155 -1 -202 9
-217 49 -5 13 -9 14 -21 4 -8 -7 -15 -18 -15 -25 0 -24 -28 -36 -75 -33 l-47
3 43 49 c77 87 77 87 291 82 103 -2 191 -7 197 -11z m-689 -22 c-1 -5 -21 -30
-45 -58 l-44 -50 -10 28 c-26 69 -25 75 11 80 60 7 88 7 88 0z m68 -50 c11
-34 10 -40 -10 -54 -21 -16 -18 -39 6 -39 9 0 12 -37 12 -154 l-1 -154 -30 5
c-56 9 -85 25 -85 45 0 13 -5 18 -14 15 -11 -4 -15 17 -21 108 l-7 113 62 76
c34 42 65 76 69 76 4 0 13 -17 19 -37z m350 -88 c8 -6 -99 -86 -108 -80 -13 8
-13 36 0 70 9 25 13 26 57 19 27 -3 49 -8 51 -9z m284 -147 c2 -90 4 -164 3
-165 -3 -5 -523 -11 -552 -6 l-33 5 0 79 c0 59 3 77 13 74 7 -3 37 19 67 50
59 60 67 64 67 38 -1 -98 14 -101 100 -19 76 73 93 81 228 94 50 5 93 10 96
11 4 0 9 -72 11 -161z m-472 122 c-6 -12 -32 -42 -57 -68 -41 -43 -46 -45 -53
-27 -4 11 -6 38 -4 60 1 22 3 43 3 48 1 4 28 7 61 7 58 0 60 -1 50 -20z m-198
-334 l68 -11 -63 -49 c-34 -27 -73 -61 -87 -75 l-25 -26 -3 79 c-3 93 1 111
26 101 9 -5 47 -13 84 -19z"/>
</g>
</svg>
