<?xml version="1.0" standalone="no"?>
<!DOCTYPE svg PUBLIC "-//W3C//DTD SVG 20010904//EN"
 "http://www.w3.org/TR/2001/REC-SVG-20010904/DTD/svg10.dtd">
<svg version="1.0" xmlns="http://www.w3.org/2000/svg"
 width="254.000000pt" height="101.000000pt" viewBox="0 0 254.000000 101.000000"
 preserveAspectRatio="xMidYMid meet">
<metadata>
Created by potrace 1.16, written by Peter Selinger 2001-2019
</metadata>
<g transform="translate(0.000000,101.000000) scale(0.100000,-0.100000)"
fill="#000000" stroke="none">
<path d="M2375 980 c-35 -7 -237 -15 -650 -25 -71 -2 -152 -6 -180 -9 -27 -3
-169 -8 -315 -11 -146 -3 -337 -8 -425 -12 -88 -3 -225 -4 -305 -2 -80 2 -184
4 -232 4 -77 0 -88 2 -88 18 0 21 -16 22 -24 1 -8 -20 -28 -278 -31 -389 -1
-44 -5 -116 -9 -160 -15 -165 -15 -184 -4 -192 7 -3 59 -5 116 -4 l105 3 -7
-44 c-19 -114 -19 -138 -3 -138 11 0 15 10 15 38 -1 20 5 61 13 91 l14 53 115
-6 c63 -4 183 -6 265 -6 282 3 550 0 613 -6 52 -5 66 -11 85 -34 32 -38 63
-46 76 -22 13 24 84 54 114 48 12 -3 112 -8 222 -11 110 -3 254 -8 320 -10 66
-2 154 -1 195 3 l75 7 -1 50 c0 28 -2 88 -3 135 -1 47 1 195 4 329 5 191 10
247 21 258 8 8 14 19 14 24 0 9 -44 30 -58 28 -4 -1 -25 -5 -47 -9z m29 -140
c-2 -52 -5 -215 -7 -362 -2 -263 -2 -268 -23 -268 -11 0 -29 -7 -40 -15 -20
-15 -108 -20 -187 -9 -40 6 -47 10 -52 34 -4 20 1 43 18 77 13 26 34 78 46
116 17 50 27 67 41 67 22 0 34 28 19 46 -9 11 -5 19 17 38 16 13 45 38 64 55
19 17 38 31 43 31 4 0 7 6 7 13 0 8 -19 19 -42 26 -23 7 -52 20 -64 28 -28 18
-44 10 -44 -23 0 -22 -19 -114 -25 -122 -8 -9 -163 47 -246 90 -54 26 -99 48
-102 48 -18 0 -221 137 -225 152 -2 10 -10 17 -18 16 -7 -2 -13 1 -12 6 0 5
-6 13 -14 17 -8 5 24 9 77 9 50 0 144 3 210 6 140 7 486 19 532 19 l31 0 -4
-95z m-864 38 c-1 -16 -14 -31 -43 -50 -24 -15 -63 -45 -88 -66 -24 -22 -79
-58 -122 -81 l-78 -43 -59 54 c-51 46 -59 58 -59 89 -1 20 6 53 14 72 l15 36
107 3 c60 2 154 4 211 6 101 3 102 3 102 -20z m-460 6 c0 -9 -77 -48 -93 -47
-18 2 -99 -48 -144 -89 -20 -19 -32 -20 -170 -14 -81 3 -151 5 -155 6 -5 0 -7
3 -7 8 6 36 -33 46 -51 12 -10 -18 -7 -24 11 -22 4 1 3 -18 -2 -41 -11 -56
-28 -279 -21 -295 6 -18 25 -10 28 14 12 78 23 207 19 215 -4 5 8 9 24 9 26 0
31 -4 31 -25 0 -18 -5 -25 -19 -25 -11 0 -23 -4 -26 -10 -3 -5 3 -10 14 -10
16 0 21 -6 21 -29 0 -24 -3 -28 -20 -24 -23 6 -28 -15 -5 -23 9 -4 15 -19 15
-35 0 -22 -5 -29 -19 -29 -11 0 -22 -4 -26 -9 -7 -12 27 -23 74 -23 20 0 39
-5 43 -11 5 -9 10 -9 20 1 6 6 24 12 39 12 23 0 26 -3 21 -26 -3 -19 -1 -25 7
-20 6 4 11 14 11 22 0 16 42 19 70 4 13 -7 21 -7 25 0 12 20 45 10 84 -25 21
-19 55 -42 75 -50 29 -13 36 -20 36 -44 l0 -29 -92 -2 c-123 -4 -254 -2 -413
5 l-130 7 5 79 c5 81 -3 95 -28 48 -8 -16 -10 -42 -6 -76 l6 -53 -91 0 -92 0
6 123 c4 67 6 143 5 169 0 26 4 76 11 110 7 35 11 74 10 88 -1 14 1 53 4 88
l7 62 191 -5 c106 -3 264 -2 352 3 144 9 345 12 345 6z m-10 -51 c-5 -16 -10
-36 -12 -45 -3 -15 -5 -15 -37 1 l-33 18 43 26 c24 14 45 26 46 27 1 0 -2 -12
-7 -27z m620 -69 c9 -9 -4 -7 -40 7 -30 11 -71 25 -90 31 l-34 10 24 13 c21
11 29 9 74 -17 28 -16 58 -36 66 -44z m-660 -22 c99 -65 140 -101 133 -119 -5
-13 -2 -15 19 -10 26 7 68 -15 68 -36 0 -7 -18 -26 -39 -43 -73 -56 -164 -146
-121 -119 6 3 7 -1 4 -9 -3 -9 -10 -14 -14 -11 -5 3 -11 1 -15 -5 -13 -22 -25
-8 -25 29 0 22 6 44 15 51 9 7 34 35 57 62 51 61 43 73 -38 55 l-59 -14 0 -98
c0 -94 -1 -98 -27 -118 -27 -20 -60 -15 -39 6 6 6 11 16 11 21 0 6 -5 4 -10
-4 -10 -16 -13 13 -10 98 1 25 -3 42 -10 42 -6 0 -35 -18 -64 -40 -60 -46 -66
-47 -66 -20 0 13 7 20 20 20 11 0 20 7 20 15 0 8 -8 15 -18 15 -15 0 -18 6
-14 30 4 25 8 29 23 25 41 -13 105 80 116 169 5 39 3 48 -8 44 -9 -3 -16 -24
-19 -56 -3 -28 -8 -54 -12 -57 -8 -9 -68 23 -68 36 0 6 4 8 9 4 5 -3 13 0 17
6 3 6 1 15 -6 19 -18 11 70 61 95 54 11 -3 45 -22 75 -42z m459 -74 c1 -67 4
-124 6 -127 4 -7 19 -194 18 -228 -1 -13 3 -23 8 -23 5 0 9 -6 9 -14 0 -19 29
-48 41 -40 5 3 7 13 5 22 -5 15 3 17 54 18 33 1 60 -2 60 -7 0 -8 -15 -13 -32
-10 -5 0 -8 -3 -8 -8 0 -5 -12 -16 -26 -26 -22 -14 -28 -15 -35 -4 -6 11 -11
11 -21 1 -7 -7 -39 -12 -80 -12 -54 0 -66 3 -62 14 3 8 -3 17 -14 20 -11 4
-36 27 -55 52 -20 25 -55 58 -79 74 -38 26 -95 87 -86 94 1 1 20 15 41 30 41
32 41 32 26 -13 -13 -38 -5 -76 17 -85 13 -5 15 -1 12 19 -5 26 4 94 18 129 6
16 4 18 -11 13 -14 -6 -16 -5 -7 6 7 8 9 16 6 19 -11 11 47 88 84 112 20 13
53 40 71 60 19 20 36 36 37 36 0 0 2 -55 3 -122z m116 87 l70 -24 -78 2 c-42
2 -77 6 -77 10 0 4 0 14 0 22 0 19 1 19 85 -10z m145 -20 c14 -8 21 -14 15
-14 -5 0 -21 6 -35 14 -14 8 -20 14 -15 14 6 0 21 -6 35 -14z m-1187 -31 c13
-14 -7 -34 -34 -34 -22 0 -29 5 -29 20 0 15 7 20 28 20 16 0 31 -3 35 -6z m67
-14 c0 -14 -7 -20 -24 -20 -19 0 -23 4 -19 20 3 11 14 20 24 20 12 0 19 -7 19
-20z m86 4 c-3 -9 -6 -19 -6 -24 0 -5 -11 -7 -25 -6 -14 2 -25 6 -25 9 0 4 0
14 0 22 0 10 10 15 31 15 24 0 30 -3 25 -16z m72 -6 c3 -13 -3 -18 -22 -18
-20 0 -26 5 -26 21 0 15 5 20 22 17 13 -2 24 -11 26 -20z m884 12 c11 0 15 -6
11 -21 -5 -19 -10 -20 -77 -14 -81 8 -86 10 -86 32 0 13 11 14 68 9 37 -3 74
-6 84 -6z m161 -31 c20 -11 37 -18 37 -15 0 3 35 -12 78 -33 42 -22 103 -49
134 -61 68 -25 78 -39 66 -92 -10 -46 -77 -198 -87 -198 -4 0 -22 16 -41 35
-38 39 -41 71 -16 143 15 42 15 42 -8 42 -13 0 -40 -13 -61 -30 -21 -16 -42
-30 -47 -30 -4 0 -28 -20 -51 -45 -24 -25 -48 -45 -54 -45 -11 0 -31 82 -37
150 -2 25 -9 77 -16 117 -17 92 -12 106 32 92 18 -6 50 -20 71 -30z m443 -43
c-71 -66 -68 -66 -63 -10 3 27 6 54 6 60 1 8 15 7 46 -4 l46 -15 -35 -31z
m-1386 0 c0 -20 -23 -36 -52 -36 -23 0 -28 4 -28 24 0 18 6 26 23 28 31 5 57
-2 57 -16z m390 9 c-7 -8 -17 -15 -23 -15 -6 0 -2 7 9 15 25 19 30 19 14 0z
m398 0 c10 -9 -3 -12 -75 -17 -63 -5 -72 -3 -76 13 -4 16 2 17 71 13 41 -2 78
-6 80 -9z m-1050 -20 c1 -22 -2 -25 -28 -25 -17 0 -30 4 -30 9 0 24 14 41 34
41 16 0 22 -7 24 -25z m80 1 c-2 -15 -11 -22 -30 -24 -24 -3 -28 0 -28 22 0
21 4 25 30 24 26 -1 30 -5 28 -22z m82 -1 c0 -21 -5 -25 -30 -25 -22 0 -30 5
-30 18 0 25 9 32 37 32 18 0 23 -5 23 -25z m870 -24 c14 -4 26 -14 28 -22 2
-12 -12 -15 -78 -14 -68 0 -80 3 -80 17 0 9 6 19 13 21 17 8 88 6 117 -2z
m-1040 -41 c0 -24 -15 -40 -36 -40 -18 0 -24 5 -24 23 0 13 2 26 5 29 8 8 55
-3 55 -12z m80 -16 c0 -21 -5 -24 -34 -24 -34 0 -35 1 -25 29 8 23 15 27 34
23 18 -3 25 -11 25 -28z m90 22 c0 -33 -13 -46 -44 -46 -30 0 -32 2 -28 30 4
27 8 30 38 30 23 0 34 -5 34 -14z m289 -26 c-18 -22 -33 -39 -34 -37 -1 1 -5
16 -8 34 -7 33 -6 34 61 42 7 0 -2 -17 -19 -39z m191 16 c0 -3 -21 -18 -47
-36 l-48 -30 39 35 c35 31 56 43 56 31z m376 -16 c39 0 44 -2 44 -23 0 -22 -3
-23 -65 -19 -43 3 -65 0 -65 -7 0 -6 17 -12 38 -13 20 0 50 -2 66 -2 19 -1 32
-8 37 -21 13 -35 10 -38 -36 -32 -25 4 -45 3 -45 -2 0 -12 26 -21 60 -21 19 0
33 -7 39 -19 10 -18 5 -19 -70 -26 -49 -4 -85 -3 -91 3 -11 11 -27 158 -18
171 8 12 33 20 48 15 8 -2 34 -4 58 -4z m-1046 -76 c0 -31 -3 -35 -22 -32 -39
5 -37 68 2 68 16 0 20 -6 20 -36z m82 31 c10 -4 13 -16 10 -35 -4 -26 -8 -29
-38 -28 -31 1 -34 4 -30 27 2 14 5 29 5 34 1 8 33 9 53 2z m98 -42 c0 -32 -2
-35 -22 -29 -13 3 -28 6 -33 6 -6 0 -9 14 -7 33 3 30 6 33 33 29 26 -4 29 -8
29 -39z m116 -8 c-6 -30 -11 -35 -24 -29 -9 4 -27 7 -39 7 -13 -1 -23 1 -23 3
0 6 85 62 89 58 2 -1 0 -19 -3 -39z m283 -18 c6 -12 36 -40 65 -61 29 -21 72
-60 95 -87 l43 -50 -184 6 c-100 4 -184 7 -185 8 0 1 1 15 4 30 5 27 6 27 20
7 21 -30 47 -27 39 5 -4 15 0 37 9 55 8 16 15 37 15 47 0 15 45 62 61 63 3 0
11 -10 18 -23z m771 3 c-6 -11 -16 -18 -21 -14 -6 3 -3 12 8 20 24 18 26 17
13 -6z m-19 -62 c6 -13 35 -48 64 -78 89 -93 88 -94 -67 -86 -73 3 -166 7
-205 8 -40 0 -73 4 -73 7 0 4 26 22 57 41 32 19 71 48 88 63 39 37 83 60 101
53 9 -3 12 -1 9 4 -3 6 -2 10 4 10 6 0 15 -10 22 -22z m-863 -13 c-12 -27 -16
-29 -37 -16 -10 7 -8 12 10 25 33 23 40 20 27 -9z m665 -36 c-16 -16 -159 -24
-168 -9 -10 17 -6 19 80 28 80 8 109 2 88 -19z m-213 -140 c0 -15 -21 -21 -35
-9 -22 19 -18 28 10 22 14 -2 25 -8 25 -13z"/>
<path d="M1572 413 c-19 -8 -4 -22 18 -16 11 3 17 9 14 14 -6 10 -12 10 -32 2z"/>
</g>
</svg>
