<?xml version="1.0" standalone="no"?>
<!DOCTYPE svg PUBLIC "-//W3C//DTD SVG 20010904//EN"
 "http://www.w3.org/TR/2001/REC-SVG-20010904/DTD/svg10.dtd">
<svg version="1.0" xmlns="http://www.w3.org/2000/svg"
 width="146.000000pt" height="126.000000pt" viewBox="0 0 146.000000 126.000000"
 preserveAspectRatio="xMidYMid meet">
<metadata>
Created by potrace 1.16, written by Peter Selinger 2001-2019
</metadata>
<g transform="translate(0.000000,126.000000) scale(0.100000,-0.100000)"
fill="#000000" stroke="none">
<path d="M483 1108 c-4 -7 -8 -15 -9 -18 -13 -70 -18 -81 -43 -88 -25 -7 -159
-7 -210 0 -17 2 -26 -3 -32 -19 -8 -22 -6 -23 40 -23 l49 0 13 -62 c7 -35 12
-81 12 -103 -1 -84 -16 -283 -27 -355 -6 -41 -9 -93 -5 -114 4 -27 2 -47 -9
-67 -14 -24 -15 -36 -3 -105 20 -123 22 -123 87 -66 87 76 130 112 152 128 17
12 61 16 205 20 210 6 381 7 417 2 20 -2 26 2 28 20 2 13 -2 30 -8 37 -9 11
-10 50 -4 147 4 73 7 160 6 193 0 33 3 62 6 65 4 3 22 41 40 85 44 108 91 184
125 202 16 8 27 20 24 26 -5 16 -178 25 -287 14 -47 -4 -105 -8 -130 -9 -60
-3 -277 11 -316 20 -35 8 -77 39 -87 65 -8 20 -23 22 -34 5z m91 -101 l36 -12
-49 -37 -49 -37 -4 43 c-4 60 0 80 16 67 7 -6 30 -17 50 -24z m321 -28 c28 0
78 3 111 7 98 9 100 7 98 -133 -1 -65 -5 -211 -9 -325 -6 -163 -5 -211 5 -223
7 -9 10 -18 7 -21 -3 -3 -63 -8 -134 -11 -70 -2 -150 -6 -178 -8 -27 -1 -111
1 -186 5 -118 7 -142 11 -188 35 -29 14 -66 27 -83 27 -16 1 -26 4 -21 7 4 3
8 33 9 66 1 33 6 131 12 217 9 133 14 164 34 205 48 94 74 133 90 133 10 0 9
-68 -1 -95 -5 -11 -6 -26 -4 -32 9 -24 32 -13 63 32 17 24 54 63 83 85 l52 41
95 -7 c52 -3 118 -6 145 -5z m336 -11 c-9 -31 -82 -178 -87 -178 -3 0 -4 45
-3 100 l1 100 48 0 c46 0 48 -1 41 -22z m-834 -39 c-9 -6 -24 -24 -33 -41 -19
-37 -34 -23 -34 34 0 33 3 37 28 40 15 2 34 -2 42 -10 13 -12 13 -14 -3 -23z
m27 -679 c24 0 19 -17 -8 -32 -13 -7 -42 -23 -66 -36 -23 -13 -44 -21 -46 -19
-11 10 -5 95 7 115 l13 21 42 -24 c24 -14 50 -25 58 -25z"/>
<path d="M609 937 c-4 -25 -2 -48 10 -89 9 -30 11 -61 6 -85 -5 -21 -7 -50 -6
-65 2 -26 0 -28 -33 -28 -19 0 -38 -4 -41 -10 -3 -5 3 -10 13 -10 14 0 26 -15
41 -49 11 -27 21 -54 21 -60 0 -6 4 -11 9 -11 5 0 5 -18 -1 -42 -5 -24 -7 -68
-3 -98 4 -30 7 -65 7 -78 0 -16 5 -22 17 -20 13 3 15 15 12 81 -3 69 0 81 24
124 34 59 115 156 123 148 4 -3 1 -10 -6 -14 -17 -10 -19 -50 -8 -194 5 -79
12 -117 19 -114 14 4 25 40 26 87 1 33 37 94 120 207 13 17 20 36 17 42 -4 6
-29 11 -57 11 -27 0 -49 4 -49 8 0 23 61 122 108 176 22 25 31 41 24 48 -6 6
-45 11 -89 12 -43 1 -83 5 -90 9 -16 10 -213 22 -214 14z m134 -36 c26 -1 21
-11 -33 -71 l-50 -55 0 33 c0 18 -6 47 -14 65 l-13 33 46 -3 c25 -1 54 -2 64
-2z m190 -20 l28 -6 -29 -35 c-16 -19 -39 -51 -51 -70 l-21 -35 0 62 c0 34 -5
65 -11 69 -8 4 -7 9 2 15 16 10 40 10 82 0z m-106 -91 c-1 -52 -7 -94 -14
-101 -6 -6 -41 -13 -78 -15 -53 -3 -67 -1 -72 12 -3 9 3 21 16 30 12 9 19 19
16 23 -12 20 87 138 117 140 15 1 17 -9 15 -89z m-86 -150 c16 0 5 -21 -28
-59 -18 -20 -33 -39 -33 -43 0 -5 -4 -8 -8 -8 -8 0 -43 77 -43 95 0 11 67 24
89 19 8 -2 18 -4 23 -4z m192 -13 c-71 -111 -89 -137 -95 -137 -5 0 -8 12 -9
28 0 15 -2 46 -5 69 -5 39 -3 42 23 46 63 9 94 7 86 -6z"/>
</g>
</svg>
