<?xml version="1.0" standalone="no"?>
<!DOCTYPE svg PUBLIC "-//W3C//DTD SVG 20010904//EN"
 "http://www.w3.org/TR/2001/REC-SVG-20010904/DTD/svg10.dtd">
<svg version="1.0" xmlns="http://www.w3.org/2000/svg"
 width="230.000000pt" height="144.000000pt" viewBox="0 0 230.000000 144.000000"
 preserveAspectRatio="xMidYMid meet">
<metadata>
Created by potrace 1.16, written by Peter Selinger 2001-2019
</metadata>
<g transform="translate(0.000000,144.000000) scale(0.100000,-0.100000)"
fill="#000000" stroke="none">
<path d="M1056 1373 c-4 -4 -17 -8 -29 -8 -16 0 -25 -9 -33 -35 l-12 -35 -73
3 c-109 4 -115 -3 -118 -145 l-1 -53 -122 2 c-88 1 -130 5 -147 16 -19 11 -28
12 -46 2 -16 -9 -37 -9 -81 -1 -100 17 -118 23 -152 48 l-32 24 -30 -21 c-16
-11 -31 -28 -34 -38 -17 -60 -2 -280 19 -288 7 -3 33 14 57 38 39 38 122 85
226 129 17 8 32 18 32 23 0 17 -67 -5 -172 -58 l-107 -53 -3 41 c-6 77 3 146
18 146 8 0 14 -4 14 -9 0 -23 204 -46 408 -46 l153 0 -3 -232 -3 -232 -74 -7
c-41 -4 -136 -4 -210 0 -146 8 -163 13 -263 79 -66 43 -69 43 -92 18 -15 -16
-35 -127 -31 -163 1 -7 6 -39 9 -71 6 -46 12 -60 28 -66 19 -7 21 -15 19 -93
-2 -94 13 -172 32 -165 8 3 11 29 9 83 -3 102 0 106 63 91 l48 -13 -51 -44
c-49 -42 -62 -60 -44 -60 4 0 36 22 73 49 63 48 118 72 120 55 1 -5 3 -52 4
-104 1 -52 7 -96 12 -97 16 -6 23 23 30 109 3 43 11 81 16 85 14 9 276 12 282
3 2 -3 0 -34 -5 -67 -9 -64 -1 -124 16 -130 7 -2 31 15 55 38 53 49 177 135
227 156 25 11 77 17 157 19 143 3 261 11 370 24 44 5 112 9 152 9 40 0 90 5
111 12 33 10 43 9 65 -6 24 -16 27 -15 46 4 11 11 29 25 41 31 29 15 14 33
-21 25 -25 -6 -29 -4 -29 15 0 17 4 20 21 15 19 -6 20 -4 18 62 -2 37 -8 82
-15 98 -6 17 -12 96 -14 180 -1 83 -3 173 -5 200 -5 69 42 184 106 264 27 34
49 62 49 64 0 6 -439 1 -565 -7 -113 -7 -162 -5 -253 8 -113 17 -178 36 -165
49 3 4 -3 7 -15 7 -13 0 -22 6 -22 15 0 16 -21 20 -34 8z m113 -102 c22 -6 17
-11 -53 -49 -43 -23 -79 -42 -80 -42 -2 0 1 23 5 52 5 28 6 55 3 60 -14 22 11
25 54 6 26 -11 58 -23 71 -27z m716 -11 c6 0 10 -59 11 -155 1 -86 -2 -152 -7
-149 -5 3 -9 9 -9 15 0 5 -16 32 -36 59 -38 53 -38 54 -18 141 6 26 5 27 -28
20 -21 -5 -37 -3 -43 5 -14 16 -73 26 -81 13 -4 -6 -1 -15 5 -19 9 -5 8 -10
-3 -19 -9 -7 -36 -50 -62 -94 -26 -45 -55 -92 -64 -104 l-17 -21 -15 26 c-8
15 -14 32 -13 37 2 6 11 36 20 68 9 32 15 61 12 64 -3 3 -30 -3 -59 -12 -29
-10 -59 -19 -65 -21 -17 -5 -16 -24 1 -24 7 0 16 -15 20 -32 3 -18 9 -45 12
-59 5 -24 3 -27 -31 -33 -26 -5 -35 -11 -31 -22 4 -10 -3 -14 -25 -14 -21 0
-32 6 -38 23 -5 12 -23 56 -41 97 -37 85 -48 130 -31 130 6 0 11 -15 11 -32 0
-36 15 -67 26 -55 10 10 5 109 -5 120 -5 5 -25 -3 -46 -17 -21 -14 -42 -26
-47 -26 -5 0 -13 -11 -17 -23 -10 -26 -143 -131 -187 -147 -20 -8 -29 -8 -34
0 -5 8 -12 6 -24 -5 -19 -20 -22 -42 -18 -177 2 -44 6 -58 17 -58 8 0 51 25
96 55 45 30 89 55 99 55 10 0 23 7 30 15 18 21 67 19 97 -5 27 -21 48 -18 39
6 -4 10 3 14 23 14 48 0 121 12 121 21 0 4 -8 10 -17 12 -10 3 3 5 30 6 26 0
47 -3 47 -7 0 -5 -22 -21 -49 -35 -27 -15 -54 -34 -61 -42 -7 -8 -32 -24 -56
-35 -24 -10 -44 -25 -44 -34 0 -20 94 -96 120 -96 19 0 21 4 15 30 -11 50 14
128 50 153 l30 21 -20 -23 -20 -23 32 6 c28 7 34 4 46 -21 9 -15 25 -39 37
-53 12 -14 41 -49 63 -78 29 -38 46 -52 60 -50 15 2 23 -4 27 -21 7 -31 22
-13 39 49 24 85 102 210 131 210 9 0 16 -76 11 -104 -5 -24 22 -201 35 -231
12 -29 12 -37 -1 -62 -8 -15 -21 -45 -29 -65 -14 -35 -18 -38 -55 -38 -22 0
-52 -5 -68 -11 -31 -11 -36 -12 -198 -30 -169 -19 -556 -16 -658 4 -71 14
-101 46 -93 99 3 18 8 141 11 272 5 187 10 242 21 253 8 8 14 22 14 31 0 9 19
51 42 92 40 71 42 74 48 46 9 -49 30 -53 86 -15 72 50 85 57 132 80 24 11 46
27 49 35 3 9 12 13 22 9 21 -9 314 -6 365 3 30 6 126 6 261 2z m148 -23 c-12
-12 -37 -52 -56 -89 l-35 -67 -7 80 c-4 44 -5 83 -2 86 7 6 110 21 116 16 3
-2 -5 -13 -16 -26z m-1068 -5 c-9 -24 -99 -162 -106 -162 -3 0 -6 42 -8 93
l-2 92 61 -3 c52 -3 60 -6 55 -20z m804 -134 c1 -15 -8 -18 -49 -18 -47 0 -49
1 -38 19 6 11 25 26 42 34 28 13 32 13 38 -2 4 -9 7 -24 7 -33z m-549 8 c0
-21 -156 -153 -168 -142 -2 2 4 18 13 35 8 17 12 31 8 31 -4 0 25 22 63 49 67
48 84 53 84 27z m273 -16 c-6 -24 -10 -25 -29 -6 -11 11 -11 16 -1 19 25 11
35 7 30 -13z m247 -39 c40 -1 48 -5 64 -32 10 -16 15 -37 12 -45 -3 -8 3 -22
14 -31 18 -16 18 -17 0 -43 -18 -26 -19 -26 -93 -17 -74 10 -127 5 -127 -12 0
-5 38 -12 85 -16 47 -4 87 -10 90 -14 2 -5 -1 -15 -8 -23 -9 -12 -24 -14 -69
-9 -31 4 -67 3 -79 -1 -29 -11 -40 7 -33 52 10 57 17 60 125 60 122 0 136 19
17 22 -46 1 -102 1 -125 1 -24 0 -43 2 -43 6 0 9 36 66 57 90 12 14 26 20 43
17 14 -2 45 -5 70 -5z m-460 -97 c0 -17 -5 -20 -25 -17 -31 7 -40 34 -24 81
l12 37 18 -40 c10 -22 19 -50 19 -61z m-86 15 c6 -35 5 -36 -24 -35 -34 1 -34
0 -18 26 19 29 -1 38 -22 10 -18 -24 -40 -24 -25 0 11 18 69 50 76 42 4 -4 9
-23 13 -43z m-164 12 c-12 -24 -26 -27 -33 -8 -2 6 5 17 17 24 26 14 31 10 16
-16z m25 -71 l60 -7 -37 -16 c-20 -9 -53 -28 -74 -42 -20 -14 -40 -23 -42 -20
-3 3 -7 30 -9 61 -3 54 -3 55 19 43 13 -7 50 -15 83 -19z m515 -15 c-7 -8 -17
-12 -22 -9 -5 3 -1 12 9 19 22 17 30 11 13 -10z m-196 -109 c-3 -14 -10 -26
-14 -26 -9 0 -35 29 -29 33 52 30 53 30 43 -7z m383 -19 c-2 -6 -21 -11 -42
-11 -21 -1 -40 -7 -42 -13 -3 -9 7 -13 31 -13 20 0 36 -3 36 -7 -1 -10 -40
-57 -43 -52 -2 2 -15 22 -30 45 -42 62 -38 70 34 66 38 -3 59 -8 56 -15z
m-1503 -181 l79 -44 -28 -18 c-16 -10 -52 -21 -82 -24 -51 -6 -53 -5 -55 19
-4 54 -3 111 2 111 3 0 40 -20 84 -44z m526 -85 c0 -26 -3 -76 -6 -110 l-7
-61 -133 0 c-74 0 -134 4 -134 8 0 12 76 128 89 136 15 10 14 46 -1 47 -57 3
-165 -4 -174 -12 -9 -8 -10 -15 -1 -32 7 -13 11 -50 9 -85 l-4 -62 -51 1 c-29
0 -69 3 -90 7 l-38 7 46 68 c25 37 45 74 45 81 0 35 30 41 214 44 99 2 182 5
185 7 2 3 15 5 28 5 21 0 23 -4 23 -49z m-240 -23 c0 -4 -14 -31 -32 -60 -31
-49 -33 -51 -39 -28 -4 14 -7 41 -8 61 -1 36 -1 36 39 35 22 0 40 -4 40 -8z
m-291 -60 c-39 -67 -39 -66 -39 -36 0 16 13 38 32 57 17 17 33 31 35 31 1 0
-11 -24 -28 -52z m1708 30 c-3 -8 -6 -5 -6 6 -1 11 2 17 5 13 3 -3 4 -12 1
-19z m-994 -143 l67 -7 -64 -41 c-35 -23 -77 -50 -93 -59 -15 -10 -39 -25 -52
-35 l-23 -17 6 50 c4 27 9 73 12 101 l6 52 36 -18 c21 -10 67 -22 105 -26z"/>
<path d="M1624 1016 c-23 -17 -15 -21 56 -30 25 -3 64 -8 88 -12 34 -5 42 -4
42 9 0 11 -20 20 -69 31 -86 20 -92 20 -117 2z"/>
</g>
</svg>
