<?xml version="1.0" standalone="no"?>
<!DOCTYPE svg PUBLIC "-//W3C//DTD SVG 20010904//EN"
 "http://www.w3.org/TR/2001/REC-SVG-20010904/DTD/svg10.dtd">
<svg version="1.0" xmlns="http://www.w3.org/2000/svg"
 width="116.000000pt" height="122.000000pt" viewBox="0 0 116.000000 122.000000"
 preserveAspectRatio="xMidYMid meet">
<metadata>
Created by potrace 1.16, written by Peter Selinger 2001-2019
</metadata>
<g transform="translate(0.000000,122.000000) scale(0.100000,-0.100000)"
fill="#000000" stroke="none">
<path d="M589 1088 c-13 -5 -79 -6 -147 -2 -119 7 -123 6 -147 -16 -14 -13
-25 -29 -25 -36 0 -7 23 -25 52 -41 50 -28 52 -29 74 -108 20 -70 22 -90 15
-170 -5 -49 -7 -93 -4 -97 2 -5 3 -8 1 -8 -2 -1 -28 -3 -58 -6 -59 -6 -86 -23
-77 -48 5 -12 14 -15 34 -10 27 7 28 6 11 -13 -23 -25 -22 -30 0 -35 34 -9 46
-84 38 -249 l-7 -150 23 3 c21 3 24 10 30 75 9 83 24 118 116 256 67 100 124
159 147 151 31 -12 52 -360 26 -427 -15 -38 -14 -39 11 -35 34 5 49 47 54 150
5 85 8 98 52 182 27 54 68 113 99 145 29 31 53 59 53 63 0 14 -37 27 -61 22
-13 -3 -42 -9 -64 -14 -22 -5 -55 -11 -74 -14 -33 -6 -33 -5 -18 12 10 10 17
33 17 50 0 24 5 31 21 34 16 2 23 11 25 32 2 15 9 36 17 45 8 9 18 27 22 41
10 31 58 103 101 148 54 57 44 66 -82 72 -60 3 -127 3 -149 0 -22 -3 -54 -3
-71 0 -17 4 -41 3 -55 -2z m133 -144 c2 -122 -8 -247 -21 -271 -5 -11 -8 -23
-5 -26 3 -3 -21 -8 -53 -11 -32 -4 -82 -11 -112 -16 -83 -15 -94 -14 -81 9 5
11 10 35 10 53 0 18 7 54 14 79 16 51 118 209 163 251 29 27 62 39 76 28 4 -4
8 -47 9 -96z m158 61 c-17 -24 -47 -73 -68 -108 l-37 -65 -1 109 -1 109 69 0
69 0 -31 -45z m-320 0 c0 -4 -34 -63 -78 -134 -13 -22 -15 -23 -24 -6 -12 21
-38 127 -33 135 5 7 135 13 135 5z m262 -442 c-21 -32 -44 -71 -51 -88 l-14
-30 -14 65 c-7 36 -14 72 -16 80 -2 15 35 26 100 29 l32 1 -37 -57z m-282 -10
c0 -3 -28 -50 -62 -106 l-63 -102 -6 45 c-4 25 -5 48 -3 52 3 4 0 9 -6 13 -5
3 -10 26 -10 50 0 33 4 44 17 47 26 5 133 5 133 1z"/>
</g>
</svg>
