<?xml version="1.0" standalone="no"?>
<!DOCTYPE svg PUBLIC "-//W3C//DTD SVG 20010904//EN"
 "http://www.w3.org/TR/2001/REC-SVG-20010904/DTD/svg10.dtd">
<svg version="1.0" xmlns="http://www.w3.org/2000/svg"
 width="170.000000pt" height="118.000000pt" viewBox="0 0 170.000000 118.000000"
 preserveAspectRatio="xMidYMid meet">
<metadata>
Created by potrace 1.16, written by Peter Selinger 2001-2019
</metadata>
<g transform="translate(0.000000,118.000000) scale(0.100000,-0.100000)"
fill="#000000" stroke="none">
<path d="M475 920 c-8 -16 -15 -35 -15 -43 0 -11 -20 -13 -107 -11 -86 3 -112
0 -132 -13 -25 -16 -25 -16 -5 -32 31 -25 39 -79 40 -261 0 -149 -5 -205 -23
-250 -3 -8 -7 -58 -8 -110 -2 -91 -1 -96 19 -98 11 0 52 22 91 52 123 93 116
91 245 94 287 7 414 13 420 21 11 17 52 22 244 30 203 9 240 17 214 48 -13 16
-13 72 2 148 5 28 11 75 14 105 6 64 10 75 54 151 33 58 96 129 112 129 6 0
10 5 10 10 0 7 -23 10 -57 9 -32 -1 -125 -1 -208 0 -82 1 -222 -1 -310 -5
-205 -8 -259 -7 -320 11 -27 8 -75 16 -105 19 -30 3 -67 8 -82 12 -22 5 -28 3
-28 -9 0 -20 30 -37 77 -43 20 -2 38 -6 40 -8 2 -2 -22 -24 -54 -51 -32 -26
-62 -53 -66 -61 -21 -37 -29 -10 -25 86 3 107 -7 128 -37 70z m952 -112 l-2
-59 -60 2 c-33 1 -73 -4 -88 -10 -16 -6 -50 -11 -77 -11 l-49 0 2 48 c1 26 -2
54 -6 63 -7 13 4 16 70 18 43 1 96 6 118 10 22 3 52 5 67 3 26 -4 27 -6 25
-64z m-504 48 l159 0 -36 -20 c-20 -12 -36 -26 -36 -32 0 -20 -35 -42 -70 -46
-27 -2 -35 -7 -34 -21 2 -17 -7 -18 -120 -13 -66 2 -128 7 -136 10 -8 3 -30 7
-49 8 l-34 3 39 40 c69 71 92 85 127 77 18 -4 103 -7 190 -6z m625 5 c21 -1
20 -4 -20 -65 -25 -38 -46 -60 -49 -53 -4 7 -7 37 -7 67 0 54 1 56 27 54 14
-1 36 -2 49 -3z m-441 -51 c-3 -11 -1 -23 4 -26 5 -3 9 -17 9 -32 l0 -27 -20
25 c-11 14 -18 31 -15 38 2 6 -3 12 -13 12 -12 0 -10 4 8 14 33 19 33 19 27
-4z m-705 -13 c5 -1 -13 -29 -39 -62 l-47 -59 -16 59 c-10 33 -16 63 -14 66 3
5 90 2 116 -4z m54 -105 c-5 -7 -10 -56 -11 -110 -1 -53 -7 -131 -13 -172 -6
-41 -8 -78 -5 -84 4 -6 -15 -7 -48 -3 -30 4 -63 7 -75 7 -19 0 -20 3 -12 73 4
39 10 106 14 147 6 81 9 86 97 180 l52 55 5 -40 c3 -22 2 -46 -4 -53z m972 1
c3 -40 -19 -83 -43 -83 -57 1 -203 53 -219 79 -7 11 95 26 118 18 8 -3 27 -2
43 3 15 4 44 9 63 9 32 1 36 -2 38 -26z m-828 12 c0 -3 -7 -13 -15 -22 -8 -10
-31 -37 -51 -60 -20 -24 -41 -43 -48 -43 -6 0 -11 18 -11 45 0 36 3 45 17 45
10 0 27 9 38 20 17 17 70 29 70 15z m80 -35 c-38 -33 -50 -37 -50 -16 0 34 13
46 49 46 l36 -1 -35 -29z m156 20 l45 0 -4 -47 -4 -48 -66 -3 c-55 -2 -67 0
-67 13 0 11 -11 15 -40 15 l-41 0 33 28 c44 38 70 52 86 47 8 -3 34 -5 58 -5z
m121 -46 c-11 -24 -26 -44 -32 -44 -6 0 -12 20 -13 45 -1 28 2 44 8 40 6 -3
10 -2 10 3 0 5 11 7 24 5 l25 -5 -22 -44z m123 31 c17 -9 30 -20 30 -26 0 -6
4 -8 8 -5 5 3 31 -4 58 -14 l49 -20 -67 3 c-46 1 -68 6 -68 15 0 6 -6 12 -12
12 -17 0 -46 -19 -33 -21 13 -1 -35 -17 -57 -18 -25 -1 -22 9 13 52 34 42 39
43 79 22z m-494 -57 c-29 -16 -5 -29 50 -27 29 2 56 0 59 -3 3 -2 -11 -22 -30
-44 l-34 -39 -1 27 c0 28 -14 45 -24 29 -3 -4 -8 -51 -10 -103 -3 -52 -8 -107
-11 -121 -6 -21 -3 -27 8 -27 12 0 18 15 23 59 l6 59 130 7 c71 4 131 5 134 2
3 -3 7 -26 9 -51 3 -46 3 -46 -29 -43 -26 2 -32 -2 -34 -21 -3 -20 -9 -23 -45
-22 -23 1 -80 1 -127 0 -47 0 -112 4 -145 10 -33 5 -61 10 -63 10 -2 0 -1 3 1
8 3 4 8 50 11 102 l6 95 63 60 c34 33 64 56 66 51 2 -5 -4 -13 -13 -18z m443
-54 c-6 -7 -8 -17 -5 -23 3 -5 0 -11 -6 -14 -10 -3 -8 -9 5 -24 23 -26 13 -33
-48 -33 l-52 0 5 30 c2 17 8 33 13 36 5 3 9 14 9 24 0 19 35 30 73 21 13 -3
15 -7 6 -17z m387 -4 c1 -14 0 -38 -4 -54 l-5 -29 -101 7 c-55 3 -104 10 -109
15 -15 15 67 69 119 80 76 15 99 10 100 -19z m-298 8 c-2 -6 -14 -18 -26 -26
-21 -14 -22 -13 -22 12 0 21 5 26 26 26 15 0 24 -5 22 -12z m-233 -44 c4 -27
2 -51 -3 -56 -12 -12 -237 -16 -248 -5 -8 7 63 87 78 87 4 0 8 -11 8 -24 0
-40 16 -39 65 4 25 22 57 40 69 40 20 0 25 -6 31 -46z m325 41 c0 -2 -10 -10
-22 -16 -21 -11 -22 -11 -9 4 13 16 31 23 31 12z m-435 -15 c-3 -5 -13 -10
-21 -10 -8 0 -14 5 -14 10 0 6 9 10 21 10 11 0 17 -4 14 -10z m340 -60 c4 -6
-6 -10 -22 -10 -22 0 -25 2 -13 10 19 12 27 12 35 0z m140 -20 c-3 -5 -25 -9
-48 -8 l-42 1 45 7 c25 4 46 8 48 8 2 1 0 -2 -3 -8z m-242 -17 c-7 -2 -21 -2
-30 0 -10 3 -4 5 12 5 17 0 24 -2 18 -5z m60 0 c-7 -2 -21 -2 -30 0 -10 3 -4
5 12 5 17 0 24 -2 18 -5z m325 -58 l-3 -52 -155 -7 c-85 -4 -175 -8 -200 -9
-38 -2 -45 1 -48 18 -4 34 99 92 168 94 30 1 57 4 59 7 3 2 45 4 93 3 l89 -1
-3 -53z m-338 40 c0 -8 -104 -73 -130 -81 -23 -6 -24 -5 -10 11 8 9 13 30 12
46 l-2 29 65 0 c36 0 65 -2 65 -5z m-92 -113 c2 -7 -7 -12 -22 -12 -27 0 -35
15 -13 23 17 7 30 3 35 -11z m-576 -55 c26 0 25 -1 -15 -27 -23 -15 -52 -37
-64 -49 -12 -11 -25 -21 -28 -21 -3 0 -5 25 -5 56 l0 57 43 -8 c23 -5 54 -8
69 -8z"/>
</g>
</svg>
