<?xml version="1.0" standalone="no"?>
<!DOCTYPE svg PUBLIC "-//W3C//DTD SVG 20010904//EN"
 "http://www.w3.org/TR/2001/REC-SVG-20010904/DTD/svg10.dtd">
<svg version="1.0" xmlns="http://www.w3.org/2000/svg"
 width="214.000000pt" height="98.000000pt" viewBox="0 0 214.000000 98.000000"
 preserveAspectRatio="xMidYMid meet">
<metadata>
Created by potrace 1.16, written by Peter Selinger 2001-2019
</metadata>
<g transform="translate(0.000000,98.000000) scale(0.100000,-0.100000)"
fill="#000000" stroke="none">
<path d="M286 850 c-16 -5 -33 -7 -37 -5 -3 3 -13 -3 -20 -11 -11 -13 -13 -73
-12 -286 2 -325 -5 -306 122 -310 l86 -3 -2 -98 c-1 -86 0 -98 15 -95 17 3 29
40 40 126 l7 57 580 0 c319 0 636 -2 704 -5 97 -4 128 -2 138 9 10 10 11 16 2
27 -12 15 -5 193 11 269 8 37 14 181 11 248 -2 42 -46 57 -141 46 -96 -10
-1177 -17 -1290 -8 -137 10 -173 18 -159 35 9 11 8 14 -7 13 -11 0 -32 -5 -48
-9z m89 -76 c65 -13 145 -16 420 -16 319 1 434 3 893 18 l184 6 -6 -53 c-4
-30 -7 -72 -7 -94 -1 -22 -5 -67 -10 -100 -9 -67 -18 -180 -19 -238 l0 -38
-169 3 c-107 2 -166 7 -160 12 5 6 9 16 9 24 0 7 16 33 35 57 42 51 55 50 115
-6 41 -39 69 -47 77 -22 3 6 -15 24 -39 40 -24 15 -45 30 -48 34 -3 3 -13 8
-22 12 -23 8 -22 16 2 45 24 30 56 22 99 -24 34 -35 71 -51 92 -39 16 10 -44
65 -99 89 -23 10 -42 24 -42 29 0 13 68 96 103 126 18 15 25 27 19 33 -16 16
-48 -8 -90 -65 -59 -79 -66 -83 -102 -57 -30 21 -30 23 -15 47 9 13 23 32 30
41 58 70 83 108 76 115 -13 13 -36 -2 -61 -43 -14 -22 -28 -40 -31 -40 -4 0
-18 -18 -33 -40 l-26 -40 -96 65 c-88 60 -121 74 -137 59 -11 -11 5 -34 23
-34 10 0 31 -10 47 -23 36 -29 103 -71 126 -80 16 -6 16 -9 2 -30 -8 -13 -26
-29 -38 -36 -21 -11 -30 -9 -77 19 -30 18 -70 45 -89 61 -35 28 -65 37 -75 21
-7 -11 95 -90 152 -117 l46 -22 -62 -59 c-34 -32 -62 -64 -62 -71 0 -29 38
-10 79 41 62 75 71 79 120 55 48 -23 47 -28 -19 -97 -38 -41 -51 -72 -30 -72
6 0 10 -3 10 -7 0 -7 -116 -8 -367 -4 -69 1 -73 2 -73 24 0 22 34 130 64 201
23 56 11 70 -79 89 -42 10 -81 15 -86 12 -5 -3 -41 -8 -80 -11 -86 -7 -91 -2
-82 80 6 57 6 58 -15 47 -12 -7 -22 -22 -23 -34 -1 -26 -7 -67 -14 -84 -5 -16
-49 -17 -77 -2 -31 16 -70 3 -66 -23 3 -23 25 -33 98 -43 41 -5 46 -9 48 -32
5 -56 37 -55 44 1 3 33 28 49 28 19 0 -11 11 -30 25 -43 14 -13 25 -30 25 -37
0 -8 4 -12 9 -9 5 3 12 -4 15 -17 3 -12 28 -46 56 -76 55 -58 59 -65 33 -57
-10 3 -108 6 -218 8 -110 1 -211 4 -224 6 -24 5 -24 5 -17 103 3 54 2 100 -3
103 -17 11 -34 -25 -50 -112 l-16 -87 -45 4 c-25 2 -56 9 -69 16 l-25 12 -3
199 c-2 110 -5 216 -6 237 -4 43 -8 42 98 21z m645 -249 l46 -6 -32 -97 c-18
-53 -36 -95 -41 -93 -14 6 -153 181 -153 193 0 3 21 6 47 7 26 1 48 3 50 5 2
2 12 2 21 0 9 -1 37 -6 62 -9z m575 -7 l25 -23 -23 -28 -23 -29 -37 22 c-20
12 -37 25 -37 28 0 11 44 51 57 51 7 1 23 -9 38 -21z"/>
</g>
</svg>
