<?xml version="1.0" standalone="no"?>
<!DOCTYPE svg PUBLIC "-//W3C//DTD SVG 20010904//EN"
 "http://www.w3.org/TR/2001/REC-SVG-20010904/DTD/svg10.dtd">
<svg version="1.0" xmlns="http://www.w3.org/2000/svg"
 width="168.000000pt" height="122.000000pt" viewBox="0 0 168.000000 122.000000"
 preserveAspectRatio="xMidYMid meet">
<metadata>
Created by potrace 1.16, written by Peter Selinger 2001-2019
</metadata>
<g transform="translate(0.000000,122.000000) scale(0.100000,-0.100000)"
fill="#000000" stroke="none">
<path d="M566 1062 c-7 -12 42 -47 79 -56 17 -5 53 -10 80 -12 28 -2 104 -11
170 -19 66 -8 136 -17 155 -18 19 -2 -5 -5 -54 -5 -49 -1 -117 -9 -150 -18
-133 -34 -203 -57 -241 -79 -58 -33 -59 -33 -60 5 0 19 -2 73 -3 120 l-3 85
-19 -23 c-11 -13 -22 -46 -26 -73 -8 -58 -20 -64 -108 -55 -39 4 -65 2 -84 -7
-15 -8 -33 -12 -41 -9 -8 2 -11 0 -8 -6 4 -5 0 -15 -8 -22 -14 -11 -13 -14 7
-24 24 -12 27 -43 19 -176 -2 -25 -2 -117 -2 -205 0 -88 -3 -197 -9 -242 -5
-45 -6 -98 -3 -118 11 -66 28 -31 38 81 6 60 15 118 21 129 6 11 19 58 28 105
27 127 62 226 110 313 40 72 44 76 50 53 9 -35 27 -33 81 8 51 39 126 70 240
98 88 21 108 24 269 33 60 3 113 8 117 11 5 3 68 7 141 10 73 2 137 9 142 14
13 13 7 13 -139 15 -167 1 -336 14 -429 31 -43 8 -107 14 -143 14 -65 0 -168
23 -178 41 -8 11 -32 12 -39 1z m-116 -235 c0 -8 -20 -54 -44 -103 -44 -90
-86 -221 -86 -272 0 -15 -5 -34 -10 -42 -7 -10 -8 4 -5 45 2 33 7 129 10 214
3 109 9 157 17 163 22 14 118 10 118 -5z"/>
</g>
</svg>
