<?xml version="1.0" standalone="no"?>
<!DOCTYPE svg PUBLIC "-//W3C//DTD SVG 20010904//EN"
 "http://www.w3.org/TR/2001/REC-SVG-20010904/DTD/svg10.dtd">
<svg version="1.0" xmlns="http://www.w3.org/2000/svg"
 width="252.000000pt" height="158.000000pt" viewBox="0 0 252.000000 158.000000"
 preserveAspectRatio="xMidYMid meet">
<metadata>
Created by potrace 1.16, written by Peter Selinger 2001-2019
</metadata>
<g transform="translate(0.000000,158.000000) scale(0.100000,-0.100000)"
fill="#000000" stroke="none">
<path d="M1231 1482 c-5 -9 -12 -34 -16 -55 l-7 -37 -167 -1 c-308 -2 -456 2
-486 11 -182 56 -179 57 -182 -66 0 -49 -4 -102 -7 -119 -14 -67 -18 -115 -12
-130 5 -13 9 -14 28 -4 24 13 138 99 244 184 84 67 77 66 322 79 l52 3 2 -33
c1 -19 2 -49 3 -66 1 -18 -1 -67 -6 -108 -4 -41 -10 -165 -14 -274 -3 -110 -8
-203 -10 -206 -7 -11 -322 -21 -406 -14 -64 6 -76 9 -72 23 6 25 -106 47 -146
30 -24 -11 -30 -21 -39 -73 -19 -104 -24 -156 -14 -156 5 0 8 -49 8 -110 -1
-98 1 -114 24 -155 26 -48 58 -63 46 -23 -21 74 -22 73 40 112 32 20 67 36 77
36 10 0 27 5 37 10 17 9 20 6 26 -25 3 -20 4 -49 1 -65 -4 -16 -2 -32 3 -35
14 -8 30 38 30 85 0 46 -7 44 206 60 194 14 177 17 170 -27 -25 -164 -26 -233
-3 -233 6 0 20 9 31 19 22 20 257 141 275 141 5 0 14 7 19 16 7 13 33 17 143
20 74 2 172 8 219 13 98 11 108 11 215 15 167 5 155 2 155 39 0 17 5 50 11 72
5 22 14 129 18 238 7 160 12 201 25 216 9 10 13 20 10 24 -7 7 26 112 62 198
13 31 24 61 24 67 0 24 62 138 91 168 35 36 33 46 -9 51 -169 19 -232 22 -322
18 -58 -3 -193 -7 -300 -8 -187 -2 -197 -1 -245 22 -27 13 -64 35 -82 47 -38
29 -59 30 -72 6z m116 -101 l32 -13 -59 -49 c-33 -27 -62 -49 -65 -49 -7 0 -6
145 1 153 4 4 19 -2 33 -12 14 -9 40 -23 58 -30z m-814 -33 c11 -5 43 -10 72
-10 50 -1 52 -2 37 -18 -35 -36 -227 -169 -231 -159 -2 6 2 29 7 52 6 23 14
67 17 98 l6 57 37 -5 c20 -3 45 -10 55 -15z m1473 -31 c1 -28 3 -92 4 -142 1
-49 -3 -137 -8 -195 -6 -58 -14 -175 -17 -260 -6 -171 -11 -230 -26 -305 l-9
-50 -89 -1 -89 -1 4 56 c7 106 13 176 18 201 2 14 7 57 11 95 4 39 11 78 17
88 14 27 -8 49 -41 42 -41 -9 -305 -33 -312 -29 -4 2 -45 5 -91 5 -135 3 -146
-10 -159 -191 -5 -63 -11 -153 -15 -198 l-7 -84 -29 6 c-68 13 -138 38 -133
47 4 5 2 9 -4 9 -6 0 -8 25 -5 67 3 37 7 129 9 203 7 262 16 424 24 435 5 5
16 34 25 62 18 54 98 173 116 173 6 0 10 -26 10 -59 0 -103 20 -116 79 -53 20
21 55 55 79 76 l42 38 230 2 c126 2 233 6 237 9 3 4 34 7 67 7 l61 0 1 -53z
m209 43 c3 -6 -3 -23 -15 -40 -11 -16 -47 -84 -79 -151 l-58 -122 -6 153 c-4
83 -4 156 -1 161 7 12 151 11 159 -1z m-1077 -17 c-10 -24 -80 -143 -84 -143
-2 0 -3 19 -3 43 1 23 -1 57 -5 75 l-8 32 52 0 c28 0 50 -3 48 -7z m625 -555
c6 -8 7 -27 3 -41 -6 -27 -8 -27 -92 -27 -78 0 -154 -18 -154 -36 0 -3 36 -3
79 1 44 4 99 3 123 -1 42 -8 43 -8 13 -15 -16 -3 -56 -7 -87 -8 -56 -1 -108
-17 -108 -32 0 -4 15 -6 33 -4 77 10 150 13 163 8 8 -3 14 -14 14 -25 0 -16
-4 -19 -22 -13 -46 14 -125 17 -147 6 -32 -17 -25 -28 14 -23 20 2 60 1 90 -3
46 -5 55 -10 55 -27 0 -19 -4 -20 -79 -13 -77 7 -121 2 -121 -14 0 -5 42 -12
92 -17 79 -8 93 -12 96 -28 4 -17 -1 -18 -72 -11 -74 6 -116 1 -116 -14 0 -5
28 -9 63 -10 102 -3 121 -11 125 -54 2 -20 1 -37 -2 -37 -2 0 -37 -6 -78 -13
-81 -15 -281 -15 -301 0 -20 17 -73 23 -85 11 -19 -19 -25 -2 -18 46 l7 44 59
10 c33 6 74 9 92 6 18 -3 47 0 63 7 l30 13 -50 7 c-55 8 -150 2 -177 -13 -15
-7 -18 -4 -18 16 0 31 12 35 131 43 55 3 102 10 105 14 12 21 -127 23 -208 3
-23 -5 -26 -3 -21 14 5 22 28 29 135 39 70 6 87 18 42 29 -26 7 -111 0 -153
-12 -19 -6 -22 -4 -19 12 3 16 18 21 108 30 122 14 110 11 110 25 0 7 -34 10
-105 7 -58 -1 -105 -1 -105 2 0 3 42 11 94 18 101 13 126 19 126 33 0 6 -46 7
-110 3 -97 -6 -110 -5 -110 9 0 24 8 26 121 28 57 2 158 8 224 14 137 14 135
14 148 -7z m-1373 -132 c0 -19 44 -46 75 -46 25 0 24 -2 -18 -34 -24 -18 -56
-41 -71 -51 l-27 -18 2 74 c1 72 12 104 30 93 5 -3 9 -11 9 -18z m603 -42 c15
-5 15 -46 1 -114 -10 -49 -11 -53 -12 -76 -2 -19 -9 -20 -104 -21 -57 -1 -141
-5 -186 -9 l-84 -7 17 34 c10 19 31 50 46 70 16 20 29 41 29 46 0 14 -183 9
-188 -5 -2 -7 6 -12 18 -12 20 0 22 -4 16 -37 -3 -21 -6 -50 -6 -64 0 -26 -2
-26 -60 -25 -33 1 -60 6 -59 11 1 6 15 29 31 53 33 47 29 67 -11 57 l-26 -7
24 26 c40 42 113 63 226 65 55 1 125 5 155 10 66 10 153 13 173 5z m-353 -110
c0 -9 -52 -95 -55 -92 -2 2 -1 24 2 51 5 41 8 47 29 47 13 0 24 -3 24 -6z
m-220 -30 c0 -7 -62 -94 -67 -94 -2 0 -3 20 -3 44 0 38 3 45 23 49 36 7 47 7
47 1z m44 -122 c-23 -21 -102 -61 -108 -55 -8 8 -8 48 1 56 3 4 31 7 62 7 30
0 51 -4 45 -8z m754 -52 c23 0 42 -4 42 -10 0 -5 -6 -10 -12 -10 -7 0 -26 -8
-43 -17 -54 -29 -217 -113 -221 -113 -4 0 1 38 12 93 3 15 12 27 19 27 10 0
12 9 8 34 l-5 34 78 -19 c44 -10 98 -19 122 -19z"/>
<path d="M1517 1225 c-110 -112 -119 -116 -121 -46 -1 23 -6 37 -16 38 -20 4
-112 -65 -104 -78 3 -6 12 -8 20 -5 9 4 19 -7 29 -31 8 -19 15 -39 15 -44 0
-13 -78 -60 -122 -73 -48 -14 -53 -27 -13 -38 16 -4 44 -24 62 -45 27 -32 34
-35 42 -23 6 8 9 38 7 67 -2 49 -1 53 25 64 26 10 32 8 82 -35 30 -25 62 -46
71 -46 9 0 16 -6 16 -13 0 -7 12 -18 28 -25 15 -6 41 -20 57 -31 37 -24 40
-25 59 -5 10 9 16 33 16 58 0 23 7 66 15 94 16 54 29 62 67 41 33 -18 49 7 21
31 -13 10 -23 22 -23 26 0 4 16 26 35 50 39 47 41 54 21 54 -8 0 -28 -18 -45
-39 l-32 -40 -22 23 c-13 13 -29 25 -36 27 -8 3 -17 31 -23 69 -4 35 -12 68
-17 73 -6 6 -52 -34 -114 -98z m93 29 c0 -8 -4 -12 -10 -9 -5 3 -10 10 -10 16
0 5 5 9 10 9 6 0 10 -7 10 -16z m-15 -75 c3 -10 14 -21 23 -24 9 -3 33 -18 51
-34 l35 -29 -65 -67 c-55 -57 -116 -104 -123 -93 -5 8 -82 105 -93 116 -7 7
-13 19 -13 27 0 7 -6 16 -12 18 -7 3 -4 6 7 6 11 1 49 30 85 66 60 60 65 63
82 48 9 -8 20 -24 23 -34z m-240 -9 c-3 -5 -12 -10 -18 -10 -7 0 -6 4 3 10 19
12 23 12 15 0z m-65 -195 c-7 -8 -17 -12 -22 -9 -6 4 -5 10 3 15 22 14 33 10
19 -6z m350 -47 l0 -51 -27 24 c-16 13 -29 25 -31 25 -5 3 42 52 51 53 4 1 7
-22 7 -51z"/>
<path d="M1545 760 c-9 -14 12 -21 84 -27 74 -6 125 1 119 18 -4 13 -196 21
-203 9z"/>
<path d="M1359 426 c-2 -2 -22 -6 -43 -8 -48 -5 -62 -28 -17 -28 49 0 185 22
196 31 5 5 -20 9 -61 9 -39 0 -73 -2 -75 -4z"/>
<path d="M1555 390 c-35 -9 -21 -11 70 -11 70 0 74 1 50 11 -24 10 -79 10
-120 0z"/>
</g>
</svg>
