<?xml version="1.0" standalone="no"?>
<!DOCTYPE svg PUBLIC "-//W3C//DTD SVG 20010904//EN"
 "http://www.w3.org/TR/2001/REC-SVG-20010904/DTD/svg10.dtd">
<svg version="1.0" xmlns="http://www.w3.org/2000/svg"
 width="164.000000pt" height="128.000000pt" viewBox="0 0 164.000000 128.000000"
 preserveAspectRatio="xMidYMid meet">
<metadata>
Created by potrace 1.16, written by Peter Selinger 2001-2019
</metadata>
<g transform="translate(0.000000,128.000000) scale(0.100000,-0.100000)"
fill="#000000" stroke="none">
<path d="M1196 1228 c-16 -23 -22 -63 -8 -55 4 3 7 -9 7 -26 1 -18 3 -43 5
-57 5 -25 5 -25 -75 -27 -44 0 -205 -4 -357 -8 -234 -7 -278 -5 -278 6 0 10
-3 10 -8 3 -4 -7 -49 -14 -104 -17 -77 -4 -98 -2 -102 9 -9 23 -35 16 -42 -11
-3 -14 -9 -25 -13 -25 -10 0 -10 6 -21 -260 -6 -129 -13 -261 -16 -292 -4 -45
-3 -58 8 -59 7 -1 63 -2 123 -3 123 -1 118 2 105 -77 -9 -50 4 -81 32 -77 21
3 23 9 26 83 1 43 4 80 5 82 2 1 55 5 118 8 63 3 134 8 159 10 25 3 68 8 95
10 28 3 73 7 100 10 28 3 73 7 100 10 74 7 137 15 163 21 15 3 22 0 22 -11 0
-22 -115 -239 -148 -277 -19 -22 -8 -68 16 -68 31 1 69 53 131 182 33 70 61
131 61 136 0 5 14 21 30 35 17 15 30 37 31 50 0 12 13 45 29 72 16 28 37 64
46 80 9 17 23 34 30 38 18 11 18 36 -1 43 -8 3 -19 22 -26 42 -6 21 -20 46
-29 57 -32 36 -150 288 -150 321 0 22 -26 64 -40 64 -5 0 -16 -10 -24 -22z
m22 -234 c26 -4 40 -16 67 -59 19 -30 35 -57 35 -61 0 -3 11 -15 24 -25 14
-11 27 -32 31 -48 3 -16 13 -35 21 -42 8 -6 14 -15 14 -19 0 -8 -79 -132 -100
-157 -5 -7 -10 -16 -10 -21 0 -27 -63 -45 -205 -57 -33 -3 -98 -10 -145 -15
-47 -6 -171 -13 -276 -17 l-191 -6 -6 48 c-4 26 -7 76 -7 111 0 50 -3 64 -15
64 -27 0 -37 -40 -33 -134 l3 -91 -93 -9 c-51 -5 -95 -6 -99 -3 -3 4 0 33 6
66 7 33 14 134 17 223 3 89 9 180 13 202 l6 40 245 4 c135 2 288 7 340 10 102
8 304 5 358 -4z"/>
</g>
</svg>
