<?xml version="1.0" standalone="no"?>
<!DOCTYPE svg PUBLIC "-//W3C//DTD SVG 20010904//EN"
 "http://www.w3.org/TR/2001/REC-SVG-20010904/DTD/svg10.dtd">
<svg version="1.0" xmlns="http://www.w3.org/2000/svg"
 width="258.000000pt" height="132.000000pt" viewBox="0 0 258.000000 132.000000"
 preserveAspectRatio="xMidYMid meet">
<metadata>
Created by potrace 1.16, written by Peter Selinger 2001-2019
</metadata>
<g transform="translate(0.000000,132.000000) scale(0.100000,-0.100000)"
fill="#000000" stroke="none">
<path d="M469 1120 c-8 -5 -21 -27 -29 -49 l-13 -40 -56 5 c-76 8 -111 -6
-111 -46 0 -16 4 -30 9 -30 25 0 29 -287 6 -418 -8 -47 -14 -157 -14 -275 -1
-177 1 -198 16 -204 12 -5 27 6 52 37 20 24 57 65 82 92 46 47 46 47 135 57
49 6 161 13 248 16 88 3 162 8 166 10 16 10 445 2 521 -11 21 -3 40 -1 43 4 6
11 14 185 17 368 1 67 7 138 15 165 15 49 81 149 100 149 19 0 47 38 40 55 -4
12 -14 15 -33 11 -43 -9 -80 -8 -173 4 -101 14 -142 14 -277 5 -56 -3 -202 -7
-325 -8 -209 -2 -227 -1 -280 20 -32 13 -66 28 -77 35 -15 9 -23 9 -36 -2 -15
-13 -16 -11 -10 23 8 40 7 41 -16 27z m74 -124 c36 -9 33 -15 -26 -60 -36 -27
-47 -32 -44 -19 3 10 9 37 12 61 5 30 10 40 18 34 7 -5 25 -12 40 -16z m-141
-25 c4 -3 -7 -30 -24 -60 -35 -61 -42 -56 -52 33 l-5 47 37 -7 c20 -3 40 -9
44 -13z m1076 3 c23 -5 23 -6 17 -107 -3 -56 -6 -207 -8 -335 l-2 -232 -280 0
c-154 1 -406 0 -560 -2 -210 -2 -288 0 -310 10 l-30 12 3 88 c2 48 9 133 17
190 8 56 15 121 15 143 0 46 20 99 49 131 12 12 21 25 21 30 0 4 4 8 9 8 6 0
5 -15 -1 -36 -23 -84 21 -86 92 -5 86 99 56 94 624 105 120 3 221 7 223 10 5
5 75 -1 121 -10z m127 -35 c-9 -16 -23 -33 -31 -36 -7 -3 -14 -13 -14 -23 0
-11 -5 -22 -11 -25 -7 -5 -10 10 -8 46 3 53 3 54 38 60 20 3 37 7 39 8 1 0 -5
-13 -13 -30z m-1202 -696 c8 -5 -90 -113 -103 -113 -3 0 -6 30 -7 66 l-3 67
52 -7 c29 -4 56 -10 61 -13z"/>
<path d="M1240 845 c-13 -15 -14 -14 35 -30 18 -5 20 -55 3 -56 -108 -4 -296
-3 -343 3 -59 7 -217 63 -223 80 -8 18 -24 6 -39 -29 -21 -48 -29 -97 -24
-140 1 -15 33 -17 47 -3 6 6 3 -19 -5 -55 -14 -63 -16 -65 -46 -65 -16 1 -48
7 -70 15 -22 8 -52 15 -66 15 -15 0 -32 7 -39 15 -35 43 -60 -13 -60 -136 0
-104 12 -113 75 -59 38 33 151 100 169 100 2 0 6 -9 9 -20 7 -26 34 -26 42 0
9 29 23 24 17 -6 -4 -22 -2 -25 19 -22 15 2 25 12 29 28 10 42 35 31 38 -17 3
-47 4 -48 33 -32 16 8 19 17 14 40 -5 22 -3 29 9 29 11 0 14 -8 11 -33 -5 -40
15 -73 39 -64 21 8 34 39 18 45 -7 2 -12 15 -12 29 0 18 5 24 18 21 13 -3 17
-13 17 -45 0 -47 13 -67 38 -57 22 8 33 52 18 67 -29 29 -8 30 189 11 19 -1
40 -3 47 -3 7 -1 13 -21 15 -53 3 -45 6 -53 23 -53 17 0 20 6 17 38 -2 24 3
48 13 64 12 18 14 28 6 36 -15 15 -14 104 2 114 6 4 30 44 52 88 21 44 45 88
53 97 27 32 8 40 -119 52 -43 5 -60 2 -69 -9z m150 -43 c0 -4 -7 -17 -15 -29
-20 -28 -55 -20 -55 13 0 21 5 24 35 24 19 0 35 -3 35 -8z m-631 -36 c23 -13
23 -13 -18 -29 -23 -10 -43 -17 -46 -17 -6 0 6 32 18 48 12 15 16 15 46 -2z
m138 -36 c32 0 33 -1 28 -37 -20 -135 -44 -186 -71 -149 -8 12 -10 25 -5 35 5
9 9 33 9 55 0 21 5 43 11 49 16 16 13 37 -4 37 -20 0 -31 -31 -40 -113 -6 -56
-10 -67 -26 -67 -22 0 -22 -3 -4 80 18 81 18 80 1 80 -9 0 -20 -27 -33 -77
-14 -58 -24 -79 -37 -81 -16 -4 -17 1 -11 50 4 34 14 59 27 70 11 10 17 21 14
26 -8 13 66 51 89 46 11 -2 35 -4 52 -4z m98 -12 c2 -7 -4 -51 -13 -98 -13
-67 -21 -86 -36 -88 -20 -4 -20 -7 4 113 17 83 18 85 30 85 6 0 13 -6 15 -12z
m207 1 l86 -1 4 -28 c5 -30 -13 -148 -24 -165 -4 -7 -49 -8 -135 -2 -70 5
-129 9 -129 10 -7 7 31 184 40 190 6 4 25 5 41 2 17 -3 69 -5 117 -6z m137
-25 c-14 -18 -24 -11 -15 11 3 9 11 13 16 10 8 -5 7 -11 -1 -21z m-765 -173
c15 -6 7 -13 -40 -37 -32 -16 -62 -30 -66 -32 -10 -5 -10 72 -1 82 8 7 73 -1
107 -13z"/>
<path d="M2146 979 c-29 -23 -34 -39 -11 -39 8 0 15 5 15 10 0 6 5 10 10 10
14 0 13 -56 -2 -83 -6 -12 -35 -48 -65 -80 -60 -66 -70 -110 -32 -145 35 -33
137 -44 159 -17 17 21 4 34 -33 34 -45 -2 -83 16 -90 40 -3 14 7 30 38 59 66
60 89 112 86 195 -1 32 -4 37 -25 37 -13 0 -35 -9 -50 -21z"/>
<path d="M1883 659 c-6 -8 -23 -40 -37 -73 -47 -105 -30 -188 45 -226 41 -21
94 -24 94 -5 0 6 -22 21 -50 35 -33 17 -52 33 -56 50 -13 46 -9 131 7 165 18
39 17 77 -3 54z"/>
<path d="M2300 610 c-9 -5 -14 -21 -12 -37 2 -16 -4 -55 -12 -88 -15 -59 -46
-99 -102 -131 -27 -16 -13 -25 26 -18 53 11 106 72 120 137 15 74 17 139 5
143 -5 2 -17 -1 -25 -6z"/>
<path d="M2081 524 c-39 -49 -18 -89 34 -66 20 9 24 18 21 49 -3 47 -26 54
-55 17z"/>
</g>
</svg>
