<?xml version="1.0" standalone="no"?>
<!DOCTYPE svg PUBLIC "-//W3C//DTD SVG 20010904//EN"
 "http://www.w3.org/TR/2001/REC-SVG-20010904/DTD/svg10.dtd">
<svg version="1.0" xmlns="http://www.w3.org/2000/svg"
 width="340.000000pt" height="126.000000pt" viewBox="0 0 340.000000 126.000000"
 preserveAspectRatio="xMidYMid meet">
<metadata>
Created by potrace 1.16, written by Peter Selinger 2001-2019
</metadata>
<g transform="translate(0.000000,126.000000) scale(0.100000,-0.100000)"
fill="#000000" stroke="none">
<path d="M839 1059 c-7 -18 -13 -57 -13 -87 -1 -53 -2 -56 -31 -65 -16 -5
-146 -11 -288 -13 l-259 -5 7 31 c7 34 -4 39 -27 13 -31 -36 -46 -470 -18
-523 9 -16 15 -18 30 -10 32 17 111 12 125 -7 13 -17 14 -17 32 0 24 21 73 23
73 2 0 -22 23 -18 38 5 16 26 28 25 35 -1 6 -22 6 -22 37 5 36 30 50 33 50 9
0 -15 1 -15 18 0 30 27 52 22 52 -14 0 -17 4 -28 10 -24 6 3 10 18 10 32 0 24
2 25 37 18 42 -8 55 -21 47 -47 -11 -35 -7 -159 5 -171 10 -9 21 -2 49 31 20
23 65 61 98 85 62 42 143 102 261 190 71 54 76 54 135 -9 15 -16 48 -49 74
-74 85 -82 139 -137 189 -194 53 -59 68 -65 96 -40 9 8 50 32 91 53 184 96
314 166 421 230 41 25 48 17 17 -19 -27 -31 -15 -42 54 -45 38 -3 78 -14 120
-34 34 -17 70 -31 78 -31 8 0 40 -24 70 -52 86 -83 109 -103 171 -142 31 -20
64 -47 72 -60 17 -26 59 -48 77 -41 9 4 13 27 13 70 0 36 5 69 12 76 6 6 32
12 57 13 53 3 74 15 28 17 -18 1 -36 3 -42 4 -5 1 -17 3 -25 4 -10 1 -15 12
-15 36 l0 34 88 1 c48 0 113 0 145 0 35 0 57 4 57 11 0 6 -17 10 -42 9 -24 -1
-88 -1 -143 -1 l-101 1 2 27 c1 16 3 38 3 51 1 22 2 22 155 22 97 0 157 4 161
10 5 7 -42 10 -144 9 -82 0 -155 2 -160 6 -15 8 -14 52 1 61 6 4 79 9 161 11
83 2 157 8 166 13 10 6 -44 7 -145 4 -88 -2 -168 -2 -177 2 -10 4 -17 17 -17
34 0 34 23 40 151 40 48 0 91 5 94 10 7 11 -7 12 -120 9 -100 -3 -125 -2 -130
3 -3 2 1 18 7 35 11 31 14 31 92 38 100 8 136 14 136 25 0 4 -46 6 -102 3
l-101 -6 7 34 c3 19 11 35 16 37 6 2 10 14 10 28 0 14 10 30 25 40 14 9 25 23
25 30 0 18 -23 20 -163 10 -76 -5 -78 -6 -127 -52 -27 -26 -47 -51 -43 -57 4
-6 1 -7 -6 -2 -8 4 -23 -3 -39 -17 -27 -24 -149 -115 -207 -154 -48 -32 -153
-64 -178 -54 -12 4 -51 29 -86 54 -72 51 -76 53 -84 31 -4 -10 16 -29 64 -61
38 -26 72 -51 75 -56 11 -18 -69 -65 -251 -148 -139 -64 -267 -129 -287 -147
-15 -14 -20 -13 -47 7 -17 12 -31 25 -31 29 0 4 -24 30 -52 58 -29 27 -97 93
-151 145 l-98 95 43 34 c24 19 52 41 62 49 11 8 80 72 154 143 75 70 139 127
143 127 4 0 20 -15 37 -34 16 -19 40 -40 53 -47 13 -7 30 -20 37 -31 7 -10 19
-18 26 -18 7 0 39 -22 70 -50 31 -27 63 -50 70 -50 7 0 25 -11 40 -25 33 -31
36 -31 36 -2 0 14 -13 30 -38 46 -20 14 -50 37 -67 53 -36 34 -148 125 -192
156 -17 12 -35 32 -38 43 -4 11 -11 19 -16 17 -15 -5 -151 -130 -244 -224 -44
-44 -106 -101 -139 -125 l-59 -43 -16 23 c-25 36 -130 152 -269 299 -70 73
-128 139 -130 147 -6 26 -29 16 -43 -16z m104 -112 c60 -61 113 -116 143 -147
8 -8 53 -58 100 -110 l86 -95 -40 -35 c-61 -55 -353 -250 -374 -250 -6 0 0
358 6 369 3 4 8 41 11 82 3 41 11 89 16 107 8 25 8 37 -3 49 -12 15 -22 93
-12 93 3 0 33 -28 67 -63z m-168 -68 c-5 -7 5 -8 29 -4 35 7 36 6 36 -24 0
-32 -13 -43 -62 -55 -27 -6 -28 -5 -28 31 0 40 -16 35 -22 -7 -2 -17 -10 -26
-26 -28 -19 -3 -22 0 -18 22 3 18 0 26 -10 26 -8 0 -14 -10 -14 -25 0 -20 -5
-25 -25 -25 -23 0 -25 4 -25 41 0 40 1 41 28 33 39 -11 93 -6 117 11 25 17 28
18 20 4z m2025 -10 c0 -6 6 -9 13 -6 26 10 40 -11 41 -57 1 -25 5 -46 11 -46
5 0 4 -5 -3 -12 -13 -13 -25 -15 -114 -24 -51 -6 -58 -4 -58 11 0 10 16 35 35
57 20 21 41 50 47 64 12 25 28 33 28 13z m-2298 -35 c-4 -44 -10 -54 -29 -54
-32 0 -45 15 -37 44 6 26 37 48 59 42 6 -2 9 -16 7 -32z m76 -1 c-3 -33 -7
-38 -29 -41 -24 -3 -26 0 -22 25 5 27 27 53 46 53 4 0 7 -17 5 -37z m2360 20
c-8 -10 -18 -27 -22 -38 -7 -19 -8 -19 -17 -2 -16 28 -1 57 28 57 24 0 25 -1
11 -17z m-2608 -20 c0 -40 -11 -53 -46 -53 -32 0 -34 2 -34 33 0 42 5 47 47
44 26 -2 33 -6 33 -24z m86 7 c-3 -11 -9 -29 -12 -40 -4 -14 -14 -20 -33 -20
-25 0 -28 3 -23 28 7 37 20 52 49 52 20 0 23 -4 19 -20z m412 -111 c-2 -46 -1
-44 -50 -53 l-38 -7 0 45 c0 47 6 52 63 55 26 1 28 -1 25 -40z m-260 -11 c-2
-36 -7 -44 -25 -46 -21 -3 -23 1 -23 36 0 39 8 49 38 51 9 1 12 -11 10 -41z
m87 25 c-14 -68 -16 -73 -35 -73 -15 0 -20 7 -20 29 0 44 10 61 35 61 17 0 22
-5 20 -17z m65 -28 c0 -38 -3 -45 -19 -45 -27 0 -33 13 -25 55 4 25 11 35 25
35 16 0 19 -8 19 -45z m-328 -19 c-4 -43 -6 -46 -31 -46 -23 0 -27 4 -25 23 1
12 3 32 3 44 1 14 9 23 24 25 32 6 33 4 29 -46z m98 21 c0 -38 -15 -57 -45
-57 -18 0 -20 5 -17 45 4 42 6 45 33 45 26 0 29 -3 29 -33z m-178 -22 c-3 -34
-9 -46 -24 -51 -30 -9 -46 15 -41 59 5 34 8 37 37 37 31 0 31 0 28 -45z m2298
25 c0 -5 -5 -10 -11 -10 -5 0 -7 5 -4 10 3 6 8 10 11 10 2 0 4 -4 4 -10z m40
-30 c0 -6 -7 -13 -15 -17 -12 -4 -15 -18 -13 -56 3 -55 18 -69 48 -42 13 12
43 18 103 21 l85 5 6 -27 c4 -14 6 -28 4 -29 -7 -7 -188 -9 -188 -2 0 4 -7 7
-16 7 -13 0 -15 -12 -10 -80 7 -107 16 -120 56 -80 15 15 39 22 95 27 l74 6
-6 -39 c-3 -21 -6 -40 -7 -41 -4 -5 -166 -6 -172 0 -4 4 -16 7 -28 7 -15 0
-17 -3 -8 -12 7 -7 12 -27 12 -44 0 -44 16 -51 45 -21 17 17 41 26 76 30 29 4
56 4 60 1 5 -3 9 -20 9 -38 0 -31 -3 -34 -37 -40 -105 -17 -110 -15 -222 94
-56 55 -108 100 -115 100 -23 0 -59 47 -50 67 8 18 9 24 17 79 3 17 11 40 18
52 14 22 90 62 119 62 10 0 22 5 25 10 8 13 35 13 35 0z m207 -10 c-3 -11 -2
-20 2 -20 4 0 8 -7 8 -15 0 -14 -54 -21 -137 -16 -14 1 -38 2 -54 3 l-28 1 23
19 c13 10 35 21 49 24 14 3 39 9 55 13 17 5 43 9 59 10 24 1 27 -2 23 -19z
m-2044 -62 c-3 -24 -5 -44 -6 -45 -1 0 -19 -4 -40 -8 l-38 -7 3 43 c3 42 5 44
38 50 19 4 38 7 41 8 3 0 4 -18 2 -41z m-171 20 c7 -20 -4 -67 -16 -71 -26
-10 -39 10 -32 47 5 26 12 36 26 36 10 0 20 -5 22 -12z m74 -3 c11 -27 -5 -65
-26 -65 -16 0 -20 7 -20 33 0 19 3 37 7 40 11 12 33 7 39 -8z m-236 -30 c0
-32 -2 -35 -30 -35 -26 0 -30 4 -30 28 0 35 6 42 37 42 20 0 23 -5 23 -35z
m78 3 c-2 -25 -8 -34 -25 -36 -19 -3 -23 1 -23 26 0 34 6 42 32 42 16 0 19 -6
16 -32z m-176 -14 c-5 -29 -37 -33 -45 -5 -6 24 9 40 32 34 13 -3 17 -12 13
-29z m-75 -4 c-5 -28 -11 -32 -40 -21 -35 14 -25 41 14 41 23 0 28 -4 26 -20z
m2109 -34 c-4 -17 -11 -23 -21 -20 -20 8 -19 24 2 40 23 16 27 11 19 -20z
m-2042 -63 c-5 -43 -8 -47 -29 -40 -9 4 -15 19 -15 42 0 31 3 35 25 35 22 0
24 -3 19 -37z m104 0 c-3 -33 -7 -38 -30 -41 -22 -3 -29 2 -34 22 -9 39 1 56
36 56 30 0 31 -2 28 -37z m72 10 c0 -33 -14 -58 -27 -50 -5 3 -8 21 -7 39 3
41 1 38 19 38 10 0 15 -10 15 -27z m88 -5 c-2 -23 -9 -34 -22 -36 -26 -5 -40
12 -32 42 5 19 13 26 32 26 22 0 25 -4 22 -32z m70 5 c-2 -20 -9 -29 -25 -31
-19 -3 -22 1 -20 27 2 25 6 31 25 31 20 0 23 -4 20 -27z m94 22 c3 -3 3 -17 0
-30 -4 -22 -10 -25 -43 -25 -34 0 -39 3 -39 23 0 13 3 27 7 30 8 8 67 9 75 2z
m-502 -40 c0 -32 -2 -35 -30 -35 -28 0 -30 3 -30 35 0 32 2 35 30 35 28 0 30
-3 30 -35z m2575 -2 l1 -33 -56 -1 c-76 -1 -105 -5 -118 -13 -22 -14 -12 20
13 44 23 22 67 33 135 36 22 1 25 -3 25 -33z m-505 -14 c12 -16 20 -32 18 -34
-4 -4 -79 14 -86 20 -8 7 20 45 33 45 7 0 23 -14 35 -31z m478 -313 l-2 -44
-42 37 c-45 39 -42 51 13 51 32 0 33 -1 31 -44z"/>
<path d="M985 811 c-5 -8 -9 -73 -17 -236 -3 -51 11 -129 26 -143 27 -27 34
-2 25 89 -4 47 -5 110 -1 140 4 30 7 61 6 69 0 8 -2 32 -2 53 -2 36 -22 51
-37 28z"/>
<path d="M1589 698 c-8 -277 -8 -297 7 -309 11 -9 18 -9 32 4 14 12 96 39 190
63 9 2 42 11 72 19 30 8 66 18 80 20 78 16 165 44 164 54 -1 6 -2 16 -2 21 -1
6 -15 10 -31 10 -17 0 -33 5 -36 10 -4 6 -10 8 -15 5 -4 -2 -23 5 -41 18 -19
12 -54 28 -79 35 -40 12 -88 26 -230 67 -25 8 -60 17 -77 20 l-33 7 -1 -44z
m161 -39 c41 -13 94 -36 116 -51 23 -15 54 -28 68 -28 15 0 41 -7 58 -16 37
-19 30 -26 -52 -44 -30 -6 -103 -25 -162 -41 -157 -43 -148 -46 -148 60 0 115
8 154 29 148 9 -3 50 -16 91 -28z"/>
</g>
</svg>
