<?xml version="1.0" standalone="no"?>
<!DOCTYPE svg PUBLIC "-//W3C//DTD SVG 20010904//EN"
 "http://www.w3.org/TR/2001/REC-SVG-20010904/DTD/svg10.dtd">
<svg version="1.0" xmlns="http://www.w3.org/2000/svg"
 width="198.000000pt" height="126.000000pt" viewBox="0 0 198.000000 126.000000"
 preserveAspectRatio="xMidYMid meet">
<metadata>
Created by potrace 1.16, written by Peter Selinger 2001-2019
</metadata>
<g transform="translate(0.000000,126.000000) scale(0.100000,-0.100000)"
fill="#000000" stroke="none">
<path d="M354 1168 c-28 -31 -44 -93 -44 -169 0 -50 -4 -67 -21 -85 -20 -22
-18 -51 2 -38 6 3 17 -3 25 -15 19 -27 30 -26 66 4 48 41 51 29 9 -37 -34 -54
-66 -87 -59 -61 5 17 -13 82 -26 92 -25 21 -36 -9 -27 -70 5 -30 7 -57 6 -60
-2 -3 -6 -70 -9 -149 -5 -126 -8 -146 -26 -165 -12 -12 -18 -29 -15 -37 4 -9
2 -33 -4 -54 -5 -22 -13 -72 -17 -111 -5 -63 -4 -74 10 -79 11 -4 27 3 44 18
46 42 84 65 162 95 118 47 128 49 255 51 66 1 184 7 262 14 109 8 162 8 226
-1 47 -6 91 -9 98 -7 32 12 200 12 207 1 23 -37 84 -7 64 32 -9 17 -8 63 3
148 3 22 7 65 10 95 13 146 18 173 41 232 31 74 48 101 59 90 5 -4 5 -1 1 6
-8 14 16 50 98 145 68 80 60 93 -55 89 -46 -2 -98 1 -116 7 -23 7 -36 6 -51
-5 -13 -9 -50 -14 -104 -15 -246 -5 -516 -1 -703 10 -185 11 -250 20 -330 46
-14 4 -27 -1 -41 -17z m1366 -78 c0 -3 -34 -57 -76 -120 l-75 -115 7 110 c4
61 11 115 15 121 9 11 129 14 129 4z m-1212 -17 l62 -6 -28 -17 c-15 -10 -52
-36 -82 -59 -81 -60 -88 -56 -68 47 9 49 12 53 31 48 12 -4 50 -9 85 -13z
m1021 -80 c-4 -49 -9 -145 -13 -214 -5 -131 -11 -159 -30 -160 -6 0 -87 -6
-181 -13 -93 -7 -172 -11 -174 -10 -7 6 40 72 75 103 46 43 35 55 -51 52 -70
-3 -78 5 -54 51 10 18 17 19 82 14 143 -12 296 -11 309 2 6 6 9 14 6 17 -3 4
-73 8 -154 10 -82 3 -164 7 -182 10 l-34 6 17 27 c9 15 37 46 62 69 55 50 52
69 -9 78 -55 8 -147 0 -161 -14 -10 -10 -13 -31 -16 -136 -1 -22 -4 -26 -13
-17 -12 12 -16 129 -5 172 l6 25 203 3 c111 2 204 5 207 8 2 2 30 4 60 4 l57
0 -7 -87z m-575 56 c-8 -9 -12 -19 -9 -22 3 -4 2 -5 -1 -2 -4 2 -19 -6 -34
-18 -15 -12 -38 -29 -50 -37 -49 -32 -100 -83 -100 -101 0 -27 19 -24 43 7 18
23 25 25 61 20 41 -7 86 -30 86 -44 0 -4 -48 -9 -107 -10 -60 -1 -132 -5 -162
-9 -38 -4 -55 -2 -61 7 -5 8 -15 10 -26 5 -25 -11 -44 -12 -74 -4 -14 3 -35 2
-48 -2 -12 -5 -22 -5 -22 -1 1 12 48 62 60 62 13 0 13 33 -1 47 -8 8 10 24 62
59 81 55 116 62 301 60 87 -1 95 -3 82 -17z m-12 -93 c-3 -27 -7 -33 -23 -29
-31 8 -34 25 -9 45 31 25 37 23 32 -16z m211 28 c3 -4 -5 -27 -20 -53 -28 -49
-60 -88 -67 -80 -5 5 -8 59 -7 107 1 31 2 32 44 32 24 0 47 -3 50 -6z m-233
-185 c0 -11 -66 -78 -145 -148 l-49 -44 -77 6 c-105 8 -210 28 -233 43 -18 12
-16 15 27 33 26 11 47 24 47 29 0 5 17 21 38 34 31 21 55 27 123 31 109 7 222
17 226 20 7 8 43 4 43 -4z m75 5 c13 -5 15 -15 9 -51 -4 -28 -2 -53 5 -67 15
-28 2 -90 -21 -94 -18 -3 -28 53 -28 154 0 64 4 70 35 58z m-488 -13 c14 -7
13 -11 -8 -22 -13 -7 -32 -18 -41 -24 -120 -73 -148 -82 -102 -32 17 17 37 43
46 57 16 27 75 39 105 21z m403 -118 c0 -44 -1 -45 -18 -30 -10 10 -24 17 -30
17 -18 0 -15 11 10 37 31 33 38 29 38 -24z m236 22 c-11 -28 -71 -104 -81
-101 -13 3 -6 99 8 108 7 4 27 8 46 8 25 0 32 -3 27 -15z m-772 -97 c-16 -75
-17 -115 -4 -123 5 -3 44 14 87 38 43 24 96 47 118 51 53 10 106 8 122 -5 6
-6 17 -8 23 -4 6 4 48 9 92 10 65 3 90 0 124 -16 24 -10 48 -19 54 -19 12 0 6
-75 -11 -142 -11 -44 20 -40 -299 -41 -223 0 -305 11 -345 46 -22 20 -24 26
-16 57 6 19 11 71 13 115 3 76 4 80 28 86 14 4 25 7 26 8 0 0 -5 -27 -12 -61z
m471 12 c4 -6 -7 -10 -27 -10 -25 0 -29 3 -18 10 19 13 37 13 45 0z m-347 -16
c20 -6 18 -9 -22 -30 -58 -31 -66 -30 -66 6 0 27 3 30 33 30 17 0 42 -3 55 -6z
m955 -25 l37 -10 -5 -82 c-4 -45 -8 -92 -11 -105 l-5 -23 -219 2 c-200 1 -220
2 -225 19 -3 9 -1 29 4 44 6 14 8 26 4 26 -4 0 3 9 15 20 11 11 30 40 40 64
l20 43 82 1 c46 1 85 4 88 7 9 9 136 5 175 -6z m-1060 -256 c36 -5 62 -23 35
-23 -7 0 -48 -18 -91 -39 l-78 -39 2 42 c1 22 5 55 10 72 l10 31 37 -19 c20
-10 54 -21 75 -25z"/>
</g>
</svg>
