<?xml version="1.0" standalone="no"?>
<!DOCTYPE svg PUBLIC "-//W3C//DTD SVG 20010904//EN"
 "http://www.w3.org/TR/2001/REC-SVG-20010904/DTD/svg10.dtd">
<svg version="1.0" xmlns="http://www.w3.org/2000/svg"
 width="118.000000pt" height="146.000000pt" viewBox="0 0 118.000000 146.000000"
 preserveAspectRatio="xMidYMid meet">
<metadata>
Created by potrace 1.16, written by Peter Selinger 2001-2019
</metadata>
<g transform="translate(0.000000,146.000000) scale(0.100000,-0.100000)"
fill="#000000" stroke="none">
<path d="M510 1390 c-25 -4 -70 -5 -102 -2 -88 7 -106 0 -113 -51 -3 -23 -7
-190 -10 -372 -2 -181 -9 -364 -15 -405 -7 -41 -15 -100 -20 -130 -4 -30 -17
-100 -29 -155 -43 -198 -43 -205 -14 -205 15 0 49 27 166 129 91 79 125 91
270 97 140 5 175 10 193 25 19 15 6 41 -17 34 -12 -4 -19 -1 -20 7 -3 35 4 79
22 136 10 35 17 68 14 72 -3 5 -1 30 4 57 12 57 21 159 27 298 3 75 8 103 19
111 8 6 22 33 31 60 26 81 53 133 94 186 22 27 40 53 40 58 0 23 -34 30 -141
29 -63 -1 -152 3 -199 9 -47 6 -101 13 -120 15 -19 2 -55 1 -80 -3z m110 -50
c-19 -13 -30 -13 -30 0 0 6 10 10 23 10 18 0 19 -2 7 -10z m-140 -27 c7 -6
-121 -253 -131 -253 -12 0 -16 221 -5 256 4 10 125 8 136 -3z m318 0 c28 -5
32 -9 32 -39 l0 -32 -65 -7 c-39 -5 -90 -3 -129 5 -35 6 -79 9 -97 5 -29 -7
-32 -6 -21 8 7 8 25 17 40 20 58 12 147 39 157 48 6 6 19 7 30 4 11 -3 35 -8
53 -12z m172 5 c0 -2 -22 -48 -50 -103 l-49 -100 -1 56 c0 31 3 77 6 103 l7
46 43 0 c24 0 44 -1 44 -2z m-253 -122 c88 -1 103 -3 103 -17 0 -11 -12 -19
-37 -24 -46 -9 -290 -16 -308 -9 -10 4 -10 12 -2 33 10 28 11 28 76 23 36 -2
112 -5 168 -6z m91 -109 c-3 -27 -8 -32 -38 -39 -19 -4 -84 -7 -145 -7 -60 0
-134 -3 -162 -7 -58 -7 -66 2 -37 41 13 17 33 21 152 30 75 6 159 11 185 12
l48 2 -3 -32z m-4 -103 c-1 -14 -5 -29 -9 -32 -9 -9 -415 -15 -415 -5 1 28 23
36 116 44 192 17 299 25 305 22 4 -1 5 -14 3 -29z m-9 -122 c-13 -13 -234 -6
-249 8 -13 10 -22 10 -48 0 -18 -7 -57 -16 -85 -19 -47 -6 -53 -5 -53 11 0 28
28 35 145 38 61 1 126 4 145 6 19 3 56 6 82 7 26 2 51 7 55 11 5 4 9 -6 11
-24 2 -18 0 -35 -3 -38z m-10 -225 c-9 -133 -15 -181 -26 -188 -21 -13 -106
-10 -174 6 -61 15 -171 20 -199 9 -9 -3 -16 -12 -16 -20 0 -11 17 -14 73 -14
39 0 90 -5 112 -10 22 -6 76 -10 120 -10 78 0 81 -1 83 -25 1 -13 -3 -27 -8
-30 -10 -6 -169 -7 -245 -1 -58 4 -124 37 -166 82 l-36 39 13 60 c7 33 13 76
14 95 0 19 4 40 8 47 16 25 73 35 237 40 152 4 200 11 183 28 -9 10 -342 6
-375 -4 -30 -9 -33 -8 -33 12 0 12 4 27 8 33 11 18 112 30 272 33 80 1 147 5
149 7 15 15 16 -31 6 -189z m-474 -273 c7 -8 34 -27 61 -40 26 -13 48 -28 48
-32 -1 -8 -121 -101 -157 -120 -23 -12 -24 -12 -20 5 3 10 11 52 17 93 18 118
23 127 51 94z"/>
<path d="M477 663 c-3 -2 -23 -4 -46 -5 -22 0 -48 -6 -58 -13 -17 -13 -17 -14
1 -21 11 -4 63 -2 115 4 53 7 130 12 171 12 82 0 120 7 120 22 0 9 -294 11
-303 1z"/>
<path d="M415 561 c-26 -4 -40 -11 -40 -21 0 -13 28 -15 194 -15 134 0 195 3
198 11 3 8 -41 14 -139 18 -79 4 -150 9 -158 10 -8 2 -33 0 -55 -3z"/>
</g>
</svg>
