<?xml version="1.0" standalone="no"?>
<!DOCTYPE svg PUBLIC "-//W3C//DTD SVG 20010904//EN"
 "http://www.w3.org/TR/2001/REC-SVG-20010904/DTD/svg10.dtd">
<svg version="1.0" xmlns="http://www.w3.org/2000/svg"
 width="131.000000pt" height="112.000000pt" viewBox="0 0 131.000000 112.000000"
 preserveAspectRatio="xMidYMid meet">
<metadata>
Created by potrace 1.16, written by Peter Selinger 2001-2019
</metadata>
<g transform="translate(0.000000,112.000000) scale(0.100000,-0.100000)"
fill="#000000" stroke="none">
<path d="M442 1078 c-7 -7 -12 -35 -12 -64 l0 -51 -46 -7 c-26 -3 -72 -6 -103
-6 -33 0 -65 -6 -76 -14 -17 -12 -17 -16 -3 -47 15 -34 16 -186 3 -299 -3 -25
-5 -83 -5 -130 -1 -47 -5 -102 -11 -123 -8 -29 -7 -42 2 -53 13 -16 14 -56 3
-138 -6 -41 -4 -48 9 -45 9 2 38 31 65 64 43 54 78 80 137 101 25 9 397 5 445
-5 19 -4 58 -5 86 -3 l51 4 16 51 c9 29 21 94 27 145 18 164 21 176 35 192 7
8 16 29 20 45 21 91 61 190 92 223 43 46 43 65 1 58 -18 -3 -112 -8 -208 -11
-136 -4 -185 -2 -215 8 -22 8 -71 18 -108 22 -87 9 -130 27 -157 65 -24 33
-30 36 -48 18z m103 -108 c22 -7 47 -15 55 -17 9 -2 -3 -14 -30 -30 -132 -76
-123 -72 -110 -37 6 14 10 48 10 76 0 48 1 50 18 36 9 -9 35 -21 57 -28z m315
-41 c52 1 111 4 129 4 32 2 36 -1 42 -31 7 -34 -1 -148 -21 -282 -6 -41 -15
-121 -20 -176 -5 -56 -12 -114 -16 -129 l-7 -28 -81 8 c-84 8 -140 12 -238 17
-32 2 -58 4 -58 5 0 1 33 17 74 36 79 38 116 74 161 162 35 66 31 121 -16 215
-47 93 -118 150 -199 160 l-45 6 65 21 c44 15 76 20 100 15 19 -3 78 -5 130
-3z m279 -5 c2 -2 -1 -9 -7 -17 -6 -7 -24 -44 -40 -81 -26 -61 -30 -65 -33
-40 -2 16 -3 57 -1 91 l4 61 36 -5 c21 -3 39 -7 41 -9z m-821 -47 c7 -8 7 -18
2 -27 -6 -8 -10 -28 -10 -43 0 -16 -10 -43 -22 -60 l-23 -32 -6 38 c-3 21 -4
60 -1 87 4 44 7 50 27 50 12 0 27 -6 33 -13z m217 -40 c-9 -14 -22 -73 -30
-138 -8 -63 -20 -145 -27 -184 -14 -73 -13 -105 3 -105 5 0 9 -19 9 -43 l0
-44 -52 4 c-29 2 -64 6 -78 10 -14 3 -42 7 -62 8 -61 5 -61 7 -55 124 11 173
17 211 37 211 12 0 28 22 49 63 17 34 42 76 56 92 l25 30 -6 -27 c-10 -44 18
-46 84 -5 31 19 58 34 60 32 2 -2 -4 -14 -13 -28z m76 3 c75 -41 172 -190 172
-266 0 -44 -29 -102 -73 -143 -29 -27 -152 -91 -175 -91 -18 0 -18 4 -5 50 7
23 7 45 0 66 -8 23 -6 48 5 99 9 38 18 98 21 134 5 86 19 161 30 161 3 0 14
-5 25 -10z m-288 -546 c40 -7 48 -19 19 -28 -9 -3 -39 -27 -66 -53 -42 -40
-48 -43 -43 -22 4 13 7 43 7 67 0 46 5 48 83 36z"/>
</g>
</svg>
