<?xml version="1.0" standalone="no"?>
<!DOCTYPE svg PUBLIC "-//W3C//DTD SVG 20010904//EN"
 "http://www.w3.org/TR/2001/REC-SVG-20010904/DTD/svg10.dtd">
<svg version="1.0" xmlns="http://www.w3.org/2000/svg"
 width="130.000000pt" height="96.000000pt" viewBox="0 0 130.000000 96.000000"
 preserveAspectRatio="xMidYMid meet">
<metadata>
Created by potrace 1.16, written by Peter Selinger 2001-2019
</metadata>
<g transform="translate(0.000000,96.000000) scale(0.100000,-0.100000)"
fill="#000000" stroke="none">
<path d="M194 848 c-20 -9 -22 -18 -22 -111 -1 -56 -3 -138 -6 -182 -18 -282
-18 -315 -6 -330 11 -13 98 -17 455 -17 48 0 393 24 404 27 8 3 24 -4 37 -16
40 -38 77 -3 52 48 -9 19 -11 42 -7 73 6 38 26 288 35 442 1 28 -2 51 -10 57
-8 7 -47 8 -117 2 -142 -12 -726 -7 -764 6 -19 6 -38 7 -51 1z m868 -122 l-15
-64 -81 -5 c-45 -3 -144 -13 -221 -22 -174 -21 -488 -14 -478 12 4 9 -2 16
-16 20 -22 6 -24 16 -15 73 l6 35 101 -6 c56 -4 105 -5 109 -3 4 3 91 5 195 5
103 1 231 4 283 9 52 4 107 8 121 8 l26 2 -15 -64z m-14 -172 c-3 -41 -7 -77
-10 -79 -3 -3 -38 -8 -79 -11 -40 -3 -77 -8 -82 -11 -5 -3 -68 -9 -140 -14
-136 -9 -341 2 -449 23 l-58 11 0 52 0 52 106 6 c58 4 110 5 114 2 9 -5 205 9
460 34 36 3 82 7 104 7 l38 2 -4 -74z m-6 -188 c1 -35 2 -70 0 -79 -4 -22
-206 -34 -533 -32 -306 1 -306 1 -294 78 14 87 -1 81 164 72 190 -9 356 -6
456 9 44 6 108 13 142 14 l61 3 4 -65z"/>
</g>
</svg>
