<?xml version="1.0" standalone="no"?>
<!DOCTYPE svg PUBLIC "-//W3C//DTD SVG 20010904//EN"
 "http://www.w3.org/TR/2001/REC-SVG-20010904/DTD/svg10.dtd">
<svg version="1.0" xmlns="http://www.w3.org/2000/svg"
 width="200.000000pt" height="138.000000pt" viewBox="0 0 200.000000 138.000000"
 preserveAspectRatio="xMidYMid meet">
<metadata>
Created by potrace 1.16, written by Peter Selinger 2001-2019
</metadata>
<g transform="translate(0.000000,138.000000) scale(0.100000,-0.100000)"
fill="#000000" stroke="none">
<path d="M286 1229 c-36 -28 -34 -64 3 -83 41 -22 51 -61 58 -230 6 -134 5
-149 -10 -143 -61 23 -137 14 -137 -18 0 -8 4 -15 8 -15 12 0 29 -39 46 -107
17 -66 48 -350 45 -403 -3 -37 5 -60 21 -60 20 0 40 61 40 122 0 69 15 135 35
158 7 8 24 41 37 73 17 40 47 81 96 132 96 99 89 115 -48 120 -46 2 -76 7 -78
15 -2 6 5 14 16 17 21 5 64 54 125 143 64 94 98 140 128 173 34 37 36 48 11
70 -13 12 -39 16 -102 16 -47 0 -107 7 -135 15 -95 27 -130 28 -159 5z m222
-103 c55 0 72 -3 72 -13 0 -18 -121 -201 -149 -227 -21 -19 -21 -19 -22 5 -1
13 -1 35 -1 49 0 14 -4 60 -9 103 -10 84 -6 103 20 90 9 -4 49 -7 89 -7z m-25
-412 c7 -8 -17 -57 -50 -100 -13 -17 -36 -55 -53 -85 -18 -33 -31 -48 -34 -39
-2 8 -13 54 -25 101 -11 47 -23 93 -27 102 -5 14 5 17 73 20 43 1 85 4 94 5 9
1 18 -1 22 -4z"/>
<path d="M1467 1239 c-15 -9 -17 -18 -12 -51 4 -23 14 -57 22 -76 16 -40 43
-181 43 -229 0 -29 -3 -33 -26 -33 -30 0 -64 -16 -64 -31 0 -6 9 -18 20 -27
22 -19 27 -41 34 -172 17 -307 18 -320 30 -320 23 0 35 44 40 151 3 77 10 116
23 140 36 66 107 164 151 206 48 47 53 78 12 77 -14 0 -53 -4 -87 -8 l-63 -8
0 26 c0 14 4 26 8 26 4 0 27 40 51 90 40 80 76 129 125 168 29 24 15 47 -29
49 -34 3 -102 11 -230 28 -16 3 -38 0 -48 -6z m143 -70 c35 -5 66 -12 68 -14
6 -6 -90 -165 -98 -160 -4 2 -10 24 -13 48 -3 24 -15 64 -26 90 -23 53 -26 52
69 36z m50 -368 c0 -4 -8 -19 -18 -32 -10 -13 -33 -50 -51 -81 -18 -32 -36
-58 -41 -58 -4 0 -8 17 -7 38 0 20 -3 51 -7 67 -6 28 -4 31 41 52 50 23 83 29
83 14z"/>
<path d="M955 1160 c-4 -7 -2 -22 4 -34 11 -19 7 -31 -27 -86 -22 -36 -59 -94
-83 -129 -24 -35 -51 -75 -59 -89 -9 -14 -22 -28 -30 -32 -121 -55 -155 -78
-158 -106 -8 -70 -54 -179 -90 -212 -32 -29 -34 -34 -23 -55 10 -20 10 -30 -3
-62 -20 -47 -20 -55 -1 -55 9 0 20 12 26 28 34 92 65 136 136 188 40 30 77 54
84 54 11 0 119 -58 119 -65 0 -1 -9 -22 -20 -46 -11 -24 -20 -63 -20 -87 0
-24 -7 -57 -16 -73 -10 -21 -12 -34 -5 -43 6 -7 8 -22 4 -34 -3 -15 -1 -22 8
-22 26 0 37 15 45 55 13 74 114 197 114 139 0 -25 69 -246 82 -261 22 -27 29
3 15 64 -11 48 -11 66 -1 94 7 18 13 43 13 55 1 11 15 33 31 49 33 31 38 53
16 61 -21 8 -10 100 15 136 10 15 19 39 19 53 0 23 3 25 23 19 65 -20 150 -69
173 -100 15 -19 33 -34 40 -34 34 0 1 73 -52 115 -29 23 -32 35 -36 127 -2 31
-6 59 -9 62 -3 4 -23 -5 -44 -19 -20 -14 -38 -25 -40 -23 -1 2 6 34 15 72 18
70 42 103 109 146 18 12 22 21 17 38 -7 21 -13 22 -99 22 -86 0 -92 1 -112 26
-11 14 -45 34 -75 45 -80 29 -97 32 -105 19z m88 -86 c7 -7 -61 -63 -76 -64
-4 0 5 16 20 35 27 34 43 42 56 29z m42 -111 c-4 -32 -13 -100 -21 -150 -8
-51 -14 -149 -14 -217 0 -171 -6 -175 -109 -68 -71 73 -79 85 -86 134 -11 72
-10 138 4 168 36 78 58 103 121 137 36 20 69 39 75 44 5 5 15 9 23 9 11 0 12
-12 7 -57z m155 48 c0 -4 -8 -19 -18 -32 -10 -13 -31 -50 -48 -82 l-29 -57 -6
42 c-4 24 -4 64 -1 91 l5 47 48 0 c27 0 49 -4 49 -9z m15 -309 c-5 -5 -55 21
-55 29 0 4 8 13 18 18 14 8 19 5 29 -17 6 -15 10 -28 8 -30z m-462 -13 c10
-34 17 -63 15 -64 -6 -6 -103 46 -121 64 -18 18 -18 19 15 39 58 36 71 30 91
-39z m-128 -82 c17 -13 16 -16 -19 -42 -20 -15 -39 -26 -41 -23 -7 7 23 78 33
78 5 0 16 -6 27 -13z m251 -141 c18 -14 17 -16 -22 -57 l-42 -41 8 38 c9 47
20 74 29 74 4 0 16 -7 27 -14z m120 -107 l-10 -40 -12 33 c-14 40 -9 57 15 51
16 -4 17 -9 7 -44z"/>
</g>
</svg>
