<?xml version="1.0" standalone="no"?>
<!DOCTYPE svg PUBLIC "-//W3C//DTD SVG 20010904//EN"
 "http://www.w3.org/TR/2001/REC-SVG-20010904/DTD/svg10.dtd">
<svg version="1.0" xmlns="http://www.w3.org/2000/svg"
 width="306.000000pt" height="115.000000pt" viewBox="0 0 306.000000 115.000000"
 preserveAspectRatio="xMidYMid meet">
<metadata>
Created by potrace 1.16, written by Peter Selinger 2001-2019
</metadata>
<g transform="translate(0.000000,115.000000) scale(0.100000,-0.100000)"
fill="#000000" stroke="none">
<path d="M1313 1041 c-10 -11 -29 -22 -43 -26 -61 -15 -144 -96 -269 -262 -81
-106 -173 -163 -267 -163 -19 0 -11 48 22 138 13 34 24 73 24 86 0 14 11 38
25 54 28 33 33 62 11 62 -8 0 -47 -7 -87 -15 -41 -8 -87 -16 -104 -17 -31 -3
-32 -6 -19 -59 l6 -26 -109 -7 c-310 -19 -325 -19 -333 -7 -5 10 -13 10 -27 3
-14 -8 -23 -31 -33 -84 -8 -40 -15 -80 -17 -88 -2 -8 -5 -91 -6 -184 -3 -174
5 -217 34 -188 10 9 14 64 15 210 1 109 4 211 8 227 l7 30 87 2 c48 0 107 4
132 7 25 4 93 9 151 12 l106 5 12 -45 c14 -57 14 -89 0 -80 -6 3 -88 8 -184 9
-119 2 -179 7 -193 16 -12 7 -24 10 -28 7 -3 -4 -7 -82 -8 -173 -1 -142 1
-165 14 -163 12 3 15 25 16 123 0 66 1 127 2 136 2 13 25 15 180 13 209 -4
202 -3 202 -24 0 -9 5 -21 11 -27 14 -14 -36 -22 -185 -28 -59 -2 -110 -6
-113 -9 -10 -10 -20 -77 -22 -145 -1 -55 2 -71 13 -71 23 0 40 28 27 44 -16
19 -8 125 10 137 8 5 39 9 69 10 30 0 66 2 80 4 53 7 148 7 159 1 17 -11 14
-63 -5 -70 -9 -3 -42 -6 -73 -6 -32 0 -86 -3 -120 -6 l-61 -7 0 -73 c0 -56 3
-74 14 -74 19 0 40 26 26 35 -5 3 -10 23 -10 44 l0 38 53 7 c28 3 82 6 120 6
l67 0 0 -42 c0 -24 4 -49 9 -57 14 -21 31 -3 31 33 0 17 4 36 9 41 5 6 19 39
31 75 12 36 28 75 36 88 14 21 17 21 42 8 15 -8 56 -41 91 -75 35 -33 80 -66
100 -72 57 -18 119 -58 142 -91 29 -40 66 -54 89 -33 10 9 20 12 23 7 8 -11
44 -125 57 -179 6 -24 16 -43 22 -43 5 0 27 18 47 40 37 40 128 103 204 141
23 12 53 31 67 44 14 12 54 32 90 45 36 12 130 52 209 87 79 35 175 76 213 90
39 13 111 45 161 69 50 24 95 44 101 44 6 0 23 -15 38 -34 15 -18 51 -48 80
-65 29 -17 73 -45 98 -60 52 -34 78 -38 87 -14 4 11 -7 27 -38 54 l-44 38 2
93 c1 51 4 116 8 144 6 50 8 53 76 99 38 27 69 54 69 62 0 20 -13 16 -60 -19
-72 -55 -190 -138 -195 -138 -3 0 -30 -16 -59 -36 -53 -35 -55 -35 -127 -29
-41 4 -110 13 -154 21 -44 7 -114 18 -155 24 -116 15 -222 40 -401 94 -47 14
-94 26 -105 26 -10 0 -55 12 -98 26 -94 29 -130 61 -139 122 -8 50 -20 59 -44
33z m29 -128 c25 -27 26 -26 -34 -46 -55 -18 -59 -12 -34 45 8 18 18 42 21 53
7 19 8 18 17 -5 5 -14 19 -35 30 -47z m-87 36 c-10 -29 -43 -101 -57 -121 -18
-25 -2 -34 35 -19 119 50 140 54 202 42 73 -13 264 -58 375 -88 30 -8 71 -15
91 -16 21 -1 35 -5 33 -8 -5 -8 90 -29 132 -29 19 0 79 -9 132 -19 53 -11 127
-23 164 -26 39 -4 72 -12 79 -21 6 -8 10 -16 8 -17 -27 -21 -104 -56 -221
-102 -79 -31 -195 -80 -258 -110 -112 -52 -284 -116 -365 -137 -22 -5 -83 -11
-135 -11 -98 -2 -140 10 -140 38 0 23 -16 18 -37 -10 l-18 -25 -23 22 c-12 13
-34 36 -47 51 -14 15 -40 34 -59 42 -19 8 -37 19 -40 24 -4 5 -20 12 -36 16
-22 5 -32 14 -36 33 -3 15 -10 41 -15 58 -12 41 -15 111 -5 153 7 29 6 33 -8
28 -8 -3 5 22 29 56 77 108 111 147 125 147 4 0 24 16 43 35 40 40 62 46 52
14z m-495 -74 c0 -10 -39 -150 -53 -189 l-14 -40 -10 42 c-9 36 -8 45 8 66 26
33 24 54 -6 62 -30 7 -53 42 -33 49 7 2 31 6 53 8 22 2 43 4 48 5 4 1 7 0 7
-3z m1905 -251 c-6 -66 -8 -71 -27 -66 -33 8 -87 68 -81 90 3 14 -2 21 -19 26
l-23 6 25 20 c14 11 48 30 75 43 l50 24 3 -36 c2 -20 1 -68 -3 -107z m-1687
-21 c-1 -43 2 -89 6 -103 3 -14 3 -18 -1 -9 -10 21 -91 89 -106 89 -9 1 90 99
100 100 1 0 2 -35 1 -77z m-211 -121 l-32 -79 -3 51 c-2 28 -7 55 -12 61 -17
20 11 40 62 44 14 1 11 -11 -15 -77z m668 -254 c17 -1 59 2 95 6 l65 8 -52
-36 c-29 -20 -57 -36 -62 -36 -6 0 -28 -18 -49 -40 l-39 -41 -12 53 c-6 29
-14 63 -18 76 -5 20 -3 22 18 17 13 -3 38 -6 54 -7z"/>
<path d="M1462 773 c-6 -16 -12 -37 -14 -48 -4 -25 -51 -33 -190 -34 -68 -1
-98 3 -101 12 -3 9 -10 7 -23 -6 -17 -16 -19 -32 -17 -148 1 -72 4 -133 6
-136 3 -2 40 0 84 6 196 27 218 28 225 17 4 -6 8 -37 8 -68 0 -54 1 -57 28
-60 15 -2 36 4 47 12 11 9 63 42 115 73 218 131 276 174 258 193 -4 3 -17 -1
-30 -10 -30 -21 -30 -21 -69 14 -19 17 -57 46 -84 65 -28 19 -76 59 -106 89
-47 47 -62 56 -91 56 -30 0 -37 -5 -46 -27z m89 -90 c-7 -18 -10 -77 -9 -160
3 -122 1 -133 -17 -147 -35 -27 -32 -39 -39 144 -2 72 1 115 10 138 10 25 11
38 2 51 -9 14 -8 22 3 33 12 13 16 12 38 -8 21 -20 23 -26 12 -51z m-111 -39
c0 -25 -1 -26 -48 -19 -54 7 -210 -11 -229 -27 -10 -8 -13 -3 -13 21 l0 31 78
1 c62 1 164 10 205 18 4 0 7 -11 7 -25z m167 -108 c-4 -66 -6 -122 -7 -124 0
-2 -5 -2 -11 0 -16 5 -23 226 -8 244 25 30 31 1 26 -120z m72 65 c16 -12 20
-21 12 -25 -6 -4 -11 -31 -11 -61 0 -56 -8 -69 -33 -59 -11 4 -14 17 -12 47 2
23 4 59 4 80 1 42 6 44 40 18z m-271 -7 c12 -4 22 -14 22 -24 0 -15 -13 -19
-87 -25 -204 -16 -228 -39 -38 -36 107 2 125 0 125 -14 0 -8 -3 -15 -7 -15 -5
-1 -64 -7 -133 -14 -69 -7 -126 -13 -126 -12 -1 0 -4 29 -7 63 -4 50 -2 61 9
56 8 -3 20 -1 27 5 18 15 174 27 215 16z m341 -45 c21 -17 22 -22 10 -33 -8
-8 -23 -17 -34 -20 -19 -5 -20 -2 -17 34 5 46 8 47 41 19z"/>
</g>
</svg>
