<?xml version="1.0" standalone="no"?>
<!DOCTYPE svg PUBLIC "-//W3C//DTD SVG 20010904//EN"
 "http://www.w3.org/TR/2001/REC-SVG-20010904/DTD/svg10.dtd">
<svg version="1.0" xmlns="http://www.w3.org/2000/svg"
 width="149.000000pt" height="119.000000pt" viewBox="0 0 149.000000 119.000000"
 preserveAspectRatio="xMidYMid meet">
<metadata>
Created by potrace 1.16, written by Peter Selinger 2001-2019
</metadata>
<g transform="translate(0.000000,119.000000) scale(0.100000,-0.100000)"
fill="#000000" stroke="none">
<path d="M250 1077 c-26 -42 -27 -51 -50 -417 -5 -96 -16 -218 -22 -270 -7
-52 -12 -119 -13 -149 l0 -54 215 1 c118 1 284 6 369 12 148 9 335 7 413 -6
31 -5 37 -2 43 16 4 11 2 27 -4 34 -6 7 -9 15 -6 17 2 3 11 59 20 125 8 65 19
144 25 174 5 30 17 125 25 210 9 85 21 177 27 204 10 46 9 50 -13 67 -13 9
-26 16 -29 14 -3 -2 -55 1 -115 6 -61 5 -157 12 -215 14 -58 2 -179 9 -270 15
-91 6 -214 12 -273 14 l-108 5 -19 -32z m530 -68 c217 -7 412 -12 433 -13 29
-1 36 -4 31 -16 -7 -17 -19 -97 -34 -225 -11 -98 -23 -184 -39 -285 -6 -36
-14 -96 -17 -135 -3 -38 -9 -72 -12 -75 -4 -3 -62 -3 -130 0 l-124 5 76 55
c91 65 103 92 60 127 -162 131 -234 146 -234 50 l0 -40 -107 7 c-60 3 -124 7
-143 9 -29 2 -36 -2 -38 -20 -3 -19 4 -22 68 -33 39 -7 104 -10 143 -8 69 3
72 2 73 -20 2 -31 -24 -36 -181 -36 -127 -1 -130 -2 -133 -24 -3 -21 -1 -22
85 -23 115 -1 162 0 196 7 26 5 28 4 23 -14 -12 -36 15 -37 45 -1 29 34 37 59
20 59 -11 0 -9 124 2 128 10 4 64 -25 114 -61 l43 -30 -65 -46 c-124 -87 -124
-87 -231 -95 -54 -4 -108 -6 -119 -5 -11 1 -98 3 -193 3 l-174 1 6 35 c11 64
35 274 40 365 4 50 9 110 12 135 2 25 7 61 9 80 2 19 4 63 4 98 l1 63 48 -6
c26 -3 225 -10 442 -16z"/>
<path d="M830 964 c-6 -14 -10 -32 -10 -40 0 -23 -20 -25 -131 -14 -229 23
-239 22 -239 -26 0 -20 5 -23 48 -23 127 0 197 -4 215 -10 11 -4 38 -4 60 -1
38 8 39 7 34 -19 -3 -14 -10 -38 -15 -52 l-10 -26 -147 3 c-118 2 -149 5 -158
17 -8 11 -21 14 -39 10 -35 -7 -36 -30 -3 -43 14 -5 25 -14 25 -18 0 -11 90
-24 140 -20 54 4 161 0 168 -6 3 -3 6 -27 6 -53 1 -36 5 -47 19 -49 24 -3 37
26 37 80 0 25 4 65 10 88 5 24 13 70 17 102 9 69 24 80 46 34 20 -41 73 -92
121 -114 20 -10 36 -21 36 -26 0 -5 -26 -24 -57 -44 -32 -20 -75 -48 -97 -62
-21 -15 -48 -31 -60 -37 -11 -6 -22 -18 -24 -28 -7 -37 54 -15 177 65 14 10
42 26 61 36 65 34 80 47 80 67 0 28 -25 62 -58 79 -15 8 -58 46 -97 85 -62 63
-74 71 -108 71 -31 0 -39 -4 -47 -26z"/>
</g>
</svg>
