<?xml version="1.0" standalone="no"?>
<!DOCTYPE svg PUBLIC "-//W3C//DTD SVG 20010904//EN"
 "http://www.w3.org/TR/2001/REC-SVG-20010904/DTD/svg10.dtd">
<svg version="1.0" xmlns="http://www.w3.org/2000/svg"
 width="206.000000pt" height="156.000000pt" viewBox="0 0 206.000000 156.000000"
 preserveAspectRatio="xMidYMid meet">
<metadata>
Created by potrace 1.16, written by Peter Selinger 2001-2019
</metadata>
<g transform="translate(0.000000,156.000000) scale(0.100000,-0.100000)"
fill="#000000" stroke="none">
<path d="M461 1416 c-20 -21 -22 -28 -12 -40 7 -9 21 -18 31 -21 16 -5 48 -71
38 -79 -1 -2 -43 0 -93 4 -118 10 -119 9 -111 -96 3 -45 9 -89 12 -98 8 -20
33 -20 63 0 38 27 144 56 153 41 9 -15 10 -36 12 -454 l2 -333 -69 0 c-47 0
-78 5 -98 17 -23 14 -31 15 -41 4 -11 -10 -8 -17 15 -37 25 -21 37 -24 113
-24 68 0 84 -3 84 -15 0 -8 7 -15 15 -15 8 0 15 6 15 14 0 8 12 17 28 19 25 5
268 3 377 -2 l50 -3 -60 -14 c-33 -8 -89 -18 -125 -23 -36 -5 -108 -20 -160
-34 -230 -61 -296 -80 -322 -93 -15 -8 -31 -14 -35 -14 -4 0 -9 59 -10 131 -1
72 -4 134 -7 137 -4 3 -12 0 -19 -7 -8 -7 -14 -62 -19 -149 -3 -75 -9 -152
-13 -169 -9 -39 11 -45 40 -13 54 60 390 170 590 194 28 3 74 10 104 16 139
26 494 35 624 15 38 -6 47 -5 47 7 0 43 -93 51 -622 52 -246 1 -450 5 -454 9
-5 4 -7 83 -6 175 10 691 3 642 100 661 33 6 116 14 183 17 68 3 135 7 149 10
23 4 107 8 382 18 110 4 100 12 117 -89 16 -96 29 -284 37 -520 6 -228 16
-285 50 -285 14 0 16 7 10 49 -10 79 -9 533 2 540 9 6 45 107 77 223 9 32 25
68 36 82 23 30 11 37 -50 29 -41 -6 -48 -23 -9 -23 14 0 18 -5 14 -15 -3 -9
-13 -41 -22 -72 -22 -77 -62 -160 -68 -142 -2 7 -9 52 -15 99 -6 47 -14 95
-17 108 -6 19 -3 22 24 22 17 0 33 4 37 9 6 11 -58 26 -73 17 -14 -8 -445 -8
-592 0 -74 5 -172 8 -217 6 -58 -1 -83 1 -83 9 0 7 16 36 36 66 53 80 48 85
-71 88 -55 1 -111 5 -125 9 -20 5 -31 2 -49 -18z m181 -104 c-14 -37 -22 -46
-38 -44 -27 5 -34 14 -41 55 l-5 36 43 3 c24 2 47 2 51 0 4 -1 -1 -24 -10 -50z
m-180 -67 c63 -7 66 -8 70 -36 4 -27 1 -30 -36 -39 -23 -6 -59 -17 -80 -25
-22 -8 -40 -14 -42 -12 -1 1 -6 22 -11 47 -11 57 -6 82 15 76 9 -3 47 -8 84
-11z m148 -31 c0 -8 -4 -14 -10 -14 -5 0 -10 9 -10 21 0 11 5 17 10 14 6 -3
10 -13 10 -21z m320 15 c0 -7 -31 -10 -92 -7 -51 1 -114 -1 -140 -6 -33 -6
-48 -5 -48 2 0 13 48 18 183 20 64 1 97 -2 97 -9z m147 -925 c-3 -3 -12 -4
-19 -1 -8 3 -5 6 6 6 11 1 17 -2 13 -5z"/>
<path d="M1368 1192 c-70 -4 -86 -18 -64 -61 9 -16 16 -44 16 -61 0 -24 -4
-30 -21 -30 -20 0 -21 4 -16 45 6 43 6 45 -13 35 -14 -8 -20 -21 -20 -46 0
-35 -18 -53 -40 -39 -8 5 -6 14 5 31 18 29 9 30 -50 8 -22 -8 -70 -17 -107
-21 -57 -5 -68 -9 -68 -24 0 -11 -4 -19 -9 -19 -10 0 -8 -106 2 -117 4 -3 16
2 27 12 21 19 86 29 96 14 3 -5 15 -9 28 -9 12 0 31 -7 42 -15 10 -8 26 -15
35 -15 9 0 24 -9 33 -19 11 -12 25 -17 38 -13 11 2 23 0 27 -7 5 -8 12 -7 26
3 15 11 19 30 23 92 2 43 8 81 13 85 5 3 7 12 4 21 -3 8 10 38 30 68 20 29 38
56 40 60 10 16 -22 25 -77 22z m0 -51 c10 -6 10 -10 -1 -20 -12 -9 -16 -7 -20
9 -5 21 0 25 21 11z m-188 -96 c0 -8 -4 -15 -9 -15 -13 0 -22 16 -14 24 11 11
23 6 23 -9z m-150 -40 c-7 -8 -17 -12 -22 -9 -6 4 -5 10 3 15 22 14 33 10 19
-6z m78 3 c-3 -7 -15 -15 -28 -16 -21 -3 -22 -2 -11 12 16 19 44 21 39 4z
m220 -39 c-9 -91 -41 -92 -51 -1 l-6 52 31 0 31 0 -5 -51z m-158 16 c0 -27
-18 -33 -38 -13 -20 20 -14 38 13 38 20 0 25 -5 25 -25z m70 -20 c0 -47 -12
-58 -30 -26 -18 34 -13 71 10 71 17 0 20 -7 20 -45z m-205 -15 c-3 -5 -11 -10
-16 -10 -6 0 -7 5 -4 10 3 6 11 10 16 10 6 0 7 -4 4 -10z"/>
<path d="M1300 713 c-8 -3 -50 -25 -93 -50 -42 -25 -84 -43 -92 -39 -9 3 -25
-8 -42 -30 -22 -30 -29 -33 -37 -21 -14 18 -53 31 -60 19 -3 -5 1 -18 9 -28
20 -27 18 -65 -5 -94 -29 -37 -23 -69 7 -39 6 6 35 11 63 11 59 0 55 21 -4 22
-29 1 -33 3 -25 19 6 9 14 17 20 17 19 0 79 -55 79 -72 0 -10 5 -18 10 -18 6
0 10 5 10 10 0 6 7 10 15 10 8 0 15 -9 15 -20 0 -11 6 -20 13 -20 7 0 31 -9
52 -20 22 -11 47 -17 55 -14 8 4 18 7 21 6 4 -1 9 33 13 76 4 42 10 79 14 82
4 3 16 23 27 45 10 22 32 59 47 83 16 24 25 48 22 54 -4 6 -24 7 -51 3 -24 -3
-50 -2 -56 3 -7 5 -19 7 -27 5z m-12 -55 c13 -17 18 -69 9 -86 -5 -6 -17 -12
-28 -12 -16 0 -19 7 -19 48 0 61 14 79 38 50z m82 -3 c0 -2 -5 -15 -11 -29
-14 -30 -29 -25 -29 10 0 17 5 24 20 24 11 0 20 -2 20 -5z m-138 -17 c-7 -7
-12 -29 -12 -50 0 -21 -4 -38 -10 -38 -5 0 -10 11 -10 24 0 35 17 76 32 76 9
0 9 -3 0 -12z m-50 -53 c-3 -26 -9 -35 -22 -35 -33 0 -12 69 20 70 4 0 4 -16
2 -35z m-69 -15 c-3 -11 -12 -20 -19 -20 -17 0 -18 12 -2 28 18 18 27 15 21
-8z m7 -77 c0 -22 -16 -14 -28 12 -11 23 -10 24 8 13 11 -7 20 -18 20 -25z
m178 -65 l-4 -33 -8 28 c-5 15 -5 44 0 65 l8 37 4 -32 c2 -18 2 -48 0 -65z
m-128 51 c0 -20 -4 -29 -12 -27 -18 6 -19 58 -2 58 9 0 14 -12 14 -31z m80
-14 c0 -45 -5 -50 -34 -39 -11 4 -16 19 -16 45 0 35 3 39 25 39 23 0 25 -4 25
-45z"/>
</g>
</svg>
