<?xml version="1.0" standalone="no"?>
<!DOCTYPE svg PUBLIC "-//W3C//DTD SVG 20010904//EN"
 "http://www.w3.org/TR/2001/REC-SVG-20010904/DTD/svg10.dtd">
<svg version="1.0" xmlns="http://www.w3.org/2000/svg"
 width="154.000000pt" height="122.000000pt" viewBox="0 0 154.000000 122.000000"
 preserveAspectRatio="xMidYMid meet">
<metadata>
Created by potrace 1.16, written by Peter Selinger 2001-2019
</metadata>
<g transform="translate(0.000000,122.000000) scale(0.100000,-0.100000)"
fill="#000000" stroke="none">
<path d="M457 1064 c-3 -3 -41 -6 -85 -6 -66 0 -84 -3 -101 -19 -12 -11 -22
-25 -22 -32 -5 -34 -21 -832 -20 -918 1 -50 28 -60 59 -22 94 116 120 127 337
141 153 9 550 10 600 1 14 -3 19 1 16 11 -7 26 -5 331 4 443 7 91 11 109 27
118 13 7 17 16 13 31 -5 14 8 45 45 105 28 46 49 91 46 99 -6 17 -81 19 -122
4 -40 -16 -596 -18 -659 -3 -27 6 -67 15 -88 18 -21 3 -35 10 -32 15 6 10 -9
22 -18 14z m-50 -58 c1 -1 -24 -40 -55 -87 l-57 -85 -1 85 c0 47 4 89 9 92 7
5 96 1 104 -5z m143 -16 c-1 -7 -69 -80 -75 -80 -3 0 -5 19 -5 43 l0 42 40 0
c22 0 40 -2 40 -5z m790 6 c0 -3 -19 -35 -42 -73 l-43 -68 -3 34 c-2 20 2 37
9 42 10 6 10 11 0 23 -12 14 -10 16 12 16 15 0 32 7 39 15 13 14 28 20 28 11z
m-202 -25 l102 -1 -15 -23 c-11 -17 -16 -68 -22 -197 -9 -238 -10 -421 -1
-426 4 -3 7 -23 6 -45 l-1 -39 -46 -1 c-25 -1 -111 -1 -191 0 -185 3 -183 3
-386 -4 -145 -5 -181 -3 -240 12 l-69 18 -3 55 c-1 30 3 142 9 248 l11 193 44
72 c24 40 55 86 69 102 22 26 25 28 26 10 1 -54 8 -88 19 -98 12 -13 10 -14
89 83 l34 42 101 -6 c55 -3 137 -3 181 1 44 5 103 7 130 7 28 -1 96 -2 153 -3z
m-773 -767 c19 -4 24 -8 15 -11 -8 -3 -36 -23 -62 -45 l-48 -39 0 59 c0 32 3
61 6 64 3 4 18 0 32 -8 15 -7 41 -16 57 -20z"/>
<path d="M923 913 c-4 -10 -13 -23 -20 -28 -10 -8 -15 -40 -16 -113 -1 -98 -2
-103 -22 -98 -11 3 -26 1 -34 -3 -27 -17 1 -31 60 -30 69 1 78 -3 55 -26 -9
-10 -24 -31 -34 -48 l-17 -32 -5 50 c-5 47 -6 49 -18 27 -8 -14 -15 -76 -18
-167 -4 -121 -3 -145 9 -145 18 0 27 43 27 132 0 67 2 72 44 127 25 32 56 65
70 75 25 16 26 16 26 -5 0 -17 4 -20 20 -15 72 22 68 23 39 -15 -14 -19 -34
-47 -43 -64 l-17 -30 5 43 c5 47 -5 55 -22 17 -20 -44 -9 -235 14 -242 7 -2
13 25 17 79 6 95 26 147 80 208 40 46 41 65 1 50 -14 -6 -34 -10 -46 -10 -17
0 -19 4 -14 27 8 28 82 138 115 167 33 30 25 39 -28 34 -27 -3 -57 0 -68 6
-10 5 -43 13 -73 17 -30 5 -56 13 -58 18 -6 17 -22 13 -29 -6z m102 -53 c-16
-4 -22 -8 -12 -9 25 -2 21 -11 -28 -61 -27 -27 -45 -54 -45 -67 0 -38 26 -26
52 24 27 53 85 99 136 109 l33 7 -38 -55 -38 -55 -3 33 c-5 54 -18 40 -31 -35
-13 -72 -21 -81 -69 -81 -49 0 -55 11 -49 86 4 38 7 79 7 92 0 20 4 22 58 21
47 -1 52 -3 27 -9z"/>
<path d="M555 839 c-4 -6 -4 -13 -1 -16 3 -3 -7 -22 -22 -42 -15 -20 -41 -55
-57 -79 -32 -48 -52 -62 -88 -62 -23 0 -66 -35 -55 -45 3 -3 11 1 18 10 7 8
24 15 38 15 25 0 25 0 7 -20 -14 -15 -20 -17 -26 -8 -11 18 -14 12 -34 -70
-18 -76 -14 -142 9 -142 21 0 25 11 14 35 -16 36 -1 113 29 143 29 29 24 31
73 -48 13 -22 41 -52 62 -66 21 -15 38 -33 38 -41 0 -8 -25 -44 -56 -79 -31
-36 -55 -67 -52 -69 3 -3 29 17 59 45 54 50 69 59 69 40 0 -8 114 -90 126 -90
16 0 -2 32 -37 65 -48 47 -61 69 -66 110 -5 44 19 158 37 172 19 15 33 6 27
-18 -6 -22 3 -25 21 -7 9 9 12 9 12 -1 0 -21 40 -71 57 -71 14 0 14 2 1 18
-23 27 -58 92 -58 107 0 23 -18 27 -45 9 l-25 -16 11 31 c6 17 15 31 19 31 4
0 26 15 48 33 22 17 48 37 58 43 29 18 6 34 -82 55 -42 10 -82 23 -88 29 -13
13 -33 13 -41 -1z m17 -64 c-15 -13 -29 -22 -30 -20 -8 8 34 52 45 48 8 -3 2
-13 -15 -28z m101 8 c4 -3 3 -11 -2 -17 -17 -21 -78 -182 -91 -243 -8 -35 -17
-63 -21 -63 -13 0 -70 71 -64 80 9 14 15 120 6 120 -4 0 -13 -6 -20 -12 -7 -7
-4 6 8 30 13 25 32 47 48 53 14 5 38 18 53 29 16 11 35 17 44 14 9 -3 16 -1
16 5 0 12 13 15 23 4z m49 -8 c11 -4 6 -15 -19 -42 -19 -19 -36 -34 -37 -32
-6 7 26 79 34 79 5 0 15 -2 22 -5z m-242 -192 c-1 -36 -2 -37 -15 -19 -16 21
-19 39 -8 49 15 16 23 5 23 -30z"/>
</g>
</svg>
