<?xml version="1.0" standalone="no"?>
<!DOCTYPE svg PUBLIC "-//W3C//DTD SVG 20010904//EN"
 "http://www.w3.org/TR/2001/REC-SVG-20010904/DTD/svg10.dtd">
<svg version="1.0" xmlns="http://www.w3.org/2000/svg"
 width="182.000000pt" height="102.000000pt" viewBox="0 0 182.000000 102.000000"
 preserveAspectRatio="xMidYMid meet">
<metadata>
Created by potrace 1.16, written by Peter Selinger 2001-2019
</metadata>
<g transform="translate(0.000000,102.000000) scale(0.100000,-0.100000)"
fill="#000000" stroke="none">
<path d="M1565 914 c-11 -2 -283 -6 -605 -8 -322 -3 -607 -7 -635 -10 -27 -3
-64 -1 -82 3 -22 6 -35 5 -42 -3 -21 -25 -32 -159 -30 -371 1 -121 1 -237 0
-257 -3 -49 12 -75 47 -83 16 -3 29 -11 30 -18 3 -43 19 -101 29 -104 8 -3 13
16 15 59 l3 62 195 3 c107 1 292 3 410 4 118 1 244 5 280 10 36 4 90 11 120
15 30 3 119 7 198 8 l143 1 3 220 c2 156 7 239 18 285 9 36 19 89 22 117 6 49
5 53 -16 57 -43 9 -83 12 -103 10z m-210 -28 c222 -7 291 -16 282 -40 -7 -18
-26 -135 -34 -206 -5 -36 -8 -136 -8 -222 0 -181 9 -167 -110 -168 -38 0 -117
-5 -175 -10 -58 -5 -170 -13 -249 -16 l-143 -7 12 22 c6 13 28 29 48 38 20 8
66 28 101 45 57 27 68 29 100 19 41 -12 61 -1 42 23 -11 13 -9 17 15 27 16 6
37 15 47 20 10 6 55 23 100 40 149 54 151 74 16 124 -46 17 -138 54 -204 82
-66 28 -136 55 -155 62 -54 17 -190 91 -190 103 0 6 -8 8 -19 5 -10 -2 -26 0
-35 5 -31 17 -38 -3 -13 -36 29 -38 27 -86 -4 -86 -23 0 -24 -17 -2 -42 9 -10
13 -21 9 -26 -4 -4 -96 -7 -204 -7 -147 0 -196 -3 -199 -13 -3 -8 1 -10 13 -5
14 5 16 2 11 -18 -13 -46 -27 -161 -21 -170 4 -7 74 -8 190 -3 l185 6 -3 -98
-3 -99 -215 -5 c-118 -3 -223 -3 -232 -1 -23 4 -24 61 -3 146 19 79 19 106 0
99 -26 -10 -55 -88 -61 -167 -7 -78 -11 -86 -32 -65 -14 14 -16 84 -2 93 9 5
13 182 11 476 l0 65 77 0 c73 0 625 15 629 18 3 2 208 -1 428 -8z m-405 -175
c30 -16 70 -32 87 -36 18 -3 35 -10 37 -13 2 -4 -13 -27 -33 -51 l-38 -44 -64
32 c-103 52 -104 54 -101 125 2 25 5 28 30 22 15 -4 52 -20 82 -35z m208 -77
c12 -4 22 -10 22 -14 0 -4 -18 -30 -40 -58 l-41 -51 -34 21 c-37 21 -37 22 3
76 24 32 44 38 90 26z m-181 -81 c8 -6 8 -13 -2 -26 -12 -16 -17 -15 -79 24
-42 27 -66 49 -66 61 0 16 8 14 68 -16 37 -20 72 -39 79 -43z m-296 51 c67 4
90 2 98 -8 14 -17 3 -125 -13 -127 -6 -1 -33 -2 -61 -3 -27 -1 -105 -6 -172
-10 -116 -9 -122 -8 -118 10 2 10 4 42 4 71 1 74 12 82 103 70 40 -5 112 -6
159 -3z m682 -44 c27 -7 47 -18 47 -26 0 -10 7 -13 24 -8 13 3 27 1 31 -5 6
-11 -86 -60 -115 -61 -8 0 -33 -9 -55 -20 -33 -15 -43 -16 -55 -6 -8 7 -36 24
-62 36 -27 13 -48 28 -48 34 0 6 18 32 40 58 l40 46 52 -18 c29 -10 74 -23
101 -30z m-477 -37 c24 -16 43 -34 44 -41 0 -13 -36 -61 -93 -126 l-28 -31 6
95 c7 97 12 130 22 130 3 0 25 -12 49 -27z m164 -8 c33 -17 37 -27 15 -45 -29
-24 -89 16 -65 45 15 18 14 18 50 0z m128 -66 l67 -30 -29 -16 c-27 -14 -31
-13 -80 13 -64 34 -61 31 -46 49 16 19 9 20 88 -16z m-188 2 c0 -5 9 -11 21
-14 20 -6 21 -6 3 -36 -48 -82 -152 -161 -191 -146 -17 6 -8 25 39 83 18 22
46 59 61 81 25 37 67 57 67 32z m110 -56 c17 -9 30 -19 30 -23 0 -7 -122 -62
-139 -62 -6 0 6 22 27 50 20 27 41 50 45 50 4 0 21 -7 37 -15z"/>
</g>
</svg>
