<?xml version="1.0" standalone="no"?>
<!DOCTYPE svg PUBLIC "-//W3C//DTD SVG 20010904//EN"
 "http://www.w3.org/TR/2001/REC-SVG-20010904/DTD/svg10.dtd">
<svg version="1.0" xmlns="http://www.w3.org/2000/svg"
 width="227.000000pt" height="108.000000pt" viewBox="0 0 227.000000 108.000000"
 preserveAspectRatio="xMidYMid meet">
<metadata>
Created by potrace 1.16, written by Peter Selinger 2001-2019
</metadata>
<g transform="translate(0.000000,108.000000) scale(0.100000,-0.100000)"
fill="#000000" stroke="none">
<path d="M219 869 c-14 -14 -19 -27 -14 -42 25 -80 27 -117 16 -266 -12 -176
-17 -388 -9 -396 18 -18 27 41 34 220 7 194 8 200 31 218 13 10 41 44 62 76
21 31 47 63 56 71 16 13 17 10 11 -50 -3 -36 -7 -101 -10 -145 -2 -45 -7 -101
-11 -125 -4 -25 -8 -77 -9 -117 -1 -40 -7 -78 -14 -86 -10 -12 -10 -17 -1 -23
24 -15 44 35 41 101 -1 11 1 57 4 103 5 69 9 82 22 77 10 -4 30 11 58 42 l43
48 1 -41 c0 -25 6 -47 16 -55 13 -11 25 -3 82 58 37 39 76 75 87 81 12 6 71 9
140 8 144 -3 217 4 223 23 3 10 -6 12 -45 6 -67 -9 -446 14 -454 27 -10 15
-29 0 -29 -23 0 -15 -7 -19 -32 -19 -18 0 -43 3 -55 6 -26 7 -27 5 63 84 l59
52 85 -8 c101 -10 307 -10 317 -1 12 12 0 15 -102 20 -55 3 -134 11 -175 17
-41 6 -94 13 -118 15 -24 2 -59 13 -79 25 -20 11 -42 19 -49 16 -8 -3 -14 1
-14 9 0 20 -20 19 -35 -1 -10 -15 -18 -15 -89 0 -43 9 -80 16 -82 16 -2 0 -13
-9 -25 -21z m181 -56 c0 -3 -14 -26 -32 -52 -120 -177 -113 -173 -113 -48 0
56 3 104 6 107 9 6 139 0 139 -7z m114 -12 l48 -18 -61 -47 -61 -47 0 59 c0
55 5 72 19 72 3 0 28 -8 55 -19z m94 -150 c9 -5 31 -13 49 -18 l32 -8 -61 -63
c-33 -34 -63 -60 -66 -57 -9 9 -3 88 8 99 6 6 10 20 10 33 0 26 3 27 28 14z
m-98 -49 c0 -8 -75 -92 -82 -92 -4 0 -8 22 -8 49 l0 48 45 -1 c25 0 45 -2 45
-4z"/>
<path d="M1940 691 c0 -13 -89 -143 -128 -187 l-27 -32 -87 9 c-108 10 -168
26 -168 43 0 23 -39 27 -50 5 -12 -22 -68 -26 -101 -8 -15 7 -24 7 -35 -2 -20
-17 1 -39 37 -39 35 0 35 -2 7 -41 l-23 -31 -5 29 c-3 16 -12 28 -20 28 -12 0
-14 -22 -12 -143 3 -129 2 -145 -15 -158 -17 -13 -15 -17 32 -59 28 -24 53
-45 57 -45 9 0 27 63 35 122 4 36 14 54 41 80 l34 33 -4 -52 c-3 -29 -3 -55
-1 -57 3 -3 26 10 51 29 26 18 54 34 62 36 20 3 83 -9 141 -27 26 -8 58 -13
73 -10 15 3 49 -5 81 -19 38 -17 56 -21 61 -13 4 6 -1 17 -10 24 -12 8 -14 14
-5 19 7 5 9 24 5 58 -16 115 33 326 91 389 15 16 14 17 -13 16 -16 -1 -46 2
-66 6 -26 6 -38 5 -38 -3z m83 -38 c-4 -9 -14 -32 -23 -51 l-17 -34 -1 51 c-1
48 1 51 23 51 19 0 23 -4 18 -17z m-60 -14 c3 -11 -4 -78 -16 -147 -12 -70
-21 -160 -20 -199 1 -48 -3 -71 -9 -67 -6 4 -38 10 -72 14 -95 12 -195 39
-258 72 l-58 29 -57 -42 c-32 -24 -69 -53 -83 -65 l-25 -23 0 72 c0 68 2 76
38 124 51 70 67 75 67 18 0 -24 5 -47 10 -50 6 -4 38 12 73 34 56 37 68 41
124 41 51 0 63 -3 63 -16 0 -12 6 -15 25 -10 17 4 27 2 31 -8 6 -17 62 -42 71
-32 4 3 8 26 9 50 1 24 9 58 18 76 20 40 20 44 2 37 -10 -4 -3 16 17 53 18 33
35 60 38 60 4 0 9 -9 12 -21z m-104 -173 c-11 -38 -13 -39 -33 -17 -17 19 -17
21 5 51 20 27 24 29 30 13 3 -10 2 -31 -2 -47z m-295 -1 c17 -5 15 -9 -17 -30
-20 -14 -38 -25 -41 -25 -4 0 -6 18 -6 40 0 37 1 39 23 31 12 -5 31 -12 41
-16z m10 -181 c3 -9 10 -12 16 -9 5 3 10 2 10 -3 0 -6 -15 -19 -34 -30 l-34
-20 3 41 c2 23 4 43 4 44 2 8 30 -11 35 -23z m-160 -56 c-4 -7 -6 -33 -5 -59
3 -57 -9 -67 -40 -32 -16 18 -20 27 -11 30 6 3 12 11 12 19 0 8 8 14 17 14 9
0 13 3 10 7 -4 3 -2 12 4 20 14 16 23 17 13 1z"/>
<path d="M926 555 c-20 -19 -113 -83 -144 -99 -20 -10 -57 -16 -102 -16 -69 0
-91 -12 -48 -26 22 -7 22 -7 -7 -30 -17 -13 -34 -24 -39 -24 -7 0 -5 31 5 70
3 12 -7 14 -56 11 -33 -2 -63 -5 -68 -8 -15 -9 5 -23 34 -23 29 0 29 0 13 -25
-20 -30 -32 -32 -36 -5 -2 12 -7 21 -12 20 -11 0 -14 -200 -2 -200 4 0 5 -8 2
-17 -10 -24 15 -35 36 -16 10 9 18 21 18 27 0 7 10 18 21 26 12 8 31 25 43 37
12 13 35 25 53 29 29 6 33 3 39 -20 3 -14 4 -33 1 -41 -12 -29 10 -24 43 10
39 41 47 42 130 16 49 -15 68 -17 89 -9 25 10 22 12 -39 28 -36 9 -100 29
-143 44 -92 31 -97 31 -97 8 0 -14 -14 -20 -68 -30 -38 -6 -76 -14 -85 -18
-13 -5 -17 0 -17 20 0 14 4 26 9 26 5 0 18 15 30 33 13 19 21 26 21 16 0 -9 6
-22 14 -28 11 -9 24 -4 60 24 65 49 115 54 158 14 30 -29 46 -27 48 6 3 47 15
92 29 102 28 23 73 45 78 39 3 -3 0 -27 -7 -53 -18 -71 -25 -173 -11 -173 6 0
11 6 12 13 5 99 30 159 88 211 12 11 21 22 21 27 0 11 -102 15 -114 4z m48
-50 c-19 -29 -29 -27 -19 4 3 12 13 21 21 21 12 0 12 -4 -2 -25z m-154 -62
c-1 -19 -16 -31 -29 -24 -7 5 -10 14 -7 20 8 12 36 15 36 4z m-93 -149 c15
-14 14 -17 -6 -37 l-21 -21 0 37 c0 41 4 44 27 21z m-196 -54 c-26 -23 -36
-27 -43 -18 -4 7 -8 17 -8 21 0 10 39 26 65 26 17 1 14 -4 -14 -29z"/>
</g>
</svg>
