<?xml version="1.0" standalone="no"?>
<!DOCTYPE svg PUBLIC "-//W3C//DTD SVG 20010904//EN"
 "http://www.w3.org/TR/2001/REC-SVG-20010904/DTD/svg10.dtd">
<svg version="1.0" xmlns="http://www.w3.org/2000/svg"
 width="248.000000pt" height="121.000000pt" viewBox="0 0 248.000000 121.000000"
 preserveAspectRatio="xMidYMid meet">
<metadata>
Created by potrace 1.16, written by Peter Selinger 2001-2019
</metadata>
<g transform="translate(0.000000,121.000000) scale(0.100000,-0.100000)"
fill="#000000" stroke="none">
<path d="M1399 1173 c-10 -11 -15 -52 -17 -137 -1 -67 -3 -134 -5 -151 -3 -45
25 -43 80 4 25 23 50 41 56 41 8 0 2 -78 -7 -87 -1 -2 -56 -6 -122 -9 -115 -7
-121 -6 -171 19 -28 15 -54 31 -58 37 -3 5 -14 10 -25 10 -23 0 -28 -22 -36
-147 -6 -84 -4 -104 10 -124 27 -39 21 -52 -21 -46 -81 12 -105 20 -128 43
-43 43 -75 25 -75 -42 0 -40 -12 -64 -24 -46 -7 12 -7 99 0 159 5 44 13 58 55
99 54 53 61 74 26 74 -16 0 -56 -33 -130 -107 -129 -130 -133 -133 -150 -133
-16 0 -37 -20 -37 -36 0 -11 182 -127 219 -139 11 -3 29 -22 41 -41 16 -28 24
-34 38 -28 9 4 37 8 62 8 39 1 45 4 48 24 2 13 -2 22 -10 22 -18 1 22 30 41
30 8 0 23 7 33 17 17 15 18 14 18 -45 0 -44 4 -62 13 -62 21 0 37 22 37 51 0
15 4 39 10 53 8 21 16 26 44 26 41 0 45 -11 32 -93 -10 -62 -4 -77 22 -61 11
7 21 34 27 72 6 34 15 65 20 70 6 5 35 12 66 15 l56 5 -2 -126 c-1 -70 -8
-147 -14 -171 -24 -84 9 -96 62 -22 23 32 61 65 110 95 41 26 78 53 81 61 4
11 20 13 68 10 35 -3 73 -5 86 -5 12 0 25 -7 28 -15 8 -21 32 -19 46 5 10 16
24 20 66 20 38 0 54 -4 58 -15 17 -45 74 7 74 67 0 24 8 80 17 124 15 75 19
83 47 95 38 17 44 54 9 53 -37 -1 -29 45 20 116 23 34 53 81 67 105 14 23 40
57 58 74 20 18 32 38 30 48 -3 16 -21 19 -138 26 -74 4 -200 9 -280 11 -224 5
-409 42 -460 91 -30 29 -52 32 -71 8z m140 -116 l54 -14 -69 -39 c-38 -21 -72
-40 -76 -42 -5 -2 -8 28 -8 67 l0 71 23 -14 c12 -9 46 -21 76 -29z m167 -59
c-3 -13 -12 -61 -20 -108 -9 -47 -19 -105 -24 -130 -6 -35 -12 -46 -29 -48
-19 -3 -21 1 -18 25 8 61 48 249 56 266 14 26 40 22 35 -5z m89 2 c3 -11 4
-23 2 -27 -3 -5 -8 -35 -11 -68 -7 -64 -11 -87 -28 -152 -9 -36 -15 -43 -35
-43 -24 0 -24 2 -18 43 13 79 44 232 50 250 9 23 32 22 40 -3z m149 -82 c-3
-57 -11 -113 -15 -126 -5 -13 -9 -36 -9 -52 0 -27 -15 -48 -27 -37 -3 3 2 48
11 100 9 52 16 115 16 140 0 51 7 77 22 77 6 0 7 -38 2 -102z m88 80 c2 -29 1
-34 -13 -153 -13 -115 -22 -145 -44 -145 -16 0 -16 13 6 139 5 30 9 80 9 111
0 31 3 60 7 63 14 15 33 6 35 -15z m-152 5 c0 -26 -22 -197 -31 -245 -8 -41
-16 -58 -30 -61 -28 -8 -31 6 -15 70 8 32 20 95 25 141 6 46 13 87 16 93 7 11
35 12 35 2z m359 -2 c11 -7 7 -21 -23 -69 -20 -33 -43 -66 -53 -73 -15 -13
-16 -11 -10 20 4 18 7 55 7 82 0 49 0 49 33 49 17 0 38 -4 46 -9z m-150 -258
c-7 -26 -18 -43 -26 -43 -12 0 -14 10 -9 48 3 26 7 54 9 62 2 8 7 47 11 85 4
39 10 77 14 85 12 27 13 -194 1 -237z m-486 190 c-14 -108 -39 -207 -52 -211
-10 -3 -12 5 -8 34 6 44 23 131 30 154 3 8 8 27 11 43 11 47 26 31 19 -20z
m-376 -157 l42 -12 -52 -19 c-29 -11 -55 -21 -59 -23 -5 -2 -8 15 -8 38 0 36
2 41 18 35 9 -5 36 -13 59 -19z m258 -6 c7 -12 -14 -157 -26 -182 -9 -16 -94
-37 -106 -25 -3 3 18 31 47 61 66 70 63 91 -12 84 -28 -3 -59 -3 -69 -1 -22 6
-26 23 -6 23 8 0 22 9 32 19 10 12 34 21 59 24 22 2 49 4 58 5 9 1 20 -3 23
-8z m-693 -145 l-4 -44 -31 16 -31 16 32 28 c18 16 33 29 35 29 1 0 1 -20 -1
-45z m428 27 c0 -13 -30 -52 -41 -52 -5 0 -9 14 -9 30 0 25 4 30 25 30 14 0
25 -3 25 -8z m325 -54 c-8 -80 -14 -100 -26 -92 -11 7 -9 83 3 90 4 3 8 18 8
35 0 16 5 29 11 29 8 0 9 -20 4 -62z m90 -30 c-8 -103 -10 -108 -34 -108 -19
0 -20 5 -15 83 7 102 9 107 34 107 21 0 21 -3 15 -82z m98 65 c-1 -6 -8 -52
-14 -102 -10 -76 -15 -91 -28 -89 -13 3 -16 16 -14 73 3 110 10 137 36 133 12
-2 21 -8 20 -15z m160 -9 c-6 -17 -10 -59 -12 -129 -1 -50 -14 -85 -27 -73 -6
6 12 182 22 216 2 7 8 11 13 7 6 -3 8 -12 4 -21z m90 19 c2 -5 -3 -53 -13
-108 -13 -77 -20 -101 -33 -103 -10 -2 -17 3 -17 11 0 21 21 180 25 195 5 13
31 17 38 5z m82 -35 c-23 -155 -29 -178 -48 -178 -16 0 -18 5 -13 30 3 17 11
61 17 98 7 37 17 73 22 80 19 25 29 12 22 -30z m-242 -5 c-4 -47 -23 -156 -29
-165 -3 -4 -11 -5 -19 -1 -16 5 -21 54 -7 67 4 4 7 24 8 44 2 89 3 92 27 92
20 0 23 -4 20 -37z m-543 4 c0 -22 -24 -47 -38 -39 -9 6 -7 14 8 30 24 25 30
27 30 9z m-272 -70 c22 -13 21 -13 -22 -34 -49 -24 -56 -22 -56 19 0 24 4 28
28 28 15 -1 37 -6 50 -13z m502 -158 c0 -36 2 -40 23 -37 16 2 23 11 25 31 3
21 9 27 28 27 39 0 28 -26 -27 -60 -28 -17 -53 -30 -55 -28 -2 2 -6 27 -10 56
-4 35 -2 52 5 52 6 0 11 -18 11 -41z"/>
<path d="M139 956 c-14 -15 -11 -54 5 -63 26 -16 41 -198 17 -226 -12 -15 -13
-385 -1 -392 14 -8 37 30 43 70 4 22 12 44 19 50 19 14 68 92 68 107 0 7 13
28 29 47 28 34 29 34 40 13 13 -25 19 -244 8 -290 -8 -29 -6 -32 13 -32 25 0
50 51 50 103 0 21 9 44 23 61 13 14 38 52 57 84 18 31 53 78 77 103 30 31 42
51 37 62 -7 20 -6 20 -74 7 -28 -5 -62 -7 -74 -4 -22 5 -20 9 37 97 33 51 73
107 89 125 31 37 35 54 14 71 -11 9 -20 9 -35 2 -14 -8 -28 -8 -48 0 -35 14
-380 18 -394 5z m371 -82 c0 -18 -61 -137 -67 -131 -6 7 -12 118 -6 132 8 22
73 20 73 -1z m-190 -2 c0 -14 -74 -126 -77 -116 -18 60 -20 96 -6 109 15 15
83 21 83 7z m60 -111 l0 -68 -51 -7 c-28 -4 -53 -5 -55 -4 -3 4 97 146 104
147 1 1 2 -30 2 -68z m-92 -150 c-56 -118 -74 -151 -80 -151 -9 0 -5 141 5
156 6 11 80 6 75 -5z m212 -28 c0 -18 -67 -123 -73 -117 -4 4 -7 34 -7 66 l0
58 40 0 c22 0 40 -3 40 -7z"/>
</g>
</svg>
