<?xml version="1.0" standalone="no"?>
<!DOCTYPE svg PUBLIC "-//W3C//DTD SVG 20010904//EN"
 "http://www.w3.org/TR/2001/REC-SVG-20010904/DTD/svg10.dtd">
<svg version="1.0" xmlns="http://www.w3.org/2000/svg"
 width="135.000000pt" height="107.000000pt" viewBox="0 0 135.000000 107.000000"
 preserveAspectRatio="xMidYMid meet">
<metadata>
Created by potrace 1.16, written by Peter Selinger 2001-2019
</metadata>
<g transform="translate(0.000000,107.000000) scale(0.100000,-0.100000)"
fill="#000000" stroke="none">
<path d="M409 927 c-12 -9 -38 -11 -88 -7 -40 3 -76 1 -81 -4 -13 -13 -13 -57
1 -186 11 -108 0 -476 -16 -512 -5 -12 -3 -18 6 -18 11 0 13 -18 10 -85 -4
-115 -2 -115 138 14 54 49 66 51 334 57 230 4 298 1 348 -20 26 -11 42 84 34
206 -5 88 7 245 27 338 5 23 62 101 102 139 57 56 50 63 -51 57 -49 -3 -140
-10 -203 -16 -155 -15 -368 -4 -440 22 -76 27 -102 30 -121 15z m115 -125
c-66 -58 -83 -67 -83 -45 -2 91 -1 115 4 122 2 5 32 -1 66 -12 l61 -22 -48
-43z m-131 65 c-16 -28 -74 -113 -85 -127 -11 -12 -14 -7 -20 30 -13 87 -11
98 20 102 59 8 92 6 85 -5z m790 -24 c-37 -50 -73 -95 -73 -91 0 2 -3 26 -6
55 l-6 52 38 6 c22 4 44 8 49 10 25 8 24 3 -2 -32z m-112 -30 c1 -27 1 -50 1
-53 0 -3 -4 -59 -8 -125 -11 -168 -9 -321 4 -329 10 -6 5 -87 -5 -97 -5 -5
-22 -5 -38 0 -17 4 -140 9 -275 9 -261 1 -374 12 -430 41 l-35 18 1 114 c3
224 4 245 10 287 4 25 12 42 20 42 7 0 28 23 46 50 l33 51 5 -63 c7 -93 22
-91 145 21 72 65 67 63 187 63 62 -1 142 3 178 7 36 5 86 9 113 10 l47 1 1
-47z m-721 -608 c36 -13 60 -24 54 -24 -5 -1 -35 -22 -64 -47 -51 -44 -55 -45
-60 -25 -4 18 -1 121 3 121 1 0 31 -11 67 -25z"/>
</g>
</svg>
