<?xml version="1.0" standalone="no"?>
<!DOCTYPE svg PUBLIC "-//W3C//DTD SVG 20010904//EN"
 "http://www.w3.org/TR/2001/REC-SVG-20010904/DTD/svg10.dtd">
<svg version="1.0" xmlns="http://www.w3.org/2000/svg"
 width="220.000000pt" height="107.000000pt" viewBox="0 0 220.000000 107.000000"
 preserveAspectRatio="xMidYMid meet">
<metadata>
Created by potrace 1.16, written by Peter Selinger 2001-2019
</metadata>
<g transform="translate(0.000000,107.000000) scale(0.100000,-0.100000)"
fill="#000000" stroke="none">
<path d="M1520 951 c-5 -11 -10 -33 -10 -50 l0 -31 -79 0 c-44 0 -82 -4 -86
-9 -5 -9 -17 -306 -15 -384 0 -15 -6 -35 -15 -43 -29 -30 -10 -194 23 -194 8
0 39 23 68 50 29 28 59 50 68 50 8 0 16 5 18 10 8 25 378 15 378 -11 0 -14 30
-11 31 4 7 174 36 367 56 367 7 0 22 18 33 41 12 22 37 62 56 89 19 26 30 50
24 52 -25 8 -151 -8 -159 -21 -7 -10 -26 -12 -82 -7 -41 4 -101 9 -134 12 -70
6 -137 24 -147 38 -4 6 -5 21 -1 33 6 28 -12 31 -27 4z m80 -111 c0 -3 -14
-17 -32 -30 l-31 -23 6 24 c4 13 7 32 7 41 0 15 4 16 25 6 14 -6 25 -14 25
-18z m420 11 c0 -4 -9 -20 -20 -34 -11 -14 -20 -29 -20 -34 0 -4 -8 -18 -18
-31 -18 -23 -18 -22 -20 29 -1 29 3 58 9 65 12 15 69 19 69 5z m-560 -17 c0
-4 -12 -23 -27 -43 -16 -19 -33 -47 -39 -61 -9 -22 -11 -20 -12 28 -2 29 -3
56 -3 60 -1 4 -1 9 0 13 2 8 81 11 81 3z m405 -6 l51 0 2 -48 c1 -26 -9 -102
-23 -168 -14 -67 -25 -136 -25 -156 0 -63 8 -61 -203 -60 -105 1 -216 2 -244
3 l-53 1 0 68 c0 143 31 248 93 318 38 44 49 43 41 -5 -8 -47 5 -58 37 -30 87
77 124 91 219 81 30 -2 78 -5 105 -4z m-495 -461 c16 3 41 2 56 -1 l28 -7 -27
-18 c-15 -10 -37 -28 -49 -41 -20 -22 -22 -22 -28 -4 -4 10 -10 37 -13 59 -3
22 -3 32 -1 23 4 -13 12 -16 34 -11z"/>
<path d="M482 908 c-9 -22 -18 -28 -42 -28 -17 0 -41 5 -53 12 -30 15 -105 11
-124 -8 -14 -14 -14 -17 5 -34 44 -41 55 -185 38 -515 -6 -128 -5 -153 8 -170
16 -20 16 -20 43 10 16 17 39 44 53 61 24 28 103 69 118 60 4 -2 70 1 147 6
77 5 173 11 213 12 51 3 79 9 90 20 15 15 15 16 -1 16 -15 0 -16 12 -11 128 6
142 11 192 22 192 4 0 13 12 20 28 7 15 39 56 73 91 33 35 57 66 54 70 -8 7
-118 11 -336 11 -124 0 -178 4 -210 15 -24 9 -54 13 -66 10 -17 -4 -22 0 -26
17 -3 22 -4 22 -15 -4z m128 -76 c8 -2 49 -3 90 -2 109 4 146 4 235 1 44 -1
97 0 119 3 l38 6 -27 -32 c-14 -18 -40 -50 -56 -72 -16 -21 -29 -35 -30 -30
-5 65 -12 101 -20 109 -5 5 -9 0 -9 -15 0 -54 -13 -445 -14 -447 -12 -15 -504
-16 -562 -2 -49 13 -49 13 -34 104 6 33 11 101 11 150 l0 91 59 62 c32 34 61
62 63 62 2 0 7 -22 11 -50 4 -27 10 -50 14 -50 4 0 32 23 62 51 39 36 46 46
25 35 -16 -9 -40 -23 -52 -32 -23 -16 -23 -16 -23 24 0 22 -3 47 -6 55 -5 13
1 13 43 -1 26 -8 55 -17 63 -20z m-170 10 c0 -9 -51 -80 -68 -95 -21 -19 -21
-19 -32 25 -6 23 -13 48 -15 55 -2 6 -2 13 0 15 4 4 115 4 115 0z m-28 -551
c4 -3 -10 -27 -32 -51 -24 -28 -40 -39 -41 -30 -1 8 -2 36 -4 61 l-2 47 36
-10 c20 -5 39 -13 43 -17z"/>
</g>
</svg>
