<?xml version="1.0" standalone="no"?>
<!DOCTYPE svg PUBLIC "-//W3C//DTD SVG 20010904//EN"
 "http://www.w3.org/TR/2001/REC-SVG-20010904/DTD/svg10.dtd">
<svg version="1.0" xmlns="http://www.w3.org/2000/svg"
 width="214.000000pt" height="114.000000pt" viewBox="0 0 214.000000 114.000000"
 preserveAspectRatio="xMidYMid meet">
<metadata>
Created by potrace 1.16, written by Peter Selinger 2001-2019
</metadata>
<g transform="translate(0.000000,114.000000) scale(0.100000,-0.100000)"
fill="#000000" stroke="none">
<path d="M1315 1040 c-12 -19 -35 -112 -35 -141 0 -25 -3 -27 -67 -33 -79 -8
-490 -21 -678 -21 -84 0 -145 5 -172 14 -37 12 -45 12 -66 -2 -17 -11 -27 -13
-35 -5 -8 8 -20 2 -41 -20 -32 -32 -33 -57 -2 -65 15 -4 16 -23 15 -218 -1
-118 -5 -243 -8 -278 -9 -106 37 -146 85 -74 14 22 36 40 53 45 16 4 124 12
240 18 116 5 256 14 311 20 55 5 153 12 218 14 l119 5 -7 -52 c-10 -78 -7
-108 11 -128 21 -23 33 -24 70 -4 16 8 39 15 52 15 12 0 22 5 22 11 0 5 15 16
33 24 17 7 55 35 82 60 50 47 200 155 214 155 5 0 28 17 52 38 24 21 65 52 90
69 25 17 51 38 58 47 7 9 34 26 58 38 51 26 62 42 45 69 -7 10 -12 26 -12 34
0 13 -8 15 -42 10 -40 -6 -47 -3 -93 36 -27 23 -74 52 -103 65 -29 13 -55 30
-58 39 -3 8 -16 15 -28 15 -20 0 -155 84 -267 166 -52 38 -102 53 -114 34z
m82 -92 c7 -9 7 -51 -3 -138 -7 -69 -15 -170 -18 -225 -2 -55 -10 -122 -16
-148 -11 -42 -10 -173 1 -217 3 -9 -5 -16 -20 -18 -23 -4 -24 -2 -17 50 4 29
6 67 5 83 -3 41 0 104 14 380 2 28 4 99 5 158 2 101 3 107 20 98 10 -5 23 -16
29 -23z m106 -65 c19 -16 43 -33 53 -39 17 -10 18 -16 6 -74 -7 -34 -16 -104
-18 -154 -3 -50 -12 -121 -20 -158 -7 -37 -14 -90 -14 -117 0 -41 -4 -52 -21
-62 l-22 -11 8 118 c4 66 12 144 17 174 13 72 19 288 8 295 -18 11 -25 -24
-31 -160 -4 -77 -17 -196 -29 -265 -11 -68 -20 -139 -18 -157 1 -17 0 -35 -4
-38 -12 -13 -21 109 -13 184 5 42 10 112 11 156 4 108 13 202 25 247 5 20 9
40 8 45 -3 20 2 43 10 43 4 0 24 -12 44 -27z m-229 -108 c-1 -22 -2 -49 -3
-60 -2 -40 -103 -48 -536 -46 -214 1 -390 3 -390 4 -1 1 1 26 4 55 l6 52 240
5 c132 3 278 7 325 10 47 3 120 7 164 10 43 2 81 7 84 10 4 3 29 5 57 3 l50
-3 -1 -40z m395 8 l30 -18 -4 -120 c-2 -75 -9 -136 -19 -164 -9 -24 -16 -54
-16 -66 0 -12 -8 -29 -17 -36 -15 -13 -16 -12 -8 11 5 14 10 70 11 125 1 55 7
132 13 170 14 89 14 85 -4 85 -8 0 -17 -12 -20 -27 -4 -16 -8 -39 -11 -52 -3
-13 -7 -71 -10 -129 -4 -97 -25 -203 -46 -226 -11 -13 -10 82 3 174 5 41 11
111 13 155 5 89 18 135 40 135 8 0 28 -8 45 -17z m168 -93 c14 -11 21 -20 15
-20 -13 0 -24 -47 -24 -108 0 -45 -18 -82 -41 -82 -11 0 -4 172 9 204 5 14 3
17 -7 14 -17 -6 -38 -100 -41 -189 -2 -53 -6 -69 -21 -79 -29 -18 -32 -5 -14
68 9 37 18 101 19 142 2 102 3 102 45 85 19 -8 46 -24 60 -35z m43 -34 c0 -3
-4 -8 -10 -11 -5 -3 -10 -1 -10 4 0 6 5 11 10 11 6 0 10 -2 10 -4z m45 -28
c14 -6 25 -15 25 -19 0 -12 -77 -69 -84 -62 -3 3 -6 21 -6 40 0 23 5 33 15 33
8 0 15 5 15 10 0 13 3 13 35 -2z m-675 -35 c16 -28 20 -45 15 -75 -8 -46 51
-41 -516 -42 l-417 -1 6 60 c2 33 6 62 8 63 8 11 241 18 459 15 138 -2 270 0
295 6 25 5 64 9 87 10 37 1 43 -2 63 -36z m5 -164 c4 -6 4 -25 1 -44 l-7 -33
-137 -1 c-75 -1 -164 -6 -197 -11 -61 -10 -76 -11 -369 -31 -93 -6 -189 -17
-213 -24 -50 -15 -50 -15 -29 75 11 49 16 55 45 62 17 5 53 5 80 0 28 -5 58
-5 72 1 13 5 114 7 224 5 110 -2 247 -1 305 2 176 11 219 10 225 -1z"/>
</g>
</svg>
