<?xml version="1.0" standalone="no"?>
<!DOCTYPE svg PUBLIC "-//W3C//DTD SVG 20010904//EN"
 "http://www.w3.org/TR/2001/REC-SVG-20010904/DTD/svg10.dtd">
<svg version="1.0" xmlns="http://www.w3.org/2000/svg"
 width="248.000000pt" height="166.000000pt" viewBox="0 0 248.000000 166.000000"
 preserveAspectRatio="xMidYMid meet">
<metadata>
Created by potrace 1.16, written by Peter Selinger 2001-2019
</metadata>
<g transform="translate(0.000000,166.000000) scale(0.100000,-0.100000)"
fill="#000000" stroke="none">
<path d="M366 1472 c-8 -13 -15 -74 -20 -163 -3 -47 -8 -98 -11 -112 -11 -43
18 -44 74 -4 27 20 67 45 89 56 51 26 227 72 246 65 8 -3 21 -2 28 3 7 4 82 9
166 10 138 2 152 1 152 -15 -1 -55 -20 -374 -25 -407 -33 -251 -47 -343 -54
-360 -5 -11 -12 -32 -15 -48 l-6 -27 -143 7 c-78 4 -166 8 -194 7 -29 0 -53 4
-53 8 0 12 49 89 73 115 l20 22 -97 -4 c-98 -3 -122 -9 -97 -24 7 -5 11 -17 7
-27 -3 -11 -6 -35 -8 -56 l-2 -36 -73 -7 c-40 -4 -77 -4 -83 0 -5 3 -10 28
-10 55 0 56 14 74 95 120 89 50 156 63 275 55 117 -8 111 -8 233 1 122 9 113
28 -10 22 -54 -3 -143 -1 -198 3 -55 4 -151 11 -213 14 -62 3 -131 13 -154 21
-39 14 -44 13 -56 -3 -7 -10 -10 -29 -8 -43 9 -44 9 -92 2 -210 -3 -63 -3
-130 2 -149 9 -40 32 -54 32 -20 0 28 27 48 63 49 34 0 87 26 87 42 0 9 3 9
11 1 12 -12 14 -186 3 -230 -7 -27 12 -32 20 -5 14 50 19 95 18 170 -1 74 8
102 22 70 3 -9 9 -8 20 6 10 13 29 19 63 19 70 2 346 -13 352 -18 2 -3 -1 -27
-8 -54 -7 -27 -11 -75 -10 -108 1 -32 -4 -86 -11 -120 -22 -106 0 -115 81 -34
46 47 174 118 262 146 88 28 253 48 611 76 123 9 141 8 148 -5 13 -22 33 -20
62 8 31 28 32 36 6 36 -24 0 -24 6 -5 85 12 47 13 72 6 106 -8 35 -7 49 5 67
12 18 13 26 3 38 -9 11 -9 28 0 77 59 302 100 472 132 552 30 73 30 81 -6 76
-36 -6 -57 -5 -160 8 -75 10 -440 15 -454 7 -3 -2 -71 5 -151 16 -80 10 -181
22 -224 25 -72 5 -79 4 -73 -11 4 -11 3 -15 -4 -10 -18 11 -89 6 -106 -7 -8
-7 -13 -23 -10 -35 4 -22 1 -23 -62 -26 -82 -4 -193 6 -291 27 -41 8 -122 24
-179 35 -57 11 -118 29 -136 40 -36 22 -42 24 -49 12z m1016 -68 c9 -3 49 -7
89 -10 88 -6 104 -14 28 -14 -30 0 -101 -7 -158 -15 -57 -8 -107 -12 -110 -9
-3 3 10 18 29 34 34 28 66 31 122 14z m-884 -14 c39 -11 89 -20 109 -20 21 0
58 -6 83 -14 43 -13 44 -13 15 -18 -73 -12 -188 -50 -251 -82 -37 -20 -69 -34
-70 -33 -8 8 21 187 30 187 6 0 44 -9 84 -20z m680 4 l31 -6 -29 -58 c-16 -32
-34 -61 -39 -64 -9 -6 -21 110 -13 127 4 9 11 9 50 1z m924 -196 c-2 -95 -5
-246 -5 -336 -2 -144 -4 -164 -19 -173 -20 -11 -24 -35 -6 -41 20 -7 29 -133
13 -195 -8 -31 -16 -57 -18 -59 -1 -2 -81 -4 -177 -4 -107 -1 -257 -11 -385
-25 -128 -14 -260 -22 -337 -21 -146 2 -159 8 -151 67 4 30 8 36 24 32 12 -3
19 0 19 9 0 7 7 67 15 133 8 66 16 140 18 165 23 246 42 376 62 445 31 100 48
126 83 124 15 -1 86 3 157 9 128 11 242 17 520 28 77 3 142 7 144 10 2 2 14 4
26 4 21 0 21 -2 17 -172z m138 147 c0 -2 -13 -53 -29 -112 -16 -60 -31 -124
-35 -143 -10 -55 -15 -81 -28 -140 l-12 -55 -8 35 c-4 19 -5 78 -1 130 3 52 7
136 7 185 l1 90 35 6 c48 9 70 10 70 4z m-1780 -625 l45 0 -70 -36 c-38 -19
-74 -36 -79 -37 -5 -1 -9 18 -10 41 l-1 44 35 -6 c19 -3 55 -6 80 -6z m158
-142 c-8 -13 -24 -40 -37 -60 -34 -57 -51 -50 -51 22 l0 60 51 0 c51 0 51 0
37 -22z m-158 -127 c0 -5 -23 -14 -50 -21 -28 -7 -53 -16 -56 -21 -11 -19 -35
-9 -32 14 3 19 10 23 68 28 36 3 66 6 68 7 1 1 2 -2 2 -7z m700 -135 c25 0 88
3 140 7 l95 7 -55 -16 c-30 -8 -83 -26 -118 -40 -34 -13 -72 -24 -83 -24 -12
0 -34 -12 -49 -27 -16 -16 -42 -40 -59 -55 -36 -32 -38 -27 -17 69 7 34 11 64
9 67 -3 3 -2 10 2 16 5 8 20 9 49 3 22 -4 61 -8 86 -7z"/>
<path d="M1632 1103 c-5 -10 -12 -35 -16 -55 -8 -44 -8 -44 -159 -24 -54 7
-121 12 -150 11 -29 -2 -57 1 -63 6 -17 14 -43 0 -50 -27 -4 -13 -4 -86 0
-162 3 -75 5 -152 6 -169 0 -26 4 -33 19 -33 11 0 21 5 23 12 5 13 311 21 356
9 24 -7 27 -12 27 -52 0 -37 3 -44 20 -44 20 0 20 6 17 258 -3 186 -1 257 7
257 7 0 25 -15 41 -34 35 -40 142 -112 221 -149 31 -15 63 -35 73 -45 16 -18
14 -20 -26 -47 -24 -15 -68 -49 -98 -75 -75 -63 -150 -116 -177 -124 -19 -6
-33 -26 -18 -26 12 0 55 24 55 32 0 4 4 7 9 6 11 -4 321 224 321 235 0 5 -8 7
-17 5 -11 -2 -25 7 -36 25 -10 17 -40 38 -73 53 -63 28 -155 85 -187 116 -32
30 -79 58 -99 58 -10 0 -21 -8 -26 -17z m-132 -110 c58 -3 107 -7 110 -10 6
-6 -23 -23 -31 -17 -12 7 -120 7 -226 -1 -100 -7 -103 -7 -103 13 0 26 21 32
90 26 30 -3 102 -7 160 -11z m110 -60 c15 -14 -39 -23 -140 -24 -63 0 -139 -4
-167 -8 -47 -7 -53 -5 -53 11 0 10 6 18 13 18 40 1 163 13 167 17 5 5 173 -8
180 -14z m8 -65 l-3 -23 -190 -3 c-182 -2 -189 -2 -172 15 19 19 69 25 265 31
104 4 104 4 100 -20z m2 -70 c0 -15 -10 -18 -62 -18 -35 -1 -120 -3 -190 -6
-124 -6 -128 -5 -128 14 0 18 7 22 58 25 31 2 117 3 189 3 120 -1 133 -3 133
-18z m0 -71 l0 -23 -158 -1 c-87 0 -173 -4 -191 -8 -30 -6 -32 -5 -29 17 4 30
35 35 231 37 l147 1 0 -23z"/>
</g>
</svg>
