<?xml version="1.0" standalone="no"?>
<!DOCTYPE svg PUBLIC "-//W3C//DTD SVG 20010904//EN"
 "http://www.w3.org/TR/2001/REC-SVG-20010904/DTD/svg10.dtd">
<svg version="1.0" xmlns="http://www.w3.org/2000/svg"
 width="190.000000pt" height="105.000000pt" viewBox="0 0 190.000000 105.000000"
 preserveAspectRatio="xMidYMid meet">
<metadata>
Created by potrace 1.16, written by Peter Selinger 2001-2019
</metadata>
<g transform="translate(0.000000,105.000000) scale(0.100000,-0.100000)"
fill="#000000" stroke="none">
<path d="M203 978 c-6 -7 -13 -22 -18 -33 -12 -32 -31 -176 -29 -220 2 -53 4
-144 4 -173 0 -13 -4 -42 -9 -65 -16 -70 -26 -347 -12 -347 16 0 26 4 24 11
-2 6 52 12 117 13 l45 1 -3 -56 c-3 -51 -1 -58 24 -78 34 -26 48 -15 32 25 -6
17 -8 46 -4 65 l6 34 447 1 c247 0 493 4 548 8 162 13 265 13 277 -1 14 -17
38 -16 38 1 0 9 12 16 33 18 39 4 41 18 3 36 -25 12 -27 18 -22 50 3 21 8 91
11 157 7 150 21 293 41 413 9 51 13 100 10 108 -6 14 -22 16 -129 9 -134 -8
-1147 -13 -1292 -6 -49 2 -100 1 -111 -3 -19 -6 -21 -3 -16 19 5 27 0 32 -15
13z m1503 -97 c-3 -20 -8 -65 -11 -101 -3 -36 -7 -90 -10 -120 -3 -30 -7 -104
-10 -165 -6 -114 -14 -216 -19 -250 -4 -24 -31 -32 -125 -33 -41 -1 -82 -4
-93 -7 -16 -6 -18 0 -18 42 0 74 29 234 49 273 10 19 28 67 40 105 42 130 86
201 144 231 15 8 27 18 27 22 0 12 -231 6 -264 -7 -18 -7 -26 -16 -22 -26 5
-14 -38 -45 -64 -45 -5 0 -29 -9 -53 -20 -79 -37 -251 -91 -271 -86 -27 7 -80
54 -95 84 -10 18 -9 28 6 52 9 16 14 32 11 35 -7 7 -38 -5 -38 -16 0 -10 -57
-97 -83 -126 -11 -13 -19 -23 -16 -23 8 -1 74 -10 104 -14 17 -2 35 -5 42 -5
7 -1 13 -23 15 -58 3 -53 5 -58 26 -57 19 0 22 -4 22 -37 0 -28 -5 -41 -20
-49 -23 -12 -42 -5 -110 47 -71 54 -105 101 -105 145 0 21 -4 38 -8 38 -11 0
-68 -59 -115 -119 -46 -57 -38 -71 35 -67 113 6 213 -29 213 -74 0 -10 11 -43
25 -74 28 -63 37 -64 92 -13 l31 29 26 -25 c14 -14 39 -28 56 -32 17 -4 34
-13 36 -20 3 -7 20 -16 37 -19 18 -3 52 -20 77 -36 25 -16 50 -30 56 -30 6 0
17 -7 24 -15 10 -12 9 -15 -6 -15 -11 0 -194 -3 -409 -6 -415 -6 -553 1 -547
26 22 93 31 203 17 209 -16 6 -45 -64 -57 -143 l-11 -74 -51 -6 c-28 -3 -66
-6 -84 -6 l-33 0 6 88 c3 48 11 123 17 167 6 44 10 136 9 205 -1 69 2 154 5
189 l7 64 103 -7 c148 -9 1173 -7 1209 3 17 4 65 8 108 8 l78 0 -5 -36z m-127
-54 c-6 -12 -17 -29 -24 -37 -21 -25 -82 -143 -89 -172 -17 -71 -36 3 -36 138
l0 73 43 9 c23 5 59 9 80 10 35 1 36 0 26 -21z m-179 -39 c0 -7 2 -57 4 -110
3 -54 1 -98 -2 -98 -4 0 -16 -3 -28 -6 -21 -5 -21 -3 -17 92 2 54 9 106 14
116 11 21 29 24 29 6z m-484 -60 c17 -17 15 -18 -24 -18 -45 0 -59 11 -37 30
8 7 15 20 15 29 1 13 3 12 15 -4 8 -11 22 -28 31 -37z m430 44 c-3 -5 -6 -54
-7 -110 -1 -76 -5 -102 -14 -102 -8 0 -21 -3 -31 -7 -16 -6 -17 1 -10 82 8
110 14 133 34 138 28 8 33 7 28 -1z m-70 -39 c-2 -10 -8 -54 -11 -98 -4 -44
-8 -81 -9 -83 -2 -1 -16 2 -31 8 -26 10 -27 13 -22 63 8 80 16 104 40 115 32
15 39 14 33 -5z m-81 -35 c-3 -13 -9 -44 -12 -70 l-5 -47 -32 16 c-17 8 -32
17 -34 18 -1 1 2 13 7 27 21 56 93 108 76 56z m-107 -24 c-8 -9 -24 -14 -34
-11 -17 3 -16 5 6 15 36 16 47 14 28 -4z m-72 -21 l26 -16 -24 -13 c-28 -15
-38 -10 -38 22 0 29 3 29 36 7z m-258 -56 l32 -48 -57 7 c-32 3 -60 8 -62 10
-2 2 9 22 24 44 15 22 29 39 30 38 1 -2 16 -25 33 -51z m320 4 c9 -5 12 -25
10 -62 -3 -53 -4 -54 -35 -57 -35 -3 -38 2 -33 58 2 26 25 70 38 70 4 0 13 -4
20 -9z m97 -66 c0 -12 -12 -23 -32 -32 l-33 -13 0 51 0 51 33 -19 c18 -11 32
-27 32 -38z m228 -18 c-8 -41 -7 -41 -32 -25 -28 17 -27 46 2 57 31 12 37 5
30 -32z m-173 19 c0 -2 -7 -6 -15 -10 -8 -3 -15 -1 -15 4 0 6 7 10 15 10 8 0
15 -2 15 -4z m100 -6 c0 -5 -4 -10 -10 -10 -5 0 -10 5 -10 10 0 6 5 10 10 10
6 0 10 -4 10 -10z m-81 -115 c-3 -53 -9 -98 -12 -101 -3 -3 -17 2 -32 12 -22
14 -26 23 -21 47 3 16 6 49 6 74 0 36 4 45 23 53 41 16 42 14 36 -85z m65 20
c-1 -89 -13 -157 -27 -152 -8 2 -13 39 -14 111 -1 105 -1 107 20 104 20 -3 22
-9 21 -63z m-145 3 c-4 -29 -8 -61 -8 -71 -1 -16 -3 -16 -31 -2 -22 12 -29 21
-26 38 3 12 5 31 5 43 1 12 11 26 24 32 40 19 44 15 36 -40z m-99 17 c0 -10
-45 -23 -55 -17 -5 3 1 9 15 13 33 9 40 10 40 4z m311 -16 c13 -13 19 -29 16
-42 -3 -12 -9 -52 -12 -89 -8 -72 -19 -83 -49 -49 -15 16 -16 28 -6 102 5 46
10 87 10 91 0 15 20 8 41 -13z m-391 -34 c0 -7 -7 -18 -15 -25 -12 -10 -16 -9
-21 6 -3 11 -10 27 -15 36 -14 27 -12 28 21 12 17 -9 30 -21 30 -29z m90 5 c0
-5 -2 -10 -4 -10 -3 0 -8 5 -11 10 -3 6 -1 10 4 10 6 0 11 -4 11 -10z"/>
</g>
</svg>
