<?xml version="1.0" standalone="no"?>
<!DOCTYPE svg PUBLIC "-//W3C//DTD SVG 20010904//EN"
 "http://www.w3.org/TR/2001/REC-SVG-20010904/DTD/svg10.dtd">
<svg version="1.0" xmlns="http://www.w3.org/2000/svg"
 width="202.000000pt" height="119.000000pt" viewBox="0 0 202.000000 119.000000"
 preserveAspectRatio="xMidYMid meet">
<metadata>
Created by potrace 1.16, written by Peter Selinger 2001-2019
</metadata>
<g transform="translate(0.000000,119.000000) scale(0.100000,-0.100000)"
fill="#000000" stroke="none">
<path d="M225 1055 c-50 -18 -74 -49 -76 -100 -1 -22 -2 -89 -4 -150 -2 -60
-7 -137 -13 -170 -5 -33 -10 -82 -11 -110 0 -27 -4 -95 -7 -150 -8 -125 -5
-128 99 -123 l73 3 -7 -40 c-13 -67 -11 -135 5 -135 21 0 34 23 26 45 -8 23 2
65 24 97 l16 22 692 1 c552 1 699 -1 723 -11 17 -8 41 -15 55 -16 l25 -3 6
205 c6 184 19 365 36 490 4 25 6 49 4 53 -1 5 7 11 17 14 16 4 18 8 9 26 -10
21 -17 22 -141 23 -72 1 -232 4 -356 6 -208 5 -336 8 -915 24 -116 3 -217 7
-225 9 -8 2 -33 -2 -55 -10z m591 -44 c547 1 708 -1 752 -6 15 -2 81 -7 147
-10 66 -4 125 -8 132 -10 8 -3 9 -14 3 -37 -5 -18 -11 -67 -14 -108 -3 -41 -8
-88 -11 -105 -4 -23 -20 -183 -26 -260 0 -5 1 -47 4 -92 3 -57 1 -83 -7 -84
-7 0 -6 -3 2 -6 33 -13 4 -21 -65 -17 -43 2 -341 6 -663 8 -563 4 -729 10
-740 27 -3 4 -2 60 2 125 7 117 5 134 -12 134 -17 0 -30 -75 -30 -173 l0 -98
-62 3 -63 3 1 55 c4 148 14 298 23 329 6 19 11 71 11 115 2 145 10 197 34 206
11 5 30 7 42 5 12 -3 255 -4 540 -4z"/>
<path d="M926 931 c-3 -5 -9 -44 -13 -85 -3 -42 -11 -80 -16 -83 -20 -12 -404
-16 -411 -4 -11 17 -43 13 -50 -5 -4 -9 0 -22 8 -28 12 -9 13 -29 5 -120 -11
-125 -8 -141 24 -132 93 27 342 42 382 24 24 -11 35 -48 35 -121 0 -57 14 -77
56 -77 41 0 205 48 309 90 84 34 163 60 183 60 7 0 73 28 145 61 72 34 141 62
152 63 26 1 26 31 0 31 -23 0 -37 25 -23 42 16 20 -1 37 -20 20 -29 -26 -162
8 -252 64 -25 15 -99 48 -165 74 -66 25 -138 53 -160 62 -22 8 -58 22 -80 30
-36 14 -79 32 -97 41 -3 2 -9 -1 -12 -7z m137 -84 c37 -14 71 -28 75 -32 6 -6
-72 1 -108 11 -8 2 -21 0 -29 -5 -20 -13 7 -19 108 -25 46 -3 86 -7 88 -10 2
-2 1 -16 -3 -30 -6 -24 -9 -26 -43 -20 -20 3 -42 13 -49 22 -10 14 -16 14 -32
4 -11 -6 -35 -12 -54 -12 -19 0 -38 -5 -42 -11 -4 -7 7 -10 34 -8 47 4 49 3
56 -34 5 -27 4 -27 -50 -27 -30 0 -54 -4 -54 -10 0 -6 26 -10 58 -10 53 0 60
-2 70 -25 10 -20 9 -25 -3 -26 -8 -1 -19 -3 -25 -4 -5 -1 -32 -3 -60 -4 -27 0
-50 -5 -50 -10 0 -4 33 -6 74 -4 68 3 76 2 90 -19 9 -12 16 -26 16 -30 0 -5
-31 -8 -69 -8 -45 0 -72 -5 -80 -13 -8 -11 5 -13 73 -9 l83 4 5 -31 5 -32 -84
7 c-59 5 -83 4 -83 -5 0 -7 20 -11 54 -11 71 0 116 -10 116 -25 0 -13 -135
-62 -185 -67 -34 -3 -32 -15 -34 167 -1 61 3 137 9 170 5 33 10 93 10 134 0
84 -9 81 113 38z m367 -143 c16 -13 72 -35 155 -60 28 -9 63 -26 79 -39 l29
-23 -74 -35 c-41 -20 -128 -52 -194 -72 -66 -20 -144 -45 -173 -55 -29 -11
-56 -20 -60 -20 -4 0 -6 17 -5 38 2 20 3 55 4 76 1 65 11 75 64 65 26 -5 56
-7 68 -5 12 3 66 5 120 5 159 1 110 18 -68 23 -91 2 -168 7 -171 11 -5 5 11
126 21 164 4 12 177 -49 205 -73z m-535 -26 c-10 -60 -12 -79 -14 -113 l-1
-30 -133 -1 c-74 -1 -162 -8 -200 -17 -63 -14 -68 -14 -62 2 4 9 8 41 10 71 1
31 6 70 9 87 9 38 2 37 235 41 l164 4 -8 -44z m283 15 c-5 -42 -49 -40 -62 5
-7 20 -4 22 29 22 33 0 36 -2 33 -27z m-8 -73 c0 -35 -17 -40 -29 -7 -5 14 -4
25 3 29 20 14 26 8 26 -22z"/>
</g>
</svg>
