<?xml version="1.0" standalone="no"?>
<!DOCTYPE svg PUBLIC "-//W3C//DTD SVG 20010904//EN"
 "http://www.w3.org/TR/2001/REC-SVG-20010904/DTD/svg10.dtd">
<svg version="1.0" xmlns="http://www.w3.org/2000/svg"
 width="136.000000pt" height="112.000000pt" viewBox="0 0 136.000000 112.000000"
 preserveAspectRatio="xMidYMid meet">
<metadata>
Created by potrace 1.16, written by Peter Selinger 2001-2019
</metadata>
<g transform="translate(0.000000,112.000000) scale(0.100000,-0.100000)"
fill="#000000" stroke="none">
<path d="M473 1032 c-6 -4 -14 -22 -18 -39 -6 -31 -9 -33 -48 -33 -23 0 -60 5
-82 11 -62 16 -79 16 -83 -3 -2 -11 8 -23 27 -33 26 -13 31 -22 32 -53 2 -152
0 -227 -9 -292 -37 -258 -42 -313 -40 -414 3 -95 5 -111 20 -114 11 -2 27 11
43 37 15 21 45 52 67 68 40 27 44 28 167 27 69 -1 146 -2 171 -4 95 -5 364 8
368 18 1 5 -1 13 -6 16 -5 3 -3 44 4 98 7 51 13 155 14 231 0 128 2 141 26
187 15 28 31 47 37 43 6 -3 7 -1 3 6 -4 6 10 33 33 62 55 69 47 82 -49 86 -40
2 -79 8 -87 15 -9 7 -17 8 -24 1 -5 -5 -34 -7 -67 -3 -31 3 -95 5 -142 4 -101
-3 -252 17 -273 35 -9 7 -26 11 -38 9 -15 -2 -23 3 -25 15 -3 24 -7 27 -21 19z
m112 -122 c-14 -9 -39 -32 -54 -50 -16 -20 -32 -30 -39 -26 -21 12 -13 59 14
87 23 24 29 26 65 16 l40 -10 -26 -17z m-151 1 c3 -4 -4 -17 -15 -27 -12 -11
-30 -36 -40 -56 -31 -60 -39 -56 -39 21 l0 71 44 0 c25 0 47 -4 50 -9z m294 2
c-9 -17 -52 -118 -75 -173 -8 -19 -9 -8 -7 50 2 41 3 87 3 103 1 25 4 27 42
27 22 0 39 -3 37 -7z m192 -28 c-11 -12 -39 -58 -62 -101 -40 -79 -40 -79 -34
-34 3 25 9 60 12 77 3 18 4 39 0 48 -9 25 -33 6 -34 -29 -1 -18 -6 -45 -12
-60 -5 -15 -10 -78 -10 -140 0 -62 -5 -138 -10 -167 -10 -49 -15 -207 -8 -241
2 -8 -6 -12 -22 -11 -14 2 -52 6 -86 9 l-61 6 4 37 c2 20 8 86 14 146 5 61 14
120 19 133 6 13 10 33 10 45 0 13 4 27 9 33 5 5 20 43 34 84 34 102 63 166 79
176 16 11 113 20 151 15 l28 -3 -21 -23z m125 -21 c-8 -32 -9 -62 -3 -93 17
-87 18 -368 2 -444 -11 -56 -12 -73 -2 -85 11 -13 10 -15 -8 -10 -11 3 -66 2
-122 -1 -102 -6 -103 -6 -109 18 -3 12 -2 53 2 90 4 36 8 77 10 91 1 14 3 64
4 113 1 70 4 87 16 87 8 0 15 8 15 17 0 23 68 179 97 224 20 31 29 36 67 38
l43 2 -12 -47z m135 25 c0 -3 -18 -31 -39 -62 -22 -30 -36 -59 -33 -63 4 -4 0
-5 -8 -2 -22 7 -35 85 -19 115 11 20 19 23 56 21 24 -2 43 -6 43 -9z m-565
-71 c-3 -88 -12 -169 -30 -303 -16 -112 -27 -218 -26 -254 1 -22 -2 -23 -37
-17 -20 4 -57 10 -82 13 -25 3 -56 11 -70 18 -14 7 -38 15 -54 19 -28 7 -28 8
-22 54 4 26 13 99 21 162 8 63 16 124 19 135 2 11 5 39 5 61 1 32 5 43 20 47
11 2 31 23 45 46 15 22 30 41 34 41 4 0 15 -14 24 -30 22 -38 40 -38 70 1 30
40 69 79 78 79 4 0 6 -33 5 -72z m-244 -605 c4 -5 -13 -23 -37 -41 -48 -36
-52 -32 -38 36 6 28 8 29 37 21 17 -5 34 -12 38 -16z"/>
</g>
</svg>
