<?xml version="1.0" standalone="no"?>
<!DOCTYPE svg PUBLIC "-//W3C//DTD SVG 20010904//EN"
 "http://www.w3.org/TR/2001/REC-SVG-20010904/DTD/svg10.dtd">
<svg version="1.0" xmlns="http://www.w3.org/2000/svg"
 width="108.000000pt" height="92.000000pt" viewBox="0 0 108.000000 92.000000"
 preserveAspectRatio="xMidYMid meet">
<metadata>
Created by potrace 1.16, written by Peter Selinger 2001-2019
</metadata>
<g transform="translate(0.000000,92.000000) scale(0.100000,-0.100000)"
fill="#000000" stroke="none">
<path d="M208 729 c-13 -7 -12 -15 8 -56 13 -27 24 -60 24 -75 0 -15 6 -47 14
-70 8 -24 13 -54 12 -67 -1 -13 0 -40 4 -60 3 -20 3 -50 -2 -66 -9 -34 12
-133 26 -125 5 3 8 28 7 56 -2 43 2 56 26 85 l28 34 -28 -18 -28 -18 3 57 3
58 75 3 75 3 -40 -36 c-27 -25 -31 -31 -13 -20 15 9 34 16 43 16 9 0 14 4 10
9 -13 21 38 28 208 28 109 0 182 4 188 10 27 27 -39 31 -198 14 -48 -6 -113
-8 -143 -5 -30 3 -85 5 -122 5 -38 0 -68 2 -68 4 0 26 59 168 81 197 16 20 29
38 29 40 0 7 -209 5 -222 -3z m144 -95 c-22 -44 -44 -90 -49 -104 -9 -23 -11
-20 -23 35 -6 33 -18 79 -24 102 l-13 42 71 3 c39 2 72 2 74 2 1 -1 -15 -37
-36 -80z"/>
</g>
</svg>
