<?xml version="1.0" standalone="no"?>
<!DOCTYPE svg PUBLIC "-//W3C//DTD SVG 20010904//EN"
 "http://www.w3.org/TR/2001/REC-SVG-20010904/DTD/svg10.dtd">
<svg version="1.0" xmlns="http://www.w3.org/2000/svg"
 width="166.000000pt" height="114.000000pt" viewBox="0 0 166.000000 114.000000"
 preserveAspectRatio="xMidYMid meet">
<metadata>
Created by potrace 1.16, written by Peter Selinger 2001-2019
</metadata>
<g transform="translate(0.000000,114.000000) scale(0.100000,-0.100000)"
fill="#000000" stroke="none">
<path d="M360 1070 c-6 -10 -13 -39 -16 -64 -6 -38 -10 -45 -34 -50 -15 -3
-38 -3 -51 -1 -95 14 -119 15 -120 6 -2 -16 -4 -23 -13 -49 -4 -13 -3 -28 2
-35 12 -14 14 -67 13 -401 -1 -137 1 -252 4 -254 19 -20 27 34 30 212 l4 196
29 53 c17 28 39 68 50 89 34 60 67 108 74 108 4 0 7 -10 5 -22 -1 -16 4 -24
18 -26 20 -3 32 9 92 86 18 23 20 23 288 26 193 2 277 6 293 15 13 7 21 15 19
18 -3 3 -114 4 -246 4 -213 -2 -241 0 -241 14 0 12 -9 15 -33 13 -20 -1 -49 7
-71 20 -49 29 -66 28 -66 -3 0 -14 3 -25 8 -25 4 0 15 -7 26 -15 17 -13 17
-15 -8 -48 -14 -18 -23 -38 -19 -43 4 -5 1 -3 -7 4 -10 9 -14 36 -14 102 0 50
-1 90 -3 90 -1 0 -7 -9 -13 -20z m-72 -190 c-12 -19 -27 -42 -33 -50 -6 -8
-25 -41 -41 -73 l-29 -57 -5 97 c-3 54 -8 103 -12 108 -4 6 21 10 67 10 l74 0
-21 -35z"/>
<path d="M488 838 c-3 -21 -9 -23 -80 -26 -60 -2 -78 -6 -78 -17 0 -16 23 -23
82 -27 l38 -3 -43 -44 -42 -45 -5 39 c-6 49 -30 60 -31 13 0 -18 -2 -44 -4
-58 -2 -14 -6 -72 -10 -130 -3 -58 -13 -140 -22 -183 -12 -58 -13 -81 -5 -89
14 -14 13 -14 42 104 12 51 21 120 21 169 l0 82 57 59 c31 32 60 58 65 58 17
0 5 -51 -20 -81 -27 -32 -27 -33 -5 -27 18 5 22 3 18 -9 -4 -9 1 -17 13 -20
50 -13 29 -58 -45 -94 -24 -11 -44 -24 -44 -29 0 -14 72 -51 93 -48 25 4 35
28 13 28 -9 0 -25 5 -35 12 -18 11 -18 12 4 30 30 24 32 23 40 -11 3 -16 12
-35 20 -41 11 -9 3 -20 -36 -57 -27 -25 -47 -48 -44 -51 3 -3 19 7 35 23 16
16 31 27 34 24 13 -15 26 -51 21 -59 -8 -13 -87 -55 -150 -80 -29 -11 -33 -30
-7 -30 10 0 33 -11 52 -25 56 -42 63 -37 60 41 -1 34 3 44 26 58 26 18 27 18
50 -8 30 -31 30 -34 -1 -46 -29 -11 -31 -29 -9 -71 12 -24 21 -30 42 -27 24 3
29 10 40 58 13 50 35 90 52 90 3 0 11 -12 16 -27 9 -25 7 -29 -20 -43 -36 -18
-47 -43 -17 -38 14 2 29 -7 45 -26 l23 -30 37 18 c41 19 43 24 20 41 -14 10
-15 17 -5 48 18 53 35 63 55 32 16 -25 16 -26 -11 -50 l-28 -24 29 -1 c17 0
40 -10 52 -21 14 -13 30 -19 39 -15 15 5 14 9 -6 37 l-22 31 22 21 22 22 -3
-30 c-2 -23 1 -30 15 -29 11 1 17 -5 17 -18 0 -16 5 -19 21 -15 21 6 21 3 16
-59 -7 -88 7 -87 80 2 62 75 111 106 180 111 98 8 207 29 210 40 3 8 -48 11
-179 11 -101 -1 -194 1 -208 3 -41 7 -30 -22 16 -40 l42 -16 -49 -47 -49 -48
0 91 c0 80 -2 90 -16 85 -12 -5 -15 -2 -9 11 4 10 6 58 6 106 -1 51 3 95 9
102 6 7 10 17 8 21 -4 16 14 59 42 96 19 27 30 34 38 26 11 -11 74 20 130 63
18 14 39 17 97 16 40 -1 76 -5 80 -8 3 -4 -1 -46 -10 -95 -9 -49 -18 -149 -21
-221 -4 -114 -2 -133 11 -133 19 0 24 21 33 162 8 107 11 120 38 155 16 21 41
56 56 79 14 23 40 52 57 65 59 44 46 48 -148 46 -138 -1 -184 1 -205 12 -20
11 -29 12 -38 3 -19 -19 -26 -14 -20 14 6 31 -15 30 -32 -2 -16 -28 -27 -34
-68 -34 -25 0 -38 5 -38 13 0 11 -46 14 -235 14 -220 1 -236 2 -268 22 -44 27
-55 26 -59 -1z m71 -54 c38 -8 39 -16 2 -54 -40 -43 -52 -39 -49 15 2 25 6 45
9 45 4 0 21 -3 38 -6z m418 -6 l46 0 -7 -51 c-3 -29 -6 -62 -6 -74 0 -29 -49
-88 -63 -74 -7 7 -6 15 3 26 14 16 20 119 7 131 -4 4 -17 -1 -30 -12 -12 -11
-34 -25 -49 -32 -26 -11 -28 -10 -28 12 0 34 -8 37 -48 16 -21 -10 -47 -21
-59 -24 -17 -6 -20 -3 -16 12 2 11 0 23 -7 27 -15 9 -120 -71 -121 -93 0 -9
-2 -12 -5 -7 -2 6 2 32 9 60 10 35 19 51 33 54 10 2 21 7 24 11 5 8 249 29
263 22 4 -2 28 -4 54 -4z m253 -15 c0 -10 -61 -45 -67 -39 -5 5 47 46 58 46 5
0 9 -3 9 -7z m316 -15 c-9 -13 -30 -45 -47 -73 l-30 -50 4 63 c4 69 13 82 61
82 28 0 28 -1 12 -22z m-416 3 c0 -4 -9 -20 -20 -33 -10 -14 -16 -28 -13 -32
3 -3 -1 -6 -11 -6 -9 0 -19 -7 -22 -15 -12 -29 -19 -14 -16 31 3 35 9 47 26
54 28 12 56 12 56 1z m-310 -57 c0 -18 -22 -42 -35 -38 -11 4 -15 -1 -15 -17
0 -16 -10 -30 -31 -42 -18 -10 -33 -16 -35 -14 -2 2 -1 18 2 36 5 25 16 37 53
55 50 25 61 29 61 20z m118 -21 c-4 -37 -38 -45 -38 -10 0 23 10 34 33 36 5 1
7 -11 5 -26z m-372 -20 c-2 -16 -5 -36 -5 -45 -1 -10 -5 -18 -11 -18 -14 0
-12 64 2 78 17 17 19 15 14 -15z m124 15 c0 -7 -3 -23 -6 -36 l-7 -23 -14 21
c-12 16 -12 24 -3 35 15 18 30 19 30 3z m200 -25 c0 -25 -52 -93 -72 -93 -4 0
-8 16 -8 35 0 25 8 44 25 60 33 33 55 32 55 -2z m-245 -52 c5 -18 4 -22 -6
-17 -8 4 -6 1 5 -8 18 -14 17 -16 -10 -40 -38 -33 -50 -32 -63 5 -9 27 -7 34
21 65 33 36 41 35 53 -5z m139 -7 c18 -46 -3 -85 -51 -97 -17 -4 -23 -1 -23
11 0 10 -3 26 -6 38 -4 16 2 26 28 42 40 26 44 27 52 6z m136 -39 c0 -9 -33
-30 -84 -54 -20 -9 7 56 32 76 25 21 28 22 40 6 6 -9 12 -22 12 -28z m76 -32
c-4 -36 -9 -70 -12 -75 -3 -4 -25 -22 -50 -38 l-44 -31 0 37 c0 33 -2 36 -25
32 -29 -6 -33 9 -7 28 23 18 30 17 37 -4 6 -21 43 -41 62 -35 8 3 11 14 7 28
-3 13 0 41 7 62 7 21 12 44 11 51 -2 6 2 12 9 12 9 0 10 -18 5 -67z m-336 -3
c0 -5 -5 -10 -11 -10 -5 0 -7 5 -4 10 3 6 8 10 11 10 2 0 4 -4 4 -10z m280 -4
c0 -8 -4 -18 -10 -21 -5 -3 -10 3 -10 14 0 12 5 21 10 21 6 0 10 -6 10 -14z
m-385 -26 c9 -16 11 -30 6 -30 -5 0 -14 14 -20 30 -5 17 -8 30 -6 30 3 0 11
-13 20 -30z m235 10 c0 -5 -5 -10 -11 -10 -5 0 -7 5 -4 10 3 6 8 10 11 10 2 0
4 -4 4 -10z m-124 -42 c7 -11 -44 -64 -53 -54 -3 2 -2 23 2 45 6 36 9 40 25
31 11 -6 22 -15 26 -22z m-83 -40 c-8 -43 -12 -47 -28 -24 -11 14 -11 22 -2
37 20 31 37 23 30 -13z m217 12 c17 -10 14 -15 -17 -24 -25 -8 -26 -6 -17 18
7 18 13 19 34 6z m-67 -22 c-11 -51 -14 -54 -27 -23 -9 21 -10 32 -2 37 21 15
34 8 29 -14z m123 -20 c-3 -13 -6 -27 -7 -33 -1 -12 -17 25 -18 43 -1 6 6 12
15 12 12 0 15 -6 10 -22z m-171 -19 c10 -30 -4 -57 -35 -67 -23 -8 -31 -7 -44
7 -23 25 -20 47 11 69 30 22 60 18 68 -9z m285 12 c0 -11 -4 -23 -10 -26 -6
-4 -10 5 -10 19 0 14 5 26 10 26 6 0 10 -9 10 -19z m-155 -28 c-8 -47 -9 -47
-45 -73 l-30 -21 -10 27 c-9 22 -8 29 5 36 8 5 15 15 15 23 0 13 44 44 64 45
4 0 5 -17 1 -37z m93 -68 c-18 -19 -18 -19 -32 0 -15 21 -9 42 23 79 15 17 16
16 22 -20 4 -29 0 -44 -13 -59z m63 -42 c-8 -15 -10 -11 -9 17 0 19 3 40 7 45
10 17 13 -44 2 -62z m-515 0 c-10 -10 -19 5 -10 18 6 11 8 11 12 0 2 -7 1 -15
-2 -18z m154 -29 c0 -24 -4 -34 -12 -32 -18 6 -22 49 -6 59 18 12 18 13 18
-27z m142 5 c-4 -28 -6 -29 -20 -15 -15 14 -14 17 3 31 11 8 20 15 21 15 0 0
-2 -14 -4 -31z"/>
</g>
</svg>
