<?xml version="1.0" standalone="no"?>
<!DOCTYPE svg PUBLIC "-//W3C//DTD SVG 20010904//EN"
 "http://www.w3.org/TR/2001/REC-SVG-20010904/DTD/svg10.dtd">
<svg version="1.0" xmlns="http://www.w3.org/2000/svg"
 width="304.000000pt" height="140.000000pt" viewBox="0 0 304.000000 140.000000"
 preserveAspectRatio="xMidYMid meet">
<metadata>
Created by potrace 1.16, written by Peter Selinger 2001-2019
</metadata>
<g transform="translate(0.000000,140.000000) scale(0.100000,-0.100000)"
fill="#000000" stroke="none">
<path d="M419 1223 c-28 -33 -42 -75 -28 -84 10 -6 14 -88 15 -344 l3 -336
-32 6 c-18 4 -52 20 -76 37 l-44 31 -23 -29 c-22 -27 -24 -39 -27 -196 -3
-116 -1 -168 6 -168 6 0 25 13 42 29 16 15 73 51 125 78 109 57 227 89 365 98
50 3 128 8 175 11 47 3 132 7 190 8 58 1 113 6 123 10 10 5 23 3 32 -4 8 -7
24 -10 35 -7 10 3 34 -3 52 -13 18 -9 44 -20 58 -23 14 -4 53 -32 88 -63 56
-51 63 -60 60 -90 -5 -62 29 -66 92 -9 30 26 156 105 168 105 5 0 26 13 47 30
21 16 56 35 79 41 22 6 50 16 61 22 25 14 46 16 210 16 72 0 149 0 173 1 28 1
52 -6 70 -19 30 -21 40 -18 60 17 11 21 11 26 -4 36 -13 10 -14 17 -6 32 5 10
17 58 26 106 17 91 67 259 91 305 8 16 15 31 15 34 0 18 87 153 112 174 42 36
37 55 -15 55 -24 0 -49 -6 -56 -13 -10 -8 -12 -9 -7 0 7 14 -33 22 -104 23
-25 0 -54 0 -65 1 -11 0 -58 0 -105 -1 -161 -2 -359 19 -442 46 -43 14 -80 30
-83 35 -18 28 -49 -1 -59 -55 -7 -40 -8 -235 0 -286 3 -25 1 -72 -6 -105 -24
-122 -35 -295 -19 -295 6 0 25 11 43 25 69 56 124 90 168 104 21 7 40 17 43
22 11 17 121 10 342 -23 65 -10 72 -13 76 -36 3 -14 0 -54 -5 -88 -10 -59 -12
-62 -42 -67 -17 -2 -60 -3 -96 -1 -36 2 -155 6 -265 9 -315 8 -347 11 -396 46
-14 10 -37 21 -51 24 -32 8 -37 -4 -36 -95 0 -36 -1 -78 -1 -95 l-1 -30 -27
28 c-26 25 -28 33 -28 110 -2 193 -5 237 -17 237 -7 0 -56 -44 -108 -96 l-95
-97 -3 38 c-5 61 59 231 125 327 31 46 65 94 76 108 10 14 38 55 62 93 23 37
64 90 89 119 28 30 44 54 39 59 -6 6 -40 5 -85 -2 -63 -9 -90 -8 -169 6 -52
10 -103 18 -114 18 -11 0 -99 -1 -195 -2 -136 -1 -365 5 -365 9 0 1 -63 2
-140 4 -77 1 -149 6 -160 10 -14 5 -25 2 -36 -11z m746 -45 c-168 -10 -248
-21 -364 -47 -51 -12 -96 -20 -98 -17 -2 2 3 18 11 34 20 38 10 37 326 38 226
0 240 0 125 -8z m-492 -7 c4 0 -4 -22 -17 -48 -28 -55 -104 -239 -148 -358
-52 -144 -63 -132 -63 73 -1 87 -2 195 -4 242 -1 47 -2 87 -2 90 1 4 210 5
234 1z m1236 -15 c25 -14 57 -22 144 -41 27 -6 23 -10 -74 -75 -57 -39 -107
-70 -111 -70 -5 0 -8 45 -8 100 0 63 4 100 10 100 6 0 24 -7 39 -14z m-632
-83 c-4 -49 -9 -120 -13 -159 l-7 -71 -105 -7 c-58 -3 -136 -6 -173 -6 l-67 0
12 48 c18 66 40 106 71 126 20 13 25 23 21 41 -4 14 0 27 9 35 19 16 19 36 0
44 -10 4 -23 -10 -42 -46 -36 -65 -48 -87 -56 -95 -5 -5 2 147 7 154 0 1 57 4
126 8 68 3 126 8 129 11 2 2 24 4 49 4 l45 0 -6 -87z m305 30 c-153 -228 -254
-386 -271 -424 l-20 -44 6 50 c2 28 6 61 8 75 2 14 4 28 4 31 1 4 15 9 31 13
40 7 38 24 -2 28 -28 3 -33 7 -31 28 0 14 4 85 9 158 7 141 8 141 60 122 17
-7 31 -7 38 -1 7 6 50 12 96 14 47 1 91 4 98 5 7 1 -5 -24 -26 -55z m-689 -4
c10 -39 0 -153 -18 -211 l-19 -58 -76 0 c-63 0 -184 21 -198 34 -3 4 22 68 59
153 11 26 31 49 48 58 23 12 119 34 192 44 4 1 9 -9 12 -20z m1465 0 l127 2
-2 -92 c-1 -50 -5 -94 -8 -97 -7 -7 -214 -4 -260 4 -16 2 -55 9 -85 14 -30 5
-73 10 -95 10 -22 0 -58 3 -80 8 l-39 7 94 69 c83 62 99 70 135 68 22 -1 47 2
55 7 8 5 18 7 23 4 4 -2 65 -4 135 -4z m289 -11 c39 -2 65 -8 67 -15 3 -7 0
-12 -5 -10 -10 2 -129 -198 -127 -212 1 -3 -11 -31 -25 -61 l-27 -55 0 45 c-1
25 -3 101 -6 169 -3 68 -3 130 1 138 3 10 14 13 32 9 16 -3 56 -7 90 -8z
m-624 -185 c73 -6 73 -8 -3 -50 -19 -10 -61 -36 -92 -56 -31 -20 -62 -37 -69
-37 -12 0 -7 129 6 151 5 7 22 9 49 5 22 -3 71 -9 109 -13z m456 -39 c6 -5 2
-118 -5 -182 l-7 -54 -56 6 c-31 3 -92 9 -136 15 -44 5 -105 12 -135 16 -30 3
-62 8 -70 11 -8 4 -43 12 -78 20 -34 7 -72 20 -83 28 -20 14 -19 16 43 58 99
68 117 78 141 78 12 0 29 5 37 10 14 10 339 4 349 -6z m-1790 -90 c7 -7 -2
-12 -86 -42 l-81 -30 9 32 c20 73 24 75 92 59 34 -8 64 -16 66 -19z m563 8
c-1 -8 -5 -92 -9 -188 -3 -96 -10 -177 -15 -180 -9 -6 -224 -18 -313 -18 -108
0 -465 54 -465 71 0 2 4 11 9 21 5 9 17 48 26 85 19 76 38 104 75 111 70 15
213 56 241 70 18 9 35 14 37 11 3 -3 0 -33 -6 -68 -13 -70 -17 -96 -27 -182
-11 -101 13 -51 40 82 36 178 31 170 112 177 37 4 93 11 123 15 83 13 176 9
172 -7z m627 -86 c6 -7 33 -19 59 -25 26 -7 61 -16 77 -20 l30 -8 -45 -22
c-25 -12 -52 -26 -60 -31 -56 -33 -121 -70 -123 -70 -6 0 9 167 16 178 11 16
32 15 46 -2z m-1418 -87 c-9 -22 -10 -22 -10 -3 -1 11 2 24 6 27 12 12 14 0 4
-24z m1001 -115 c-2 -47 1 -99 7 -115 5 -16 6 -29 2 -29 -14 0 -84 31 -118 52
l-33 20 73 79 c39 43 72 79 72 79 0 0 -1 -39 -3 -86z m-1182 -32 c0 -13 42
-30 93 -37 37 -6 47 -11 49 -28 2 -12 12 -23 22 -25 15 -3 18 0 13 18 -5 21
-4 21 71 15 42 -3 93 -8 112 -12 19 -3 46 -7 60 -7 86 -6 89 -9 15 -16 -146
-14 -270 -55 -455 -150 -13 -7 -14 6 -9 98 4 59 4 111 2 115 -7 12 5 37 17 37
5 0 10 -4 10 -8z m1490 -76 c41 -3 100 -5 130 -6 l55 0 -138 -75 c-76 -41
-148 -81 -159 -89 -37 -26 -46 -2 -40 110 l4 100 37 -17 c20 -10 70 -20 111
-23z"/>
</g>
</svg>
