<?xml version="1.0" standalone="no"?>
<!DOCTYPE svg PUBLIC "-//W3C//DTD SVG 20010904//EN"
 "http://www.w3.org/TR/2001/REC-SVG-20010904/DTD/svg10.dtd">
<svg version="1.0" xmlns="http://www.w3.org/2000/svg"
 width="185.000000pt" height="109.000000pt" viewBox="0 0 185.000000 109.000000"
 preserveAspectRatio="xMidYMid meet">
<metadata>
Created by potrace 1.16, written by Peter Selinger 2001-2019
</metadata>
<g transform="translate(0.000000,109.000000) scale(0.100000,-0.100000)"
fill="#000000" stroke="none">
<path d="M1554 1008 c-2 -4 -4 -53 -2 -110 2 -146 -4 -227 -18 -239 -7 -6 -28
-7 -48 -3 -31 5 -36 10 -36 34 0 29 37 112 71 162 11 14 19 28 19 31 0 2 -64
4 -142 3 -101 -1 -145 3 -154 12 -14 14 -140 16 -219 2 -46 -7 -76 -3 -47 7 6
3 12 11 12 18 0 11 -18 14 -78 14 -84 0 -119 -11 -92 -29 8 -5 36 -10 62 -10
41 0 46 -2 41 -20 -3 -11 -9 -20 -13 -20 -4 0 -16 -19 -26 -42 l-19 -42 -6 52
c-7 50 -14 71 -23 61 -2 -2 -6 -43 -9 -91 -3 -49 -8 -92 -12 -97 -6 -10 -60 4
-82 21 -7 5 -21 7 -33 3 -14 -5 -20 -2 -20 9 0 22 -13 20 -35 -4 -25 -27 -33
-188 -10 -196 8 -4 21 -4 28 0 20 9 82 49 115 73 28 22 30 22 35 4 2 -10 0
-44 -5 -75 -10 -55 -5 -96 10 -82 4 4 7 11 7 14 1 4 5 30 10 57 4 28 8 54 7
58 -5 21 21 47 48 47 l29 0 -2 -73 c-1 -51 2 -79 12 -91 19 -23 32 -7 23 29
-8 27 1 112 13 123 2 2 24 7 50 9 51 6 49 11 35 -90 -6 -38 -8 -73 -5 -77 9
-15 37 1 31 17 -3 8 -1 45 5 83 l12 68 41 4 c22 3 43 4 44 2 2 -1 8 -37 13
-80 11 -84 15 -97 30 -89 5 4 6 41 3 89 l-7 83 34 4 c60 7 69 2 69 -44 0 -23
4 -53 8 -67 5 -19 8 -9 12 40 l5 65 34 -2 c18 0 37 -5 42 -10 5 -5 4 -42 -2
-90 -11 -79 -7 -139 10 -129 4 3 11 43 14 88 10 125 11 128 64 128 l45 0 -7
-37 c-4 -21 -11 -105 -14 -186 l-6 -148 -275 -5 c-151 -3 -298 -9 -325 -14
-52 -9 -171 -16 -439 -25 l-148 -6 5 28 c4 16 13 93 22 173 8 80 17 155 20
167 8 33 36 269 41 345 6 75 -7 95 -31 49 -16 -31 -23 -32 -73 -8 -18 8 -26 7
-38 -5 -14 -14 -14 -24 1 -104 9 -49 19 -100 21 -114 3 -14 6 -30 8 -36 2 -5
-2 -46 -9 -90 -20 -124 -29 -334 -15 -334 8 0 10 -15 5 -53 -9 -67 2 -79 65
-67 25 4 110 11 190 14 214 9 287 15 415 35 39 6 189 10 334 10 145 0 267 3
272 8 5 5 10 103 12 218 2 126 9 230 17 260 37 145 46 166 120 282 8 12 12 24
9 27 -8 8 -170 12 -175 4z m113 -38 c13 0 12 -5 -3 -27 -10 -16 -30 -53 -45
-83 l-27 -55 -1 55 c0 30 -1 62 -2 70 -6 44 0 53 32 46 17 -3 38 -6 46 -6z
m-1303 -142 c-8 -46 -14 -90 -15 -98 -1 -8 -7 17 -14 57 -8 39 -12 80 -10 90
2 10 4 21 4 26 1 4 12 7 25 7 l23 0 -13 -82z m694 45 c-9 -10 -27 -40 -41 -68
-48 -95 -55 -97 -45 -14 11 81 23 99 71 99 28 0 29 -1 15 -17z m87 -57 c-19
-31 -37 -56 -38 -56 -2 0 -1 26 1 57 5 84 -11 56 -29 -50 l-15 -92 -44 -7
c-24 -4 -45 -6 -46 -5 -2 2 21 50 51 107 l53 105 49 5 c26 3 49 2 51 -2 2 -3
-13 -31 -33 -62z m-205 -40 c-7 -47 -17 -90 -21 -97 -12 -20 -63 1 -67 28 -3
22 85 170 95 160 3 -3 0 -44 -7 -91z m360 88 c0 -3 -8 -18 -19 -32 -10 -15
-26 -44 -34 -64 -9 -21 -18 -38 -21 -38 -3 0 -5 29 -4 64 1 58 3 65 22 69 35
7 56 7 56 1z m200 2 c0 -2 -10 -30 -22 -60 -20 -54 -36 -66 -46 -36 -3 7 0 10
7 6 17 -11 14 21 -5 49 -17 26 -16 28 31 38 30 7 35 7 35 3z m-116 -29 c-14
-43 -43 -107 -50 -107 -3 0 -4 11 -2 25 3 13 1 22 -3 19 -5 -3 -9 14 -9 38 0
43 0 44 35 45 32 1 35 -1 29 -20z m-195 -80 l-11 -75 -35 -7 c-19 -3 -37 -5
-38 -3 -5 5 59 133 75 153 7 9 15 14 17 12 2 -2 -2 -38 -8 -80z m125 -8 l6
-57 -31 -6 c-60 -12 -68 -9 -56 19 7 14 15 25 18 25 4 0 15 23 25 50 21 57 28
51 38 -31z m116 -59 c0 -12 -10 -14 -46 -12 -51 5 -51 0 -6 92 l27 55 12 -60
c7 -33 12 -67 13 -75z m-724 -15 c9 -8 26 -15 38 -15 49 0 32 -26 -40 -63 -30
-16 -31 -16 -29 6 1 12 3 37 4 55 1 36 6 39 27 17z"/>
</g>
</svg>
