<?xml version="1.0" standalone="no"?>
<!DOCTYPE svg PUBLIC "-//W3C//DTD SVG 20010904//EN"
 "http://www.w3.org/TR/2001/REC-SVG-20010904/DTD/svg10.dtd">
<svg version="1.0" xmlns="http://www.w3.org/2000/svg"
 width="124.000000pt" height="150.000000pt" viewBox="0 0 124.000000 150.000000"
 preserveAspectRatio="xMidYMid meet">
<metadata>
Created by potrace 1.16, written by Peter Selinger 2001-2019
</metadata>
<g transform="translate(0.000000,150.000000) scale(0.100000,-0.100000)"
fill="#000000" stroke="none">
<path d="M862 1365 c-101 -16 -303 -20 -473 -10 l-126 8 -23 -32 c-17 -25 -20
-37 -13 -54 5 -12 6 -33 2 -47 -4 -14 -7 -83 -8 -153 -1 -142 16 -241 55 -318
l23 -47 -30 -4 c-16 -3 -32 -1 -35 4 -9 14 -42 9 -48 -8 -10 -27 -7 -57 14
-112 11 -29 20 -67 20 -85 0 -51 35 -163 64 -208 17 -25 42 -46 64 -55 20 -8
55 -23 77 -34 119 -55 182 -60 265 -23 56 26 156 110 196 166 49 67 196 363
192 385 -5 25 -72 54 -100 43 -13 -4 -42 -11 -66 -15 l-43 -6 41 52 c51 68 71
109 95 203 9 33 18 98 21 145 4 47 12 104 20 128 8 23 14 47 14 51 0 9 -86 42
-104 40 -6 -1 -48 -7 -94 -14z m106 -75 c22 0 23 -3 17 -42 -8 -49 -27 -70
-94 -105 -25 -14 -55 -33 -66 -44 -19 -19 -19 -19 0 -19 35 0 145 58 145 76 0
10 3 14 7 10 14 -13 1 -102 -28 -191 -40 -124 -82 -172 -186 -213 -43 -17 -92
-33 -109 -37 l-30 -6 3 48 c2 26 4 95 6 152 1 73 6 106 15 109 22 7 13 30 -15
37 -43 10 -55 -15 -49 -105 9 -121 9 -143 2 -192 -11 -63 -32 -67 -143 -28
-48 16 -88 30 -89 30 -5 0 -42 89 -52 125 -19 71 -35 240 -28 298 l7 57 72 -1
c143 0 300 17 392 42 17 4 68 6 115 4 47 -2 96 -4 108 -5z m32 -579 c0 -5 -15
-20 -34 -35 -69 -52 -80 -76 -35 -76 23 0 23 -1 4 -47 -33 -78 -172 -263 -198
-263 -5 0 -20 -9 -34 -20 -49 -38 -53 -31 -53 99 0 110 1 119 20 124 24 6 27
35 5 44 -9 3 -24 -2 -35 -12 -18 -16 -20 -16 -36 -1 -20 21 -48 17 -52 -7 -2
-12 4 -20 16 -24 28 -7 36 -61 27 -173 l-7 -88 -43 13 c-50 15 -125 58 -165
95 -27 25 -53 95 -69 183 -7 41 -6 49 10 58 20 10 26 44 9 54 -6 4 -18 1 -26
-6 -17 -14 -19 -12 -28 19 -7 21 -5 22 71 23 43 1 94 0 113 -1 109 -10 375 7
455 29 85 23 85 23 85 12z"/>
<path d="M312 1149 c2 -7 10 -15 17 -17 8 -3 12 1 9 9 -2 7 -10 15 -17 17 -8
3 -12 -1 -9 -9z"/>
<path d="M374 1099 c-8 -13 13 -29 38 -29 26 0 31 18 9 29 -25 14 -38 14 -47
0z"/>
<path d="M490 1070 c-13 -9 -13 -11 0 -20 22 -14 56 -12 70 5 10 12 10 15 -1
15 -8 0 -23 3 -34 5 -11 3 -27 1 -35 -5z"/>
<path d="M728 1062 c-38 -5 -37 -32 1 -32 31 0 61 25 39 32 -7 2 -25 2 -40 0z"/>
<path d="M357 593 c-13 -12 -7 -42 10 -52 21 -11 53 3 53 24 0 23 -48 44 -63
28z"/>
<path d="M805 575 c-22 -13 -52 -24 -66 -24 -26 -1 -45 -24 -33 -42 7 -12 61
-12 68 0 4 5 28 15 55 22 47 12 78 40 66 59 -10 16 -47 9 -90 -15z"/>
<path d="M454 545 c-8 -20 4 -35 26 -35 25 0 35 17 20 35 -16 19 -39 19 -46 0z"/>
</g>
</svg>
