<?xml version="1.0" standalone="no"?>
<!DOCTYPE svg PUBLIC "-//W3C//DTD SVG 20010904//EN"
 "http://www.w3.org/TR/2001/REC-SVG-20010904/DTD/svg10.dtd">
<svg version="1.0" xmlns="http://www.w3.org/2000/svg"
 width="143.000000pt" height="113.000000pt" viewBox="0 0 143.000000 113.000000"
 preserveAspectRatio="xMidYMid meet">
<metadata>
Created by potrace 1.16, written by Peter Selinger 2001-2019
</metadata>
<g transform="translate(0.000000,113.000000) scale(0.100000,-0.100000)"
fill="#000000" stroke="none">
<path d="M249 974 c-5 -15 -7 -45 -3 -68 21 -146 21 -183 -6 -476 -13 -146
-10 -205 13 -197 7 2 15 19 19 38 3 19 4 -3 1 -48 -10 -150 9 -165 103 -80 33
28 81 63 107 77 26 14 47 28 47 31 0 8 495 2 520 -6 23 -7 60 2 60 16 0 5 -10
9 -23 9 -24 0 -28 15 -14 50 4 8 8 51 10 95 2 44 10 129 17 190 13 104 16 113
61 180 26 38 63 86 83 105 19 19 36 38 36 42 0 3 -45 6 -100 6 -55 -1 -100 -5
-100 -10 0 -12 -49 -9 -110 7 -32 9 -102 15 -169 16 -63 0 -135 5 -160 10 -25
6 -68 12 -96 15 -27 3 -60 10 -73 17 -17 8 -41 8 -94 -1 -49 -9 -75 -9 -82 -2
-17 17 -36 11 -47 -16z m122 -128 c-31 -63 -58 -112 -61 -110 -2 3 -7 35 -11
72 -3 37 -10 84 -14 104 l-7 37 39 4 c21 2 54 4 74 5 l36 2 -56 -114z m184 92
c49 -9 85 -28 53 -28 -8 0 -42 -13 -74 -30 -32 -16 -62 -30 -65 -30 -4 0 -10
16 -13 35 -8 43 8 80 32 70 9 -4 40 -12 67 -17z m285 -27 c0 -6 -5 -13 -11
-17 -7 -4 -7 -10 0 -17 7 -7 19 -2 40 16 26 22 35 24 68 16 21 -5 61 -12 88
-15 28 -4 52 -10 55 -15 6 -9 4 -61 -7 -194 -7 -73 -11 -89 -23 -86 -8 3 -80
6 -160 7 -197 2 -190 2 -190 20 0 9 16 38 35 65 20 26 43 68 51 93 9 25 22 50
30 57 16 13 19 29 4 29 -10 0 -47 -54 -81 -120 -12 -22 -23 -40 -25 -40 -6 0
-2 177 5 188 3 5 13 12 21 15 25 9 100 8 100 -2z m351 -43 c-85 -112 -76 -107
-76 -39 0 32 4 63 8 67 4 5 29 11 55 15 26 3 48 7 50 8 1 0 -15 -23 -37 -51z
m-507 -45 c-4 -88 -9 -134 -20 -185 -5 -24 -10 -28 -40 -28 -20 0 -44 5 -54
10 -11 6 -47 13 -82 17 -35 3 -84 15 -110 27 l-46 21 25 55 c62 136 57 127 63
100 9 -38 50 -38 102 -1 24 16 57 33 73 37 17 4 39 13 50 20 39 28 44 19 39
-73z m-299 -202 c5 -5 43 -11 83 -15 41 -3 78 -9 84 -12 5 -3 32 -6 59 -6 l50
1 -5 -37 c-3 -20 -9 -88 -12 -149 -4 -62 -10 -113 -13 -113 -43 1 -301 30
-316 36 -34 13 -40 27 -37 84 4 54 5 56 55 91 49 33 96 58 142 75 18 7 18 8
-5 11 -16 3 -53 -11 -99 -37 -41 -22 -75 -40 -76 -40 -4 0 13 106 20 122 5 14
12 15 33 7 14 -6 31 -14 37 -18z m612 -40 c29 -4 55 -9 57 -12 2 -2 0 -26 -5
-52 -5 -27 -10 -92 -11 -145 l-2 -97 -145 2 c-80 2 -163 3 -185 3 l-39 0 7 78
c14 166 17 197 21 209 4 11 51 16 205 20 25 1 69 -2 97 -6z m-538 -311 l56 0
-40 -21 c-22 -12 -65 -41 -97 -65 -31 -24 -59 -44 -62 -44 -4 0 -6 32 -5 71
l2 71 45 -6 c24 -3 70 -6 101 -6z"/>
</g>
</svg>
