<?xml version="1.0" standalone="no"?>
<!DOCTYPE svg PUBLIC "-//W3C//DTD SVG 20010904//EN"
 "http://www.w3.org/TR/2001/REC-SVG-20010904/DTD/svg10.dtd">
<svg version="1.0" xmlns="http://www.w3.org/2000/svg"
 width="204.000000pt" height="138.000000pt" viewBox="0 0 204.000000 138.000000"
 preserveAspectRatio="xMidYMid meet">
<metadata>
Created by potrace 1.16, written by Peter Selinger 2001-2019
</metadata>
<g transform="translate(0.000000,138.000000) scale(0.100000,-0.100000)"
fill="#000000" stroke="none">
<path d="M340 1235 c-7 -8 -14 -32 -17 -53 -7 -77 -10 -458 -3 -488 4 -18 4
-36 0 -41 -10 -11 6 -257 19 -280 7 -14 7 -42 -1 -92 -8 -54 -8 -75 1 -84 9
-9 14 -9 19 -1 10 15 61 40 97 47 17 3 84 18 150 32 143 31 148 32 435 45 124
5 243 12 265 15 153 18 291 20 380 5 33 -5 61 -10 63 -10 1 0 2 9 2 20 0 11
-6 20 -14 20 -7 0 -20 8 -27 17 -12 14 -12 16 1 9 8 -4 4 2 -9 13 -23 21 -57
29 -46 12 3 -5 -4 -12 -15 -16 -11 -4 -18 -11 -15 -16 4 -5 -5 -9 -19 -9 -14
0 -26 -6 -26 -12 0 -10 -2 -10 -8 -1 -6 9 -44 10 -162 2 -135 -8 -600 -13
-670 -6 -29 2 -37 28 -17 49 10 10 14 38 14 99 0 91 8 188 17 197 3 3 14 -1
23 -9 10 -8 66 -36 124 -62 76 -33 120 -47 152 -47 33 0 64 -10 113 -36 37
-20 95 -42 128 -49 34 -7 86 -20 116 -29 87 -25 230 -55 225 -46 -3 4 -37 15
-77 25 -40 9 -105 30 -145 46 -39 16 -79 29 -88 29 -9 0 -45 14 -81 30 -35 17
-79 33 -97 37 -17 3 -60 19 -94 35 -66 30 -178 68 -204 68 -8 0 -24 6 -34 14
-18 13 -16 15 25 26 25 6 66 22 93 36 26 13 69 30 96 38 62 18 231 92 291 126
25 15 53 29 62 33 25 9 168 105 198 133 43 39 78 53 112 43 43 -12 55 0 21 22
-26 18 -54 19 -403 19 -377 0 -700 12 -723 27 -6 4 -52 11 -102 14 -49 4 -99
10 -111 14 -13 4 -25 1 -34 -10z m1124 -68 c87 -1 141 -6 143 -13 4 -11 -167
-126 -204 -138 -13 -4 -23 -11 -23 -15 0 -4 -6 -8 -13 -8 -8 0 -34 -9 -58 -20
-134 -64 -192 -88 -264 -113 -44 -15 -124 -46 -178 -69 -55 -22 -104 -41 -109
-41 -7 0 -8 12 -4 33 21 95 29 150 35 230 3 48 3 87 0 87 -9 0 -39 -64 -41
-87 0 -10 -4 5 -7 32 -4 28 -4 53 -1 58 12 14 139 25 333 28 199 3 207 17 12
19 -167 3 -168 3 -76 11 52 5 98 10 103 11 4 2 54 2 110 0 57 -1 166 -4 242
-5z m-567 -10 c2 -3 -58 -8 -134 -11 -76 -4 -155 -9 -176 -12 -30 -5 -36 -3
-31 10 3 8 13 16 22 18 24 5 313 0 319 -5z m-407 -8 c0 -6 -5 -20 -12 -32 -7
-12 -13 -27 -14 -32 -1 -6 -11 -31 -22 -55 -11 -25 -25 -61 -30 -80 -17 -57
-38 -109 -46 -117 -9 -9 0 292 9 307 3 5 19 7 34 4 16 -4 37 -1 48 5 23 13 33
14 33 0z m206 -45 c-4 -9 -2 -22 3 -28 11 -13 14 -68 12 -189 -1 -82 -2 -88
-20 -82 -19 6 -252 -11 -301 -22 l-25 -5 23 16 c12 10 22 25 22 34 0 9 7 31
16 47 8 17 29 64 45 105 44 113 50 118 159 130 36 4 67 8 69 9 2 0 0 -6 -3
-15z m9 -394 l0 -45 -105 -7 c-233 -16 -225 -17 -228 16 -6 53 25 68 183 82
39 3 71 7 73 9 1 1 19 -1 39 -4 37 -6 38 -7 38 -51z m-11 -125 c-6 -191 -8
-207 -22 -212 -7 -3 -74 0 -148 7 -105 11 -135 17 -138 29 -3 9 -6 54 -8 101
l-3 85 55 8 c151 21 188 25 225 23 40 -1 40 -1 39 -41z m-139 -260 c11 -2 45
-4 75 -5 52 -2 53 -3 20 -10 -19 -5 -73 -14 -120 -21 -47 -7 -100 -18 -119
-26 -38 -16 -38 -16 -41 17 -6 65 -8 63 83 56 45 -4 91 -9 102 -11z"/>
<path d="M1263 1144 c3 -3 26 -6 52 -6 26 0 49 3 53 6 3 3 -21 6 -53 6 -32 0
-56 -3 -52 -6z"/>
</g>
</svg>
