<?xml version="1.0" standalone="no"?>
<!DOCTYPE svg PUBLIC "-//W3C//DTD SVG 20010904//EN"
 "http://www.w3.org/TR/2001/REC-SVG-20010904/DTD/svg10.dtd">
<svg version="1.0" xmlns="http://www.w3.org/2000/svg"
 width="184.000000pt" height="110.000000pt" viewBox="0 0 184.000000 110.000000"
 preserveAspectRatio="xMidYMid meet">
<metadata>
Created by potrace 1.16, written by Peter Selinger 2001-2019
</metadata>
<g transform="translate(0.000000,110.000000) scale(0.100000,-0.100000)"
fill="#000000" stroke="none">
<path d="M795 1028 c-4 -24 -11 -47 -15 -53 -5 -5 -10 -21 -12 -35 -5 -41 -28
-43 -450 -25 -121 5 -153 -3 -153 -36 0 -18 5 -23 20 -22 11 1 99 2 195 1 96
-1 223 -1 282 0 l107 3 1 -191 c0 -154 -2 -191 -14 -196 -7 -3 -146 -7 -307
-8 -287 -3 -321 -5 -335 -19 -16 -16 -25 -216 -12 -250 7 -16 18 -18 103 -14
106 5 103 7 81 -67 -15 -50 -12 -80 8 -73 16 5 39 56 45 101 8 53 18 55 242
48 101 -2 202 -4 224 -3 22 1 147 2 278 2 172 1 237 4 237 12 0 8 3 8 8 -1 6
-9 40 -13 114 -13 119 -1 150 5 147 29 -2 9 0 31 4 47 10 42 15 67 32 163 8
46 17 87 20 92 4 7 9 32 20 120 2 14 11 70 20 125 31 192 34 214 26 242 -7 27
-10 28 -87 35 -43 3 -115 5 -159 3 -275 -13 -375 -13 -470 1 -55 8 -105 12
-112 10 -7 -3 -15 -1 -18 4 -4 6 -19 10 -35 10 -26 0 -29 -4 -35 -42z m164
-24 c2 -2 -23 -4 -57 -4 -34 0 -62 4 -62 9 0 8 110 4 119 -5z m605 -274 c-6
-278 -7 -300 -19 -408 -6 -62 -11 -75 -29 -82 -12 -4 -100 -4 -196 1 -96 4
-247 10 -335 11 l-160 4 3 39 c2 22 14 110 27 195 13 85 26 218 30 295 3 77
10 143 14 148 4 4 61 11 127 17 65 5 130 12 144 15 14 3 72 8 130 11 58 4 107
8 110 11 2 2 40 3 82 1 l78 -3 -6 -255z m92 191 c-4 -31 -13 -87 -21 -126
l-13 -70 -1 117 c-1 128 3 150 26 141 13 -5 14 -17 9 -62z m-821 -85 c-13
-197 -14 -219 -20 -224 -3 -3 -6 26 -7 64 -2 77 -2 81 5 179 3 39 6 76 6 83 1
7 6 10 12 7 7 -5 8 -40 4 -109z m782 -148 c-3 -8 -6 -5 -6 6 -1 11 2 17 5 13
3 -3 4 -12 1 -19z m-1160 -267 c71 1 167 2 215 3 100 1 92 10 88 -104 -2 -85
-5 -94 -28 -85 -9 3 -99 6 -201 5 l-183 0 6 22 c3 13 6 26 6 31 0 4 11 12 25
17 32 12 32 28 -2 41 -43 16 -48 10 -79 -98 -2 -9 -28 -13 -85 -13 l-82 0 6
76 c3 42 10 81 15 86 6 6 41 12 78 14 37 2 70 6 72 9 3 2 9 2 13 -1 5 -3 66
-4 136 -3z"/>
</g>
</svg>
