<?xml version="1.0" standalone="no"?>
<!DOCTYPE svg PUBLIC "-//W3C//DTD SVG 20010904//EN"
 "http://www.w3.org/TR/2001/REC-SVG-20010904/DTD/svg10.dtd">
<svg version="1.0" xmlns="http://www.w3.org/2000/svg"
 width="187.000000pt" height="131.000000pt" viewBox="0 0 187.000000 131.000000"
 preserveAspectRatio="xMidYMid meet">
<metadata>
Created by potrace 1.16, written by Peter Selinger 2001-2019
</metadata>
<g transform="translate(0.000000,131.000000) scale(0.100000,-0.100000)"
fill="#000000" stroke="none">
<path d="M977 1201 c-84 -55 -95 -67 -68 -74 10 -2 26 -19 35 -37 l16 -33
-163 7 c-179 7 -235 13 -256 30 -8 6 -30 11 -50 12 -53 1 -151 52 -174 92 -38
65 -61 27 -73 -119 -3 -40 -9 -91 -13 -115 -12 -63 -6 -67 92 -63 l85 4 -37
-45 c-21 -25 -48 -60 -60 -78 -32 -46 -34 -43 -40 71 -2 39 -29 35 -36 -5 -3
-18 -8 -103 -10 -188 -2 -85 -9 -222 -14 -304 -9 -139 -5 -186 16 -186 3 0 34
18 69 40 35 22 67 40 72 40 5 0 36 9 68 20 81 26 304 37 304 14 0 -8 10 -18
22 -23 20 -7 17 -13 -50 -79 -45 -44 -68 -73 -61 -78 6 -3 15 0 20 7 6 10 9
11 9 1 0 -7 18 -19 40 -28 27 -11 42 -24 46 -40 8 -29 23 -30 52 -4 26 24 26
29 7 54 -10 13 -15 44 -15 93 0 67 2 75 30 103 27 27 35 30 96 30 l67 0 -43
-47 c-23 -27 -65 -69 -93 -95 -49 -45 -61 -73 -19 -47 16 10 26 9 56 -5 21
-10 40 -24 43 -32 5 -14 64 -20 77 -7 3 4 -5 16 -20 28 -25 20 -25 22 -15 75
6 30 14 69 17 85 3 17 8 32 10 34 10 10 180 31 260 31 86 0 92 -1 97 -22 6
-22 6 -22 28 -3 12 11 31 18 45 17 34 -5 32 26 -2 34 -25 6 -26 9 -20 58 12
90 23 161 26 171 1 6 1 15 0 20 -1 6 -1 37 0 70 1 53 7 69 48 135 25 41 86
115 134 163 48 49 88 93 88 98 0 15 -316 7 -332 -8 -8 -9 -45 -13 -109 -13
l-98 0 5 38 c3 20 10 59 15 85 15 80 9 85 -50 38 -21 -16 -50 -33 -65 -37 -28
-7 -29 -6 -24 25 3 18 1 34 -3 36 -4 3 -40 -17 -82 -44z m26 -43 c-18 -54 -17
-53 -36 -24 -16 24 -15 25 16 44 17 11 33 21 33 21 1 1 -5 -18 -13 -41z m159
30 c-7 -7 -12 -39 -13 -72 0 -63 -2 -62 -31 9 -17 42 -16 44 12 59 32 18 48
20 32 4z m-72 -115 c0 -7 -9 -13 -20 -13 -25 0 -37 43 -18 64 11 13 15 11 25
-12 7 -15 12 -33 13 -39z m-743 17 c14 -11 34 -20 44 -20 11 0 19 -4 19 -9 0
-10 -111 -83 -117 -77 -5 5 18 126 24 126 3 0 16 -9 30 -20z m1283 -49 c0 -4
-14 -23 -31 -44 -17 -20 -27 -41 -24 -47 3 -5 -1 -10 -9 -10 -8 0 -19 -6 -23
-14 -13 -22 -86 -106 -92 -106 -3 0 -6 49 -6 110 l-1 109 61 3 c103 5 125 5
125 -1z m-1090 -15 c23 -5 25 -9 22 -51 -2 -25 -7 -46 -11 -47 -48 -11 -80 4
-76 37 5 40 18 73 28 70 7 -2 23 -6 37 -9z m852 2 c2 -6 2 -24 0 -40 -4 -25
-8 -28 -42 -28 -20 0 -64 -3 -97 -6 -56 -6 -62 -5 -72 15 -7 12 -9 30 -6 41 5
17 18 20 98 23 51 1 97 4 104 5 6 1 13 -3 15 -10z m-949 -35 c-3 -21 -7 -40
-9 -42 -2 -2 -30 -6 -62 -8 l-57 -4 25 20 c14 11 30 21 36 21 6 0 21 11 34 25
32 34 40 31 33 -12z m665 -3 c30 -45 28 -50 -17 -50 -32 0 -40 4 -44 23 -2 12
-8 29 -11 39 -5 11 -2 18 11 21 28 7 36 3 61 -33z m-419 -8 c-5 -20 -9 -40 -9
-44 0 -5 -20 -8 -45 -8 l-45 0 0 38 c0 21 3 41 6 44 3 4 27 6 54 6 l48 1 -9
-37z m126 21 c-15 -77 -12 -73 -60 -73 -44 0 -44 0 -41 34 4 48 12 56 61 56
36 0 43 -3 40 -17z m169 0 c3 -10 11 -26 18 -35 7 -9 10 -19 8 -21 -3 -3 -44
-8 -92 -12 l-87 -7 11 39 c14 54 13 53 77 53 47 0 60 -4 65 -17z m401 -83 c10
-16 -7 -131 -19 -135 -33 -8 -150 -25 -216 -30 -41 -4 -113 -10 -160 -16 -47
-5 -106 -9 -132 -9 l-48 0 0 47 c0 62 19 113 45 118 11 3 53 6 94 7 l75 3 9
-37 c12 -52 37 -50 37 2 0 37 2 40 30 42 17 0 35 1 41 2 7 1 27 -28 45 -63 39
-75 41 -78 55 -64 8 8 5 22 -9 49 -41 82 -41 83 30 87 35 2 75 4 90 5 15 1 30
-2 33 -8z m-829 -70 c-3 -22 -9 -58 -12 -80 -5 -35 -9 -40 -32 -41 -15 0 -40
-3 -56 -5 -26 -5 -28 -3 -22 18 11 38 14 51 22 101 l7 47 49 0 50 0 -6 -40z
m111 11 c-3 -15 -9 -51 -13 -80 l-7 -51 -37 0 c-45 0 -49 10 -37 98 l9 62 45
0 c45 0 45 0 40 -29z m120 15 c-3 -7 -9 -35 -12 -62 -4 -27 -11 -56 -15 -64
-9 -17 -65 -25 -74 -11 -4 5 -1 41 6 80 l12 71 44 0 c33 0 43 -3 39 -14z
m-375 -81 c-9 -46 -20 -75 -28 -75 -7 0 -21 -3 -31 -6 -14 -5 -13 -2 6 16 26
25 13 42 -15 20 -8 -7 -16 -11 -19 -8 -4 4 92 128 99 128 2 0 -4 -34 -12 -75z
m968 -104 c0 -43 -5 -72 -12 -78 -8 -6 -133 -13 -296 -16 l-282 -6 4 47 c3 26
5 53 5 60 1 8 19 12 54 12 29 0 107 7 172 15 66 9 152 18 190 21 39 3 72 8 74
10 2 2 24 4 48 4 l43 0 0 -69z m-844 -8 c-4 -13 -9 -34 -12 -48 -4 -15 -2 -25
5 -25 6 0 11 11 11 24 0 14 4 36 10 50 8 23 15 26 54 26 l45 0 -6 -37 c-15
-93 -7 -88 -121 -90 l-102 -2 0 43 c0 51 15 74 55 78 59 8 66 5 61 -19z m221
5 c-3 -13 -9 -40 -12 -60 -7 -35 -10 -38 -41 -38 -34 0 -34 1 -34 44 0 67 6
76 52 76 37 0 40 -2 35 -22z m-373 -52 c-4 -28 -8 -53 -11 -55 -2 -3 -22 -4
-44 -2 -53 3 -49 -23 4 -27 l37 -3 -3 -52 -4 -52 -42 -7 c-23 -4 -45 -10 -50
-13 -6 -3 -8 17 -6 47 3 29 7 86 9 126 3 39 7 75 9 80 3 4 28 7 56 8 l51 0 -6
-50z m991 -89 c3 -48 -12 -57 -111 -64 -73 -6 -87 0 -62 25 22 22 -14 14 -38
-9 -19 -18 -131 -44 -142 -34 -5 5 67 74 97 94 23 15 125 27 220 26 32 0 34
-2 36 -38z m-291 25 c7 -11 -2 -22 -61 -70 l-52 -43 -88 3 -88 3 -3 46 c-3 44
-1 47 25 52 15 3 75 6 133 7 57 0 106 3 109 6 7 7 19 5 25 -4z m-588 -76 l-10
-55 -38 1 c-38 0 -38 1 -38 42 0 22 4 46 8 53 6 10 67 22 83 16 3 -1 1 -26 -5
-57z m125 34 c-2 -14 -5 -32 -6 -40 -2 -8 -4 -21 -4 -27 -1 -9 -17 -13 -47
-13 l-47 0 7 46 c8 62 12 66 59 62 38 -3 42 -5 38 -28z m119 -20 l0 -50 -46 0
-46 0 6 38 c3 20 5 43 6 50 0 7 15 12 40 12 l40 0 0 -50z m628 -92 c2 -34 -1
-48 -10 -48 -48 -1 -248 -20 -270 -25 -39 -10 -35 3 15 58 43 46 45 47 108 48
35 1 75 5 89 9 52 17 65 9 68 -42z m-268 2 c-43 -60 -81 -80 -151 -80 l-64 0
48 48 c45 45 51 47 115 53 37 3 68 7 70 7 2 1 -6 -12 -18 -28z m-365 -48 c-2
-46 -3 -47 -39 -50 -20 -2 -36 0 -36 5 -1 4 -5 27 -9 50 -8 42 -8 42 23 45 57
6 63 1 61 -50z m198 44 c-16 -28 -96 -86 -118 -86 -30 0 -33 6 -28 52 6 42 12
45 96 47 47 1 56 -2 50 -13z m-333 -23 c0 -16 3 -38 6 -50 6 -21 3 -23 -35
-23 l-41 0 0 44 c0 45 6 52 53 55 12 1 17 -7 17 -26z m-242 -23 c3 -42 -5 -48
-39 -29 -15 8 -24 7 -35 -2 -13 -11 -7 -16 41 -33 l56 -21 -63 -31 -63 -31 2
86 c1 47 2 88 3 91 0 3 22 6 48 8 l48 3 2 -41z m132 -5 c0 -42 -2 -45 -27 -46
-16 0 -38 -2 -50 -3 -19 -2 -21 1 -16 33 8 58 10 61 53 61 l40 0 0 -45z m330
-70 c-7 -9 -15 -13 -17 -11 -7 7 7 26 19 26 6 0 6 -6 -2 -15z m134 -98 c-7
-51 -11 -54 -39 -33 -17 13 -17 15 10 50 15 20 29 35 31 33 2 -2 1 -25 -2 -50z
m-194 -37 c0 -30 -11 -37 -45 -24 -14 6 -13 9 6 30 30 32 39 30 39 -6z"/>
</g>
</svg>
