<?xml version="1.0" standalone="no"?>
<!DOCTYPE svg PUBLIC "-//W3C//DTD SVG 20010904//EN"
 "http://www.w3.org/TR/2001/REC-SVG-20010904/DTD/svg10.dtd">
<svg version="1.0" xmlns="http://www.w3.org/2000/svg"
 width="232.000000pt" height="146.000000pt" viewBox="0 0 232.000000 146.000000"
 preserveAspectRatio="xMidYMid meet">
<metadata>
Created by potrace 1.16, written by Peter Selinger 2001-2019
</metadata>
<g transform="translate(0.000000,146.000000) scale(0.100000,-0.100000)"
fill="#000000" stroke="none">
<path d="M1142 1255 c-7 -14 -12 -33 -12 -42 0 -13 -14 -15 -100 -10 -92 4
-129 -4 -104 -22 5 -3 10 -19 11 -36 l2 -30 -212 0 c-177 0 -222 3 -272 19
-97 29 -165 66 -171 93 -9 32 -46 27 -55 -7 -9 -31 1 -342 11 -353 4 -4 40 20
81 54 85 72 156 119 178 119 9 0 30 7 46 16 23 12 74 17 213 21 l182 6 2 -49
c1 -27 1 -60 0 -74 -4 -96 -2 -329 3 -342 11 -28 -90 -32 -495 -17 -41 2 -175
31 -187 41 -28 22 -37 -7 -35 -109 1 -54 4 -110 8 -125 3 -15 2 -33 -2 -40
-18 -29 -21 -196 -5 -237 20 -47 34 -39 26 15 -4 31 -3 44 4 40 11 -7 64 24
153 91 60 46 90 54 87 25 -1 -9 -1 -54 0 -100 1 -62 4 -83 14 -80 8 3 14 34
17 86 4 55 11 87 21 98 14 13 46 15 198 15 101 -1 187 -4 193 -7 6 -4 7 -23 3
-48 -3 -22 -9 -75 -12 -117 -6 -92 6 -108 46 -61 33 38 144 122 195 146 30 14
70 19 170 23 72 2 187 10 256 18 69 8 163 17 209 19 46 3 89 10 94 15 7 7 14
5 23 -7 7 -9 15 -15 18 -12 3 3 8 144 10 313 6 328 6 328 61 402 12 17 30 45
39 63 9 18 35 51 58 74 22 22 36 44 32 48 -11 10 -175 17 -190 8 -5 -4 -100
-10 -211 -13 -184 -6 -212 -5 -320 15 -65 12 -133 31 -151 41 -35 20 -52 18
-52 -6 0 -15 28 -33 69 -45 25 -7 25 -8 -19 -29 -25 -12 -55 -28 -66 -37 -20
-14 -22 -13 -28 12 -5 20 -2 30 14 41 25 18 26 33 2 33 -15 0 -17 6 -14 35 5
43 -19 49 -36 10z m-24 -98 c-4 -17 -111 -177 -116 -173 -2 2 -6 28 -8 57 -3
30 -10 67 -15 83 -5 16 -9 32 -9 37 0 4 34 7 76 8 55 0 75 -3 72 -12z m807
-102 c0 -61 -3 -171 -8 -245 -5 -104 -13 -324 -17 -472 0 -5 -37 -8 -82 -8
-46 0 -135 -9 -198 -19 -92 -15 -167 -18 -376 -18 l-262 1 10 30 c5 17 8 103
7 191 -4 341 0 390 29 453 15 32 43 79 62 106 32 44 35 46 38 25 9 -58 45 -64
99 -15 80 71 78 71 363 68 121 -2 291 6 299 14 3 2 12 3 21 2 12 -3 15 -22 15
-113z m165 106 c0 -6 -4 -12 -8 -15 -4 -2 -32 -45 -62 -95 -29 -50 -58 -91
-63 -91 -6 0 -7 16 -3 38 3 20 6 65 6 99 0 60 1 62 28 66 53 8 102 7 102 -2z
m-1685 -61 c25 0 99 -29 75 -30 -9 0 -39 -16 -69 -35 -29 -19 -56 -35 -60 -35
-4 0 -16 -9 -26 -20 -18 -20 -41 -28 -31 -11 4 5 7 43 8 84 l1 75 40 -14 c22
-8 50 -14 62 -14z m-27 -525 l63 -7 -48 -22 c-26 -13 -59 -34 -72 -48 -33 -35
-51 -17 -51 51 0 48 1 50 23 42 12 -5 50 -12 85 -16z m387 -20 c33 0 87 2 120
5 l60 5 2 -102 2 -101 -44 -4 c-24 -1 -58 0 -76 4 -17 3 -80 4 -140 2 -59 -2
-110 0 -113 4 -7 12 38 104 62 126 12 10 19 23 16 27 -8 13 -182 11 -190 -2
-3 -6 -1 -15 6 -19 7 -4 14 -37 17 -74 l6 -66 -49 -2 c-27 -1 -75 -1 -106 1
-45 2 -58 -1 -58 -12 0 -19 70 -39 109 -31 47 10 38 -7 -32 -54 -70 -47 -72
-48 -94 -26 -14 14 -14 24 -3 87 11 63 19 79 61 128 29 34 64 62 91 73 24 10
52 22 63 27 27 12 119 17 180 10 28 -3 77 -6 110 -6z m-175 -65 c0 -16 -54
-119 -62 -120 -5 0 -8 12 -8 28 0 15 -3 44 -6 65 l-7 37 42 0 c22 0 41 -5 41
-10z m496 -230 c30 0 54 -4 54 -9 0 -5 -26 -26 -57 -46 -32 -21 -70 -47 -85
-57 -15 -10 -29 -18 -31 -18 -4 0 0 102 4 108 2 3 6 19 8 32 1 6 10 6 27 0 14
-6 50 -10 80 -10z"/>
<path d="M1234 1012 c-18 -11 -114 -142 -106 -143 4 -1 14 -2 22 -3 14 -1 16
-47 5 -105 -1 -9 -6 -62 -10 -118 -5 -78 -11 -103 -21 -103 -22 0 -20 -138 2
-147 9 -3 24 -1 33 5 29 20 150 82 160 82 5 0 9 -22 7 -50 -2 -28 1 -53 5 -56
5 -3 9 8 9 24 0 72 9 88 63 110 91 36 351 121 395 128 23 4 45 10 47 14 6 10
-24 22 -36 14 -9 -5 -126 33 -142 46 -4 4 7 5 25 3 l33 -3 -36 14 c-20 8 -58
31 -85 52 -27 20 -71 47 -99 60 -27 12 -72 39 -100 58 -27 20 -59 42 -69 49
-10 6 -34 27 -52 45 -37 36 -35 34 -50 24z m74 -74 c62 -52 147 -106 225 -142
31 -15 57 -32 57 -37 0 -11 -16 -7 -105 26 -151 57 -175 69 -169 88 5 15 -2
17 -58 18 -35 1 -70 0 -77 -1 -13 -1 -13 1 -1 17 25 33 64 73 70 73 3 0 29
-19 58 -42z m-76 -95 c8 -4 -30 -73 -40 -73 -6 0 -8 59 -3 82 1 7 23 2 43 -9z
m168 -42 c19 -10 73 -31 120 -47 47 -16 100 -39 119 -51 19 -13 40 -23 48 -23
14 0 49 -28 42 -34 -2 -1 -67 -19 -144 -40 -207 -55 -209 -56 -212 -52 -8 7
47 110 73 137 15 16 25 31 22 35 -8 7 -125 7 -137 -1 -5 -3 -8 -22 -6 -43 3
-20 2 -60 -1 -89 -6 -51 -6 -51 -49 -62 -57 -14 -105 -14 -105 0 0 7 5 53 12
103 8 63 18 99 32 118 12 15 29 39 40 53 17 25 22 26 64 20 26 -4 62 -15 82
-24z m-3 -128 c-8 -16 -24 -48 -36 -73 -21 -43 -21 -44 -16 -11 3 18 5 51 5
72 0 37 2 39 31 39 30 0 30 0 16 -27z m-177 -202 c-59 -30 -70 -30 -70 -1 0
20 21 26 90 28 35 1 35 1 -20 -27z"/>
<path d="M1745 700 c27 -12 43 -12 25 0 -8 5 -22 9 -30 9 -10 0 -8 -3 5 -9z"/>
</g>
</svg>
