<?xml version="1.0" standalone="no"?>
<!DOCTYPE svg PUBLIC "-//W3C//DTD SVG 20010904//EN"
 "http://www.w3.org/TR/2001/REC-SVG-20010904/DTD/svg10.dtd">
<svg version="1.0" xmlns="http://www.w3.org/2000/svg"
 width="199.000000pt" height="120.000000pt" viewBox="0 0 199.000000 120.000000"
 preserveAspectRatio="xMidYMid meet">
<metadata>
Created by potrace 1.16, written by Peter Selinger 2001-2019
</metadata>
<g transform="translate(0.000000,120.000000) scale(0.100000,-0.100000)"
fill="#000000" stroke="none">
<path d="M461 1047 c-5 -14 -13 -41 -16 -61 l-7 -36 -112 0 c-100 0 -115 -2
-135 -21 -15 -14 -21 -29 -17 -43 27 -111 45 -358 40 -538 -2 -71 0 -118 6
-118 25 0 34 53 38 230 4 164 6 187 23 206 10 11 19 23 19 27 0 10 47 74 100
135 l45 52 5 -82 c5 -77 4 -84 -17 -103 -28 -24 -21 -35 33 -63 49 -25 64 -51
34 -59 -11 -3 -20 -9 -20 -13 0 -4 -23 -19 -51 -34 -63 -35 -70 -51 -33 -82
16 -13 33 -23 37 -24 5 0 24 -12 43 -27 44 -33 61 -21 42 28 -7 19 -12 56 -10
82 3 45 6 50 38 63 19 8 34 18 34 23 0 9 53 31 74 31 6 0 18 -5 26 -10 12 -7
7 -16 -28 -46 -24 -20 -40 -40 -35 -43 4 -3 9 -14 11 -23 2 -12 -2 -16 -13
-12 -8 3 -15 13 -15 20 0 12 -4 12 -25 -2 -32 -21 -32 -32 0 -40 40 -10 50
-30 23 -45 -12 -7 -52 -34 -88 -60 -36 -26 -78 -51 -93 -54 -37 -10 -55 -33
-31 -41 42 -13 104 -44 104 -53 0 -5 15 -9 33 -10 17 0 41 -2 52 -3 38 -5 30
17 -12 36 -42 19 -43 21 -43 65 0 45 1 47 61 84 l61 38 24 -22 c18 -17 27 -20
35 -12 7 7 8 17 3 25 -17 25 -34 83 -34 115 0 25 7 35 35 52 42 24 43 35 10
57 -19 12 -25 25 -25 51 0 19 4 32 10 28 5 -3 6 -13 3 -23 -6 -14 -4 -15 9 -4
13 10 23 6 64 -32 l49 -45 -30 -25 c-16 -14 -47 -33 -67 -43 -21 -10 -38 -24
-38 -31 0 -7 4 -11 8 -8 19 11 106 -66 90 -79 -21 -17 -181 -115 -188 -115 -6
0 -10 -4 -10 -9 0 -5 26 -17 58 -27 45 -15 58 -24 60 -41 3 -18 10 -23 32 -23
41 0 45 16 14 46 -21 22 -25 33 -21 62 8 45 33 82 56 82 10 0 26 9 35 19 16
17 16 22 3 43 -8 12 -17 44 -20 70 -4 42 -2 48 17 54 24 7 56 33 56 46 0 4 -9
8 -19 8 -27 0 -30 8 -35 87 -5 67 -4 68 31 105 20 21 33 41 29 45 -4 4 -32
-18 -61 -48 -30 -31 -70 -66 -89 -77 -33 -20 -34 -20 -39 -1 -3 13 8 32 35 59
23 22 38 43 35 47 -10 9 -50 -21 -108 -81 -30 -31 -59 -56 -66 -56 -20 0 -21
-24 0 -54 16 -23 17 -30 6 -37 -22 -14 -26 -11 -43 30 -23 59 -3 125 55 183
77 77 85 80 222 84 67 2 147 6 177 9 l55 6 2 -48 c6 -144 5 -347 -2 -413 -4
-41 -7 -84 -7 -95 1 -11 2 -78 3 -150 0 -74 5 -135 11 -142 15 -18 39 -2 84
57 22 28 64 70 94 93 l55 42 181 1 c170 1 254 12 254 34 0 15 -25 18 -110 13
-47 -3 -94 -5 -105 -6 -11 -1 -56 2 -100 7 -44 4 -97 10 -117 12 -57 5 -146
30 -174 49 -27 18 -27 20 -3 224 12 103 23 129 83 205 l46 59 0 -39 c0 -61 11
-114 24 -114 6 0 45 34 86 75 l75 76 51 -6 c27 -3 74 -1 104 5 35 7 57 7 64 0
11 -11 12 -171 2 -325 -9 -129 0 -207 23 -203 14 3 17 25 22 144 6 150 18 192
80 274 61 81 99 141 95 148 -2 4 -64 6 -138 3 -73 -2 -160 -4 -193 -4 -77 -1
-213 30 -245 55 -24 19 -25 19 -41 0 -19 -25 -129 -36 -114 -12 4 7 -65 10
-212 10 -125 -1 -233 4 -253 10 -19 5 -50 10 -68 10 -38 0 -61 11 -114 52
l-38 30 -9 -25z m167 -104 l52 -8 -76 -60 c-42 -33 -84 -65 -93 -72 -14 -11
-16 -3 -16 80 l0 93 40 -13 c22 -7 64 -16 93 -20z m755 -40 c20 -3 37 -9 37
-13 0 -8 -104 -100 -114 -100 -3 0 -5 30 -5 66 1 63 2 66 22 59 12 -4 39 -9
60 -12z m-973 0 c0 -12 -112 -172 -154 -220 -1 -1 -3 21 -4 50 -1 29 -7 68
-12 87 -20 70 -16 79 43 82 91 5 127 6 127 1z m810 1 c0 -2 -20 -34 -45 -70
-48 -72 -49 -71 -63 13 -8 48 -8 52 12 56 24 5 96 5 96 1z m619 -19 c2 -2 -17
-31 -42 -63 -25 -33 -51 -70 -58 -83 -13 -22 -14 -17 -20 61 -5 59 -3 87 5 92
10 7 106 1 115 -7z m-1042 -181 c-1 -1 -11 4 -21 12 -16 11 -17 16 -5 30 12
15 14 13 21 -12 4 -15 6 -29 5 -30z m-285 -4 c-4 -39 -4 -39 -26 -23 l-22 17
25 23 c14 12 26 23 26 23 0 0 -1 -18 -3 -40z m148 10 c0 -32 -14 -40 -24 -14
-5 14 8 44 20 44 2 0 4 -13 4 -30z m123 -170 c-6 -21 -18 -26 -28 -11 -4 7 17
28 32 31 0 0 -1 -9 -4 -20z m-315 -60 c-3 -19 -4 -20 -26 -5 l-22 16 22 19
c25 20 33 11 26 -30z m244 -158 c-4 -27 -5 -28 -37 -18 l-34 10 27 18 c38 25
49 23 44 -10z m486 -11 l52 -18 -42 -28 c-24 -16 -56 -40 -71 -54 l-28 -26 5
65 c3 36 5 68 5 73 1 11 21 8 79 -12z m-710 -16 c0 -21 -4 -24 -22 -19 -31 10
-33 14 -12 30 28 20 34 18 34 -11z"/>
<path d="M967 838 c-29 -29 -65 -62 -82 -74 l-30 -21 37 -34 c20 -20 40 -48
44 -64 7 -30 7 -31 -83 -102 -20 -16 -23 -22 -12 -23 9 0 29 -16 43 -35 25
-32 26 -36 12 -57 -16 -24 -94 -86 -134 -107 -17 -9 -21 -16 -13 -25 6 -7 7
-16 3 -20 -4 -4 5 -5 19 -1 22 5 32 0 62 -35 40 -47 52 -40 41 23 -4 23 -6 54
-6 70 1 35 -14 26 -23 -13 -7 -31 -12 -35 -32 -22 -19 12 94 118 137 130 37 9
38 11 29 107 -4 48 2 76 21 95 29 29 25 46 -6 25 l-26 -17 3 92 c4 90 5 93 37
119 17 15 32 31 32 34 0 19 -27 2 -73 -45z m-21 -74 c-3 -9 -6 -23 -6 -31 0
-14 -3 -13 -21 3 -19 17 -19 19 -3 31 24 18 37 16 30 -3z m-1 -207 c-4 -18 -1
-45 5 -61 17 -45 5 -42 -30 9 l-31 46 23 19 c33 27 40 25 33 -13z"/>
<path d="M973 393 c-55 -60 -69 -81 -61 -91 6 -7 17 -11 23 -8 7 2 25 -9 41
-25 15 -16 30 -27 33 -24 2 3 5 25 6 48 1 23 5 53 9 65 11 34 -10 26 -25 -10
-8 -18 -13 -36 -11 -40 1 -4 -5 -5 -13 -2 -22 9 -19 21 19 67 45 57 70 97 60
97 -5 0 -41 -35 -81 -77z"/>
</g>
</svg>
