<?xml version="1.0" standalone="no"?>
<!DOCTYPE svg PUBLIC "-//W3C//DTD SVG 20010904//EN"
 "http://www.w3.org/TR/2001/REC-SVG-20010904/DTD/svg10.dtd">
<svg version="1.0" xmlns="http://www.w3.org/2000/svg"
 width="124.000000pt" height="81.000000pt" viewBox="0 0 124.000000 81.000000"
 preserveAspectRatio="xMidYMid meet">
<metadata>
Created by potrace 1.16, written by Peter Selinger 2001-2019
</metadata>
<g transform="translate(0.000000,81.000000) scale(0.100000,-0.100000)"
fill="#000000" stroke="none">
<path d="M815 734 c-38 -29 -72 -60 -75 -68 -17 -49 -173 -174 -247 -200 -20
-7 -39 -18 -41 -24 -4 -12 48 -42 73 -42 8 0 15 -4 15 -10 0 -5 -21 -10 -47
-10 -65 1 -267 25 -281 34 -22 13 -12 34 58 127 39 51 70 96 70 101 0 4 -54 8
-120 8 l-120 0 0 -24 c0 -13 5 -26 10 -28 6 -2 13 -30 16 -63 2 -32 8 -62 12
-65 6 -4 0 -181 -10 -270 -3 -33 3 -50 17 -50 11 0 15 12 15 48 0 44 3 50 33
65 17 10 52 32 75 50 42 31 47 32 153 35 60 1 109 1 109 -1 0 -2 -27 -23 -60
-47 -33 -24 -60 -50 -60 -57 0 -15 17 -8 59 25 18 15 32 18 58 12 18 -5 39
-13 46 -18 26 -22 201 -112 217 -112 19 0 60 -40 60 -58 0 -13 10 -15 34 -6
17 7 23 44 7 44 -17 0 16 88 56 148 22 34 119 112 139 112 7 0 15 7 18 16 9
22 -41 79 -126 144 -82 63 -91 82 -82 178 4 34 3 62 -2 61 -5 0 -40 -25 -79
-55z m47 -41 c-3 -46 -5 -47 -31 -33 -26 14 -26 21 0 54 26 33 34 27 31 -21z
m-9 -105 c38 -33 48 -58 24 -58 -8 0 -39 5 -71 11 -60 13 -82 6 -53 -16 16
-12 18 -21 11 -62 -11 -61 -10 -176 0 -227 l9 -39 -52 29 c-83 46 -123 82
-112 102 5 9 11 31 12 47 3 23 0 29 -12 27 -17 -2 -16 9 7 88 4 14 41 58 82
98 l75 73 21 -20 c12 -11 38 -35 59 -53z m-570 18 c-19 -33 -89 -125 -95 -126
-5 0 -8 11 -8 25 0 14 -7 42 -15 61 -8 20 -13 39 -11 43 8 12 136 9 129 -3z
m559 -113 c9 -5 -27 -78 -42 -88 -11 -7 -15 87 -4 98 5 5 27 1 46 -10z m145
-3 c18 -10 40 -31 50 -46 l17 -27 -54 -49 c-57 -50 -167 -128 -181 -128 -5 0
-13 18 -19 41 -10 37 -9 44 25 104 70 125 99 144 162 105z m-407 -35 c0 -25
-13 -31 -45 -18 -15 5 -15 8 6 24 32 25 39 24 39 -6z m-333 -93 l47 -7 -48
-33 c-68 -44 -76 -42 -76 19 0 44 2 50 14 39 8 -6 36 -15 63 -18z m328 -32
c-3 -5 -11 -10 -16 -10 -6 0 -7 5 -4 10 3 6 11 10 16 10 6 0 7 -4 4 -10z m320
-97 c-9 -16 -23 -37 -31 -48 -15 -20 -16 -20 -29 -1 -13 17 -11 21 23 47 47
35 57 36 37 2z"/>
</g>
</svg>
