<?xml version="1.0" standalone="no"?>
<!DOCTYPE svg PUBLIC "-//W3C//DTD SVG 20010904//EN"
 "http://www.w3.org/TR/2001/REC-SVG-20010904/DTD/svg10.dtd">
<svg version="1.0" xmlns="http://www.w3.org/2000/svg"
 width="355.000000pt" height="140.000000pt" viewBox="0 0 355.000000 140.000000"
 preserveAspectRatio="xMidYMid meet">
<metadata>
Created by potrace 1.16, written by Peter Selinger 2001-2019
</metadata>
<g transform="translate(0.000000,140.000000) scale(0.100000,-0.100000)"
fill="#000000" stroke="none">
<path d="M770 1280 c6 -11 14 -20 18 -20 8 0 82 -95 82 -105 0 -3 33 -48 73
-101 39 -53 82 -110 93 -128 12 -17 29 -37 38 -45 9 -7 16 -20 16 -27 0 -8 3
-14 8 -14 16 0 63 -70 55 -84 -22 -37 -235 -200 -285 -219 -19 -7 -20 1 -22
180 -1 57 -9 84 -21 71 -3 -3 -6 -39 -7 -79 0 -41 -5 -79 -10 -86 -5 -7 -5
-13 0 -17 8 -5 7 -96 0 -101 -2 -1 -29 -18 -61 -39 -32 -21 -60 -36 -62 -34
-5 5 -5 4 0 241 5 228 18 403 41 566 5 34 4 43 -7 39 -19 -6 -48 -93 -49 -144
l0 -41 -182 5 c-101 3 -209 5 -240 5 -47 1 -59 4 -64 19 -3 10 -9 18 -14 18
-16 0 -22 -40 -15 -108 4 -44 0 -101 -11 -167 -23 -140 -28 -195 -16 -207 5
-5 85 -11 178 -12 93 -2 200 -9 237 -16 73 -13 88 -9 71 18 -8 13 -32 19 -90
24 -84 7 -322 11 -344 6 -10 -2 -13 7 -11 37 2 22 4 42 6 44 11 10 452 -12
463 -24 6 -6 4 -248 -3 -317 -4 -40 -2 -58 6 -58 14 0 73 32 78 43 6 14 81 58
90 53 5 -3 5 -27 0 -52 -5 -26 -6 -50 -3 -53 9 -9 34 31 34 55 0 60 13 85 54
106 36 18 101 62 116 78 3 3 25 21 50 40 24 19 60 50 79 68 18 18 41 32 49 30
9 -2 31 -23 49 -48 42 -57 127 -154 240 -272 42 -44 53 -62 48 -78 -6 -20 1
-24 37 -21 9 1 19 -2 22 -8 4 -5 -3 -7 -15 -4 -29 8 -21 -18 9 -32 12 -5 22
-13 22 -18 0 -4 5 -5 10 -2 6 3 10 2 10 -3 0 -5 12 -17 26 -27 15 -9 24 -13
21 -7 -7 10 121 63 159 66 13 0 24 4 24 8 0 5 41 18 70 23 11 1 136 47 151 55
9 5 34 12 55 16 22 3 47 11 57 16 10 5 41 11 70 13 55 3 95 13 112 27 35 28
170 87 225 97 36 7 71 15 78 17 23 7 12 -6 -20 -22 -18 -9 -36 -22 -40 -28 -9
-14 7 -33 36 -40 12 -3 27 -16 33 -28 11 -24 40 -43 83 -52 34 -8 86 -58 165
-161 22 -29 36 -40 45 -35 11 7 10 13 -3 34 -21 31 -21 37 -2 30 39 -15 1 72
-66 151 -54 64 -78 118 -87 199 l-8 64 35 29 c20 15 54 41 76 57 22 16 46 37
55 46 8 9 46 43 84 76 l69 59 -8 -35 c-4 -19 -38 -80 -76 -136 -59 -88 -73
-103 -102 -108 -18 -3 -42 -12 -52 -20 -18 -13 -18 -15 3 -73 12 -33 22 -71
22 -85 0 -13 7 -33 15 -44 13 -18 14 -18 9 6 -5 24 -5 24 8 5 7 -11 13 -22 13
-25 1 -3 8 -27 17 -55 9 -27 19 -63 22 -78 4 -16 11 -25 17 -21 6 3 9 15 6 25
-3 12 0 19 10 19 9 0 12 6 9 18 -5 16 0 18 44 16 44 -1 49 0 38 14 -12 14 -10
14 12 2 14 -8 31 -13 39 -11 14 3 8 -12 -17 -41 -11 -13 -30 -18 -64 -18 -59
0 -63 -16 -7 -25 l41 -7 -20 -22 c-27 -29 -34 -56 -21 -72 18 -22 29 -17 45
21 8 19 21 35 30 35 8 0 13 4 10 9 -3 5 8 26 24 46 17 21 30 42 30 46 0 5 16
15 36 24 19 8 33 19 29 25 -3 5 1 10 10 10 9 0 14 4 11 9 -6 9 41 61 55 61 4
0 21 11 36 25 38 34 43 37 86 59 20 11 37 23 37 28 0 20 -53 58 -74 53 -16 -4
-27 3 -45 30 -22 33 -24 45 -22 143 1 74 6 114 16 129 8 12 15 27 15 33 0 15
-43 12 -79 -6 -33 -16 -59 -14 -143 12 -41 14 -51 13 -97 -2 -28 -9 -55 -22
-62 -30 -6 -8 -16 -14 -21 -14 -6 0 -82 -34 -169 -75 -88 -42 -163 -74 -167
-71 -4 2 -8 -4 -9 -14 -2 -17 2 -17 47 6 26 13 51 24 54 24 4 0 57 23 118 51
61 28 123 55 137 60 26 9 26 9 5 -8 -67 -56 -94 -74 -103 -68 -7 3 -8 0 -5 -9
4 -9 -5 -20 -23 -30 -28 -14 -47 -31 -152 -128 l-54 -50 -19 34 c-11 19 -36
43 -55 53 -32 18 -33 20 -17 32 10 7 25 13 34 13 9 0 17 6 17 14 0 15 -3 14
-65 -17 -18 -9 -38 -14 -45 -11 -7 2 -13 -4 -14 -16 -2 -18 8 -25 30 -21 13 2
63 -27 78 -45 13 -16 12 -17 -6 -10 -11 5 -30 11 -42 13 -13 3 -23 9 -23 14 0
5 -4 9 -10 9 -5 0 -53 29 -107 63 -54 35 -120 76 -148 91 -27 16 -59 36 -70
45 -11 9 -43 32 -71 51 -29 18 -50 39 -47 46 2 7 0 15 -6 19 -7 3 -8 0 -5 -9
11 -30 -19 -13 -116 64 -49 38 -66 50 -121 79 -28 16 -38 28 -43 55 l-7 35
-56 -5 c-62 -6 -76 -11 -68 -24 3 -5 -9 -19 -25 -32 -17 -13 -43 -35 -57 -50
-15 -16 -32 -28 -39 -28 -7 0 -22 -12 -33 -26 -23 -29 -62 -59 -138 -104 -29
-17 -53 -35 -53 -40 0 -4 -24 -22 -52 -39 -29 -17 -60 -36 -69 -43 -14 -9 -22
-6 -47 23 -43 49 -103 129 -97 129 3 0 -4 10 -15 23 -12 12 -28 34 -36 49 -8
15 -20 31 -27 35 -8 4 -29 31 -48 60 -31 46 -168 183 -183 183 -4 0 -2 -9 4
-20z m971 -171 c50 -25 45 -36 -8 -18 -21 7 -47 12 -58 10 l-20 -3 20 16 c25
19 19 20 66 -5z m-1315 -45 c55 -3 116 -2 136 4 50 14 102 -17 91 -56 -4 -18
16 -18 -320 -11 l-131 3 -5 30 c-3 17 -2 35 0 40 3 4 33 5 67 2 33 -3 106 -9
162 -12z m1299 -4 c6 -4 21 -10 35 -13 14 -3 -6 -3 -45 0 -38 4 -76 6 -82 6
-7 0 -13 4 -13 8 0 19 82 18 105 -1z m3 -47 c69 -5 72 -6 72 -30 0 -20 -4 -24
-17 -19 -10 4 -62 10 -115 13 -83 5 -98 9 -98 23 0 25 7 28 48 23 20 -2 70 -7
110 -10z m145 -6 c-4 -6 0 -8 11 -4 10 4 23 -1 33 -13 10 -11 21 -20 25 -20
18 0 108 -75 108 -90 0 -12 2 -12 9 -1 12 19 53 -3 44 -25 -5 -13 -2 -15 15
-9 13 4 22 2 22 -4 0 -6 8 -7 17 -4 12 5 15 2 10 -10 -4 -11 -2 -14 9 -10 8 3
33 -10 58 -31 25 -20 52 -36 61 -36 9 0 27 -11 40 -24 13 -13 26 -19 27 -14 3
7 10 5 18 -3 12 -11 120 -68 140 -74 3 -1 18 -7 33 -13 16 -7 32 -12 36 -12 5
0 14 -7 21 -15 10 -12 10 -15 -1 -15 -12 0 -12 -2 0 -9 13 -8 9 -10 -59 -26
-3 -1 -23 -9 -44 -18 -22 -10 -45 -16 -52 -13 -7 3 -15 -2 -18 -10 -3 -8 -10
-14 -16 -14 -6 0 -8 5 -4 11 9 15 -17 9 -126 -30 -47 -17 -123 -41 -170 -52
-47 -12 -89 -26 -95 -30 -5 -5 -19 -9 -31 -9 -13 0 -26 -4 -29 -10 -3 -5 -15
-10 -26 -10 -10 0 -19 -4 -19 -9 0 -5 -14 -12 -31 -16 -38 -9 -57 12 -31 32
12 9 13 12 3 13 -9 0 -11 8 -6 27 8 34 12 163 4 163 -3 0 -5 21 -4 48 1 26 -2
55 -7 65 -5 10 -5 24 1 35 7 13 6 23 -2 31 -9 10 -8 15 4 25 13 9 14 15 5 27
-7 10 -10 53 -8 122 3 87 6 105 18 100 7 -3 11 -10 7 -16z m-1275 -43 c40 -5
42 -7 42 -39 l0 -34 -132 0 c-73 -1 -175 -4 -225 -7 -92 -5 -93 -5 -93 18 0
39 11 67 29 71 21 5 323 -2 379 -9z m931 -76 c-1 -51 -5 -100 -10 -109 -5 -9
-5 -19 -2 -23 4 -4 9 -14 11 -24 7 -30 7 -196 1 -222 -3 -14 -3 -35 2 -47 5
-13 4 -25 -2 -28 -5 -4 -7 -11 -4 -16 4 -5 2 -9 -3 -9 -5 0 -26 19 -47 43 -21
23 -67 75 -104 116 -36 40 -73 84 -81 96 -8 13 -28 40 -44 60 l-30 37 25 19
c13 11 47 31 76 45 29 13 56 30 60 37 8 13 140 117 149 117 2 0 3 -42 3 -92z
m149 53 c1 -3 27 -6 57 -6 30 0 55 -3 55 -6 0 -4 3 -14 6 -23 5 -13 -1 -14
-43 -9 -26 4 -77 7 -113 7 -59 0 -66 2 -66 21 0 11 5 23 10 28 12 8 89 -1 94
-12z m1526 -30 c4 -5 -13 -25 -36 -45 -48 -39 -57 -34 -33 19 13 25 24 35 41
35 12 0 25 -4 28 -9z m158 -13 c-13 -17 -26 -76 -23 -110 1 -16 -3 -28 -9 -28
-5 0 -10 4 -10 10 0 5 -13 25 -30 43 -16 19 -30 39 -30 44 0 5 21 19 48 30 56
25 68 27 54 11z m-1670 -26 c-7 -5 16 -6 49 -4 56 4 61 3 56 -13 -4 -9 -7 -19
-7 -21 0 -2 -30 -1 -67 2 -38 4 -87 7 -110 8 -41 1 -59 18 -30 29 21 9 123 7
109 -1z m-1089 -23 c34 -9 37 -13 37 -46 0 -34 -1 -35 -30 -30 -16 4 -120 9
-230 13 l-201 7 3 26 3 26 145 5 c80 3 165 7 190 8 25 1 62 -3 83 -9z m2650
-29 l27 -30 -68 3 -69 2 36 27 c20 15 39 28 42 28 3 0 18 -13 32 -30z m-1516
-27 c14 -7 34 -11 45 -8 13 5 18 1 18 -13 0 -17 -7 -20 -45 -20 -25 0 -47 3
-49 6 -2 4 -34 7 -70 7 -62 0 -66 1 -66 23 0 22 3 23 70 21 39 -1 82 -8 97
-16z m1484 -34 c30 -6 61 -12 69 -13 8 -2 16 -9 18 -17 2 -11 -17 -13 -108
-11 -106 3 -110 4 -100 23 6 11 15 17 20 14 5 -3 11 -1 15 5 8 13 19 13 86 -1z
m-1506 -35 c70 -6 81 -9 82 -26 2 -18 -3 -19 -80 -12 -45 4 -84 10 -87 15 -3
4 -12 4 -20 -1 -24 -16 -40 -11 -40 10 0 23 13 24 145 14z m1412 -35 c15 -5
29 -6 30 -2 3 8 160 10 167 2 2 -2 6 -13 8 -24 2 -13 -2 -19 -11 -17 -29 6
-269 4 -280 -2 -17 -11 -13 15 6 36 18 21 40 23 80 7z m-1405 -39 c26 -6 54
-7 61 -4 9 3 17 -3 20 -16 5 -21 3 -21 -114 -18 -114 2 -119 3 -119 23 0 12 2
24 5 27 7 7 82 0 147 -12z m1444 -31 c3 -5 9 -7 13 -5 4 3 24 1 44 -4 21 -4
35 -4 31 1 -5 9 73 5 82 -4 2 -2 2 -11 -1 -20 -5 -13 -31 -15 -164 -16 l-157
0 4 29 4 30 69 -1 c38 -1 72 -5 75 -10z m-180 -21 c-3 -13 -5 -54 -5 -91 -1
-38 -5 -66 -10 -63 -11 7 -41 70 -46 98 -3 12 -9 24 -14 28 -16 9 3 30 35 40
43 12 44 12 40 -12z m-1176 -30 c0 -15 -9 -18 -64 -18 -35 0 -78 -3 -96 -7
-25 -5 -31 -3 -25 7 6 9 0 11 -24 5 -27 -6 -31 -4 -31 15 0 20 4 21 120 18
108 -2 120 -4 120 -20z m995 -113 c13 -27 35 -63 47 -78 57 -71 68 -85 68 -91
0 -3 -18 12 -40 33 -23 21 -62 49 -88 62 -74 38 -103 59 -113 87 -9 22 -5 29
27 56 57 47 68 49 72 12 2 -17 14 -53 27 -81z m605 102 c0 -5 7 -7 15 -3 31
11 13 -11 -48 -59 -34 -27 -63 -53 -65 -57 -2 -5 -8 -8 -14 -8 -6 0 -4 8 5 18
10 10 17 24 17 30 0 6 9 14 21 17 14 5 18 12 14 23 -5 14 -4 15 6 5 21 -21 34
-15 15 6 -10 11 -16 24 -13 28 7 12 47 11 47 0z m-100 -11 c0 -31 -15 -36
-124 -37 -61 0 -121 0 -133 0 -23 1 -32 -14 -13 -21 6 -2 42 -1 80 2 38 3 90
4 115 2 l45 -4 -21 -37 c-14 -26 -28 -37 -46 -39 -33 -3 -44 -12 -15 -12 25 0
27 -8 9 -31 -11 -15 -17 -15 -52 -3 -43 15 -115 9 -115 -10 -1 -16 -30 25 -30
41 0 11 17 13 80 9 44 -2 80 0 80 5 0 5 -21 10 -47 10 -27 1 -55 3 -63 4 -8 1
-24 3 -36 4 -21 1 -22 12 -15 104 1 5 5 6 10 3 5 -4 20 -2 33 3 22 9 258 15
258 7z m-1666 -29 c6 5 47 8 91 7 l79 -1 4 -38 c2 -20 0 -35 -5 -32 -4 3 -57
8 -117 12 -61 3 -113 8 -117 11 -4 2 -6 12 -4 22 2 9 4 20 4 24 1 4 13 3 27
-2 15 -6 32 -7 38 -3z m104 -97 c2 -6 10 -6 22 0 26 14 49 3 43 -21 -5 -16
-11 -19 -37 -14 -17 4 -74 7 -127 8 -93 2 -95 3 -91 24 4 22 7 22 96 17 50 -2
92 -9 94 -14z m-102 -62 c3 -5 0 -8 -7 -7 -8 1 -22 -1 -32 -6 -12 -5 -24 -2
-34 7 -13 14 -10 15 26 15 23 0 44 -4 47 -9z m81 -4 c-3 -3 -12 -4 -19 -1 -8
3 -5 6 6 6 11 1 17 -2 13 -5z m81 -8 c10 -11 -10 -24 -28 -19 -11 3 -17 9 -14
14 3 5 -2 6 -10 3 -9 -4 -16 -1 -16 6 0 9 10 11 32 6 17 -3 33 -8 36 -10z
m1210 -31 c-3 -3 -9 2 -12 12 -6 14 -5 15 5 6 7 -7 10 -15 7 -18z m-1283 -10
c22 -7 33 -14 25 -15 -45 -5 -58 -9 -92 -24 -37 -16 -38 -16 -38 3 0 11 -4 23
-10 26 -41 26 45 33 115 10z"/>
</g>
</svg>
