<?xml version="1.0" standalone="no"?>
<!DOCTYPE svg PUBLIC "-//W3C//DTD SVG 20010904//EN"
 "http://www.w3.org/TR/2001/REC-SVG-20010904/DTD/svg10.dtd">
<svg version="1.0" xmlns="http://www.w3.org/2000/svg"
 width="216.000000pt" height="150.000000pt" viewBox="0 0 216.000000 150.000000"
 preserveAspectRatio="xMidYMid meet">
<metadata>
Created by potrace 1.16, written by Peter Selinger 2001-2019
</metadata>
<g transform="translate(0.000000,150.000000) scale(0.100000,-0.100000)"
fill="#000000" stroke="none">
<path d="M1190 1353 c-39 -5 -75 -32 -62 -45 5 -5 7 -21 4 -35 l-5 -25 -131 8
c-72 4 -155 8 -183 8 -29 0 -53 2 -53 5 0 3 -12 11 -27 17 -49 20 -330 3 -370
-22 -25 -15 -30 -40 -11 -46 7 -3 11 -33 12 -84 1 -43 3 -81 6 -84 3 -3 2 -77
-2 -165 -11 -222 -13 -454 -5 -489 3 -17 2 -35 -4 -43 -13 -15 -2 -113 12
-113 5 0 9 -7 9 -16 0 -10 6 -14 18 -10 60 18 207 35 216 26 15 -15 37 -12 58
7 23 21 208 37 220 19 5 -8 13 -8 27 1 18 11 20 9 23 -25 2 -23 8 -37 16 -37
16 0 43 71 35 91 -3 8 0 14 5 14 6 0 12 -12 14 -28 2 -20 8 -26 21 -24 16 3
18 -3 13 -53 -4 -45 -1 -57 11 -62 29 -11 49 29 51 103 2 37 4 69 6 71 1 2 68
5 147 8 391 12 515 18 526 27 15 12 6 31 -9 22 -6 -4 -84 -8 -172 -10 -89 -1
-236 -5 -328 -9 -165 -7 -167 -6 -165 14 1 12 4 21 7 21 3 0 6 33 7 73 2 54 7
75 20 84 11 9 65 14 165 15 81 1 160 3 176 4 15 1 93 6 175 10 81 4 147 11
147 16 0 4 -12 8 -27 9 -16 0 -46 2 -68 5 -22 2 -67 0 -100 -6 -33 -5 -153
-11 -267 -14 -234 -5 -220 -10 -198 73 5 20 12 48 15 63 l5 27 308 -5 c280 -3
350 1 330 21 -3 3 -91 8 -194 11 -104 3 -207 6 -229 8 -22 1 -75 3 -119 4
l-79 2 6 33 c3 19 16 60 29 93 18 46 28 59 43 57 34 -4 288 -2 330 2 22 3 82
5 133 5 50 1 92 5 92 9 0 12 -82 19 -175 15 -78 -3 -278 -3 -342 0 -17 0 -34
4 -38 8 -4 4 6 40 21 80 16 40 28 76 27 79 -2 7 309 21 448 21 75 -1 122 9
109 21 -3 3 -49 7 -102 10 -54 3 -101 8 -106 11 -4 2 -75 7 -157 11 -82 3
-150 7 -152 9 -1 1 3 17 10 35 11 29 10 34 -8 44 -42 25 -81 30 -165 20z m113
-59 c3 -4 2 -15 -4 -25 -8 -15 -21 -19 -64 -19 -30 0 -55 3 -55 8 0 12 14 29
30 35 21 8 85 8 93 1z m-694 -64 c12 -7 10 -15 -12 -48 -14 -22 -29 -52 -33
-66 -7 -30 -20 -41 -56 -50 -40 -9 -38 -40 2 -31 17 4 30 2 30 -3 0 -5 -18
-55 -40 -111 -22 -55 -40 -107 -40 -115 0 -8 -4 -17 -9 -20 -4 -3 -14 -34 -21
-68 -12 -54 -15 -59 -21 -36 -4 15 -5 58 -3 95 6 93 8 405 3 422 -6 22 170 50
200 31z m198 -28 c-10 -10 -17 -24 -17 -30 0 -19 -38 -52 -60 -52 -19 0 -20 4
-14 37 5 29 3 39 -11 50 -16 11 -10 13 50 13 65 0 67 -1 52 -18z m72 -22 c-7
-19 -18 -30 -30 -30 -22 0 -22 0 -9 34 6 16 17 26 29 26 18 0 19 -3 10 -30z
m101 22 c0 -12 -23 -32 -37 -32 -7 0 -13 9 -13 20 0 15 7 20 25 20 14 0 25 -4
25 -8z m70 -1 c0 -5 -7 -11 -15 -15 -15 -5 -20 5 -8 17 9 10 23 9 23 -2z
m-380 -55 c0 -26 -5 -35 -22 -39 -12 -4 -24 -5 -25 -3 -4 3 39 75 45 76 1 0 2
-15 2 -34z m600 27 c0 -2 -10 -39 -22 -80 -17 -59 -27 -77 -45 -84 -14 -5 -29
-9 -34 -9 -10 0 -7 148 3 166 7 10 98 17 98 7z m-174 -31 c-8 -15 -17 -53 -21
-85 -5 -36 -12 -56 -19 -54 -11 4 -10 63 2 82 3 5 7 17 7 25 4 43 6 49 23 53
9 3 18 5 20 6 1 0 -4 -11 -12 -27z m-73 -54 c-8 -90 -22 -107 -23 -27 0 53 10
89 26 89 1 0 0 -28 -3 -62z m-63 -18 l0 -60 -30 0 c-26 0 -30 3 -30 29 0 63
11 91 36 91 23 0 24 -4 24 -60z m-94 24 c-3 -9 -6 -31 -6 -50 0 -27 -4 -34
-19 -34 -28 0 -34 15 -26 60 6 34 10 40 32 40 19 0 24 -4 19 -16z m-86 -38 c0
-41 -5 -45 -47 -39 -35 6 -41 20 -23 54 7 12 21 19 40 19 27 0 30 -3 30 -34z
m-110 -1 c0 -22 -4 -25 -35 -25 -19 0 -35 4 -35 10 0 8 38 29 68 39 1 1 2 -10
2 -24z m450 -22 c0 -27 -3 -34 -11 -26 -7 7 -9 23 -5 37 9 37 16 32 16 -11z
m-457 -67 c-3 -35 1 -32 -50 -40 -47 -7 -52 0 -33 49 9 23 15 26 47 23 35 -3
38 -5 36 -32z m115 2 c-5 -14 -57 -30 -75 -23 -7 2 -10 11 -7 20 8 19 88 22
82 3z m427 -5 c-4 -10 -11 -31 -15 -48 -4 -16 -17 -52 -28 -80 -18 -43 -21
-46 -21 -22 -1 16 4 59 10 98 11 64 14 69 37 69 19 0 23 -4 17 -17z m-194 -15
c2 -41 -2 -133 -7 -150 -3 -10 -12 -18 -20 -18 -17 0 -18 52 -3 120 5 25 10
51 11 58 2 21 18 13 19 -10z m57 -70 c-2 -58 -7 -91 -13 -88 -7 4 -11 136 -5
178 0 1 5 2 11 2 7 0 9 -31 7 -92z m57 80 c-3 -7 -9 -40 -14 -73 l-9 -60 -1
73 c-1 57 2 72 14 72 8 0 12 -6 10 -12z m-175 -37 c0 -8 -5 -43 -11 -78 -10
-58 -13 -63 -36 -63 -25 0 -26 1 -21 69 3 37 8 73 12 79 9 15 56 9 56 -7z
m-105 -48 c-5 -32 -8 -66 -7 -75 0 -11 -7 -18 -19 -18 -21 0 -23 12 -13 98 6
43 10 52 27 52 18 0 19 -4 12 -57z m-69 10 c-3 -21 -6 -53 -6 -70 0 -32 -2
-33 -40 -33 l-40 0 0 58 c0 67 11 82 58 82 34 0 35 0 28 -37z m-116 -37 l0
-64 -46 -7 c-25 -3 -47 -5 -49 -3 -2 2 -1 29 2 61 l6 56 41 10 c22 5 42 9 44
10 1 1 2 -28 2 -63z m-128 -30 c-4 -27 -13 -51 -20 -54 -6 -2 -12 2 -12 9 0
16 32 101 36 96 2 -1 0 -25 -4 -51z m461 -98 c-3 -18 -12 -60 -19 -93 l-12
-60 -1 87 c-1 83 3 94 31 97 4 1 5 -14 1 -31z m67 -58 c0 -89 0 -90 -25 -90
-14 0 -25 3 -25 6 0 12 21 150 25 162 3 6 9 12 15 12 6 0 10 -35 10 -90z
m-402 68 c-3 -7 -26 -14 -51 -16 -38 -3 -47 0 -47 12 0 13 11 16 51 16 36 0
49 -4 47 -12z m92 2 c-20 -13 -60 -13 -60 0 0 6 17 10 38 10 27 0 33 -3 22
-10z m170 -72 c-4 -75 -7 -83 -25 -83 -18 0 -20 7 -20 82 0 82 0 83 25 83 l25
0 -5 -82z m-400 53 c0 -11 -9 -23 -21 -26 -27 -9 -33 -1 -19 24 14 26 40 27
40 2z m304 -53 c-4 -29 -8 -61 -8 -71 0 -9 -4 -16 -9 -14 -5 1 -9 27 -9 57 0
79 0 80 18 80 13 0 15 -8 8 -52z m-66 17 c2 -9 1 -37 -3 -62 -6 -42 -8 -44
-38 -41 -33 3 -31 -1 -28 92 1 37 63 46 69 11z m-108 -50 l0 -65 -50 0 c-48 0
-50 1 -49 28 3 65 13 87 44 93 56 12 55 13 55 -56z m-136 13 c-1 -13 -3 -35
-3 -50 -1 -26 -4 -28 -43 -28 -53 0 -73 12 -64 36 6 15 9 16 16 4 7 -11 11
-11 24 -1 9 8 16 19 16 27 0 13 27 33 46 34 6 0 10 -10 8 -22z m535 -120 c0
-13 -6 -57 -12 -98 -9 -57 -16 -76 -29 -78 -15 -3 -17 6 -12 85 6 107 8 113
34 113 14 0 20 -6 19 -22z m-554 3 c-16 -15 -88 -18 -93 -3 -2 8 12 12 49 12
32 0 49 -4 44 -9z m415 -8 c0 -10 -5 -53 -12 -95 -10 -66 -14 -78 -31 -78 -17
0 -18 5 -12 63 12 105 19 127 41 127 8 0 14 -8 14 -17z m50 -50 c-3 -87 -9
-123 -22 -123 -7 0 -8 21 -4 63 15 138 28 170 26 60z m-215 30 c-5 -28 -13
-111 -14 -145 -1 -14 -10 -18 -37 -18 l-36 0 6 58 c15 124 16 127 68 131 14 1
16 -5 13 -26z m62 -63 c-1 -64 -6 -90 -15 -90 -9 0 -11 20 -6 82 5 78 9 98 20
98 2 0 3 -40 1 -90z m-167 56 c0 -12 -3 -51 -7 -85 -5 -55 -9 -64 -32 -72 -14
-6 -36 -7 -49 -4 -21 5 -22 9 -16 48 6 38 11 73 13 103 1 8 46 26 84 33 4 0 7
-10 7 -23z m-141 -23 c0 -10 -6 -45 -13 -78 -12 -57 -14 -60 -44 -63 -28 -3
-32 0 -32 20 0 13 -3 46 -6 75 -7 51 -6 51 22 56 63 9 74 7 73 -10z m91 -172
c0 -8 -29 -15 -115 -27 -16 -3 -40 -7 -51 -9 -16 -4 -23 1 -27 17 -6 20 -4 21
66 15 40 -3 81 -1 92 3 27 11 35 12 35 1z"/>
</g>
</svg>
