<?xml version="1.0" standalone="no"?>
<!DOCTYPE svg PUBLIC "-//W3C//DTD SVG 20010904//EN"
 "http://www.w3.org/TR/2001/REC-SVG-20010904/DTD/svg10.dtd">
<svg version="1.0" xmlns="http://www.w3.org/2000/svg"
 width="132.000000pt" height="106.000000pt" viewBox="0 0 132.000000 106.000000"
 preserveAspectRatio="xMidYMid meet">
<metadata>
Created by potrace 1.16, written by Peter Selinger 2001-2019
</metadata>
<g transform="translate(0.000000,106.000000) scale(0.100000,-0.100000)"
fill="#000000" stroke="none">
<path d="M434 949 c-11 -22 -15 -51 -12 -97 l3 -66 -35 -9 c-36 -9 -152 -5
-182 8 -24 10 -63 -31 -47 -51 6 -8 18 -14 27 -14 13 0 15 -27 10 -222 -6
-256 -1 -343 22 -343 12 0 16 27 22 150 12 237 9 223 56 267 23 21 41 42 39
46 -1 4 15 28 36 52 35 41 38 43 51 25 8 -11 12 -25 9 -32 -3 -7 0 -13 6 -13
12 0 7 -158 -9 -250 -5 -30 -12 -110 -14 -178 -7 -146 1 -158 64 -93 22 22 59
54 82 71 41 30 46 31 113 25 38 -3 97 -8 130 -10 124 -10 170 -18 182 -34 12
-14 14 -14 29 4 11 14 13 33 9 65 -8 69 -8 108 -1 190 8 83 31 129 105 211 53
59 47 63 -75 49 -116 -13 -205 -13 -299 1 -68 10 -77 14 -91 41 -19 36 -34 28
-34 -20 l0 -37 -69 3 c-49 3 -68 7 -65 15 7 15 123 110 146 119 9 4 72 8 140
9 208 3 330 21 306 44 -3 3 -106 7 -229 9 -252 3 -297 12 -321 67 -11 25 -19
29 -50 29 -32 0 -40 -5 -54 -31z m65 -50 c13 -17 36 -35 52 -41 26 -9 42 -38
21 -38 -5 0 -26 -16 -48 -35 -21 -19 -41 -35 -44 -35 -3 0 -5 15 -5 33 0 17
-4 58 -8 90 -9 65 -1 71 32 26z m-145 -191 c-14 -24 -95 -128 -100 -128 -2 0
-4 29 -4 64 l0 65 43 4 c23 2 48 4 55 5 8 1 10 -3 6 -10z m347 -48 c5 0 2 -11
-7 -25 -22 -34 -34 -31 -34 6 0 24 3 30 16 25 9 -3 20 -6 25 -6z m-75 -65 c-9
-84 7 -86 70 -7 l46 58 117 -2 c64 -2 122 -3 130 -3 14 -1 13 -59 -4 -186 -7
-54 -7 -153 0 -189 l6 -29 -63 8 c-35 4 -92 9 -128 11 -70 4 -212 19 -272 30
-28 5 -38 11 -38 25 0 10 -7 19 -15 19 -18 0 -19 13 -3 99 6 38 19 74 30 84
10 10 18 24 18 31 0 13 95 116 107 116 3 0 3 -29 -1 -65z m436 35 c-16 -29
-17 -29 -23 -7 -7 28 -3 37 21 37 18 0 18 -1 2 -30z m-544 -28 l-33 -48 -3 40
c-4 42 7 56 46 56 22 0 21 -1 -10 -48z m22 -362 c0 -4 -19 -24 -42 -44 l-43
-36 -3 24 c-5 42 14 66 53 64 19 -1 35 -4 35 -8z"/>
</g>
</svg>
