<?xml version="1.0" standalone="no"?>
<!DOCTYPE svg PUBLIC "-//W3C//DTD SVG 20010904//EN"
 "http://www.w3.org/TR/2001/REC-SVG-20010904/DTD/svg10.dtd">
<svg version="1.0" xmlns="http://www.w3.org/2000/svg"
 width="310.000000pt" height="142.000000pt" viewBox="0 0 310.000000 142.000000"
 preserveAspectRatio="xMidYMid meet">
<metadata>
Created by potrace 1.16, written by Peter Selinger 2001-2019
</metadata>
<g transform="translate(0.000000,142.000000) scale(0.100000,-0.100000)"
fill="#000000" stroke="none">
<path d="M980 1297 c0 -16 32 -47 48 -47 7 0 12 -13 12 -30 l0 -29 -247 4
c-237 5 -344 15 -406 38 -46 16 -58 -5 -59 -104 -1 -46 2 -97 5 -112 9 -44 -1
-57 -42 -57 -21 0 -46 -6 -57 -14 -17 -13 -18 -15 -2 -21 10 -4 24 -31 34 -63
14 -47 16 -103 16 -324 -1 -146 -4 -278 -8 -292 -8 -32 10 -35 41 -6 21 20
110 44 228 60 38 5 72 12 77 15 5 3 19 1 31 -5 16 -9 24 -8 38 4 10 9 33 16
52 16 19 1 64 7 102 14 37 7 67 9 67 4 0 -10 34 -11 43 -1 4 3 24 8 44 10 43
5 53 -7 53 -59 0 -27 4 -38 15 -38 18 0 23 12 28 58 2 17 6 34 8 37 3 2 56 6
119 10 63 3 140 7 170 10 30 3 88 7 129 10 41 3 92 10 115 15 23 5 44 6 48 2
5 -5 11 -37 14 -72 8 -77 18 -100 43 -100 17 0 19 10 23 81 2 64 7 83 21 90
21 12 22 29 3 29 -30 0 -11 203 25 284 7 15 20 23 37 24 15 0 54 8 87 16 32 9
75 16 93 16 l34 0 -6 -87 c-8 -102 -25 -200 -38 -227 -6 -11 -6 -22 -1 -27 15
-15 30 10 36 56 13 104 37 259 42 276 4 10 14 19 24 19 21 0 20 -27 -4 -155
-13 -69 -14 -149 -2 -161 14 -14 27 10 22 40 -4 17 1 72 10 121 10 50 19 105
22 123 5 29 8 32 40 32 35 0 35 -1 28 -32 -10 -49 -34 -312 -28 -318 9 -9 34
35 30 52 -7 23 11 184 26 243 13 47 15 50 46 50 l33 0 -6 -45 c-14 -99 -17
-256 -7 -283 19 -49 30 -20 29 81 0 98 15 220 29 233 4 3 79 9 165 12 l157 5
-14 -22 c-8 -11 -29 -59 -48 -106 -48 -118 -70 -164 -115 -246 -30 -53 -37
-75 -29 -83 20 -20 46 -12 53 17 12 48 70 153 91 165 12 7 54 37 93 67 40 30
107 73 149 95 63 33 76 44 76 64 0 19 -11 31 -44 50 -27 16 -52 41 -64 64 -19
36 -19 40 -3 119 9 45 20 87 25 92 4 6 11 26 15 45 7 37 72 151 87 151 5 0 9
7 9 15 0 21 -30 19 -50 -5 -9 -10 -49 -35 -88 -55 -55 -28 -78 -35 -101 -30
-20 4 -32 2 -38 -8 -4 -7 -16 -16 -25 -20 -22 -8 -23 -34 -2 -39 16 -3 44 -67
44 -103 0 -11 7 -33 15 -49 8 -15 15 -34 15 -40 0 -7 8 -21 18 -32 17 -19 28
-64 14 -64 -56 -2 -178 -14 -242 -22 -3 -1 -12 2 -20 5 -8 4 -38 8 -67 9 l-52
3 41 83 c26 52 54 93 75 109 51 39 44 53 -28 53 -41 0 -65 5 -76 15 -18 19
-108 11 -134 -11 -20 -18 -43 -18 -58 0 -9 11 -31 13 -94 9 -45 -3 -86 -9 -91
-13 -14 -14 4 -31 26 -24 21 6 98 11 98 6 0 -1 -13 -26 -30 -55 -27 -46 -30
-49 -30 -24 0 15 -4 27 -9 27 -11 0 -21 -36 -21 -79 0 -19 -6 -50 -12 -69 -12
-32 -15 -33 -48 -28 -19 3 -68 9 -108 13 -56 5 -72 9 -68 20 3 7 13 42 21 76
29 115 48 162 82 210 19 26 33 53 30 61 -6 14 -58 26 -122 26 -22 0 -47 5 -55
10 -10 6 -23 4 -40 -8 -21 -14 -51 -17 -180 -18 -85 0 -189 -2 -230 -3 -120
-4 -140 -2 -140 12 0 16 42 57 58 57 7 0 12 8 12 19 0 16 -9 18 -92 19 -51 1
-103 -4 -115 -10 -17 -8 -29 -8 -48 0 -34 16 -45 15 -45 -1z m205 -54 c-4 -10
-10 -26 -12 -36 -5 -15 -14 -17 -52 -15 -42 3 -46 6 -49 30 -3 28 7 33 87 37
28 1 32 -2 26 -16z m1691 -87 c-9 -14 -16 -32 -16 -39 0 -16 -39 -117 -50
-130 -4 -4 -16 18 -27 50 -11 32 -24 65 -27 74 -5 12 4 20 41 34 26 10 57 24
67 31 27 18 32 10 12 -20z m-2306 4 c58 -3 98 -7 89 -8 -29 -4 -124 -58 -194
-112 l-70 -53 -6 29 c-4 16 -7 60 -8 98 l-1 69 43 -8 c23 -4 89 -11 147 -15z
m1215 -15 c-2 -11 -7 -50 -10 -87 -4 -38 -10 -68 -13 -68 -4 0 -50 -7 -102
-14 -52 -8 -126 -14 -165 -14 -38 0 -110 -5 -160 -11 -88 -9 -191 -8 -202 2
-3 3 4 34 15 69 11 35 25 81 32 103 l12 40 298 0 c294 0 299 0 295 -20z m119
17 c3 -5 -6 -31 -19 -58 -14 -27 -27 -64 -31 -82 -5 -28 -10 -32 -28 -26 -11
4 -22 7 -23 8 -1 0 3 21 7 46 5 25 9 62 10 83 0 36 1 37 39 37 22 0 42 -4 45
-8z m-754 -12 c0 -14 -51 -164 -58 -172 -4 -4 -8 5 -8 20 -1 15 -4 54 -7 87
-2 33 -2 63 0 68 6 11 73 9 73 -3z m-341 -55 c-4 -27 -11 -71 -14 -97 -6 -45
-8 -48 -36 -48 l-30 0 7 51 c7 53 11 83 13 110 1 12 56 41 68 35 0 -1 -3 -23
-8 -51z m87 28 c-2 -16 -8 -50 -11 -78 -9 -76 -14 -85 -42 -85 -25 0 -25 1
-18 57 4 31 11 68 16 82 6 13 8 30 5 38 -4 9 4 13 25 13 28 0 30 -2 25 -27z
m74 0 c-10 -30 -18 -88 -19 -140 -1 -27 -5 -33 -22 -33 -21 0 -22 3 -15 78 9
107 14 122 42 122 21 0 22 -3 14 -27z m72 -55 c4 -111 2 -118 -35 -118 l-30 0
6 73 c6 83 20 127 41 127 11 0 15 -19 18 -82z m-329 -13 c-3 -88 -14 -105 -64
-105 -40 0 -40 0 -34 33 6 34 13 84 14 105 1 14 35 30 66 31 19 1 21 -4 18
-64z m-118 -27 c-4 -35 -9 -66 -12 -70 -8 -14 -23 -8 -17 6 6 16 -46 29 -60
15 -6 -5 -20 -9 -33 -9 l-22 0 24 26 c21 23 115 94 123 94 2 0 1 -28 -3 -62z
m1776 -7 c-12 -16 -33 -49 -47 -73 -15 -25 -24 -33 -21 -20 3 12 0 22 -5 22
-6 0 -3 9 7 20 11 12 16 29 13 44 -6 28 3 34 45 35 l28 1 -20 -29z m-117 0 c3
-5 -5 -25 -19 -45 -14 -20 -25 -41 -25 -46 0 -5 -5 -12 -11 -16 -7 -4 -9 0 -6
12 3 11 11 38 17 62 10 39 31 55 44 33z m198 -61 c-54 -79 -56 -82 -49 -50 20
93 20 93 1 86 -16 -5 -16 -3 2 12 13 11 37 18 56 18 l34 -1 -44 -65z m-278 -1
c-8 -24 -19 -62 -22 -83 -7 -37 -34 -68 -48 -54 -7 7 23 105 34 110 4 2 15 20
25 42 24 51 31 41 11 -15z m105 4 c-7 -21 -13 -45 -14 -53 -9 -79 -17 -100
-41 -100 -30 0 -30 10 5 93 16 37 27 67 25 67 -2 0 4 8 14 18 24 26 26 20 11
-25z m108 4 c-2 -6 -12 -45 -22 -85 -16 -65 -20 -72 -42 -72 -13 0 -22 3 -20
8 5 9 29 62 53 120 10 23 22 42 27 42 5 0 7 -6 4 -13z m-573 -68 c-19 -69 -21
-75 -29 -68 -9 9 15 123 27 130 20 12 20 6 2 -62z m-58 34 c-2 -10 -7 -37 -11
-60 -6 -41 -7 -42 -58 -52 -81 -16 -451 -51 -534 -51 -53 0 -53 0 -53 31 0 18
5 49 12 70 l11 39 121 0 c110 0 159 4 366 29 36 5 84 9 108 10 37 1 43 -2 38
-16z m-1278 -11 c-7 -9 -21 -23 -30 -30 -10 -7 -18 -17 -18 -23 0 -5 -11 -22
-24 -37 -13 -15 -35 -40 -49 -57 l-25 -30 -7 50 c-3 28 -11 63 -16 79 -15 48
-13 51 40 48 27 -2 57 0 66 6 10 5 31 9 47 10 26 1 28 -1 16 -16z m298 -69
c-2 -32 -5 -70 -5 -85 -1 -24 -5 -28 -30 -28 -31 0 -46 26 -30 51 5 8 9 31 9
51 0 52 9 68 37 68 23 0 24 -2 19 -57z m83 15 c-1 -85 -12 -123 -38 -126 -23
-4 -24 -3 -17 60 10 93 16 108 37 108 16 0 19 -7 18 -42z m87 -10 c-3 -29 -6
-68 -6 -85 0 -28 -4 -33 -24 -33 -31 0 -38 34 -23 112 9 52 13 58 35 58 23 0
24 -2 18 -52z m92 -25 c-3 -75 -4 -77 -31 -84 l-28 -8 2 85 2 84 29 0 29 0 -3
-77z m-353 10 c-10 -98 -12 -103 -43 -103 -48 0 -52 8 -40 88 l12 72 38 0 39
0 -6 -57z m-115 3 c0 -18 -3 -48 -6 -65 -6 -27 -10 -31 -40 -31 -30 0 -34 3
-30 23 3 12 7 39 11 59 6 37 15 46 48 47 13 1 17 -7 17 -33z m-98 -46 c-7 -43
-9 -45 -45 -48 -20 -2 -37 0 -37 4 0 12 84 107 87 98 2 -5 -1 -29 -5 -54z
m1378 -20 c0 -5 -4 -10 -10 -10 -5 0 -10 5 -10 10 0 6 5 10 10 10 6 0 10 -4
10 -10z m-126 -67 c-3 -37 -7 -70 -9 -73 -2 -3 -25 -7 -51 -9 -26 -1 -55 -6
-64 -11 -9 -5 -48 -12 -86 -15 -38 -3 -82 -8 -99 -10 -16 -2 -75 -6 -130 -10
-55 -3 -121 -8 -147 -11 l-48 -5 0 68 c0 37 4 74 8 80 5 9 53 14 147 18 129 5
405 32 414 41 2 2 19 4 38 4 l33 0 -6 -67z m1136 37 c53 -19 57 -28 19 -45
-19 -8 -54 -31 -79 -50 -89 -69 -132 -97 -137 -91 -7 7 43 144 67 184 17 27
21 29 57 22 21 -4 54 -13 73 -20z m-2400 -50 c0 -6 -25 -10 -57 -9 -44 1 -52
3 -33 9 36 12 90 12 90 0z m89 6 c-10 -11 -69 -16 -69 -6 0 5 17 10 37 10 20
0 34 -2 32 -4z m485 -18 c3 -13 6 -44 6 -69 0 -44 -2 -47 -30 -51 -17 -3 -32
-2 -35 0 -7 7 -6 107 1 126 10 25 51 20 58 -6z m-279 -94 c-3 -19 -13 -34 -24
-37 -35 -9 -43 6 -35 71 6 56 8 61 33 64 23 3 26 -1 29 -32 2 -19 1 -48 -3
-66z m85 36 l0 -70 -31 0 -32 0 7 46 c3 26 6 57 6 70 0 19 5 24 25 24 24 0 25
-2 25 -70z m100 5 c0 -45 -4 -65 -12 -65 -7 0 -23 -3 -35 -6 -22 -6 -23 -3
-23 42 0 77 8 94 41 94 29 0 29 0 29 -65z m-274 18 c-3 -21 -6 -50 -6 -65 0
-26 -3 -28 -45 -28 -49 0 -49 -1 -39 73 6 44 8 46 43 50 20 2 40 4 45 5 5 1 6
-15 2 -35z m-217 1 c2 -2 0 -23 -3 -48 -7 -43 -8 -44 -49 -48 -59 -6 -67 -1
-67 43 0 49 27 70 79 62 20 -3 38 -7 40 -9z m101 -16 c0 -66 -9 -78 -52 -78
l-40 0 7 48 c9 61 10 62 51 62 32 0 34 -2 34 -32z m1124 -40 c28 3 35 0 41
-17 3 -12 4 -29 1 -38 -3 -10 -7 -36 -11 -57 -3 -22 -7 -41 -9 -43 -10 -10
-125 -26 -201 -28 -49 -1 -121 -7 -160 -13 -38 -6 -109 -13 -157 -16 l-88 -6
0 75 c0 52 4 77 13 80 6 2 62 6 122 9 196 9 397 37 404 57 2 8 6 9 8 4 2 -6
19 -9 37 -7z m-632 -90 c2 -18 1 -54 0 -80 l-4 -48 -38 0 c-45 0 -50 9 -39 75
4 28 8 55 8 62 1 6 13 14 29 16 15 2 30 5 34 6 4 0 8 -14 10 -31z m-512 1 c0
-10 -68 -24 -77 -15 -3 3 -1 12 5 19 12 14 72 11 72 -4z m396 -17 c-4 -20 -9
-50 -12 -65 -5 -37 -12 -47 -30 -47 -11 0 -14 16 -14 73 l0 72 31 2 c31 2 31
2 25 -35z m-496 9 c0 -13 -10 -20 -31 -25 -57 -11 -69 -8 -69 19 0 23 3 25 50
25 42 0 50 -3 50 -19z m157 13 c-3 -3 -12 -4 -19 -1 -8 3 -5 6 6 6 11 1 17 -2
13 -5z m247 -61 c-5 -63 -13 -77 -40 -71 -15 2 -20 14 -22 57 -3 57 5 71 45
71 20 0 21 -4 17 -57z m-178 -2 c-3 -20 -6 -44 -6 -54 0 -15 -7 -18 -47 -15
l-48 3 -1 48 c-1 41 2 48 20 52 81 17 90 13 82 -34z m86 -1 c-2 -27 -10 -50
-20 -58 -19 -14 -37 -11 -36 6 1 7 2 33 3 58 1 43 2 45 29 42 26 -3 27 -5 24
-48z m-220 -25 c-4 -39 -7 -45 -27 -45 -39 0 -59 76 -22 83 52 10 52 9 49 -38z
m-92 16 c0 -5 -4 -21 -10 -35 -8 -22 -16 -26 -50 -26 -36 0 -40 3 -40 25 0 17
7 26 23 29 82 18 77 18 77 7z m90 -102 c0 -10 -18 -15 -99 -29 -72 -13 -91 -9
-91 19 0 18 7 20 95 19 52 -1 95 -5 95 -9z m90 1 c-36 -11 -52 -11 -45 0 3 6
21 10 38 9 31 -1 31 -1 7 -9z"/>
</g>
</svg>
