<?xml version="1.0" standalone="no"?>
<!DOCTYPE svg PUBLIC "-//W3C//DTD SVG 20010904//EN"
 "http://www.w3.org/TR/2001/REC-SVG-20010904/DTD/svg10.dtd">
<svg version="1.0" xmlns="http://www.w3.org/2000/svg"
 width="172.000000pt" height="115.000000pt" viewBox="0 0 172.000000 115.000000"
 preserveAspectRatio="xMidYMid meet">
<metadata>
Created by potrace 1.16, written by Peter Selinger 2001-2019
</metadata>
<g transform="translate(0.000000,115.000000) scale(0.100000,-0.100000)"
fill="#000000" stroke="none">
<path d="M1422 1079 c-22 -23 -47 -26 -267 -33 -83 -3 -164 -11 -200 -21 -33
-9 -112 -20 -175 -25 -113 -8 -167 -8 -486 5 -137 6 -162 5 -173 -9 -10 -12
-9 -35 4 -120 13 -84 15 -151 11 -344 l-5 -240 31 -6 c17 -3 55 -6 84 -6 33 0
54 -4 54 -11 0 -8 4 -8 14 0 13 11 126 16 281 12 l50 -1 2 -115 c1 -63 4 -115
7 -115 3 0 10 0 15 0 5 0 18 15 29 34 17 29 19 40 10 69 -12 40 -3 123 15 134
7 5 84 8 172 9 151 0 305 13 405 32 68 13 117 4 124 -21 5 -20 6 -20 24 -4 10
9 26 17 35 17 21 0 23 38 2 46 -20 8 -19 45 5 234 33 264 58 370 101 432 32
45 26 51 -43 43 -35 -3 -71 -9 -80 -11 -12 -4 -15 0 -11 16 7 26 -11 26 -35
-1z m92 -121 c-19 -46 -34 -91 -34 -100 0 -26 -27 -22 -31 5 -3 12 -3 52 -1
89 l4 66 36 10 c20 6 42 10 48 11 6 1 -4 -36 -22 -81z m-107 44 c9 -6 11 -29
5 -87 l-7 -79 -37 -4 c-21 -2 -38 0 -38 4 0 5 14 23 32 41 21 22 27 33 17 33
-8 0 -30 -16 -49 -35 -19 -20 -40 -33 -46 -31 -6 2 -29 -1 -49 -9 -21 -7 -50
-9 -64 -6 -25 7 -26 10 -26 87 l0 79 40 5 c68 9 209 10 222 2z m-337 -21 c0
-11 -185 -181 -198 -181 -12 0 -1 50 23 106 22 50 74 83 133 84 23 0 42 -4 42
-9z m-211 -88 c-17 -38 -34 -75 -38 -83 -5 -9 -26 -16 -56 -18 -45 -3 -47 -2
-41 20 3 13 6 49 6 80 0 65 0 65 97 67 l62 1 -30 -67z m-454 45 c3 -3 -24 -8
-59 -12 -35 -3 -80 -13 -100 -21 -45 -19 -43 -20 -44 13 l-1 28 99 -1 c55 -1
102 -4 105 -7z m287 -55 c-5 -82 -16 -105 -45 -101 -24 3 -25 16 -9 98 10 57
18 70 41 70 16 0 18 -7 13 -67z m-152 35 c0 -13 -3 -47 -6 -75 l-7 -53 -38 0
-37 0 4 38 c2 20 9 51 15 69 9 29 16 33 62 42 4 0 7 -9 7 -21z m80 11 c0 -5
-7 -41 -16 -80 -13 -56 -19 -69 -35 -69 -23 0 -25 29 -7 107 11 45 16 53 35
53 13 0 23 -5 23 -11z m452 -111 c-6 -15 -75 -8 -93 8 -17 15 -15 19 34 60
l52 43 5 -52 c3 -29 4 -55 2 -59z m-626 80 c-3 -13 -9 -42 -12 -65 -5 -33 -11
-42 -30 -46 -19 -3 -24 1 -26 22 -5 40 12 88 36 99 32 16 39 14 32 -10z m-91
-85 c-5 -27 -11 -33 -30 -33 -27 0 -29 8 -19 72 5 28 12 38 28 40 24 3 32 -24
21 -79z m-81 20 c-8 -46 -9 -47 -30 -39 -16 6 -15 8 2 21 11 9 14 14 6 15 -10
0 -10 5 -2 20 18 33 32 24 24 -17z m1120 -29 c17 -7 20 -34 10 -108 l-7 -47
-101 3 c-92 3 -101 5 -104 23 -2 13 15 38 50 72 43 42 61 53 93 56 22 2 41 4
42 5 1 1 8 -1 17 -4z m66 -78 c-7 -42 -16 -74 -19 -71 -4 2 -3 32 2 67 11 76
16 93 23 85 3 -3 0 -39 -6 -81z m-375 53 c9 -29 -4 -38 -21 -15 -18 25 -18 36
0 36 8 0 18 -9 21 -21z m135 16 c0 -14 -30 -62 -49 -79 l-21 -19 0 51 0 52 35
0 c19 0 35 -2 35 -5z m-250 -30 c16 -8 41 -26 56 -40 15 -14 31 -25 35 -25 5
0 13 -10 20 -21 9 -18 8 -25 -7 -39 -15 -14 -44 -19 -147 -23 -98 -4 -128 -3
-124 6 2 7 12 37 22 69 11 33 23 54 30 52 6 -3 20 4 30 16 22 24 46 25 85 5z
m-165 -12 c-3 -10 -16 -46 -28 -80 -20 -56 -41 -83 -55 -68 -6 6 -3 146 4 157
3 4 23 8 46 8 34 0 39 -3 33 -17z m-280 -73 l0 -75 -47 -3 c-36 -2 -47 0 -43
10 4 12 12 84 14 131 1 15 8 18 39 15 l37 -3 0 -75z m61 53 c-2 -16 -8 -49
-11 -75 -10 -76 -25 -67 -25 15 0 76 3 87 27 87 10 0 13 -8 9 -27z m90 -40
c-2 -38 -5 -71 -5 -75 -2 -13 -71 -9 -71 4 0 6 5 40 11 75 11 60 12 63 40 63
l29 0 -4 -67z m-324 3 c1 -62 18 -59 18 4 0 49 1 50 30 50 l31 0 -6 -62 c-4
-35 -8 -69 -10 -75 -5 -15 -41 -17 -50 -3 -4 6 -12 4 -21 -5 -9 -8 -25 -15
-36 -15 -19 0 -20 4 -14 46 3 26 6 59 6 75 0 21 5 28 23 31 12 2 23 3 25 2 1
-1 3 -22 4 -48z m-77 -19 c-1 -80 -6 -89 -46 -74 -24 9 -29 16 -24 32 4 11 9
34 12 50 8 49 11 55 35 55 22 0 23 -4 23 -63z m1112 -76 c9 -4 17 -21 19 -37
2 -16 6 -39 9 -51 5 -20 1 -23 -23 -23 -21 0 -42 15 -85 58 -31 33 -53 62 -50
66 10 9 109 -1 130 -13z m-283 -17 c-4 -14 -17 -48 -30 -75 l-24 -49 -55 0
c-30 0 -55 1 -55 3 0 1 26 30 58 63 80 84 118 105 106 58z m79 14 c12 -6 42
-30 66 -53 l44 -42 -67 -7 c-37 -4 -80 -9 -95 -12 l-29 -6 26 66 c14 36 28 66
30 66 2 0 13 -5 25 -12z m-163 -5 c0 -17 -93 -105 -123 -118 -29 -11 -137 -10
-137 2 0 2 7 27 16 54 12 35 23 51 38 54 60 13 206 19 206 8z m-358 -68 c-2
-27 -4 -51 -5 -52 -1 -1 -16 -3 -32 -5 -29 -3 -30 -1 -33 41 -5 62 2 73 40 69
33 -3 33 -3 30 -53z m73 8 c-8 -27 -15 -51 -15 -55 0 -5 -5 -8 -11 -8 -7 0 -8
16 -3 48 8 56 11 62 29 62 12 0 12 -7 0 -47z m-427 26 c27 1 42 -2 42 -10 0
-7 6 -4 14 6 8 11 19 16 30 12 12 -5 16 -20 16 -67 l0 -60 -66 0 c-52 0 -70 4
-80 18 -13 16 -13 16 -14 0 0 -10 -5 -18 -11 -18 -6 0 -8 7 -5 16 5 13 1 15
-20 10 -22 -6 -25 -4 -20 9 3 9 6 35 6 57 l0 41 33 -8 c17 -4 51 -6 75 -6z
m212 -49 c0 -60 0 -60 -29 -60 -16 0 -37 -3 -46 -7 -16 -5 -17 0 -12 48 4 30
7 60 7 67 0 7 15 12 40 12 l40 0 0 -60z m37 -22 c-2 -18 -4 -6 -4 27 0 33 2
48 4 33 2 -15 2 -42 0 -60z m725 -38 c65 -5 122 -11 127 -14 5 -3 6 -20 2 -38
-8 -36 11 -32 -211 -47 -74 -5 -138 -7 -142 -5 -15 9 18 89 42 101 30 15 32
15 182 3z m-624 -36 c2 -17 -2 -42 -7 -57 -10 -25 -14 -27 -72 -27 -54 0 -60
2 -54 18 4 9 9 32 12 50 7 42 25 41 46 -3 17 -35 42 -54 54 -41 4 4 -1 23 -12
42 -16 30 -17 37 -4 45 22 14 34 5 37 -27z m184 24 c-7 -7 -12 -16 -12 -20 0
-13 91 -68 112 -68 10 0 18 -4 18 -9 0 -6 -228 -4 -237 3 -1 1 5 25 13 54 l16
52 51 0 c40 0 48 -3 39 -12z m164 2 c33 0 33 -1 22 -27 -7 -16 -13 -30 -15
-32 -2 -2 -29 9 -60 25 -52 26 -55 29 -32 35 13 4 30 5 37 3 8 -2 29 -4 48 -4z
m-494 -15 c3 -3 1 -26 -5 -50 -10 -42 -13 -45 -42 -45 -40 0 -41 1 -37 49 3
31 9 41 25 44 35 7 53 7 59 2z m-108 -27 c-3 -75 3 -69 -71 -66 l-68 3 -3 37
c-4 41 0 43 87 43 47 0 56 -3 55 -17z m-164 -5 c0 -10 3 -28 7 -41 5 -21 3
-23 -21 -20 -15 2 -26 6 -26 11 0 4 0 21 0 37 0 23 4 30 20 30 12 0 20 -7 20
-17z"/>
<path d="M267 534 c-4 -4 -7 -14 -7 -23 0 -11 3 -12 11 -4 6 6 10 16 7 23 -2
6 -7 8 -11 4z"/>
</g>
</svg>
