<?xml version="1.0" standalone="no"?>
<!DOCTYPE svg PUBLIC "-//W3C//DTD SVG 20010904//EN"
 "http://www.w3.org/TR/2001/REC-SVG-20010904/DTD/svg10.dtd">
<svg version="1.0" xmlns="http://www.w3.org/2000/svg"
 width="157.000000pt" height="135.000000pt" viewBox="0 0 157.000000 135.000000"
 preserveAspectRatio="xMidYMid meet">
<metadata>
Created by potrace 1.16, written by Peter Selinger 2001-2019
</metadata>
<g transform="translate(0.000000,135.000000) scale(0.100000,-0.100000)"
fill="#000000" stroke="none">
<path d="M702 1211 c3 -9 55 -68 132 -148 l40 -43 -59 0 -60 0 -49 60 c-48 60
-132 128 -143 116 -3 -3 21 -33 53 -67 32 -34 65 -67 72 -74 19 -21 14 -27
-15 -21 -16 3 -66 8 -113 11 -47 2 -128 7 -180 10 -52 4 -106 2 -120 -3 -18
-7 -28 -5 -36 5 -9 13 -12 13 -27 -1 -21 -21 -24 -50 -37 -361 -11 -260 -12
-353 -5 -365 4 -6 292 -22 413 -23 17 0 32 -2 32 -3 0 -2 -45 -48 -100 -103
-92 -91 -114 -121 -91 -121 14 0 61 41 61 53 0 16 166 178 174 170 3 -3 40 -5
81 -4 108 3 110 6 -87 -181 -53 -50 -62 -78 -25 -78 14 0 29 10 39 28 9 15 40
52 70 83 29 31 70 78 92 103 l39 47 29 -28 c16 -15 38 -43 50 -60 11 -18 26
-33 34 -33 26 0 14 39 -23 77 l-36 38 59 3 59 3 46 -50 c25 -28 52 -51 59 -51
8 0 -7 21 -33 47 -26 26 -44 50 -40 54 5 4 64 9 133 11 69 2 130 7 136 10 5 4
11 54 12 112 l3 106 -28 11 c-17 7 -66 9 -126 6 -101 -5 -103 -4 -69 36 26 30
-3 19 -33 -13 -29 -30 -31 -31 -122 -29 -51 1 -93 6 -93 11 0 5 13 17 30 26
30 17 41 42 18 42 -7 0 -31 -19 -54 -41 l-42 -41 -18 28 c-27 40 -24 54 21
100 22 22 53 57 68 77 25 33 31 36 50 26 12 -6 32 -24 45 -40 22 -28 52 -39
52 -20 0 4 -9 20 -20 33 -24 31 -18 38 34 38 34 -1 49 -8 91 -46 31 -28 56
-43 67 -40 10 2 21 0 24 -5 3 -5 10 -9 16 -9 7 0 6 6 -2 15 -7 8 -22 15 -34
15 -12 0 -37 15 -55 34 l-32 33 102 -2 c95 -2 103 -3 110 -23 10 -28 12 -27
46 4 23 21 25 28 15 44 -10 17 -5 109 10 181 3 15 0 16 -170 18 -117 1 -117 2
-47 77 39 41 41 44 22 44 -8 0 -38 -27 -68 -59 l-55 -60 -67 3 c-98 4 -102 14
-28 86 34 33 57 60 52 60 -12 0 -90 -64 -122 -101 l-26 -30 -84 89 c-75 78
-127 119 -117 93z m-309 -213 c42 -1 77 -5 77 -8 0 -3 2 -45 5 -95 7 -141 5
-207 -9 -250 -8 -22 -17 -78 -21 -125 -10 -109 -10 -111 -2 -135 7 -19 2 -20
-114 -20 l-121 0 0 65 c-1 82 12 259 22 325 5 28 6 97 4 153 l-4 104 42 -6
c24 -3 78 -6 121 -8z m386 -50 l24 -30 -49 -49 -48 -49 -83 0 -82 0 -5 33 c-3
17 -4 48 -2 67 2 19 4 44 5 55 1 19 5 20 109 11 101 -8 108 -10 131 -38z m58
15 c-16 -16 -18 -16 -34 0 -16 16 -15 17 17 17 32 0 33 -1 17 -17z m118 -93
l-29 -30 -38 37 c-21 20 -38 40 -38 44 0 3 12 19 26 34 l26 28 41 -41 41 -42
-29 -30z m80 80 c-26 -27 -54 -33 -39 -8 4 6 2 8 -3 5 -6 -4 -18 2 -27 12 -16
18 -14 18 41 20 l57 1 -29 -30z m303 22 c9 -6 10 -24 3 -73 -5 -35 -7 -67 -5
-70 6 -10 -38 -16 -136 -18 -66 -2 -90 1 -90 10 0 7 -3 9 -7 5 -8 -8 -73 53
-73 70 0 6 17 28 37 48 l37 36 111 0 c60 0 116 -4 123 -8z m-438 -154 c0 -4
-37 -7 -81 -7 l-82 0 44 45 43 44 38 -37 c21 -20 38 -40 38 -45z m134 31 c36
-28 22 -41 -39 -37 l-47 3 22 28 c26 33 30 33 64 6z m-435 -118 c-36 -33 -51
-53 -44 -59 14 -14 56 4 62 27 3 11 21 32 41 48 33 26 45 29 120 32 45 1 82
-2 82 -7 0 -5 -25 -36 -56 -70 l-56 -62 -30 21 c-20 15 -33 18 -40 11 -7 -7
-3 -14 12 -22 27 -14 91 -82 84 -89 -2 -3 -26 -4 -52 -2 -38 2 -51 8 -70 32
-25 31 -80 65 -90 55 -3 -4 1 -12 9 -19 8 -6 25 -24 38 -39 l23 -27 -63 2
c-72 3 -68 -4 -49 95 9 41 20 68 33 77 12 8 17 20 14 29 -5 13 2 16 40 16 l47
0 -55 -49z m97 -247 l37 -45 -43 -44 c-44 -45 -45 -45 -112 -45 -75 0 -78 2
-80 66 -4 94 -1 102 35 106 117 12 124 10 163 -38z m104 38 c0 -10 -34 -52
-42 -52 -10 0 -47 40 -48 51 0 4 20 6 45 5 25 0 45 -2 45 -4z m232 -7 c-3 -5
-24 -32 -46 -59 l-40 -49 -48 52 c-26 29 -48 56 -48 60 0 4 42 7 94 7 61 -1
92 -4 88 -11z m252 -1 c12 -5 16 -20 16 -61 0 -80 -9 -90 -82 -97 -203 -18
-203 -18 -232 10 -14 15 -26 30 -26 34 0 3 26 35 57 70 l57 63 97 -7 c53 -3
104 -9 113 -12z m-386 -145 c-29 -24 -32 -25 -47 -9 -9 9 -31 33 -50 53 l-35
37 28 29 27 28 54 -56 55 -56 -32 -26z m-115 17 c15 -19 27 -37 27 -39 0 -8
-120 -5 -125 4 -5 7 53 69 65 69 3 0 17 -16 33 -34z m181 -21 c26 -20 16 -27
-30 -23 -36 3 -37 4 -20 21 21 20 25 21 50 2z"/>
</g>
</svg>
