<?xml version="1.0" standalone="no"?>
<!DOCTYPE svg PUBLIC "-//W3C//DTD SVG 20010904//EN"
 "http://www.w3.org/TR/2001/REC-SVG-20010904/DTD/svg10.dtd">
<svg version="1.0" xmlns="http://www.w3.org/2000/svg"
 width="64.000000pt" height="100.000000pt" viewBox="0 0 64.000000 100.000000"
 preserveAspectRatio="xMidYMid meet">
<metadata>
Created by potrace 1.16, written by Peter Selinger 2001-2019
</metadata>
<g transform="translate(0.000000,100.000000) scale(0.100000,-0.100000)"
fill="#000000" stroke="none">
<path d="M201 918 c-4 -13 -11 -45 -15 -73 -4 -27 -9 -61 -11 -75 -12 -76 -34
-404 -35 -519 -1 -107 2 -138 15 -158 28 -42 39 -23 41 68 1 46 6 138 12 204
6 66 14 181 17 255 4 74 10 153 14 175 14 67 7 139 -12 143 -10 2 -20 -6 -26
-20z"/>
<path d="M485 867 c-22 -34 -37 -159 -40 -337 -1 -85 -6 -203 -10 -262 -4 -59
-4 -128 0 -153 5 -40 9 -46 28 -43 18 3 21 10 23 68 1 36 7 77 12 91 10 24 16
198 17 439 0 58 4 131 9 163 7 49 6 57 -8 57 -8 0 -22 -10 -31 -23z"/>
</g>
</svg>
