<?xml version="1.0" standalone="no"?>
<!DOCTYPE svg PUBLIC "-//W3C//DTD SVG 20010904//EN"
 "http://www.w3.org/TR/2001/REC-SVG-20010904/DTD/svg10.dtd">
<svg version="1.0" xmlns="http://www.w3.org/2000/svg"
 width="344.000000pt" height="137.000000pt" viewBox="0 0 344.000000 137.000000"
 preserveAspectRatio="xMidYMid meet">
<metadata>
Created by potrace 1.16, written by Peter Selinger 2001-2019
</metadata>
<g transform="translate(0.000000,137.000000) scale(0.100000,-0.100000)"
fill="#000000" stroke="none">
<path d="M1923 1282 c-21 -26 -45 -46 -53 -44 -8 1 -42 -25 -74 -59 -32 -33
-69 -64 -81 -69 -21 -8 -345 -244 -428 -311 l-38 -31 -108 108 c-161 163 -227
239 -252 291 -12 25 -31 55 -42 66 -18 18 -18 21 -3 29 19 11 22 38 3 38 -7 0
-35 -22 -62 -50 -32 -33 -55 -48 -66 -45 -9 3 -21 0 -27 -7 -14 -18 -21 -113
-12 -171 8 -53 7 -54 -35 -58 -25 -3 -31 0 -33 19 -4 27 -19 29 -27 2 -4 -13
-15 -20 -31 -20 -19 0 -23 4 -20 23 2 16 11 23 37 28 19 3 44 2 56 -2 22 -8
53 14 40 28 -4 3 -110 7 -237 8 -126 1 -232 4 -236 7 -10 11 -94 -23 -94 -38
0 -8 4 -14 9 -14 6 0 3 -12 -5 -27 -7 -16 -14 -45 -14 -66 0 -35 30 -370 34
-374 1 -1 23 -3 49 -5 29 -2 47 -8 47 -15 0 -7 5 -13 10 -13 6 0 10 7 10 15 0
8 9 15 20 15 11 0 20 -5 20 -11 0 -6 9 -9 19 -6 12 3 22 -1 25 -9 8 -21 37
-17 43 6 6 21 37 27 48 10 4 -6 16 -5 34 5 21 10 31 11 39 3 8 -8 16 -7 28 2
25 21 43 20 58 -2 15 -20 16 -20 52 -3 l38 18 -27 23 c-31 27 -38 73 -9 72 9
-1 30 2 45 5 25 7 27 6 18 -10 -5 -10 -10 -88 -10 -173 -1 -130 1 -161 16
-190 11 -21 25 -35 37 -35 20 0 22 2 61 85 33 72 65 116 93 129 21 10 22 8 22
-27 0 -45 13 -67 34 -59 12 5 16 21 16 68 0 47 4 65 18 75 11 9 13 13 4 14
-23 0 -3 18 53 47 31 15 90 53 132 85 42 32 79 58 82 58 4 0 22 -17 42 -37
126 -132 239 -239 332 -316 59 -49 120 -102 135 -118 16 -17 37 -31 47 -33 14
-2 22 -15 28 -44 12 -61 29 -70 76 -39 21 14 51 38 67 52 16 15 55 45 86 66
31 22 61 45 65 53 4 7 53 25 108 40 55 15 125 36 155 46 30 10 75 23 100 30
25 7 52 15 60 20 9 4 29 10 46 14 28 6 35 2 67 -38 57 -69 249 -256 263 -256
7 0 19 -10 25 -23 16 -31 98 -109 108 -102 8 4 14 26 25 93 2 12 18 50 35 84
18 33 42 86 53 117 11 31 24 61 28 66 4 6 25 44 45 85 21 41 49 87 62 102 14
14 23 30 20 35 -9 14 -268 8 -277 -7 -5 -9 -18 -5 -48 14 -22 14 -119 62 -214
107 -266 124 -340 161 -383 190 -22 14 -80 48 -130 74 -49 26 -101 55 -115 65
-46 30 -154 87 -202 105 -27 10 -48 19 -48 20 0 11 55 98 65 101 6 3 56 -39
111 -92 65 -64 139 -123 214 -172 63 -41 117 -78 120 -81 5 -6 80 -53 127 -79
13 -6 31 -12 40 -12 10 0 -7 14 -37 31 -30 18 -83 54 -116 80 -34 27 -64 49
-67 49 -8 0 -130 83 -161 110 -37 31 -63 58 -143 143 -37 39 -71 67 -83 67
-11 0 -35 -19 -57 -48z m-1078 -102 c4 -14 16 -36 26 -49 29 -37 22 -43 -18
-17 -21 13 -60 27 -86 31 l-49 7 40 29 c22 16 43 37 46 46 6 15 8 15 20 -3 7
-10 17 -30 21 -44z m1226 -101 c35 -18 71 -38 79 -45 8 -6 53 -31 100 -55 47
-23 109 -58 138 -76 54 -34 250 -133 263 -133 13 0 304 -143 328 -161 l23 -19
-23 -9 c-13 -5 -51 -14 -84 -20 -79 -16 -190 -46 -295 -81 -213 -70 -365 -112
-485 -134 -44 -9 -116 -27 -159 -41 -43 -14 -89 -25 -102 -25 -17 0 -25 -7
-30 -25 -3 -14 -9 -25 -12 -25 -4 0 -27 22 -52 49 -25 26 -88 84 -140 127 -52
43 -102 86 -110 95 -9 8 -25 22 -36 30 -29 21 -194 205 -194 216 0 13 144 126
235 184 39 25 76 53 84 62 7 9 19 17 25 17 6 0 35 17 63 38 113 81 139 97 168
102 34 7 118 -21 216 -71z m-1223 6 c73 -35 124 -78 302 -257 l77 -77 -69 -46
c-42 -28 -66 -50 -62 -57 4 -7 3 -8 -4 -4 -7 4 -38 -11 -71 -34 -33 -22 -61
-40 -63 -40 -2 0 -3 56 -3 125 1 69 -2 128 -5 130 -4 3 -14 -3 -21 -12 -10
-11 -16 -57 -19 -147 l-5 -131 -70 -47 c-38 -25 -74 -56 -79 -67 -5 -12 -15
-21 -22 -21 -14 0 -23 136 -13 209 3 24 6 148 5 277 l-1 234 25 0 c14 0 58
-16 98 -35z m-622 -69 c1 0 5 -16 9 -33 6 -32 6 -33 -30 -33 -31 0 -37 4 -46
30 -6 17 -15 30 -21 30 -5 0 -6 5 -3 11 6 8 83 4 91 -5z m121 -4 c8 -5 10 -17
5 -33 -6 -23 -12 -26 -52 -25 -43 1 -45 2 -47 34 -3 31 -2 32 40 32 23 0 47
-4 54 -8z m77 -19 c-9 -39 -12 -42 -32 -39 -23 4 -27 30 -7 50 27 26 46 21 39
-11z m86 7 c0 -24 -15 -40 -36 -40 -27 0 -27 0 -15 34 8 18 15 23 30 19 12 -3
21 -9 21 -13z m-13 -107 c-2 -31 -7 -39 -25 -41 -19 -3 -22 1 -22 32 0 33 6
39 43 45 4 0 6 -16 4 -36z m83 2 c0 -31 -3 -35 -25 -35 -22 0 -25 4 -25 35 0
31 3 35 25 35 22 0 25 -4 25 -35z m99 19 c2 -2 6 -35 8 -73 3 -64 2 -69 -19
-75 -49 -13 -58 -8 -58 29 0 33 2 36 27 33 19 -2 28 2 31 15 3 13 -3 17 -27
17 -29 0 -31 3 -31 35 0 34 1 34 33 28 17 -3 34 -7 36 -9z m-258 -26 c-6 -28
-11 -33 -36 -33 -24 0 -29 4 -27 20 6 38 12 45 40 45 28 0 29 -2 23 -32z
m-101 -8 c0 -28 -3 -30 -35 -30 -24 0 -35 5 -35 14 0 32 13 46 41 46 26 0 29
-4 29 -30z m-80 -5 c0 -22 -4 -25 -35 -25 -39 0 -48 21 -17 39 31 19 52 13 52
-14z m170 -91 c0 -31 -3 -34 -30 -34 -27 0 -30 3 -30 34 0 35 12 46 43 38 12
-3 17 -14 17 -38z m76 -10 c-5 -18 -13 -24 -32 -24 -20 0 -25 4 -20 16 3 9 6
24 6 34 0 12 8 20 23 22 25 3 32 -11 23 -48z m91 24 c-2 -28 -7 -34 -30 -36
-24 -3 -27 0 -27 27 0 29 2 30 52 40 4 0 7 -14 5 -31z m-257 -13 c0 -33 -2
-35 -35 -35 -33 0 -35 2 -35 35 0 33 2 35 35 35 33 0 35 -2 35 -35z m-90 -5
c0 -27 -3 -30 -30 -30 -25 0 -30 4 -30 24 0 25 11 34 43 35 12 1 17 -7 17 -29z
m460 -69 c0 -38 0 -39 -39 -39 -31 -1 -40 3 -44 20 -9 31 1 44 35 46 18 2 34
5 37 7 9 10 11 4 11 -34z m-208 2 c8 -29 -2 -43 -28 -43 -19 0 -24 5 -24 24 0
22 8 29 41 35 4 0 9 -7 11 -16z m91 -9 c5 -27 -9 -38 -39 -32 -10 2 -18 14
-20 31 -2 24 1 27 26 27 22 0 29 -5 33 -26z m-247 -9 c4 -26 -8 -32 -51 -27
-30 4 -34 8 -33 29 2 21 6 24 42 21 30 -2 40 -8 42 -23z m74 0 c0 -20 -5 -25
-25 -25 -18 0 -25 5 -25 18 0 24 8 32 32 32 13 0 18 -7 18 -25z m-170 -5 c0
-15 -7 -20 -25 -20 -24 0 -34 18 -18 33 15 15 43 7 43 -13z m244 -82 c-9 -64
-18 -67 -27 -9 -7 39 -2 51 18 51 11 0 13 -10 9 -42z m104 8 c1 -27 -3 -36
-20 -42 -23 -7 -48 17 -48 46 0 23 9 30 40 30 24 0 27 -4 28 -34z m-354 -3
c-1 -16 -3 -34 -3 -40 -1 -7 -13 -13 -27 -13 -22 0 -24 2 -14 15 7 8 9 22 6
31 -8 21 1 34 22 34 13 0 17 -7 16 -27z m62 -8 c5 -42 -2 -54 -25 -48 -16 4
-21 13 -21 37 0 18 3 36 7 40 15 15 36 0 39 -29z m40 19 c-3 -9 -6 -27 -6 -40
0 -13 -4 -24 -10 -24 -5 0 -10 18 -10 40 0 30 4 40 16 40 11 0 14 -5 10 -16z
m78 -6 c11 -42 7 -58 -14 -58 -22 0 -45 43 -36 67 9 22 43 15 50 -9z m2855
-34 c2 -2 -6 -27 -17 -55 -12 -28 -19 -56 -15 -62 3 -6 1 -7 -5 -3 -12 7 -38
-40 -77 -139 -28 -74 -79 -163 -71 -123 6 25 24 267 28 357 l1 43 76 -7 c42
-4 78 -9 80 -11z m-197 -31 c11 -14 -6 -288 -26 -392 l-12 -65 -36 45 c-35 42
-74 126 -84 179 -2 14 -8 36 -13 50 -5 14 -15 54 -22 88 -13 69 -8 81 36 83
11 0 36 7 55 14 42 16 87 15 102 -2z m-231 -148 c11 -61 30 -125 41 -144 12
-21 -25 10 -100 85 -65 65 -116 122 -113 126 6 6 144 47 148 44 1 -1 12 -51
24 -111z m-2073 -60 c-18 -36 -24 -42 -29 -28 -11 32 8 61 48 72 2 1 -7 -19
-19 -44z m1267 -72 c-22 -14 -58 -41 -79 -60 -22 -18 -46 -33 -53 -33 -13 0
-38 48 -29 57 5 6 178 62 191 63 5 0 -8 -12 -30 -27z"/>
<path d="M1669 998 c-1 -1 -2 -19 -3 -38 -2 -31 -53 -136 -89 -181 -11 -14
-79 -47 -164 -79 -18 -7 -33 -19 -33 -27 0 -9 6 -13 14 -10 9 4 47 -26 99 -76
46 -45 96 -91 112 -102 15 -11 42 -32 60 -47 18 -16 38 -28 44 -28 6 0 20 -5
30 -12 15 -9 24 -7 48 10 71 51 273 142 344 156 41 8 117 25 169 36 52 12 119
27 148 32 33 6 52 15 52 24 0 16 -50 12 -185 -17 -176 -37 -281 -52 -370 -53
-123 -1 -195 5 -195 18 0 6 -4 17 -9 25 -14 22 -44 -6 -37 -33 3 -12 8 -46 11
-76 4 -30 9 -58 11 -62 12 -18 -14 -6 -36 17 -13 14 -29 25 -35 25 -11 0 -38
99 -50 183 -7 53 21 102 95 168 35 30 66 55 71 57 5 2 6 -35 4 -82 -7 -103 4
-114 62 -68 75 60 220 106 363 117 113 8 159 15 165 26 4 5 -34 10 -92 11
-179 4 -434 18 -446 25 -4 2 -5 8 -2 13 9 14 -44 37 -102 45 -29 4 -53 5 -54
3z m70 -62 c0 -6 -18 -25 -38 -43 l-38 -32 24 49 c16 34 28 48 38 44 8 -4 15
-11 14 -18z m219 -43 l83 -6 -85 -27 c-47 -15 -97 -37 -113 -50 l-28 -22 -3
42 c-6 76 -7 75 146 63z m-389 -235 c1 -20 6 -49 11 -64 6 -15 9 -28 7 -30 -2
-2 -26 16 -53 41 -27 25 -52 45 -56 45 -23 0 -2 32 35 52 48 27 55 22 56 -44z
m331 -113 c41 -7 67 -13 57 -14 -22 -1 -102 -39 -146 -68 -19 -13 -38 -20 -42
-16 -4 5 -9 32 -11 61 l-3 52 35 -1 c19 0 69 -6 110 -14z"/>
</g>
</svg>
