<?xml version="1.0" standalone="no"?>
<!DOCTYPE svg PUBLIC "-//W3C//DTD SVG 20010904//EN"
 "http://www.w3.org/TR/2001/REC-SVG-20010904/DTD/svg10.dtd">
<svg version="1.0" xmlns="http://www.w3.org/2000/svg"
 width="242.000000pt" height="108.000000pt" viewBox="0 0 242.000000 108.000000"
 preserveAspectRatio="xMidYMid meet">
<metadata>
Created by potrace 1.16, written by Peter Selinger 2001-2019
</metadata>
<g transform="translate(0.000000,108.000000) scale(0.100000,-0.100000)"
fill="#000000" stroke="none">
<path d="M2131 914 c-70 -16 -542 -19 -1191 -8 -605 11 -705 10 -724 -5 -7 -6
-21 -9 -30 -5 -12 5 -16 0 -16 -20 0 -19 4 -24 16 -19 13 5 15 2 10 -13 -3
-10 -8 -80 -10 -154 -6 -154 -13 -243 -26 -315 -5 -27 -12 -86 -16 -130 -6
-79 -6 -81 18 -92 45 -21 57 -2 51 80 -3 39 0 128 7 197 14 145 15 158 25 305
l7 110 526 2 c290 1 703 5 917 10 453 9 516 8 527 -9 11 -18 2 -608 -10 -620
-17 -17 -228 -36 -417 -37 -202 -1 -394 -8 -485 -17 -30 -3 -62 -5 -70 -4 -8
1 -103 4 -210 5 -347 6 -579 13 -590 20 -6 3 -7 12 -3 18 9 14 42 260 36 267
-2 2 -11 0 -21 -6 -16 -10 -29 -72 -47 -226 l-6 -58 -62 0 c-67 0 -112 -17
-112 -40 0 -11 9 -14 30 -11 34 4 68 5 108 2 27 -1 27 -2 27 -71 0 -63 2 -70
20 -70 17 0 19 8 22 68 l3 67 105 5 c58 3 146 2 195 -3 86 -7 460 -3 725 8 69
3 230 8 359 11 129 3 237 7 240 9 4 2 49 6 101 10 55 4 101 13 109 20 9 9 14
45 17 111 2 55 5 128 8 164 3 36 8 136 12 223 4 87 11 160 15 163 15 9 10 33
-11 54 -24 24 -86 25 -179 4z"/>
<path d="M1635 814 c-33 -7 -89 -16 -125 -19 -36 -3 -94 -10 -130 -15 -36 -5
-223 -9 -416 -9 -335 -1 -384 -3 -384 -21 0 -16 97 -21 249 -15 225 11 309 10
298 -1 -3 -4 -2 -14 3 -23 5 -10 5 -23 0 -32 -8 -11 -41 -14 -182 -12 -95 1
-213 6 -262 12 -50 6 -92 8 -94 6 -3 -2 1 -11 7 -19 14 -17 53 -19 354 -20
159 -1 187 -3 188 -16 0 -8 2 -25 5 -37 4 -23 2 -23 -104 -24 -255 -3 -363 -9
-383 -20 -17 -9 -19 -13 -8 -20 7 -4 18 -4 24 0 5 5 112 9 236 10 l226 2 7
-26 c4 -15 4 -30 1 -34 -4 -3 -120 -7 -258 -9 -139 -1 -259 -5 -267 -8 -13 -4
-13 -6 0 -15 9 -6 113 -7 270 -4 l255 5 -1 -45 c0 -25 -3 -47 -5 -49 -3 -3
-106 -6 -229 -7 -252 -2 -303 -6 -297 -23 2 -6 13 -10 23 -8 10 1 128 5 262 8
l242 7 0 -40 c0 -38 19 -70 33 -56 4 3 7 21 7 39 0 56 7 64 60 64 54 0 64 -13
58 -72 -2 -19 2 -33 10 -35 12 -5 14 3 14 65 0 27 6 35 26 43 14 6 37 9 51 7
22 -3 26 -8 26 -38 0 -49 19 -49 23 0 3 32 8 41 27 46 44 11 70 1 75 -30 3
-16 11 -31 18 -34 9 -3 11 6 6 37 l-7 41 42 0 41 0 -4 -52 c-2 -29 -2 -43 1
-30 2 12 9 22 14 22 5 0 9 13 9 29 0 30 18 41 54 33 16 -3 18 -10 12 -57 -4
-39 -2 -56 8 -64 21 -18 35 14 38 83 1 31 5 56 8 56 3 0 5 12 6 28 1 39 15
160 24 212 16 90 21 105 39 130 10 14 22 36 26 49 7 23 6 24 -36 16 -59 -10
-88 -11 -124 -4 -16 4 -57 1 -90 -7z m-14 -54 c6 0 5 -8 -1 -20 -14 -26 -50
-27 -50 -2 0 24 10 34 28 27 7 -3 18 -5 23 -5z m94 -10 c0 -8 -8 -16 -17 -18
-13 -2 -18 3 -18 18 0 15 5 20 18 18 9 -2 17 -10 17 -18z m95 13 c0 -5 -5 -15
-10 -23 -8 -12 -10 -11 -10 8 0 12 5 22 10 22 6 0 10 -3 10 -7z m-310 -32 c0
-25 -5 -30 -36 -36 -45 -8 -50 -3 -34 35 10 24 19 30 41 30 25 0 29 -4 29 -29z
m-100 13 c0 -11 -23 -49 -34 -56 -23 -16 -44 -7 -54 21 -8 22 -7 31 1 35 17 6
87 7 87 0z m-170 -8 c0 -24 -23 -56 -40 -56 -11 0 -20 3 -20 8 0 4 -3 17 -6
30 -6 20 -3 22 30 22 20 0 36 -2 36 -4z m430 0 c0 -3 -4 -8 -10 -11 -5 -3 -10
-1 -10 4 0 6 5 11 10 11 6 0 10 -2 10 -4z m-382 -34 c3 -17 -2 -22 -17 -22
-20 0 -21 6 -12 48 3 13 27 -9 29 -26z m377 -53 c0 -42 -1 -44 -32 -47 l-33
-3 15 41 c19 54 24 62 38 57 7 -2 12 -23 12 -48z m37 21 c-2 -16 -6 -30 -8
-30 -2 0 -4 14 -4 30 0 17 4 30 8 30 5 0 7 -13 4 -30z m-132 -25 c0 -40 -3
-45 -22 -46 -49 -3 -64 3 -53 21 6 9 9 9 15 0 5 -8 10 0 15 21 7 32 20 48 38
49 4 0 7 -20 7 -45z m34 30 c-4 -8 -8 -15 -10 -15 -2 0 -4 7 -4 15 0 8 4 15
10 15 5 0 7 -7 4 -15z m156 -19 c0 -37 -9 -49 -26 -38 -13 8 2 72 16 72 6 0
10 -15 10 -34z m-270 -2 c-29 -74 -46 -83 -52 -24 -3 33 0 40 17 43 44 9 45 8
35 -19z m-126 -28 c-22 -45 -29 -45 -32 -2 -2 29 1 35 20 38 31 5 31 5 12 -36z
m-66 -8 c3 -32 0 -38 -17 -38 -10 0 -26 -3 -35 -6 -19 -7 -21 20 -6 61 7 20
16 26 33 23 18 -2 23 -10 25 -40z m-83 21 c-4 -6 -11 -23 -15 -37 -8 -25 -8
-24 -9 11 -1 27 3 37 15 37 8 0 12 -5 9 -11z m545 -89 c0 -22 -5 -30 -17 -31
-10 0 -26 -2 -35 -4 -21 -4 -21 -6 -7 34 8 23 17 31 35 31 20 0 24 -5 24 -30z
m-204 -12 c-2 -33 -2 -33 -58 -35 l-56 -1 16 28 c9 16 20 27 23 24 4 -2 18 0
31 5 39 16 46 13 44 -21z m102 5 c-3 -24 -8 -29 -37 -31 -28 -3 -33 -1 -27 13
3 9 6 23 6 31 0 9 11 14 31 14 27 0 30 -3 27 -27z m-245 -12 c3 -14 3 -29 0
-33 -4 -8 -73 -12 -73 -4 0 1 5 17 11 33 14 41 55 43 62 4z m-103 -10 c0 -32
-7 -36 -67 -40 -41 -2 -43 -1 -43 27 0 38 5 42 62 42 46 0 48 -1 48 -29z m438
-81 c4 -37 -8 -49 -43 -42 -21 4 -23 8 -19 36 10 54 11 56 36 47 16 -6 24 -18
26 -41z m-190 -5 l-2 -45 -47 0 c-50 0 -59 9 -59 55 0 24 2 25 82 33 27 2 28
1 26 -43z m102 6 c0 -38 -1 -39 -41 -43 l-40 -4 2 36 c4 48 5 50 45 50 33 0
34 -1 34 -39z m-231 -16 c2 -44 1 -45 -29 -46 -16 -1 -35 -2 -42 -3 -14 -1
-29 57 -19 72 5 9 18 12 77 21 6 0 11 -19 13 -44z m-123 -12 l2 -41 -50 -7
c-27 -4 -51 -5 -53 -4 -1 2 -5 23 -8 46 -5 47 1 51 67 49 39 -2 40 -2 42 -43z"/>
</g>
</svg>
