<?xml version="1.0" standalone="no"?>
<!DOCTYPE svg PUBLIC "-//W3C//DTD SVG 20010904//EN"
 "http://www.w3.org/TR/2001/REC-SVG-20010904/DTD/svg10.dtd">
<svg version="1.0" xmlns="http://www.w3.org/2000/svg"
 width="182.000000pt" height="116.000000pt" viewBox="0 0 182.000000 116.000000"
 preserveAspectRatio="xMidYMid meet">
<metadata>
Created by potrace 1.16, written by Peter Selinger 2001-2019
</metadata>
<g transform="translate(0.000000,116.000000) scale(0.100000,-0.100000)"
fill="#000000" stroke="none">
<path d="M388 1054 c-24 -25 -31 -26 -118 -25 -86 2 -120 -7 -120 -30 0 -4 10
-9 23 -11 l22 -3 -1 -225 c0 -124 -1 -262 -3 -308 -1 -45 3 -99 10 -119 9 -28
9 -48 -1 -91 -10 -45 -10 -57 2 -69 12 -12 18 -11 39 5 29 22 112 67 154 83
17 6 77 10 135 10 110 -1 144 -5 198 -22 18 -6 39 -8 46 -6 9 4 17 -3 20 -16
6 -21 8 -20 37 13 19 22 39 36 57 37 15 1 136 5 269 8 219 7 243 6 249 -9 8
-20 33 -21 40 -1 4 9 13 13 23 10 9 -3 26 1 37 9 18 14 18 15 -11 21 -53 12
-55 14 -55 47 0 18 7 91 14 163 13 120 32 188 68 250 6 11 26 49 44 85 17 36
41 74 53 84 12 11 21 25 21 32 0 20 -58 34 -142 34 -71 0 -80 -2 -85 -20 -4
-14 -12 -18 -32 -15 -14 2 -161 7 -326 10 -325 5 -475 21 -550 56 -25 12 -48
25 -51 30 -10 17 -39 9 -66 -17z m131 -94 c0 -3 -25 -17 -55 -33 l-54 -27 6
47 c3 26 7 50 10 54 4 8 94 -32 93 -41z m-199 24 c0 -16 -54 -94 -61 -87 -6 7
-13 63 -10 86 1 8 71 10 71 1z m48 -76 c-4 -87 2 -89 84 -34 91 60 118 66 282
59 l146 -6 -38 -28 c-20 -15 -58 -44 -85 -63 -26 -20 -51 -36 -56 -36 -5 0
-13 -13 -19 -28 l-9 -28 -124 13 c-68 7 -159 14 -201 15 -74 3 -78 4 -87 30
-8 22 -6 27 10 31 10 3 24 18 30 34 10 28 61 113 67 113 2 0 2 -33 0 -72z
m1202 46 c0 -7 -110 -227 -117 -234 -3 -3 -2 29 2 70 4 41 8 96 8 122 l2 48
53 0 c28 0 52 -3 52 -6z m-189 -23 c18 -1 28 -8 32 -20 6 -23 -16 -157 -27
-168 -4 -5 -99 -9 -210 -11 l-203 -3 -6 41 c-5 39 -2 82 9 137 4 20 11 22 82
25 64 3 213 2 323 -1z m-474 -168 c-2 -1 -19 8 -38 21 -19 13 -43 25 -54 28
-16 3 -11 10 30 40 l50 37 7 -62 c4 -33 6 -62 5 -64z m-103 -2 c46 -18 34 -26
-36 -23 -69 4 -69 4 -52 23 18 20 33 20 88 0z m-469 -31 c-3 -5 -17 -10 -30
-10 -13 0 -27 5 -30 10 -4 6 8 10 30 10 22 0 34 -4 30 -10z m215 -14 c52 -3
149 -9 215 -12 89 -5 126 -11 145 -24 102 -70 201 -75 119 -6 l-31 26 124 1
c68 1 151 2 185 4 33 1 66 -1 72 -4 14 -9 17 -129 4 -142 -7 -7 -118 -12 -298
-15 -227 -3 -306 0 -374 12 -47 8 -134 14 -194 13 -59 -1 -111 1 -114 5 -4 3
-33 6 -65 6 -50 0 -58 -3 -58 -19 0 -14 10 -20 42 -25 38 -6 40 -8 22 -20 -29
-20 -105 -31 -100 -14 3 7 7 45 9 85 5 73 12 97 27 88 9 -6 131 32 144 45 4 4
14 7 20 5 6 -2 54 -6 106 -9z m162 -211 c50 -11 99 -14 131 -11 l52 7 -90 -46
c-49 -26 -114 -51 -143 -57 -57 -12 -73 -29 -53 -59 11 -18 5 -19 -126 -19
-76 0 -155 5 -175 11 -35 9 -38 13 -38 44 0 24 -5 35 -15 35 -8 0 -15 4 -15 9
0 5 -2 15 -5 23 -3 9 13 19 52 31 32 10 74 26 93 35 45 22 218 20 332 -3z
m673 -90 l0 -95 -180 0 c-99 0 -212 -3 -251 -6 -39 -4 -74 -2 -77 2 -3 5 4 27
15 49 11 22 29 56 39 76 33 65 29 64 279 67 l175 2 0 -95z m-485 50 c0 -3 -19
-37 -42 -75 -39 -66 -43 -70 -78 -70 -27 0 -43 7 -63 28 l-27 29 87 38 c49 21
92 42 98 47 10 9 25 11 25 3z m-585 -185 c17 -7 14 -10 -25 -28 -25 -11 -47
-18 -49 -16 -2 2 -1 15 3 29 7 26 31 32 71 15z"/>
</g>
</svg>
