<?xml version="1.0" standalone="no"?>
<!DOCTYPE svg PUBLIC "-//W3C//DTD SVG 20010904//EN"
 "http://www.w3.org/TR/2001/REC-SVG-20010904/DTD/svg10.dtd">
<svg version="1.0" xmlns="http://www.w3.org/2000/svg"
 width="206.000000pt" height="135.000000pt" viewBox="0 0 206.000000 135.000000"
 preserveAspectRatio="xMidYMid meet">
<metadata>
Created by potrace 1.16, written by Peter Selinger 2001-2019
</metadata>
<g transform="translate(0.000000,135.000000) scale(0.100000,-0.100000)"
fill="#000000" stroke="none">
<path d="M662 1265 c-11 -14 -23 -44 -27 -66 -9 -53 -33 -62 -149 -53 -81 6
-93 4 -108 -12 -23 -26 -34 -102 -32 -209 1 -49 5 -183 8 -297 5 -236 5 -237
-63 -166 -31 32 -38 45 -30 55 9 10 8 13 -4 13 -54 0 -75 -55 -52 -140 25 -93
29 -187 11 -258 -9 -35 -16 -70 -16 -78 0 -17 30 -19 30 -1 1 18 38 56 110
112 91 71 110 82 208 119 73 28 105 35 201 40 63 3 144 9 181 12 47 5 69 3 74
-5 6 -9 11 -9 22 0 24 19 251 53 437 64 94 6 111 4 127 -10 15 -14 27 -15 56
-8 42 9 58 33 24 33 -21 0 -21 3 -15 53 4 28 12 57 19 62 6 6 19 42 28 80 22
93 44 172 60 215 22 58 85 165 133 223 25 31 45 60 45 66 0 15 -214 6 -310
-12 -140 -28 -503 -18 -733 18 -126 21 -173 50 -183 117 -9 54 -27 65 -52 33z
m28 -100 c0 -7 21 -27 46 -44 l47 -31 -47 -20 c-70 -30 -79 -27 -72 18 4 20 7
52 6 70 0 20 4 31 10 27 5 -3 10 -12 10 -20z m-110 -80 c0 -3 -37 -87 -69
-160 -10 -22 -29 -64 -42 -92 -12 -29 -26 -53 -31 -53 -4 0 -9 -12 -9 -27 -3
-41 -27 192 -28 264 -1 51 2 62 17 66 19 5 162 7 162 2z m1310 -3 c0 -4 -27
-43 -60 -87 -33 -44 -74 -106 -92 -138 -52 -91 -53 -92 -51 -50 1 21 2 57 2
80 1 40 3 42 34 45 37 3 39 22 3 26 -26 3 -36 25 -36 80 0 31 2 33 28 31 15
-2 35 2 45 7 20 12 127 16 127 6z m-1004 -23 c4 -6 19 -8 38 -5 17 4 40 8 51
10 11 2 45 0 75 -5 99 -16 554 -10 582 7 4 3 8 -15 8 -40 0 -25 0 -49 1 -53 0
-4 -4 -9 -10 -11 -6 -2 -11 3 -11 12 0 20 -2 20 -42 -4 -28 -16 -61 -20 -213
-26 -280 -11 -340 -11 -358 4 -11 9 -21 11 -32 4 -20 -10 -116 -4 -129 9 -6 5
-18 9 -28 9 -13 0 -18 8 -18 31 0 38 -24 35 -28 -4 -3 -25 -7 -27 -45 -27
l-42 0 25 21 c27 22 137 77 157 78 6 1 15 -4 19 -10z m-325 -126 c-12 -20 -14
-14 -5 12 4 9 9 14 11 11 3 -2 0 -13 -6 -23z m199 -23 c0 -11 -9 -25 -20 -32
-11 -7 -20 -18 -20 -25 0 -6 -12 -22 -27 -35 -39 -34 -67 -84 -51 -94 7 -4 17
1 26 14 10 15 25 22 45 22 l30 0 -8 -47 c-15 -87 -21 -255 -10 -273 15 -25 29
0 32 56 4 82 6 90 33 119 18 19 33 25 67 25 32 0 42 -3 37 -12 -4 -6 -9 -50
-12 -96 -3 -83 -3 -84 20 -80 20 3 23 8 20 41 -3 28 0 37 12 37 8 0 34 25 57
55 24 30 44 53 46 51 2 -1 0 -24 -3 -49 -5 -37 -11 -47 -26 -47 -32 0 -46 -68
-27 -139 7 -27 -51 -32 -351 -31 -56 0 -166 14 -209 26 -10 3 -12 24 -8 102 4
53 11 115 17 137 14 49 174 290 178 269 4 -19 -25 -237 -43 -324 -17 -82 -26
-188 -15 -195 15 -9 29 21 34 78 3 32 10 83 15 115 17 98 30 194 37 267 4 39
8 73 11 78 2 4 29 7 59 7 47 0 54 -2 54 -20z m128 3 c23 -5 21 -8 -29 -59 -29
-30 -57 -54 -61 -54 -4 0 -5 21 -1 48 9 64 33 81 91 65z m742 -48 c-8 -53 -11
-58 -35 -49 -21 8 -14 57 11 86 24 26 32 14 24 -37z m-460 34 c69 0 176 3 239
5 l115 5 -50 -50 -49 -51 -150 7 c-187 8 -315 20 -337 29 -13 6 -20 2 -28 -16
-10 -21 -50 -37 -50 -20 0 3 21 28 47 54 46 47 49 48 93 43 25 -3 101 -6 170
-6z m370 -24 c0 -10 -24 -55 -29 -55 -3 0 -17 -3 -31 -7 -24 -5 -23 -4 9 31
31 32 51 45 51 31z m-787 -47 c-3 -16 -12 -28 -19 -28 -18 0 -18 5 2 36 20 30
24 28 17 -8z m397 -49 c47 0 112 -3 145 -7 l60 -8 -33 -17 c-18 -10 -46 -32
-62 -48 -28 -30 -31 -31 -92 -24 -35 4 -69 12 -76 18 -9 7 -20 6 -38 -2 -14
-6 -34 -11 -46 -11 -18 0 -17 3 11 32 17 17 29 34 26 36 -3 3 -17 -7 -32 -22
-15 -16 -40 -34 -54 -42 -27 -14 -27 -13 -34 28 -7 37 -4 44 16 61 20 16 33
18 74 12 27 -4 88 -7 135 -6z m462 -101 c-2 -57 -7 -124 -10 -150 l-7 -47 -60
57 c-34 31 -76 69 -95 84 -26 20 -32 30 -23 39 15 15 47 -3 70 -41 9 -17 26
-30 36 -30 16 0 19 5 13 31 -3 18 1 55 10 88 21 71 21 71 47 71 22 0 23 -2 19
-102z m-752 82 c0 -16 -82 -130 -94 -130 -11 0 -6 50 9 85 13 32 40 53 73 54
6 1 12 -3 12 -9z m634 -27 c-4 -21 -8 -40 -10 -42 -8 -9 -133 -3 -150 7 -29
16 66 72 123 72 l44 0 -7 -37z m-616 -54 c-36 -29 -41 -22 -16 21 21 35 24 37
30 19 6 -15 2 -26 -14 -40z m114 -56 c-11 -16 -31 -39 -44 -53 l-23 -25 -3 22
c-4 30 27 71 58 76 14 2 26 5 28 6 2 0 -6 -11 -16 -26z m151 18 l28 -6 -46
-39 c-25 -21 -48 -36 -50 -35 -5 6 -8 31 -6 62 1 29 14 32 74 18z m218 -13 c6
-13 28 -38 48 -56 31 -27 32 -31 11 -23 -40 14 -222 18 -227 5 -2 -7 14 -14
38 -18 l42 -7 -39 -29 c-22 -16 -42 -30 -46 -30 -4 0 -7 18 -6 39 0 46 -7 62
-27 55 -8 -4 -12 -10 -9 -15 6 -11 1 -11 -20 -3 -28 11 79 87 133 95 81 11 90
10 102 -13z m64 -112 c63 -14 103 -32 145 -66 l25 -20 -55 -1 c-115 -2 -227
-9 -285 -18 -33 -6 -96 -13 -140 -16 l-80 -7 32 20 c17 12 34 29 37 40 4 11
15 27 26 37 20 18 20 17 20 -18 0 -48 22 -49 76 -4 48 42 93 66 119 66 11 0
47 -6 80 -13z m-345 -46 c-38 -48 -50 -50 -50 -10 0 25 5 31 33 39 50 14 51
13 17 -29z m-714 -109 c32 -7 92 -20 131 -29 l73 -16 -58 -23 c-75 -30 -104
-46 -183 -105 -37 -26 -69 -48 -71 -48 -3 0 -1 21 4 48 8 44 6 100 -8 196 l-6
40 29 -25 c17 -14 55 -30 89 -38z"/>
</g>
</svg>
