<?xml version="1.0" standalone="no"?>
<!DOCTYPE svg PUBLIC "-//W3C//DTD SVG 20010904//EN"
 "http://www.w3.org/TR/2001/REC-SVG-20010904/DTD/svg10.dtd">
<svg version="1.0" xmlns="http://www.w3.org/2000/svg"
 width="350.000000pt" height="136.000000pt" viewBox="0 0 350.000000 136.000000"
 preserveAspectRatio="xMidYMid meet">
<metadata>
Created by potrace 1.16, written by Peter Selinger 2001-2019
</metadata>
<g transform="translate(0.000000,136.000000) scale(0.100000,-0.100000)"
fill="#000000" stroke="none">
<path d="M1839 1225 c-19 -14 -61 -51 -94 -83 -91 -85 -305 -228 -305 -202 0
6 18 47 41 91 29 58 37 84 30 93 -14 17 -239 21 -781 14 -36 0 -102 1 -147 3
-47 2 -86 0 -91 -6 -6 -6 -6 -39 0 -85 9 -66 10 -263 5 -572 -2 -109 2 -104
-78 -86 -35 8 -53 18 -57 30 -5 21 -28 24 -35 4 -3 -8 -9 -61 -12 -118 -4 -56
-11 -123 -15 -147 -12 -66 8 -94 41 -55 18 21 90 57 172 83 37 13 65 26 63 29
-2 4 8 7 22 8 15 0 83 12 151 27 68 15 142 27 164 27 22 0 74 6 116 14 121 23
266 38 295 30 25 -6 56 8 56 27 0 4 -19 10 -42 13 -49 6 -285 15 -402 16 l-79
0 7 77 c8 86 30 210 39 219 3 3 27 8 54 11 26 2 64 8 83 13 19 5 73 9 121 9
47 0 92 1 100 3 11 2 14 -12 11 -77 -1 -44 -5 -108 -8 -143 -6 -69 1 -102 20
-102 20 0 36 46 36 100 0 50 0 50 33 50 40 0 86 -28 173 -105 154 -136 194
-178 183 -191 -7 -9 -6 -14 3 -20 19 -12 58 -14 58 -3 0 5 6 9 13 9 14 0 199
91 194 96 -1 2 -47 -15 -101 -37 -103 -43 -127 -45 -132 -16 -1 10 -10 27 -18
36 -11 12 -13 20 -5 28 8 8 8 32 -1 84 -12 75 -14 226 -4 252 3 8 14 12 28 10
20 -4 24 -13 30 -56 3 -29 2 -86 -3 -129 -9 -83 -5 -128 13 -128 6 0 5 -4 -3
-9 -15 -10 -7 -31 13 -31 10 0 12 39 9 175 l-3 175 31 0 30 0 -5 -172 -5 -173
-45 -19 c-54 -23 -64 -48 -13 -36 57 15 182 64 189 74 3 5 22 10 41 10 20 1
35 5 34 9 -1 5 56 28 127 52 70 24 178 69 238 99 60 31 115 56 122 56 15 0
191 75 220 93 12 8 46 23 76 35 30 11 72 27 92 36 33 14 37 14 32 1 -6 -14 12
-19 79 -18 9 0 17 -4 17 -7 0 -4 26 -19 58 -34 78 -36 181 -100 207 -128 23
-26 65 -52 72 -45 8 9 -52 85 -78 99 -15 7 -46 30 -70 50 -24 20 -72 60 -107
89 -50 41 -60 54 -51 65 18 21 -7 47 -32 33 -28 -14 -23 -1 14 41 64 75 69 84
51 90 -13 5 -6 18 36 63 95 104 43 72 -84 -50 -132 -130 -156 -142 -223 -124
-21 6 -52 11 -69 11 -17 0 -57 9 -90 20 -32 11 -65 19 -74 18 -8 -1 -33 7 -55
19 -22 11 -96 41 -165 67 -159 61 -211 83 -283 123 -33 18 -92 49 -132 68 -41
19 -76 39 -80 45 -10 16 -29 12 -66 -15z m118 -46 c37 -16 89 -40 115 -51 68
-31 52 -33 -23 -4 -35 13 -89 33 -119 44 -30 11 -56 25 -58 31 -6 17 11 13 85
-20z m-193 -66 c-47 -63 -216 -243 -228 -243 -23 0 -56 31 -49 45 8 13 57 50
158 119 28 19 70 53 95 75 25 23 47 41 49 41 2 0 -9 -17 -25 -37z m122 -19 c3
-31 4 -79 0 -107 -3 -29 -9 -92 -12 -142 -8 -123 -2 -114 -69 -106 -14 1 -9
257 6 331 16 80 16 80 43 80 22 0 25 -5 32 -56z m164 -9 c47 -15 111 -41 142
-56 32 -16 64 -29 72 -29 13 0 13 -4 0 -29 -9 -19 -15 -66 -17 -128 l-2 -98
-33 -3 -34 -3 4 118 c2 65 8 126 12 136 6 13 4 17 -12 17 -16 0 -21 -9 -26
-52 -4 -29 -6 -88 -5 -131 1 -43 -1 -80 -3 -83 -3 -2 -22 -6 -43 -7 l-38 -2 2
118 c1 64 7 132 12 150 12 42 12 47 -5 47 -26 0 -30 -29 -35 -252 l-1 -68 -35
0 -35 0 5 128 c3 70 8 151 10 180 5 47 -4 67 -20 42 -3 -5 -8 -80 -11 -167 -3
-87 -7 -164 -10 -171 -2 -7 -14 -12 -26 -10 -20 3 -23 10 -26 53 -2 27 1 77 7
110 6 33 11 101 12 152 l1 92 27 -13 c14 -7 64 -26 111 -41z m-790 17 c0 -10
-63 -24 -103 -23 -26 1 -85 -8 -130 -20 -191 -49 -267 -60 -267 -39 0 22 34
62 63 74 21 8 95 12 234 11 112 0 203 -1 203 -3z m166 -19 l31 -5 -39 -106
c-21 -59 -46 -133 -55 -165 -13 -49 -19 -58 -37 -55 -16 2 -20 9 -18 28 1 14
4 89 6 167 3 78 7 147 10 152 4 6 18 6 39 -1 17 -6 46 -13 63 -15z m-773 2
c37 -4 67 -9 67 -11 0 -3 -10 -23 -22 -45 -18 -31 -32 -42 -65 -50 -30 -8 -40
-15 -36 -26 4 -9 15 -13 29 -10 13 2 24 0 24 -5 0 -5 -18 -44 -40 -85 -22 -42
-40 -84 -40 -94 0 -10 -4 -21 -10 -24 -5 -3 -10 -18 -11 -33 0 -15 -3 -35 -7
-44 -4 -10 -8 58 -9 150 -1 92 -4 195 -8 230 l-6 63 33 -5 c18 -3 63 -8 101
-11z m631 -84 c3 -43 3 -117 0 -164 -7 -85 -7 -85 -37 -91 -16 -3 -57 -6 -91
-6 -33 0 -97 -6 -141 -13 -44 -8 -86 -12 -93 -9 -20 6 -14 33 12 53 13 10 29
33 36 51 32 84 75 156 101 172 31 18 39 46 14 46 -19 0 -70 -70 -119 -165 -22
-41 -40 -74 -41 -73 -1 2 4 44 11 93 7 50 13 97 13 105 1 10 23 21 64 32 112
31 117 32 117 13 0 -20 29 -15 95 15 22 11 43 19 46 20 3 0 9 -36 13 -79z
m492 -90 c0 -93 -3 -172 -6 -175 -3 -3 -16 -3 -28 1 -21 5 -22 10 -22 122 0
89 4 122 16 139 8 12 12 27 9 33 -6 8 20 49 31 49 1 0 1 -76 0 -169z m-851 87
c-4 -12 -18 -109 -34 -233 -6 -48 -7 -49 -46 -58 -42 -9 -159 -3 -210 12 -37
10 -37 33 1 106 62 122 70 129 139 144 46 11 118 30 152 40 1 1 0 -5 -2 -11z
m778 -115 c-2 -65 -6 -123 -8 -130 -2 -6 -13 -9 -25 -6 -20 5 -22 10 -17 77 9
121 23 174 48 176 3 0 4 -53 2 -117z m652 50 c-3 -13 -8 -44 -11 -71 -12 -110
-13 -112 -42 -112 l-27 0 0 94 c0 59 4 99 12 107 6 6 9 18 6 26 -4 11 2 10 31
-4 31 -14 36 -21 31 -40z m105 27 c8 -5 11 -10 5 -10 -5 0 -17 5 -25 10 -8 5
-10 10 -5 10 6 0 17 -5 25 -10z m621 -17 c-6 -10 -24 -34 -40 -53 -17 -19 -31
-40 -31 -47 0 -6 -9 -9 -20 -6 -11 3 -20 7 -20 8 0 4 114 115 118 115 1 0 -2
-8 -7 -17z m-660 -14 c11 -5 18 -13 15 -17 -2 -4 -7 -34 -10 -67 -9 -86 -14
-95 -43 -95 -25 0 -26 0 -19 63 7 62 23 127 32 127 3 0 14 -5 25 -11z m-786
-51 c-1 -29 -3 -70 -3 -91 -2 -36 -3 -37 -34 -35 -42 3 -47 10 -38 58 5 30 54
105 76 119 1 1 1 -23 -1 -51z m974 -8 c34 -12 61 -29 61 -36 0 -8 -4 -14 -10
-14 -5 0 -10 -9 -10 -20 0 -11 -4 -20 -9 -20 -5 0 -17 -3 -26 -7 -15 -5 -16
-1 -10 35 4 25 3 42 -3 42 -16 0 -30 -23 -34 -54 -2 -21 -9 -30 -25 -32 -21
-4 -23 0 -23 35 0 22 5 43 10 46 15 9 12 45 -4 45 -18 0 -50 -82 -43 -110 4
-16 0 -20 -23 -20 l-27 0 14 63 c7 34 15 67 18 73 5 15 64 4 144 -26z m-1177
0 c-1 -6 -5 -33 -9 -58 -6 -46 -16 -62 -40 -62 -18 0 -16 14 8 82 12 32 27 57
33 55 6 -3 10 -10 8 -17z m53 -22 c25 -11 34 -28 15 -28 -5 0 -10 -5 -10 -11
0 -7 10 -9 25 -7 21 4 25 1 25 -19 0 -23 -3 -24 -50 -21 -46 3 -50 5 -50 28 0
26 10 70 16 70 2 0 15 -5 29 -12z m1414 -30 l36 -13 -50 -5 c-35 -4 -55 -1
-67 9 -10 8 -18 9 -18 4 0 -19 -33 -25 -42 -8 -5 8 -14 13 -19 10 -5 -4 -7
-10 -4 -15 5 -8 -44 -24 -52 -16 -3 2 0 14 7 25 7 14 21 21 40 21 17 0 30 4
30 9 0 10 88 -3 139 -21z m150 -54 c10 7 61 -16 61 -28 0 -4 -7 -5 -16 -2 -9
4 -36 11 -60 17 -24 6 -41 15 -38 20 3 5 14 4 25 -1 11 -6 23 -9 28 -6z m-259
-14 c0 -11 4 -20 9 -20 5 0 11 9 14 20 4 15 14 20 42 20 21 0 34 -4 30 -10 -3
-5 -12 -10 -19 -10 -7 0 -35 -11 -61 -26 -38 -20 -50 -22 -56 -12 -10 16 -11
22 -3 42 9 24 44 20 44 -4z m-73 -30 c2 -22 -2 -40 -8 -40 -6 0 -7 -5 -3 -12
4 -7 3 -8 -4 -4 -7 4 -26 0 -44 -8 -39 -18 -117 -46 -129 -46 -5 0 -8 29 -6
65 2 54 5 65 20 65 12 0 17 -8 17 -27 0 -16 4 -34 9 -42 15 -24 42 6 39 43 -4
42 29 51 34 9 2 -17 9 -28 18 -28 8 0 14 6 12 14 -5 24 9 51 26 51 13 0 18
-10 19 -40z m-1297 -11 c0 -21 -9 -38 -29 -55 -16 -13 -32 -35 -35 -49 -4 -14
-11 -25 -17 -25 -7 0 -9 10 -6 23 4 12 9 41 13 64 5 32 11 43 28 45 11 2 20 9
19 16 -2 6 4 12 12 12 10 0 15 -10 15 -31z m98 15 c6 -2 12 -10 12 -19 0 -34
-78 -7 -80 28 0 6 31 3 68 -9z m1627 -13 c-6 -5 -25 10 -25 20 0 5 6 4 14 -3
8 -7 12 -15 11 -17z m-734 -33 c1 -29 1 -60 0 -68 0 -8 3 -22 9 -30 7 -11 12
-12 21 -3 9 9 9 25 0 69 -15 79 -15 84 14 84 28 0 35 -19 32 -92 -1 -47 -2
-48 -58 -78 l-56 -30 -6 93 c-3 50 -3 95 0 100 2 4 13 7 24 7 16 0 19 -8 20
-52z m-791 33 c-25 -15 -63 -17 -67 -3 -3 8 8 12 39 12 29 -1 38 -3 28 -9z
m47 3 c-3 -3 -12 -4 -19 -1 -8 3 -5 6 6 6 11 1 17 -2 13 -5z m575 -69 c-4
-114 -15 -169 -33 -173 -21 -4 -30 29 -35 125 -5 94 7 125 44 121 27 -3 27 -3
24 -73z m89 33 c0 -24 1 -71 3 -105 3 -61 2 -62 -27 -73 -17 -5 -32 -10 -33
-10 -8 0 -3 60 6 85 7 18 7 24 -1 20 -7 -5 -9 12 -8 52 3 71 4 73 35 73 22 0
24 -4 25 -42z m-1009 2 c-5 -35 -22 -30 -22 6 0 13 6 24 13 24 9 0 12 -10 9
-30z m713 -73 c0 -56 3 -123 7 -148 7 -43 5 -47 -19 -58 -14 -6 -27 -10 -29
-8 -11 10 -30 119 -28 157 1 25 2 66 3 91 1 43 3 47 34 57 17 5 32 10 32 11 0
1 0 -45 0 -102z m108 -29 c-3 -120 -5 -133 -22 -140 -11 -4 -23 -2 -29 5 -18
23 -42 244 -27 258 2 3 22 6 42 7 l39 3 -3 -133z m-1499 99 c17 -13 16 -15
-18 -35 -55 -33 -67 -29 -47 13 17 37 36 43 65 22z m971 -104 c-4 -65 -9 -120
-11 -122 -1 -2 -15 9 -30 24 -20 20 -24 29 -14 35 9 6 9 12 1 29 -7 12 -11 47
-9 78 3 58 10 66 61 72 5 1 6 -52 2 -116z m70 75 c-9 -69 -14 -186 -8 -192 3
-3 6 -28 7 -55 l1 -50 -21 20 c-11 10 -23 17 -25 14 -3 -2 -4 37 -3 88 1 51 3
120 3 155 1 60 2 62 27 62 24 0 25 -2 19 -42z m-817 -28 c-2 -33 -6 -60 -10
-60 -8 0 -22 -96 -19 -139 1 -19 -4 -38 -11 -42 -13 -8 -289 -1 -298 8 -3 3
-6 43 -7 89 -2 83 -2 85 25 96 44 19 142 80 142 89 0 4 35 10 78 12 42 1 83 4
90 5 9 1 11 -14 10 -58z m1071 -62 c-1 -68 -1 -136 -1 -153 1 -27 -19 -55 -39
-55 -17 0 -26 179 -14 280 1 14 3 31 4 38 0 6 12 12 27 12 l25 0 -2 -122z
m-408 95 c1 -10 1 -21 0 -25 0 -4 -2 -29 -3 -54 l-1 -47 -34 39 c-40 47 -44
90 -10 97 42 8 47 7 48 -10z m-986 -33 c3 -5 1 -10 -4 -10 -6 0 -11 5 -11 10
0 6 2 10 4 10 3 0 8 -4 11 -10z m885 -14 c5 -14 34 -50 64 -82 63 -65 75 -86
19 -33 -21 20 -56 46 -78 59 -22 13 -41 24 -43 26 -7 4 11 54 19 54 5 0 14
-11 19 -24z m178 -194 c8 -7 12 -16 10 -20 -2 -5 -16 8 -33 27 -27 32 -13 28
23 -7z m-798 -65 c325 1 353 -5 140 -27 -169 -17 -406 -72 -539 -124 l-64 -26
7 38 c3 20 6 64 6 96 l0 59 63 -8 c34 -5 208 -8 387 -8z"/>
</g>
</svg>
