<?xml version="1.0" standalone="no"?>
<!DOCTYPE svg PUBLIC "-//W3C//DTD SVG 20010904//EN"
 "http://www.w3.org/TR/2001/REC-SVG-20010904/DTD/svg10.dtd">
<svg version="1.0" xmlns="http://www.w3.org/2000/svg"
 width="258.000000pt" height="164.000000pt" viewBox="0 0 258.000000 164.000000"
 preserveAspectRatio="xMidYMid meet">
<metadata>
Created by potrace 1.16, written by Peter Selinger 2001-2019
</metadata>
<g transform="translate(0.000000,164.000000) scale(0.100000,-0.100000)"
fill="#000000" stroke="none">
<path d="M2210 1288 c-14 -5 -158 -9 -328 -8 -166 0 -364 -4 -440 -10 -75 -5
-168 -12 -207 -15 -168 -13 -755 -6 -880 10 -95 12 -112 12 -121 0 -12 -16
-24 -306 -24 -586 0 -148 3 -180 16 -193 19 -20 24 -20 51 -1 22 16 127 24
140 12 3 -4 0 -45 -7 -92 -11 -68 -11 -87 0 -99 7 -9 16 -13 21 -10 5 3 4 -7
-1 -21 -14 -37 -12 -65 3 -65 18 0 47 137 47 223 l0 68 233 -5 c253 -6 344
-13 353 -27 3 -6 53 -7 117 -4 197 9 512 6 602 -6 48 -6 106 -8 128 -5 40 7
154 13 327 20 67 2 86 6 88 18 3 16 -18 43 -39 50 -7 2 -10 51 -8 153 7 328 4
585 -6 586 -5 1 -17 4 -25 9 -8 4 -26 3 -40 -2z m18 -57 c8 -1 12 -17 11 -53
-1 -29 -1 -84 0 -123 1 -38 -1 -117 -5 -175 -4 -58 -7 -162 -7 -233 1 -70 -2
-129 -6 -131 -3 -2 -61 -7 -129 -10 -67 -4 -142 -10 -167 -15 -26 -5 -65 -4
-93 1 -26 5 -145 10 -265 12 -119 1 -219 5 -222 8 -8 7 306 112 333 111 12 0
22 3 22 7 0 8 48 25 62 22 4 -1 19 5 34 13 22 11 30 12 36 2 5 -8 12 -5 24 11
12 17 24 23 48 21 40 -4 51 -12 91 -74 61 -91 69 -99 93 -86 13 7 22 21 22 34
0 12 14 58 31 102 56 144 79 210 79 226 0 19 -19 25 -110 34 -36 4 -76 9 -90
11 -14 2 -54 9 -90 14 -135 19 -203 30 -209 34 -6 4 -292 55 -450 80 -52 9
-111 24 -133 34 -38 20 -38 20 -53 -1 -9 -13 -15 -44 -15 -75 0 -87 -5 -91
-107 -86 -48 2 -94 6 -102 8 -9 3 -52 8 -96 12 -44 3 -134 12 -200 19 -66 6
-125 10 -132 8 -6 -3 -13 -14 -16 -26 -9 -36 -5 -360 4 -384 10 -27 4 -32 -54
-38 -25 -2 -57 -7 -71 -11 -18 -4 -26 -2 -26 7 -2 66 2 396 5 439 2 30 4 98 5
150 l1 96 67 -12 c72 -13 835 -12 947 1 105 12 381 20 655 19 146 -1 271 -2
278 -3z m-1039 -279 c6 -137 5 -202 -6 -332 -6 -81 -11 -105 -23 -108 -13 -2
-15 20 -14 155 0 87 4 196 8 243 6 63 6 82 -3 74 -16 -15 -28 -158 -26 -305 1
-69 -2 -134 -6 -145 -6 -15 -8 -11 -10 16 -3 46 0 182 7 363 l6 147 32 0 31 0
4 -108z m57 92 c20 -5 21 -10 16 -82 -7 -106 -7 -234 0 -315 8 -79 -2 -117
-32 -117 -17 0 -20 7 -21 43 -1 23 -2 53 -3 67 -1 14 4 45 10 70 11 44 10 178
-1 288 -5 54 -4 56 31 46z m239 -39 c66 -14 130 -25 143 -25 13 0 21 -4 18 -8
-2 -4 -10 -64 -16 -132 -7 -69 -13 -134 -15 -145 -1 -11 -3 -28 -4 -37 0 -10
-8 -18 -16 -18 -26 0 -20 193 10 303 6 21 4 27 -9 27 -9 0 -18 -12 -22 -27 -3
-16 -8 -36 -11 -47 -3 -10 -5 -71 -4 -136 0 -122 -3 -134 -43 -142 -17 -2 -20
3 -19 32 0 19 5 67 11 105 18 113 20 230 3 230 -10 0 -14 -25 -17 -110 -2 -60
-9 -143 -14 -183 -6 -40 -10 -77 -10 -82 0 -4 -10 -10 -21 -13 -22 -6 -22 -5
-15 91 16 221 18 265 12 288 -14 53 -23 19 -23 -83 -1 -212 -39 -407 -53 -270
-6 57 -4 209 5 325 5 65 -3 90 -19 63 -3 -4 -8 -106 -10 -226 -5 -213 -8 -234
-38 -235 -20 0 -30 337 -13 438 7 39 9 42 39 42 17 0 85 -11 151 -25z m227
-40 c4 -5 -2 -63 -15 -140 -3 -16 -7 -57 -9 -90 -3 -59 -10 -75 -36 -75 -14 0
-11 74 7 205 6 39 10 78 11 88 0 16 29 24 42 12z m136 -24 c9 -1 10 -6 2 -20
-5 -11 -10 -57 -10 -103 0 -88 -4 -100 -33 -111 -18 -7 -18 -2 -11 80 9 100 9
132 -1 141 -14 14 -25 -27 -26 -98 -1 -77 -6 -130 -11 -135 -2 -1 -14 -6 -27
-10 -23 -7 -24 -6 -18 46 3 30 11 93 18 140 l12 85 46 -7 c25 -4 52 -8 59 -8z
m-1338 -23 c-8 -32 -19 -146 -20 -197 0 -13 -3 -21 -6 -18 -9 9 -14 174 -7
215 4 22 11 32 23 32 16 0 17 -5 10 -32z m250 11 l116 -13 -7 -55 c-4 -31 -8
-80 -8 -108 -1 -50 -3 -53 -26 -53 -25 0 -25 1 -26 90 -2 111 -2 111 -14 108
-9 -3 -12 -41 -14 -165 -1 -30 -4 -33 -34 -33 l-32 0 3 103 c3 97 3 101 -14
85 -14 -14 -17 -34 -17 -102 1 -76 -1 -86 -17 -86 -35 0 -43 25 -36 113 4 45
9 90 12 100 6 20 -24 25 -31 5 -5 -17 -14 -113 -15 -166 0 -52 -18 -62 -52
-30 l-25 23 13 94 c7 52 10 99 7 104 -3 5 18 6 48 3 30 -3 106 -11 169 -17z
m1260 -13 c129 -19 142 -24 122 -49 -6 -7 -13 -30 -17 -52 -4 -22 -13 -57 -21
-78 -8 -20 -14 -53 -14 -72 0 -37 -17 -56 -31 -34 -11 18 -12 76 -1 83 5 3 9
18 10 35 0 16 7 51 16 79 15 51 13 62 -11 62 -8 0 -13 -12 -13 -29 0 -21 -8
-36 -29 -50 -16 -12 -32 -21 -36 -21 -7 0 -4 27 11 84 5 20 2 26 -9 26 -11 0
-18 -13 -22 -37 -13 -80 -17 -93 -27 -93 -6 0 -8 10 -4 23 12 51 16 117 7 117
-15 0 -20 -13 -25 -61 -8 -69 -20 -101 -41 -109 -19 -7 -20 -3 -16 74 2 44 8
89 13 100 10 19 24 19 138 2z m-973 -10 c9 -9 3 -190 -7 -200 -20 -20 -34 9
-21 45 19 55 12 139 -11 139 -7 0 -8 -16 -5 -43 7 -46 -12 -138 -30 -144 -7
-3 -9 27 -5 93 4 80 2 96 -9 92 -10 -3 -14 -26 -15 -81 -2 -92 -7 -107 -35
-107 -21 0 -21 3 -15 83 3 45 6 95 6 111 l0 29 71 -6 c39 -3 74 -8 76 -11z
m-180 -255 c10 -14 13 -14 26 4 13 16 17 17 31 6 13 -11 19 -11 31 -1 8 7 16
10 16 6 1 -3 2 -10 3 -15 3 -21 15 -21 26 -1 6 12 19 20 27 18 13 -2 17 -18
18 -77 l3 -73 -57 6 c-31 3 -153 9 -271 12 -118 3 -220 7 -226 9 -13 4 -11 59
3 95 l11 25 173 1 c146 0 176 -2 186 -15z"/>
</g>
</svg>
