<?xml version="1.0" standalone="no"?>
<!DOCTYPE svg PUBLIC "-//W3C//DTD SVG 20010904//EN"
 "http://www.w3.org/TR/2001/REC-SVG-20010904/DTD/svg10.dtd">
<svg version="1.0" xmlns="http://www.w3.org/2000/svg"
 width="236.000000pt" height="130.000000pt" viewBox="0 0 236.000000 130.000000"
 preserveAspectRatio="xMidYMid meet">
<metadata>
Created by potrace 1.16, written by Peter Selinger 2001-2019
</metadata>
<g transform="translate(0.000000,130.000000) scale(0.100000,-0.100000)"
fill="#000000" stroke="none">
<path d="M251 1161 c-18 -18 -33 -91 -30 -146 0 -11 -1 -54 -3 -95 -3 -49 0
-80 8 -90 8 -10 13 -57 14 -130 2 -124 -8 -448 -15 -492 -6 -39 5 -89 22 -95
8 -3 24 -1 36 5 22 10 321 24 922 42 288 9 358 8 538 -6 70 -5 89 6 40 24 -24
9 -19 11 37 12 36 1 83 4 105 6 22 2 50 -2 62 -8 18 -9 26 -8 41 5 11 10 35
17 60 17 22 0 43 4 47 9 10 17 -13 22 -54 12 -23 -5 -43 -6 -45 -2 -3 4 0 27
5 52 6 24 11 109 11 188 1 143 5 163 53 316 34 110 110 311 122 326 26 31 16
42 -29 35 -24 -4 -86 -9 -139 -13 -78 -5 -98 -3 -110 9 -12 13 -15 13 -24 1
-8 -10 -17 -12 -35 -5 -16 6 -70 5 -150 -4 -69 -7 -170 -16 -225 -19 -55 -3
-152 -10 -215 -16 -122 -10 -468 -13 -510 -4 -14 3 -86 8 -160 11 -138 5 -195
15 -265 44 -72 30 -93 32 -114 11z m123 -67 c65 -22 98 -26 214 -28 262 -6
255 -3 102 -42 -74 -19 -176 -46 -226 -58 -50 -13 -100 -28 -112 -35 -11 -6
-32 -11 -46 -11 l-26 0 7 68 c4 37 7 82 7 100 0 17 0 32 2 32 1 0 36 -12 78
-26z m1798 -21 c-11 -21 -44 -100 -73 -176 -29 -75 -54 -135 -57 -132 -2 2 -6
63 -8 136 -3 135 -9 169 -28 181 -6 4 7 8 29 8 22 1 65 7 95 14 30 7 57 12 59
10 1 -1 -6 -20 -17 -41z m-320 13 c65 0 67 -1 62 -23 -5 -19 -2 -23 16 -23 19
0 21 4 16 25 -4 14 -2 25 3 25 15 0 19 -46 5 -65 -14 -18 -3 -63 18 -76 6 -4
12 -57 14 -128 2 -67 6 -126 8 -130 3 -4 -1 -81 -8 -172 -7 -90 -11 -189 -9
-220 7 -76 -7 -89 -95 -89 -37 0 -148 -3 -246 -7 -114 -4 -221 -1 -290 6 -61
7 -147 15 -191 19 -77 7 -80 8 -77 32 1 13 7 27 12 30 12 8 32 134 29 195 -1
28 1 57 4 65 3 8 9 37 12 65 4 27 17 68 30 90 13 22 38 76 55 120 48 124 73
177 98 207 l24 28 148 0 c118 0 151 3 157 14 10 18 48 25 98 18 22 -3 70 -6
107 -6z m-566 -57 c-24 -28 -73 -124 -136 -266 -13 -29 -27 -53 -31 -53 -7 0
-17 93 -24 226 -2 45 -6 88 -7 95 -3 15 54 24 165 27 l59 2 -26 -31z m-255 8
c-1 -4 -1 -18 -1 -32 0 -14 -4 -25 -9 -25 -10 0 -22 51 -14 63 6 9 25 5 24 -6z
m-166 -32 c0 -22 -4 -25 -37 -25 -30 0 -35 3 -31 19 5 20 41 41 58 35 6 -3 10
-15 10 -29z m116 8 c-9 -35 -31 -42 -31 -10 0 22 10 34 32 36 3 1 3 -11 -1
-26z m-61 -8 c0 -14 -4 -25 -10 -25 -5 0 -10 11 -10 25 0 14 5 25 10 25 6 0
10 -11 10 -25z m-154 -16 c0 -18 -5 -20 -31 -15 -16 4 -36 7 -43 8 -17 2 -3
15 23 21 41 10 51 7 51 -14z m-111 -33 c35 -33 30 -60 -12 -64 -32 -3 -33 -2
-27 27 8 38 -13 43 -22 6 -4 -18 -13 -25 -31 -25 -19 0 -24 4 -19 16 3 9 6 21
6 28 0 7 15 18 33 24 45 14 43 15 72 -12z m325 -26 c0 -20 -5 -30 -15 -30 -10
0 -15 10 -15 30 0 20 5 30 15 30 10 0 15 -10 15 -30z m-456 -4 c-5 -14 -54
-24 -54 -11 0 5 54 34 58 31 1 -2 0 -11 -4 -20z m342 2 c-3 -13 -6 -28 -6 -33
0 -7 -15 -9 -34 -7 -31 4 -34 7 -31 31 1 14 3 27 4 29 0 1 17 2 37 2 33 0 36
-2 30 -22z m59 1 c8 -23 -7 -45 -24 -35 -6 4 -11 18 -11 32 0 30 26 32 35 3z
m115 6 c0 -16 -27 -32 -37 -22 -3 4 -3 13 0 22 8 20 37 20 37 0z m-270 -20 c0
-22 -4 -25 -35 -25 -19 0 -35 4 -35 9 0 27 15 41 41 41 24 0 29 -4 29 -25z
m-386 -42 c-9 -21 -32 -76 -51 -123 -53 -133 -51 -131 -54 -85 -3 50 0 154 4
180 3 17 42 38 115 64 1 1 -5 -16 -14 -36z m586 -38 c0 -35 -4 -45 -16 -45
-13 0 -15 7 -9 37 13 68 25 72 25 8z m68 -22 c2 -38 5 -86 7 -108 2 -22 6 -88
10 -147 l7 -108 -37 0 -37 0 7 38 c4 20 13 44 21 53 18 20 18 29 -1 29 -17 0
-22 75 -5 85 15 9 12 25 -5 25 -19 0 -21 61 -2 90 9 15 9 22 1 28 -7 4 -11 23
-9 42 3 43 2 40 23 40 15 0 18 -11 20 -67z m-618 1 c-7 -7 -17 -14 -22 -14 -6
0 -5 7 2 15 7 8 9 15 6 15 -4 0 -1 10 6 23 l13 22 3 -23 c2 -13 -2 -30 -8 -38z
m96 26 c1 -36 -6 -50 -25 -50 -31 0 -42 15 -35 49 6 27 10 32 33 29 20 -2 26
-9 27 -28z m64 -16 c0 -29 -3 -34 -24 -34 -20 0 -23 4 -19 28 8 45 12 52 28
46 9 -4 15 -19 15 -40z m280 1 c0 -45 0 -45 -35 -45 -35 0 -36 1 -33 38 2 27
9 39 23 44 41 13 45 9 45 -37z m61 3 c-4 -30 -11 -42 -25 -44 -15 -2 -17 2
-12 28 3 17 6 37 6 44 0 8 8 14 18 14 16 0 18 -6 13 -42z m-252 5 c-5 -48 -26
-64 -58 -44 -9 6 -11 18 -6 40 6 26 11 31 37 31 26 0 29 -3 27 -27z m101 -13
l0 -40 -45 0 -45 0 5 32 c8 44 12 48 51 48 33 0 34 -1 34 -40z m-358 -55 c9
-4 13 -17 10 -40 -4 -31 -8 -35 -32 -35 -27 0 -28 2 -20 30 14 49 19 54 42 45z
m98 -24 c0 -42 -12 -60 -38 -58 -27 2 -28 5 -24 56 3 26 62 27 62 2z m412 -27
c3 -29 0 -37 -16 -44 -28 -10 -36 -4 -36 30 0 29 25 64 40 55 4 -3 10 -21 12
-41z m46 6 c0 -22 -3 -40 -9 -40 -9 0 -10 3 -13 43 -3 25 2 37 13 37 5 0 9
-18 9 -40z m-392 8 c-3 -13 -6 -29 -6 -35 0 -8 -9 -11 -22 -9 -13 1 -22 6 -20
9 1 4 2 18 2 32 0 20 5 25 26 25 22 0 25 -3 20 -22z m74 -14 c0 -31 -3 -35
-22 -32 -18 2 -24 11 -26 36 -3 29 -1 32 22 32 23 0 26 -4 26 -36z m120 1 c0
-35 0 -35 -44 -35 -50 0 -59 8 -50 45 5 22 11 25 50 25 44 0 44 0 44 -35z m86
19 c-3 -9 -6 -27 -6 -40 0 -22 -4 -25 -27 -22 -25 3 -28 7 -29 41 -1 36 0 37
34 37 27 0 33 -3 28 -16z m-288 -122 c-2 -21 -7 -36 -11 -34 -4 1 -16 2 -27 2
-16 0 -20 7 -20 34 0 28 4 35 23 38 33 6 39 0 35 -40z m-158 -3 c0 -33 -3 -40
-16 -35 -9 3 -24 6 -35 6 -12 0 -19 7 -19 19 0 37 12 51 41 51 27 0 29 -2 29
-41z m80 0 c0 -38 -1 -40 -27 -37 -47 5 -45 78 2 78 23 0 25 -4 25 -41z m156
4 c-1 -34 -4 -38 -28 -41 -27 -3 -28 -1 -28 37 0 38 2 41 29 41 26 0 28 -3 27
-37z m124 5 c0 -49 -12 -60 -56 -56 -38 3 -39 4 -42 46 l-3 42 50 0 c51 0 51
0 51 -32z m74 13 c3 -5 3 -23 0 -40 -5 -24 -12 -31 -30 -31 -21 0 -24 5 -24
40 0 36 3 40 24 40 14 0 27 -4 30 -9z m74 -28 c-2 -28 -8 -39 -22 -41 -24 -5
-34 11 -28 48 3 24 9 30 29 30 22 0 24 -4 21 -37z m56 21 c11 -28 6 -52 -10
-58 -24 -9 -24 -9 -24 34 0 41 21 57 34 24z m-584 -84 c12 0 14 -10 12 -46 -5
-51 -20 -64 -57 -44 -13 7 -31 10 -39 7 -13 -5 -15 -1 -10 21 11 48 33 75 57
68 12 -3 29 -6 37 -6z m92 -54 c-4 -43 -6 -46 -33 -46 -28 0 -28 1 -25 47 3
40 8 49 28 54 30 7 34 0 30 -55z m78 4 l0 -60 -31 0 c-30 0 -30 0 -28 53 3 64
4 67 35 67 23 0 24 -3 24 -60z m78 51 c8 -1 12 -18 12 -49 0 -57 -2 -61 -35
-55 -16 4 -26 14 -30 33 -9 40 3 79 23 75 9 -2 23 -4 30 -4z m119 -48 l-4 -48
-41 -3 -42 -3 1 50 2 51 44 0 44 0 -4 -47z m76 3 c-1 -22 -8 -43 -15 -48 -21
-13 -43 -4 -41 17 2 17 10 63 12 73 1 2 11 2 24 0 19 -3 22 -8 20 -42z m75 -3
c-3 -40 -6 -48 -23 -48 -17 0 -20 8 -23 48 -3 45 -2 47 23 47 25 0 26 -2 23
-47z m68 31 c-3 -9 -6 -29 -6 -45 0 -18 -5 -29 -14 -29 -16 0 -26 21 -26 54 0
28 3 31 30 33 16 1 20 -2 16 -13z m-576 -156 c0 -38 -1 -39 -34 -36 -33 2 -66
-15 -66 -34 0 -5 19 -6 45 -2 39 5 45 4 45 -11 0 -15 -6 -17 -46 -11 -25 3
-50 8 -55 12 -5 3 -9 36 -9 73 l0 67 60 -10 60 -10 0 -38z m645 -36 c-6 -80
-9 -89 -25 -85 -29 8 -32 33 -8 54 l23 19 -22 6 c-18 5 -21 13 -20 47 2 36 6
43 27 48 14 3 27 4 29 3 2 -2 0 -43 -4 -92z m-297 45 c-3 -42 -3 -42 -45 -45
-42 -3 -43 -2 -43 27 0 38 20 58 60 59 30 1 31 0 28 -41z m87 -4 c3 -43 3 -43
-31 -43 -33 0 -34 1 -34 38 0 46 6 54 38 50 21 -3 25 -9 27 -45z m65 35 c0
-37 -14 -88 -23 -85 -5 1 -11 24 -14 50 -3 42 -1 47 17 47 11 0 20 -6 20 -12z
m70 -38 c0 -25 -5 -40 -16 -44 -30 -12 -35 -6 -28 32 13 71 44 80 44 12z
m-492 -2 c3 -36 2 -38 -27 -38 -33 0 -34 2 -25 49 5 25 11 31 28 29 16 -2 22
-11 24 -40z m92 2 c0 -39 -1 -40 -35 -40 -33 0 -35 2 -33 33 3 36 13 47 46 47
19 0 22 -5 22 -40z m70 0 c0 -35 -3 -40 -24 -40 -18 0 -23 5 -21 23 1 12 3 30
4 40 0 10 9 17 21 17 17 0 20 -7 20 -40z m-160 -90 c0 -15 -7 -20 -29 -20 -20
0 -30 6 -34 20 -4 17 0 20 29 20 27 0 34 -4 34 -20z m85 -5 c0 -31 -49 -28
-53 3 -3 20 0 23 25 20 20 -2 28 -8 28 -23z m70 0 c0 -13 -8 -21 -21 -23 -18
-3 -21 1 -16 23 5 31 37 31 37 0z m105 5 c0 -11 -3 -21 -7 -21 -63 -9 -73 -8
-73 9 0 26 9 32 47 32 26 0 33 -4 33 -20z m89 4 c10 -9 -11 -34 -27 -34 -27 0
-45 23 -30 38 10 10 44 8 57 -4z m128 -9 c8 -22 -6 -33 -17 -15 -13 20 -12 30
0 30 6 0 13 -7 17 -15z m-77 -10 c0 -8 -4 -15 -9 -15 -13 0 -22 16 -14 24 11
11 23 6 23 -9z m-435 -42 c17 -3 49 -5 71 -4 34 1 43 -3 47 -19 3 -11 2 -22
-1 -24 -12 -7 -247 -7 -265 0 -11 4 -17 17 -17 35 l0 30 68 -6 c37 -4 81 -9
97 -12z m295 -8 c0 -8 7 -15 15 -15 8 0 15 5 15 10 0 15 48 12 53 -2 3 -10 9
-10 30 1 26 14 117 11 232 -7 41 -6 23 -9 -104 -15 -85 -4 -209 -7 -277 -7
-117 0 -122 1 -117 20 6 22 33 26 51 8 8 -8 15 -8 24 -1 13 11 40 19 66 22 6
0 12 -6 12 -14z m440 -19 c0 -11 -19 -15 -25 -6 -3 5 1 10 9 10 9 0 16 -2 16
-4z m47 -2 c-3 -3 -12 -4 -19 -1 -8 3 -5 6 6 6 11 1 17 -2 13 -5z"/>
<path d="M1517 920 c-15 -5 -62 -39 -104 -77 -62 -56 -82 -81 -111 -142 -42
-90 -41 -149 2 -205 36 -48 109 -91 133 -78 11 7 26 7 42 0 120 -45 316 48
351 168 35 121 17 231 -46 279 -20 15 -55 33 -78 40 -58 17 -156 25 -189 15z
m88 -75 c121 -43 132 -50 150 -106 13 -38 16 -68 11 -111 -9 -86 -25 -109
-100 -148 -61 -31 -70 -32 -128 -25 -35 4 -80 8 -100 10 -47 4 -53 8 -82 58
-57 97 -25 214 82 302 62 52 72 53 167 20z"/>
</g>
</svg>
