<?xml version="1.0" standalone="no"?>
<!DOCTYPE svg PUBLIC "-//W3C//DTD SVG 20010904//EN"
 "http://www.w3.org/TR/2001/REC-SVG-20010904/DTD/svg10.dtd">
<svg version="1.0" xmlns="http://www.w3.org/2000/svg"
 width="145.000000pt" height="120.000000pt" viewBox="0 0 145.000000 120.000000"
 preserveAspectRatio="xMidYMid meet">
<metadata>
Created by potrace 1.16, written by Peter Selinger 2001-2019
</metadata>
<g transform="translate(0.000000,120.000000) scale(0.100000,-0.100000)"
fill="#000000" stroke="none">
<path d="M403 1138 c-3 -6 -9 -25 -12 -41 -7 -33 -15 -36 -110 -37 -30 0 -61
-6 -68 -12 -11 -9 -14 -44 -13 -152 2 -172 -9 -405 -22 -466 -12 -58 -35 -255
-34 -300 2 -61 28 -50 126 51 l89 92 113 -9 c109 -9 650 -13 696 -5 25 4 30
21 6 21 -13 0 -14 8 -8 47 4 27 8 89 9 138 3 173 17 340 30 355 15 17 29 90
17 90 -4 0 -14 -11 -22 -24 -14 -23 -15 -20 -15 49 1 40 6 79 12 87 13 15 103
23 103 9 0 -5 -6 -12 -12 -14 -7 -3 -8 -6 -2 -6 6 -1 21 11 35 25 l24 26 -90
-6 c-130 -8 -409 -9 -490 -1 -110 10 -203 33 -248 62 -44 28 -102 38 -114 21z
m142 -89 c22 -10 52 -19 67 -19 15 0 30 -4 33 -10 3 -5 -1 -10 -10 -10 -16 0
-150 -63 -171 -81 -15 -12 -21 21 -23 123 l-2 77 33 -31 c18 -17 51 -39 73
-49z m-175 -38 c0 -24 -114 -201 -123 -191 -2 3 -7 46 -10 97 l-6 91 32 -4
c18 -2 46 0 62 5 40 12 45 13 45 2z m575 -4 l200 -2 1 -175 c0 -96 -1 -181 -4
-187 -3 -9 -36 -13 -117 -13 l-112 0 -6 60 c-3 34 -15 77 -29 102 -19 36 -36
50 -109 87 -76 38 -92 42 -128 36 -26 -4 -41 -12 -41 -21 0 -8 -7 -25 -15 -38
-8 -12 -20 -70 -27 -129 -6 -58 -14 -111 -18 -116 -16 -27 -200 38 -200 70 0
6 -12 9 -27 7 -24 -3 -30 -10 -40 -53 -7 -27 -14 -72 -15 -100 -4 -65 10 -67
91 -15 59 38 68 41 128 39 60 -2 64 -4 59 -23 -4 -12 -9 -47 -13 -79 -5 -46
-3 -61 11 -76 13 -14 14 -21 6 -26 -30 -18 17 -21 79 -5 142 37 214 88 266
190 10 19 19 36 20 38 2 2 91 11 135 14 3 0 25 0 50 -1 l45 -1 1 -102 c0 -57
2 -120 3 -141 2 -21 -2 -43 -7 -50 -8 -9 -75 -10 -289 -5 -400 9 -522 24 -597
73 -22 14 -24 22 -20 63 7 87 18 297 16 340 -1 35 2 42 18 42 13 0 36 23 64
63 82 114 75 110 76 40 0 -39 4 -63 11 -63 6 0 28 13 48 28 93 71 238 144 270
135 9 -2 106 -5 216 -6z m-282 -151 c12 -8 47 -28 77 -44 71 -39 92 -68 98
-136 12 -147 -60 -241 -222 -290 l-41 -13 -3 46 c-3 40 12 162 25 201 3 8 6
60 6 116 1 69 6 106 16 117 16 20 16 20 44 3z m-299 -275 c3 -4 -13 -18 -36
-31 -35 -20 -40 -21 -35 -6 4 10 7 33 7 52 l0 35 30 -21 c16 -11 32 -24 34
-29z m-79 -290 c57 -17 59 -19 35 -29 -14 -5 -52 -36 -84 -68 l-59 -59 6 49
c4 27 7 66 7 87 0 46 7 47 95 20z"/>
<path d="M640 836 c0 -9 7 -16 16 -16 17 0 14 22 -4 28 -7 2 -12 -3 -12 -12z"/>
<path d="M670 761 c0 -5 5 -13 10 -16 6 -3 10 -2 10 4 0 5 -4 13 -10 16 -5 3
-10 2 -10 -4z"/>
<path d="M694 689 c-3 -6 -1 -16 5 -22 8 -8 11 -5 11 11 0 24 -5 28 -16 11z"/>
<path d="M700 620 c0 -5 5 -10 10 -10 6 0 10 5 10 10 0 6 -4 10 -10 10 -5 0
-10 -4 -10 -10z"/>
<path d="M670 539 c0 -5 5 -7 10 -4 6 3 10 8 10 11 0 2 -4 4 -10 4 -5 0 -10
-5 -10 -11z"/>
</g>
</svg>
