<?xml version="1.0" standalone="no"?>
<!DOCTYPE svg PUBLIC "-//W3C//DTD SVG 20010904//EN"
 "http://www.w3.org/TR/2001/REC-SVG-20010904/DTD/svg10.dtd">
<svg version="1.0" xmlns="http://www.w3.org/2000/svg"
 width="153.000000pt" height="129.000000pt" viewBox="0 0 153.000000 129.000000"
 preserveAspectRatio="xMidYMid meet">
<metadata>
Created by potrace 1.16, written by Peter Selinger 2001-2019
</metadata>
<g transform="translate(0.000000,129.000000) scale(0.100000,-0.100000)"
fill="#000000" stroke="none">
<path d="M491 1187 c-6 -6 -11 -23 -11 -38 0 -24 -4 -27 -52 -32 -29 -4 -78
-4 -109 -1 -43 4 -58 2 -68 -10 -10 -12 -10 -20 -3 -29 34 -41 53 -222 32
-312 -5 -22 -11 -83 -14 -135 -2 -52 -7 -135 -10 -185 -14 -218 -15 -264 -7
-269 5 -3 37 22 72 55 89 84 96 87 214 79 125 -8 276 -5 380 8 89 11 198 7
231 -10 14 -6 28 -7 39 -1 16 9 16 11 -2 28 -16 16 -18 34 -16 154 1 75 4 156
7 181 2 25 5 71 5 104 l1 59 115 113 c63 63 111 115 107 115 -4 1 -151 2 -327
3 -288 1 -324 3 -348 19 -14 9 -32 17 -39 17 -36 0 -89 24 -119 53 -41 40 -63
49 -78 34z m84 -96 l45 -29 -56 -48 -57 -48 6 69 c4 39 7 73 7 78 0 11 6 9 55
-22z m-160 -47 c-13 -16 -30 -46 -38 -65 -7 -19 -21 -40 -30 -48 -15 -12 -17
-10 -17 20 -1 19 -7 52 -15 74 -8 21 -10 42 -5 45 4 3 35 5 68 5 l61 0 -24
-31z m58 -54 c-5 -66 -4 -70 16 -70 12 0 38 17 59 38 20 20 53 50 73 65 34 26
38 26 94 16 34 -6 132 -9 232 -7 142 4 173 2 169 -9 -3 -7 -1 -37 5 -66 16
-75 26 -147 21 -151 -2 -2 -5 -55 -8 -118 -2 -62 -5 -135 -8 -163 -2 -27 0
-70 4 -95 18 -92 21 -85 -40 -87 -30 0 -147 -4 -260 -7 -131 -4 -225 -2 -260
5 -30 6 -71 10 -90 10 -50 -1 -147 29 -167 51 -20 22 -20 78 1 289 17 160 26
193 69 259 24 36 86 110 92 110 1 0 0 -31 -2 -70z m849 12 c-34 -42 -119 -122
-131 -122 -4 0 -12 26 -18 58 -6 31 -14 65 -18 74 -7 18 3 21 129 26 l68 3
-30 -39z m-989 -660 c27 -10 48 -22 49 -26 0 -5 -21 -25 -46 -46 -25 -21 -43
-40 -40 -42 3 -3 -5 -8 -17 -11 -20 -5 -21 -3 -15 40 3 25 6 59 6 74 0 34 1
34 63 11z"/>
<path d="M550 898 c-41 -22 -77 -44 -79 -50 -2 -5 21 -33 50 -62 64 -63 89
-91 89 -98 0 -3 -24 1 -52 9 -62 18 -95 44 -115 92 l-14 34 -22 -22 c-20 -20
-22 -32 -22 -133 0 -78 4 -112 12 -115 12 -5 51 15 124 64 27 18 48 23 75 21
l39 -3 -20 -20 c-12 -11 -45 -42 -75 -69 -42 -37 -47 -45 -24 -33 l31 16 -18
-37 c-11 -20 -19 -42 -19 -49 0 -10 -11 -8 -40 7 -37 19 -90 27 -102 14 -6 -5
158 -94 174 -94 4 0 6 24 6 54 -2 44 3 62 25 95 15 22 27 44 27 49 0 12 57 62
71 62 7 0 38 -28 70 -62 106 -113 124 -130 147 -139 13 -5 28 -7 32 -4 8 5
-10 26 -128 149 -65 68 -70 65 115 65 224 0 223 0 223 10 0 15 -117 25 -277
23 -84 -1 -153 2 -153 7 0 5 19 26 43 47 64 58 152 167 138 172 -7 2 -13 2
-15 1 -40 -53 -140 -170 -159 -186 l-25 -21 -32 27 c-30 25 -33 32 -33 84 0
31 5 62 10 69 6 7 13 25 17 41 8 36 -2 34 -94 -15z m43 -40 c-9 -24 -18 -45
-19 -47 -2 -2 -15 6 -29 17 l-26 21 38 25 c21 14 41 26 45 26 4 0 0 -19 -9
-42z m-90 -183 c15 -4 27 -10 27 -14 0 -11 -80 -54 -87 -47 -8 8 -14 69 -8 85
5 11 8 11 23 -2 9 -8 29 -19 45 -22z"/>
</g>
</svg>
