<?xml version="1.0" standalone="no"?>
<!DOCTYPE svg PUBLIC "-//W3C//DTD SVG 20010904//EN"
 "http://www.w3.org/TR/2001/REC-SVG-20010904/DTD/svg10.dtd">
<svg version="1.0" xmlns="http://www.w3.org/2000/svg"
 width="136.000000pt" height="110.000000pt" viewBox="0 0 136.000000 110.000000"
 preserveAspectRatio="xMidYMid meet">
<metadata>
Created by potrace 1.16, written by Peter Selinger 2001-2019
</metadata>
<g transform="translate(0.000000,110.000000) scale(0.100000,-0.100000)"
fill="#000000" stroke="none">
<path d="M303 990 c-18 -3 -42 -13 -54 -23 -23 -20 -23 -44 1 -129 11 -38 12
-66 2 -150 -7 -57 -15 -148 -17 -203 -3 -55 -10 -116 -15 -135 -5 -19 -12 -72
-16 -117 -10 -125 14 -141 106 -72 88 66 140 93 176 91 18 -2 35 1 38 6 4 6
151 6 561 -2 48 -1 49 0 57 34 4 19 5 102 2 183 -5 141 -4 152 22 229 21 64
36 91 75 131 48 50 58 70 40 82 -6 3 -135 10 -288 15 -264 10 -407 26 -473 53
-27 11 -163 15 -217 7z m105 -55 c2 -2 -8 -19 -22 -39 -13 -20 -39 -71 -56
-114 -18 -42 -33 -78 -34 -79 0 -1 -1 38 -2 85 0 48 -5 96 -11 108 -21 38 7
55 77 47 25 -3 46 -7 48 -8z m150 -22 c23 -3 42 -9 42 -12 0 -4 -19 -18 -42
-31 -24 -12 -53 -32 -66 -43 l-22 -21 1 63 c2 59 3 62 23 56 11 -3 40 -9 64
-12z m342 -37 c25 -2 63 -1 85 3 56 10 68 5 88 -35 13 -26 17 -59 17 -131 l0
-96 -162 8 c-90 3 -194 11 -233 16 -38 6 -106 14 -150 19 -44 5 -107 15 -140
22 -70 15 -71 17 -22 118 l32 65 3 -62 c3 -58 5 -63 25 -63 13 0 39 17 62 40
21 21 63 51 93 65 53 25 165 44 227 39 17 -2 50 -5 75 -8z m285 -14 c7 -4 2
-24 -16 -56 -29 -53 -37 -50 -45 18 -5 45 -4 46 23 46 15 0 33 -4 38 -8z
m-760 -226 l30 -13 -40 -11 c-60 -18 -99 -16 -91 4 3 9 6 20 6 25 0 13 60 10
95 -5z m603 -42 l62 -6 0 -32 0 -33 -172 -9 c-95 -5 -272 -8 -393 -7 -194 2
-221 4 -232 19 -8 11 -9 21 -3 29 11 14 182 38 260 37 30 -1 75 2 100 6 47 8
271 5 378 -4z m53 -133 c12 -11 18 -40 21 -93 5 -84 -1 -93 -52 -76 -14 4
-110 10 -215 12 -104 2 -208 8 -230 14 -22 6 -97 15 -166 20 -128 10 -169 23
-169 53 0 28 6 29 340 68 140 17 348 29 405 23 28 -2 57 -12 66 -21z m-652 3
c2 -2 -30 -4 -72 -4 -43 0 -77 4 -77 10 0 9 139 4 149 -6z m-11 -179 c2 -2
-31 -22 -73 -45 -42 -23 -79 -39 -82 -36 -5 5 -7 71 -4 90 1 4 153 -5 159 -9z"/>
</g>
</svg>
