<?xml version="1.0" standalone="no"?>
<!DOCTYPE svg PUBLIC "-//W3C//DTD SVG 20010904//EN"
 "http://www.w3.org/TR/2001/REC-SVG-20010904/DTD/svg10.dtd">
<svg version="1.0" xmlns="http://www.w3.org/2000/svg"
 width="147.000000pt" height="157.000000pt" viewBox="0 0 147.000000 157.000000"
 preserveAspectRatio="xMidYMid meet">
<metadata>
Created by potrace 1.16, written by Peter Selinger 2001-2019
</metadata>
<g transform="translate(0.000000,157.000000) scale(0.100000,-0.100000)"
fill="#000000" stroke="none">
<path d="M895 1540 c-3 -5 -35 -26 -70 -46 -36 -19 -68 -40 -71 -45 -9 -15 5
-24 17 -12 7 7 18 3 36 -14 l25 -25 -34 -36 c-34 -36 -25 -35 27 4 l31 23 44
-29 c25 -17 50 -32 55 -34 13 -5 -60 -82 -107 -112 -27 -17 -45 -22 -67 -18
l-30 6 6 69 c5 76 0 82 -44 46 -15 -13 -49 -36 -75 -51 -27 -15 -48 -31 -48
-36 0 -23 -36 -7 -70 30 -35 38 -39 40 -54 25 -9 -9 -16 -27 -16 -39 0 -22 -3
-23 -52 -19 -29 2 -72 8 -95 14 -64 14 -81 11 -90 -13 -4 -13 -8 -113 -8 -223
0 -110 -4 -275 -9 -367 -8 -145 -7 -168 6 -173 13 -5 13 -16 3 -81 -6 -41 -9
-76 -7 -79 15 -15 41 2 101 63 70 71 149 114 179 96 23 -15 64 -125 68 -180 2
-40 9 -57 31 -80 16 -16 35 -40 44 -53 12 -19 20 -23 42 -17 22 5 27 12 27 39
0 21 9 40 26 56 14 13 34 41 44 61 11 21 26 40 35 44 9 3 15 13 13 22 -2 9 3
19 10 21 6 3 12 0 12 -6 0 -6 5 -11 11 -11 5 0 8 4 5 9 -3 5 10 23 29 40 31
27 45 51 30 51 -3 0 -31 -18 -61 -41 -54 -40 -56 -40 -76 -22 -11 10 -24 26
-30 36 -7 15 -6 18 9 15 12 -2 19 4 21 18 3 19 12 22 85 28 87 7 228 17 264
20 41 2 44 16 50 222 3 131 9 209 18 229 27 64 66 141 85 170 59 90 54 96 -62
78 -46 -7 -123 -15 -171 -17 -87 -4 -88 -4 -81 17 4 12 8 35 9 50 3 43 18 52
54 31 40 -24 64 -7 32 23 -14 13 -19 26 -15 38 6 15 3 17 -18 12 -55 -14 -75
26 -87 176 -1 10 -29 9 -36 -3z m-7 -46 c-4 -3 -2 -19 2 -36 8 -26 7 -29 -8
-23 -9 4 -30 12 -46 18 l-29 10 34 18 c33 18 58 25 47 13z m-153 -216 c-4 -13
-9 -35 -12 -50 -4 -22 -11 -28 -31 -28 -26 0 -62 25 -62 43 0 5 7 7 15 3 9 -3
15 0 15 7 0 12 52 45 74 46 4 1 5 -9 1 -21z m187 -63 c-2 -14 -9 -25 -16 -26
-6 0 -21 -2 -34 -3 -20 -2 -19 0 10 25 41 35 46 35 40 4z m-422 -14 c0 -10 29
-23 67 -30 3 0 -13 -15 -36 -32 -24 -17 -44 -29 -46 -27 -12 12 -7 98 5 98 6
0 10 -4 10 -9z m-172 -38 c17 -3 32 -8 32 -11 0 -16 -85 -160 -92 -156 -4 3
-8 46 -8 96 0 82 2 90 18 83 9 -4 32 -9 50 -12z m911 8 c8 -5 9 -11 3 -15 -5
-3 -22 -31 -37 -61 -15 -31 -29 -54 -32 -52 -11 12 -4 120 9 128 17 11 39 11
57 0z m-115 -18 c-5 -10 -9 -149 -9 -310 0 -160 -2 -294 -5 -297 -5 -4 -139
-13 -290 -19 l-45 -2 0 52 c0 28 -3 55 -7 58 -11 12 -170 -93 -162 -107 3 -5
12 -4 20 3 11 9 18 9 26 1 9 -9 6 -12 -12 -13 -30 -1 -74 2 -78 6 -1 1 7 26
18 55 11 29 19 55 16 57 -3 3 -42 -16 -88 -42 -46 -25 -70 -44 -55 -40 26 5
27 4 17 -16 -11 -19 -17 -20 -68 -15 -115 13 -142 18 -142 27 0 5 -6 9 -14 9
-10 0 -12 9 -6 43 5 23 11 96 15 162 9 170 12 184 45 222 16 18 39 50 49 71
11 20 33 53 50 72 l30 35 2 -35 c0 -19 2 -48 3 -64 0 -16 7 -31 14 -34 15 -5
118 88 114 103 -2 6 -1 7 3 3 4 -3 21 -1 38 7 41 16 105 9 109 -13 3 -14 5
-13 21 2 23 23 56 15 102 -26 28 -24 35 -36 30 -55 -4 -16 -1 -23 8 -23 22 0
44 31 56 78 7 23 13 42 14 42 1 0 36 3 77 7 41 3 77 7 79 9 2 2 11 4 19 4 10
0 12 -5 6 -17z m-224 -23 c0 -5 -4 -10 -9 -10 -6 0 -13 5 -16 10 -3 6 1 10 9
10 9 0 16 -4 16 -10z m-357 -570 c-16 -40 -33 -53 -33 -26 0 8 -2 21 -5 28 -4
9 4 19 17 26 36 17 37 15 21 -28z m189 0 c-2 -22 -6 -40 -9 -40 -3 0 -13 10
-23 22 -18 22 -18 23 8 40 15 10 27 18 27 18 0 0 -1 -18 -3 -40z m-374 -78
c21 -7 19 -10 -30 -47 -81 -62 -79 -62 -74 -13 3 24 5 49 5 56 1 13 58 15 99
4z m313 -29 c6 -16 24 -42 41 -60 38 -39 32 -49 -55 -93 l-62 -31 -17 76 c-10
42 -23 85 -29 97 -15 28 2 38 64 38 43 0 49 -3 58 -27z m50 -170 c-10 -21 -29
-47 -41 -58 -22 -19 -22 -19 -41 5 -10 14 -19 27 -19 30 0 4 89 49 118 59 1 1
-6 -16 -17 -36z"/>
<path d="M748 927 c-15 -12 -47 -35 -72 -50 -44 -27 -46 -28 -113 -16 -43 7
-84 22 -110 40 -23 15 -45 24 -48 19 -3 -5 -12 -7 -20 -4 -23 9 -48 -54 -53
-138 -7 -126 12 -159 60 -99 13 16 54 52 91 80 67 50 70 51 120 45 32 -4 62
-15 77 -29 54 -47 151 -115 165 -115 23 0 18 13 -15 45 -45 43 -40 82 14 100
40 13 39 29 -2 33 -31 3 -33 6 -32 35 5 85 -10 97 -62 54z m27 -66 c-5 -26
-11 -31 -35 -31 -16 0 -31 4 -35 9 -5 10 65 64 73 56 2 -2 1 -17 -3 -34z
m-333 -25 l47 -24 -44 -31 c-49 -35 -65 -39 -60 -13 2 9 4 34 4 55 1 20 2 37
4 37 1 0 23 -11 49 -24z m328 -61 c0 -13 -4 -14 -20 -5 -11 6 -20 13 -20 15 0
3 9 5 20 5 11 0 20 -7 20 -15z"/>
</g>
</svg>
