<?xml version="1.0" standalone="no"?>
<!DOCTYPE svg PUBLIC "-//W3C//DTD SVG 20010904//EN"
 "http://www.w3.org/TR/2001/REC-SVG-20010904/DTD/svg10.dtd">
<svg version="1.0" xmlns="http://www.w3.org/2000/svg"
 width="130.000000pt" height="118.000000pt" viewBox="0 0 130.000000 118.000000"
 preserveAspectRatio="xMidYMid meet">
<metadata>
Created by potrace 1.16, written by Peter Selinger 2001-2019
</metadata>
<g transform="translate(0.000000,118.000000) scale(0.100000,-0.100000)"
fill="#000000" stroke="none">
<path d="M462 1118 c-8 -31 -12 -33 -55 -36 -26 -2 -72 2 -104 7 -48 9 -59 9
-75 -6 -19 -17 -25 -53 -8 -53 13 0 38 -60 45 -113 4 -23 8 -226 9 -452 3
-405 4 -410 24 -413 15 -2 31 11 60 50 22 29 57 72 79 96 l39 43 154 5 c217 7
250 9 290 18 56 13 61 21 52 90 -7 63 -7 97 -3 346 2 109 7 149 17 161 8 9 14
21 12 26 -2 6 16 41 40 78 28 45 42 77 40 94 l-3 26 -90 -4 c-49 -2 -99 -8
-109 -13 -19 -10 -19 -11 -1 -24 10 -8 22 -36 28 -66 12 -62 16 -205 7 -257
-7 -42 5 -40 -160 -17 -155 21 -200 31 -273 61 -57 23 -63 23 -74 9 -17 -23
-26 -90 -19 -144 2 -25 5 -57 5 -72 1 -37 29 -37 84 1 107 73 209 94 373 76
l64 -7 -1 -117 c0 -64 3 -125 7 -134 5 -13 1 -20 -14 -24 -12 -3 -18 -11 -15
-19 4 -12 -5 -16 -67 -28 -32 -6 -249 12 -333 28 -49 9 -106 25 -128 36 l-39
21 5 175 c5 157 8 178 28 209 12 18 33 52 46 74 22 37 26 39 41 26 15 -14 20
-13 51 9 19 14 59 42 89 63 l55 38 106 0 c75 0 111 4 122 14 26 21 9 33 -42
30 -25 -2 -62 2 -81 8 -19 6 -65 14 -102 17 -81 6 -127 28 -141 67 -15 38 -24
37 -35 -3z m536 -133 c-24 -49 -36 -47 -44 7 -6 34 -5 35 30 36 l35 1 -21 -44z
m-614 -95 c-32 -55 -61 -95 -65 -89 -3 6 -7 40 -8 77 -1 37 -4 81 -7 99 l-6
32 68 3 c49 2 70 -1 72 -10 2 -7 -23 -57 -54 -112z m185 104 c6 -6 -7 -17 -51
-43 -38 -23 -38 -23 -38 -2 0 32 36 63 63 55 12 -3 24 -8 26 -10z m-59 -315
l45 -21 -48 -24 c-26 -14 -52 -22 -57 -19 -15 9 -12 85 3 85 6 0 32 -10 57
-21z m-116 -409 c37 0 33 -14 -19 -68 l-45 -47 0 68 c0 64 1 67 19 57 11 -5
31 -10 45 -10z"/>
</g>
</svg>
