<?xml version="1.0" standalone="no"?>
<!DOCTYPE svg PUBLIC "-//W3C//DTD SVG 20010904//EN"
 "http://www.w3.org/TR/2001/REC-SVG-20010904/DTD/svg10.dtd">
<svg version="1.0" xmlns="http://www.w3.org/2000/svg"
 width="86.000000pt" height="64.000000pt" viewBox="0 0 86.000000 64.000000"
 preserveAspectRatio="xMidYMid meet">
<metadata>
Created by potrace 1.16, written by Peter Selinger 2001-2019
</metadata>
<g transform="translate(0.000000,64.000000) scale(0.100000,-0.100000)"
fill="#000000" stroke="none">
<path d="M595 534 c-32 -19 -79 -49 -104 -67 -95 -68 -167 -106 -188 -101 -15
4 -25 0 -32 -15 -7 -12 -18 -21 -26 -21 -7 0 -17 -5 -21 -12 -5 -8 2 -9 25 -5
27 6 33 3 40 -16 5 -12 27 -45 48 -72 22 -28 42 -55 44 -62 2 -6 29 -31 60
-56 76 -62 93 -48 34 27 -50 65 -50 65 -31 127 8 24 19 70 26 101 6 31 19 67
30 80 19 24 88 69 76 49 -10 -15 22 -27 37 -12 8 8 8 11 -3 11 -7 0 4 15 25
33 54 47 30 54 -40 11z m-161 -164 c-8 -25 -19 -64 -25 -88 -9 -37 -12 -42
-25 -31 -16 13 -58 89 -52 94 10 8 113 73 115 71 1 -1 -5 -22 -13 -46z"/>
</g>
</svg>
