<?xml version="1.0" standalone="no"?>
<!DOCTYPE svg PUBLIC "-//W3C//DTD SVG 20010904//EN"
 "http://www.w3.org/TR/2001/REC-SVG-20010904/DTD/svg10.dtd">
<svg version="1.0" xmlns="http://www.w3.org/2000/svg"
 width="102.000000pt" height="82.000000pt" viewBox="0 0 102.000000 82.000000"
 preserveAspectRatio="xMidYMid meet">
<metadata>
Created by potrace 1.16, written by Peter Selinger 2001-2019
</metadata>
<g transform="translate(0.000000,82.000000) scale(0.100000,-0.100000)"
fill="#000000" stroke="none">
<path d="M730 698 c-14 -5 -84 -9 -156 -10 -72 0 -137 -4 -144 -8 -17 -10 -4
-30 20 -30 20 0 38 -54 47 -144 l5 -48 -63 7 c-61 6 -81 11 -174 41 -75 24
-112 26 -130 7 -18 -18 -18 -39 4 -208 6 -44 8 -109 4 -143 -4 -49 -3 -66 8
-73 21 -13 22 -13 75 39 28 26 80 66 116 90 58 38 72 43 115 40 55 -3 54 0 38
-126 -7 -58 -6 -64 11 -60 20 3 31 37 42 126 8 65 3 63 176 85 67 8 101 17
104 26 4 11 -15 13 -109 7 -63 -4 -124 -9 -135 -12 -17 -4 -22 0 -27 23 -3 15
-1 35 4 45 5 9 9 25 9 36 0 15 12 21 53 31 43 9 201 31 229 31 5 0 8 5 8 12 0
8 -32 9 -120 4 -66 -4 -127 -9 -135 -12 -12 -5 -11 3 7 32 44 78 84 123 147
171 24 17 2 33 -29 21z m-60 -55 c0 -3 -22 -35 -49 -72 -26 -36 -53 -75 -59
-86 -9 -17 -11 -15 -16 20 -4 22 -13 60 -21 85 -8 25 -15 48 -15 53 0 4 36 7
80 6 44 -1 80 -4 80 -6z m-414 -184 l68 -21 -40 -34 c-21 -19 -51 -43 -66 -54
l-26 -20 -11 50 c-13 62 -14 100 -2 100 5 0 39 -9 77 -21z m247 -100 l2 -56
-90 2 c-49 1 -110 3 -135 4 l-45 2 50 45 c65 58 78 64 153 61 l64 -2 1 -56z
m-190 -96 l39 -6 -64 -40 c-34 -22 -73 -49 -85 -60 l-23 -20 0 60 c0 40 4 63
13 66 18 8 76 8 120 0z"/>
</g>
</svg>
