<?xml version="1.0" standalone="no"?>
<!DOCTYPE svg PUBLIC "-//W3C//DTD SVG 20010904//EN"
 "http://www.w3.org/TR/2001/REC-SVG-20010904/DTD/svg10.dtd">
<svg version="1.0" xmlns="http://www.w3.org/2000/svg"
 width="112.000000pt" height="98.000000pt" viewBox="0 0 112.000000 98.000000"
 preserveAspectRatio="xMidYMid meet">
<metadata>
Created by potrace 1.16, written by Peter Selinger 2001-2019
</metadata>
<g transform="translate(0.000000,98.000000) scale(0.100000,-0.100000)"
fill="#000000" stroke="none">
<path d="M660 904 c-30 -7 -101 -16 -157 -20 -78 -5 -103 -10 -103 -21 0 -11
11 -12 52 -7 l51 7 -6 -114 c-6 -128 -11 -149 -35 -144 -9 1 -42 6 -72 10 -79
10 -144 30 -179 55 -16 13 -34 19 -39 16 -16 -10 -30 -101 -31 -214 -3 -141
-9 -141 172 -9 32 23 72 50 89 59 17 9 35 23 39 30 6 10 11 10 19 2 9 -9 9
-31 -1 -85 -14 -84 -2 -250 18 -256 15 -5 20 14 33 122 6 50 13 110 16 135 10
78 46 89 276 91 80 1 123 5 135 14 17 13 17 14 0 21 -10 3 -94 5 -188 2 -93
-2 -169 -2 -169 0 0 8 129 262 145 284 29 42 23 44 -65 22z m3 -66 c-41 -64
-49 -77 -84 -143 -17 -33 -32 -61 -33 -62 -1 -2 -1 32 2 75 2 43 -1 95 -6 115
l-10 36 46 6 c26 4 61 10 77 14 17 5 32 7 33 5 2 -1 -9 -22 -25 -46z m-388
-249 c78 -17 117 -27 122 -33 4 -3 1 -6 -6 -6 -7 0 -53 -29 -103 -65 -50 -36
-92 -64 -93 -63 -1 2 0 45 3 96 4 81 7 92 21 86 9 -3 34 -10 56 -15z"/>
</g>
</svg>
