<?xml version="1.0" standalone="no"?>
<!DOCTYPE svg PUBLIC "-//W3C//DTD SVG 20010904//EN"
 "http://www.w3.org/TR/2001/REC-SVG-20010904/DTD/svg10.dtd">
<svg version="1.0" xmlns="http://www.w3.org/2000/svg"
 width="259.000000pt" height="114.000000pt" viewBox="0 0 259.000000 114.000000"
 preserveAspectRatio="xMidYMid meet">
<metadata>
Created by potrace 1.16, written by Peter Selinger 2001-2019
</metadata>
<g transform="translate(0.000000,114.000000) scale(0.100000,-0.100000)"
fill="#000000" stroke="none">
<path d="M1374 1043 c-39 -36 -98 -67 -164 -88 -38 -12 -57 -49 -22 -43 12 2
34 -12 60 -38 l41 -41 -82 5 c-89 5 -147 25 -155 54 -2 10 -11 18 -18 18 -19
0 -34 -41 -34 -91 0 -22 -5 -50 -11 -61 -20 -37 -29 1 -23 92 5 66 11 90 27
108 15 16 18 25 10 33 -8 8 -22 1 -49 -23 -60 -53 -185 -90 -196 -57 -2 7 -17
7 -48 0 -30 -7 -48 -7 -57 0 -6 6 -21 8 -32 4 -12 -3 -26 -3 -33 2 -7 4 -58 9
-113 10 -55 1 -118 7 -140 13 -65 19 -119 21 -139 7 -24 -17 -15 -33 23 -40
37 -8 40 -23 48 -219 6 -162 2 -201 -19 -180 -7 7 -19 12 -29 12 -9 0 -27 9
-41 19 -13 11 -33 21 -43 23 -19 3 -20 -2 -17 -109 2 -61 -2 -155 -8 -210 -6
-54 -12 -106 -13 -117 -1 -10 6 -23 16 -30 15 -9 24 -4 57 34 22 25 40 48 40
52 0 15 195 198 210 198 9 0 20 3 24 7 3 4 98 6 210 5 169 -2 206 1 216 13 10
12 10 16 -1 19 -25 8 -152 18 -259 20 -124 3 -257 22 -286 41 -19 12 -20 20
-16 106 4 77 9 101 29 134 46 73 68 105 74 105 4 0 7 -64 8 -142 0 -79 1 -145
1 -147 0 -2 6 2 14 8 8 6 14 32 14 59 2 72 12 120 28 126 8 3 14 13 14 23 1
10 7 32 14 48 12 27 13 16 10 -92 -3 -94 -1 -123 8 -123 9 0 13 21 13 75 0 74
1 75 40 115 l40 40 2 -81 c0 -44 6 -86 13 -94 9 -11 5 -14 -21 -17 -44 -4 -48
-24 -7 -32 18 -3 62 -13 98 -21 l65 -14 -130 0 c-159 1 -150 2 -137 -14 8 -9
48 -14 129 -15 110 -3 187 -17 178 -32 -2 -4 -70 -5 -152 -2 -107 3 -163 9
-207 23 -40 13 -63 16 -70 9 -5 -5 -7 -12 -4 -15 17 -17 139 -37 244 -39 67
-2 125 -6 130 -9 5 -3 34 -2 64 2 47 6 61 3 97 -16 58 -32 67 -11 14 37 -22
21 -41 42 -41 46 0 5 9 34 20 64 11 30 20 64 20 75 0 14 10 24 31 32 l30 12
-7 -32 c-11 -45 -6 -150 8 -158 10 -7 7 -74 -8 -166 -8 -50 12 -49 72 4 110
96 201 131 101 38 -33 -30 -56 -58 -54 -63 11 -16 206 -95 221 -89 14 6 13 11
-5 41 -18 30 -19 44 -13 106 3 39 11 73 15 76 5 3 9 14 9 25 0 10 5 19 10 19
6 0 36 26 66 58 l55 57 -6 -62 c-5 -57 -4 -63 13 -63 10 0 43 18 73 40 52 40
68 46 119 52 17 2 25 9 23 21 -1 13 4 17 14 13 8 -4 25 -9 38 -12 20 -5 23
-11 19 -37 -21 -156 -23 -192 -15 -200 19 -19 28 5 34 90 10 137 14 150 43
139 15 -6 16 -19 10 -126 -6 -102 -5 -120 8 -120 11 0 16 24 21 120 l8 120 27
0 c28 0 28 -1 35 -82 4 -46 4 -102 2 -125 -6 -48 13 -86 34 -66 8 8 12 54 14
135 1 118 2 123 23 126 21 3 22 0 24 -110 1 -62 1 -128 0 -145 -1 -34 10 -43
25 -20 4 6 8 68 8 137 l0 125 70 -3 c61 -2 83 -9 170 -52 114 -57 165 -71 165
-47 0 17 -46 57 -66 57 -16 0 -23 36 -26 128 l-3 74 40 33 c22 19 36 37 33 41
-12 11 -59 -6 -81 -30 -12 -13 -38 -41 -58 -62 -46 -51 -138 -99 -173 -90 -26
6 -26 7 -11 42 8 19 28 52 45 72 17 21 30 48 30 64 0 32 2 31 -39 17 -19 -7
-36 -8 -44 -2 -6 5 -49 9 -93 9 -64 -1 -80 2 -76 13 8 21 -18 31 -83 31 -34 0
-66 5 -73 12 -9 9 -15 9 -24 0 -9 -9 -9 -19 0 -45 19 -53 11 -187 -12 -187 -6
0 -33 9 -61 19 -27 11 -62 22 -76 25 -15 3 -46 25 -69 48 l-43 43 -20 -27 -20
-27 -33 44 -34 43 14 94 c8 51 19 105 25 120 15 41 -1 41 -45 1z m-5 -50 c-4
-16 -12 -52 -16 -81 l-8 -52 -45 41 -45 41 30 15 c17 9 32 19 35 23 5 6 52 40
56 40 1 0 -2 -12 -7 -27z m-436 -161 l-6 -51 -44 30 -43 30 42 35 c50 42 61
33 51 -44z m-537 45 c1 -1 -18 -36 -42 -77 -35 -60 -44 -69 -44 -48 0 15 -5
50 -12 78 -14 62 -5 72 55 58 23 -5 42 -10 43 -11z m322 1 c-2 -7 5 -12 15
-10 9 2 17 -1 17 -6 0 -14 -27 -34 -32 -25 -3 4 -3 2 -1 -6 2 -7 -10 -28 -26
-47 -28 -31 -30 -32 -36 -13 -4 10 -5 38 -4 62 3 32 8 44 24 49 33 10 45 9 43
-4z m-233 -15 c-4 -10 -13 -38 -20 -63 l-13 -45 -1 47 c-1 25 -4 53 -7 62 -5
12 0 16 21 16 22 0 26 -3 20 -17z m115 -8 c-14 -36 -41 -75 -52 -75 -6 0 -8
18 -4 43 3 23 5 45 5 50 1 4 14 7 31 7 27 0 29 -2 20 -25z m191 -12 c-12 -20
-14 -14 -5 12 4 9 9 14 11 11 3 -2 0 -13 -6 -23z m307 -29 c2 -1 -11 -9 -27
-17 l-31 -15 0 34 0 34 28 -17 c15 -9 28 -18 30 -19z m736 -11 c-14 -18 -32
-48 -40 -65 -11 -25 -14 -27 -10 -8 3 14 6 44 6 67 0 40 1 41 35 40 l34 -1
-25 -33z m-1077 -48 c-2 -42 -6 -77 -8 -80 -2 -2 -23 -1 -47 2 -34 5 -42 9
-42 27 0 18 82 126 96 126 3 0 4 -34 1 -75z m587 26 l20 -21 -39 -1 c-22 0
-49 -2 -60 -4 -28 -6 -187 7 -179 14 3 3 28 13 57 22 71 22 173 17 201 -10z
m706 24 c0 0 -16 -31 -35 -69 -33 -66 -39 -99 -12 -63 11 16 12 15 13 -8 2
-22 -2 -25 -25 -23 -28 3 -38 24 -40 88 -2 52 23 81 65 78 19 -1 34 -2 34 -3z
m-135 -41 c-14 -20 -25 -43 -25 -51 0 -8 -10 -27 -21 -41 l-21 -27 6 60 c11
91 13 95 51 95 l34 0 -24 -36z m235 31 c0 -3 -16 -25 -35 -51 -19 -25 -35 -51
-35 -58 0 -7 -7 -21 -16 -32 -14 -18 -15 -16 -11 29 4 38 2 47 -9 43 -12 -5
-12 -1 1 23 10 20 26 32 52 39 47 12 53 13 53 7z m-1295 -25 c12 -4 27 -15 34
-24 12 -14 10 -16 -17 -16 -16 0 -43 3 -59 6 -25 5 -29 10 -25 30 5 25 9 26
67 4z m214 -69 c-51 -40 -69 -45 -69 -17 0 30 35 53 73 48 l29 -5 -33 -26z
m338 7 c28 -26 29 -37 6 -37 -10 0 -93 -3 -185 -7 -93 -4 -168 -4 -168 -1 0 4
17 18 39 31 31 20 52 25 106 25 37 0 70 2 73 5 3 3 28 6 56 6 37 0 55 -5 73
-22z m423 -18 c0 -36 -2 -40 -26 -40 -14 0 -24 3 -22 8 7 15 43 72 46 72 1 0
2 -18 2 -40z m-952 15 c6 -5 -66 -45 -82 -45 -19 0 -31 23 -23 44 4 10 18 12
54 9 26 -3 49 -7 51 -8z m708 -39 l47 -12 -65 -32 c-36 -18 -67 -32 -69 -32
-2 0 -2 27 -1 61 4 58 5 60 22 44 10 -9 40 -22 66 -29z m325 -19 c-18 -18 -31
2 -19 29 l12 26 8 -23 c5 -13 5 -26 -1 -32z m408 -41 c1 -18 0 -18 -17 -3 -9
8 -30 21 -46 27 -32 12 -31 12 16 45 l33 23 7 -37 c4 -20 7 -45 7 -55z m-1446
1 c-17 -60 -23 -66 -43 -42 -9 10 -9 15 -1 15 6 0 11 7 11 16 0 11 -6 15 -20
11 -11 -3 -23 -1 -26 4 -3 5 4 9 15 9 11 0 33 11 48 24 15 13 29 23 30 22 2
-1 -5 -28 -14 -59z m-108 19 c-26 -18 -33 -19 -78 -12 -57 9 -34 26 36 26 55
0 59 -1 42 -14z m295 7 c0 -10 -42 -53 -52 -53 -15 0 -8 39 10 49 20 12 42 14
42 4z m309 -29 l-36 -36 -50 18 c-43 15 -62 16 -137 8 l-88 -10 28 23 c25 19
42 23 129 25 55 2 120 4 145 6 l45 2 -36 -36z m-275 -76 c-22 -26 -57 -57 -64
-58 -3 0 -6 16 -7 34 -3 34 -2 35 40 39 23 2 44 4 46 5 2 1 -4 -8 -15 -20z
m184 13 c11 -6 7 -13 -14 -30 -22 -17 -40 -21 -102 -21 l-76 0 29 30 c26 27
35 30 89 30 34 0 67 -4 74 -9z m-1072 -79 c21 -11 70 -27 107 -37 l69 -18 -95
-96 c-53 -53 -107 -109 -122 -126 -20 -23 -25 -26 -21 -10 8 35 19 168 18 238
0 37 1 67 2 67 1 0 20 -8 42 -18z m894 -11 c0 -11 -90 -85 -96 -79 -11 12 10
65 29 75 27 13 67 16 67 4z m157 -53 c-5 -35 -10 -64 -11 -65 -4 -5 -86 39
-85 46 0 7 90 79 100 80 3 1 2 -27 -4 -61z"/>
</g>
</svg>
