<?xml version="1.0" standalone="no"?>
<!DOCTYPE svg PUBLIC "-//W3C//DTD SVG 20010904//EN"
 "http://www.w3.org/TR/2001/REC-SVG-20010904/DTD/svg10.dtd">
<svg version="1.0" xmlns="http://www.w3.org/2000/svg"
 width="69.000000pt" height="99.000000pt" viewBox="0 0 69.000000 99.000000"
 preserveAspectRatio="xMidYMid meet">
<metadata>
Created by potrace 1.16, written by Peter Selinger 2001-2019
</metadata>
<g transform="translate(0.000000,99.000000) scale(0.100000,-0.100000)"
fill="#000000" stroke="none">
<path d="M253 892 c-7 -4 -12 -16 -12 -27 1 -11 -4 -47 -10 -81 -11 -64 -15
-114 -26 -329 -3 -72 -10 -157 -16 -191 -7 -41 -7 -73 -1 -97 7 -24 7 -38 -1
-46 -19 -19 20 -24 54 -7 18 9 36 16 41 16 18 0 144 90 185 132 49 50 112 163
115 204 1 16 5 34 9 39 6 9 -10 123 -26 191 -2 11 -22 43 -44 70 -35 44 -66
67 -151 109 -33 17 -102 27 -117 17z m77 -60 c0 -4 15 -13 33 -20 47 -17 104
-68 130 -115 19 -37 21 -57 21 -157 -1 -108 -3 -119 -32 -176 -27 -52 -98
-137 -143 -169 -23 -17 -99 -55 -109 -55 -6 0 -10 9 -10 20 0 11 5 20 10 20 6
0 10 19 9 43 -1 37 7 170 26 443 3 45 10 95 14 111 5 17 5 37 -1 46 -7 14 -4
17 22 17 16 0 30 -4 30 -8z"/>
</g>
</svg>
