<?xml version="1.0" standalone="no"?>
<!DOCTYPE svg PUBLIC "-//W3C//DTD SVG 20010904//EN"
 "http://www.w3.org/TR/2001/REC-SVG-20010904/DTD/svg10.dtd">
<svg version="1.0" xmlns="http://www.w3.org/2000/svg"
 width="107.000000pt" height="97.000000pt" viewBox="0 0 107.000000 97.000000"
 preserveAspectRatio="xMidYMid meet">
<metadata>
Created by potrace 1.16, written by Peter Selinger 2001-2019
</metadata>
<g transform="translate(0.000000,97.000000) scale(0.100000,-0.100000)"
fill="#000000" stroke="none">
<path d="M382 843 c-20 -15 -21 -20 -10 -36 21 -28 81 -33 291 -24 l97 5 6
-27 c18 -80 28 -76 38 17 l6 62 -43 2 c-23 0 -100 2 -172 2 -71 1 -144 5 -160
10 -23 6 -36 3 -53 -11z"/>
<path d="M381 718 c-6 -29 -11 -77 -13 -105 -1 -30 -6 -53 -12 -53 -6 -1 -45
-5 -86 -10 -69 -8 -78 -6 -125 17 -27 14 -52 29 -55 32 -3 4 -15 8 -27 8 -32
2 -44 -46 -41 -158 4 -113 15 -122 82 -62 23 21 61 52 85 68 24 17 51 37 61
46 9 9 39 19 66 23 l49 6 3 -77 c2 -43 5 -103 6 -134 5 -100 70 -184 142 -182
81 2 141 87 218 308 l21 60 61 6 c33 3 66 9 74 14 7 4 30 7 52 7 21 -1 38 2
38 7 0 17 -38 22 -77 12 -21 -5 -60 -11 -88 -13 -41 -2 -49 0 -46 12 2 8 5 44
7 80 l3 65 -10 -50 c-5 -27 -15 -68 -21 -90 -6 -22 -13 -48 -15 -57 -4 -25
-60 -163 -88 -217 -28 -57 -72 -97 -117 -106 -29 -7 -36 -4 -64 29 -39 45 -44
67 -51 231 -3 72 -5 137 -6 145 0 8 3 54 7 103 7 74 6 87 -7 87 -11 0 -19 -17
-26 -52z m-195 -201 c24 -1 44 -3 44 -4 0 0 -28 -20 -62 -42 -35 -22 -73 -48
-84 -56 -21 -16 -22 -15 -28 47 -4 35 -4 71 -1 80 6 16 10 16 47 -3 22 -11 60
-21 84 -22z"/>
</g>
</svg>
