<?xml version="1.0" standalone="no"?>
<!DOCTYPE svg PUBLIC "-//W3C//DTD SVG 20010904//EN"
 "http://www.w3.org/TR/2001/REC-SVG-20010904/DTD/svg10.dtd">
<svg version="1.0" xmlns="http://www.w3.org/2000/svg"
 width="85.000000pt" height="78.000000pt" viewBox="0 0 85.000000 78.000000"
 preserveAspectRatio="xMidYMid meet">
<metadata>
Created by potrace 1.16, written by Peter Selinger 2001-2019
</metadata>
<g transform="translate(0.000000,78.000000) scale(0.100000,-0.100000)"
fill="#000000" stroke="none">
<path d="M546 693 c-4 -5 -78 -10 -164 -13 l-157 -5 -8 -48 c-4 -28 -4 -71 2
-102 9 -50 -1 -225 -16 -265 -3 -8 -7 -40 -9 -70 -2 -30 -6 -65 -9 -76 -5 -25
20 -53 35 -38 5 5 12 34 15 64 5 53 23 162 30 187 5 17 72 -11 105 -43 36 -35
98 -99 148 -152 32 -34 45 -43 54 -34 9 9 7 19 -10 39 -12 16 -35 52 -52 80
-17 29 -35 55 -41 58 -12 8 -12 121 1 145 10 18 90 70 109 70 5 0 45 22 87 50
43 27 91 52 106 56 29 6 33 27 7 32 -8 1 -43 -15 -76 -37 -88 -57 -193 -111
-215 -111 -10 0 -18 -4 -18 -8 0 -4 -19 -15 -42 -24 -24 -9 -61 -24 -83 -33
-35 -15 -23 1 100 124 77 77 141 145 143 151 4 12 -31 14 -42 3z m-69 -82
c-19 -22 -75 -80 -124 -129 l-88 -90 0 66 c0 37 -4 93 -8 124 l-8 57 68 4 c37
2 97 4 132 5 l63 2 -35 -39z m-37 -196 c-6 -8 -13 -37 -13 -64 -2 -50 -10 -54
-35 -19 -8 10 -28 25 -45 32 -29 12 -30 14 -12 21 11 4 38 16 60 26 48 23 62
24 45 4z"/>
</g>
</svg>
