<?xml version="1.0" standalone="no"?>
<!DOCTYPE svg PUBLIC "-//W3C//DTD SVG 20010904//EN"
 "http://www.w3.org/TR/2001/REC-SVG-20010904/DTD/svg10.dtd">
<svg version="1.0" xmlns="http://www.w3.org/2000/svg"
 width="78.000000pt" height="66.000000pt" viewBox="0 0 78.000000 66.000000"
 preserveAspectRatio="xMidYMid meet">
<metadata>
Created by potrace 1.16, written by Peter Selinger 2001-2019
</metadata>
<g transform="translate(0.000000,66.000000) scale(0.100000,-0.100000)"
fill="#000000" stroke="none">
<path d="M483 518 c-76 -71 -167 -134 -221 -152 -20 -7 -37 -17 -39 -23 -2 -5
19 -23 47 -39 28 -16 71 -40 94 -54 24 -14 70 -49 102 -78 66 -61 121 -89 138
-71 8 8 7 13 -4 17 -21 7 -141 128 -156 158 -7 14 -10 22 -5 20 4 -3 6 16 3
43 -6 68 11 112 70 176 28 31 48 58 45 61 -3 3 -36 -23 -74 -58z m-71 -114
c-5 -8 -5 -37 -1 -62 4 -26 5 -49 3 -51 -5 -6 -114 51 -114 59 1 6 102 69 113
70 4 0 4 -7 -1 -16z"/>
</g>
</svg>
