<?xml version="1.0" standalone="no"?>
<!DOCTYPE svg PUBLIC "-//W3C//DTD SVG 20010904//EN"
 "http://www.w3.org/TR/2001/REC-SVG-20010904/DTD/svg10.dtd">
<svg version="1.0" xmlns="http://www.w3.org/2000/svg"
 width="93.000000pt" height="87.000000pt" viewBox="0 0 93.000000 87.000000"
 preserveAspectRatio="xMidYMid meet">
<metadata>
Created by potrace 1.16, written by Peter Selinger 2001-2019
</metadata>
<g transform="translate(0.000000,87.000000) scale(0.100000,-0.100000)"
fill="#000000" stroke="none">
<path d="M455 770 c-61 -13 -94 -27 -160 -72 -66 -44 -175 -146 -175 -163 0
-6 -10 -31 -22 -56 -27 -54 -28 -138 -2 -177 31 -47 108 -116 155 -139 33 -17
72 -24 146 -29 l101 -7 86 42 c78 38 92 49 136 108 75 104 92 143 92 222 0 42
-6 80 -16 98 -30 60 -105 140 -143 156 -49 19 -147 28 -198 17z m158 -52 c39
-8 53 -17 71 -47 13 -20 31 -42 40 -50 28 -24 46 -104 36 -166 -11 -65 -19
-82 -79 -158 -74 -95 -160 -130 -290 -117 -95 10 -177 50 -210 104 -11 18 -29
41 -41 51 -30 27 -25 77 15 162 19 41 33 78 30 83 -5 8 23 36 34 34 10 -3 91
47 99 61 4 7 40 25 81 38 78 27 115 27 214 5z"/>
</g>
</svg>
