<?xml version="1.0" standalone="no"?>
<!DOCTYPE svg PUBLIC "-//W3C//DTD SVG 20010904//EN"
 "http://www.w3.org/TR/2001/REC-SVG-20010904/DTD/svg10.dtd">
<svg version="1.0" xmlns="http://www.w3.org/2000/svg"
 width="120.000000pt" height="97.000000pt" viewBox="0 0 120.000000 97.000000"
 preserveAspectRatio="xMidYMid meet">
<metadata>
Created by potrace 1.16, written by Peter Selinger 2001-2019
</metadata>
<g transform="translate(0.000000,97.000000) scale(0.100000,-0.100000)"
fill="#000000" stroke="none">
<path d="M738 922 c-4 -11 -124 -92 -136 -92 -6 0 -13 -7 -16 -16 -8 -22 -8
-22 10 -26 44 -8 -341 -318 -395 -318 -9 0 -25 -6 -36 -13 -17 -13 -17 -15 5
-55 16 -28 38 -49 67 -63 24 -11 43 -24 43 -28 0 -4 -29 -25 -65 -46 -36 -21
-68 -42 -71 -47 -10 -16 31 -8 66 13 28 18 48 21 105 20 48 -2 72 -7 78 -17 4
-8 17 -14 28 -14 11 0 36 -11 57 -24 20 -14 55 -29 77 -35 46 -13 68 -28 78
-53 4 -10 12 -15 21 -12 8 3 38 -12 69 -35 61 -47 87 -52 88 -18 0 12 12 61
27 109 26 83 31 91 107 169 44 45 97 93 118 106 36 23 50 53 24 53 -16 0 -108
-88 -160 -153 -48 -60 -177 -162 -223 -177 -31 -11 -38 -9 -81 19 -41 28 -56
33 -80 30 -3 0 -10 6 -15 15 -5 9 -27 25 -49 37 -31 15 -40 25 -38 42 4 34
-12 126 -22 133 -6 3 -27 -14 -48 -38 -22 -23 -42 -40 -46 -36 -4 4 -1 42 8
84 8 42 13 82 11 89 -3 7 15 24 43 40 26 16 77 57 113 91 90 87 144 134 153
134 4 0 7 -6 7 -14 0 -14 68 -74 110 -96 13 -7 38 -27 55 -44 66 -67 216 -169
229 -156 9 9 -185 208 -244 250 -30 21 -30 23 -30 111 0 81 -2 89 -19 89 -11
0 -21 -4 -23 -8z m-8 -73 c0 -11 5 -29 10 -39 16 -29 -4 -32 -30 -5 -13 14
-31 25 -39 25 -10 0 -4 8 14 19 39 25 45 25 45 0z m-431 -407 c-6 -34 -15 -62
-19 -62 -10 0 -60 58 -60 68 1 7 83 62 87 58 2 -1 -2 -30 -8 -64z m110 -143
c1 -13 -11 -16 -61 -17 -61 -2 -62 -1 -36 13 15 8 40 27 55 41 l28 26 6 -24
c4 -12 7 -30 8 -39z m407 -121 c-2 -7 -10 -34 -16 -60 -7 -27 -15 -48 -19 -48
-14 1 -75 62 -66 66 6 2 28 15 50 28 47 28 56 31 51 14z"/>
<path d="M552 521 c-56 -54 -102 -104 -102 -111 0 -17 93 -106 129 -125 15 -7
43 -16 64 -20 52 -10 49 14 -5 40 -32 16 -44 29 -51 55 -11 44 -2 125 18 156
8 13 15 29 15 36 0 7 11 26 25 41 14 15 22 27 17 27 -4 0 -54 -44 -110 -99z
m0 -79 c-3 -35 -7 -41 -18 -31 -18 15 -18 29 2 57 20 29 22 27 16 -26z"/>
<path d="M744 505 c-41 -42 -81 -75 -95 -77 -27 -3 -40 -38 -14 -38 23 0 87
-34 109 -59 22 -25 76 -29 76 -6 0 8 -7 15 -16 15 -13 0 -15 7 -10 38 17 109
18 123 7 135 -8 11 -6 18 9 32 20 18 26 35 13 35 -5 -1 -40 -34 -79 -75z m32
-68 c-4 -28 -9 -54 -12 -59 -3 -4 -19 2 -37 15 -18 12 -34 23 -36 25 -8 4 74
77 83 73 4 -2 5 -26 2 -54z"/>
</g>
</svg>
