<?xml version="1.0" standalone="no"?>
<!DOCTYPE svg PUBLIC "-//W3C//DTD SVG 20010904//EN"
 "http://www.w3.org/TR/2001/REC-SVG-20010904/DTD/svg10.dtd">
<svg version="1.0" xmlns="http://www.w3.org/2000/svg"
 width="110.000000pt" height="112.000000pt" viewBox="0 0 110.000000 112.000000"
 preserveAspectRatio="xMidYMid meet">
<metadata>
Created by potrace 1.16, written by Peter Selinger 2001-2019
</metadata>
<g transform="translate(0.000000,112.000000) scale(0.100000,-0.100000)"
fill="#000000" stroke="none">
<path d="M360 953 c-19 -20 -66 -56 -105 -81 -38 -24 -82 -56 -97 -69 l-27
-26 34 -49 c18 -28 81 -99 138 -158 58 -59 113 -121 123 -136 16 -25 45 -60
135 -163 13 -15 24 -20 30 -14 11 11 -36 98 -81 149 -15 17 -50 70 -79 117
-50 83 -52 89 -52 160 0 40 7 119 15 176 23 153 23 153 -34 94z m-18 -120 c-6
-32 -14 -86 -17 -120 -4 -35 -10 -63 -13 -63 -4 1 -25 24 -47 52 -22 27 -50
60 -62 71 -31 28 -29 32 15 52 20 10 57 31 82 46 24 15 46 26 49 24 2 -3 -1
-30 -7 -62z"/>
<path d="M928 955 c-2 -3 -85 -6 -184 -7 -171 -3 -179 -4 -179 -23 0 -15 8
-21 33 -23 31 -3 33 -5 19 -20 -45 -51 -71 -296 -47 -442 11 -71 48 -158 76
-181 17 -14 67 -14 101 0 51 21 140 169 179 295 32 102 47 136 60 136 17 0 18
17 2 22 -9 3 -9 11 0 34 6 16 14 51 17 78 4 27 10 57 16 67 14 27 11 39 -13
48 -37 13 -75 21 -80 16z m48 -67 c18 -19 14 -88 -9 -153 -14 -38 -35 -97 -47
-130 -41 -114 -107 -241 -147 -283 -48 -51 -82 -55 -111 -14 -42 61 -46 88
-46 306 -1 235 6 272 52 279 39 6 301 2 308 -5z"/>
</g>
</svg>
