<?xml version="1.0" standalone="no"?>
<!DOCTYPE svg PUBLIC "-//W3C//DTD SVG 20010904//EN"
 "http://www.w3.org/TR/2001/REC-SVG-20010904/DTD/svg10.dtd">
<svg version="1.0" xmlns="http://www.w3.org/2000/svg"
 width="120.000000pt" height="60.000000pt" viewBox="0 0 120.000000 60.000000"
 preserveAspectRatio="xMidYMid meet">
<metadata>
Created by potrace 1.16, written by Peter Selinger 2001-2019
</metadata>
<g transform="translate(0.000000,60.000000) scale(0.100000,-0.100000)"
fill="#000000" stroke="none">
<path d="M194 504 c-15 -22 -16 -34 -5 -92 6 -37 12 -109 14 -159 2 -100 12
-115 43 -65 9 15 50 55 90 90 65 56 82 65 153 82 44 11 93 20 108 20 15 -1 89
-1 164 0 75 0 157 -4 182 -9 59 -11 99 -9 104 5 6 18 -51 26 -267 34 -121 5
-232 15 -270 24 -167 39 -221 54 -242 68 -44 28 -57 29 -74 2z m194 -85 c46
-10 93 -19 105 -20 13 0 -1 -9 -31 -19 -52 -19 -164 -92 -191 -124 -8 -9 -17
-16 -21 -16 -5 0 -8 47 -8 105 l0 104 32 -5 c17 -4 68 -15 114 -25z"/>
</g>
</svg>
