<?xml version="1.0" standalone="no"?>
<!DOCTYPE svg PUBLIC "-//W3C//DTD SVG 20010904//EN"
 "http://www.w3.org/TR/2001/REC-SVG-20010904/DTD/svg10.dtd">
<svg version="1.0" xmlns="http://www.w3.org/2000/svg"
 width="79.000000pt" height="102.000000pt" viewBox="0 0 79.000000 102.000000"
 preserveAspectRatio="xMidYMid meet">
<metadata>
Created by potrace 1.16, written by Peter Selinger 2001-2019
</metadata>
<g transform="translate(0.000000,102.000000) scale(0.100000,-0.100000)"
fill="#000000" stroke="none">
<path d="M540 909 c-41 -4 -118 -7 -170 -8 -52 -1 -100 -5 -107 -9 -18 -11
-29 -100 -22 -182 6 -76 3 -290 -5 -371 -18 -171 -18 -181 -4 -177 7 2 19 24
26 49 8 24 21 67 29 94 9 28 31 77 49 111 43 78 197 291 271 373 63 69 71 85
53 105 -15 20 -35 22 -120 15z m90 -47 c0 -5 -12 -19 -26 -33 -22 -20 -83
-103 -119 -160 -5 -9 -50 -71 -100 -137 -49 -66 -96 -128 -103 -139 -12 -17
-13 -17 -7 2 12 38 17 231 8 320 -15 140 -18 135 96 136 53 1 121 4 151 9 80
11 100 11 100 2z"/>
</g>
</svg>
