<?xml version="1.0" standalone="no"?>
<!DOCTYPE svg PUBLIC "-//W3C//DTD SVG 20010904//EN"
 "http://www.w3.org/TR/2001/REC-SVG-20010904/DTD/svg10.dtd">
<svg version="1.0" xmlns="http://www.w3.org/2000/svg"
 width="72.000000pt" height="64.000000pt" viewBox="0 0 72.000000 64.000000"
 preserveAspectRatio="xMidYMid meet">
<metadata>
Created by potrace 1.16, written by Peter Selinger 2001-2019
</metadata>
<g transform="translate(0.000000,64.000000) scale(0.100000,-0.100000)"
fill="#000000" stroke="none">
<path d="M300 511 c-75 -23 -98 -48 -178 -194 -29 -54 -22 -89 27 -140 49 -52
74 -63 153 -69 l67 -6 51 61 c88 104 105 141 105 229 0 49 -5 82 -13 90 -26
26 -160 44 -212 29z m102 -47 c63 -18 66 -23 69 -99 2 -81 -33 -146 -109 -199
-39 -26 -42 -27 -64 -12 -12 9 -35 16 -51 16 -19 0 -37 10 -55 32 -56 66 -50
134 20 208 68 72 96 80 190 54z"/>
</g>
</svg>
