<?xml version="1.0" standalone="no"?>
<!DOCTYPE svg PUBLIC "-//W3C//DTD SVG 20010904//EN"
 "http://www.w3.org/TR/2001/REC-SVG-20010904/DTD/svg10.dtd">
<svg version="1.0" xmlns="http://www.w3.org/2000/svg"
 width="216.000000pt" height="96.000000pt" viewBox="0 0 216.000000 96.000000"
 preserveAspectRatio="xMidYMid meet">
<metadata>
Created by potrace 1.16, written by Peter Selinger 2001-2019
</metadata>
<g transform="translate(0.000000,96.000000) scale(0.100000,-0.100000)"
fill="#000000" stroke="none">
<path d="M1358 649 c-25 -14 -22 -26 10 -37 23 -8 32 -20 42 -56 20 -74 18
-76 -122 -78 -68 0 -130 -1 -138 0 -8 1 -85 -3 -170 -8 -85 -6 -193 -12 -240
-15 -47 -2 -103 -7 -125 -10 -22 -3 -94 1 -160 8 -147 17 -192 6 -150 -37 32
-31 136 -32 590 -5 94 5 214 9 267 9 53 -1 133 4 178 11 50 7 85 8 91 2 5 -5
-5 -32 -27 -69 -31 -51 -64 -118 -64 -130 0 -2 11 -4 24 -4 27 0 68 43 94 97
15 32 35 42 47 24 3 -5 35 -19 71 -31 97 -32 212 -26 271 16 52 36 87 100 77
141 -18 72 -57 100 -164 115 -92 13 -140 3 -203 -39 -44 -30 -48 -27 -74 42
-16 43 -23 50 -45 50 -14 0 -30 3 -34 8 -10 10 -25 8 -46 -4z m422 -107 c75
-20 102 -50 85 -98 -27 -74 -146 -93 -257 -42 -55 25 -58 29 -58 62 0 32 5 38
53 66 58 34 84 35 177 12z"/>
</g>
</svg>
