<?xml version="1.0" standalone="no"?>
<!DOCTYPE svg PUBLIC "-//W3C//DTD SVG 20010904//EN"
 "http://www.w3.org/TR/2001/REC-SVG-20010904/DTD/svg10.dtd">
<svg version="1.0" xmlns="http://www.w3.org/2000/svg"
 width="98.000000pt" height="66.000000pt" viewBox="0 0 98.000000 66.000000"
 preserveAspectRatio="xMidYMid meet">
<metadata>
Created by potrace 1.16, written by Peter Selinger 2001-2019
</metadata>
<g transform="translate(0.000000,66.000000) scale(0.100000,-0.100000)"
fill="#000000" stroke="none">
<path d="M223 548 c-4 -7 -8 -60 -9 -118 -1 -58 -5 -147 -9 -198 -6 -84 -5
-95 12 -107 17 -13 17 -14 1 -15 -10 0 -18 -5 -18 -11 0 -7 11 -9 28 -6 15 3
56 10 92 16 36 6 92 16 125 22 33 6 118 33 188 61 103 40 136 59 171 94 49 49
63 93 41 128 -23 34 -72 67 -105 69 -17 1 -30 5 -30 9 0 3 -28 9 -62 13 -35 4
-106 13 -158 22 -52 8 -125 14 -162 14 -37 0 -70 4 -73 9 -8 14 -22 12 -32 -2z
m275 -59 c26 -5 82 -11 125 -12 42 -1 77 -4 77 -7 0 -4 15 -11 33 -18 18 -7
47 -24 64 -40 29 -25 30 -29 18 -57 -14 -34 -53 -76 -87 -92 -37 -19 -139 -64
-188 -83 -25 -10 -93 -25 -151 -34 -58 -8 -112 -18 -120 -21 -12 -4 -12 14 -3
122 11 141 11 169 -1 227 l-8 39 97 -7 c54 -3 118 -11 144 -17z"/>
</g>
</svg>
