<?xml version="1.0" standalone="no"?>
<!DOCTYPE svg PUBLIC "-//W3C//DTD SVG 20010904//EN"
 "http://www.w3.org/TR/2001/REC-SVG-20010904/DTD/svg10.dtd">
<svg version="1.0" xmlns="http://www.w3.org/2000/svg"
 width="135.000000pt" height="106.000000pt" viewBox="0 0 135.000000 106.000000"
 preserveAspectRatio="xMidYMid meet">
<metadata>
Created by potrace 1.16, written by Peter Selinger 2001-2019
</metadata>
<g transform="translate(0.000000,106.000000) scale(0.100000,-0.100000)"
fill="#000000" stroke="none">
<path d="M785 960 c-11 -5 -87 -9 -169 -9 -138 1 -150 -1 -170 -20 l-21 -22
23 -5 c26 -7 25 -5 12 -39 -8 -21 -14 -25 -37 -20 -16 2 -57 8 -93 11 -73 7
-91 15 -138 55 -18 16 -36 29 -41 29 -17 0 -32 -56 -37 -139 -3 -47 -9 -113
-15 -146 -5 -33 -9 -76 -8 -95 1 -19 -2 -61 -6 -93 l-8 -59 36 6 36 6 -14 -40
c-15 -44 -26 -198 -14 -205 14 -9 58 14 121 63 82 62 126 85 162 80 23 -2 31
-10 43 -47 24 -70 86 -121 148 -121 48 0 89 38 131 122 20 39 42 69 54 73 11
3 76 3 145 -1 91 -5 133 -3 155 6 38 16 40 35 3 25 -16 -4 -64 -6 -108 -4 -44
1 -108 2 -141 2 l-62 0 20 47 c17 40 25 49 59 59 43 13 170 16 213 5 26 -6 60
11 51 26 -9 14 -159 22 -224 11 -36 -6 -67 -9 -69 -7 -2 2 1 12 6 23 5 10 20
50 32 88 13 39 30 76 38 82 18 15 280 16 298 2 7 -6 16 -4 23 5 7 8 8 17 3 20
-4 2 -79 6 -165 8 -171 3 -172 4 -146 61 l11 25 189 -6 c174 -5 189 -4 189 12
0 15 -10 17 -82 15 -46 -2 -132 1 -192 5 l-108 9 6 35 c4 28 1 39 -16 54 -22
19 -87 24 -123 8z m105 -86 c0 -25 -7 -71 -16 -102 -25 -90 -94 -293 -116
-342 -52 -117 -93 -191 -119 -216 l-30 -28 -34 18 c-19 11 -42 27 -52 38 -28
31 -41 122 -36 268 3 74 5 171 6 215 l2 80 38 3 c48 4 49 27 2 36 -26 5 -35
12 -35 26 0 15 7 20 28 21 103 4 195 10 247 18 117 17 115 17 115 -35z m-678
-26 c14 -10 33 -18 42 -18 37 0 7 -24 -86 -68 -5 -2 -8 24 -8 58 0 65 -1 65
52 28z m228 -86 l0 -45 -112 7 c-62 4 -117 11 -122 16 -6 6 16 21 55 39 49 22
78 29 122 28 l57 -1 0 -44z m-204 -63 c51 -13 51 -15 -30 -63 -79 -47 -86 -47
-74 6 16 71 26 76 104 57z m178 -15 c12 -4 16 -20 16 -55 l0 -49 -87 1 c-49 1
-101 4 -118 8 l-30 6 40 25 c22 13 48 28 58 32 9 4 20 14 23 23 6 15 67 21 98
9z m-180 -129 c28 -6 28 -6 -35 -51 -34 -24 -67 -44 -71 -44 -13 0 -9 77 5 88
13 11 47 20 62 16 6 -1 23 -5 39 -9z m183 -14 c12 -1 15 -37 6 -74 -4 -16 -12
-18 -51 -14 -52 6 -130 22 -137 29 -3 2 19 18 48 34 48 28 72 32 134 25z
m-168 -100 c23 -6 23 -8 -25 -50 l-49 -43 -3 28 c-2 17 2 32 12 40 9 6 16 16
16 23 0 12 12 13 49 2z m171 -33 c0 -7 3 -23 6 -35 6 -23 5 -23 -90 -23 -53 0
-96 4 -96 9 0 5 14 21 31 35 25 22 41 26 90 26 40 0 59 -4 59 -12z m-126 -96
c-5 -5 -39 -30 -76 -56 l-68 -47 0 37 c0 57 22 74 94 74 33 0 56 -4 50 -8z"/>
<path d="M957 619 c-48 -3 -90 -9 -93 -12 -14 -14 10 -27 40 -22 18 4 77 8
131 9 60 1 100 7 102 13 5 15 -70 20 -180 12z"/>
</g>
</svg>
