<?xml version="1.0" standalone="no"?>
<!DOCTYPE svg PUBLIC "-//W3C//DTD SVG 20010904//EN"
 "http://www.w3.org/TR/2001/REC-SVG-20010904/DTD/svg10.dtd">
<svg version="1.0" xmlns="http://www.w3.org/2000/svg"
 width="122.000000pt" height="88.000000pt" viewBox="0 0 122.000000 88.000000"
 preserveAspectRatio="xMidYMid meet">
<metadata>
Created by potrace 1.16, written by Peter Selinger 2001-2019
</metadata>
<g transform="translate(0.000000,88.000000) scale(0.100000,-0.100000)"
fill="#000000" stroke="none">
<path d="M517 768 c-7 -5 -30 -8 -52 -7 -22 0 -107 -3 -190 -6 -120 -5 -153
-10 -168 -23 -19 -17 -19 -15 -1 -132 3 -19 14 -54 24 -78 18 -40 18 -43 2
-49 -30 -11 -43 -25 -34 -37 5 -6 14 -37 20 -70 13 -62 56 -148 104 -202 53
-60 135 -67 212 -17 57 37 82 68 122 148 44 90 55 152 28 161 -11 3 -27 10
-37 15 -9 5 -36 6 -60 2 -40 -6 -41 -6 -27 13 8 10 18 22 23 25 4 3 27 49 51
103 24 54 52 106 62 117 17 18 17 20 -2 34 -20 15 -57 16 -77 3z m7 -70 c-17
-58 -78 -165 -106 -187 -41 -33 -128 -47 -167 -26 -40 20 -70 65 -92 138 -10
34 -19 64 -19 67 0 3 37 6 83 7 72 2 297 18 305 22 2 0 0 -9 -4 -21z m-281
-283 c34 -4 105 -2 158 2 157 14 171 2 120 -102 -55 -111 -146 -170 -217 -140
-37 15 -87 78 -116 145 -10 25 -23 53 -28 62 -15 27 -12 51 5 44 8 -3 43 -8
78 -11z"/>
<path d="M740 743 c-32 -12 -60 -56 -60 -93 0 -37 50 -163 70 -175 17 -11 1
-25 -29 -25 -16 0 -39 -9 -52 -19 -22 -18 -22 -20 -6 -26 9 -4 17 -17 17 -30
0 -56 55 -174 97 -209 36 -30 87 -36 138 -16 56 21 137 125 174 223 6 15 22
32 35 37 30 11 37 22 26 40 -6 10 -24 12 -74 7 l-66 -6 42 57 c23 31 57 85 74
119 26 52 29 66 20 85 -15 30 -58 39 -125 26 -51 -9 -159 -7 -236 6 -16 3 -37
3 -45 -1z m360 -60 c0 -9 -30 -67 -56 -108 -56 -89 -103 -117 -169 -103 -22 5
-47 16 -57 25 -21 19 -74 121 -82 160 l-7 29 186 -1 c102 0 185 -1 185 -2z
m-112 -279 c66 -7 65 -5 35 -74 -19 -44 -106 -128 -141 -137 -35 -9 -71 14
-98 62 -34 59 -42 79 -49 119 l-7 36 99 0 c55 0 127 -3 161 -6z"/>
</g>
</svg>
