<?xml version="1.0" standalone="no"?>
<!DOCTYPE svg PUBLIC "-//W3C//DTD SVG 20010904//EN"
 "http://www.w3.org/TR/2001/REC-SVG-20010904/DTD/svg10.dtd">
<svg version="1.0" xmlns="http://www.w3.org/2000/svg"
 width="78.000000pt" height="161.000000pt" viewBox="0 0 78.000000 161.000000"
 preserveAspectRatio="xMidYMid meet">
<metadata>
Created by potrace 1.16, written by Peter Selinger 2001-2019
</metadata>
<g transform="translate(0.000000,161.000000) scale(0.100000,-0.100000)"
fill="#000000" stroke="none">
<path d="M412 1553 c-11 -26 -16 -64 -16 -115 1 -43 -2 -78 -6 -78 -19 0 -94
-79 -116 -123 -35 -69 -28 -124 22 -162 19 -14 50 -29 70 -32 31 -5 34 -8 30
-32 -13 -67 -20 -199 -18 -334 3 -134 1 -148 -15 -153 -54 -17 -86 -38 -114
-76 -26 -37 -30 -49 -26 -87 3 -24 14 -55 24 -69 27 -37 101 -73 140 -69 21 2
29 -1 24 -8 -5 -5 -12 -45 -16 -87 -6 -66 -5 -78 8 -78 18 0 42 115 33 160 -5
28 -3 30 37 40 94 23 123 36 150 63 30 32 33 58 16 135 -12 59 -36 83 -104
107 -46 16 -54 16 -86 2 l-36 -15 4 137 c3 75 8 185 11 244 l7 109 38 13 c43
15 87 51 87 72 0 8 9 31 20 53 26 51 27 134 1 176 -23 38 -102 64 -128 42 -14
-11 -15 -5 -10 57 4 39 9 87 13 108 5 30 3 37 -10 37 -10 0 -24 -16 -34 -37z
m94 -228 c31 -23 51 -70 46 -105 -7 -41 -37 -91 -63 -102 -30 -13 -38 -27 -16
-29 6 0 -1 -5 -18 -10 -38 -11 -91 5 -127 39 -22 20 -28 35 -28 65 0 65 48
127 98 127 10 0 27 9 37 20 23 26 31 25 71 -5z m-11 -805 c3 -5 15 -10 25 -10
41 0 93 -115 74 -165 -7 -17 -63 -48 -108 -59 -32 -8 -108 15 -146 43 -21 16
-22 21 -11 35 12 14 11 19 -3 34 -9 10 -16 23 -16 29 0 18 47 54 62 48 10 -4
23 3 34 18 28 34 75 49 89 27z"/>
</g>
</svg>
