<?xml version="1.0" standalone="no"?>
<!DOCTYPE svg PUBLIC "-//W3C//DTD SVG 20010904//EN"
 "http://www.w3.org/TR/2001/REC-SVG-20010904/DTD/svg10.dtd">
<svg version="1.0" xmlns="http://www.w3.org/2000/svg"
 width="69.000000pt" height="98.000000pt" viewBox="0 0 69.000000 98.000000"
 preserveAspectRatio="xMidYMid meet">
<metadata>
Created by potrace 1.16, written by Peter Selinger 2001-2019
</metadata>
<g transform="translate(0.000000,98.000000) scale(0.100000,-0.100000)"
fill="#000000" stroke="none">
<path d="M200 851 c-8 -5 -18 -7 -22 -4 -5 2 -16 -1 -24 -8 -26 -21 -10 -123
27 -181 17 -26 36 -49 42 -51 7 -2 -2 -7 -20 -11 -52 -12 -66 -45 -54 -123 5
-36 17 -73 26 -82 20 -23 19 -31 -6 -31 -29 0 -59 -18 -59 -36 0 -8 7 -47 16
-86 12 -53 25 -80 51 -109 39 -43 70 -54 178 -64 85 -8 116 2 196 68 56 45 99
118 101 170 1 12 6 28 12 36 19 25 -20 41 -86 34 l-60 -6 51 68 c28 37 51 76
51 86 0 10 5 21 10 24 22 13 10 35 -19 35 -17 0 -32 4 -35 9 -4 5 -21 7 -39 4
l-32 -5 37 39 c78 81 139 190 108 194 -20 3 -25 4 -39 13 -7 5 -70 10 -140 11
-69 1 -155 5 -191 9 -39 4 -71 3 -80 -3z m263 -62 c82 1 127 -3 127 -10 0 -19
-60 -98 -96 -125 -74 -57 -206 -36 -253 40 -12 19 -25 51 -28 71 l-6 35 64 -5
c35 -4 121 -6 192 -6z m-79 -252 c90 -1 167 -5 170 -8 12 -11 -11 -54 -51 -95
-32 -33 -51 -43 -101 -54 -33 -7 -72 -10 -85 -6 -39 9 -76 45 -102 97 -28 55
-32 81 -11 73 8 -3 89 -6 180 -7z m200 -236 c24 -20 -10 -80 -73 -131 -53 -44
-56 -45 -125 -44 -51 1 -83 7 -113 23 -46 23 -58 40 -84 114 l-16 48 41 -7
c60 -10 207 -7 236 5 31 12 115 7 134 -8z"/>
</g>
</svg>
