<?xml version="1.0" standalone="no"?>
<!DOCTYPE svg PUBLIC "-//W3C//DTD SVG 20010904//EN"
 "http://www.w3.org/TR/2001/REC-SVG-20010904/DTD/svg10.dtd">
<svg version="1.0" xmlns="http://www.w3.org/2000/svg"
 width="126.000000pt" height="102.000000pt" viewBox="0 0 126.000000 102.000000"
 preserveAspectRatio="xMidYMid meet">
<metadata>
Created by potrace 1.16, written by Peter Selinger 2001-2019
</metadata>
<g transform="translate(0.000000,102.000000) scale(0.100000,-0.100000)"
fill="#000000" stroke="none">
<path d="M983 855 c-13 -19 -46 -53 -75 -76 -29 -22 -96 -82 -148 -133 -96
-93 -270 -229 -315 -246 -14 -5 -25 -14 -25 -19 0 -5 -33 -30 -74 -56 -62 -38
-146 -118 -146 -139 0 -2 17 -5 38 -4 20 0 53 -6 72 -14 43 -18 125 -80 158
-119 24 -29 42 -37 42 -20 0 20 -61 99 -97 127 -21 16 -59 36 -86 45 l-48 16
71 52 c39 28 71 51 73 51 1 0 3 -21 4 -48 2 -55 22 -130 35 -138 23 -14 28 15
13 71 -20 79 -20 151 1 159 50 19 157 -14 227 -71 76 -63 92 -58 31 9 -24 27
-33 45 -29 56 4 10 11 59 16 110 4 51 11 97 14 102 8 13 60 13 110 -1 29 -8
60 -32 117 -90 43 -43 82 -79 88 -79 18 0 9 14 -58 94 -55 66 -69 77 -116 90
-30 9 -64 16 -75 16 -12 0 -21 6 -21 13 0 21 164 177 185 177 4 0 4 -11 1 -24
-3 -13 -8 -67 -10 -120 -3 -74 -1 -96 9 -96 16 0 35 74 35 139 0 27 5 72 11
99 7 30 8 59 3 75 l-9 26 -22 -34z m-297 -357 c-3 -24 -5 -65 -5 -92 -1 -42
-3 -47 -18 -41 -10 4 -47 14 -82 23 l-64 16 36 30 c42 37 131 106 135 106 2 0
1 -19 -2 -42z"/>
</g>
</svg>
