<?xml version="1.0" standalone="no"?>
<!DOCTYPE svg PUBLIC "-//W3C//DTD SVG 20010904//EN"
 "http://www.w3.org/TR/2001/REC-SVG-20010904/DTD/svg10.dtd">
<svg version="1.0" xmlns="http://www.w3.org/2000/svg"
 width="79.000000pt" height="83.000000pt" viewBox="0 0 79.000000 83.000000"
 preserveAspectRatio="xMidYMid meet">
<metadata>
Created by potrace 1.16, written by Peter Selinger 2001-2019
</metadata>
<g transform="translate(0.000000,83.000000) scale(0.100000,-0.100000)"
fill="#000000" stroke="none">
<path d="M521 626 c-18 -14 -57 -47 -86 -75 -29 -28 -79 -66 -112 -85 -33 -19
-65 -42 -72 -50 -16 -19 -5 -36 59 -92 24 -21 54 -47 65 -57 11 -10 34 -26 50
-34 17 -9 52 -33 79 -54 54 -44 59 -45 76 -24 9 11 8 18 -9 36 -12 13 -21 26
-21 29 0 3 -20 21 -44 39 -59 45 -65 83 -29 209 22 79 31 97 64 127 61 55 45
78 -20 31z m-87 -207 c-9 -46 -18 -86 -20 -88 -4 -5 -94 82 -94 91 0 4 22 19
48 32 27 13 54 32 62 40 7 9 14 15 16 13 2 -2 -4 -41 -12 -88z"/>
</g>
</svg>
