<?xml version="1.0" standalone="no"?>
<!DOCTYPE svg PUBLIC "-//W3C//DTD SVG 20010904//EN"
 "http://www.w3.org/TR/2001/REC-SVG-20010904/DTD/svg10.dtd">
<svg version="1.0" xmlns="http://www.w3.org/2000/svg"
 width="106.000000pt" height="76.000000pt" viewBox="0 0 106.000000 76.000000"
 preserveAspectRatio="xMidYMid meet">
<metadata>
Created by potrace 1.16, written by Peter Selinger 2001-2019
</metadata>
<g transform="translate(0.000000,76.000000) scale(0.100000,-0.100000)"
fill="#000000" stroke="none">
<path d="M370 620 c-5 -10 -10 -26 -10 -35 0 -13 -11 -15 -72 -12 -40 3 -92
11 -115 19 -35 13 -44 13 -54 2 -12 -14 -4 -32 21 -51 22 -16 30 -84 36 -313
2 -102 4 -192 4 -200 0 -12 3 -11 17 2 13 14 16 38 16 140 -1 107 2 129 22
173 23 51 119 150 135 140 5 -3 12 -26 16 -50 3 -25 8 -45 10 -45 4 0 85 82
107 109 21 25 -25 -4 -52 -33 -14 -14 -28 -26 -32 -26 -4 0 -10 19 -14 42 -6
35 -4 43 15 58 19 14 30 15 98 4 42 -6 133 -15 202 -19 69 -4 147 -11 175 -15
27 -4 58 -5 68 -1 31 12 -93 41 -196 47 -51 2 -117 7 -147 10 -57 5 -191 41
-200 53 -13 19 -40 19 -50 1z m-10 -92 c0 -4 -24 -33 -53 -65 -29 -32 -62 -70
-74 -86 l-21 -27 -7 77 c-4 43 -8 85 -11 93 -3 12 11 15 81 15 47 0 85 -3 85
-7z"/>
</g>
</svg>
