<?xml version="1.0" standalone="no"?>
<!DOCTYPE svg PUBLIC "-//W3C//DTD SVG 20010904//EN"
 "http://www.w3.org/TR/2001/REC-SVG-20010904/DTD/svg10.dtd">
<svg version="1.0" xmlns="http://www.w3.org/2000/svg"
 width="122.000000pt" height="112.000000pt" viewBox="0 0 122.000000 112.000000"
 preserveAspectRatio="xMidYMid meet">
<metadata>
Created by potrace 1.16, written by Peter Selinger 2001-2019
</metadata>
<g transform="translate(0.000000,112.000000) scale(0.100000,-0.100000)"
fill="#000000" stroke="none">
<path d="M598 940 c-77 -61 -112 -85 -206 -139 -67 -39 -72 -44 -66 -69 9 -38
37 -65 99 -96 30 -16 55 -31 57 -34 4 -10 60 -47 81 -55 9 -4 20 -15 24 -24 4
-10 10 -20 14 -23 4 -3 9 -48 10 -100 1 -62 8 -112 21 -148 13 -36 17 -67 13
-91 -11 -64 -19 -68 -58 -30 -68 67 -139 124 -183 148 l-46 24 50 31 c46 28
190 156 176 156 -3 0 -36 -26 -72 -58 -37 -32 -88 -68 -114 -81 -52 -24 -111
-77 -103 -91 3 -5 16 -7 29 -4 14 2 41 -5 63 -18 53 -30 183 -129 183 -139 0
-13 61 -42 70 -32 4 4 13 37 19 72 12 62 8 151 -9 210 -9 33 6 152 22 166 8 7
9 6 4 -2 -4 -8 16 -24 61 -47 37 -19 84 -50 103 -68 20 -18 48 -41 63 -51 25
-16 28 -16 34 -1 4 11 -2 23 -18 35 -21 15 -22 21 -12 38 28 45 62 145 68 198
3 32 11 79 17 105 7 26 9 50 6 54 -9 8 -54 -22 -122 -83 -91 -81 -205 -155
-219 -142 -14 13 -5 223 11 276 6 18 13 61 17 97 9 83 0 85 -87 16z m18 -137
c-19 -106 -22 -140 -14 -178 5 -25 7 -49 5 -52 -3 -3 -25 10 -49 29 -24 19
-73 54 -111 77 -99 64 -99 66 -4 130 45 30 107 74 137 99 30 24 56 40 57 35 2
-5 -7 -68 -21 -140z m324 -159 c-13 -77 -50 -213 -61 -219 -3 -3 -22 6 -40 19
-19 14 -59 37 -90 52 l-56 27 81 61 c45 33 86 64 91 68 6 4 26 20 45 37 19 16
36 28 38 26 2 -1 -2 -34 -8 -71z"/>
</g>
</svg>
