<?xml version="1.0" standalone="no"?>
<!DOCTYPE svg PUBLIC "-//W3C//DTD SVG 20010904//EN"
 "http://www.w3.org/TR/2001/REC-SVG-20010904/DTD/svg10.dtd">
<svg version="1.0" xmlns="http://www.w3.org/2000/svg"
 width="100.000000pt" height="72.000000pt" viewBox="0 0 100.000000 72.000000"
 preserveAspectRatio="xMidYMid meet">
<metadata>
Created by potrace 1.16, written by Peter Selinger 2001-2019
</metadata>
<g transform="translate(0.000000,72.000000) scale(0.100000,-0.100000)"
fill="#000000" stroke="none">
<path d="M475 588 c-16 -5 -115 -11 -220 -13 -167 -3 -190 -5 -193 -19 -2 -10
1 -22 6 -29 5 -7 12 -32 16 -57 4 -25 17 -64 31 -87 l24 -43 -23 0 c-30 0 -52
-25 -38 -42 6 -7 13 -31 17 -52 12 -59 43 -138 63 -158 30 -30 112 -35 164
-10 54 27 111 114 136 208 19 72 13 85 -36 76 -27 -5 -27 -5 11 37 21 23 52
71 69 107 27 56 29 67 17 78 -10 10 -22 11 -44 4z m-34 -95 c-31 -62 -91 -112
-142 -121 -30 -6 -43 -13 -41 -23 2 -12 0 -11 -10 1 -7 8 -25 21 -39 29 -26
13 -60 63 -73 107 -6 20 -3 21 56 20 78 -1 238 11 246 18 18 18 20 1 3 -31z
m-31 -205 c0 -31 -53 -121 -87 -147 -20 -17 -38 -21 -72 -19 -45 3 -47 4 -73
58 -15 30 -31 70 -34 89 -7 33 -6 34 22 29 16 -3 54 -2 84 1 30 3 79 7 108 9
49 3 52 2 52 -20z"/>
<path d="M776 543 c-1 -1 -46 -4 -99 -7 -53 -2 -101 -7 -106 -11 -19 -11 -31
-81 -25 -141 15 -152 70 -244 145 -244 28 0 46 8 77 38 44 40 65 88 103 237
12 44 26 83 31 86 6 4 8 14 5 22 -4 11 -24 16 -67 19 -34 1 -63 2 -64 1z m60
-56 c2 -2 -10 -69 -20 -112 -11 -43 -55 -138 -72 -155 -65 -62 -113 -3 -139
171 -15 99 -19 93 65 100 66 6 159 4 166 -4z"/>
</g>
</svg>
