<?xml version="1.0" standalone="no"?>
<!DOCTYPE svg PUBLIC "-//W3C//DTD SVG 20010904//EN"
 "http://www.w3.org/TR/2001/REC-SVG-20010904/DTD/svg10.dtd">
<svg version="1.0" xmlns="http://www.w3.org/2000/svg"
 width="104.000000pt" height="96.000000pt" viewBox="0 0 104.000000 96.000000"
 preserveAspectRatio="xMidYMid meet">
<metadata>
Created by potrace 1.16, written by Peter Selinger 2001-2019
</metadata>
<g transform="translate(0.000000,96.000000) scale(0.100000,-0.100000)"
fill="#000000" stroke="none">
<path d="M670 849 c-67 -11 -176 -26 -251 -35 -44 -5 -59 -2 -72 10 -23 23
-33 20 -50 -16 -23 -50 -35 -155 -36 -343 -2 -140 -4 -207 -13 -294 -3 -33 4
-42 29 -39 22 2 29 11 41 48 8 25 23 57 33 72 11 14 19 29 19 33 0 3 6 12 13
20 6 7 29 38 50 69 l38 56 31 -22 c75 -56 106 -75 155 -96 60 -26 79 -27 86
-8 6 16 -1 26 -19 26 -21 0 -83 44 -89 63 -4 10 -1 59 6 110 14 99 19 107 120
188 51 40 19 42 -42 2 -30 -20 -74 -49 -98 -65 -24 -16 -45 -27 -47 -25 -13
12 137 207 160 207 18 0 35 21 29 36 -6 15 -12 16 -93 3z m-16 -61 c-4 -7 -25
-36 -45 -64 -21 -28 -47 -72 -59 -97 -19 -40 -29 -48 -91 -76 -39 -18 -69 -37
-69 -45 0 -8 14 -23 30 -33 17 -9 30 -20 30 -23 0 -3 -32 -53 -71 -110 l-72
-105 6 50 c4 28 7 115 8 195 0 80 3 175 6 213 l6 67 51 0 c28 1 98 9 156 20
130 23 123 22 114 8z m-45 -271 c-11 -49 -17 -93 -14 -98 14 -22 -17 -6 -56
30 l-43 39 26 39 c15 22 44 49 65 60 21 11 39 20 40 19 1 -1 -7 -41 -18 -89z
m-115 9 c-6 -16 -44 -23 -44 -8 0 9 42 32 48 27 1 -1 0 -10 -4 -19z"/>
</g>
</svg>
