<?xml version="1.0" standalone="no"?>
<!DOCTYPE svg PUBLIC "-//W3C//DTD SVG 20010904//EN"
 "http://www.w3.org/TR/2001/REC-SVG-20010904/DTD/svg10.dtd">
<svg version="1.0" xmlns="http://www.w3.org/2000/svg"
 width="94.000000pt" height="96.000000pt" viewBox="0 0 94.000000 96.000000"
 preserveAspectRatio="xMidYMid meet">
<metadata>
Created by potrace 1.16, written by Peter Selinger 2001-2019
</metadata>
<g transform="translate(0.000000,96.000000) scale(0.100000,-0.100000)"
fill="#000000" stroke="none">
<path d="M531 886 c-18 -19 -38 -33 -45 -30 -11 4 -163 -133 -155 -141 3 -2
23 -12 44 -23 56 -26 105 -56 105 -64 0 -4 -17 -19 -37 -34 -49 -36 -113 -103
-112 -118 0 -6 25 -31 55 -55 31 -24 58 -49 61 -57 3 -8 -13 -34 -36 -59 -22
-24 -41 -42 -41 -38 0 4 -11 -4 -24 -17 -14 -12 -32 -20 -40 -17 -28 11 -26
-11 5 -44 22 -24 29 -39 24 -56 -3 -13 -2 -23 3 -23 12 0 52 44 52 58 0 6 14
34 30 60 17 27 30 56 30 65 0 28 28 25 59 -7 17 -17 31 -36 31 -41 0 -6 -26
-34 -57 -62 l-58 -53 45 -45 c45 -46 70 -57 70 -30 0 8 -3 15 -7 15 -5 0 -21
16 -36 36 -28 34 -28 36 -11 56 11 11 26 24 35 29 15 7 16 4 9 -25 -4 -19 -10
-39 -14 -45 -4 -6 -3 -11 2 -11 5 0 12 -9 15 -20 14 -52 37 12 37 101 0 34 15
37 47 8 20 -20 23 -20 29 -5 4 11 -2 26 -17 42 l-24 26 35 30 c120 105 169
158 144 158 -3 0 -28 -23 -57 -51 -29 -28 -71 -67 -95 -87 l-43 -35 -25 24
c-52 49 -51 56 12 120 32 33 63 58 69 55 6 -2 16 11 21 30 12 36 9 40 -16 24
-12 -7 -26 2 -62 42 -27 28 -48 54 -48 58 0 3 15 23 34 44 29 33 36 37 54 27
32 -17 90 -90 97 -122 4 -16 11 -29 16 -29 6 0 7 10 3 23 -17 57 -34 85 -72
122 l-42 39 56 58 c73 77 61 89 -14 15 -66 -65 -88 -67 -97 -9 -3 21 -8 45
-10 55 -2 9 1 15 6 11 5 -3 9 9 9 25 0 40 -8 39 -49 -3z m17 -66 c0 -22 -1
-40 -2 -40 -2 0 -21 7 -42 16 -34 15 -37 17 -19 24 12 4 27 15 34 24 21 25 29
19 29 -24z m-35 -56 c18 -9 40 -23 50 -32 17 -15 16 -17 -14 -48 -32 -33 -32
-33 -61 -16 -21 12 -28 22 -24 37 3 11 6 32 6 48 0 32 1 32 43 11z m-67 -26
c-3 -17 -8 -33 -10 -35 -3 -3 -52 15 -65 24 -8 6 45 42 63 43 16 0 17 -5 12
-32z m52 -150 c-3 -7 -13 -43 -23 -80 l-18 -67 -40 31 -40 32 44 38 c24 21 49
42 54 47 14 14 28 13 23 -1z m113 -75 c11 -21 8 -27 -46 -80 l-59 -58 -10 33
c-9 33 0 93 23 155 l11 29 34 -29 c19 -15 40 -38 47 -50z m-200 -261 c-6 -11
-7 -23 -3 -27 4 -5 2 -5 -5 -1 -7 4 -18 -4 -26 -19 -12 -24 -14 -25 -27 -10
-13 15 -11 20 14 38 16 11 33 26 40 33 16 17 20 9 7 -14z"/>
</g>
</svg>
