<?xml version="1.0" standalone="no"?>
<!DOCTYPE svg PUBLIC "-//W3C//DTD SVG 20010904//EN"
 "http://www.w3.org/TR/2001/REC-SVG-20010904/DTD/svg10.dtd">
<svg version="1.0" xmlns="http://www.w3.org/2000/svg"
 width="78.000000pt" height="78.000000pt" viewBox="0 0 78.000000 78.000000"
 preserveAspectRatio="xMidYMid meet">
<metadata>
Created by potrace 1.16, written by Peter Selinger 2001-2019
</metadata>
<g transform="translate(0.000000,78.000000) scale(0.100000,-0.100000)"
fill="#000000" stroke="none">
<path d="M192 658 c-7 -9 -12 -117 -16 -320 l-5 -306 34 -6 c24 -5 48 0 87 18
29 13 73 32 98 41 178 67 272 155 295 276 20 110 -65 201 -242 259 -37 13 -73
27 -79 32 -21 16 -159 21 -172 6z m182 -69 c33 -11 63 -19 68 -19 28 0 122
-57 157 -95 35 -38 41 -51 41 -87 -2 -138 -79 -208 -333 -302 -95 -36 -101
-31 -93 68 3 45 9 162 12 261 3 99 7 185 9 192 5 15 57 8 139 -18z"/>
<path d="M416 490 c-56 -17 -106 -87 -106 -149 0 -14 11 -43 25 -64 21 -30 32
-37 57 -37 41 0 88 33 111 76 19 38 23 99 7 109 -5 3 -10 14 -10 24 0 19 -30
52 -46 50 -5 0 -22 -5 -38 -9z m58 -62 c32 -64 10 -129 -51 -149 -35 -11 -38
-10 -61 16 -20 23 -23 36 -19 68 6 46 39 84 76 90 14 2 29 5 33 6 3 0 14 -13
22 -31z"/>
</g>
</svg>
