<?xml version="1.0" standalone="no"?>
<!DOCTYPE svg PUBLIC "-//W3C//DTD SVG 20010904//EN"
 "http://www.w3.org/TR/2001/REC-SVG-20010904/DTD/svg10.dtd">
<svg version="1.0" xmlns="http://www.w3.org/2000/svg"
 width="87.000000pt" height="102.000000pt" viewBox="0 0 87.000000 102.000000"
 preserveAspectRatio="xMidYMid meet">
<metadata>
Created by potrace 1.16, written by Peter Selinger 2001-2019
</metadata>
<g transform="translate(0.000000,102.000000) scale(0.100000,-0.100000)"
fill="#000000" stroke="none">
<path d="M151 926 c-17 -20 -29 -96 -36 -221 -9 -147 -4 -155 97 -159 80 -3
133 20 187 80 64 72 78 154 36 217 -27 41 -138 90 -212 93 -38 1 -66 -3 -72
-10z m141 -63 c7 -6 30 -16 51 -22 45 -15 61 -41 62 -101 1 -40 -4 -50 -43
-91 -46 -49 -103 -74 -158 -67 -26 3 -30 8 -34 43 -6 44 12 233 23 251 7 13
78 3 99 -13z"/>
<path d="M535 686 c-13 -20 -17 -54 -19 -154 l-2 -129 54 -2 c53 -1 117 20
152 51 44 38 70 81 70 117 0 67 -39 100 -145 121 -33 6 -68 14 -77 16 -11 3
-23 -4 -33 -20z m167 -57 c44 -23 52 -44 36 -95 -16 -47 -93 -104 -142 -104
l-31 0 -2 93 c-1 50 0 103 3 116 5 22 8 23 52 16 25 -4 63 -15 84 -26z"/>
<path d="M161 335 c-17 -68 -43 -284 -37 -302 5 -12 9 -13 21 -3 8 7 15 19 15
26 0 9 12 14 36 14 20 0 70 10 112 22 91 27 152 78 152 128 0 55 -29 97 -90
129 -49 26 -69 31 -128 31 l-70 0 -11 -45z m185 -30 c47 -23 74 -55 74 -89 0
-21 -63 -72 -105 -84 -22 -6 -66 -14 -99 -18 l-58 -7 6 64 c11 102 26 157 44
163 29 8 85 -4 138 -29z"/>
</g>
</svg>
