<?xml version="1.0" standalone="no"?>
<!DOCTYPE svg PUBLIC "-//W3C//DTD SVG 20010904//EN"
 "http://www.w3.org/TR/2001/REC-SVG-20010904/DTD/svg10.dtd">
<svg version="1.0" xmlns="http://www.w3.org/2000/svg"
 width="134.000000pt" height="114.000000pt" viewBox="0 0 134.000000 114.000000"
 preserveAspectRatio="xMidYMid meet">
<metadata>
Created by potrace 1.16, written by Peter Selinger 2001-2019
</metadata>
<g transform="translate(0.000000,114.000000) scale(0.100000,-0.100000)"
fill="#000000" stroke="none">
<path d="M631 1081 c-10 -6 -12 -19 -6 -47 4 -22 9 -55 11 -74 2 -19 6 -48 10
-64 l6 -29 -83 6 c-117 9 -166 16 -229 33 -30 9 -68 17 -85 19 -16 2 -39 5
-50 7 -18 3 -20 -2 -17 -42 2 -25 8 -62 13 -83 7 -27 7 -49 -2 -74 -6 -20 -9
-57 -6 -83 3 -28 1 -52 -5 -58 -6 -6 -9 -36 -6 -71 3 -45 1 -61 -9 -61 -19 0
-39 -46 -53 -122 -14 -75 -8 -118 16 -118 12 0 15 -10 13 -52 -2 -35 1 -53 10
-56 7 -2 52 23 99 55 90 62 156 93 195 93 13 0 28 5 34 11 5 5 36 9 69 7 l58
-3 -3 -50 c-2 -40 2 -55 18 -69 11 -10 25 -15 30 -11 14 8 14 45 1 45 -6 0 -8
10 -5 23 3 12 7 32 8 44 2 29 21 32 256 43 142 7 205 7 233 -2 43 -13 53 -8
43 20 -7 24 -65 37 -123 28 -20 -3 -73 -8 -117 -11 -113 -7 -204 -15 -248 -21
l-38 -6 2 46 c2 25 6 50 9 56 3 6 53 13 111 16 57 3 122 10 145 15 35 9 139 7
259 -5 17 -2 36 -1 43 1 20 8 14 31 -10 39 -30 10 -209 6 -273 -6 -27 -5 -101
-11 -164 -13 l-114 -5 6 55 c3 30 7 56 9 58 2 2 57 6 123 9 66 3 158 11 205
16 47 6 105 10 130 8 36 -2 45 0 48 14 5 25 -57 33 -142 18 -39 -7 -78 -14
-86 -15 -8 -1 -75 -6 -147 -10 l-133 -7 6 63 c4 35 7 65 8 65 1 1 91 7 201 14
231 13 245 15 245 35 0 11 -15 13 -82 10 -46 -3 -96 -7 -113 -9 -16 -3 -81 -8
-142 -12 l-113 -7 0 29 c0 16 4 34 8 40 9 14 102 33 217 45 50 5 99 10 109 12
11 1 21 8 24 16 4 12 -10 13 -84 7 -49 -4 -118 -11 -153 -17 -35 -5 -65 -8
-66 -7 -9 9 115 141 159 172 41 27 19 42 -38 26 -44 -12 -163 -10 -211 4 -11
4 -26 2 -34 -3z m137 -51 l62 0 -56 -75 c-31 -41 -62 -75 -68 -75 -7 0 -18 26
-24 58 -6 31 -14 68 -18 81 -6 22 -5 24 17 18 13 -4 52 -7 87 -7z m-443 -161
c28 -5 63 -12 78 -17 l28 -7 -43 -24 c-24 -14 -61 -40 -83 -58 l-40 -34 -6 24
c-3 12 -9 49 -13 81 -7 55 -6 58 11 51 10 -4 41 -12 68 -16z m328 -53 c4 -6 6
-22 5 -36 -3 -21 -10 -26 -46 -32 -66 -11 -257 -17 -271 -9 -7 5 12 24 56 53
l68 45 90 -5 c50 -3 93 -10 98 -16z m7 -115 c0 -10 -3 -39 -6 -65 l-7 -47
-131 4 c-72 2 -140 7 -151 10 -11 3 -26 6 -34 6 -12 1 9 19 91 80 20 15 100
28 186 30 44 1 52 -2 52 -18z m-260 1 c0 -7 -65 -52 -150 -104 -25 -15 -25
-15 -25 21 -1 31 5 42 34 64 27 22 45 27 88 27 29 0 53 -4 53 -8z m0 -142 c0
-4 -40 -35 -90 -68 -82 -56 -90 -60 -90 -39 0 12 -3 32 -6 44 -5 17 2 31 28
57 l33 33 63 -10 c34 -5 62 -13 62 -17z m243 -52 c-3 -29 -6 -53 -7 -53 -1 -1
-75 2 -165 5 l-165 5 65 41 c77 50 81 51 191 53 l87 1 -6 -52z m-450 -98 c6
-24 29 -26 47 -5 9 11 33 15 89 15 l76 0 -85 -54 c-47 -30 -91 -60 -97 -66
-10 -8 -13 -7 -13 4 0 29 -19 26 -36 -6 -24 -46 -29 -20 -14 64 12 68 23 85
33 48z m410 11 c24 -1 27 -5 27 -33 0 -18 -3 -44 -7 -57 l-6 -24 -121 7 c-67
4 -137 7 -156 6 l-34 -1 44 33 c25 17 56 32 70 32 15 1 26 7 26 16 1 8 2 18 3
21 0 4 29 5 64 4 34 -2 74 -3 90 -4z m-245 -132 c51 0 54 -2 32 -11 -34 -16
-171 -98 -194 -117 -18 -15 -18 -14 -11 34 4 28 10 51 14 53 5 1 23 14 42 28
18 13 40 22 47 19 8 -3 39 -5 70 -6z"/>
</g>
</svg>
