<?xml version="1.0" standalone="no"?>
<!DOCTYPE svg PUBLIC "-//W3C//DTD SVG 20010904//EN"
 "http://www.w3.org/TR/2001/REC-SVG-20010904/DTD/svg10.dtd">
<svg version="1.0" xmlns="http://www.w3.org/2000/svg"
 width="95.000000pt" height="99.000000pt" viewBox="0 0 95.000000 99.000000"
 preserveAspectRatio="xMidYMid meet">
<metadata>
Created by potrace 1.16, written by Peter Selinger 2001-2019
</metadata>
<g transform="translate(0.000000,99.000000) scale(0.100000,-0.100000)"
fill="#000000" stroke="none">
<path d="M155 870 c-14 -15 -15 -23 -6 -33 8 -10 8 -29 2 -63 -5 -27 -12 -94
-16 -149 -4 -55 -8 -102 -10 -105 -2 -3 -6 -34 -9 -68 -3 -34 -13 -107 -21
-163 -16 -103 -14 -151 5 -157 6 -2 2 -11 -10 -19 -32 -23 -10 -41 27 -23 64
32 168 94 171 102 2 4 9 8 16 8 7 0 30 17 52 37 21 21 43 37 49 35 5 -2 7 0 2
4 -4 4 1 16 10 26 14 16 26 18 73 12 79 -9 197 33 246 88 50 54 69 108 69 201
0 82 -2 89 -25 107 -38 30 -108 26 -190 -10 -38 -16 -73 -30 -78 -30 -5 0 -28
28 -51 62 -37 55 -49 65 -109 90 -37 16 -85 38 -108 49 -52 24 -66 24 -89 -1z
m118 -81 c80 -26 103 -42 123 -82 9 -17 25 -41 35 -53 19 -20 19 -21 -11 -59
-52 -66 -67 -171 -30 -218 l20 -26 -54 -63 c-29 -35 -78 -77 -107 -95 -77 -46
-86 -48 -99 -23 -11 20 -10 31 15 250 5 42 13 126 19 195 12 136 19 195 23
195 2 0 32 -9 66 -21z m475 -104 c20 -15 21 -23 18 -103 -2 -55 -9 -98 -19
-117 -42 -79 -141 -129 -223 -114 -26 5 -49 10 -50 12 -1 1 9 25 23 52 18 37
26 72 30 132 l5 82 37 12 c20 6 43 17 51 25 39 34 94 42 128 19z m-268 -160
c0 -27 -9 -63 -21 -87 l-21 -42 -14 25 c-22 40 -18 96 11 124 35 36 45 31 45
-20z"/>
</g>
</svg>
