<?xml version="1.0" standalone="no"?>
<!DOCTYPE svg PUBLIC "-//W3C//DTD SVG 20010904//EN"
 "http://www.w3.org/TR/2001/REC-SVG-20010904/DTD/svg10.dtd">
<svg version="1.0" xmlns="http://www.w3.org/2000/svg"
 width="86.000000pt" height="88.000000pt" viewBox="0 0 86.000000 88.000000"
 preserveAspectRatio="xMidYMid meet">
<metadata>
Created by potrace 1.16, written by Peter Selinger 2001-2019
</metadata>
<g transform="translate(0.000000,88.000000) scale(0.100000,-0.100000)"
fill="#000000" stroke="none">
<path d="M175 818 c-94 -56 -122 -98 -66 -98 33 0 83 -37 158 -117 l53 -55
-24 -19 c-25 -19 -51 -79 -48 -111 2 -33 36 -91 63 -107 23 -14 39 -16 96 -9
100 13 98 13 150 -39 75 -74 87 -83 103 -73 11 7 8 16 -16 47 -16 21 -44 62
-61 91 -31 51 -32 54 -16 79 12 18 16 44 15 91 -3 108 -40 138 -131 108 -73
-23 -84 -21 -141 32 l-51 47 14 68 c8 37 20 74 27 82 11 13 6 15 -31 14 -30 0
-60 -10 -94 -31z m75 -9 c0 -15 -22 -99 -26 -99 -1 0 -23 11 -49 24 l-45 25
52 29 c60 34 68 36 68 21z m280 -310 c0 -14 5 -30 10 -37 6 -6 7 -10 4 -7 -4
3 -13 -3 -20 -13 -13 -16 -17 -13 -59 30 -25 26 -45 53 -45 61 0 9 17 18 43
23 37 9 43 7 54 -11 7 -11 12 -31 13 -46z m-129 -61 c48 -54 49 -68 4 -68 -28
0 -37 5 -50 30 -18 34 -20 80 -4 80 6 0 29 -19 50 -42z"/>
</g>
</svg>
