<?xml version="1.0" standalone="no"?>
<!DOCTYPE svg PUBLIC "-//W3C//DTD SVG 20010904//EN"
 "http://www.w3.org/TR/2001/REC-SVG-20010904/DTD/svg10.dtd">
<svg version="1.0" xmlns="http://www.w3.org/2000/svg"
 width="118.000000pt" height="108.000000pt" viewBox="0 0 118.000000 108.000000"
 preserveAspectRatio="xMidYMid meet">
<metadata>
Created by potrace 1.16, written by Peter Selinger 2001-2019
</metadata>
<g transform="translate(0.000000,108.000000) scale(0.100000,-0.100000)"
fill="#000000" stroke="none">
<path d="M334 940 c-27 -11 -87 -81 -111 -129 -9 -20 -18 -57 -18 -83 0 -38 5
-52 29 -77 67 -70 207 -77 308 -17 70 42 98 85 98 148 0 65 -21 103 -78 139
-41 26 -54 29 -126 28 -45 0 -90 -4 -102 -9z m197 -62 c49 -33 59 -50 59 -105
0 -53 -19 -81 -79 -111 -123 -64 -203 -43 -252 66 -32 68 -11 112 79 169 53
34 127 26 193 -19z"/>
<path d="M863 721 c-158 -67 -224 -225 -115 -277 28 -13 55 -16 131 -12 160 8
221 55 221 170 0 64 -17 108 -52 132 -34 24 -113 18 -185 -13z m143 -19 c32
-26 44 -55 44 -110 0 -34 -6 -57 -20 -75 -45 -57 -205 -78 -256 -34 -56 48
-21 157 64 201 68 35 138 43 168 18z"/>
<path d="M429 444 c-43 -8 -193 -88 -203 -109 -6 -11 -21 -36 -33 -56 -52 -80
-22 -117 120 -148 117 -25 202 -27 258 -5 96 39 107 205 20 288 -25 24 -41 30
-83 32 -29 1 -64 0 -79 -2z m108 -66 c66 -39 83 -182 25 -212 -45 -22 -131
-27 -200 -11 -85 20 -120 40 -139 79 -15 32 -14 34 12 74 28 43 92 82 136 82
13 0 30 4 38 9 20 13 91 1 128 -21z"/>
</g>
</svg>
