<?xml version="1.0" standalone="no"?>
<!DOCTYPE svg PUBLIC "-//W3C//DTD SVG 20010904//EN"
 "http://www.w3.org/TR/2001/REC-SVG-20010904/DTD/svg10.dtd">
<svg version="1.0" xmlns="http://www.w3.org/2000/svg"
 width="106.000000pt" height="92.000000pt" viewBox="0 0 106.000000 92.000000"
 preserveAspectRatio="xMidYMid meet">
<metadata>
Created by potrace 1.16, written by Peter Selinger 2001-2019
</metadata>
<g transform="translate(0.000000,92.000000) scale(0.100000,-0.100000)"
fill="#000000" stroke="none">
<path d="M650 785 c-25 -25 -55 -48 -67 -51 -12 -3 -29 -17 -38 -30 -15 -23
-15 -25 10 -34 28 -11 207 -131 242 -162 l21 -20 -84 -106 c-125 -157 -132
-164 -146 -155 -7 4 -34 23 -60 42 l-48 35 0 67 c0 38 5 80 12 94 6 14 9 27 6
30 -11 11 -35 -10 -102 -87 -39 -44 -85 -90 -103 -102 -18 -11 -33 -24 -33
-28 0 -13 34 -8 54 7 30 23 43 19 154 -37 70 -36 101 -57 97 -66 -9 -24 4 -31
31 -17 22 11 30 10 68 -11 35 -20 45 -22 59 -11 13 9 15 20 9 47 -5 19 -8 59
-7 88 1 47 6 59 44 107 24 30 54 61 67 70 13 8 24 22 24 30 0 14 -44 59 -113
117 -36 29 -52 122 -36 202 7 34 -16 27 -61 -19z m23 -52 c-7 -3 -8 -16 -3
-38 4 -20 4 -35 -1 -35 -5 0 -9 4 -9 8 0 5 -12 14 -26 21 l-27 12 23 24 c13
14 28 21 38 17 9 -3 11 -7 5 -9z m-229 -370 c3 -24 4 -43 2 -43 -9 0 -66 23
-66 26 0 6 53 64 56 62 1 -2 4 -22 8 -45z m243 -110 c-3 -15 -1 -37 4 -50 10
-26 2 -29 -23 -9 -22 16 -23 30 -2 61 21 32 28 32 21 -2z"/>
<path d="M535 760 c-16 -10 -61 -54 -100 -96 -68 -74 -164 -148 -195 -149 -9
0 -16 -11 -18 -25 -1 -18 11 -39 49 -77 50 -52 76 -65 84 -40 2 6 6 39 10 72
11 114 19 134 87 202 35 35 80 75 100 90 21 14 35 29 32 34 -8 13 -15 11 -49
-11z m-201 -283 c-4 -26 -10 -47 -13 -47 -9 0 -54 60 -49 64 8 8 63 34 66 32
1 -2 -1 -24 -4 -49z"/>
</g>
</svg>
