<?xml version="1.0" standalone="no"?>
<!DOCTYPE svg PUBLIC "-//W3C//DTD SVG 20010904//EN"
 "http://www.w3.org/TR/2001/REC-SVG-20010904/DTD/svg10.dtd">
<svg version="1.0" xmlns="http://www.w3.org/2000/svg"
 width="102.000000pt" height="89.000000pt" viewBox="0 0 102.000000 89.000000"
 preserveAspectRatio="xMidYMid meet">
<metadata>
Created by potrace 1.16, written by Peter Selinger 2001-2019
</metadata>
<g transform="translate(0.000000,89.000000) scale(0.100000,-0.100000)"
fill="#000000" stroke="none">
<path d="M610 809 c-70 -50 -130 -105 -130 -119 0 -13 27 -13 35 0 4 6 24 -8
46 -34 24 -27 63 -56 102 -74 66 -31 129 -87 149 -133 14 -31 38 -39 38 -14 0
9 -20 46 -45 84 -37 56 -56 74 -106 101 l-61 32 5 64 c3 35 12 75 21 89 17 26
21 46 9 44 -5 0 -33 -19 -63 -40z m6 -61 c-3 -13 -6 -34 -6 -48 l0 -25 -27 28
-28 28 24 20 c31 25 45 24 37 -3z"/>
<path d="M457 747 c-18 -18 -62 -64 -98 -103 -81 -85 -130 -120 -187 -133 -24
-5 -46 -12 -49 -15 -6 -6 65 -89 100 -117 11 -9 17 -20 14 -26 -3 -5 -2 -15 2
-22 7 -10 14 -11 32 -2 38 19 -82 -89 -124 -110 -36 -19 -45 -33 -28 -43 9 -6
94 45 105 62 7 12 92 -19 136 -49 14 -9 48 -28 76 -42 28 -14 54 -33 57 -41 3
-8 14 -15 24 -15 34 0 68 -8 90 -22 21 -12 25 -11 45 9 18 18 20 24 10 31 -11
7 -11 15 2 46 9 20 16 45 16 55 0 16 76 88 174 163 20 15 36 34 36 42 0 34
-22 18 -198 -141 -71 -65 -134 -114 -150 -117 -30 -6 -117 46 -152 90 -20 26
-28 111 -13 148 5 15 8 15 24 -6 15 -20 19 -21 33 -10 9 7 16 20 16 27 0 8 4
14 8 14 11 0 48 -41 55 -62 8 -22 55 -34 70 -19 12 12 2 24 -28 34 -6 2 -1 25
12 55 12 29 17 54 12 58 -14 8 -29 -5 -40 -34 -7 -19 -13 -22 -21 -14 -16 16
6 39 61 66 24 11 47 27 49 35 7 22 -40 6 -103 -34 -30 -19 -56 -35 -59 -35
-11 0 -2 55 12 78 21 33 -7 30 -39 -4 -13 -14 -41 -35 -61 -45 -45 -23 -69
-59 -40 -59 31 0 33 -12 6 -36 -21 -20 -28 -22 -45 -11 -21 12 -21 14 -5 114
1 7 5 16 9 19 4 4 7 15 7 24 0 9 14 29 31 46 64 60 171 184 159 184 -7 0 -26
-15 -43 -33z m-199 -257 c-6 -22 -13 -40 -17 -40 -12 0 -34 44 -24 47 6 2 19
10 29 18 10 8 20 15 20 15 1 0 -3 -18 -8 -40z m169 -15 c-4 -33 -12 -38 -27
-20 -11 13 -10 18 6 30 25 19 25 19 21 -10z m-101 -202 c-2 -2 -16 -1 -30 3
l-27 6 23 25 23 24 7 -27 c4 -16 6 -30 4 -31z m315 -105 c-5 -13 -12 -32 -16
-42 -5 -18 -7 -18 -23 -3 -15 16 -15 19 8 41 32 31 42 32 31 4z"/>
<path d="M651 490 c-75 -45 -96 -70 -56 -70 14 0 25 -6 25 -12 0 -17 66 -61
79 -53 6 3 11 17 11 30 0 13 7 44 15 69 14 40 12 77 -4 75 -3 0 -35 -18 -70
-39z m46 -40 c-6 -22 -15 -40 -19 -40 -13 0 -32 44 -21 47 6 2 19 10 29 18 10
8 19 15 20 15 1 0 -4 -18 -9 -40z"/>
</g>
</svg>
