<?xml version="1.0" standalone="no"?>
<!DOCTYPE svg PUBLIC "-//W3C//DTD SVG 20010904//EN"
 "http://www.w3.org/TR/2001/REC-SVG-20010904/DTD/svg10.dtd">
<svg version="1.0" xmlns="http://www.w3.org/2000/svg"
 width="105.000000pt" height="111.000000pt" viewBox="0 0 105.000000 111.000000"
 preserveAspectRatio="xMidYMid meet">
<metadata>
Created by potrace 1.16, written by Peter Selinger 2001-2019
</metadata>
<g transform="translate(0.000000,111.000000) scale(0.100000,-0.100000)"
fill="#000000" stroke="none">
<path d="M132 988 c-10 -10 -8 -16 10 -30 23 -17 23 -20 21 -207 -1 -145 -6
-199 -17 -223 -29 -64 -38 -117 -51 -316 -2 -40 -7 -77 -9 -81 -3 -4 1 -17 9
-27 17 -21 18 -20 75 60 14 20 60 63 102 97 42 33 99 86 126 117 27 32 82 90
121 131 40 40 69 76 66 79 -10 10 -100 12 -170 3 -38 -5 -83 -7 -98 -4 -27 5
-27 6 -11 24 10 11 14 22 11 25 -4 4 6 25 22 48 16 22 53 79 84 126 30 47 74
103 96 125 23 21 41 43 41 47 0 5 -78 8 -174 8 -96 -1 -189 2 -207 5 -22 4
-39 2 -47 -7z m361 -34 c-11 -5 -126 -172 -151 -219 -14 -28 -111 -149 -126
-157 -9 -5 -12 32 -12 150 0 86 -2 171 -4 187 l-5 30 115 6 c167 7 196 8 183
3z m4 -390 c21 -6 17 -13 -52 -93 -41 -48 -93 -102 -117 -121 -24 -19 -71 -62
-106 -95 -78 -73 -85 -77 -78 -34 3 19 8 57 11 84 21 206 37 234 140 235 33 1
78 8 175 29 3 0 15 -2 27 -5z"/>
<path d="M679 905 c-35 -19 -47 -58 -55 -174 -4 -53 -15 -134 -25 -180 -11
-46 -18 -85 -17 -86 2 -2 17 -6 33 -9 27 -6 37 0 95 54 108 101 150 144 150
152 0 5 41 48 90 95 50 47 90 92 90 100 0 12 -3 13 -14 4 -12 -10 -13 -8 -9 8
5 20 1 20 -78 18 -85 -2 -134 4 -183 23 -35 13 -45 12 -77 -5z m131 -43 c58
-12 97 -15 123 -10 25 5 42 4 50 -4 10 -8 -10 -34 -88 -113 -55 -57 -107 -111
-116 -121 -9 -11 -27 -28 -40 -39 -13 -12 -43 -42 -66 -68 l-41 -48 3 33 c2
18 11 62 19 98 9 36 16 93 16 127 0 89 18 163 38 163 9 0 55 -8 102 -18z"/>
</g>
</svg>
