<?xml version="1.0" standalone="no"?>
<!DOCTYPE svg PUBLIC "-//W3C//DTD SVG 20010904//EN"
 "http://www.w3.org/TR/2001/REC-SVG-20010904/DTD/svg10.dtd">
<svg version="1.0" xmlns="http://www.w3.org/2000/svg"
 width="80.000000pt" height="52.000000pt" viewBox="0 0 80.000000 52.000000"
 preserveAspectRatio="xMidYMid meet">
<metadata>
Created by potrace 1.16, written by Peter Selinger 2001-2019
</metadata>
<g transform="translate(0.000000,52.000000) scale(0.100000,-0.100000)"
fill="#000000" stroke="none">
<path d="M364 385 c-27 -14 -70 -45 -97 -70 -39 -37 -47 -50 -47 -80 0 -51 21
-85 75 -124 62 -45 101 -52 176 -35 115 27 165 73 176 163 7 64 -8 102 -57
141 -34 27 -45 30 -107 30 -54 0 -80 -6 -119 -25z m177 -35 c43 -23 58 -50 61
-110 2 -52 -24 -87 -80 -113 -119 -53 -241 -3 -259 107 -5 30 -1 37 41 71 25
22 58 44 73 51 44 20 119 17 164 -6z"/>
</g>
</svg>
