<?xml version="1.0" standalone="no"?>
<!DOCTYPE svg PUBLIC "-//W3C//DTD SVG 20010904//EN"
 "http://www.w3.org/TR/2001/REC-SVG-20010904/DTD/svg10.dtd">
<svg version="1.0" xmlns="http://www.w3.org/2000/svg"
 width="116.000000pt" height="58.000000pt" viewBox="0 0 116.000000 58.000000"
 preserveAspectRatio="xMidYMid meet">
<metadata>
Created by potrace 1.16, written by Peter Selinger 2001-2019
</metadata>
<g transform="translate(0.000000,58.000000) scale(0.100000,-0.100000)"
fill="#000000" stroke="none">
<path d="M258 375 c-9 -20 -7 -44 10 -119 12 -52 20 -100 17 -108 -3 -7 4 -19
14 -25 17 -10 28 -7 74 20 136 82 308 134 527 158 112 12 132 17 127 32 -4 14
-37 15 -102 2 -27 -6 -124 -9 -215 -7 -222 4 -261 6 -296 19 -16 6 -48 16 -71
22 -24 7 -43 16 -43 21 0 20 -31 9 -42 -15z m136 -57 c22 -12 120 -20 236 -19
l85 0 -65 -19 c-36 -11 -73 -19 -83 -20 -10 0 -15 -4 -12 -10 3 -6 -1 -7 -10
-4 -9 4 -26 2 -38 -3 -12 -6 -48 -22 -80 -36 -80 -38 -92 -36 -105 16 -6 23
-14 59 -17 80 l-6 38 38 -7 c21 -4 46 -11 57 -16z"/>
</g>
</svg>
