<?xml version="1.0" standalone="no"?>
<!DOCTYPE svg PUBLIC "-//W3C//DTD SVG 20010904//EN"
 "http://www.w3.org/TR/2001/REC-SVG-20010904/DTD/svg10.dtd">
<svg version="1.0" xmlns="http://www.w3.org/2000/svg"
 width="130.000000pt" height="118.000000pt" viewBox="0 0 130.000000 118.000000"
 preserveAspectRatio="xMidYMid meet">
<metadata>
Created by potrace 1.16, written by Peter Selinger 2001-2019
</metadata>
<g transform="translate(0.000000,118.000000) scale(0.100000,-0.100000)"
fill="#000000" stroke="none">
<path d="M814 1076 c-27 -18 -66 -38 -86 -45 -26 -9 -38 -18 -38 -32 0 -20
-117 -137 -188 -188 -39 -29 -70 -63 -41 -46 23 14 151 121 199 167 l45 43 52
-55 c29 -30 53 -63 53 -72 0 -20 8 -22 30 -8 10 6 26 -3 60 -38 26 -26 73 -63
104 -82 32 -19 79 -56 105 -81 27 -26 58 -50 70 -54 11 -3 21 -10 21 -14 0
-13 -141 -154 -273 -272 -73 -66 -152 -127 -187 -144 -32 -16 -57 -34 -56 -39
1 -5 17 -15 35 -21 18 -6 38 -20 44 -30 5 -11 15 -23 21 -27 16 -11 56 -10 56
2 0 6 -5 10 -10 10 -6 0 -20 15 -31 34 -11 19 -30 36 -42 40 -20 5 -17 9 27
36 27 17 55 38 63 46 22 21 23 17 9 -23 -21 -62 -29 -126 -14 -121 13 5 46
107 52 161 2 15 12 36 22 45 10 9 57 51 104 92 47 41 113 101 147 132 34 32
66 58 72 58 24 0 8 25 -46 76 -32 30 -65 53 -73 51 -10 -1 -14 5 -12 19 2 15
-12 30 -54 60 -71 49 -189 156 -188 169 11 122 13 175 6 179 -5 3 -31 -10 -58
-28z m8 -76 c-2 -27 -7 -50 -10 -50 -4 0 -19 12 -33 28 l-26 27 31 23 c16 12
32 22 35 22 3 0 4 -22 3 -50z"/>
<path d="M407 739 c-9 -6 -15 -14 -12 -19 6 -9 -40 -115 -72 -168 l-21 -33
-37 32 c-37 33 -37 33 -13 42 16 6 19 11 9 14 -10 4 -8 10 10 24 21 17 18 17
-28 -2 -46 -19 -53 -25 -53 -49 0 -26 36 -70 57 -70 6 0 16 -7 24 -16 10 -13
10 -17 -2 -25 -12 -8 -12 -10 0 -18 11 -7 3 -17 -34 -43 -76 -52 -91 -66 -82
-74 4 -4 12 -3 18 3 7 7 21 5 47 -8 20 -11 44 -19 53 -19 24 0 104 -37 120
-56 21 -25 182 -106 257 -129 16 -5 22 -2 22 10 0 8 -7 18 -15 20 -30 10 -41
16 -117 63 -95 59 -120 89 -124 150 -6 84 -15 147 -23 161 -7 11 -13 10 -35
-4 -14 -10 -26 -14 -26 -11 0 3 20 45 45 92 25 46 45 96 45 109 0 13 6 26 13
28 6 3 8 6 2 6 -5 0 -18 -4 -28 -10z m-42 -323 c3 -27 8 -53 11 -58 4 -6 -19
-6 -58 -2 -34 4 -70 8 -78 8 -9 0 10 24 45 57 33 32 63 54 67 51 4 -4 9 -29
13 -56z"/>
<path d="M590 661 c-47 -44 -100 -88 -117 -98 -18 -9 -33 -24 -33 -33 0 -18
102 -130 119 -130 7 0 10 -4 7 -9 -9 -14 18 -31 33 -21 12 7 9 15 -12 40 -29
33 -35 77 -16 111 6 12 12 43 13 70 2 46 7 53 57 99 30 27 49 49 44 50 -6 0
-48 -36 -95 -79z m-40 -85 c0 -12 -5 -37 -11 -55 l-11 -32 -24 22 c-30 29 -30
35 4 64 34 31 42 31 42 1z"/>
<path d="M791 675 c-19 -19 -42 -35 -52 -35 -10 0 -23 -9 -29 -19 -5 -11 -34
-32 -62 -48 -29 -15 -54 -36 -56 -46 -3 -12 13 -34 43 -62 25 -24 45 -50 43
-59 -3 -15 6 -18 30 -8 7 2 18 0 25 -7 12 -12 47 -15 47 -4 0 3 -14 18 -30 32
l-31 26 17 85 c12 62 23 90 38 102 12 9 37 30 56 47 29 26 32 31 15 31 -11 0
-35 -16 -54 -35z m-84 -137 c-5 -29 -12 -55 -14 -57 -5 -7 -53 41 -53 53 0 10
57 54 71 55 3 1 2 -23 -4 -51z"/>
<path d="M330 680 c-13 -11 -19 -20 -13 -20 5 0 18 9 28 20 10 11 16 20 13 20
-3 0 -15 -9 -28 -20z"/>
<path d="M894 615 c-38 -25 -81 -50 -96 -56 -40 -16 -35 -34 22 -75 31 -22 50
-43 50 -55 0 -11 6 -19 13 -18 6 1 20 -1 30 -6 32 -14 41 10 13 33 -43 34 -29
139 25 183 55 45 16 40 -57 -6z m-17 -74 c-10 -39 -11 -39 -34 -23 -29 22 -28
24 5 44 39 23 40 22 29 -21z"/>
<path d="M136 512 c16 -15 115 -52 108 -41 -6 11 -38 25 -88 40 -16 5 -25 5
-20 1z"/>
</g>
</svg>
