<?xml version="1.0" standalone="no"?>
<!DOCTYPE svg PUBLIC "-//W3C//DTD SVG 20010904//EN"
 "http://www.w3.org/TR/2001/REC-SVG-20010904/DTD/svg10.dtd">
<svg version="1.0" xmlns="http://www.w3.org/2000/svg"
 width="72.000000pt" height="48.000000pt" viewBox="0 0 72.000000 48.000000"
 preserveAspectRatio="xMidYMid meet">
<metadata>
Created by potrace 1.16, written by Peter Selinger 2001-2019
</metadata>
<g transform="translate(0.000000,48.000000) scale(0.100000,-0.100000)"
fill="#000000" stroke="none">
<path d="M108 353 c-11 -14 -15 -48 -16 -145 -1 -141 3 -149 56 -107 64 50
155 111 178 120 17 6 54 6 107 -1 150 -19 268 -10 226 16 -7 4 -96 18 -198 30
-181 23 -219 33 -271 73 -38 29 -64 34 -82 14z m132 -108 c16 -4 30 -10 30
-13 0 -6 -114 -82 -123 -82 -3 0 -2 40 1 118 l2 34 30 -25 c16 -14 43 -28 60
-32z"/>
</g>
</svg>
