<?xml version="1.0" standalone="no"?>
<!DOCTYPE svg PUBLIC "-//W3C//DTD SVG 20010904//EN"
 "http://www.w3.org/TR/2001/REC-SVG-20010904/DTD/svg10.dtd">
<svg version="1.0" xmlns="http://www.w3.org/2000/svg"
 width="114.000000pt" height="64.000000pt" viewBox="0 0 114.000000 64.000000"
 preserveAspectRatio="xMidYMid meet">
<metadata>
Created by potrace 1.16, written by Peter Selinger 2001-2019
</metadata>
<g transform="translate(0.000000,64.000000) scale(0.100000,-0.100000)"
fill="#000000" stroke="none">
<path d="M338 535 c-2 -2 -23 -4 -48 -6 -25 -1 -53 -6 -62 -11 -26 -13 -22
-31 4 -22 12 4 52 6 88 4 36 -1 106 -3 155 -5 50 -1 104 -8 120 -13 28 -11 28
-11 5 -11 -71 3 -99 -3 -139 -28 -51 -33 -91 -104 -91 -162 0 -33 6 -44 41
-76 38 -34 45 -37 82 -31 49 8 89 26 94 43 3 8 -6 10 -29 7 -26 -5 -43 1 -83
28 -42 28 -50 38 -53 69 -2 27 3 41 22 60 44 44 88 63 131 55 45 -9 95 -57 95
-92 0 -13 6 -24 13 -24 8 0 9 -3 1 -8 -6 -4 -17 -24 -24 -45 -18 -55 -80 -92
-184 -107 -45 -6 -103 -15 -131 -20 -90 -16 -160 -22 -152 -14 4 4 1 15 -7 23
-13 14 -13 34 -1 156 19 179 19 205 1 205 -18 0 -33 -43 -40 -115 -3 -33 -8
-87 -12 -120 -3 -33 -7 -77 -9 -97 -6 -69 1 -79 54 -73 97 11 137 17 175 25
22 5 78 8 125 8 47 0 99 4 114 11 15 6 74 20 130 31 128 26 215 66 252 114 60
78 14 171 -89 181 -79 8 -218 28 -281 40 -38 8 -96 12 -128 11 -32 -2 -76 0
-98 4 -21 4 -40 6 -41 5z m473 -84 c36 -5 75 -14 87 -20 11 -6 28 -8 38 -4 12
5 15 3 9 -6 -4 -7 -3 -16 3 -20 6 -3 13 -18 17 -33 15 -58 -102 -129 -265
-163 -33 -7 -34 -7 -19 11 29 35 50 107 40 140 -12 43 -30 75 -55 97 -21 18
-20 18 29 13 28 -3 80 -10 116 -15z"/>
</g>
</svg>
