<?xml version="1.0" standalone="no"?>
<!DOCTYPE svg PUBLIC "-//W3C//DTD SVG 20010904//EN"
 "http://www.w3.org/TR/2001/REC-SVG-20010904/DTD/svg10.dtd">
<svg version="1.0" xmlns="http://www.w3.org/2000/svg"
 width="156.000000pt" height="130.000000pt" viewBox="0 0 156.000000 130.000000"
 preserveAspectRatio="xMidYMid meet">
<metadata>
Created by potrace 1.16, written by Peter Selinger 2001-2019
</metadata>
<g transform="translate(0.000000,130.000000) scale(0.100000,-0.100000)"
fill="#000000" stroke="none">
<path d="M784 1189 c-72 -9 -150 -37 -184 -65 -16 -14 -59 -40 -97 -59 -38
-19 -87 -50 -110 -69 -23 -20 -48 -36 -56 -36 -19 0 -41 -27 -57 -70 -7 -19
-17 -39 -21 -45 -15 -20 -48 -119 -55 -161 -7 -46 17 -130 61 -214 13 -25 27
-57 30 -73 9 -45 70 -104 133 -128 80 -30 116 -38 206 -45 43 -4 89 -9 102
-13 36 -9 253 4 304 20 188 55 290 206 290 428 0 89 -25 221 -56 304 -22 58
-35 76 -99 131 -59 51 -84 66 -127 76 -76 17 -204 26 -264 19z m55 -44 l27 -6
-38 -39 c-20 -22 -68 -82 -106 -133 -72 -96 -309 -343 -375 -392 -32 -24 -40
-26 -48 -14 -20 31 -29 87 -22 148 7 74 30 107 66 95 69 -24 103 6 38 32 -23
9 -41 20 -41 26 0 18 60 96 104 135 43 38 84 61 169 98 20 9 37 19 37 24 0 18
139 37 189 26z m138 -19 c86 -14 95 -19 184 -111 43 -44 64 -103 93 -260 24
-131 25 -182 4 -259 -23 -83 -50 -120 -129 -176 -60 -42 -63 -43 -168 -50
-191 -12 -411 9 -411 40 0 10 133 120 144 120 4 0 36 -29 71 -65 46 -46 72
-65 90 -65 38 0 29 24 -23 62 -18 13 -92 111 -92 122 0 3 50 56 110 117 61 62
110 116 110 122 0 5 -9 11 -19 14 -16 4 -19 12 -15 39 2 19 6 49 8 68 8 65
-23 253 -47 284 -12 15 -11 15 90 -2z m-100 -265 l6 -124 -29 8 c-70 18 -94
21 -166 20 -43 -1 -78 3 -78 7 0 5 21 28 46 51 26 23 63 67 83 97 21 30 53 76
72 101 l34 46 14 -41 c7 -23 16 -97 18 -165z m-76 -152 c52 -9 69 -16 69 -28
0 -9 -36 -52 -81 -95 l-80 -80 -25 30 c-13 16 -33 45 -43 64 -11 19 -36 51
-56 69 -34 31 -35 36 -19 42 29 12 158 10 235 -2z m-271 -54 c0 -8 11 -22 26
-31 14 -9 32 -31 41 -48 9 -17 30 -48 47 -69 l31 -39 -40 -35 c-22 -20 -56
-50 -75 -68 -19 -17 -40 -34 -47 -38 -15 -10 -86 19 -79 32 3 5 -14 25 -39 46
-30 24 -45 44 -45 60 0 12 -7 25 -15 29 -25 9 -17 23 28 55 23 16 67 52 97 79
53 49 70 55 70 27z"/>
</g>
</svg>
