<?xml version="1.0" standalone="no"?>
<!DOCTYPE svg PUBLIC "-//W3C//DTD SVG 20010904//EN"
 "http://www.w3.org/TR/2001/REC-SVG-20010904/DTD/svg10.dtd">
<svg version="1.0" xmlns="http://www.w3.org/2000/svg"
 width="114.000000pt" height="100.000000pt" viewBox="0 0 114.000000 100.000000"
 preserveAspectRatio="xMidYMid meet">
<metadata>
Created by potrace 1.16, written by Peter Selinger 2001-2019
</metadata>
<g transform="translate(0.000000,100.000000) scale(0.100000,-0.100000)"
fill="#000000" stroke="none">
<path d="M547 869 c-17 -10 -24 -39 -8 -39 4 0 9 -22 9 -48 l2 -48 -88 3 c-48
1 -103 6 -122 12 -135 37 -144 38 -137 11 3 -11 -2 -25 -10 -32 -12 -9 -14
-25 -9 -68 4 -30 6 -67 6 -83 0 -17 6 -30 16 -34 15 -6 16 -23 10 -174 -6
-133 -4 -168 6 -171 30 -11 238 102 238 129 0 10 14 12 62 8 33 -2 63 -7 65
-9 2 -2 -1 -41 -7 -87 -12 -87 -7 -133 13 -126 7 2 17 44 24 102 7 54 15 100
18 104 3 3 76 6 161 7 85 0 157 4 161 7 16 16 -15 21 -126 18 -66 -1 -135 1
-155 4 -35 7 -36 8 -36 55 l0 47 138 6 c131 5 197 16 175 30 -5 4 -37 2 -69
-3 -32 -5 -100 -9 -150 -8 l-92 0 -5 47 c-3 25 -4 47 -2 49 2 2 36 6 77 8 223
13 258 17 258 31 0 11 -13 12 -62 8 -134 -11 -258 -14 -257 -7 0 4 13 27 28
52 l27 45 120 0 c98 0 119 3 122 15 2 13 -14 15 -108 14 -60 -1 -110 1 -110 3
0 3 16 26 36 50 20 24 33 47 30 51 -4 3 -44 5 -90 3 -60 -2 -92 2 -113 12 -20
11 -34 12 -46 6z m173 -73 c-1 -48 -105 -83 -121 -41 -19 50 -13 56 56 54 40
-1 65 -6 65 -13z m-477 -62 c3 -4 24 -8 46 -9 64 -5 67 -13 17 -61 -26 -24
-51 -44 -56 -44 -5 0 -14 -8 -19 -17 -8 -13 -10 2 -11 60 0 70 6 88 23 71z
m412 -41 c-4 -10 -10 -26 -12 -35 -8 -26 -22 -22 -29 8 -7 27 7 44 35 44 9 0
11 -6 6 -17z m-91 -9 c3 -9 6 -29 6 -46 l0 -31 -57 6 c-32 4 -88 9 -125 13
-38 3 -68 10 -68 14 0 5 15 20 33 34 29 23 41 26 118 26 70 0 88 -3 93 -16z
m-199 -84 l30 0 -40 -27 c-22 -14 -52 -39 -67 -54 -21 -22 -28 -24 -32 -12
-18 46 20 109 59 99 11 -3 33 -6 50 -6z m176 -20 c34 1 36 -1 46 -44 l10 -44
-72 -7 c-75 -7 -212 2 -220 15 -6 10 33 44 80 70 30 16 50 20 80 15 22 -3 56
-6 76 -5z m-194 -117 c24 -3 40 -9 38 -13 -8 -14 -116 -82 -121 -77 -3 2 -7
21 -11 41 -6 41 11 71 36 60 9 -3 35 -9 58 -11z m245 -74 c-4 -36 -4 -36 -43
-29 -21 4 -50 5 -64 2 -14 -2 -55 -1 -91 3 l-66 7 24 25 c37 40 77 55 158 62
85 7 91 1 82 -70z m-185 -54 c44 -1 -3 -39 -97 -77 l-65 -27 -3 31 c-3 22 4
38 24 59 26 27 32 29 74 22 25 -4 55 -7 67 -8z"/>
</g>
</svg>
