<?xml version="1.0" standalone="no"?>
<!DOCTYPE svg PUBLIC "-//W3C//DTD SVG 20010904//EN"
 "http://www.w3.org/TR/2001/REC-SVG-20010904/DTD/svg10.dtd">
<svg version="1.0" xmlns="http://www.w3.org/2000/svg"
 width="126.000000pt" height="64.000000pt" viewBox="0 0 126.000000 64.000000"
 preserveAspectRatio="xMidYMid meet">
<metadata>
Created by potrace 1.16, written by Peter Selinger 2001-2019
</metadata>
<g transform="translate(0.000000,64.000000) scale(0.100000,-0.100000)"
fill="#000000" stroke="none">
<path d="M1005 545 c-63 -20 -145 -37 -210 -45 -100 -13 -185 -32 -185 -42 0
-5 -5 -6 -10 -3 -6 4 -43 0 -83 -8 -40 -9 -102 -18 -139 -21 -68 -5 -164 -31
-174 -47 -3 -5 -14 -9 -24 -9 -22 0 -36 -18 -23 -31 14 -14 251 -58 355 -66
107 -8 143 -9 293 -4 121 3 213 -9 249 -33 22 -14 25 -13 41 4 14 15 15 25 7
52 -10 31 -24 147 -26 213 -1 31 -12 56 -24 54 -4 -1 -25 -7 -47 -14z m22
-118 c1 -45 5 -97 7 -114 4 -31 3 -33 -23 -33 -16 0 -47 6 -69 14 -22 8 -42
12 -45 10 -9 -9 -337 -12 -337 -3 0 5 -26 9 -57 8 -32 -1 -101 7 -153 17 -90
16 -127 30 -115 42 6 6 12 7 100 18 33 4 66 12 74 18 12 8 13 8 7 -2 -6 -9 -2
-11 16 -8 92 21 286 60 348 71 97 17 223 45 229 51 10 10 15 -11 18 -89z"/>
</g>
</svg>
