<?xml version="1.0" standalone="no"?>
<!DOCTYPE svg PUBLIC "-//W3C//DTD SVG 20010904//EN"
 "http://www.w3.org/TR/2001/REC-SVG-20010904/DTD/svg10.dtd">
<svg version="1.0" xmlns="http://www.w3.org/2000/svg"
 width="290.000000pt" height="136.000000pt" viewBox="0 0 290.000000 136.000000"
 preserveAspectRatio="xMidYMid meet">
<metadata>
Created by potrace 1.16, written by Peter Selinger 2001-2019
</metadata>
<g transform="translate(0.000000,136.000000) scale(0.100000,-0.100000)"
fill="#000000" stroke="none">
<path d="M865 1177 c-52 -60 -62 -144 -24 -206 l20 -34 -23 7 c-13 4 -42 12
-65 18 -24 5 -43 14 -43 20 0 6 18 28 40 49 22 21 40 46 40 55 0 16 -1 16 -18
1 -10 -10 -22 -17 -27 -17 -9 0 -104 -99 -106 -110 0 -6 -84 -76 -184 -155
-38 -30 -112 -76 -163 -101 -67 -33 -92 -51 -90 -63 2 -9 37 -34 78 -56 57
-30 75 -44 72 -58 -4 -20 8 -22 27 -4 11 10 12 9 5 -5 -10 -18 -91 -90 -144
-128 -17 -12 -30 -29 -30 -38 0 -12 3 -13 12 -4 14 14 124 16 133 2 3 -5 14
-10 24 -10 9 0 55 -25 101 -55 46 -30 103 -64 127 -76 26 -13 43 -28 43 -38 0
-18 55 -57 149 -105 66 -34 76 -27 91 59 9 50 25 105 58 205 3 8 6 17 6 20 1
4 37 43 80 88 44 45 92 105 108 134 16 28 36 60 45 70 15 16 15 18 0 18 -9 0
-20 -7 -24 -15 -7 -11 -16 -4 -43 32 -19 26 -63 70 -98 98 -35 28 -71 66 -79
84 -9 17 -24 36 -34 42 -11 5 -19 16 -19 25 0 8 -9 32 -20 54 -25 50 -27 149
-4 185 13 20 13 25 3 25 -8 -1 -19 -6 -24 -13z m-130 -247 c3 -5 16 -10 29
-10 37 0 81 -27 119 -73 19 -24 55 -56 78 -72 51 -35 144 -116 171 -150 18
-23 18 -25 1 -52 -21 -34 -141 -168 -151 -169 -4 0 -34 -26 -67 -58 -65 -63
-150 -130 -176 -139 -9 -3 -33 5 -52 19 -20 13 -48 29 -63 34 -15 6 -52 29
-83 53 l-56 42 -3 110 c-2 60 -5 112 -8 114 -3 3 -15 -1 -27 -8 -19 -12 -20
-12 -11 0 6 8 24 47 40 87 35 88 90 164 168 232 57 49 79 59 91 40z m-259
-194 c-3 -13 -19 -54 -36 -90 l-30 -67 -37 26 c-21 14 -41 25 -46 25 -9 0 -42
30 -36 33 10 6 184 94 188 96 2 0 0 -10 -3 -23z m-37 -360 c-5 -6 -24 -5 -47
2 -22 7 -50 12 -63 12 -21 0 -17 7 36 58 l60 57 11 -60 c6 -33 7 -64 3 -69z
m467 -128 c-14 -34 -28 -82 -32 -106 -4 -23 -9 -42 -13 -42 -3 0 -18 8 -32 18
-14 9 -40 27 -58 38 l-32 22 48 30 c26 17 68 49 93 71 24 22 46 38 48 36 2 -2
-8 -32 -22 -67z"/>
<path d="M1604 1044 c-4 -14 -3 -42 1 -62 9 -45 18 -189 19 -300 1 -46 6 -86
12 -90 13 -9 17 -71 5 -86 -12 -15 -30 -108 -33 -176 -3 -51 -1 -55 20 -58 23
-4 24 -6 19 -77 -2 -40 -1 -78 3 -85 14 -22 51 1 136 85 l84 83 72 2 c98 4
108 2 108 -13 0 -20 37 -51 44 -38 4 6 9 43 12 83 10 143 12 148 78 185 94 53
217 91 335 104 119 13 137 16 127 27 -4 4 -98 7 -209 7 -196 0 -287 11 -287
35 0 14 24 64 37 78 7 8 18 23 24 35 31 59 152 206 175 211 14 4 23 12 21 19
-2 7 -11 10 -18 8 -28 -7 -306 -41 -390 -47 -115 -9 -203 8 -303 57 -44 21
-81 39 -83 39 -1 0 -6 -11 -9 -26z m149 -88 c20 -9 37 -18 37 -20 0 -10 -101
-88 -107 -82 -3 3 -7 25 -9 48 -1 24 -5 53 -9 65 -7 21 -5 22 21 14 16 -5 46
-16 67 -25z m557 17 c0 -4 -32 -49 -71 -100 -58 -76 -74 -91 -85 -82 -8 6 -14
26 -14 43 0 17 -4 48 -9 69 -9 36 -7 39 17 49 23 10 57 16 150 27 6 0 12 -2
12 -6z m-220 -87 c0 -30 3 -61 6 -69 5 -13 -14 -16 -138 -17 -138 0 -228 13
-228 33 0 5 21 28 47 51 50 44 60 46 266 54 l47 2 0 -54z m-325 -117 c33 -11
61 -22 63 -24 3 -2 -99 -64 -122 -74 -15 -6 -26 23 -26 72 0 55 2 55 85 26z
m298 -7 c26 -2 27 -5 27 -51 l0 -49 -42 -10 c-43 -11 -193 -9 -241 3 -31 8
-31 23 -1 39 10 6 33 21 50 33 50 35 88 41 207 35z m97 4 c0 -3 -4 -8 -10 -11
-5 -3 -10 -1 -10 4 0 6 5 11 10 11 6 0 10 -2 10 -4z m-399 -132 c9 -8 38 -18
63 -22 l46 -7 -76 -42 c-80 -45 -103 -52 -105 -30 -3 40 5 75 24 95 24 26 26
26 48 6z m319 -16 c0 -6 -5 -51 -11 -100 l-12 -88 -66 0 c-68 0 -242 24 -261
35 -20 12 -9 22 93 83 85 50 112 61 161 66 32 3 61 8 64 11 10 10 32 5 32 -7z
m165 -20 l70 -11 -35 -12 c-20 -7 -59 -24 -87 -39 -29 -14 -56 -26 -60 -26 -8
0 -6 72 3 99 2 8 11 10 22 6 9 -4 48 -12 87 -17z m-547 -165 c20 -9 60 -19 87
-23 39 -5 46 -8 30 -15 -11 -4 -52 -23 -92 -40 l-71 -33 -4 37 c-3 40 1 91 8
91 3 0 21 -7 42 -17z m362 -74 l0 -39 -160 0 c-88 0 -160 2 -160 5 0 7 92 46
145 60 28 7 78 13 113 13 l62 -1 0 -38z m-267 -74 c20 0 37 -3 37 -6 0 -12
-121 -119 -134 -119 -8 0 -13 22 -14 71 l-3 71 38 -8 c21 -4 55 -8 76 -9z"/>
</g>
</svg>
