<?xml version="1.0" standalone="no"?>
<!DOCTYPE svg PUBLIC "-//W3C//DTD SVG 20010904//EN"
 "http://www.w3.org/TR/2001/REC-SVG-20010904/DTD/svg10.dtd">
<svg version="1.0" xmlns="http://www.w3.org/2000/svg"
 width="127.000000pt" height="68.000000pt" viewBox="0 0 127.000000 68.000000"
 preserveAspectRatio="xMidYMid meet">
<metadata>
Created by potrace 1.16, written by Peter Selinger 2001-2019
</metadata>
<g transform="translate(0.000000,68.000000) scale(0.100000,-0.100000)"
fill="#000000" stroke="none">
<path d="M835 554 c-50 -14 -159 -32 -247 -41 -27 -3 -68 1 -98 10 -73 21 -87
15 -88 -39 -1 -25 3 -56 8 -70 l10 -26 -67 7 c-66 7 -113 26 -113 45 0 6 -7
10 -15 10 -28 0 -37 -38 -29 -131 6 -84 14 -104 30 -78 3 6 34 23 68 39 66 30
109 59 88 60 -7 0 -42 -14 -78 -31 -36 -17 -68 -29 -70 -26 -2 2 -7 33 -10 68
-5 58 -4 62 10 45 11 -13 39 -21 100 -30 46 -6 87 -14 91 -17 3 -4 13 -36 21
-70 8 -35 22 -74 30 -87 21 -32 77 -54 146 -57 57 -3 58 -2 102 45 25 27 50
66 57 89 18 60 50 91 96 92 21 0 47 2 58 5 11 2 56 4 99 5 83 1 106 5 106 20
0 8 -157 4 -257 -6 -50 -5 -53 2 -23 60 11 22 20 44 20 51 0 6 9 19 20 29 11
10 20 24 20 32 0 16 -20 15 -85 -3z m-40 -91 c-4 -32 -11 -62 -16 -67 -5 -6
-9 -19 -9 -29 0 -28 -53 -117 -94 -156 -31 -30 -38 -33 -72 -27 -43 9 -84 33
-84 51 0 6 -9 38 -19 71 -15 44 -17 61 -8 67 9 7 9 10 -1 14 -15 6 -52 76 -52
98 0 13 5 14 23 8 43 -16 304 1 324 21 12 12 14 5 8 -51z"/>
</g>
</svg>
