<?xml version="1.0" standalone="no"?>
<!DOCTYPE svg PUBLIC "-//W3C//DTD SVG 20010904//EN"
 "http://www.w3.org/TR/2001/REC-SVG-20010904/DTD/svg10.dtd">
<svg version="1.0" xmlns="http://www.w3.org/2000/svg"
 width="86.000000pt" height="62.000000pt" viewBox="0 0 86.000000 62.000000"
 preserveAspectRatio="xMidYMid meet">
<metadata>
Created by potrace 1.16, written by Peter Selinger 2001-2019
</metadata>
<g transform="translate(0.000000,62.000000) scale(0.100000,-0.100000)"
fill="#000000" stroke="none">
<path d="M311 476 c-58 -57 -132 -118 -164 -136 -32 -18 -61 -39 -64 -47 -8
-19 23 -50 56 -56 17 -4 49 -28 77 -57 26 -27 52 -50 57 -50 6 0 35 -19 66
-42 77 -60 93 -68 113 -57 11 6 16 22 16 54 0 56 11 125 20 125 4 0 29 20 55
44 46 41 51 43 129 50 83 7 148 27 148 45 0 13 -35 13 -102 2 -64 -11 -172 6
-194 30 -15 17 -15 21 -1 42 8 13 34 43 56 66 51 53 54 80 7 72 -34 -6 -120
-1 -129 8 -22 22 -41 10 -146 -93z m201 4 c-20 -35 -36 -34 -40 3 -3 24 0 27
27 27 l30 0 -17 -30z m-88 -43 c6 -46 0 -316 -7 -324 -8 -8 -107 96 -117 123
-6 15 -8 52 -4 85 4 32 6 61 6 63 -1 13 93 104 103 100 7 -3 15 -24 19 -47z
m-181 -144 c-7 -20 -10 -20 -28 -7 -20 15 -20 16 5 36 28 23 38 10 23 -29z
m277 -5 c-30 -24 -40 -23 -40 5 0 32 8 38 37 24 l25 -11 -22 -18z"/>
</g>
</svg>
