<?xml version="1.0" standalone="no"?>
<!DOCTYPE svg PUBLIC "-//W3C//DTD SVG 20010904//EN"
 "http://www.w3.org/TR/2001/REC-SVG-20010904/DTD/svg10.dtd">
<svg version="1.0" xmlns="http://www.w3.org/2000/svg"
 width="117.000000pt" height="96.000000pt" viewBox="0 0 117.000000 96.000000"
 preserveAspectRatio="xMidYMid meet">
<metadata>
Created by potrace 1.16, written by Peter Selinger 2001-2019
</metadata>
<g transform="translate(0.000000,96.000000) scale(0.100000,-0.100000)"
fill="#000000" stroke="none">
<path d="M207 874 c-4 -4 -4 -17 -1 -28 3 -14 -2 -28 -15 -40 -35 -32 -21 -69
17 -45 14 9 37 6 110 -14 75 -20 92 -22 92 -11 0 12 5 12 31 -2 l31 -16 -36
-24 c-34 -23 -49 -54 -26 -54 6 0 10 4 10 8 0 13 88 52 105 46 21 -8 19 -13
-25 -62 -28 -32 -45 -43 -62 -40 -15 2 -22 9 -22 21 2 19 -7 22 -23 6 -19 -19
-152 27 -202 70 -34 30 -41 26 -41 -18 0 -27 -5 -41 -17 -45 -34 -13 8 -31
100 -43 78 -9 94 -9 109 4 18 16 35 2 22 -19 -5 -7 -7 -29 -5 -49 2 -34 -2
-40 -93 -118 -52 -44 -102 -81 -111 -81 -8 0 -21 -12 -27 -26 -11 -24 -9 -29
21 -56 31 -27 32 -32 21 -54 -18 -33 -8 -38 23 -14 14 11 30 20 36 20 6 0 11
10 11 23 0 13 4 27 9 33 6 5 25 37 43 72 83 160 86 162 157 130 l51 -23 -56
-60 c-30 -33 -72 -80 -92 -103 -20 -24 -52 -58 -69 -75 -18 -16 -33 -34 -33
-38 0 -5 16 -16 36 -24 45 -19 67 -45 52 -62 -8 -10 -6 -13 5 -13 21 0 47 39
47 70 0 14 12 64 26 112 22 71 36 97 76 143 27 30 53 53 58 50 5 -3 19 -1 32
4 86 33 89 32 203 -4 60 -20 114 -40 119 -45 6 -6 19 -10 30 -10 44 1 -26 40
-130 73 l-104 33 30 29 c16 16 30 34 30 41 0 24 16 23 97 -6 113 -39 144 -45
137 -27 -3 8 -31 20 -62 27 -31 7 -79 22 -107 35 -40 17 -50 27 -50 46 -1 13
-4 34 -8 45 -6 18 5 34 58 90 36 37 65 69 65 71 0 2 -6 3 -14 3 -8 0 -40 -29
-72 -63 l-59 -64 -25 24 c-13 12 -35 23 -47 23 -13 0 -23 4 -23 9 0 14 88 91
105 91 8 0 15 7 15 15 0 35 -65 1 -114 -59 -30 -36 -47 -46 -97 -61 l-62 -17
-116 52 c-64 29 -125 63 -136 76 -22 25 -28 28 -38 18z m130 -95 c23 -11 47
-19 54 -19 7 0 10 -3 6 -6 -3 -3 -21 -1 -39 4 -18 6 -52 16 -76 22 -24 6 -40
15 -36 21 6 11 29 5 91 -22z m350 -91 c21 -20 21 -48 0 -48 -16 0 -97 41 -97
49 0 32 61 31 97 -1z m-67 -38 c21 -11 41 -24 44 -29 3 -5 -11 -28 -32 -51
l-37 -41 -52 23 c-29 13 -53 25 -53 28 0 7 78 90 85 90 3 0 23 -9 45 -20z
m-369 -24 c60 -28 55 -31 -20 -15 -37 8 -48 14 -44 25 6 17 1 18 64 -10z m479
4 c0 -5 -5 -10 -11 -10 -5 0 -7 5 -4 10 3 6 8 10 11 10 2 0 4 -4 4 -10z m0
-56 c0 -14 -57 -74 -70 -74 -12 0 -45 29 -34 30 6 0 24 18 39 40 23 33 30 38
46 29 11 -5 19 -17 19 -25z m-305 0 c14 -6 14 -8 -1 -25 -23 -26 -34 -24 -34
6 0 26 7 29 35 19z m102 -36 c27 -13 50 -24 52 -25 3 -2 -6 -14 -19 -28 -25
-26 -58 -26 -113 2 l-28 14 23 29 c13 16 26 29 30 29 4 1 29 -9 55 -21z m98
-48 c3 -6 -4 -14 -17 -19 -29 -11 -35 -6 -18 14 14 17 26 19 35 5z m-369 -178
c-30 -60 -43 -70 -63 -49 -14 14 -11 20 31 62 26 26 50 45 52 42 3 -3 -6 -28
-20 -55z m127 -107 c-18 -74 -24 -80 -51 -58 l-22 18 42 53 c22 29 42 51 44
50 1 -2 -5 -30 -13 -63z"/>
</g>
</svg>
