<?xml version="1.0" standalone="no"?>
<!DOCTYPE svg PUBLIC "-//W3C//DTD SVG 20010904//EN"
 "http://www.w3.org/TR/2001/REC-SVG-20010904/DTD/svg10.dtd">
<svg version="1.0" xmlns="http://www.w3.org/2000/svg"
 width="104.000000pt" height="86.000000pt" viewBox="0 0 104.000000 86.000000"
 preserveAspectRatio="xMidYMid meet">
<metadata>
Created by potrace 1.16, written by Peter Selinger 2001-2019
</metadata>
<g transform="translate(0.000000,86.000000) scale(0.100000,-0.100000)"
fill="#000000" stroke="none">
<path d="M396 702 c-79 -2 -135 -7 -143 -14 -19 -16 -9 -49 32 -108 44 -63 69
-120 51 -120 -6 0 -17 -5 -24 -12 -9 -9 -8 -15 3 -28 32 -35 55 -238 32 -278
-8 -13 12 -52 27 -52 9 0 16 17 20 54 5 33 13 57 22 60 8 3 14 12 14 21 0 20
62 108 117 165 54 56 55 72 6 70 -76 -4 -74 -6 -43 58 16 33 35 65 42 73 8 8
23 27 33 43 l20 29 7 -34 c4 -19 6 -61 3 -94 -2 -33 -1 -94 3 -137 5 -49 3
-102 -5 -150 -11 -67 -11 -134 1 -146 3 -2 12 -2 20 1 10 4 15 21 15 54 0 26
4 68 10 93 6 25 11 61 11 80 0 49 27 95 136 230 52 65 94 123 94 128 0 6 -8
13 -17 16 -18 4 -226 4 -487 -2z m434 -40 c0 -8 -159 -212 -166 -212 -2 0 -4
47 -4 105 l0 104 78 4 c42 1 80 4 85 5 4 1 7 -1 7 -6z m-290 -11 c0 -20 -108
-186 -123 -189 -9 -2 -17 1 -17 6 0 16 -40 95 -66 131 -13 19 -24 38 -24 42 0
5 42 10 93 12 50 1 102 4 115 5 12 1 22 -2 22 -7z m-40 -243 c0 -3 -15 -24
-32 -47 -18 -22 -41 -50 -50 -63 l-17 -23 -1 28 c0 15 -7 44 -15 64 -8 19 -15
39 -15 43 0 5 29 7 65 7 36 -1 65 -5 65 -9z"/>
</g>
</svg>
