<?xml version="1.0" standalone="no"?>
<!DOCTYPE svg PUBLIC "-//W3C//DTD SVG 20010904//EN"
 "http://www.w3.org/TR/2001/REC-SVG-20010904/DTD/svg10.dtd">
<svg version="1.0" xmlns="http://www.w3.org/2000/svg"
 width="284.000000pt" height="116.000000pt" viewBox="0 0 284.000000 116.000000"
 preserveAspectRatio="xMidYMid meet">
<metadata>
Created by potrace 1.16, written by Peter Selinger 2001-2019
</metadata>
<g transform="translate(0.000000,116.000000) scale(0.100000,-0.100000)"
fill="#000000" stroke="none">
<path d="M742 1054 c-32 -22 -122 -132 -122 -150 0 -7 6 -14 14 -14 27 0 126
-52 126 -66 0 -8 10 -14 25 -14 13 0 28 -6 32 -12 11 -17 85 -75 115 -89 13
-6 38 -29 56 -49 l33 -38 -42 -34 c-51 -41 -148 -123 -172 -146 -10 -9 -29
-16 -43 -14 -25 4 -31 -7 -14 -24 11 -11 -44 -67 -100 -101 l-35 -22 -73 55
c-40 30 -77 54 -83 54 -17 0 -47 81 -44 114 15 119 15 126 0 126 -8 0 -26 -18
-39 -39 -29 -46 -44 -57 -58 -43 -6 6 -3 23 10 48 11 22 25 58 31 81 8 29 22
49 44 64 17 12 80 71 140 130 96 97 121 129 100 129 -3 0 -56 -49 -117 -109
-114 -111 -281 -234 -335 -246 -50 -11 -68 -55 -22 -55 22 0 81 -61 81 -84 0
-14 5 -17 22 -13 16 5 11 -5 -23 -39 -24 -24 -49 -44 -55 -44 -19 0 -28 -20
-15 -33 8 -8 18 -5 39 10 35 26 90 23 164 -8 55 -23 251 -158 278 -191 8 -10
26 -18 40 -18 14 0 41 -1 60 -3 30 -2 35 2 38 21 2 12 -1 22 -7 22 -19 0 -12
37 15 87 14 26 27 65 27 86 2 33 10 46 63 95 33 31 89 77 122 100 62 43 76 62
47 62 -8 0 -15 4 -15 8 0 15 -73 89 -125 127 -27 21 -54 42 -60 49 -5 6 -22
19 -36 28 -31 20 -49 80 -49 162 0 60 -4 64 -38 40z m4 -90 c-3 -8 -1 -25 4
-39 8 -20 6 -25 -6 -25 -16 0 -74 27 -74 35 0 2 14 21 32 40 27 31 33 34 41
20 5 -9 6 -23 3 -31z m-436 -331 c-17 -53 -23 -57 -47 -29 l-21 24 36 26 c20
14 38 24 40 21 2 -2 -1 -21 -8 -42z m69 -162 l1 -50 -45 13 c-24 8 -46 13 -47
12 -2 0 14 16 37 36 22 21 43 38 46 38 4 0 7 -22 8 -49z m397 -138 c-4 -16
-12 -45 -17 -66 l-10 -38 -28 28 -28 28 41 37 c23 21 43 38 45 38 2 0 0 -12
-3 -27z"/>
<path d="M1636 973 c-26 -69 -30 -139 -12 -226 16 -77 20 -244 6 -262 -8 -10
-18 -174 -23 -370 -2 -87 -1 -90 20 -91 13 -1 23 1 23 5 0 3 13 12 29 19 16 7
41 31 57 53 52 75 68 81 212 80 70 -1 141 3 158 8 21 6 36 5 42 -1 6 -6 19 -5
38 5 l28 15 -3 103 -2 104 29 13 c16 7 46 27 68 46 48 41 116 54 290 57 118 2
164 10 164 27 0 10 -334 7 -350 -3 -5 -3 -25 1 -44 9 -19 8 -55 18 -79 21 -62
10 -75 19 -59 45 6 11 12 30 12 43 0 33 90 172 154 238 39 41 52 59 44 67 -7
7 -18 8 -27 3 -25 -13 -156 -8 -174 7 -10 9 -28 11 -51 6 -35 -6 -41 -14 -37
-55 3 -32 -233 -40 -289 -11 -19 11 -50 22 -69 25 -18 4 -49 20 -68 37 -48 43
-65 39 -87 -17z m84 -45 c0 -5 8 -8 18 -8 45 -1 43 -17 -7 -54 -28 -20 -55
-36 -60 -36 -14 0 -18 59 -7 102 9 36 10 36 33 20 12 -10 23 -20 23 -24z m628
-3 c2 -2 -14 -29 -36 -62 -21 -32 -54 -82 -72 -110 -18 -29 -34 -53 -34 -53
-1 0 -1 24 -2 53 -1 28 -5 83 -9 121 l-8 69 79 -7 c43 -4 80 -9 82 -11z m-337
-47 c135 2 137 2 143 -20 3 -13 6 -35 6 -49 0 -25 0 -25 -124 -36 -106 -9
-138 -8 -215 7 -50 9 -94 20 -98 24 -4 3 4 14 17 24 13 9 38 27 55 39 22 16
37 21 55 15 14 -4 86 -6 161 -4z m-254 -132 l43 -12 -48 -47 c-48 -47 -71 -58
-73 -34 -12 102 -8 123 19 112 9 -5 36 -13 59 -19z m380 -12 c19 -5 22 -13 21
-55 0 -51 -4 -55 -58 -58 -14 0 -50 -5 -80 -10 -32 -5 -64 -5 -78 0 -13 5 -59
9 -102 9 -45 0 -82 5 -85 11 -4 5 12 27 35 49 l41 38 122 9 c67 6 131 11 142
11 11 1 30 -1 42 -4z m-383 -148 l48 -13 -51 -36 c-28 -20 -55 -37 -60 -37 -5
0 -12 14 -16 31 -5 22 -2 36 11 50 9 10 18 19 18 19 1 -1 23 -7 50 -14z m407
-18 c11 -17 11 -65 0 -72 -12 -8 -378 -17 -396 -10 -11 5 -8 11 13 27 76 61
93 69 130 63 49 -8 58 -8 117 3 62 12 125 7 136 -11z m121 -24 c44 -8 42 -24
-7 -54 -50 -31 -62 -27 -61 20 1 43 3 44 68 34z m-154 -98 c38 -1 42 -3 38
-21 -3 -11 -6 -27 -6 -36 0 -9 -8 -20 -17 -24 -17 -7 -384 -8 -391 -1 -1 2 21
21 50 42 60 44 95 52 208 45 41 -2 94 -4 118 -5z m-344 -5 c6 -8 -62 -61 -78
-61 -5 0 -15 -8 -22 -17 -16 -24 -26 -12 -31 36 -3 35 -1 40 19 44 43 8 107 7
112 -2z m-32 -121 c26 0 23 -6 -44 -69 l-58 -54 0 52 c0 37 4 51 14 51 7 0 19
7 26 15 7 9 20 13 27 10 8 -3 24 -5 35 -5z m413 -27 c3 -21 7 -45 9 -53 3 -17
-10 -19 -179 -22 -115 -2 -211 7 -234 21 -11 7 -5 17 24 43 l38 33 156 5 c86
3 161 7 168 8 7 1 15 -14 18 -35z m-402 -100 c4 -3 0 -13 -8 -22 -9 -9 -25
-28 -36 -44 -11 -15 -34 -34 -50 -42 l-29 -15 2 40 c1 33 7 46 32 65 29 24 75
33 89 18z"/>
</g>
</svg>
