<?xml version="1.0" standalone="no"?>
<!DOCTYPE svg PUBLIC "-//W3C//DTD SVG 20010904//EN"
 "http://www.w3.org/TR/2001/REC-SVG-20010904/DTD/svg10.dtd">
<svg version="1.0" xmlns="http://www.w3.org/2000/svg"
 width="128.000000pt" height="114.000000pt" viewBox="0 0 128.000000 114.000000"
 preserveAspectRatio="xMidYMid meet">
<metadata>
Created by potrace 1.16, written by Peter Selinger 2001-2019
</metadata>
<g transform="translate(0.000000,114.000000) scale(0.100000,-0.100000)"
fill="#000000" stroke="none">
<path d="M641 1097 c-34 -22 -155 -90 -218 -124 -18 -9 -33 -20 -33 -24 0 -8
85 -49 101 -49 4 0 29 -14 55 -32 43 -29 45 -32 29 -44 -16 -12 -22 -9 -49 21
-43 48 -138 85 -217 85 -57 0 -61 1 -56 21 6 24 -17 37 -37 20 -20 -16 -40
-174 -52 -406 -3 -49 -12 -119 -20 -154 -16 -64 -13 -111 7 -111 8 0 7 -5 -1
-15 -11 -13 -8 -15 13 -15 14 0 29 5 32 10 3 6 -2 10 -12 10 -14 0 -14 3 6 16
20 14 22 22 17 54 -3 21 -2 62 3 91 6 30 12 108 16 174 3 66 9 145 14 175 4
30 6 62 3 72 -4 15 2 18 39 18 68 0 165 -37 200 -77 19 -22 27 -39 21 -46 -5
-7 -24 -32 -44 -57 -77 -97 -85 -146 -39 -232 26 -49 28 -58 16 -75 -28 -39
-91 -78 -153 -93 -71 -17 -79 -35 -15 -34 27 0 64 12 103 32 78 41 69 27 -26
-43 -74 -55 -93 -85 -54 -85 28 0 96 -36 103 -53 3 -8 17 -14 30 -14 14 0 46
-15 71 -33 58 -39 71 -32 80 45 3 30 9 80 12 111 5 38 3 55 -4 51 -5 -4 -12
-17 -15 -29 -3 -13 -11 -50 -18 -84 l-12 -61 -39 21 c-21 12 -38 25 -38 30 0
5 13 23 29 40 16 17 45 48 65 70 33 35 40 38 75 32 25 -4 44 -1 57 9 10 8 33
15 49 15 18 0 35 7 41 18 7 9 32 28 57 41 l46 25 21 -25 c12 -13 27 -37 35
-54 7 -16 23 -40 34 -52 12 -12 21 -32 21 -43 0 -25 23 -22 28 3 3 16 -20 51
-95 141 -31 37 -31 39 -16 65 40 63 44 65 71 24 14 -20 33 -57 41 -82 9 -24
23 -47 30 -49 20 -7 8 58 -16 95 -11 15 -30 44 -43 63 -16 23 -23 46 -22 70 6
89 5 128 -2 166 -7 40 -6 42 51 97 32 31 67 63 78 71 24 17 14 32 -12 18 -10
-6 -42 -36 -72 -66 -29 -31 -57 -56 -61 -56 -3 0 -17 11 -29 24 l-22 24 45 70
c24 38 54 77 66 85 12 8 17 18 12 21 -13 8 -78 -57 -98 -97 -32 -63 -40 -67
-92 -51 -26 7 -57 14 -69 14 -16 0 -24 8 -29 28 -3 15 -8 34 -10 42 -2 8 -6
38 -10 65 -3 27 -7 53 -10 56 -2 4 1 11 7 15 8 4 7 9 -2 15 -21 13 -31 11 -68
-14z m39 -69 c0 -24 3 -54 7 -68 l6 -25 -29 26 c-16 14 -40 33 -53 42 l-23 15
38 26 c22 13 42 25 47 25 4 1 7 -18 7 -41z m-111 -136 c11 -21 7 -20 -58 13
-39 19 -71 37 -71 40 0 3 21 18 48 35 l47 29 11 -47 c6 -26 16 -58 23 -70z
m86 46 c25 -22 45 -43 45 -48 0 -9 -69 -35 -74 -28 -9 9 -39 75 -46 99 -7 23
-5 26 11 22 10 -3 39 -23 64 -45z m65 -90 c0 -6 14 -33 32 -60 l31 -50 -30
-29 -30 -30 -26 40 c-37 56 -43 86 -20 101 16 10 15 11 -9 7 -39 -6 -35 10 5
22 44 13 47 13 47 -1z m109 -49 c-26 -37 -33 -36 -53 5 -24 52 -21 57 29 39
l45 -15 -21 -29z m71 -69 c-30 -42 -39 -45 -61 -19 -26 30 -24 43 9 74 l27 26
23 -26 22 -26 -20 -29z m-263 43 c3 -10 21 -40 40 -66 34 -48 34 -49 16 -74
-10 -14 -25 -35 -33 -47 -27 -40 -123 -146 -132 -146 -4 0 3 17 16 38 43 65
60 218 29 261 -15 23 -15 25 2 37 26 19 54 17 62 -3z m-113 -129 c-2 -80 -21
-156 -39 -156 -5 0 -21 20 -34 45 -17 34 -22 55 -17 80 7 39 63 120 80 114 7
-3 10 -32 10 -83z m297 54 c25 -31 24 -38 -9 -77 l-28 -34 -23 38 -22 38 27
28 c15 16 30 29 32 29 2 0 12 -10 23 -22z m107 -75 l-3 -38 -23 37 c-23 38
-23 47 7 82 15 18 16 17 19 -13 2 -17 2 -48 0 -68z m-158 -48 c0 -7 -124 -160
-165 -203 -8 -8 -54 34 -54 48 -1 8 24 41 54 74 31 32 70 78 87 103 l33 45 22
-29 c13 -15 23 -33 23 -38z m123 23 c18 -28 25 -49 21 -63 -8 -26 -43 -75 -53
-75 -5 0 -21 24 -36 53 l-28 54 29 36 c16 21 31 37 34 37 3 0 18 -19 33 -42z
m-83 -92 c0 -6 10 -21 23 -34 l22 -24 -25 -20 c-61 -49 -108 -69 -156 -66
l-47 3 39 46 c21 25 56 67 77 93 36 44 40 46 53 29 7 -10 14 -22 14 -27z
m-268 -163 c18 -16 25 -43 10 -43 -4 0 -27 -25 -50 -55 -66 -84 -78 -70 -29
35 12 25 23 48 25 53 2 4 -1 7 -6 7 -14 0 -57 -76 -72 -127 -15 -49 -20 -51
-45 -23 -10 11 -29 20 -42 20 -19 0 -8 12 55 60 43 32 85 66 92 75 16 20 39
19 62 -2z"/>
</g>
</svg>
