<?xml version="1.0" standalone="no"?>
<!DOCTYPE svg PUBLIC "-//W3C//DTD SVG 20010904//EN"
 "http://www.w3.org/TR/2001/REC-SVG-20010904/DTD/svg10.dtd">
<svg version="1.0" xmlns="http://www.w3.org/2000/svg"
 width="83.000000pt" height="75.000000pt" viewBox="0 0 83.000000 75.000000"
 preserveAspectRatio="xMidYMid meet">
<metadata>
Created by potrace 1.16, written by Peter Selinger 2001-2019
</metadata>
<g transform="translate(0.000000,75.000000) scale(0.100000,-0.100000)"
fill="#000000" stroke="none">
<path d="M151 666 c-13 -13 -19 -26 -14 -29 8 -5 9 -263 0 -332 -19 -154 -19
-166 -7 -195 9 -22 17 -29 29 -25 9 4 41 15 73 26 92 31 170 82 196 128 l23
41 37 -17 c55 -26 129 -23 174 7 56 38 71 71 63 135 -9 78 -31 101 -104 109
-67 8 -93 -1 -127 -41 l-21 -25 -7 35 c-10 55 -87 111 -186 136 -59 15 -90 31
-90 47 0 24 -17 24 -39 0z m120 -91 c80 -29 138 -73 150 -116 15 -49 -5 -167
-35 -212 -25 -37 -118 -93 -176 -106 l-43 -9 6 81 c3 45 11 125 17 177 7 52 9
119 6 148 -7 60 -1 63 75 37z m398 -104 c15 -10 16 -14 27 -88 6 -40 5 -42
-36 -72 -50 -36 -107 -40 -155 -12 -27 16 -30 23 -29 64 0 49 19 74 79 102 34
16 93 19 114 6z"/>
</g>
</svg>
