<?xml version="1.0" standalone="no"?>
<!DOCTYPE svg PUBLIC "-//W3C//DTD SVG 20010904//EN"
 "http://www.w3.org/TR/2001/REC-SVG-20010904/DTD/svg10.dtd">
<svg version="1.0" xmlns="http://www.w3.org/2000/svg"
 width="123.000000pt" height="99.000000pt" viewBox="0 0 123.000000 99.000000"
 preserveAspectRatio="xMidYMid meet">
<metadata>
Created by potrace 1.16, written by Peter Selinger 2001-2019
</metadata>
<g transform="translate(0.000000,99.000000) scale(0.100000,-0.100000)"
fill="#000000" stroke="none">
<path d="M715 925 c-12 -8 -44 -19 -72 -24 -29 -6 -62 -20 -77 -34 -58 -54
-178 -140 -199 -142 -36 -4 -37 -4 -37 -18 0 -17 -60 -44 -114 -51 -63 -9 -66
-20 -15 -74 25 -26 56 -62 69 -81 l23 -34 -29 -26 c-16 -14 -48 -42 -71 -61
-31 -26 -40 -39 -34 -49 8 -12 13 -12 35 2 14 9 29 17 33 17 4 0 37 -25 73
-56 36 -31 97 -74 136 -97 40 -23 72 -45 73 -49 1 -5 1 -12 1 -16 0 -4 23 -16
50 -26 28 -10 55 -26 60 -37 7 -13 20 -17 44 -16 32 2 64 17 37 17 -30 0 -52
45 -32 66 5 5 16 32 25 59 15 47 27 58 167 169 101 80 147 122 140 129 -7 7
-21 1 -43 -17 -18 -14 -64 -50 -103 -80 -38 -29 -92 -72 -120 -95 -27 -22 -53
-41 -58 -41 -12 0 5 133 20 148 15 15 17 32 4 32 -5 0 -24 -12 -41 -26 -17
-15 -48 -32 -68 -39 -50 -18 -53 -41 -7 -61 20 -8 38 -22 41 -32 3 -9 9 -24
14 -33 6 -12 -2 -24 -32 -47 l-41 -32 -57 32 c-32 17 -74 45 -94 63 -32 27
-35 35 -30 63 l6 31 30 -15 c17 -9 48 -33 69 -55 21 -21 45 -39 53 -39 25 0
29 21 7 36 -38 27 -25 131 20 158 27 16 40 46 20 46 -4 0 -28 -15 -52 -33 -51
-39 -92 -61 -133 -71 l-28 -7 7 77 7 77 -32 -7 c-23 -4 -31 -3 -27 7 2 6 10
43 18 80 9 50 18 71 33 79 12 6 63 42 115 81 l93 71 30 -35 c90 -106 118 -150
109 -167 -23 -43 -94 -74 -105 -45 -7 17 4 72 15 79 12 7 12 34 0 34 -4 0 -28
-16 -52 -35 -24 -19 -49 -35 -55 -35 -15 0 -25 38 -13 46 5 3 13 14 19 24 17
32 -7 34 -36 3 -14 -15 -49 -44 -77 -63 -28 -19 -52 -41 -55 -48 -2 -7 16 -20
41 -31 26 -11 48 -28 52 -40 3 -12 12 -21 19 -21 14 0 41 27 47 48 5 14 28 -2
75 -49 21 -20 22 -20 32 -3 9 17 14 15 56 -24 25 -23 50 -42 55 -42 19 0 23
21 8 38 -12 13 -14 29 -9 72 9 68 18 68 98 8 76 -57 109 -72 124 -54 8 11 0
20 -38 44 -69 42 -169 168 -172 216 -6 86 -4 132 3 154 7 18 5 22 -10 21 -10
0 -27 -7 -38 -14z m-5 -87 l0 -43 -24 30 c-17 22 -21 34 -14 43 22 26 38 13
38 -30z m-394 -233 c-8 -42 -18 -44 -41 -9 -19 29 -19 30 15 42 32 12 34 10
26 -33z m174 -7 l0 -27 -30 17 c-36 20 -37 26 -8 46 26 18 38 7 38 -36z m100
7 c0 -18 -4 -23 -15 -19 -16 6 -20 26 -8 37 13 14 23 6 23 -18z m126 -52 c-2
-16 -5 -29 -5 -31 -1 -2 -9 4 -18 14 -16 15 -16 17 2 30 25 19 26 18 21 -13z
m-382 -130 c0 -16 3 -41 9 -56 5 -15 7 -31 3 -34 -4 -5 -46 22 -86 54 -5 5 60
62 70 63 3 0 5 -12 4 -27z m162 -71 c-4 -3 -12 0 -19 7 -9 9 -9 14 3 21 11 7
16 5 18 -6 2 -9 1 -18 -2 -22z m152 -12 c-2 -6 -8 -6 -18 0 -13 9 -13 11 0 20
15 10 25 0 18 -20z m-3 -184 c-14 -33 -17 -35 -37 -25 -22 12 -22 12 12 40 18
16 35 27 37 25 2 -1 -4 -19 -12 -40z"/>
</g>
</svg>
