<?xml version="1.0" standalone="no"?>
<!DOCTYPE svg PUBLIC "-//W3C//DTD SVG 20010904//EN"
 "http://www.w3.org/TR/2001/REC-SVG-20010904/DTD/svg10.dtd">
<svg version="1.0" xmlns="http://www.w3.org/2000/svg"
 width="122.000000pt" height="113.000000pt" viewBox="0 0 122.000000 113.000000"
 preserveAspectRatio="xMidYMid meet">
<metadata>
Created by potrace 1.16, written by Peter Selinger 2001-2019
</metadata>
<g transform="translate(0.000000,113.000000) scale(0.100000,-0.100000)"
fill="#000000" stroke="none">
<path d="M500 1089 c-19 -10 -61 -29 -92 -43 -32 -14 -58 -29 -58 -34 0 -6 16
-13 36 -17 41 -7 125 -79 149 -128 8 -16 15 -31 15 -32 0 -4 -172 -107 -174
-103 -19 31 -56 122 -62 151 -4 24 -12 37 -21 37 -13 0 -15 -9 -10 -45 l7 -45
-30 15 c-16 9 -42 20 -57 26 -28 10 -27 11 41 47 39 20 71 42 73 48 9 27 -29
20 -88 -17 -35 -21 -79 -44 -96 -50 -18 -6 -33 -14 -33 -18 0 -5 29 -16 65
-25 83 -23 135 -58 168 -112 l26 -43 -23 -28 c-62 -75 -81 -118 -91 -213 -4
-30 -10 -59 -15 -64 -4 -4 -32 -16 -62 -26 -69 -22 -69 -42 -3 -78 46 -25 50
-30 47 -60 -2 -17 1 -32 7 -32 23 0 41 13 41 31 0 15 16 62 26 78 2 2 31 -14
132 -75 13 -8 -32 -48 -75 -69 -29 -14 -53 -30 -53 -36 0 -17 103 -109 123
-109 10 0 17 8 17 20 0 11 14 54 31 95 34 81 27 76 138 90 50 6 53 3 107 -94
29 -53 54 -76 54 -50 0 6 -18 40 -40 75 -22 35 -40 65 -40 67 0 1 12 4 26 5
55 4 103 23 148 58 46 35 48 35 67 18 12 -10 32 -42 46 -71 23 -47 53 -77 53
-52 0 17 -58 125 -74 138 -21 18 -21 24 15 115 28 71 30 87 27 170 l-4 91 41
44 c22 24 50 47 63 52 12 5 22 13 22 19 0 21 -31 8 -85 -36 -31 -25 -58 -44
-59 -42 -27 44 -67 84 -106 106 -40 23 -47 31 -39 45 6 9 16 17 23 17 7 0 18
11 24 25 6 14 16 25 22 25 5 0 10 5 10 10 0 26 -43 5 -81 -40 -35 -41 -46 -49
-66 -44 -13 4 -43 0 -66 -9 -93 -34 -93 -33 -117 30 -36 93 -36 124 -5 161 43
52 7 69 -65 31z m2 -88 l-4 -39 -35 24 c-20 13 -41 24 -47 25 -18 1 47 28 69
29 18 0 20 -5 17 -39z m206 -201 c-7 -11 -16 -21 -20 -21 -5 -1 -13 -2 -19 -3
-7 0 -15 -10 -19 -21 -7 -19 -7 -19 -19 4 -7 12 -11 23 -9 24 2 1 17 10 33 19
17 10 38 18 48 18 15 0 15 -3 5 -20z m95 -11 c35 -18 107 -92 106 -109 -1 -18
-141 -138 -146 -124 -2 6 -26 41 -53 79 -27 37 -46 73 -43 79 46 77 87 100
136 75z m-209 -32 c15 -19 26 -39 26 -45 0 -6 -31 -36 -69 -66 -39 -31 -73
-61 -76 -66 -11 -17 -32 6 -51 56 l-17 45 34 34 c35 35 95 73 116 74 7 1 23
-14 37 -32z m-180 -158 c27 -49 27 -51 10 -64 -11 -7 -36 -27 -58 -44 -21 -17
-43 -31 -49 -31 -19 0 4 113 32 152 14 21 28 38 31 38 3 0 18 -23 34 -51z
m280 -1 c48 -56 47 -81 -9 -135 -39 -37 -51 -43 -88 -43 -48 0 -55 4 -84 46
-18 25 -20 37 -13 69 11 47 32 69 90 89 63 21 64 21 104 -26z m236 -18 c0 -51
-6 -78 -35 -168 -5 -13 -56 40 -88 90 -17 27 -17 28 15 57 68 60 93 80 101 81
4 0 7 -27 7 -60z m-480 -99 c0 -39 15 -58 90 -111 20 -15 20 -16 -29 -57 l-49
-43 -54 44 c-29 25 -61 58 -71 75 -18 31 -18 31 8 54 15 12 41 34 59 49 17 15
34 28 39 28 4 0 7 -18 7 -39z m351 -4 c27 -22 69 -92 69 -113 0 -17 -58 -64
-100 -82 -19 -8 -55 -14 -80 -14 -37 1 -49 6 -67 29 -13 15 -23 33 -23 40 0 7
20 26 44 43 25 16 61 50 82 75 20 25 39 45 43 45 3 0 18 -10 32 -23z m-554
-174 c-6 -6 -47 19 -47 29 0 4 10 8 23 10 15 2 23 -3 25 -15 2 -10 1 -21 -1
-24z m363 -35 c0 -5 -20 -8 -44 -8 -39 0 -44 2 -39 20 3 11 15 27 26 35 19 13
22 12 39 -13 10 -15 18 -30 18 -34z m-140 -52 c0 -3 -59 -124 -65 -134 -1 -1
-16 11 -34 27 -27 26 -29 30 -14 35 10 4 36 22 58 41 37 31 55 42 55 31z"/>
</g>
</svg>
