<?xml version="1.0" standalone="no"?>
<!DOCTYPE svg PUBLIC "-//W3C//DTD SVG 20010904//EN"
 "http://www.w3.org/TR/2001/REC-SVG-20010904/DTD/svg10.dtd">
<svg version="1.0" xmlns="http://www.w3.org/2000/svg"
 width="155.000000pt" height="81.000000pt" viewBox="0 0 155.000000 81.000000"
 preserveAspectRatio="xMidYMid meet">
<metadata>
Created by potrace 1.16, written by Peter Selinger 2001-2019
</metadata>
<g transform="translate(0.000000,81.000000) scale(0.100000,-0.100000)"
fill="#000000" stroke="none">
<path d="M260 750 c-73 -4 -130 -20 -130 -35 0 -8 59 -35 71 -33 19 5 43 -111
30 -144 -9 -24 -16 -28 -51 -28 -39 0 -51 -14 -31 -35 22 -24 80 -148 89 -192
6 -26 9 -78 9 -115 -2 -47 2 -68 10 -68 21 0 26 20 30 124 5 120 23 167 84
219 56 48 48 62 -37 65 -37 2 -71 5 -74 8 -2 3 9 18 26 32 16 15 37 40 45 56
7 16 38 51 68 77 33 30 51 52 45 58 -14 13 -89 18 -184 11z m81 -78 c-17 -22
-31 -43 -31 -47 0 -7 -26 -35 -33 -35 -2 0 -7 17 -11 38 -3 20 -8 46 -12 57
-5 18 0 21 57 23 l62 3 -32 -39z m-14 -205 c3 -3 0 -12 -6 -19 -7 -7 -22 -28
-35 -45 l-23 -33 -32 51 c-17 28 -31 53 -31 56 0 6 119 -3 127 -10z"/>
<path d="M781 733 c-41 -32 -76 -88 -107 -171 -27 -72 -54 -203 -54 -269 0
-41 36 -133 52 -133 5 0 21 -14 37 -32 19 -22 33 -29 45 -25 15 6 12 13 -21
51 -47 54 -66 110 -64 191 2 74 19 186 31 200 4 5 11 26 15 45 8 42 69 130 96
137 10 3 19 9 19 14 0 19 -18 16 -49 -8z"/>
<path d="M975 654 c-38 -31 -87 -66 -107 -78 -61 -34 -52 -52 36 -66 57 -9
134 -57 156 -97 15 -25 44 -35 59 -20 13 13 15 37 3 37 -5 0 -19 26 -32 57
-19 46 -23 72 -21 140 1 62 -2 83 -11 83 -7 0 -44 -25 -83 -56z m44 -55 c0
-34 3 -70 6 -80 8 -23 -3 -24 -27 -2 -10 9 -42 18 -73 21 -60 5 -68 13 -30 30
14 7 28 19 31 27 4 8 11 15 16 15 6 0 23 11 40 25 16 14 31 25 33 25 1 0 3
-28 4 -61z"/>
<path d="M1384 678 c29 -156 29 -299 -1 -373 -21 -51 -60 -105 -76 -104 -7 0
-23 14 -36 30 -21 28 -23 36 -17 119 3 49 12 105 21 126 32 78 14 73 -83 -23
-56 -56 -97 -87 -147 -111 -39 -19 -77 -37 -85 -41 -8 -5 -16 -17 -18 -28 -3
-17 4 -21 38 -26 23 -3 65 -3 93 0 86 8 205 -47 191 -90 -5 -17 -3 -19 17 -14
13 4 32 7 42 7 10 0 22 11 26 23 5 13 16 30 23 38 8 8 27 38 44 68 28 53 29
57 29 206 0 132 -3 156 -20 188 -25 48 -50 50 -41 5z m-170 -265 c-4 -21 -8
-54 -10 -73 -1 -19 -2 -43 -3 -54 -1 -16 -6 -17 -38 -11 -21 4 -69 7 -108 6
l-70 -1 70 39 c39 22 90 60 115 85 24 25 46 46 48 46 2 0 0 -17 -4 -37z"/>
</g>
</svg>
