<?xml version="1.0" standalone="no"?>
<!DOCTYPE svg PUBLIC "-//W3C//DTD SVG 20010904//EN"
 "http://www.w3.org/TR/2001/REC-SVG-20010904/DTD/svg10.dtd">
<svg version="1.0" xmlns="http://www.w3.org/2000/svg"
 width="90.000000pt" height="102.000000pt" viewBox="0 0 90.000000 102.000000"
 preserveAspectRatio="xMidYMid meet">
<metadata>
Created by potrace 1.16, written by Peter Selinger 2001-2019
</metadata>
<g transform="translate(0.000000,102.000000) scale(0.100000,-0.100000)"
fill="#000000" stroke="none">
<path d="M695 881 c-11 -5 -129 -7 -263 -6 -230 1 -244 0 -253 -18 -6 -10 -8
-22 -4 -25 7 -7 12 -8 39 -11 20 -1 33 -88 26 -171 -2 -19 0 -45 4 -57 5 -15
1 -27 -15 -42 -16 -15 -19 -24 -11 -33 7 -9 7 -46 0 -123 -15 -162 -15 -170 2
-170 8 0 17 13 21 31 13 64 165 256 230 289 l27 15 -9 -33 c-4 -17 -8 -41 -7
-52 0 -11 -2 -93 -6 -183 -6 -142 -5 -162 9 -162 21 0 37 45 29 85 -3 19 0 46
9 68 9 19 13 37 11 40 -14 13 131 197 155 197 12 0 23 32 14 41 -4 4 -39 4
-76 0 -37 -4 -69 -5 -72 -3 -2 2 8 25 22 50 14 26 42 78 62 116 20 38 51 85
69 104 47 51 41 74 -13 53z m-28 -53 c-9 -13 -40 -63 -69 -113 l-53 -90 -5 85
c-8 131 -9 129 69 133 36 2 68 4 70 5 2 1 -4 -8 -12 -20z m-217 -7 c0 -2 -17
-27 -38 -55 -21 -28 -58 -81 -83 -117 -51 -77 -61 -72 -52 31 3 36 1 82 -5
102 -5 20 -9 38 -7 40 5 5 185 4 185 -1z m40 -131 l0 -110 -29 0 c-16 0 -52
-5 -80 -12 -28 -6 -53 -9 -56 -6 -4 3 7 27 23 52 31 48 134 186 139 186 2 0 3
-49 3 -110z m-90 -158 c0 -5 -16 -26 -36 -48 -19 -21 -50 -59 -67 -83 l-32
-44 -6 64 c-7 92 -4 99 45 100 33 1 67 7 94 18 1 1 2 -3 2 -7z m210 -28 c0 -6
-51 -73 -81 -108 -5 -5 -6 15 -2 45 3 30 11 57 17 61 14 9 66 10 66 2z"/>
</g>
</svg>
