<?xml version="1.0" standalone="no"?>
<!DOCTYPE svg PUBLIC "-//W3C//DTD SVG 20010904//EN"
 "http://www.w3.org/TR/2001/REC-SVG-20010904/DTD/svg10.dtd">
<svg version="1.0" xmlns="http://www.w3.org/2000/svg"
 width="200.000000pt" height="74.000000pt" viewBox="0 0 200.000000 74.000000"
 preserveAspectRatio="xMidYMid meet">
<metadata>
Created by potrace 1.16, written by Peter Selinger 2001-2019
</metadata>
<g transform="translate(0.000000,74.000000) scale(0.100000,-0.100000)"
fill="#000000" stroke="none">
<path d="M1615 568 c-32 -11 -75 -33 -95 -48 l-36 -29 -205 -7 c-112 -4 -322
-8 -466 -8 -261 -1 -263 -1 -278 21 -20 28 -69 42 -114 32 -18 -4 -47 -5 -65
-2 -25 4 -42 -3 -89 -38 -31 -23 -57 -46 -57 -51 0 -4 -7 -8 -15 -8 -15 0 -55
-80 -55 -111 0 -10 14 -34 30 -53 82 -93 202 -101 320 -21 33 22 47 24 215 29
99 3 252 10 340 16 382 28 463 29 513 6 56 -26 150 -18 212 17 38 21 48 33 63
78 29 88 7 145 -70 179 -55 24 -71 24 -148 -2z m105 -43 c27 -14 54 -34 60
-44 13 -25 13 -87 0 -111 -15 -29 -99 -62 -137 -55 -43 8 -110 72 -118 113 -6
30 -5 32 23 32 29 0 58 21 45 33 -3 4 2 8 13 9 10 0 26 2 34 2 9 1 15 11 14
24 -1 28 6 28 66 -3z m-1249 -45 c15 -8 19 -21 19 -59 0 -54 -39 -159 -64
-173 -9 -5 -41 -7 -72 -4 -53 4 -75 15 -145 69 -23 17 -32 53 -19 74 10 17 10
17 9 -2 -3 -45 1 -50 21 -25 11 14 20 32 20 41 0 25 34 49 97 69 68 21 107 24
134 10z m991 -58 c-3 -18 1 -39 8 -47 10 -12 9 -15 -6 -16 -11 0 -32 -2 -49
-4 -140 -15 -284 -26 -410 -30 -82 -3 -222 -9 -310 -13 -88 -5 -162 -8 -164
-6 -2 2 1 21 7 43 7 21 12 48 12 60 0 20 4 21 153 23 83 1 195 3 247 5 210 7
395 14 396 16 1 1 29 2 61 2 l58 0 -3 -33z"/>
</g>
</svg>
