<?xml version="1.0" standalone="no"?>
<!DOCTYPE svg PUBLIC "-//W3C//DTD SVG 20010904//EN"
 "http://www.w3.org/TR/2001/REC-SVG-20010904/DTD/svg10.dtd">
<svg version="1.0" xmlns="http://www.w3.org/2000/svg"
 width="58.000000pt" height="72.000000pt" viewBox="0 0 58.000000 72.000000"
 preserveAspectRatio="xMidYMid meet">
<metadata>
Created by potrace 1.16, written by Peter Selinger 2001-2019
</metadata>
<g transform="translate(0.000000,72.000000) scale(0.100000,-0.100000)"
fill="#000000" stroke="none">
<path d="M329 571 c-73 -52 -116 -73 -153 -74 -26 -2 -31 -6 -34 -31 -2 -18 0
-26 7 -22 17 11 31 -2 118 -99 80 -90 140 -177 153 -225 7 -29 33 -34 38 -7 4
18 -47 124 -79 166 -24 30 -24 69 1 176 22 92 25 141 11 149 -4 3 -33 -12 -62
-33z m8 -99 c-8 -31 -18 -70 -22 -86 -6 -28 -6 -28 -27 -10 -11 11 -34 36 -50
56 l-29 38 54 24 c29 14 60 33 68 42 21 25 23 0 6 -64z"/>
</g>
</svg>
