<?xml version="1.0" standalone="no"?>
<!DOCTYPE svg PUBLIC "-//W3C//DTD SVG 20010904//EN"
 "http://www.w3.org/TR/2001/REC-SVG-20010904/DTD/svg10.dtd">
<svg version="1.0" xmlns="http://www.w3.org/2000/svg"
 width="104.000000pt" height="86.000000pt" viewBox="0 0 104.000000 86.000000"
 preserveAspectRatio="xMidYMid meet">
<metadata>
Created by potrace 1.16, written by Peter Selinger 2001-2019
</metadata>
<g transform="translate(0.000000,86.000000) scale(0.100000,-0.100000)"
fill="#000000" stroke="none">
<path d="M294 705 c-4 -10 -3 -25 3 -34 5 -9 11 -62 12 -118 2 -119 5 -116
-113 -110 -58 3 -71 7 -87 28 -17 22 -19 23 -35 7 -19 -18 -20 -51 -10 -208 8
-131 12 -150 34 -150 9 0 44 24 77 54 52 48 88 66 130 66 7 0 24 -24 39 -54
23 -46 33 -56 77 -75 117 -48 202 -7 276 137 18 35 19 35 144 32 42 -1 80 3
83 8 6 10 -59 20 -151 24 -46 2 -52 13 -34 61 9 24 14 25 107 26 54 1 100 4
103 6 10 11 -10 14 -102 16 -53 1 -97 5 -97 9 0 4 6 23 13 41 8 19 20 67 27
107 12 65 12 77 -3 108 l-17 35 -58 -6 c-92 -9 -355 -10 -384 -1 -22 7 -29 5
-34 -9z m470 -55 c9 -9 -5 -74 -53 -254 -30 -110 -55 -157 -115 -215 -68 -66
-166 -46 -200 40 -21 53 -34 199 -17 199 15 0 14 27 -1 32 -8 3 -13 38 -16
101 l-3 97 38 -1 c21 -1 101 3 178 8 139 10 172 8 189 -7z m-586 -241 c30 -4
56 -10 58 -12 3 -2 -10 -10 -28 -17 -18 -7 -47 -24 -65 -37 -36 -26 -38 -25
-48 41 -6 45 -5 48 12 41 10 -4 42 -11 71 -16z m134 -46 c7 -70 -3 -83 -61
-83 -59 0 -111 10 -111 21 0 4 31 23 69 41 46 22 70 39 70 51 1 9 7 17 15 17
9 0 15 -16 18 -47z m-144 -120 c18 -5 28 -12 24 -18 -11 -16 -73 -65 -82 -65
-4 0 -10 22 -12 49 -3 52 10 79 28 56 5 -7 24 -17 42 -22z"/>
</g>
</svg>
