<?xml version="1.0" standalone="no"?>
<!DOCTYPE svg PUBLIC "-//W3C//DTD SVG 20010904//EN"
 "http://www.w3.org/TR/2001/REC-SVG-20010904/DTD/svg10.dtd">
<svg version="1.0" xmlns="http://www.w3.org/2000/svg"
 width="188.000000pt" height="100.000000pt" viewBox="0 0 188.000000 100.000000"
 preserveAspectRatio="xMidYMid meet">
<metadata>
Created by potrace 1.16, written by Peter Selinger 2001-2019
</metadata>
<g transform="translate(0.000000,100.000000) scale(0.100000,-0.100000)"
fill="#000000" stroke="none">
<path d="M708 759 c-21 -12 -24 -35 -5 -42 9 -3 9 -8 -2 -21 -11 -13 -15 -44
-14 -114 0 -88 17 -270 25 -277 15 -13 72 -35 95 -37 47 -3 110 37 134 85 12
23 31 55 41 70 11 16 39 84 62 152 24 68 48 131 55 139 22 27 2 35 -84 35 -79
0 -194 7 -260 16 -16 2 -38 0 -47 -6z m235 -65 c96 -5 108 -8 102 -22 -4 -10
-13 -40 -21 -68 -42 -155 -141 -294 -210 -294 -32 0 -54 31 -54 74 0 23 -7 87
-15 142 -9 67 -11 113 -5 133 5 17 6 31 4 31 -3 0 -2 5 2 11 4 7 22 8 48 4 22
-3 90 -8 149 -11z"/>
<path d="M409 697 c-48 -29 -110 -64 -138 -79 -36 -20 -51 -34 -51 -48 0 -42
75 -138 209 -268 123 -120 171 -155 188 -138 6 6 -13 30 -161 197 -128 145
-184 228 -165 240 8 5 20 9 26 9 7 0 37 16 68 35 30 20 55 34 55 32 0 -2 -7
-25 -16 -51 -18 -51 -14 -150 5 -169 6 -6 11 -24 11 -39 0 -31 11 -36 30 -13
9 11 9 22 1 46 -15 44 -14 173 2 212 8 18 21 38 30 46 20 16 22 41 5 40 -7 0
-52 -23 -99 -52z"/>
<path d="M1388 713 c-100 -3 -129 -7 -139 -19 -11 -14 -11 -18 2 -28 15 -11
14 -42 -1 -61 -16 -20 -23 -193 -10 -247 15 -60 44 -114 70 -128 27 -14 85
-12 124 4 73 30 138 133 206 324 18 52 39 100 47 107 18 18 17 41 -3 49 -9 3
-50 5 -92 4 -42 -1 -134 -4 -204 -5z m247 -85 c-43 -131 -60 -174 -89 -221
-72 -120 -110 -152 -176 -145 -27 2 -37 10 -54 43 -18 34 -21 58 -21 165 0 69
3 137 8 153 7 26 9 27 85 28 42 1 102 4 132 9 30 4 72 8 92 9 l37 1 -14 -42z"/>
</g>
</svg>
