<?xml version="1.0" standalone="no"?>
<!DOCTYPE svg PUBLIC "-//W3C//DTD SVG 20010904//EN"
 "http://www.w3.org/TR/2001/REC-SVG-20010904/DTD/svg10.dtd">
<svg version="1.0" xmlns="http://www.w3.org/2000/svg"
 width="100.000000pt" height="98.000000pt" viewBox="0 0 100.000000 98.000000"
 preserveAspectRatio="xMidYMid meet">
<metadata>
Created by potrace 1.16, written by Peter Selinger 2001-2019
</metadata>
<g transform="translate(0.000000,98.000000) scale(0.100000,-0.100000)"
fill="#000000" stroke="none">
<path d="M490 778 c-61 -17 -153 -60 -217 -100 -59 -38 -121 -101 -115 -120 1
-5 -5 -22 -13 -38 -17 -32 -22 -130 -11 -200 16 -101 35 -130 111 -168 79 -39
244 -50 312 -21 24 10 49 16 57 13 18 -7 87 28 118 59 31 32 82 131 97 192 14
56 15 161 2 217 -12 51 -74 123 -128 149 -52 25 -156 33 -213 17z m183 -59
c42 -22 90 -82 108 -137 19 -58 6 -216 -24 -282 -28 -64 -48 -83 -102 -100
-22 -6 -60 -21 -85 -32 -39 -18 -58 -20 -137 -15 -132 8 -224 56 -237 123 -2
11 -9 39 -16 63 -17 64 -5 177 24 221 13 19 23 38 22 41 -4 23 120 101 191
121 109 30 191 29 256 -3z"/>
<path d="M462 555 c-112 -34 -183 -127 -156 -204 18 -50 169 -82 242 -52 38
16 75 82 76 138 1 39 -3 48 -34 73 -66 54 -80 59 -128 45z m45 -21 c-3 -3 -12
-4 -19 -1 -8 3 -5 6 6 6 11 1 17 -2 13 -5z m-73 -23 c-23 -10 -45 -24 -48 -30
-10 -16 3 -13 49 9 57 27 86 25 119 -9 22 -23 27 -37 25 -67 -4 -61 -13 -71
-75 -82 -125 -21 -196 39 -151 128 13 25 81 70 107 70 8 0 -4 -9 -26 -19z"/>
</g>
</svg>
