<?xml version="1.0" standalone="no"?>
<!DOCTYPE svg PUBLIC "-//W3C//DTD SVG 20010904//EN"
 "http://www.w3.org/TR/2001/REC-SVG-20010904/DTD/svg10.dtd">
<svg version="1.0" xmlns="http://www.w3.org/2000/svg"
 width="75.000000pt" height="77.000000pt" viewBox="0 0 75.000000 77.000000"
 preserveAspectRatio="xMidYMid meet">
<metadata>
Created by potrace 1.16, written by Peter Selinger 2001-2019
</metadata>
<g transform="translate(0.000000,77.000000) scale(0.100000,-0.100000)"
fill="#000000" stroke="none">
<path d="M475 680 c-16 -4 -84 -8 -150 -9 -82 -1 -125 -6 -138 -15 -23 -18
-22 -36 3 -36 11 0 20 -1 21 -2 0 -2 3 -122 6 -267 2 -145 9 -275 14 -288 6
-16 15 -23 27 -21 14 3 19 21 27 98 10 85 19 114 55 170 5 8 46 76 92 150 45
74 97 151 116 172 18 20 31 42 27 48 -7 11 -55 11 -100 0z m25 -46 c0 -3 -25
-45 -57 -92 -31 -47 -82 -125 -113 -174 l-57 -88 -7 141 c-4 78 -10 154 -13
170 l-6 29 69 1 c57 1 112 6 177 18 4 0 7 -2 7 -5z"/>
</g>
</svg>
