<?xml version="1.0" standalone="no"?>
<!DOCTYPE svg PUBLIC "-//W3C//DTD SVG 20010904//EN"
 "http://www.w3.org/TR/2001/REC-SVG-20010904/DTD/svg10.dtd">
<svg version="1.0" xmlns="http://www.w3.org/2000/svg"
 width="92.000000pt" height="100.000000pt" viewBox="0 0 92.000000 100.000000"
 preserveAspectRatio="xMidYMid meet">
<metadata>
Created by potrace 1.16, written by Peter Selinger 2001-2019
</metadata>
<g transform="translate(0.000000,100.000000) scale(0.100000,-0.100000)"
fill="#000000" stroke="none">
<path d="M518 905 c-43 -33 -58 -40 -62 -29 -3 8 -10 14 -16 14 -18 0 -150
-111 -150 -126 0 -8 11 -19 24 -24 13 -5 27 -13 30 -18 3 -6 31 -24 61 -41 31
-18 53 -35 51 -40 -3 -4 -44 -34 -91 -66 -47 -31 -85 -61 -85 -66 0 -6 15 -16
33 -24 43 -18 87 -53 87 -71 0 -17 -71 -56 -130 -70 -25 -5 -45 -15 -45 -20 0
-6 19 -32 43 -59 36 -41 46 -47 60 -38 9 6 16 20 14 31 -5 34 34 98 67 112 27
11 33 10 60 -11 16 -13 30 -29 30 -35 1 -18 -114 -114 -138 -114 -7 0 -21 -22
-21 -35 0 -2 14 -6 30 -10 17 -4 35 -15 40 -26 12 -22 43 -25 58 -7 5 7 13 33
17 58 9 58 31 110 46 110 6 0 34 -16 60 -35 55 -39 79 -44 79 -16 0 12 -18 33
-45 52 -25 18 -45 35 -45 39 0 7 54 58 94 88 l29 22 -25 0 c-14 0 -41 -16 -67
-40 -23 -22 -46 -40 -49 -40 -4 0 -23 14 -42 30 l-35 29 30 31 c17 18 42 38
57 46 36 19 53 50 32 58 -10 4 -36 -14 -75 -51 l-59 -56 -33 31 c-18 18 -38
32 -44 32 -30 0 -14 28 31 57 50 31 66 34 66 9 0 -17 28 -41 37 -32 4 4 2 21
-5 39 -12 31 -11 33 25 64 21 18 51 38 67 45 27 11 31 10 56 -20 14 -18 30
-32 33 -32 15 0 6 43 -14 68 l-21 27 33 25 c82 62 86 67 67 86 -16 16 -19 15
-58 -20 -90 -81 -122 -72 -116 30 5 87 -6 92 -76 39z m28 -73 c-4 -3 -13 1
-22 10 -14 14 -14 17 3 33 17 18 18 18 21 -9 2 -15 1 -31 -2 -34z m-22 -47
c24 -19 48 -35 55 -35 22 0 10 -17 -35 -50 l-46 -32 -31 38 c-18 21 -32 42
-31 46 1 4 2 22 3 38 2 41 31 40 85 -5z m-134 0 c0 -8 -4 -15 -10 -15 -5 0
-10 7 -10 15 0 8 5 15 10 15 6 0 10 -7 10 -15z m-70 -474 c0 -6 -4 -13 -10
-16 -5 -3 -10 1 -10 9 0 9 5 16 10 16 6 0 10 -4 10 -9z m132 -116 c-2 -19 -8
-35 -12 -35 -15 0 -22 41 -10 55 20 24 26 17 22 -20z"/>
</g>
</svg>
