<?xml version="1.0" standalone="no"?>
<!DOCTYPE svg PUBLIC "-//W3C//DTD SVG 20010904//EN"
 "http://www.w3.org/TR/2001/REC-SVG-20010904/DTD/svg10.dtd">
<svg version="1.0" xmlns="http://www.w3.org/2000/svg"
 width="202.000000pt" height="92.000000pt" viewBox="0 0 202.000000 92.000000"
 preserveAspectRatio="xMidYMid meet">
<metadata>
Created by potrace 1.16, written by Peter Selinger 2001-2019
</metadata>
<g transform="translate(0.000000,92.000000) scale(0.100000,-0.100000)"
fill="#000000" stroke="none">
<path d="M717 794 c-60 -57 -120 -112 -133 -121 -14 -9 -23 -22 -20 -29 3 -9
-22 -14 -98 -19 -101 -7 -103 -7 -165 25 -35 17 -69 29 -77 26 -23 -9 -31 -66
-18 -132 7 -41 8 -67 1 -79 -6 -11 -7 -51 -4 -95 11 -136 34 -161 86 -90 36
50 69 77 104 85 15 4 31 13 35 20 4 7 30 16 57 18 l50 6 -29 -24 -30 -24 34 1
c19 1 38 -5 45 -15 6 -8 42 -36 81 -61 124 -82 114 -68 114 -151 0 -44 5 -77
11 -81 7 -4 38 20 74 57 95 97 99 99 135 89 17 -5 91 -12 163 -15 73 -3 156
-11 185 -18 62 -13 231 4 264 27 20 14 19 15 -18 32 -25 11 -69 19 -119 20
-293 10 -407 16 -454 24 -30 6 -78 10 -107 10 -34 0 -56 5 -64 15 -19 23 -37
18 -56 -13 l-16 -29 -59 39 c-55 37 -59 42 -59 77 0 41 18 104 29 98 3 -1 23
-11 43 -20 21 -9 42 -26 48 -37 12 -22 40 -27 40 -7 0 7 -5 18 -11 24 -8 8 -5
24 10 58 24 55 24 55 11 55 -5 0 -10 -4 -10 -10 0 -5 -10 -24 -23 -43 l-23
-34 -28 20 -27 20 61 38 c33 22 70 39 80 39 26 0 25 14 -1 38 -16 16 -19 29
-16 63 4 42 5 43 55 58 34 10 55 23 64 39 28 53 59 57 353 56 149 -1 286 -4
305 -6 39 -6 80 0 80 12 0 22 -194 31 -638 31 -69 0 -106 5 -143 19 -27 11
-53 20 -57 20 -4 -1 -56 -48 -115 -106z m100 29 c-3 -20 -2 -46 3 -58 7 -19 2
-26 -43 -51 -27 -16 -52 -34 -54 -41 -3 -7 14 -30 38 -51 l42 -39 -44 -30
c-24 -17 -59 -38 -76 -47 -18 -9 -49 -30 -68 -47 -35 -31 -35 -31 -123 -25
-123 9 -213 23 -226 36 -7 7 1 22 30 51 36 36 50 42 120 56 43 8 114 18 157
22 65 5 80 4 87 -9 20 -34 37 20 43 132 2 27 89 138 108 138 6 0 9 -15 6 -37z
m106 8 l29 -6 -42 -28 c-23 -15 -46 -25 -51 -21 -5 3 -9 23 -9 45 0 38 1 39
23 28 12 -7 35 -15 50 -18z m-243 -132 c0 -11 -4 -29 -10 -39 -8 -16 -14 -17
-40 -7 l-29 11 32 28 c39 33 47 34 47 7z m105 -29 c-5 -16 -10 -19 -18 -11 -7
7 -6 15 3 26 7 8 15 13 17 11 3 -2 2 -14 -2 -26z m-480 -81 c12 -12 -29 -54
-44 -45 -6 4 -11 21 -11 37 0 27 3 30 23 24 12 -4 26 -11 32 -16z m61 -181
l52 -11 -59 -29 c-33 -16 -64 -38 -69 -49 -25 -46 -50 -6 -50 78 0 38 -3 38
126 11z m240 -26 l-1 -38 -31 20 -31 21 31 17 c17 9 32 17 32 18 1 0 1 -17 0
-38z m220 -151 c16 -5 42 -12 58 -16 l29 -6 -29 -18 c-16 -10 -44 -32 -61 -49
-17 -18 -33 -32 -35 -32 -2 0 -4 29 -6 65 -3 69 -2 70 44 56z m338 -11 c-7 -7
-19 -7 -35 -1 -23 9 -22 10 11 10 23 1 31 -2 24 -9z m236 -31 c16 -6 8 -7 -25
-3 -27 3 -57 10 -65 15 -17 11 48 1 90 -12z"/>
<path d="M955 734 c-27 -19 -67 -46 -88 -59 -21 -14 -35 -30 -32 -36 4 -5 10
-7 14 -5 13 8 50 -23 66 -55 17 -32 50 -41 41 -11 -15 51 -17 73 -7 109 7 25
20 44 36 53 14 7 25 19 25 27 0 16 4 18 -55 -23z m-33 -74 c-5 -33 -13 -37
-32 -15 -11 13 -10 18 6 30 27 21 31 19 26 -15z"/>
<path d="M1229 727 c-24 -19 -57 -41 -74 -50 l-30 -15 28 -11 c15 -6 27 -17
27 -25 0 -19 37 -63 45 -54 4 4 0 19 -9 32 -9 14 -16 32 -16 40 0 8 -6 16 -12
19 -9 3 -7 10 7 21 29 23 35 20 35 -16 0 -42 10 -78 21 -78 4 0 6 29 2 64 -5
58 -4 65 16 75 21 12 29 31 12 31 -4 0 -28 -15 -52 -33z"/>
<path d="M1105 736 c-11 -8 -25 -12 -32 -9 -8 3 -13 -3 -14 -13 -3 -42 -5 -47
-19 -52 -13 -5 -13 -3 -1 11 13 17 2 25 -13 10 -4 -5 -12 -9 -17 -9 -5 -1 -13
-2 -19 -3 -18 -2 -10 -21 9 -21 17 0 46 -24 80 -66 18 -21 27 -3 12 25 -6 11
-11 37 -11 58 0 33 5 41 38 60 20 12 30 22 21 23 -8 0 -24 -6 -34 -14z"/>
<path d="M1381 742 c-9 -7 -10 -11 -2 -17 8 -4 9 -11 3 -18 -16 -20 -30 -79
-36 -147 -3 -36 -10 -99 -15 -140 -5 -41 -7 -78 -4 -83 2 -4 0 -14 -6 -21 -8
-10 -7 -17 4 -26 25 -21 215 6 215 31 0 4 12 12 28 18 56 24 99 132 89 225 -3
29 -17 76 -30 103 -21 41 -32 51 -66 62 -56 16 -163 24 -180 13z m110 -48 c30
-9 60 -21 67 -27 23 -18 50 -90 52 -137 7 -124 -55 -200 -173 -215 -54 -7 -56
-6 -62 18 -4 14 0 63 9 109 9 47 16 105 17 129 1 81 11 139 23 139 7 0 37 -7
67 -16z"/>
<path d="M1075 525 c-28 -25 -56 -45 -62 -45 -30 0 -11 -29 22 -36 20 -3 44
-17 54 -30 10 -13 22 -24 25 -24 11 0 6 39 -5 46 -16 9 -3 93 18 116 32 36 -4
17 -52 -27z m8 -36 c-6 -21 -29 -36 -40 -25 -4 4 33 43 44 46 0 0 -1 -9 -4
-21z"/>
<path d="M972 550 c-13 -6 -37 -21 -55 -34 -18 -13 -44 -28 -59 -31 -16 -4
-28 -13 -28 -20 0 -8 12 -16 28 -19 16 -4 34 -19 44 -36 10 -18 25 -30 38 -30
24 0 25 8 5 30 -8 9 -15 25 -16 36 -5 50 2 64 41 84 53 27 55 41 2 20z m-72
-80 c0 -5 -4 -10 -10 -10 -5 0 -10 5 -10 10 0 6 5 10 10 10 6 0 10 -4 10 -10z"/>
<path d="M1192 507 c-62 -51 -63 -52 -37 -59 32 -8 65 -36 65 -55 0 -7 7 -13
15 -13 11 0 14 7 9 24 -3 13 2 41 10 62 l16 39 -25 -28 c-19 -21 -30 -26 -50
-21 -14 3 -25 10 -25 14 0 4 25 24 55 44 30 20 55 38 55 41 0 15 -32 -2 -88
-48z"/>
</g>
</svg>
