<?xml version="1.0" standalone="no"?>
<!DOCTYPE svg PUBLIC "-//W3C//DTD SVG 20010904//EN"
 "http://www.w3.org/TR/2001/REC-SVG-20010904/DTD/svg10.dtd">
<svg version="1.0" xmlns="http://www.w3.org/2000/svg"
 width="123.000000pt" height="118.000000pt" viewBox="0 0 123.000000 118.000000"
 preserveAspectRatio="xMidYMid meet">
<metadata>
Created by potrace 1.16, written by Peter Selinger 2001-2019
</metadata>
<g transform="translate(0.000000,118.000000) scale(0.100000,-0.100000)"
fill="#000000" stroke="none">
<path d="M587 948 c-90 -90 -166 -168 -168 -174 -8 -22 -170 -122 -234 -146
-47 -16 -65 -28 -65 -40 0 -10 4 -18 9 -18 5 0 18 -16 30 -35 11 -20 34 -44
51 -53 16 -9 28 -22 26 -28 -2 -6 4 -18 15 -27 10 -9 19 -21 19 -27 0 -10 -47
-44 -64 -46 -6 0 -17 -2 -25 -2 -7 -1 -11 -8 -8 -16 4 -10 -5 -19 -24 -28 -30
-13 -39 -28 -16 -28 6 0 27 9 45 20 40 25 54 25 100 1 20 -11 73 -36 117 -56
124 -57 159 -76 178 -98 37 -42 97 -64 182 -65 l80 -1 2 53 c1 29 11 77 22
105 12 28 16 51 11 51 -19 0 29 75 67 105 56 45 173 157 173 167 0 19 -22 3
-97 -69 -160 -158 -215 -203 -233 -193 -22 12 -33 81 -24 148 5 43 12 55 43
77 34 26 35 27 9 21 -16 -4 -36 -1 -48 6 -31 20 -28 104 5 153 15 20 24 39 22
42 -2 2 -26 -14 -53 -35 -27 -21 -66 -48 -86 -61 -21 -12 -38 -26 -38 -31 0
-4 25 -22 55 -39 51 -29 60 -40 56 -65 -1 -5 4 -4 13 3 9 7 16 8 20 2 6 -10
-98 -101 -115 -101 -16 0 -10 -36 9 -52 18 -16 108 -69 131 -79 10 -4 -9 -24
-57 -63 -40 -31 -72 -60 -72 -63 0 -3 17 -21 38 -40 23 -22 26 -27 8 -14 -16
12 -34 21 -41 21 -6 0 -28 18 -47 40 -23 25 -69 56 -132 86 l-96 47 16 25 c8
13 13 30 10 37 -15 40 62 10 124 -48 47 -45 73 -41 34 5 -24 29 -25 36 -19 92
4 34 11 62 16 64 17 7 54 40 49 45 -5 5 -150 -80 -160 -93 -6 -8 -46 -30 -55
-30 -7 0 0 82 11 118 9 31 -12 28 -33 -5 -9 -16 -28 -40 -42 -56 l-25 -27 -12
21 c-13 25 -1 82 34 163 12 27 22 53 22 58 0 5 87 95 193 201 l192 191 5 -45
c3 -25 14 -58 23 -73 10 -15 17 -38 15 -52 -3 -24 -4 -23 -61 21 -55 43 -77
50 -77 21 0 -14 51 -66 66 -66 5 0 20 -16 33 -35 15 -23 56 -53 125 -91 62
-35 122 -77 154 -110 29 -30 59 -54 67 -54 20 0 28 17 11 23 -8 3 -33 31 -56
62 -22 30 -60 68 -83 83 -23 15 -45 31 -49 37 -4 5 -8 6 -8 1 0 -5 -8 -3 -17
5 -10 8 -35 23 -55 33 -41 21 -47 31 -23 39 15 6 13 65 -4 111 -5 12 -12 48
-16 79 -5 36 -12 57 -20 57 -7 0 -87 -73 -178 -162z m124 -311 c-6 -37 -6 -37
-30 -21 l-24 17 29 23 c15 13 29 22 30 21 1 -1 -1 -19 -5 -40z m-391 25 c0 -4
-11 -27 -24 -52 -13 -25 -27 -60 -31 -78 -7 -32 -8 -33 -26 -16 -10 9 -27 31
-38 49 l-18 32 26 17 c31 20 93 53 104 55 4 0 7 -2 7 -7z m408 -220 c-10 -25
-10 -39 0 -64 6 -17 11 -33 9 -34 -1 -1 -20 13 -42 32 l-40 35 30 24 c17 13
35 28 40 33 15 15 16 9 3 -26z m-209 -9 c-6 -16 -10 -29 -10 -30 5 -16 -3 -20
-22 -10 -33 17 -33 27 0 48 38 26 44 24 32 -8z m-158 -57 c12 -13 12 -43 -1
-51 -6 -4 -30 1 -55 10 l-44 17 42 50 42 51 3 -34 c2 -19 8 -38 13 -43z m468
-122 c-7 -16 -11 -33 -10 -38 1 -5 -3 -33 -10 -62 l-12 -53 -26 14 c-14 8 -39
25 -54 38 l-28 23 73 61 c40 33 74 57 76 53 1 -4 -3 -20 -9 -36z"/>
<path d="M546 760 c-50 -39 -96 -70 -103 -70 -7 0 -17 -9 -23 -19 -8 -16 -5
-23 18 -40 15 -12 39 -32 55 -46 29 -27 77 -34 77 -12 0 8 -11 19 -25 25 -31
14 -31 20 2 90 15 31 26 63 25 70 -2 6 1 12 5 12 5 0 24 13 43 30 67 57 14 28
-74 -40z m-27 -67 c-30 -50 -29 -49 -39 -33 -7 11 -1 23 17 42 38 40 49 35 22
-9z"/>
</g>
</svg>
