<?xml version="1.0" standalone="no"?>
<!DOCTYPE svg PUBLIC "-//W3C//DTD SVG 20010904//EN"
 "http://www.w3.org/TR/2001/REC-SVG-20010904/DTD/svg10.dtd">
<svg version="1.0" xmlns="http://www.w3.org/2000/svg"
 width="208.000000pt" height="64.000000pt" viewBox="0 0 208.000000 64.000000"
 preserveAspectRatio="xMidYMid meet">
<metadata>
Created by potrace 1.16, written by Peter Selinger 2001-2019
</metadata>
<g transform="translate(0.000000,64.000000) scale(0.100000,-0.100000)"
fill="#000000" stroke="none">
<path d="M800 494 c-6 -14 -10 -29 -10 -34 0 -5 -5 -21 -12 -35 -10 -22 -17
-26 -42 -22 -17 3 -65 11 -106 17 -42 7 -82 20 -91 29 -8 9 -35 25 -58 36 -38
17 -48 17 -104 6 -72 -14 -151 -49 -188 -83 -29 -26 -89 -126 -89 -149 0 -21
40 -60 99 -98 l51 -33 98 6 c53 3 353 6 665 7 426 1 576 -2 598 -11 40 -17
117 -8 175 21 64 32 104 104 104 189 0 51 -3 59 -35 90 -32 31 -39 33 -92 31
-51 -2 -115 -25 -150 -53 -7 -6 -85 -12 -174 -15 l-162 -4 6 60 c4 44 2 61 -7
61 -24 0 -36 -25 -36 -71 0 -54 -5 -57 -109 -58 -88 -2 -91 0 -76 65 12 52 7
72 -15 59 -5 -3 -17 -31 -26 -62 l-16 -56 -61 7 c-33 3 -73 6 -88 6 -24 0 -27
3 -23 23 17 73 17 97 0 97 -9 0 -21 -12 -26 -26z m-363 -79 c48 -10 58 -21 65
-67 6 -36 4 -55 -13 -92 -25 -58 -50 -74 -127 -82 -195 -21 -263 155 -95 243
39 20 68 29 85 26 15 -3 29 0 33 8 6 9 10 6 16 -9 5 -12 20 -24 36 -27z m1376
-20 c25 -31 28 -41 22 -78 -9 -53 -42 -125 -63 -135 -10 -5 -52 -6 -95 -3 -68
5 -81 9 -98 31 -28 37 -32 63 -16 102 25 60 147 104 147 53 0 -8 5 -15 10 -15
15 0 12 15 -10 43 -23 29 -16 35 40 36 29 1 40 -6 63 -34z m-1163 -20 c30 -8
70 -15 88 -15 l33 0 -7 -66 c-7 -65 -7 -66 17 -62 21 3 25 10 33 66 l9 62 82
0 81 0 -4 -60 c-4 -50 -2 -61 13 -66 24 -10 35 12 35 74 l0 52 95 0 95 0 0
-49 c0 -32 5 -51 14 -54 22 -9 36 14 36 60 l0 43 95 2 c52 1 110 3 128 4 65 5
70 -2 32 -52 -41 -53 -41 -58 -16 -101 l20 -31 -427 3 c-235 2 -464 4 -509 4
l-82 1 24 49 c14 27 25 65 25 84 0 43 8 67 24 67 6 0 36 -7 66 -15z"/>
</g>
</svg>
