<?xml version="1.0" standalone="no"?>
<!DOCTYPE svg PUBLIC "-//W3C//DTD SVG 20010904//EN"
 "http://www.w3.org/TR/2001/REC-SVG-20010904/DTD/svg10.dtd">
<svg version="1.0" xmlns="http://www.w3.org/2000/svg"
 width="66.000000pt" height="64.000000pt" viewBox="0 0 66.000000 64.000000"
 preserveAspectRatio="xMidYMid meet">
<metadata>
Created by potrace 1.16, written by Peter Selinger 2001-2019
</metadata>
<g transform="translate(0.000000,64.000000) scale(0.100000,-0.100000)"
fill="#000000" stroke="none">
<path d="M162 581 c-33 -20 -36 -111 -6 -156 17 -24 18 -35 2 -35 -23 0 -58
-47 -58 -76 1 -48 52 -165 83 -188 39 -29 110 -35 178 -15 72 21 82 27 139 83
50 49 73 88 85 143 6 29 4 33 -19 39 -33 8 -52 30 -32 37 19 7 86 122 86 148
0 21 -20 25 -38 7 -8 -8 -15 -8 -24 -1 -15 12 -379 25 -396 14z m396 -56 c2
-1 -5 -18 -16 -36 -40 -74 -204 -121 -282 -82 -19 10 -44 36 -57 58 -41 72
-46 70 164 67 103 -2 189 -5 191 -7z m-55 -185 c49 0 33 -60 -32 -118 -115
-105 -244 -106 -281 -2 -9 25 -26 64 -38 87 l-21 41 172 -4 c95 -2 185 -4 200
-4z"/>
</g>
</svg>
