<?xml version="1.0" standalone="no"?>
<!DOCTYPE svg PUBLIC "-//W3C//DTD SVG 20010904//EN"
 "http://www.w3.org/TR/2001/REC-SVG-20010904/DTD/svg10.dtd">
<svg version="1.0" xmlns="http://www.w3.org/2000/svg"
 width="81.000000pt" height="91.000000pt" viewBox="0 0 81.000000 91.000000"
 preserveAspectRatio="xMidYMid meet">
<metadata>
Created by potrace 1.16, written by Peter Selinger 2001-2019
</metadata>
<g transform="translate(0.000000,91.000000) scale(0.100000,-0.100000)"
fill="#000000" stroke="none">
<path d="M407 855 c-26 -13 -77 -30 -114 -39 -60 -13 -82 -27 -83 -48 0 -5 17
-8 39 -8 33 0 40 -4 51 -29 9 -24 9 -34 -4 -60 -14 -27 -14 -31 -2 -31 8 0 18
5 21 10 4 6 11 8 16 5 15 -10 51 -96 46 -110 -3 -7 -29 -21 -57 -31 -69 -25
-81 -41 -50 -66 102 -83 111 -95 125 -187 14 -86 32 -132 54 -139 11 -4 12 3
7 29 -14 75 -18 119 -11 119 4 0 21 -6 38 -13 66 -28 97 -35 103 -25 8 13 -65
84 -91 89 -44 9 -59 166 -21 224 9 13 16 30 16 37 0 7 23 34 51 61 28 27 48
51 45 54 -3 4 -16 -2 -29 -13 -12 -11 -34 -25 -49 -32 -16 -6 -28 -18 -28 -25
0 -12 -59 -63 -64 -55 -1 1 -9 25 -19 52 l-17 49 29 46 c32 50 71 134 71 150
0 16 -20 12 -73 -14z m26 -42 c-10 -25 -73 -130 -73 -120 0 10 49 108 62 125
14 17 19 15 11 -5z m-73 -30 c-1 -10 -26 -43 -32 -43 -3 0 -8 11 -10 25 -4 21
-1 25 18 25 13 0 24 -3 24 -7z m76 -270 l-11 -48 -3 39 c-3 32 6 53 24 56 1 0
-4 -21 -10 -47z m-56 -28 c0 -30 -1 -30 -29 -6 -20 18 -21 20 -4 24 32 8 33 7
33 -18z"/>
</g>
</svg>
