<?xml version="1.0" standalone="no"?>
<!DOCTYPE svg PUBLIC "-//W3C//DTD SVG 20010904//EN"
 "http://www.w3.org/TR/2001/REC-SVG-20010904/DTD/svg10.dtd">
<svg version="1.0" xmlns="http://www.w3.org/2000/svg"
 width="80.000000pt" height="62.000000pt" viewBox="0 0 80.000000 62.000000"
 preserveAspectRatio="xMidYMid meet">
<metadata>
Created by potrace 1.16, written by Peter Selinger 2001-2019
</metadata>
<g transform="translate(0.000000,62.000000) scale(0.100000,-0.100000)"
fill="#000000" stroke="none">
<path d="M515 519 c-236 -35 -340 -104 -366 -244 -11 -60 24 -116 93 -148 44
-21 73 -26 172 -29 65 -3 138 -3 162 0 64 7 66 14 76 307 1 17 1 51 0 76 l-2
46 -42 0 c-24 0 -65 -4 -93 -8z m94 -52 c-5 -19 -8 -45 -8 -58 1 -13 -4 -75
-11 -137 -16 -138 -3 -131 -194 -117 -89 6 -144 33 -174 84 -33 59 -29 97 14
138 59 55 135 86 264 108 120 21 120 21 109 -18z"/>
</g>
</svg>
