<?xml version="1.0" standalone="no"?>
<!DOCTYPE svg PUBLIC "-//W3C//DTD SVG 20010904//EN"
 "http://www.w3.org/TR/2001/REC-SVG-20010904/DTD/svg10.dtd">
<svg version="1.0" xmlns="http://www.w3.org/2000/svg"
 width="98.000000pt" height="98.000000pt" viewBox="0 0 98.000000 98.000000"
 preserveAspectRatio="xMidYMid meet">
<metadata>
Created by potrace 1.16, written by Peter Selinger 2001-2019
</metadata>
<g transform="translate(0.000000,98.000000) scale(0.100000,-0.100000)"
fill="#000000" stroke="none">
<path d="M437 808 c-13 -13 -55 -61 -92 -108 -82 -102 -162 -180 -186 -180
-31 0 -30 -17 1 -48 38 -38 94 -112 114 -149 8 -15 35 -48 61 -73 26 -25 60
-64 76 -87 26 -38 59 -57 59 -35 0 11 -88 142 -121 180 -23 26 -29 40 -24 59
3 14 10 81 15 150 5 68 13 130 17 136 5 7 35 46 66 88 31 41 57 78 57 82 0 14
-19 7 -43 -15z m-128 -255 c-1 -27 -4 -75 -8 -108 l-6 -59 -19 29 c-10 17 -29
42 -42 56 l-24 25 35 41 c19 23 35 46 35 52 0 6 7 11 15 11 11 0 15 -11 14
-47z"/>
<path d="M708 818 c-98 -8 -152 -23 -129 -37 10 -7 9 -15 -4 -41 -42 -82 -56
-403 -20 -470 36 -68 95 -102 140 -82 88 40 185 313 185 518 0 34 5 66 10 69
6 3 10 15 10 26 0 16 -5 19 -19 14 -11 -3 -22 -1 -26 4 -3 6 -17 10 -30 8 -13
-1 -66 -5 -117 -9z m130 -51 c37 -35 26 -151 -35 -343 -27 -86 -44 -121 -75
-157 -22 -26 -46 -47 -53 -47 -20 0 -62 42 -74 73 -6 14 -10 111 -10 214 0
224 10 270 63 275 101 10 161 5 184 -15z"/>
</g>
</svg>
