<?xml version="1.0" standalone="no"?>
<!DOCTYPE svg PUBLIC "-//W3C//DTD SVG 20010904//EN"
 "http://www.w3.org/TR/2001/REC-SVG-20010904/DTD/svg10.dtd">
<svg version="1.0" xmlns="http://www.w3.org/2000/svg"
 width="121.000000pt" height="118.000000pt" viewBox="0 0 121.000000 118.000000"
 preserveAspectRatio="xMidYMid meet">
<metadata>
Created by potrace 1.16, written by Peter Selinger 2001-2019
</metadata>
<g transform="translate(0.000000,118.000000) scale(0.100000,-0.100000)"
fill="#000000" stroke="none">
<path d="M653 937 c-62 -45 -113 -89 -115 -98 -5 -25 -204 -185 -275 -219 -35
-17 -63 -34 -63 -38 0 -4 17 -16 37 -27 20 -11 52 -32 71 -48 27 -21 38 -25
49 -16 8 7 11 20 7 31 -7 22 31 133 55 162 16 19 105 88 153 118 25 17 28 16
65 -8 50 -34 163 -149 163 -168 0 -14 99 -86 119 -86 23 0 9 28 -29 59 -22 17
-47 46 -56 64 -9 18 -24 41 -34 52 -32 35 -43 122 -25 196 18 78 19 109 3 109
-7 0 -63 -37 -125 -83z m75 -19 c-10 -35 -18 -75 -15 -90 4 -28 -6 -37 -19
-17 -3 6 -19 19 -35 28 -26 16 -28 20 -14 31 8 7 15 21 15 32 0 19 36 55 69
70 9 4 17 7 17 7 1 1 -7 -27 -18 -61z m-383 -315 c-9 -21 -20 -42 -24 -46 -9
-9 -61 19 -61 32 1 6 76 47 93 50 4 0 0 -16 -8 -36z"/>
<path d="M815 408 c-118 -115 -210 -188 -238 -188 -5 0 -38 28 -74 63 l-65 62
5 65 c3 36 9 77 12 93 9 35 -12 37 -44 3 -13 -14 -66 -46 -118 -72 -52 -25
-92 -49 -89 -52 3 -3 1 -11 -5 -19 -13 -14 -6 -17 42 -13 39 2 138 -29 180
-57 55 -36 81 -77 74 -116 -5 -27 -2 -34 17 -43 89 -44 114 -59 124 -73 10
-13 14 -13 28 -2 9 8 14 21 11 28 -6 17 18 106 45 165 10 22 71 94 139 164 68
68 115 124 107 124 -9 0 -77 -60 -151 -132z m-416 6 l1 -47 -37 7 c-21 3 -58
6 -83 6 l-45 1 75 39 c41 21 78 39 81 40 3 0 7 -21 8 -46z m257 -228 c-14 -31
-29 -56 -33 -56 -4 1 -21 12 -38 26 -20 18 -23 22 -8 15 23 -12 37 -2 28 21
-3 8 10 21 32 34 21 11 39 19 41 18 2 -1 -8 -27 -22 -58z"/>
</g>
</svg>
