<?xml version="1.0" standalone="no"?>
<!DOCTYPE svg PUBLIC "-//W3C//DTD SVG 20010904//EN"
 "http://www.w3.org/TR/2001/REC-SVG-20010904/DTD/svg10.dtd">
<svg version="1.0" xmlns="http://www.w3.org/2000/svg"
 width="124.000000pt" height="109.000000pt" viewBox="0 0 124.000000 109.000000"
 preserveAspectRatio="xMidYMid meet">
<metadata>
Created by potrace 1.16, written by Peter Selinger 2001-2019
</metadata>
<g transform="translate(0.000000,109.000000) scale(0.100000,-0.100000)"
fill="#000000" stroke="none">
<path d="M755 1050 c-21 -21 -53 -46 -72 -55 -18 -9 -37 -24 -42 -34 -10 -18
-146 -130 -236 -193 -54 -39 -125 -72 -174 -83 -48 -10 -57 -38 -26 -79 35
-46 86 -87 104 -84 17 3 110 182 111 210 0 10 24 36 53 58 28 22 80 63 114 90
34 28 66 50 71 50 13 0 92 -91 92 -106 0 -5 -16 -25 -34 -43 l-35 -34 -5 24
c-3 13 -7 37 -8 53 -4 41 -31 56 -58 31 -25 -23 -82 -58 -128 -79 -18 -8 -35
-22 -38 -31 -6 -16 21 -55 38 -55 13 0 78 -44 78 -53 0 -4 -11 -12 -25 -17
-13 -5 -33 -18 -45 -30 l-20 -20 35 -37 c19 -20 35 -39 35 -42 -1 -8 -90 -75
-94 -70 -30 35 -32 80 -6 137 13 28 15 42 7 42 -7 0 -51 -29 -100 -65 -48 -36
-104 -73 -124 -82 -21 -10 -39 -25 -41 -34 -3 -14 2 -15 36 -6 64 17 74 12
229 -109 43 -34 107 -89 141 -124 51 -50 67 -61 86 -56 15 4 28 0 36 -9 28
-34 47 -10 65 85 4 19 13 46 20 60 24 49 28 70 10 70 -8 0 -18 -8 -22 -17 -3
-10 -17 -48 -31 -85 l-25 -67 -39 31 c-47 37 -49 34 92 138 58 43 120 94 138
114 18 20 64 59 102 87 39 28 70 52 70 55 0 11 -42 2 -58 -13 -10 -10 -38 -34
-62 -55 -25 -20 -65 -55 -90 -78 -42 -39 -113 -90 -125 -90 -3 0 -10 10 -15
23 -6 12 -15 29 -22 38 -9 14 -5 25 27 63 48 59 40 69 -12 15 l-40 -41 -41 29
c-23 15 -41 31 -42 34 -1 16 44 59 61 59 29 0 23 28 -12 57 l-30 26 21 21 21
21 19 -25 c14 -18 22 -22 30 -14 8 8 4 18 -11 38 l-21 27 28 30 c49 51 57 49
150 -43 47 -45 91 -95 100 -110 8 -16 23 -28 34 -28 11 0 20 1 20 3 0 21 -57
97 -134 180 -64 68 -98 112 -102 132 -3 17 1 67 10 111 8 43 11 82 7 86 -4 5
-24 -10 -46 -32z m-6 -85 c-12 -46 -12 -46 -31 -27 -19 19 -19 19 9 48 15 16
29 29 31 28 2 -1 -2 -23 -9 -49z m-114 -165 l7 -25 -22 21 c-13 13 -19 27 -15
34 9 14 20 3 30 -30z m-8 -64 c14 -26 13 -30 -5 -48 -30 -31 -59 -10 -63 45
-5 54 8 72 35 48 10 -9 25 -29 33 -45z m-104 4 c6 -24 -2 -25 -29 -5 -16 12
-17 16 -4 24 18 12 26 7 33 -19z m-172 -94 c-16 -35 -34 -67 -40 -70 -9 -6
-71 69 -71 86 0 4 24 14 53 23 28 8 59 19 67 25 25 15 23 4 -9 -64z m227 -104
c-8 -4 -57 30 -58 39 0 3 10 10 22 16 20 9 24 6 33 -21 6 -17 7 -32 3 -34z
m56 62 c13 -5 14 -9 5 -20 -16 -20 -29 -17 -29 6 0 22 1 23 24 14z m-244 -94
c-6 -19 -7 -44 -4 -55 8 -26 34 -56 44 -50 4 3 10 -3 12 -13 3 -9 17 -24 32
-32 22 -11 29 -12 35 -1 6 9 11 10 15 2 15 -24 24 -9 24 39 1 79 19 90 73 42
l32 -29 -46 -33 c-52 -37 -52 -38 -35 -75 13 -30 41 -30 46 0 9 57 39 94 63
79 5 -3 16 -19 25 -37 l17 -31 -43 -37 c-76 -65 -84 -67 -122 -26 -18 19 -38
36 -44 38 -11 4 -47 32 -130 101 -24 20 -60 40 -79 44 -43 8 -44 19 -5 39 17
9 30 19 30 24 0 8 62 50 67 46 2 -1 -2 -17 -7 -35z m132 -105 c-5 -26 -16 -32
-27 -15 -7 11 11 40 25 40 4 0 5 -11 2 -25z"/>
</g>
</svg>
