<?xml version="1.0" standalone="no"?>
<!DOCTYPE svg PUBLIC "-//W3C//DTD SVG 20010904//EN"
 "http://www.w3.org/TR/2001/REC-SVG-20010904/DTD/svg10.dtd">
<svg version="1.0" xmlns="http://www.w3.org/2000/svg"
 width="108.000000pt" height="88.000000pt" viewBox="0 0 108.000000 88.000000"
 preserveAspectRatio="xMidYMid meet">
<metadata>
Created by potrace 1.16, written by Peter Selinger 2001-2019
</metadata>
<g transform="translate(0.000000,88.000000) scale(0.100000,-0.100000)"
fill="#000000" stroke="none">
<path d="M680 803 c-161 -4 -157 -3 -154 -60 1 -27 3 -88 4 -138 2 -49 6 -102
11 -117 5 -20 4 -30 -7 -36 -19 -11 -191 13 -209 28 -20 16 -45 5 -45 -19 0
-25 16 -30 114 -37 44 -4 82 -8 84 -9 2 -2 -29 -23 -70 -46 -40 -24 -84 -51
-97 -61 -13 -10 -28 -18 -32 -18 -5 0 -9 43 -9 95 0 73 -3 95 -13 95 -29 0
-48 -148 -28 -220 11 -39 36 -35 100 17 84 67 157 113 181 113 11 0 20 5 20
10 0 6 4 10 9 10 11 0 6 -44 -11 -110 -14 -51 -17 -184 -5 -196 12 -12 27 17
27 52 0 17 7 62 14 100 8 38 18 90 21 116 6 45 8 48 43 53 20 3 56 10 79 16
23 5 74 9 112 9 54 0 71 3 71 14 0 30 -83 35 -190 11 -91 -20 -110 -19 -110 5
0 19 181 268 207 283 14 9 18 34 6 39 -5 2 -60 2 -123 1z m70 -41 c0 -10 -161
-234 -166 -230 -1 2 -5 45 -8 97 -4 51 -9 97 -11 101 -3 5 -2 15 1 24 5 13 22
16 95 13 49 -1 89 -3 89 -5z"/>
</g>
</svg>
