<?xml version="1.0" standalone="no"?>
<!DOCTYPE svg PUBLIC "-//W3C//DTD SVG 20010904//EN"
 "http://www.w3.org/TR/2001/REC-SVG-20010904/DTD/svg10.dtd">
<svg version="1.0" xmlns="http://www.w3.org/2000/svg"
 width="55.000000pt" height="74.000000pt" viewBox="0 0 55.000000 74.000000"
 preserveAspectRatio="xMidYMid meet">
<metadata>
Created by potrace 1.16, written by Peter Selinger 2001-2019
</metadata>
<g transform="translate(0.000000,74.000000) scale(0.100000,-0.100000)"
fill="#000000" stroke="none">
<path d="M150 641 c0 -12 5 -21 10 -21 6 0 10 -6 10 -14 0 -8 5 -16 10 -18 6
-2 16 -45 22 -96 10 -79 10 -111 -5 -215 -20 -137 -21 -175 -7 -197 14 -23 22
-6 27 57 2 32 5 65 7 73 1 8 6 38 10 65 9 54 35 112 72 161 13 17 24 34 24 38
0 8 51 76 88 118 13 14 21 31 18 37 -4 6 -35 10 -69 10 -34 -1 -73 2 -87 6
-14 4 -49 10 -77 12 -49 4 -53 3 -53 -16z m178 -50 l32 -6 -52 -84 c-29 -46
-54 -78 -55 -70 -2 8 -9 51 -16 97 l-14 82 36 -6 c20 -3 51 -9 69 -13z"/>
</g>
</svg>
