<?xml version="1.0" standalone="no"?>
<!DOCTYPE svg PUBLIC "-//W3C//DTD SVG 20010904//EN"
 "http://www.w3.org/TR/2001/REC-SVG-20010904/DTD/svg10.dtd">
<svg version="1.0" xmlns="http://www.w3.org/2000/svg"
 width="142.000000pt" height="98.000000pt" viewBox="0 0 142.000000 98.000000"
 preserveAspectRatio="xMidYMid meet">
<metadata>
Created by potrace 1.16, written by Peter Selinger 2001-2019
</metadata>
<g transform="translate(0.000000,98.000000) scale(0.100000,-0.100000)"
fill="#000000" stroke="none">
<path d="M825 930 c-5 -14 -8 -44 -8 -67 l1 -41 -61 -7 c-34 -4 -80 -13 -102
-21 -21 -7 -41 -11 -44 -9 -2 3 1 28 7 56 15 62 15 99 2 99 -16 0 -27 -37 -35
-118 l-7 -72 -53 -35 c-31 -21 -64 -35 -81 -35 -150 4 -323 -1 -329 -9 -11
-19 47 -24 196 -17 82 4 149 5 149 3 0 -3 -7 -21 -15 -40 -8 -20 -15 -61 -15
-91 0 -30 -3 -57 -8 -59 -5 -4 -218 -14 -354 -17 -5 0 -8 -7 -8 -16 0 -15 10
-16 87 -10 49 4 132 9 185 12 l98 6 56 -57 c55 -57 56 -59 49 -102 -3 -24 -13
-69 -21 -100 -15 -60 -13 -73 10 -54 13 11 24 58 31 138 2 18 6 36 9 41 3 5
35 3 72 -5 49 -10 75 -11 97 -3 17 5 31 10 33 10 1 0 -4 -23 -11 -51 -12 -44
-12 -51 2 -56 8 -3 24 4 36 15 18 18 18 22 5 27 -25 10 -3 82 27 89 12 3 45
25 71 49 l49 44 174 2 c96 1 180 5 187 9 7 4 -69 7 -169 7 -157 0 -181 2 -178
15 2 8 10 46 17 84 13 72 23 85 64 86 195 6 240 11 240 28 0 4 -60 6 -132 5
-164 -3 -175 -1 -183 36 -7 31 -69 94 -103 105 -17 6 -19 13 -15 44 3 20 1 53
-4 72 -9 34 -10 35 -18 10z m-22 -174 c3 -8 4 -30 1 -48 l-6 -33 -103 0 c-99
0 -102 1 -94 20 5 11 12 28 15 37 12 33 176 54 187 24z m95 -55 c22 -27 14
-37 -28 -33 -38 4 -40 6 -40 36 0 18 3 36 7 39 6 7 37 -14 61 -42z m-328 -6
c0 -9 -9 -15 -22 -15 -22 1 -23 1 -4 15 25 19 26 19 26 0z m-7 -71 c-1 -16 -6
-60 -9 -98 l-7 -68 -35 6 c-19 3 -36 7 -38 9 -8 7 -7 102 1 137 9 42 21 51 60
47 26 -3 30 -7 28 -33z m87 29 c0 -4 -9 -16 -20 -27 -10 -12 -26 -38 -35 -59
l-16 -38 35 -35 35 -35 -37 3 -36 3 2 60 c2 69 11 118 23 125 12 8 49 10 49 3z
m282 -26 c11 -16 -1 -112 -18 -154 -13 -29 -16 -31 -51 -27 -62 9 -61 8 -52
61 4 26 8 67 8 90 1 23 7 44 14 47 19 8 91 -4 99 -17z m-238 -6 c3 -5 14 -7
25 -4 27 7 64 -44 56 -77 -10 -38 -24 -50 -59 -50 -44 0 -91 48 -81 82 13 42
46 70 59 49z m-144 -206 c0 -14 -4 -25 -10 -25 -5 0 -10 5 -10 10 0 6 -7 10
-15 10 -16 0 -20 12 -8 23 3 4 15 7 25 7 13 0 18 -7 18 -25z m149 12 l74 -2 3
-32 c5 -45 -21 -57 -105 -49 -71 8 -101 26 -101 61 0 28 8 36 34 30 12 -3 54
-7 95 -8z m166 -32 c-40 -32 -65 -32 -65 0 0 23 3 25 48 25 l47 0 -30 -25z"/>
</g>
</svg>
