<?xml version="1.0" standalone="no"?>
<!DOCTYPE svg PUBLIC "-//W3C//DTD SVG 20010904//EN"
 "http://www.w3.org/TR/2001/REC-SVG-20010904/DTD/svg10.dtd">
<svg version="1.0" xmlns="http://www.w3.org/2000/svg"
 width="110.000000pt" height="98.000000pt" viewBox="0 0 110.000000 98.000000"
 preserveAspectRatio="xMidYMid meet">
<metadata>
Created by potrace 1.16, written by Peter Selinger 2001-2019
</metadata>
<g transform="translate(0.000000,98.000000) scale(0.100000,-0.100000)"
fill="#000000" stroke="none">
<path d="M393 823 c-7 -2 -13 -18 -13 -34 0 -17 -5 -40 -12 -52 -7 -12 -13
-26 -14 -32 -1 -5 -13 -35 -27 -65 -19 -42 -51 -81 -136 -162 -61 -60 -111
-110 -111 -112 0 -2 13 -6 29 -9 16 -4 44 -19 63 -35 18 -16 45 -32 59 -35 37
-9 175 -105 233 -161 32 -32 52 -44 58 -38 7 7 -7 30 -43 71 -29 34 -58 61
-64 61 -13 1 -65 47 -65 58 0 5 -9 30 -20 55 -27 62 -29 184 -4 238 11 21 23
39 28 39 29 0 166 104 166 125 0 10 -105 97 -113 94 -1 0 -8 -3 -14 -6z m72
-102 c0 -10 -95 -84 -101 -78 -2 2 7 23 19 48 38 73 36 72 60 56 12 -8 22 -20
22 -26z m-207 -297 c2 -37 11 -71 24 -92 l20 -32 -29 12 c-15 6 -48 27 -72 45
-24 18 -49 33 -55 33 -6 0 12 23 39 50 27 28 54 49 60 47 5 -2 11 -30 13 -63z"/>
<path d="M603 763 c-19 -7 -16 -33 3 -33 12 0 14 -5 9 -17 -26 -59 -35 -155
-32 -307 4 -180 13 -211 70 -247 40 -25 94 -20 132 12 15 13 53 68 85 122 57
97 110 238 144 385 14 62 14 63 -7 71 -13 5 -53 3 -101 -6 -73 -14 -85 -13
-180 6 -108 22 -105 22 -123 14z m392 -75 c-20 -115 -84 -278 -155 -393 -63
-102 -100 -132 -140 -112 -51 25 -59 63 -62 295 -3 237 -3 238 62 225 53 -11
179 -5 235 10 28 8 54 15 58 16 5 0 6 -18 2 -41z"/>
</g>
</svg>
