<?xml version="1.0" standalone="no"?>
<!DOCTYPE svg PUBLIC "-//W3C//DTD SVG 20010904//EN"
 "http://www.w3.org/TR/2001/REC-SVG-20010904/DTD/svg10.dtd">
<svg version="1.0" xmlns="http://www.w3.org/2000/svg"
 width="127.000000pt" height="83.000000pt" viewBox="0 0 127.000000 83.000000"
 preserveAspectRatio="xMidYMid meet">
<metadata>
Created by potrace 1.16, written by Peter Selinger 2001-2019
</metadata>
<g transform="translate(0.000000,83.000000) scale(0.100000,-0.100000)"
fill="#000000" stroke="none">
<path d="M1055 764 c-27 -7 -64 -14 -81 -14 -17 0 -45 -5 -61 -11 l-31 -10 18
-57 c10 -31 36 -95 58 -142 25 -55 36 -87 29 -92 -6 -3 -11 -15 -12 -25 -2
-24 -85 -177 -118 -217 l-24 -29 -84 11 c-46 6 -101 16 -121 22 -34 10 -38 14
-38 44 0 33 28 83 100 181 22 30 35 57 30 60 -17 10 -199 6 -220 -5 -29 -16
-25 -30 10 -30 29 0 30 -1 30 -48 0 -27 5 -74 11 -106 6 -32 8 -60 6 -62 -16
-17 -203 53 -213 79 -6 18 52 161 61 148 4 -8 19 -1 43 21 21 18 55 44 77 58
22 13 53 34 68 47 16 13 38 23 49 23 42 0 9 25 -43 32 -30 4 -74 14 -98 22
-57 21 -92 21 -85 1 6 -16 -9 -61 -56 -160 -16 -33 -37 -81 -49 -107 -21 -51
-36 -59 -57 -30 -16 22 -44 7 -55 -29 -4 -13 -21 -69 -38 -124 -17 -55 -31
-104 -31 -108 0 -15 43 -6 73 17 79 59 116 71 222 71 60 0 109 -5 121 -12 12
-7 76 -20 143 -29 82 -12 121 -22 121 -30 0 -15 35 -28 50 -19 6 4 8 11 5 16
-4 5 1 9 10 9 12 0 15 5 11 16 -9 22 85 107 197 178 68 44 71 65 12 84 -40 12
-47 21 -74 95 -9 24 -4 40 39 124 27 52 57 104 66 114 17 18 12 40 -9 38 -7 0
-34 -7 -62 -15z m-20 -109 c-23 -47 -41 -73 -47 -67 -5 5 -20 36 -33 68 l-24
59 60 6 c32 3 62 9 66 12 20 21 11 -12 -22 -78z m-492 -38 l30 -13 -81 -52
-82 -52 16 38 c9 20 22 52 28 70 12 35 21 36 89 9z m105 -189 c-8 -13 -25 -40
-37 -61 -13 -21 -26 -35 -29 -32 -3 3 -9 30 -12 60 l-6 55 49 0 c49 0 49 0 35
-22z m427 -48 l30 -1 -35 -27 c-19 -15 -56 -46 -82 -69 -54 -48 -61 -51 -50
-25 55 123 63 134 85 128 12 -3 36 -6 52 -6z m-815 -99 c9 -23 18 -29 39 -29
59 2 51 -14 -26 -51 -43 -21 -79 -37 -81 -36 -6 5 40 145 48 145 4 0 13 -13
20 -29z"/>
</g>
</svg>
