<?xml version="1.0" standalone="no"?>
<!DOCTYPE svg PUBLIC "-//W3C//DTD SVG 20010904//EN"
 "http://www.w3.org/TR/2001/REC-SVG-20010904/DTD/svg10.dtd">
<svg version="1.0" xmlns="http://www.w3.org/2000/svg"
 width="113.000000pt" height="82.000000pt" viewBox="0 0 113.000000 82.000000"
 preserveAspectRatio="xMidYMid meet">
<metadata>
Created by potrace 1.16, written by Peter Selinger 2001-2019
</metadata>
<g transform="translate(0.000000,82.000000) scale(0.100000,-0.100000)"
fill="#000000" stroke="none">
<path d="M363 705 c-4 -11 0 -22 10 -30 13 -10 14 -21 5 -88 -9 -61 -15 -77
-28 -77 -48 0 -141 25 -189 51 -36 19 -58 26 -65 19 -12 -12 -26 -200 -16
-219 4 -7 3 -34 -2 -60 -5 -29 -5 -53 1 -66 6 -11 12 -38 13 -60 4 -51 29 -58
72 -18 17 16 54 41 81 55 46 23 55 24 108 14 40 -7 59 -16 63 -28 9 -31 54
-58 95 -58 41 0 90 15 100 32 8 13 80 27 142 28 27 0 56 4 66 10 12 6 33 4 64
-5 31 -9 49 -10 53 -4 7 13 8 12 -44 32 -27 11 -72 17 -122 17 l-80 0 22 44
c24 49 13 47 143 30 33 -4 64 -8 70 -9 5 0 9 10 9 23 0 23 -2 24 -92 24 l-92
1 0 26 c0 50 11 55 97 47 43 -3 89 -9 102 -13 19 -5 23 -3 18 9 -4 12 3 17 24
22 56 11 30 26 -48 28 -114 3 -115 3 -147 -5 -25 -7 -28 -6 -21 10 25 64 34
198 15 217 -6 6 -97 12 -215 14 -188 4 -205 3 -212 -13z m406 -50 c14 -8 6
-64 -26 -185 -33 -122 -58 -173 -113 -231 -51 -54 -104 -71 -146 -49 -28 15
-40 53 -49 155 -11 116 -11 120 5 133 13 11 13 14 -2 26 -14 10 -18 29 -18 88
l0 75 169 -2 c93 -2 174 -6 180 -10z m-567 -160 c34 -8 31 -12 -34 -50 l-48
-27 0 67 0 68 26 -26 c14 -14 39 -29 56 -32z m176 -63 l3 -33 -72 2 c-39 1
-85 5 -101 8 l-30 6 49 27 c37 21 59 27 98 25 49 -2 50 -3 53 -35z m-168 -59
c0 -12 -63 -73 -76 -73 -7 0 -15 -6 -17 -12 -10 -24 -7 41 3 66 8 22 16 26 50
26 22 0 40 -3 40 -7z m178 -18 c1 -1 5 -26 9 -55 6 -50 5 -53 -13 -45 -16 7
-134 21 -207 24 -14 1 -4 14 35 46 53 44 53 44 113 39 33 -3 61 -7 63 -9z
m-183 -115 c11 -5 15 -9 8 -9 -7 -1 -28 -15 -48 -32 -41 -36 -56 -29 -43 19 7
26 13 32 36 31 15 0 36 -4 47 -9z m593 -17 c-10 -2 -28 -2 -40 0 -13 2 -5 4
17 4 22 1 32 -1 23 -4z"/>
</g>
</svg>
