<?xml version="1.0" standalone="no"?>
<!DOCTYPE svg PUBLIC "-//W3C//DTD SVG 20010904//EN"
 "http://www.w3.org/TR/2001/REC-SVG-20010904/DTD/svg10.dtd">
<svg version="1.0" xmlns="http://www.w3.org/2000/svg"
 width="102.000000pt" height="89.000000pt" viewBox="0 0 102.000000 89.000000"
 preserveAspectRatio="xMidYMid meet">
<metadata>
Created by potrace 1.16, written by Peter Selinger 2001-2019
</metadata>
<g transform="translate(0.000000,89.000000) scale(0.100000,-0.100000)"
fill="#000000" stroke="none">
<path d="M599 790 c-39 -36 -75 -58 -65 -41 4 6 0 11 -8 11 -9 0 -16 -5 -16
-10 0 -17 -136 -154 -173 -176 -19 -10 -56 -32 -82 -48 -26 -16 -64 -32 -83
-35 -20 -3 -37 -11 -38 -16 -2 -6 19 -26 46 -45 60 -43 67 -69 29 -106 -36
-34 -27 -52 11 -22 53 42 117 88 123 88 3 0 6 -25 6 -55 0 -50 -9 -69 -23 -47
-9 16 -92 14 -106 -3 -13 -16 -9 -18 27 -15 13 1 56 -19 96 -44 41 -25 78 -46
84 -46 6 0 41 -18 78 -41 37 -22 74 -43 83 -47 18 -6 79 -45 100 -62 16 -14
33 -4 25 16 -3 8 4 36 15 62 17 40 42 140 45 179 0 7 36 47 80 90 44 42 76 78
71 80 -5 2 -72 -59 -150 -134 -77 -76 -157 -147 -177 -158 l-36 -19 -28 22
c-16 12 -54 36 -85 54 -32 18 -59 39 -60 48 -2 8 0 50 5 94 4 43 6 81 3 84 -3
3 -29 -9 -56 -26 -63 -39 -73 -26 -36 47 14 28 26 57 26 65 0 8 19 25 43 39
23 14 62 49 86 77 36 41 47 49 55 38 26 -32 108 -89 201 -137 55 -29 112 -67
127 -84 l27 -32 1 25 c0 14 -10 36 -23 50 -23 27 -129 100 -144 100 -4 0 -9
13 -10 30 -1 16 -9 43 -18 59 -8 17 -15 37 -15 45 0 8 -8 17 -17 19 -17 4 -17
5 0 6 11 1 17 9 17 26 0 33 -20 32 -61 -5z m21 -52 c0 -17 9 -46 21 -64 11
-19 18 -34 14 -34 -4 0 -31 17 -60 38 l-54 39 31 31 c36 36 48 33 48 -10z
m-330 -223 c0 -3 -9 -24 -21 -46 -18 -36 -22 -39 -37 -27 -32 25 -31 32 6 54
38 23 52 28 52 19z m446 -272 c-3 -10 -8 -36 -12 -58 -16 -91 -45 -125 -75
-89 -7 9 -25 20 -39 26 l-25 10 40 31 c22 18 54 46 70 64 33 36 49 42 41 16z"/>
</g>
</svg>
