<?xml version="1.0" standalone="no"?>
<!DOCTYPE svg PUBLIC "-//W3C//DTD SVG 20010904//EN"
 "http://www.w3.org/TR/2001/REC-SVG-20010904/DTD/svg10.dtd">
<svg version="1.0" xmlns="http://www.w3.org/2000/svg"
 width="78.000000pt" height="90.000000pt" viewBox="0 0 78.000000 90.000000"
 preserveAspectRatio="xMidYMid meet">
<metadata>
Created by potrace 1.16, written by Peter Selinger 2001-2019
</metadata>
<g transform="translate(0.000000,90.000000) scale(0.100000,-0.100000)"
fill="#000000" stroke="none">
<path d="M390 829 c-52 -4 -120 -5 -152 -2 -50 4 -57 3 -68 -16 -15 -29 -8
-36 46 -51 39 -11 71 -10 210 5 90 10 167 16 171 14 4 -2 9 -12 10 -22 2 -10
-1 -16 -6 -13 -8 5 -14 -22 -28 -119 -7 -50 -70 -242 -89 -273 -8 -12 -12 -27
-9 -32 3 -6 1 -10 -5 -10 -6 0 -15 -11 -21 -24 -15 -33 -63 -66 -105 -73 -78
-13 -114 75 -140 337 -2 25 -6 71 -10 103 -3 36 -1 64 6 72 17 21 -9 31 -28
11 -14 -14 -17 -39 -17 -154 0 -130 10 -231 24 -242 3 -3 8 -21 9 -40 4 -35
30 -90 43 -90 4 0 15 -7 24 -16 9 -10 34 -20 56 -24 60 -11 132 36 175 115 52
95 99 250 119 390 4 28 15 64 26 81 24 39 24 61 2 72 -22 11 -117 12 -243 1z"/>
</g>
</svg>
