<?xml version="1.0" standalone="no"?>
<!DOCTYPE svg PUBLIC "-//W3C//DTD SVG 20010904//EN"
 "http://www.w3.org/TR/2001/REC-SVG-20010904/DTD/svg10.dtd">
<svg version="1.0" xmlns="http://www.w3.org/2000/svg"
 width="164.000000pt" height="103.000000pt" viewBox="0 0 164.000000 103.000000"
 preserveAspectRatio="xMidYMid meet">
<metadata>
Created by potrace 1.16, written by Peter Selinger 2001-2019
</metadata>
<g transform="translate(0.000000,103.000000) scale(0.100000,-0.100000)"
fill="#000000" stroke="none">
<path d="M905 944 l-58 -86 -43 5 c-42 4 -102 -20 -185 -76 -24 -16 -27 -16
-100 26 -40 23 -99 61 -129 84 -52 40 -78 44 -65 12 6 -16 99 -77 187 -123 34
-18 63 -37 65 -42 2 -5 -15 -34 -37 -63 -22 -30 -45 -61 -50 -70 -8 -14 -15
-13 -62 12 -172 92 -275 140 -311 145 -30 4 -39 2 -35 -8 2 -8 15 -17 29 -21
13 -4 100 -43 192 -88 156 -75 168 -83 162 -103 -4 -13 -9 -31 -12 -41 -7 -26
14 -81 42 -107 l24 -23 -28 -56 c-16 -31 -39 -65 -51 -76 -28 -25 -53 -73 -45
-85 17 -27 73 4 62 34 -3 8 2 21 12 30 10 9 29 37 42 62 21 42 25 45 54 40 25
-5 36 -1 51 15 12 14 15 23 8 26 -6 2 -19 10 -29 17 -17 12 -17 15 11 56 28
43 64 58 89 40 6 -4 31 -15 58 -25 26 -10 47 -21 47 -24 0 -4 -14 -20 -30 -36
-24 -23 -38 -28 -70 -27 -30 2 -40 -1 -40 -13 0 -8 7 -15 15 -15 30 0 15 -54
-35 -129 -28 -41 -50 -82 -50 -90 0 -9 -3 -26 -6 -38 -5 -18 -2 -23 11 -23 21
0 44 28 45 53 0 23 17 52 61 107 20 25 41 55 48 68 8 16 21 22 44 22 18 0 43
6 57 13 14 7 44 19 67 26 42 14 43 14 149 -40 59 -30 129 -73 155 -97 36 -32
53 -41 64 -35 22 12 -36 53 -190 133 -66 35 -121 64 -123 65 -1 1 13 18 31 37
19 20 42 52 51 73 16 33 20 36 49 29 17 -3 38 -10 47 -14 8 -5 49 -22 90 -40
41 -17 98 -41 125 -53 28 -11 76 -38 109 -59 63 -41 97 -51 56 -16 -27 22
-285 148 -305 148 -3 0 -39 16 -80 35 l-75 34 0 76 c0 42 -3 74 -8 71 -4 -2
-7 12 -7 32 1 38 39 100 143 235 42 56 49 83 15 61 -9 -6 -41 -46 -70 -90 -30
-43 -67 -99 -84 -123 l-31 -44 -19 32 c-19 32 -37 42 -98 58 l-33 8 45 61 c60
82 72 104 54 104 -7 0 -40 -39 -72 -86z m-101 -132 c4 -7 -31 -69 -55 -96 -8
-9 -99 22 -99 33 0 9 34 37 67 55 31 17 79 21 87 8z m143 -24 c12 -6 19 -17
16 -24 -3 -8 1 -14 10 -14 11 0 14 -7 11 -27 -6 -31 -54 -102 -70 -103 -6 0
-23 11 -38 25 -15 14 -37 25 -50 25 -12 0 -30 6 -40 13 -18 13 -18 15 0 43 55
87 62 93 102 83 20 -6 47 -15 59 -21z m-244 -83 l27 -18 -19 -31 c-11 -17 -29
-47 -40 -67 -33 -59 -41 -62 -99 -34 -29 14 -52 29 -52 33 0 14 56 98 80 120
27 25 63 24 103 -3z m317 -85 l0 -50 -35 17 c-31 15 -33 18 -20 33 8 9 15 21
15 26 0 15 22 34 32 28 4 -3 8 -27 8 -54z m-180 -11 c14 -24 6 -66 -18 -97
l-18 -23 -47 32 c-53 35 -62 67 -25 93 33 24 95 21 108 -5z m70 -14 c0 -8 -4
-15 -10 -15 -5 0 -10 7 -10 15 0 8 5 15 10 15 6 0 10 -7 10 -15z m105 -62 c1
-38 -39 -107 -70 -121 -35 -16 -46 -15 -74 7 l-25 19 26 34 c14 18 28 42 32
54 3 11 15 30 26 42 18 19 23 20 52 7 26 -10 33 -19 33 -42z m-451 -3 c25 -10
46 -22 46 -25 0 -16 -34 -55 -48 -55 -27 0 -52 31 -52 67 0 18 2 33 4 33 2 0
25 -9 50 -20z m143 -21 c19 -12 32 -23 30 -25 -5 -5 -65 25 -72 37 -10 15 5
11 42 -12z m182 -125 c8 -8 -19 -22 -57 -29 -43 -8 -50 -1 -26 26 14 15 26 19
48 15 16 -4 32 -9 35 -12z"/>
</g>
</svg>
