<?xml version="1.0" standalone="no"?>
<!DOCTYPE svg PUBLIC "-//W3C//DTD SVG 20010904//EN"
 "http://www.w3.org/TR/2001/REC-SVG-20010904/DTD/svg10.dtd">
<svg version="1.0" xmlns="http://www.w3.org/2000/svg"
 width="123.000000pt" height="109.000000pt" viewBox="0 0 123.000000 109.000000"
 preserveAspectRatio="xMidYMid meet">
<metadata>
Created by potrace 1.16, written by Peter Selinger 2001-2019
</metadata>
<g transform="translate(0.000000,109.000000) scale(0.100000,-0.100000)"
fill="#000000" stroke="none">
<path d="M746 982 c-11 -21 -112 -120 -156 -152 -3 -3 -9 -13 -13 -22 -7 -20
-135 -108 -157 -108 -8 0 -25 -11 -37 -23 -20 -21 -98 -64 -157 -87 -35 -13
-33 -35 6 -51 18 -7 47 -26 65 -42 37 -33 55 -32 60 4 10 69 46 150 76 172
129 94 179 127 190 127 8 0 24 -11 37 -25 13 -14 37 -29 54 -33 16 -4 34 -17
40 -27 6 -11 18 -25 27 -32 9 -7 40 -45 69 -85 29 -40 69 -88 89 -106 l36 -32
-45 -43 c-119 -111 -235 -205 -289 -234 l-60 -31 -69 67 c-65 61 -71 71 -83
127 -11 52 -10 67 4 109 10 27 14 52 9 57 -4 4 -29 -14 -55 -42 -26 -27 -66
-59 -89 -71 -54 -27 -98 -60 -98 -72 0 -5 12 -2 26 8 23 15 28 15 42 2 10 -9
37 -23 62 -33 78 -30 210 -147 210 -186 0 -20 113 -117 138 -118 19 0 22 5 22
34 0 19 11 71 25 115 23 71 32 85 88 139 58 56 134 121 191 167 31 24 34 39 7
30 -15 -5 -28 6 -58 50 -21 31 -71 95 -111 143 l-73 87 6 60 c16 170 16 185 1
185 -9 0 -22 -13 -30 -28z m-3 -119 c-2 -48 -6 -89 -7 -91 -5 -4 -96 49 -96
56 0 4 14 18 30 32 17 14 30 31 30 39 0 16 28 51 41 51 4 0 5 -39 2 -87z
m-398 -296 l-15 -36 -35 22 c-19 12 -34 24 -34 27 0 3 21 14 47 26 54 23 60
17 37 -39z m48 -167 c-4 -40 -2 -65 7 -75 17 -20 10 -19 -55 9 -57 26 -68 41
-37 50 10 3 33 21 52 40 19 19 36 35 37 35 0 1 -1 -26 -4 -59z m293 -280 l-21
-69 -40 40 c-22 23 -35 43 -30 45 6 2 31 15 55 29 25 13 48 24 51 25 4 0 -3
-31 -15 -70z"/>
<path d="M724 645 c-10 -8 -27 -15 -36 -15 -10 0 -23 -9 -30 -20 -7 -11 -17
-20 -22 -20 -21 0 -134 -60 -139 -73 -6 -15 61 -109 106 -151 70 -65 85 -77
91 -68 3 5 -6 27 -20 47 -23 35 -24 42 -15 84 6 25 13 73 16 106 3 48 9 63 27
75 39 26 63 49 52 50 -5 0 -19 -7 -30 -15z m-80 -122 c-6 -83 -14 -123 -24
-123 -5 0 -21 22 -35 49 -13 27 -29 52 -35 56 -20 13 -9 26 43 50 28 14 53 25
54 25 1 0 0 -26 -3 -57z"/>
</g>
</svg>
