<?xml version="1.0" standalone="no"?>
<!DOCTYPE svg PUBLIC "-//W3C//DTD SVG 20010904//EN"
 "http://www.w3.org/TR/2001/REC-SVG-20010904/DTD/svg10.dtd">
<svg version="1.0" xmlns="http://www.w3.org/2000/svg"
 width="88.000000pt" height="76.000000pt" viewBox="0 0 88.000000 76.000000"
 preserveAspectRatio="xMidYMid meet">
<metadata>
Created by potrace 1.16, written by Peter Selinger 2001-2019
</metadata>
<g transform="translate(0.000000,76.000000) scale(0.100000,-0.100000)"
fill="#000000" stroke="none">
<path d="M445 698 c-91 -12 -117 -24 -173 -79 -64 -63 -125 -181 -125 -242 0
-98 69 -151 211 -163 73 -6 83 -5 108 15 14 11 32 21 38 21 15 0 127 59 149
79 48 41 59 131 29 223 -17 50 -66 128 -81 128 -3 0 -26 6 -51 13 -31 9 -63
11 -105 5z m95 -53 c54 -28 100 -124 100 -209 0 -40 -5 -52 -30 -76 -32 -30
-95 -62 -176 -90 -49 -17 -54 -17 -103 0 -100 34 -127 80 -105 183 8 38 19 78
25 90 20 38 62 77 83 77 12 0 39 9 61 19 49 24 106 26 145 6z"/>
</g>
</svg>
