<?xml version="1.0" standalone="no"?>
<!DOCTYPE svg PUBLIC "-//W3C//DTD SVG 20010904//EN"
 "http://www.w3.org/TR/2001/REC-SVG-20010904/DTD/svg10.dtd">
<svg version="1.0" xmlns="http://www.w3.org/2000/svg"
 width="114.000000pt" height="90.000000pt" viewBox="0 0 114.000000 90.000000"
 preserveAspectRatio="xMidYMid meet">
<metadata>
Created by potrace 1.16, written by Peter Selinger 2001-2019
</metadata>
<g transform="translate(0.000000,90.000000) scale(0.100000,-0.100000)"
fill="#000000" stroke="none">
<path d="M554 850 c-82 -9 -94 -14 -194 -88 -104 -78 -128 -101 -151 -147 -27
-53 -69 -180 -69 -208 0 -41 65 -192 85 -196 14 -2 16 1 11 15 -4 11 -17 56
-28 101 l-21 82 23 73 c13 40 34 96 46 123 22 50 95 135 115 135 6 0 24 11 41
25 31 26 92 46 148 49 19 1 40 5 47 9 6 4 47 2 90 -4 69 -11 85 -17 144 -61
89 -66 110 -108 105 -214 -5 -125 -30 -187 -103 -261 -87 -89 -150 -115 -270
-115 -68 -1 -114 6 -174 23 -79 23 -82 25 -110 74 -16 27 -29 58 -29 68 0 9
-7 17 -15 17 -19 0 -21 -60 -3 -78 7 -7 9 -12 5 -12 -15 0 23 -58 48 -74 106
-70 312 -78 447 -18 68 30 158 115 195 185 38 72 67 194 61 256 -9 82 -42 134
-115 182 -99 64 -167 76 -329 59z"/>
</g>
</svg>
