<?xml version="1.0" standalone="no"?>
<!DOCTYPE svg PUBLIC "-//W3C//DTD SVG 20010904//EN"
 "http://www.w3.org/TR/2001/REC-SVG-20010904/DTD/svg10.dtd">
<svg version="1.0" xmlns="http://www.w3.org/2000/svg"
 width="114.000000pt" height="87.000000pt" viewBox="0 0 114.000000 87.000000"
 preserveAspectRatio="xMidYMid meet">
<metadata>
Created by potrace 1.16, written by Peter Selinger 2001-2019
</metadata>
<g transform="translate(0.000000,87.000000) scale(0.100000,-0.100000)"
fill="#000000" stroke="none">
<path d="M297 717 c-10 -16 -12 -28 -5 -41 10 -18 5 -192 -6 -203 -3 -3 -6 -1
-6 5 0 7 -8 12 -17 12 -25 0 -103 31 -103 41 0 5 -7 9 -15 9 -9 0 -20 11 -27
25 -12 26 -28 25 -28 -4 0 -19 47 -58 94 -79 34 -15 28 -26 -42 -72 -46 -31
-68 -38 -57 -20 4 6 3 55 -1 110 -5 72 -10 100 -20 100 -19 0 -26 -32 -24
-108 1 -37 1 -82 0 -100 0 -17 4 -41 10 -52 10 -18 13 -19 38 -6 15 8 56 37
91 65 71 57 115 66 117 24 7 -138 41 -204 123 -239 43 -18 114 -18 151 1 56
29 150 173 150 231 0 16 6 20 33 20 79 0 277 18 277 25 0 13 -73 19 -160 11
-127 -11 -129 -10 -119 42 8 46 37 125 51 141 4 5 8 19 8 32 0 18 -6 23 -27
24 -186 3 -354 12 -377 19 -51 17 -92 12 -109 -13z m446 -86 c-8 -20 -33 -90
-55 -155 -73 -220 -105 -261 -197 -254 -47 4 -59 10 -87 40 -22 25 -36 53 -44
92 -11 53 -23 293 -16 305 3 3 97 6 210 7 l205 1 -16 -36z"/>
</g>
</svg>
