<?xml version="1.0" standalone="no"?>
<!DOCTYPE svg PUBLIC "-//W3C//DTD SVG 20010904//EN"
 "http://www.w3.org/TR/2001/REC-SVG-20010904/DTD/svg10.dtd">
<svg version="1.0" xmlns="http://www.w3.org/2000/svg"
 width="164.000000pt" height="116.000000pt" viewBox="0 0 164.000000 116.000000"
 preserveAspectRatio="xMidYMid meet">
<metadata>
Created by potrace 1.16, written by Peter Selinger 2001-2019
</metadata>
<g transform="translate(0.000000,116.000000) scale(0.100000,-0.100000)"
fill="#000000" stroke="none">
<path d="M542 940 c-80 -36 -192 -132 -217 -185 -31 -65 -55 -193 -62 -327 -5
-126 -4 -140 16 -182 11 -25 21 -49 21 -53 1 -15 79 -63 102 -63 13 0 28 -4
34 -9 15 -14 70 -29 81 -22 5 3 16 80 23 171 7 91 16 172 21 181 7 14 26 15
126 12 298 -9 534 -24 574 -36 45 -14 149 -15 169 -2 8 5 6 13 -6 26 -14 15
-15 31 -10 91 4 40 9 88 13 107 5 31 4 33 -13 26 -39 -16 -93 -23 -209 -29
-66 -3 -131 -8 -145 -11 -35 -7 -286 -32 -393 -39 l-89 -6 4 67 c3 38 11 113
18 169 13 95 11 134 -7 134 -4 0 -27 -9 -51 -20z m18 -65 c-4 -22 -13 -62 -20
-90 -6 -27 -16 -84 -22 -127 l-12 -76 -36 -6 c-65 -11 -110 -7 -117 10 -3 8 5
53 17 99 24 88 66 159 104 176 12 5 36 21 55 34 19 14 35 24 37 23 1 -2 -1
-21 -6 -43z m812 -315 c-2 -36 -5 -66 -6 -67 -2 -2 -32 -6 -68 -10 -48 -4 -80
-1 -121 12 -46 14 -58 15 -78 4 -17 -9 -68 -12 -174 -11 -232 2 -338 11 -352
29 -23 30 -26 29 182 52 50 6 169 18 265 26 96 9 209 20 250 24 111 12 105 15
102 -59z m-868 -36 c4 -11 -7 -14 -54 -14 -60 0 -90 15 -48 24 69 15 93 13
102 -10z m-16 -53 c10 -6 12 -32 7 -112 -3 -57 -9 -125 -13 -150 l-7 -46 -44
11 c-39 9 -49 18 -74 61 -28 46 -30 57 -28 139 0 48 4 92 7 97 7 11 134 12
152 0z"/>
</g>
</svg>
