<?xml version="1.0" standalone="no"?>
<!DOCTYPE svg PUBLIC "-//W3C//DTD SVG 20010904//EN"
 "http://www.w3.org/TR/2001/REC-SVG-20010904/DTD/svg10.dtd">
<svg version="1.0" xmlns="http://www.w3.org/2000/svg"
 width="73.000000pt" height="96.000000pt" viewBox="0 0 73.000000 96.000000"
 preserveAspectRatio="xMidYMid meet">
<metadata>
Created by potrace 1.16, written by Peter Selinger 2001-2019
</metadata>
<g transform="translate(0.000000,96.000000) scale(0.100000,-0.100000)"
fill="#000000" stroke="none">
<path d="M245 840 c-7 -11 3 -178 11 -192 3 -4 5 -38 5 -75 1 -37 4 -75 9 -83
5 -9 11 -42 14 -75 4 -33 9 -82 13 -110 9 -77 11 -106 12 -155 1 -39 3 -42 15
-30 8 8 17 40 20 70 8 96 17 120 107 297 83 162 144 260 182 292 23 19 22 45
0 36 -10 -4 -52 -9 -93 -11 -41 -2 -80 -6 -87 -9 -6 -2 -13 1 -15 6 -2 6 -30
17 -63 26 -91 23 -122 26 -130 13z m105 -61 c25 -6 72 -12 105 -15 114 -9 125
-20 78 -71 -20 -22 -42 -66 -80 -153 -8 -19 -24 -52 -35 -72 -10 -21 -16 -43
-12 -50 4 -7 3 -8 -4 -4 -7 4 -22 -16 -40 -54 -26 -53 -30 -58 -36 -38 -3 13
-6 39 -6 59 0 19 -6 58 -14 85 -8 27 -16 85 -20 129 -3 44 -8 109 -12 144 -7
61 -6 64 12 57 10 -4 39 -12 64 -17z"/>
</g>
</svg>
