<?xml version="1.0" standalone="no"?>
<!DOCTYPE svg PUBLIC "-//W3C//DTD SVG 20010904//EN"
 "http://www.w3.org/TR/2001/REC-SVG-20010904/DTD/svg10.dtd">
<svg version="1.0" xmlns="http://www.w3.org/2000/svg"
 width="137.000000pt" height="110.000000pt" viewBox="0 0 137.000000 110.000000"
 preserveAspectRatio="xMidYMid meet">
<metadata>
Created by potrace 1.16, written by Peter Selinger 2001-2019
</metadata>
<g transform="translate(0.000000,110.000000) scale(0.100000,-0.100000)"
fill="#000000" stroke="none">
<path d="M635 969 c-16 -16 -38 -29 -47 -29 -12 0 -18 -8 -18 -21 0 -12 -4
-17 -11 -14 -6 4 -20 -2 -32 -13 -12 -11 -33 -23 -47 -27 -14 -4 -28 -12 -32
-18 -4 -7 -26 -5 -65 6 -88 25 -145 22 -182 -8 -35 -30 -39 -52 -45 -290 -3
-88 -8 -171 -11 -185 -17 -73 -21 -121 -11 -134 20 -24 45 -27 56 -6 6 12 21
20 35 20 13 0 36 5 52 11 32 12 54 18 103 25 44 7 82 20 145 51 42 20 54 32
74 74 22 49 23 50 42 33 25 -22 50 -5 29 21 -8 10 -11 33 -8 66 4 40 12 57 39
85 70 72 122 84 149 34 10 -18 7 -28 -16 -63 -38 -60 -161 -177 -184 -177 -13
0 -20 -7 -20 -19 0 -33 -176 -174 -238 -190 -30 -8 -42 -31 -15 -31 10 0 36
-11 58 -25 44 -27 83 -32 90 -12 36 113 71 187 100 210 31 25 33 25 76 11 24
-9 46 -17 48 -19 2 -3 -24 -32 -58 -65 -34 -34 -59 -65 -56 -69 6 -10 -26
-121 -35 -121 -15 0 -42 40 -36 55 3 9 -8 5 -29 -12 -38 -30 -44 -43 -20 -43
9 0 33 -11 55 -25 40 -25 61 -31 73 -18 4 3 2 12 -4 20 -9 10 -6 32 11 91 19
62 33 89 76 137 42 49 62 63 100 73 25 7 47 11 48 10 1 -2 11 -16 21 -33 37
-57 56 -90 68 -118 13 -31 47 -37 47 -8 0 11 -6 26 -13 33 -7 7 -33 42 -58 78
l-46 65 29 40 c16 22 34 47 39 55 8 13 12 11 30 -10 11 -14 28 -34 37 -45 9
-11 35 -45 58 -75 43 -58 74 -89 74 -73 0 5 -8 18 -17 29 -39 42 -101 122
-132 168 -29 41 -33 54 -28 92 3 26 15 57 30 76 114 145 175 228 167 228 -5 0
-50 -54 -100 -120 -51 -66 -95 -120 -98 -120 -4 0 -15 14 -25 31 l-17 31 43
52 c24 28 59 75 78 104 18 28 37 52 41 52 5 0 8 7 8 17 0 14 -2 14 -21 -3 -12
-10 -33 -39 -47 -64 -14 -25 -46 -68 -70 -97 l-44 -52 -46 24 c-65 34 -85 54
-104 100 -36 86 -84 170 -98 171 -8 1 -28 -11 -45 -27z m70 -81 c10 -24 20
-47 23 -51 2 -4 -21 11 -52 34 -31 23 -56 44 -56 46 0 2 4 2 8 -1 4 -2 14 -1
22 5 26 16 37 10 55 -33z m-119 -17 c13 11 81 -30 123 -75 14 -14 31 -26 38
-26 24 0 27 -30 4 -46 -12 -9 -19 -20 -16 -25 4 -5 0 -9 -8 -9 -8 0 -31 -16
-50 -35 -19 -19 -37 -35 -40 -35 -9 0 -17 67 -11 85 7 16 8 16 16 -4 10 -27
28 -19 28 13 0 31 -13 40 -83 60 -32 9 -72 25 -89 36 -29 17 -30 20 -12 26 10
4 30 16 43 26 16 12 28 15 34 9 7 -7 15 -7 23 0z m-199 -91 c71 0 162 -78 189
-163 14 -47 16 -66 6 -120 -5 -36 -18 -77 -28 -92 -22 -34 -114 -76 -229 -104
-49 -13 -98 -25 -109 -28 -17 -5 -18 -1 -12 48 12 91 14 118 21 299 4 96 11
180 16 187 8 8 24 6 64 -8 30 -10 67 -19 82 -19z m523 -213 c0 -23 -34 -82
-58 -100 -10 -6 -25 -24 -35 -39 -29 -46 -57 -59 -101 -47 l-39 11 87 84 c47
47 94 96 102 110 13 19 20 22 30 13 8 -6 14 -20 14 -32z m15 -77 c3 -5 2 -10
-4 -10 -5 0 -16 -12 -23 -27 -16 -32 -38 -42 -38 -17 0 18 37 64 51 64 4 0 11
-4 14 -10z m-75 -79 c0 -12 -20 -25 -27 -18 -7 7 6 27 18 27 5 0 9 -4 9 -9z
m-297 -143 c-5 -7 -17 -34 -27 -60 -10 -27 -22 -48 -27 -48 -4 0 -23 9 -40 19
l-31 19 59 40 c59 42 83 52 66 30z"/>
<path d="M600 180 c-13 -11 -19 -20 -13 -20 5 0 18 9 28 20 10 11 16 20 13 20
-3 0 -15 -9 -28 -20z"/>
</g>
</svg>
