<?xml version="1.0" standalone="no"?>
<!DOCTYPE svg PUBLIC "-//W3C//DTD SVG 20010904//EN"
 "http://www.w3.org/TR/2001/REC-SVG-20010904/DTD/svg10.dtd">
<svg version="1.0" xmlns="http://www.w3.org/2000/svg"
 width="103.000000pt" height="81.000000pt" viewBox="0 0 103.000000 81.000000"
 preserveAspectRatio="xMidYMid meet">
<metadata>
Created by potrace 1.16, written by Peter Selinger 2001-2019
</metadata>
<g transform="translate(0.000000,81.000000) scale(0.100000,-0.100000)"
fill="#000000" stroke="none">
<path d="M720 738 c-25 -5 -87 -7 -137 -4 -51 2 -95 1 -98 -4 -3 -5 6 -56 20
-113 14 -58 25 -119 25 -136 0 -29 -2 -31 -35 -31 -20 0 -52 7 -72 15 -19 8
-43 15 -52 15 -9 0 -45 14 -80 30 -35 17 -65 29 -66 28 -13 -22 -32 -74 -29
-82 6 -20 27 -210 29 -276 3 -81 20 -146 41 -154 10 -4 41 19 91 69 80 78 102
87 172 68 21 -5 23 -10 18 -53 -3 -25 -2 -52 3 -59 13 -21 30 -3 30 32 0 70 5
74 88 81 43 4 95 8 117 9 28 1 40 7 40 17 0 9 -8 14 -20 12 -11 -1 -64 -5
-118 -9 l-98 -6 2 50 2 50 91 8 c50 5 118 9 151 9 46 1 60 5 63 17 3 14 -9 16
-105 11 -59 -4 -128 -6 -153 -7 l-45 0 -3 42 c-3 38 -1 42 25 47 76 17 212 32
246 28 28 -3 37 -1 37 11 0 21 -51 28 -128 18 -135 -19 -192 -22 -192 -11 0 6
4 9 9 6 8 -6 96 117 117 164 6 14 28 41 49 62 20 20 34 41 31 47 -4 6 -10 11
-14 10 -4 -1 -27 -5 -52 -11z m-20 -54 c0 -3 -27 -45 -59 -95 l-59 -90 -11 49
c-7 27 -18 66 -26 88 -13 37 -12 39 8 45 26 6 147 9 147 3z m-413 -224 c21
-11 52 -20 70 -20 18 0 33 -2 33 -5 0 -2 -19 -22 -42 -44 -40 -38 -80 -52 -92
-32 -9 13 -19 121 -12 121 3 0 23 -9 43 -20z m239 -48 c6 -4 13 -24 16 -45 l4
-38 -78 2 c-109 3 -132 8 -116 26 33 40 144 75 174 55z m-151 -139 c-17 -14
-50 -43 -74 -64 -24 -21 -45 -39 -45 -39 -1 0 -1 23 0 51 2 65 28 86 100 80
l48 -3 -29 -25z m169 11 c3 -9 6 -32 6 -51 l0 -36 -75 7 c-42 4 -85 10 -96 14
-20 8 -20 9 -3 23 64 54 155 77 168 43z m-150 -100 c13 -5 13 -8 -2 -23 -48
-49 -113 -103 -118 -98 -3 3 -7 18 -10 34 -3 21 3 36 26 61 30 31 66 41 104
26z"/>
</g>
</svg>
