<?xml version="1.0" standalone="no"?>
<!DOCTYPE svg PUBLIC "-//W3C//DTD SVG 20010904//EN"
 "http://www.w3.org/TR/2001/REC-SVG-20010904/DTD/svg10.dtd">
<svg version="1.0" xmlns="http://www.w3.org/2000/svg"
 width="176.000000pt" height="142.000000pt" viewBox="0 0 176.000000 142.000000"
 preserveAspectRatio="xMidYMid meet">
<metadata>
Created by potrace 1.16, written by Peter Selinger 2001-2019
</metadata>
<g transform="translate(0.000000,142.000000) scale(0.100000,-0.100000)"
fill="#000000" stroke="none">
<path d="M1316 1271 c-17 -19 -17 -21 -2 -36 26 -26 19 -53 -19 -72 -20 -11
-228 -67 -315 -85 -25 -5 -79 -22 -120 -38 -41 -15 -106 -37 -145 -48 -109
-33 -257 -82 -285 -96 -14 -7 -24 -18 -23 -24 1 -6 -11 -13 -27 -17 -46 -10
-160 -129 -162 -169 -5 -80 16 -116 68 -116 17 0 22 -4 18 -15 -4 -8 1 -17 10
-21 9 -3 16 -17 16 -30 0 -27 22 -41 68 -42 18 0 70 -13 115 -27 97 -32 309
-123 318 -136 3 -6 10 -9 15 -8 22 4 44 -2 58 -16 8 -9 19 -14 23 -13 4 1 29
-6 54 -16 36 -14 46 -22 42 -36 -6 -22 16 -38 27 -19 12 18 60 -4 60 -27 0
-13 3 -14 14 -5 16 13 40 6 82 -26 17 -13 36 -23 42 -23 6 0 19 -9 29 -19 10
-11 29 -22 43 -26 l25 -6 2 183 c4 298 18 490 48 627 14 68 32 136 39 150 7
14 16 51 19 81 4 30 18 84 32 119 14 36 23 66 21 69 -3 2 -33 1 -68 -4 -68 -8
-66 -8 -89 1 -9 3 -23 -3 -33 -14z m140 -48 c-20 -54 -57 -195 -78 -293 -23
-109 -26 -100 -23 60 1 91 3 184 3 208 1 41 2 42 34 43 18 0 42 4 53 9 11 5
21 9 22 9 2 1 -3 -16 -11 -36z m-143 -300 c-3 -115 -4 -227 -3 -251 1 -42 0
-42 -27 -36 -15 4 -28 7 -29 8 -2 3 15 339 21 391 7 76 13 95 29 95 10 0 12
-43 9 -207z m-68 20 c-6 -176 -12 -271 -20 -283 -2 -4 -16 -5 -30 -2 l-25 4 5
117 c8 166 24 302 36 318 7 7 18 13 25 13 12 0 13 -29 9 -167z m-80 110 c-2
-16 -7 -73 -10 -128 -11 -203 -16 -245 -34 -245 -36 0 -44 16 -37 67 4 26 11
106 16 178 7 105 12 132 26 142 29 21 44 16 39 -14z m-171 -17 c-51 -22 -74
-28 -74 -18 0 6 17 14 38 20 54 14 72 13 36 -2z m76 -142 c-15 -201 -13 -195
-58 -180 -42 15 -40 2 -23 180 11 114 23 142 65 148 11 2 22 3 24 2 2 -1 -2
-69 -8 -150z m-176 111 c-3 -8 -30 -21 -60 -30 -30 -8 -113 -38 -185 -65 -119
-45 -136 -49 -183 -42 l-51 7 58 14 c32 7 101 28 154 47 52 19 107 34 122 34
14 1 51 12 81 25 67 28 71 29 64 10z m72 -47 c-3 -24 -8 -82 -12 -130 -4 -54
-11 -88 -18 -88 -40 1 -50 51 -34 163 11 69 27 97 55 97 12 0 14 -8 9 -42z
m-87 -40 c-4 -24 -8 -67 -9 -95 0 -56 -4 -60 -45 -41 -25 11 -26 15 -23 84 2
71 2 72 32 82 52 17 54 16 45 -30z m-99 -43 c-3 -30 -9 -57 -12 -61 -4 -3 -20
-3 -37 1 -22 5 -31 12 -31 26 0 10 -4 19 -10 19 -5 0 -10 -4 -10 -10 0 -13
-40 -13 -60 0 -13 9 -12 11 5 16 11 3 49 18 85 34 36 15 67 28 71 29 3 1 2
-24 -1 -54z m-299 -61 c8 -8 20 -14 25 -14 11 0 45 -55 56 -90 13 -41 -27
-108 -76 -131 -56 -25 -84 -24 -133 9 -99 66 -104 113 -24 200 48 51 50 52 93
46 24 -4 50 -13 59 -20z m172 -16 c16 -12 16 -18 -2 -93 -11 -44 -22 -106 -26
-137 l-7 -58 -42 0 c-22 1 -54 7 -71 14 l-29 12 39 20 c52 25 105 102 105 153
0 20 -9 51 -20 69 l-20 32 28 0 c16 0 36 -6 45 -12z m105 -33 c7 -6 -18 -219
-26 -226 -4 -4 -22 -10 -41 -14 l-34 -7 7 63 c3 35 12 95 18 132 l12 69 30 -6
c16 -4 32 -8 34 -11z m107 -57 c-2 -39 -17 -134 -23 -144 -4 -6 -22 -14 -40
-17 l-34 -7 7 88 c9 125 8 122 53 107 20 -7 37 -19 37 -27z m67 -71 c-5 -60
-13 -77 -39 -77 -9 0 -11 16 -7 63 7 82 9 86 32 80 18 -4 19 -11 14 -66z m87
42 c28 -10 31 -15 31 -50 0 -34 -3 -39 -27 -45 -16 -3 -33 -7 -39 -9 -12 -4
-26 79 -17 102 6 16 11 16 52 2z m102 -29 c5 0 9 -11 9 -25 0 -20 -5 -25 -25
-25 -21 0 -25 5 -25 31 0 24 3 30 16 25 9 -3 20 -6 25 -6z m77 -31 c-19 -13
-28 -11 -28 5 0 9 7 12 21 9 16 -4 17 -8 7 -14z m108 -191 c-4 -95 -8 -203 -8
-241 -2 -70 -13 -82 -35 -36 -12 25 -19 195 -15 357 l2 92 31 0 31 0 -6 -172z
m-94 150 c5 -13 0 -410 -5 -414 -1 -1 -19 9 -41 23 l-38 25 6 91 c15 207 23
269 37 278 20 12 36 11 41 -3z m-89 -14 c0 -5 -4 -61 -8 -124 -4 -63 -9 -131
-10 -150 -2 -19 -3 -43 -4 -53 -1 -15 -5 -16 -21 -7 -18 10 -20 21 -20 133 0
130 10 195 32 208 15 10 34 6 31 -7z m-79 -21 c-4 -10 -10 -77 -13 -149 l-6
-131 -42 18 -42 18 5 73 c13 189 11 184 78 187 23 1 27 -2 20 -16z m-124 -107
c-3 -58 -7 -107 -10 -110 -3 -3 -17 1 -30 7 -28 14 -30 35 -17 127 9 59 21 80
46 80 14 0 15 -13 11 -104z m-479 78 c17 -8 29 -18 26 -20 -7 -8 -97 7 -97 15
0 25 30 27 71 5z m391 -66 c-4 -83 -8 -87 -52 -65 -22 11 -24 18 -21 62 3 58
13 73 49 77 15 2 27 3 27 3 0 0 -1 -35 -3 -77z m-106 8 l-7 -45 -35 16 c-28
14 -34 22 -32 43 2 20 10 26 38 30 19 3 37 5 39 3 2 -1 0 -22 -3 -47z m-111
24 c-3 -5 -10 -10 -16 -10 -5 0 -9 5 -9 10 0 6 7 10 16 10 8 0 12 -4 9 -10z"/>
</g>
</svg>
