<?xml version="1.0" standalone="no"?>
<!DOCTYPE svg PUBLIC "-//W3C//DTD SVG 20010904//EN"
 "http://www.w3.org/TR/2001/REC-SVG-20010904/DTD/svg10.dtd">
<svg version="1.0" xmlns="http://www.w3.org/2000/svg"
 width="130.000000pt" height="103.000000pt" viewBox="0 0 130.000000 103.000000"
 preserveAspectRatio="xMidYMid meet">
<metadata>
Created by potrace 1.16, written by Peter Selinger 2001-2019
</metadata>
<g transform="translate(0.000000,103.000000) scale(0.100000,-0.100000)"
fill="#000000" stroke="none">
<path d="M499 842 c-26 -18 -24 -31 7 -42 15 -6 22 -15 18 -21 -5 -8 -35 -10
-98 -5 -139 9 -165 13 -191 30 -29 19 -59 21 -73 3 -14 -17 -11 -237 4 -237
12 0 4 -85 -24 -246 -31 -177 -21 -202 60 -146 148 103 156 106 252 107 80 0
89 -2 96 -20 25 -66 105 -63 176 6 53 52 81 58 287 58 160 0 189 3 174 17 -7
7 -342 6 -382 -1 -27 -6 -28 -5 -13 12 8 10 19 28 22 40 9 30 41 37 135 30 42
-3 111 -2 154 2 42 3 84 3 92 -2 19 -10 36 -1 29 16 -3 10 -50 12 -193 11
l-189 -3 24 62 c13 34 28 65 32 69 7 7 86 13 277 21 17 0 37 -3 44 -7 19 -12
34 15 18 32 -10 9 -26 10 -67 3 -30 -6 -104 -11 -163 -13 l-109 -4 6 29 c3 16
6 39 6 51 0 14 10 26 30 35 37 16 209 32 229 21 20 -11 51 0 51 17 0 13 -15
15 -102 10 -96 -5 -139 -11 -180 -23 -15 -4 -16 -1 -7 28 5 18 6 41 3 50 -7
23 -34 23 -34 1 -1 -16 -2 -16 -16 2 -14 19 -27 20 -190 20 -131 1 -181 -3
-195 -13z m362 -44 c36 -12 40 -16 35 -38 -3 -14 -11 -61 -19 -105 -18 -98
-18 -98 -75 -213 -25 -52 -64 -112 -88 -138 -39 -40 -48 -45 -81 -42 -32 3
-38 7 -38 26 0 13 -6 26 -12 30 -21 13 -43 202 -39 328 3 66 8 127 11 136 5
13 22 18 73 21 150 7 194 6 233 -5z m-546 -54 l50 -7 -35 -14 c-19 -8 -39 -21
-45 -28 -5 -7 -26 -22 -46 -33 l-37 -20 -5 38 c-2 20 -3 49 0 62 4 23 8 25 36
17 18 -5 55 -11 82 -15z m191 -76 c-3 -40 -6 -79 -6 -85 0 -16 -48 -17 -86 -3
-15 6 -46 13 -68 15 -57 5 -106 16 -106 24 0 4 30 25 68 47 64 38 118 59 172
67 14 3 26 5 28 6 1 0 0 -32 -2 -71z m-230 -99 c3 -5 25 -9 50 -9 24 0 44 -4
44 -8 0 -4 -37 -24 -82 -43 -46 -18 -86 -35 -90 -37 -4 -2 -5 14 -2 35 11 80
11 80 44 75 17 -2 33 -8 36 -13z m225 -51 c0 -13 2 -38 4 -55 l3 -33 -76 1
c-101 0 -202 10 -202 18 0 7 60 36 148 72 18 8 53 15 77 17 41 2 45 0 46 -20z
m-227 -103 l60 -7 -69 -44 c-52 -34 -71 -41 -82 -33 -17 15 -17 31 2 77 9 21
19 32 23 26 4 -6 34 -15 66 -19z m237 -23 c4 -4 9 -23 11 -42 l3 -35 -150 -3
-150 -3 55 36 c30 19 57 35 60 35 3 1 28 7 55 15 48 14 102 13 116 -3z m-201
-109 c0 -1 -24 -16 -52 -34 -29 -17 -63 -38 -75 -47 -23 -14 -23 -14 -23 31 0
35 4 46 17 49 17 3 133 4 133 1z"/>
</g>
</svg>
