<?xml version="1.0" standalone="no"?>
<!DOCTYPE svg PUBLIC "-//W3C//DTD SVG 20010904//EN"
 "http://www.w3.org/TR/2001/REC-SVG-20010904/DTD/svg10.dtd">
<svg version="1.0" xmlns="http://www.w3.org/2000/svg"
 width="172.000000pt" height="104.000000pt" viewBox="0 0 172.000000 104.000000"
 preserveAspectRatio="xMidYMid meet">
<metadata>
Created by potrace 1.16, written by Peter Selinger 2001-2019
</metadata>
<g transform="translate(0.000000,104.000000) scale(0.100000,-0.100000)"
fill="#000000" stroke="none">
<path d="M334 742 c-32 -27 -81 -94 -114 -157 -66 -125 -20 -238 105 -264 28
-5 68 -15 90 -21 22 -7 92 -15 155 -18 l115 -7 0 -87 c0 -47 3 -89 7 -93 16
-17 37 20 43 78 11 96 18 107 63 107 l38 0 -15 -74 c-14 -68 -14 -75 3 -100
27 -42 40 -27 47 55 8 99 20 125 59 133 63 12 61 16 54 -100 l-7 -106 24 4
c18 2 24 10 25 28 2 59 27 186 37 191 2 1 369 19 457 23 39 1 45 5 48 25 l4
23 -129 -7 c-70 -3 -182 -11 -247 -16 -78 -6 -123 -6 -129 0 -7 7 -6 39 1 92
12 84 10 99 -13 99 -14 0 -45 -114 -45 -163 0 -31 -15 -43 -67 -51 l-41 -6 4
43 c3 23 10 77 16 120 6 43 8 81 4 84 -10 11 -46 -29 -45 -51 0 -11 -8 -61
-19 -110 l-19 -89 -43 -4 -43 -4 6 48 c4 26 9 77 13 113 3 36 7 67 9 70 7 13
-11 39 -22 32 -12 -8 -53 -173 -53 -216 0 -46 -23 -57 -108 -51 -105 7 -176
23 -295 67 -73 28 -74 126 -2 238 20 30 41 67 47 82 7 15 23 30 35 33 13 3 23
10 23 15 0 16 -53 11 -76 -8z"/>
</g>
</svg>
