<?xml version="1.0" standalone="no"?>
<!DOCTYPE svg PUBLIC "-//W3C//DTD SVG 20010904//EN"
 "http://www.w3.org/TR/2001/REC-SVG-20010904/DTD/svg10.dtd">
<svg version="1.0" xmlns="http://www.w3.org/2000/svg"
 width="127.000000pt" height="95.000000pt" viewBox="0 0 127.000000 95.000000"
 preserveAspectRatio="xMidYMid meet">
<metadata>
Created by potrace 1.16, written by Peter Selinger 2001-2019
</metadata>
<g transform="translate(0.000000,95.000000) scale(0.100000,-0.100000)"
fill="#000000" stroke="none">
<path d="M810 919 c-14 -11 -47 -35 -74 -53 -52 -34 -69 -56 -42 -56 9 0 16
-4 16 -9 0 -17 99 -114 142 -140 51 -30 106 -68 185 -128 30 -23 60 -44 67
-46 16 -5 -7 -31 -89 -96 -38 -30 -85 -69 -103 -86 -40 -37 -178 -122 -212
-130 -21 -5 -35 3 -75 39 -30 28 -77 56 -117 72 -55 22 -68 31 -68 49 0 12 -3
25 -7 29 -4 4 -8 33 -9 64 -1 31 -2 60 -3 65 -3 18 -23 3 -52 -39 -23 -34 -34
-43 -40 -33 -12 20 59 146 101 177 59 44 190 165 217 200 49 65 13 44 -69 -39
-46 -47 -104 -101 -129 -122 -64 -52 -188 -118 -227 -121 -18 -1 -37 -7 -44
-14 -16 -16 19 -71 63 -100 49 -32 42 -56 -32 -110 -73 -54 -78 -76 -7 -27 45
30 61 35 110 35 37 0 62 -5 72 -15 8 -8 21 -15 29 -15 31 0 134 -46 186 -82
33 -23 67 -38 85 -39 45 -1 58 -8 116 -63 28 -26 54 -45 58 -42 3 4 7 24 8 45
0 21 4 43 8 50 4 6 9 22 12 35 2 13 15 48 29 79 24 52 42 71 123 131 45 33
112 95 112 104 0 4 -14 15 -30 24 -17 10 -38 30 -47 45 -19 33 -128 120 -172
139 -17 7 -33 19 -36 26 -3 7 -6 58 -8 112 -2 55 -8 101 -13 103 -5 1 -20 -7
-34 -18z m-2 -96 l2 -57 -38 35 c-20 19 -38 35 -41 36 -4 2 61 43 69 43 3 0 7
-26 8 -57z m-458 -278 c0 -3 -14 -27 -31 -55 -30 -49 -32 -50 -50 -34 -29 26
-22 47 24 71 43 22 57 27 57 18z m35 -155 c-6 -11 11 -50 29 -63 6 -5 -7 -6
-29 -3 -22 3 -51 6 -65 6 -24 1 -24 1 -6 15 11 8 28 15 38 15 11 0 18 7 18 20
0 11 5 20 11 20 5 0 7 -4 4 -10z m491 -169 c-9 -16 -18 -38 -20 -48 -14 -64
-15 -64 -56 -25 l-38 37 61 37 c34 21 63 36 65 34 2 -2 -4 -18 -12 -35z"/>
<path d="M740 632 c0 -4 -45 -48 -99 -97 -55 -50 -100 -94 -100 -99 -1 -13 74
-77 120 -102 21 -12 46 -27 54 -34 12 -10 19 -10 27 -2 8 8 0 21 -26 49 -26
27 -36 47 -36 70 0 51 41 166 67 186 26 21 30 37 8 37 -8 0 -15 -3 -15 -8z
m-65 -109 c-4 -10 -13 -39 -19 -65 l-11 -46 -29 25 -29 25 39 38 c42 42 61 50
49 23z"/>
</g>
</svg>
