<?xml version="1.0" standalone="no"?>
<!DOCTYPE svg PUBLIC "-//W3C//DTD SVG 20010904//EN"
 "http://www.w3.org/TR/2001/REC-SVG-20010904/DTD/svg10.dtd">
<svg version="1.0" xmlns="http://www.w3.org/2000/svg"
 width="196.000000pt" height="144.000000pt" viewBox="0 0 196.000000 144.000000"
 preserveAspectRatio="xMidYMid meet">
<metadata>
Created by potrace 1.16, written by Peter Selinger 2001-2019
</metadata>
<g transform="translate(0.000000,144.000000) scale(0.100000,-0.100000)"
fill="#000000" stroke="none">
<path d="M1175 1366 c-11 -7 -38 -19 -60 -26 -50 -16 -70 -31 -55 -40 11 -7
-46 -50 -64 -50 -7 0 -91 -65 -106 -80 -3 -3 -39 -37 -80 -75 -80 -75 -167
-174 -214 -242 l-29 -43 -106 1 c-58 0 -124 5 -146 11 -55 15 -84 16 -96 2 -5
-6 -11 -51 -14 -100 -3 -49 -8 -115 -11 -146 -8 -87 22 -123 68 -81 15 13 208
62 249 63 4 0 12 -14 20 -32 25 -61 164 -214 267 -293 100 -77 112 -87 112
-96 0 -6 18 -28 40 -49 45 -44 70 -49 127 -25 68 29 96 88 94 197 0 42 3 87 8
101 11 28 120 81 166 80 29 -1 214 41 304 69 51 16 52 17 78 128 19 76 19 89
7 132 -18 58 -57 106 -102 125 -19 8 -91 20 -159 28 -132 15 -176 33 -222 92
-27 34 -34 112 -17 186 22 94 19 143 -10 162 -28 18 -25 18 -49 1z m-28 -91
c40 -20 45 -34 26 -86 -31 -91 13 -211 99 -270 50 -34 59 -37 158 -43 58 -4
122 -12 143 -19 37 -10 87 -60 87 -85 0 -21 -53 -27 -215 -25 -148 1 -579 28
-594 37 -3 2 -51 7 -106 11 -55 4 -102 9 -104 11 -9 8 29 74 83 147 87 117
336 337 382 337 6 0 25 -7 41 -15z m-637 -504 c18 -5 24 -13 22 -27 -2 -10 -9
-49 -15 -86 l-11 -67 -55 -11 c-31 -7 -75 -16 -98 -21 -23 -5 -56 -9 -73 -9
-30 0 -31 1 -25 31 13 57 13 64 14 132 l1 67 108 -1 c59 -1 118 -4 132 -8z
m415 -31 c83 -5 177 -14 210 -20 33 -5 96 -11 140 -11 44 -1 69 -4 55 -6 -14
-2 -68 -12 -120 -22 -97 -20 -223 -36 -363 -47 -43 -3 -112 -12 -155 -19 -93
-16 -106 -10 -99 50 3 22 10 53 16 69 l11 29 78 -7 c42 -4 145 -11 227 -16z
m728 -69 c-2 -41 -46 -107 -91 -138 -44 -29 -115 -43 -224 -43 l-90 0 -47 -39
c-55 -47 -82 -111 -88 -216 -5 -86 -17 -118 -49 -135 -19 -11 -29 -11 -50 -1
-15 6 -24 15 -20 18 3 4 12 1 18 -5 7 -7 20 -12 30 -12 41 0 12 30 -87 89 -58
34 -105 66 -105 71 0 6 -19 23 -42 40 -55 38 -183 204 -190 245 -3 17 9 22
102 42 98 20 194 34 385 52 44 5 121 15 170 24 116 21 312 45 350 43 28 -1 30
-4 28 -35z"/>
</g>
</svg>
