<?xml version="1.0" standalone="no"?>
<!DOCTYPE svg PUBLIC "-//W3C//DTD SVG 20010904//EN"
 "http://www.w3.org/TR/2001/REC-SVG-20010904/DTD/svg10.dtd">
<svg version="1.0" xmlns="http://www.w3.org/2000/svg"
 width="72.000000pt" height="70.000000pt" viewBox="0 0 72.000000 70.000000"
 preserveAspectRatio="xMidYMid meet">
<metadata>
Created by potrace 1.16, written by Peter Selinger 2001-2019
</metadata>
<g transform="translate(0.000000,70.000000) scale(0.100000,-0.100000)"
fill="#000000" stroke="none">
<path d="M213 580 c-23 -9 -32 -40 -12 -40 9 0 7 -70 -6 -155 -1 -11 1 -67 6
-123 14 -158 41 -187 174 -187 77 0 78 1 146 85 47 58 88 169 105 285 3 17 9
43 15 59 11 35 0 50 -39 53 -174 10 -235 16 -281 24 -65 11 -79 11 -108 -1z
m252 -66 c92 2 135 -7 135 -29 0 -7 -7 -29 -15 -48 -8 -20 -15 -48 -15 -61 0
-58 -83 -202 -138 -238 -48 -33 -144 -5 -162 45 -12 34 -27 315 -17 340 5 13
13 13 64 2 32 -8 99 -13 148 -11z"/>
</g>
</svg>
