<?xml version="1.0" standalone="no"?>
<!DOCTYPE svg PUBLIC "-//W3C//DTD SVG 20010904//EN"
 "http://www.w3.org/TR/2001/REC-SVG-20010904/DTD/svg10.dtd">
<svg version="1.0" xmlns="http://www.w3.org/2000/svg"
 width="132.000000pt" height="106.000000pt" viewBox="0 0 132.000000 106.000000"
 preserveAspectRatio="xMidYMid meet">
<metadata>
Created by potrace 1.16, written by Peter Selinger 2001-2019
</metadata>
<g transform="translate(0.000000,106.000000) scale(0.100000,-0.100000)"
fill="#000000" stroke="none">
<path d="M844 929 c-21 -23 -90 -63 -114 -65 -8 -1 -54 -30 -101 -65 -236
-175 -362 -258 -394 -258 -46 -2 -62 -51 -17 -51 39 0 96 -59 96 -100 0 -35
-33 -74 -87 -101 -38 -20 -49 -39 -22 -39 9 0 29 7 45 15 27 14 35 13 98 -9
38 -13 88 -38 112 -55 24 -17 49 -31 57 -31 22 0 70 -28 133 -77 36 -28 65
-43 75 -40 19 8 19 23 0 31 -18 7 -20 26 -2 26 21 0 97 -53 97 -68 0 -9 6 -12
16 -8 9 3 18 6 20 6 2 0 4 13 4 28 0 43 20 135 33 152 7 8 39 35 71 60 33 25
82 65 110 90 28 25 63 54 79 63 33 21 36 41 5 34 -18 -4 -29 4 -53 36 -16 22
-57 59 -90 81 -33 22 -62 44 -63 48 -2 5 -24 33 -49 64 l-45 56 5 76 c3 43 9
87 12 100 9 28 -6 29 -31 1z m-22 -86 c-6 -67 -7 -69 -26 -34 -18 34 -18 35 4
53 12 10 23 18 24 18 1 0 0 -17 -2 -37z m-69 -68 c12 -27 31 -52 51 -64 18
-11 49 -45 70 -76 36 -52 81 -89 149 -125 16 -8 40 -28 54 -44 l25 -30 -56
-52 c-56 -52 -178 -144 -192 -144 -4 0 -44 -27 -89 -59 l-83 -59 -47 39 c-26
21 -64 44 -84 50 -21 6 -55 25 -75 43 -37 30 -38 34 -42 105 -2 40 1 81 7 93
17 32 -1 35 -27 5 -33 -39 -48 -26 -40 33 11 86 23 106 99 161 81 60 185 129
193 129 3 0 17 9 31 20 14 11 28 20 32 20 3 0 14 -20 24 -45z m-403 -224 c-5
-11 -10 -31 -10 -45 0 -14 -3 -26 -7 -26 -9 1 -47 50 -41 54 4 4 62 35 66 36
1 0 -2 -9 -8 -19z m43 -253 c-3 -6 -61 9 -72 19 -3 2 11 19 30 39 l34 35 5
-43 c3 -24 4 -46 3 -50z m444 -143 c-9 -38 -13 -43 -28 -34 -31 16 -31 28 -2
54 15 13 31 25 34 25 3 0 2 -20 -4 -45z"/>
<path d="M740 645 c-19 -19 -57 -47 -85 -61 l-50 -25 -3 22 c-2 12 6 35 18 51
12 16 20 32 17 34 -4 5 -63 -29 -154 -90 -18 -11 -33 -26 -33 -33 0 -15 83
-63 111 -63 12 0 27 7 33 15 10 14 16 13 55 -6 25 -12 52 -30 60 -40 15 -18
18 -18 39 -4 25 19 29 35 7 35 -43 0 -28 107 21 161 22 22 23 39 4 39 -3 0
-21 -16 -40 -35z m-175 -64 c-3 -10 -1 -30 4 -45 12 -29 9 -31 -22 -14 -46 24
-49 35 -14 57 39 25 40 25 32 2z m135 -30 c-4 -16 -5 -33 -2 -37 4 -4 -3 -2
-15 5 -34 18 -36 29 -6 45 15 8 29 15 30 16 1 0 -2 -13 -7 -29z"/>
<path d="M816 428 c-23 -20 -44 -36 -108 -81 -28 -19 -11 -52 42 -81 48 -26
68 -24 49 4 -5 8 -9 33 -9 56 0 32 7 49 36 82 38 45 32 57 -10 20z m-51 -98
c0 -33 -6 -37 -25 -15 -10 12 -10 18 0 30 19 22 25 18 25 -15z"/>
<path d="M635 400 c-22 -16 -59 -38 -82 -50 -71 -35 -68 -43 35 -95 64 -32 97
-28 63 9 -19 20 -21 28 -12 67 6 28 19 50 35 62 14 10 26 23 26 28 0 16 -24 8
-65 -21z m-23 -75 c-5 -28 -6 -29 -33 -14 -20 10 -20 11 -2 24 28 22 41 18 35
-10z"/>
</g>
</svg>
