<?xml version="1.0" standalone="no"?>
<!DOCTYPE svg PUBLIC "-//W3C//DTD SVG 20010904//EN"
 "http://www.w3.org/TR/2001/REC-SVG-20010904/DTD/svg10.dtd">
<svg version="1.0" xmlns="http://www.w3.org/2000/svg"
 width="55.000000pt" height="82.000000pt" viewBox="0 0 55.000000 82.000000"
 preserveAspectRatio="xMidYMid meet">
<metadata>
Created by potrace 1.16, written by Peter Selinger 2001-2019
</metadata>
<g transform="translate(0.000000,82.000000) scale(0.100000,-0.100000)"
fill="#000000" stroke="none">
<path d="M208 704 c-23 -7 -23 -20 -1 -32 14 -8 16 -29 16 -143 -1 -83 -7
-157 -16 -195 -14 -59 -21 -210 -10 -227 3 -5 14 -1 24 9 14 13 19 31 19 73 1
88 17 184 35 197 8 6 15 17 15 25 0 8 7 28 16 44 9 17 32 60 51 97 36 70 76
121 103 130 8 3 12 8 9 12 -7 8 -238 17 -261 10z m190 -31 c-4 -11 -76 -138
-105 -188 l-23 -40 0 112 0 112 58 4 c31 2 61 4 65 5 5 1 7 -1 5 -5z"/>
</g>
</svg>
