<?xml version="1.0" standalone="no"?>
<!DOCTYPE svg PUBLIC "-//W3C//DTD SVG 20010904//EN"
 "http://www.w3.org/TR/2001/REC-SVG-20010904/DTD/svg10.dtd">
<svg version="1.0" xmlns="http://www.w3.org/2000/svg"
 width="184.000000pt" height="93.000000pt" viewBox="0 0 184.000000 93.000000"
 preserveAspectRatio="xMidYMid meet">
<metadata>
Created by potrace 1.16, written by Peter Selinger 2001-2019
</metadata>
<g transform="translate(0.000000,93.000000) scale(0.100000,-0.100000)"
fill="#000000" stroke="none">
<path d="M675 864 c-8 -9 -18 -34 -22 -57 -5 -36 -20 -56 -103 -139 -79 -80
-103 -98 -127 -98 -59 0 -148 22 -202 51 -52 28 -56 29 -68 13 -12 -16 -13
-16 -13 3 0 28 -14 37 -30 18 -12 -14 -16 -212 -4 -224 3 -3 20 3 37 13 18 11
53 31 79 44 87 46 66 72 -22 27 -27 -14 -51 -25 -54 -25 -2 0 -5 27 -5 60 0
33 3 60 7 60 4 -1 23 -9 42 -20 69 -37 86 -42 170 -51 84 -9 109 -21 122 -61
8 -24 37 2 43 39 15 84 27 114 65 158 22 25 43 44 47 43 4 -2 8 -16 8 -32 0
-38 19 -43 64 -18 20 12 82 38 136 59 89 35 106 38 155 32 108 -14 285 -18
419 -9 147 10 254 21 259 25 1 1 -102 1 -230 -1 -152 -1 -264 2 -323 10 -49 7
-146 21 -215 30 -85 12 -140 25 -172 41 -43 21 -49 22 -63 9z m124 -82 c40 -9
59 -17 50 -22 -25 -14 -149 -54 -152 -49 -2 2 -2 26 1 52 3 40 7 47 21 41 9
-4 45 -13 80 -22z m-291 -224 c-15 -44 -16 -45 -27 -17 -7 18 -5 27 7 37 26
20 32 14 20 -20z"/>
<path d="M878 717 c-25 -24 -153 -124 -195 -152 -39 -25 -51 -51 -18 -39 8 3
25 -6 38 -20 23 -25 56 -34 70 -19 4 3 0 14 -9 24 -14 16 -13 21 10 66 16 33
44 64 80 92 52 39 69 61 47 61 -5 0 -16 -6 -23 -13z m-138 -157 c-6 -11 -15
-18 -21 -14 -6 4 -6 11 2 20 17 21 31 17 19 -6z"/>
<path d="M970 668 c-26 -24 -144 -114 -176 -135 -17 -11 -17 -13 -3 -22 9 -6
26 -19 40 -29 20 -17 22 -22 10 -36 -21 -26 -207 -146 -225 -146 -34 0 -13
-27 34 -44 28 -10 56 -26 63 -35 12 -18 67 -37 67 -24 0 4 -10 17 -21 30 -24
24 -40 123 -21 123 6 0 17 6 24 13 44 41 94 64 131 60 42 -6 49 8 15 31 -17
12 -19 19 -10 28 9 9 22 7 57 -11 56 -28 59 -34 32 -58 -36 -32 -153 -111
-176 -118 -30 -9 -26 -18 19 -38 25 -10 44 -27 50 -42 11 -30 37 -42 52 -27 8
8 6 18 -6 37 -13 20 -16 37 -11 66 8 48 -9 53 -28 8 -10 -27 -14 -29 -24 -17
-10 12 -2 22 50 60 34 25 76 51 93 58 30 13 31 16 30 71 -1 31 2 61 6 64 9 9
45 -14 86 -55 46 -46 56 -37 53 53 l-2 76 43 27 c24 15 37 29 31 31 -14 5 -54
-21 -116 -73 -42 -35 -87 -50 -87 -28 0 8 19 32 41 54 23 22 36 40 28 40 -7 0
-45 -31 -85 -70 -41 -40 -81 -70 -92 -70 -11 0 -28 -3 -37 -6 -14 -6 -16 -1
-13 32 3 32 11 44 58 82 30 25 57 49 58 53 7 16 -13 9 -38 -13z m180 -127 l0
-39 -24 21 c-23 20 -23 23 -9 39 25 27 33 22 33 -21z m-281 -28 c1 -20 -13
-15 -28 8 -11 18 -11 23 1 30 13 8 26 -10 27 -38z m150 5 c-5 -18 -9 -34 -9
-35 0 -6 -26 -2 -39 6 -11 7 -8 14 15 35 38 34 44 32 33 -6z m-325 -224 c9
-23 1 -28 -24 -14 -18 10 -20 14 -9 21 20 12 26 11 33 -7z"/>
<path d="M1505 645 c-19 -18 -25 -35 -25 -66 l0 -42 -29 39 c-41 56 -61 71
-107 78 -41 6 -42 5 -57 -32 -10 -25 -17 -93 -22 -206 -3 -92 -11 -180 -16
-194 -6 -14 -6 -29 -1 -34 13 -13 133 45 169 82 l32 32 6 -38 c4 -22 9 -46 12
-54 4 -8 5 -21 4 -28 -8 -48 139 69 182 144 25 44 27 56 24 124 -2 44 -11 89
-22 110 -17 34 -97 110 -116 110 -6 0 -21 -11 -34 -25z m-110 -71 c51 -66 66
-202 29 -244 -8 -8 -25 -29 -39 -47 -25 -31 -80 -59 -89 -44 -3 4 -1 38 4 76
5 39 10 117 11 175 2 58 5 111 7 118 8 24 46 7 77 -34z m188 8 c101 -103 74
-250 -68 -364 -20 -16 -20 -15 -19 50 1 37 4 96 8 132 8 74 15 153 15 193 1
37 20 34 64 -11z"/>
<path d="M1080 380 c-41 -33 -87 -62 -102 -66 -34 -7 -34 -9 -3 -42 13 -15 35
-40 48 -56 17 -21 29 -27 42 -22 14 5 16 9 7 18 -18 18 -14 46 7 58 25 13 49
4 57 -23 10 -34 23 -45 44 -40 15 4 19 16 22 64 3 57 -4 75 -16 43 -3 -9 -6
-34 -6 -57 l0 -42 -24 42 -24 41 49 54 c27 29 45 54 39 56 -6 2 -31 -19 -55
-46 -25 -28 -59 -55 -75 -61 -34 -11 -38 -6 -13 21 9 10 12 18 6 18 -12 0 -49
-40 -56 -60 -4 -12 -6 -11 -12 4 -6 13 -3 21 9 28 10 5 40 30 67 54 27 24 56
44 64 44 8 0 15 7 15 15 0 24 -10 19 -90 -45z"/>
<path d="M111 396 c-28 -34 -22 -216 7 -216 5 0 29 21 53 46 84 87 149 113
195 79 18 -14 18 -14 0 -15 -15 0 -16 -3 -6 -15 12 -14 15 -14 30 0 21 19 40
12 81 -26 17 -16 40 -29 51 -29 12 0 41 -10 65 -22 31 -16 42 -26 38 -37 -9
-24 -13 -131 -5 -136 5 -3 46 16 93 40 101 54 52 50 600 46 297 -3 402 0 410
8 9 9 2 12 -33 10 -97 -5 -752 16 -768 24 -4 2 -52 -1 -107 -8 -100 -11 -129
-10 -120 5 3 4 -1 10 -9 13 -9 4 -12 14 -9 28 5 18 3 21 -10 16 -9 -3 -47 10
-86 30 l-71 37 0 46 c0 25 5 51 12 58 9 9 8 12 -4 12 -9 0 -20 -5 -23 -10 -4
-6 -25 -20 -47 -31 -35 -18 -45 -19 -67 -9 -14 7 -48 14 -76 16 -27 3 -72 11
-99 20 -45 14 -49 14 -61 -3 -12 -16 -13 -15 -8 10 6 29 -7 36 -26 13z m129
-76 c-2 -11 -99 -85 -107 -80 -11 7 -3 93 8 101 10 6 99 -13 99 -21z m230 -2
c0 -16 -3 -19 -11 -11 -6 6 -8 16 -5 22 11 17 16 13 16 -11z m240 -218 c-44
-24 -50 -24 -50 -2 0 13 9 17 43 19 l42 1 -35 -18z"/>
</g>
</svg>
