<?xml version="1.0" standalone="no"?>
<!DOCTYPE svg PUBLIC "-//W3C//DTD SVG 20010904//EN"
 "http://www.w3.org/TR/2001/REC-SVG-20010904/DTD/svg10.dtd">
<svg version="1.0" xmlns="http://www.w3.org/2000/svg"
 width="146.000000pt" height="124.000000pt" viewBox="0 0 146.000000 124.000000"
 preserveAspectRatio="xMidYMid meet">
<metadata>
Created by potrace 1.16, written by Peter Selinger 2001-2019
</metadata>
<g transform="translate(0.000000,124.000000) scale(0.100000,-0.100000)"
fill="#000000" stroke="none">
<path d="M1163 1155 c-185 -50 -378 -190 -443 -322 -24 -50 -26 -51 -75 -55
-114 -10 -374 -8 -380 2 -9 14 -31 12 -48 -4 -10 -10 -16 -51 -21 -133 -4 -65
-14 -142 -22 -171 -17 -61 -13 -75 19 -63 13 5 59 6 102 2 80 -6 274 11 327
29 25 8 28 6 33 -18 19 -91 113 -188 247 -254 81 -41 104 -48 153 -48 40 0 64
-5 76 -16 20 -18 39 -11 39 15 0 9 5 22 12 29 7 7 13 53 15 114 2 57 5 121 7
143 3 22 7 78 10 125 4 47 11 123 16 170 5 47 14 144 20 215 16 185 20 214 31
220 5 4 9 13 9 21 0 18 -56 18 -127 -1z m67 -19 c0 -3 -4 -16 -9 -29 -6 -14
-12 -49 -15 -79 -12 -125 -17 -189 -21 -283 -10 -240 -51 -575 -70 -575 -33 0
-146 42 -199 74 -37 22 -80 47 -94 55 -46 25 -114 118 -114 156 0 32 -22 49
-50 41 -75 -22 -284 -34 -355 -21 l-43 8 5 56 c3 31 8 80 11 109 l5 52 42 1
c81 2 154 8 253 18 165 19 169 20 165 56 -3 26 73 148 115 186 32 28 84 66
126 89 136 77 132 75 236 88 6 1 12 0 12 -2z"/>
</g>
</svg>
