<?xml version="1.0" standalone="no"?>
<!DOCTYPE svg PUBLIC "-//W3C//DTD SVG 20010904//EN"
 "http://www.w3.org/TR/2001/REC-SVG-20010904/DTD/svg10.dtd">
<svg version="1.0" xmlns="http://www.w3.org/2000/svg"
 width="108.000000pt" height="96.000000pt" viewBox="0 0 108.000000 96.000000"
 preserveAspectRatio="xMidYMid meet">
<metadata>
Created by potrace 1.16, written by Peter Selinger 2001-2019
</metadata>
<g transform="translate(0.000000,96.000000) scale(0.100000,-0.100000)"
fill="#000000" stroke="none">
<path d="M616 935 c-15 -11 -23 -12 -33 -3 -12 9 -42 -17 -161 -142 -138 -144
-152 -155 -229 -191 -46 -21 -83 -40 -83 -43 0 -3 17 -13 38 -21 32 -14 63
-42 114 -104 9 -11 -5 -30 -71 -93 -78 -75 -97 -102 -54 -80 15 8 94 86 186
184 11 11 22 16 27 11 6 -7 30 -91 30 -107 0 -2 -22 3 -49 12 -41 13 -53 13
-65 2 -23 -18 -20 -27 12 -33 16 -3 93 -49 172 -101 137 -92 171 -108 185 -86
4 6 18 1 36 -12 38 -28 53 -15 56 50 1 26 9 67 17 90 11 31 13 49 6 62 -6 10
-6 20 -1 22 16 6 181 162 181 171 0 5 -18 26 -40 46 -22 20 -62 68 -88 106
-29 44 -66 83 -97 104 -28 18 -49 38 -47 43 1 6 4 37 6 69 4 64 -8 75 -48 44z
m4 -75 c0 -28 -2 -29 -20 -18 -29 18 -25 48 7 48 8 0 13 -12 13 -30z m-80 -29
c5 -11 23 -27 38 -37 22 -12 28 -22 24 -40 -3 -19 0 -24 15 -24 11 0 23 3 27
8 20 19 47 -2 136 -109 25 -30 58 -66 73 -80 27 -25 28 -26 11 -55 -9 -17 -34
-43 -56 -59 -21 -16 -38 -35 -38 -44 0 -8 -3 -12 -6 -8 -4 3 -37 -21 -75 -53
-38 -33 -82 -66 -99 -75 -37 -19 -40 -45 -6 -45 22 0 62 -37 51 -48 -5 -5 -63
28 -85 48 -8 8 -37 31 -62 50 -41 30 -49 43 -62 95 -13 50 -27 130 -30 169 -2
22 -26 15 -47 -13 -35 -48 -53 -41 -46 17 11 95 41 151 128 240 45 45 85 82
90 82 5 0 13 -9 19 -19z m-260 -235 c0 -2 -6 -17 -13 -34 l-12 -30 -24 19
c-13 11 -22 21 -20 23 21 18 69 33 69 22z m431 -328 c-6 -17 -11 -43 -11 -58
0 -15 -3 -30 -7 -33 -7 -7 -53 55 -53 72 0 15 74 73 78 61 2 -6 -1 -25 -7 -42z"/>
<path d="M585 662 c-56 -41 -97 -62 -124 -62 -10 0 -25 -7 -32 -16 -11 -14 -7
-22 34 -60 26 -24 47 -52 47 -63 0 -23 16 -36 25 -21 4 6 11 8 16 5 21 -14 30
7 13 32 -26 40 -4 120 47 174 61 63 50 68 -26 11z m-53 -92 c-5 -34 -13 -37
-33 -14 -11 14 -10 18 6 30 27 20 32 18 27 -16z"/>
<path d="M670 590 c-30 -21 -60 -39 -66 -40 -6 0 -17 -6 -23 -14 -10 -12 0
-23 51 -59 57 -41 65 -44 80 -31 12 12 15 29 13 69 -1 29 -6 58 -9 64 -4 5 3
15 14 21 11 6 18 15 15 21 -9 14 -15 11 -75 -31z m16 -57 c3 -16 7 -34 10 -40
5 -19 -7 -15 -41 12 -29 24 -29 25 -10 39 28 21 34 20 41 -11z"/>
</g>
</svg>
