<?xml version="1.0" standalone="no"?>
<!DOCTYPE svg PUBLIC "-//W3C//DTD SVG 20010904//EN"
 "http://www.w3.org/TR/2001/REC-SVG-20010904/DTD/svg10.dtd">
<svg version="1.0" xmlns="http://www.w3.org/2000/svg"
 width="148.000000pt" height="98.000000pt" viewBox="0 0 148.000000 98.000000"
 preserveAspectRatio="xMidYMid meet">
<metadata>
Created by potrace 1.16, written by Peter Selinger 2001-2019
</metadata>
<g transform="translate(0.000000,98.000000) scale(0.100000,-0.100000)"
fill="#000000" stroke="none">
<path d="M834 892 c-43 -31 -133 -109 -199 -174 -137 -133 -174 -165 -230
-198 -22 -14 -47 -33 -55 -43 -9 -10 -38 -31 -65 -46 -64 -35 -69 -56 -16 -77
22 -8 47 -26 55 -40 9 -13 29 -30 45 -39 22 -11 28 -20 24 -35 -3 -12 -8 -18
-11 -15 -6 6 -92 -75 -92 -87 0 -16 23 -7 60 22 44 35 52 36 105 10 22 -11 45
-19 51 -20 6 0 17 -7 24 -15 7 -8 19 -15 27 -15 8 0 32 -13 52 -28 35 -28 180
-92 207 -92 34 0 8 28 -59 64 -68 37 -112 69 -178 126 -34 30 -44 96 -17 113
19 13 118 -30 118 -50 0 -7 9 -13 19 -13 11 0 23 -5 26 -10 8 -12 35 -13 35
-1 0 4 -12 20 -26 34 -29 29 -44 79 -34 116 7 30 81 92 87 74 3 -7 11 -13 19
-13 12 0 14 9 9 45 -7 41 -6 44 18 50 71 18 94 -65 35 -122 -18 -17 -47 -38
-65 -47 -50 -25 -48 -34 11 -60 32 -14 56 -31 56 -40 0 -20 12 -26 38 -19 26
6 28 25 6 44 -12 9 -15 24 -11 51 3 21 1 41 -4 44 -5 3 2 20 16 38 15 20 23
40 19 50 -4 11 -1 16 11 16 11 0 15 6 11 18 -4 11 0 35 9 55 8 20 12 43 9 51
-9 24 7 19 46 -14 19 -17 39 -30 46 -30 6 0 19 -9 29 -20 10 -11 27 -22 39
-26 11 -4 40 -22 63 -41 l42 -34 -57 -52 c-31 -28 -78 -71 -104 -95 -63 -60
-170 -130 -224 -149 -24 -8 -47 -19 -50 -25 -4 -5 7 -23 22 -38 16 -16 39 -42
52 -59 25 -33 80 -46 68 -16 -3 8 3 41 13 72 10 32 21 72 25 89 4 18 18 37 34
46 15 9 71 57 124 107 54 50 109 93 123 97 24 6 36 34 15 34 -5 0 -33 23 -62
50 -29 28 -56 50 -61 50 -5 0 -34 24 -65 53 -31 29 -83 72 -114 95 l-58 42 4
95 c2 53 1 97 -3 100 -4 2 -43 -22 -87 -53z m48 -52 c4 -46 1 -48 -37 -18
l-27 21 23 18 c33 26 36 24 41 -21z m-39 -93 c34 -34 73 -69 87 -78 l25 -17
-25 -21 c-14 -12 -44 -31 -67 -42 -24 -11 -43 -24 -43 -29 0 -6 -4 -10 -10
-10 -5 0 -10 20 -10 44 0 37 5 48 27 64 16 11 25 24 20 28 -4 4 -26 -7 -50
-24 -23 -18 -59 -41 -79 -52 -51 -28 -55 -39 -22 -65 16 -12 40 -31 52 -42
l24 -19 -72 -54 c-97 -74 -102 -77 -127 -85 -17 -5 -23 -2 -23 9 0 27 -27 18
-66 -24 -58 -61 -68 -55 -61 39 5 77 15 109 44 143 13 15 18 14 64 -10 28 -14
55 -34 60 -44 6 -12 21 -18 44 -18 44 0 51 13 19 35 -24 16 -25 19 -18 83 5
48 12 71 25 80 11 7 19 18 19 23 0 13 -26 -1 -84 -46 -25 -19 -48 -35 -50 -35
-7 0 226 229 232 230 2 0 32 -28 65 -63z m-79 -159 c-1 -13 -3 -27 -3 -32 -1
-5 -10 -1 -21 9 -19 17 -19 19 -2 31 24 19 29 17 26 -8z m169 -16 c-3 -14 -12
-22 -21 -20 -25 5 -25 24 0 35 28 13 29 13 21 -15z m-333 -17 c0 -39 -5 -42
-35 -19 -20 15 -20 15 5 34 14 11 26 20 28 20 1 0 2 -16 2 -35z m-211 -129
c-6 -25 -9 -55 -6 -66 3 -11 1 -20 -4 -20 -5 0 -9 5 -9 10 0 6 -11 20 -25 32
l-24 21 37 38 c20 20 38 36 40 34 2 -1 -2 -23 -9 -49z m483 -71 c-2 -14 -7
-25 -11 -25 -11 0 -36 19 -31 23 4 3 43 26 46 27 1 0 -1 -11 -4 -25z m-210
-10 c5 -22 3 -25 -16 -19 -31 10 -33 14 -12 30 25 18 23 18 28 -11z m-152 -86
c0 -41 0 -41 -32 -35 -17 3 -34 9 -37 12 -5 4 56 63 67 64 1 0 2 -19 2 -41z
m425 -145 l-20 -65 -27 32 c-16 18 -28 36 -28 39 1 5 80 58 90 59 4 1 -3 -29
-15 -65z"/>
</g>
</svg>
